<svg xmlns="http://www.w3.org/2000/svg" width="884" height="323.154"><defs><filter id="a" x="0" y="56" width="884" height="187" filterUnits="userSpaceOnUse"><feOffset dy="3"/><feGaussianBlur stdDeviation="2" result="b"/><feFlood flood-opacity=".102"/><feComposite operator="in" in2="b"/><feComposite in="SourceGraphic"/></filter><style>.a{fill:#d2d2d2}.b{fill:none}.c{fill:#8a8d90}.e{fill:#06c}</style></defs><g transform="translate(-418 -729)"><path class="a" d="M424 1021h872v1H424z"/><path class="b" d="M1256 980h24v24h-24z"/><path class="c" d="M1272.9 992.9l-6.8 6.8a1.217 1.217 0 01-1.6 0l-1.2-1a1.493 1.493 0 010-1.8l4.8-4.8-4.8-4.8a1.493 1.493 0 010-1.8l1.2-1.2a1.217 1.217 0 011.6 0l6.8 6.8a1.493 1.493 0 010 1.8zM448.02 999h2.18l1.64-4.1h6.26l1.62 4.1H462l-5.72-14h-2.46zm4.52-5.84l2.44-6.14 2.44 6.14zm10.64 5.84h2v-7.32a2.866 2.866 0 012.5-1.32 2.374 2.374 0 012.54 2.58V999h1.98v-6.4a3.8 3.8 0 00-3.96-3.98 4.16 4.16 0 00-3.06 1.22v-1.02h-2zm14.58.18a4.792 4.792 0 003.16-1.06v.88h1.96v-6.74c0-2.36-1.54-3.64-4.16-3.64a9.555 9.555 0 00-4.18 1.04l.74 1.5a7.377 7.377 0 013.16-.86c1.62 0 2.48.72 2.48 2.16v1.08a7.04 7.04 0 00-2.78-.56c-2.38 0-4.12 1.06-4.12 3.1 0 1.82 1.52 3.1 3.74 3.1zm-1.82-3.14c0-1.06.96-1.68 2.36-1.68a5.34 5.34 0 012.62.6v1.78a3.915 3.915 0 01-2.7.96c-1.34 0-2.28-.66-2.28-1.66zm11.24-11.48l-2 .44v14h2zm4.92 15.3a2.093 2.093 0 01-2.02 1.5 3.356 3.356 0 01-.88-.08v1.76a4.341 4.341 0 001.06.1c1.94 0 2.98-.94 3.9-3.04l4.86-11.28h-2.16l-3.28 7.78-2.98-7.78h-2.2l4.06 10.2zm9.88-3.38c0 1.76 1.06 2.7 3.04 2.7a6.851 6.851 0 001.9-.3v-1.68a3.862 3.862 0 01-1.46.24c-1.08 0-1.5-.38-1.5-1.42v-5.52h3v-1.68h-3v-3.08l-1.98.48v2.6h-2.16v1.68h2.16zm7.44-9.3a1.229 1.229 0 001.22-1.24 1.229 1.229 0 00-1.22-1.24 1.246 1.246 0 00-1.24 1.24 1.246 1.246 0 001.24 1.24zm1 1.64h-2V999h2zm7.2 8.6a3.377 3.377 0 01-3.34-3.52 3.364 3.364 0 013.3-3.5 3.784 3.784 0 012.8 1.28l1.26-1.36a5.828 5.828 0 00-4.1-1.7 5.2 5.2 0 00-5.24 5.28 5.191 5.191 0 005.24 5.28 5.63 5.63 0 004.02-1.7l-1.2-1.3a3.72 3.72 0 01-2.74 1.24zm4.72.26a6.794 6.794 0 004.46 1.5c2.42 0 4.26-1.36 4.26-3.2 0-1.56-1.02-2.54-3.08-2.84l-1.84-.26c-1.2-.18-1.68-.52-1.68-1.28 0-.86.86-1.38 2.04-1.38a5.589 5.589 0 013.22 1.06l1.02-1.32a6.988 6.988 0 00-4.1-1.3c-2.34 0-3.98 1.22-3.98 3.08 0 1.58 1.04 2.54 3.04 2.82l1.84.26c1.14.16 1.64.58 1.64 1.3 0 .82-.84 1.52-2.44 1.52a5.235 5.235 0 01-3.32-1.28zm26.28.22c-.74-.56-1.5-1.18-2.26-1.84a12.563 12.563 0 001.7-4.4l-1.78-.28a10.937 10.937 0 01-1.24 3.52 77.105 77.105 0 01-3.36-3.3l1.02-.62c1.42-.86 2.14-1.84 2.14-3.14a3.145 3.145 0 00-3.42-3.06 3.406 3.406 0 00-3.6 3.38 4.573 4.573 0 001.24 3.12l-.22.12c-1.96 1.08-2.74 2.16-2.74 3.84 0 2.36 1.9 3.96 4.76 3.96a6.262 6.262 0 004.36-1.66c.72.64 1.48 1.24 2.2 1.78zm-8.96-9.76a1.694 1.694 0 011.7-1.82 1.585 1.585 0 011.64 1.58 2.207 2.207 0 01-1.3 1.92l-1.02.6a3.547 3.547 0 01-1.02-2.28zm-1.68 6.98c0-1 .48-1.7 1.86-2.5l.22-.12a50.755 50.755 0 003.88 3.92 4.257 4.257 0 01-2.96 1.16c-1.82 0-3-.96-3-2.46zm24.1 3.88h1.98v-14.44l-2 .44v4.66a5.1 5.1 0 00-3.06-1 5.144 5.144 0 00-5.18 5.24 5.153 5.153 0 005.14 5.26 4.808 4.808 0 003.12-1.12zm-6.3-5.12a3.408 3.408 0 013.46-3.5 3.8 3.8 0 012.82 1.2v4.62a3.645 3.645 0 01-2.82 1.22 3.442 3.442 0 01-3.46-3.54zm13.84 5.3a4.792 4.792 0 003.16-1.06v.88h1.96v-6.74c0-2.36-1.54-3.64-4.16-3.64a9.555 9.555 0 00-4.18 1.04l.74 1.5a7.377 7.377 0 013.16-.86c1.62 0 2.48.72 2.48 2.16v1.08a7.04 7.04 0 00-2.78-.56c-2.38 0-4.12 1.06-4.12 3.1 0 1.82 1.52 3.1 3.74 3.1zm-1.82-3.14c0-1.06.96-1.68 2.36-1.68a5.34 5.34 0 012.62.6v1.78a3.915 3.915 0 01-2.7.96c-1.34 0-2.28-.66-2.28-1.66zm10.18.44c0 1.76 1.06 2.7 3.04 2.7a6.851 6.851 0 001.9-.3v-1.68a3.862 3.862 0 01-1.46.24c-1.08 0-1.5-.38-1.5-1.42v-5.52h3v-1.68h-3v-3.08l-1.98.48v2.6h-2.16v1.68h2.16zm9.68 2.7a4.792 4.792 0 003.16-1.06v.88h1.96v-6.74c0-2.36-1.54-3.64-4.16-3.64a9.555 9.555 0 00-4.18 1.04l.74 1.5a7.377 7.377 0 013.16-.86c1.62 0 2.48.72 2.48 2.16v1.08a7.04 7.04 0 00-2.78-.56c-2.38 0-4.12 1.06-4.12 3.1 0 1.82 1.52 3.1 3.74 3.1zm-1.82-3.14c0-1.06.96-1.68 2.36-1.68a5.34 5.34 0 012.62.6v1.78a3.915 3.915 0 01-2.7.96c-1.34 0-2.28-.66-2.28-1.66zm13.42 2.96h2v-7.42a2.646 2.646 0 012.3-1.22 2.283 2.283 0 012.32 2.58V999h2v-6.4a4.239 4.239 0 00-.08-.88 2.71 2.71 0 012.38-1.36 2.287 2.287 0 012.34 2.58V999h1.98v-6.4a3.725 3.725 0 00-3.8-3.98 4.086 4.086 0 00-3.44 1.68 3.631 3.631 0 00-3.16-1.68 3.89 3.89 0 00-2.84 1.14v-.94h-2zm20.8.18a4.792 4.792 0 003.16-1.06v.88h1.96v-6.74c0-2.36-1.54-3.64-4.16-3.64a9.555 9.555 0 00-4.18 1.04l.74 1.5a7.377 7.377 0 013.16-.86c1.62 0 2.48.72 2.48 2.16v1.08a7.04 7.04 0 00-2.78-.56c-2.38 0-4.12 1.06-4.12 3.1 0 1.82 1.52 3.1 3.74 3.1zm-1.82-3.14c0-1.06.96-1.68 2.36-1.68a5.34 5.34 0 012.62.6v1.78a3.915 3.915 0 01-2.7.96c-1.34 0-2.28-.66-2.28-1.66zm9.24 2.96h2v-7.32a2.866 2.866 0 012.5-1.32 2.374 2.374 0 012.54 2.58V999h1.98v-6.4a3.8 3.8 0 00-3.96-3.98 4.16 4.16 0 00-3.06 1.22v-1.02h-2zm14.58.18a4.792 4.792 0 003.16-1.06v.88h1.96v-6.74c0-2.36-1.54-3.64-4.16-3.64a9.555 9.555 0 00-4.18 1.04l.74 1.5a7.377 7.377 0 013.16-.86c1.62 0 2.48.72 2.48 2.16v1.08a7.04 7.04 0 00-2.78-.56c-2.38 0-4.12 1.06-4.12 3.1 0 1.82 1.52 3.1 3.74 3.1zm-1.82-3.14c0-1.06.96-1.68 2.36-1.68a5.34 5.34 0 012.62.6v1.78a3.915 3.915 0 01-2.7.96c-1.34 0-2.28-.66-2.28-1.66zm13.92 3.04a4.746 4.746 0 003.04-1.08v1.1c0 1.6-.94 2.42-2.72 2.42a6.893 6.893 0 01-3.26-.88l-.78 1.56a8.464 8.464 0 004.1 1c2.98 0 4.66-1.44 4.66-4.12v-10.26h-1.98v.84a4.913 4.913 0 00-3.02-1.02 5.135 5.135 0 00-5.16 5.22 5.115 5.115 0 005.12 5.22zm-3.16-5.22a3.391 3.391 0 013.4-3.48 3.671 3.671 0 012.8 1.18v4.6a3.671 3.671 0 01-2.8 1.18 3.391 3.391 0 01-3.4-3.48zm10.08.04a5.238 5.238 0 005.34 5.28 6 6 0 003.94-1.34l-1.28-1.26a3.96 3.96 0 01-2.58.9 3.434 3.434 0 01-3.44-2.92h8.04v-.58a5.041 5.041 0 00-4.92-5.32 5.115 5.115 0 00-5.1 5.24zm5.06-3.56a3.133 3.133 0 012.98 2.72h-6.04a3.129 3.129 0 013.06-2.72zm6.84 8.66h2v-7.42a2.646 2.646 0 012.3-1.22 2.283 2.283 0 012.32 2.58V999h2v-6.4a4.239 4.239 0 00-.08-.88 2.71 2.71 0 012.38-1.36 2.287 2.287 0 012.34 2.58V999h1.98v-6.4a3.725 3.725 0 00-3.8-3.98 4.086 4.086 0 00-3.44 1.68 3.631 3.631 0 00-3.16-1.68 3.89 3.89 0 00-2.84 1.14v-.94h-2zm17.12-5.1a5.238 5.238 0 005.34 5.28 6 6 0 003.94-1.34l-1.28-1.26a3.96 3.96 0 01-2.58.9 3.434 3.434 0 01-3.44-2.92h8.04v-.58a5.041 5.041 0 00-4.92-5.32 5.115 5.115 0 00-5.1 5.24zm5.06-3.56a3.133 3.133 0 012.98 2.72h-6.04a3.129 3.129 0 013.06-2.72zM702 999h2v-7.32a2.866 2.866 0 012.5-1.32 2.374 2.374 0 012.54 2.58V999h1.98v-6.4a3.8 3.8 0 00-3.96-3.98 4.16 4.16 0 00-3.06 1.22v-1.02h-2zm12.28-2.52c0 1.76 1.06 2.7 3.04 2.7a6.851 6.851 0 001.9-.3v-1.68a3.862 3.862 0 01-1.46.24c-1.08 0-1.5-.38-1.5-1.42v-5.52h3v-1.68h-3v-3.08l-1.98.48v2.6h-2.16v1.68h2.16z"/><g transform="translate(418 729)" filter="url(#a)"><g fill="#fff" stroke="#d2d2d2"><path stroke="none" d="M6 59h872v175H6z"/><path class="b" d="M6.5 59.5h871v174H6.5z"/></g></g><path class="c" d="M561 921l-1.5 1.5 4.5 4.5h-10v2h10l-4.5 4.5 1.5 1.5 7-7zM449.134 934h9.5v-2.3h-6.89v-10.3h-2.61zm10.314-4.68a4.882 4.882 0 005.04 4.86 5.622 5.622 0 003.8-1.35l-1.62-1.476a2.952 2.952 0 01-2.07.756 2.7 2.7 0 01-2.664-1.962h6.984v-.648a4.733 4.733 0 00-4.644-5.04 4.787 4.787 0 00-4.826 4.86zm4.77-2.826a2.384 2.384 0 012.282 1.89h-4.59a2.355 2.355 0 012.308-1.89zm9.144 7.668a4.389 4.389 0 002.718-.828V934h2.43v-6.084c0-2.25-1.494-3.474-4-3.474a9.86 9.86 0 00-4.172 1.008l.9 1.818a7.277 7.277 0 012.862-.774c1.314 0 1.98.54 1.98 1.638v.668a7.242 7.242 0 00-2.286-.36c-2.34 0-3.852 1.008-3.852 2.844 0 1.654 1.35 2.878 3.42 2.878zm-1.062-2.934c0-.756.72-1.17 1.8-1.17a5.558 5.558 0 011.98.342v1.4a3.59 3.59 0 01-2.07.594c-1.044.006-1.71-.446-1.71-1.166zm8.082 2.772h2.466v-6.084a2.49 2.49 0 012.268-1.386 2.965 2.965 0 011.26.252v-2.16a2.125 2.125 0 00-1.026-.216 3.053 3.053 0 00-2.5 1.242v-1.026h-2.468zm7.326 0h2.466v-6.5a2.2 2.2 0 011.926-.934 1.842 1.842 0 011.962 1.962V934h2.448v-5.832a3.558 3.558 0 00-3.71-3.726 3.912 3.912 0 00-2.628.936v-.756h-2.464zM502 934h2.466v-6.57a2.085 2.085 0 011.746-.864 1.75 1.75 0 011.764 1.962V934h2.466v-5.832a3.839 3.839 0 00-.054-.666 2.111 2.111 0 011.8-.936 1.763 1.763 0 011.782 1.962V934h2.466v-5.832a3.512 3.512 0 00-3.6-3.726 3.95 3.95 0 00-3.1 1.386 3.374 3.374 0 00-2.826-1.386 3.647 3.647 0 00-2.448.882v-.7H502zm15.912-4.68a4.873 4.873 0 005 4.86 4.873 4.873 0 005-4.86 4.888 4.888 0 00-5-4.878 4.888 4.888 0 00-5 4.878zm7.6 0a2.634 2.634 0 01-2.592 2.718 2.634 2.634 0 01-2.596-2.718 2.638 2.638 0 012.592-2.736 2.627 2.627 0 012.592 2.736zM529.4 934h2.466v-6.084a2.49 2.49 0 012.264-1.386 2.965 2.965 0 011.26.252v-2.16a2.125 2.125 0 00-1.026-.216 3.053 3.053 0 00-2.5 1.242v-1.026H529.4zm6.48-4.68a4.882 4.882 0 005.036 4.86 5.622 5.622 0 003.8-1.35l-1.62-1.476a2.952 2.952 0 01-2.07.756 2.7 2.7 0 01-2.666-1.962h6.984v-.648a4.733 4.733 0 00-4.644-5.04 4.787 4.787 0 00-4.824 4.86zm4.77-2.826a2.384 2.384 0 012.286 1.89h-4.59a2.355 2.355 0 012.3-1.89zM452.416 871l2.848-9.5 2.848 9.5h1.232l2.432-11.2h-1.216l-1.9 9.232-2.772-9.232h-1.2l-2.768 9.232-1.904-9.232h-1.248l2.416 11.2zm10.176-3.9a3.907 3.907 0 003.872 4.048 4.5 4.5 0 002.928-1.04l-.736-.8a3.191 3.191 0 01-2.144.8 2.81 2.81 0 01-2.768-2.768h6.128V867a3.7 3.7 0 00-3.584-3.936 3.812 3.812 0 00-3.696 4.036zm3.68-3.008a2.572 2.572 0 012.428 2.428h-4.924a2.581 2.581 0 012.496-2.432zm8.912 3.008a3.907 3.907 0 003.872 4.048 4.5 4.5 0 002.928-1.04l-.736-.8a3.191 3.191 0 01-2.144.8 2.81 2.81 0 01-2.768-2.768h6.128V867a3.7 3.7 0 00-3.584-3.936 3.812 3.812 0 00-3.696 4.036zm3.68-3.008a2.572 2.572 0 012.436 2.428h-4.932a2.581 2.581 0 012.496-2.432zm4.112 6.908h1.324l2.32-3.184 2.34 3.184h1.376l-3.024-4.048 2.816-3.76h-1.344l-2.128 2.96-2.144-2.96H483.1l2.848 3.776zm8.832 3.184h1.168v-4.176a3.14 3.14 0 002.448 1.1 3.8 3.8 0 003.676-4.008 3.78 3.78 0 00-3.616-4 3.081 3.081 0 00-2.524 1.212v-1.12h-1.152zm3.392-10.064a2.8 2.8 0 012.736 2.992 2.769 2.769 0 01-4.96 1.9v-3.82a2.688 2.688 0 012.224-1.072zm8.384 7.024a3.321 3.321 0 002.48-1.04V871h1.152v-5.184c0-1.808-1.12-2.752-3.024-2.752a6.539 6.539 0 00-2.944.752l.448.9a5.037 5.037 0 012.352-.672c1.312 0 2.016.624 2.016 1.936v1.056a4.683 4.683 0 00-2.364-.596c-1.7 0-2.928.864-2.928 2.3-.004 1.428 1.164 2.404 2.812 2.404zm-1.7-2.416c0-.912.832-1.456 1.968-1.456a4.052 4.052 0 012.208.576v1.5a3.116 3.116 0 01-2.24.9c-1.132 0-1.932-.608-1.932-1.52zm7.652 2.272h1.164v-5.76a2.32 2.32 0 012.048-1.2 2.023 2.023 0 012.1 2.24V871h1.168v-5.056a2.722 2.722 0 00-2.816-2.88 2.813 2.813 0 00-2.5 1.408v-1.28h-1.164zm14.564 0h1.168v-11.44l-1.188.24v4.368a3.2 3.2 0 00-2.416-1.068 3.8 3.8 0 00-3.68 4.016 3.78 3.78 0 003.616 4 3.139 3.139 0 002.5-1.168zm-4.944-3.9a2.775 2.775 0 012.72-2.976 2.813 2.813 0 012.208 1.04v3.888a2.7 2.7 0 01-2.208 1.04 2.789 2.789 0 01-2.724-2.992zm8.08 0a3.907 3.907 0 003.864 4.044 4.5 4.5 0 002.928-1.04l-.736-.8a3.191 3.191 0 01-2.144.8 2.81 2.81 0 01-2.768-2.768h6.128V867a3.7 3.7 0 00-3.584-3.936 3.812 3.812 0 00-3.692 4.036zm3.68-3.008a2.572 2.572 0 012.432 2.432h-4.932a2.581 2.581 0 012.496-2.436zM542.224 871h1.168v-11.44l-1.184.24v4.368a3.2 3.2 0 00-2.416-1.068 3.8 3.8 0 00-3.68 4.016 3.78 3.78 0 003.616 4 3.139 3.139 0 002.5-1.168zm-4.944-3.9a2.775 2.775 0 012.72-2.98 2.813 2.813 0 012.208 1.04v3.888a2.7 2.7 0 01-2.208 1.04 2.789 2.789 0 01-2.72-2.988zm11.808 0a3.816 3.816 0 107.616 0 3.814 3.814 0 10-7.616 0zm6.448.016a2.663 2.663 0 11-5.28 0 2.664 2.664 0 115.28 0zm4.3-3.92h-1.168v5.056a2.722 2.722 0 002.816 2.88 2.813 2.813 0 002.5-1.408V871h1.168v-7.808h-1.168v5.76a2.32 2.32 0 01-2.048 1.2 2.023 2.023 0 01-2.1-2.24zm7.62 7.804h1.168v-5.344a2.2 2.2 0 012.1-1.584 2.768 2.768 0 01.816.144v-1.056a2.3 2.3 0 00-.736-.112 2.321 2.321 0 00-2.176 1.7v-1.556h-1.168zm11.776.144a3.321 3.321 0 002.48-1.04V871h1.152v-5.184c0-1.808-1.12-2.752-3.024-2.752a6.539 6.539 0 00-2.944.752l.448.9a5.037 5.037 0 012.356-.676c1.312 0 2.016.624 2.016 1.936v1.056a4.683 4.683 0 00-2.368-.592c-1.7 0-2.928.864-2.928 2.3-.004 1.428 1.164 2.404 2.812 2.404zm-1.7-2.416c0-.912.832-1.456 1.968-1.456a4.052 4.052 0 012.208.576v1.5a3.116 3.116 0 01-2.24.9c-1.132 0-1.932-.608-1.932-1.52zm8.816-9.168l-1.168.24V871h1.168zm3.488 0l-1.168.24V871h1.168zm2.912 1.664a.84.84 0 10-.832-.848.83.83 0 00.836.848zm.576 1.968h-1.164V871h1.168zm4.752 7.952a3.321 3.321 0 002.48-1.04V871h1.152v-5.184c0-1.808-1.12-2.752-3.024-2.752a6.539 6.539 0 00-2.944.752l.448.9a5.037 5.037 0 012.352-.672c1.312 0 2.016.624 2.016 1.936v1.056a4.683 4.683 0 00-2.368-.592c-1.7 0-2.928.864-2.928 2.3.004 1.424 1.172 2.4 2.82 2.4zm-1.7-2.416c0-.912.832-1.456 1.968-1.456a4.052 4.052 0 012.208.576v1.5a3.116 3.116 0 01-2.24.9c-1.128 0-1.928-.608-1.928-1.52zm7.656 2.272h1.168v-5.76a2.32 2.32 0 012.048-1.2 2.023 2.023 0 012.1 2.24V871h1.168v-5.056a2.722 2.722 0 00-2.816-2.88 2.813 2.813 0 00-2.5 1.408v-1.28h-1.168zm12.336-.912a2.817 2.817 0 01-2.72-2.992 2.832 2.832 0 012.72-2.976 2.983 2.983 0 012.144.976l.752-.816a4.146 4.146 0 00-2.912-1.216 3.912 3.912 0 00-3.872 4.036 3.876 3.876 0 006.736 2.784l-.72-.72a2.791 2.791 0 01-2.128.924zm3.92-2.992a3.907 3.907 0 003.872 4.048 4.5 4.5 0 002.928-1.04l-.736-.8a3.191 3.191 0 01-2.144.8 2.81 2.81 0 01-2.768-2.768h6.128V867a3.7 3.7 0 00-3.584-3.936 3.812 3.812 0 00-3.696 4.036zm3.68-3.008a2.572 2.572 0 012.432 2.432h-4.928a2.581 2.581 0 012.496-2.432zm4.864 5.824a4.33 4.33 0 003.184 1.232c1.76 0 3.04-1.088 3.024-2.416.016-1.184-.736-1.824-2.272-2.1l-1.3-.24c-.96-.176-1.36-.448-1.36-1.12 0-.768.72-1.248 1.7-1.248a3.943 3.943 0 012.416.88l.624-.8a4.858 4.858 0 00-2.992-1.04c-1.648 0-2.816.96-2.816 2.288 0 1.168.752 1.792 2.208 2.048l1.3.224c.976.176 1.392.512 1.392 1.168 0 .768-.7 1.408-1.968 1.408a3.5 3.5 0 01-2.464-1.024zm12.576-.672c0 1.216.688 1.9 2.048 1.9a4.714 4.714 0 001.376-.208V869.9a2.881 2.881 0 01-1.1.208c-.832 0-1.152-.336-1.152-1.168v-4.788h2.256v-.96h-2.256v-2.256l-1.168.272v1.984h-1.616v.96h1.616zm4.464-2.144a3.816 3.816 0 107.616 0 3.814 3.814 0 10-7.616 0zm6.448.016a2.663 2.663 0 11-5.28 0 2.664 2.664 0 115.28 0zM664.5 871h1.168v-5.056a2.722 2.722 0 00-2.816-2.88 2.813 2.813 0 00-2.5 1.408v-4.912l-1.168.24V871h1.168v-5.76a2.32 2.32 0 012.048-1.2 2.023 2.023 0 012.1 2.24zm3.136-3.9a3.907 3.907 0 003.872 4.048 4.5 4.5 0 002.928-1.04l-.736-.8a3.191 3.191 0 01-2.144.8 2.81 2.81 0 01-2.768-2.768h6.128V867a3.7 3.7 0 00-3.584-3.936 3.812 3.812 0 00-3.7 4.036zm3.68-3.008a2.572 2.572 0 012.432 2.432h-4.928a2.581 2.581 0 012.492-2.436zM678 859.56l-1.168.24V871H678zm2.32 14.624h1.168v-4.176a3.14 3.14 0 002.448 1.1 3.8 3.8 0 003.68-4.016A3.78 3.78 0 00684 863.1a3.081 3.081 0 00-2.528 1.216v-1.124h-1.152zm3.392-10.064a2.8 2.8 0 012.736 2.992 2.769 2.769 0 01-4.96 1.9v-3.82a2.687 2.687 0 012.224-1.072zm15.376 6.88h1.168v-11.44l-1.184.24v4.368a3.2 3.2 0 00-2.416-1.068 3.8 3.8 0 00-3.68 4.016 3.78 3.78 0 003.616 4 3.139 3.139 0 002.5-1.168zm-4.944-3.9a2.775 2.775 0 012.72-2.976 2.813 2.813 0 012.208 1.04v3.888a2.7 2.7 0 01-2.208 1.04 2.789 2.789 0 01-2.72-2.992zm8.08 0a3.907 3.907 0 003.872 4.048 4.5 4.5 0 002.928-1.04l-.736-.8a3.191 3.191 0 01-2.144.8 2.81 2.81 0 01-2.768-2.768h6.124V867a3.7 3.7 0 00-3.584-3.936 3.812 3.812 0 00-3.692 4.036zm3.68-3.008a2.572 2.572 0 012.432 2.432h-4.928a2.581 2.581 0 012.492-2.436zm7.552 6.908h1.1l3.216-7.808h-1.248l-2.5 6.336-2.5-6.336h-1.3zm5.12-3.9a3.907 3.907 0 003.872 4.048 4.5 4.5 0 002.928-1.04l-.736-.8a3.191 3.191 0 01-2.144.8 2.81 2.81 0 01-2.768-2.768h6.128V867a3.7 3.7 0 00-3.584-3.936 3.812 3.812 0 00-3.696 4.036zm3.68-3.008a2.572 2.572 0 012.432 2.432h-4.928a2.581 2.581 0 012.496-2.436zm6.688-4.528l-1.168.24V871h1.168zm1.984 7.536a3.816 3.816 0 107.616 0 3.814 3.814 0 10-7.616 0zm6.448.016a2.663 2.663 0 11-5.28 0 2.664 2.664 0 115.28 0zm3.136 7.072h1.168v-4.18a3.14 3.14 0 002.448 1.1 3.8 3.8 0 003.68-4.016 3.78 3.78 0 00-3.616-4 3.081 3.081 0 00-2.528 1.216v-1.116h-1.152zm3.388-10.068a2.8 2.8 0 012.736 2.992 2.769 2.769 0 01-4.96 1.9v-3.82a2.688 2.688 0 012.224-1.072zm5.54 2.98a3.907 3.907 0 003.872 4.048 4.5 4.5 0 002.928-1.04l-.736-.8a3.191 3.191 0 01-2.144.8 2.81 2.81 0 01-2.768-2.768h6.128V867a3.7 3.7 0 00-3.584-3.936 3.812 3.812 0 00-3.696 4.036zm3.68-3.008a2.572 2.572 0 012.432 2.432h-4.928a2.581 2.581 0 012.496-2.436zm5.52 6.908h1.168v-5.344a2.2 2.2 0 012.1-1.584 2.768 2.768 0 01.816.144v-1.056a2.3 2.3 0 00-.736-.112 2.321 2.321 0 00-2.176 1.7v-1.556h-1.172zm4.784-1.088a4.33 4.33 0 003.184 1.232c1.76 0 3.04-1.088 3.024-2.416.016-1.184-.736-1.824-2.272-2.1l-1.3-.24c-.96-.176-1.36-.448-1.36-1.12 0-.768.72-1.248 1.7-1.248a3.943 3.943 0 012.416.88l.624-.8a4.858 4.858 0 00-2.992-1.04c-1.648 0-2.816.96-2.816 2.288 0 1.168.752 1.792 2.208 2.048l1.3.224c.976.176 1.392.512 1.392 1.168 0 .768-.7 1.408-1.968 1.408a3.5 3.5 0 01-2.464-1.024zM775.056 871h1.168v-5.344a2.2 2.2 0 012.1-1.584 2.768 2.768 0 01.816.144v-1.056a2.3 2.3 0 00-.736-.112 2.321 2.321 0 00-2.176 1.7v-1.556h-1.168zm6.784-7.808h-1.168v5.056a2.722 2.722 0 002.816 2.88 2.813 2.813 0 002.5-1.408V871h1.168v-7.808h-1.168v5.76a2.32 2.32 0 01-2.048 1.2 2.023 2.023 0 01-2.1-2.24zm7.616 7.808h1.168v-5.76a2.32 2.32 0 012.048-1.2 2.023 2.023 0 012.1 2.24V871h1.168v-5.056a2.722 2.722 0 00-2.816-2.88 2.813 2.813 0 00-2.5 1.408v-1.28h-1.168zm16.064-.912a2.817 2.817 0 01-2.72-2.988 2.832 2.832 0 012.72-2.976 2.983 2.983 0 012.144.976l.752-.816a4.146 4.146 0 00-2.916-1.22 3.912 3.912 0 00-3.872 4.032 3.876 3.876 0 006.736 2.784l-.72-.72a2.791 2.791 0 01-2.124.928zm3.92-2.992a3.816 3.816 0 107.616 0 3.814 3.814 0 10-7.616 0zm6.448.016a2.663 2.663 0 11-5.28 0 2.664 2.664 0 115.28 0zm3.136 3.888h1.168v-5.76a2.32 2.32 0 012.048-1.2 2.023 2.023 0 012.1 2.24V871h1.16v-5.056a2.722 2.722 0 00-2.816-2.88 2.813 2.813 0 00-2.5 1.408v-1.28h-1.168zm9.408-1.76c0 1.216.688 1.9 2.048 1.9a4.713 4.713 0 001.376-.208V869.9a2.881 2.881 0 01-1.1.208c-.832 0-1.152-.336-1.152-1.168v-4.788h2.256v-.96h-2.26v-2.256l-1.168.272v1.984h-1.616v.96h1.616zm7.488 1.9a3.321 3.321 0 002.48-1.04v.9h1.152v-5.184c0-1.808-1.12-2.752-3.024-2.752a6.539 6.539 0 00-2.944.752l.448.9a5.037 5.037 0 012.352-.672c1.312 0 2.016.624 2.016 1.936v1.056a4.683 4.683 0 00-2.368-.592c-1.7 0-2.928.864-2.928 2.3-.004 1.424 1.168 2.4 2.816 2.4zm-1.7-2.416c0-.912.832-1.456 1.968-1.456a4.052 4.052 0 012.208.576v1.5a3.116 3.116 0 01-2.24.9c-1.132.004-1.932-.604-1.932-1.516zm8.24-7.5a.84.84 0 10-.832-.848.83.83 0 00.836.848zm.576 1.968h-1.168V871h1.168zM845.36 871h1.168v-5.76a2.32 2.32 0 012.048-1.2 2.023 2.023 0 012.1 2.24V871h1.168v-5.056a2.722 2.722 0 00-2.816-2.88 2.813 2.813 0 00-2.5 1.408v-1.28h-1.168zm8.448-3.9a3.907 3.907 0 003.872 4.048 4.5 4.5 0 002.928-1.04l-.736-.8a3.191 3.191 0 01-2.144.8 2.81 2.81 0 01-2.768-2.768h6.128V867a3.7 3.7 0 00-3.588-3.936 3.812 3.812 0 00-3.692 4.036zm3.68-3.008a2.572 2.572 0 012.432 2.432h-4.928a2.581 2.581 0 012.496-2.436zm5.52 6.908h1.168v-5.344a2.2 2.2 0 012.1-1.584 2.768 2.768 0 01.816.144v-1.056a2.3 2.3 0 00-.736-.112 2.321 2.321 0 00-2.176 1.7v-1.556h-1.168zm5.056-5.008V867h5.328v-1.008zm14.752 1.1a3.78 3.78 0 00-3.616-4 3.091 3.091 0 00-2.512 1.184v-4.716l-1.168.24V871h1.152v-1.024a3.081 3.081 0 002.464 1.136 3.8 3.8 0 003.68-4.012zm-3.9-2.976a2.8 2.8 0 012.736 2.992 2.769 2.769 0 01-4.96 1.9v-3.816a2.688 2.688 0 012.22-1.072zm8.384 7.024a3.321 3.321 0 002.48-1.04v.9h1.152v-5.184c0-1.808-1.12-2.752-3.024-2.752a6.539 6.539 0 00-2.944.752l.448.9a5.037 5.037 0 012.352-.672c1.312 0 2.016.624 2.016 1.936v1.056a4.683 4.683 0 00-2.368-.592c-1.7 0-2.928.864-2.928 2.3-.004 1.424 1.164 2.4 2.816 2.4zm-1.7-2.416c0-.912.832-1.456 1.968-1.456a4.052 4.052 0 012.208.576v1.5a3.116 3.116 0 01-2.24.9c-1.136.004-1.936-.604-1.936-1.516zm6.912 1.184a4.33 4.33 0 003.184 1.232c1.76 0 3.04-1.088 3.024-2.416.016-1.184-.736-1.824-2.272-2.1l-1.3-.24c-.96-.176-1.36-.448-1.36-1.12 0-.768.72-1.248 1.7-1.248a3.943 3.943 0 012.416.88l.624-.8a4.858 4.858 0 00-2.992-1.04c-1.648 0-2.816.96-2.816 2.288 0 1.168.752 1.792 2.208 2.048l1.3.224c.976.176 1.392.512 1.392 1.168 0 .768-.7 1.408-1.968 1.408a3.5 3.5 0 01-2.464-1.024zm7.648-2.808a3.907 3.907 0 003.872 4.048 4.5 4.5 0 002.928-1.04l-.736-.8a3.191 3.191 0 01-2.144.8 2.81 2.81 0 01-2.768-2.768h6.128V867a3.7 3.7 0 00-3.584-3.936 3.812 3.812 0 00-3.696 4.036zm3.68-3.008a2.572 2.572 0 012.432 2.432h-4.928a2.581 2.581 0 012.496-2.436zM915.152 871h1.168v-11.44l-1.184.24v4.368a3.2 3.2 0 00-2.416-1.068 3.8 3.8 0 00-3.68 4.016 3.78 3.78 0 003.616 4 3.139 3.139 0 002.5-1.168zm-4.944-3.9a2.775 2.775 0 012.72-2.976 2.813 2.813 0 012.208 1.04v3.888a2.7 2.7 0 01-2.208 1.04 2.789 2.789 0 01-2.72-2.992zm14.576 4.048a3.321 3.321 0 002.48-1.04V871h1.152v-5.184c0-1.808-1.12-2.752-3.024-2.752a6.539 6.539 0 00-2.944.752l.448.9a5.037 5.037 0 012.352-.672c1.312 0 2.016.624 2.016 1.936v1.056a4.683 4.683 0 00-2.368-.592c-1.7 0-2.928.864-2.928 2.3 0 1.424 1.168 2.4 2.816 2.4zm-1.7-2.416c0-.912.832-1.456 1.968-1.456a4.052 4.052 0 012.208.576v1.5a3.116 3.116 0 01-2.24.9c-1.132-.004-1.932-.612-1.932-1.524zm7.648 5.456h1.168v-4.18a3.14 3.14 0 002.448 1.1 3.8 3.8 0 003.68-4.016 3.78 3.78 0 00-3.616-4 3.081 3.081 0 00-2.528 1.216v-1.116h-1.152zm3.396-10.068a2.8 2.8 0 012.736 2.992 2.769 2.769 0 01-4.96 1.9v-3.82a2.688 2.688 0 012.224-1.072zM940 874.184h1.168v-4.176a3.14 3.14 0 002.448 1.1 3.8 3.8 0 003.684-4.008 3.78 3.78 0 00-3.616-4 3.081 3.081 0 00-2.528 1.216v-1.124H940zm3.392-10.064a2.8 2.8 0 012.736 2.992 2.769 2.769 0 01-4.96 1.9v-3.82a2.688 2.688 0 012.224-1.072zm5.216 5.792a4.33 4.33 0 003.184 1.232c1.76 0 3.04-1.088 3.024-2.416.016-1.184-.736-1.824-2.272-2.1l-1.3-.24c-.96-.176-1.36-.448-1.36-1.12 0-.768.72-1.248 1.7-1.248a3.943 3.943 0 012.416.88l.624-.8a4.858 4.858 0 00-2.992-1.04c-1.648 0-2.816.96-2.816 2.288 0 1.168.752 1.792 2.208 2.048l1.3.224c.976.176 1.392.512 1.392 1.168 0 .768-.7 1.408-1.968 1.408a3.5 3.5 0 01-2.464-1.024zm8.256-.528a.873.873 0 10.832.88.861.861 0 00-.832-.88zm6.88 1.616h1.232v-11.2h-1.232zm4.736-1.76c0 1.216.688 1.9 2.048 1.9a4.714 4.714 0 001.376-.208V869.9a2.881 2.881 0 01-1.1.208c-.832 0-1.152-.336-1.152-1.168v-4.788h2.248v-.96h-2.256v-2.256l-1.168.272v1.984h-1.616v.96h1.616zm8.784 1.76h1.168v-5.808a2.171 2.171 0 011.9-1.152 1.939 1.939 0 011.936 2.208V871h1.168v-5.04a3.236 3.236 0 00-.064-.688 2.2 2.2 0 011.952-1.232c1.216 0 1.92.864 1.92 2.208V871h1.184v-5.04a2.669 2.669 0 00-2.672-2.9 2.915 2.915 0 00-2.608 1.52 2.56 2.56 0 00-2.384-1.52 2.672 2.672 0 00-2.336 1.344v-1.212h-1.168zm13.136-3.9a3.907 3.907 0 003.872 4.048 4.5 4.5 0 002.928-1.048l-.736-.8a3.191 3.191 0 01-2.144.8 2.81 2.81 0 01-2.768-2.768h6.128V867a3.7 3.7 0 00-3.58-3.936 3.812 3.812 0 00-3.7 4.036zm3.68-3.008a2.572 2.572 0 012.432 2.432h-4.928a2.581 2.581 0 012.496-2.436zm7.824 7.056a3.321 3.321 0 002.48-1.04V871h1.152v-5.184c0-1.808-1.12-2.752-3.024-2.752a6.539 6.539 0 00-2.944.752l.448.9a5.037 5.037 0 012.352-.672c1.312 0 2.016.624 2.016 1.936v1.056a4.683 4.683 0 00-2.368-.592c-1.7 0-2.928.864-2.928 2.3 0 1.424 1.168 2.4 2.812 2.4zm-1.7-2.416c0-.912.832-1.456 1.968-1.456a4.052 4.052 0 012.208.576v1.5a3.116 3.116 0 01-2.24.9c-1.132-.004-1.932-.612-1.932-1.524zm7.652 2.268h1.168v-5.76a2.32 2.32 0 012.048-1.2 2.023 2.023 0 012.1 2.24V871h1.168v-5.056a2.722 2.722 0 00-2.816-2.88 2.813 2.813 0 00-2.5 1.408v-1.28h-1.168zm8.048-1.088a4.33 4.33 0 003.184 1.232c1.76 0 3.04-1.088 3.024-2.416.016-1.184-.736-1.824-2.272-2.1l-1.3-.24c-.96-.176-1.36-.448-1.36-1.12 0-.768.72-1.248 1.7-1.248a3.943 3.943 0 012.416.88l.624-.8a4.858 4.858 0 00-2.992-1.04c-1.648 0-2.816.96-2.816 2.288 0 1.168.752 1.792 2.208 2.048l1.3.224c.976.176 1.392.512 1.392 1.168 0 .768-.7 1.408-1.968 1.408a3.5 3.5 0 01-2.464-1.024zm11.632 1.088h1.164v-5.808a2.171 2.171 0 011.9-1.152 1.939 1.939 0 011.936 2.208V871h1.168v-5.04a3.236 3.236 0 00-.064-.688 2.2 2.2 0 011.96-1.232c1.216 0 1.92.864 1.92 2.208V871h1.18v-5.04a2.669 2.669 0 00-2.672-2.9 2.915 2.915 0 00-2.608 1.52 2.56 2.56 0 00-2.384-1.52 2.672 2.672 0 00-2.336 1.348v-1.216h-1.168zm13.136-3.9a3.816 3.816 0 107.616 0 3.814 3.814 0 10-7.616 0zm6.448.016a2.663 2.663 0 11-5.28 0 2.664 2.664 0 115.28 0zm3.136 3.884h1.168v-5.344a2.2 2.2 0 012.1-1.584 2.768 2.768 0 01.816.144v-1.056a2.3 2.3 0 00-.736-.112 2.321 2.321 0 00-2.176 1.7v-1.556h-1.168zm4.7-3.9a3.907 3.907 0 003.872 4.048 4.5 4.5 0 002.928-1.04l-.736-.8a3.191 3.191 0 01-2.144.8 2.81 2.81 0 01-2.768-2.768h6.128V867a3.7 3.7 0 00-3.584-3.936 3.812 3.812 0 00-3.692 4.036zm3.68-3.008a2.572 2.572 0 012.432 2.432h-4.928a2.581 2.581 0 012.5-2.436zm12.8 6a2.817 2.817 0 01-2.72-2.992 2.832 2.832 0 012.72-2.976 2.983 2.983 0 012.144.976l.752-.816a4.146 4.146 0 00-2.912-1.216 3.912 3.912 0 00-3.872 4.032 3.876 3.876 0 006.736 2.784l-.72-.72a2.791 2.791 0 01-2.124.924zm9.888.912h1.176v-5.06a2.722 2.722 0 00-2.816-2.88 2.813 2.813 0 00-2.5 1.408v-4.912l-1.168.24V871h1.168v-5.76a2.32 2.32 0 012.048-1.2 2.023 2.023 0 012.1 2.24zm3.136-3.9a3.816 3.816 0 107.616 0 3.814 3.814 0 10-7.616 0zm6.448.016a2.663 2.663 0 11-5.28 0 2.664 2.664 0 115.28 0zm3.728-5.888a.84.84 0 10-.832-.848.83.83 0 00.836.84zm.576 1.968h-1.168v7.8h1.168zm5.872 6.9a2.817 2.817 0 01-2.72-2.992 2.832 2.832 0 012.72-2.976 2.983 2.983 0 012.144.976l.752-.816a4.146 4.146 0 00-2.912-1.216 3.912 3.912 0 00-3.868 4.024 3.876 3.876 0 006.736 2.784l-.72-.72a2.791 2.791 0 01-2.128.924zm3.92-2.992a3.907 3.907 0 003.872 4.048 4.5 4.5 0 002.928-1.04l-.736-.8a3.191 3.191 0 01-2.144.8 2.81 2.81 0 01-2.768-2.768h6.128V867a3.7 3.7 0 00-3.584-3.936 3.812 3.812 0 00-3.692 4.036zm3.68-3.008a2.572 2.572 0 012.432 2.432h-4.928a2.581 2.581 0 012.5-2.444zm11.68 7.056a3.321 3.321 0 002.48-1.04V871H1124v-5.184c0-1.808-1.12-2.752-3.024-2.752a6.539 6.539 0 00-2.944.752l.448.9a5.037 5.037 0 012.352-.672c1.312 0 2.016.624 2.016 1.936v1.056a4.683 4.683 0 00-2.368-.592c-1.7 0-2.928.864-2.928 2.3 0 1.424 1.168 2.4 2.816 2.4zm-1.7-2.416c0-.912.832-1.456 1.968-1.456a4.052 4.052 0 012.208.576v1.5a3.116 3.116 0 01-2.24.9c-1.128-.012-1.928-.62-1.928-1.532zm7.656 2.26h1.168v-5.76a2.32 2.32 0 012.048-1.2 2.023 2.023 0 012.1 2.24V871h1.164v-5.056a2.722 2.722 0 00-2.816-2.88 2.813 2.813 0 00-2.5 1.408v-1.28h-1.164zm14.56 0h1.168v-11.44l-1.184.24v4.368a3.2 3.2 0 00-2.416-1.068 3.8 3.8 0 00-3.68 4.016 3.78 3.78 0 003.616 4 3.139 3.139 0 002.5-1.168zm-4.944-3.9a2.775 2.775 0 012.72-2.976 2.813 2.813 0 012.208 1.04v3.888a2.7 2.7 0 01-2.208 1.04 2.789 2.789 0 01-2.72-2.992zm-687.52 20.092v.96h1.744V895h1.168v-6.848h2.24v-.96h-2.24v-1.216c0-.944.416-1.36 1.28-1.36a2.856 2.856 0 01.96.144v-1.06a3.664 3.664 0 00-1.056-.144 2.147 2.147 0 00-2.352 2.4v1.232zm7.776-3.632l-1.168.24V895h1.168zm1.984 7.54a3.907 3.907 0 003.872 4.048 4.5 4.5 0 002.928-1.04l-.736-.8a3.191 3.191 0 01-2.144.8 2.81 2.81 0 01-2.768-2.768h6.128V891a3.7 3.7 0 00-3.584-3.936 3.812 3.812 0 00-3.696 4.036zm3.68-3.008a2.572 2.572 0 012.432 2.432h-4.928a2.581 2.581 0 012.496-2.436zm4.112 6.908h1.332l2.32-3.184 2.332 3.184h1.376l-3.028-4.048 2.816-3.76h-1.34l-2.128 2.96-2.148-2.96h-1.4l2.848 3.776zm9.424-9.776a.84.84 0 10-.832-.848.83.83 0 00.832.848zm.576 1.968H474.8V895h1.168zm9.616 3.9a3.78 3.78 0 00-3.616-4 3.091 3.091 0 00-2.512 1.184v-4.716l-1.168.24V895h1.152v-1.024a3.081 3.081 0 002.46 1.136 3.8 3.8 0 003.684-4.012zm-3.9-2.976a2.8 2.8 0 012.736 2.992 2.769 2.769 0 01-4.96 1.9v-3.816a2.688 2.688 0 012.22-1.072zm6.464-2.9a.84.84 0 10-.832-.848.83.83 0 00.828.856zm.576 1.968h-1.172V895h1.168zm3.488-3.632l-1.168.24V895h1.168zm2.912 1.664a.84.84 0 10-.832-.848.83.83 0 00.828.856zm.576 1.968h-1.172V895h1.172zm3.26 6.056c0 1.216.688 1.9 2.048 1.9a4.713 4.713 0 001.376-.208V893.9a2.881 2.881 0 01-1.1.208c-.832 0-1.152-.336-1.152-1.168v-4.788h2.256v-.96h-2.26v-2.256l-1.168.272v1.984h-1.616v.96h1.616zm6.94 2.848c-.32.8-.736.992-1.264.992a3.939 3.939 0 01-.64-.064v1.04a2.568 2.568 0 00.752.112c1.168 0 1.76-.5 2.24-1.728l3.812-9.248h-1.28l-2.512 6.432-2.368-6.432h-1.312l3.024 7.792zm9.36-8.9v.96h1.744V895h1.168v-6.848h2.24v-.96h-2.24v-1.216c0-.944.416-1.36 1.28-1.36a2.856 2.856 0 01.96.144v-1.06a3.664 3.664 0 00-1.056-.144 2.147 2.147 0 00-2.352 2.4v1.232zm5.856 3.9a3.816 3.816 0 107.616 0 3.814 3.814 0 10-7.616 0zm6.448.016a2.663 2.663 0 11-5.28 0 2.664 2.664 0 115.28 0zM530.7 895h1.168v-5.344a2.2 2.2 0 012.1-1.584 2.768 2.768 0 01.816.144v-1.056a2.3 2.3 0 00-.736-.112 2.321 2.321 0 00-2.176 1.7v-1.556H530.7zm11.072 1.088c-.32.8-.736.992-1.264.992a3.939 3.939 0 01-.64-.064v1.04a2.568 2.568 0 00.752.112c1.168 0 1.76-.5 2.24-1.728l3.808-9.248h-1.28l-2.508 6.432-2.368-6.432H539.2l3.024 7.792zm5.716-4.988a3.816 3.816 0 107.616 0 3.814 3.814 0 10-7.616 0zm6.448.016a2.663 2.663 0 11-5.28 0 2.664 2.664 0 115.28 0zm4.3-3.92h-1.168v5.056a2.722 2.722 0 002.816 2.88 2.813 2.813 0 002.5-1.408V895h1.168v-7.808h-1.168v5.76a2.32 2.32 0 01-2.048 1.2 2.023 2.023 0 01-2.1-2.24zm7.62 7.804h1.168v-5.344a2.2 2.2 0 012.1-1.584 2.768 2.768 0 01.816.144v-1.056a2.3 2.3 0 00-.736-.112 2.321 2.321 0 00-2.176 1.7v-1.556h-1.168zm14.656 0h1.168v-5.056a2.722 2.722 0 00-2.816-2.88 2.814 2.814 0 00-2.5 1.408v-4.912l-1.168.24V895h1.168v-5.76a2.32 2.32 0 012.048-1.2 2.023 2.023 0 012.1 2.24zm5.04 1.088c-.32.8-.736.992-1.264.992a3.939 3.939 0 01-.64-.064v1.04a2.568 2.568 0 00.752.112c1.168 0 1.76-.5 2.24-1.728l3.808-9.248h-1.28l-2.512 6.432-2.368-6.432h-1.312l3.024 7.792zm13.664-4.988a3.78 3.78 0 00-3.616-4 3.091 3.091 0 00-2.512 1.184v-4.724l-1.168.24V895h1.152v-1.024a3.081 3.081 0 002.464 1.136 3.8 3.8 0 003.68-4.012zm-3.9-2.976a2.8 2.8 0 012.736 2.992 2.769 2.769 0 01-4.96 1.9v-3.824a2.687 2.687 0 012.22-1.072zm5.868 6.876h1.168v-5.344a2.2 2.2 0 012.1-1.584 2.768 2.768 0 01.816.144v-1.056a2.3 2.3 0 00-.736-.112 2.321 2.321 0 00-2.176 1.7v-1.556h-1.168zm6.208-9.776a.84.84 0 10-.832-.848.83.83 0 00.832.848zm.576 1.968H606.8V895h1.168zm8.1 7.808h1.168v-11.44l-1.184.24v4.368a3.2 3.2 0 00-2.416-1.072 3.8 3.8 0 00-3.68 4.016 3.78 3.78 0 003.616 4 3.139 3.139 0 002.5-1.168zm-4.944-3.9a2.775 2.775 0 012.72-2.976 2.813 2.813 0 012.208 1.04v3.888a2.7 2.7 0 01-2.208 1.04 2.789 2.789 0 01-2.724-2.992zm15.7 2.992a3 3 0 010-5.968 2.983 2.983 0 012.144.976l.752-.816a4.146 4.146 0 00-2.912-1.216 4.044 4.044 0 000 8.08 3.955 3.955 0 002.864-1.264l-.72-.72a2.791 2.791 0 01-2.136.924zm5.736-10.532l-1.168.24V895h1.168zm1.984 7.536a3.816 3.816 0 107.616 0 3.814 3.814 0 10-7.616 0zm6.448.016a2.663 2.663 0 11-5.28 0 2.664 2.664 0 115.28 0zm4.3-3.92h-1.168v5.056a2.722 2.722 0 002.816 2.88 2.813 2.813 0 002.5-1.408V895h1.168v-7.808h-1.168v5.76a2.32 2.32 0 01-2.048 1.2 2.023 2.023 0 01-2.1-2.24zM658.688 895h1.168v-11.44l-1.184.24v4.368a3.2 3.2 0 00-2.416-1.072 3.8 3.8 0 00-3.68 4.016 3.78 3.78 0 003.616 4 3.139 3.139 0 002.5-1.168zm-4.944-3.9a2.775 2.775 0 012.72-2.976 2.813 2.813 0 012.208 1.04v3.888a2.7 2.7 0 01-2.208 1.04 2.789 2.789 0 01-2.72-2.992zm14.576 4.048a3.321 3.321 0 002.48-1.04V895h1.152v-5.184c0-1.808-1.12-2.752-3.024-2.752a6.539 6.539 0 00-2.944.752l.448.9a5.037 5.037 0 012.352-.672c1.312 0 2.016.624 2.016 1.936v1.056a4.683 4.683 0 00-2.368-.592c-1.7 0-2.928.864-2.928 2.3-.004 1.424 1.168 2.4 2.816 2.4zm-1.7-2.416c0-.912.832-1.456 1.968-1.456a4.052 4.052 0 012.208.576v1.5a3.116 3.116 0 01-2.24.9c-1.132-.004-1.932-.612-1.932-1.524zm7.652 2.268h1.168v-5.76a2.32 2.32 0 012.048-1.2 2.023 2.023 0 012.1 2.24V895h1.168v-5.056a2.722 2.722 0 00-2.816-2.88 2.813 2.813 0 00-2.5 1.408v-1.28h-1.168zm14.56 0H690v-11.44l-1.184.24v4.368a3.2 3.2 0 00-2.416-1.068 3.8 3.8 0 00-3.68 4.016 3.78 3.78 0 003.616 4 3.139 3.139 0 002.5-1.168zm-4.944-3.9a2.775 2.775 0 012.72-2.976 2.813 2.813 0 012.208 1.04v3.888a2.7 2.7 0 01-2.208 1.04 2.789 2.789 0 01-2.72-2.992zm17.92 3.9h1.168v-11.44l-1.184.24v4.368a3.2 3.2 0 00-2.416-1.072 3.8 3.8 0 00-3.68 4.016 3.78 3.78 0 003.616 4 3.139 3.139 0 002.5-1.168zm-4.944-3.9a2.775 2.775 0 012.72-2.976 2.813 2.813 0 012.208 1.04v3.888a2.7 2.7 0 01-2.208 1.04 2.789 2.789 0 01-2.72-2.992zm10.848 4.048a3.321 3.321 0 002.48-1.04V895h1.152v-5.184c0-1.808-1.12-2.752-3.024-2.752a6.539 6.539 0 00-2.944.752l.448.9a5.037 5.037 0 012.352-.672c1.312 0 2.016.624 2.016 1.936v1.056a4.683 4.683 0 00-2.368-.592c-1.7 0-2.928.864-2.928 2.3.004 1.424 1.168 2.4 2.816 2.4zm-1.7-2.416c0-.912.832-1.456 1.968-1.456a4.052 4.052 0 012.208.576v1.5a3.116 3.116 0 01-2.24.9c-1.132-.004-1.932-.612-1.932-1.524zm8.272.512c0 1.216.688 1.9 2.048 1.9a4.713 4.713 0 001.376-.208V893.9a2.881 2.881 0 01-1.1.208c-.832 0-1.152-.336-1.152-1.168v-4.788h2.256v-.96h-2.256v-2.256l-1.168.272v1.984h-1.616v.96h1.616zm7.488 1.9a3.321 3.321 0 002.48-1.04V895h1.152v-5.184c0-1.808-1.12-2.752-3.024-2.752a6.539 6.539 0 00-2.944.752l.448.9a5.037 5.037 0 012.352-.672c1.312 0 2.016.624 2.016 1.936v1.056a4.683 4.683 0 00-2.368-.592c-1.7 0-2.928.864-2.928 2.3.004 1.424 1.172 2.4 2.82 2.4zm-1.7-2.416c0-.912.832-1.456 1.968-1.456a4.052 4.052 0 012.208.576v1.5a3.116 3.116 0 01-2.24.9c-1.128 0-1.928-.608-1.928-1.52zm14.952-1.628a3.78 3.78 0 00-3.616-4 3.091 3.091 0 00-2.508 1.18v-4.72l-1.168.24V895h1.152v-1.024a3.081 3.081 0 002.464 1.136 3.8 3.8 0 003.676-4.012zm-3.9-2.976a2.8 2.8 0 012.736 2.992 2.769 2.769 0 01-4.96 1.9v-3.824a2.688 2.688 0 012.22-1.072zm8.384 7.024a3.321 3.321 0 002.48-1.04V895h1.152v-5.184c0-1.808-1.12-2.752-3.024-2.752a6.539 6.539 0 00-2.944.752l.448.9a5.037 5.037 0 012.352-.672c1.312 0 2.016.624 2.016 1.936v1.056a4.683 4.683 0 00-2.368-.592c-1.7 0-2.928.864-2.928 2.3-.004 1.424 1.164 2.4 2.808 2.4zm-1.7-2.416c0-.912.832-1.456 1.968-1.456a4.052 4.052 0 012.208.576v1.5a3.116 3.116 0 01-2.24.9c-1.136-.004-1.936-.612-1.936-1.524zm6.912 1.184a4.33 4.33 0 003.184 1.232c1.76 0 3.04-1.088 3.024-2.416.016-1.184-.736-1.824-2.272-2.1l-1.3-.24c-.96-.176-1.36-.448-1.36-1.12 0-.768.72-1.248 1.7-1.248a3.943 3.943 0 012.416.88l.624-.8a4.858 4.858 0 00-2.992-1.04c-1.648 0-2.816.96-2.816 2.288 0 1.168.752 1.792 2.208 2.048l1.3.224c.976.176 1.392.512 1.392 1.168 0 .768-.7 1.408-1.968 1.408a3.5 3.5 0 01-2.464-1.024zm7.648-2.816a3.907 3.907 0 003.872 4.048 4.5 4.5 0 002.928-1.04l-.736-.8a3.191 3.191 0 01-2.144.8 2.81 2.81 0 01-2.768-2.768h6.128V891a3.7 3.7 0 00-3.584-3.936 3.812 3.812 0 00-3.696 4.036zm3.68-3.008a2.572 2.572 0 012.432 2.432h-4.928a2.581 2.581 0 012.496-2.436zM771.072 895h1.168v-11.44l-1.184.24v4.368a3.2 3.2 0 00-2.416-1.068 3.8 3.8 0 00-3.68 4.016 3.78 3.78 0 003.616 4 3.139 3.139 0 002.5-1.168zm-4.944-3.9a2.775 2.775 0 012.72-2.976 2.813 2.813 0 012.208 1.04v3.888a2.7 2.7 0 01-2.208 1.04 2.789 2.789 0 01-2.72-2.992zm8.08 0a3.907 3.907 0 003.872 4.048 4.5 4.5 0 002.928-1.04l-.736-.8a3.191 3.191 0 01-2.144.8 2.81 2.81 0 01-2.768-2.768h6.128V891a3.7 3.7 0 00-3.584-3.936 3.812 3.812 0 00-3.696 4.036zm3.68-3.008a2.572 2.572 0 012.432 2.432h-4.928a2.581 2.581 0 012.496-2.436zm5.52 10.1h1.168v-4.184a3.14 3.14 0 002.448 1.1 3.8 3.8 0 003.676-4.008 3.78 3.78 0 00-3.616-4 3.081 3.081 0 00-2.528 1.216v-1.12h-1.152zm3.392-10.072a2.8 2.8 0 012.736 2.992 2.769 2.769 0 01-4.96 1.9v-3.82a2.688 2.688 0 012.224-1.072zm7.04-4.56l-1.168.24V895h1.168zm1.984 7.536a3.816 3.816 0 107.616 0 3.814 3.814 0 10-7.616 0zm6.448.016a2.663 2.663 0 11-5.28 0 2.664 2.664 0 115.28 0zm4.544 4.976c-.32.8-.736.992-1.264.992a3.939 3.939 0 01-.64-.064v1.04a2.568 2.568 0 00.752.112c1.168 0 1.76-.5 2.24-1.728l3.808-9.248h-1.28l-2.512 6.432-2.368-6.432h-1.312l3.024 7.792zm6.368-1.088h1.168v-5.808a2.171 2.171 0 011.9-1.152 1.939 1.939 0 011.936 2.208V895h1.168v-5.04a3.238 3.238 0 00-.064-.688 2.2 2.2 0 011.952-1.232c1.216 0 1.92.864 1.92 2.208V895h1.184v-5.04a2.669 2.669 0 00-2.672-2.9 2.915 2.915 0 00-2.608 1.52 2.56 2.56 0 00-2.384-1.52 2.672 2.672 0 00-2.336 1.344v-1.212h-1.168zm13.136-3.9a3.907 3.907 0 003.872 4.048 4.5 4.5 0 002.928-1.04l-.736-.8a3.191 3.191 0 01-2.144.8 2.81 2.81 0 01-2.768-2.768h6.128V891a3.7 3.7 0 00-3.584-3.936 3.812 3.812 0 00-3.696 4.036zm3.68-3.012a2.572 2.572 0 012.432 2.432H827.5a2.581 2.581 0 012.5-2.432zm5.52 6.912h1.168v-5.76a2.32 2.32 0 012.048-1.2 2.023 2.023 0 012.1 2.24V895H842v-5.056a2.722 2.722 0 00-2.816-2.88 2.813 2.813 0 00-2.5 1.408v-1.28h-1.164zm9.408-1.76c0 1.216.688 1.9 2.048 1.9a4.713 4.713 0 001.376-.208V893.9a2.881 2.881 0 01-1.1.208c-.832 0-1.152-.336-1.152-1.168v-4.788h2.256v-.96H846.1v-2.256l-1.168.272v1.984h-1.616v.96h1.616zm4.48.672a4.33 4.33 0 003.184 1.232c1.76 0 3.04-1.088 3.024-2.416.016-1.184-.736-1.824-2.272-2.1l-1.3-.24c-.96-.176-1.36-.448-1.36-1.12 0-.768.72-1.248 1.7-1.248a3.943 3.943 0 012.416.88l.624-.8a4.858 4.858 0 00-2.992-1.04c-1.648 0-2.816.96-2.816 2.288 0 1.168.752 1.792 2.208 2.048l1.3.224c.976.176 1.392.512 1.392 1.168 0 .768-.7 1.408-1.968 1.408a3.5 3.5 0 01-2.464-1.024zm8.256-.528a.873.873 0 10.832.88.861.861 0 00-.832-.88z"/><path class="b" d="M1256 806h24v24h-24z"/><path class="c" d="M1267.19 823.025l-6.886-6.886a1.232 1.232 0 010-1.62l1.215-1.215a1.232 1.232 0 011.62 0l4.861 4.861 4.861-4.861a1.232 1.232 0 011.62 0l1.215 1.215a1.232 1.232 0 010 1.62l-6.886 6.886a1.232 1.232 0 01-1.62 0zM456.22 823.28a5.172 5.172 0 01-5.26-5.28 5.134 5.134 0 015.2-5.28 5.563 5.563 0 014.24 1.92l1.4-1.44a7.554 7.554 0 00-5.64-2.42 7.194 7.194 0 00-7.34 7.22 7.182 7.182 0 007.34 7.22 7.628 7.628 0 005.6-2.42l-1.38-1.4a5.427 5.427 0 01-4.16 1.88zm6.5-3.38a5.246 5.246 0 005.3 5.3 5.229 5.229 0 005.28-5.3 5.225 5.225 0 00-5.28-5.28 5.242 5.242 0 00-5.3 5.28zm8.64 0a3.419 3.419 0 01-3.34 3.54 3.406 3.406 0 01-3.34-3.54 3.4 3.4 0 013.34-3.52 3.4 3.4 0 013.34 3.52zm3.82 5.1h2v-7.32a2.866 2.866 0 012.5-1.32 2.374 2.374 0 012.54 2.58V825h1.98v-6.4a3.8 3.8 0 00-3.96-3.98 4.16 4.16 0 00-3.06 1.22v-1.02h-2zm12.28-2.52c0 1.76 1.06 2.7 3.04 2.7a6.851 6.851 0 001.9-.3v-1.68a3.862 3.862 0 01-1.46.24c-1.08 0-1.5-.38-1.5-1.42v-5.52h3v-1.68h-3v-3.08l-1.98.48v2.6h-2.16v1.68h2.16zm9.68 2.7a4.792 4.792 0 003.16-1.06v.88h1.96v-6.74c0-2.36-1.54-3.64-4.16-3.64a9.555 9.555 0 00-4.18 1.04l.74 1.5a7.377 7.377 0 013.16-.86c1.62 0 2.48.72 2.48 2.16v1.08a7.04 7.04 0 00-2.78-.56c-2.38 0-4.12 1.06-4.12 3.1 0 1.82 1.52 3.1 3.74 3.1zm-1.82-3.14c0-1.06.96-1.68 2.36-1.68a5.34 5.34 0 012.62.6v1.78a3.915 3.915 0 01-2.7.96c-1.34 0-2.28-.66-2.28-1.66zm10.24-8.86a1.229 1.229 0 001.22-1.24 1.229 1.229 0 00-1.22-1.24 1.246 1.246 0 00-1.24 1.24 1.246 1.246 0 001.24 1.24zm1 1.64h-2V825h2zm2.32 10.18h2v-7.32a2.866 2.866 0 012.5-1.32 2.374 2.374 0 012.54 2.58V825h1.98v-6.4a3.8 3.8 0 00-3.96-3.98 4.16 4.16 0 00-3.06 1.22v-1.02h-2zm10.9-5.1a5.238 5.238 0 005.34 5.28 6 6 0 003.94-1.34l-1.28-1.26a3.96 3.96 0 01-2.58.9 3.434 3.434 0 01-3.44-2.92h8.04v-.58a5.041 5.041 0 00-4.92-5.32 5.115 5.115 0 00-5.1 5.24zm5.06-3.56a3.133 3.133 0 012.98 2.72h-6.04a3.129 3.129 0 013.06-2.72zm6.84 8.66h2v-6.82a2.741 2.741 0 012.62-1.84 3.566 3.566 0 011.2.22v-1.8a2.909 2.909 0 00-1.04-.16 3.264 3.264 0 00-2.78 1.48v-1.26h-2zm10.68-1.32a6.794 6.794 0 004.46 1.5c2.42 0 4.26-1.36 4.26-3.2 0-1.56-1.02-2.54-3.08-2.84l-1.84-.26c-1.2-.18-1.68-.52-1.68-1.28 0-.86.86-1.38 2.04-1.38a5.589 5.589 0 013.22 1.06l1.02-1.32a6.988 6.988 0 00-4.1-1.3c-2.34 0-3.98 1.22-3.98 3.08 0 1.58 1.04 2.54 3.04 2.82l1.84.26c1.14.16 1.64.58 1.64 1.3 0 .82-.84 1.52-2.44 1.52a5.235 5.235 0 01-3.32-1.28zm12.22-8.86h-1.98v6.4a3.8 3.8 0 003.96 3.98 4.16 4.16 0 003.06-1.22V825h2v-10.18h-2v7.32a2.866 2.866 0 01-2.5 1.32 2.374 2.374 0 01-2.54-2.58zm9.36 14.32h2v-4.98a5.038 5.038 0 003.04 1 5.153 5.153 0 005.2-5.26 5.136 5.136 0 00-5.14-5.24 4.808 4.808 0 00-3.12 1.12v-.96h-1.98zm4.82-12.74a3.425 3.425 0 013.46 3.52 3.408 3.408 0 01-3.46 3.5 3.788 3.788 0 01-2.82-1.18v-4.64a3.631 3.631 0 012.82-1.2zm7.3 12.74h2v-4.98a5.038 5.038 0 003.04 1 5.153 5.153 0 005.2-5.26 5.136 5.136 0 00-5.14-5.24 4.808 4.808 0 00-3.12 1.12v-.96h-1.98zm4.82-12.74a3.425 3.425 0 013.46 3.52 3.408 3.408 0 01-3.46 3.5 3.788 3.788 0 01-2.82-1.18v-4.64a3.631 3.631 0 012.82-1.2zm6.86 3.5a5.246 5.246 0 005.3 5.3 5.229 5.229 0 005.28-5.3 5.225 5.225 0 00-5.28-5.28 5.242 5.242 0 00-5.3 5.28zm8.64 0a3.419 3.419 0 01-3.34 3.54 3.406 3.406 0 01-3.34-3.54 3.4 3.4 0 013.34-3.52 3.4 3.4 0 013.34 3.52zm3.82 5.1h2v-6.82a2.741 2.741 0 012.62-1.84 3.566 3.566 0 011.2.22v-1.8a2.909 2.909 0 00-1.04-.16 3.264 3.264 0 00-2.78 1.48v-1.26h-2zm8.98-2.52c0 1.76 1.06 2.7 3.04 2.7a6.851 6.851 0 001.9-.3v-1.68a3.862 3.862 0 01-1.46.24c-1.08 0-1.5-.38-1.5-1.42v-5.52h3v-1.68h-3v-3.08l-1.98.48v2.6h-2.16v1.68h2.16zM424 788h3v175h-3z"/><path class="b" d="M1256 747h24v24h-24z"/><path class="c" d="M1272.9 759.9l-6.8 6.8a1.217 1.217 0 01-1.6 0l-1.2-1a1.493 1.493 0 010-1.8l4.8-4.8-4.8-4.8a1.493 1.493 0 010-1.8l1.2-1.2a1.217 1.217 0 011.6 0l6.8 6.8a1.493 1.493 0 010 1.8zM456.6 765l5.22-10.42V766h1.98v-14H461l-4.38 8.94-4.4-8.94h-2.8v14h1.96v-11.4zm11.76-9.18h-1.98v6.4a3.8 3.8 0 003.96 3.98 4.16 4.16 0 003.06-1.22V766h2v-10.18h-2v7.32a2.866 2.866 0 01-2.5 1.32 2.374 2.374 0 01-2.54-2.58zm11.36-4.26l-2 .44v14h2zm3.66 11.92c0 1.76 1.06 2.7 3.04 2.7a6.851 6.851 0 001.9-.3v-1.68a3.862 3.862 0 01-1.46.24c-1.08 0-1.5-.38-1.5-1.42v-5.52h3v-1.68h-3v-3.08l-1.98.48v2.6h-2.16v1.68h2.16zm7.44-9.3a1.229 1.229 0 001.22-1.24 1.229 1.229 0 00-1.22-1.24 1.246 1.246 0 00-1.24 1.24 1.246 1.246 0 001.24 1.24zm1 1.64h-2V766h2zm2.32 14.32h2v-4.98a5.038 5.038 0 003.04 1 5.153 5.153 0 005.2-5.26 5.136 5.136 0 00-5.14-5.24 4.808 4.808 0 00-3.12 1.12v-.96h-1.98zm4.82-12.74a3.425 3.425 0 013.46 3.52 3.408 3.408 0 01-3.46 3.5 3.788 3.788 0 01-2.82-1.18v-4.64a3.631 3.631 0 012.82-1.2zm9.3-5.84l-2 .44v14h2zm1.88 9.34a5.238 5.238 0 005.34 5.28 6 6 0 003.94-1.34l-1.28-1.26a3.96 3.96 0 01-2.58.9 3.434 3.434 0 01-3.44-2.92h8.04v-.58a5.041 5.041 0 00-4.92-5.32 5.115 5.115 0 00-5.1 5.24zm5.06-3.56a3.133 3.133 0 012.98 2.72h-6.04a3.129 3.129 0 013.06-2.72zm14.26 8.84a4.792 4.792 0 003.16-1.06v.88h1.96v-6.74c0-2.36-1.54-3.64-4.16-3.64a9.555 9.555 0 00-4.18 1.04l.74 1.5a7.377 7.377 0 013.16-.86c1.62 0 2.48.72 2.48 2.16v1.08a7.04 7.04 0 00-2.78-.56c-2.38 0-4.12 1.06-4.12 3.1 0 1.82 1.52 3.1 3.74 3.1zm-1.82-3.14c0-1.06.96-1.68 2.36-1.68a5.34 5.34 0 012.62.6v1.78a3.915 3.915 0 01-2.7.96c-1.34 0-2.28-.66-2.28-1.66zm9.24 2.96h2v-6.82a2.741 2.741 0 012.62-1.84 3.566 3.566 0 011.2.22v-1.8a2.909 2.909 0 00-1.04-.16 3.264 3.264 0 00-2.78 1.48v-1.26h-2zm11.7-1.58a3.377 3.377 0 01-3.34-3.52 3.364 3.364 0 013.3-3.5 3.784 3.784 0 012.8 1.28l1.26-1.36a5.828 5.828 0 00-4.1-1.7 5.2 5.2 0 00-5.24 5.28 5.191 5.191 0 005.24 5.28 5.63 5.63 0 004.02-1.7l-1.2-1.3a3.72 3.72 0 01-2.74 1.24zm12.6 1.58h1.98v-6.4a3.8 3.8 0 00-3.96-3.98 4.16 4.16 0 00-3.06 1.22v-5.28l-2 .44v14h2v-7.32a2.866 2.866 0 012.5-1.32 2.374 2.374 0 012.54 2.58zm5.3-11.82a1.229 1.229 0 001.22-1.24 1.229 1.229 0 00-1.22-1.24 1.246 1.246 0 00-1.24 1.24 1.246 1.246 0 001.24 1.24zm1 1.64h-2V766h2zm3.66 7.66c0 1.76 1.06 2.7 3.04 2.7a6.851 6.851 0 001.9-.3v-1.68a3.862 3.862 0 01-1.46.24c-1.08 0-1.5-.38-1.5-1.42v-5.52h3v-1.68h-3v-3.08l-1.98.48v2.6h-2.16v1.68h2.16zm5.78-2.58a5.238 5.238 0 005.34 5.28 6 6 0 003.94-1.34l-1.28-1.26a3.96 3.96 0 01-2.58.9 3.434 3.434 0 01-3.44-2.92h8.04v-.58a5.041 5.041 0 00-4.92-5.32 5.115 5.115 0 00-5.1 5.24zm5.06-3.56a3.133 3.133 0 012.98 2.72h-6.04a3.129 3.129 0 013.06-2.72zm11.76 7.08a3.377 3.377 0 01-3.34-3.52 3.364 3.364 0 013.3-3.5 3.784 3.784 0 012.8 1.28l1.26-1.36a5.828 5.828 0 00-4.1-1.7 5.2 5.2 0 00-5.24 5.28 5.191 5.191 0 005.24 5.28 5.63 5.63 0 004.02-1.7l-1.2-1.3a3.72 3.72 0 01-2.74 1.24zm7.1-.94c0 1.76 1.06 2.7 3.04 2.7a6.851 6.851 0 001.9-.3v-1.68a3.862 3.862 0 01-1.46.24c-1.08 0-1.5-.38-1.5-1.42v-5.52h3v-1.68h-3v-3.08l-1.98.48v2.6h-2.16v1.68h2.16zm8.42-7.66h-1.98v6.4a3.8 3.8 0 003.96 3.98 4.16 4.16 0 003.06-1.22V766h2v-10.18h-2v7.32a2.866 2.866 0 01-2.5 1.32 2.374 2.374 0 01-2.54-2.58zm9.36 10.18h2v-6.82a2.741 2.741 0 012.62-1.84 3.566 3.566 0 011.2.22v-1.8a2.909 2.909 0 00-1.04-.16 3.264 3.264 0 00-2.78 1.48v-1.26h-2zm6.38-5.1a5.238 5.238 0 005.34 5.28 6 6 0 003.94-1.34l-1.28-1.26a3.96 3.96 0 01-2.58.9 3.434 3.434 0 01-3.44-2.92h8.04v-.58a5.041 5.041 0 00-4.92-5.32 5.115 5.115 0 00-5.1 5.24zm5.06-3.56a3.133 3.133 0 012.98 2.72H627a3.129 3.129 0 013.06-2.72zm6 7.34a6.794 6.794 0 004.46 1.5c2.42 0 4.26-1.36 4.26-3.2 0-1.56-1.02-2.54-3.08-2.84l-1.84-.26c-1.2-.18-1.68-.52-1.68-1.28 0-.86.86-1.38 2.04-1.38a5.589 5.589 0 013.22 1.06l1.02-1.32a6.988 6.988 0 00-4.1-1.3c-2.34 0-3.98 1.22-3.98 3.08 0 1.58 1.04 2.54 3.04 2.82l1.84.26c1.14.16 1.64.58 1.64 1.3 0 .82-.84 1.52-2.44 1.52a5.235 5.235 0 01-3.32-1.28z"/><path class="a" d="M424 729h872v1H424z"/><path class="e" d="M1256.8 1051.174a3.924 3.924 0 01-3.924-4.074 3.918 3.918 0 013.892-4.074 3.928 3.928 0 012.982 1.374l.714-.742a4.9 4.9 0 00-3.7-1.61 4.966 4.966 0 00-4.98 5.052 4.966 4.966 0 004.984 5.054 4.951 4.951 0 003.668-1.61l-.7-.714a3.84 3.84 0 01-2.936 1.344zm7.64.952a2.906 2.906 0 002.17-.91v.784h1.008v-4.536c0-1.582-.98-2.408-2.646-2.408a5.722 5.722 0 00-2.576.658l.392.784a4.407 4.407 0 012.058-.588c1.148 0 1.764.546 1.764 1.694v.924a4.1 4.1 0 00-2.072-.518c-1.484 0-2.562.756-2.562 2.016a2.2 2.2 0 002.464 2.1zm-1.484-2.114c0-.8.728-1.274 1.722-1.274a3.545 3.545 0 011.932.5v1.316a2.726 2.726 0 01-1.96.784c-.994.004-1.694-.528-1.694-1.326zm6.832 1.988h1.022v-4.676a1.921 1.921 0 011.834-1.386 2.422 2.422 0 01.714.126v-.924a2.01 2.01 0 00-.644-.1 2.031 2.031 0 00-1.9 1.484v-1.356h-1.026zm4.256-3.416a3.418 3.418 0 003.388 3.542 3.935 3.935 0 002.562-.91l-.644-.7a2.792 2.792 0 01-1.876.7 2.459 2.459 0 01-2.422-2.422h5.362v-.294a3.236 3.236 0 00-3.136-3.444 3.336 3.336 0 00-3.234 3.528zm3.22-2.632a2.25 2.25 0 012.128 2.128h-4.312a2.258 2.258 0 012.184-2.128zm5.516 4.508c0 1.064.6 1.666 1.792 1.666a4.124 4.124 0 001.2-.182v-.91a2.521 2.521 0 01-.966.182c-.728 0-1.008-.294-1.008-1.022v-4.186h1.974v-.84h-1.972v-1.974l-1.022.238v1.736h-1.412v.84h1.414zM1268 819h1v219h-1z"/><circle class="e" cx="3.5" cy="3.5" r="3.5" transform="translate(1265 815)"/><path class="e" d="M1040.246 1052h1.078v-4h2.968a2.842 2.842 0 003.122-2.9 2.835 2.835 0 00-3.122-2.9h-4.046zm3.934-8.848a1.9 1.9 0 012.156 1.948 1.914 1.914 0 01-2.156 1.972h-2.856v-3.92zm6.972 8.974a2.906 2.906 0 002.17-.91v.784h1.008v-4.536c0-1.582-.98-2.408-2.646-2.408a5.722 5.722 0 00-2.576.658l.392.786a4.407 4.407 0 012.058-.588c1.148 0 1.764.546 1.764 1.694v.924a4.1 4.1 0 00-2.072-.52c-1.484 0-2.562.756-2.562 2.016a2.2 2.2 0 002.464 2.1zm-1.484-2.114c0-.8.728-1.274 1.722-1.274a3.545 3.545 0 011.932.5v1.316a2.726 2.726 0 01-1.96.784c-.994.004-1.694-.528-1.694-1.326zm6.832 1.988h1.022v-5.04a2.03 2.03 0 011.792-1.05 1.771 1.771 0 011.834 1.96v4.13h1.022v-4.424a2.382 2.382 0 00-2.464-2.52 2.462 2.462 0 00-2.184 1.232v-1.12h-1.022zm7.532-3.416a3.418 3.418 0 003.388 3.542 3.935 3.935 0 002.562-.91l-.644-.7a2.792 2.792 0 01-1.876.7 2.459 2.459 0 01-2.422-2.422h5.36v-.294a3.236 3.236 0 00-3.136-3.444 3.336 3.336 0 00-3.232 3.528zm3.22-2.632a2.25 2.25 0 012.128 2.128h-4.312a2.258 2.258 0 012.184-2.128zm5.992-3.962l-1.022.21v9.8h1.022zM1056 951h1v87h-1z"/><circle class="e" cx="3.5" cy="3.5" r="3.5" transform="translate(1053 947)"/><path class="e" d="M787.8 1051.174a3.924 3.924 0 01-3.924-4.074 3.918 3.918 0 013.892-4.074 3.928 3.928 0 012.982 1.374l.714-.742a4.9 4.9 0 00-3.7-1.61 4.966 4.966 0 00-4.98 5.052 4.966 4.966 0 004.984 5.054 4.951 4.951 0 003.668-1.61l-.7-.714a3.84 3.84 0 01-2.936 1.344zm4.942-2.59a3.384 3.384 0 003.314 3.556 3.389 3.389 0 003.344-3.556 3.365 3.365 0 00-3.346-3.528 3.359 3.359 0 00-3.316 3.528zm5.638.016a2.412 2.412 0 01-2.324 2.63 2.4 2.4 0 01-2.296-2.63 2.421 2.421 0 012.3-2.646 2.424 2.424 0 012.32 2.646zm2.884 3.4h1.022v-5.04a2.03 2.03 0 011.792-1.05 1.771 1.771 0 011.834 1.96v4.13h1.022v-4.424a2.382 2.382 0 00-2.464-2.52 2.462 2.462 0 00-2.184 1.232v-1.12h-1.022zm8.372-1.54c0 1.064.6 1.666 1.792 1.666a4.124 4.124 0 001.2-.182v-.91a2.521 2.521 0 01-.966.182c-.728 0-1.008-.294-1.008-1.022v-4.186h1.974v-.84h-1.97v-1.974l-1.022.238v1.736h-1.414v.84h1.414zm4.046-1.876a3.418 3.418 0 003.388 3.542 3.935 3.935 0 002.562-.91l-.644-.7a2.792 2.792 0 01-1.876.7 2.459 2.459 0 01-2.422-2.422h5.362v-.294a3.236 3.236 0 00-3.136-3.444 3.336 3.336 0 00-3.234 3.528zm3.218-2.632a2.25 2.25 0 012.13 2.128h-4.312a2.258 2.258 0 012.182-2.128zm4.972 6.048h1.022v-5.04a2.03 2.03 0 011.792-1.05 1.771 1.771 0 011.834 1.96v4.13h1.022v-4.424a2.382 2.382 0 00-2.464-2.52 2.462 2.462 0 00-2.184 1.232v-1.12h-1.022zm8.372-1.54c0 1.064.6 1.666 1.792 1.666a4.124 4.124 0 001.2-.182v-.91a2.521 2.521 0 01-.966.182c-.728 0-1.008-.294-1.008-1.022v-4.186h1.978v-.84h-1.974v-1.974l-1.022.238v1.736h-1.414v.84h1.414zm10.094 1.666a2.906 2.906 0 002.17-.91v.784h1.008v-4.536c0-1.582-.98-2.408-2.646-2.408a5.722 5.722 0 00-2.576.658l.392.784a4.407 4.407 0 012.058-.588c1.148 0 1.764.546 1.764 1.694v.924a4.1 4.1 0 00-2.072-.518c-1.484 0-2.562.756-2.562 2.016a2.2 2.2 0 002.464 2.1zm-1.484-2.114c0-.8.728-1.274 1.722-1.274a3.545 3.545 0 011.932.5v1.316a2.726 2.726 0 01-1.96.784c-.994.004-1.694-.528-1.694-1.326zm6.832 1.988h1.022v-4.676a1.921 1.921 0 011.834-1.386 2.422 2.422 0 01.714.126v-.924a2.01 2.01 0 00-.644-.1 2.031 2.031 0 00-1.9 1.484v-1.356h-1.026zm4.256-3.416a3.418 3.418 0 003.388 3.542 3.935 3.935 0 002.562-.91l-.644-.7a2.792 2.792 0 01-1.876.7 2.459 2.459 0 01-2.422-2.422h5.362v-.294a3.236 3.236 0 00-3.136-3.444 3.336 3.336 0 00-3.234 3.528zm3.22-2.632a2.25 2.25 0 012.128 2.128h-4.312a2.258 2.258 0 012.184-2.128zm6.986 6.174a2.906 2.906 0 002.17-.91v.784h1.008v-4.536c0-1.582-.98-2.408-2.646-2.408a5.722 5.722 0 00-2.576.658l.396.786a4.407 4.407 0 012.058-.588c1.148 0 1.764.546 1.764 1.694v.924a4.1 4.1 0 00-2.072-.518c-1.484 0-2.562.756-2.562 2.016a2.2 2.2 0 002.46 2.098zm-1.484-2.114c0-.8.728-1.274 1.722-1.274a3.545 3.545 0 011.932.5v1.316a2.726 2.726 0 01-1.96.784c-.994.004-1.694-.528-1.694-1.326zM823 878h1v160h-1z"/><circle class="e" cx="3.5" cy="3.5" r="3.5" transform="translate(820 874)"/><path class="e" d="M664.246 1052h3.248a4.736 4.736 0 004.9-4.9 4.744 4.744 0 00-4.9-4.9h-3.248zm3.318-8.834a3.765 3.765 0 013.724 3.934 3.765 3.765 0 01-3.724 3.934h-2.24v-7.868zm7.294.28a.726.726 0 00.728-.742.723.723 0 00-.728-.728.723.723 0 00-.728.728.726.726 0 00.728.742zm.5 1.722h-1.018V1052h1.022zm4.232 6.832h.966l2.814-6.832h-1.092l-2.184 5.544-2.184-5.544h-1.134zm5.71-8.554a.726.726 0 00.73-.746.723.723 0 00-.728-.728.723.723 0 00-.728.728.726.726 0 00.726.746zm.5 1.722h-1.016V1052h1.022zm7.23 6.832h1.022v-10.01l-1.036.21v3.822a2.8 2.8 0 00-2.116-.938 3.329 3.329 0 00-3.218 3.516 3.308 3.308 0 003.164 3.5 2.747 2.747 0 002.184-1.024zm-4.33-3.416a2.428 2.428 0 012.38-2.6 2.462 2.462 0 011.932.91v3.4a2.36 2.36 0 01-1.932.91 2.44 2.44 0 01-2.38-2.62zm7.21 0a3.418 3.418 0 003.39 3.542 3.935 3.935 0 002.562-.91l-.644-.7a2.792 2.792 0 01-1.876.7 2.459 2.459 0 01-2.422-2.422h5.362v-.294a3.236 3.236 0 00-3.136-3.444 3.336 3.336 0 00-3.232 3.528zm3.22-2.632a2.25 2.25 0 012.132 2.128h-4.312a2.258 2.258 0 012.184-2.128zm4.97 6.048h1.022v-4.676a1.921 1.921 0 011.838-1.386 2.422 2.422 0 01.714.126v-.924a2.01 2.01 0 00-.644-.1 2.031 2.031 0 00-1.9 1.484v-1.356h-1.03zM685 736h1v302h-1z"/><circle class="e" cx="3.5" cy="3.5" r="3.5" transform="translate(682 732)"/><path class="e" d="M505.392 1050.39a5.528 5.528 0 004.008 1.75c2.4 0 3.734-1.386 3.734-2.954 0-1.442-.84-2.254-2.982-2.632l-1.568-.266c-1.2-.21-1.848-.588-1.848-1.554 0-1.218 1.176-1.75 2.338-1.75a5.194 5.194 0 013.262 1.19l.63-.812a6.2 6.2 0 00-3.866-1.288c-1.792 0-3.4.9-3.4 2.744 0 1.386.826 2.128 2.59 2.436l1.582.266c1.582.28 2.184.742 2.184 1.722 0 1.092-1.008 1.974-2.618 1.974a4.719 4.719 0 01-3.374-1.582zm9.324-1.806a3.418 3.418 0 003.384 3.542 3.935 3.935 0 002.562-.91l-.644-.7a2.792 2.792 0 01-1.876.7 2.459 2.459 0 01-2.422-2.422h5.362v-.294a3.236 3.236 0 00-3.132-3.444 3.336 3.336 0 00-3.234 3.528zm3.22-2.632a2.25 2.25 0 012.128 2.128h-4.312a2.258 2.258 0 012.184-2.128zm8.092 5.248a2.465 2.465 0 01-2.38-2.618 2.478 2.478 0 012.38-2.6 2.61 2.61 0 011.876.854l.658-.714a3.628 3.628 0 00-2.548-1.064 3.423 3.423 0 00-3.388 3.528 3.435 3.435 0 003.388 3.54 3.461 3.461 0 002.506-1.106l-.63-.63a2.442 2.442 0 01-1.862.81zm5.11-.742c0 1.064.6 1.666 1.792 1.666a4.124 4.124 0 001.2-.182v-.91a2.521 2.521 0 01-.966.182c-.728 0-1.008-.294-1.008-1.022v-4.184h1.974v-.84h-1.97v-1.974l-1.022.238v1.736h-1.414v.84h1.414zm5.082-7.012a.726.726 0 00.728-.742.723.723 0 00-.728-.728.723.723 0 00-.728.728.726.726 0 00.728.742zm.5 1.722h-1.02V1052h1.022zm1.88 3.416a3.384 3.384 0 003.318 3.556 3.389 3.389 0 003.346-3.556 3.365 3.365 0 00-3.346-3.528 3.359 3.359 0 00-3.318 3.528zm5.642.014a2.412 2.412 0 01-2.324 2.632 2.4 2.4 0 01-2.3-2.632 2.421 2.421 0 012.3-2.646 2.424 2.424 0 012.324 2.648zm2.884 3.402h1.022v-5.04a2.03 2.03 0 011.792-1.05 1.771 1.771 0 011.834 1.96v4.13h1.026v-4.424a2.382 2.382 0 00-2.464-2.52 2.462 2.462 0 00-2.184 1.232v-1.12h-1.026zm12.25-10.01l-1.022.21v9.8h1.022zm4.298 10.136a2.906 2.906 0 002.17-.91v.784h1.008v-4.536c0-1.582-.98-2.408-2.646-2.408a5.722 5.722 0 00-2.576.658l.392.784a4.407 4.407 0 012.058-.588c1.148 0 1.764.546 1.764 1.694v.924a4.1 4.1 0 00-2.072-.518c-1.484 0-2.562.756-2.562 2.016a2.2 2.2 0 002.464 2.1zm-1.484-2.114c0-.8.728-1.274 1.722-1.274a3.545 3.545 0 011.932.5v1.316a2.726 2.726 0 01-1.96.784c-.994.004-1.694-.528-1.694-1.326zm13.216-1.428a3.308 3.308 0 00-3.164-3.5 2.705 2.705 0 00-2.2 1.036v-4.13l-1.022.21v9.8h1.01v-.9a2.7 2.7 0 002.156 1 3.329 3.329 0 003.22-3.516zm-3.416-2.604a2.451 2.451 0 012.394 2.62 2.443 2.443 0 01-2.394 2.616 2.421 2.421 0 01-1.946-.952v-3.346a2.352 2.352 0 011.946-.938zm4.984 2.6a3.418 3.418 0 003.388 3.546 3.935 3.935 0 002.562-.91l-.644-.7a2.792 2.792 0 01-1.876.7 2.459 2.459 0 01-2.422-2.422h5.362v-.294a3.236 3.236 0 00-3.136-3.444 3.336 3.336 0 00-3.234 3.528zm3.22-2.632a2.25 2.25 0 012.128 2.132h-4.312a2.258 2.258 0 012.184-2.128zm5.992-3.962l-1.022.21V1052h1.022zM546 760h1v278h-1z"/><circle class="e" cx="3.5" cy="3.5" r="3.5" transform="translate(543 756)"/></g></svg>