<svg xmlns="http://www.w3.org/2000/svg" width="340" height="56" viewBox="0 0 340 56">
  <g id="accordion-usage-2" transform="translate(-956 -2514)">
    <g id="Rectangle" transform="translate(956 2514)" fill="#fff" stroke="#d2d2d2" stroke-width="1">
      <rect width="340" height="56" stroke="none"/>
      <rect x="0.5" y="0.5" width="339" height="55" fill="none"/>
    </g>
    <text id="Label" transform="translate(1004 2548)" fill="#151515" font-size="16" font-family="RedHatText-Regular, Red Hat Text"><tspan x="0" y="0">Label</tspan></text>
    <g id="Caret" transform="translate(-59 -115)">
      <rect id="Rectangle-2" data-name="Rectangle" width="24" height="24" transform="translate(1031 2645)" fill="none"/>
      <path id="Icon" d="M12.35,9.85l-6.8,6.8a1.217,1.217,0,0,1-1.6,0l-1.2-1a1.493,1.493,0,0,1,0-1.8l4.8-4.8-4.8-4.8a1.493,1.493,0,0,1,0-1.8l1.2-1.2a1.217,1.217,0,0,1,1.6,0l6.8,6.8A1.493,1.493,0,0,1,12.35,9.85Z" transform="translate(1035.55 2648.05)" fill="#151515"/>
    </g>
  </g>
</svg>
