<svg xmlns="http://www.w3.org/2000/svg" width="872" height="152"><defs><style>.c{fill:#fff}</style></defs><path d="M0 0h872v152H0z" fill="#06c"/><g transform="translate(-546 -251)"><rect width="207" height="56" rx="3" transform="translate(1147 299)" fill="#e00"/><path class="c" d="M1180.008 333h2.32v-4.288h2.528l2.192 4.288h2.592l-2.48-4.608a3.3 3.3 0 002.192-3.12c0-1.968-1.52-3.472-3.872-3.472h-5.472zm5.264-9.2a1.531 1.531 0 011.728 1.5 1.531 1.531 0 01-1.728 1.5h-2.944v-3zm4.56 5.04a4.34 4.34 0 004.48 4.32 5 5 0 003.376-1.2l-1.44-1.312a2.624 2.624 0 01-1.84.672 2.4 2.4 0 01-2.368-1.744h6.208V329a4.207 4.207 0 00-4.128-4.48 4.255 4.255 0 00-4.288 4.32zm4.24-2.512a2.119 2.119 0 012.028 1.68h-4.08a2.094 2.094 0 012.052-1.68zm8.128 6.816a3.9 3.9 0 002.416-.736V333h2.16v-5.408c0-2-1.328-3.088-3.552-3.088a8.764 8.764 0 00-3.712.9l.8 1.616a6.469 6.469 0 012.544-.688c1.168 0 1.76.48 1.76 1.456v.592a6.438 6.438 0 00-2.032-.32c-2.08 0-3.424.9-3.424 2.528 0 1.468 1.2 2.556 3.04 2.556zm-.944-2.608c0-.672.64-1.04 1.6-1.04a4.94 4.94 0 011.76.3v1.248a3.191 3.191 0 01-1.84.528c-.928.004-1.52-.396-1.52-1.036zM1214.7 333h2.16v-11.68l-2.192.48v3.408a4.239 4.239 0 00-2.272-.656 4.228 4.228 0 00-4.3 4.272 4.218 4.218 0 004.232 4.288 3.78 3.78 0 002.368-.8zm-4.452-4.176a2.368 2.368 0 012.432-2.416 2.819 2.819 0 011.984.784v3.248a2.674 2.674 0 01-1.984.8 2.378 2.378 0 01-2.432-2.416zm12.652 1.824c0 1.652 1 2.48 2.82 2.48a7.029 7.029 0 001.7-.256v-1.792a3.647 3.647 0 01-1.168.192c-.852 0-1.152-.288-1.152-1.072v-3.7h2.368v-1.84h-2.368v-2.62l-2.192.5v2.128h-1.716v1.832h1.708zm11.268 2.352h2.176v-5.184a3.163 3.163 0 00-3.3-3.312 3.477 3.477 0 00-2.336.832v-4.016l-2.192.48V333h2.192v-5.776a1.959 1.959 0 011.712-.832 1.638 1.638 0 011.744 1.744zm3.488-4.16a4.34 4.34 0 004.48 4.32 5 5 0 003.376-1.2l-1.44-1.312a2.624 2.624 0 01-1.84.672 2.4 2.4 0 01-2.368-1.744h6.208V329a4.207 4.207 0 00-4.128-4.48 4.255 4.255 0 00-4.288 4.32zm4.244-2.512a2.119 2.119 0 012.032 1.68h-4.08a2.094 2.094 0 012.048-1.68zm17.468 2.512a4.218 4.218 0 00-4.24-4.288 3.859 3.859 0 00-2.336.768v-4l-2.192.48V333h2.16v-.56a4.185 4.185 0 002.3.672 4.238 4.238 0 004.308-4.272zm-4.592-2.416a2.387 2.387 0 012.432 2.416 2.378 2.378 0 01-2.432 2.416 2.819 2.819 0 01-1.984-.784v-3.248a2.674 2.674 0 011.984-.8zm8.1-5.1l-2.192.48V333h2.192zm1.312 7.52a4.332 4.332 0 004.444 4.316 4.332 4.332 0 004.448-4.32 4.345 4.345 0 00-4.448-4.34 4.345 4.345 0 00-4.448 4.34zm6.752 0a2.341 2.341 0 01-2.3 2.416 2.341 2.341 0 01-2.3-2.416 2.345 2.345 0 012.3-2.432 2.335 2.335 0 012.296 2.428zm7.324 4.204a3.844 3.844 0 002.288-.748v.672c0 1.1-.672 1.664-1.984 1.664a6.042 6.042 0 01-2.656-.676l-.768 1.712a7.9 7.9 0 003.472.752c2.656 0 4.128-1.216 4.128-3.44v-8.32h-2.16v.528a4.226 4.226 0 00-2.256-.656 4.228 4.228 0 00-4.288 4.24 4.21 4.21 0 004.224 4.272zm-2.064-4.272a2.364 2.364 0 012.416-2.368 2.8 2.8 0 011.936.752v3.28a2.746 2.746 0 01-1.952.752 2.371 2.371 0 01-2.4-2.416zm11.424 7.568h2.192v-3.888a4.239 4.239 0 002.272.656 4.238 4.238 0 004.3-4.272 4.218 4.218 0 00-4.24-4.288 3.78 3.78 0 00-2.368.8v-.688h-2.16zm4.176-9.92a2.387 2.387 0 012.432 2.416 2.378 2.378 0 01-2.432 2.416 2.819 2.819 0 01-1.984-.784v-3.248a2.674 2.674 0 011.984-.8zm5.552 2.416a4.332 4.332 0 004.448 4.32 4.332 4.332 0 004.448-4.32 4.345 4.345 0 00-4.448-4.34 4.345 4.345 0 00-4.448 4.34zm6.752 0a2.341 2.341 0 01-2.3 2.416 2.341 2.341 0 01-2.3-2.416 2.345 2.345 0 012.3-2.432 2.335 2.335 0 012.296 2.432zm2.864 3.168a6.193 6.193 0 003.824 1.152c2.032 0 3.648-1.12 3.648-2.752 0-1.264-.848-2.128-2.544-2.384l-1.6-.24c-.832-.112-1.136-.336-1.136-.784 0-.528.56-.816 1.312-.816a4.909 4.909 0 012.576.8l1.052-1.408a6.171 6.171 0 00-3.424-1.04c-2.064 0-3.472.976-3.472 2.64 0 1.312.848 2.176 2.528 2.416l1.6.24c.736.112 1.04.352 1.04.784 0 .448-.48.88-1.616.88a4.769 4.769 0 01-2.7-.944zm9.536-1.36c0 1.648.992 2.48 2.816 2.48a7.029 7.029 0 001.7-.256v-1.792a3.647 3.647 0 01-1.168.192c-.848 0-1.152-.288-1.152-1.072v-3.7h2.368v-1.84h-2.368v-2.62l-2.192.5v2.128h-1.712v1.832h1.704z"/></g><path class="c" d="M75.508 83.592a7.24 7.24 0 01-7.364-7.392 7.188 7.188 0 017.28-7.392A7.788 7.788 0 0181.36 71.5l1.96-2.016a10.576 10.576 0 00-7.9-3.388A10.071 10.071 0 0065.148 76.2a10.054 10.054 0 0010.276 10.108 10.68 10.68 0 007.84-3.388l-1.932-1.96a7.6 7.6 0 01-5.824 2.632zm9.1-4.732a7.334 7.334 0 007.476 7.392 8.4 8.4 0 005.516-1.876l-1.792-1.764a5.543 5.543 0 01-3.608 1.26 4.807 4.807 0 01-4.82-4.088h11.256v-.812c0-4.2-2.968-7.448-6.888-7.448a7.161 7.161 0 00-7.14 7.336zm7.084-4.984a4.386 4.386 0 014.172 3.808h-8.456a4.38 4.38 0 014.284-3.808zm12.376-8.092l-2.8.616V86h2.8zM106.7 78.86a7.334 7.334 0 007.476 7.392 8.4 8.4 0 005.516-1.876l-1.792-1.764a5.543 5.543 0 01-3.612 1.26 4.807 4.807 0 01-4.816-4.088h11.256v-.812c0-4.2-2.968-7.448-6.888-7.448a7.161 7.161 0 00-7.14 7.336zm7.084-4.984a4.386 4.386 0 014.172 3.808H109.5a4.38 4.38 0 014.284-3.808zM137.7 78.86a7.19 7.19 0 00-7.2-7.336 6.633 6.633 0 00-4.34 1.54v-7.28l-2.8.616V86h2.772v-1.2a6.98 6.98 0 004.284 1.424 7.215 7.215 0 007.284-7.364zm-7.588-4.9a4.8 4.8 0 014.844 4.928 4.772 4.772 0 01-4.844 4.9 5.3 5.3 0 01-3.952-1.652v-6.5a5.083 5.083 0 013.948-1.676zM140.328 86h2.8v-9.548a3.838 3.838 0 013.672-2.576 4.992 4.992 0 011.68.308v-2.52a4.073 4.073 0 00-1.456-.224 4.569 4.569 0 00-3.892 2.072v-1.764h-2.8zm14.364.252a6.709 6.709 0 004.424-1.484V86h2.744v-9.436c0-3.3-2.156-5.1-5.824-5.1a13.377 13.377 0 00-5.852 1.456l1.036 2.1a10.327 10.327 0 014.424-1.2c2.268 0 3.472 1.008 3.472 3.024v1.512a9.856 9.856 0 00-3.892-.784c-3.332 0-5.768 1.484-5.768 4.34 0 2.548 2.128 4.34 5.236 4.34zm-2.548-4.4c0-1.484 1.344-2.352 3.3-2.352a7.476 7.476 0 013.668.84v2.492a5.48 5.48 0 01-3.78 1.344c-1.872.004-3.188-.92-3.188-2.32zm14.252.616c0 2.464 1.484 3.78 4.256 3.78a9.591 9.591 0 002.66-.42V83.48a5.407 5.407 0 01-2.044.336c-1.512 0-2.1-.532-2.1-1.988V74.1h4.2v-2.352h-4.2v-4.312l-2.772.672v3.64h-3.024V74.1h3.028zm10.416-13.02a1.721 1.721 0 001.708-1.736 1.721 1.721 0 00-1.708-1.736 1.745 1.745 0 00-1.736 1.736 1.745 1.745 0 001.736 1.74zm1.4 2.3h-2.8V86h2.8zM181.46 86h2.8V75.752a4.013 4.013 0 013.5-1.848 3.324 3.324 0 013.556 3.612V86h2.772v-8.96a5.314 5.314 0 00-5.544-5.572 5.824 5.824 0 00-4.284 1.708v-1.428h-2.8zm22.428.112a6.645 6.645 0 004.256-1.512v1.54c0 2.24-1.316 3.388-3.808 3.388a9.65 9.65 0 01-4.564-1.228l-1.092 2.18a11.849 11.849 0 005.74 1.4c4.172 0 6.524-2.016 6.524-5.768V71.748h-2.772v1.176a6.878 6.878 0 00-4.228-1.428 7.19 7.19 0 00-7.224 7.304 7.16 7.16 0 007.168 7.312zm-4.424-7.312a4.747 4.747 0 014.76-4.872 5.14 5.14 0 013.92 1.652v6.44a5.14 5.14 0 01-3.92 1.652 4.747 4.747 0 01-4.76-4.872zm25.956-12.4h-1.764l-4.536 1.9v2.464l3.528-1.484V86h2.772zm11.172 19.88c4.816 0 8.26-4 8.26-10.08 0-6.1-3.444-10.08-8.26-10.08-4.788 0-8.232 3.976-8.232 10.08 0 6.076 3.416 10.08 8.232 10.08zm0-2.464c-3.276 0-5.516-2.828-5.516-7.616s2.24-7.644 5.516-7.644c3.3 0 5.516 2.856 5.516 7.644s-2.208 7.616-5.516 7.616zm20.524 3.384a2.93 2.93 0 01-2.828 2.1 4.7 4.7 0 01-1.232-.112v2.468a6.077 6.077 0 001.484.14c2.716 0 4.172-1.316 5.46-4.256l6.8-15.792h-3.02l-4.592 10.892-4.172-10.892h-3.08l5.684 14.28zm10.22-8.344a7.334 7.334 0 007.476 7.396 8.4 8.4 0 005.516-1.876l-1.792-1.764a5.543 5.543 0 01-3.612 1.26 4.807 4.807 0 01-4.816-4.088h11.256v-.812c0-4.2-2.968-7.448-6.888-7.448a7.161 7.161 0 00-7.14 7.336zm7.084-4.984a4.386 4.386 0 014.172 3.808h-8.456a4.38 4.38 0 014.284-3.804zm13.944 12.38a6.709 6.709 0 004.424-1.484V86h2.744v-9.436c0-3.3-2.156-5.1-5.824-5.1a13.377 13.377 0 00-5.852 1.456l1.036 2.1a10.327 10.327 0 014.424-1.2c2.268 0 3.472 1.008 3.472 3.024v1.512a9.856 9.856 0 00-3.892-.784c-3.332 0-5.768 1.484-5.768 4.34 0 2.548 2.128 4.34 5.236 4.34zm-2.548-4.4c0-1.484 1.344-2.352 3.3-2.352a7.476 7.476 0 013.668.84v2.492a5.48 5.48 0 01-3.78 1.344c-1.872.004-3.188-.92-3.188-2.32zM298.752 86h2.8v-9.548a3.838 3.838 0 013.668-2.576 4.992 4.992 0 011.68.308v-2.52a4.073 4.073 0 00-1.456-.224 4.569 4.569 0 00-3.892 2.072v-1.764h-2.8zm9.072-1.848a9.512 9.512 0 006.244 2.1c3.388 0 5.964-1.9 5.964-4.48 0-2.184-1.428-3.556-4.312-3.976l-2.576-.364c-1.68-.252-2.352-.728-2.352-1.792 0-1.2 1.2-1.932 2.856-1.932a7.824 7.824 0 014.508 1.484l1.428-1.848a9.783 9.783 0 00-5.74-1.82c-3.276 0-5.572 1.708-5.572 4.312 0 2.212 1.456 3.556 4.256 3.948l2.576.364c1.6.224 2.3.812 2.3 1.82 0 1.148-1.176 2.128-3.416 2.128a7.329 7.329 0 01-4.652-1.796zM327.4 78.86a7.344 7.344 0 007.42 7.42 7.321 7.321 0 007.392-7.42 7.315 7.315 0 00-7.392-7.392 7.338 7.338 0 00-7.42 7.392zm12.1 0a4.786 4.786 0 01-4.676 4.956 4.769 4.769 0 01-4.684-4.956 4.762 4.762 0 014.676-4.928 4.762 4.762 0 014.676 4.928zm3.332-7.112V74.1h3.3V86h2.768V74.1h4.088v-2.352H348.9v-2.1c0-1.54.756-2.212 2.324-2.212a5.383 5.383 0 011.764.252v-2.436a7.8 7.8 0 00-2.016-.252c-3.192 0-4.844 1.708-4.844 4.592v2.156zm38.044 4.452a10.075 10.075 0 00-10.22-10.108A10.052 10.052 0 00360.464 76.2a10.052 10.052 0 0010.192 10.108 10.075 10.075 0 0010.22-10.108zm-3 0a7.192 7.192 0 01-7.224 7.392 7.187 7.187 0 01-7.2-7.392 7.17 7.17 0 017.2-7.392 7.176 7.176 0 017.228 7.392zm5.768 15.6h2.8v-6.976a7.053 7.053 0 004.256 1.4 7.215 7.215 0 007.28-7.364 7.19 7.19 0 00-7.2-7.336 6.731 6.731 0 00-4.368 1.568v-1.344h-2.772zm6.756-17.84a4.8 4.8 0 014.844 4.928 4.772 4.772 0 01-4.844 4.9 5.3 5.3 0 01-3.948-1.652v-6.5a5.083 5.083 0 013.948-1.676zm9.6 4.9a7.334 7.334 0 007.476 7.392 8.4 8.4 0 005.516-1.876l-1.792-1.764a5.543 5.543 0 01-3.612 1.26 4.807 4.807 0 01-4.816-4.088h11.256v-.812c0-4.2-2.968-7.448-6.888-7.448A7.161 7.161 0 00400 78.86zm7.084-4.984a4.386 4.386 0 014.172 3.808H402.8a4.38 4.38 0 014.284-3.808zM416.66 86h2.8V75.752a4.013 4.013 0 013.5-1.848 3.324 3.324 0 013.556 3.612V86h2.772v-8.96a5.314 5.314 0 00-5.544-5.572 5.824 5.824 0 00-4.284 1.708v-1.428h-2.8zm14.476-3.248a11.806 11.806 0 008.4 3.528c4.676 0 7.812-2.436 7.812-6.02 0-3.024-1.848-4.76-6.02-5.432l-3.164-.5c-2.52-.42-3.5-1.2-3.5-2.772 0-1.736 1.708-2.912 4.256-2.912a10.472 10.472 0 016.412 2.408l1.624-2.24a13.274 13.274 0 00-7.9-2.66c-4.4 0-7.224 2.24-7.224 5.628 0 2.772 1.708 4.48 5.348 5.1l3.276.532c2.912.476 3.976 1.372 3.976 3.08 0 1.932-1.9 3.276-4.76 3.276a9.319 9.319 0 01-6.748-3.08zm19.88-.28c0 2.464 1.484 3.78 4.256 3.78a9.592 9.592 0 002.66-.42V83.48a5.407 5.407 0 01-2.044.336c-1.512 0-2.1-.532-2.1-1.988V74.1h4.2v-2.352h-4.2v-4.312l-2.772.672v3.64h-3.024V74.1h3.024zm13.552 3.78a6.709 6.709 0 004.424-1.484V86h2.744v-9.436c0-3.3-2.156-5.1-5.824-5.1a13.377 13.377 0 00-5.852 1.456l1.036 2.1a10.327 10.327 0 014.424-1.2c2.268 0 3.472 1.008 3.472 3.024v1.512a9.857 9.857 0 00-3.892-.784c-3.332 0-5.768 1.484-5.768 4.34 0 2.548 2.128 4.34 5.236 4.34zm-2.548-4.4c0-1.484 1.344-2.352 3.3-2.352a7.476 7.476 0 013.668.84v2.492a5.48 5.48 0 01-3.78 1.344c-1.872.004-3.188-.92-3.188-2.32zm19.768 1.932a4.727 4.727 0 01-4.676-4.928 4.709 4.709 0 014.62-4.9 5.3 5.3 0 013.92 1.792l1.764-1.9a8.16 8.16 0 00-5.74-2.38 7.285 7.285 0 00-7.336 7.392 7.268 7.268 0 007.336 7.392 7.882 7.882 0 005.628-2.38l-1.68-1.82a5.207 5.207 0 01-3.836 1.736zM489.572 86h2.8v-6.692L499.26 86h3.668l-7.728-7.56 7.364-6.692h-3.276l-6.916 6.244V65.784l-2.8.616z"/></svg>