<svg width="1140" height="330" viewBox="0 0 1140 330" fill="none" xmlns="http://www.w3.org/2000/svg">
<path d="M0 3C0 1.34314 1.34315 0 3 0H1137C1138.66 0 1140 1.34315 1140 3V327C1140 328.657 1138.66 330 1137 330H3.00003C1.34318 330 0 328.657 0 327V3Z" fill="#F2F2F2"/>
<mask id="mask0_4015_3856" style="mask-type:alpha" maskUnits="userSpaceOnUse" x="0" y="178" width="1076" height="88">
<rect y="178" width="1076" height="88" fill="white"/>
</mask>
<g mask="url(#mask0_4015_3856)">
<g filter="url(#filter0_d_4015_3856)">
<rect width="1920" height="82" transform="translate(-844 178)" fill="white"/>
<path d="M355.468 235.023C356.047 235.571 356.953 235.571 357.532 235.023L363.267 229.589C364.252 228.656 363.592 227 362.236 227H350.764C349.408 227 348.748 228.656 349.733 229.589L355.468 235.023Z" fill="#EE0000"/>
<rect x="328" y="206" width="57" height="25" rx="2" fill="#EE0000"/>
<path d="M337.792 225.12C337.112 225.12 336.44 224.996 335.776 224.748C335.112 224.5 334.52 224.156 334 223.716L335.152 222.216C335.664 222.632 336.136 222.932 336.568 223.116C337 223.292 337.46 223.38 337.948 223.38C338.268 223.38 338.54 223.348 338.764 223.284C338.988 223.22 339.16 223.128 339.28 223.008C339.4 222.88 339.46 222.732 339.46 222.564C339.46 222.332 339.372 222.152 339.196 222.024C339.02 221.896 338.72 221.796 338.296 221.724L336.448 221.4C335.768 221.28 335.244 221.02 334.876 220.62C334.508 220.22 334.324 219.712 334.324 219.096C334.324 218.552 334.46 218.084 334.732 217.692C335.012 217.3 335.408 217 335.92 216.792C336.44 216.584 337.056 216.48 337.768 216.48C338.392 216.48 339.02 216.588 339.652 216.804C340.284 217.012 340.832 217.304 341.296 217.68L340.204 219.204C339.34 218.54 338.48 218.208 337.624 218.208C337.344 218.208 337.1 218.24 336.892 218.304C336.692 218.36 336.536 218.444 336.424 218.556C336.32 218.66 336.268 218.788 336.268 218.94C336.268 219.148 336.344 219.308 336.496 219.42C336.656 219.532 336.912 219.62 337.264 219.684L339.004 219.972C339.812 220.1 340.424 220.368 340.84 220.776C341.264 221.184 341.476 221.712 341.476 222.36C341.476 222.928 341.328 223.42 341.032 223.836C340.736 224.244 340.312 224.56 339.76 224.784C339.208 225.008 338.552 225.12 337.792 225.12ZM344.807 225.12C344.311 225.12 343.871 225.012 343.487 224.796C343.111 224.58 342.815 224.28 342.599 223.896C342.383 223.504 342.275 223.06 342.275 222.564V218.652H344.219V222.3C344.219 222.644 344.323 222.924 344.531 223.14C344.747 223.348 345.027 223.452 345.371 223.452C345.619 223.452 345.839 223.408 346.031 223.32C346.223 223.232 346.383 223.108 346.511 222.948V218.652H348.455V225H346.511V224.568C346.031 224.936 345.463 225.12 344.807 225.12ZM349.659 225V218.652H351.603V219.06C352.051 218.708 352.579 218.532 353.187 218.532C353.587 218.532 353.947 218.608 354.267 218.76C354.587 218.912 354.855 219.128 355.071 219.408C355.327 219.128 355.631 218.912 355.983 218.76C356.335 218.608 356.719 218.532 357.135 218.532C357.615 218.532 358.039 218.64 358.407 218.856C358.775 219.072 359.063 219.372 359.271 219.756C359.487 220.14 359.595 220.584 359.595 221.088V225H357.651V221.352C357.651 221 357.555 220.72 357.363 220.512C357.179 220.304 356.931 220.2 356.619 220.2C356.403 220.2 356.207 220.24 356.031 220.32C355.855 220.4 355.703 220.52 355.575 220.68C355.583 220.744 355.587 220.812 355.587 220.884C355.595 220.948 355.599 221.016 355.599 221.088V225H353.655V221.352C353.655 221 353.559 220.72 353.367 220.512C353.183 220.304 352.935 220.2 352.623 220.2C352.407 220.2 352.211 220.24 352.035 220.32C351.867 220.392 351.723 220.504 351.603 220.656V225H349.659ZM360.745 225V218.652H362.689V219.06C363.137 218.708 363.665 218.532 364.273 218.532C364.673 218.532 365.033 218.608 365.353 218.76C365.673 218.912 365.941 219.128 366.157 219.408C366.413 219.128 366.717 218.912 367.069 218.76C367.421 218.608 367.805 218.532 368.221 218.532C368.701 218.532 369.125 218.64 369.493 218.856C369.861 219.072 370.149 219.372 370.357 219.756C370.573 220.14 370.681 220.584 370.681 221.088V225H368.737V221.352C368.737 221 368.641 220.72 368.449 220.512C368.265 220.304 368.017 220.2 367.705 220.2C367.489 220.2 367.293 220.24 367.117 220.32C366.941 220.4 366.789 220.52 366.661 220.68C366.669 220.744 366.673 220.812 366.673 220.884C366.681 220.948 366.685 221.016 366.685 221.088V225H364.741V221.352C364.741 221 364.645 220.72 364.453 220.512C364.269 220.304 364.021 220.2 363.709 220.2C363.493 220.2 363.297 220.24 363.121 220.32C362.953 220.392 362.809 220.504 362.689 220.656V225H360.745ZM371.83 225V218.652H373.774V225H371.83ZM372.802 218.064C372.506 218.064 372.254 217.96 372.046 217.752C371.838 217.544 371.734 217.292 371.734 216.996C371.734 216.7 371.838 216.448 372.046 216.24C372.254 216.032 372.506 215.928 372.802 215.928C373.098 215.928 373.35 216.032 373.558 216.24C373.766 216.448 373.87 216.7 373.87 216.996C373.87 217.292 373.766 217.544 373.558 217.752C373.35 217.96 373.098 218.064 372.802 218.064ZM378.175 225.084C377.415 225.084 376.839 224.916 376.447 224.58C376.063 224.236 375.871 223.732 375.871 223.068V220.272H374.587V218.652H375.871V217.02L377.815 216.6V218.652H379.591V220.272H377.815V222.684C377.815 222.964 377.875 223.164 377.995 223.284C378.123 223.396 378.343 223.452 378.655 223.452C378.815 223.452 378.959 223.444 379.087 223.428C379.223 223.404 379.371 223.368 379.531 223.32V224.892C379.355 224.948 379.131 224.992 378.859 225.024C378.587 225.064 378.359 225.084 378.175 225.084Z" fill="white"/>
<path d="M344.377 216V211.45H346.704C347.016 211.45 347.293 211.513 347.536 211.638C347.779 211.76 347.967 211.931 348.102 212.152C348.24 212.369 348.31 212.618 348.31 212.899C348.31 213.185 348.232 213.441 348.076 213.666C347.92 213.892 347.714 214.063 347.458 214.18L348.453 216H347.205L346.347 214.342H345.495V216H344.377ZM345.495 213.432H346.6C346.773 213.432 346.912 213.385 347.016 213.289C347.124 213.194 347.179 213.071 347.179 212.919C347.179 212.767 347.124 212.644 347.016 212.548C346.912 212.453 346.773 212.405 346.6 212.405H345.495V213.432ZM350.221 216.065C349.87 216.065 349.552 215.987 349.266 215.831C348.984 215.671 348.761 215.456 348.596 215.188C348.431 214.919 348.349 214.618 348.349 214.284C348.349 213.95 348.427 213.649 348.583 213.38C348.743 213.112 348.96 212.899 349.233 212.743C349.506 212.583 349.809 212.503 350.143 212.503C350.481 212.503 350.78 212.585 351.04 212.75C351.3 212.91 351.504 213.131 351.651 213.413C351.803 213.695 351.879 214.017 351.879 214.381V214.641H349.428C349.476 214.75 349.539 214.845 349.617 214.927C349.699 215.01 349.796 215.075 349.909 215.122C350.022 215.166 350.143 215.188 350.273 215.188C350.416 215.188 350.546 215.166 350.663 215.122C350.78 215.075 350.88 215.01 350.962 214.927L351.658 215.545C351.441 215.727 351.218 215.859 350.988 215.941C350.763 216.024 350.507 216.065 350.221 216.065ZM349.409 213.907H350.845C350.81 213.794 350.756 213.699 350.683 213.621C350.613 213.539 350.531 213.476 350.436 213.432C350.34 213.385 350.236 213.361 350.124 213.361C350.007 213.361 349.9 213.383 349.805 213.426C349.71 213.469 349.627 213.532 349.558 213.614C349.493 213.692 349.443 213.79 349.409 213.907ZM353.872 216.046C353.547 216.046 353.25 215.967 352.981 215.811C352.717 215.651 352.507 215.439 352.351 215.174C352.195 214.906 352.117 214.607 352.117 214.277C352.117 213.948 352.195 213.651 352.351 213.387C352.511 213.118 352.725 212.906 352.994 212.75C353.267 212.594 353.57 212.516 353.904 212.516C354.064 212.516 354.218 212.535 354.366 212.574C354.513 212.613 354.652 212.67 354.782 212.743V211.45L355.835 211.287V216H354.795V215.746C354.522 215.946 354.214 216.046 353.872 216.046ZM354.054 215.148C354.201 215.148 354.335 215.127 354.457 215.083C354.578 215.036 354.686 214.966 354.782 214.875V213.673C354.691 213.586 354.582 213.521 354.457 213.478C354.331 213.43 354.197 213.406 354.054 213.406C353.885 213.406 353.731 213.445 353.592 213.523C353.458 213.597 353.349 213.701 353.267 213.835C353.189 213.965 353.15 214.113 353.15 214.277C353.15 214.442 353.189 214.592 353.267 214.726C353.349 214.856 353.458 214.96 353.592 215.038C353.731 215.112 353.885 215.148 354.054 215.148ZM357.549 216V211.45H358.667V213.198H360.539V211.45H361.657V216H360.539V214.219H358.667V216H357.549ZM363.264 216.059C363.022 216.059 362.805 216.013 362.614 215.922C362.428 215.831 362.281 215.705 362.172 215.545C362.068 215.385 362.016 215.2 362.016 214.992C362.016 214.663 362.14 214.41 362.387 214.232C362.638 214.05 362.987 213.959 363.433 213.959C363.702 213.959 363.962 213.991 364.213 214.056V213.887C364.213 213.714 364.157 213.586 364.044 213.504C363.936 213.417 363.773 213.374 363.557 213.374C363.422 213.374 363.271 213.396 363.102 213.439C362.937 213.482 362.742 213.552 362.517 213.647L362.14 212.873C362.421 212.748 362.692 212.655 362.952 212.594C363.217 212.529 363.481 212.496 363.745 212.496C364.222 212.496 364.592 212.611 364.857 212.841C365.121 213.066 365.253 213.385 365.253 213.796V216H364.213V215.792C364.075 215.887 363.927 215.957 363.771 216C363.62 216.039 363.451 216.059 363.264 216.059ZM363.017 214.973C363.017 215.081 363.065 215.166 363.16 215.226C363.256 215.287 363.388 215.317 363.557 215.317C363.682 215.317 363.799 215.304 363.908 215.278C364.02 215.252 364.122 215.211 364.213 215.155V214.713C364.114 214.687 364.012 214.667 363.908 214.654C363.804 214.641 363.698 214.635 363.589 214.635C363.407 214.635 363.266 214.665 363.167 214.726C363.067 214.782 363.017 214.865 363.017 214.973ZM367.389 216.046C366.978 216.046 366.666 215.955 366.453 215.772C366.245 215.586 366.141 215.313 366.141 214.953V213.439H365.446V212.561H366.141V211.677L367.194 211.45V212.561H368.156V213.439H367.194V214.745C367.194 214.897 367.227 215.005 367.292 215.07C367.361 215.131 367.48 215.161 367.649 215.161C367.736 215.161 367.814 215.157 367.883 215.148C367.957 215.135 368.037 215.116 368.124 215.09V215.941C368.029 215.972 367.907 215.996 367.76 216.013C367.613 216.035 367.489 216.046 367.389 216.046Z" fill="white"/>
<path d="M410.246 223.5V213.7H411.324V222.548H416.854V223.5H410.246ZM418.54 223.5V216.668H419.562V223.5H418.54ZM419.058 214.974C418.853 214.974 418.675 214.904 418.526 214.764C418.386 214.615 418.316 214.442 418.316 214.246C418.316 214.05 418.386 213.882 418.526 213.742C418.675 213.593 418.853 213.518 419.058 213.518C419.263 213.518 419.436 213.593 419.576 213.742C419.725 213.882 419.8 214.05 419.8 214.246C419.8 214.442 419.725 214.615 419.576 214.764C419.436 214.904 419.263 214.974 419.058 214.974ZM421.657 223.5V216.668H422.679V217.774C422.941 217.363 423.253 217.06 423.617 216.864C423.981 216.659 424.392 216.556 424.849 216.556C425.344 216.556 425.773 216.663 426.137 216.878C426.511 217.083 426.8 217.377 427.005 217.76C427.22 218.133 427.327 218.572 427.327 219.076V223.5H426.305V219.37C426.305 218.763 426.137 218.287 425.801 217.942C425.475 217.587 425.031 217.41 424.471 217.41C424.098 217.41 423.757 217.499 423.449 217.676C423.141 217.853 422.885 218.115 422.679 218.46V223.5H421.657ZM429.382 223.5V213.392L430.404 213.182V219.734L433.652 216.668H434.884L431.412 219.916L435.038 223.5H433.694L430.404 220.238V223.5H429.382ZM440.591 223.5V214.792L439.023 215.492V214.568L440.969 213.7H441.599V223.5H440.591Z" fill="#151515"/>
<path d="M468.246 223.5V213.7H469.324V222.548H474.854V223.5H468.246ZM476.54 223.5V216.668H477.562V223.5H476.54ZM477.058 214.974C476.853 214.974 476.675 214.904 476.526 214.764C476.386 214.615 476.316 214.442 476.316 214.246C476.316 214.05 476.386 213.882 476.526 213.742C476.675 213.593 476.853 213.518 477.058 213.518C477.263 213.518 477.436 213.593 477.576 213.742C477.725 213.882 477.8 214.05 477.8 214.246C477.8 214.442 477.725 214.615 477.576 214.764C477.436 214.904 477.263 214.974 477.058 214.974ZM479.657 223.5V216.668H480.679V217.774C480.941 217.363 481.253 217.06 481.617 216.864C481.981 216.659 482.392 216.556 482.849 216.556C483.344 216.556 483.773 216.663 484.137 216.878C484.511 217.083 484.8 217.377 485.005 217.76C485.22 218.133 485.327 218.572 485.327 219.076V223.5H484.305V219.37C484.305 218.763 484.137 218.287 483.801 217.942C483.475 217.587 483.031 217.41 482.471 217.41C482.098 217.41 481.757 217.499 481.449 217.676C481.141 217.853 480.885 218.115 480.679 218.46V223.5H479.657ZM487.382 223.5V213.392L488.404 213.182V219.734L491.652 216.668H492.884L489.412 219.916L493.038 223.5H491.694L488.404 220.238V223.5H487.382ZM497.163 223.5V222.758L501.083 218.474C501.391 218.138 501.629 217.844 501.797 217.592C501.975 217.331 502.096 217.088 502.161 216.864C502.236 216.64 502.273 216.402 502.273 216.15C502.273 215.655 502.077 215.249 501.685 214.932C501.303 214.605 500.813 214.442 500.215 214.442C499.758 214.442 499.333 214.531 498.941 214.708C498.549 214.885 498.111 215.193 497.625 215.632L497.037 214.932C497.551 214.465 498.069 214.12 498.591 213.896C499.114 213.663 499.66 213.546 500.229 213.546C500.817 213.546 501.34 213.658 501.797 213.882C502.255 214.097 502.614 214.395 502.875 214.778C503.137 215.161 503.267 215.599 503.267 216.094C503.267 216.421 503.225 216.724 503.141 217.004C503.057 217.275 502.908 217.569 502.693 217.886C502.479 218.194 502.171 218.567 501.769 219.006L498.423 222.632L503.477 222.618V223.5H497.163Z" fill="#151515"/>
<path d="M530.246 223.5V213.7H531.324V222.548H536.854V223.5H530.246ZM538.54 223.5V216.668H539.562V223.5H538.54ZM539.058 214.974C538.853 214.974 538.675 214.904 538.526 214.764C538.386 214.615 538.316 214.442 538.316 214.246C538.316 214.05 538.386 213.882 538.526 213.742C538.675 213.593 538.853 213.518 539.058 213.518C539.263 213.518 539.436 213.593 539.576 213.742C539.725 213.882 539.8 214.05 539.8 214.246C539.8 214.442 539.725 214.615 539.576 214.764C539.436 214.904 539.263 214.974 539.058 214.974ZM541.657 223.5V216.668H542.679V217.774C542.941 217.363 543.253 217.06 543.617 216.864C543.981 216.659 544.392 216.556 544.849 216.556C545.344 216.556 545.773 216.663 546.137 216.878C546.511 217.083 546.8 217.377 547.005 217.76C547.22 218.133 547.327 218.572 547.327 219.076V223.5H546.305V219.37C546.305 218.763 546.137 218.287 545.801 217.942C545.475 217.587 545.031 217.41 544.471 217.41C544.098 217.41 543.757 217.499 543.449 217.676C543.141 217.853 542.885 218.115 542.679 218.46V223.5H541.657ZM549.382 223.5V213.392L550.404 213.182V219.734L553.652 216.668H554.884L551.412 219.916L555.038 223.5H553.694L550.404 220.238V223.5H549.382ZM562.397 223.654C561.725 223.654 561.095 223.537 560.507 223.304C559.929 223.071 559.415 222.725 558.967 222.268L559.639 221.61C560.05 222.021 560.47 222.319 560.899 222.506C561.338 222.683 561.833 222.772 562.383 222.772C562.859 222.772 563.279 222.688 563.643 222.52C564.017 222.352 564.306 222.119 564.511 221.82C564.717 221.521 564.819 221.181 564.819 220.798C564.819 220.434 564.726 220.112 564.539 219.832C564.362 219.543 564.115 219.319 563.797 219.16C563.48 219.001 563.116 218.922 562.705 218.922H561.543V218.054H562.663C563.195 218.054 563.625 217.891 563.951 217.564C564.287 217.237 564.455 216.813 564.455 216.29C564.455 215.945 564.362 215.632 564.175 215.352C563.989 215.072 563.732 214.853 563.405 214.694C563.088 214.526 562.729 214.442 562.327 214.442C561.823 214.442 561.371 214.535 560.969 214.722C560.577 214.899 560.176 215.203 559.765 215.632L559.093 214.96C559.532 214.493 560.027 214.143 560.577 213.91C561.128 213.667 561.716 213.546 562.341 213.546C562.939 213.546 563.471 213.663 563.937 213.896C564.413 214.129 564.787 214.451 565.057 214.862C565.328 215.263 565.463 215.721 565.463 216.234C565.463 216.747 565.295 217.209 564.959 217.62C564.623 218.021 564.18 218.301 563.629 218.46C564.292 218.609 564.824 218.899 565.225 219.328C565.627 219.757 565.827 220.257 565.827 220.826C565.827 221.367 565.678 221.853 565.379 222.282C565.09 222.711 564.684 223.047 564.161 223.29C563.648 223.533 563.06 223.654 562.397 223.654Z" fill="#151515"/>
<path d="M592.246 223.5V213.7H593.324V222.548H598.854V223.5H592.246ZM600.54 223.5V216.668H601.562V223.5H600.54ZM601.058 214.974C600.853 214.974 600.675 214.904 600.526 214.764C600.386 214.615 600.316 214.442 600.316 214.246C600.316 214.05 600.386 213.882 600.526 213.742C600.675 213.593 600.853 213.518 601.058 213.518C601.263 213.518 601.436 213.593 601.576 213.742C601.725 213.882 601.8 214.05 601.8 214.246C601.8 214.442 601.725 214.615 601.576 214.764C601.436 214.904 601.263 214.974 601.058 214.974ZM603.657 223.5V216.668H604.679V217.774C604.941 217.363 605.253 217.06 605.617 216.864C605.981 216.659 606.392 216.556 606.849 216.556C607.344 216.556 607.773 216.663 608.137 216.878C608.511 217.083 608.8 217.377 609.005 217.76C609.22 218.133 609.327 218.572 609.327 219.076V223.5H608.305V219.37C608.305 218.763 608.137 218.287 607.801 217.942C607.475 217.587 607.031 217.41 606.471 217.41C606.098 217.41 605.757 217.499 605.449 217.676C605.141 217.853 604.885 218.115 604.679 218.46V223.5H603.657ZM611.382 223.5V213.392L612.404 213.182V219.734L615.652 216.668H616.884L613.412 219.916L617.038 223.5H615.694L612.404 220.238V223.5H611.382ZM626.287 223.5V220.882H620.995V220.084L626.203 213.7H627.281V220H628.639V220.882H627.281V223.5H626.287ZM622.171 220H626.287V214.918L622.171 220Z" fill="#151515"/>
<path d="M655.246 223.5V213.7H656.324V222.548H661.854V223.5H655.246ZM663.54 223.5V216.668H664.562V223.5H663.54ZM664.058 214.974C663.853 214.974 663.675 214.904 663.526 214.764C663.386 214.615 663.316 214.442 663.316 214.246C663.316 214.05 663.386 213.882 663.526 213.742C663.675 213.593 663.853 213.518 664.058 213.518C664.263 213.518 664.436 213.593 664.576 213.742C664.725 213.882 664.8 214.05 664.8 214.246C664.8 214.442 664.725 214.615 664.576 214.764C664.436 214.904 664.263 214.974 664.058 214.974ZM666.657 223.5V216.668H667.679V217.774C667.941 217.363 668.253 217.06 668.617 216.864C668.981 216.659 669.392 216.556 669.849 216.556C670.344 216.556 670.773 216.663 671.137 216.878C671.511 217.083 671.8 217.377 672.005 217.76C672.22 218.133 672.327 218.572 672.327 219.076V223.5H671.305V219.37C671.305 218.763 671.137 218.287 670.801 217.942C670.475 217.587 670.031 217.41 669.471 217.41C669.098 217.41 668.757 217.499 668.449 217.676C668.141 217.853 667.885 218.115 667.679 218.46V223.5H666.657ZM674.382 223.5V213.392L675.404 213.182V219.734L678.652 216.668H679.884L676.412 219.916L680.038 223.5H678.694L675.404 220.238V223.5H674.382ZM687.299 223.654C686.011 223.654 684.901 223.211 683.967 222.324L684.597 221.638C685.027 222.039 685.451 222.333 685.871 222.52C686.301 222.697 686.781 222.786 687.313 222.786C687.789 222.786 688.209 222.688 688.573 222.492C688.937 222.296 689.217 222.021 689.413 221.666C689.619 221.311 689.721 220.905 689.721 220.448C689.721 219.795 689.497 219.267 689.049 218.866C688.611 218.465 688.032 218.264 687.313 218.264C686.94 218.264 686.576 218.311 686.221 218.404C685.867 218.488 685.498 218.628 685.115 218.824L684.415 218.6L684.639 213.7H690.211V214.582H685.507L685.353 217.97C685.727 217.783 686.086 217.653 686.431 217.578C686.777 217.494 687.141 217.452 687.523 217.452C688.167 217.452 688.727 217.578 689.203 217.83C689.689 218.073 690.062 218.418 690.323 218.866C690.594 219.305 690.729 219.818 690.729 220.406C690.729 221.05 690.585 221.615 690.295 222.1C690.006 222.585 689.605 222.968 689.091 223.248C688.578 223.519 687.981 223.654 687.299 223.654Z" fill="#151515"/>
<g clip-path="url(#clip0_4015_3856)">
<path d="M744 211.5C739.865 211.5 736.5 214.865 736.5 219C736.5 223.135 739.865 226.5 744 226.5C748.135 226.5 751.5 223.135 751.5 219C751.5 214.865 748.135 211.5 744 211.5ZM744 225.5C743.991 225.5 743.983 225.499 743.975 225.499C743.072 224.25 742.455 222.854 742.134 221.375H745.866C745.545 222.854 744.928 224.25 744.025 225.499C744.017 225.499 744.009 225.5 744 225.5ZM741.996 220.625C741.919 220.091 741.875 219.549 741.875 219C741.875 218.451 741.919 217.909 741.996 217.375H746.004C746.081 217.909 746.125 218.451 746.125 219C746.125 219.549 746.081 220.091 746.004 220.625H741.996ZM737.5 219C737.5 218.438 737.579 217.895 737.714 217.375H741.243C741.17 217.91 741.125 218.451 741.125 219C741.125 219.549 741.17 220.09 741.243 220.625H737.714C737.579 220.105 737.5 219.562 737.5 219ZM744 212.5C744.009 212.5 744.017 212.501 744.025 212.501C744.928 213.75 745.545 215.146 745.866 216.625H742.134C742.455 215.146 743.072 213.75 743.975 212.501C743.983 212.501 743.991 212.5 744 212.5ZM746.757 217.375H750.286C750.421 217.895 750.5 218.438 750.5 219C750.5 219.562 750.421 220.105 750.286 220.625H746.757C746.83 220.09 746.875 219.549 746.875 219C746.875 218.451 746.83 217.91 746.757 217.375ZM750.044 216.625H746.629C746.339 215.191 745.794 213.826 744.992 212.584C747.301 212.94 749.21 214.51 750.044 216.625ZM743.008 212.584C742.206 213.826 741.661 215.191 741.371 216.625H737.956C738.79 214.51 740.699 212.94 743.008 212.584ZM737.956 221.375H741.371C741.661 222.809 742.206 224.174 743.008 225.416C740.699 225.06 738.79 223.49 737.956 221.375ZM744.992 225.416C745.794 224.174 746.339 222.809 746.629 221.375H750.044C749.21 223.49 747.301 225.06 744.992 225.416Z" fill="#151515"/>
</g>
<path d="M803 225.998C801.898 225.998 800.862 225.569 800.083 224.79L794.21 218.917C792.601 217.308 792.601 214.691 794.21 213.083L795.47 211.823C795.611 211.682 795.799 211.604 795.999 211.604C796.2 211.604 796.388 211.682 796.53 211.823L799.177 214.47C799.318 214.611 799.396 214.8 799.396 215C799.396 215.2 799.318 215.389 799.177 215.53L797.707 217L802 221.293L803.47 219.823C803.762 219.531 804.238 219.531 804.53 219.823L807.177 222.47C807.469 222.762 807.469 223.237 807.177 223.53L805.917 224.79C805.138 225.569 804.102 225.998 803 225.998ZM796 212.707L794.917 213.79C793.698 215.009 793.698 216.991 794.917 218.21L800.79 224.083C801.38 224.673 802.165 224.998 803 224.998C803.835 224.998 804.619 224.673 805.21 224.083L806.293 223L804 220.707L802.53 222.177C802.238 222.469 801.762 222.469 801.47 222.177L796.823 217.53C796.681 217.389 796.603 217.2 796.603 217C796.603 216.8 796.681 216.611 796.823 216.47L798.293 215L796 212.707Z" fill="#151515"/>
<path d="M862.75 213.5H849.25C848.836 213.5 848.5 213.836 848.5 214.25V223.75C848.5 224.164 848.836 224.5 849.25 224.5H862.75C863.164 224.5 863.5 224.164 863.5 223.75V214.25C863.5 213.836 863.164 213.5 862.75 213.5ZM849.5 215.119L853.381 219L849.5 222.881V215.119ZM857.691 218.69L857.69 218.691L857.69 218.691L856 220.381L854.31 218.691L854.31 218.691L854.309 218.69L850.119 214.5H861.881L857.691 218.69ZM854 219.619L855.514 221.133C855.644 221.262 855.816 221.334 856 221.334C856.184 221.334 856.356 221.262 856.486 221.133L858 219.619L861.881 223.5H850.119L854 219.619ZM858.619 219L862.5 215.119V222.881L858.619 219Z" fill="#151515"/>
<g clip-path="url(#clip1_4015_3856)">
<path d="M919.398 225.602L915.12 221.324C915.981 220.285 916.5 218.952 916.5 217.5C916.5 214.192 913.809 211.5 910.5 211.5C907.191 211.5 904.5 214.192 904.5 217.5C904.5 220.808 907.191 223.5 910.5 223.5C911.952 223.5 913.285 222.981 914.324 222.12L918.602 226.398C918.712 226.508 918.856 226.562 919 226.562C919.144 226.562 919.288 226.508 919.398 226.398C919.617 226.178 919.617 225.822 919.398 225.602ZM905.5 217.5C905.5 214.743 907.743 212.5 910.5 212.5C913.257 212.5 915.5 214.743 915.5 217.5C915.5 220.257 913.257 222.5 910.5 222.5C907.743 222.5 905.5 220.257 905.5 217.5Z" fill="#151515"/>
</g>
<path d="M974 221.5C973.449 221.5 973 221.052 973 220.5V218.5C973 216.058 971.239 214.022 968.921 213.589C969.123 213.366 969.25 213.074 969.25 212.75C969.25 212.061 968.689 211.5 968 211.5C967.311 211.5 966.75 212.061 966.75 212.75C966.75 213.074 966.877 213.366 967.079 213.589C964.761 214.022 963 216.058 963 218.5V220.5C963 221.052 962.551 221.5 962 221.5C961.724 221.5 961.5 221.724 961.5 222V223.75C961.5 224.164 961.836 224.5 962.25 224.5H966C966 225.603 966.897 226.5 968 226.5C969.103 226.5 970 225.603 970 224.5H973.75C974.164 224.5 974.5 224.164 974.5 223.75V222C974.5 221.724 974.276 221.5 974 221.5ZM973.5 223.5H962.5V222.437C963.362 222.214 964 221.43 964 220.5V218.5C964 216.294 965.794 214.5 968 214.5C970.206 214.5 972 216.294 972 218.5V220.5C972 221.43 972.638 222.214 973.5 222.437V223.5Z" fill="#151515"/>
<circle cx="1028" cy="219" r="16" fill="#F2F2F2"/>
<mask id="mask1_4015_3856" style="mask-type:alpha" maskUnits="userSpaceOnUse" x="1012" y="203" width="32" height="32">
<circle cx="1028" cy="219" r="16" fill="white"/>
</mask>
<g mask="url(#mask1_4015_3856)">
<path d="M1017 230C1017 225.582 1020.58 222 1025 222H1031C1035.42 222 1039 225.582 1039 230V235H1017V230Z" fill="#C7C7C7"/>
<path d="M1032 229C1033.66 229 1035 230.343 1035 232V235H1032V229Z" fill="#A3A3A3"/>
<path d="M1021 232C1021 230.343 1022.34 229 1024 229V235H1021V232Z" fill="#A3A3A3"/>
</g>
<circle cx="1028" cy="214" r="6" fill="#C7C7C7"/>
</g>
</g>
<mask id="mask2_4015_3856" style="mask-type:alpha" maskUnits="userSpaceOnUse" x="64" y="64" width="1076" height="88">
<rect x="64" y="64" width="1076" height="88" fill="white"/>
</mask>
<g mask="url(#mask2_4015_3856)">
<g filter="url(#filter1_d_4015_3856)">
<rect width="1440" height="82" transform="translate(64 64)" fill="white"/>
<g clip-path="url(#clip2_4015_3856)">
<path d="M122.355 107.29C124.95 107.29 128.709 106.75 128.709 103.652C128.709 103.41 128.703 103.175 128.645 102.94L127.098 96.1979C126.739 94.7167 126.428 94.0417 123.831 92.7396C121.82 91.7062 117.434 90 116.137 90C114.928 90 114.571 91.5708 113.139 91.5708C111.707 91.5708 110.723 90.4042 109.426 90.4042C108.128 90.4042 107.367 91.2583 106.742 93.0083C106.742 93.0083 104.996 97.9479 104.772 98.6667C104.726 98.8021 104.726 98.9521 104.726 99.0708C104.726 100.992 112.259 107.29 122.357 107.29M129.114 104.908C129.473 106.615 129.473 106.794 129.473 107.019C129.473 109.938 126.206 111.554 121.911 111.554C112.201 111.554 103.699 105.85 103.699 102.079C103.699 101.496 103.834 100.956 104.012 100.552C100.521 100.731 96.0022 101.36 96.0022 105.358C96.0022 111.915 111.485 120 123.744 120C133.141 120 135.511 115.733 135.511 112.365C135.511 109.715 133.23 106.706 129.112 104.908" fill="#EE0000"/>
<path d="M129.112 104.911C129.471 106.617 129.471 106.796 129.471 107.021C129.471 109.94 126.204 111.557 121.909 111.557C112.199 111.557 103.697 105.852 103.697 102.082C103.697 101.498 103.832 100.959 104.01 100.554L104.772 98.667C104.726 98.8024 104.726 98.9524 104.726 99.0712C104.726 100.992 112.259 107.29 122.357 107.29C124.952 107.29 128.711 106.75 128.711 103.652C128.711 103.411 128.705 103.175 128.647 102.94L129.114 104.911H129.112Z" fill="black"/>
<path d="M216.233 109.229C216.233 111.704 217.717 112.911 220.424 112.911C221.08 112.911 222.213 112.756 222.892 112.561V109.69C222.303 109.865 221.867 109.931 221.298 109.931C220.185 109.931 219.77 109.581 219.77 108.529V104.125H223V101.167H219.77V97.421L216.233 98.1876V101.167H213.898V104.125H216.233V109.229ZM205.244 109.296C205.244 108.529 206.008 108.156 207.165 108.156C207.928 108.156 208.628 108.267 209.261 108.419V109.908C208.605 110.281 207.841 110.456 207.057 110.456C205.921 110.456 205.244 110.019 205.244 109.296ZM206.324 112.954C207.567 112.954 208.572 112.692 209.51 112.056V112.758H213.003V105.331C213.003 102.504 211.104 100.95 207.939 100.95C206.17 100.95 204.425 101.367 202.546 102.221L203.812 104.829C205.166 104.261 206.301 103.908 207.306 103.908C208.769 103.908 209.51 104.477 209.51 105.64V106.208C208.68 105.99 207.808 105.879 206.891 105.879C203.922 105.879 202.131 107.127 202.131 109.363C202.131 111.4 203.746 112.956 206.322 112.956M187.134 112.758H190.889V106.754H197.176V112.758H200.931V97.421H197.176V103.315H190.889V97.421H187.134V112.758ZM172.826 106.952C172.826 105.288 174.136 104.017 175.861 104.017C176.822 104.017 177.694 104.346 178.306 104.915V108.969C177.673 109.581 176.843 109.89 175.861 109.89C174.159 109.89 172.826 108.619 172.826 106.954M178.35 112.761H181.843V96.6543L178.306 97.421V101.781C177.432 101.277 176.43 101.015 175.358 101.015C171.996 101.015 169.356 103.623 169.356 106.952C169.356 110.281 171.954 112.913 175.251 112.913C176.386 112.913 177.455 112.563 178.35 111.904V112.758V112.761ZM162.327 103.865C163.44 103.865 164.38 104.588 164.75 105.704H159.926C160.274 104.544 161.148 103.865 162.327 103.865ZM156.368 106.975C156.368 110.35 159.118 112.979 162.655 112.979C164.598 112.979 166.018 112.454 167.479 111.227L165.144 109.146C164.598 109.715 163.791 110.023 162.83 110.023C161.52 110.023 160.451 109.3 159.992 108.183H168.222V107.306C168.222 103.625 165.756 100.975 162.394 100.975C159.031 100.975 156.368 103.604 156.368 106.979M150.278 100.648C151.521 100.648 152.221 101.438 152.221 102.379C152.221 103.321 151.521 104.111 150.278 104.111H146.566V100.648H150.278ZM142.811 112.765H146.566V107.177H149.427L152.308 112.765H156.499L153.136 106.629C154.948 105.84 156.017 104.198 156.017 102.313C156.017 99.5522 153.856 97.4272 150.624 97.4272H142.809V112.765H142.811Z" fill="black"/>
</g>
<path d="M256.424 111V99.8H258.136L261.88 107.768L265.624 99.8H267.336V111H266.168V101.256L261.88 110.2L257.576 101.224V111H256.424ZM273.486 111.16C272.76 111.16 272.104 110.984 271.518 110.632C270.931 110.269 270.467 109.784 270.126 109.176C269.784 108.557 269.614 107.864 269.614 107.096C269.614 106.328 269.774 105.64 270.094 105.032C270.424 104.424 270.867 103.944 271.422 103.592C271.976 103.24 272.595 103.064 273.278 103.064C273.971 103.064 274.584 103.24 275.118 103.592C275.662 103.933 276.088 104.403 276.398 105C276.718 105.587 276.878 106.253 276.878 107V107.352H270.75C270.792 107.885 270.936 108.365 271.182 108.792C271.438 109.208 271.768 109.539 272.174 109.784C272.59 110.019 273.043 110.136 273.534 110.136C273.939 110.136 274.328 110.067 274.702 109.928C275.086 109.779 275.411 109.581 275.678 109.336L276.414 110.12C275.966 110.472 275.502 110.733 275.022 110.904C274.542 111.075 274.03 111.16 273.486 111.16ZM270.782 106.52H275.726C275.672 106.051 275.528 105.635 275.294 105.272C275.07 104.899 274.782 104.605 274.43 104.392C274.088 104.179 273.704 104.072 273.278 104.072C272.851 104.072 272.462 104.179 272.11 104.392C271.758 104.595 271.464 104.883 271.23 105.256C271.006 105.619 270.856 106.04 270.782 106.52ZM278.872 111V103.192H280.04V104.456C280.339 103.987 280.696 103.64 281.112 103.416C281.528 103.181 281.997 103.064 282.52 103.064C283.085 103.064 283.576 103.187 283.992 103.432C284.419 103.667 284.749 104.003 284.984 104.44C285.229 104.867 285.352 105.368 285.352 105.944V111H284.184V106.28C284.184 105.587 283.992 105.043 283.608 104.648C283.235 104.243 282.728 104.04 282.088 104.04C281.661 104.04 281.272 104.141 280.92 104.344C280.568 104.547 280.275 104.845 280.04 105.24V111H278.872ZM290.406 111.128C289.851 111.128 289.361 111.005 288.934 110.76C288.507 110.515 288.171 110.173 287.926 109.736C287.691 109.299 287.574 108.797 287.574 108.232V103.192H288.758V107.896C288.758 108.589 288.945 109.139 289.318 109.544C289.691 109.949 290.198 110.152 290.838 110.152C291.275 110.152 291.665 110.051 292.006 109.848C292.358 109.645 292.651 109.352 292.886 108.968V103.192H294.054V111H292.886V109.736C292.587 110.195 292.23 110.541 291.814 110.776C291.409 111.011 290.939 111.128 290.406 111.128ZM301.432 111V101.048L299.64 101.848V100.792L301.864 99.8H302.584V111H301.432Z" fill="#151515"/>
<path d="M321.354 102.646C321.158 102.451 320.842 102.451 320.646 102.646L317 106.293L313.354 102.646C313.158 102.451 312.842 102.451 312.646 102.646C312.451 102.842 312.451 103.158 312.646 103.354L316.47 107.177C316.616 107.323 316.808 107.396 317 107.396C317.192 107.396 317.384 107.323 317.53 107.177L321.353 103.354C321.549 103.158 321.549 102.842 321.354 102.646Z" fill="#707070"/>
<path d="M355.424 111V99.8H357.136L360.88 107.768L364.624 99.8H366.336V111H365.168V101.256L360.88 110.2L356.576 101.224V111H355.424ZM372.486 111.16C371.76 111.16 371.104 110.984 370.518 110.632C369.931 110.269 369.467 109.784 369.126 109.176C368.784 108.557 368.614 107.864 368.614 107.096C368.614 106.328 368.774 105.64 369.094 105.032C369.424 104.424 369.867 103.944 370.422 103.592C370.976 103.24 371.595 103.064 372.278 103.064C372.971 103.064 373.584 103.24 374.118 103.592C374.662 103.933 375.088 104.403 375.398 105C375.718 105.587 375.878 106.253 375.878 107V107.352H369.75C369.792 107.885 369.936 108.365 370.182 108.792C370.438 109.208 370.768 109.539 371.174 109.784C371.59 110.019 372.043 110.136 372.534 110.136C372.939 110.136 373.328 110.067 373.702 109.928C374.086 109.779 374.411 109.581 374.678 109.336L375.414 110.12C374.966 110.472 374.502 110.733 374.022 110.904C373.542 111.075 373.03 111.16 372.486 111.16ZM369.782 106.52H374.726C374.672 106.051 374.528 105.635 374.294 105.272C374.07 104.899 373.782 104.605 373.43 104.392C373.088 104.179 372.704 104.072 372.278 104.072C371.851 104.072 371.462 104.179 371.11 104.392C370.758 104.595 370.464 104.883 370.23 105.256C370.006 105.619 369.856 106.04 369.782 106.52ZM377.872 111V103.192H379.04V104.456C379.339 103.987 379.696 103.64 380.112 103.416C380.528 103.181 380.997 103.064 381.52 103.064C382.085 103.064 382.576 103.187 382.992 103.432C383.419 103.667 383.749 104.003 383.984 104.44C384.229 104.867 384.352 105.368 384.352 105.944V111H383.184V106.28C383.184 105.587 382.992 105.043 382.608 104.648C382.235 104.243 381.728 104.04 381.088 104.04C380.661 104.04 380.272 104.141 379.92 104.344C379.568 104.547 379.275 104.845 379.04 105.24V111H377.872ZM389.406 111.128C388.851 111.128 388.361 111.005 387.934 110.76C387.507 110.515 387.171 110.173 386.926 109.736C386.691 109.299 386.574 108.797 386.574 108.232V103.192H387.758V107.896C387.758 108.589 387.945 109.139 388.318 109.544C388.691 109.949 389.198 110.152 389.838 110.152C390.275 110.152 390.665 110.051 391.006 109.848C391.358 109.645 391.651 109.352 391.886 108.968V103.192H393.054V111H391.886V109.736C391.587 110.195 391.23 110.541 390.814 110.776C390.409 111.011 389.939 111.128 389.406 111.128ZM398.8 111V110.152L403.28 105.256C403.632 104.872 403.904 104.536 404.096 104.248C404.299 103.949 404.438 103.672 404.512 103.416C404.598 103.16 404.64 102.888 404.64 102.6C404.64 102.035 404.416 101.571 403.968 101.208C403.531 100.835 402.971 100.648 402.288 100.648C401.766 100.648 401.28 100.749 400.832 100.952C400.384 101.155 399.883 101.507 399.328 102.008L398.656 101.208C399.243 100.675 399.835 100.28 400.432 100.024C401.03 99.7573 401.654 99.624 402.304 99.624C402.976 99.624 403.574 99.752 404.096 100.008C404.619 100.253 405.03 100.595 405.328 101.032C405.627 101.469 405.776 101.971 405.776 102.536C405.776 102.909 405.728 103.256 405.632 103.576C405.536 103.885 405.366 104.221 405.12 104.584C404.875 104.936 404.523 105.363 404.064 105.864L400.24 110.008L406.016 109.992V111H398.8Z" fill="#151515"/>
<path d="M424.354 102.646C424.158 102.451 423.842 102.451 423.646 102.646L420 106.293L416.354 102.646C416.158 102.451 415.842 102.451 415.646 102.646C415.451 102.842 415.451 103.158 415.646 103.354L419.47 107.177C419.616 107.323 419.808 107.396 420 107.396C420.192 107.396 420.384 107.323 420.53 107.177L424.353 103.354C424.549 103.158 424.549 102.842 424.354 102.646Z" fill="#707070"/>
<path d="M458.424 111V99.8H460.136L463.88 107.768L467.624 99.8H469.336V111H468.168V101.256L463.88 110.2L459.576 101.224V111H458.424ZM475.486 111.16C474.76 111.16 474.104 110.984 473.518 110.632C472.931 110.269 472.467 109.784 472.126 109.176C471.784 108.557 471.614 107.864 471.614 107.096C471.614 106.328 471.774 105.64 472.094 105.032C472.424 104.424 472.867 103.944 473.422 103.592C473.976 103.24 474.595 103.064 475.278 103.064C475.971 103.064 476.584 103.24 477.118 103.592C477.662 103.933 478.088 104.403 478.398 105C478.718 105.587 478.878 106.253 478.878 107V107.352H472.75C472.792 107.885 472.936 108.365 473.182 108.792C473.438 109.208 473.768 109.539 474.174 109.784C474.59 110.019 475.043 110.136 475.534 110.136C475.939 110.136 476.328 110.067 476.702 109.928C477.086 109.779 477.411 109.581 477.678 109.336L478.414 110.12C477.966 110.472 477.502 110.733 477.022 110.904C476.542 111.075 476.03 111.16 475.486 111.16ZM472.782 106.52H477.726C477.672 106.051 477.528 105.635 477.294 105.272C477.07 104.899 476.782 104.605 476.43 104.392C476.088 104.179 475.704 104.072 475.278 104.072C474.851 104.072 474.462 104.179 474.11 104.392C473.758 104.595 473.464 104.883 473.23 105.256C473.006 105.619 472.856 106.04 472.782 106.52ZM480.872 111V103.192H482.04V104.456C482.339 103.987 482.696 103.64 483.112 103.416C483.528 103.181 483.997 103.064 484.52 103.064C485.085 103.064 485.576 103.187 485.992 103.432C486.419 103.667 486.749 104.003 486.984 104.44C487.229 104.867 487.352 105.368 487.352 105.944V111H486.184V106.28C486.184 105.587 485.992 105.043 485.608 104.648C485.235 104.243 484.728 104.04 484.088 104.04C483.661 104.04 483.272 104.141 482.92 104.344C482.568 104.547 482.275 104.845 482.04 105.24V111H480.872ZM492.406 111.128C491.851 111.128 491.361 111.005 490.934 110.76C490.507 110.515 490.171 110.173 489.926 109.736C489.691 109.299 489.574 108.797 489.574 108.232V103.192H490.758V107.896C490.758 108.589 490.945 109.139 491.318 109.544C491.691 109.949 492.198 110.152 492.838 110.152C493.275 110.152 493.665 110.051 494.006 109.848C494.358 109.645 494.651 109.352 494.886 108.968V103.192H496.054V111H494.886V109.736C494.587 110.195 494.23 110.541 493.814 110.776C493.409 111.011 492.939 111.128 492.406 111.128ZM505.496 111.176C504.728 111.176 504.008 111.043 503.336 110.776C502.675 110.509 502.088 110.115 501.576 109.592L502.344 108.84C502.814 109.309 503.294 109.651 503.784 109.864C504.286 110.067 504.851 110.168 505.48 110.168C506.024 110.168 506.504 110.072 506.92 109.88C507.347 109.688 507.678 109.421 507.912 109.08C508.147 108.739 508.264 108.349 508.264 107.912C508.264 107.496 508.158 107.128 507.944 106.808C507.742 106.477 507.459 106.221 507.096 106.04C506.734 105.859 506.318 105.768 505.848 105.768H504.52V104.776H505.8C506.408 104.776 506.899 104.589 507.272 104.216C507.656 103.843 507.848 103.357 507.848 102.76C507.848 102.365 507.742 102.008 507.528 101.688C507.315 101.368 507.022 101.117 506.648 100.936C506.286 100.744 505.875 100.648 505.416 100.648C504.84 100.648 504.323 100.755 503.864 100.968C503.416 101.171 502.958 101.517 502.488 102.008L501.72 101.24C502.222 100.707 502.787 100.307 503.416 100.04C504.046 99.7627 504.718 99.624 505.432 99.624C506.115 99.624 506.723 99.7573 507.256 100.024C507.8 100.291 508.227 100.659 508.536 101.128C508.846 101.587 509 102.109 509 102.696C509 103.283 508.808 103.811 508.424 104.28C508.04 104.739 507.534 105.059 506.904 105.24C507.662 105.411 508.27 105.741 508.728 106.232C509.187 106.723 509.416 107.293 509.416 107.944C509.416 108.563 509.246 109.117 508.904 109.608C508.574 110.099 508.11 110.483 507.512 110.76C506.926 111.037 506.254 111.176 505.496 111.176Z" fill="#151515"/>
<path d="M528.354 102.646C528.158 102.451 527.842 102.451 527.646 102.646L524 106.293L520.354 102.646C520.158 102.451 519.842 102.451 519.646 102.646C519.451 102.842 519.451 103.158 519.646 103.354L523.47 107.177C523.616 107.323 523.808 107.396 524 107.396C524.192 107.396 524.384 107.323 524.53 107.177L528.353 103.354C528.549 103.158 528.549 102.842 528.354 102.646Z" fill="#707070"/>
<path d="M562.424 111V99.8H564.136L567.88 107.768L571.624 99.8H573.336V111H572.168V101.256L567.88 110.2L563.576 101.224V111H562.424ZM579.486 111.16C578.76 111.16 578.104 110.984 577.518 110.632C576.931 110.269 576.467 109.784 576.126 109.176C575.784 108.557 575.614 107.864 575.614 107.096C575.614 106.328 575.774 105.64 576.094 105.032C576.424 104.424 576.867 103.944 577.422 103.592C577.976 103.24 578.595 103.064 579.278 103.064C579.971 103.064 580.584 103.24 581.118 103.592C581.662 103.933 582.088 104.403 582.398 105C582.718 105.587 582.878 106.253 582.878 107V107.352H576.75C576.792 107.885 576.936 108.365 577.182 108.792C577.438 109.208 577.768 109.539 578.174 109.784C578.59 110.019 579.043 110.136 579.534 110.136C579.939 110.136 580.328 110.067 580.702 109.928C581.086 109.779 581.411 109.581 581.678 109.336L582.414 110.12C581.966 110.472 581.502 110.733 581.022 110.904C580.542 111.075 580.03 111.16 579.486 111.16ZM576.782 106.52H581.726C581.672 106.051 581.528 105.635 581.294 105.272C581.07 104.899 580.782 104.605 580.43 104.392C580.088 104.179 579.704 104.072 579.278 104.072C578.851 104.072 578.462 104.179 578.11 104.392C577.758 104.595 577.464 104.883 577.23 105.256C577.006 105.619 576.856 106.04 576.782 106.52ZM584.872 111V103.192H586.04V104.456C586.339 103.987 586.696 103.64 587.112 103.416C587.528 103.181 587.997 103.064 588.52 103.064C589.085 103.064 589.576 103.187 589.992 103.432C590.419 103.667 590.749 104.003 590.984 104.44C591.229 104.867 591.352 105.368 591.352 105.944V111H590.184V106.28C590.184 105.587 589.992 105.043 589.608 104.648C589.235 104.243 588.728 104.04 588.088 104.04C587.661 104.04 587.272 104.141 586.92 104.344C586.568 104.547 586.275 104.845 586.04 105.24V111H584.872ZM596.406 111.128C595.851 111.128 595.361 111.005 594.934 110.76C594.507 110.515 594.171 110.173 593.926 109.736C593.691 109.299 593.574 108.797 593.574 108.232V103.192H594.758V107.896C594.758 108.589 594.945 109.139 595.318 109.544C595.691 109.949 596.198 110.152 596.838 110.152C597.275 110.152 597.665 110.051 598.006 109.848C598.358 109.645 598.651 109.352 598.886 108.968V103.192H600.054V111H598.886V109.736C598.587 110.195 598.23 110.541 597.814 110.776C597.409 111.011 596.939 111.128 596.406 111.128ZM611.656 111V108.008H605.608V107.096L611.56 99.8H612.792V107H614.344V108.008H612.792V111H611.656ZM606.952 107H611.656V101.192L606.952 107Z" fill="#151515"/>
<path d="M632.354 102.646C632.158 102.451 631.842 102.451 631.646 102.646L628 106.293L624.354 102.646C624.158 102.451 623.842 102.451 623.646 102.646C623.451 102.842 623.451 103.158 623.646 103.354L627.47 107.177C627.616 107.323 627.808 107.396 628 107.396C628.192 107.396 628.384 107.323 628.53 107.177L632.353 103.354C632.549 103.158 632.549 102.842 632.354 102.646Z" fill="#707070"/>
<path d="M666.424 111V99.8H668.136L671.88 107.768L675.624 99.8H677.336V111H676.168V101.256L671.88 110.2L667.576 101.224V111H666.424ZM683.486 111.16C682.76 111.16 682.104 110.984 681.518 110.632C680.931 110.269 680.467 109.784 680.126 109.176C679.784 108.557 679.614 107.864 679.614 107.096C679.614 106.328 679.774 105.64 680.094 105.032C680.424 104.424 680.867 103.944 681.422 103.592C681.976 103.24 682.595 103.064 683.278 103.064C683.971 103.064 684.584 103.24 685.118 103.592C685.662 103.933 686.088 104.403 686.398 105C686.718 105.587 686.878 106.253 686.878 107V107.352H680.75C680.792 107.885 680.936 108.365 681.182 108.792C681.438 109.208 681.768 109.539 682.174 109.784C682.59 110.019 683.043 110.136 683.534 110.136C683.939 110.136 684.328 110.067 684.702 109.928C685.086 109.779 685.411 109.581 685.678 109.336L686.414 110.12C685.966 110.472 685.502 110.733 685.022 110.904C684.542 111.075 684.03 111.16 683.486 111.16ZM680.782 106.52H685.726C685.672 106.051 685.528 105.635 685.294 105.272C685.07 104.899 684.782 104.605 684.43 104.392C684.088 104.179 683.704 104.072 683.278 104.072C682.851 104.072 682.462 104.179 682.11 104.392C681.758 104.595 681.464 104.883 681.23 105.256C681.006 105.619 680.856 106.04 680.782 106.52ZM688.872 111V103.192H690.04V104.456C690.339 103.987 690.696 103.64 691.112 103.416C691.528 103.181 691.997 103.064 692.52 103.064C693.085 103.064 693.576 103.187 693.992 103.432C694.419 103.667 694.749 104.003 694.984 104.44C695.229 104.867 695.352 105.368 695.352 105.944V111H694.184V106.28C694.184 105.587 693.992 105.043 693.608 104.648C693.235 104.243 692.728 104.04 692.088 104.04C691.661 104.04 691.272 104.141 690.92 104.344C690.568 104.547 690.275 104.845 690.04 105.24V111H688.872ZM700.406 111.128C699.851 111.128 699.361 111.005 698.934 110.76C698.507 110.515 698.171 110.173 697.926 109.736C697.691 109.299 697.574 108.797 697.574 108.232V103.192H698.758V107.896C698.758 108.589 698.945 109.139 699.318 109.544C699.691 109.949 700.198 110.152 700.838 110.152C701.275 110.152 701.665 110.051 702.006 109.848C702.358 109.645 702.651 109.352 702.886 108.968V103.192H704.054V111H702.886V109.736C702.587 110.195 702.23 110.541 701.814 110.776C701.409 111.011 700.939 111.128 700.406 111.128ZM713.384 111.176C711.912 111.176 710.643 110.669 709.576 109.656L710.296 108.872C710.787 109.331 711.272 109.667 711.752 109.88C712.243 110.083 712.792 110.184 713.4 110.184C713.944 110.184 714.424 110.072 714.84 109.848C715.256 109.624 715.576 109.309 715.8 108.904C716.035 108.499 716.152 108.035 716.152 107.512C716.152 106.765 715.896 106.163 715.384 105.704C714.883 105.245 714.222 105.016 713.4 105.016C712.974 105.016 712.558 105.069 712.152 105.176C711.747 105.272 711.326 105.432 710.888 105.656L710.088 105.4L710.344 99.8H716.712V100.808H711.336L711.16 104.68C711.587 104.467 711.998 104.317 712.392 104.232C712.787 104.136 713.203 104.088 713.64 104.088C714.376 104.088 715.016 104.232 715.56 104.52C716.115 104.797 716.542 105.192 716.84 105.704C717.15 106.205 717.304 106.792 717.304 107.464C717.304 108.2 717.139 108.845 716.808 109.4C716.478 109.955 716.019 110.392 715.432 110.712C714.846 111.021 714.163 111.176 713.384 111.176Z" fill="#151515"/>
<path d="M736.354 102.646C736.158 102.451 735.842 102.451 735.646 102.646L732 106.293L728.354 102.646C728.158 102.451 727.842 102.451 727.646 102.646C727.451 102.842 727.451 103.158 727.646 103.354L731.47 107.177C731.616 107.323 731.808 107.396 732 107.396C732.192 107.396 732.384 107.323 732.53 107.177L736.353 103.354C736.549 103.158 736.549 102.842 736.354 102.646Z" fill="#707070"/>
<path d="M770.424 111V99.8H772.136L775.88 107.768L779.624 99.8H781.336V111H780.168V101.256L775.88 110.2L771.576 101.224V111H770.424ZM787.486 111.16C786.76 111.16 786.104 110.984 785.518 110.632C784.931 110.269 784.467 109.784 784.126 109.176C783.784 108.557 783.614 107.864 783.614 107.096C783.614 106.328 783.774 105.64 784.094 105.032C784.424 104.424 784.867 103.944 785.422 103.592C785.976 103.24 786.595 103.064 787.278 103.064C787.971 103.064 788.584 103.24 789.118 103.592C789.662 103.933 790.088 104.403 790.398 105C790.718 105.587 790.878 106.253 790.878 107V107.352H784.75C784.792 107.885 784.936 108.365 785.182 108.792C785.438 109.208 785.768 109.539 786.174 109.784C786.59 110.019 787.043 110.136 787.534 110.136C787.939 110.136 788.328 110.067 788.702 109.928C789.086 109.779 789.411 109.581 789.678 109.336L790.414 110.12C789.966 110.472 789.502 110.733 789.022 110.904C788.542 111.075 788.03 111.16 787.486 111.16ZM784.782 106.52H789.726C789.672 106.051 789.528 105.635 789.294 105.272C789.07 104.899 788.782 104.605 788.43 104.392C788.088 104.179 787.704 104.072 787.278 104.072C786.851 104.072 786.462 104.179 786.11 104.392C785.758 104.595 785.464 104.883 785.23 105.256C785.006 105.619 784.856 106.04 784.782 106.52ZM792.872 111V103.192H794.04V104.456C794.339 103.987 794.696 103.64 795.112 103.416C795.528 103.181 795.997 103.064 796.52 103.064C797.085 103.064 797.576 103.187 797.992 103.432C798.419 103.667 798.749 104.003 798.984 104.44C799.229 104.867 799.352 105.368 799.352 105.944V111H798.184V106.28C798.184 105.587 797.992 105.043 797.608 104.648C797.235 104.243 796.728 104.04 796.088 104.04C795.661 104.04 795.272 104.141 794.92 104.344C794.568 104.547 794.275 104.845 794.04 105.24V111H792.872ZM804.406 111.128C803.851 111.128 803.361 111.005 802.934 110.76C802.507 110.515 802.171 110.173 801.926 109.736C801.691 109.299 801.574 108.797 801.574 108.232V103.192H802.758V107.896C802.758 108.589 802.945 109.139 803.318 109.544C803.691 109.949 804.198 110.152 804.838 110.152C805.275 110.152 805.665 110.051 806.006 109.848C806.358 109.645 806.651 109.352 806.886 108.968V103.192H808.054V111H806.886V109.736C806.587 110.195 806.23 110.541 805.814 110.776C805.409 111.011 804.939 111.128 804.406 111.128ZM818.28 111.16C817.416 111.16 816.654 110.931 815.992 110.472C815.342 110.013 814.83 109.384 814.456 108.584C814.083 107.773 813.896 106.84 813.896 105.784C813.896 104.547 814.104 103.469 814.52 102.552C814.936 101.624 815.523 100.904 816.28 100.392C817.038 99.88 817.918 99.624 818.92 99.624C819.39 99.624 819.854 99.688 820.312 99.816C820.771 99.944 821.182 100.131 821.544 100.376L820.968 101.272C820.638 101.08 820.291 100.931 819.928 100.824C819.566 100.717 819.198 100.664 818.824 100.664C818.056 100.664 817.39 100.867 816.824 101.272C816.27 101.667 815.838 102.237 815.528 102.984C815.23 103.731 815.07 104.627 815.048 105.672C815.464 105.139 815.96 104.723 816.536 104.424C817.112 104.125 817.71 103.976 818.328 103.976C819.054 103.976 819.699 104.125 820.264 104.424C820.83 104.723 821.272 105.139 821.592 105.672C821.912 106.195 822.072 106.792 822.072 107.464C822.072 108.168 821.907 108.803 821.576 109.368C821.246 109.923 820.792 110.36 820.216 110.68C819.651 111 819.006 111.16 818.28 111.16ZM818.168 104.92C817.582 104.92 817.016 105.069 816.472 105.368C815.939 105.656 815.475 106.056 815.08 106.568C815.166 107.283 815.347 107.912 815.624 108.456C815.912 108.989 816.28 109.405 816.728 109.704C817.187 110.003 817.699 110.152 818.264 110.152C818.776 110.152 819.23 110.04 819.624 109.816C820.03 109.581 820.344 109.261 820.568 108.856C820.803 108.451 820.92 107.997 820.92 107.496C820.92 106.995 820.803 106.552 820.568 106.168C820.334 105.773 820.008 105.469 819.592 105.256C819.187 105.032 818.712 104.92 818.168 104.92Z" fill="#151515"/>
<path d="M840.354 102.646C840.158 102.451 839.842 102.451 839.646 102.646L836 106.293L832.354 102.646C832.158 102.451 831.842 102.451 831.646 102.646C831.451 102.842 831.451 103.158 831.646 103.354L835.47 107.177C835.616 107.323 835.808 107.396 836 107.396C836.192 107.396 836.384 107.323 836.53 107.177L840.353 103.354C840.549 103.158 840.549 102.842 840.354 102.646Z" fill="#707070"/>
<path d="M874.424 111V99.8H876.136L879.88 107.768L883.624 99.8H885.336V111H884.168V101.256L879.88 110.2L875.576 101.224V111H874.424ZM891.486 111.16C890.76 111.16 890.104 110.984 889.518 110.632C888.931 110.269 888.467 109.784 888.126 109.176C887.784 108.557 887.614 107.864 887.614 107.096C887.614 106.328 887.774 105.64 888.094 105.032C888.424 104.424 888.867 103.944 889.422 103.592C889.976 103.24 890.595 103.064 891.278 103.064C891.971 103.064 892.584 103.24 893.118 103.592C893.662 103.933 894.088 104.403 894.398 105C894.718 105.587 894.878 106.253 894.878 107V107.352H888.75C888.792 107.885 888.936 108.365 889.182 108.792C889.438 109.208 889.768 109.539 890.174 109.784C890.59 110.019 891.043 110.136 891.534 110.136C891.939 110.136 892.328 110.067 892.702 109.928C893.086 109.779 893.411 109.581 893.678 109.336L894.414 110.12C893.966 110.472 893.502 110.733 893.022 110.904C892.542 111.075 892.03 111.16 891.486 111.16ZM888.782 106.52H893.726C893.672 106.051 893.528 105.635 893.294 105.272C893.07 104.899 892.782 104.605 892.43 104.392C892.088 104.179 891.704 104.072 891.278 104.072C890.851 104.072 890.462 104.179 890.11 104.392C889.758 104.595 889.464 104.883 889.23 105.256C889.006 105.619 888.856 106.04 888.782 106.52ZM896.872 111V103.192H898.04V104.456C898.339 103.987 898.696 103.64 899.112 103.416C899.528 103.181 899.997 103.064 900.52 103.064C901.085 103.064 901.576 103.187 901.992 103.432C902.419 103.667 902.749 104.003 902.984 104.44C903.229 104.867 903.352 105.368 903.352 105.944V111H902.184V106.28C902.184 105.587 901.992 105.043 901.608 104.648C901.235 104.243 900.728 104.04 900.088 104.04C899.661 104.04 899.272 104.141 898.92 104.344C898.568 104.547 898.275 104.845 898.04 105.24V111H896.872ZM908.406 111.128C907.851 111.128 907.361 111.005 906.934 110.76C906.507 110.515 906.171 110.173 905.926 109.736C905.691 109.299 905.574 108.797 905.574 108.232V103.192H906.758V107.896C906.758 108.589 906.945 109.139 907.318 109.544C907.691 109.949 908.198 110.152 908.838 110.152C909.275 110.152 909.665 110.051 910.006 109.848C910.358 109.645 910.651 109.352 910.886 108.968V103.192H912.054V111H910.886V109.736C910.587 110.195 910.23 110.541 909.814 110.776C909.409 111.011 908.939 111.128 908.406 111.128ZM918.632 111L924.2 100.808H917.48V99.8H925.448V100.696L919.944 111H918.632Z" fill="#151515"/>
<path d="M943.354 102.646C943.158 102.451 942.842 102.451 942.646 102.646L939 106.293L935.354 102.646C935.158 102.451 934.842 102.451 934.646 102.646C934.451 102.842 934.451 103.158 934.646 103.354L938.47 107.177C938.616 107.323 938.808 107.396 939 107.396C939.192 107.396 939.384 107.323 939.53 107.177L943.353 103.354C943.549 103.158 943.549 102.842 943.354 102.646Z" fill="#707070"/>
<path d="M977.424 111V99.8H979.136L982.88 107.768L986.624 99.8H988.336V111H987.168V101.256L982.88 110.2L978.576 101.224V111H977.424ZM994.486 111.16C993.76 111.16 993.104 110.984 992.518 110.632C991.931 110.269 991.467 109.784 991.126 109.176C990.784 108.557 990.614 107.864 990.614 107.096C990.614 106.328 990.774 105.64 991.094 105.032C991.424 104.424 991.867 103.944 992.422 103.592C992.976 103.24 993.595 103.064 994.278 103.064C994.971 103.064 995.584 103.24 996.118 103.592C996.662 103.933 997.088 104.403 997.398 105C997.718 105.587 997.878 106.253 997.878 107V107.352H991.75C991.792 107.885 991.936 108.365 992.182 108.792C992.438 109.208 992.768 109.539 993.174 109.784C993.59 110.019 994.043 110.136 994.534 110.136C994.939 110.136 995.328 110.067 995.702 109.928C996.086 109.779 996.411 109.581 996.678 109.336L997.414 110.12C996.966 110.472 996.502 110.733 996.022 110.904C995.542 111.075 995.03 111.16 994.486 111.16ZM991.782 106.52H996.726C996.672 106.051 996.528 105.635 996.294 105.272C996.07 104.899 995.782 104.605 995.43 104.392C995.088 104.179 994.704 104.072 994.278 104.072C993.851 104.072 993.462 104.179 993.11 104.392C992.758 104.595 992.464 104.883 992.23 105.256C992.006 105.619 991.856 106.04 991.782 106.52ZM999.872 111V103.192H1001.04V104.456C1001.34 103.987 1001.7 103.64 1002.11 103.416C1002.53 103.181 1003 103.064 1003.52 103.064C1004.09 103.064 1004.58 103.187 1004.99 103.432C1005.42 103.667 1005.75 104.003 1005.98 104.44C1006.23 104.867 1006.35 105.368 1006.35 105.944V111H1005.18V106.28C1005.18 105.587 1004.99 105.043 1004.61 104.648C1004.23 104.243 1003.73 104.04 1003.09 104.04C1002.66 104.04 1002.27 104.141 1001.92 104.344C1001.57 104.547 1001.27 104.845 1001.04 105.24V111H999.872ZM1011.41 111.128C1010.85 111.128 1010.36 111.005 1009.93 110.76C1009.51 110.515 1009.17 110.173 1008.93 109.736C1008.69 109.299 1008.57 108.797 1008.57 108.232V103.192H1009.76V107.896C1009.76 108.589 1009.94 109.139 1010.32 109.544C1010.69 109.949 1011.2 110.152 1011.84 110.152C1012.28 110.152 1012.66 110.051 1013.01 109.848C1013.36 109.645 1013.65 109.352 1013.89 108.968V103.192H1015.05V111H1013.89V109.736C1013.59 110.195 1013.23 110.541 1012.81 110.776C1012.41 111.011 1011.94 111.128 1011.41 111.128ZM1024.9 111.176C1024.13 111.176 1023.45 111.037 1022.85 110.76C1022.25 110.483 1021.78 110.104 1021.42 109.624C1021.08 109.133 1020.91 108.584 1020.91 107.976C1020.91 107.517 1021.02 107.096 1021.25 106.712C1021.47 106.317 1021.78 105.981 1022.18 105.704C1022.58 105.416 1023.04 105.213 1023.55 105.096C1022.9 104.915 1022.37 104.589 1021.95 104.12C1021.55 103.651 1021.34 103.123 1021.34 102.536C1021.34 101.981 1021.5 101.485 1021.81 101.048C1022.12 100.611 1022.54 100.264 1023.07 100.008C1023.62 99.752 1024.22 99.624 1024.9 99.624C1025.58 99.624 1026.19 99.752 1026.72 100.008C1027.25 100.264 1027.68 100.611 1027.98 101.048C1028.29 101.485 1028.45 101.981 1028.45 102.536C1028.45 103.123 1028.25 103.651 1027.84 104.12C1027.44 104.589 1026.9 104.915 1026.24 105.096C1027.02 105.277 1027.65 105.635 1028.14 106.168C1028.64 106.691 1028.88 107.293 1028.88 107.976C1028.88 108.584 1028.71 109.133 1028.37 109.624C1028.03 110.104 1027.55 110.483 1026.94 110.76C1026.35 111.037 1025.66 111.176 1024.9 111.176ZM1024.9 104.616C1025.36 104.616 1025.77 104.525 1026.13 104.344C1026.5 104.163 1026.8 103.923 1027.01 103.624C1027.22 103.315 1027.33 102.968 1027.33 102.584C1027.33 102.2 1027.22 101.853 1027.01 101.544C1026.8 101.235 1026.5 100.995 1026.13 100.824C1025.77 100.643 1025.36 100.552 1024.9 100.552C1024.44 100.552 1024.02 100.643 1023.65 100.824C1023.29 100.995 1023 101.235 1022.78 101.544C1022.57 101.853 1022.46 102.2 1022.46 102.584C1022.46 102.968 1022.57 103.315 1022.78 103.624C1023 103.923 1023.29 104.163 1023.65 104.344C1024.02 104.525 1024.44 104.616 1024.9 104.616ZM1024.9 110.248C1025.44 110.248 1025.93 110.147 1026.35 109.944C1026.78 109.741 1027.12 109.464 1027.36 109.112C1027.62 108.76 1027.74 108.365 1027.74 107.928C1027.74 107.491 1027.62 107.096 1027.36 106.744C1027.12 106.392 1026.78 106.115 1026.35 105.912C1025.93 105.709 1025.44 105.608 1024.9 105.608C1024.35 105.608 1023.87 105.709 1023.44 105.912C1023.01 106.115 1022.67 106.392 1022.42 106.744C1022.17 107.096 1022.05 107.491 1022.05 107.928C1022.05 108.365 1022.17 108.76 1022.42 109.112C1022.67 109.464 1023.01 109.741 1023.44 109.944C1023.87 110.147 1024.35 110.248 1024.9 110.248Z" fill="#151515"/>
<path d="M1047.35 102.646C1047.16 102.451 1046.84 102.451 1046.65 102.646L1043 106.293L1039.35 102.646C1039.16 102.451 1038.84 102.451 1038.65 102.646C1038.45 102.842 1038.45 103.158 1038.65 103.354L1042.47 107.177C1042.62 107.323 1042.81 107.396 1043 107.396C1043.19 107.396 1043.38 107.323 1043.53 107.177L1047.35 103.354C1047.55 103.158 1047.55 102.842 1047.35 102.646Z" fill="#707070"/>
</g>
</g>
<defs>
<filter id="filter0_d_4015_3856" x="-848" y="176" width="1928" height="90" filterUnits="userSpaceOnUse" color-interpolation-filters="sRGB">
<feFlood flood-opacity="0" result="BackgroundImageFix"/>
<feColorMatrix in="SourceAlpha" type="matrix" values="0 0 0 0 0 0 0 0 0 0 0 0 0 0 0 0 0 0 127 0" result="hardAlpha"/>
<feOffset dy="2"/>
<feGaussianBlur stdDeviation="2"/>
<feComposite in2="hardAlpha" operator="out"/>
<feColorMatrix type="matrix" values="0 0 0 0 0.0823529 0 0 0 0 0.0823529 0 0 0 0 0.0823529 0 0 0 0.2 0"/>
<feBlend mode="normal" in2="BackgroundImageFix" result="effect1_dropShadow_4015_3856"/>
<feBlend mode="normal" in="SourceGraphic" in2="effect1_dropShadow_4015_3856" result="shape"/>
</filter>
<filter id="filter1_d_4015_3856" x="60" y="62" width="1448" height="90" filterUnits="userSpaceOnUse" color-interpolation-filters="sRGB">
<feFlood flood-opacity="0" result="BackgroundImageFix"/>
<feColorMatrix in="SourceAlpha" type="matrix" values="0 0 0 0 0 0 0 0 0 0 0 0 0 0 0 0 0 0 127 0" result="hardAlpha"/>
<feOffset dy="2"/>
<feGaussianBlur stdDeviation="2"/>
<feComposite in2="hardAlpha" operator="out"/>
<feColorMatrix type="matrix" values="0 0 0 0 0.0823529 0 0 0 0 0.0823529 0 0 0 0 0.0823529 0 0 0 0.2 0"/>
<feBlend mode="normal" in2="BackgroundImageFix" result="effect1_dropShadow_4015_3856"/>
<feBlend mode="normal" in="SourceGraphic" in2="effect1_dropShadow_4015_3856" result="shape"/>
</filter>
<clipPath id="clip0_4015_3856">
<rect width="16" height="16" fill="white" transform="translate(736 211)"/>
</clipPath>
<clipPath id="clip1_4015_3856">
<rect width="16" height="16" fill="white" transform="translate(904 211)"/>
</clipPath>
<clipPath id="clip2_4015_3856">
<rect width="127" height="30" fill="white" transform="translate(96 90)"/>
</clipPath>
</defs>
</svg>
