<svg width="1140" height="320" viewBox="0 0 1140 320" fill="none" xmlns="http://www.w3.org/2000/svg">
<rect width="1140" height="320" rx="3" fill="#E0E0E0"/>
<rect width="992" height="80" transform="translate(64 64)" fill="white"/>
<path d="M252.602 110.5V97.9H253.988V109.276H261.098V110.5H252.602ZM266.715 110.644C265.899 110.644 265.167 110.446 264.519 110.05C263.871 109.654 263.361 109.114 262.989 108.43C262.617 107.746 262.431 106.972 262.431 106.108C262.431 105.244 262.617 104.47 262.989 103.786C263.361 103.102 263.871 102.562 264.519 102.166C265.167 101.77 265.899 101.572 266.715 101.572C267.519 101.572 268.239 101.77 268.875 102.166C269.523 102.562 270.033 103.102 270.405 103.786C270.777 104.47 270.963 105.244 270.963 106.108C270.963 106.972 270.777 107.746 270.405 108.43C270.033 109.114 269.523 109.654 268.875 110.05C268.239 110.446 267.519 110.644 266.715 110.644ZM266.697 109.492C267.273 109.492 267.783 109.348 268.227 109.06C268.671 108.76 269.019 108.352 269.271 107.836C269.535 107.32 269.667 106.744 269.667 106.108C269.667 105.46 269.535 104.884 269.271 104.38C269.019 103.864 268.671 103.462 268.227 103.174C267.783 102.874 267.273 102.724 266.697 102.724C266.121 102.724 265.611 102.874 265.167 103.174C264.723 103.462 264.369 103.864 264.105 104.38C263.853 104.884 263.727 105.46 263.727 106.108C263.727 106.744 263.853 107.32 264.105 107.836C264.369 108.352 264.723 108.76 265.167 109.06C265.611 109.348 266.121 109.492 266.697 109.492ZM273.268 110.5V101.716H274.582V103.516C274.81 102.904 275.134 102.43 275.554 102.094C275.986 101.746 276.478 101.572 277.03 101.572C277.186 101.572 277.33 101.584 277.462 101.608C277.594 101.62 277.726 101.65 277.858 101.698V102.886C277.714 102.838 277.558 102.802 277.39 102.778C277.234 102.742 277.084 102.724 276.94 102.724C276.4 102.724 275.926 102.88 275.518 103.192C275.122 103.504 274.81 103.942 274.582 104.506V110.5H273.268ZM283.011 110.68C282.195 110.68 281.457 110.482 280.797 110.086C280.137 109.678 279.615 109.132 279.231 108.448C278.847 107.752 278.655 106.972 278.655 106.108C278.655 105.244 278.835 104.47 279.195 103.786C279.567 103.102 280.065 102.562 280.689 102.166C281.313 101.77 282.009 101.572 282.777 101.572C283.557 101.572 284.247 101.77 284.847 102.166C285.459 102.55 285.939 103.078 286.287 103.75C286.647 104.41 286.827 105.16 286.827 106V106.396H279.933C279.981 106.996 280.143 107.536 280.419 108.016C280.707 108.484 281.079 108.856 281.535 109.132C282.003 109.396 282.513 109.528 283.065 109.528C283.521 109.528 283.959 109.45 284.379 109.294C284.811 109.126 285.177 108.904 285.477 108.628L286.305 109.51C285.801 109.906 285.279 110.2 284.739 110.392C284.199 110.584 283.623 110.68 283.011 110.68ZM279.969 105.46H285.531C285.471 104.932 285.309 104.464 285.045 104.056C284.793 103.636 284.469 103.306 284.073 103.066C283.689 102.826 283.257 102.706 282.777 102.706C282.297 102.706 281.859 102.826 281.463 103.066C281.067 103.294 280.737 103.618 280.473 104.038C280.221 104.446 280.053 104.92 279.969 105.46ZM289.071 110.5V101.716H290.385V103.084C290.721 102.58 291.105 102.202 291.537 101.95C291.969 101.698 292.455 101.572 292.995 101.572C293.619 101.572 294.165 101.728 294.633 102.04C295.101 102.34 295.455 102.754 295.695 103.282C296.043 102.718 296.457 102.292 296.937 102.004C297.429 101.716 297.993 101.572 298.629 101.572C299.217 101.572 299.733 101.71 300.177 101.986C300.633 102.262 300.987 102.646 301.239 103.138C301.491 103.618 301.617 104.182 301.617 104.83V110.5H300.303V105.154C300.303 104.386 300.111 103.78 299.727 103.336C299.343 102.892 298.815 102.67 298.143 102.67C297.687 102.67 297.273 102.784 296.901 103.012C296.541 103.24 296.223 103.588 295.947 104.056C295.971 104.176 295.989 104.302 296.001 104.434C296.013 104.566 296.019 104.698 296.019 104.83V110.5H294.705V105.154C294.705 104.386 294.507 103.78 294.111 103.336C293.727 102.892 293.199 102.67 292.527 102.67C291.627 102.67 290.913 103.102 290.385 103.966V110.5H289.071ZM308.459 110.5V101.716H309.773V110.5H308.459ZM309.125 99.538C308.861 99.538 308.633 99.448 308.441 99.268C308.261 99.076 308.171 98.854 308.171 98.602C308.171 98.35 308.261 98.134 308.441 97.954C308.633 97.762 308.861 97.666 309.125 97.666C309.389 97.666 309.611 97.762 309.791 97.954C309.983 98.134 310.079 98.35 310.079 98.602C310.079 98.854 309.983 99.076 309.791 99.268C309.611 99.448 309.389 99.538 309.125 99.538ZM312.467 114.262V101.716H313.763V102.976C314.099 102.532 314.507 102.196 314.987 101.968C315.479 101.728 316.019 101.608 316.607 101.608C317.375 101.608 318.059 101.812 318.659 102.22C319.271 102.616 319.757 103.156 320.117 103.84C320.477 104.512 320.657 105.268 320.657 106.108C320.657 106.948 320.471 107.71 320.099 108.394C319.739 109.078 319.247 109.624 318.623 110.032C318.011 110.428 317.315 110.626 316.535 110.626C315.983 110.626 315.473 110.524 315.005 110.32C314.537 110.104 314.129 109.798 313.781 109.402V114.262H312.467ZM316.283 109.492C316.871 109.492 317.393 109.348 317.849 109.06C318.317 108.76 318.683 108.358 318.947 107.854C319.223 107.338 319.361 106.762 319.361 106.126C319.361 105.478 319.223 104.902 318.947 104.398C318.683 103.894 318.317 103.498 317.849 103.21C317.393 102.91 316.871 102.76 316.283 102.76C315.767 102.76 315.287 102.868 314.843 103.084C314.411 103.288 314.057 103.582 313.781 103.966V108.268C314.069 108.652 314.429 108.952 314.861 109.168C315.305 109.384 315.779 109.492 316.283 109.492ZM325.679 110.68C324.959 110.68 324.293 110.572 323.681 110.356C323.069 110.128 322.547 109.804 322.115 109.384L322.817 108.52C323.345 108.904 323.831 109.186 324.275 109.366C324.719 109.534 325.175 109.618 325.643 109.618C326.279 109.618 326.807 109.468 327.227 109.168C327.647 108.868 327.857 108.484 327.857 108.016C327.857 107.656 327.731 107.374 327.479 107.17C327.239 106.966 326.837 106.81 326.273 106.702L324.833 106.45C323.981 106.294 323.351 106.03 322.943 105.658C322.547 105.286 322.349 104.782 322.349 104.146C322.349 103.642 322.481 103.198 322.745 102.814C323.021 102.43 323.399 102.13 323.879 101.914C324.359 101.686 324.905 101.572 325.517 101.572C326.117 101.572 326.687 101.662 327.227 101.842C327.767 102.01 328.313 102.286 328.865 102.67L328.217 103.588C327.761 103.264 327.305 103.03 326.849 102.886C326.393 102.73 325.931 102.652 325.463 102.652C324.887 102.652 324.425 102.778 324.077 103.03C323.729 103.282 323.555 103.624 323.555 104.056C323.555 104.416 323.663 104.692 323.879 104.884C324.107 105.076 324.503 105.22 325.067 105.316L326.543 105.586C327.431 105.742 328.079 106.012 328.487 106.396C328.895 106.78 329.099 107.296 329.099 107.944C329.099 108.46 328.949 108.928 328.649 109.348C328.349 109.756 327.941 110.08 327.425 110.32C326.909 110.56 326.327 110.68 325.679 110.68ZM334.232 110.644C333.608 110.644 333.056 110.506 332.576 110.23C332.096 109.954 331.718 109.57 331.442 109.078C331.178 108.586 331.046 108.022 331.046 107.386V101.716H332.378V107.008C332.378 107.788 332.588 108.406 333.008 108.862C333.428 109.318 333.998 109.546 334.718 109.546C335.21 109.546 335.648 109.432 336.032 109.204C336.428 108.976 336.758 108.646 337.022 108.214V101.716H338.336V110.5H337.022V109.078C336.686 109.594 336.284 109.984 335.816 110.248C335.36 110.512 334.832 110.644 334.232 110.644ZM341.032 110.5V101.716H342.346V103.084C342.682 102.58 343.066 102.202 343.498 101.95C343.93 101.698 344.416 101.572 344.956 101.572C345.58 101.572 346.126 101.728 346.594 102.04C347.062 102.34 347.416 102.754 347.656 103.282C348.004 102.718 348.418 102.292 348.898 102.004C349.39 101.716 349.954 101.572 350.59 101.572C351.178 101.572 351.694 101.71 352.138 101.986C352.594 102.262 352.948 102.646 353.2 103.138C353.452 103.618 353.578 104.182 353.578 104.83V110.5H352.264V105.154C352.264 104.386 352.072 103.78 351.688 103.336C351.304 102.892 350.776 102.67 350.104 102.67C349.648 102.67 349.234 102.784 348.862 103.012C348.502 103.24 348.184 103.588 347.908 104.056C347.932 104.176 347.95 104.302 347.962 104.434C347.974 104.566 347.98 104.698 347.98 104.83V110.5H346.666V105.154C346.666 104.386 346.468 103.78 346.072 103.336C345.688 102.892 345.16 102.67 344.488 102.67C343.588 102.67 342.874 103.102 342.346 103.966V110.5H341.032ZM364.092 110.626C363.336 110.626 362.652 110.428 362.04 110.032C361.428 109.624 360.942 109.084 360.582 108.412C360.222 107.728 360.042 106.966 360.042 106.126C360.042 105.274 360.222 104.512 360.582 103.84C360.954 103.156 361.452 102.616 362.076 102.22C362.7 101.812 363.396 101.608 364.164 101.608C364.704 101.608 365.208 101.716 365.676 101.932C366.144 102.136 366.552 102.436 366.9 102.832V97.504L368.214 97.234V110.5H366.9V109.33C366.564 109.75 366.156 110.074 365.676 110.302C365.196 110.518 364.668 110.626 364.092 110.626ZM364.416 109.474C364.932 109.474 365.406 109.372 365.838 109.168C366.27 108.964 366.624 108.676 366.9 108.304V103.948C366.612 103.576 366.246 103.288 365.802 103.084C365.37 102.868 364.908 102.76 364.416 102.76C363.828 102.76 363.3 102.904 362.832 103.192C362.376 103.48 362.01 103.876 361.734 104.38C361.47 104.884 361.338 105.46 361.338 106.108C361.338 106.744 361.47 107.32 361.734 107.836C362.01 108.34 362.376 108.742 362.832 109.042C363.3 109.33 363.828 109.474 364.416 109.474ZM374.802 110.644C373.986 110.644 373.254 110.446 372.606 110.05C371.958 109.654 371.448 109.114 371.076 108.43C370.704 107.746 370.518 106.972 370.518 106.108C370.518 105.244 370.704 104.47 371.076 103.786C371.448 103.102 371.958 102.562 372.606 102.166C373.254 101.77 373.986 101.572 374.802 101.572C375.606 101.572 376.326 101.77 376.962 102.166C377.61 102.562 378.12 103.102 378.492 103.786C378.864 104.47 379.05 105.244 379.05 106.108C379.05 106.972 378.864 107.746 378.492 108.43C378.12 109.114 377.61 109.654 376.962 110.05C376.326 110.446 375.606 110.644 374.802 110.644ZM374.784 109.492C375.36 109.492 375.87 109.348 376.314 109.06C376.758 108.76 377.106 108.352 377.358 107.836C377.622 107.32 377.754 106.744 377.754 106.108C377.754 105.46 377.622 104.884 377.358 104.38C377.106 103.864 376.758 103.462 376.314 103.174C375.87 102.874 375.36 102.724 374.784 102.724C374.208 102.724 373.698 102.874 373.254 103.174C372.81 103.462 372.456 103.864 372.192 104.38C371.94 104.884 371.814 105.46 371.814 106.108C371.814 106.744 371.94 107.32 372.192 107.836C372.456 108.352 372.81 108.76 373.254 109.06C373.698 109.348 374.208 109.492 374.784 109.492ZM381.356 110.5V97.504L382.67 97.234V110.5H381.356ZM389.252 110.644C388.436 110.644 387.704 110.446 387.056 110.05C386.408 109.654 385.898 109.114 385.526 108.43C385.154 107.746 384.968 106.972 384.968 106.108C384.968 105.244 385.154 104.47 385.526 103.786C385.898 103.102 386.408 102.562 387.056 102.166C387.704 101.77 388.436 101.572 389.252 101.572C390.056 101.572 390.776 101.77 391.412 102.166C392.06 102.562 392.57 103.102 392.942 103.786C393.314 104.47 393.5 105.244 393.5 106.108C393.5 106.972 393.314 107.746 392.942 108.43C392.57 109.114 392.06 109.654 391.412 110.05C390.776 110.446 390.056 110.644 389.252 110.644ZM389.234 109.492C389.81 109.492 390.32 109.348 390.764 109.06C391.208 108.76 391.556 108.352 391.808 107.836C392.072 107.32 392.204 106.744 392.204 106.108C392.204 105.46 392.072 104.884 391.808 104.38C391.556 103.864 391.208 103.462 390.764 103.174C390.32 102.874 389.81 102.724 389.234 102.724C388.658 102.724 388.148 102.874 387.704 103.174C387.26 103.462 386.906 103.864 386.642 104.38C386.39 104.884 386.264 105.46 386.264 106.108C386.264 106.744 386.39 107.32 386.642 107.836C386.906 108.352 387.26 108.76 387.704 109.06C388.148 109.348 388.658 109.492 389.234 109.492ZM395.805 110.5V101.716H397.119V103.516C397.347 102.904 397.671 102.43 398.091 102.094C398.523 101.746 399.015 101.572 399.567 101.572C399.723 101.572 399.867 101.584 399.999 101.608C400.131 101.62 400.263 101.65 400.395 101.698V102.886C400.251 102.838 400.095 102.802 399.927 102.778C399.771 102.742 399.621 102.724 399.477 102.724C398.937 102.724 398.463 102.88 398.055 103.192C397.659 103.504 397.347 103.942 397.119 104.506V110.5H395.805ZM409.052 110.68C408.332 110.68 407.666 110.572 407.054 110.356C406.442 110.128 405.92 109.804 405.488 109.384L406.19 108.52C406.718 108.904 407.204 109.186 407.648 109.366C408.092 109.534 408.548 109.618 409.016 109.618C409.652 109.618 410.18 109.468 410.6 109.168C411.02 108.868 411.23 108.484 411.23 108.016C411.23 107.656 411.104 107.374 410.852 107.17C410.612 106.966 410.21 106.81 409.646 106.702L408.206 106.45C407.354 106.294 406.724 106.03 406.316 105.658C405.92 105.286 405.722 104.782 405.722 104.146C405.722 103.642 405.854 103.198 406.118 102.814C406.394 102.43 406.772 102.13 407.252 101.914C407.732 101.686 408.278 101.572 408.89 101.572C409.49 101.572 410.06 101.662 410.6 101.842C411.14 102.01 411.686 102.286 412.238 102.67L411.59 103.588C411.134 103.264 410.678 103.03 410.222 102.886C409.766 102.73 409.304 102.652 408.836 102.652C408.26 102.652 407.798 102.778 407.45 103.03C407.102 103.282 406.928 103.624 406.928 104.056C406.928 104.416 407.036 104.692 407.252 104.884C407.48 105.076 407.876 105.22 408.44 105.316L409.916 105.586C410.804 105.742 411.452 106.012 411.86 106.396C412.268 106.78 412.472 107.296 412.472 107.944C412.472 108.46 412.322 108.928 412.022 109.348C411.722 109.756 411.314 110.08 410.798 110.32C410.282 110.56 409.7 110.68 409.052 110.68ZM414.455 110.5V101.716H415.769V110.5H414.455ZM415.121 99.538C414.857 99.538 414.629 99.448 414.437 99.268C414.257 99.076 414.167 98.854 414.167 98.602C414.167 98.35 414.257 98.134 414.437 97.954C414.629 97.762 414.857 97.666 415.121 97.666C415.385 97.666 415.607 97.762 415.787 97.954C415.979 98.134 416.075 98.35 416.075 98.602C416.075 98.854 415.979 99.076 415.787 99.268C415.607 99.448 415.385 99.538 415.121 99.538ZM421.811 110.68C421.055 110.68 420.479 110.5 420.083 110.14C419.699 109.768 419.507 109.234 419.507 108.538V102.796H417.689V101.716H419.507V99.304L420.821 98.998V101.716H423.341V102.796H420.821V108.196C420.821 108.664 420.917 109 421.109 109.204C421.313 109.408 421.643 109.51 422.099 109.51C422.327 109.51 422.531 109.492 422.711 109.456C422.891 109.42 423.101 109.36 423.341 109.276V110.446C423.101 110.53 422.849 110.59 422.585 110.626C422.321 110.662 422.063 110.68 421.811 110.68ZM432.185 110.662C431.561 110.662 431.009 110.548 430.529 110.32C430.049 110.092 429.671 109.78 429.395 109.384C429.131 108.976 428.999 108.508 428.999 107.98C428.999 107.452 429.137 106.996 429.413 106.612C429.689 106.216 430.073 105.91 430.565 105.694C431.057 105.478 431.633 105.37 432.293 105.37C432.797 105.37 433.271 105.424 433.715 105.532C434.171 105.64 434.591 105.814 434.975 106.054V104.848C434.975 104.128 434.783 103.588 434.399 103.228C434.015 102.856 433.451 102.67 432.707 102.67C432.299 102.67 431.879 102.73 431.447 102.85C431.027 102.97 430.559 103.162 430.043 103.426L429.557 102.418C430.733 101.854 431.837 101.572 432.869 101.572C433.961 101.572 434.801 101.842 435.389 102.382C435.977 102.91 436.271 103.672 436.271 104.668V110.5H434.975V109.474C434.591 109.87 434.165 110.17 433.697 110.374C433.229 110.566 432.725 110.662 432.185 110.662ZM430.259 107.944C430.259 108.46 430.457 108.874 430.853 109.186C431.261 109.498 431.795 109.654 432.455 109.654C432.947 109.654 433.397 109.57 433.805 109.402C434.225 109.234 434.615 108.982 434.975 108.646V106.954C434.603 106.738 434.219 106.582 433.823 106.486C433.427 106.378 432.983 106.324 432.491 106.324C431.819 106.324 431.279 106.474 430.871 106.774C430.463 107.062 430.259 107.452 430.259 107.944ZM438.942 110.5V101.716H440.256V103.084C440.592 102.58 440.976 102.202 441.408 101.95C441.84 101.698 442.326 101.572 442.866 101.572C443.49 101.572 444.036 101.728 444.504 102.04C444.972 102.34 445.326 102.754 445.566 103.282C445.914 102.718 446.328 102.292 446.808 102.004C447.3 101.716 447.864 101.572 448.5 101.572C449.088 101.572 449.604 101.71 450.048 101.986C450.504 102.262 450.858 102.646 451.11 103.138C451.362 103.618 451.488 104.182 451.488 104.83V110.5H450.174V105.154C450.174 104.386 449.982 103.78 449.598 103.336C449.214 102.892 448.686 102.67 448.014 102.67C447.558 102.67 447.144 102.784 446.772 103.012C446.412 103.24 446.094 103.588 445.818 104.056C445.842 104.176 445.86 104.302 445.872 104.434C445.884 104.566 445.89 104.698 445.89 104.83V110.5H444.576V105.154C444.576 104.386 444.378 103.78 443.982 103.336C443.598 102.892 443.07 102.67 442.398 102.67C441.498 102.67 440.784 103.102 440.256 103.966V110.5H438.942ZM458.107 110.68C457.291 110.68 456.553 110.482 455.893 110.086C455.233 109.678 454.711 109.132 454.327 108.448C453.943 107.752 453.751 106.972 453.751 106.108C453.751 105.244 453.931 104.47 454.291 103.786C454.663 103.102 455.161 102.562 455.785 102.166C456.409 101.77 457.105 101.572 457.873 101.572C458.653 101.572 459.343 101.77 459.943 102.166C460.555 102.55 461.035 103.078 461.383 103.75C461.743 104.41 461.923 105.16 461.923 106V106.396H455.029C455.077 106.996 455.239 107.536 455.515 108.016C455.803 108.484 456.175 108.856 456.631 109.132C457.099 109.396 457.609 109.528 458.161 109.528C458.617 109.528 459.055 109.45 459.475 109.294C459.907 109.126 460.273 108.904 460.573 108.628L461.401 109.51C460.897 109.906 460.375 110.2 459.835 110.392C459.295 110.584 458.719 110.68 458.107 110.68ZM455.065 105.46H460.627C460.567 104.932 460.405 104.464 460.141 104.056C459.889 103.636 459.565 103.306 459.169 103.066C458.785 102.826 458.353 102.706 457.873 102.706C457.393 102.706 456.955 102.826 456.559 103.066C456.163 103.294 455.833 103.618 455.569 104.038C455.317 104.446 455.149 104.92 455.065 105.46ZM467.251 110.68C466.495 110.68 465.919 110.5 465.523 110.14C465.139 109.768 464.947 109.234 464.947 108.538V102.796H463.129V101.716H464.947V99.304L466.261 98.998V101.716H468.781V102.796H466.261V108.196C466.261 108.664 466.357 109 466.549 109.204C466.753 109.408 467.083 109.51 467.539 109.51C467.767 109.51 467.971 109.492 468.151 109.456C468.331 109.42 468.541 109.36 468.781 109.276V110.446C468.541 110.53 468.289 110.59 468.025 110.626C467.761 110.662 467.503 110.68 467.251 110.68ZM470.255 113.326L471.335 109.168H472.739L471.281 113.326H470.255ZM483.349 110.644C482.533 110.644 481.795 110.446 481.135 110.05C480.487 109.642 479.971 109.096 479.587 108.412C479.203 107.716 479.011 106.948 479.011 106.108C479.011 105.256 479.203 104.488 479.587 103.804C479.971 103.12 480.487 102.58 481.135 102.184C481.795 101.776 482.533 101.572 483.349 101.572C483.997 101.572 484.615 101.692 485.203 101.932C485.791 102.172 486.301 102.508 486.733 102.94L485.887 103.858C485.575 103.51 485.197 103.24 484.753 103.048C484.309 102.856 483.859 102.76 483.403 102.76C482.827 102.76 482.305 102.91 481.837 103.21C481.381 103.51 481.015 103.912 480.739 104.416C480.463 104.92 480.325 105.484 480.325 106.108C480.325 106.732 480.463 107.296 480.739 107.8C481.015 108.304 481.381 108.706 481.837 109.006C482.305 109.306 482.827 109.456 483.403 109.456C483.859 109.456 484.309 109.36 484.753 109.168C485.197 108.964 485.575 108.694 485.887 108.358L486.733 109.276C486.301 109.708 485.791 110.044 485.203 110.284C484.615 110.524 483.997 110.644 483.349 110.644ZM492.189 110.644C491.373 110.644 490.641 110.446 489.993 110.05C489.345 109.654 488.835 109.114 488.463 108.43C488.091 107.746 487.905 106.972 487.905 106.108C487.905 105.244 488.091 104.47 488.463 103.786C488.835 103.102 489.345 102.562 489.993 102.166C490.641 101.77 491.373 101.572 492.189 101.572C492.993 101.572 493.713 101.77 494.349 102.166C494.997 102.562 495.507 103.102 495.879 103.786C496.251 104.47 496.437 105.244 496.437 106.108C496.437 106.972 496.251 107.746 495.879 108.43C495.507 109.114 494.997 109.654 494.349 110.05C493.713 110.446 492.993 110.644 492.189 110.644ZM492.171 109.492C492.747 109.492 493.257 109.348 493.701 109.06C494.145 108.76 494.493 108.352 494.745 107.836C495.009 107.32 495.141 106.744 495.141 106.108C495.141 105.46 495.009 104.884 494.745 104.38C494.493 103.864 494.145 103.462 493.701 103.174C493.257 102.874 492.747 102.724 492.171 102.724C491.595 102.724 491.085 102.874 490.641 103.174C490.197 103.462 489.843 103.864 489.579 104.38C489.327 104.884 489.201 105.46 489.201 106.108C489.201 106.744 489.327 107.32 489.579 107.836C489.843 108.352 490.197 108.76 490.641 109.06C491.085 109.348 491.595 109.492 492.171 109.492ZM498.743 110.5V101.716H500.057V103.138C500.393 102.61 500.795 102.22 501.263 101.968C501.731 101.704 502.259 101.572 502.847 101.572C503.483 101.572 504.035 101.71 504.503 101.986C504.983 102.25 505.355 102.628 505.619 103.12C505.895 103.6 506.033 104.164 506.033 104.812V110.5H504.719V105.19C504.719 104.41 504.503 103.798 504.071 103.354C503.651 102.898 503.081 102.67 502.361 102.67C501.881 102.67 501.443 102.784 501.047 103.012C500.651 103.24 500.321 103.576 500.057 104.02V110.5H498.743ZM511.392 110.68C510.672 110.68 510.006 110.572 509.394 110.356C508.782 110.128 508.26 109.804 507.828 109.384L508.53 108.52C509.058 108.904 509.544 109.186 509.988 109.366C510.432 109.534 510.888 109.618 511.356 109.618C511.992 109.618 512.52 109.468 512.94 109.168C513.36 108.868 513.57 108.484 513.57 108.016C513.57 107.656 513.444 107.374 513.192 107.17C512.952 106.966 512.55 106.81 511.986 106.702L510.546 106.45C509.694 106.294 509.064 106.03 508.656 105.658C508.26 105.286 508.062 104.782 508.062 104.146C508.062 103.642 508.194 103.198 508.458 102.814C508.734 102.43 509.112 102.13 509.592 101.914C510.072 101.686 510.618 101.572 511.23 101.572C511.83 101.572 512.4 101.662 512.94 101.842C513.48 102.01 514.026 102.286 514.578 102.67L513.93 103.588C513.474 103.264 513.018 103.03 512.562 102.886C512.106 102.73 511.644 102.652 511.176 102.652C510.6 102.652 510.138 102.778 509.79 103.03C509.442 103.282 509.268 103.624 509.268 104.056C509.268 104.416 509.376 104.692 509.592 104.884C509.82 105.076 510.216 105.22 510.78 105.316L512.256 105.586C513.144 105.742 513.792 106.012 514.2 106.396C514.608 106.78 514.812 107.296 514.812 107.944C514.812 108.46 514.662 108.928 514.362 109.348C514.062 109.756 513.654 110.08 513.138 110.32C512.622 110.56 512.04 110.68 511.392 110.68ZM520.861 110.68C520.045 110.68 519.307 110.482 518.647 110.086C517.987 109.678 517.465 109.132 517.081 108.448C516.697 107.752 516.505 106.972 516.505 106.108C516.505 105.244 516.685 104.47 517.045 103.786C517.417 103.102 517.915 102.562 518.539 102.166C519.163 101.77 519.859 101.572 520.627 101.572C521.407 101.572 522.097 101.77 522.697 102.166C523.309 102.55 523.789 103.078 524.137 103.75C524.497 104.41 524.677 105.16 524.677 106V106.396H517.783C517.831 106.996 517.993 107.536 518.269 108.016C518.557 108.484 518.929 108.856 519.385 109.132C519.853 109.396 520.363 109.528 520.915 109.528C521.371 109.528 521.809 109.45 522.229 109.294C522.661 109.126 523.027 108.904 523.327 108.628L524.155 109.51C523.651 109.906 523.129 110.2 522.589 110.392C522.049 110.584 521.473 110.68 520.861 110.68ZM517.819 105.46H523.381C523.321 104.932 523.159 104.464 522.895 104.056C522.643 103.636 522.319 103.306 521.923 103.066C521.539 102.826 521.107 102.706 520.627 102.706C520.147 102.706 519.709 102.826 519.313 103.066C518.917 103.294 518.587 103.618 518.323 104.038C518.071 104.446 517.903 104.92 517.819 105.46ZM530.862 110.644C530.046 110.644 529.308 110.446 528.648 110.05C528 109.642 527.484 109.096 527.1 108.412C526.716 107.716 526.524 106.948 526.524 106.108C526.524 105.256 526.716 104.488 527.1 103.804C527.484 103.12 528 102.58 528.648 102.184C529.308 101.776 530.046 101.572 530.862 101.572C531.51 101.572 532.128 101.692 532.716 101.932C533.304 102.172 533.814 102.508 534.246 102.94L533.4 103.858C533.088 103.51 532.71 103.24 532.266 103.048C531.822 102.856 531.372 102.76 530.916 102.76C530.34 102.76 529.818 102.91 529.35 103.21C528.894 103.51 528.528 103.912 528.252 104.416C527.976 104.92 527.838 105.484 527.838 106.108C527.838 106.732 527.976 107.296 528.252 107.8C528.528 108.304 528.894 108.706 529.35 109.006C529.818 109.306 530.34 109.456 530.916 109.456C531.372 109.456 531.822 109.36 532.266 109.168C532.71 108.964 533.088 108.694 533.4 108.358L534.246 109.276C533.814 109.708 533.304 110.044 532.716 110.284C532.128 110.524 531.51 110.644 530.862 110.644ZM539.602 110.68C538.846 110.68 538.27 110.5 537.874 110.14C537.49 109.768 537.298 109.234 537.298 108.538V102.796H535.48V101.716H537.298V99.304L538.612 98.998V101.716H541.132V102.796H538.612V108.196C538.612 108.664 538.708 109 538.9 109.204C539.104 109.408 539.434 109.51 539.89 109.51C540.118 109.51 540.322 109.492 540.502 109.456C540.682 109.42 540.892 109.36 541.132 109.276V110.446C540.892 110.53 540.64 110.59 540.376 110.626C540.112 110.662 539.854 110.68 539.602 110.68ZM546.841 110.68C546.025 110.68 545.287 110.482 544.627 110.086C543.967 109.678 543.445 109.132 543.061 108.448C542.677 107.752 542.485 106.972 542.485 106.108C542.485 105.244 542.665 104.47 543.025 103.786C543.397 103.102 543.895 102.562 544.519 102.166C545.143 101.77 545.839 101.572 546.607 101.572C547.387 101.572 548.077 101.77 548.677 102.166C549.289 102.55 549.769 103.078 550.117 103.75C550.477 104.41 550.657 105.16 550.657 106V106.396H543.763C543.811 106.996 543.973 107.536 544.249 108.016C544.537 108.484 544.909 108.856 545.365 109.132C545.833 109.396 546.343 109.528 546.895 109.528C547.351 109.528 547.789 109.45 548.209 109.294C548.641 109.126 549.007 108.904 549.307 108.628L550.135 109.51C549.631 109.906 549.109 110.2 548.569 110.392C548.029 110.584 547.453 110.68 546.841 110.68ZM543.799 105.46H549.361C549.301 104.932 549.139 104.464 548.875 104.056C548.623 103.636 548.299 103.306 547.903 103.066C547.519 102.826 547.087 102.706 546.607 102.706C546.127 102.706 545.689 102.826 545.293 103.066C544.897 103.294 544.567 103.618 544.303 104.038C544.051 104.446 543.883 104.92 543.799 105.46ZM555.985 110.68C555.229 110.68 554.653 110.5 554.257 110.14C553.873 109.768 553.681 109.234 553.681 108.538V102.796H551.863V101.716H553.681V99.304L554.995 98.998V101.716H557.515V102.796H554.995V108.196C554.995 108.664 555.091 109 555.283 109.204C555.487 109.408 555.817 109.51 556.273 109.51C556.501 109.51 556.705 109.492 556.885 109.456C557.065 109.42 557.275 109.36 557.515 109.276V110.446C557.275 110.53 557.023 110.59 556.759 110.626C556.495 110.662 556.237 110.68 555.985 110.68ZM562.572 110.644C561.948 110.644 561.396 110.506 560.916 110.23C560.436 109.954 560.058 109.57 559.782 109.078C559.518 108.586 559.386 108.022 559.386 107.386V101.716H560.718V107.008C560.718 107.788 560.928 108.406 561.348 108.862C561.768 109.318 562.338 109.546 563.058 109.546C563.55 109.546 563.988 109.432 564.372 109.204C564.768 108.976 565.098 108.646 565.362 108.214V101.716H566.676V110.5H565.362V109.078C565.026 109.594 564.624 109.984 564.156 110.248C563.7 110.512 563.172 110.644 562.572 110.644ZM569.371 110.5V101.716H570.685V103.516C570.913 102.904 571.237 102.43 571.657 102.094C572.089 101.746 572.581 101.572 573.133 101.572C573.289 101.572 573.433 101.584 573.565 101.608C573.697 101.62 573.829 101.65 573.961 101.698V102.886C573.817 102.838 573.661 102.802 573.493 102.778C573.337 102.742 573.187 102.724 573.043 102.724C572.503 102.724 572.029 102.88 571.621 103.192C571.225 103.504 570.913 103.942 570.685 104.506V110.5H569.371ZM582.619 110.662C581.995 110.662 581.443 110.548 580.963 110.32C580.483 110.092 580.105 109.78 579.829 109.384C579.565 108.976 579.433 108.508 579.433 107.98C579.433 107.452 579.571 106.996 579.847 106.612C580.123 106.216 580.507 105.91 580.999 105.694C581.491 105.478 582.067 105.37 582.727 105.37C583.231 105.37 583.705 105.424 584.149 105.532C584.605 105.64 585.025 105.814 585.409 106.054V104.848C585.409 104.128 585.217 103.588 584.833 103.228C584.449 102.856 583.885 102.67 583.141 102.67C582.733 102.67 582.313 102.73 581.881 102.85C581.461 102.97 580.993 103.162 580.477 103.426L579.991 102.418C581.167 101.854 582.271 101.572 583.303 101.572C584.395 101.572 585.235 101.842 585.823 102.382C586.411 102.91 586.705 103.672 586.705 104.668V110.5H585.409V109.474C585.025 109.87 584.599 110.17 584.131 110.374C583.663 110.566 583.159 110.662 582.619 110.662ZM580.693 107.944C580.693 108.46 580.891 108.874 581.287 109.186C581.695 109.498 582.229 109.654 582.889 109.654C583.381 109.654 583.831 109.57 584.239 109.402C584.659 109.234 585.049 108.982 585.409 108.646V106.954C585.037 106.738 584.653 106.582 584.257 106.486C583.861 106.378 583.417 106.324 582.925 106.324C582.253 106.324 581.713 106.474 581.305 106.774C580.897 107.062 580.693 107.452 580.693 107.944ZM593.029 110.626C592.273 110.626 591.589 110.428 590.977 110.032C590.365 109.624 589.879 109.084 589.519 108.412C589.159 107.728 588.979 106.966 588.979 106.126C588.979 105.274 589.159 104.512 589.519 103.84C589.891 103.156 590.389 102.616 591.013 102.22C591.637 101.812 592.333 101.608 593.101 101.608C593.641 101.608 594.145 101.716 594.613 101.932C595.081 102.136 595.489 102.436 595.837 102.832V97.504L597.151 97.234V110.5H595.837V109.33C595.501 109.75 595.093 110.074 594.613 110.302C594.133 110.518 593.605 110.626 593.029 110.626ZM593.353 109.474C593.869 109.474 594.343 109.372 594.775 109.168C595.207 108.964 595.561 108.676 595.837 108.304V103.948C595.549 103.576 595.183 103.288 594.739 103.084C594.307 102.868 593.845 102.76 593.353 102.76C592.765 102.76 592.237 102.904 591.769 103.192C591.313 103.48 590.947 103.876 590.671 104.38C590.407 104.884 590.275 105.46 590.275 106.108C590.275 106.744 590.407 107.32 590.671 107.836C590.947 108.34 591.313 108.742 591.769 109.042C592.237 109.33 592.765 109.474 593.353 109.474ZM599.834 110.5V101.716H601.148V110.5H599.834ZM600.5 99.538C600.236 99.538 600.008 99.448 599.816 99.268C599.636 99.076 599.546 98.854 599.546 98.602C599.546 98.35 599.636 98.134 599.816 97.954C600.008 97.762 600.236 97.666 600.5 97.666C600.764 97.666 600.986 97.762 601.166 97.954C601.358 98.134 601.454 98.35 601.454 98.602C601.454 98.854 601.358 99.076 601.166 99.268C600.986 99.448 600.764 99.538 600.5 99.538ZM603.842 114.262V101.716H605.138V102.976C605.474 102.532 605.882 102.196 606.362 101.968C606.854 101.728 607.394 101.608 607.982 101.608C608.75 101.608 609.434 101.812 610.034 102.22C610.646 102.616 611.132 103.156 611.492 103.84C611.852 104.512 612.032 105.268 612.032 106.108C612.032 106.948 611.846 107.71 611.474 108.394C611.114 109.078 610.622 109.624 609.998 110.032C609.386 110.428 608.69 110.626 607.91 110.626C607.358 110.626 606.848 110.524 606.38 110.32C605.912 110.104 605.504 109.798 605.156 109.402V114.262H603.842ZM607.658 109.492C608.246 109.492 608.768 109.348 609.224 109.06C609.692 108.76 610.058 108.358 610.322 107.854C610.598 107.338 610.736 106.762 610.736 106.126C610.736 105.478 610.598 104.902 610.322 104.398C610.058 103.894 609.692 103.498 609.224 103.21C608.768 102.91 608.246 102.76 607.658 102.76C607.142 102.76 606.662 102.868 606.218 103.084C605.786 103.288 605.432 103.582 605.156 103.966V108.268C605.444 108.652 605.804 108.952 606.236 109.168C606.68 109.384 607.154 109.492 607.658 109.492ZM614.318 110.5V101.716H615.632V110.5H614.318ZM614.984 99.538C614.72 99.538 614.492 99.448 614.3 99.268C614.12 99.076 614.03 98.854 614.03 98.602C614.03 98.35 614.12 98.134 614.3 97.954C614.492 97.762 614.72 97.666 614.984 97.666C615.248 97.666 615.47 97.762 615.65 97.954C615.842 98.134 615.938 98.35 615.938 98.602C615.938 98.854 615.842 99.076 615.65 99.268C615.47 99.448 615.248 99.538 614.984 99.538ZM621.045 110.68C620.325 110.68 619.659 110.572 619.047 110.356C618.435 110.128 617.913 109.804 617.481 109.384L618.183 108.52C618.711 108.904 619.197 109.186 619.641 109.366C620.085 109.534 620.541 109.618 621.009 109.618C621.645 109.618 622.173 109.468 622.593 109.168C623.013 108.868 623.223 108.484 623.223 108.016C623.223 107.656 623.097 107.374 622.845 107.17C622.605 106.966 622.203 106.81 621.639 106.702L620.199 106.45C619.347 106.294 618.717 106.03 618.309 105.658C617.913 105.286 617.715 104.782 617.715 104.146C617.715 103.642 617.847 103.198 618.111 102.814C618.387 102.43 618.765 102.13 619.245 101.914C619.725 101.686 620.271 101.572 620.883 101.572C621.483 101.572 622.053 101.662 622.593 101.842C623.133 102.01 623.679 102.286 624.231 102.67L623.583 103.588C623.127 103.264 622.671 103.03 622.215 102.886C621.759 102.73 621.297 102.652 620.829 102.652C620.253 102.652 619.791 102.778 619.443 103.03C619.095 103.282 618.921 103.624 618.921 104.056C618.921 104.416 619.029 104.692 619.245 104.884C619.473 105.076 619.869 105.22 620.433 105.316L621.909 105.586C622.797 105.742 623.445 106.012 623.853 106.396C624.261 106.78 624.465 107.296 624.465 107.944C624.465 108.46 624.315 108.928 624.015 109.348C623.715 109.756 623.307 110.08 622.791 110.32C622.275 110.56 621.693 110.68 621.045 110.68ZM630.495 110.644C629.679 110.644 628.941 110.446 628.281 110.05C627.633 109.642 627.117 109.096 626.733 108.412C626.349 107.716 626.157 106.948 626.157 106.108C626.157 105.256 626.349 104.488 626.733 103.804C627.117 103.12 627.633 102.58 628.281 102.184C628.941 101.776 629.679 101.572 630.495 101.572C631.143 101.572 631.761 101.692 632.349 101.932C632.937 102.172 633.447 102.508 633.879 102.94L633.033 103.858C632.721 103.51 632.343 103.24 631.899 103.048C631.455 102.856 631.005 102.76 630.549 102.76C629.973 102.76 629.451 102.91 628.983 103.21C628.527 103.51 628.161 103.912 627.885 104.416C627.609 104.92 627.471 105.484 627.471 106.108C627.471 106.732 627.609 107.296 627.885 107.8C628.161 108.304 628.527 108.706 628.983 109.006C629.451 109.306 629.973 109.456 630.549 109.456C631.005 109.456 631.455 109.36 631.899 109.168C632.343 108.964 632.721 108.694 633.033 108.358L633.879 109.276C633.447 109.708 632.937 110.044 632.349 110.284C631.761 110.524 631.143 110.644 630.495 110.644ZM635.693 110.5V101.716H637.007V110.5H635.693ZM636.359 99.538C636.095 99.538 635.867 99.448 635.675 99.268C635.495 99.076 635.405 98.854 635.405 98.602C635.405 98.35 635.495 98.134 635.675 97.954C635.867 97.762 636.095 97.666 636.359 97.666C636.623 97.666 636.845 97.762 637.025 97.954C637.217 98.134 637.313 98.35 637.313 98.602C637.313 98.854 637.217 99.076 637.025 99.268C636.845 99.448 636.623 99.538 636.359 99.538ZM639.702 110.5V101.716H641.016V103.138C641.352 102.61 641.754 102.22 642.222 101.968C642.69 101.704 643.218 101.572 643.806 101.572C644.442 101.572 644.994 101.71 645.462 101.986C645.942 102.25 646.314 102.628 646.578 103.12C646.854 103.6 646.992 104.164 646.992 104.812V110.5H645.678V105.19C645.678 104.41 645.462 103.798 645.03 103.354C644.61 102.898 644.04 102.67 643.32 102.67C642.84 102.67 642.402 102.784 642.006 103.012C641.61 103.24 641.28 103.576 641.016 104.02V110.5H639.702ZM653.701 114.442C653.113 114.442 652.519 114.358 651.919 114.19C651.331 114.034 650.785 113.812 650.281 113.524L650.839 112.516C651.379 112.792 651.871 112.996 652.315 113.128C652.759 113.26 653.203 113.326 653.647 113.326C654.451 113.326 655.057 113.134 655.465 112.75C655.885 112.366 656.095 111.808 656.095 111.076V109.312C655.759 109.732 655.351 110.056 654.871 110.284C654.391 110.5 653.863 110.608 653.287 110.608C652.531 110.608 651.847 110.41 651.235 110.014C650.623 109.606 650.137 109.066 649.777 108.394C649.417 107.71 649.237 106.948 649.237 106.108C649.237 105.268 649.417 104.512 649.777 103.84C650.149 103.156 650.647 102.616 651.271 102.22C651.895 101.812 652.591 101.608 653.359 101.608C653.911 101.608 654.421 101.716 654.889 101.932C655.357 102.136 655.765 102.442 656.113 102.85V101.716H657.409V111.058C657.409 112.15 657.091 112.984 656.455 113.56C655.819 114.148 654.901 114.442 653.701 114.442ZM653.611 109.474C654.127 109.474 654.601 109.372 655.033 109.168C655.465 108.952 655.819 108.658 656.095 108.286V103.948C655.807 103.576 655.441 103.288 654.997 103.084C654.565 102.868 654.103 102.76 653.611 102.76C653.023 102.76 652.495 102.904 652.027 103.192C651.571 103.48 651.205 103.876 650.929 104.38C650.665 104.884 650.533 105.46 650.533 106.108C650.533 106.744 650.665 107.32 650.929 107.836C651.205 108.34 651.571 108.742 652.027 109.042C652.495 109.33 653.023 109.474 653.611 109.474ZM668.271 110.68C667.455 110.68 666.717 110.482 666.057 110.086C665.397 109.678 664.875 109.132 664.491 108.448C664.107 107.752 663.915 106.972 663.915 106.108C663.915 105.244 664.095 104.47 664.455 103.786C664.827 103.102 665.325 102.562 665.949 102.166C666.573 101.77 667.269 101.572 668.037 101.572C668.817 101.572 669.507 101.77 670.107 102.166C670.719 102.55 671.199 103.078 671.547 103.75C671.907 104.41 672.087 105.16 672.087 106V106.396H665.193C665.241 106.996 665.403 107.536 665.679 108.016C665.967 108.484 666.339 108.856 666.795 109.132C667.263 109.396 667.773 109.528 668.325 109.528C668.781 109.528 669.219 109.45 669.639 109.294C670.071 109.126 670.437 108.904 670.737 108.628L671.565 109.51C671.061 109.906 670.539 110.2 669.999 110.392C669.459 110.584 668.883 110.68 668.271 110.68ZM665.229 105.46H670.791C670.731 104.932 670.569 104.464 670.305 104.056C670.053 103.636 669.729 103.306 669.333 103.066C668.949 102.826 668.517 102.706 668.037 102.706C667.557 102.706 667.119 102.826 666.723 103.066C666.327 103.294 665.997 103.618 665.733 104.038C665.481 104.446 665.313 104.92 665.229 105.46ZM674.33 110.5V97.504L675.644 97.234V110.5H674.33ZM678.32 110.5V101.716H679.634V110.5H678.32ZM678.986 99.538C678.722 99.538 678.494 99.448 678.302 99.268C678.122 99.076 678.032 98.854 678.032 98.602C678.032 98.35 678.122 98.134 678.302 97.954C678.494 97.762 678.722 97.666 678.986 97.666C679.25 97.666 679.472 97.762 679.652 97.954C679.844 98.134 679.94 98.35 679.94 98.602C679.94 98.854 679.844 99.076 679.652 99.268C679.472 99.448 679.25 99.538 678.986 99.538ZM685.677 110.68C684.921 110.68 684.345 110.5 683.949 110.14C683.565 109.768 683.373 109.234 683.373 108.538V102.796H681.555V101.716H683.373V99.304L684.687 98.998V101.716H687.207V102.796H684.687V108.196C684.687 108.664 684.783 109 684.975 109.204C685.179 109.408 685.509 109.51 685.965 109.51C686.193 109.51 686.397 109.492 686.577 109.456C686.757 109.42 686.967 109.36 687.207 109.276V110.446C686.967 110.53 686.715 110.59 686.451 110.626C686.187 110.662 685.929 110.68 685.677 110.68ZM690.031 110.644C689.767 110.644 689.539 110.548 689.347 110.356C689.167 110.164 689.077 109.936 689.077 109.672C689.077 109.396 689.167 109.168 689.347 108.988C689.539 108.796 689.767 108.7 690.031 108.7C690.295 108.7 690.517 108.796 690.697 108.988C690.889 109.168 690.985 109.396 690.985 109.672C690.985 109.936 690.889 110.164 690.697 110.356C690.517 110.548 690.295 110.644 690.031 110.644Z" fill="#151515"/>
<path d="M732.344 110.68C731.408 110.68 730.532 110.518 729.716 110.194C728.9 109.858 728.186 109.396 727.574 108.808C726.974 108.22 726.5 107.536 726.152 106.756C725.816 105.964 725.648 105.112 725.648 104.2C725.648 103.276 725.816 102.424 726.152 101.644C726.5 100.852 726.98 100.162 727.592 99.574C728.204 98.986 728.912 98.53 729.716 98.206C730.532 97.87 731.408 97.702 732.344 97.702C733.04 97.702 733.712 97.798 734.36 97.99C735.008 98.182 735.608 98.452 736.16 98.8C736.724 99.148 737.204 99.568 737.6 100.06L735.836 101.806C735.38 101.242 734.852 100.816 734.252 100.528C733.664 100.24 733.028 100.096 732.344 100.096C731.78 100.096 731.252 100.204 730.76 100.42C730.268 100.624 729.842 100.912 729.482 101.284C729.122 101.644 728.84 102.076 728.636 102.58C728.432 103.072 728.33 103.612 728.33 104.2C728.33 104.776 728.432 105.316 728.636 105.82C728.84 106.312 729.128 106.744 729.5 107.116C729.872 107.476 730.304 107.758 730.796 107.962C731.3 108.166 731.846 108.268 732.434 108.268C733.094 108.268 733.712 108.13 734.288 107.854C734.864 107.578 735.374 107.182 735.818 106.666L737.528 108.358C737.132 108.838 736.658 109.252 736.106 109.6C735.554 109.948 734.954 110.218 734.306 110.41C733.67 110.59 733.016 110.68 732.344 110.68ZM741.88 110.662C741.208 110.662 740.614 110.542 740.098 110.302C739.582 110.05 739.18 109.708 738.892 109.276C738.604 108.844 738.46 108.346 738.46 107.782C738.46 106.882 738.796 106.186 739.468 105.694C740.152 105.19 741.088 104.938 742.276 104.938C743.092 104.938 743.86 105.064 744.58 105.316V104.632C744.58 104.092 744.412 103.684 744.076 103.408C743.74 103.132 743.248 102.994 742.6 102.994C742.204 102.994 741.778 103.06 741.322 103.192C740.866 103.312 740.338 103.504 739.738 103.768L738.838 101.95C739.582 101.614 740.29 101.362 740.962 101.194C741.646 101.026 742.33 100.942 743.014 100.942C744.274 100.942 745.252 101.248 745.948 101.86C746.656 102.46 747.01 103.312 747.01 104.416V110.5H744.58V109.834C744.196 110.122 743.782 110.332 743.338 110.464C742.894 110.596 742.408 110.662 741.88 110.662ZM740.8 107.728C740.8 108.088 740.956 108.376 741.268 108.592C741.58 108.796 741.994 108.898 742.51 108.898C742.918 108.898 743.296 108.85 743.644 108.754C743.992 108.646 744.304 108.49 744.58 108.286V106.918C744.28 106.798 743.968 106.708 743.644 106.648C743.32 106.588 742.972 106.558 742.6 106.558C742.036 106.558 741.592 106.666 741.268 106.882C740.956 107.086 740.8 107.368 740.8 107.728ZM748.876 110.5V97.9L751.342 97.486V110.5H748.876ZM753.271 110.5V97.9L755.737 97.486V110.5H753.271ZM765.732 110.644C764.688 110.644 763.896 110.41 763.356 109.942C762.828 109.462 762.564 108.766 762.564 107.854V103.174H760.638V101.122H762.564V98.728L765.03 98.17V101.122H767.712V103.174H765.03V107.35C765.03 107.782 765.126 108.094 765.318 108.286C765.51 108.466 765.846 108.556 766.326 108.556C766.566 108.556 766.782 108.544 766.974 108.52C767.178 108.484 767.4 108.424 767.64 108.34V110.374C767.388 110.458 767.07 110.524 766.686 110.572C766.314 110.62 765.996 110.644 765.732 110.644ZM773.382 110.68C772.446 110.68 771.6 110.464 770.844 110.032C770.088 109.6 769.488 109.018 769.044 108.286C768.6 107.554 768.378 106.732 768.378 105.82C768.378 104.908 768.594 104.086 769.026 103.354C769.47 102.61 770.07 102.022 770.826 101.59C771.594 101.158 772.446 100.942 773.382 100.942C774.318 100.942 775.164 101.158 775.92 101.59C776.688 102.022 777.288 102.61 777.72 103.354C778.164 104.086 778.386 104.908 778.386 105.82C778.386 106.732 778.164 107.554 777.72 108.286C777.288 109.018 776.694 109.6 775.938 110.032C775.182 110.464 774.33 110.68 773.382 110.68ZM773.382 108.538C773.874 108.538 774.312 108.418 774.696 108.178C775.092 107.938 775.404 107.614 775.632 107.206C775.872 106.786 775.992 106.324 775.992 105.82C775.992 105.304 775.872 104.842 775.632 104.434C775.404 104.026 775.092 103.702 774.696 103.462C774.312 103.21 773.874 103.084 773.382 103.084C772.902 103.084 772.464 103.21 772.068 103.462C771.672 103.702 771.36 104.026 771.132 104.434C770.904 104.842 770.79 105.304 770.79 105.82C770.79 106.324 770.904 106.786 771.132 107.206C771.36 107.614 771.672 107.938 772.068 108.178C772.464 108.418 772.902 108.538 773.382 108.538ZM786.511 110.662C785.839 110.662 785.245 110.542 784.729 110.302C784.213 110.05 783.811 109.708 783.523 109.276C783.235 108.844 783.091 108.346 783.091 107.782C783.091 106.882 783.427 106.186 784.099 105.694C784.783 105.19 785.719 104.938 786.907 104.938C787.723 104.938 788.491 105.064 789.211 105.316V104.632C789.211 104.092 789.043 103.684 788.707 103.408C788.371 103.132 787.879 102.994 787.231 102.994C786.835 102.994 786.409 103.06 785.953 103.192C785.497 103.312 784.969 103.504 784.369 103.768L783.469 101.95C784.213 101.614 784.921 101.362 785.593 101.194C786.277 101.026 786.961 100.942 787.645 100.942C788.905 100.942 789.883 101.248 790.579 101.86C791.287 102.46 791.641 103.312 791.641 104.416V110.5H789.211V109.834C788.827 110.122 788.413 110.332 787.969 110.464C787.525 110.596 787.039 110.662 786.511 110.662ZM785.431 107.728C785.431 108.088 785.587 108.376 785.899 108.592C786.211 108.796 786.625 108.898 787.141 108.898C787.549 108.898 787.927 108.85 788.275 108.754C788.623 108.646 788.935 108.49 789.211 108.286V106.918C788.911 106.798 788.599 106.708 788.275 106.648C787.951 106.588 787.603 106.558 787.231 106.558C786.667 106.558 786.223 106.666 785.899 106.882C785.587 107.086 785.431 107.368 785.431 107.728ZM797.989 110.68C797.065 110.68 796.231 110.47 795.487 110.05C794.743 109.618 794.155 109.036 793.723 108.304C793.291 107.56 793.075 106.732 793.075 105.82C793.075 104.896 793.291 104.068 793.723 103.336C794.155 102.604 794.743 102.022 795.487 101.59C796.231 101.158 797.065 100.942 797.989 100.942C798.733 100.942 799.441 101.086 800.113 101.374C800.797 101.662 801.385 102.076 801.877 102.616L800.365 104.218C800.017 103.834 799.651 103.552 799.267 103.372C798.895 103.18 798.487 103.084 798.043 103.084C797.563 103.084 797.131 103.204 796.747 103.444C796.375 103.684 796.075 104.008 795.847 104.416C795.631 104.824 795.523 105.292 795.523 105.82C795.523 106.324 795.631 106.786 795.847 107.206C796.075 107.614 796.387 107.938 796.783 108.178C797.179 108.406 797.617 108.52 798.097 108.52C798.517 108.52 798.907 108.436 799.267 108.268C799.639 108.088 799.993 107.824 800.329 107.476L801.805 109.024C801.325 109.54 800.749 109.948 800.077 110.248C799.405 110.536 798.709 110.68 797.989 110.68ZM807.709 110.644C806.665 110.644 805.873 110.41 805.333 109.942C804.805 109.462 804.541 108.766 804.541 107.854V103.174H802.615V101.122H804.541V98.728L807.007 98.17V101.122H809.689V103.174H807.007V107.35C807.007 107.782 807.103 108.094 807.295 108.286C807.487 108.466 807.823 108.556 808.303 108.556C808.543 108.556 808.759 108.544 808.951 108.52C809.155 108.484 809.377 108.424 809.617 108.34V110.374C809.365 110.458 809.047 110.524 808.663 110.572C808.291 110.62 807.973 110.644 807.709 110.644ZM810.892 110.5V101.122H813.358V110.5H810.892ZM812.116 100.006C811.732 100.006 811.402 99.868 811.126 99.592C810.85 99.316 810.712 98.986 810.712 98.602C810.712 98.206 810.85 97.876 811.126 97.612C811.402 97.336 811.732 97.198 812.116 97.198C812.512 97.198 812.842 97.336 813.106 97.612C813.382 97.876 813.52 98.206 813.52 98.602C813.52 98.986 813.382 99.316 813.106 99.592C812.842 99.868 812.512 100.006 812.116 100.006ZM819.858 110.68C818.922 110.68 818.076 110.464 817.32 110.032C816.564 109.6 815.964 109.018 815.52 108.286C815.076 107.554 814.854 106.732 814.854 105.82C814.854 104.908 815.07 104.086 815.502 103.354C815.946 102.61 816.546 102.022 817.302 101.59C818.07 101.158 818.922 100.942 819.858 100.942C820.794 100.942 821.64 101.158 822.396 101.59C823.164 102.022 823.764 102.61 824.196 103.354C824.64 104.086 824.862 104.908 824.862 105.82C824.862 106.732 824.64 107.554 824.196 108.286C823.764 109.018 823.17 109.6 822.414 110.032C821.658 110.464 820.806 110.68 819.858 110.68ZM819.858 108.538C820.35 108.538 820.788 108.418 821.172 108.178C821.568 107.938 821.88 107.614 822.108 107.206C822.348 106.786 822.468 106.324 822.468 105.82C822.468 105.304 822.348 104.842 822.108 104.434C821.88 104.026 821.568 103.702 821.172 103.462C820.788 103.21 820.35 103.084 819.858 103.084C819.378 103.084 818.94 103.21 818.544 103.462C818.148 103.702 817.836 104.026 817.608 104.434C817.38 104.842 817.266 105.304 817.266 105.82C817.266 106.324 817.38 106.786 817.608 107.206C817.836 107.614 818.148 107.938 818.544 108.178C818.94 108.418 819.378 108.538 819.858 108.538ZM826.378 110.5V101.122H828.844V101.896C829.552 101.26 830.428 100.942 831.472 100.942C832.204 100.942 832.846 101.104 833.398 101.428C833.962 101.74 834.4 102.178 834.712 102.742C835.024 103.294 835.18 103.942 835.18 104.686V110.5H832.714V105.046C832.714 104.434 832.54 103.954 832.192 103.606C831.844 103.246 831.37 103.066 830.77 103.066C830.35 103.066 829.978 103.15 829.654 103.318C829.33 103.474 829.06 103.702 828.844 104.002V110.5H826.378Z" fill="#0066CC"/>
<g clip-path="url(#clip0_830_9519)">
<path d="M866.1 103.338L859.444 96.6813C859.2 96.4376 858.806 96.4376 858.563 96.6813C858.319 96.9251 858.319 97.3188 858.563 97.5626L864.369 103.369H848.381C848.038 103.369 847.756 103.65 847.756 103.994C847.756 104.338 848.038 104.619 848.381 104.619H864.375L858.569 110.425C858.325 110.669 858.325 111.063 858.569 111.306C858.694 111.431 858.85 111.488 859.013 111.488C859.175 111.488 859.331 111.425 859.456 111.306L866.113 104.65C866.475 104.288 866.475 103.688 866.113 103.325L866.1 103.338Z" fill="#0066CC"/>
</g>
<g clip-path="url(#clip1_830_9519)">
<path d="M1032.95 88L1036.68 84.2773C1036.94 84.0136 1036.94 83.5864 1036.68 83.3228C1036.41 83.0591 1035.99 83.0591 1035.72 83.3228L1032 87.0452L1028.28 83.3228C1028.01 83.0591 1027.59 83.0591 1027.32 83.3228C1027.06 83.5865 1027.06 84.0136 1027.32 84.2773L1031.05 88L1027.32 91.7225C1027.06 91.9862 1027.06 92.4139 1027.32 92.6776C1027.45 92.8094 1027.63 92.875 1027.8 92.875C1027.97 92.875 1028.15 92.8094 1028.28 92.6776L1032 88.9548L1035.72 92.6776C1035.85 92.8094 1036.03 92.875 1036.2 92.875C1036.37 92.875 1036.55 92.8094 1036.68 92.6776C1036.94 92.4139 1036.94 91.9862 1036.68 91.7225L1032.95 88Z" fill="#151515"/>
</g>
<rect width="992" height="80" transform="translate(64 176)" fill="#292929"/>
<path d="M252.602 222.5V209.9H253.988V221.276H261.098V222.5H252.602ZM266.715 222.644C265.899 222.644 265.167 222.446 264.519 222.05C263.871 221.654 263.361 221.114 262.989 220.43C262.617 219.746 262.431 218.972 262.431 218.108C262.431 217.244 262.617 216.47 262.989 215.786C263.361 215.102 263.871 214.562 264.519 214.166C265.167 213.77 265.899 213.572 266.715 213.572C267.519 213.572 268.239 213.77 268.875 214.166C269.523 214.562 270.033 215.102 270.405 215.786C270.777 216.47 270.963 217.244 270.963 218.108C270.963 218.972 270.777 219.746 270.405 220.43C270.033 221.114 269.523 221.654 268.875 222.05C268.239 222.446 267.519 222.644 266.715 222.644ZM266.697 221.492C267.273 221.492 267.783 221.348 268.227 221.06C268.671 220.76 269.019 220.352 269.271 219.836C269.535 219.32 269.667 218.744 269.667 218.108C269.667 217.46 269.535 216.884 269.271 216.38C269.019 215.864 268.671 215.462 268.227 215.174C267.783 214.874 267.273 214.724 266.697 214.724C266.121 214.724 265.611 214.874 265.167 215.174C264.723 215.462 264.369 215.864 264.105 216.38C263.853 216.884 263.727 217.46 263.727 218.108C263.727 218.744 263.853 219.32 264.105 219.836C264.369 220.352 264.723 220.76 265.167 221.06C265.611 221.348 266.121 221.492 266.697 221.492ZM273.268 222.5V213.716H274.582V215.516C274.81 214.904 275.134 214.43 275.554 214.094C275.986 213.746 276.478 213.572 277.03 213.572C277.186 213.572 277.33 213.584 277.462 213.608C277.594 213.62 277.726 213.65 277.858 213.698V214.886C277.714 214.838 277.558 214.802 277.39 214.778C277.234 214.742 277.084 214.724 276.94 214.724C276.4 214.724 275.926 214.88 275.518 215.192C275.122 215.504 274.81 215.942 274.582 216.506V222.5H273.268ZM283.011 222.68C282.195 222.68 281.457 222.482 280.797 222.086C280.137 221.678 279.615 221.132 279.231 220.448C278.847 219.752 278.655 218.972 278.655 218.108C278.655 217.244 278.835 216.47 279.195 215.786C279.567 215.102 280.065 214.562 280.689 214.166C281.313 213.77 282.009 213.572 282.777 213.572C283.557 213.572 284.247 213.77 284.847 214.166C285.459 214.55 285.939 215.078 286.287 215.75C286.647 216.41 286.827 217.16 286.827 218V218.396H279.933C279.981 218.996 280.143 219.536 280.419 220.016C280.707 220.484 281.079 220.856 281.535 221.132C282.003 221.396 282.513 221.528 283.065 221.528C283.521 221.528 283.959 221.45 284.379 221.294C284.811 221.126 285.177 220.904 285.477 220.628L286.305 221.51C285.801 221.906 285.279 222.2 284.739 222.392C284.199 222.584 283.623 222.68 283.011 222.68ZM279.969 217.46H285.531C285.471 216.932 285.309 216.464 285.045 216.056C284.793 215.636 284.469 215.306 284.073 215.066C283.689 214.826 283.257 214.706 282.777 214.706C282.297 214.706 281.859 214.826 281.463 215.066C281.067 215.294 280.737 215.618 280.473 216.038C280.221 216.446 280.053 216.92 279.969 217.46ZM289.071 222.5V213.716H290.385V215.084C290.721 214.58 291.105 214.202 291.537 213.95C291.969 213.698 292.455 213.572 292.995 213.572C293.619 213.572 294.165 213.728 294.633 214.04C295.101 214.34 295.455 214.754 295.695 215.282C296.043 214.718 296.457 214.292 296.937 214.004C297.429 213.716 297.993 213.572 298.629 213.572C299.217 213.572 299.733 213.71 300.177 213.986C300.633 214.262 300.987 214.646 301.239 215.138C301.491 215.618 301.617 216.182 301.617 216.83V222.5H300.303V217.154C300.303 216.386 300.111 215.78 299.727 215.336C299.343 214.892 298.815 214.67 298.143 214.67C297.687 214.67 297.273 214.784 296.901 215.012C296.541 215.24 296.223 215.588 295.947 216.056C295.971 216.176 295.989 216.302 296.001 216.434C296.013 216.566 296.019 216.698 296.019 216.83V222.5H294.705V217.154C294.705 216.386 294.507 215.78 294.111 215.336C293.727 214.892 293.199 214.67 292.527 214.67C291.627 214.67 290.913 215.102 290.385 215.966V222.5H289.071ZM308.459 222.5V213.716H309.773V222.5H308.459ZM309.125 211.538C308.861 211.538 308.633 211.448 308.441 211.268C308.261 211.076 308.171 210.854 308.171 210.602C308.171 210.35 308.261 210.134 308.441 209.954C308.633 209.762 308.861 209.666 309.125 209.666C309.389 209.666 309.611 209.762 309.791 209.954C309.983 210.134 310.079 210.35 310.079 210.602C310.079 210.854 309.983 211.076 309.791 211.268C309.611 211.448 309.389 211.538 309.125 211.538ZM312.467 226.262V213.716H313.763V214.976C314.099 214.532 314.507 214.196 314.987 213.968C315.479 213.728 316.019 213.608 316.607 213.608C317.375 213.608 318.059 213.812 318.659 214.22C319.271 214.616 319.757 215.156 320.117 215.84C320.477 216.512 320.657 217.268 320.657 218.108C320.657 218.948 320.471 219.71 320.099 220.394C319.739 221.078 319.247 221.624 318.623 222.032C318.011 222.428 317.315 222.626 316.535 222.626C315.983 222.626 315.473 222.524 315.005 222.32C314.537 222.104 314.129 221.798 313.781 221.402V226.262H312.467ZM316.283 221.492C316.871 221.492 317.393 221.348 317.849 221.06C318.317 220.76 318.683 220.358 318.947 219.854C319.223 219.338 319.361 218.762 319.361 218.126C319.361 217.478 319.223 216.902 318.947 216.398C318.683 215.894 318.317 215.498 317.849 215.21C317.393 214.91 316.871 214.76 316.283 214.76C315.767 214.76 315.287 214.868 314.843 215.084C314.411 215.288 314.057 215.582 313.781 215.966V220.268C314.069 220.652 314.429 220.952 314.861 221.168C315.305 221.384 315.779 221.492 316.283 221.492ZM325.679 222.68C324.959 222.68 324.293 222.572 323.681 222.356C323.069 222.128 322.547 221.804 322.115 221.384L322.817 220.52C323.345 220.904 323.831 221.186 324.275 221.366C324.719 221.534 325.175 221.618 325.643 221.618C326.279 221.618 326.807 221.468 327.227 221.168C327.647 220.868 327.857 220.484 327.857 220.016C327.857 219.656 327.731 219.374 327.479 219.17C327.239 218.966 326.837 218.81 326.273 218.702L324.833 218.45C323.981 218.294 323.351 218.03 322.943 217.658C322.547 217.286 322.349 216.782 322.349 216.146C322.349 215.642 322.481 215.198 322.745 214.814C323.021 214.43 323.399 214.13 323.879 213.914C324.359 213.686 324.905 213.572 325.517 213.572C326.117 213.572 326.687 213.662 327.227 213.842C327.767 214.01 328.313 214.286 328.865 214.67L328.217 215.588C327.761 215.264 327.305 215.03 326.849 214.886C326.393 214.73 325.931 214.652 325.463 214.652C324.887 214.652 324.425 214.778 324.077 215.03C323.729 215.282 323.555 215.624 323.555 216.056C323.555 216.416 323.663 216.692 323.879 216.884C324.107 217.076 324.503 217.22 325.067 217.316L326.543 217.586C327.431 217.742 328.079 218.012 328.487 218.396C328.895 218.78 329.099 219.296 329.099 219.944C329.099 220.46 328.949 220.928 328.649 221.348C328.349 221.756 327.941 222.08 327.425 222.32C326.909 222.56 326.327 222.68 325.679 222.68ZM334.232 222.644C333.608 222.644 333.056 222.506 332.576 222.23C332.096 221.954 331.718 221.57 331.442 221.078C331.178 220.586 331.046 220.022 331.046 219.386V213.716H332.378V219.008C332.378 219.788 332.588 220.406 333.008 220.862C333.428 221.318 333.998 221.546 334.718 221.546C335.21 221.546 335.648 221.432 336.032 221.204C336.428 220.976 336.758 220.646 337.022 220.214V213.716H338.336V222.5H337.022V221.078C336.686 221.594 336.284 221.984 335.816 222.248C335.36 222.512 334.832 222.644 334.232 222.644ZM341.032 222.5V213.716H342.346V215.084C342.682 214.58 343.066 214.202 343.498 213.95C343.93 213.698 344.416 213.572 344.956 213.572C345.58 213.572 346.126 213.728 346.594 214.04C347.062 214.34 347.416 214.754 347.656 215.282C348.004 214.718 348.418 214.292 348.898 214.004C349.39 213.716 349.954 213.572 350.59 213.572C351.178 213.572 351.694 213.71 352.138 213.986C352.594 214.262 352.948 214.646 353.2 215.138C353.452 215.618 353.578 216.182 353.578 216.83V222.5H352.264V217.154C352.264 216.386 352.072 215.78 351.688 215.336C351.304 214.892 350.776 214.67 350.104 214.67C349.648 214.67 349.234 214.784 348.862 215.012C348.502 215.24 348.184 215.588 347.908 216.056C347.932 216.176 347.95 216.302 347.962 216.434C347.974 216.566 347.98 216.698 347.98 216.83V222.5H346.666V217.154C346.666 216.386 346.468 215.78 346.072 215.336C345.688 214.892 345.16 214.67 344.488 214.67C343.588 214.67 342.874 215.102 342.346 215.966V222.5H341.032ZM364.092 222.626C363.336 222.626 362.652 222.428 362.04 222.032C361.428 221.624 360.942 221.084 360.582 220.412C360.222 219.728 360.042 218.966 360.042 218.126C360.042 217.274 360.222 216.512 360.582 215.84C360.954 215.156 361.452 214.616 362.076 214.22C362.7 213.812 363.396 213.608 364.164 213.608C364.704 213.608 365.208 213.716 365.676 213.932C366.144 214.136 366.552 214.436 366.9 214.832V209.504L368.214 209.234V222.5H366.9V221.33C366.564 221.75 366.156 222.074 365.676 222.302C365.196 222.518 364.668 222.626 364.092 222.626ZM364.416 221.474C364.932 221.474 365.406 221.372 365.838 221.168C366.27 220.964 366.624 220.676 366.9 220.304V215.948C366.612 215.576 366.246 215.288 365.802 215.084C365.37 214.868 364.908 214.76 364.416 214.76C363.828 214.76 363.3 214.904 362.832 215.192C362.376 215.48 362.01 215.876 361.734 216.38C361.47 216.884 361.338 217.46 361.338 218.108C361.338 218.744 361.47 219.32 361.734 219.836C362.01 220.34 362.376 220.742 362.832 221.042C363.3 221.33 363.828 221.474 364.416 221.474ZM374.802 222.644C373.986 222.644 373.254 222.446 372.606 222.05C371.958 221.654 371.448 221.114 371.076 220.43C370.704 219.746 370.518 218.972 370.518 218.108C370.518 217.244 370.704 216.47 371.076 215.786C371.448 215.102 371.958 214.562 372.606 214.166C373.254 213.77 373.986 213.572 374.802 213.572C375.606 213.572 376.326 213.77 376.962 214.166C377.61 214.562 378.12 215.102 378.492 215.786C378.864 216.47 379.05 217.244 379.05 218.108C379.05 218.972 378.864 219.746 378.492 220.43C378.12 221.114 377.61 221.654 376.962 222.05C376.326 222.446 375.606 222.644 374.802 222.644ZM374.784 221.492C375.36 221.492 375.87 221.348 376.314 221.06C376.758 220.76 377.106 220.352 377.358 219.836C377.622 219.32 377.754 218.744 377.754 218.108C377.754 217.46 377.622 216.884 377.358 216.38C377.106 215.864 376.758 215.462 376.314 215.174C375.87 214.874 375.36 214.724 374.784 214.724C374.208 214.724 373.698 214.874 373.254 215.174C372.81 215.462 372.456 215.864 372.192 216.38C371.94 216.884 371.814 217.46 371.814 218.108C371.814 218.744 371.94 219.32 372.192 219.836C372.456 220.352 372.81 220.76 373.254 221.06C373.698 221.348 374.208 221.492 374.784 221.492ZM381.356 222.5V209.504L382.67 209.234V222.5H381.356ZM389.252 222.644C388.436 222.644 387.704 222.446 387.056 222.05C386.408 221.654 385.898 221.114 385.526 220.43C385.154 219.746 384.968 218.972 384.968 218.108C384.968 217.244 385.154 216.47 385.526 215.786C385.898 215.102 386.408 214.562 387.056 214.166C387.704 213.77 388.436 213.572 389.252 213.572C390.056 213.572 390.776 213.77 391.412 214.166C392.06 214.562 392.57 215.102 392.942 215.786C393.314 216.47 393.5 217.244 393.5 218.108C393.5 218.972 393.314 219.746 392.942 220.43C392.57 221.114 392.06 221.654 391.412 222.05C390.776 222.446 390.056 222.644 389.252 222.644ZM389.234 221.492C389.81 221.492 390.32 221.348 390.764 221.06C391.208 220.76 391.556 220.352 391.808 219.836C392.072 219.32 392.204 218.744 392.204 218.108C392.204 217.46 392.072 216.884 391.808 216.38C391.556 215.864 391.208 215.462 390.764 215.174C390.32 214.874 389.81 214.724 389.234 214.724C388.658 214.724 388.148 214.874 387.704 215.174C387.26 215.462 386.906 215.864 386.642 216.38C386.39 216.884 386.264 217.46 386.264 218.108C386.264 218.744 386.39 219.32 386.642 219.836C386.906 220.352 387.26 220.76 387.704 221.06C388.148 221.348 388.658 221.492 389.234 221.492ZM395.805 222.5V213.716H397.119V215.516C397.347 214.904 397.671 214.43 398.091 214.094C398.523 213.746 399.015 213.572 399.567 213.572C399.723 213.572 399.867 213.584 399.999 213.608C400.131 213.62 400.263 213.65 400.395 213.698V214.886C400.251 214.838 400.095 214.802 399.927 214.778C399.771 214.742 399.621 214.724 399.477 214.724C398.937 214.724 398.463 214.88 398.055 215.192C397.659 215.504 397.347 215.942 397.119 216.506V222.5H395.805ZM409.052 222.68C408.332 222.68 407.666 222.572 407.054 222.356C406.442 222.128 405.92 221.804 405.488 221.384L406.19 220.52C406.718 220.904 407.204 221.186 407.648 221.366C408.092 221.534 408.548 221.618 409.016 221.618C409.652 221.618 410.18 221.468 410.6 221.168C411.02 220.868 411.23 220.484 411.23 220.016C411.23 219.656 411.104 219.374 410.852 219.17C410.612 218.966 410.21 218.81 409.646 218.702L408.206 218.45C407.354 218.294 406.724 218.03 406.316 217.658C405.92 217.286 405.722 216.782 405.722 216.146C405.722 215.642 405.854 215.198 406.118 214.814C406.394 214.43 406.772 214.13 407.252 213.914C407.732 213.686 408.278 213.572 408.89 213.572C409.49 213.572 410.06 213.662 410.6 213.842C411.14 214.01 411.686 214.286 412.238 214.67L411.59 215.588C411.134 215.264 410.678 215.03 410.222 214.886C409.766 214.73 409.304 214.652 408.836 214.652C408.26 214.652 407.798 214.778 407.45 215.03C407.102 215.282 406.928 215.624 406.928 216.056C406.928 216.416 407.036 216.692 407.252 216.884C407.48 217.076 407.876 217.22 408.44 217.316L409.916 217.586C410.804 217.742 411.452 218.012 411.86 218.396C412.268 218.78 412.472 219.296 412.472 219.944C412.472 220.46 412.322 220.928 412.022 221.348C411.722 221.756 411.314 222.08 410.798 222.32C410.282 222.56 409.7 222.68 409.052 222.68ZM414.455 222.5V213.716H415.769V222.5H414.455ZM415.121 211.538C414.857 211.538 414.629 211.448 414.437 211.268C414.257 211.076 414.167 210.854 414.167 210.602C414.167 210.35 414.257 210.134 414.437 209.954C414.629 209.762 414.857 209.666 415.121 209.666C415.385 209.666 415.607 209.762 415.787 209.954C415.979 210.134 416.075 210.35 416.075 210.602C416.075 210.854 415.979 211.076 415.787 211.268C415.607 211.448 415.385 211.538 415.121 211.538ZM421.811 222.68C421.055 222.68 420.479 222.5 420.083 222.14C419.699 221.768 419.507 221.234 419.507 220.538V214.796H417.689V213.716H419.507V211.304L420.821 210.998V213.716H423.341V214.796H420.821V220.196C420.821 220.664 420.917 221 421.109 221.204C421.313 221.408 421.643 221.51 422.099 221.51C422.327 221.51 422.531 221.492 422.711 221.456C422.891 221.42 423.101 221.36 423.341 221.276V222.446C423.101 222.53 422.849 222.59 422.585 222.626C422.321 222.662 422.063 222.68 421.811 222.68ZM432.185 222.662C431.561 222.662 431.009 222.548 430.529 222.32C430.049 222.092 429.671 221.78 429.395 221.384C429.131 220.976 428.999 220.508 428.999 219.98C428.999 219.452 429.137 218.996 429.413 218.612C429.689 218.216 430.073 217.91 430.565 217.694C431.057 217.478 431.633 217.37 432.293 217.37C432.797 217.37 433.271 217.424 433.715 217.532C434.171 217.64 434.591 217.814 434.975 218.054V216.848C434.975 216.128 434.783 215.588 434.399 215.228C434.015 214.856 433.451 214.67 432.707 214.67C432.299 214.67 431.879 214.73 431.447 214.85C431.027 214.97 430.559 215.162 430.043 215.426L429.557 214.418C430.733 213.854 431.837 213.572 432.869 213.572C433.961 213.572 434.801 213.842 435.389 214.382C435.977 214.91 436.271 215.672 436.271 216.668V222.5H434.975V221.474C434.591 221.87 434.165 222.17 433.697 222.374C433.229 222.566 432.725 222.662 432.185 222.662ZM430.259 219.944C430.259 220.46 430.457 220.874 430.853 221.186C431.261 221.498 431.795 221.654 432.455 221.654C432.947 221.654 433.397 221.57 433.805 221.402C434.225 221.234 434.615 220.982 434.975 220.646V218.954C434.603 218.738 434.219 218.582 433.823 218.486C433.427 218.378 432.983 218.324 432.491 218.324C431.819 218.324 431.279 218.474 430.871 218.774C430.463 219.062 430.259 219.452 430.259 219.944ZM438.942 222.5V213.716H440.256V215.084C440.592 214.58 440.976 214.202 441.408 213.95C441.84 213.698 442.326 213.572 442.866 213.572C443.49 213.572 444.036 213.728 444.504 214.04C444.972 214.34 445.326 214.754 445.566 215.282C445.914 214.718 446.328 214.292 446.808 214.004C447.3 213.716 447.864 213.572 448.5 213.572C449.088 213.572 449.604 213.71 450.048 213.986C450.504 214.262 450.858 214.646 451.11 215.138C451.362 215.618 451.488 216.182 451.488 216.83V222.5H450.174V217.154C450.174 216.386 449.982 215.78 449.598 215.336C449.214 214.892 448.686 214.67 448.014 214.67C447.558 214.67 447.144 214.784 446.772 215.012C446.412 215.24 446.094 215.588 445.818 216.056C445.842 216.176 445.86 216.302 445.872 216.434C445.884 216.566 445.89 216.698 445.89 216.83V222.5H444.576V217.154C444.576 216.386 444.378 215.78 443.982 215.336C443.598 214.892 443.07 214.67 442.398 214.67C441.498 214.67 440.784 215.102 440.256 215.966V222.5H438.942ZM458.107 222.68C457.291 222.68 456.553 222.482 455.893 222.086C455.233 221.678 454.711 221.132 454.327 220.448C453.943 219.752 453.751 218.972 453.751 218.108C453.751 217.244 453.931 216.47 454.291 215.786C454.663 215.102 455.161 214.562 455.785 214.166C456.409 213.77 457.105 213.572 457.873 213.572C458.653 213.572 459.343 213.77 459.943 214.166C460.555 214.55 461.035 215.078 461.383 215.75C461.743 216.41 461.923 217.16 461.923 218V218.396H455.029C455.077 218.996 455.239 219.536 455.515 220.016C455.803 220.484 456.175 220.856 456.631 221.132C457.099 221.396 457.609 221.528 458.161 221.528C458.617 221.528 459.055 221.45 459.475 221.294C459.907 221.126 460.273 220.904 460.573 220.628L461.401 221.51C460.897 221.906 460.375 222.2 459.835 222.392C459.295 222.584 458.719 222.68 458.107 222.68ZM455.065 217.46H460.627C460.567 216.932 460.405 216.464 460.141 216.056C459.889 215.636 459.565 215.306 459.169 215.066C458.785 214.826 458.353 214.706 457.873 214.706C457.393 214.706 456.955 214.826 456.559 215.066C456.163 215.294 455.833 215.618 455.569 216.038C455.317 216.446 455.149 216.92 455.065 217.46ZM467.251 222.68C466.495 222.68 465.919 222.5 465.523 222.14C465.139 221.768 464.947 221.234 464.947 220.538V214.796H463.129V213.716H464.947V211.304L466.261 210.998V213.716H468.781V214.796H466.261V220.196C466.261 220.664 466.357 221 466.549 221.204C466.753 221.408 467.083 221.51 467.539 221.51C467.767 221.51 467.971 221.492 468.151 221.456C468.331 221.42 468.541 221.36 468.781 221.276V222.446C468.541 222.53 468.289 222.59 468.025 222.626C467.761 222.662 467.503 222.68 467.251 222.68ZM470.255 225.326L471.335 221.168H472.739L471.281 225.326H470.255ZM483.349 222.644C482.533 222.644 481.795 222.446 481.135 222.05C480.487 221.642 479.971 221.096 479.587 220.412C479.203 219.716 479.011 218.948 479.011 218.108C479.011 217.256 479.203 216.488 479.587 215.804C479.971 215.12 480.487 214.58 481.135 214.184C481.795 213.776 482.533 213.572 483.349 213.572C483.997 213.572 484.615 213.692 485.203 213.932C485.791 214.172 486.301 214.508 486.733 214.94L485.887 215.858C485.575 215.51 485.197 215.24 484.753 215.048C484.309 214.856 483.859 214.76 483.403 214.76C482.827 214.76 482.305 214.91 481.837 215.21C481.381 215.51 481.015 215.912 480.739 216.416C480.463 216.92 480.325 217.484 480.325 218.108C480.325 218.732 480.463 219.296 480.739 219.8C481.015 220.304 481.381 220.706 481.837 221.006C482.305 221.306 482.827 221.456 483.403 221.456C483.859 221.456 484.309 221.36 484.753 221.168C485.197 220.964 485.575 220.694 485.887 220.358L486.733 221.276C486.301 221.708 485.791 222.044 485.203 222.284C484.615 222.524 483.997 222.644 483.349 222.644ZM492.189 222.644C491.373 222.644 490.641 222.446 489.993 222.05C489.345 221.654 488.835 221.114 488.463 220.43C488.091 219.746 487.905 218.972 487.905 218.108C487.905 217.244 488.091 216.47 488.463 215.786C488.835 215.102 489.345 214.562 489.993 214.166C490.641 213.77 491.373 213.572 492.189 213.572C492.993 213.572 493.713 213.77 494.349 214.166C494.997 214.562 495.507 215.102 495.879 215.786C496.251 216.47 496.437 217.244 496.437 218.108C496.437 218.972 496.251 219.746 495.879 220.43C495.507 221.114 494.997 221.654 494.349 222.05C493.713 222.446 492.993 222.644 492.189 222.644ZM492.171 221.492C492.747 221.492 493.257 221.348 493.701 221.06C494.145 220.76 494.493 220.352 494.745 219.836C495.009 219.32 495.141 218.744 495.141 218.108C495.141 217.46 495.009 216.884 494.745 216.38C494.493 215.864 494.145 215.462 493.701 215.174C493.257 214.874 492.747 214.724 492.171 214.724C491.595 214.724 491.085 214.874 490.641 215.174C490.197 215.462 489.843 215.864 489.579 216.38C489.327 216.884 489.201 217.46 489.201 218.108C489.201 218.744 489.327 219.32 489.579 219.836C489.843 220.352 490.197 220.76 490.641 221.06C491.085 221.348 491.595 221.492 492.171 221.492ZM498.743 222.5V213.716H500.057V215.138C500.393 214.61 500.795 214.22 501.263 213.968C501.731 213.704 502.259 213.572 502.847 213.572C503.483 213.572 504.035 213.71 504.503 213.986C504.983 214.25 505.355 214.628 505.619 215.12C505.895 215.6 506.033 216.164 506.033 216.812V222.5H504.719V217.19C504.719 216.41 504.503 215.798 504.071 215.354C503.651 214.898 503.081 214.67 502.361 214.67C501.881 214.67 501.443 214.784 501.047 215.012C500.651 215.24 500.321 215.576 500.057 216.02V222.5H498.743ZM511.392 222.68C510.672 222.68 510.006 222.572 509.394 222.356C508.782 222.128 508.26 221.804 507.828 221.384L508.53 220.52C509.058 220.904 509.544 221.186 509.988 221.366C510.432 221.534 510.888 221.618 511.356 221.618C511.992 221.618 512.52 221.468 512.94 221.168C513.36 220.868 513.57 220.484 513.57 220.016C513.57 219.656 513.444 219.374 513.192 219.17C512.952 218.966 512.55 218.81 511.986 218.702L510.546 218.45C509.694 218.294 509.064 218.03 508.656 217.658C508.26 217.286 508.062 216.782 508.062 216.146C508.062 215.642 508.194 215.198 508.458 214.814C508.734 214.43 509.112 214.13 509.592 213.914C510.072 213.686 510.618 213.572 511.23 213.572C511.83 213.572 512.4 213.662 512.94 213.842C513.48 214.01 514.026 214.286 514.578 214.67L513.93 215.588C513.474 215.264 513.018 215.03 512.562 214.886C512.106 214.73 511.644 214.652 511.176 214.652C510.6 214.652 510.138 214.778 509.79 215.03C509.442 215.282 509.268 215.624 509.268 216.056C509.268 216.416 509.376 216.692 509.592 216.884C509.82 217.076 510.216 217.22 510.78 217.316L512.256 217.586C513.144 217.742 513.792 218.012 514.2 218.396C514.608 218.78 514.812 219.296 514.812 219.944C514.812 220.46 514.662 220.928 514.362 221.348C514.062 221.756 513.654 222.08 513.138 222.32C512.622 222.56 512.04 222.68 511.392 222.68ZM520.861 222.68C520.045 222.68 519.307 222.482 518.647 222.086C517.987 221.678 517.465 221.132 517.081 220.448C516.697 219.752 516.505 218.972 516.505 218.108C516.505 217.244 516.685 216.47 517.045 215.786C517.417 215.102 517.915 214.562 518.539 214.166C519.163 213.77 519.859 213.572 520.627 213.572C521.407 213.572 522.097 213.77 522.697 214.166C523.309 214.55 523.789 215.078 524.137 215.75C524.497 216.41 524.677 217.16 524.677 218V218.396H517.783C517.831 218.996 517.993 219.536 518.269 220.016C518.557 220.484 518.929 220.856 519.385 221.132C519.853 221.396 520.363 221.528 520.915 221.528C521.371 221.528 521.809 221.45 522.229 221.294C522.661 221.126 523.027 220.904 523.327 220.628L524.155 221.51C523.651 221.906 523.129 222.2 522.589 222.392C522.049 222.584 521.473 222.68 520.861 222.68ZM517.819 217.46H523.381C523.321 216.932 523.159 216.464 522.895 216.056C522.643 215.636 522.319 215.306 521.923 215.066C521.539 214.826 521.107 214.706 520.627 214.706C520.147 214.706 519.709 214.826 519.313 215.066C518.917 215.294 518.587 215.618 518.323 216.038C518.071 216.446 517.903 216.92 517.819 217.46ZM530.862 222.644C530.046 222.644 529.308 222.446 528.648 222.05C528 221.642 527.484 221.096 527.1 220.412C526.716 219.716 526.524 218.948 526.524 218.108C526.524 217.256 526.716 216.488 527.1 215.804C527.484 215.12 528 214.58 528.648 214.184C529.308 213.776 530.046 213.572 530.862 213.572C531.51 213.572 532.128 213.692 532.716 213.932C533.304 214.172 533.814 214.508 534.246 214.94L533.4 215.858C533.088 215.51 532.71 215.24 532.266 215.048C531.822 214.856 531.372 214.76 530.916 214.76C530.34 214.76 529.818 214.91 529.35 215.21C528.894 215.51 528.528 215.912 528.252 216.416C527.976 216.92 527.838 217.484 527.838 218.108C527.838 218.732 527.976 219.296 528.252 219.8C528.528 220.304 528.894 220.706 529.35 221.006C529.818 221.306 530.34 221.456 530.916 221.456C531.372 221.456 531.822 221.36 532.266 221.168C532.71 220.964 533.088 220.694 533.4 220.358L534.246 221.276C533.814 221.708 533.304 222.044 532.716 222.284C532.128 222.524 531.51 222.644 530.862 222.644ZM539.602 222.68C538.846 222.68 538.27 222.5 537.874 222.14C537.49 221.768 537.298 221.234 537.298 220.538V214.796H535.48V213.716H537.298V211.304L538.612 210.998V213.716H541.132V214.796H538.612V220.196C538.612 220.664 538.708 221 538.9 221.204C539.104 221.408 539.434 221.51 539.89 221.51C540.118 221.51 540.322 221.492 540.502 221.456C540.682 221.42 540.892 221.36 541.132 221.276V222.446C540.892 222.53 540.64 222.59 540.376 222.626C540.112 222.662 539.854 222.68 539.602 222.68ZM546.841 222.68C546.025 222.68 545.287 222.482 544.627 222.086C543.967 221.678 543.445 221.132 543.061 220.448C542.677 219.752 542.485 218.972 542.485 218.108C542.485 217.244 542.665 216.47 543.025 215.786C543.397 215.102 543.895 214.562 544.519 214.166C545.143 213.77 545.839 213.572 546.607 213.572C547.387 213.572 548.077 213.77 548.677 214.166C549.289 214.55 549.769 215.078 550.117 215.75C550.477 216.41 550.657 217.16 550.657 218V218.396H543.763C543.811 218.996 543.973 219.536 544.249 220.016C544.537 220.484 544.909 220.856 545.365 221.132C545.833 221.396 546.343 221.528 546.895 221.528C547.351 221.528 547.789 221.45 548.209 221.294C548.641 221.126 549.007 220.904 549.307 220.628L550.135 221.51C549.631 221.906 549.109 222.2 548.569 222.392C548.029 222.584 547.453 222.68 546.841 222.68ZM543.799 217.46H549.361C549.301 216.932 549.139 216.464 548.875 216.056C548.623 215.636 548.299 215.306 547.903 215.066C547.519 214.826 547.087 214.706 546.607 214.706C546.127 214.706 545.689 214.826 545.293 215.066C544.897 215.294 544.567 215.618 544.303 216.038C544.051 216.446 543.883 216.92 543.799 217.46ZM555.985 222.68C555.229 222.68 554.653 222.5 554.257 222.14C553.873 221.768 553.681 221.234 553.681 220.538V214.796H551.863V213.716H553.681V211.304L554.995 210.998V213.716H557.515V214.796H554.995V220.196C554.995 220.664 555.091 221 555.283 221.204C555.487 221.408 555.817 221.51 556.273 221.51C556.501 221.51 556.705 221.492 556.885 221.456C557.065 221.42 557.275 221.36 557.515 221.276V222.446C557.275 222.53 557.023 222.59 556.759 222.626C556.495 222.662 556.237 222.68 555.985 222.68ZM562.572 222.644C561.948 222.644 561.396 222.506 560.916 222.23C560.436 221.954 560.058 221.57 559.782 221.078C559.518 220.586 559.386 220.022 559.386 219.386V213.716H560.718V219.008C560.718 219.788 560.928 220.406 561.348 220.862C561.768 221.318 562.338 221.546 563.058 221.546C563.55 221.546 563.988 221.432 564.372 221.204C564.768 220.976 565.098 220.646 565.362 220.214V213.716H566.676V222.5H565.362V221.078C565.026 221.594 564.624 221.984 564.156 222.248C563.7 222.512 563.172 222.644 562.572 222.644ZM569.371 222.5V213.716H570.685V215.516C570.913 214.904 571.237 214.43 571.657 214.094C572.089 213.746 572.581 213.572 573.133 213.572C573.289 213.572 573.433 213.584 573.565 213.608C573.697 213.62 573.829 213.65 573.961 213.698V214.886C573.817 214.838 573.661 214.802 573.493 214.778C573.337 214.742 573.187 214.724 573.043 214.724C572.503 214.724 572.029 214.88 571.621 215.192C571.225 215.504 570.913 215.942 570.685 216.506V222.5H569.371ZM582.619 222.662C581.995 222.662 581.443 222.548 580.963 222.32C580.483 222.092 580.105 221.78 579.829 221.384C579.565 220.976 579.433 220.508 579.433 219.98C579.433 219.452 579.571 218.996 579.847 218.612C580.123 218.216 580.507 217.91 580.999 217.694C581.491 217.478 582.067 217.37 582.727 217.37C583.231 217.37 583.705 217.424 584.149 217.532C584.605 217.64 585.025 217.814 585.409 218.054V216.848C585.409 216.128 585.217 215.588 584.833 215.228C584.449 214.856 583.885 214.67 583.141 214.67C582.733 214.67 582.313 214.73 581.881 214.85C581.461 214.97 580.993 215.162 580.477 215.426L579.991 214.418C581.167 213.854 582.271 213.572 583.303 213.572C584.395 213.572 585.235 213.842 585.823 214.382C586.411 214.91 586.705 215.672 586.705 216.668V222.5H585.409V221.474C585.025 221.87 584.599 222.17 584.131 222.374C583.663 222.566 583.159 222.662 582.619 222.662ZM580.693 219.944C580.693 220.46 580.891 220.874 581.287 221.186C581.695 221.498 582.229 221.654 582.889 221.654C583.381 221.654 583.831 221.57 584.239 221.402C584.659 221.234 585.049 220.982 585.409 220.646V218.954C585.037 218.738 584.653 218.582 584.257 218.486C583.861 218.378 583.417 218.324 582.925 218.324C582.253 218.324 581.713 218.474 581.305 218.774C580.897 219.062 580.693 219.452 580.693 219.944ZM593.029 222.626C592.273 222.626 591.589 222.428 590.977 222.032C590.365 221.624 589.879 221.084 589.519 220.412C589.159 219.728 588.979 218.966 588.979 218.126C588.979 217.274 589.159 216.512 589.519 215.84C589.891 215.156 590.389 214.616 591.013 214.22C591.637 213.812 592.333 213.608 593.101 213.608C593.641 213.608 594.145 213.716 594.613 213.932C595.081 214.136 595.489 214.436 595.837 214.832V209.504L597.151 209.234V222.5H595.837V221.33C595.501 221.75 595.093 222.074 594.613 222.302C594.133 222.518 593.605 222.626 593.029 222.626ZM593.353 221.474C593.869 221.474 594.343 221.372 594.775 221.168C595.207 220.964 595.561 220.676 595.837 220.304V215.948C595.549 215.576 595.183 215.288 594.739 215.084C594.307 214.868 593.845 214.76 593.353 214.76C592.765 214.76 592.237 214.904 591.769 215.192C591.313 215.48 590.947 215.876 590.671 216.38C590.407 216.884 590.275 217.46 590.275 218.108C590.275 218.744 590.407 219.32 590.671 219.836C590.947 220.34 591.313 220.742 591.769 221.042C592.237 221.33 592.765 221.474 593.353 221.474ZM599.834 222.5V213.716H601.148V222.5H599.834ZM600.5 211.538C600.236 211.538 600.008 211.448 599.816 211.268C599.636 211.076 599.546 210.854 599.546 210.602C599.546 210.35 599.636 210.134 599.816 209.954C600.008 209.762 600.236 209.666 600.5 209.666C600.764 209.666 600.986 209.762 601.166 209.954C601.358 210.134 601.454 210.35 601.454 210.602C601.454 210.854 601.358 211.076 601.166 211.268C600.986 211.448 600.764 211.538 600.5 211.538ZM603.842 226.262V213.716H605.138V214.976C605.474 214.532 605.882 214.196 606.362 213.968C606.854 213.728 607.394 213.608 607.982 213.608C608.75 213.608 609.434 213.812 610.034 214.22C610.646 214.616 611.132 215.156 611.492 215.84C611.852 216.512 612.032 217.268 612.032 218.108C612.032 218.948 611.846 219.71 611.474 220.394C611.114 221.078 610.622 221.624 609.998 222.032C609.386 222.428 608.69 222.626 607.91 222.626C607.358 222.626 606.848 222.524 606.38 222.32C605.912 222.104 605.504 221.798 605.156 221.402V226.262H603.842ZM607.658 221.492C608.246 221.492 608.768 221.348 609.224 221.06C609.692 220.76 610.058 220.358 610.322 219.854C610.598 219.338 610.736 218.762 610.736 218.126C610.736 217.478 610.598 216.902 610.322 216.398C610.058 215.894 609.692 215.498 609.224 215.21C608.768 214.91 608.246 214.76 607.658 214.76C607.142 214.76 606.662 214.868 606.218 215.084C605.786 215.288 605.432 215.582 605.156 215.966V220.268C605.444 220.652 605.804 220.952 606.236 221.168C606.68 221.384 607.154 221.492 607.658 221.492ZM614.318 222.5V213.716H615.632V222.5H614.318ZM614.984 211.538C614.72 211.538 614.492 211.448 614.3 211.268C614.12 211.076 614.03 210.854 614.03 210.602C614.03 210.35 614.12 210.134 614.3 209.954C614.492 209.762 614.72 209.666 614.984 209.666C615.248 209.666 615.47 209.762 615.65 209.954C615.842 210.134 615.938 210.35 615.938 210.602C615.938 210.854 615.842 211.076 615.65 211.268C615.47 211.448 615.248 211.538 614.984 211.538ZM621.045 222.68C620.325 222.68 619.659 222.572 619.047 222.356C618.435 222.128 617.913 221.804 617.481 221.384L618.183 220.52C618.711 220.904 619.197 221.186 619.641 221.366C620.085 221.534 620.541 221.618 621.009 221.618C621.645 221.618 622.173 221.468 622.593 221.168C623.013 220.868 623.223 220.484 623.223 220.016C623.223 219.656 623.097 219.374 622.845 219.17C622.605 218.966 622.203 218.81 621.639 218.702L620.199 218.45C619.347 218.294 618.717 218.03 618.309 217.658C617.913 217.286 617.715 216.782 617.715 216.146C617.715 215.642 617.847 215.198 618.111 214.814C618.387 214.43 618.765 214.13 619.245 213.914C619.725 213.686 620.271 213.572 620.883 213.572C621.483 213.572 622.053 213.662 622.593 213.842C623.133 214.01 623.679 214.286 624.231 214.67L623.583 215.588C623.127 215.264 622.671 215.03 622.215 214.886C621.759 214.73 621.297 214.652 620.829 214.652C620.253 214.652 619.791 214.778 619.443 215.03C619.095 215.282 618.921 215.624 618.921 216.056C618.921 216.416 619.029 216.692 619.245 216.884C619.473 217.076 619.869 217.22 620.433 217.316L621.909 217.586C622.797 217.742 623.445 218.012 623.853 218.396C624.261 218.78 624.465 219.296 624.465 219.944C624.465 220.46 624.315 220.928 624.015 221.348C623.715 221.756 623.307 222.08 622.791 222.32C622.275 222.56 621.693 222.68 621.045 222.68ZM630.495 222.644C629.679 222.644 628.941 222.446 628.281 222.05C627.633 221.642 627.117 221.096 626.733 220.412C626.349 219.716 626.157 218.948 626.157 218.108C626.157 217.256 626.349 216.488 626.733 215.804C627.117 215.12 627.633 214.58 628.281 214.184C628.941 213.776 629.679 213.572 630.495 213.572C631.143 213.572 631.761 213.692 632.349 213.932C632.937 214.172 633.447 214.508 633.879 214.94L633.033 215.858C632.721 215.51 632.343 215.24 631.899 215.048C631.455 214.856 631.005 214.76 630.549 214.76C629.973 214.76 629.451 214.91 628.983 215.21C628.527 215.51 628.161 215.912 627.885 216.416C627.609 216.92 627.471 217.484 627.471 218.108C627.471 218.732 627.609 219.296 627.885 219.8C628.161 220.304 628.527 220.706 628.983 221.006C629.451 221.306 629.973 221.456 630.549 221.456C631.005 221.456 631.455 221.36 631.899 221.168C632.343 220.964 632.721 220.694 633.033 220.358L633.879 221.276C633.447 221.708 632.937 222.044 632.349 222.284C631.761 222.524 631.143 222.644 630.495 222.644ZM635.693 222.5V213.716H637.007V222.5H635.693ZM636.359 211.538C636.095 211.538 635.867 211.448 635.675 211.268C635.495 211.076 635.405 210.854 635.405 210.602C635.405 210.35 635.495 210.134 635.675 209.954C635.867 209.762 636.095 209.666 636.359 209.666C636.623 209.666 636.845 209.762 637.025 209.954C637.217 210.134 637.313 210.35 637.313 210.602C637.313 210.854 637.217 211.076 637.025 211.268C636.845 211.448 636.623 211.538 636.359 211.538ZM639.702 222.5V213.716H641.016V215.138C641.352 214.61 641.754 214.22 642.222 213.968C642.69 213.704 643.218 213.572 643.806 213.572C644.442 213.572 644.994 213.71 645.462 213.986C645.942 214.25 646.314 214.628 646.578 215.12C646.854 215.6 646.992 216.164 646.992 216.812V222.5H645.678V217.19C645.678 216.41 645.462 215.798 645.03 215.354C644.61 214.898 644.04 214.67 643.32 214.67C642.84 214.67 642.402 214.784 642.006 215.012C641.61 215.24 641.28 215.576 641.016 216.02V222.5H639.702ZM653.701 226.442C653.113 226.442 652.519 226.358 651.919 226.19C651.331 226.034 650.785 225.812 650.281 225.524L650.839 224.516C651.379 224.792 651.871 224.996 652.315 225.128C652.759 225.26 653.203 225.326 653.647 225.326C654.451 225.326 655.057 225.134 655.465 224.75C655.885 224.366 656.095 223.808 656.095 223.076V221.312C655.759 221.732 655.351 222.056 654.871 222.284C654.391 222.5 653.863 222.608 653.287 222.608C652.531 222.608 651.847 222.41 651.235 222.014C650.623 221.606 650.137 221.066 649.777 220.394C649.417 219.71 649.237 218.948 649.237 218.108C649.237 217.268 649.417 216.512 649.777 215.84C650.149 215.156 650.647 214.616 651.271 214.22C651.895 213.812 652.591 213.608 653.359 213.608C653.911 213.608 654.421 213.716 654.889 213.932C655.357 214.136 655.765 214.442 656.113 214.85V213.716H657.409V223.058C657.409 224.15 657.091 224.984 656.455 225.56C655.819 226.148 654.901 226.442 653.701 226.442ZM653.611 221.474C654.127 221.474 654.601 221.372 655.033 221.168C655.465 220.952 655.819 220.658 656.095 220.286V215.948C655.807 215.576 655.441 215.288 654.997 215.084C654.565 214.868 654.103 214.76 653.611 214.76C653.023 214.76 652.495 214.904 652.027 215.192C651.571 215.48 651.205 215.876 650.929 216.38C650.665 216.884 650.533 217.46 650.533 218.108C650.533 218.744 650.665 219.32 650.929 219.836C651.205 220.34 651.571 220.742 652.027 221.042C652.495 221.33 653.023 221.474 653.611 221.474ZM668.271 222.68C667.455 222.68 666.717 222.482 666.057 222.086C665.397 221.678 664.875 221.132 664.491 220.448C664.107 219.752 663.915 218.972 663.915 218.108C663.915 217.244 664.095 216.47 664.455 215.786C664.827 215.102 665.325 214.562 665.949 214.166C666.573 213.77 667.269 213.572 668.037 213.572C668.817 213.572 669.507 213.77 670.107 214.166C670.719 214.55 671.199 215.078 671.547 215.75C671.907 216.41 672.087 217.16 672.087 218V218.396H665.193C665.241 218.996 665.403 219.536 665.679 220.016C665.967 220.484 666.339 220.856 666.795 221.132C667.263 221.396 667.773 221.528 668.325 221.528C668.781 221.528 669.219 221.45 669.639 221.294C670.071 221.126 670.437 220.904 670.737 220.628L671.565 221.51C671.061 221.906 670.539 222.2 669.999 222.392C669.459 222.584 668.883 222.68 668.271 222.68ZM665.229 217.46H670.791C670.731 216.932 670.569 216.464 670.305 216.056C670.053 215.636 669.729 215.306 669.333 215.066C668.949 214.826 668.517 214.706 668.037 214.706C667.557 214.706 667.119 214.826 666.723 215.066C666.327 215.294 665.997 215.618 665.733 216.038C665.481 216.446 665.313 216.92 665.229 217.46ZM674.33 222.5V209.504L675.644 209.234V222.5H674.33ZM678.32 222.5V213.716H679.634V222.5H678.32ZM678.986 211.538C678.722 211.538 678.494 211.448 678.302 211.268C678.122 211.076 678.032 210.854 678.032 210.602C678.032 210.35 678.122 210.134 678.302 209.954C678.494 209.762 678.722 209.666 678.986 209.666C679.25 209.666 679.472 209.762 679.652 209.954C679.844 210.134 679.94 210.35 679.94 210.602C679.94 210.854 679.844 211.076 679.652 211.268C679.472 211.448 679.25 211.538 678.986 211.538ZM685.677 222.68C684.921 222.68 684.345 222.5 683.949 222.14C683.565 221.768 683.373 221.234 683.373 220.538V214.796H681.555V213.716H683.373V211.304L684.687 210.998V213.716H687.207V214.796H684.687V220.196C684.687 220.664 684.783 221 684.975 221.204C685.179 221.408 685.509 221.51 685.965 221.51C686.193 221.51 686.397 221.492 686.577 221.456C686.757 221.42 686.967 221.36 687.207 221.276V222.446C686.967 222.53 686.715 222.59 686.451 222.626C686.187 222.662 685.929 222.68 685.677 222.68ZM690.031 222.644C689.767 222.644 689.539 222.548 689.347 222.356C689.167 222.164 689.077 221.936 689.077 221.672C689.077 221.396 689.167 221.168 689.347 220.988C689.539 220.796 689.767 220.7 690.031 220.7C690.295 220.7 690.517 220.796 690.697 220.988C690.889 221.168 690.985 221.396 690.985 221.672C690.985 221.936 690.889 222.164 690.697 222.356C690.517 222.548 690.295 222.644 690.031 222.644Z" fill="white"/>
<path d="M732.344 222.68C731.408 222.68 730.532 222.518 729.716 222.194C728.9 221.858 728.186 221.396 727.574 220.808C726.974 220.22 726.5 219.536 726.152 218.756C725.816 217.964 725.648 217.112 725.648 216.2C725.648 215.276 725.816 214.424 726.152 213.644C726.5 212.852 726.98 212.162 727.592 211.574C728.204 210.986 728.912 210.53 729.716 210.206C730.532 209.87 731.408 209.702 732.344 209.702C733.04 209.702 733.712 209.798 734.36 209.99C735.008 210.182 735.608 210.452 736.16 210.8C736.724 211.148 737.204 211.568 737.6 212.06L735.836 213.806C735.38 213.242 734.852 212.816 734.252 212.528C733.664 212.24 733.028 212.096 732.344 212.096C731.78 212.096 731.252 212.204 730.76 212.42C730.268 212.624 729.842 212.912 729.482 213.284C729.122 213.644 728.84 214.076 728.636 214.58C728.432 215.072 728.33 215.612 728.33 216.2C728.33 216.776 728.432 217.316 728.636 217.82C728.84 218.312 729.128 218.744 729.5 219.116C729.872 219.476 730.304 219.758 730.796 219.962C731.3 220.166 731.846 220.268 732.434 220.268C733.094 220.268 733.712 220.13 734.288 219.854C734.864 219.578 735.374 219.182 735.818 218.666L737.528 220.358C737.132 220.838 736.658 221.252 736.106 221.6C735.554 221.948 734.954 222.218 734.306 222.41C733.67 222.59 733.016 222.68 732.344 222.68ZM741.88 222.662C741.208 222.662 740.614 222.542 740.098 222.302C739.582 222.05 739.18 221.708 738.892 221.276C738.604 220.844 738.46 220.346 738.46 219.782C738.46 218.882 738.796 218.186 739.468 217.694C740.152 217.19 741.088 216.938 742.276 216.938C743.092 216.938 743.86 217.064 744.58 217.316V216.632C744.58 216.092 744.412 215.684 744.076 215.408C743.74 215.132 743.248 214.994 742.6 214.994C742.204 214.994 741.778 215.06 741.322 215.192C740.866 215.312 740.338 215.504 739.738 215.768L738.838 213.95C739.582 213.614 740.29 213.362 740.962 213.194C741.646 213.026 742.33 212.942 743.014 212.942C744.274 212.942 745.252 213.248 745.948 213.86C746.656 214.46 747.01 215.312 747.01 216.416V222.5H744.58V221.834C744.196 222.122 743.782 222.332 743.338 222.464C742.894 222.596 742.408 222.662 741.88 222.662ZM740.8 219.728C740.8 220.088 740.956 220.376 741.268 220.592C741.58 220.796 741.994 220.898 742.51 220.898C742.918 220.898 743.296 220.85 743.644 220.754C743.992 220.646 744.304 220.49 744.58 220.286V218.918C744.28 218.798 743.968 218.708 743.644 218.648C743.32 218.588 742.972 218.558 742.6 218.558C742.036 218.558 741.592 218.666 741.268 218.882C740.956 219.086 740.8 219.368 740.8 219.728ZM748.876 222.5V209.9L751.342 209.486V222.5H748.876ZM753.271 222.5V209.9L755.737 209.486V222.5H753.271ZM765.732 222.644C764.688 222.644 763.896 222.41 763.356 221.942C762.828 221.462 762.564 220.766 762.564 219.854V215.174H760.638V213.122H762.564V210.728L765.03 210.17V213.122H767.712V215.174H765.03V219.35C765.03 219.782 765.126 220.094 765.318 220.286C765.51 220.466 765.846 220.556 766.326 220.556C766.566 220.556 766.782 220.544 766.974 220.52C767.178 220.484 767.4 220.424 767.64 220.34V222.374C767.388 222.458 767.07 222.524 766.686 222.572C766.314 222.62 765.996 222.644 765.732 222.644ZM773.382 222.68C772.446 222.68 771.6 222.464 770.844 222.032C770.088 221.6 769.488 221.018 769.044 220.286C768.6 219.554 768.378 218.732 768.378 217.82C768.378 216.908 768.594 216.086 769.026 215.354C769.47 214.61 770.07 214.022 770.826 213.59C771.594 213.158 772.446 212.942 773.382 212.942C774.318 212.942 775.164 213.158 775.92 213.59C776.688 214.022 777.288 214.61 777.72 215.354C778.164 216.086 778.386 216.908 778.386 217.82C778.386 218.732 778.164 219.554 777.72 220.286C777.288 221.018 776.694 221.6 775.938 222.032C775.182 222.464 774.33 222.68 773.382 222.68ZM773.382 220.538C773.874 220.538 774.312 220.418 774.696 220.178C775.092 219.938 775.404 219.614 775.632 219.206C775.872 218.786 775.992 218.324 775.992 217.82C775.992 217.304 775.872 216.842 775.632 216.434C775.404 216.026 775.092 215.702 774.696 215.462C774.312 215.21 773.874 215.084 773.382 215.084C772.902 215.084 772.464 215.21 772.068 215.462C771.672 215.702 771.36 216.026 771.132 216.434C770.904 216.842 770.79 217.304 770.79 217.82C770.79 218.324 770.904 218.786 771.132 219.206C771.36 219.614 771.672 219.938 772.068 220.178C772.464 220.418 772.902 220.538 773.382 220.538ZM786.511 222.662C785.839 222.662 785.245 222.542 784.729 222.302C784.213 222.05 783.811 221.708 783.523 221.276C783.235 220.844 783.091 220.346 783.091 219.782C783.091 218.882 783.427 218.186 784.099 217.694C784.783 217.19 785.719 216.938 786.907 216.938C787.723 216.938 788.491 217.064 789.211 217.316V216.632C789.211 216.092 789.043 215.684 788.707 215.408C788.371 215.132 787.879 214.994 787.231 214.994C786.835 214.994 786.409 215.06 785.953 215.192C785.497 215.312 784.969 215.504 784.369 215.768L783.469 213.95C784.213 213.614 784.921 213.362 785.593 213.194C786.277 213.026 786.961 212.942 787.645 212.942C788.905 212.942 789.883 213.248 790.579 213.86C791.287 214.46 791.641 215.312 791.641 216.416V222.5H789.211V221.834C788.827 222.122 788.413 222.332 787.969 222.464C787.525 222.596 787.039 222.662 786.511 222.662ZM785.431 219.728C785.431 220.088 785.587 220.376 785.899 220.592C786.211 220.796 786.625 220.898 787.141 220.898C787.549 220.898 787.927 220.85 788.275 220.754C788.623 220.646 788.935 220.49 789.211 220.286V218.918C788.911 218.798 788.599 218.708 788.275 218.648C787.951 218.588 787.603 218.558 787.231 218.558C786.667 218.558 786.223 218.666 785.899 218.882C785.587 219.086 785.431 219.368 785.431 219.728ZM797.989 222.68C797.065 222.68 796.231 222.47 795.487 222.05C794.743 221.618 794.155 221.036 793.723 220.304C793.291 219.56 793.075 218.732 793.075 217.82C793.075 216.896 793.291 216.068 793.723 215.336C794.155 214.604 794.743 214.022 795.487 213.59C796.231 213.158 797.065 212.942 797.989 212.942C798.733 212.942 799.441 213.086 800.113 213.374C800.797 213.662 801.385 214.076 801.877 214.616L800.365 216.218C800.017 215.834 799.651 215.552 799.267 215.372C798.895 215.18 798.487 215.084 798.043 215.084C797.563 215.084 797.131 215.204 796.747 215.444C796.375 215.684 796.075 216.008 795.847 216.416C795.631 216.824 795.523 217.292 795.523 217.82C795.523 218.324 795.631 218.786 795.847 219.206C796.075 219.614 796.387 219.938 796.783 220.178C797.179 220.406 797.617 220.52 798.097 220.52C798.517 220.52 798.907 220.436 799.267 220.268C799.639 220.088 799.993 219.824 800.329 219.476L801.805 221.024C801.325 221.54 800.749 221.948 800.077 222.248C799.405 222.536 798.709 222.68 797.989 222.68ZM807.709 222.644C806.665 222.644 805.873 222.41 805.333 221.942C804.805 221.462 804.541 220.766 804.541 219.854V215.174H802.615V213.122H804.541V210.728L807.007 210.17V213.122H809.689V215.174H807.007V219.35C807.007 219.782 807.103 220.094 807.295 220.286C807.487 220.466 807.823 220.556 808.303 220.556C808.543 220.556 808.759 220.544 808.951 220.52C809.155 220.484 809.377 220.424 809.617 220.34V222.374C809.365 222.458 809.047 222.524 808.663 222.572C808.291 222.62 807.973 222.644 807.709 222.644ZM810.892 222.5V213.122H813.358V222.5H810.892ZM812.116 212.006C811.732 212.006 811.402 211.868 811.126 211.592C810.85 211.316 810.712 210.986 810.712 210.602C810.712 210.206 810.85 209.876 811.126 209.612C811.402 209.336 811.732 209.198 812.116 209.198C812.512 209.198 812.842 209.336 813.106 209.612C813.382 209.876 813.52 210.206 813.52 210.602C813.52 210.986 813.382 211.316 813.106 211.592C812.842 211.868 812.512 212.006 812.116 212.006ZM819.858 222.68C818.922 222.68 818.076 222.464 817.32 222.032C816.564 221.6 815.964 221.018 815.52 220.286C815.076 219.554 814.854 218.732 814.854 217.82C814.854 216.908 815.07 216.086 815.502 215.354C815.946 214.61 816.546 214.022 817.302 213.59C818.07 213.158 818.922 212.942 819.858 212.942C820.794 212.942 821.64 213.158 822.396 213.59C823.164 214.022 823.764 214.61 824.196 215.354C824.64 216.086 824.862 216.908 824.862 217.82C824.862 218.732 824.64 219.554 824.196 220.286C823.764 221.018 823.17 221.6 822.414 222.032C821.658 222.464 820.806 222.68 819.858 222.68ZM819.858 220.538C820.35 220.538 820.788 220.418 821.172 220.178C821.568 219.938 821.88 219.614 822.108 219.206C822.348 218.786 822.468 218.324 822.468 217.82C822.468 217.304 822.348 216.842 822.108 216.434C821.88 216.026 821.568 215.702 821.172 215.462C820.788 215.21 820.35 215.084 819.858 215.084C819.378 215.084 818.94 215.21 818.544 215.462C818.148 215.702 817.836 216.026 817.608 216.434C817.38 216.842 817.266 217.304 817.266 217.82C817.266 218.324 817.38 218.786 817.608 219.206C817.836 219.614 818.148 219.938 818.544 220.178C818.94 220.418 819.378 220.538 819.858 220.538ZM826.378 222.5V213.122H828.844V213.896C829.552 213.26 830.428 212.942 831.472 212.942C832.204 212.942 832.846 213.104 833.398 213.428C833.962 213.74 834.4 214.178 834.712 214.742C835.024 215.294 835.18 215.942 835.18 216.686V222.5H832.714V217.046C832.714 216.434 832.54 215.954 832.192 215.606C831.844 215.246 831.37 215.066 830.77 215.066C830.35 215.066 829.978 215.15 829.654 215.318C829.33 215.474 829.06 215.702 828.844 216.002V222.5H826.378Z" fill="#92C5F9"/>
<g clip-path="url(#clip2_830_9519)">
<path d="M866.1 215.338L859.444 208.681C859.2 208.438 858.806 208.438 858.563 208.681C858.319 208.925 858.319 209.319 858.563 209.563L864.369 215.369H848.381C848.038 215.369 847.756 215.65 847.756 215.994C847.756 216.338 848.038 216.619 848.381 216.619H864.375L858.569 222.425C858.325 222.669 858.325 223.063 858.569 223.306C858.694 223.431 858.85 223.488 859.013 223.488C859.175 223.488 859.331 223.425 859.456 223.306L866.113 216.65C866.475 216.288 866.475 215.688 866.113 215.325L866.1 215.338Z" fill="#92C5F9"/>
</g>
<g clip-path="url(#clip3_830_9519)">
<path d="M1032.95 200L1036.68 196.277C1036.94 196.014 1036.94 195.586 1036.68 195.323C1036.41 195.059 1035.99 195.059 1035.72 195.323L1032 199.045L1028.28 195.323C1028.01 195.059 1027.59 195.059 1027.32 195.323C1027.06 195.586 1027.06 196.014 1027.32 196.277L1031.05 200L1027.32 203.722C1027.06 203.986 1027.06 204.414 1027.32 204.678C1027.45 204.809 1027.63 204.875 1027.8 204.875C1027.97 204.875 1028.15 204.809 1028.28 204.678L1032 200.955L1035.72 204.678C1035.85 204.809 1036.03 204.875 1036.2 204.875C1036.37 204.875 1036.55 204.809 1036.68 204.678C1036.94 204.414 1036.94 203.986 1036.68 203.722L1032.95 200Z" fill="white"/>
</g>
<defs>
<clipPath id="clip0_830_9519">
<rect width="20" height="20" fill="white" transform="translate(847 94)"/>
</clipPath>
<clipPath id="clip1_830_9519">
<rect width="12" height="12" fill="white" transform="translate(1026 82)"/>
</clipPath>
<clipPath id="clip2_830_9519">
<rect width="20" height="20" fill="white" transform="translate(847 206)"/>
</clipPath>
<clipPath id="clip3_830_9519">
<rect width="12" height="12" fill="white" transform="translate(1026 194)"/>
</clipPath>
</defs>
</svg>
