<svg xmlns="http://www.w3.org/2000/svg" width="1000" height="300" viewBox="0 0 1000 300"><defs><style>.a{fill:#f0f0f0;}.b{fill:#73bcf7;}.c{fill:#6a6e73;}.d{fill:#151515;}.e{fill:#06c;}.f{fill:#d2d2d2;}.g{fill:#fff;}.h{fill:#d40000;}.i{fill:#e00;}</style></defs><rect class="a" width="1000" height="300" rx="3"/><path class="b" d="M0,0H176a0,0,0,0,1,0,0V83a3,3,0,0,1-3,3H0a0,0,0,0,1,0,0V0A0,0,0,0,1,0,0Z" transform="translate(760 150)"/><rect class="c" width="176" height="86" transform="translate(584 150)"/><rect class="d" width="176" height="86" transform="translate(408 150)"/><path class="e" d="M0,0H173a3,3,0,0,1,3,3V86a0,0,0,0,1,0,0H0a0,0,0,0,1,0,0V0A0,0,0,0,1,0,0Z" transform="translate(760 64)"/><rect class="f" width="176" height="86" transform="translate(584 64)"/><rect class="g" width="176" height="86" transform="translate(408 64)"/><rect class="h" width="172" height="172" transform="translate(236 64)"/><path class="i" d="M3,0H172a0,0,0,0,1,0,0V172a0,0,0,0,1,0,0H3a3,3,0,0,1-3-3V3A3,3,0,0,1,3,0Z" transform="translate(64 64)"/></svg>