<svg xmlns="http://www.w3.org/2000/svg" width="300" height="592"><defs><filter id="a" width="280" height="252" x="10" y="333" filterUnits="userSpaceOnUse"><feOffset dy="3"/><feGaussianBlur result="b" stdDeviation="2"/><feFlood flood-opacity=".102"/><feComposite in2="b" operator="in"/><feComposite in="SourceGraphic"/></filter><filter id="b" width="280" height="124" x="10" y="69" filterUnits="userSpaceOnUse"><feOffset dy="3"/><feGaussianBlur result="d" stdDeviation="2"/><feFlood flood-opacity=".102"/><feComposite in2="d" operator="in"/><feComposite in="SourceGraphic"/></filter></defs><g fill="#fff" stroke="#d2d2d2"><path stroke="none" d="M0 319h300v270a3 3 0 01-3 3H3a3 3 0 01-3-3V319z"/><path fill="none" d="M1 319.5h298a.5.5 0 01.5.5v269a2.5 2.5 0 01-2.5 2.5H3A2.5 2.5 0 01.5 589V320a.5.5 0 01.5-.5z"/></g><g filter="url(#a)"><g fill="#fff" stroke="#d2d2d2"><path stroke="none" d="M16 336h268v240H16z"/><path fill="none" d="M16.5 336.5h267v239h-267z"/></g></g><text fill="#6a6e73" font-family="RedHatText-Regular, Red Hat Text" font-size="14" letter-spacing=".01em" transform="translate(239 545)"><tspan x="0" y="0">126</tspan></text><text fill="#151515" font-family="RedHatText-Regular, Red Hat Text" font-size="14" letter-spacing=".01em" transform="translate(68 545)"><tspan x="0" y="0">Datasheet</tspan></text><path fill="none" d="M40 528h24v24H40z"/><g fill="#fff" stroke="#767676" transform="translate(44 532)"><rect width="16" height="16" stroke="none" rx="2"/><rect width="15" height="15" x=".5" y=".5" fill="none" rx="1.5"/></g><text fill="#6a6e73" font-family="RedHatText-Regular, Red Hat Text" font-size="14" letter-spacing=".01em" transform="translate(244 513)"><tspan x="0" y="0">28</tspan></text><text fill="#151515" font-family="RedHatText-Regular, Red Hat Text" font-size="14" letter-spacing=".01em" transform="translate(68 513)"><tspan x="0" y="0">Checklist</tspan></text><path fill="none" d="M40 496h24v24H40z"/><g fill="#fff" stroke="#767676" transform="translate(44 500)"><rect width="16" height="16" stroke="none" rx="2"/><rect width="15" height="15" x=".5" y=".5" fill="none" rx="1.5"/></g><text fill="#6a6e73" font-family="RedHatText-Regular, Red Hat Text" font-size="14" letter-spacing=".01em" transform="translate(234 481)"><tspan x="0" y="0">204</tspan></text><text fill="#151515" font-family="RedHatText-Regular, Red Hat Text" font-size="14" letter-spacing=".01em" transform="translate(68 481)"><tspan x="0" y="0">Case study</tspan></text><path fill="none" d="M40 464h24v24H40z"/><g fill="#fff" stroke="#767676" transform="translate(44 468)"><rect width="16" height="16" stroke="none" rx="2"/><rect width="15" height="15" x=".5" y=".5" fill="none" rx="1.5"/></g><g><text fill="#6a6e73" font-family="RedHatText-Regular, Red Hat Text" font-size="14" letter-spacing=".01em" transform="translate(234 449)"><tspan x="0" y="0">206</tspan></text><text fill="#151515" font-family="RedHatText-Regular, Red Hat Text" font-size="14" letter-spacing=".01em" transform="translate(68 449)"><tspan x="0" y="0">Brief</tspan></text><path fill="none" d="M40 432h24v24H40z"/><g fill="#fff" stroke="#767676" transform="translate(44 436)"><rect width="16" height="16" stroke="none" rx="2"/><rect width="15" height="15" x=".5" y=".5" fill="none" rx="1.5"/></g></g><text fill="#6a6e73" font-family="RedHatText-Regular, Red Hat Text" font-size="14" letter-spacing=".01em" transform="translate(236 417)"><tspan x="0" y="0">229</tspan></text><text fill="#151515" font-family="RedHatText-Regular, Red Hat Text" font-size="14" letter-spacing=".01em" transform="translate(68 417)"><tspan x="0" y="0">Analyst material</tspan></text><g><path fill="none" d="M40 400h24v24H40z"/><g fill="#fff" stroke="#767676" transform="translate(44 404)"><rect width="16" height="16" stroke="none" rx="2"/><rect width="15" height="15" x=".5" y=".5" fill="none" rx="1.5"/></g></g><text fill="#151515" font-family="RedHatText-Regular, Red Hat Text" font-size="16" transform="translate(64 370)"><tspan x="0" y="0">Type</tspan></text><g><path fill="none" d="M32 352h24v24H32z"/><path d="M43.19 369.03l-6.89-6.9a1.23 1.23 0 010-1.61l1.22-1.22a1.23 1.23 0 011.62 0l4.86 4.87 4.86-4.87a1.23 1.23 0 011.62 0l1.22 1.22a1.23 1.23 0 010 1.62l-6.89 6.89a1.23 1.23 0 01-1.62 0z"/></g><path fill="#e00" d="M16 336h3v240h-3z"/><path fill="#8a8d90" d="M0 264h300v56H0z"/><text fill="#fff" font-family="RedHatText-Regular, Red Hat Text" font-size="16" transform="translate(16 298)"><tspan x="0" y="0">Filter</tspan></text><g><g fill="#fff" stroke="#d2d2d2"><path stroke="none" d="M0 55h300v142a3 3 0 01-3 3H3a3 3 0 01-3-3V55z"/><path fill="none" d="M1 55.5h298a.5.5 0 01.5.5v141a2.5 2.5 0 01-2.5 2.5H3A2.5 2.5 0 01.5 197V56a.5.5 0 01.5-.5z"/></g><g filter="url(#b)"><g fill="#fff" stroke="#d2d2d2"><path stroke="none" d="M16 72h268v112H16z"/><path fill="none" d="M16.5 72.5h267v111h-267z"/></g></g><text fill="#6a6e73" font-family="RedHatText-Regular, Red Hat Text" font-size="14" letter-spacing=".01em" transform="translate(236 153)"><tspan x="0" y="0">229</tspan></text><text fill="#151515" font-family="RedHatText-Regular, Red Hat Text" font-size="14" letter-spacing=".01em" transform="translate(68 153)"><tspan x="0" y="0">Analyst material</tspan></text><path fill="none" d="M40 136h24v24H40z"/><g fill="#fff" stroke="#767676" transform="translate(44 140)"><rect width="16" height="16" stroke="none" rx="2"/><rect width="15" height="15" x=".5" y=".5" fill="none" rx="1.5"/></g><text fill="#151515" font-family="RedHatText-Regular, Red Hat Text" font-size="16" transform="translate(64 106)"><tspan x="0" y="0">Type</tspan></text><path fill="none" d="M32 88h24v24H32z"/><path d="M43.19 105.03l-6.89-6.9a1.23 1.23 0 010-1.61l1.22-1.22a1.23 1.23 0 011.62 0l4.86 4.87 4.86-4.87a1.23 1.23 0 011.62 0l1.22 1.22a1.23 1.23 0 010 1.62l-6.89 6.89a1.23 1.23 0 01-1.62 0z"/><path fill="#e00" d="M16 72h3v112h-3z"/><path fill="#8a8d90" d="M0 0h300v56H0z"/><text fill="#fff" font-family="RedHatText-Regular, Red Hat Text" font-size="16" transform="translate(16 34)"><tspan x="0" y="0">Filter</tspan></text></g></svg>