<svg xmlns="http://www.w3.org/2000/svg" width="360" height="640"><g fill="#f0f0f0" transform="translate(16 588)"><rect width="80" height="18" rx="3" transform="translate(0 34)"/><rect width="160" height="26" rx="3"/></g><path fill="#d2d2d2" d="M16 555h328v1H16z"/><g fill="#f0f0f0" transform="translate(16 405)"><rect width="328" height="50" rx="3" transform="translate(0 68)"/><rect width="80" height="18" rx="3" transform="translate(0 34)"/><rect width="160" height="26" rx="3"/></g><g fill="#fff" stroke="#d2d2d2"><path stroke="none" d="M16 162h328v208a3 3 0 01-3 3H19a3 3 0 01-3-3V162z"/><path fill="none" d="M17 162.5h326a.5.5 0 01.5.5v207a2.5 2.5 0 01-2.5 2.5H19a2.5 2.5 0 01-2.5-2.5V163a.5.5 0 01.5-.5z"/></g><path fill="#d2d2d2" d="M32 356h296v1H32z"/><path fill="none" d="M288 315h24v24h-24z"/><path d="M304.9 327.9l-6.8 6.8a1.22 1.22 0 01-1.6 0l-1.2-1a1.5 1.5 0 010-1.8l4.8-4.8-4.8-4.8a1.5 1.5 0 010-1.8l1.2-1.2a1.22 1.22 0 011.6 0l6.8 6.8a1.5 1.5 0 010 1.8z"/><text fill="#151515" font-family="RedHatDisplay-Medium, RedHatDisplay" font-size="20" font-weight="500" transform="translate(56 334)"><tspan x="0" y="0">Product line</tspan></text><path fill="#d2d2d2" d="M32 297h296v1H32z"/><path fill="none" d="M288 256h24v24h-24z"/><path d="M304.9 268.9l-6.8 6.8a1.22 1.22 0 01-1.6 0l-1.2-1a1.5 1.5 0 010-1.8l4.8-4.8-4.8-4.8a1.5 1.5 0 010-1.8l1.2-1.2a1.22 1.22 0 011.6 0l6.8 6.8a1.5 1.5 0 010 1.8z"/><text fill="#151515" font-family="RedHatDisplay-Medium, RedHatDisplay" font-size="20" font-weight="500" transform="translate(56 275)"><tspan x="0" y="0">Product</tspan></text><path fill="#d2d2d2" d="M32 238h296v1H32z"/><path fill="none" d="M288 197h24v24h-24z"/><path d="M304.9 209.9l-6.8 6.8a1.22 1.22 0 01-1.6 0l-1.2-1a1.5 1.5 0 010-1.8l4.8-4.8-4.8-4.8a1.5 1.5 0 010-1.8l1.2-1.2a1.22 1.22 0 011.6 0l6.8 6.8a1.5 1.5 0 010 1.8z"/><text fill="#151515" font-family="RedHatDisplay-Medium, RedHatDisplay" font-size="20" font-weight="500" transform="translate(56 216)"><tspan x="0" y="0">Type</tspan></text><path fill="#d2d2d2" d="M32 179h296v1H32z"/><g><path fill="#8a8d90" d="M16 107h328v56H16z"/><text fill="#fff" font-family="RedHatText-Regular, RedHatText" font-size="16" transform="translate(64 141)"><tspan x="0" y="0">Filter</tspan></text><path fill="none" d="M32 123h24v24H32z"/><path fill="#fff" d="M43.19 140.03l-6.89-6.9a1.23 1.23 0 010-1.61l1.22-1.22a1.23 1.23 0 011.62 0l4.86 4.86 4.86-4.86a1.23 1.23 0 011.62 0l1.22 1.22a1.23 1.23 0 010 1.62l-6.89 6.89a1.23 1.23 0 01-1.62 0z"/></g><g><g transform="translate(263 39)"><rect width="81" height="36" fill="#e00" rx="3"/><text fill="#fff" font-family="RedHatText-Regular, RedHatText" font-size="16" transform="translate(16 24)"><tspan x="0" y="0">Search</tspan></text></g><g fill="#fff" stroke="#d2d2d2"><path stroke="none" d="M16 39h231v36H16z"/><path fill="none" d="M16.5 39.5h230v35h-230z"/></g><path fill="#6a6e73" d="M16 74h231v1H16z"/><text fill="#6a6e73" font-family="RedHatText-Regular, RedHatText" font-size="16" transform="translate(24 63)"><tspan x="0" y="0">Search all resources</tspan></text></g><text fill="#151515" font-family="RedHatDisplay-Medium, RedHatDisplay" font-size="18" font-weight="500" transform="translate(16 18)"><tspan x="0" y="0">RESOURCES</tspan></text><g opacity=".03"><path fill="#00f" d="M344 0h16v640h-16z" opacity=".75"/><path fill="red" d="M16 0h328v640H16z" opacity=".75"/><path fill="#00f" d="M0 0h16v640H0z" opacity=".75"/></g></svg>