<svg xmlns="http://www.w3.org/2000/svg" xmlns:xlink="http://www.w3.org/1999/xlink" width="664" height="513" viewBox="0 0 664 513"><defs><filter id="a" x="374" y="187" width="280" height="319" filterUnits="userSpaceOnUse"><feOffset dy="3" input="SourceAlpha"/><feGaussianBlur stdDeviation="2" result="b"/><feFlood flood-opacity="0.102"/><feComposite operator="in" in2="b"/><feComposite in="SourceGraphic"/></filter></defs><g transform="translate(-528 -9699)"><g transform="translate(200 9477)"><g transform="translate(692 277)" fill="#fff" stroke="#d2d2d2" stroke-width="1"><path d="M0,0H300a0,0,0,0,1,0,0V455a3,3,0,0,1-3,3H3a3,3,0,0,1-3-3V0A0,0,0,0,1,0,0Z" stroke="none"/><path d="M1,.5H299a.5.5,0,0,1,.5.5V455a2.5,2.5,0,0,1-2.5,2.5H3A2.5,2.5,0,0,1,.5,455V1A.5.5,0,0,1,1,.5Z" fill="none"/></g><g transform="translate(0 28)"><g transform="matrix(1, 0, 0, 1, 328, 194)" filter="url(#a)"><g transform="translate(380 190)" fill="#fff" stroke="#d2d2d2" stroke-width="1"><rect width="268" height="307" stroke="none"/><rect x="0.5" y="0.5" width="267" height="306" fill="none"/></g></g><g transform="translate(332 270)"><text transform="translate(612 390)" fill="#6a6e73" font-size="14" font-family="RedHatText-Regular, Red Hat Text" letter-spacing="0.01em"><tspan x="0" y="0">2</tspan></text><text transform="translate(428 390)" fill="#151515" font-size="14" font-family="RedHatText-Regular, Red Hat Text" letter-spacing="0.01em"><tspan x="0" y="0">Mobile</tspan></text><g transform="translate(-32 -22)"><rect width="24" height="24" transform="translate(432 395)" fill="none"/><g transform="translate(436 399)" fill="#fff" stroke="#767676" stroke-width="1"><rect width="16" height="16" rx="2" stroke="none"/><rect x="0.5" y="0.5" width="15" height="15" rx="1.5" fill="none"/></g></g></g><g transform="translate(332 238)"><text transform="translate(602 390)" fill="#6a6e73" font-size="14" font-family="RedHatText-Regular, Red Hat Text" letter-spacing="0.01em"><tspan x="0" y="0">110</tspan></text><text transform="translate(428 390)" fill="#151515" font-size="14" font-family="RedHatText-Regular, Red Hat Text" letter-spacing="0.01em"><tspan x="0" y="0">Virtualization</tspan></text><g transform="translate(-32 -22)"><rect width="24" height="24" transform="translate(432 395)" fill="none"/><g transform="translate(436 399)" fill="#fff" stroke="#767676" stroke-width="1"><rect width="16" height="16" rx="2" stroke="none"/><rect x="0.5" y="0.5" width="15" height="15" rx="1.5" fill="none"/></g></g></g><g transform="translate(332 206)"><text transform="translate(598 390)" fill="#6a6e73" font-size="14" font-family="RedHatText-Regular, Red Hat Text" letter-spacing="0.01em"><tspan x="0" y="0">148</tspan></text><text transform="translate(428 390)" fill="#151515" font-size="14" font-family="RedHatText-Regular, Red Hat Text" letter-spacing="0.01em"><tspan x="0" y="0">Storage</tspan></text><g transform="translate(-32 -22)"><rect width="24" height="24" transform="translate(432 395)" fill="none"/><g transform="translate(436 399)" fill="#fff" stroke="#767676" stroke-width="1"><rect width="16" height="16" rx="2" stroke="none"/><rect x="0.5" y="0.5" width="15" height="15" rx="1.5" fill="none"/></g></g></g><g transform="translate(332 174)"><text transform="translate(596 390)" fill="#6a6e73" font-size="14" font-family="RedHatText-Regular, Red Hat Text" letter-spacing="0.01em"><tspan x="0" y="0">265</tspan></text><text transform="translate(428 390)" fill="#151515" font-size="14" font-family="RedHatText-Regular, Red Hat Text" letter-spacing="0.01em"><tspan x="0" y="0">Management</tspan></text><g transform="translate(-32 -22)"><rect width="24" height="24" transform="translate(432 395)" fill="none"/><g transform="translate(436 399)" fill="#fff" stroke="#767676" stroke-width="1"><rect width="16" height="16" rx="2" stroke="none"/><rect x="0.5" y="0.5" width="15" height="15" rx="1.5" fill="none"/></g></g></g><g transform="translate(332 142)"><text transform="translate(596 390)" fill="#6a6e73" font-size="14" font-family="RedHatText-Regular, Red Hat Text" letter-spacing="0.01em"><tspan x="0" y="0">352</tspan></text><text transform="translate(428 390)" fill="#151515" font-size="14" font-family="RedHatText-Regular, Red Hat Text" letter-spacing="0.01em"><tspan x="0" y="0">Middleware</tspan></text><g transform="translate(-32 -22)"><rect width="24" height="24" transform="translate(432 395)" fill="none"/><g transform="translate(436 399)" fill="#fff" stroke="#767676" stroke-width="1"><rect width="16" height="16" rx="2" stroke="none"/><rect x="0.5" y="0.5" width="15" height="15" rx="1.5" fill="none"/></g></g></g><g transform="translate(332 110)"><text transform="translate(596 390)" fill="#6a6e73" font-size="14" font-family="RedHatText-Regular, Red Hat Text" letter-spacing="0.01em"><tspan x="0" y="0">353</tspan></text><text transform="translate(428 390)" fill="#151515" font-size="14" font-family="RedHatText-Regular, Red Hat Text" letter-spacing="0.01em"><tspan x="0" y="0">Linux platforms</tspan></text><g transform="translate(-32 -22)"><rect width="24" height="24" transform="translate(432 395)" fill="none"/><g transform="translate(436 399)" fill="#fff" stroke="#767676" stroke-width="1"><rect width="16" height="16" rx="2" stroke="none"/><rect x="0.5" y="0.5" width="15" height="15" rx="1.5" fill="none"/></g></g></g><g transform="translate(332 78)"><text transform="translate(595 390)" fill="#6a6e73" font-size="14" font-family="RedHatText-Regular, Red Hat Text" letter-spacing="0.01em"><tspan x="0" y="0">476</tspan></text><text transform="translate(428 390)" fill="#151515" font-size="14" font-family="RedHatText-Regular, Red Hat Text" letter-spacing="0.01em"><tspan x="0" y="0">Cloud computing</tspan></text><g transform="translate(-32 -22)"><rect width="24" height="24" transform="translate(432 395)" fill="none"/><g transform="translate(436 399)" fill="#fff" stroke="#767676" stroke-width="1"><rect width="16" height="16" rx="2" stroke="none"/><rect x="0.5" y="0.5" width="15" height="15" rx="1.5" fill="none"/></g></g></g><g transform="translate(24 59)"><rect width="24" height="24" transform="translate(912 343)" fill="none"/><path d="M8.24,12.475,1.354,5.589a1.232,1.232,0,0,1,0-1.62L2.569,2.754a1.232,1.232,0,0,1,1.62,0L9.05,7.615l4.861-4.861a1.232,1.232,0,0,1,1.62,0l1.215,1.215a1.232,1.232,0,0,1,0,1.62L9.86,12.475A1.232,1.232,0,0,1,8.24,12.475Z" transform="translate(914.95 347.55)"/></g><text transform="translate(732 421)" fill="#151515" font-size="20" font-family="RedHatDisplay-Medium, Red Hat Display" font-weight="500"><tspan x="0" y="0">Product line</tspan></text><rect width="3" height="307" transform="translate(708 384)" fill="#e00"/><g transform="translate(24)"><rect width="24" height="24" transform="translate(912 343)" fill="none"/><path d="M12.35,9.85l-6.8,6.8a1.217,1.217,0,0,1-1.6,0l-1.2-1a1.493,1.493,0,0,1,0-1.8l4.8-4.8-4.8-4.8a1.493,1.493,0,0,1,0-1.8l1.2-1.2a1.217,1.217,0,0,1,1.6,0l6.8,6.8A1.493,1.493,0,0,1,12.35,9.85Z" transform="translate(916.55 346.05)"/></g><text transform="translate(732 362)" fill="#151515" font-size="20" font-family="RedHatDisplay-Medium, Red Hat Display" font-weight="500"><tspan x="0" y="0">Product</tspan></text><rect width="268" height="1" transform="translate(708 325)" fill="#d2d2d2"/><g transform="translate(24 -59)"><rect width="24" height="24" transform="translate(912 343)" fill="none"/><path d="M12.35,9.85l-6.8,6.8a1.217,1.217,0,0,1-1.6,0l-1.2-1a1.493,1.493,0,0,1,0-1.8l4.8-4.8-4.8-4.8a1.493,1.493,0,0,1,0-1.8l1.2-1.2a1.217,1.217,0,0,1,1.6,0l6.8,6.8A1.493,1.493,0,0,1,12.35,9.85Z" transform="translate(916.55 346.05)"/></g><text transform="translate(732 303)" fill="#151515" font-size="20" font-family="RedHatDisplay-Medium, Red Hat Display" font-weight="500"><tspan x="0" y="0">Type</tspan></text><rect width="268" height="1" transform="translate(708 266)" fill="#d2d2d2"/><g transform="translate(732 643)" fill="none" stroke="#2261c5" stroke-width="2"><rect width="24" height="24" rx="3" stroke="none"/><rect x="1" y="1" width="22" height="22" rx="2" fill="none"/></g><g transform="translate(732 611)" fill="none" stroke="#2261c5" stroke-width="2" opacity="0.9"><rect width="24" height="24" rx="3" stroke="none"/><rect x="1" y="1" width="22" height="22" rx="2" fill="none"/></g><g transform="translate(732 579)" fill="none" stroke="#2261c5" stroke-width="2" opacity="0.8"><rect width="24" height="24" rx="3" stroke="none"/><rect x="1" y="1" width="22" height="22" rx="2" fill="none"/></g><g transform="translate(732 547)" fill="none" stroke="#2261c5" stroke-width="2" opacity="0.7"><rect width="24" height="24" rx="3" stroke="none"/><rect x="1" y="1" width="22" height="22" rx="2" fill="none"/></g><g transform="translate(732 515)" fill="none" stroke="#2261c5" stroke-width="2" opacity="0.6"><rect width="24" height="24" rx="3" stroke="none"/><rect x="1" y="1" width="22" height="22" rx="2" fill="none"/></g><g transform="translate(732 483)" fill="none" stroke="#2261c5" stroke-width="2" opacity="0.5"><rect width="24" height="24" rx="3" stroke="none"/><rect x="1" y="1" width="22" height="22" rx="2" fill="none"/></g><g transform="translate(732 451)" fill="none" stroke="#2261c5" stroke-width="2" opacity="0.4"><rect width="24" height="24" rx="3" stroke="none"/><rect x="1" y="1" width="22" height="22" rx="2" fill="none"/></g><g transform="translate(708 385)" fill="none" stroke="#2261c5" stroke-width="2" opacity="0.3"><rect width="268" height="58" rx="3" stroke="none"/><rect x="1" y="1" width="266" height="56" rx="2" fill="none"/></g><g transform="translate(708 326)" fill="none" stroke="#2261c5" stroke-width="2" opacity="0.2"><rect width="268" height="58" rx="3" stroke="none"/><rect x="1" y="1" width="266" height="56" rx="2" fill="none"/></g><g transform="translate(708 267)" fill="none" stroke="#2261c5" stroke-width="2" opacity="0.1"><rect width="268" height="58" rx="3" stroke="none"/><rect x="1" y="1" width="266" height="56" rx="2" fill="none"/></g></g><g transform="translate(332 -19)"><rect width="300" height="56" transform="translate(360 241)" fill="#8a8d90"/><text transform="translate(376 275)" fill="#fff" font-size="16" font-family="RedHatText-Regular, Red Hat Text"><tspan x="0" y="0">Filter</tspan></text></g></g><g transform="translate(-164 9477)"><g transform="translate(692 277)" fill="#fff" stroke="#d2d2d2" stroke-width="1"><path d="M0,0H300a0,0,0,0,1,0,0V326a3,3,0,0,1-3,3H3a3,3,0,0,1-3-3V0A0,0,0,0,1,0,0Z" stroke="none"/><path d="M1,.5H299a.5.5,0,0,1,.5.5V326a2.5,2.5,0,0,1-2.5,2.5H3A2.5,2.5,0,0,1,.5,326V1A.5.5,0,0,1,1,.5Z" fill="none"/></g><g transform="translate(0 28)"><rect width="268" height="1" transform="translate(708 561)" fill="#d2d2d2"/><g transform="translate(24 177)"><rect width="24" height="24" transform="translate(912 343)" fill="none"/><path d="M12.35,9.85l-6.8,6.8a1.217,1.217,0,0,1-1.6,0l-1.2-1a1.493,1.493,0,0,1,0-1.8l4.8-4.8-4.8-4.8a1.493,1.493,0,0,1,0-1.8l1.2-1.2a1.217,1.217,0,0,1,1.6,0l6.8,6.8A1.493,1.493,0,0,1,12.35,9.85Z" transform="translate(916.55 346.05)"/></g><text transform="translate(732 539)" fill="#151515" font-size="20" font-family="RedHatDisplay-Medium, Red Hat Display" font-weight="500"><tspan x="0" y="0">Label</tspan></text><rect width="268" height="1" transform="translate(708 502)" fill="#d2d2d2"/><g transform="translate(24 118)"><rect width="24" height="24" transform="translate(912 343)" fill="none"/><path d="M12.35,9.85l-6.8,6.8a1.217,1.217,0,0,1-1.6,0l-1.2-1a1.493,1.493,0,0,1,0-1.8l4.8-4.8-4.8-4.8a1.493,1.493,0,0,1,0-1.8l1.2-1.2a1.217,1.217,0,0,1,1.6,0l6.8,6.8A1.493,1.493,0,0,1,12.35,9.85Z" transform="translate(916.55 346.05)"/></g><text transform="translate(732 480)" fill="#151515" font-size="20" font-family="RedHatDisplay-Medium, Red Hat Display" font-weight="500"><tspan x="0" y="0">Label</tspan></text><rect width="268" height="1" transform="translate(708 443)" fill="#d2d2d2"/><g transform="translate(24 59)"><rect width="24" height="24" transform="translate(912 343)" fill="none"/><path d="M12.35,9.85l-6.8,6.8a1.217,1.217,0,0,1-1.6,0l-1.2-1a1.493,1.493,0,0,1,0-1.8l4.8-4.8-4.8-4.8a1.493,1.493,0,0,1,0-1.8l1.2-1.2a1.217,1.217,0,0,1,1.6,0l6.8,6.8A1.493,1.493,0,0,1,12.35,9.85Z" transform="translate(916.55 346.05)"/></g><text transform="translate(732 421)" fill="#151515" font-size="20" font-family="RedHatDisplay-Medium, Red Hat Display" font-weight="500"><tspan x="0" y="0">Label</tspan></text><rect width="268" height="1" transform="translate(708 384)" fill="#d2d2d2"/><g transform="translate(24)"><rect width="24" height="24" transform="translate(912 343)" fill="none"/><path d="M12.35,9.85l-6.8,6.8a1.217,1.217,0,0,1-1.6,0l-1.2-1a1.493,1.493,0,0,1,0-1.8l4.8-4.8-4.8-4.8a1.493,1.493,0,0,1,0-1.8l1.2-1.2a1.217,1.217,0,0,1,1.6,0l6.8,6.8A1.493,1.493,0,0,1,12.35,9.85Z" transform="translate(916.55 346.05)"/></g><text transform="translate(732 362)" fill="#151515" font-size="20" font-family="RedHatDisplay-Medium, Red Hat Display" font-weight="500"><tspan x="0" y="0">Label</tspan></text><rect width="268" height="1" transform="translate(708 325)" fill="#d2d2d2"/><g transform="translate(24 -59)"><rect width="24" height="24" transform="translate(912 343)" fill="none"/><path d="M12.35,9.85l-6.8,6.8a1.217,1.217,0,0,1-1.6,0l-1.2-1a1.493,1.493,0,0,1,0-1.8l4.8-4.8-4.8-4.8a1.493,1.493,0,0,1,0-1.8l1.2-1.2a1.217,1.217,0,0,1,1.6,0l6.8,6.8A1.493,1.493,0,0,1,12.35,9.85Z" transform="translate(916.55 346.05)"/></g><text transform="translate(732 303)" fill="#151515" font-size="20" font-family="RedHatDisplay-Medium, Red Hat Display" font-weight="500"><tspan x="0" y="0">Label</tspan></text><rect width="268" height="1" transform="translate(708 266)" fill="#d2d2d2"/><g transform="translate(708 503)" fill="none" stroke="#2261c5" stroke-width="2"><rect width="268" height="58" rx="3" stroke="none"/><rect x="1" y="1" width="266" height="56" rx="2" fill="none"/></g><g transform="translate(708 444)" fill="none" stroke="#2261c5" stroke-width="2" opacity="0.8"><rect width="268" height="58" rx="3" stroke="none"/><rect x="1" y="1" width="266" height="56" rx="2" fill="none"/></g><g transform="translate(708 385)" fill="none" stroke="#2261c5" stroke-width="2" opacity="0.6"><rect width="268" height="58" rx="3" stroke="none"/><rect x="1" y="1" width="266" height="56" rx="2" fill="none"/></g><g transform="translate(708 326)" fill="none" stroke="#2261c5" stroke-width="2" opacity="0.4"><rect width="268" height="58" rx="3" stroke="none"/><rect x="1" y="1" width="266" height="56" rx="2" fill="none"/></g><g transform="translate(708 267)" fill="none" stroke="#2261c5" stroke-width="2" opacity="0.2"><rect width="268" height="58" rx="3" stroke="none"/><rect x="1" y="1" width="266" height="56" rx="2" fill="none"/></g></g><g transform="translate(332 -19)"><rect width="300" height="56" transform="translate(360 241)" fill="#8a8d90"/><text transform="translate(376 275)" fill="#fff" font-size="16" font-family="RedHatText-Regular, Red Hat Text"><tspan x="0" y="0">Filter</tspan></text></g></g></g></svg>