<svg width="1140" height="197" viewBox="0 0 1140 197" fill="none" xmlns="http://www.w3.org/2000/svg">
<path d="M0 3C0 1.34315 1.34315 0 3 0H1137C1138.66 0 1140 1.34315 1140 3V194C1140 195.657 1138.66 197 1137 197H3.00003C1.34318 197 0 195.657 0 194V3Z" fill="#151515"/>
<g clip-path="url(#clip0_13_2369)">
<path d="M381 117.5C376.864 117.5 373.5 120.865 373.5 125C373.5 129.135 376.864 132.5 381 132.5C385.136 132.5 388.5 129.135 388.5 125C388.5 120.865 385.136 117.5 381 117.5ZM374.5 125C374.5 123.38 375.1 121.899 376.084 120.76C376.104 120.792 376.119 120.826 376.147 120.854L385.146 129.854C385.174 129.881 385.208 129.896 385.24 129.916C384.101 130.9 382.62 131.5 381 131.5C377.416 131.5 374.5 128.584 374.5 125ZM385.916 129.24C385.896 129.208 385.881 129.174 385.854 129.146L376.853 120.147C376.826 120.119 376.792 120.104 376.76 120.084C377.899 119.1 379.38 118.5 381 118.5C384.584 118.5 387.5 121.416 387.5 125C387.5 126.62 386.9 128.101 385.916 129.24Z" fill="#F0561D"/>
</g>
<mask id="path-3-inside-1_13_2369" fill="white">
<path d="M256 70C256 66.6863 258.686 64 262 64H500C503.314 64 506 66.6863 506 70V95C506 98.3137 503.314 101 500 101H262C258.686 101 256 98.3137 256 95V70Z"/>
</mask>
<path d="M256 70C256 66.6863 258.686 64 262 64H500C503.314 64 506 66.6863 506 70V95C506 98.3137 503.314 101 500 101H262C258.686 101 256 98.3137 256 95V70Z" fill="white"/>
<path d="M262 64V65H500V64V63H262V64ZM506 70H505V95H506H507V70H506ZM500 101V100H262V101V102H500V101ZM256 95H257V70H256H255V95H256ZM262 101V100C259.239 100 257 97.7614 257 95H256H255C255 98.866 258.134 102 262 102V101ZM506 95H505C505 97.7614 502.761 100 500 100V101V102C503.866 102 507 98.866 507 95H506ZM500 64V65C502.761 65 505 67.2386 505 70H506H507C507 66.134 503.866 63 500 63V64ZM262 64V63C258.134 63 255 66.134 255 70H256H257C257 67.2386 259.239 65 262 65V64Z" fill="#C7C7C7" mask="url(#path-3-inside-1_13_2369)"/>
<path d="M273.232 87V77.2H274.31V87H273.232ZM276.591 87V80.168H277.613V81.274C277.874 80.8633 278.187 80.56 278.551 80.364C278.915 80.1587 279.326 80.056 279.783 80.056C280.278 80.056 280.707 80.1633 281.071 80.378C281.444 80.5833 281.734 80.8773 281.939 81.26C282.154 81.6333 282.261 82.072 282.261 82.576V87H281.239V82.87C281.239 82.2633 281.071 81.7873 280.735 81.442C280.408 81.0873 279.965 80.91 279.405 80.91C279.032 80.91 278.691 80.9987 278.383 81.176C278.075 81.3533 277.818 81.6147 277.613 81.96V87H276.591ZM284.316 89.926V80.168H285.324V81.148C285.585 80.8027 285.902 80.5413 286.276 80.364C286.658 80.1773 287.078 80.084 287.536 80.084C288.133 80.084 288.665 80.2427 289.132 80.56C289.608 80.868 289.986 81.288 290.266 81.82C290.546 82.3427 290.686 82.9307 290.686 83.584C290.686 84.2373 290.541 84.83 290.252 85.362C289.972 85.894 289.589 86.3187 289.104 86.636C288.628 86.944 288.086 87.098 287.48 87.098C287.05 87.098 286.654 87.0187 286.29 86.86C285.926 86.692 285.608 86.454 285.338 86.146V89.926H284.316ZM287.284 86.216C287.741 86.216 288.147 86.104 288.502 85.88C288.866 85.6467 289.15 85.334 289.356 84.942C289.57 84.5407 289.678 84.0927 289.678 83.598C289.678 83.094 289.57 82.646 289.356 82.254C289.15 81.862 288.866 81.554 288.502 81.33C288.147 81.0967 287.741 80.98 287.284 80.98C286.882 80.98 286.509 81.064 286.164 81.232C285.828 81.3907 285.552 81.6193 285.338 81.918V85.264C285.562 85.5627 285.842 85.796 286.178 85.964C286.523 86.132 286.892 86.216 287.284 86.216ZM294.914 87.112C294.428 87.112 293.999 87.0047 293.626 86.79C293.252 86.5753 292.958 86.2767 292.744 85.894C292.538 85.5113 292.436 85.0727 292.436 84.578V80.168H293.472V84.284C293.472 84.8907 293.635 85.3713 293.962 85.726C294.288 86.0807 294.732 86.258 295.292 86.258C295.674 86.258 296.015 86.1693 296.314 85.992C296.622 85.8147 296.878 85.558 297.084 85.222V80.168H298.106V87H297.084V85.894C296.822 86.2953 296.51 86.5987 296.146 86.804C295.791 87.0093 295.38 87.112 294.914 87.112ZM302.806 87.14C302.218 87.14 301.77 87 301.462 86.72C301.164 86.4307 301.014 86.0153 301.014 85.474V81.008H299.6V80.168H301.014V78.292L302.036 78.054V80.168H303.996V81.008H302.036V85.208C302.036 85.572 302.111 85.8333 302.26 85.992C302.419 86.1507 302.676 86.23 303.03 86.23C303.208 86.23 303.366 86.216 303.506 86.188C303.646 86.16 303.81 86.1133 303.996 86.048V86.958C303.81 87.0233 303.614 87.07 303.408 87.098C303.203 87.126 303.002 87.14 302.806 87.14ZM309.629 87V81.008H308.103V80.168H309.629V78.74C309.629 78.068 309.806 77.55 310.161 77.186C310.516 76.822 311.02 76.64 311.673 76.64C311.86 76.64 312.028 76.6493 312.177 76.668C312.336 76.6867 312.476 76.7193 312.597 76.766V77.69C312.448 77.6433 312.312 77.6107 312.191 77.592C312.07 77.5733 311.93 77.564 311.771 77.564C311.379 77.564 311.094 77.662 310.917 77.858C310.74 78.0447 310.651 78.3433 310.651 78.754V80.168H312.597V81.008H310.651V87H309.629ZM313.929 87V80.168H314.951V87H313.929ZM314.447 78.474C314.241 78.474 314.064 78.404 313.915 78.264C313.775 78.1147 313.705 77.942 313.705 77.746C313.705 77.55 313.775 77.382 313.915 77.242C314.064 77.0927 314.241 77.018 314.447 77.018C314.652 77.018 314.825 77.0927 314.965 77.242C315.114 77.382 315.189 77.55 315.189 77.746C315.189 77.942 315.114 78.1147 314.965 78.264C314.825 78.404 314.652 78.474 314.447 78.474ZM320.126 87.14C319.491 87.14 318.917 86.986 318.404 86.678C317.891 86.3607 317.485 85.936 317.186 85.404C316.887 84.8627 316.738 84.256 316.738 83.584C316.738 82.912 316.878 82.31 317.158 81.778C317.447 81.246 317.835 80.826 318.32 80.518C318.805 80.21 319.347 80.056 319.944 80.056C320.551 80.056 321.087 80.21 321.554 80.518C322.03 80.8167 322.403 81.2273 322.674 81.75C322.954 82.2633 323.094 82.8467 323.094 83.5V83.808H317.732C317.769 84.2747 317.895 84.6947 318.11 85.068C318.334 85.432 318.623 85.7213 318.978 85.936C319.342 86.1413 319.739 86.244 320.168 86.244C320.523 86.244 320.863 86.1833 321.19 86.062C321.526 85.9313 321.811 85.7587 322.044 85.544L322.688 86.23C322.296 86.538 321.89 86.7667 321.47 86.916C321.05 87.0653 320.602 87.14 320.126 87.14ZM317.76 83.08H322.086C322.039 82.6693 321.913 82.3053 321.708 81.988C321.512 81.6613 321.26 81.4047 320.952 81.218C320.653 81.0313 320.317 80.938 319.944 80.938C319.571 80.938 319.23 81.0313 318.922 81.218C318.614 81.3953 318.357 81.6473 318.152 81.974C317.956 82.2913 317.825 82.66 317.76 83.08ZM324.839 87V76.892L325.861 76.682V87H324.839ZM330.798 87.098C330.21 87.098 329.678 86.944 329.202 86.636C328.726 86.3187 328.348 85.8987 328.068 85.376C327.788 84.844 327.648 84.2513 327.648 83.598C327.648 82.9353 327.788 82.3427 328.068 81.82C328.358 81.288 328.745 80.868 329.23 80.56C329.716 80.2427 330.257 80.084 330.854 80.084C331.274 80.084 331.666 80.168 332.03 80.336C332.394 80.4947 332.712 80.728 332.982 81.036V76.892L334.004 76.682V87H332.982V86.09C332.721 86.4167 332.404 86.6687 332.03 86.846C331.657 87.014 331.246 87.098 330.798 87.098ZM331.05 86.202C331.452 86.202 331.82 86.1227 332.156 85.964C332.492 85.8053 332.768 85.5813 332.982 85.292V81.904C332.758 81.6147 332.474 81.3907 332.128 81.232C331.792 81.064 331.433 80.98 331.05 80.98C330.593 80.98 330.182 81.092 329.818 81.316C329.464 81.54 329.179 81.848 328.964 82.24C328.759 82.632 328.656 83.08 328.656 83.584C328.656 84.0787 328.759 84.5267 328.964 84.928C329.179 85.32 329.464 85.6327 329.818 85.866C330.182 86.09 330.593 86.202 331.05 86.202Z" fill="#4D4D4D"/>
<mask id="path-6-inside-2_13_2369" fill="white">
<path d="M259 70C259 68.3431 260.343 67 262 67H500C501.657 67 503 68.3431 503 70V95C503 96.6569 501.657 98 500 98H262C260.343 98 259 96.6569 259 95V70Z"/>
</mask>
<path d="M262 67V70H500V67V64H262V67ZM503 70H500V95H503H506V70H503ZM500 98V95H262V98V101H500V98ZM259 95H262V70H259H256V95H259ZM262 98V95H262H259H256C256 98.3137 258.686 101 262 101V98ZM503 95H500V98V101C503.314 101 506 98.3137 506 95H503ZM500 67V70H503H506C506 66.6863 503.314 64 500 64V67ZM262 67V64C258.686 64 256 66.6863 256 70H259H262V70V67Z" fill="#92C5F9" mask="url(#path-6-inside-2_13_2369)"/>
<g clip-path="url(#clip1_13_2369)">
<path d="M759 117.5C754.865 117.5 751.5 120.865 751.5 125C751.5 129.135 754.865 132.5 759 132.5C763.135 132.5 766.5 129.135 766.5 125C766.5 120.865 763.135 117.5 759 117.5ZM759 131.5C755.416 131.5 752.5 128.584 752.5 125C752.5 121.416 755.416 118.5 759 118.5C762.584 118.5 765.5 121.416 765.5 125C765.5 128.584 762.584 131.5 759 131.5ZM762.854 122.647C763.049 122.842 763.049 123.158 762.854 123.354L758.53 127.677C758.384 127.823 758.192 127.896 758 127.896C757.808 127.896 757.616 127.823 757.47 127.677L755.147 125.354C754.951 125.158 754.951 124.842 755.147 124.647C755.342 124.451 755.658 124.451 755.854 124.647L758 126.793L762.147 122.647C762.342 122.451 762.658 122.451 762.854 122.647Z" fill="#87BB62"/>
</g>
<mask id="path-9-inside-3_13_2369" fill="white">
<path d="M634 70C634 66.6863 636.686 64 640 64H878C881.314 64 884 66.6863 884 70V95C884 98.3137 881.314 101 878 101H640C636.686 101 634 98.3137 634 95V70Z"/>
</mask>
<path d="M634 70C634 66.6863 636.686 64 640 64H878C881.314 64 884 66.6863 884 70V95C884 98.3137 881.314 101 878 101H640C636.686 101 634 98.3137 634 95V70Z" fill="white"/>
<path d="M640 64V65H878V64V63H640V64ZM884 70H883V95H884H885V70H884ZM878 101V100H640V101V102H878V101ZM634 95H635V70H634H633V95H634ZM640 101V100C637.239 100 635 97.7614 635 95H634H633C633 98.866 636.134 102 640 102V101ZM884 95H883C883 97.7614 880.761 100 878 100V101V102C881.866 102 885 98.866 885 95H884ZM878 64V65C880.761 65 883 67.2386 883 70H884H885C885 66.134 881.866 63 878 63V64ZM640 64V63C636.134 63 633 66.134 633 70H634H635C635 67.2386 637.239 65 640 65V64Z" fill="#C7C7C7" mask="url(#path-9-inside-3_13_2369)"/>
<path d="M651.232 87V77.2H652.31V87H651.232ZM654.591 87V80.168H655.613V81.274C655.874 80.8633 656.187 80.56 656.551 80.364C656.915 80.1587 657.326 80.056 657.783 80.056C658.278 80.056 658.707 80.1633 659.071 80.378C659.444 80.5833 659.734 80.8773 659.939 81.26C660.154 81.6333 660.261 82.072 660.261 82.576V87H659.239V82.87C659.239 82.2633 659.071 81.7873 658.735 81.442C658.408 81.0873 657.965 80.91 657.405 80.91C657.032 80.91 656.691 80.9987 656.383 81.176C656.075 81.3533 655.818 81.6147 655.613 81.96V87H654.591ZM662.316 89.926V80.168H663.324V81.148C663.585 80.8027 663.902 80.5413 664.276 80.364C664.658 80.1773 665.078 80.084 665.536 80.084C666.133 80.084 666.665 80.2427 667.132 80.56C667.608 80.868 667.986 81.288 668.266 81.82C668.546 82.3427 668.686 82.9307 668.686 83.584C668.686 84.2373 668.541 84.83 668.252 85.362C667.972 85.894 667.589 86.3187 667.104 86.636C666.628 86.944 666.086 87.098 665.48 87.098C665.05 87.098 664.654 87.0187 664.29 86.86C663.926 86.692 663.608 86.454 663.338 86.146V89.926H662.316ZM665.284 86.216C665.741 86.216 666.147 86.104 666.502 85.88C666.866 85.6467 667.15 85.334 667.356 84.942C667.57 84.5407 667.678 84.0927 667.678 83.598C667.678 83.094 667.57 82.646 667.356 82.254C667.15 81.862 666.866 81.554 666.502 81.33C666.147 81.0967 665.741 80.98 665.284 80.98C664.882 80.98 664.509 81.064 664.164 81.232C663.828 81.3907 663.552 81.6193 663.338 81.918V85.264C663.562 85.5627 663.842 85.796 664.178 85.964C664.523 86.132 664.892 86.216 665.284 86.216ZM672.914 87.112C672.428 87.112 671.999 87.0047 671.626 86.79C671.252 86.5753 670.958 86.2767 670.744 85.894C670.538 85.5113 670.436 85.0727 670.436 84.578V80.168H671.472V84.284C671.472 84.8907 671.635 85.3713 671.962 85.726C672.288 86.0807 672.732 86.258 673.292 86.258C673.674 86.258 674.015 86.1693 674.314 85.992C674.622 85.8147 674.878 85.558 675.084 85.222V80.168H676.106V87H675.084V85.894C674.822 86.2953 674.51 86.5987 674.146 86.804C673.791 87.0093 673.38 87.112 672.914 87.112ZM680.806 87.14C680.218 87.14 679.77 87 679.462 86.72C679.164 86.4307 679.014 86.0153 679.014 85.474V81.008H677.6V80.168H679.014V78.292L680.036 78.054V80.168H681.996V81.008H680.036V85.208C680.036 85.572 680.111 85.8333 680.26 85.992C680.419 86.1507 680.676 86.23 681.03 86.23C681.208 86.23 681.366 86.216 681.506 86.188C681.646 86.16 681.81 86.1133 681.996 86.048V86.958C681.81 87.0233 681.614 87.07 681.408 87.098C681.203 87.126 681.002 87.14 680.806 87.14ZM687.629 87V81.008H686.103V80.168H687.629V78.74C687.629 78.068 687.806 77.55 688.161 77.186C688.516 76.822 689.02 76.64 689.673 76.64C689.86 76.64 690.028 76.6493 690.177 76.668C690.336 76.6867 690.476 76.7193 690.597 76.766V77.69C690.448 77.6433 690.312 77.6107 690.191 77.592C690.07 77.5733 689.93 77.564 689.771 77.564C689.379 77.564 689.094 77.662 688.917 77.858C688.74 78.0447 688.651 78.3433 688.651 78.754V80.168H690.597V81.008H688.651V87H687.629ZM691.929 87V80.168H692.951V87H691.929ZM692.447 78.474C692.241 78.474 692.064 78.404 691.915 78.264C691.775 78.1147 691.705 77.942 691.705 77.746C691.705 77.55 691.775 77.382 691.915 77.242C692.064 77.0927 692.241 77.018 692.447 77.018C692.652 77.018 692.825 77.0927 692.965 77.242C693.114 77.382 693.189 77.55 693.189 77.746C693.189 77.942 693.114 78.1147 692.965 78.264C692.825 78.404 692.652 78.474 692.447 78.474ZM698.126 87.14C697.491 87.14 696.917 86.986 696.404 86.678C695.891 86.3607 695.485 85.936 695.186 85.404C694.887 84.8627 694.738 84.256 694.738 83.584C694.738 82.912 694.878 82.31 695.158 81.778C695.447 81.246 695.835 80.826 696.32 80.518C696.805 80.21 697.347 80.056 697.944 80.056C698.551 80.056 699.087 80.21 699.554 80.518C700.03 80.8167 700.403 81.2273 700.674 81.75C700.954 82.2633 701.094 82.8467 701.094 83.5V83.808H695.732C695.769 84.2747 695.895 84.6947 696.11 85.068C696.334 85.432 696.623 85.7213 696.978 85.936C697.342 86.1413 697.739 86.244 698.168 86.244C698.523 86.244 698.863 86.1833 699.19 86.062C699.526 85.9313 699.811 85.7587 700.044 85.544L700.688 86.23C700.296 86.538 699.89 86.7667 699.47 86.916C699.05 87.0653 698.602 87.14 698.126 87.14ZM695.76 83.08H700.086C700.039 82.6693 699.913 82.3053 699.708 81.988C699.512 81.6613 699.26 81.4047 698.952 81.218C698.653 81.0313 698.317 80.938 697.944 80.938C697.571 80.938 697.23 81.0313 696.922 81.218C696.614 81.3953 696.357 81.6473 696.152 81.974C695.956 82.2913 695.825 82.66 695.76 83.08ZM702.839 87V76.892L703.861 76.682V87H702.839ZM708.798 87.098C708.21 87.098 707.678 86.944 707.202 86.636C706.726 86.3187 706.348 85.8987 706.068 85.376C705.788 84.844 705.648 84.2513 705.648 83.598C705.648 82.9353 705.788 82.3427 706.068 81.82C706.358 81.288 706.745 80.868 707.23 80.56C707.716 80.2427 708.257 80.084 708.854 80.084C709.274 80.084 709.666 80.168 710.03 80.336C710.394 80.4947 710.712 80.728 710.982 81.036V76.892L712.004 76.682V87H710.982V86.09C710.721 86.4167 710.404 86.6687 710.03 86.846C709.657 87.014 709.246 87.098 708.798 87.098ZM709.05 86.202C709.452 86.202 709.82 86.1227 710.156 85.964C710.492 85.8053 710.768 85.5813 710.982 85.292V81.904C710.758 81.6147 710.474 81.3907 710.128 81.232C709.792 81.064 709.433 80.98 709.05 80.98C708.593 80.98 708.182 81.092 707.818 81.316C707.464 81.54 707.179 81.848 706.964 82.24C706.759 82.632 706.656 83.08 706.656 83.584C706.656 84.0787 706.759 84.5267 706.964 84.928C707.179 85.32 707.464 85.6327 707.818 85.866C708.182 86.09 708.593 86.202 709.05 86.202Z" fill="#4D4D4D"/>
<mask id="path-12-inside-4_13_2369" fill="white">
<path d="M637 70C637 68.3431 638.343 67 640 67H878C879.657 67 881 68.3431 881 70V95C881 96.6569 879.657 98 878 98H640C638.343 98 637 96.6569 637 95V70Z"/>
</mask>
<path d="M640 67V70H878V67V64H640V67ZM881 70H878V95H881H884V70H881ZM878 98V95H640V98V101H878V98ZM637 95H640V70H637H634V95H637ZM640 98V95H640H637H634C634 98.3137 636.686 101 640 101V98ZM881 95H878V98V101C881.314 101 884 98.3137 884 95H881ZM878 67V70H881H884C884 66.6863 881.314 64 878 64V67ZM640 67V64C636.686 64 634 66.6863 634 70H637H640V70V67Z" fill="#0066CC" mask="url(#path-12-inside-4_13_2369)"/>
<defs>
<clipPath id="clip0_13_2369">
<rect width="16" height="16" fill="white" transform="translate(373 117)"/>
</clipPath>
<clipPath id="clip1_13_2369">
<rect width="16" height="16" fill="white" transform="translate(751 117)"/>
</clipPath>
</defs>
</svg>
