<svg width="348" height="116" viewBox="0 0 348 116" fill="none" xmlns="http://www.w3.org/2000/svg">
<g clip-path="url(#clip0_4043_2390)">
<path d="M17.7049 23.9999L24.3549 17.3549C24.5499 17.1599 24.5499 16.8449 24.3549 16.6499C24.1599 16.4549 23.8449 16.4549 23.6499 16.6499L16.8249 23.4699C16.5349 23.7599 16.5349 24.2399 16.8249 24.5299L23.6499 31.3549C23.7499 31.4549 23.8749 31.4999 24.0049 31.4999C24.1349 31.4999 24.2599 31.4499 24.3599 31.3549C24.5549 31.1599 24.5549 30.8449 24.3599 30.6499L17.7049 23.9999Z" fill="#A3A3A3"/>
<path d="M24.7049 23.9999L31.3549 17.3549C31.5499 17.1599 31.5499 16.8449 31.3549 16.6499C31.1599 16.4549 30.8449 16.4549 30.6499 16.6499L23.8249 23.4749C23.5349 23.7649 23.5349 24.2449 23.8249 24.5349L30.6499 31.3599C30.7499 31.4599 30.8749 31.5049 31.0049 31.5049C31.1349 31.5049 31.2599 31.4549 31.3599 31.3599C31.5549 31.1649 31.5549 30.8499 31.3599 30.6549L24.7149 24.0099L24.7049 23.9999Z" fill="#A3A3A3"/>
</g>
<g clip-path="url(#clip1_4043_2390)">
<path d="M77 31.5C76.87 31.5 76.745 31.45 76.645 31.355L69.82 24.53C69.53 24.24 69.53 23.76 69.82 23.47L76.645 16.645C76.84 16.45 77.155 16.45 77.35 16.645C77.545 16.84 77.545 17.155 77.35 17.35L70.705 23.995L77.35 30.64C77.545 30.835 77.545 31.15 77.35 31.345C77.25 31.445 77.125 31.49 76.995 31.49L77 31.5Z" fill="#A3A3A3"/>
</g>
<mask id="path-4-inside-1_4043_2390" fill="white">
<path d="M100 0H148V48H100V0Z"/>
</mask>
<path d="M148 45H100V51H148V45Z" fill="#0066CC" mask="url(#path-4-inside-1_4043_2390)"/>
<path d="M123.875 31V19.06L121.355 20.12V18.36L124.595 17H125.855V31H123.875Z" fill="#151515"/>
<path d="M169.433 31V29.6L175.113 23.56C175.5 23.16 175.8 22.8 176.013 22.48C176.226 22.16 176.373 21.86 176.453 21.58C176.546 21.2867 176.593 20.98 176.593 20.66C176.593 20.0333 176.34 19.5133 175.833 19.1C175.326 18.6867 174.686 18.48 173.913 18.48C173.273 18.48 172.673 18.6067 172.113 18.86C171.553 19.1133 170.933 19.5533 170.253 20.18L169.173 18.86C169.92 18.1667 170.686 17.6467 171.473 17.3C172.273 16.9533 173.1 16.78 173.953 16.78C174.846 16.78 175.633 16.94 176.313 17.26C176.993 17.58 177.52 18.0267 177.893 18.6C178.28 19.16 178.473 19.8067 178.473 20.54C178.473 21.0067 178.413 21.44 178.293 21.84C178.173 22.2267 177.966 22.64 177.673 23.08C177.38 23.5067 176.966 24 176.433 24.56L171.873 29.36L178.753 29.34V31H169.433Z" fill="#151515"/>
<path d="M223.843 31.22C222.843 31.22 221.903 31.0467 221.023 30.7C220.156 30.34 219.403 29.8267 218.763 29.16L220.063 27.92C220.623 28.5067 221.19 28.9267 221.763 29.18C222.35 29.42 223.036 29.54 223.823 29.54C224.45 29.54 225.003 29.4333 225.483 29.22C225.976 29.0067 226.356 28.7133 226.623 28.34C226.89 27.9667 227.023 27.5333 227.023 27.04C227.023 26.5867 226.903 26.1867 226.663 25.84C226.436 25.48 226.123 25.2067 225.723 25.02C225.336 24.82 224.876 24.72 224.343 24.72H222.643V23.1H224.203C224.91 23.1 225.476 22.8933 225.903 22.48C226.33 22.0667 226.543 21.5267 226.543 20.86C226.543 20.42 226.423 20.02 226.183 19.66C225.943 19.3 225.61 19.02 225.183 18.82C224.77 18.6067 224.296 18.5 223.763 18.5C223.056 18.5 222.43 18.6267 221.883 18.88C221.35 19.12 220.796 19.5467 220.223 20.16L218.923 18.92C219.563 18.2267 220.303 17.7 221.143 17.34C221.983 16.9667 222.87 16.78 223.803 16.78C224.71 16.78 225.51 16.9467 226.203 17.28C226.91 17.6133 227.463 18.08 227.863 18.68C228.276 19.2667 228.483 19.9333 228.483 20.68C228.483 21.4133 228.236 22.0733 227.743 22.66C227.263 23.2333 226.63 23.6333 225.843 23.86C226.79 24.06 227.543 24.46 228.103 25.06C228.663 25.6467 228.943 26.34 228.943 27.14C228.943 27.9267 228.723 28.6267 228.283 29.24C227.856 29.8533 227.256 30.34 226.483 30.7C225.71 31.0467 224.83 31.22 223.843 31.22Z" fill="#151515"/>
<g clip-path="url(#clip2_4043_2390)">
<path d="M271 31.4999C270.87 31.4999 270.745 31.4499 270.645 31.3549C270.45 31.1599 270.45 30.8449 270.645 30.6499L277.29 24.0049L270.645 17.3549C270.45 17.1599 270.45 16.8449 270.645 16.6499C270.84 16.4549 271.155 16.4549 271.35 16.6499L278.175 23.4749C278.465 23.7649 278.465 24.2449 278.175 24.5349L271.35 31.3599C271.25 31.4599 271.125 31.5049 270.995 31.5049L271 31.4999Z" fill="#151515"/>
</g>
<g clip-path="url(#clip3_4043_2390)">
<path d="M331.175 23.47L324.355 16.645C324.16 16.45 323.845 16.45 323.65 16.645C323.455 16.84 323.455 17.155 323.65 17.35L330.295 23.995L323.65 30.64C323.455 30.835 323.455 31.15 323.65 31.345C323.75 31.445 323.875 31.49 324.005 31.49C324.135 31.49 324.26 31.44 324.36 31.345L331.185 24.52C331.475 24.23 331.475 23.75 331.185 23.46L331.175 23.47Z" fill="#151515"/>
<path d="M324.175 23.47L317.355 16.645C317.16 16.45 316.845 16.45 316.65 16.645C316.455 16.84 316.455 17.155 316.65 17.35L323.295 23.995L316.645 30.645C316.45 30.84 316.45 31.155 316.645 31.35C316.745 31.45 316.87 31.495 317 31.495C317.13 31.495 317.255 31.445 317.355 31.35L324.18 24.525C324.47 24.235 324.47 23.755 324.18 23.465L324.175 23.47Z" fill="#151515"/>
</g>
<path d="M102.924 104V92.8H107.548C108.273 92.8 108.903 92.9387 109.436 93.216C109.969 93.4827 110.38 93.8667 110.668 94.368C110.967 94.8587 111.116 95.44 111.116 96.112C111.116 96.7733 110.967 97.3547 110.668 97.856C110.38 98.3573 109.969 98.7467 109.436 99.024C108.903 99.2907 108.273 99.424 107.548 99.424H104.156V104H102.924ZM104.156 98.368H107.404C108.183 98.368 108.791 98.1653 109.228 97.76C109.665 97.3547 109.884 96.8053 109.884 96.112C109.884 95.4187 109.665 94.8747 109.228 94.48C108.791 94.0853 108.183 93.888 107.404 93.888H104.156V98.368ZM115.179 104.144C114.624 104.144 114.133 104.043 113.707 103.84C113.28 103.637 112.944 103.36 112.699 103.008C112.464 102.645 112.347 102.229 112.347 101.76C112.347 101.291 112.469 100.885 112.715 100.544C112.96 100.192 113.301 99.92 113.739 99.728C114.176 99.536 114.688 99.44 115.275 99.44C115.723 99.44 116.144 99.488 116.539 99.584C116.944 99.68 117.317 99.8347 117.659 100.048V98.976C117.659 98.336 117.488 97.856 117.147 97.536C116.805 97.2053 116.304 97.04 115.643 97.04C115.28 97.04 114.907 97.0933 114.523 97.2C114.149 97.3067 113.733 97.4773 113.275 97.712L112.843 96.816C113.888 96.3147 114.869 96.064 115.786 96.064C116.757 96.064 117.504 96.304 118.027 96.784C118.549 97.2533 118.811 97.9307 118.811 98.816V104H117.659V103.088C117.317 103.44 116.939 103.707 116.523 103.888C116.107 104.059 115.659 104.144 115.179 104.144ZM113.467 101.728C113.467 102.187 113.643 102.555 113.995 102.832C114.357 103.109 114.832 103.248 115.419 103.248C115.856 103.248 116.256 103.173 116.619 103.024C116.992 102.875 117.339 102.651 117.659 102.352V100.848C117.328 100.656 116.987 100.517 116.635 100.432C116.283 100.336 115.888 100.288 115.451 100.288C114.853 100.288 114.373 100.421 114.011 100.688C113.648 100.944 113.467 101.291 113.467 101.728ZM124.8 107.504C124.278 107.504 123.75 107.429 123.216 107.28C122.694 107.141 122.208 106.944 121.76 106.688L122.256 105.792C122.736 106.037 123.174 106.219 123.568 106.336C123.963 106.453 124.358 106.512 124.752 106.512C125.467 106.512 126.006 106.341 126.368 106C126.742 105.659 126.928 105.163 126.928 104.512V102.944C126.63 103.317 126.267 103.605 125.84 103.808C125.414 104 124.944 104.096 124.432 104.096C123.76 104.096 123.152 103.92 122.608 103.568C122.064 103.205 121.632 102.725 121.312 102.128C120.992 101.52 120.832 100.843 120.832 100.096C120.832 99.3493 120.992 98.6773 121.312 98.08C121.643 97.472 122.086 96.992 122.64 96.64C123.195 96.2773 123.814 96.096 124.496 96.096C124.987 96.096 125.44 96.192 125.856 96.384C126.272 96.5653 126.635 96.8373 126.944 97.2V96.192H128.096V104.496C128.096 105.467 127.814 106.208 127.248 106.72C126.683 107.243 125.867 107.504 124.8 107.504ZM124.72 103.088C125.179 103.088 125.6 102.997 125.984 102.816C126.368 102.624 126.683 102.363 126.928 102.032V98.176C126.672 97.8453 126.347 97.5893 125.952 97.408C125.568 97.216 125.158 97.12 124.72 97.12C124.198 97.12 123.728 97.248 123.312 97.504C122.907 97.76 122.582 98.112 122.336 98.56C122.102 99.008 121.984 99.52 121.984 100.096C121.984 100.661 122.102 101.173 122.336 101.632C122.582 102.08 122.907 102.437 123.312 102.704C123.728 102.96 124.198 103.088 124.72 103.088ZM134.017 104.16C133.292 104.16 132.636 103.984 132.049 103.632C131.462 103.269 130.998 102.784 130.657 102.176C130.316 101.557 130.145 100.864 130.145 100.096C130.145 99.328 130.305 98.64 130.625 98.032C130.956 97.424 131.398 96.944 131.953 96.592C132.508 96.24 133.126 96.064 133.809 96.064C134.502 96.064 135.116 96.24 135.649 96.592C136.193 96.9333 136.62 97.4027 136.929 98C137.249 98.5867 137.409 99.2533 137.409 100V100.352H131.281C131.324 100.885 131.468 101.365 131.713 101.792C131.969 102.208 132.3 102.539 132.705 102.784C133.121 103.019 133.574 103.136 134.065 103.136C134.47 103.136 134.86 103.067 135.233 102.928C135.617 102.779 135.942 102.581 136.209 102.336L136.945 103.12C136.497 103.472 136.033 103.733 135.553 103.904C135.073 104.075 134.561 104.16 134.017 104.16ZM131.313 99.52H136.257C136.204 99.0507 136.06 98.6347 135.825 98.272C135.601 97.8987 135.313 97.6053 134.961 97.392C134.62 97.1787 134.236 97.072 133.809 97.072C133.382 97.072 132.993 97.1787 132.641 97.392C132.289 97.5947 131.996 97.8827 131.761 98.256C131.537 98.6187 131.388 99.04 131.313 99.52Z" fill="#151515"/>
<g filter="url(#filter0_i_4043_2390)">
<mask id="path-13-inside-2_4043_2390" fill="white">
<path d="M146.5 80H210.5V116H146.5V80Z"/>
</mask>
<path d="M146.5 80H210.5V116H146.5V80Z" fill="white"/>
<path d="M146.5 80V79H145.5V80H146.5ZM210.5 80H211.5V79H210.5V80ZM146.5 81H210.5V79H146.5V81ZM209.5 80V116H211.5V80H209.5ZM147.5 116V80H145.5V116H147.5Z" fill="#C7C7C7" mask="url(#path-13-inside-2_4043_2390)"/>
<path d="M156.948 104V94.048L155.156 94.848V93.792L157.38 92.8H158.1V104H156.948Z" fill="#151515"/>
</g>
<path d="M223.156 104.128C222.431 104.128 221.78 103.952 221.204 103.6C220.628 103.248 220.175 102.768 219.844 102.16C219.513 101.552 219.348 100.864 219.348 100.096C219.348 99.328 219.513 98.64 219.844 98.032C220.175 97.424 220.628 96.944 221.204 96.592C221.78 96.24 222.431 96.064 223.156 96.064C223.871 96.064 224.511 96.24 225.076 96.592C225.652 96.944 226.105 97.424 226.436 98.032C226.767 98.64 226.932 99.328 226.932 100.096C226.932 100.864 226.767 101.552 226.436 102.16C226.105 102.768 225.652 103.248 225.076 103.6C224.511 103.952 223.871 104.128 223.156 104.128ZM223.14 103.104C223.652 103.104 224.105 102.976 224.5 102.72C224.895 102.453 225.204 102.091 225.428 101.632C225.663 101.173 225.78 100.661 225.78 100.096C225.78 99.52 225.663 99.008 225.428 98.56C225.204 98.1013 224.895 97.744 224.5 97.488C224.105 97.2213 223.652 97.088 223.14 97.088C222.628 97.088 222.175 97.2213 221.78 97.488C221.385 97.744 221.071 98.1013 220.836 98.56C220.612 99.008 220.5 99.52 220.5 100.096C220.5 100.661 220.612 101.173 220.836 101.632C221.071 102.091 221.385 102.453 221.78 102.72C222.175 102.976 222.628 103.104 223.14 103.104ZM229.489 104V97.152H227.745V96.192H229.489V94.56C229.489 93.792 229.692 93.2 230.097 92.784C230.502 92.368 231.078 92.16 231.825 92.16C232.038 92.16 232.23 92.1707 232.401 92.192C232.582 92.2133 232.742 92.2507 232.881 92.304V93.36C232.71 93.3067 232.556 93.2693 232.417 93.248C232.278 93.2267 232.118 93.216 231.937 93.216C231.489 93.216 231.164 93.328 230.961 93.552C230.758 93.7653 230.657 94.1067 230.657 94.576V96.192H232.881V97.152H230.657V104H229.489Z" fill="#151515"/>
<path d="M241.465 104.176C240.697 104.176 239.977 104.043 239.305 103.776C238.644 103.509 238.057 103.115 237.545 102.592L238.313 101.84C238.782 102.309 239.262 102.651 239.753 102.864C240.254 103.067 240.82 103.168 241.449 103.168C241.993 103.168 242.473 103.072 242.889 102.88C243.316 102.688 243.646 102.421 243.881 102.08C244.116 101.739 244.233 101.349 244.233 100.912C244.233 100.496 244.126 100.128 243.913 99.808C243.71 99.4773 243.428 99.2213 243.065 99.04C242.702 98.8587 242.286 98.768 241.817 98.768H240.489V97.776H241.769C242.377 97.776 242.868 97.5893 243.241 97.216C243.625 96.8427 243.817 96.3573 243.817 95.76C243.817 95.3653 243.71 95.008 243.497 94.688C243.284 94.368 242.99 94.1173 242.617 93.936C242.254 93.744 241.844 93.648 241.385 93.648C240.809 93.648 240.292 93.7547 239.833 93.968C239.385 94.1707 238.926 94.5173 238.457 95.008L237.689 94.24C238.19 93.7067 238.756 93.3067 239.385 93.04C240.014 92.7627 240.686 92.624 241.401 92.624C242.084 92.624 242.692 92.7573 243.225 93.024C243.769 93.2907 244.196 93.6587 244.505 94.128C244.814 94.5867 244.969 95.1093 244.969 95.696C244.969 96.2827 244.777 96.8107 244.393 97.28C244.009 97.7387 243.502 98.0587 242.873 98.24C243.63 98.4107 244.238 98.7413 244.697 99.232C245.156 99.7227 245.385 100.293 245.385 100.944C245.385 101.563 245.214 102.117 244.873 102.608C244.542 103.099 244.078 103.483 243.481 103.76C242.894 104.037 242.222 104.176 241.465 104.176Z" fill="#0066CC"/>
<defs>
<filter id="filter0_i_4043_2390" x="146.5" y="80" width="64" height="36" filterUnits="userSpaceOnUse" color-interpolation-filters="sRGB">
<feFlood flood-opacity="0" result="BackgroundImageFix"/>
<feBlend mode="normal" in="SourceGraphic" in2="BackgroundImageFix" result="shape"/>
<feColorMatrix in="SourceAlpha" type="matrix" values="0 0 0 0 0 0 0 0 0 0 0 0 0 0 0 0 0 0 127 0" result="hardAlpha"/>
<feOffset dy="-1"/>
<feComposite in2="hardAlpha" operator="arithmetic" k2="-1" k3="1"/>
<feColorMatrix type="matrix" values="0 0 0 0 0.301961 0 0 0 0 0.301961 0 0 0 0 0.301961 0 0 0 1 0"/>
<feBlend mode="normal" in2="shape" result="effect1_innerShadow_4043_2390"/>
</filter>
<clipPath id="clip0_4043_2390">
<rect width="16" height="16" fill="white" transform="translate(16 16)"/>
</clipPath>
<clipPath id="clip1_4043_2390">
<rect width="16" height="16" fill="white" transform="translate(66 16)"/>
</clipPath>
<clipPath id="clip2_4043_2390">
<rect width="16" height="16" fill="white" transform="translate(266 16)"/>
</clipPath>
<clipPath id="clip3_4043_2390">
<rect width="16" height="16" fill="white" transform="translate(316 16)"/>
</clipPath>
</defs>
</svg>
