<svg width="1140" height="48" viewBox="0 0 1140 48" fill="none" xmlns="http://www.w3.org/2000/svg">
<rect width="68" height="48" fill="#EE0000" fill-opacity="0.04"/>
<rect x="98" width="67" height="48" fill="#EE0000" fill-opacity="0.04"/>
<rect x="195" width="68" height="48" fill="#EE0000" fill-opacity="0.04"/>
<rect x="293" width="67" height="48" fill="#EE0000" fill-opacity="0.04"/>
<rect x="390" width="68" height="48" fill="#EE0000" fill-opacity="0.04"/>
<rect x="488" width="67" height="48" fill="#EE0000" fill-opacity="0.04"/>
<rect x="585" width="68" height="48" fill="#EE0000" fill-opacity="0.04"/>
<rect x="683" width="67" height="48" fill="#EE0000" fill-opacity="0.04"/>
<rect x="780" width="68" height="48" fill="#EE0000" fill-opacity="0.04"/>
<rect x="878" width="67" height="48" fill="#EE0000" fill-opacity="0.04"/>
<rect x="975" width="68" height="48" fill="#EE0000" fill-opacity="0.04"/>
<rect x="1073" width="67" height="48" fill="#EE0000" fill-opacity="0.04"/>
<rect width="48" height="48" transform="translate(202)" fill="#F2F2F2"/>
<g clip-path="url(#clip0_6074_8372)">
<path d="M219.705 24.0002L226.355 17.3552C226.55 17.1602 226.55 16.8452 226.355 16.6502C226.16 16.4552 225.845 16.4552 225.65 16.6502L218.825 23.4702C218.535 23.7602 218.535 24.2402 218.825 24.5302L225.65 31.3552C225.75 31.4552 225.875 31.5002 226.005 31.5002C226.135 31.5002 226.26 31.4502 226.36 31.3552C226.555 31.1602 226.555 30.8452 226.36 30.6502L219.705 24.0002Z" fill="#A3A3A3"/>
<path d="M226.705 24.0002L233.355 17.3552C233.55 17.1602 233.55 16.8452 233.355 16.6502C233.16 16.4552 232.845 16.4552 232.65 16.6502L225.825 23.4752C225.535 23.7652 225.535 24.2452 225.825 24.5352L232.65 31.3602C232.75 31.4602 232.875 31.5052 233.005 31.5052C233.135 31.5052 233.26 31.4552 233.36 31.3602C233.555 31.1652 233.555 30.8502 233.36 30.6552L226.715 24.0102L226.705 24.0002Z" fill="#A3A3A3"/>
</g>
<rect width="48" height="48" transform="translate(252)" fill="#F2F2F2"/>
<g clip-path="url(#clip1_6074_8372)">
<path d="M279 31.4998C278.87 31.4998 278.745 31.4498 278.645 31.3548L271.82 24.5298C271.53 24.2398 271.53 23.7598 271.82 23.4698L278.645 16.6448C278.84 16.4498 279.155 16.4498 279.35 16.6448C279.545 16.8398 279.545 17.1548 279.35 17.3498L272.705 23.9948L279.35 30.6398C279.545 30.8348 279.545 31.1498 279.35 31.3448C279.25 31.4448 279.125 31.4898 278.995 31.4898L279 31.4998Z" fill="#A3A3A3"/>
</g>
<g filter="url(#filter0_i_6074_8372)">
<mask id="path-16-inside-1_6074_8372" fill="white">
<path d="M302 0H350V48H302V0Z"/>
</mask>
<path d="M302 0H350V48H302V0Z" fill="white"/>
<path d="M350 48V49H351V48H350ZM302 48H301V49H302V48ZM350 0H349V48H350H351V0H350ZM350 48V47H302V48V49H350V48ZM302 48H303V0H302H301V48H302Z" fill="#C7C7C7" mask="url(#path-16-inside-1_6074_8372)"/>
<path d="M325.875 31V19.06L323.355 20.12V18.36L326.595 17H327.855V31H325.875Z" fill="#151515"/>
</g>
<rect width="48" height="48" transform="translate(352)" fill="#F2F2F2"/>
<path d="M371.433 31V29.6L377.113 23.56C377.5 23.16 377.8 22.8 378.013 22.48C378.226 22.16 378.373 21.86 378.453 21.58C378.546 21.2867 378.593 20.98 378.593 20.66C378.593 20.0333 378.34 19.5133 377.833 19.1C377.326 18.6867 376.686 18.48 375.913 18.48C375.273 18.48 374.673 18.6067 374.113 18.86C373.553 19.1133 372.933 19.5533 372.253 20.18L371.173 18.86C371.92 18.1667 372.686 17.6467 373.473 17.3C374.273 16.9533 375.1 16.78 375.953 16.78C376.846 16.78 377.633 16.94 378.313 17.26C378.993 17.58 379.52 18.0267 379.893 18.6C380.28 19.16 380.473 19.8067 380.473 20.54C380.473 21.0067 380.413 21.44 380.293 21.84C380.173 22.2267 379.966 22.64 379.673 23.08C379.38 23.5067 378.966 24 378.433 24.56L373.873 29.36L380.753 29.34V31H371.433Z" fill="#151515"/>
<rect width="48" height="48" transform="translate(402)" fill="#F2F2F2"/>
<path d="M425.843 31.22C424.843 31.22 423.903 31.0467 423.023 30.7C422.156 30.34 421.403 29.8267 420.763 29.16L422.063 27.92C422.623 28.5067 423.19 28.9267 423.763 29.18C424.35 29.42 425.036 29.54 425.823 29.54C426.45 29.54 427.003 29.4333 427.483 29.22C427.976 29.0067 428.356 28.7133 428.623 28.34C428.89 27.9667 429.023 27.5333 429.023 27.04C429.023 26.5867 428.903 26.1867 428.663 25.84C428.436 25.48 428.123 25.2067 427.723 25.02C427.336 24.82 426.876 24.72 426.343 24.72H424.643V23.1H426.203C426.91 23.1 427.476 22.8933 427.903 22.48C428.33 22.0667 428.543 21.5267 428.543 20.86C428.543 20.42 428.423 20.02 428.183 19.66C427.943 19.3 427.61 19.02 427.183 18.82C426.77 18.6067 426.296 18.5 425.763 18.5C425.056 18.5 424.43 18.6267 423.883 18.88C423.35 19.12 422.796 19.5467 422.223 20.16L420.923 18.92C421.563 18.2267 422.303 17.7 423.143 17.34C423.983 16.9667 424.87 16.78 425.803 16.78C426.71 16.78 427.51 16.9467 428.203 17.28C428.91 17.6133 429.463 18.08 429.863 18.68C430.276 19.2667 430.483 19.9333 430.483 20.68C430.483 21.4133 430.236 22.0733 429.743 22.66C429.263 23.2333 428.63 23.6333 427.843 23.86C428.79 24.06 429.543 24.46 430.103 25.06C430.663 25.6467 430.943 26.34 430.943 27.14C430.943 27.9267 430.723 28.6267 430.283 29.24C429.856 29.8533 429.256 30.34 428.483 30.7C427.71 31.0467 426.83 31.22 425.843 31.22Z" fill="#151515"/>
<rect width="48" height="48" transform="translate(452)" fill="#F2F2F2"/>
<path d="M471.433 31V29.6L477.113 23.56C477.5 23.16 477.8 22.8 478.013 22.48C478.226 22.16 478.373 21.86 478.453 21.58C478.546 21.2867 478.593 20.98 478.593 20.66C478.593 20.0333 478.34 19.5133 477.833 19.1C477.326 18.6867 476.686 18.48 475.913 18.48C475.273 18.48 474.673 18.6067 474.113 18.86C473.553 19.1133 472.933 19.5533 472.253 20.18L471.173 18.86C471.92 18.1667 472.686 17.6467 473.473 17.3C474.273 16.9533 475.1 16.78 475.953 16.78C476.846 16.78 477.633 16.94 478.313 17.26C478.993 17.58 479.52 18.0267 479.893 18.6C480.28 19.16 480.473 19.8067 480.473 20.54C480.473 21.0067 480.413 21.44 480.293 21.84C480.173 22.2267 479.966 22.64 479.673 23.08C479.38 23.5067 478.966 24 478.433 24.56L473.873 29.36L480.753 29.34V31H471.433Z" fill="#151515"/>
<rect width="48" height="48" transform="translate(502)" fill="#F2F2F2"/>
<path d="M525.843 31.22C524.843 31.22 523.903 31.0467 523.023 30.7C522.156 30.34 521.403 29.8267 520.763 29.16L522.063 27.92C522.623 28.5067 523.19 28.9267 523.763 29.18C524.35 29.42 525.036 29.54 525.823 29.54C526.45 29.54 527.003 29.4333 527.483 29.22C527.976 29.0067 528.356 28.7133 528.623 28.34C528.89 27.9667 529.023 27.5333 529.023 27.04C529.023 26.5867 528.903 26.1867 528.663 25.84C528.436 25.48 528.123 25.2067 527.723 25.02C527.336 24.82 526.876 24.72 526.343 24.72H524.643V23.1H526.203C526.91 23.1 527.476 22.8933 527.903 22.48C528.33 22.0667 528.543 21.5267 528.543 20.86C528.543 20.42 528.423 20.02 528.183 19.66C527.943 19.3 527.61 19.02 527.183 18.82C526.77 18.6067 526.296 18.5 525.763 18.5C525.056 18.5 524.43 18.6267 523.883 18.88C523.35 19.12 522.796 19.5467 522.223 20.16L520.923 18.92C521.563 18.2267 522.303 17.7 523.143 17.34C523.983 16.9667 524.87 16.78 525.803 16.78C526.71 16.78 527.51 16.9467 528.203 17.28C528.91 17.6133 529.463 18.08 529.863 18.68C530.276 19.2667 530.483 19.9333 530.483 20.68C530.483 21.4133 530.236 22.0733 529.743 22.66C529.263 23.2333 528.63 23.6333 527.843 23.86C528.79 24.06 529.543 24.46 530.103 25.06C530.663 25.6467 530.943 26.34 530.943 27.14C530.943 27.9267 530.723 28.6267 530.283 29.24C529.856 29.8533 529.256 30.34 528.483 30.7C527.71 31.0467 526.83 31.22 525.843 31.22Z" fill="#151515"/>
<path d="M571 31.14C570.653 31.14 570.353 31.02 570.1 30.78C569.86 30.5267 569.74 30.2267 569.74 29.88C569.74 29.5333 569.86 29.24 570.1 29C570.353 28.7467 570.653 28.62 571 28.62C571.347 28.62 571.64 28.7467 571.88 29C572.133 29.24 572.26 29.5333 572.26 29.88C572.26 30.2267 572.133 30.5267 571.88 30.78C571.64 31.02 571.347 31.14 571 31.14ZM576 31.14C575.653 31.14 575.353 31.02 575.1 30.78C574.86 30.5267 574.74 30.2267 574.74 29.88C574.74 29.5333 574.86 29.24 575.1 29C575.353 28.7467 575.653 28.62 576 28.62C576.347 28.62 576.64 28.7467 576.88 29C577.133 29.24 577.26 29.5333 577.26 29.88C577.26 30.2267 577.133 30.5267 576.88 30.78C576.64 31.02 576.347 31.14 576 31.14ZM581 31.14C580.653 31.14 580.353 31.02 580.1 30.78C579.86 30.5267 579.74 30.2267 579.74 29.88C579.74 29.5333 579.86 29.24 580.1 29C580.353 28.7467 580.653 28.62 581 28.62C581.347 28.62 581.64 28.7467 581.88 29C582.133 29.24 582.26 29.5333 582.26 29.88C582.26 30.2267 582.133 30.5267 581.88 30.78C581.64 31.02 581.347 31.14 581 31.14Z" fill="#A3A3A3"/>
<rect width="48" height="48" transform="translate(602)" fill="#F2F2F2"/>
<path d="M619.071 31.22C617.204 31.22 615.584 30.5867 614.211 29.32L615.391 28C615.991 28.5467 616.584 28.9467 617.171 29.2C617.771 29.44 618.424 29.56 619.131 29.56C619.771 29.56 620.324 29.44 620.791 29.2C621.257 28.9467 621.624 28.6 621.891 28.16C622.157 27.7067 622.291 27.1933 622.291 26.62C622.291 25.78 621.991 25.1 621.391 24.58C620.804 24.06 620.037 23.8 619.091 23.8C618.611 23.8 618.137 23.8667 617.671 24C617.204 24.12 616.717 24.3133 616.211 24.58L614.851 24.16L615.171 17H623.491V18.66H616.851L616.651 22.98C617.171 22.7133 617.664 22.5333 618.131 22.44C618.611 22.3333 619.104 22.28 619.611 22.28C620.544 22.28 621.351 22.46 622.031 22.82C622.724 23.1667 623.264 23.66 623.651 24.3C624.037 24.94 624.231 25.68 624.231 26.52C624.231 27.4533 624.011 28.2733 623.571 28.98C623.144 29.6733 622.544 30.22 621.771 30.62C620.997 31.02 620.097 31.22 619.071 31.22ZM631.831 31.22C630.658 31.22 629.631 30.92 628.751 30.32C627.871 29.7067 627.178 28.86 626.671 27.78C626.178 26.6867 625.931 25.4267 625.931 24C625.931 22.5733 626.178 21.32 626.671 20.24C627.178 19.1467 627.871 18.3 628.751 17.7C629.631 17.0867 630.658 16.78 631.831 16.78C632.991 16.78 634.011 17.0867 634.891 17.7C635.771 18.3 636.458 19.1467 636.951 20.24C637.458 21.32 637.711 22.5733 637.711 24C637.711 25.4267 637.458 26.6867 636.951 27.78C636.458 28.86 635.771 29.7067 634.891 30.32C634.011 30.92 632.991 31.22 631.831 31.22ZM631.831 29.48C632.631 29.48 633.325 29.26 633.911 28.82C634.498 28.3667 634.951 27.7267 635.271 26.9C635.591 26.0733 635.751 25.1067 635.751 24C635.751 22.88 635.591 21.9133 635.271 21.1C634.951 20.2733 634.498 19.64 633.911 19.2C633.325 18.7467 632.631 18.52 631.831 18.52C631.031 18.52 630.331 18.7467 629.731 19.2C629.145 19.64 628.691 20.2733 628.371 21.1C628.051 21.9133 627.891 22.88 627.891 24C627.891 25.1067 628.051 26.0733 628.371 26.9C628.691 27.7267 629.145 28.3667 629.731 28.82C630.331 29.26 631.031 29.48 631.831 29.48Z" fill="#151515"/>
<rect width="48" height="48" transform="translate(652)" fill="#F2F2F2"/>
<g clip-path="url(#clip2_6074_8372)">
<path d="M673 31.5002C672.87 31.5002 672.745 31.4502 672.645 31.3552C672.45 31.1602 672.45 30.8452 672.645 30.6502L679.29 24.0052L672.645 17.3552C672.45 17.1602 672.45 16.8452 672.645 16.6502C672.84 16.4552 673.155 16.4552 673.35 16.6502L680.175 23.4752C680.465 23.7652 680.465 24.2452 680.175 24.5352L673.35 31.3602C673.25 31.4602 673.125 31.5052 672.995 31.5052L673 31.5002Z" fill="#151515"/>
</g>
<rect width="48" height="48" transform="translate(702)" fill="#F2F2F2"/>
<g clip-path="url(#clip3_6074_8372)">
<path d="M733.175 23.4698L726.355 16.6448C726.16 16.4498 725.845 16.4498 725.65 16.6448C725.455 16.8398 725.455 17.1548 725.65 17.3498L732.295 23.9948L725.65 30.6398C725.455 30.8348 725.455 31.1498 725.65 31.3448C725.75 31.4448 725.875 31.4898 726.005 31.4898C726.135 31.4898 726.26 31.4398 726.36 31.3448L733.185 24.5198C733.475 24.2298 733.475 23.7498 733.185 23.4598L733.175 23.4698Z" fill="#151515"/>
<path d="M726.175 23.4698L719.355 16.6448C719.16 16.4498 718.845 16.4498 718.65 16.6448C718.455 16.8398 718.455 17.1548 718.65 17.3498L725.295 23.9948L718.645 30.6448C718.45 30.8398 718.45 31.1548 718.645 31.3498C718.745 31.4498 718.87 31.4948 719 31.4948C719.13 31.4948 719.255 31.4448 719.355 31.3498L726.18 24.5248C726.47 24.2348 726.47 23.7548 726.18 23.4648L726.175 23.4698Z" fill="#151515"/>
</g>
<path d="M783.424 30V18.8H788.048C788.773 18.8 789.403 18.9387 789.936 19.216C790.469 19.4827 790.88 19.8667 791.168 20.368C791.467 20.8587 791.616 21.44 791.616 22.112C791.616 22.7733 791.467 23.3547 791.168 23.856C790.88 24.3573 790.469 24.7467 789.936 25.024C789.403 25.2907 788.773 25.424 788.048 25.424H784.656V30H783.424ZM784.656 24.368H787.904C788.683 24.368 789.291 24.1653 789.728 23.76C790.165 23.3547 790.384 22.8053 790.384 22.112C790.384 21.4187 790.165 20.8747 789.728 20.48C789.291 20.0853 788.683 19.888 787.904 19.888H784.656V24.368ZM795.679 30.144C795.124 30.144 794.633 30.0427 794.207 29.84C793.78 29.6373 793.444 29.36 793.199 29.008C792.964 28.6453 792.847 28.2293 792.847 27.76C792.847 27.2907 792.969 26.8853 793.215 26.544C793.46 26.192 793.801 25.92 794.239 25.728C794.676 25.536 795.188 25.44 795.775 25.44C796.223 25.44 796.644 25.488 797.039 25.584C797.444 25.68 797.817 25.8347 798.159 26.048V24.976C798.159 24.336 797.988 23.856 797.647 23.536C797.305 23.2053 796.804 23.04 796.143 23.04C795.78 23.04 795.407 23.0933 795.023 23.2C794.649 23.3067 794.233 23.4773 793.775 23.712L793.343 22.816C794.388 22.3147 795.369 22.064 796.286 22.064C797.257 22.064 798.004 22.304 798.527 22.784C799.049 23.2533 799.311 23.9307 799.311 24.816V30H798.159V29.088C797.817 29.44 797.439 29.7067 797.023 29.888C796.607 30.0587 796.159 30.144 795.679 30.144ZM793.967 27.728C793.967 28.1867 794.143 28.5547 794.495 28.832C794.857 29.1093 795.332 29.248 795.919 29.248C796.356 29.248 796.756 29.1733 797.119 29.024C797.492 28.8747 797.839 28.6507 798.159 28.352V26.848C797.828 26.656 797.487 26.5173 797.135 26.432C796.783 26.336 796.388 26.288 795.951 26.288C795.353 26.288 794.873 26.4213 794.511 26.688C794.148 26.944 793.967 27.2907 793.967 27.728ZM805.3 33.504C804.778 33.504 804.25 33.4293 803.716 33.28C803.194 33.1413 802.708 32.944 802.26 32.688L802.756 31.792C803.236 32.0373 803.674 32.2187 804.068 32.336C804.463 32.4533 804.858 32.512 805.252 32.512C805.967 32.512 806.506 32.3413 806.868 32C807.242 31.6587 807.428 31.1627 807.428 30.512V28.944C807.13 29.3173 806.767 29.6053 806.34 29.808C805.914 30 805.444 30.096 804.932 30.096C804.26 30.096 803.652 29.92 803.108 29.568C802.564 29.2053 802.132 28.7253 801.812 28.128C801.492 27.52 801.332 26.8427 801.332 26.096C801.332 25.3493 801.492 24.6773 801.812 24.08C802.143 23.472 802.586 22.992 803.14 22.64C803.695 22.2773 804.314 22.096 804.996 22.096C805.487 22.096 805.94 22.192 806.356 22.384C806.772 22.5653 807.135 22.8373 807.444 23.2V22.192H808.596V30.496C808.596 31.4667 808.314 32.208 807.748 32.72C807.183 33.2427 806.367 33.504 805.3 33.504ZM805.22 29.088C805.679 29.088 806.1 28.9973 806.484 28.816C806.868 28.624 807.183 28.3627 807.428 28.032V24.176C807.172 23.8453 806.847 23.5893 806.452 23.408C806.068 23.216 805.658 23.12 805.22 23.12C804.698 23.12 804.228 23.248 803.812 23.504C803.407 23.76 803.082 24.112 802.836 24.56C802.602 25.008 802.484 25.52 802.484 26.096C802.484 26.6613 802.602 27.1733 802.836 27.632C803.082 28.08 803.407 28.4373 803.812 28.704C804.228 28.96 804.698 29.088 805.22 29.088ZM814.517 30.16C813.792 30.16 813.136 29.984 812.549 29.632C811.962 29.2693 811.498 28.784 811.157 28.176C810.816 27.5573 810.645 26.864 810.645 26.096C810.645 25.328 810.805 24.64 811.125 24.032C811.456 23.424 811.898 22.944 812.453 22.592C813.008 22.24 813.626 22.064 814.309 22.064C815.002 22.064 815.616 22.24 816.149 22.592C816.693 22.9333 817.12 23.4027 817.429 24C817.749 24.5867 817.909 25.2533 817.909 26V26.352H811.781C811.824 26.8853 811.968 27.3653 812.213 27.792C812.469 28.208 812.8 28.5387 813.205 28.784C813.621 29.0187 814.074 29.136 814.565 29.136C814.97 29.136 815.36 29.0667 815.733 28.928C816.117 28.7787 816.442 28.5813 816.709 28.336L817.445 29.12C816.997 29.472 816.533 29.7333 816.053 29.904C815.573 30.0747 815.061 30.16 814.517 30.16ZM811.813 25.52H816.757C816.704 25.0507 816.56 24.6347 816.325 24.272C816.101 23.8987 815.813 23.6053 815.461 23.392C815.12 23.1787 814.736 23.072 814.309 23.072C813.882 23.072 813.493 23.1787 813.141 23.392C812.789 23.5947 812.496 23.8827 812.261 24.256C812.037 24.6187 811.888 25.04 811.813 25.52Z" fill="#151515"/>
<g filter="url(#filter1_i_6074_8372)">
<mask id="path-29-inside-2_6074_8372" fill="white">
<path d="M827 6H891V42H827V6Z"/>
</mask>
<path d="M827 6H891V42H827V6Z" fill="white"/>
<path d="M827 6V5H826V6H827ZM891 6H892V5H891V6ZM827 6V7H891V6V5H827V6ZM891 6H890V42H891H892V6H891ZM827 42H828V6H827H826V42H827Z" fill="#C7C7C7" mask="url(#path-29-inside-2_6074_8372)"/>
<path d="M837.448 30V20.048L835.656 20.848V19.792L837.88 18.8H838.6V30H837.448Z" fill="#151515"/>
</g>
<path d="M903.656 30.128C902.931 30.128 902.28 29.952 901.704 29.6C901.128 29.248 900.675 28.768 900.344 28.16C900.013 27.552 899.848 26.864 899.848 26.096C899.848 25.328 900.013 24.64 900.344 24.032C900.675 23.424 901.128 22.944 901.704 22.592C902.28 22.24 902.931 22.064 903.656 22.064C904.371 22.064 905.011 22.24 905.576 22.592C906.152 22.944 906.605 23.424 906.936 24.032C907.267 24.64 907.432 25.328 907.432 26.096C907.432 26.864 907.267 27.552 906.936 28.16C906.605 28.768 906.152 29.248 905.576 29.6C905.011 29.952 904.371 30.128 903.656 30.128ZM903.64 29.104C904.152 29.104 904.605 28.976 905 28.72C905.395 28.4533 905.704 28.0907 905.928 27.632C906.163 27.1733 906.28 26.6613 906.28 26.096C906.28 25.52 906.163 25.008 905.928 24.56C905.704 24.1013 905.395 23.744 905 23.488C904.605 23.2213 904.152 23.088 903.64 23.088C903.128 23.088 902.675 23.2213 902.28 23.488C901.885 23.744 901.571 24.1013 901.336 24.56C901.112 25.008 901 25.52 901 26.096C901 26.6613 901.112 27.1733 901.336 27.632C901.571 28.0907 901.885 28.4533 902.28 28.72C902.675 28.976 903.128 29.104 903.64 29.104ZM909.989 30V23.152H908.245V22.192H909.989V20.56C909.989 19.792 910.192 19.2 910.597 18.784C911.002 18.368 911.578 18.16 912.325 18.16C912.538 18.16 912.73 18.1707 912.901 18.192C913.082 18.2133 913.242 18.2507 913.381 18.304V19.36C913.21 19.3067 913.056 19.2693 912.917 19.248C912.778 19.2267 912.618 19.216 912.437 19.216C911.989 19.216 911.664 19.328 911.461 19.552C911.258 19.7653 911.157 20.1067 911.157 20.576V22.192H913.381V23.152H911.157V30H909.989Z" fill="#151515"/>
<path d="M921.853 30.176C920.381 30.176 919.112 29.6693 918.045 28.656L918.765 27.872C919.256 28.3307 919.741 28.6667 920.221 28.88C920.712 29.0827 921.261 29.184 921.869 29.184C922.413 29.184 922.893 29.072 923.309 28.848C923.725 28.624 924.045 28.3093 924.269 27.904C924.504 27.4987 924.621 27.0347 924.621 26.512C924.621 25.7653 924.365 25.1627 923.853 24.704C923.352 24.2453 922.69 24.016 921.869 24.016C921.442 24.016 921.026 24.0693 920.621 24.176C920.216 24.272 919.794 24.432 919.357 24.656L918.557 24.4L918.813 18.8H925.181V19.808H919.805L919.629 23.68C920.056 23.4667 920.466 23.3173 920.861 23.232C921.256 23.136 921.672 23.088 922.109 23.088C922.845 23.088 923.485 23.232 924.029 23.52C924.584 23.7973 925.01 24.192 925.309 24.704C925.618 25.2053 925.773 25.792 925.773 26.464C925.773 27.2 925.608 27.8453 925.277 28.4C924.946 28.9547 924.488 29.392 923.901 29.712C923.314 30.0213 922.632 30.176 921.853 30.176ZM931.858 30.176C931.005 30.176 930.247 29.9307 929.586 29.44C928.935 28.9493 928.423 28.272 928.05 27.408C927.677 26.5333 927.49 25.5307 927.49 24.4C927.49 23.2587 927.677 22.256 928.05 21.392C928.423 20.528 928.935 19.8507 929.586 19.36C930.247 18.8693 931.005 18.624 931.858 18.624C932.711 18.624 933.463 18.8693 934.114 19.36C934.775 19.8507 935.293 20.528 935.666 21.392C936.039 22.256 936.226 23.2587 936.226 24.4C936.226 25.5307 936.039 26.5333 935.666 27.408C935.293 28.272 934.775 28.9493 934.114 29.44C933.463 29.9307 932.711 30.176 931.858 30.176ZM931.858 29.136C932.509 29.136 933.069 28.944 933.538 28.56C934.018 28.1653 934.391 27.616 934.658 26.912C934.925 26.1973 935.058 25.36 935.058 24.4C935.058 23.44 934.925 22.608 934.658 21.904C934.391 21.1893 934.018 20.64 933.538 20.256C933.069 19.8613 932.509 19.664 931.858 19.664C931.218 19.664 930.658 19.8613 930.178 20.256C929.698 20.64 929.325 21.1893 929.058 21.904C928.791 22.608 928.658 23.44 928.658 24.4C928.658 25.36 928.791 26.1973 929.058 26.912C929.325 27.616 929.698 28.1653 930.178 28.56C930.658 28.944 931.218 29.136 931.858 29.136Z" fill="#0066CC"/>
<line x1="918.5" y1="34.5313" x2="935.5" y2="34.5312" stroke="#707070" stroke-linecap="square" stroke-dasharray="3 3"/>
<defs>
<filter id="filter0_i_6074_8372" x="302" y="0" width="48" height="48" filterUnits="userSpaceOnUse" color-interpolation-filters="sRGB">
<feFlood flood-opacity="0" result="BackgroundImageFix"/>
<feBlend mode="normal" in="SourceGraphic" in2="BackgroundImageFix" result="shape"/>
<feColorMatrix in="SourceAlpha" type="matrix" values="0 0 0 0 0 0 0 0 0 0 0 0 0 0 0 0 0 0 127 0" result="hardAlpha"/>
<feOffset dy="3"/>
<feComposite in2="hardAlpha" operator="arithmetic" k2="-1" k3="1"/>
<feColorMatrix type="matrix" values="0 0 0 0 0 0 0 0 0 0.4 0 0 0 0 0.8 0 0 0 1 0"/>
<feBlend mode="normal" in2="shape" result="effect1_innerShadow_6074_8372"/>
</filter>
<filter id="filter1_i_6074_8372" x="827" y="6" width="64" height="36" filterUnits="userSpaceOnUse" color-interpolation-filters="sRGB">
<feFlood flood-opacity="0" result="BackgroundImageFix"/>
<feBlend mode="normal" in="SourceGraphic" in2="BackgroundImageFix" result="shape"/>
<feColorMatrix in="SourceAlpha" type="matrix" values="0 0 0 0 0 0 0 0 0 0 0 0 0 0 0 0 0 0 127 0" result="hardAlpha"/>
<feOffset dy="-1"/>
<feComposite in2="hardAlpha" operator="arithmetic" k2="-1" k3="1"/>
<feColorMatrix type="matrix" values="0 0 0 0 0.301961 0 0 0 0 0.301961 0 0 0 0 0.301961 0 0 0 1 0"/>
<feBlend mode="normal" in2="shape" result="effect1_innerShadow_6074_8372"/>
</filter>
<clipPath id="clip0_6074_8372">
<rect width="16" height="16" fill="white" transform="translate(218 16)"/>
</clipPath>
<clipPath id="clip1_6074_8372">
<rect width="16" height="16" fill="white" transform="translate(268 16)"/>
</clipPath>
<clipPath id="clip2_6074_8372">
<rect width="16" height="16" fill="white" transform="translate(668 16)"/>
</clipPath>
<clipPath id="clip3_6074_8372">
<rect width="16" height="16" fill="white" transform="translate(718 16)"/>
</clipPath>
</defs>
</svg>
