<svg width="548" height="116" viewBox="0 0 548 116" fill="none" xmlns="http://www.w3.org/2000/svg">
<rect width="48" height="48" fill="#F2F2F2"/>
<g clip-path="url(#clip0_6076_7628)">
<path d="M17.7049 23.9999L24.3549 17.3549C24.5499 17.1599 24.5499 16.8449 24.3549 16.6499C24.1599 16.4549 23.8449 16.4549 23.6499 16.6499L16.8249 23.4699C16.5349 23.7599 16.5349 24.2399 16.8249 24.5299L23.6499 31.3549C23.7499 31.4549 23.8749 31.4999 24.0049 31.4999C24.1349 31.4999 24.2599 31.4499 24.3599 31.3549C24.5549 31.1599 24.5549 30.8449 24.3599 30.6499L17.7049 23.9999Z" fill="#151515"/>
<path d="M24.7049 23.9999L31.3549 17.3549C31.5499 17.1599 31.5499 16.8449 31.3549 16.6499C31.1599 16.4549 30.8449 16.4549 30.6499 16.6499L23.8249 23.4749C23.5349 23.7649 23.5349 24.2449 23.8249 24.5349L30.6499 31.3599C30.7499 31.4599 30.8749 31.5049 31.0049 31.5049C31.1349 31.5049 31.2599 31.4549 31.3599 31.3599C31.5549 31.1649 31.5549 30.8499 31.3599 30.6549L24.7149 24.0099L24.7049 23.9999Z" fill="#151515"/>
</g>
<rect width="48" height="48" transform="translate(50)" fill="#F2F2F2"/>
<g clip-path="url(#clip1_6076_7628)">
<path d="M77 31.5C76.87 31.5 76.745 31.45 76.645 31.355L69.82 24.53C69.53 24.24 69.53 23.76 69.82 23.47L76.645 16.645C76.84 16.45 77.155 16.45 77.35 16.645C77.545 16.84 77.545 17.155 77.35 17.35L70.705 23.995L77.35 30.64C77.545 30.835 77.545 31.15 77.35 31.345C77.25 31.445 77.125 31.49 76.995 31.49L77 31.5Z" fill="#151515"/>
</g>
<rect width="48" height="48" transform="translate(100)" fill="#F2F2F2"/>
<path d="M123.875 31V19.06L121.355 20.12V18.36L124.595 17H125.855V31H123.875Z" fill="#151515"/>
<rect width="48" height="48" transform="translate(150)" fill="#F2F2F2"/>
<path d="M169.433 31V29.6L175.113 23.56C175.5 23.16 175.8 22.8 176.013 22.48C176.226 22.16 176.373 21.86 176.453 21.58C176.546 21.2867 176.593 20.98 176.593 20.66C176.593 20.0333 176.34 19.5133 175.833 19.1C175.326 18.6867 174.686 18.48 173.913 18.48C173.273 18.48 172.673 18.6067 172.113 18.86C171.553 19.1133 170.933 19.5533 170.253 20.18L169.173 18.86C169.92 18.1667 170.686 17.6467 171.473 17.3C172.273 16.9533 173.1 16.78 173.953 16.78C174.846 16.78 175.633 16.94 176.313 17.26C176.993 17.58 177.52 18.0267 177.893 18.6C178.28 19.16 178.473 19.8067 178.473 20.54C178.473 21.0067 178.413 21.44 178.293 21.84C178.173 22.2267 177.966 22.64 177.673 23.08C177.38 23.5067 176.966 24 176.433 24.56L171.873 29.36L178.753 29.34V31H169.433Z" fill="#151515"/>
<rect width="48" height="48" transform="translate(200)" fill="#F2F2F2"/>
<path d="M223.843 31.22C222.843 31.22 221.903 31.0467 221.023 30.7C220.156 30.34 219.403 29.8267 218.763 29.16L220.063 27.92C220.623 28.5067 221.19 28.9267 221.763 29.18C222.35 29.42 223.036 29.54 223.823 29.54C224.45 29.54 225.003 29.4333 225.483 29.22C225.976 29.0067 226.356 28.7133 226.623 28.34C226.89 27.9667 227.023 27.5333 227.023 27.04C227.023 26.5867 226.903 26.1867 226.663 25.84C226.436 25.48 226.123 25.2067 225.723 25.02C225.336 24.82 224.876 24.72 224.343 24.72H222.643V23.1H224.203C224.91 23.1 225.476 22.8933 225.903 22.48C226.33 22.0667 226.543 21.5267 226.543 20.86C226.543 20.42 226.423 20.02 226.183 19.66C225.943 19.3 225.61 19.02 225.183 18.82C224.77 18.6067 224.296 18.5 223.763 18.5C223.056 18.5 222.43 18.6267 221.883 18.88C221.35 19.12 220.796 19.5467 220.223 20.16L218.923 18.92C219.563 18.2267 220.303 17.7 221.143 17.34C221.983 16.9667 222.87 16.78 223.803 16.78C224.71 16.78 225.51 16.9467 226.203 17.28C226.91 17.6133 227.463 18.08 227.863 18.68C228.276 19.2667 228.483 19.9333 228.483 20.68C228.483 21.4133 228.236 22.0733 227.743 22.66C227.263 23.2333 226.63 23.6333 225.843 23.86C226.79 24.06 227.543 24.46 228.103 25.06C228.663 25.6467 228.943 26.34 228.943 27.14C228.943 27.9267 228.723 28.6267 228.283 29.24C227.856 29.8533 227.256 30.34 226.483 30.7C225.71 31.0467 224.83 31.22 223.843 31.22Z" fill="#151515"/>
<g filter="url(#filter0_i_6076_7628)">
<mask id="path-7-inside-1_6076_7628" fill="white">
<path d="M250 0H298V48H250V0Z"/>
</mask>
<path d="M250 0H298V48H250V0Z" fill="white"/>
<path d="M298 48V49H299V48H298ZM250 48H249V49H250V48ZM298 0H297V48H298H299V0H298ZM298 48V47H250V48V49H298V48ZM250 48H251V0H250H249V48H250Z" fill="#C7C7C7" mask="url(#path-7-inside-1_6076_7628)"/>
<path d="M276.074 31V27.44H268.134V25.86L275.834 17H278.054V25.76H279.754V27.44H278.054V31H276.074ZM270.514 25.76H276.074V19.36L270.514 25.76Z" fill="#151515"/>
</g>
<rect width="48" height="48" transform="translate(300)" fill="#F2F2F2"/>
<path d="M323.78 31.22C321.913 31.22 320.293 30.5867 318.92 29.32L320.1 28C320.7 28.5467 321.293 28.9467 321.88 29.2C322.48 29.44 323.133 29.56 323.84 29.56C324.48 29.56 325.033 29.44 325.5 29.2C325.966 28.9467 326.333 28.6 326.6 28.16C326.866 27.7067 327 27.1933 327 26.62C327 25.78 326.7 25.1 326.1 24.58C325.513 24.06 324.746 23.8 323.8 23.8C323.32 23.8 322.846 23.8667 322.38 24C321.913 24.12 321.426 24.3133 320.92 24.58L319.56 24.16L319.88 17H328.2V18.66H321.56L321.36 22.98C321.88 22.7133 322.373 22.5333 322.84 22.44C323.32 22.3333 323.813 22.28 324.32 22.28C325.253 22.28 326.06 22.46 326.74 22.82C327.433 23.1667 327.973 23.66 328.36 24.3C328.746 24.94 328.94 25.68 328.94 26.52C328.94 27.4533 328.72 28.2733 328.28 28.98C327.853 29.6733 327.253 30.22 326.48 30.62C325.706 31.02 324.806 31.22 323.78 31.22Z" fill="#151515"/>
<path d="M369 31.14C368.653 31.14 368.353 31.02 368.1 30.78C367.86 30.5267 367.74 30.2267 367.74 29.88C367.74 29.5333 367.86 29.24 368.1 29C368.353 28.7467 368.653 28.62 369 28.62C369.347 28.62 369.64 28.7467 369.88 29C370.133 29.24 370.26 29.5333 370.26 29.88C370.26 30.2267 370.133 30.5267 369.88 30.78C369.64 31.02 369.347 31.14 369 31.14ZM374 31.14C373.653 31.14 373.353 31.02 373.1 30.78C372.86 30.5267 372.74 30.2267 372.74 29.88C372.74 29.5333 372.86 29.24 373.1 29C373.353 28.7467 373.653 28.62 374 28.62C374.347 28.62 374.64 28.7467 374.88 29C375.133 29.24 375.26 29.5333 375.26 29.88C375.26 30.2267 375.133 30.5267 374.88 30.78C374.64 31.02 374.347 31.14 374 31.14ZM379 31.14C378.653 31.14 378.353 31.02 378.1 30.78C377.86 30.5267 377.74 30.2267 377.74 29.88C377.74 29.5333 377.86 29.24 378.1 29C378.353 28.7467 378.653 28.62 379 28.62C379.347 28.62 379.64 28.7467 379.88 29C380.133 29.24 380.26 29.5333 380.26 29.88C380.26 30.2267 380.133 30.5267 379.88 30.78C379.64 31.02 379.347 31.14 379 31.14Z" fill="#A3A3A3"/>
<rect width="48" height="48" transform="translate(400)" fill="#F2F2F2"/>
<path d="M417.071 31.22C415.204 31.22 413.584 30.5867 412.211 29.32L413.391 28C413.991 28.5467 414.584 28.9467 415.171 29.2C415.771 29.44 416.424 29.56 417.131 29.56C417.771 29.56 418.324 29.44 418.791 29.2C419.257 28.9467 419.624 28.6 419.891 28.16C420.157 27.7067 420.291 27.1933 420.291 26.62C420.291 25.78 419.991 25.1 419.391 24.58C418.804 24.06 418.037 23.8 417.091 23.8C416.611 23.8 416.137 23.8667 415.671 24C415.204 24.12 414.717 24.3133 414.211 24.58L412.851 24.16L413.171 17H421.491V18.66H414.851L414.651 22.98C415.171 22.7133 415.664 22.5333 416.131 22.44C416.611 22.3333 417.104 22.28 417.611 22.28C418.544 22.28 419.351 22.46 420.031 22.82C420.724 23.1667 421.264 23.66 421.651 24.3C422.037 24.94 422.231 25.68 422.231 26.52C422.231 27.4533 422.011 28.2733 421.571 28.98C421.144 29.6733 420.544 30.22 419.771 30.62C418.997 31.02 418.097 31.22 417.071 31.22ZM429.831 31.22C428.658 31.22 427.631 30.92 426.751 30.32C425.871 29.7067 425.178 28.86 424.671 27.78C424.178 26.6867 423.931 25.4267 423.931 24C423.931 22.5733 424.178 21.32 424.671 20.24C425.178 19.1467 425.871 18.3 426.751 17.7C427.631 17.0867 428.658 16.78 429.831 16.78C430.991 16.78 432.011 17.0867 432.891 17.7C433.771 18.3 434.458 19.1467 434.951 20.24C435.458 21.32 435.711 22.5733 435.711 24C435.711 25.4267 435.458 26.6867 434.951 27.78C434.458 28.86 433.771 29.7067 432.891 30.32C432.011 30.92 430.991 31.22 429.831 31.22ZM429.831 29.48C430.631 29.48 431.325 29.26 431.911 28.82C432.498 28.3667 432.951 27.7267 433.271 26.9C433.591 26.0733 433.751 25.1067 433.751 24C433.751 22.88 433.591 21.9133 433.271 21.1C432.951 20.2733 432.498 19.64 431.911 19.2C431.325 18.7467 430.631 18.52 429.831 18.52C429.031 18.52 428.331 18.7467 427.731 19.2C427.145 19.64 426.691 20.2733 426.371 21.1C426.051 21.9133 425.891 22.88 425.891 24C425.891 25.1067 426.051 26.0733 426.371 26.9C426.691 27.7267 427.145 28.3667 427.731 28.82C428.331 29.26 429.031 29.48 429.831 29.48Z" fill="#151515"/>
<rect width="48" height="48" transform="translate(450)" fill="#F2F2F2"/>
<g clip-path="url(#clip2_6076_7628)">
<path d="M471 31.4999C470.87 31.4999 470.745 31.4499 470.645 31.3549C470.45 31.1599 470.45 30.8449 470.645 30.6499L477.29 24.0049L470.645 17.3549C470.45 17.1599 470.45 16.8449 470.645 16.6499C470.84 16.4549 471.155 16.4549 471.35 16.6499L478.175 23.4749C478.465 23.7649 478.465 24.2449 478.175 24.5349L471.35 31.3599C471.25 31.4599 471.125 31.5049 470.995 31.5049L471 31.4999Z" fill="#151515"/>
</g>
<rect width="48" height="48" transform="translate(500)" fill="#F2F2F2"/>
<g clip-path="url(#clip3_6076_7628)">
<path d="M531.175 23.47L524.355 16.645C524.16 16.45 523.845 16.45 523.65 16.645C523.455 16.84 523.455 17.155 523.65 17.35L530.295 23.995L523.65 30.64C523.455 30.835 523.455 31.15 523.65 31.345C523.75 31.445 523.875 31.49 524.005 31.49C524.135 31.49 524.26 31.44 524.36 31.345L531.185 24.52C531.475 24.23 531.475 23.75 531.185 23.46L531.175 23.47Z" fill="#151515"/>
<path d="M524.175 23.47L517.355 16.645C517.16 16.45 516.845 16.45 516.65 16.645C516.455 16.84 516.455 17.155 516.65 17.35L523.295 23.995L516.645 30.645C516.45 30.84 516.45 31.155 516.645 31.35C516.745 31.45 516.87 31.495 517 31.495C517.13 31.495 517.255 31.445 517.355 31.35L524.18 24.525C524.47 24.235 524.47 23.755 524.18 23.465L524.175 23.47Z" fill="#151515"/>
</g>
<path d="M197.424 104V92.8H202.048C202.773 92.8 203.403 92.9387 203.936 93.216C204.469 93.4827 204.88 93.8667 205.168 94.368C205.467 94.8587 205.616 95.44 205.616 96.112C205.616 96.7733 205.467 97.3547 205.168 97.856C204.88 98.3573 204.469 98.7467 203.936 99.024C203.403 99.2907 202.773 99.424 202.048 99.424H198.656V104H197.424ZM198.656 98.368H201.904C202.683 98.368 203.291 98.1653 203.728 97.76C204.165 97.3547 204.384 96.8053 204.384 96.112C204.384 95.4187 204.165 94.8747 203.728 94.48C203.291 94.0853 202.683 93.888 201.904 93.888H198.656V98.368ZM209.679 104.144C209.124 104.144 208.633 104.043 208.207 103.84C207.78 103.637 207.444 103.36 207.199 103.008C206.964 102.645 206.847 102.229 206.847 101.76C206.847 101.291 206.969 100.885 207.215 100.544C207.46 100.192 207.801 99.92 208.239 99.728C208.676 99.536 209.188 99.44 209.775 99.44C210.223 99.44 210.644 99.488 211.039 99.584C211.444 99.68 211.817 99.8347 212.159 100.048V98.976C212.159 98.336 211.988 97.856 211.647 97.536C211.305 97.2053 210.804 97.04 210.143 97.04C209.78 97.04 209.407 97.0933 209.023 97.2C208.649 97.3067 208.233 97.4773 207.775 97.712L207.343 96.816C208.388 96.3147 209.369 96.064 210.286 96.064C211.257 96.064 212.004 96.304 212.527 96.784C213.049 97.2533 213.311 97.9307 213.311 98.816V104H212.159V103.088C211.817 103.44 211.439 103.707 211.023 103.888C210.607 104.059 210.159 104.144 209.679 104.144ZM207.967 101.728C207.967 102.187 208.143 102.555 208.495 102.832C208.857 103.109 209.332 103.248 209.919 103.248C210.356 103.248 210.756 103.173 211.119 103.024C211.492 102.875 211.839 102.651 212.159 102.352V100.848C211.828 100.656 211.487 100.517 211.135 100.432C210.783 100.336 210.388 100.288 209.951 100.288C209.353 100.288 208.873 100.421 208.511 100.688C208.148 100.944 207.967 101.291 207.967 101.728ZM219.3 107.504C218.778 107.504 218.25 107.429 217.716 107.28C217.194 107.141 216.708 106.944 216.26 106.688L216.756 105.792C217.236 106.037 217.674 106.219 218.068 106.336C218.463 106.453 218.858 106.512 219.252 106.512C219.967 106.512 220.506 106.341 220.868 106C221.242 105.659 221.428 105.163 221.428 104.512V102.944C221.13 103.317 220.767 103.605 220.34 103.808C219.914 104 219.444 104.096 218.932 104.096C218.26 104.096 217.652 103.92 217.108 103.568C216.564 103.205 216.132 102.725 215.812 102.128C215.492 101.52 215.332 100.843 215.332 100.096C215.332 99.3493 215.492 98.6773 215.812 98.08C216.143 97.472 216.586 96.992 217.14 96.64C217.695 96.2773 218.314 96.096 218.996 96.096C219.487 96.096 219.94 96.192 220.356 96.384C220.772 96.5653 221.135 96.8373 221.444 97.2V96.192H222.596V104.496C222.596 105.467 222.314 106.208 221.748 106.72C221.183 107.243 220.367 107.504 219.3 107.504ZM219.22 103.088C219.679 103.088 220.1 102.997 220.484 102.816C220.868 102.624 221.183 102.363 221.428 102.032V98.176C221.172 97.8453 220.847 97.5893 220.452 97.408C220.068 97.216 219.658 97.12 219.22 97.12C218.698 97.12 218.228 97.248 217.812 97.504C217.407 97.76 217.082 98.112 216.836 98.56C216.602 99.008 216.484 99.52 216.484 100.096C216.484 100.661 216.602 101.173 216.836 101.632C217.082 102.08 217.407 102.437 217.812 102.704C218.228 102.96 218.698 103.088 219.22 103.088ZM228.517 104.16C227.792 104.16 227.136 103.984 226.549 103.632C225.962 103.269 225.498 102.784 225.157 102.176C224.816 101.557 224.645 100.864 224.645 100.096C224.645 99.328 224.805 98.64 225.125 98.032C225.456 97.424 225.898 96.944 226.453 96.592C227.008 96.24 227.626 96.064 228.309 96.064C229.002 96.064 229.616 96.24 230.149 96.592C230.693 96.9333 231.12 97.4027 231.429 98C231.749 98.5867 231.909 99.2533 231.909 100V100.352H225.781C225.824 100.885 225.968 101.365 226.213 101.792C226.469 102.208 226.8 102.539 227.205 102.784C227.621 103.019 228.074 103.136 228.565 103.136C228.97 103.136 229.36 103.067 229.733 102.928C230.117 102.779 230.442 102.581 230.709 102.336L231.445 103.12C230.997 103.472 230.533 103.733 230.053 103.904C229.573 104.075 229.061 104.16 228.517 104.16ZM225.813 99.52H230.757C230.704 99.0507 230.56 98.6347 230.325 98.272C230.101 97.8987 229.813 97.6053 229.461 97.392C229.12 97.1787 228.736 97.072 228.309 97.072C227.882 97.072 227.493 97.1787 227.141 97.392C226.789 97.5947 226.496 97.8827 226.261 98.256C226.037 98.6187 225.888 99.04 225.813 99.52Z" fill="#151515"/>
<g filter="url(#filter1_i_6076_7628)">
<mask id="path-17-inside-2_6076_7628" fill="white">
<path d="M241 80H305V116H241V80Z"/>
</mask>
<path d="M241 80H305V116H241V80Z" fill="white"/>
<path d="M241 80V79H240V80H241ZM305 80H306V79H305V80ZM241 80V81H305V80V79H241V80ZM305 80H304V116H305H306V80H305ZM241 116H242V80H241H240V116H241Z" fill="#C7C7C7" mask="url(#path-17-inside-2_6076_7628)"/>
<path d="M255.672 104V101.008H249.624V100.096L255.576 92.8H256.808V100H258.36V101.008H256.808V104H255.672ZM250.968 100H255.672V94.192L250.968 100Z" fill="#151515"/>
</g>
<path d="M317.656 104.128C316.931 104.128 316.28 103.952 315.704 103.6C315.128 103.248 314.675 102.768 314.344 102.16C314.013 101.552 313.848 100.864 313.848 100.096C313.848 99.328 314.013 98.64 314.344 98.032C314.675 97.424 315.128 96.944 315.704 96.592C316.28 96.24 316.931 96.064 317.656 96.064C318.371 96.064 319.011 96.24 319.576 96.592C320.152 96.944 320.605 97.424 320.936 98.032C321.267 98.64 321.432 99.328 321.432 100.096C321.432 100.864 321.267 101.552 320.936 102.16C320.605 102.768 320.152 103.248 319.576 103.6C319.011 103.952 318.371 104.128 317.656 104.128ZM317.64 103.104C318.152 103.104 318.605 102.976 319 102.72C319.395 102.453 319.704 102.091 319.928 101.632C320.163 101.173 320.28 100.661 320.28 100.096C320.28 99.52 320.163 99.008 319.928 98.56C319.704 98.1013 319.395 97.744 319 97.488C318.605 97.2213 318.152 97.088 317.64 97.088C317.128 97.088 316.675 97.2213 316.28 97.488C315.885 97.744 315.571 98.1013 315.336 98.56C315.112 99.008 315 99.52 315 100.096C315 100.661 315.112 101.173 315.336 101.632C315.571 102.091 315.885 102.453 316.28 102.72C316.675 102.976 317.128 103.104 317.64 103.104ZM323.989 104V97.152H322.245V96.192H323.989V94.56C323.989 93.792 324.192 93.2 324.597 92.784C325.002 92.368 325.578 92.16 326.325 92.16C326.538 92.16 326.73 92.1707 326.901 92.192C327.082 92.2133 327.242 92.2507 327.381 92.304V93.36C327.21 93.3067 327.056 93.2693 326.917 93.248C326.778 93.2267 326.618 93.216 326.437 93.216C325.989 93.216 325.664 93.328 325.461 93.552C325.258 93.7653 325.157 94.1067 325.157 94.576V96.192H327.381V97.152H325.157V104H323.989Z" fill="#151515"/>
<path d="M335.853 104.176C334.381 104.176 333.112 103.669 332.045 102.656L332.765 101.872C333.256 102.331 333.741 102.667 334.221 102.88C334.712 103.083 335.261 103.184 335.869 103.184C336.413 103.184 336.893 103.072 337.309 102.848C337.725 102.624 338.045 102.309 338.269 101.904C338.504 101.499 338.621 101.035 338.621 100.512C338.621 99.7653 338.365 99.1627 337.853 98.704C337.352 98.2453 336.69 98.016 335.869 98.016C335.442 98.016 335.026 98.0693 334.621 98.176C334.216 98.272 333.794 98.432 333.357 98.656L332.557 98.4L332.813 92.8H339.181V93.808H333.805L333.629 97.68C334.056 97.4667 334.466 97.3173 334.861 97.232C335.256 97.136 335.672 97.088 336.109 97.088C336.845 97.088 337.485 97.232 338.029 97.52C338.584 97.7973 339.01 98.192 339.309 98.704C339.618 99.2053 339.773 99.792 339.773 100.464C339.773 101.2 339.608 101.845 339.277 102.4C338.946 102.955 338.488 103.392 337.901 103.712C337.314 104.021 336.632 104.176 335.853 104.176ZM345.858 104.176C345.005 104.176 344.247 103.931 343.586 103.44C342.935 102.949 342.423 102.272 342.05 101.408C341.677 100.533 341.49 99.5307 341.49 98.4C341.49 97.2587 341.677 96.256 342.05 95.392C342.423 94.528 342.935 93.8507 343.586 93.36C344.247 92.8693 345.005 92.624 345.858 92.624C346.711 92.624 347.463 92.8693 348.114 93.36C348.775 93.8507 349.293 94.528 349.666 95.392C350.039 96.256 350.226 97.2587 350.226 98.4C350.226 99.5307 350.039 100.533 349.666 101.408C349.293 102.272 348.775 102.949 348.114 103.44C347.463 103.931 346.711 104.176 345.858 104.176ZM345.858 103.136C346.509 103.136 347.069 102.944 347.538 102.56C348.018 102.165 348.391 101.616 348.658 100.912C348.925 100.197 349.058 99.36 349.058 98.4C349.058 97.44 348.925 96.608 348.658 95.904C348.391 95.1893 348.018 94.64 347.538 94.256C347.069 93.8613 346.509 93.664 345.858 93.664C345.218 93.664 344.658 93.8613 344.178 94.256C343.698 94.64 343.325 95.1893 343.058 95.904C342.791 96.608 342.658 97.44 342.658 98.4C342.658 99.36 342.791 100.197 343.058 100.912C343.325 101.616 343.698 102.165 344.178 102.56C344.658 102.944 345.218 103.136 345.858 103.136Z" fill="#0066CC"/>
<line x1="332.5" y1="108.469" x2="349.5" y2="108.469" stroke="#707070" stroke-linecap="square" stroke-dasharray="3 3"/>
<defs>
<filter id="filter0_i_6076_7628" x="250" y="0" width="48" height="48" filterUnits="userSpaceOnUse" color-interpolation-filters="sRGB">
<feFlood flood-opacity="0" result="BackgroundImageFix"/>
<feBlend mode="normal" in="SourceGraphic" in2="BackgroundImageFix" result="shape"/>
<feColorMatrix in="SourceAlpha" type="matrix" values="0 0 0 0 0 0 0 0 0 0 0 0 0 0 0 0 0 0 127 0" result="hardAlpha"/>
<feOffset dy="3"/>
<feComposite in2="hardAlpha" operator="arithmetic" k2="-1" k3="1"/>
<feColorMatrix type="matrix" values="0 0 0 0 0 0 0 0 0 0.4 0 0 0 0 0.8 0 0 0 1 0"/>
<feBlend mode="normal" in2="shape" result="effect1_innerShadow_6076_7628"/>
</filter>
<filter id="filter1_i_6076_7628" x="241" y="80" width="64" height="36" filterUnits="userSpaceOnUse" color-interpolation-filters="sRGB">
<feFlood flood-opacity="0" result="BackgroundImageFix"/>
<feBlend mode="normal" in="SourceGraphic" in2="BackgroundImageFix" result="shape"/>
<feColorMatrix in="SourceAlpha" type="matrix" values="0 0 0 0 0 0 0 0 0 0 0 0 0 0 0 0 0 0 127 0" result="hardAlpha"/>
<feOffset dy="-1"/>
<feComposite in2="hardAlpha" operator="arithmetic" k2="-1" k3="1"/>
<feColorMatrix type="matrix" values="0 0 0 0 0.301961 0 0 0 0 0.301961 0 0 0 0 0.301961 0 0 0 1 0"/>
<feBlend mode="normal" in2="shape" result="effect1_innerShadow_6076_7628"/>
</filter>
<clipPath id="clip0_6076_7628">
<rect width="16" height="16" fill="white" transform="translate(16 16)"/>
</clipPath>
<clipPath id="clip1_6076_7628">
<rect width="16" height="16" fill="white" transform="translate(66 16)"/>
</clipPath>
<clipPath id="clip2_6076_7628">
<rect width="16" height="16" fill="white" transform="translate(466 16)"/>
</clipPath>
<clipPath id="clip3_6076_7628">
<rect width="16" height="16" fill="white" transform="translate(516 16)"/>
</clipPath>
</defs>
</svg>
