<svg width="736" height="611" viewBox="0 0 736 611" fill="none" xmlns="http://www.w3.org/2000/svg">
<g filter="url(#filter0_i_4111_7164)">
<rect width="48" height="48" transform="translate(0 -0.0078125)" fill="#292929"/>
<g clip-path="url(#clip0_4111_7164)">
<path d="M17.7049 23.9923L24.3549 17.3473C24.5499 17.1523 24.5499 16.8373 24.3549 16.6423C24.1599 16.4473 23.8449 16.4473 23.6499 16.6423L16.8249 23.4623C16.5349 23.7523 16.5349 24.2323 16.8249 24.5223L23.6499 31.3473C23.7499 31.4473 23.8749 31.4923 24.0049 31.4923C24.1349 31.4923 24.2599 31.4423 24.3599 31.3473C24.5549 31.1523 24.5549 30.8373 24.3599 30.6423L17.7049 23.9923Z" fill="white"/>
<path d="M24.7049 23.9923L31.3549 17.3473C31.5499 17.1523 31.5499 16.8373 31.3549 16.6423C31.1599 16.4473 30.8449 16.4473 30.6499 16.6423L23.8249 23.4673C23.5349 23.7573 23.5349 24.2373 23.8249 24.5273L30.6499 31.3523C30.7499 31.4523 30.8749 31.4973 31.0049 31.4973C31.1349 31.4973 31.2599 31.4473 31.3599 31.3523C31.5549 31.1573 31.5549 30.8423 31.3599 30.6473L24.7149 24.0023L24.7049 23.9923Z" fill="white"/>
</g>
</g>
<rect width="48" height="48" transform="translate(50 -0.0078125)" fill="#292929"/>
<g clip-path="url(#clip1_4111_7164)">
<path d="M77 31.4925C76.87 31.4925 76.745 31.4425 76.645 31.3475L69.82 24.5225C69.53 24.2325 69.53 23.7525 69.82 23.4625L76.645 16.6375C76.84 16.4425 77.155 16.4425 77.35 16.6375C77.545 16.8325 77.545 17.1475 77.35 17.3425L70.705 23.9875L77.35 30.6325C77.545 30.8275 77.545 31.1425 77.35 31.3375C77.25 31.4375 77.125 31.4825 76.995 31.4825L77 31.4925Z" fill="white"/>
</g>
<rect width="48" height="48" transform="translate(100 -0.0078125)" fill="#292929"/>
<path d="M123.875 30.9922V19.0522L121.355 20.1122V18.3522L124.595 16.9922H125.855V30.9922H123.875Z" fill="white"/>
<g filter="url(#filter1_i_4111_7164)">
<rect width="48" height="48" transform="translate(150 -0.0078125)" fill="#292929"/>
<path d="M169.433 30.9922V29.5922L175.113 23.5522C175.5 23.1522 175.8 22.7922 176.013 22.4722C176.226 22.1522 176.373 21.8522 176.453 21.5722C176.546 21.2789 176.593 20.9722 176.593 20.6522C176.593 20.0255 176.34 19.5055 175.833 19.0922C175.326 18.6789 174.686 18.4722 173.913 18.4722C173.273 18.4722 172.673 18.5989 172.113 18.8522C171.553 19.1055 170.933 19.5455 170.253 20.1722L169.173 18.8522C169.92 18.1589 170.686 17.6389 171.473 17.2922C172.273 16.9455 173.1 16.7722 173.953 16.7722C174.846 16.7722 175.633 16.9322 176.313 17.2522C176.993 17.5722 177.52 18.0189 177.893 18.5922C178.28 19.1522 178.473 19.7989 178.473 20.5322C178.473 20.9989 178.413 21.4322 178.293 21.8322C178.173 22.2189 177.966 22.6322 177.673 23.0722C177.38 23.4989 176.966 23.9922 176.433 24.5522L171.873 29.3522L178.753 29.3322V30.9922H169.433Z" fill="white"/>
</g>
<rect width="48" height="48" transform="translate(200 -0.0078125)" fill="#292929"/>
<path d="M223.843 31.2122C222.843 31.2122 221.903 31.0389 221.023 30.6922C220.156 30.3322 219.403 29.8189 218.763 29.1522L220.063 27.9122C220.623 28.4989 221.19 28.9189 221.763 29.1722C222.35 29.4122 223.036 29.5322 223.823 29.5322C224.45 29.5322 225.003 29.4255 225.483 29.2122C225.976 28.9989 226.356 28.7055 226.623 28.3322C226.89 27.9589 227.023 27.5255 227.023 27.0322C227.023 26.5789 226.903 26.1789 226.663 25.8322C226.436 25.4722 226.123 25.1989 225.723 25.0122C225.336 24.8122 224.876 24.7122 224.343 24.7122H222.643V23.0922H224.203C224.91 23.0922 225.476 22.8855 225.903 22.4722C226.33 22.0589 226.543 21.5189 226.543 20.8522C226.543 20.4122 226.423 20.0122 226.183 19.6522C225.943 19.2922 225.61 19.0122 225.183 18.8122C224.77 18.5989 224.296 18.4922 223.763 18.4922C223.056 18.4922 222.43 18.6189 221.883 18.8722C221.35 19.1122 220.796 19.5389 220.223 20.1522L218.923 18.9122C219.563 18.2189 220.303 17.6922 221.143 17.3322C221.983 16.9589 222.87 16.7722 223.803 16.7722C224.71 16.7722 225.51 16.9389 226.203 17.2722C226.91 17.6055 227.463 18.0722 227.863 18.6722C228.276 19.2589 228.483 19.9255 228.483 20.6722C228.483 21.4055 228.236 22.0655 227.743 22.6522C227.263 23.2255 226.63 23.6255 225.843 23.8522C226.79 24.0522 227.543 24.4522 228.103 25.0522C228.663 25.6389 228.943 26.3322 228.943 27.1322C228.943 27.9189 228.723 28.6189 228.283 29.2322C227.856 29.8455 227.256 30.3322 226.483 30.6922C225.71 31.0389 224.83 31.2122 223.843 31.2122Z" fill="white"/>
<g filter="url(#filter2_i_4111_7164)">
<mask id="path-7-inside-1_4111_7164" fill="white">
<path d="M250 -0.0078125H298V47.9922H250V-0.0078125Z"/>
</mask>
<path d="M250 -0.0078125H298V47.9922H250V-0.0078125Z" fill="#151515"/>
<path d="M298 47.9922V48.9922H299V47.9922H298ZM250 47.9922H249V48.9922H250V47.9922ZM297 -0.0078125V47.9922H299V-0.0078125H297ZM298 46.9922H250V48.9922H298V46.9922ZM251 47.9922V-0.0078125H249V47.9922H251Z" fill="#707070" mask="url(#path-7-inside-1_4111_7164)"/>
<path d="M276.074 30.9922V27.4322H268.134V25.8522L275.834 16.9922H278.054V25.7522H279.754V27.4322H278.054V30.9922H276.074ZM270.514 25.7522H276.074V19.3522L270.514 25.7522Z" fill="white"/>
</g>
<rect width="48" height="48" transform="translate(300 -0.0078125)" fill="#292929"/>
<path d="M323.78 31.2122C321.913 31.2122 320.293 30.5789 318.92 29.3122L320.1 27.9922C320.7 28.5389 321.293 28.9389 321.88 29.1922C322.48 29.4322 323.133 29.5522 323.84 29.5522C324.48 29.5522 325.033 29.4322 325.5 29.1922C325.966 28.9389 326.333 28.5922 326.6 28.1522C326.866 27.6989 327 27.1855 327 26.6122C327 25.7722 326.7 25.0922 326.1 24.5722C325.513 24.0522 324.746 23.7922 323.8 23.7922C323.32 23.7922 322.846 23.8589 322.38 23.9922C321.913 24.1122 321.426 24.3055 320.92 24.5722L319.56 24.1522L319.88 16.9922H328.2V18.6522H321.56L321.36 22.9722C321.88 22.7055 322.373 22.5255 322.84 22.4322C323.32 22.3255 323.813 22.2722 324.32 22.2722C325.253 22.2722 326.06 22.4522 326.74 22.8122C327.433 23.1589 327.973 23.6522 328.36 24.2922C328.746 24.9322 328.94 25.6722 328.94 26.5122C328.94 27.4455 328.72 28.2655 328.28 28.9722C327.853 29.6655 327.253 30.2122 326.48 30.6122C325.706 31.0122 324.806 31.2122 323.78 31.2122Z" fill="white"/>
<path d="M369 31.1322C368.653 31.1322 368.353 31.0122 368.1 30.7722C367.86 30.5189 367.74 30.2189 367.74 29.8722C367.74 29.5255 367.86 29.2322 368.1 28.9922C368.353 28.7389 368.653 28.6122 369 28.6122C369.347 28.6122 369.64 28.7389 369.88 28.9922C370.133 29.2322 370.26 29.5255 370.26 29.8722C370.26 30.2189 370.133 30.5189 369.88 30.7722C369.64 31.0122 369.347 31.1322 369 31.1322ZM374 31.1322C373.653 31.1322 373.353 31.0122 373.1 30.7722C372.86 30.5189 372.74 30.2189 372.74 29.8722C372.74 29.5255 372.86 29.2322 373.1 28.9922C373.353 28.7389 373.653 28.6122 374 28.6122C374.347 28.6122 374.64 28.7389 374.88 28.9922C375.133 29.2322 375.26 29.5255 375.26 29.8722C375.26 30.2189 375.133 30.5189 374.88 30.7722C374.64 31.0122 374.347 31.1322 374 31.1322ZM379 31.1322C378.653 31.1322 378.353 31.0122 378.1 30.7722C377.86 30.5189 377.74 30.2189 377.74 29.8722C377.74 29.5255 377.86 29.2322 378.1 28.9922C378.353 28.7389 378.653 28.6122 379 28.6122C379.347 28.6122 379.64 28.7389 379.88 28.9922C380.133 29.2322 380.26 29.5255 380.26 29.8722C380.26 30.2189 380.133 30.5189 379.88 30.7722C379.64 31.0122 379.347 31.1322 379 31.1322Z" fill="#A3A3A3"/>
<rect width="48" height="48" transform="translate(400 -0.0078125)" fill="#292929"/>
<path d="M417.071 31.2122C415.204 31.2122 413.584 30.5789 412.211 29.3122L413.391 27.9922C413.991 28.5389 414.584 28.9389 415.171 29.1922C415.771 29.4322 416.424 29.5522 417.131 29.5522C417.771 29.5522 418.324 29.4322 418.791 29.1922C419.257 28.9389 419.624 28.5922 419.891 28.1522C420.157 27.6989 420.291 27.1855 420.291 26.6122C420.291 25.7722 419.991 25.0922 419.391 24.5722C418.804 24.0522 418.037 23.7922 417.091 23.7922C416.611 23.7922 416.137 23.8589 415.671 23.9922C415.204 24.1122 414.717 24.3055 414.211 24.5722L412.851 24.1522L413.171 16.9922H421.491V18.6522H414.851L414.651 22.9722C415.171 22.7055 415.664 22.5255 416.131 22.4322C416.611 22.3255 417.104 22.2722 417.611 22.2722C418.544 22.2722 419.351 22.4522 420.031 22.8122C420.724 23.1589 421.264 23.6522 421.651 24.2922C422.037 24.9322 422.231 25.6722 422.231 26.5122C422.231 27.4455 422.011 28.2655 421.571 28.9722C421.144 29.6655 420.544 30.2122 419.771 30.6122C418.997 31.0122 418.097 31.2122 417.071 31.2122ZM429.831 31.2122C428.658 31.2122 427.631 30.9122 426.751 30.3122C425.871 29.6989 425.178 28.8522 424.671 27.7722C424.178 26.6789 423.931 25.4189 423.931 23.9922C423.931 22.5655 424.178 21.3122 424.671 20.2322C425.178 19.1389 425.871 18.2922 426.751 17.6922C427.631 17.0789 428.658 16.7722 429.831 16.7722C430.991 16.7722 432.011 17.0789 432.891 17.6922C433.771 18.2922 434.458 19.1389 434.951 20.2322C435.458 21.3122 435.711 22.5655 435.711 23.9922C435.711 25.4189 435.458 26.6789 434.951 27.7722C434.458 28.8522 433.771 29.6989 432.891 30.3122C432.011 30.9122 430.991 31.2122 429.831 31.2122ZM429.831 29.4722C430.631 29.4722 431.325 29.2522 431.911 28.8122C432.498 28.3589 432.951 27.7189 433.271 26.8922C433.591 26.0655 433.751 25.0989 433.751 23.9922C433.751 22.8722 433.591 21.9055 433.271 21.0922C432.951 20.2655 432.498 19.6322 431.911 19.1922C431.325 18.7389 430.631 18.5122 429.831 18.5122C429.031 18.5122 428.331 18.7389 427.731 19.1922C427.145 19.6322 426.691 20.2655 426.371 21.0922C426.051 21.9055 425.891 22.8722 425.891 23.9922C425.891 25.0989 426.051 26.0655 426.371 26.8922C426.691 27.7189 427.145 28.3589 427.731 28.8122C428.331 29.2522 429.031 29.4722 429.831 29.4722Z" fill="white"/>
<rect width="48" height="48" transform="translate(450 -0.0078125)" fill="#292929"/>
<g clip-path="url(#clip2_4111_7164)">
<path d="M471 31.4923C470.87 31.4923 470.745 31.4423 470.645 31.3473C470.45 31.1523 470.45 30.8373 470.645 30.6423L477.29 23.9973L470.645 17.3473C470.45 17.1523 470.45 16.8373 470.645 16.6423C470.84 16.4473 471.155 16.4473 471.35 16.6423L478.175 23.4673C478.465 23.7573 478.465 24.2373 478.175 24.5273L471.35 31.3523C471.25 31.4523 471.125 31.4973 470.995 31.4973L471 31.4923Z" fill="white"/>
</g>
<rect width="48" height="48" transform="translate(500 -0.0078125)" fill="#292929"/>
<g clip-path="url(#clip3_4111_7164)">
<path d="M531.175 23.4625L524.355 16.6375C524.16 16.4425 523.845 16.4425 523.65 16.6375C523.455 16.8325 523.455 17.1475 523.65 17.3425L530.295 23.9875L523.65 30.6325C523.455 30.8275 523.455 31.1425 523.65 31.3375C523.75 31.4375 523.875 31.4825 524.005 31.4825C524.135 31.4825 524.26 31.4325 524.36 31.3375L531.185 24.5125C531.475 24.2225 531.475 23.7425 531.185 23.4525L531.175 23.4625Z" fill="white"/>
<path d="M524.175 23.4625L517.355 16.6375C517.16 16.4425 516.845 16.4425 516.65 16.6375C516.455 16.8325 516.455 17.1475 516.65 17.3425L523.295 23.9875L516.645 30.6375C516.45 30.8325 516.45 31.1475 516.645 31.3425C516.745 31.4425 516.87 31.4875 517 31.4875C517.13 31.4875 517.255 31.4375 517.355 31.3425L524.18 24.5175C524.47 24.2275 524.47 23.7475 524.18 23.4575L524.175 23.4625Z" fill="white"/>
</g>
<g filter="url(#filter3_d_4111_7164)">
<path d="M176 41.9922V24.9922L188 36.9922H181L176 41.9922Z" fill="#151515"/>
<path d="M175.5 41.9922V43.1993L176.354 42.3457L181.207 37.4922H188H189.207L188.354 36.6386L176.354 24.6386L175.5 23.7851V24.9922V41.9922Z" stroke="white"/>
</g>
<g filter="url(#filter4_d_4111_7164)">
<path d="M22.51 41.9922V24.9922L34.51 36.9922H27.51L22.51 41.9922Z" fill="#151515"/>
<path d="M22.01 41.9922V43.1993L22.8636 42.3457L27.7171 37.4922H34.51H35.7171L34.8636 36.6386L22.8636 24.6386L22.01 23.7851V24.9922V41.9922Z" stroke="white"/>
</g>
<rect width="48" height="48" transform="translate(0 111.992)" fill="#292929"/>
<g clip-path="url(#clip4_4111_7164)">
<path d="M17.7049 135.992L24.3549 129.347C24.5499 129.152 24.5499 128.837 24.3549 128.642C24.1599 128.447 23.8449 128.447 23.6499 128.642L16.8249 135.462C16.5349 135.752 16.5349 136.232 16.8249 136.522L23.6499 143.347C23.7499 143.447 23.8749 143.492 24.0049 143.492C24.1349 143.492 24.2599 143.442 24.3599 143.347C24.5549 143.152 24.5549 142.837 24.3599 142.642L17.7049 135.992Z" fill="white"/>
<path d="M24.7049 135.992L31.3549 129.347C31.5499 129.152 31.5499 128.837 31.3549 128.642C31.1599 128.447 30.8449 128.447 30.6499 128.642L23.8249 135.467C23.5349 135.757 23.5349 136.237 23.8249 136.527L30.6499 143.352C30.7499 143.452 30.8749 143.497 31.0049 143.497C31.1349 143.497 31.2599 143.447 31.3599 143.352C31.5549 143.157 31.5549 142.842 31.3599 142.647L24.7149 136.002L24.7049 135.992Z" fill="white"/>
</g>
<rect width="48" height="48" transform="translate(50 111.992)" fill="#292929"/>
<g clip-path="url(#clip5_4111_7164)">
<path d="M77 143.492C76.87 143.492 76.745 143.442 76.645 143.347L69.82 136.522C69.53 136.232 69.53 135.752 69.82 135.462L76.645 128.637C76.84 128.442 77.155 128.442 77.35 128.637C77.545 128.832 77.545 129.147 77.35 129.342L70.705 135.987L77.35 142.632C77.545 142.827 77.545 143.142 77.35 143.337C77.25 143.437 77.125 143.482 76.995 143.482L77 143.492Z" fill="white"/>
</g>
<rect width="48" height="48" transform="translate(100 111.992)" fill="#292929"/>
<path d="M123.875 142.992V131.052L121.355 132.112V130.352L124.595 128.992H125.855V142.992H123.875Z" fill="white"/>
<rect width="48" height="48" transform="translate(150 111.992)" fill="#292929"/>
<path d="M169.433 142.992V141.592L175.113 135.552C175.5 135.152 175.8 134.792 176.013 134.472C176.226 134.152 176.373 133.852 176.453 133.572C176.546 133.279 176.593 132.972 176.593 132.652C176.593 132.026 176.34 131.506 175.833 131.092C175.326 130.679 174.686 130.472 173.913 130.472C173.273 130.472 172.673 130.599 172.113 130.852C171.553 131.106 170.933 131.546 170.253 132.172L169.173 130.852C169.92 130.159 170.686 129.639 171.473 129.292C172.273 128.946 173.1 128.772 173.953 128.772C174.846 128.772 175.633 128.932 176.313 129.252C176.993 129.572 177.52 130.019 177.893 130.592C178.28 131.152 178.473 131.799 178.473 132.532C178.473 132.999 178.413 133.432 178.293 133.832C178.173 134.219 177.966 134.632 177.673 135.072C177.38 135.499 176.966 135.992 176.433 136.552L171.873 141.352L178.753 141.332V142.992H169.433Z" fill="white"/>
<rect width="48" height="48" transform="translate(200 111.992)" fill="#292929"/>
<path d="M223.843 143.212C222.843 143.212 221.903 143.039 221.023 142.692C220.156 142.332 219.403 141.819 218.763 141.152L220.063 139.912C220.623 140.499 221.19 140.919 221.763 141.172C222.35 141.412 223.036 141.532 223.823 141.532C224.45 141.532 225.003 141.426 225.483 141.212C225.976 140.999 226.356 140.706 226.623 140.332C226.89 139.959 227.023 139.526 227.023 139.032C227.023 138.579 226.903 138.179 226.663 137.832C226.436 137.472 226.123 137.199 225.723 137.012C225.336 136.812 224.876 136.712 224.343 136.712H222.643V135.092H224.203C224.91 135.092 225.476 134.886 225.903 134.472C226.33 134.059 226.543 133.519 226.543 132.852C226.543 132.412 226.423 132.012 226.183 131.652C225.943 131.292 225.61 131.012 225.183 130.812C224.77 130.599 224.296 130.492 223.763 130.492C223.056 130.492 222.43 130.619 221.883 130.872C221.35 131.112 220.796 131.539 220.223 132.152L218.923 130.912C219.563 130.219 220.303 129.692 221.143 129.332C221.983 128.959 222.87 128.772 223.803 128.772C224.71 128.772 225.51 128.939 226.203 129.272C226.91 129.606 227.463 130.072 227.863 130.672C228.276 131.259 228.483 131.926 228.483 132.672C228.483 133.406 228.236 134.066 227.743 134.652C227.263 135.226 226.63 135.626 225.843 135.852C226.79 136.052 227.543 136.452 228.103 137.052C228.663 137.639 228.943 138.332 228.943 139.132C228.943 139.919 228.723 140.619 228.283 141.232C227.856 141.846 227.256 142.332 226.483 142.692C225.71 143.039 224.83 143.212 223.843 143.212Z" fill="white"/>
<g filter="url(#filter5_i_4111_7164)">
<mask id="path-26-inside-2_4111_7164" fill="white">
<path d="M250 111.992H298V159.992H250V111.992Z"/>
</mask>
<path d="M250 111.992H298V159.992H250V111.992Z" fill="#151515"/>
<path d="M298 159.992V160.992H299V159.992H298ZM250 159.992H249V160.992H250V159.992ZM297 111.992V159.992H299V111.992H297ZM298 158.992H250V160.992H298V158.992ZM251 159.992V111.992H249V159.992H251Z" fill="#707070" mask="url(#path-26-inside-2_4111_7164)"/>
<path d="M276.074 142.992V139.432H268.134V137.852L275.834 128.992H278.054V137.752H279.754V139.432H278.054V142.992H276.074ZM270.514 137.752H276.074V131.352L270.514 137.752Z" fill="white"/>
</g>
<rect width="48" height="48" transform="translate(300 111.992)" fill="#292929"/>
<path d="M323.78 143.212C321.913 143.212 320.293 142.579 318.92 141.312L320.1 139.992C320.7 140.539 321.293 140.939 321.88 141.192C322.48 141.432 323.133 141.552 323.84 141.552C324.48 141.552 325.033 141.432 325.5 141.192C325.966 140.939 326.333 140.592 326.6 140.152C326.866 139.699 327 139.186 327 138.612C327 137.772 326.7 137.092 326.1 136.572C325.513 136.052 324.746 135.792 323.8 135.792C323.32 135.792 322.846 135.859 322.38 135.992C321.913 136.112 321.426 136.306 320.92 136.572L319.56 136.152L319.88 128.992H328.2V130.652H321.56L321.36 134.972C321.88 134.706 322.373 134.526 322.84 134.432C323.32 134.326 323.813 134.272 324.32 134.272C325.253 134.272 326.06 134.452 326.74 134.812C327.433 135.159 327.973 135.652 328.36 136.292C328.746 136.932 328.94 137.672 328.94 138.512C328.94 139.446 328.72 140.266 328.28 140.972C327.853 141.666 327.253 142.212 326.48 142.612C325.706 143.012 324.806 143.212 323.78 143.212Z" fill="white"/>
<path d="M369 143.132C368.653 143.132 368.353 143.012 368.1 142.772C367.86 142.519 367.74 142.219 367.74 141.872C367.74 141.526 367.86 141.232 368.1 140.992C368.353 140.739 368.653 140.612 369 140.612C369.347 140.612 369.64 140.739 369.88 140.992C370.133 141.232 370.26 141.526 370.26 141.872C370.26 142.219 370.133 142.519 369.88 142.772C369.64 143.012 369.347 143.132 369 143.132ZM374 143.132C373.653 143.132 373.353 143.012 373.1 142.772C372.86 142.519 372.74 142.219 372.74 141.872C372.74 141.526 372.86 141.232 373.1 140.992C373.353 140.739 373.653 140.612 374 140.612C374.347 140.612 374.64 140.739 374.88 140.992C375.133 141.232 375.26 141.526 375.26 141.872C375.26 142.219 375.133 142.519 374.88 142.772C374.64 143.012 374.347 143.132 374 143.132ZM379 143.132C378.653 143.132 378.353 143.012 378.1 142.772C377.86 142.519 377.74 142.219 377.74 141.872C377.74 141.526 377.86 141.232 378.1 140.992C378.353 140.739 378.653 140.612 379 140.612C379.347 140.612 379.64 140.739 379.88 140.992C380.133 141.232 380.26 141.526 380.26 141.872C380.26 142.219 380.133 142.519 379.88 142.772C379.64 143.012 379.347 143.132 379 143.132Z" fill="#A3A3A3"/>
<rect width="48" height="48" transform="translate(400 111.992)" fill="#292929"/>
<path d="M417.071 143.212C415.204 143.212 413.584 142.579 412.211 141.312L413.391 139.992C413.991 140.539 414.584 140.939 415.171 141.192C415.771 141.432 416.424 141.552 417.131 141.552C417.771 141.552 418.324 141.432 418.791 141.192C419.257 140.939 419.624 140.592 419.891 140.152C420.157 139.699 420.291 139.186 420.291 138.612C420.291 137.772 419.991 137.092 419.391 136.572C418.804 136.052 418.037 135.792 417.091 135.792C416.611 135.792 416.137 135.859 415.671 135.992C415.204 136.112 414.717 136.306 414.211 136.572L412.851 136.152L413.171 128.992H421.491V130.652H414.851L414.651 134.972C415.171 134.706 415.664 134.526 416.131 134.432C416.611 134.326 417.104 134.272 417.611 134.272C418.544 134.272 419.351 134.452 420.031 134.812C420.724 135.159 421.264 135.652 421.651 136.292C422.037 136.932 422.231 137.672 422.231 138.512C422.231 139.446 422.011 140.266 421.571 140.972C421.144 141.666 420.544 142.212 419.771 142.612C418.997 143.012 418.097 143.212 417.071 143.212ZM429.831 143.212C428.658 143.212 427.631 142.912 426.751 142.312C425.871 141.699 425.178 140.852 424.671 139.772C424.178 138.679 423.931 137.419 423.931 135.992C423.931 134.566 424.178 133.312 424.671 132.232C425.178 131.139 425.871 130.292 426.751 129.692C427.631 129.079 428.658 128.772 429.831 128.772C430.991 128.772 432.011 129.079 432.891 129.692C433.771 130.292 434.458 131.139 434.951 132.232C435.458 133.312 435.711 134.566 435.711 135.992C435.711 137.419 435.458 138.679 434.951 139.772C434.458 140.852 433.771 141.699 432.891 142.312C432.011 142.912 430.991 143.212 429.831 143.212ZM429.831 141.472C430.631 141.472 431.325 141.252 431.911 140.812C432.498 140.359 432.951 139.719 433.271 138.892C433.591 138.066 433.751 137.099 433.751 135.992C433.751 134.872 433.591 133.906 433.271 133.092C432.951 132.266 432.498 131.632 431.911 131.192C431.325 130.739 430.631 130.512 429.831 130.512C429.031 130.512 428.331 130.739 427.731 131.192C427.145 131.632 426.691 132.266 426.371 133.092C426.051 133.906 425.891 134.872 425.891 135.992C425.891 137.099 426.051 138.066 426.371 138.892C426.691 139.719 427.145 140.359 427.731 140.812C428.331 141.252 429.031 141.472 429.831 141.472Z" fill="white"/>
<rect width="48" height="48" transform="translate(450 111.992)" fill="#292929"/>
<g clip-path="url(#clip6_4111_7164)">
<path d="M471 143.492C470.87 143.492 470.745 143.442 470.645 143.347C470.45 143.152 470.45 142.837 470.645 142.642L477.29 135.997L470.645 129.347C470.45 129.152 470.45 128.837 470.645 128.642C470.84 128.447 471.155 128.447 471.35 128.642L478.175 135.467C478.465 135.757 478.465 136.237 478.175 136.527L471.35 143.352C471.25 143.452 471.125 143.497 470.995 143.497L471 143.492Z" fill="white"/>
</g>
<rect width="48" height="48" transform="translate(500 111.992)" fill="#292929"/>
<g clip-path="url(#clip7_4111_7164)">
<path d="M531.175 135.462L524.355 128.637C524.16 128.442 523.845 128.442 523.65 128.637C523.455 128.832 523.455 129.147 523.65 129.342L530.295 135.987L523.65 142.632C523.455 142.827 523.455 143.142 523.65 143.337C523.75 143.437 523.875 143.482 524.005 143.482C524.135 143.482 524.26 143.432 524.36 143.337L531.185 136.512C531.475 136.222 531.475 135.742 531.185 135.452L531.175 135.462Z" fill="white"/>
<path d="M524.175 135.462L517.355 128.637C517.16 128.442 516.845 128.442 516.65 128.637C516.455 128.832 516.455 129.147 516.65 129.342L523.295 135.987L516.645 142.637C516.45 142.832 516.45 143.147 516.645 143.342C516.745 143.442 516.87 143.487 517 143.487C517.13 143.487 517.255 143.437 517.355 143.342L524.18 136.517C524.47 136.227 524.47 135.747 524.18 135.457L524.175 135.462Z" fill="white"/>
</g>
<path d="M581.424 141.992V130.792H586.048C586.773 130.792 587.403 130.931 587.936 131.208C588.469 131.475 588.88 131.859 589.168 132.36C589.467 132.851 589.616 133.432 589.616 134.104C589.616 134.766 589.467 135.347 589.168 135.848C588.88 136.35 588.469 136.739 587.936 137.016C587.403 137.283 586.773 137.416 586.048 137.416H582.656V141.992H581.424ZM582.656 136.36H585.904C586.683 136.36 587.291 136.158 587.728 135.752C588.165 135.347 588.384 134.798 588.384 134.104C588.384 133.411 588.165 132.867 587.728 132.472C587.291 132.078 586.683 131.88 585.904 131.88H582.656V136.36ZM593.679 142.136C593.124 142.136 592.633 142.035 592.207 141.832C591.78 141.63 591.444 141.352 591.199 141C590.964 140.638 590.847 140.222 590.847 139.752C590.847 139.283 590.969 138.878 591.215 138.536C591.46 138.184 591.801 137.912 592.239 137.72C592.676 137.528 593.188 137.432 593.775 137.432C594.223 137.432 594.644 137.48 595.039 137.576C595.444 137.672 595.817 137.827 596.159 138.04V136.968C596.159 136.328 595.988 135.848 595.647 135.528C595.305 135.198 594.804 135.032 594.143 135.032C593.78 135.032 593.407 135.086 593.023 135.192C592.649 135.299 592.233 135.47 591.775 135.704L591.343 134.808C592.388 134.307 593.369 134.056 594.286 134.056C595.257 134.056 596.004 134.296 596.527 134.776C597.049 135.246 597.311 135.923 597.311 136.808V141.992H596.159V141.08C595.817 141.432 595.439 141.699 595.023 141.88C594.607 142.051 594.159 142.136 593.679 142.136ZM591.967 139.72C591.967 140.179 592.143 140.547 592.495 140.824C592.857 141.102 593.332 141.24 593.919 141.24C594.356 141.24 594.756 141.166 595.119 141.016C595.492 140.867 595.839 140.643 596.159 140.344V138.84C595.828 138.648 595.487 138.51 595.135 138.424C594.783 138.328 594.388 138.28 593.951 138.28C593.353 138.28 592.873 138.414 592.511 138.68C592.148 138.936 591.967 139.283 591.967 139.72ZM603.3 145.496C602.778 145.496 602.25 145.422 601.716 145.272C601.194 145.134 600.708 144.936 600.26 144.68L600.756 143.784C601.236 144.03 601.674 144.211 602.068 144.328C602.463 144.446 602.858 144.504 603.252 144.504C603.967 144.504 604.506 144.334 604.868 143.992C605.242 143.651 605.428 143.155 605.428 142.504V140.936C605.13 141.31 604.767 141.598 604.34 141.8C603.914 141.992 603.444 142.088 602.932 142.088C602.26 142.088 601.652 141.912 601.108 141.56C600.564 141.198 600.132 140.718 599.812 140.12C599.492 139.512 599.332 138.835 599.332 138.088C599.332 137.342 599.492 136.67 599.812 136.072C600.143 135.464 600.586 134.984 601.14 134.632C601.695 134.27 602.314 134.088 602.996 134.088C603.487 134.088 603.94 134.184 604.356 134.376C604.772 134.558 605.135 134.83 605.444 135.192V134.184H606.596V142.488C606.596 143.459 606.314 144.2 605.748 144.712C605.183 145.235 604.367 145.496 603.3 145.496ZM603.22 141.08C603.679 141.08 604.1 140.99 604.484 140.808C604.868 140.616 605.183 140.355 605.428 140.024V136.168C605.172 135.838 604.847 135.582 604.452 135.4C604.068 135.208 603.658 135.112 603.22 135.112C602.698 135.112 602.228 135.24 601.812 135.496C601.407 135.752 601.082 136.104 600.836 136.552C600.602 137 600.484 137.512 600.484 138.088C600.484 138.654 600.602 139.166 600.836 139.624C601.082 140.072 601.407 140.43 601.812 140.696C602.228 140.952 602.698 141.08 603.22 141.08ZM612.517 142.152C611.792 142.152 611.136 141.976 610.549 141.624C609.962 141.262 609.498 140.776 609.157 140.168C608.816 139.55 608.645 138.856 608.645 138.088C608.645 137.32 608.805 136.632 609.125 136.024C609.456 135.416 609.898 134.936 610.453 134.584C611.008 134.232 611.626 134.056 612.309 134.056C613.002 134.056 613.616 134.232 614.149 134.584C614.693 134.926 615.12 135.395 615.429 135.992C615.749 136.579 615.909 137.246 615.909 137.992V138.344H609.781C609.824 138.878 609.968 139.358 610.213 139.784C610.469 140.2 610.8 140.531 611.205 140.776C611.621 141.011 612.074 141.128 612.565 141.128C612.97 141.128 613.36 141.059 613.733 140.92C614.117 140.771 614.442 140.574 614.709 140.328L615.445 141.112C614.997 141.464 614.533 141.726 614.053 141.896C613.573 142.067 613.061 142.152 612.517 142.152ZM609.813 137.512H614.757C614.704 137.043 614.56 136.627 614.325 136.264C614.101 135.891 613.813 135.598 613.461 135.384C613.12 135.171 612.736 135.064 612.309 135.064C611.882 135.064 611.493 135.171 611.141 135.384C610.789 135.587 610.496 135.875 610.261 136.248C610.037 136.611 609.888 137.032 609.813 137.512Z" fill="white"/>
<g filter="url(#filter6_i_4111_7164)">
<mask id="path-36-inside-3_4111_7164" fill="white">
<path d="M625 117.992H689V153.992H625V117.992Z"/>
</mask>
<path d="M625 117.992H689V153.992H625V117.992Z" fill="white"/>
<path d="M625 117.992V116.992H624V117.992H625ZM689 117.992H690V116.992H689V117.992ZM625 118.992H689V116.992H625V118.992ZM688 117.992V153.992H690V117.992H688ZM626 153.992V117.992H624V153.992H626Z" fill="#C7C7C7" mask="url(#path-36-inside-3_4111_7164)"/>
<path d="M639.672 141.992V139H633.624V138.088L639.576 130.792H640.808V137.992H642.36V139H640.808V141.992H639.672ZM634.968 137.992H639.672V132.184L634.968 137.992Z" fill="#151515"/>
</g>
<path d="M701.656 142.12C700.931 142.12 700.28 141.944 699.704 141.592C699.128 141.24 698.675 140.76 698.344 140.152C698.013 139.544 697.848 138.856 697.848 138.088C697.848 137.32 698.013 136.632 698.344 136.024C698.675 135.416 699.128 134.936 699.704 134.584C700.28 134.232 700.931 134.056 701.656 134.056C702.371 134.056 703.011 134.232 703.576 134.584C704.152 134.936 704.605 135.416 704.936 136.024C705.267 136.632 705.432 137.32 705.432 138.088C705.432 138.856 705.267 139.544 704.936 140.152C704.605 140.76 704.152 141.24 703.576 141.592C703.011 141.944 702.371 142.12 701.656 142.12ZM701.64 141.096C702.152 141.096 702.605 140.968 703 140.712C703.395 140.446 703.704 140.083 703.928 139.624C704.163 139.166 704.28 138.654 704.28 138.088C704.28 137.512 704.163 137 703.928 136.552C703.704 136.094 703.395 135.736 703 135.48C702.605 135.214 702.152 135.08 701.64 135.08C701.128 135.08 700.675 135.214 700.28 135.48C699.885 135.736 699.571 136.094 699.336 136.552C699.112 137 699 137.512 699 138.088C699 138.654 699.112 139.166 699.336 139.624C699.571 140.083 699.885 140.446 700.28 140.712C700.675 140.968 701.128 141.096 701.64 141.096ZM707.989 141.992V135.144H706.245V134.184H707.989V132.552C707.989 131.784 708.192 131.192 708.597 130.776C709.002 130.36 709.578 130.152 710.325 130.152C710.538 130.152 710.73 130.163 710.901 130.184C711.082 130.206 711.242 130.243 711.381 130.296V131.352C711.21 131.299 711.056 131.262 710.917 131.24C710.778 131.219 710.618 131.208 710.437 131.208C709.989 131.208 709.664 131.32 709.461 131.544C709.258 131.758 709.157 132.099 709.157 132.568V134.184H711.381V135.144H709.157V141.992H707.989Z" fill="white"/>
<path d="M719.853 142.168C718.381 142.168 717.112 141.662 716.045 140.648L716.765 139.864C717.256 140.323 717.741 140.659 718.221 140.872C718.712 141.075 719.261 141.176 719.869 141.176C720.413 141.176 720.893 141.064 721.309 140.84C721.725 140.616 722.045 140.302 722.269 139.896C722.504 139.491 722.621 139.027 722.621 138.504C722.621 137.758 722.365 137.155 721.853 136.696C721.352 136.238 720.69 136.008 719.869 136.008C719.442 136.008 719.026 136.062 718.621 136.168C718.216 136.264 717.794 136.424 717.357 136.648L716.557 136.392L716.813 130.792H723.181V131.8H717.805L717.629 135.672C718.056 135.459 718.466 135.31 718.861 135.224C719.256 135.128 719.672 135.08 720.109 135.08C720.845 135.08 721.485 135.224 722.029 135.512C722.584 135.79 723.01 136.184 723.309 136.696C723.618 137.198 723.773 137.784 723.773 138.456C723.773 139.192 723.608 139.838 723.277 140.392C722.946 140.947 722.488 141.384 721.901 141.704C721.314 142.014 720.632 142.168 719.853 142.168ZM729.858 142.168C729.005 142.168 728.247 141.923 727.586 141.432C726.935 140.942 726.423 140.264 726.05 139.4C725.677 138.526 725.49 137.523 725.49 136.392C725.49 135.251 725.677 134.248 726.05 133.384C726.423 132.52 726.935 131.843 727.586 131.352C728.247 130.862 729.005 130.616 729.858 130.616C730.711 130.616 731.463 130.862 732.114 131.352C732.775 131.843 733.293 132.52 733.666 133.384C734.039 134.248 734.226 135.251 734.226 136.392C734.226 137.523 734.039 138.526 733.666 139.4C733.293 140.264 732.775 140.942 732.114 141.432C731.463 141.923 730.711 142.168 729.858 142.168ZM729.858 141.128C730.509 141.128 731.069 140.936 731.538 140.552C732.018 140.158 732.391 139.608 732.658 138.904C732.925 138.19 733.058 137.352 733.058 136.392C733.058 135.432 732.925 134.6 732.658 133.896C732.391 133.182 732.018 132.632 731.538 132.248C731.069 131.854 730.509 131.656 729.858 131.656C729.218 131.656 728.658 131.854 728.178 132.248C727.698 132.632 727.325 133.182 727.058 133.896C726.791 134.6 726.658 135.432 726.658 136.392C726.658 137.352 726.791 138.19 727.058 138.904C727.325 139.608 727.698 140.158 728.178 140.552C728.658 140.936 729.218 141.128 729.858 141.128Z" fill="#92C5F9"/>
<path d="M654 127.992H655C656.105 127.992 657 128.888 657 129.992V141.992C657 143.097 656.105 143.992 655 143.992H654" stroke="black" stroke-width="0.8" stroke-linecap="round"/>
<path d="M660 143.992L659 143.992C657.895 143.992 657 143.097 657 141.992L657 129.992C657 128.888 657.895 127.992 659 127.992L660 127.992" stroke="black" stroke-width="0.8" stroke-linecap="round"/>
<path d="M655.5 135.992H658.5" stroke="black" stroke-width="0.8" stroke-linecap="round"/>
<rect width="48" height="48" transform="translate(0 223.992)" fill="#292929"/>
<g clip-path="url(#clip8_4111_7164)">
<path d="M17.7049 247.992L24.3549 241.347C24.5499 241.152 24.5499 240.837 24.3549 240.642C24.1599 240.447 23.8449 240.447 23.6499 240.642L16.8249 247.462C16.5349 247.752 16.5349 248.232 16.8249 248.522L23.6499 255.347C23.7499 255.447 23.8749 255.492 24.0049 255.492C24.1349 255.492 24.2599 255.442 24.3599 255.347C24.5549 255.152 24.5549 254.837 24.3599 254.642L17.7049 247.992Z" fill="white"/>
<path d="M24.7049 247.992L31.3549 241.347C31.5499 241.152 31.5499 240.837 31.3549 240.642C31.1599 240.447 30.8449 240.447 30.6499 240.642L23.8249 247.467C23.5349 247.757 23.5349 248.237 23.8249 248.527L30.6499 255.352C30.7499 255.452 30.8749 255.497 31.0049 255.497C31.1349 255.497 31.2599 255.447 31.3599 255.352C31.5549 255.157 31.5549 254.842 31.3599 254.647L24.7149 248.002L24.7049 247.992Z" fill="white"/>
</g>
<rect width="48" height="48" transform="translate(50 223.992)" fill="#292929"/>
<g clip-path="url(#clip9_4111_7164)">
<path d="M77 255.492C76.87 255.492 76.745 255.442 76.645 255.347L69.82 248.522C69.53 248.232 69.53 247.752 69.82 247.462L76.645 240.637C76.84 240.442 77.155 240.442 77.35 240.637C77.545 240.832 77.545 241.147 77.35 241.342L70.705 247.987L77.35 254.632C77.545 254.827 77.545 255.142 77.35 255.337C77.25 255.437 77.125 255.482 76.995 255.482L77 255.492Z" fill="white"/>
</g>
<rect width="48" height="48" transform="translate(100 223.992)" fill="#292929"/>
<g clip-path="url(#clip10_4111_7164)">
<path d="M121 255.492C120.87 255.492 120.745 255.442 120.645 255.347C120.45 255.152 120.45 254.837 120.645 254.642L127.29 247.997L120.645 241.347C120.45 241.152 120.45 240.837 120.645 240.642C120.84 240.447 121.155 240.447 121.35 240.642L128.175 247.467C128.465 247.757 128.465 248.237 128.175 248.527L121.35 255.352C121.25 255.452 121.125 255.497 120.995 255.497L121 255.492Z" fill="white"/>
</g>
<rect width="48" height="48" transform="translate(150 223.992)" fill="#292929"/>
<g clip-path="url(#clip11_4111_7164)">
<path d="M181.175 247.462L174.355 240.637C174.16 240.442 173.845 240.442 173.65 240.637C173.455 240.832 173.455 241.147 173.65 241.342L180.295 247.987L173.65 254.632C173.455 254.827 173.455 255.142 173.65 255.337C173.75 255.437 173.875 255.482 174.005 255.482C174.135 255.482 174.26 255.432 174.36 255.337L181.185 248.512C181.475 248.222 181.475 247.742 181.185 247.452L181.175 247.462Z" fill="white"/>
<path d="M174.175 247.462L167.355 240.637C167.16 240.442 166.845 240.442 166.65 240.637C166.455 240.832 166.455 241.147 166.65 241.342L173.295 247.987L166.645 254.637C166.45 254.832 166.45 255.147 166.645 255.342C166.745 255.442 166.87 255.487 167 255.487C167.13 255.487 167.255 255.437 167.355 255.342L174.18 248.517C174.47 248.227 174.47 247.747 174.18 247.457L174.175 247.462Z" fill="white"/>
</g>
<path d="M231.424 253.992V242.792H236.048C236.773 242.792 237.403 242.931 237.936 243.208C238.469 243.475 238.88 243.859 239.168 244.36C239.467 244.851 239.616 245.432 239.616 246.104C239.616 246.766 239.467 247.347 239.168 247.848C238.88 248.35 238.469 248.739 237.936 249.016C237.403 249.283 236.773 249.416 236.048 249.416H232.656V253.992H231.424ZM232.656 248.36H235.904C236.683 248.36 237.291 248.158 237.728 247.752C238.165 247.347 238.384 246.798 238.384 246.104C238.384 245.411 238.165 244.867 237.728 244.472C237.291 244.078 236.683 243.88 235.904 243.88H232.656V248.36ZM243.679 254.136C243.124 254.136 242.633 254.035 242.207 253.832C241.78 253.63 241.444 253.352 241.199 253C240.964 252.638 240.847 252.222 240.847 251.752C240.847 251.283 240.969 250.878 241.215 250.536C241.46 250.184 241.801 249.912 242.239 249.72C242.676 249.528 243.188 249.432 243.775 249.432C244.223 249.432 244.644 249.48 245.039 249.576C245.444 249.672 245.817 249.827 246.159 250.04V248.968C246.159 248.328 245.988 247.848 245.647 247.528C245.305 247.198 244.804 247.032 244.143 247.032C243.78 247.032 243.407 247.086 243.023 247.192C242.649 247.299 242.233 247.47 241.775 247.704L241.343 246.808C242.388 246.307 243.369 246.056 244.286 246.056C245.257 246.056 246.004 246.296 246.527 246.776C247.049 247.246 247.311 247.923 247.311 248.808V253.992H246.159V253.08C245.817 253.432 245.439 253.699 245.023 253.88C244.607 254.051 244.159 254.136 243.679 254.136ZM241.967 251.72C241.967 252.179 242.143 252.547 242.495 252.824C242.857 253.102 243.332 253.24 243.919 253.24C244.356 253.24 244.756 253.166 245.119 253.016C245.492 252.867 245.839 252.643 246.159 252.344V250.84C245.828 250.648 245.487 250.51 245.135 250.424C244.783 250.328 244.388 250.28 243.951 250.28C243.353 250.28 242.873 250.414 242.511 250.68C242.148 250.936 241.967 251.283 241.967 251.72ZM253.3 257.496C252.778 257.496 252.25 257.422 251.716 257.272C251.194 257.134 250.708 256.936 250.26 256.68L250.756 255.784C251.236 256.03 251.674 256.211 252.068 256.328C252.463 256.446 252.858 256.504 253.252 256.504C253.967 256.504 254.506 256.334 254.868 255.992C255.242 255.651 255.428 255.155 255.428 254.504V252.936C255.13 253.31 254.767 253.598 254.34 253.8C253.914 253.992 253.444 254.088 252.932 254.088C252.26 254.088 251.652 253.912 251.108 253.56C250.564 253.198 250.132 252.718 249.812 252.12C249.492 251.512 249.332 250.835 249.332 250.088C249.332 249.342 249.492 248.67 249.812 248.072C250.143 247.464 250.586 246.984 251.14 246.632C251.695 246.27 252.314 246.088 252.996 246.088C253.487 246.088 253.94 246.184 254.356 246.376C254.772 246.558 255.135 246.83 255.444 247.192V246.184H256.596V254.488C256.596 255.459 256.314 256.2 255.748 256.712C255.183 257.235 254.367 257.496 253.3 257.496ZM253.22 253.08C253.679 253.08 254.1 252.99 254.484 252.808C254.868 252.616 255.183 252.355 255.428 252.024V248.168C255.172 247.838 254.847 247.582 254.452 247.4C254.068 247.208 253.658 247.112 253.22 247.112C252.698 247.112 252.228 247.24 251.812 247.496C251.407 247.752 251.082 248.104 250.836 248.552C250.602 249 250.484 249.512 250.484 250.088C250.484 250.654 250.602 251.166 250.836 251.624C251.082 252.072 251.407 252.43 251.812 252.696C252.228 252.952 252.698 253.08 253.22 253.08ZM262.517 254.152C261.792 254.152 261.136 253.976 260.549 253.624C259.962 253.262 259.498 252.776 259.157 252.168C258.816 251.55 258.645 250.856 258.645 250.088C258.645 249.32 258.805 248.632 259.125 248.024C259.456 247.416 259.898 246.936 260.453 246.584C261.008 246.232 261.626 246.056 262.309 246.056C263.002 246.056 263.616 246.232 264.149 246.584C264.693 246.926 265.12 247.395 265.429 247.992C265.749 248.579 265.909 249.246 265.909 249.992V250.344H259.781C259.824 250.878 259.968 251.358 260.213 251.784C260.469 252.2 260.8 252.531 261.205 252.776C261.621 253.011 262.074 253.128 262.565 253.128C262.97 253.128 263.36 253.059 263.733 252.92C264.117 252.771 264.442 252.574 264.709 252.328L265.445 253.112C264.997 253.464 264.533 253.726 264.053 253.896C263.573 254.067 263.061 254.152 262.517 254.152ZM259.813 249.512H264.757C264.704 249.043 264.56 248.627 264.325 248.264C264.101 247.891 263.813 247.598 263.461 247.384C263.12 247.171 262.736 247.064 262.309 247.064C261.882 247.064 261.493 247.171 261.141 247.384C260.789 247.587 260.496 247.875 260.261 248.248C260.037 248.611 259.888 249.032 259.813 249.512Z" fill="white"/>
<g filter="url(#filter7_i_4111_7164)">
<mask id="path-50-inside-4_4111_7164" fill="white">
<path d="M275 229.992H339V265.992H275V229.992Z"/>
</mask>
<path d="M275 229.992H339V265.992H275V229.992Z" fill="white"/>
<path d="M275 229.992V228.992H274V229.992H275ZM339 229.992H340V228.992H339V229.992ZM275 230.992H339V228.992H275V230.992ZM338 229.992V265.992H340V229.992H338ZM276 265.992V229.992H274V265.992H276Z" fill="#C7C7C7" mask="url(#path-50-inside-4_4111_7164)"/>
<path d="M289.672 253.992V251H283.624V250.088L289.576 242.792H290.808V249.992H292.36V251H290.808V253.992H289.672ZM284.968 249.992H289.672V244.184L284.968 249.992Z" fill="#151515"/>
</g>
<path d="M351.656 254.12C350.931 254.12 350.28 253.944 349.704 253.592C349.128 253.24 348.675 252.76 348.344 252.152C348.013 251.544 347.848 250.856 347.848 250.088C347.848 249.32 348.013 248.632 348.344 248.024C348.675 247.416 349.128 246.936 349.704 246.584C350.28 246.232 350.931 246.056 351.656 246.056C352.371 246.056 353.011 246.232 353.576 246.584C354.152 246.936 354.605 247.416 354.936 248.024C355.267 248.632 355.432 249.32 355.432 250.088C355.432 250.856 355.267 251.544 354.936 252.152C354.605 252.76 354.152 253.24 353.576 253.592C353.011 253.944 352.371 254.12 351.656 254.12ZM351.64 253.096C352.152 253.096 352.605 252.968 353 252.712C353.395 252.446 353.704 252.083 353.928 251.624C354.163 251.166 354.28 250.654 354.28 250.088C354.28 249.512 354.163 249 353.928 248.552C353.704 248.094 353.395 247.736 353 247.48C352.605 247.214 352.152 247.08 351.64 247.08C351.128 247.08 350.675 247.214 350.28 247.48C349.885 247.736 349.571 248.094 349.336 248.552C349.112 249 349 249.512 349 250.088C349 250.654 349.112 251.166 349.336 251.624C349.571 252.083 349.885 252.446 350.28 252.712C350.675 252.968 351.128 253.096 351.64 253.096ZM357.989 253.992V247.144H356.245V246.184H357.989V244.552C357.989 243.784 358.192 243.192 358.597 242.776C359.002 242.36 359.578 242.152 360.325 242.152C360.538 242.152 360.73 242.163 360.901 242.184C361.082 242.206 361.242 242.243 361.381 242.296V243.352C361.21 243.299 361.056 243.262 360.917 243.24C360.778 243.219 360.618 243.208 360.437 243.208C359.989 243.208 359.664 243.32 359.461 243.544C359.258 243.758 359.157 244.099 359.157 244.568V246.184H361.381V247.144H359.157V253.992H357.989Z" fill="white"/>
<path d="M369.853 254.168C368.381 254.168 367.112 253.662 366.045 252.648L366.765 251.864C367.256 252.323 367.741 252.659 368.221 252.872C368.712 253.075 369.261 253.176 369.869 253.176C370.413 253.176 370.893 253.064 371.309 252.84C371.725 252.616 372.045 252.302 372.269 251.896C372.504 251.491 372.621 251.027 372.621 250.504C372.621 249.758 372.365 249.155 371.853 248.696C371.352 248.238 370.69 248.008 369.869 248.008C369.442 248.008 369.026 248.062 368.621 248.168C368.216 248.264 367.794 248.424 367.357 248.648L366.557 248.392L366.813 242.792H373.181V243.8H367.805L367.629 247.672C368.056 247.459 368.466 247.31 368.861 247.224C369.256 247.128 369.672 247.08 370.109 247.08C370.845 247.08 371.485 247.224 372.029 247.512C372.584 247.79 373.01 248.184 373.309 248.696C373.618 249.198 373.773 249.784 373.773 250.456C373.773 251.192 373.608 251.838 373.277 252.392C372.946 252.947 372.488 253.384 371.901 253.704C371.314 254.014 370.632 254.168 369.853 254.168ZM379.858 254.168C379.005 254.168 378.247 253.923 377.586 253.432C376.935 252.942 376.423 252.264 376.05 251.4C375.677 250.526 375.49 249.523 375.49 248.392C375.49 247.251 375.677 246.248 376.05 245.384C376.423 244.52 376.935 243.843 377.586 243.352C378.247 242.862 379.005 242.616 379.858 242.616C380.711 242.616 381.463 242.862 382.114 243.352C382.775 243.843 383.293 244.52 383.666 245.384C384.039 246.248 384.226 247.251 384.226 248.392C384.226 249.523 384.039 250.526 383.666 251.4C383.293 252.264 382.775 252.942 382.114 253.432C381.463 253.923 380.711 254.168 379.858 254.168ZM379.858 253.128C380.509 253.128 381.069 252.936 381.538 252.552C382.018 252.158 382.391 251.608 382.658 250.904C382.925 250.19 383.058 249.352 383.058 248.392C383.058 247.432 382.925 246.6 382.658 245.896C382.391 245.182 382.018 244.632 381.538 244.248C381.069 243.854 380.509 243.656 379.858 243.656C379.218 243.656 378.658 243.854 378.178 244.248C377.698 244.632 377.325 245.182 377.058 245.896C376.791 246.6 376.658 247.432 376.658 248.392C376.658 249.352 376.791 250.19 377.058 250.904C377.325 251.608 377.698 252.158 378.178 252.552C378.658 252.936 379.218 253.128 379.858 253.128Z" fill="#B9DAFC"/>
<path d="M365.453 257.992H385.138V259.592H365.453V257.992Z" fill="#B9DAFC"/>
<g filter="url(#filter8_d_4111_7164)">
<path d="M374 265.992V248.992L386 260.992H379L374 265.992Z" fill="#151515"/>
<path d="M373.5 265.992V267.199L374.354 266.346L379.207 261.492H386H387.207L386.354 260.639L374.354 248.639L373.5 247.785V248.992V265.992Z" stroke="white"/>
</g>
<mask id="path-56-inside-5_4111_7164" fill="white">
<path d="M0 335.992H48V383.992H0V335.992Z"/>
</mask>
<path d="M48 380.992H0V386.992H48V380.992Z" fill="#C7C7C7" mask="url(#path-56-inside-5_4111_7164)"/>
<g clip-path="url(#clip12_4111_7164)">
<path d="M17.7049 359.992L24.3549 353.347C24.5499 353.152 24.5499 352.837 24.3549 352.642C24.1599 352.447 23.8449 352.447 23.6499 352.642L16.8249 359.462C16.5349 359.752 16.5349 360.232 16.8249 360.522L23.6499 367.347C23.7499 367.447 23.8749 367.492 24.0049 367.492C24.1349 367.492 24.2599 367.442 24.3599 367.347C24.5549 367.152 24.5549 366.837 24.3599 366.642L17.7049 359.992Z" fill="white"/>
<path d="M24.7049 359.992L31.3549 353.347C31.5499 353.152 31.5499 352.837 31.3549 352.642C31.1599 352.447 30.8449 352.447 30.6499 352.642L23.8249 359.467C23.5349 359.757 23.5349 360.237 23.8249 360.527L30.6499 367.352C30.7499 367.452 30.8749 367.497 31.0049 367.497C31.1349 367.497 31.2599 367.447 31.3599 367.352C31.5549 367.157 31.5549 366.842 31.3599 366.647L24.7149 360.002L24.7049 359.992Z" fill="white"/>
</g>
<g clip-path="url(#clip13_4111_7164)">
<path d="M77 367.492C76.87 367.492 76.745 367.442 76.645 367.347L69.82 360.522C69.53 360.232 69.53 359.752 69.82 359.462L76.645 352.637C76.84 352.442 77.155 352.442 77.35 352.637C77.545 352.832 77.545 353.147 77.35 353.342L70.705 359.987L77.35 366.632C77.545 366.827 77.545 367.142 77.35 367.337C77.25 367.437 77.125 367.482 76.995 367.482L77 367.492Z" fill="white"/>
</g>
<path d="M123.875 366.992V355.052L121.355 356.112V354.352L124.595 352.992H125.855V366.992H123.875Z" fill="white"/>
<mask id="path-62-inside-6_4111_7164" fill="white">
<path d="M150 335.992H198V383.992H150V335.992Z"/>
</mask>
<path d="M198 380.992H150V386.992H198V380.992Z" fill="#C7C7C7" mask="url(#path-62-inside-6_4111_7164)"/>
<path d="M169.433 366.992V365.592L175.113 359.552C175.5 359.152 175.8 358.792 176.013 358.472C176.226 358.152 176.373 357.852 176.453 357.572C176.546 357.279 176.593 356.972 176.593 356.652C176.593 356.026 176.34 355.506 175.833 355.092C175.326 354.679 174.686 354.472 173.913 354.472C173.273 354.472 172.673 354.599 172.113 354.852C171.553 355.106 170.933 355.546 170.253 356.172L169.173 354.852C169.92 354.159 170.686 353.639 171.473 353.292C172.273 352.946 173.1 352.772 173.953 352.772C174.846 352.772 175.633 352.932 176.313 353.252C176.993 353.572 177.52 354.019 177.893 354.592C178.28 355.152 178.473 355.799 178.473 356.532C178.473 356.999 178.413 357.432 178.293 357.832C178.173 358.219 177.966 358.632 177.673 359.072C177.38 359.499 176.966 359.992 176.433 360.552L171.873 365.352L178.753 365.332V366.992H169.433Z" fill="white"/>
<path d="M223.843 367.212C222.843 367.212 221.903 367.039 221.023 366.692C220.156 366.332 219.403 365.819 218.763 365.152L220.063 363.912C220.623 364.499 221.19 364.919 221.763 365.172C222.35 365.412 223.036 365.532 223.823 365.532C224.45 365.532 225.003 365.426 225.483 365.212C225.976 364.999 226.356 364.706 226.623 364.332C226.89 363.959 227.023 363.526 227.023 363.032C227.023 362.579 226.903 362.179 226.663 361.832C226.436 361.472 226.123 361.199 225.723 361.012C225.336 360.812 224.876 360.712 224.343 360.712H222.643V359.092H224.203C224.91 359.092 225.476 358.886 225.903 358.472C226.33 358.059 226.543 357.519 226.543 356.852C226.543 356.412 226.423 356.012 226.183 355.652C225.943 355.292 225.61 355.012 225.183 354.812C224.77 354.599 224.296 354.492 223.763 354.492C223.056 354.492 222.43 354.619 221.883 354.872C221.35 355.112 220.796 355.539 220.223 356.152L218.923 354.912C219.563 354.219 220.303 353.692 221.143 353.332C221.983 352.959 222.87 352.772 223.803 352.772C224.71 352.772 225.51 352.939 226.203 353.272C226.91 353.606 227.463 354.072 227.863 354.672C228.276 355.259 228.483 355.926 228.483 356.672C228.483 357.406 228.236 358.066 227.743 358.652C227.263 359.226 226.63 359.626 225.843 359.852C226.79 360.052 227.543 360.452 228.103 361.052C228.663 361.639 228.943 362.332 228.943 363.132C228.943 363.919 228.723 364.619 228.283 365.232C227.856 365.846 227.256 366.332 226.483 366.692C225.71 367.039 224.83 367.212 223.843 367.212Z" fill="white"/>
<mask id="path-66-inside-7_4111_7164" fill="white">
<path d="M250 335.992H298V383.992H250V335.992Z"/>
</mask>
<path d="M298 379.992H250V387.992H298V379.992Z" fill="#92C5F9" mask="url(#path-66-inside-7_4111_7164)"/>
<path d="M276.074 366.992V363.432H268.134V361.852L275.834 352.992H278.054V361.752H279.754V363.432H278.054V366.992H276.074ZM270.514 361.752H276.074V355.352L270.514 361.752Z" fill="white"/>
<path d="M323.78 367.212C321.913 367.212 320.293 366.579 318.92 365.312L320.1 363.992C320.7 364.539 321.293 364.939 321.88 365.192C322.48 365.432 323.133 365.552 323.84 365.552C324.48 365.552 325.033 365.432 325.5 365.192C325.966 364.939 326.333 364.592 326.6 364.152C326.866 363.699 327 363.186 327 362.612C327 361.772 326.7 361.092 326.1 360.572C325.513 360.052 324.746 359.792 323.8 359.792C323.32 359.792 322.846 359.859 322.38 359.992C321.913 360.112 321.426 360.306 320.92 360.572L319.56 360.152L319.88 352.992H328.2V354.652H321.56L321.36 358.972C321.88 358.706 322.373 358.526 322.84 358.432C323.32 358.326 323.813 358.272 324.32 358.272C325.253 358.272 326.06 358.452 326.74 358.812C327.433 359.159 327.973 359.652 328.36 360.292C328.746 360.932 328.94 361.672 328.94 362.512C328.94 363.446 328.72 364.266 328.28 364.972C327.853 365.666 327.253 366.212 326.48 366.612C325.706 367.012 324.806 367.212 323.78 367.212Z" fill="white"/>
<path d="M369 367.132C368.653 367.132 368.353 367.012 368.1 366.772C367.86 366.519 367.74 366.219 367.74 365.872C367.74 365.526 367.86 365.232 368.1 364.992C368.353 364.739 368.653 364.612 369 364.612C369.347 364.612 369.64 364.739 369.88 364.992C370.133 365.232 370.26 365.526 370.26 365.872C370.26 366.219 370.133 366.519 369.88 366.772C369.64 367.012 369.347 367.132 369 367.132ZM374 367.132C373.653 367.132 373.353 367.012 373.1 366.772C372.86 366.519 372.74 366.219 372.74 365.872C372.74 365.526 372.86 365.232 373.1 364.992C373.353 364.739 373.653 364.612 374 364.612C374.347 364.612 374.64 364.739 374.88 364.992C375.133 365.232 375.26 365.526 375.26 365.872C375.26 366.219 375.133 366.519 374.88 366.772C374.64 367.012 374.347 367.132 374 367.132ZM379 367.132C378.653 367.132 378.353 367.012 378.1 366.772C377.86 366.519 377.74 366.219 377.74 365.872C377.74 365.526 377.86 365.232 378.1 364.992C378.353 364.739 378.653 364.612 379 364.612C379.347 364.612 379.64 364.739 379.88 364.992C380.133 365.232 380.26 365.526 380.26 365.872C380.26 366.219 380.133 366.519 379.88 366.772C379.64 367.012 379.347 367.132 379 367.132Z" fill="#A3A3A3"/>
<path d="M417.071 367.212C415.204 367.212 413.584 366.579 412.211 365.312L413.391 363.992C413.991 364.539 414.584 364.939 415.171 365.192C415.771 365.432 416.424 365.552 417.131 365.552C417.771 365.552 418.324 365.432 418.791 365.192C419.257 364.939 419.624 364.592 419.891 364.152C420.157 363.699 420.291 363.186 420.291 362.612C420.291 361.772 419.991 361.092 419.391 360.572C418.804 360.052 418.037 359.792 417.091 359.792C416.611 359.792 416.137 359.859 415.671 359.992C415.204 360.112 414.717 360.306 414.211 360.572L412.851 360.152L413.171 352.992H421.491V354.652H414.851L414.651 358.972C415.171 358.706 415.664 358.526 416.131 358.432C416.611 358.326 417.104 358.272 417.611 358.272C418.544 358.272 419.351 358.452 420.031 358.812C420.724 359.159 421.264 359.652 421.651 360.292C422.037 360.932 422.231 361.672 422.231 362.512C422.231 363.446 422.011 364.266 421.571 364.972C421.144 365.666 420.544 366.212 419.771 366.612C418.997 367.012 418.097 367.212 417.071 367.212ZM429.831 367.212C428.658 367.212 427.631 366.912 426.751 366.312C425.871 365.699 425.178 364.852 424.671 363.772C424.178 362.679 423.931 361.419 423.931 359.992C423.931 358.566 424.178 357.312 424.671 356.232C425.178 355.139 425.871 354.292 426.751 353.692C427.631 353.079 428.658 352.772 429.831 352.772C430.991 352.772 432.011 353.079 432.891 353.692C433.771 354.292 434.458 355.139 434.951 356.232C435.458 357.312 435.711 358.566 435.711 359.992C435.711 361.419 435.458 362.679 434.951 363.772C434.458 364.852 433.771 365.699 432.891 366.312C432.011 366.912 430.991 367.212 429.831 367.212ZM429.831 365.472C430.631 365.472 431.325 365.252 431.911 364.812C432.498 364.359 432.951 363.719 433.271 362.892C433.591 362.066 433.751 361.099 433.751 359.992C433.751 358.872 433.591 357.906 433.271 357.092C432.951 356.266 432.498 355.632 431.911 355.192C431.325 354.739 430.631 354.512 429.831 354.512C429.031 354.512 428.331 354.739 427.731 355.192C427.145 355.632 426.691 356.266 426.371 357.092C426.051 357.906 425.891 358.872 425.891 359.992C425.891 361.099 426.051 362.066 426.371 362.892C426.691 363.719 427.145 364.359 427.731 364.812C428.331 365.252 429.031 365.472 429.831 365.472Z" fill="white"/>
<g clip-path="url(#clip14_4111_7164)">
<path d="M471 367.492C470.87 367.492 470.745 367.442 470.645 367.347C470.45 367.152 470.45 366.837 470.645 366.642L477.29 359.997L470.645 353.347C470.45 353.152 470.45 352.837 470.645 352.642C470.84 352.447 471.155 352.447 471.35 352.642L478.175 359.467C478.465 359.757 478.465 360.237 478.175 360.527L471.35 367.352C471.25 367.452 471.125 367.497 470.995 367.497L471 367.492Z" fill="white"/>
</g>
<g clip-path="url(#clip15_4111_7164)">
<path d="M531.175 359.462L524.355 352.637C524.16 352.442 523.845 352.442 523.65 352.637C523.455 352.832 523.455 353.147 523.65 353.342L530.295 359.987L523.65 366.632C523.455 366.827 523.455 367.142 523.65 367.337C523.75 367.437 523.875 367.482 524.005 367.482C524.135 367.482 524.26 367.432 524.36 367.337L531.185 360.512C531.475 360.222 531.475 359.742 531.185 359.452L531.175 359.462Z" fill="white"/>
<path d="M524.175 359.462L517.355 352.637C517.16 352.442 516.845 352.442 516.65 352.637C516.455 352.832 516.455 353.147 516.65 353.342L523.295 359.987L516.645 366.637C516.45 366.832 516.45 367.147 516.645 367.342C516.745 367.442 516.87 367.487 517 367.487C517.13 367.487 517.255 367.437 517.355 367.342L524.18 360.517C524.47 360.227 524.47 359.747 524.18 359.457L524.175 359.462Z" fill="white"/>
</g>
<g filter="url(#filter9_d_4111_7164)">
<path d="M176 377.992V360.992L188 372.992H181L176 377.992Z" fill="#151515"/>
<path d="M175.5 377.992V379.199L176.354 378.346L181.207 373.492H188H189.207L188.354 372.639L176.354 360.639L175.5 359.785V360.992V377.992Z" stroke="white"/>
</g>
<g filter="url(#filter10_d_4111_7164)">
<path d="M22.51 377.992V360.992L34.51 372.992H27.51L22.51 377.992Z" fill="#151515"/>
<path d="M22.01 377.992V379.199L22.8636 378.346L27.7171 373.492H34.51H35.7171L34.8636 372.639L22.8636 360.639L22.01 359.785V360.992V377.992Z" stroke="white"/>
</g>
<g clip-path="url(#clip16_4111_7164)">
<path d="M17.7049 471.992L24.3549 465.347C24.5499 465.152 24.5499 464.837 24.3549 464.642C24.1599 464.447 23.8449 464.447 23.6499 464.642L16.8249 471.462C16.5349 471.752 16.5349 472.232 16.8249 472.522L23.6499 479.347C23.7499 479.447 23.8749 479.492 24.0049 479.492C24.1349 479.492 24.2599 479.442 24.3599 479.347C24.5549 479.152 24.5549 478.837 24.3599 478.642L17.7049 471.992Z" fill="white"/>
<path d="M24.7049 471.992L31.3549 465.347C31.5499 465.152 31.5499 464.837 31.3549 464.642C31.1599 464.447 30.8449 464.447 30.6499 464.642L23.8249 471.467C23.5349 471.757 23.5349 472.237 23.8249 472.527L30.6499 479.352C30.7499 479.452 30.8749 479.497 31.0049 479.497C31.1349 479.497 31.2599 479.447 31.3599 479.352C31.5549 479.157 31.5549 478.842 31.3599 478.647L24.7149 472.002L24.7049 471.992Z" fill="white"/>
</g>
<g clip-path="url(#clip17_4111_7164)">
<path d="M77 479.492C76.87 479.492 76.745 479.442 76.645 479.347L69.82 472.522C69.53 472.232 69.53 471.752 69.82 471.462L76.645 464.637C76.84 464.442 77.155 464.442 77.35 464.637C77.545 464.832 77.545 465.147 77.35 465.342L70.705 471.987L77.35 478.632C77.545 478.827 77.545 479.142 77.35 479.337C77.25 479.437 77.125 479.482 76.995 479.482L77 479.492Z" fill="white"/>
</g>
<path d="M123.875 478.992V467.052L121.355 468.112V466.352L124.595 464.992H125.855V478.992H123.875Z" fill="white"/>
<path d="M169.433 478.992V477.592L175.113 471.552C175.5 471.152 175.8 470.792 176.013 470.472C176.226 470.152 176.373 469.852 176.453 469.572C176.546 469.279 176.593 468.972 176.593 468.652C176.593 468.026 176.34 467.506 175.833 467.092C175.326 466.679 174.686 466.472 173.913 466.472C173.273 466.472 172.673 466.599 172.113 466.852C171.553 467.106 170.933 467.546 170.253 468.172L169.173 466.852C169.92 466.159 170.686 465.639 171.473 465.292C172.273 464.946 173.1 464.772 173.953 464.772C174.846 464.772 175.633 464.932 176.313 465.252C176.993 465.572 177.52 466.019 177.893 466.592C178.28 467.152 178.473 467.799 178.473 468.532C178.473 468.999 178.413 469.432 178.293 469.832C178.173 470.219 177.966 470.632 177.673 471.072C177.38 471.499 176.966 471.992 176.433 472.552L171.873 477.352L178.753 477.332V478.992H169.433Z" fill="white"/>
<path d="M223.843 479.212C222.843 479.212 221.903 479.039 221.023 478.692C220.156 478.332 219.403 477.819 218.763 477.152L220.063 475.912C220.623 476.499 221.19 476.919 221.763 477.172C222.35 477.412 223.036 477.532 223.823 477.532C224.45 477.532 225.003 477.426 225.483 477.212C225.976 476.999 226.356 476.706 226.623 476.332C226.89 475.959 227.023 475.526 227.023 475.032C227.023 474.579 226.903 474.179 226.663 473.832C226.436 473.472 226.123 473.199 225.723 473.012C225.336 472.812 224.876 472.712 224.343 472.712H222.643V471.092H224.203C224.91 471.092 225.476 470.886 225.903 470.472C226.33 470.059 226.543 469.519 226.543 468.852C226.543 468.412 226.423 468.012 226.183 467.652C225.943 467.292 225.61 467.012 225.183 466.812C224.77 466.599 224.296 466.492 223.763 466.492C223.056 466.492 222.43 466.619 221.883 466.872C221.35 467.112 220.796 467.539 220.223 468.152L218.923 466.912C219.563 466.219 220.303 465.692 221.143 465.332C221.983 464.959 222.87 464.772 223.803 464.772C224.71 464.772 225.51 464.939 226.203 465.272C226.91 465.606 227.463 466.072 227.863 466.672C228.276 467.259 228.483 467.926 228.483 468.672C228.483 469.406 228.236 470.066 227.743 470.652C227.263 471.226 226.63 471.626 225.843 471.852C226.79 472.052 227.543 472.452 228.103 473.052C228.663 473.639 228.943 474.332 228.943 475.132C228.943 475.919 228.723 476.619 228.283 477.232C227.856 477.846 227.256 478.332 226.483 478.692C225.71 479.039 224.83 479.212 223.843 479.212Z" fill="white"/>
<mask id="path-85-inside-8_4111_7164" fill="white">
<path d="M250 447.992H298V495.992H250V447.992Z"/>
</mask>
<path d="M298 491.992H250V499.992H298V491.992Z" fill="#92C5F9" mask="url(#path-85-inside-8_4111_7164)"/>
<path d="M276.074 478.992V475.432H268.134V473.852L275.834 464.992H278.054V473.752H279.754V475.432H278.054V478.992H276.074ZM270.514 473.752H276.074V467.352L270.514 473.752Z" fill="white"/>
<path d="M323.78 479.212C321.913 479.212 320.293 478.579 318.92 477.312L320.1 475.992C320.7 476.539 321.293 476.939 321.88 477.192C322.48 477.432 323.133 477.552 323.84 477.552C324.48 477.552 325.033 477.432 325.5 477.192C325.966 476.939 326.333 476.592 326.6 476.152C326.866 475.699 327 475.186 327 474.612C327 473.772 326.7 473.092 326.1 472.572C325.513 472.052 324.746 471.792 323.8 471.792C323.32 471.792 322.846 471.859 322.38 471.992C321.913 472.112 321.426 472.306 320.92 472.572L319.56 472.152L319.88 464.992H328.2V466.652H321.56L321.36 470.972C321.88 470.706 322.373 470.526 322.84 470.432C323.32 470.326 323.813 470.272 324.32 470.272C325.253 470.272 326.06 470.452 326.74 470.812C327.433 471.159 327.973 471.652 328.36 472.292C328.746 472.932 328.94 473.672 328.94 474.512C328.94 475.446 328.72 476.266 328.28 476.972C327.853 477.666 327.253 478.212 326.48 478.612C325.706 479.012 324.806 479.212 323.78 479.212Z" fill="white"/>
<path d="M369 479.132C368.653 479.132 368.353 479.012 368.1 478.772C367.86 478.519 367.74 478.219 367.74 477.872C367.74 477.526 367.86 477.232 368.1 476.992C368.353 476.739 368.653 476.612 369 476.612C369.347 476.612 369.64 476.739 369.88 476.992C370.133 477.232 370.26 477.526 370.26 477.872C370.26 478.219 370.133 478.519 369.88 478.772C369.64 479.012 369.347 479.132 369 479.132ZM374 479.132C373.653 479.132 373.353 479.012 373.1 478.772C372.86 478.519 372.74 478.219 372.74 477.872C372.74 477.526 372.86 477.232 373.1 476.992C373.353 476.739 373.653 476.612 374 476.612C374.347 476.612 374.64 476.739 374.88 476.992C375.133 477.232 375.26 477.526 375.26 477.872C375.26 478.219 375.133 478.519 374.88 478.772C374.64 479.012 374.347 479.132 374 479.132ZM379 479.132C378.653 479.132 378.353 479.012 378.1 478.772C377.86 478.519 377.74 478.219 377.74 477.872C377.74 477.526 377.86 477.232 378.1 476.992C378.353 476.739 378.653 476.612 379 476.612C379.347 476.612 379.64 476.739 379.88 476.992C380.133 477.232 380.26 477.526 380.26 477.872C380.26 478.219 380.133 478.519 379.88 478.772C379.64 479.012 379.347 479.132 379 479.132Z" fill="#A3A3A3"/>
<path d="M417.071 479.212C415.204 479.212 413.584 478.579 412.211 477.312L413.391 475.992C413.991 476.539 414.584 476.939 415.171 477.192C415.771 477.432 416.424 477.552 417.131 477.552C417.771 477.552 418.324 477.432 418.791 477.192C419.257 476.939 419.624 476.592 419.891 476.152C420.157 475.699 420.291 475.186 420.291 474.612C420.291 473.772 419.991 473.092 419.391 472.572C418.804 472.052 418.037 471.792 417.091 471.792C416.611 471.792 416.137 471.859 415.671 471.992C415.204 472.112 414.717 472.306 414.211 472.572L412.851 472.152L413.171 464.992H421.491V466.652H414.851L414.651 470.972C415.171 470.706 415.664 470.526 416.131 470.432C416.611 470.326 417.104 470.272 417.611 470.272C418.544 470.272 419.351 470.452 420.031 470.812C420.724 471.159 421.264 471.652 421.651 472.292C422.037 472.932 422.231 473.672 422.231 474.512C422.231 475.446 422.011 476.266 421.571 476.972C421.144 477.666 420.544 478.212 419.771 478.612C418.997 479.012 418.097 479.212 417.071 479.212ZM429.831 479.212C428.658 479.212 427.631 478.912 426.751 478.312C425.871 477.699 425.178 476.852 424.671 475.772C424.178 474.679 423.931 473.419 423.931 471.992C423.931 470.566 424.178 469.312 424.671 468.232C425.178 467.139 425.871 466.292 426.751 465.692C427.631 465.079 428.658 464.772 429.831 464.772C430.991 464.772 432.011 465.079 432.891 465.692C433.771 466.292 434.458 467.139 434.951 468.232C435.458 469.312 435.711 470.566 435.711 471.992C435.711 473.419 435.458 474.679 434.951 475.772C434.458 476.852 433.771 477.699 432.891 478.312C432.011 478.912 430.991 479.212 429.831 479.212ZM429.831 477.472C430.631 477.472 431.325 477.252 431.911 476.812C432.498 476.359 432.951 475.719 433.271 474.892C433.591 474.066 433.751 473.099 433.751 471.992C433.751 470.872 433.591 469.906 433.271 469.092C432.951 468.266 432.498 467.632 431.911 467.192C431.325 466.739 430.631 466.512 429.831 466.512C429.031 466.512 428.331 466.739 427.731 467.192C427.145 467.632 426.691 468.266 426.371 469.092C426.051 469.906 425.891 470.872 425.891 471.992C425.891 473.099 426.051 474.066 426.371 474.892C426.691 475.719 427.145 476.359 427.731 476.812C428.331 477.252 429.031 477.472 429.831 477.472Z" fill="white"/>
<g clip-path="url(#clip18_4111_7164)">
<path d="M471 479.492C470.87 479.492 470.745 479.442 470.645 479.347C470.45 479.152 470.45 478.837 470.645 478.642L477.29 471.997L470.645 465.347C470.45 465.152 470.45 464.837 470.645 464.642C470.84 464.447 471.155 464.447 471.35 464.642L478.175 471.467C478.465 471.757 478.465 472.237 478.175 472.527L471.35 479.352C471.25 479.452 471.125 479.497 470.995 479.497L471 479.492Z" fill="white"/>
</g>
<g clip-path="url(#clip19_4111_7164)">
<path d="M531.175 471.462L524.355 464.637C524.16 464.442 523.845 464.442 523.65 464.637C523.455 464.832 523.455 465.147 523.65 465.342L530.295 471.987L523.65 478.632C523.455 478.827 523.455 479.142 523.65 479.337C523.75 479.437 523.875 479.482 524.005 479.482C524.135 479.482 524.26 479.432 524.36 479.337L531.185 472.512C531.475 472.222 531.475 471.742 531.185 471.452L531.175 471.462Z" fill="white"/>
<path d="M524.175 471.462L517.355 464.637C517.16 464.442 516.845 464.442 516.65 464.637C516.455 464.832 516.455 465.147 516.65 465.342L523.295 471.987L516.645 478.637C516.45 478.832 516.45 479.147 516.645 479.342C516.745 479.442 516.87 479.487 517 479.487C517.13 479.487 517.255 479.437 517.355 479.342L524.18 472.517C524.47 472.227 524.47 471.747 524.18 471.457L524.175 471.462Z" fill="white"/>
</g>
<path d="M581.424 477.992V466.792H586.048C586.773 466.792 587.403 466.931 587.936 467.208C588.469 467.475 588.88 467.859 589.168 468.36C589.467 468.851 589.616 469.432 589.616 470.104C589.616 470.766 589.467 471.347 589.168 471.848C588.88 472.35 588.469 472.739 587.936 473.016C587.403 473.283 586.773 473.416 586.048 473.416H582.656V477.992H581.424ZM582.656 472.36H585.904C586.683 472.36 587.291 472.158 587.728 471.752C588.165 471.347 588.384 470.798 588.384 470.104C588.384 469.411 588.165 468.867 587.728 468.472C587.291 468.078 586.683 467.88 585.904 467.88H582.656V472.36ZM593.679 478.136C593.124 478.136 592.633 478.035 592.207 477.832C591.78 477.63 591.444 477.352 591.199 477C590.964 476.638 590.847 476.222 590.847 475.752C590.847 475.283 590.969 474.878 591.215 474.536C591.46 474.184 591.801 473.912 592.239 473.72C592.676 473.528 593.188 473.432 593.775 473.432C594.223 473.432 594.644 473.48 595.039 473.576C595.444 473.672 595.817 473.827 596.159 474.04V472.968C596.159 472.328 595.988 471.848 595.647 471.528C595.305 471.198 594.804 471.032 594.143 471.032C593.78 471.032 593.407 471.086 593.023 471.192C592.649 471.299 592.233 471.47 591.775 471.704L591.343 470.808C592.388 470.307 593.369 470.056 594.286 470.056C595.257 470.056 596.004 470.296 596.527 470.776C597.049 471.246 597.311 471.923 597.311 472.808V477.992H596.159V477.08C595.817 477.432 595.439 477.699 595.023 477.88C594.607 478.051 594.159 478.136 593.679 478.136ZM591.967 475.72C591.967 476.179 592.143 476.547 592.495 476.824C592.857 477.102 593.332 477.24 593.919 477.24C594.356 477.24 594.756 477.166 595.119 477.016C595.492 476.867 595.839 476.643 596.159 476.344V474.84C595.828 474.648 595.487 474.51 595.135 474.424C594.783 474.328 594.388 474.28 593.951 474.28C593.353 474.28 592.873 474.414 592.511 474.68C592.148 474.936 591.967 475.283 591.967 475.72ZM603.3 481.496C602.778 481.496 602.25 481.422 601.716 481.272C601.194 481.134 600.708 480.936 600.26 480.68L600.756 479.784C601.236 480.03 601.674 480.211 602.068 480.328C602.463 480.446 602.858 480.504 603.252 480.504C603.967 480.504 604.506 480.334 604.868 479.992C605.242 479.651 605.428 479.155 605.428 478.504V476.936C605.13 477.31 604.767 477.598 604.34 477.8C603.914 477.992 603.444 478.088 602.932 478.088C602.26 478.088 601.652 477.912 601.108 477.56C600.564 477.198 600.132 476.718 599.812 476.12C599.492 475.512 599.332 474.835 599.332 474.088C599.332 473.342 599.492 472.67 599.812 472.072C600.143 471.464 600.586 470.984 601.14 470.632C601.695 470.27 602.314 470.088 602.996 470.088C603.487 470.088 603.94 470.184 604.356 470.376C604.772 470.558 605.135 470.83 605.444 471.192V470.184H606.596V478.488C606.596 479.459 606.314 480.2 605.748 480.712C605.183 481.235 604.367 481.496 603.3 481.496ZM603.22 477.08C603.679 477.08 604.1 476.99 604.484 476.808C604.868 476.616 605.183 476.355 605.428 476.024V472.168C605.172 471.838 604.847 471.582 604.452 471.4C604.068 471.208 603.658 471.112 603.22 471.112C602.698 471.112 602.228 471.24 601.812 471.496C601.407 471.752 601.082 472.104 600.836 472.552C600.602 473 600.484 473.512 600.484 474.088C600.484 474.654 600.602 475.166 600.836 475.624C601.082 476.072 601.407 476.43 601.812 476.696C602.228 476.952 602.698 477.08 603.22 477.08ZM612.517 478.152C611.792 478.152 611.136 477.976 610.549 477.624C609.962 477.262 609.498 476.776 609.157 476.168C608.816 475.55 608.645 474.856 608.645 474.088C608.645 473.32 608.805 472.632 609.125 472.024C609.456 471.416 609.898 470.936 610.453 470.584C611.008 470.232 611.626 470.056 612.309 470.056C613.002 470.056 613.616 470.232 614.149 470.584C614.693 470.926 615.12 471.395 615.429 471.992C615.749 472.579 615.909 473.246 615.909 473.992V474.344H609.781C609.824 474.878 609.968 475.358 610.213 475.784C610.469 476.2 610.8 476.531 611.205 476.776C611.621 477.011 612.074 477.128 612.565 477.128C612.97 477.128 613.36 477.059 613.733 476.92C614.117 476.771 614.442 476.574 614.709 476.328L615.445 477.112C614.997 477.464 614.533 477.726 614.053 477.896C613.573 478.067 613.061 478.152 612.517 478.152ZM609.813 473.512H614.757C614.704 473.043 614.56 472.627 614.325 472.264C614.101 471.891 613.813 471.598 613.461 471.384C613.12 471.171 612.736 471.064 612.309 471.064C611.882 471.064 611.493 471.171 611.141 471.384C610.789 471.587 610.496 471.875 610.261 472.248C610.037 472.611 609.888 473.032 609.813 473.512Z" fill="white"/>
<g filter="url(#filter11_i_4111_7164)">
<mask id="path-95-inside-9_4111_7164" fill="white">
<path d="M625 453.992H689V489.992H625V453.992Z"/>
</mask>
<path d="M625 453.992H689V489.992H625V453.992Z" fill="white"/>
<path d="M625 453.992V452.992H624V453.992H625ZM689 453.992H690V452.992H689V453.992ZM625 454.992H689V452.992H625V454.992ZM688 453.992V489.992H690V453.992H688ZM626 489.992V453.992H624V489.992H626Z" fill="#C7C7C7" mask="url(#path-95-inside-9_4111_7164)"/>
<path d="M639.672 477.992V475H633.624V474.088L639.576 466.792H640.808V473.992H642.36V475H640.808V477.992H639.672ZM634.968 473.992H639.672V468.184L634.968 473.992Z" fill="#151515"/>
</g>
<path d="M701.656 478.12C700.931 478.12 700.28 477.944 699.704 477.592C699.128 477.24 698.675 476.76 698.344 476.152C698.013 475.544 697.848 474.856 697.848 474.088C697.848 473.32 698.013 472.632 698.344 472.024C698.675 471.416 699.128 470.936 699.704 470.584C700.28 470.232 700.931 470.056 701.656 470.056C702.371 470.056 703.011 470.232 703.576 470.584C704.152 470.936 704.605 471.416 704.936 472.024C705.267 472.632 705.432 473.32 705.432 474.088C705.432 474.856 705.267 475.544 704.936 476.152C704.605 476.76 704.152 477.24 703.576 477.592C703.011 477.944 702.371 478.12 701.656 478.12ZM701.64 477.096C702.152 477.096 702.605 476.968 703 476.712C703.395 476.446 703.704 476.083 703.928 475.624C704.163 475.166 704.28 474.654 704.28 474.088C704.28 473.512 704.163 473 703.928 472.552C703.704 472.094 703.395 471.736 703 471.48C702.605 471.214 702.152 471.08 701.64 471.08C701.128 471.08 700.675 471.214 700.28 471.48C699.885 471.736 699.571 472.094 699.336 472.552C699.112 473 699 473.512 699 474.088C699 474.654 699.112 475.166 699.336 475.624C699.571 476.083 699.885 476.446 700.28 476.712C700.675 476.968 701.128 477.096 701.64 477.096ZM707.989 477.992V471.144H706.245V470.184H707.989V468.552C707.989 467.784 708.192 467.192 708.597 466.776C709.002 466.36 709.578 466.152 710.325 466.152C710.538 466.152 710.73 466.163 710.901 466.184C711.082 466.206 711.242 466.243 711.381 466.296V467.352C711.21 467.299 711.056 467.262 710.917 467.24C710.778 467.219 710.618 467.208 710.437 467.208C709.989 467.208 709.664 467.32 709.461 467.544C709.258 467.758 709.157 468.099 709.157 468.568V470.184H711.381V471.144H709.157V477.992H707.989Z" fill="white"/>
<path d="M719.853 478.168C718.381 478.168 717.112 477.662 716.045 476.648L716.765 475.864C717.256 476.323 717.741 476.659 718.221 476.872C718.712 477.075 719.261 477.176 719.869 477.176C720.413 477.176 720.893 477.064 721.309 476.84C721.725 476.616 722.045 476.302 722.269 475.896C722.504 475.491 722.621 475.027 722.621 474.504C722.621 473.758 722.365 473.155 721.853 472.696C721.352 472.238 720.69 472.008 719.869 472.008C719.442 472.008 719.026 472.062 718.621 472.168C718.216 472.264 717.794 472.424 717.357 472.648L716.557 472.392L716.813 466.792H723.181V467.8H717.805L717.629 471.672C718.056 471.459 718.466 471.31 718.861 471.224C719.256 471.128 719.672 471.08 720.109 471.08C720.845 471.08 721.485 471.224 722.029 471.512C722.584 471.79 723.01 472.184 723.309 472.696C723.618 473.198 723.773 473.784 723.773 474.456C723.773 475.192 723.608 475.838 723.277 476.392C722.946 476.947 722.488 477.384 721.901 477.704C721.314 478.014 720.632 478.168 719.853 478.168ZM729.858 478.168C729.005 478.168 728.247 477.923 727.586 477.432C726.935 476.942 726.423 476.264 726.05 475.4C725.677 474.526 725.49 473.523 725.49 472.392C725.49 471.251 725.677 470.248 726.05 469.384C726.423 468.52 726.935 467.843 727.586 467.352C728.247 466.862 729.005 466.616 729.858 466.616C730.711 466.616 731.463 466.862 732.114 467.352C732.775 467.843 733.293 468.52 733.666 469.384C734.039 470.248 734.226 471.251 734.226 472.392C734.226 473.523 734.039 474.526 733.666 475.4C733.293 476.264 732.775 476.942 732.114 477.432C731.463 477.923 730.711 478.168 729.858 478.168ZM729.858 477.128C730.509 477.128 731.069 476.936 731.538 476.552C732.018 476.158 732.391 475.608 732.658 474.904C732.925 474.19 733.058 473.352 733.058 472.392C733.058 471.432 732.925 470.6 732.658 469.896C732.391 469.182 732.018 468.632 731.538 468.248C731.069 467.854 730.509 467.656 729.858 467.656C729.218 467.656 728.658 467.854 728.178 468.248C727.698 468.632 727.325 469.182 727.058 469.896C726.791 470.6 726.658 471.432 726.658 472.392C726.658 473.352 726.791 474.19 727.058 474.904C727.325 475.608 727.698 476.158 728.178 476.552C728.658 476.936 729.218 477.128 729.858 477.128Z" fill="#92C5F9"/>
<path d="M654 463.992H655C656.105 463.992 657 464.888 657 465.992V477.992C657 479.097 656.105 479.992 655 479.992H654" stroke="black" stroke-width="0.8" stroke-linecap="round"/>
<path d="M660 479.992L659 479.992C657.895 479.992 657 479.097 657 477.992L657 465.992C657 464.888 657.895 463.992 659 463.992L660 463.992" stroke="black" stroke-width="0.8" stroke-linecap="round"/>
<path d="M655.5 471.992H658.5" stroke="black" stroke-width="0.8" stroke-linecap="round"/>
<g clip-path="url(#clip20_4111_7164)">
<path d="M17.7049 583.992L24.3549 577.347C24.5499 577.152 24.5499 576.837 24.3549 576.642C24.1599 576.447 23.8449 576.447 23.6499 576.642L16.8249 583.462C16.5349 583.752 16.5349 584.232 16.8249 584.522L23.6499 591.347C23.7499 591.447 23.8749 591.492 24.0049 591.492C24.1349 591.492 24.2599 591.442 24.3599 591.347C24.5549 591.152 24.5549 590.837 24.3599 590.642L17.7049 583.992Z" fill="white"/>
<path d="M24.7049 583.992L31.3549 577.347C31.5499 577.152 31.5499 576.837 31.3549 576.642C31.1599 576.447 30.8449 576.447 30.6499 576.642L23.8249 583.467C23.5349 583.757 23.5349 584.237 23.8249 584.527L30.6499 591.352C30.7499 591.452 30.8749 591.497 31.0049 591.497C31.1349 591.497 31.2599 591.447 31.3599 591.352C31.5549 591.157 31.5549 590.842 31.3599 590.647L24.7149 584.002L24.7049 583.992Z" fill="white"/>
</g>
<g clip-path="url(#clip21_4111_7164)">
<path d="M77 591.492C76.87 591.492 76.745 591.442 76.645 591.347L69.82 584.522C69.53 584.232 69.53 583.752 69.82 583.462L76.645 576.637C76.84 576.442 77.155 576.442 77.35 576.637C77.545 576.832 77.545 577.147 77.35 577.342L70.705 583.987L77.35 590.632C77.545 590.827 77.545 591.142 77.35 591.337C77.25 591.437 77.125 591.482 76.995 591.482L77 591.492Z" fill="white"/>
</g>
<g clip-path="url(#clip22_4111_7164)">
<path d="M121 591.492C120.87 591.492 120.745 591.442 120.645 591.347C120.45 591.152 120.45 590.837 120.645 590.642L127.29 583.997L120.645 577.347C120.45 577.152 120.45 576.837 120.645 576.642C120.84 576.447 121.155 576.447 121.35 576.642L128.175 583.467C128.465 583.757 128.465 584.237 128.175 584.527L121.35 591.352C121.25 591.452 121.125 591.497 120.995 591.497L121 591.492Z" fill="white"/>
</g>
<g clip-path="url(#clip23_4111_7164)">
<path d="M181.175 583.462L174.355 576.637C174.16 576.442 173.845 576.442 173.65 576.637C173.455 576.832 173.455 577.147 173.65 577.342L180.295 583.987L173.65 590.632C173.455 590.827 173.455 591.142 173.65 591.337C173.75 591.437 173.875 591.482 174.005 591.482C174.135 591.482 174.26 591.432 174.36 591.337L181.185 584.512C181.475 584.222 181.475 583.742 181.185 583.452L181.175 583.462Z" fill="white"/>
<path d="M174.175 583.462L167.355 576.637C167.16 576.442 166.845 576.442 166.65 576.637C166.455 576.832 166.455 577.147 166.65 577.342L173.295 583.987L166.645 590.637C166.45 590.832 166.45 591.147 166.645 591.342C166.745 591.442 166.87 591.487 167 591.487C167.13 591.487 167.255 591.437 167.355 591.342L174.18 584.517C174.47 584.227 174.47 583.747 174.18 583.457L174.175 583.462Z" fill="white"/>
</g>
<path d="M231.424 589.992V578.792H236.048C236.773 578.792 237.403 578.931 237.936 579.208C238.469 579.475 238.88 579.859 239.168 580.36C239.467 580.851 239.616 581.432 239.616 582.104C239.616 582.766 239.467 583.347 239.168 583.848C238.88 584.35 238.469 584.739 237.936 585.016C237.403 585.283 236.773 585.416 236.048 585.416H232.656V589.992H231.424ZM232.656 584.36H235.904C236.683 584.36 237.291 584.158 237.728 583.752C238.165 583.347 238.384 582.798 238.384 582.104C238.384 581.411 238.165 580.867 237.728 580.472C237.291 580.078 236.683 579.88 235.904 579.88H232.656V584.36ZM243.679 590.136C243.124 590.136 242.633 590.035 242.207 589.832C241.78 589.63 241.444 589.352 241.199 589C240.964 588.638 240.847 588.222 240.847 587.752C240.847 587.283 240.969 586.878 241.215 586.536C241.46 586.184 241.801 585.912 242.239 585.72C242.676 585.528 243.188 585.432 243.775 585.432C244.223 585.432 244.644 585.48 245.039 585.576C245.444 585.672 245.817 585.827 246.159 586.04V584.968C246.159 584.328 245.988 583.848 245.647 583.528C245.305 583.198 244.804 583.032 244.143 583.032C243.78 583.032 243.407 583.086 243.023 583.192C242.649 583.299 242.233 583.47 241.775 583.704L241.343 582.808C242.388 582.307 243.369 582.056 244.286 582.056C245.257 582.056 246.004 582.296 246.527 582.776C247.049 583.246 247.311 583.923 247.311 584.808V589.992H246.159V589.08C245.817 589.432 245.439 589.699 245.023 589.88C244.607 590.051 244.159 590.136 243.679 590.136ZM241.967 587.72C241.967 588.179 242.143 588.547 242.495 588.824C242.857 589.102 243.332 589.24 243.919 589.24C244.356 589.24 244.756 589.166 245.119 589.016C245.492 588.867 245.839 588.643 246.159 588.344V586.84C245.828 586.648 245.487 586.51 245.135 586.424C244.783 586.328 244.388 586.28 243.951 586.28C243.353 586.28 242.873 586.414 242.511 586.68C242.148 586.936 241.967 587.283 241.967 587.72ZM253.3 593.496C252.778 593.496 252.25 593.422 251.716 593.272C251.194 593.134 250.708 592.936 250.26 592.68L250.756 591.784C251.236 592.03 251.674 592.211 252.068 592.328C252.463 592.446 252.858 592.504 253.252 592.504C253.967 592.504 254.506 592.334 254.868 591.992C255.242 591.651 255.428 591.155 255.428 590.504V588.936C255.13 589.31 254.767 589.598 254.34 589.8C253.914 589.992 253.444 590.088 252.932 590.088C252.26 590.088 251.652 589.912 251.108 589.56C250.564 589.198 250.132 588.718 249.812 588.12C249.492 587.512 249.332 586.835 249.332 586.088C249.332 585.342 249.492 584.67 249.812 584.072C250.143 583.464 250.586 582.984 251.14 582.632C251.695 582.27 252.314 582.088 252.996 582.088C253.487 582.088 253.94 582.184 254.356 582.376C254.772 582.558 255.135 582.83 255.444 583.192V582.184H256.596V590.488C256.596 591.459 256.314 592.2 255.748 592.712C255.183 593.235 254.367 593.496 253.3 593.496ZM253.22 589.08C253.679 589.08 254.1 588.99 254.484 588.808C254.868 588.616 255.183 588.355 255.428 588.024V584.168C255.172 583.838 254.847 583.582 254.452 583.4C254.068 583.208 253.658 583.112 253.22 583.112C252.698 583.112 252.228 583.24 251.812 583.496C251.407 583.752 251.082 584.104 250.836 584.552C250.602 585 250.484 585.512 250.484 586.088C250.484 586.654 250.602 587.166 250.836 587.624C251.082 588.072 251.407 588.43 251.812 588.696C252.228 588.952 252.698 589.08 253.22 589.08ZM262.517 590.152C261.792 590.152 261.136 589.976 260.549 589.624C259.962 589.262 259.498 588.776 259.157 588.168C258.816 587.55 258.645 586.856 258.645 586.088C258.645 585.32 258.805 584.632 259.125 584.024C259.456 583.416 259.898 582.936 260.453 582.584C261.008 582.232 261.626 582.056 262.309 582.056C263.002 582.056 263.616 582.232 264.149 582.584C264.693 582.926 265.12 583.395 265.429 583.992C265.749 584.579 265.909 585.246 265.909 585.992V586.344H259.781C259.824 586.878 259.968 587.358 260.213 587.784C260.469 588.2 260.8 588.531 261.205 588.776C261.621 589.011 262.074 589.128 262.565 589.128C262.97 589.128 263.36 589.059 263.733 588.92C264.117 588.771 264.442 588.574 264.709 588.328L265.445 589.112C264.997 589.464 264.533 589.726 264.053 589.896C263.573 590.067 263.061 590.152 262.517 590.152ZM259.813 585.512H264.757C264.704 585.043 264.56 584.627 264.325 584.264C264.101 583.891 263.813 583.598 263.461 583.384C263.12 583.171 262.736 583.064 262.309 583.064C261.882 583.064 261.493 583.171 261.141 583.384C260.789 583.587 260.496 583.875 260.261 584.248C260.037 584.611 259.888 585.032 259.813 585.512Z" fill="white"/>
<g filter="url(#filter12_i_4111_7164)">
<mask id="path-109-inside-10_4111_7164" fill="white">
<path d="M275 565.992H339V601.992H275V565.992Z"/>
</mask>
<path d="M275 565.992H339V601.992H275V565.992Z" fill="white"/>
<path d="M275 565.992V564.992H274V565.992H275ZM339 565.992H340V564.992H339V565.992ZM275 566.992H339V564.992H275V566.992ZM338 565.992V601.992H340V565.992H338ZM276 601.992V565.992H274V601.992H276Z" fill="#C7C7C7" mask="url(#path-109-inside-10_4111_7164)"/>
<path d="M289.672 589.992V587H283.624V586.088L289.576 578.792H290.808V585.992H292.36V587H290.808V589.992H289.672ZM284.968 585.992H289.672V580.184L284.968 585.992Z" fill="#151515"/>
</g>
<path d="M351.656 590.12C350.931 590.12 350.28 589.944 349.704 589.592C349.128 589.24 348.675 588.76 348.344 588.152C348.013 587.544 347.848 586.856 347.848 586.088C347.848 585.32 348.013 584.632 348.344 584.024C348.675 583.416 349.128 582.936 349.704 582.584C350.28 582.232 350.931 582.056 351.656 582.056C352.371 582.056 353.011 582.232 353.576 582.584C354.152 582.936 354.605 583.416 354.936 584.024C355.267 584.632 355.432 585.32 355.432 586.088C355.432 586.856 355.267 587.544 354.936 588.152C354.605 588.76 354.152 589.24 353.576 589.592C353.011 589.944 352.371 590.12 351.656 590.12ZM351.64 589.096C352.152 589.096 352.605 588.968 353 588.712C353.395 588.446 353.704 588.083 353.928 587.624C354.163 587.166 354.28 586.654 354.28 586.088C354.28 585.512 354.163 585 353.928 584.552C353.704 584.094 353.395 583.736 353 583.48C352.605 583.214 352.152 583.08 351.64 583.08C351.128 583.08 350.675 583.214 350.28 583.48C349.885 583.736 349.571 584.094 349.336 584.552C349.112 585 349 585.512 349 586.088C349 586.654 349.112 587.166 349.336 587.624C349.571 588.083 349.885 588.446 350.28 588.712C350.675 588.968 351.128 589.096 351.64 589.096ZM357.989 589.992V583.144H356.245V582.184H357.989V580.552C357.989 579.784 358.192 579.192 358.597 578.776C359.002 578.36 359.578 578.152 360.325 578.152C360.538 578.152 360.73 578.163 360.901 578.184C361.082 578.206 361.242 578.243 361.381 578.296V579.352C361.21 579.299 361.056 579.262 360.917 579.24C360.778 579.219 360.618 579.208 360.437 579.208C359.989 579.208 359.664 579.32 359.461 579.544C359.258 579.758 359.157 580.099 359.157 580.568V582.184H361.381V583.144H359.157V589.992H357.989Z" fill="white"/>
<path d="M369.853 590.168C368.381 590.168 367.112 589.662 366.045 588.648L366.765 587.864C367.256 588.323 367.741 588.659 368.221 588.872C368.712 589.075 369.261 589.176 369.869 589.176C370.413 589.176 370.893 589.064 371.309 588.84C371.725 588.616 372.045 588.302 372.269 587.896C372.504 587.491 372.621 587.027 372.621 586.504C372.621 585.758 372.365 585.155 371.853 584.696C371.352 584.238 370.69 584.008 369.869 584.008C369.442 584.008 369.026 584.062 368.621 584.168C368.216 584.264 367.794 584.424 367.357 584.648L366.557 584.392L366.813 578.792H373.181V579.8H367.805L367.629 583.672C368.056 583.459 368.466 583.31 368.861 583.224C369.256 583.128 369.672 583.08 370.109 583.08C370.845 583.08 371.485 583.224 372.029 583.512C372.584 583.79 373.01 584.184 373.309 584.696C373.618 585.198 373.773 585.784 373.773 586.456C373.773 587.192 373.608 587.838 373.277 588.392C372.946 588.947 372.488 589.384 371.901 589.704C371.314 590.014 370.632 590.168 369.853 590.168ZM379.858 590.168C379.005 590.168 378.247 589.923 377.586 589.432C376.935 588.942 376.423 588.264 376.05 587.4C375.677 586.526 375.49 585.523 375.49 584.392C375.49 583.251 375.677 582.248 376.05 581.384C376.423 580.52 376.935 579.843 377.586 579.352C378.247 578.862 379.005 578.616 379.858 578.616C380.711 578.616 381.463 578.862 382.114 579.352C382.775 579.843 383.293 580.52 383.666 581.384C384.039 582.248 384.226 583.251 384.226 584.392C384.226 585.523 384.039 586.526 383.666 587.4C383.293 588.264 382.775 588.942 382.114 589.432C381.463 589.923 380.711 590.168 379.858 590.168ZM379.858 589.128C380.509 589.128 381.069 588.936 381.538 588.552C382.018 588.158 382.391 587.608 382.658 586.904C382.925 586.19 383.058 585.352 383.058 584.392C383.058 583.432 382.925 582.6 382.658 581.896C382.391 581.182 382.018 580.632 381.538 580.248C381.069 579.854 380.509 579.656 379.858 579.656C379.218 579.656 378.658 579.854 378.178 580.248C377.698 580.632 377.325 581.182 377.058 581.896C376.791 582.6 376.658 583.432 376.658 584.392C376.658 585.352 376.791 586.19 377.058 586.904C377.325 587.608 377.698 588.158 378.178 588.552C378.658 588.936 379.218 589.128 379.858 589.128Z" fill="#B9DAFC"/>
<path d="M365.453 593.992H385.138V595.592H365.453V593.992Z" fill="#B9DAFC"/>
<g filter="url(#filter13_d_4111_7164)">
<path d="M374 601.992V584.992L386 596.992H379L374 601.992Z" fill="#151515"/>
<path d="M373.5 601.992V603.199L374.354 602.346L379.207 597.492H386H387.207L386.354 596.639L374.354 584.639L373.5 583.785V584.992V601.992Z" stroke="white"/>
</g>
<defs>
<filter id="filter0_i_4111_7164" x="0" y="-0.0078125" width="48" height="48" filterUnits="userSpaceOnUse" color-interpolation-filters="sRGB">
<feFlood flood-opacity="0" result="BackgroundImageFix"/>
<feBlend mode="normal" in="SourceGraphic" in2="BackgroundImageFix" result="shape"/>
<feColorMatrix in="SourceAlpha" type="matrix" values="0 0 0 0 0 0 0 0 0 0 0 0 0 0 0 0 0 0 127 0" result="hardAlpha"/>
<feOffset dy="3"/>
<feComposite in2="hardAlpha" operator="arithmetic" k2="-1" k3="1"/>
<feColorMatrix type="matrix" values="0 0 0 0 0.780392 0 0 0 0 0.780392 0 0 0 0 0.780392 0 0 0 1 0"/>
<feBlend mode="normal" in2="shape" result="effect1_innerShadow_4111_7164"/>
</filter>
<filter id="filter1_i_4111_7164" x="150" y="-0.0078125" width="48" height="48" filterUnits="userSpaceOnUse" color-interpolation-filters="sRGB">
<feFlood flood-opacity="0" result="BackgroundImageFix"/>
<feBlend mode="normal" in="SourceGraphic" in2="BackgroundImageFix" result="shape"/>
<feColorMatrix in="SourceAlpha" type="matrix" values="0 0 0 0 0 0 0 0 0 0 0 0 0 0 0 0 0 0 127 0" result="hardAlpha"/>
<feOffset dy="3"/>
<feComposite in2="hardAlpha" operator="arithmetic" k2="-1" k3="1"/>
<feColorMatrix type="matrix" values="0 0 0 0 0.780392 0 0 0 0 0.780392 0 0 0 0 0.780392 0 0 0 1 0"/>
<feBlend mode="normal" in2="shape" result="effect1_innerShadow_4111_7164"/>
</filter>
<filter id="filter2_i_4111_7164" x="250" y="-0.0078125" width="48" height="48" filterUnits="userSpaceOnUse" color-interpolation-filters="sRGB">
<feFlood flood-opacity="0" result="BackgroundImageFix"/>
<feBlend mode="normal" in="SourceGraphic" in2="BackgroundImageFix" result="shape"/>
<feColorMatrix in="SourceAlpha" type="matrix" values="0 0 0 0 0 0 0 0 0 0 0 0 0 0 0 0 0 0 127 0" result="hardAlpha"/>
<feOffset dy="3"/>
<feComposite in2="hardAlpha" operator="arithmetic" k2="-1" k3="1"/>
<feColorMatrix type="matrix" values="0 0 0 0 0.572549 0 0 0 0 0.772549 0 0 0 0 0.976471 0 0 0 1 0"/>
<feBlend mode="normal" in2="shape" result="effect1_innerShadow_4111_7164"/>
</filter>
<filter id="filter3_d_4111_7164" x="171" y="20.5781" width="23.4143" height="29.8281" filterUnits="userSpaceOnUse" color-interpolation-filters="sRGB">
<feFlood flood-opacity="0" result="BackgroundImageFix"/>
<feColorMatrix in="SourceAlpha" type="matrix" values="0 0 0 0 0 0 0 0 0 0 0 0 0 0 0 0 0 0 127 0" result="hardAlpha"/>
<feOffset dy="2"/>
<feGaussianBlur stdDeviation="2"/>
<feComposite in2="hardAlpha" operator="out"/>
<feColorMatrix type="matrix" values="0 0 0 0 0.0823529 0 0 0 0 0.0823529 0 0 0 0 0.0823529 0 0 0 0.2 0"/>
<feBlend mode="normal" in2="BackgroundImageFix" result="effect1_dropShadow_4111_7164"/>
<feBlend mode="normal" in="SourceGraphic" in2="effect1_dropShadow_4111_7164" result="shape"/>
</filter>
<filter id="filter4_d_4111_7164" x="17.51" y="20.5781" width="23.4143" height="29.8281" filterUnits="userSpaceOnUse" color-interpolation-filters="sRGB">
<feFlood flood-opacity="0" result="BackgroundImageFix"/>
<feColorMatrix in="SourceAlpha" type="matrix" values="0 0 0 0 0 0 0 0 0 0 0 0 0 0 0 0 0 0 127 0" result="hardAlpha"/>
<feOffset dy="2"/>
<feGaussianBlur stdDeviation="2"/>
<feComposite in2="hardAlpha" operator="out"/>
<feColorMatrix type="matrix" values="0 0 0 0 0.0823529 0 0 0 0 0.0823529 0 0 0 0 0.0823529 0 0 0 0.2 0"/>
<feBlend mode="normal" in2="BackgroundImageFix" result="effect1_dropShadow_4111_7164"/>
<feBlend mode="normal" in="SourceGraphic" in2="effect1_dropShadow_4111_7164" result="shape"/>
</filter>
<filter id="filter5_i_4111_7164" x="250" y="111.992" width="48" height="48" filterUnits="userSpaceOnUse" color-interpolation-filters="sRGB">
<feFlood flood-opacity="0" result="BackgroundImageFix"/>
<feBlend mode="normal" in="SourceGraphic" in2="BackgroundImageFix" result="shape"/>
<feColorMatrix in="SourceAlpha" type="matrix" values="0 0 0 0 0 0 0 0 0 0 0 0 0 0 0 0 0 0 127 0" result="hardAlpha"/>
<feOffset dy="3"/>
<feComposite in2="hardAlpha" operator="arithmetic" k2="-1" k3="1"/>
<feColorMatrix type="matrix" values="0 0 0 0 0.572549 0 0 0 0 0.772549 0 0 0 0 0.976471 0 0 0 1 0"/>
<feBlend mode="normal" in2="shape" result="effect1_innerShadow_4111_7164"/>
</filter>
<filter id="filter6_i_4111_7164" x="625" y="117.992" width="64" height="36" filterUnits="userSpaceOnUse" color-interpolation-filters="sRGB">
<feFlood flood-opacity="0" result="BackgroundImageFix"/>
<feBlend mode="normal" in="SourceGraphic" in2="BackgroundImageFix" result="shape"/>
<feColorMatrix in="SourceAlpha" type="matrix" values="0 0 0 0 0 0 0 0 0 0 0 0 0 0 0 0 0 0 127 0" result="hardAlpha"/>
<feOffset dy="-1"/>
<feComposite in2="hardAlpha" operator="arithmetic" k2="-1" k3="1"/>
<feColorMatrix type="matrix" values="0 0 0 0 0.572549 0 0 0 0 0.772549 0 0 0 0 0.976471 0 0 0 1 0"/>
<feBlend mode="normal" in2="shape" result="effect1_innerShadow_4111_7164"/>
</filter>
<filter id="filter7_i_4111_7164" x="275" y="229.992" width="64" height="36" filterUnits="userSpaceOnUse" color-interpolation-filters="sRGB">
<feFlood flood-opacity="0" result="BackgroundImageFix"/>
<feBlend mode="normal" in="SourceGraphic" in2="BackgroundImageFix" result="shape"/>
<feColorMatrix in="SourceAlpha" type="matrix" values="0 0 0 0 0 0 0 0 0 0 0 0 0 0 0 0 0 0 127 0" result="hardAlpha"/>
<feOffset dy="-1"/>
<feComposite in2="hardAlpha" operator="arithmetic" k2="-1" k3="1"/>
<feColorMatrix type="matrix" values="0 0 0 0 0.301961 0 0 0 0 0.301961 0 0 0 0 0.301961 0 0 0 1 0"/>
<feBlend mode="normal" in2="shape" result="effect1_innerShadow_4111_7164"/>
</filter>
<filter id="filter8_d_4111_7164" x="369" y="244.578" width="23.4143" height="29.8281" filterUnits="userSpaceOnUse" color-interpolation-filters="sRGB">
<feFlood flood-opacity="0" result="BackgroundImageFix"/>
<feColorMatrix in="SourceAlpha" type="matrix" values="0 0 0 0 0 0 0 0 0 0 0 0 0 0 0 0 0 0 127 0" result="hardAlpha"/>
<feOffset dy="2"/>
<feGaussianBlur stdDeviation="2"/>
<feComposite in2="hardAlpha" operator="out"/>
<feColorMatrix type="matrix" values="0 0 0 0 0.0823529 0 0 0 0 0.0823529 0 0 0 0 0.0823529 0 0 0 0.2 0"/>
<feBlend mode="normal" in2="BackgroundImageFix" result="effect1_dropShadow_4111_7164"/>
<feBlend mode="normal" in="SourceGraphic" in2="effect1_dropShadow_4111_7164" result="shape"/>
</filter>
<filter id="filter9_d_4111_7164" x="171" y="356.578" width="23.4143" height="29.8281" filterUnits="userSpaceOnUse" color-interpolation-filters="sRGB">
<feFlood flood-opacity="0" result="BackgroundImageFix"/>
<feColorMatrix in="SourceAlpha" type="matrix" values="0 0 0 0 0 0 0 0 0 0 0 0 0 0 0 0 0 0 127 0" result="hardAlpha"/>
<feOffset dy="2"/>
<feGaussianBlur stdDeviation="2"/>
<feComposite in2="hardAlpha" operator="out"/>
<feColorMatrix type="matrix" values="0 0 0 0 0.0823529 0 0 0 0 0.0823529 0 0 0 0 0.0823529 0 0 0 0.2 0"/>
<feBlend mode="normal" in2="BackgroundImageFix" result="effect1_dropShadow_4111_7164"/>
<feBlend mode="normal" in="SourceGraphic" in2="effect1_dropShadow_4111_7164" result="shape"/>
</filter>
<filter id="filter10_d_4111_7164" x="17.51" y="356.578" width="23.4143" height="29.8281" filterUnits="userSpaceOnUse" color-interpolation-filters="sRGB">
<feFlood flood-opacity="0" result="BackgroundImageFix"/>
<feColorMatrix in="SourceAlpha" type="matrix" values="0 0 0 0 0 0 0 0 0 0 0 0 0 0 0 0 0 0 127 0" result="hardAlpha"/>
<feOffset dy="2"/>
<feGaussianBlur stdDeviation="2"/>
<feComposite in2="hardAlpha" operator="out"/>
<feColorMatrix type="matrix" values="0 0 0 0 0.0823529 0 0 0 0 0.0823529 0 0 0 0 0.0823529 0 0 0 0.2 0"/>
<feBlend mode="normal" in2="BackgroundImageFix" result="effect1_dropShadow_4111_7164"/>
<feBlend mode="normal" in="SourceGraphic" in2="effect1_dropShadow_4111_7164" result="shape"/>
</filter>
<filter id="filter11_i_4111_7164" x="625" y="453.992" width="64" height="36" filterUnits="userSpaceOnUse" color-interpolation-filters="sRGB">
<feFlood flood-opacity="0" result="BackgroundImageFix"/>
<feBlend mode="normal" in="SourceGraphic" in2="BackgroundImageFix" result="shape"/>
<feColorMatrix in="SourceAlpha" type="matrix" values="0 0 0 0 0 0 0 0 0 0 0 0 0 0 0 0 0 0 127 0" result="hardAlpha"/>
<feOffset dy="-1"/>
<feComposite in2="hardAlpha" operator="arithmetic" k2="-1" k3="1"/>
<feColorMatrix type="matrix" values="0 0 0 0 0.572549 0 0 0 0 0.772549 0 0 0 0 0.976471 0 0 0 1 0"/>
<feBlend mode="normal" in2="shape" result="effect1_innerShadow_4111_7164"/>
</filter>
<filter id="filter12_i_4111_7164" x="275" y="565.992" width="64" height="36" filterUnits="userSpaceOnUse" color-interpolation-filters="sRGB">
<feFlood flood-opacity="0" result="BackgroundImageFix"/>
<feBlend mode="normal" in="SourceGraphic" in2="BackgroundImageFix" result="shape"/>
<feColorMatrix in="SourceAlpha" type="matrix" values="0 0 0 0 0 0 0 0 0 0 0 0 0 0 0 0 0 0 127 0" result="hardAlpha"/>
<feOffset dy="-1"/>
<feComposite in2="hardAlpha" operator="arithmetic" k2="-1" k3="1"/>
<feColorMatrix type="matrix" values="0 0 0 0 0.301961 0 0 0 0 0.301961 0 0 0 0 0.301961 0 0 0 1 0"/>
<feBlend mode="normal" in2="shape" result="effect1_innerShadow_4111_7164"/>
</filter>
<filter id="filter13_d_4111_7164" x="369" y="580.578" width="23.4143" height="29.8281" filterUnits="userSpaceOnUse" color-interpolation-filters="sRGB">
<feFlood flood-opacity="0" result="BackgroundImageFix"/>
<feColorMatrix in="SourceAlpha" type="matrix" values="0 0 0 0 0 0 0 0 0 0 0 0 0 0 0 0 0 0 127 0" result="hardAlpha"/>
<feOffset dy="2"/>
<feGaussianBlur stdDeviation="2"/>
<feComposite in2="hardAlpha" operator="out"/>
<feColorMatrix type="matrix" values="0 0 0 0 0.0823529 0 0 0 0 0.0823529 0 0 0 0 0.0823529 0 0 0 0.2 0"/>
<feBlend mode="normal" in2="BackgroundImageFix" result="effect1_dropShadow_4111_7164"/>
<feBlend mode="normal" in="SourceGraphic" in2="effect1_dropShadow_4111_7164" result="shape"/>
</filter>
<clipPath id="clip0_4111_7164">
<rect width="16" height="16" fill="white" transform="translate(16 15.9922)"/>
</clipPath>
<clipPath id="clip1_4111_7164">
<rect width="16" height="16" fill="white" transform="translate(66 15.9922)"/>
</clipPath>
<clipPath id="clip2_4111_7164">
<rect width="16" height="16" fill="white" transform="translate(466 15.9922)"/>
</clipPath>
<clipPath id="clip3_4111_7164">
<rect width="16" height="16" fill="white" transform="translate(516 15.9922)"/>
</clipPath>
<clipPath id="clip4_4111_7164">
<rect width="16" height="16" fill="white" transform="translate(16 127.992)"/>
</clipPath>
<clipPath id="clip5_4111_7164">
<rect width="16" height="16" fill="white" transform="translate(66 127.992)"/>
</clipPath>
<clipPath id="clip6_4111_7164">
<rect width="16" height="16" fill="white" transform="translate(466 127.992)"/>
</clipPath>
<clipPath id="clip7_4111_7164">
<rect width="16" height="16" fill="white" transform="translate(516 127.992)"/>
</clipPath>
<clipPath id="clip8_4111_7164">
<rect width="16" height="16" fill="white" transform="translate(16 239.992)"/>
</clipPath>
<clipPath id="clip9_4111_7164">
<rect width="16" height="16" fill="white" transform="translate(66 239.992)"/>
</clipPath>
<clipPath id="clip10_4111_7164">
<rect width="16" height="16" fill="white" transform="translate(116 239.992)"/>
</clipPath>
<clipPath id="clip11_4111_7164">
<rect width="16" height="16" fill="white" transform="translate(166 239.992)"/>
</clipPath>
<clipPath id="clip12_4111_7164">
<rect width="16" height="16" fill="white" transform="translate(16 351.992)"/>
</clipPath>
<clipPath id="clip13_4111_7164">
<rect width="16" height="16" fill="white" transform="translate(66 351.992)"/>
</clipPath>
<clipPath id="clip14_4111_7164">
<rect width="16" height="16" fill="white" transform="translate(466 351.992)"/>
</clipPath>
<clipPath id="clip15_4111_7164">
<rect width="16" height="16" fill="white" transform="translate(516 351.992)"/>
</clipPath>
<clipPath id="clip16_4111_7164">
<rect width="16" height="16" fill="white" transform="translate(16 463.992)"/>
</clipPath>
<clipPath id="clip17_4111_7164">
<rect width="16" height="16" fill="white" transform="translate(66 463.992)"/>
</clipPath>
<clipPath id="clip18_4111_7164">
<rect width="16" height="16" fill="white" transform="translate(466 463.992)"/>
</clipPath>
<clipPath id="clip19_4111_7164">
<rect width="16" height="16" fill="white" transform="translate(516 463.992)"/>
</clipPath>
<clipPath id="clip20_4111_7164">
<rect width="16" height="16" fill="white" transform="translate(16 575.992)"/>
</clipPath>
<clipPath id="clip21_4111_7164">
<rect width="16" height="16" fill="white" transform="translate(66 575.992)"/>
</clipPath>
<clipPath id="clip22_4111_7164">
<rect width="16" height="16" fill="white" transform="translate(116 575.992)"/>
</clipPath>
<clipPath id="clip23_4111_7164">
<rect width="16" height="16" fill="white" transform="translate(166 575.992)"/>
</clipPath>
</defs>
</svg>
