<svg width="102" height="25" viewBox="0 0 102 25" fill="none" xmlns="http://www.w3.org/2000/svg">
<g clip-path="url(#clip0_2021_5067)">
<path d="M10.5299 8.5025C10.2399 8.2075 9.75994 8.2075 9.46994 8.5025L3.14994 14.8225C3.14994 14.8225 3.11493 14.8725 3.09993 14.8975C3.07993 14.9225 3.05994 14.9425 3.04493 14.9725L1.04493 19.4725C0.959935 19.6625 0.999935 19.8825 1.14993 20.0275C1.24493 20.1225 1.37493 20.1725 1.50493 20.1725C1.57493 20.1725 1.64493 20.1575 1.70993 20.1275L6.21494 18.1225C6.24494 18.1075 6.26494 18.0875 6.28994 18.0675C6.31494 18.0525 6.33993 18.0425 6.36493 18.0175L12.6849 11.6975C12.9749 11.4075 12.9749 10.9275 12.6849 10.6375L10.5399 8.4925L10.5299 8.5025ZM3.66493 16.0425L5.13494 17.5125L2.48493 18.6925L3.66493 16.0425Z" fill="#0066CC"/>
<path d="M15.6749 7.6475L13.5299 5.5025C13.2399 5.2075 12.7599 5.2075 12.4699 5.5025L11.3249 6.6475C11.0349 6.9375 11.0349 7.4175 11.3249 7.7075L13.4699 9.8525C13.6149 9.9975 13.8099 10.0725 13.9999 10.0725C14.1899 10.0725 14.3849 9.9975 14.5299 9.8525L15.6749 8.7075C15.9649 8.4175 15.9649 7.9375 15.6749 7.6475Z" fill="#0066CC"/>
</g>
<path d="M25.924 18.6777V7.47773H33.572V8.56573H27.156V12.4857H31.604V13.5577H27.156V17.5897H33.636V18.6777H25.924ZM38.5418 18.7897C37.8698 18.7897 37.2618 18.6137 36.7178 18.2617C36.1738 17.8991 35.7418 17.4191 35.4218 16.8217C35.1018 16.2137 34.9418 15.5364 34.9418 14.7897C34.9418 14.0324 35.1018 13.3551 35.4218 12.7577C35.7524 12.1497 36.1951 11.6697 36.7498 11.3177C37.3044 10.9551 37.9231 10.7737 38.6058 10.7737C39.0858 10.7737 39.5338 10.8697 39.9498 11.0617C40.3658 11.2431 40.7284 11.5097 41.0378 11.8617V7.12573L42.2058 6.88573V18.6777H41.0378V17.6377C40.7391 18.0111 40.3764 18.2991 39.9498 18.5017C39.5231 18.6937 39.0538 18.7897 38.5418 18.7897ZM38.8298 17.7657C39.2884 17.7657 39.7098 17.6751 40.0938 17.4937C40.4778 17.3124 40.7924 17.0564 41.0378 16.7257V12.8537C40.7818 12.5231 40.4564 12.2671 40.0618 12.0857C39.6778 11.8937 39.2671 11.7977 38.8298 11.7977C38.3071 11.7977 37.8378 11.9257 37.4218 12.1817C37.0164 12.4377 36.6911 12.7897 36.4457 13.2377C36.2111 13.6857 36.0938 14.1977 36.0938 14.7737C36.0938 15.3391 36.2111 15.8511 36.4457 16.3097C36.6911 16.7577 37.0164 17.1151 37.4218 17.3817C37.8378 17.6377 38.3071 17.7657 38.8298 17.7657ZM44.5903 18.6777V10.8697H45.7582V18.6777H44.5903ZM45.1823 8.93373C44.9476 8.93373 44.7449 8.85373 44.5743 8.69373C44.4143 8.52307 44.3343 8.32573 44.3343 8.10173C44.3343 7.87773 44.4143 7.68573 44.5743 7.52573C44.7449 7.35507 44.9476 7.26973 45.1823 7.26973C45.4169 7.26973 45.6143 7.35507 45.7743 7.52573C45.9449 7.68573 46.0303 7.87773 46.0303 8.10173C46.0303 8.32573 45.9449 8.52307 45.7743 8.69373C45.6143 8.85373 45.4169 8.93373 45.1823 8.93373ZM51.1291 18.8377C50.4571 18.8377 49.9451 18.6777 49.5931 18.3577C49.2518 18.0271 49.0811 17.5524 49.0811 16.9337V11.8297H47.4651V10.8697H49.0811V8.72573L50.2491 8.45373V10.8697H52.4891V11.8297H50.2491V16.6297C50.2491 17.0457 50.3345 17.3444 50.5051 17.5257C50.6865 17.7071 50.9798 17.7977 51.3851 17.7977C51.5878 17.7977 51.7691 17.7817 51.9291 17.7497C52.0891 17.7177 52.2758 17.6644 52.4891 17.5897V18.6297C52.2758 18.7044 52.0518 18.7577 51.8171 18.7897C51.5825 18.8217 51.3531 18.8377 51.1291 18.8377ZM60.3504 18.8217C59.7957 18.8217 59.305 18.7204 58.8784 18.5177C58.4517 18.3151 58.1157 18.0377 57.8704 17.6857C57.6357 17.3231 57.5184 16.9071 57.5184 16.4377C57.5184 15.9684 57.641 15.5631 57.8864 15.2217C58.1317 14.8697 58.473 14.5977 58.9104 14.4057C59.3477 14.2137 59.8597 14.1177 60.4464 14.1177C60.8944 14.1177 61.3157 14.1657 61.7104 14.2617C62.1157 14.3577 62.489 14.5124 62.8304 14.7257V13.6537C62.8304 13.0137 62.6597 12.5337 62.3184 12.2137C61.977 11.8831 61.4757 11.7177 60.8144 11.7177C60.4517 11.7177 60.0784 11.7711 59.6944 11.8777C59.321 11.9844 58.905 12.1551 58.4464 12.3897L58.0144 11.4937C59.0597 10.9924 60.041 10.7417 60.9584 10.7417C61.929 10.7417 62.6757 10.9817 63.1984 11.4617C63.721 11.9311 63.9824 12.6084 63.9824 13.4937V18.6777H62.8304V17.7657C62.489 18.1177 62.1104 18.3844 61.6944 18.5657C61.2784 18.7364 60.8304 18.8217 60.3504 18.8217ZM58.6384 16.4057C58.6384 16.8644 58.8144 17.2324 59.1664 17.5097C59.529 17.7871 60.0037 17.9257 60.5904 17.9257C61.0277 17.9257 61.4277 17.8511 61.7904 17.7017C62.1637 17.5524 62.5104 17.3284 62.8304 17.0297V15.5257C62.4997 15.3337 62.1584 15.1951 61.8064 15.1097C61.4544 15.0137 61.0597 14.9657 60.6224 14.9657C60.025 14.9657 59.545 15.0991 59.1824 15.3657C58.8197 15.6217 58.6384 15.9684 58.6384 16.4057ZM68.2838 18.6777L65.0838 10.8697H66.3478L68.8758 17.2217L71.3718 10.8697H72.6198L69.4038 18.6777H68.2838ZM76.1629 18.8217C75.6082 18.8217 75.1175 18.7204 74.6909 18.5177C74.2642 18.3151 73.9282 18.0377 73.6829 17.6857C73.4482 17.3231 73.3309 16.9071 73.3309 16.4377C73.3309 15.9684 73.4535 15.5631 73.6989 15.2217C73.9442 14.8697 74.2855 14.5977 74.7229 14.4057C75.1602 14.2137 75.6722 14.1177 76.2589 14.1177C76.7069 14.1177 77.1282 14.1657 77.5229 14.2617C77.9282 14.3577 78.3015 14.5124 78.6429 14.7257V13.6537C78.6429 13.0137 78.4722 12.5337 78.1309 12.2137C77.7895 11.8831 77.2882 11.7177 76.6269 11.7177C76.2642 11.7177 75.8909 11.7711 75.5069 11.8777C75.1335 11.9844 74.7175 12.1551 74.2589 12.3897L73.8269 11.4937C74.8722 10.9924 75.8535 10.7417 76.7709 10.7417C77.7415 10.7417 78.4882 10.9817 79.0109 11.4617C79.5335 11.9311 79.7949 12.6084 79.7949 13.4937V18.6777H78.6429V17.7657C78.3015 18.1177 77.9229 18.3844 77.5069 18.5657C77.0909 18.7364 76.6429 18.8217 76.1629 18.8217ZM74.4509 16.4057C74.4509 16.8644 74.6269 17.2324 74.9789 17.5097C75.3415 17.7871 75.8162 17.9257 76.4029 17.9257C76.8402 17.9257 77.2402 17.8511 77.6029 17.7017C77.9762 17.5524 78.3229 17.3284 78.6429 17.0297V15.5257C78.3122 15.3337 77.9709 15.1951 77.6189 15.1097C77.2669 15.0137 76.8722 14.9657 76.4349 14.9657C75.8375 14.9657 75.3575 15.0991 74.9949 15.3657C74.6322 15.6217 74.4509 15.9684 74.4509 16.4057ZM84.9104 18.8377C84.2384 18.8377 83.7264 18.6777 83.3744 18.3577C83.033 18.0271 82.8624 17.5524 82.8624 16.9337V11.8297H81.2464V10.8697H82.8624V8.72573L84.0304 8.45373V10.8697H86.2704V11.8297H84.0304V16.6297C84.0304 17.0457 84.1157 17.3444 84.2864 17.5257C84.4677 17.7071 84.761 17.7977 85.1664 17.7977C85.369 17.7977 85.5504 17.7817 85.7104 17.7497C85.8704 17.7177 86.057 17.6644 86.2704 17.5897V18.6297C86.057 18.7044 85.833 18.7577 85.5984 18.7897C85.3637 18.8217 85.1344 18.8377 84.9104 18.8377ZM90.3973 18.8217C89.8426 18.8217 89.3519 18.7204 88.9253 18.5177C88.4986 18.3151 88.1626 18.0377 87.9173 17.6857C87.6826 17.3231 87.5653 16.9071 87.5653 16.4377C87.5653 15.9684 87.6879 15.5631 87.9333 15.2217C88.1786 14.8697 88.5199 14.5977 88.9573 14.4057C89.3946 14.2137 89.9066 14.1177 90.4933 14.1177C90.9413 14.1177 91.3626 14.1657 91.7573 14.2617C92.1626 14.3577 92.5359 14.5124 92.8773 14.7257V13.6537C92.8773 13.0137 92.7066 12.5337 92.3653 12.2137C92.0239 11.8831 91.5226 11.7177 90.8613 11.7177C90.4986 11.7177 90.1253 11.7711 89.7413 11.8777C89.3679 11.9844 88.9519 12.1551 88.4933 12.3897L88.0613 11.4937C89.1066 10.9924 90.0879 10.7417 91.0052 10.7417C91.9759 10.7417 92.7226 10.9817 93.2453 11.4617C93.7679 11.9311 94.0293 12.6084 94.0293 13.4937V18.6777H92.8773V17.7657C92.5359 18.1177 92.1573 18.3844 91.7413 18.5657C91.3253 18.7364 90.8773 18.8217 90.3973 18.8217ZM88.6853 16.4057C88.6853 16.8644 88.8613 17.2324 89.2133 17.5097C89.5759 17.7871 90.0506 17.9257 90.6373 17.9257C91.0746 17.9257 91.4746 17.8511 91.8373 17.7017C92.2106 17.5524 92.5573 17.3284 92.8773 17.0297V15.5257C92.5466 15.3337 92.2053 15.1951 91.8533 15.1097C91.5013 15.0137 91.1066 14.9657 90.6693 14.9657C90.0719 14.9657 89.5919 15.0991 89.2293 15.3657C88.8666 15.6217 88.6853 15.9684 88.6853 16.4057ZM96.4031 18.6777V10.8697H97.5711V12.4697C97.7738 11.9257 98.0618 11.5044 98.4351 11.2057C98.8191 10.8964 99.2565 10.7417 99.7471 10.7417C99.8858 10.7417 100.014 10.7524 100.131 10.7737C100.248 10.7844 100.366 10.8111 100.483 10.8537V11.9097C100.355 11.8671 100.216 11.8351 100.067 11.8137C99.9285 11.7817 99.7951 11.7657 99.6671 11.7657C99.1871 11.7657 98.7658 11.9044 98.4031 12.1817C98.0511 12.4591 97.7738 12.8484 97.5711 13.3497V18.6777H96.4031Z" fill="#0066CC"/>
<defs>
<clipPath id="clip0_2021_5067">
<rect width="16" height="16" fill="white" transform="translate(0.5 4.67773)"/>
</clipPath>
</defs>
</svg>
