<svg width="496" height="48" viewBox="0 0 496 48" fill="none" xmlns="http://www.w3.org/2000/svg">
<g clip-path="url(#clip0_2070_957)">
<g clip-path="url(#clip1_2070_957)">
<path d="M23.3332 35.1667C22.8729 35.1667 22.4998 35.5404 22.4998 36V41.1708C21.7341 41.5968 20.882 41.8334 19.9998 41.8334C17.7861 41.8334 15.8481 40.418 15.1365 38.3047V34.6667C15.1365 33.6563 15.9588 32.8334 16.9698 32.8334C17.4301 32.8334 17.8032 32.4596 17.8032 32C17.8032 31.5404 17.4301 31.1667 16.9698 31.1667C15.0401 31.1667 13.4698 32.737 13.4698 34.6667V37.3134C11.0881 36.3156 9.49984 33.9898 9.49984 31.3334C9.49984 30.3646 9.7153 29.4232 10.1405 28.5352C10.3228 28.1563 10.1926 27.7006 9.83837 27.474C8.0045 26.3 6.89877 24.324 6.8437 22.1667H9.99984C11.746 22.1667 13.1665 23.5872 13.1665 25.3334C13.1665 25.793 13.5396 26.1667 13.9998 26.1667C14.4601 26.1667 14.8332 25.793 14.8332 25.3334C14.8332 24.0767 14.3396 22.941 13.5508 22.0806C15.8094 21.6755 17.5317 19.7068 17.5317 17.3334C17.5317 16.8738 17.1586 16.5 16.6984 16.5C16.2381 16.5 15.865 16.8738 15.865 17.3334C15.865 19.0795 14.4445 20.5 12.6984 20.5H7.02584C7.4913 18.5507 8.82917 16.8836 10.7178 16.0522C11.128 15.8712 11.3213 15.3986 11.1566 14.9819C10.9418 14.4403 10.833 13.8855 10.833 13.3335C10.833 10.8518 12.852 8.83352 15.333 8.83352C15.389 8.83352 15.4417 8.84325 15.4958 8.85045L15.7061 8.87525C16.0537 8.91365 16.3845 8.71312 16.531 8.39538C17.1593 7.04192 18.5213 6.16685 19.9998 6.16685C20.9318 6.16685 21.8017 6.51458 22.4998 7.12405V13.708C21.1596 13.3395 20.1665 12.1226 20.1665 10.6668C20.1665 10.2072 19.7934 9.83352 19.3332 9.83352C18.8729 9.83352 18.4998 10.2072 18.4998 10.6668C18.4998 13.0468 20.2321 15.0184 22.4998 15.4159V17.3335C22.4998 17.7931 22.8729 18.1668 23.3332 18.1668C23.7934 18.1668 24.1665 17.7931 24.1665 17.3335V7.12405C24.8646 6.51458 25.7345 6.16685 26.6665 6.16685C28.0946 6.16685 29.4076 6.98792 30.062 8.26338C29.5009 9.21885 28.4682 9.83352 27.3332 9.83352C26.8729 9.83352 26.4998 10.2072 26.4998 10.6668C26.4998 11.1264 26.8729 11.5002 27.3332 11.5002C29.159 11.5002 30.8117 10.4598 31.63 8.86352C33.9708 9.01952 35.8332 10.9534 35.8332 13.3335C35.8332 13.7931 36.2062 14.1668 36.6665 14.1668C37.1268 14.1668 37.4998 13.7931 37.4998 13.3335C37.4998 9.94418 34.7518 7.18512 31.367 7.16685C30.3788 5.53018 28.5922 4.50018 26.6665 4.50018C25.4452 4.50018 24.2869 4.89672 23.3332 5.62912C22.3794 4.89672 21.2212 4.50018 19.9998 4.50018C18.0741 4.50018 16.2876 5.53018 15.2993 7.16685C11.9145 7.18512 9.1665 9.94418 9.1665 13.3335C9.1665 13.8466 9.23357 14.3595 9.36637 14.8647C7.01557 16.1715 5.47157 18.561 5.2185 21.234C5.21424 21.2682 5.19837 21.2982 5.19837 21.3334C5.19837 21.3508 5.2073 21.3655 5.20837 21.3827C5.19264 21.5882 5.1665 21.7916 5.1665 22C5.1665 24.556 6.34744 26.9258 8.35797 28.4689C8.0097 29.3894 7.83317 30.3491 7.83317 31.3334C7.83317 34.9766 10.2081 38.129 13.6638 39.1524C14.6853 41.771 17.1762 43.5 19.9998 43.5C21.3553 43.5 22.6685 43.1016 23.7968 42.3464C23.8198 42.3308 23.8321 42.3068 23.8532 42.2895C23.8973 42.2534 23.9353 42.2147 23.9713 42.1703C24.005 42.1287 24.034 42.0872 24.0586 42.0407C24.0834 41.9946 24.1017 41.9476 24.1174 41.8967C24.1345 41.8416 24.1456 41.7882 24.1509 41.7308C24.1536 41.704 24.1665 41.681 24.1665 41.6535V35.9999C24.1665 35.5403 23.7934 35.1667 23.3332 35.1667Z" fill="#EE0000"/>
<path d="M37.9997 25.8334C36.3586 25.8334 34.9874 26.9734 34.611 28.5H31.333C30.8727 28.5 30.4997 28.8738 30.4997 29.3334V35.278C28.973 35.6544 27.833 37.0256 27.833 38.6667C27.833 40.5964 29.4033 42.1667 31.333 42.1667C33.2627 42.1667 34.833 40.5964 34.833 38.6667C34.833 37.0256 33.693 35.6544 32.1663 35.278V30.1667H34.611C34.9874 31.6934 36.3586 32.8334 37.9997 32.8334C39.9294 32.8334 41.4997 31.2631 41.4997 29.3334C41.4997 27.4036 39.9294 25.8334 37.9997 25.8334ZM33.1663 38.6667C33.1663 39.6771 32.3441 40.5 31.333 40.5C30.3219 40.5 29.4997 39.6771 29.4997 38.6667C29.4997 37.6563 30.3219 36.8334 31.333 36.8334C32.3441 36.8334 33.1663 37.6563 33.1663 38.6667ZM37.9997 31.1667C36.9886 31.1667 36.1663 30.3438 36.1663 29.3334C36.1663 28.323 36.9886 27.5 37.9997 27.5C39.0107 27.5 39.833 28.323 39.833 29.3334C39.833 30.3438 39.0107 31.1667 37.9997 31.1667Z" fill="#EE0000"/>
<path d="M25.7906 25.5131C26.3981 24.1483 27.8738 20.8333 27.8738 20.8333H33.2777C33.6541 22.36 35.0253 23.5 36.6663 23.5C38.5961 23.5 40.1663 21.9297 40.1663 20C40.1663 18.0703 38.5961 16.5 36.6663 16.5C35.0253 16.5 33.6541 17.64 33.2777 19.1667H27.333C27.0545 19.1944 26.7638 19.3128 26.6318 19.5772C26.6101 19.6112 26.5787 19.6375 26.565 19.6773C26.565 19.6773 24.8493 23.5316 24.3439 24.6667C24.0218 24.5685 23.6869 24.5001 23.333 24.5001C21.4033 24.5001 19.833 26.0704 19.833 28.0001C19.833 29.9299 21.4033 31.5001 23.333 31.5001C25.2627 31.5001 26.833 29.9299 26.833 28.0001C26.833 27.0279 26.4331 26.148 25.7906 25.5131ZM36.6663 18.1667C37.6774 18.1667 38.4997 18.9896 38.4997 20C38.4997 21.0104 37.6774 21.8333 36.6663 21.8333C35.6553 21.8333 34.833 21.0104 34.833 20C34.833 18.9896 35.6553 18.1667 36.6663 18.1667ZM23.333 29.8333C22.3219 29.8333 21.4997 29.0104 21.4997 28C21.4997 26.9896 22.3219 26.1667 23.333 26.1667C24.3441 26.1667 25.1663 26.9896 25.1663 28C25.1663 29.0104 24.3441 29.8333 23.333 29.8333Z" fill="#EE0000"/>
</g>
</g>
<g clip-path="url(#clip2_2070_957)">
<path d="M120 32.8267H152C152.453 32.8267 152.827 32.4533 152.827 32V12C152.827 11.5333 152.453 11.1733 152 11.1733H140C139.547 11.1733 139.173 11.5467 139.173 12C139.173 12.4533 139.547 12.8267 140 12.8267H151.173V31.16H120.827V12.8267H132C132.453 12.8267 132.827 12.4533 132.827 12C132.827 11.5467 132.453 11.1733 132 11.1733H120C119.547 11.1733 119.173 11.5467 119.173 12V32C119.173 32.4667 119.547 32.8267 120 32.8267Z" fill="#EE0000"/>
<path d="M154.667 35.1733H117.334C116.88 35.1733 116.507 35.5467 116.507 36C116.507 36.4533 116.88 36.8267 117.334 36.8267H154.667C155.12 36.8267 155.494 36.4533 155.494 36C155.494 35.5467 155.12 35.1733 154.667 35.1733Z" fill="#EE0000"/>
<path d="M135.68 12.7734L136 12.84L136.32 12.7734L136.587 12.5867C136.747 12.44 136.84 12.2267 136.84 12C136.84 11.7867 136.747 11.5734 136.587 11.4134L136.32 11.2267C136.12 11.1467 135.88 11.1467 135.68 11.2267L135.413 11.4134C135.253 11.5734 135.16 11.7867 135.16 12C135.16 12.2134 135.253 12.44 135.413 12.5867L135.68 12.7734Z" fill="#EE0000"/>
<path d="M134.987 26.72H135.16C135.547 26.7334 135.893 26.4667 135.973 26.08L137.627 18.28C137.72 17.8267 137.44 17.3867 136.987 17.2934C136.533 17.2 136.093 17.48 136 17.9334L134.347 25.7334C134.253 26.1867 134.533 26.6267 134.987 26.72Z" fill="#EE0000"/>
<path d="M140 26C140.16 26.16 140.373 26.24 140.586 26.24C140.8 26.24 141.013 26.16 141.173 26L144.586 22.5867C144.906 22.2667 144.906 21.7333 144.586 21.4133L141.173 18C140.853 17.68 140.32 17.68 140 18C139.68 18.32 139.68 18.8533 140 19.1733L142.826 22L140 24.8267C139.68 25.1467 139.68 25.68 140 26Z" fill="#EE0000"/>
<path d="M132 17.9866C131.68 17.6666 131.147 17.6666 130.827 17.9866L127.413 21.4C127.093 21.72 127.093 22.2533 127.413 22.5733L130.827 25.9866C130.987 26.1466 131.2 26.2266 131.413 26.2266C131.627 26.2266 131.84 26.1466 132 25.9866C132.32 25.6666 132.32 25.1333 132 24.8133L129.173 21.9866L132 19.16C132.32 18.84 132.32 18.3066 132 17.9866Z" fill="#EE0000"/>
</g>
<g clip-path="url(#clip3_2070_957)">
<path d="M261.427 23.64C261.92 23.0133 262.227 22.2267 262.227 21.3733C262.227 19.3467 260.573 17.6933 258.547 17.6933H252.773C254.52 15.44 255.48 11.9067 255.253 9.55999C255.12 8.21333 254.427 7.05333 253.36 6.38666C252.387 5.78666 251.24 5.66666 250.2 6.05333C249.053 6.49333 248.28 7.55999 248.133 8.89333C248.107 9.07999 248.093 9.25333 248.08 9.43999C248.013 10.4 247.947 10.84 247.147 11.3067L238.64 17.4C237.867 17.8667 237.147 18.4133 236.48 19.0267C235.813 19.64 235.213 20.32 234.693 21.04C234.16 21.7733 233.707 22.5733 233.333 23.3867C232.96 24.2267 232.667 25.1067 232.48 26.0133C232.28 26.9333 232.187 27.88 232.187 28.8267C232.187 36.1733 238.173 42.16 245.52 42.16H255.373C257.4 42.16 259.053 40.5067 259.053 38.48C259.053 37.72 258.827 37.0133 258.427 36.4267C260.32 36.2667 261.813 34.7067 261.813 32.7733C261.813 31.96 261.533 31.2133 261.093 30.6C262.64 30.16 263.787 28.76 263.787 27.0667C263.787 25.4933 262.8 24.16 261.413 23.6267L261.427 23.64ZM260.56 21.3733C260.56 22.48 259.653 23.3867 258.547 23.3867H248.773C247.667 23.3867 246.76 22.48 246.76 21.3733C246.76 20.2667 247.667 19.36 248.773 19.36H258.547C259.653 19.36 260.56 20.2667 260.56 21.3733ZM233.853 28.8267C233.853 28 233.947 27.1733 234.12 26.36C234.293 25.5733 234.547 24.8 234.867 24.0667C235.187 23.3467 235.587 22.6533 236.053 22.0133C236.52 21.3733 237.04 20.7867 237.613 20.2533C238.2 19.72 238.827 19.24 239.56 18.8L248.053 12.72C249.573 11.84 249.667 10.5867 249.747 9.58666C249.747 9.42666 249.773 9.26666 249.787 9.10666C249.867 8.39999 250.24 7.83999 250.8 7.63999C251.333 7.43999 251.947 7.50666 252.48 7.82666C253.107 8.21333 253.507 8.90666 253.6 9.74666C253.827 12.0667 252.587 16 250.64 17.5867C250.6 17.6267 250.573 17.68 250.533 17.72H248.787C246.76 17.72 245.107 19.3733 245.107 21.4C245.107 22.56 245.653 23.5733 246.48 24.2533C245.64 24.9333 245.107 25.9467 245.107 27.1067C245.107 28.2667 245.653 29.28 246.48 29.96C245.64 30.64 245.107 31.6533 245.107 32.8133C245.107 33.9733 245.653 34.9867 246.48 35.6667C245.64 36.3467 245.107 37.36 245.107 38.52C245.107 39.2667 245.333 39.96 245.72 40.5333H245.547C239.107 40.5333 233.88 35.2933 233.88 28.8667L233.853 28.8267ZM255.387 40.4933H248.76C247.653 40.4933 246.747 39.5867 246.747 38.48C246.747 37.3733 247.653 36.4667 248.76 36.4667H255.387C256.493 36.4667 257.4 37.3733 257.4 38.48C257.4 39.5867 256.493 40.4933 255.387 40.4933ZM258.147 34.7867H248.773C247.667 34.7867 246.76 33.88 246.76 32.7733C246.76 31.6667 247.667 30.76 248.773 30.76H258.147C259.253 30.76 260.16 31.6667 260.16 32.7733C260.16 33.88 259.253 34.7867 258.147 34.7867ZM260.12 29.08H248.773C247.667 29.08 246.76 28.1733 246.76 27.0667C246.76 25.96 247.667 25.0533 248.773 25.0533H260.12C261.227 25.0533 262.133 25.96 262.133 27.0667C262.133 28.1733 261.227 29.08 260.12 29.08Z" fill="#EE0000"/>
</g>
<g clip-path="url(#clip4_2070_957)">
<path d="M349.333 20.5067H343.507C343.6 16.2667 347.067 12.84 351.333 12.84C351.533 12.84 351.733 12.84 351.933 12.8667C352.387 12.9067 352.787 12.56 352.827 12.0933C352.867 11.64 352.52 11.24 352.053 11.2C351.813 11.1867 351.573 11.1733 351.32 11.1733C346.08 11.1733 341.827 15.44 341.827 20.6667V36C341.827 36.4667 342.2 36.8267 342.653 36.8267H357.32C357.787 36.8267 358.16 36.4533 358.16 36V29.3333C358.16 24.4667 354.2 20.5067 349.333 20.5067ZM356.507 35.1733H343.493V22.1733H349.333C353.28 22.1733 356.507 25.3867 356.507 29.3467V35.1867V35.1733Z" fill="#EE0000"/>
<path d="M369.333 20.5067H363.507C363.6 16.2667 367.067 12.84 371.333 12.84C371.533 12.84 371.733 12.84 371.933 12.8667C372.387 12.9067 372.8 12.56 372.827 12.0933C372.867 11.64 372.52 11.24 372.053 11.2C371.813 11.1867 371.573 11.1733 371.32 11.1733C366.08 11.1733 361.827 15.44 361.827 20.6667V36C361.827 36.4667 362.2 36.8267 362.653 36.8267H377.32C377.787 36.8267 378.147 36.4533 378.147 36V29.3333C378.147 24.4667 374.187 20.5067 369.32 20.5067H369.333ZM376.507 35.1733H363.507V22.1733H369.347C373.293 22.1733 376.52 25.3867 376.52 29.3467V35.1867L376.507 35.1733Z" fill="#EE0000"/>
</g>
<g clip-path="url(#clip5_2070_957)">
<path d="M489.333 19.6133H462.653L488.813 14.0533C489.027 14.0133 489.213 13.88 489.333 13.6933C489.453 13.5066 489.493 13.28 489.453 13.0666L488.24 7.3733C488.147 6.91997 487.707 6.63997 487.253 6.7333L453.333 13.9466C453.12 13.9866 452.933 14.12 452.813 14.3066C452.693 14.4933 452.653 14.72 452.693 14.9333L453.853 20.36C453.853 20.36 453.84 20.4133 453.84 20.44V40.44C453.84 40.9066 454.213 41.2666 454.667 41.2666H489.333C489.787 41.2666 490.16 40.8933 490.16 40.44V20.44C490.16 19.9733 489.787 19.6133 489.333 19.6133ZM486.773 8.54664L487.64 12.6L455.36 19.4533L454.493 15.4L486.773 8.5333V8.54664ZM488.493 39.6133H455.493V21.28H488.493V39.6133Z" fill="#EE0000"/>
<path d="M468.653 35.0666C468.8 35.0666 468.933 35.0266 469.067 34.9599L475.76 31.1733C476.027 31.0266 476.187 30.7466 476.187 30.4533C476.187 30.1599 476.027 29.8799 475.76 29.7333L469.067 25.9466C468.813 25.7999 468.493 25.7999 468.24 25.9466C467.987 26.0933 467.827 26.3733 467.827 26.6666V34.2266C467.827 34.5199 467.987 34.7999 468.24 34.9466C468.373 35.0266 468.52 35.0533 468.667 35.0533L468.653 35.0666ZM469.48 28.1066L473.64 30.4533L469.48 32.7999V28.0933V28.1066Z" fill="#EE0000"/>
</g>
<defs>
<clipPath id="clip0_2070_957">
<rect width="48" height="48" fill="white"/>
</clipPath>
<clipPath id="clip1_2070_957">
<rect width="48" height="48" fill="white"/>
</clipPath>
<clipPath id="clip2_2070_957">
<rect width="48" height="48" fill="white" transform="translate(112)"/>
</clipPath>
<clipPath id="clip3_2070_957">
<rect width="48" height="48" fill="white" transform="translate(224)"/>
</clipPath>
<clipPath id="clip4_2070_957">
<rect width="48" height="48" fill="white" transform="translate(336)"/>
</clipPath>
<clipPath id="clip5_2070_957">
<rect width="48" height="48" fill="white" transform="translate(448)"/>
</clipPath>
</defs>
</svg>
