<?xml version="1.0" encoding="utf-8"?>
<!-- Generator: Adobe Illustrator 24.3.0, SVG Export Plug-In . SVG Version: 6.00 Build 0)  -->
<svg version="1.1" id="Layer_1" xmlns="http://www.w3.org/2000/svg" xmlns:xlink="http://www.w3.org/1999/xlink" x="0px" y="0px"
	 viewBox="0 0 884 208" style="enable-background:new 0 0 884 208;" xml:space="preserve">
<style type="text/css">
	.st0{fill:#FFFFFF;}
	.st1{fill:none;stroke:#D2D2D2;}
	.st2{enable-background:new    ;}
	.st3{fill:#151515;}
	.st4{fill:#0066CC;}
	.st5{fill:none;}
	.st6{fill:#EE0000;}
	.st7{opacity:5.000000e-02;}
	.st8{fill:#FF0000;}
	.st9{opacity:0.5;fill:#151515;enable-background:new    ;}
</style>
<g transform="translate(-418 -3555)">
	<g transform="translate(64 3336)">
		<g transform="matrix(1, 0, 0, 1, 354, 219)">
			<g transform="translate(6 3)">
				<rect class="st0" width="872" height="196"/>
				<rect x="0.5" y="0.5" class="st1" width="871" height="195"/>
			</g>
		</g>
		<g class="st2">
			<path class="st3" d="M385.4,329.8h4.6c2.1,0,3.6,1.3,3.6,3.2c0,1.5-0.9,2.6-2.3,3l2.4,4.9h-1.4l-2.3-4.8h-3.3v4.8h-1.2V329.8z
				 M386.7,330.9v4.3h3.3c1.5,0,2.4-0.8,2.4-2.1c0-1.3-1-2.2-2.4-2.2H386.7z"/>
			<path class="st3" d="M398.7,341.1c-2.2,0-3.9-1.8-3.9-4s1.6-4,3.7-4c2,0,3.6,1.7,3.6,3.9v0.4h-6.1c0.1,1.6,1.3,2.8,2.8,2.8
				c0.8,0,1.6-0.3,2.1-0.8l0.7,0.8C400.7,340.8,399.8,341.1,398.7,341.1z M396,336.5h4.9c-0.2-1.4-1.2-2.4-2.4-2.4
				C397.2,334.1,396.2,335.1,396,336.5z"/>
			<path class="st3" d="M409.8,340c-0.6,0.8-1.5,1.2-2.5,1.2c-2,0-3.6-1.8-3.6-4c0-2.3,1.6-4,3.7-4c1,0,1.8,0.4,2.4,1.1v-4.6
				l1.2-0.2V341h-1.2V340z M407.6,340.1c0.9,0,1.7-0.4,2.2-1v-3.9c-0.5-0.7-1.3-1.1-2.2-1.1c-1.6,0-2.7,1.3-2.7,3
				C404.9,338.8,406,340.1,407.6,340.1z"/>
			<path class="st3" d="M417.3,329.8h1.2v5h6.4v-5h1.2V341H425v-5.1h-6.4v5.1h-1.2V329.8z"/>
			<path class="st3" d="M428.2,338.8c0-1.4,1.2-2.3,2.9-2.3c0.9,0,1.7,0.2,2.4,0.6V336c0-1.3-0.7-1.9-2-1.9c-0.7,0-1.5,0.2-2.4,0.7
				l-0.4-0.9c1.1-0.5,2-0.8,2.9-0.8c1.9,0,3,1,3,2.8v5.2h-1.2v-0.9c-0.7,0.7-1.5,1.1-2.5,1.1C429.4,341.1,428.2,340.2,428.2,338.8z
				 M431.3,340.2c0.9,0,1.6-0.3,2.2-0.9v-1.5c-0.7-0.4-1.3-0.6-2.2-0.6c-1.2,0-2,0.6-2,1.4C429.4,339.6,430.1,340.2,431.3,340.2z"/>
			<path class="st3" d="M437.8,334.1h-1.6v-1h1.6V331l1.2-0.3v2.4h2.2v1h-2.2v4.8c0,0.8,0.3,1.2,1.1,1.2c0.4,0,0.7,0,1.1-0.2v1
				c-0.4,0.1-0.9,0.2-1.4,0.2c-1.3,0-2-0.7-2-1.9V334.1z"/>
			<path class="st3" d="M446.8,329.8h7.7v1.1h-6.4v3.9h4.4v1.1h-4.4v4h6.5v1.1h-7.7V329.8z"/>
			<path class="st3" d="M456.5,333.2h1.2v1.3c0.6-0.9,1.4-1.4,2.5-1.4c1.7,0,2.8,1.2,2.8,2.9v5.1h-1.2v-4.7c0-1.4-0.8-2.2-2.1-2.2
				c-0.9,0-1.6,0.4-2,1.2v5.8h-1.2V333.2z"/>
			<path class="st3" d="M466,334.1h-1.6v-1h1.6V331l1.2-0.3v2.4h2.2v1h-2.2v4.8c0,0.8,0.3,1.2,1.1,1.2c0.4,0,0.7,0,1.1-0.2v1
				c-0.4,0.1-0.9,0.2-1.4,0.2c-1.3,0-2-0.7-2-1.9V334.1z"/>
			<path class="st3" d="M474.5,341.1c-2.2,0-3.9-1.8-3.9-4s1.6-4,3.7-4c2,0,3.6,1.7,3.6,3.9v0.4h-6.1c0.1,1.6,1.3,2.8,2.8,2.8
				c0.8,0,1.6-0.3,2.1-0.8l0.7,0.8C476.5,340.8,475.6,341.1,474.5,341.1z M471.8,336.5h4.9c-0.2-1.4-1.2-2.4-2.4-2.4
				C473,334.1,472,335.1,471.8,336.5z"/>
			<path class="st3" d="M479.9,333.2h1.2v1.6c0.4-1.1,1.2-1.7,2.2-1.7c0.3,0,0.5,0,0.7,0.1v1.1c-0.3-0.1-0.6-0.1-0.8-0.1
				c-1,0-1.7,0.6-2.1,1.6v5.3h-1.2V333.2z"/>
			<path class="st3" d="M485.5,333.2h1.2v1.1c0.6-0.8,1.5-1.2,2.5-1.2c2,0,3.6,1.8,3.6,4c0,2.3-1.6,4-3.7,4c-1,0-1.8-0.4-2.4-1.1
				v4.3h-1.2V333.2z M486.7,335.2v3.8c0.5,0.7,1.3,1.1,2.2,1.1c1.6,0,2.7-1.3,2.7-3s-1.2-3-2.7-3C488,334.1,487.2,334.5,486.7,335.2
				z"/>
			<path class="st3" d="M494.8,333.2h1.2v1.6c0.4-1.1,1.2-1.7,2.2-1.7c0.3,0,0.5,0,0.7,0.1v1.1c-0.3-0.1-0.6-0.1-0.8-0.1
				c-1,0-1.7,0.6-2.1,1.6v5.3h-1.2V333.2z"/>
			<path class="st3" d="M500.2,330.4c0-0.4,0.4-0.8,0.8-0.8c0.4,0,0.8,0.4,0.8,0.8c0,0.5-0.4,0.8-0.8,0.8
				C500.6,331.3,500.2,330.9,500.2,330.4z M501.6,341h-1.2v-7.8h1.2V341z"/>
			<path class="st3" d="M503.9,339.2c0.9,0.7,1.7,1,2.5,1c1.1,0,2-0.6,2-1.4c0-0.6-0.4-1-1.4-1.2l-1.3-0.2c-1.5-0.3-2.2-0.9-2.2-2
				c0-1.3,1.2-2.3,2.8-2.3c1.1,0,2,0.3,3,1l-0.6,0.8c-0.8-0.6-1.6-0.8-2.4-0.8c-1,0-1.7,0.5-1.7,1.2c0,0.6,0.3,0.9,1.3,1.1l1.3,0.2
				c1.6,0.3,2.3,0.9,2.3,2.1c0,1.4-1.3,2.4-3,2.4c-1.3,0-2.4-0.4-3.2-1.2L503.9,339.2z"/>
			<path class="st3" d="M514.9,341.1c-2.2,0-3.9-1.8-3.9-4s1.6-4,3.7-4c2,0,3.6,1.7,3.6,3.9v0.4h-6.1c0.1,1.6,1.3,2.8,2.8,2.8
				c0.8,0,1.6-0.3,2.1-0.8l0.7,0.8C516.9,340.8,516,341.1,514.9,341.1z M512.2,336.5h4.9c-0.2-1.4-1.2-2.4-2.4-2.4
				C513.4,334.1,512.4,335.1,512.2,336.5z"/>
			<path class="st3" d="M524.2,329.8h1.2v10.1h6.3v1.1h-7.6V329.8z"/>
			<path class="st3" d="M533.4,330.4c0-0.4,0.4-0.8,0.8-0.8c0.4,0,0.8,0.4,0.8,0.8c0,0.5-0.4,0.8-0.8,0.8
				C533.8,331.3,533.4,330.9,533.4,330.4z M534.9,341h-1.2v-7.8h1.2V341z"/>
			<path class="st3" d="M537.3,333.2h1.2v1.3c0.6-0.9,1.4-1.4,2.5-1.4c1.7,0,2.8,1.2,2.8,2.9v5.1h-1.2v-4.7c0-1.4-0.8-2.2-2.1-2.2
				c-0.9,0-1.6,0.4-2,1.2v5.8h-1.2V333.2z"/>
			<path class="st3" d="M547.1,337.9c0,1.4,0.8,2.3,2.1,2.3c0.9,0,1.6-0.4,2-1.2v-5.8h1.2v7.8h-1.2v-1.3c-0.6,0.9-1.4,1.4-2.5,1.4
				c-1.7,0-2.8-1.2-2.8-2.9v-5h1.2V337.9z"/>
			<path class="st3" d="M556.8,337l-2.8-3.8h1.4l2.2,3l2.1-3h1.3l-2.8,3.8l3,4h-1.4l-2.3-3.2l-2.3,3.2h-1.3L556.8,337z"/>
			<path class="st3" d="M566.1,330.4c0-0.4,0.4-0.8,0.8-0.8c0.4,0,0.8,0.4,0.8,0.8c0,0.5-0.4,0.8-0.8,0.8
				C566.5,331.3,566.1,330.9,566.1,330.4z M567.5,341h-1.2v-7.8h1.2V341z"/>
			<path class="st3" d="M569.8,339.2c0.9,0.7,1.7,1,2.5,1c1.1,0,2-0.6,2-1.4c0-0.6-0.4-1-1.4-1.2l-1.3-0.2c-1.5-0.3-2.2-0.9-2.2-2
				c0-1.3,1.2-2.3,2.8-2.3c1.1,0,2,0.3,3,1l-0.6,0.8c-0.8-0.6-1.6-0.8-2.4-0.8c-1,0-1.7,0.5-1.7,1.2c0,0.6,0.3,0.9,1.3,1.1l1.3,0.2
				c1.6,0.3,2.3,0.9,2.3,2.1c0,1.4-1.3,2.4-3,2.4c-1.3,0-2.4-0.4-3.2-1.2L569.8,339.2z"/>
			<path class="st3" d="M581.8,334.1h-1.6v-1h1.6V331l1.2-0.3v2.4h2.2v1H583v4.8c0,0.8,0.3,1.2,1.1,1.2c0.4,0,0.7,0,1.1-0.2v1
				c-0.4,0.1-0.9,0.2-1.4,0.2c-1.3,0-2-0.7-2-1.9V334.1z"/>
			<path class="st3" d="M586.9,329.6l1.2-0.2v5.1c0.6-0.9,1.4-1.4,2.5-1.4c1.7,0,2.8,1.2,2.8,2.9v5.1h-1.2v-4.7
				c0-1.4-0.8-2.2-2.1-2.2c-0.9,0-1.6,0.4-2,1.2v5.8h-1.2V329.6z"/>
			<path class="st3" d="M599.3,341.1c-2.2,0-3.9-1.8-3.9-4s1.6-4,3.7-4c2,0,3.6,1.7,3.6,3.9v0.4h-6.1c0.1,1.6,1.3,2.8,2.8,2.8
				c0.8,0,1.6-0.3,2.1-0.8l0.7,0.8C601.3,340.8,600.4,341.1,599.3,341.1z M596.6,336.5h4.9c-0.2-1.4-1.2-2.4-2.4-2.4
				C597.8,334.1,596.8,335.1,596.6,336.5z"/>
			<path class="st3" d="M609.8,341l-2.1-7.8h1.1l1.6,6.2l1.9-6.2h1l1.9,6.2l1.6-6.2h1.1l-2.1,7.8h-1.1l-1.9-6.3L611,341H609.8z"/>
			<path class="st3" d="M622.9,333.1c2.2,0,3.8,1.7,3.8,4c0,2.3-1.6,4.1-3.8,4.1c-2.1,0-3.8-1.8-3.8-4.1
				C619.1,334.8,620.7,333.1,622.9,333.1z M625.5,337.1c0-1.7-1.1-3-2.7-3s-2.6,1.3-2.6,3c0,1.7,1.1,3,2.6,3
				S625.5,338.8,625.5,337.1z"/>
			<path class="st3" d="M628.7,333.2h1.2v1.6c0.4-1.1,1.2-1.7,2.2-1.7c0.3,0,0.5,0,0.7,0.1v1.1c-0.3-0.1-0.6-0.1-0.8-0.1
				c-1,0-1.7,0.6-2.1,1.6v5.3h-1.2V333.2z"/>
			<path class="st3" d="M635.5,341h-1.2v-11.4l1.2-0.2V341z"/>
			<path class="st3" d="M643.7,340c-0.6,0.8-1.5,1.2-2.5,1.2c-2,0-3.6-1.8-3.6-4c0-2.3,1.6-4,3.7-4c1,0,1.8,0.4,2.4,1.1v-4.6
				l1.2-0.2V341h-1.2V340z M641.5,340.1c0.9,0,1.7-0.4,2.2-1v-3.9c-0.5-0.7-1.3-1.1-2.2-1.1c-1.6,0-2.7,1.3-2.7,3
				C638.7,338.8,639.9,340.1,641.5,340.1z"/>
			<path class="st3" d="M649.2,329l-1.3,3.7H647l1-3.7H649.2z"/>
			<path class="st3" d="M650.1,339.2c0.9,0.7,1.7,1,2.5,1c1.1,0,2-0.6,2-1.4c0-0.6-0.4-1-1.4-1.2l-1.3-0.2c-1.5-0.3-2.2-0.9-2.2-2
				c0-1.3,1.2-2.3,2.8-2.3c1.1,0,2,0.3,3,1l-0.6,0.8c-0.8-0.6-1.6-0.8-2.4-0.8c-1,0-1.7,0.5-1.7,1.2c0,0.6,0.3,0.9,1.3,1.1l1.3,0.2
				c1.6,0.3,2.3,0.9,2.3,2.1c0,1.4-1.3,2.4-3,2.4c-1.3,0-2.4-0.4-3.2-1.2L650.1,339.2z"/>
			<path class="st3" d="M662.3,341h-1.2v-11.4l1.2-0.2V341z"/>
			<path class="st3" d="M668.3,341.1c-2.2,0-3.9-1.8-3.9-4s1.6-4,3.7-4c2,0,3.6,1.7,3.6,3.9v0.4h-6.1c0.1,1.6,1.3,2.8,2.8,2.8
				c0.8,0,1.6-0.3,2.1-0.8l0.7,0.8C670.3,340.8,669.4,341.1,668.3,341.1z M665.6,336.5h4.9c-0.2-1.4-1.2-2.4-2.4-2.4
				C666.8,334.1,665.8,335.1,665.6,336.5z"/>
			<path class="st3" d="M673.1,338.8c0-1.4,1.2-2.3,2.9-2.3c0.9,0,1.7,0.2,2.4,0.6V336c0-1.3-0.7-1.9-2-1.9c-0.7,0-1.5,0.2-2.4,0.7
				l-0.4-0.9c1.1-0.5,2-0.8,2.9-0.8c1.9,0,3,1,3,2.8v5.2h-1.2v-0.9c-0.7,0.7-1.5,1.1-2.5,1.1C674.3,341.1,673.1,340.2,673.1,338.8z
				 M676.2,340.2c0.9,0,1.6-0.3,2.2-0.9v-1.5c-0.7-0.4-1.3-0.6-2.2-0.6c-1.2,0-2,0.6-2,1.4C674.2,339.6,675,340.2,676.2,340.2z"/>
			<path class="st3" d="M687.7,340c-0.6,0.8-1.5,1.2-2.5,1.2c-2,0-3.6-1.8-3.6-4c0-2.3,1.6-4,3.7-4c1,0,1.8,0.4,2.4,1.1v-4.6
				l1.2-0.2V341h-1.2V340z M685.5,340.1c0.9,0,1.7-0.4,2.2-1v-3.9c-0.5-0.7-1.3-1.1-2.2-1.1c-1.6,0-2.7,1.3-2.7,3
				C682.7,338.8,683.9,340.1,685.5,340.1z"/>
			<path class="st3" d="M691,330.4c0-0.4,0.4-0.8,0.8-0.8c0.4,0,0.8,0.4,0.8,0.8c0,0.5-0.4,0.8-0.8,0.8
				C691.4,331.3,691,330.9,691,330.4z M692.4,341h-1.2v-7.8h1.2V341z"/>
			<path class="st3" d="M694.8,333.2h1.2v1.3c0.6-0.9,1.4-1.4,2.5-1.4c1.7,0,2.8,1.2,2.8,2.9v5.1h-1.2v-4.7c0-1.4-0.8-2.2-2.1-2.2
				c-0.9,0-1.6,0.4-2,1.2v5.8h-1.2V333.2z"/>
			<path class="st3" d="M703.3,337.1c0-2.2,1.6-4,3.7-4c1,0,1.8,0.4,2.4,1.1v-1h1.2v8.2c0,1.9-1.2,3-3.3,3c-1.1,0-2.1-0.3-3-0.8
				l0.5-0.9c1,0.5,1.7,0.7,2.5,0.7c1.4,0,2.2-0.7,2.2-2v-1.5c-0.6,0.8-1.5,1.2-2.5,1.2C704.9,341.1,703.3,339.3,703.3,337.1z
				 M707.2,340.1c0.9,0,1.7-0.4,2.2-1.1v-3.9c-0.5-0.7-1.3-1.1-2.2-1.1c-1.6,0-2.7,1.3-2.7,3C704.5,338.8,705.6,340.1,707.2,340.1z"
				/>
			<path class="st3" d="M720.2,341.1c-2.2,0-3.9-1.8-3.9-4s1.6-4,3.7-4c2,0,3.6,1.7,3.6,3.9v0.4h-6.1c0.1,1.6,1.3,2.8,2.8,2.8
				c0.8,0,1.6-0.3,2.1-0.8l0.7,0.8C722.3,340.8,721.3,341.1,720.2,341.1z M717.5,336.5h4.9c-0.2-1.4-1.2-2.4-2.4-2.4
				C718.7,334.1,717.7,335.1,717.5,336.5z"/>
			<path class="st3" d="M725.6,333.2h1.2v1.3c0.6-0.9,1.4-1.4,2.5-1.4c1.7,0,2.8,1.2,2.8,2.9v5.1h-1.2v-4.7c0-1.4-0.8-2.2-2.1-2.2
				c-0.9,0-1.6,0.4-2,1.2v5.8h-1.2V333.2z"/>
			<path class="st3" d="M735.1,334.1h-1.6v-1h1.6V331l1.2-0.3v2.4h2.2v1h-2.2v4.8c0,0.8,0.3,1.2,1.1,1.2c0.4,0,0.7,0,1.1-0.2v1
				c-0.4,0.1-0.9,0.2-1.4,0.2c-1.3,0-2-0.7-2-1.9V334.1z"/>
			<path class="st3" d="M743.6,341.1c-2.2,0-3.9-1.8-3.9-4s1.6-4,3.7-4c2,0,3.6,1.7,3.6,3.9v0.4h-6.1c0.1,1.6,1.3,2.8,2.8,2.8
				c0.8,0,1.6-0.3,2.1-0.8l0.7,0.8C745.6,340.8,744.7,341.1,743.6,341.1z M740.9,336.5h4.9c-0.2-1.4-1.2-2.4-2.4-2.4
				C742.1,334.1,741.1,335.1,740.9,336.5z"/>
			<path class="st3" d="M749,333.2h1.2v1.6c0.4-1.1,1.2-1.7,2.2-1.7c0.3,0,0.5,0,0.7,0.1v1.1c-0.3-0.1-0.6-0.1-0.8-0.1
				c-1,0-1.7,0.6-2.1,1.6v5.3H749V333.2z"/>
			<path class="st3" d="M754.6,333.2h1.2v1.1c0.6-0.8,1.5-1.2,2.5-1.2c2,0,3.6,1.8,3.6,4c0,2.3-1.6,4-3.7,4c-1,0-1.8-0.4-2.4-1.1
				v4.3h-1.2V333.2z M755.8,335.2v3.8c0.5,0.7,1.3,1.1,2.2,1.1c1.6,0,2.7-1.3,2.7-3s-1.2-3-2.7-3
				C757.1,334.1,756.3,334.5,755.8,335.2z"/>
			<path class="st3" d="M763.9,333.2h1.2v1.6c0.4-1.1,1.2-1.7,2.2-1.7c0.3,0,0.5,0,0.7,0.1v1.1c-0.3-0.1-0.6-0.1-0.8-0.1
				c-1,0-1.7,0.6-2.1,1.6v5.3h-1.2V333.2z"/>
			<path class="st3" d="M769.3,330.4c0-0.4,0.4-0.8,0.8-0.8c0.4,0,0.8,0.4,0.8,0.8c0,0.5-0.4,0.8-0.8,0.8
				C769.7,331.3,769.3,330.9,769.3,330.4z M770.7,341h-1.2v-7.8h1.2V341z"/>
			<path class="st3" d="M773,339.2c0.9,0.7,1.7,1,2.5,1c1.1,0,2-0.6,2-1.4c0-0.6-0.4-1-1.4-1.2l-1.3-0.2c-1.5-0.3-2.2-0.9-2.2-2
				c0-1.3,1.2-2.3,2.8-2.3c1.1,0,2,0.3,3,1l-0.6,0.8c-0.8-0.6-1.6-0.8-2.4-0.8c-1,0-1.7,0.5-1.7,1.2c0,0.6,0.3,0.9,1.3,1.1l1.3,0.2
				c1.6,0.3,2.3,0.9,2.3,2.1c0,1.4-1.3,2.4-3,2.4c-1.3,0-2.4-0.4-3.2-1.2L773,339.2z"/>
			<path class="st3" d="M784,341.1c-2.2,0-3.9-1.8-3.9-4s1.6-4,3.7-4c2,0,3.6,1.7,3.6,3.9v0.4h-6.1c0.1,1.6,1.3,2.8,2.8,2.8
				c0.8,0,1.6-0.3,2.1-0.8l0.7,0.8C786,340.8,785,341.1,784,341.1z M781.3,336.5h4.9c-0.2-1.4-1.2-2.4-2.4-2.4
				C782.5,334.1,781.5,335.1,781.3,336.5z"/>
			<path class="st3" d="M793.3,329.8h1.2v10.1h6.3v1.1h-7.6V329.8z"/>
			<path class="st3" d="M802.5,330.4c0-0.4,0.4-0.8,0.8-0.8c0.4,0,0.8,0.4,0.8,0.8c0,0.5-0.4,0.8-0.8,0.8
				C802.9,331.3,802.5,330.9,802.5,330.4z M804,341h-1.2v-7.8h1.2V341z"/>
			<path class="st3" d="M806.4,333.2h1.2v1.3c0.6-0.9,1.4-1.4,2.5-1.4c1.7,0,2.8,1.2,2.8,2.9v5.1h-1.2v-4.7c0-1.4-0.8-2.2-2.1-2.2
				c-0.9,0-1.6,0.4-2,1.2v5.8h-1.2V333.2z"/>
			<path class="st3" d="M816.2,337.9c0,1.4,0.8,2.3,2.1,2.3c0.9,0,1.6-0.4,2-1.2v-5.8h1.2v7.8h-1.2v-1.3c-0.6,0.9-1.4,1.4-2.5,1.4
				c-1.7,0-2.8-1.2-2.8-2.9v-5h1.2V337.9z"/>
			<path class="st3" d="M825.9,337l-2.8-3.8h1.4l2.2,3l2.1-3h1.3l-2.8,3.8l3,4h-1.4l-2.3-3.2l-2.3,3.2H823L825.9,337z"/>
			<path class="st3" d="M835.5,333.2h1.2v1.1c0.6-0.8,1.5-1.2,2.5-1.2c2,0,3.6,1.8,3.6,4c0,2.3-1.6,4-3.7,4c-1,0-1.8-0.4-2.4-1.1
				v4.3h-1.2V333.2z M836.6,335.2v3.8c0.5,0.7,1.3,1.1,2.2,1.1c1.6,0,2.7-1.3,2.7-3s-1.2-3-2.7-3
				C837.9,334.1,837.1,334.5,836.6,335.2z"/>
			<path class="st3" d="M846,341h-1.2v-11.4l1.2-0.2V341z"/>
			<path class="st3" d="M847.9,338.8c0-1.4,1.2-2.3,2.9-2.3c0.9,0,1.7,0.2,2.4,0.6V336c0-1.3-0.7-1.9-2-1.9c-0.7,0-1.5,0.2-2.4,0.7
				l-0.4-0.9c1.1-0.5,2-0.8,2.9-0.8c1.9,0,3,1,3,2.8v5.2h-1.2v-0.9c-0.7,0.7-1.5,1.1-2.5,1.1C849.1,341.1,847.9,340.2,847.9,338.8z
				 M851,340.2c0.9,0,1.6-0.3,2.2-0.9v-1.5c-0.7-0.4-1.3-0.6-2.2-0.6c-1.2,0-2,0.6-2,1.4C849.1,339.6,849.8,340.2,851,340.2z"/>
			<path class="st3" d="M857.5,334.1h-1.6v-1h1.6V331l1.2-0.3v2.4h2.2v1h-2.2v4.8c0,0.8,0.3,1.2,1.1,1.2c0.4,0,0.7,0,1.1-0.2v1
				c-0.4,0.1-0.9,0.2-1.4,0.2c-1.3,0-2-0.7-2-1.9V334.1z"/>
			<path class="st3" d="M863.7,333.2v-1.7c0-1.5,0.8-2.4,2.3-2.4c0.4,0,0.8,0,1.1,0.1v1.1c-0.4-0.1-0.6-0.1-0.9-0.1
				c-0.9,0-1.3,0.4-1.3,1.4v1.7h2.2v1h-2.2v6.9h-1.2v-6.9H862v-1H863.7z"/>
			<path class="st3" d="M871.8,333.1c2.2,0,3.8,1.7,3.8,4c0,2.3-1.6,4.1-3.8,4.1c-2.1,0-3.8-1.8-3.8-4.1
				C868,334.8,869.6,333.1,871.8,333.1z M874.4,337.1c0-1.7-1.1-3-2.7-3s-2.6,1.3-2.6,3c0,1.7,1.1,3,2.6,3S874.4,338.8,874.4,337.1z
				"/>
			<path class="st3" d="M877.6,333.2h1.2v1.6c0.4-1.1,1.2-1.7,2.2-1.7c0.3,0,0.5,0,0.7,0.1v1.1c-0.3-0.1-0.6-0.1-0.8-0.1
				c-1,0-1.7,0.6-2.1,1.6v5.3h-1.2V333.2z"/>
			<path class="st3" d="M883.2,333.2h1.2v1.2c0.6-0.9,1.4-1.3,2.3-1.3c1.1,0,2,0.6,2.4,1.5c0.6-1,1.5-1.5,2.6-1.5
				c1.6,0,2.7,1.2,2.7,2.9v5h-1.2v-4.8c0-1.4-0.7-2.2-1.9-2.2c-0.8,0-1.5,0.4-2,1.2c0,0.2,0.1,0.4,0.1,0.7v5h-1.2v-4.8
				c0-1.4-0.8-2.2-1.9-2.2c-0.8,0-1.4,0.4-1.9,1.2v5.8h-1.2V333.2z"/>
			<path class="st3" d="M898.1,340.2c0,0.5-0.4,0.9-0.8,0.9c-0.5,0-0.8-0.4-0.8-0.9c0-0.5,0.4-0.9,0.8-0.9
				C897.8,339.4,898.1,339.8,898.1,340.2z"/>
			<path class="st3" d="M904.2,329.8h1.2V341h-1.2V329.8z"/>
			<path class="st3" d="M909,334.1h-1.6v-1h1.6V331l1.2-0.3v2.4h2.2v1h-2.2v4.8c0,0.8,0.3,1.2,1.1,1.2c0.4,0,0.7,0,1.1-0.2v1
				c-0.4,0.1-0.9,0.2-1.4,0.2c-1.3,0-2-0.7-2-1.9V334.1z"/>
			<path class="st3" d="M916.2,329l-1.3,3.7H914l1-3.7H916.2z"/>
			<path class="st3" d="M917.1,339.2c0.9,0.7,1.7,1,2.5,1c1.1,0,2-0.6,2-1.4c0-0.6-0.4-1-1.4-1.2l-1.3-0.2c-1.5-0.3-2.2-0.9-2.2-2
				c0-1.3,1.2-2.3,2.8-2.3c1.1,0,2,0.3,3,1l-0.6,0.8c-0.8-0.6-1.6-0.8-2.4-0.8c-1,0-1.7,0.5-1.7,1.2c0,0.6,0.3,0.9,1.3,1.1l1.3,0.2
				c1.6,0.3,2.3,0.9,2.3,2.1c0,1.4-1.3,2.4-3,2.4c-1.3,0-2.4-0.4-3.2-1.2L917.1,339.2z"/>
			<path class="st3" d="M927.8,338.8c0-1.4,1.2-2.3,2.9-2.3c0.9,0,1.7,0.2,2.4,0.6V336c0-1.3-0.7-1.9-2-1.9c-0.7,0-1.5,0.2-2.4,0.7
				l-0.4-0.9c1.1-0.5,2-0.8,2.9-0.8c1.9,0,3,1,3,2.8v5.2h-1.2v-0.9c-0.7,0.7-1.5,1.1-2.5,1.1C928.9,341.1,927.8,340.2,927.8,338.8z
				 M930.9,340.2c0.9,0,1.6-0.3,2.2-0.9v-1.5c-0.7-0.4-1.3-0.6-2.2-0.6c-1.2,0-2,0.6-2,1.4C928.9,339.6,929.7,340.2,930.9,340.2z"/>
			<path class="st3" d="M936.6,333.2h1.2v1.3c0.6-0.9,1.4-1.4,2.5-1.4c1.7,0,2.8,1.2,2.8,2.9v5.1h-1.2v-4.7c0-1.4-0.8-2.2-2.1-2.2
				c-0.9,0-1.6,0.4-2,1.2v5.8h-1.2V333.2z"/>
			<path class="st3" d="M952.6,333.1c2.2,0,3.8,1.7,3.8,4c0,2.3-1.6,4.1-3.8,4.1c-2.1,0-3.8-1.8-3.8-4.1
				C948.8,334.8,950.5,333.1,952.6,333.1z M955.3,337.1c0-1.7-1.1-3-2.7-3s-2.6,1.3-2.6,3c0,1.7,1.1,3,2.6,3
				S955.3,338.8,955.3,337.1z"/>
			<path class="st3" d="M958.5,333.2h1.2v1.1c0.6-0.8,1.5-1.2,2.5-1.2c2,0,3.6,1.8,3.6,4c0,2.3-1.6,4-3.7,4c-1,0-1.8-0.4-2.4-1.1
				v4.3h-1.2V333.2z M959.6,335.2v3.8c0.5,0.7,1.3,1.1,2.2,1.1c1.6,0,2.7-1.3,2.7-3s-1.2-3-2.7-3
				C960.9,334.1,960.1,334.5,959.6,335.2z"/>
			<path class="st3" d="M971.3,341.1c-2.2,0-3.9-1.8-3.9-4s1.6-4,3.7-4c2,0,3.6,1.7,3.6,3.9v0.4h-6.1c0.1,1.6,1.3,2.8,2.8,2.8
				c0.8,0,1.6-0.3,2.1-0.8l0.7,0.8C973.4,340.8,972.4,341.1,971.3,341.1z M968.6,336.5h4.9c-0.2-1.4-1.2-2.4-2.4-2.4
				C969.8,334.1,968.8,335.1,968.6,336.5z"/>
			<path class="st3" d="M976.7,333.2h1.2v1.3c0.6-0.9,1.4-1.4,2.5-1.4c1.7,0,2.8,1.2,2.8,2.9v5.1H982v-4.7c0-1.4-0.8-2.2-2.1-2.2
				c-0.9,0-1.6,0.4-2,1.2v5.8h-1.2V333.2z"/>
			<path class="st3" d="M989.2,339.2c0.9,0.7,1.7,1,2.5,1c1.1,0,2-0.6,2-1.4c0-0.6-0.4-1-1.4-1.2l-1.3-0.2c-1.5-0.3-2.2-0.9-2.2-2
				c0-1.3,1.2-2.3,2.8-2.3c1.1,0,2,0.3,3,1l-0.6,0.8c-0.8-0.6-1.6-0.8-2.4-0.8c-1,0-1.7,0.5-1.7,1.2c0,0.6,0.3,0.9,1.3,1.1l1.3,0.2
				c1.6,0.3,2.3,0.9,2.3,2.1c0,1.4-1.3,2.4-3,2.4c-1.3,0-2.4-0.4-3.2-1.2L989.2,339.2z"/>
			<path class="st3" d="M1000,333.1c2.2,0,3.8,1.7,3.8,4c0,2.3-1.6,4.1-3.8,4.1c-2.1,0-3.8-1.8-3.8-4.1
				C996.2,334.8,997.9,333.1,1000,333.1z M1002.7,337.1c0-1.7-1.1-3-2.7-3s-2.6,1.3-2.6,3c0,1.7,1.1,3,2.6,3
				S1002.7,338.8,1002.7,337.1z"/>
			<path class="st3" d="M1007,337.9c0,1.4,0.8,2.3,2.1,2.3c0.9,0,1.6-0.4,2-1.2v-5.8h1.2v7.8h-1.2v-1.3c-0.6,0.9-1.4,1.4-2.5,1.4
				c-1.7,0-2.8-1.2-2.8-2.9v-5h1.2V337.9z"/>
			<path class="st3" d="M1014.7,333.2h1.2v1.6c0.4-1.1,1.2-1.7,2.2-1.7c0.3,0,0.5,0,0.7,0.1v1.1c-0.3-0.1-0.6-0.1-0.8-0.1
				c-1,0-1.7,0.6-2.1,1.6v5.3h-1.2V333.2z"/>
			<path class="st3" d="M1025.6,339.2l0.7,0.7c-0.8,0.8-1.8,1.3-3,1.3c-2.2,0-3.9-1.8-3.9-4c0-2.3,1.7-4,3.9-4c1.2,0,2.2,0.4,3,1.2
				l-0.8,0.8c-0.6-0.6-1.4-1-2.2-1c-1.5,0-2.7,1.3-2.7,3c0,1.7,1.2,3,2.8,3C1024.3,340.1,1025.1,339.8,1025.6,339.2z"/>
			<path class="st3" d="M1031.3,341.1c-2.2,0-3.9-1.8-3.9-4s1.6-4,3.7-4c2,0,3.6,1.7,3.6,3.9v0.4h-6.1c0.1,1.6,1.3,2.8,2.8,2.8
				c0.8,0,1.6-0.3,2.1-0.8l0.7,0.8C1033.3,340.8,1032.4,341.1,1031.3,341.1z M1028.6,336.5h4.9c-0.2-1.4-1.2-2.4-2.4-2.4
				C1029.8,334.1,1028.8,335.1,1028.6,336.5z"/>
			<path class="st3" d="M1043.8,333.1c2.2,0,3.8,1.7,3.8,4c0,2.3-1.6,4.1-3.8,4.1c-2.1,0-3.8-1.8-3.8-4.1
				C1040,334.8,1041.7,333.1,1043.8,333.1z M1046.5,337.1c0-1.7-1.1-3-2.7-3s-2.6,1.3-2.6,3c0,1.7,1.1,3,2.6,3
				S1046.5,338.8,1046.5,337.1z"/>
			<path class="st3" d="M1049.7,333.2h1.2v1.1c0.6-0.8,1.5-1.2,2.5-1.2c2,0,3.6,1.8,3.6,4c0,2.3-1.6,4-3.7,4c-1,0-1.8-0.4-2.4-1.1
				v4.3h-1.2V333.2z M1050.9,335.2v3.8c0.5,0.7,1.3,1.1,2.2,1.1c1.6,0,2.7-1.3,2.7-3s-1.2-3-2.7-3
				C1052.2,334.1,1051.4,334.5,1050.9,335.2z"/>
			<path class="st3" d="M1062.6,341.1c-2.2,0-3.9-1.8-3.9-4s1.6-4,3.7-4c2,0,3.6,1.7,3.6,3.9v0.4h-6.1c0.1,1.6,1.3,2.8,2.8,2.8
				c0.8,0,1.6-0.3,2.1-0.8l0.7,0.8C1064.6,340.8,1063.7,341.1,1062.6,341.1z M1059.9,336.5h4.9c-0.2-1.4-1.2-2.4-2.4-2.4
				C1061.1,334.1,1060.1,335.1,1059.9,336.5z"/>
			<path class="st3" d="M1068,333.2h1.2v1.6c0.4-1.1,1.2-1.7,2.2-1.7c0.3,0,0.5,0,0.7,0.1v1.1c-0.3-0.1-0.6-0.1-0.8-0.1
				c-1,0-1.7,0.6-2.1,1.6v5.3h-1.2V333.2z"/>
			<path class="st3" d="M1072.8,338.8c0-1.4,1.2-2.3,2.9-2.3c0.9,0,1.7,0.2,2.4,0.6V336c0-1.3-0.7-1.9-2-1.9c-0.7,0-1.5,0.2-2.4,0.7
				l-0.4-0.9c1.1-0.5,2-0.8,2.9-0.8c1.9,0,3,1,3,2.8v5.2h-1.2v-0.9c-0.7,0.7-1.5,1.1-2.5,1.1C1074,341.1,1072.8,340.2,1072.8,338.8z
				 M1075.9,340.2c0.9,0,1.6-0.3,2.2-0.9v-1.5c-0.7-0.4-1.3-0.6-2.2-0.6c-1.2,0-2,0.6-2,1.4C1073.9,339.6,1074.7,340.2,1075.9,340.2
				z"/>
			<path class="st3" d="M1082.3,334.1h-1.6v-1h1.6V331l1.2-0.3v2.4h2.2v1h-2.2v4.8c0,0.8,0.3,1.2,1.1,1.2c0.4,0,0.7,0,1.1-0.2v1
				c-0.4,0.1-0.9,0.2-1.4,0.2c-1.3,0-2-0.7-2-1.9V334.1z"/>
			<path class="st3" d="M1087.2,330.4c0-0.4,0.4-0.8,0.8-0.8c0.4,0,0.8,0.4,0.8,0.8c0,0.5-0.4,0.8-0.8,0.8
				C1087.6,331.3,1087.2,330.9,1087.2,330.4z M1088.6,341h-1.2v-7.8h1.2V341z"/>
			<path class="st3" d="M1091,333.2h1.2v1.3c0.6-0.9,1.4-1.4,2.5-1.4c1.7,0,2.8,1.2,2.8,2.9v5.1h-1.2v-4.7c0-1.4-0.8-2.2-2.1-2.2
				c-0.9,0-1.6,0.4-2,1.2v5.8h-1.2V333.2z"/>
			<path class="st3" d="M1099.5,337.1c0-2.2,1.6-4,3.7-4c1,0,1.8,0.4,2.4,1.1v-1h1.2v8.2c0,1.9-1.2,3-3.3,3c-1.1,0-2.1-0.3-3-0.8
				l0.5-0.9c1,0.5,1.7,0.7,2.5,0.7c1.4,0,2.2-0.7,2.2-2v-1.5c-0.6,0.8-1.5,1.2-2.5,1.2C1101.1,341.1,1099.5,339.3,1099.5,337.1z
				 M1103.4,340.1c0.9,0,1.7-0.4,2.2-1.1v-3.9c-0.5-0.7-1.3-1.1-2.2-1.1c-1.6,0-2.7,1.3-2.7,3
				C1100.7,338.8,1101.8,340.1,1103.4,340.1z"/>
			<path class="st3" d="M1112.8,339.2c0.9,0.7,1.7,1,2.5,1c1.1,0,2-0.6,2-1.4c0-0.6-0.4-1-1.4-1.2l-1.3-0.2c-1.5-0.3-2.2-0.9-2.2-2
				c0-1.3,1.2-2.3,2.8-2.3c1.1,0,2,0.3,3,1l-0.6,0.8c-0.8-0.6-1.6-0.8-2.4-0.8c-1,0-1.7,0.5-1.7,1.2c0,0.6,0.3,0.9,1.3,1.1l1.3,0.2
				c1.6,0.3,2.3,0.9,2.3,2.1c0,1.4-1.3,2.4-3,2.4c-1.3,0-2.4-0.4-3.2-1.2L1112.8,339.2z"/>
			<path class="st3" d="M1122,341l-3-7.8h1.3l2.4,6.4l2.5-6.4h1.3l-3.9,9.4c-0.5,1.3-1.1,1.7-2.2,1.7c-0.2,0-0.5,0-0.8-0.1v-1
				c0.3,0.1,0.5,0.1,0.6,0.1c0.6,0,1-0.3,1.2-1L1122,341z"/>
			<path class="st3" d="M1127.8,339.2c0.9,0.7,1.7,1,2.5,1c1.1,0,2-0.6,2-1.4c0-0.6-0.4-1-1.4-1.2l-1.3-0.2c-1.5-0.3-2.2-0.9-2.2-2
				c0-1.3,1.2-2.3,2.8-2.3c1.1,0,2,0.3,3,1l-0.6,0.8c-0.8-0.6-1.6-0.8-2.4-0.8c-1,0-1.7,0.5-1.7,1.2c0,0.6,0.3,0.9,1.3,1.1l1.3,0.2
				c1.6,0.3,2.3,0.9,2.3,2.1c0,1.4-1.3,2.4-3,2.4c-1.3,0-2.4-0.4-3.2-1.2L1127.8,339.2z"/>
			<path class="st3" d="M1135.9,334.1h-1.6v-1h1.6V331l1.2-0.3v2.4h2.2v1h-2.2v4.8c0,0.8,0.3,1.2,1.1,1.2c0.4,0,0.7,0,1.1-0.2v1
				c-0.4,0.1-0.9,0.2-1.4,0.2c-1.3,0-2-0.7-2-1.9V334.1z"/>
			<path class="st3" d="M1144.4,341.1c-2.2,0-3.9-1.8-3.9-4s1.6-4,3.7-4c2,0,3.6,1.7,3.6,3.9v0.4h-6.1c0.1,1.6,1.3,2.8,2.8,2.8
				c0.8,0,1.6-0.3,2.1-0.8l0.7,0.8C1146.4,340.8,1145.5,341.1,1144.4,341.1z M1141.7,336.5h4.9c-0.2-1.4-1.2-2.4-2.4-2.4
				C1142.9,334.1,1141.9,335.1,1141.7,336.5z"/>
			<path class="st3" d="M1149.8,333.2h1.2v1.2c0.6-0.9,1.4-1.3,2.3-1.3c1.1,0,2,0.6,2.4,1.5c0.6-1,1.5-1.5,2.6-1.5
				c1.6,0,2.7,1.2,2.7,2.9v5h-1.2v-4.8c0-1.4-0.7-2.2-1.9-2.2c-0.8,0-1.5,0.4-2,1.2c0,0.2,0.1,0.4,0.1,0.7v5h-1.2v-4.8
				c0-1.4-0.8-2.2-1.9-2.2c-0.8,0-1.4,0.4-1.9,1.2v5.8h-1.2V333.2z"/>
			<path class="st3" d="M1170.8,329.6l0.6,0.8c-2.1,1.3-3.3,3.7-3.3,6.6s1.2,5.3,3.3,6.6l-0.6,0.8c-2.4-1.5-3.8-4.2-3.8-7.4
				C1167,333.8,1168.4,331.1,1170.8,329.6z"/>
			<path class="st3" d="M1178.7,341.2c-3.1,0-5.6-2.5-5.6-5.8s2.5-5.8,5.6-5.8c3.1,0,5.6,2.5,5.6,5.8S1181.8,341.2,1178.7,341.2z
				 M1178.7,330.7c-2.4,0-4.3,2-4.3,4.7s1.9,4.7,4.3,4.7c2.4,0,4.3-2,4.3-4.7S1181.1,330.7,1178.7,330.7z"/>
			<path class="st3" d="M1186.4,338.4c1.3,1.3,2.4,1.7,3.9,1.7c1.7,0,3-1,3-2.3c0-1.1-0.7-1.6-2.5-2l-1.8-0.3c-2-0.4-3-1.2-3-2.7
				c0-1.9,1.6-3.2,3.8-3.2c1.7,0,3,0.4,4.4,1.4l-0.6,1c-1.2-0.9-2.5-1.3-3.8-1.3c-1.6,0-2.7,0.9-2.7,2c0,1,0.6,1.5,2.1,1.7l1.8,0.3
				c2.4,0.4,3.4,1.3,3.4,3c0,1.9-1.8,3.4-4.3,3.4c-1.8,0-3.2-0.6-4.6-1.9L1186.4,338.4z"/>
			<path class="st3" d="M1196.5,344.5l-0.6-0.8c2.1-1.3,3.3-3.7,3.3-6.6s-1.2-5.3-3.3-6.6l0.6-0.8c2.4,1.5,3.8,4.2,3.8,7.4
				C1200.3,340.4,1199,343,1196.5,344.5z"/>
			<path class="st3" d="M1204.1,340.2c0,0.5-0.4,0.9-0.8,0.9c-0.5,0-0.8-0.4-0.8-0.9c0-0.5,0.4-0.9,0.8-0.9
				C1203.7,339.4,1204.1,339.8,1204.1,340.2z"/>
		</g>
		<g class="st2">
			<path class="st3" d="M385.4,353.8h1.2V365h-1.2V353.8z"/>
			<path class="st3" d="M390.2,358.1h-1.6v-1h1.6V355l1.2-0.3v2.4h2.2v1h-2.2v4.8c0,0.8,0.3,1.2,1.1,1.2c0.4,0,0.7,0,1.1-0.2v1
				c-0.4,0.1-0.9,0.2-1.4,0.2c-1.3,0-2-0.7-2-1.9V358.1z"/>
			<path class="st3" d="M397.4,353l-1.3,3.7h-0.9l1-3.7H397.4z"/>
			<path class="st3" d="M398.3,363.2c0.9,0.7,1.7,1,2.5,1c1.1,0,2-0.6,2-1.4c0-0.6-0.4-1-1.4-1.2l-1.3-0.2c-1.5-0.3-2.2-0.9-2.2-2
				c0-1.3,1.2-2.3,2.8-2.3c1.1,0,2,0.3,3,1l-0.6,0.8c-0.8-0.6-1.6-0.8-2.4-0.8c-1,0-1.7,0.5-1.7,1.2c0,0.6,0.3,0.9,1.3,1.1l1.3,0.2
				c1.6,0.3,2.3,0.9,2.3,2.1c0,1.4-1.3,2.4-3,2.4c-1.3,0-2.4-0.4-3.2-1.2L398.3,363.2z"/>
			<path class="st3" d="M410.3,358.1h-1.6v-1h1.6V355l1.2-0.3v2.4h2.2v1h-2.2v4.8c0,0.8,0.3,1.2,1.1,1.2c0.4,0,0.7,0,1.1-0.2v1
				c-0.4,0.1-0.9,0.2-1.4,0.2c-1.3,0-2-0.7-2-1.9V358.1z"/>
			<path class="st3" d="M415.4,353.6l1.2-0.2v5.1c0.6-0.9,1.4-1.4,2.5-1.4c1.7,0,2.8,1.2,2.8,2.9v5.1h-1.2v-4.7
				c0-1.4-0.8-2.2-2.1-2.2c-0.9,0-1.6,0.4-2,1.2v5.8h-1.2V353.6z"/>
			<path class="st3" d="M427.8,365.1c-2.2,0-3.9-1.8-3.9-4s1.6-4,3.7-4c2,0,3.6,1.7,3.6,3.9v0.4h-6.1c0.1,1.6,1.3,2.8,2.8,2.8
				c0.8,0,1.6-0.3,2.1-0.8l0.7,0.8C429.8,364.8,428.9,365.1,427.8,365.1z M425.1,360.5h4.9c-0.2-1.4-1.2-2.4-2.4-2.4
				C426.3,358.1,425.3,359.1,425.1,360.5z"/>
			<path class="st3" d="M437.9,357.2v-1.7c0-1.5,0.8-2.4,2.3-2.4c0.4,0,0.8,0,1.1,0.1v1.1c-0.4-0.1-0.6-0.1-0.9-0.1
				c-0.9,0-1.3,0.4-1.3,1.4v1.7h2.2v1h-2.2v6.9h-1.2v-6.9h-1.7v-1H437.9z"/>
			<path class="st3" d="M445.9,357.1c2.2,0,3.8,1.7,3.8,4c0,2.3-1.6,4.1-3.8,4.1c-2.1,0-3.8-1.8-3.8-4.1
				C442.1,358.8,443.8,357.1,445.9,357.1z M448.6,361.1c0-1.7-1.1-3-2.7-3s-2.6,1.3-2.6,3c0,1.7,1.1,3,2.6,3
				S448.6,362.8,448.6,361.1z"/>
			<path class="st3" d="M452.9,361.9c0,1.4,0.8,2.3,2.1,2.3c0.9,0,1.6-0.4,2-1.2v-5.8h1.2v7.8H457v-1.3c-0.6,0.9-1.4,1.4-2.5,1.4
				c-1.7,0-2.8-1.2-2.8-2.9v-5h1.2V361.9z"/>
			<path class="st3" d="M460.6,357.2h1.2v1.3c0.6-0.9,1.4-1.4,2.5-1.4c1.7,0,2.8,1.2,2.8,2.9v5.1h-1.2v-4.7c0-1.4-0.8-2.2-2.1-2.2
				c-0.9,0-1.6,0.4-2,1.2v5.8h-1.2V357.2z"/>
			<path class="st3" d="M475.2,364c-0.6,0.8-1.5,1.2-2.5,1.2c-2,0-3.6-1.8-3.6-4c0-2.3,1.6-4,3.7-4c1,0,1.8,0.4,2.4,1.1v-4.6
				l1.2-0.2V365h-1.2V364z M473,364.1c0.9,0,1.7-0.4,2.2-1v-3.9c-0.5-0.7-1.3-1.1-2.2-1.1c-1.6,0-2.7,1.3-2.7,3
				C470.2,362.8,471.4,364.1,473,364.1z"/>
			<path class="st3" d="M478.3,362.8c0-1.4,1.2-2.3,2.9-2.3c0.9,0,1.7,0.2,2.4,0.6V360c0-1.3-0.7-1.9-2-1.9c-0.7,0-1.5,0.2-2.4,0.7
				l-0.4-0.9c1.1-0.5,2-0.8,2.9-0.8c1.9,0,3,1,3,2.8v5.2h-1.2v-0.9c-0.7,0.7-1.5,1.1-2.5,1.1C479.5,365.1,478.3,364.2,478.3,362.8z
				 M481.4,364.2c0.9,0,1.6-0.3,2.2-0.9v-1.5c-0.7-0.4-1.3-0.6-2.2-0.6c-1.2,0-2,0.6-2,1.4C479.5,363.6,480.2,364.2,481.4,364.2z"/>
			<path class="st3" d="M487.9,358.1h-1.6v-1h1.6V355l1.2-0.3v2.4h2.2v1H489v4.8c0,0.8,0.3,1.2,1.1,1.2c0.4,0,0.7,0,1.1-0.2v1
				c-0.4,0.1-0.9,0.2-1.4,0.2c-1.3,0-2-0.7-2-1.9V358.1z"/>
			<path class="st3" d="M492.7,354.4c0-0.4,0.4-0.8,0.8-0.8c0.4,0,0.8,0.4,0.8,0.8c0,0.5-0.4,0.8-0.8,0.8
				C493.1,355.3,492.7,354.9,492.7,354.4z M494.1,365H493v-7.8h1.2V365z"/>
			<path class="st3" d="M500,357.1c2.2,0,3.8,1.7,3.8,4c0,2.3-1.6,4.1-3.8,4.1c-2.1,0-3.8-1.8-3.8-4.1
				C496.2,358.8,497.8,357.1,500,357.1z M502.6,361.1c0-1.7-1.1-3-2.7-3s-2.6,1.3-2.6,3c0,1.7,1.1,3,2.6,3S502.6,362.8,502.6,361.1z
				"/>
			<path class="st3" d="M505.8,357.2h1.2v1.3c0.6-0.9,1.4-1.4,2.5-1.4c1.7,0,2.8,1.2,2.8,2.9v5.1h-1.2v-4.7c0-1.4-0.8-2.2-2.1-2.2
				c-0.9,0-1.6,0.4-2,1.2v5.8h-1.2V357.2z"/>
			<path class="st3" d="M519.4,357.2v-1.7c0-1.5,0.8-2.4,2.3-2.4c0.4,0,0.8,0,1.1,0.1v1.1c-0.4-0.1-0.6-0.1-0.9-0.1
				c-0.9,0-1.3,0.4-1.3,1.4v1.7h2.2v1h-2.2v6.9h-1.2v-6.9h-1.7v-1H519.4z"/>
			<path class="st3" d="M524.3,357.2h1.2v1.6c0.4-1.1,1.2-1.7,2.2-1.7c0.3,0,0.5,0,0.7,0.1v1.1c-0.3-0.1-0.6-0.1-0.8-0.1
				c-1,0-1.7,0.6-2.1,1.6v5.3h-1.2V357.2z"/>
			<path class="st3" d="M532.9,357.1c2.2,0,3.8,1.7,3.8,4c0,2.3-1.6,4.1-3.8,4.1c-2.1,0-3.8-1.8-3.8-4.1
				C529.1,358.8,530.7,357.1,532.9,357.1z M535.6,361.1c0-1.7-1.1-3-2.7-3s-2.6,1.3-2.6,3c0,1.7,1.1,3,2.6,3
				S535.6,362.8,535.6,361.1z"/>
			<path class="st3" d="M538.7,357.2h1.2v1.2c0.6-0.9,1.4-1.3,2.3-1.3c1.1,0,2,0.6,2.4,1.5c0.6-1,1.5-1.5,2.6-1.5
				c1.6,0,2.7,1.2,2.7,2.9v5h-1.2v-4.8c0-1.4-0.7-2.2-1.9-2.2c-0.8,0-1.5,0.4-2,1.2c0,0.2,0.1,0.4,0.1,0.7v5h-1.2v-4.8
				c0-1.4-0.8-2.2-1.9-2.2c-0.8,0-1.4,0.4-1.9,1.2v5.8h-1.2V357.2z"/>
			<path class="st3" d="M557.4,365l-2.1-7.8h1.1l1.6,6.2l1.9-6.2h1l1.9,6.2l1.6-6.2h1.1l-2.1,7.8h-1.1l-1.9-6.3l-1.9,6.3H557.4z"/>
			<path class="st3" d="M567.2,353.6l1.2-0.2v5.1c0.6-0.9,1.4-1.4,2.5-1.4c1.7,0,2.8,1.2,2.8,2.9v5.1h-1.2v-4.7
				c0-1.4-0.8-2.2-2.1-2.2c-0.9,0-1.6,0.4-2,1.2v5.8h-1.2V353.6z"/>
			<path class="st3" d="M575.7,354.4c0-0.4,0.4-0.8,0.8-0.8c0.4,0,0.8,0.4,0.8,0.8c0,0.5-0.4,0.8-0.8,0.8
				C576.1,355.3,575.7,354.9,575.7,354.4z M577.2,365H576v-7.8h1.2V365z"/>
			<path class="st3" d="M585.3,363.2l0.7,0.7c-0.8,0.8-1.8,1.3-3,1.3c-2.2,0-3.9-1.8-3.9-4c0-2.3,1.7-4,3.9-4c1.2,0,2.2,0.4,3,1.2
				l-0.8,0.8c-0.6-0.6-1.4-1-2.2-1c-1.5,0-2.7,1.3-2.7,3c0,1.7,1.2,3,2.8,3C584,364.1,584.8,363.8,585.3,363.2z"/>
			<path class="st3" d="M587.7,353.6l1.2-0.2v5.1c0.6-0.9,1.4-1.4,2.5-1.4c1.7,0,2.8,1.2,2.8,2.9v5.1H593v-4.7
				c0-1.4-0.8-2.2-2.1-2.2c-0.9,0-1.6,0.4-2,1.2v5.8h-1.2V353.6z"/>
			<path class="st3" d="M602.3,365l-3-7.8h1.3l2.4,6.4l2.5-6.4h1.3l-3.9,9.4c-0.5,1.3-1.1,1.7-2.2,1.7c-0.2,0-0.5,0-0.8-0.1v-1
				c0.3,0.1,0.5,0.1,0.6,0.1c0.6,0,1-0.3,1.2-1L602.3,365z"/>
			<path class="st3" d="M611.4,357.1c2.2,0,3.8,1.7,3.8,4c0,2.3-1.6,4.1-3.8,4.1c-2.1,0-3.8-1.8-3.8-4.1
				C607.6,358.8,609.3,357.1,611.4,357.1z M614.1,361.1c0-1.7-1.1-3-2.7-3s-2.6,1.3-2.6,3c0,1.7,1.1,3,2.6,3
				S614.1,362.8,614.1,361.1z"/>
			<path class="st3" d="M618.4,361.9c0,1.4,0.8,2.3,2.1,2.3c0.9,0,1.6-0.4,2-1.2v-5.8h1.2v7.8h-1.2v-1.3c-0.6,0.9-1.4,1.4-2.5,1.4
				c-1.7,0-2.8-1.2-2.8-2.9v-5h1.2V361.9z"/>
			<path class="st3" d="M635.6,363.2l0.7,0.7c-0.8,0.8-1.8,1.3-3,1.3c-2.2,0-3.9-1.8-3.9-4c0-2.3,1.7-4,3.9-4c1.2,0,2.2,0.4,3,1.2
				l-0.8,0.8c-0.6-0.6-1.4-1-2.2-1c-1.5,0-2.7,1.3-2.7,3c0,1.7,1.2,3,2.8,3C634.3,364.1,635.1,363.8,635.6,363.2z"/>
			<path class="st3" d="M637.6,362.8c0-1.4,1.2-2.3,2.9-2.3c0.9,0,1.7,0.2,2.4,0.6V360c0-1.3-0.7-1.9-2-1.9c-0.7,0-1.5,0.2-2.4,0.7
				l-0.4-0.9c1.1-0.5,2-0.8,2.9-0.8c1.9,0,3,1,3,2.8v5.2h-1.2v-0.9c-0.7,0.7-1.5,1.1-2.5,1.1C638.7,365.1,637.6,364.2,637.6,362.8z
				 M640.7,364.2c0.9,0,1.6-0.3,2.2-0.9v-1.5c-0.7-0.4-1.3-0.6-2.2-0.6c-1.2,0-2,0.6-2,1.4C638.7,363.6,639.5,364.2,640.7,364.2z"/>
			<path class="st3" d="M646.4,357.2h1.2v1.3c0.6-0.9,1.4-1.4,2.5-1.4c1.7,0,2.8,1.2,2.8,2.9v5.1h-1.2v-4.7c0-1.4-0.8-2.2-2.1-2.2
				c-0.9,0-1.6,0.4-2,1.2v5.8h-1.2V357.2z"/>
			<path class="st3" d="M658.8,363.2c0.9,0.7,1.7,1,2.5,1c1.1,0,2-0.6,2-1.4c0-0.6-0.4-1-1.4-1.2l-1.3-0.2c-1.5-0.3-2.2-0.9-2.2-2
				c0-1.3,1.2-2.3,2.8-2.3c1.1,0,2,0.3,3,1l-0.6,0.8c-0.8-0.6-1.6-0.8-2.4-0.8c-1,0-1.7,0.5-1.7,1.2c0,0.6,0.3,0.9,1.3,1.1l1.3,0.2
				c1.6,0.3,2.3,0.9,2.3,2.1c0,1.4-1.3,2.4-3,2.4c-1.3,0-2.4-0.4-3.2-1.2L658.8,363.2z"/>
			<path class="st3" d="M672,363.2l0.7,0.7c-0.8,0.8-1.8,1.3-3,1.3c-2.2,0-3.9-1.8-3.9-4c0-2.3,1.7-4,3.9-4c1.2,0,2.2,0.4,3,1.2
				l-0.8,0.8c-0.6-0.6-1.4-1-2.2-1c-1.5,0-2.7,1.3-2.7,3c0,1.7,1.2,3,2.8,3C670.7,364.1,671.5,363.8,672,363.2z"/>
			<path class="st3" d="M674,362.8c0-1.4,1.2-2.3,2.9-2.3c0.9,0,1.7,0.2,2.4,0.6V360c0-1.3-0.7-1.9-2-1.9c-0.7,0-1.5,0.2-2.4,0.7
				l-0.4-0.9c1.1-0.5,2-0.8,2.9-0.8c1.9,0,3,1,3,2.8v5.2h-1.2v-0.9c-0.7,0.7-1.5,1.1-2.5,1.1C675.2,365.1,674,364.2,674,362.8z
				 M677.1,364.2c0.9,0,1.6-0.3,2.2-0.9v-1.5c-0.7-0.4-1.3-0.6-2.2-0.6c-1.2,0-2,0.6-2,1.4C675.1,363.6,675.9,364.2,677.1,364.2z"/>
			<path class="st3" d="M684,365h-1.2v-11.4l1.2-0.2V365z"/>
			<path class="st3" d="M689.9,365.1c-2.2,0-3.9-1.8-3.9-4s1.6-4,3.7-4c2,0,3.6,1.7,3.6,3.9v0.4h-6.1c0.1,1.6,1.3,2.8,2.8,2.8
				c0.8,0,1.6-0.3,2.1-0.8l0.7,0.8C692,364.8,691,365.1,689.9,365.1z M687.2,360.5h4.9c-0.2-1.4-1.2-2.4-2.4-2.4
				C688.4,358.1,687.4,359.1,687.2,360.5z"/>
			<path class="st3" d="M702.6,365.1c-2.2,0-3.9-1.8-3.9-4s1.6-4,3.7-4c2,0,3.6,1.7,3.6,3.9v0.4h-6.1c0.1,1.6,1.3,2.8,2.8,2.8
				c0.8,0,1.6-0.3,2.1-0.8l0.7,0.8C704.6,364.8,703.7,365.1,702.6,365.1z M699.9,360.5h4.9c-0.2-1.4-1.2-2.4-2.4-2.4
				C701.1,358.1,700.1,359.1,699.9,360.5z"/>
			<path class="st3" d="M709.5,361l-2.8-3.8h1.4l2.2,3l2.1-3h1.3l-2.8,3.8l3,4h-1.4l-2.3-3.2l-2.3,3.2h-1.3L709.5,361z"/>
			<path class="st3" d="M715,354.4c0-0.4,0.4-0.8,0.8-0.8c0.4,0,0.8,0.4,0.8,0.8c0,0.5-0.4,0.8-0.8,0.8
				C715.4,355.3,715,354.9,715,354.4z M716.4,365h-1.2v-7.8h1.2V365z"/>
			<path class="st3" d="M718.7,363.2c0.9,0.7,1.7,1,2.5,1c1.1,0,2-0.6,2-1.4c0-0.6-0.4-1-1.4-1.2l-1.3-0.2c-1.5-0.3-2.2-0.9-2.2-2
				c0-1.3,1.2-2.3,2.8-2.3c1.1,0,2,0.3,3,1l-0.6,0.8c-0.8-0.6-1.6-0.8-2.4-0.8c-1,0-1.7,0.5-1.7,1.2c0,0.6,0.3,0.9,1.3,1.1l1.3,0.2
				c1.6,0.3,2.3,0.9,2.3,2.1c0,1.4-1.3,2.4-3,2.4c-1.3,0-2.4-0.4-3.2-1.2L718.7,363.2z"/>
			<path class="st3" d="M726.8,358.1h-1.6v-1h1.6V355l1.2-0.3v2.4h2.2v1H728v4.8c0,0.8,0.3,1.2,1.1,1.2c0.4,0,0.7,0,1.1-0.2v1
				c-0.4,0.1-0.9,0.2-1.4,0.2c-1.3,0-2-0.7-2-1.9V358.1z"/>
			<path class="st3" d="M731.7,354.4c0-0.4,0.4-0.8,0.8-0.8c0.4,0,0.8,0.4,0.8,0.8c0,0.5-0.4,0.8-0.8,0.8
				C732.1,355.3,731.7,354.9,731.7,354.4z M733.1,365h-1.2v-7.8h1.2V365z"/>
			<path class="st3" d="M735.5,357.2h1.2v1.3c0.6-0.9,1.4-1.4,2.5-1.4c1.7,0,2.8,1.2,2.8,2.9v5.1h-1.2v-4.7c0-1.4-0.8-2.2-2.1-2.2
				c-0.9,0-1.6,0.4-2,1.2v5.8h-1.2V357.2z"/>
			<path class="st3" d="M744,361.1c0-2.2,1.6-4,3.7-4c1,0,1.8,0.4,2.4,1.1v-1h1.2v8.2c0,1.9-1.2,3-3.3,3c-1.1,0-2.1-0.3-3-0.8
				l0.5-0.9c1,0.5,1.7,0.7,2.5,0.7c1.4,0,2.2-0.7,2.2-2v-1.5c-0.6,0.8-1.5,1.2-2.5,1.2C745.6,365.1,744,363.3,744,361.1z
				 M747.9,364.1c0.9,0,1.7-0.4,2.2-1.1v-3.9c-0.5-0.7-1.3-1.1-2.2-1.1c-1.6,0-2.7,1.3-2.7,3C745.1,362.8,746.3,364.1,747.9,364.1z"
				/>
			<path class="st3" d="M757,362.8c0-1.4,1.2-2.3,2.9-2.3c0.9,0,1.7,0.2,2.4,0.6V360c0-1.3-0.7-1.9-2-1.9c-0.7,0-1.5,0.2-2.4,0.7
				l-0.4-0.9c1.1-0.5,2-0.8,2.9-0.8c1.9,0,3,1,3,2.8v5.2h-1.2v-0.9c-0.7,0.7-1.5,1.1-2.5,1.1C758.1,365.1,757,364.2,757,362.8z
				 M760,364.2c0.9,0,1.6-0.3,2.2-0.9v-1.5c-0.7-0.4-1.3-0.6-2.2-0.6c-1.2,0-2,0.6-2,1.4C758.1,363.6,758.9,364.2,760,364.2z"/>
			<path class="st3" d="M765.8,357.2h1.2v1.1c0.6-0.8,1.5-1.2,2.5-1.2c2,0,3.6,1.8,3.6,4c0,2.3-1.6,4-3.7,4c-1,0-1.8-0.4-2.4-1.1
				v4.3h-1.2V357.2z M767,359.2v3.8c0.5,0.7,1.3,1.1,2.2,1.1c1.6,0,2.7-1.3,2.7-3s-1.2-3-2.7-3C768.3,358.1,767.5,358.5,767,359.2z"
				/>
			<path class="st3" d="M775.1,357.2h1.2v1.1c0.6-0.8,1.5-1.2,2.5-1.2c2,0,3.6,1.8,3.6,4c0,2.3-1.6,4-3.7,4c-1,0-1.8-0.4-2.4-1.1
				v4.3h-1.2V357.2z M776.3,359.2v3.8c0.5,0.7,1.3,1.1,2.2,1.1c1.6,0,2.7-1.3,2.7-3s-1.2-3-2.7-3
				C777.6,358.1,776.8,358.5,776.3,359.2z"/>
			<path class="st3" d="M784.3,363.2c0.9,0.7,1.7,1,2.5,1c1.1,0,2-0.6,2-1.4c0-0.6-0.4-1-1.4-1.2l-1.3-0.2c-1.5-0.3-2.2-0.9-2.2-2
				c0-1.3,1.2-2.3,2.8-2.3c1.1,0,2,0.3,3,1l-0.6,0.8c-0.8-0.6-1.6-0.8-2.4-0.8c-1,0-1.7,0.5-1.7,1.2c0,0.6,0.3,0.9,1.3,1.1l1.3,0.2
				c1.6,0.3,2.3,0.9,2.3,2.1c0,1.4-1.3,2.4-3,2.4c-1.3,0-2.4-0.4-3.2-1.2L784.3,363.2z"/>
			<path class="st3" d="M800.6,360v1h-9.1v-1H800.6z"/>
			<path class="st3" d="M802.4,362.8c0-1.4,1.2-2.3,2.9-2.3c0.9,0,1.7,0.2,2.4,0.6V360c0-1.3-0.7-1.9-2-1.9c-0.7,0-1.5,0.2-2.4,0.7
				l-0.4-0.9c1.1-0.5,2-0.8,2.9-0.8c1.9,0,3,1,3,2.8v5.2h-1.2v-0.9c-0.7,0.7-1.5,1.1-2.5,1.1C803.5,365.1,802.4,364.2,802.4,362.8z
				 M805.4,364.2c0.9,0,1.6-0.3,2.2-0.9v-1.5c-0.7-0.4-1.3-0.6-2.2-0.6c-1.2,0-2,0.6-2,1.4C803.5,363.6,804.3,364.2,805.4,364.2z"/>
			<path class="st3" d="M811.2,357.2h1.2v1.3c0.6-0.9,1.4-1.4,2.5-1.4c1.7,0,2.8,1.2,2.8,2.9v5.1h-1.2v-4.7c0-1.4-0.8-2.2-2.1-2.2
				c-0.9,0-1.6,0.4-2,1.2v5.8h-1.2V357.2z"/>
			<path class="st3" d="M825.8,364c-0.6,0.8-1.5,1.2-2.5,1.2c-2,0-3.6-1.8-3.6-4c0-2.3,1.6-4,3.7-4c1,0,1.8,0.4,2.4,1.1v-4.6
				l1.2-0.2V365h-1.2V364z M823.6,364.1c0.9,0,1.7-0.4,2.2-1v-3.9c-0.5-0.7-1.3-1.1-2.2-1.1c-1.6,0-2.7,1.3-2.7,3
				C820.8,362.8,822,364.1,823.6,364.1z"/>
			<path class="st3" d="M833.1,357.2h1.2v1.6c0.4-1.1,1.2-1.7,2.2-1.7c0.3,0,0.5,0,0.7,0.1v1.1c-0.3-0.1-0.6-0.1-0.8-0.1
				c-1,0-1.7,0.6-2.1,1.6v5.3h-1.2V357.2z"/>
			<path class="st3" d="M841.6,357.1c2.2,0,3.8,1.7,3.8,4c0,2.3-1.6,4.1-3.8,4.1c-2.1,0-3.8-1.8-3.8-4.1
				C837.8,358.8,839.5,357.1,841.6,357.1z M844.3,361.1c0-1.7-1.1-3-2.7-3s-2.6,1.3-2.6,3c0,1.7,1.1,3,2.6,3
				S844.3,362.8,844.3,361.1z"/>
			<path class="st3" d="M848.7,365h-1.2v-11.4l1.2-0.2V365z"/>
			<path class="st3" d="M852.2,365h-1.2v-11.4l1.2-0.2V365z"/>
			<path class="st3" d="M861.8,357.1c2.2,0,3.8,1.7,3.8,4c0,2.3-1.6,4.1-3.8,4.1c-2.1,0-3.8-1.8-3.8-4.1
				C858,358.8,859.6,357.1,861.8,357.1z M864.5,361.1c0-1.7-1.1-3-2.7-3s-2.6,1.3-2.6,3c0,1.7,1.1,3,2.6,3S864.5,362.8,864.5,361.1z
				"/>
			<path class="st3" d="M868.8,361.9c0,1.4,0.8,2.3,2.1,2.3c0.9,0,1.6-0.4,2-1.2v-5.8h1.2v7.8h-1.2v-1.3c-0.6,0.9-1.4,1.4-2.5,1.4
				c-1.7,0-2.8-1.2-2.8-2.9v-5h1.2V361.9z"/>
			<path class="st3" d="M877.4,358.1h-1.6v-1h1.6V355l1.2-0.3v2.4h2.2v1h-2.2v4.8c0,0.8,0.3,1.2,1.1,1.2c0.4,0,0.7,0,1.1-0.2v1
				c-0.4,0.1-0.9,0.2-1.4,0.2c-1.3,0-2-0.7-2-1.9V358.1z"/>
			<path class="st3" d="M889.8,365.1c-2.2,0-3.9-1.8-3.9-4s1.6-4,3.7-4c2,0,3.6,1.7,3.6,3.9v0.4H887c0.1,1.6,1.3,2.8,2.8,2.8
				c0.8,0,1.6-0.3,2.1-0.8l0.7,0.8C891.8,364.8,890.9,365.1,889.8,365.1z M887.1,360.5h4.9c-0.2-1.4-1.2-2.4-2.4-2.4
				C888.3,358.1,887.3,359.1,887.1,360.5z"/>
			<path class="st3" d="M895.2,357.2h1.2v1.2c0.6-0.9,1.4-1.3,2.3-1.3c1.1,0,2,0.6,2.4,1.5c0.6-1,1.5-1.5,2.6-1.5
				c1.6,0,2.7,1.2,2.7,2.9v5h-1.2v-4.8c0-1.4-0.7-2.2-1.9-2.2c-0.8,0-1.5,0.4-2,1.2c0,0.2,0.1,0.4,0.1,0.7v5h-1.2v-4.8
				c0-1.4-0.8-2.2-1.9-2.2c-0.8,0-1.4,0.4-1.9,1.2v5.8h-1.2V357.2z"/>
			<path class="st3" d="M912.2,365.1c-2.2,0-3.9-1.8-3.9-4s1.6-4,3.7-4c2,0,3.6,1.7,3.6,3.9v0.4h-6.1c0.1,1.6,1.3,2.8,2.8,2.8
				c0.8,0,1.6-0.3,2.1-0.8l0.7,0.8C914.2,364.8,913.3,365.1,912.2,365.1z M909.5,360.5h4.9c-0.2-1.4-1.2-2.4-2.4-2.4
				C910.7,358.1,909.7,359.1,909.5,360.5z"/>
			<path class="st3" d="M917.6,357.2h1.2v1.6c0.4-1.1,1.2-1.7,2.2-1.7c0.3,0,0.5,0,0.7,0.1v1.1c-0.3-0.1-0.6-0.1-0.8-0.1
				c-1,0-1.7,0.6-2.1,1.6v5.3h-1.2V357.2z"/>
			<path class="st3" d="M922.4,361.1c0-2.2,1.6-4,3.7-4c1,0,1.8,0.4,2.4,1.1v-1h1.2v8.2c0,1.9-1.2,3-3.3,3c-1.1,0-2.1-0.3-3-0.8
				l0.5-0.9c1,0.5,1.7,0.7,2.5,0.7c1.4,0,2.2-0.7,2.2-2v-1.5c-0.6,0.8-1.5,1.2-2.5,1.2C924,365.1,922.4,363.3,922.4,361.1z
				 M926.3,364.1c0.9,0,1.7-0.4,2.2-1.1v-3.9c-0.5-0.7-1.3-1.1-2.2-1.1c-1.6,0-2.7,1.3-2.7,3C923.5,362.8,924.7,364.1,926.3,364.1z"
				/>
			<path class="st3" d="M931.8,354.4c0-0.4,0.4-0.8,0.8-0.8c0.4,0,0.8,0.4,0.8,0.8c0,0.5-0.4,0.8-0.8,0.8
				C932.2,355.3,931.8,354.9,931.8,354.4z M933.2,365h-1.2v-7.8h1.2V365z"/>
			<path class="st3" d="M935.6,357.2h1.2v1.3c0.6-0.9,1.4-1.4,2.5-1.4c1.7,0,2.8,1.2,2.8,2.9v5.1h-1.2v-4.7c0-1.4-0.8-2.2-2.1-2.2
				c-0.9,0-1.6,0.4-2,1.2v5.8h-1.2V357.2z"/>
			<path class="st3" d="M944.1,361.1c0-2.2,1.6-4,3.7-4c1,0,1.8,0.4,2.4,1.1v-1h1.2v8.2c0,1.9-1.2,3-3.3,3c-1.1,0-2.1-0.3-3-0.8
				l0.5-0.9c1,0.5,1.7,0.7,2.5,0.7c1.4,0,2.2-0.7,2.2-2v-1.5c-0.6,0.8-1.5,1.2-2.5,1.2C945.7,365.1,944.1,363.3,944.1,361.1z
				 M948,364.1c0.9,0,1.7-0.4,2.2-1.1v-3.9c-0.5-0.7-1.3-1.1-2.2-1.1c-1.6,0-2.7,1.3-2.7,3C945.3,362.8,946.4,364.1,948,364.1z"/>
			<path class="st3" d="M958.4,358.1h-1.6v-1h1.6V355l1.2-0.3v2.4h2.2v1h-2.2v4.8c0,0.8,0.3,1.2,1.1,1.2c0.4,0,0.7,0,1.1-0.2v1
				c-0.4,0.1-0.9,0.2-1.4,0.2c-1.3,0-2-0.7-2-1.9V358.1z"/>
			<path class="st3" d="M966.9,365.1c-2.2,0-3.9-1.8-3.9-4s1.6-4,3.7-4c2,0,3.6,1.7,3.6,3.9v0.4h-6.1c0.1,1.6,1.3,2.8,2.8,2.8
				c0.8,0,1.6-0.3,2.1-0.8l0.7,0.8C968.9,364.8,968,365.1,966.9,365.1z M964.2,360.5h4.9c-0.2-1.4-1.2-2.4-2.4-2.4
				C965.4,358.1,964.4,359.1,964.2,360.5z"/>
			<path class="st3" d="M978,363.2l0.7,0.7c-0.8,0.8-1.8,1.3-3,1.3c-2.2,0-3.9-1.8-3.9-4c0-2.3,1.7-4,3.9-4c1.2,0,2.2,0.4,3,1.2
				l-0.8,0.8c-0.6-0.6-1.4-1-2.2-1c-1.5,0-2.7,1.3-2.7,3c0,1.7,1.2,3,2.8,3C976.7,364.1,977.5,363.8,978,363.2z"/>
			<path class="st3" d="M980.4,353.6l1.2-0.2v5.1c0.6-0.9,1.4-1.4,2.5-1.4c1.7,0,2.8,1.2,2.8,2.9v5.1h-1.2v-4.7
				c0-1.4-0.8-2.2-2.1-2.2c-0.9,0-1.6,0.4-2,1.2v5.8h-1.2V353.6z"/>
			<path class="st3" d="M989.3,357.2h1.2v1.3c0.6-0.9,1.4-1.4,2.5-1.4c1.7,0,2.8,1.2,2.8,2.9v5.1h-1.2v-4.7c0-1.4-0.8-2.2-2.1-2.2
				c-0.9,0-1.6,0.4-2,1.2v5.8h-1.2V357.2z"/>
			<path class="st3" d="M1001.5,357.1c2.2,0,3.8,1.7,3.8,4c0,2.3-1.6,4.1-3.8,4.1c-2.1,0-3.8-1.8-3.8-4.1
				C997.7,358.8,999.4,357.1,1001.5,357.1z M1004.2,361.1c0-1.7-1.1-3-2.7-3s-2.6,1.3-2.6,3c0,1.7,1.1,3,2.6,3
				S1004.2,362.8,1004.2,361.1z"/>
			<path class="st3" d="M1008.5,365h-1.2v-11.4l1.2-0.2V365z"/>
			<path class="st3" d="M1014.4,357.1c2.2,0,3.8,1.7,3.8,4c0,2.3-1.6,4.1-3.8,4.1c-2.1,0-3.8-1.8-3.8-4.1
				C1010.6,358.8,1012.2,357.1,1014.4,357.1z M1017,361.1c0-1.7-1.1-3-2.7-3s-2.6,1.3-2.6,3c0,1.7,1.1,3,2.6,3
				S1017,362.8,1017,361.1z"/>
			<path class="st3" d="M1019.9,361.1c0-2.2,1.6-4,3.7-4c1,0,1.8,0.4,2.4,1.1v-1h1.2v8.2c0,1.9-1.2,3-3.3,3c-1.1,0-2.1-0.3-3-0.8
				l0.5-0.9c1,0.5,1.7,0.7,2.5,0.7c1.4,0,2.2-0.7,2.2-2v-1.5c-0.6,0.8-1.5,1.2-2.5,1.2C1021.5,365.1,1019.9,363.3,1019.9,361.1z
				 M1023.8,364.1c0.9,0,1.7-0.4,2.2-1.1v-3.9c-0.5-0.7-1.3-1.1-2.2-1.1c-1.6,0-2.7,1.3-2.7,3
				C1021.1,362.8,1022.2,364.1,1023.8,364.1z"/>
			<path class="st3" d="M1029.3,354.4c0-0.4,0.4-0.8,0.8-0.8c0.4,0,0.8,0.4,0.8,0.8c0,0.5-0.4,0.8-0.8,0.8
				C1029.7,355.3,1029.3,354.9,1029.3,354.4z M1030.7,365h-1.2v-7.8h1.2V365z"/>
			<path class="st3" d="M1036.7,365.1c-2.2,0-3.9-1.8-3.9-4s1.6-4,3.7-4c2,0,3.6,1.7,3.6,3.9v0.4h-6.1c0.1,1.6,1.3,2.8,2.8,2.8
				c0.8,0,1.6-0.3,2.1-0.8l0.7,0.8C1038.7,364.8,1037.7,365.1,1036.7,365.1z M1034,360.5h4.9c-0.2-1.4-1.2-2.4-2.4-2.4
				C1035.2,358.1,1034.2,359.1,1034,360.5z"/>
			<path class="st3" d="M1042,363.2c0.9,0.7,1.7,1,2.5,1c1.1,0,2-0.6,2-1.4c0-0.6-0.4-1-1.4-1.2l-1.3-0.2c-1.5-0.3-2.2-0.9-2.2-2
				c0-1.3,1.2-2.3,2.8-2.3c1.1,0,2,0.3,3,1l-0.6,0.8c-0.8-0.6-1.6-0.8-2.4-0.8c-1,0-1.7,0.5-1.7,1.2c0,0.6,0.3,0.9,1.3,1.1l1.3,0.2
				c1.6,0.3,2.3,0.9,2.3,2.1c0,1.4-1.3,2.4-3,2.4c-1.3,0-2.4-0.4-3.2-1.2L1042,363.2z"/>
			<path class="st3" d="M1058.3,360v1h-9.1v-1H1058.3z"/>
			<path class="st3" d="M1060,362.8c0-1.4,1.2-2.3,2.9-2.3c0.9,0,1.7,0.2,2.4,0.6V360c0-1.3-0.7-1.9-2-1.9c-0.7,0-1.5,0.2-2.4,0.7
				l-0.4-0.9c1.1-0.5,2-0.8,2.9-0.8c1.9,0,3,1,3,2.8v5.2h-1.2v-0.9c-0.7,0.7-1.5,1.1-2.5,1.1C1061.2,365.1,1060,364.2,1060,362.8z
				 M1063.1,364.2c0.9,0,1.6-0.3,2.2-0.9v-1.5c-0.7-0.4-1.3-0.6-2.2-0.6c-1.2,0-2,0.6-2,1.4C1061.2,363.6,1061.9,364.2,1063.1,364.2
				z"/>
			<path class="st3" d="M1074.6,363.2l0.7,0.7c-0.8,0.8-1.8,1.3-3,1.3c-2.2,0-3.9-1.8-3.9-4c0-2.3,1.7-4,3.9-4c1.2,0,2.2,0.4,3,1.2
				l-0.8,0.8c-0.6-0.6-1.4-1-2.2-1c-1.5,0-2.7,1.3-2.7,3c0,1.7,1.2,3,2.8,3C1073.3,364.1,1074.1,363.8,1074.6,363.2z"/>
			<path class="st3" d="M1077,357.2h1.2v1.6c0.4-1.1,1.2-1.7,2.2-1.7c0.3,0,0.5,0,0.7,0.1v1.1c-0.3-0.1-0.6-0.1-0.8-0.1
				c-1,0-1.7,0.6-2.1,1.6v5.3h-1.2V357.2z"/>
			<path class="st3" d="M1085.6,357.1c2.2,0,3.8,1.7,3.8,4c0,2.3-1.6,4.1-3.8,4.1c-2.1,0-3.8-1.8-3.8-4.1
				C1081.8,358.8,1083.4,357.1,1085.6,357.1z M1088.2,361.1c0-1.7-1.1-3-2.7-3s-2.6,1.3-2.6,3c0,1.7,1.1,3,2.6,3
				S1088.2,362.8,1088.2,361.1z"/>
			<path class="st3" d="M1091.3,363.2c0.9,0.7,1.7,1,2.5,1c1.1,0,2-0.6,2-1.4c0-0.6-0.4-1-1.4-1.2l-1.3-0.2c-1.5-0.3-2.2-0.9-2.2-2
				c0-1.3,1.2-2.3,2.8-2.3c1.1,0,2,0.3,3,1l-0.6,0.8c-0.8-0.6-1.6-0.8-2.4-0.8c-1,0-1.7,0.5-1.7,1.2c0,0.6,0.3,0.9,1.3,1.1l1.3,0.2
				c1.6,0.3,2.3,0.9,2.3,2.1c0,1.4-1.3,2.4-3,2.4c-1.3,0-2.4-0.4-3.2-1.2L1091.3,363.2z"/>
			<path class="st3" d="M1098.7,363.2c0.9,0.7,1.7,1,2.5,1c1.1,0,2-0.6,2-1.4c0-0.6-0.4-1-1.4-1.2l-1.3-0.2c-1.5-0.3-2.2-0.9-2.2-2
				c0-1.3,1.2-2.3,2.8-2.3c1.1,0,2,0.3,3,1l-0.6,0.8c-0.8-0.6-1.6-0.8-2.4-0.8c-1,0-1.7,0.5-1.7,1.2c0,0.6,0.3,0.9,1.3,1.1l1.3,0.2
				c1.6,0.3,2.3,0.9,2.3,2.1c0,1.4-1.3,2.4-3,2.4c-1.3,0-2.4-0.4-3.2-1.2L1098.7,363.2z"/>
			<path class="st3" d="M1113.4,365.1c-1,0-1.8-0.4-2.5-1.1v1h-1.2v-11.4l1.2-0.2v4.9c0.6-0.7,1.5-1.2,2.5-1.2c2,0,3.6,1.8,3.6,4
				C1117,363.4,1115.4,365.1,1113.4,365.1z M1110.9,359.2v3.8c0.5,0.7,1.3,1.1,2.2,1.1c1.6,0,2.7-1.3,2.7-3s-1.2-3-2.7-3
				C1112.2,358.1,1111.4,358.5,1110.9,359.2z"/>
			<path class="st3" d="M1118.8,362.8c0-1.4,1.2-2.3,2.9-2.3c0.9,0,1.7,0.2,2.4,0.6V360c0-1.3-0.7-1.9-2-1.9c-0.7,0-1.5,0.2-2.4,0.7
				l-0.4-0.9c1.1-0.5,2-0.8,2.9-0.8c1.9,0,3,1,3,2.8v5.2h-1.2v-0.9c-0.7,0.7-1.5,1.1-2.5,1.1
				C1119.9,365.1,1118.8,364.2,1118.8,362.8z M1121.8,364.2c0.9,0,1.6-0.3,2.2-0.9v-1.5c-0.7-0.4-1.3-0.6-2.2-0.6
				c-1.2,0-2,0.6-2,1.4C1119.9,363.6,1120.7,364.2,1121.8,364.2z"/>
			<path class="st3" d="M1127.6,357.2h1.2v1.6c0.4-1.1,1.2-1.7,2.2-1.7c0.3,0,0.5,0,0.7,0.1v1.1c-0.3-0.1-0.6-0.1-0.8-0.1
				c-1,0-1.7,0.6-2.1,1.6v5.3h-1.2V357.2z"/>
			<path class="st3" d="M1136.2,365.1c-2.2,0-3.9-1.8-3.9-4s1.6-4,3.7-4c2,0,3.6,1.7,3.6,3.9v0.4h-6.1c0.1,1.6,1.3,2.8,2.8,2.8
				c0.8,0,1.6-0.3,2.1-0.8l0.7,0.8C1138.3,364.8,1137.3,365.1,1136.2,365.1z M1133.5,360.5h4.9c-0.2-1.4-1.2-2.4-2.4-2.4
				C1134.7,358.1,1133.7,359.1,1133.5,360.5z"/>
			<path class="st3" d="M1146.8,360v1h-5.3v-1H1146.8z"/>
			<path class="st3" d="M1148.9,357.2h1.2v1.2c0.6-0.9,1.4-1.3,2.3-1.3c1.1,0,2,0.6,2.4,1.5c0.6-1,1.5-1.5,2.6-1.5
				c1.6,0,2.7,1.2,2.7,2.9v5h-1.2v-4.8c0-1.4-0.7-2.2-1.9-2.2c-0.8,0-1.5,0.4-2,1.2c0,0.2,0.1,0.4,0.1,0.7v5h-1.2v-4.8
				c0-1.4-0.8-2.2-1.9-2.2c-0.8,0-1.4,0.4-1.9,1.2v5.8h-1.2V357.2z"/>
			<path class="st3" d="M1166,365.1c-2.2,0-3.9-1.8-3.9-4s1.6-4,3.7-4c2,0,3.6,1.7,3.6,3.9v0.4h-6.1c0.1,1.6,1.3,2.8,2.8,2.8
				c0.8,0,1.6-0.3,2.1-0.8l0.7,0.8C1168,364.8,1167.1,365.1,1166,365.1z M1163.3,360.5h4.9c-0.2-1.4-1.2-2.4-2.4-2.4
				C1164.5,358.1,1163.5,359.1,1163.3,360.5z"/>
			<path class="st3" d="M1172.1,358.1h-1.6v-1h1.6V355l1.2-0.3v2.4h2.2v1h-2.2v4.8c0,0.8,0.3,1.2,1.1,1.2c0.4,0,0.7,0,1.1-0.2v1
				c-0.4,0.1-0.9,0.2-1.4,0.2c-1.3,0-2-0.7-2-1.9V358.1z"/>
			<path class="st3" d="M1176.8,362.8c0-1.4,1.2-2.3,2.9-2.3c0.9,0,1.7,0.2,2.4,0.6V360c0-1.3-0.7-1.9-2-1.9c-0.7,0-1.5,0.2-2.4,0.7
				l-0.4-0.9c1.1-0.5,2-0.8,2.9-0.8c1.9,0,3,1,3,2.8v5.2h-1.2v-0.9c-0.7,0.7-1.5,1.1-2.5,1.1
				C1177.9,365.1,1176.8,364.2,1176.8,362.8z M1179.8,364.2c0.9,0,1.6-0.3,2.2-0.9v-1.5c-0.7-0.4-1.3-0.6-2.2-0.6
				c-1.2,0-2,0.6-2,1.4C1177.9,363.6,1178.7,364.2,1179.8,364.2z"/>
			<path class="st3" d="M1186.8,365h-1.2v-11.4l1.2-0.2V365z"/>
			<path class="st3" d="M1190.6,363.8l-1.3,3.7h-0.9l1-3.7H1190.6z"/>
		</g>
		<g class="st2">
			<path class="st3" d="M384.2,381.2h1.3l2.5,6.4l2.5-6.4h1.2l-3.2,7.8h-1.1L384.2,381.2z"/>
			<path class="st3" d="M393,378.4c0-0.4,0.4-0.8,0.8-0.8c0.4,0,0.8,0.4,0.8,0.8c0,0.5-0.4,0.8-0.8,0.8
				C393.3,379.3,393,378.9,393,378.4z M394.4,389h-1.2v-7.8h1.2V389z"/>
			<path class="st3" d="M396.8,381.2h1.2v1.6c0.4-1.1,1.2-1.7,2.2-1.7c0.3,0,0.5,0,0.7,0.1v1.1c-0.3-0.1-0.6-0.1-0.8-0.1
				c-1,0-1.7,0.6-2.1,1.6v5.3h-1.2V381.2z"/>
			<path class="st3" d="M403.4,382.1h-1.6v-1h1.6V379l1.2-0.3v2.4h2.2v1h-2.2v4.8c0,0.8,0.3,1.2,1.1,1.2c0.4,0,0.7,0,1.1-0.2v1
				c-0.4,0.1-0.9,0.2-1.4,0.2c-1.3,0-2-0.7-2-1.9V382.1z"/>
			<path class="st3" d="M409.6,385.9c0,1.4,0.8,2.3,2.1,2.3c0.9,0,1.6-0.4,2-1.2v-5.8h1.2v7.8h-1.2v-1.3c-0.6,0.9-1.4,1.4-2.5,1.4
				c-1.7,0-2.8-1.2-2.8-2.9v-5h1.2V385.9z"/>
			<path class="st3" d="M416.9,386.8c0-1.4,1.2-2.3,2.9-2.3c0.9,0,1.7,0.2,2.4,0.6V384c0-1.3-0.7-1.9-2-1.9c-0.7,0-1.5,0.2-2.4,0.7
				l-0.4-0.9c1.1-0.5,2-0.8,2.9-0.8c1.9,0,3,1,3,2.8v5.2h-1.2v-0.9c-0.7,0.7-1.5,1.1-2.5,1.1C418.1,389.1,416.9,388.2,416.9,386.8z
				 M420,388.2c0.9,0,1.6-0.3,2.2-0.9v-1.5c-0.7-0.4-1.3-0.6-2.2-0.6c-1.2,0-2,0.6-2,1.4C418,387.6,418.8,388.2,420,388.2z"/>
			<path class="st3" d="M426.9,389h-1.2v-11.4l1.2-0.2V389z"/>
			<path class="st3" d="M430.8,387.8l-1.3,3.7h-0.9l1-3.7H430.8z"/>
			<path class="st3" d="M442.3,387.2l0.7,0.7c-0.8,0.8-1.8,1.3-3,1.3c-2.2,0-3.9-1.8-3.9-4c0-2.3,1.7-4,3.9-4c1.2,0,2.2,0.4,3,1.2
				l-0.8,0.8c-0.6-0.6-1.4-1-2.2-1c-1.5,0-2.7,1.3-2.7,3c0,1.7,1.2,3,2.8,3C441,388.1,441.8,387.8,442.3,387.2z"/>
			<path class="st3" d="M447.9,381.1c2.2,0,3.8,1.7,3.8,4c0,2.3-1.6,4.1-3.8,4.1c-2.1,0-3.8-1.8-3.8-4.1
				C444.1,382.8,445.7,381.1,447.9,381.1z M450.6,385.1c0-1.7-1.1-3-2.7-3s-2.6,1.3-2.6,3c0,1.7,1.1,3,2.6,3
				S450.6,386.8,450.6,385.1z"/>
			<path class="st3" d="M453.8,381.2h1.2v1.3c0.6-0.9,1.4-1.4,2.5-1.4c1.7,0,2.8,1.2,2.8,2.9v5.1h-1.2v-4.7c0-1.4-0.8-2.2-2.1-2.2
				c-0.9,0-1.6,0.4-2,1.2v5.8h-1.2V381.2z"/>
			<path class="st3" d="M463.3,382.1h-1.6v-1h1.6V379l1.2-0.3v2.4h2.2v1h-2.2v4.8c0,0.8,0.3,1.2,1.1,1.2c0.4,0,0.7,0,1.1-0.2v1
				c-0.4,0.1-0.9,0.2-1.4,0.2c-1.3,0-2-0.7-2-1.9V382.1z"/>
			<path class="st3" d="M468,386.8c0-1.4,1.2-2.3,2.9-2.3c0.9,0,1.7,0.2,2.4,0.6V384c0-1.3-0.7-1.9-2-1.9c-0.7,0-1.5,0.2-2.4,0.7
				l-0.4-0.9c1.1-0.5,2-0.8,2.9-0.8c1.9,0,3,1,3,2.8v5.2h-1.2v-0.9c-0.7,0.7-1.5,1.1-2.5,1.1C469.2,389.1,468,388.2,468,386.8z
				 M471.1,388.2c0.9,0,1.6-0.3,2.2-0.9v-1.5c-0.7-0.4-1.3-0.6-2.2-0.6c-1.2,0-2,0.6-2,1.4C469.1,387.6,469.9,388.2,471.1,388.2z"/>
			<path class="st3" d="M476.6,378.4c0-0.4,0.4-0.8,0.8-0.8c0.4,0,0.8,0.4,0.8,0.8c0,0.5-0.4,0.8-0.8,0.8
				C476.9,379.3,476.6,378.9,476.6,378.4z M478,389h-1.2v-7.8h1.2V389z"/>
			<path class="st3" d="M480.4,381.2h1.2v1.3c0.6-0.9,1.4-1.4,2.5-1.4c1.7,0,2.8,1.2,2.8,2.9v5.1h-1.2v-4.7c0-1.4-0.8-2.2-2.1-2.2
				c-0.9,0-1.6,0.4-2,1.2v5.8h-1.2V381.2z"/>
			<path class="st3" d="M492.7,389.1c-2.2,0-3.9-1.8-3.9-4s1.6-4,3.7-4c2,0,3.6,1.7,3.6,3.9v0.4H490c0.1,1.6,1.3,2.8,2.8,2.8
				c0.8,0,1.6-0.3,2.1-0.8l0.7,0.8C494.8,388.8,493.8,389.1,492.7,389.1z M490,384.5h4.9c-0.2-1.4-1.2-2.4-2.4-2.4
				C491.2,382.1,490.2,383.1,490,384.5z"/>
			<path class="st3" d="M498.1,381.2h1.2v1.6c0.4-1.1,1.2-1.7,2.2-1.7c0.3,0,0.5,0,0.7,0.1v1.1c-0.3-0.1-0.6-0.1-0.8-0.1
				c-1,0-1.7,0.6-2.1,1.6v5.3h-1.2V381.2z"/>
			<path class="st3" d="M504,387.8l-1.3,3.7h-0.9l1-3.7H504z"/>
			<path class="st3" d="M509.4,386.8c0-1.4,1.2-2.3,2.9-2.3c0.9,0,1.7,0.2,2.4,0.6V384c0-1.3-0.7-1.9-2-1.9c-0.7,0-1.5,0.2-2.4,0.7
				l-0.4-0.9c1.1-0.5,2-0.8,2.9-0.8c1.9,0,3,1,3,2.8v5.2h-1.2v-0.9c-0.7,0.7-1.5,1.1-2.5,1.1C510.6,389.1,509.4,388.2,509.4,386.8z
				 M512.5,388.2c0.9,0,1.6-0.3,2.2-0.9v-1.5c-0.7-0.4-1.3-0.6-2.2-0.6c-1.2,0-2,0.6-2,1.4C510.5,387.6,511.3,388.2,512.5,388.2z"/>
			<path class="st3" d="M518.2,381.2h1.2v1.3c0.6-0.9,1.4-1.4,2.5-1.4c1.7,0,2.8,1.2,2.8,2.9v5.1h-1.2v-4.7c0-1.4-0.8-2.2-2.1-2.2
				c-0.9,0-1.6,0.4-2,1.2v5.8h-1.2V381.2z"/>
			<path class="st3" d="M532.8,388c-0.6,0.8-1.5,1.2-2.5,1.2c-2,0-3.6-1.8-3.6-4c0-2.3,1.6-4,3.7-4c1,0,1.8,0.4,2.4,1.1v-4.6
				l1.2-0.2V389h-1.2V388z M530.6,388.1c0.9,0,1.7-0.4,2.2-1v-3.9c-0.5-0.7-1.3-1.1-2.2-1.1c-1.6,0-2.7,1.3-2.7,3
				C527.9,386.8,529,388.1,530.6,388.1z"/>
			<path class="st3" d="M539.7,386.8c0-1.4,1.2-2.3,2.9-2.3c0.9,0,1.7,0.2,2.4,0.6V384c0-1.3-0.7-1.9-2-1.9c-0.7,0-1.5,0.2-2.4,0.7
				l-0.4-0.9c1.1-0.5,2-0.8,2.9-0.8c1.9,0,3,1,3,2.8v5.2H545v-0.9c-0.7,0.7-1.5,1.1-2.5,1.1C540.8,389.1,539.7,388.2,539.7,386.8z
				 M542.7,388.2c0.9,0,1.6-0.3,2.2-0.9v-1.5c-0.7-0.4-1.3-0.6-2.2-0.6c-1.2,0-2,0.6-2,1.4C540.8,387.6,541.6,388.2,542.7,388.2z"/>
			<path class="st3" d="M549.7,389h-1.2v-11.4l1.2-0.2V389z"/>
			<path class="st3" d="M553.2,389h-1.2v-11.4l1.2-0.2V389z"/>
			<path class="st3" d="M560.3,382.1h-1.6v-1h1.6V379l1.2-0.3v2.4h2.2v1h-2.2v4.8c0,0.8,0.3,1.2,1.1,1.2c0.4,0,0.7,0,1.1-0.2v1
				c-0.4,0.1-0.9,0.2-1.4,0.2c-1.3,0-2-0.7-2-1.9V382.1z"/>
			<path class="st3" d="M567.6,389l-3-7.8h1.3l2.4,6.4l2.5-6.4h1.3l-3.9,9.4c-0.5,1.3-1.1,1.7-2.2,1.7c-0.2,0-0.5,0-0.8-0.1v-1
				c0.3,0.1,0.5,0.1,0.6,0.1c0.6,0,1-0.3,1.2-1L567.6,389z"/>
			<path class="st3" d="M573.5,381.2h1.2v1.1c0.6-0.8,1.5-1.2,2.5-1.2c2,0,3.6,1.8,3.6,4c0,2.3-1.6,4-3.7,4c-1,0-1.8-0.4-2.4-1.1
				v4.3h-1.2V381.2z M574.7,383.2v3.8c0.5,0.7,1.3,1.1,2.2,1.1c1.6,0,2.7-1.3,2.7-3s-1.2-3-2.7-3C576,382.1,575.2,382.5,574.7,383.2
				z"/>
			<path class="st3" d="M586.4,389.1c-2.2,0-3.9-1.8-3.9-4s1.6-4,3.7-4c2,0,3.6,1.7,3.6,3.9v0.4h-6.1c0.1,1.6,1.3,2.8,2.8,2.8
				c0.8,0,1.6-0.3,2.1-0.8l0.7,0.8C588.4,388.8,587.5,389.1,586.4,389.1z M583.7,384.5h4.9c-0.2-1.4-1.2-2.4-2.4-2.4
				C584.9,382.1,583.9,383.1,583.7,384.5z"/>
			<path class="st3" d="M591.8,387.2c0.9,0.7,1.7,1,2.5,1c1.1,0,2-0.6,2-1.4c0-0.6-0.4-1-1.4-1.2l-1.3-0.2c-1.5-0.3-2.2-0.9-2.2-2
				c0-1.3,1.2-2.3,2.8-2.3c1.1,0,2,0.3,3,1l-0.6,0.8c-0.8-0.6-1.6-0.8-2.4-0.8c-1,0-1.7,0.5-1.7,1.2c0,0.6,0.3,0.9,1.3,1.1l1.3,0.2
				c1.6,0.3,2.3,0.9,2.3,2.1c0,1.4-1.3,2.4-3,2.4c-1.3,0-2.4-0.4-3.2-1.2L591.8,387.2z"/>
			<path class="st3" d="M606.3,381.1c2.2,0,3.8,1.7,3.8,4c0,2.3-1.6,4.1-3.8,4.1c-2.1,0-3.8-1.8-3.8-4.1
				C602.5,382.8,604.1,381.1,606.3,381.1z M608.9,385.1c0-1.7-1.1-3-2.7-3s-2.6,1.3-2.6,3c0,1.7,1.1,3,2.6,3
				S608.9,386.8,608.9,385.1z"/>
			<path class="st3" d="M612.6,381.2v-1.7c0-1.5,0.8-2.4,2.3-2.4c0.4,0,0.8,0,1.1,0.1v1.1c-0.4-0.1-0.6-0.1-0.9-0.1
				c-0.9,0-1.3,0.4-1.3,1.4v1.7h2.2v1h-2.2v6.9h-1.2v-6.9h-1.7v-1H612.6z"/>
			<path class="st3" d="M627,387.2l0.7,0.7c-0.8,0.8-1.8,1.3-3,1.3c-2.2,0-3.9-1.8-3.9-4c0-2.3,1.7-4,3.9-4c1.2,0,2.2,0.4,3,1.2
				l-0.8,0.8c-0.6-0.6-1.4-1-2.2-1c-1.5,0-2.7,1.3-2.7,3c0,1.7,1.2,3,2.8,3C625.7,388.1,626.5,387.8,627,387.2z"/>
			<path class="st3" d="M630.6,389h-1.2v-11.4l1.2-0.2V389z"/>
			<path class="st3" d="M636.4,381.1c2.2,0,3.8,1.7,3.8,4c0,2.3-1.6,4.1-3.8,4.1c-2.1,0-3.8-1.8-3.8-4.1
				C632.6,382.8,634.3,381.1,636.4,381.1z M639.1,385.1c0-1.7-1.1-3-2.7-3s-2.6,1.3-2.6,3c0,1.7,1.1,3,2.6,3
				S639.1,386.8,639.1,385.1z"/>
			<path class="st3" d="M643.4,385.9c0,1.4,0.8,2.3,2.1,2.3c0.9,0,1.6-0.4,2-1.2v-5.8h1.2v7.8h-1.2v-1.3c-0.6,0.9-1.4,1.4-2.5,1.4
				c-1.7,0-2.8-1.2-2.8-2.9v-5h1.2V385.9z"/>
			<path class="st3" d="M656.9,388c-0.6,0.8-1.5,1.2-2.5,1.2c-2,0-3.6-1.8-3.6-4c0-2.3,1.6-4,3.7-4c1,0,1.8,0.4,2.4,1.1v-4.6
				l1.2-0.2V389h-1.2V388z M654.7,388.1c0.9,0,1.7-0.4,2.2-1v-3.9c-0.5-0.7-1.3-1.1-2.2-1.1c-1.6,0-2.7,1.3-2.7,3
				C651.9,386.8,653.1,388.1,654.7,388.1z"/>
			<path class="st3" d="M667.7,389.1c-2.2,0-3.9-1.8-3.9-4s1.6-4,3.7-4c2,0,3.6,1.7,3.6,3.9v0.4H665c0.1,1.6,1.3,2.8,2.8,2.8
				c0.8,0,1.6-0.3,2.1-0.8l0.7,0.8C669.7,388.8,668.8,389.1,667.7,389.1z M665,384.5h4.9c-0.2-1.4-1.2-2.4-2.4-2.4
				C666.2,382.1,665.2,383.1,665,384.5z"/>
			<path class="st3" d="M673.1,381.2h1.2v1.3c0.6-0.9,1.4-1.4,2.5-1.4c1.7,0,2.8,1.2,2.8,2.9v5.1h-1.2v-4.7c0-1.4-0.8-2.2-2.1-2.2
				c-0.9,0-1.6,0.4-2,1.2v5.8h-1.2V381.2z"/>
			<path class="st3" d="M680.6,381.2h1.3l2.5,6.4l2.5-6.4h1.2l-3.2,7.8h-1.1L680.6,381.2z"/>
			<path class="st3" d="M689.3,378.4c0-0.4,0.4-0.8,0.8-0.8c0.4,0,0.8,0.4,0.8,0.8c0,0.5-0.4,0.8-0.8,0.8
				C689.7,379.3,689.3,378.9,689.3,378.4z M690.8,389h-1.2v-7.8h1.2V389z"/>
			<path class="st3" d="M693.2,381.2h1.2v1.6c0.4-1.1,1.2-1.7,2.2-1.7c0.3,0,0.5,0,0.7,0.1v1.1c-0.3-0.1-0.6-0.1-0.8-0.1
				c-1,0-1.7,0.6-2.1,1.6v5.3h-1.2V381.2z"/>
			<path class="st3" d="M701.7,381.1c2.2,0,3.8,1.7,3.8,4c0,2.3-1.6,4.1-3.8,4.1c-2.1,0-3.8-1.8-3.8-4.1
				C697.9,382.8,699.6,381.1,701.7,381.1z M704.4,385.1c0-1.7-1.1-3-2.7-3s-2.6,1.3-2.6,3c0,1.7,1.1,3,2.6,3
				S704.4,386.8,704.4,385.1z"/>
			<path class="st3" d="M707.6,381.2h1.2v1.3c0.6-0.9,1.4-1.4,2.5-1.4c1.7,0,2.8,1.2,2.8,2.9v5.1h-1.2v-4.7c0-1.4-0.8-2.2-2.1-2.2
				c-0.9,0-1.6,0.4-2,1.2v5.8h-1.2V381.2z"/>
			<path class="st3" d="M716.4,381.2h1.2v1.2c0.6-0.9,1.4-1.3,2.3-1.3c1.1,0,2,0.6,2.4,1.5c0.6-1,1.5-1.5,2.6-1.5
				c1.6,0,2.7,1.2,2.7,2.9v5h-1.2v-4.8c0-1.4-0.7-2.2-1.9-2.2c-0.8,0-1.5,0.4-2,1.2c0,0.2,0.1,0.4,0.1,0.7v5h-1.2v-4.8
				c0-1.4-0.8-2.2-1.9-2.2c-0.8,0-1.4,0.4-1.9,1.2v5.8h-1.2V381.2z"/>
			<path class="st3" d="M733.5,389.1c-2.2,0-3.9-1.8-3.9-4s1.6-4,3.7-4c2,0,3.6,1.7,3.6,3.9v0.4h-6.1c0.1,1.6,1.3,2.8,2.8,2.8
				c0.8,0,1.6-0.3,2.1-0.8l0.7,0.8C735.5,388.8,734.6,389.1,733.5,389.1z M730.8,384.5h4.9c-0.2-1.4-1.2-2.4-2.4-2.4
				C732,382.1,731,383.1,730.8,384.5z"/>
			<path class="st3" d="M738.9,381.2h1.2v1.3c0.6-0.9,1.4-1.4,2.5-1.4c1.7,0,2.8,1.2,2.8,2.9v5.1h-1.2v-4.7c0-1.4-0.8-2.2-2.1-2.2
				c-0.9,0-1.6,0.4-2,1.2v5.8h-1.2V381.2z"/>
			<path class="st3" d="M748.4,382.1h-1.6v-1h1.6V379l1.2-0.3v2.4h2.2v1h-2.2v4.8c0,0.8,0.3,1.2,1.1,1.2c0.4,0,0.7,0,1.1-0.2v1
				c-0.4,0.1-0.9,0.2-1.4,0.2c-1.3,0-2-0.7-2-1.9V382.1z"/>
			<path class="st3" d="M753.5,387.2c0.9,0.7,1.7,1,2.5,1c1.1,0,2-0.6,2-1.4c0-0.6-0.4-1-1.4-1.2l-1.3-0.2c-1.5-0.3-2.2-0.9-2.2-2
				c0-1.3,1.2-2.3,2.8-2.3c1.1,0,2,0.3,3,1l-0.6,0.8c-0.8-0.6-1.6-0.8-2.4-0.8c-1,0-1.7,0.5-1.7,1.2c0,0.6,0.3,0.9,1.3,1.1l1.3,0.2
				c1.6,0.3,2.3,0.9,2.3,2.1c0,1.4-1.3,2.4-3,2.4c-1.3,0-2.4-0.4-3.2-1.2L753.5,387.2z"/>
			<path class="st3" d="M762.1,388.2c0,0.5-0.4,0.9-0.8,0.9c-0.5,0-0.8-0.4-0.8-0.9c0-0.5,0.4-0.9,0.8-0.9
				C761.7,387.4,762.1,387.8,762.1,388.2z"/>
		</g>
		<g class="st2">
			<path class="st4" d="M385.6,291.4h5.2c2.4,0,4,1.5,4,3.6c0,1.7-1,2.9-2.6,3.4l2.7,5.6h-1.5l-2.6-5.4H387v5.4h-1.4V291.4z
				 M387,292.6v4.8h3.7c1.7,0,2.7-1,2.7-2.4c0-1.5-1.1-2.4-2.7-2.4H387z"/>
			<path class="st4" d="M400.5,304.2c-2.5,0-4.4-2-4.4-4.6c0-2.6,1.8-4.5,4.1-4.5c2.3,0,4,1.9,4,4.4v0.4h-6.9
				c0.1,1.8,1.5,3.1,3.1,3.1c0.9,0,1.8-0.3,2.4-0.9l0.8,0.9C402.8,303.8,401.7,304.2,400.5,304.2z M397.5,299h5.6
				c-0.2-1.6-1.3-2.8-2.8-2.8C398.8,296.2,397.7,297.3,397.5,299z"/>
			<path class="st4" d="M413.1,302.8c-0.7,0.8-1.7,1.3-2.8,1.3c-2.3,0-4.1-2-4.1-4.5c0-2.5,1.8-4.5,4.1-4.5c1.1,0,2,0.4,2.7,1.2
				v-5.2l1.3-0.3V304h-1.3V302.8z M410.6,303c1,0,1.9-0.4,2.5-1.2v-4.4c-0.6-0.7-1.5-1.2-2.5-1.2c-1.8,0-3.1,1.4-3.1,3.3
				S408.8,303,410.6,303z"/>
			<path class="st4" d="M421.5,291.4h1.4v5.6h7.2v-5.6h1.4V304h-1.4v-5.7h-7.2v5.7h-1.4V291.4z"/>
			<path class="st4" d="M433.8,301.5c0-1.6,1.3-2.6,3.3-2.6c1,0,1.9,0.2,2.7,0.7v-1.2c0-1.4-0.8-2.2-2.3-2.2c-0.8,0-1.6,0.2-2.7,0.8
				l-0.5-1c1.2-0.6,2.3-0.8,3.3-0.8c2.2,0,3.4,1.1,3.4,3.1v5.8h-1.3v-1c-0.8,0.8-1.7,1.2-2.8,1.2
				C435.1,304.2,433.8,303.1,433.8,301.5z M437.2,303.2c1,0,1.8-0.3,2.5-1v-1.7c-0.7-0.4-1.5-0.6-2.5-0.6c-1.3,0-2.2,0.6-2.2,1.6
				C435,302.5,435.9,303.2,437.2,303.2z"/>
			<path class="st4" d="M444.5,296.3h-1.8v-1.1h1.8v-2.4l1.3-0.3v2.7h2.5v1.1h-2.5v5.4c0,0.9,0.4,1.3,1.3,1.3c0.5,0,0.8-0.1,1.2-0.2
				v1.2c-0.5,0.2-1,0.2-1.5,0.2c-1.5,0-2.3-0.7-2.3-2.1V296.3z"/>
			<path class="st4" d="M454.7,291.4h8.6v1.2h-7.2v4.4h5v1.2h-5v4.6h7.3v1.2h-8.7V291.4z"/>
			<path class="st4" d="M465.6,295.2h1.3v1.4c0.7-1,1.6-1.6,2.8-1.6c1.9,0,3.2,1.3,3.2,3.2v5.7h-1.3v-5.3c0-1.5-0.9-2.5-2.4-2.5
				c-1,0-1.8,0.5-2.3,1.3v6.5h-1.3V295.2z"/>
			<path class="st4" d="M476.3,296.3h-1.8v-1.1h1.8v-2.4l1.3-0.3v2.7h2.5v1.1h-2.5v5.4c0,0.9,0.4,1.3,1.3,1.3c0.5,0,0.8-0.1,1.2-0.2
				v1.2c-0.5,0.2-1,0.2-1.5,0.2c-1.5,0-2.3-0.7-2.3-2.1V296.3z"/>
			<path class="st4" d="M485.8,304.2c-2.5,0-4.4-2-4.4-4.6c0-2.6,1.8-4.5,4.1-4.5c2.3,0,4,1.9,4,4.4v0.4h-6.9
				c0.1,1.8,1.5,3.1,3.1,3.1c0.9,0,1.8-0.3,2.4-0.9l0.8,0.9C488.1,303.8,487,304.2,485.8,304.2z M482.7,299h5.6
				c-0.2-1.6-1.3-2.8-2.8-2.8C484.1,296.2,483,297.3,482.7,299z"/>
			<path class="st4" d="M491.9,295.2h1.3v1.8c0.5-1.2,1.3-1.9,2.4-1.9c0.3,0,0.6,0,0.8,0.1v1.2c-0.3-0.1-0.6-0.2-0.9-0.2
				c-1.1,0-1.9,0.6-2.4,1.8v6h-1.3V295.2z"/>
			<path class="st4" d="M498.2,295.2h1.3v1.3c0.7-0.9,1.7-1.4,2.8-1.4c2.3,0,4.1,2,4.1,4.5c0,2.5-1.8,4.5-4.1,4.5
				c-1.1,0-2.1-0.4-2.8-1.2v4.9h-1.3V295.2z M499.5,297.5v4.3c0.6,0.8,1.5,1.2,2.5,1.2c1.8,0,3.1-1.4,3.1-3.4c0-1.9-1.3-3.4-3.1-3.4
				C501,296.3,500.1,296.7,499.5,297.5z"/>
			<path class="st4" d="M508.7,295.2h1.3v1.8c0.5-1.2,1.3-1.9,2.4-1.9c0.3,0,0.6,0,0.8,0.1v1.2c-0.3-0.1-0.6-0.2-0.9-0.2
				c-1.1,0-1.9,0.6-2.4,1.8v6h-1.3V295.2z"/>
			<path class="st4" d="M514.7,292.1c0-0.5,0.4-0.9,1-0.9c0.5,0,0.9,0.4,0.9,0.9c0,0.5-0.4,1-0.9,1
				C515.1,293.1,514.7,292.6,514.7,292.1z M516.3,304H515v-8.8h1.3V304z"/>
			<path class="st4" d="M518.9,302c1,0.8,1.9,1.1,2.8,1.1c1.3,0,2.2-0.7,2.2-1.6c0-0.7-0.5-1.1-1.6-1.3l-1.4-0.3
				c-1.7-0.3-2.5-1-2.5-2.3c0-1.5,1.3-2.6,3.2-2.6c1.2,0,2.2,0.3,3.3,1.1l-0.6,0.9c-0.9-0.6-1.8-0.9-2.8-0.9c-1.2,0-1.9,0.5-1.9,1.4
				c0,0.7,0.4,1.1,1.5,1.3l1.5,0.3c1.8,0.3,2.6,1.1,2.6,2.4c0,1.5-1.5,2.7-3.4,2.7c-1.4,0-2.7-0.5-3.6-1.3L518.9,302z"/>
			<path class="st4" d="M531.2,304.2c-2.5,0-4.4-2-4.4-4.6c0-2.6,1.8-4.5,4.1-4.5c2.3,0,4,1.9,4,4.4v0.4h-6.9
				c0.1,1.8,1.5,3.1,3.1,3.1c0.9,0,1.8-0.3,2.4-0.9l0.8,0.9C533.5,303.8,532.4,304.2,531.2,304.2z M528.2,299h5.6
				c-0.2-1.6-1.3-2.8-2.8-2.8C529.5,296.2,528.4,297.3,528.2,299z"/>
			<path class="st4" d="M541.7,291.4h1.4v11.4h7.1v1.2h-8.5V291.4z"/>
			<path class="st4" d="M552.1,292.1c0-0.5,0.4-0.9,1-0.9c0.5,0,0.9,0.4,0.9,0.9c0,0.5-0.4,1-0.9,1
				C552.5,293.1,552.1,292.6,552.1,292.1z M553.7,304h-1.3v-8.8h1.3V304z"/>
			<path class="st4" d="M556.4,295.2h1.3v1.4c0.7-1,1.6-1.6,2.8-1.6c1.9,0,3.2,1.3,3.2,3.2v5.7h-1.3v-5.3c0-1.5-0.9-2.5-2.4-2.5
				c-1,0-1.8,0.5-2.3,1.3v6.5h-1.3V295.2z"/>
			<path class="st4" d="M567.5,300.5c0,1.6,0.9,2.5,2.3,2.5c1,0,1.8-0.5,2.3-1.3v-6.5h1.3v8.8h-1.3v-1.4c-0.7,1-1.6,1.6-2.8,1.6
				c-1.9,0-3.2-1.3-3.2-3.3v-5.7h1.3V300.5z"/>
			<path class="st4" d="M578.4,299.5l-3.2-4.3h1.6l2.4,3.3l2.4-3.3h1.5l-3.2,4.2l3.4,4.6h-1.6l-2.6-3.6l-2.6,3.6h-1.5L578.4,299.5z"
				/>
		</g>
		<g class="st2">
			<path class="st3" d="M409.4,244.8h4.6c2.1,0,3.6,1.3,3.6,3.2c0,1.5-0.9,2.6-2.3,3l2.4,4.9h-1.4l-2.3-4.8h-3.3v4.8h-1.2V244.8z
				 M410.7,245.9v4.3h3.3c1.5,0,2.4-0.8,2.4-2.1c0-1.3-1-2.2-2.4-2.2H410.7z"/>
			<path class="st3" d="M422.7,256.1c-2.2,0-3.9-1.8-3.9-4s1.6-4,3.7-4c2,0,3.6,1.7,3.6,3.9v0.4h-6.1c0.1,1.6,1.3,2.8,2.8,2.8
				c0.8,0,1.6-0.3,2.1-0.8l0.7,0.8C424.7,255.8,423.8,256.1,422.7,256.1z M420,251.5h4.9c-0.2-1.4-1.2-2.4-2.4-2.4
				C421.2,249.1,420.2,250.1,420,251.5z"/>
			<path class="st3" d="M428,254.2c0.9,0.7,1.7,1,2.5,1c1.1,0,2-0.6,2-1.4c0-0.6-0.4-1-1.4-1.2l-1.3-0.2c-1.5-0.3-2.2-0.9-2.2-2
				c0-1.3,1.2-2.3,2.8-2.3c1.1,0,2,0.3,3,1l-0.6,0.8c-0.8-0.6-1.6-0.8-2.4-0.8c-1,0-1.7,0.5-1.7,1.2c0,0.6,0.3,0.9,1.3,1.1l1.3,0.2
				c1.6,0.3,2.3,0.9,2.3,2.1c0,1.4-1.3,2.4-3,2.4c-1.3,0-2.4-0.4-3.2-1.2L428,254.2z"/>
			<path class="st3" d="M436.5,252.9c0,1.4,0.8,2.3,2.1,2.3c0.9,0,1.6-0.4,2-1.2v-5.8h1.2v7.8h-1.2v-1.3c-0.6,0.9-1.4,1.4-2.5,1.4
				c-1.7,0-2.8-1.2-2.8-2.9v-5h1.2V252.9z"/>
			<path class="st3" d="M445.4,256h-1.2v-11.4l1.2-0.2V256z"/>
			<path class="st3" d="M448.7,249.1h-1.6v-1h1.6V246l1.2-0.3v2.4h2.2v1h-2.2v4.8c0,0.8,0.3,1.2,1.1,1.2c0.4,0,0.7,0,1.1-0.2v1
				c-0.4,0.1-0.9,0.2-1.4,0.2c-1.3,0-2-0.7-2-1.9V249.1z"/>
			<path class="st3" d="M453.9,254.2c0.9,0.7,1.7,1,2.5,1c1.1,0,2-0.6,2-1.4c0-0.6-0.4-1-1.4-1.2l-1.3-0.2c-1.5-0.3-2.2-0.9-2.2-2
				c0-1.3,1.2-2.3,2.8-2.3c1.1,0,2,0.3,3,1l-0.6,0.8c-0.8-0.6-1.6-0.8-2.4-0.8c-1,0-1.7,0.5-1.7,1.2c0,0.6,0.3,0.9,1.3,1.1l1.3,0.2
				c1.6,0.3,2.3,0.9,2.3,2.1c0,1.4-1.3,2.4-3,2.4c-1.3,0-2.4-0.4-3.2-1.2L453.9,254.2z"/>
			<path class="st3" d="M465.9,248.2v-1.7c0-1.5,0.8-2.4,2.3-2.4c0.4,0,0.8,0,1.1,0.1v1.1c-0.4-0.1-0.6-0.1-0.9-0.1
				c-0.9,0-1.3,0.4-1.3,1.4v1.7h2.2v1h-2.2v6.9h-1.2v-6.9h-1.7v-1H465.9z"/>
			<path class="st3" d="M470.9,248.2h1.2v1.6c0.4-1.1,1.2-1.7,2.2-1.7c0.3,0,0.5,0,0.7,0.1v1.1c-0.3-0.1-0.6-0.1-0.8-0.1
				c-1,0-1.7,0.6-2.1,1.6v5.3h-1.2V248.2z"/>
			<path class="st3" d="M479.4,248.1c2.2,0,3.8,1.7,3.8,4c0,2.3-1.6,4.1-3.8,4.1c-2.1,0-3.8-1.8-3.8-4.1
				C475.6,249.8,477.3,248.1,479.4,248.1z M482.1,252.1c0-1.7-1.1-3-2.7-3s-2.6,1.3-2.6,3c0,1.7,1.1,3,2.6,3
				S482.1,253.8,482.1,252.1z"/>
			<path class="st3" d="M485.3,248.2h1.2v1.2c0.6-0.9,1.4-1.3,2.3-1.3c1.1,0,2,0.6,2.4,1.5c0.6-1,1.5-1.5,2.6-1.5
				c1.6,0,2.7,1.2,2.7,2.9v5h-1.2v-4.8c0-1.4-0.7-2.2-1.9-2.2c-0.8,0-1.5,0.4-2,1.2c0,0.2,0.1,0.4,0.1,0.7v5h-1.2v-4.8
				c0-1.4-0.8-2.2-1.9-2.2c-0.8,0-1.4,0.4-1.9,1.2v5.8h-1.2V248.2z"/>
			<path class="st3" d="M511.3,253.5l0.8,0.8c-1.1,1.2-2.6,1.8-4.2,1.8c-3.2,0-5.7-2.6-5.7-5.8c0-3.2,2.5-5.8,5.7-5.8
				c1.6,0,3.2,0.7,4.2,1.8l-0.8,0.8c-0.8-1-2.1-1.6-3.4-1.6c-2.5,0-4.5,2-4.5,4.7s1.9,4.7,4.5,4.7
				C509.3,255.1,510.5,254.5,511.3,253.5z"/>
			<path class="st3" d="M515.1,252.9c0,1.4,0.8,2.3,2.1,2.3c0.9,0,1.6-0.4,2-1.2v-5.8h1.2v7.8h-1.2v-1.3c-0.6,0.9-1.4,1.4-2.5,1.4
				c-1.7,0-2.8-1.2-2.8-2.9v-5h1.2V252.9z"/>
			<path class="st3" d="M522.6,254.2c0.9,0.7,1.7,1,2.5,1c1.1,0,2-0.6,2-1.4c0-0.6-0.4-1-1.4-1.2l-1.3-0.2c-1.5-0.3-2.2-0.9-2.2-2
				c0-1.3,1.2-2.3,2.8-2.3c1.1,0,2,0.3,3,1l-0.6,0.8c-0.8-0.6-1.6-0.8-2.4-0.8c-1,0-1.7,0.5-1.7,1.2c0,0.6,0.3,0.9,1.3,1.1l1.3,0.2
				c1.6,0.3,2.3,0.9,2.3,2.1c0,1.4-1.3,2.4-3,2.4c-1.3,0-2.4-0.4-3.2-1.2L522.6,254.2z"/>
			<path class="st3" d="M530.8,249.1h-1.6v-1h1.6V246l1.2-0.3v2.4h2.2v1h-2.2v4.8c0,0.8,0.3,1.2,1.1,1.2c0.4,0,0.7,0,1.1-0.2v1
				c-0.4,0.1-0.9,0.2-1.4,0.2c-1.3,0-2-0.7-2-1.9V249.1z"/>
			<path class="st3" d="M539.1,248.1c2.2,0,3.8,1.7,3.8,4c0,2.3-1.6,4.1-3.8,4.1c-2.1,0-3.8-1.8-3.8-4.1
				C535.3,249.8,537,248.1,539.1,248.1z M541.8,252.1c0-1.7-1.1-3-2.7-3s-2.6,1.3-2.6,3c0,1.7,1.1,3,2.6,3S541.8,253.8,541.8,252.1z
				"/>
			<path class="st3" d="M545,248.2h1.2v1.2c0.6-0.9,1.4-1.3,2.3-1.3c1.1,0,2,0.6,2.4,1.5c0.6-1,1.5-1.5,2.6-1.5
				c1.6,0,2.7,1.2,2.7,2.9v5H555v-4.8c0-1.4-0.7-2.2-1.9-2.2c-0.8,0-1.5,0.4-2,1.2c0,0.2,0.1,0.4,0.1,0.7v5H550v-4.8
				c0-1.4-0.8-2.2-1.9-2.2c-0.8,0-1.4,0.4-1.9,1.2v5.8H545V248.2z"/>
			<path class="st3" d="M562,256.1c-2.2,0-3.9-1.8-3.9-4s1.6-4,3.7-4c2,0,3.6,1.7,3.6,3.9v0.4h-6.1c0.1,1.6,1.3,2.8,2.8,2.8
				c0.8,0,1.6-0.3,2.1-0.8l0.7,0.8C564,255.8,563.1,256.1,562,256.1z M559.3,251.5h4.9c-0.2-1.4-1.2-2.4-2.4-2.4
				C560.5,249.1,559.5,250.1,559.3,251.5z"/>
			<path class="st3" d="M567.4,248.2h1.2v1.6c0.4-1.1,1.2-1.7,2.2-1.7c0.3,0,0.5,0,0.7,0.1v1.1c-0.3-0.1-0.6-0.1-0.8-0.1
				c-1,0-1.7,0.6-2.1,1.6v5.3h-1.2V248.2z"/>
			<path class="st3" d="M576.8,248.2h1.2v1.1c0.6-0.8,1.5-1.2,2.5-1.2c2,0,3.6,1.8,3.6,4c0,2.3-1.6,4-3.7,4c-1,0-1.8-0.4-2.4-1.1
				v4.3h-1.2V248.2z M577.9,250.2v3.8c0.5,0.7,1.3,1.1,2.2,1.1c1.6,0,2.7-1.3,2.7-3s-1.2-3-2.7-3
				C579.2,249.1,578.4,249.5,577.9,250.2z"/>
			<path class="st3" d="M589.5,248.1c2.2,0,3.8,1.7,3.8,4c0,2.3-1.6,4.1-3.8,4.1c-2.1,0-3.8-1.8-3.8-4.1
				C585.8,249.8,587.4,248.1,589.5,248.1z M592.2,252.1c0-1.7-1.1-3-2.7-3s-2.6,1.3-2.6,3c0,1.7,1.1,3,2.6,3
				S592.2,253.8,592.2,252.1z"/>
			<path class="st3" d="M595.4,248.2h1.2v1.6c0.4-1.1,1.2-1.7,2.2-1.7c0.3,0,0.5,0,0.7,0.1v1.1c-0.3-0.1-0.6-0.1-0.8-0.1
				c-1,0-1.7,0.6-2.1,1.6v5.3h-1.2V248.2z"/>
			<path class="st3" d="M602,249.1h-1.6v-1h1.6V246l1.2-0.3v2.4h2.2v1h-2.2v4.8c0,0.8,0.3,1.2,1.1,1.2c0.4,0,0.7,0,1.1-0.2v1
				c-0.4,0.1-0.9,0.2-1.4,0.2c-1.3,0-2-0.7-2-1.9V249.1z"/>
			<path class="st3" d="M606.7,253.8c0-1.4,1.2-2.3,2.9-2.3c0.9,0,1.7,0.2,2.4,0.6V251c0-1.3-0.7-1.9-2-1.9c-0.7,0-1.5,0.2-2.4,0.7
				l-0.4-0.9c1.1-0.5,2-0.8,2.9-0.8c1.9,0,3,1,3,2.8v5.2H612v-0.9c-0.7,0.7-1.5,1.1-2.5,1.1C607.9,256.1,606.7,255.2,606.7,253.8z
				 M609.8,255.2c0.9,0,1.6-0.3,2.2-0.9v-1.5c-0.7-0.4-1.3-0.6-2.2-0.6c-1.2,0-2,0.6-2,1.4C607.8,254.6,608.6,255.2,609.8,255.2z"/>
			<path class="st3" d="M616.7,256h-1.2v-11.4l1.2-0.2V256z"/>
		</g>
		<g transform="translate(-307 -95)">
			<rect x="683" y="333" class="st5" width="24" height="24"/>
			<path class="st3" d="M694.2,350l-6.9-6.9c-0.4-0.5-0.4-1.2,0-1.6l1.2-1.2c0.5-0.4,1.2-0.4,1.6,0l4.9,4.9l4.9-4.9
				c0.5-0.4,1.2-0.4,1.6,0l1.2,1.2c0.4,0.5,0.4,1.2,0,1.6l-6.9,6.9C695.3,350.4,694.7,350.4,694.2,350z"/>
		</g>
		<rect x="360" y="222" class="st6" width="3" height="196"/>
		<g transform="translate(0 -59)" class="st7">
			<rect x="1154" y="281" class="st8" width="54" height="196"/>
			<rect x="1084" y="281" class="st8" width="54" height="196"/>
			<rect x="1014" y="281" class="st8" width="54" height="196"/>
			<rect x="944" y="281" class="st8" width="54" height="196"/>
			<rect x="874" y="281" class="st9" width="54" height="196"/>
			<rect x="804" y="281" class="st9" width="54" height="196"/>
			<rect x="734" y="281" class="st9" width="54" height="196"/>
			<rect x="664" y="281" class="st9" width="54" height="196"/>
			<rect x="594" y="281" class="st9" width="54" height="196"/>
			<rect x="524" y="281" class="st9" width="54" height="196"/>
			<rect x="454" y="281" class="st9" width="54" height="196"/>
			<rect x="384" y="281" class="st9" width="54" height="196"/>
		</g>
	</g>
</g>
</svg>
