<svg width="334" height="253" viewBox="0 0 334 253" fill="none" xmlns="http://www.w3.org/2000/svg">
<mask id="path-1-inside-1_4111_7226" fill="white">
<path d="M7 3C7 1.34315 8.34315 0 10 0H324C325.657 0 327 1.34315 327 3V34C327 35.6569 325.657 37 324 37H9.99999C8.34314 37 7 35.6569 7 34V3Z"/>
</mask>
<path d="M7 3C7 1.34315 8.34315 0 10 0H324C325.657 0 327 1.34315 327 3V34C327 35.6569 325.657 37 324 37H9.99999C8.34314 37 7 35.6569 7 34V3Z" fill="white"/>
<path d="M10 0V2H324V0V-2H10V0ZM327 3H325V34H327H329V3H327ZM324 37V35H9.99999V37V39H324V37ZM7 34H9V3H7H5V34H7ZM9.99999 37V35C9.44771 35 9 34.5523 9 34H7H5C5 36.7614 7.23856 39 9.99999 39V37ZM327 34H325C325 34.5523 324.552 35 324 35V37V39C326.761 39 329 36.7614 329 34H327ZM324 0V2C324.552 2 325 2.44771 325 3H327H329C329 0.238583 326.761 -2 324 -2V0ZM10 0V-2C7.23858 -2 5 0.238577 5 3H7H9C9 2.44772 9.44772 2 10 2V0Z" fill="#0066CC" mask="url(#path-1-inside-1_4111_7226)"/>
<path d="M27.41 23.154C26.6447 23.154 25.9353 23.0187 25.282 22.748C24.6287 22.468 23.9987 22.048 23.392 21.488L24.05 20.704C24.638 21.2547 25.1887 21.6467 25.702 21.88C26.2247 22.1133 26.8033 22.23 27.438 22.23C27.942 22.23 28.39 22.146 28.782 21.978C29.1833 21.8007 29.496 21.5627 29.72 21.264C29.944 20.9653 30.056 20.6247 30.056 20.242C30.056 19.7473 29.8927 19.374 29.566 19.122C29.2393 18.8607 28.6747 18.66 27.872 18.52L26.29 18.254C25.394 18.0953 24.736 17.8247 24.316 17.442C23.9053 17.05 23.7 16.5273 23.7 15.874C23.7 15.3233 23.84 14.838 24.12 14.418C24.4093 13.9887 24.806 13.6527 25.31 13.41C25.814 13.1673 26.3973 13.046 27.06 13.046C27.788 13.046 28.4647 13.1487 29.09 13.354C29.7153 13.55 30.3313 13.8627 30.938 14.292L30.378 15.132C29.874 14.7493 29.342 14.46 28.782 14.264C28.222 14.0587 27.6527 13.956 27.074 13.956C26.6167 13.956 26.2107 14.0353 25.856 14.194C25.5107 14.3527 25.2353 14.5673 25.03 14.838C24.834 15.1087 24.736 15.4167 24.736 15.762C24.736 16.1913 24.8807 16.5273 25.17 16.77C25.4593 17.0127 25.9307 17.1853 26.584 17.288L28.152 17.554C29.1973 17.7407 29.9533 18.044 30.42 18.464C30.896 18.8747 31.134 19.4487 31.134 20.186C31.134 20.7553 30.9707 21.264 30.644 21.712C30.3267 22.16 29.888 22.5147 29.328 22.776C28.768 23.028 28.1287 23.154 27.41 23.154ZM35.9894 23.14C35.3547 23.14 34.7807 22.986 34.2674 22.678C33.754 22.3607 33.348 21.936 33.0494 21.404C32.7507 20.8627 32.6014 20.256 32.6014 19.584C32.6014 18.912 32.7414 18.31 33.0214 17.778C33.3107 17.246 33.698 16.826 34.1834 16.518C34.6687 16.21 35.21 16.056 35.8074 16.056C36.414 16.056 36.9507 16.21 37.4174 16.518C37.8934 16.8167 38.2667 17.2273 38.5374 17.75C38.8174 18.2633 38.9574 18.8467 38.9574 19.5V19.808H33.5954C33.6327 20.2747 33.7587 20.6947 33.9734 21.068C34.1974 21.432 34.4867 21.7213 34.8414 21.936C35.2054 22.1413 35.602 22.244 36.0314 22.244C36.386 22.244 36.7267 22.1833 37.0534 22.062C37.3894 21.9313 37.674 21.7587 37.9074 21.544L38.5514 22.23C38.1594 22.538 37.7534 22.7667 37.3334 22.916C36.9134 23.0653 36.4654 23.14 35.9894 23.14ZM33.6234 19.08H37.9494C37.9027 18.6693 37.7767 18.3053 37.5714 17.988C37.3754 17.6613 37.1234 17.4047 36.8154 17.218C36.5167 17.0313 36.1807 16.938 35.8074 16.938C35.434 16.938 35.0934 17.0313 34.7854 17.218C34.4774 17.3953 34.2207 17.6473 34.0154 17.974C33.8194 18.2913 33.6887 18.66 33.6234 19.08ZM40.7023 23V12.892L41.7243 12.682V23H40.7023ZM46.8995 23.14C46.2649 23.14 45.6909 22.986 45.1775 22.678C44.6642 22.3607 44.2582 21.936 43.9595 21.404C43.6609 20.8627 43.5115 20.256 43.5115 19.584C43.5115 18.912 43.6515 18.31 43.9315 17.778C44.2209 17.246 44.6082 16.826 45.0935 16.518C45.5789 16.21 46.1202 16.056 46.7175 16.056C47.3242 16.056 47.8609 16.21 48.3275 16.518C48.8035 16.8167 49.1769 17.2273 49.4475 17.75C49.7275 18.2633 49.8675 18.8467 49.8675 19.5V19.808H44.5055C44.5429 20.2747 44.6689 20.6947 44.8835 21.068C45.1075 21.432 45.3969 21.7213 45.7515 21.936C46.1155 22.1413 46.5122 22.244 46.9415 22.244C47.2962 22.244 47.6369 22.1833 47.9635 22.062C48.2995 21.9313 48.5842 21.7587 48.8175 21.544L49.4615 22.23C49.0695 22.538 48.6635 22.7667 48.2435 22.916C47.8235 23.0653 47.3755 23.14 46.8995 23.14ZM44.5335 19.08H48.8595C48.8129 18.6693 48.6869 18.3053 48.4815 17.988C48.2855 17.6613 48.0335 17.4047 47.7255 17.218C47.4269 17.0313 47.0909 16.938 46.7175 16.938C46.3442 16.938 46.0035 17.0313 45.6955 17.218C45.3875 17.3953 45.1309 17.6473 44.9255 17.974C44.7295 18.2913 44.5989 18.66 44.5335 19.08ZM54.6785 23.112C54.0438 23.112 53.4698 22.958 52.9565 22.65C52.4525 22.3327 52.0512 21.908 51.7525 21.376C51.4538 20.8347 51.3045 20.2373 51.3045 19.584C51.3045 18.9213 51.4538 18.324 51.7525 17.792C52.0512 17.26 52.4525 16.84 52.9565 16.532C53.4698 16.2147 54.0438 16.056 54.6785 16.056C55.1825 16.056 55.6632 16.1493 56.1205 16.336C56.5778 16.5227 56.9745 16.784 57.3105 17.12L56.6525 17.834C56.4098 17.5633 56.1158 17.3533 55.7705 17.204C55.4252 17.0547 55.0752 16.98 54.7205 16.98C54.2725 16.98 53.8665 17.0967 53.5025 17.33C53.1478 17.5633 52.8632 17.876 52.6485 18.268C52.4338 18.66 52.3265 19.0987 52.3265 19.584C52.3265 20.0693 52.4338 20.508 52.6485 20.9C52.8632 21.292 53.1478 21.6047 53.5025 21.838C53.8665 22.0713 54.2725 22.188 54.7205 22.188C55.0752 22.188 55.4252 22.1133 55.7705 21.964C56.1158 21.8053 56.4098 21.5953 56.6525 21.334L57.3105 22.048C56.9745 22.384 56.5778 22.6453 56.1205 22.832C55.6632 23.0187 55.1825 23.112 54.6785 23.112ZM61.4763 23.14C60.8883 23.14 60.4403 23 60.1323 22.72C59.8336 22.4307 59.6843 22.0153 59.6843 21.474V17.008H58.2703V16.168H59.6843V14.292L60.7063 14.054V16.168H62.6663V17.008H60.7063V21.208C60.7063 21.572 60.7809 21.8333 60.9303 21.992C61.0889 22.1507 61.3456 22.23 61.7003 22.23C61.8776 22.23 62.0363 22.216 62.1763 22.188C62.3163 22.16 62.4796 22.1133 62.6663 22.048V22.958C62.4796 23.0233 62.2836 23.07 62.0783 23.098C61.8729 23.126 61.6723 23.14 61.4763 23.14ZM69.5449 23.126C69.0595 23.126 68.6302 23.0373 68.2569 22.86C67.8835 22.6827 67.5895 22.44 67.3749 22.132C67.1695 21.8147 67.0669 21.4507 67.0669 21.04C67.0669 20.6293 67.1742 20.2747 67.3889 19.976C67.6035 19.668 67.9022 19.43 68.2849 19.262C68.6675 19.094 69.1155 19.01 69.6289 19.01C70.0209 19.01 70.3895 19.052 70.7349 19.136C71.0895 19.22 71.4162 19.3553 71.7149 19.542V18.604C71.7149 18.044 71.5655 17.624 71.2669 17.344C70.9682 17.0547 70.5295 16.91 69.9509 16.91C69.6335 16.91 69.3069 16.9567 68.9709 17.05C68.6442 17.1433 68.2802 17.2927 67.8789 17.498L67.5009 16.714C68.4155 16.2753 69.2742 16.056 70.0769 16.056C70.9262 16.056 71.5795 16.266 72.0369 16.686C72.4942 17.0967 72.7229 17.6893 72.7229 18.464V23H71.7149V22.202C71.4162 22.51 71.0849 22.7433 70.7209 22.902C70.3569 23.0513 69.9649 23.126 69.5449 23.126ZM68.0469 21.012C68.0469 21.4133 68.2009 21.7353 68.5089 21.978C68.8262 22.2207 69.2415 22.342 69.7549 22.342C70.1375 22.342 70.4875 22.2767 70.8049 22.146C71.1315 22.0153 71.4349 21.8193 71.7149 21.558V20.242C71.4255 20.074 71.1269 19.9527 70.8189 19.878C70.5109 19.794 70.1655 19.752 69.7829 19.752C69.2602 19.752 68.8402 19.8687 68.5229 20.102C68.2055 20.326 68.0469 20.6293 68.0469 21.012ZM78.0676 25.926V16.168H79.0756V17.148C79.3369 16.8027 79.6542 16.5413 80.0276 16.364C80.4102 16.1773 80.8302 16.084 81.2876 16.084C81.8849 16.084 82.4169 16.2427 82.8836 16.56C83.3596 16.868 83.7376 17.288 84.0176 17.82C84.2976 18.3427 84.4376 18.9307 84.4376 19.584C84.4376 20.2373 84.2929 20.83 84.0036 21.362C83.7236 21.894 83.3409 22.3187 82.8556 22.636C82.3796 22.944 81.8382 23.098 81.2316 23.098C80.8022 23.098 80.4056 23.0187 80.0416 22.86C79.6776 22.692 79.3602 22.454 79.0896 22.146V25.926H78.0676ZM81.0356 22.216C81.4929 22.216 81.8989 22.104 82.2536 21.88C82.6176 21.6467 82.9022 21.334 83.1076 20.942C83.3222 20.5407 83.4296 20.0927 83.4296 19.598C83.4296 19.094 83.3222 18.646 83.1076 18.254C82.9022 17.862 82.6176 17.554 82.2536 17.33C81.8989 17.0967 81.4929 16.98 81.0356 16.98C80.6342 16.98 80.2609 17.064 79.9156 17.232C79.5796 17.3907 79.3042 17.6193 79.0896 17.918V21.264C79.3136 21.5627 79.5936 21.796 79.9296 21.964C80.2749 22.132 80.6436 22.216 81.0356 22.216ZM86.2297 23V12.892L87.2517 12.682V23H86.2297ZM91.4609 23.126C90.9755 23.126 90.5462 23.0373 90.1729 22.86C89.7995 22.6827 89.5055 22.44 89.2909 22.132C89.0855 21.8147 88.9829 21.4507 88.9829 21.04C88.9829 20.6293 89.0902 20.2747 89.3049 19.976C89.5195 19.668 89.8182 19.43 90.2009 19.262C90.5835 19.094 91.0315 19.01 91.5449 19.01C91.9369 19.01 92.3055 19.052 92.6509 19.136C93.0055 19.22 93.3322 19.3553 93.6309 19.542V18.604C93.6309 18.044 93.4815 17.624 93.1829 17.344C92.8842 17.0547 92.4455 16.91 91.8669 16.91C91.5495 16.91 91.2229 16.9567 90.8869 17.05C90.5602 17.1433 90.1962 17.2927 89.7949 17.498L89.4169 16.714C90.3315 16.2753 91.1902 16.056 91.9929 16.056C92.8422 16.056 93.4955 16.266 93.9529 16.686C94.4102 17.0967 94.6389 17.6893 94.6389 18.464V23H93.6309V22.202C93.3322 22.51 93.0009 22.7433 92.6369 22.902C92.2729 23.0513 91.8809 23.126 91.4609 23.126ZM89.9629 21.012C89.9629 21.4133 90.1169 21.7353 90.4249 21.978C90.7422 22.2207 91.1575 22.342 91.6709 22.342C92.0535 22.342 92.4035 22.2767 92.7209 22.146C93.0475 22.0153 93.3509 21.8193 93.6309 21.558V20.242C93.3415 20.074 93.0429 19.9527 92.7349 19.878C92.4269 19.794 92.0815 19.752 91.6989 19.752C91.1762 19.752 90.7562 19.8687 90.4389 20.102C90.1215 20.326 89.9629 20.6293 89.9629 21.012ZM99.1149 23.14C98.5269 23.14 98.0789 23 97.7709 22.72C97.4723 22.4307 97.3229 22.0153 97.3229 21.474V17.008H95.9089V16.168H97.3229V14.292L98.3449 14.054V16.168H100.305V17.008H98.3449V21.208C98.3449 21.572 98.4196 21.8333 98.5689 21.992C98.7276 22.1507 98.9843 22.23 99.3389 22.23C99.5163 22.23 99.6749 22.216 99.8149 22.188C99.9549 22.16 100.118 22.1133 100.305 22.048V22.958C100.118 23.0233 99.9223 23.07 99.7169 23.098C99.5116 23.126 99.3109 23.14 99.1149 23.14ZM102.807 23V17.008H101.281V16.168H102.807V14.74C102.807 14.068 102.984 13.55 103.339 13.186C103.693 12.822 104.197 12.64 104.851 12.64C105.037 12.64 105.205 12.6493 105.355 12.668C105.513 12.6867 105.653 12.7193 105.775 12.766V13.69C105.625 13.6433 105.49 13.6107 105.369 13.592C105.247 13.5733 105.107 13.564 104.949 13.564C104.557 13.564 104.272 13.662 104.095 13.858C103.917 14.0447 103.829 14.3433 103.829 14.754V16.168H105.775V17.008H103.829V23H102.807ZM109.857 23.112C109.223 23.112 108.653 22.958 108.149 22.65C107.645 22.342 107.249 21.922 106.959 21.39C106.67 20.858 106.525 20.256 106.525 19.584C106.525 18.912 106.67 18.31 106.959 17.778C107.249 17.246 107.645 16.826 108.149 16.518C108.653 16.21 109.223 16.056 109.857 16.056C110.483 16.056 111.043 16.21 111.537 16.518C112.041 16.826 112.438 17.246 112.727 17.778C113.017 18.31 113.161 18.912 113.161 19.584C113.161 20.256 113.017 20.858 112.727 21.39C112.438 21.922 112.041 22.342 111.537 22.65C111.043 22.958 110.483 23.112 109.857 23.112ZM109.843 22.216C110.291 22.216 110.688 22.104 111.033 21.88C111.379 21.6467 111.649 21.3293 111.845 20.928C112.051 20.5267 112.153 20.0787 112.153 19.584C112.153 19.08 112.051 18.632 111.845 18.24C111.649 17.8387 111.379 17.526 111.033 17.302C110.688 17.0687 110.291 16.952 109.843 16.952C109.395 16.952 108.999 17.0687 108.653 17.302C108.308 17.526 108.033 17.8387 107.827 18.24C107.631 18.632 107.533 19.08 107.533 19.584C107.533 20.0787 107.631 20.5267 107.827 20.928C108.033 21.3293 108.308 21.6467 108.653 21.88C108.999 22.104 109.395 22.216 109.843 22.216ZM114.954 23V16.168H115.976V17.568C116.154 17.092 116.406 16.7233 116.732 16.462C117.068 16.1913 117.451 16.056 117.88 16.056C118.002 16.056 118.114 16.0653 118.216 16.084C118.319 16.0933 118.422 16.1167 118.524 16.154V17.078C118.412 17.0407 118.291 17.0127 118.16 16.994C118.039 16.966 117.922 16.952 117.81 16.952C117.39 16.952 117.022 17.0733 116.704 17.316C116.396 17.5587 116.154 17.8993 115.976 18.338V23H114.954ZM119.876 23V16.168H120.898V17.232C121.16 16.84 121.458 16.546 121.794 16.35C122.13 16.154 122.508 16.056 122.928 16.056C123.414 16.056 123.838 16.1773 124.202 16.42C124.566 16.6533 124.842 16.9753 125.028 17.386C125.299 16.9473 125.621 16.616 125.994 16.392C126.377 16.168 126.816 16.056 127.31 16.056C127.768 16.056 128.169 16.1633 128.514 16.378C128.869 16.5927 129.144 16.8913 129.34 17.274C129.536 17.6473 129.634 18.086 129.634 18.59V23H128.612V18.842C128.612 18.2447 128.463 17.7733 128.164 17.428C127.866 17.0827 127.455 16.91 126.932 16.91C126.578 16.91 126.256 16.9987 125.966 17.176C125.686 17.3533 125.439 17.624 125.224 17.988C125.243 18.0813 125.257 18.1793 125.266 18.282C125.276 18.3847 125.28 18.4873 125.28 18.59V23H124.258V18.842C124.258 18.2447 124.104 17.7733 123.796 17.428C123.498 17.0827 123.087 16.91 122.564 16.91C121.864 16.91 121.309 17.246 120.898 17.918V23H119.876Z" fill="#151515"/>
<path d="M310.354 20.1465L306.53 16.3232C306.238 16.0303 305.762 16.0303 305.47 16.3232L301.647 20.1465C301.504 20.2895 301.461 20.5044 301.538 20.6914C301.615 20.8784 301.798 21 302 21H310C310.202 21 310.385 20.8784 310.462 20.6914C310.54 20.5044 310.497 20.2895 310.354 20.1465Z" fill="#151515"/>
<g filter="url(#filter0_d_4111_7226)">
<g clip-path="url(#clip0_4111_7226)">
<mask id="path-5-inside-2_4111_7226" fill="white">
<path d="M7 44C7 42.3431 8.34315 41 10 41H324C325.657 41 327 42.3431 327 44V239C327 240.657 325.657 242 324 242H9.99999C8.34314 242 7 240.657 7 239V44Z"/>
</mask>
<path d="M7 44C7 42.3431 8.34315 41 10 41H324C325.657 41 327 42.3431 327 44V239C327 240.657 325.657 242 324 242H9.99999C8.34314 242 7 240.657 7 239V44Z" fill="white"/>
<mask id="path-7-inside-3_4111_7226" fill="white">
<path d="M7 41H327V242H7V41Z"/>
</mask>
<path d="M7 41V42H327V41V40H7V41Z" fill="#C7C7C7" mask="url(#path-7-inside-3_4111_7226)"/>
<path d="M7 52C7 50.3431 8.34315 49 10 49H324C325.657 49 327 50.3431 327 52V83C327 84.6569 325.657 86 324 86H9.99999C8.34314 86 7 84.6569 7 83V52Z" fill="#F2F2F2"/>
<mask id="path-10-outside-4_4111_7226" maskUnits="userSpaceOnUse" x="10" y="52" width="314" height="31" fill="black">
<rect fill="white" x="10" y="52" width="314" height="31"/>
<path d="M13 58C13 56.3431 14.3431 55 16 55H318C319.657 55 321 56.3431 321 58V77C321 78.6569 319.657 80 318 80H16C14.3431 80 13 78.6569 13 77V58Z"/>
</mask>
<path d="M16 55V58H318V55V52H16V55ZM321 58H318V77H321H324V58H321ZM318 80V77H16V80V83H318V80ZM13 77H16V58H13H10V77H13ZM16 80V77H16H13H10C10 80.3137 12.6863 83 16 83V80ZM321 77H318V77V80V83C321.314 83 324 80.3137 324 77H321ZM318 55V58V58H321H324C324 54.6863 321.314 52 318 52V55ZM16 55V52C12.6863 52 10 54.6863 10 58H13H16V58V55Z" fill="#0066CC" mask="url(#path-10-outside-4_4111_7226)"/>
<path d="M27.41 72.154C26.6447 72.154 25.9353 72.0187 25.282 71.748C24.6287 71.468 23.9987 71.048 23.392 70.488L24.05 69.704C24.638 70.2547 25.1887 70.6467 25.702 70.88C26.2247 71.1133 26.8033 71.23 27.438 71.23C27.942 71.23 28.39 71.146 28.782 70.978C29.1833 70.8007 29.496 70.5627 29.72 70.264C29.944 69.9653 30.056 69.6247 30.056 69.242C30.056 68.7473 29.8927 68.374 29.566 68.122C29.2393 67.8607 28.6747 67.66 27.872 67.52L26.29 67.254C25.394 67.0953 24.736 66.8247 24.316 66.442C23.9053 66.05 23.7 65.5273 23.7 64.874C23.7 64.3233 23.84 63.838 24.12 63.418C24.4093 62.9887 24.806 62.6527 25.31 62.41C25.814 62.1673 26.3973 62.046 27.06 62.046C27.788 62.046 28.4647 62.1487 29.09 62.354C29.7153 62.55 30.3313 62.8627 30.938 63.292L30.378 64.132C29.874 63.7493 29.342 63.46 28.782 63.264C28.222 63.0587 27.6527 62.956 27.074 62.956C26.6167 62.956 26.2107 63.0353 25.856 63.194C25.5107 63.3527 25.2353 63.5673 25.03 63.838C24.834 64.1087 24.736 64.4167 24.736 64.762C24.736 65.1913 24.8807 65.5273 25.17 65.77C25.4593 66.0127 25.9307 66.1853 26.584 66.288L28.152 66.554C29.1973 66.7407 29.9533 67.044 30.42 67.464C30.896 67.8747 31.134 68.4487 31.134 69.186C31.134 69.7553 30.9707 70.264 30.644 70.712C30.3267 71.16 29.888 71.5147 29.328 71.776C28.768 72.028 28.1287 72.154 27.41 72.154ZM35.9894 72.14C35.3547 72.14 34.7807 71.986 34.2674 71.678C33.754 71.3607 33.348 70.936 33.0494 70.404C32.7507 69.8627 32.6014 69.256 32.6014 68.584C32.6014 67.912 32.7414 67.31 33.0214 66.778C33.3107 66.246 33.698 65.826 34.1834 65.518C34.6687 65.21 35.21 65.056 35.8074 65.056C36.414 65.056 36.9507 65.21 37.4174 65.518C37.8934 65.8167 38.2667 66.2273 38.5374 66.75C38.8174 67.2633 38.9574 67.8467 38.9574 68.5V68.808H33.5954C33.6327 69.2747 33.7587 69.6947 33.9734 70.068C34.1974 70.432 34.4867 70.7213 34.8414 70.936C35.2054 71.1413 35.602 71.244 36.0314 71.244C36.386 71.244 36.7267 71.1833 37.0534 71.062C37.3894 70.9313 37.674 70.7587 37.9074 70.544L38.5514 71.23C38.1594 71.538 37.7534 71.7667 37.3334 71.916C36.9134 72.0653 36.4654 72.14 35.9894 72.14ZM33.6234 68.08H37.9494C37.9027 67.6693 37.7767 67.3053 37.5714 66.988C37.3754 66.6613 37.1234 66.4047 36.8154 66.218C36.5167 66.0313 36.1807 65.938 35.8074 65.938C35.434 65.938 35.0934 66.0313 34.7854 66.218C34.4774 66.3953 34.2207 66.6473 34.0154 66.974C33.8194 67.2913 33.6887 67.66 33.6234 68.08ZM40.7023 72V61.892L41.7243 61.682V72H40.7023ZM46.8995 72.14C46.2649 72.14 45.6909 71.986 45.1775 71.678C44.6642 71.3607 44.2582 70.936 43.9595 70.404C43.6609 69.8627 43.5115 69.256 43.5115 68.584C43.5115 67.912 43.6515 67.31 43.9315 66.778C44.2209 66.246 44.6082 65.826 45.0935 65.518C45.5789 65.21 46.1202 65.056 46.7175 65.056C47.3242 65.056 47.8609 65.21 48.3275 65.518C48.8035 65.8167 49.1769 66.2273 49.4475 66.75C49.7275 67.2633 49.8675 67.8467 49.8675 68.5V68.808H44.5055C44.5429 69.2747 44.6689 69.6947 44.8835 70.068C45.1075 70.432 45.3969 70.7213 45.7515 70.936C46.1155 71.1413 46.5122 71.244 46.9415 71.244C47.2962 71.244 47.6369 71.1833 47.9635 71.062C48.2995 70.9313 48.5842 70.7587 48.8175 70.544L49.4615 71.23C49.0695 71.538 48.6635 71.7667 48.2435 71.916C47.8235 72.0653 47.3755 72.14 46.8995 72.14ZM44.5335 68.08H48.8595C48.8129 67.6693 48.6869 67.3053 48.4815 66.988C48.2855 66.6613 48.0335 66.4047 47.7255 66.218C47.4269 66.0313 47.0909 65.938 46.7175 65.938C46.3442 65.938 46.0035 66.0313 45.6955 66.218C45.3875 66.3953 45.1309 66.6473 44.9255 66.974C44.7295 67.2913 44.5989 67.66 44.5335 68.08ZM54.6785 72.112C54.0438 72.112 53.4698 71.958 52.9565 71.65C52.4525 71.3327 52.0512 70.908 51.7525 70.376C51.4538 69.8347 51.3045 69.2373 51.3045 68.584C51.3045 67.9213 51.4538 67.324 51.7525 66.792C52.0512 66.26 52.4525 65.84 52.9565 65.532C53.4698 65.2147 54.0438 65.056 54.6785 65.056C55.1825 65.056 55.6632 65.1493 56.1205 65.336C56.5778 65.5227 56.9745 65.784 57.3105 66.12L56.6525 66.834C56.4098 66.5633 56.1158 66.3533 55.7705 66.204C55.4252 66.0547 55.0752 65.98 54.7205 65.98C54.2725 65.98 53.8665 66.0967 53.5025 66.33C53.1478 66.5633 52.8632 66.876 52.6485 67.268C52.4338 67.66 52.3265 68.0987 52.3265 68.584C52.3265 69.0693 52.4338 69.508 52.6485 69.9C52.8632 70.292 53.1478 70.6047 53.5025 70.838C53.8665 71.0713 54.2725 71.188 54.7205 71.188C55.0752 71.188 55.4252 71.1133 55.7705 70.964C56.1158 70.8053 56.4098 70.5953 56.6525 70.334L57.3105 71.048C56.9745 71.384 56.5778 71.6453 56.1205 71.832C55.6632 72.0187 55.1825 72.112 54.6785 72.112ZM61.4763 72.14C60.8883 72.14 60.4403 72 60.1323 71.72C59.8336 71.4307 59.6843 71.0153 59.6843 70.474V66.008H58.2703V65.168H59.6843V63.292L60.7063 63.054V65.168H62.6663V66.008H60.7063V70.208C60.7063 70.572 60.7809 70.8333 60.9303 70.992C61.0889 71.1507 61.3456 71.23 61.7003 71.23C61.8776 71.23 62.0363 71.216 62.1763 71.188C62.3163 71.16 62.4796 71.1133 62.6663 71.048V71.958C62.4796 72.0233 62.2836 72.07 62.0783 72.098C61.8729 72.126 61.6723 72.14 61.4763 72.14ZM69.5449 72.126C69.0595 72.126 68.6302 72.0373 68.2569 71.86C67.8835 71.6827 67.5895 71.44 67.3749 71.132C67.1695 70.8147 67.0669 70.4507 67.0669 70.04C67.0669 69.6293 67.1742 69.2747 67.3889 68.976C67.6035 68.668 67.9022 68.43 68.2849 68.262C68.6675 68.094 69.1155 68.01 69.6289 68.01C70.0209 68.01 70.3895 68.052 70.7349 68.136C71.0895 68.22 71.4162 68.3553 71.7149 68.542V67.604C71.7149 67.044 71.5655 66.624 71.2669 66.344C70.9682 66.0547 70.5295 65.91 69.9509 65.91C69.6335 65.91 69.3069 65.9567 68.9709 66.05C68.6442 66.1433 68.2802 66.2927 67.8789 66.498L67.5009 65.714C68.4155 65.2753 69.2742 65.056 70.0769 65.056C70.9262 65.056 71.5795 65.266 72.0369 65.686C72.4942 66.0967 72.7229 66.6893 72.7229 67.464V72H71.7149V71.202C71.4162 71.51 71.0849 71.7433 70.7209 71.902C70.3569 72.0513 69.9649 72.126 69.5449 72.126ZM68.0469 70.012C68.0469 70.4133 68.2009 70.7353 68.5089 70.978C68.8262 71.2207 69.2415 71.342 69.7549 71.342C70.1375 71.342 70.4875 71.2767 70.8049 71.146C71.1315 71.0153 71.4349 70.8193 71.7149 70.558V69.242C71.4255 69.074 71.1269 68.9527 70.8189 68.878C70.5109 68.794 70.1655 68.752 69.7829 68.752C69.2602 68.752 68.8402 68.8687 68.5229 69.102C68.2055 69.326 68.0469 69.6293 68.0469 70.012ZM78.0676 74.926V65.168H79.0756V66.148C79.3369 65.8027 79.6542 65.5413 80.0276 65.364C80.4102 65.1773 80.8302 65.084 81.2876 65.084C81.8849 65.084 82.4169 65.2427 82.8836 65.56C83.3596 65.868 83.7376 66.288 84.0176 66.82C84.2976 67.3427 84.4376 67.9307 84.4376 68.584C84.4376 69.2373 84.2929 69.83 84.0036 70.362C83.7236 70.894 83.3409 71.3187 82.8556 71.636C82.3796 71.944 81.8382 72.098 81.2316 72.098C80.8022 72.098 80.4056 72.0187 80.0416 71.86C79.6776 71.692 79.3602 71.454 79.0896 71.146V74.926H78.0676ZM81.0356 71.216C81.4929 71.216 81.8989 71.104 82.2536 70.88C82.6176 70.6467 82.9022 70.334 83.1076 69.942C83.3222 69.5407 83.4296 69.0927 83.4296 68.598C83.4296 68.094 83.3222 67.646 83.1076 67.254C82.9022 66.862 82.6176 66.554 82.2536 66.33C81.8989 66.0967 81.4929 65.98 81.0356 65.98C80.6342 65.98 80.2609 66.064 79.9156 66.232C79.5796 66.3907 79.3042 66.6193 79.0896 66.918V70.264C79.3136 70.5627 79.5936 70.796 79.9296 70.964C80.2749 71.132 80.6436 71.216 81.0356 71.216ZM86.2297 72V61.892L87.2517 61.682V72H86.2297ZM91.4609 72.126C90.9755 72.126 90.5462 72.0373 90.1729 71.86C89.7995 71.6827 89.5055 71.44 89.2909 71.132C89.0855 70.8147 88.9829 70.4507 88.9829 70.04C88.9829 69.6293 89.0902 69.2747 89.3049 68.976C89.5195 68.668 89.8182 68.43 90.2009 68.262C90.5835 68.094 91.0315 68.01 91.5449 68.01C91.9369 68.01 92.3055 68.052 92.6509 68.136C93.0055 68.22 93.3322 68.3553 93.6309 68.542V67.604C93.6309 67.044 93.4815 66.624 93.1829 66.344C92.8842 66.0547 92.4455 65.91 91.8669 65.91C91.5495 65.91 91.2229 65.9567 90.8869 66.05C90.5602 66.1433 90.1962 66.2927 89.7949 66.498L89.4169 65.714C90.3315 65.2753 91.1902 65.056 91.9929 65.056C92.8422 65.056 93.4955 65.266 93.9529 65.686C94.4102 66.0967 94.6389 66.6893 94.6389 67.464V72H93.6309V71.202C93.3322 71.51 93.0009 71.7433 92.6369 71.902C92.2729 72.0513 91.8809 72.126 91.4609 72.126ZM89.9629 70.012C89.9629 70.4133 90.1169 70.7353 90.4249 70.978C90.7422 71.2207 91.1575 71.342 91.6709 71.342C92.0535 71.342 92.4035 71.2767 92.7209 71.146C93.0475 71.0153 93.3509 70.8193 93.6309 70.558V69.242C93.3415 69.074 93.0429 68.9527 92.7349 68.878C92.4269 68.794 92.0815 68.752 91.6989 68.752C91.1762 68.752 90.7562 68.8687 90.4389 69.102C90.1215 69.326 89.9629 69.6293 89.9629 70.012ZM99.1149 72.14C98.5269 72.14 98.0789 72 97.7709 71.72C97.4723 71.4307 97.3229 71.0153 97.3229 70.474V66.008H95.9089V65.168H97.3229V63.292L98.3449 63.054V65.168H100.305V66.008H98.3449V70.208C98.3449 70.572 98.4196 70.8333 98.5689 70.992C98.7276 71.1507 98.9843 71.23 99.3389 71.23C99.5163 71.23 99.6749 71.216 99.8149 71.188C99.9549 71.16 100.118 71.1133 100.305 71.048V71.958C100.118 72.0233 99.9223 72.07 99.7169 72.098C99.5116 72.126 99.3109 72.14 99.1149 72.14ZM102.807 72V66.008H101.281V65.168H102.807V63.74C102.807 63.068 102.984 62.55 103.339 62.186C103.693 61.822 104.197 61.64 104.851 61.64C105.037 61.64 105.205 61.6493 105.355 61.668C105.513 61.6867 105.653 61.7193 105.775 61.766V62.69C105.625 62.6433 105.49 62.6107 105.369 62.592C105.247 62.5733 105.107 62.564 104.949 62.564C104.557 62.564 104.272 62.662 104.095 62.858C103.917 63.0447 103.829 63.3433 103.829 63.754V65.168H105.775V66.008H103.829V72H102.807ZM109.857 72.112C109.223 72.112 108.653 71.958 108.149 71.65C107.645 71.342 107.249 70.922 106.959 70.39C106.67 69.858 106.525 69.256 106.525 68.584C106.525 67.912 106.67 67.31 106.959 66.778C107.249 66.246 107.645 65.826 108.149 65.518C108.653 65.21 109.223 65.056 109.857 65.056C110.483 65.056 111.043 65.21 111.537 65.518C112.041 65.826 112.438 66.246 112.727 66.778C113.017 67.31 113.161 67.912 113.161 68.584C113.161 69.256 113.017 69.858 112.727 70.39C112.438 70.922 112.041 71.342 111.537 71.65C111.043 71.958 110.483 72.112 109.857 72.112ZM109.843 71.216C110.291 71.216 110.688 71.104 111.033 70.88C111.379 70.6467 111.649 70.3293 111.845 69.928C112.051 69.5267 112.153 69.0787 112.153 68.584C112.153 68.08 112.051 67.632 111.845 67.24C111.649 66.8387 111.379 66.526 111.033 66.302C110.688 66.0687 110.291 65.952 109.843 65.952C109.395 65.952 108.999 66.0687 108.653 66.302C108.308 66.526 108.033 66.8387 107.827 67.24C107.631 67.632 107.533 68.08 107.533 68.584C107.533 69.0787 107.631 69.5267 107.827 69.928C108.033 70.3293 108.308 70.6467 108.653 70.88C108.999 71.104 109.395 71.216 109.843 71.216ZM114.954 72V65.168H115.976V66.568C116.154 66.092 116.406 65.7233 116.732 65.462C117.068 65.1913 117.451 65.056 117.88 65.056C118.002 65.056 118.114 65.0653 118.216 65.084C118.319 65.0933 118.422 65.1167 118.524 65.154V66.078C118.412 66.0407 118.291 66.0127 118.16 65.994C118.039 65.966 117.922 65.952 117.81 65.952C117.39 65.952 117.022 66.0733 116.704 66.316C116.396 66.5587 116.154 66.8993 115.976 67.338V72H114.954ZM119.876 72V65.168H120.898V66.232C121.16 65.84 121.458 65.546 121.794 65.35C122.13 65.154 122.508 65.056 122.928 65.056C123.414 65.056 123.838 65.1773 124.202 65.42C124.566 65.6533 124.842 65.9753 125.028 66.386C125.299 65.9473 125.621 65.616 125.994 65.392C126.377 65.168 126.816 65.056 127.31 65.056C127.768 65.056 128.169 65.1633 128.514 65.378C128.869 65.5927 129.144 65.8913 129.34 66.274C129.536 66.6473 129.634 67.086 129.634 67.59V72H128.612V67.842C128.612 67.2447 128.463 66.7733 128.164 66.428C127.866 66.0827 127.455 65.91 126.932 65.91C126.578 65.91 126.256 65.9987 125.966 66.176C125.686 66.3533 125.439 66.624 125.224 66.988C125.243 67.0813 125.257 67.1793 125.266 67.282C125.276 67.3847 125.28 67.4873 125.28 67.59V72H124.258V67.842C124.258 67.2447 124.104 66.7733 123.796 66.428C123.498 66.0827 123.087 65.91 122.564 65.91C121.864 65.91 121.309 66.246 120.898 66.918V72H119.876Z" fill="#707070"/>
<path d="M24.246 109V99.2H28.264C28.8893 99.2 29.4353 99.3213 29.902 99.564C30.3687 99.7973 30.7327 100.124 30.994 100.544C31.2553 100.964 31.386 101.459 31.386 102.028C31.386 102.681 31.204 103.241 30.84 103.708C30.476 104.165 29.9767 104.487 29.342 104.674L31.428 109H30.238L28.25 104.814H25.324V109H24.246ZM25.324 103.918H28.18C28.824 103.918 29.3373 103.75 29.72 103.414C30.112 103.069 30.308 102.611 30.308 102.042C30.308 101.463 30.112 101.006 29.72 100.67C29.3373 100.325 28.824 100.152 28.18 100.152H25.324V103.918ZM35.839 109.14C35.2043 109.14 34.6303 108.986 34.117 108.678C33.6037 108.361 33.1977 107.936 32.899 107.404C32.6003 106.863 32.451 106.256 32.451 105.584C32.451 104.912 32.591 104.31 32.871 103.778C33.1603 103.246 33.5477 102.826 34.033 102.518C34.5183 102.21 35.0597 102.056 35.657 102.056C36.2637 102.056 36.8003 102.21 37.267 102.518C37.743 102.817 38.1163 103.227 38.387 103.75C38.667 104.263 38.807 104.847 38.807 105.5V105.808H33.445C33.4823 106.275 33.6083 106.695 33.823 107.068C34.047 107.432 34.3363 107.721 34.691 107.936C35.055 108.141 35.4517 108.244 35.881 108.244C36.2357 108.244 36.5763 108.183 36.903 108.062C37.239 107.931 37.5237 107.759 37.757 107.544L38.401 108.23C38.009 108.538 37.603 108.767 37.183 108.916C36.763 109.065 36.315 109.14 35.839 109.14ZM33.473 105.08H37.799C37.7523 104.669 37.6263 104.305 37.421 103.988C37.225 103.661 36.973 103.405 36.665 103.218C36.3663 103.031 36.0303 102.938 35.657 102.938C35.2837 102.938 34.943 103.031 34.635 103.218C34.327 103.395 34.0703 103.647 33.865 103.974C33.669 104.291 33.5383 104.66 33.473 105.08ZM43.394 109.098C42.806 109.098 42.274 108.944 41.798 108.636C41.322 108.319 40.944 107.899 40.664 107.376C40.384 106.844 40.244 106.251 40.244 105.598C40.244 104.935 40.384 104.343 40.664 103.82C40.9533 103.288 41.3406 102.868 41.826 102.56C42.3113 102.243 42.8526 102.084 43.45 102.084C43.87 102.084 44.262 102.168 44.626 102.336C44.99 102.495 45.3073 102.728 45.578 103.036V98.892L46.6 98.682V109H45.578V108.09C45.3166 108.417 44.9993 108.669 44.626 108.846C44.2526 109.014 43.842 109.098 43.394 109.098ZM43.646 108.202C44.0473 108.202 44.416 108.123 44.752 107.964C45.088 107.805 45.3633 107.581 45.578 107.292V103.904C45.354 103.615 45.0693 103.391 44.724 103.232C44.388 103.064 44.0286 102.98 43.646 102.98C43.1886 102.98 42.778 103.092 42.414 103.316C42.0593 103.54 41.7746 103.848 41.56 104.24C41.3546 104.632 41.252 105.08 41.252 105.584C41.252 106.079 41.3546 106.527 41.56 106.928C41.7746 107.32 42.0593 107.633 42.414 107.866C42.778 108.09 43.1886 108.202 43.646 108.202ZM52.15 109V99.2H53.228V103.582H58.856V99.2H59.934V109H58.856V104.548H53.228V109H52.15ZM64.1992 109.126C63.7138 109.126 63.2845 109.037 62.9112 108.86C62.5378 108.683 62.2438 108.44 62.0292 108.132C61.8238 107.815 61.7212 107.451 61.7212 107.04C61.7212 106.629 61.8285 106.275 62.0432 105.976C62.2578 105.668 62.5565 105.43 62.9392 105.262C63.3218 105.094 63.7698 105.01 64.2832 105.01C64.6752 105.01 65.0438 105.052 65.3892 105.136C65.7438 105.22 66.0705 105.355 66.3692 105.542V104.604C66.3692 104.044 66.2198 103.624 65.9212 103.344C65.6225 103.055 65.1838 102.91 64.6052 102.91C64.2878 102.91 63.9612 102.957 63.6252 103.05C63.2985 103.143 62.9345 103.293 62.5332 103.498L62.1552 102.714C63.0698 102.275 63.9285 102.056 64.7312 102.056C65.5805 102.056 66.2338 102.266 66.6912 102.686C67.1485 103.097 67.3772 103.689 67.3772 104.464V109H66.3692V108.202C66.0705 108.51 65.7392 108.743 65.3752 108.902C65.0112 109.051 64.6192 109.126 64.1992 109.126ZM62.7012 107.012C62.7012 107.413 62.8552 107.735 63.1632 107.978C63.4805 108.221 63.8958 108.342 64.4092 108.342C64.7918 108.342 65.1418 108.277 65.4592 108.146C65.7858 108.015 66.0892 107.819 66.3692 107.558V106.242C66.0798 106.074 65.7812 105.953 65.4732 105.878C65.1652 105.794 64.8198 105.752 64.4372 105.752C63.9145 105.752 63.4945 105.869 63.1772 106.102C62.8598 106.326 62.7012 106.629 62.7012 107.012ZM71.8532 109.14C71.2652 109.14 70.8172 109 70.5092 108.72C70.2106 108.431 70.0612 108.015 70.0612 107.474V103.008H68.6472V102.168H70.0612V100.292L71.0832 100.054V102.168H73.0432V103.008H71.0832V107.208C71.0832 107.572 71.1579 107.833 71.3072 107.992C71.4659 108.151 71.7226 108.23 72.0772 108.23C72.2546 108.23 72.4132 108.216 72.5532 108.188C72.6932 108.16 72.8566 108.113 73.0432 108.048V108.958C72.8566 109.023 72.6606 109.07 72.4552 109.098C72.2499 109.126 72.0492 109.14 71.8532 109.14ZM76.8838 109L80.7618 99.2H82.0498L85.8718 109H84.7098L83.5478 105.92H79.1798L78.0178 109H76.8838ZM79.5158 105.066H83.2258L81.3638 100.18L79.5158 105.066ZM87.232 109V99.2H88.31V109H87.232Z" fill="#151515"/>
<path d="M24.246 146V136.2H28.264C28.8893 136.2 29.4353 136.321 29.902 136.564C30.3687 136.797 30.7327 137.124 30.994 137.544C31.2553 137.964 31.386 138.459 31.386 139.028C31.386 139.681 31.204 140.241 30.84 140.708C30.476 141.165 29.9767 141.487 29.342 141.674L31.428 146H30.238L28.25 141.814H25.324V146H24.246ZM25.324 140.918H28.18C28.824 140.918 29.3373 140.75 29.72 140.414C30.112 140.069 30.308 139.611 30.308 139.042C30.308 138.463 30.112 138.006 29.72 137.67C29.3373 137.325 28.824 137.152 28.18 137.152H25.324V140.918ZM35.839 146.14C35.2043 146.14 34.6303 145.986 34.117 145.678C33.6037 145.361 33.1977 144.936 32.899 144.404C32.6003 143.863 32.451 143.256 32.451 142.584C32.451 141.912 32.591 141.31 32.871 140.778C33.1603 140.246 33.5477 139.826 34.033 139.518C34.5183 139.21 35.0597 139.056 35.657 139.056C36.2637 139.056 36.8003 139.21 37.267 139.518C37.743 139.817 38.1163 140.227 38.387 140.75C38.667 141.263 38.807 141.847 38.807 142.5V142.808H33.445C33.4823 143.275 33.6083 143.695 33.823 144.068C34.047 144.432 34.3363 144.721 34.691 144.936C35.055 145.141 35.4517 145.244 35.881 145.244C36.2357 145.244 36.5763 145.183 36.903 145.062C37.239 144.931 37.5237 144.759 37.757 144.544L38.401 145.23C38.009 145.538 37.603 145.767 37.183 145.916C36.763 146.065 36.315 146.14 35.839 146.14ZM33.473 142.08H37.799C37.7523 141.669 37.6263 141.305 37.421 140.988C37.225 140.661 36.973 140.405 36.665 140.218C36.3663 140.031 36.0303 139.938 35.657 139.938C35.2837 139.938 34.943 140.031 34.635 140.218C34.327 140.395 34.0703 140.647 33.865 140.974C33.669 141.291 33.5383 141.66 33.473 142.08ZM43.394 146.098C42.806 146.098 42.274 145.944 41.798 145.636C41.322 145.319 40.944 144.899 40.664 144.376C40.384 143.844 40.244 143.251 40.244 142.598C40.244 141.935 40.384 141.343 40.664 140.82C40.9533 140.288 41.3406 139.868 41.826 139.56C42.3113 139.243 42.8526 139.084 43.45 139.084C43.87 139.084 44.262 139.168 44.626 139.336C44.99 139.495 45.3073 139.728 45.578 140.036V135.892L46.6 135.682V146H45.578V145.09C45.3166 145.417 44.9993 145.669 44.626 145.846C44.2526 146.014 43.842 146.098 43.394 146.098ZM43.646 145.202C44.0473 145.202 44.416 145.123 44.752 144.964C45.088 144.805 45.3633 144.581 45.578 144.292V140.904C45.354 140.615 45.0693 140.391 44.724 140.232C44.388 140.064 44.0286 139.98 43.646 139.98C43.1886 139.98 42.778 140.092 42.414 140.316C42.0593 140.54 41.7746 140.848 41.56 141.24C41.3546 141.632 41.252 142.08 41.252 142.584C41.252 143.079 41.3546 143.527 41.56 143.928C41.7746 144.32 42.0593 144.633 42.414 144.866C42.778 145.09 43.1886 145.202 43.646 145.202ZM52.15 146V136.2H53.228V140.582H58.856V136.2H59.934V146H58.856V141.548H53.228V146H52.15ZM64.1992 146.126C63.7138 146.126 63.2845 146.037 62.9112 145.86C62.5378 145.683 62.2438 145.44 62.0292 145.132C61.8238 144.815 61.7212 144.451 61.7212 144.04C61.7212 143.629 61.8285 143.275 62.0432 142.976C62.2578 142.668 62.5565 142.43 62.9392 142.262C63.3218 142.094 63.7698 142.01 64.2832 142.01C64.6752 142.01 65.0438 142.052 65.3892 142.136C65.7438 142.22 66.0705 142.355 66.3692 142.542V141.604C66.3692 141.044 66.2198 140.624 65.9212 140.344C65.6225 140.055 65.1838 139.91 64.6052 139.91C64.2878 139.91 63.9612 139.957 63.6252 140.05C63.2985 140.143 62.9345 140.293 62.5332 140.498L62.1552 139.714C63.0698 139.275 63.9285 139.056 64.7312 139.056C65.5805 139.056 66.2338 139.266 66.6912 139.686C67.1485 140.097 67.3772 140.689 67.3772 141.464V146H66.3692V145.202C66.0705 145.51 65.7392 145.743 65.3752 145.902C65.0112 146.051 64.6192 146.126 64.1992 146.126ZM62.7012 144.012C62.7012 144.413 62.8552 144.735 63.1632 144.978C63.4805 145.221 63.8958 145.342 64.4092 145.342C64.7918 145.342 65.1418 145.277 65.4592 145.146C65.7858 145.015 66.0892 144.819 66.3692 144.558V143.242C66.0798 143.074 65.7812 142.953 65.4732 142.878C65.1652 142.794 64.8198 142.752 64.4372 142.752C63.9145 142.752 63.4945 142.869 63.1772 143.102C62.8598 143.326 62.7012 143.629 62.7012 144.012ZM71.8532 146.14C71.2652 146.14 70.8172 146 70.5092 145.72C70.2106 145.431 70.0612 145.015 70.0612 144.474V140.008H68.6472V139.168H70.0612V137.292L71.0832 137.054V139.168H73.0432V140.008H71.0832V144.208C71.0832 144.572 71.1579 144.833 71.3072 144.992C71.4659 145.151 71.7226 145.23 72.0772 145.23C72.2546 145.23 72.4132 145.216 72.5532 145.188C72.6932 145.16 72.8566 145.113 73.0432 145.048V145.958C72.8566 146.023 72.6606 146.07 72.4552 146.098C72.2499 146.126 72.0492 146.14 71.8532 146.14ZM78.0038 146V136.2H84.6958V137.152H79.0818V140.582H82.9738V141.52H79.0818V145.048H84.7518V146H78.0038ZM86.4758 146V139.168H87.4978V140.274C87.7591 139.863 88.0718 139.56 88.4358 139.364C88.7998 139.159 89.2104 139.056 89.6678 139.056C90.1624 139.056 90.5918 139.163 90.9558 139.378C91.3291 139.583 91.6184 139.877 91.8238 140.26C92.0384 140.633 92.1458 141.072 92.1458 141.576V146H91.1238V141.87C91.1238 141.263 90.9558 140.787 90.6198 140.442C90.2931 140.087 89.8498 139.91 89.2898 139.91C88.9164 139.91 88.5758 139.999 88.2678 140.176C87.9598 140.353 87.7031 140.615 87.4978 140.96V146H86.4758ZM96.5993 146.14C96.0113 146.14 95.5633 146 95.2553 145.72C94.9566 145.431 94.8073 145.015 94.8073 144.474V140.008H93.3933V139.168H94.8073V137.292L95.8293 137.054V139.168H97.7893V140.008H95.8293V144.208C95.8293 144.572 95.904 144.833 96.0533 144.992C96.212 145.151 96.4686 145.23 96.8233 145.23C97.0006 145.23 97.1593 145.216 97.2993 145.188C97.4393 145.16 97.6026 145.113 97.7893 145.048V145.958C97.6026 146.023 97.4066 146.07 97.2013 146.098C96.996 146.126 96.7953 146.14 96.5993 146.14ZM102.23 146.14C101.595 146.14 101.021 145.986 100.508 145.678C99.9943 145.361 99.5883 144.936 99.2896 144.404C98.9909 143.863 98.8416 143.256 98.8416 142.584C98.8416 141.912 98.9816 141.31 99.2616 140.778C99.5509 140.246 99.9383 139.826 100.424 139.518C100.909 139.21 101.45 139.056 102.048 139.056C102.654 139.056 103.191 139.21 103.658 139.518C104.134 139.817 104.507 140.227 104.778 140.75C105.058 141.263 105.198 141.847 105.198 142.5V142.808H99.8356C99.8729 143.275 99.9989 143.695 100.214 144.068C100.438 144.432 100.727 144.721 101.082 144.936C101.446 145.141 101.842 145.244 102.272 145.244C102.626 145.244 102.967 145.183 103.294 145.062C103.63 144.931 103.914 144.759 104.148 144.544L104.792 145.23C104.4 145.538 103.994 145.767 103.574 145.916C103.154 146.065 102.706 146.14 102.23 146.14ZM99.8636 142.08H104.19C104.143 141.669 104.017 141.305 103.812 140.988C103.616 140.661 103.364 140.405 103.056 140.218C102.757 140.031 102.421 139.938 102.048 139.938C101.674 139.938 101.334 140.031 101.026 140.218C100.718 140.395 100.461 140.647 100.256 140.974C100.06 141.291 99.9289 141.66 99.8636 142.08ZM106.943 146V139.168H107.965V140.568C108.142 140.092 108.394 139.723 108.721 139.462C109.057 139.191 109.439 139.056 109.869 139.056C109.99 139.056 110.102 139.065 110.205 139.084C110.307 139.093 110.41 139.117 110.513 139.154V140.078C110.401 140.041 110.279 140.013 110.149 139.994C110.027 139.966 109.911 139.952 109.799 139.952C109.379 139.952 109.01 140.073 108.693 140.316C108.385 140.559 108.142 140.899 107.965 141.338V146H106.943ZM111.864 148.926V139.168H112.872V140.148C113.134 139.803 113.451 139.541 113.824 139.364C114.207 139.177 114.627 139.084 115.084 139.084C115.682 139.084 116.214 139.243 116.68 139.56C117.156 139.868 117.534 140.288 117.814 140.82C118.094 141.343 118.234 141.931 118.234 142.584C118.234 143.237 118.09 143.83 117.8 144.362C117.52 144.894 117.138 145.319 116.652 145.636C116.176 145.944 115.635 146.098 115.028 146.098C114.599 146.098 114.202 146.019 113.838 145.86C113.474 145.692 113.157 145.454 112.886 145.146V148.926H111.864ZM114.832 145.216C115.29 145.216 115.696 145.104 116.05 144.88C116.414 144.647 116.699 144.334 116.904 143.942C117.119 143.541 117.226 143.093 117.226 142.598C117.226 142.094 117.119 141.646 116.904 141.254C116.699 140.862 116.414 140.554 116.05 140.33C115.696 140.097 115.29 139.98 114.832 139.98C114.431 139.98 114.058 140.064 113.712 140.232C113.376 140.391 113.101 140.619 112.886 140.918V144.264C113.11 144.563 113.39 144.796 113.726 144.964C114.072 145.132 114.44 145.216 114.832 145.216ZM120.027 146V139.168H121.049V140.568C121.226 140.092 121.478 139.723 121.805 139.462C122.141 139.191 122.523 139.056 122.953 139.056C123.074 139.056 123.186 139.065 123.289 139.084C123.391 139.093 123.494 139.117 123.597 139.154V140.078C123.485 140.041 123.363 140.013 123.233 139.994C123.111 139.966 122.995 139.952 122.883 139.952C122.463 139.952 122.094 140.073 121.777 140.316C121.469 140.559 121.226 140.899 121.049 141.338V146H120.027ZM124.934 146V139.168H125.956V146H124.934ZM125.452 137.474C125.247 137.474 125.07 137.404 124.92 137.264C124.78 137.115 124.71 136.942 124.71 136.746C124.71 136.55 124.78 136.382 124.92 136.242C125.07 136.093 125.247 136.018 125.452 136.018C125.658 136.018 125.83 136.093 125.97 136.242C126.12 136.382 126.194 136.55 126.194 136.746C126.194 136.942 126.12 137.115 125.97 137.264C125.83 137.404 125.658 137.474 125.452 137.474ZM130.166 146.14C129.606 146.14 129.088 146.056 128.612 145.888C128.136 145.711 127.73 145.459 127.394 145.132L127.94 144.46C128.351 144.759 128.729 144.978 129.074 145.118C129.419 145.249 129.774 145.314 130.138 145.314C130.633 145.314 131.043 145.197 131.37 144.964C131.697 144.731 131.86 144.432 131.86 144.068C131.86 143.788 131.762 143.569 131.566 143.41C131.379 143.251 131.067 143.13 130.628 143.046L129.508 142.85C128.845 142.729 128.355 142.523 128.038 142.234C127.73 141.945 127.576 141.553 127.576 141.058C127.576 140.666 127.679 140.321 127.884 140.022C128.099 139.723 128.393 139.49 128.766 139.322C129.139 139.145 129.564 139.056 130.04 139.056C130.507 139.056 130.95 139.126 131.37 139.266C131.79 139.397 132.215 139.611 132.644 139.91L132.14 140.624C131.785 140.372 131.431 140.19 131.076 140.078C130.721 139.957 130.362 139.896 129.998 139.896C129.55 139.896 129.191 139.994 128.92 140.19C128.649 140.386 128.514 140.652 128.514 140.988C128.514 141.268 128.598 141.483 128.766 141.632C128.943 141.781 129.251 141.893 129.69 141.968L130.838 142.178C131.529 142.299 132.033 142.509 132.35 142.808C132.667 143.107 132.826 143.508 132.826 144.012C132.826 144.413 132.709 144.777 132.476 145.104C132.243 145.421 131.925 145.673 131.524 145.86C131.123 146.047 130.67 146.14 130.166 146.14ZM137.53 146.14C136.896 146.14 136.322 145.986 135.808 145.678C135.295 145.361 134.889 144.936 134.59 144.404C134.292 143.863 134.142 143.256 134.142 142.584C134.142 141.912 134.282 141.31 134.562 140.778C134.852 140.246 135.239 139.826 135.724 139.518C136.21 139.21 136.751 139.056 137.348 139.056C137.955 139.056 138.492 139.21 138.958 139.518C139.434 139.817 139.808 140.227 140.078 140.75C140.358 141.263 140.498 141.847 140.498 142.5V142.808H135.136C135.174 143.275 135.3 143.695 135.514 144.068C135.738 144.432 136.028 144.721 136.382 144.936C136.746 145.141 137.143 145.244 137.572 145.244C137.927 145.244 138.268 145.183 138.594 145.062C138.93 144.931 139.215 144.759 139.448 144.544L140.092 145.23C139.7 145.538 139.294 145.767 138.874 145.916C138.454 146.065 138.006 146.14 137.53 146.14ZM135.164 142.08H139.49C139.444 141.669 139.318 141.305 139.112 140.988C138.916 140.661 138.664 140.405 138.356 140.218C138.058 140.031 137.722 139.938 137.348 139.938C136.975 139.938 136.634 140.031 136.326 140.218C136.018 140.395 135.762 140.647 135.556 140.974C135.36 141.291 135.23 141.66 135.164 142.08ZM145.707 146V136.2H146.785V145.048H152.315V146H145.707ZM154.001 146V139.168H155.023V146H154.001ZM154.519 137.474C154.314 137.474 154.136 137.404 153.987 137.264C153.847 137.115 153.777 136.942 153.777 136.746C153.777 136.55 153.847 136.382 153.987 136.242C154.136 136.093 154.314 136.018 154.519 136.018C154.724 136.018 154.897 136.093 155.037 136.242C155.186 136.382 155.261 136.55 155.261 136.746C155.261 136.942 155.186 137.115 155.037 137.264C154.897 137.404 154.724 137.474 154.519 137.474ZM157.118 146V139.168H158.14V140.274C158.402 139.863 158.714 139.56 159.078 139.364C159.442 139.159 159.853 139.056 160.31 139.056C160.805 139.056 161.234 139.163 161.598 139.378C161.972 139.583 162.261 139.877 162.466 140.26C162.681 140.633 162.788 141.072 162.788 141.576V146H161.766V141.87C161.766 141.263 161.598 140.787 161.262 140.442C160.936 140.087 160.492 139.91 159.932 139.91C159.559 139.91 159.218 139.999 158.91 140.176C158.602 140.353 158.346 140.615 158.14 140.96V146H157.118ZM167.211 146.112C166.725 146.112 166.296 146.005 165.923 145.79C165.549 145.575 165.255 145.277 165.041 144.894C164.835 144.511 164.733 144.073 164.733 143.578V139.168H165.769V143.284C165.769 143.891 165.932 144.371 166.259 144.726C166.585 145.081 167.029 145.258 167.589 145.258C167.971 145.258 168.312 145.169 168.611 144.992C168.919 144.815 169.175 144.558 169.381 144.222V139.168H170.403V146H169.381V144.894C169.119 145.295 168.807 145.599 168.443 145.804C168.088 146.009 167.677 146.112 167.211 146.112ZM171.631 146L174.249 142.458L171.785 139.168H173.003L174.893 141.772L176.769 139.168H177.931L175.453 142.486L178.085 146H176.867L174.823 143.214L172.793 146H171.631Z" fill="#151515"/>
<path d="M24.246 183V173.2H28.264C28.8893 173.2 29.4353 173.321 29.902 173.564C30.3687 173.797 30.7327 174.124 30.994 174.544C31.2553 174.964 31.386 175.459 31.386 176.028C31.386 176.681 31.204 177.241 30.84 177.708C30.476 178.165 29.9767 178.487 29.342 178.674L31.428 183H30.238L28.25 178.814H25.324V183H24.246ZM25.324 177.918H28.18C28.824 177.918 29.3373 177.75 29.72 177.414C30.112 177.069 30.308 176.611 30.308 176.042C30.308 175.463 30.112 175.006 29.72 174.67C29.3373 174.325 28.824 174.152 28.18 174.152H25.324V177.918ZM35.839 183.14C35.2043 183.14 34.6303 182.986 34.117 182.678C33.6037 182.361 33.1977 181.936 32.899 181.404C32.6003 180.863 32.451 180.256 32.451 179.584C32.451 178.912 32.591 178.31 32.871 177.778C33.1603 177.246 33.5477 176.826 34.033 176.518C34.5183 176.21 35.0597 176.056 35.657 176.056C36.2637 176.056 36.8003 176.21 37.267 176.518C37.743 176.817 38.1163 177.227 38.387 177.75C38.667 178.263 38.807 178.847 38.807 179.5V179.808H33.445C33.4823 180.275 33.6083 180.695 33.823 181.068C34.047 181.432 34.3363 181.721 34.691 181.936C35.055 182.141 35.4517 182.244 35.881 182.244C36.2357 182.244 36.5763 182.183 36.903 182.062C37.239 181.931 37.5237 181.759 37.757 181.544L38.401 182.23C38.009 182.538 37.603 182.767 37.183 182.916C36.763 183.065 36.315 183.14 35.839 183.14ZM33.473 179.08H37.799C37.7523 178.669 37.6263 178.305 37.421 177.988C37.225 177.661 36.973 177.405 36.665 177.218C36.3663 177.031 36.0303 176.938 35.657 176.938C35.2837 176.938 34.943 177.031 34.635 177.218C34.327 177.395 34.0703 177.647 33.865 177.974C33.669 178.291 33.5383 178.66 33.473 179.08ZM43.394 183.098C42.806 183.098 42.274 182.944 41.798 182.636C41.322 182.319 40.944 181.899 40.664 181.376C40.384 180.844 40.244 180.251 40.244 179.598C40.244 178.935 40.384 178.343 40.664 177.82C40.9533 177.288 41.3406 176.868 41.826 176.56C42.3113 176.243 42.8526 176.084 43.45 176.084C43.87 176.084 44.262 176.168 44.626 176.336C44.99 176.495 45.3073 176.728 45.578 177.036V172.892L46.6 172.682V183H45.578V182.09C45.3166 182.417 44.9993 182.669 44.626 182.846C44.2526 183.014 43.842 183.098 43.394 183.098ZM43.646 182.202C44.0473 182.202 44.416 182.123 44.752 181.964C45.088 181.805 45.3633 181.581 45.578 181.292V177.904C45.354 177.615 45.0693 177.391 44.724 177.232C44.388 177.064 44.0286 176.98 43.646 176.98C43.1886 176.98 42.778 177.092 42.414 177.316C42.0593 177.54 41.7746 177.848 41.56 178.24C41.3546 178.632 41.252 179.08 41.252 179.584C41.252 180.079 41.3546 180.527 41.56 180.928C41.7746 181.32 42.0593 181.633 42.414 181.866C42.778 182.09 43.1886 182.202 43.646 182.202ZM52.15 183V173.2H53.228V177.582H58.856V173.2H59.934V183H58.856V178.548H53.228V183H52.15ZM64.1992 183.126C63.7138 183.126 63.2845 183.037 62.9112 182.86C62.5378 182.683 62.2438 182.44 62.0292 182.132C61.8238 181.815 61.7212 181.451 61.7212 181.04C61.7212 180.629 61.8285 180.275 62.0432 179.976C62.2578 179.668 62.5565 179.43 62.9392 179.262C63.3218 179.094 63.7698 179.01 64.2832 179.01C64.6752 179.01 65.0438 179.052 65.3892 179.136C65.7438 179.22 66.0705 179.355 66.3692 179.542V178.604C66.3692 178.044 66.2198 177.624 65.9212 177.344C65.6225 177.055 65.1838 176.91 64.6052 176.91C64.2878 176.91 63.9612 176.957 63.6252 177.05C63.2985 177.143 62.9345 177.293 62.5332 177.498L62.1552 176.714C63.0698 176.275 63.9285 176.056 64.7312 176.056C65.5805 176.056 66.2338 176.266 66.6912 176.686C67.1485 177.097 67.3772 177.689 67.3772 178.464V183H66.3692V182.202C66.0705 182.51 65.7392 182.743 65.3752 182.902C65.0112 183.051 64.6192 183.126 64.1992 183.126ZM62.7012 181.012C62.7012 181.413 62.8552 181.735 63.1632 181.978C63.4805 182.221 63.8958 182.342 64.4092 182.342C64.7918 182.342 65.1418 182.277 65.4592 182.146C65.7858 182.015 66.0892 181.819 66.3692 181.558V180.242C66.0798 180.074 65.7812 179.953 65.4732 179.878C65.1652 179.794 64.8198 179.752 64.4372 179.752C63.9145 179.752 63.4945 179.869 63.1772 180.102C62.8598 180.326 62.7012 180.629 62.7012 181.012ZM71.8532 183.14C71.2652 183.14 70.8172 183 70.5092 182.72C70.2106 182.431 70.0612 182.015 70.0612 181.474V177.008H68.6472V176.168H70.0612V174.292L71.0832 174.054V176.168H73.0432V177.008H71.0832V181.208C71.0832 181.572 71.1579 181.833 71.3072 181.992C71.4659 182.151 71.7226 182.23 72.0772 182.23C72.2546 182.23 72.4132 182.216 72.5532 182.188C72.6932 182.16 72.8566 182.113 73.0432 182.048V182.958C72.8566 183.023 72.6606 183.07 72.4552 183.098C72.2499 183.126 72.0492 183.14 71.8532 183.14ZM82.4278 183.154C81.7465 183.154 81.1118 183.028 80.5238 182.776C79.9358 182.515 79.4178 182.155 78.9698 181.698C78.5311 181.231 78.1858 180.695 77.9338 180.088C77.6818 179.472 77.5558 178.809 77.5558 178.1C77.5558 177.391 77.6818 176.733 77.9338 176.126C78.1858 175.51 78.5311 174.973 78.9698 174.516C79.4178 174.049 79.9358 173.69 80.5238 173.438C81.1118 173.177 81.7465 173.046 82.4278 173.046C83.1091 173.046 83.7438 173.177 84.3318 173.438C84.9198 173.69 85.4331 174.049 85.8718 174.516C86.3198 174.973 86.6698 175.51 86.9218 176.126C87.1738 176.733 87.2998 177.391 87.2998 178.1C87.2998 178.809 87.1738 179.472 86.9218 180.088C86.6698 180.695 86.3198 181.231 85.8718 181.698C85.4331 182.155 84.9198 182.515 84.3318 182.776C83.7438 183.028 83.1091 183.154 82.4278 183.154ZM82.4278 182.174C82.9598 182.174 83.4545 182.071 83.9118 181.866C84.3691 181.661 84.7705 181.371 85.1158 180.998C85.4611 180.625 85.7271 180.191 85.9138 179.696C86.1098 179.201 86.2078 178.669 86.2078 178.1C86.2078 177.521 86.1098 176.989 85.9138 176.504C85.7271 176.009 85.4611 175.575 85.1158 175.202C84.7705 174.829 84.3691 174.539 83.9118 174.334C83.4545 174.129 82.9598 174.026 82.4278 174.026C81.8958 174.026 81.4011 174.129 80.9438 174.334C80.4865 174.539 80.0851 174.829 79.7398 175.202C79.3945 175.575 79.1238 176.009 78.9278 176.504C78.7411 176.989 78.6478 177.517 78.6478 178.086C78.6478 178.665 78.7411 179.201 78.9278 179.696C79.1238 180.191 79.3945 180.625 79.7398 180.998C80.0851 181.371 80.4865 181.661 80.9438 181.866C81.4011 182.071 81.8958 182.174 82.4278 182.174ZM89.1418 185.926V176.168H90.1498V177.148C90.4111 176.803 90.7285 176.541 91.1018 176.364C91.4845 176.177 91.9045 176.084 92.3618 176.084C92.9591 176.084 93.4911 176.243 93.9578 176.56C94.4338 176.868 94.8118 177.288 95.0918 177.82C95.3718 178.343 95.5118 178.931 95.5118 179.584C95.5118 180.237 95.3671 180.83 95.0778 181.362C94.7978 181.894 94.4151 182.319 93.9298 182.636C93.4538 182.944 92.9125 183.098 92.3058 183.098C91.8765 183.098 91.4798 183.019 91.1158 182.86C90.7518 182.692 90.4345 182.454 90.1638 182.146V185.926H89.1418ZM92.1098 182.216C92.5671 182.216 92.9731 182.104 93.3278 181.88C93.6918 181.647 93.9765 181.334 94.1818 180.942C94.3965 180.541 94.5038 180.093 94.5038 179.598C94.5038 179.094 94.3965 178.646 94.1818 178.254C93.9765 177.862 93.6918 177.554 93.3278 177.33C92.9731 177.097 92.5671 176.98 92.1098 176.98C91.7085 176.98 91.3351 177.064 90.9898 177.232C90.6538 177.391 90.3785 177.619 90.1638 177.918V181.264C90.3878 181.563 90.6678 181.796 91.0038 181.964C91.3491 182.132 91.7178 182.216 92.1098 182.216ZM100.384 183.14C99.7492 183.14 99.1752 182.986 98.6619 182.678C98.1486 182.361 97.7426 181.936 97.4439 181.404C97.1452 180.863 96.9959 180.256 96.9959 179.584C96.9959 178.912 97.1359 178.31 97.4159 177.778C97.7052 177.246 98.0926 176.826 98.5779 176.518C99.0632 176.21 99.6046 176.056 100.202 176.056C100.809 176.056 101.345 176.21 101.812 176.518C102.288 176.817 102.661 177.227 102.932 177.75C103.212 178.263 103.352 178.847 103.352 179.5V179.808H97.9899C98.0272 180.275 98.1532 180.695 98.3679 181.068C98.5919 181.432 98.8812 181.721 99.2359 181.936C99.5999 182.141 99.9966 182.244 100.426 182.244C100.781 182.244 101.121 182.183 101.448 182.062C101.784 181.931 102.069 181.759 102.302 181.544L102.946 182.23C102.554 182.538 102.148 182.767 101.728 182.916C101.308 183.065 100.86 183.14 100.384 183.14ZM98.0179 179.08H102.344C102.297 178.669 102.171 178.305 101.966 177.988C101.77 177.661 101.518 177.405 101.21 177.218C100.911 177.031 100.575 176.938 100.202 176.938C99.8286 176.938 99.4879 177.031 99.1799 177.218C98.8719 177.395 98.6152 177.647 98.4099 177.974C98.2139 178.291 98.0832 178.66 98.0179 179.08ZM105.097 183V176.168H106.119V177.274C106.38 176.863 106.693 176.56 107.057 176.364C107.421 176.159 107.832 176.056 108.289 176.056C108.784 176.056 109.213 176.163 109.577 176.378C109.95 176.583 110.24 176.877 110.445 177.26C110.66 177.633 110.767 178.072 110.767 178.576V183H109.745V178.87C109.745 178.263 109.577 177.787 109.241 177.442C108.914 177.087 108.471 176.91 107.911 176.91C107.538 176.91 107.197 176.999 106.889 177.176C106.581 177.353 106.324 177.615 106.119 177.96V183H105.097ZM116.181 183.154C115.416 183.154 114.707 183.019 114.053 182.748C113.4 182.468 112.77 182.048 112.163 181.488L112.821 180.704C113.409 181.255 113.96 181.647 114.473 181.88C114.996 182.113 115.575 182.23 116.209 182.23C116.713 182.23 117.161 182.146 117.553 181.978C117.955 181.801 118.267 181.563 118.491 181.264C118.715 180.965 118.827 180.625 118.827 180.242C118.827 179.747 118.664 179.374 118.337 179.122C118.011 178.861 117.446 178.66 116.643 178.52L115.061 178.254C114.165 178.095 113.507 177.825 113.087 177.442C112.677 177.05 112.471 176.527 112.471 175.874C112.471 175.323 112.611 174.838 112.891 174.418C113.181 173.989 113.577 173.653 114.081 173.41C114.585 173.167 115.169 173.046 115.831 173.046C116.559 173.046 117.236 173.149 117.861 173.354C118.487 173.55 119.103 173.863 119.709 174.292L119.149 175.132C118.645 174.749 118.113 174.46 117.553 174.264C116.993 174.059 116.424 173.956 115.845 173.956C115.388 173.956 114.982 174.035 114.627 174.194C114.282 174.353 114.007 174.567 113.801 174.838C113.605 175.109 113.507 175.417 113.507 175.762C113.507 176.191 113.652 176.527 113.941 176.77C114.231 177.013 114.702 177.185 115.355 177.288L116.923 177.554C117.969 177.741 118.725 178.044 119.191 178.464C119.667 178.875 119.905 179.449 119.905 180.186C119.905 180.755 119.742 181.264 119.415 181.712C119.098 182.16 118.659 182.515 118.099 182.776C117.539 183.028 116.9 183.154 116.181 183.154ZM121.544 183V172.892L122.566 172.682V177.274C122.827 176.863 123.14 176.56 123.504 176.364C123.868 176.159 124.279 176.056 124.736 176.056C125.231 176.056 125.66 176.163 126.024 176.378C126.397 176.583 126.687 176.877 126.892 177.26C127.107 177.633 127.214 178.072 127.214 178.576V183H126.192V178.87C126.192 178.263 126.024 177.787 125.688 177.442C125.361 177.087 124.918 176.91 124.358 176.91C123.985 176.91 123.644 176.999 123.336 177.176C123.028 177.353 122.771 177.615 122.566 177.96V183H121.544ZM129.255 183V176.168H130.277V183H129.255ZM129.773 174.474C129.567 174.474 129.39 174.404 129.241 174.264C129.101 174.115 129.031 173.942 129.031 173.746C129.031 173.55 129.101 173.382 129.241 173.242C129.39 173.093 129.567 173.018 129.773 173.018C129.978 173.018 130.151 173.093 130.291 173.242C130.44 173.382 130.515 173.55 130.515 173.746C130.515 173.942 130.44 174.115 130.291 174.264C130.151 174.404 129.978 174.474 129.773 174.474ZM133.24 183V177.008H131.714V176.168H133.24V174.74C133.24 174.068 133.418 173.55 133.772 173.186C134.127 172.822 134.631 172.64 135.284 172.64C135.471 172.64 135.639 172.649 135.788 172.668C135.947 172.687 136.087 172.719 136.208 172.766V173.69C136.059 173.643 135.924 173.611 135.802 173.592C135.681 173.573 135.541 173.564 135.382 173.564C134.99 173.564 134.706 173.662 134.528 173.858C134.351 174.045 134.262 174.343 134.262 174.754V176.168H136.208V177.008H134.262V183H133.24ZM140.295 183.14C139.707 183.14 139.259 183 138.951 182.72C138.652 182.431 138.503 182.015 138.503 181.474V177.008H137.089V176.168H138.503V174.292L139.525 174.054V176.168H141.485V177.008H139.525V181.208C139.525 181.572 139.599 181.833 139.749 181.992C139.907 182.151 140.164 182.23 140.519 182.23C140.696 182.23 140.855 182.216 140.995 182.188C141.135 182.16 141.298 182.113 141.485 182.048V182.958C141.298 183.023 141.102 183.07 140.897 183.098C140.691 183.126 140.491 183.14 140.295 183.14Z" fill="#151515"/>
<path d="M24.246 220V210.2H28.264C28.8893 210.2 29.4353 210.321 29.902 210.564C30.3687 210.797 30.7327 211.124 30.994 211.544C31.2553 211.964 31.386 212.459 31.386 213.028C31.386 213.681 31.204 214.241 30.84 214.708C30.476 215.165 29.9767 215.487 29.342 215.674L31.428 220H30.238L28.25 215.814H25.324V220H24.246ZM25.324 214.918H28.18C28.824 214.918 29.3373 214.75 29.72 214.414C30.112 214.069 30.308 213.611 30.308 213.042C30.308 212.463 30.112 212.006 29.72 211.67C29.3373 211.325 28.824 211.152 28.18 211.152H25.324V214.918ZM35.839 220.14C35.2043 220.14 34.6303 219.986 34.117 219.678C33.6037 219.361 33.1977 218.936 32.899 218.404C32.6003 217.863 32.451 217.256 32.451 216.584C32.451 215.912 32.591 215.31 32.871 214.778C33.1603 214.246 33.5477 213.826 34.033 213.518C34.5183 213.21 35.0597 213.056 35.657 213.056C36.2637 213.056 36.8003 213.21 37.267 213.518C37.743 213.817 38.1163 214.227 38.387 214.75C38.667 215.263 38.807 215.847 38.807 216.5V216.808H33.445C33.4823 217.275 33.6083 217.695 33.823 218.068C34.047 218.432 34.3363 218.721 34.691 218.936C35.055 219.141 35.4517 219.244 35.881 219.244C36.2357 219.244 36.5763 219.183 36.903 219.062C37.239 218.931 37.5237 218.759 37.757 218.544L38.401 219.23C38.009 219.538 37.603 219.767 37.183 219.916C36.763 220.065 36.315 220.14 35.839 220.14ZM33.473 216.08H37.799C37.7523 215.669 37.6263 215.305 37.421 214.988C37.225 214.661 36.973 214.405 36.665 214.218C36.3663 214.031 36.0303 213.938 35.657 213.938C35.2837 213.938 34.943 214.031 34.635 214.218C34.327 214.395 34.0703 214.647 33.865 214.974C33.669 215.291 33.5383 215.66 33.473 216.08ZM43.394 220.098C42.806 220.098 42.274 219.944 41.798 219.636C41.322 219.319 40.944 218.899 40.664 218.376C40.384 217.844 40.244 217.251 40.244 216.598C40.244 215.935 40.384 215.343 40.664 214.82C40.9533 214.288 41.3406 213.868 41.826 213.56C42.3113 213.243 42.8526 213.084 43.45 213.084C43.87 213.084 44.262 213.168 44.626 213.336C44.99 213.495 45.3073 213.728 45.578 214.036V209.892L46.6 209.682V220H45.578V219.09C45.3166 219.417 44.9993 219.669 44.626 219.846C44.2526 220.014 43.842 220.098 43.394 220.098ZM43.646 219.202C44.0473 219.202 44.416 219.123 44.752 218.964C45.088 218.805 45.3633 218.581 45.578 218.292V214.904C45.354 214.615 45.0693 214.391 44.724 214.232C44.388 214.064 44.0286 213.98 43.646 213.98C43.1886 213.98 42.778 214.092 42.414 214.316C42.0593 214.54 41.7746 214.848 41.56 215.24C41.3546 215.632 41.252 216.08 41.252 216.584C41.252 217.079 41.3546 217.527 41.56 217.928C41.7746 218.32 42.0593 218.633 42.414 218.866C42.778 219.09 43.1886 219.202 43.646 219.202ZM52.15 220V210.2H53.228V214.582H58.856V210.2H59.934V220H58.856V215.548H53.228V220H52.15ZM64.1992 220.126C63.7138 220.126 63.2845 220.037 62.9112 219.86C62.5378 219.683 62.2438 219.44 62.0292 219.132C61.8238 218.815 61.7212 218.451 61.7212 218.04C61.7212 217.629 61.8285 217.275 62.0432 216.976C62.2578 216.668 62.5565 216.43 62.9392 216.262C63.3218 216.094 63.7698 216.01 64.2832 216.01C64.6752 216.01 65.0438 216.052 65.3892 216.136C65.7438 216.22 66.0705 216.355 66.3692 216.542V215.604C66.3692 215.044 66.2198 214.624 65.9212 214.344C65.6225 214.055 65.1838 213.91 64.6052 213.91C64.2878 213.91 63.9612 213.957 63.6252 214.05C63.2985 214.143 62.9345 214.293 62.5332 214.498L62.1552 213.714C63.0698 213.275 63.9285 213.056 64.7312 213.056C65.5805 213.056 66.2338 213.266 66.6912 213.686C67.1485 214.097 67.3772 214.689 67.3772 215.464V220H66.3692V219.202C66.0705 219.51 65.7392 219.743 65.3752 219.902C65.0112 220.051 64.6192 220.126 64.1992 220.126ZM62.7012 218.012C62.7012 218.413 62.8552 218.735 63.1632 218.978C63.4805 219.221 63.8958 219.342 64.4092 219.342C64.7918 219.342 65.1418 219.277 65.4592 219.146C65.7858 219.015 66.0892 218.819 66.3692 218.558V217.242C66.0798 217.074 65.7812 216.953 65.4732 216.878C65.1652 216.794 64.8198 216.752 64.4372 216.752C63.9145 216.752 63.4945 216.869 63.1772 217.102C62.8598 217.326 62.7012 217.629 62.7012 218.012ZM71.8532 220.14C71.2652 220.14 70.8172 220 70.5092 219.72C70.2106 219.431 70.0612 219.015 70.0612 218.474V214.008H68.6472V213.168H70.0612V211.292L71.0832 211.054V213.168H73.0432V214.008H71.0832V218.208C71.0832 218.572 71.1579 218.833 71.3072 218.992C71.4659 219.151 71.7226 219.23 72.0772 219.23C72.2546 219.23 72.4132 219.216 72.5532 219.188C72.6932 219.16 72.8566 219.113 73.0432 219.048V219.958C72.8566 220.023 72.6606 220.07 72.4552 220.098C72.2499 220.126 72.0492 220.14 71.8532 220.14ZM76.8838 220L80.7618 210.2H82.0498L85.8718 220H84.7098L83.5478 216.92H79.1798L78.0178 220H76.8838ZM79.5158 216.066H83.2258L81.3638 211.18L79.5158 216.066ZM87.05 220V213.168H88.072V214.274C88.3333 213.863 88.646 213.56 89.01 213.364C89.374 213.159 89.7847 213.056 90.242 213.056C90.7367 213.056 91.166 213.163 91.53 213.378C91.9033 213.583 92.1927 213.877 92.398 214.26C92.6127 214.633 92.72 215.072 92.72 215.576V220H91.698V215.87C91.698 215.263 91.53 214.787 91.194 214.442C90.8673 214.087 90.424 213.91 89.864 213.91C89.4907 213.91 89.15 213.999 88.842 214.176C88.534 214.353 88.2773 214.615 88.072 214.96V220H87.05ZM96.8886 220.14C96.3286 220.14 95.8106 220.056 95.3346 219.888C94.8586 219.711 94.4526 219.459 94.1166 219.132L94.6626 218.46C95.0733 218.759 95.4513 218.978 95.7966 219.118C96.1419 219.249 96.4966 219.314 96.8606 219.314C97.3553 219.314 97.7659 219.197 98.0926 218.964C98.4193 218.731 98.5826 218.432 98.5826 218.068C98.5826 217.788 98.4846 217.569 98.2886 217.41C98.1019 217.251 97.7893 217.13 97.3506 217.046L96.2306 216.85C95.5679 216.729 95.0779 216.523 94.7606 216.234C94.4526 215.945 94.2986 215.553 94.2986 215.058C94.2986 214.666 94.4013 214.321 94.6066 214.022C94.8213 213.723 95.1153 213.49 95.4886 213.322C95.8619 213.145 96.2866 213.056 96.7626 213.056C97.2293 213.056 97.6726 213.126 98.0926 213.266C98.5126 213.397 98.9373 213.611 99.3666 213.91L98.8626 214.624C98.5079 214.372 98.1533 214.19 97.7986 214.078C97.4439 213.957 97.0846 213.896 96.7206 213.896C96.2726 213.896 95.9133 213.994 95.6426 214.19C95.3719 214.386 95.2366 214.652 95.2366 214.988C95.2366 215.268 95.3206 215.483 95.4886 215.632C95.6659 215.781 95.9739 215.893 96.4126 215.968L97.5606 216.178C98.2513 216.299 98.7553 216.509 99.0726 216.808C99.3899 217.107 99.5486 217.508 99.5486 218.012C99.5486 218.413 99.4319 218.777 99.1986 219.104C98.9653 219.421 98.6479 219.673 98.2466 219.86C97.8453 220.047 97.3926 220.14 96.8886 220.14ZM101.091 220V213.168H102.113V220H101.091ZM101.609 211.474C101.403 211.474 101.226 211.404 101.077 211.264C100.937 211.115 100.867 210.942 100.867 210.746C100.867 210.55 100.937 210.382 101.077 210.242C101.226 210.093 101.403 210.018 101.609 210.018C101.814 210.018 101.987 210.093 102.127 210.242C102.276 210.382 102.351 210.55 102.351 210.746C102.351 210.942 102.276 211.115 102.127 211.264C101.987 211.404 101.814 211.474 101.609 211.474ZM104.208 220V209.99L105.23 209.78V214.106C105.492 213.779 105.809 213.527 106.182 213.35C106.556 213.173 106.971 213.084 107.428 213.084C108.026 213.084 108.558 213.243 109.024 213.56C109.5 213.868 109.878 214.288 110.158 214.82C110.438 215.343 110.578 215.931 110.578 216.584C110.578 217.237 110.434 217.83 110.144 218.362C109.864 218.894 109.482 219.319 108.996 219.636C108.52 219.944 107.979 220.098 107.372 220.098C106.943 220.098 106.542 220.014 106.168 219.846C105.804 219.669 105.487 219.421 105.216 219.104V220H104.208ZM107.176 219.216C107.634 219.216 108.04 219.104 108.394 218.88C108.758 218.647 109.043 218.334 109.248 217.942C109.463 217.541 109.57 217.093 109.57 216.598C109.57 216.094 109.463 215.646 109.248 215.254C109.043 214.862 108.758 214.554 108.394 214.33C108.04 214.097 107.634 213.98 107.176 213.98C106.775 213.98 106.402 214.064 106.056 214.232C105.72 214.391 105.445 214.619 105.23 214.918V218.264C105.454 218.563 105.734 218.796 106.07 218.964C106.416 219.132 106.784 219.216 107.176 219.216ZM112.37 220V209.892L113.392 209.682V220H112.37ZM118.568 220.14C117.933 220.14 117.359 219.986 116.846 219.678C116.332 219.361 115.926 218.936 115.628 218.404C115.329 217.863 115.18 217.256 115.18 216.584C115.18 215.912 115.32 215.31 115.6 214.778C115.889 214.246 116.276 213.826 116.762 213.518C117.247 213.21 117.788 213.056 118.386 213.056C118.992 213.056 119.529 213.21 119.996 213.518C120.472 213.817 120.845 214.227 121.116 214.75C121.396 215.263 121.536 215.847 121.536 216.5V216.808H116.174C116.211 217.275 116.337 217.695 116.552 218.068C116.776 218.432 117.065 218.721 117.42 218.936C117.784 219.141 118.18 219.244 118.61 219.244C118.964 219.244 119.305 219.183 119.632 219.062C119.968 218.931 120.252 218.759 120.486 218.544L121.13 219.23C120.738 219.538 120.332 219.767 119.912 219.916C119.492 220.065 119.044 220.14 118.568 220.14ZM116.202 216.08H120.528C120.481 215.669 120.355 215.305 120.15 214.988C119.954 214.661 119.702 214.405 119.394 214.218C119.095 214.031 118.759 213.938 118.386 213.938C118.012 213.938 117.672 214.031 117.364 214.218C117.056 214.395 116.799 214.647 116.594 214.974C116.398 215.291 116.267 215.66 116.202 216.08ZM125.624 220L129.502 210.2H130.79L134.612 220H133.45L132.288 216.92H127.92L126.758 220H125.624ZM128.256 216.066H131.966L130.104 211.18L128.256 216.066ZM138.021 220.112C137.536 220.112 137.106 220.005 136.733 219.79C136.36 219.575 136.066 219.277 135.851 218.894C135.646 218.511 135.543 218.073 135.543 217.578V213.168H136.579V217.284C136.579 217.891 136.742 218.371 137.069 218.726C137.396 219.081 137.839 219.258 138.399 219.258C138.782 219.258 139.122 219.169 139.421 218.992C139.729 218.815 139.986 218.558 140.191 218.222V213.168H141.213V220H140.191V218.894C139.93 219.295 139.617 219.599 139.253 219.804C138.898 220.009 138.488 220.112 138.021 220.112ZM145.914 220.14C145.326 220.14 144.878 220 144.57 219.72C144.271 219.431 144.122 219.015 144.122 218.474V214.008H142.708V213.168H144.122V211.292L145.144 211.054V213.168H147.104V214.008H145.144V218.208C145.144 218.572 145.218 218.833 145.368 218.992C145.526 219.151 145.783 219.23 146.138 219.23C146.315 219.23 146.474 219.216 146.614 219.188C146.754 219.16 146.917 219.113 147.104 219.048V219.958C146.917 220.023 146.721 220.07 146.516 220.098C146.31 220.126 146.11 220.14 145.914 220.14ZM151.488 220.112C150.853 220.112 150.284 219.958 149.78 219.65C149.276 219.342 148.879 218.922 148.59 218.39C148.301 217.858 148.156 217.256 148.156 216.584C148.156 215.912 148.301 215.31 148.59 214.778C148.879 214.246 149.276 213.826 149.78 213.518C150.284 213.21 150.853 213.056 151.488 213.056C152.113 213.056 152.673 213.21 153.168 213.518C153.672 213.826 154.069 214.246 154.358 214.778C154.647 215.31 154.792 215.912 154.792 216.584C154.792 217.256 154.647 217.858 154.358 218.39C154.069 218.922 153.672 219.342 153.168 219.65C152.673 219.958 152.113 220.112 151.488 220.112ZM151.474 219.216C151.922 219.216 152.319 219.104 152.664 218.88C153.009 218.647 153.28 218.329 153.476 217.928C153.681 217.527 153.784 217.079 153.784 216.584C153.784 216.08 153.681 215.632 153.476 215.24C153.28 214.839 153.009 214.526 152.664 214.302C152.319 214.069 151.922 213.952 151.474 213.952C151.026 213.952 150.629 214.069 150.284 214.302C149.939 214.526 149.663 214.839 149.458 215.24C149.262 215.632 149.164 216.08 149.164 216.584C149.164 217.079 149.262 217.527 149.458 217.928C149.663 218.329 149.939 218.647 150.284 218.88C150.629 219.104 151.026 219.216 151.474 219.216ZM156.585 220V213.168H157.607V214.232C157.868 213.84 158.167 213.546 158.503 213.35C158.839 213.154 159.217 213.056 159.637 213.056C160.122 213.056 160.547 213.177 160.911 213.42C161.275 213.653 161.55 213.975 161.737 214.386C162.008 213.947 162.33 213.616 162.703 213.392C163.086 213.168 163.524 213.056 164.019 213.056C164.476 213.056 164.878 213.163 165.223 213.378C165.578 213.593 165.853 213.891 166.049 214.274C166.245 214.647 166.343 215.086 166.343 215.59V220H165.321V215.842C165.321 215.245 165.172 214.773 164.873 214.428C164.574 214.083 164.164 213.91 163.641 213.91C163.286 213.91 162.964 213.999 162.675 214.176C162.395 214.353 162.148 214.624 161.933 214.988C161.952 215.081 161.966 215.179 161.975 215.282C161.984 215.385 161.989 215.487 161.989 215.59V220H160.967V215.842C160.967 215.245 160.813 214.773 160.505 214.428C160.206 214.083 159.796 213.91 159.273 213.91C158.573 213.91 158.018 214.246 157.607 214.918V220H156.585ZM170.525 220.126C170.04 220.126 169.611 220.037 169.237 219.86C168.864 219.683 168.57 219.44 168.355 219.132C168.15 218.815 168.047 218.451 168.047 218.04C168.047 217.629 168.155 217.275 168.369 216.976C168.584 216.668 168.883 216.43 169.265 216.262C169.648 216.094 170.096 216.01 170.609 216.01C171.001 216.01 171.37 216.052 171.715 216.136C172.07 216.22 172.397 216.355 172.695 216.542V215.604C172.695 215.044 172.546 214.624 172.247 214.344C171.949 214.055 171.51 213.91 170.931 213.91C170.614 213.91 170.287 213.957 169.951 214.05C169.625 214.143 169.261 214.293 168.859 214.498L168.481 213.714C169.396 213.275 170.255 213.056 171.057 213.056C171.907 213.056 172.56 213.266 173.017 213.686C173.475 214.097 173.703 214.689 173.703 215.464V220H172.695V219.202C172.397 219.51 172.065 219.743 171.701 219.902C171.337 220.051 170.945 220.126 170.525 220.126ZM169.027 218.012C169.027 218.413 169.181 218.735 169.489 218.978C169.807 219.221 170.222 219.342 170.735 219.342C171.118 219.342 171.468 219.277 171.785 219.146C172.112 219.015 172.415 218.819 172.695 218.558V217.242C172.406 217.074 172.107 216.953 171.799 216.878C171.491 216.794 171.146 216.752 170.763 216.752C170.241 216.752 169.821 216.869 169.503 217.102C169.186 217.326 169.027 217.629 169.027 218.012ZM178.179 220.14C177.591 220.14 177.143 220 176.835 219.72C176.537 219.431 176.387 219.015 176.387 218.474V214.008H174.973V213.168H176.387V211.292L177.409 211.054V213.168H179.369V214.008H177.409V218.208C177.409 218.572 177.484 218.833 177.633 218.992C177.792 219.151 178.049 219.23 178.403 219.23C178.581 219.23 178.739 219.216 178.879 219.188C179.019 219.16 179.183 219.113 179.369 219.048V219.958C179.183 220.023 178.987 220.07 178.781 220.098C178.576 220.126 178.375 220.14 178.179 220.14ZM180.852 220V213.168H181.874V220H180.852ZM181.37 211.474C181.165 211.474 180.988 211.404 180.838 211.264C180.698 211.115 180.628 210.942 180.628 210.746C180.628 210.55 180.698 210.382 180.838 210.242C180.988 210.093 181.165 210.018 181.37 210.018C181.576 210.018 181.748 210.093 181.888 210.242C182.038 210.382 182.112 210.55 182.112 210.746C182.112 210.942 182.038 211.115 181.888 211.264C181.748 211.404 181.576 211.474 181.37 211.474ZM186.994 220.112C186.359 220.112 185.79 219.958 185.286 219.65C184.782 219.342 184.385 218.922 184.096 218.39C183.807 217.858 183.662 217.256 183.662 216.584C183.662 215.912 183.807 215.31 184.096 214.778C184.385 214.246 184.782 213.826 185.286 213.518C185.79 213.21 186.359 213.056 186.994 213.056C187.619 213.056 188.179 213.21 188.674 213.518C189.178 213.826 189.575 214.246 189.864 214.778C190.153 215.31 190.298 215.912 190.298 216.584C190.298 217.256 190.153 217.858 189.864 218.39C189.575 218.922 189.178 219.342 188.674 219.65C188.179 219.958 187.619 220.112 186.994 220.112ZM186.98 219.216C187.428 219.216 187.825 219.104 188.17 218.88C188.515 218.647 188.786 218.329 188.982 217.928C189.187 217.527 189.29 217.079 189.29 216.584C189.29 216.08 189.187 215.632 188.982 215.24C188.786 214.839 188.515 214.526 188.17 214.302C187.825 214.069 187.428 213.952 186.98 213.952C186.532 213.952 186.135 214.069 185.79 214.302C185.445 214.526 185.169 214.839 184.964 215.24C184.768 215.632 184.67 216.08 184.67 216.584C184.67 217.079 184.768 217.527 184.964 217.928C185.169 218.329 185.445 218.647 185.79 218.88C186.135 219.104 186.532 219.216 186.98 219.216ZM192.091 220V213.168H193.113V214.274C193.374 213.863 193.687 213.56 194.051 213.364C194.415 213.159 194.826 213.056 195.283 213.056C195.778 213.056 196.207 213.163 196.571 213.378C196.944 213.583 197.234 213.877 197.439 214.26C197.654 214.633 197.761 215.072 197.761 215.576V220H196.739V215.87C196.739 215.263 196.571 214.787 196.235 214.442C195.908 214.087 195.465 213.91 194.905 213.91C194.532 213.91 194.191 213.999 193.883 214.176C193.575 214.353 193.318 214.615 193.113 214.96V220H192.091ZM203.279 220V210.2H207.325C207.96 210.2 208.511 210.321 208.977 210.564C209.444 210.797 209.803 211.133 210.055 211.572C210.317 212.001 210.447 212.51 210.447 213.098C210.447 213.677 210.317 214.185 210.055 214.624C209.803 215.063 209.444 215.403 208.977 215.646C208.511 215.879 207.96 215.996 207.325 215.996H204.357V220H203.279ZM204.357 215.072H207.199C207.881 215.072 208.413 214.895 208.795 214.54C209.178 214.185 209.369 213.705 209.369 213.098C209.369 212.491 209.178 212.015 208.795 211.67C208.413 211.325 207.881 211.152 207.199 211.152H204.357V215.072ZM212.243 220V209.892L213.265 209.682V220H212.243ZM217.475 220.126C216.989 220.126 216.56 220.037 216.187 219.86C215.813 219.683 215.519 219.44 215.305 219.132C215.099 218.815 214.997 218.451 214.997 218.04C214.997 217.629 215.104 217.275 215.319 216.976C215.533 216.668 215.832 216.43 216.215 216.262C216.597 216.094 217.045 216.01 217.559 216.01C217.951 216.01 218.319 216.052 218.665 216.136C219.019 216.22 219.346 216.355 219.645 216.542V215.604C219.645 215.044 219.495 214.624 219.197 214.344C218.898 214.055 218.459 213.91 217.881 213.91C217.563 213.91 217.237 213.957 216.901 214.05C216.574 214.143 216.21 214.293 215.809 214.498L215.431 213.714C216.345 213.275 217.204 213.056 218.007 213.056C218.856 213.056 219.509 213.266 219.967 213.686C220.424 214.097 220.653 214.689 220.653 215.464V220H219.645V219.202C219.346 219.51 219.015 219.743 218.651 219.902C218.287 220.051 217.895 220.126 217.475 220.126ZM215.977 218.012C215.977 218.413 216.131 218.735 216.439 218.978C216.756 219.221 217.171 219.342 217.685 219.342C218.067 219.342 218.417 219.277 218.735 219.146C219.061 219.015 219.365 218.819 219.645 218.558V217.242C219.355 217.074 219.057 216.953 218.749 216.878C218.441 216.794 218.095 216.752 217.713 216.752C217.19 216.752 216.77 216.869 216.453 217.102C216.135 217.326 215.977 217.629 215.977 218.012ZM225.129 220.14C224.541 220.14 224.093 220 223.785 219.72C223.486 219.431 223.337 219.015 223.337 218.474V214.008H221.923V213.168H223.337V211.292L224.359 211.054V213.168H226.319V214.008H224.359V218.208C224.359 218.572 224.433 218.833 224.583 218.992C224.741 219.151 224.998 219.23 225.353 219.23C225.53 219.23 225.689 219.216 225.829 219.188C225.969 219.16 226.132 219.113 226.319 219.048V219.958C226.132 220.023 225.936 220.07 225.731 220.098C225.525 220.126 225.325 220.14 225.129 220.14ZM228.82 220V214.008H227.294V213.168H228.82V211.74C228.82 211.068 228.998 210.55 229.352 210.186C229.707 209.822 230.211 209.64 230.864 209.64C231.051 209.64 231.219 209.649 231.368 209.668C231.527 209.687 231.667 209.719 231.788 209.766V210.69C231.639 210.643 231.504 210.611 231.382 210.592C231.261 210.573 231.121 210.564 230.962 210.564C230.57 210.564 230.286 210.662 230.108 210.858C229.931 211.045 229.842 211.343 229.842 211.754V213.168H231.788V214.008H229.842V220H228.82ZM235.871 220.112C235.236 220.112 234.667 219.958 234.163 219.65C233.659 219.342 233.262 218.922 232.973 218.39C232.684 217.858 232.539 217.256 232.539 216.584C232.539 215.912 232.684 215.31 232.973 214.778C233.262 214.246 233.659 213.826 234.163 213.518C234.667 213.21 235.236 213.056 235.871 213.056C236.496 213.056 237.056 213.21 237.551 213.518C238.055 213.826 238.452 214.246 238.741 214.778C239.03 215.31 239.175 215.912 239.175 216.584C239.175 217.256 239.03 217.858 238.741 218.39C238.452 218.922 238.055 219.342 237.551 219.65C237.056 219.958 236.496 220.112 235.871 220.112ZM235.857 219.216C236.305 219.216 236.702 219.104 237.047 218.88C237.392 218.647 237.663 218.329 237.859 217.928C238.064 217.527 238.167 217.079 238.167 216.584C238.167 216.08 238.064 215.632 237.859 215.24C237.663 214.839 237.392 214.526 237.047 214.302C236.702 214.069 236.305 213.952 235.857 213.952C235.409 213.952 235.012 214.069 234.667 214.302C234.322 214.526 234.046 214.839 233.841 215.24C233.645 215.632 233.547 216.08 233.547 216.584C233.547 217.079 233.645 217.527 233.841 217.928C234.046 218.329 234.322 218.647 234.667 218.88C235.012 219.104 235.409 219.216 235.857 219.216ZM240.968 220V213.168H241.99V214.568C242.167 214.092 242.419 213.723 242.746 213.462C243.082 213.191 243.465 213.056 243.894 213.056C244.015 213.056 244.127 213.065 244.23 213.084C244.333 213.093 244.435 213.117 244.538 213.154V214.078C244.426 214.041 244.305 214.013 244.174 213.994C244.053 213.966 243.936 213.952 243.824 213.952C243.404 213.952 243.035 214.073 242.718 214.316C242.41 214.559 242.167 214.899 241.99 215.338V220H240.968ZM245.89 220V213.168H246.912V214.232C247.173 213.84 247.472 213.546 247.808 213.35C248.144 213.154 248.522 213.056 248.942 213.056C249.427 213.056 249.852 213.177 250.216 213.42C250.58 213.653 250.855 213.975 251.042 214.386C251.313 213.947 251.635 213.616 252.008 213.392C252.391 213.168 252.829 213.056 253.324 213.056C253.781 213.056 254.183 213.163 254.528 213.378C254.883 213.593 255.158 213.891 255.354 214.274C255.55 214.647 255.648 215.086 255.648 215.59V220H254.626V215.842C254.626 215.245 254.477 214.773 254.178 214.428C253.879 214.083 253.469 213.91 252.946 213.91C252.591 213.91 252.269 213.999 251.98 214.176C251.7 214.353 251.453 214.624 251.238 214.988C251.257 215.081 251.271 215.179 251.28 215.282C251.289 215.385 251.294 215.487 251.294 215.59V220H250.272V215.842C250.272 215.245 250.118 214.773 249.81 214.428C249.511 214.083 249.101 213.91 248.578 213.91C247.878 213.91 247.323 214.246 246.912 214.918V220H245.89Z" fill="#151515"/>
</g>
<path d="M10 41V42H324V41V40H10V41ZM327 44H326V239H327H328V44H327ZM324 242V241H9.99999V242V243H324V242ZM7 239H8V44H7H6V239H7ZM9.99999 242V241C8.89543 241 8 240.105 8 239H7H6C6 241.209 7.79085 243 9.99999 243V242ZM327 239H326C326 240.105 325.105 241 324 241V242V243C326.209 243 328 241.209 328 239H327ZM324 41V42C325.105 42 326 42.8954 326 44H327H328C328 41.7909 326.209 40 324 40V41ZM10 41V40C7.79086 40 6 41.7909 6 44H7H8C8 42.8954 8.89543 42 10 42V41Z" fill="#C7C7C7" mask="url(#path-5-inside-2_4111_7226)"/>
</g>
<circle cx="35" cy="18.5518" r="12" fill="#EE0000" fill-opacity="0.1"/>
<circle cx="35" cy="104.5" r="12" fill="#EE0000" fill-opacity="0.1"/>
<circle cx="35" cy="141.938" r="12" fill="#EE0000" fill-opacity="0.1"/>
<circle cx="35" cy="179.376" r="12" fill="#EE0000" fill-opacity="0.1"/>
<circle cx="35" cy="215.5" r="12" fill="#EE0000" fill-opacity="0.1"/>
<defs>
<filter id="filter0_d_4111_7226" x="0" y="38" width="334" height="215" filterUnits="userSpaceOnUse" color-interpolation-filters="sRGB">
<feFlood flood-opacity="0" result="BackgroundImageFix"/>
<feColorMatrix in="SourceAlpha" type="matrix" values="0 0 0 0 0 0 0 0 0 0 0 0 0 0 0 0 0 0 127 0" result="hardAlpha"/>
<feMorphology radius="1" operator="dilate" in="SourceAlpha" result="effect1_dropShadow_4111_7226"/>
<feOffset dy="4"/>
<feGaussianBlur stdDeviation="3"/>
<feComposite in2="hardAlpha" operator="out"/>
<feColorMatrix type="matrix" values="0 0 0 0 0.0823529 0 0 0 0 0.0823529 0 0 0 0 0.0823529 0 0 0 0.25 0"/>
<feBlend mode="normal" in2="BackgroundImageFix" result="effect1_dropShadow_4111_7226"/>
<feBlend mode="normal" in="SourceGraphic" in2="effect1_dropShadow_4111_7226" result="shape"/>
</filter>
<clipPath id="clip0_4111_7226">
<path d="M7 44C7 42.3431 8.34315 41 10 41H324C325.657 41 327 42.3431 327 44V239C327 240.657 325.657 242 324 242H9.99999C8.34314 242 7 240.657 7 239V44Z" fill="white"/>
</clipPath>
</defs>
</svg>
