<svg width="334" height="216" viewBox="0 0 334 216" fill="none" xmlns="http://www.w3.org/2000/svg">
<mask id="path-1-inside-1_10061_2401" fill="white">
<path d="M7 3C7 1.34315 8.34315 0 10 0H324C325.657 0 327 1.34315 327 3V34C327 35.6569 325.657 37 324 37H9.99999C8.34314 37 7 35.6569 7 34V3Z"/>
</mask>
<path d="M7 3C7 1.34315 8.34315 0 10 0H324C325.657 0 327 1.34315 327 3V34C327 35.6569 325.657 37 324 37H9.99999C8.34314 37 7 35.6569 7 34V3Z" fill="white"/>
<path d="M10 0V2H324V0V-2H10V0ZM327 3H325V34H327H329V3H327ZM324 37V35H9.99999V37V39H324V37ZM7 34H9V3H7H5V34H7ZM9.99999 37V35C9.44771 35 9 34.5523 9 34H7H5C5 36.7614 7.23856 39 9.99999 39V37ZM327 34H325C325 34.5523 324.552 35 324 35V37V39C326.761 39 329 36.7614 329 34H327ZM324 0V2C324.552 2 325 2.44771 325 3H327H329C329 0.238583 326.761 -2 324 -2V0ZM10 0V-2C7.23858 -2 5 0.238577 5 3H7H9C9 2.44772 9.44772 2 10 2V0Z" fill="#0066CC" mask="url(#path-1-inside-1_10061_2401)"/>
<path d="M27.41 23.154C26.6447 23.154 25.9353 23.0187 25.282 22.748C24.6287 22.468 23.9987 22.048 23.392 21.488L24.05 20.704C24.638 21.2547 25.1887 21.6467 25.702 21.88C26.2247 22.1133 26.8033 22.23 27.438 22.23C27.942 22.23 28.39 22.146 28.782 21.978C29.1833 21.8007 29.496 21.5627 29.72 21.264C29.944 20.9653 30.056 20.6247 30.056 20.242C30.056 19.7473 29.8927 19.374 29.566 19.122C29.2393 18.8607 28.6747 18.66 27.872 18.52L26.29 18.254C25.394 18.0953 24.736 17.8247 24.316 17.442C23.9053 17.05 23.7 16.5273 23.7 15.874C23.7 15.3233 23.84 14.838 24.12 14.418C24.4093 13.9887 24.806 13.6527 25.31 13.41C25.814 13.1673 26.3973 13.046 27.06 13.046C27.788 13.046 28.4647 13.1487 29.09 13.354C29.7153 13.55 30.3313 13.8627 30.938 14.292L30.378 15.132C29.874 14.7493 29.342 14.46 28.782 14.264C28.222 14.0587 27.6527 13.956 27.074 13.956C26.6167 13.956 26.2107 14.0353 25.856 14.194C25.5107 14.3527 25.2353 14.5673 25.03 14.838C24.834 15.1087 24.736 15.4167 24.736 15.762C24.736 16.1913 24.8807 16.5273 25.17 16.77C25.4593 17.0127 25.9307 17.1853 26.584 17.288L28.152 17.554C29.1973 17.7407 29.9533 18.044 30.42 18.464C30.896 18.8747 31.134 19.4487 31.134 20.186C31.134 20.7553 30.9707 21.264 30.644 21.712C30.3267 22.16 29.888 22.5147 29.328 22.776C28.768 23.028 28.1287 23.154 27.41 23.154ZM35.9894 23.14C35.3547 23.14 34.7807 22.986 34.2674 22.678C33.754 22.3607 33.348 21.936 33.0494 21.404C32.7507 20.8627 32.6014 20.256 32.6014 19.584C32.6014 18.912 32.7414 18.31 33.0214 17.778C33.3107 17.246 33.698 16.826 34.1834 16.518C34.6687 16.21 35.21 16.056 35.8074 16.056C36.414 16.056 36.9507 16.21 37.4174 16.518C37.8934 16.8167 38.2667 17.2273 38.5374 17.75C38.8174 18.2633 38.9574 18.8467 38.9574 19.5V19.808H33.5954C33.6327 20.2747 33.7587 20.6947 33.9734 21.068C34.1974 21.432 34.4867 21.7213 34.8414 21.936C35.2054 22.1413 35.602 22.244 36.0314 22.244C36.386 22.244 36.7267 22.1833 37.0534 22.062C37.3894 21.9313 37.674 21.7587 37.9074 21.544L38.5514 22.23C38.1594 22.538 37.7534 22.7667 37.3334 22.916C36.9134 23.0653 36.4654 23.14 35.9894 23.14ZM33.6234 19.08H37.9494C37.9027 18.6693 37.7767 18.3053 37.5714 17.988C37.3754 17.6613 37.1234 17.4047 36.8154 17.218C36.5167 17.0313 36.1807 16.938 35.8074 16.938C35.434 16.938 35.0934 17.0313 34.7854 17.218C34.4774 17.3953 34.2207 17.6473 34.0154 17.974C33.8194 18.2913 33.6887 18.66 33.6234 19.08ZM40.7023 23V12.892L41.7243 12.682V23H40.7023ZM46.8995 23.14C46.2649 23.14 45.6909 22.986 45.1775 22.678C44.6642 22.3607 44.2582 21.936 43.9595 21.404C43.6609 20.8627 43.5115 20.256 43.5115 19.584C43.5115 18.912 43.6515 18.31 43.9315 17.778C44.2209 17.246 44.6082 16.826 45.0935 16.518C45.5789 16.21 46.1202 16.056 46.7175 16.056C47.3242 16.056 47.8609 16.21 48.3275 16.518C48.8035 16.8167 49.1769 17.2273 49.4475 17.75C49.7275 18.2633 49.8675 18.8467 49.8675 19.5V19.808H44.5055C44.5429 20.2747 44.6689 20.6947 44.8835 21.068C45.1075 21.432 45.3969 21.7213 45.7515 21.936C46.1155 22.1413 46.5122 22.244 46.9415 22.244C47.2962 22.244 47.6369 22.1833 47.9635 22.062C48.2995 21.9313 48.5842 21.7587 48.8175 21.544L49.4615 22.23C49.0695 22.538 48.6635 22.7667 48.2435 22.916C47.8235 23.0653 47.3755 23.14 46.8995 23.14ZM44.5335 19.08H48.8595C48.8129 18.6693 48.6869 18.3053 48.4815 17.988C48.2855 17.6613 48.0335 17.4047 47.7255 17.218C47.4269 17.0313 47.0909 16.938 46.7175 16.938C46.3442 16.938 46.0035 17.0313 45.6955 17.218C45.3875 17.3953 45.1309 17.6473 44.9255 17.974C44.7295 18.2913 44.5989 18.66 44.5335 19.08ZM54.6785 23.112C54.0438 23.112 53.4698 22.958 52.9565 22.65C52.4525 22.3327 52.0512 21.908 51.7525 21.376C51.4538 20.8347 51.3045 20.2373 51.3045 19.584C51.3045 18.9213 51.4538 18.324 51.7525 17.792C52.0512 17.26 52.4525 16.84 52.9565 16.532C53.4698 16.2147 54.0438 16.056 54.6785 16.056C55.1825 16.056 55.6632 16.1493 56.1205 16.336C56.5778 16.5227 56.9745 16.784 57.3105 17.12L56.6525 17.834C56.4098 17.5633 56.1158 17.3533 55.7705 17.204C55.4252 17.0547 55.0752 16.98 54.7205 16.98C54.2725 16.98 53.8665 17.0967 53.5025 17.33C53.1478 17.5633 52.8632 17.876 52.6485 18.268C52.4338 18.66 52.3265 19.0987 52.3265 19.584C52.3265 20.0693 52.4338 20.508 52.6485 20.9C52.8632 21.292 53.1478 21.6047 53.5025 21.838C53.8665 22.0713 54.2725 22.188 54.7205 22.188C55.0752 22.188 55.4252 22.1133 55.7705 21.964C56.1158 21.8053 56.4098 21.5953 56.6525 21.334L57.3105 22.048C56.9745 22.384 56.5778 22.6453 56.1205 22.832C55.6632 23.0187 55.1825 23.112 54.6785 23.112ZM61.4763 23.14C60.8883 23.14 60.4403 23 60.1323 22.72C59.8336 22.4307 59.6843 22.0153 59.6843 21.474V17.008H58.2703V16.168H59.6843V14.292L60.7063 14.054V16.168H62.6663V17.008H60.7063V21.208C60.7063 21.572 60.7809 21.8333 60.9303 21.992C61.0889 22.1507 61.3456 22.23 61.7003 22.23C61.8776 22.23 62.0363 22.216 62.1763 22.188C62.3163 22.16 62.4796 22.1133 62.6663 22.048V22.958C62.4796 23.0233 62.2836 23.07 62.0783 23.098C61.8729 23.126 61.6723 23.14 61.4763 23.14ZM69.5449 23.126C69.0595 23.126 68.6302 23.0373 68.2569 22.86C67.8835 22.6827 67.5895 22.44 67.3749 22.132C67.1695 21.8147 67.0669 21.4507 67.0669 21.04C67.0669 20.6293 67.1742 20.2747 67.3889 19.976C67.6035 19.668 67.9022 19.43 68.2849 19.262C68.6675 19.094 69.1155 19.01 69.6289 19.01C70.0209 19.01 70.3895 19.052 70.7349 19.136C71.0895 19.22 71.4162 19.3553 71.7149 19.542V18.604C71.7149 18.044 71.5655 17.624 71.2669 17.344C70.9682 17.0547 70.5295 16.91 69.9509 16.91C69.6335 16.91 69.3069 16.9567 68.9709 17.05C68.6442 17.1433 68.2802 17.2927 67.8789 17.498L67.5009 16.714C68.4155 16.2753 69.2742 16.056 70.0769 16.056C70.9262 16.056 71.5795 16.266 72.0369 16.686C72.4942 17.0967 72.7229 17.6893 72.7229 18.464V23H71.7149V22.202C71.4162 22.51 71.0849 22.7433 70.7209 22.902C70.3569 23.0513 69.9649 23.126 69.5449 23.126ZM68.0469 21.012C68.0469 21.4133 68.2009 21.7353 68.5089 21.978C68.8262 22.2207 69.2415 22.342 69.7549 22.342C70.1375 22.342 70.4875 22.2767 70.8049 22.146C71.1315 22.0153 71.4349 21.8193 71.7149 21.558V20.242C71.4255 20.074 71.1269 19.9527 70.8189 19.878C70.5109 19.794 70.1655 19.752 69.7829 19.752C69.2602 19.752 68.8402 19.8687 68.5229 20.102C68.2055 20.326 68.0469 20.6293 68.0469 21.012ZM74.8 23V16.168H75.822V17.274C76.0833 16.8633 76.396 16.56 76.76 16.364C77.124 16.1587 77.5347 16.056 77.992 16.056C78.4867 16.056 78.916 16.1633 79.28 16.378C79.6533 16.5833 79.9427 16.8773 80.148 17.26C80.3627 17.6333 80.47 18.072 80.47 18.576V23H79.448V18.87C79.448 18.2633 79.28 17.7873 78.944 17.442C78.6173 17.0873 78.174 16.91 77.614 16.91C77.2407 16.91 76.9 16.9987 76.592 17.176C76.284 17.3533 76.0273 17.6147 75.822 17.96V23H74.8ZM87.9062 23.126C87.4209 23.126 86.9915 23.0373 86.6182 22.86C86.2449 22.6827 85.9509 22.44 85.7362 22.132C85.5309 21.8147 85.4282 21.4507 85.4282 21.04C85.4282 20.6293 85.5355 20.2747 85.7502 19.976C85.9649 19.668 86.2635 19.43 86.6462 19.262C87.0289 19.094 87.4769 19.01 87.9902 19.01C88.3822 19.01 88.7509 19.052 89.0962 19.136C89.4509 19.22 89.7775 19.3553 90.0762 19.542V18.604C90.0762 18.044 89.9269 17.624 89.6282 17.344C89.3295 17.0547 88.8909 16.91 88.3122 16.91C87.9949 16.91 87.6682 16.9567 87.3322 17.05C87.0055 17.1433 86.6415 17.2927 86.2402 17.498L85.8622 16.714C86.7769 16.2753 87.6355 16.056 88.4382 16.056C89.2875 16.056 89.9409 16.266 90.3982 16.686C90.8555 17.0967 91.0842 17.6893 91.0842 18.464V23H90.0762V22.202C89.7775 22.51 89.4462 22.7433 89.0822 22.902C88.7182 23.0513 88.3262 23.126 87.9062 23.126ZM86.4082 21.012C86.4082 21.4133 86.5622 21.7353 86.8702 21.978C87.1875 22.2207 87.6029 22.342 88.1162 22.342C88.4989 22.342 88.8489 22.2767 89.1662 22.146C89.4929 22.0153 89.7962 21.8193 90.0762 21.558V20.242C89.7869 20.074 89.4882 19.9527 89.1802 19.878C88.8722 19.794 88.5269 19.752 88.1442 19.752C87.6215 19.752 87.2015 19.8687 86.8842 20.102C86.5669 20.326 86.4082 20.6293 86.4082 21.012ZM93.1613 23V16.168H94.1833V17.274C94.4447 16.8633 94.7573 16.56 95.1213 16.364C95.4853 16.1587 95.896 16.056 96.3533 16.056C96.848 16.056 97.2773 16.1633 97.6413 16.378C98.0147 16.5833 98.304 16.8773 98.5093 17.26C98.724 17.6333 98.8313 18.072 98.8313 18.576V23H97.8093V18.87C97.8093 18.2633 97.6413 17.7873 97.3053 17.442C96.9787 17.0873 96.5353 16.91 95.9753 16.91C95.602 16.91 95.2613 16.9987 94.9533 17.176C94.6453 17.3533 94.3887 17.6147 94.1833 17.96V23H93.1613ZM100.872 23V16.168H101.894V23H100.872ZM101.39 14.474C101.185 14.474 101.007 14.404 100.858 14.264C100.718 14.1147 100.648 13.942 100.648 13.746C100.648 13.55 100.718 13.382 100.858 13.242C101.007 13.0927 101.185 13.018 101.39 13.018C101.595 13.018 101.768 13.0927 101.908 13.242C102.057 13.382 102.132 13.55 102.132 13.746C102.132 13.942 102.057 14.1147 101.908 14.264C101.768 14.404 101.595 14.474 101.39 14.474ZM103.989 23V16.168H105.011V17.232C105.273 16.84 105.571 16.546 105.907 16.35C106.243 16.154 106.621 16.056 107.041 16.056C107.527 16.056 107.951 16.1773 108.315 16.42C108.679 16.6533 108.955 16.9753 109.141 17.386C109.412 16.9473 109.734 16.616 110.107 16.392C110.49 16.168 110.929 16.056 111.423 16.056C111.881 16.056 112.282 16.1633 112.627 16.378C112.982 16.5927 113.257 16.8913 113.453 17.274C113.649 17.6473 113.747 18.086 113.747 18.59V23H112.725V18.842C112.725 18.2447 112.576 17.7733 112.277 17.428C111.979 17.0827 111.568 16.91 111.045 16.91C110.691 16.91 110.369 16.9987 110.079 17.176C109.799 17.3533 109.552 17.624 109.337 17.988C109.356 18.0813 109.37 18.1793 109.379 18.282C109.389 18.3847 109.393 18.4873 109.393 18.59V23H108.371V18.842C108.371 18.2447 108.217 17.7733 107.909 17.428C107.611 17.0827 107.2 16.91 106.677 16.91C105.977 16.91 105.422 17.246 105.011 17.918V23H103.989ZM117.93 23.126C117.444 23.126 117.015 23.0373 116.642 22.86C116.268 22.6827 115.974 22.44 115.76 22.132C115.554 21.8147 115.452 21.4507 115.452 21.04C115.452 20.6293 115.559 20.2747 115.774 19.976C115.988 19.668 116.287 19.43 116.67 19.262C117.052 19.094 117.5 19.01 118.014 19.01C118.406 19.01 118.774 19.052 119.12 19.136C119.474 19.22 119.801 19.3553 120.1 19.542V18.604C120.1 18.044 119.95 17.624 119.652 17.344C119.353 17.0547 118.914 16.91 118.336 16.91C118.018 16.91 117.692 16.9567 117.356 17.05C117.029 17.1433 116.665 17.2927 116.264 17.498L115.886 16.714C116.8 16.2753 117.659 16.056 118.462 16.056C119.311 16.056 119.964 16.266 120.422 16.686C120.879 17.0967 121.108 17.6893 121.108 18.464V23H120.1V22.202C119.801 22.51 119.47 22.7433 119.106 22.902C118.742 23.0513 118.35 23.126 117.93 23.126ZM116.432 21.012C116.432 21.4133 116.586 21.7353 116.894 21.978C117.211 22.2207 117.626 22.342 118.14 22.342C118.522 22.342 118.872 22.2767 119.19 22.146C119.516 22.0153 119.82 21.8193 120.1 21.558V20.242C119.81 20.074 119.512 19.9527 119.204 19.878C118.896 19.794 118.55 19.752 118.168 19.752C117.645 19.752 117.225 19.8687 116.908 20.102C116.59 20.326 116.432 20.6293 116.432 21.012ZM123.185 23V12.892L124.207 12.682V23H123.185Z" fill="#151515"/>
<path d="M310.354 20.1465L306.53 16.3232C306.238 16.0303 305.762 16.0303 305.47 16.3232L301.647 20.1465C301.504 20.2895 301.461 20.5044 301.538 20.6914C301.615 20.8784 301.798 21 302 21H310C310.202 21 310.385 20.8784 310.462 20.6914C310.54 20.5044 310.497 20.2895 310.354 20.1465Z" fill="#151515"/>
<g filter="url(#filter0_d_10061_2401)">
<g clip-path="url(#clip0_10061_2401)">
<mask id="path-5-inside-2_10061_2401" fill="white">
<path d="M7 44C7 42.3431 8.34315 41 10 41H324C325.657 41 327 42.3431 327 44V202C327 203.657 325.657 205 324 205H9.99999C8.34314 205 7 203.657 7 202V44Z"/>
</mask>
<path d="M7 44C7 42.3431 8.34315 41 10 41H324C325.657 41 327 42.3431 327 44V202C327 203.657 325.657 205 324 205H9.99999C8.34314 205 7 203.657 7 202V44Z" fill="white"/>
<mask id="path-7-inside-3_10061_2401" fill="white">
<path d="M7 41H327V205H7V41Z"/>
</mask>
<path d="M7 41V42H327V41V40H7V41Z" fill="#C7C7C7" mask="url(#path-7-inside-3_10061_2401)"/>
<path d="M7 52C7 50.3431 8.34315 49 10 49H324C325.657 49 327 50.3431 327 52V83C327 84.6569 325.657 86 324 86H9.99999C8.34314 86 7 84.6569 7 83V52Z" fill="#F2F2F2"/>
<mask id="path-10-outside-4_10061_2401" maskUnits="userSpaceOnUse" x="10" y="52" width="314" height="31" fill="black">
<rect fill="white" x="10" y="52" width="314" height="31"/>
<path d="M13 58C13 56.3431 14.3431 55 16 55H318C319.657 55 321 56.3431 321 58V77C321 78.6569 319.657 80 318 80H16C14.3431 80 13 78.6569 13 77V58Z"/>
</mask>
<path d="M16 55V58H318V55V52H16V55ZM321 58H318V77H321H324V58H321ZM318 80V77H16V80V83H318V80ZM13 77H16V58H13H10V77H13ZM16 80V77H16H13H10C10 80.3137 12.6863 83 16 83V80ZM321 77H318V77V80V83C321.314 83 324 80.3137 324 77H321ZM318 55V58V58H321H324C324 54.6863 321.314 52 318 52V55ZM16 55V52C12.6863 52 10 54.6863 10 58H13H16V58V55Z" fill="#0066CC" mask="url(#path-10-outside-4_10061_2401)"/>
<path d="M27.41 72.154C26.6447 72.154 25.9353 72.0187 25.282 71.748C24.6287 71.468 23.9987 71.048 23.392 70.488L24.05 69.704C24.638 70.2547 25.1887 70.6467 25.702 70.88C26.2247 71.1133 26.8033 71.23 27.438 71.23C27.942 71.23 28.39 71.146 28.782 70.978C29.1833 70.8007 29.496 70.5627 29.72 70.264C29.944 69.9653 30.056 69.6247 30.056 69.242C30.056 68.7473 29.8927 68.374 29.566 68.122C29.2393 67.8607 28.6747 67.66 27.872 67.52L26.29 67.254C25.394 67.0953 24.736 66.8247 24.316 66.442C23.9053 66.05 23.7 65.5273 23.7 64.874C23.7 64.3233 23.84 63.838 24.12 63.418C24.4093 62.9887 24.806 62.6527 25.31 62.41C25.814 62.1673 26.3973 62.046 27.06 62.046C27.788 62.046 28.4647 62.1487 29.09 62.354C29.7153 62.55 30.3313 62.8627 30.938 63.292L30.378 64.132C29.874 63.7493 29.342 63.46 28.782 63.264C28.222 63.0587 27.6527 62.956 27.074 62.956C26.6167 62.956 26.2107 63.0353 25.856 63.194C25.5107 63.3527 25.2353 63.5673 25.03 63.838C24.834 64.1087 24.736 64.4167 24.736 64.762C24.736 65.1913 24.8807 65.5273 25.17 65.77C25.4593 66.0127 25.9307 66.1853 26.584 66.288L28.152 66.554C29.1973 66.7407 29.9533 67.044 30.42 67.464C30.896 67.8747 31.134 68.4487 31.134 69.186C31.134 69.7553 30.9707 70.264 30.644 70.712C30.3267 71.16 29.888 71.5147 29.328 71.776C28.768 72.028 28.1287 72.154 27.41 72.154ZM35.9894 72.14C35.3547 72.14 34.7807 71.986 34.2674 71.678C33.754 71.3607 33.348 70.936 33.0494 70.404C32.7507 69.8627 32.6014 69.256 32.6014 68.584C32.6014 67.912 32.7414 67.31 33.0214 66.778C33.3107 66.246 33.698 65.826 34.1834 65.518C34.6687 65.21 35.21 65.056 35.8074 65.056C36.414 65.056 36.9507 65.21 37.4174 65.518C37.8934 65.8167 38.2667 66.2273 38.5374 66.75C38.8174 67.2633 38.9574 67.8467 38.9574 68.5V68.808H33.5954C33.6327 69.2747 33.7587 69.6947 33.9734 70.068C34.1974 70.432 34.4867 70.7213 34.8414 70.936C35.2054 71.1413 35.602 71.244 36.0314 71.244C36.386 71.244 36.7267 71.1833 37.0534 71.062C37.3894 70.9313 37.674 70.7587 37.9074 70.544L38.5514 71.23C38.1594 71.538 37.7534 71.7667 37.3334 71.916C36.9134 72.0653 36.4654 72.14 35.9894 72.14ZM33.6234 68.08H37.9494C37.9027 67.6693 37.7767 67.3053 37.5714 66.988C37.3754 66.6613 37.1234 66.4047 36.8154 66.218C36.5167 66.0313 36.1807 65.938 35.8074 65.938C35.434 65.938 35.0934 66.0313 34.7854 66.218C34.4774 66.3953 34.2207 66.6473 34.0154 66.974C33.8194 67.2913 33.6887 67.66 33.6234 68.08ZM40.7023 72V61.892L41.7243 61.682V72H40.7023ZM46.8995 72.14C46.2649 72.14 45.6909 71.986 45.1775 71.678C44.6642 71.3607 44.2582 70.936 43.9595 70.404C43.6609 69.8627 43.5115 69.256 43.5115 68.584C43.5115 67.912 43.6515 67.31 43.9315 66.778C44.2209 66.246 44.6082 65.826 45.0935 65.518C45.5789 65.21 46.1202 65.056 46.7175 65.056C47.3242 65.056 47.8609 65.21 48.3275 65.518C48.8035 65.8167 49.1769 66.2273 49.4475 66.75C49.7275 67.2633 49.8675 67.8467 49.8675 68.5V68.808H44.5055C44.5429 69.2747 44.6689 69.6947 44.8835 70.068C45.1075 70.432 45.3969 70.7213 45.7515 70.936C46.1155 71.1413 46.5122 71.244 46.9415 71.244C47.2962 71.244 47.6369 71.1833 47.9635 71.062C48.2995 70.9313 48.5842 70.7587 48.8175 70.544L49.4615 71.23C49.0695 71.538 48.6635 71.7667 48.2435 71.916C47.8235 72.0653 47.3755 72.14 46.8995 72.14ZM44.5335 68.08H48.8595C48.8129 67.6693 48.6869 67.3053 48.4815 66.988C48.2855 66.6613 48.0335 66.4047 47.7255 66.218C47.4269 66.0313 47.0909 65.938 46.7175 65.938C46.3442 65.938 46.0035 66.0313 45.6955 66.218C45.3875 66.3953 45.1309 66.6473 44.9255 66.974C44.7295 67.2913 44.5989 67.66 44.5335 68.08ZM54.6785 72.112C54.0438 72.112 53.4698 71.958 52.9565 71.65C52.4525 71.3327 52.0512 70.908 51.7525 70.376C51.4538 69.8347 51.3045 69.2373 51.3045 68.584C51.3045 67.9213 51.4538 67.324 51.7525 66.792C52.0512 66.26 52.4525 65.84 52.9565 65.532C53.4698 65.2147 54.0438 65.056 54.6785 65.056C55.1825 65.056 55.6632 65.1493 56.1205 65.336C56.5778 65.5227 56.9745 65.784 57.3105 66.12L56.6525 66.834C56.4098 66.5633 56.1158 66.3533 55.7705 66.204C55.4252 66.0547 55.0752 65.98 54.7205 65.98C54.2725 65.98 53.8665 66.0967 53.5025 66.33C53.1478 66.5633 52.8632 66.876 52.6485 67.268C52.4338 67.66 52.3265 68.0987 52.3265 68.584C52.3265 69.0693 52.4338 69.508 52.6485 69.9C52.8632 70.292 53.1478 70.6047 53.5025 70.838C53.8665 71.0713 54.2725 71.188 54.7205 71.188C55.0752 71.188 55.4252 71.1133 55.7705 70.964C56.1158 70.8053 56.4098 70.5953 56.6525 70.334L57.3105 71.048C56.9745 71.384 56.5778 71.6453 56.1205 71.832C55.6632 72.0187 55.1825 72.112 54.6785 72.112ZM61.4763 72.14C60.8883 72.14 60.4403 72 60.1323 71.72C59.8336 71.4307 59.6843 71.0153 59.6843 70.474V66.008H58.2703V65.168H59.6843V63.292L60.7063 63.054V65.168H62.6663V66.008H60.7063V70.208C60.7063 70.572 60.7809 70.8333 60.9303 70.992C61.0889 71.1507 61.3456 71.23 61.7003 71.23C61.8776 71.23 62.0363 71.216 62.1763 71.188C62.3163 71.16 62.4796 71.1133 62.6663 71.048V71.958C62.4796 72.0233 62.2836 72.07 62.0783 72.098C61.8729 72.126 61.6723 72.14 61.4763 72.14ZM69.5449 72.126C69.0595 72.126 68.6302 72.0373 68.2569 71.86C67.8835 71.6827 67.5895 71.44 67.3749 71.132C67.1695 70.8147 67.0669 70.4507 67.0669 70.04C67.0669 69.6293 67.1742 69.2747 67.3889 68.976C67.6035 68.668 67.9022 68.43 68.2849 68.262C68.6675 68.094 69.1155 68.01 69.6289 68.01C70.0209 68.01 70.3895 68.052 70.7349 68.136C71.0895 68.22 71.4162 68.3553 71.7149 68.542V67.604C71.7149 67.044 71.5655 66.624 71.2669 66.344C70.9682 66.0547 70.5295 65.91 69.9509 65.91C69.6335 65.91 69.3069 65.9567 68.9709 66.05C68.6442 66.1433 68.2802 66.2927 67.8789 66.498L67.5009 65.714C68.4155 65.2753 69.2742 65.056 70.0769 65.056C70.9262 65.056 71.5795 65.266 72.0369 65.686C72.4942 66.0967 72.7229 66.6893 72.7229 67.464V72H71.7149V71.202C71.4162 71.51 71.0849 71.7433 70.7209 71.902C70.3569 72.0513 69.9649 72.126 69.5449 72.126ZM68.0469 70.012C68.0469 70.4133 68.2009 70.7353 68.5089 70.978C68.8262 71.2207 69.2415 71.342 69.7549 71.342C70.1375 71.342 70.4875 71.2767 70.8049 71.146C71.1315 71.0153 71.4349 70.8193 71.7149 70.558V69.242C71.4255 69.074 71.1269 68.9527 70.8189 68.878C70.5109 68.794 70.1655 68.752 69.7829 68.752C69.2602 68.752 68.8402 68.8687 68.5229 69.102C68.2055 69.326 68.0469 69.6293 68.0469 70.012ZM74.8 72V65.168H75.822V66.274C76.0833 65.8633 76.396 65.56 76.76 65.364C77.124 65.1587 77.5347 65.056 77.992 65.056C78.4867 65.056 78.916 65.1633 79.28 65.378C79.6533 65.5833 79.9427 65.8773 80.148 66.26C80.3627 66.6333 80.47 67.072 80.47 67.576V72H79.448V67.87C79.448 67.2633 79.28 66.7873 78.944 66.442C78.6173 66.0873 78.174 65.91 77.614 65.91C77.2407 65.91 76.9 65.9987 76.592 66.176C76.284 66.3533 76.0273 66.6147 75.822 66.96V72H74.8ZM87.9062 72.126C87.4209 72.126 86.9915 72.0373 86.6182 71.86C86.2449 71.6827 85.9509 71.44 85.7362 71.132C85.5309 70.8147 85.4282 70.4507 85.4282 70.04C85.4282 69.6293 85.5355 69.2747 85.7502 68.976C85.9649 68.668 86.2635 68.43 86.6462 68.262C87.0289 68.094 87.4769 68.01 87.9902 68.01C88.3822 68.01 88.7509 68.052 89.0962 68.136C89.4509 68.22 89.7775 68.3553 90.0762 68.542V67.604C90.0762 67.044 89.9269 66.624 89.6282 66.344C89.3295 66.0547 88.8909 65.91 88.3122 65.91C87.9949 65.91 87.6682 65.9567 87.3322 66.05C87.0055 66.1433 86.6415 66.2927 86.2402 66.498L85.8622 65.714C86.7769 65.2753 87.6355 65.056 88.4382 65.056C89.2875 65.056 89.9409 65.266 90.3982 65.686C90.8555 66.0967 91.0842 66.6893 91.0842 67.464V72H90.0762V71.202C89.7775 71.51 89.4462 71.7433 89.0822 71.902C88.7182 72.0513 88.3262 72.126 87.9062 72.126ZM86.4082 70.012C86.4082 70.4133 86.5622 70.7353 86.8702 70.978C87.1875 71.2207 87.6029 71.342 88.1162 71.342C88.4989 71.342 88.8489 71.2767 89.1662 71.146C89.4929 71.0153 89.7962 70.8193 90.0762 70.558V69.242C89.7869 69.074 89.4882 68.9527 89.1802 68.878C88.8722 68.794 88.5269 68.752 88.1442 68.752C87.6215 68.752 87.2015 68.8687 86.8842 69.102C86.5669 69.326 86.4082 69.6293 86.4082 70.012ZM93.1613 72V65.168H94.1833V66.274C94.4447 65.8633 94.7573 65.56 95.1213 65.364C95.4853 65.1587 95.896 65.056 96.3533 65.056C96.848 65.056 97.2773 65.1633 97.6413 65.378C98.0147 65.5833 98.304 65.8773 98.5093 66.26C98.724 66.6333 98.8313 67.072 98.8313 67.576V72H97.8093V67.87C97.8093 67.2633 97.6413 66.7873 97.3053 66.442C96.9787 66.0873 96.5353 65.91 95.9753 65.91C95.602 65.91 95.2613 65.9987 94.9533 66.176C94.6453 66.3533 94.3887 66.6147 94.1833 66.96V72H93.1613ZM100.872 72V65.168H101.894V72H100.872ZM101.39 63.474C101.185 63.474 101.007 63.404 100.858 63.264C100.718 63.1147 100.648 62.942 100.648 62.746C100.648 62.55 100.718 62.382 100.858 62.242C101.007 62.0927 101.185 62.018 101.39 62.018C101.595 62.018 101.768 62.0927 101.908 62.242C102.057 62.382 102.132 62.55 102.132 62.746C102.132 62.942 102.057 63.1147 101.908 63.264C101.768 63.404 101.595 63.474 101.39 63.474ZM103.989 72V65.168H105.011V66.232C105.273 65.84 105.571 65.546 105.907 65.35C106.243 65.154 106.621 65.056 107.041 65.056C107.527 65.056 107.951 65.1773 108.315 65.42C108.679 65.6533 108.955 65.9753 109.141 66.386C109.412 65.9473 109.734 65.616 110.107 65.392C110.49 65.168 110.929 65.056 111.423 65.056C111.881 65.056 112.282 65.1633 112.627 65.378C112.982 65.5927 113.257 65.8913 113.453 66.274C113.649 66.6473 113.747 67.086 113.747 67.59V72H112.725V67.842C112.725 67.2447 112.576 66.7733 112.277 66.428C111.979 66.0827 111.568 65.91 111.045 65.91C110.691 65.91 110.369 65.9987 110.079 66.176C109.799 66.3533 109.552 66.624 109.337 66.988C109.356 67.0813 109.37 67.1793 109.379 67.282C109.389 67.3847 109.393 67.4873 109.393 67.59V72H108.371V67.842C108.371 67.2447 108.217 66.7733 107.909 66.428C107.611 66.0827 107.2 65.91 106.677 65.91C105.977 65.91 105.422 66.246 105.011 66.918V72H103.989ZM117.93 72.126C117.444 72.126 117.015 72.0373 116.642 71.86C116.268 71.6827 115.974 71.44 115.76 71.132C115.554 70.8147 115.452 70.4507 115.452 70.04C115.452 69.6293 115.559 69.2747 115.774 68.976C115.988 68.668 116.287 68.43 116.67 68.262C117.052 68.094 117.5 68.01 118.014 68.01C118.406 68.01 118.774 68.052 119.12 68.136C119.474 68.22 119.801 68.3553 120.1 68.542V67.604C120.1 67.044 119.95 66.624 119.652 66.344C119.353 66.0547 118.914 65.91 118.336 65.91C118.018 65.91 117.692 65.9567 117.356 66.05C117.029 66.1433 116.665 66.2927 116.264 66.498L115.886 65.714C116.8 65.2753 117.659 65.056 118.462 65.056C119.311 65.056 119.964 65.266 120.422 65.686C120.879 66.0967 121.108 66.6893 121.108 67.464V72H120.1V71.202C119.801 71.51 119.47 71.7433 119.106 71.902C118.742 72.0513 118.35 72.126 117.93 72.126ZM116.432 70.012C116.432 70.4133 116.586 70.7353 116.894 70.978C117.211 71.2207 117.626 71.342 118.14 71.342C118.522 71.342 118.872 71.2767 119.19 71.146C119.516 71.0153 119.82 70.8193 120.1 70.558V69.242C119.81 69.074 119.512 68.9527 119.204 68.878C118.896 68.794 118.55 68.752 118.168 68.752C117.645 68.752 117.225 68.8687 116.908 69.102C116.59 69.326 116.432 69.6293 116.432 70.012ZM123.185 72V61.892L124.207 61.682V72H123.185Z" fill="#707070"/>
<path d="M25.324 108.034H27.564C28.2733 108.034 28.908 107.861 29.468 107.516C30.028 107.171 30.4713 106.704 30.798 106.116C31.134 105.519 31.302 104.847 31.302 104.1C31.302 103.353 31.134 102.686 30.798 102.098C30.4713 101.501 30.028 101.029 29.468 100.684C28.908 100.339 28.2733 100.166 27.564 100.166H25.324V108.034ZM24.246 109V99.2H27.494C28.2127 99.2 28.8707 99.326 29.468 99.578C30.0747 99.8207 30.5927 100.166 31.022 100.614C31.4607 101.053 31.7967 101.571 32.03 102.168C32.2727 102.756 32.394 103.4 32.394 104.1C32.394 104.8 32.2727 105.449 32.03 106.046C31.7967 106.634 31.4607 107.152 31.022 107.6C30.5927 108.039 30.0747 108.384 29.468 108.636C28.8707 108.879 28.2127 109 27.494 109H24.246ZM37.2595 109.112C36.6249 109.112 36.0555 108.958 35.5515 108.65C35.0475 108.342 34.6509 107.922 34.3615 107.39C34.0722 106.858 33.9275 106.256 33.9275 105.584C33.9275 104.912 34.0722 104.31 34.3615 103.778C34.6509 103.246 35.0475 102.826 35.5515 102.518C36.0555 102.21 36.6249 102.056 37.2595 102.056C37.8849 102.056 38.4449 102.21 38.9395 102.518C39.4435 102.826 39.8402 103.246 40.1295 103.778C40.4189 104.31 40.5635 104.912 40.5635 105.584C40.5635 106.256 40.4189 106.858 40.1295 107.39C39.8402 107.922 39.4435 108.342 38.9395 108.65C38.4449 108.958 37.8849 109.112 37.2595 109.112ZM37.2455 108.216C37.6935 108.216 38.0902 108.104 38.4355 107.88C38.7809 107.647 39.0515 107.329 39.2475 106.928C39.4529 106.527 39.5555 106.079 39.5555 105.584C39.5555 105.08 39.4529 104.632 39.2475 104.24C39.0515 103.839 38.7809 103.526 38.4355 103.302C38.0902 103.069 37.6935 102.952 37.2455 102.952C36.7975 102.952 36.4009 103.069 36.0555 103.302C35.7102 103.526 35.4349 103.839 35.2295 104.24C35.0335 104.632 34.9355 105.08 34.9355 105.584C34.9355 106.079 35.0335 106.527 35.2295 106.928C35.4349 107.329 35.7102 107.647 36.0555 107.88C36.4009 108.104 36.7975 108.216 37.2455 108.216ZM45.5206 112.066C45.0633 112.066 44.6013 112.001 44.1346 111.87C43.6773 111.749 43.2526 111.576 42.8606 111.352L43.2946 110.568C43.7146 110.783 44.0973 110.941 44.4426 111.044C44.788 111.147 45.1333 111.198 45.4786 111.198C46.104 111.198 46.5753 111.049 46.8926 110.75C47.2193 110.451 47.3826 110.017 47.3826 109.448V108.076C47.1213 108.403 46.804 108.655 46.4306 108.832C46.0573 109 45.6466 109.084 45.1986 109.084C44.6106 109.084 44.0786 108.93 43.6026 108.622C43.1266 108.305 42.7486 107.885 42.4686 107.362C42.1886 106.83 42.0486 106.237 42.0486 105.584C42.0486 104.931 42.1886 104.343 42.4686 103.82C42.758 103.288 43.1453 102.868 43.6306 102.56C44.116 102.243 44.6573 102.084 45.2546 102.084C45.684 102.084 46.0806 102.168 46.4446 102.336C46.8086 102.495 47.126 102.733 47.3966 103.05V102.168H48.4046V109.434C48.4046 110.283 48.1573 110.932 47.6626 111.38C47.168 111.837 46.454 112.066 45.5206 112.066ZM45.4506 108.202C45.852 108.202 46.2206 108.123 46.5566 107.964C46.8926 107.796 47.168 107.567 47.3826 107.278V103.904C47.1586 103.615 46.874 103.391 46.5286 103.232C46.1926 103.064 45.8333 102.98 45.4506 102.98C44.9933 102.98 44.5826 103.092 44.2186 103.316C43.864 103.54 43.5793 103.848 43.3646 104.24C43.1593 104.632 43.0566 105.08 43.0566 105.584C43.0566 106.079 43.1593 106.527 43.3646 106.928C43.5793 107.32 43.864 107.633 44.2186 107.866C44.5826 108.09 44.9933 108.202 45.4506 108.202Z" fill="#151515"/>
<path d="M28.768 146.154C28.068 146.154 27.4147 146.028 26.808 145.776C26.2107 145.515 25.6833 145.155 25.226 144.698C24.7687 144.231 24.414 143.695 24.162 143.088C23.91 142.472 23.784 141.809 23.784 141.1C23.784 140.391 23.91 139.733 24.162 139.126C24.414 138.51 24.7687 137.973 25.226 137.516C25.6833 137.049 26.2107 136.69 26.808 136.438C27.4147 136.177 28.068 136.046 28.768 136.046C29.2533 136.046 29.7153 136.111 30.154 136.242C30.602 136.363 31.022 136.545 31.414 136.788C31.806 137.021 32.156 137.311 32.464 137.656L31.75 138.398C31.386 137.959 30.938 137.623 30.406 137.39C29.8833 137.147 29.3373 137.026 28.768 137.026C28.2173 137.026 27.704 137.129 27.228 137.334C26.752 137.539 26.3367 137.829 25.982 138.202C25.6367 138.575 25.366 139.009 25.17 139.504C24.974 139.989 24.876 140.521 24.876 141.1C24.876 141.669 24.974 142.201 25.17 142.696C25.366 143.191 25.6367 143.625 25.982 143.998C26.3367 144.371 26.752 144.661 27.228 144.866C27.704 145.071 28.2173 145.174 28.768 145.174C29.3373 145.174 29.8833 145.053 30.406 144.81C30.938 144.567 31.386 144.231 31.75 143.802L32.464 144.544C32.156 144.889 31.806 145.183 31.414 145.426C31.022 145.659 30.602 145.841 30.154 145.972C29.7153 146.093 29.2533 146.154 28.768 146.154ZM36.3222 146.126C35.8369 146.126 35.4075 146.037 35.0342 145.86C34.6609 145.683 34.3669 145.44 34.1522 145.132C33.9469 144.815 33.8442 144.451 33.8442 144.04C33.8442 143.629 33.9515 143.275 34.1662 142.976C34.3809 142.668 34.6795 142.43 35.0622 142.262C35.4449 142.094 35.8929 142.01 36.4062 142.01C36.7982 142.01 37.1669 142.052 37.5122 142.136C37.8669 142.22 38.1935 142.355 38.4922 142.542V141.604C38.4922 141.044 38.3429 140.624 38.0442 140.344C37.7455 140.055 37.3069 139.91 36.7282 139.91C36.4109 139.91 36.0842 139.957 35.7482 140.05C35.4215 140.143 35.0575 140.293 34.6562 140.498L34.2782 139.714C35.1929 139.275 36.0515 139.056 36.8542 139.056C37.7035 139.056 38.3569 139.266 38.8142 139.686C39.2715 140.097 39.5002 140.689 39.5002 141.464V146H38.4922V145.202C38.1935 145.51 37.8622 145.743 37.4982 145.902C37.1342 146.051 36.7422 146.126 36.3222 146.126ZM34.8242 144.012C34.8242 144.413 34.9782 144.735 35.2862 144.978C35.6035 145.221 36.0189 145.342 36.5322 145.342C36.9149 145.342 37.2649 145.277 37.5822 145.146C37.9089 145.015 38.2122 144.819 38.4922 144.558V143.242C38.2029 143.074 37.9042 142.953 37.5962 142.878C37.2882 142.794 36.9429 142.752 36.5602 142.752C36.0375 142.752 35.6175 142.869 35.3002 143.102C34.9829 143.326 34.8242 143.629 34.8242 144.012ZM43.9763 146.14C43.3883 146.14 42.9403 146 42.6323 145.72C42.3336 145.431 42.1843 145.015 42.1843 144.474V140.008H40.7703V139.168H42.1843V137.292L43.2063 137.054V139.168H45.1663V140.008H43.2063V144.208C43.2063 144.572 43.2809 144.833 43.4303 144.992C43.5889 145.151 43.8456 145.23 44.2003 145.23C44.3776 145.23 44.5363 145.216 44.6763 145.188C44.8163 145.16 44.9796 145.113 45.1663 145.048V145.958C44.9796 146.023 44.7836 146.07 44.5783 146.098C44.3729 146.126 44.1723 146.14 43.9763 146.14Z" fill="#151515"/>
<path d="M28.67 183.154C27.9887 183.154 27.354 183.028 26.766 182.776C26.178 182.515 25.66 182.155 25.212 181.698C24.7733 181.231 24.428 180.695 24.176 180.088C23.924 179.472 23.798 178.809 23.798 178.1C23.798 177.391 23.924 176.733 24.176 176.126C24.428 175.51 24.7733 174.973 25.212 174.516C25.66 174.049 26.178 173.69 26.766 173.438C27.354 173.177 27.9887 173.046 28.67 173.046C29.3513 173.046 29.986 173.177 30.574 173.438C31.162 173.69 31.6753 174.049 32.114 174.516C32.562 174.973 32.912 175.51 33.164 176.126C33.416 176.733 33.542 177.391 33.542 178.1C33.542 178.809 33.416 179.472 33.164 180.088C32.912 180.695 32.562 181.231 32.114 181.698C31.6753 182.155 31.162 182.515 30.574 182.776C29.986 183.028 29.3513 183.154 28.67 183.154ZM28.67 182.174C29.202 182.174 29.6967 182.071 30.154 181.866C30.6113 181.661 31.0127 181.371 31.358 180.998C31.7033 180.625 31.9693 180.191 32.156 179.696C32.352 179.201 32.45 178.669 32.45 178.1C32.45 177.521 32.352 176.989 32.156 176.504C31.9693 176.009 31.7033 175.575 31.358 175.202C31.0127 174.829 30.6113 174.539 30.154 174.334C29.6967 174.129 29.202 174.026 28.67 174.026C28.138 174.026 27.6433 174.129 27.186 174.334C26.7287 174.539 26.3273 174.829 25.982 175.202C25.6367 175.575 25.366 176.009 25.17 176.504C24.9833 176.989 24.89 177.517 24.89 178.086C24.89 178.665 24.9833 179.201 25.17 179.696C25.366 180.191 25.6367 180.625 25.982 180.998C26.3273 181.371 26.7287 181.661 27.186 181.866C27.6433 182.071 28.138 182.174 28.67 182.174ZM35.384 185.926V176.168H36.392V177.148C36.6533 176.803 36.9707 176.541 37.344 176.364C37.7267 176.177 38.1467 176.084 38.604 176.084C39.2013 176.084 39.7333 176.243 40.2 176.56C40.676 176.868 41.054 177.288 41.334 177.82C41.614 178.343 41.754 178.931 41.754 179.584C41.754 180.237 41.6093 180.83 41.32 181.362C41.04 181.894 40.6573 182.319 40.172 182.636C39.696 182.944 39.1547 183.098 38.548 183.098C38.1187 183.098 37.722 183.019 37.358 182.86C36.994 182.692 36.6767 182.454 36.406 182.146V185.926H35.384ZM38.352 182.216C38.8093 182.216 39.2153 182.104 39.57 181.88C39.934 181.647 40.2187 181.334 40.424 180.942C40.6387 180.541 40.746 180.093 40.746 179.598C40.746 179.094 40.6387 178.646 40.424 178.254C40.2187 177.862 39.934 177.554 39.57 177.33C39.2153 177.097 38.8093 176.98 38.352 176.98C37.9507 176.98 37.5773 177.064 37.232 177.232C36.896 177.391 36.6207 177.619 36.406 177.918V181.264C36.63 181.563 36.91 181.796 37.246 181.964C37.5913 182.132 37.96 182.216 38.352 182.216ZM45.7263 183.14C45.1383 183.14 44.6903 183 44.3823 182.72C44.0836 182.431 43.9343 182.015 43.9343 181.474V177.008H42.5203V176.168H43.9343V174.292L44.9563 174.054V176.168H46.9163V177.008H44.9563V181.208C44.9563 181.572 45.0309 181.833 45.1803 181.992C45.3389 182.151 45.5956 182.23 45.9503 182.23C46.1276 182.23 46.2863 182.216 46.4263 182.188C46.5663 182.16 46.7296 182.113 46.9163 182.048V182.958C46.7296 183.023 46.5336 183.07 46.3283 183.098C46.1229 183.126 45.9223 183.14 45.7263 183.14ZM48.3993 183V176.168H49.4213V183H48.3993ZM48.9173 174.474C48.7119 174.474 48.5346 174.404 48.3853 174.264C48.2453 174.115 48.1753 173.942 48.1753 173.746C48.1753 173.55 48.2453 173.382 48.3853 173.242C48.5346 173.093 48.7119 173.018 48.9173 173.018C49.1226 173.018 49.2953 173.093 49.4353 173.242C49.5846 173.382 49.6593 173.55 49.6593 173.746C49.6593 173.942 49.5846 174.115 49.4353 174.264C49.2953 174.404 49.1226 174.474 48.9173 174.474ZM54.5408 183.112C53.9061 183.112 53.3368 182.958 52.8328 182.65C52.3288 182.342 51.9321 181.922 51.6428 181.39C51.3535 180.858 51.2088 180.256 51.2088 179.584C51.2088 178.912 51.3535 178.31 51.6428 177.778C51.9321 177.246 52.3288 176.826 52.8328 176.518C53.3368 176.21 53.9061 176.056 54.5408 176.056C55.1661 176.056 55.7261 176.21 56.2208 176.518C56.7248 176.826 57.1215 177.246 57.4108 177.778C57.7001 178.31 57.8448 178.912 57.8448 179.584C57.8448 180.256 57.7001 180.858 57.4108 181.39C57.1215 181.922 56.7248 182.342 56.2208 182.65C55.7261 182.958 55.1661 183.112 54.5408 183.112ZM54.5268 182.216C54.9748 182.216 55.3715 182.104 55.7168 181.88C56.0621 181.647 56.3328 181.329 56.5288 180.928C56.7341 180.527 56.8368 180.079 56.8368 179.584C56.8368 179.08 56.7341 178.632 56.5288 178.24C56.3328 177.839 56.0621 177.526 55.7168 177.302C55.3715 177.069 54.9748 176.952 54.5268 176.952C54.0788 176.952 53.6821 177.069 53.3368 177.302C52.9915 177.526 52.7161 177.839 52.5108 178.24C52.3148 178.632 52.2168 179.08 52.2168 179.584C52.2168 180.079 52.3148 180.527 52.5108 180.928C52.7161 181.329 52.9915 181.647 53.3368 181.88C53.6821 182.104 54.0788 182.216 54.5268 182.216ZM59.6379 183V176.168H60.6599V177.274C60.9212 176.863 61.2339 176.56 61.5979 176.364C61.9619 176.159 62.3726 176.056 62.8299 176.056C63.3246 176.056 63.7539 176.163 64.1179 176.378C64.4912 176.583 64.7806 176.877 64.9859 177.26C65.2006 177.633 65.3079 178.072 65.3079 178.576V183H64.2859V178.87C64.2859 178.263 64.1179 177.787 63.7819 177.442C63.4552 177.087 63.0119 176.91 62.4519 176.91C62.0786 176.91 61.7379 176.999 61.4299 177.176C61.1219 177.353 60.8652 177.615 60.6599 177.96V183H59.6379Z" fill="#151515"/>
</g>
<path d="M10 41V42H324V41V40H10V41ZM327 44H326V202H327H328V44H327ZM324 205V204H9.99999V205V206H324V205ZM7 202H8V44H7H6V202H7ZM9.99999 205V204C8.89543 204 8 203.105 8 202H7H6C6 204.209 7.79085 206 9.99999 206V205ZM327 202H326C326 203.105 325.105 204 324 204V205V206C326.209 206 328 204.209 328 202H327ZM324 41V42C325.105 42 326 42.8954 326 44H327H328C328 41.7909 326.209 40 324 40V41ZM10 41V40C7.79086 40 6 41.7909 6 44H7H8C8 42.8954 8.89543 42 10 42V41Z" fill="#C7C7C7" mask="url(#path-5-inside-2_10061_2401)"/>
</g>
<defs>
<filter id="filter0_d_10061_2401" x="0" y="38" width="334" height="178" filterUnits="userSpaceOnUse" color-interpolation-filters="sRGB">
<feFlood flood-opacity="0" result="BackgroundImageFix"/>
<feColorMatrix in="SourceAlpha" type="matrix" values="0 0 0 0 0 0 0 0 0 0 0 0 0 0 0 0 0 0 127 0" result="hardAlpha"/>
<feMorphology radius="1" operator="dilate" in="SourceAlpha" result="effect1_dropShadow_10061_2401"/>
<feOffset dy="4"/>
<feGaussianBlur stdDeviation="3"/>
<feComposite in2="hardAlpha" operator="out"/>
<feColorMatrix type="matrix" values="0 0 0 0 0.0823529 0 0 0 0 0.0823529 0 0 0 0 0.0823529 0 0 0 0.25 0"/>
<feBlend mode="normal" in2="BackgroundImageFix" result="effect1_dropShadow_10061_2401"/>
<feBlend mode="normal" in="SourceGraphic" in2="effect1_dropShadow_10061_2401" result="shape"/>
</filter>
<clipPath id="clip0_10061_2401">
<path d="M7 44C7 42.3431 8.34315 41 10 41H324C325.657 41 327 42.3431 327 44V202C327 203.657 325.657 205 324 205H9.99999C8.34314 205 7 203.657 7 202V44Z" fill="white"/>
</clipPath>
</defs>
</svg>
