<svg xmlns="http://www.w3.org/2000/svg" width="329" height="26" viewBox="0 0 329 26">
  <g id="Image" transform="translate(-2124 -2448)">
    <rect id="Rectangle" width="329" height="26" transform="translate(2124 2448)" fill="#fff"/>
    <path id="Path" d="M1.78,0H3.32V-5.98H7.5L10.34,0h1.7L9.06-6.18a3.81,3.81,0,0,0,2.92-3.78c0-2.42-1.78-4.04-4.46-4.04H1.78ZM7.4-12.64c1.84,0,3.04,1.06,3.04,2.7,0,1.62-1.2,2.68-3.04,2.68H3.32v-5.38ZM22-1.12l-.92-.98a3.988,3.988,0,0,1-2.68,1,3.557,3.557,0,0,1-3.48-3.46h7.66V-5A4.611,4.611,0,0,0,18.1-9.92a4.75,4.75,0,0,0-4.6,5.04A4.871,4.871,0,0,0,18.34.18,5.7,5.7,0,0,0,22-1.12ZM18.08-8.66A3.223,3.223,0,0,1,21.14-5.6H14.96A3.26,3.26,0,0,1,18.08-8.66ZM32.28,0h1.46V-14.6l-1.46.3v5.78a3.975,3.975,0,0,0-3.04-1.36,4.753,4.753,0,0,0-4.58,5.02,4.71,4.71,0,0,0,4.5,5A3.846,3.846,0,0,0,32.28-1.3ZM26.1-4.88A3.483,3.483,0,0,1,29.52-8.6a3.5,3.5,0,0,1,2.76,1.32v4.84a3.343,3.343,0,0,1-2.76,1.3A3.5,3.5,0,0,1,26.1-4.88ZM36.46-6.26V-5h6.66V-6.26ZM46.1,0h1.54V-6.36h8.04V0h1.54V-14H55.68v6.26H47.64V-14H46.1ZM63.28.18a4.19,4.19,0,0,0,3.1-1.32V0h1.44V-6.48c0-2.22-1.36-3.44-3.78-3.44a8.362,8.362,0,0,0-3.68.94l.54,1.12a6.445,6.445,0,0,1,2.96-.84,2.2,2.2,0,0,1,2.52,2.42v1.34A5.651,5.651,0,0,0,63.4-5.7c-2.2,0-3.66,1.16-3.66,2.9C59.74-1.04,61.2.18,63.28.18ZM61.14-2.84c0-1.08.98-1.8,2.48-1.8a5.152,5.152,0,0,1,2.76.7v1.88a3.863,3.863,0,0,1-2.8,1.12C62.12-.94,61.14-1.7,61.14-2.84Zm10.5.64c0,1.56.88,2.38,2.56,2.38a5.482,5.482,0,0,0,1.7-.26v-1.3a3.505,3.505,0,0,1-1.38.26c-1.02,0-1.42-.42-1.42-1.46V-8.56h2.8v-1.2H73.1v-3.02l-1.46.34v2.68H69.62v1.2h2.02Zm5.88-4.06V-5h6.66V-6.26ZM87.18,0h1.54V-6.3H94.2V-7.64H88.72v-5.02h8.02V-14H87.18ZM98.16-12.64H103V0h1.54V-12.64h4.82V-14H98.16ZM110.7-2.18A8.053,8.053,0,0,0,116.44.2c3.08,0,5.32-1.8,5.32-4.22,0-2.1-1.28-3.22-4.26-3.76l-2.24-.38c-1.88-.3-2.64-.94-2.64-2.18,0-1.46,1.38-2.54,3.34-2.54a7.913,7.913,0,0,1,4.72,1.68l.8-1.2a9.156,9.156,0,0,0-5.54-1.78c-2.84,0-4.8,1.64-4.8,4,0,1.88,1.14,2.94,3.7,3.4l2.26.38c2.28.4,3.12,1.06,3.12,2.46,0,1.62-1.58,2.82-3.74,2.82a6.52,6.52,0,0,1-4.84-2.18Zm13.4-4.08V-5h6.66V-6.26Zm8,4.08A8.053,8.053,0,0,0,137.84.2c3.08,0,5.32-1.8,5.32-4.22,0-2.1-1.28-3.22-4.26-3.76l-2.24-.38c-1.88-.3-2.64-.94-2.64-2.18,0-1.46,1.38-2.54,3.34-2.54a7.913,7.913,0,0,1,4.72,1.68l.8-1.2a9.155,9.155,0,0,0-5.54-1.78c-2.84,0-4.8,1.64-4.8,4,0,1.88,1.14,2.94,3.7,3.4l2.26.38c2.28.4,3.12,1.06,3.12,2.46,0,1.62-1.58,2.82-3.74,2.82a6.52,6.52,0,0,1-4.84-2.18Zm14.26-.02c0,1.56.88,2.38,2.56,2.38a5.482,5.482,0,0,0,1.7-.26v-1.3a3.505,3.505,0,0,1-1.38.26c-1.02,0-1.42-.42-1.42-1.46V-8.56h2.8v-1.2h-2.8v-3.02l-1.46.34v2.68h-2.02v1.2h2.02ZM155.78.18a4.19,4.19,0,0,0,3.1-1.32V0h1.44V-6.48c0-2.22-1.36-3.44-3.78-3.44a8.362,8.362,0,0,0-3.68.94l.54,1.12a6.445,6.445,0,0,1,2.96-.84,2.2,2.2,0,0,1,2.52,2.42v1.34a5.651,5.651,0,0,0-2.98-.76c-2.2,0-3.66,1.16-3.66,2.9C152.24-1.04,153.7.18,155.78.18Zm-2.14-3.02c0-1.08.98-1.8,2.48-1.8a5.152,5.152,0,0,1,2.76.7v1.88a3.863,3.863,0,0,1-2.8,1.12C154.62-.94,153.64-1.7,153.64-2.84ZM163.28,0h1.46V-6.68a2.782,2.782,0,0,1,2.62-1.98,3.649,3.649,0,0,1,1.02.18V-9.8a2.771,2.771,0,0,0-.92-.14,2.916,2.916,0,0,0-2.72,2.16V-9.76h-1.46Zm8.24-2.2c0,1.56.88,2.38,2.56,2.38a5.482,5.482,0,0,0,1.7-.26v-1.3a3.505,3.505,0,0,1-1.38.26c-1.02,0-1.42-.42-1.42-1.46V-8.56h2.8v-1.2h-2.8v-3.02l-1.46.34v2.68H169.5v1.2h2.02Zm14.22,1.08-.92-.98a3.988,3.988,0,0,1-2.68,1,3.557,3.557,0,0,1-3.48-3.46h7.66V-5a4.611,4.611,0,0,0-4.48-4.92,4.75,4.75,0,0,0-4.6,5.04A4.871,4.871,0,0,0,182.08.18,5.7,5.7,0,0,0,185.74-1.12Zm-3.92-7.54a3.223,3.223,0,0,1,3.06,3.06H178.7A3.26,3.26,0,0,1,181.82-8.66Zm7,8.66h1.46V-6.68a2.782,2.782,0,0,1,2.62-1.98,3.649,3.649,0,0,1,1.02.18V-9.8a2.771,2.771,0,0,0-.92-.14,2.916,2.916,0,0,0-2.72,2.16V-9.76h-1.46Zm6.36-6.26V-5h6.66V-6.26ZM204.84,0h1.54V-6.7L213.2,0h2.1L208-7.12,215.14-14h-1.96l-6.8,6.64V-14h-1.54ZM217.5-12.16a1.037,1.037,0,0,0,1.04-1.06,1.059,1.059,0,0,0-1.04-1.04,1.063,1.063,0,0,0-1.06,1.04A1.042,1.042,0,0,0,217.5-12.16Zm.72,2.4h-1.46V0h1.46Zm4.16,7.56c0,1.56.88,2.38,2.56,2.38a5.482,5.482,0,0,0,1.7-.26v-1.3a3.505,3.505,0,0,1-1.38.26c-1.02,0-1.42-.42-1.42-1.46V-8.56h2.8v-1.2h-2.8v-3.02l-1.46.34v2.68h-2.02v1.2h2.02Z" transform="translate(2226 2468)" fill="#6a6e73"/>
    <g id="UI_icon_-_Chain_link_light_theme" data-name="UI icon - Chain link, light theme" transform="translate(2198 2453)">
      <path id="Icon" d="M10.4,7.541a3.785,3.785,0,0,1,0,5.233l-3.2,3.22a3.727,3.727,0,0,1-5.2,0H2a3.785,3.785,0,0,1,0-5.233L3.5,9.251m10.9-.4,1.5-1.509a3.785,3.785,0,0,0,0-5.233h0a3.727,3.727,0,0,0-5.2,0L7.6,5.327a3.785,3.785,0,0,0,0,5.233" transform="translate(-0.95 -1.05)" fill="none" stroke="#6a6e73" stroke-linecap="round" stroke-miterlimit="10" stroke-width="1.5"/>
    </g>
    <g id="Switch" transform="translate(2124 2449)">
      <rect id="Rectangle-2" data-name="Rectangle" width="42" height="24" rx="12" fill="#2780eb"/>
      <circle id="Ellipse" cx="9" cy="9" r="9" transform="translate(21 3)" fill="#fff"/>
    </g>
  </g>
</svg>
