<svg viewBox="0 0 360 640" xmlns="http://www.w3.org/2000/svg">
  <defs>
    <style>
      .announcement-responsive-3_svg__prefix__f{fill:#00f;opacity:.75}
    </style>
  </defs>
  <g fill="#fff" stroke="#d2d2d2">
    <path stroke="none" d="M0 0h360v87H0z"/>
    <path fill="none" d="M.5.5h359v86H.5z"/>
  </g>
  <path fill="#06c" d="M194.416 33.31v-.434h-4.396v.952h3.3a3.566 3.566 0 0 1-3.584 3.36 3.925 3.925 0 0 1-3.86-4.088 3.913 3.913 0 0 1 3.864-4.074 4.064 4.064 0 0 1 3.094 1.358l.728-.728a5.03 5.03 0 0 0-3.822-1.61 4.96 4.96 0 0 0-4.956 5.054 4.972 4.972 0 0 0 4.97 5.054 4.677 4.677 0 0 0 4.662-4.844Zm1.624 1.274a3.418 3.418 0 0 0 3.388 3.542 3.935 3.935 0 0 0 2.562-.91l-.644-.7a2.792 2.792 0 0 1-1.876.7 2.459 2.459 0 0 1-2.422-2.422h5.362V34.5a3.236 3.236 0 0 0-3.136-3.444 3.336 3.336 0 0 0-3.234 3.528Zm3.22-2.632a2.25 2.25 0 0 1 2.128 2.128h-4.312a2.258 2.258 0 0 1 2.184-2.128Zm5.516 4.508c0 1.064.6 1.666 1.792 1.666a4.124 4.124 0 0 0 1.2-.182v-.91a2.521 2.521 0 0 1-.966.182c-.728 0-1.008-.294-1.008-1.022v-4.186h1.974v-.84H205.8v-1.974l-1.022.238v1.736h-1.416v.84h1.414Zm9.478 2.492c-.28.7-.644.868-1.106.868a3.447 3.447 0 0 1-.56-.056v.91a2.247 2.247 0 0 0 .658.1c1.022 0 1.54-.434 1.96-1.512l3.332-8.092h-1.12l-2.198 5.63-2.072-5.632H212l2.646 6.818Zm5.138-4.368a3.339 3.339 0 1 0 6.664 0 3.337 3.337 0 1 0-6.664 0Zm5.642.014a2.33 2.33 0 1 1-4.62 0 2.331 2.331 0 1 1 4.62 0Zm3.906-3.43h-1.022v4.424a2.382 2.382 0 0 0 2.464 2.52 2.462 2.462 0 0 0 2.184-1.232V38h1.022v-6.832h-1.022v5.04a2.03 2.03 0 0 1-1.792 1.05 1.771 1.771 0 0 1-1.834-1.958ZM235.744 38h1.022v-4.676a1.921 1.921 0 0 1 1.834-1.386 2.422 2.422 0 0 1 .714.126v-.924a2.01 2.01 0 0 0-.644-.1 2.031 2.031 0 0 0-1.9 1.484v-1.356h-1.026Zm7.812-6.832v.84h1.526V38h1.018v-5.992h1.96v-.84h-1.96V30.1c0-.826.364-1.19 1.12-1.19a2.5 2.5 0 0 1 .84.126v-.92a3.206 3.206 0 0 0-.924-.126 1.879 1.879 0 0 0-2.058 2.1v1.078ZM249.478 38h1.022v-4.676a1.921 1.921 0 0 1 1.834-1.386 2.422 2.422 0 0 1 .714.126v-.924a2.01 2.01 0 0 0-.644-.1 2.031 2.031 0 0 0-1.9 1.484v-1.356h-1.026Zm4.256-3.416a3.418 3.418 0 0 0 3.388 3.542 3.935 3.935 0 0 0 2.562-.91l-.644-.7a2.792 2.792 0 0 1-1.876.7 2.459 2.459 0 0 1-2.422-2.422h5.358V34.5a3.236 3.236 0 0 0-3.136-3.444 3.336 3.336 0 0 0-3.23 3.528Zm3.22-2.632a2.25 2.25 0 0 1 2.128 2.128h-4.312a2.258 2.258 0 0 1 2.184-2.128Zm4.69 2.632a3.418 3.418 0 0 0 3.388 3.542 3.935 3.935 0 0 0 2.562-.91l-.644-.7a2.792 2.792 0 0 1-1.876.7 2.459 2.459 0 0 1-2.422-2.422h5.362V34.5a3.236 3.236 0 0 0-3.136-3.444 3.336 3.336 0 0 0-3.234 3.528Zm3.22-2.632a2.25 2.25 0 0 1 2.128 2.128h-4.312a2.258 2.258 0 0 1 2.184-2.128Zm8.372 8.834h1.022v-3.654a2.748 2.748 0 0 0 2.142.968 3.329 3.329 0 0 0 3.22-3.514 3.308 3.308 0 0 0-3.164-3.5 2.7 2.7 0 0 0-2.212 1.064v-.98h-1.008Zm2.964-8.806a2.451 2.451 0 0 1 2.4 2.62 2.423 2.423 0 0 1-4.34 1.666v-3.348a2.352 2.352 0 0 1 1.94-.938Zm7.476 6.146a2.906 2.906 0 0 0 2.17-.91V38h1.008v-4.536c0-1.582-.98-2.408-2.646-2.408a5.722 5.722 0 0 0-2.576.658l.392.784a4.407 4.407 0 0 1 2.058-.588c1.148 0 1.764.546 1.764 1.694v.924a4.1 4.1 0 0 0-2.072-.518c-1.484 0-2.562.756-2.562 2.016a2.2 2.2 0 0 0 2.468 2.1Zm-1.476-2.114c0-.8.728-1.274 1.722-1.274a3.545 3.545 0 0 1 1.932.5v1.316a2.726 2.726 0 0 1-1.96.784c-.994.004-1.694-.528-1.694-1.326Zm6.188 1.036a3.788 3.788 0 0 0 2.786 1.078c1.54 0 2.66-.952 2.646-2.114.014-1.036-.644-1.6-1.988-1.834l-1.134-.21c-.84-.154-1.19-.392-1.19-.98 0-.672.63-1.092 1.484-1.092a3.45 3.45 0 0 1 2.114.77l.546-.7a4.251 4.251 0 0 0-2.618-.91c-1.442 0-2.464.84-2.464 2 0 1.022.658 1.568 1.932 1.792l1.134.2c.854.154 1.218.448 1.218 1.022 0 .672-.616 1.232-1.722 1.232a3.059 3.059 0 0 1-2.156-.9Zm6.524 0a3.788 3.788 0 0 0 2.786 1.078c1.54 0 2.66-.952 2.646-2.114.014-1.036-.644-1.6-1.988-1.834l-1.134-.21c-.84-.154-1.19-.392-1.19-.98 0-.672.63-1.092 1.484-1.092a3.45 3.45 0 0 1 2.114.77l.546-.7a4.251 4.251 0 0 0-2.618-.91c-1.442 0-2.464.84-2.464 2 0 1.022.658 1.568 1.932 1.792l1.134.2c.854.154 1.218.448 1.218 1.022 0 .672-.616 1.232-1.722 1.232a3.059 3.059 0 0 1-2.156-.9Zm11.284-.588c0 1.064.6 1.666 1.792 1.666a4.124 4.124 0 0 0 1.2-.182v-.91a2.521 2.521 0 0 1-.966.182c-.728 0-1.008-.294-1.008-1.022v-4.186h1.974v-.84h-1.974v-1.974l-1.022.238v1.736h-1.414v.84h1.414Zm4.046-1.876a3.339 3.339 0 1 0 6.664 0 3.337 3.337 0 1 0-6.664 0Zm5.642.014a2.33 2.33 0 1 1-4.62 0 2.331 2.331 0 1 1 4.62 0Zm5.992-.014a3.339 3.339 0 1 0 6.664 0 3.337 3.337 0 1 0-6.664 0Zm5.642.014a2.33 2.33 0 1 1-4.62 0 2.331 2.331 0 1 1 4.62 0Zm3.906-3.43H330.4v4.424a2.382 2.382 0 0 0 2.464 2.52 2.462 2.462 0 0 0 2.184-1.232V38h1.022v-6.832h-1.022v5.04a2.03 2.03 0 0 1-1.792 1.05 1.771 1.771 0 0 1-1.834-1.96Zm6.8 6.832h1.022v-4.676a1.921 1.921 0 0 1 1.834-1.386 2.422 2.422 0 0 1 .714.126v-.924a2.01 2.01 0 0 0-.644-.1 2.031 2.031 0 0 0-1.9 1.484v-1.356h-1.022ZM185.526 50.446a.735.735 0 1 0-.726-.746.726.726 0 0 0 .726.746Zm.5 1.722h-1.018V59h1.022ZM188.2 59h1.022v-5.082a1.9 1.9 0 0 1 1.666-1.008 1.7 1.7 0 0 1 1.694 1.932V59h1.018v-4.41a2.834 2.834 0 0 0-.056-.6 1.921 1.921 0 0 1 1.708-1.078c1.064 0 1.68.756 1.68 1.932V59h1.036v-4.41a2.335 2.335 0 0 0-2.338-2.534 2.551 2.551 0 0 0-2.282 1.33 2.24 2.24 0 0 0-2.086-1.33 2.338 2.338 0 0 0-2.044 1.176v-1.064H188.2Zm11.928 0h1.022v-5.082a1.9 1.9 0 0 1 1.666-1.008 1.7 1.7 0 0 1 1.694 1.932V59h1.022v-4.41a2.834 2.834 0 0 0-.056-.6 1.921 1.921 0 0 1 1.708-1.078c1.064 0 1.68.756 1.68 1.932V59h1.036v-4.41a2.335 2.335 0 0 0-2.338-2.534 2.551 2.551 0 0 0-2.282 1.33 2.24 2.24 0 0 0-2.086-1.33 2.338 2.338 0 0 0-2.044 1.176v-1.064h-1.022Zm11.634-3.416a3.418 3.418 0 0 0 3.388 3.542 3.935 3.935 0 0 0 2.562-.91l-.644-.7a2.792 2.792 0 0 1-1.876.7 2.459 2.459 0 0 1-2.422-2.422h5.362V55.5A3.236 3.236 0 0 0 215 52.056a3.336 3.336 0 0 0-3.238 3.528Zm3.22-2.632a2.25 2.25 0 0 1 2.128 2.128h-4.31a2.258 2.258 0 0 1 2.182-2.128Zm4.97 6.048h1.022v-4.676a1.921 1.921 0 0 1 1.834-1.386 2.422 2.422 0 0 1 .714.126v-.924a2.01 2.01 0 0 0-.644-.1 2.031 2.031 0 0 0-1.9 1.484v-1.356h-1.026Zm4.326-.952a3.788 3.788 0 0 0 2.786 1.078c1.54 0 2.66-.952 2.646-2.114.014-1.036-.644-1.6-1.988-1.834l-1.134-.21c-.84-.154-1.19-.392-1.19-.98 0-.672.63-1.092 1.484-1.092a3.45 3.45 0 0 1 2.114.77l.546-.7a4.251 4.251 0 0 0-2.618-.91c-1.442 0-2.464.84-2.464 2 0 1.022.658 1.568 1.932 1.792l1.134.2c.854.154 1.218.448 1.218 1.022 0 .672-.616 1.232-1.722 1.232a3.059 3.059 0 0 1-2.156-.9Zm7.574-7.6a.735.735 0 1 0-.728-.742.726.726 0 0 0 .728.74Zm.5 1.722h-1.018V59h1.022Zm4.232 6.83h.966l2.814-6.832h-1.092l-2.184 5.544-2.188-5.544h-1.13Zm4.62-3.416a3.418 3.418 0 0 0 3.388 3.542 3.935 3.935 0 0 0 2.562-.91l-.644-.7a2.792 2.792 0 0 1-1.876.7 2.459 2.459 0 0 1-2.422-2.422h5.362V55.5a3.236 3.236 0 0 0-3.136-3.444 3.336 3.336 0 0 0-3.238 3.528Zm3.22-2.632a2.25 2.25 0 0 1 2.128 2.128h-4.312a2.258 2.258 0 0 1 2.184-2.128ZM254.854 59h.966l2.814-6.832h-1.092l-2.184 5.544-2.184-5.544h-1.134Zm5.712-8.554a.735.735 0 1 0-.728-.742.726.726 0 0 0 .728.742Zm.5 1.722h-1.018V59h1.022ZM263.24 59h1.022v-4.676a1.921 1.921 0 0 1 1.838-1.386 2.422 2.422 0 0 1 .714.126v-.924a2.01 2.01 0 0 0-.644-.1 2.031 2.031 0 0 0-1.9 1.484v-1.356h-1.03Zm6.02-1.54c0 1.064.6 1.666 1.792 1.666a4.124 4.124 0 0 0 1.2-.182v-.91a2.521 2.521 0 0 1-.966.182c-.728 0-1.008-.294-1.008-1.022v-4.186h1.974v-.84h-1.97v-1.974l-1.022.238v1.736h-1.414v.84h1.414Zm5.586-5.292h-1.022v4.424a2.382 2.382 0 0 0 2.464 2.52 2.462 2.462 0 0 0 2.184-1.232V59h1.022v-6.832h-1.022v5.04a2.03 2.03 0 0 1-1.792 1.05 1.771 1.771 0 0 1-1.834-1.96Zm8.932 6.958a2.906 2.906 0 0 0 2.17-.91V59h1.008v-4.536c0-1.582-.98-2.408-2.646-2.408a5.722 5.722 0 0 0-2.576.658l.392.784a4.407 4.407 0 0 1 2.058-.588c1.148 0 1.764.546 1.764 1.694v.924a4.1 4.1 0 0 0-2.072-.518c-1.484 0-2.562.756-2.562 2.016a2.2 2.2 0 0 0 2.464 2.1Zm-1.484-2.114c0-.8.728-1.274 1.722-1.274a3.545 3.545 0 0 1 1.932.5v1.316a2.726 2.726 0 0 1-1.96.784c-.994.004-1.694-.528-1.694-1.326Zm7.854-8.022-1.022.21V59h1.022Zm5.278 6.594a3.418 3.418 0 0 0 3.388 3.542 3.935 3.935 0 0 0 2.562-.91l-.644-.7a2.792 2.792 0 0 1-1.876.7 2.459 2.459 0 0 1-2.422-2.422h5.366V55.5a3.236 3.236 0 0 0-3.136-3.444 3.336 3.336 0 0 0-3.238 3.528Zm3.22-2.632a2.25 2.25 0 0 1 2.128 2.128h-4.312a2.258 2.258 0 0 1 2.184-2.128ZM305.394 59h.966l2.814-6.832h-1.092l-2.182 5.544-2.184-5.544h-1.136Zm4.62-3.416a3.418 3.418 0 0 0 3.388 3.542 3.935 3.935 0 0 0 2.562-.91l-.644-.7a2.792 2.792 0 0 1-1.876.7 2.459 2.459 0 0 1-2.422-2.422h5.362V55.5a3.236 3.236 0 0 0-3.136-3.444 3.336 3.336 0 0 0-3.234 3.528Zm3.22-2.632a2.25 2.25 0 0 1 2.128 2.128h-4.312a2.258 2.258 0 0 1 2.184-2.128ZM318.2 59h1.022v-5.04a2.03 2.03 0 0 1 1.792-1.05 1.771 1.771 0 0 1 1.834 1.96V59h1.022v-4.424a2.382 2.382 0 0 0-2.464-2.52 2.462 2.462 0 0 0-2.184 1.232v-1.12H318.2Zm8.372-1.54c0 1.064.6 1.666 1.792 1.666a4.124 4.124 0 0 0 1.2-.182v-.91a2.521 2.521 0 0 1-.966.182c-.728 0-1.008-.294-1.008-1.022v-4.186h1.974v-.84H327.6v-1.974l-1.022.238v1.736h-1.414v.84h1.414Z"/>
  <g transform="translate(-454 -218)">
    <rect width="130" height="39" fill="#f5f5f5" rx="3" transform="translate(479 242)"/>
    <path fill="#6a6e73" d="M529.246 267h6.608v-.952h-5.53V257.2h-1.078Zm7.714-3.416a3.384 3.384 0 0 0 3.318 3.556 3.389 3.389 0 0 0 3.346-3.556 3.365 3.365 0 0 0-3.346-3.528 3.359 3.359 0 0 0-3.318 3.528Zm5.64.016a2.412 2.412 0 0 1-2.322 2.63 2.4 2.4 0 0 1-2.296-2.63 2.421 2.421 0 0 1 2.3-2.646 2.424 2.424 0 0 1 2.318 2.646Zm5.756 3.5a2.759 2.759 0 0 0 2.17-1v1.124c0 1.148-.672 1.75-1.9 1.75a4.449 4.449 0 0 1-2.17-.63l-.434.784a5.318 5.318 0 0 0 2.66.714c1.848 0 2.87-.924 2.87-2.632v-7.042h-1.012v.868a2.82 2.82 0 0 0-2.128-.952 3.329 3.329 0 0 0-3.22 3.516 3.308 3.308 0 0 0 3.164 3.5Zm-2.142-3.516a2.428 2.428 0 0 1 2.38-2.6 2.462 2.462 0 0 1 1.932.91v3.4a2.36 2.36 0 0 1-1.932.91 2.44 2.44 0 0 1-2.38-2.62Zm7.2 0a3.384 3.384 0 0 0 3.314 3.556 3.389 3.389 0 0 0 3.346-3.556 3.365 3.365 0 0 0-3.346-3.528 3.359 3.359 0 0 0-3.318 3.528Zm5.642.014a2.412 2.412 0 0 1-2.328 2.632 2.4 2.4 0 0 1-2.3-2.632 2.421 2.421 0 0 1 2.3-2.646 2.424 2.424 0 0 1 2.324 2.648Z"/>
  </g>
  <g opacity=".03">
    <path d="M344 0h16v640h-16z" class="announcement-responsive-3_svg__prefix__f"/>
    <path fill="red" d="M16 0h328v640H16z" opacity=".75"/>
    <path d="M0 0h16v640H0z" class="announcement-responsive-3_svg__prefix__f"/>
  </g>
</svg>
