<svg width="482" height="256" viewBox="0 0 482 256" fill="none" xmlns="http://www.w3.org/2000/svg">
<mask id="path-1-inside-1_4009_466" fill="white">
<path d="M0 0H482V59H0V0Z"/>
</mask>
<path d="M0 1H482V-1H0V1ZM482 58H0V60H482V58Z" fill="#707070" mask="url(#path-1-inside-1_4009_466)"/>
<path d="M24.108 36L29.058 23.4H31.56L36.438 36H34.116L32.82 32.472H27.654L26.358 36H24.108ZM28.284 30.78H32.226L30.246 25.452L28.284 30.78ZM41.5641 36.162C40.7121 36.162 39.9381 35.958 39.2421 35.55C38.5581 35.13 38.0121 34.566 37.6041 33.858C37.2081 33.15 37.0101 32.364 37.0101 31.5C37.0101 30.624 37.2081 29.838 37.6041 29.142C38.0121 28.434 38.5581 27.876 39.2421 27.468C39.9381 27.048 40.7121 26.838 41.5641 26.838C42.2601 26.838 42.9201 26.97 43.5441 27.234C44.1801 27.498 44.7201 27.876 45.1641 28.368L43.9041 29.682C43.5921 29.334 43.2441 29.07 42.8601 28.89C42.4761 28.71 42.0681 28.62 41.6361 28.62C41.1441 28.62 40.7001 28.752 40.3041 29.016C39.9201 29.268 39.6141 29.61 39.3861 30.042C39.1581 30.474 39.0441 30.96 39.0441 31.5C39.0441 32.04 39.1581 32.532 39.3861 32.976C39.6141 33.408 39.9201 33.75 40.3041 34.002C40.7001 34.254 41.1441 34.38 41.6361 34.38C42.0681 34.38 42.4761 34.29 42.8601 34.11C43.2441 33.93 43.5921 33.672 43.9041 33.336L45.1641 34.632C44.7201 35.124 44.1801 35.502 43.5441 35.766C42.9201 36.03 42.2601 36.162 41.5641 36.162ZM50.7223 36.162C49.8703 36.162 49.0963 35.958 48.4003 35.55C47.7163 35.13 47.1703 34.566 46.7623 33.858C46.3663 33.15 46.1683 32.364 46.1683 31.5C46.1683 30.624 46.3663 29.838 46.7623 29.142C47.1703 28.434 47.7163 27.876 48.4003 27.468C49.0963 27.048 49.8703 26.838 50.7223 26.838C51.4183 26.838 52.0783 26.97 52.7023 27.234C53.3383 27.498 53.8783 27.876 54.3223 28.368L53.0623 29.682C52.7503 29.334 52.4023 29.07 52.0183 28.89C51.6343 28.71 51.2263 28.62 50.7943 28.62C50.3023 28.62 49.8583 28.752 49.4623 29.016C49.0783 29.268 48.7723 29.61 48.5443 30.042C48.3163 30.474 48.2023 30.96 48.2023 31.5C48.2023 32.04 48.3163 32.532 48.5443 32.976C48.7723 33.408 49.0783 33.75 49.4623 34.002C49.8583 34.254 50.3023 34.38 50.7943 34.38C51.2263 34.38 51.6343 34.29 52.0183 34.11C52.4023 33.93 52.7503 33.672 53.0623 33.336L54.3223 34.632C53.8783 35.124 53.3383 35.502 52.7023 35.766C52.0783 36.03 51.4183 36.162 50.7223 36.162ZM59.8625 36.162C59.0105 36.162 58.2365 35.958 57.5405 35.55C56.8565 35.142 56.3165 34.59 55.9205 33.894C55.5245 33.186 55.3265 32.388 55.3265 31.5C55.3265 30.612 55.5245 29.82 55.9205 29.124C56.3165 28.416 56.8565 27.858 57.5405 27.45C58.2245 27.042 58.9985 26.838 59.8625 26.838C60.7265 26.838 61.4945 27.042 62.1665 27.45C62.8505 27.858 63.3905 28.416 63.7865 29.124C64.1825 29.82 64.3805 30.612 64.3805 31.5C64.3805 32.388 64.1825 33.186 63.7865 33.894C63.3905 34.59 62.8505 35.142 62.1665 35.55C61.4945 35.958 60.7265 36.162 59.8625 36.162ZM59.8625 34.434C60.3545 34.434 60.7865 34.308 61.1585 34.056C61.5425 33.804 61.8425 33.456 62.0585 33.012C62.2745 32.556 62.3825 32.052 62.3825 31.5C62.3825 30.936 62.2745 30.438 62.0585 30.006C61.8425 29.562 61.5425 29.214 61.1585 28.962C60.7865 28.698 60.3545 28.566 59.8625 28.566C59.3705 28.566 58.9325 28.698 58.5485 28.962C58.1645 29.214 57.8645 29.562 57.6485 30.006C57.4325 30.438 57.3245 30.936 57.3245 31.5C57.3245 32.064 57.4325 32.568 57.6485 33.012C57.8645 33.456 58.1645 33.804 58.5485 34.056C58.9325 34.308 59.3705 34.434 59.8625 34.434ZM66.4807 36V26.982H68.5147V28.926C68.7787 28.242 69.1207 27.72 69.5407 27.36C69.9607 27 70.4467 26.82 70.9987 26.82C71.1667 26.832 71.3167 26.85 71.4487 26.874C71.5807 26.886 71.7247 26.928 71.8807 27V28.782C71.7247 28.71 71.5447 28.656 71.3407 28.62C71.1487 28.584 70.9567 28.566 70.7647 28.566C70.2727 28.566 69.8287 28.698 69.4327 28.962C69.0487 29.226 68.7427 29.592 68.5147 30.06V36H66.4807ZM76.7792 36.09C76.0232 36.09 75.3392 35.886 74.7272 35.478C74.1152 35.058 73.6232 34.506 73.2512 33.822C72.8912 33.126 72.7112 32.352 72.7112 31.5C72.7112 30.636 72.8972 29.862 73.2692 29.178C73.6412 28.482 74.1452 27.93 74.7812 27.522C75.4292 27.114 76.1432 26.91 76.9232 26.91C77.4392 26.91 77.9192 27.012 78.3632 27.216C78.8192 27.408 79.2152 27.696 79.5512 28.08V23.094L81.5852 22.734V36H79.5692V34.812C79.2452 35.22 78.8432 35.538 78.3632 35.766C77.8832 35.982 77.3552 36.09 76.7792 36.09ZM77.4092 34.38C77.8412 34.38 78.2432 34.296 78.6152 34.128C78.9872 33.948 79.2992 33.702 79.5512 33.39V29.592C79.2872 29.28 78.9692 29.04 78.5972 28.872C78.2252 28.704 77.8292 28.62 77.4092 28.62C76.8932 28.62 76.4312 28.746 76.0232 28.998C75.6272 29.238 75.3092 29.574 75.0692 30.006C74.8292 30.438 74.7092 30.936 74.7092 31.5C74.7092 32.04 74.8292 32.532 75.0692 32.976C75.3092 33.408 75.6272 33.75 76.0232 34.002C76.4312 34.254 76.8932 34.38 77.4092 34.38ZM84.0936 36V26.982H86.1276V36H84.0936ZM85.1196 25.146C84.7716 25.146 84.4716 25.026 84.2196 24.786C83.9796 24.534 83.8596 24.24 83.8596 23.904C83.8596 23.556 83.9796 23.262 84.2196 23.022C84.4716 22.77 84.7716 22.644 85.1196 22.644C85.4676 22.644 85.7616 22.77 86.0016 23.022C86.2536 23.262 86.3796 23.55 86.3796 23.886C86.3796 24.234 86.2536 24.534 86.0016 24.786C85.7616 25.026 85.4676 25.146 85.1196 25.146ZM92.7687 36.162C91.9167 36.162 91.1427 35.958 90.4467 35.55C89.7627 35.142 89.2227 34.59 88.8267 33.894C88.4307 33.186 88.2327 32.388 88.2327 31.5C88.2327 30.612 88.4307 29.82 88.8267 29.124C89.2227 28.416 89.7627 27.858 90.4467 27.45C91.1307 27.042 91.9047 26.838 92.7687 26.838C93.6327 26.838 94.4007 27.042 95.0727 27.45C95.7567 27.858 96.2967 28.416 96.6927 29.124C97.0887 29.82 97.2867 30.612 97.2867 31.5C97.2867 32.388 97.0887 33.186 96.6927 33.894C96.2967 34.59 95.7567 35.142 95.0727 35.55C94.4007 35.958 93.6327 36.162 92.7687 36.162ZM92.7687 34.434C93.2607 34.434 93.6927 34.308 94.0647 34.056C94.4487 33.804 94.7487 33.456 94.9647 33.012C95.1807 32.556 95.2887 32.052 95.2887 31.5C95.2887 30.936 95.1807 30.438 94.9647 30.006C94.7487 29.562 94.4487 29.214 94.0647 28.962C93.6927 28.698 93.2607 28.566 92.7687 28.566C92.2767 28.566 91.8387 28.698 91.4547 28.962C91.0707 29.214 90.7707 29.562 90.5547 30.006C90.3387 30.438 90.2307 30.936 90.2307 31.5C90.2307 32.064 90.3387 32.568 90.5547 33.012C90.7707 33.456 91.0707 33.804 91.4547 34.056C91.8387 34.308 92.2767 34.434 92.7687 34.434ZM99.387 36V26.982H101.421V28.458C101.769 27.918 102.183 27.516 102.663 27.252C103.143 26.976 103.677 26.838 104.265 26.838C104.889 26.838 105.435 26.976 105.903 27.252C106.371 27.516 106.737 27.888 107.001 28.368C107.277 28.848 107.415 29.412 107.415 30.06V36H105.363V30.636C105.363 29.976 105.183 29.454 104.823 29.07C104.463 28.674 103.983 28.476 103.383 28.476C102.975 28.476 102.603 28.572 102.267 28.764C101.943 28.944 101.661 29.214 101.421 29.574V36H99.387Z" fill="white"/>
<g clip-path="url(#clip0_4009_466)">
<path d="M450 33.895C449.81 33.895 449.615 33.82 449.47 33.675L442.645 26.855C442.45 26.66 442.45 26.345 442.645 26.15C442.84 25.955 443.155 25.955 443.35 26.15L449.995 32.795L456.64 26.15C456.835 25.955 457.15 25.955 457.345 26.15C457.54 26.345 457.54 26.66 457.345 26.855L450.52 33.68C450.375 33.825 450.18 33.9 449.99 33.9L450 33.895Z" fill="white"/>
</g>
<g filter="url(#filter0_i_4009_466)">
<rect y="58" width="482" height="198" fill="#151515"/>
<rect x="0.5" y="58.5" width="481" height="197" stroke="#707070"/>
<path d="M24.108 94L29.058 81.4H31.56L36.438 94H34.116L32.82 90.472H27.654L26.358 94H24.108ZM28.284 88.78H32.226L30.246 83.452L28.284 88.78ZM41.5641 94.162C40.7121 94.162 39.9381 93.958 39.2421 93.55C38.5581 93.13 38.0121 92.566 37.6041 91.858C37.2081 91.15 37.0101 90.364 37.0101 89.5C37.0101 88.624 37.2081 87.838 37.6041 87.142C38.0121 86.434 38.5581 85.876 39.2421 85.468C39.9381 85.048 40.7121 84.838 41.5641 84.838C42.2601 84.838 42.9201 84.97 43.5441 85.234C44.1801 85.498 44.7201 85.876 45.1641 86.368L43.9041 87.682C43.5921 87.334 43.2441 87.07 42.8601 86.89C42.4761 86.71 42.0681 86.62 41.6361 86.62C41.1441 86.62 40.7001 86.752 40.3041 87.016C39.9201 87.268 39.6141 87.61 39.3861 88.042C39.1581 88.474 39.0441 88.96 39.0441 89.5C39.0441 90.04 39.1581 90.532 39.3861 90.976C39.6141 91.408 39.9201 91.75 40.3041 92.002C40.7001 92.254 41.1441 92.38 41.6361 92.38C42.0681 92.38 42.4761 92.29 42.8601 92.11C43.2441 91.93 43.5921 91.672 43.9041 91.336L45.1641 92.632C44.7201 93.124 44.1801 93.502 43.5441 93.766C42.9201 94.03 42.2601 94.162 41.5641 94.162ZM50.7223 94.162C49.8703 94.162 49.0963 93.958 48.4003 93.55C47.7163 93.13 47.1703 92.566 46.7623 91.858C46.3663 91.15 46.1683 90.364 46.1683 89.5C46.1683 88.624 46.3663 87.838 46.7623 87.142C47.1703 86.434 47.7163 85.876 48.4003 85.468C49.0963 85.048 49.8703 84.838 50.7223 84.838C51.4183 84.838 52.0783 84.97 52.7023 85.234C53.3383 85.498 53.8783 85.876 54.3223 86.368L53.0623 87.682C52.7503 87.334 52.4023 87.07 52.0183 86.89C51.6343 86.71 51.2263 86.62 50.7943 86.62C50.3023 86.62 49.8583 86.752 49.4623 87.016C49.0783 87.268 48.7723 87.61 48.5443 88.042C48.3163 88.474 48.2023 88.96 48.2023 89.5C48.2023 90.04 48.3163 90.532 48.5443 90.976C48.7723 91.408 49.0783 91.75 49.4623 92.002C49.8583 92.254 50.3023 92.38 50.7943 92.38C51.2263 92.38 51.6343 92.29 52.0183 92.11C52.4023 91.93 52.7503 91.672 53.0623 91.336L54.3223 92.632C53.8783 93.124 53.3383 93.502 52.7023 93.766C52.0783 94.03 51.4183 94.162 50.7223 94.162ZM59.8625 94.162C59.0105 94.162 58.2365 93.958 57.5405 93.55C56.8565 93.142 56.3165 92.59 55.9205 91.894C55.5245 91.186 55.3265 90.388 55.3265 89.5C55.3265 88.612 55.5245 87.82 55.9205 87.124C56.3165 86.416 56.8565 85.858 57.5405 85.45C58.2245 85.042 58.9985 84.838 59.8625 84.838C60.7265 84.838 61.4945 85.042 62.1665 85.45C62.8505 85.858 63.3905 86.416 63.7865 87.124C64.1825 87.82 64.3805 88.612 64.3805 89.5C64.3805 90.388 64.1825 91.186 63.7865 91.894C63.3905 92.59 62.8505 93.142 62.1665 93.55C61.4945 93.958 60.7265 94.162 59.8625 94.162ZM59.8625 92.434C60.3545 92.434 60.7865 92.308 61.1585 92.056C61.5425 91.804 61.8425 91.456 62.0585 91.012C62.2745 90.556 62.3825 90.052 62.3825 89.5C62.3825 88.936 62.2745 88.438 62.0585 88.006C61.8425 87.562 61.5425 87.214 61.1585 86.962C60.7865 86.698 60.3545 86.566 59.8625 86.566C59.3705 86.566 58.9325 86.698 58.5485 86.962C58.1645 87.214 57.8645 87.562 57.6485 88.006C57.4325 88.438 57.3245 88.936 57.3245 89.5C57.3245 90.064 57.4325 90.568 57.6485 91.012C57.8645 91.456 58.1645 91.804 58.5485 92.056C58.9325 92.308 59.3705 92.434 59.8625 92.434ZM66.4807 94V84.982H68.5147V86.926C68.7787 86.242 69.1207 85.72 69.5407 85.36C69.9607 85 70.4467 84.82 70.9987 84.82C71.1667 84.832 71.3167 84.85 71.4487 84.874C71.5807 84.886 71.7247 84.928 71.8807 85V86.782C71.7247 86.71 71.5447 86.656 71.3407 86.62C71.1487 86.584 70.9567 86.566 70.7647 86.566C70.2727 86.566 69.8287 86.698 69.4327 86.962C69.0487 87.226 68.7427 87.592 68.5147 88.06V94H66.4807ZM76.7792 94.09C76.0232 94.09 75.3392 93.886 74.7272 93.478C74.1152 93.058 73.6232 92.506 73.2512 91.822C72.8912 91.126 72.7112 90.352 72.7112 89.5C72.7112 88.636 72.8972 87.862 73.2692 87.178C73.6412 86.482 74.1452 85.93 74.7812 85.522C75.4292 85.114 76.1432 84.91 76.9232 84.91C77.4392 84.91 77.9192 85.012 78.3632 85.216C78.8192 85.408 79.2152 85.696 79.5512 86.08V81.094L81.5852 80.734V94H79.5692V92.812C79.2452 93.22 78.8432 93.538 78.3632 93.766C77.8832 93.982 77.3552 94.09 76.7792 94.09ZM77.4092 92.38C77.8412 92.38 78.2432 92.296 78.6152 92.128C78.9872 91.948 79.2992 91.702 79.5512 91.39V87.592C79.2872 87.28 78.9692 87.04 78.5972 86.872C78.2252 86.704 77.8292 86.62 77.4092 86.62C76.8932 86.62 76.4312 86.746 76.0232 86.998C75.6272 87.238 75.3092 87.574 75.0692 88.006C74.8292 88.438 74.7092 88.936 74.7092 89.5C74.7092 90.04 74.8292 90.532 75.0692 90.976C75.3092 91.408 75.6272 91.75 76.0232 92.002C76.4312 92.254 76.8932 92.38 77.4092 92.38ZM84.0936 94V84.982H86.1276V94H84.0936ZM85.1196 83.146C84.7716 83.146 84.4716 83.026 84.2196 82.786C83.9796 82.534 83.8596 82.24 83.8596 81.904C83.8596 81.556 83.9796 81.262 84.2196 81.022C84.4716 80.77 84.7716 80.644 85.1196 80.644C85.4676 80.644 85.7616 80.77 86.0016 81.022C86.2536 81.262 86.3796 81.55 86.3796 81.886C86.3796 82.234 86.2536 82.534 86.0016 82.786C85.7616 83.026 85.4676 83.146 85.1196 83.146ZM92.7687 94.162C91.9167 94.162 91.1427 93.958 90.4467 93.55C89.7627 93.142 89.2227 92.59 88.8267 91.894C88.4307 91.186 88.2327 90.388 88.2327 89.5C88.2327 88.612 88.4307 87.82 88.8267 87.124C89.2227 86.416 89.7627 85.858 90.4467 85.45C91.1307 85.042 91.9047 84.838 92.7687 84.838C93.6327 84.838 94.4007 85.042 95.0727 85.45C95.7567 85.858 96.2967 86.416 96.6927 87.124C97.0887 87.82 97.2867 88.612 97.2867 89.5C97.2867 90.388 97.0887 91.186 96.6927 91.894C96.2967 92.59 95.7567 93.142 95.0727 93.55C94.4007 93.958 93.6327 94.162 92.7687 94.162ZM92.7687 92.434C93.2607 92.434 93.6927 92.308 94.0647 92.056C94.4487 91.804 94.7487 91.456 94.9647 91.012C95.1807 90.556 95.2887 90.052 95.2887 89.5C95.2887 88.936 95.1807 88.438 94.9647 88.006C94.7487 87.562 94.4487 87.214 94.0647 86.962C93.6927 86.698 93.2607 86.566 92.7687 86.566C92.2767 86.566 91.8387 86.698 91.4547 86.962C91.0707 87.214 90.7707 87.562 90.5547 88.006C90.3387 88.438 90.2307 88.936 90.2307 89.5C90.2307 90.064 90.3387 90.568 90.5547 91.012C90.7707 91.456 91.0707 91.804 91.4547 92.056C91.8387 92.308 92.2767 92.434 92.7687 92.434ZM99.387 94V84.982H101.421V86.458C101.769 85.918 102.183 85.516 102.663 85.252C103.143 84.976 103.677 84.838 104.265 84.838C104.889 84.838 105.435 84.976 105.903 85.252C106.371 85.516 106.737 85.888 107.001 86.368C107.277 86.848 107.415 87.412 107.415 88.06V94H105.363V88.636C105.363 87.976 105.183 87.454 104.823 87.07C104.463 86.674 103.983 86.476 103.383 86.476C102.975 86.476 102.603 86.572 102.267 86.764C101.943 86.944 101.661 87.214 101.421 87.574V94H99.387Z" fill="white"/>
<g clip-path="url(#clip1_4009_466)">
<path d="M457 91C456.87 91 456.745 90.95 456.645 90.855L450 84.21L443.355 90.855C443.16 91.05 442.845 91.05 442.65 90.855C442.455 90.66 442.455 90.345 442.65 90.15L449.47 83.325C449.76 83.035 450.24 83.035 450.53 83.325L457.355 90.15C457.55 90.345 457.55 90.66 457.355 90.855C457.255 90.955 457.13 91 457 91Z" fill="white"/>
</g>
<path d="M25.424 151V139.8H26.656V149.912H32.976V151H25.424ZM37.9685 151.128C37.2432 151.128 36.5925 150.952 36.0165 150.6C35.4405 150.248 34.9872 149.768 34.6565 149.16C34.3258 148.552 34.1605 147.864 34.1605 147.096C34.1605 146.328 34.3258 145.64 34.6565 145.032C34.9872 144.424 35.4405 143.944 36.0165 143.592C36.5925 143.24 37.2432 143.064 37.9685 143.064C38.6832 143.064 39.3232 143.24 39.8885 143.592C40.4645 143.944 40.9178 144.424 41.2485 145.032C41.5792 145.64 41.7445 146.328 41.7445 147.096C41.7445 147.864 41.5792 148.552 41.2485 149.16C40.9178 149.768 40.4645 150.248 39.8885 150.6C39.3232 150.952 38.6832 151.128 37.9685 151.128ZM37.9525 150.104C38.4645 150.104 38.9178 149.976 39.3125 149.72C39.7072 149.453 40.0165 149.091 40.2405 148.632C40.4752 148.173 40.5925 147.661 40.5925 147.096C40.5925 146.52 40.4752 146.008 40.2405 145.56C40.0165 145.101 39.7072 144.744 39.3125 144.488C38.9178 144.221 38.4645 144.088 37.9525 144.088C37.4405 144.088 36.9872 144.221 36.5925 144.488C36.1978 144.744 35.8832 145.101 35.6485 145.56C35.4245 146.008 35.3125 146.52 35.3125 147.096C35.3125 147.661 35.4245 148.173 35.6485 148.632C35.8832 149.091 36.1978 149.453 36.5925 149.72C36.9872 149.976 37.4405 150.104 37.9525 150.104ZM43.7938 151V143.192H44.9618V144.792C45.1644 144.248 45.4524 143.827 45.8258 143.528C46.2098 143.219 46.6471 143.064 47.1378 143.064C47.2764 143.064 47.4044 143.075 47.5218 143.096C47.6391 143.107 47.7564 143.133 47.8738 143.176V144.232C47.7458 144.189 47.6071 144.157 47.4578 144.136C47.3191 144.104 47.1858 144.088 47.0578 144.088C46.5778 144.088 46.1564 144.227 45.7938 144.504C45.4418 144.781 45.1644 145.171 44.9618 145.672V151H43.7938ZM52.4544 151.16C51.729 151.16 51.073 150.984 50.4864 150.632C49.8997 150.269 49.4357 149.784 49.0944 149.176C48.753 148.557 48.5824 147.864 48.5824 147.096C48.5824 146.328 48.7424 145.64 49.0624 145.032C49.393 144.424 49.8357 143.944 50.3904 143.592C50.945 143.24 51.5637 143.064 52.2464 143.064C52.9397 143.064 53.553 143.24 54.0864 143.592C54.6304 143.933 55.057 144.403 55.3664 145C55.6864 145.587 55.8464 146.253 55.8464 147V147.352H49.7184C49.761 147.885 49.905 148.365 50.1504 148.792C50.4064 149.208 50.737 149.539 51.1424 149.784C51.5584 150.019 52.0117 150.136 52.5024 150.136C52.9077 150.136 53.297 150.067 53.6704 149.928C54.0544 149.779 54.3797 149.581 54.6464 149.336L55.3824 150.12C54.9344 150.472 54.4704 150.733 53.9904 150.904C53.5104 151.075 52.9984 151.16 52.4544 151.16ZM49.7504 146.52H54.6944C54.641 146.051 54.497 145.635 54.2624 145.272C54.0384 144.899 53.7504 144.605 53.3984 144.392C53.057 144.179 52.673 144.072 52.2464 144.072C51.8197 144.072 51.4304 144.179 51.0784 144.392C50.7264 144.595 50.433 144.883 50.1984 145.256C49.9744 145.619 49.825 146.04 49.7504 146.52ZM57.8406 151V143.192H59.0086V144.408C59.3073 143.96 59.6486 143.624 60.0326 143.4C60.4166 143.176 60.8486 143.064 61.3286 143.064C61.8833 143.064 62.3686 143.203 62.7846 143.48C63.2006 143.747 63.5153 144.115 63.7286 144.584C64.038 144.083 64.406 143.704 64.8326 143.448C65.27 143.192 65.7713 143.064 66.3366 143.064C66.8593 143.064 67.318 143.187 67.7126 143.432C68.118 143.677 68.4326 144.019 68.6566 144.456C68.8806 144.883 68.9926 145.384 68.9926 145.96V151H67.8246V146.248C67.8246 145.565 67.654 145.027 67.3126 144.632C66.9713 144.237 66.502 144.04 65.9046 144.04C65.4993 144.04 65.1313 144.141 64.8006 144.344C64.4806 144.547 64.198 144.856 63.9526 145.272C63.974 145.379 63.99 145.491 64.0006 145.608C64.0113 145.725 64.0166 145.843 64.0166 145.96V151H62.8486V146.248C62.8486 145.565 62.6726 145.027 62.3206 144.632C61.9793 144.237 61.51 144.04 60.9126 144.04C60.1126 144.04 59.478 144.424 59.0086 145.192V151H57.8406ZM75.0746 151V143.192H76.2426V151H75.0746ZM75.6666 141.256C75.432 141.256 75.2293 141.176 75.0586 141.016C74.8986 140.845 74.8186 140.648 74.8186 140.424C74.8186 140.2 74.8986 140.008 75.0586 139.848C75.2293 139.677 75.432 139.592 75.6666 139.592C75.9013 139.592 76.0986 139.677 76.2586 139.848C76.4293 140.008 76.5146 140.2 76.5146 140.424C76.5146 140.648 76.4293 140.845 76.2586 141.016C76.0986 141.176 75.9013 141.256 75.6666 141.256ZM78.6375 154.344V143.192H79.7895V144.312C80.0882 143.917 80.4508 143.619 80.8775 143.416C81.3148 143.203 81.7948 143.096 82.3175 143.096C83.0002 143.096 83.6082 143.277 84.1415 143.64C84.6855 143.992 85.1175 144.472 85.4375 145.08C85.7575 145.677 85.9175 146.349 85.9175 147.096C85.9175 147.843 85.7522 148.52 85.4215 149.128C85.1015 149.736 84.6642 150.221 84.1095 150.584C83.5655 150.936 82.9468 151.112 82.2535 151.112C81.7628 151.112 81.3095 151.021 80.8935 150.84C80.4775 150.648 80.1148 150.376 79.8055 150.024V154.344H78.6375ZM82.0295 150.104C82.5522 150.104 83.0162 149.976 83.4215 149.72C83.8375 149.453 84.1628 149.096 84.3975 148.648C84.6428 148.189 84.7655 147.677 84.7655 147.112C84.7655 146.536 84.6428 146.024 84.3975 145.576C84.1628 145.128 83.8375 144.776 83.4215 144.52C83.0162 144.253 82.5522 144.12 82.0295 144.12C81.5708 144.12 81.1442 144.216 80.7495 144.408C80.3655 144.589 80.0508 144.851 79.8055 145.192V149.016C80.0615 149.357 80.3815 149.624 80.7655 149.816C81.1602 150.008 81.5815 150.104 82.0295 150.104ZM90.3816 151.16C89.7416 151.16 89.1496 151.064 88.6056 150.872C88.0616 150.669 87.5976 150.381 87.2136 150.008L87.8376 149.24C88.307 149.581 88.739 149.832 89.1336 149.992C89.5283 150.141 89.9336 150.216 90.3496 150.216C90.915 150.216 91.3843 150.083 91.7576 149.816C92.131 149.549 92.3176 149.208 92.3176 148.792C92.3176 148.472 92.2056 148.221 91.9816 148.04C91.7683 147.859 91.411 147.72 90.9096 147.624L89.6296 147.4C88.8723 147.261 88.3123 147.027 87.9496 146.696C87.5976 146.365 87.4216 145.917 87.4216 145.352C87.4216 144.904 87.539 144.509 87.7736 144.168C88.019 143.827 88.355 143.56 88.7816 143.368C89.2083 143.165 89.6936 143.064 90.2376 143.064C90.771 143.064 91.2776 143.144 91.7576 143.304C92.2376 143.453 92.723 143.699 93.2136 144.04L92.6376 144.856C92.2323 144.568 91.827 144.36 91.4216 144.232C91.0163 144.093 90.6056 144.024 90.1896 144.024C89.6776 144.024 89.267 144.136 88.9576 144.36C88.6483 144.584 88.4936 144.888 88.4936 145.272C88.4936 145.592 88.5896 145.837 88.7816 146.008C88.9843 146.179 89.3363 146.307 89.8376 146.392L91.1496 146.632C91.939 146.771 92.515 147.011 92.8776 147.352C93.2403 147.693 93.4216 148.152 93.4216 148.728C93.4216 149.187 93.2883 149.603 93.0216 149.976C92.755 150.339 92.3923 150.627 91.9336 150.84C91.475 151.053 90.9576 151.16 90.3816 151.16ZM97.984 151.128C97.4293 151.128 96.9387 151.005 96.512 150.76C96.0853 150.515 95.7493 150.173 95.504 149.736C95.2693 149.299 95.152 148.797 95.152 148.232V143.192H96.336V147.896C96.336 148.589 96.5227 149.139 96.896 149.544C97.2693 149.949 97.776 150.152 98.416 150.152C98.8533 150.152 99.2427 150.051 99.584 149.848C99.936 149.645 100.229 149.352 100.464 148.968V143.192H101.632V151H100.464V149.736C100.165 150.195 99.808 150.541 99.392 150.776C98.9867 151.011 98.5173 151.128 97.984 151.128ZM104.028 151V143.192H105.196V144.408C105.495 143.96 105.836 143.624 106.22 143.4C106.604 143.176 107.036 143.064 107.516 143.064C108.071 143.064 108.556 143.203 108.972 143.48C109.388 143.747 109.703 144.115 109.916 144.584C110.225 144.083 110.593 143.704 111.02 143.448C111.457 143.192 111.959 143.064 112.524 143.064C113.047 143.064 113.505 143.187 113.9 143.432C114.305 143.677 114.62 144.019 114.844 144.456C115.068 144.883 115.18 145.384 115.18 145.96V151H114.012V146.248C114.012 145.565 113.841 145.027 113.5 144.632C113.159 144.237 112.689 144.04 112.092 144.04C111.687 144.04 111.319 144.141 110.988 144.344C110.668 144.547 110.385 144.856 110.14 145.272C110.161 145.379 110.177 145.491 110.188 145.608C110.199 145.725 110.204 145.843 110.204 145.96V151H109.036V146.248C109.036 145.565 108.86 145.027 108.508 144.632C108.167 144.237 107.697 144.04 107.1 144.04C106.3 144.04 105.665 144.424 105.196 145.192V151H104.028ZM124.526 151.112C123.854 151.112 123.246 150.936 122.702 150.584C122.158 150.221 121.726 149.741 121.406 149.144C121.086 148.536 120.926 147.859 120.926 147.112C120.926 146.355 121.086 145.677 121.406 145.08C121.737 144.472 122.179 143.992 122.734 143.64C123.289 143.277 123.907 143.096 124.59 143.096C125.07 143.096 125.518 143.192 125.934 143.384C126.35 143.565 126.713 143.832 127.022 144.184V139.448L128.19 139.208V151H127.022V149.96C126.723 150.333 126.361 150.621 125.934 150.824C125.507 151.016 125.038 151.112 124.526 151.112ZM124.814 150.088C125.273 150.088 125.694 149.997 126.078 149.816C126.462 149.635 126.777 149.379 127.022 149.048V145.176C126.766 144.845 126.441 144.589 126.046 144.408C125.662 144.216 125.251 144.12 124.814 144.12C124.291 144.12 123.822 144.248 123.406 144.504C123.001 144.76 122.675 145.112 122.43 145.56C122.195 146.008 122.078 146.52 122.078 147.096C122.078 147.661 122.195 148.173 122.43 148.632C122.675 149.08 123.001 149.437 123.406 149.704C123.822 149.96 124.291 150.088 124.814 150.088ZM134.047 151.128C133.321 151.128 132.671 150.952 132.095 150.6C131.519 150.248 131.065 149.768 130.735 149.16C130.404 148.552 130.239 147.864 130.239 147.096C130.239 146.328 130.404 145.64 130.735 145.032C131.065 144.424 131.519 143.944 132.095 143.592C132.671 143.24 133.321 143.064 134.047 143.064C134.761 143.064 135.401 143.24 135.967 143.592C136.543 143.944 136.996 144.424 137.327 145.032C137.657 145.64 137.823 146.328 137.823 147.096C137.823 147.864 137.657 148.552 137.327 149.16C136.996 149.768 136.543 150.248 135.967 150.6C135.401 150.952 134.761 151.128 134.047 151.128ZM134.031 150.104C134.543 150.104 134.996 149.976 135.391 149.72C135.785 149.453 136.095 149.091 136.319 148.632C136.553 148.173 136.671 147.661 136.671 147.096C136.671 146.52 136.553 146.008 136.319 145.56C136.095 145.101 135.785 144.744 135.391 144.488C134.996 144.221 134.543 144.088 134.031 144.088C133.519 144.088 133.065 144.221 132.671 144.488C132.276 144.744 131.961 145.101 131.727 145.56C131.503 146.008 131.391 146.52 131.391 147.096C131.391 147.661 131.503 148.173 131.727 148.632C131.961 149.091 132.276 149.453 132.671 149.72C133.065 149.976 133.519 150.104 134.031 150.104ZM139.872 151V139.448L141.04 139.208V151H139.872ZM146.89 151.128C146.165 151.128 145.514 150.952 144.938 150.6C144.362 150.248 143.909 149.768 143.578 149.16C143.248 148.552 143.082 147.864 143.082 147.096C143.082 146.328 143.248 145.64 143.578 145.032C143.909 144.424 144.362 143.944 144.938 143.592C145.514 143.24 146.165 143.064 146.89 143.064C147.605 143.064 148.245 143.24 148.81 143.592C149.386 143.944 149.84 144.424 150.17 145.032C150.501 145.64 150.666 146.328 150.666 147.096C150.666 147.864 150.501 148.552 150.17 149.16C149.84 149.768 149.386 150.248 148.81 150.6C148.245 150.952 147.605 151.128 146.89 151.128ZM146.874 150.104C147.386 150.104 147.84 149.976 148.234 149.72C148.629 149.453 148.938 149.091 149.162 148.632C149.397 148.173 149.514 147.661 149.514 147.096C149.514 146.52 149.397 146.008 149.162 145.56C148.938 145.101 148.629 144.744 148.234 144.488C147.84 144.221 147.386 144.088 146.874 144.088C146.362 144.088 145.909 144.221 145.514 144.488C145.12 144.744 144.805 145.101 144.57 145.56C144.346 146.008 144.234 146.52 144.234 147.096C144.234 147.661 144.346 148.173 144.57 148.632C144.805 149.091 145.12 149.453 145.514 149.72C145.909 149.976 146.362 150.104 146.874 150.104ZM152.716 151V143.192H153.884V144.792C154.086 144.248 154.374 143.827 154.748 143.528C155.132 143.219 155.569 143.064 156.06 143.064C156.198 143.064 156.326 143.075 156.444 143.096C156.561 143.107 156.678 143.133 156.796 143.176V144.232C156.668 144.189 156.529 144.157 156.38 144.136C156.241 144.104 156.108 144.088 155.98 144.088C155.5 144.088 155.078 144.227 154.716 144.504C154.364 144.781 154.086 145.171 153.884 145.672V151H152.716ZM164.491 151.16C163.851 151.16 163.259 151.064 162.715 150.872C162.171 150.669 161.707 150.381 161.323 150.008L161.947 149.24C162.416 149.581 162.848 149.832 163.243 149.992C163.638 150.141 164.043 150.216 164.459 150.216C165.024 150.216 165.494 150.083 165.867 149.816C166.24 149.549 166.427 149.208 166.427 148.792C166.427 148.472 166.315 148.221 166.091 148.04C165.878 147.859 165.52 147.72 165.019 147.624L163.739 147.4C162.982 147.261 162.422 147.027 162.059 146.696C161.707 146.365 161.531 145.917 161.531 145.352C161.531 144.904 161.648 144.509 161.883 144.168C162.128 143.827 162.464 143.56 162.891 143.368C163.318 143.165 163.803 143.064 164.347 143.064C164.88 143.064 165.387 143.144 165.867 143.304C166.347 143.453 166.832 143.699 167.323 144.04L166.747 144.856C166.342 144.568 165.936 144.36 165.531 144.232C165.126 144.093 164.715 144.024 164.299 144.024C163.787 144.024 163.376 144.136 163.067 144.36C162.758 144.584 162.603 144.888 162.603 145.272C162.603 145.592 162.699 145.837 162.891 146.008C163.094 146.179 163.446 146.307 163.947 146.392L165.259 146.632C166.048 146.771 166.624 147.011 166.987 147.352C167.35 147.693 167.531 148.152 167.531 148.728C167.531 149.187 167.398 149.603 167.131 149.976C166.864 150.339 166.502 150.627 166.043 150.84C165.584 151.053 165.067 151.16 164.491 151.16ZM169.293 151V143.192H170.461V151H169.293ZM169.885 141.256C169.651 141.256 169.448 141.176 169.277 141.016C169.117 140.845 169.037 140.648 169.037 140.424C169.037 140.2 169.117 140.008 169.277 139.848C169.448 139.677 169.651 139.592 169.885 139.592C170.12 139.592 170.317 139.677 170.477 139.848C170.648 140.008 170.733 140.2 170.733 140.424C170.733 140.648 170.648 140.845 170.477 141.016C170.317 141.176 170.12 141.256 169.885 141.256ZM175.832 151.16C175.16 151.16 174.648 151 174.296 150.68C173.955 150.349 173.784 149.875 173.784 149.256V144.152H172.168V143.192H173.784V141.048L174.952 140.776V143.192H177.192V144.152H174.952V148.952C174.952 149.368 175.038 149.667 175.208 149.848C175.39 150.029 175.683 150.12 176.088 150.12C176.291 150.12 176.472 150.104 176.632 150.072C176.792 150.04 176.979 149.987 177.192 149.912V150.952C176.979 151.027 176.755 151.08 176.52 151.112C176.286 151.144 176.056 151.16 175.832 151.16ZM185.054 151.144C184.499 151.144 184.008 151.043 183.582 150.84C183.155 150.637 182.819 150.36 182.574 150.008C182.339 149.645 182.222 149.229 182.222 148.76C182.222 148.291 182.344 147.885 182.59 147.544C182.835 147.192 183.176 146.92 183.614 146.728C184.051 146.536 184.563 146.44 185.15 146.44C185.598 146.44 186.019 146.488 186.414 146.584C186.819 146.68 187.192 146.835 187.534 147.048V145.976C187.534 145.336 187.363 144.856 187.022 144.536C186.68 144.205 186.179 144.04 185.518 144.04C185.155 144.04 184.782 144.093 184.398 144.2C184.024 144.307 183.608 144.477 183.15 144.712L182.718 143.816C183.763 143.315 184.744 143.064 185.661 143.064C186.632 143.064 187.379 143.304 187.902 143.784C188.424 144.253 188.686 144.931 188.686 145.816V151H187.534V150.088C187.192 150.44 186.814 150.707 186.398 150.888C185.982 151.059 185.534 151.144 185.054 151.144ZM183.342 148.728C183.342 149.187 183.518 149.555 183.87 149.832C184.232 150.109 184.707 150.248 185.294 150.248C185.731 150.248 186.131 150.173 186.494 150.024C186.867 149.875 187.214 149.651 187.534 149.352V147.848C187.203 147.656 186.862 147.517 186.51 147.432C186.158 147.336 185.763 147.288 185.326 147.288C184.728 147.288 184.248 147.421 183.886 147.688C183.523 147.944 183.342 148.291 183.342 148.728ZM191.059 151V143.192H192.227V144.408C192.526 143.96 192.867 143.624 193.251 143.4C193.635 143.176 194.067 143.064 194.547 143.064C195.102 143.064 195.587 143.203 196.003 143.48C196.419 143.747 196.734 144.115 196.947 144.584C197.257 144.083 197.625 143.704 198.051 143.448C198.489 143.192 198.99 143.064 199.555 143.064C200.078 143.064 200.537 143.187 200.931 143.432C201.337 143.677 201.651 144.019 201.875 144.456C202.099 144.883 202.211 145.384 202.211 145.96V151H201.043V146.248C201.043 145.565 200.873 145.027 200.531 144.632C200.19 144.237 199.721 144.04 199.123 144.04C198.718 144.04 198.35 144.141 198.019 144.344C197.699 144.547 197.417 144.856 197.171 145.272C197.193 145.379 197.209 145.491 197.219 145.608C197.23 145.725 197.235 145.843 197.235 145.96V151H196.067V146.248C196.067 145.565 195.891 145.027 195.539 144.632C195.198 144.237 194.729 144.04 194.131 144.04C193.331 144.04 192.697 144.424 192.227 145.192V151H191.059ZM208.095 151.16C207.37 151.16 206.714 150.984 206.127 150.632C205.54 150.269 205.076 149.784 204.735 149.176C204.394 148.557 204.223 147.864 204.223 147.096C204.223 146.328 204.383 145.64 204.703 145.032C205.034 144.424 205.476 143.944 206.031 143.592C206.586 143.24 207.204 143.064 207.887 143.064C208.58 143.064 209.194 143.24 209.727 143.592C210.271 143.933 210.698 144.403 211.007 145C211.327 145.587 211.487 146.253 211.487 147V147.352H205.359C205.402 147.885 205.546 148.365 205.791 148.792C206.047 149.208 206.378 149.539 206.783 149.784C207.199 150.019 207.652 150.136 208.143 150.136C208.548 150.136 208.938 150.067 209.311 149.928C209.695 149.779 210.02 149.581 210.287 149.336L211.023 150.12C210.575 150.472 210.111 150.733 209.631 150.904C209.151 151.075 208.639 151.16 208.095 151.16ZM205.391 146.52H210.335C210.282 146.051 210.138 145.635 209.903 145.272C209.679 144.899 209.391 144.605 209.039 144.392C208.698 144.179 208.314 144.072 207.887 144.072C207.46 144.072 207.071 144.179 206.719 144.392C206.367 144.595 206.074 144.883 205.839 145.256C205.615 145.619 205.466 146.04 205.391 146.52ZM216.223 151.16C215.551 151.16 215.039 151 214.687 150.68C214.346 150.349 214.175 149.875 214.175 149.256V144.152H212.559V143.192H214.175V141.048L215.343 140.776V143.192H217.583V144.152H215.343V148.952C215.343 149.368 215.428 149.667 215.599 149.848C215.78 150.029 216.074 150.12 216.479 150.12C216.682 150.12 216.863 150.104 217.023 150.072C217.183 150.04 217.37 149.987 217.583 149.912V150.952C217.37 151.027 217.146 151.08 216.911 151.112C216.676 151.144 216.447 151.16 216.223 151.16ZM218.894 153.512L219.854 149.816H221.102L219.806 153.512H218.894ZM230.532 151.128C229.807 151.128 229.151 150.952 228.564 150.6C227.988 150.237 227.529 149.752 227.188 149.144C226.847 148.525 226.676 147.843 226.676 147.096C226.676 146.339 226.847 145.656 227.188 145.048C227.529 144.44 227.988 143.96 228.564 143.608C229.151 143.245 229.807 143.064 230.532 143.064C231.108 143.064 231.657 143.171 232.18 143.384C232.703 143.597 233.156 143.896 233.54 144.28L232.788 145.096C232.511 144.787 232.175 144.547 231.78 144.376C231.385 144.205 230.985 144.12 230.58 144.12C230.068 144.12 229.604 144.253 229.188 144.52C228.783 144.787 228.457 145.144 228.212 145.592C227.967 146.04 227.844 146.541 227.844 147.096C227.844 147.651 227.967 148.152 228.212 148.6C228.457 149.048 228.783 149.405 229.188 149.672C229.604 149.939 230.068 150.072 230.58 150.072C230.985 150.072 231.385 149.987 231.78 149.816C232.175 149.635 232.511 149.395 232.788 149.096L233.54 149.912C233.156 150.296 232.703 150.595 232.18 150.808C231.657 151.021 231.108 151.128 230.532 151.128ZM238.39 151.128C237.665 151.128 237.014 150.952 236.438 150.6C235.862 150.248 235.409 149.768 235.078 149.16C234.748 148.552 234.582 147.864 234.582 147.096C234.582 146.328 234.748 145.64 235.078 145.032C235.409 144.424 235.862 143.944 236.438 143.592C237.014 143.24 237.665 143.064 238.39 143.064C239.105 143.064 239.745 143.24 240.31 143.592C240.886 143.944 241.34 144.424 241.67 145.032C242.001 145.64 242.166 146.328 242.166 147.096C242.166 147.864 242.001 148.552 241.67 149.16C241.34 149.768 240.886 150.248 240.31 150.6C239.745 150.952 239.105 151.128 238.39 151.128ZM238.374 150.104C238.886 150.104 239.34 149.976 239.734 149.72C240.129 149.453 240.438 149.091 240.662 148.632C240.897 148.173 241.014 147.661 241.014 147.096C241.014 146.52 240.897 146.008 240.662 145.56C240.438 145.101 240.129 144.744 239.734 144.488C239.34 144.221 238.886 144.088 238.374 144.088C237.862 144.088 237.409 144.221 237.014 144.488C236.62 144.744 236.305 145.101 236.07 145.56C235.846 146.008 235.734 146.52 235.734 147.096C235.734 147.661 235.846 148.173 236.07 148.632C236.305 149.091 236.62 149.453 237.014 149.72C237.409 149.976 237.862 150.104 238.374 150.104ZM244.216 151V143.192H245.384V144.456C245.682 143.987 246.04 143.64 246.456 143.416C246.872 143.181 247.341 143.064 247.864 143.064C248.429 143.064 248.92 143.187 249.336 143.432C249.762 143.667 250.093 144.003 250.328 144.44C250.573 144.867 250.696 145.368 250.696 145.944V151H249.528V146.28C249.528 145.587 249.336 145.043 248.952 144.648C248.578 144.243 248.072 144.04 247.432 144.04C247.005 144.04 246.616 144.141 246.264 144.344C245.912 144.547 245.618 144.845 245.384 145.24V151H244.216ZM255.46 151.16C254.82 151.16 254.228 151.064 253.684 150.872C253.14 150.669 252.676 150.381 252.292 150.008L252.916 149.24C253.385 149.581 253.817 149.832 254.212 149.992C254.606 150.141 255.012 150.216 255.428 150.216C255.993 150.216 256.462 150.083 256.836 149.816C257.209 149.549 257.396 149.208 257.396 148.792C257.396 148.472 257.284 148.221 257.06 148.04C256.846 147.859 256.489 147.72 255.988 147.624L254.708 147.4C253.95 147.261 253.39 147.027 253.028 146.696C252.676 146.365 252.5 145.917 252.5 145.352C252.5 144.904 252.617 144.509 252.852 144.168C253.097 143.827 253.433 143.56 253.86 143.368C254.286 143.165 254.772 143.064 255.316 143.064C255.849 143.064 256.356 143.144 256.836 143.304C257.316 143.453 257.801 143.699 258.292 144.04L257.716 144.856C257.31 144.568 256.905 144.36 256.5 144.232C256.094 144.093 255.684 144.024 255.268 144.024C254.756 144.024 254.345 144.136 254.036 144.36C253.726 144.584 253.572 144.888 253.572 145.272C253.572 145.592 253.668 145.837 253.86 146.008C254.062 146.179 254.414 146.307 254.916 146.392L256.228 146.632C257.017 146.771 257.593 147.011 257.956 147.352C258.318 147.693 258.5 148.152 258.5 148.728C258.5 149.187 258.366 149.603 258.1 149.976C257.833 150.339 257.47 150.627 257.012 150.84C256.553 151.053 256.036 151.16 255.46 151.16ZM263.876 151.16C263.151 151.16 262.495 150.984 261.908 150.632C261.322 150.269 260.858 149.784 260.516 149.176C260.175 148.557 260.004 147.864 260.004 147.096C260.004 146.328 260.164 145.64 260.484 145.032C260.815 144.424 261.258 143.944 261.812 143.592C262.367 143.24 262.986 143.064 263.668 143.064C264.362 143.064 264.975 143.24 265.508 143.592C266.052 143.933 266.479 144.403 266.788 145C267.108 145.587 267.268 146.253 267.268 147V147.352H261.14C261.183 147.885 261.327 148.365 261.572 148.792C261.828 149.208 262.159 149.539 262.564 149.784C262.98 150.019 263.434 150.136 263.924 150.136C264.33 150.136 264.719 150.067 265.092 149.928C265.476 149.779 265.802 149.581 266.068 149.336L266.804 150.12C266.356 150.472 265.892 150.733 265.412 150.904C264.932 151.075 264.42 151.16 263.876 151.16ZM261.172 146.52H266.116C266.063 146.051 265.919 145.635 265.684 145.272C265.46 144.899 265.172 144.605 264.82 144.392C264.479 144.179 264.095 144.072 263.668 144.072C263.242 144.072 262.852 144.179 262.5 144.392C262.148 144.595 261.855 144.883 261.62 145.256C261.396 145.619 261.247 146.04 261.172 146.52ZM272.766 151.128C272.041 151.128 271.385 150.952 270.799 150.6C270.223 150.237 269.764 149.752 269.423 149.144C269.081 148.525 268.911 147.843 268.911 147.096C268.911 146.339 269.081 145.656 269.423 145.048C269.764 144.44 270.223 143.96 270.799 143.608C271.385 143.245 272.041 143.064 272.766 143.064C273.343 143.064 273.892 143.171 274.415 143.384C274.937 143.597 275.391 143.896 275.775 144.28L275.023 145.096C274.745 144.787 274.409 144.547 274.015 144.376C273.62 144.205 273.22 144.12 272.815 144.12C272.303 144.12 271.839 144.253 271.423 144.52C271.017 144.787 270.692 145.144 270.447 145.592C270.201 146.04 270.079 146.541 270.079 147.096C270.079 147.651 270.201 148.152 270.447 148.6C270.692 149.048 271.017 149.405 271.423 149.672C271.839 149.939 272.303 150.072 272.815 150.072C273.22 150.072 273.62 149.987 274.015 149.816C274.409 149.635 274.745 149.395 275.023 149.096L275.775 149.912C275.391 150.296 274.937 150.595 274.415 150.808C273.892 151.021 273.343 151.128 272.766 151.128ZM280.535 151.16C279.863 151.16 279.351 151 278.999 150.68C278.658 150.349 278.487 149.875 278.487 149.256V144.152H276.871V143.192H278.487V141.048L279.655 140.776V143.192H281.895V144.152H279.655V148.952C279.655 149.368 279.741 149.667 279.911 149.848C280.093 150.029 280.386 150.12 280.791 150.12C280.994 150.12 281.175 150.104 281.335 150.072C281.495 150.04 281.682 149.987 281.895 149.912V150.952C281.682 151.027 281.458 151.08 281.223 151.112C280.989 151.144 280.759 151.16 280.535 151.16ZM286.97 151.16C286.245 151.16 285.589 150.984 285.002 150.632C284.415 150.269 283.951 149.784 283.61 149.176C283.269 148.557 283.098 147.864 283.098 147.096C283.098 146.328 283.258 145.64 283.578 145.032C283.909 144.424 284.351 143.944 284.906 143.592C285.461 143.24 286.079 143.064 286.762 143.064C287.455 143.064 288.069 143.24 288.602 143.592C289.146 143.933 289.573 144.403 289.882 145C290.202 145.587 290.362 146.253 290.362 147V147.352H284.234C284.277 147.885 284.421 148.365 284.666 148.792C284.922 149.208 285.253 149.539 285.658 149.784C286.074 150.019 286.527 150.136 287.018 150.136C287.423 150.136 287.813 150.067 288.186 149.928C288.57 149.779 288.895 149.581 289.162 149.336L289.898 150.12C289.45 150.472 288.986 150.733 288.506 150.904C288.026 151.075 287.514 151.16 286.97 151.16ZM284.266 146.52H289.21C289.157 146.051 289.013 145.635 288.778 145.272C288.554 144.899 288.266 144.605 287.914 144.392C287.573 144.179 287.189 144.072 286.762 144.072C286.335 144.072 285.946 144.179 285.594 144.392C285.242 144.595 284.949 144.883 284.714 145.256C284.49 145.619 284.341 146.04 284.266 146.52ZM295.098 151.16C294.426 151.16 293.914 151 293.562 150.68C293.221 150.349 293.05 149.875 293.05 149.256V144.152H291.434V143.192H293.05V141.048L294.218 140.776V143.192H296.458V144.152H294.218V148.952C294.218 149.368 294.303 149.667 294.474 149.848C294.655 150.029 294.949 150.12 295.354 150.12C295.557 150.12 295.738 150.104 295.898 150.072C296.058 150.04 296.245 149.987 296.458 149.912V150.952C296.245 151.027 296.021 151.08 295.786 151.112C295.551 151.144 295.322 151.16 295.098 151.16ZM300.953 151.128C300.398 151.128 299.907 151.005 299.481 150.76C299.054 150.515 298.718 150.173 298.473 149.736C298.238 149.299 298.121 148.797 298.121 148.232V143.192H299.305V147.896C299.305 148.589 299.491 149.139 299.865 149.544C300.238 149.949 300.745 150.152 301.385 150.152C301.822 150.152 302.211 150.051 302.553 149.848C302.905 149.645 303.198 149.352 303.433 148.968V143.192H304.601V151H303.433V149.736C303.134 150.195 302.777 150.541 302.361 150.776C301.955 151.011 301.486 151.128 300.953 151.128ZM306.997 151V143.192H308.165V144.792C308.368 144.248 308.656 143.827 309.029 143.528C309.413 143.219 309.85 143.064 310.341 143.064C310.48 143.064 310.608 143.075 310.725 143.096C310.842 143.107 310.96 143.133 311.077 143.176V144.232C310.949 144.189 310.81 144.157 310.661 144.136C310.522 144.104 310.389 144.088 310.261 144.088C309.781 144.088 309.36 144.227 308.997 144.504C308.645 144.781 308.368 145.171 308.165 145.672V151H306.997ZM318.772 151.144C318.218 151.144 317.727 151.043 317.3 150.84C316.874 150.637 316.538 150.36 316.292 150.008C316.058 149.645 315.94 149.229 315.94 148.76C315.94 148.291 316.063 147.885 316.308 147.544C316.554 147.192 316.895 146.92 317.332 146.728C317.77 146.536 318.282 146.44 318.868 146.44C319.316 146.44 319.738 146.488 320.132 146.584C320.538 146.68 320.911 146.835 321.252 147.048V145.976C321.252 145.336 321.082 144.856 320.74 144.536C320.399 144.205 319.898 144.04 319.236 144.04C318.874 144.04 318.5 144.093 318.116 144.2C317.743 144.307 317.327 144.477 316.868 144.712L316.436 143.816C317.482 143.315 318.463 143.064 319.38 143.064C320.351 143.064 321.098 143.304 321.62 143.784C322.143 144.253 322.404 144.931 322.404 145.816V151H321.252V150.088C320.911 150.44 320.532 150.707 320.116 150.888C319.7 151.059 319.252 151.144 318.772 151.144ZM317.06 148.728C317.06 149.187 317.236 149.555 317.588 149.832C317.951 150.109 318.426 150.248 319.012 150.248C319.45 150.248 319.85 150.173 320.212 150.024C320.586 149.875 320.932 149.651 321.252 149.352V147.848C320.922 147.656 320.58 147.517 320.228 147.432C319.876 147.336 319.482 147.288 319.044 147.288C318.447 147.288 317.967 147.421 317.604 147.688C317.242 147.944 317.06 148.291 317.06 148.728ZM328.026 151.112C327.354 151.112 326.746 150.936 326.202 150.584C325.658 150.221 325.226 149.741 324.906 149.144C324.586 148.536 324.426 147.859 324.426 147.112C324.426 146.355 324.586 145.677 324.906 145.08C325.237 144.472 325.679 143.992 326.234 143.64C326.789 143.277 327.407 143.096 328.09 143.096C328.57 143.096 329.018 143.192 329.434 143.384C329.85 143.565 330.213 143.832 330.522 144.184V139.448L331.69 139.208V151H330.522V149.96C330.223 150.333 329.861 150.621 329.434 150.824C329.007 151.016 328.538 151.112 328.026 151.112ZM328.314 150.088C328.773 150.088 329.194 149.997 329.578 149.816C329.962 149.635 330.277 149.379 330.522 149.048V145.176C330.266 144.845 329.941 144.589 329.546 144.408C329.162 144.216 328.751 144.12 328.314 144.12C327.791 144.12 327.322 144.248 326.906 144.504C326.501 144.76 326.175 145.112 325.93 145.56C325.695 146.008 325.578 146.52 325.578 147.096C325.578 147.661 325.695 148.173 325.93 148.632C326.175 149.08 326.501 149.437 326.906 149.704C327.322 149.96 327.791 150.088 328.314 150.088ZM334.075 151V143.192H335.243V151H334.075ZM334.667 141.256C334.432 141.256 334.229 141.176 334.059 141.016C333.899 140.845 333.819 140.648 333.819 140.424C333.819 140.2 333.899 140.008 334.059 139.848C334.229 139.677 334.432 139.592 334.667 139.592C334.901 139.592 335.099 139.677 335.259 139.848C335.429 140.008 335.515 140.2 335.515 140.424C335.515 140.648 335.429 140.845 335.259 141.016C335.099 141.176 334.901 141.256 334.667 141.256ZM337.638 154.344V143.192H338.789V144.312C339.088 143.917 339.451 143.619 339.878 143.416C340.315 143.203 340.795 143.096 341.318 143.096C342 143.096 342.608 143.277 343.142 143.64C343.686 143.992 344.118 144.472 344.438 145.08C344.758 145.677 344.918 146.349 344.918 147.096C344.918 147.843 344.752 148.52 344.422 149.128C344.102 149.736 343.664 150.221 343.11 150.584C342.566 150.936 341.947 151.112 341.254 151.112C340.763 151.112 340.31 151.021 339.894 150.84C339.478 150.648 339.115 150.376 338.806 150.024V154.344H337.638ZM341.03 150.104C341.552 150.104 342.016 149.976 342.422 149.72C342.838 149.453 343.163 149.096 343.398 148.648C343.643 148.189 343.766 147.677 343.766 147.112C343.766 146.536 343.643 146.024 343.398 145.576C343.163 145.128 342.838 144.776 342.422 144.52C342.016 144.253 341.552 144.12 341.03 144.12C340.571 144.12 340.144 144.216 339.75 144.408C339.366 144.589 339.051 144.851 338.806 145.192V149.016C339.062 149.357 339.382 149.624 339.766 149.816C340.16 150.008 340.582 150.104 341.03 150.104ZM346.95 151V143.192H348.118V151H346.95ZM347.542 141.256C347.307 141.256 347.104 141.176 346.934 141.016C346.774 140.845 346.694 140.648 346.694 140.424C346.694 140.2 346.774 140.008 346.934 139.848C347.104 139.677 347.307 139.592 347.542 139.592C347.776 139.592 347.974 139.677 348.134 139.848C348.304 140.008 348.39 140.2 348.39 140.424C348.39 140.648 348.304 140.845 348.134 141.016C347.974 141.176 347.776 141.256 347.542 141.256ZM352.929 151.16C352.289 151.16 351.697 151.064 351.153 150.872C350.609 150.669 350.145 150.381 349.761 150.008L350.385 149.24C350.854 149.581 351.286 149.832 351.681 149.992C352.075 150.141 352.481 150.216 352.897 150.216C353.462 150.216 353.931 150.083 354.305 149.816C354.678 149.549 354.865 149.208 354.865 148.792C354.865 148.472 354.753 148.221 354.529 148.04C354.315 147.859 353.958 147.72 353.457 147.624L352.177 147.4C351.419 147.261 350.859 147.027 350.497 146.696C350.145 146.365 349.969 145.917 349.969 145.352C349.969 144.904 350.086 144.509 350.321 144.168C350.566 143.827 350.902 143.56 351.329 143.368C351.755 143.165 352.241 143.064 352.785 143.064C353.318 143.064 353.825 143.144 354.305 143.304C354.785 143.453 355.27 143.699 355.761 144.04L355.185 144.856C354.779 144.568 354.374 144.36 353.969 144.232C353.563 144.093 353.153 144.024 352.737 144.024C352.225 144.024 351.814 144.136 351.505 144.36C351.195 144.584 351.041 144.888 351.041 145.272C351.041 145.592 351.137 145.837 351.329 146.008C351.531 146.179 351.883 146.307 352.385 146.392L353.697 146.632C354.486 146.771 355.062 147.011 355.425 147.352C355.787 147.693 355.969 148.152 355.969 148.728C355.969 149.187 355.835 149.603 355.569 149.976C355.302 150.339 354.939 150.627 354.481 150.84C354.022 151.053 353.505 151.16 352.929 151.16ZM361.329 151.128C360.604 151.128 359.948 150.952 359.361 150.6C358.785 150.237 358.326 149.752 357.985 149.144C357.644 148.525 357.473 147.843 357.473 147.096C357.473 146.339 357.644 145.656 357.985 145.048C358.326 144.44 358.785 143.96 359.361 143.608C359.948 143.245 360.604 143.064 361.329 143.064C361.905 143.064 362.454 143.171 362.977 143.384C363.5 143.597 363.953 143.896 364.337 144.28L363.585 145.096C363.308 144.787 362.972 144.547 362.577 144.376C362.182 144.205 361.782 144.12 361.377 144.12C360.865 144.12 360.401 144.253 359.985 144.52C359.58 144.787 359.254 145.144 359.009 145.592C358.764 146.04 358.641 146.541 358.641 147.096C358.641 147.651 358.764 148.152 359.009 148.6C359.254 149.048 359.58 149.405 359.985 149.672C360.401 149.939 360.865 150.072 361.377 150.072C361.782 150.072 362.182 149.987 362.577 149.816C362.972 149.635 363.308 149.395 363.585 149.096L364.337 149.912C363.953 150.296 363.5 150.595 362.977 150.808C362.454 151.021 361.905 151.128 361.329 151.128ZM365.95 151V143.192H367.118V151H365.95ZM366.542 141.256C366.307 141.256 366.104 141.176 365.934 141.016C365.774 140.845 365.694 140.648 365.694 140.424C365.694 140.2 365.774 140.008 365.934 139.848C366.104 139.677 366.307 139.592 366.542 139.592C366.776 139.592 366.974 139.677 367.134 139.848C367.304 140.008 367.39 140.2 367.39 140.424C367.39 140.648 367.304 140.845 367.134 141.016C366.974 141.176 366.776 141.256 366.542 141.256ZM369.513 151V143.192H370.681V144.456C370.979 143.987 371.337 143.64 371.753 143.416C372.169 143.181 372.638 143.064 373.161 143.064C373.726 143.064 374.217 143.187 374.633 143.432C375.059 143.667 375.39 144.003 375.625 144.44C375.87 144.867 375.993 145.368 375.993 145.944V151H374.825V146.28C374.825 145.587 374.633 145.043 374.249 144.648C373.875 144.243 373.369 144.04 372.729 144.04C372.302 144.04 371.913 144.141 371.561 144.344C371.209 144.547 370.915 144.845 370.681 145.24V151H369.513ZM381.957 154.504C381.434 154.504 380.906 154.429 380.373 154.28C379.85 154.141 379.365 153.944 378.917 153.688L379.413 152.792C379.893 153.037 380.33 153.219 380.725 153.336C381.119 153.453 381.514 153.512 381.909 153.512C382.623 153.512 383.162 153.341 383.525 153C383.898 152.659 384.085 152.163 384.085 151.512V149.944C383.786 150.317 383.423 150.605 382.997 150.808C382.57 151 382.101 151.096 381.589 151.096C380.917 151.096 380.309 150.92 379.765 150.568C379.221 150.205 378.789 149.725 378.469 149.128C378.149 148.52 377.989 147.843 377.989 147.096C377.989 146.349 378.149 145.677 378.469 145.08C378.799 144.472 379.242 143.992 379.797 143.64C380.351 143.277 380.97 143.096 381.653 143.096C382.143 143.096 382.597 143.192 383.013 143.384C383.429 143.565 383.791 143.837 384.101 144.2V143.192H385.253V151.496C385.253 152.467 384.97 153.208 384.405 153.72C383.839 154.243 383.023 154.504 381.957 154.504ZM381.877 150.088C382.335 150.088 382.757 149.997 383.141 149.816C383.525 149.624 383.839 149.363 384.085 149.032V145.176C383.829 144.845 383.503 144.589 383.109 144.408C382.725 144.216 382.314 144.12 381.877 144.12C381.354 144.12 380.885 144.248 380.469 144.504C380.063 144.76 379.738 145.112 379.493 145.56C379.258 146.008 379.141 146.52 379.141 147.096C379.141 147.661 379.258 148.173 379.493 148.632C379.738 149.08 380.063 149.437 380.469 149.704C380.885 149.96 381.354 150.088 381.877 150.088ZM394.908 151.16C394.182 151.16 393.526 150.984 392.94 150.632C392.353 150.269 391.889 149.784 391.548 149.176C391.206 148.557 391.036 147.864 391.036 147.096C391.036 146.328 391.196 145.64 391.516 145.032C391.846 144.424 392.289 143.944 392.844 143.592C393.398 143.24 394.017 143.064 394.7 143.064C395.393 143.064 396.006 143.24 396.54 143.592C397.084 143.933 397.51 144.403 397.82 145C398.14 145.587 398.3 146.253 398.3 147V147.352H392.172C392.214 147.885 392.358 148.365 392.604 148.792C392.86 149.208 393.19 149.539 393.596 149.784C394.012 150.019 394.465 150.136 394.956 150.136C395.361 150.136 395.75 150.067 396.124 149.928C396.508 149.779 396.833 149.581 397.1 149.336L397.836 150.12C397.388 150.472 396.924 150.733 396.444 150.904C395.964 151.075 395.452 151.16 394.908 151.16ZM392.204 146.52H397.148C397.094 146.051 396.95 145.635 396.716 145.272C396.492 144.899 396.204 144.605 395.852 144.392C395.51 144.179 395.126 144.072 394.7 144.072C394.273 144.072 393.884 144.179 393.532 144.392C393.18 144.595 392.886 144.883 392.652 145.256C392.428 145.619 392.278 146.04 392.204 146.52ZM400.294 151V139.448L401.462 139.208V151H400.294ZM403.84 151V143.192H405.008V151H403.84ZM404.432 141.256C404.198 141.256 403.995 141.176 403.824 141.016C403.664 140.845 403.584 140.648 403.584 140.424C403.584 140.2 403.664 140.008 403.824 139.848C403.995 139.677 404.198 139.592 404.432 139.592C404.667 139.592 404.864 139.677 405.024 139.848C405.195 140.008 405.28 140.2 405.28 140.424C405.28 140.648 405.195 140.845 405.024 141.016C404.864 141.176 404.667 141.256 404.432 141.256ZM410.379 151.16C409.707 151.16 409.195 151 408.843 150.68C408.502 150.349 408.331 149.875 408.331 149.256V144.152H406.715V143.192H408.331V141.048L409.499 140.776V143.192H411.739V144.152H409.499V148.952C409.499 149.368 409.584 149.667 409.755 149.848C409.936 150.029 410.23 150.12 410.635 150.12C410.838 150.12 411.019 150.104 411.179 150.072C411.339 150.04 411.526 149.987 411.739 149.912V150.952C411.526 151.027 411.302 151.08 411.067 151.112C410.832 151.144 410.603 151.16 410.379 151.16ZM414.25 151.128C414.015 151.128 413.813 151.043 413.642 150.872C413.482 150.701 413.402 150.499 413.402 150.264C413.402 150.019 413.482 149.816 413.642 149.656C413.813 149.485 414.015 149.4 414.25 149.4C414.485 149.4 414.682 149.485 414.842 149.656C415.013 149.816 415.098 150.019 415.098 150.264C415.098 150.499 415.013 150.701 414.842 150.872C414.682 151.043 414.485 151.128 414.25 151.128ZM25.424 175V163.8H26.704L33.264 173.08L33.232 163.8H34.4V175H33.28L26.56 165.512L26.592 175H25.424ZM39.8121 175.128C39.2575 175.128 38.7668 175.005 38.3401 174.76C37.9135 174.515 37.5775 174.173 37.3321 173.736C37.0975 173.299 36.9801 172.797 36.9801 172.232V167.192H38.1641V171.896C38.1641 172.589 38.3508 173.139 38.7241 173.544C39.0975 173.949 39.6041 174.152 40.2441 174.152C40.6815 174.152 41.0708 174.051 41.4121 173.848C41.7641 173.645 42.0575 173.352 42.2921 172.968V167.192H43.4601V175H42.2921V173.736C41.9935 174.195 41.6361 174.541 41.2201 174.776C40.8148 175.011 40.3455 175.128 39.8121 175.128ZM45.8563 175V163.448L47.0243 163.208V175H45.8563ZM49.4188 175V163.448L50.5868 163.208V175H49.4188ZM55.3973 175.144C54.8426 175.144 54.3519 175.043 53.9253 174.84C53.4986 174.637 53.1626 174.36 52.9173 174.008C52.6826 173.645 52.5653 173.229 52.5653 172.76C52.5653 172.291 52.6879 171.885 52.9333 171.544C53.1786 171.192 53.5199 170.92 53.9573 170.728C54.3946 170.536 54.9066 170.44 55.4933 170.44C55.9413 170.44 56.3626 170.488 56.7573 170.584C57.1626 170.68 57.5359 170.835 57.8773 171.048V169.976C57.8773 169.336 57.7066 168.856 57.3653 168.536C57.0239 168.205 56.5226 168.04 55.8613 168.04C55.4986 168.04 55.1253 168.093 54.7413 168.2C54.3679 168.307 53.9519 168.477 53.4933 168.712L53.0613 167.816C54.1066 167.315 55.0879 167.064 56.0052 167.064C56.9759 167.064 57.7226 167.304 58.2453 167.784C58.7679 168.253 59.0293 168.931 59.0293 169.816V175H57.8773V174.088C57.5359 174.44 57.1573 174.707 56.7413 174.888C56.3253 175.059 55.8773 175.144 55.3973 175.144ZM53.6853 172.728C53.6853 173.187 53.8613 173.555 54.2133 173.832C54.5759 174.109 55.0506 174.248 55.6373 174.248C56.0746 174.248 56.4746 174.173 56.8373 174.024C57.2106 173.875 57.5573 173.651 57.8773 173.352V171.848C57.5466 171.656 57.2053 171.517 56.8533 171.432C56.5013 171.336 56.1066 171.288 55.6693 171.288C55.0719 171.288 54.5919 171.421 54.2293 171.688C53.8666 171.944 53.6853 172.291 53.6853 172.728ZM61.4031 175V167.192H62.5711V168.408C62.8698 167.96 63.2111 167.624 63.5951 167.4C63.9791 167.176 64.4111 167.064 64.8911 167.064C65.4458 167.064 65.9311 167.203 66.3471 167.48C66.7631 167.747 67.0778 168.115 67.2911 168.584C67.6005 168.083 67.9685 167.704 68.3951 167.448C68.8325 167.192 69.3338 167.064 69.8991 167.064C70.4218 167.064 70.8805 167.187 71.2751 167.432C71.6805 167.677 71.9951 168.019 72.2191 168.456C72.4431 168.883 72.5551 169.384 72.5551 169.96V175H71.3871V170.248C71.3871 169.565 71.2165 169.027 70.8751 168.632C70.5338 168.237 70.0645 168.04 69.4671 168.04C69.0618 168.04 68.6938 168.141 68.3631 168.344C68.0431 168.547 67.7605 168.856 67.5151 169.272C67.5365 169.379 67.5525 169.491 67.5631 169.608C67.5738 169.725 67.5791 169.843 67.5791 169.96V175H66.4111V170.248C66.4111 169.565 66.2351 169.027 65.8831 168.632C65.5418 168.237 65.0725 168.04 64.4751 168.04C63.6751 168.04 63.0405 168.424 62.5711 169.192V175H61.4031ZM82.1731 175.16C81.4478 175.16 80.7918 174.984 80.2051 174.632C79.6185 174.269 79.1545 173.784 78.8131 173.176C78.4718 172.557 78.3011 171.864 78.3011 171.096C78.3011 170.328 78.4611 169.64 78.7811 169.032C79.1118 168.424 79.5545 167.944 80.1091 167.592C80.6638 167.24 81.2825 167.064 81.9651 167.064C82.6585 167.064 83.2718 167.24 83.8051 167.592C84.3491 167.933 84.7758 168.403 85.0851 169C85.4051 169.587 85.5651 170.253 85.5651 171V171.352H79.4371C79.4798 171.885 79.6238 172.365 79.8691 172.792C80.1251 173.208 80.4558 173.539 80.8611 173.784C81.2771 174.019 81.7305 174.136 82.2211 174.136C82.6265 174.136 83.0158 174.067 83.3891 173.928C83.7731 173.779 84.0985 173.581 84.3651 173.336L85.1011 174.12C84.6531 174.472 84.1891 174.733 83.7091 174.904C83.2291 175.075 82.7171 175.16 82.1731 175.16ZM79.4691 170.52H84.4131C84.3598 170.051 84.2158 169.635 83.9811 169.272C83.7571 168.899 83.4691 168.605 83.1171 168.392C82.7758 168.179 82.3918 168.072 81.9651 168.072C81.5385 168.072 81.1491 168.179 80.7971 168.392C80.4451 168.595 80.1518 168.883 79.9171 169.256C79.6931 169.619 79.5438 170.04 79.4691 170.52ZM87.5594 175V163.448L88.7274 163.208V175H87.5594ZM94.6419 175.16C93.9165 175.16 93.2605 174.984 92.6739 174.632C92.0872 174.269 91.6232 173.784 91.2819 173.176C90.9405 172.557 90.7699 171.864 90.7699 171.096C90.7699 170.328 90.9299 169.64 91.2499 169.032C91.5805 168.424 92.0232 167.944 92.5779 167.592C93.1325 167.24 93.7512 167.064 94.4339 167.064C95.1272 167.064 95.7405 167.24 96.2739 167.592C96.8179 167.933 97.2445 168.403 97.5539 169C97.8739 169.587 98.0339 170.253 98.0339 171V171.352H91.9059C91.9485 171.885 92.0925 172.365 92.3379 172.792C92.5939 173.208 92.9245 173.539 93.3299 173.784C93.7459 174.019 94.1992 174.136 94.6899 174.136C95.0952 174.136 95.4845 174.067 95.8579 173.928C96.2419 173.779 96.5672 173.581 96.8339 173.336L97.5699 174.12C97.1219 174.472 96.6579 174.733 96.1779 174.904C95.6979 175.075 95.1859 175.16 94.6419 175.16ZM91.9379 170.52H96.8819C96.8285 170.051 96.6845 169.635 96.4499 169.272C96.2259 168.899 95.9379 168.605 95.5859 168.392C95.2445 168.179 94.8605 168.072 94.4339 168.072C94.0072 168.072 93.6179 168.179 93.2659 168.392C92.9139 168.595 92.6205 168.883 92.3859 169.256C92.1619 169.619 92.0125 170.04 91.9379 170.52ZM100.012 175V167.192H101.18V175H100.012ZM100.604 165.256C100.369 165.256 100.167 165.176 99.9961 165.016C99.8361 164.845 99.7561 164.648 99.7561 164.424C99.7561 164.2 99.8361 164.008 99.9961 163.848C100.167 163.677 100.369 163.592 100.604 163.592C100.839 163.592 101.036 163.677 101.196 163.848C101.367 164.008 101.452 164.2 101.452 164.424C101.452 164.648 101.367 164.845 101.196 165.016C101.036 165.176 100.839 165.256 100.604 165.256ZM104.567 175V168.152H102.823V167.192H104.567V165.56C104.567 164.792 104.77 164.2 105.175 163.784C105.58 163.368 106.156 163.16 106.903 163.16C107.116 163.16 107.308 163.171 107.479 163.192C107.66 163.213 107.82 163.251 107.959 163.304V164.36C107.788 164.307 107.634 164.269 107.495 164.248C107.356 164.227 107.196 164.216 107.015 164.216C106.567 164.216 106.242 164.328 106.039 164.552C105.836 164.765 105.735 165.107 105.735 165.576V167.192H107.959V168.152H105.735V175H104.567ZM112.689 175.16C111.963 175.16 111.307 174.984 110.721 174.632C110.134 174.269 109.67 173.784 109.329 173.176C108.987 172.557 108.817 171.864 108.817 171.096C108.817 170.328 108.977 169.64 109.297 169.032C109.627 168.424 110.07 167.944 110.625 167.592C111.179 167.24 111.798 167.064 112.481 167.064C113.174 167.064 113.787 167.24 114.321 167.592C114.865 167.933 115.291 168.403 115.601 169C115.921 169.587 116.081 170.253 116.081 171V171.352H109.953C109.995 171.885 110.139 172.365 110.385 172.792C110.641 173.208 110.971 173.539 111.377 173.784C111.793 174.019 112.246 174.136 112.737 174.136C113.142 174.136 113.531 174.067 113.905 173.928C114.289 173.779 114.614 173.581 114.881 173.336L115.617 174.12C115.169 174.472 114.705 174.733 114.225 174.904C113.745 175.075 113.233 175.16 112.689 175.16ZM109.985 170.52H114.929C114.875 170.051 114.731 169.635 114.497 169.272C114.273 168.899 113.985 168.605 113.633 168.392C113.291 168.179 112.907 168.072 112.481 168.072C112.054 168.072 111.665 168.179 111.313 168.392C110.961 168.595 110.667 168.883 110.433 169.256C110.209 169.619 110.059 170.04 109.985 170.52ZM118.075 175V167.192H119.243V168.456C119.542 167.987 119.899 167.64 120.315 167.416C120.731 167.181 121.2 167.064 121.723 167.064C122.288 167.064 122.779 167.187 123.195 167.432C123.622 167.667 123.952 168.003 124.187 168.44C124.432 168.867 124.555 169.368 124.555 169.944V175H123.387V170.28C123.387 169.587 123.195 169.043 122.811 168.648C122.438 168.243 121.931 168.04 121.291 168.04C120.864 168.04 120.475 168.141 120.123 168.344C119.771 168.547 119.478 168.845 119.243 169.24V175H118.075ZM130.151 175.112C129.479 175.112 128.871 174.936 128.327 174.584C127.783 174.221 127.351 173.741 127.031 173.144C126.711 172.536 126.551 171.859 126.551 171.112C126.551 170.355 126.711 169.677 127.031 169.08C127.362 168.472 127.804 167.992 128.359 167.64C128.914 167.277 129.532 167.096 130.215 167.096C130.695 167.096 131.143 167.192 131.559 167.384C131.975 167.565 132.338 167.832 132.647 168.184V163.448L133.815 163.208V175H132.647V173.96C132.348 174.333 131.986 174.621 131.559 174.824C131.132 175.016 130.663 175.112 130.151 175.112ZM130.439 174.088C130.898 174.088 131.319 173.997 131.703 173.816C132.087 173.635 132.402 173.379 132.647 173.048V169.176C132.391 168.845 132.066 168.589 131.671 168.408C131.287 168.216 130.876 168.12 130.439 168.12C129.916 168.12 129.447 168.248 129.031 168.504C128.626 168.76 128.3 169.112 128.055 169.56C127.82 170.008 127.703 170.52 127.703 171.096C127.703 171.661 127.82 172.173 128.055 172.632C128.3 173.08 128.626 173.437 129.031 173.704C129.447 173.96 129.916 174.088 130.439 174.088ZM143.47 175.16C142.745 175.16 142.089 174.984 141.502 174.632C140.915 174.269 140.451 173.784 140.11 173.176C139.769 172.557 139.598 171.864 139.598 171.096C139.598 170.328 139.758 169.64 140.078 169.032C140.409 168.424 140.851 167.944 141.406 167.592C141.961 167.24 142.579 167.064 143.262 167.064C143.955 167.064 144.569 167.24 145.102 167.592C145.646 167.933 146.073 168.403 146.382 169C146.702 169.587 146.862 170.253 146.862 171V171.352H140.734C140.777 171.885 140.921 172.365 141.166 172.792C141.422 173.208 141.753 173.539 142.158 173.784C142.574 174.019 143.027 174.136 143.518 174.136C143.923 174.136 144.313 174.067 144.686 173.928C145.07 173.779 145.395 173.581 145.662 173.336L146.398 174.12C145.95 174.472 145.486 174.733 145.006 174.904C144.526 175.075 144.014 175.16 143.47 175.16ZM140.766 170.52H145.71C145.657 170.051 145.513 169.635 145.278 169.272C145.054 168.899 144.766 168.605 144.414 168.392C144.073 168.179 143.689 168.072 143.262 168.072C142.835 168.072 142.446 168.179 142.094 168.392C141.742 168.595 141.449 168.883 141.214 169.256C140.99 169.619 140.841 170.04 140.766 170.52ZM148.856 175V163.448L150.024 163.208V175H148.856ZM152.403 175V167.192H153.571V175H152.403ZM152.995 165.256C152.76 165.256 152.557 165.176 152.387 165.016C152.227 164.845 152.147 164.648 152.147 164.424C152.147 164.2 152.227 164.008 152.387 163.848C152.557 163.677 152.76 163.592 152.995 163.592C153.229 163.592 153.427 163.677 153.587 163.848C153.757 164.008 153.843 164.2 153.843 164.424C153.843 164.648 153.757 164.845 153.587 165.016C153.427 165.176 153.229 165.256 152.995 165.256ZM158.942 175.16C158.27 175.16 157.758 175 157.406 174.68C157.064 174.349 156.894 173.875 156.894 173.256V168.152H155.278V167.192H156.894V165.048L158.062 164.776V167.192H160.302V168.152H158.062V172.952C158.062 173.368 158.147 173.667 158.318 173.848C158.499 174.029 158.792 174.12 159.198 174.12C159.4 174.12 159.582 174.104 159.742 174.072C159.902 174.04 160.088 173.987 160.302 173.912V174.952C160.088 175.027 159.864 175.08 159.63 175.112C159.395 175.144 159.166 175.16 158.942 175.16ZM168.163 175.16C167.523 175.16 166.931 175.064 166.387 174.872C165.843 174.669 165.379 174.381 164.995 174.008L165.619 173.24C166.088 173.581 166.52 173.832 166.915 173.992C167.31 174.141 167.715 174.216 168.131 174.216C168.696 174.216 169.166 174.083 169.539 173.816C169.912 173.549 170.099 173.208 170.099 172.792C170.099 172.472 169.987 172.221 169.763 172.04C169.55 171.859 169.192 171.72 168.691 171.624L167.411 171.4C166.654 171.261 166.094 171.027 165.731 170.696C165.379 170.365 165.203 169.917 165.203 169.352C165.203 168.904 165.32 168.509 165.555 168.168C165.8 167.827 166.136 167.56 166.563 167.368C166.99 167.165 167.475 167.064 168.019 167.064C168.552 167.064 169.059 167.144 169.539 167.304C170.019 167.453 170.504 167.699 170.995 168.04L170.419 168.856C170.014 168.568 169.608 168.36 169.203 168.232C168.798 168.093 168.387 168.024 167.971 168.024C167.459 168.024 167.048 168.136 166.739 168.36C166.43 168.584 166.275 168.888 166.275 169.272C166.275 169.592 166.371 169.837 166.563 170.008C166.766 170.179 167.118 170.307 167.619 170.392L168.931 170.632C169.72 170.771 170.296 171.011 170.659 171.352C171.022 171.693 171.203 172.152 171.203 172.728C171.203 173.187 171.07 173.603 170.803 173.976C170.536 174.339 170.174 174.627 169.715 174.84C169.256 175.053 168.739 175.16 168.163 175.16ZM176.579 175.16C175.854 175.16 175.198 174.984 174.611 174.632C174.025 174.269 173.561 173.784 173.219 173.176C172.878 172.557 172.707 171.864 172.707 171.096C172.707 170.328 172.867 169.64 173.187 169.032C173.518 168.424 173.961 167.944 174.515 167.592C175.07 167.24 175.689 167.064 176.371 167.064C177.065 167.064 177.678 167.24 178.211 167.592C178.755 167.933 179.182 168.403 179.491 169C179.811 169.587 179.971 170.253 179.971 171V171.352H173.843C173.886 171.885 174.03 172.365 174.275 172.792C174.531 173.208 174.862 173.539 175.267 173.784C175.683 174.019 176.137 174.136 176.627 174.136C177.033 174.136 177.422 174.067 177.795 173.928C178.179 173.779 178.505 173.581 178.771 173.336L179.507 174.12C179.059 174.472 178.595 174.733 178.115 174.904C177.635 175.075 177.123 175.16 176.579 175.16ZM173.875 170.52H178.819C178.766 170.051 178.622 169.635 178.387 169.272C178.163 168.899 177.875 168.605 177.523 168.392C177.182 168.179 176.798 168.072 176.371 168.072C175.945 168.072 175.555 168.179 175.203 168.392C174.851 168.595 174.558 168.883 174.323 169.256C174.099 169.619 173.95 170.04 173.875 170.52ZM185.214 175.112C184.542 175.112 183.934 174.936 183.39 174.584C182.846 174.221 182.414 173.741 182.094 173.144C181.774 172.536 181.614 171.859 181.614 171.112C181.614 170.355 181.774 169.677 182.094 169.08C182.424 168.472 182.867 167.992 183.422 167.64C183.976 167.277 184.595 167.096 185.278 167.096C185.758 167.096 186.206 167.192 186.622 167.384C187.038 167.565 187.4 167.832 187.71 168.184V163.448L188.878 163.208V175H187.71V173.96C187.411 174.333 187.048 174.621 186.622 174.824C186.195 175.016 185.726 175.112 185.214 175.112ZM185.502 174.088C185.96 174.088 186.382 173.997 186.766 173.816C187.15 173.635 187.464 173.379 187.71 173.048V169.176C187.454 168.845 187.128 168.589 186.734 168.408C186.35 168.216 185.939 168.12 185.502 168.12C184.979 168.12 184.51 168.248 184.094 168.504C183.688 168.76 183.363 169.112 183.118 169.56C182.883 170.008 182.766 170.52 182.766 171.096C182.766 171.661 182.883 172.173 183.118 172.632C183.363 173.08 183.688 173.437 184.094 173.704C184.51 173.96 184.979 174.088 185.502 174.088ZM198.533 175.16C197.807 175.16 197.151 174.984 196.565 174.632C195.978 174.269 195.514 173.784 195.173 173.176C194.831 172.557 194.661 171.864 194.661 171.096C194.661 170.328 194.821 169.64 195.141 169.032C195.471 168.424 195.914 167.944 196.469 167.592C197.023 167.24 197.642 167.064 198.325 167.064C199.018 167.064 199.631 167.24 200.165 167.592C200.709 167.933 201.135 168.403 201.445 169C201.765 169.587 201.925 170.253 201.925 171V171.352H195.797C195.839 171.885 195.983 172.365 196.229 172.792C196.485 173.208 196.815 173.539 197.221 173.784C197.637 174.019 198.09 174.136 198.581 174.136C198.986 174.136 199.375 174.067 199.749 173.928C200.133 173.779 200.458 173.581 200.725 173.336L201.461 174.12C201.013 174.472 200.549 174.733 200.069 174.904C199.589 175.075 199.077 175.16 198.533 175.16ZM195.829 170.52H200.773C200.719 170.051 200.575 169.635 200.341 169.272C200.117 168.899 199.829 168.605 199.477 168.392C199.135 168.179 198.751 168.072 198.325 168.072C197.898 168.072 197.509 168.179 197.157 168.392C196.805 168.595 196.511 168.883 196.277 169.256C196.053 169.619 195.903 170.04 195.829 170.52ZM206.413 175.16C205.773 175.16 205.181 175.064 204.637 174.872C204.093 174.669 203.629 174.381 203.245 174.008L203.869 173.24C204.338 173.581 204.77 173.832 205.165 173.992C205.56 174.141 205.965 174.216 206.381 174.216C206.946 174.216 207.416 174.083 207.789 173.816C208.162 173.549 208.349 173.208 208.349 172.792C208.349 172.472 208.237 172.221 208.013 172.04C207.8 171.859 207.442 171.72 206.941 171.624L205.661 171.4C204.904 171.261 204.344 171.027 203.981 170.696C203.629 170.365 203.453 169.917 203.453 169.352C203.453 168.904 203.57 168.509 203.805 168.168C204.05 167.827 204.386 167.56 204.813 167.368C205.24 167.165 205.725 167.064 206.269 167.064C206.802 167.064 207.309 167.144 207.789 167.304C208.269 167.453 208.754 167.699 209.245 168.04L208.669 168.856C208.264 168.568 207.858 168.36 207.453 168.232C207.048 168.093 206.637 168.024 206.221 168.024C205.709 168.024 205.298 168.136 204.989 168.36C204.68 168.584 204.525 168.888 204.525 169.272C204.525 169.592 204.621 169.837 204.813 170.008C205.016 170.179 205.368 170.307 205.869 170.392L207.181 170.632C207.97 170.771 208.546 171.011 208.909 171.352C209.272 171.693 209.453 172.152 209.453 172.728C209.453 173.187 209.32 173.603 209.053 173.976C208.786 174.339 208.424 174.627 207.965 174.84C207.506 175.053 206.989 175.16 206.413 175.16ZM214.051 175.16C213.379 175.16 212.867 175 212.515 174.68C212.174 174.349 212.003 173.875 212.003 173.256V168.152H210.387V167.192H212.003V165.048L213.171 164.776V167.192H215.411V168.152H213.171V172.952C213.171 173.368 213.256 173.667 213.427 173.848C213.608 174.029 213.902 174.12 214.307 174.12C214.51 174.12 214.691 174.104 214.851 174.072C215.011 174.04 215.198 173.987 215.411 173.912V174.952C215.198 175.027 214.974 175.08 214.739 175.112C214.504 175.144 214.275 175.16 214.051 175.16ZM224.376 175.16C223.651 175.16 222.995 174.984 222.408 174.632C221.822 174.269 221.358 173.784 221.016 173.176C220.675 172.557 220.504 171.864 220.504 171.096C220.504 170.328 220.664 169.64 220.984 169.032C221.315 168.424 221.758 167.944 222.312 167.592C222.867 167.24 223.486 167.064 224.168 167.064C224.862 167.064 225.475 167.24 226.008 167.592C226.552 167.933 226.979 168.403 227.288 169C227.608 169.587 227.768 170.253 227.768 171V171.352H221.64C221.683 171.885 221.827 172.365 222.072 172.792C222.328 173.208 222.659 173.539 223.064 173.784C223.48 174.019 223.934 174.136 224.424 174.136C224.83 174.136 225.219 174.067 225.592 173.928C225.976 173.779 226.302 173.581 226.568 173.336L227.304 174.12C226.856 174.472 226.392 174.733 225.912 174.904C225.432 175.075 224.92 175.16 224.376 175.16ZM221.672 170.52H226.616C226.563 170.051 226.419 169.635 226.184 169.272C225.96 168.899 225.672 168.605 225.32 168.392C224.979 168.179 224.595 168.072 224.168 168.072C223.742 168.072 223.352 168.179 223 168.392C222.648 168.595 222.355 168.883 222.12 169.256C221.896 169.619 221.747 170.04 221.672 170.52ZM233.379 178.504C232.856 178.504 232.328 178.429 231.795 178.28C231.272 178.141 230.787 177.944 230.339 177.688L230.835 176.792C231.315 177.037 231.752 177.219 232.147 177.336C232.541 177.453 232.936 177.512 233.331 177.512C234.045 177.512 234.584 177.341 234.947 177C235.32 176.659 235.507 176.163 235.507 175.512V173.944C235.208 174.317 234.845 174.605 234.419 174.808C233.992 175 233.523 175.096 233.011 175.096C232.339 175.096 231.731 174.92 231.187 174.568C230.643 174.205 230.211 173.725 229.891 173.128C229.571 172.52 229.411 171.843 229.411 171.096C229.411 170.349 229.571 169.677 229.891 169.08C230.221 168.472 230.664 167.992 231.219 167.64C231.773 167.277 232.392 167.096 233.075 167.096C233.565 167.096 234.019 167.192 234.435 167.384C234.851 167.565 235.213 167.837 235.523 168.2V167.192H236.675V175.496C236.675 176.467 236.392 177.208 235.827 177.72C235.261 178.243 234.445 178.504 233.379 178.504ZM233.299 174.088C233.757 174.088 234.179 173.997 234.563 173.816C234.947 173.624 235.261 173.363 235.507 173.032V169.176C235.251 168.845 234.925 168.589 234.531 168.408C234.147 168.216 233.736 168.12 233.299 168.12C232.776 168.12 232.307 168.248 231.891 168.504C231.485 168.76 231.16 169.112 230.914 169.56C230.68 170.008 230.562 170.52 230.562 171.096C230.562 171.661 230.68 172.173 230.914 172.632C231.16 173.08 231.485 173.437 231.891 173.704C232.307 173.96 232.776 174.088 233.299 174.088ZM242.595 175.16C241.87 175.16 241.214 174.984 240.627 174.632C240.04 174.269 239.576 173.784 239.235 173.176C238.894 172.557 238.723 171.864 238.723 171.096C238.723 170.328 238.883 169.64 239.203 169.032C239.534 168.424 239.976 167.944 240.531 167.592C241.086 167.24 241.704 167.064 242.387 167.064C243.08 167.064 243.694 167.24 244.227 167.592C244.771 167.933 245.198 168.403 245.507 169C245.827 169.587 245.987 170.253 245.987 171V171.352H239.859C239.902 171.885 240.046 172.365 240.291 172.792C240.547 173.208 240.878 173.539 241.283 173.784C241.699 174.019 242.152 174.136 242.643 174.136C243.048 174.136 243.438 174.067 243.811 173.928C244.195 173.779 244.52 173.581 244.787 173.336L245.523 174.12C245.075 174.472 244.611 174.733 244.131 174.904C243.651 175.075 243.139 175.16 242.595 175.16ZM239.891 170.52H244.835C244.782 170.051 244.638 169.635 244.403 169.272C244.179 168.899 243.891 168.605 243.539 168.392C243.198 168.179 242.814 168.072 242.387 168.072C241.96 168.072 241.571 168.179 241.219 168.392C240.867 168.595 240.574 168.883 240.339 169.256C240.115 169.619 239.966 170.04 239.891 170.52ZM250.475 175.16C249.835 175.16 249.243 175.064 248.699 174.872C248.155 174.669 247.691 174.381 247.307 174.008L247.931 173.24C248.401 173.581 248.833 173.832 249.227 173.992C249.622 174.141 250.027 174.216 250.443 174.216C251.009 174.216 251.478 174.083 251.851 173.816C252.225 173.549 252.411 173.208 252.411 172.792C252.411 172.472 252.299 172.221 252.075 172.04C251.862 171.859 251.505 171.72 251.003 171.624L249.723 171.4C248.966 171.261 248.406 171.027 248.043 170.696C247.691 170.365 247.515 169.917 247.515 169.352C247.515 168.904 247.633 168.509 247.867 168.168C248.113 167.827 248.449 167.56 248.875 167.368C249.302 167.165 249.787 167.064 250.331 167.064C250.865 167.064 251.371 167.144 251.851 167.304C252.331 167.453 252.817 167.699 253.307 168.04L252.731 168.856C252.326 168.568 251.921 168.36 251.515 168.232C251.11 168.093 250.699 168.024 250.283 168.024C249.771 168.024 249.361 168.136 249.051 168.36C248.742 168.584 248.587 168.888 248.587 169.272C248.587 169.592 248.683 169.837 248.875 170.008C249.078 170.179 249.43 170.307 249.931 170.392L251.243 170.632C252.033 170.771 252.609 171.011 252.971 171.352C253.334 171.693 253.515 172.152 253.515 172.728C253.515 173.187 253.382 173.603 253.115 173.976C252.849 174.339 252.486 174.627 252.027 174.84C251.569 175.053 251.051 175.16 250.475 175.16ZM258.114 175.16C257.442 175.16 256.93 175 256.578 174.68C256.236 174.349 256.066 173.875 256.066 173.256V168.152H254.45V167.192H256.066V165.048L257.234 164.776V167.192H259.474V168.152H257.234V172.952C257.234 173.368 257.319 173.667 257.49 173.848C257.671 174.029 257.964 174.12 258.37 174.12C258.572 174.12 258.754 174.104 258.914 174.072C259.074 174.04 259.26 173.987 259.474 173.912V174.952C259.26 175.027 259.036 175.08 258.802 175.112C258.567 175.144 258.338 175.16 258.114 175.16ZM263.6 175.144C263.046 175.144 262.555 175.043 262.128 174.84C261.702 174.637 261.366 174.36 261.12 174.008C260.886 173.645 260.768 173.229 260.768 172.76C260.768 172.291 260.891 171.885 261.136 171.544C261.382 171.192 261.723 170.92 262.16 170.728C262.598 170.536 263.11 170.44 263.696 170.44C264.144 170.44 264.566 170.488 264.96 170.584C265.366 170.68 265.739 170.835 266.08 171.048V169.976C266.08 169.336 265.91 168.856 265.568 168.536C265.227 168.205 264.726 168.04 264.064 168.04C263.702 168.04 263.328 168.093 262.944 168.2C262.571 168.307 262.155 168.477 261.696 168.712L261.264 167.816C262.31 167.315 263.291 167.064 264.208 167.064C265.179 167.064 265.926 167.304 266.448 167.784C266.971 168.253 267.232 168.931 267.232 169.816V175H266.08V174.088C265.739 174.44 265.36 174.707 264.944 174.888C264.528 175.059 264.08 175.144 263.6 175.144ZM261.888 172.728C261.888 173.187 262.064 173.555 262.416 173.832C262.779 174.109 263.254 174.248 263.84 174.248C264.278 174.248 264.678 174.173 265.04 174.024C265.414 173.875 265.76 173.651 266.08 173.352V171.848C265.75 171.656 265.408 171.517 265.056 171.432C264.704 171.336 264.31 171.288 263.872 171.288C263.275 171.288 262.795 171.421 262.432 171.688C262.07 171.944 261.888 172.291 261.888 172.728ZM272.022 175.16C271.382 175.16 270.79 175.064 270.246 174.872C269.702 174.669 269.238 174.381 268.854 174.008L269.478 173.24C269.948 173.581 270.38 173.832 270.774 173.992C271.169 174.141 271.574 174.216 271.99 174.216C272.556 174.216 273.025 174.083 273.398 173.816C273.772 173.549 273.958 173.208 273.958 172.792C273.958 172.472 273.846 172.221 273.622 172.04C273.409 171.859 273.052 171.72 272.55 171.624L271.27 171.4C270.513 171.261 269.953 171.027 269.59 170.696C269.238 170.365 269.062 169.917 269.062 169.352C269.062 168.904 269.18 168.509 269.414 168.168C269.66 167.827 269.996 167.56 270.422 167.368C270.849 167.165 271.334 167.064 271.878 167.064C272.412 167.064 272.918 167.144 273.398 167.304C273.878 167.453 274.364 167.699 274.854 168.04L274.278 168.856C273.873 168.568 273.468 168.36 273.062 168.232C272.657 168.093 272.246 168.024 271.83 168.024C271.318 168.024 270.908 168.136 270.598 168.36C270.289 168.584 270.134 168.888 270.134 169.272C270.134 169.592 270.23 169.837 270.422 170.008C270.625 170.179 270.977 170.307 271.478 170.392L272.79 170.632C273.58 170.771 274.156 171.011 274.518 171.352C274.881 171.693 275.062 172.152 275.062 172.728C275.062 173.187 274.929 173.603 274.662 173.976C274.396 174.339 274.033 174.627 273.574 174.84C273.116 175.053 272.598 175.16 272.022 175.16ZM277.484 175.128C277.25 175.128 277.047 175.043 276.876 174.872C276.716 174.701 276.636 174.499 276.636 174.264C276.636 174.019 276.716 173.816 276.876 173.656C277.047 173.485 277.25 173.4 277.484 173.4C277.719 173.4 277.916 173.485 278.076 173.656C278.247 173.816 278.332 174.019 278.332 174.264C278.332 174.499 278.247 174.701 278.076 174.872C277.916 175.043 277.719 175.128 277.484 175.128Z" fill="white"/>
<path d="M31.344 225.18C30.408 225.18 29.532 225.018 28.716 224.694C27.9 224.358 27.186 223.896 26.574 223.308C25.974 222.72 25.5 222.036 25.152 221.256C24.816 220.464 24.648 219.612 24.648 218.7C24.648 217.776 24.816 216.924 25.152 216.144C25.5 215.352 25.98 214.662 26.592 214.074C27.204 213.486 27.912 213.03 28.716 212.706C29.532 212.37 30.408 212.202 31.344 212.202C32.04 212.202 32.712 212.298 33.36 212.49C34.008 212.682 34.608 212.952 35.16 213.3C35.724 213.648 36.204 214.068 36.6 214.56L34.836 216.306C34.38 215.742 33.852 215.316 33.252 215.028C32.664 214.74 32.028 214.596 31.344 214.596C30.78 214.596 30.252 214.704 29.76 214.92C29.268 215.124 28.842 215.412 28.482 215.784C28.122 216.144 27.84 216.576 27.636 217.08C27.432 217.572 27.33 218.112 27.33 218.7C27.33 219.276 27.432 219.816 27.636 220.32C27.84 220.812 28.128 221.244 28.5 221.616C28.872 221.976 29.304 222.258 29.796 222.462C30.3 222.666 30.846 222.768 31.434 222.768C32.094 222.768 32.712 222.63 33.288 222.354C33.864 222.078 34.374 221.682 34.818 221.166L36.528 222.858C36.132 223.338 35.658 223.752 35.106 224.1C34.554 224.448 33.954 224.718 33.306 224.91C32.67 225.09 32.016 225.18 31.344 225.18ZM40.8799 225.162C40.2079 225.162 39.6139 225.042 39.0979 224.802C38.5819 224.55 38.1799 224.208 37.8919 223.776C37.6039 223.344 37.4599 222.846 37.4599 222.282C37.4599 221.382 37.7959 220.686 38.4679 220.194C39.1519 219.69 40.0879 219.438 41.2759 219.438C42.0919 219.438 42.8599 219.564 43.5799 219.816V219.132C43.5799 218.592 43.4119 218.184 43.0759 217.908C42.7399 217.632 42.2479 217.494 41.5999 217.494C41.2039 217.494 40.7779 217.56 40.3219 217.692C39.8659 217.812 39.3379 218.004 38.7379 218.268L37.8379 216.45C38.5819 216.114 39.2899 215.862 39.9619 215.694C40.6459 215.526 41.3299 215.442 42.0139 215.442C43.2739 215.442 44.2519 215.748 44.9479 216.36C45.6559 216.96 46.0099 217.812 46.0099 218.916V225H43.5799V224.334C43.1959 224.622 42.7819 224.832 42.3379 224.964C41.8939 225.096 41.4079 225.162 40.8799 225.162ZM39.7999 222.228C39.7999 222.588 39.9559 222.876 40.2679 223.092C40.5799 223.296 40.9939 223.398 41.5099 223.398C41.9179 223.398 42.2959 223.35 42.6439 223.254C42.9919 223.146 43.3039 222.99 43.5799 222.786V221.418C43.2799 221.298 42.9679 221.208 42.6439 221.148C42.3199 221.088 41.9719 221.058 41.5999 221.058C41.0359 221.058 40.5919 221.166 40.2679 221.382C39.9559 221.586 39.7999 221.868 39.7999 222.228ZM47.8763 225V212.4L50.3423 211.986V225H47.8763ZM52.2708 225V212.4L54.7368 211.986V225H52.2708ZM64.7325 225.144C63.6885 225.144 62.8965 224.91 62.3565 224.442C61.8285 223.962 61.5645 223.266 61.5645 222.354V217.674H59.6385V215.622H61.5645V213.228L64.0305 212.67V215.622H66.7125V217.674H64.0305V221.85C64.0305 222.282 64.1265 222.594 64.3185 222.786C64.5105 222.966 64.8465 223.056 65.3265 223.056C65.5665 223.056 65.7825 223.044 65.9745 223.02C66.1785 222.984 66.4005 222.924 66.6405 222.84V224.874C66.3885 224.958 66.0705 225.024 65.6865 225.072C65.3145 225.12 64.9965 225.144 64.7325 225.144ZM72.3819 225.18C71.4459 225.18 70.5999 224.964 69.8439 224.532C69.0879 224.1 68.4879 223.518 68.0439 222.786C67.5999 222.054 67.3779 221.232 67.3779 220.32C67.3779 219.408 67.5939 218.586 68.0259 217.854C68.4699 217.11 69.0699 216.522 69.8259 216.09C70.5939 215.658 71.4459 215.442 72.3819 215.442C73.3179 215.442 74.1639 215.658 74.9199 216.09C75.6879 216.522 76.2879 217.11 76.7199 217.854C77.1639 218.586 77.3859 219.408 77.3859 220.32C77.3859 221.232 77.1639 222.054 76.7199 222.786C76.2879 223.518 75.6939 224.1 74.9379 224.532C74.1819 224.964 73.3299 225.18 72.3819 225.18ZM72.3819 223.038C72.8739 223.038 73.3119 222.918 73.6959 222.678C74.0919 222.438 74.4039 222.114 74.6319 221.706C74.8719 221.286 74.9919 220.824 74.9919 220.32C74.9919 219.804 74.8719 219.342 74.6319 218.934C74.4039 218.526 74.0919 218.202 73.6959 217.962C73.3119 217.71 72.8739 217.584 72.3819 217.584C71.9019 217.584 71.4639 217.71 71.0679 217.962C70.6719 218.202 70.3599 218.526 70.1319 218.934C69.9039 219.342 69.7899 219.804 69.7899 220.32C69.7899 220.824 69.9039 221.286 70.1319 221.706C70.3599 222.114 70.6719 222.438 71.0679 222.678C71.4639 222.918 71.9019 223.038 72.3819 223.038ZM85.5108 225.162C84.8388 225.162 84.2448 225.042 83.7288 224.802C83.2128 224.55 82.8108 224.208 82.5228 223.776C82.2348 223.344 82.0908 222.846 82.0908 222.282C82.0908 221.382 82.4268 220.686 83.0988 220.194C83.7828 219.69 84.7188 219.438 85.9068 219.438C86.7228 219.438 87.4908 219.564 88.2108 219.816V219.132C88.2108 218.592 88.0428 218.184 87.7068 217.908C87.3708 217.632 86.8788 217.494 86.2308 217.494C85.8348 217.494 85.4088 217.56 84.9528 217.692C84.4968 217.812 83.9688 218.004 83.3688 218.268L82.4688 216.45C83.2128 216.114 83.9208 215.862 84.5928 215.694C85.2768 215.526 85.9608 215.442 86.6448 215.442C87.9048 215.442 88.8828 215.748 89.5788 216.36C90.2868 216.96 90.6408 217.812 90.6408 218.916V225H88.2108V224.334C87.8268 224.622 87.4128 224.832 86.9688 224.964C86.5248 225.096 86.0388 225.162 85.5108 225.162ZM84.4308 222.228C84.4308 222.588 84.5868 222.876 84.8988 223.092C85.2108 223.296 85.6248 223.398 86.1408 223.398C86.5488 223.398 86.9268 223.35 87.2748 223.254C87.6228 223.146 87.9348 222.99 88.2108 222.786V221.418C87.9108 221.298 87.5988 221.208 87.2748 221.148C86.9508 221.088 86.6028 221.058 86.2308 221.058C85.6668 221.058 85.2228 221.166 84.8988 221.382C84.5868 221.586 84.4308 221.868 84.4308 222.228ZM96.9892 225.18C96.0652 225.18 95.2312 224.97 94.4872 224.55C93.7432 224.118 93.1552 223.536 92.7232 222.804C92.2912 222.06 92.0752 221.232 92.0752 220.32C92.0752 219.396 92.2912 218.568 92.7232 217.836C93.1552 217.104 93.7432 216.522 94.4872 216.09C95.2312 215.658 96.0652 215.442 96.9892 215.442C97.7332 215.442 98.4412 215.586 99.1132 215.874C99.7972 216.162 100.385 216.576 100.877 217.116L99.3652 218.718C99.0172 218.334 98.6512 218.052 98.2672 217.872C97.8952 217.68 97.4872 217.584 97.0432 217.584C96.5632 217.584 96.1312 217.704 95.7472 217.944C95.3752 218.184 95.0752 218.508 94.8472 218.916C94.6312 219.324 94.5232 219.792 94.5232 220.32C94.5232 220.824 94.6312 221.286 94.8472 221.706C95.0752 222.114 95.3872 222.438 95.7832 222.678C96.1792 222.906 96.6172 223.02 97.0972 223.02C97.5172 223.02 97.9072 222.936 98.2672 222.768C98.6392 222.588 98.9932 222.324 99.3292 221.976L100.805 223.524C100.325 224.04 99.7492 224.448 99.0772 224.748C98.4052 225.036 97.7092 225.18 96.9892 225.18ZM106.709 225.144C105.665 225.144 104.873 224.91 104.333 224.442C103.805 223.962 103.541 223.266 103.541 222.354V217.674H101.615V215.622H103.541V213.228L106.007 212.67V215.622H108.689V217.674H106.007V221.85C106.007 222.282 106.103 222.594 106.295 222.786C106.487 222.966 106.823 223.056 107.303 223.056C107.543 223.056 107.759 223.044 107.951 223.02C108.155 222.984 108.377 222.924 108.617 222.84V224.874C108.365 224.958 108.047 225.024 107.663 225.072C107.291 225.12 106.973 225.144 106.709 225.144ZM109.892 225V215.622H112.358V225H109.892ZM111.116 214.506C110.732 214.506 110.402 214.368 110.126 214.092C109.85 213.816 109.712 213.486 109.712 213.102C109.712 212.706 109.85 212.376 110.126 212.112C110.402 211.836 110.732 211.698 111.116 211.698C111.512 211.698 111.842 211.836 112.106 212.112C112.382 212.376 112.52 212.706 112.52 213.102C112.52 213.486 112.382 213.816 112.106 214.092C111.842 214.368 111.512 214.506 111.116 214.506ZM118.858 225.18C117.922 225.18 117.076 224.964 116.32 224.532C115.564 224.1 114.964 223.518 114.52 222.786C114.076 222.054 113.854 221.232 113.854 220.32C113.854 219.408 114.07 218.586 114.502 217.854C114.946 217.11 115.546 216.522 116.302 216.09C117.07 215.658 117.922 215.442 118.858 215.442C119.794 215.442 120.64 215.658 121.396 216.09C122.164 216.522 122.764 217.11 123.196 217.854C123.64 218.586 123.862 219.408 123.862 220.32C123.862 221.232 123.64 222.054 123.196 222.786C122.764 223.518 122.17 224.1 121.414 224.532C120.658 224.964 119.806 225.18 118.858 225.18ZM118.858 223.038C119.35 223.038 119.788 222.918 120.172 222.678C120.568 222.438 120.88 222.114 121.108 221.706C121.348 221.286 121.468 220.824 121.468 220.32C121.468 219.804 121.348 219.342 121.108 218.934C120.88 218.526 120.568 218.202 120.172 217.962C119.788 217.71 119.35 217.584 118.858 217.584C118.378 217.584 117.94 217.71 117.544 217.962C117.148 218.202 116.836 218.526 116.608 218.934C116.38 219.342 116.266 219.804 116.266 220.32C116.266 220.824 116.38 221.286 116.608 221.706C116.836 222.114 117.148 222.438 117.544 222.678C117.94 222.918 118.378 223.038 118.858 223.038ZM125.378 225V215.622H127.844V216.396C128.552 215.76 129.428 215.442 130.472 215.442C131.204 215.442 131.846 215.604 132.398 215.928C132.962 216.24 133.4 216.678 133.712 217.242C134.024 217.794 134.18 218.442 134.18 219.186V225H131.714V219.546C131.714 218.934 131.54 218.454 131.192 218.106C130.844 217.746 130.37 217.566 129.77 217.566C129.35 217.566 128.978 217.65 128.654 217.818C128.33 217.974 128.06 218.202 127.844 218.502V225H125.378Z" fill="#92C5F9"/>
<g clip-path="url(#clip2_4009_466)">
<path d="M165.1 217.837L158.444 211.181C158.2 210.937 157.806 210.937 157.562 211.181C157.319 211.425 157.319 211.819 157.562 212.062L163.369 217.869H147.381C147.037 217.869 146.756 218.15 146.756 218.494C146.756 218.837 147.037 219.119 147.381 219.119H163.375L157.569 224.925C157.325 225.169 157.325 225.562 157.569 225.806C157.694 225.931 157.85 225.987 158.012 225.987C158.175 225.987 158.331 225.925 158.456 225.806L165.112 219.15C165.475 218.787 165.475 218.187 165.112 217.825L165.1 217.837Z" fill="#92C5F9"/>
</g>
</g>
<defs>
<filter id="filter0_i_4009_466" x="0" y="58" width="482" height="198" filterUnits="userSpaceOnUse" color-interpolation-filters="sRGB">
<feFlood flood-opacity="0" result="BackgroundImageFix"/>
<feBlend mode="normal" in="SourceGraphic" in2="BackgroundImageFix" result="shape"/>
<feColorMatrix in="SourceAlpha" type="matrix" values="0 0 0 0 0 0 0 0 0 0 0 0 0 0 0 0 0 0 127 0" result="hardAlpha"/>
<feOffset dx="4"/>
<feComposite in2="hardAlpha" operator="arithmetic" k2="-1" k3="1"/>
<feColorMatrix type="matrix" values="0 0 0 0 0.996078 0 0 0 0 0.317647 0 0 0 0 0.258824 0 0 0 1 0"/>
<feBlend mode="normal" in2="shape" result="effect1_innerShadow_4009_466"/>
</filter>
<clipPath id="clip0_4009_466">
<rect width="16" height="16" fill="white" transform="translate(442 21.5)"/>
</clipPath>
<clipPath id="clip1_4009_466">
<rect width="16" height="16" fill="white" transform="translate(442 79.5)"/>
</clipPath>
<clipPath id="clip2_4009_466">
<rect width="20" height="20" fill="white" transform="translate(146 208.5)"/>
</clipPath>
</defs>
</svg>
