<svg xmlns="http://www.w3.org/2000/svg" width="468" height="79"><defs><style>.a{fill:#faeae8;}.b{fill:none;}.c{fill:#6a6e73;}.d{fill:#151515;font-family:RedHatText, RedHatText;}.d,.e{font-size:14px;}.e{fill:#7d1007;font-family:RedHatText-Medium, RedHatText;font-weight:500;}.f{fill:#c9190b;}</style></defs><path d="M0 0h468v79H0z" class="a"/><path d="M438 16h14v14h-14z" class="b"/><path d="M446.9 23l2.84-2.84a.9.9 0 0 0 0-1.27l-.63-.64a.9.9 0 0 0-1.25 0L445 21.1l-2.84-2.84a.9.9 0 0 0-1.27 0l-.64.63a.9.9 0 0 0 0 1.26L443.1 23l-2.84 2.84a.9.9 0 0 0 0 1.27l.63.64a.9.9 0 0 0 1.26 0L445 24.9l2.84 2.84a.9.9 0 0 0 1.27 0l.64-.63a.9.9 0 0 0 0-1.25z" class="c"/><text class="d" transform="translate(-360 -222) translate(408 281)"><tspan x="0" y="0">Your information was unable to be submitted, contact support.</tspan></text><text class="e" transform="translate(-360 -222) translate(408 255)"><tspan x="0" y="0">Danger</tspan></text><path d="M16 16h24v24H16z" class="b"/><path d="M37 28a9 9 0 1 1-9-9 9 9 0 0 1 9 9zm-9 1.8a1.67 1.67 0 1 0 1.67 1.68A1.67 1.67 0 0 0 28 29.82zm-1.58-5.98l.26 4.93a.43.43 0 0 0 .44.4h1.76a.43.43 0 0 0 .44-.4l.26-4.93a.43.43 0 0 0-.43-.46h-2.3a.43.43 0 0 0-.44.46zM0 0h468v2H0z" class="f"/></svg>