<svg xmlns="http://www.w3.org/2000/svg" width="340" height="70"><defs><style>.a{fill:#6a6e73}</style></defs><path class="a" d="M31.883 14.1a4.918 4.918 0 00-4.872-5.054 4.926 4.926 0 00-4.87 5.054 4.926 4.926 0 004.87 5.054 4.918 4.918 0 004.872-5.054zm-1.092 0a3.872 3.872 0 01-3.78 4.074 3.881 3.881 0 01-3.78-4.074 3.881 3.881 0 013.78-4.074 3.872 3.872 0 013.78 4.074zm2.9 7.686h1.02v-3.654a2.748 2.748 0 002.142.968 3.329 3.329 0 003.22-3.514 3.308 3.308 0 00-3.164-3.5 2.7 2.7 0 00-2.212 1.064v-.98h-1.008zm2.966-8.806a2.451 2.451 0 012.394 2.62 2.443 2.443 0 01-2.394 2.616 2.421 2.421 0 01-1.946-.952v-3.346a2.352 2.352 0 011.946-.938zm4.844 2.6a3.418 3.418 0 003.388 3.546 3.935 3.935 0 002.562-.91l-.644-.7a2.792 2.792 0 01-1.876.7 2.459 2.459 0 01-2.422-2.422h5.362V15.5a3.236 3.236 0 00-3.136-3.444 3.336 3.336 0 00-3.234 3.528zm3.22-2.632a2.25 2.25 0 012.128 2.132h-4.308a2.258 2.258 0 012.18-2.128zM49.551 19h1.022v-5.04a2.03 2.03 0 011.792-1.05 1.771 1.771 0 011.834 1.96V19h1.022v-4.424a2.382 2.382 0 00-2.464-2.52 2.462 2.462 0 00-2.184 1.232v-1.12h-1.022zm10.3-.952a3.788 3.788 0 002.79 1.078c1.54 0 2.66-.952 2.646-2.114.014-1.036-.644-1.6-1.988-1.834l-1.134-.21c-.84-.154-1.19-.392-1.19-.98 0-.672.63-1.092 1.484-1.092a3.45 3.45 0 012.114.77l.546-.7a4.251 4.251 0 00-2.618-.91c-1.442 0-2.464.84-2.464 2 0 1.022.658 1.568 1.932 1.792l1.134.2c.854.154 1.218.448 1.218 1.022 0 .672-.616 1.232-1.722 1.232a3.06 3.06 0 01-2.158-.902zm6.692-2.464a3.384 3.384 0 003.322 3.556 3.389 3.389 0 003.346-3.556 3.365 3.365 0 00-3.346-3.528 3.359 3.359 0 00-3.318 3.528zm5.642.014a2.412 2.412 0 01-2.32 2.632 2.4 2.4 0 01-2.3-2.632 2.421 2.421 0 012.3-2.646 2.424 2.424 0 012.324 2.648zm3.766-3.43h-1.018v4.424a2.382 2.382 0 002.464 2.52 2.462 2.462 0 002.184-1.232V19h1.022v-6.832h-1.022v5.04a2.03 2.03 0 01-1.792 1.05 1.771 1.771 0 01-1.834-1.958zM82.619 19h1.022v-4.676a1.921 1.921 0 011.834-1.386 2.422 2.422 0 01.714.126v-.924a2.01 2.01 0 00-.644-.1 2.031 2.031 0 00-1.9 1.484v-1.356h-1.026zm7.522-.8a2.465 2.465 0 01-2.38-2.618 2.478 2.478 0 012.38-2.6 2.61 2.61 0 011.876.854l.658-.714a3.628 3.628 0 00-2.548-1.064 3.423 3.423 0 00-3.388 3.528 3.435 3.435 0 003.384 3.54 3.461 3.461 0 002.506-1.106l-.63-.63a2.442 2.442 0 01-1.858.81zm3.43-2.618a3.418 3.418 0 003.384 3.544 3.935 3.935 0 002.562-.91l-.644-.7a2.792 2.792 0 01-1.876.7 2.459 2.459 0 01-2.422-2.422h5.366V15.5a3.236 3.236 0 00-3.14-3.444 3.336 3.336 0 00-3.234 3.528zm3.22-2.632a2.25 2.25 0 012.124 2.13h-4.312a2.258 2.258 0 012.184-2.128zm10.15 6.05h.966l2.814-6.832h-1.096l-2.184 5.544-2.184-5.544h-1.134zm7.182.126a2.906 2.906 0 002.17-.91V19h1.008v-4.536c0-1.582-.98-2.408-2.646-2.408a5.722 5.722 0 00-2.576.658l.392.784a4.407 4.407 0 012.058-.588c1.148 0 1.764.546 1.764 1.694v.924a4.1 4.1 0 00-2.072-.518c-1.484 0-2.562.756-2.562 2.016a2.2 2.2 0 002.46 2.1zm-1.488-2.114c0-.8.728-1.274 1.722-1.274a3.545 3.545 0 011.932.5v1.316a2.726 2.726 0 01-1.96.784c-.994.004-1.694-.528-1.694-1.326zm7.714-8.022l-1.022.21V19h1.022zm3.052 3.178h-1.022v4.424a2.382 2.382 0 002.462 2.52 2.462 2.462 0 002.184-1.232V19h1.022v-6.832h-1.022v5.04a2.03 2.03 0 01-1.792 1.05 1.771 1.771 0 01-1.832-1.958zm6.37 3.416a3.418 3.418 0 003.388 3.542 3.935 3.935 0 002.562-.91l-.644-.7a2.792 2.792 0 01-1.876.7 2.459 2.459 0 01-2.422-2.422h5.362V15.5a3.236 3.236 0 00-3.136-3.444 3.336 3.336 0 00-3.234 3.528zm3.22-2.632a2.25 2.25 0 012.128 2.128h-4.312a2.258 2.258 0 012.184-2.128zm4.256 5.1a3.788 3.788 0 002.786 1.074c1.54 0 2.66-.952 2.646-2.114.014-1.036-.644-1.6-1.988-1.834l-1.134-.21c-.84-.154-1.19-.392-1.19-.98 0-.672.63-1.092 1.484-1.092a3.45 3.45 0 012.114.77l.546-.7a4.251 4.251 0 00-2.618-.91c-1.442 0-2.464.84-2.464 2 0 1.022.658 1.568 1.932 1.792l1.134.2c.854.154 1.218.448 1.218 1.022 0 .672-.616 1.232-1.722 1.232a3.059 3.059 0 01-2.156-.9zm11.2-9.058l-1.022.21V19h1.022zm2.548 1.456a.726.726 0 00.728-.742.723.723 0 00-.728-.728.723.723 0 00-.728.728.726.726 0 00.728.738zm.5 1.722h-1.022V19h1.022zM153.529 19h1.022v-3.262l3.29 3.262h1.358l-3.64-3.584 3.472-3.248h-1.232l-3.248 3.08V8.99l-1.022.21zm6.16-3.416a3.418 3.418 0 003.388 3.542 3.935 3.935 0 002.562-.91l-.644-.7a2.792 2.792 0 01-1.876.7 2.459 2.459 0 01-2.422-2.422h5.362V15.5a3.236 3.236 0 00-3.136-3.444 3.336 3.336 0 00-3.234 3.528zm3.22-2.632a2.25 2.25 0 012.132 2.128h-4.312a2.258 2.258 0 012.18-2.128zM171.001 19h1.022v-5.082a1.9 1.9 0 011.666-1.008 1.7 1.7 0 011.694 1.932V19h1.022v-4.41a2.834 2.834 0 00-.056-.6 1.921 1.921 0 011.708-1.078c1.064 0 1.68.756 1.68 1.932V19h1.036v-4.41a2.335 2.335 0 00-2.338-2.534 2.551 2.551 0 00-2.282 1.33 2.24 2.24 0 00-2.086-1.33 2.338 2.338 0 00-2.044 1.176v-1.064h-1.022zm11.494-3.416a3.418 3.418 0 003.388 3.542 3.935 3.935 0 002.562-.91l-.644-.7a2.792 2.792 0 01-1.876.7 2.459 2.459 0 01-2.422-2.422h5.362V15.5a3.236 3.236 0 00-3.136-3.444 3.336 3.336 0 00-3.234 3.528zm3.22-2.632a2.25 2.25 0 012.126 2.128h-4.31a2.258 2.258 0 012.184-2.128zM190.541 19h1.022v-4.676a1.921 1.921 0 011.834-1.386 2.422 2.422 0 01.714.126v-.924a2.01 2.01 0 00-.644-.1 2.031 2.031 0 00-1.9 1.484v-1.356h-1.026zm5.432-8.554a.726.726 0 00.728-.742.723.723 0 00-.728-.728.723.723 0 00-.728.728.726.726 0 00.732.742zm.5 1.722h-1.022V19h1.022zm2.868 5.292c0 1.064.6 1.666 1.792 1.666a4.124 4.124 0 001.2-.182v-.91a2.521 2.521 0 01-.966.182c-.728 0-1.008-.294-1.008-1.022v-4.186h1.974v-.84h-1.974v-1.974l-1.018.238v1.736h-1.414v.84h1.414zm3.9-1.876a3.384 3.384 0 003.32 3.556 3.389 3.389 0 003.346-3.556 3.365 3.365 0 00-3.346-3.528 3.359 3.359 0 00-3.32 3.528zm5.642.014a2.412 2.412 0 01-2.322 2.632 2.4 2.4 0 01-2.3-2.632 2.421 2.421 0 012.3-2.646 2.424 2.424 0 012.324 2.648zm5.858 2.602a2.465 2.465 0 01-2.38-2.618 2.478 2.478 0 012.38-2.6 2.61 2.61 0 011.876.854l.658-.714a3.628 3.628 0 00-2.548-1.064 3.423 3.423 0 00-3.388 3.528 3.435 3.435 0 003.384 3.54 3.461 3.461 0 002.506-1.106l-.63-.63a2.442 2.442 0 01-1.858.81zm4 .8h1.022v-4.676a1.921 1.921 0 011.834-1.386 2.422 2.422 0 01.714.126v-.924a2.01 2.01 0 00-.644-.1 2.031 2.031 0 00-1.9 1.484v-1.356h-1.026zm6.678.126a2.906 2.906 0 002.17-.91V19h1.008v-4.536c0-1.582-.98-2.408-2.646-2.408a5.722 5.722 0 00-2.576.658l.392.784a4.408 4.408 0 012.058-.588c1.148 0 1.764.546 1.764 1.694v.924a4.1 4.1 0 00-2.072-.518c-1.484 0-2.562.756-2.562 2.016a2.2 2.2 0 002.464 2.1zm-1.484-2.114c0-.8.728-1.274 1.722-1.274a3.545 3.545 0 011.932.5v1.316a2.726 2.726 0 01-1.96.784c-.994.004-1.694-.528-1.694-1.326zm9.8 1.19a2.465 2.465 0 01-2.38-2.618 2.478 2.478 0 012.38-2.6 2.61 2.61 0 011.876.854l.658-.714a3.628 3.628 0 00-2.548-1.064 3.423 3.423 0 00-3.388 3.528 3.435 3.435 0 003.388 3.538 3.461 3.461 0 002.506-1.106l-.63-.63a2.442 2.442 0 01-1.862.81zm5.516 1.75c-.28.7-.644.868-1.106.868a3.447 3.447 0 01-.56-.056v.91a2.247 2.247 0 00.658.1c1.022 0 1.54-.434 1.96-1.512l3.332-8.092h-1.12l-2.2 5.628-2.074-5.63h-1.148l2.648 6.818zm4.956-1.988l-.77 2.954h.8l1.064-2.954zm9.24.238a2.465 2.465 0 01-2.38-2.618 2.478 2.478 0 012.38-2.6 2.61 2.61 0 011.876.854l.658-.714a3.628 3.628 0 00-2.548-1.064 3.423 3.423 0 00-3.392 3.524 3.435 3.435 0 003.392 3.542 3.461 3.461 0 002.508-1.106l-.63-.63a2.442 2.442 0 01-1.864.81zm3.43-2.618a3.384 3.384 0 003.318 3.556 3.389 3.389 0 003.346-3.556 3.365 3.365 0 00-3.346-3.528 3.359 3.359 0 00-3.318 3.528zm5.642.014a2.412 2.412 0 01-2.324 2.632 2.4 2.4 0 01-2.3-2.632 2.421 2.421 0 012.3-2.646 2.424 2.424 0 012.324 2.648zM265.263 19h1.022v-5.082a1.9 1.9 0 011.666-1.008 1.7 1.7 0 011.69 1.932V19h1.022v-4.41a2.834 2.834 0 00-.056-.6 1.921 1.921 0 011.708-1.078c1.064 0 1.68.756 1.68 1.932V19h1.036v-4.41a2.335 2.335 0 00-2.338-2.534 2.551 2.551 0 00-2.282 1.33 2.24 2.24 0 00-2.086-1.33 2.338 2.338 0 00-2.044 1.176v-1.064h-1.022zm11.788 0h1.022v-5.082a1.9 1.9 0 011.668-1.008 1.7 1.7 0 011.694 1.932V19h1.022v-4.41a2.832 2.832 0 00-.056-.6 1.921 1.921 0 011.708-1.078c1.064 0 1.68.756 1.68 1.932V19h1.036v-4.41a2.335 2.335 0 00-2.338-2.534 2.551 2.551 0 00-2.282 1.33 2.24 2.24 0 00-2.086-1.33 2.338 2.338 0 00-2.044 1.176v-1.064h-1.024zm12.74-6.832h-1.022v4.424a2.382 2.382 0 002.464 2.52 2.462 2.462 0 002.184-1.232V19h1.024v-6.832h-1.022v5.04a2.03 2.03 0 01-1.792 1.05 1.771 1.771 0 01-1.836-1.958zM296.455 19h1.022v-5.04a2.03 2.03 0 011.792-1.05 1.771 1.771 0 011.834 1.96V19h1.022v-4.424a2.382 2.382 0 00-2.464-2.52 2.462 2.462 0 00-2.184 1.232v-1.12h-1.022zm8.2-8.554a.726.726 0 00.728-.742.723.723 0 00-.728-.728.723.723 0 00-.728.728.726.726 0 00.732.742zm.5 1.722h-1.014V19h1.022zm2.856 5.292c0 1.064.6 1.666 1.792 1.666a4.124 4.124 0 001.2-.182v-.91a2.521 2.521 0 01-.966.182c-.728 0-1.008-.294-1.008-1.022v-4.186h1.974v-.84h-1.962v-1.974l-1.022.238v1.736h-1.414v.84h1.414zm6.084 2.492c-.28.7-.644.868-1.106.868a3.447 3.447 0 01-.56-.056v.91a2.247 2.247 0 00.658.1c1.022 0 1.54-.434 1.96-1.512l3.332-8.092h-1.12l-2.198 5.63-2.072-5.628h-1.148l2.646 6.818zM18.989 36.584a3.308 3.308 0 00-3.164-3.5 2.705 2.705 0 00-2.198 1.036v-4.13l-1.022.21V40h1.008v-.9a2.7 2.7 0 002.156 1 3.329 3.329 0 003.22-3.516zm-3.416-2.604a2.451 2.451 0 012.394 2.62 2.443 2.443 0 01-2.394 2.616 2.421 2.421 0 01-1.946-.952v-3.346a2.352 2.352 0 011.946-.938zm6.16-.812h-1.022v4.424a2.382 2.382 0 002.464 2.52 2.462 2.462 0 002.184-1.232V40h1.022v-6.832h-1.022v5.04a2.03 2.03 0 01-1.792 1.05 1.771 1.771 0 01-1.834-1.958zm7.182-1.722a.726.726 0 00.728-.742.723.723 0 00-.728-.728.723.723 0 00-.728.728.726.726 0 00.728.742zm.5 1.722h-1.018V40h1.022zm3.052-3.178l-1.022.21V40h1.022zM39.555 40h1.022V29.99l-1.036.21v3.822a2.8 2.8 0 00-2.114-.938 3.329 3.329 0 00-3.22 3.516 3.308 3.308 0 003.164 3.5 2.747 2.747 0 002.184-1.024zm-4.326-3.416a2.428 2.428 0 012.38-2.6 2.462 2.462 0 011.932.91v3.4a2.36 2.36 0 01-1.932.91 2.44 2.44 0 01-2.38-2.62zm7.882-5.138a.726.726 0 00.728-.742.723.723 0 00-.728-.728.723.723 0 00-.728.728.726.726 0 00.728.742zm.5 1.722h-1.014V40h1.022zM45.645 40h1.022v-5.04a2.03 2.03 0 011.792-1.05 1.771 1.771 0 011.838 1.96V40h1.022v-4.424a2.382 2.382 0 00-2.464-2.52 2.462 2.462 0 00-2.188 1.232v-1.12h-1.022zm10.552.1a2.759 2.759 0 002.174-1v1.124c0 1.148-.672 1.75-1.9 1.75a4.449 4.449 0 01-2.17-.63l-.434.784a5.318 5.318 0 002.66.714c1.848 0 2.87-.924 2.87-2.632v-7.042h-1.012v.868a2.82 2.82 0 00-2.128-.952 3.329 3.329 0 00-3.22 3.516 3.308 3.308 0 003.16 3.5zm-2.138-3.516a2.428 2.428 0 012.38-2.6 2.462 2.462 0 011.932.91v3.4a2.36 2.36 0 01-1.932.91 2.44 2.44 0 01-2.38-2.62zm7.56 2.38l-.77 2.954h.8l1.064-2.954zm8.26 1.162a2.906 2.906 0 002.17-.91V40h1.008v-4.536c0-1.582-.98-2.408-2.646-2.408a5.722 5.722 0 00-2.576.658l.392.784a4.407 4.407 0 012.058-.588c1.148 0 1.764.546 1.764 1.694v.924a4.1 4.1 0 00-2.072-.518c-1.484 0-2.562.756-2.562 2.016a2.2 2.2 0 002.464 2.1zm-1.482-2.114c0-.8.728-1.274 1.722-1.274a3.545 3.545 0 011.932.5v1.316a2.726 2.726 0 01-1.96.784c-.994.004-1.694-.528-1.694-1.326zM75.087 40h1.022v-5.04a2.03 2.03 0 011.788-1.05 1.771 1.771 0 011.834 1.96V40h1.026v-4.424a2.382 2.382 0 00-2.46-2.52 2.462 2.462 0 00-2.184 1.232v-1.12h-1.026zm12.74 0h1.022V29.99l-1.036.21v3.822a2.8 2.8 0 00-2.116-.938 3.329 3.329 0 00-3.218 3.516 3.308 3.308 0 003.164 3.5 2.747 2.747 0 002.184-1.024zm-4.33-3.416a2.428 2.428 0 012.38-2.6 2.462 2.462 0 011.932.91v3.4a2.36 2.36 0 01-1.932.91 2.44 2.44 0 01-2.38-2.62zm11.456 1.876c0 1.064.6 1.666 1.792 1.666a4.124 4.124 0 001.2-.182v-.91a2.521 2.521 0 01-.966.182c-.728 0-1.008-.294-1.008-1.022v-4.186h1.974v-.84h-1.97v-1.974l-1.022.238v1.736h-1.414v.84h1.414zM99.377 40h1.02v-4.676a1.921 1.921 0 011.834-1.386 2.422 2.422 0 01.714.126v-.924a2.01 2.01 0 00-.644-.1 2.031 2.031 0 00-1.9 1.484v-1.356h-1.024zm6.678.126a2.906 2.906 0 002.17-.91V40h1.008v-4.536c0-1.582-.98-2.408-2.646-2.408a5.722 5.722 0 00-2.576.658l.392.784a4.407 4.407 0 012.058-.588c1.148 0 1.764.546 1.764 1.694v.924a4.1 4.1 0 00-2.072-.518c-1.484 0-2.562.756-2.562 2.016a2.2 2.2 0 002.464 2.1zm-1.484-2.114c0-.8.728-1.274 1.722-1.274a3.545 3.545 0 011.932.5v1.316a2.726 2.726 0 01-1.96.784c-.994.004-1.694-.528-1.694-1.326zM111.263 40h1.022v-5.04a2.03 2.03 0 011.792-1.05 1.771 1.771 0 011.834 1.96V40h1.022v-4.424a2.382 2.382 0 00-2.464-2.52 2.462 2.462 0 00-2.184 1.232v-1.12h-1.022zm7.042-.952a3.788 3.788 0 002.786 1.078c1.54 0 2.66-.952 2.646-2.114.014-1.036-.644-1.6-1.988-1.834l-1.134-.21c-.84-.154-1.19-.392-1.19-.98 0-.672.63-1.092 1.484-1.092a3.45 3.45 0 012.114.77l.546-.7a4.251 4.251 0 00-2.618-.91c-1.442 0-2.464.84-2.464 2 0 1.022.658 1.568 1.932 1.792l1.134.2c.854.154 1.218.448 1.218 1.022 0 .672-.616 1.232-1.722 1.232a3.059 3.059 0 01-2.156-.9zm6.916 3.738h1.022v-3.654a2.748 2.748 0 002.142.968 3.329 3.329 0 003.22-3.514 3.308 3.308 0 00-3.164-3.5 2.7 2.7 0 00-2.212 1.064v-.98h-1.008zm2.968-8.806a2.451 2.451 0 012.394 2.62 2.443 2.443 0 01-2.394 2.618 2.421 2.421 0 01-1.946-.952v-3.348a2.352 2.352 0 011.946-.938zm7.336 6.146a2.906 2.906 0 002.17-.91V40h1.008v-4.536c0-1.582-.98-2.408-2.646-2.408a5.722 5.722 0 00-2.576.658l.392.784a4.407 4.407 0 012.058-.588c1.148 0 1.764.546 1.764 1.694v.924a4.1 4.1 0 00-2.072-.518c-1.484 0-2.562.756-2.562 2.016a2.2 2.2 0 002.464 2.1zm-1.484-2.114c0-.8.728-1.274 1.722-1.274a3.545 3.545 0 011.932.5v1.316a2.726 2.726 0 01-1.96.784c-.994.004-1.694-.528-1.694-1.326zM140.733 40h1.022v-4.676a1.921 1.921 0 011.834-1.386 2.422 2.422 0 01.714.126v-.924a2.01 2.01 0 00-.644-.1 2.031 2.031 0 00-1.9 1.484v-1.356h-1.022zm4.116-3.416a3.418 3.418 0 003.388 3.542 3.935 3.935 0 002.562-.91l-.644-.7a2.792 2.792 0 01-1.876.7 2.459 2.459 0 01-2.422-2.422h5.362V36.5a3.236 3.236 0 00-3.136-3.444 3.336 3.336 0 00-3.234 3.528zm3.22-2.632a2.25 2.25 0 012.128 2.128h-4.312a2.258 2.258 0 012.184-2.128zM152.897 40h1.022v-5.04a2.03 2.03 0 011.792-1.05 1.771 1.771 0 011.834 1.96V40h1.022v-4.424a2.382 2.382 0 00-2.464-2.52 2.462 2.462 0 00-2.184 1.232v-1.12h-1.022zm10.8-.8a2.465 2.465 0 01-2.38-2.618 2.478 2.478 0 012.38-2.6 2.61 2.61 0 011.876.854l.658-.714a3.628 3.628 0 00-2.548-1.064 3.423 3.423 0 00-3.388 3.528 3.435 3.435 0 003.384 3.54 3.461 3.461 0 002.506-1.106l-.63-.63a2.442 2.442 0 01-1.858.81zm5.516 1.75c-.28.7-.644.868-1.106.868a3.447 3.447 0 01-.56-.056v.91a2.247 2.247 0 00.658.1c1.022 0 1.54-.434 1.96-1.512l3.332-8.092h-1.12l-2.2 5.628-2.072-5.628h-1.148l2.64 6.818zm10.958-.824a2.906 2.906 0 002.17-.91V40h1.008v-4.536c0-1.582-.98-2.408-2.646-2.408a5.722 5.722 0 00-2.576.658l.392.784a4.408 4.408 0 012.058-.588c1.148 0 1.764.546 1.764 1.694v.924a4.1 4.1 0 00-2.072-.518c-1.484 0-2.562.756-2.562 2.016a2.2 2.2 0 002.464 2.1zm-1.484-2.114c0-.8.728-1.274 1.722-1.274a3.545 3.545 0 011.932.5v1.316a2.726 2.726 0 01-1.96.784c-.994.004-1.694-.528-1.694-1.326zM185.379 40h1.018v-4.676a1.921 1.921 0 011.834-1.386 2.422 2.422 0 01.714.126v-.924a2.01 2.01 0 00-.644-.1 2.031 2.031 0 00-1.9 1.484v-1.356h-1.022zm4.118-3.416a3.418 3.418 0 003.386 3.542 3.935 3.935 0 002.562-.91l-.644-.7a2.792 2.792 0 01-1.876.7 2.459 2.459 0 01-2.422-2.422h5.362V36.5a3.236 3.236 0 00-3.136-3.444 3.336 3.336 0 00-3.232 3.528zm3.22-2.632a2.25 2.25 0 012.128 2.128h-4.312a2.258 2.258 0 012.182-2.128zm11.2 5.25a2.465 2.465 0 01-2.38-2.618 2.478 2.478 0 012.38-2.6 2.61 2.61 0 011.876.854l.658-.714a3.628 3.628 0 00-2.554-1.068 3.423 3.423 0 00-3.388 3.528 3.435 3.435 0 003.388 3.542 3.461 3.461 0 002.51-1.106l-.63-.63a2.442 2.442 0 01-1.862.81zm8.652.8h1.022v-4.426a2.382 2.382 0 00-2.464-2.52 2.462 2.462 0 00-2.184 1.232v-4.3l-1.022.21V40h1.022v-5.04a2.03 2.03 0 011.792-1.05 1.771 1.771 0 011.834 1.96zm5.166.126a2.906 2.906 0 002.17-.91V40h1.008v-4.536c0-1.582-.98-2.408-2.646-2.408a5.722 5.722 0 00-2.576.658l.392.784a4.408 4.408 0 012.058-.588c1.148 0 1.764.546 1.764 1.694v.924a4.1 4.1 0 00-2.072-.518c-1.484 0-2.562.756-2.562 2.016a2.2 2.2 0 002.462 2.1zm-1.484-2.114c0-.8.728-1.274 1.722-1.274a3.545 3.545 0 011.932.5v1.316a2.726 2.726 0 01-1.96.784c-.996.002-1.696-.53-1.696-1.328zm6.69 1.986h1.022v-5.04a2.03 2.03 0 011.792-1.05 1.771 1.771 0 011.834 1.96V40h1.022v-4.424a2.382 2.382 0 00-2.464-2.52 2.462 2.462 0 00-2.184 1.232v-1.12h-1.022zm10.556.1a2.759 2.759 0 002.17-1v1.124c0 1.148-.672 1.75-1.9 1.75a4.448 4.448 0 01-2.17-.63l-.434.784a5.318 5.318 0 002.66.714c1.848 0 2.87-.924 2.87-2.632v-7.042h-1.008v.868a2.82 2.82 0 00-2.128-.952 3.329 3.329 0 00-3.22 3.514 3.308 3.308 0 003.16 3.502zm-2.142-3.514a2.428 2.428 0 012.38-2.6 2.462 2.462 0 011.932.91v3.4a2.36 2.36 0 01-1.932.91 2.44 2.44 0 01-2.38-2.622zm7.868-5.138a.726.726 0 00.728-.742.723.723 0 00-.728-.728.723.723 0 00-.728.728.726.726 0 00.728.74zm.5 1.722h-1.022V40h1.022zm2.034 6.83h1.022v-5.04a2.03 2.03 0 011.792-1.05 1.771 1.771 0 011.834 1.96V40h1.022v-4.424a2.382 2.382 0 00-2.464-2.52 2.462 2.462 0 00-2.184 1.232v-1.12h-1.022zm10.556.1a2.759 2.759 0 002.17-.994v1.118c0 1.148-.672 1.75-1.9 1.75a4.448 4.448 0 01-2.17-.63l-.434.784a5.318 5.318 0 002.66.714c1.848 0 2.87-.924 2.87-2.632v-7.042h-1.012v.868a2.82 2.82 0 00-2.128-.952 3.329 3.329 0 00-3.22 3.514 3.308 3.308 0 003.164 3.502zm-2.142-3.514a2.428 2.428 0 012.38-2.6 2.462 2.462 0 011.932.91v3.4a2.36 2.36 0 01-1.932.91 2.44 2.44 0 01-2.38-2.622zm11.438 1.874c0 1.064.6 1.666 1.792 1.666a4.124 4.124 0 001.2-.182v-.91a2.521 2.521 0 01-.966.182c-.728 0-1.008-.294-1.008-1.022v-4.186h1.974v-.84h-1.974v-1.974l-1.022.238v1.736h-1.408v.84h1.414zm9.072 1.54h1.022v-4.424a2.382 2.382 0 00-2.464-2.52 2.462 2.462 0 00-2.184 1.232v-4.3l-1.022.21V40h1.022v-5.04a2.03 2.03 0 011.792-1.05 1.771 1.771 0 011.834 1.96zm2.744-3.416a3.418 3.418 0 003.388 3.542 3.935 3.935 0 002.562-.91l-.644-.7a2.792 2.792 0 01-1.876.7 2.459 2.459 0 01-2.422-2.422h5.364V36.5a3.236 3.236 0 00-3.136-3.444 3.336 3.336 0 00-3.236 3.528zm3.22-2.632a2.25 2.25 0 012.128 2.128h-4.312a2.258 2.258 0 012.184-2.128zM286.991 40l1.624-5.516L290.239 40h.994l1.876-6.832h-.98l-1.414 5.46-1.638-5.46h-.91l-1.624 5.474-1.428-5.474h-1.008L285.983 40zm9.632.126a2.906 2.906 0 002.17-.91V40h1.004v-4.536c0-1.582-.98-2.408-2.646-2.408a5.722 5.722 0 00-2.576.658l.392.784a4.407 4.407 0 012.058-.588c1.148 0 1.764.546 1.764 1.694v.924a4.1 4.1 0 00-2.072-.518c-1.484 0-2.562.756-2.562 2.016a2.2 2.2 0 002.468 2.1zm-1.484-2.114c0-.8.728-1.274 1.722-1.274a3.545 3.545 0 011.932.5v1.316a2.726 2.726 0 01-1.96.784c-.994.004-1.694-.528-1.694-1.326zm8.064 2.94c-.28.7-.644.868-1.106.868a3.447 3.447 0 01-.56-.056v.91a2.247 2.247 0 00.658.1c1.022 0 1.54-.434 1.96-1.512l3.332-8.092h-1.12l-2.2 5.628-2.07-5.63h-1.148l2.648 6.818zM314.291 40l1.624-5.516L317.539 40h.994l1.876-6.832h-.98l-1.414 5.46-1.638-5.46h-.91l-1.624 5.474-1.428-5.474h-1.008L313.283 40zm7.07-3.416a3.418 3.418 0 003.388 3.542 3.935 3.935 0 002.562-.91l-.644-.7a2.792 2.792 0 01-1.876.7 2.459 2.459 0 01-2.422-2.422h5.362V36.5a3.236 3.236 0 00-3.134-3.444 3.336 3.336 0 00-3.236 3.528zm3.22-2.632a2.25 2.25 0 012.128 2.128h-4.312a2.258 2.258 0 012.184-2.128zM90.27 61.126a2.906 2.906 0 002.17-.91V61h1.008v-4.536c0-1.582-.98-2.408-2.646-2.408a5.722 5.722 0 00-2.576.658l.392.784a4.407 4.407 0 012.058-.588c1.148 0 1.764.546 1.764 1.694v.924a4.1 4.1 0 00-2.072-.518c-1.484 0-2.562.756-2.562 2.016a2.2 2.2 0 002.464 2.1zm-1.484-2.114c0-.8.728-1.274 1.722-1.274a3.545 3.545 0 011.932.5v1.316a2.726 2.726 0 01-1.96.784c-.994.004-1.694-.528-1.694-1.326zm6.692 4.774H96.5v-3.654a2.748 2.748 0 002.142.968 3.329 3.329 0 003.22-3.514 3.308 3.308 0 00-3.164-3.5 2.7 2.7 0 00-2.212 1.062v-.98h-1.008zm2.968-8.806a2.451 2.451 0 012.394 2.62 2.443 2.443 0 01-2.394 2.616 2.421 2.421 0 01-1.946-.952v-3.346a2.352 2.352 0 011.946-.938zm5.138 8.806h1.022v-3.654a2.748 2.748 0 002.142.968 3.329 3.329 0 003.22-3.514 3.308 3.308 0 00-3.164-3.5 2.7 2.7 0 00-2.212 1.064v-.98h-1.008zm2.968-8.806a2.451 2.451 0 012.394 2.62 2.443 2.443 0 01-2.394 2.616 2.421 2.421 0 01-1.946-.952v-3.346a2.352 2.352 0 011.946-.938zM111.69 61h1.022v-4.676a1.921 1.921 0 011.834-1.386 2.422 2.422 0 01.714.126v-.924a2.01 2.01 0 00-.644-.1 2.031 2.031 0 00-1.9 1.484v-1.356h-1.026zm4.116-3.416a3.384 3.384 0 003.318 3.556 3.389 3.389 0 003.346-3.556 3.365 3.365 0 00-3.346-3.528 3.359 3.359 0 00-3.318 3.528zm5.642.014a2.412 2.412 0 01-2.324 2.632 2.4 2.4 0 01-2.3-2.632 2.421 2.421 0 012.3-2.646 2.424 2.424 0 012.324 2.648zm4.942 3.528a2.906 2.906 0 002.17-.91V61h1.008v-4.536c0-1.582-.98-2.408-2.646-2.408a5.722 5.722 0 00-2.576.658l.388.786a4.407 4.407 0 012.058-.588c1.148 0 1.764.546 1.764 1.694v.924a4.1 4.1 0 00-2.072-.518c-1.484 0-2.562.756-2.562 2.016a2.2 2.2 0 002.468 2.098zm-1.484-2.114c0-.8.728-1.274 1.722-1.274a3.545 3.545 0 011.932.5v1.316a2.726 2.726 0 01-1.96.784c-.994.004-1.694-.528-1.694-1.326zm9.8 1.19a2.465 2.465 0 01-2.38-2.618 2.478 2.478 0 012.38-2.6 2.61 2.61 0 011.876.854l.658-.714a3.628 3.628 0 00-2.548-1.064 3.423 3.423 0 00-3.388 3.524 3.435 3.435 0 003.388 3.542 3.461 3.461 0 002.506-1.106l-.63-.63a2.442 2.442 0 01-1.862.81zm8.652.8h1.022v-4.426a2.382 2.382 0 00-2.464-2.52 2.462 2.462 0 00-2.182 1.232v-4.3l-1.022.21V61h1.022v-5.04a2.03 2.03 0 011.79-1.05 1.771 1.771 0 011.834 1.96zm12.684-3.418a3.308 3.308 0 00-3.164-3.5 2.705 2.705 0 00-2.2 1.036v-4.13l-1.022.21V61h1.008v-.9a2.7 2.7 0 002.158 1 3.329 3.329 0 003.22-3.516zm-3.416-2.6a2.451 2.451 0 012.394 2.616 2.443 2.443 0 01-2.394 2.616 2.421 2.421 0 01-1.946-.952v-3.346a2.352 2.352 0 011.946-.938zm6.16-.812h-1.022v4.424a2.382 2.382 0 002.464 2.516 2.462 2.462 0 002.184-1.232V61h1.022v-6.832h-1.022v5.04a2.03 2.03 0 01-1.792 1.05 1.771 1.771 0 01-1.834-1.958zm6.02 5.88a3.788 3.788 0 002.786 1.074c1.54 0 2.66-.952 2.646-2.114.014-1.036-.644-1.6-1.988-1.834l-1.134-.21c-.84-.154-1.19-.392-1.19-.98 0-.672.63-1.092 1.484-1.092a3.45 3.45 0 012.114.77l.546-.7a4.251 4.251 0 00-2.618-.91c-1.442 0-2.464.84-2.464 2 0 1.022.658 1.568 1.932 1.792l1.134.2c.854.154 1.218.448 1.218 1.022 0 .672-.616 1.232-1.722 1.232a3.059 3.059 0 01-2.156-.9zm7.434-7.6a.726.726 0 00.728-.742.723.723 0 00-.728-.728.723.723 0 00-.728.728.726.726 0 00.728.736zm.5 1.722h-1.018V61h1.022zM174.774 61h1.022v-5.04a2.03 2.03 0 011.792-1.05 1.771 1.771 0 011.834 1.96V61h1.022v-4.424a2.382 2.382 0 00-2.464-2.52 2.462 2.462 0 00-2.184 1.232v-1.12h-1.022zm7.392-3.416a3.418 3.418 0 003.388 3.542 3.935 3.935 0 002.562-.91l-.644-.7a2.792 2.792 0 01-1.876.7 2.459 2.459 0 01-2.422-2.422h5.36V57.5a3.236 3.236 0 00-3.136-3.444 3.336 3.336 0 00-3.232 3.528zm3.22-2.632a2.25 2.25 0 012.128 2.128h-4.312a2.258 2.258 0 012.184-2.128zm4.256 5.1a3.788 3.788 0 002.786 1.074c1.54 0 2.66-.952 2.646-2.114.014-1.036-.644-1.6-1.988-1.834l-1.134-.21c-.84-.154-1.19-.392-1.19-.98 0-.672.63-1.092 1.484-1.092a3.45 3.45 0 012.114.77l.546-.7a4.251 4.251 0 00-2.618-.91c-1.442 0-2.464.84-2.464 2 0 1.022.658 1.568 1.932 1.792l1.134.2c.854.154 1.218.448 1.218 1.022 0 .672-.616 1.232-1.722 1.232a3.059 3.059 0 01-2.156-.9zm6.384 0a3.788 3.788 0 002.786 1.074c1.54 0 2.66-.952 2.646-2.114.014-1.036-.644-1.6-1.988-1.834l-1.134-.21c-.84-.154-1.19-.392-1.19-.98 0-.672.63-1.092 1.484-1.092a3.45 3.45 0 012.114.77l.546-.7a4.251 4.251 0 00-2.618-.91c-1.442 0-2.464.84-2.464 2 0 1.022.658 1.568 1.932 1.792l1.134.2c.854.154 1.218.448 1.218 1.022 0 .672-.616 1.232-1.722 1.232a3.059 3.059 0 01-2.156-.9zm12.308 1.074a2.906 2.906 0 002.17-.91V61h1.008v-4.536c0-1.582-.98-2.408-2.646-2.408a5.722 5.722 0 00-2.576.658l.392.784a4.407 4.407 0 012.052-.588c1.148 0 1.764.546 1.764 1.694v.924a4.1 4.1 0 00-2.064-.518c-1.484 0-2.562.756-2.562 2.016a2.2 2.2 0 002.462 2.1zm-1.484-2.114c0-.8.728-1.274 1.722-1.274a3.545 3.545 0 011.932.5v1.316a2.726 2.726 0 01-1.96.784c-.996.004-1.696-.528-1.696-1.326zM213.54 61h1.022v-5.04a2.03 2.03 0 011.792-1.05 1.771 1.771 0 011.834 1.96V61h1.022v-4.424a2.382 2.382 0 00-2.464-2.52 2.462 2.462 0 00-2.184 1.232v-1.12h-1.022zm12.74 0h1.022V50.99l-1.036.21v3.822a2.8 2.8 0 00-2.114-.938 3.329 3.329 0 00-3.218 3.516 3.308 3.308 0 003.162 3.5 2.747 2.747 0 002.184-1.022zm-4.326-3.416a2.428 2.428 0 012.38-2.6 2.462 2.462 0 011.932.91v3.4a2.36 2.36 0 01-1.932.906 2.44 2.44 0 01-2.38-2.616zm11.648-6.594l-1.022.21V61h1.022zm2.548 1.456a.726.726 0 00.728-.742.723.723 0 00-.728-.728.723.723 0 00-.728.728.726.726 0 00.728.742zm.5 1.722h-1.016V61h1.022zm1.386 0v.84h1.526V61h1.022v-5.992h1.96v-.84h-1.96V53.1c0-.826.364-1.19 1.12-1.19a2.5 2.5 0 01.84.126v-.924a3.206 3.206 0 00-.924-.126 1.879 1.879 0 00-2.058 2.1v1.078zm5.124 3.416a3.418 3.418 0 003.392 3.542 3.935 3.935 0 002.562-.91l-.644-.7a2.792 2.792 0 01-1.876.7 2.459 2.459 0 01-2.422-2.422h5.362V57.5a3.236 3.236 0 00-3.136-3.444 3.336 3.336 0 00-3.234 3.528zm3.22-2.632a2.25 2.25 0 012.128 2.128h-4.312a2.258 2.258 0 012.188-2.128zm4.942 4.634a.753.753 0 00-.742.77.75.75 0 00.742.756.747.747 0 00.728-.756.751.751 0 00-.724-.77z"/><path d="M0 0h340v70H0z" fill="none"/></svg>