<svg xmlns="http://www.w3.org/2000/svg" width="699" height="298" viewBox="0 0 699 298">
  <g id="Image" transform="translate(-511 -1507)">
    <rect id="Rectangle" width="699" height="298" transform="translate(511 1507)" fill="none"/>
    <g id="Progress_steps_Vertical_Step_2_Error" data-name="Progress steps / Vertical / Step 2 / Error" transform="translate(520 1635)">
      <rect id="Rectangle-2" data-name="Rectangle" width="2" height="112" transform="translate(9 12)" fill="#707070" opacity="0.25"/>
      <rect id="Rectangle-3" data-name="Rectangle" width="2" height="56" transform="translate(9 12)" fill="#707070"/>
      <g id="Text" transform="translate(34 112)">
        <rect id="Rectangle-4" data-name="Rectangle" width="34" height="24" fill="none"/>
        <path id="Path" d="M1.424,0H2.656V-5.04H7.04V-6.112H2.656v-4.016H9.072V-11.2H1.424Zm9.888-9.728a.83.83,0,0,0,.832-.848.847.847,0,0,0-.832-.832.85.85,0,0,0-.848.832A.834.834,0,0,0,11.312-9.728Zm.576,1.92H10.72V0h1.168ZM14.288,0h1.168V-5.76A2.3,2.3,0,0,1,17.5-6.96a2.024,2.024,0,0,1,2.1,2.24V0h1.168V-5.056a2.717,2.717,0,0,0-2.832-2.88,2.813,2.813,0,0,0-2.48,1.392V-7.808H14.288ZM25.536.144a3.352,3.352,0,0,0,2.48-1.056V0h1.152V-5.184c0-1.776-1.088-2.752-3.024-2.752a6.689,6.689,0,0,0-2.944.752l.432.9A5.156,5.156,0,0,1,26-6.96a1.758,1.758,0,0,1,2.016,1.936v1.072a4.521,4.521,0,0,0-2.384-.608c-1.76,0-2.928.928-2.928,2.32C22.7-.832,23.872.144,25.536.144ZM23.824-2.272c0-.864.784-1.44,1.984-1.44a4.122,4.122,0,0,1,2.208.56v1.5a3.091,3.091,0,0,1-2.24.9C24.608-.752,23.824-1.36,23.824-2.272ZM32.7-11.68l-1.168.24V0H32.7Z" transform="translate(0 18)" fill="#707070"/>
      </g>
      <g id="Final">
        <circle id="Ellipse" cx="8" cy="8" r="8" transform="translate(2 116)" fill="#fff"/>
        <g id="Ellipse-2" data-name="Ellipse" transform="translate(2 116)" fill="none" stroke="#707070" stroke-width="2" opacity="0.25">
          <circle cx="8" cy="8" r="8" stroke="none"/>
          <circle cx="8" cy="8" r="7" fill="none"/>
        </g>
      </g>
      <g id="Text-2" data-name="Text" transform="translate(34 80)">
        <rect id="Rectangle-5" data-name="Rectangle" width="36" height="24" transform="translate(0 -24)" fill="none"/>
        <path id="Path-2" data-name="Path" d="M1.424,0H9.136V-1.072H2.656V-5.12H7.1V-6.192H2.656v-3.936H9.072V-11.2H1.424ZM11.1,0h1.168V-5.344a2.226,2.226,0,0,1,2.1-1.584,2.919,2.919,0,0,1,.816.144V-7.84a2.217,2.217,0,0,0-.736-.112,2.332,2.332,0,0,0-2.176,1.728V-7.808H11.1Zm5.632,0H17.9V-5.344A2.226,2.226,0,0,1,20-6.928a2.919,2.919,0,0,1,.816.144V-7.84a2.217,2.217,0,0,0-.736-.112A2.332,2.332,0,0,0,17.9-6.224V-7.808H16.736ZM21.52-3.9A3.867,3.867,0,0,0,25.312.16,3.86,3.86,0,0,0,29.12-3.9a3.832,3.832,0,0,0-3.808-4.032A3.829,3.829,0,0,0,21.52-3.9ZM25.312-.88a2.753,2.753,0,0,1-2.64-3.008,2.777,2.777,0,0,1,2.64-3.024,2.789,2.789,0,0,1,2.656,3.024A2.774,2.774,0,0,1,25.312-.88ZM31.168,0h1.168V-5.344a2.226,2.226,0,0,1,2.1-1.584,2.919,2.919,0,0,1,.816.144V-7.84a2.217,2.217,0,0,0-.736-.112,2.332,2.332,0,0,0-2.176,1.728V-7.808H31.168Z" transform="translate(0 -6)" fill="#707070"/>
      </g>
      <g id="Error" transform="translate(0 58)">
        <circle id="Ellipse-3" data-name="Ellipse" cx="10" cy="10" r="10" fill="#fff"/>
        <path id="Icon" d="M20,10A9.938,9.938,0,0,1,10,20,9.938,9.938,0,0,1,0,10,9.938,9.938,0,0,1,10,0,9.938,9.938,0,0,1,20,10ZM10,12a1.857,1.857,0,1,0,1.857,1.857A1.891,1.891,0,0,0,10,12ZM8.286,5.286l.286,5.571A.456.456,0,0,0,9,11.286h2a.379.379,0,0,0,.429-.429l.286-5.429c0-.286-.143-.571-.429-.571H8.714A.456.456,0,0,0,8.286,5.286Z" fill="#707070"/>
      </g>
      <g id="Text-3" data-name="Text" transform="translate(34)">
        <rect id="Rectangle-6" data-name="Rectangle" width="60" height="24" fill="none"/>
        <path id="Path-3" data-name="Path" d="M1.424,0H2.656V-5.04H7.04V-6.112H2.656v-4.016H9.072V-11.2H1.424Zm9.888-9.728a.83.83,0,0,0,.832-.848.847.847,0,0,0-.832-.832.85.85,0,0,0-.848.832A.834.834,0,0,0,11.312-9.728Zm.576,1.92H10.72V0h1.168ZM14.288,0h1.168V-5.76A2.3,2.3,0,0,1,17.5-6.96a2.024,2.024,0,0,1,2.1,2.24V0h1.168V-5.056a2.717,2.717,0,0,0-2.832-2.88,2.813,2.813,0,0,0-2.48,1.392V-7.808H14.288Zm9.424-9.728a.83.83,0,0,0,.832-.848.847.847,0,0,0-.832-.832.85.85,0,0,0-.848.832A.834.834,0,0,0,23.712-9.728Zm.576,1.92H23.12V0h1.168Zm1.648,6.8A4.451,4.451,0,0,0,29.1.144c1.728,0,3.04-1.056,3.04-2.416,0-1.152-.7-1.808-2.272-2.1l-1.312-.24c-1.008-.176-1.344-.48-1.344-1.12,0-.768.672-1.248,1.7-1.248a4.142,4.142,0,0,1,2.448.832l.576-.816a5.048,5.048,0,0,0-2.976-.976c-1.648,0-2.816.944-2.816,2.288,0,1.136.688,1.776,2.208,2.048l1.28.224c.992.192,1.408.528,1.408,1.168,0,.816-.832,1.408-1.968,1.408a4.072,4.072,0,0,1-2.512-.976ZM33.92,0h1.168V-5.76a2.3,2.3,0,0,1,2.048-1.2,2.024,2.024,0,0,1,2.1,2.24V0H40.4V-5.056a2.717,2.717,0,0,0-2.832-2.88,2.813,2.813,0,0,0-2.48,1.392V-11.68l-1.168.24ZM49.2-.9l-.736-.784a3.191,3.191,0,0,1-2.144.8,2.845,2.845,0,0,1-2.784-2.768h6.128V-4A3.689,3.689,0,0,0,46.08-7.936,3.8,3.8,0,0,0,42.4-3.9,3.9,3.9,0,0,0,46.272.144,4.558,4.558,0,0,0,49.2-.9ZM46.064-6.928A2.579,2.579,0,0,1,48.512-4.48H43.568A2.608,2.608,0,0,1,46.064-6.928ZM57.424,0h1.168V-11.68l-1.168.24v4.624A3.18,3.18,0,0,0,54.992-7.9a3.8,3.8,0,0,0-3.664,4.016,3.768,3.768,0,0,0,3.6,4,3.077,3.077,0,0,0,2.5-1.152ZM52.48-3.9A2.787,2.787,0,0,1,55.216-6.88a2.8,2.8,0,0,1,2.208,1.056v3.872a2.674,2.674,0,0,1-2.208,1.04A2.8,2.8,0,0,1,52.48-3.9Z" transform="translate(0 18)" fill="#707070"/>
      </g>
      <g id="Finished" transform="translate(0 2)">
        <circle id="Ellipse-4" data-name="Ellipse" cx="10" cy="10" r="10" fill="#fff"/>
        <path id="Icon-2" data-name="Icon" d="M20,10A9.938,9.938,0,0,1,10,20,9.938,9.938,0,0,1,0,10,9.938,9.938,0,0,1,10,0,9.938,9.938,0,0,1,20,10ZM8.857,15.286l7.429-7.429c.286-.286.286-.714,0-.857l-.857-.857c-.286-.286-.714-.286-.857,0l-6.143,6L5.571,9.286C5.286,9,4.857,9,4.714,9.286l-1,.857c-.286.286-.286.714,0,.857l4.143,4.143A.612.612,0,0,0,8.857,15.286Z" fill="#707070"/>
      </g>
    </g>
    <g id="Progress_steps_Horizontal_Step_2" data-name="Progress steps / Horizontal / Step 2" transform="translate(521.424 1507)">
      <g id="Text-4" data-name="Text" transform="translate(651.576 40)">
        <rect id="Rectangle-7" data-name="Rectangle" width="31.28" height="14.824" transform="translate(1.424 4.32)" fill="none"/>
        <path id="Path-4" data-name="Path" d="M1.424,0H2.656V-5.04H7.04V-6.112H2.656v-4.016H9.072V-11.2H1.424Zm9.888-9.728a.83.83,0,0,0,.832-.848.847.847,0,0,0-.832-.832.85.85,0,0,0-.848.832A.834.834,0,0,0,11.312-9.728Zm.576,1.92H10.72V0h1.168ZM14.288,0h1.168V-5.76A2.3,2.3,0,0,1,17.5-6.96a2.024,2.024,0,0,1,2.1,2.24V0h1.168V-5.056a2.717,2.717,0,0,0-2.832-2.88,2.813,2.813,0,0,0-2.48,1.392V-7.808H14.288ZM25.536.144a3.352,3.352,0,0,0,2.48-1.056V0h1.152V-5.184c0-1.776-1.088-2.752-3.024-2.752a6.689,6.689,0,0,0-2.944.752l.432.9A5.156,5.156,0,0,1,26-6.96a1.758,1.758,0,0,1,2.016,1.936v1.072a4.521,4.521,0,0,0-2.384-.608c-1.76,0-2.928.928-2.928,2.32C22.7-.832,23.872.144,25.536.144ZM23.824-2.272c0-.864.784-1.44,1.984-1.44a4.122,4.122,0,0,1,2.208.56v1.5a3.091,3.091,0,0,1-2.24.9C24.608-.752,23.824-1.36,23.824-2.272ZM32.7-11.68l-1.168.24V0H32.7Z" transform="translate(0 18)" fill="#707070"/>
      </g>
      <g id="Text-5" data-name="Text" transform="translate(437.576 40)">
        <rect id="Rectangle-8" data-name="Rectangle" width="31.984" height="14.344" transform="translate(1.424 4.8)" fill="none"/>
        <path id="Path-5" data-name="Path" d="M1.424-11.2V0H2.592L2.56-9.488,9.28,0H10.4V-11.2H9.232l.032,9.28L2.7-11.2ZM19.472-.9l-.736-.784a3.191,3.191,0,0,1-2.144.8,2.845,2.845,0,0,1-2.784-2.768h6.128V-4a3.689,3.689,0,0,0-3.584-3.936A3.8,3.8,0,0,0,12.672-3.9,3.9,3.9,0,0,0,16.544.144,4.558,4.558,0,0,0,19.472-.9ZM16.336-6.928A2.579,2.579,0,0,1,18.784-4.48H13.84A2.608,2.608,0,0,1,16.336-6.928ZM20.448,0h1.328L24.1-3.184,26.432,0h1.392L24.8-4.048l2.8-3.76H26.272l-2.128,2.96-2.16-2.96H20.592l2.832,3.792ZM30-1.76c0,1.248.7,1.9,2.048,1.9a4.386,4.386,0,0,0,1.36-.208V-1.1A2.8,2.8,0,0,1,32.3-.9c-.816,0-1.136-.336-1.136-1.168V-6.848h2.24v-.96h-2.24v-2.416L30-9.952v2.144H28.384v.96H30Z" transform="translate(0 18)" fill="#707070"/>
      </g>
      <g id="Text-6" data-name="Text" transform="translate(214.576 40)">
        <rect id="Rectangle-9" data-name="Rectangle" width="53.12" height="14.552" transform="translate(0.896 4.624)" fill="none"/>
        <path id="Path-6" data-name="Path" d="M6.624-.944A4.485,4.485,0,0,1,2.144-5.6a4.478,4.478,0,0,1,4.448-4.656A4.489,4.489,0,0,1,10-8.688l.816-.848a5.6,5.6,0,0,0-4.224-1.84A5.676,5.676,0,0,0,.9-5.6,5.676,5.676,0,0,0,6.592.176a5.632,5.632,0,0,0,4.192-1.84l-.8-.816A4.388,4.388,0,0,1,6.624-.944Zm7.088-6.864H12.528v5.04A2.73,2.73,0,0,0,15.36.128a2.8,2.8,0,0,0,2.48-1.392V0h1.168V-7.808H17.84v5.776A2.318,2.318,0,0,1,15.792-.848,2.017,2.017,0,0,1,13.712-3.1ZM21.408,0h1.168V-5.344a2.226,2.226,0,0,1,2.1-1.584,2.919,2.919,0,0,1,.816.144V-7.84a2.217,2.217,0,0,0-.736-.112,2.332,2.332,0,0,0-2.176,1.728V-7.808H21.408ZM27.04,0h1.168V-5.344a2.226,2.226,0,0,1,2.1-1.584,2.919,2.919,0,0,1,.816.144V-7.84a2.217,2.217,0,0,0-.736-.112,2.332,2.332,0,0,0-2.176,1.728V-7.808H27.04ZM38.624-.9l-.736-.784a3.191,3.191,0,0,1-2.144.8A2.845,2.845,0,0,1,32.96-3.648h6.128V-4A3.689,3.689,0,0,0,35.5-7.936,3.8,3.8,0,0,0,31.824-3.9,3.9,3.9,0,0,0,35.7.144,4.558,4.558,0,0,0,38.624-.9ZM35.488-6.928A2.579,2.579,0,0,1,37.936-4.48H32.992A2.608,2.608,0,0,1,35.488-6.928ZM41.088,0h1.168V-5.76A2.3,2.3,0,0,1,44.3-6.96a2.024,2.024,0,0,1,2.1,2.24V0h1.168V-5.056a2.717,2.717,0,0,0-2.832-2.88,2.813,2.813,0,0,0-2.48,1.392V-7.808H41.088Zm9.52-1.76c0,1.248.7,1.9,2.048,1.9a4.386,4.386,0,0,0,1.36-.208V-1.1a2.8,2.8,0,0,1-1.1.208c-.816,0-1.136-.336-1.136-1.168V-6.848h2.24v-.96h-2.24v-2.416l-1.168.272v2.144H48.992v.96h1.616Z" transform="translate(0 18)" fill="#707070"/>
      </g>
      <g id="Text-7" data-name="Text" transform="translate(-1.424 40)">
        <rect id="Rectangle-10" data-name="Rectangle" width="57.168" height="14.824" transform="translate(1.424 4.32)" fill="none"/>
        <path id="Path-7" data-name="Path" d="M1.424,0H2.656V-5.04H7.04V-6.112H2.656v-4.016H9.072V-11.2H1.424Zm9.888-9.728a.83.83,0,0,0,.832-.848.847.847,0,0,0-.832-.832.85.85,0,0,0-.848.832A.834.834,0,0,0,11.312-9.728Zm.576,1.92H10.72V0h1.168ZM14.288,0h1.168V-5.76A2.3,2.3,0,0,1,17.5-6.96a2.024,2.024,0,0,1,2.1,2.24V0h1.168V-5.056a2.717,2.717,0,0,0-2.832-2.88,2.813,2.813,0,0,0-2.48,1.392V-7.808H14.288Zm9.424-9.728a.83.83,0,0,0,.832-.848.847.847,0,0,0-.832-.832.85.85,0,0,0-.848.832A.834.834,0,0,0,23.712-9.728Zm.576,1.92H23.12V0h1.168Zm1.648,6.8A4.451,4.451,0,0,0,29.1.144c1.728,0,3.04-1.056,3.04-2.416,0-1.152-.7-1.808-2.272-2.1l-1.312-.24c-1.008-.176-1.344-.48-1.344-1.12,0-.768.672-1.248,1.7-1.248a4.142,4.142,0,0,1,2.448.832l.576-.816a5.048,5.048,0,0,0-2.976-.976c-1.648,0-2.816.944-2.816,2.288,0,1.136.688,1.776,2.208,2.048l1.28.224c.992.192,1.408.528,1.408,1.168,0,.816-.832,1.408-1.968,1.408a4.072,4.072,0,0,1-2.512-.976ZM33.92,0h1.168V-5.76a2.3,2.3,0,0,1,2.048-1.2,2.024,2.024,0,0,1,2.1,2.24V0H40.4V-5.056a2.717,2.717,0,0,0-2.832-2.88,2.813,2.813,0,0,0-2.48,1.392V-11.68l-1.168.24ZM49.2-.9l-.736-.784a3.191,3.191,0,0,1-2.144.8,2.845,2.845,0,0,1-2.784-2.768h6.128V-4A3.689,3.689,0,0,0,46.08-7.936,3.8,3.8,0,0,0,42.4-3.9,3.9,3.9,0,0,0,46.272.144,4.558,4.558,0,0,0,49.2-.9ZM46.064-6.928A2.579,2.579,0,0,1,48.512-4.48H43.568A2.608,2.608,0,0,1,46.064-6.928ZM57.424,0h1.168V-11.68l-1.168.24v4.624A3.18,3.18,0,0,0,54.992-7.9a3.8,3.8,0,0,0-3.664,4.016,3.768,3.768,0,0,0,3.6,4,3.077,3.077,0,0,0,2.5-1.152ZM52.48-3.9A2.787,2.787,0,0,1,55.216-6.88a2.8,2.8,0,0,1,2.208,1.056v3.872a2.674,2.674,0,0,1-2.208,1.04A2.8,2.8,0,0,1,52.48-3.9Z" transform="translate(0 18)" fill="#707070"/>
      </g>
      <rect id="Rectangle-11" data-name="Rectangle" width="640" height="2" transform="translate(28.576 15)" fill="#707070" opacity="0.25"/>
      <rect id="Rectangle-12" data-name="Rectangle" width="213" height="2" transform="translate(28.576 15)" fill="#707070"/>
      <g id="Final-2" data-name="Final" transform="translate(-1.424)">
        <circle id="Ellipse-5" data-name="Ellipse" cx="8" cy="8" r="8" transform="translate(662 8)" fill="#fff"/>
        <g id="Ellipse-6" data-name="Ellipse" transform="translate(662 8)" fill="none" stroke="#707070" stroke-width="2" opacity="0.25">
          <circle cx="8" cy="8" r="8" stroke="none"/>
          <circle cx="8" cy="8" r="7" fill="none"/>
        </g>
      </g>
      <g id="Next" transform="translate(-1.424)">
        <circle id="Ellipse-7" data-name="Ellipse" cx="8" cy="8" r="8" transform="translate(448 8)" fill="#fff"/>
        <g id="Ellipse-8" data-name="Ellipse" transform="translate(448 8)" fill="none" stroke="#707070" stroke-width="2" opacity="0.25">
          <circle cx="8" cy="8" r="8" stroke="none"/>
          <circle cx="8" cy="8" r="7" fill="none"/>
        </g>
      </g>
      <g id="Current" transform="translate(225.576)">
        <circle id="Ellipse-9" data-name="Ellipse" cx="16" cy="16" r="16" fill="#707070" opacity="0.15"/>
        <circle id="Ellipse-10" data-name="Ellipse" cx="10" cy="10" r="10" transform="translate(6 6)" fill="#707070"/>
      </g>
      <g id="Finished-2" data-name="Finished" transform="translate(18.576 6)">
        <circle id="Ellipse-11" data-name="Ellipse" cx="10" cy="10" r="10" fill="#fff"/>
        <path id="Icon-3" data-name="Icon" d="M20,10A9.938,9.938,0,0,1,10,20,9.938,9.938,0,0,1,0,10,9.938,9.938,0,0,1,10,0,9.938,9.938,0,0,1,20,10ZM8.857,15.286l7.429-7.429c.286-.286.286-.714,0-.857l-.857-.857c-.286-.286-.714-.286-.857,0l-6.143,6L5.571,9.286C5.286,9,4.857,9,4.714,9.286l-1,.857c-.286.286-.286.714,0,.857l4.143,4.143A.612.612,0,0,0,8.857,15.286Z" fill="#707070"/>
      </g>
    </g>
    <path id="Path-8" data-name="Path" d="M1.246,0H2.324V-4.41H6.16v-.938H2.324V-8.862H7.938V-9.8H1.246Zm8.792-8.512a.726.726,0,0,0,.728-.742.741.741,0,0,0-.728-.728.744.744,0,0,0-.742.728A.729.729,0,0,0,10.038-8.512Zm.5,1.68H9.52V0h1.022ZM12.782,0H13.8V-5.04A2.014,2.014,0,0,1,15.6-6.09,1.771,1.771,0,0,1,17.43-4.13V0h1.022V-4.424a2.378,2.378,0,0,0-2.478-2.52A2.462,2.462,0,0,0,13.8-5.726V-6.832H12.782Zm9.982.126A2.933,2.933,0,0,0,24.934-.8V0h1.008V-4.536c0-1.554-.952-2.408-2.646-2.408a5.853,5.853,0,0,0-2.576.658L21.1-5.5A4.511,4.511,0,0,1,23.17-6.09,1.538,1.538,0,0,1,24.934-4.4v.938a3.956,3.956,0,0,0-2.086-.532c-1.54,0-2.562.812-2.562,2.03A2.206,2.206,0,0,0,22.764.126Zm-1.5-2.114c0-.756.686-1.26,1.736-1.26a3.606,3.606,0,0,1,1.932.49v1.316a2.7,2.7,0,0,1-1.96.784C21.952-.658,21.266-1.19,21.266-1.988Zm7.91-8.232-1.022.21V0h1.022ZM34.16-.882A3.9,3.9,0,0,0,36.932.126c1.512,0,2.66-.924,2.66-2.114,0-1.008-.616-1.582-1.988-1.834l-1.148-.21c-.882-.154-1.176-.42-1.176-.98,0-.672.588-1.092,1.484-1.092a3.624,3.624,0,0,1,2.142.728l.5-.714a4.417,4.417,0,0,0-2.6-.854c-1.442,0-2.464.826-2.464,2,0,.994.6,1.554,1.932,1.792l1.12.2c.868.168,1.232.462,1.232,1.022C38.626-1.218,37.9-.7,36.9-.7a3.563,3.563,0,0,1-2.2-.854Zm7.8-.658c0,1.092.616,1.666,1.792,1.666a3.837,3.837,0,0,0,1.19-.182v-.91a2.454,2.454,0,0,1-.966.182c-.714,0-.994-.294-.994-1.022V-5.992h1.96v-.84H42.98V-8.946l-1.022.238v1.876H40.544v.84h1.414Zm10.094.756-.644-.686a2.792,2.792,0,0,1-1.876.7A2.49,2.49,0,0,1,47.1-3.192h5.362V-3.5a3.228,3.228,0,0,0-3.136-3.444A3.325,3.325,0,0,0,46.1-3.416,3.41,3.41,0,0,0,49.49.126,3.989,3.989,0,0,0,52.052-.784ZM49.308-6.062A2.256,2.256,0,0,1,51.45-3.92H47.124A2.282,2.282,0,0,1,49.308-6.062Zm5.04,8.988H55.37V-.854A2.77,2.77,0,0,0,57.512.1a3.327,3.327,0,0,0,3.206-3.514,3.3,3.3,0,0,0-3.15-3.5,2.7,2.7,0,0,0-2.212,1.064v-.98H54.348ZM57.316-6.02A2.451,2.451,0,0,1,59.71-3.4,2.451,2.451,0,0,1,57.316-.784a2.4,2.4,0,0,1-1.946-.952V-5.082A2.333,2.333,0,0,1,57.316-6.02Z" transform="translate(1149 1801)" fill="#f0f"/>
    <rect id="Rectangle-13" data-name="Rectangle" width="1" height="268" transform="translate(1179 1515)" fill="#f0f"/>
    <path id="Path-9" data-name="Path" d="M1.246-9.8V0H2.268L2.24-8.3,8.12,0H9.1V-9.8H8.078l.028,8.12L2.366-9.8ZM17.178-.784l-.644-.686a2.792,2.792,0,0,1-1.876.7,2.49,2.49,0,0,1-2.436-2.422h5.362V-3.5a3.228,3.228,0,0,0-3.136-3.444,3.325,3.325,0,0,0-3.22,3.528A3.41,3.41,0,0,0,14.616.126,3.989,3.989,0,0,0,17.178-.784ZM14.434-6.062A2.256,2.256,0,0,1,16.576-3.92H12.25A2.282,2.282,0,0,1,14.434-6.062ZM18.172,0h1.162l2.03-2.786L23.408,0h1.218L21.98-3.542l2.45-3.29H23.268l-1.862,2.59-1.89-2.59H18.3l2.478,3.318Zm8.5-1.54c0,1.092.616,1.666,1.792,1.666a3.837,3.837,0,0,0,1.19-.182v-.91a2.454,2.454,0,0,1-.966.182c-.714,0-.994-.294-.994-1.022V-5.992h1.96v-.84h-1.96V-8.946l-1.022.238v1.876H25.256v.84H26.67Zm7.364.658A3.9,3.9,0,0,0,36.806.126c1.512,0,2.66-.924,2.66-2.114,0-1.008-.616-1.582-1.988-1.834l-1.148-.21c-.882-.154-1.176-.42-1.176-.98,0-.672.588-1.092,1.484-1.092a3.624,3.624,0,0,1,2.142.728l.5-.714a4.417,4.417,0,0,0-2.6-.854c-1.442,0-2.464.826-2.464,2,0,.994.6,1.554,1.932,1.792l1.12.2c.868.168,1.232.462,1.232,1.022,0,.714-.728,1.232-1.722,1.232a3.563,3.563,0,0,1-2.2-.854Zm7.8-.658c0,1.092.616,1.666,1.792,1.666a3.837,3.837,0,0,0,1.19-.182v-.91a2.454,2.454,0,0,1-.966.182c-.714,0-.994-.294-.994-1.022V-5.992h1.96v-.84h-1.96V-8.946l-1.022.238v1.876H40.418v.84h1.414Zm10.094.756-.644-.686a2.792,2.792,0,0,1-1.876.7A2.49,2.49,0,0,1,46.97-3.192h5.362V-3.5A3.228,3.228,0,0,0,49.2-6.944a3.325,3.325,0,0,0-3.22,3.528A3.41,3.41,0,0,0,49.364.126,3.989,3.989,0,0,0,51.926-.784ZM49.182-6.062A2.256,2.256,0,0,1,51.324-3.92H47A2.282,2.282,0,0,1,49.182-6.062Zm5.04,8.988h1.022V-.854A2.77,2.77,0,0,0,57.386.1a3.327,3.327,0,0,0,3.206-3.514,3.3,3.3,0,0,0-3.15-3.5A2.7,2.7,0,0,0,55.23-5.852v-.98H54.222ZM57.19-6.02A2.451,2.451,0,0,1,59.584-3.4,2.451,2.451,0,0,1,57.19-.784a2.4,2.4,0,0,1-1.946-.952V-5.082A2.333,2.333,0,0,1,57.19-6.02Z" transform="translate(956 1801)" fill="#f0f"/>
    <rect id="Rectangle-14" data-name="Rectangle" width="1" height="268" transform="translate(986 1515)" fill="#f0f"/>
    <path id="Path-10" data-name="Path" d="M5.8-.826A3.924,3.924,0,0,1,1.876-4.9,3.918,3.918,0,0,1,5.768-8.974,3.928,3.928,0,0,1,8.75-7.6l.714-.742a4.9,4.9,0,0,0-3.7-1.61A4.966,4.966,0,0,0,.784-4.9,4.966,4.966,0,0,0,5.768.154a4.928,4.928,0,0,0,3.668-1.61l-.7-.714A3.84,3.84,0,0,1,5.8-.826Zm6.342-6.006H11.1v4.41A2.389,2.389,0,0,0,13.58.112a2.446,2.446,0,0,0,2.17-1.218V0h1.022V-6.832H15.75v5.054A2.028,2.028,0,0,1,13.958-.742a1.765,1.765,0,0,1-1.82-1.974ZM19.012,0h1.022V-4.676a1.947,1.947,0,0,1,1.834-1.386,2.554,2.554,0,0,1,.714.126V-6.86a1.94,1.94,0,0,0-.644-.1,2.041,2.041,0,0,0-1.9,1.512V-6.832H19.012ZM24.08,0H25.1V-4.676a1.947,1.947,0,0,1,1.834-1.386,2.554,2.554,0,0,1,.714.126V-6.86a1.94,1.94,0,0,0-.644-.1,2.041,2.041,0,0,0-1.9,1.512V-6.832H24.08ZM34.356-.784l-.644-.686a2.792,2.792,0,0,1-1.876.7A2.49,2.49,0,0,1,29.4-3.192h5.362V-3.5a3.228,3.228,0,0,0-3.136-3.444,3.325,3.325,0,0,0-3.22,3.528A3.41,3.41,0,0,0,31.794.126,3.989,3.989,0,0,0,34.356-.784ZM31.612-6.062A2.256,2.256,0,0,1,33.754-3.92H29.428A2.282,2.282,0,0,1,31.612-6.062ZM36.652,0h1.022V-5.04a2.014,2.014,0,0,1,1.792-1.05A1.771,1.771,0,0,1,41.3-4.13V0h1.022V-4.424a2.378,2.378,0,0,0-2.478-2.52,2.462,2.462,0,0,0-2.17,1.218V-6.832H36.652Zm8.47-1.54c0,1.092.616,1.666,1.792,1.666A3.837,3.837,0,0,0,48.1-.056v-.91a2.454,2.454,0,0,1-.966.182c-.714,0-.994-.294-.994-1.022V-5.992H48.1v-.84h-1.96V-8.946l-1.022.238v1.876H43.708v.84h1.414Zm7.364.658A3.9,3.9,0,0,0,55.258.126c1.512,0,2.66-.924,2.66-2.114C57.918-3,57.3-3.57,55.93-3.822l-1.148-.21c-.882-.154-1.176-.42-1.176-.98,0-.672.588-1.092,1.484-1.092a3.624,3.624,0,0,1,2.142.728l.5-.714a4.417,4.417,0,0,0-2.6-.854c-1.442,0-2.464.826-2.464,2,0,.994.6,1.554,1.932,1.792l1.12.2c.868.168,1.232.462,1.232,1.022,0,.714-.728,1.232-1.722,1.232a3.563,3.563,0,0,1-2.2-.854Zm7.8-.658c0,1.092.616,1.666,1.792,1.666a3.837,3.837,0,0,0,1.19-.182v-.91a2.454,2.454,0,0,1-.966.182c-.714,0-.994-.294-.994-1.022V-5.992h1.96v-.84h-1.96V-8.946l-1.022.238v1.876H58.87v.84h1.414Zm10.094.756-.644-.686a2.792,2.792,0,0,1-1.876.7,2.49,2.49,0,0,1-2.436-2.422h5.362V-3.5a3.228,3.228,0,0,0-3.136-3.444,3.325,3.325,0,0,0-3.22,3.528A3.41,3.41,0,0,0,67.816.126,3.989,3.989,0,0,0,70.378-.784ZM67.634-6.062A2.256,2.256,0,0,1,69.776-3.92H65.45A2.282,2.282,0,0,1,67.634-6.062Zm5.04,8.988H73.7V-.854A2.77,2.77,0,0,0,75.838.1a3.327,3.327,0,0,0,3.206-3.514,3.3,3.3,0,0,0-3.15-3.5,2.7,2.7,0,0,0-2.212,1.064v-.98H72.674ZM75.642-6.02A2.451,2.451,0,0,1,78.036-3.4,2.451,2.451,0,0,1,75.642-.784,2.4,2.4,0,0,1,73.7-1.736V-5.082A2.333,2.333,0,0,1,75.642-6.02Z" transform="translate(741 1801)" fill="#f0f"/>
    <rect id="Rectangle-15" data-name="Rectangle" width="1" height="276" transform="translate(781 1507)" fill="#f0f"/>
    <path id="Path-11" data-name="Path" d="M1.246,0H2.324V-4H5.292A2.835,2.835,0,0,0,8.414-6.9,2.828,2.828,0,0,0,5.292-9.8H1.246Zm3.92-8.848A1.906,1.906,0,0,1,7.336-6.9a1.919,1.919,0,0,1-2.17,1.974H2.324v-3.92ZM10.346,0h1.022V-4.676A1.947,1.947,0,0,1,13.2-6.062a2.554,2.554,0,0,1,.714.126V-6.86a1.94,1.94,0,0,0-.644-.1,2.041,2.041,0,0,0-1.9,1.512V-6.832H10.346Zm4.326-3.416A3.384,3.384,0,0,0,17.99.14a3.378,3.378,0,0,0,3.332-3.556A3.353,3.353,0,0,0,17.99-6.944,3.351,3.351,0,0,0,14.672-3.416ZM17.99-.77A2.409,2.409,0,0,1,15.68-3.4a2.43,2.43,0,0,1,2.31-2.646A2.44,2.44,0,0,1,20.314-3.4,2.427,2.427,0,0,1,17.99-.77Zm8.12.854A2.692,2.692,0,0,0,28.294-.924V.364c0,1.148-.658,1.75-1.9,1.75a4.594,4.594,0,0,1-2.184-.63l-.434.784a5.479,5.479,0,0,0,2.66.714c1.862,0,2.884-.938,2.884-2.632V-6.832H28.308v.882a2.757,2.757,0,0,0-2.142-.966,3.323,3.323,0,0,0-3.206,3.5A3.3,3.3,0,0,0,26.11.084Zm-2.142-3.5a2.438,2.438,0,0,1,2.394-2.6,2.45,2.45,0,0,1,1.932.924v3.374A2.351,2.351,0,0,1,26.362-.8,2.451,2.451,0,0,1,23.968-3.416ZM31.556,0h1.022V-4.676a1.947,1.947,0,0,1,1.834-1.386,2.554,2.554,0,0,1,.714.126V-6.86a1.94,1.94,0,0,0-.644-.1,2.041,2.041,0,0,0-1.9,1.512V-6.832H31.556ZM41.832-.784l-.644-.686a2.792,2.792,0,0,1-1.876.7,2.49,2.49,0,0,1-2.436-2.422h5.362V-3.5A3.228,3.228,0,0,0,39.1-6.944a3.325,3.325,0,0,0-3.22,3.528A3.41,3.41,0,0,0,39.27.126,3.989,3.989,0,0,0,41.832-.784ZM39.088-6.062A2.256,2.256,0,0,1,41.23-3.92H36.9A2.282,2.282,0,0,1,39.088-6.062ZM43.54-.882A3.9,3.9,0,0,0,46.312.126c1.512,0,2.66-.924,2.66-2.114,0-1.008-.616-1.582-1.988-1.834l-1.148-.21c-.882-.154-1.176-.42-1.176-.98,0-.672.588-1.092,1.484-1.092a3.624,3.624,0,0,1,2.142.728l.5-.714a4.417,4.417,0,0,0-2.6-.854c-1.442,0-2.464.826-2.464,2,0,.994.6,1.554,1.932,1.792l1.12.2c.868.168,1.232.462,1.232,1.022,0,.714-.728,1.232-1.722,1.232a3.563,3.563,0,0,1-2.2-.854Zm6.58,0A3.9,3.9,0,0,0,52.892.126c1.512,0,2.66-.924,2.66-2.114,0-1.008-.616-1.582-1.988-1.834l-1.148-.21c-.882-.154-1.176-.42-1.176-.98,0-.672.588-1.092,1.484-1.092a3.624,3.624,0,0,1,2.142.728l.5-.714a4.417,4.417,0,0,0-2.6-.854c-1.442,0-2.464.826-2.464,2,0,.994.6,1.554,1.932,1.792l1.12.2c.868.168,1.232.462,1.232,1.022,0,.714-.728,1.232-1.722,1.232a3.563,3.563,0,0,1-2.2-.854Z" transform="translate(629 1801)" fill="#f0f"/>
    <rect id="Rectangle-16" data-name="Rectangle" width="1" height="257" transform="translate(656 1526)" fill="#f0f"/>
    <rect id="Rectangle-17" data-name="Rectangle" width="124" height="1" transform="translate(533 1675)" fill="#f0f"/>
    <path id="Path-12" data-name="Path" d="M1.246,0H7.994V-.938H2.324V-4.48H6.216v-.938H2.324V-8.862H7.938V-9.8H1.246Zm8.61,0h1.022V-4.676a1.947,1.947,0,0,1,1.834-1.386,2.554,2.554,0,0,1,.714.126V-6.86a1.94,1.94,0,0,0-.644-.1,2.041,2.041,0,0,0-1.9,1.512V-6.832H9.856Zm5.068,0h1.022V-4.676A1.947,1.947,0,0,1,17.78-6.062a2.554,2.554,0,0,1,.714.126V-6.86a1.94,1.94,0,0,0-.644-.1,2.041,2.041,0,0,0-1.9,1.512V-6.832H14.924ZM19.25-3.416A3.384,3.384,0,0,0,22.568.14,3.378,3.378,0,0,0,25.9-3.416a3.353,3.353,0,0,0-3.332-3.528A3.351,3.351,0,0,0,19.25-3.416ZM22.568-.77A2.409,2.409,0,0,1,20.258-3.4a2.43,2.43,0,0,1,2.31-2.646A2.44,2.44,0,0,1,24.892-3.4,2.427,2.427,0,0,1,22.568-.77ZM27.832,0h1.022V-4.676a1.947,1.947,0,0,1,1.834-1.386,2.554,2.554,0,0,1,.714.126V-6.86a1.94,1.94,0,0,0-.644-.1,2.041,2.041,0,0,0-1.9,1.512V-6.832H27.832Zm7.812-.882A3.9,3.9,0,0,0,38.416.126c1.512,0,2.66-.924,2.66-2.114,0-1.008-.616-1.582-1.988-1.834l-1.148-.21c-.882-.154-1.176-.42-1.176-.98,0-.672.588-1.092,1.484-1.092a3.624,3.624,0,0,1,2.142.728l.5-.714a4.417,4.417,0,0,0-2.6-.854c-1.442,0-2.464.826-2.464,2,0,.994.6,1.554,1.932,1.792l1.12.2c.868.168,1.232.462,1.232,1.022,0,.714-.728,1.232-1.722,1.232a3.563,3.563,0,0,1-2.2-.854Zm7.8-.658c0,1.092.616,1.666,1.792,1.666a3.837,3.837,0,0,0,1.19-.182v-.91a2.454,2.454,0,0,1-.966.182c-.714,0-.994-.294-.994-1.022V-5.992h1.96v-.84h-1.96V-8.946l-1.022.238v1.876H42.028v.84h1.414Zm10.094.756-.644-.686a2.792,2.792,0,0,1-1.876.7A2.49,2.49,0,0,1,48.58-3.192h5.362V-3.5a3.228,3.228,0,0,0-3.136-3.444,3.325,3.325,0,0,0-3.22,3.528A3.41,3.41,0,0,0,50.974.126,3.989,3.989,0,0,0,53.536-.784ZM50.792-6.062A2.256,2.256,0,0,1,52.934-3.92H48.608A2.282,2.282,0,0,1,50.792-6.062Zm5.04,8.988h1.022V-.854A2.77,2.77,0,0,0,59,.1,3.327,3.327,0,0,0,62.2-3.416a3.3,3.3,0,0,0-3.15-3.5A2.7,2.7,0,0,0,56.84-5.852v-.98H55.832ZM58.8-6.02A2.451,2.451,0,0,1,61.194-3.4,2.451,2.451,0,0,1,58.8-.784a2.4,2.4,0,0,1-1.946-.952V-5.082A2.333,2.333,0,0,1,58.8-6.02Z" transform="translate(511 1801)" fill="#f0f"/>
    <rect id="Rectangle-18" data-name="Rectangle" width="1" height="90" transform="translate(542 1693)" fill="#f0f"/>
    <path id="Path-13" data-name="Path" d="M1.246,0H2.324V-4.41H6.16v-.938H2.324V-8.862H7.938V-9.8H1.246Zm8.792-8.512a.726.726,0,0,0,.728-.742.741.741,0,0,0-.728-.728.744.744,0,0,0-.742.728A.729.729,0,0,0,10.038-8.512Zm.5,1.68H9.52V0h1.022ZM12.782,0H13.8V-5.04A2.014,2.014,0,0,1,15.6-6.09,1.771,1.771,0,0,1,17.43-4.13V0h1.022V-4.424a2.378,2.378,0,0,0-2.478-2.52A2.462,2.462,0,0,0,13.8-5.726V-6.832H12.782Zm8.386-8.512a.726.726,0,0,0,.728-.742.741.741,0,0,0-.728-.728.744.744,0,0,0-.742.728A.729.729,0,0,0,21.168-8.512Zm.5,1.68H20.65V0h1.022Zm1.582,5.95A3.9,3.9,0,0,0,26.026.126c1.512,0,2.66-.924,2.66-2.114C28.686-3,28.07-3.57,26.7-3.822l-1.148-.21c-.882-.154-1.176-.42-1.176-.98,0-.672.588-1.092,1.484-1.092A3.624,3.624,0,0,1,28-5.376l.5-.714a4.417,4.417,0,0,0-2.6-.854c-1.442,0-2.464.826-2.464,2,0,.994.6,1.554,1.932,1.792l1.12.2c.868.168,1.232.462,1.232,1.022C27.72-1.218,26.992-.7,26-.7a3.563,3.563,0,0,1-2.2-.854ZM30.38,0H31.4V-5.04a2.014,2.014,0,0,1,1.792-1.05,1.771,1.771,0,0,1,1.834,1.96V0H36.05V-4.424a2.378,2.378,0,0,0-2.478-2.52A2.462,2.462,0,0,0,31.4-5.726V-10.22l-1.022.21ZM43.89-.784l-.644-.686a2.792,2.792,0,0,1-1.876.7,2.49,2.49,0,0,1-2.436-2.422H44.3V-3.5A3.228,3.228,0,0,0,41.16-6.944a3.325,3.325,0,0,0-3.22,3.528A3.41,3.41,0,0,0,41.328.126,3.989,3.989,0,0,0,43.89-.784ZM41.146-6.062A2.256,2.256,0,0,1,43.288-3.92H38.962A2.282,2.282,0,0,1,41.146-6.062ZM51.226,0h1.022V-10.22l-1.022.21v4.046A2.783,2.783,0,0,0,49.1-6.916,3.327,3.327,0,0,0,45.892-3.4,3.3,3.3,0,0,0,49.042.1,2.692,2.692,0,0,0,51.226-.91ZM46.9-3.416a2.438,2.438,0,0,1,2.394-2.6,2.45,2.45,0,0,1,1.932.924v3.388a2.34,2.34,0,0,1-1.932.91A2.451,2.451,0,0,1,46.9-3.416ZM57.232-.882A3.9,3.9,0,0,0,60,.126c1.512,0,2.66-.924,2.66-2.114,0-1.008-.616-1.582-1.988-1.834l-1.148-.21c-.882-.154-1.176-.42-1.176-.98,0-.672.588-1.092,1.484-1.092a3.624,3.624,0,0,1,2.142.728l.5-.714a4.417,4.417,0,0,0-2.6-.854c-1.442,0-2.464.826-2.464,2,0,.994.6,1.554,1.932,1.792l1.12.2c.868.168,1.232.462,1.232,1.022C61.7-1.218,60.97-.7,59.976-.7a3.563,3.563,0,0,1-2.2-.854Zm7.8-.658c0,1.092.616,1.666,1.792,1.666a3.837,3.837,0,0,0,1.19-.182v-.91a2.454,2.454,0,0,1-.966.182c-.714,0-.994-.294-.994-1.022V-5.992h1.96v-.84h-1.96V-8.946l-1.022.238v1.876H63.616v.84H65.03Zm10.094.756L74.48-1.47a2.792,2.792,0,0,1-1.876.7,2.49,2.49,0,0,1-2.436-2.422H75.53V-3.5a3.228,3.228,0,0,0-3.136-3.444,3.325,3.325,0,0,0-3.22,3.528A3.41,3.41,0,0,0,72.562.126,3.989,3.989,0,0,0,75.124-.784ZM72.38-6.062A2.256,2.256,0,0,1,74.522-3.92H70.2A2.282,2.282,0,0,1,72.38-6.062Zm5.04,8.988h1.022V-.854A2.77,2.77,0,0,0,80.584.1,3.327,3.327,0,0,0,83.79-3.416a3.3,3.3,0,0,0-3.15-3.5,2.7,2.7,0,0,0-2.212,1.064v-.98H77.42ZM80.388-6.02A2.451,2.451,0,0,1,82.782-3.4,2.451,2.451,0,0,1,80.388-.784a2.4,2.4,0,0,1-1.946-.952V-5.082A2.333,2.333,0,0,1,80.388-6.02Z" transform="translate(520 1601)" fill="#f0f"/>
    <rect id="Rectangle-19" data-name="Rectangle" width="1" height="70" transform="translate(562 1513)" fill="#f0f"/>
  </g>
</svg>
