<svg width="564" height="77" viewBox="0 0 564 77" fill="none" xmlns="http://www.w3.org/2000/svg">
<rect x="14" y="13" width="495" height="2" fill="#C7C7C7"/>
<rect x="14" y="13" width="320" height="2" fill="#151515"/>
<circle cx="14" cy="14" r="13" fill="white" stroke="#151515" stroke-width="2"/>
<g clip-path="url(#clip0_2140_4147)">
<path d="M14 6C9.59 6 6 9.59 6 14C6 18.41 9.59 22 14 22C18.41 22 22 18.41 22 14C22 9.59 18.41 6 14 6ZM17.9 12.4L13.575 16.725C13.415 16.885 13.21 16.96 13 16.96C12.79 16.96 12.585 16.88 12.425 16.725L10.1 14.4C9.88 14.18 9.88 13.825 10.1 13.605C10.32 13.385 10.675 13.385 10.895 13.605L12.995 15.71L17.095 11.605C17.315 11.385 17.67 11.385 17.89 11.605C18.11 11.825 18.11 12.18 17.89 12.4H17.9Z" fill="#3D7317"/>
</g>
<path d="M8.592 52.176C7.792 52.176 7.04533 52.032 6.352 51.744C5.66933 51.4453 5.06667 51.0347 4.544 50.512C4.02133 49.9787 3.616 49.3653 3.328 48.672C3.04 47.968 2.896 47.2107 2.896 46.4C2.896 45.5893 3.04 44.8373 3.328 44.144C3.616 43.44 4.02133 42.8267 4.544 42.304C5.06667 41.7707 5.66933 41.36 6.352 41.072C7.04533 40.7733 7.792 40.624 8.592 40.624C9.14667 40.624 9.67467 40.6987 10.176 40.848C10.688 40.9867 11.168 41.1947 11.616 41.472C12.064 41.7387 12.464 42.0693 12.816 42.464L12 43.312C11.584 42.8107 11.072 42.4267 10.464 42.16C9.86667 41.8827 9.24267 41.744 8.592 41.744C7.96267 41.744 7.376 41.8613 6.832 42.096C6.288 42.3307 5.81333 42.6613 5.408 43.088C5.01333 43.5147 4.704 44.0107 4.48 44.576C4.256 45.1307 4.144 45.7387 4.144 46.4C4.144 47.0507 4.256 47.6587 4.48 48.224C4.704 48.7893 5.01333 49.2853 5.408 49.712C5.81333 50.1387 6.288 50.4693 6.832 50.704C7.376 50.9387 7.96267 51.056 8.592 51.056C9.24267 51.056 9.86667 50.9173 10.464 50.64C11.072 50.3627 11.584 49.9787 12 49.488L12.816 50.336C12.464 50.7307 12.064 51.0667 11.616 51.344C11.168 51.6107 10.688 51.8187 10.176 51.968C9.67467 52.1067 9.14667 52.176 8.592 52.176ZM18.031 52.128C17.3057 52.128 16.655 51.952 16.079 51.6C15.503 51.248 15.0497 50.768 14.719 50.16C14.3883 49.552 14.223 48.864 14.223 48.096C14.223 47.328 14.3883 46.64 14.719 46.032C15.0497 45.424 15.503 44.944 16.079 44.592C16.655 44.24 17.3057 44.064 18.031 44.064C18.7457 44.064 19.3857 44.24 19.951 44.592C20.527 44.944 20.9803 45.424 21.311 46.032C21.6417 46.64 21.807 47.328 21.807 48.096C21.807 48.864 21.6417 49.552 21.311 50.16C20.9803 50.768 20.527 51.248 19.951 51.6C19.3857 51.952 18.7457 52.128 18.031 52.128ZM18.015 51.104C18.527 51.104 18.9803 50.976 19.375 50.72C19.7697 50.4533 20.079 50.0907 20.303 49.632C20.5377 49.1733 20.655 48.6613 20.655 48.096C20.655 47.52 20.5377 47.008 20.303 46.56C20.079 46.1013 19.7697 45.744 19.375 45.488C18.9803 45.2213 18.527 45.088 18.015 45.088C17.503 45.088 17.0497 45.2213 16.655 45.488C16.2603 45.744 15.9457 46.1013 15.711 46.56C15.487 47.008 15.375 47.52 15.375 48.096C15.375 48.6613 15.487 49.1733 15.711 49.632C15.9457 50.0907 16.2603 50.4533 16.655 50.72C17.0497 50.976 17.503 51.104 18.015 51.104ZM23.8563 52V44.192H25.0243V45.408C25.3229 44.96 25.6643 44.624 26.0483 44.4C26.4323 44.176 26.8643 44.064 27.3443 44.064C27.8989 44.064 28.3843 44.2027 28.8003 44.48C29.2163 44.7467 29.5309 45.1147 29.7443 45.584C30.0536 45.0827 30.4216 44.704 30.8483 44.448C31.2856 44.192 31.7869 44.064 32.3523 44.064C32.8749 44.064 33.3336 44.1867 33.7283 44.432C34.1336 44.6773 34.4483 45.0187 34.6723 45.456C34.8963 45.8827 35.0083 46.384 35.0083 46.96V52H33.8403V47.248C33.8403 46.5653 33.6696 46.0267 33.3283 45.632C32.9869 45.2373 32.5176 45.04 31.9203 45.04C31.5149 45.04 31.1469 45.1413 30.8163 45.344C30.4963 45.5467 30.2136 45.856 29.9683 46.272C29.9896 46.3787 30.0056 46.4907 30.0163 46.608C30.0269 46.7253 30.0323 46.8427 30.0323 46.96V52H28.8643V47.248C28.8643 46.5653 28.6883 46.0267 28.3363 45.632C27.9949 45.2373 27.5256 45.04 26.9283 45.04C26.1283 45.04 25.4936 45.424 25.0243 46.192V52H23.8563ZM37.3719 55.344V44.192H38.5239V45.312C38.8225 44.9173 39.1852 44.6187 39.6119 44.416C40.0492 44.2027 40.5292 44.096 41.0519 44.096C41.7345 44.096 42.3425 44.2773 42.8759 44.64C43.4199 44.992 43.8519 45.472 44.1719 46.08C44.4919 46.6773 44.6519 47.3493 44.6519 48.096C44.6519 48.8427 44.4865 49.52 44.1559 50.128C43.8359 50.736 43.3985 51.2213 42.8439 51.584C42.2999 51.936 41.6812 52.112 40.9879 52.112C40.4972 52.112 40.0439 52.0213 39.6279 51.84C39.2119 51.648 38.8492 51.376 38.5399 51.024V55.344H37.3719ZM40.7639 51.104C41.2865 51.104 41.7505 50.976 42.1559 50.72C42.5719 50.4533 42.8972 50.096 43.1319 49.648C43.3772 49.1893 43.4999 48.6773 43.4999 48.112C43.4999 47.536 43.3772 47.024 43.1319 46.576C42.8972 46.128 42.5719 45.776 42.1559 45.52C41.7505 45.2533 41.2865 45.12 40.7639 45.12C40.3052 45.12 39.8785 45.216 39.4839 45.408C39.0999 45.5893 38.7852 45.8507 38.5399 46.192V50.016C38.7959 50.3573 39.1159 50.624 39.4999 50.816C39.8945 51.008 40.3159 51.104 40.7639 51.104ZM46.7 52V40.448L47.868 40.208V52H46.7ZM53.7825 52.16C53.0572 52.16 52.4012 51.984 51.8145 51.632C51.2278 51.2693 50.7638 50.784 50.4225 50.176C50.0812 49.5573 49.9105 48.864 49.9105 48.096C49.9105 47.328 50.0705 46.64 50.3905 46.032C50.7212 45.424 51.1638 44.944 51.7185 44.592C52.2732 44.24 52.8918 44.064 53.5745 44.064C54.2678 44.064 54.8812 44.24 55.4145 44.592C55.9585 44.9333 56.3852 45.4027 56.6945 46C57.0145 46.5867 57.1745 47.2533 57.1745 48V48.352H51.0465C51.0892 48.8853 51.2332 49.3653 51.4785 49.792C51.7345 50.208 52.0652 50.5387 52.4705 50.784C52.8865 51.0187 53.3398 51.136 53.8305 51.136C54.2358 51.136 54.6252 51.0667 54.9985 50.928C55.3825 50.7787 55.7078 50.5813 55.9745 50.336L56.7105 51.12C56.2625 51.472 55.7985 51.7333 55.3185 51.904C54.8385 52.0747 54.3265 52.16 53.7825 52.16ZM51.0785 47.52H56.0225C55.9692 47.0507 55.8252 46.6347 55.5905 46.272C55.3665 45.8987 55.0785 45.6053 54.7265 45.392C54.3852 45.1787 54.0012 45.072 53.5745 45.072C53.1478 45.072 52.7585 45.1787 52.4065 45.392C52.0545 45.5947 51.7612 45.8827 51.5265 46.256C51.3025 46.6187 51.1532 47.04 51.0785 47.52ZM61.9104 52.16C61.2384 52.16 60.7264 52 60.3744 51.68C60.033 51.3493 59.8624 50.8747 59.8624 50.256V45.152H58.2464V44.192H59.8624V42.048L61.0304 41.776V44.192H63.2704V45.152H61.0304V49.952C61.0304 50.368 61.1157 50.6667 61.2864 50.848C61.4677 51.0293 61.761 51.12 62.1664 51.12C62.369 51.12 62.5504 51.104 62.7104 51.072C62.8704 51.04 63.057 50.9867 63.2704 50.912V51.952C63.057 52.0267 62.833 52.08 62.5984 52.112C62.3637 52.144 62.1344 52.16 61.9104 52.16ZM68.345 52.16C67.6197 52.16 66.9637 51.984 66.377 51.632C65.7903 51.2693 65.3263 50.784 64.985 50.176C64.6437 49.5573 64.473 48.864 64.473 48.096C64.473 47.328 64.633 46.64 64.953 46.032C65.2837 45.424 65.7263 44.944 66.281 44.592C66.8357 44.24 67.4543 44.064 68.137 44.064C68.8303 44.064 69.4437 44.24 69.977 44.592C70.521 44.9333 70.9477 45.4027 71.257 46C71.577 46.5867 71.737 47.2533 71.737 48V48.352H65.609C65.6517 48.8853 65.7957 49.3653 66.041 49.792C66.297 50.208 66.6277 50.5387 67.033 50.784C67.449 51.0187 67.9023 51.136 68.393 51.136C68.7983 51.136 69.1877 51.0667 69.561 50.928C69.945 50.7787 70.2703 50.5813 70.537 50.336L71.273 51.12C70.825 51.472 70.361 51.7333 69.881 51.904C69.401 52.0747 68.889 52.16 68.345 52.16ZM65.641 47.52H70.585C70.5317 47.0507 70.3877 46.6347 70.153 46.272C69.929 45.8987 69.641 45.6053 69.289 45.392C68.9477 45.1787 68.5637 45.072 68.137 45.072C67.7103 45.072 67.321 45.1787 66.969 45.392C66.617 45.5947 66.3237 45.8827 66.089 46.256C65.865 46.6187 65.7157 47.04 65.641 47.52ZM76.9793 52.112C76.3073 52.112 75.6993 51.936 75.1553 51.584C74.6113 51.2213 74.1793 50.7413 73.8593 50.144C73.5393 49.536 73.3793 48.8587 73.3793 48.112C73.3793 47.3547 73.5393 46.6773 73.8593 46.08C74.1899 45.472 74.6326 44.992 75.1873 44.64C75.7419 44.2773 76.3606 44.096 77.0433 44.096C77.5233 44.096 77.9713 44.192 78.3873 44.384C78.8033 44.5653 79.1659 44.832 79.4753 45.184V40.448L80.6433 40.208V52H79.4753V50.96C79.1766 51.3333 78.8139 51.6213 78.3873 51.824C77.9606 52.016 77.4913 52.112 76.9793 52.112ZM77.2673 51.088C77.7259 51.088 78.1473 50.9973 78.5313 50.816C78.9153 50.6347 79.2299 50.3787 79.4753 50.048V46.176C79.2193 45.8453 78.8939 45.5893 78.4993 45.408C78.1153 45.216 77.7046 45.12 77.2673 45.12C76.7446 45.12 76.2753 45.248 75.8593 45.504C75.4539 45.76 75.1286 46.112 74.8832 46.56C74.6486 47.008 74.5312 47.52 74.5312 48.096C74.5312 48.6613 74.6486 49.1733 74.8832 49.632C75.1286 50.08 75.4539 50.4373 75.8593 50.704C76.2753 50.96 76.7446 51.088 77.2673 51.088Z" fill="#151515"/>
<circle cx="174" cy="14" r="13" fill="white" stroke="#151515" stroke-width="2"/>
<g clip-path="url(#clip1_2140_4147)">
<path d="M174 6C169.59 6 166 9.59 166 14C166 18.41 169.59 22 174 22C178.41 22 182 18.41 182 14C182 9.59 178.41 6 174 6ZM177.9 12.4L173.575 16.725C173.415 16.885 173.21 16.96 173 16.96C172.79 16.96 172.585 16.88 172.425 16.725L170.1 14.4C169.88 14.18 169.88 13.825 170.1 13.605C170.32 13.385 170.675 13.385 170.895 13.605L172.995 15.71L177.095 11.605C177.315 11.385 177.67 11.385 177.89 11.605C178.11 11.825 178.11 12.18 177.89 12.4H177.9Z" fill="#3D7317"/>
</g>
<path d="M168.592 52.176C167.792 52.176 167.045 52.032 166.352 51.744C165.669 51.4453 165.067 51.0347 164.544 50.512C164.021 49.9787 163.616 49.3653 163.328 48.672C163.04 47.968 162.896 47.2107 162.896 46.4C162.896 45.5893 163.04 44.8373 163.328 44.144C163.616 43.44 164.021 42.8267 164.544 42.304C165.067 41.7707 165.669 41.36 166.352 41.072C167.045 40.7733 167.792 40.624 168.592 40.624C169.147 40.624 169.675 40.6987 170.176 40.848C170.688 40.9867 171.168 41.1947 171.616 41.472C172.064 41.7387 172.464 42.0693 172.816 42.464L172 43.312C171.584 42.8107 171.072 42.4267 170.464 42.16C169.867 41.8827 169.243 41.744 168.592 41.744C167.963 41.744 167.376 41.8613 166.832 42.096C166.288 42.3307 165.813 42.6613 165.408 43.088C165.013 43.5147 164.704 44.0107 164.48 44.576C164.256 45.1307 164.144 45.7387 164.144 46.4C164.144 47.0507 164.256 47.6587 164.48 48.224C164.704 48.7893 165.013 49.2853 165.408 49.712C165.813 50.1387 166.288 50.4693 166.832 50.704C167.376 50.9387 167.963 51.056 168.592 51.056C169.243 51.056 169.867 50.9173 170.464 50.64C171.072 50.3627 171.584 49.9787 172 49.488L172.816 50.336C172.464 50.7307 172.064 51.0667 171.616 51.344C171.168 51.6107 170.688 51.8187 170.176 51.968C169.675 52.1067 169.147 52.176 168.592 52.176ZM178.031 52.128C177.306 52.128 176.655 51.952 176.079 51.6C175.503 51.248 175.05 50.768 174.719 50.16C174.388 49.552 174.223 48.864 174.223 48.096C174.223 47.328 174.388 46.64 174.719 46.032C175.05 45.424 175.503 44.944 176.079 44.592C176.655 44.24 177.306 44.064 178.031 44.064C178.746 44.064 179.386 44.24 179.951 44.592C180.527 44.944 180.98 45.424 181.311 46.032C181.642 46.64 181.807 47.328 181.807 48.096C181.807 48.864 181.642 49.552 181.311 50.16C180.98 50.768 180.527 51.248 179.951 51.6C179.386 51.952 178.746 52.128 178.031 52.128ZM178.015 51.104C178.527 51.104 178.98 50.976 179.375 50.72C179.77 50.4533 180.079 50.0907 180.303 49.632C180.538 49.1733 180.655 48.6613 180.655 48.096C180.655 47.52 180.538 47.008 180.303 46.56C180.079 46.1013 179.77 45.744 179.375 45.488C178.98 45.2213 178.527 45.088 178.015 45.088C177.503 45.088 177.05 45.2213 176.655 45.488C176.26 45.744 175.946 46.1013 175.711 46.56C175.487 47.008 175.375 47.52 175.375 48.096C175.375 48.6613 175.487 49.1733 175.711 49.632C175.946 50.0907 176.26 50.4533 176.655 50.72C177.05 50.976 177.503 51.104 178.015 51.104ZM183.856 52V44.192H185.024V45.408C185.323 44.96 185.664 44.624 186.048 44.4C186.432 44.176 186.864 44.064 187.344 44.064C187.899 44.064 188.384 44.2027 188.8 44.48C189.216 44.7467 189.531 45.1147 189.744 45.584C190.054 45.0827 190.422 44.704 190.848 44.448C191.286 44.192 191.787 44.064 192.352 44.064C192.875 44.064 193.334 44.1867 193.728 44.432C194.134 44.6773 194.448 45.0187 194.672 45.456C194.896 45.8827 195.008 46.384 195.008 46.96V52H193.84V47.248C193.84 46.5653 193.67 46.0267 193.328 45.632C192.987 45.2373 192.518 45.04 191.92 45.04C191.515 45.04 191.147 45.1413 190.816 45.344C190.496 45.5467 190.214 45.856 189.968 46.272C189.99 46.3787 190.006 46.4907 190.016 46.608C190.027 46.7253 190.032 46.8427 190.032 46.96V52H188.864V47.248C188.864 46.5653 188.688 46.0267 188.336 45.632C187.995 45.2373 187.526 45.04 186.928 45.04C186.128 45.04 185.494 45.424 185.024 46.192V52H183.856ZM197.372 55.344V44.192H198.524V45.312C198.823 44.9173 199.185 44.6187 199.612 44.416C200.049 44.2027 200.529 44.096 201.052 44.096C201.735 44.096 202.343 44.2773 202.876 44.64C203.42 44.992 203.852 45.472 204.172 46.08C204.492 46.6773 204.652 47.3493 204.652 48.096C204.652 48.8427 204.487 49.52 204.156 50.128C203.836 50.736 203.399 51.2213 202.844 51.584C202.3 51.936 201.681 52.112 200.988 52.112C200.497 52.112 200.044 52.0213 199.628 51.84C199.212 51.648 198.849 51.376 198.54 51.024V55.344H197.372ZM200.764 51.104C201.287 51.104 201.751 50.976 202.156 50.72C202.572 50.4533 202.897 50.096 203.132 49.648C203.377 49.1893 203.5 48.6773 203.5 48.112C203.5 47.536 203.377 47.024 203.132 46.576C202.897 46.128 202.572 45.776 202.156 45.52C201.751 45.2533 201.287 45.12 200.764 45.12C200.305 45.12 199.879 45.216 199.484 45.408C199.1 45.5893 198.785 45.8507 198.54 46.192V50.016C198.796 50.3573 199.116 50.624 199.5 50.816C199.895 51.008 200.316 51.104 200.764 51.104ZM206.7 52V40.448L207.868 40.208V52H206.7ZM213.783 52.16C213.057 52.16 212.401 51.984 211.815 51.632C211.228 51.2693 210.764 50.784 210.423 50.176C210.081 49.5573 209.911 48.864 209.911 48.096C209.911 47.328 210.071 46.64 210.391 46.032C210.721 45.424 211.164 44.944 211.719 44.592C212.273 44.24 212.892 44.064 213.575 44.064C214.268 44.064 214.881 44.24 215.415 44.592C215.959 44.9333 216.385 45.4027 216.695 46C217.015 46.5867 217.175 47.2533 217.175 48V48.352H211.047C211.089 48.8853 211.233 49.3653 211.479 49.792C211.735 50.208 212.065 50.5387 212.471 50.784C212.887 51.0187 213.34 51.136 213.831 51.136C214.236 51.136 214.625 51.0667 214.999 50.928C215.383 50.7787 215.708 50.5813 215.975 50.336L216.711 51.12C216.263 51.472 215.799 51.7333 215.319 51.904C214.839 52.0747 214.327 52.16 213.783 52.16ZM211.079 47.52H216.023C215.969 47.0507 215.825 46.6347 215.591 46.272C215.367 45.8987 215.079 45.6053 214.727 45.392C214.385 45.1787 214.001 45.072 213.575 45.072C213.148 45.072 212.759 45.1787 212.407 45.392C212.055 45.5947 211.761 45.8827 211.527 46.256C211.303 46.6187 211.153 47.04 211.079 47.52ZM221.91 52.16C221.238 52.16 220.726 52 220.374 51.68C220.033 51.3493 219.862 50.8747 219.862 50.256V45.152H218.246V44.192H219.862V42.048L221.03 41.776V44.192H223.27V45.152H221.03V49.952C221.03 50.368 221.116 50.6667 221.286 50.848C221.468 51.0293 221.761 51.12 222.166 51.12C222.369 51.12 222.55 51.104 222.71 51.072C222.87 51.04 223.057 50.9867 223.27 50.912V51.952C223.057 52.0267 222.833 52.08 222.598 52.112C222.364 52.144 222.134 52.16 221.91 52.16ZM228.345 52.16C227.62 52.16 226.964 51.984 226.377 51.632C225.79 51.2693 225.326 50.784 224.985 50.176C224.644 49.5573 224.473 48.864 224.473 48.096C224.473 47.328 224.633 46.64 224.953 46.032C225.284 45.424 225.726 44.944 226.281 44.592C226.836 44.24 227.454 44.064 228.137 44.064C228.83 44.064 229.444 44.24 229.977 44.592C230.521 44.9333 230.948 45.4027 231.257 46C231.577 46.5867 231.737 47.2533 231.737 48V48.352H225.609C225.652 48.8853 225.796 49.3653 226.041 49.792C226.297 50.208 226.628 50.5387 227.033 50.784C227.449 51.0187 227.902 51.136 228.393 51.136C228.798 51.136 229.188 51.0667 229.561 50.928C229.945 50.7787 230.27 50.5813 230.537 50.336L231.273 51.12C230.825 51.472 230.361 51.7333 229.881 51.904C229.401 52.0747 228.889 52.16 228.345 52.16ZM225.641 47.52H230.585C230.532 47.0507 230.388 46.6347 230.153 46.272C229.929 45.8987 229.641 45.6053 229.289 45.392C228.948 45.1787 228.564 45.072 228.137 45.072C227.71 45.072 227.321 45.1787 226.969 45.392C226.617 45.5947 226.324 45.8827 226.089 46.256C225.865 46.6187 225.716 47.04 225.641 47.52ZM236.979 52.112C236.307 52.112 235.699 51.936 235.155 51.584C234.611 51.2213 234.179 50.7413 233.859 50.144C233.539 49.536 233.379 48.8587 233.379 48.112C233.379 47.3547 233.539 46.6773 233.859 46.08C234.19 45.472 234.633 44.992 235.187 44.64C235.742 44.2773 236.361 44.096 237.043 44.096C237.523 44.096 237.971 44.192 238.387 44.384C238.803 44.5653 239.166 44.832 239.475 45.184V40.448L240.643 40.208V52H239.475V50.96C239.177 51.3333 238.814 51.6213 238.387 51.824C237.961 52.016 237.491 52.112 236.979 52.112ZM237.267 51.088C237.726 51.088 238.147 50.9973 238.531 50.816C238.915 50.6347 239.23 50.3787 239.475 50.048V46.176C239.219 45.8453 238.894 45.5893 238.499 45.408C238.115 45.216 237.705 45.12 237.267 45.12C236.745 45.12 236.275 45.248 235.859 45.504C235.454 45.76 235.129 46.112 234.883 46.56C234.649 47.008 234.531 47.52 234.531 48.096C234.531 48.6613 234.649 49.1733 234.883 49.632C235.129 50.08 235.454 50.4373 235.859 50.704C236.275 50.96 236.745 51.088 237.267 51.088Z" fill="#151515"/>
<circle cx="334" cy="14" r="13" fill="white" stroke="#151515" stroke-width="2"/>
<g clip-path="url(#clip2_2140_4147)">
<path d="M334 19.5C337.038 19.5 339.5 17.0376 339.5 14C339.5 10.9624 337.038 8.5 334 8.5C330.962 8.5 328.5 10.9624 328.5 14C328.5 17.0376 330.962 19.5 334 19.5Z" fill="#5E40BE"/>
<path d="M334 6C329.59 6 326 9.59 326 14C326 18.41 329.59 22 334 22C338.41 22 342 18.41 342 14C342 9.59 338.41 6 334 6ZM334 21C330.14 21 327 17.86 327 14C327 10.14 330.14 7 334 7C337.86 7 341 10.14 341 14C341 17.86 337.86 21 334 21Z" fill="#5E40BE"/>
</g>
<path d="M328.608 52.176C327.797 52.176 327.04 52.032 326.336 51.744C325.632 51.4453 325.013 51.0347 324.48 50.512C323.957 49.9787 323.547 49.3653 323.248 48.672C322.96 47.968 322.816 47.2107 322.816 46.4C322.816 45.5893 322.96 44.8373 323.248 44.144C323.547 43.44 323.957 42.8267 324.48 42.304C325.013 41.7707 325.632 41.36 326.336 41.072C327.04 40.7733 327.797 40.624 328.608 40.624C329.184 40.624 329.739 40.704 330.272 40.864C330.805 41.024 331.301 41.2533 331.76 41.552C332.229 41.84 332.635 42.1973 332.976 42.624L331.696 43.872C331.301 43.3707 330.837 42.992 330.304 42.736C329.771 42.48 329.205 42.352 328.608 42.352C328.064 42.352 327.557 42.4533 327.088 42.656C326.629 42.8587 326.224 43.1467 325.872 43.52C325.531 43.8827 325.264 44.3093 325.072 44.8C324.88 45.2907 324.784 45.824 324.784 46.4C324.784 46.976 324.88 47.5093 325.072 48C325.264 48.4907 325.531 48.9227 325.872 49.296C326.224 49.6587 326.629 49.9413 327.088 50.144C327.557 50.3467 328.064 50.448 328.608 50.448C329.205 50.448 329.771 50.32 330.304 50.064C330.837 49.7973 331.301 49.4187 331.696 48.928L332.976 50.176C332.635 50.592 332.229 50.9493 331.76 51.248C331.301 51.5467 330.805 51.776 330.272 51.936C329.739 52.096 329.184 52.176 328.608 52.176ZM337.184 52.128C336.629 52.128 336.144 52.0053 335.728 51.76C335.312 51.5147 334.981 51.1787 334.736 50.752C334.501 50.3253 334.384 49.8293 334.384 49.264V43.984H336.208V48.736C336.208 49.3333 336.363 49.808 336.672 50.16C336.992 50.5013 337.424 50.672 337.968 50.672C338.331 50.672 338.656 50.592 338.944 50.432C339.243 50.272 339.499 50.032 339.712 49.712V43.984H341.52V52H339.712V50.704C339.403 51.1733 339.035 51.5307 338.608 51.776C338.181 52.0107 337.707 52.128 337.184 52.128ZM343.761 52V43.984H345.569V45.712C345.803 45.104 346.107 44.64 346.481 44.32C346.854 44 347.286 43.84 347.777 43.84C347.926 43.8507 348.059 43.8667 348.177 43.888C348.294 43.8987 348.422 43.936 348.561 44V45.584C348.422 45.52 348.262 45.472 348.081 45.44C347.91 45.408 347.739 45.392 347.569 45.392C347.131 45.392 346.737 45.5093 346.385 45.744C346.043 45.9787 345.771 46.304 345.569 46.72V52H343.761ZM350.042 52V43.984H351.85V45.712C352.085 45.104 352.389 44.64 352.762 44.32C353.135 44 353.567 43.84 354.058 43.84C354.207 43.8507 354.341 43.8667 354.458 43.888C354.575 43.8987 354.703 43.936 354.842 44V45.584C354.703 45.52 354.543 45.472 354.362 45.44C354.191 45.408 354.021 45.392 353.85 45.392C353.413 45.392 353.018 45.5093 352.666 45.744C352.325 45.9787 352.053 46.304 351.85 46.72V52H350.042ZM359.676 52.16C358.908 52.16 358.215 51.9787 357.596 51.616C356.977 51.2427 356.487 50.7467 356.124 50.128C355.761 49.4987 355.58 48.7893 355.58 48C355.58 47.2107 355.751 46.5067 356.092 45.888C356.433 45.2693 356.897 44.7787 357.484 44.416C358.081 44.0427 358.743 43.856 359.468 43.856C360.215 43.856 360.871 44.0373 361.436 44.4C362.012 44.7627 362.46 45.2533 362.78 45.872C363.111 46.4907 363.276 47.2 363.276 48V48.432H357.356C357.42 48.8693 357.559 49.2587 357.772 49.6C357.996 49.9307 358.279 50.192 358.62 50.384C358.972 50.576 359.351 50.672 359.756 50.672C360.129 50.672 360.481 50.608 360.812 50.48C361.153 50.3413 361.436 50.1547 361.66 49.92L362.844 50.992C362.353 51.3973 361.852 51.696 361.34 51.888C360.839 52.0693 360.284 52.16 359.676 52.16ZM357.372 47.312H361.564C361.5 46.928 361.367 46.5867 361.164 46.288C360.972 45.9893 360.727 45.7547 360.428 45.584C360.14 45.4133 359.82 45.328 359.468 45.328C359.116 45.328 358.791 45.4133 358.492 45.584C358.204 45.744 357.964 45.9733 357.772 46.272C357.58 46.5707 357.447 46.9173 357.372 47.312ZM365.12 52V43.984H366.928V45.296C367.237 44.816 367.605 44.4587 368.032 44.224C368.459 43.9787 368.933 43.856 369.456 43.856C370.011 43.856 370.496 43.9787 370.912 44.224C371.328 44.4587 371.653 44.7893 371.888 45.216C372.133 45.6427 372.256 46.144 372.256 46.72V52H370.432V47.232C370.432 46.6453 370.272 46.1813 369.952 45.84C369.632 45.488 369.205 45.312 368.672 45.312C368.309 45.312 367.979 45.3973 367.68 45.568C367.392 45.728 367.141 45.968 366.928 46.288V52H365.12ZM377.654 52.16C376.843 52.16 376.23 51.9733 375.814 51.6C375.398 51.216 375.19 50.656 375.19 49.92V45.424H373.59V43.984H375.19V41.776L376.998 41.392V43.984H379.222V45.424H376.998V49.52C376.998 49.9147 377.083 50.1973 377.254 50.368C377.425 50.528 377.713 50.608 378.118 50.608C378.299 50.608 378.465 50.5973 378.614 50.576C378.774 50.544 378.971 50.4907 379.206 50.416V51.936C378.982 52.0107 378.726 52.064 378.438 52.096C378.161 52.1387 377.899 52.16 377.654 52.16ZM387.137 52.16C386.454 52.16 385.814 52.0693 385.217 51.888C384.63 51.696 384.124 51.424 383.697 51.072L384.545 49.872C385.078 50.2027 385.537 50.4373 385.921 50.576C386.316 50.7147 386.716 50.784 387.121 50.784C387.601 50.784 387.99 50.6827 388.289 50.48C388.588 50.2773 388.737 50.016 388.737 49.696C388.737 49.4507 388.646 49.2587 388.465 49.12C388.294 48.9707 388.012 48.8587 387.617 48.784L386.209 48.544C385.43 48.3947 384.849 48.1387 384.465 47.776C384.081 47.4133 383.889 46.9333 383.889 46.336C383.889 45.8347 384.017 45.4027 384.273 45.04C384.54 44.6667 384.902 44.3787 385.361 44.176C385.83 43.9627 386.374 43.856 386.993 43.856C387.548 43.856 388.086 43.936 388.609 44.096C389.132 44.256 389.644 44.496 390.145 44.816L389.297 46.016C388.892 45.7493 388.486 45.5573 388.081 45.44C387.686 45.312 387.286 45.248 386.881 45.248C386.465 45.248 386.129 45.3333 385.873 45.504C385.628 45.664 385.505 45.888 385.505 46.176C385.505 46.432 385.585 46.6293 385.745 46.768C385.916 46.896 386.209 46.992 386.625 47.056L388.049 47.328C388.849 47.4667 389.441 47.7227 389.825 48.096C390.22 48.4587 390.417 48.944 390.417 49.552C390.417 50.0427 390.273 50.4853 389.985 50.88C389.697 51.2747 389.308 51.5893 388.817 51.824C388.326 52.048 387.766 52.16 387.137 52.16ZM395.373 52.16C394.562 52.16 393.949 51.9733 393.533 51.6C393.117 51.216 392.909 50.656 392.909 49.92V45.424H391.309V43.984H392.909V41.776L394.717 41.392V43.984H396.941V45.424H394.717V49.52C394.717 49.9147 394.802 50.1973 394.973 50.368C395.144 50.528 395.432 50.608 395.837 50.608C396.018 50.608 396.184 50.5973 396.333 50.576C396.493 50.544 396.69 50.4907 396.925 50.416V51.936C396.701 52.0107 396.445 52.064 396.157 52.096C395.88 52.1387 395.618 52.16 395.373 52.16ZM402.145 52.16C401.377 52.16 400.684 51.9787 400.065 51.616C399.446 51.2427 398.956 50.7467 398.593 50.128C398.23 49.4987 398.049 48.7893 398.049 48C398.049 47.2107 398.22 46.5067 398.561 45.888C398.902 45.2693 399.366 44.7787 399.953 44.416C400.55 44.0427 401.212 43.856 401.937 43.856C402.684 43.856 403.34 44.0373 403.905 44.4C404.481 44.7627 404.929 45.2533 405.249 45.872C405.58 46.4907 405.745 47.2 405.745 48V48.432H399.825C399.889 48.8693 400.028 49.2587 400.241 49.6C400.465 49.9307 400.748 50.192 401.089 50.384C401.441 50.576 401.82 50.672 402.225 50.672C402.598 50.672 402.95 50.608 403.281 50.48C403.622 50.3413 403.905 50.1547 404.129 49.92L405.313 50.992C404.822 51.3973 404.321 51.696 403.809 51.888C403.308 52.0693 402.753 52.16 402.145 52.16ZM399.841 47.312H404.033C403.969 46.928 403.836 46.5867 403.633 46.288C403.441 45.9893 403.196 45.7547 402.897 45.584C402.609 45.4133 402.289 45.328 401.937 45.328C401.585 45.328 401.26 45.4133 400.961 45.584C400.673 45.744 400.433 45.9733 400.241 46.272C400.049 46.5707 399.916 46.9173 399.841 47.312ZM407.589 55.344V43.984H409.365V45.12C409.653 44.736 410.01 44.4427 410.437 44.24C410.874 44.0267 411.349 43.92 411.861 43.92C412.543 43.92 413.157 44.1013 413.701 44.464C414.245 44.8267 414.677 45.3173 414.997 45.936C415.317 46.5547 415.477 47.2427 415.477 48C415.477 48.7573 415.311 49.4453 414.981 50.064C414.65 50.6827 414.202 51.1733 413.637 51.536C413.071 51.8987 412.442 52.08 411.749 52.08C411.269 52.08 410.826 51.9947 410.421 51.824C410.026 51.6427 409.685 51.3867 409.397 51.056V55.344H407.589ZM411.317 50.576C411.775 50.576 412.181 50.464 412.533 50.24C412.895 50.016 413.178 49.712 413.381 49.328C413.594 48.9333 413.701 48.4907 413.701 48C413.701 47.5093 413.594 47.072 413.381 46.688C413.178 46.304 412.895 46 412.533 45.776C412.181 45.552 411.775 45.44 411.317 45.44C410.922 45.44 410.559 45.52 410.229 45.68C409.898 45.8293 409.621 46.048 409.397 46.336V49.68C409.631 49.9573 409.914 50.176 410.245 50.336C410.575 50.496 410.933 50.576 411.317 50.576Z" fill="#151515"/>
<circle cx="509" cy="14" r="13" fill="white" stroke="#C7C7C7" stroke-width="2"/>
<path d="M498.424 52V40.8H499.656V50.912H505.976V52H498.424ZM510.335 52.144C509.78 52.144 509.289 52.0427 508.863 51.84C508.436 51.6373 508.1 51.36 507.855 51.008C507.62 50.6453 507.503 50.2293 507.503 49.76C507.503 49.2907 507.625 48.8853 507.871 48.544C508.116 48.192 508.457 47.92 508.895 47.728C509.332 47.536 509.844 47.44 510.431 47.44C510.879 47.44 511.3 47.488 511.695 47.584C512.1 47.68 512.473 47.8347 512.815 48.048V46.976C512.815 46.336 512.644 45.856 512.303 45.536C511.961 45.2053 511.46 45.04 510.799 45.04C510.436 45.04 510.063 45.0933 509.679 45.2C509.305 45.3067 508.889 45.4773 508.431 45.712L507.999 44.816C509.044 44.3147 510.025 44.064 510.943 44.064C511.913 44.064 512.66 44.304 513.183 44.784C513.705 45.2533 513.967 45.9307 513.967 46.816V52H512.815V51.088C512.473 51.44 512.095 51.7067 511.679 51.888C511.263 52.0587 510.815 52.144 510.335 52.144ZM508.623 49.728C508.623 50.1867 508.799 50.5547 509.151 50.832C509.513 51.1093 509.988 51.248 510.575 51.248C511.012 51.248 511.412 51.1733 511.775 51.024C512.148 50.8747 512.495 50.6507 512.815 50.352V48.848C512.484 48.656 512.143 48.5173 511.791 48.432C511.439 48.336 511.044 48.288 510.607 48.288C510.009 48.288 509.529 48.4213 509.167 48.688C508.804 48.944 508.623 49.2907 508.623 49.728ZM518.757 52.16C518.117 52.16 517.525 52.064 516.981 51.872C516.437 51.6693 515.973 51.3813 515.589 51.008L516.213 50.24C516.682 50.5813 517.114 50.832 517.509 50.992C517.903 51.1413 518.309 51.216 518.725 51.216C519.29 51.216 519.759 51.0827 520.133 50.816C520.506 50.5493 520.693 50.208 520.693 49.792C520.693 49.472 520.581 49.2213 520.357 49.04C520.143 48.8587 519.786 48.72 519.285 48.624L518.005 48.4C517.247 48.2613 516.687 48.0267 516.325 47.696C515.973 47.3653 515.797 46.9173 515.797 46.352C515.797 45.904 515.914 45.5093 516.149 45.168C516.394 44.8267 516.73 44.56 517.157 44.368C517.583 44.1653 518.069 44.064 518.613 44.064C519.146 44.064 519.653 44.144 520.133 44.304C520.613 44.4533 521.098 44.6987 521.589 45.04L521.013 45.856C520.607 45.568 520.202 45.36 519.797 45.232C519.391 45.0933 518.981 45.024 518.565 45.024C518.053 45.024 517.642 45.136 517.333 45.36C517.023 45.584 516.869 45.888 516.869 46.272C516.869 46.592 516.965 46.8373 517.157 47.008C517.359 47.1787 517.711 47.3067 518.213 47.392L519.525 47.632C520.314 47.7707 520.89 48.0107 521.253 48.352C521.615 48.6933 521.797 49.152 521.797 49.728C521.797 50.1867 521.663 50.6027 521.397 50.976C521.13 51.3387 520.767 51.6267 520.309 51.84C519.85 52.0533 519.333 52.16 518.757 52.16ZM526.395 52.16C525.723 52.16 525.211 52 524.859 51.68C524.517 51.3493 524.347 50.8747 524.347 50.256V45.152H522.731V44.192H524.347V42.048L525.515 41.776V44.192H527.755V45.152H525.515V49.952C525.515 50.368 525.6 50.6667 525.771 50.848C525.952 51.0293 526.245 51.12 526.651 51.12C526.853 51.12 527.035 51.104 527.195 51.072C527.355 51.04 527.541 50.9867 527.755 50.912V51.952C527.541 52.0267 527.317 52.08 527.083 52.112C526.848 52.144 526.619 52.16 526.395 52.16ZM535.616 52.16C534.976 52.16 534.384 52.064 533.84 51.872C533.296 51.6693 532.832 51.3813 532.448 51.008L533.072 50.24C533.541 50.5813 533.973 50.832 534.368 50.992C534.763 51.1413 535.168 51.216 535.584 51.216C536.149 51.216 536.619 51.0827 536.992 50.816C537.365 50.5493 537.552 50.208 537.552 49.792C537.552 49.472 537.44 49.2213 537.216 49.04C537.003 48.8587 536.645 48.72 536.144 48.624L534.864 48.4C534.107 48.2613 533.547 48.0267 533.184 47.696C532.832 47.3653 532.656 46.9173 532.656 46.352C532.656 45.904 532.773 45.5093 533.008 45.168C533.253 44.8267 533.589 44.56 534.016 44.368C534.443 44.1653 534.928 44.064 535.472 44.064C536.005 44.064 536.512 44.144 536.992 44.304C537.472 44.4533 537.957 44.6987 538.448 45.04L537.872 45.856C537.467 45.568 537.061 45.36 536.656 45.232C536.251 45.0933 535.84 45.024 535.424 45.024C534.912 45.024 534.501 45.136 534.192 45.36C533.883 45.584 533.728 45.888 533.728 46.272C533.728 46.592 533.824 46.8373 534.016 47.008C534.219 47.1787 534.571 47.3067 535.072 47.392L536.384 47.632C537.173 47.7707 537.749 48.0107 538.112 48.352C538.475 48.6933 538.656 49.152 538.656 49.728C538.656 50.1867 538.523 50.6027 538.256 50.976C537.989 51.3387 537.627 51.6267 537.168 51.84C536.709 52.0533 536.192 52.16 535.616 52.16ZM543.254 52.16C542.582 52.16 542.07 52 541.718 51.68C541.377 51.3493 541.206 50.8747 541.206 50.256V45.152H539.59V44.192H541.206V42.048L542.374 41.776V44.192H544.614V45.152H542.374V49.952C542.374 50.368 542.459 50.6667 542.63 50.848C542.811 51.0293 543.105 51.12 543.51 51.12C543.713 51.12 543.894 51.104 544.054 51.072C544.214 51.04 544.401 50.9867 544.614 50.912V51.952C544.401 52.0267 544.177 52.08 543.942 52.112C543.707 52.144 543.478 52.16 543.254 52.16ZM549.689 52.16C548.963 52.16 548.307 51.984 547.721 51.632C547.134 51.2693 546.67 50.784 546.329 50.176C545.987 49.5573 545.817 48.864 545.817 48.096C545.817 47.328 545.977 46.64 546.297 46.032C546.627 45.424 547.07 44.944 547.625 44.592C548.179 44.24 548.798 44.064 549.481 44.064C550.174 44.064 550.787 44.24 551.321 44.592C551.865 44.9333 552.291 45.4027 552.601 46C552.921 46.5867 553.081 47.2533 553.081 48V48.352H546.953C546.995 48.8853 547.139 49.3653 547.385 49.792C547.641 50.208 547.971 50.5387 548.377 50.784C548.793 51.0187 549.246 51.136 549.737 51.136C550.142 51.136 550.531 51.0667 550.905 50.928C551.289 50.7787 551.614 50.5813 551.881 50.336L552.617 51.12C552.169 51.472 551.705 51.7333 551.225 51.904C550.745 52.0747 550.233 52.16 549.689 52.16ZM546.985 47.52H551.929C551.875 47.0507 551.731 46.6347 551.497 46.272C551.273 45.8987 550.985 45.6053 550.633 45.392C550.291 45.1787 549.907 45.072 549.481 45.072C549.054 45.072 548.665 45.1787 548.313 45.392C547.961 45.5947 547.667 45.8827 547.433 46.256C547.209 46.6187 547.059 47.04 546.985 47.52ZM555.075 55.344V44.192H556.227V45.312C556.526 44.9173 556.888 44.6187 557.315 44.416C557.752 44.2027 558.232 44.096 558.755 44.096C559.438 44.096 560.046 44.2773 560.579 44.64C561.123 44.992 561.555 45.472 561.875 46.08C562.195 46.6773 562.355 47.3493 562.355 48.096C562.355 48.8427 562.19 49.52 561.859 50.128C561.539 50.736 561.102 51.2213 560.547 51.584C560.003 51.936 559.384 52.112 558.691 52.112C558.2 52.112 557.747 52.0213 557.331 51.84C556.915 51.648 556.552 51.376 556.243 51.024V55.344H555.075ZM558.467 51.104C558.99 51.104 559.454 50.976 559.859 50.72C560.275 50.4533 560.6 50.096 560.835 49.648C561.08 49.1893 561.203 48.6773 561.203 48.112C561.203 47.536 561.08 47.024 560.835 46.576C560.6 46.128 560.275 45.776 559.859 45.52C559.454 45.2533 558.99 45.12 558.467 45.12C558.008 45.12 557.582 45.216 557.187 45.408C556.803 45.5893 556.488 45.8507 556.243 46.192V50.016C556.499 50.3573 556.819 50.624 557.203 50.816C557.598 51.008 558.019 51.104 558.467 51.104Z" fill="#4D4D4D"/>
<path d="M2.75 59.5H82" stroke="#707070" stroke-linecap="square" stroke-dasharray="3 3"/>
<path d="M162 58.5H242" stroke="#707070" stroke-linecap="square" stroke-dasharray="3 3"/>
<path d="M322 58.5H416" stroke="#707070" stroke-linecap="square" stroke-dasharray="3 3"/>
<g filter="url(#filter0_d_2140_4147)">
<path d="M44.5 68V51L56.5 63H49.5L44.5 68Z" fill="#151515"/>
<path d="M57.707 63.5H49.707L44 69.207V49.793L57.707 63.5Z" stroke="white"/>
</g>
<defs>
<filter id="filter0_d_2140_4147" x="39.5" y="46.5859" width="23.4143" height="29.8281" filterUnits="userSpaceOnUse" color-interpolation-filters="sRGB">
<feFlood flood-opacity="0" result="BackgroundImageFix"/>
<feColorMatrix in="SourceAlpha" type="matrix" values="0 0 0 0 0 0 0 0 0 0 0 0 0 0 0 0 0 0 127 0" result="hardAlpha"/>
<feOffset dy="2"/>
<feGaussianBlur stdDeviation="2"/>
<feComposite in2="hardAlpha" operator="out"/>
<feColorMatrix type="matrix" values="0 0 0 0 0.0823529 0 0 0 0 0.0823529 0 0 0 0 0.0823529 0 0 0 0.2 0"/>
<feBlend mode="normal" in2="BackgroundImageFix" result="effect1_dropShadow_2140_4147"/>
<feBlend mode="normal" in="SourceGraphic" in2="effect1_dropShadow_2140_4147" result="shape"/>
</filter>
<clipPath id="clip0_2140_4147">
<rect width="16" height="16" fill="white" transform="translate(6 6)"/>
</clipPath>
<clipPath id="clip1_2140_4147">
<rect width="16" height="16" fill="white" transform="translate(166 6)"/>
</clipPath>
<clipPath id="clip2_2140_4147">
<rect width="16" height="16" fill="white" transform="translate(326 6)"/>
</clipPath>
</defs>
</svg>
