<svg width="566" height="91" viewBox="0 0 566 91" fill="none" xmlns="http://www.w3.org/2000/svg">
<rect x="16" y="12.9951" width="495" height="2" fill="#C7C7C7"/>
<rect x="16" y="12.9951" width="320" height="2" fill="#151515"/>
<circle cx="16" cy="13.9951" r="13" fill="white" stroke="#151515" stroke-width="2"/>
<g clip-path="url(#clip0_2159_4629)">
<path d="M16 5.99512C11.59 5.99512 8 9.58512 8 13.9951C8 18.4051 11.59 21.9951 16 21.9951C20.41 21.9951 24 18.4051 24 13.9951C24 9.58512 20.41 5.99512 16 5.99512ZM19.9 12.3951L15.575 16.7201C15.415 16.8801 15.21 16.9551 15 16.9551C14.79 16.9551 14.585 16.8751 14.425 16.7201L12.1 14.3951C11.88 14.1751 11.88 13.8201 12.1 13.6001C12.32 13.3801 12.675 13.3801 12.895 13.6001L14.995 15.7051L19.095 11.6001C19.315 11.3801 19.67 11.3801 19.89 11.6001C20.11 11.8201 20.11 12.1751 19.89 12.3951H19.9Z" fill="#3D7317"/>
</g>
<path d="M10.592 52.1711C9.792 52.1711 9.04533 52.0271 8.352 51.7391C7.66933 51.4405 7.06667 51.0298 6.544 50.5071C6.02133 49.9738 5.616 49.3605 5.328 48.6671C5.04 47.9631 4.896 47.2058 4.896 46.3951C4.896 45.5845 5.04 44.8325 5.328 44.1391C5.616 43.4351 6.02133 42.8218 6.544 42.2991C7.06667 41.7658 7.66933 41.3551 8.352 41.0671C9.04533 40.7685 9.792 40.6191 10.592 40.6191C11.1467 40.6191 11.6747 40.6938 12.176 40.8431C12.688 40.9818 13.168 41.1898 13.616 41.4671C14.064 41.7338 14.464 42.0645 14.816 42.4591L14 43.3071C13.584 42.8058 13.072 42.4218 12.464 42.1551C11.8667 41.8778 11.2427 41.7391 10.592 41.7391C9.96267 41.7391 9.376 41.8565 8.832 42.0911C8.288 42.3258 7.81333 42.6565 7.408 43.0831C7.01333 43.5098 6.704 44.0058 6.48 44.5711C6.256 45.1258 6.144 45.7338 6.144 46.3951C6.144 47.0458 6.256 47.6538 6.48 48.2191C6.704 48.7845 7.01333 49.2805 7.408 49.7071C7.81333 50.1338 8.288 50.4645 8.832 50.6991C9.376 50.9338 9.96267 51.0511 10.592 51.0511C11.2427 51.0511 11.8667 50.9125 12.464 50.6351C13.072 50.3578 13.584 49.9738 14 49.4831L14.816 50.3311C14.464 50.7258 14.064 51.0618 13.616 51.3391C13.168 51.6058 12.688 51.8138 12.176 51.9631C11.6747 52.1018 11.1467 52.1711 10.592 52.1711ZM20.031 52.1231C19.3057 52.1231 18.655 51.9471 18.079 51.5951C17.503 51.2431 17.0497 50.7631 16.719 50.1551C16.3883 49.5471 16.223 48.8591 16.223 48.0911C16.223 47.3231 16.3883 46.6351 16.719 46.0271C17.0497 45.4191 17.503 44.9391 18.079 44.5871C18.655 44.2351 19.3057 44.0591 20.031 44.0591C20.7457 44.0591 21.3857 44.2351 21.951 44.5871C22.527 44.9391 22.9803 45.4191 23.311 46.0271C23.6417 46.6351 23.807 47.3231 23.807 48.0911C23.807 48.8591 23.6417 49.5471 23.311 50.1551C22.9803 50.7631 22.527 51.2431 21.951 51.5951C21.3857 51.9471 20.7457 52.1231 20.031 52.1231ZM20.015 51.0991C20.527 51.0991 20.9803 50.9711 21.375 50.7151C21.7697 50.4485 22.079 50.0858 22.303 49.6271C22.5377 49.1685 22.655 48.6565 22.655 48.0911C22.655 47.5151 22.5377 47.0031 22.303 46.5551C22.079 46.0965 21.7697 45.7391 21.375 45.4831C20.9803 45.2165 20.527 45.0831 20.015 45.0831C19.503 45.0831 19.0497 45.2165 18.655 45.4831C18.2603 45.7391 17.9457 46.0965 17.711 46.5551C17.487 47.0031 17.375 47.5151 17.375 48.0911C17.375 48.6565 17.487 49.1685 17.711 49.6271C17.9457 50.0858 18.2603 50.4485 18.655 50.7151C19.0497 50.9711 19.503 51.0991 20.015 51.0991ZM25.8563 51.9951V44.1871H27.0243V45.4031C27.3229 44.9551 27.6643 44.6191 28.0483 44.3951C28.4323 44.1711 28.8643 44.0591 29.3443 44.0591C29.8989 44.0591 30.3843 44.1978 30.8003 44.4751C31.2163 44.7418 31.5309 45.1098 31.7443 45.5791C32.0536 45.0778 32.4216 44.6991 32.8483 44.4431C33.2856 44.1871 33.7869 44.0591 34.3523 44.0591C34.8749 44.0591 35.3336 44.1818 35.7283 44.4271C36.1336 44.6725 36.4483 45.0138 36.6723 45.4511C36.8963 45.8778 37.0083 46.3791 37.0083 46.9551V51.9951H35.8403V47.2431C35.8403 46.5605 35.6696 46.0218 35.3283 45.6271C34.9869 45.2325 34.5176 45.0351 33.9203 45.0351C33.5149 45.0351 33.1469 45.1365 32.8163 45.3391C32.4963 45.5418 32.2136 45.8511 31.9683 46.2671C31.9896 46.3738 32.0056 46.4858 32.0163 46.6031C32.0269 46.7205 32.0323 46.8378 32.0323 46.9551V51.9951H30.8643V47.2431C30.8643 46.5605 30.6883 46.0218 30.3363 45.6271C29.9949 45.2325 29.5256 45.0351 28.9283 45.0351C28.1283 45.0351 27.4936 45.4191 27.0243 46.1871V51.9951H25.8563ZM39.3719 55.3391V44.1871H40.5239V45.3071C40.8225 44.9125 41.1852 44.6138 41.6119 44.4111C42.0492 44.1978 42.5292 44.0911 43.0519 44.0911C43.7345 44.0911 44.3425 44.2725 44.8759 44.6351C45.4199 44.9871 45.8519 45.4671 46.1719 46.0751C46.4919 46.6725 46.6519 47.3445 46.6519 48.0911C46.6519 48.8378 46.4865 49.5151 46.1559 50.1231C45.8359 50.7311 45.3985 51.2165 44.8439 51.5791C44.2999 51.9311 43.6812 52.1071 42.9879 52.1071C42.4972 52.1071 42.0439 52.0165 41.6279 51.8351C41.2119 51.6431 40.8492 51.3711 40.5399 51.0191V55.3391H39.3719ZM42.7639 51.0991C43.2865 51.0991 43.7505 50.9711 44.1559 50.7151C44.5719 50.4485 44.8972 50.0911 45.1319 49.6431C45.3772 49.1845 45.4999 48.6725 45.4999 48.1071C45.4999 47.5311 45.3772 47.0191 45.1319 46.5711C44.8972 46.1231 44.5719 45.7711 44.1559 45.5151C43.7505 45.2485 43.2865 45.1151 42.7639 45.1151C42.3052 45.1151 41.8785 45.2111 41.4839 45.4031C41.0999 45.5845 40.7852 45.8458 40.5399 46.1871V50.0111C40.7959 50.3525 41.1159 50.6191 41.4999 50.8111C41.8945 51.0031 42.3159 51.0991 42.7639 51.0991ZM48.7 51.9951V40.4431L49.868 40.2031V51.9951H48.7ZM55.7825 52.1551C55.0572 52.1551 54.4012 51.9791 53.8145 51.6271C53.2278 51.2645 52.7638 50.7791 52.4225 50.1711C52.0812 49.5525 51.9105 48.8591 51.9105 48.0911C51.9105 47.3231 52.0705 46.6351 52.3905 46.0271C52.7212 45.4191 53.1638 44.9391 53.7185 44.5871C54.2732 44.2351 54.8918 44.0591 55.5745 44.0591C56.2678 44.0591 56.8812 44.2351 57.4145 44.5871C57.9585 44.9285 58.3852 45.3978 58.6945 45.9951C59.0145 46.5818 59.1745 47.2485 59.1745 47.9951V48.3471H53.0465C53.0892 48.8805 53.2332 49.3605 53.4785 49.7871C53.7345 50.2031 54.0652 50.5338 54.4705 50.7791C54.8865 51.0138 55.3398 51.1311 55.8305 51.1311C56.2358 51.1311 56.6252 51.0618 56.9985 50.9231C57.3825 50.7738 57.7078 50.5765 57.9745 50.3311L58.7105 51.1151C58.2625 51.4671 57.7985 51.7285 57.3185 51.8991C56.8385 52.0698 56.3265 52.1551 55.7825 52.1551ZM53.0785 47.5151H58.0225C57.9692 47.0458 57.8252 46.6298 57.5905 46.2671C57.3665 45.8938 57.0785 45.6005 56.7265 45.3871C56.3852 45.1738 56.0012 45.0671 55.5745 45.0671C55.1478 45.0671 54.7585 45.1738 54.4065 45.3871C54.0545 45.5898 53.7612 45.8778 53.5265 46.2511C53.3025 46.6138 53.1532 47.0351 53.0785 47.5151ZM63.9104 52.1551C63.2384 52.1551 62.7264 51.9951 62.3744 51.6751C62.033 51.3445 61.8624 50.8698 61.8624 50.2511V45.1471H60.2464V44.1871H61.8624V42.0431L63.0304 41.7711V44.1871H65.2704V45.1471H63.0304V49.9471C63.0304 50.3631 63.1157 50.6618 63.2864 50.8431C63.4677 51.0245 63.761 51.1151 64.1664 51.1151C64.369 51.1151 64.5504 51.0991 64.7104 51.0671C64.8704 51.0351 65.057 50.9818 65.2704 50.9071V51.9471C65.057 52.0218 64.833 52.0751 64.5984 52.1071C64.3637 52.1391 64.1344 52.1551 63.9104 52.1551ZM70.345 52.1551C69.6197 52.1551 68.9637 51.9791 68.377 51.6271C67.7903 51.2645 67.3263 50.7791 66.985 50.1711C66.6437 49.5525 66.473 48.8591 66.473 48.0911C66.473 47.3231 66.633 46.6351 66.953 46.0271C67.2837 45.4191 67.7263 44.9391 68.281 44.5871C68.8357 44.2351 69.4543 44.0591 70.137 44.0591C70.8303 44.0591 71.4437 44.2351 71.977 44.5871C72.521 44.9285 72.9477 45.3978 73.257 45.9951C73.577 46.5818 73.737 47.2485 73.737 47.9951V48.3471H67.609C67.6517 48.8805 67.7957 49.3605 68.041 49.7871C68.297 50.2031 68.6277 50.5338 69.033 50.7791C69.449 51.0138 69.9023 51.1311 70.393 51.1311C70.7983 51.1311 71.1877 51.0618 71.561 50.9231C71.945 50.7738 72.2703 50.5765 72.537 50.3311L73.273 51.1151C72.825 51.4671 72.361 51.7285 71.881 51.8991C71.401 52.0698 70.889 52.1551 70.345 52.1551ZM67.641 47.5151H72.585C72.5317 47.0458 72.3877 46.6298 72.153 46.2671C71.929 45.8938 71.641 45.6005 71.289 45.3871C70.9477 45.1738 70.5637 45.0671 70.137 45.0671C69.7103 45.0671 69.321 45.1738 68.969 45.3871C68.617 45.5898 68.3237 45.8778 68.089 46.2511C67.865 46.6138 67.7157 47.0351 67.641 47.5151ZM78.9793 52.1071C78.3073 52.1071 77.6993 51.9311 77.1553 51.5791C76.6113 51.2165 76.1793 50.7365 75.8593 50.1391C75.5393 49.5311 75.3793 48.8538 75.3793 48.1071C75.3793 47.3498 75.5393 46.6725 75.8593 46.0751C76.1899 45.4671 76.6326 44.9871 77.1873 44.6351C77.7419 44.2725 78.3606 44.0911 79.0433 44.0911C79.5233 44.0911 79.9713 44.1871 80.3873 44.3791C80.8033 44.5605 81.1659 44.8271 81.4753 45.1791V40.4431L82.6433 40.2031V51.9951H81.4753V50.9551C81.1766 51.3285 80.8139 51.6165 80.3873 51.8191C79.9606 52.0111 79.4913 52.1071 78.9793 52.1071ZM79.2673 51.0831C79.7259 51.0831 80.1473 50.9925 80.5313 50.8111C80.9153 50.6298 81.2299 50.3738 81.4753 50.0431V46.1711C81.2193 45.8405 80.8939 45.5845 80.4993 45.4031C80.1153 45.2111 79.7046 45.1151 79.2673 45.1151C78.7446 45.1151 78.2753 45.2431 77.8593 45.4991C77.4539 45.7551 77.1286 46.1071 76.8832 46.5551C76.6486 47.0031 76.5312 47.5151 76.5312 48.0911C76.5312 48.6565 76.6486 49.1685 76.8832 49.6271C77.1286 50.0751 77.4539 50.4325 77.8593 50.6991C78.2753 50.9551 78.7446 51.0831 79.2673 51.0831Z" fill="#151515"/>
<circle cx="176" cy="13.9951" r="13" fill="white" stroke="#151515" stroke-width="2"/>
<g clip-path="url(#clip1_2159_4629)">
<path d="M176 5.99512C171.59 5.99512 168 9.58512 168 13.9951C168 18.4051 171.59 21.9951 176 21.9951C180.41 21.9951 184 18.4051 184 13.9951C184 9.58512 180.41 5.99512 176 5.99512ZM179.9 12.3951L175.575 16.7201C175.415 16.8801 175.21 16.9551 175 16.9551C174.79 16.9551 174.585 16.8751 174.425 16.7201L172.1 14.3951C171.88 14.1751 171.88 13.8201 172.1 13.6001C172.32 13.3801 172.675 13.3801 172.895 13.6001L174.995 15.7051L179.095 11.6001C179.315 11.3801 179.67 11.3801 179.89 11.6001C180.11 11.8201 180.11 12.1751 179.89 12.3951H179.9Z" fill="#3D7317"/>
</g>
<path d="M170.592 52.1711C169.792 52.1711 169.045 52.0271 168.352 51.7391C167.669 51.4405 167.067 51.0298 166.544 50.5071C166.021 49.9738 165.616 49.3605 165.328 48.6671C165.04 47.9631 164.896 47.2058 164.896 46.3951C164.896 45.5845 165.04 44.8325 165.328 44.1391C165.616 43.4351 166.021 42.8218 166.544 42.2991C167.067 41.7658 167.669 41.3551 168.352 41.0671C169.045 40.7685 169.792 40.6191 170.592 40.6191C171.147 40.6191 171.675 40.6938 172.176 40.8431C172.688 40.9818 173.168 41.1898 173.616 41.4671C174.064 41.7338 174.464 42.0645 174.816 42.4591L174 43.3071C173.584 42.8058 173.072 42.4218 172.464 42.1551C171.867 41.8778 171.243 41.7391 170.592 41.7391C169.963 41.7391 169.376 41.8565 168.832 42.0911C168.288 42.3258 167.813 42.6565 167.408 43.0831C167.013 43.5098 166.704 44.0058 166.48 44.5711C166.256 45.1258 166.144 45.7338 166.144 46.3951C166.144 47.0458 166.256 47.6538 166.48 48.2191C166.704 48.7845 167.013 49.2805 167.408 49.7071C167.813 50.1338 168.288 50.4645 168.832 50.6991C169.376 50.9338 169.963 51.0511 170.592 51.0511C171.243 51.0511 171.867 50.9125 172.464 50.6351C173.072 50.3578 173.584 49.9738 174 49.4831L174.816 50.3311C174.464 50.7258 174.064 51.0618 173.616 51.3391C173.168 51.6058 172.688 51.8138 172.176 51.9631C171.675 52.1018 171.147 52.1711 170.592 52.1711ZM180.031 52.1231C179.306 52.1231 178.655 51.9471 178.079 51.5951C177.503 51.2431 177.05 50.7631 176.719 50.1551C176.388 49.5471 176.223 48.8591 176.223 48.0911C176.223 47.3231 176.388 46.6351 176.719 46.0271C177.05 45.4191 177.503 44.9391 178.079 44.5871C178.655 44.2351 179.306 44.0591 180.031 44.0591C180.746 44.0591 181.386 44.2351 181.951 44.5871C182.527 44.9391 182.98 45.4191 183.311 46.0271C183.642 46.6351 183.807 47.3231 183.807 48.0911C183.807 48.8591 183.642 49.5471 183.311 50.1551C182.98 50.7631 182.527 51.2431 181.951 51.5951C181.386 51.9471 180.746 52.1231 180.031 52.1231ZM180.015 51.0991C180.527 51.0991 180.98 50.9711 181.375 50.7151C181.77 50.4485 182.079 50.0858 182.303 49.6271C182.538 49.1685 182.655 48.6565 182.655 48.0911C182.655 47.5151 182.538 47.0031 182.303 46.5551C182.079 46.0965 181.77 45.7391 181.375 45.4831C180.98 45.2165 180.527 45.0831 180.015 45.0831C179.503 45.0831 179.05 45.2165 178.655 45.4831C178.26 45.7391 177.946 46.0965 177.711 46.5551C177.487 47.0031 177.375 47.5151 177.375 48.0911C177.375 48.6565 177.487 49.1685 177.711 49.6271C177.946 50.0858 178.26 50.4485 178.655 50.7151C179.05 50.9711 179.503 51.0991 180.015 51.0991ZM185.856 51.9951V44.1871H187.024V45.4031C187.323 44.9551 187.664 44.6191 188.048 44.3951C188.432 44.1711 188.864 44.0591 189.344 44.0591C189.899 44.0591 190.384 44.1978 190.8 44.4751C191.216 44.7418 191.531 45.1098 191.744 45.5791C192.054 45.0778 192.422 44.6991 192.848 44.4431C193.286 44.1871 193.787 44.0591 194.352 44.0591C194.875 44.0591 195.334 44.1818 195.728 44.4271C196.134 44.6725 196.448 45.0138 196.672 45.4511C196.896 45.8778 197.008 46.3791 197.008 46.9551V51.9951H195.84V47.2431C195.84 46.5605 195.67 46.0218 195.328 45.6271C194.987 45.2325 194.518 45.0351 193.92 45.0351C193.515 45.0351 193.147 45.1365 192.816 45.3391C192.496 45.5418 192.214 45.8511 191.968 46.2671C191.99 46.3738 192.006 46.4858 192.016 46.6031C192.027 46.7205 192.032 46.8378 192.032 46.9551V51.9951H190.864V47.2431C190.864 46.5605 190.688 46.0218 190.336 45.6271C189.995 45.2325 189.526 45.0351 188.928 45.0351C188.128 45.0351 187.494 45.4191 187.024 46.1871V51.9951H185.856ZM199.372 55.3391V44.1871H200.524V45.3071C200.823 44.9125 201.185 44.6138 201.612 44.4111C202.049 44.1978 202.529 44.0911 203.052 44.0911C203.735 44.0911 204.343 44.2725 204.876 44.6351C205.42 44.9871 205.852 45.4671 206.172 46.0751C206.492 46.6725 206.652 47.3445 206.652 48.0911C206.652 48.8378 206.487 49.5151 206.156 50.1231C205.836 50.7311 205.399 51.2165 204.844 51.5791C204.3 51.9311 203.681 52.1071 202.988 52.1071C202.497 52.1071 202.044 52.0165 201.628 51.8351C201.212 51.6431 200.849 51.3711 200.54 51.0191V55.3391H199.372ZM202.764 51.0991C203.287 51.0991 203.751 50.9711 204.156 50.7151C204.572 50.4485 204.897 50.0911 205.132 49.6431C205.377 49.1845 205.5 48.6725 205.5 48.1071C205.5 47.5311 205.377 47.0191 205.132 46.5711C204.897 46.1231 204.572 45.7711 204.156 45.5151C203.751 45.2485 203.287 45.1151 202.764 45.1151C202.305 45.1151 201.879 45.2111 201.484 45.4031C201.1 45.5845 200.785 45.8458 200.54 46.1871V50.0111C200.796 50.3525 201.116 50.6191 201.5 50.8111C201.895 51.0031 202.316 51.0991 202.764 51.0991ZM208.7 51.9951V40.4431L209.868 40.2031V51.9951H208.7ZM215.783 52.1551C215.057 52.1551 214.401 51.9791 213.815 51.6271C213.228 51.2645 212.764 50.7791 212.423 50.1711C212.081 49.5525 211.911 48.8591 211.911 48.0911C211.911 47.3231 212.071 46.6351 212.391 46.0271C212.721 45.4191 213.164 44.9391 213.719 44.5871C214.273 44.2351 214.892 44.0591 215.575 44.0591C216.268 44.0591 216.881 44.2351 217.415 44.5871C217.959 44.9285 218.385 45.3978 218.695 45.9951C219.015 46.5818 219.175 47.2485 219.175 47.9951V48.3471H213.047C213.089 48.8805 213.233 49.3605 213.479 49.7871C213.735 50.2031 214.065 50.5338 214.471 50.7791C214.887 51.0138 215.34 51.1311 215.831 51.1311C216.236 51.1311 216.625 51.0618 216.999 50.9231C217.383 50.7738 217.708 50.5765 217.975 50.3311L218.711 51.1151C218.263 51.4671 217.799 51.7285 217.319 51.8991C216.839 52.0698 216.327 52.1551 215.783 52.1551ZM213.079 47.5151H218.023C217.969 47.0458 217.825 46.6298 217.591 46.2671C217.367 45.8938 217.079 45.6005 216.727 45.3871C216.385 45.1738 216.001 45.0671 215.575 45.0671C215.148 45.0671 214.759 45.1738 214.407 45.3871C214.055 45.5898 213.761 45.8778 213.527 46.2511C213.303 46.6138 213.153 47.0351 213.079 47.5151ZM223.91 52.1551C223.238 52.1551 222.726 51.9951 222.374 51.6751C222.033 51.3445 221.862 50.8698 221.862 50.2511V45.1471H220.246V44.1871H221.862V42.0431L223.03 41.7711V44.1871H225.27V45.1471H223.03V49.9471C223.03 50.3631 223.116 50.6618 223.286 50.8431C223.468 51.0245 223.761 51.1151 224.166 51.1151C224.369 51.1151 224.55 51.0991 224.71 51.0671C224.87 51.0351 225.057 50.9818 225.27 50.9071V51.9471C225.057 52.0218 224.833 52.0751 224.598 52.1071C224.364 52.1391 224.134 52.1551 223.91 52.1551ZM230.345 52.1551C229.62 52.1551 228.964 51.9791 228.377 51.6271C227.79 51.2645 227.326 50.7791 226.985 50.1711C226.644 49.5525 226.473 48.8591 226.473 48.0911C226.473 47.3231 226.633 46.6351 226.953 46.0271C227.284 45.4191 227.726 44.9391 228.281 44.5871C228.836 44.2351 229.454 44.0591 230.137 44.0591C230.83 44.0591 231.444 44.2351 231.977 44.5871C232.521 44.9285 232.948 45.3978 233.257 45.9951C233.577 46.5818 233.737 47.2485 233.737 47.9951V48.3471H227.609C227.652 48.8805 227.796 49.3605 228.041 49.7871C228.297 50.2031 228.628 50.5338 229.033 50.7791C229.449 51.0138 229.902 51.1311 230.393 51.1311C230.798 51.1311 231.188 51.0618 231.561 50.9231C231.945 50.7738 232.27 50.5765 232.537 50.3311L233.273 51.1151C232.825 51.4671 232.361 51.7285 231.881 51.8991C231.401 52.0698 230.889 52.1551 230.345 52.1551ZM227.641 47.5151H232.585C232.532 47.0458 232.388 46.6298 232.153 46.2671C231.929 45.8938 231.641 45.6005 231.289 45.3871C230.948 45.1738 230.564 45.0671 230.137 45.0671C229.71 45.0671 229.321 45.1738 228.969 45.3871C228.617 45.5898 228.324 45.8778 228.089 46.2511C227.865 46.6138 227.716 47.0351 227.641 47.5151ZM238.979 52.1071C238.307 52.1071 237.699 51.9311 237.155 51.5791C236.611 51.2165 236.179 50.7365 235.859 50.1391C235.539 49.5311 235.379 48.8538 235.379 48.1071C235.379 47.3498 235.539 46.6725 235.859 46.0751C236.19 45.4671 236.633 44.9871 237.187 44.6351C237.742 44.2725 238.361 44.0911 239.043 44.0911C239.523 44.0911 239.971 44.1871 240.387 44.3791C240.803 44.5605 241.166 44.8271 241.475 45.1791V40.4431L242.643 40.2031V51.9951H241.475V50.9551C241.177 51.3285 240.814 51.6165 240.387 51.8191C239.961 52.0111 239.491 52.1071 238.979 52.1071ZM239.267 51.0831C239.726 51.0831 240.147 50.9925 240.531 50.8111C240.915 50.6298 241.23 50.3738 241.475 50.0431V46.1711C241.219 45.8405 240.894 45.5845 240.499 45.4031C240.115 45.2111 239.705 45.1151 239.267 45.1151C238.745 45.1151 238.275 45.2431 237.859 45.4991C237.454 45.7551 237.129 46.1071 236.883 46.5551C236.649 47.0031 236.531 47.5151 236.531 48.0911C236.531 48.6565 236.649 49.1685 236.883 49.6271C237.129 50.0751 237.454 50.4325 237.859 50.6991C238.275 50.9551 238.745 51.0831 239.267 51.0831Z" fill="#151515"/>
<circle cx="336" cy="13.9951" r="13" fill="white" stroke="#151515" stroke-width="2"/>
<g clip-path="url(#clip2_2159_4629)">
<path d="M336 19.4951C339.038 19.4951 341.5 17.0327 341.5 13.9951C341.5 10.9576 339.038 8.49512 336 8.49512C332.962 8.49512 330.5 10.9576 330.5 13.9951C330.5 17.0327 332.962 19.4951 336 19.4951Z" fill="#5E40BE"/>
<path d="M336 5.99512C331.59 5.99512 328 9.58512 328 13.9951C328 18.4051 331.59 21.9951 336 21.9951C340.41 21.9951 344 18.4051 344 13.9951C344 9.58512 340.41 5.99512 336 5.99512ZM336 20.9951C332.14 20.9951 329 17.8551 329 13.9951C329 10.1351 332.14 6.99512 336 6.99512C339.86 6.99512 343 10.1351 343 13.9951C343 17.8551 339.86 20.9951 336 20.9951Z" fill="#5E40BE"/>
</g>
<path d="M330.608 52.1711C329.797 52.1711 329.04 52.0271 328.336 51.7391C327.632 51.4405 327.013 51.0298 326.48 50.5071C325.957 49.9738 325.547 49.3605 325.248 48.6671C324.96 47.9631 324.816 47.2058 324.816 46.3951C324.816 45.5845 324.96 44.8325 325.248 44.1391C325.547 43.4351 325.957 42.8218 326.48 42.2991C327.013 41.7658 327.632 41.3551 328.336 41.0671C329.04 40.7685 329.797 40.6191 330.608 40.6191C331.184 40.6191 331.739 40.6991 332.272 40.8591C332.805 41.0191 333.301 41.2484 333.76 41.5471C334.229 41.8351 334.635 42.1924 334.976 42.6191L333.696 43.8671C333.301 43.3658 332.837 42.9871 332.304 42.7311C331.771 42.4751 331.205 42.3471 330.608 42.3471C330.064 42.3471 329.557 42.4484 329.088 42.6511C328.629 42.8538 328.224 43.1418 327.872 43.5151C327.531 43.8778 327.264 44.3045 327.072 44.7951C326.88 45.2858 326.784 45.8191 326.784 46.3951C326.784 46.9711 326.88 47.5045 327.072 47.9951C327.264 48.4858 327.531 48.9178 327.872 49.2911C328.224 49.6538 328.629 49.9365 329.088 50.1391C329.557 50.3418 330.064 50.4431 330.608 50.4431C331.205 50.4431 331.771 50.3151 332.304 50.0591C332.837 49.7925 333.301 49.4138 333.696 48.9231L334.976 50.1711C334.635 50.5871 334.229 50.9445 333.76 51.2431C333.301 51.5418 332.805 51.7711 332.272 51.9311C331.739 52.0911 331.184 52.1711 330.608 52.1711ZM339.184 52.1231C338.629 52.1231 338.144 52.0005 337.728 51.7551C337.312 51.5098 336.981 51.1738 336.736 50.7471C336.501 50.3205 336.384 49.8245 336.384 49.2591V43.9791H338.208V48.7311C338.208 49.3285 338.363 49.8031 338.672 50.1551C338.992 50.4965 339.424 50.6671 339.968 50.6671C340.331 50.6671 340.656 50.5871 340.944 50.4271C341.243 50.2671 341.499 50.0271 341.712 49.7071V43.9791H343.52V51.9951H341.712V50.6991C341.403 51.1685 341.035 51.5258 340.608 51.7711C340.181 52.0058 339.707 52.1231 339.184 52.1231ZM345.761 51.9951V43.9791H347.569V45.7071C347.803 45.0991 348.107 44.6351 348.481 44.3151C348.854 43.9951 349.286 43.8351 349.777 43.8351C349.926 43.8458 350.059 43.8618 350.177 43.8831C350.294 43.8938 350.422 43.9311 350.561 43.9951V45.5791C350.422 45.5151 350.262 45.4671 350.081 45.4351C349.91 45.4031 349.739 45.3871 349.569 45.3871C349.131 45.3871 348.737 45.5045 348.385 45.7391C348.043 45.9738 347.771 46.2991 347.569 46.7151V51.9951H345.761ZM352.042 51.9951V43.9791H353.85V45.7071C354.085 45.0991 354.389 44.6351 354.762 44.3151C355.135 43.9951 355.567 43.8351 356.058 43.8351C356.207 43.8458 356.341 43.8618 356.458 43.8831C356.575 43.8938 356.703 43.9311 356.842 43.9951V45.5791C356.703 45.5151 356.543 45.4671 356.362 45.4351C356.191 45.4031 356.021 45.3871 355.85 45.3871C355.413 45.3871 355.018 45.5045 354.666 45.7391C354.325 45.9738 354.053 46.2991 353.85 46.7151V51.9951H352.042ZM361.676 52.1551C360.908 52.1551 360.215 51.9738 359.596 51.6111C358.977 51.2378 358.487 50.7418 358.124 50.1231C357.761 49.4938 357.58 48.7845 357.58 47.9951C357.58 47.2058 357.751 46.5018 358.092 45.8831C358.433 45.2645 358.897 44.7738 359.484 44.4111C360.081 44.0378 360.743 43.8511 361.468 43.8511C362.215 43.8511 362.871 44.0325 363.436 44.3951C364.012 44.7578 364.46 45.2485 364.78 45.8671C365.111 46.4858 365.276 47.1951 365.276 47.9951V48.4271H359.356C359.42 48.8645 359.559 49.2538 359.772 49.5951C359.996 49.9258 360.279 50.1871 360.62 50.3791C360.972 50.5711 361.351 50.6671 361.756 50.6671C362.129 50.6671 362.481 50.6031 362.812 50.4751C363.153 50.3365 363.436 50.1498 363.66 49.9151L364.844 50.9871C364.353 51.3925 363.852 51.6911 363.34 51.8831C362.839 52.0645 362.284 52.1551 361.676 52.1551ZM359.372 47.3071H363.564C363.5 46.9231 363.367 46.5818 363.164 46.2831C362.972 45.9845 362.727 45.7498 362.428 45.5791C362.14 45.4085 361.82 45.3231 361.468 45.3231C361.116 45.3231 360.791 45.4085 360.492 45.5791C360.204 45.7391 359.964 45.9685 359.772 46.2671C359.58 46.5658 359.447 46.9125 359.372 47.3071ZM367.12 51.9951V43.9791H368.928V45.2911C369.237 44.8111 369.605 44.4538 370.032 44.2191C370.459 43.9738 370.933 43.8511 371.456 43.8511C372.011 43.8511 372.496 43.9738 372.912 44.2191C373.328 44.4538 373.653 44.7845 373.888 45.2111C374.133 45.6378 374.256 46.1391 374.256 46.7151V51.9951H372.432V47.2271C372.432 46.6405 372.272 46.1765 371.952 45.8351C371.632 45.4831 371.205 45.3071 370.672 45.3071C370.309 45.3071 369.979 45.3925 369.68 45.5631C369.392 45.7231 369.141 45.9631 368.928 46.2831V51.9951H367.12ZM379.654 52.1551C378.843 52.1551 378.23 51.9685 377.814 51.5951C377.398 51.2111 377.19 50.6511 377.19 49.9151V45.4191H375.59V43.9791H377.19V41.7711L378.998 41.3871V43.9791H381.222V45.4191H378.998V49.5151C378.998 49.9098 379.083 50.1925 379.254 50.3631C379.425 50.5231 379.713 50.6031 380.118 50.6031C380.299 50.6031 380.465 50.5925 380.614 50.5711C380.774 50.5391 380.971 50.4858 381.206 50.4111V51.9311C380.982 52.0058 380.726 52.0591 380.438 52.0911C380.161 52.1338 379.899 52.1551 379.654 52.1551ZM389.137 52.1551C388.454 52.1551 387.814 52.0645 387.217 51.8831C386.63 51.6911 386.124 51.4191 385.697 51.0671L386.545 49.8671C387.078 50.1978 387.537 50.4325 387.921 50.5711C388.316 50.7098 388.716 50.7791 389.121 50.7791C389.601 50.7791 389.99 50.6778 390.289 50.4751C390.588 50.2725 390.737 50.0111 390.737 49.6911C390.737 49.4458 390.646 49.2538 390.465 49.1151C390.294 48.9658 390.012 48.8538 389.617 48.7791L388.209 48.5391C387.43 48.3898 386.849 48.1338 386.465 47.7711C386.081 47.4085 385.889 46.9285 385.889 46.3311C385.889 45.8298 386.017 45.3978 386.273 45.0351C386.54 44.6618 386.902 44.3738 387.361 44.1711C387.83 43.9578 388.374 43.8511 388.993 43.8511C389.548 43.8511 390.086 43.9311 390.609 44.0911C391.132 44.2511 391.644 44.4911 392.145 44.8111L391.297 46.0111C390.892 45.7445 390.486 45.5525 390.081 45.4351C389.686 45.3071 389.286 45.2431 388.881 45.2431C388.465 45.2431 388.129 45.3285 387.873 45.4991C387.628 45.6591 387.505 45.8831 387.505 46.1711C387.505 46.4271 387.585 46.6245 387.745 46.7631C387.916 46.8911 388.209 46.9871 388.625 47.0511L390.049 47.3231C390.849 47.4618 391.441 47.7178 391.825 48.0911C392.22 48.4538 392.417 48.9391 392.417 49.5471C392.417 50.0378 392.273 50.4805 391.985 50.8751C391.697 51.2698 391.308 51.5845 390.817 51.8191C390.326 52.0431 389.766 52.1551 389.137 52.1551ZM397.373 52.1551C396.562 52.1551 395.949 51.9685 395.533 51.5951C395.117 51.2111 394.909 50.6511 394.909 49.9151V45.4191H393.309V43.9791H394.909V41.7711L396.717 41.3871V43.9791H398.941V45.4191H396.717V49.5151C396.717 49.9098 396.802 50.1925 396.973 50.3631C397.144 50.5231 397.432 50.6031 397.837 50.6031C398.018 50.6031 398.184 50.5925 398.333 50.5711C398.493 50.5391 398.69 50.4858 398.925 50.4111V51.9311C398.701 52.0058 398.445 52.0591 398.157 52.0911C397.88 52.1338 397.618 52.1551 397.373 52.1551ZM404.145 52.1551C403.377 52.1551 402.684 51.9738 402.065 51.6111C401.446 51.2378 400.956 50.7418 400.593 50.1231C400.23 49.4938 400.049 48.7845 400.049 47.9951C400.049 47.2058 400.22 46.5018 400.561 45.8831C400.902 45.2645 401.366 44.7738 401.953 44.4111C402.55 44.0378 403.212 43.8511 403.937 43.8511C404.684 43.8511 405.34 44.0325 405.905 44.3951C406.481 44.7578 406.929 45.2485 407.249 45.8671C407.58 46.4858 407.745 47.1951 407.745 47.9951V48.4271H401.825C401.889 48.8645 402.028 49.2538 402.241 49.5951C402.465 49.9258 402.748 50.1871 403.089 50.3791C403.441 50.5711 403.82 50.6671 404.225 50.6671C404.598 50.6671 404.95 50.6031 405.281 50.4751C405.622 50.3365 405.905 50.1498 406.129 49.9151L407.313 50.9871C406.822 51.3925 406.321 51.6911 405.809 51.8831C405.308 52.0645 404.753 52.1551 404.145 52.1551ZM401.841 47.3071H406.033C405.969 46.9231 405.836 46.5818 405.633 46.2831C405.441 45.9845 405.196 45.7498 404.897 45.5791C404.609 45.4085 404.289 45.3231 403.937 45.3231C403.585 45.3231 403.26 45.4085 402.961 45.5791C402.673 45.7391 402.433 45.9685 402.241 46.2671C402.049 46.5658 401.916 46.9125 401.841 47.3071ZM409.589 55.3391V43.9791H411.365V45.1151C411.653 44.7311 412.01 44.4378 412.437 44.2351C412.874 44.0218 413.349 43.9151 413.861 43.9151C414.543 43.9151 415.157 44.0965 415.701 44.4591C416.245 44.8218 416.677 45.3125 416.997 45.9311C417.317 46.5498 417.477 47.2378 417.477 47.9951C417.477 48.7525 417.311 49.4405 416.981 50.0591C416.65 50.6778 416.202 51.1685 415.637 51.5311C415.071 51.8938 414.442 52.0751 413.749 52.0751C413.269 52.0751 412.826 51.9898 412.421 51.8191C412.026 51.6378 411.685 51.3818 411.397 51.0511V55.3391H409.589ZM413.317 50.5711C413.775 50.5711 414.181 50.4591 414.533 50.2351C414.895 50.0111 415.178 49.7071 415.381 49.3231C415.594 48.9285 415.701 48.4858 415.701 47.9951C415.701 47.5045 415.594 47.0671 415.381 46.6831C415.178 46.2991 414.895 45.9951 414.533 45.7711C414.181 45.5471 413.775 45.4351 413.317 45.4351C412.922 45.4351 412.559 45.5151 412.229 45.6751C411.898 45.8245 411.621 46.0431 411.397 46.3311V49.6751C411.631 49.9525 411.914 50.1711 412.245 50.3311C412.575 50.4911 412.933 50.5711 413.317 50.5711Z" fill="#151515"/>
<circle cx="511" cy="13.9951" r="13" fill="white" stroke="#C7C7C7" stroke-width="2"/>
<path d="M500.424 51.9951V40.7951H501.656V50.9071H507.976V51.9951H500.424ZM512.335 52.1391C511.78 52.1391 511.289 52.0378 510.863 51.8351C510.436 51.6325 510.1 51.3551 509.855 51.0031C509.62 50.6405 509.503 50.2245 509.503 49.7551C509.503 49.2858 509.625 48.8805 509.871 48.5391C510.116 48.1871 510.457 47.9151 510.895 47.7231C511.332 47.5311 511.844 47.4351 512.431 47.4351C512.879 47.4351 513.3 47.4831 513.695 47.5791C514.1 47.6751 514.473 47.8298 514.815 48.0431V46.9711C514.815 46.3311 514.644 45.8511 514.303 45.5311C513.961 45.2005 513.46 45.0351 512.799 45.0351C512.436 45.0351 512.063 45.0885 511.679 45.1951C511.305 45.3018 510.889 45.4725 510.431 45.7071L509.999 44.8111C511.044 44.3098 512.025 44.0591 512.943 44.0591C513.913 44.0591 514.66 44.2991 515.183 44.7791C515.705 45.2485 515.967 45.9258 515.967 46.8111V51.9951H514.815V51.0831C514.473 51.4351 514.095 51.7018 513.679 51.8831C513.263 52.0538 512.815 52.1391 512.335 52.1391ZM510.623 49.7231C510.623 50.1818 510.799 50.5498 511.151 50.8271C511.513 51.1045 511.988 51.2431 512.575 51.2431C513.012 51.2431 513.412 51.1685 513.775 51.0191C514.148 50.8698 514.495 50.6458 514.815 50.3471V48.8431C514.484 48.6511 514.143 48.5125 513.791 48.4271C513.439 48.3311 513.044 48.2831 512.607 48.2831C512.009 48.2831 511.529 48.4165 511.167 48.6831C510.804 48.9391 510.623 49.2858 510.623 49.7231ZM520.757 52.1551C520.117 52.1551 519.525 52.0591 518.981 51.8671C518.437 51.6645 517.973 51.3765 517.589 51.0031L518.213 50.2351C518.682 50.5765 519.114 50.8271 519.509 50.9871C519.903 51.1365 520.309 51.2111 520.725 51.2111C521.29 51.2111 521.759 51.0778 522.133 50.8111C522.506 50.5445 522.693 50.2031 522.693 49.7871C522.693 49.4671 522.581 49.2165 522.357 49.0351C522.143 48.8538 521.786 48.7151 521.285 48.6191L520.005 48.3951C519.247 48.2565 518.687 48.0218 518.325 47.6911C517.973 47.3605 517.797 46.9125 517.797 46.3471C517.797 45.8991 517.914 45.5045 518.149 45.1631C518.394 44.8218 518.73 44.5551 519.157 44.3631C519.583 44.1605 520.069 44.0591 520.613 44.0591C521.146 44.0591 521.653 44.1391 522.133 44.2991C522.613 44.4485 523.098 44.6938 523.589 45.0351L523.013 45.8511C522.607 45.5631 522.202 45.3551 521.797 45.2271C521.391 45.0885 520.981 45.0191 520.565 45.0191C520.053 45.0191 519.642 45.1311 519.333 45.3551C519.023 45.5791 518.869 45.8831 518.869 46.2671C518.869 46.5871 518.965 46.8325 519.157 47.0031C519.359 47.1738 519.711 47.3018 520.213 47.3871L521.525 47.6271C522.314 47.7658 522.89 48.0058 523.253 48.3471C523.615 48.6885 523.797 49.1471 523.797 49.7231C523.797 50.1818 523.663 50.5978 523.397 50.9711C523.13 51.3338 522.767 51.6218 522.309 51.8351C521.85 52.0485 521.333 52.1551 520.757 52.1551ZM528.395 52.1551C527.723 52.1551 527.211 51.9951 526.859 51.6751C526.517 51.3445 526.347 50.8698 526.347 50.2511V45.1471H524.731V44.1871H526.347V42.0431L527.515 41.7711V44.1871H529.755V45.1471H527.515V49.9471C527.515 50.3631 527.6 50.6618 527.771 50.8431C527.952 51.0245 528.245 51.1151 528.651 51.1151C528.853 51.1151 529.035 51.0991 529.195 51.0671C529.355 51.0351 529.541 50.9818 529.755 50.9071V51.9471C529.541 52.0218 529.317 52.0751 529.083 52.1071C528.848 52.1391 528.619 52.1551 528.395 52.1551ZM537.616 52.1551C536.976 52.1551 536.384 52.0591 535.84 51.8671C535.296 51.6645 534.832 51.3765 534.448 51.0031L535.072 50.2351C535.541 50.5765 535.973 50.8271 536.368 50.9871C536.763 51.1365 537.168 51.2111 537.584 51.2111C538.149 51.2111 538.619 51.0778 538.992 50.8111C539.365 50.5445 539.552 50.2031 539.552 49.7871C539.552 49.4671 539.44 49.2165 539.216 49.0351C539.003 48.8538 538.645 48.7151 538.144 48.6191L536.864 48.3951C536.107 48.2565 535.547 48.0218 535.184 47.6911C534.832 47.3605 534.656 46.9125 534.656 46.3471C534.656 45.8991 534.773 45.5045 535.008 45.1631C535.253 44.8218 535.589 44.5551 536.016 44.3631C536.443 44.1605 536.928 44.0591 537.472 44.0591C538.005 44.0591 538.512 44.1391 538.992 44.2991C539.472 44.4485 539.957 44.6938 540.448 45.0351L539.872 45.8511C539.467 45.5631 539.061 45.3551 538.656 45.2271C538.251 45.0885 537.84 45.0191 537.424 45.0191C536.912 45.0191 536.501 45.1311 536.192 45.3551C535.883 45.5791 535.728 45.8831 535.728 46.2671C535.728 46.5871 535.824 46.8325 536.016 47.0031C536.219 47.1738 536.571 47.3018 537.072 47.3871L538.384 47.6271C539.173 47.7658 539.749 48.0058 540.112 48.3471C540.475 48.6885 540.656 49.1471 540.656 49.7231C540.656 50.1818 540.523 50.5978 540.256 50.9711C539.989 51.3338 539.627 51.6218 539.168 51.8351C538.709 52.0485 538.192 52.1551 537.616 52.1551ZM545.254 52.1551C544.582 52.1551 544.07 51.9951 543.718 51.6751C543.377 51.3445 543.206 50.8698 543.206 50.2511V45.1471H541.59V44.1871H543.206V42.0431L544.374 41.7711V44.1871H546.614V45.1471H544.374V49.9471C544.374 50.3631 544.459 50.6618 544.63 50.8431C544.811 51.0245 545.105 51.1151 545.51 51.1151C545.713 51.1151 545.894 51.0991 546.054 51.0671C546.214 51.0351 546.401 50.9818 546.614 50.9071V51.9471C546.401 52.0218 546.177 52.0751 545.942 52.1071C545.707 52.1391 545.478 52.1551 545.254 52.1551ZM551.689 52.1551C550.963 52.1551 550.307 51.9791 549.721 51.6271C549.134 51.2645 548.67 50.7791 548.329 50.1711C547.987 49.5525 547.817 48.8591 547.817 48.0911C547.817 47.3231 547.977 46.6351 548.297 46.0271C548.627 45.4191 549.07 44.9391 549.625 44.5871C550.179 44.2351 550.798 44.0591 551.481 44.0591C552.174 44.0591 552.787 44.2351 553.321 44.5871C553.865 44.9285 554.291 45.3978 554.601 45.9951C554.921 46.5818 555.081 47.2485 555.081 47.9951V48.3471H548.953C548.995 48.8805 549.139 49.3605 549.385 49.7871C549.641 50.2031 549.971 50.5338 550.377 50.7791C550.793 51.0138 551.246 51.1311 551.737 51.1311C552.142 51.1311 552.531 51.0618 552.905 50.9231C553.289 50.7738 553.614 50.5765 553.881 50.3311L554.617 51.1151C554.169 51.4671 553.705 51.7285 553.225 51.8991C552.745 52.0698 552.233 52.1551 551.689 52.1551ZM548.985 47.5151H553.929C553.875 47.0458 553.731 46.6298 553.497 46.2671C553.273 45.8938 552.985 45.6005 552.633 45.3871C552.291 45.1738 551.907 45.0671 551.481 45.0671C551.054 45.0671 550.665 45.1738 550.313 45.3871C549.961 45.5898 549.667 45.8778 549.433 46.2511C549.209 46.6138 549.059 47.0351 548.985 47.5151ZM557.075 55.3391V44.1871H558.227V45.3071C558.526 44.9125 558.888 44.6138 559.315 44.4111C559.752 44.1978 560.232 44.0911 560.755 44.0911C561.438 44.0911 562.046 44.2725 562.579 44.6351C563.123 44.9871 563.555 45.4671 563.875 46.0751C564.195 46.6725 564.355 47.3445 564.355 48.0911C564.355 48.8378 564.19 49.5151 563.859 50.1231C563.539 50.7311 563.102 51.2165 562.547 51.5791C562.003 51.9311 561.384 52.1071 560.691 52.1071C560.2 52.1071 559.747 52.0165 559.331 51.8351C558.915 51.6431 558.552 51.3711 558.243 51.0191V55.3391H557.075ZM560.467 51.0991C560.99 51.0991 561.454 50.9711 561.859 50.7151C562.275 50.4485 562.6 50.0911 562.835 49.6431C563.08 49.1845 563.203 48.6725 563.203 48.1071C563.203 47.5311 563.08 47.0191 562.835 46.5711C562.6 46.1231 562.275 45.7711 561.859 45.5151C561.454 45.2485 560.99 45.1151 560.467 45.1151C560.008 45.1151 559.582 45.2111 559.187 45.4031C558.803 45.5845 558.488 45.8458 558.243 46.1871V50.0111C558.499 50.3525 558.819 50.6191 559.203 50.8111C559.598 51.0031 560.019 51.0991 560.467 51.0991Z" fill="#4D4D4D"/>
<path d="M4.75 60.1089H84" stroke="#707070" stroke-linecap="square" stroke-dasharray="3 3"/>
<path d="M164 60.1089H244" stroke="#707070" stroke-linecap="square" stroke-dasharray="3 3"/>
<path d="M324 60.1089H418" stroke="#707070" stroke-linecap="square" stroke-dasharray="3 3"/>
<mask id="path-18-outside-1_2159_4629" maskUnits="userSpaceOnUse" x="0" y="30.3153" width="88" height="33" fill="black">
<rect fill="white" y="30.3153" width="88" height="33"/>
<path d="M2 35.3153C2 33.6585 3.34315 32.3153 5 32.3153H83C84.6569 32.3153 86 33.6585 86 35.3153V57.6142C86 59.271 84.6569 60.6142 83 60.6142H5C3.34314 60.6142 2 59.271 2 57.6142V35.3153Z"/>
</mask>
<path d="M5 32.3153V34.3153H83V32.3153V30.3153H5V32.3153ZM86 35.3153H84V57.6142H86H88V35.3153H86ZM83 60.6142V58.6142H5V60.6142V62.6142H83V60.6142ZM2 57.6142H4V35.3153H2H0V57.6142H2ZM5 60.6142V58.6142C4.44772 58.6142 4 58.1665 4 57.6142H2H0C0 60.3756 2.23857 62.6142 5 62.6142V60.6142ZM86 57.6142H84C84 58.1665 83.5523 58.6142 83 58.6142V60.6142V62.6142C85.7614 62.6142 88 60.3756 88 57.6142H86ZM83 32.3153V34.3153C83.5523 34.3153 84 34.763 84 35.3153H86H88C88 32.5539 85.7614 30.3153 83 30.3153V32.3153ZM5 32.3153V30.3153C2.23858 30.3153 0 32.5539 0 35.3153H2H4C4 34.763 4.44771 34.3153 5 34.3153V32.3153Z" fill="#0066CC" mask="url(#path-18-outside-1_2159_4629)"/>
<mask id="path-20-outside-2_2159_4629" maskUnits="userSpaceOnUse" x="160" y="30.3153" width="88" height="33" fill="black">
<rect fill="white" x="160" y="30.3153" width="88" height="33"/>
<path d="M162 35.3153C162 33.6585 163.343 32.3153 165 32.3153H243C244.657 32.3153 246 33.6585 246 35.3153V57.6142C246 59.271 244.657 60.6142 243 60.6142H165C163.343 60.6142 162 59.271 162 57.6142V35.3153Z"/>
</mask>
<path d="M165 32.3153V34.3153H243V32.3153V30.3153H165V32.3153ZM246 35.3153H244V57.6142H246H248V35.3153H246ZM243 60.6142V58.6142H165V60.6142V62.6142H243V60.6142ZM162 57.6142H164V35.3153H162H160V57.6142H162ZM165 60.6142V58.6142C164.448 58.6142 164 58.1665 164 57.6142H162H160C160 60.3756 162.239 62.6142 165 62.6142V60.6142ZM246 57.6142H244C244 58.1665 243.552 58.6142 243 58.6142V60.6142V62.6142C245.761 62.6142 248 60.3756 248 57.6142H246ZM243 32.3153V34.3153C243.552 34.3153 244 34.763 244 35.3153H246H248C248 32.5539 245.761 30.3153 243 30.3153V32.3153ZM165 32.3153V30.3153C162.239 30.3153 160 32.5539 160 35.3153H162H164C164 34.763 164.448 34.3153 165 34.3153V32.3153Z" fill="#0066CC" mask="url(#path-20-outside-2_2159_4629)"/>
<mask id="path-22-outside-3_2159_4629" maskUnits="userSpaceOnUse" x="320" y="30.3153" width="103" height="33" fill="black">
<rect fill="white" x="320" y="30.3153" width="103" height="33"/>
<path d="M322 35.3153C322 33.6585 323.343 32.3153 325 32.3153H418C419.657 32.3153 421 33.6585 421 35.3153V57.6142C421 59.271 419.657 60.6142 418 60.6142H325C323.343 60.6142 322 59.271 322 57.6142V35.3153Z"/>
</mask>
<path d="M325 32.3153V34.3153H418V32.3153V30.3153H325V32.3153ZM421 35.3153H419V57.6142H421H423V35.3153H421ZM418 60.6142V58.6142H325V60.6142V62.6142H418V60.6142ZM322 57.6142H324V35.3153H322H320V57.6142H322ZM325 60.6142V58.6142C324.448 58.6142 324 58.1665 324 57.6142H322H320C320 60.3756 322.239 62.6142 325 62.6142V60.6142ZM421 57.6142H419C419 58.1665 418.552 58.6142 418 58.6142V60.6142V62.6142C420.761 62.6142 423 60.3756 423 57.6142H421ZM418 32.3153V34.3153C418.552 34.3153 419 34.763 419 35.3153H421H423C423 32.5539 420.761 30.3153 418 30.3153V32.3153ZM325 32.3153V30.3153C322.239 30.3153 320 32.5539 320 35.3153H322H324C324 34.763 324.448 34.3153 325 34.3153V32.3153Z" fill="#0066CC" mask="url(#path-22-outside-3_2159_4629)"/>
<circle cx="44" cy="79.7603" r="11" fill="#B300B3"/>
<path d="M40.9787 84.7603V83.8783H43.4567V76.0523L40.9787 77.1443V76.2203L43.8347 74.9603H44.4647V83.8783H47.2927V84.7603H40.9787Z" fill="white"/>
<circle cx="204" cy="79.7603" r="11" fill="#B300B3"/>
<path d="M200.839 84.7603V84.0183L204.759 79.7343C205.067 79.3983 205.305 79.1043 205.473 78.8523C205.65 78.5909 205.771 78.3483 205.837 78.1243C205.911 77.9003 205.949 77.6623 205.949 77.4103C205.949 76.9156 205.753 76.5096 205.361 76.1923C204.978 75.8656 204.488 75.7023 203.891 75.7023C203.433 75.7023 203.009 75.7909 202.617 75.9683C202.225 76.1456 201.786 76.4536 201.301 76.8923L200.713 76.1923C201.226 75.7256 201.744 75.3803 202.267 75.1563C202.789 74.9229 203.335 74.8063 203.905 74.8063C204.493 74.8063 205.015 74.9183 205.473 75.1423C205.93 75.3569 206.289 75.6556 206.551 76.0383C206.812 76.4209 206.943 76.8596 206.943 77.3543C206.943 77.6809 206.901 77.9843 206.817 78.2643C206.733 78.5349 206.583 78.8289 206.369 79.1463C206.154 79.4543 205.846 79.8276 205.445 80.2663L202.099 83.8923L207.153 83.8783V84.7603H200.839Z" fill="white"/>
<circle cx="371.5" cy="79.7603" r="11" fill="#B300B3"/>
<path d="M371.307 84.9143C370.635 84.9143 370.005 84.7976 369.417 84.5643C368.838 84.3309 368.325 83.9856 367.877 83.5283L368.549 82.8703C368.959 83.2809 369.379 83.5796 369.809 83.7663C370.247 83.9436 370.742 84.0323 371.293 84.0323C371.769 84.0323 372.189 83.9483 372.553 83.7803C372.926 83.6123 373.215 83.3789 373.421 83.0803C373.626 82.7816 373.729 82.4409 373.729 82.0583C373.729 81.6943 373.635 81.3723 373.449 81.0923C373.271 80.8029 373.024 80.5789 372.707 80.4203C372.389 80.2616 372.025 80.1823 371.615 80.1823H370.453V79.3143H371.573C372.105 79.3143 372.534 79.1509 372.861 78.8243C373.197 78.4976 373.365 78.0729 373.365 77.5503C373.365 77.2049 373.271 76.8923 373.085 76.6123C372.898 76.3323 372.641 76.1129 372.315 75.9543C371.997 75.7863 371.638 75.7023 371.237 75.7023C370.733 75.7023 370.28 75.7956 369.879 75.9823C369.487 76.1596 369.085 76.4629 368.675 76.8923L368.003 76.2203C368.441 75.7536 368.936 75.4036 369.487 75.1703C370.037 74.9276 370.625 74.8063 371.251 74.8063C371.848 74.8063 372.38 74.9229 372.847 75.1563C373.323 75.3896 373.696 75.7116 373.967 76.1223C374.237 76.5236 374.373 76.9809 374.373 77.4943C374.373 78.0076 374.205 78.4696 373.869 78.8803C373.533 79.2816 373.089 79.5616 372.539 79.7203C373.201 79.8696 373.733 80.1589 374.135 80.5883C374.536 81.0176 374.737 81.5169 374.737 82.0863C374.737 82.6276 374.587 83.1129 374.289 83.5423C373.999 83.9716 373.593 84.3076 373.071 84.5503C372.557 84.7929 371.969 84.9143 371.307 84.9143Z" fill="white"/>
<defs>
<clipPath id="clip0_2159_4629">
<rect width="16" height="16" fill="white" transform="translate(8 5.99512)"/>
</clipPath>
<clipPath id="clip1_2159_4629">
<rect width="16" height="16" fill="white" transform="translate(168 5.99512)"/>
</clipPath>
<clipPath id="clip2_2159_4629">
<rect width="16" height="16" fill="white" transform="translate(328 5.99512)"/>
</clipPath>
</defs>
</svg>
