<svg xmlns="http://www.w3.org/2000/svg" xmlns:xlink="http://www.w3.org/1999/xlink" width="1000" height="232" viewBox="0 0 1000 232">
  <defs>
    <clipPath id="clip-path">
      <rect width="624" height="160" fill="none"/>
    </clipPath>
  </defs>
  <g id="Example_outlined_" data-name="Example (outlined)" transform="translate(-360 -2574)">
    <rect id="Rectangle" width="1000" height="232" transform="translate(360 2574)" fill="#fff"/>
    <rect id="Rectangle-2" data-name="Rectangle" width="768" height="160" transform="translate(360 2646)" fill="#f5f5f5"/>
    <g id="Grid" transform="translate(432 2646)" opacity="0.03" clip-path="url(#clip-path)">
      <g transform="translate(-390 -2646)">
        <rect id="Rectangle-3" data-name="Rectangle" width="41" height="160" transform="translate(390 2646)" fill="#e00"/>
      </g>
      <g transform="translate(-337 -2646)">
        <rect id="Rectangle-4" data-name="Rectangle" width="41" height="160" transform="translate(390 2646)" fill="#e00"/>
      </g>
      <g transform="translate(-284 -2646)">
        <rect id="Rectangle-5" data-name="Rectangle" width="41" height="160" transform="translate(390 2646)" fill="#e00"/>
      </g>
      <g transform="translate(-231 -2646)">
        <rect id="Rectangle-6" data-name="Rectangle" width="41" height="160" transform="translate(390 2646)" fill="#e00"/>
      </g>
      <g transform="translate(-178 -2646)">
        <rect id="Rectangle-7" data-name="Rectangle" width="41" height="160" transform="translate(390 2646)" fill="#e00"/>
      </g>
      <g transform="translate(-125 -2646)">
        <rect id="Rectangle-8" data-name="Rectangle" width="41" height="160" transform="translate(390 2646)" fill="#e00"/>
      </g>
      <g transform="translate(-72 -2646)">
        <rect id="Rectangle-9" data-name="Rectangle" width="41" height="160" transform="translate(390 2646)" fill="#e00"/>
      </g>
      <g transform="translate(-19 -2646)">
        <rect id="Rectangle-10" data-name="Rectangle" width="41" height="160" transform="translate(390 2646)" fill="#e00"/>
      </g>
      <g transform="translate(34 -2646)">
        <rect id="Rectangle-11" data-name="Rectangle" width="41" height="160" transform="translate(390 2646)" fill="#e00"/>
      </g>
      <g transform="translate(87 -2646)">
        <rect id="Rectangle-12" data-name="Rectangle" width="41" height="160" transform="translate(390 2646)" fill="#e00"/>
      </g>
      <g transform="translate(140 -2646)">
        <rect id="Rectangle-13" data-name="Rectangle" width="41" height="160" transform="translate(390 2646)" fill="#e00"/>
      </g>
      <g transform="translate(193 -2646)">
        <rect id="Rectangle-14" data-name="Rectangle" width="41" height="160" transform="translate(390 2646)" fill="#e00"/>
      </g>
    </g>
    <g id="Navigation" transform="translate(0 2353)">
      <rect id="Rectangle-15" data-name="Rectangle" width="768" height="72" transform="translate(360 221)" fill="#b8bbbe"/>
      <g id="Utility" transform="translate(-73 5)">
        <g id="Label" transform="translate(0 -5)">
          <rect id="Rectangle-16" data-name="Rectangle" width="33" height="18" transform="translate(1124 261)" fill="none"/>
          <path id="Path" d="M1.068,0H6.732V-.816H1.992V-8.4H1.068ZM7.644-2.928A2.9,2.9,0,0,0,10.488.12a2.9,2.9,0,0,0,2.856-3.048,2.874,2.874,0,0,0-2.856-3.024A2.872,2.872,0,0,0,7.644-2.928ZM10.488-.66a2.065,2.065,0,0,1-1.98-2.256,2.083,2.083,0,0,1,1.98-2.268A2.092,2.092,0,0,1,12.48-2.916,2.081,2.081,0,0,1,10.488-.66Zm6.84.732A2.308,2.308,0,0,0,19.2-.792v1.1c0,.984-.564,1.5-1.632,1.5a3.937,3.937,0,0,1-1.872-.54l-.372.672a4.7,4.7,0,0,0,2.28.612c1.6,0,2.472-.8,2.472-2.256V-5.856h-.864V-5.1a2.363,2.363,0,0,0-1.836-.828,2.848,2.848,0,0,0-2.748,3A2.826,2.826,0,0,0,17.328.072Zm-1.836-3A2.09,2.09,0,0,1,17.544-5.16a2.1,2.1,0,0,1,1.656.792v2.892a2.015,2.015,0,0,1-1.656.792A2.1,2.1,0,0,1,15.492-2.928ZM25.116-7.3a.622.622,0,0,0,.624-.636.635.635,0,0,0-.624-.624.638.638,0,0,0-.636.624A.625.625,0,0,0,25.116-7.3Zm.432,1.44h-.876V0h.876ZM27.348,0h.876V-4.32a1.726,1.726,0,0,1,1.536-.9,1.518,1.518,0,0,1,1.572,1.68V0h.876V-3.792a2.038,2.038,0,0,0-2.124-2.16,2.11,2.11,0,0,0-1.86,1.044v-.948h-.876Z" transform="translate(1124 274)" fill="#fff"/>
        </g>
        <g id="Icon" transform="translate(1132 234)">
          <path id="Path-2" data-name="Path" d="M0,18a9,9,0,0,1,18,0" fill="none" stroke="#fff" stroke-linecap="round" stroke-miterlimit="10" stroke-width="1.4"/>
          <circle id="Ellipse" cx="4.5" cy="4.5" r="4.5" transform="translate(4.5)" fill="none" stroke="#fff" stroke-linecap="round" stroke-miterlimit="10" stroke-width="1.4"/>
        </g>
      </g>
      <g id="Utility-2" data-name="Utility" transform="translate(-156 5)">
        <g id="Label-2" data-name="Label" transform="translate(0 -5)">
          <rect id="Rectangle-17" data-name="Rectangle" width="59" height="18" transform="translate(1124 261)" fill="none"/>
          <path id="Path-3" data-name="Path" d="M.108,0H1.08l1-2.64H5.82l1,2.64h1L4.536-8.4h-1.1ZM2.364-3.372l1.584-4.2,1.6,4.2ZM9.7-8.76l-.876.18V0H9.7Zm2.676,0-.876.18V0h.876ZM17.136,0h.924V-3.588h2.508L22.272,0h1.02L21.5-3.708a2.286,2.286,0,0,0,1.752-2.268A2.417,2.417,0,0,0,20.58-8.4H17.136Zm3.372-7.584a1.623,1.623,0,0,1,1.824,1.62,1.621,1.621,0,0,1-1.824,1.608H18.06V-7.584Zm8.76,6.912-.552-.588a2.393,2.393,0,0,1-1.608.6A2.134,2.134,0,0,1,25.02-2.736h4.6V-3a2.766,2.766,0,0,0-2.688-2.952,2.85,2.85,0,0,0-2.76,3.024,2.923,2.923,0,0,0,2.9,3.036A3.419,3.419,0,0,0,29.268-.672ZM26.916-5.2A1.934,1.934,0,0,1,28.752-3.36H25.044A1.956,1.956,0,0,1,26.916-5.2ZM35.436,0h.876V-8.76l-.876.18v3.468a2.385,2.385,0,0,0-1.824-.816,2.852,2.852,0,0,0-2.748,3.012,2.826,2.826,0,0,0,2.7,3A2.308,2.308,0,0,0,35.436-.78ZM31.728-2.928A2.09,2.09,0,0,1,33.78-5.16a2.1,2.1,0,0,1,1.656.792v2.9a2.006,2.006,0,0,1-1.656.78A2.1,2.1,0,0,1,31.728-2.928ZM41.064,0h.924V-3.816h4.824V0h.924V-8.4h-.924v3.756H41.988V-8.4h-.924ZM51.372.108a2.514,2.514,0,0,0,1.86-.792V0H54.1V-3.888c0-1.332-.816-2.064-2.268-2.064a5.017,5.017,0,0,0-2.208.564l.324.672a3.867,3.867,0,0,1,1.776-.5,1.319,1.319,0,0,1,1.512,1.452v.8a3.391,3.391,0,0,0-1.788-.456c-1.32,0-2.2.7-2.2,1.74A1.891,1.891,0,0,0,51.372.108ZM50.088-1.7c0-.648.588-1.08,1.488-1.08a3.091,3.091,0,0,1,1.656.42v1.128a2.318,2.318,0,0,1-1.68.672C50.676-.564,50.088-1.02,50.088-1.7Zm6.3.384c0,.936.528,1.428,1.536,1.428a3.289,3.289,0,0,0,1.02-.156v-.78a2.1,2.1,0,0,1-.828.156c-.612,0-.852-.252-.852-.876V-5.136h1.68v-.72h-1.68V-7.668l-.876.2v1.608H55.176v.72h1.212Z" transform="translate(1124 274)" fill="#fff"/>
        </g>
        <path id="Icon-2" data-name="Icon" d="M18,16.5A1.5,1.5,0,1,1,16.5,15,1.538,1.538,0,0,1,18,16.5ZM9,15a1.5,1.5,0,1,0,1.5,1.5A1.538,1.538,0,0,0,9,15ZM1.5,15a1.5,1.5,0,0,0,0,3,1.5,1.5,0,0,0,0-3Zm15-7.5A1.5,1.5,0,1,0,18,9,1.538,1.538,0,0,0,16.5,7.5ZM9,7.5A1.5,1.5,0,1,0,10.5,9,1.538,1.538,0,0,0,9,7.5Zm-7.5,0a1.5,1.5,0,0,0,0,3,1.5,1.5,0,0,0,0-3ZM16.5,0A1.538,1.538,0,0,0,15,1.5a1.5,1.5,0,0,0,3,0A1.538,1.538,0,0,0,16.5,0ZM9,0A1.538,1.538,0,0,0,7.5,1.5a1.5,1.5,0,0,0,3,0A1.538,1.538,0,0,0,9,0ZM1.5,0A1.538,1.538,0,0,0,0,1.5,1.538,1.538,0,0,0,1.5,3,1.538,1.538,0,0,0,3,1.5,1.538,1.538,0,0,0,1.5,0Z" transform="translate(1145 234)" fill="#fff"/>
      </g>
      <g id="Utility-3" data-name="Utility" transform="translate(-222 5)">
        <g id="Label-3" data-name="Label" transform="translate(0 -5)">
          <rect id="Rectangle-18" data-name="Rectangle" width="42" height="18" transform="translate(1124 261)" fill="none"/>
          <path id="Path-4" data-name="Path" d="M4.968-.708A3.363,3.363,0,0,1,1.608-4.2,3.359,3.359,0,0,1,4.944-7.692,3.367,3.367,0,0,1,7.5-6.516l.612-.636a4.2,4.2,0,0,0-3.168-1.38A4.257,4.257,0,0,0,.672-4.2,4.257,4.257,0,0,0,4.944.132a4.224,4.224,0,0,0,3.144-1.38l-.6-.612A3.291,3.291,0,0,1,4.968-.708Zm5.316-5.148H9.4v3.78A2.048,2.048,0,0,0,11.52.1,2.1,2.1,0,0,0,13.38-.948V0h.876V-5.856H13.38v4.332a1.739,1.739,0,0,1-1.536.888,1.513,1.513,0,0,1-1.56-1.692Zm5.208,5.1a3.339,3.339,0,0,0,2.376.864A2.051,2.051,0,0,0,20.148-1.7c0-.864-.528-1.356-1.7-1.572l-.984-.18c-.756-.132-1.008-.36-1.008-.84,0-.576.5-.936,1.272-.936a3.106,3.106,0,0,1,1.836.624l.432-.612a3.786,3.786,0,0,0-2.232-.732c-1.236,0-2.112.708-2.112,1.716,0,.852.516,1.332,1.656,1.536l.96.168c.744.144,1.056.4,1.056.876C19.32-1.044,18.7-.6,17.844-.6a3.054,3.054,0,0,1-1.884-.732Zm6.564-.564c0,.936.528,1.428,1.536,1.428a3.289,3.289,0,0,0,1.02-.156v-.78a2.1,2.1,0,0,1-.828.156c-.612,0-.852-.252-.852-.876V-5.136h1.68v-.72h-1.68V-7.668l-.876.2v1.608H20.844v.72h1.212Zm3.432-1.608A2.9,2.9,0,0,0,28.332.12a2.9,2.9,0,0,0,2.856-3.048,2.874,2.874,0,0,0-2.856-3.024A2.872,2.872,0,0,0,25.488-2.928ZM28.332-.66a2.065,2.065,0,0,1-1.98-2.256,2.083,2.083,0,0,1,1.98-2.268,2.092,2.092,0,0,1,1.992,2.268A2.081,2.081,0,0,1,28.332-.66ZM32.724,0H33.6V-4.356a1.6,1.6,0,0,1,1.428-.864A1.455,1.455,0,0,1,36.48-3.564V0h.876V-3.78a2.429,2.429,0,0,0-.048-.516,1.629,1.629,0,0,1,1.464-.924c.888,0,1.44.636,1.44,1.656V0h.876V-3.78A1.993,1.993,0,0,0,39.1-5.952a2.164,2.164,0,0,0-1.956,1.14,1.925,1.925,0,0,0-1.8-1.14A2.005,2.005,0,0,0,33.6-4.944v-.912h-.876Z" transform="translate(1124 274)" fill="#fff"/>
        </g>
        <g id="Ellipse-2" data-name="Ellipse" transform="translate(1136 234)" fill="none" stroke="#fff" stroke-width="1.4">
          <circle cx="9" cy="9" r="9" stroke="none"/>
          <circle cx="9" cy="9" r="8.3" fill="none"/>
        </g>
      </g>
      <g id="Utility-4" data-name="Utility" transform="translate(-273 5)">
        <g id="Label-4" data-name="Label" transform="translate(-10 -5)">
          <rect id="Rectangle-19" data-name="Rectangle" width="37" height="18" transform="translate(1124 261)" fill="none"/>
          <path id="Path-5" data-name="Path" d="M.336-1.308A4.832,4.832,0,0,0,3.78.12C5.628.12,6.972-.96,6.972-2.412c0-1.26-.768-1.932-2.556-2.256L3.072-4.9C1.944-5.076,1.488-5.46,1.488-6.2c0-.876.828-1.524,2-1.524A4.748,4.748,0,0,1,6.324-6.72l.48-.72A5.493,5.493,0,0,0,3.48-8.508c-1.7,0-2.88.984-2.88,2.4,0,1.128.684,1.764,2.22,2.04l1.356.228c1.368.24,1.872.636,1.872,1.476C6.048-1.392,5.1-.672,3.8-.672A3.912,3.912,0,0,1,.9-1.98Zm13,.636L12.78-1.26a2.393,2.393,0,0,1-1.608.6A2.134,2.134,0,0,1,9.084-2.736h4.6V-3a2.766,2.766,0,0,0-2.688-2.952,2.85,2.85,0,0,0-2.76,3.024,2.923,2.923,0,0,0,2.9,3.036A3.419,3.419,0,0,0,13.332-.672ZM10.98-5.2A1.934,1.934,0,0,1,12.816-3.36H9.108A1.956,1.956,0,0,1,10.98-5.2ZM16.9.108a2.514,2.514,0,0,0,1.86-.792V0h.864V-3.888c0-1.332-.816-2.064-2.268-2.064a5.017,5.017,0,0,0-2.208.564l.324.672a3.867,3.867,0,0,1,1.776-.5,1.319,1.319,0,0,1,1.512,1.452v.8a3.391,3.391,0,0,0-1.788-.456c-1.32,0-2.2.7-2.2,1.74A1.891,1.891,0,0,0,16.9.108ZM15.612-1.7c0-.648.588-1.08,1.488-1.08a3.091,3.091,0,0,1,1.656.42v1.128a2.318,2.318,0,0,1-1.68.672C16.2-.564,15.612-1.02,15.612-1.7ZM21.4,0h.876V-4.008A1.669,1.669,0,0,1,23.844-5.2a2.19,2.19,0,0,1,.612.108V-5.88a1.663,1.663,0,0,0-.552-.084,1.749,1.749,0,0,0-1.632,1.3V-5.856H21.4Zm6.528-.684A2.124,2.124,0,0,1,25.86-2.928,2.126,2.126,0,0,1,27.912-5.16a2.3,2.3,0,0,1,1.656.732l.564-.612a3.194,3.194,0,0,0-2.256-.912,2.925,2.925,0,0,0-2.892,3.024A2.935,2.935,0,0,0,27.876.108,3.046,3.046,0,0,0,30.1-.84l-.54-.54A2.157,2.157,0,0,1,27.924-.684ZM31.356,0h.876V-4.32a1.726,1.726,0,0,1,1.536-.9A1.518,1.518,0,0,1,35.34-3.54V0h.876V-3.792a2.038,2.038,0,0,0-2.124-2.16,2.11,2.11,0,0,0-1.86,1.044V-8.76l-.876.18Z" transform="translate(1124 274)" fill="#fff"/>
        </g>
        <g id="Icon-3" data-name="Icon" transform="translate(1123 233)">
          <line id="Line" x2="6" y2="6" transform="translate(13 13)" fill="none" stroke="#fff" stroke-linecap="round" stroke-miterlimit="10" stroke-width="1.4"/>
          <circle id="Ellipse-3" data-name="Ellipse" cx="7" cy="7" r="7" transform="translate(1 1)" fill="none" stroke="#fff" stroke-miterlimit="10" stroke-width="1.4"/>
        </g>
      </g>
      <g id="Utility-5" data-name="Utility" transform="translate(-560 5)">
        <g id="Label-5" data-name="Label" transform="translate(0 -5)">
          <rect id="Rectangle-20" data-name="Rectangle" width="30" height="18" transform="translate(1124 261)" fill="none"/>
          <path id="Path-6" data-name="Path" d="M5.16-.6,8.376-7.308V0h.876V-8.4H7.968L5.16-2.424,2.352-8.4H1.068V0h.864V-7.332ZM16.068-.672l-.552-.588a2.393,2.393,0,0,1-1.608.6A2.134,2.134,0,0,1,11.82-2.736h4.6V-3a2.766,2.766,0,0,0-2.688-2.952,2.85,2.85,0,0,0-2.76,3.024,2.923,2.923,0,0,0,2.9,3.036A3.419,3.419,0,0,0,16.068-.672ZM13.716-5.2A1.934,1.934,0,0,1,15.552-3.36H11.844A1.956,1.956,0,0,1,13.716-5.2Zm4.2,5.2h.876V-4.32a1.726,1.726,0,0,1,1.536-.9A1.518,1.518,0,0,1,21.9-3.54V0h.876V-3.792a2.038,2.038,0,0,0-2.124-2.16,2.11,2.11,0,0,0-1.86,1.044v-.948h-.876Zm7.416-5.856h-.888v3.78A2.048,2.048,0,0,0,26.568.1a2.1,2.1,0,0,0,1.86-1.044V0H29.3V-5.856h-.876v4.332a1.739,1.739,0,0,1-1.536.888,1.513,1.513,0,0,1-1.56-1.692Z" transform="translate(1124 274)" fill="#fff"/>
        </g>
        <g id="Icon-4" data-name="Icon" transform="translate(562 -13)">
          <rect id="Rectangle-21" data-name="Rectangle" width="18" height="18" transform="translate(568 247)" fill="none"/>
          <line id="Line-2" data-name="Line" x2="18" transform="translate(568 263)" fill="none" stroke="#fff" stroke-linecap="round" stroke-width="1.4"/>
          <line id="Line-3" data-name="Line" x2="18" transform="translate(568 256)" fill="none" stroke="#fff" stroke-linecap="round" stroke-width="1.4"/>
          <line id="Line-4" data-name="Line" x2="18" transform="translate(568 249)" fill="none" stroke="#fff" stroke-linecap="round" stroke-width="1.4"/>
        </g>
      </g>
      <g id="Logo" transform="translate(391.5 240.5)">
        <path id="Path-7" data-name="Path" d="M304.6,45.822c0,2.644,1.6,3.933,4.489,3.933a11.863,11.863,0,0,0,2.644-.378V46.311a5.616,5.616,0,0,1-1.711.267c-1.2,0-1.644-.378-1.644-1.489V40.378h3.467V37.222h-3.467v-4l-3.778.822v3.178h-2.511v3.156h2.489v5.444Zm-11.778.067c0-.822.822-1.222,2.067-1.222a8.522,8.522,0,0,1,2.244.289v1.6a4.628,4.628,0,0,1-2.356.578c-1.222,0-1.956-.467-1.956-1.244m1.156,3.911a5.931,5.931,0,0,0,3.422-.956V49.6h3.733V41.667c0-3.022-2.022-4.667-5.422-4.667a13.842,13.842,0,0,0-5.778,1.356l1.356,2.778a10.232,10.232,0,0,1,3.733-.978c1.556,0,2.356.6,2.356,1.844v.6a10.872,10.872,0,0,0-2.8-.356c-3.178,0-5.089,1.333-5.089,3.711,0,2.178,1.733,3.844,4.489,3.844m-20.533-.2h4.022V43.178H284.2v6.4h4.022V33.222H284.2v6.289h-6.733V33.222h-4.022Zm-15.311-6.2a3.128,3.128,0,0,1,3.244-3.133,3.937,3.937,0,0,1,2.622.956v4.333a3.693,3.693,0,0,1-2.622,1,3.174,3.174,0,0,1-3.244-3.156m5.911,6.2h3.733V32.4L264,33.222v4.644a6.368,6.368,0,1,0-3.378,11.867h.111a5.658,5.658,0,0,0,3.311-1.067Zm-17.156-9.511a2.747,2.747,0,0,1,2.6,1.956h-5.156a2.568,2.568,0,0,1,2.556-1.956m-6.378,3.333a6.481,6.481,0,0,0,6.733,6.4,7.35,7.35,0,0,0,5.156-1.867l-2.511-2.222a3.352,3.352,0,0,1-2.467.933,3.194,3.194,0,0,1-3.044-1.956h8.8v-.933c0-3.933-2.644-6.756-6.244-6.756a6.351,6.351,0,0,0-6.444,6.244.329.329,0,0,1,.022.156M234,36.667a1.859,1.859,0,1,1,0,3.689h-3.978V36.667Zm-8,12.911h4.022V43.622h3.067l3.089,5.956h4.489l-3.6-6.556a4.96,4.96,0,0,0,3.089-4.6c0-2.933-2.311-5.222-5.778-5.222H226Z" transform="translate(-175.389 -24.811)" fill="#fff"/>
        <path id="Path-8" data-name="Path" d="M28.722,18.944c2.778,0,6.8-.578,6.8-3.889a4.34,4.34,0,0,0-.067-.756L33.811,7.1c-.378-1.578-.711-2.311-3.489-3.689C28.167,2.3,23.478.5,22.078.5c-1.311,0-1.689,1.667-3.222,1.667-1.489,0-2.578-1.244-3.978-1.244-1.333,0-2.2.911-2.867,2.778,0,0-1.867,5.267-2.111,6.044a1.367,1.367,0,0,0-.044.422c-.022,2.044,8.044,8.756,18.867,8.778m7.222-2.533a11.462,11.462,0,0,1,.378,2.244c0,3.111-3.489,4.844-8.089,4.844-10.4,0-19.489-6.089-19.489-10.111a4.077,4.077,0,0,1,.333-1.622C5.344,11.944.5,12.611.5,16.878c0,7,16.578,15.622,29.689,15.622,10.067,0,12.6-4.556,12.6-8.156,0-2.822-2.444-6.022-6.844-7.933" fill="#e00"/>
        <path id="Path-9" data-name="Path" d="M64.8,48.767a11.462,11.462,0,0,1,.378,2.244c0,3.111-3.489,4.844-8.089,4.844-10.4,0-19.489-6.089-19.489-10.111a4.077,4.077,0,0,1,.333-1.622l.822-2.022a1.367,1.367,0,0,0-.044.422c0,2.044,8.067,8.756,18.867,8.756,2.778,0,6.8-.578,6.8-3.889a4.34,4.34,0,0,0-.067-.756Z" transform="translate(-28.856 -32.356)"/>
      </g>
    </g>
  </g>
</svg>
