<svg viewBox="0 0 872 200" xmlns="http://www.w3.org/2000/svg">
  <path fill="#151515" d="M0 0h872v200H0z"/>
  <g fill="none" stroke="#fff" transform="translate(601 72)">
    <rect width="207" height="56" stroke="none" rx="3"/>
    <rect width="206" height="55" x=".5" y=".5" rx="2.5"/>
  </g>
  <path fill="#fff" d="M634.008 106h2.32v-4.288h2.528l2.192 4.288h2.592l-2.48-4.608a3.326 3.326 0 0 0 2.192-3.12c0-2.048-1.6-3.472-3.872-3.472h-5.472Zm5.264-9.2A1.539 1.539 0 0 1 641 98.3a1.539 1.539 0 0 1-1.728 1.5h-2.944v-3Zm12.448 8.16-1.44-1.312a2.624 2.624 0 0 1-1.84.672 2.4 2.4 0 0 1-2.368-1.744h6.208V102a4.207 4.207 0 0 0-4.128-4.48 4.255 4.255 0 0 0-4.288 4.32 4.34 4.34 0 0 0 4.48 4.32 5 5 0 0 0 3.376-1.2Zm-3.62-5.632a2.151 2.151 0 0 1 2.032 1.68h-4.08a2.094 2.094 0 0 1 2.048-1.68Zm8.132 6.816a3.962 3.962 0 0 0 2.416-.72V106h2.16v-5.408c0-1.968-1.3-3.088-3.552-3.088a8.692 8.692 0 0 0-3.712.9l.8 1.616a6.46 6.46 0 0 1 2.544-.688c1.168 0 1.76.5 1.76 1.456v.592a6.742 6.742 0 0 0-2.032-.32c-2.144 0-3.424.944-3.424 2.528 0 1.512 1.248 2.556 3.04 2.556Zm-.944-2.608c0-.64.592-1.04 1.6-1.04a4.843 4.843 0 0 1 1.76.3v1.248a3.156 3.156 0 0 1-1.84.528c-.928.004-1.52-.396-1.52-1.036ZM668.7 106h2.16V94.32l-2.192.48v3.408a4.143 4.143 0 0 0-2.272-.656 4.238 4.238 0 0 0-4.3 4.272 4.228 4.228 0 0 0 4.232 4.288 3.78 3.78 0 0 0 2.368-.8Zm-4.452-4.176a2.368 2.368 0 0 1 2.432-2.416 2.752 2.752 0 0 1 1.984.784v3.248a2.674 2.674 0 0 1-1.984.8 2.388 2.388 0 0 1-2.432-2.416Zm12.688 1.824c0 1.632.96 2.48 2.816 2.48a6.8 6.8 0 0 0 1.7-.256v-1.792a3.372 3.372 0 0 1-1.168.192c-.848 0-1.152-.288-1.152-1.072v-3.7h2.368v-1.84h-2.372v-2.62l-2.192.5v2.128h-1.712V99.5h1.712Zm5.648 2.352h2.192v-5.776a2 2 0 0 1 1.712-.832 1.625 1.625 0 0 1 1.728 1.744V106h2.192v-5.184a3.163 3.163 0 0 0-3.3-3.312 3.578 3.578 0 0 0-2.336.816v-4l-2.192.48Zm16.96-1.04-1.444-1.312a2.624 2.624 0 0 1-1.84.672 2.4 2.4 0 0 1-2.36-1.744h6.2V102a4.207 4.207 0 0 0-4.128-4.48 4.255 4.255 0 0 0-4.288 4.32 4.34 4.34 0 0 0 4.484 4.32 5 5 0 0 0 3.376-1.2Zm-3.616-5.632a2.151 2.151 0 0 1 2.032 1.68h-4.08a2.094 2.094 0 0 1 2.048-1.68Zm17.5 2.512a4.228 4.228 0 0 0-4.24-4.288 3.859 3.859 0 0 0-2.336.768v-4l-2.192.48V106h2.16v-.56a4.264 4.264 0 0 0 2.3.672 4.238 4.238 0 0 0 4.312-4.272Zm-4.588-2.416a2.387 2.387 0 0 1 2.432 2.416 2.378 2.378 0 0 1-2.432 2.416 2.808 2.808 0 0 1-1.984-.768v-3.28a2.688 2.688 0 0 1 1.984-.784Zm8.128-5.1-2.192.48V106h2.192Zm1.332 7.516a4.332 4.332 0 0 0 4.444 4.32 4.332 4.332 0 0 0 4.448-4.32 4.345 4.345 0 0 0-4.448-4.34 4.345 4.345 0 0 0-4.444 4.34Zm4.448 2.416a2.341 2.341 0 0 1-2.3-2.416 2.345 2.345 0 0 1 2.3-2.432 2.335 2.335 0 0 1 2.3 2.432 2.341 2.341 0 0 1-2.304 2.416Zm9.692 1.792a3.773 3.773 0 0 0 2.288-.748v.688c0 1.088-.672 1.664-1.984 1.664a5.938 5.938 0 0 1-2.656-.676l-.768 1.712a7.752 7.752 0 0 0 3.472.752c2.672 0 4.128-1.232 4.128-3.44v-8.336h-2.16v.544a4.065 4.065 0 0 0-2.26-.672 4.228 4.228 0 0 0-4.288 4.24 4.22 4.22 0 0 0 4.228 4.272Zm-2.064-4.272a2.364 2.364 0 0 1 2.416-2.368 2.8 2.8 0 0 1 1.936.752v3.28a2.746 2.746 0 0 1-1.952.752 2.371 2.371 0 0 1-2.4-2.416Zm11.488 7.568h2.192v-3.888a4.143 4.143 0 0 0 2.272.656 4.238 4.238 0 0 0 4.3-4.272 4.228 4.228 0 0 0-4.24-4.288 3.78 3.78 0 0 0-2.368.8v-.688h-2.16Zm4.176-9.92a2.387 2.387 0 0 1 2.432 2.416 2.378 2.378 0 0 1-2.432 2.416 2.808 2.808 0 0 1-1.984-.768v-3.28a2.688 2.688 0 0 1 1.984-.784Zm5.616 2.416a4.332 4.332 0 0 0 4.444 4.32 4.332 4.332 0 0 0 4.448-4.32 4.345 4.345 0 0 0-4.448-4.34 4.345 4.345 0 0 0-4.444 4.34Zm4.444 2.416a2.341 2.341 0 0 1-2.3-2.416 2.345 2.345 0 0 1 2.3-2.432 2.335 2.335 0 0 1 2.3 2.432 2.341 2.341 0 0 1-2.3 2.416Zm5.088.752a6.143 6.143 0 0 0 3.828 1.152c2.1 0 3.648-1.184 3.648-2.752 0-1.3-.912-2.144-2.544-2.384l-1.6-.24c-.816-.112-1.136-.336-1.136-.784 0-.5.512-.816 1.312-.816a4.921 4.921 0 0 1 2.576.8l1.056-1.408a6.149 6.149 0 0 0-3.424-1.04c-2.128 0-3.472 1.024-3.472 2.64 0 1.344.88 2.16 2.528 2.416l1.6.24c.72.112 1.04.352 1.04.784 0 .528-.64.88-1.616.88a4.854 4.854 0 0 1-2.7-.944Zm9.536-1.36c0 1.632.96 2.48 2.816 2.48a6.8 6.8 0 0 0 1.7-.256v-1.792a3.372 3.372 0 0 1-1.168.192c-.848 0-1.152-.288-1.152-1.072v-3.7h2.368v-1.84h-2.368v-2.62l-2.192.5v2.128h-1.712V99.5h1.712Zm-255.986 41.534a.982.982 0 1 0 .936.972.964.964 0 0 0-.936-.972Z"/>
  <path fill="#73bcf7" d="M362.746 140.7a6.268 6.268 0 1 0-6.264 6.5 6.323 6.323 0 0 0 6.264-6.5Zm-1.4 0a4.874 4.874 0 1 1-9.72 0 4.874 4.874 0 1 1 9.72 0Zm3.78 10.062h1.314V145.9a3.561 3.561 0 0 0 2.754 1.224 4.278 4.278 0 0 0 4.122-4.518 4.239 4.239 0 0 0-4.05-4.5 3.466 3.466 0 0 0-2.844 1.368v-1.26h-1.3Zm3.816-11.5a3.151 3.151 0 0 1 3.078 3.366 3.151 3.151 0 0 1-3.078 3.366 3.087 3.087 0 0 1-2.5-1.224v-4.3a3 3 0 0 1 2.496-1.21Zm13.95 6.732-.828-.882a3.589 3.589 0 0 1-2.412.9 3.2 3.2 0 0 1-3.132-3.114h6.894v-.4a4.15 4.15 0 0 0-4.032-4.428 4.275 4.275 0 0 0-4.14 4.536 4.384 4.384 0 0 0 4.356 4.554 5.128 5.128 0 0 0 3.29-1.168Zm-3.528-6.786a2.9 2.9 0 0 1 2.754 2.754h-5.562a2.934 2.934 0 0 1 2.804-2.756ZM385.66 147h1.314v-6.48a2.589 2.589 0 0 1 2.3-1.35 2.277 2.277 0 0 1 2.358 2.52V147h1.314v-5.688a3.057 3.057 0 0 0-3.186-3.24 3.165 3.165 0 0 0-2.79 1.566v-1.422h-1.31Zm9.09-1.962a7.248 7.248 0 0 0 5.166 2.142c2.772 0 4.788-1.62 4.788-3.8 0-1.89-1.152-2.9-3.834-3.384l-2.016-.342c-1.692-.27-2.376-.846-2.376-1.962 0-1.314 1.242-2.286 3.006-2.286a7.122 7.122 0 0 1 4.248 1.512l.72-1.08a8.24 8.24 0 0 0-4.986-1.6c-2.556 0-4.32 1.476-4.32 3.6 0 1.692 1.026 2.646 3.33 3.06l2.034.342c2.052.36 2.808.954 2.808 2.214 0 1.458-1.422 2.538-3.366 2.538a5.868 5.868 0 0 1-4.352-1.962Zm12.834-.018c0 1.4.792 2.142 2.3 2.142a4.934 4.934 0 0 0 1.53-.234v-1.17a3.155 3.155 0 0 1-1.242.234c-.918 0-1.278-.378-1.278-1.314V139.3h2.52v-1.08H408.9v-2.72l-1.314.306v2.412h-1.818v1.082h1.818Zm8.478 2.142a3.771 3.771 0 0 0 2.79-1.188V147h1.3v-5.832c0-2-1.224-3.1-3.4-3.1a7.526 7.526 0 0 0-3.312.846l.486 1.008a5.8 5.8 0 0 1 2.664-.756 1.978 1.978 0 0 1 2.268 2.178v1.206a5.086 5.086 0 0 0-2.682-.684c-1.98 0-3.294 1.044-3.294 2.61-.006 1.588 1.308 2.686 3.18 2.686Zm-1.926-2.718c0-.972.882-1.62 2.232-1.62a4.637 4.637 0 0 1 2.484.63v1.692a3.477 3.477 0 0 1-2.52 1.008c-1.314 0-2.196-.684-2.196-1.71Zm12.69 1.53a3.369 3.369 0 0 1-.018-6.714 3.452 3.452 0 0 1 2.484 1.1l.846-.918a4.791 4.791 0 0 0-3.384-1.368 4.55 4.55 0 0 0 0 9.09 4.569 4.569 0 0 0 3.33-1.422l-.81-.81a3.236 3.236 0 0 1-2.448 1.042Zm5.148 1.026h1.314v-4.194l4.23 4.194h1.728l-4.662-4.608 4.464-4.176h-1.584l-4.176 3.942v-8.3l-1.314.27Zm13 3.762h1.314V145.9a3.561 3.561 0 0 0 2.754 1.224 4.278 4.278 0 0 0 4.122-4.518 4.239 4.239 0 0 0-4.05-4.5 3.466 3.466 0 0 0-2.844 1.368v-1.26h-1.3Zm3.816-11.5a3.151 3.151 0 0 1 3.078 3.366 3.151 3.151 0 0 1-3.078 3.366 3.087 3.087 0 0 1-2.5-1.224v-4.3a3 3 0 0 1 2.496-1.21Zm7.992-5.4-1.314.27V147h1.314Zm5.418 13.3a3.771 3.771 0 0 0 2.79-1.188V147h1.3v-5.832c0-2-1.224-3.1-3.4-3.1a7.526 7.526 0 0 0-3.312.846l.486 1.008a5.8 5.8 0 0 1 2.664-.756 1.978 1.978 0 0 1 2.268 2.178v1.206a5.086 5.086 0 0 0-2.682-.684c-1.98 0-3.294 1.044-3.294 2.61-.01 1.588 1.304 2.686 3.18 2.686Zm-1.926-2.718c0-.972.882-1.62 2.232-1.62a4.637 4.637 0 0 1 2.484.63v1.692a3.477 3.477 0 0 1-2.52 1.008c-1.318 0-2.2-.684-2.2-1.71Zm9.45.576c0 1.4.792 2.142 2.3 2.142a4.934 4.934 0 0 0 1.53-.234v-1.17a3.155 3.155 0 0 1-1.242.234c-.918 0-1.278-.378-1.278-1.314V139.3h2.52v-1.08h-2.52v-2.72l-1.314.306v2.412h-1.82v1.082h1.818Zm5.094-6.8v1.08h1.962v7.7h1.314v-7.7h2.5v-1.08h-2.5v-1.912c0-1.044.432-1.53 1.44-1.53a3.623 3.623 0 0 1 1.062.162v-1.188a3.711 3.711 0 0 0-1.188-.162 2.41 2.41 0 0 0-2.628 2.7v1.926Zm6.714 4.392a4.285 4.285 0 1 0 8.55 0 4.283 4.283 0 1 0-8.55 0Zm4.266 3.4a3.1 3.1 0 0 1-2.97-3.384 3.005 3.005 0 1 1 5.958 0 3.121 3.121 0 0 1-2.992 3.382Zm6.588.99h1.314v-6.014a2.5 2.5 0 0 1 2.358-1.782 3.284 3.284 0 0 1 .918.162v-1.188a2.494 2.494 0 0 0-.828-.126A2.624 2.624 0 0 0 493.7 140v-1.784h-1.314Zm6.336 0h1.314v-6.536a2.407 2.407 0 0 1 2.142-1.3 2.182 2.182 0 0 1 2.178 2.484V147h1.314v-5.67a3.644 3.644 0 0 0-.072-.774 2.444 2.444 0 0 1 2.2-1.386c1.332 0 2.16.954 2.16 2.484V147h1.314v-5.67a2.989 2.989 0 0 0-2.988-3.258 3.245 3.245 0 0 0-2.934 1.71 2.887 2.887 0 0 0-2.7-1.71 3.008 3.008 0 0 0-2.61 1.512v-1.368h-1.314Z"/>
  <path fill="#fff" d="M297.721 142.608a4.285 4.285 0 1 0 8.55 0 4.283 4.283 0 1 0-8.55 0Zm4.266 3.4a3.1 3.1 0 0 1-2.97-3.384 3.005 3.005 0 1 1 5.958 0 3.121 3.121 0 0 1-2.988 3.386Zm5.184-7.794v1.086h1.962v7.7h1.314v-7.7h2.5v-1.08h-2.5v-1.912c0-1.044.432-1.53 1.44-1.53a3.623 3.623 0 0 1 1.062.162v-1.188a3.711 3.711 0 0 0-1.188-.162 2.41 2.41 0 0 0-2.628 2.7v1.926Zm12.744 6.8c0 1.4.792 2.142 2.3 2.142a4.934 4.934 0 0 0 1.53-.234v-1.17a3.155 3.155 0 0 1-1.242.234c-.918 0-1.278-.378-1.278-1.314V139.3h2.52v-1.08h-2.52v-2.72l-1.314.306v2.412H318.1v1.082h1.818Zm5.76 1.98h1.314v-6.474a2.589 2.589 0 0 1 2.3-1.35 2.277 2.277 0 0 1 2.358 2.52V147h1.314v-5.688a3.057 3.057 0 0 0-3.186-3.24 3.165 3.165 0 0 0-2.79 1.566v-5.778l-1.314.27Zm17.19-1.008-.828-.882a3.589 3.589 0 0 1-2.412.9 3.2 3.2 0 0 1-3.132-3.114h6.894v-.4a4.15 4.15 0 0 0-4.032-4.428 4.275 4.275 0 0 0-4.14 4.536 4.384 4.384 0 0 0 4.356 4.554 5.128 5.128 0 0 0 3.294-1.16Zm-3.528-6.786a2.9 2.9 0 0 1 2.754 2.754h-5.562a2.934 2.934 0 0 1 2.808-2.748Z"/>
  <path fill="#73bcf7" d="m188.29 133.86-1.314.27V147h1.314Zm5.418 13.3a3.771 3.771 0 0 0 2.79-1.188V147h1.3v-5.832c0-2-1.224-3.1-3.4-3.1a7.526 7.526 0 0 0-3.312.846l.486 1.008a5.8 5.8 0 0 1 2.664-.756 1.978 1.978 0 0 1 2.268 2.178v1.206a5.086 5.086 0 0 0-2.682-.684c-1.98 0-3.294 1.044-3.294 2.61-.006 1.588 1.308 2.686 3.18 2.686Zm-1.926-2.718c0-.972.882-1.62 2.232-1.62a4.637 4.637 0 0 1 2.484.63v1.692a3.477 3.477 0 0 1-2.52 1.008c-1.314.002-2.196-.682-2.196-1.708Zm9.45.576c0 1.4.792 2.142 2.3 2.142a4.934 4.934 0 0 0 1.53-.234v-1.17a3.155 3.155 0 0 1-1.242.234c-.918 0-1.278-.378-1.278-1.314V139.3h2.52v-1.08h-2.52v-2.72l-1.314.306v2.412h-1.818v1.082h1.818Zm12.8.972-.828-.882a3.589 3.589 0 0 1-2.412.9 3.2 3.2 0 0 1-3.132-3.114h6.894v-.4a4.15 4.15 0 0 0-4.032-4.428 4.275 4.275 0 0 0-4.14 4.536 4.384 4.384 0 0 0 4.356 4.554 5.128 5.128 0 0 0 3.292-1.164Zm-3.532-6.784a2.9 2.9 0 0 1 2.754 2.754h-5.562a2.934 2.934 0 0 1 2.808-2.754Zm5.544 6.66a5.008 5.008 0 0 0 3.564 1.3c1.944 0 3.42-1.188 3.42-2.718 0-1.3-.792-2.034-2.556-2.358l-1.472-.274c-1.134-.2-1.512-.54-1.512-1.26 0-.864.756-1.4 1.908-1.4a4.659 4.659 0 0 1 2.754.936l.648-.918a5.679 5.679 0 0 0-3.348-1.1c-1.854 0-3.168 1.062-3.168 2.574 0 1.278.774 2 2.484 2.3l1.44.252c1.116.216 1.584.594 1.584 1.314 0 .918-.936 1.584-2.214 1.584a4.581 4.581 0 0 1-2.826-1.1Zm9.846-.846c0 1.4.792 2.142 2.3 2.142a4.934 4.934 0 0 0 1.53-.234v-1.17a3.155 3.155 0 0 1-1.242.234c-.918 0-1.278-.378-1.278-1.314V139.3h2.52v-1.08h-2.52v-2.72l-1.314.306v2.412h-1.818v1.082h1.818Zm12.476 1.98h1.26l3.618-8.784h-1.4l-2.808 7.146-2.844-7.146h-1.422Zm13.482-1.008-.828-.882a3.589 3.589 0 0 1-2.412.9 3.2 3.2 0 0 1-3.132-3.114h6.894v-.4a4.15 4.15 0 0 0-4.032-4.428 4.275 4.275 0 0 0-4.14 4.536 4.384 4.384 0 0 0 4.356 4.554 5.128 5.128 0 0 0 3.294-1.166Zm-3.528-6.786a2.9 2.9 0 0 1 2.754 2.754h-5.562a2.934 2.934 0 0 1 2.808-2.754Zm6.3 7.794h1.314v-6.012a2.5 2.5 0 0 1 2.358-1.782 3.284 3.284 0 0 1 .918.162v-1.188a2.494 2.494 0 0 0-.828-.126 2.624 2.624 0 0 0-2.448 1.946v-1.784h-1.314Zm5.38-1.134a5.008 5.008 0 0 0 3.564 1.3c1.944 0 3.42-1.188 3.42-2.718 0-1.3-.792-2.034-2.556-2.358l-1.476-.27c-1.134-.2-1.512-.54-1.512-1.26 0-.864.756-1.4 1.908-1.4a4.659 4.659 0 0 1 2.754.936l.648-.918a5.679 5.679 0 0 0-3.348-1.1c-1.854 0-3.168 1.062-3.168 2.574 0 1.278.774 2 2.484 2.3l1.44.252c1.116.216 1.584.594 1.584 1.314 0 .918-.936 1.584-2.214 1.584A4.581 4.581 0 0 1 260.7 145Zm9.648-9.81a.934.934 0 0 0 .936-.954.945.945 0 0 0-1.89 0 .938.938 0 0 0 .956.954Zm.648 2.16h-1.314V147h1.318Zm2.3 4.392a4.285 4.285 0 1 0 8.55 0 4.283 4.283 0 1 0-8.55 0Zm4.266 3.4a3.1 3.1 0 0 1-2.97-3.384 3.005 3.005 0 1 1 5.958 0 3.121 3.121 0 0 1-2.982 3.386Zm6.588.99h1.314v-6.478a2.589 2.589 0 0 1 2.3-1.35 2.277 2.277 0 0 1 2.358 2.52V147h1.314v-5.688a3.057 3.057 0 0 0-3.186-3.24 3.165 3.165 0 0 0-2.79 1.566v-1.422h-1.314Z"/>
  <path fill="#fff" d="M65.6 120h1.388v-5.382h3.762L73.306 120h1.53l-2.682-5.562a3.429 3.429 0 0 0 2.628-3.4c0-2.178-1.6-3.636-4.014-3.636H65.6Zm5.06-11.376a2.439 2.439 0 1 1 0 4.842h-3.672v-4.842Zm13.14 10.368-.828-.882a3.589 3.589 0 0 1-2.412.9 3.2 3.2 0 0 1-3.132-3.11h6.894v-.4a4.15 4.15 0 0 0-4.032-4.428 4.275 4.275 0 0 0-4.14 4.536 4.384 4.384 0 0 0 4.356 4.554 5.128 5.128 0 0 0 3.294-1.17Zm-3.528-6.786a2.9 2.9 0 0 1 2.754 2.754h-5.562a2.934 2.934 0 0 1 2.808-2.754ZM93.052 120h1.314v-13.14l-1.314.27v5.2a3.578 3.578 0 0 0-2.736-1.224 4.278 4.278 0 0 0-4.122 4.518 4.239 4.239 0 0 0 4.05 4.5 3.462 3.462 0 0 0 2.808-1.3Zm-5.562-4.392a3.12 3.12 0 0 1 5.562-2.16v4.352a3.009 3.009 0 0 1-2.484 1.17 3.151 3.151 0 0 1-3.078-3.362Zm14 4.392h1.39v-5.724h7.236V120h1.384v-12.6h-1.384v5.634h-7.236V107.4h-1.386Zm15.462.162a3.771 3.771 0 0 0 2.79-1.188V120h1.3v-5.832c0-2-1.224-3.1-3.4-3.1a7.526 7.526 0 0 0-3.312.846l.486 1.008a5.8 5.8 0 0 1 2.664-.756 1.978 1.978 0 0 1 2.268 2.178v1.206a5.086 5.086 0 0 0-2.682-.684c-1.98 0-3.294 1.044-3.294 2.61-.002 1.588 1.312 2.686 3.184 2.686Zm-1.922-2.718c0-.972.882-1.62 2.232-1.62a4.637 4.637 0 0 1 2.484.63v1.692a3.477 3.477 0 0 1-2.52 1.008c-1.314 0-2.196-.684-2.196-1.71Zm9.45.576c0 1.4.792 2.142 2.3 2.142a4.934 4.934 0 0 0 1.53-.234v-1.17a3.155 3.155 0 0 1-1.242.234c-.918 0-1.278-.378-1.278-1.314V112.3h2.52v-1.084h-2.52V108.5l-1.31.3v2.416h-1.818v1.084h1.818Zm11.268-11.16-1.314.27V120h1.314Zm2.3 8.748a4.285 4.285 0 1 0 8.55 0 4.283 4.283 0 1 0-8.55 0Zm4.266 3.4a3.1 3.1 0 0 1-2.97-3.384 3.005 3.005 0 1 1 5.958 0 3.121 3.121 0 0 1-2.984 3.386Zm6.21-3.4a4.285 4.285 0 1 0 8.55 0 4.283 4.283 0 1 0-8.55 0Zm4.266 3.4a3.1 3.1 0 0 1-2.97-3.384 3.005 3.005 0 1 1 5.958 0 3.121 3.121 0 0 1-2.984 3.386Zm6.588.99h1.322v-4.192l4.226 4.194h1.728l-4.662-4.608 4.464-4.176h-1.584l-4.172 3.942v-8.298l-1.314.27Zm7.812-1.134a5.008 5.008 0 0 0 3.564 1.3c1.944 0 3.42-1.188 3.42-2.718 0-1.3-.792-2.034-2.556-2.358l-1.476-.27c-1.134-.2-1.512-.54-1.512-1.26 0-.864.756-1.4 1.908-1.4a4.659 4.659 0 0 1 2.754.936l.648-.918a5.679 5.679 0 0 0-3.348-1.1c-1.854 0-3.168 1.062-3.168 2.574 0 1.278.774 2 2.484 2.3l1.44.252c1.116.216 1.584.594 1.584 1.314 0 .918-.936 1.584-2.214 1.584a4.581 4.581 0 0 1-2.818-1.1Zm21.366-3.258a4.239 4.239 0 0 0-4.05-4.5 3.54 3.54 0 0 0-2.826 1.314v-5.56l-1.314.27V120h1.3v-1.152a3.556 3.556 0 0 0 2.772 1.278 4.278 4.278 0 0 0 4.122-4.518Zm-4.374-3.348a3.151 3.151 0 0 1 3.078 3.366 3.151 3.151 0 0 1-3.078 3.366 3.087 3.087 0 0 1-2.5-1.224v-4.3a3 3 0 0 1 2.504-1.206Zm9.486 7.9a3.771 3.771 0 0 0 2.79-1.188V120h1.3v-5.832c0-2-1.224-3.1-3.4-3.1a7.526 7.526 0 0 0-3.312.846l.486 1.008a5.8 5.8 0 0 1 2.664-.756 1.978 1.978 0 0 1 2.268 2.178v1.206a5.086 5.086 0 0 0-2.682-.684c-1.98 0-3.294 1.044-3.294 2.61-.002 1.588 1.312 2.686 3.184 2.686Zm-1.926-2.718c0-.972.882-1.62 2.232-1.62a4.637 4.637 0 0 1 2.484.63v1.692a3.477 3.477 0 0 1-2.52 1.008c-1.31.004-2.192-.68-2.192-1.706Zm12.69 1.53a3.186 3.186 0 0 1-3.1-3.366 3.189 3.189 0 0 1 3.078-3.348 3.452 3.452 0 0 1 2.484 1.1l.846-.918a4.791 4.791 0 0 0-3.384-1.368 4.387 4.387 0 0 0-4.338 4.536 4.4 4.4 0 0 0 4.338 4.554 4.569 4.569 0 0 0 3.33-1.422l-.81-.81a3.235 3.235 0 0 1-2.44 1.046Zm5.152 1.03h1.316v-4.194l4.228 4.194h1.728l-4.662-4.608 4.464-4.176h-1.584l-4.174 3.942v-8.298l-1.314.27Zm12.6-4.392a4.285 4.285 0 1 0 8.55 0 4.283 4.283 0 1 0-8.55 0Zm4.266 3.4a3.1 3.1 0 0 1-2.97-3.384 3.005 3.005 0 1 1 5.958 0 3.121 3.121 0 0 1-2.988 3.386Zm6.588.99h1.314v-6.478a2.589 2.589 0 0 1 2.3-1.35 2.277 2.277 0 0 1 2.358 2.52V120h1.314v-5.688a3.057 3.057 0 0 0-3.186-3.24 3.165 3.165 0 0 0-2.79 1.566v-1.422h-1.314Zm16.848.162a3.771 3.771 0 0 0 2.79-1.188V120h1.3v-5.832c0-2-1.224-3.1-3.4-3.1a7.526 7.526 0 0 0-3.312.846l.486 1.008a5.8 5.8 0 0 1 2.664-.756 1.978 1.978 0 0 1 2.268 2.178v1.206a5.086 5.086 0 0 0-2.682-.684c-1.98 0-3.294 1.044-3.294 2.61-.006 1.588 1.308 2.686 3.18 2.686Zm-1.926-2.718c0-.972.882-1.62 2.232-1.62a4.637 4.637 0 0 1 2.484.63v1.692a3.477 3.477 0 0 1-2.52 1.008c-1.314.002-2.196-.682-2.196-1.708ZM267.292 120h1.314v-13.14l-1.314.27v5.2a3.578 3.578 0 0 0-2.736-1.224 4.278 4.278 0 0 0-4.122 4.518 4.239 4.239 0 0 0 4.05 4.5 3.462 3.462 0 0 0 2.808-1.3Zm-5.562-4.392a3.12 3.12 0 0 1 5.562-2.16v4.352a3.009 3.009 0 0 1-2.484 1.17 3.151 3.151 0 0 1-3.078-3.362Zm16.83 3.384-.828-.882a3.589 3.589 0 0 1-2.412.9 3.2 3.2 0 0 1-3.132-3.114h6.894v-.4a4.15 4.15 0 0 0-4.032-4.428 4.275 4.275 0 0 0-4.14 4.536 4.384 4.384 0 0 0 4.356 4.554 5.128 5.128 0 0 0 3.294-1.166Zm-3.528-6.786a2.9 2.9 0 0 1 2.754 2.754h-5.562a2.934 2.934 0 0 1 2.808-2.754Zm10.332 6.768a3.186 3.186 0 0 1-3.1-3.366 3.189 3.189 0 0 1 3.078-3.348 3.452 3.452 0 0 1 2.484 1.1l.846-.918a4.791 4.791 0 0 0-3.384-1.368 4.387 4.387 0 0 0-4.338 4.536 4.4 4.4 0 0 0 4.338 4.554 4.569 4.569 0 0 0 3.33-1.422l-.81-.81a3.235 3.235 0 0 1-2.444 1.042Zm7.866 1.188a3.771 3.771 0 0 0 2.79-1.188V120h1.3v-5.832c0-2-1.224-3.1-3.4-3.1a7.526 7.526 0 0 0-3.312.846l.486 1.008a5.8 5.8 0 0 1 2.664-.756 1.978 1.978 0 0 1 2.268 2.178v1.206a5.086 5.086 0 0 0-2.682-.684c-1.98 0-3.294 1.044-3.294 2.61-.006 1.588 1.308 2.686 3.18 2.686Zm-1.93-2.718c0-.972.882-1.62 2.232-1.62a4.637 4.637 0 0 1 2.484.63v1.692a3.477 3.477 0 0 1-2.52 1.008c-1.31 0-2.196-.684-2.196-1.71ZM306.442 120h1.314v-13.14l-1.314.27v5.2a3.578 3.578 0 0 0-2.736-1.224 4.278 4.278 0 0 0-4.122 4.518 4.239 4.239 0 0 0 4.05 4.5 3.462 3.462 0 0 0 2.808-1.3Zm-5.562-4.392a3.12 3.12 0 0 1 5.562-2.16v4.352a3.009 3.009 0 0 1-2.484 1.17 3.151 3.151 0 0 1-3.078-3.362Zm16.83 3.384-.828-.882a3.589 3.589 0 0 1-2.412.9 3.2 3.2 0 0 1-3.132-3.114h6.894v-.4a4.15 4.15 0 0 0-4.032-4.424 4.275 4.275 0 0 0-4.14 4.536 4.384 4.384 0 0 0 4.356 4.554 5.128 5.128 0 0 0 3.294-1.17Zm-3.528-6.786a2.9 2.9 0 0 1 2.754 2.754h-5.562a2.934 2.934 0 0 1 2.808-2.754Zm10.1 3.4a4.285 4.285 0 1 0 8.55 0 4.283 4.283 0 1 0-8.55 0Zm4.266 3.4a3.1 3.1 0 0 1-2.97-3.384 3.005 3.005 0 1 1 5.958 0 3.121 3.121 0 0 1-2.99 3.388Zm5.184-7.794v1.088h1.962v7.7h1.314v-7.7h2.5v-1.084h-2.5v-1.908c0-1.044.432-1.53 1.44-1.53a3.623 3.623 0 0 1 1.062.162v-1.188a3.711 3.711 0 0 0-1.188-.162 2.41 2.41 0 0 0-2.628 2.7v1.926Zm15.714 7.758a3.186 3.186 0 0 1-3.1-3.366 3.189 3.189 0 0 1 3.078-3.348 3.452 3.452 0 0 1 2.484 1.1l.846-.918a4.791 4.791 0 0 0-3.384-1.368 4.387 4.387 0 0 0-4.338 4.536 4.4 4.4 0 0 0 4.338 4.554 4.569 4.569 0 0 0 3.33-1.422l-.81-.81a3.236 3.236 0 0 1-2.446 1.046Zm6.426-7.758h-1.332v5.67a3.071 3.071 0 0 0 3.186 3.258 3.145 3.145 0 0 0 2.79-1.566V120h1.314v-8.784h-1.314v6.5a2.608 2.608 0 0 1-2.3 1.332 2.269 2.269 0 0 1-2.34-2.538Zm7.812 7.65a5.008 5.008 0 0 0 3.564 1.3c1.944 0 3.42-1.188 3.42-2.718 0-1.3-.792-2.034-2.556-2.358l-1.476-.27c-1.134-.2-1.512-.54-1.512-1.26 0-.864.756-1.4 1.908-1.4a4.659 4.659 0 0 1 2.754.936l.648-.918a5.679 5.679 0 0 0-3.348-1.1c-1.854 0-3.168 1.062-3.168 2.574 0 1.278.774 2 2.484 2.3l1.44.252c1.116.216 1.584.594 1.584 1.314 0 .918-.936 1.584-2.214 1.584a4.581 4.581 0 0 1-2.826-1.1Zm9.846-.846c0 1.4.792 2.142 2.3 2.142a4.934 4.934 0 0 0 1.53-.234v-1.17a3.155 3.155 0 0 1-1.242.234c-.918 0-1.278-.378-1.278-1.314V112.3h2.52v-1.084h-2.52V108.5l-1.314.306v2.41h-1.816v1.084h1.818Zm5.148-2.412a4.285 4.285 0 1 0 8.55 0 4.283 4.283 0 1 0-8.55 0Zm4.266 3.4a3.1 3.1 0 0 1-2.97-3.384 3.005 3.005 0 1 1 5.958 0 3.121 3.121 0 0 1-2.99 3.39Zm6.588.99h1.314v-6.528a2.407 2.407 0 0 1 2.142-1.3 2.182 2.182 0 0 1 2.178 2.484V120h1.314v-5.67a3.644 3.644 0 0 0-.072-.774 2.444 2.444 0 0 1 2.2-1.386c1.332 0 2.16.954 2.16 2.484V120h1.314v-5.67a2.989 2.989 0 0 0-2.988-3.258 3.245 3.245 0 0 0-2.934 1.71 2.887 2.887 0 0 0-2.7-1.71 3.008 3.008 0 0 0-2.61 1.512v-1.368h-1.32Zm22.464-1.008-.828-.882a3.589 3.589 0 0 1-2.412.9 3.2 3.2 0 0 1-3.132-3.114h6.894v-.4a4.15 4.15 0 0 0-4.032-4.428 4.275 4.275 0 0 0-4.14 4.536 4.384 4.384 0 0 0 4.356 4.554 5.128 5.128 0 0 0 3.292-1.16Zm-3.528-6.786a2.9 2.9 0 0 1 2.754 2.754h-5.562a2.934 2.934 0 0 1 2.806-2.748Zm6.3 7.794h1.314v-6.006a2.5 2.5 0 0 1 2.358-1.782 3.284 3.284 0 0 1 .918.162v-1.188a2.494 2.494 0 0 0-.828-.126 2.624 2.624 0 0 0-2.45 1.946v-1.784h-1.314Zm16.992 0h1.314V106.86l-1.314.27v5.2a3.578 3.578 0 0 0-2.736-1.224 4.278 4.278 0 0 0-4.122 4.518 4.239 4.239 0 0 0 4.05 4.5 3.462 3.462 0 0 0 2.808-1.3Zm-5.56-4.386a3.12 3.12 0 0 1 5.562-2.16v4.352a3.009 3.009 0 0 1-2.484 1.17 3.151 3.151 0 0 1-3.078-3.362Zm16.83 3.384-.828-.882a3.589 3.589 0 0 1-2.412.9 3.2 3.2 0 0 1-3.132-3.114h6.894v-.4a4.15 4.15 0 0 0-4.032-4.428 4.275 4.275 0 0 0-4.14 4.536 4.384 4.384 0 0 0 4.356 4.554 5.128 5.128 0 0 0 3.29-1.166Zm-3.53-6.786a2.9 2.9 0 0 1 2.754 2.754h-5.564a2.934 2.934 0 0 1 2.81-2.754Zm5.184-.99v1.084h1.962v7.7h1.314v-7.7h2.5v-1.084h-2.5v-1.908c0-1.044.432-1.53 1.44-1.53a3.623 3.623 0 0 1 1.062.162v-1.188a3.711 3.711 0 0 0-1.188-.162 2.41 2.41 0 0 0-2.628 2.7v1.926Zm8.172-2.16a.934.934 0 0 0 .936-.954.945.945 0 0 0-1.89 0 .938.938 0 0 0 .952.954Zm.648 2.16h-1.314V120h1.31ZM456.2 120h1.314v-6.48a2.589 2.589 0 0 1 2.3-1.35 2.277 2.277 0 0 1 2.358 2.52V120h1.314v-5.688a3.057 3.057 0 0 0-3.186-3.24 3.165 3.165 0 0 0-2.79 1.566v-1.422h-1.31Zm17.19-1.008-.828-.882a3.589 3.589 0 0 1-2.412.9 3.2 3.2 0 0 1-3.13-3.11h6.894v-.4a4.15 4.15 0 0 0-4.032-4.428 4.275 4.275 0 0 0-4.14 4.536 4.384 4.384 0 0 0 4.356 4.554 5.128 5.128 0 0 0 3.294-1.17Zm-3.528-6.786a2.9 2.9 0 0 1 2.754 2.754h-5.562a2.934 2.934 0 0 1 2.81-2.754ZM482.644 120h1.314v-13.14l-1.314.27v5.2a3.578 3.578 0 0 0-2.736-1.224 4.278 4.278 0 0 0-4.122 4.518 4.239 4.239 0 0 0 4.05 4.5 3.462 3.462 0 0 0 2.808-1.3Zm-5.562-4.392a3.12 3.12 0 0 1 5.562-2.16v4.352a3.009 3.009 0 0 1-2.484 1.17 3.151 3.151 0 0 1-3.078-3.362ZM69.364 145.974a3.369 3.369 0 0 1-.018-6.714 3.452 3.452 0 0 1 2.484 1.1l.846-.918a4.791 4.791 0 0 0-3.384-1.368 4.55 4.55 0 0 0 0 9.09 4.569 4.569 0 0 0 3.33-1.422l-.81-.81a3.236 3.236 0 0 1-2.448 1.042Zm6.462-12.114-1.314.27V147h1.314Zm2.3 8.748a4.285 4.285 0 1 0 8.55 0 4.283 4.283 0 1 0-8.55 0Zm4.266 3.4a3.1 3.1 0 0 1-2.97-3.384 3.124 3.124 0 0 1 2.97-3.4 3.137 3.137 0 0 1 2.988 3.4 3.121 3.121 0 0 1-2.98 3.386Zm7.866-7.794H88.93v5.67a3.071 3.071 0 0 0 3.186 3.258 3.145 3.145 0 0 0 2.79-1.566V147h1.314v-8.784h-1.314v6.5a2.608 2.608 0 0 1-2.3 1.332 2.269 2.269 0 0 1-2.34-2.538ZM105.382 147h1.318v-13.14l-1.314.27v5.2a3.578 3.578 0 0 0-2.736-1.224 4.278 4.278 0 0 0-4.122 4.518 4.239 4.239 0 0 0 4.05 4.5 3.462 3.462 0 0 0 2.808-1.3Zm-5.562-4.392a3.12 3.12 0 0 1 5.562-2.16v4.352a3.009 3.009 0 0 1-2.484 1.17 3.151 3.151 0 0 1-3.078-3.362Zm8.73 3.258a5.008 5.008 0 0 0 3.564 1.3c1.944 0 3.42-1.188 3.42-2.718 0-1.3-.792-2.034-2.556-2.358l-1.476-.27c-1.134-.2-1.512-.54-1.512-1.26 0-.864.756-1.4 1.908-1.4a4.659 4.659 0 0 1 2.754.936l.648-.918a5.679 5.679 0 0 0-3.348-1.1c-1.854 0-3.168 1.062-3.168 2.574 0 1.278.774 2 2.484 2.3l1.44.252c1.116.216 1.584.594 1.584 1.314 0 .918-.936 1.584-2.214 1.584a4.581 4.581 0 0 1-2.826-1.102Zm15.894 1.3a3.771 3.771 0 0 0 2.79-1.188V147h1.3v-5.832c0-2-1.224-3.1-3.4-3.1a7.526 7.526 0 0 0-3.312.846l.486 1.008a5.8 5.8 0 0 1 2.664-.756 1.978 1.978 0 0 1 2.268 2.178v1.206a5.086 5.086 0 0 0-2.682-.684c-1.98 0-3.294 1.044-3.294 2.61-.006 1.588 1.308 2.686 3.18 2.686Zm-1.926-2.718c0-.972.882-1.62 2.232-1.62a4.637 4.637 0 0 1 2.484.63v1.692a3.477 3.477 0 0 1-2.52 1.008c-1.314-.004-2.196-.688-2.196-1.714Zm8.676 2.552h1.314v-6.48a2.589 2.589 0 0 1 2.3-1.35 2.277 2.277 0 0 1 2.358 2.52V147h1.314v-5.688a3.057 3.057 0 0 0-3.186-3.24 3.165 3.165 0 0 0-2.79 1.566v-1.422h-1.31Zm16.4 0h1.314v-13.14l-1.314.27v5.2a3.578 3.578 0 0 0-2.736-1.224 4.278 4.278 0 0 0-4.122 4.518 4.239 4.239 0 0 0 4.05 4.5 3.462 3.462 0 0 0 2.808-1.3Zm-5.564-4.392a3.12 3.12 0 0 1 5.562-2.16v4.352a3.009 3.009 0 0 1-2.484 1.17 3.151 3.151 0 0 1-3.078-3.362Zm13.374 0a4.285 4.285 0 1 0 8.55 0 4.283 4.283 0 1 0-8.55 0Zm4.266 3.4a3.1 3.1 0 0 1-2.97-3.384 3.005 3.005 0 1 1 5.958 0 3.121 3.121 0 0 1-2.988 3.386Zm7.866-7.794H166.2v5.67a3.071 3.071 0 0 0 3.186 3.258 3.145 3.145 0 0 0 2.79-1.566V147h1.314v-8.784h-1.31v6.5a2.608 2.608 0 0 1-2.3 1.332 2.269 2.269 0 0 1-2.34-2.538Zm8.658 8.786h1.314v-6.012a2.5 2.5 0 0 1 2.358-1.782 3.284 3.284 0 0 1 .918.162v-1.188a2.494 2.494 0 0 0-.828-.126 2.624 2.624 0 0 0-2.448 1.946v-1.784h-1.314ZM75.508 74.592a7.24 7.24 0 0 1-7.364-7.392 7.188 7.188 0 0 1 7.28-7.392A7.788 7.788 0 0 1 81.36 62.5l1.96-2.016a10.633 10.633 0 0 0-7.9-3.388A10.054 10.054 0 0 0 65.148 67.2a10.071 10.071 0 0 0 10.276 10.108 10.787 10.787 0 0 0 7.84-3.388l-1.932-1.96a7.606 7.606 0 0 1-5.824 2.632Zm22.092.784-1.792-1.764a5.543 5.543 0 0 1-3.608 1.26 4.807 4.807 0 0 1-4.82-4.088h11.256v-.812c0-4.2-2.968-7.448-6.888-7.448a7.161 7.161 0 0 0-7.14 7.336 7.334 7.334 0 0 0 7.476 7.392 8.5 8.5 0 0 0 5.516-1.876Zm-5.908-10.5a4.408 4.408 0 0 1 4.172 3.808h-8.456a4.376 4.376 0 0 1 4.284-3.808Zm12.4-8.092-2.8.616V77h2.8Zm15.656 18.592-1.792-1.764a5.543 5.543 0 0 1-3.612 1.26 4.807 4.807 0 0 1-4.816-4.088h11.256v-.812c0-4.2-2.968-7.448-6.888-7.448a7.161 7.161 0 0 0-7.14 7.336 7.334 7.334 0 0 0 7.476 7.392 8.5 8.5 0 0 0 5.516-1.876Zm-5.908-10.5a4.408 4.408 0 0 1 4.172 3.808h-8.456a4.377 4.377 0 0 1 4.284-3.808Zm23.94 4.984a7.19 7.19 0 0 0-7.2-7.336 6.6 6.6 0 0 0-4.34 1.568v-7.308l-2.8.616V77h2.772v-1.2a7.121 7.121 0 0 0 4.316 1.424 7.209 7.209 0 0 0 7.252-7.364Zm-7.56-4.9a4.789 4.789 0 0 1 4.816 4.928 4.749 4.749 0 0 1-4.816 4.9 5.284 5.284 0 0 1-3.976-1.68v-6.44a5.112 5.112 0 0 1 3.976-1.708ZM140.44 77h2.8v-9.52a3.891 3.891 0 0 1 3.7-2.6 4.8 4.8 0 0 1 1.652.308v-2.52a3.558 3.558 0 0 0-1.428-.224 4.461 4.461 0 0 0-3.92 2.128v-1.82h-2.8Zm14.308.252a6.761 6.761 0 0 0 4.424-1.484V77h2.744v-9.436c0-3.276-2.128-5.1-5.824-5.1a13.339 13.339 0 0 0-5.852 1.456l1.036 2.1a10.131 10.131 0 0 1 4.424-1.2c2.268 0 3.472 1.008 3.472 3.024v1.512a10.062 10.062 0 0 0-3.892-.784c-3.584 0-5.768 1.652-5.768 4.34 0 2.576 2.128 4.34 5.236 4.34Zm-2.548-4.396c0-1.428 1.26-2.352 3.3-2.352a7.4 7.4 0 0 1 3.668.868v2.464a5.48 5.48 0 0 1-3.78 1.344c-1.9 0-3.188-.952-3.188-2.324Zm14.224.616c0 2.464 1.484 3.78 4.256 3.78a9.274 9.274 0 0 0 2.66-.42V74.48a5.5 5.5 0 0 1-2.044.336c-1.512 0-2.1-.532-2.1-1.988V65.1h4.2v-2.352h-4.2v-4.312l-2.772.672v3.64H163.4V65.1h3.024Zm10.444-13.02a1.745 1.745 0 0 0 1.736-1.736 1.745 1.745 0 0 0-1.736-1.736 1.721 1.721 0 0 0-1.708 1.736 1.721 1.721 0 0 0 1.708 1.736Zm1.4 2.3h-2.8V77h2.8ZM181.572 77h2.8V66.752A4.027 4.027 0 0 1 187.9 64.9a3.317 3.317 0 0 1 3.528 3.612V77h2.8v-8.96a5.321 5.321 0 0 0-5.572-5.572 5.869 5.869 0 0 0-4.284 1.708v-1.428h-2.8Zm22.4.112a6.7 6.7 0 0 0 4.256-1.512v1.6c0 2.24-1.316 3.416-3.808 3.416a9.65 9.65 0 0 1-4.564-1.232l-1.092 2.184a12.088 12.088 0 0 0 5.74 1.4c4.2 0 6.524-2.072 6.524-5.768V62.748h-2.772v1.176a7 7 0 0 0-4.228-1.428A7.19 7.19 0 0 0 196.8 69.8a7.178 7.178 0 0 0 7.172 7.312Zm-4.424-7.312a4.747 4.747 0 0 1 4.76-4.872 5.14 5.14 0 0 1 3.92 1.652v6.44a5.044 5.044 0 0 1-3.92 1.652 4.747 4.747 0 0 1-4.76-4.872Zm25.984-12.4h-1.764l-4.536 1.9v2.464l3.528-1.484V77h2.772ZM236.7 77.28c4.9 0 8.26-4.088 8.26-10.08s-3.36-10.08-8.26-10.08c-4.872 0-8.232 4.088-8.232 10.08s3.332 10.08 8.232 10.08Zm0-2.464c-3.36 0-5.516-2.94-5.516-7.616s2.156-7.644 5.516-7.644c3.388 0 5.516 2.968 5.516 7.644s-2.124 7.616-5.516 7.616Zm20.468 3.528a2.954 2.954 0 0 1-2.828 2.1 5.537 5.537 0 0 1-1.26-.112V82.8a5.413 5.413 0 0 0 1.484.168c2.632 0 4.144-1.2 5.46-4.256l6.888-15.96h-3.024L259.3 73.64l-4.172-10.892h-3.08l5.684 14.308Zm23.272-2.968-1.792-1.764a5.543 5.543 0 0 1-3.612 1.26 4.807 4.807 0 0 1-4.816-4.088h11.256v-.812c0-4.2-2.968-7.448-6.888-7.448a7.161 7.161 0 0 0-7.14 7.336 7.334 7.334 0 0 0 7.476 7.392 8.5 8.5 0 0 0 5.516-1.876Zm-5.908-10.5a4.408 4.408 0 0 1 4.168 3.808h-8.456a4.377 4.377 0 0 1 4.288-3.808Zm13.944 12.376a6.761 6.761 0 0 0 4.424-1.484V77h2.744v-9.436c0-3.276-2.128-5.1-5.824-5.1a13.339 13.339 0 0 0-5.852 1.456l1.036 2.1a10.131 10.131 0 0 1 4.424-1.2c2.268 0 3.472 1.008 3.472 3.024v1.512a10.062 10.062 0 0 0-3.892-.784c-3.584 0-5.768 1.652-5.768 4.34 0 2.576 2.128 4.34 5.236 4.34Zm-2.548-4.4c0-1.428 1.26-2.352 3.3-2.352a7.4 7.4 0 0 1 3.668.868v2.464a5.48 5.48 0 0 1-3.78 1.344c-1.9.004-3.188-.948-3.188-2.32ZM298.864 77h2.8v-9.52a3.891 3.891 0 0 1 3.7-2.6 4.8 4.8 0 0 1 1.652.308v-2.52a3.558 3.558 0 0 0-1.428-.224 4.461 4.461 0 0 0-3.92 2.128v-1.82h-2.8Zm9.016-1.848a9.4 9.4 0 0 0 6.244 2.1c3.388 0 5.964-1.932 5.964-4.48 0-2.212-1.484-3.556-4.312-3.976l-2.576-.364c-1.68-.252-2.352-.756-2.352-1.792 0-1.148 1.148-1.932 2.856-1.932a7.923 7.923 0 0 1 4.508 1.484l1.428-1.848a9.773 9.773 0 0 0-5.74-1.82c-3.332 0-5.572 1.736-5.572 4.312 0 2.212 1.428 3.528 4.256 3.948l2.576.364c1.568.224 2.3.812 2.3 1.82 0 1.26-1.4 2.128-3.416 2.128a7.469 7.469 0 0 1-4.652-1.796Zm19.572-5.292a7.344 7.344 0 0 0 7.42 7.42 7.321 7.321 0 0 0 7.392-7.42 7.315 7.315 0 0 0-7.392-7.392 7.338 7.338 0 0 0-7.42 7.392Zm7.42 4.956a4.769 4.769 0 0 1-4.672-4.956 4.762 4.762 0 0 1 4.676-4.928 4.757 4.757 0 0 1 4.644 4.928 4.782 4.782 0 0 1-4.648 4.956Zm8.008-12.068V65.1h3.3V77h2.8V65.1h4.06v-2.352h-4.06v-2.1c0-1.512.756-2.212 2.3-2.212a5.6 5.6 0 0 1 1.764.252v-2.436a7.351 7.351 0 0 0-2.016-.252c-3.136 0-4.844 1.624-4.844 4.592v2.156Zm38.052 4.452a10.075 10.075 0 0 0-10.22-10.108A10.052 10.052 0 0 0 360.52 67.2a10.052 10.052 0 0 0 10.192 10.108 10.075 10.075 0 0 0 10.22-10.108Zm-3 0a7.192 7.192 0 0 1-7.224 7.392 7.187 7.187 0 0 1-7.2-7.392 7.17 7.17 0 0 1 7.2-7.392 7.176 7.176 0 0 1 7.228 7.392Zm5.8 15.6h2.8v-6.976a7.2 7.2 0 0 0 4.284 1.4 7.209 7.209 0 0 0 7.252-7.364 7.19 7.19 0 0 0-7.2-7.336 6.5 6.5 0 0 0-4.368 1.6v-1.372h-2.772Zm6.776-17.836a4.789 4.789 0 0 1 4.816 4.928 4.749 4.749 0 0 1-4.816 4.9 5.284 5.284 0 0 1-3.976-1.68v-6.44a5.112 5.112 0 0 1 3.976-1.712Zm22.624 10.412-1.792-1.764a5.543 5.543 0 0 1-3.612 1.26 4.807 4.807 0 0 1-4.816-4.088h11.256v-.812c0-4.2-2.968-7.448-6.888-7.448a7.161 7.161 0 0 0-7.14 7.336 7.334 7.334 0 0 0 7.476 7.392 8.5 8.5 0 0 0 5.516-1.876Zm-5.908-10.5a4.408 4.408 0 0 1 4.176 3.808h-8.46a4.376 4.376 0 0 1 4.284-3.808ZM416.828 77h2.8V66.752a4.027 4.027 0 0 1 3.528-1.848 3.317 3.317 0 0 1 3.528 3.612V77h2.8v-8.96a5.321 5.321 0 0 0-5.572-5.572 5.869 5.869 0 0 0-4.284 1.708v-1.428h-2.8Zm14.448-3.248a11.806 11.806 0 0 0 8.4 3.528c4.676 0 7.812-2.408 7.812-6.02 0-3.052-1.876-4.76-6.02-5.432l-3.164-.5c-2.52-.42-3.5-1.176-3.5-2.772 0-1.736 1.708-2.912 4.256-2.912a10.412 10.412 0 0 1 6.412 2.408l1.624-2.24a13.15 13.15 0 0 0-7.9-2.66c-4.368 0-7.224 2.212-7.224 5.628 0 2.828 1.764 4.508 5.348 5.1l3.28.52c2.856.476 3.976 1.344 3.976 3.08 0 1.932-1.932 3.276-4.76 3.276a9.46 9.46 0 0 1-6.748-3.08Zm19.88-.28c0 2.464 1.484 3.78 4.256 3.78a9.274 9.274 0 0 0 2.66-.42V74.48a5.5 5.5 0 0 1-2.044.336c-1.512 0-2.1-.532-2.1-1.988V65.1h4.2v-2.352h-4.2v-4.312l-2.772.672v3.64h-3.024V65.1h3.024Zm13.552 3.78a6.761 6.761 0 0 0 4.424-1.484V77h2.744v-9.436c0-3.276-2.128-5.1-5.824-5.1a13.339 13.339 0 0 0-5.852 1.456l1.036 2.1a10.131 10.131 0 0 1 4.424-1.2c2.268 0 3.472 1.008 3.472 3.024v1.512a10.063 10.063 0 0 0-3.892-.784c-3.584 0-5.768 1.652-5.768 4.34 0 2.576 2.128 4.34 5.236 4.34Zm-2.548-4.4c0-1.428 1.26-2.352 3.3-2.352a7.4 7.4 0 0 1 3.668.868v2.464a5.48 5.48 0 0 1-3.78 1.344c-1.9.004-3.188-.948-3.188-2.32Zm19.74 1.936a4.727 4.727 0 0 1-4.676-4.928 4.709 4.709 0 0 1 4.62-4.9 5.3 5.3 0 0 1 3.92 1.792l1.764-1.9a8.091 8.091 0 0 0-5.74-2.38 7.285 7.285 0 0 0-7.336 7.392 7.268 7.268 0 0 0 7.336 7.388 7.882 7.882 0 0 0 5.628-2.38l-1.68-1.82a5.194 5.194 0 0 1-3.836 1.736ZM489.684 77h2.8v-6.72l6.888 6.72h3.7l-7.732-7.56 7.336-6.692H499.4l-6.916 6.272V56.784l-2.8.616Z"/>
</svg>
