<svg xmlns="http://www.w3.org/2000/svg" width="872" height="184"><g fill="#f0f0f0" stroke="#d2d2d2"><rect width="872" height="184" rx="3" stroke="none"/><rect x=".5" y=".5" width="871" height="183" rx="2.5" fill="none"/></g><g transform="translate(-259 -1526)"><rect width="163" height="56" rx="3" transform="translate(614 1590)" fill="#fff"/><path d="M652.608 1622.016a3.56 3.56 0 01-3.648-3.616 3.534 3.534 0 013.584-3.648 3.9 3.9 0 013.088 1.52l1.568-1.552a6.107 6.107 0 00-4.656-2.1 5.8 5.8 0 00-5.968 5.78 5.775 5.775 0 005.968 5.76 6.1 6.1 0 004.592-2.06l-1.52-1.5a3.819 3.819 0 01-3.008 1.416zm8.384 2.128a3.9 3.9 0 002.416-.736v.592h2.16v-5.408c0-2-1.328-3.088-3.552-3.088a8.764 8.764 0 00-3.712.9l.8 1.616a6.469 6.469 0 012.544-.688c1.168 0 1.76.48 1.76 1.456v.592a6.438 6.438 0 00-2.032-.32c-2.08 0-3.424.9-3.424 2.528 0 1.468 1.2 2.556 3.04 2.556zm-.944-2.608c0-.672.64-1.04 1.6-1.04a4.94 4.94 0 011.76.3v1.248a3.191 3.191 0 01-1.84.528c-.928.004-1.52-.396-1.52-1.036zm9.376-9.216l-2.192.48v11.2h2.192zm3.856 0l-2.192.48v11.2h2.192zm6.048 9.328c0 1.648.992 2.48 2.816 2.48a7.029 7.029 0 001.7-.256v-1.792a3.647 3.647 0 01-1.168.192c-.848 0-1.152-.288-1.152-1.072v-3.7h2.368v-1.84h-2.372v-2.62l-2.192.5v2.128h-1.712v1.832h1.712zm5.184-1.808a4.332 4.332 0 004.448 4.32 4.332 4.332 0 004.448-4.32 4.345 4.345 0 00-4.448-4.34 4.345 4.345 0 00-4.448 4.34zm6.752 0a2.341 2.341 0 01-2.3 2.416 2.341 2.341 0 01-2.3-2.416 2.345 2.345 0 012.3-2.432 2.335 2.335 0 012.3 2.432zm9.344 4.3a3.9 3.9 0 002.416-.736v.596h2.16v-5.408c0-2-1.328-3.088-3.552-3.088a8.764 8.764 0 00-3.712.9l.8 1.616a6.469 6.469 0 012.544-.688c1.168 0 1.76.48 1.76 1.456v.592a6.438 6.438 0 00-2.032-.32c-2.08 0-3.424.9-3.424 2.528 0 1.468 1.2 2.556 3.04 2.556zm-.944-2.608c0-.672.64-1.04 1.6-1.04a4.94 4.94 0 011.76.3v1.248a3.191 3.191 0 01-1.84.528c-.928.008-1.52-.392-1.52-1.032zm11.3.7a2.3 2.3 0 01-2.288-2.4 2.3 2.3 0 012.24-2.432 2.7 2.7 0 012.064 1.008l1.34-1.416a4.689 4.689 0 00-3.456-1.492 4.3 4.3 0 00-4.364 4.34 4.283 4.283 0 004.364 4.32 4.6 4.6 0 003.392-1.488l-1.312-1.36a2.641 2.641 0 01-1.984.928zm5.728-.592c0 1.648.992 2.48 2.816 2.48a7.029 7.029 0 001.7-.256v-1.784a3.647 3.647 0 01-1.168.192c-.848 0-1.152-.288-1.152-1.072v-3.7h2.368v-1.84h-2.376v-2.62l-2.192.5v2.128h-1.712v1.832h1.712zm6.7-6.976a1.25 1.25 0 001.248-1.248 1.25 1.25 0 00-1.248-1.248 1.26 1.26 0 00-1.248 1.248 1.26 1.26 0 001.248 1.256zm1.1.992H722.3V1624h2.2zm1.316 4.184a4.332 4.332 0 004.448 4.32 4.332 4.332 0 004.444-4.32 4.345 4.345 0 00-4.444-4.34 4.345 4.345 0 00-4.448 4.34zm6.752 0a2.341 2.341 0 01-2.3 2.416 2.341 2.341 0 01-2.3-2.416 2.345 2.345 0 012.3-2.432 2.335 2.335 0 012.3 2.432zm3.456 4.16h2.192v-5.776a1.959 1.959 0 011.712-.832 1.638 1.638 0 011.744 1.744V1624h2.176v-5.184a3.163 3.163 0 00-3.3-3.312 3.477 3.477 0 00-2.336.832v-.672h-2.188z" fill="#06c"/></g></svg>