<svg xmlns="http://www.w3.org/2000/svg" width="1000" height="72" viewBox="0 0 1000 72"><defs><style>.a{fill:#151515;}.b,.d{fill:none;}.c{fill:#fff;}.d{stroke:#fff;stroke-linecap:round;stroke-miterlimit:10;stroke-width:1.4px;}.e{fill:#e00;}</style></defs><path class="a" d="M0,0H1000V72H0Z"/><path class="b" d="M923,40h33V58H923Z"/><path class="c" d="M1.068,0H6.732V-.816H1.992V-8.4H1.068ZM7.56-2.928A2.9,2.9,0,0,0,10.4.12a2.9,2.9,0,0,0,2.868-3.048A2.884,2.884,0,0,0,10.4-5.952,2.879,2.879,0,0,0,7.56-2.928Zm4.836.012A2.067,2.067,0,0,1,10.4-.66,2.057,2.057,0,0,1,8.436-2.916,2.075,2.075,0,0,1,10.4-5.184,2.078,2.078,0,0,1,12.4-2.916Zm4.812,3a2.365,2.365,0,0,0,1.86-.852v.96c0,.984-.576,1.5-1.632,1.5a3.813,3.813,0,0,1-1.86-.54l-.372.672a4.558,4.558,0,0,0,2.28.612c1.584,0,2.46-.792,2.46-2.256V-5.856H19.08v.744a2.417,2.417,0,0,0-1.824-.816A2.853,2.853,0,0,0,14.5-2.916,2.835,2.835,0,0,0,17.208.084ZM15.372-2.928a2.081,2.081,0,0,1,2.04-2.232,2.11,2.11,0,0,1,1.656.78v2.916a2.023,2.023,0,0,1-1.656.78A2.092,2.092,0,0,1,15.372-2.928Zm9.54-4.4a.622.622,0,0,0,.624-.636.62.62,0,0,0-.624-.624.62.62,0,0,0-.624.624A.622.622,0,0,0,24.912-7.332Zm.432,1.476h-.876V0h.876ZM27.084,0h.876V-4.32a1.74,1.74,0,0,1,1.536-.9,1.518,1.518,0,0,1,1.572,1.68V0h.876V-3.792a2.041,2.041,0,0,0-2.112-2.16A2.11,2.11,0,0,0,27.96-4.9v-.96h-.876Z" transform="translate(923 53)"/><g transform="translate(931 18)"><path class="d" d="M0,18"/><circle class="d" cx="4.5" cy="4.5" r="4.5" transform="translate(4.5)"/></g><path class="b" d="M840,40h59V58H840Z"/><path class="c" d="M.216,0h.96L2.184-2.64H5.916l1,2.64H7.92L4.644-8.4H3.54ZM2.5-3.432l1.56-4.08,1.56,4.08ZM9.876-8.58,9-8.4V0h.876Zm2.616,0-.876.18V0h.876ZM17.232,0h.924V-3.588h2.508L22.368,0h1.02L21.612-3.708a2.282,2.282,0,0,0,1.74-2.268A2.412,2.412,0,0,0,20.676-8.4H17.232ZM20.6-7.584a1.618,1.618,0,0,1,1.824,1.62A1.61,1.61,0,0,1,20.6-4.356H18.156V-7.584ZM24.18-2.928a2.93,2.93,0,0,0,2.9,3.036,3.373,3.373,0,0,0,2.2-.78l-.552-.6a2.393,2.393,0,0,1-1.608.6,2.108,2.108,0,0,1-2.076-2.076h4.6V-3a2.774,2.774,0,0,0-2.688-2.952A2.859,2.859,0,0,0,24.18-2.928Zm2.76-2.256A1.929,1.929,0,0,1,28.764-3.36h-3.7A1.936,1.936,0,0,1,26.94-5.184ZM35.424,0H36.3V-8.58l-.888.18v3.276a2.4,2.4,0,0,0-1.812-.8,2.853,2.853,0,0,0-2.76,3.012,2.835,2.835,0,0,0,2.712,3,2.354,2.354,0,0,0,1.872-.876ZM31.716-2.928a2.081,2.081,0,0,1,2.04-2.232,2.11,2.11,0,0,1,1.656.78v2.916a2.023,2.023,0,0,1-1.656.78A2.092,2.092,0,0,1,31.716-2.928ZM41.016,0h.924V-3.816h4.824V0h.924V-8.4h-.924v3.756H41.94V-8.4h-.924ZM51.3.108a2.491,2.491,0,0,0,1.86-.78V0h.864V-3.888c0-1.356-.84-2.064-2.268-2.064a4.9,4.9,0,0,0-2.208.564l.336.672a3.778,3.778,0,0,1,1.764-.5c.984,0,1.512.468,1.512,1.452v.792a3.512,3.512,0,0,0-1.776-.444c-1.272,0-2.2.648-2.2,1.728A1.888,1.888,0,0,0,51.3.108ZM50.028-1.7c0-.684.624-1.092,1.476-1.092a3.039,3.039,0,0,1,1.656.432v1.128a2.337,2.337,0,0,1-1.68.672C50.628-.564,50.028-1.02,50.028-1.7Zm6.2.384c0,.912.516,1.428,1.536,1.428A3.535,3.535,0,0,0,58.8-.048v-.78a2.161,2.161,0,0,1-.828.156c-.624,0-.864-.252-.864-.876V-5.136H58.8v-.72H57.108V-7.548l-.876.2v1.488H55.02v.72h1.212Z" transform="translate(840 53)"/><path class="c" d="M879,34.5a1.5,1.5,0,1,1-1.5,1.54"/><path class="c" d="M1.424,0H2.656V-5.04H7.1V-6.112H2.656v-4.016h6.48V-11.2H1.424Zm8.624,0h1.168V-5.344a2.2,2.2,0,0,1,2.1-1.584,2.768,2.768,0,0,1,.816.144V-7.84a2.3,2.3,0,0,0-.736-.112,2.321,2.321,0,0,0-2.176,1.7V-7.808H10.048Zm4.7-3.9A3.907,3.907,0,0,0,18.624.144,4.5,4.5,0,0,0,21.552-.9l-.736-.8a3.191,3.191,0,0,1-2.144.8A2.81,2.81,0,0,1,15.9-3.664h6.128V-4a3.7,3.7,0,0,0-3.584-3.936A3.812,3.812,0,0,0,14.752-3.9Zm3.68-3.008A2.572,2.572,0,0,1,20.864-4.48H15.936A2.581,2.581,0,0,1,18.432-6.912Zm5.2,3.008A3.907,3.907,0,0,0,27.5.144,4.5,4.5,0,0,0,30.432-.9L29.7-1.7a3.191,3.191,0,0,1-2.144.8,2.81,2.81,0,0,1-2.768-2.768h6.128V-4a3.7,3.7,0,0,0-3.584-3.936A3.812,3.812,0,0,0,23.632-3.9Zm3.68-3.008A2.572,2.572,0,0,1,29.744-4.48H24.816A2.581,2.581,0,0,1,27.312-6.912ZM37.5-1.76c0,1.216.688,1.9,2.048,1.9a4.713,4.713,0,0,0,1.376-.208V-1.1a2.881,2.881,0,0,1-1.1.208c-.832,0-1.152-.336-1.152-1.168V-6.848h2.256v-.96H38.672v-2.256L37.5-9.792v1.984H35.888v.96H37.5ZM42.56,0h1.168V-5.344a2.2,2.2,0,0,1,2.1-1.584,2.768,2.768,0,0,1,.816.144V-7.84a2.3,2.3,0,0,0-.736-.112,2.321,2.321,0,0,0-2.176,1.7V-7.808H42.56Zm6.208-9.776a.83.83,0,0,0,.832-.848.826.826,0,0,0-.832-.832.826.826,0,0,0-.832.832A.83.83,0,0,0,48.768-9.776Zm.576,1.968H48.176V0h1.168ZM54.1.144A3.321,3.321,0,0,0,56.576-.9V0h1.152V-5.184c0-1.808-1.12-2.752-3.024-2.752a6.539,6.539,0,0,0-2.944.752l.448.9A5.037,5.037,0,0,1,54.56-6.96c1.312,0,2.016.624,2.016,1.936v1.056a4.683,4.683,0,0,0-2.368-.592c-1.7,0-2.928.864-2.928,2.3C51.28-.832,52.448.144,54.1.144ZM52.4-2.272c0-.912.832-1.456,1.968-1.456a4.052,4.052,0,0,1,2.208.576v1.5a3.116,3.116,0,0,1-2.24.9C53.2-.752,52.4-1.36,52.4-2.272Zm8.816-9.168-1.168.24V0h1.168Z" transform="translate(563 42)"/><path class="c" d="M.448-1.84a6.318,6.318,0,0,0,4.576,2C7.776.16,9.3-1.424,9.3-3.216c0-1.648-.96-2.576-3.408-3.008L4.1-6.528C2.72-6.768,1.984-7.2,1.984-8.3c0-1.392,1.344-2,2.672-2a5.937,5.937,0,0,1,3.728,1.36l.72-.928a7.091,7.091,0,0,0-4.416-1.472C2.64-11.344.8-10.32.8-8.208c0,1.584.944,2.432,2.96,2.784l1.808.3c1.808.32,2.5.848,2.5,1.968C8.064-1.9,6.912-.9,5.072-.9A5.393,5.393,0,0,1,1.216-2.7Zm11.84-5.968H11.12v5.056A2.722,2.722,0,0,0,13.936.128a2.813,2.813,0,0,0,2.5-1.408V0H17.6V-7.808H16.432v5.76a2.32,2.32,0,0,1-2.048,1.2,2.023,2.023,0,0,1-2.1-2.24ZM19.9,3.184h1.168V-.992A3.14,3.14,0,0,0,23.52.112,3.8,3.8,0,0,0,27.2-3.9a3.78,3.78,0,0,0-3.616-4,3.081,3.081,0,0,0-2.528,1.216v-1.12H19.9ZM23.3-6.88a2.8,2.8,0,0,1,2.736,2.992A2.791,2.791,0,0,1,23.3-.9a2.767,2.767,0,0,1-2.224-1.088V-5.808A2.688,2.688,0,0,1,23.3-6.88ZM29.168,3.184h1.168V-.992a3.14,3.14,0,0,0,2.448,1.1A3.8,3.8,0,0,0,36.464-3.9a3.78,3.78,0,0,0-3.616-4A3.081,3.081,0,0,0,30.32-6.688v-1.12H29.168ZM32.56-6.88A2.8,2.8,0,0,1,35.3-3.888,2.791,2.791,0,0,1,32.56-.9a2.767,2.767,0,0,1-2.224-1.088V-5.808A2.688,2.688,0,0,1,32.56-6.88ZM38.1-3.9A3.867,3.867,0,0,0,41.888.16,3.873,3.873,0,0,0,45.712-3.9a3.845,3.845,0,0,0-3.824-4.032A3.839,3.839,0,0,0,38.1-3.9Zm6.448.016A2.756,2.756,0,0,1,41.888-.88a2.742,2.742,0,0,1-2.624-3.008,2.767,2.767,0,0,1,2.624-3.024A2.771,2.771,0,0,1,44.544-3.888ZM47.68,0h1.168V-5.344a2.2,2.2,0,0,1,2.1-1.584,2.768,2.768,0,0,1,.816.144V-7.84a2.3,2.3,0,0,0-.736-.112,2.321,2.321,0,0,0-2.176,1.7V-7.808H47.68ZM54.4-1.76c0,1.216.688,1.9,2.048,1.9a4.713,4.713,0,0,0,1.376-.208V-1.1a2.881,2.881,0,0,1-1.1.208c-.832,0-1.152-.336-1.152-1.168V-6.848h2.256v-.96H55.568v-2.256L54.4-9.792v1.984H52.784v.96H54.4Z" transform="translate(481 42)"/><path class="c" d="M6.624-.944A4.485,4.485,0,0,1,2.144-5.6a4.478,4.478,0,0,1,4.448-4.656A4.489,4.489,0,0,1,10-8.688l.816-.848a5.6,5.6,0,0,0-4.224-1.84A5.676,5.676,0,0,0,.9-5.6,5.676,5.676,0,0,0,6.592.176a5.658,5.658,0,0,0,4.192-1.84l-.8-.816A4.388,4.388,0,0,1,6.624-.944ZM12.112-3.9A3.867,3.867,0,0,0,15.9.16,3.873,3.873,0,0,0,19.728-3.9,3.845,3.845,0,0,0,15.9-7.936,3.839,3.839,0,0,0,12.112-3.9Zm6.448.016A2.756,2.756,0,0,1,15.9-.88,2.742,2.742,0,0,1,13.28-3.888,2.767,2.767,0,0,1,15.9-6.912,2.771,2.771,0,0,1,18.56-3.888ZM21.7,0h1.168V-5.808a2.171,2.171,0,0,1,1.9-1.152A1.939,1.939,0,0,1,26.7-4.752V0h1.168V-5.04a3.238,3.238,0,0,0-.064-.688A2.2,2.2,0,0,1,29.76-6.96c1.216,0,1.92.864,1.92,2.208V0h1.184V-5.04a2.669,2.669,0,0,0-2.672-2.9,2.915,2.915,0,0,0-2.608,1.52A2.56,2.56,0,0,0,25.2-7.936a2.672,2.672,0,0,0-2.336,1.344V-7.808H21.7ZM35.168,0h1.168V-5.808a2.171,2.171,0,0,1,1.9-1.152,1.939,1.939,0,0,1,1.936,2.208V0h1.168V-5.04a3.238,3.238,0,0,0-.064-.688A2.2,2.2,0,0,1,43.232-6.96c1.216,0,1.92.864,1.92,2.208V0h1.184V-5.04a2.669,2.669,0,0,0-2.672-2.9,2.915,2.915,0,0,0-2.608,1.52,2.56,2.56,0,0,0-2.384-1.52,2.672,2.672,0,0,0-2.336,1.344V-7.808H35.168Zm14.56-7.808H48.56v5.056A2.722,2.722,0,0,0,51.376.128a2.813,2.813,0,0,0,2.5-1.408V0H55.04V-7.808H53.872v5.76a2.32,2.32,0,0,1-2.048,1.2,2.023,2.023,0,0,1-2.1-2.24ZM57.344,0h1.168V-5.76a2.32,2.32,0,0,1,2.048-1.2,2.023,2.023,0,0,1,2.1,2.24V0h1.168V-5.056a2.722,2.722,0,0,0-2.816-2.88,2.813,2.813,0,0,0-2.5,1.408v-1.28H57.344ZM66.72-9.776a.83.83,0,0,0,.832-.848.826.826,0,0,0-.832-.832.826.826,0,0,0-.832.832A.83.83,0,0,0,66.72-9.776ZM67.3-7.808H66.128V0H67.3ZM70.56-1.76c0,1.216.688,1.9,2.048,1.9a4.713,4.713,0,0,0,1.376-.208V-1.1a2.881,2.881,0,0,1-1.1.208c-.832,0-1.152-.336-1.152-1.168V-6.848h2.256v-.96H71.728v-2.256l-1.168.272v1.984H68.944v.96H70.56ZM77.5,1.088c-.32.8-.736.992-1.264.992a3.939,3.939,0,0,1-.64-.064v1.04a2.568,2.568,0,0,0,.752.112c1.168,0,1.76-.5,2.24-1.728L82.4-7.808H81.12L78.608-1.376,76.24-7.808H74.928L77.952-.016Z" transform="translate(374 42)"/><path class="c" d="M1.424,0H8.976V-1.088H2.656V-11.2H1.424ZM10.08-3.9A3.907,3.907,0,0,0,13.952.144,4.5,4.5,0,0,0,16.88-.9l-.736-.8A3.191,3.191,0,0,1,14-.9a2.81,2.81,0,0,1-2.768-2.768H17.36V-4a3.7,3.7,0,0,0-3.584-3.936A3.812,3.812,0,0,0,10.08-3.9Zm3.68-3.008A2.572,2.572,0,0,1,16.192-4.48H11.264A2.581,2.581,0,0,1,13.76-6.912ZM21.584.144A3.321,3.321,0,0,0,24.064-.9V0h1.152V-5.184c0-1.808-1.12-2.752-3.024-2.752a6.539,6.539,0,0,0-2.944.752l.448.9a5.037,5.037,0,0,1,2.352-.672c1.312,0,2.016.624,2.016,1.936v1.056A4.683,4.683,0,0,0,21.7-4.56c-1.7,0-2.928.864-2.928,2.3C18.768-.832,19.936.144,21.584.144Zm-1.7-2.416c0-.912.832-1.456,1.968-1.456a4.052,4.052,0,0,1,2.208.576v1.5a3.116,3.116,0,0,1-2.24.9C20.688-.752,19.888-1.36,19.888-2.272ZM27.536,0H28.7V-5.344a2.2,2.2,0,0,1,2.1-1.584,2.768,2.768,0,0,1,.816.144V-7.84a2.3,2.3,0,0,0-.736-.112,2.321,2.321,0,0,0-2.176,1.7V-7.808H27.536Zm5.616,0H34.32V-5.76a2.32,2.32,0,0,1,2.048-1.2,2.023,2.023,0,0,1,2.1,2.24V0h1.168V-5.056a2.722,2.722,0,0,0-2.816-2.88,2.813,2.813,0,0,0-2.5,1.408v-1.28H33.152Z" transform="translate(309 42)"/><path class="c" d="M1.424,0H2.656V-4.576H6.048A3.248,3.248,0,0,0,9.616-7.888,3.24,3.24,0,0,0,6.048-11.2H1.424Zm4.5-10.112A2.173,2.173,0,0,1,8.384-7.888,2.188,2.188,0,0,1,5.92-5.632H2.656v-4.48ZM11.616,0h1.168V-5.344a2.2,2.2,0,0,1,2.1-1.584,2.768,2.768,0,0,1,.816.144V-7.84a2.3,2.3,0,0,0-.736-.112,2.321,2.321,0,0,0-2.176,1.7V-7.808H11.616Zm4.7-3.9A3.867,3.867,0,0,0,20.112.16,3.873,3.873,0,0,0,23.936-3.9a3.845,3.845,0,0,0-3.824-4.032A3.839,3.839,0,0,0,16.32-3.9Zm6.448.016A2.756,2.756,0,0,1,20.112-.88a2.742,2.742,0,0,1-2.624-3.008,2.767,2.767,0,0,1,2.624-3.024A2.771,2.771,0,0,1,22.768-3.888ZM31.68,0h1.168V-11.44l-1.184.24v4.368A3.2,3.2,0,0,0,29.248-7.9a3.8,3.8,0,0,0-3.68,4.016,3.78,3.78,0,0,0,3.616,4,3.139,3.139,0,0,0,2.5-1.168ZM26.736-3.9a2.775,2.775,0,0,1,2.72-2.976,2.813,2.813,0,0,1,2.208,1.04v3.888a2.7,2.7,0,0,1-2.208,1.04A2.789,2.789,0,0,1,26.736-3.9Zm9.584-3.9H35.152v5.056A2.722,2.722,0,0,0,37.968.128a2.813,2.813,0,0,0,2.5-1.408V0h1.168V-7.808H40.464v5.76a2.32,2.32,0,0,1-2.048,1.2,2.023,2.023,0,0,1-2.1-2.24Zm11.168,6.9A2.817,2.817,0,0,1,44.768-3.9a2.832,2.832,0,0,1,2.72-2.976,2.983,2.983,0,0,1,2.144.976l.752-.816a4.146,4.146,0,0,0-2.912-1.216A3.912,3.912,0,0,0,43.6-3.9,3.926,3.926,0,0,0,47.472.144,3.955,3.955,0,0,0,50.336-1.12l-.72-.72A2.791,2.791,0,0,1,47.488-.912Zm5.68-.848c0,1.216.688,1.9,2.048,1.9a4.713,4.713,0,0,0,1.376-.208V-1.1a2.881,2.881,0,0,1-1.1.208c-.832,0-1.152-.336-1.152-1.168V-6.848h2.256v-.96H54.336v-2.256l-1.168.272v1.984H51.552v.96h1.616Zm4.48.672A4.33,4.33,0,0,0,60.832.144c1.76,0,3.04-1.088,3.024-2.416.016-1.184-.736-1.824-2.272-2.1l-1.3-.24c-.96-.176-1.36-.448-1.36-1.12,0-.768.72-1.248,1.7-1.248a3.943,3.943,0,0,1,2.416.88l.624-.8a4.858,4.858,0,0,0-2.992-1.04c-1.648,0-2.816.96-2.816,2.288,0,1.168.752,1.792,2.208,2.048l1.3.224c.976.176,1.392.512,1.392,1.168,0,.768-.7,1.408-1.968,1.408A3.5,3.5,0,0,1,58.32-1.824Z" transform="translate(220 42)"/><path class="c" d="M87.76,55.65a8.01,8.01,0,1,1,7.97,7.97"/><path class="e" d="M59.09,26.7c2.66,0,6.53-.56,6.53-3.73"/><path d="M66.02,24.27"/></svg>