<svg xmlns="http://www.w3.org/2000/svg" width="872" height="199"><g fill="#06c"><path d="M301 179l-1.5 1.5 4.5 4.5h-10v2h10l-4.5 4.5 1.5 1.5 7-7z"/><text font-family="RedHatDisplay-Bold, Red Hat Display" font-size="18" font-weight="700" transform="translate(222 192)"><tspan x="0" y="0">Default</tspan></text></g><text fill="#151515" font-family="RedHatText-Regular, Red Hat Text" font-size="18" transform="translate(222 54)"><tspan x="0" y="18">Lorem ipsum dolor sit amet, consectetur adipiscing elit. Sed finibus viverra sapien, </tspan><tspan x="0" y="45">at rutrum erat aliquet vel. Quisque pretium a tellus et aliquam. In ut lobortis neque. </tspan><tspan x="0" y="72">Praesent consequat justo purus, a volutpat sapien condimentum quis. Duis ultrices </tspan><tspan x="0" y="99">cursus lectus, malesuada iaculis ante tempor eget. Praesent elementum arcu leo,</tspan></text><text fill="#151515" font-family="RedHatDisplay-Medium, Red Hat Display" font-size="28" font-weight="500" transform="translate(222 29)"><tspan x="0" y="0">Section 2</tspan></text><path fill="#d2d2d2" d="M0 34h1v159H0z"/><text fill="#6a6e73" font-family="RedHatText-Regular, Red Hat Text" font-size="16" transform="translate(17 156)"><tspan x="0" y="0">Section 3</tspan></text><text fill="#151515" font-family="RedHatText-Regular, Red Hat Text" font-size="16" transform="translate(17 119)"><tspan x="0" y="0">Section 2</tspan></text><path fill="#e00" d="M0 95h3v37H0z"/><text fill="#6a6e73" font-family="RedHatText-Regular, Red Hat Text" font-size="16" transform="translate(17 82)"><tspan x="0" y="0">Section 1</tspan></text><text fill="#151515" font-family="RedHatText-Regular, Red Hat Text" font-size="14" letter-spacing=".01em" transform="translate(0 14)"><tspan x="0" y="0">JUMP TO SECTION</tspan></text><g fill="none" stroke="#2261c5" stroke-width="2" transform="translate(222 174)"><rect width="86" height="23" stroke="none" rx="3"/><rect width="88" height="25" x="-1" y="-1" rx="4"/></g><g fill="none" stroke="#2261c5" stroke-width="2" opacity=".6" transform="translate(17 140)"><rect width="68" height="21" stroke="none" rx="3"/><rect width="70" height="23" x="-1" y="-1" rx="4"/></g><g fill="none" stroke="#2261c5" stroke-width="2" opacity=".3" transform="translate(17 66)"><rect width="64" height="21" stroke="none" rx="3"/><rect width="66" height="23" x="-1" y="-1" rx="4"/></g></svg>