<svg xmlns="http://www.w3.org/2000/svg" xmlns:xlink="http://www.w3.org/1999/xlink" width="884" height="259" viewBox="0 0 884 259"><defs><filter id="a" x="0" y="0" width="884" height="259" filterUnits="userSpaceOnUse"><feOffset dy="3" input="SourceAlpha"/><feGaussianBlur stdDeviation="2" result="b"/><feFlood flood-opacity="0.102"/><feComposite operator="in" in2="b"/><feComposite in="SourceGraphic"/></filter></defs><g transform="translate(-418 -1106)"><g transform="translate(64 887)"><g transform="matrix(1, 0, 0, 1, 354, 219)" filter="url(#a)"><g transform="translate(6 3)" fill="#fff" stroke="#d2d2d2" stroke-width="1"><rect width="872" height="247" stroke="none"/><rect x="0.5" y="0.5" width="871" height="246" fill="none"/></g></g><rect width="1" height="159" transform="translate(384 286)" fill="#d2d2d2"/><text transform="translate(401 408)" fill="#6a6e73" font-size="16" font-family="RedHatText, RedHatText"><tspan x="0" y="0">Section 3</tspan></text><text transform="translate(401 371)" fill="#151515" font-size="16" font-family="RedHatText, RedHatText"><tspan x="0" y="0">Section 2</tspan></text><rect width="3" height="37" transform="translate(384 347)" fill="#e00"/><text transform="translate(401 334)" fill="#6a6e73" font-size="16" font-family="RedHatText, RedHatText"><tspan x="0" y="0">Section 1</tspan></text><text transform="translate(408 256)" fill="#151515" font-size="16" font-family="RedHatText, RedHatText"><tspan x="0" y="0">Jump to section</tspan></text><g transform="translate(-307 -95)"><rect width="24" height="24" transform="translate(683 333)" fill="none"/><path d="M8.24,12.475,1.354,5.589a1.232,1.232,0,0,1,0-1.62L2.569,2.754a1.232,1.232,0,0,1,1.62,0L9.05,7.615l4.861-4.861a1.232,1.232,0,0,1,1.62,0l1.215,1.215a1.232,1.232,0,0,1,0,1.62L9.86,12.475A1.232,1.232,0,0,1,8.24,12.475Z" transform="translate(685.95 337.55)" fill="#151515"/></g></g><g transform="translate(88 917)"><g transform="translate(381 415)"><rect width="24" height="24" fill="#1b8793"/></g><g transform="translate(377 383)"><rect width="32" height="32" fill="#1893d2"/></g><g transform="translate(377 362)" fill="none" stroke="#f0f" stroke-width="1" opacity="0.25"><rect width="68" height="21" stroke="none"/><rect x="0.5" y="0.5" width="67" height="20" fill="none"/></g><g transform="translate(361 362)"><rect width="16" height="21" fill="#51a549"/></g><g transform="translate(377 354)" opacity="0.5"><rect width="68" height="8" fill="#9bd917"/></g><g transform="translate(363 346)"><rect width="82" height="8" fill="#9bd917"/></g><g transform="translate(377 325)" fill="none" stroke="#f0f" stroke-width="1" opacity="0.25"><rect width="68" height="21" stroke="none"/><rect x="0.5" y="0.5" width="67" height="20" fill="none"/></g><g transform="translate(336 324)"><rect width="24" height="24" fill="#1b8793"/></g><g transform="translate(363 317)"><rect width="82" height="8" fill="#9bd917"/></g><g transform="translate(377 309)" opacity="0.5"><rect width="64" height="8" fill="#9bd917"/></g><g transform="translate(377 288)" fill="none" stroke="#f0f" stroke-width="1" opacity="0.25"><rect width="64" height="21" stroke="none"/><rect x="0.5" y="0.5" width="63" height="20" fill="none"/></g><g transform="translate(361 288)"><rect width="16" height="21" fill="#51a549"/></g><g transform="translate(377 256)"><rect width="32" height="32" fill="#1893d2"/></g><g transform="translate(352 232)"><rect width="57" height="24" fill="#1b8793"/></g><g transform="translate(384 208)" fill="none" stroke="#f0f" stroke-width="1" opacity="0.25"><rect width="116" height="24" stroke="none"/><rect x="0.5" y="0.5" width="115" height="23" fill="none"/></g><g transform="translate(376 217)"><rect width="8" height="8" fill="#9bd917"/></g><g transform="translate(352 208)" fill="none" stroke="#f0f" stroke-width="1" opacity="0.25"><rect width="24" height="24" stroke="none"/><rect x="0.5" y="0.5" width="23" height="23" fill="none"/></g><g transform="translate(336 212)"><rect width="16" height="16" fill="#51a549"/></g><g transform="translate(434 192)"><rect width="16" height="16" fill="#51a549"/></g><g transform="translate(356 192)"><rect width="16" height="16" fill="#51a549"/></g></g></g></svg>