<svg xmlns="http://www.w3.org/2000/svg" width="768" height="217" viewBox="0 0 768 217"><g transform="translate(-360 -6954)"><text transform="translate(570 7008)" fill="#151515" font-size="18" font-family="RedHatText-Regular, RedHatText"><tspan x="0" y="18">Lorem ipsum dolor sit amet, consectetur adipiscing elit. Sed </tspan><tspan x="0" y="45">finibus viverra sapien, at rutrum erat aliquet vel. Quisque pretium a </tspan><tspan x="0" y="72">tellus et aliquam. In ut lobortis neque. Praesent consequat justo </tspan><tspan x="0" y="99">purus, a volutpat sapien condimentum quis. Duis ultrices cursus </tspan><tspan x="0" y="126">lectus, malesuada iaculis ante tempor eget. Praesent elementum </tspan><tspan x="0" y="153">arcu leo, nec ullamcorper quam mollis quis. Nam faucibus eros </tspan></text><text transform="translate(570 6983)" fill="#151515" font-size="28" font-family="RedHatDisplay-Medium, RedHatDisplay" font-weight="500"><tspan x="0" y="0">Section 2</tspan></text><g transform="translate(30 6732)"><rect width="1" height="183" transform="translate(360 256)" fill="#d2d2d2"/><text transform="translate(377 402)" fill="#6a6e73" font-size="16" font-family="RedHatText-Regular, RedHatText"><tspan x="0" y="0">Section 3</tspan></text><text transform="translate(377 325)" fill="#151515" font-size="16" font-family="RedHatText-Regular, RedHatText"><tspan x="0" y="16">Longer section 2 </tspan><tspan x="0" y="40">link text</tspan></text><rect width="3" height="61" transform="translate(360 317)" fill="#e00"/><text transform="translate(377 304)" fill="#6a6e73" font-size="16" font-family="RedHatText-Regular, RedHatText"><tspan x="0" y="0">Section 1</tspan></text><text transform="translate(360 236)" fill="#151515" font-size="14" font-family="RedHatText-Regular, RedHatText" letter-spacing="0.01em"><tspan x="0" y="0">JUMP TO SECTION</tspan></text></g><g transform="translate(0 3562)" opacity="0.03"><rect width="30" height="217" transform="translate(1098 3392)" fill="blue" opacity="0.75"/><rect width="48" height="217" transform="translate(1050 3392)" fill="red" opacity="0.75"/><rect width="48" height="217" transform="translate(990 3392)" fill="red" opacity="0.75"/><rect width="48" height="217" transform="translate(930 3392)" fill="red" opacity="0.75"/><rect width="48" height="217" transform="translate(870 3392)" fill="red" opacity="0.75"/><rect width="48" height="217" transform="translate(810 3392)" fill="red" opacity="0.75"/><rect width="48" height="217" transform="translate(750 3392)" fill="red" opacity="0.75"/><rect width="48" height="217" transform="translate(690 3392)" fill="red" opacity="0.75"/><rect width="48" height="217" transform="translate(630 3392)" fill="red" opacity="0.75"/><rect width="48" height="217" transform="translate(570 3392)" fill="red" opacity="0.75"/><rect width="48" height="217" transform="translate(510 3392)" fill="red" opacity="0.75"/><rect width="48" height="217" transform="translate(450 3392)" fill="red" opacity="0.75"/><rect width="48" height="217" transform="translate(390 3392)" fill="red" opacity="0.75"/><rect width="30" height="217" transform="translate(360 3392)" fill="blue" opacity="0.75"/></g></g></svg>