<svg xmlns="http://www.w3.org/2000/svg" xmlns:xlink="http://www.w3.org/1999/xlink" width="206" height="193" viewBox="0 0 206 193"><defs><clipPath id="a"><circle cx="40" cy="40" r="40" transform="translate(731 1358)" fill="none"/></clipPath></defs><g transform="translate(-757 -1290)"><g transform="translate(397 1068)"><rect width="1" height="159" transform="translate(360 256)" fill="#d2d2d2"/><text transform="translate(377 378)" fill="#6a6e73" font-size="16" font-family="RedHatText-Regular, Red Hat Text"><tspan x="0" y="0">Section 3</tspan></text><text transform="translate(377 341)" fill="#151515" font-size="16" font-family="RedHatText-Regular, Red Hat Text"><tspan x="0" y="0">Section 2</tspan></text><rect width="3" height="37" transform="translate(360 317)" fill="#e00"/><text transform="translate(377 304)" fill="#6a6e73" font-size="16" font-family="RedHatText-Regular, Red Hat Text"><tspan x="0" y="0">Section 1</tspan></text><text transform="translate(360 236)" fill="#151515" font-size="14" font-family="RedHatText-Regular, Red Hat Text" letter-spacing="0.01em"><tspan x="0" y="0">JUMP TO SECTION</tspan></text></g><g transform="translate(152 -13)"><g clip-path="url(#a)"><rect width="8" height="80" transform="translate(767 1358)" fill="#d2d2d2"/><rect width="24" height="40" transform="translate(767 1398)" fill="#e00"/></g><g transform="translate(731 1358)" fill="none" stroke="#6a6e73" stroke-width="1"><circle cx="40" cy="40" r="40" stroke="none"/><circle cx="40" cy="40" r="39.5" fill="none"/></g></g><rect width="115" height="1" transform="translate(768 1385)" fill="#06c"/><circle cx="3.5" cy="3.5" r="3.5" transform="translate(764 1382)" fill="#06c"/></g></svg>