<svg xmlns="http://www.w3.org/2000/svg" width="942" height="260" viewBox="0 0 942 260"><g transform="translate(-319 -332)"><g transform="translate(319.408 335)"><g transform="translate(647.592 -3)"><g transform="translate(0 -14)"><text transform="translate(0 70)" fill="#151515" font-size="18" font-family="RedHatText-Regular, Red Hat Text"><tspan x="35.841" y="18">My team can audit the code</tspan></text><text transform="translate(113 51)" fill="#e00" font-size="36" font-family="RedHatDisplay-Regular, Red Hat Display"><tspan x="0" y="0">38%</tspan></text></g></g><g transform="translate(323.592 -3)"><g transform="translate(0 -14)"><text transform="translate(0 70)" fill="#151515" font-size="18" font-family="RedHatText-Regular, Red Hat Text"><tspan x="13.395" y="18">Well-tested open source code for </tspan><tspan x="61.491" y="45">in-house applications</tspan></text><text transform="translate(114 51)" fill="#e00" font-size="36" font-family="RedHatDisplay-Regular, Red Hat Display"><tspan x="0" y="0">55%</tspan></text></g></g><g transform="translate(-0.408 -3)"><g transform="translate(0 -14)"><text transform="translate(0 70)" fill="#151515" font-size="18" font-family="RedHatText-Regular, Red Hat Text"><tspan x="64.884" y="18">Security patches are </tspan><tspan x="76.575" y="45">well-documented</tspan></text><text transform="translate(114 51)" fill="#e00" font-size="36" font-family="RedHatDisplay-Regular, Red Hat Display"><tspan x="0" y="0">52%</tspan></text></g></g></g><g transform="translate(481.408 489)"><g transform="translate(323.592 -3)"><g transform="translate(0 -14)"><text transform="translate(0 70)" fill="#151515" font-size="18" font-family="RedHatText-Regular, Red Hat Text"><tspan x="18.336" y="18">More people review and test the </tspan><tspan x="127.083" y="45">code</tspan></text><text transform="translate(112 51)" fill="#e00" font-size="36" font-family="RedHatDisplay-Regular, Red Hat Display"><tspan x="0" y="0">44%</tspan></text></g></g><g transform="translate(-0.408 -3)"><g transform="translate(0 -14)"><text transform="translate(0 70)" fill="#151515" font-size="18" font-family="RedHatText-Regular, Red Hat Text"><tspan x="12.081" y="18">Vulnerability patches are available </tspan><tspan x="119.325" y="45">quickly</tspan></text><text transform="translate(119 51)" fill="#e00" font-size="36" font-family="RedHatDisplay-Regular, Red Hat Display"><tspan x="0" y="0">51%</tspan></text></g></g></g></g></svg>