<svg xmlns="http://www.w3.org/2000/svg" width="360" height="260" viewBox="0 0 360 260"><g transform="translate(-620 -327)"><g transform="translate(636 327)" opacity="0.02"><rect width="328" height="260" fill="#e00"/></g><rect width="16" height="260" transform="translate(620 327)" fill="#fafaff"/><rect width="16" height="260" transform="translate(964 327)" fill="#fafaff"/><g transform="translate(669 327)"><text transform="translate(0 56)" fill="#151515" font-size="18" font-family="RedHatText-Regular, Red Hat Text"><tspan x="15.364" y="18">of Fortune Global 500 media </tspan><tspan x="22.356" y="45">and technology companies</tspan><tspan y="45" font-size="10.499" baseline-shift="5.999400079342301">1</tspan></text><text transform="translate(96 37)" fill="#e00" font-size="36" font-family="RedHatDisplay-Regular, Red Hat Display"><tspan x="0" y="0">80%</tspan></text><g transform="translate(0 56)" fill="none" stroke="#f0f" stroke-width="1" opacity="0.5"><rect width="263" height="50" stroke="none"/><rect x="0.5" y="0.5" width="262" height="49" fill="none"/></g><g transform="translate(128 48)"><rect width="8" height="8" fill="#9bd917"/></g><g transform="translate(96)" fill="none" stroke="#f0f" stroke-width="1" opacity="0.5"><rect width="72" height="48" stroke="none"/><rect x="0.5" y="0.5" width="71" height="47" fill="none"/></g></g><g transform="translate(669 481)"><text transform="translate(0 56)" fill="#151515" font-size="18" font-family="RedHatText-Regular, Red Hat Text"><tspan x="42.049" y="18">of Fortune Global 500 </tspan><tspan x="56.679" y="45">commercial banks</tspan><tspan y="45" font-size="10.499" baseline-shift="5.999400079342301">4</tspan></text><text transform="translate(96 37)" fill="#e00" font-size="36" font-family="RedHatDisplay-Regular, Red Hat Display"><tspan x="0" y="0">80%</tspan></text><g transform="translate(0 56)" fill="none" stroke="#f0f" stroke-width="1" opacity="0.5"><rect width="263" height="50" stroke="none"/><rect x="0.5" y="0.5" width="262" height="49" fill="none"/></g><g transform="translate(128 48)"><rect width="8" height="8" fill="#9bd917"/></g><g transform="translate(96)" fill="none" stroke="#f0f" stroke-width="1" opacity="0.5"><rect width="72" height="48" stroke="none"/><rect x="0.5" y="0.5" width="71" height="47" fill="none"/></g></g><g transform="translate(776 433)"><rect width="48" height="48" fill="#6743c6"/></g></g></svg>