<svg xmlns="http://www.w3.org/2000/svg" width="879" height="162" viewBox="0 0 879 162"><g transform="translate(-132)"><g transform="translate(729)"><g transform="translate(0 -17)"><text transform="translate(0 99)" fill="#151515" font-size="18" font-family="RedHatText-Regular, Red Hat Text"><tspan x="5.829" y="18">of Fortune 500 companies rely on </tspan><tspan x="105.479" y="45">Red Hat</tspan><tspan y="45" font-size="10.499" baseline-shift="5.999400079342301">3</tspan></text><text transform="translate(111 80)" fill="#e00" font-size="36" font-family="RedHatDisplay-Regular, Red Hat Display"><tspan x="0" y="0">90%</tspan></text><text transform="translate(88 37)" fill="#e00" font-size="20" font-family="RedHatDisplay-Medium, Red Hat Display" font-weight="500"><tspan x="0" y="0">MORE THAN</tspan></text></g></g><g transform="translate(430)"><text transform="translate(0 56)" fill="#151515" font-size="18" font-family="RedHatText-Regular, Red Hat Text"><tspan x="7.827" y="18">of Fortune Global 500 media and </tspan><tspan x="47.628" y="45">technology companies</tspan><tspan y="45" font-size="10.499" baseline-shift="5.999400079342301">2</tspan></text><text transform="translate(112 37)" fill="#e00" font-size="36" font-family="RedHatDisplay-Regular, Red Hat Display"><tspan x="0" y="0">80%</tspan></text></g><g transform="translate(132)"><g transform="translate(-28)"><text transform="translate(28 112)" fill="#151515" font-size="18" font-family="RedHatText-Regular, Red Hat Text"><tspan x="0.753" y="18">of Fortune Global 500 government </tspan><tspan x="47.381" y="45">and military companies</tspan><tspan y="45" font-size="10.499" baseline-shift="5.999400079342301">1</tspan></text><text transform="translate(127 93)" fill="#e00" font-size="36" font-family="RedHatDisplay-Regular, Red Hat Display"><tspan x="0" y="0">100%</tspan></text><g transform="translate(149)"><rect width="40" height="40" fill="#f0f0f0" opacity="0.003"/><g transform="translate(2.662 2)"><path d="M9.15,25.275H32.064a.8.8,0,0,0,0-1.591H30.307v-.42a9.7,9.7,0,0,0-6.365-9.1v-4.9a.777.777,0,0,0-.789-.789H21.4v-4.3a.789.789,0,0,0-1.579,0v4.3H18.061a.777.777,0,0,0-.789.789v4.85a9.7,9.7,0,0,0-6.365,9.1v.471H9.15a.8.8,0,0,0,0,1.591ZM18.85,13.5V10.05h3.513V13.5Zm1.757,1.591a8.122,8.122,0,0,1,8.122,8.173v.471H12.486v-.471a8.122,8.122,0,0,1,8.122-8.173Z" transform="translate(-3.269 -3.38)" fill="#151515"/><path d="M38.267,31.475H36.51v-4.3a.789.789,0,0,0-.789-.8H7.715a.789.789,0,0,0-.789.8v4.354H5.169a.789.789,0,1,0,0,1.578h33.1a.789.789,0,1,0,0-1.578ZM8.5,27.91H34.932v3.564H8.5Z" transform="translate(-4.38 2.896)" fill="#151515"/><path d="M9.38,22.169v3.819a.789.789,0,1,0,1.578,0V22.169a.789.789,0,1,0-1.578,0Z" transform="translate(-3.015 1.534)" fill="#151515"/><path d="M13.38,22.169v3.819a.789.789,0,1,0,1.578,0V22.169a.789.789,0,0,0-1.578,0Z" transform="translate(-1.923 1.534)" fill="#151515"/><path d="M17.38,22.169v3.819a.789.789,0,1,0,1.578,0V22.169a.789.789,0,1,0-1.578,0Z" transform="translate(-0.831 1.534)" fill="#151515"/><path d="M21.38,22.169v3.819a.789.789,0,0,0,1.579,0V22.169a.789.789,0,1,0-1.578,0Z" transform="translate(0.261 1.534)" fill="#151515"/><path d="M25.38,22.169v3.819a.789.789,0,0,0,1.579,0V22.169a.789.789,0,0,0-1.579,0Z" transform="translate(1.353 1.534)" fill="#151515"/><path d="M14.169,18.974a.8.8,0,1,0-.789-.789.789.789,0,0,0,.789.789Z" transform="translate(-1.923 0.439)" fill="#151515"/><path d="M18.169,18.974a.8.8,0,1,0-.789-.8.8.8,0,0,0,.789.8Z" transform="translate(-0.831 0.439)" fill="#151515"/><path d="M22.169,18.974a.8.8,0,1,0-.789-.8.8.8,0,0,0,.789.8Z" transform="translate(0.261 0.439)" fill="#151515"/><path d="M14.175,28.38a.8.8,0,1,0,.789.789.789.789,0,0,0-.789-.789Z" transform="translate(-1.929 3.445)" fill="#151515"/><path d="M10.172,28.38a.8.8,0,1,0,.8.789.789.789,0,0,0-.8-.789Z" transform="translate(-3.018 3.445)" fill="#151515"/><path d="M18.175,28.38a.8.8,0,1,0,.789.789.789.789,0,0,0-.789-.789Z" transform="translate(-0.837 3.445)" fill="#151515"/><path d="M22.172,28.38a.8.8,0,1,0,.8.789.789.789,0,0,0-.8-.789Z" transform="translate(0.258 3.445)" fill="#151515"/><path d="M26.175,28.38a.8.8,0,1,0,.789.789A.789.789,0,0,0,26.175,28.38Z" transform="translate(1.347 3.445)" fill="#151515"/></g></g></g></g></g></svg>