<svg xmlns="http://www.w3.org/2000/svg" width="1000" height="208"><defs><style>.c{fill:#06c}.h{fill:red;opacity:.75}</style></defs><g transform="translate(-360 -1644)"><rect width="1000" height="208" rx="3" transform="translate(360 1644)" fill="#f0f0f0"/><path fill="#fff" d="M424 1708h872v80H424z"/><path class="c" d="M1190 1742l-1.5 1.5 4.5 4.5h-10v2h10l-4.5 4.5 1.5 1.5 7-7zM1071.434 1752.768a4.005 4.005 0 01-4.104-4.068 3.976 3.976 0 014.032-4.1 4.389 4.389 0 013.474 1.71l1.764-1.75a6.871 6.871 0 00-5.238-2.36 6.523 6.523 0 00-6.714 6.5 6.5 6.5 0 006.714 6.48 6.862 6.862 0 005.166-2.322l-1.71-1.692a4.3 4.3 0 01-3.384 1.602zm9.432 2.394a4.389 4.389 0 002.718-.828v.666h2.43v-6.084c0-2.25-1.494-3.474-4-3.474a9.86 9.86 0 00-4.172 1.008l.9 1.818a7.277 7.277 0 012.858-.774c1.314 0 1.98.54 1.98 1.638v.668a7.242 7.242 0 00-2.286-.36c-2.34 0-3.852 1.008-3.852 2.844.004 1.654 1.358 2.878 3.424 2.878zm-1.066-2.934c0-.756.72-1.17 1.8-1.17a5.558 5.558 0 011.98.342v1.4a3.59 3.59 0 01-2.07.594c-1.04.006-1.71-.446-1.71-1.166zm10.552-10.368l-2.466.54v12.6h2.466zm4.338 0l-2.466.54v12.6h2.466zm6.8 10.494c0 1.854 1.116 2.79 3.168 2.79a7.908 7.908 0 001.912-.288v-2.016a4.1 4.1 0 01-1.314.216c-.954 0-1.3-.324-1.3-1.206v-4.158h2.664v-2.07h-2.66v-2.952l-2.466.558v2.394h-1.926v2.07h1.926zm5.836-2.034a4.873 4.873 0 005 4.86 4.873 4.873 0 005-4.86 4.888 4.888 0 00-5-4.878 4.888 4.888 0 00-5 4.878zm7.6 0a2.634 2.634 0 01-2.596 2.718 2.634 2.634 0 01-2.592-2.718 2.638 2.638 0 012.592-2.736 2.627 2.627 0 012.592 2.736zm10.508 4.842a4.389 4.389 0 002.718-.828v.666h2.43v-6.084c0-2.25-1.494-3.474-4-3.474a9.86 9.86 0 00-4.172 1.008l.9 1.818a7.277 7.277 0 012.862-.774c1.314 0 1.98.54 1.98 1.638v.668a7.242 7.242 0 00-2.286-.36c-2.34 0-3.852 1.008-3.852 2.844 0 1.654 1.35 2.878 3.42 2.878zm-1.062-2.934c0-.756.72-1.17 1.8-1.17a5.558 5.558 0 011.98.342v1.4a3.59 3.59 0 01-2.07.594c-1.044.006-1.71-.446-1.71-1.166zm12.708.792a2.582 2.582 0 01-2.574-2.7 2.593 2.593 0 012.52-2.736 3.039 3.039 0 012.322 1.134l1.512-1.6a5.275 5.275 0 00-3.888-1.674 4.833 4.833 0 00-4.914 4.876 4.819 4.819 0 004.914 4.86 5.175 5.175 0 003.816-1.674l-1.476-1.53a2.971 2.971 0 01-2.232 1.044zm6.444-.666c0 1.854 1.116 2.79 3.168 2.79a7.908 7.908 0 001.908-.288v-2.016a4.1 4.1 0 01-1.314.216c-.954 0-1.3-.324-1.3-1.206v-4.158h2.664v-2.07h-2.66v-2.952l-2.466.558v2.394h-1.924v2.07h1.926zm7.542-7.848a1.406 1.406 0 001.4-1.4 1.406 1.406 0 00-1.4-1.4 1.418 1.418 0 00-1.4 1.4 1.418 1.418 0 001.4 1.4zm1.242 1.116h-2.466V1755h2.466zm1.476 4.7a4.873 4.873 0 005 4.86 4.873 4.873 0 005-4.86 4.888 4.888 0 00-5-4.878 4.888 4.888 0 00-5 4.876zm7.6 0a2.634 2.634 0 01-2.592 2.718 2.634 2.634 0 01-2.592-2.72 2.638 2.638 0 012.592-2.736 2.627 2.627 0 012.588 2.736zm3.884 4.678h2.466v-6.5a2.2 2.2 0 011.926-.936 1.842 1.842 0 011.962 1.962V1755h2.448v-5.832a3.558 3.558 0 00-3.708-3.726 3.912 3.912 0 00-2.628.936v-.756h-2.466z"/><path d="M697.9 1748.64v-.5h-5.02v1.088h3.776a4.076 4.076 0 01-4.1 3.84 4.486 4.486 0 01-4.412-4.668 4.472 4.472 0 014.416-4.656 4.645 4.645 0 013.54 1.556l.832-.832a5.749 5.749 0 00-4.368-1.84 5.669 5.669 0 00-5.664 5.772 5.682 5.682 0 005.676 5.776 5.345 5.345 0 005.324-5.536zm1.7 1.46a3.907 3.907 0 003.872 4.044 4.5 4.5 0 002.928-1.044l-.736-.8a3.191 3.191 0 01-2.144.8 2.81 2.81 0 01-2.768-2.768h6.128V1750a3.7 3.7 0 00-3.58-3.936 3.812 3.812 0 00-3.7 4.036zm3.68-3.008a2.572 2.572 0 012.432 2.428h-4.928a2.581 2.581 0 012.496-2.432zm6.144 5.148c0 1.216.688 1.9 2.048 1.9a4.713 4.713 0 001.376-.208v-1.032a2.881 2.881 0 01-1.1.208c-.832 0-1.152-.336-1.152-1.168v-4.788h2.256v-.96h-2.26v-2.256l-1.168.272v1.984h-1.616v.96h1.616zm10.512 2.848c-.32.8-.736.992-1.264.992a3.939 3.939 0 01-.64-.064v1.04a2.568 2.568 0 00.752.112c1.168 0 1.76-.5 2.24-1.728l3.808-9.248h-1.28l-2.512 6.432-2.368-6.432h-1.312l3.024 7.792zm5.712-4.988a3.867 3.867 0 003.792 4.06 3.873 3.873 0 003.824-4.06 3.845 3.845 0 00-3.824-4.036 3.839 3.839 0 00-3.792 4.036zm6.448.016a2.756 2.756 0 01-2.656 3.004 2.742 2.742 0 01-2.624-3.008 2.767 2.767 0 012.624-3.024 2.771 2.771 0 012.66 3.024zm4.3-3.92h-1.164v5.056a2.722 2.722 0 002.816 2.876 2.813 2.813 0 002.5-1.408v1.28h1.168v-7.808h-1.172v5.76a2.32 2.32 0 01-2.044 1.2 2.023 2.023 0 01-2.1-2.24zm7.62 7.804h1.168v-5.344a2.2 2.2 0 012.1-1.584 2.768 2.768 0 01.816.144v-1.056a2.3 2.3 0 00-.736-.112 2.321 2.321 0 00-2.176 1.7v-1.556h-1.172zm8.608-7.808v.96h1.744V1754h1.168v-6.848h2.24v-.96h-2.24v-1.216c0-.944.416-1.36 1.28-1.36a2.856 2.856 0 01.96.144v-1.06a3.664 3.664 0 00-1.056-.144 2.147 2.147 0 00-2.352 2.4v1.232zm6.608 7.808h1.168v-5.344a2.2 2.2 0 012.1-1.584 2.768 2.768 0 01.816.144v-1.056a2.3 2.3 0 00-.736-.112 2.321 2.321 0 00-2.176 1.7v-1.556h-1.172zm4.7-3.9a3.907 3.907 0 003.876 4.044 4.5 4.5 0 002.928-1.044l-.736-.8a3.191 3.191 0 01-2.144.8 2.81 2.81 0 01-2.768-2.768h6.128V1750a3.7 3.7 0 00-3.584-3.936 3.812 3.812 0 00-3.696 4.036zm3.68-3.008a2.572 2.572 0 012.436 2.428h-4.928a2.581 2.581 0 012.496-2.432zm5.2 3.008a3.907 3.907 0 003.876 4.044 4.5 4.5 0 002.928-1.044l-.736-.8a3.191 3.191 0 01-2.144.8 2.81 2.81 0 01-2.768-2.768h6.132V1750a3.7 3.7 0 00-3.584-3.936 3.812 3.812 0 00-3.7 4.036zm3.688-3.012a2.572 2.572 0 012.428 2.432H774a2.581 2.581 0 012.5-2.432zm9.248 10.1h1.168v-4.18a3.14 3.14 0 002.448 1.1 3.8 3.8 0 003.676-4.008 3.78 3.78 0 00-3.616-4 3.081 3.081 0 00-2.524 1.212v-1.12h-1.156zm3.388-10.068a2.8 2.8 0 012.736 2.992 2.791 2.791 0 01-2.736 2.988 2.767 2.767 0 01-2.224-1.088v-3.82a2.688 2.688 0 012.224-1.072zm8.384 7.024a3.321 3.321 0 002.48-1.044v.9h1.152v-5.184c0-1.808-1.12-2.752-3.024-2.752a6.539 6.539 0 00-2.944.752l.448.9a5.037 5.037 0 012.352-.672c1.312 0 2.016.624 2.016 1.936v1.056a4.683 4.683 0 00-2.368-.592c-1.7 0-2.928.864-2.928 2.3-.004 1.424 1.168 2.4 2.816 2.4zm-1.7-2.416c0-.912.832-1.456 1.968-1.456a4.052 4.052 0 012.212.576v1.5a3.116 3.116 0 01-2.24.9c-1.136 0-1.936-.608-1.936-1.52zm6.912 1.184a4.33 4.33 0 003.188 1.232c1.76 0 3.04-1.088 3.024-2.416.016-1.184-.736-1.824-2.272-2.1l-1.3-.24c-.96-.176-1.36-.448-1.36-1.12 0-.768.72-1.248 1.7-1.248a3.943 3.943 0 012.416.88l.624-.8a4.858 4.858 0 00-2.992-1.04c-1.648 0-2.816.96-2.816 2.288 0 1.168.752 1.792 2.208 2.048l1.3.224c.976.176 1.392.512 1.392 1.168 0 .768-.7 1.408-1.968 1.408a3.5 3.5 0 01-2.464-1.024zm7.3 0a4.33 4.33 0 003.184 1.232c1.76 0 3.04-1.088 3.024-2.416.016-1.184-.736-1.824-2.272-2.1l-1.3-.24c-.96-.176-1.36-.448-1.36-1.12 0-.768.72-1.248 1.7-1.248a3.943 3.943 0 012.416.88l.624-.8a4.858 4.858 0 00-2.992-1.04c-1.648 0-2.816.96-2.816 2.288 0 1.168.752 1.792 2.208 2.048l1.3.224c.976.176 1.392.512 1.392 1.168 0 .768-.7 1.408-1.968 1.408a3.5 3.5 0 01-2.472-1.02zm12.576-.672c0 1.216.688 1.9 2.048 1.9a4.714 4.714 0 001.376-.208v-1.032a2.881 2.881 0 01-1.1.208c-.832 0-1.152-.336-1.152-1.168v-4.788h2.256v-.96h-2.256v-2.256l-1.168.272v1.984h-1.616v.96h1.616zm4.464-2.14a3.867 3.867 0 003.792 4.06 3.873 3.873 0 003.824-4.06 3.845 3.845 0 00-3.824-4.032 3.839 3.839 0 00-3.792 4.032zm6.448.016a2.756 2.756 0 01-2.656 3.004 2.742 2.742 0 01-2.624-3.008 2.767 2.767 0 012.624-3.024 2.771 2.771 0 012.656 3.024zm6.528-.016a3.867 3.867 0 003.792 4.06 3.873 3.873 0 003.824-4.06 3.845 3.845 0 00-3.824-4.032 3.839 3.839 0 00-3.792 4.032zm6.448.016a2.756 2.756 0 01-2.656 3.004 2.742 2.742 0 01-2.624-3.008 2.767 2.767 0 012.624-3.024 2.771 2.771 0 012.66 3.024zm4.3-3.92h-1.168v5.056a2.722 2.722 0 002.816 2.88 2.813 2.813 0 002.5-1.408V1754h1.168v-7.808h-1.168v5.76a2.32 2.32 0 01-2.048 1.2 2.023 2.023 0 01-2.1-2.24zm7.62 7.804h1.168v-5.344a2.2 2.2 0 012.1-1.584 2.768 2.768 0 01.816.144v-1.056a2.3 2.3 0 00-.736-.112 2.321 2.321 0 00-2.176 1.7v-1.556h-1.168zm9.936-9.776a.83.83 0 00.832-.848.826.826 0 00-.832-.832.826.826 0 00-.832.832.83.83 0 00.832.848zm.576 1.968h-1.168V1754h1.168zm2.32 7.808h1.168v-5.808a2.171 2.171 0 011.9-1.152 1.939 1.939 0 011.936 2.208V1754h1.168v-5.04a3.238 3.238 0 00-.064-.688 2.2 2.2 0 011.952-1.232c1.216 0 1.92.864 1.92 2.208V1754h1.184v-5.04a2.669 2.669 0 00-2.672-2.9 2.915 2.915 0 00-2.608 1.52 2.56 2.56 0 00-2.384-1.52 2.672 2.672 0 00-2.336 1.344v-1.212h-1.168zm13.472 0h1.168v-5.808a2.171 2.171 0 011.9-1.152 1.939 1.939 0 011.936 2.208V1754h1.176v-5.04a3.239 3.239 0 00-.064-.688 2.2 2.2 0 011.952-1.232c1.216 0 1.92.864 1.92 2.208V1754h1.184v-5.04a2.669 2.669 0 00-2.672-2.9 2.915 2.915 0 00-2.608 1.52 2.56 2.56 0 00-2.384-1.52 2.672 2.672 0 00-2.336 1.344v-1.212h-1.172zm13.136-3.9a3.907 3.907 0 003.872 4.044 4.5 4.5 0 002.928-1.044l-.736-.8a3.191 3.191 0 01-2.144.8 2.81 2.81 0 01-2.768-2.768h6.128V1750a3.7 3.7 0 00-3.584-3.936 3.812 3.812 0 00-3.696 4.036zm3.68-3.008a2.572 2.572 0 012.432 2.432h-4.928a2.581 2.581 0 012.496-2.436zm5.52 6.908h1.168v-5.344a2.2 2.2 0 012.1-1.584 2.768 2.768 0 01.816.144v-1.056a2.3 2.3 0 00-.736-.112 2.321 2.321 0 00-2.176 1.7v-1.556h-1.168zm4.784-1.088a4.33 4.33 0 003.184 1.232c1.76 0 3.04-1.088 3.024-2.416.016-1.184-.736-1.824-2.272-2.1l-1.3-.24c-.96-.176-1.36-.448-1.36-1.12 0-.768.72-1.248 1.7-1.248a3.943 3.943 0 012.416.88l.624-.8a4.858 4.858 0 00-2.992-1.04c-1.648 0-2.816.96-2.816 2.288 0 1.168.752 1.792 2.208 2.048l1.3.224c.976.176 1.392.512 1.392 1.168 0 .768-.7 1.408-1.968 1.408a3.5 3.5 0 01-2.464-1.024zm8.5-8.688a.83.83 0 00.832-.848.826.826 0 00-.832-.832.826.826 0 00-.832.832.83.83 0 00.828.848zm.576 1.968h-1.168V1754h1.168zm4.668 7.808h1.1l3.216-7.808h-1.248l-2.5 6.336-2.5-6.336h-1.3zm5.12-3.9a3.907 3.907 0 003.872 4.044 4.5 4.5 0 002.924-1.044l-.736-.8a3.191 3.191 0 01-2.144.8 2.81 2.81 0 01-2.768-2.768h6.128V1750a3.7 3.7 0 00-3.58-3.936 3.812 3.812 0 00-3.7 4.036zm3.68-3.008a2.572 2.572 0 012.432 2.432h-4.928a2.581 2.581 0 012.496-2.436zm11.6 6.908h1.1l3.216-7.808h-1.248l-2.5 6.336-2.5-6.336h-1.3zm6.368-9.776a.83.83 0 00.832-.848.826.826 0 00-.832-.832.826.826 0 00-.832.832.83.83 0 00.832.848zm.576 1.968h-1.168V1754h1.168zm2.32 7.808h1.168v-5.344a2.2 2.2 0 012.1-1.584 2.768 2.768 0 01.816.144v-1.056a2.3 2.3 0 00-.736-.112 2.321 2.321 0 00-2.176 1.7v-1.556h-1.168zm6.72-1.76c0 1.216.688 1.9 2.048 1.9a4.713 4.713 0 001.376-.208v-1.032a2.881 2.881 0 01-1.1.208c-.832 0-1.152-.336-1.152-1.168v-4.788h2.256v-.96h-2.256v-2.256l-1.168.272v1.984h-1.616v.96h1.616zm6.224-6.048h-1.168v5.056a2.722 2.722 0 002.816 2.88 2.813 2.813 0 002.5-1.408v1.28h1.16v-7.808h-1.168v5.76a2.32 2.32 0 01-2.048 1.2 2.023 2.023 0 01-2.1-2.24zm10.048 7.952a3.321 3.321 0 002.48-1.044v.9h1.152v-5.184c0-1.808-1.12-2.752-3.024-2.752a6.539 6.539 0 00-2.944.752l.448.9a5.037 5.037 0 012.348-.676c1.312 0 2.016.624 2.016 1.936v1.056a4.683 4.683 0 00-2.368-.592c-1.7 0-2.928.864-2.928 2.3.004 1.428 1.172 2.404 2.82 2.404zm-1.7-2.416c0-.912.832-1.456 1.968-1.456a4.052 4.052 0 012.208.576v1.5a3.116 3.116 0 01-2.24.9c-1.132 0-1.932-.608-1.932-1.52zm8.816-9.168l-1.168.24v11.2h1.168zm5.716 7.54a3.907 3.907 0 003.872 4.044 4.5 4.5 0 002.928-1.044l-.736-.8a3.191 3.191 0 01-2.144.8 2.81 2.81 0 01-2.768-2.768h6.128V1750a3.7 3.7 0 00-3.584-3.936 3.812 3.812 0 00-3.696 4.036zm3.68-3.008a2.572 2.572 0 012.432 2.432h-4.928a2.581 2.581 0 012.496-2.436zm7.548 6.908h1.1l3.216-7.808h-1.248l-2.5 6.336-2.5-6.336h-1.3zm5.12-3.9a3.907 3.907 0 003.88 4.044 4.5 4.5 0 002.924-1.044l-.736-.8a3.191 3.191 0 01-2.144.8 2.81 2.81 0 01-2.768-2.768h6.124V1750a3.7 3.7 0 00-3.584-3.936 3.812 3.812 0 00-3.692 4.036zm3.68-3.008a2.572 2.572 0 012.432 2.432h-4.928a2.581 2.581 0 012.496-2.436zm5.524 6.908h1.168v-5.76a2.32 2.32 0 012.048-1.2 2.023 2.023 0 012.1 2.24v4.72h1.16v-5.056a2.722 2.722 0 00-2.816-2.88 2.813 2.813 0 00-2.5 1.408v-1.28h-1.168zm9.408-1.76c0 1.216.688 1.9 2.048 1.9a4.713 4.713 0 001.376-.208v-1.032a2.881 2.881 0 01-1.1.208c-.832 0-1.152-.336-1.152-1.168v-4.788h2.256v-.96h-2.26v-2.256l-1.168.272v1.984h-1.616v.96h1.616z" fill="#151515"/><g transform="translate(45 1486)"><rect width="130" height="40" rx="3" transform="translate(479 242)" fill="#f5f5f5"/><path d="M529.246 267h6.608v-.952h-5.53V257.2h-1.078zm7.714-3.416a3.384 3.384 0 003.318 3.556 3.389 3.389 0 003.346-3.556 3.365 3.365 0 00-3.346-3.528 3.359 3.359 0 00-3.318 3.528zm5.64.016a2.412 2.412 0 01-2.322 2.63 2.4 2.4 0 01-2.296-2.63 2.421 2.421 0 012.3-2.646 2.424 2.424 0 012.318 2.646zm5.756 3.5a2.759 2.759 0 002.17-1v1.124c0 1.148-.672 1.75-1.9 1.75a4.449 4.449 0 01-2.17-.63l-.434.784a5.318 5.318 0 002.66.714c1.848 0 2.87-.924 2.87-2.632v-7.042h-1.012v.868a2.82 2.82 0 00-2.128-.952 3.329 3.329 0 00-3.22 3.516 3.308 3.308 0 003.164 3.5zm-2.142-3.516a2.428 2.428 0 012.38-2.6 2.462 2.462 0 011.932.91v3.4a2.36 2.36 0 01-1.932.91 2.44 2.44 0 01-2.38-2.62zm7.2 0a3.384 3.384 0 003.314 3.556 3.389 3.389 0 003.346-3.556 3.365 3.365 0 00-3.346-3.528 3.359 3.359 0 00-3.318 3.528zm5.642.014a2.412 2.412 0 01-2.328 2.632 2.4 2.4 0 01-2.3-2.632 2.421 2.421 0 012.3-2.646 2.424 2.424 0 012.324 2.648z" fill="#6a6e73"/></g><g opacity=".03"><path class="h" d="M1210 1644h48v208h-48zM1142 1644h48v208h-48zM1074 1644h48v208h-48zM1006 1644h48v208h-48zM938 1644h48v208h-48zM870 1644h48v208h-48zM802 1644h48v208h-48zM734 1644h48v208h-48zM666 1644h48v208h-48zM598 1644h48v208h-48zM530 1644h48v208h-48zM462 1644h48v208h-48z"/></g><g stroke="#f0f" opacity=".25" fill="none"><path stroke="none" d="M462 1728h796v40H462z"/><path d="M462.5 1728.5h795v39h-795z"/></g></g></svg>