<svg width="311" height="59" viewBox="0 0 311 59" fill="none" xmlns="http://www.w3.org/2000/svg">
  <rect x="7.5" y="0.5" width="59" height="28" rx="14" fill="#F2F2F2" />
  <rect x="7.5" y="0.5" width="59" height="28" rx="14" stroke="#C7C7C7" />
  <path
    d="M19.41 19.154C18.6447 19.154 17.9353 19.0187 17.282 18.748C16.6287 18.468 15.9987 18.048 15.392 17.488L16.05 16.704C16.638 17.2547 17.1887 17.6467 17.702 17.88C18.2247 18.1133 18.8033 18.23 19.438 18.23C19.942 18.23 20.39 18.146 20.782 17.978C21.1833 17.8007 21.496 17.5627 21.72 17.264C21.944 16.9653 22.056 16.6247 22.056 16.242C22.056 15.7473 21.8927 15.374 21.566 15.122C21.2393 14.8607 20.6747 14.66 19.872 14.52L18.29 14.254C17.394 14.0953 16.736 13.8247 16.316 13.442C15.9053 13.05 15.7 12.5273 15.7 11.874C15.7 11.3233 15.84 10.838 16.12 10.418C16.4093 9.98867 16.806 9.65267 17.31 9.41C17.814 9.16733 18.3973 9.046 19.06 9.046C19.788 9.046 20.4647 9.14867 21.09 9.354C21.7153 9.55 22.3313 9.86267 22.938 10.292L22.378 11.132C21.874 10.7493 21.342 10.46 20.782 10.264C20.222 10.0587 19.6527 9.956 19.074 9.956C18.6167 9.956 18.2107 10.0353 17.856 10.194C17.5107 10.3527 17.2353 10.5673 17.03 10.838C16.834 11.1087 16.736 11.4167 16.736 11.762C16.736 12.1913 16.8807 12.5273 17.17 12.77C17.4593 13.0127 17.9307 13.1853 18.584 13.288L20.152 13.554C21.1973 13.7407 21.9533 14.044 22.42 14.464C22.896 14.8747 23.134 15.4487 23.134 16.186C23.134 16.7553 22.9707 17.264 22.644 17.712C22.3267 18.16 21.888 18.5147 21.328 18.776C20.768 19.028 20.1287 19.154 19.41 19.154ZM24.7587 19V12.168H25.7807V19H24.7587ZM25.2767 10.474C25.0713 10.474 24.894 10.404 24.7447 10.264C24.6047 10.1147 24.5347 9.942 24.5347 9.746C24.5347 9.55 24.6047 9.382 24.7447 9.242C24.894 9.09267 25.0713 9.018 25.2767 9.018C25.482 9.018 25.6547 9.09267 25.7947 9.242C25.944 9.382 26.0187 9.55 26.0187 9.746C26.0187 9.942 25.944 10.1147 25.7947 10.264C25.6547 10.404 25.482 10.474 25.2767 10.474ZM31.0402 22.066C30.5828 22.066 30.1208 22.0007 29.6542 21.87C29.1968 21.7487 28.7722 21.576 28.3802 21.352L28.8142 20.568C29.2342 20.7827 29.6168 20.9413 29.9622 21.044C30.3075 21.1467 30.6528 21.198 30.9982 21.198C31.6235 21.198 32.0948 21.0487 32.4122 20.75C32.7388 20.4513 32.9022 20.0173 32.9022 19.448V18.076C32.6408 18.4027 32.3235 18.6547 31.9502 18.832C31.5768 19 31.1662 19.084 30.7182 19.084C30.1302 19.084 29.5982 18.93 29.1222 18.622C28.6462 18.3047 28.2682 17.8847 27.9882 17.362C27.7082 16.83 27.5682 16.2373 27.5682 15.584C27.5682 14.9307 27.7082 14.3427 27.9882 13.82C28.2775 13.288 28.6648 12.868 29.1502 12.56C29.6355 12.2427 30.1768 12.084 30.7742 12.084C31.2035 12.084 31.6002 12.168 31.9642 12.336C32.3282 12.4947 32.6455 12.7327 32.9162 13.05V12.168H33.9242V19.434C33.9242 20.2833 33.6768 20.932 33.1822 21.38C32.6875 21.8373 31.9735 22.066 31.0402 22.066ZM30.9702 18.202C31.3715 18.202 31.7402 18.1227 32.0762 17.964C32.4122 17.796 32.6875 17.5673 32.9022 17.278V13.904C32.6782 13.6147 32.3935 13.3907 32.0482 13.232C31.7122 13.064 31.3528 12.98 30.9702 12.98C30.5128 12.98 30.1022 13.092 29.7382 13.316C29.3835 13.54 29.0988 13.848 28.8842 14.24C28.6788 14.632 28.5762 15.08 28.5762 15.584C28.5762 16.0787 28.6788 16.5267 28.8842 16.928C29.0988 17.32 29.3835 17.6327 29.7382 17.866C30.1022 18.09 30.5128 18.202 30.9702 18.202ZM36.0246 19V12.168H37.0466V13.274C37.3079 12.8633 37.6206 12.56 37.9846 12.364C38.3486 12.1587 38.7593 12.056 39.2166 12.056C39.7113 12.056 40.1406 12.1633 40.5046 12.378C40.8779 12.5833 41.1673 12.8773 41.3726 13.26C41.5873 13.6333 41.6946 14.072 41.6946 14.576V19H40.6726V14.87C40.6726 14.2633 40.5046 13.7873 40.1686 13.442C39.8419 13.0873 39.3986 12.91 38.8386 12.91C38.4653 12.91 38.1246 12.9987 37.8166 13.176C37.5086 13.3533 37.2519 13.6147 37.0466 13.96V19H36.0246ZM46.8292 19.14C46.1946 19.14 45.6206 18.986 45.1072 18.678C44.5939 18.3607 44.1879 17.936 43.8892 17.404C43.5906 16.8627 43.4412 16.256 43.4412 15.584C43.4412 14.912 43.5812 14.31 43.8612 13.778C44.1506 13.246 44.5379 12.826 45.0232 12.518C45.5086 12.21 46.0499 12.056 46.6472 12.056C47.2539 12.056 47.7906 12.21 48.2572 12.518C48.7332 12.8167 49.1066 13.2273 49.3772 13.75C49.6572 14.2633 49.7972 14.8467 49.7972 15.5V15.808H44.4352C44.4726 16.2747 44.5986 16.6947 44.8132 17.068C45.0372 17.432 45.3266 17.7213 45.6812 17.936C46.0452 18.1413 46.4419 18.244 46.8712 18.244C47.2259 18.244 47.5666 18.1833 47.8932 18.062C48.2292 17.9313 48.5139 17.7587 48.7472 17.544L49.3912 18.23C48.9992 18.538 48.5932 18.7667 48.1732 18.916C47.7532 19.0653 47.3052 19.14 46.8292 19.14ZM44.4632 15.08H48.7892C48.7426 14.6693 48.6166 14.3053 48.4112 13.988C48.2152 13.6613 47.9632 13.4047 47.6552 13.218C47.3566 13.0313 47.0206 12.938 46.6472 12.938C46.2739 12.938 45.9332 13.0313 45.6252 13.218C45.3172 13.3953 45.0606 13.6473 44.8552 13.974C44.6592 14.2913 44.5286 14.66 44.4632 15.08ZM54.3842 19.098C53.7962 19.098 53.2642 18.944 52.7882 18.636C52.3122 18.3187 51.9342 17.8987 51.6542 17.376C51.3742 16.844 51.2342 16.2513 51.2342 15.598C51.2342 14.9353 51.3742 14.3427 51.6542 13.82C51.9435 13.288 52.3309 12.868 52.8162 12.56C53.3015 12.2427 53.8429 12.084 54.4402 12.084C54.8602 12.084 55.2522 12.168 55.6162 12.336C55.9802 12.4947 56.2975 12.728 56.5682 13.036V8.892L57.5902 8.682V19H56.5682V18.09C56.3069 18.4167 55.9895 18.6687 55.6162 18.846C55.2429 19.014 54.8322 19.098 54.3842 19.098ZM54.6362 18.202C55.0375 18.202 55.4062 18.1227 55.7422 17.964C56.0782 17.8053 56.3535 17.5813 56.5682 17.292V13.904C56.3442 13.6147 56.0595 13.3907 55.7142 13.232C55.3782 13.064 55.0189 12.98 54.6362 12.98C54.1789 12.98 53.7682 13.092 53.4042 13.316C53.0495 13.54 52.7649 13.848 52.5502 14.24C52.3449 14.632 52.2422 15.08 52.2422 15.584C52.2422 16.0787 52.3449 16.5267 52.5502 16.928C52.7649 17.32 53.0495 17.6327 53.4042 17.866C53.7682 18.09 54.1789 18.202 54.6362 18.202Z"
    fill="#151515" />
  <rect x="75.5" y="0.5" width="79" height="28" rx="14" fill="#F2F2F2" />
  <rect x="75.5" y="0.5" width="79" height="28" rx="14" stroke="#C7C7C7" />
  <g clip-path="url(#clip0_2238_4643)">
    <path
      d="M91 6.5C86.59 6.5 83 10.09 83 14.5C83 18.91 86.59 22.5 91 22.5C95.41 22.5 99 18.91 99 14.5C99 10.09 95.41 6.5 91 6.5ZM94.9 12.9L90.575 17.225C90.415 17.385 90.21 17.46 90 17.46C89.79 17.46 89.585 17.38 89.425 17.225L87.1 14.9C86.88 14.68 86.88 14.325 87.1 14.105C87.32 13.885 87.675 13.885 87.895 14.105L89.995 16.21L94.095 12.105C94.315 11.885 94.67 11.885 94.89 12.105C95.11 12.325 95.11 12.68 94.89 12.9H94.9Z"
      fill="#707070" />
  </g>
  <path
    d="M107.41 19.154C106.645 19.154 105.935 19.0187 105.282 18.748C104.629 18.468 103.999 18.048 103.392 17.488L104.05 16.704C104.638 17.2547 105.189 17.6467 105.702 17.88C106.225 18.1133 106.803 18.23 107.438 18.23C107.942 18.23 108.39 18.146 108.782 17.978C109.183 17.8007 109.496 17.5627 109.72 17.264C109.944 16.9653 110.056 16.6247 110.056 16.242C110.056 15.7473 109.893 15.374 109.566 15.122C109.239 14.8607 108.675 14.66 107.872 14.52L106.29 14.254C105.394 14.0953 104.736 13.8247 104.316 13.442C103.905 13.05 103.7 12.5273 103.7 11.874C103.7 11.3233 103.84 10.838 104.12 10.418C104.409 9.98867 104.806 9.65267 105.31 9.41C105.814 9.16733 106.397 9.046 107.06 9.046C107.788 9.046 108.465 9.14867 109.09 9.354C109.715 9.55 110.331 9.86267 110.938 10.292L110.378 11.132C109.874 10.7493 109.342 10.46 108.782 10.264C108.222 10.0587 107.653 9.956 107.074 9.956C106.617 9.956 106.211 10.0353 105.856 10.194C105.511 10.3527 105.235 10.5673 105.03 10.838C104.834 11.1087 104.736 11.4167 104.736 11.762C104.736 12.1913 104.881 12.5273 105.17 12.77C105.459 13.0127 105.931 13.1853 106.584 13.288L108.152 13.554C109.197 13.7407 109.953 14.044 110.42 14.464C110.896 14.8747 111.134 15.4487 111.134 16.186C111.134 16.7553 110.971 17.264 110.644 17.712C110.327 18.16 109.888 18.5147 109.328 18.776C108.768 19.028 108.129 19.154 107.41 19.154ZM112.759 19V12.168H113.781V19H112.759ZM113.277 10.474C113.071 10.474 112.894 10.404 112.745 10.264C112.605 10.1147 112.535 9.942 112.535 9.746C112.535 9.55 112.605 9.382 112.745 9.242C112.894 9.09267 113.071 9.018 113.277 9.018C113.482 9.018 113.655 9.09267 113.795 9.242C113.944 9.382 114.019 9.55 114.019 9.746C114.019 9.942 113.944 10.1147 113.795 10.264C113.655 10.404 113.482 10.474 113.277 10.474ZM119.04 22.066C118.583 22.066 118.121 22.0007 117.654 21.87C117.197 21.7487 116.772 21.576 116.38 21.352L116.814 20.568C117.234 20.7827 117.617 20.9413 117.962 21.044C118.308 21.1467 118.653 21.198 118.998 21.198C119.624 21.198 120.095 21.0487 120.412 20.75C120.739 20.4513 120.902 20.0173 120.902 19.448V18.076C120.641 18.4027 120.324 18.6547 119.95 18.832C119.577 19 119.166 19.084 118.718 19.084C118.13 19.084 117.598 18.93 117.122 18.622C116.646 18.3047 116.268 17.8847 115.988 17.362C115.708 16.83 115.568 16.2373 115.568 15.584C115.568 14.9307 115.708 14.3427 115.988 13.82C116.278 13.288 116.665 12.868 117.15 12.56C117.636 12.2427 118.177 12.084 118.774 12.084C119.204 12.084 119.6 12.168 119.964 12.336C120.328 12.4947 120.646 12.7327 120.916 13.05V12.168H121.924V19.434C121.924 20.2833 121.677 20.932 121.182 21.38C120.688 21.8373 119.974 22.066 119.04 22.066ZM118.97 18.202C119.372 18.202 119.74 18.1227 120.076 17.964C120.412 17.796 120.688 17.5673 120.902 17.278V13.904C120.678 13.6147 120.394 13.3907 120.048 13.232C119.712 13.064 119.353 12.98 118.97 12.98C118.513 12.98 118.102 13.092 117.738 13.316C117.384 13.54 117.099 13.848 116.884 14.24C116.679 14.632 116.576 15.08 116.576 15.584C116.576 16.0787 116.679 16.5267 116.884 16.928C117.099 17.32 117.384 17.6327 117.738 17.866C118.102 18.09 118.513 18.202 118.97 18.202ZM124.025 19V12.168H125.047V13.274C125.308 12.8633 125.621 12.56 125.985 12.364C126.349 12.1587 126.759 12.056 127.217 12.056C127.711 12.056 128.141 12.1633 128.505 12.378C128.878 12.5833 129.167 12.8773 129.373 13.26C129.587 13.6333 129.695 14.072 129.695 14.576V19H128.673V14.87C128.673 14.2633 128.505 13.7873 128.169 13.442C127.842 13.0873 127.399 12.91 126.839 12.91C126.465 12.91 126.125 12.9987 125.817 13.176C125.509 13.3533 125.252 13.6147 125.047 13.96V19H124.025ZM134.829 19.14C134.195 19.14 133.621 18.986 133.107 18.678C132.594 18.3607 132.188 17.936 131.889 17.404C131.591 16.8627 131.441 16.256 131.441 15.584C131.441 14.912 131.581 14.31 131.861 13.778C132.151 13.246 132.538 12.826 133.023 12.518C133.509 12.21 134.05 12.056 134.647 12.056C135.254 12.056 135.791 12.21 136.257 12.518C136.733 12.8167 137.107 13.2273 137.377 13.75C137.657 14.2633 137.797 14.8467 137.797 15.5V15.808H132.435C132.473 16.2747 132.599 16.6947 132.813 17.068C133.037 17.432 133.327 17.7213 133.681 17.936C134.045 18.1413 134.442 18.244 134.871 18.244C135.226 18.244 135.567 18.1833 135.893 18.062C136.229 17.9313 136.514 17.7587 136.747 17.544L137.391 18.23C136.999 18.538 136.593 18.7667 136.173 18.916C135.753 19.0653 135.305 19.14 134.829 19.14ZM132.463 15.08H136.789C136.743 14.6693 136.617 14.3053 136.411 13.988C136.215 13.6613 135.963 13.4047 135.655 13.218C135.357 13.0313 135.021 12.938 134.647 12.938C134.274 12.938 133.933 13.0313 133.625 13.218C133.317 13.3953 133.061 13.6473 132.855 13.974C132.659 14.2913 132.529 14.66 132.463 15.08ZM142.384 19.098C141.796 19.098 141.264 18.944 140.788 18.636C140.312 18.3187 139.934 17.8987 139.654 17.376C139.374 16.844 139.234 16.2513 139.234 15.598C139.234 14.9353 139.374 14.3427 139.654 13.82C139.944 13.288 140.331 12.868 140.816 12.56C141.302 12.2427 141.843 12.084 142.44 12.084C142.86 12.084 143.252 12.168 143.616 12.336C143.98 12.4947 144.298 12.728 144.568 13.036V8.892L145.59 8.682V19H144.568V18.09C144.307 18.4167 143.99 18.6687 143.616 18.846C143.243 19.014 142.832 19.098 142.384 19.098ZM142.636 18.202C143.038 18.202 143.406 18.1227 143.742 17.964C144.078 17.8053 144.354 17.5813 144.568 17.292V13.904C144.344 13.6147 144.06 13.3907 143.714 13.232C143.378 13.064 143.019 12.98 142.636 12.98C142.179 12.98 141.768 13.092 141.404 13.316C141.05 13.54 140.765 13.848 140.55 14.24C140.345 14.632 140.242 15.08 140.242 15.584C140.242 16.0787 140.345 16.5267 140.55 16.928C140.765 17.32 141.05 17.6327 141.404 17.866C141.768 18.09 142.179 18.202 142.636 18.202Z"
    fill="#151515" />
  <rect x="163.5" y="0.5" width="59" height="28" rx="14" fill="#F2F2F2" />
  <rect x="163.5" y="0.5" width="59" height="28" rx="14" stroke="#C7C7C7" />
  <path
    d="M175.41 19.154C174.645 19.154 173.935 19.0187 173.282 18.748C172.629 18.468 171.999 18.048 171.392 17.488L172.05 16.704C172.638 17.2547 173.189 17.6467 173.702 17.88C174.225 18.1133 174.803 18.23 175.438 18.23C175.942 18.23 176.39 18.146 176.782 17.978C177.183 17.8007 177.496 17.5627 177.72 17.264C177.944 16.9653 178.056 16.6247 178.056 16.242C178.056 15.7473 177.893 15.374 177.566 15.122C177.239 14.8607 176.675 14.66 175.872 14.52L174.29 14.254C173.394 14.0953 172.736 13.8247 172.316 13.442C171.905 13.05 171.7 12.5273 171.7 11.874C171.7 11.3233 171.84 10.838 172.12 10.418C172.409 9.98867 172.806 9.65267 173.31 9.41C173.814 9.16733 174.397 9.046 175.06 9.046C175.788 9.046 176.465 9.14867 177.09 9.354C177.715 9.55 178.331 9.86267 178.938 10.292L178.378 11.132C177.874 10.7493 177.342 10.46 176.782 10.264C176.222 10.0587 175.653 9.956 175.074 9.956C174.617 9.956 174.211 10.0353 173.856 10.194C173.511 10.3527 173.235 10.5673 173.03 10.838C172.834 11.1087 172.736 11.4167 172.736 11.762C172.736 12.1913 172.881 12.5273 173.17 12.77C173.459 13.0127 173.931 13.1853 174.584 13.288L176.152 13.554C177.197 13.7407 177.953 14.044 178.42 14.464C178.896 14.8747 179.134 15.4487 179.134 16.186C179.134 16.7553 178.971 17.264 178.644 17.712C178.327 18.16 177.888 18.5147 177.328 18.776C176.768 19.028 176.129 19.154 175.41 19.154ZM180.759 19V12.168H181.781V19H180.759ZM181.277 10.474C181.071 10.474 180.894 10.404 180.745 10.264C180.605 10.1147 180.535 9.942 180.535 9.746C180.535 9.55 180.605 9.382 180.745 9.242C180.894 9.09267 181.071 9.018 181.277 9.018C181.482 9.018 181.655 9.09267 181.795 9.242C181.944 9.382 182.019 9.55 182.019 9.746C182.019 9.942 181.944 10.1147 181.795 10.264C181.655 10.404 181.482 10.474 181.277 10.474ZM187.04 22.066C186.583 22.066 186.121 22.0007 185.654 21.87C185.197 21.7487 184.772 21.576 184.38 21.352L184.814 20.568C185.234 20.7827 185.617 20.9413 185.962 21.044C186.308 21.1467 186.653 21.198 186.998 21.198C187.624 21.198 188.095 21.0487 188.412 20.75C188.739 20.4513 188.902 20.0173 188.902 19.448V18.076C188.641 18.4027 188.324 18.6547 187.95 18.832C187.577 19 187.166 19.084 186.718 19.084C186.13 19.084 185.598 18.93 185.122 18.622C184.646 18.3047 184.268 17.8847 183.988 17.362C183.708 16.83 183.568 16.2373 183.568 15.584C183.568 14.9307 183.708 14.3427 183.988 13.82C184.278 13.288 184.665 12.868 185.15 12.56C185.636 12.2427 186.177 12.084 186.774 12.084C187.204 12.084 187.6 12.168 187.964 12.336C188.328 12.4947 188.646 12.7327 188.916 13.05V12.168H189.924V19.434C189.924 20.2833 189.677 20.932 189.182 21.38C188.688 21.8373 187.974 22.066 187.04 22.066ZM186.97 18.202C187.372 18.202 187.74 18.1227 188.076 17.964C188.412 17.796 188.688 17.5673 188.902 17.278V13.904C188.678 13.6147 188.394 13.3907 188.048 13.232C187.712 13.064 187.353 12.98 186.97 12.98C186.513 12.98 186.102 13.092 185.738 13.316C185.384 13.54 185.099 13.848 184.884 14.24C184.679 14.632 184.576 15.08 184.576 15.584C184.576 16.0787 184.679 16.5267 184.884 16.928C185.099 17.32 185.384 17.6327 185.738 17.866C186.102 18.09 186.513 18.202 186.97 18.202ZM192.025 19V12.168H193.047V13.274C193.308 12.8633 193.621 12.56 193.985 12.364C194.349 12.1587 194.759 12.056 195.217 12.056C195.711 12.056 196.141 12.1633 196.505 12.378C196.878 12.5833 197.167 12.8773 197.373 13.26C197.587 13.6333 197.695 14.072 197.695 14.576V19H196.673V14.87C196.673 14.2633 196.505 13.7873 196.169 13.442C195.842 13.0873 195.399 12.91 194.839 12.91C194.465 12.91 194.125 12.9987 193.817 13.176C193.509 13.3533 193.252 13.6147 193.047 13.96V19H192.025ZM202.829 19.14C202.195 19.14 201.621 18.986 201.107 18.678C200.594 18.3607 200.188 17.936 199.889 17.404C199.591 16.8627 199.441 16.256 199.441 15.584C199.441 14.912 199.581 14.31 199.861 13.778C200.151 13.246 200.538 12.826 201.023 12.518C201.509 12.21 202.05 12.056 202.647 12.056C203.254 12.056 203.791 12.21 204.257 12.518C204.733 12.8167 205.107 13.2273 205.377 13.75C205.657 14.2633 205.797 14.8467 205.797 15.5V15.808H200.435C200.473 16.2747 200.599 16.6947 200.813 17.068C201.037 17.432 201.327 17.7213 201.681 17.936C202.045 18.1413 202.442 18.244 202.871 18.244C203.226 18.244 203.567 18.1833 203.893 18.062C204.229 17.9313 204.514 17.7587 204.747 17.544L205.391 18.23C204.999 18.538 204.593 18.7667 204.173 18.916C203.753 19.0653 203.305 19.14 202.829 19.14ZM200.463 15.08H204.789C204.743 14.6693 204.617 14.3053 204.411 13.988C204.215 13.6613 203.963 13.4047 203.655 13.218C203.357 13.0313 203.021 12.938 202.647 12.938C202.274 12.938 201.933 13.0313 201.625 13.218C201.317 13.3953 201.061 13.6473 200.855 13.974C200.659 14.2913 200.529 14.66 200.463 15.08ZM210.384 19.098C209.796 19.098 209.264 18.944 208.788 18.636C208.312 18.3187 207.934 17.8987 207.654 17.376C207.374 16.844 207.234 16.2513 207.234 15.598C207.234 14.9353 207.374 14.3427 207.654 13.82C207.944 13.288 208.331 12.868 208.816 12.56C209.302 12.2427 209.843 12.084 210.44 12.084C210.86 12.084 211.252 12.168 211.616 12.336C211.98 12.4947 212.298 12.728 212.568 13.036V8.892L213.59 8.682V19H212.568V18.09C212.307 18.4167 211.99 18.6687 211.616 18.846C211.243 19.014 210.832 19.098 210.384 19.098ZM210.636 18.202C211.038 18.202 211.406 18.1227 211.742 17.964C212.078 17.8053 212.354 17.5813 212.568 17.292V13.904C212.344 13.6147 212.06 13.3907 211.714 13.232C211.378 13.064 211.019 12.98 210.636 12.98C210.179 12.98 209.768 13.092 209.404 13.316C209.05 13.54 208.765 13.848 208.55 14.24C208.345 14.632 208.242 15.08 208.242 15.584C208.242 16.0787 208.345 16.5267 208.55 16.928C208.765 17.32 209.05 17.6327 209.404 17.866C209.768 18.09 210.179 18.202 210.636 18.202Z"
    fill="#151515" />
  <path
    d="M171 22.5H182.831V23.9H171V22.5ZM182.826 22.5H198.703V23.9H182.826V22.5ZM198.699 22.5H206.497V23.9H198.699V22.5ZM206.492 22.5H214.64V23.9H206.492V22.5Z"
    fill="#151515" />
  <rect x="231.5" y="0.5" width="79" height="28" rx="14" fill="#F2F2F2" />
  <rect x="231.5" y="0.5" width="79" height="28" rx="14" stroke="#C7C7C7" />
  <g clip-path="url(#clip1_2238_4643)">
    <path
      d="M247 6.5C242.59 6.5 239 10.09 239 14.5C239 18.91 242.59 22.5 247 22.5C251.41 22.5 255 18.91 255 14.5C255 10.09 251.41 6.5 247 6.5ZM250.9 12.9L246.575 17.225C246.415 17.385 246.21 17.46 246 17.46C245.79 17.46 245.585 17.38 245.425 17.225L243.1 14.9C242.88 14.68 242.88 14.325 243.1 14.105C243.32 13.885 243.675 13.885 243.895 14.105L245.995 16.21L250.095 12.105C250.315 11.885 250.67 11.885 250.89 12.105C251.11 12.325 251.11 12.68 250.89 12.9H250.9Z"
      fill="#707070" />
  </g>
  <path
    d="M263.41 19.154C262.645 19.154 261.935 19.0187 261.282 18.748C260.629 18.468 259.999 18.048 259.392 17.488L260.05 16.704C260.638 17.2547 261.189 17.6467 261.702 17.88C262.225 18.1133 262.803 18.23 263.438 18.23C263.942 18.23 264.39 18.146 264.782 17.978C265.183 17.8007 265.496 17.5627 265.72 17.264C265.944 16.9653 266.056 16.6247 266.056 16.242C266.056 15.7473 265.893 15.374 265.566 15.122C265.239 14.8607 264.675 14.66 263.872 14.52L262.29 14.254C261.394 14.0953 260.736 13.8247 260.316 13.442C259.905 13.05 259.7 12.5273 259.7 11.874C259.7 11.3233 259.84 10.838 260.12 10.418C260.409 9.98867 260.806 9.65267 261.31 9.41C261.814 9.16733 262.397 9.046 263.06 9.046C263.788 9.046 264.465 9.14867 265.09 9.354C265.715 9.55 266.331 9.86267 266.938 10.292L266.378 11.132C265.874 10.7493 265.342 10.46 264.782 10.264C264.222 10.0587 263.653 9.956 263.074 9.956C262.617 9.956 262.211 10.0353 261.856 10.194C261.511 10.3527 261.235 10.5673 261.03 10.838C260.834 11.1087 260.736 11.4167 260.736 11.762C260.736 12.1913 260.881 12.5273 261.17 12.77C261.459 13.0127 261.931 13.1853 262.584 13.288L264.152 13.554C265.197 13.7407 265.953 14.044 266.42 14.464C266.896 14.8747 267.134 15.4487 267.134 16.186C267.134 16.7553 266.971 17.264 266.644 17.712C266.327 18.16 265.888 18.5147 265.328 18.776C264.768 19.028 264.129 19.154 263.41 19.154ZM268.759 19V12.168H269.781V19H268.759ZM269.277 10.474C269.071 10.474 268.894 10.404 268.745 10.264C268.605 10.1147 268.535 9.942 268.535 9.746C268.535 9.55 268.605 9.382 268.745 9.242C268.894 9.09267 269.071 9.018 269.277 9.018C269.482 9.018 269.655 9.09267 269.795 9.242C269.944 9.382 270.019 9.55 270.019 9.746C270.019 9.942 269.944 10.1147 269.795 10.264C269.655 10.404 269.482 10.474 269.277 10.474ZM275.04 22.066C274.583 22.066 274.121 22.0007 273.654 21.87C273.197 21.7487 272.772 21.576 272.38 21.352L272.814 20.568C273.234 20.7827 273.617 20.9413 273.962 21.044C274.308 21.1467 274.653 21.198 274.998 21.198C275.624 21.198 276.095 21.0487 276.412 20.75C276.739 20.4513 276.902 20.0173 276.902 19.448V18.076C276.641 18.4027 276.324 18.6547 275.95 18.832C275.577 19 275.166 19.084 274.718 19.084C274.13 19.084 273.598 18.93 273.122 18.622C272.646 18.3047 272.268 17.8847 271.988 17.362C271.708 16.83 271.568 16.2373 271.568 15.584C271.568 14.9307 271.708 14.3427 271.988 13.82C272.278 13.288 272.665 12.868 273.15 12.56C273.636 12.2427 274.177 12.084 274.774 12.084C275.204 12.084 275.6 12.168 275.964 12.336C276.328 12.4947 276.646 12.7327 276.916 13.05V12.168H277.924V19.434C277.924 20.2833 277.677 20.932 277.182 21.38C276.688 21.8373 275.974 22.066 275.04 22.066ZM274.97 18.202C275.372 18.202 275.74 18.1227 276.076 17.964C276.412 17.796 276.688 17.5673 276.902 17.278V13.904C276.678 13.6147 276.394 13.3907 276.048 13.232C275.712 13.064 275.353 12.98 274.97 12.98C274.513 12.98 274.102 13.092 273.738 13.316C273.384 13.54 273.099 13.848 272.884 14.24C272.679 14.632 272.576 15.08 272.576 15.584C272.576 16.0787 272.679 16.5267 272.884 16.928C273.099 17.32 273.384 17.6327 273.738 17.866C274.102 18.09 274.513 18.202 274.97 18.202ZM280.025 19V12.168H281.047V13.274C281.308 12.8633 281.621 12.56 281.985 12.364C282.349 12.1587 282.759 12.056 283.217 12.056C283.711 12.056 284.141 12.1633 284.505 12.378C284.878 12.5833 285.167 12.8773 285.373 13.26C285.587 13.6333 285.695 14.072 285.695 14.576V19H284.673V14.87C284.673 14.2633 284.505 13.7873 284.169 13.442C283.842 13.0873 283.399 12.91 282.839 12.91C282.465 12.91 282.125 12.9987 281.817 13.176C281.509 13.3533 281.252 13.6147 281.047 13.96V19H280.025ZM290.829 19.14C290.195 19.14 289.621 18.986 289.107 18.678C288.594 18.3607 288.188 17.936 287.889 17.404C287.591 16.8627 287.441 16.256 287.441 15.584C287.441 14.912 287.581 14.31 287.861 13.778C288.151 13.246 288.538 12.826 289.023 12.518C289.509 12.21 290.05 12.056 290.647 12.056C291.254 12.056 291.791 12.21 292.257 12.518C292.733 12.8167 293.107 13.2273 293.377 13.75C293.657 14.2633 293.797 14.8467 293.797 15.5V15.808H288.435C288.473 16.2747 288.599 16.6947 288.813 17.068C289.037 17.432 289.327 17.7213 289.681 17.936C290.045 18.1413 290.442 18.244 290.871 18.244C291.226 18.244 291.567 18.1833 291.893 18.062C292.229 17.9313 292.514 17.7587 292.747 17.544L293.391 18.23C292.999 18.538 292.593 18.7667 292.173 18.916C291.753 19.0653 291.305 19.14 290.829 19.14ZM288.463 15.08H292.789C292.743 14.6693 292.617 14.3053 292.411 13.988C292.215 13.6613 291.963 13.4047 291.655 13.218C291.357 13.0313 291.021 12.938 290.647 12.938C290.274 12.938 289.933 13.0313 289.625 13.218C289.317 13.3953 289.061 13.6473 288.855 13.974C288.659 14.2913 288.529 14.66 288.463 15.08ZM298.384 19.098C297.796 19.098 297.264 18.944 296.788 18.636C296.312 18.3187 295.934 17.8987 295.654 17.376C295.374 16.844 295.234 16.2513 295.234 15.598C295.234 14.9353 295.374 14.3427 295.654 13.82C295.944 13.288 296.331 12.868 296.816 12.56C297.302 12.2427 297.843 12.084 298.44 12.084C298.86 12.084 299.252 12.168 299.616 12.336C299.98 12.4947 300.298 12.728 300.568 13.036V8.892L301.59 8.682V19H300.568V18.09C300.307 18.4167 299.99 18.6687 299.616 18.846C299.243 19.014 298.832 19.098 298.384 19.098ZM298.636 18.202C299.038 18.202 299.406 18.1227 299.742 17.964C300.078 17.8053 300.354 17.5813 300.568 17.292V13.904C300.344 13.6147 300.06 13.3907 299.714 13.232C299.378 13.064 299.019 12.98 298.636 12.98C298.179 12.98 297.768 13.092 297.404 13.316C297.05 13.54 296.765 13.848 296.55 14.24C296.345 14.632 296.242 15.08 296.242 15.584C296.242 16.0787 296.345 16.5267 296.55 16.928C296.765 17.32 297.05 17.6327 297.404 17.866C297.768 18.09 298.179 18.202 298.636 18.202Z"
    fill="#151515" />
  <path
    d="M259 22.5H270.831V23.9H259V22.5ZM270.826 22.5H286.703V23.9H270.826V22.5ZM286.699 22.5H294.497V23.9H286.699V22.5ZM294.492 22.5H302.64V23.9H294.492V22.5Z"
    fill="#151515" />
  <circle cx="167.5" cy="48" r="11" fill="#B300B3" />
  <path
    d="M167.307 53.154C166.635 53.154 166.005 53.0373 165.417 52.804C164.838 52.5707 164.325 52.2253 163.877 51.768L164.549 51.11C164.959 51.5207 165.379 51.8193 165.809 52.006C166.247 52.1833 166.742 52.272 167.293 52.272C167.769 52.272 168.189 52.188 168.553 52.02C168.926 51.852 169.215 51.6187 169.421 51.32C169.626 51.0213 169.729 50.6807 169.729 50.298C169.729 49.934 169.635 49.612 169.449 49.332C169.271 49.0427 169.024 48.8187 168.707 48.66C168.389 48.5013 168.025 48.422 167.615 48.422H166.453V47.554H167.573C168.105 47.554 168.534 47.3907 168.861 47.064C169.197 46.7373 169.365 46.3127 169.365 45.79C169.365 45.4447 169.271 45.132 169.085 44.852C168.898 44.572 168.641 44.3527 168.315 44.194C167.997 44.026 167.638 43.942 167.237 43.942C166.733 43.942 166.28 44.0353 165.879 44.222C165.487 44.3993 165.085 44.7027 164.675 45.132L164.003 44.46C164.441 43.9933 164.936 43.6433 165.487 43.41C166.037 43.1673 166.625 43.046 167.251 43.046C167.848 43.046 168.38 43.1627 168.847 43.396C169.323 43.6293 169.696 43.9513 169.967 44.362C170.237 44.7633 170.373 45.2207 170.373 45.734C170.373 46.2473 170.205 46.7093 169.869 47.12C169.533 47.5213 169.089 47.8013 168.539 47.96C169.201 48.1093 169.733 48.3987 170.135 48.828C170.536 49.2573 170.737 49.7567 170.737 50.326C170.737 50.8673 170.587 51.3527 170.289 51.782C169.999 52.2113 169.593 52.5473 169.071 52.79C168.557 53.0327 167.969 53.154 167.307 53.154Z"
    fill="white" />
  <rect x="167" y="15" width="1" height="23" fill="#B300B3" />
  <circle cx="79.5" cy="48" r="11" fill="#B300B3" />
  <path
    d="M76.3387 53V52.258L80.2587 47.974C80.5667 47.638 80.8047 47.344 80.9727 47.092C81.1501 46.8307 81.2714 46.588 81.3367 46.364C81.4114 46.14 81.4487 45.902 81.4487 45.65C81.4487 45.1553 81.2527 44.7493 80.8607 44.432C80.4781 44.1053 79.9881 43.942 79.3907 43.942C78.9334 43.942 78.5087 44.0307 78.1167 44.208C77.7247 44.3853 77.2861 44.6933 76.8007 45.132L76.2127 44.432C76.7261 43.9653 77.2441 43.62 77.7667 43.396C78.2894 43.1627 78.8354 43.046 79.4047 43.046C79.9927 43.046 80.5154 43.158 80.9727 43.382C81.4301 43.5967 81.7894 43.8953 82.0507 44.278C82.3121 44.6607 82.4427 45.0993 82.4427 45.594C82.4427 45.9207 82.4007 46.224 82.3167 46.504C82.2327 46.7747 82.0834 47.0687 81.8687 47.386C81.6541 47.694 81.3461 48.0673 80.9447 48.506L77.5987 52.132L82.6527 52.118V53H76.3387Z"
    fill="white" />
  <rect x="79" y="15" width="1" height="23" fill="#B300B3" />
  <circle cx="11.5" cy="48" r="11" fill="#B300B3" />
  <path d="M8.47873 53V52.118H10.9567V44.292L8.47873 45.384V44.46L11.3347 43.2H11.9647V52.118H14.7927V53H8.47873Z"
    fill="white" />
  <rect x="11" y="15" width="1" height="23" fill="#B300B3" />
  <defs>
    <clipPath id="clip0_2238_4643">
      <rect width="16" height="16" fill="white" transform="translate(83 6.5)" />
    </clipPath>
    <clipPath id="clip1_2238_4643">
      <rect width="16" height="16" fill="white" transform="translate(239 6.5)" />
    </clipPath>
  </defs>
</svg>