<svg width="438" height="125" viewBox="0 0 438 125" fill="none" xmlns="http://www.w3.org/2000/svg">
<rect x="353" y="102" width="85" height="16" rx="8" fill="#383838"/>
<g clip-path="url(#clip0_4041_5603)">
<path d="M369 104C368.801 104 368.599 104.011 368.4 104.03C368.194 104.049 368.044 104.232 368.062 104.439C368.081 104.634 368.246 104.776 368.434 104.776C368.445 104.776 368.46 104.776 368.471 104.776C368.644 104.757 368.82 104.75 368.996 104.75C371.891 104.75 374.246 107.105 374.246 110C374.246 112.895 371.891 115.25 368.996 115.25C368.824 115.25 368.644 115.243 368.471 115.224C368.269 115.205 368.081 115.355 368.062 115.561C368.044 115.767 368.194 115.951 368.4 115.97C368.599 115.989 368.801 116 369 116C372.307 116 375 113.307 375 110C375 106.693 372.307 104 369 104Z" fill="#A3A3A3"/>
<path d="M368.516 112.141L371.891 108.766C372.038 108.62 372.038 108.384 371.891 108.238C371.745 108.091 371.509 108.091 371.363 108.238L368.254 111.346L366.645 109.738C366.499 109.591 366.263 109.591 366.116 109.738C365.97 109.884 365.97 110.12 366.116 110.266L367.991 112.141C368.066 112.216 368.16 112.25 368.258 112.25C368.355 112.25 368.449 112.213 368.524 112.141H368.516Z" fill="#A3A3A3"/>
<path d="M363.409 109.242C363.439 109.25 363.469 109.25 363.495 109.25C363.69 109.25 363.866 109.115 363.907 108.916C363.982 108.56 364.095 108.211 364.245 107.877C364.339 107.664 364.245 107.416 364.031 107.319C363.817 107.221 363.57 107.319 363.472 107.532C363.3 107.919 363.169 108.324 363.079 108.74C363.03 108.969 363.176 109.194 363.405 109.239L363.409 109.242Z" fill="#A3A3A3"/>
<path d="M363.911 111.088C363.863 110.859 363.638 110.713 363.413 110.761C363.184 110.81 363.038 111.035 363.086 111.26C363.173 111.673 363.308 112.081 363.48 112.468C363.551 112.625 363.705 112.719 363.866 112.719C363.923 112.719 363.983 112.708 364.039 112.681C364.253 112.588 364.346 112.336 364.253 112.123C364.103 111.793 363.99 111.444 363.915 111.088H363.911Z" fill="#A3A3A3"/>
<path d="M365.242 106.235C365.344 106.235 365.445 106.201 365.524 106.126C365.794 105.883 366.09 105.669 366.409 105.485C366.611 105.369 366.679 105.11 366.562 104.908C366.446 104.705 366.187 104.634 365.985 104.754C365.617 104.964 365.272 105.215 364.957 105.496C364.785 105.654 364.77 105.92 364.927 106.093C365.01 106.186 365.126 106.231 365.242 106.231V106.235Z" fill="#A3A3A3"/>
<path d="M366.412 114.515C366.097 114.335 365.797 114.117 365.527 113.874C365.355 113.72 365.089 113.731 364.931 113.907C364.774 114.08 364.789 114.346 364.965 114.504C365.28 114.785 365.625 115.036 365.992 115.246C366.06 115.284 366.131 115.302 366.202 115.302C366.349 115.302 366.491 115.227 366.57 115.092C366.686 114.89 366.615 114.631 366.412 114.515Z" fill="#A3A3A3"/>
</g>
<path d="M381.88 113.5V106.5H382.65V113.5H381.88ZM384.279 113.5V108.62H385.009V109.41C385.196 109.117 385.419 108.9 385.679 108.76C385.939 108.613 386.233 108.54 386.559 108.54C386.913 108.54 387.219 108.617 387.479 108.77C387.746 108.917 387.953 109.127 388.099 109.4C388.253 109.667 388.329 109.98 388.329 110.34V113.5H387.599V110.55C387.599 110.117 387.479 109.777 387.239 109.53C387.006 109.277 386.689 109.15 386.289 109.15C386.023 109.15 385.779 109.213 385.559 109.34C385.339 109.467 385.156 109.653 385.009 109.9V113.5H384.279ZM392.131 115.59V108.62H392.851V109.32C393.038 109.073 393.264 108.887 393.531 108.76C393.804 108.627 394.104 108.56 394.431 108.56C394.858 108.56 395.238 108.673 395.571 108.9C395.911 109.12 396.181 109.42 396.381 109.8C396.581 110.173 396.681 110.593 396.681 111.06C396.681 111.527 396.578 111.95 396.371 112.33C396.171 112.71 395.898 113.013 395.551 113.24C395.211 113.46 394.824 113.57 394.391 113.57C394.084 113.57 393.801 113.513 393.541 113.4C393.281 113.28 393.054 113.11 392.861 112.89V115.59H392.131ZM394.251 112.94C394.578 112.94 394.868 112.86 395.121 112.7C395.381 112.533 395.584 112.31 395.731 112.03C395.884 111.743 395.961 111.423 395.961 111.07C395.961 110.71 395.884 110.39 395.731 110.11C395.584 109.83 395.381 109.61 395.121 109.45C394.868 109.283 394.578 109.2 394.251 109.2C393.964 109.2 393.698 109.26 393.451 109.38C393.211 109.493 393.014 109.657 392.861 109.87V112.26C393.021 112.473 393.221 112.64 393.461 112.76C393.708 112.88 393.971 112.94 394.251 112.94ZM397.961 113.5V108.62H398.691V109.62C398.818 109.28 398.998 109.017 399.231 108.83C399.471 108.637 399.744 108.54 400.051 108.54C400.138 108.54 400.218 108.547 400.291 108.56C400.364 108.567 400.438 108.583 400.511 108.61V109.27C400.431 109.243 400.344 109.223 400.251 109.21C400.164 109.19 400.081 109.18 400.001 109.18C399.701 109.18 399.438 109.267 399.211 109.44C398.991 109.613 398.818 109.857 398.691 110.17V113.5H397.961ZM403.334 113.58C402.88 113.58 402.474 113.47 402.114 113.25C401.754 113.03 401.47 112.73 401.264 112.35C401.057 111.97 400.954 111.54 400.954 111.06C400.954 110.58 401.057 110.15 401.264 109.77C401.47 109.39 401.754 109.09 402.114 108.87C402.474 108.65 402.88 108.54 403.334 108.54C403.78 108.54 404.18 108.65 404.534 108.87C404.894 109.09 405.177 109.39 405.384 109.77C405.59 110.15 405.694 110.58 405.694 111.06C405.694 111.54 405.59 111.97 405.384 112.35C405.177 112.73 404.894 113.03 404.534 113.25C404.18 113.47 403.78 113.58 403.334 113.58ZM403.324 112.94C403.644 112.94 403.927 112.86 404.174 112.7C404.42 112.533 404.614 112.307 404.754 112.02C404.9 111.733 404.974 111.413 404.974 111.06C404.974 110.7 404.9 110.38 404.754 110.1C404.614 109.813 404.42 109.59 404.174 109.43C403.927 109.263 403.644 109.18 403.324 109.18C403.004 109.18 402.72 109.263 402.474 109.43C402.227 109.59 402.03 109.813 401.884 110.1C401.744 110.38 401.674 110.7 401.674 111.06C401.674 111.413 401.744 111.733 401.884 112.02C402.03 112.307 402.227 112.533 402.474 112.7C402.72 112.86 403.004 112.94 403.324 112.94ZM409.235 115.69C408.908 115.69 408.578 115.643 408.245 115.55C407.918 115.463 407.615 115.34 407.335 115.18L407.645 114.62C407.945 114.773 408.218 114.887 408.465 114.96C408.711 115.033 408.958 115.07 409.205 115.07C409.651 115.07 409.988 114.963 410.215 114.75C410.448 114.537 410.565 114.227 410.565 113.82V112.84C410.378 113.073 410.151 113.253 409.885 113.38C409.618 113.5 409.325 113.56 409.005 113.56C408.585 113.56 408.205 113.45 407.865 113.23C407.525 113.003 407.255 112.703 407.055 112.33C406.855 111.95 406.755 111.527 406.755 111.06C406.755 110.593 406.855 110.173 407.055 109.8C407.261 109.42 407.538 109.12 407.885 108.9C408.231 108.673 408.618 108.56 409.045 108.56C409.351 108.56 409.635 108.62 409.895 108.74C410.155 108.853 410.381 109.023 410.575 109.25V108.62H411.295V113.81C411.295 114.417 411.118 114.88 410.765 115.2C410.411 115.527 409.901 115.69 409.235 115.69ZM409.185 112.93C409.471 112.93 409.735 112.873 409.975 112.76C410.215 112.64 410.411 112.477 410.565 112.27V109.86C410.405 109.653 410.201 109.493 409.955 109.38C409.715 109.26 409.458 109.2 409.185 109.2C408.858 109.2 408.565 109.28 408.305 109.44C408.051 109.6 407.848 109.82 407.695 110.1C407.548 110.38 407.475 110.7 407.475 111.06C407.475 111.413 407.548 111.733 407.695 112.02C407.848 112.3 408.051 112.523 408.305 112.69C408.565 112.85 408.858 112.93 409.185 112.93ZM412.795 113.5V108.62H413.525V109.62C413.652 109.28 413.832 109.017 414.065 108.83C414.305 108.637 414.578 108.54 414.885 108.54C414.972 108.54 415.052 108.547 415.125 108.56C415.198 108.567 415.272 108.583 415.345 108.61V109.27C415.265 109.243 415.178 109.223 415.085 109.21C414.998 109.19 414.915 109.18 414.835 109.18C414.535 109.18 414.272 109.267 414.045 109.44C413.825 109.613 413.652 109.857 413.525 110.17V113.5H412.795ZM418.208 113.6C417.754 113.6 417.344 113.49 416.978 113.27C416.611 113.043 416.321 112.74 416.108 112.36C415.894 111.973 415.788 111.54 415.788 111.06C415.788 110.58 415.888 110.15 416.088 109.77C416.294 109.39 416.571 109.09 416.918 108.87C417.264 108.65 417.651 108.54 418.078 108.54C418.511 108.54 418.894 108.65 419.228 108.87C419.568 109.083 419.834 109.377 420.028 109.75C420.228 110.117 420.328 110.533 420.328 111V111.22H416.498C416.524 111.553 416.614 111.853 416.768 112.12C416.928 112.38 417.134 112.587 417.388 112.74C417.648 112.887 417.931 112.96 418.238 112.96C418.491 112.96 418.734 112.917 418.968 112.83C419.208 112.737 419.411 112.613 419.578 112.46L420.038 112.95C419.758 113.17 419.468 113.333 419.168 113.44C418.868 113.547 418.548 113.6 418.208 113.6ZM416.518 110.7H419.608C419.574 110.407 419.484 110.147 419.338 109.92C419.198 109.687 419.018 109.503 418.798 109.37C418.584 109.237 418.344 109.17 418.078 109.17C417.811 109.17 417.568 109.237 417.348 109.37C417.128 109.497 416.944 109.677 416.798 109.91C416.658 110.137 416.564 110.4 416.518 110.7ZM423.133 113.6C422.733 113.6 422.363 113.54 422.023 113.42C421.683 113.293 421.393 113.113 421.153 112.88L421.543 112.4C421.836 112.613 422.106 112.77 422.353 112.87C422.6 112.963 422.853 113.01 423.113 113.01C423.466 113.01 423.76 112.927 423.993 112.76C424.226 112.593 424.343 112.38 424.343 112.12C424.343 111.92 424.273 111.763 424.133 111.65C424 111.537 423.776 111.45 423.463 111.39L422.663 111.25C422.19 111.163 421.84 111.017 421.613 110.81C421.393 110.603 421.283 110.323 421.283 109.97C421.283 109.69 421.356 109.443 421.503 109.23C421.656 109.017 421.866 108.85 422.133 108.73C422.4 108.603 422.703 108.54 423.043 108.54C423.376 108.54 423.693 108.59 423.993 108.69C424.293 108.783 424.596 108.937 424.903 109.15L424.543 109.66C424.29 109.48 424.036 109.35 423.783 109.27C423.53 109.183 423.273 109.14 423.013 109.14C422.693 109.14 422.436 109.21 422.243 109.35C422.05 109.49 421.953 109.68 421.953 109.92C421.953 110.12 422.013 110.273 422.133 110.38C422.26 110.487 422.48 110.567 422.793 110.62L423.613 110.77C424.106 110.857 424.466 111.007 424.693 111.22C424.92 111.433 425.033 111.72 425.033 112.08C425.033 112.367 424.95 112.627 424.783 112.86C424.616 113.087 424.39 113.267 424.103 113.4C423.816 113.533 423.493 113.6 423.133 113.6ZM427.655 113.6C427.255 113.6 426.885 113.54 426.545 113.42C426.205 113.293 425.915 113.113 425.675 112.88L426.065 112.4C426.358 112.613 426.628 112.77 426.875 112.87C427.121 112.963 427.375 113.01 427.635 113.01C427.988 113.01 428.281 112.927 428.515 112.76C428.748 112.593 428.865 112.38 428.865 112.12C428.865 111.92 428.795 111.763 428.655 111.65C428.521 111.537 428.298 111.45 427.985 111.39L427.185 111.25C426.711 111.163 426.361 111.017 426.135 110.81C425.915 110.603 425.805 110.323 425.805 109.97C425.805 109.69 425.878 109.443 426.025 109.23C426.178 109.017 426.388 108.85 426.655 108.73C426.921 108.603 427.225 108.54 427.565 108.54C427.898 108.54 428.215 108.59 428.515 108.69C428.815 108.783 429.118 108.937 429.425 109.15L429.065 109.66C428.811 109.48 428.558 109.35 428.305 109.27C428.051 109.183 427.795 109.14 427.535 109.14C427.215 109.14 426.958 109.21 426.765 109.35C426.571 109.49 426.475 109.68 426.475 109.92C426.475 110.12 426.535 110.273 426.655 110.38C426.781 110.487 427.001 110.567 427.315 110.62L428.135 110.77C428.628 110.857 428.988 111.007 429.215 111.22C429.441 111.433 429.555 111.72 429.555 112.08C429.555 112.367 429.471 112.627 429.305 112.86C429.138 113.087 428.911 113.267 428.625 113.4C428.338 113.533 428.015 113.6 427.655 113.6Z" fill="#A3A3A3"/>
<rect x="250" y="102" width="85" height="16" rx="8" fill="#383838"/>
<g clip-path="url(#clip1_4041_5603)">
<path d="M266 104C265.801 104 265.599 104.011 265.4 104.03C265.194 104.049 265.044 104.232 265.062 104.439C265.081 104.634 265.246 104.776 265.434 104.776C265.445 104.776 265.46 104.776 265.471 104.776C265.644 104.757 265.82 104.75 265.996 104.75C268.891 104.75 271.246 107.105 271.246 110C271.246 112.895 268.891 115.25 265.996 115.25C265.824 115.25 265.644 115.243 265.471 115.224C265.269 115.205 265.081 115.355 265.062 115.561C265.044 115.767 265.194 115.951 265.4 115.97C265.599 115.989 265.801 116 266 116C269.307 116 272 113.307 272 110C272 106.693 269.307 104 266 104Z" fill="#A3A3A3"/>
<path d="M265.516 112.141L268.891 108.766C269.038 108.62 269.038 108.384 268.891 108.238C268.745 108.091 268.509 108.091 268.363 108.238L265.254 111.346L263.645 109.738C263.499 109.591 263.263 109.591 263.116 109.738C262.97 109.884 262.97 110.12 263.116 110.266L264.991 112.141C265.066 112.216 265.16 112.25 265.258 112.25C265.355 112.25 265.449 112.213 265.524 112.141H265.516Z" fill="#A3A3A3"/>
<path d="M260.409 109.242C260.439 109.25 260.469 109.25 260.495 109.25C260.69 109.25 260.866 109.115 260.907 108.916C260.982 108.56 261.095 108.211 261.245 107.877C261.339 107.664 261.245 107.416 261.031 107.319C260.817 107.221 260.57 107.319 260.472 107.532C260.3 107.919 260.169 108.324 260.079 108.74C260.03 108.969 260.176 109.194 260.405 109.239L260.409 109.242Z" fill="#A3A3A3"/>
<path d="M260.911 111.088C260.863 110.859 260.638 110.713 260.413 110.761C260.184 110.81 260.038 111.035 260.086 111.26C260.173 111.673 260.308 112.081 260.48 112.468C260.551 112.625 260.705 112.719 260.866 112.719C260.923 112.719 260.983 112.708 261.039 112.681C261.253 112.588 261.346 112.336 261.253 112.123C261.103 111.793 260.99 111.444 260.915 111.088H260.911Z" fill="#A3A3A3"/>
<path d="M262.242 106.235C262.344 106.235 262.445 106.201 262.524 106.126C262.794 105.883 263.09 105.669 263.409 105.485C263.611 105.369 263.679 105.11 263.562 104.908C263.446 104.705 263.187 104.634 262.985 104.754C262.617 104.964 262.272 105.215 261.957 105.496C261.785 105.654 261.77 105.92 261.927 106.093C262.01 106.186 262.126 106.231 262.242 106.231V106.235Z" fill="#A3A3A3"/>
<path d="M263.412 114.515C263.097 114.335 262.797 114.117 262.527 113.874C262.355 113.72 262.089 113.731 261.931 113.907C261.774 114.08 261.789 114.346 261.965 114.504C262.28 114.785 262.625 115.036 262.992 115.246C263.06 115.284 263.131 115.302 263.202 115.302C263.349 115.302 263.491 115.227 263.57 115.092C263.686 114.89 263.615 114.631 263.412 114.515Z" fill="#A3A3A3"/>
</g>
<path d="M278.88 113.5V106.5H279.65V113.5H278.88ZM281.279 113.5V108.62H282.009V109.41C282.196 109.117 282.419 108.9 282.679 108.76C282.939 108.613 283.233 108.54 283.559 108.54C283.913 108.54 284.219 108.617 284.479 108.77C284.746 108.917 284.953 109.127 285.099 109.4C285.253 109.667 285.329 109.98 285.329 110.34V113.5H284.599V110.55C284.599 110.117 284.479 109.777 284.239 109.53C284.006 109.277 283.689 109.15 283.289 109.15C283.023 109.15 282.779 109.213 282.559 109.34C282.339 109.467 282.156 109.653 282.009 109.9V113.5H281.279ZM289.131 115.59V108.62H289.851V109.32C290.038 109.073 290.264 108.887 290.531 108.76C290.804 108.627 291.104 108.56 291.431 108.56C291.858 108.56 292.238 108.673 292.571 108.9C292.911 109.12 293.181 109.42 293.381 109.8C293.581 110.173 293.681 110.593 293.681 111.06C293.681 111.527 293.578 111.95 293.371 112.33C293.171 112.71 292.898 113.013 292.551 113.24C292.211 113.46 291.824 113.57 291.391 113.57C291.084 113.57 290.801 113.513 290.541 113.4C290.281 113.28 290.054 113.11 289.861 112.89V115.59H289.131ZM291.251 112.94C291.578 112.94 291.868 112.86 292.121 112.7C292.381 112.533 292.584 112.31 292.731 112.03C292.884 111.743 292.961 111.423 292.961 111.07C292.961 110.71 292.884 110.39 292.731 110.11C292.584 109.83 292.381 109.61 292.121 109.45C291.868 109.283 291.578 109.2 291.251 109.2C290.964 109.2 290.698 109.26 290.451 109.38C290.211 109.493 290.014 109.657 289.861 109.87V112.26C290.021 112.473 290.221 112.64 290.461 112.76C290.708 112.88 290.971 112.94 291.251 112.94ZM294.961 113.5V108.62H295.691V109.62C295.818 109.28 295.998 109.017 296.231 108.83C296.471 108.637 296.744 108.54 297.051 108.54C297.138 108.54 297.218 108.547 297.291 108.56C297.364 108.567 297.438 108.583 297.511 108.61V109.27C297.431 109.243 297.344 109.223 297.251 109.21C297.164 109.19 297.081 109.18 297.001 109.18C296.701 109.18 296.438 109.267 296.211 109.44C295.991 109.613 295.818 109.857 295.691 110.17V113.5H294.961ZM300.334 113.58C299.88 113.58 299.474 113.47 299.114 113.25C298.754 113.03 298.47 112.73 298.264 112.35C298.057 111.97 297.954 111.54 297.954 111.06C297.954 110.58 298.057 110.15 298.264 109.77C298.47 109.39 298.754 109.09 299.114 108.87C299.474 108.65 299.88 108.54 300.334 108.54C300.78 108.54 301.18 108.65 301.534 108.87C301.894 109.09 302.177 109.39 302.384 109.77C302.59 110.15 302.694 110.58 302.694 111.06C302.694 111.54 302.59 111.97 302.384 112.35C302.177 112.73 301.894 113.03 301.534 113.25C301.18 113.47 300.78 113.58 300.334 113.58ZM300.324 112.94C300.644 112.94 300.927 112.86 301.174 112.7C301.42 112.533 301.614 112.307 301.754 112.02C301.9 111.733 301.974 111.413 301.974 111.06C301.974 110.7 301.9 110.38 301.754 110.1C301.614 109.813 301.42 109.59 301.174 109.43C300.927 109.263 300.644 109.18 300.324 109.18C300.004 109.18 299.72 109.263 299.474 109.43C299.227 109.59 299.03 109.813 298.884 110.1C298.744 110.38 298.674 110.7 298.674 111.06C298.674 111.413 298.744 111.733 298.884 112.02C299.03 112.307 299.227 112.533 299.474 112.7C299.72 112.86 300.004 112.94 300.324 112.94ZM306.235 115.69C305.908 115.69 305.578 115.643 305.245 115.55C304.918 115.463 304.615 115.34 304.335 115.18L304.645 114.62C304.945 114.773 305.218 114.887 305.465 114.96C305.711 115.033 305.958 115.07 306.205 115.07C306.651 115.07 306.988 114.963 307.215 114.75C307.448 114.537 307.565 114.227 307.565 113.82V112.84C307.378 113.073 307.151 113.253 306.885 113.38C306.618 113.5 306.325 113.56 306.005 113.56C305.585 113.56 305.205 113.45 304.865 113.23C304.525 113.003 304.255 112.703 304.055 112.33C303.855 111.95 303.755 111.527 303.755 111.06C303.755 110.593 303.855 110.173 304.055 109.8C304.261 109.42 304.538 109.12 304.885 108.9C305.231 108.673 305.618 108.56 306.045 108.56C306.351 108.56 306.635 108.62 306.895 108.74C307.155 108.853 307.381 109.023 307.575 109.25V108.62H308.295V113.81C308.295 114.417 308.118 114.88 307.765 115.2C307.411 115.527 306.901 115.69 306.235 115.69ZM306.185 112.93C306.471 112.93 306.735 112.873 306.975 112.76C307.215 112.64 307.411 112.477 307.565 112.27V109.86C307.405 109.653 307.201 109.493 306.955 109.38C306.715 109.26 306.458 109.2 306.185 109.2C305.858 109.2 305.565 109.28 305.305 109.44C305.051 109.6 304.848 109.82 304.695 110.1C304.548 110.38 304.475 110.7 304.475 111.06C304.475 111.413 304.548 111.733 304.695 112.02C304.848 112.3 305.051 112.523 305.305 112.69C305.565 112.85 305.858 112.93 306.185 112.93ZM309.795 113.5V108.62H310.525V109.62C310.652 109.28 310.832 109.017 311.065 108.83C311.305 108.637 311.578 108.54 311.885 108.54C311.972 108.54 312.052 108.547 312.125 108.56C312.198 108.567 312.272 108.583 312.345 108.61V109.27C312.265 109.243 312.178 109.223 312.085 109.21C311.998 109.19 311.915 109.18 311.835 109.18C311.535 109.18 311.272 109.267 311.045 109.44C310.825 109.613 310.652 109.857 310.525 110.17V113.5H309.795ZM315.208 113.6C314.754 113.6 314.344 113.49 313.978 113.27C313.611 113.043 313.321 112.74 313.108 112.36C312.894 111.973 312.788 111.54 312.788 111.06C312.788 110.58 312.888 110.15 313.088 109.77C313.294 109.39 313.571 109.09 313.918 108.87C314.264 108.65 314.651 108.54 315.078 108.54C315.511 108.54 315.894 108.65 316.228 108.87C316.568 109.083 316.834 109.377 317.028 109.75C317.228 110.117 317.328 110.533 317.328 111V111.22H313.498C313.524 111.553 313.614 111.853 313.768 112.12C313.928 112.38 314.134 112.587 314.388 112.74C314.648 112.887 314.931 112.96 315.238 112.96C315.491 112.96 315.734 112.917 315.968 112.83C316.208 112.737 316.411 112.613 316.578 112.46L317.038 112.95C316.758 113.17 316.468 113.333 316.168 113.44C315.868 113.547 315.548 113.6 315.208 113.6ZM313.518 110.7H316.608C316.574 110.407 316.484 110.147 316.338 109.92C316.198 109.687 316.018 109.503 315.798 109.37C315.584 109.237 315.344 109.17 315.078 109.17C314.811 109.17 314.568 109.237 314.348 109.37C314.128 109.497 313.944 109.677 313.798 109.91C313.658 110.137 313.564 110.4 313.518 110.7ZM320.133 113.6C319.733 113.6 319.363 113.54 319.023 113.42C318.683 113.293 318.393 113.113 318.153 112.88L318.543 112.4C318.836 112.613 319.106 112.77 319.353 112.87C319.6 112.963 319.853 113.01 320.113 113.01C320.466 113.01 320.76 112.927 320.993 112.76C321.226 112.593 321.343 112.38 321.343 112.12C321.343 111.92 321.273 111.763 321.133 111.65C321 111.537 320.776 111.45 320.463 111.39L319.663 111.25C319.19 111.163 318.84 111.017 318.613 110.81C318.393 110.603 318.283 110.323 318.283 109.97C318.283 109.69 318.356 109.443 318.503 109.23C318.656 109.017 318.866 108.85 319.133 108.73C319.4 108.603 319.703 108.54 320.043 108.54C320.376 108.54 320.693 108.59 320.993 108.69C321.293 108.783 321.596 108.937 321.903 109.15L321.543 109.66C321.29 109.48 321.036 109.35 320.783 109.27C320.53 109.183 320.273 109.14 320.013 109.14C319.693 109.14 319.436 109.21 319.243 109.35C319.05 109.49 318.953 109.68 318.953 109.92C318.953 110.12 319.013 110.273 319.133 110.38C319.26 110.487 319.48 110.567 319.793 110.62L320.613 110.77C321.106 110.857 321.466 111.007 321.693 111.22C321.92 111.433 322.033 111.72 322.033 112.08C322.033 112.367 321.95 112.627 321.783 112.86C321.616 113.087 321.39 113.267 321.103 113.4C320.816 113.533 320.493 113.6 320.133 113.6ZM324.655 113.6C324.255 113.6 323.885 113.54 323.545 113.42C323.205 113.293 322.915 113.113 322.675 112.88L323.065 112.4C323.358 112.613 323.628 112.77 323.875 112.87C324.121 112.963 324.375 113.01 324.635 113.01C324.988 113.01 325.281 112.927 325.515 112.76C325.748 112.593 325.865 112.38 325.865 112.12C325.865 111.92 325.795 111.763 325.655 111.65C325.521 111.537 325.298 111.45 324.985 111.39L324.185 111.25C323.711 111.163 323.361 111.017 323.135 110.81C322.915 110.603 322.805 110.323 322.805 109.97C322.805 109.69 322.878 109.443 323.025 109.23C323.178 109.017 323.388 108.85 323.655 108.73C323.921 108.603 324.225 108.54 324.565 108.54C324.898 108.54 325.215 108.59 325.515 108.69C325.815 108.783 326.118 108.937 326.425 109.15L326.065 109.66C325.811 109.48 325.558 109.35 325.305 109.27C325.051 109.183 324.795 109.14 324.535 109.14C324.215 109.14 323.958 109.21 323.765 109.35C323.571 109.49 323.475 109.68 323.475 109.92C323.475 110.12 323.535 110.273 323.655 110.38C323.781 110.487 324.001 110.567 324.315 110.62L325.135 110.77C325.628 110.857 325.988 111.007 326.215 111.22C326.441 111.433 326.555 111.72 326.555 112.08C326.555 112.367 326.471 112.627 326.305 112.86C326.138 113.087 325.911 113.267 325.625 113.4C325.338 113.533 325.015 113.6 324.655 113.6Z" fill="#A3A3A3"/>
<rect x="113" y="96" width="105" height="29" rx="14.5" fill="#383838"/>
<g clip-path="url(#clip2_4041_5603)">
<path d="M129 102.5C128.735 102.5 128.465 102.515 128.2 102.54C127.925 102.565 127.725 102.81 127.75 103.085C127.775 103.345 127.995 103.535 128.245 103.535C128.26 103.535 128.28 103.535 128.295 103.535C128.525 103.51 128.76 103.5 128.995 103.5C132.855 103.5 135.995 106.64 135.995 110.5C135.995 114.36 132.855 117.5 128.995 117.5C128.765 117.5 128.525 117.49 128.295 117.465C128.025 117.44 127.775 117.64 127.75 117.915C127.725 118.19 127.925 118.435 128.2 118.46C128.465 118.485 128.735 118.5 129 118.5C133.41 118.5 137 114.91 137 110.5C137 106.09 133.41 102.5 129 102.5Z" fill="#A3A3A3"/>
<path d="M128.355 113.355L132.855 108.855C133.05 108.66 133.05 108.345 132.855 108.15C132.66 107.955 132.345 107.955 132.15 108.15L128.005 112.295L125.86 110.15C125.665 109.955 125.35 109.955 125.155 110.15C124.96 110.345 124.96 110.66 125.155 110.855L127.655 113.355C127.755 113.455 127.88 113.5 128.01 113.5C128.14 113.5 128.265 113.45 128.365 113.355H128.355Z" fill="#A3A3A3"/>
<path d="M121.545 109.49C121.585 109.5 121.625 109.5 121.66 109.5C121.92 109.5 122.155 109.32 122.21 109.055C122.31 108.58 122.46 108.115 122.66 107.67C122.785 107.385 122.66 107.055 122.375 106.925C122.09 106.795 121.76 106.925 121.63 107.21C121.4 107.725 121.225 108.265 121.105 108.82C121.04 109.125 121.235 109.425 121.54 109.485L121.545 109.49Z" fill="#A3A3A3"/>
<path d="M122.215 111.95C122.15 111.645 121.85 111.45 121.55 111.515C121.245 111.58 121.05 111.88 121.115 112.18C121.23 112.73 121.41 113.275 121.64 113.79C121.735 114 121.94 114.125 122.155 114.125C122.23 114.125 122.31 114.11 122.385 114.075C122.67 113.95 122.795 113.615 122.67 113.33C122.47 112.89 122.32 112.425 122.22 111.95H122.215Z" fill="#A3A3A3"/>
<path d="M123.99 105.48C124.125 105.48 124.26 105.435 124.365 105.335C124.725 105.01 125.12 104.725 125.545 104.48C125.815 104.325 125.905 103.98 125.75 103.71C125.595 103.44 125.25 103.345 124.98 103.505C124.49 103.785 124.03 104.12 123.61 104.495C123.38 104.705 123.36 105.06 123.57 105.29C123.68 105.415 123.835 105.475 123.99 105.475V105.48Z" fill="#A3A3A3"/>
<path d="M125.55 116.52C125.13 116.28 124.73 115.99 124.37 115.665C124.14 115.46 123.785 115.475 123.575 115.71C123.365 115.94 123.385 116.295 123.62 116.505C124.04 116.88 124.5 117.215 124.99 117.495C125.08 117.545 125.175 117.57 125.27 117.57C125.465 117.57 125.655 117.47 125.76 117.29C125.915 117.02 125.82 116.675 125.55 116.52Z" fill="#A3A3A3"/>
</g>
<path d="M142.232 115V105.2H143.31V115H142.232ZM145.591 115V108.168H146.613V109.274C146.874 108.863 147.187 108.56 147.551 108.364C147.915 108.159 148.326 108.056 148.783 108.056C149.278 108.056 149.707 108.163 150.071 108.378C150.444 108.583 150.734 108.877 150.939 109.26C151.154 109.633 151.261 110.072 151.261 110.576V115H150.239V110.87C150.239 110.263 150.071 109.787 149.735 109.442C149.408 109.087 148.965 108.91 148.405 108.91C148.032 108.91 147.691 108.999 147.383 109.176C147.075 109.353 146.818 109.615 146.613 109.96V115H145.591ZM156.583 117.926V108.168H157.591V109.148C157.853 108.803 158.17 108.541 158.543 108.364C158.926 108.177 159.346 108.084 159.803 108.084C160.401 108.084 160.933 108.243 161.399 108.56C161.875 108.868 162.253 109.288 162.533 109.82C162.813 110.343 162.953 110.931 162.953 111.584C162.953 112.237 162.809 112.83 162.519 113.362C162.239 113.894 161.857 114.319 161.371 114.636C160.895 114.944 160.354 115.098 159.747 115.098C159.318 115.098 158.921 115.019 158.557 114.86C158.193 114.692 157.876 114.454 157.605 114.146V117.926H156.583ZM159.551 114.216C160.009 114.216 160.415 114.104 160.769 113.88C161.133 113.647 161.418 113.334 161.623 112.942C161.838 112.541 161.945 112.093 161.945 111.598C161.945 111.094 161.838 110.646 161.623 110.254C161.418 109.862 161.133 109.554 160.769 109.33C160.415 109.097 160.009 108.98 159.551 108.98C159.15 108.98 158.777 109.064 158.431 109.232C158.095 109.391 157.82 109.619 157.605 109.918V113.264C157.829 113.563 158.109 113.796 158.445 113.964C158.791 114.132 159.159 114.216 159.551 114.216ZM164.745 115V108.168H165.767V109.568C165.945 109.092 166.197 108.723 166.523 108.462C166.859 108.191 167.242 108.056 167.671 108.056C167.793 108.056 167.905 108.065 168.007 108.084C168.11 108.093 168.213 108.117 168.315 108.154V109.078C168.203 109.041 168.082 109.013 167.951 108.994C167.83 108.966 167.713 108.952 167.601 108.952C167.181 108.952 166.813 109.073 166.495 109.316C166.187 109.559 165.945 109.899 165.767 110.338V115H164.745ZM172.267 115.112C171.633 115.112 171.063 114.958 170.559 114.65C170.055 114.342 169.659 113.922 169.369 113.39C169.08 112.858 168.935 112.256 168.935 111.584C168.935 110.912 169.08 110.31 169.369 109.778C169.659 109.246 170.055 108.826 170.559 108.518C171.063 108.21 171.633 108.056 172.267 108.056C172.893 108.056 173.453 108.21 173.947 108.518C174.451 108.826 174.848 109.246 175.137 109.778C175.427 110.31 175.571 110.912 175.571 111.584C175.571 112.256 175.427 112.858 175.137 113.39C174.848 113.922 174.451 114.342 173.947 114.65C173.453 114.958 172.893 115.112 172.267 115.112ZM172.253 114.216C172.701 114.216 173.098 114.104 173.443 113.88C173.789 113.647 174.059 113.329 174.255 112.928C174.461 112.527 174.563 112.079 174.563 111.584C174.563 111.08 174.461 110.632 174.255 110.24C174.059 109.839 173.789 109.526 173.443 109.302C173.098 109.069 172.701 108.952 172.253 108.952C171.805 108.952 171.409 109.069 171.063 109.302C170.718 109.526 170.443 109.839 170.237 110.24C170.041 110.632 169.943 111.08 169.943 111.584C169.943 112.079 170.041 112.527 170.237 112.928C170.443 113.329 170.718 113.647 171.063 113.88C171.409 114.104 171.805 114.216 172.253 114.216ZM180.528 118.066C180.071 118.066 179.609 118.001 179.142 117.87C178.685 117.749 178.26 117.576 177.868 117.352L178.302 116.568C178.722 116.783 179.105 116.941 179.45 117.044C179.796 117.147 180.141 117.198 180.486 117.198C181.112 117.198 181.583 117.049 181.9 116.75C182.227 116.451 182.39 116.017 182.39 115.448V114.076C182.129 114.403 181.812 114.655 181.438 114.832C181.065 115 180.654 115.084 180.206 115.084C179.618 115.084 179.086 114.93 178.61 114.622C178.134 114.305 177.756 113.885 177.476 113.362C177.196 112.83 177.056 112.237 177.056 111.584C177.056 110.931 177.196 110.343 177.476 109.82C177.766 109.288 178.153 108.868 178.638 108.56C179.124 108.243 179.665 108.084 180.262 108.084C180.692 108.084 181.088 108.168 181.452 108.336C181.816 108.495 182.134 108.733 182.404 109.05V108.168H183.412V115.434C183.412 116.283 183.165 116.932 182.67 117.38C182.176 117.837 181.462 118.066 180.528 118.066ZM180.458 114.202C180.86 114.202 181.228 114.123 181.564 113.964C181.9 113.796 182.176 113.567 182.39 113.278V109.904C182.166 109.615 181.882 109.391 181.536 109.232C181.2 109.064 180.841 108.98 180.458 108.98C180.001 108.98 179.59 109.092 179.226 109.316C178.872 109.54 178.587 109.848 178.372 110.24C178.167 110.632 178.064 111.08 178.064 111.584C178.064 112.079 178.167 112.527 178.372 112.928C178.587 113.32 178.872 113.633 179.226 113.866C179.59 114.09 180.001 114.202 180.458 114.202ZM185.513 115V108.168H186.535V109.568C186.712 109.092 186.964 108.723 187.291 108.462C187.627 108.191 188.01 108.056 188.439 108.056C188.56 108.056 188.672 108.065 188.775 108.084C188.878 108.093 188.98 108.117 189.083 108.154V109.078C188.971 109.041 188.85 109.013 188.719 108.994C188.598 108.966 188.481 108.952 188.369 108.952C187.949 108.952 187.58 109.073 187.263 109.316C186.955 109.559 186.712 109.899 186.535 110.338V115H185.513ZM193.091 115.14C192.456 115.14 191.882 114.986 191.369 114.678C190.856 114.361 190.45 113.936 190.151 113.404C189.852 112.863 189.703 112.256 189.703 111.584C189.703 110.912 189.843 110.31 190.123 109.778C190.412 109.246 190.8 108.826 191.285 108.518C191.77 108.21 192.312 108.056 192.909 108.056C193.516 108.056 194.052 108.21 194.519 108.518C194.995 108.817 195.368 109.227 195.639 109.75C195.919 110.263 196.059 110.847 196.059 111.5V111.808H190.697C190.734 112.275 190.86 112.695 191.075 113.068C191.299 113.432 191.588 113.721 191.943 113.936C192.307 114.141 192.704 114.244 193.133 114.244C193.488 114.244 193.828 114.183 194.155 114.062C194.491 113.931 194.776 113.759 195.009 113.544L195.653 114.23C195.261 114.538 194.855 114.767 194.435 114.916C194.015 115.065 193.567 115.14 193.091 115.14ZM190.725 111.08H195.051C195.004 110.669 194.878 110.305 194.673 109.988C194.477 109.661 194.225 109.405 193.917 109.218C193.618 109.031 193.282 108.938 192.909 108.938C192.536 108.938 192.195 109.031 191.887 109.218C191.579 109.395 191.322 109.647 191.117 109.974C190.921 110.291 190.79 110.66 190.725 111.08ZM199.986 115.14C199.426 115.14 198.908 115.056 198.432 114.888C197.956 114.711 197.55 114.459 197.214 114.132L197.76 113.46C198.171 113.759 198.549 113.978 198.894 114.118C199.24 114.249 199.594 114.314 199.958 114.314C200.453 114.314 200.864 114.197 201.19 113.964C201.517 113.731 201.68 113.432 201.68 113.068C201.68 112.788 201.582 112.569 201.386 112.41C201.2 112.251 200.887 112.13 200.448 112.046L199.328 111.85C198.666 111.729 198.176 111.523 197.858 111.234C197.55 110.945 197.396 110.553 197.396 110.058C197.396 109.666 197.499 109.321 197.704 109.022C197.919 108.723 198.213 108.49 198.586 108.322C198.96 108.145 199.384 108.056 199.86 108.056C200.327 108.056 200.77 108.126 201.19 108.266C201.61 108.397 202.035 108.611 202.464 108.91L201.96 109.624C201.606 109.372 201.251 109.19 200.896 109.078C200.542 108.957 200.182 108.896 199.818 108.896C199.37 108.896 199.011 108.994 198.74 109.19C198.47 109.386 198.334 109.652 198.334 109.988C198.334 110.268 198.418 110.483 198.586 110.632C198.764 110.781 199.072 110.893 199.51 110.968L200.658 111.178C201.349 111.299 201.853 111.509 202.17 111.808C202.488 112.107 202.646 112.508 202.646 113.012C202.646 113.413 202.53 113.777 202.296 114.104C202.063 114.421 201.746 114.673 201.344 114.86C200.943 115.047 200.49 115.14 199.986 115.14ZM206.316 115.14C205.756 115.14 205.238 115.056 204.762 114.888C204.286 114.711 203.88 114.459 203.544 114.132L204.09 113.46C204.501 113.759 204.879 113.978 205.224 114.118C205.57 114.249 205.924 114.314 206.288 114.314C206.783 114.314 207.194 114.197 207.52 113.964C207.847 113.731 208.01 113.432 208.01 113.068C208.01 112.788 207.912 112.569 207.716 112.41C207.53 112.251 207.217 112.13 206.778 112.046L205.658 111.85C204.996 111.729 204.506 111.523 204.188 111.234C203.88 110.945 203.726 110.553 203.726 110.058C203.726 109.666 203.829 109.321 204.034 109.022C204.249 108.723 204.543 108.49 204.916 108.322C205.29 108.145 205.714 108.056 206.19 108.056C206.657 108.056 207.1 108.126 207.52 108.266C207.94 108.397 208.365 108.611 208.794 108.91L208.29 109.624C207.936 109.372 207.581 109.19 207.226 109.078C206.872 108.957 206.512 108.896 206.148 108.896C205.7 108.896 205.341 108.994 205.07 109.19C204.8 109.386 204.664 109.652 204.664 109.988C204.664 110.268 204.748 110.483 204.916 110.632C205.094 110.781 205.402 110.893 205.84 110.968L206.988 111.178C207.679 111.299 208.183 111.509 208.5 111.808C208.818 112.107 208.976 112.508 208.976 113.012C208.976 113.413 208.86 113.777 208.626 114.104C208.393 114.421 208.076 114.673 207.674 114.86C207.273 115.047 206.82 115.14 206.316 115.14Z" fill="#A3A3A3"/>
<rect y="96" width="105" height="29" rx="14.5" fill="#383838"/>
<g clip-path="url(#clip3_4041_5603)">
<path d="M15.9999 102.5C15.7349 102.5 15.4649 102.515 15.1999 102.54C14.9249 102.565 14.7249 102.81 14.7499 103.085C14.7749 103.345 14.9949 103.535 15.2449 103.535C15.2599 103.535 15.2799 103.535 15.2949 103.535C15.5249 103.51 15.7599 103.5 15.9949 103.5C19.8549 103.5 22.9949 106.64 22.9949 110.5C22.9949 114.36 19.8549 117.5 15.9949 117.5C15.7649 117.5 15.5249 117.49 15.2949 117.465C15.0249 117.44 14.7749 117.64 14.7499 117.915C14.7249 118.19 14.9249 118.435 15.1999 118.46C15.4649 118.485 15.7349 118.5 15.9999 118.5C20.4099 118.5 23.9999 114.91 23.9999 110.5C23.9999 106.09 20.4099 102.5 15.9999 102.5Z" fill="#A3A3A3"/>
<path d="M15.355 113.355L19.855 108.855C20.05 108.66 20.05 108.345 19.855 108.15C19.66 107.955 19.345 107.955 19.15 108.15L15.005 112.295L12.86 110.15C12.665 109.955 12.35 109.955 12.155 110.15C11.96 110.345 11.96 110.66 12.155 110.855L14.655 113.355C14.755 113.455 14.88 113.5 15.01 113.5C15.14 113.5 15.265 113.45 15.365 113.355H15.355Z" fill="#A3A3A3"/>
<path d="M8.54503 109.49C8.58503 109.5 8.62503 109.5 8.66003 109.5C8.92003 109.5 9.15503 109.32 9.21003 109.055C9.31003 108.58 9.46003 108.115 9.66003 107.67C9.78503 107.385 9.66003 107.055 9.37503 106.925C9.09003 106.795 8.76003 106.925 8.63003 107.21C8.40003 107.725 8.22503 108.265 8.10503 108.82C8.04003 109.125 8.23503 109.425 8.54003 109.485L8.54503 109.49Z" fill="#A3A3A3"/>
<path d="M9.21504 111.95C9.15004 111.645 8.85004 111.45 8.55004 111.515C8.24504 111.58 8.05004 111.88 8.11504 112.18C8.23004 112.73 8.41004 113.275 8.64004 113.79C8.73504 114 8.94004 114.125 9.15504 114.125C9.23004 114.125 9.31004 114.11 9.38504 114.075C9.67004 113.95 9.79504 113.615 9.67004 113.33C9.47004 112.89 9.32004 112.425 9.22004 111.95H9.21504Z" fill="#A3A3A3"/>
<path d="M10.9901 105.48C11.1251 105.48 11.2601 105.435 11.3651 105.335C11.7251 105.01 12.1201 104.725 12.5451 104.48C12.8151 104.325 12.9051 103.98 12.7501 103.71C12.5951 103.44 12.2501 103.345 11.9801 103.505C11.4901 103.785 11.0301 104.12 10.6101 104.495C10.3801 104.705 10.3601 105.06 10.5701 105.29C10.6801 105.415 10.8351 105.475 10.9901 105.475V105.48Z" fill="#A3A3A3"/>
<path d="M12.55 116.52C12.13 116.28 11.73 115.99 11.37 115.665C11.14 115.46 10.785 115.475 10.575 115.71C10.365 115.94 10.385 116.295 10.62 116.505C11.04 116.88 11.5 117.215 11.99 117.495C12.08 117.545 12.175 117.57 12.27 117.57C12.465 117.57 12.655 117.47 12.76 117.29C12.915 117.02 12.82 116.675 12.55 116.52Z" fill="#A3A3A3"/>
</g>
<path d="M29.232 115V105.2H30.31V115H29.232ZM32.591 115V108.168H33.613V109.274C33.8743 108.863 34.187 108.56 34.551 108.364C34.915 108.159 35.3257 108.056 35.783 108.056C36.2777 108.056 36.707 108.163 37.071 108.378C37.4443 108.583 37.7337 108.877 37.939 109.26C38.1537 109.633 38.261 110.072 38.261 110.576V115H37.239V110.87C37.239 110.263 37.071 109.787 36.735 109.442C36.4083 109.087 35.965 108.91 35.405 108.91C35.0317 108.91 34.691 108.999 34.383 109.176C34.075 109.353 33.8183 109.615 33.613 109.96V115H32.591ZM43.5832 117.926V108.168H44.5912V109.148C44.8525 108.803 45.1699 108.541 45.5432 108.364C45.9259 108.177 46.3459 108.084 46.8032 108.084C47.4005 108.084 47.9325 108.243 48.3992 108.56C48.8752 108.868 49.2532 109.288 49.5332 109.82C49.8132 110.343 49.9532 110.931 49.9532 111.584C49.9532 112.237 49.8085 112.83 49.5192 113.362C49.2392 113.894 48.8565 114.319 48.3712 114.636C47.8952 114.944 47.3539 115.098 46.7472 115.098C46.3179 115.098 45.9212 115.019 45.5572 114.86C45.1932 114.692 44.8759 114.454 44.6052 114.146V117.926H43.5832ZM46.5512 114.216C47.0085 114.216 47.4145 114.104 47.7692 113.88C48.1332 113.647 48.4179 113.334 48.6232 112.942C48.8379 112.541 48.9452 112.093 48.9452 111.598C48.9452 111.094 48.8379 110.646 48.6232 110.254C48.4179 109.862 48.1332 109.554 47.7692 109.33C47.4145 109.097 47.0085 108.98 46.5512 108.98C46.1499 108.98 45.7765 109.064 45.4312 109.232C45.0952 109.391 44.8199 109.619 44.6052 109.918V113.264C44.8292 113.563 45.1092 113.796 45.4452 113.964C45.7905 114.132 46.1592 114.216 46.5512 114.216ZM51.7453 115V108.168H52.7673V109.568C52.9446 109.092 53.1966 108.723 53.5233 108.462C53.8593 108.191 54.242 108.056 54.6713 108.056C54.7926 108.056 54.9046 108.065 55.0073 108.084C55.11 108.093 55.2126 108.117 55.3153 108.154V109.078C55.2033 109.041 55.082 109.013 54.9513 108.994C54.83 108.966 54.7133 108.952 54.6013 108.952C54.1813 108.952 53.8126 109.073 53.4953 109.316C53.1873 109.559 52.9446 109.899 52.7673 110.338V115H51.7453ZM59.2674 115.112C58.6327 115.112 58.0634 114.958 57.5594 114.65C57.0554 114.342 56.6587 113.922 56.3694 113.39C56.08 112.858 55.9354 112.256 55.9354 111.584C55.9354 110.912 56.08 110.31 56.3694 109.778C56.6587 109.246 57.0554 108.826 57.5594 108.518C58.0634 108.21 58.6327 108.056 59.2674 108.056C59.8927 108.056 60.4527 108.21 60.9474 108.518C61.4514 108.826 61.848 109.246 62.1374 109.778C62.4267 110.31 62.5714 110.912 62.5714 111.584C62.5714 112.256 62.4267 112.858 62.1374 113.39C61.848 113.922 61.4514 114.342 60.9474 114.65C60.4527 114.958 59.8927 115.112 59.2674 115.112ZM59.2534 114.216C59.7014 114.216 60.098 114.104 60.4434 113.88C60.7887 113.647 61.0594 113.329 61.2554 112.928C61.4607 112.527 61.5634 112.079 61.5634 111.584C61.5634 111.08 61.4607 110.632 61.2554 110.24C61.0594 109.839 60.7887 109.526 60.4434 109.302C60.098 109.069 59.7014 108.952 59.2534 108.952C58.8054 108.952 58.4087 109.069 58.0634 109.302C57.718 109.526 57.4427 109.839 57.2374 110.24C57.0414 110.632 56.9434 111.08 56.9434 111.584C56.9434 112.079 57.0414 112.527 57.2374 112.928C57.4427 113.329 57.718 113.647 58.0634 113.88C58.4087 114.104 58.8054 114.216 59.2534 114.216ZM67.5285 118.066C67.0711 118.066 66.6091 118.001 66.1425 117.87C65.6851 117.749 65.2605 117.576 64.8685 117.352L65.3025 116.568C65.7225 116.783 66.1051 116.941 66.4505 117.044C66.7958 117.147 67.1411 117.198 67.4865 117.198C68.1118 117.198 68.5831 117.049 68.9005 116.75C69.2271 116.451 69.3905 116.017 69.3905 115.448V114.076C69.1291 114.403 68.8118 114.655 68.4385 114.832C68.0651 115 67.6545 115.084 67.2065 115.084C66.6185 115.084 66.0865 114.93 65.6105 114.622C65.1345 114.305 64.7565 113.885 64.4765 113.362C64.1965 112.83 64.0565 112.237 64.0565 111.584C64.0565 110.931 64.1965 110.343 64.4765 109.82C64.7658 109.288 65.1531 108.868 65.6385 108.56C66.1238 108.243 66.6651 108.084 67.2625 108.084C67.6918 108.084 68.0885 108.168 68.4525 108.336C68.8165 108.495 69.1338 108.733 69.4045 109.05V108.168H70.4125V115.434C70.4125 116.283 70.1651 116.932 69.6705 117.38C69.1758 117.837 68.4618 118.066 67.5285 118.066ZM67.4585 114.202C67.8598 114.202 68.2285 114.123 68.5645 113.964C68.9005 113.796 69.1758 113.567 69.3905 113.278V109.904C69.1665 109.615 68.8818 109.391 68.5365 109.232C68.2005 109.064 67.8411 108.98 67.4585 108.98C67.0011 108.98 66.5905 109.092 66.2265 109.316C65.8718 109.54 65.5871 109.848 65.3725 110.24C65.1671 110.632 65.0645 111.08 65.0645 111.584C65.0645 112.079 65.1671 112.527 65.3725 112.928C65.5871 113.32 65.8718 113.633 66.2265 113.866C66.5905 114.09 67.0011 114.202 67.4585 114.202ZM72.5129 115V108.168H73.5349V109.568C73.7122 109.092 73.9642 108.723 74.2909 108.462C74.6269 108.191 75.0096 108.056 75.4389 108.056C75.5602 108.056 75.6722 108.065 75.7749 108.084C75.8776 108.093 75.9802 108.117 76.0829 108.154V109.078C75.9709 109.041 75.8496 109.013 75.7189 108.994C75.5976 108.966 75.4809 108.952 75.3689 108.952C74.9489 108.952 74.5802 109.073 74.2629 109.316C73.9549 109.559 73.7122 109.899 73.5349 110.338V115H72.5129ZM80.0909 115.14C79.4563 115.14 78.8823 114.986 78.3689 114.678C77.8556 114.361 77.4496 113.936 77.1509 113.404C76.8523 112.863 76.7029 112.256 76.7029 111.584C76.7029 110.912 76.8429 110.31 77.1229 109.778C77.4123 109.246 77.7996 108.826 78.2849 108.518C78.7703 108.21 79.3116 108.056 79.9089 108.056C80.5156 108.056 81.0523 108.21 81.5189 108.518C81.9949 108.817 82.3683 109.227 82.6389 109.75C82.9189 110.263 83.0589 110.847 83.0589 111.5V111.808H77.6969C77.7343 112.275 77.8603 112.695 78.0749 113.068C78.2989 113.432 78.5883 113.721 78.9429 113.936C79.3069 114.141 79.7036 114.244 80.1329 114.244C80.4876 114.244 80.8283 114.183 81.1549 114.062C81.4909 113.931 81.7756 113.759 82.0089 113.544L82.6529 114.23C82.2609 114.538 81.8549 114.767 81.4349 114.916C81.0149 115.065 80.5669 115.14 80.0909 115.14ZM77.7249 111.08H82.0509C82.0043 110.669 81.8783 110.305 81.6729 109.988C81.4769 109.661 81.2249 109.405 80.9169 109.218C80.6183 109.031 80.2823 108.938 79.9089 108.938C79.5356 108.938 79.1949 109.031 78.8869 109.218C78.5789 109.395 78.3223 109.647 78.1169 109.974C77.9209 110.291 77.7903 110.66 77.7249 111.08ZM86.9863 115.14C86.4263 115.14 85.9083 115.056 85.4323 114.888C84.9563 114.711 84.5503 114.459 84.2143 114.132L84.7603 113.46C85.1709 113.759 85.5489 113.978 85.8943 114.118C86.2396 114.249 86.5943 114.314 86.9583 114.314C87.4529 114.314 87.8636 114.197 88.1903 113.964C88.5169 113.731 88.6803 113.432 88.6803 113.068C88.6803 112.788 88.5823 112.569 88.3863 112.41C88.1996 112.251 87.8869 112.13 87.4483 112.046L86.3283 111.85C85.6656 111.729 85.1756 111.523 84.8583 111.234C84.5503 110.945 84.3963 110.553 84.3963 110.058C84.3963 109.666 84.4989 109.321 84.7043 109.022C84.9189 108.723 85.2129 108.49 85.5863 108.322C85.9596 108.145 86.3843 108.056 86.8603 108.056C87.3269 108.056 87.7703 108.126 88.1903 108.266C88.6103 108.397 89.0349 108.611 89.4643 108.91L88.9603 109.624C88.6056 109.372 88.2509 109.19 87.8963 109.078C87.5416 108.957 87.1823 108.896 86.8183 108.896C86.3703 108.896 86.0109 108.994 85.7403 109.19C85.4696 109.386 85.3343 109.652 85.3343 109.988C85.3343 110.268 85.4183 110.483 85.5863 110.632C85.7636 110.781 86.0716 110.893 86.5103 110.968L87.6583 111.178C88.3489 111.299 88.8529 111.509 89.1703 111.808C89.4876 112.107 89.6463 112.508 89.6463 113.012C89.6463 113.413 89.5296 113.777 89.2963 114.104C89.0629 114.421 88.7456 114.673 88.3443 114.86C87.9429 115.047 87.4903 115.14 86.9863 115.14ZM93.3163 115.14C92.7563 115.14 92.2383 115.056 91.7623 114.888C91.2863 114.711 90.8803 114.459 90.5443 114.132L91.0903 113.46C91.501 113.759 91.879 113.978 92.2243 114.118C92.5697 114.249 92.9243 114.314 93.2883 114.314C93.783 114.314 94.1937 114.197 94.5203 113.964C94.847 113.731 95.0103 113.432 95.0103 113.068C95.0103 112.788 94.9123 112.569 94.7163 112.41C94.5297 112.251 94.217 112.13 93.7783 112.046L92.6583 111.85C91.9957 111.729 91.5057 111.523 91.1883 111.234C90.8803 110.945 90.7263 110.553 90.7263 110.058C90.7263 109.666 90.829 109.321 91.0343 109.022C91.249 108.723 91.543 108.49 91.9163 108.322C92.2897 108.145 92.7143 108.056 93.1903 108.056C93.657 108.056 94.1003 108.126 94.5203 108.266C94.9403 108.397 95.365 108.611 95.7943 108.91L95.2903 109.624C94.9357 109.372 94.581 109.19 94.2263 109.078C93.8717 108.957 93.5123 108.896 93.1483 108.896C92.7003 108.896 92.341 108.994 92.0703 109.19C91.7997 109.386 91.6643 109.652 91.6643 109.988C91.6643 110.268 91.7483 110.483 91.9163 110.632C92.0937 110.781 92.4017 110.893 92.8403 110.968L93.9883 111.178C94.679 111.299 95.183 111.509 95.5003 111.808C95.8177 112.107 95.9763 112.508 95.9763 113.012C95.9763 113.413 95.8597 113.777 95.6263 114.104C95.393 114.421 95.0757 114.673 94.6743 114.86C94.273 115.047 93.8203 115.14 93.3163 115.14Z" fill="#A3A3A3"/>
<rect x="353.5" y="6.5" width="84" height="15" rx="7.5" fill="#21134D"/>
<rect x="353.5" y="6.5" width="84" height="15" rx="7.5" stroke="#5E40BE"/>
<g clip-path="url(#clip4_4041_5603)">
<path d="M369 8C368.801 8 368.599 8.01125 368.4 8.03C368.194 8.04875 368.044 8.2325 368.062 8.43875C368.081 8.63375 368.246 8.77625 368.434 8.77625C368.445 8.77625 368.46 8.77625 368.471 8.77625C368.644 8.7575 368.82 8.75 368.996 8.75C371.891 8.75 374.246 11.105 374.246 14C374.246 16.895 371.891 19.25 368.996 19.25C368.824 19.25 368.644 19.2425 368.471 19.2238C368.269 19.205 368.081 19.355 368.062 19.5612C368.044 19.7675 368.194 19.9513 368.4 19.97C368.599 19.9888 368.801 20 369 20C372.307 20 375 17.3075 375 14C375 10.6925 372.307 8 369 8Z" fill="#B6A6E9"/>
<path d="M368.516 16.1414L371.891 12.7664C372.038 12.6201 372.038 12.3839 371.891 12.2376C371.745 12.0914 371.509 12.0914 371.363 12.2376L368.254 15.3464L366.645 13.7376C366.499 13.5914 366.263 13.5914 366.116 13.7376C365.97 13.8839 365.97 14.1201 366.116 14.2664L367.991 16.1414C368.066 16.2164 368.16 16.2501 368.258 16.2501C368.355 16.2501 368.449 16.2126 368.524 16.1414H368.516Z" fill="#B6A6E9"/>
<path d="M363.409 13.2424C363.439 13.2499 363.469 13.2499 363.495 13.2499C363.69 13.2499 363.866 13.1149 363.907 12.9162C363.982 12.5599 364.095 12.2112 364.245 11.8774C364.339 11.6637 364.245 11.4162 364.031 11.3187C363.817 11.2212 363.57 11.3187 363.472 11.5324C363.3 11.9187 363.169 12.3237 363.079 12.7399C363.03 12.9687 363.176 13.1937 363.405 13.2387L363.409 13.2424Z" fill="#B6A6E9"/>
<path d="M363.911 15.0876C363.863 14.8588 363.638 14.7126 363.413 14.7613C363.184 14.8101 363.038 15.0351 363.086 15.2601C363.173 15.6726 363.308 16.0813 363.48 16.4676C363.551 16.6251 363.705 16.7188 363.866 16.7188C363.923 16.7188 363.983 16.7076 364.039 16.6813C364.253 16.5876 364.346 16.3363 364.253 16.1226C364.103 15.7926 363.99 15.4438 363.915 15.0876H363.911Z" fill="#B6A6E9"/>
<path d="M365.242 10.235C365.344 10.235 365.445 10.2013 365.524 10.1263C365.794 9.88254 366.09 9.66879 366.409 9.48504C366.611 9.36879 366.679 9.11004 366.562 8.90754C366.446 8.70504 366.187 8.63379 365.985 8.75379C365.617 8.96379 365.272 9.21504 364.957 9.49629C364.785 9.65379 364.77 9.92004 364.927 10.0925C365.01 10.1863 365.126 10.2313 365.242 10.2313V10.235Z" fill="#B6A6E9"/>
<path d="M366.412 18.5148C366.097 18.3348 365.797 18.1173 365.527 17.8736C365.355 17.7198 365.089 17.7311 364.931 17.9073C364.774 18.0798 364.789 18.3461 364.965 18.5036C365.28 18.7848 365.625 19.0361 365.992 19.2461C366.06 19.2836 366.131 19.3023 366.202 19.3023C366.349 19.3023 366.491 19.2273 366.57 19.0923C366.686 18.8898 366.615 18.6311 366.412 18.5148Z" fill="#B6A6E9"/>
</g>
<path d="M381.88 17.5V10.5H382.65V17.5H381.88ZM384.279 17.5V12.62H385.009V13.41C385.196 13.1167 385.419 12.9 385.679 12.76C385.939 12.6133 386.233 12.54 386.559 12.54C386.913 12.54 387.219 12.6167 387.479 12.77C387.746 12.9167 387.953 13.1267 388.099 13.4C388.253 13.6667 388.329 13.98 388.329 14.34V17.5H387.599V14.55C387.599 14.1167 387.479 13.7767 387.239 13.53C387.006 13.2767 386.689 13.15 386.289 13.15C386.023 13.15 385.779 13.2133 385.559 13.34C385.339 13.4667 385.156 13.6533 385.009 13.9V17.5H384.279ZM392.131 19.59V12.62H392.851V13.32C393.038 13.0733 393.264 12.8867 393.531 12.76C393.804 12.6267 394.104 12.56 394.431 12.56C394.858 12.56 395.238 12.6733 395.571 12.9C395.911 13.12 396.181 13.42 396.381 13.8C396.581 14.1733 396.681 14.5933 396.681 15.06C396.681 15.5267 396.578 15.95 396.371 16.33C396.171 16.71 395.898 17.0133 395.551 17.24C395.211 17.46 394.824 17.57 394.391 17.57C394.084 17.57 393.801 17.5133 393.541 17.4C393.281 17.28 393.054 17.11 392.861 16.89V19.59H392.131ZM394.251 16.94C394.578 16.94 394.868 16.86 395.121 16.7C395.381 16.5333 395.584 16.31 395.731 16.03C395.884 15.7433 395.961 15.4233 395.961 15.07C395.961 14.71 395.884 14.39 395.731 14.11C395.584 13.83 395.381 13.61 395.121 13.45C394.868 13.2833 394.578 13.2 394.251 13.2C393.964 13.2 393.698 13.26 393.451 13.38C393.211 13.4933 393.014 13.6567 392.861 13.87V16.26C393.021 16.4733 393.221 16.64 393.461 16.76C393.708 16.88 393.971 16.94 394.251 16.94ZM397.961 17.5V12.62H398.691V13.62C398.818 13.28 398.998 13.0167 399.231 12.83C399.471 12.6367 399.744 12.54 400.051 12.54C400.138 12.54 400.218 12.5467 400.291 12.56C400.364 12.5667 400.438 12.5833 400.511 12.61V13.27C400.431 13.2433 400.344 13.2233 400.251 13.21C400.164 13.19 400.081 13.18 400.001 13.18C399.701 13.18 399.438 13.2667 399.211 13.44C398.991 13.6133 398.818 13.8567 398.691 14.17V17.5H397.961ZM403.334 17.58C402.88 17.58 402.474 17.47 402.114 17.25C401.754 17.03 401.47 16.73 401.264 16.35C401.057 15.97 400.954 15.54 400.954 15.06C400.954 14.58 401.057 14.15 401.264 13.77C401.47 13.39 401.754 13.09 402.114 12.87C402.474 12.65 402.88 12.54 403.334 12.54C403.78 12.54 404.18 12.65 404.534 12.87C404.894 13.09 405.177 13.39 405.384 13.77C405.59 14.15 405.694 14.58 405.694 15.06C405.694 15.54 405.59 15.97 405.384 16.35C405.177 16.73 404.894 17.03 404.534 17.25C404.18 17.47 403.78 17.58 403.334 17.58ZM403.324 16.94C403.644 16.94 403.927 16.86 404.174 16.7C404.42 16.5333 404.614 16.3067 404.754 16.02C404.9 15.7333 404.974 15.4133 404.974 15.06C404.974 14.7 404.9 14.38 404.754 14.1C404.614 13.8133 404.42 13.59 404.174 13.43C403.927 13.2633 403.644 13.18 403.324 13.18C403.004 13.18 402.72 13.2633 402.474 13.43C402.227 13.59 402.03 13.8133 401.884 14.1C401.744 14.38 401.674 14.7 401.674 15.06C401.674 15.4133 401.744 15.7333 401.884 16.02C402.03 16.3067 402.227 16.5333 402.474 16.7C402.72 16.86 403.004 16.94 403.324 16.94ZM409.235 19.69C408.908 19.69 408.578 19.6433 408.245 19.55C407.918 19.4633 407.615 19.34 407.335 19.18L407.645 18.62C407.945 18.7733 408.218 18.8867 408.465 18.96C408.711 19.0333 408.958 19.07 409.205 19.07C409.651 19.07 409.988 18.9633 410.215 18.75C410.448 18.5367 410.565 18.2267 410.565 17.82V16.84C410.378 17.0733 410.151 17.2533 409.885 17.38C409.618 17.5 409.325 17.56 409.005 17.56C408.585 17.56 408.205 17.45 407.865 17.23C407.525 17.0033 407.255 16.7033 407.055 16.33C406.855 15.95 406.755 15.5267 406.755 15.06C406.755 14.5933 406.855 14.1733 407.055 13.8C407.261 13.42 407.538 13.12 407.885 12.9C408.231 12.6733 408.618 12.56 409.045 12.56C409.351 12.56 409.635 12.62 409.895 12.74C410.155 12.8533 410.381 13.0233 410.575 13.25V12.62H411.295V17.81C411.295 18.4167 411.118 18.88 410.765 19.2C410.411 19.5267 409.901 19.69 409.235 19.69ZM409.185 16.93C409.471 16.93 409.735 16.8733 409.975 16.76C410.215 16.64 410.411 16.4767 410.565 16.27V13.86C410.405 13.6533 410.201 13.4933 409.955 13.38C409.715 13.26 409.458 13.2 409.185 13.2C408.858 13.2 408.565 13.28 408.305 13.44C408.051 13.6 407.848 13.82 407.695 14.1C407.548 14.38 407.475 14.7 407.475 15.06C407.475 15.4133 407.548 15.7333 407.695 16.02C407.848 16.3 408.051 16.5233 408.305 16.69C408.565 16.85 408.858 16.93 409.185 16.93ZM412.795 17.5V12.62H413.525V13.62C413.652 13.28 413.832 13.0167 414.065 12.83C414.305 12.6367 414.578 12.54 414.885 12.54C414.972 12.54 415.052 12.5467 415.125 12.56C415.198 12.5667 415.272 12.5833 415.345 12.61V13.27C415.265 13.2433 415.178 13.2233 415.085 13.21C414.998 13.19 414.915 13.18 414.835 13.18C414.535 13.18 414.272 13.2667 414.045 13.44C413.825 13.6133 413.652 13.8567 413.525 14.17V17.5H412.795ZM418.208 17.6C417.754 17.6 417.344 17.49 416.978 17.27C416.611 17.0433 416.321 16.74 416.108 16.36C415.894 15.9733 415.788 15.54 415.788 15.06C415.788 14.58 415.888 14.15 416.088 13.77C416.294 13.39 416.571 13.09 416.918 12.87C417.264 12.65 417.651 12.54 418.078 12.54C418.511 12.54 418.894 12.65 419.228 12.87C419.568 13.0833 419.834 13.3767 420.028 13.75C420.228 14.1167 420.328 14.5333 420.328 15V15.22H416.498C416.524 15.5533 416.614 15.8533 416.768 16.12C416.928 16.38 417.134 16.5867 417.388 16.74C417.648 16.8867 417.931 16.96 418.238 16.96C418.491 16.96 418.734 16.9167 418.968 16.83C419.208 16.7367 419.411 16.6133 419.578 16.46L420.038 16.95C419.758 17.17 419.468 17.3333 419.168 17.44C418.868 17.5467 418.548 17.6 418.208 17.6ZM416.518 14.7H419.608C419.574 14.4067 419.484 14.1467 419.338 13.92C419.198 13.6867 419.018 13.5033 418.798 13.37C418.584 13.2367 418.344 13.17 418.078 13.17C417.811 13.17 417.568 13.2367 417.348 13.37C417.128 13.4967 416.944 13.6767 416.798 13.91C416.658 14.1367 416.564 14.4 416.518 14.7ZM423.133 17.6C422.733 17.6 422.363 17.54 422.023 17.42C421.683 17.2933 421.393 17.1133 421.153 16.88L421.543 16.4C421.836 16.6133 422.106 16.77 422.353 16.87C422.6 16.9633 422.853 17.01 423.113 17.01C423.466 17.01 423.76 16.9267 423.993 16.76C424.226 16.5933 424.343 16.38 424.343 16.12C424.343 15.92 424.273 15.7633 424.133 15.65C424 15.5367 423.776 15.45 423.463 15.39L422.663 15.25C422.19 15.1633 421.84 15.0167 421.613 14.81C421.393 14.6033 421.283 14.3233 421.283 13.97C421.283 13.69 421.356 13.4433 421.503 13.23C421.656 13.0167 421.866 12.85 422.133 12.73C422.4 12.6033 422.703 12.54 423.043 12.54C423.376 12.54 423.693 12.59 423.993 12.69C424.293 12.7833 424.596 12.9367 424.903 13.15L424.543 13.66C424.29 13.48 424.036 13.35 423.783 13.27C423.53 13.1833 423.273 13.14 423.013 13.14C422.693 13.14 422.436 13.21 422.243 13.35C422.05 13.49 421.953 13.68 421.953 13.92C421.953 14.12 422.013 14.2733 422.133 14.38C422.26 14.4867 422.48 14.5667 422.793 14.62L423.613 14.77C424.106 14.8567 424.466 15.0067 424.693 15.22C424.92 15.4333 425.033 15.72 425.033 16.08C425.033 16.3667 424.95 16.6267 424.783 16.86C424.616 17.0867 424.39 17.2667 424.103 17.4C423.816 17.5333 423.493 17.6 423.133 17.6ZM427.655 17.6C427.255 17.6 426.885 17.54 426.545 17.42C426.205 17.2933 425.915 17.1133 425.675 16.88L426.065 16.4C426.358 16.6133 426.628 16.77 426.875 16.87C427.121 16.9633 427.375 17.01 427.635 17.01C427.988 17.01 428.281 16.9267 428.515 16.76C428.748 16.5933 428.865 16.38 428.865 16.12C428.865 15.92 428.795 15.7633 428.655 15.65C428.521 15.5367 428.298 15.45 427.985 15.39L427.185 15.25C426.711 15.1633 426.361 15.0167 426.135 14.81C425.915 14.6033 425.805 14.3233 425.805 13.97C425.805 13.69 425.878 13.4433 426.025 13.23C426.178 13.0167 426.388 12.85 426.655 12.73C426.921 12.6033 427.225 12.54 427.565 12.54C427.898 12.54 428.215 12.59 428.515 12.69C428.815 12.7833 429.118 12.9367 429.425 13.15L429.065 13.66C428.811 13.48 428.558 13.35 428.305 13.27C428.051 13.1833 427.795 13.14 427.535 13.14C427.215 13.14 426.958 13.21 426.765 13.35C426.571 13.49 426.475 13.68 426.475 13.92C426.475 14.12 426.535 14.2733 426.655 14.38C426.781 14.4867 427.001 14.5667 427.315 14.62L428.135 14.77C428.628 14.8567 428.988 15.0067 429.215 15.22C429.441 15.4333 429.555 15.72 429.555 16.08C429.555 16.3667 429.471 16.6267 429.305 16.86C429.138 17.0867 428.911 17.2667 428.625 17.4C428.338 17.5333 428.015 17.6 427.655 17.6Z" fill="#ECE6FF"/>
<g filter="url(#filter0_d_4041_5603)">
<path d="M401 32V15L413 27H406L401 32Z" fill="#151515"/>
<path d="M414.207 27.5H406.207L400.5 33.207V13.793L414.207 27.5Z" stroke="white"/>
</g>
<rect x="250.5" y="6.5" width="84" height="15" rx="7.5" fill="#21134D"/>
<rect x="250.5" y="6.5" width="84" height="15" rx="7.5" stroke="#5E40BE"/>
<g clip-path="url(#clip5_4041_5603)">
<path d="M266 8C265.801 8 265.599 8.01125 265.4 8.03C265.194 8.04875 265.044 8.2325 265.062 8.43875C265.081 8.63375 265.246 8.77625 265.434 8.77625C265.445 8.77625 265.46 8.77625 265.471 8.77625C265.644 8.7575 265.82 8.75 265.996 8.75C268.891 8.75 271.246 11.105 271.246 14C271.246 16.895 268.891 19.25 265.996 19.25C265.824 19.25 265.644 19.2425 265.471 19.2238C265.269 19.205 265.081 19.355 265.062 19.5612C265.044 19.7675 265.194 19.9513 265.4 19.97C265.599 19.9888 265.801 20 266 20C269.307 20 272 17.3075 272 14C272 10.6925 269.307 8 266 8Z" fill="#B6A6E9"/>
<path d="M265.516 16.1414L268.891 12.7664C269.038 12.6201 269.038 12.3839 268.891 12.2376C268.745 12.0914 268.509 12.0914 268.363 12.2376L265.254 15.3464L263.645 13.7376C263.499 13.5914 263.263 13.5914 263.116 13.7376C262.97 13.8839 262.97 14.1201 263.116 14.2664L264.991 16.1414C265.066 16.2164 265.16 16.2501 265.258 16.2501C265.355 16.2501 265.449 16.2126 265.524 16.1414H265.516Z" fill="#B6A6E9"/>
<path d="M260.409 13.2424C260.439 13.2499 260.469 13.2499 260.495 13.2499C260.69 13.2499 260.866 13.1149 260.907 12.9162C260.982 12.5599 261.095 12.2112 261.245 11.8774C261.339 11.6637 261.245 11.4162 261.031 11.3187C260.817 11.2212 260.57 11.3187 260.472 11.5324C260.3 11.9187 260.169 12.3237 260.079 12.7399C260.03 12.9687 260.176 13.1937 260.405 13.2387L260.409 13.2424Z" fill="#B6A6E9"/>
<path d="M260.911 15.0876C260.863 14.8588 260.638 14.7126 260.413 14.7613C260.184 14.8101 260.038 15.0351 260.086 15.2601C260.173 15.6726 260.308 16.0813 260.48 16.4676C260.551 16.6251 260.705 16.7188 260.866 16.7188C260.923 16.7188 260.983 16.7076 261.039 16.6813C261.253 16.5876 261.346 16.3363 261.253 16.1226C261.103 15.7926 260.99 15.4438 260.915 15.0876H260.911Z" fill="#B6A6E9"/>
<path d="M262.242 10.235C262.344 10.235 262.445 10.2013 262.524 10.1263C262.794 9.88254 263.09 9.66879 263.409 9.48504C263.611 9.36879 263.679 9.11004 263.562 8.90754C263.446 8.70504 263.187 8.63379 262.985 8.75379C262.617 8.96379 262.272 9.21504 261.957 9.49629C261.785 9.65379 261.77 9.92004 261.927 10.0925C262.01 10.1863 262.126 10.2313 262.242 10.2313V10.235Z" fill="#B6A6E9"/>
<path d="M263.412 18.5148C263.097 18.3348 262.797 18.1173 262.527 17.8736C262.355 17.7198 262.089 17.7311 261.931 17.9073C261.774 18.0798 261.789 18.3461 261.965 18.5036C262.28 18.7848 262.625 19.0361 262.992 19.2461C263.06 19.2836 263.131 19.3023 263.202 19.3023C263.349 19.3023 263.491 19.2273 263.57 19.0923C263.686 18.8898 263.615 18.6311 263.412 18.5148Z" fill="#B6A6E9"/>
</g>
<path d="M278.88 17.5V10.5H279.65V17.5H278.88ZM281.279 17.5V12.62H282.009V13.41C282.196 13.1167 282.419 12.9 282.679 12.76C282.939 12.6133 283.233 12.54 283.559 12.54C283.913 12.54 284.219 12.6167 284.479 12.77C284.746 12.9167 284.953 13.1267 285.099 13.4C285.253 13.6667 285.329 13.98 285.329 14.34V17.5H284.599V14.55C284.599 14.1167 284.479 13.7767 284.239 13.53C284.006 13.2767 283.689 13.15 283.289 13.15C283.023 13.15 282.779 13.2133 282.559 13.34C282.339 13.4667 282.156 13.6533 282.009 13.9V17.5H281.279ZM289.131 19.59V12.62H289.851V13.32C290.038 13.0733 290.264 12.8867 290.531 12.76C290.804 12.6267 291.104 12.56 291.431 12.56C291.858 12.56 292.238 12.6733 292.571 12.9C292.911 13.12 293.181 13.42 293.381 13.8C293.581 14.1733 293.681 14.5933 293.681 15.06C293.681 15.5267 293.578 15.95 293.371 16.33C293.171 16.71 292.898 17.0133 292.551 17.24C292.211 17.46 291.824 17.57 291.391 17.57C291.084 17.57 290.801 17.5133 290.541 17.4C290.281 17.28 290.054 17.11 289.861 16.89V19.59H289.131ZM291.251 16.94C291.578 16.94 291.868 16.86 292.121 16.7C292.381 16.5333 292.584 16.31 292.731 16.03C292.884 15.7433 292.961 15.4233 292.961 15.07C292.961 14.71 292.884 14.39 292.731 14.11C292.584 13.83 292.381 13.61 292.121 13.45C291.868 13.2833 291.578 13.2 291.251 13.2C290.964 13.2 290.698 13.26 290.451 13.38C290.211 13.4933 290.014 13.6567 289.861 13.87V16.26C290.021 16.4733 290.221 16.64 290.461 16.76C290.708 16.88 290.971 16.94 291.251 16.94ZM294.961 17.5V12.62H295.691V13.62C295.818 13.28 295.998 13.0167 296.231 12.83C296.471 12.6367 296.744 12.54 297.051 12.54C297.138 12.54 297.218 12.5467 297.291 12.56C297.364 12.5667 297.438 12.5833 297.511 12.61V13.27C297.431 13.2433 297.344 13.2233 297.251 13.21C297.164 13.19 297.081 13.18 297.001 13.18C296.701 13.18 296.438 13.2667 296.211 13.44C295.991 13.6133 295.818 13.8567 295.691 14.17V17.5H294.961ZM300.334 17.58C299.88 17.58 299.474 17.47 299.114 17.25C298.754 17.03 298.47 16.73 298.264 16.35C298.057 15.97 297.954 15.54 297.954 15.06C297.954 14.58 298.057 14.15 298.264 13.77C298.47 13.39 298.754 13.09 299.114 12.87C299.474 12.65 299.88 12.54 300.334 12.54C300.78 12.54 301.18 12.65 301.534 12.87C301.894 13.09 302.177 13.39 302.384 13.77C302.59 14.15 302.694 14.58 302.694 15.06C302.694 15.54 302.59 15.97 302.384 16.35C302.177 16.73 301.894 17.03 301.534 17.25C301.18 17.47 300.78 17.58 300.334 17.58ZM300.324 16.94C300.644 16.94 300.927 16.86 301.174 16.7C301.42 16.5333 301.614 16.3067 301.754 16.02C301.9 15.7333 301.974 15.4133 301.974 15.06C301.974 14.7 301.9 14.38 301.754 14.1C301.614 13.8133 301.42 13.59 301.174 13.43C300.927 13.2633 300.644 13.18 300.324 13.18C300.004 13.18 299.72 13.2633 299.474 13.43C299.227 13.59 299.03 13.8133 298.884 14.1C298.744 14.38 298.674 14.7 298.674 15.06C298.674 15.4133 298.744 15.7333 298.884 16.02C299.03 16.3067 299.227 16.5333 299.474 16.7C299.72 16.86 300.004 16.94 300.324 16.94ZM306.235 19.69C305.908 19.69 305.578 19.6433 305.245 19.55C304.918 19.4633 304.615 19.34 304.335 19.18L304.645 18.62C304.945 18.7733 305.218 18.8867 305.465 18.96C305.711 19.0333 305.958 19.07 306.205 19.07C306.651 19.07 306.988 18.9633 307.215 18.75C307.448 18.5367 307.565 18.2267 307.565 17.82V16.84C307.378 17.0733 307.151 17.2533 306.885 17.38C306.618 17.5 306.325 17.56 306.005 17.56C305.585 17.56 305.205 17.45 304.865 17.23C304.525 17.0033 304.255 16.7033 304.055 16.33C303.855 15.95 303.755 15.5267 303.755 15.06C303.755 14.5933 303.855 14.1733 304.055 13.8C304.261 13.42 304.538 13.12 304.885 12.9C305.231 12.6733 305.618 12.56 306.045 12.56C306.351 12.56 306.635 12.62 306.895 12.74C307.155 12.8533 307.381 13.0233 307.575 13.25V12.62H308.295V17.81C308.295 18.4167 308.118 18.88 307.765 19.2C307.411 19.5267 306.901 19.69 306.235 19.69ZM306.185 16.93C306.471 16.93 306.735 16.8733 306.975 16.76C307.215 16.64 307.411 16.4767 307.565 16.27V13.86C307.405 13.6533 307.201 13.4933 306.955 13.38C306.715 13.26 306.458 13.2 306.185 13.2C305.858 13.2 305.565 13.28 305.305 13.44C305.051 13.6 304.848 13.82 304.695 14.1C304.548 14.38 304.475 14.7 304.475 15.06C304.475 15.4133 304.548 15.7333 304.695 16.02C304.848 16.3 305.051 16.5233 305.305 16.69C305.565 16.85 305.858 16.93 306.185 16.93ZM309.795 17.5V12.62H310.525V13.62C310.652 13.28 310.832 13.0167 311.065 12.83C311.305 12.6367 311.578 12.54 311.885 12.54C311.972 12.54 312.052 12.5467 312.125 12.56C312.198 12.5667 312.272 12.5833 312.345 12.61V13.27C312.265 13.2433 312.178 13.2233 312.085 13.21C311.998 13.19 311.915 13.18 311.835 13.18C311.535 13.18 311.272 13.2667 311.045 13.44C310.825 13.6133 310.652 13.8567 310.525 14.17V17.5H309.795ZM315.208 17.6C314.754 17.6 314.344 17.49 313.978 17.27C313.611 17.0433 313.321 16.74 313.108 16.36C312.894 15.9733 312.788 15.54 312.788 15.06C312.788 14.58 312.888 14.15 313.088 13.77C313.294 13.39 313.571 13.09 313.918 12.87C314.264 12.65 314.651 12.54 315.078 12.54C315.511 12.54 315.894 12.65 316.228 12.87C316.568 13.0833 316.834 13.3767 317.028 13.75C317.228 14.1167 317.328 14.5333 317.328 15V15.22H313.498C313.524 15.5533 313.614 15.8533 313.768 16.12C313.928 16.38 314.134 16.5867 314.388 16.74C314.648 16.8867 314.931 16.96 315.238 16.96C315.491 16.96 315.734 16.9167 315.968 16.83C316.208 16.7367 316.411 16.6133 316.578 16.46L317.038 16.95C316.758 17.17 316.468 17.3333 316.168 17.44C315.868 17.5467 315.548 17.6 315.208 17.6ZM313.518 14.7H316.608C316.574 14.4067 316.484 14.1467 316.338 13.92C316.198 13.6867 316.018 13.5033 315.798 13.37C315.584 13.2367 315.344 13.17 315.078 13.17C314.811 13.17 314.568 13.2367 314.348 13.37C314.128 13.4967 313.944 13.6767 313.798 13.91C313.658 14.1367 313.564 14.4 313.518 14.7ZM320.133 17.6C319.733 17.6 319.363 17.54 319.023 17.42C318.683 17.2933 318.393 17.1133 318.153 16.88L318.543 16.4C318.836 16.6133 319.106 16.77 319.353 16.87C319.6 16.9633 319.853 17.01 320.113 17.01C320.466 17.01 320.76 16.9267 320.993 16.76C321.226 16.5933 321.343 16.38 321.343 16.12C321.343 15.92 321.273 15.7633 321.133 15.65C321 15.5367 320.776 15.45 320.463 15.39L319.663 15.25C319.19 15.1633 318.84 15.0167 318.613 14.81C318.393 14.6033 318.283 14.3233 318.283 13.97C318.283 13.69 318.356 13.4433 318.503 13.23C318.656 13.0167 318.866 12.85 319.133 12.73C319.4 12.6033 319.703 12.54 320.043 12.54C320.376 12.54 320.693 12.59 320.993 12.69C321.293 12.7833 321.596 12.9367 321.903 13.15L321.543 13.66C321.29 13.48 321.036 13.35 320.783 13.27C320.53 13.1833 320.273 13.14 320.013 13.14C319.693 13.14 319.436 13.21 319.243 13.35C319.05 13.49 318.953 13.68 318.953 13.92C318.953 14.12 319.013 14.2733 319.133 14.38C319.26 14.4867 319.48 14.5667 319.793 14.62L320.613 14.77C321.106 14.8567 321.466 15.0067 321.693 15.22C321.92 15.4333 322.033 15.72 322.033 16.08C322.033 16.3667 321.95 16.6267 321.783 16.86C321.616 17.0867 321.39 17.2667 321.103 17.4C320.816 17.5333 320.493 17.6 320.133 17.6ZM324.655 17.6C324.255 17.6 323.885 17.54 323.545 17.42C323.205 17.2933 322.915 17.1133 322.675 16.88L323.065 16.4C323.358 16.6133 323.628 16.77 323.875 16.87C324.121 16.9633 324.375 17.01 324.635 17.01C324.988 17.01 325.281 16.9267 325.515 16.76C325.748 16.5933 325.865 16.38 325.865 16.12C325.865 15.92 325.795 15.7633 325.655 15.65C325.521 15.5367 325.298 15.45 324.985 15.39L324.185 15.25C323.711 15.1633 323.361 15.0167 323.135 14.81C322.915 14.6033 322.805 14.3233 322.805 13.97C322.805 13.69 322.878 13.4433 323.025 13.23C323.178 13.0167 323.388 12.85 323.655 12.73C323.921 12.6033 324.225 12.54 324.565 12.54C324.898 12.54 325.215 12.59 325.515 12.69C325.815 12.7833 326.118 12.9367 326.425 13.15L326.065 13.66C325.811 13.48 325.558 13.35 325.305 13.27C325.051 13.1833 324.795 13.14 324.535 13.14C324.215 13.14 323.958 13.21 323.765 13.35C323.571 13.49 323.475 13.68 323.475 13.92C323.475 14.12 323.535 14.2733 323.655 14.38C323.781 14.4867 324.001 14.5667 324.315 14.62L325.135 14.77C325.628 14.8567 325.988 15.0067 326.215 15.22C326.441 15.4333 326.555 15.72 326.555 16.08C326.555 16.3667 326.471 16.6267 326.305 16.86C326.138 17.0867 325.911 17.2667 325.625 17.4C325.338 17.5333 325.015 17.6 324.655 17.6Z" fill="#ECE6FF"/>
<line x1="278" y1="19.5" x2="327" y2="19.5" stroke="#ECE6FF" stroke-dasharray="3 2"/>
<rect x="113.5" y="0.5" width="104" height="28" rx="14" fill="#21134D"/>
<rect x="113.5" y="0.5" width="104" height="28" rx="14" stroke="#5E40BE"/>
<g clip-path="url(#clip6_4041_5603)">
<path d="M129 6.5C128.735 6.5 128.465 6.515 128.2 6.54C127.925 6.565 127.725 6.81 127.75 7.085C127.775 7.345 127.995 7.535 128.245 7.535C128.26 7.535 128.28 7.535 128.295 7.535C128.525 7.51 128.76 7.5 128.995 7.5C132.855 7.5 135.995 10.64 135.995 14.5C135.995 18.36 132.855 21.5 128.995 21.5C128.765 21.5 128.525 21.49 128.295 21.465C128.025 21.44 127.775 21.64 127.75 21.915C127.725 22.19 127.925 22.435 128.2 22.46C128.465 22.485 128.735 22.5 129 22.5C133.41 22.5 137 18.91 137 14.5C137 10.09 133.41 6.5 129 6.5Z" fill="#B6A6E9"/>
<path d="M128.355 17.3552L132.855 12.8552C133.05 12.6602 133.05 12.3452 132.855 12.1502C132.66 11.9552 132.345 11.9552 132.15 12.1502L128.005 16.2952L125.86 14.1502C125.665 13.9552 125.35 13.9552 125.155 14.1502C124.96 14.3452 124.96 14.6602 125.155 14.8552L127.655 17.3552C127.755 17.4552 127.88 17.5002 128.01 17.5002C128.14 17.5002 128.265 17.4502 128.365 17.3552H128.355Z" fill="#B6A6E9"/>
<path d="M121.545 13.49C121.585 13.5 121.625 13.5 121.66 13.5C121.92 13.5 122.155 13.32 122.21 13.055C122.31 12.58 122.46 12.115 122.66 11.67C122.785 11.385 122.66 11.055 122.375 10.925C122.09 10.795 121.76 10.925 121.63 11.21C121.4 11.725 121.225 12.265 121.105 12.82C121.04 13.125 121.235 13.425 121.54 13.485L121.545 13.49Z" fill="#B6A6E9"/>
<path d="M122.215 15.9499C122.15 15.6449 121.85 15.4499 121.55 15.5149C121.245 15.5799 121.05 15.8799 121.115 16.1799C121.23 16.7299 121.41 17.2749 121.64 17.7899C121.735 17.9999 121.94 18.1249 122.155 18.1249C122.23 18.1249 122.31 18.1099 122.385 18.0749C122.67 17.9499 122.795 17.6149 122.67 17.3299C122.47 16.8899 122.32 16.4249 122.22 15.9499H122.215Z" fill="#B6A6E9"/>
<path d="M123.99 9.48021C124.125 9.48021 124.26 9.43521 124.365 9.33521C124.725 9.01021 125.12 8.72521 125.545 8.48021C125.815 8.32521 125.905 7.98021 125.75 7.71021C125.595 7.44021 125.25 7.34521 124.98 7.50521C124.49 7.78521 124.03 8.12021 123.61 8.49521C123.38 8.70521 123.36 9.06021 123.57 9.29021C123.68 9.41521 123.835 9.47521 123.99 9.47521V9.48021Z" fill="#B6A6E9"/>
<path d="M125.55 20.5202C125.13 20.2802 124.73 19.9902 124.37 19.6652C124.14 19.4602 123.785 19.4752 123.575 19.7102C123.365 19.9402 123.385 20.2952 123.62 20.5052C124.04 20.8802 124.5 21.2152 124.99 21.4952C125.08 21.5452 125.175 21.5702 125.27 21.5702C125.465 21.5702 125.655 21.4702 125.76 21.2902C125.915 21.0202 125.82 20.6752 125.55 20.5202Z" fill="#B6A6E9"/>
</g>
<path d="M142.232 19V9.2H143.31V19H142.232ZM145.591 19V12.168H146.613V13.274C146.874 12.8633 147.187 12.56 147.551 12.364C147.915 12.1587 148.326 12.056 148.783 12.056C149.278 12.056 149.707 12.1633 150.071 12.378C150.444 12.5833 150.734 12.8773 150.939 13.26C151.154 13.6333 151.261 14.072 151.261 14.576V19H150.239V14.87C150.239 14.2633 150.071 13.7873 149.735 13.442C149.408 13.0873 148.965 12.91 148.405 12.91C148.032 12.91 147.691 12.9987 147.383 13.176C147.075 13.3533 146.818 13.6147 146.613 13.96V19H145.591ZM156.583 21.926V12.168H157.591V13.148C157.853 12.8027 158.17 12.5413 158.543 12.364C158.926 12.1773 159.346 12.084 159.803 12.084C160.401 12.084 160.933 12.2427 161.399 12.56C161.875 12.868 162.253 13.288 162.533 13.82C162.813 14.3427 162.953 14.9307 162.953 15.584C162.953 16.2373 162.809 16.83 162.519 17.362C162.239 17.894 161.857 18.3187 161.371 18.636C160.895 18.944 160.354 19.098 159.747 19.098C159.318 19.098 158.921 19.0187 158.557 18.86C158.193 18.692 157.876 18.454 157.605 18.146V21.926H156.583ZM159.551 18.216C160.009 18.216 160.415 18.104 160.769 17.88C161.133 17.6467 161.418 17.334 161.623 16.942C161.838 16.5407 161.945 16.0927 161.945 15.598C161.945 15.094 161.838 14.646 161.623 14.254C161.418 13.862 161.133 13.554 160.769 13.33C160.415 13.0967 160.009 12.98 159.551 12.98C159.15 12.98 158.777 13.064 158.431 13.232C158.095 13.3907 157.82 13.6193 157.605 13.918V17.264C157.829 17.5627 158.109 17.796 158.445 17.964C158.791 18.132 159.159 18.216 159.551 18.216ZM164.745 19V12.168H165.767V13.568C165.945 13.092 166.197 12.7233 166.523 12.462C166.859 12.1913 167.242 12.056 167.671 12.056C167.793 12.056 167.905 12.0653 168.007 12.084C168.11 12.0933 168.213 12.1167 168.315 12.154V13.078C168.203 13.0407 168.082 13.0127 167.951 12.994C167.83 12.966 167.713 12.952 167.601 12.952C167.181 12.952 166.813 13.0733 166.495 13.316C166.187 13.5587 165.945 13.8993 165.767 14.338V19H164.745ZM172.267 19.112C171.633 19.112 171.063 18.958 170.559 18.65C170.055 18.342 169.659 17.922 169.369 17.39C169.08 16.858 168.935 16.256 168.935 15.584C168.935 14.912 169.08 14.31 169.369 13.778C169.659 13.246 170.055 12.826 170.559 12.518C171.063 12.21 171.633 12.056 172.267 12.056C172.893 12.056 173.453 12.21 173.947 12.518C174.451 12.826 174.848 13.246 175.137 13.778C175.427 14.31 175.571 14.912 175.571 15.584C175.571 16.256 175.427 16.858 175.137 17.39C174.848 17.922 174.451 18.342 173.947 18.65C173.453 18.958 172.893 19.112 172.267 19.112ZM172.253 18.216C172.701 18.216 173.098 18.104 173.443 17.88C173.789 17.6467 174.059 17.3293 174.255 16.928C174.461 16.5267 174.563 16.0787 174.563 15.584C174.563 15.08 174.461 14.632 174.255 14.24C174.059 13.8387 173.789 13.526 173.443 13.302C173.098 13.0687 172.701 12.952 172.253 12.952C171.805 12.952 171.409 13.0687 171.063 13.302C170.718 13.526 170.443 13.8387 170.237 14.24C170.041 14.632 169.943 15.08 169.943 15.584C169.943 16.0787 170.041 16.5267 170.237 16.928C170.443 17.3293 170.718 17.6467 171.063 17.88C171.409 18.104 171.805 18.216 172.253 18.216ZM180.528 22.066C180.071 22.066 179.609 22.0007 179.142 21.87C178.685 21.7487 178.26 21.576 177.868 21.352L178.302 20.568C178.722 20.7827 179.105 20.9413 179.45 21.044C179.796 21.1467 180.141 21.198 180.486 21.198C181.112 21.198 181.583 21.0487 181.9 20.75C182.227 20.4513 182.39 20.0173 182.39 19.448V18.076C182.129 18.4027 181.812 18.6547 181.438 18.832C181.065 19 180.654 19.084 180.206 19.084C179.618 19.084 179.086 18.93 178.61 18.622C178.134 18.3047 177.756 17.8847 177.476 17.362C177.196 16.83 177.056 16.2373 177.056 15.584C177.056 14.9307 177.196 14.3427 177.476 13.82C177.766 13.288 178.153 12.868 178.638 12.56C179.124 12.2427 179.665 12.084 180.262 12.084C180.692 12.084 181.088 12.168 181.452 12.336C181.816 12.4947 182.134 12.7327 182.404 13.05V12.168H183.412V19.434C183.412 20.2833 183.165 20.932 182.67 21.38C182.176 21.8373 181.462 22.066 180.528 22.066ZM180.458 18.202C180.86 18.202 181.228 18.1227 181.564 17.964C181.9 17.796 182.176 17.5673 182.39 17.278V13.904C182.166 13.6147 181.882 13.3907 181.536 13.232C181.2 13.064 180.841 12.98 180.458 12.98C180.001 12.98 179.59 13.092 179.226 13.316C178.872 13.54 178.587 13.848 178.372 14.24C178.167 14.632 178.064 15.08 178.064 15.584C178.064 16.0787 178.167 16.5267 178.372 16.928C178.587 17.32 178.872 17.6327 179.226 17.866C179.59 18.09 180.001 18.202 180.458 18.202ZM185.513 19V12.168H186.535V13.568C186.712 13.092 186.964 12.7233 187.291 12.462C187.627 12.1913 188.01 12.056 188.439 12.056C188.56 12.056 188.672 12.0653 188.775 12.084C188.878 12.0933 188.98 12.1167 189.083 12.154V13.078C188.971 13.0407 188.85 13.0127 188.719 12.994C188.598 12.966 188.481 12.952 188.369 12.952C187.949 12.952 187.58 13.0733 187.263 13.316C186.955 13.5587 186.712 13.8993 186.535 14.338V19H185.513ZM193.091 19.14C192.456 19.14 191.882 18.986 191.369 18.678C190.856 18.3607 190.45 17.936 190.151 17.404C189.852 16.8627 189.703 16.256 189.703 15.584C189.703 14.912 189.843 14.31 190.123 13.778C190.412 13.246 190.8 12.826 191.285 12.518C191.77 12.21 192.312 12.056 192.909 12.056C193.516 12.056 194.052 12.21 194.519 12.518C194.995 12.8167 195.368 13.2273 195.639 13.75C195.919 14.2633 196.059 14.8467 196.059 15.5V15.808H190.697C190.734 16.2747 190.86 16.6947 191.075 17.068C191.299 17.432 191.588 17.7213 191.943 17.936C192.307 18.1413 192.704 18.244 193.133 18.244C193.488 18.244 193.828 18.1833 194.155 18.062C194.491 17.9313 194.776 17.7587 195.009 17.544L195.653 18.23C195.261 18.538 194.855 18.7667 194.435 18.916C194.015 19.0653 193.567 19.14 193.091 19.14ZM190.725 15.08H195.051C195.004 14.6693 194.878 14.3053 194.673 13.988C194.477 13.6613 194.225 13.4047 193.917 13.218C193.618 13.0313 193.282 12.938 192.909 12.938C192.536 12.938 192.195 13.0313 191.887 13.218C191.579 13.3953 191.322 13.6473 191.117 13.974C190.921 14.2913 190.79 14.66 190.725 15.08ZM199.986 19.14C199.426 19.14 198.908 19.056 198.432 18.888C197.956 18.7107 197.55 18.4587 197.214 18.132L197.76 17.46C198.171 17.7587 198.549 17.978 198.894 18.118C199.24 18.2487 199.594 18.314 199.958 18.314C200.453 18.314 200.864 18.1973 201.19 17.964C201.517 17.7307 201.68 17.432 201.68 17.068C201.68 16.788 201.582 16.5687 201.386 16.41C201.2 16.2513 200.887 16.13 200.448 16.046L199.328 15.85C198.666 15.7287 198.176 15.5233 197.858 15.234C197.55 14.9447 197.396 14.5527 197.396 14.058C197.396 13.666 197.499 13.3207 197.704 13.022C197.919 12.7233 198.213 12.49 198.586 12.322C198.96 12.1447 199.384 12.056 199.86 12.056C200.327 12.056 200.77 12.126 201.19 12.266C201.61 12.3967 202.035 12.6113 202.464 12.91L201.96 13.624C201.606 13.372 201.251 13.19 200.896 13.078C200.542 12.9567 200.182 12.896 199.818 12.896C199.37 12.896 199.011 12.994 198.74 13.19C198.47 13.386 198.334 13.652 198.334 13.988C198.334 14.268 198.418 14.4827 198.586 14.632C198.764 14.7813 199.072 14.8933 199.51 14.968L200.658 15.178C201.349 15.2993 201.853 15.5093 202.17 15.808C202.488 16.1067 202.646 16.508 202.646 17.012C202.646 17.4133 202.53 17.7773 202.296 18.104C202.063 18.4213 201.746 18.6733 201.344 18.86C200.943 19.0467 200.49 19.14 199.986 19.14ZM206.316 19.14C205.756 19.14 205.238 19.056 204.762 18.888C204.286 18.7107 203.88 18.4587 203.544 18.132L204.09 17.46C204.501 17.7587 204.879 17.978 205.224 18.118C205.57 18.2487 205.924 18.314 206.288 18.314C206.783 18.314 207.194 18.1973 207.52 17.964C207.847 17.7307 208.01 17.432 208.01 17.068C208.01 16.788 207.912 16.5687 207.716 16.41C207.53 16.2513 207.217 16.13 206.778 16.046L205.658 15.85C204.996 15.7287 204.506 15.5233 204.188 15.234C203.88 14.9447 203.726 14.5527 203.726 14.058C203.726 13.666 203.829 13.3207 204.034 13.022C204.249 12.7233 204.543 12.49 204.916 12.322C205.29 12.1447 205.714 12.056 206.19 12.056C206.657 12.056 207.1 12.126 207.52 12.266C207.94 12.3967 208.365 12.6113 208.794 12.91L208.29 13.624C207.936 13.372 207.581 13.19 207.226 13.078C206.872 12.9567 206.512 12.896 206.148 12.896C205.7 12.896 205.341 12.994 205.07 13.19C204.8 13.386 204.664 13.652 204.664 13.988C204.664 14.268 204.748 14.4827 204.916 14.632C205.094 14.7813 205.402 14.8933 205.84 14.968L206.988 15.178C207.679 15.2993 208.183 15.5093 208.5 15.808C208.818 16.1067 208.976 16.508 208.976 17.012C208.976 17.4133 208.86 17.7773 208.626 18.104C208.393 18.4213 208.076 18.6733 207.674 18.86C207.273 19.0467 206.82 19.14 206.316 19.14Z" fill="#ECE6FF"/>
<g filter="url(#filter1_d_4041_5603)">
<path d="M166 32V15L178 27H171L166 32Z" fill="#151515"/>
<path d="M179.207 27.5H171.207L165.5 33.207V13.793L179.207 27.5Z" stroke="white"/>
</g>
<rect x="0.5" y="0.5" width="104" height="28" rx="14" fill="#21134D"/>
<rect x="0.5" y="0.5" width="104" height="28" rx="14" stroke="#5E40BE"/>
<g clip-path="url(#clip7_4041_5603)">
<path d="M15.9999 6.5C15.7349 6.5 15.4649 6.515 15.1999 6.54C14.9249 6.565 14.7249 6.81 14.7499 7.085C14.7749 7.345 14.9949 7.535 15.2449 7.535C15.2599 7.535 15.2799 7.535 15.2949 7.535C15.5249 7.51 15.7599 7.5 15.9949 7.5C19.8549 7.5 22.9949 10.64 22.9949 14.5C22.9949 18.36 19.8549 21.5 15.9949 21.5C15.7649 21.5 15.5249 21.49 15.2949 21.465C15.0249 21.44 14.7749 21.64 14.7499 21.915C14.7249 22.19 14.9249 22.435 15.1999 22.46C15.4649 22.485 15.7349 22.5 15.9999 22.5C20.4099 22.5 23.9999 18.91 23.9999 14.5C23.9999 10.09 20.4099 6.5 15.9999 6.5Z" fill="#B6A6E9"/>
<path d="M15.355 17.3552L19.855 12.8552C20.05 12.6602 20.05 12.3452 19.855 12.1502C19.66 11.9552 19.345 11.9552 19.15 12.1502L15.005 16.2952L12.86 14.1502C12.665 13.9552 12.35 13.9552 12.155 14.1502C11.96 14.3452 11.96 14.6602 12.155 14.8552L14.655 17.3552C14.755 17.4552 14.88 17.5002 15.01 17.5002C15.14 17.5002 15.265 17.4502 15.365 17.3552H15.355Z" fill="#B6A6E9"/>
<path d="M8.54503 13.49C8.58503 13.5 8.62503 13.5 8.66003 13.5C8.92003 13.5 9.15503 13.32 9.21003 13.055C9.31003 12.58 9.46003 12.115 9.66003 11.67C9.78503 11.385 9.66003 11.055 9.37503 10.925C9.09003 10.795 8.76003 10.925 8.63003 11.21C8.40003 11.725 8.22503 12.265 8.10503 12.82C8.04003 13.125 8.23503 13.425 8.54003 13.485L8.54503 13.49Z" fill="#B6A6E9"/>
<path d="M9.21504 15.9499C9.15004 15.6449 8.85004 15.4499 8.55004 15.5149C8.24504 15.5799 8.05004 15.8799 8.11504 16.1799C8.23004 16.7299 8.41004 17.2749 8.64004 17.7899C8.73504 17.9999 8.94004 18.1249 9.15504 18.1249C9.23004 18.1249 9.31004 18.1099 9.38504 18.0749C9.67004 17.9499 9.79504 17.6149 9.67004 17.3299C9.47004 16.8899 9.32004 16.4249 9.22004 15.9499H9.21504Z" fill="#B6A6E9"/>
<path d="M10.9901 9.48021C11.1251 9.48021 11.2601 9.43521 11.3651 9.33521C11.7251 9.01021 12.1201 8.72521 12.5451 8.48021C12.8151 8.32521 12.9051 7.98021 12.7501 7.71021C12.5951 7.44021 12.2501 7.34521 11.9801 7.50521C11.4901 7.78521 11.0301 8.12021 10.6101 8.49521C10.3801 8.70521 10.3601 9.06021 10.5701 9.29021C10.6801 9.41521 10.8351 9.47521 10.9901 9.47521V9.48021Z" fill="#B6A6E9"/>
<path d="M12.55 20.5202C12.13 20.2802 11.73 19.9902 11.37 19.6652C11.14 19.4602 10.785 19.4752 10.575 19.7102C10.365 19.9402 10.385 20.2952 10.62 20.5052C11.04 20.8802 11.5 21.2152 11.99 21.4952C12.08 21.5452 12.175 21.5702 12.27 21.5702C12.465 21.5702 12.655 21.4702 12.76 21.2902C12.915 21.0202 12.82 20.6752 12.55 20.5202Z" fill="#B6A6E9"/>
</g>
<path d="M29.232 19V9.2H30.31V19H29.232ZM32.591 19V12.168H33.613V13.274C33.8743 12.8633 34.187 12.56 34.551 12.364C34.915 12.1587 35.3257 12.056 35.783 12.056C36.2777 12.056 36.707 12.1633 37.071 12.378C37.4443 12.5833 37.7337 12.8773 37.939 13.26C38.1537 13.6333 38.261 14.072 38.261 14.576V19H37.239V14.87C37.239 14.2633 37.071 13.7873 36.735 13.442C36.4083 13.0873 35.965 12.91 35.405 12.91C35.0317 12.91 34.691 12.9987 34.383 13.176C34.075 13.3533 33.8183 13.6147 33.613 13.96V19H32.591ZM43.5832 21.926V12.168H44.5912V13.148C44.8525 12.8027 45.1699 12.5413 45.5432 12.364C45.9259 12.1773 46.3459 12.084 46.8032 12.084C47.4005 12.084 47.9325 12.2427 48.3992 12.56C48.8752 12.868 49.2532 13.288 49.5332 13.82C49.8132 14.3427 49.9532 14.9307 49.9532 15.584C49.9532 16.2373 49.8085 16.83 49.5192 17.362C49.2392 17.894 48.8565 18.3187 48.3712 18.636C47.8952 18.944 47.3539 19.098 46.7472 19.098C46.3179 19.098 45.9212 19.0187 45.5572 18.86C45.1932 18.692 44.8759 18.454 44.6052 18.146V21.926H43.5832ZM46.5512 18.216C47.0085 18.216 47.4145 18.104 47.7692 17.88C48.1332 17.6467 48.4179 17.334 48.6232 16.942C48.8379 16.5407 48.9452 16.0927 48.9452 15.598C48.9452 15.094 48.8379 14.646 48.6232 14.254C48.4179 13.862 48.1332 13.554 47.7692 13.33C47.4145 13.0967 47.0085 12.98 46.5512 12.98C46.1499 12.98 45.7765 13.064 45.4312 13.232C45.0952 13.3907 44.8199 13.6193 44.6052 13.918V17.264C44.8292 17.5627 45.1092 17.796 45.4452 17.964C45.7905 18.132 46.1592 18.216 46.5512 18.216ZM51.7453 19V12.168H52.7673V13.568C52.9446 13.092 53.1966 12.7233 53.5233 12.462C53.8593 12.1913 54.242 12.056 54.6713 12.056C54.7926 12.056 54.9046 12.0653 55.0073 12.084C55.11 12.0933 55.2126 12.1167 55.3153 12.154V13.078C55.2033 13.0407 55.082 13.0127 54.9513 12.994C54.83 12.966 54.7133 12.952 54.6013 12.952C54.1813 12.952 53.8126 13.0733 53.4953 13.316C53.1873 13.5587 52.9446 13.8993 52.7673 14.338V19H51.7453ZM59.2674 19.112C58.6327 19.112 58.0634 18.958 57.5594 18.65C57.0554 18.342 56.6587 17.922 56.3694 17.39C56.08 16.858 55.9354 16.256 55.9354 15.584C55.9354 14.912 56.08 14.31 56.3694 13.778C56.6587 13.246 57.0554 12.826 57.5594 12.518C58.0634 12.21 58.6327 12.056 59.2674 12.056C59.8927 12.056 60.4527 12.21 60.9474 12.518C61.4514 12.826 61.848 13.246 62.1374 13.778C62.4267 14.31 62.5714 14.912 62.5714 15.584C62.5714 16.256 62.4267 16.858 62.1374 17.39C61.848 17.922 61.4514 18.342 60.9474 18.65C60.4527 18.958 59.8927 19.112 59.2674 19.112ZM59.2534 18.216C59.7014 18.216 60.098 18.104 60.4434 17.88C60.7887 17.6467 61.0594 17.3293 61.2554 16.928C61.4607 16.5267 61.5634 16.0787 61.5634 15.584C61.5634 15.08 61.4607 14.632 61.2554 14.24C61.0594 13.8387 60.7887 13.526 60.4434 13.302C60.098 13.0687 59.7014 12.952 59.2534 12.952C58.8054 12.952 58.4087 13.0687 58.0634 13.302C57.718 13.526 57.4427 13.8387 57.2374 14.24C57.0414 14.632 56.9434 15.08 56.9434 15.584C56.9434 16.0787 57.0414 16.5267 57.2374 16.928C57.4427 17.3293 57.718 17.6467 58.0634 17.88C58.4087 18.104 58.8054 18.216 59.2534 18.216ZM67.5285 22.066C67.0711 22.066 66.6091 22.0007 66.1425 21.87C65.6851 21.7487 65.2605 21.576 64.8685 21.352L65.3025 20.568C65.7225 20.7827 66.1051 20.9413 66.4505 21.044C66.7958 21.1467 67.1411 21.198 67.4865 21.198C68.1118 21.198 68.5831 21.0487 68.9005 20.75C69.2271 20.4513 69.3905 20.0173 69.3905 19.448V18.076C69.1291 18.4027 68.8118 18.6547 68.4385 18.832C68.0651 19 67.6545 19.084 67.2065 19.084C66.6185 19.084 66.0865 18.93 65.6105 18.622C65.1345 18.3047 64.7565 17.8847 64.4765 17.362C64.1965 16.83 64.0565 16.2373 64.0565 15.584C64.0565 14.9307 64.1965 14.3427 64.4765 13.82C64.7658 13.288 65.1531 12.868 65.6385 12.56C66.1238 12.2427 66.6651 12.084 67.2625 12.084C67.6918 12.084 68.0885 12.168 68.4525 12.336C68.8165 12.4947 69.1338 12.7327 69.4045 13.05V12.168H70.4125V19.434C70.4125 20.2833 70.1651 20.932 69.6705 21.38C69.1758 21.8373 68.4618 22.066 67.5285 22.066ZM67.4585 18.202C67.8598 18.202 68.2285 18.1227 68.5645 17.964C68.9005 17.796 69.1758 17.5673 69.3905 17.278V13.904C69.1665 13.6147 68.8818 13.3907 68.5365 13.232C68.2005 13.064 67.8411 12.98 67.4585 12.98C67.0011 12.98 66.5905 13.092 66.2265 13.316C65.8718 13.54 65.5871 13.848 65.3725 14.24C65.1671 14.632 65.0645 15.08 65.0645 15.584C65.0645 16.0787 65.1671 16.5267 65.3725 16.928C65.5871 17.32 65.8718 17.6327 66.2265 17.866C66.5905 18.09 67.0011 18.202 67.4585 18.202ZM72.5129 19V12.168H73.5349V13.568C73.7122 13.092 73.9642 12.7233 74.2909 12.462C74.6269 12.1913 75.0096 12.056 75.4389 12.056C75.5602 12.056 75.6722 12.0653 75.7749 12.084C75.8776 12.0933 75.9802 12.1167 76.0829 12.154V13.078C75.9709 13.0407 75.8496 13.0127 75.7189 12.994C75.5976 12.966 75.4809 12.952 75.3689 12.952C74.9489 12.952 74.5802 13.0733 74.2629 13.316C73.9549 13.5587 73.7122 13.8993 73.5349 14.338V19H72.5129ZM80.0909 19.14C79.4563 19.14 78.8823 18.986 78.3689 18.678C77.8556 18.3607 77.4496 17.936 77.1509 17.404C76.8523 16.8627 76.7029 16.256 76.7029 15.584C76.7029 14.912 76.8429 14.31 77.1229 13.778C77.4123 13.246 77.7996 12.826 78.2849 12.518C78.7703 12.21 79.3116 12.056 79.9089 12.056C80.5156 12.056 81.0523 12.21 81.5189 12.518C81.9949 12.8167 82.3683 13.2273 82.6389 13.75C82.9189 14.2633 83.0589 14.8467 83.0589 15.5V15.808H77.6969C77.7343 16.2747 77.8603 16.6947 78.0749 17.068C78.2989 17.432 78.5883 17.7213 78.9429 17.936C79.3069 18.1413 79.7036 18.244 80.1329 18.244C80.4876 18.244 80.8283 18.1833 81.1549 18.062C81.4909 17.9313 81.7756 17.7587 82.0089 17.544L82.6529 18.23C82.2609 18.538 81.8549 18.7667 81.4349 18.916C81.0149 19.0653 80.5669 19.14 80.0909 19.14ZM77.7249 15.08H82.0509C82.0043 14.6693 81.8783 14.3053 81.6729 13.988C81.4769 13.6613 81.2249 13.4047 80.9169 13.218C80.6183 13.0313 80.2823 12.938 79.9089 12.938C79.5356 12.938 79.1949 13.0313 78.8869 13.218C78.5789 13.3953 78.3223 13.6473 78.1169 13.974C77.9209 14.2913 77.7903 14.66 77.7249 15.08ZM86.9863 19.14C86.4263 19.14 85.9083 19.056 85.4323 18.888C84.9563 18.7107 84.5503 18.4587 84.2143 18.132L84.7603 17.46C85.1709 17.7587 85.5489 17.978 85.8943 18.118C86.2396 18.2487 86.5943 18.314 86.9583 18.314C87.4529 18.314 87.8636 18.1973 88.1903 17.964C88.5169 17.7307 88.6803 17.432 88.6803 17.068C88.6803 16.788 88.5823 16.5687 88.3863 16.41C88.1996 16.2513 87.8869 16.13 87.4483 16.046L86.3283 15.85C85.6656 15.7287 85.1756 15.5233 84.8583 15.234C84.5503 14.9447 84.3963 14.5527 84.3963 14.058C84.3963 13.666 84.4989 13.3207 84.7043 13.022C84.9189 12.7233 85.2129 12.49 85.5863 12.322C85.9596 12.1447 86.3843 12.056 86.8603 12.056C87.3269 12.056 87.7703 12.126 88.1903 12.266C88.6103 12.3967 89.0349 12.6113 89.4643 12.91L88.9603 13.624C88.6056 13.372 88.2509 13.19 87.8963 13.078C87.5416 12.9567 87.1823 12.896 86.8183 12.896C86.3703 12.896 86.0109 12.994 85.7403 13.19C85.4696 13.386 85.3343 13.652 85.3343 13.988C85.3343 14.268 85.4183 14.4827 85.5863 14.632C85.7636 14.7813 86.0716 14.8933 86.5103 14.968L87.6583 15.178C88.3489 15.2993 88.8529 15.5093 89.1703 15.808C89.4876 16.1067 89.6463 16.508 89.6463 17.012C89.6463 17.4133 89.5296 17.7773 89.2963 18.104C89.0629 18.4213 88.7456 18.6733 88.3443 18.86C87.9429 19.0467 87.4903 19.14 86.9863 19.14ZM93.3163 19.14C92.7563 19.14 92.2383 19.056 91.7623 18.888C91.2863 18.7107 90.8803 18.4587 90.5443 18.132L91.0903 17.46C91.501 17.7587 91.879 17.978 92.2243 18.118C92.5697 18.2487 92.9243 18.314 93.2883 18.314C93.783 18.314 94.1937 18.1973 94.5203 17.964C94.847 17.7307 95.0103 17.432 95.0103 17.068C95.0103 16.788 94.9123 16.5687 94.7163 16.41C94.5297 16.2513 94.217 16.13 93.7783 16.046L92.6583 15.85C91.9957 15.7287 91.5057 15.5233 91.1883 15.234C90.8803 14.9447 90.7263 14.5527 90.7263 14.058C90.7263 13.666 90.829 13.3207 91.0343 13.022C91.249 12.7233 91.543 12.49 91.9163 12.322C92.2897 12.1447 92.7143 12.056 93.1903 12.056C93.657 12.056 94.1003 12.126 94.5203 12.266C94.9403 12.3967 95.365 12.6113 95.7943 12.91L95.2903 13.624C94.9357 13.372 94.581 13.19 94.2263 13.078C93.8717 12.9567 93.5123 12.896 93.1483 12.896C92.7003 12.896 92.341 12.994 92.0703 13.19C91.7997 13.386 91.6643 13.652 91.6643 13.988C91.6643 14.268 91.7483 14.4827 91.9163 14.632C92.0937 14.7813 92.4017 14.8933 92.8403 14.968L93.9883 15.178C94.679 15.2993 95.183 15.5093 95.5003 15.808C95.8177 16.1067 95.9763 16.508 95.9763 17.012C95.9763 17.4133 95.8597 17.7773 95.6263 18.104C95.393 18.4213 95.0757 18.6733 94.6743 18.86C94.273 19.0467 93.8203 19.14 93.3163 19.14Z" fill="#ECE6FF"/>
<line x1="28" y1="23.5" x2="97" y2="23.5" stroke="#ECE6FF" stroke-dasharray="3 2"/>
<defs>
<filter id="filter0_d_4041_5603" x="396" y="10.5859" width="23.4143" height="29.8281" filterUnits="userSpaceOnUse" color-interpolation-filters="sRGB">
<feFlood flood-opacity="0" result="BackgroundImageFix"/>
<feColorMatrix in="SourceAlpha" type="matrix" values="0 0 0 0 0 0 0 0 0 0 0 0 0 0 0 0 0 0 127 0" result="hardAlpha"/>
<feOffset dy="2"/>
<feGaussianBlur stdDeviation="2"/>
<feComposite in2="hardAlpha" operator="out"/>
<feColorMatrix type="matrix" values="0 0 0 0 0.0823529 0 0 0 0 0.0823529 0 0 0 0 0.0823529 0 0 0 0.2 0"/>
<feBlend mode="normal" in2="BackgroundImageFix" result="effect1_dropShadow_4041_5603"/>
<feBlend mode="normal" in="SourceGraphic" in2="effect1_dropShadow_4041_5603" result="shape"/>
</filter>
<filter id="filter1_d_4041_5603" x="161" y="10.5859" width="23.4143" height="29.8281" filterUnits="userSpaceOnUse" color-interpolation-filters="sRGB">
<feFlood flood-opacity="0" result="BackgroundImageFix"/>
<feColorMatrix in="SourceAlpha" type="matrix" values="0 0 0 0 0 0 0 0 0 0 0 0 0 0 0 0 0 0 127 0" result="hardAlpha"/>
<feOffset dy="2"/>
<feGaussianBlur stdDeviation="2"/>
<feComposite in2="hardAlpha" operator="out"/>
<feColorMatrix type="matrix" values="0 0 0 0 0.0823529 0 0 0 0 0.0823529 0 0 0 0 0.0823529 0 0 0 0.2 0"/>
<feBlend mode="normal" in2="BackgroundImageFix" result="effect1_dropShadow_4041_5603"/>
<feBlend mode="normal" in="SourceGraphic" in2="effect1_dropShadow_4041_5603" result="shape"/>
</filter>
<clipPath id="clip0_4041_5603">
<rect width="12" height="12" fill="white" transform="translate(363 104)"/>
</clipPath>
<clipPath id="clip1_4041_5603">
<rect width="12" height="12" fill="white" transform="translate(260 104)"/>
</clipPath>
<clipPath id="clip2_4041_5603">
<rect width="16" height="16" fill="white" transform="translate(121 102.5)"/>
</clipPath>
<clipPath id="clip3_4041_5603">
<rect width="16" height="16" fill="white" transform="translate(8 102.5)"/>
</clipPath>
<clipPath id="clip4_4041_5603">
<rect width="12" height="12" fill="white" transform="translate(363 8)"/>
</clipPath>
<clipPath id="clip5_4041_5603">
<rect width="12" height="12" fill="white" transform="translate(260 8)"/>
</clipPath>
<clipPath id="clip6_4041_5603">
<rect width="16" height="16" fill="white" transform="translate(121 6.5)"/>
</clipPath>
<clipPath id="clip7_4041_5603">
<rect width="16" height="16" fill="white" transform="translate(8 6.5)"/>
</clipPath>
</defs>
</svg>
