<svg width="954" height="29" viewBox="0 0 954 29" fill="none" xmlns="http://www.w3.org/2000/svg">
<rect x="866" y="7" width="83" height="14" rx="7" fill="#151515"/>
<rect x="866" y="7" width="83" height="14" rx="7" stroke="#707070" stroke-width="2"/>
<g clip-path="url(#clip0_4041_6216)">
<path d="M879.125 8.375H875.938C875.626 8.375 875.375 8.62625 875.375 8.9375V12.125C875.375 12.3312 875.544 12.5 875.75 12.5C875.956 12.5 876.125 12.3312 876.125 12.125V9.125H879.125C879.331 9.125 879.5 8.95625 879.5 8.75C879.5 8.54375 879.331 8.375 879.125 8.375Z" fill="#D0C5F4"/>
<path d="M879.125 18.875H876.125V15.875C876.125 15.6687 875.956 15.5 875.75 15.5C875.544 15.5 875.375 15.6687 875.375 15.875V19.0625C875.375 19.3737 875.626 19.625 875.938 19.625H879.125C879.331 19.625 879.5 19.4562 879.5 19.25C879.5 19.0438 879.331 18.875 879.125 18.875Z" fill="#D0C5F4"/>
<path d="M886.25 15.5C886.044 15.5 885.875 15.6687 885.875 15.875V18.875H882.875C882.669 18.875 882.5 19.0438 882.5 19.25C882.5 19.4562 882.669 19.625 882.875 19.625H886.062C886.374 19.625 886.625 19.3737 886.625 19.0625V15.875C886.625 15.6687 886.456 15.5 886.25 15.5Z" fill="#D0C5F4"/>
<path d="M886.062 8.375H882.875C882.669 8.375 882.5 8.54375 882.5 8.75C882.5 8.95625 882.669 9.125 882.875 9.125H885.875V12.125C885.875 12.3312 886.044 12.5 886.25 12.5C886.456 12.5 886.625 12.3312 886.625 12.125V8.9375C886.625 8.62625 886.374 8.375 886.062 8.375Z" fill="#D0C5F4"/>
</g>
<path d="M893.88 17.5V10.5H894.65V17.5H893.88ZM896.279 17.5V12.62H897.009V13.41C897.196 13.1167 897.419 12.9 897.679 12.76C897.939 12.6133 898.233 12.54 898.559 12.54C898.913 12.54 899.219 12.6167 899.479 12.77C899.746 12.9167 899.953 13.1267 900.099 13.4C900.253 13.6667 900.329 13.98 900.329 14.34V17.5H899.599V14.55C899.599 14.1167 899.479 13.7767 899.239 13.53C899.006 13.2767 898.689 13.15 898.289 13.15C898.023 13.15 897.779 13.2133 897.559 13.34C897.339 13.4667 897.156 13.6533 897.009 13.9V17.5H896.279ZM904.131 19.59V12.62H904.851V13.32C905.038 13.0733 905.264 12.8867 905.531 12.76C905.804 12.6267 906.104 12.56 906.431 12.56C906.858 12.56 907.238 12.6733 907.571 12.9C907.911 13.12 908.181 13.42 908.381 13.8C908.581 14.1733 908.681 14.5933 908.681 15.06C908.681 15.5267 908.578 15.95 908.371 16.33C908.171 16.71 907.898 17.0133 907.551 17.24C907.211 17.46 906.824 17.57 906.391 17.57C906.084 17.57 905.801 17.5133 905.541 17.4C905.281 17.28 905.054 17.11 904.861 16.89V19.59H904.131ZM906.251 16.94C906.578 16.94 906.868 16.86 907.121 16.7C907.381 16.5333 907.584 16.31 907.731 16.03C907.884 15.7433 907.961 15.4233 907.961 15.07C907.961 14.71 907.884 14.39 907.731 14.11C907.584 13.83 907.381 13.61 907.121 13.45C906.868 13.2833 906.578 13.2 906.251 13.2C905.964 13.2 905.698 13.26 905.451 13.38C905.211 13.4933 905.014 13.6567 904.861 13.87V16.26C905.021 16.4733 905.221 16.64 905.461 16.76C905.708 16.88 905.971 16.94 906.251 16.94ZM909.961 17.5V12.62H910.691V13.62C910.818 13.28 910.998 13.0167 911.231 12.83C911.471 12.6367 911.744 12.54 912.051 12.54C912.138 12.54 912.218 12.5467 912.291 12.56C912.364 12.5667 912.438 12.5833 912.511 12.61V13.27C912.431 13.2433 912.344 13.2233 912.251 13.21C912.164 13.19 912.081 13.18 912.001 13.18C911.701 13.18 911.438 13.2667 911.211 13.44C910.991 13.6133 910.818 13.8567 910.691 14.17V17.5H909.961ZM915.334 17.58C914.88 17.58 914.474 17.47 914.114 17.25C913.754 17.03 913.47 16.73 913.264 16.35C913.057 15.97 912.954 15.54 912.954 15.06C912.954 14.58 913.057 14.15 913.264 13.77C913.47 13.39 913.754 13.09 914.114 12.87C914.474 12.65 914.88 12.54 915.334 12.54C915.78 12.54 916.18 12.65 916.534 12.87C916.894 13.09 917.177 13.39 917.384 13.77C917.59 14.15 917.694 14.58 917.694 15.06C917.694 15.54 917.59 15.97 917.384 16.35C917.177 16.73 916.894 17.03 916.534 17.25C916.18 17.47 915.78 17.58 915.334 17.58ZM915.324 16.94C915.644 16.94 915.927 16.86 916.174 16.7C916.42 16.5333 916.614 16.3067 916.754 16.02C916.9 15.7333 916.974 15.4133 916.974 15.06C916.974 14.7 916.9 14.38 916.754 14.1C916.614 13.8133 916.42 13.59 916.174 13.43C915.927 13.2633 915.644 13.18 915.324 13.18C915.004 13.18 914.72 13.2633 914.474 13.43C914.227 13.59 914.03 13.8133 913.884 14.1C913.744 14.38 913.674 14.7 913.674 15.06C913.674 15.4133 913.744 15.7333 913.884 16.02C914.03 16.3067 914.227 16.5333 914.474 16.7C914.72 16.86 915.004 16.94 915.324 16.94ZM921.235 19.69C920.908 19.69 920.578 19.6433 920.245 19.55C919.918 19.4633 919.615 19.34 919.335 19.18L919.645 18.62C919.945 18.7733 920.218 18.8867 920.465 18.96C920.711 19.0333 920.958 19.07 921.205 19.07C921.651 19.07 921.988 18.9633 922.215 18.75C922.448 18.5367 922.565 18.2267 922.565 17.82V16.84C922.378 17.0733 922.151 17.2533 921.885 17.38C921.618 17.5 921.325 17.56 921.005 17.56C920.585 17.56 920.205 17.45 919.865 17.23C919.525 17.0033 919.255 16.7033 919.055 16.33C918.855 15.95 918.755 15.5267 918.755 15.06C918.755 14.5933 918.855 14.1733 919.055 13.8C919.261 13.42 919.538 13.12 919.885 12.9C920.231 12.6733 920.618 12.56 921.045 12.56C921.351 12.56 921.635 12.62 921.895 12.74C922.155 12.8533 922.381 13.0233 922.575 13.25V12.62H923.295V17.81C923.295 18.4167 923.118 18.88 922.765 19.2C922.411 19.5267 921.901 19.69 921.235 19.69ZM921.185 16.93C921.471 16.93 921.735 16.8733 921.975 16.76C922.215 16.64 922.411 16.4767 922.565 16.27V13.86C922.405 13.6533 922.201 13.4933 921.955 13.38C921.715 13.26 921.458 13.2 921.185 13.2C920.858 13.2 920.565 13.28 920.305 13.44C920.051 13.6 919.848 13.82 919.695 14.1C919.548 14.38 919.475 14.7 919.475 15.06C919.475 15.4133 919.548 15.7333 919.695 16.02C919.848 16.3 920.051 16.5233 920.305 16.69C920.565 16.85 920.858 16.93 921.185 16.93ZM924.795 17.5V12.62H925.525V13.62C925.652 13.28 925.832 13.0167 926.065 12.83C926.305 12.6367 926.578 12.54 926.885 12.54C926.972 12.54 927.052 12.5467 927.125 12.56C927.198 12.5667 927.272 12.5833 927.345 12.61V13.27C927.265 13.2433 927.178 13.2233 927.085 13.21C926.998 13.19 926.915 13.18 926.835 13.18C926.535 13.18 926.272 13.2667 926.045 13.44C925.825 13.6133 925.652 13.8567 925.525 14.17V17.5H924.795ZM930.208 17.6C929.754 17.6 929.344 17.49 928.978 17.27C928.611 17.0433 928.321 16.74 928.108 16.36C927.894 15.9733 927.788 15.54 927.788 15.06C927.788 14.58 927.888 14.15 928.088 13.77C928.294 13.39 928.571 13.09 928.918 12.87C929.264 12.65 929.651 12.54 930.078 12.54C930.511 12.54 930.894 12.65 931.228 12.87C931.568 13.0833 931.834 13.3767 932.028 13.75C932.228 14.1167 932.328 14.5333 932.328 15V15.22H928.498C928.524 15.5533 928.614 15.8533 928.768 16.12C928.928 16.38 929.134 16.5867 929.388 16.74C929.648 16.8867 929.931 16.96 930.238 16.96C930.491 16.96 930.734 16.9167 930.968 16.83C931.208 16.7367 931.411 16.6133 931.578 16.46L932.038 16.95C931.758 17.17 931.468 17.3333 931.168 17.44C930.868 17.5467 930.548 17.6 930.208 17.6ZM928.518 14.7H931.608C931.574 14.4067 931.484 14.1467 931.338 13.92C931.198 13.6867 931.018 13.5033 930.798 13.37C930.584 13.2367 930.344 13.17 930.078 13.17C929.811 13.17 929.568 13.2367 929.348 13.37C929.128 13.4967 928.944 13.6767 928.798 13.91C928.658 14.1367 928.564 14.4 928.518 14.7ZM935.133 17.6C934.733 17.6 934.363 17.54 934.023 17.42C933.683 17.2933 933.393 17.1133 933.153 16.88L933.543 16.4C933.836 16.6133 934.106 16.77 934.353 16.87C934.6 16.9633 934.853 17.01 935.113 17.01C935.466 17.01 935.76 16.9267 935.993 16.76C936.226 16.5933 936.343 16.38 936.343 16.12C936.343 15.92 936.273 15.7633 936.133 15.65C936 15.5367 935.776 15.45 935.463 15.39L934.663 15.25C934.19 15.1633 933.84 15.0167 933.613 14.81C933.393 14.6033 933.283 14.3233 933.283 13.97C933.283 13.69 933.356 13.4433 933.503 13.23C933.656 13.0167 933.866 12.85 934.133 12.73C934.4 12.6033 934.703 12.54 935.043 12.54C935.376 12.54 935.693 12.59 935.993 12.69C936.293 12.7833 936.596 12.9367 936.903 13.15L936.543 13.66C936.29 13.48 936.036 13.35 935.783 13.27C935.53 13.1833 935.273 13.14 935.013 13.14C934.693 13.14 934.436 13.21 934.243 13.35C934.05 13.49 933.953 13.68 933.953 13.92C933.953 14.12 934.013 14.2733 934.133 14.38C934.26 14.4867 934.48 14.5667 934.793 14.62L935.613 14.77C936.106 14.8567 936.466 15.0067 936.693 15.22C936.92 15.4333 937.033 15.72 937.033 16.08C937.033 16.3667 936.95 16.6267 936.783 16.86C936.616 17.0867 936.39 17.2667 936.103 17.4C935.816 17.5333 935.493 17.6 935.133 17.6ZM939.655 17.6C939.255 17.6 938.885 17.54 938.545 17.42C938.205 17.2933 937.915 17.1133 937.675 16.88L938.065 16.4C938.358 16.6133 938.628 16.77 938.875 16.87C939.121 16.9633 939.375 17.01 939.635 17.01C939.988 17.01 940.281 16.9267 940.515 16.76C940.748 16.5933 940.865 16.38 940.865 16.12C940.865 15.92 940.795 15.7633 940.655 15.65C940.521 15.5367 940.298 15.45 939.985 15.39L939.185 15.25C938.711 15.1633 938.361 15.0167 938.135 14.81C937.915 14.6033 937.805 14.3233 937.805 13.97C937.805 13.69 937.878 13.4433 938.025 13.23C938.178 13.0167 938.388 12.85 938.655 12.73C938.921 12.6033 939.225 12.54 939.565 12.54C939.898 12.54 940.215 12.59 940.515 12.69C940.815 12.7833 941.118 12.9367 941.425 13.15L941.065 13.66C940.811 13.48 940.558 13.35 940.305 13.27C940.051 13.1833 939.795 13.14 939.535 13.14C939.215 13.14 938.958 13.21 938.765 13.35C938.571 13.49 938.475 13.68 938.475 13.92C938.475 14.12 938.535 14.2733 938.655 14.38C938.781 14.4867 939.001 14.5667 939.315 14.62L940.135 14.77C940.628 14.8567 940.988 15.0067 941.215 15.22C941.441 15.4333 941.555 15.72 941.555 16.08C941.555 16.3667 941.471 16.6267 941.305 16.86C941.138 17.0867 940.911 17.2667 940.625 17.4C940.338 17.5333 940.015 17.6 939.655 17.6Z" fill="#B6A6E9"/>
<rect x="874" y="5" width="79" height="20" rx="3" stroke="#92C5F9" stroke-width="2"/>
<rect x="762.5" y="6.5" width="84" height="15" rx="7.5" fill="#151515"/>
<rect x="762.5" y="6.5" width="84" height="15" rx="7.5" stroke="#707070"/>
<g clip-path="url(#clip1_4041_6216)">
<path d="M776.125 8.375H772.938C772.626 8.375 772.375 8.62625 772.375 8.9375V12.125C772.375 12.3312 772.544 12.5 772.75 12.5C772.956 12.5 773.125 12.3312 773.125 12.125V9.125H776.125C776.331 9.125 776.5 8.95625 776.5 8.75C776.5 8.54375 776.331 8.375 776.125 8.375Z" fill="#D0C5F4"/>
<path d="M776.125 18.875H773.125V15.875C773.125 15.6687 772.956 15.5 772.75 15.5C772.544 15.5 772.375 15.6687 772.375 15.875V19.0625C772.375 19.3737 772.626 19.625 772.938 19.625H776.125C776.331 19.625 776.5 19.4562 776.5 19.25C776.5 19.0438 776.331 18.875 776.125 18.875Z" fill="#D0C5F4"/>
<path d="M783.25 15.5C783.044 15.5 782.875 15.6687 782.875 15.875V18.875H779.875C779.669 18.875 779.5 19.0438 779.5 19.25C779.5 19.4562 779.669 19.625 779.875 19.625H783.062C783.374 19.625 783.625 19.3737 783.625 19.0625V15.875C783.625 15.6687 783.456 15.5 783.25 15.5Z" fill="#D0C5F4"/>
<path d="M783.062 8.375H779.875C779.669 8.375 779.5 8.54375 779.5 8.75C779.5 8.95625 779.669 9.125 779.875 9.125H782.875V12.125C782.875 12.3312 783.044 12.5 783.25 12.5C783.456 12.5 783.625 12.3312 783.625 12.125V8.9375C783.625 8.62625 783.374 8.375 783.062 8.375Z" fill="#D0C5F4"/>
</g>
<path d="M790.88 17.5V10.5H791.65V17.5H790.88ZM793.279 17.5V12.62H794.009V13.41C794.196 13.1167 794.419 12.9 794.679 12.76C794.939 12.6133 795.233 12.54 795.559 12.54C795.913 12.54 796.219 12.6167 796.479 12.77C796.746 12.9167 796.953 13.1267 797.099 13.4C797.253 13.6667 797.329 13.98 797.329 14.34V17.5H796.599V14.55C796.599 14.1167 796.479 13.7767 796.239 13.53C796.006 13.2767 795.689 13.15 795.289 13.15C795.023 13.15 794.779 13.2133 794.559 13.34C794.339 13.4667 794.156 13.6533 794.009 13.9V17.5H793.279ZM801.131 19.59V12.62H801.851V13.32C802.038 13.0733 802.264 12.8867 802.531 12.76C802.804 12.6267 803.104 12.56 803.431 12.56C803.858 12.56 804.238 12.6733 804.571 12.9C804.911 13.12 805.181 13.42 805.381 13.8C805.581 14.1733 805.681 14.5933 805.681 15.06C805.681 15.5267 805.578 15.95 805.371 16.33C805.171 16.71 804.898 17.0133 804.551 17.24C804.211 17.46 803.824 17.57 803.391 17.57C803.084 17.57 802.801 17.5133 802.541 17.4C802.281 17.28 802.054 17.11 801.861 16.89V19.59H801.131ZM803.251 16.94C803.578 16.94 803.868 16.86 804.121 16.7C804.381 16.5333 804.584 16.31 804.731 16.03C804.884 15.7433 804.961 15.4233 804.961 15.07C804.961 14.71 804.884 14.39 804.731 14.11C804.584 13.83 804.381 13.61 804.121 13.45C803.868 13.2833 803.578 13.2 803.251 13.2C802.964 13.2 802.698 13.26 802.451 13.38C802.211 13.4933 802.014 13.6567 801.861 13.87V16.26C802.021 16.4733 802.221 16.64 802.461 16.76C802.708 16.88 802.971 16.94 803.251 16.94ZM806.961 17.5V12.62H807.691V13.62C807.818 13.28 807.998 13.0167 808.231 12.83C808.471 12.6367 808.744 12.54 809.051 12.54C809.138 12.54 809.218 12.5467 809.291 12.56C809.364 12.5667 809.438 12.5833 809.511 12.61V13.27C809.431 13.2433 809.344 13.2233 809.251 13.21C809.164 13.19 809.081 13.18 809.001 13.18C808.701 13.18 808.438 13.2667 808.211 13.44C807.991 13.6133 807.818 13.8567 807.691 14.17V17.5H806.961ZM812.334 17.58C811.88 17.58 811.474 17.47 811.114 17.25C810.754 17.03 810.47 16.73 810.264 16.35C810.057 15.97 809.954 15.54 809.954 15.06C809.954 14.58 810.057 14.15 810.264 13.77C810.47 13.39 810.754 13.09 811.114 12.87C811.474 12.65 811.88 12.54 812.334 12.54C812.78 12.54 813.18 12.65 813.534 12.87C813.894 13.09 814.177 13.39 814.384 13.77C814.59 14.15 814.694 14.58 814.694 15.06C814.694 15.54 814.59 15.97 814.384 16.35C814.177 16.73 813.894 17.03 813.534 17.25C813.18 17.47 812.78 17.58 812.334 17.58ZM812.324 16.94C812.644 16.94 812.927 16.86 813.174 16.7C813.42 16.5333 813.614 16.3067 813.754 16.02C813.9 15.7333 813.974 15.4133 813.974 15.06C813.974 14.7 813.9 14.38 813.754 14.1C813.614 13.8133 813.42 13.59 813.174 13.43C812.927 13.2633 812.644 13.18 812.324 13.18C812.004 13.18 811.72 13.2633 811.474 13.43C811.227 13.59 811.03 13.8133 810.884 14.1C810.744 14.38 810.674 14.7 810.674 15.06C810.674 15.4133 810.744 15.7333 810.884 16.02C811.03 16.3067 811.227 16.5333 811.474 16.7C811.72 16.86 812.004 16.94 812.324 16.94ZM818.235 19.69C817.908 19.69 817.578 19.6433 817.245 19.55C816.918 19.4633 816.615 19.34 816.335 19.18L816.645 18.62C816.945 18.7733 817.218 18.8867 817.465 18.96C817.711 19.0333 817.958 19.07 818.205 19.07C818.651 19.07 818.988 18.9633 819.215 18.75C819.448 18.5367 819.565 18.2267 819.565 17.82V16.84C819.378 17.0733 819.151 17.2533 818.885 17.38C818.618 17.5 818.325 17.56 818.005 17.56C817.585 17.56 817.205 17.45 816.865 17.23C816.525 17.0033 816.255 16.7033 816.055 16.33C815.855 15.95 815.755 15.5267 815.755 15.06C815.755 14.5933 815.855 14.1733 816.055 13.8C816.261 13.42 816.538 13.12 816.885 12.9C817.231 12.6733 817.618 12.56 818.045 12.56C818.351 12.56 818.635 12.62 818.895 12.74C819.155 12.8533 819.381 13.0233 819.575 13.25V12.62H820.295V17.81C820.295 18.4167 820.118 18.88 819.765 19.2C819.411 19.5267 818.901 19.69 818.235 19.69ZM818.185 16.93C818.471 16.93 818.735 16.8733 818.975 16.76C819.215 16.64 819.411 16.4767 819.565 16.27V13.86C819.405 13.6533 819.201 13.4933 818.955 13.38C818.715 13.26 818.458 13.2 818.185 13.2C817.858 13.2 817.565 13.28 817.305 13.44C817.051 13.6 816.848 13.82 816.695 14.1C816.548 14.38 816.475 14.7 816.475 15.06C816.475 15.4133 816.548 15.7333 816.695 16.02C816.848 16.3 817.051 16.5233 817.305 16.69C817.565 16.85 817.858 16.93 818.185 16.93ZM821.795 17.5V12.62H822.525V13.62C822.652 13.28 822.832 13.0167 823.065 12.83C823.305 12.6367 823.578 12.54 823.885 12.54C823.972 12.54 824.052 12.5467 824.125 12.56C824.198 12.5667 824.272 12.5833 824.345 12.61V13.27C824.265 13.2433 824.178 13.2233 824.085 13.21C823.998 13.19 823.915 13.18 823.835 13.18C823.535 13.18 823.272 13.2667 823.045 13.44C822.825 13.6133 822.652 13.8567 822.525 14.17V17.5H821.795ZM827.208 17.6C826.754 17.6 826.344 17.49 825.978 17.27C825.611 17.0433 825.321 16.74 825.108 16.36C824.894 15.9733 824.788 15.54 824.788 15.06C824.788 14.58 824.888 14.15 825.088 13.77C825.294 13.39 825.571 13.09 825.918 12.87C826.264 12.65 826.651 12.54 827.078 12.54C827.511 12.54 827.894 12.65 828.228 12.87C828.568 13.0833 828.834 13.3767 829.028 13.75C829.228 14.1167 829.328 14.5333 829.328 15V15.22H825.498C825.524 15.5533 825.614 15.8533 825.768 16.12C825.928 16.38 826.134 16.5867 826.388 16.74C826.648 16.8867 826.931 16.96 827.238 16.96C827.491 16.96 827.734 16.9167 827.968 16.83C828.208 16.7367 828.411 16.6133 828.578 16.46L829.038 16.95C828.758 17.17 828.468 17.3333 828.168 17.44C827.868 17.5467 827.548 17.6 827.208 17.6ZM825.518 14.7H828.608C828.574 14.4067 828.484 14.1467 828.338 13.92C828.198 13.6867 828.018 13.5033 827.798 13.37C827.584 13.2367 827.344 13.17 827.078 13.17C826.811 13.17 826.568 13.2367 826.348 13.37C826.128 13.4967 825.944 13.6767 825.798 13.91C825.658 14.1367 825.564 14.4 825.518 14.7ZM832.133 17.6C831.733 17.6 831.363 17.54 831.023 17.42C830.683 17.2933 830.393 17.1133 830.153 16.88L830.543 16.4C830.836 16.6133 831.106 16.77 831.353 16.87C831.6 16.9633 831.853 17.01 832.113 17.01C832.466 17.01 832.76 16.9267 832.993 16.76C833.226 16.5933 833.343 16.38 833.343 16.12C833.343 15.92 833.273 15.7633 833.133 15.65C833 15.5367 832.776 15.45 832.463 15.39L831.663 15.25C831.19 15.1633 830.84 15.0167 830.613 14.81C830.393 14.6033 830.283 14.3233 830.283 13.97C830.283 13.69 830.356 13.4433 830.503 13.23C830.656 13.0167 830.866 12.85 831.133 12.73C831.4 12.6033 831.703 12.54 832.043 12.54C832.376 12.54 832.693 12.59 832.993 12.69C833.293 12.7833 833.596 12.9367 833.903 13.15L833.543 13.66C833.29 13.48 833.036 13.35 832.783 13.27C832.53 13.1833 832.273 13.14 832.013 13.14C831.693 13.14 831.436 13.21 831.243 13.35C831.05 13.49 830.953 13.68 830.953 13.92C830.953 14.12 831.013 14.2733 831.133 14.38C831.26 14.4867 831.48 14.5667 831.793 14.62L832.613 14.77C833.106 14.8567 833.466 15.0067 833.693 15.22C833.92 15.4333 834.033 15.72 834.033 16.08C834.033 16.3667 833.95 16.6267 833.783 16.86C833.616 17.0867 833.39 17.2667 833.103 17.4C832.816 17.5333 832.493 17.6 832.133 17.6ZM836.655 17.6C836.255 17.6 835.885 17.54 835.545 17.42C835.205 17.2933 834.915 17.1133 834.675 16.88L835.065 16.4C835.358 16.6133 835.628 16.77 835.875 16.87C836.121 16.9633 836.375 17.01 836.635 17.01C836.988 17.01 837.281 16.9267 837.515 16.76C837.748 16.5933 837.865 16.38 837.865 16.12C837.865 15.92 837.795 15.7633 837.655 15.65C837.521 15.5367 837.298 15.45 836.985 15.39L836.185 15.25C835.711 15.1633 835.361 15.0167 835.135 14.81C834.915 14.6033 834.805 14.3233 834.805 13.97C834.805 13.69 834.878 13.4433 835.025 13.23C835.178 13.0167 835.388 12.85 835.655 12.73C835.921 12.6033 836.225 12.54 836.565 12.54C836.898 12.54 837.215 12.59 837.515 12.69C837.815 12.7833 838.118 12.9367 838.425 13.15L838.065 13.66C837.811 13.48 837.558 13.35 837.305 13.27C837.051 13.1833 836.795 13.14 836.535 13.14C836.215 13.14 835.958 13.21 835.765 13.35C835.571 13.49 835.475 13.68 835.475 13.92C835.475 14.12 835.535 14.2733 835.655 14.38C835.781 14.4867 836.001 14.5667 836.315 14.62L837.135 14.77C837.628 14.8567 837.988 15.0067 838.215 15.22C838.441 15.4333 838.555 15.72 838.555 16.08C838.555 16.3667 838.471 16.6267 838.305 16.86C838.138 17.0867 837.911 17.2667 837.625 17.4C837.338 17.5333 837.015 17.6 836.655 17.6Z" fill="#B6A6E9"/>
<rect x="626" y="1" width="103" height="27" rx="13.5" fill="#151515"/>
<rect x="626" y="1" width="103" height="27" rx="13.5" stroke="#707070" stroke-width="2"/>
<g clip-path="url(#clip2_4041_6216)">
<path d="M638.5 7H634.25C633.835 7 633.5 7.335 633.5 7.75V12C633.5 12.275 633.725 12.5 634 12.5C634.275 12.5 634.5 12.275 634.5 12V8H638.5C638.775 8 639 7.775 639 7.5C639 7.225 638.775 7 638.5 7Z" fill="#D0C5F4"/>
<path d="M638.5 21H634.5V17C634.5 16.725 634.275 16.5 634 16.5C633.725 16.5 633.5 16.725 633.5 17V21.25C633.5 21.665 633.835 22 634.25 22H638.5C638.775 22 639 21.775 639 21.5C639 21.225 638.775 21 638.5 21Z" fill="#D0C5F4"/>
<path d="M648 16.5C647.725 16.5 647.5 16.725 647.5 17V21H643.5C643.225 21 643 21.225 643 21.5C643 21.775 643.225 22 643.5 22H647.75C648.165 22 648.5 21.665 648.5 21.25V17C648.5 16.725 648.275 16.5 648 16.5Z" fill="#D0C5F4"/>
<path d="M647.75 7H643.5C643.225 7 643 7.225 643 7.5C643 7.775 643.225 8 643.5 8H647.5V12C647.5 12.275 647.725 12.5 648 12.5C648.275 12.5 648.5 12.275 648.5 12V7.75C648.5 7.335 648.165 7 647.75 7Z" fill="#D0C5F4"/>
</g>
<path d="M654.232 19V9.2H655.31V19H654.232ZM657.591 19V12.168H658.613V13.274C658.874 12.8633 659.187 12.56 659.551 12.364C659.915 12.1587 660.326 12.056 660.783 12.056C661.278 12.056 661.707 12.1633 662.071 12.378C662.444 12.5833 662.734 12.8773 662.939 13.26C663.154 13.6333 663.261 14.072 663.261 14.576V19H662.239V14.87C662.239 14.2633 662.071 13.7873 661.735 13.442C661.408 13.0873 660.965 12.91 660.405 12.91C660.032 12.91 659.691 12.9987 659.383 13.176C659.075 13.3533 658.818 13.6147 658.613 13.96V19H657.591ZM668.583 21.926V12.168H669.591V13.148C669.853 12.8027 670.17 12.5413 670.543 12.364C670.926 12.1773 671.346 12.084 671.803 12.084C672.401 12.084 672.933 12.2427 673.399 12.56C673.875 12.868 674.253 13.288 674.533 13.82C674.813 14.3427 674.953 14.9307 674.953 15.584C674.953 16.2373 674.809 16.83 674.519 17.362C674.239 17.894 673.857 18.3187 673.371 18.636C672.895 18.944 672.354 19.098 671.747 19.098C671.318 19.098 670.921 19.0187 670.557 18.86C670.193 18.692 669.876 18.454 669.605 18.146V21.926H668.583ZM671.551 18.216C672.009 18.216 672.415 18.104 672.769 17.88C673.133 17.6467 673.418 17.334 673.623 16.942C673.838 16.5407 673.945 16.0927 673.945 15.598C673.945 15.094 673.838 14.646 673.623 14.254C673.418 13.862 673.133 13.554 672.769 13.33C672.415 13.0967 672.009 12.98 671.551 12.98C671.15 12.98 670.777 13.064 670.431 13.232C670.095 13.3907 669.82 13.6193 669.605 13.918V17.264C669.829 17.5627 670.109 17.796 670.445 17.964C670.791 18.132 671.159 18.216 671.551 18.216ZM676.745 19V12.168H677.767V13.568C677.945 13.092 678.197 12.7233 678.523 12.462C678.859 12.1913 679.242 12.056 679.671 12.056C679.793 12.056 679.905 12.0653 680.007 12.084C680.11 12.0933 680.213 12.1167 680.315 12.154V13.078C680.203 13.0407 680.082 13.0127 679.951 12.994C679.83 12.966 679.713 12.952 679.601 12.952C679.181 12.952 678.813 13.0733 678.495 13.316C678.187 13.5587 677.945 13.8993 677.767 14.338V19H676.745ZM684.267 19.112C683.633 19.112 683.063 18.958 682.559 18.65C682.055 18.342 681.659 17.922 681.369 17.39C681.08 16.858 680.935 16.256 680.935 15.584C680.935 14.912 681.08 14.31 681.369 13.778C681.659 13.246 682.055 12.826 682.559 12.518C683.063 12.21 683.633 12.056 684.267 12.056C684.893 12.056 685.453 12.21 685.947 12.518C686.451 12.826 686.848 13.246 687.137 13.778C687.427 14.31 687.571 14.912 687.571 15.584C687.571 16.256 687.427 16.858 687.137 17.39C686.848 17.922 686.451 18.342 685.947 18.65C685.453 18.958 684.893 19.112 684.267 19.112ZM684.253 18.216C684.701 18.216 685.098 18.104 685.443 17.88C685.789 17.6467 686.059 17.3293 686.255 16.928C686.461 16.5267 686.563 16.0787 686.563 15.584C686.563 15.08 686.461 14.632 686.255 14.24C686.059 13.8387 685.789 13.526 685.443 13.302C685.098 13.0687 684.701 12.952 684.253 12.952C683.805 12.952 683.409 13.0687 683.063 13.302C682.718 13.526 682.443 13.8387 682.237 14.24C682.041 14.632 681.943 15.08 681.943 15.584C681.943 16.0787 682.041 16.5267 682.237 16.928C682.443 17.3293 682.718 17.6467 683.063 17.88C683.409 18.104 683.805 18.216 684.253 18.216ZM692.528 22.066C692.071 22.066 691.609 22.0007 691.142 21.87C690.685 21.7487 690.26 21.576 689.868 21.352L690.302 20.568C690.722 20.7827 691.105 20.9413 691.45 21.044C691.796 21.1467 692.141 21.198 692.486 21.198C693.112 21.198 693.583 21.0487 693.9 20.75C694.227 20.4513 694.39 20.0173 694.39 19.448V18.076C694.129 18.4027 693.812 18.6547 693.438 18.832C693.065 19 692.654 19.084 692.206 19.084C691.618 19.084 691.086 18.93 690.61 18.622C690.134 18.3047 689.756 17.8847 689.476 17.362C689.196 16.83 689.056 16.2373 689.056 15.584C689.056 14.9307 689.196 14.3427 689.476 13.82C689.766 13.288 690.153 12.868 690.638 12.56C691.124 12.2427 691.665 12.084 692.262 12.084C692.692 12.084 693.088 12.168 693.452 12.336C693.816 12.4947 694.134 12.7327 694.404 13.05V12.168H695.412V19.434C695.412 20.2833 695.165 20.932 694.67 21.38C694.176 21.8373 693.462 22.066 692.528 22.066ZM692.458 18.202C692.86 18.202 693.228 18.1227 693.564 17.964C693.9 17.796 694.176 17.5673 694.39 17.278V13.904C694.166 13.6147 693.882 13.3907 693.536 13.232C693.2 13.064 692.841 12.98 692.458 12.98C692.001 12.98 691.59 13.092 691.226 13.316C690.872 13.54 690.587 13.848 690.372 14.24C690.167 14.632 690.064 15.08 690.064 15.584C690.064 16.0787 690.167 16.5267 690.372 16.928C690.587 17.32 690.872 17.6327 691.226 17.866C691.59 18.09 692.001 18.202 692.458 18.202ZM697.513 19V12.168H698.535V13.568C698.712 13.092 698.964 12.7233 699.291 12.462C699.627 12.1913 700.01 12.056 700.439 12.056C700.56 12.056 700.672 12.0653 700.775 12.084C700.878 12.0933 700.98 12.1167 701.083 12.154V13.078C700.971 13.0407 700.85 13.0127 700.719 12.994C700.598 12.966 700.481 12.952 700.369 12.952C699.949 12.952 699.58 13.0733 699.263 13.316C698.955 13.5587 698.712 13.8993 698.535 14.338V19H697.513ZM705.091 19.14C704.456 19.14 703.882 18.986 703.369 18.678C702.856 18.3607 702.45 17.936 702.151 17.404C701.852 16.8627 701.703 16.256 701.703 15.584C701.703 14.912 701.843 14.31 702.123 13.778C702.412 13.246 702.8 12.826 703.285 12.518C703.77 12.21 704.312 12.056 704.909 12.056C705.516 12.056 706.052 12.21 706.519 12.518C706.995 12.8167 707.368 13.2273 707.639 13.75C707.919 14.2633 708.059 14.8467 708.059 15.5V15.808H702.697C702.734 16.2747 702.86 16.6947 703.075 17.068C703.299 17.432 703.588 17.7213 703.943 17.936C704.307 18.1413 704.704 18.244 705.133 18.244C705.488 18.244 705.828 18.1833 706.155 18.062C706.491 17.9313 706.776 17.7587 707.009 17.544L707.653 18.23C707.261 18.538 706.855 18.7667 706.435 18.916C706.015 19.0653 705.567 19.14 705.091 19.14ZM702.725 15.08H707.051C707.004 14.6693 706.878 14.3053 706.673 13.988C706.477 13.6613 706.225 13.4047 705.917 13.218C705.618 13.0313 705.282 12.938 704.909 12.938C704.536 12.938 704.195 13.0313 703.887 13.218C703.579 13.3953 703.322 13.6473 703.117 13.974C702.921 14.2913 702.79 14.66 702.725 15.08ZM711.986 19.14C711.426 19.14 710.908 19.056 710.432 18.888C709.956 18.7107 709.55 18.4587 709.214 18.132L709.76 17.46C710.171 17.7587 710.549 17.978 710.894 18.118C711.24 18.2487 711.594 18.314 711.958 18.314C712.453 18.314 712.864 18.1973 713.19 17.964C713.517 17.7307 713.68 17.432 713.68 17.068C713.68 16.788 713.582 16.5687 713.386 16.41C713.2 16.2513 712.887 16.13 712.448 16.046L711.328 15.85C710.666 15.7287 710.176 15.5233 709.858 15.234C709.55 14.9447 709.396 14.5527 709.396 14.058C709.396 13.666 709.499 13.3207 709.704 13.022C709.919 12.7233 710.213 12.49 710.586 12.322C710.96 12.1447 711.384 12.056 711.86 12.056C712.327 12.056 712.77 12.126 713.19 12.266C713.61 12.3967 714.035 12.6113 714.464 12.91L713.96 13.624C713.606 13.372 713.251 13.19 712.896 13.078C712.542 12.9567 712.182 12.896 711.818 12.896C711.37 12.896 711.011 12.994 710.74 13.19C710.47 13.386 710.334 13.652 710.334 13.988C710.334 14.268 710.418 14.4827 710.586 14.632C710.764 14.7813 711.072 14.8933 711.51 14.968L712.658 15.178C713.349 15.2993 713.853 15.5093 714.17 15.808C714.488 16.1067 714.646 16.508 714.646 17.012C714.646 17.4133 714.53 17.7773 714.296 18.104C714.063 18.4213 713.746 18.6733 713.344 18.86C712.943 19.0467 712.49 19.14 711.986 19.14ZM718.316 19.14C717.756 19.14 717.238 19.056 716.762 18.888C716.286 18.7107 715.88 18.4587 715.544 18.132L716.09 17.46C716.501 17.7587 716.879 17.978 717.224 18.118C717.57 18.2487 717.924 18.314 718.288 18.314C718.783 18.314 719.194 18.1973 719.52 17.964C719.847 17.7307 720.01 17.432 720.01 17.068C720.01 16.788 719.912 16.5687 719.716 16.41C719.53 16.2513 719.217 16.13 718.778 16.046L717.658 15.85C716.996 15.7287 716.506 15.5233 716.188 15.234C715.88 14.9447 715.726 14.5527 715.726 14.058C715.726 13.666 715.829 13.3207 716.034 13.022C716.249 12.7233 716.543 12.49 716.916 12.322C717.29 12.1447 717.714 12.056 718.19 12.056C718.657 12.056 719.1 12.126 719.52 12.266C719.94 12.3967 720.365 12.6113 720.794 12.91L720.29 13.624C719.936 13.372 719.581 13.19 719.226 13.078C718.872 12.9567 718.512 12.896 718.148 12.896C717.7 12.896 717.341 12.994 717.07 13.19C716.8 13.386 716.664 13.652 716.664 13.988C716.664 14.268 716.748 14.4827 716.916 14.632C717.094 14.7813 717.402 14.8933 717.84 14.968L718.988 15.178C719.679 15.2993 720.183 15.5093 720.5 15.808C720.818 16.1067 720.976 16.508 720.976 17.012C720.976 17.4133 720.86 17.7773 720.626 18.104C720.393 18.4213 720.076 18.6733 719.674 18.86C719.273 19.0467 718.82 19.14 718.316 19.14Z" fill="#B6A6E9"/>
<rect x="632" y="3" width="91" height="23" rx="3" stroke="#92C5F9" stroke-width="2"/>
<rect x="512.5" y="0.5" width="104" height="28" rx="14" fill="#151515"/>
<rect x="512.5" y="0.5" width="104" height="28" rx="14" stroke="#707070"/>
<g clip-path="url(#clip3_4041_6216)">
<path d="M525.5 7H521.25C520.835 7 520.5 7.335 520.5 7.75V12C520.5 12.275 520.725 12.5 521 12.5C521.275 12.5 521.5 12.275 521.5 12V8H525.5C525.775 8 526 7.775 526 7.5C526 7.225 525.775 7 525.5 7Z" fill="#D0C5F4"/>
<path d="M525.5 21H521.5V17C521.5 16.725 521.275 16.5 521 16.5C520.725 16.5 520.5 16.725 520.5 17V21.25C520.5 21.665 520.835 22 521.25 22H525.5C525.775 22 526 21.775 526 21.5C526 21.225 525.775 21 525.5 21Z" fill="#D0C5F4"/>
<path d="M535 16.5C534.725 16.5 534.5 16.725 534.5 17V21H530.5C530.225 21 530 21.225 530 21.5C530 21.775 530.225 22 530.5 22H534.75C535.165 22 535.5 21.665 535.5 21.25V17C535.5 16.725 535.275 16.5 535 16.5Z" fill="#D0C5F4"/>
<path d="M534.75 7H530.5C530.225 7 530 7.225 530 7.5C530 7.775 530.225 8 530.5 8H534.5V12C534.5 12.275 534.725 12.5 535 12.5C535.275 12.5 535.5 12.275 535.5 12V7.75C535.5 7.335 535.165 7 534.75 7Z" fill="#D0C5F4"/>
</g>
<path d="M541.232 19V9.2H542.31V19H541.232ZM544.591 19V12.168H545.613V13.274C545.874 12.8633 546.187 12.56 546.551 12.364C546.915 12.1587 547.326 12.056 547.783 12.056C548.278 12.056 548.707 12.1633 549.071 12.378C549.444 12.5833 549.734 12.8773 549.939 13.26C550.154 13.6333 550.261 14.072 550.261 14.576V19H549.239V14.87C549.239 14.2633 549.071 13.7873 548.735 13.442C548.408 13.0873 547.965 12.91 547.405 12.91C547.032 12.91 546.691 12.9987 546.383 13.176C546.075 13.3533 545.818 13.6147 545.613 13.96V19H544.591ZM555.583 21.926V12.168H556.591V13.148C556.853 12.8027 557.17 12.5413 557.543 12.364C557.926 12.1773 558.346 12.084 558.803 12.084C559.401 12.084 559.933 12.2427 560.399 12.56C560.875 12.868 561.253 13.288 561.533 13.82C561.813 14.3427 561.953 14.9307 561.953 15.584C561.953 16.2373 561.809 16.83 561.519 17.362C561.239 17.894 560.857 18.3187 560.371 18.636C559.895 18.944 559.354 19.098 558.747 19.098C558.318 19.098 557.921 19.0187 557.557 18.86C557.193 18.692 556.876 18.454 556.605 18.146V21.926H555.583ZM558.551 18.216C559.009 18.216 559.415 18.104 559.769 17.88C560.133 17.6467 560.418 17.334 560.623 16.942C560.838 16.5407 560.945 16.0927 560.945 15.598C560.945 15.094 560.838 14.646 560.623 14.254C560.418 13.862 560.133 13.554 559.769 13.33C559.415 13.0967 559.009 12.98 558.551 12.98C558.15 12.98 557.777 13.064 557.431 13.232C557.095 13.3907 556.82 13.6193 556.605 13.918V17.264C556.829 17.5627 557.109 17.796 557.445 17.964C557.791 18.132 558.159 18.216 558.551 18.216ZM563.745 19V12.168H564.767V13.568C564.945 13.092 565.197 12.7233 565.523 12.462C565.859 12.1913 566.242 12.056 566.671 12.056C566.793 12.056 566.905 12.0653 567.007 12.084C567.11 12.0933 567.213 12.1167 567.315 12.154V13.078C567.203 13.0407 567.082 13.0127 566.951 12.994C566.83 12.966 566.713 12.952 566.601 12.952C566.181 12.952 565.813 13.0733 565.495 13.316C565.187 13.5587 564.945 13.8993 564.767 14.338V19H563.745ZM571.267 19.112C570.633 19.112 570.063 18.958 569.559 18.65C569.055 18.342 568.659 17.922 568.369 17.39C568.08 16.858 567.935 16.256 567.935 15.584C567.935 14.912 568.08 14.31 568.369 13.778C568.659 13.246 569.055 12.826 569.559 12.518C570.063 12.21 570.633 12.056 571.267 12.056C571.893 12.056 572.453 12.21 572.947 12.518C573.451 12.826 573.848 13.246 574.137 13.778C574.427 14.31 574.571 14.912 574.571 15.584C574.571 16.256 574.427 16.858 574.137 17.39C573.848 17.922 573.451 18.342 572.947 18.65C572.453 18.958 571.893 19.112 571.267 19.112ZM571.253 18.216C571.701 18.216 572.098 18.104 572.443 17.88C572.789 17.6467 573.059 17.3293 573.255 16.928C573.461 16.5267 573.563 16.0787 573.563 15.584C573.563 15.08 573.461 14.632 573.255 14.24C573.059 13.8387 572.789 13.526 572.443 13.302C572.098 13.0687 571.701 12.952 571.253 12.952C570.805 12.952 570.409 13.0687 570.063 13.302C569.718 13.526 569.443 13.8387 569.237 14.24C569.041 14.632 568.943 15.08 568.943 15.584C568.943 16.0787 569.041 16.5267 569.237 16.928C569.443 17.3293 569.718 17.6467 570.063 17.88C570.409 18.104 570.805 18.216 571.253 18.216ZM579.528 22.066C579.071 22.066 578.609 22.0007 578.142 21.87C577.685 21.7487 577.26 21.576 576.868 21.352L577.302 20.568C577.722 20.7827 578.105 20.9413 578.45 21.044C578.796 21.1467 579.141 21.198 579.486 21.198C580.112 21.198 580.583 21.0487 580.9 20.75C581.227 20.4513 581.39 20.0173 581.39 19.448V18.076C581.129 18.4027 580.812 18.6547 580.438 18.832C580.065 19 579.654 19.084 579.206 19.084C578.618 19.084 578.086 18.93 577.61 18.622C577.134 18.3047 576.756 17.8847 576.476 17.362C576.196 16.83 576.056 16.2373 576.056 15.584C576.056 14.9307 576.196 14.3427 576.476 13.82C576.766 13.288 577.153 12.868 577.638 12.56C578.124 12.2427 578.665 12.084 579.262 12.084C579.692 12.084 580.088 12.168 580.452 12.336C580.816 12.4947 581.134 12.7327 581.404 13.05V12.168H582.412V19.434C582.412 20.2833 582.165 20.932 581.67 21.38C581.176 21.8373 580.462 22.066 579.528 22.066ZM579.458 18.202C579.86 18.202 580.228 18.1227 580.564 17.964C580.9 17.796 581.176 17.5673 581.39 17.278V13.904C581.166 13.6147 580.882 13.3907 580.536 13.232C580.2 13.064 579.841 12.98 579.458 12.98C579.001 12.98 578.59 13.092 578.226 13.316C577.872 13.54 577.587 13.848 577.372 14.24C577.167 14.632 577.064 15.08 577.064 15.584C577.064 16.0787 577.167 16.5267 577.372 16.928C577.587 17.32 577.872 17.6327 578.226 17.866C578.59 18.09 579.001 18.202 579.458 18.202ZM584.513 19V12.168H585.535V13.568C585.712 13.092 585.964 12.7233 586.291 12.462C586.627 12.1913 587.01 12.056 587.439 12.056C587.56 12.056 587.672 12.0653 587.775 12.084C587.878 12.0933 587.98 12.1167 588.083 12.154V13.078C587.971 13.0407 587.85 13.0127 587.719 12.994C587.598 12.966 587.481 12.952 587.369 12.952C586.949 12.952 586.58 13.0733 586.263 13.316C585.955 13.5587 585.712 13.8993 585.535 14.338V19H584.513ZM592.091 19.14C591.456 19.14 590.882 18.986 590.369 18.678C589.856 18.3607 589.45 17.936 589.151 17.404C588.852 16.8627 588.703 16.256 588.703 15.584C588.703 14.912 588.843 14.31 589.123 13.778C589.412 13.246 589.8 12.826 590.285 12.518C590.77 12.21 591.312 12.056 591.909 12.056C592.516 12.056 593.052 12.21 593.519 12.518C593.995 12.8167 594.368 13.2273 594.639 13.75C594.919 14.2633 595.059 14.8467 595.059 15.5V15.808H589.697C589.734 16.2747 589.86 16.6947 590.075 17.068C590.299 17.432 590.588 17.7213 590.943 17.936C591.307 18.1413 591.704 18.244 592.133 18.244C592.488 18.244 592.828 18.1833 593.155 18.062C593.491 17.9313 593.776 17.7587 594.009 17.544L594.653 18.23C594.261 18.538 593.855 18.7667 593.435 18.916C593.015 19.0653 592.567 19.14 592.091 19.14ZM589.725 15.08H594.051C594.004 14.6693 593.878 14.3053 593.673 13.988C593.477 13.6613 593.225 13.4047 592.917 13.218C592.618 13.0313 592.282 12.938 591.909 12.938C591.536 12.938 591.195 13.0313 590.887 13.218C590.579 13.3953 590.322 13.6473 590.117 13.974C589.921 14.2913 589.79 14.66 589.725 15.08ZM598.986 19.14C598.426 19.14 597.908 19.056 597.432 18.888C596.956 18.7107 596.55 18.4587 596.214 18.132L596.76 17.46C597.171 17.7587 597.549 17.978 597.894 18.118C598.24 18.2487 598.594 18.314 598.958 18.314C599.453 18.314 599.864 18.1973 600.19 17.964C600.517 17.7307 600.68 17.432 600.68 17.068C600.68 16.788 600.582 16.5687 600.386 16.41C600.2 16.2513 599.887 16.13 599.448 16.046L598.328 15.85C597.666 15.7287 597.176 15.5233 596.858 15.234C596.55 14.9447 596.396 14.5527 596.396 14.058C596.396 13.666 596.499 13.3207 596.704 13.022C596.919 12.7233 597.213 12.49 597.586 12.322C597.96 12.1447 598.384 12.056 598.86 12.056C599.327 12.056 599.77 12.126 600.19 12.266C600.61 12.3967 601.035 12.6113 601.464 12.91L600.96 13.624C600.606 13.372 600.251 13.19 599.896 13.078C599.542 12.9567 599.182 12.896 598.818 12.896C598.37 12.896 598.011 12.994 597.74 13.19C597.47 13.386 597.334 13.652 597.334 13.988C597.334 14.268 597.418 14.4827 597.586 14.632C597.764 14.7813 598.072 14.8933 598.51 14.968L599.658 15.178C600.349 15.2993 600.853 15.5093 601.17 15.808C601.488 16.1067 601.646 16.508 601.646 17.012C601.646 17.4133 601.53 17.7773 601.296 18.104C601.063 18.4213 600.746 18.6733 600.344 18.86C599.943 19.0467 599.49 19.14 598.986 19.14ZM605.316 19.14C604.756 19.14 604.238 19.056 603.762 18.888C603.286 18.7107 602.88 18.4587 602.544 18.132L603.09 17.46C603.501 17.7587 603.879 17.978 604.224 18.118C604.57 18.2487 604.924 18.314 605.288 18.314C605.783 18.314 606.194 18.1973 606.52 17.964C606.847 17.7307 607.01 17.432 607.01 17.068C607.01 16.788 606.912 16.5687 606.716 16.41C606.53 16.2513 606.217 16.13 605.778 16.046L604.658 15.85C603.996 15.7287 603.506 15.5233 603.188 15.234C602.88 14.9447 602.726 14.5527 602.726 14.058C602.726 13.666 602.829 13.3207 603.034 13.022C603.249 12.7233 603.543 12.49 603.916 12.322C604.29 12.1447 604.714 12.056 605.19 12.056C605.657 12.056 606.1 12.126 606.52 12.266C606.94 12.3967 607.365 12.6113 607.794 12.91L607.29 13.624C606.936 13.372 606.581 13.19 606.226 13.078C605.872 12.9567 605.512 12.896 605.148 12.896C604.7 12.896 604.341 12.994 604.07 13.19C603.8 13.386 603.664 13.652 603.664 13.988C603.664 14.268 603.748 14.4827 603.916 14.632C604.094 14.7813 604.402 14.8933 604.84 14.968L605.988 15.178C606.679 15.2993 607.183 15.5093 607.5 15.808C607.818 16.1067 607.976 16.508 607.976 17.012C607.976 17.4133 607.86 17.7773 607.626 18.104C607.393 18.4213 607.076 18.6733 606.674 18.86C606.273 19.0467 605.82 19.14 605.316 19.14Z" fill="#B6A6E9"/>
<rect x="353.5" y="6.5" width="84" height="15" rx="7.5" fill="#21134D"/>
<rect x="353.5" y="6.5" width="84" height="15" rx="7.5" stroke="#5E40BE"/>
<g clip-path="url(#clip4_4041_6216)">
<path d="M369 8C368.801 8 368.599 8.01125 368.4 8.03C368.194 8.04875 368.044 8.2325 368.062 8.43875C368.081 8.63375 368.246 8.77625 368.434 8.77625C368.445 8.77625 368.46 8.77625 368.471 8.77625C368.644 8.7575 368.82 8.75 368.996 8.75C371.891 8.75 374.246 11.105 374.246 14C374.246 16.895 371.891 19.25 368.996 19.25C368.824 19.25 368.644 19.2425 368.471 19.2238C368.269 19.205 368.081 19.355 368.062 19.5612C368.044 19.7675 368.194 19.9513 368.4 19.97C368.599 19.9888 368.801 20 369 20C372.307 20 375 17.3075 375 14C375 10.6925 372.307 8 369 8Z" fill="#B6A6E9"/>
<path d="M368.516 16.1414L371.891 12.7664C372.038 12.6201 372.038 12.3839 371.891 12.2376C371.745 12.0914 371.509 12.0914 371.363 12.2376L368.254 15.3464L366.645 13.7376C366.499 13.5914 366.263 13.5914 366.116 13.7376C365.97 13.8839 365.97 14.1201 366.116 14.2664L367.991 16.1414C368.066 16.2164 368.16 16.2501 368.258 16.2501C368.355 16.2501 368.449 16.2126 368.524 16.1414H368.516Z" fill="#B6A6E9"/>
<path d="M363.409 13.2424C363.439 13.2499 363.469 13.2499 363.495 13.2499C363.69 13.2499 363.866 13.1149 363.907 12.9162C363.982 12.5599 364.095 12.2112 364.245 11.8774C364.339 11.6637 364.245 11.4162 364.031 11.3187C363.817 11.2212 363.57 11.3187 363.472 11.5324C363.3 11.9187 363.169 12.3237 363.079 12.7399C363.03 12.9687 363.176 13.1937 363.405 13.2387L363.409 13.2424Z" fill="#B6A6E9"/>
<path d="M363.911 15.0876C363.863 14.8588 363.638 14.7126 363.413 14.7613C363.184 14.8101 363.038 15.0351 363.086 15.2601C363.173 15.6726 363.308 16.0813 363.48 16.4676C363.551 16.6251 363.705 16.7188 363.866 16.7188C363.923 16.7188 363.983 16.7076 364.039 16.6813C364.253 16.5876 364.346 16.3363 364.253 16.1226C364.103 15.7926 363.99 15.4438 363.915 15.0876H363.911Z" fill="#B6A6E9"/>
<path d="M365.242 10.235C365.344 10.235 365.445 10.2013 365.524 10.1263C365.794 9.88254 366.09 9.66879 366.409 9.48504C366.611 9.36879 366.679 9.11004 366.562 8.90754C366.446 8.70504 366.187 8.63379 365.985 8.75379C365.617 8.96379 365.272 9.21504 364.957 9.49629C364.785 9.65379 364.77 9.92004 364.927 10.0925C365.01 10.1863 365.126 10.2313 365.242 10.2313V10.235Z" fill="#B6A6E9"/>
<path d="M366.412 18.5148C366.097 18.3348 365.797 18.1173 365.527 17.8736C365.355 17.7198 365.089 17.7311 364.931 17.9073C364.774 18.0798 364.789 18.3461 364.965 18.5036C365.28 18.7848 365.625 19.0361 365.992 19.2461C366.06 19.2836 366.131 19.3023 366.202 19.3023C366.349 19.3023 366.491 19.2273 366.57 19.0923C366.686 18.8898 366.615 18.6311 366.412 18.5148Z" fill="#B6A6E9"/>
</g>
<path d="M381.88 17.5V10.5H382.65V17.5H381.88ZM384.279 17.5V12.62H385.009V13.41C385.196 13.1167 385.419 12.9 385.679 12.76C385.939 12.6133 386.233 12.54 386.559 12.54C386.913 12.54 387.219 12.6167 387.479 12.77C387.746 12.9167 387.953 13.1267 388.099 13.4C388.253 13.6667 388.329 13.98 388.329 14.34V17.5H387.599V14.55C387.599 14.1167 387.479 13.7767 387.239 13.53C387.006 13.2767 386.689 13.15 386.289 13.15C386.023 13.15 385.779 13.2133 385.559 13.34C385.339 13.4667 385.156 13.6533 385.009 13.9V17.5H384.279ZM392.131 19.59V12.62H392.851V13.32C393.038 13.0733 393.264 12.8867 393.531 12.76C393.804 12.6267 394.104 12.56 394.431 12.56C394.858 12.56 395.238 12.6733 395.571 12.9C395.911 13.12 396.181 13.42 396.381 13.8C396.581 14.1733 396.681 14.5933 396.681 15.06C396.681 15.5267 396.578 15.95 396.371 16.33C396.171 16.71 395.898 17.0133 395.551 17.24C395.211 17.46 394.824 17.57 394.391 17.57C394.084 17.57 393.801 17.5133 393.541 17.4C393.281 17.28 393.054 17.11 392.861 16.89V19.59H392.131ZM394.251 16.94C394.578 16.94 394.868 16.86 395.121 16.7C395.381 16.5333 395.584 16.31 395.731 16.03C395.884 15.7433 395.961 15.4233 395.961 15.07C395.961 14.71 395.884 14.39 395.731 14.11C395.584 13.83 395.381 13.61 395.121 13.45C394.868 13.2833 394.578 13.2 394.251 13.2C393.964 13.2 393.698 13.26 393.451 13.38C393.211 13.4933 393.014 13.6567 392.861 13.87V16.26C393.021 16.4733 393.221 16.64 393.461 16.76C393.708 16.88 393.971 16.94 394.251 16.94ZM397.961 17.5V12.62H398.691V13.62C398.818 13.28 398.998 13.0167 399.231 12.83C399.471 12.6367 399.744 12.54 400.051 12.54C400.138 12.54 400.218 12.5467 400.291 12.56C400.364 12.5667 400.438 12.5833 400.511 12.61V13.27C400.431 13.2433 400.344 13.2233 400.251 13.21C400.164 13.19 400.081 13.18 400.001 13.18C399.701 13.18 399.438 13.2667 399.211 13.44C398.991 13.6133 398.818 13.8567 398.691 14.17V17.5H397.961ZM403.334 17.58C402.88 17.58 402.474 17.47 402.114 17.25C401.754 17.03 401.47 16.73 401.264 16.35C401.057 15.97 400.954 15.54 400.954 15.06C400.954 14.58 401.057 14.15 401.264 13.77C401.47 13.39 401.754 13.09 402.114 12.87C402.474 12.65 402.88 12.54 403.334 12.54C403.78 12.54 404.18 12.65 404.534 12.87C404.894 13.09 405.177 13.39 405.384 13.77C405.59 14.15 405.694 14.58 405.694 15.06C405.694 15.54 405.59 15.97 405.384 16.35C405.177 16.73 404.894 17.03 404.534 17.25C404.18 17.47 403.78 17.58 403.334 17.58ZM403.324 16.94C403.644 16.94 403.927 16.86 404.174 16.7C404.42 16.5333 404.614 16.3067 404.754 16.02C404.9 15.7333 404.974 15.4133 404.974 15.06C404.974 14.7 404.9 14.38 404.754 14.1C404.614 13.8133 404.42 13.59 404.174 13.43C403.927 13.2633 403.644 13.18 403.324 13.18C403.004 13.18 402.72 13.2633 402.474 13.43C402.227 13.59 402.03 13.8133 401.884 14.1C401.744 14.38 401.674 14.7 401.674 15.06C401.674 15.4133 401.744 15.7333 401.884 16.02C402.03 16.3067 402.227 16.5333 402.474 16.7C402.72 16.86 403.004 16.94 403.324 16.94ZM409.235 19.69C408.908 19.69 408.578 19.6433 408.245 19.55C407.918 19.4633 407.615 19.34 407.335 19.18L407.645 18.62C407.945 18.7733 408.218 18.8867 408.465 18.96C408.711 19.0333 408.958 19.07 409.205 19.07C409.651 19.07 409.988 18.9633 410.215 18.75C410.448 18.5367 410.565 18.2267 410.565 17.82V16.84C410.378 17.0733 410.151 17.2533 409.885 17.38C409.618 17.5 409.325 17.56 409.005 17.56C408.585 17.56 408.205 17.45 407.865 17.23C407.525 17.0033 407.255 16.7033 407.055 16.33C406.855 15.95 406.755 15.5267 406.755 15.06C406.755 14.5933 406.855 14.1733 407.055 13.8C407.261 13.42 407.538 13.12 407.885 12.9C408.231 12.6733 408.618 12.56 409.045 12.56C409.351 12.56 409.635 12.62 409.895 12.74C410.155 12.8533 410.381 13.0233 410.575 13.25V12.62H411.295V17.81C411.295 18.4167 411.118 18.88 410.765 19.2C410.411 19.5267 409.901 19.69 409.235 19.69ZM409.185 16.93C409.471 16.93 409.735 16.8733 409.975 16.76C410.215 16.64 410.411 16.4767 410.565 16.27V13.86C410.405 13.6533 410.201 13.4933 409.955 13.38C409.715 13.26 409.458 13.2 409.185 13.2C408.858 13.2 408.565 13.28 408.305 13.44C408.051 13.6 407.848 13.82 407.695 14.1C407.548 14.38 407.475 14.7 407.475 15.06C407.475 15.4133 407.548 15.7333 407.695 16.02C407.848 16.3 408.051 16.5233 408.305 16.69C408.565 16.85 408.858 16.93 409.185 16.93ZM412.795 17.5V12.62H413.525V13.62C413.652 13.28 413.832 13.0167 414.065 12.83C414.305 12.6367 414.578 12.54 414.885 12.54C414.972 12.54 415.052 12.5467 415.125 12.56C415.198 12.5667 415.272 12.5833 415.345 12.61V13.27C415.265 13.2433 415.178 13.2233 415.085 13.21C414.998 13.19 414.915 13.18 414.835 13.18C414.535 13.18 414.272 13.2667 414.045 13.44C413.825 13.6133 413.652 13.8567 413.525 14.17V17.5H412.795ZM418.208 17.6C417.754 17.6 417.344 17.49 416.978 17.27C416.611 17.0433 416.321 16.74 416.108 16.36C415.894 15.9733 415.788 15.54 415.788 15.06C415.788 14.58 415.888 14.15 416.088 13.77C416.294 13.39 416.571 13.09 416.918 12.87C417.264 12.65 417.651 12.54 418.078 12.54C418.511 12.54 418.894 12.65 419.228 12.87C419.568 13.0833 419.834 13.3767 420.028 13.75C420.228 14.1167 420.328 14.5333 420.328 15V15.22H416.498C416.524 15.5533 416.614 15.8533 416.768 16.12C416.928 16.38 417.134 16.5867 417.388 16.74C417.648 16.8867 417.931 16.96 418.238 16.96C418.491 16.96 418.734 16.9167 418.968 16.83C419.208 16.7367 419.411 16.6133 419.578 16.46L420.038 16.95C419.758 17.17 419.468 17.3333 419.168 17.44C418.868 17.5467 418.548 17.6 418.208 17.6ZM416.518 14.7H419.608C419.574 14.4067 419.484 14.1467 419.338 13.92C419.198 13.6867 419.018 13.5033 418.798 13.37C418.584 13.2367 418.344 13.17 418.078 13.17C417.811 13.17 417.568 13.2367 417.348 13.37C417.128 13.4967 416.944 13.6767 416.798 13.91C416.658 14.1367 416.564 14.4 416.518 14.7ZM423.133 17.6C422.733 17.6 422.363 17.54 422.023 17.42C421.683 17.2933 421.393 17.1133 421.153 16.88L421.543 16.4C421.836 16.6133 422.106 16.77 422.353 16.87C422.6 16.9633 422.853 17.01 423.113 17.01C423.466 17.01 423.76 16.9267 423.993 16.76C424.226 16.5933 424.343 16.38 424.343 16.12C424.343 15.92 424.273 15.7633 424.133 15.65C424 15.5367 423.776 15.45 423.463 15.39L422.663 15.25C422.19 15.1633 421.84 15.0167 421.613 14.81C421.393 14.6033 421.283 14.3233 421.283 13.97C421.283 13.69 421.356 13.4433 421.503 13.23C421.656 13.0167 421.866 12.85 422.133 12.73C422.4 12.6033 422.703 12.54 423.043 12.54C423.376 12.54 423.693 12.59 423.993 12.69C424.293 12.7833 424.596 12.9367 424.903 13.15L424.543 13.66C424.29 13.48 424.036 13.35 423.783 13.27C423.53 13.1833 423.273 13.14 423.013 13.14C422.693 13.14 422.436 13.21 422.243 13.35C422.05 13.49 421.953 13.68 421.953 13.92C421.953 14.12 422.013 14.2733 422.133 14.38C422.26 14.4867 422.48 14.5667 422.793 14.62L423.613 14.77C424.106 14.8567 424.466 15.0067 424.693 15.22C424.92 15.4333 425.033 15.72 425.033 16.08C425.033 16.3667 424.95 16.6267 424.783 16.86C424.616 17.0867 424.39 17.2667 424.103 17.4C423.816 17.5333 423.493 17.6 423.133 17.6ZM427.655 17.6C427.255 17.6 426.885 17.54 426.545 17.42C426.205 17.2933 425.915 17.1133 425.675 16.88L426.065 16.4C426.358 16.6133 426.628 16.77 426.875 16.87C427.121 16.9633 427.375 17.01 427.635 17.01C427.988 17.01 428.281 16.9267 428.515 16.76C428.748 16.5933 428.865 16.38 428.865 16.12C428.865 15.92 428.795 15.7633 428.655 15.65C428.521 15.5367 428.298 15.45 427.985 15.39L427.185 15.25C426.711 15.1633 426.361 15.0167 426.135 14.81C425.915 14.6033 425.805 14.3233 425.805 13.97C425.805 13.69 425.878 13.4433 426.025 13.23C426.178 13.0167 426.388 12.85 426.655 12.73C426.921 12.6033 427.225 12.54 427.565 12.54C427.898 12.54 428.215 12.59 428.515 12.69C428.815 12.7833 429.118 12.9367 429.425 13.15L429.065 13.66C428.811 13.48 428.558 13.35 428.305 13.27C428.051 13.1833 427.795 13.14 427.535 13.14C427.215 13.14 426.958 13.21 426.765 13.35C426.571 13.49 426.475 13.68 426.475 13.92C426.475 14.12 426.535 14.2733 426.655 14.38C426.781 14.4867 427.001 14.5667 427.315 14.62L428.135 14.77C428.628 14.8567 428.988 15.0067 429.215 15.22C429.441 15.4333 429.555 15.72 429.555 16.08C429.555 16.3667 429.471 16.6267 429.305 16.86C429.138 17.0867 428.911 17.2667 428.625 17.4C428.338 17.5333 428.015 17.6 427.655 17.6Z" fill="#ECE6FF"/>
<rect x="362" y="5" width="79" height="20" rx="3" stroke="#92C5F9" stroke-width="2"/>
<rect x="250.5" y="6.5" width="84" height="15" rx="7.5" fill="#21134D"/>
<rect x="250.5" y="6.5" width="84" height="15" rx="7.5" stroke="#5E40BE"/>
<g clip-path="url(#clip5_4041_6216)">
<path d="M266 8C265.801 8 265.599 8.01125 265.4 8.03C265.194 8.04875 265.044 8.2325 265.062 8.43875C265.081 8.63375 265.246 8.77625 265.434 8.77625C265.445 8.77625 265.46 8.77625 265.471 8.77625C265.644 8.7575 265.82 8.75 265.996 8.75C268.891 8.75 271.246 11.105 271.246 14C271.246 16.895 268.891 19.25 265.996 19.25C265.824 19.25 265.644 19.2425 265.471 19.2238C265.269 19.205 265.081 19.355 265.062 19.5612C265.044 19.7675 265.194 19.9513 265.4 19.97C265.599 19.9888 265.801 20 266 20C269.307 20 272 17.3075 272 14C272 10.6925 269.307 8 266 8Z" fill="#B6A6E9"/>
<path d="M265.516 16.1414L268.891 12.7664C269.038 12.6201 269.038 12.3839 268.891 12.2376C268.745 12.0914 268.509 12.0914 268.363 12.2376L265.254 15.3464L263.645 13.7376C263.499 13.5914 263.263 13.5914 263.116 13.7376C262.97 13.8839 262.97 14.1201 263.116 14.2664L264.991 16.1414C265.066 16.2164 265.16 16.2501 265.258 16.2501C265.355 16.2501 265.449 16.2126 265.524 16.1414H265.516Z" fill="#B6A6E9"/>
<path d="M260.409 13.2424C260.439 13.2499 260.469 13.2499 260.495 13.2499C260.69 13.2499 260.866 13.1149 260.907 12.9162C260.982 12.5599 261.095 12.2112 261.245 11.8774C261.339 11.6637 261.245 11.4162 261.031 11.3187C260.817 11.2212 260.57 11.3187 260.472 11.5324C260.3 11.9187 260.169 12.3237 260.079 12.7399C260.03 12.9687 260.176 13.1937 260.405 13.2387L260.409 13.2424Z" fill="#B6A6E9"/>
<path d="M260.911 15.0876C260.863 14.8588 260.638 14.7126 260.413 14.7613C260.184 14.8101 260.038 15.0351 260.086 15.2601C260.173 15.6726 260.308 16.0813 260.48 16.4676C260.551 16.6251 260.705 16.7188 260.866 16.7188C260.923 16.7188 260.983 16.7076 261.039 16.6813C261.253 16.5876 261.346 16.3363 261.253 16.1226C261.103 15.7926 260.99 15.4438 260.915 15.0876H260.911Z" fill="#B6A6E9"/>
<path d="M262.242 10.235C262.344 10.235 262.445 10.2013 262.524 10.1263C262.794 9.88254 263.09 9.66879 263.409 9.48504C263.611 9.36879 263.679 9.11004 263.562 8.90754C263.446 8.70504 263.187 8.63379 262.985 8.75379C262.617 8.96379 262.272 9.21504 261.957 9.49629C261.785 9.65379 261.77 9.92004 261.927 10.0925C262.01 10.1863 262.126 10.2313 262.242 10.2313V10.235Z" fill="#B6A6E9"/>
<path d="M263.412 18.5148C263.097 18.3348 262.797 18.1173 262.527 17.8736C262.355 17.7198 262.089 17.7311 261.931 17.9073C261.774 18.0798 261.789 18.3461 261.965 18.5036C262.28 18.7848 262.625 19.0361 262.992 19.2461C263.06 19.2836 263.131 19.3023 263.202 19.3023C263.349 19.3023 263.491 19.2273 263.57 19.0923C263.686 18.8898 263.615 18.6311 263.412 18.5148Z" fill="#B6A6E9"/>
</g>
<path d="M278.88 17.5V10.5H279.65V17.5H278.88ZM281.279 17.5V12.62H282.009V13.41C282.196 13.1167 282.419 12.9 282.679 12.76C282.939 12.6133 283.233 12.54 283.559 12.54C283.913 12.54 284.219 12.6167 284.479 12.77C284.746 12.9167 284.953 13.1267 285.099 13.4C285.253 13.6667 285.329 13.98 285.329 14.34V17.5H284.599V14.55C284.599 14.1167 284.479 13.7767 284.239 13.53C284.006 13.2767 283.689 13.15 283.289 13.15C283.023 13.15 282.779 13.2133 282.559 13.34C282.339 13.4667 282.156 13.6533 282.009 13.9V17.5H281.279ZM289.131 19.59V12.62H289.851V13.32C290.038 13.0733 290.264 12.8867 290.531 12.76C290.804 12.6267 291.104 12.56 291.431 12.56C291.858 12.56 292.238 12.6733 292.571 12.9C292.911 13.12 293.181 13.42 293.381 13.8C293.581 14.1733 293.681 14.5933 293.681 15.06C293.681 15.5267 293.578 15.95 293.371 16.33C293.171 16.71 292.898 17.0133 292.551 17.24C292.211 17.46 291.824 17.57 291.391 17.57C291.084 17.57 290.801 17.5133 290.541 17.4C290.281 17.28 290.054 17.11 289.861 16.89V19.59H289.131ZM291.251 16.94C291.578 16.94 291.868 16.86 292.121 16.7C292.381 16.5333 292.584 16.31 292.731 16.03C292.884 15.7433 292.961 15.4233 292.961 15.07C292.961 14.71 292.884 14.39 292.731 14.11C292.584 13.83 292.381 13.61 292.121 13.45C291.868 13.2833 291.578 13.2 291.251 13.2C290.964 13.2 290.698 13.26 290.451 13.38C290.211 13.4933 290.014 13.6567 289.861 13.87V16.26C290.021 16.4733 290.221 16.64 290.461 16.76C290.708 16.88 290.971 16.94 291.251 16.94ZM294.961 17.5V12.62H295.691V13.62C295.818 13.28 295.998 13.0167 296.231 12.83C296.471 12.6367 296.744 12.54 297.051 12.54C297.138 12.54 297.218 12.5467 297.291 12.56C297.364 12.5667 297.438 12.5833 297.511 12.61V13.27C297.431 13.2433 297.344 13.2233 297.251 13.21C297.164 13.19 297.081 13.18 297.001 13.18C296.701 13.18 296.438 13.2667 296.211 13.44C295.991 13.6133 295.818 13.8567 295.691 14.17V17.5H294.961ZM300.334 17.58C299.88 17.58 299.474 17.47 299.114 17.25C298.754 17.03 298.47 16.73 298.264 16.35C298.057 15.97 297.954 15.54 297.954 15.06C297.954 14.58 298.057 14.15 298.264 13.77C298.47 13.39 298.754 13.09 299.114 12.87C299.474 12.65 299.88 12.54 300.334 12.54C300.78 12.54 301.18 12.65 301.534 12.87C301.894 13.09 302.177 13.39 302.384 13.77C302.59 14.15 302.694 14.58 302.694 15.06C302.694 15.54 302.59 15.97 302.384 16.35C302.177 16.73 301.894 17.03 301.534 17.25C301.18 17.47 300.78 17.58 300.334 17.58ZM300.324 16.94C300.644 16.94 300.927 16.86 301.174 16.7C301.42 16.5333 301.614 16.3067 301.754 16.02C301.9 15.7333 301.974 15.4133 301.974 15.06C301.974 14.7 301.9 14.38 301.754 14.1C301.614 13.8133 301.42 13.59 301.174 13.43C300.927 13.2633 300.644 13.18 300.324 13.18C300.004 13.18 299.72 13.2633 299.474 13.43C299.227 13.59 299.03 13.8133 298.884 14.1C298.744 14.38 298.674 14.7 298.674 15.06C298.674 15.4133 298.744 15.7333 298.884 16.02C299.03 16.3067 299.227 16.5333 299.474 16.7C299.72 16.86 300.004 16.94 300.324 16.94ZM306.235 19.69C305.908 19.69 305.578 19.6433 305.245 19.55C304.918 19.4633 304.615 19.34 304.335 19.18L304.645 18.62C304.945 18.7733 305.218 18.8867 305.465 18.96C305.711 19.0333 305.958 19.07 306.205 19.07C306.651 19.07 306.988 18.9633 307.215 18.75C307.448 18.5367 307.565 18.2267 307.565 17.82V16.84C307.378 17.0733 307.151 17.2533 306.885 17.38C306.618 17.5 306.325 17.56 306.005 17.56C305.585 17.56 305.205 17.45 304.865 17.23C304.525 17.0033 304.255 16.7033 304.055 16.33C303.855 15.95 303.755 15.5267 303.755 15.06C303.755 14.5933 303.855 14.1733 304.055 13.8C304.261 13.42 304.538 13.12 304.885 12.9C305.231 12.6733 305.618 12.56 306.045 12.56C306.351 12.56 306.635 12.62 306.895 12.74C307.155 12.8533 307.381 13.0233 307.575 13.25V12.62H308.295V17.81C308.295 18.4167 308.118 18.88 307.765 19.2C307.411 19.5267 306.901 19.69 306.235 19.69ZM306.185 16.93C306.471 16.93 306.735 16.8733 306.975 16.76C307.215 16.64 307.411 16.4767 307.565 16.27V13.86C307.405 13.6533 307.201 13.4933 306.955 13.38C306.715 13.26 306.458 13.2 306.185 13.2C305.858 13.2 305.565 13.28 305.305 13.44C305.051 13.6 304.848 13.82 304.695 14.1C304.548 14.38 304.475 14.7 304.475 15.06C304.475 15.4133 304.548 15.7333 304.695 16.02C304.848 16.3 305.051 16.5233 305.305 16.69C305.565 16.85 305.858 16.93 306.185 16.93ZM309.795 17.5V12.62H310.525V13.62C310.652 13.28 310.832 13.0167 311.065 12.83C311.305 12.6367 311.578 12.54 311.885 12.54C311.972 12.54 312.052 12.5467 312.125 12.56C312.198 12.5667 312.272 12.5833 312.345 12.61V13.27C312.265 13.2433 312.178 13.2233 312.085 13.21C311.998 13.19 311.915 13.18 311.835 13.18C311.535 13.18 311.272 13.2667 311.045 13.44C310.825 13.6133 310.652 13.8567 310.525 14.17V17.5H309.795ZM315.208 17.6C314.754 17.6 314.344 17.49 313.978 17.27C313.611 17.0433 313.321 16.74 313.108 16.36C312.894 15.9733 312.788 15.54 312.788 15.06C312.788 14.58 312.888 14.15 313.088 13.77C313.294 13.39 313.571 13.09 313.918 12.87C314.264 12.65 314.651 12.54 315.078 12.54C315.511 12.54 315.894 12.65 316.228 12.87C316.568 13.0833 316.834 13.3767 317.028 13.75C317.228 14.1167 317.328 14.5333 317.328 15V15.22H313.498C313.524 15.5533 313.614 15.8533 313.768 16.12C313.928 16.38 314.134 16.5867 314.388 16.74C314.648 16.8867 314.931 16.96 315.238 16.96C315.491 16.96 315.734 16.9167 315.968 16.83C316.208 16.7367 316.411 16.6133 316.578 16.46L317.038 16.95C316.758 17.17 316.468 17.3333 316.168 17.44C315.868 17.5467 315.548 17.6 315.208 17.6ZM313.518 14.7H316.608C316.574 14.4067 316.484 14.1467 316.338 13.92C316.198 13.6867 316.018 13.5033 315.798 13.37C315.584 13.2367 315.344 13.17 315.078 13.17C314.811 13.17 314.568 13.2367 314.348 13.37C314.128 13.4967 313.944 13.6767 313.798 13.91C313.658 14.1367 313.564 14.4 313.518 14.7ZM320.133 17.6C319.733 17.6 319.363 17.54 319.023 17.42C318.683 17.2933 318.393 17.1133 318.153 16.88L318.543 16.4C318.836 16.6133 319.106 16.77 319.353 16.87C319.6 16.9633 319.853 17.01 320.113 17.01C320.466 17.01 320.76 16.9267 320.993 16.76C321.226 16.5933 321.343 16.38 321.343 16.12C321.343 15.92 321.273 15.7633 321.133 15.65C321 15.5367 320.776 15.45 320.463 15.39L319.663 15.25C319.19 15.1633 318.84 15.0167 318.613 14.81C318.393 14.6033 318.283 14.3233 318.283 13.97C318.283 13.69 318.356 13.4433 318.503 13.23C318.656 13.0167 318.866 12.85 319.133 12.73C319.4 12.6033 319.703 12.54 320.043 12.54C320.376 12.54 320.693 12.59 320.993 12.69C321.293 12.7833 321.596 12.9367 321.903 13.15L321.543 13.66C321.29 13.48 321.036 13.35 320.783 13.27C320.53 13.1833 320.273 13.14 320.013 13.14C319.693 13.14 319.436 13.21 319.243 13.35C319.05 13.49 318.953 13.68 318.953 13.92C318.953 14.12 319.013 14.2733 319.133 14.38C319.26 14.4867 319.48 14.5667 319.793 14.62L320.613 14.77C321.106 14.8567 321.466 15.0067 321.693 15.22C321.92 15.4333 322.033 15.72 322.033 16.08C322.033 16.3667 321.95 16.6267 321.783 16.86C321.616 17.0867 321.39 17.2667 321.103 17.4C320.816 17.5333 320.493 17.6 320.133 17.6ZM324.655 17.6C324.255 17.6 323.885 17.54 323.545 17.42C323.205 17.2933 322.915 17.1133 322.675 16.88L323.065 16.4C323.358 16.6133 323.628 16.77 323.875 16.87C324.121 16.9633 324.375 17.01 324.635 17.01C324.988 17.01 325.281 16.9267 325.515 16.76C325.748 16.5933 325.865 16.38 325.865 16.12C325.865 15.92 325.795 15.7633 325.655 15.65C325.521 15.5367 325.298 15.45 324.985 15.39L324.185 15.25C323.711 15.1633 323.361 15.0167 323.135 14.81C322.915 14.6033 322.805 14.3233 322.805 13.97C322.805 13.69 322.878 13.4433 323.025 13.23C323.178 13.0167 323.388 12.85 323.655 12.73C323.921 12.6033 324.225 12.54 324.565 12.54C324.898 12.54 325.215 12.59 325.515 12.69C325.815 12.7833 326.118 12.9367 326.425 13.15L326.065 13.66C325.811 13.48 325.558 13.35 325.305 13.27C325.051 13.1833 324.795 13.14 324.535 13.14C324.215 13.14 323.958 13.21 323.765 13.35C323.571 13.49 323.475 13.68 323.475 13.92C323.475 14.12 323.535 14.2733 323.655 14.38C323.781 14.4867 324.001 14.5667 324.315 14.62L325.135 14.77C325.628 14.8567 325.988 15.0067 326.215 15.22C326.441 15.4333 326.555 15.72 326.555 16.08C326.555 16.3667 326.471 16.6267 326.305 16.86C326.138 17.0867 325.911 17.2667 325.625 17.4C325.338 17.5333 325.015 17.6 324.655 17.6Z" fill="#ECE6FF"/>
<line x1="278" y1="21.5" x2="337" y2="21.5" stroke="#ECE6FF" stroke-dasharray="3 2"/>
<rect x="113.5" y="0.5" width="104" height="28" rx="14" fill="#21134D"/>
<rect x="113.5" y="0.5" width="104" height="28" rx="14" stroke="#5E40BE"/>
<g clip-path="url(#clip6_4041_6216)">
<path d="M129 6.5C128.735 6.5 128.465 6.515 128.2 6.54C127.925 6.565 127.725 6.81 127.75 7.085C127.775 7.345 127.995 7.535 128.245 7.535C128.26 7.535 128.28 7.535 128.295 7.535C128.525 7.51 128.76 7.5 128.995 7.5C132.855 7.5 135.995 10.64 135.995 14.5C135.995 18.36 132.855 21.5 128.995 21.5C128.765 21.5 128.525 21.49 128.295 21.465C128.025 21.44 127.775 21.64 127.75 21.915C127.725 22.19 127.925 22.435 128.2 22.46C128.465 22.485 128.735 22.5 129 22.5C133.41 22.5 137 18.91 137 14.5C137 10.09 133.41 6.5 129 6.5Z" fill="#B6A6E9"/>
<path d="M128.355 17.3552L132.855 12.8552C133.05 12.6602 133.05 12.3452 132.855 12.1502C132.66 11.9552 132.345 11.9552 132.15 12.1502L128.005 16.2952L125.86 14.1502C125.665 13.9552 125.35 13.9552 125.155 14.1502C124.96 14.3452 124.96 14.6602 125.155 14.8552L127.655 17.3552C127.755 17.4552 127.88 17.5002 128.01 17.5002C128.14 17.5002 128.265 17.4502 128.365 17.3552H128.355Z" fill="#B6A6E9"/>
<path d="M121.545 13.49C121.585 13.5 121.625 13.5 121.66 13.5C121.92 13.5 122.155 13.32 122.21 13.055C122.31 12.58 122.46 12.115 122.66 11.67C122.785 11.385 122.66 11.055 122.375 10.925C122.09 10.795 121.76 10.925 121.63 11.21C121.4 11.725 121.225 12.265 121.105 12.82C121.04 13.125 121.235 13.425 121.54 13.485L121.545 13.49Z" fill="#B6A6E9"/>
<path d="M122.215 15.9499C122.15 15.6449 121.85 15.4499 121.55 15.5149C121.245 15.5799 121.05 15.8799 121.115 16.1799C121.23 16.7299 121.41 17.2749 121.64 17.7899C121.735 17.9999 121.94 18.1249 122.155 18.1249C122.23 18.1249 122.31 18.1099 122.385 18.0749C122.67 17.9499 122.795 17.6149 122.67 17.3299C122.47 16.8899 122.32 16.4249 122.22 15.9499H122.215Z" fill="#B6A6E9"/>
<path d="M123.99 9.48021C124.125 9.48021 124.26 9.43521 124.365 9.33521C124.725 9.01021 125.12 8.72521 125.545 8.48021C125.815 8.32521 125.905 7.98021 125.75 7.71021C125.595 7.44021 125.25 7.34521 124.98 7.50521C124.49 7.78521 124.03 8.12021 123.61 8.49521C123.38 8.70521 123.36 9.06021 123.57 9.29021C123.68 9.41521 123.835 9.47521 123.99 9.47521V9.48021Z" fill="#B6A6E9"/>
<path d="M125.55 20.5202C125.13 20.2802 124.73 19.9902 124.37 19.6652C124.14 19.4602 123.785 19.4752 123.575 19.7102C123.365 19.9402 123.385 20.2952 123.62 20.5052C124.04 20.8802 124.5 21.2152 124.99 21.4952C125.08 21.5452 125.175 21.5702 125.27 21.5702C125.465 21.5702 125.655 21.4702 125.76 21.2902C125.915 21.0202 125.82 20.6752 125.55 20.5202Z" fill="#B6A6E9"/>
</g>
<path d="M142.232 19V9.2H143.31V19H142.232ZM145.591 19V12.168H146.613V13.274C146.874 12.8633 147.187 12.56 147.551 12.364C147.915 12.1587 148.326 12.056 148.783 12.056C149.278 12.056 149.707 12.1633 150.071 12.378C150.444 12.5833 150.734 12.8773 150.939 13.26C151.154 13.6333 151.261 14.072 151.261 14.576V19H150.239V14.87C150.239 14.2633 150.071 13.7873 149.735 13.442C149.408 13.0873 148.965 12.91 148.405 12.91C148.032 12.91 147.691 12.9987 147.383 13.176C147.075 13.3533 146.818 13.6147 146.613 13.96V19H145.591ZM156.583 21.926V12.168H157.591V13.148C157.853 12.8027 158.17 12.5413 158.543 12.364C158.926 12.1773 159.346 12.084 159.803 12.084C160.401 12.084 160.933 12.2427 161.399 12.56C161.875 12.868 162.253 13.288 162.533 13.82C162.813 14.3427 162.953 14.9307 162.953 15.584C162.953 16.2373 162.809 16.83 162.519 17.362C162.239 17.894 161.857 18.3187 161.371 18.636C160.895 18.944 160.354 19.098 159.747 19.098C159.318 19.098 158.921 19.0187 158.557 18.86C158.193 18.692 157.876 18.454 157.605 18.146V21.926H156.583ZM159.551 18.216C160.009 18.216 160.415 18.104 160.769 17.88C161.133 17.6467 161.418 17.334 161.623 16.942C161.838 16.5407 161.945 16.0927 161.945 15.598C161.945 15.094 161.838 14.646 161.623 14.254C161.418 13.862 161.133 13.554 160.769 13.33C160.415 13.0967 160.009 12.98 159.551 12.98C159.15 12.98 158.777 13.064 158.431 13.232C158.095 13.3907 157.82 13.6193 157.605 13.918V17.264C157.829 17.5627 158.109 17.796 158.445 17.964C158.791 18.132 159.159 18.216 159.551 18.216ZM164.745 19V12.168H165.767V13.568C165.945 13.092 166.197 12.7233 166.523 12.462C166.859 12.1913 167.242 12.056 167.671 12.056C167.793 12.056 167.905 12.0653 168.007 12.084C168.11 12.0933 168.213 12.1167 168.315 12.154V13.078C168.203 13.0407 168.082 13.0127 167.951 12.994C167.83 12.966 167.713 12.952 167.601 12.952C167.181 12.952 166.813 13.0733 166.495 13.316C166.187 13.5587 165.945 13.8993 165.767 14.338V19H164.745ZM172.267 19.112C171.633 19.112 171.063 18.958 170.559 18.65C170.055 18.342 169.659 17.922 169.369 17.39C169.08 16.858 168.935 16.256 168.935 15.584C168.935 14.912 169.08 14.31 169.369 13.778C169.659 13.246 170.055 12.826 170.559 12.518C171.063 12.21 171.633 12.056 172.267 12.056C172.893 12.056 173.453 12.21 173.947 12.518C174.451 12.826 174.848 13.246 175.137 13.778C175.427 14.31 175.571 14.912 175.571 15.584C175.571 16.256 175.427 16.858 175.137 17.39C174.848 17.922 174.451 18.342 173.947 18.65C173.453 18.958 172.893 19.112 172.267 19.112ZM172.253 18.216C172.701 18.216 173.098 18.104 173.443 17.88C173.789 17.6467 174.059 17.3293 174.255 16.928C174.461 16.5267 174.563 16.0787 174.563 15.584C174.563 15.08 174.461 14.632 174.255 14.24C174.059 13.8387 173.789 13.526 173.443 13.302C173.098 13.0687 172.701 12.952 172.253 12.952C171.805 12.952 171.409 13.0687 171.063 13.302C170.718 13.526 170.443 13.8387 170.237 14.24C170.041 14.632 169.943 15.08 169.943 15.584C169.943 16.0787 170.041 16.5267 170.237 16.928C170.443 17.3293 170.718 17.6467 171.063 17.88C171.409 18.104 171.805 18.216 172.253 18.216ZM180.528 22.066C180.071 22.066 179.609 22.0007 179.142 21.87C178.685 21.7487 178.26 21.576 177.868 21.352L178.302 20.568C178.722 20.7827 179.105 20.9413 179.45 21.044C179.796 21.1467 180.141 21.198 180.486 21.198C181.112 21.198 181.583 21.0487 181.9 20.75C182.227 20.4513 182.39 20.0173 182.39 19.448V18.076C182.129 18.4027 181.812 18.6547 181.438 18.832C181.065 19 180.654 19.084 180.206 19.084C179.618 19.084 179.086 18.93 178.61 18.622C178.134 18.3047 177.756 17.8847 177.476 17.362C177.196 16.83 177.056 16.2373 177.056 15.584C177.056 14.9307 177.196 14.3427 177.476 13.82C177.766 13.288 178.153 12.868 178.638 12.56C179.124 12.2427 179.665 12.084 180.262 12.084C180.692 12.084 181.088 12.168 181.452 12.336C181.816 12.4947 182.134 12.7327 182.404 13.05V12.168H183.412V19.434C183.412 20.2833 183.165 20.932 182.67 21.38C182.176 21.8373 181.462 22.066 180.528 22.066ZM180.458 18.202C180.86 18.202 181.228 18.1227 181.564 17.964C181.9 17.796 182.176 17.5673 182.39 17.278V13.904C182.166 13.6147 181.882 13.3907 181.536 13.232C181.2 13.064 180.841 12.98 180.458 12.98C180.001 12.98 179.59 13.092 179.226 13.316C178.872 13.54 178.587 13.848 178.372 14.24C178.167 14.632 178.064 15.08 178.064 15.584C178.064 16.0787 178.167 16.5267 178.372 16.928C178.587 17.32 178.872 17.6327 179.226 17.866C179.59 18.09 180.001 18.202 180.458 18.202ZM185.513 19V12.168H186.535V13.568C186.712 13.092 186.964 12.7233 187.291 12.462C187.627 12.1913 188.01 12.056 188.439 12.056C188.56 12.056 188.672 12.0653 188.775 12.084C188.878 12.0933 188.98 12.1167 189.083 12.154V13.078C188.971 13.0407 188.85 13.0127 188.719 12.994C188.598 12.966 188.481 12.952 188.369 12.952C187.949 12.952 187.58 13.0733 187.263 13.316C186.955 13.5587 186.712 13.8993 186.535 14.338V19H185.513ZM193.091 19.14C192.456 19.14 191.882 18.986 191.369 18.678C190.856 18.3607 190.45 17.936 190.151 17.404C189.852 16.8627 189.703 16.256 189.703 15.584C189.703 14.912 189.843 14.31 190.123 13.778C190.412 13.246 190.8 12.826 191.285 12.518C191.77 12.21 192.312 12.056 192.909 12.056C193.516 12.056 194.052 12.21 194.519 12.518C194.995 12.8167 195.368 13.2273 195.639 13.75C195.919 14.2633 196.059 14.8467 196.059 15.5V15.808H190.697C190.734 16.2747 190.86 16.6947 191.075 17.068C191.299 17.432 191.588 17.7213 191.943 17.936C192.307 18.1413 192.704 18.244 193.133 18.244C193.488 18.244 193.828 18.1833 194.155 18.062C194.491 17.9313 194.776 17.7587 195.009 17.544L195.653 18.23C195.261 18.538 194.855 18.7667 194.435 18.916C194.015 19.0653 193.567 19.14 193.091 19.14ZM190.725 15.08H195.051C195.004 14.6693 194.878 14.3053 194.673 13.988C194.477 13.6613 194.225 13.4047 193.917 13.218C193.618 13.0313 193.282 12.938 192.909 12.938C192.536 12.938 192.195 13.0313 191.887 13.218C191.579 13.3953 191.322 13.6473 191.117 13.974C190.921 14.2913 190.79 14.66 190.725 15.08ZM199.986 19.14C199.426 19.14 198.908 19.056 198.432 18.888C197.956 18.7107 197.55 18.4587 197.214 18.132L197.76 17.46C198.171 17.7587 198.549 17.978 198.894 18.118C199.24 18.2487 199.594 18.314 199.958 18.314C200.453 18.314 200.864 18.1973 201.19 17.964C201.517 17.7307 201.68 17.432 201.68 17.068C201.68 16.788 201.582 16.5687 201.386 16.41C201.2 16.2513 200.887 16.13 200.448 16.046L199.328 15.85C198.666 15.7287 198.176 15.5233 197.858 15.234C197.55 14.9447 197.396 14.5527 197.396 14.058C197.396 13.666 197.499 13.3207 197.704 13.022C197.919 12.7233 198.213 12.49 198.586 12.322C198.96 12.1447 199.384 12.056 199.86 12.056C200.327 12.056 200.77 12.126 201.19 12.266C201.61 12.3967 202.035 12.6113 202.464 12.91L201.96 13.624C201.606 13.372 201.251 13.19 200.896 13.078C200.542 12.9567 200.182 12.896 199.818 12.896C199.37 12.896 199.011 12.994 198.74 13.19C198.47 13.386 198.334 13.652 198.334 13.988C198.334 14.268 198.418 14.4827 198.586 14.632C198.764 14.7813 199.072 14.8933 199.51 14.968L200.658 15.178C201.349 15.2993 201.853 15.5093 202.17 15.808C202.488 16.1067 202.646 16.508 202.646 17.012C202.646 17.4133 202.53 17.7773 202.296 18.104C202.063 18.4213 201.746 18.6733 201.344 18.86C200.943 19.0467 200.49 19.14 199.986 19.14ZM206.316 19.14C205.756 19.14 205.238 19.056 204.762 18.888C204.286 18.7107 203.88 18.4587 203.544 18.132L204.09 17.46C204.501 17.7587 204.879 17.978 205.224 18.118C205.57 18.2487 205.924 18.314 206.288 18.314C206.783 18.314 207.194 18.1973 207.52 17.964C207.847 17.7307 208.01 17.432 208.01 17.068C208.01 16.788 207.912 16.5687 207.716 16.41C207.53 16.2513 207.217 16.13 206.778 16.046L205.658 15.85C204.996 15.7287 204.506 15.5233 204.188 15.234C203.88 14.9447 203.726 14.5527 203.726 14.058C203.726 13.666 203.829 13.3207 204.034 13.022C204.249 12.7233 204.543 12.49 204.916 12.322C205.29 12.1447 205.714 12.056 206.19 12.056C206.657 12.056 207.1 12.126 207.52 12.266C207.94 12.3967 208.365 12.6113 208.794 12.91L208.29 13.624C207.936 13.372 207.581 13.19 207.226 13.078C206.872 12.9567 206.512 12.896 206.148 12.896C205.7 12.896 205.341 12.994 205.07 13.19C204.8 13.386 204.664 13.652 204.664 13.988C204.664 14.268 204.748 14.4827 204.916 14.632C205.094 14.7813 205.402 14.8933 205.84 14.968L206.988 15.178C207.679 15.2993 208.183 15.5093 208.5 15.808C208.818 16.1067 208.976 16.508 208.976 17.012C208.976 17.4133 208.86 17.7773 208.626 18.104C208.393 18.4213 208.076 18.6733 207.674 18.86C207.273 19.0467 206.82 19.14 206.316 19.14Z" fill="#ECE6FF"/>
<rect x="120" y="3" width="91" height="23" rx="3" stroke="#92C5F9" stroke-width="2"/>
<rect x="0.5" y="0.5" width="104" height="28" rx="14" fill="#21134D"/>
<rect x="0.5" y="0.5" width="104" height="28" rx="14" stroke="#5E40BE"/>
<g clip-path="url(#clip7_4041_6216)">
<path d="M15.9999 6.5C15.7349 6.5 15.4649 6.515 15.1999 6.54C14.9249 6.565 14.7249 6.81 14.7499 7.085C14.7749 7.345 14.9949 7.535 15.2449 7.535C15.2599 7.535 15.2799 7.535 15.2949 7.535C15.5249 7.51 15.7599 7.5 15.9949 7.5C19.8549 7.5 22.9949 10.64 22.9949 14.5C22.9949 18.36 19.8549 21.5 15.9949 21.5C15.7649 21.5 15.5249 21.49 15.2949 21.465C15.0249 21.44 14.7749 21.64 14.7499 21.915C14.7249 22.19 14.9249 22.435 15.1999 22.46C15.4649 22.485 15.7349 22.5 15.9999 22.5C20.4099 22.5 23.9999 18.91 23.9999 14.5C23.9999 10.09 20.4099 6.5 15.9999 6.5Z" fill="#B6A6E9"/>
<path d="M15.355 17.3552L19.855 12.8552C20.05 12.6602 20.05 12.3452 19.855 12.1502C19.66 11.9552 19.345 11.9552 19.15 12.1502L15.005 16.2952L12.86 14.1502C12.665 13.9552 12.35 13.9552 12.155 14.1502C11.96 14.3452 11.96 14.6602 12.155 14.8552L14.655 17.3552C14.755 17.4552 14.88 17.5002 15.01 17.5002C15.14 17.5002 15.265 17.4502 15.365 17.3552H15.355Z" fill="#B6A6E9"/>
<path d="M8.54503 13.49C8.58503 13.5 8.62503 13.5 8.66003 13.5C8.92003 13.5 9.15503 13.32 9.21003 13.055C9.31003 12.58 9.46003 12.115 9.66003 11.67C9.78503 11.385 9.66003 11.055 9.37503 10.925C9.09003 10.795 8.76003 10.925 8.63003 11.21C8.40003 11.725 8.22503 12.265 8.10503 12.82C8.04003 13.125 8.23503 13.425 8.54003 13.485L8.54503 13.49Z" fill="#B6A6E9"/>
<path d="M9.21504 15.9499C9.15004 15.6449 8.85004 15.4499 8.55004 15.5149C8.24504 15.5799 8.05004 15.8799 8.11504 16.1799C8.23004 16.7299 8.41004 17.2749 8.64004 17.7899C8.73504 17.9999 8.94004 18.1249 9.15504 18.1249C9.23004 18.1249 9.31004 18.1099 9.38504 18.0749C9.67004 17.9499 9.79504 17.6149 9.67004 17.3299C9.47004 16.8899 9.32004 16.4249 9.22004 15.9499H9.21504Z" fill="#B6A6E9"/>
<path d="M10.9901 9.48021C11.1251 9.48021 11.2601 9.43521 11.3651 9.33521C11.7251 9.01021 12.1201 8.72521 12.5451 8.48021C12.8151 8.32521 12.9051 7.98021 12.7501 7.71021C12.5951 7.44021 12.2501 7.34521 11.9801 7.50521C11.4901 7.78521 11.0301 8.12021 10.6101 8.49521C10.3801 8.70521 10.3601 9.06021 10.5701 9.29021C10.6801 9.41521 10.8351 9.47521 10.9901 9.47521V9.48021Z" fill="#B6A6E9"/>
<path d="M12.55 20.5202C12.13 20.2802 11.73 19.9902 11.37 19.6652C11.14 19.4602 10.785 19.4752 10.575 19.7102C10.365 19.9402 10.385 20.2952 10.62 20.5052C11.04 20.8802 11.5 21.2152 11.99 21.4952C12.08 21.5452 12.175 21.5702 12.27 21.5702C12.465 21.5702 12.655 21.4702 12.76 21.2902C12.915 21.0202 12.82 20.6752 12.55 20.5202Z" fill="#B6A6E9"/>
</g>
<path d="M29.232 19V9.2H30.31V19H29.232ZM32.591 19V12.168H33.613V13.274C33.8743 12.8633 34.187 12.56 34.551 12.364C34.915 12.1587 35.3257 12.056 35.783 12.056C36.2777 12.056 36.707 12.1633 37.071 12.378C37.4443 12.5833 37.7337 12.8773 37.939 13.26C38.1537 13.6333 38.261 14.072 38.261 14.576V19H37.239V14.87C37.239 14.2633 37.071 13.7873 36.735 13.442C36.4083 13.0873 35.965 12.91 35.405 12.91C35.0317 12.91 34.691 12.9987 34.383 13.176C34.075 13.3533 33.8183 13.6147 33.613 13.96V19H32.591ZM43.5832 21.926V12.168H44.5912V13.148C44.8525 12.8027 45.1699 12.5413 45.5432 12.364C45.9259 12.1773 46.3459 12.084 46.8032 12.084C47.4005 12.084 47.9325 12.2427 48.3992 12.56C48.8752 12.868 49.2532 13.288 49.5332 13.82C49.8132 14.3427 49.9532 14.9307 49.9532 15.584C49.9532 16.2373 49.8085 16.83 49.5192 17.362C49.2392 17.894 48.8565 18.3187 48.3712 18.636C47.8952 18.944 47.3539 19.098 46.7472 19.098C46.3179 19.098 45.9212 19.0187 45.5572 18.86C45.1932 18.692 44.8759 18.454 44.6052 18.146V21.926H43.5832ZM46.5512 18.216C47.0085 18.216 47.4145 18.104 47.7692 17.88C48.1332 17.6467 48.4179 17.334 48.6232 16.942C48.8379 16.5407 48.9452 16.0927 48.9452 15.598C48.9452 15.094 48.8379 14.646 48.6232 14.254C48.4179 13.862 48.1332 13.554 47.7692 13.33C47.4145 13.0967 47.0085 12.98 46.5512 12.98C46.1499 12.98 45.7765 13.064 45.4312 13.232C45.0952 13.3907 44.8199 13.6193 44.6052 13.918V17.264C44.8292 17.5627 45.1092 17.796 45.4452 17.964C45.7905 18.132 46.1592 18.216 46.5512 18.216ZM51.7453 19V12.168H52.7673V13.568C52.9446 13.092 53.1966 12.7233 53.5233 12.462C53.8593 12.1913 54.242 12.056 54.6713 12.056C54.7926 12.056 54.9046 12.0653 55.0073 12.084C55.11 12.0933 55.2126 12.1167 55.3153 12.154V13.078C55.2033 13.0407 55.082 13.0127 54.9513 12.994C54.83 12.966 54.7133 12.952 54.6013 12.952C54.1813 12.952 53.8126 13.0733 53.4953 13.316C53.1873 13.5587 52.9446 13.8993 52.7673 14.338V19H51.7453ZM59.2674 19.112C58.6327 19.112 58.0634 18.958 57.5594 18.65C57.0554 18.342 56.6587 17.922 56.3694 17.39C56.08 16.858 55.9354 16.256 55.9354 15.584C55.9354 14.912 56.08 14.31 56.3694 13.778C56.6587 13.246 57.0554 12.826 57.5594 12.518C58.0634 12.21 58.6327 12.056 59.2674 12.056C59.8927 12.056 60.4527 12.21 60.9474 12.518C61.4514 12.826 61.848 13.246 62.1374 13.778C62.4267 14.31 62.5714 14.912 62.5714 15.584C62.5714 16.256 62.4267 16.858 62.1374 17.39C61.848 17.922 61.4514 18.342 60.9474 18.65C60.4527 18.958 59.8927 19.112 59.2674 19.112ZM59.2534 18.216C59.7014 18.216 60.098 18.104 60.4434 17.88C60.7887 17.6467 61.0594 17.3293 61.2554 16.928C61.4607 16.5267 61.5634 16.0787 61.5634 15.584C61.5634 15.08 61.4607 14.632 61.2554 14.24C61.0594 13.8387 60.7887 13.526 60.4434 13.302C60.098 13.0687 59.7014 12.952 59.2534 12.952C58.8054 12.952 58.4087 13.0687 58.0634 13.302C57.718 13.526 57.4427 13.8387 57.2374 14.24C57.0414 14.632 56.9434 15.08 56.9434 15.584C56.9434 16.0787 57.0414 16.5267 57.2374 16.928C57.4427 17.3293 57.718 17.6467 58.0634 17.88C58.4087 18.104 58.8054 18.216 59.2534 18.216ZM67.5285 22.066C67.0711 22.066 66.6091 22.0007 66.1425 21.87C65.6851 21.7487 65.2605 21.576 64.8685 21.352L65.3025 20.568C65.7225 20.7827 66.1051 20.9413 66.4505 21.044C66.7958 21.1467 67.1411 21.198 67.4865 21.198C68.1118 21.198 68.5831 21.0487 68.9005 20.75C69.2271 20.4513 69.3905 20.0173 69.3905 19.448V18.076C69.1291 18.4027 68.8118 18.6547 68.4385 18.832C68.0651 19 67.6545 19.084 67.2065 19.084C66.6185 19.084 66.0865 18.93 65.6105 18.622C65.1345 18.3047 64.7565 17.8847 64.4765 17.362C64.1965 16.83 64.0565 16.2373 64.0565 15.584C64.0565 14.9307 64.1965 14.3427 64.4765 13.82C64.7658 13.288 65.1531 12.868 65.6385 12.56C66.1238 12.2427 66.6651 12.084 67.2625 12.084C67.6918 12.084 68.0885 12.168 68.4525 12.336C68.8165 12.4947 69.1338 12.7327 69.4045 13.05V12.168H70.4125V19.434C70.4125 20.2833 70.1651 20.932 69.6705 21.38C69.1758 21.8373 68.4618 22.066 67.5285 22.066ZM67.4585 18.202C67.8598 18.202 68.2285 18.1227 68.5645 17.964C68.9005 17.796 69.1758 17.5673 69.3905 17.278V13.904C69.1665 13.6147 68.8818 13.3907 68.5365 13.232C68.2005 13.064 67.8411 12.98 67.4585 12.98C67.0011 12.98 66.5905 13.092 66.2265 13.316C65.8718 13.54 65.5871 13.848 65.3725 14.24C65.1671 14.632 65.0645 15.08 65.0645 15.584C65.0645 16.0787 65.1671 16.5267 65.3725 16.928C65.5871 17.32 65.8718 17.6327 66.2265 17.866C66.5905 18.09 67.0011 18.202 67.4585 18.202ZM72.5129 19V12.168H73.5349V13.568C73.7122 13.092 73.9642 12.7233 74.2909 12.462C74.6269 12.1913 75.0096 12.056 75.4389 12.056C75.5602 12.056 75.6722 12.0653 75.7749 12.084C75.8776 12.0933 75.9802 12.1167 76.0829 12.154V13.078C75.9709 13.0407 75.8496 13.0127 75.7189 12.994C75.5976 12.966 75.4809 12.952 75.3689 12.952C74.9489 12.952 74.5802 13.0733 74.2629 13.316C73.9549 13.5587 73.7122 13.8993 73.5349 14.338V19H72.5129ZM80.0909 19.14C79.4563 19.14 78.8823 18.986 78.3689 18.678C77.8556 18.3607 77.4496 17.936 77.1509 17.404C76.8523 16.8627 76.7029 16.256 76.7029 15.584C76.7029 14.912 76.8429 14.31 77.1229 13.778C77.4123 13.246 77.7996 12.826 78.2849 12.518C78.7703 12.21 79.3116 12.056 79.9089 12.056C80.5156 12.056 81.0523 12.21 81.5189 12.518C81.9949 12.8167 82.3683 13.2273 82.6389 13.75C82.9189 14.2633 83.0589 14.8467 83.0589 15.5V15.808H77.6969C77.7343 16.2747 77.8603 16.6947 78.0749 17.068C78.2989 17.432 78.5883 17.7213 78.9429 17.936C79.3069 18.1413 79.7036 18.244 80.1329 18.244C80.4876 18.244 80.8283 18.1833 81.1549 18.062C81.4909 17.9313 81.7756 17.7587 82.0089 17.544L82.6529 18.23C82.2609 18.538 81.8549 18.7667 81.4349 18.916C81.0149 19.0653 80.5669 19.14 80.0909 19.14ZM77.7249 15.08H82.0509C82.0043 14.6693 81.8783 14.3053 81.6729 13.988C81.4769 13.6613 81.2249 13.4047 80.9169 13.218C80.6183 13.0313 80.2823 12.938 79.9089 12.938C79.5356 12.938 79.1949 13.0313 78.8869 13.218C78.5789 13.3953 78.3223 13.6473 78.1169 13.974C77.9209 14.2913 77.7903 14.66 77.7249 15.08ZM86.9863 19.14C86.4263 19.14 85.9083 19.056 85.4323 18.888C84.9563 18.7107 84.5503 18.4587 84.2143 18.132L84.7603 17.46C85.1709 17.7587 85.5489 17.978 85.8943 18.118C86.2396 18.2487 86.5943 18.314 86.9583 18.314C87.4529 18.314 87.8636 18.1973 88.1903 17.964C88.5169 17.7307 88.6803 17.432 88.6803 17.068C88.6803 16.788 88.5823 16.5687 88.3863 16.41C88.1996 16.2513 87.8869 16.13 87.4483 16.046L86.3283 15.85C85.6656 15.7287 85.1756 15.5233 84.8583 15.234C84.5503 14.9447 84.3963 14.5527 84.3963 14.058C84.3963 13.666 84.4989 13.3207 84.7043 13.022C84.9189 12.7233 85.2129 12.49 85.5863 12.322C85.9596 12.1447 86.3843 12.056 86.8603 12.056C87.3269 12.056 87.7703 12.126 88.1903 12.266C88.6103 12.3967 89.0349 12.6113 89.4643 12.91L88.9603 13.624C88.6056 13.372 88.2509 13.19 87.8963 13.078C87.5416 12.9567 87.1823 12.896 86.8183 12.896C86.3703 12.896 86.0109 12.994 85.7403 13.19C85.4696 13.386 85.3343 13.652 85.3343 13.988C85.3343 14.268 85.4183 14.4827 85.5863 14.632C85.7636 14.7813 86.0716 14.8933 86.5103 14.968L87.6583 15.178C88.3489 15.2993 88.8529 15.5093 89.1703 15.808C89.4876 16.1067 89.6463 16.508 89.6463 17.012C89.6463 17.4133 89.5296 17.7773 89.2963 18.104C89.0629 18.4213 88.7456 18.6733 88.3443 18.86C87.9429 19.0467 87.4903 19.14 86.9863 19.14ZM93.3163 19.14C92.7563 19.14 92.2383 19.056 91.7623 18.888C91.2863 18.7107 90.8803 18.4587 90.5443 18.132L91.0903 17.46C91.501 17.7587 91.879 17.978 92.2243 18.118C92.5697 18.2487 92.9243 18.314 93.2883 18.314C93.783 18.314 94.1937 18.1973 94.5203 17.964C94.847 17.7307 95.0103 17.432 95.0103 17.068C95.0103 16.788 94.9123 16.5687 94.7163 16.41C94.5297 16.2513 94.217 16.13 93.7783 16.046L92.6583 15.85C91.9957 15.7287 91.5057 15.5233 91.1883 15.234C90.8803 14.9447 90.7263 14.5527 90.7263 14.058C90.7263 13.666 90.829 13.3207 91.0343 13.022C91.249 12.7233 91.543 12.49 91.9163 12.322C92.2897 12.1447 92.7143 12.056 93.1903 12.056C93.657 12.056 94.1003 12.126 94.5203 12.266C94.9403 12.3967 95.365 12.6113 95.7943 12.91L95.2903 13.624C94.9357 13.372 94.581 13.19 94.2263 13.078C93.8717 12.9567 93.5123 12.896 93.1483 12.896C92.7003 12.896 92.341 12.994 92.0703 13.19C91.7997 13.386 91.6643 13.652 91.6643 13.988C91.6643 14.268 91.7483 14.4827 91.9163 14.632C92.0937 14.7813 92.4017 14.8933 92.8403 14.968L93.9883 15.178C94.679 15.2993 95.183 15.5093 95.5003 15.808C95.8177 16.1067 95.9763 16.508 95.9763 17.012C95.9763 17.4133 95.8597 17.7773 95.6263 18.104C95.393 18.4213 95.0757 18.6733 94.6743 18.86C94.273 19.0467 93.8203 19.14 93.3163 19.14Z" fill="#ECE6FF"/>
<line x1="28" y1="22.5" x2="97" y2="22.5" stroke="#ECE6FF" stroke-dasharray="3 2"/>
<defs>
<clipPath id="clip0_4041_6216">
<rect width="12" height="12" fill="white" transform="translate(875 8)"/>
</clipPath>
<clipPath id="clip1_4041_6216">
<rect width="12" height="12" fill="white" transform="translate(772 8)"/>
</clipPath>
<clipPath id="clip2_4041_6216">
<rect width="16" height="16" fill="white" transform="translate(633 6.5)"/>
</clipPath>
<clipPath id="clip3_4041_6216">
<rect width="16" height="16" fill="white" transform="translate(520 6.5)"/>
</clipPath>
<clipPath id="clip4_4041_6216">
<rect width="12" height="12" fill="white" transform="translate(363 8)"/>
</clipPath>
<clipPath id="clip5_4041_6216">
<rect width="12" height="12" fill="white" transform="translate(260 8)"/>
</clipPath>
<clipPath id="clip6_4041_6216">
<rect width="16" height="16" fill="white" transform="translate(121 6.5)"/>
</clipPath>
<clipPath id="clip7_4041_6216">
<rect width="16" height="16" fill="white" transform="translate(8 6.5)"/>
</clipPath>
</defs>
</svg>
