<svg width="420" height="29" viewBox="0 0 420 29" fill="none" xmlns="http://www.w3.org/2000/svg">
  <rect x="0.5" y="0.5" width="86" height="28" rx="14" fill="#FFF4CC" />
  <rect x="0.5" y="0.5" width="86" height="28" rx="14" stroke="#FFCC17" />
  <g clip-path="url(#clip0_2238_2364)">
    <path
      d="M23.715 20.375L16.645 8.125C16.51 7.895 16.265 7.75 15.995 7.75C15.73 7.75 15.48 7.895 15.345 8.125L8.26998 20.375C8.20498 20.49 8.16998 20.62 8.16998 20.75C8.16998 20.88 8.20498 21.01 8.26998 21.125C8.40498 21.355 8.65498 21.5 8.91998 21.5H23.065C23.33 21.5 23.58 21.355 23.715 21.125C23.78 21.01 23.815 20.88 23.815 20.75C23.815 20.62 23.78 20.49 23.715 20.375ZM15.375 12C15.375 11.655 15.655 11.375 16 11.375C16.345 11.375 16.625 11.655 16.625 12V15.5C16.625 15.845 16.345 16.125 16 16.125C15.655 16.125 15.375 15.845 15.375 15.5V12ZM16 19.75C15.585 19.75 15.25 19.415 15.25 19C15.25 18.585 15.585 18.25 16 18.25C16.415 18.25 16.75 18.585 16.75 19C16.75 19.415 16.415 19.75 16 19.75Z"
      fill="#B98412" />
  </g>
  <path
    d="M30.702 19L28.588 9.2H29.68L31.346 17.306L33.768 9.2H34.818L37.24 17.278L38.92 9.2H39.97L37.856 19H36.764L34.286 10.684L31.794 19H30.702ZM43.1679 19.126C42.6826 19.126 42.2532 19.0373 41.8799 18.86C41.5066 18.6827 41.2126 18.44 40.9979 18.132C40.7926 17.8147 40.6899 17.4507 40.6899 17.04C40.6899 16.6293 40.7972 16.2747 41.0119 15.976C41.2266 15.668 41.5252 15.43 41.9079 15.262C42.2906 15.094 42.7386 15.01 43.2519 15.01C43.6439 15.01 44.0126 15.052 44.3579 15.136C44.7126 15.22 45.0392 15.3553 45.3379 15.542V14.604C45.3379 14.044 45.1886 13.624 44.8899 13.344C44.5912 13.0547 44.1526 12.91 43.5739 12.91C43.2566 12.91 42.9299 12.9567 42.5939 13.05C42.2672 13.1433 41.9032 13.2927 41.5019 13.498L41.1239 12.714C42.0386 12.2753 42.8972 12.056 43.6999 12.056C44.5492 12.056 45.2026 12.266 45.6599 12.686C46.1172 13.0967 46.3459 13.6893 46.3459 14.464V19H45.3379V18.202C45.0392 18.51 44.7079 18.7433 44.3439 18.902C43.9799 19.0513 43.5879 19.126 43.1679 19.126ZM41.6699 17.012C41.6699 17.4133 41.8239 17.7353 42.1319 17.978C42.4492 18.2207 42.8646 18.342 43.3779 18.342C43.7606 18.342 44.1106 18.2767 44.4279 18.146C44.7546 18.0153 45.0579 17.8193 45.3379 17.558V16.242C45.0486 16.074 44.7499 15.9527 44.4419 15.878C44.1339 15.794 43.7886 15.752 43.4059 15.752C42.8832 15.752 42.4632 15.8687 42.1459 16.102C41.8286 16.326 41.6699 16.6293 41.6699 17.012ZM48.423 19V12.168H49.445V13.568C49.6224 13.092 49.8744 12.7233 50.201 12.462C50.537 12.1913 50.9197 12.056 51.349 12.056C51.4704 12.056 51.5824 12.0653 51.685 12.084C51.7877 12.0933 51.8904 12.1167 51.993 12.154V13.078C51.881 13.0407 51.7597 13.0127 51.629 12.994C51.5077 12.966 51.391 12.952 51.279 12.952C50.859 12.952 50.4904 13.0733 50.173 13.316C49.865 13.5587 49.6224 13.8993 49.445 14.338V19H48.423ZM53.3449 19V12.168H54.3669V13.274C54.6283 12.8633 54.9409 12.56 55.3049 12.364C55.6689 12.1587 56.0796 12.056 56.5369 12.056C57.0316 12.056 57.4609 12.1633 57.8249 12.378C58.1983 12.5833 58.4876 12.8773 58.6929 13.26C58.9076 13.6333 59.0149 14.072 59.0149 14.576V19H57.9929V14.87C57.9929 14.2633 57.8249 13.7873 57.4889 13.442C57.1623 13.0873 56.7189 12.91 56.1589 12.91C55.7856 12.91 55.4449 12.9987 55.1369 13.176C54.8289 13.3533 54.5723 13.6147 54.3669 13.96V19H53.3449ZM61.0555 19V12.168H62.0775V19H61.0555ZM61.5735 10.474C61.3682 10.474 61.1909 10.404 61.0415 10.264C60.9015 10.1147 60.8315 9.942 60.8315 9.746C60.8315 9.55 60.9015 9.382 61.0415 9.242C61.1909 9.09267 61.3682 9.018 61.5735 9.018C61.7789 9.018 61.9515 9.09267 62.0915 9.242C62.2409 9.382 62.3155 9.55 62.3155 9.746C62.3155 9.942 62.2409 10.1147 62.0915 10.264C61.9515 10.404 61.7789 10.474 61.5735 10.474ZM64.173 19V12.168H65.195V13.274C65.4564 12.8633 65.769 12.56 66.133 12.364C66.497 12.1587 66.9077 12.056 67.365 12.056C67.8597 12.056 68.289 12.1633 68.653 12.378C69.0264 12.5833 69.3157 12.8773 69.521 13.26C69.7357 13.6333 69.843 14.072 69.843 14.576V19H68.821V14.87C68.821 14.2633 68.653 13.7873 68.317 13.442C67.9904 13.0873 67.547 12.91 66.987 12.91C66.6137 12.91 66.273 12.9987 65.965 13.176C65.657 13.3533 65.4004 13.6147 65.195 13.96V19H64.173ZM75.0617 22.066C74.6043 22.066 74.1423 22.0007 73.6757 21.87C73.2183 21.7487 72.7937 21.576 72.4017 21.352L72.8357 20.568C73.2557 20.7827 73.6383 20.9413 73.9837 21.044C74.329 21.1467 74.6743 21.198 75.0197 21.198C75.645 21.198 76.1163 21.0487 76.4337 20.75C76.7603 20.4513 76.9237 20.0173 76.9237 19.448V18.076C76.6623 18.4027 76.345 18.6547 75.9717 18.832C75.5983 19 75.1877 19.084 74.7397 19.084C74.1517 19.084 73.6197 18.93 73.1437 18.622C72.6677 18.3047 72.2897 17.8847 72.0097 17.362C71.7297 16.83 71.5897 16.2373 71.5897 15.584C71.5897 14.9307 71.7297 14.3427 72.0097 13.82C72.299 13.288 72.6863 12.868 73.1717 12.56C73.657 12.2427 74.1983 12.084 74.7957 12.084C75.225 12.084 75.6217 12.168 75.9857 12.336C76.3497 12.4947 76.667 12.7327 76.9377 13.05V12.168H77.9457V19.434C77.9457 20.2833 77.6983 20.932 77.2037 21.38C76.709 21.8373 75.995 22.066 75.0617 22.066ZM74.9917 18.202C75.393 18.202 75.7617 18.1227 76.0977 17.964C76.4337 17.796 76.709 17.5673 76.9237 17.278V13.904C76.6997 13.6147 76.415 13.3907 76.0697 13.232C75.7337 13.064 75.3743 12.98 74.9917 12.98C74.5343 12.98 74.1237 13.092 73.7597 13.316C73.405 13.54 73.1203 13.848 72.9057 14.24C72.7003 14.632 72.5977 15.08 72.5977 15.584C72.5977 16.0787 72.7003 16.5267 72.9057 16.928C73.1203 17.32 73.405 17.6327 73.7597 17.866C74.1237 18.09 74.5343 18.202 74.9917 18.202Z"
    fill="#73480B" />
  <rect x="95.5" y="0.5" width="59" height="28" rx="14" fill="white" />
  <rect x="95.5" y="0.5" width="59" height="28" rx="14" stroke="#C7C7C7" />
  <path
    d="M107.41 19.154C106.645 19.154 105.935 19.0187 105.282 18.748C104.629 18.468 103.999 18.048 103.392 17.488L104.05 16.704C104.638 17.2547 105.189 17.6467 105.702 17.88C106.225 18.1133 106.803 18.23 107.438 18.23C107.942 18.23 108.39 18.146 108.782 17.978C109.183 17.8007 109.496 17.5627 109.72 17.264C109.944 16.9653 110.056 16.6247 110.056 16.242C110.056 15.7473 109.893 15.374 109.566 15.122C109.239 14.8607 108.675 14.66 107.872 14.52L106.29 14.254C105.394 14.0953 104.736 13.8247 104.316 13.442C103.905 13.05 103.7 12.5273 103.7 11.874C103.7 11.3233 103.84 10.838 104.12 10.418C104.409 9.98867 104.806 9.65267 105.31 9.41C105.814 9.16733 106.397 9.046 107.06 9.046C107.788 9.046 108.465 9.14867 109.09 9.354C109.715 9.55 110.331 9.86267 110.938 10.292L110.378 11.132C109.874 10.7493 109.342 10.46 108.782 10.264C108.222 10.0587 107.653 9.956 107.074 9.956C106.617 9.956 106.211 10.0353 105.856 10.194C105.511 10.3527 105.235 10.5673 105.03 10.838C104.834 11.1087 104.736 11.4167 104.736 11.762C104.736 12.1913 104.881 12.5273 105.17 12.77C105.459 13.0127 105.931 13.1853 106.584 13.288L108.152 13.554C109.197 13.7407 109.953 14.044 110.42 14.464C110.896 14.8747 111.134 15.4487 111.134 16.186C111.134 16.7553 110.971 17.264 110.644 17.712C110.327 18.16 109.888 18.5147 109.328 18.776C108.768 19.028 108.129 19.154 107.41 19.154ZM112.759 19V12.168H113.781V19H112.759ZM113.277 10.474C113.071 10.474 112.894 10.404 112.745 10.264C112.605 10.1147 112.535 9.942 112.535 9.746C112.535 9.55 112.605 9.382 112.745 9.242C112.894 9.09267 113.071 9.018 113.277 9.018C113.482 9.018 113.655 9.09267 113.795 9.242C113.944 9.382 114.019 9.55 114.019 9.746C114.019 9.942 113.944 10.1147 113.795 10.264C113.655 10.404 113.482 10.474 113.277 10.474ZM119.04 22.066C118.583 22.066 118.121 22.0007 117.654 21.87C117.197 21.7487 116.772 21.576 116.38 21.352L116.814 20.568C117.234 20.7827 117.617 20.9413 117.962 21.044C118.308 21.1467 118.653 21.198 118.998 21.198C119.624 21.198 120.095 21.0487 120.412 20.75C120.739 20.4513 120.902 20.0173 120.902 19.448V18.076C120.641 18.4027 120.324 18.6547 119.95 18.832C119.577 19 119.166 19.084 118.718 19.084C118.13 19.084 117.598 18.93 117.122 18.622C116.646 18.3047 116.268 17.8847 115.988 17.362C115.708 16.83 115.568 16.2373 115.568 15.584C115.568 14.9307 115.708 14.3427 115.988 13.82C116.278 13.288 116.665 12.868 117.15 12.56C117.636 12.2427 118.177 12.084 118.774 12.084C119.204 12.084 119.6 12.168 119.964 12.336C120.328 12.4947 120.646 12.7327 120.916 13.05V12.168H121.924V19.434C121.924 20.2833 121.677 20.932 121.182 21.38C120.688 21.8373 119.974 22.066 119.04 22.066ZM118.97 18.202C119.372 18.202 119.74 18.1227 120.076 17.964C120.412 17.796 120.688 17.5673 120.902 17.278V13.904C120.678 13.6147 120.394 13.3907 120.048 13.232C119.712 13.064 119.353 12.98 118.97 12.98C118.513 12.98 118.102 13.092 117.738 13.316C117.384 13.54 117.099 13.848 116.884 14.24C116.679 14.632 116.576 15.08 116.576 15.584C116.576 16.0787 116.679 16.5267 116.884 16.928C117.099 17.32 117.384 17.6327 117.738 17.866C118.102 18.09 118.513 18.202 118.97 18.202ZM124.025 19V12.168H125.047V13.274C125.308 12.8633 125.621 12.56 125.985 12.364C126.349 12.1587 126.759 12.056 127.217 12.056C127.711 12.056 128.141 12.1633 128.505 12.378C128.878 12.5833 129.167 12.8773 129.373 13.26C129.587 13.6333 129.695 14.072 129.695 14.576V19H128.673V14.87C128.673 14.2633 128.505 13.7873 128.169 13.442C127.842 13.0873 127.399 12.91 126.839 12.91C126.465 12.91 126.125 12.9987 125.817 13.176C125.509 13.3533 125.252 13.6147 125.047 13.96V19H124.025ZM134.829 19.14C134.195 19.14 133.621 18.986 133.107 18.678C132.594 18.3607 132.188 17.936 131.889 17.404C131.591 16.8627 131.441 16.256 131.441 15.584C131.441 14.912 131.581 14.31 131.861 13.778C132.151 13.246 132.538 12.826 133.023 12.518C133.509 12.21 134.05 12.056 134.647 12.056C135.254 12.056 135.791 12.21 136.257 12.518C136.733 12.8167 137.107 13.2273 137.377 13.75C137.657 14.2633 137.797 14.8467 137.797 15.5V15.808H132.435C132.473 16.2747 132.599 16.6947 132.813 17.068C133.037 17.432 133.327 17.7213 133.681 17.936C134.045 18.1413 134.442 18.244 134.871 18.244C135.226 18.244 135.567 18.1833 135.893 18.062C136.229 17.9313 136.514 17.7587 136.747 17.544L137.391 18.23C136.999 18.538 136.593 18.7667 136.173 18.916C135.753 19.0653 135.305 19.14 134.829 19.14ZM132.463 15.08H136.789C136.743 14.6693 136.617 14.3053 136.411 13.988C136.215 13.6613 135.963 13.4047 135.655 13.218C135.357 13.0313 135.021 12.938 134.647 12.938C134.274 12.938 133.933 13.0313 133.625 13.218C133.317 13.3953 133.061 13.6473 132.855 13.974C132.659 14.2913 132.529 14.66 132.463 15.08ZM142.384 19.098C141.796 19.098 141.264 18.944 140.788 18.636C140.312 18.3187 139.934 17.8987 139.654 17.376C139.374 16.844 139.234 16.2513 139.234 15.598C139.234 14.9353 139.374 14.3427 139.654 13.82C139.944 13.288 140.331 12.868 140.816 12.56C141.302 12.2427 141.843 12.084 142.44 12.084C142.86 12.084 143.252 12.168 143.616 12.336C143.98 12.4947 144.298 12.728 144.568 13.036V8.892L145.59 8.682V19H144.568V18.09C144.307 18.4167 143.99 18.6687 143.616 18.846C143.243 19.014 142.832 19.098 142.384 19.098ZM142.636 18.202C143.038 18.202 143.406 18.1227 143.742 17.964C144.078 17.8053 144.354 17.5813 144.568 17.292V13.904C144.344 13.6147 144.06 13.3907 143.714 13.232C143.378 13.064 143.019 12.98 142.636 12.98C142.179 12.98 141.768 13.092 141.404 13.316C141.05 13.54 140.765 13.848 140.55 14.24C140.345 14.632 140.242 15.08 140.242 15.584C140.242 16.0787 140.345 16.5267 140.55 16.928C140.765 17.32 141.05 17.6327 141.404 17.866C141.768 18.09 142.179 18.202 142.636 18.202Z"
    fill="#3D7317" />
  <rect x="163.5" y="0.5" width="134" height="28" rx="14" fill="#E0F0FF" />
  <rect x="163.5" y="0.5" width="134" height="28" rx="14" stroke="#92C5F9" />
  <path
    d="M172.246 19V9.2H176.264C176.889 9.2 177.435 9.32133 177.902 9.564C178.369 9.79733 178.733 10.124 178.994 10.544C179.255 10.964 179.386 11.4587 179.386 12.028C179.386 12.6813 179.204 13.2413 178.84 13.708C178.476 14.1653 177.977 14.4873 177.342 14.674L179.428 19H178.238L176.25 14.814H173.324V19H172.246ZM173.324 13.918H176.18C176.824 13.918 177.337 13.75 177.72 13.414C178.112 13.0687 178.308 12.6113 178.308 12.042C178.308 11.4633 178.112 11.006 177.72 10.67C177.337 10.3247 176.824 10.152 176.18 10.152H173.324V13.918ZM183.839 19.14C183.204 19.14 182.63 18.986 182.117 18.678C181.604 18.3607 181.198 17.936 180.899 17.404C180.6 16.8627 180.451 16.256 180.451 15.584C180.451 14.912 180.591 14.31 180.871 13.778C181.16 13.246 181.548 12.826 182.033 12.518C182.518 12.21 183.06 12.056 183.657 12.056C184.264 12.056 184.8 12.21 185.267 12.518C185.743 12.8167 186.116 13.2273 186.387 13.75C186.667 14.2633 186.807 14.8467 186.807 15.5V15.808H181.445C181.482 16.2747 181.608 16.6947 181.823 17.068C182.047 17.432 182.336 17.7213 182.691 17.936C183.055 18.1413 183.452 18.244 183.881 18.244C184.236 18.244 184.576 18.1833 184.903 18.062C185.239 17.9313 185.524 17.7587 185.757 17.544L186.401 18.23C186.009 18.538 185.603 18.7667 185.183 18.916C184.763 19.0653 184.315 19.14 183.839 19.14ZM181.473 15.08H185.799C185.752 14.6693 185.626 14.3053 185.421 13.988C185.225 13.6613 184.973 13.4047 184.665 13.218C184.366 13.0313 184.03 12.938 183.657 12.938C183.284 12.938 182.943 13.0313 182.635 13.218C182.327 13.3953 182.07 13.6473 181.865 13.974C181.669 14.2913 181.538 14.66 181.473 15.08ZM191.394 19.098C190.806 19.098 190.274 18.944 189.798 18.636C189.322 18.3187 188.944 17.8987 188.664 17.376C188.384 16.844 188.244 16.2513 188.244 15.598C188.244 14.9353 188.384 14.3427 188.664 13.82C188.953 13.288 189.341 12.868 189.826 12.56C190.311 12.2427 190.853 12.084 191.45 12.084C191.87 12.084 192.262 12.168 192.626 12.336C192.99 12.4947 193.307 12.728 193.578 13.036V8.892L194.6 8.682V19H193.578V18.09C193.317 18.4167 192.999 18.6687 192.626 18.846C192.253 19.014 191.842 19.098 191.394 19.098ZM191.646 18.202C192.047 18.202 192.416 18.1227 192.752 17.964C193.088 17.8053 193.363 17.5813 193.578 17.292V13.904C193.354 13.6147 193.069 13.3907 192.724 13.232C192.388 13.064 192.029 12.98 191.646 12.98C191.189 12.98 190.778 13.092 190.414 13.316C190.059 13.54 189.775 13.848 189.56 14.24C189.355 14.632 189.252 15.08 189.252 15.584C189.252 16.0787 189.355 16.5267 189.56 16.928C189.775 17.32 190.059 17.6327 190.414 17.866C190.778 18.09 191.189 18.202 191.646 18.202ZM200.15 19V9.2H201.228V13.582H206.856V9.2H207.934V19H206.856V14.548H201.228V19H200.15ZM212.199 19.126C211.714 19.126 211.284 19.0373 210.911 18.86C210.538 18.6827 210.244 18.44 210.029 18.132C209.824 17.8147 209.721 17.4507 209.721 17.04C209.721 16.6293 209.828 16.2747 210.043 15.976C210.258 15.668 210.556 15.43 210.939 15.262C211.322 15.094 211.77 15.01 212.283 15.01C212.675 15.01 213.044 15.052 213.389 15.136C213.744 15.22 214.07 15.3553 214.369 15.542V14.604C214.369 14.044 214.22 13.624 213.921 13.344C213.622 13.0547 213.184 12.91 212.605 12.91C212.288 12.91 211.961 12.9567 211.625 13.05C211.298 13.1433 210.934 13.2927 210.533 13.498L210.155 12.714C211.07 12.2753 211.928 12.056 212.731 12.056C213.58 12.056 214.234 12.266 214.691 12.686C215.148 13.0967 215.377 13.6893 215.377 14.464V19H214.369V18.202C214.07 18.51 213.739 18.7433 213.375 18.902C213.011 19.0513 212.619 19.126 212.199 19.126ZM210.701 17.012C210.701 17.4133 210.855 17.7353 211.163 17.978C211.48 18.2207 211.896 18.342 212.409 18.342C212.792 18.342 213.142 18.2767 213.459 18.146C213.786 18.0153 214.089 17.8193 214.369 17.558V16.242C214.08 16.074 213.781 15.9527 213.473 15.878C213.165 15.794 212.82 15.752 212.437 15.752C211.914 15.752 211.494 15.8687 211.177 16.102C210.86 16.326 210.701 16.6293 210.701 17.012ZM219.853 19.14C219.265 19.14 218.817 19 218.509 18.72C218.211 18.4307 218.061 18.0153 218.061 17.474V13.008H216.647V12.168H218.061V10.292L219.083 10.054V12.168H221.043V13.008H219.083V17.208C219.083 17.572 219.158 17.8333 219.307 17.992C219.466 18.1507 219.723 18.23 220.077 18.23C220.255 18.23 220.413 18.216 220.553 18.188C220.693 18.16 220.857 18.1133 221.043 18.048V18.958C220.857 19.0233 220.661 19.07 220.455 19.098C220.25 19.126 220.049 19.14 219.853 19.14ZM230.428 19.154C229.746 19.154 229.112 19.028 228.524 18.776C227.936 18.5147 227.418 18.1553 226.97 17.698C226.531 17.2313 226.186 16.6947 225.934 16.088C225.682 15.472 225.556 14.8093 225.556 14.1C225.556 13.3907 225.682 12.7327 225.934 12.126C226.186 11.51 226.531 10.9733 226.97 10.516C227.418 10.0493 227.936 9.69 228.524 9.438C229.112 9.17667 229.746 9.046 230.428 9.046C231.109 9.046 231.744 9.17667 232.332 9.438C232.92 9.69 233.433 10.0493 233.872 10.516C234.32 10.9733 234.67 11.51 234.922 12.126C235.174 12.7327 235.3 13.3907 235.3 14.1C235.3 14.8093 235.174 15.472 234.922 16.088C234.67 16.6947 234.32 17.2313 233.872 17.698C233.433 18.1553 232.92 18.5147 232.332 18.776C231.744 19.028 231.109 19.154 230.428 19.154ZM230.428 18.174C230.96 18.174 231.454 18.0713 231.912 17.866C232.369 17.6607 232.77 17.3713 233.116 16.998C233.461 16.6247 233.727 16.1907 233.914 15.696C234.11 15.2013 234.208 14.6693 234.208 14.1C234.208 13.5213 234.11 12.9893 233.914 12.504C233.727 12.0093 233.461 11.5753 233.116 11.202C232.77 10.8287 232.369 10.5393 231.912 10.334C231.454 10.1287 230.96 10.026 230.428 10.026C229.896 10.026 229.401 10.1287 228.944 10.334C228.486 10.5393 228.085 10.8287 227.74 11.202C227.394 11.5753 227.124 12.0093 226.928 12.504C226.741 12.9893 226.648 13.5167 226.648 14.086C226.648 14.6647 226.741 15.2013 226.928 15.696C227.124 16.1907 227.394 16.6247 227.74 16.998C228.085 17.3713 228.486 17.6607 228.944 17.866C229.401 18.0713 229.896 18.174 230.428 18.174ZM237.142 21.926V12.168H238.15V13.148C238.411 12.8027 238.728 12.5413 239.102 12.364C239.484 12.1773 239.904 12.084 240.362 12.084C240.959 12.084 241.491 12.2427 241.958 12.56C242.434 12.868 242.812 13.288 243.092 13.82C243.372 14.3427 243.512 14.9307 243.512 15.584C243.512 16.2373 243.367 16.83 243.078 17.362C242.798 17.894 242.415 18.3187 241.93 18.636C241.454 18.944 240.912 19.098 240.306 19.098C239.876 19.098 239.48 19.0187 239.116 18.86C238.752 18.692 238.434 18.454 238.164 18.146V21.926H237.142ZM240.11 18.216C240.567 18.216 240.973 18.104 241.328 17.88C241.692 17.6467 241.976 17.334 242.182 16.942C242.396 16.5407 242.504 16.0927 242.504 15.598C242.504 15.094 242.396 14.646 242.182 14.254C241.976 13.862 241.692 13.554 241.328 13.33C240.973 13.0967 240.567 12.98 240.11 12.98C239.708 12.98 239.335 13.064 238.99 13.232C238.654 13.3907 238.378 13.6193 238.164 13.918V17.264C238.388 17.5627 238.668 17.796 239.004 17.964C239.349 18.132 239.718 18.216 240.11 18.216ZM248.384 19.14C247.749 19.14 247.175 18.986 246.662 18.678C246.149 18.3607 245.743 17.936 245.444 17.404C245.145 16.8627 244.996 16.256 244.996 15.584C244.996 14.912 245.136 14.31 245.416 13.778C245.705 13.246 246.093 12.826 246.578 12.518C247.063 12.21 247.605 12.056 248.202 12.056C248.809 12.056 249.345 12.21 249.812 12.518C250.288 12.8167 250.661 13.2273 250.932 13.75C251.212 14.2633 251.352 14.8467 251.352 15.5V15.808H245.99C246.027 16.2747 246.153 16.6947 246.368 17.068C246.592 17.432 246.881 17.7213 247.236 17.936C247.6 18.1413 247.997 18.244 248.426 18.244C248.781 18.244 249.121 18.1833 249.448 18.062C249.784 17.9313 250.069 17.7587 250.302 17.544L250.946 18.23C250.554 18.538 250.148 18.7667 249.728 18.916C249.308 19.0653 248.86 19.14 248.384 19.14ZM246.018 15.08H250.344C250.297 14.6693 250.171 14.3053 249.966 13.988C249.77 13.6613 249.518 13.4047 249.21 13.218C248.911 13.0313 248.575 12.938 248.202 12.938C247.829 12.938 247.488 13.0313 247.18 13.218C246.872 13.3953 246.615 13.6473 246.41 13.974C246.214 14.2913 246.083 14.66 246.018 15.08ZM253.097 19V12.168H254.119V13.274C254.38 12.8633 254.693 12.56 255.057 12.364C255.421 12.1587 255.832 12.056 256.289 12.056C256.784 12.056 257.213 12.1633 257.577 12.378C257.95 12.5833 258.24 12.8773 258.445 13.26C258.66 13.6333 258.767 14.072 258.767 14.576V19H257.745V14.87C257.745 14.2633 257.577 13.7873 257.241 13.442C256.914 13.0873 256.471 12.91 255.911 12.91C255.538 12.91 255.197 12.9987 254.889 13.176C254.581 13.3533 254.324 13.6147 254.119 13.96V19H253.097ZM264.181 19.154C263.416 19.154 262.707 19.0187 262.053 18.748C261.4 18.468 260.77 18.048 260.163 17.488L260.821 16.704C261.409 17.2547 261.96 17.6467 262.473 17.88C262.996 18.1133 263.575 18.23 264.209 18.23C264.713 18.23 265.161 18.146 265.553 17.978C265.955 17.8007 266.267 17.5627 266.491 17.264C266.715 16.9653 266.827 16.6247 266.827 16.242C266.827 15.7473 266.664 15.374 266.337 15.122C266.011 14.8607 265.446 14.66 264.643 14.52L263.061 14.254C262.165 14.0953 261.507 13.8247 261.087 13.442C260.677 13.05 260.471 12.5273 260.471 11.874C260.471 11.3233 260.611 10.838 260.891 10.418C261.181 9.98867 261.577 9.65267 262.081 9.41C262.585 9.16733 263.169 9.046 263.831 9.046C264.559 9.046 265.236 9.14867 265.861 9.354C266.487 9.55 267.103 9.86267 267.709 10.292L267.149 11.132C266.645 10.7493 266.113 10.46 265.553 10.264C264.993 10.0587 264.424 9.956 263.845 9.956C263.388 9.956 262.982 10.0353 262.627 10.194C262.282 10.3527 262.007 10.5673 261.801 10.838C261.605 11.1087 261.507 11.4167 261.507 11.762C261.507 12.1913 261.652 12.5273 261.941 12.77C262.231 13.0127 262.702 13.1853 263.355 13.288L264.923 13.554C265.969 13.7407 266.725 14.044 267.191 14.464C267.667 14.8747 267.905 15.4487 267.905 16.186C267.905 16.7553 267.742 17.264 267.415 17.712C267.098 18.16 266.659 18.5147 266.099 18.776C265.539 19.028 264.9 19.154 264.181 19.154ZM269.544 19V8.892L270.566 8.682V13.274C270.827 12.8633 271.14 12.56 271.504 12.364C271.868 12.1587 272.279 12.056 272.736 12.056C273.231 12.056 273.66 12.1633 274.024 12.378C274.397 12.5833 274.687 12.8773 274.892 13.26C275.107 13.6333 275.214 14.072 275.214 14.576V19H274.192V14.87C274.192 14.2633 274.024 13.7873 273.688 13.442C273.361 13.0873 272.918 12.91 272.358 12.91C271.985 12.91 271.644 12.9987 271.336 13.176C271.028 13.3533 270.771 13.6147 270.566 13.96V19H269.544ZM277.255 19V12.168H278.277V19H277.255ZM277.773 10.474C277.567 10.474 277.39 10.404 277.241 10.264C277.101 10.1147 277.031 9.942 277.031 9.746C277.031 9.55 277.101 9.382 277.241 9.242C277.39 9.09267 277.567 9.018 277.773 9.018C277.978 9.018 278.151 9.09267 278.291 9.242C278.44 9.382 278.515 9.55 278.515 9.746C278.515 9.942 278.44 10.1147 278.291 10.264C278.151 10.404 277.978 10.474 277.773 10.474ZM281.24 19V13.008H279.714V12.168H281.24V10.74C281.24 10.068 281.418 9.55 281.772 9.186C282.127 8.822 282.631 8.64 283.284 8.64C283.471 8.64 283.639 8.64933 283.788 8.668C283.947 8.68667 284.087 8.71933 284.208 8.766V9.69C284.059 9.64333 283.924 9.61067 283.802 9.592C283.681 9.57333 283.541 9.564 283.382 9.564C282.99 9.564 282.706 9.662 282.528 9.858C282.351 10.0447 282.262 10.3433 282.262 10.754V12.168H284.208V13.008H282.262V19H281.24ZM288.295 19.14C287.707 19.14 287.259 19 286.951 18.72C286.652 18.4307 286.503 18.0153 286.503 17.474V13.008H285.089V12.168H286.503V10.292L287.525 10.054V12.168H289.485V13.008H287.525V17.208C287.525 17.572 287.599 17.8333 287.749 17.992C287.907 18.1507 288.164 18.23 288.519 18.23C288.696 18.23 288.855 18.216 288.995 18.188C289.135 18.16 289.298 18.1133 289.485 18.048V18.958C289.298 19.0233 289.102 19.07 288.897 19.098C288.691 19.126 288.491 19.14 288.295 19.14Z"
    fill="#003366" />
  <rect x="306.5" y="0.5" width="113" height="28" rx="14" fill="white" />
  <rect x="306.5" y="0.5" width="113" height="28" rx="14" stroke="#C7C7C7" />
  <g clip-path="url(#clip1_2238_2364)">
    <path
      d="M322 6.5C317.59 6.5 314 10.09 314 14.5C314 18.91 317.59 22.5 322 22.5C326.41 22.5 330 18.91 330 14.5C330 10.09 326.41 6.5 322 6.5ZM321.375 11C321.375 10.655 321.655 10.375 322 10.375C322.345 10.375 322.625 10.655 322.625 11V15C322.625 15.345 322.345 15.625 322 15.625C321.655 15.625 321.375 15.345 321.375 15V11ZM322 19.255C321.585 19.255 321.25 18.92 321.25 18.505C321.25 18.09 321.585 17.755 322 17.755C322.415 17.755 322.75 18.09 322.75 18.505C322.75 18.92 322.415 19.255 322 19.255Z"
      fill="#EE0000" />
  </g>
  <path
    d="M339.768 19.154C339.068 19.154 338.415 19.028 337.808 18.776C337.211 18.5147 336.683 18.1553 336.226 17.698C335.769 17.2313 335.414 16.6947 335.162 16.088C334.91 15.472 334.784 14.8093 334.784 14.1C334.784 13.3907 334.91 12.7327 335.162 12.126C335.414 11.51 335.769 10.9733 336.226 10.516C336.683 10.0493 337.211 9.69 337.808 9.438C338.415 9.17667 339.068 9.046 339.768 9.046C340.253 9.046 340.715 9.11133 341.154 9.242C341.602 9.36333 342.022 9.54533 342.414 9.788C342.806 10.0213 343.156 10.3107 343.464 10.656L342.75 11.398C342.386 10.9593 341.938 10.6233 341.406 10.39C340.883 10.1473 340.337 10.026 339.768 10.026C339.217 10.026 338.704 10.1287 338.228 10.334C337.752 10.5393 337.337 10.8287 336.982 11.202C336.637 11.5753 336.366 12.0093 336.17 12.504C335.974 12.9893 335.876 13.5213 335.876 14.1C335.876 14.6693 335.974 15.2013 336.17 15.696C336.366 16.1907 336.637 16.6247 336.982 16.998C337.337 17.3713 337.752 17.6607 338.228 17.866C338.704 18.0713 339.217 18.174 339.768 18.174C340.337 18.174 340.883 18.0527 341.406 17.81C341.938 17.5673 342.386 17.2313 342.75 16.802L343.464 17.544C343.156 17.8893 342.806 18.1833 342.414 18.426C342.022 18.6593 341.602 18.8413 341.154 18.972C340.715 19.0933 340.253 19.154 339.768 19.154ZM345.208 19V12.168H346.23V13.568C346.408 13.092 346.66 12.7233 346.986 12.462C347.322 12.1913 347.705 12.056 348.134 12.056C348.256 12.056 348.368 12.0653 348.47 12.084C348.573 12.0933 348.676 12.1167 348.778 12.154V13.078C348.666 13.0407 348.545 13.0127 348.414 12.994C348.293 12.966 348.176 12.952 348.064 12.952C347.644 12.952 347.276 13.0733 346.958 13.316C346.65 13.5587 346.408 13.8993 346.23 14.338V19H345.208ZM350.116 19V12.168H351.138V19H350.116ZM350.634 10.474C350.429 10.474 350.251 10.404 350.102 10.264C349.962 10.1147 349.892 9.942 349.892 9.746C349.892 9.55 349.962 9.382 350.102 9.242C350.251 9.09267 350.429 9.018 350.634 9.018C350.839 9.018 351.012 9.09267 351.152 9.242C351.301 9.382 351.376 9.55 351.376 9.746C351.376 9.942 351.301 10.1147 351.152 10.264C351.012 10.404 350.839 10.474 350.634 10.474ZM355.838 19.14C355.25 19.14 354.802 19 354.494 18.72C354.195 18.4307 354.046 18.0153 354.046 17.474V13.008H352.632V12.168H354.046V10.292L355.068 10.054V12.168H357.028V13.008H355.068V17.208C355.068 17.572 355.142 17.8333 355.292 17.992C355.45 18.1507 355.707 18.23 356.062 18.23C356.239 18.23 356.398 18.216 356.538 18.188C356.678 18.16 356.841 18.1133 357.028 18.048V18.958C356.841 19.0233 356.645 19.07 356.44 19.098C356.234 19.126 356.034 19.14 355.838 19.14ZM358.511 19V12.168H359.533V19H358.511ZM359.029 10.474C358.823 10.474 358.646 10.404 358.497 10.264C358.357 10.1147 358.287 9.942 358.287 9.746C358.287 9.55 358.357 9.382 358.497 9.242C358.646 9.09267 358.823 9.018 359.029 9.018C359.234 9.018 359.407 9.09267 359.547 9.242C359.696 9.382 359.771 9.55 359.771 9.746C359.771 9.942 359.696 10.1147 359.547 10.264C359.407 10.404 359.234 10.474 359.029 10.474ZM364.694 19.112C364.059 19.112 363.485 18.958 362.972 18.65C362.468 18.3327 362.067 17.908 361.768 17.376C361.469 16.8347 361.32 16.2373 361.32 15.584C361.32 14.9213 361.469 14.324 361.768 13.792C362.067 13.26 362.468 12.84 362.972 12.532C363.485 12.2147 364.059 12.056 364.694 12.056C365.198 12.056 365.679 12.1493 366.136 12.336C366.593 12.5227 366.99 12.784 367.326 13.12L366.668 13.834C366.425 13.5633 366.131 13.3533 365.786 13.204C365.441 13.0547 365.091 12.98 364.736 12.98C364.288 12.98 363.882 13.0967 363.518 13.33C363.163 13.5633 362.879 13.876 362.664 14.268C362.449 14.66 362.342 15.0987 362.342 15.584C362.342 16.0693 362.449 16.508 362.664 16.9C362.879 17.292 363.163 17.6047 363.518 17.838C363.882 18.0713 364.288 18.188 364.736 18.188C365.091 18.188 365.441 18.1133 365.786 17.964C366.131 17.8053 366.425 17.5953 366.668 17.334L367.326 18.048C366.99 18.384 366.593 18.6453 366.136 18.832C365.679 19.0187 365.198 19.112 364.694 19.112ZM370.865 19.126C370.38 19.126 369.951 19.0373 369.577 18.86C369.204 18.6827 368.91 18.44 368.695 18.132C368.49 17.8147 368.387 17.4507 368.387 17.04C368.387 16.6293 368.495 16.2747 368.709 15.976C368.924 15.668 369.223 15.43 369.605 15.262C369.988 15.094 370.436 15.01 370.949 15.01C371.341 15.01 371.71 15.052 372.055 15.136C372.41 15.22 372.737 15.3553 373.035 15.542V14.604C373.035 14.044 372.886 13.624 372.587 13.344C372.289 13.0547 371.85 12.91 371.271 12.91C370.954 12.91 370.627 12.9567 370.291 13.05C369.965 13.1433 369.601 13.2927 369.199 13.498L368.821 12.714C369.736 12.2753 370.595 12.056 371.397 12.056C372.247 12.056 372.9 12.266 373.357 12.686C373.815 13.0967 374.043 13.6893 374.043 14.464V19H373.035V18.202C372.737 18.51 372.405 18.7433 372.041 18.902C371.677 19.0513 371.285 19.126 370.865 19.126ZM369.367 17.012C369.367 17.4133 369.521 17.7353 369.829 17.978C370.147 18.2207 370.562 18.342 371.075 18.342C371.458 18.342 371.808 18.2767 372.125 18.146C372.452 18.0153 372.755 17.8193 373.035 17.558V16.242C372.746 16.074 372.447 15.9527 372.139 15.878C371.831 15.794 371.486 15.752 371.103 15.752C370.581 15.752 370.161 15.8687 369.843 16.102C369.526 16.326 369.367 16.6293 369.367 17.012ZM376.12 19V8.892L377.142 8.682V19H376.12ZM385.585 19.14C384.95 19.14 384.376 18.986 383.863 18.678C383.35 18.3607 382.944 17.936 382.645 17.404C382.346 16.8627 382.197 16.256 382.197 15.584C382.197 14.912 382.337 14.31 382.617 13.778C382.906 13.246 383.294 12.826 383.779 12.518C384.264 12.21 384.806 12.056 385.403 12.056C386.01 12.056 386.546 12.21 387.013 12.518C387.489 12.8167 387.862 13.2273 388.133 13.75C388.413 14.2633 388.553 14.8467 388.553 15.5V15.808H383.191C383.228 16.2747 383.354 16.6947 383.569 17.068C383.793 17.432 384.082 17.7213 384.437 17.936C384.801 18.1413 385.198 18.244 385.627 18.244C385.982 18.244 386.322 18.1833 386.649 18.062C386.985 17.9313 387.27 17.7587 387.503 17.544L388.147 18.23C387.755 18.538 387.349 18.7667 386.929 18.916C386.509 19.0653 386.061 19.14 385.585 19.14ZM383.219 15.08H387.545C387.498 14.6693 387.372 14.3053 387.167 13.988C386.971 13.6613 386.719 13.4047 386.411 13.218C386.112 13.0313 385.776 12.938 385.403 12.938C385.03 12.938 384.689 13.0313 384.381 13.218C384.073 13.3953 383.816 13.6473 383.611 13.974C383.415 14.2913 383.284 14.66 383.219 15.08ZM390.298 19V12.168H391.32V13.568C391.497 13.092 391.749 12.7233 392.076 12.462C392.412 12.1913 392.795 12.056 393.224 12.056C393.345 12.056 393.457 12.0653 393.56 12.084C393.663 12.0933 393.765 12.1167 393.868 12.154V13.078C393.756 13.0407 393.635 13.0127 393.504 12.994C393.383 12.966 393.266 12.952 393.154 12.952C392.734 12.952 392.365 13.0733 392.048 13.316C391.74 13.5587 391.497 13.8993 391.32 14.338V19H390.298ZM395.22 19V12.168H396.242V13.568C396.419 13.092 396.671 12.7233 396.998 12.462C397.334 12.1913 397.717 12.056 398.146 12.056C398.267 12.056 398.379 12.0653 398.482 12.084C398.585 12.0933 398.687 12.1167 398.79 12.154V13.078C398.678 13.0407 398.557 13.0127 398.426 12.994C398.305 12.966 398.188 12.952 398.076 12.952C397.656 12.952 397.287 13.0733 396.97 13.316C396.662 13.5587 396.419 13.8993 396.242 14.338V19H395.22ZM402.742 19.112C402.107 19.112 401.538 18.958 401.034 18.65C400.53 18.342 400.133 17.922 399.844 17.39C399.555 16.858 399.41 16.256 399.41 15.584C399.41 14.912 399.555 14.31 399.844 13.778C400.133 13.246 400.53 12.826 401.034 12.518C401.538 12.21 402.107 12.056 402.742 12.056C403.367 12.056 403.927 12.21 404.422 12.518C404.926 12.826 405.323 13.246 405.612 13.778C405.901 14.31 406.046 14.912 406.046 15.584C406.046 16.256 405.901 16.858 405.612 17.39C405.323 17.922 404.926 18.342 404.422 18.65C403.927 18.958 403.367 19.112 402.742 19.112ZM402.728 18.216C403.176 18.216 403.573 18.104 403.918 17.88C404.263 17.6467 404.534 17.3293 404.73 16.928C404.935 16.5267 405.038 16.0787 405.038 15.584C405.038 15.08 404.935 14.632 404.73 14.24C404.534 13.8387 404.263 13.526 403.918 13.302C403.573 13.0687 403.176 12.952 402.728 12.952C402.28 12.952 401.883 13.0687 401.538 13.302C401.193 13.526 400.917 13.8387 400.712 14.24C400.516 14.632 400.418 15.08 400.418 15.584C400.418 16.0787 400.516 16.5267 400.712 16.928C400.917 17.3293 401.193 17.6467 401.538 17.88C401.883 18.104 402.28 18.216 402.728 18.216ZM407.839 19V12.168H408.861V13.568C409.038 13.092 409.29 12.7233 409.617 12.462C409.953 12.1913 410.336 12.056 410.765 12.056C410.886 12.056 410.998 12.0653 411.101 12.084C411.204 12.0933 411.306 12.1167 411.409 12.154V13.078C411.297 13.0407 411.176 13.0127 411.045 12.994C410.924 12.966 410.807 12.952 410.695 12.952C410.275 12.952 409.906 13.0733 409.589 13.316C409.281 13.5587 409.038 13.8993 408.861 14.338V19H407.839Z"
    fill="#A60000" />
  <defs>
    <clipPath id="clip0_2238_2364">
      <rect width="16" height="16" fill="white" transform="translate(8 6.5)" />
    </clipPath>
    <clipPath id="clip1_2238_2364">
      <rect width="16" height="16" fill="white" transform="translate(314 6.5)" />
    </clipPath>
  </defs>
</svg>