<svg width="482" height="143" viewBox="0 0 482 143" fill="none" xmlns="http://www.w3.org/2000/svg">
<path d="M1.704 47.3169V30.5169H4.224V37.7169H13.152V30.5169H15.672V47.3169H13.152V39.9969H4.224V47.3169H1.704ZM24.6626 47.5329C23.4626 47.5329 22.3746 47.2529 21.3986 46.6929C20.4386 46.1329 19.6706 45.3729 19.0946 44.4129C18.5346 43.4529 18.2546 42.3809 18.2546 41.1969C18.2546 40.0289 18.5266 38.9729 19.0706 38.0289C19.6146 37.0689 20.3506 36.3089 21.2786 35.7489C22.2066 35.1729 23.2386 34.8849 24.3746 34.8849C25.5106 34.8849 26.5186 35.1729 27.3986 35.7489C28.2786 36.3089 28.9746 37.0769 29.4866 38.0529C30.0146 39.0129 30.2786 40.1009 30.2786 41.3169V41.9889H20.6546C20.7826 42.6609 21.0306 43.2609 21.3986 43.7889C21.7826 44.3169 22.2626 44.7329 22.8386 45.0369C23.4306 45.3409 24.0706 45.4929 24.7586 45.4929C25.3506 45.4929 25.9186 45.4049 26.4626 45.2289C27.0226 45.0369 27.4866 44.7649 27.8546 44.4129L29.3906 45.9249C28.6706 46.4689 27.9266 46.8769 27.1586 47.1489C26.4066 47.4049 25.5746 47.5329 24.6626 47.5329ZM20.6786 40.1889H27.9026C27.8066 39.5489 27.5826 38.9889 27.2306 38.5089C26.8946 38.0129 26.4706 37.6289 25.9586 37.3569C25.4626 37.0689 24.9186 36.9249 24.3266 36.9249C23.7186 36.9249 23.1586 37.0609 22.6466 37.3329C22.1346 37.6049 21.7026 37.9889 21.3506 38.4849C21.0146 38.9649 20.7906 39.5329 20.6786 40.1889ZM36.2644 47.5329C35.3844 47.5329 34.6084 47.3809 33.9364 47.0769C33.2644 46.7569 32.7364 46.3169 32.3524 45.7569C31.9684 45.1969 31.7764 44.5489 31.7764 43.8129C31.7764 42.6609 32.2164 41.7569 33.0964 41.1009C33.9764 40.4289 35.1844 40.0929 36.7204 40.0929C37.9204 40.0929 39.0324 40.3249 40.0564 40.7889V39.4929C40.0564 38.6129 39.8004 37.9569 39.2884 37.5249C38.7924 37.0929 38.0564 36.8769 37.0804 36.8769C36.5204 36.8769 35.9364 36.9649 35.3284 37.1409C34.7204 37.3009 34.0404 37.5569 33.2884 37.9089L32.4004 36.1089C33.3284 35.6769 34.1924 35.3649 34.9924 35.1729C35.7924 34.9649 36.6004 34.8609 37.4164 34.8609C39.0004 34.8609 40.2244 35.2369 41.0884 35.9889C41.9684 36.7409 42.4084 37.8129 42.4084 39.2049V47.3169H40.0564V46.2609C39.5124 46.6929 38.9284 47.0129 38.3044 47.2209C37.6804 47.4289 37.0004 47.5329 36.2644 47.5329ZM34.0804 43.7649C34.0804 44.3569 34.3284 44.8369 34.8244 45.2049C35.3364 45.5729 36.0004 45.7569 36.8164 45.7569C37.4564 45.7569 38.0404 45.6609 38.5684 45.4689C39.1124 45.2769 39.6084 44.9809 40.0564 44.5809V42.5169C39.5924 42.2449 39.1044 42.0529 38.5924 41.9409C38.0964 41.8129 37.5364 41.7489 36.9124 41.7489C36.0324 41.7489 35.3364 41.9329 34.8244 42.3009C34.3284 42.6529 34.0804 43.1409 34.0804 43.7649ZM50.7898 47.5089C49.6538 47.5089 48.6138 47.2289 47.6698 46.6689C46.7258 46.1089 45.9818 45.3569 45.4378 44.4129C44.8938 43.4529 44.6218 42.3809 44.6218 41.1969C44.6218 40.0129 44.8938 38.9489 45.4378 38.0049C45.9978 37.0609 46.7498 36.3089 47.6938 35.7489C48.6378 35.1889 49.6858 34.9089 50.8378 34.9089C51.5098 34.9089 52.1578 35.0129 52.7818 35.2209C53.4058 35.4289 53.9818 35.7329 54.5098 36.1329V30.5169L56.9098 30.0609V47.3169H54.5338V46.1409C53.4938 47.0529 52.2458 47.5089 50.7898 47.5089ZM51.1018 45.4209C51.8058 45.4209 52.4458 45.2929 53.0218 45.0369C53.6138 44.7809 54.1098 44.4129 54.5098 43.9329V38.4369C54.1098 37.9889 53.6138 37.6369 53.0218 37.3809C52.4458 37.1089 51.8058 36.9729 51.1018 36.9729C50.3338 36.9729 49.6378 37.1569 49.0138 37.5249C48.3898 37.8929 47.8938 38.3969 47.5258 39.0369C47.1578 39.6609 46.9738 40.3729 46.9738 41.1729C46.9738 41.9729 47.1578 42.6929 47.5258 43.3329C47.8938 43.9729 48.3898 44.4849 49.0138 44.8689C49.6378 45.2369 50.3338 45.4209 51.1018 45.4209ZM59.7519 47.3169V35.1009H62.1519V47.3169H59.7519ZM60.9519 33.1329C60.5519 33.1329 60.2079 32.9889 59.9199 32.7009C59.6319 32.3969 59.4879 32.0449 59.4879 31.6449C59.4879 31.2289 59.6319 30.8849 59.9199 30.6129C60.2079 30.3249 60.5519 30.1809 60.9519 30.1809C61.3679 30.1809 61.7199 30.3249 62.0079 30.6129C62.2959 30.8849 62.4399 31.2289 62.4399 31.6449C62.4399 32.0449 62.2959 32.3969 62.0079 32.7009C61.7199 32.9889 61.3679 33.1329 60.9519 33.1329ZM64.9785 47.3169V35.1009H67.3785V36.3489C68.3225 35.3569 69.5465 34.8609 71.0505 34.8609C71.9945 34.8609 72.8185 35.0609 73.5225 35.4609C74.2425 35.8609 74.8025 36.4209 75.2025 37.1409C75.6185 37.8609 75.8265 38.6929 75.8265 39.6369V47.3169H73.4265V40.0449C73.4265 39.0849 73.1545 38.3329 72.6105 37.7889C72.0825 37.2289 71.3385 36.9489 70.3785 36.9489C69.7385 36.9489 69.1625 37.0849 68.6505 37.3569C68.1385 37.6289 67.7145 38.0209 67.3785 38.5329V47.3169H64.9785ZM84.6437 52.4529C83.7477 52.4529 82.8757 52.3489 82.0277 52.1409C81.1797 51.9329 80.4117 51.6369 79.7237 51.2529L80.6357 49.3809C81.3557 49.7489 82.0277 50.0129 82.6517 50.1729C83.2917 50.3489 83.9317 50.4369 84.5717 50.4369C85.6437 50.4369 86.4517 50.1889 86.9957 49.6929C87.5557 49.1969 87.8357 48.4689 87.8357 47.5089V46.1169C86.7637 46.9649 85.5397 47.3889 84.1637 47.3889C83.0437 47.3889 82.0117 47.1169 81.0677 46.5729C80.1397 46.0129 79.4037 45.2609 78.8597 44.3169C78.3157 43.3569 78.0437 42.3009 78.0437 41.1489C78.0437 39.9809 78.3157 38.9249 78.8597 37.9809C79.4197 37.0209 80.1637 36.2689 81.0917 35.7249C82.0357 35.1649 83.0917 34.8849 84.2597 34.8849C84.9157 34.8849 85.5477 34.9969 86.1557 35.2209C86.7797 35.4289 87.3477 35.7329 87.8597 36.1329V35.1009H90.2357V47.5089C90.2357 49.0929 89.7477 50.3089 88.7717 51.1569C87.8117 52.0209 86.4357 52.4529 84.6437 52.4529ZM84.4757 45.3249C85.1797 45.3249 85.8197 45.2049 86.3957 44.9649C86.9717 44.7089 87.4517 44.3489 87.8357 43.8849V38.4129C87.4517 37.9649 86.9637 37.6129 86.3717 37.3569C85.7957 37.1009 85.1637 36.9729 84.4757 36.9729C83.7077 36.9729 83.0117 37.1569 82.3877 37.5249C81.7797 37.8929 81.2917 38.3969 80.9237 39.0369C80.5717 39.6609 80.3957 40.3649 80.3957 41.1489C80.3957 41.9329 80.5717 42.6449 80.9237 43.2849C81.2917 43.9089 81.7797 44.4049 82.3877 44.7729C83.0117 45.1409 83.7077 45.3249 84.4757 45.3249Z" fill="black"/>
<path d="M106.888 30.2529C108.232 30.2529 109.416 30.6049 110.44 31.3089C111.464 31.9969 112.264 32.9489 112.84 34.1649C113.416 35.3809 113.704 36.7969 113.704 38.4129C113.704 40.2529 113.384 41.8609 112.744 43.2369C112.104 44.5969 111.2 45.6609 110.032 46.4289C108.88 47.1809 107.528 47.5569 105.976 47.5569C105.224 47.5569 104.464 47.4369 103.696 47.1969C102.928 46.9569 102.264 46.6369 101.704 46.2369L102.928 44.5089C103.424 44.8289 103.944 45.0769 104.488 45.2529C105.032 45.4129 105.592 45.4929 106.168 45.4929C107.256 45.4929 108.184 45.2129 108.952 44.6529C109.736 44.0929 110.336 43.2929 110.752 42.2529C111.168 41.1969 111.384 39.9489 111.4 38.5089C110.808 39.2929 110.096 39.9089 109.264 40.3569C108.432 40.7889 107.568 41.0049 106.672 41.0049C105.568 41.0049 104.592 40.7809 103.744 40.3329C102.896 39.8689 102.232 39.2529 101.752 38.4849C101.272 37.7009 101.032 36.8049 101.032 35.7969C101.032 34.7249 101.288 33.7729 101.8 32.9409C102.312 32.1089 103.008 31.4529 103.888 30.9729C104.768 30.4929 105.768 30.2529 106.888 30.2529ZM107.008 39.1569C107.84 39.1569 108.624 38.9649 109.36 38.5809C110.112 38.1809 110.76 37.6449 111.304 36.9729C111.176 36.0129 110.912 35.1809 110.512 34.4769C110.128 33.7729 109.632 33.2289 109.024 32.8449C108.416 32.4449 107.728 32.2449 106.96 32.2449C106.272 32.2449 105.648 32.3969 105.088 32.7009C104.544 33.0049 104.112 33.4209 103.792 33.9489C103.488 34.4769 103.336 35.0769 103.336 35.7489C103.336 36.4049 103.488 36.9969 103.792 37.5249C104.112 38.0369 104.552 38.4369 105.112 38.7249C105.672 39.0129 106.304 39.1569 107.008 39.1569ZM112.527 52.2369L122.511 30.5169H124.863L114.879 52.2369H112.527ZM129.194 47.3169V32.9889L126.17 34.2609V32.1489L130.058 30.5169H131.57V47.3169H129.194ZM141.181 47.5809C139.773 47.5809 138.541 47.2209 137.485 46.5009C136.429 45.7649 135.597 44.7489 134.989 43.4529C134.397 42.1409 134.101 40.6289 134.101 38.9169C134.101 37.2049 134.397 35.7009 134.989 34.4049C135.597 33.0929 136.429 32.0769 137.485 31.3569C138.541 30.6209 139.773 30.2529 141.181 30.2529C142.573 30.2529 143.797 30.6209 144.853 31.3569C145.909 32.0769 146.733 33.0929 147.325 34.4049C147.933 35.7009 148.237 37.2049 148.237 38.9169C148.237 40.6289 147.933 42.1409 147.325 43.4529C146.733 44.7489 145.909 45.7649 144.853 46.5009C143.797 47.2209 142.573 47.5809 141.181 47.5809ZM141.181 45.4929C142.141 45.4929 142.973 45.2289 143.677 44.7009C144.381 44.1569 144.925 43.3889 145.309 42.3969C145.693 41.4049 145.885 40.2449 145.885 38.9169C145.885 37.5729 145.693 36.4129 145.309 35.4369C144.925 34.4449 144.381 33.6849 143.677 33.1569C142.973 32.6129 142.141 32.3409 141.181 32.3409C140.221 32.3409 139.381 32.6129 138.661 33.1569C137.957 33.6849 137.413 34.4449 137.029 35.4369C136.645 36.4129 136.453 37.5729 136.453 38.9169C136.453 40.2449 136.645 41.4049 137.029 42.3969C137.413 43.3889 137.957 44.1569 138.661 44.7009C139.381 45.2289 140.221 45.4929 141.181 45.4929ZM146.816 52.2369L156.8 30.5169H159.152L149.168 52.2369H146.816ZM160.543 47.3169V45.6369L167.359 38.3889C167.823 37.9089 168.183 37.4769 168.439 37.0929C168.695 36.7089 168.871 36.3489 168.967 36.0129C169.079 35.6609 169.135 35.2929 169.135 34.9089C169.135 34.1569 168.831 33.5329 168.223 33.0369C167.615 32.5409 166.847 32.2929 165.919 32.2929C165.151 32.2929 164.431 32.4449 163.759 32.7489C163.087 33.0529 162.343 33.5809 161.527 34.3329L160.231 32.7489C161.127 31.9169 162.047 31.2929 162.991 30.8769C163.951 30.4609 164.943 30.2529 165.967 30.2529C167.039 30.2529 167.983 30.4449 168.799 30.8289C169.615 31.2129 170.247 31.7489 170.695 32.4369C171.159 33.1089 171.391 33.8849 171.391 34.7649C171.391 35.3249 171.319 35.8449 171.175 36.3249C171.031 36.7889 170.783 37.2849 170.431 37.8129C170.079 38.3249 169.583 38.9169 168.943 39.5889L163.471 45.3489L171.727 45.3249V47.3169H160.543ZM180.744 47.5809C179.336 47.5809 178.104 47.2209 177.048 46.5009C175.992 45.7649 175.16 44.7489 174.552 43.4529C173.96 42.1409 173.664 40.6289 173.664 38.9169C173.664 37.2049 173.96 35.7009 174.552 34.4049C175.16 33.0929 175.992 32.0769 177.048 31.3569C178.104 30.6209 179.336 30.2529 180.744 30.2529C182.136 30.2529 183.36 30.6209 184.416 31.3569C185.472 32.0769 186.296 33.0929 186.888 34.4049C187.496 35.7009 187.8 37.2049 187.8 38.9169C187.8 40.6289 187.496 42.1409 186.888 43.4529C186.296 44.7489 185.472 45.7649 184.416 46.5009C183.36 47.2209 182.136 47.5809 180.744 47.5809ZM180.744 45.4929C181.704 45.4929 182.536 45.2289 183.24 44.7009C183.944 44.1569 184.488 43.3889 184.872 42.3969C185.256 41.4049 185.448 40.2449 185.448 38.9169C185.448 37.5729 185.256 36.4129 184.872 35.4369C184.488 34.4449 183.944 33.6849 183.24 33.1569C182.536 32.6129 181.704 32.3409 180.744 32.3409C179.784 32.3409 178.944 32.6129 178.224 33.1569C177.52 33.6849 176.976 34.4449 176.592 35.4369C176.208 36.4129 176.016 37.5729 176.016 38.9169C176.016 40.2449 176.208 41.4049 176.592 42.3969C176.976 43.3889 177.52 44.1569 178.224 44.7009C178.944 45.2289 179.784 45.4929 180.744 45.4929ZM189.348 47.3169V45.6369L196.164 38.3889C196.628 37.9089 196.988 37.4769 197.244 37.0929C197.5 36.7089 197.676 36.3489 197.772 36.0129C197.884 35.6609 197.94 35.2929 197.94 34.9089C197.94 34.1569 197.636 33.5329 197.028 33.0369C196.42 32.5409 195.652 32.2929 194.724 32.2929C193.956 32.2929 193.236 32.4449 192.564 32.7489C191.892 33.0529 191.148 33.5809 190.332 34.3329L189.036 32.7489C189.932 31.9169 190.852 31.2929 191.796 30.8769C192.756 30.4609 193.748 30.2529 194.772 30.2529C195.844 30.2529 196.788 30.4449 197.604 30.8289C198.42 31.2129 199.052 31.7489 199.5 32.4369C199.964 33.1089 200.196 33.8849 200.196 34.7649C200.196 35.3249 200.124 35.8449 199.98 36.3249C199.836 36.7889 199.588 37.2849 199.236 37.8129C198.884 38.3249 198.388 38.9169 197.748 39.5889L192.276 45.3489L200.532 45.3249V47.3169H189.348ZM208.204 47.5809C205.964 47.5809 204.02 46.8209 202.372 45.3009L203.788 43.7169C204.508 44.3729 205.22 44.8529 205.924 45.1569C206.644 45.4449 207.428 45.5889 208.276 45.5889C209.044 45.5889 209.708 45.4449 210.268 45.1569C210.828 44.8529 211.268 44.4369 211.588 43.9089C211.908 43.3649 212.068 42.7489 212.068 42.0609C212.068 41.0529 211.708 40.2369 210.988 39.6129C210.284 38.9889 209.364 38.6769 208.228 38.6769C207.652 38.6769 207.084 38.7569 206.524 38.9169C205.964 39.0609 205.38 39.2929 204.772 39.6129L203.14 39.1089L203.524 30.5169H213.508V32.5089H205.54L205.3 37.6929C205.924 37.3729 206.516 37.1569 207.076 37.0449C207.652 36.9169 208.244 36.8529 208.852 36.8529C209.972 36.8529 210.94 37.0689 211.756 37.5009C212.588 37.9169 213.236 38.5089 213.7 39.2769C214.164 40.0449 214.396 40.9329 214.396 41.9409C214.396 43.0609 214.132 44.0449 213.604 44.8929C213.092 45.7249 212.372 46.3809 211.444 46.8609C210.516 47.3409 209.436 47.5809 208.204 47.5809ZM215.679 50.7489L217.167 45.1569H219.711L217.503 50.7489H215.679ZM227.223 47.3169V45.6369L234.039 38.3889C234.503 37.9089 234.863 37.4769 235.119 37.0929C235.375 36.7089 235.551 36.3489 235.647 36.0129C235.759 35.6609 235.815 35.2929 235.815 34.9089C235.815 34.1569 235.511 33.5329 234.903 33.0369C234.295 32.5409 233.527 32.2929 232.599 32.2929C231.831 32.2929 231.111 32.4449 230.439 32.7489C229.767 33.0529 229.023 33.5809 228.207 34.3329L226.911 32.7489C227.807 31.9169 228.727 31.2929 229.671 30.8769C230.631 30.4609 231.623 30.2529 232.647 30.2529C233.719 30.2529 234.663 30.4449 235.479 30.8289C236.295 31.2129 236.927 31.7489 237.375 32.4369C237.839 33.1089 238.071 33.8849 238.071 34.7649C238.071 35.3249 237.999 35.8449 237.855 36.3249C237.711 36.7889 237.463 37.2849 237.111 37.8129C236.759 38.3249 236.263 38.9169 235.623 39.5889L230.151 45.3489L238.407 45.3249V47.3169H227.223ZM242.359 47.4849C241.943 47.4849 241.583 47.3409 241.279 47.0529C240.991 46.7489 240.847 46.3889 240.847 45.9729C240.847 45.5569 240.991 45.2049 241.279 44.9169C241.583 44.6129 241.943 44.4609 242.359 44.4609C242.775 44.4609 243.127 44.6129 243.415 44.9169C243.719 45.2049 243.871 45.5569 243.871 45.9729C243.871 46.3889 243.719 46.7489 243.415 47.0529C243.127 47.3409 242.775 47.4849 242.359 47.4849ZM242.359 37.8849C241.943 37.8849 241.583 37.7409 241.279 37.4529C240.991 37.1489 240.847 36.7889 240.847 36.3729C240.847 35.9569 240.991 35.6049 241.279 35.3169C241.583 35.0129 241.943 34.8609 242.359 34.8609C242.775 34.8609 243.127 35.0129 243.415 35.3169C243.719 35.6049 243.871 35.9569 243.871 36.3729C243.871 36.7889 243.719 37.1489 243.415 37.4529C243.127 37.7409 242.775 37.8849 242.359 37.8849ZM255.535 47.3169V43.0449H246.007V41.1489L255.247 30.5169H257.911V41.0289H259.951V43.0449H257.911V47.3169H255.535ZM248.863 41.0289H255.535V33.3489L248.863 41.0289ZM261.606 47.3169V45.6369L268.422 38.3889C268.886 37.9089 269.246 37.4769 269.502 37.0929C269.758 36.7089 269.934 36.3489 270.03 36.0129C270.142 35.6609 270.198 35.2929 270.198 34.9089C270.198 34.1569 269.894 33.5329 269.286 33.0369C268.678 32.5409 267.91 32.2929 266.982 32.2929C266.214 32.2929 265.494 32.4449 264.822 32.7489C264.15 33.0529 263.406 33.5809 262.59 34.3329L261.294 32.7489C262.19 31.9169 263.11 31.2929 264.054 30.8769C265.014 30.4609 266.006 30.2529 267.03 30.2529C268.102 30.2529 269.046 30.4449 269.862 30.8289C270.678 31.2129 271.31 31.7489 271.758 32.4369C272.222 33.1089 272.454 33.8849 272.454 34.7649C272.454 35.3249 272.382 35.8449 272.238 36.3249C272.094 36.7889 271.846 37.2849 271.494 37.8129C271.142 38.3249 270.646 38.9169 270.006 39.5889L264.534 45.3489L272.79 45.3249V47.3169H261.606ZM276.742 47.4849C276.326 47.4849 275.966 47.3409 275.662 47.0529C275.374 46.7489 275.23 46.3889 275.23 45.9729C275.23 45.5569 275.374 45.2049 275.662 44.9169C275.966 44.6129 276.326 44.4609 276.742 44.4609C277.158 44.4609 277.51 44.6129 277.798 44.9169C278.102 45.2049 278.254 45.5569 278.254 45.9729C278.254 46.3889 278.102 46.7489 277.798 47.0529C277.51 47.3409 277.158 47.4849 276.742 47.4849ZM276.742 37.8849C276.326 37.8849 275.966 37.7409 275.662 37.4529C275.374 37.1489 275.23 36.7889 275.23 36.3729C275.23 35.9569 275.374 35.6049 275.662 35.3169C275.966 35.0129 276.326 34.8609 276.742 34.8609C277.158 34.8609 277.51 35.0129 277.798 35.3169C278.102 35.6049 278.254 35.9569 278.254 36.3729C278.254 36.7889 278.102 37.1489 277.798 37.4529C277.51 37.7409 277.158 37.8849 276.742 37.8849ZM280.918 47.3169V45.6369L287.734 38.3889C288.198 37.9089 288.558 37.4769 288.814 37.0929C289.07 36.7089 289.246 36.3489 289.342 36.0129C289.454 35.6609 289.51 35.2929 289.51 34.9089C289.51 34.1569 289.206 33.5329 288.598 33.0369C287.99 32.5409 287.222 32.2929 286.294 32.2929C285.526 32.2929 284.806 32.4449 284.134 32.7489C283.462 33.0529 282.718 33.5809 281.902 34.3329L280.606 32.7489C281.502 31.9169 282.422 31.2929 283.366 30.8769C284.326 30.4609 285.318 30.2529 286.342 30.2529C287.414 30.2529 288.358 30.4449 289.174 30.8289C289.99 31.2129 290.622 31.7489 291.07 32.4369C291.534 33.1089 291.766 33.8849 291.766 34.7649C291.766 35.3249 291.694 35.8449 291.55 36.3249C291.406 36.7889 291.158 37.2849 290.806 37.8129C290.454 38.3249 289.958 38.9169 289.318 39.5889L283.846 45.3489L292.102 45.3249V47.3169H280.918ZM296.679 47.3169V32.9889L293.655 34.2609V32.1489L297.543 30.5169H299.055V47.3169H296.679ZM307.321 47.3169V30.5169H315.097C316.201 30.5169 317.161 30.7329 317.977 31.1649C318.793 31.5809 319.433 32.1649 319.897 32.9169C320.361 33.6689 320.593 34.5409 320.593 35.5329C320.593 36.5249 320.361 37.3969 319.897 38.1489C319.433 38.9009 318.785 39.4929 317.953 39.9249C317.137 40.3409 316.185 40.5489 315.097 40.5489H309.841V47.3169H307.321ZM309.841 38.4129H314.833C315.825 38.4129 316.609 38.1569 317.185 37.6449C317.777 37.1169 318.073 36.4209 318.073 35.5569C318.073 34.6929 317.777 34.0049 317.185 33.4929C316.609 32.9809 315.825 32.7249 314.833 32.7249H309.841V38.4129ZM323.188 47.3169V30.5169H326.572L331.828 41.2689L337.084 30.5169H340.444V47.3169H338.068V33.5889L331.804 46.1169L325.54 33.5889V47.3169H323.188Z" fill="#151515"/>
<path d="M1.602 85.6831V73.0831H2.988V84.4591H10.098V85.6831H1.602ZM15.7146 85.8271C14.8986 85.8271 14.1666 85.6291 13.5186 85.2331C12.8706 84.8371 12.3606 84.2971 11.9886 83.6131C11.6166 82.9291 11.4306 82.1551 11.4306 81.2911C11.4306 80.4271 11.6166 79.6531 11.9886 78.9691C12.3606 78.2851 12.8706 77.7451 13.5186 77.3491C14.1666 76.9531 14.8986 76.7551 15.7146 76.7551C16.5186 76.7551 17.2386 76.9531 17.8746 77.3491C18.5226 77.7451 19.0326 78.2851 19.4046 78.9691C19.7766 79.6531 19.9626 80.4271 19.9626 81.2911C19.9626 82.1551 19.7766 82.9291 19.4046 83.6131C19.0326 84.2971 18.5226 84.8371 17.8746 85.2331C17.2386 85.6291 16.5186 85.8271 15.7146 85.8271ZM15.6966 84.6751C16.2726 84.6751 16.7826 84.5311 17.2266 84.2431C17.6706 83.9431 18.0186 83.5351 18.2706 83.0191C18.5346 82.5031 18.6666 81.9271 18.6666 81.2911C18.6666 80.6431 18.5346 80.0671 18.2706 79.5631C18.0186 79.0471 17.6706 78.6451 17.2266 78.3571C16.7826 78.0571 16.2726 77.9071 15.6966 77.9071C15.1206 77.9071 14.6106 78.0571 14.1666 78.3571C13.7226 78.6451 13.3686 79.0471 13.1046 79.5631C12.8526 80.0671 12.7266 80.6431 12.7266 81.2911C12.7266 81.9271 12.8526 82.5031 13.1046 83.0191C13.3686 83.5351 13.7226 83.9431 14.1666 84.2431C14.6106 84.5311 15.1206 84.6751 15.6966 84.6751ZM22.268 85.6831V76.8991H23.582V78.6991C23.81 78.0871 24.134 77.6131 24.554 77.2771C24.986 76.9291 25.478 76.7551 26.03 76.7551C26.186 76.7551 26.33 76.7671 26.462 76.7911C26.594 76.8031 26.726 76.8331 26.858 76.8811V78.0691C26.714 78.0211 26.558 77.9851 26.39 77.9611C26.234 77.9251 26.084 77.9071 25.94 77.9071C25.4 77.9071 24.926 78.0631 24.518 78.3751C24.122 78.6871 23.81 79.1251 23.582 79.6891V85.6831H22.268ZM32.0112 85.8631C31.1952 85.8631 30.4572 85.6651 29.7972 85.2691C29.1372 84.8611 28.6152 84.3151 28.2312 83.6311C27.8472 82.9351 27.6552 82.1551 27.6552 81.2911C27.6552 80.4271 27.8352 79.6531 28.1952 78.9691C28.5672 78.2851 29.0652 77.7451 29.6892 77.3491C30.3132 76.9531 31.0092 76.7551 31.7772 76.7551C32.5572 76.7551 33.2472 76.9531 33.8472 77.3491C34.4592 77.7331 34.9392 78.2611 35.2872 78.9331C35.6472 79.5931 35.8272 80.3431 35.8272 81.1831V81.5791H28.9332C28.9812 82.1791 29.1432 82.7191 29.4192 83.1991C29.7072 83.6671 30.0792 84.0391 30.5352 84.3151C31.0032 84.5791 31.5132 84.7111 32.0652 84.7111C32.5212 84.7111 32.9592 84.6331 33.3792 84.4771C33.8112 84.3091 34.1772 84.0871 34.4772 83.8111L35.3052 84.6931C34.8012 85.0891 34.2792 85.3831 33.7392 85.5751C33.1992 85.7671 32.6232 85.8631 32.0112 85.8631ZM28.9692 80.6431H34.5312C34.4712 80.1151 34.3092 79.6471 34.0452 79.2391C33.7932 78.8191 33.4692 78.4891 33.0732 78.2491C32.6892 78.0091 32.2572 77.8891 31.7772 77.8891C31.2972 77.8891 30.8592 78.0091 30.4632 78.2491C30.0672 78.4771 29.7372 78.8011 29.4732 79.2211C29.2212 79.6291 29.0532 80.1031 28.9692 80.6431ZM38.0707 85.6831V76.8991H39.3847V78.2671C39.7207 77.7631 40.1047 77.3851 40.5367 77.1331C40.9687 76.8811 41.4547 76.7551 41.9947 76.7551C42.6187 76.7551 43.1647 76.9111 43.6327 77.2231C44.1007 77.5231 44.4547 77.9371 44.6947 78.4651C45.0427 77.9011 45.4567 77.4751 45.9367 77.1871C46.4287 76.8991 46.9927 76.7551 47.6287 76.7551C48.2167 76.7551 48.7327 76.8931 49.1767 77.1691C49.6327 77.4451 49.9867 77.8291 50.2387 78.3211C50.4907 78.8011 50.6167 79.3651 50.6167 80.0131V85.6831H49.3027V80.3371C49.3027 79.5691 49.1107 78.9631 48.7267 78.5191C48.3427 78.0751 47.8147 77.8531 47.1427 77.8531C46.6867 77.8531 46.2727 77.9671 45.9007 78.1951C45.5407 78.4231 45.2227 78.7711 44.9467 79.2391C44.9707 79.3591 44.9887 79.4851 45.0007 79.6171C45.0127 79.7491 45.0187 79.8811 45.0187 80.0131V85.6831H43.7047V80.3371C43.7047 79.5691 43.5067 78.9631 43.1107 78.5191C42.7267 78.0751 42.1987 77.8531 41.5267 77.8531C40.6267 77.8531 39.9127 78.2851 39.3847 79.1491V85.6831H38.0707ZM57.459 85.6831V76.8991H58.773V85.6831H57.459ZM58.125 74.7211C57.861 74.7211 57.633 74.6311 57.441 74.4511C57.261 74.2591 57.171 74.0371 57.171 73.7851C57.171 73.5331 57.261 73.3171 57.441 73.1371C57.633 72.9451 57.861 72.8491 58.125 72.8491C58.389 72.8491 58.611 72.9451 58.791 73.1371C58.983 73.3171 59.079 73.5331 59.079 73.7851C59.079 74.0371 58.983 74.2591 58.791 74.4511C58.611 74.6311 58.389 74.7211 58.125 74.7211ZM61.4672 89.4451V76.8991H62.7632V78.1591C63.0992 77.7151 63.5072 77.3791 63.9872 77.1511C64.4792 76.9111 65.0192 76.7911 65.6072 76.7911C66.3752 76.7911 67.0592 76.9951 67.6592 77.4031C68.2712 77.7991 68.7572 78.3391 69.1172 79.0231C69.4772 79.6951 69.6572 80.4511 69.6572 81.2911C69.6572 82.1311 69.4712 82.8931 69.0992 83.5771C68.7392 84.2611 68.2472 84.8071 67.6232 85.2151C67.0112 85.6111 66.3152 85.8091 65.5352 85.8091C64.9832 85.8091 64.4732 85.7071 64.0052 85.5031C63.5372 85.2871 63.1292 84.9811 62.7812 84.5851V89.4451H61.4672ZM65.2832 84.6751C65.8712 84.6751 66.3932 84.5311 66.8492 84.2431C67.3172 83.9431 67.6832 83.5411 67.9472 83.0371C68.2232 82.5211 68.3612 81.9451 68.3612 81.3091C68.3612 80.6611 68.2232 80.0851 67.9472 79.5811C67.6832 79.0771 67.3172 78.6811 66.8492 78.3931C66.3932 78.0931 65.8712 77.9431 65.2832 77.9431C64.7672 77.9431 64.2872 78.0511 63.8432 78.2671C63.4112 78.4711 63.0572 78.7651 62.7812 79.1491V83.4511C63.0692 83.8351 63.4292 84.1351 63.8612 84.3511C64.3052 84.5671 64.7792 84.6751 65.2832 84.6751ZM74.6793 85.8631C73.9593 85.8631 73.2933 85.7551 72.6813 85.5391C72.0693 85.3111 71.5473 84.9871 71.1153 84.5671L71.8173 83.7031C72.3453 84.0871 72.8313 84.3691 73.2753 84.5491C73.7193 84.7171 74.1753 84.8011 74.6433 84.8011C75.2793 84.8011 75.8073 84.6511 76.2273 84.3511C76.6473 84.0511 76.8573 83.6671 76.8573 83.1991C76.8573 82.8391 76.7313 82.5571 76.4793 82.3531C76.2393 82.1491 75.8373 81.9931 75.2733 81.8851L73.8333 81.6331C72.9813 81.4771 72.3513 81.2131 71.9433 80.8411C71.5473 80.4691 71.3493 79.9651 71.3493 79.3291C71.3493 78.8251 71.4813 78.3811 71.7453 77.9971C72.0213 77.6131 72.3993 77.3131 72.8793 77.0971C73.3593 76.8691 73.9053 76.7551 74.5173 76.7551C75.1173 76.7551 75.6873 76.8451 76.2273 77.0251C76.7673 77.1931 77.3133 77.4691 77.8653 77.8531L77.2173 78.7711C76.7613 78.4471 76.3053 78.2131 75.8493 78.0691C75.3933 77.9131 74.9313 77.8351 74.4633 77.8351C73.8873 77.8351 73.4253 77.9611 73.0773 78.2131C72.7293 78.4651 72.5553 78.8071 72.5553 79.2391C72.5553 79.5991 72.6633 79.8751 72.8793 80.0671C73.1073 80.2591 73.5033 80.4031 74.0673 80.4991L75.5433 80.7691C76.4313 80.9251 77.0793 81.1951 77.4873 81.5791C77.8953 81.9631 78.0993 82.4791 78.0993 83.1271C78.0993 83.6431 77.9493 84.1111 77.6493 84.5311C77.3493 84.9391 76.9413 85.2631 76.4253 85.5031C75.9093 85.7431 75.3273 85.8631 74.6793 85.8631ZM83.232 85.8271C82.608 85.8271 82.056 85.6891 81.576 85.4131C81.096 85.1371 80.718 84.7531 80.442 84.2611C80.178 83.7691 80.046 83.2051 80.046 82.5691V76.8991H81.378V82.1911C81.378 82.9711 81.588 83.5891 82.008 84.0451C82.428 84.5011 82.998 84.7291 83.718 84.7291C84.21 84.7291 84.648 84.6151 85.032 84.3871C85.428 84.1591 85.758 83.8291 86.022 83.3971V76.8991H87.336V85.6831H86.022V84.2611C85.686 84.7771 85.284 85.1671 84.816 85.4311C84.36 85.6951 83.832 85.8271 83.232 85.8271ZM90.0316 85.6831V76.8991H91.3456V78.2671C91.6816 77.7631 92.0656 77.3851 92.4976 77.1331C92.9296 76.8811 93.4156 76.7551 93.9556 76.7551C94.5796 76.7551 95.1256 76.9111 95.5936 77.2231C96.0616 77.5231 96.4156 77.9371 96.6556 78.4651C97.0036 77.9011 97.4176 77.4751 97.8976 77.1871C98.3896 76.8991 98.9536 76.7551 99.5896 76.7551C100.178 76.7551 100.694 76.8931 101.138 77.1691C101.594 77.4451 101.948 77.8291 102.2 78.3211C102.452 78.8011 102.578 79.3651 102.578 80.0131V85.6831H101.264V80.3371C101.264 79.5691 101.072 78.9631 100.688 78.5191C100.304 78.0751 99.7756 77.8531 99.1036 77.8531C98.6476 77.8531 98.2336 77.9671 97.8616 78.1951C97.5016 78.4231 97.1836 78.7711 96.9076 79.2391C96.9316 79.3591 96.9496 79.4851 96.9616 79.6171C96.9736 79.7491 96.9796 79.8811 96.9796 80.0131V85.6831H95.6656V80.3371C95.6656 79.5691 95.4676 78.9631 95.0716 78.5191C94.6876 78.0751 94.1596 77.8531 93.4876 77.8531C92.5876 77.8531 91.8736 78.2851 91.3456 79.1491V85.6831H90.0316ZM113.092 85.8091C112.336 85.8091 111.652 85.6111 111.04 85.2151C110.428 84.8071 109.942 84.2671 109.582 83.5951C109.222 82.9111 109.042 82.1491 109.042 81.3091C109.042 80.4571 109.222 79.6951 109.582 79.0231C109.954 78.3391 110.452 77.7991 111.076 77.4031C111.7 76.9951 112.396 76.7911 113.164 76.7911C113.704 76.7911 114.208 76.8991 114.676 77.1151C115.144 77.3191 115.552 77.6191 115.9 78.0151V72.6871L117.214 72.4171V85.6831H115.9V84.5131C115.564 84.9331 115.156 85.2571 114.676 85.4851C114.196 85.7011 113.668 85.8091 113.092 85.8091ZM113.416 84.6571C113.932 84.6571 114.406 84.5551 114.838 84.3511C115.27 84.1471 115.624 83.8591 115.9 83.4871V79.1311C115.612 78.7591 115.246 78.4711 114.802 78.2671C114.37 78.0511 113.908 77.9431 113.416 77.9431C112.828 77.9431 112.3 78.0871 111.832 78.3751C111.376 78.6631 111.01 79.0591 110.734 79.5631C110.47 80.0671 110.338 80.6431 110.338 81.2911C110.338 81.9271 110.47 82.5031 110.734 83.0191C111.01 83.5231 111.376 83.9251 111.832 84.2251C112.3 84.5131 112.828 84.6571 113.416 84.6571ZM123.802 85.8271C122.986 85.8271 122.254 85.6291 121.606 85.2331C120.958 84.8371 120.448 84.2971 120.076 83.6131C119.704 82.9291 119.518 82.1551 119.518 81.2911C119.518 80.4271 119.704 79.6531 120.076 78.9691C120.448 78.2851 120.958 77.7451 121.606 77.3491C122.254 76.9531 122.986 76.7551 123.802 76.7551C124.606 76.7551 125.326 76.9531 125.962 77.3491C126.61 77.7451 127.12 78.2851 127.492 78.9691C127.864 79.6531 128.05 80.4271 128.05 81.2911C128.05 82.1551 127.864 82.9291 127.492 83.6131C127.12 84.2971 126.61 84.8371 125.962 85.2331C125.326 85.6291 124.606 85.8271 123.802 85.8271ZM123.784 84.6751C124.36 84.6751 124.87 84.5311 125.314 84.2431C125.758 83.9431 126.106 83.5351 126.358 83.0191C126.622 82.5031 126.754 81.9271 126.754 81.2911C126.754 80.6431 126.622 80.0671 126.358 79.5631C126.106 79.0471 125.758 78.6451 125.314 78.3571C124.87 78.0571 124.36 77.9071 123.784 77.9071C123.208 77.9071 122.698 78.0571 122.254 78.3571C121.81 78.6451 121.456 79.0471 121.192 79.5631C120.94 80.0671 120.814 80.6431 120.814 81.2911C120.814 81.9271 120.94 82.5031 121.192 83.0191C121.456 83.5351 121.81 83.9431 122.254 84.2431C122.698 84.5311 123.208 84.6751 123.784 84.6751ZM130.356 85.6831V72.6871L131.67 72.4171V85.6831H130.356ZM138.252 85.8271C137.436 85.8271 136.704 85.6291 136.056 85.2331C135.408 84.8371 134.898 84.2971 134.526 83.6131C134.154 82.9291 133.968 82.1551 133.968 81.2911C133.968 80.4271 134.154 79.6531 134.526 78.9691C134.898 78.2851 135.408 77.7451 136.056 77.3491C136.704 76.9531 137.436 76.7551 138.252 76.7551C139.056 76.7551 139.776 76.9531 140.412 77.3491C141.06 77.7451 141.57 78.2851 141.942 78.9691C142.314 79.6531 142.5 80.4271 142.5 81.2911C142.5 82.1551 142.314 82.9291 141.942 83.6131C141.57 84.2971 141.06 84.8371 140.412 85.2331C139.776 85.6291 139.056 85.8271 138.252 85.8271ZM138.234 84.6751C138.81 84.6751 139.32 84.5311 139.764 84.2431C140.208 83.9431 140.556 83.5351 140.808 83.0191C141.072 82.5031 141.204 81.9271 141.204 81.2911C141.204 80.6431 141.072 80.0671 140.808 79.5631C140.556 79.0471 140.208 78.6451 139.764 78.3571C139.32 78.0571 138.81 77.9071 138.234 77.9071C137.658 77.9071 137.148 78.0571 136.704 78.3571C136.26 78.6451 135.906 79.0471 135.642 79.5631C135.39 80.0671 135.264 80.6431 135.264 81.2911C135.264 81.9271 135.39 82.5031 135.642 83.0191C135.906 83.5351 136.26 83.9431 136.704 84.2431C137.148 84.5311 137.658 84.6751 138.234 84.6751ZM144.805 85.6831V76.8991H146.119V78.6991C146.347 78.0871 146.671 77.6131 147.091 77.2771C147.523 76.9291 148.015 76.7551 148.567 76.7551C148.723 76.7551 148.867 76.7671 148.999 76.7911C149.131 76.8031 149.263 76.8331 149.395 76.8811V78.0691C149.251 78.0211 149.095 77.9851 148.927 77.9611C148.771 77.9251 148.621 77.9071 148.477 77.9071C147.937 77.9071 147.463 78.0631 147.055 78.3751C146.659 78.6871 146.347 79.1251 146.119 79.6891V85.6831H144.805ZM158.052 85.8631C157.332 85.8631 156.666 85.7551 156.054 85.5391C155.442 85.3111 154.92 84.9871 154.488 84.5671L155.19 83.7031C155.718 84.0871 156.204 84.3691 156.648 84.5491C157.092 84.7171 157.548 84.8011 158.016 84.8011C158.652 84.8011 159.18 84.6511 159.6 84.3511C160.02 84.0511 160.23 83.6671 160.23 83.1991C160.23 82.8391 160.104 82.5571 159.852 82.3531C159.612 82.1491 159.21 81.9931 158.646 81.8851L157.206 81.6331C156.354 81.4771 155.724 81.2131 155.316 80.8411C154.92 80.4691 154.722 79.9651 154.722 79.3291C154.722 78.8251 154.854 78.3811 155.118 77.9971C155.394 77.6131 155.772 77.3131 156.252 77.0971C156.732 76.8691 157.278 76.7551 157.89 76.7551C158.49 76.7551 159.06 76.8451 159.6 77.0251C160.14 77.1931 160.686 77.4691 161.238 77.8531L160.59 78.7711C160.134 78.4471 159.678 78.2131 159.222 78.0691C158.766 77.9131 158.304 77.8351 157.836 77.8351C157.26 77.8351 156.798 77.9611 156.45 78.2131C156.102 78.4651 155.928 78.8071 155.928 79.2391C155.928 79.5991 156.036 79.8751 156.252 80.0671C156.48 80.2591 156.876 80.4031 157.44 80.4991L158.916 80.7691C159.804 80.9251 160.452 81.1951 160.86 81.5791C161.268 81.9631 161.472 82.4791 161.472 83.1271C161.472 83.6431 161.322 84.1111 161.022 84.5311C160.722 84.9391 160.314 85.2631 159.798 85.5031C159.282 85.7431 158.7 85.8631 158.052 85.8631ZM163.455 85.6831V76.8991H164.769V85.6831H163.455ZM164.121 74.7211C163.857 74.7211 163.629 74.6311 163.437 74.4511C163.257 74.2591 163.167 74.0371 163.167 73.7851C163.167 73.5331 163.257 73.3171 163.437 73.1371C163.629 72.9451 163.857 72.8491 164.121 72.8491C164.385 72.8491 164.607 72.9451 164.787 73.1371C164.979 73.3171 165.075 73.5331 165.075 73.7851C165.075 74.0371 164.979 74.2591 164.787 74.4511C164.607 74.6311 164.385 74.7211 164.121 74.7211ZM170.811 85.8631C170.055 85.8631 169.479 85.6831 169.083 85.3231C168.699 84.9511 168.507 84.4171 168.507 83.7211V77.9791H166.689V76.8991H168.507V74.4871L169.821 74.1811V76.8991H172.341V77.9791H169.821V83.3791C169.821 83.8471 169.917 84.1831 170.109 84.3871C170.313 84.5911 170.643 84.6931 171.099 84.6931C171.327 84.6931 171.531 84.6751 171.711 84.6391C171.891 84.6031 172.101 84.5431 172.341 84.4591V85.6291C172.101 85.7131 171.849 85.7731 171.585 85.8091C171.321 85.8451 171.063 85.8631 170.811 85.8631ZM181.185 85.8451C180.561 85.8451 180.009 85.7311 179.529 85.5031C179.049 85.2751 178.671 84.9631 178.395 84.5671C178.131 84.1591 177.999 83.6911 177.999 83.1631C177.999 82.6351 178.137 82.1791 178.413 81.7951C178.689 81.3991 179.073 81.0931 179.565 80.8771C180.057 80.6611 180.633 80.5531 181.293 80.5531C181.797 80.5531 182.271 80.6071 182.715 80.7151C183.171 80.8231 183.591 80.9971 183.975 81.2371V80.0311C183.975 79.3111 183.783 78.7711 183.399 78.4111C183.015 78.0391 182.451 77.8531 181.707 77.8531C181.299 77.8531 180.879 77.9131 180.447 78.0331C180.027 78.1531 179.559 78.3451 179.043 78.6091L178.557 77.6011C179.733 77.0371 180.837 76.7551 181.869 76.7551C182.961 76.7551 183.801 77.0251 184.389 77.5651C184.977 78.0931 185.271 78.8551 185.271 79.8511V85.6831H183.975V84.6571C183.591 85.0531 183.165 85.3531 182.697 85.5571C182.229 85.7491 181.725 85.8451 181.185 85.8451ZM179.259 83.1271C179.259 83.6431 179.457 84.0571 179.853 84.3691C180.261 84.6811 180.795 84.8371 181.455 84.8371C181.947 84.8371 182.397 84.7531 182.805 84.5851C183.225 84.4171 183.615 84.1651 183.975 83.8291V82.1371C183.603 81.9211 183.219 81.7651 182.823 81.6691C182.427 81.5611 181.983 81.5071 181.491 81.5071C180.819 81.5071 180.279 81.6571 179.871 81.9571C179.463 82.2451 179.259 82.6351 179.259 83.1271ZM187.942 85.6831V76.8991H189.256V78.2671C189.592 77.7631 189.976 77.3851 190.408 77.1331C190.84 76.8811 191.326 76.7551 191.866 76.7551C192.49 76.7551 193.036 76.9111 193.504 77.2231C193.972 77.5231 194.326 77.9371 194.566 78.4651C194.914 77.9011 195.328 77.4751 195.808 77.1871C196.3 76.8991 196.864 76.7551 197.5 76.7551C198.088 76.7551 198.604 76.8931 199.048 77.1691C199.504 77.4451 199.858 77.8291 200.11 78.3211C200.362 78.8011 200.488 79.3651 200.488 80.0131V85.6831H199.174V80.3371C199.174 79.5691 198.982 78.9631 198.598 78.5191C198.214 78.0751 197.686 77.8531 197.014 77.8531C196.558 77.8531 196.144 77.9671 195.772 78.1951C195.412 78.4231 195.094 78.7711 194.818 79.2391C194.842 79.3591 194.86 79.4851 194.872 79.6171C194.884 79.7491 194.89 79.8811 194.89 80.0131V85.6831H193.576V80.3371C193.576 79.5691 193.378 78.9631 192.982 78.5191C192.598 78.0751 192.07 77.8531 191.398 77.8531C190.498 77.8531 189.784 78.2851 189.256 79.1491V85.6831H187.942ZM207.107 85.8631C206.291 85.8631 205.553 85.6651 204.893 85.2691C204.233 84.8611 203.711 84.3151 203.327 83.6311C202.943 82.9351 202.751 82.1551 202.751 81.2911C202.751 80.4271 202.931 79.6531 203.291 78.9691C203.663 78.2851 204.161 77.7451 204.785 77.3491C205.409 76.9531 206.105 76.7551 206.873 76.7551C207.653 76.7551 208.343 76.9531 208.943 77.3491C209.555 77.7331 210.035 78.2611 210.383 78.9331C210.743 79.5931 210.923 80.3431 210.923 81.1831V81.5791H204.029C204.077 82.1791 204.239 82.7191 204.515 83.1991C204.803 83.6671 205.175 84.0391 205.631 84.3151C206.099 84.5791 206.609 84.7111 207.161 84.7111C207.617 84.7111 208.055 84.6331 208.475 84.4771C208.907 84.3091 209.273 84.0871 209.573 83.8111L210.401 84.6931C209.897 85.0891 209.375 85.3831 208.835 85.5751C208.295 85.7671 207.719 85.8631 207.107 85.8631ZM204.065 80.6431H209.627C209.567 80.1151 209.405 79.6471 209.141 79.2391C208.889 78.8191 208.565 78.4891 208.169 78.2491C207.785 78.0091 207.353 77.8891 206.873 77.8891C206.393 77.8891 205.955 78.0091 205.559 78.2491C205.163 78.4771 204.833 78.8011 204.569 79.2211C204.317 79.6291 204.149 80.1031 204.065 80.6431ZM216.251 85.8631C215.495 85.8631 214.919 85.6831 214.523 85.3231C214.139 84.9511 213.947 84.4171 213.947 83.7211V77.9791H212.129V76.8991H213.947V74.4871L215.261 74.1811V76.8991H217.781V77.9791H215.261V83.3791C215.261 83.8471 215.357 84.1831 215.549 84.3871C215.753 84.5911 216.083 84.6931 216.539 84.6931C216.767 84.6931 216.971 84.6751 217.151 84.6391C217.331 84.6031 217.541 84.5431 217.781 84.4591V85.6291C217.541 85.7131 217.289 85.7731 217.025 85.8091C216.761 85.8451 216.503 85.8631 216.251 85.8631ZM219.255 88.5091L220.335 84.3511H221.739L220.281 88.5091H219.255ZM232.349 85.8271C231.533 85.8271 230.795 85.6291 230.135 85.2331C229.487 84.8251 228.971 84.2791 228.587 83.5951C228.203 82.8991 228.011 82.1311 228.011 81.2911C228.011 80.4391 228.203 79.6711 228.587 78.9871C228.971 78.3031 229.487 77.7631 230.135 77.3671C230.795 76.9591 231.533 76.7551 232.349 76.7551C232.997 76.7551 233.615 76.8751 234.203 77.1151C234.791 77.3551 235.301 77.6911 235.733 78.1231L234.887 79.0411C234.575 78.6931 234.197 78.4231 233.753 78.2311C233.309 78.0391 232.859 77.9431 232.403 77.9431C231.827 77.9431 231.305 78.0931 230.837 78.3931C230.381 78.6931 230.015 79.0951 229.739 79.5991C229.463 80.1031 229.325 80.6671 229.325 81.2911C229.325 81.9151 229.463 82.4791 229.739 82.9831C230.015 83.4871 230.381 83.8891 230.837 84.1891C231.305 84.4891 231.827 84.6391 232.403 84.6391C232.859 84.6391 233.309 84.5431 233.753 84.3511C234.197 84.1471 234.575 83.8771 234.887 83.5411L235.733 84.4591C235.301 84.8911 234.791 85.2271 234.203 85.4671C233.615 85.7071 232.997 85.8271 232.349 85.8271ZM241.189 85.8271C240.373 85.8271 239.641 85.6291 238.993 85.2331C238.345 84.8371 237.835 84.2971 237.463 83.6131C237.091 82.9291 236.905 82.1551 236.905 81.2911C236.905 80.4271 237.091 79.6531 237.463 78.9691C237.835 78.2851 238.345 77.7451 238.993 77.3491C239.641 76.9531 240.373 76.7551 241.189 76.7551C241.993 76.7551 242.713 76.9531 243.349 77.3491C243.997 77.7451 244.507 78.2851 244.879 78.9691C245.251 79.6531 245.437 80.4271 245.437 81.2911C245.437 82.1551 245.251 82.9291 244.879 83.6131C244.507 84.2971 243.997 84.8371 243.349 85.2331C242.713 85.6291 241.993 85.8271 241.189 85.8271ZM241.171 84.6751C241.747 84.6751 242.257 84.5311 242.701 84.2431C243.145 83.9431 243.493 83.5351 243.745 83.0191C244.009 82.5031 244.141 81.9271 244.141 81.2911C244.141 80.6431 244.009 80.0671 243.745 79.5631C243.493 79.0471 243.145 78.6451 242.701 78.3571C242.257 78.0571 241.747 77.9071 241.171 77.9071C240.595 77.9071 240.085 78.0571 239.641 78.3571C239.197 78.6451 238.843 79.0471 238.579 79.5631C238.327 80.0671 238.201 80.6431 238.201 81.2911C238.201 81.9271 238.327 82.5031 238.579 83.0191C238.843 83.5351 239.197 83.9431 239.641 84.2431C240.085 84.5311 240.595 84.6751 241.171 84.6751ZM247.743 85.6831V76.8991H249.057V78.3211C249.393 77.7931 249.795 77.4031 250.263 77.1511C250.731 76.8871 251.259 76.7551 251.847 76.7551C252.483 76.7551 253.035 76.8931 253.503 77.1691C253.983 77.4331 254.355 77.8111 254.619 78.3031C254.895 78.7831 255.033 79.3471 255.033 79.9951V85.6831H253.719V80.3731C253.719 79.5931 253.503 78.9811 253.071 78.5371C252.651 78.0811 252.081 77.8531 251.361 77.8531C250.881 77.8531 250.443 77.9671 250.047 78.1951C249.651 78.4231 249.321 78.7591 249.057 79.2031V85.6831H247.743ZM260.392 85.8631C259.672 85.8631 259.006 85.7551 258.394 85.5391C257.782 85.3111 257.26 84.9871 256.828 84.5671L257.53 83.7031C258.058 84.0871 258.544 84.3691 258.988 84.5491C259.432 84.7171 259.888 84.8011 260.356 84.8011C260.992 84.8011 261.52 84.6511 261.94 84.3511C262.36 84.0511 262.57 83.6671 262.57 83.1991C262.57 82.8391 262.444 82.5571 262.192 82.3531C261.952 82.1491 261.55 81.9931 260.986 81.8851L259.546 81.6331C258.694 81.4771 258.064 81.2131 257.656 80.8411C257.26 80.4691 257.062 79.9651 257.062 79.3291C257.062 78.8251 257.194 78.3811 257.458 77.9971C257.734 77.6131 258.112 77.3131 258.592 77.0971C259.072 76.8691 259.618 76.7551 260.23 76.7551C260.83 76.7551 261.4 76.8451 261.94 77.0251C262.48 77.1931 263.026 77.4691 263.578 77.8531L262.93 78.7711C262.474 78.4471 262.018 78.2131 261.562 78.0691C261.106 77.9131 260.644 77.8351 260.176 77.8351C259.6 77.8351 259.138 77.9611 258.79 78.2131C258.442 78.4651 258.268 78.8071 258.268 79.2391C258.268 79.5991 258.376 79.8751 258.592 80.0671C258.82 80.2591 259.216 80.4031 259.78 80.4991L261.256 80.7691C262.144 80.9251 262.792 81.1951 263.2 81.5791C263.608 81.9631 263.812 82.4791 263.812 83.1271C263.812 83.6431 263.662 84.1111 263.362 84.5311C263.062 84.9391 262.654 85.2631 262.138 85.5031C261.622 85.7431 261.04 85.8631 260.392 85.8631ZM269.861 85.8631C269.045 85.8631 268.307 85.6651 267.647 85.2691C266.987 84.8611 266.465 84.3151 266.081 83.6311C265.697 82.9351 265.505 82.1551 265.505 81.2911C265.505 80.4271 265.685 79.6531 266.045 78.9691C266.417 78.2851 266.915 77.7451 267.539 77.3491C268.163 76.9531 268.859 76.7551 269.627 76.7551C270.407 76.7551 271.097 76.9531 271.697 77.3491C272.309 77.7331 272.789 78.2611 273.137 78.9331C273.497 79.5931 273.677 80.3431 273.677 81.1831V81.5791H266.783C266.831 82.1791 266.993 82.7191 267.269 83.1991C267.557 83.6671 267.929 84.0391 268.385 84.3151C268.853 84.5791 269.363 84.7111 269.915 84.7111C270.371 84.7111 270.809 84.6331 271.229 84.4771C271.661 84.3091 272.027 84.0871 272.327 83.8111L273.155 84.6931C272.651 85.0891 272.129 85.3831 271.589 85.5751C271.049 85.7671 270.473 85.8631 269.861 85.8631ZM266.819 80.6431H272.381C272.321 80.1151 272.159 79.6471 271.895 79.2391C271.643 78.8191 271.319 78.4891 270.923 78.2491C270.539 78.0091 270.107 77.8891 269.627 77.8891C269.147 77.8891 268.709 78.0091 268.313 78.2491C267.917 78.4771 267.587 78.8011 267.323 79.2211C267.071 79.6291 266.903 80.1031 266.819 80.6431ZM279.862 85.8271C279.046 85.8271 278.308 85.6291 277.648 85.2331C277 84.8251 276.484 84.2791 276.1 83.5951C275.716 82.8991 275.524 82.1311 275.524 81.2911C275.524 80.4391 275.716 79.6711 276.1 78.9871C276.484 78.3031 277 77.7631 277.648 77.3671C278.308 76.9591 279.046 76.7551 279.862 76.7551C280.51 76.7551 281.128 76.8751 281.716 77.1151C282.304 77.3551 282.814 77.6911 283.246 78.1231L282.4 79.0411C282.088 78.6931 281.71 78.4231 281.266 78.2311C280.822 78.0391 280.372 77.9431 279.916 77.9431C279.34 77.9431 278.818 78.0931 278.35 78.3931C277.894 78.6931 277.528 79.0951 277.252 79.5991C276.976 80.1031 276.838 80.6671 276.838 81.2911C276.838 81.9151 276.976 82.4791 277.252 82.9831C277.528 83.4871 277.894 83.8891 278.35 84.1891C278.818 84.4891 279.34 84.6391 279.916 84.6391C280.372 84.6391 280.822 84.5431 281.266 84.3511C281.71 84.1471 282.088 83.8771 282.4 83.5411L283.246 84.4591C282.814 84.8911 282.304 85.2271 281.716 85.4671C281.128 85.7071 280.51 85.8271 279.862 85.8271ZM288.602 85.8631C287.846 85.8631 287.27 85.6831 286.874 85.3231C286.49 84.9511 286.298 84.4171 286.298 83.7211V77.9791H284.48V76.8991H286.298V74.4871L287.612 74.1811V76.8991H290.132V77.9791H287.612V83.3791C287.612 83.8471 287.708 84.1831 287.9 84.3871C288.104 84.5911 288.434 84.6931 288.89 84.6931C289.118 84.6931 289.322 84.6751 289.502 84.6391C289.682 84.6031 289.892 84.5431 290.132 84.4591V85.6291C289.892 85.7131 289.64 85.7731 289.376 85.8091C289.112 85.8451 288.854 85.8631 288.602 85.8631ZM295.841 85.8631C295.025 85.8631 294.287 85.6651 293.627 85.2691C292.967 84.8611 292.445 84.3151 292.061 83.6311C291.677 82.9351 291.485 82.1551 291.485 81.2911C291.485 80.4271 291.665 79.6531 292.025 78.9691C292.397 78.2851 292.895 77.7451 293.519 77.3491C294.143 76.9531 294.839 76.7551 295.607 76.7551C296.387 76.7551 297.077 76.9531 297.677 77.3491C298.289 77.7331 298.769 78.2611 299.117 78.9331C299.477 79.5931 299.657 80.3431 299.657 81.1831V81.5791H292.763C292.811 82.1791 292.973 82.7191 293.249 83.1991C293.537 83.6671 293.909 84.0391 294.365 84.3151C294.833 84.5791 295.343 84.7111 295.895 84.7111C296.351 84.7111 296.789 84.6331 297.209 84.4771C297.641 84.3091 298.007 84.0871 298.307 83.8111L299.135 84.6931C298.631 85.0891 298.109 85.3831 297.569 85.5751C297.029 85.7671 296.453 85.8631 295.841 85.8631ZM292.799 80.6431H298.361C298.301 80.1151 298.139 79.6471 297.875 79.2391C297.623 78.8191 297.299 78.4891 296.903 78.2491C296.519 78.0091 296.087 77.8891 295.607 77.8891C295.127 77.8891 294.689 78.0091 294.293 78.2491C293.897 78.4771 293.567 78.8011 293.303 79.2211C293.051 79.6291 292.883 80.1031 292.799 80.6431ZM304.985 85.8631C304.229 85.8631 303.653 85.6831 303.257 85.3231C302.873 84.9511 302.681 84.4171 302.681 83.7211V77.9791H300.863V76.8991H302.681V74.4871L303.995 74.1811V76.8991H306.515V77.9791H303.995V83.3791C303.995 83.8471 304.091 84.1831 304.283 84.3871C304.487 84.5911 304.817 84.6931 305.273 84.6931C305.501 84.6931 305.705 84.6751 305.885 84.6391C306.065 84.6031 306.275 84.5431 306.515 84.4591V85.6291C306.275 85.7131 306.023 85.7731 305.759 85.8091C305.495 85.8451 305.237 85.8631 304.985 85.8631ZM311.572 85.8271C310.948 85.8271 310.396 85.6891 309.916 85.4131C309.436 85.1371 309.058 84.7531 308.782 84.2611C308.518 83.7691 308.386 83.2051 308.386 82.5691V76.8991H309.718V82.1911C309.718 82.9711 309.928 83.5891 310.348 84.0451C310.768 84.5011 311.338 84.7291 312.058 84.7291C312.55 84.7291 312.988 84.6151 313.372 84.3871C313.768 84.1591 314.098 83.8291 314.362 83.3971V76.8991H315.676V85.6831H314.362V84.2611C314.026 84.7771 313.624 85.1671 313.156 85.4311C312.7 85.6951 312.172 85.8271 311.572 85.8271ZM318.371 85.6831V76.8991H319.685V78.6991C319.913 78.0871 320.237 77.6131 320.657 77.2771C321.089 76.9291 321.581 76.7551 322.133 76.7551C322.289 76.7551 322.433 76.7671 322.565 76.7911C322.697 76.8031 322.829 76.8331 322.961 76.8811V78.0691C322.817 78.0211 322.661 77.9851 322.493 77.9611C322.337 77.9251 322.187 77.9071 322.043 77.9071C321.503 77.9071 321.029 78.0631 320.621 78.3751C320.225 78.6871 319.913 79.1251 319.685 79.6891V85.6831H318.371ZM331.619 85.8451C330.995 85.8451 330.443 85.7311 329.963 85.5031C329.483 85.2751 329.105 84.9631 328.829 84.5671C328.565 84.1591 328.433 83.6911 328.433 83.1631C328.433 82.6351 328.571 82.1791 328.847 81.7951C329.123 81.3991 329.507 81.0931 329.999 80.8771C330.491 80.6611 331.067 80.5531 331.727 80.5531C332.231 80.5531 332.705 80.6071 333.149 80.7151C333.605 80.8231 334.025 80.9971 334.409 81.2371V80.0311C334.409 79.3111 334.217 78.7711 333.833 78.4111C333.449 78.0391 332.885 77.8531 332.141 77.8531C331.733 77.8531 331.313 77.9131 330.881 78.0331C330.461 78.1531 329.993 78.3451 329.477 78.6091L328.991 77.6011C330.167 77.0371 331.271 76.7551 332.303 76.7551C333.395 76.7551 334.235 77.0251 334.823 77.5651C335.411 78.0931 335.705 78.8551 335.705 79.8511V85.6831H334.409V84.6571C334.025 85.0531 333.599 85.3531 333.131 85.5571C332.663 85.7491 332.159 85.8451 331.619 85.8451ZM329.693 83.1271C329.693 83.6431 329.891 84.0571 330.287 84.3691C330.695 84.6811 331.229 84.8371 331.889 84.8371C332.381 84.8371 332.831 84.7531 333.239 84.5851C333.659 84.4171 334.049 84.1651 334.409 83.8291V82.1371C334.037 81.9211 333.653 81.7651 333.257 81.6691C332.861 81.5611 332.417 81.5071 331.925 81.5071C331.253 81.5071 330.713 81.6571 330.305 81.9571C329.897 82.2451 329.693 82.6351 329.693 83.1271ZM342.029 85.8091C341.273 85.8091 340.589 85.6111 339.977 85.2151C339.365 84.8071 338.879 84.2671 338.519 83.5951C338.159 82.9111 337.979 82.1491 337.979 81.3091C337.979 80.4571 338.159 79.6951 338.519 79.0231C338.891 78.3391 339.389 77.7991 340.013 77.4031C340.637 76.9951 341.333 76.7911 342.101 76.7911C342.641 76.7911 343.145 76.8991 343.613 77.1151C344.081 77.3191 344.489 77.6191 344.837 78.0151V72.6871L346.151 72.4171V85.6831H344.837V84.5131C344.501 84.9331 344.093 85.2571 343.613 85.4851C343.133 85.7011 342.605 85.8091 342.029 85.8091ZM342.353 84.6571C342.869 84.6571 343.343 84.5551 343.775 84.3511C344.207 84.1471 344.561 83.8591 344.837 83.4871V79.1311C344.549 78.7591 344.183 78.4711 343.739 78.2671C343.307 78.0511 342.845 77.9431 342.353 77.9431C341.765 77.9431 341.237 78.0871 340.769 78.3751C340.313 78.6631 339.947 79.0591 339.671 79.5631C339.407 80.0671 339.275 80.6431 339.275 81.2911C339.275 81.9271 339.407 82.5031 339.671 83.0191C339.947 83.5231 340.313 83.9251 340.769 84.2251C341.237 84.5131 341.765 84.6571 342.353 84.6571ZM348.834 85.6831V76.8991H350.148V85.6831H348.834ZM349.5 74.7211C349.236 74.7211 349.008 74.6311 348.816 74.4511C348.636 74.2591 348.546 74.0371 348.546 73.7851C348.546 73.5331 348.636 73.3171 348.816 73.1371C349.008 72.9451 349.236 72.8491 349.5 72.8491C349.764 72.8491 349.986 72.9451 350.166 73.1371C350.358 73.3171 350.454 73.5331 350.454 73.7851C350.454 74.0371 350.358 74.2591 350.166 74.4511C349.986 74.6311 349.764 74.7211 349.5 74.7211ZM352.842 89.4451V76.8991H354.138V78.1591C354.474 77.7151 354.882 77.3791 355.362 77.1511C355.854 76.9111 356.394 76.7911 356.982 76.7911C357.75 76.7911 358.434 76.9951 359.034 77.4031C359.646 77.7991 360.132 78.3391 360.492 79.0231C360.852 79.6951 361.032 80.4511 361.032 81.2911C361.032 82.1311 360.846 82.8931 360.474 83.5771C360.114 84.2611 359.622 84.8071 358.998 85.2151C358.386 85.6111 357.69 85.8091 356.91 85.8091C356.358 85.8091 355.848 85.7071 355.38 85.5031C354.912 85.2871 354.504 84.9811 354.156 84.5851V89.4451H352.842ZM356.658 84.6751C357.246 84.6751 357.768 84.5311 358.224 84.2431C358.692 83.9431 359.058 83.5411 359.322 83.0371C359.598 82.5211 359.736 81.9451 359.736 81.3091C359.736 80.6611 359.598 80.0851 359.322 79.5811C359.058 79.0771 358.692 78.6811 358.224 78.3931C357.768 78.0931 357.246 77.9431 356.658 77.9431C356.142 77.9431 355.662 78.0511 355.218 78.2671C354.786 78.4711 354.432 78.7651 354.156 79.1491V83.4511C354.444 83.8351 354.804 84.1351 355.236 84.3511C355.68 84.5671 356.154 84.6751 356.658 84.6751ZM363.318 85.6831V76.8991H364.632V85.6831H363.318ZM363.984 74.7211C363.72 74.7211 363.492 74.6311 363.3 74.4511C363.12 74.2591 363.03 74.0371 363.03 73.7851C363.03 73.5331 363.12 73.3171 363.3 73.1371C363.492 72.9451 363.72 72.8491 363.984 72.8491C364.248 72.8491 364.47 72.9451 364.65 73.1371C364.842 73.3171 364.938 73.5331 364.938 73.7851C364.938 74.0371 364.842 74.2591 364.65 74.4511C364.47 74.6311 364.248 74.7211 363.984 74.7211ZM370.045 85.8631C369.325 85.8631 368.659 85.7551 368.047 85.5391C367.435 85.3111 366.913 84.9871 366.481 84.5671L367.183 83.7031C367.711 84.0871 368.197 84.3691 368.641 84.5491C369.085 84.7171 369.541 84.8011 370.009 84.8011C370.645 84.8011 371.173 84.6511 371.593 84.3511C372.013 84.0511 372.223 83.6671 372.223 83.1991C372.223 82.8391 372.097 82.5571 371.845 82.3531C371.605 82.1491 371.203 81.9931 370.639 81.8851L369.199 81.6331C368.347 81.4771 367.717 81.2131 367.309 80.8411C366.913 80.4691 366.715 79.9651 366.715 79.3291C366.715 78.8251 366.847 78.3811 367.111 77.9971C367.387 77.6131 367.765 77.3131 368.245 77.0971C368.725 76.8691 369.271 76.7551 369.883 76.7551C370.483 76.7551 371.053 76.8451 371.593 77.0251C372.133 77.1931 372.679 77.4691 373.231 77.8531L372.583 78.7711C372.127 78.4471 371.671 78.2131 371.215 78.0691C370.759 77.9131 370.297 77.8351 369.829 77.8351C369.253 77.8351 368.791 77.9611 368.443 78.2131C368.095 78.4651 367.921 78.8071 367.921 79.2391C367.921 79.5991 368.029 79.8751 368.245 80.0671C368.473 80.2591 368.869 80.4031 369.433 80.4991L370.909 80.7691C371.797 80.9251 372.445 81.1951 372.853 81.5791C373.261 81.9631 373.465 82.4791 373.465 83.1271C373.465 83.6431 373.315 84.1111 373.015 84.5311C372.715 84.9391 372.307 85.2631 371.791 85.5031C371.275 85.7431 370.693 85.8631 370.045 85.8631ZM379.495 85.8271C378.679 85.8271 377.941 85.6291 377.281 85.2331C376.633 84.8251 376.117 84.2791 375.733 83.5951C375.349 82.8991 375.157 82.1311 375.157 81.2911C375.157 80.4391 375.349 79.6711 375.733 78.9871C376.117 78.3031 376.633 77.7631 377.281 77.3671C377.941 76.9591 378.679 76.7551 379.495 76.7551C380.143 76.7551 380.761 76.8751 381.349 77.1151C381.937 77.3551 382.447 77.6911 382.879 78.1231L382.033 79.0411C381.721 78.6931 381.343 78.4231 380.899 78.2311C380.455 78.0391 380.005 77.9431 379.549 77.9431C378.973 77.9431 378.451 78.0931 377.983 78.3931C377.527 78.6931 377.161 79.0951 376.885 79.5991C376.609 80.1031 376.471 80.6671 376.471 81.2911C376.471 81.9151 376.609 82.4791 376.885 82.9831C377.161 83.4871 377.527 83.8891 377.983 84.1891C378.451 84.4891 378.973 84.6391 379.549 84.6391C380.005 84.6391 380.455 84.5431 380.899 84.3511C381.343 84.1471 381.721 83.8771 382.033 83.5411L382.879 84.4591C382.447 84.8911 381.937 85.2271 381.349 85.4671C380.761 85.7071 380.143 85.8271 379.495 85.8271ZM384.693 85.6831V76.8991H386.007V85.6831H384.693ZM385.359 74.7211C385.095 74.7211 384.867 74.6311 384.675 74.4511C384.495 74.2591 384.405 74.0371 384.405 73.7851C384.405 73.5331 384.495 73.3171 384.675 73.1371C384.867 72.9451 385.095 72.8491 385.359 72.8491C385.623 72.8491 385.845 72.9451 386.025 73.1371C386.217 73.3171 386.313 73.5331 386.313 73.7851C386.313 74.0371 386.217 74.2591 386.025 74.4511C385.845 74.6311 385.623 74.7211 385.359 74.7211ZM388.702 85.6831V76.8991H390.016V78.3211C390.352 77.7931 390.754 77.4031 391.222 77.1511C391.69 76.8871 392.218 76.7551 392.806 76.7551C393.442 76.7551 393.994 76.8931 394.462 77.1691C394.942 77.4331 395.314 77.8111 395.578 78.3031C395.854 78.7831 395.992 79.3471 395.992 79.9951V85.6831H394.678V80.3731C394.678 79.5931 394.462 78.9811 394.03 78.5371C393.61 78.0811 393.04 77.8531 392.32 77.8531C391.84 77.8531 391.402 77.9671 391.006 78.1951C390.61 78.4231 390.28 78.7591 390.016 79.2031V85.6831H388.702ZM402.701 89.6251C402.113 89.6251 401.519 89.5411 400.919 89.3731C400.331 89.2171 399.785 88.9951 399.281 88.7071L399.839 87.6991C400.379 87.9751 400.871 88.1791 401.315 88.3111C401.759 88.4431 402.203 88.5091 402.647 88.5091C403.451 88.5091 404.057 88.3171 404.465 87.9331C404.885 87.5491 405.095 86.9911 405.095 86.2591V84.4951C404.759 84.9151 404.351 85.2391 403.871 85.4671C403.391 85.6831 402.863 85.7911 402.287 85.7911C401.531 85.7911 400.847 85.5931 400.235 85.1971C399.623 84.7891 399.137 84.2491 398.777 83.5771C398.417 82.8931 398.237 82.1311 398.237 81.2911C398.237 80.4511 398.417 79.6951 398.777 79.0231C399.149 78.3391 399.647 77.7991 400.271 77.4031C400.895 76.9951 401.591 76.7911 402.359 76.7911C402.911 76.7911 403.421 76.8991 403.889 77.1151C404.357 77.3191 404.765 77.6251 405.113 78.0331V76.8991H406.409V86.2411C406.409 87.3331 406.091 88.1671 405.455 88.7431C404.819 89.3311 403.901 89.6251 402.701 89.6251ZM402.611 84.6571C403.127 84.6571 403.601 84.5551 404.033 84.3511C404.465 84.1351 404.819 83.8411 405.095 83.4691V79.1311C404.807 78.7591 404.441 78.4711 403.997 78.2671C403.565 78.0511 403.103 77.9431 402.611 77.9431C402.023 77.9431 401.495 78.0871 401.027 78.3751C400.571 78.6631 400.205 79.0591 399.929 79.5631C399.665 80.0671 399.533 80.6431 399.533 81.2911C399.533 81.9271 399.665 82.5031 399.929 83.0191C400.205 83.5231 400.571 83.9251 401.027 84.2251C401.495 84.5131 402.023 84.6571 402.611 84.6571ZM417.271 85.8631C416.455 85.8631 415.717 85.6651 415.057 85.2691C414.397 84.8611 413.875 84.3151 413.491 83.6311C413.107 82.9351 412.915 82.1551 412.915 81.2911C412.915 80.4271 413.095 79.6531 413.455 78.9691C413.827 78.2851 414.325 77.7451 414.949 77.3491C415.573 76.9531 416.269 76.7551 417.037 76.7551C417.817 76.7551 418.507 76.9531 419.107 77.3491C419.719 77.7331 420.199 78.2611 420.547 78.9331C420.907 79.5931 421.087 80.3431 421.087 81.1831V81.5791H414.193C414.241 82.1791 414.403 82.7191 414.679 83.1991C414.967 83.6671 415.339 84.0391 415.795 84.3151C416.263 84.5791 416.773 84.7111 417.325 84.7111C417.781 84.7111 418.219 84.6331 418.639 84.4771C419.071 84.3091 419.437 84.0871 419.737 83.8111L420.565 84.6931C420.061 85.0891 419.539 85.3831 418.999 85.5751C418.459 85.7671 417.883 85.8631 417.271 85.8631ZM414.229 80.6431H419.791C419.731 80.1151 419.569 79.6471 419.305 79.2391C419.053 78.8191 418.729 78.4891 418.333 78.2491C417.949 78.0091 417.517 77.8891 417.037 77.8891C416.557 77.8891 416.119 78.0091 415.723 78.2491C415.327 78.4771 414.997 78.8011 414.733 79.2211C414.481 79.6291 414.313 80.1031 414.229 80.6431ZM423.33 85.6831V72.6871L424.644 72.4171V85.6831H423.33ZM427.32 85.6831V76.8991H428.634V85.6831H427.32ZM427.986 74.7211C427.722 74.7211 427.494 74.6311 427.302 74.4511C427.122 74.2591 427.032 74.0371 427.032 73.7851C427.032 73.5331 427.122 73.3171 427.302 73.1371C427.494 72.9451 427.722 72.8491 427.986 72.8491C428.25 72.8491 428.472 72.9451 428.652 73.1371C428.844 73.3171 428.94 73.5331 428.94 73.7851C428.94 74.0371 428.844 74.2591 428.652 74.4511C428.472 74.6311 428.25 74.7211 427.986 74.7211ZM434.677 85.8631C433.921 85.8631 433.345 85.6831 432.949 85.3231C432.565 84.9511 432.373 84.4171 432.373 83.7211V77.9791H430.555V76.8991H432.373V74.4871L433.687 74.1811V76.8991H436.207V77.9791H433.687V83.3791C433.687 83.8471 433.783 84.1831 433.975 84.3871C434.179 84.5911 434.509 84.6931 434.965 84.6931C435.193 84.6931 435.397 84.6751 435.577 84.6391C435.757 84.6031 435.967 84.5431 436.207 84.4591V85.6291C435.967 85.7131 435.715 85.7731 435.451 85.8091C435.187 85.8451 434.929 85.8631 434.677 85.8631ZM439.031 85.8271C438.767 85.8271 438.539 85.7311 438.347 85.5391C438.167 85.3471 438.077 85.1191 438.077 84.8551C438.077 84.5791 438.167 84.3511 438.347 84.1711C438.539 83.9791 438.767 83.8831 439.031 83.8831C439.295 83.8831 439.517 83.9791 439.697 84.1711C439.889 84.3511 439.985 84.5791 439.985 84.8551C439.985 85.1191 439.889 85.3471 439.697 85.5391C439.517 85.7311 439.295 85.8271 439.031 85.8271ZM2.988 111.441H5.868C6.78 111.441 7.596 111.219 8.316 110.775C9.036 110.331 9.606 109.731 10.026 108.975C10.458 108.207 10.674 107.343 10.674 106.383C10.674 105.423 10.458 104.565 10.026 103.809C9.606 103.041 9.036 102.435 8.316 101.991C7.596 101.547 6.78 101.325 5.868 101.325H2.988V111.441ZM1.602 112.683V100.083H5.778C6.702 100.083 7.548 100.245 8.316 100.569C9.096 100.881 9.762 101.325 10.314 101.901C10.878 102.465 11.31 103.131 11.61 103.899C11.922 104.655 12.078 105.483 12.078 106.383C12.078 107.283 11.922 108.117 11.61 108.885C11.31 109.641 10.878 110.307 10.314 110.883C9.762 111.447 9.096 111.891 8.316 112.215C7.548 112.527 6.702 112.683 5.778 112.683H1.602ZM18.3337 112.827C17.5177 112.827 16.7857 112.629 16.1377 112.233C15.4897 111.837 14.9797 111.297 14.6077 110.613C14.2357 109.929 14.0497 109.155 14.0497 108.291C14.0497 107.427 14.2357 106.653 14.6077 105.969C14.9797 105.285 15.4897 104.745 16.1377 104.349C16.7857 103.953 17.5177 103.755 18.3337 103.755C19.1377 103.755 19.8577 103.953 20.4937 104.349C21.1417 104.745 21.6517 105.285 22.0237 105.969C22.3957 106.653 22.5817 107.427 22.5817 108.291C22.5817 109.155 22.3957 109.929 22.0237 110.613C21.6517 111.297 21.1417 111.837 20.4937 112.233C19.8577 112.629 19.1377 112.827 18.3337 112.827ZM18.3157 111.675C18.8917 111.675 19.4017 111.531 19.8457 111.243C20.2897 110.943 20.6377 110.535 20.8897 110.019C21.1537 109.503 21.2857 108.927 21.2857 108.291C21.2857 107.643 21.1537 107.067 20.8897 106.563C20.6377 106.047 20.2897 105.645 19.8457 105.357C19.4017 105.057 18.8917 104.907 18.3157 104.907C17.7397 104.907 17.2297 105.057 16.7857 105.357C16.3417 105.645 15.9877 106.047 15.7237 106.563C15.4717 107.067 15.3457 107.643 15.3457 108.291C15.3457 108.927 15.4717 109.503 15.7237 110.019C15.9877 110.535 16.3417 110.943 16.7857 111.243C17.2297 111.531 17.7397 111.675 18.3157 111.675ZM24.8871 112.683V103.899H26.2011V105.321C26.5371 104.793 26.9391 104.403 27.4071 104.151C27.8751 103.887 28.4031 103.755 28.9911 103.755C29.6271 103.755 30.1791 103.893 30.6471 104.169C31.1271 104.433 31.4991 104.811 31.7631 105.303C32.0391 105.783 32.1771 106.347 32.1771 106.995V112.683H30.8631V107.373C30.8631 106.593 30.6471 105.981 30.2151 105.537C29.7951 105.081 29.2251 104.853 28.5051 104.853C28.0251 104.853 27.5871 104.967 27.1911 105.195C26.7951 105.423 26.4651 105.759 26.2011 106.203V112.683H24.8871ZM38.7788 112.863C37.9628 112.863 37.2248 112.665 36.5648 112.269C35.9048 111.861 35.3828 111.315 34.9988 110.631C34.6148 109.935 34.4228 109.155 34.4228 108.291C34.4228 107.427 34.6028 106.653 34.9628 105.969C35.3348 105.285 35.8328 104.745 36.4568 104.349C37.0808 103.953 37.7768 103.755 38.5448 103.755C39.3248 103.755 40.0148 103.953 40.6148 104.349C41.2268 104.733 41.7068 105.261 42.0548 105.933C42.4148 106.593 42.5948 107.343 42.5948 108.183V108.579H35.7008C35.7488 109.179 35.9108 109.719 36.1868 110.199C36.4748 110.667 36.8468 111.039 37.3028 111.315C37.7708 111.579 38.2808 111.711 38.8328 111.711C39.2888 111.711 39.7268 111.633 40.1468 111.477C40.5788 111.309 40.9448 111.087 41.2448 110.811L42.0728 111.693C41.5688 112.089 41.0468 112.383 40.5068 112.575C39.9668 112.767 39.3908 112.863 38.7788 112.863ZM35.7368 107.643H41.2988C41.2388 107.115 41.0768 106.647 40.8128 106.239C40.5608 105.819 40.2368 105.489 39.8408 105.249C39.4568 105.009 39.0248 104.889 38.5448 104.889C38.0648 104.889 37.6268 105.009 37.2308 105.249C36.8348 105.477 36.5048 105.801 36.2408 106.221C35.9888 106.629 35.8208 107.103 35.7368 107.643ZM48.7803 112.827C47.9643 112.827 47.2263 112.629 46.5663 112.233C45.9183 111.825 45.4023 111.279 45.0183 110.595C44.6343 109.899 44.4423 109.131 44.4423 108.291C44.4423 107.439 44.6343 106.671 45.0183 105.987C45.4023 105.303 45.9183 104.763 46.5663 104.367C47.2263 103.959 47.9643 103.755 48.7803 103.755C49.4283 103.755 50.0463 103.875 50.6343 104.115C51.2223 104.355 51.7323 104.691 52.1643 105.123L51.3183 106.041C51.0063 105.693 50.6283 105.423 50.1843 105.231C49.7403 105.039 49.2903 104.943 48.8343 104.943C48.2583 104.943 47.7363 105.093 47.2683 105.393C46.8123 105.693 46.4463 106.095 46.1703 106.599C45.8943 107.103 45.7563 107.667 45.7563 108.291C45.7563 108.915 45.8943 109.479 46.1703 109.983C46.4463 110.487 46.8123 110.889 47.2683 111.189C47.7363 111.489 48.2583 111.639 48.8343 111.639C49.2903 111.639 49.7403 111.543 50.1843 111.351C50.6283 111.147 51.0063 110.877 51.3183 110.541L52.1643 111.459C51.7323 111.891 51.2223 112.227 50.6343 112.467C50.0463 112.707 49.4283 112.827 48.7803 112.827ZM58.1977 112.683V103.899H59.5117V105.321C59.8477 104.793 60.2497 104.403 60.7177 104.151C61.1857 103.887 61.7137 103.755 62.3017 103.755C62.9377 103.755 63.4897 103.893 63.9577 104.169C64.4377 104.433 64.8097 104.811 65.0737 105.303C65.3497 105.783 65.4877 106.347 65.4877 106.995V112.683H64.1737V107.373C64.1737 106.593 63.9577 105.981 63.5257 105.537C63.1057 105.081 62.5357 104.853 61.8157 104.853C61.3357 104.853 60.8977 104.967 60.5017 105.195C60.1057 105.423 59.7757 105.759 59.5117 106.203V112.683H58.1977ZM68.1113 112.683V103.899H69.4253V112.683H68.1113ZM68.7773 101.721C68.5133 101.721 68.2853 101.631 68.0933 101.451C67.9133 101.259 67.8233 101.037 67.8233 100.785C67.8233 100.533 67.9133 100.317 68.0933 100.137C68.2853 99.9451 68.5133 99.8491 68.7773 99.8491C69.0413 99.8491 69.2633 99.9451 69.4433 100.137C69.6353 100.317 69.7313 100.533 69.7313 100.785C69.7313 101.037 69.6353 101.259 69.4433 101.451C69.2633 101.631 69.0413 101.721 68.7773 101.721ZM74.8375 112.863C74.1175 112.863 73.4515 112.755 72.8395 112.539C72.2275 112.311 71.7055 111.987 71.2735 111.567L71.9755 110.703C72.5035 111.087 72.9895 111.369 73.4335 111.549C73.8775 111.717 74.3335 111.801 74.8015 111.801C75.4375 111.801 75.9655 111.651 76.3855 111.351C76.8055 111.051 77.0155 110.667 77.0155 110.199C77.0155 109.839 76.8895 109.557 76.6375 109.353C76.3975 109.149 75.9955 108.993 75.4315 108.885L73.9915 108.633C73.1395 108.477 72.5095 108.213 72.1015 107.841C71.7055 107.469 71.5075 106.965 71.5075 106.329C71.5075 105.825 71.6395 105.381 71.9035 104.997C72.1795 104.613 72.5575 104.313 73.0375 104.097C73.5175 103.869 74.0635 103.755 74.6755 103.755C75.2755 103.755 75.8455 103.845 76.3855 104.025C76.9255 104.193 77.4715 104.469 78.0235 104.853L77.3755 105.771C76.9195 105.447 76.4635 105.213 76.0075 105.069C75.5515 104.913 75.0895 104.835 74.6215 104.835C74.0455 104.835 73.5835 104.961 73.2355 105.213C72.8875 105.465 72.7135 105.807 72.7135 106.239C72.7135 106.599 72.8215 106.875 73.0375 107.067C73.2655 107.259 73.6615 107.403 74.2255 107.499L75.7015 107.769C76.5895 107.925 77.2375 108.195 77.6455 108.579C78.0535 108.963 78.2575 109.479 78.2575 110.127C78.2575 110.643 78.1075 111.111 77.8075 111.531C77.5075 111.939 77.0995 112.263 76.5835 112.503C76.0675 112.743 75.4855 112.863 74.8375 112.863ZM80.2582 112.683V99.6871L81.5722 99.4171V112.683H80.2582ZM88.4672 112.683V103.899H89.7812V105.267C90.1172 104.763 90.5012 104.385 90.9332 104.133C91.3652 103.881 91.8512 103.755 92.3912 103.755C93.0152 103.755 93.5612 103.911 94.0292 104.223C94.4972 104.523 94.8512 104.937 95.0912 105.465C95.4392 104.901 95.8532 104.475 96.3332 104.187C96.8252 103.899 97.3892 103.755 98.0252 103.755C98.6132 103.755 99.1292 103.893 99.5732 104.169C100.029 104.445 100.383 104.829 100.635 105.321C100.887 105.801 101.013 106.365 101.013 107.013V112.683H99.6992V107.337C99.6992 106.569 99.5072 105.963 99.1232 105.519C98.7392 105.075 98.2112 104.853 97.5392 104.853C97.0832 104.853 96.6692 104.967 96.2972 105.195C95.9372 105.423 95.6192 105.771 95.3432 106.239C95.3672 106.359 95.3852 106.485 95.3972 106.617C95.4092 106.749 95.4152 106.881 95.4152 107.013V112.683H94.1012V107.337C94.1012 106.569 93.9032 105.963 93.5072 105.519C93.1232 105.075 92.5952 104.853 91.9232 104.853C91.0232 104.853 90.3092 105.285 89.7812 106.149V112.683H88.4672ZM106.39 112.845C105.766 112.845 105.214 112.731 104.734 112.503C104.254 112.275 103.876 111.963 103.6 111.567C103.336 111.159 103.204 110.691 103.204 110.163C103.204 109.635 103.342 109.179 103.618 108.795C103.894 108.399 104.278 108.093 104.77 107.877C105.262 107.661 105.838 107.553 106.498 107.553C107.002 107.553 107.476 107.607 107.92 107.715C108.376 107.823 108.796 107.997 109.18 108.237V107.031C109.18 106.311 108.988 105.771 108.604 105.411C108.22 105.039 107.656 104.853 106.912 104.853C106.504 104.853 106.084 104.913 105.652 105.033C105.232 105.153 104.764 105.345 104.248 105.609L103.762 104.601C104.938 104.037 106.042 103.755 107.074 103.755C108.166 103.755 109.006 104.025 109.594 104.565C110.182 105.093 110.476 105.855 110.476 106.851V112.683H109.18V111.657C108.796 112.053 108.37 112.353 107.902 112.557C107.434 112.749 106.93 112.845 106.39 112.845ZM104.464 110.127C104.464 110.643 104.662 111.057 105.058 111.369C105.466 111.681 106 111.837 106.66 111.837C107.152 111.837 107.602 111.753 108.01 111.585C108.43 111.417 108.82 111.165 109.18 110.829V109.137C108.808 108.921 108.424 108.765 108.028 108.669C107.632 108.561 107.188 108.507 106.696 108.507C106.024 108.507 105.484 108.657 105.076 108.957C104.668 109.245 104.464 109.635 104.464 110.127ZM116.191 112.827C115.567 112.827 115.015 112.689 114.535 112.413C114.055 112.137 113.677 111.753 113.401 111.261C113.137 110.769 113.005 110.205 113.005 109.569V103.899H114.337V109.191C114.337 109.971 114.547 110.589 114.967 111.045C115.387 111.501 115.957 111.729 116.677 111.729C117.169 111.729 117.607 111.615 117.991 111.387C118.387 111.159 118.717 110.829 118.981 110.397V103.899H120.295V112.683H118.981V111.261C118.645 111.777 118.243 112.167 117.775 112.431C117.319 112.695 116.791 112.827 116.191 112.827ZM122.991 112.683V103.899H124.305V105.699C124.533 105.087 124.857 104.613 125.277 104.277C125.709 103.929 126.201 103.755 126.753 103.755C126.909 103.755 127.053 103.767 127.185 103.791C127.317 103.803 127.449 103.833 127.581 103.881V105.069C127.437 105.021 127.281 104.985 127.113 104.961C126.957 104.925 126.807 104.907 126.663 104.907C126.123 104.907 125.649 105.063 125.241 105.375C124.845 105.687 124.533 106.125 124.305 106.689V112.683H122.991ZM129.301 112.683V103.899H130.615V112.683H129.301ZM129.967 101.721C129.703 101.721 129.475 101.631 129.283 101.451C129.103 101.259 129.013 101.037 129.013 100.785C129.013 100.533 129.103 100.317 129.283 100.137C129.475 99.9451 129.703 99.8491 129.967 99.8491C130.231 99.8491 130.453 99.9451 130.633 100.137C130.825 100.317 130.921 100.533 130.921 100.785C130.921 101.037 130.825 101.259 130.633 101.451C130.453 101.631 130.231 101.721 129.967 101.721ZM136.027 112.863C135.307 112.863 134.641 112.755 134.029 112.539C133.417 112.311 132.895 111.987 132.463 111.567L133.165 110.703C133.693 111.087 134.179 111.369 134.623 111.549C135.067 111.717 135.523 111.801 135.991 111.801C136.627 111.801 137.155 111.651 137.575 111.351C137.995 111.051 138.205 110.667 138.205 110.199C138.205 109.839 138.079 109.557 137.827 109.353C137.587 109.149 137.185 108.993 136.621 108.885L135.181 108.633C134.329 108.477 133.699 108.213 133.291 107.841C132.895 107.469 132.697 106.965 132.697 106.329C132.697 105.825 132.829 105.381 133.093 104.997C133.369 104.613 133.747 104.313 134.227 104.097C134.707 103.869 135.253 103.755 135.865 103.755C136.465 103.755 137.035 103.845 137.575 104.025C138.115 104.193 138.661 104.469 139.213 104.853L138.565 105.771C138.109 105.447 137.653 105.213 137.197 105.069C136.741 104.913 136.279 104.835 135.811 104.835C135.235 104.835 134.773 104.961 134.425 105.213C134.077 105.465 133.903 105.807 133.903 106.239C133.903 106.599 134.011 106.875 134.227 107.067C134.455 107.259 134.851 107.403 135.415 107.499L136.891 107.769C137.779 107.925 138.427 108.195 138.835 108.579C139.243 108.963 139.447 109.479 139.447 110.127C139.447 110.643 139.297 111.111 138.997 111.531C138.697 111.939 138.289 112.263 137.773 112.503C137.257 112.743 136.675 112.863 136.027 112.863ZM140.822 115.509L141.902 111.351H143.306L141.848 115.509H140.822ZM149.973 116.445V103.899H151.269V105.159C151.605 104.715 152.013 104.379 152.493 104.151C152.985 103.911 153.525 103.791 154.113 103.791C154.881 103.791 155.565 103.995 156.165 104.403C156.777 104.799 157.263 105.339 157.623 106.023C157.983 106.695 158.163 107.451 158.163 108.291C158.163 109.131 157.977 109.893 157.605 110.577C157.245 111.261 156.753 111.807 156.129 112.215C155.517 112.611 154.821 112.809 154.041 112.809C153.489 112.809 152.979 112.707 152.511 112.503C152.043 112.287 151.635 111.981 151.287 111.585V116.445H149.973ZM153.789 111.675C154.377 111.675 154.899 111.531 155.355 111.243C155.823 110.943 156.189 110.541 156.453 110.037C156.729 109.521 156.867 108.945 156.867 108.309C156.867 107.661 156.729 107.085 156.453 106.581C156.189 106.077 155.823 105.681 155.355 105.393C154.899 105.093 154.377 104.943 153.789 104.943C153.273 104.943 152.793 105.051 152.349 105.267C151.917 105.471 151.563 105.765 151.287 106.149V110.451C151.575 110.835 151.935 111.135 152.367 111.351C152.811 111.567 153.285 111.675 153.789 111.675ZM164.355 112.827C163.539 112.827 162.807 112.629 162.159 112.233C161.511 111.837 161.001 111.297 160.629 110.613C160.257 109.929 160.071 109.155 160.071 108.291C160.071 107.427 160.257 106.653 160.629 105.969C161.001 105.285 161.511 104.745 162.159 104.349C162.807 103.953 163.539 103.755 164.355 103.755C165.159 103.755 165.879 103.953 166.515 104.349C167.163 104.745 167.673 105.285 168.045 105.969C168.417 106.653 168.603 107.427 168.603 108.291C168.603 109.155 168.417 109.929 168.045 110.613C167.673 111.297 167.163 111.837 166.515 112.233C165.879 112.629 165.159 112.827 164.355 112.827ZM164.337 111.675C164.913 111.675 165.423 111.531 165.867 111.243C166.311 110.943 166.659 110.535 166.911 110.019C167.175 109.503 167.307 108.927 167.307 108.291C167.307 107.643 167.175 107.067 166.911 106.563C166.659 106.047 166.311 105.645 165.867 105.357C165.423 105.057 164.913 104.907 164.337 104.907C163.761 104.907 163.251 105.057 162.807 105.357C162.363 105.645 162.009 106.047 161.745 106.563C161.493 107.067 161.367 107.643 161.367 108.291C161.367 108.927 161.493 109.503 161.745 110.019C162.009 110.535 162.363 110.943 162.807 111.243C163.251 111.531 163.761 111.675 164.337 111.675ZM173.627 112.863C172.907 112.863 172.241 112.755 171.629 112.539C171.017 112.311 170.495 111.987 170.063 111.567L170.765 110.703C171.293 111.087 171.779 111.369 172.223 111.549C172.667 111.717 173.123 111.801 173.591 111.801C174.227 111.801 174.755 111.651 175.175 111.351C175.595 111.051 175.805 110.667 175.805 110.199C175.805 109.839 175.679 109.557 175.427 109.353C175.187 109.149 174.785 108.993 174.221 108.885L172.781 108.633C171.929 108.477 171.299 108.213 170.891 107.841C170.495 107.469 170.297 106.965 170.297 106.329C170.297 105.825 170.429 105.381 170.693 104.997C170.969 104.613 171.347 104.313 171.827 104.097C172.307 103.869 172.853 103.755 173.465 103.755C174.065 103.755 174.635 103.845 175.175 104.025C175.715 104.193 176.261 104.469 176.813 104.853L176.165 105.771C175.709 105.447 175.253 105.213 174.797 105.069C174.341 104.913 173.879 104.835 173.411 104.835C172.835 104.835 172.373 104.961 172.025 105.213C171.677 105.465 171.503 105.807 171.503 106.239C171.503 106.599 171.611 106.875 171.827 107.067C172.055 107.259 172.451 107.403 173.015 107.499L174.491 107.769C175.379 107.925 176.027 108.195 176.435 108.579C176.843 108.963 177.047 109.479 177.047 110.127C177.047 110.643 176.897 111.111 176.597 111.531C176.297 111.939 175.889 112.263 175.373 112.503C174.857 112.743 174.275 112.863 173.627 112.863ZM182.179 112.827C181.555 112.827 181.003 112.689 180.523 112.413C180.043 112.137 179.665 111.753 179.389 111.261C179.125 110.769 178.993 110.205 178.993 109.569V103.899H180.325V109.191C180.325 109.971 180.535 110.589 180.955 111.045C181.375 111.501 181.945 111.729 182.665 111.729C183.157 111.729 183.595 111.615 183.979 111.387C184.375 111.159 184.705 110.829 184.969 110.397V103.899H186.283V112.683H184.969V111.261C184.633 111.777 184.231 112.167 183.763 112.431C183.307 112.695 182.779 112.827 182.179 112.827ZM192.939 112.863C192.123 112.863 191.385 112.665 190.725 112.269C190.065 111.861 189.543 111.315 189.159 110.631C188.775 109.935 188.583 109.155 188.583 108.291C188.583 107.427 188.763 106.653 189.123 105.969C189.495 105.285 189.993 104.745 190.617 104.349C191.241 103.953 191.937 103.755 192.705 103.755C193.485 103.755 194.175 103.953 194.775 104.349C195.387 104.733 195.867 105.261 196.215 105.933C196.575 106.593 196.755 107.343 196.755 108.183V108.579H189.861C189.909 109.179 190.071 109.719 190.347 110.199C190.635 110.667 191.007 111.039 191.463 111.315C191.931 111.579 192.441 111.711 192.993 111.711C193.449 111.711 193.887 111.633 194.307 111.477C194.739 111.309 195.105 111.087 195.405 110.811L196.233 111.693C195.729 112.089 195.207 112.383 194.667 112.575C194.127 112.767 193.551 112.863 192.939 112.863ZM189.897 107.643H195.459C195.399 107.115 195.237 106.647 194.973 106.239C194.721 105.819 194.397 105.489 194.001 105.249C193.617 105.009 193.185 104.889 192.705 104.889C192.225 104.889 191.787 105.009 191.391 105.249C190.995 105.477 190.665 105.801 190.401 106.221C190.149 106.629 189.981 107.103 189.897 107.643ZM198.998 112.683V103.899H200.312V105.699C200.54 105.087 200.864 104.613 201.284 104.277C201.716 103.929 202.208 103.755 202.76 103.755C202.916 103.755 203.06 103.767 203.192 103.791C203.324 103.803 203.456 103.833 203.588 103.881V105.069C203.444 105.021 203.288 104.985 203.12 104.961C202.964 104.925 202.814 104.907 202.67 104.907C202.13 104.907 201.656 105.063 201.248 105.375C200.852 105.687 200.54 106.125 200.312 106.689V112.683H198.998ZM208.742 112.863C207.926 112.863 207.188 112.665 206.528 112.269C205.868 111.861 205.346 111.315 204.962 110.631C204.578 109.935 204.386 109.155 204.386 108.291C204.386 107.427 204.566 106.653 204.926 105.969C205.298 105.285 205.796 104.745 206.42 104.349C207.044 103.953 207.74 103.755 208.508 103.755C209.288 103.755 209.978 103.953 210.578 104.349C211.19 104.733 211.67 105.261 212.018 105.933C212.378 106.593 212.558 107.343 212.558 108.183V108.579H205.664C205.712 109.179 205.874 109.719 206.15 110.199C206.438 110.667 206.81 111.039 207.266 111.315C207.734 111.579 208.244 111.711 208.796 111.711C209.252 111.711 209.69 111.633 210.11 111.477C210.542 111.309 210.908 111.087 211.208 110.811L212.036 111.693C211.532 112.089 211.01 112.383 210.47 112.575C209.93 112.767 209.354 112.863 208.742 112.863ZM205.7 107.643H211.262C211.202 107.115 211.04 106.647 210.776 106.239C210.524 105.819 210.2 105.489 209.804 105.249C209.42 105.009 208.988 104.889 208.508 104.889C208.028 104.889 207.59 105.009 207.194 105.249C206.798 105.477 206.468 105.801 206.204 106.221C205.952 106.629 205.784 107.103 205.7 107.643ZM221.72 112.845C221.096 112.845 220.544 112.731 220.064 112.503C219.584 112.275 219.206 111.963 218.93 111.567C218.666 111.159 218.534 110.691 218.534 110.163C218.534 109.635 218.672 109.179 218.948 108.795C219.224 108.399 219.608 108.093 220.1 107.877C220.592 107.661 221.168 107.553 221.828 107.553C222.332 107.553 222.806 107.607 223.25 107.715C223.706 107.823 224.126 107.997 224.51 108.237V107.031C224.51 106.311 224.318 105.771 223.934 105.411C223.55 105.039 222.986 104.853 222.242 104.853C221.834 104.853 221.414 104.913 220.982 105.033C220.562 105.153 220.094 105.345 219.578 105.609L219.092 104.601C220.268 104.037 221.372 103.755 222.404 103.755C223.496 103.755 224.336 104.025 224.924 104.565C225.512 105.093 225.806 105.855 225.806 106.851V112.683H224.51V111.657C224.126 112.053 223.7 112.353 223.232 112.557C222.764 112.749 222.26 112.845 221.72 112.845ZM219.794 110.127C219.794 110.643 219.992 111.057 220.388 111.369C220.796 111.681 221.33 111.837 221.99 111.837C222.482 111.837 222.932 111.753 223.34 111.585C223.76 111.417 224.15 111.165 224.51 110.829V109.137C224.138 108.921 223.754 108.765 223.358 108.669C222.962 108.561 222.518 108.507 222.026 108.507C221.354 108.507 220.814 108.657 220.406 108.957C219.998 109.245 219.794 109.635 219.794 110.127ZM231.561 112.863C230.805 112.863 230.229 112.683 229.833 112.323C229.449 111.951 229.257 111.417 229.257 110.721V104.979H227.439V103.899H229.257V101.487L230.571 101.181V103.899H233.091V104.979H230.571V110.379C230.571 110.847 230.667 111.183 230.859 111.387C231.063 111.591 231.393 111.693 231.849 111.693C232.077 111.693 232.281 111.675 232.461 111.639C232.641 111.603 232.851 111.543 233.091 111.459V112.629C232.851 112.713 232.599 112.773 232.335 112.809C232.071 112.845 231.813 112.863 231.561 112.863ZM240.333 112.683V104.979H238.371V103.899H240.333V102.063C240.333 101.199 240.561 100.533 241.017 100.065C241.473 99.5971 242.121 99.3631 242.961 99.3631C243.201 99.3631 243.417 99.3751 243.609 99.3991C243.813 99.4231 243.993 99.4651 244.149 99.5251V100.713C243.957 100.653 243.783 100.611 243.627 100.587C243.471 100.563 243.291 100.551 243.087 100.551C242.583 100.551 242.217 100.677 241.989 100.929C241.761 101.169 241.647 101.553 241.647 102.081V103.899H244.149V104.979H241.647V112.683H240.333ZM249.47 112.863C248.654 112.863 247.916 112.665 247.256 112.269C246.596 111.861 246.074 111.315 245.69 110.631C245.306 109.935 245.114 109.155 245.114 108.291C245.114 107.427 245.294 106.653 245.654 105.969C246.026 105.285 246.524 104.745 247.148 104.349C247.772 103.953 248.468 103.755 249.236 103.755C250.016 103.755 250.706 103.953 251.306 104.349C251.918 104.733 252.398 105.261 252.746 105.933C253.106 106.593 253.286 107.343 253.286 108.183V108.579H246.392C246.44 109.179 246.602 109.719 246.878 110.199C247.166 110.667 247.538 111.039 247.994 111.315C248.462 111.579 248.972 111.711 249.524 111.711C249.98 111.711 250.418 111.633 250.838 111.477C251.27 111.309 251.636 111.087 251.936 110.811L252.764 111.693C252.26 112.089 251.738 112.383 251.198 112.575C250.658 112.767 250.082 112.863 249.47 112.863ZM246.428 107.643H251.99C251.93 107.115 251.768 106.647 251.504 106.239C251.252 105.819 250.928 105.489 250.532 105.249C250.148 105.009 249.716 104.889 249.236 104.889C248.756 104.889 248.318 105.009 247.922 105.249C247.526 105.477 247.196 105.801 246.932 106.221C246.68 106.629 246.512 107.103 246.428 107.643ZM255.53 112.683V99.6871L256.844 99.4171V112.683H255.53ZM259.52 112.683V103.899H260.833V112.683H259.52ZM260.186 101.721C259.922 101.721 259.694 101.631 259.502 101.451C259.322 101.259 259.232 101.037 259.232 100.785C259.232 100.533 259.322 100.317 259.502 100.137C259.694 99.9451 259.922 99.8491 260.186 99.8491C260.45 99.8491 260.672 99.9451 260.852 100.137C261.044 100.317 261.14 100.533 261.14 100.785C261.14 101.037 261.044 101.259 260.852 101.451C260.672 101.631 260.45 101.721 260.186 101.721ZM266.246 112.863C265.526 112.863 264.86 112.755 264.248 112.539C263.636 112.311 263.114 111.987 262.682 111.567L263.384 110.703C263.912 111.087 264.398 111.369 264.842 111.549C265.286 111.717 265.742 111.801 266.21 111.801C266.846 111.801 267.374 111.651 267.794 111.351C268.214 111.051 268.424 110.667 268.424 110.199C268.424 109.839 268.298 109.557 268.046 109.353C267.806 109.149 267.404 108.993 266.84 108.885L265.4 108.633C264.548 108.477 263.918 108.213 263.51 107.841C263.114 107.469 262.916 106.965 262.916 106.329C262.916 105.825 263.048 105.381 263.312 104.997C263.588 104.613 263.966 104.313 264.446 104.097C264.926 103.869 265.472 103.755 266.084 103.755C266.684 103.755 267.254 103.845 267.794 104.025C268.334 104.193 268.88 104.469 269.432 104.853L268.784 105.771C268.328 105.447 267.872 105.213 267.416 105.069C266.96 104.913 266.498 104.835 266.03 104.835C265.454 104.835 264.992 104.961 264.644 105.213C264.296 105.465 264.122 105.807 264.122 106.239C264.122 106.599 264.23 106.875 264.446 107.067C264.674 107.259 265.07 107.403 265.634 107.499L267.11 107.769C267.998 107.925 268.646 108.195 269.054 108.579C269.462 108.963 269.666 109.479 269.666 110.127C269.666 110.643 269.516 111.111 269.216 111.531C268.916 111.939 268.508 112.263 267.992 112.503C267.476 112.743 266.894 112.863 266.246 112.863ZM278.586 112.863C277.866 112.863 277.2 112.755 276.588 112.539C275.976 112.311 275.454 111.987 275.022 111.567L275.724 110.703C276.252 111.087 276.738 111.369 277.182 111.549C277.626 111.717 278.082 111.801 278.55 111.801C279.186 111.801 279.714 111.651 280.134 111.351C280.554 111.051 280.764 110.667 280.764 110.199C280.764 109.839 280.638 109.557 280.386 109.353C280.146 109.149 279.744 108.993 279.18 108.885L277.74 108.633C276.888 108.477 276.258 108.213 275.85 107.841C275.454 107.469 275.256 106.965 275.256 106.329C275.256 105.825 275.388 105.381 275.652 104.997C275.928 104.613 276.306 104.313 276.786 104.097C277.266 103.869 277.812 103.755 278.424 103.755C279.024 103.755 279.594 103.845 280.134 104.025C280.674 104.193 281.22 104.469 281.772 104.853L281.124 105.771C280.668 105.447 280.212 105.213 279.756 105.069C279.3 104.913 278.838 104.835 278.37 104.835C277.794 104.835 277.332 104.961 276.984 105.213C276.636 105.465 276.462 105.807 276.462 106.239C276.462 106.599 276.57 106.875 276.786 107.067C277.014 107.259 277.41 107.403 277.974 107.499L279.45 107.769C280.338 107.925 280.986 108.195 281.394 108.579C281.802 108.963 282.006 109.479 282.006 110.127C282.006 110.643 281.856 111.111 281.556 111.531C281.256 111.939 280.848 112.263 280.332 112.503C279.816 112.743 279.234 112.863 278.586 112.863ZM288.054 112.863C287.238 112.863 286.5 112.665 285.84 112.269C285.18 111.861 284.658 111.315 284.274 110.631C283.89 109.935 283.698 109.155 283.698 108.291C283.698 107.427 283.878 106.653 284.238 105.969C284.61 105.285 285.108 104.745 285.732 104.349C286.356 103.953 287.052 103.755 287.82 103.755C288.6 103.755 289.29 103.953 289.89 104.349C290.502 104.733 290.982 105.261 291.33 105.933C291.69 106.593 291.87 107.343 291.87 108.183V108.579H284.976C285.024 109.179 285.186 109.719 285.462 110.199C285.75 110.667 286.122 111.039 286.578 111.315C287.046 111.579 287.556 111.711 288.108 111.711C288.564 111.711 289.002 111.633 289.422 111.477C289.854 111.309 290.22 111.087 290.52 110.811L291.348 111.693C290.844 112.089 290.322 112.383 289.782 112.575C289.242 112.767 288.666 112.863 288.054 112.863ZM285.012 107.643H290.574C290.514 107.115 290.352 106.647 290.088 106.239C289.836 105.819 289.512 105.489 289.116 105.249C288.732 105.009 288.3 104.889 287.82 104.889C287.34 104.889 286.902 105.009 286.506 105.249C286.11 105.477 285.78 105.801 285.516 106.221C285.264 106.629 285.096 107.103 285.012 107.643ZM297.768 112.809C297.012 112.809 296.328 112.611 295.716 112.215C295.104 111.807 294.618 111.267 294.258 110.595C293.898 109.911 293.718 109.149 293.718 108.309C293.718 107.457 293.898 106.695 294.258 106.023C294.63 105.339 295.128 104.799 295.752 104.403C296.376 103.995 297.072 103.791 297.84 103.791C298.38 103.791 298.884 103.899 299.352 104.115C299.82 104.319 300.228 104.619 300.576 105.015V99.6871L301.89 99.4171V112.683H300.576V111.513C300.24 111.933 299.832 112.257 299.352 112.485C298.872 112.701 298.344 112.809 297.768 112.809ZM298.092 111.657C298.608 111.657 299.082 111.555 299.514 111.351C299.946 111.147 300.3 110.859 300.576 110.487V106.131C300.288 105.759 299.922 105.471 299.478 105.267C299.046 105.051 298.584 104.943 298.092 104.943C297.504 104.943 296.976 105.087 296.508 105.375C296.052 105.663 295.686 106.059 295.41 106.563C295.146 107.067 295.014 107.643 295.014 108.291C295.014 108.927 295.146 109.503 295.41 110.019C295.686 110.523 296.052 110.925 296.508 111.225C296.976 111.513 297.504 111.657 298.092 111.657ZM305.49 112.827C305.226 112.827 304.998 112.731 304.806 112.539C304.626 112.347 304.536 112.119 304.536 111.855C304.536 111.579 304.626 111.351 304.806 111.171C304.998 110.979 305.226 110.883 305.49 110.883C305.754 110.883 305.976 110.979 306.156 111.171C306.348 111.351 306.444 111.579 306.444 111.855C306.444 112.119 306.348 112.347 306.156 112.539C305.976 112.731 305.754 112.827 305.49 112.827Z" fill="black"/>
</svg>
