<svg viewBox="0 0 561 69" xmlns="http://www.w3.org/2000/svg">
  <path fill="none" d="M0 0h561v69H0z"/>
  <path fill="#151515" d="m4.336 16 2.848-9.5 2.832 9.5h1.248L13.68 4.8h-1.2l-1.92 9.232L7.792 4.8h-1.2l-2.768 9.264L1.92 4.8H.672L3.088 16Zm17.024-.9-.736-.784a3.191 3.191 0 0 1-2.144.8 2.845 2.845 0 0 1-2.78-2.764h6.128V12a3.689 3.689 0 0 0-3.588-3.936 3.8 3.8 0 0 0-3.68 4.036 3.9 3.9 0 0 0 3.872 4.048A4.558 4.558 0 0 0 21.36 15.1Zm-3.136-6.028a2.579 2.579 0 0 1 2.448 2.448h-4.944a2.608 2.608 0 0 1 2.496-2.448ZM34.832 12.1a3.768 3.768 0 0 0-3.6-4 3.146 3.146 0 0 0-2.512 1.164V4.32l-1.168.24V16H28.7v-1.024a3.161 3.161 0 0 0 2.464 1.136 3.8 3.8 0 0 0 3.668-4.012Zm-3.888-2.98a2.8 2.8 0 0 1 2.736 2.992 2.8 2.8 0 0 1-2.736 2.988 2.744 2.744 0 0 1-2.224-1.088v-3.82a2.666 2.666 0 0 1 2.224-1.072Zm12.4 5.984-.736-.784a3.191 3.191 0 0 1-2.144.8 2.845 2.845 0 0 1-2.784-2.768h6.128V12a3.689 3.689 0 0 0-3.584-3.936 3.8 3.8 0 0 0-3.68 4.032 3.9 3.9 0 0 0 3.872 4.048 4.558 4.558 0 0 0 2.928-1.044Zm-3.136-6.032a2.579 2.579 0 0 1 2.448 2.448h-4.944a2.608 2.608 0 0 1 2.496-2.448Zm6.768-4.752-1.168.24V16h1.168Zm2.992 1.952a.83.83 0 0 0 .832-.848.84.84 0 0 0-1.68 0 .834.834 0 0 0 .848.848Zm.576 1.92h-1.168V16h1.168Zm8.848 6.908-.736-.784a3.191 3.191 0 0 1-2.144.8 2.845 2.845 0 0 1-2.784-2.768h6.128V12a3.689 3.689 0 0 0-3.584-3.936 3.8 3.8 0 0 0-3.68 4.032 3.9 3.9 0 0 0 3.872 4.048 4.558 4.558 0 0 0 2.928-1.044Zm-3.136-6.028A2.579 2.579 0 0 1 58.7 11.52h-4.94a2.608 2.608 0 0 1 2.496-2.448Zm7.6 6.928h1.12l3.216-7.808h-1.248l-2.5 6.352-2.524-6.352h-1.264Zm11.984-.9-.74-.78a3.191 3.191 0 0 1-2.144.8 2.845 2.845 0 0 1-2.784-2.768H76.3V12a3.689 3.689 0 0 0-3.58-3.936 3.8 3.8 0 0 0-3.68 4.036 3.9 3.9 0 0 0 3.872 4.048A4.558 4.558 0 0 0 75.84 15.1ZM72.7 9.072a2.579 2.579 0 0 1 2.448 2.448h-4.94A2.608 2.608 0 0 1 72.7 9.072Zm10.464-.88h-1.18v5.04a2.73 2.73 0 0 0 2.832 2.9 2.8 2.8 0 0 0 2.48-1.392V16h1.168V8.192H87.3v5.776a2.318 2.318 0 0 1-2.048 1.184 2.017 2.017 0 0 1-2.08-2.256Zm6.944 6.8a4.451 4.451 0 0 0 3.168 1.152c1.728 0 3.04-1.056 3.04-2.416 0-1.152-.7-1.808-2.272-2.1l-1.312-.24c-1.008-.176-1.344-.48-1.344-1.12 0-.768.672-1.248 1.7-1.248a4.142 4.142 0 0 1 2.448.832l.576-.816a5.048 5.048 0 0 0-2.976-.976c-1.648 0-2.816.944-2.816 2.288 0 1.136.688 1.776 2.208 2.048l1.28.224c.992.192 1.408.528 1.408 1.168 0 .816-.832 1.408-1.968 1.408a4.072 4.072 0 0 1-2.512-.976Zm8.576-8.72a.83.83 0 0 0 .832-.848.84.84 0 0 0-1.68 0 .834.834 0 0 0 .852.848Zm.576 1.92H98.1V16h1.168Zm2.4 7.808h1.168v-5.76a2.3 2.3 0 0 1 2.048-1.2 2.024 2.024 0 0 1 2.1 2.24V16h1.168v-5.056a2.717 2.717 0 0 0-2.832-2.88 2.813 2.813 0 0 0-2.48 1.392V8.192h-1.168Zm12.08.1a3.077 3.077 0 0 0 2.5-1.152v1.472c0 1.312-.752 2-2.176 2a5.25 5.25 0 0 1-2.5-.72l-.5.9a6.262 6.262 0 0 0 3.04.816c2.128 0 3.3-1.072 3.3-3.008V8.192h-1.152V9.2a3.151 3.151 0 0 0-2.448-1.1 3.8 3.8 0 0 0-3.664 4 3.768 3.768 0 0 0 3.604 4Zm-2.448-4a2.774 2.774 0 0 1 4.944-1.92v3.856a2.687 2.687 0 0 1-2.208 1.056A2.8 2.8 0 0 1 111.3 12.1Zm14.656 4.048a3.352 3.352 0 0 0 2.48-1.056V16h1.152v-5.184c0-1.776-1.088-2.752-3.024-2.752a6.689 6.689 0 0 0-2.944.752l.432.9a5.156 5.156 0 0 1 2.368-.672 1.758 1.758 0 0 1 2.016 1.936v1.072a4.521 4.521 0 0 0-2.384-.608c-1.76 0-2.928.928-2.928 2.32.004 1.404 1.172 2.38 2.836 2.38Zm-1.712-2.416c0-.864.784-1.44 1.984-1.44a4.122 4.122 0 0 1 2.208.56v1.5a3.091 3.091 0 0 1-2.24.9c-1.164-.004-1.948-.612-1.948-1.524ZM131.952 16h1.168v-5.76a2.3 2.3 0 0 1 2.048-1.2 2.024 2.024 0 0 1 2.1 2.24V16h1.168v-5.056a2.717 2.717 0 0 0-2.832-2.88 2.813 2.813 0 0 0-2.48 1.392V8.192h-1.168Zm12.208-3.9a3.809 3.809 0 1 0 7.6 0 3.807 3.807 0 1 0-7.6 0Zm3.792 3.024a2.753 2.753 0 0 1-2.64-3.008 2.671 2.671 0 1 1 5.3 0 2.774 2.774 0 0 1-2.66 3.004Zm5.856 4.224h1.168v-4.32a3.166 3.166 0 0 0 2.448 1.088 3.8 3.8 0 0 0 3.664-4.016 3.768 3.768 0 0 0-3.6-4 3.08 3.08 0 0 0-2.528 1.216V8.192h-1.152ZM157.2 9.12a2.8 2.8 0 0 1 2.736 2.992A2.8 2.8 0 0 1 157.2 15.1a2.744 2.744 0 0 1-2.224-1.088v-3.82A2.666 2.666 0 0 1 157.2 9.12Zm12.4 5.98-.736-.784a3.191 3.191 0 0 1-2.144.8 2.845 2.845 0 0 1-2.784-2.768h6.128V12a3.689 3.689 0 0 0-3.584-3.936 3.8 3.8 0 0 0-3.68 4.036 3.9 3.9 0 0 0 3.872 4.048A4.558 4.558 0 0 0 169.6 15.1Zm-3.136-6.032a2.579 2.579 0 0 1 2.448 2.448h-4.944a2.608 2.608 0 0 1 2.496-2.444Zm5.6 6.928h1.168V10.24a2.3 2.3 0 0 1 2.048-1.2 2.024 2.024 0 0 1 2.1 2.24V16h1.168v-5.056a2.717 2.717 0 0 0-2.832-2.88 2.813 2.813 0 0 0-2.48 1.392V8.192h-1.168Zm18.3 0h1.168V4.32l-1.168.24v4.624a3.18 3.18 0 0 0-2.428-1.084 3.8 3.8 0 0 0-3.664 4.016 3.768 3.768 0 0 0 3.6 4 3.077 3.077 0 0 0 2.5-1.152Zm-4.944-3.9a2.774 2.774 0 0 1 4.944-1.92v3.872a2.674 2.674 0 0 1-2.208 1.04 2.8 2.8 0 0 1-2.732-2.988Zm14.96 3.008-.736-.784a3.191 3.191 0 0 1-2.144.8 2.845 2.845 0 0 1-2.784-2.768h6.128V12a3.689 3.689 0 0 0-3.584-3.936 3.8 3.8 0 0 0-3.68 4.032 3.9 3.9 0 0 0 3.872 4.048 4.558 4.558 0 0 0 2.932-1.044Zm-3.136-6.032a2.579 2.579 0 0 1 2.456 2.448h-4.944a2.608 2.608 0 0 1 2.492-2.448Zm7.6 6.928h1.12l3.216-7.808h-1.248l-2.5 6.352-2.528-6.352h-1.264Zm11.984-.9-.736-.784a3.191 3.191 0 0 1-2.144.8 2.845 2.845 0 0 1-2.784-2.768h6.136V12a3.689 3.689 0 0 0-3.584-3.936 3.8 3.8 0 0 0-3.68 4.032 3.9 3.9 0 0 0 3.872 4.048 4.558 4.558 0 0 0 2.924-1.044ZM213.7 9.072a2.579 2.579 0 0 1 2.448 2.448H211.2a2.608 2.608 0 0 1 2.5-2.448Zm6.768-4.752-1.168.24V16h1.168Zm2.048 7.776a3.809 3.809 0 1 0 7.6 0 3.807 3.807 0 1 0-7.6 0Zm3.784 3.024a2.753 2.753 0 0 1-2.64-3.008 2.671 2.671 0 1 1 5.3 0 2.774 2.774 0 0 1-2.66 3.008Zm5.856 4.224h1.168v-4.32a3.166 3.166 0 0 0 2.448 1.088 3.8 3.8 0 0 0 3.668-4.012 3.768 3.768 0 0 0-3.6-4 3.08 3.08 0 0 0-2.528 1.216V8.192h-1.152Zm3.396-10.224a2.8 2.8 0 0 1 2.736 2.992 2.8 2.8 0 0 1-2.736 2.992 2.744 2.744 0 0 1-2.224-1.088v-3.824a2.666 2.666 0 0 1 2.224-1.072Zm5.936 6.88h1.168v-5.808a2.14 2.14 0 0 1 1.9-1.152 1.94 1.94 0 0 1 1.936 2.208V16h1.168v-5.04a3.238 3.238 0 0 0-.064-.688 2.173 2.173 0 0 1 1.952-1.232c1.184 0 1.92.848 1.92 2.208V16h1.168v-5.04a2.657 2.657 0 0 0-2.656-2.9 2.885 2.885 0 0 0-2.608 1.52 2.566 2.566 0 0 0-2.4-1.52 2.674 2.674 0 0 0-2.32 1.344V8.192h-1.168Zm19.968-.9-.736-.784a3.191 3.191 0 0 1-2.144.8 2.845 2.845 0 0 1-2.784-2.768h6.128V12a3.689 3.689 0 0 0-3.584-3.936 3.8 3.8 0 0 0-3.68 4.032 3.9 3.9 0 0 0 3.872 4.048 4.558 4.558 0 0 0 2.928-1.044Zm-3.136-6.028a2.579 2.579 0 0 1 2.448 2.448h-4.944a2.608 2.608 0 0 1 2.496-2.448Zm5.6 6.928h1.168v-5.76a2.3 2.3 0 0 1 2.048-1.2 2.024 2.024 0 0 1 2.1 2.24V16h1.164v-5.056a2.717 2.717 0 0 0-2.832-2.88 2.813 2.813 0 0 0-2.48 1.392V8.192h-1.168Zm9.52-1.76c0 1.248.7 1.9 2.048 1.9a4.386 4.386 0 0 0 1.36-.208V14.9a2.8 2.8 0 0 1-1.1.208c-.816 0-1.136-.336-1.136-1.168V9.152h2.24v-.96h-2.24V5.776l-1.168.272v2.144h-1.616v.96h1.616Zm8.848 1.76h1.168v-5.808a2.14 2.14 0 0 1 1.9-1.152 1.94 1.94 0 0 1 1.936 2.208V16h1.168v-5.04a3.24 3.24 0 0 0-.064-.688 2.172 2.172 0 0 1 1.952-1.232c1.184 0 1.92.848 1.92 2.208V16h1.168v-5.04a2.657 2.657 0 0 0-2.656-2.9 2.885 2.885 0 0 0-2.608 1.52 2.566 2.566 0 0 0-2.4-1.52 2.674 2.674 0 0 0-2.32 1.344V8.192h-1.168Zm13.168-3.9a3.809 3.809 0 1 0 7.6 0 3.807 3.807 0 1 0-7.6 0Zm3.792 3.024a2.753 2.753 0 0 1-2.64-3.008 2.671 2.671 0 1 1 5.3 0 2.774 2.774 0 0 1-2.66 3.004Zm11.616.88h1.168V4.32l-1.168.24v4.624a3.18 3.18 0 0 0-2.432-1.084 3.8 3.8 0 0 0-3.664 4.016 3.768 3.768 0 0 0 3.6 4 3.077 3.077 0 0 0 2.5-1.152Zm-4.944-3.9a2.774 2.774 0 0 1 4.944-1.92v3.872a2.674 2.674 0 0 1-2.208 1.04 2.8 2.8 0 0 1-2.736-2.996Zm14.96 2.996-.736-.784a3.19 3.19 0 0 1-2.144.8 2.845 2.845 0 0 1-2.784-2.768h6.128V12a3.689 3.689 0 0 0-3.584-3.936 3.8 3.8 0 0 0-3.68 4.032 3.9 3.9 0 0 0 3.872 4.048 4.558 4.558 0 0 0 2.928-1.044Zm-3.136-6.032a2.579 2.579 0 0 1 2.448 2.448h-4.944a2.608 2.608 0 0 1 2.496-2.444Zm6.768-4.752-1.168.24V16h1.168ZM330.64 16h1.168v-5.76a2.3 2.3 0 0 1 2.048-1.2 2.024 2.024 0 0 1 2.1 2.24V16h1.168v-5.056a2.717 2.717 0 0 0-2.832-2.88 2.813 2.813 0 0 0-2.48 1.392V4.32l-1.168.24Zm15.28-.9-.736-.784a3.19 3.19 0 0 1-2.144.8 2.845 2.845 0 0 1-2.784-2.768h6.128V12a3.689 3.689 0 0 0-3.584-3.936 3.8 3.8 0 0 0-3.68 4.032 3.9 3.9 0 0 0 3.872 4.048 4.558 4.558 0 0 0 2.928-1.044Zm-3.136-6.032a2.579 2.579 0 0 1 2.448 2.448h-4.944a2.608 2.608 0 0 1 2.496-2.444Zm6.768-4.752-1.168.24V16h1.168Zm2.4 15.024h1.168v-4.32a3.165 3.165 0 0 0 2.448 1.088 3.8 3.8 0 0 0 3.664-4.016 3.768 3.768 0 0 0-3.6-4 3.08 3.08 0 0 0-2.532 1.22v-1.12h-1.152Zm3.392-10.22a2.8 2.8 0 0 1 2.736 2.992 2.8 2.8 0 0 1-2.736 2.992 2.744 2.744 0 0 1-2.224-1.088v-3.824a2.666 2.666 0 0 1 2.224-1.072Zm5.184 5.872a4.451 4.451 0 0 0 3.168 1.152c1.728 0 3.04-1.056 3.04-2.416 0-1.152-.7-1.808-2.272-2.1l-1.312-.24c-1.008-.176-1.344-.48-1.344-1.12 0-.768.672-1.248 1.7-1.248a4.142 4.142 0 0 1 2.448.832l.576-.816a5.048 5.048 0 0 0-2.976-.976c-1.648 0-2.816.944-2.816 2.288 0 1.136.688 1.776 2.208 2.048l1.28.224c.992.192 1.408.528 1.408 1.168 0 .816-.832 1.408-1.968 1.408a4.072 4.072 0 0 1-2.512-.976Zm15.28.1a2.832 2.832 0 0 1-2.752-2.992 2.835 2.835 0 0 1 2.736-2.976A3.069 3.069 0 0 1 378 10.1l.752-.816a4.259 4.259 0 0 0-3.008-1.216 3.9 3.9 0 0 0-3.856 4.032 3.914 3.914 0 0 0 3.856 4.048 4.061 4.061 0 0 0 2.96-1.264l-.72-.72a2.876 2.876 0 0 1-2.176.924Zm4.576.912h1.168v-5.348a2.226 2.226 0 0 1 2.1-1.584 2.919 2.919 0 0 1 .816.144V8.16a2.217 2.217 0 0 0-.736-.112 2.332 2.332 0 0 0-2.176 1.728V8.192h-1.168Zm11.584-.9-.736-.784a3.19 3.19 0 0 1-2.144.8 2.845 2.845 0 0 1-2.784-2.768h6.128V12a3.689 3.689 0 0 0-3.584-3.936 3.8 3.8 0 0 0-3.68 4.032 3.9 3.9 0 0 0 3.872 4.048 4.558 4.558 0 0 0 2.928-1.044Zm-3.136-6.032a2.579 2.579 0 0 1 2.448 2.448h-4.944a2.608 2.608 0 0 1 2.496-2.448Zm7.888 7.072a3.352 3.352 0 0 0 2.48-1.056V16h1.152v-5.184c0-1.776-1.088-2.752-3.024-2.752a6.689 6.689 0 0 0-2.944.752l.432.9a5.156 5.156 0 0 1 2.368-.672 1.758 1.758 0 0 1 2.016 1.936v1.072a4.521 4.521 0 0 0-2.384-.608c-1.76 0-2.928.928-2.928 2.32 0 1.404 1.168 2.38 2.832 2.38Zm-1.712-2.416c0-.864.784-1.44 1.984-1.44a4.122 4.122 0 0 1 2.208.56v1.5a3.091 3.091 0 0 1-2.24.9c-1.168 0-1.952-.608-1.952-1.52Zm8.4.512c0 1.248.7 1.9 2.048 1.9a4.386 4.386 0 0 0 1.36-.208V14.9a2.8 2.8 0 0 1-1.1.208c-.816 0-1.136-.336-1.136-1.168V9.152h2.24v-.96h-2.24V5.776l-1.168.272v2.144h-1.616v.96h1.616Zm11.376.864-.736-.784a3.19 3.19 0 0 1-2.144.8 2.845 2.845 0 0 1-2.784-2.768h6.128V12a3.689 3.689 0 0 0-3.584-3.936 3.8 3.8 0 0 0-3.68 4.032 3.9 3.9 0 0 0 3.872 4.048 4.558 4.558 0 0 0 2.928-1.044Zm-3.136-6.032a2.579 2.579 0 0 1 2.452 2.448h-4.944a2.608 2.608 0 0 1 2.492-2.448ZM420.976 16h1.168v-5.808a2.14 2.14 0 0 1 1.9-1.152 1.94 1.94 0 0 1 1.936 2.208V16h1.168v-5.04a3.24 3.24 0 0 0-.064-.688 2.172 2.172 0 0 1 1.956-1.232c1.184 0 1.92.848 1.92 2.208V16h1.168v-5.04a2.657 2.657 0 0 0-2.656-2.9 2.885 2.885 0 0 0-2.608 1.52 2.566 2.566 0 0 0-2.4-1.52 2.674 2.674 0 0 0-2.32 1.344V8.192h-1.168Zm13.168-3.9a3.809 3.809 0 1 0 7.6 0 3.807 3.807 0 1 0-7.6 0Zm3.792 3.024a2.753 2.753 0 0 1-2.64-3.008 2.671 2.671 0 1 1 5.3 0 2.774 2.774 0 0 1-2.66 3.004Zm5.856.88h1.168v-5.348a2.226 2.226 0 0 1 2.1-1.584 2.919 2.919 0 0 1 .816.144V8.16a2.217 2.217 0 0 0-.736-.112 2.332 2.332 0 0 0-2.176 1.728V8.192h-1.168Zm11.584-.9-.736-.784a3.19 3.19 0 0 1-2.144.8 2.845 2.845 0 0 1-2.784-2.768h6.128V12a3.689 3.689 0 0 0-3.584-3.936 3.8 3.8 0 0 0-3.68 4.032 3.9 3.9 0 0 0 3.872 4.048 4.558 4.558 0 0 0 2.928-1.044Zm-3.136-6.032a2.579 2.579 0 0 1 2.448 2.448h-4.944a2.608 2.608 0 0 1 2.496-2.448Zm8.576 5.92a4.451 4.451 0 0 0 3.168 1.152c1.728 0 3.04-1.056 3.04-2.416 0-1.152-.7-1.808-2.272-2.1l-1.312-.24c-1.008-.176-1.344-.48-1.344-1.12 0-.768.672-1.248 1.7-1.248a4.142 4.142 0 0 1 2.448.832l.576-.816a5.048 5.048 0 0 0-2.976-.976c-1.648 0-2.816.944-2.816 2.288 0 1.136.688 1.776 2.208 2.048l1.28.224c.992.192 1.408.528 1.408 1.168 0 .816-.832 1.408-1.968 1.408a4.072 4.072 0 0 1-2.512-.976Zm14.512.112-.736-.784a3.19 3.19 0 0 1-2.144.8 2.845 2.845 0 0 1-2.784-2.768h6.128V12a3.689 3.689 0 0 0-3.584-3.936 3.8 3.8 0 0 0-3.68 4.032 3.9 3.9 0 0 0 3.872 4.048 4.558 4.558 0 0 0 2.928-1.044Zm-3.136-6.032a2.579 2.579 0 0 1 2.448 2.448h-4.94a2.608 2.608 0 0 1 2.492-2.448Zm9.184 6.016a2.832 2.832 0 0 1-2.752-2.992 2.835 2.835 0 0 1 2.736-2.976 3.069 3.069 0 0 1 2.208.976l.752-.816a4.259 4.259 0 0 0-3.008-1.216 3.9 3.9 0 0 0-3.856 4.032 3.914 3.914 0 0 0 3.856 4.048 4.061 4.061 0 0 0 2.96-1.264l-.72-.72a2.876 2.876 0 0 1-2.176.928Zm5.712-6.9H485.9v5.04a2.73 2.73 0 0 0 2.832 2.9 2.8 2.8 0 0 0 2.48-1.392V16h1.168V8.192h-1.168v5.776a2.318 2.318 0 0 1-2.048 1.184 2.017 2.017 0 0 1-2.08-2.256Zm7.7 7.808h1.168v-5.34a2.226 2.226 0 0 1 2.1-1.584 2.919 2.919 0 0 1 .816.144V8.16a2.217 2.217 0 0 0-.736-.112 2.332 2.332 0 0 0-2.176 1.728V8.192h-1.168Zm11.584-.9-.736-.784a3.19 3.19 0 0 1-2.144.8 2.845 2.845 0 0 1-2.784-2.768h6.128V12a3.689 3.689 0 0 0-3.584-3.936 3.8 3.8 0 0 0-3.68 4.032 3.9 3.9 0 0 0 3.872 4.048 4.558 4.558 0 0 0 2.924-1.044Zm-3.136-6.032a2.579 2.579 0 0 1 2.448 2.448h-4.944a2.608 2.608 0 0 1 2.492-2.44Zm5.392 5.744-.96 3.7h.912l1.3-3.7Zm6.3.176a4.451 4.451 0 0 0 3.168 1.152c1.728 0 3.04-1.056 3.04-2.416 0-1.152-.7-1.808-2.272-2.1l-1.312-.24c-1.008-.176-1.344-.48-1.344-1.12 0-.768.672-1.248 1.7-1.248a4.142 4.142 0 0 1 2.448.832l.576-.816a5.048 5.048 0 0 0-2.976-.976c-1.648 0-2.816.944-2.816 2.288 0 1.136.688 1.776 2.208 2.048l1.28.224c.992.192 1.408.528 1.408 1.168 0 .816-.832 1.408-1.968 1.408a4.072 4.072 0 0 1-2.512-.976Zm8.752-.752c0 1.248.7 1.9 2.048 1.9a4.386 4.386 0 0 0 1.36-.208V14.9a2.8 2.8 0 0 1-1.1.208c-.816 0-1.136-.336-1.136-1.168V9.152h2.24v-.96h-2.24V5.776l-1.168.272v2.144h-1.616v.96h1.616Zm7.536 1.9a3.352 3.352 0 0 0 2.48-1.056V16h1.152v-5.184c0-1.776-1.088-2.752-3.024-2.752a6.689 6.689 0 0 0-2.944.752l.432.9a5.156 5.156 0 0 1 2.368-.672 1.758 1.758 0 0 1 2.016 1.936v1.072a4.521 4.521 0 0 0-2.384-.608c-1.76 0-2.928.928-2.928 2.32 0 1.404 1.168 2.38 2.832 2.38Zm-1.716-2.404c0-.864.784-1.44 1.984-1.44a4.122 4.122 0 0 1 2.208.56v1.5a3.091 3.091 0 0 1-2.24.9c-1.164 0-1.952-.608-1.952-1.52Zm15-1.628a3.768 3.768 0 0 0-3.6-4 3.146 3.146 0 0 0-2.512 1.168V4.32l-1.168.24V16h1.152v-1.024a3.161 3.161 0 0 0 2.464 1.136A3.8 3.8 0 0 0 544.5 12.1Zm-3.892-2.98a2.8 2.8 0 0 1 2.736 2.992 2.8 2.8 0 0 1-2.736 2.992 2.744 2.744 0 0 1-2.224-1.088v-3.824a2.666 2.666 0 0 1 2.224-1.072Zm7.1-4.8-1.168.24V16h1.168Zm8.852 10.78-.736-.784a3.191 3.191 0 0 1-2.144.8 2.845 2.845 0 0 1-2.784-2.768h6.128V12a3.689 3.689 0 0 0-3.584-3.936 3.8 3.8 0 0 0-3.68 4.032 3.9 3.9 0 0 0 3.872 4.048 4.559 4.559 0 0 0 2.928-1.044Zm-3.136-6.032a2.579 2.579 0 0 1 2.448 2.448h-4.944a2.608 2.608 0 0 1 2.496-2.444Zm5.392 5.744-.96 3.7h.912l1.3-3.7ZM3.616 40.144A3.352 3.352 0 0 0 6.1 39.088V40h1.148v-5.184c0-1.776-1.088-2.752-3.024-2.752a6.689 6.689 0 0 0-2.944.752l.432.9a5.156 5.156 0 0 1 2.368-.676 1.758 1.758 0 0 1 2.02 1.936v1.072a4.521 4.521 0 0 0-2.384-.608c-1.76 0-2.928.928-2.928 2.32-.004 1.408 1.164 2.384 2.828 2.384ZM1.9 37.728c0-.864.784-1.44 1.984-1.44a4.122 4.122 0 0 1 2.208.56v1.5a3.091 3.091 0 0 1-2.24.9c-1.164 0-1.952-.608-1.952-1.52ZM9.616 40h1.168v-5.76a2.3 2.3 0 0 1 2.048-1.2 2.024 2.024 0 0 1 2.1 2.24V40H16.1v-5.056a2.717 2.717 0 0 0-2.832-2.88 2.813 2.813 0 0 0-2.48 1.392v-1.264H9.616Zm14.576 0h1.168V28.32l-1.168.24v4.624A3.18 3.18 0 0 0 21.76 32.1a3.8 3.8 0 0 0-3.66 4.012 3.768 3.768 0 0 0 3.6 4 3.077 3.077 0 0 0 2.5-1.152Zm-4.944-3.9a2.774 2.774 0 0 1 4.944-1.92v3.872a2.674 2.674 0 0 1-2.208 1.04 2.8 2.8 0 0 1-2.736-2.992Zm12.832-5.828a.83.83 0 0 0 .832-.848.84.84 0 0 0-1.68 0 .834.834 0 0 0 .848.848Zm.576 1.92h-1.168V40h1.168Zm2.4 7.808h1.168v-5.76a2.3 2.3 0 0 1 2.048-1.2 2.024 2.024 0 0 1 2.1 2.24V40h1.168v-5.056a2.717 2.717 0 0 0-2.832-2.88 2.813 2.813 0 0 0-2.48 1.392v-1.264h-1.172Zm8.832 0h1.168v-5.76a2.3 2.3 0 0 1 2.048-1.2 2.024 2.024 0 0 1 2.1 2.24V40h1.168v-5.056a2.717 2.717 0 0 0-2.832-2.88 2.813 2.813 0 0 0-2.48 1.392v-1.264h-1.172Zm8.48-3.9a3.809 3.809 0 1 0 7.6 0 3.807 3.807 0 1 0-7.6 0Zm3.792 3.02a2.753 2.753 0 0 1-2.64-3.008 2.671 2.671 0 1 1 5.3 0 2.774 2.774 0 0 1-2.66 3.008Zm7.856.88h1.12l3.216-7.808H67.1l-2.5 6.352-2.52-6.352h-1.264Zm8.192.144a3.352 3.352 0 0 0 2.48-1.056V40h1.152v-5.184c0-1.776-1.088-2.752-3.024-2.752a6.689 6.689 0 0 0-2.944.752l.432.9a5.156 5.156 0 0 1 2.368-.672 1.758 1.758 0 0 1 2.016 1.936v1.072a4.521 4.521 0 0 0-2.388-.612c-1.76 0-2.928.928-2.928 2.32.004 1.408 1.172 2.384 2.836 2.384ZM70.5 37.728c0-.864.784-1.44 1.984-1.44a4.122 4.122 0 0 1 2.208.56v1.5a3.091 3.091 0 0 1-2.24.9c-1.172 0-1.952-.608-1.952-1.52Zm8.4.512c0 1.248.7 1.9 2.048 1.9a4.386 4.386 0 0 0 1.36-.208V38.9a2.8 2.8 0 0 1-1.1.208c-.816 0-1.136-.336-1.136-1.168v-4.788H82.3v-.96h-2.24v-2.416l-1.168.272v2.144H77.28v.96h1.62Zm5.712-7.968a.83.83 0 0 0 .832-.848.84.84 0 0 0-1.68 0 .834.834 0 0 0 .844.848Zm.576 1.92h-1.172V40h1.168ZM89.824 40h1.12l3.216-7.808h-1.248l-2.5 6.352-2.528-6.352h-1.26Zm11.984-.9-.736-.784a3.191 3.191 0 0 1-2.144.8 2.845 2.845 0 0 1-2.784-2.768h6.128V36a3.689 3.689 0 0 0-3.584-3.936 3.8 3.8 0 0 0-3.68 4.032 3.9 3.9 0 0 0 3.872 4.048 4.558 4.558 0 0 0 2.928-1.044Zm-3.136-6.032a2.579 2.579 0 0 1 2.448 2.448h-4.944a2.608 2.608 0 0 1 2.496-2.444Zm10.256 5.168c0 1.248.7 1.9 2.048 1.9a4.386 4.386 0 0 0 1.36-.208V38.9a2.8 2.8 0 0 1-1.1.208c-.816 0-1.136-.336-1.136-1.168v-4.788h2.24v-.96h-2.24v-2.416l-1.168.272v2.144h-1.616v.96h1.616Zm11.372.864-.736-.784a3.191 3.191 0 0 1-2.144.8 2.845 2.845 0 0 1-2.784-2.768h6.128V36a3.689 3.689 0 0 0-3.584-3.936 3.8 3.8 0 0 0-3.68 4.036 3.9 3.9 0 0 0 3.872 4.048A4.558 4.558 0 0 0 120.3 39.1Zm-3.136-6.032a2.579 2.579 0 0 1 2.448 2.448h-4.944a2.608 2.608 0 0 1 2.5-2.444Zm9.184 6.016a2.995 2.995 0 0 1-.016-5.968 3.069 3.069 0 0 1 2.208.976l.752-.816a4.259 4.259 0 0 0-3.008-1.216 4.044 4.044 0 0 0 0 8.08 4.061 4.061 0 0 0 2.96-1.264l-.72-.72a2.876 2.876 0 0 1-2.172.932Zm4.576.912h1.176V34.24a2.3 2.3 0 0 1 2.048-1.2 2.024 2.024 0 0 1 2.1 2.24V40h1.168v-5.056a2.717 2.717 0 0 0-2.832-2.88 2.813 2.813 0 0 0-2.48 1.392V28.32l-1.168.24Zm8.832 0h1.168V34.24a2.3 2.3 0 0 1 2.048-1.2 2.024 2.024 0 0 1 2.1 2.24V40h1.168v-5.056a2.717 2.717 0 0 0-2.832-2.88 2.813 2.813 0 0 0-2.48 1.392v-1.264h-1.168Zm8.48-3.9a3.809 3.809 0 1 0 7.6 0 3.807 3.807 0 1 0-7.6 0Zm3.792 3.024a2.753 2.753 0 0 1-2.64-3.008 2.671 2.671 0 1 1 5.3 0 2.774 2.774 0 0 1-2.656 3.008Zm7.024-10.8-1.168.24V40h1.168Zm2.048 7.78a3.809 3.809 0 1 0 7.6 0 3.807 3.807 0 1 0-7.6 0Zm3.8 3.02a2.753 2.753 0 0 1-2.64-3.008 2.671 2.671 0 1 1 5.3 0 2.774 2.774 0 0 1-2.66 3.008Zm9.12.976a3.077 3.077 0 0 0 2.5-1.152v1.472c0 1.312-.752 2-2.176 2a5.25 5.25 0 0 1-2.5-.72l-.5.9a6.262 6.262 0 0 0 3.04.816c2.128 0 3.3-1.072 3.3-3.008v-8.212h-1.152V33.2a3.151 3.151 0 0 0-2.448-1.1 3.8 3.8 0 0 0-3.664 4 3.768 3.768 0 0 0 3.596 4Zm-2.448-4a2.774 2.774 0 0 1 4.944-1.92v3.856a2.687 2.687 0 0 1-2.208 1.056 2.8 2.8 0 0 1-2.74-2.988Zm9.1-5.824a.83.83 0 0 0 .832-.848.84.84 0 0 0-1.68 0 .834.834 0 0 0 .848.848Zm.576 1.92h-1.168V40h1.168ZM190.1 39.1l-.736-.784a3.191 3.191 0 0 1-2.144.8 2.845 2.845 0 0 1-2.784-2.768h6.128V36a3.689 3.689 0 0 0-3.584-3.936 3.8 3.8 0 0 0-3.68 4.036 3.9 3.9 0 0 0 3.872 4.048A4.558 4.558 0 0 0 190.1 39.1Zm-3.136-6.032a2.579 2.579 0 0 1 2.448 2.448h-4.944a2.608 2.608 0 0 1 2.492-2.444Zm4.928 5.92a4.451 4.451 0 0 0 3.168 1.152c1.728 0 3.04-1.056 3.04-2.416 0-1.152-.7-1.808-2.272-2.1l-1.312-.24c-1.008-.176-1.344-.48-1.344-1.12 0-.768.672-1.248 1.7-1.248a4.142 4.142 0 0 1 2.448.832l.576-.816a5.048 5.048 0 0 0-2.976-.976c-1.648 0-2.816.944-2.816 2.288 0 1.136.688 1.776 2.208 2.048l1.28.224c.992.192 1.408.528 1.408 1.168 0 .816-.832 1.408-1.968 1.408a4.072 4.072 0 0 1-2.512-.976Zm8.352-.608a.873.873 0 1 0 .832.864.857.857 0 0 0-.836-.86Zm6.912-9.584V40h4.7c2.192 0 3.632-1.232 3.632-3.1a2.781 2.781 0 0 0-2.416-2.72 2.589 2.589 0 0 0 1.984-2.528c0-1.728-1.328-2.848-3.376-2.848Zm4.432 1.056c1.36 0 2.24.752 2.24 1.92s-.88 1.92-2.24 1.92h-3.2v-3.84Zm.144 9.088h-3.344V34.7h3.344c1.536 0 2.512.832 2.512 2.112s-.996 2.132-2.516 2.132Zm7.2 2.3c-.288.7-.656.992-1.248.992a2.719 2.719 0 0 1-.64-.064v1.04a2.678 2.678 0 0 0 .752.112c1.152 0 1.744-.464 2.24-1.728l3.872-9.408h-1.3l-2.508 6.424-2.368-6.416h-1.3l3.008 7.792Zm13.728-2.16a2.995 2.995 0 0 1-.016-5.968 3.069 3.069 0 0 1 2.208.976l.752-.816a4.259 4.259 0 0 0-3.008-1.216 4.044 4.044 0 0 0 0 8.08 4.061 4.061 0 0 0 2.96-1.264l-.72-.72a2.876 2.876 0 0 1-2.18.936Zm3.98-2.98a3.809 3.809 0 1 0 7.6 0 3.807 3.807 0 1 0-7.6 0Zm3.792 3.024a2.753 2.753 0 0 1-2.64-3.008 2.671 2.671 0 1 1 5.3 0 2.774 2.774 0 0 1-2.66 3.004Zm7.024-10.8-1.168.24V40h1.168Zm3.568 0-1.168.24V40h1.168Zm4.816 11.824a3.352 3.352 0 0 0 2.48-1.056V40h1.152v-5.184c0-1.776-1.088-2.752-3.024-2.752a6.689 6.689 0 0 0-2.944.752l.432.9a5.156 5.156 0 0 1 2.368-.672 1.758 1.758 0 0 1 2.016 1.936v1.072a4.521 4.521 0 0 0-2.384-.608c-1.76 0-2.928.928-2.928 2.32 0 1.404 1.168 2.38 2.832 2.38Zm-1.712-2.416c0-.864.784-1.44 1.984-1.44a4.122 4.122 0 0 1 2.208.56v1.5a3.091 3.091 0 0 1-2.24.9c-1.168-.004-1.952-.612-1.952-1.524ZM269.12 36.1a3.768 3.768 0 0 0-3.6-4 3.146 3.146 0 0 0-2.512 1.168V28.32l-1.168.24V40h1.152v-1.024a3.161 3.161 0 0 0 2.464 1.136 3.8 3.8 0 0 0 3.664-4.012Zm-3.888-2.976a2.8 2.8 0 0 1 2.736 2.992 2.8 2.8 0 0 1-2.736 2.992 2.744 2.744 0 0 1-2.224-1.088v-3.828a2.666 2.666 0 0 1 2.224-1.072Zm5.6 2.976a3.809 3.809 0 1 0 7.6 0 3.807 3.807 0 1 0-7.6 0Zm3.792 3.024a2.753 2.753 0 0 1-2.64-3.008 2.671 2.671 0 1 1 5.3 0 2.774 2.774 0 0 1-2.66 3.004Zm5.856.88h1.168v-5.348a2.226 2.226 0 0 1 2.1-1.584 2.919 2.919 0 0 1 .816.144V32.16a2.217 2.217 0 0 0-.736-.112 2.332 2.332 0 0 0-2.176 1.728v-1.584h-1.172Zm7.7.144a3.352 3.352 0 0 0 2.48-1.056V40h1.152v-5.184c0-1.776-1.088-2.752-3.024-2.752a6.689 6.689 0 0 0-2.944.752l.432.9a5.156 5.156 0 0 1 2.368-.672 1.758 1.758 0 0 1 2.016 1.936v1.072a4.521 4.521 0 0 0-2.384-.608c-1.76 0-2.928.928-2.928 2.32-.004 1.404 1.164 2.38 2.828 2.38Zm-1.712-2.416c0-.864.784-1.44 1.984-1.44a4.122 4.122 0 0 1 2.208.56v1.5a3.091 3.091 0 0 1-2.24.9c-1.172-.004-1.956-.612-1.956-1.524Zm8.4.512c0 1.248.7 1.9 2.048 1.9a4.386 4.386 0 0 0 1.36-.208V38.9a2.8 2.8 0 0 1-1.1.208c-.816 0-1.136-.336-1.136-1.168v-4.788h2.24v-.96h-2.24v-2.416l-1.168.272v2.144h-1.616v.96h1.616Zm5.712-7.968a.83.83 0 0 0 .832-.848.84.84 0 0 0-1.68 0 .834.834 0 0 0 .844.844Zm.576 1.92h-1.168V40h1.168Zm2.4 7.808h1.168V34.24a2.3 2.3 0 0 1 2.048-1.2 2.024 2.024 0 0 1 2.1 2.24V40h1.168v-5.056a2.717 2.717 0 0 0-2.832-2.88 2.813 2.813 0 0 0-2.48 1.392v-1.264h-1.168Zm12.08.1a3.077 3.077 0 0 0 2.5-1.152v1.472c0 1.312-.752 2-2.176 2a5.25 5.25 0 0 1-2.5-.72l-.5.9a6.262 6.262 0 0 0 3.04.816c2.128 0 3.3-1.072 3.3-3.008v-8.22h-1.152V33.2a3.151 3.151 0 0 0-2.448-1.1 3.8 3.8 0 0 0-3.664 4 3.768 3.768 0 0 0 3.596 4Zm-2.448-4a2.774 2.774 0 0 1 4.944-1.92v3.856a2.687 2.687 0 0 1-2.208 1.056 2.8 2.8 0 0 1-2.74-2.996ZM327.968 40l1.856-6.3 1.856 6.3h1.136l2.128-7.808h-1.1l-1.616 6.24-1.872-6.24h-1.04l-1.872 6.24-1.632-6.24h-1.136l2.14 7.808Zm9.216-9.728a.83.83 0 0 0 .832-.848.84.84 0 0 0-1.68 0 .834.834 0 0 0 .848.848Zm.576 1.92h-1.168V40h1.168Zm3.328 6.048c0 1.248.7 1.9 2.048 1.9a4.386 4.386 0 0 0 1.36-.208V38.9a2.8 2.8 0 0 1-1.1.208c-.816 0-1.136-.336-1.136-1.168v-4.788h2.24v-.96h-2.24v-2.416l-1.168.272v2.144h-1.616v.96h1.616Zm5.12 1.76h1.168v-5.76a2.3 2.3 0 0 1 2.048-1.2 2.024 2.024 0 0 1 2.1 2.24V40h1.168v-5.056a2.717 2.717 0 0 0-2.832-2.88 2.813 2.813 0 0 0-2.48 1.392V28.32l-1.168.24Zm12.208-3.9a3.809 3.809 0 1 0 7.6 0 3.807 3.807 0 1 0-7.6 0Zm3.792 3.024a2.753 2.753 0 0 1-2.64-3.008 2.671 2.671 0 1 1 5.3 0 2.774 2.774 0 0 1-2.66 3.004Zm5.856 4.224h1.168v-4.32a3.165 3.165 0 0 0 2.448 1.088 3.8 3.8 0 0 0 3.664-4.016 3.768 3.768 0 0 0-3.6-4 3.08 3.08 0 0 0-2.528 1.216v-1.12h-1.152Zm3.392-10.224a2.8 2.8 0 0 1 2.736 2.992 2.8 2.8 0 0 1-2.736 2.992 2.744 2.744 0 0 1-2.224-1.088v-3.828a2.666 2.666 0 0 1 2.224-1.072Zm12.4 5.984-.736-.784a3.19 3.19 0 0 1-2.144.8 2.845 2.845 0 0 1-2.784-2.768h6.128V36a3.689 3.689 0 0 0-3.584-3.936 3.8 3.8 0 0 0-3.68 4.032 3.9 3.9 0 0 0 3.872 4.048 4.558 4.558 0 0 0 2.928-1.044Zm-3.136-6.032a2.579 2.579 0 0 1 2.448 2.448h-4.944a2.608 2.608 0 0 1 2.496-2.452Zm5.6 6.924h1.168v-5.76a2.3 2.3 0 0 1 2.048-1.2 2.024 2.024 0 0 1 2.1 2.24V40h1.164v-5.056a2.717 2.717 0 0 0-2.832-2.88 2.813 2.813 0 0 0-2.48 1.392v-1.264h-1.168Zm11.808-1.008a4.451 4.451 0 0 0 3.168 1.152c1.728 0 3.04-1.056 3.04-2.416 0-1.152-.7-1.808-2.272-2.1l-1.312-.24c-1.008-.176-1.344-.48-1.344-1.12 0-.768.672-1.248 1.7-1.248a4.142 4.142 0 0 1 2.448.832l.576-.816a5.048 5.048 0 0 0-2.976-.976c-1.648 0-2.816.944-2.816 2.288 0 1.136.688 1.776 2.208 2.048l1.28.224c.992.192 1.408.528 1.408 1.168 0 .816-.832 1.408-1.968 1.408a4.072 4.072 0 0 1-2.512-.976Zm7.712-2.9a3.809 3.809 0 1 0 7.6 0 3.807 3.807 0 1 0-7.6 0Zm3.792 3.024a2.753 2.753 0 0 1-2.64-3.008 2.671 2.671 0 1 1 5.3 0 2.774 2.774 0 0 1-2.66 3.012Zm6.992-6.928h-1.184v5.04a2.73 2.73 0 0 0 2.832 2.9 2.8 2.8 0 0 0 2.48-1.392V40h1.168v-7.808h-1.168v5.776a2.318 2.318 0 0 1-2.048 1.184 2.017 2.017 0 0 1-2.08-2.256ZM424.32 40h1.168v-5.344a2.226 2.226 0 0 1 2.1-1.584 2.919 2.919 0 0 1 .816.144V32.16a2.217 2.217 0 0 0-.736-.112 2.332 2.332 0 0 0-2.176 1.728v-1.584h-1.172Zm8.7-.912a2.995 2.995 0 0 1-.016-5.968 3.069 3.069 0 0 1 2.208.976l.752-.816a4.259 4.259 0 0 0-3.008-1.216 4.044 4.044 0 0 0 0 8.08 4.061 4.061 0 0 0 2.96-1.264l-.72-.72a2.876 2.876 0 0 1-2.172.928Zm10.784.016-.736-.784a3.19 3.19 0 0 1-2.144.8 2.845 2.845 0 0 1-2.784-2.768h6.128V36a3.689 3.689 0 0 0-3.584-3.936 3.8 3.8 0 0 0-3.68 4.032 3.9 3.9 0 0 0 3.872 4.048 4.558 4.558 0 0 0 2.932-1.044Zm-3.136-6.032a2.579 2.579 0 0 1 2.448 2.448h-4.944a2.608 2.608 0 0 1 2.5-2.448Zm12.9 6.016a2.995 2.995 0 0 1-.016-5.968 3.069 3.069 0 0 1 2.208.976l.752-.816a4.259 4.259 0 0 0-3.008-1.216 4.044 4.044 0 0 0 0 8.08 4.061 4.061 0 0 0 2.96-1.264l-.72-.72a2.876 2.876 0 0 1-2.176.928Zm3.984-2.992a3.809 3.809 0 1 0 7.6 0 3.807 3.807 0 1 0-7.6 0Zm3.792 3.024a2.753 2.753 0 0 1-2.64-3.008 2.671 2.671 0 1 1 5.3 0 2.774 2.774 0 0 1-2.66 3.008Zm5.856.88h1.168v-5.808a2.14 2.14 0 0 1 1.9-1.152 1.94 1.94 0 0 1 1.936 2.208V40h1.168v-5.04a3.24 3.24 0 0 0-.064-.688 2.172 2.172 0 0 1 1.952-1.232c1.184 0 1.92.848 1.92 2.208V40h1.168v-5.04a2.657 2.657 0 0 0-2.656-2.9 2.885 2.885 0 0 0-2.608 1.52 2.566 2.566 0 0 0-2.4-1.52 2.674 2.674 0 0 0-2.32 1.344v-1.212H467.2Zm13.52 0h1.168v-5.808a2.14 2.14 0 0 1 1.9-1.152 1.94 1.94 0 0 1 1.936 2.208V40h1.176v-5.04a3.24 3.24 0 0 0-.064-.688 2.172 2.172 0 0 1 1.952-1.232c1.184 0 1.92.848 1.92 2.208V40h1.168v-5.04a2.657 2.657 0 0 0-2.656-2.9 2.885 2.885 0 0 0-2.608 1.52 2.566 2.566 0 0 0-2.4-1.52 2.674 2.674 0 0 0-2.32 1.344v-1.212h-1.172Zm14.58-7.808h-1.184v5.04a2.73 2.73 0 0 0 2.832 2.9 2.8 2.8 0 0 0 2.48-1.392V40h1.168v-7.808h-1.168v5.776a2.318 2.318 0 0 1-2.048 1.184 2.017 2.017 0 0 1-2.08-2.252ZM503 40h1.168v-5.76a2.3 2.3 0 0 1 2.048-1.2 2.024 2.024 0 0 1 2.1 2.24V40h1.168v-5.056a2.717 2.717 0 0 0-2.832-2.88 2.813 2.813 0 0 0-2.48 1.392v-1.264h-1.168Zm9.424-9.728a.83.83 0 0 0 .832-.848.84.84 0 0 0-1.68 0 .834.834 0 0 0 .84.848Zm.576 1.92h-1.168V40H513Zm3.328 6.048c0 1.248.7 1.9 2.048 1.9a4.386 4.386 0 0 0 1.36-.208V38.9a2.8 2.8 0 0 1-1.1.208c-.816 0-1.136-.336-1.136-1.168v-4.788h2.24v-.96h-2.24v-2.416l-1.168.272v2.144H514.7v.96h1.616Zm5.712-7.968a.83.83 0 0 0 .832-.848.84.84 0 0 0-1.68 0 .834.834 0 0 0 .84.848Zm.576 1.92h-1.176V40h1.168Zm8.848 6.912-.736-.784a3.191 3.191 0 0 1-2.144.8 2.845 2.845 0 0 1-2.784-2.768h6.128V36a3.689 3.689 0 0 0-3.584-3.936 3.8 3.8 0 0 0-3.68 4.032 3.9 3.9 0 0 0 3.872 4.048 4.559 4.559 0 0 0 2.92-1.044Zm-3.136-6.032a2.579 2.579 0 0 1 2.448 2.448h-4.944a2.608 2.608 0 0 1 2.488-2.448Zm4.928 5.92a4.451 4.451 0 0 0 3.168 1.152c1.728 0 3.04-1.056 3.04-2.416 0-1.152-.7-1.808-2.272-2.1l-1.312-.24c-1.008-.176-1.344-.48-1.344-1.12 0-.768.672-1.248 1.7-1.248a4.142 4.142 0 0 1 2.448.832l.576-.816a5.048 5.048 0 0 0-2.976-.976c-1.648 0-2.816.944-2.816 2.288 0 1.136.688 1.776 2.208 2.048l1.28.224c.992.192 1.408.528 1.408 1.168 0 .816-.832 1.408-1.968 1.408a4.072 4.072 0 0 1-2.512-.976Zm7.984-.176-.96 3.7h.912l1.3-3.7ZM3.744 64 5.6 57.7 7.456 64h1.136l2.128-7.808h-1.1L8 62.432l-1.872-6.24h-1.04l-1.872 6.24-1.632-6.24H.448L2.592 64Zm14.912-.9-.736-.784a3.191 3.191 0 0 1-2.144.8 2.845 2.845 0 0 1-2.784-2.768h6.128V60a3.689 3.689 0 0 0-3.584-3.936 3.8 3.8 0 0 0-3.68 4.032 3.9 3.9 0 0 0 3.872 4.048 4.558 4.558 0 0 0 2.928-1.044Zm-3.136-6.028a2.579 2.579 0 0 1 2.448 2.448h-4.944a2.608 2.608 0 0 1 2.496-2.448ZM21.36 52l-.96 3.7h.912l1.3-3.7ZM24 64h1.168v-5.344a2.226 2.226 0 0 1 2.1-1.584 2.919 2.919 0 0 1 .816.144V56.16a2.217 2.217 0 0 0-.736-.112 2.332 2.332 0 0 0-2.176 1.728v-1.584H24Zm11.584-.9-.736-.784a3.191 3.191 0 0 1-2.144.8 2.845 2.845 0 0 1-2.784-2.768h6.128V60a3.689 3.689 0 0 0-3.584-3.936 3.8 3.8 0 0 0-3.68 4.032 3.9 3.9 0 0 0 3.872 4.048 4.558 4.558 0 0 0 2.928-1.044Zm-3.136-6.032A2.579 2.579 0 0 1 34.9 59.52h-4.948a2.608 2.608 0 0 1 2.496-2.448ZM47.52 64h1.168V52.32l-1.168.24v4.624a3.18 3.18 0 0 0-2.432-1.084 4.028 4.028 0 0 0-.064 8.016 3.077 3.077 0 0 0 2.5-1.152Zm-4.944-3.9a2.774 2.774 0 0 1 4.944-1.92v3.872a2.674 2.674 0 0 1-2.208 1.04 2.8 2.8 0 0 1-2.736-2.992Zm14.96 3-.736-.78a3.191 3.191 0 0 1-2.144.8 2.845 2.845 0 0 1-2.784-2.768H58V60a3.689 3.689 0 0 0-3.584-3.936 3.8 3.8 0 0 0-3.68 4.032 3.9 3.9 0 0 0 3.872 4.048 4.558 4.558 0 0 0 2.928-1.044ZM54.4 57.072a2.579 2.579 0 0 1 2.448 2.448H51.9a2.608 2.608 0 0 1 2.5-2.448ZM62 64h1.12l3.216-7.808h-1.248l-2.5 6.352-2.528-6.352H58.8Zm11.984-.9-.736-.784a3.191 3.191 0 0 1-2.144.8 2.845 2.845 0 0 1-2.784-2.768h6.128V60a3.689 3.689 0 0 0-3.584-3.936 3.8 3.8 0 0 0-3.68 4.032 3.9 3.9 0 0 0 3.872 4.048 4.558 4.558 0 0 0 2.928-1.044Zm-3.136-6.032A2.579 2.579 0 0 1 73.3 59.52h-4.948a2.608 2.608 0 0 1 2.496-2.448Zm6.768-4.752-1.168.24V64h1.168Zm2.048 7.784a3.807 3.807 0 1 0 3.792-4.032 3.867 3.867 0 0 0-3.792 4.032Zm3.792 3.024a3.043 3.043 0 0 1 0-6.032 3.04 3.04 0 0 1 0 6.032Zm5.856 4.224h1.168v-4.32a3.166 3.166 0 0 0 2.448 1.088 4.028 4.028 0 0 0 .064-8.016 3.08 3.08 0 0 0-2.528 1.216v-1.12h-1.152ZM92.7 57.12a3 3 0 0 1 0 5.984 2.744 2.744 0 0 1-2.224-1.088v-3.824A2.666 2.666 0 0 1 92.7 57.12Zm6.528-2.848a.83.83 0 0 0 .832-.848.84.84 0 0 0-1.68 0 .834.834 0 0 0 .852.848Zm.576 1.92H98.64V64h1.168Zm2.4 7.808h1.168v-5.76a2.3 2.3 0 0 1 2.048-1.2 2.024 2.024 0 0 1 2.1 2.24V64h1.168v-5.056a2.717 2.717 0 0 0-2.832-2.88 2.813 2.813 0 0 0-2.48 1.392v-1.264h-1.168Zm12.08.1a3.077 3.077 0 0 0 2.5-1.152v1.472c0 1.312-.752 2-2.176 2a5.25 5.25 0 0 1-2.5-.72l-.5.9a6.262 6.262 0 0 0 3.04.816c2.128 0 3.3-1.072 3.3-3.008v-8.216H116.8V57.2a3.151 3.151 0 0 0-2.448-1.1 4.019 4.019 0 0 0-.064 8Zm-2.448-4a2.774 2.774 0 0 1 4.944-1.92v3.856a2.687 2.687 0 0 1-2.208 1.056 2.8 2.8 0 0 1-2.732-2.992Zm11.488 2.9a4.451 4.451 0 0 0 3.168 1.152c1.728 0 3.04-1.056 3.04-2.416 0-1.152-.7-1.808-2.272-2.1l-1.312-.24c-1.008-.176-1.344-.48-1.344-1.12 0-.768.672-1.248 1.7-1.248a4.142 4.142 0 0 1 2.448.832l.576-.816a5.048 5.048 0 0 0-2.976-.976c-1.648 0-2.816.944-2.816 2.288 0 1.136.688 1.776 2.208 2.048l1.28.224c.992.192 1.408.528 1.408 1.168 0 .816-.832 1.408-1.968 1.408a4.072 4.072 0 0 1-2.512-.976Zm7.712-2.9a3.807 3.807 0 1 0 3.792-4.032 3.867 3.867 0 0 0-3.788 4.032Zm3.792 3.024a3.043 3.043 0 0 1 0-6.032 3.04 3.04 0 0 1 0 6.032Zm4.608-6.928v.96h1.744V64h1.168v-6.848h2.224v-.96h-2.224V54.5c0-.928.384-1.36 1.28-1.36a3.22 3.22 0 0 1 .944.144v-1.06a3.3 3.3 0 0 0-1.056-.144 2.143 2.143 0 0 0-2.336 2.4v1.712Zm7.76 6.048c0 1.248.7 1.9 2.048 1.9a4.386 4.386 0 0 0 1.36-.208V62.9a2.8 2.8 0 0 1-1.1.208c-.816 0-1.136-.336-1.136-1.168v-4.788h2.24v-.96h-2.24v-2.416l-1.168.272v2.144h-1.616v.96h1.616ZM155.024 64l1.856-6.3 1.856 6.3h1.136L162 56.192h-1.1l-1.616 6.24-1.872-6.24h-1.04l-1.872 6.24-1.632-6.24h-1.136l2.14 7.808Zm11.008.144a3.352 3.352 0 0 0 2.48-1.056V64h1.152v-5.184c0-1.776-1.088-2.752-3.024-2.752a6.689 6.689 0 0 0-2.944.752l.432.9a5.156 5.156 0 0 1 2.368-.672 1.758 1.758 0 0 1 2.016 1.936v1.072a4.521 4.521 0 0 0-2.384-.608c-1.76 0-2.928.928-2.928 2.32 0 1.404 1.168 2.38 2.832 2.38Zm-1.712-2.416c0-.864.784-1.44 1.984-1.44a4.122 4.122 0 0 1 2.208.56v1.5a3.091 3.091 0 0 1-2.24.9c-1.172 0-1.952-.608-1.952-1.52ZM172.032 64h1.168v-5.344a2.226 2.226 0 0 1 2.1-1.584 2.919 2.919 0 0 1 .816.144V56.16a2.217 2.217 0 0 0-.736-.112 2.332 2.332 0 0 0-2.176 1.728v-1.584h-1.168Zm11.584-.9-.736-.784a3.191 3.191 0 0 1-2.144.8 2.845 2.845 0 0 1-2.784-2.768h6.128V60a3.689 3.689 0 0 0-3.584-3.936 3.8 3.8 0 0 0-3.68 4.032 3.9 3.9 0 0 0 3.872 4.048 4.558 4.558 0 0 0 2.928-1.044Zm-3.136-6.032a2.579 2.579 0 0 1 2.448 2.448h-4.944a2.608 2.608 0 0 1 2.496-2.444Zm10.256 5.168c0 1.248.7 1.9 2.048 1.9a4.386 4.386 0 0 0 1.36-.208V62.9a2.8 2.8 0 0 1-1.1.208c-.816 0-1.136-.336-1.136-1.168v-4.788h2.24v-.96H191.9v-2.416l-1.168.272v2.144h-1.612v.96h1.616Zm5.12 1.76h1.168V58.24a2.3 2.3 0 0 1 2.048-1.2 2.024 2.024 0 0 1 2.1 2.24V64h1.168v-5.056a2.717 2.717 0 0 0-2.832-2.88 2.813 2.813 0 0 0-2.48 1.392V52.32l-1.168.24Zm11.248.144a3.352 3.352 0 0 0 2.48-1.056V64h1.152v-5.184c0-1.776-1.088-2.752-3.024-2.752a6.689 6.689 0 0 0-2.944.752l.432.9a5.156 5.156 0 0 1 2.368-.672 1.758 1.758 0 0 1 2.016 1.936v1.072a4.521 4.521 0 0 0-2.384-.608c-1.76 0-2.928.928-2.928 2.32 0 1.404 1.168 2.38 2.828 2.38Zm-1.712-2.416c0-.864.784-1.44 1.984-1.44a4.122 4.122 0 0 1 2.208.56v1.5a3.091 3.091 0 0 1-2.24.9c-1.168.004-1.952-.604-1.952-1.516Zm8.4.512c0 1.248.7 1.9 2.048 1.9a4.386 4.386 0 0 0 1.36-.208V62.9a2.8 2.8 0 0 1-1.1.208c-.816 0-1.136-.336-1.136-1.168v-4.788h2.24v-.96h-2.24v-2.416l-1.168.272v2.144h-1.616v.96h1.616Zm8.848 5.1h1.168v-4.32a3.166 3.166 0 0 0 2.448 1.088 4.028 4.028 0 0 0 .064-8.016 3.08 3.08 0 0 0-2.528 1.216v-1.12h-1.152Zm3.392-10.224a3 3 0 0 1 0 5.984 2.744 2.744 0 0 1-2.224-1.088v-3.816a2.666 2.666 0 0 1 2.224-1.072Zm7.072-.928h-1.184v5.04a2.73 2.73 0 0 0 2.832 2.9 2.8 2.8 0 0 0 2.48-1.392V64h1.168v-7.808h-1.168v5.776a2.318 2.318 0 0 1-2.048 1.184A2.017 2.017 0 0 1 233.1 60.9Zm6.944 6.8a4.451 4.451 0 0 0 3.168 1.152c1.728 0 3.04-1.056 3.04-2.416 0-1.152-.7-1.808-2.272-2.1l-1.312-.24c-1.008-.176-1.344-.48-1.344-1.12 0-.768.672-1.248 1.7-1.248a4.142 4.142 0 0 1 2.448.832l.576-.816a5.048 5.048 0 0 0-2.976-.976c-1.648 0-2.816.944-2.816 2.288 0 1.136.688 1.776 2.208 2.048l1.28.224c.992.192 1.408.528 1.408 1.168 0 .816-.832 1.408-1.968 1.408a4.072 4.072 0 0 1-2.512-.976ZM248.032 64h1.168v-5.76a2.3 2.3 0 0 1 2.048-1.2 2.024 2.024 0 0 1 2.1 2.24V64h1.168v-5.056a2.717 2.717 0 0 0-2.832-2.88 2.813 2.813 0 0 0-2.48 1.392V52.32l-1.168.24Zm15.28-.9-.736-.784a3.19 3.19 0 0 1-2.144.8 2.845 2.845 0 0 1-2.784-2.768h6.128V60a3.689 3.689 0 0 0-3.584-3.936 3.8 3.8 0 0 0-3.68 4.032 3.9 3.9 0 0 0 3.872 4.048 4.558 4.558 0 0 0 2.928-1.044Zm-3.136-6.032a2.579 2.579 0 0 1 2.448 2.448h-4.944a2.608 2.608 0 0 1 2.496-2.444Zm4.928 5.92a4.451 4.451 0 0 0 3.168 1.152c1.728 0 3.04-1.056 3.04-2.416 0-1.152-.7-1.808-2.272-2.1l-1.312-.24c-1.008-.176-1.344-.48-1.344-1.12 0-.768.672-1.248 1.7-1.248a4.142 4.142 0 0 1 2.448.832l.576-.816a5.048 5.048 0 0 0-2.976-.976c-1.648 0-2.816.944-2.816 2.288 0 1.136.688 1.776 2.208 2.048l1.28.224c.992.192 1.408.528 1.408 1.168 0 .816-.832 1.408-1.968 1.408a4.072 4.072 0 0 1-2.512-.976Zm12.64-.752c0 1.248.7 1.9 2.048 1.9a4.386 4.386 0 0 0 1.36-.208V62.9a2.8 2.8 0 0 1-1.1.208c-.816 0-1.136-.336-1.136-1.168v-4.788h2.24v-.96h-2.24v-2.416l-1.168.272v2.144h-1.616v.96h1.616Zm5.12 1.76h1.168V58.24a2.3 2.3 0 0 1 2.048-1.2 2.024 2.024 0 0 1 2.1 2.24V64h1.168v-5.056a2.717 2.717 0 0 0-2.832-2.88 2.813 2.813 0 0 0-2.48 1.392V52.32l-1.168.24Zm15.28-.9-.736-.784a3.19 3.19 0 0 1-2.144.8 2.845 2.845 0 0 1-2.784-2.768h6.128V60a3.689 3.689 0 0 0-3.584-3.936 3.8 3.8 0 0 0-3.68 4.032 3.9 3.9 0 0 0 3.872 4.048 4.558 4.558 0 0 0 2.928-1.044Zm-3.136-6.032a2.579 2.579 0 0 1 2.448 2.448h-4.944a2.608 2.608 0 0 1 2.496-2.44Zm16.608 3.036a3.768 3.768 0 0 0-3.6-4 3.146 3.146 0 0 0-2.512 1.168V52.32l-1.168.24V64h1.152v-1.024a3.161 3.161 0 0 0 2.464 1.136 3.8 3.8 0 0 0 3.664-4.012Zm-3.888-2.976a3 3 0 0 1 0 5.984 2.744 2.744 0 0 1-2.224-1.088v-3.828a2.666 2.666 0 0 1 2.224-1.072Zm5.6 2.976a3.807 3.807 0 1 0 3.792-4.032 3.867 3.867 0 0 0-3.792 4.032Zm3.792 3.024a3.043 3.043 0 0 1 0-6.032 3.04 3.04 0 0 1 0 6.032Zm6.992-6.928h-1.184v5.04a2.73 2.73 0 0 0 2.832 2.9 2.8 2.8 0 0 0 2.48-1.392V64h1.168v-7.808h-1.168v5.776a2.318 2.318 0 0 1-2.048 1.184 2.017 2.017 0 0 1-2.08-2.256Zm7.7 7.808h1.168V58.24a2.3 2.3 0 0 1 2.048-1.2 2.024 2.024 0 0 1 2.1 2.24V64h1.168v-5.056a2.717 2.717 0 0 0-2.832-2.88 2.813 2.813 0 0 0-2.48 1.392v-1.264h-1.168Zm14.576 0h1.168V52.32l-1.168.24v4.624a3.18 3.18 0 0 0-2.432-1.088 4.028 4.028 0 0 0-.064 8.016 3.077 3.077 0 0 0 2.5-1.152Zm-4.944-3.9a2.774 2.774 0 0 1 4.944-1.92v3.872a2.674 2.674 0 0 1-2.208 1.04 2.8 2.8 0 0 1-2.74-2.996Zm10.928 4.048a3.352 3.352 0 0 0 2.48-1.056V64H356v-5.184c0-1.776-1.088-2.752-3.024-2.752a6.689 6.689 0 0 0-2.944.752l.432.9a5.156 5.156 0 0 1 2.368-.672 1.758 1.758 0 0 1 2.016 1.936v1.072a4.521 4.521 0 0 0-2.384-.608c-1.76 0-2.928.928-2.928 2.32 0 1.404 1.164 2.38 2.832 2.38Zm-1.712-2.416c0-.864.784-1.44 1.984-1.44a4.122 4.122 0 0 1 2.208.56v1.5a3.091 3.091 0 0 1-2.24.9c-1.172-.008-1.956-.616-1.956-1.528ZM358.368 64h1.168v-5.344a2.226 2.226 0 0 1 2.1-1.584 2.919 2.919 0 0 1 .816.144V56.16a2.217 2.217 0 0 0-.736-.112 2.332 2.332 0 0 0-2.176 1.728v-1.584h-1.168Zm6.224-9.728a.83.83 0 0 0 .832-.848.84.84 0 0 0-1.68 0 .834.834 0 0 0 .848.848Zm.576 1.92H364V64h1.168Zm8.848 6.912-.736-.784a3.19 3.19 0 0 1-2.144.8 2.845 2.845 0 0 1-2.784-2.768h6.128V60a3.689 3.689 0 0 0-3.584-3.936 3.8 3.8 0 0 0-3.68 4.032 3.9 3.9 0 0 0 3.872 4.048 4.558 4.558 0 0 0 2.928-1.044Zm-3.136-6.032a2.579 2.579 0 0 1 2.448 2.448h-4.944a2.608 2.608 0 0 1 2.496-2.448Zm4.928 5.92a4.451 4.451 0 0 0 3.168 1.152c1.728 0 3.04-1.056 3.04-2.416 0-1.152-.7-1.808-2.272-2.1l-1.312-.24c-1.008-.176-1.344-.48-1.344-1.12 0-.768.672-1.248 1.7-1.248a4.142 4.142 0 0 1 2.448.832l.576-.816a5.048 5.048 0 0 0-2.976-.976c-1.648 0-2.816.944-2.816 2.288 0 1.136.688 1.776 2.208 2.048l1.28.224c.992.192 1.408.528 1.408 1.168 0 .816-.832 1.408-1.968 1.408a4.072 4.072 0 0 1-2.512-.976Zm11.36-2.9a3.807 3.807 0 1 0 3.792-4.032 3.867 3.867 0 0 0-3.792 4.04Zm3.792 3.024a3.043 3.043 0 0 1 0-6.032 3.04 3.04 0 0 1 0 6.032Zm4.608-6.928v.96h1.744V64h1.168v-6.848h2.22v-.96h-2.22V54.5c0-.928.384-1.36 1.28-1.36a3.22 3.22 0 0 1 .944.144v-1.06a3.3 3.3 0 0 0-1.056-.144 2.143 2.143 0 0 0-2.336 2.4v1.712ZM406.9 62.24c0 1.248.7 1.9 2.048 1.9a4.386 4.386 0 0 0 1.36-.208V62.9a2.8 2.8 0 0 1-1.1.208c-.816 0-1.136-.336-1.136-1.168v-4.788h2.24v-.96h-2.24v-2.416l-1.168.272v2.144h-1.624v.96h1.62Zm11.376.864-.736-.784a3.19 3.19 0 0 1-2.144.8 2.845 2.845 0 0 1-2.784-2.768h6.128V60a3.689 3.689 0 0 0-3.584-3.936 3.8 3.8 0 0 0-3.68 4.032 3.9 3.9 0 0 0 3.872 4.048 4.558 4.558 0 0 0 2.924-1.044Zm-3.136-6.032a2.579 2.579 0 0 1 2.448 2.448h-4.948a2.608 2.608 0 0 1 2.496-2.448Zm9.184 6.016a2.995 2.995 0 0 1-.016-5.968 3.069 3.069 0 0 1 2.208.976l.752-.816a4.259 4.259 0 0 0-3.008-1.216 4.044 4.044 0 0 0 0 8.08 4.061 4.061 0 0 0 2.96-1.264l-.72-.72a2.876 2.876 0 0 1-2.18.928ZM428.9 64h1.168v-5.76a2.3 2.3 0 0 1 2.048-1.2 2.024 2.024 0 0 1 2.1 2.24V64h1.168v-5.056a2.717 2.717 0 0 0-2.832-2.88 2.813 2.813 0 0 0-2.48 1.392V52.32l-1.168.24Zm8.832 0h1.168v-5.76a2.3 2.3 0 0 1 2.048-1.2 2.024 2.024 0 0 1 2.1 2.24V64h1.168v-5.056a2.717 2.717 0 0 0-2.832-2.88 2.813 2.813 0 0 0-2.48 1.392v-1.264h-1.168Zm8.48-3.9A3.807 3.807 0 1 0 450 56.064a3.867 3.867 0 0 0-3.792 4.036ZM450 63.12a3.043 3.043 0 0 1 0-6.032 3.04 3.04 0 0 1 0 6.032Zm7.024-10.8-1.168.24V64h1.168Zm2.048 7.776a3.807 3.807 0 1 0 3.792-4.032 3.867 3.867 0 0 0-3.792 4.036Zm3.792 3.024a3.043 3.043 0 0 1 0-6.032 3.04 3.04 0 0 1 0 6.032Zm9.12.976a3.077 3.077 0 0 0 2.5-1.152v1.472c0 1.312-.752 2-2.176 2a5.25 5.25 0 0 1-2.5-.72l-.5.9a6.262 6.262 0 0 0 3.04.816c2.128 0 3.3-1.072 3.3-3.008v-8.212H474.5V57.2a3.151 3.151 0 0 0-2.448-1.1 4.019 4.019 0 0 0-.064 8Zm-2.448-4a2.774 2.774 0 0 1 4.944-1.92v3.856a2.687 2.687 0 0 1-2.208 1.056 2.8 2.8 0 0 1-2.736-2.988Zm9.1-5.824a.83.83 0 0 0 .832-.848.84.84 0 0 0-1.68 0 .834.834 0 0 0 .852.848Zm.576 1.92h-1.168V64h1.168Zm5.968 6.9a2.995 2.995 0 0 1-.016-5.968 3.069 3.069 0 0 1 2.208.976l.752-.816a4.259 4.259 0 0 0-3.008-1.216 4.044 4.044 0 0 0 0 8.08 4.061 4.061 0 0 0 2.96-1.264l-.72-.72a2.876 2.876 0 0 1-2.172.924Zm6.992 1.056a3.352 3.352 0 0 0 2.48-1.056V64h1.152v-5.184c0-1.776-1.088-2.752-3.024-2.752a6.689 6.689 0 0 0-2.944.752l.432.9a5.156 5.156 0 0 1 2.368-.672 1.758 1.758 0 0 1 2.016 1.936v1.072a4.521 4.521 0 0 0-2.384-.608c-1.76 0-2.928.928-2.928 2.32.004 1.404 1.172 2.38 2.836 2.38Zm-1.712-2.416c0-.864.784-1.44 1.984-1.44a4.122 4.122 0 0 1 2.208.56v1.5a3.091 3.091 0 0 1-2.24.9c-1.164-.004-1.948-.612-1.948-1.524Zm8.88-9.408-1.168.24V64h1.168Zm8.544 11.824a3.352 3.352 0 0 0 2.48-1.056V64h1.152v-5.184c0-1.776-1.088-2.752-3.024-2.752a6.689 6.689 0 0 0-2.944.752l.432.9a5.156 5.156 0 0 1 2.368-.672 1.758 1.758 0 0 1 2.016 1.936v1.072a4.521 4.521 0 0 0-2.384-.608c-1.76 0-2.928.928-2.928 2.32.004 1.404 1.172 2.38 2.836 2.38Zm-1.712-2.416c0-.864.784-1.44 1.984-1.44a4.122 4.122 0 0 1 2.208.56v1.5a3.091 3.091 0 0 1-2.24.9c-1.164-.004-1.948-.612-1.948-1.524Zm14.996-1.632a3.768 3.768 0 0 0-3.6-4 3.146 3.146 0 0 0-2.512 1.168V52.32l-1.168.24V64h1.152v-1.024a3.161 3.161 0 0 0 2.464 1.136 3.8 3.8 0 0 0 3.664-4.012Zm-3.888-2.98a3 3 0 0 1 0 5.984 2.744 2.744 0 0 1-2.224-1.088v-3.824a2.666 2.666 0 0 1 2.224-1.072Zm6.528-2.848a.83.83 0 0 0 .832-.848.84.84 0 0 0-1.68 0 .834.834 0 0 0 .848.848Zm.576 1.92h-1.168V64h1.168Zm3.568-3.872-1.168.24V64h1.168Zm2.992 1.952a.83.83 0 0 0 .832-.848.84.84 0 0 0-1.68 0 .834.834 0 0 0 .848.848Zm.576 1.92h-1.168V64h1.168Zm3.328 6.048c0 1.248.7 1.9 2.048 1.9a4.386 4.386 0 0 0 1.36-.208V62.9a2.8 2.8 0 0 1-1.1.208c-.816 0-1.136-.336-1.136-1.168v-4.788h2.24v-.96h-2.24v-2.416l-1.168.272v2.144h-1.616v.96h1.616Zm6.816 3.008c-.288.7-.656.992-1.248.992a2.719 2.719 0 0 1-.64-.064v1.04a2.678 2.678 0 0 0 .752.112c1.152 0 1.744-.464 2.24-1.728l3.872-9.408h-1.3l-2.512 6.416-2.368-6.416h-1.3l3.008 7.792Zm6.128-2.864a.873.873 0 1 0 .832.864.857.857 0 0 0-.832-.864Z"/>
  <path fill="#fff" d="M221 48h161v21H221z" data-name="Rectangle"/>
  <path fill="red" d="M221 48h161v21H221z" data-name="Rectangle" opacity=".03"/>
  <path fill="#06c" d="M222.2 67.344h1.168v-4.32a3.166 3.166 0 0 0 2.448 1.088 3.8 3.8 0 0 0 3.664-4.012 3.768 3.768 0 0 0-3.6-4 3.08 3.08 0 0 0-2.528 1.212v-1.12H222.2Zm3.392-10.224a2.8 2.8 0 0 1 2.736 2.992 2.8 2.8 0 0 1-2.736 2.988 2.744 2.744 0 0 1-2.224-1.084v-3.824a2.666 2.666 0 0 1 2.224-1.072Zm7.072-.928h-1.184v5.04a2.73 2.73 0 0 0 2.832 2.9 2.8 2.8 0 0 0 2.48-1.392V64h1.168v-7.808h-1.168v5.776a2.318 2.318 0 0 1-2.048 1.184 2.017 2.017 0 0 1-2.08-2.252Zm6.944 6.8a4.451 4.451 0 0 0 3.168 1.152c1.728 0 3.04-1.056 3.04-2.416 0-1.152-.7-1.808-2.272-2.1l-1.312-.24c-1.008-.176-1.344-.48-1.344-1.12 0-.768.672-1.248 1.7-1.248a4.142 4.142 0 0 1 2.448.832l.576-.816a5.048 5.048 0 0 0-2.976-.976c-1.648 0-2.816.944-2.816 2.288 0 1.136.688 1.776 2.208 2.048l1.28.224c.992.192 1.408.528 1.408 1.168 0 .816-.832 1.408-1.968 1.408a4.072 4.072 0 0 1-2.512-.976ZM247.592 64h1.168v-5.76a2.3 2.3 0 0 1 2.048-1.2 2.024 2.024 0 0 1 2.1 2.24V64h1.168v-5.056a2.717 2.717 0 0 0-2.832-2.88 2.813 2.813 0 0 0-2.48 1.392V52.32l-1.168.24Zm15.28-.9-.736-.784a3.191 3.191 0 0 1-2.144.8 2.845 2.845 0 0 1-2.784-2.768h6.128V60a3.689 3.689 0 0 0-3.584-3.936 3.8 3.8 0 0 0-3.68 4.036 3.9 3.9 0 0 0 3.872 4.044 4.558 4.558 0 0 0 2.928-1.044Zm-3.136-6.028a2.579 2.579 0 0 1 2.448 2.448h-4.944a2.608 2.608 0 0 1 2.496-2.448Zm4.928 5.92a4.451 4.451 0 0 0 3.168 1.152c1.728 0 3.04-1.056 3.04-2.416 0-1.152-.7-1.808-2.272-2.1l-1.312-.24c-1.008-.176-1.344-.48-1.344-1.12 0-.768.672-1.248 1.7-1.248a4.142 4.142 0 0 1 2.448.832l.576-.816a5.048 5.048 0 0 0-2.976-.976c-1.648 0-2.816.944-2.816 2.288 0 1.136.688 1.776 2.208 2.048l1.28.224c.992.192 1.408.528 1.408 1.168 0 .816-.832 1.408-1.968 1.408a4.072 4.072 0 0 1-2.512-.976Zm12.636-.752c0 1.248.7 1.9 2.048 1.9a4.386 4.386 0 0 0 1.36-.208V62.9a2.8 2.8 0 0 1-1.1.208c-.816 0-1.136-.336-1.136-1.168v-4.788h2.24v-.96h-2.24v-2.416l-1.172.272v2.144h-1.612v.96h1.612Zm5.124 1.76h1.168v-5.76a2.3 2.3 0 0 1 2.048-1.2 2.024 2.024 0 0 1 2.1 2.24V64h1.16v-5.056a2.717 2.717 0 0 0-2.832-2.88 2.813 2.813 0 0 0-2.48 1.392V52.32l-1.168.24Zm15.276-.9-.736-.784a3.191 3.191 0 0 1-2.144.8 2.845 2.845 0 0 1-2.78-2.764h6.128V60a3.689 3.689 0 0 0-3.584-3.936A3.8 3.8 0 0 0 290.9 60.1a3.9 3.9 0 0 0 3.876 4.044A4.558 4.558 0 0 0 297.7 63.1Zm-3.132-6.028a2.579 2.579 0 0 1 2.448 2.448h-4.944a2.608 2.608 0 0 1 2.496-2.448Zm16.608 3.028a3.768 3.768 0 0 0-3.6-4 3.146 3.146 0 0 0-2.512 1.168V52.32l-1.168.24V64h1.152v-1.024a3.161 3.161 0 0 0 2.464 1.136 3.8 3.8 0 0 0 3.664-4.012Zm-3.888-2.98a2.8 2.8 0 0 1 2.736 2.992 2.8 2.8 0 0 1-2.736 2.988 2.744 2.744 0 0 1-2.224-1.088v-3.82a2.666 2.666 0 0 1 2.224-1.072Zm5.6 2.976a3.867 3.867 0 0 0 3.792 4.064 3.86 3.86 0 0 0 3.808-4.06 3.832 3.832 0 0 0-3.808-4.036 3.829 3.829 0 0 0-3.792 4.036Zm3.792 3.024a2.753 2.753 0 0 1-2.64-3.008 2.777 2.777 0 0 1 2.64-3.024 2.789 2.789 0 0 1 2.656 3.024 2.774 2.774 0 0 1-2.656 3.008Zm6.992-6.928h-1.184v5.04a2.73 2.73 0 0 0 2.832 2.9 2.8 2.8 0 0 0 2.48-1.392V64h1.168v-7.808H327.8v5.776a2.318 2.318 0 0 1-2.048 1.184 2.017 2.017 0 0 1-2.08-2.256ZM331.368 64h1.168v-5.76a2.3 2.3 0 0 1 2.048-1.2 2.024 2.024 0 0 1 2.1 2.24V64h1.168v-5.056a2.717 2.717 0 0 0-2.832-2.88 2.813 2.813 0 0 0-2.48 1.392v-1.264h-1.168Zm14.576 0h1.168V52.32l-1.168.24v4.624a3.18 3.18 0 0 0-2.432-1.084 3.8 3.8 0 0 0-3.664 4.016 3.768 3.768 0 0 0 3.6 4 3.077 3.077 0 0 0 2.5-1.152ZM341 60.1a2.787 2.787 0 0 1 2.736-2.976 2.8 2.8 0 0 1 2.208 1.056v3.872a2.674 2.674 0 0 1-2.208 1.04A2.8 2.8 0 0 1 341 60.1Zm10.928 4.044a3.352 3.352 0 0 0 2.48-1.056V64h1.152v-5.184c0-1.776-1.088-2.752-3.024-2.752a6.689 6.689 0 0 0-2.944.752l.432.9a5.156 5.156 0 0 1 2.368-.672 1.758 1.758 0 0 1 2.016 1.936v1.072a4.521 4.521 0 0 0-2.384-.608c-1.76 0-2.928.928-2.928 2.32.004 1.404 1.168 2.38 2.832 2.38Zm-1.712-2.416c0-.864.784-1.44 1.984-1.44a4.122 4.122 0 0 1 2.208.56v1.5a3.091 3.091 0 0 1-2.24.9c-1.168 0-1.952-.608-1.952-1.52ZM357.928 64h1.172v-5.344a2.226 2.226 0 0 1 2.1-1.584 2.919 2.919 0 0 1 .816.144V56.16a2.217 2.217 0 0 0-.736-.112 2.332 2.332 0 0 0-2.18 1.728v-1.584h-1.168Zm6.224-9.728a.83.83 0 0 0 .832-.848.847.847 0 0 0-.832-.832.85.85 0 0 0-.848.832.834.834 0 0 0 .848.848Zm.576 1.92h-1.168V64h1.168Zm8.848 6.908-.736-.784a3.191 3.191 0 0 1-2.144.8 2.845 2.845 0 0 1-2.784-2.768h6.128V60a3.689 3.689 0 0 0-3.584-3.936 3.8 3.8 0 0 0-3.68 4.032 3.9 3.9 0 0 0 3.872 4.048 4.558 4.558 0 0 0 2.928-1.044Zm-3.136-6.028a2.579 2.579 0 0 1 2.448 2.448h-4.944a2.608 2.608 0 0 1 2.496-2.448Zm4.928 5.92a4.451 4.451 0 0 0 3.168 1.152c1.728 0 3.04-1.056 3.04-2.416 0-1.152-.7-1.808-2.272-2.1l-1.312-.24c-1.008-.176-1.344-.48-1.344-1.12 0-.768.672-1.248 1.7-1.248a4.142 4.142 0 0 1 2.448.832l.576-.816a5.048 5.048 0 0 0-2.976-.976c-1.648 0-2.816.944-2.816 2.288 0 1.136.688 1.776 2.208 2.048l1.28.224c.992.192 1.408.528 1.408 1.168 0 .816-.832 1.408-1.968 1.408a4.072 4.072 0 0 1-2.512-.976Z" data-name="Path"/>
  <path fill="#fff" d="M41 48h144v21H41z" data-name="Rectangle"/>
  <path fill="red" d="M41 48h144v21H41z" data-name="Rectangle" opacity=".03"/>
  <path fill="#06c" d="M47.944 64h1.168V52.32l-1.168.24v4.624a3.18 3.18 0 0 0-2.432-1.084 3.8 3.8 0 0 0-3.664 4.012 3.768 3.768 0 0 0 3.6 4 3.077 3.077 0 0 0 2.5-1.152ZM43 60.1a2.787 2.787 0 0 1 2.736-2.98 2.8 2.8 0 0 1 2.208 1.056v3.872a2.674 2.674 0 0 1-2.208 1.04A2.8 2.8 0 0 1 43 60.1Zm14.96 3-.736-.784a3.191 3.191 0 0 1-2.144.8 2.845 2.845 0 0 1-2.78-2.764h6.128V60a3.689 3.689 0 0 0-3.588-3.936 3.8 3.8 0 0 0-3.68 4.036 3.9 3.9 0 0 0 3.872 4.044A4.558 4.558 0 0 0 57.96 63.1Zm-3.136-6.028a2.579 2.579 0 0 1 2.448 2.448h-4.944a2.608 2.608 0 0 1 2.496-2.448Zm7.6 6.928h1.12l3.216-7.808h-1.248l-2.5 6.352-2.524-6.352h-1.264Zm11.984-.9-.736-.784a3.191 3.191 0 0 1-2.144.8 2.845 2.845 0 0 1-2.784-2.768h6.128V60a3.689 3.689 0 0 0-3.584-3.936 3.8 3.8 0 0 0-3.68 4.036 3.9 3.9 0 0 0 3.872 4.044 4.558 4.558 0 0 0 2.928-1.044Zm-3.136-6.028a2.579 2.579 0 0 1 2.448 2.448h-4.944a2.608 2.608 0 0 1 2.496-2.448Zm6.768-4.752-1.168.24V64h1.168Zm2.048 7.78a3.867 3.867 0 0 0 3.792 4.06 3.86 3.86 0 0 0 3.808-4.06 3.832 3.832 0 0 0-3.808-4.036 3.829 3.829 0 0 0-3.792 4.036Zm3.792 3.02a2.753 2.753 0 0 1-2.64-3.008 2.777 2.777 0 0 1 2.64-3.024 2.789 2.789 0 0 1 2.656 3.024 2.774 2.774 0 0 1-2.656 3.008Zm5.856 4.224H90.9v-4.32a3.166 3.166 0 0 0 2.452 1.088 3.8 3.8 0 0 0 3.664-4.012 3.768 3.768 0 0 0-3.6-4 3.08 3.08 0 0 0-2.528 1.216v-1.12h-1.152Zm3.392-10.224a2.8 2.8 0 0 1 2.736 2.992 2.8 2.8 0 0 1-2.736 2.988 2.744 2.744 0 0 1-2.228-1.084v-3.824a2.666 2.666 0 0 1 2.228-1.072Zm6.528-2.848a.83.83 0 0 0 .832-.848.847.847 0 0 0-.832-.832.85.85 0 0 0-.848.832.834.834 0 0 0 .848.848Zm.576 1.92h-1.168V64h1.168Zm2.4 7.808h1.168v-5.76a2.3 2.3 0 0 1 2.048-1.2 2.024 2.024 0 0 1 2.1 2.24V64h1.168v-5.056a2.717 2.717 0 0 0-2.832-2.88 2.813 2.813 0 0 0-2.484 1.392v-1.264h-1.168Zm12.08.1a3.077 3.077 0 0 0 2.5-1.152v1.468c0 1.312-.752 2-2.176 2a5.25 5.25 0 0 1-2.5-.72l-.5.9a6.262 6.262 0 0 0 3.04.816c2.128 0 3.3-1.072 3.3-3.008v-8.212h-1.152V57.2a3.151 3.151 0 0 0-2.448-1.1 3.8 3.8 0 0 0-3.664 4 3.768 3.768 0 0 0 3.6 4Zm-2.448-4A2.787 2.787 0 0 1 115 57.12a2.8 2.8 0 0 1 2.208 1.056v3.856A2.687 2.687 0 0 1 115 63.088a2.8 2.8 0 0 1-2.736-2.988Zm11.488 2.9a4.451 4.451 0 0 0 3.168 1.144c1.728 0 3.04-1.056 3.04-2.416 0-1.152-.7-1.808-2.272-2.1l-1.312-.24c-1.008-.176-1.344-.48-1.344-1.12 0-.768.672-1.248 1.7-1.248a4.142 4.142 0 0 1 2.448.832l.576-.816a5.048 5.048 0 0 0-2.976-.976c-1.648 0-2.816.944-2.816 2.288 0 1.136.688 1.776 2.208 2.048l1.28.224c.992.192 1.408.528 1.408 1.168 0 .816-.832 1.408-1.968 1.408a4.072 4.072 0 0 1-2.512-.976Zm7.712-2.9a3.867 3.867 0 0 0 3.792 4.06 3.86 3.86 0 0 0 3.808-4.06 3.832 3.832 0 0 0-3.808-4.032 3.829 3.829 0 0 0-3.792 4.032Zm3.792 3.02a2.753 2.753 0 0 1-2.64-3.008 2.777 2.777 0 0 1 2.64-3.024 2.789 2.789 0 0 1 2.656 3.024 2.774 2.774 0 0 1-2.656 3.008Zm4.608-6.928v.96h1.744V64h1.168v-6.848H145v-.96h-2.224V54.5c0-.928.384-1.36 1.28-1.36a3.22 3.22 0 0 1 .944.144v-1.056a3.3 3.3 0 0 0-1.056-.144 2.143 2.143 0 0 0-2.336 2.4v1.712Zm7.76 6.048c0 1.248.7 1.9 2.048 1.9a4.386 4.386 0 0 0 1.36-.208V62.9a2.8 2.8 0 0 1-1.1.208c-.816 0-1.136-.336-1.136-1.168v-4.788h2.24v-.96h-2.24v-2.416l-1.168.272v2.144h-1.616v.96h1.616Zm7.824 1.76 1.852-6.3 1.86 6.3h1.14l2.128-7.808h-1.1l-1.628 6.24-1.872-6.24h-1.04l-1.872 6.24-1.632-6.24h-1.136L154.3 64Zm11.008.144a3.352 3.352 0 0 0 2.48-1.056V64h1.152v-5.184c0-1.776-1.088-2.752-3.024-2.752a6.689 6.689 0 0 0-2.944.752l.432.9a5.156 5.156 0 0 1 2.368-.672 1.758 1.758 0 0 1 2.016 1.936v1.072a4.521 4.521 0 0 0-2.384-.608c-1.76 0-2.928.928-2.928 2.32 0 1.404 1.168 2.38 2.832 2.38Zm-1.712-2.416c0-.864.784-1.44 1.984-1.44a4.122 4.122 0 0 1 2.208.56v1.5a3.091 3.091 0 0 1-2.24.9c-1.168 0-1.952-.608-1.952-1.52ZM172.456 64h1.168v-5.344a2.226 2.226 0 0 1 2.1-1.584 2.919 2.919 0 0 1 .816.144V56.16a2.217 2.217 0 0 0-.736-.112 2.332 2.332 0 0 0-2.176 1.728v-1.584h-1.168Zm11.584-.9-.74-.78a3.191 3.191 0 0 1-2.144.8 2.845 2.845 0 0 1-2.784-2.768h6.128V60a3.689 3.689 0 0 0-3.584-3.936 3.8 3.8 0 0 0-3.676 4.036 3.9 3.9 0 0 0 3.872 4.044 4.558 4.558 0 0 0 2.928-1.044Zm-3.14-6.028a2.579 2.579 0 0 1 2.448 2.448h-4.944a2.608 2.608 0 0 1 2.496-2.448Z" data-name="Path"/>
  <path fill="#fff" d="M358 24h182v21H358z" data-name="Rectangle"/>
  <path fill="red" d="M358 24h182v21H358z" data-name="Rectangle" opacity=".03"/>
  <path fill="#06c" d="M358.848 36.1a3.867 3.867 0 0 0 3.792 4.06 3.86 3.86 0 0 0 3.808-4.06 3.832 3.832 0 0 0-3.808-4.036 3.829 3.829 0 0 0-3.792 4.036Zm3.792 3.02a2.753 2.753 0 0 1-2.64-3.008 2.777 2.777 0 0 1 2.64-3.024 2.789 2.789 0 0 1 2.66 3.024 2.774 2.774 0 0 1-2.66 3.008Zm5.86 4.224h1.168v-4.32a3.166 3.166 0 0 0 2.444 1.088 3.8 3.8 0 0 0 3.664-4.012 3.768 3.768 0 0 0-3.6-4 3.08 3.08 0 0 0-2.528 1.216v-1.12H368.5Zm3.388-10.224a2.8 2.8 0 0 1 2.736 2.992 2.8 2.8 0 0 1-2.736 2.988 2.744 2.744 0 0 1-2.224-1.088v-3.82a2.666 2.666 0 0 1 2.224-1.072Zm12.4 5.98-.736-.784a3.191 3.191 0 0 1-2.144.8 2.845 2.845 0 0 1-2.784-2.768h6.128V36a3.689 3.689 0 0 0-3.584-3.936 3.8 3.8 0 0 0-3.68 4.036 3.9 3.9 0 0 0 3.872 4.044 4.558 4.558 0 0 0 2.928-1.044Zm-3.136-6.028a2.579 2.579 0 0 1 2.448 2.448h-4.944a2.608 2.608 0 0 1 2.496-2.448Zm5.6 6.928h1.168v-5.76a2.3 2.3 0 0 1 2.048-1.2 2.024 2.024 0 0 1 2.1 2.24V40h1.168v-5.056a2.717 2.717 0 0 0-2.836-2.88 2.813 2.813 0 0 0-2.48 1.392v-1.264h-1.168Zm11.808-1.008a4.451 4.451 0 0 0 3.168 1.152c1.728 0 3.04-1.056 3.04-2.416 0-1.152-.7-1.808-2.272-2.1l-1.312-.24c-1.008-.176-1.344-.48-1.344-1.12 0-.768.672-1.248 1.7-1.248a4.142 4.142 0 0 1 2.448.832l.576-.816a5.048 5.048 0 0 0-2.976-.976c-1.648 0-2.816.944-2.816 2.288 0 1.136.688 1.776 2.208 2.048l1.28.224c.992.192 1.408.528 1.408 1.168 0 .816-.832 1.408-1.968 1.408a4.072 4.072 0 0 1-2.512-.976Zm7.712-2.9a3.867 3.867 0 0 0 3.792 4.068 3.86 3.86 0 0 0 3.808-4.06 3.832 3.832 0 0 0-3.808-4.032 3.829 3.829 0 0 0-3.792 4.032Zm3.792 3.028a2.753 2.753 0 0 1-2.64-3.008 2.777 2.777 0 0 1 2.64-3.024 2.789 2.789 0 0 1 2.656 3.024 2.774 2.774 0 0 1-2.656 3.008Zm6.992-6.928h-1.184v5.04a2.73 2.73 0 0 0 2.828 2.896 2.8 2.8 0 0 0 2.48-1.392V40h1.168v-7.808h-1.164v5.776a2.318 2.318 0 0 1-2.048 1.184 2.017 2.017 0 0 1-2.08-2.252ZM424.752 40h1.168v-5.344a2.226 2.226 0 0 1 2.1-1.584 2.919 2.919 0 0 1 .816.144V32.16a2.217 2.217 0 0 0-.736-.112 2.332 2.332 0 0 0-2.18 1.728v-1.584h-1.168Zm8.7-.912A2.832 2.832 0 0 1 430.7 36.1a2.835 2.835 0 0 1 2.74-2.98 3.069 3.069 0 0 1 2.208.976l.752-.816a4.259 4.259 0 0 0-3.008-1.216 3.9 3.9 0 0 0-3.856 4.036 3.913 3.913 0 0 0 3.856 4.044 4.061 4.061 0 0 0 2.96-1.264l-.72-.72a2.876 2.876 0 0 1-2.176.928Zm10.788.012-.74-.78a3.191 3.191 0 0 1-2.144.8 2.845 2.845 0 0 1-2.784-2.768h6.128V36a3.689 3.689 0 0 0-3.58-3.936 3.8 3.8 0 0 0-3.68 4.036 3.9 3.9 0 0 0 3.872 4.044 4.558 4.558 0 0 0 2.928-1.044Zm-3.14-6.028a2.579 2.579 0 0 1 2.452 2.448h-4.944a2.608 2.608 0 0 1 2.492-2.448Zm12.9 6.016a2.832 2.832 0 0 1-2.752-2.988 2.835 2.835 0 0 1 2.736-2.98 3.069 3.069 0 0 1 2.208.976l.752-.816a4.259 4.259 0 0 0-3.008-1.216 3.9 3.9 0 0 0-3.856 4.036 3.913 3.913 0 0 0 3.856 4.044 4.061 4.061 0 0 0 2.964-1.264l-.72-.72a2.876 2.876 0 0 1-2.18.928Zm3.984-2.988a3.867 3.867 0 0 0 3.792 4.06 3.86 3.86 0 0 0 3.808-4.06 3.832 3.832 0 0 0-3.808-4.032 3.829 3.829 0 0 0-3.792 4.032Zm3.792 3.02a2.753 2.753 0 0 1-2.64-3.008 2.777 2.777 0 0 1 2.64-3.024 2.789 2.789 0 0 1 2.656 3.024 2.774 2.774 0 0 1-2.656 3.008Zm5.856.88h1.168v-5.808a2.14 2.14 0 0 1 1.9-1.152 1.94 1.94 0 0 1 1.936 2.208V40h1.168v-5.04a3.238 3.238 0 0 0-.064-.688 2.173 2.173 0 0 1 1.96-1.232c1.184 0 1.92.848 1.92 2.208V40h1.168v-5.04a2.657 2.657 0 0 0-2.656-2.9 2.885 2.885 0 0 0-2.608 1.52 2.566 2.566 0 0 0-2.4-1.52 2.674 2.674 0 0 0-2.32 1.344v-1.212h-1.168Zm13.52 0h1.168v-5.808a2.14 2.14 0 0 1 1.9-1.152 1.94 1.94 0 0 1 1.936 2.208V40h1.168v-5.04a3.239 3.239 0 0 0-.064-.688 2.173 2.173 0 0 1 1.952-1.232c1.184 0 1.92.848 1.92 2.208V40h1.168v-5.04a2.657 2.657 0 0 0-2.656-2.9 2.885 2.885 0 0 0-2.608 1.52 2.566 2.566 0 0 0-2.4-1.52 2.674 2.674 0 0 0-2.32 1.344v-1.212h-1.168Zm14.576-7.808h-1.184v5.04a2.73 2.73 0 0 0 2.832 2.9 2.8 2.8 0 0 0 2.48-1.392V40h1.168v-7.808h-1.168v5.776a2.318 2.318 0 0 1-2.048 1.184 2.017 2.017 0 0 1-2.08-2.256ZM503.424 40h1.168v-5.76a2.3 2.3 0 0 1 2.048-1.2 2.024 2.024 0 0 1 2.1 2.24V40h1.16v-5.056a2.717 2.717 0 0 0-2.832-2.88 2.813 2.813 0 0 0-2.48 1.392v-1.264h-1.168Zm9.424-9.728a.83.83 0 0 0 .832-.848.847.847 0 0 0-.832-.832.85.85 0 0 0-.848.832.834.834 0 0 0 .848.848Zm.576 1.92h-1.168V40h1.168Zm3.328 6.048c0 1.248.7 1.9 2.048 1.9a4.386 4.386 0 0 0 1.36-.208V38.9a2.8 2.8 0 0 1-1.1.208c-.816 0-1.136-.336-1.136-1.168v-4.788h2.24v-.96h-2.24v-2.416l-1.168.272v2.144h-1.616v.96h1.616Zm5.712-7.968a.83.83 0 0 0 .832-.848.847.847 0 0 0-.832-.832.85.85 0 0 0-.848.832.834.834 0 0 0 .848.848Zm.576 1.92h-1.168V40h1.168Zm8.848 6.908-.736-.784a3.191 3.191 0 0 1-2.144.8 2.845 2.845 0 0 1-2.784-2.768h6.128V36a3.689 3.689 0 0 0-3.584-3.936 3.8 3.8 0 0 0-3.68 4.032 3.9 3.9 0 0 0 3.872 4.048 4.558 4.558 0 0 0 2.928-1.044Zm-3.136-6.032a2.579 2.579 0 0 1 2.448 2.452h-4.944a2.608 2.608 0 0 1 2.496-2.448Zm4.928 5.92a4.451 4.451 0 0 0 3.168 1.156c1.728 0 3.04-1.056 3.04-2.416 0-1.152-.7-1.808-2.272-2.1l-1.312-.24c-1.008-.176-1.344-.48-1.344-1.12 0-.768.672-1.248 1.7-1.248a4.142 4.142 0 0 1 2.448.832l.576-.816a5.048 5.048 0 0 0-2.976-.976c-1.648 0-2.816.944-2.816 2.288 0 1.136.688 1.776 2.208 2.048l1.28.224c.992.192 1.408.528 1.408 1.168 0 .816-.832 1.408-1.968 1.408a4.072 4.072 0 0 1-2.512-.976Z" data-name="Path"/>
  <path fill="#fff" d="M228 24h93v21h-93z" data-name="Rectangle"/>
  <path fill="red" d="M228 24h93v21h-93z" data-name="Rectangle" opacity=".03"/>
  <path fill="#06c" d="M232.768 39.088a2.832 2.832 0 0 1-2.752-2.988 2.835 2.835 0 0 1 2.736-2.98 3.069 3.069 0 0 1 2.208.98l.752-.816a4.259 4.259 0 0 0-3.012-1.22 3.9 3.9 0 0 0-3.852 4.036 3.913 3.913 0 0 0 3.852 4.044 4.061 4.061 0 0 0 2.964-1.264l-.72-.72a2.876 2.876 0 0 1-2.176.928Zm3.984-2.988a3.867 3.867 0 0 0 3.792 4.06 3.86 3.86 0 0 0 3.808-4.06 3.832 3.832 0 0 0-3.808-4.032 3.829 3.829 0 0 0-3.792 4.032Zm3.792 3.02a2.753 2.753 0 0 1-2.644-3.008 2.777 2.777 0 0 1 2.64-3.024 2.789 2.789 0 0 1 2.66 3.024 2.774 2.774 0 0 1-2.656 3.008Zm7.024-10.8-1.168.24V40h1.168Zm3.568 0-1.168.24V40h1.168Zm4.816 11.824a3.352 3.352 0 0 0 2.48-1.056V40h1.152v-5.184c0-1.776-1.088-2.752-3.024-2.752a6.689 6.689 0 0 0-2.944.752l.432.9a5.156 5.156 0 0 1 2.368-.672 1.758 1.758 0 0 1 2.016 1.936v1.072a4.521 4.521 0 0 0-2.384-.608c-1.76 0-2.928.928-2.928 2.32 0 1.404 1.168 2.38 2.832 2.38Zm-1.712-2.416c0-.864.784-1.44 1.984-1.44a4.122 4.122 0 0 1 2.208.56v1.5a3.091 3.091 0 0 1-2.24.9c-1.168 0-1.952-.608-1.952-1.52Zm14.992-1.628a3.768 3.768 0 0 0-3.6-4 3.146 3.146 0 0 0-2.512 1.164V28.32l-1.168.24V40h1.148v-1.024a3.161 3.161 0 0 0 2.468 1.136 3.8 3.8 0 0 0 3.664-4.012Zm-3.888-2.98a2.8 2.8 0 0 1 2.736 2.992 2.8 2.8 0 0 1-2.736 2.988 2.744 2.744 0 0 1-2.224-1.084v-3.824a2.666 2.666 0 0 1 2.224-1.072Zm5.6 2.976a3.867 3.867 0 0 0 3.792 4.064 3.86 3.86 0 0 0 3.808-4.06 3.832 3.832 0 0 0-3.808-4.032 3.829 3.829 0 0 0-3.792 4.032Zm3.792 3.024a2.753 2.753 0 0 1-2.636-3.008 2.777 2.777 0 0 1 2.64-3.024 2.789 2.789 0 0 1 2.656 3.024 2.774 2.774 0 0 1-2.66 3.008Zm5.856.88h1.168v-5.344a2.226 2.226 0 0 1 2.1-1.584 2.919 2.919 0 0 1 .816.144V32.16a2.217 2.217 0 0 0-.736-.112 2.332 2.332 0 0 0-2.18 1.728v-1.584h-1.168Zm7.7.144a3.352 3.352 0 0 0 2.48-1.056V40h1.148v-5.184c0-1.776-1.088-2.752-3.024-2.752a6.689 6.689 0 0 0-2.944.752l.432.9a5.156 5.156 0 0 1 2.368-.672 1.758 1.758 0 0 1 2.016 1.936v1.072a4.521 4.521 0 0 0-2.384-.608c-1.76 0-2.928.928-2.928 2.32 0 1.404 1.168 2.38 2.832 2.38Zm-1.716-2.416c0-.864.784-1.44 1.984-1.44a4.122 4.122 0 0 1 2.208.56v1.5a3.091 3.091 0 0 1-2.24.9c-1.168 0-1.952-.608-1.952-1.52Zm8.4.512c0 1.248.7 1.9 2.048 1.9a4.386 4.386 0 0 0 1.36-.208V38.9a2.8 2.8 0 0 1-1.1.208c-.816 0-1.136-.336-1.136-1.168v-4.788h2.24v-.96h-2.24v-2.416l-1.168.272v2.144h-1.62v.96h1.616Zm5.712-7.968a.83.83 0 0 0 .832-.848.847.847 0 0 0-.832-.832.85.85 0 0 0-.848.832.834.834 0 0 0 .848.848Zm.576 1.92H300.1V40h1.168Zm2.4 7.808h1.168v-5.76a2.3 2.3 0 0 1 2.048-1.2 2.024 2.024 0 0 1 2.1 2.24V40h1.168v-5.056a2.717 2.717 0 0 0-2.832-2.88 2.813 2.813 0 0 0-2.48 1.392v-1.264h-1.172Zm12.08.1a3.077 3.077 0 0 0 2.5-1.152v1.468c0 1.312-.752 2-2.176 2a5.25 5.25 0 0 1-2.5-.72l-.5.9a6.262 6.262 0 0 0 3.04.816c2.128 0 3.3-1.072 3.3-3.008v-8.212h-1.152V33.2a3.151 3.151 0 0 0-2.448-1.1 3.8 3.8 0 0 0-3.664 4 3.768 3.768 0 0 0 3.6 4Zm-2.444-4a2.787 2.787 0 0 1 2.732-2.98 2.8 2.8 0 0 1 2.208 1.056v3.856a2.687 2.687 0 0 1-2.208 1.056A2.8 2.8 0 0 1 313.3 36.1Z" data-name="Path"/>
  <path fill="#fff" d="M30 24h168v21H30z" data-name="Rectangle"/>
  <path fill="red" d="M30 24h168v21H30z" data-name="Rectangle" opacity=".03"/>
  <path fill="#06c" d="M31.792 30.272a.83.83 0 0 0 .832-.848.847.847 0 0 0-.832-.832.85.85 0 0 0-.848.832.834.834 0 0 0 .848.848Zm.576 1.92H31.2V40h1.168Zm2.4 7.808h1.168v-5.76a2.3 2.3 0 0 1 2.048-1.2 2.024 2.024 0 0 1 2.1 2.24V40h1.168v-5.056a2.717 2.717 0 0 0-2.832-2.88 2.813 2.813 0 0 0-2.48 1.392v-1.264h-1.172Zm8.832 0h1.168v-5.76a2.3 2.3 0 0 1 2.048-1.2 2.024 2.024 0 0 1 2.1 2.24V40h1.164v-5.056a2.717 2.717 0 0 0-2.832-2.88 2.813 2.813 0 0 0-2.48 1.392v-1.264H43.6Zm8.48-3.9a3.867 3.867 0 0 0 3.792 4.06 3.86 3.86 0 0 0 3.808-4.06 3.832 3.832 0 0 0-3.808-4.032A3.829 3.829 0 0 0 52.08 36.1Zm3.792 3.02a2.753 2.753 0 0 1-2.64-3.008 2.777 2.777 0 0 1 2.64-3.024 2.789 2.789 0 0 1 2.656 3.024 2.774 2.774 0 0 1-2.656 3.008Zm7.856.88h1.12l3.216-7.808h-1.248l-2.5 6.352-2.524-6.352h-1.264Zm8.192.144a3.352 3.352 0 0 0 2.48-1.056V40h1.152v-5.184c0-1.776-1.088-2.752-3.024-2.752a6.689 6.689 0 0 0-2.944.752l.432.9a5.156 5.156 0 0 1 2.368-.672 1.758 1.758 0 0 1 2.016 1.932v1.072a4.521 4.521 0 0 0-2.384-.608c-1.76 0-2.928.928-2.928 2.32 0 1.408 1.168 2.384 2.832 2.384Zm-1.712-2.416c0-.864.784-1.44 1.984-1.44a4.122 4.122 0 0 1 2.208.56v1.5a3.091 3.091 0 0 1-2.24.9c-1.168 0-1.952-.608-1.952-1.52Zm8.4.512c0 1.248.7 1.9 2.048 1.9a4.386 4.386 0 0 0 1.36-.208V38.9a2.8 2.8 0 0 1-1.1.208c-.816 0-1.136-.336-1.136-1.168v-4.788h2.24v-.96h-2.24v-2.416l-1.168.272v2.144h-1.62v.96h1.616Zm5.712-7.968a.83.83 0 0 0 .832-.848.847.847 0 0 0-.832-.832.85.85 0 0 0-.848.832.834.834 0 0 0 .848.848Zm.576 1.92h-1.168V40H84.9ZM89.536 40h1.12l3.216-7.808h-1.248l-2.5 6.352-2.524-6.352h-1.264Zm11.984-.9-.736-.784a3.191 3.191 0 0 1-2.144.8 2.845 2.845 0 0 1-2.784-2.768h6.128V36a3.689 3.689 0 0 0-3.584-3.936 3.8 3.8 0 0 0-3.68 4.036 3.9 3.9 0 0 0 3.872 4.044 4.558 4.558 0 0 0 2.928-1.044Zm-3.136-6.028a2.579 2.579 0 0 1 2.448 2.448h-4.944a2.608 2.608 0 0 1 2.496-2.448Zm10.256 5.168c0 1.248.7 1.9 2.048 1.9a4.386 4.386 0 0 0 1.36-.208V38.9a2.8 2.8 0 0 1-1.1.208c-.816 0-1.136-.336-1.136-1.168v-4.788h2.24v-.96h-2.24v-2.416l-1.168.272v2.144h-1.62v.96h1.616Zm11.376.86-.736-.78a3.191 3.191 0 0 1-2.144.8 2.845 2.845 0 0 1-2.784-2.768h6.128V36a3.689 3.689 0 0 0-3.58-3.936 3.8 3.8 0 0 0-3.684 4.036 3.9 3.9 0 0 0 3.872 4.044 4.558 4.558 0 0 0 2.928-1.044Zm-3.136-6.028a2.579 2.579 0 0 1 2.448 2.448h-4.944a2.608 2.608 0 0 1 2.496-2.448Zm9.184 6.016a2.832 2.832 0 0 1-2.752-2.988 2.835 2.835 0 0 1 2.736-2.98 3.069 3.069 0 0 1 2.208.976l.752-.816A4.259 4.259 0 0 0 126 32.064a3.9 3.9 0 0 0-3.856 4.036A3.913 3.913 0 0 0 126 40.144a4.061 4.061 0 0 0 2.96-1.264l-.72-.72a2.876 2.876 0 0 1-2.176.928Zm4.576.912h1.168v-5.76a2.3 2.3 0 0 1 2.048-1.2 2.024 2.024 0 0 1 2.1 2.24V40h1.168v-5.056a2.717 2.717 0 0 0-2.832-2.88 2.813 2.813 0 0 0-2.48 1.392V28.32l-1.168.24Zm8.832 0h1.168v-5.76a2.3 2.3 0 0 1 2.048-1.2 2.024 2.024 0 0 1 2.1 2.24V40h1.168v-5.056a2.717 2.717 0 0 0-2.832-2.88 2.813 2.813 0 0 0-2.48 1.392v-1.264h-1.168Zm8.48-3.9a3.867 3.867 0 0 0 3.792 4.06 3.86 3.86 0 0 0 3.808-4.06 3.832 3.832 0 0 0-3.808-4.032 3.829 3.829 0 0 0-3.792 4.032Zm3.792 3.02a2.753 2.753 0 0 1-2.64-3.008 2.777 2.777 0 0 1 2.64-3.024 2.789 2.789 0 0 1 2.656 3.024 2.774 2.774 0 0 1-2.656 3.008Zm7.024-10.8-1.168.24V40h1.168Zm2.048 7.78a3.867 3.867 0 0 0 3.792 4.06 3.86 3.86 0 0 0 3.808-4.06 3.832 3.832 0 0 0-3.808-4.032 3.829 3.829 0 0 0-3.792 4.032Zm3.792 3.02a2.753 2.753 0 0 1-2.64-3.008 2.777 2.777 0 0 1 2.64-3.024 2.789 2.789 0 0 1 2.656 3.024 2.774 2.774 0 0 1-2.656 3.008Zm9.12.976a3.077 3.077 0 0 0 2.5-1.152v1.472c0 1.312-.752 2-2.176 2a5.25 5.25 0 0 1-2.5-.72l-.5.9a6.262 6.262 0 0 0 3.04.816c2.128 0 3.3-1.072 3.3-3.008v-8.212h-1.152V33.2a3.151 3.151 0 0 0-2.448-1.1 3.8 3.8 0 0 0-3.664 4 3.768 3.768 0 0 0 3.6 4Zm-2.448-4a2.787 2.787 0 0 1 2.736-2.976 2.8 2.8 0 0 1 2.208 1.056v3.856a2.687 2.687 0 0 1-2.208 1.056 2.8 2.8 0 0 1-2.736-2.988Zm9.1-5.824a.83.83 0 0 0 .832-.848.847.847 0 0 0-.832-.832.85.85 0 0 0-.848.832.834.834 0 0 0 .852.848Zm.576 1.92h-1.168V40h1.168Zm8.852 6.908-.736-.784a3.191 3.191 0 0 1-2.144.8 2.845 2.845 0 0 1-2.784-2.768h6.128V36a3.689 3.689 0 0 0-3.584-3.936 3.8 3.8 0 0 0-3.68 4.032 3.9 3.9 0 0 0 3.872 4.048 4.558 4.558 0 0 0 2.928-1.044Zm-3.136-6.032a2.579 2.579 0 0 1 2.448 2.452h-4.944a2.608 2.608 0 0 1 2.496-2.448Zm4.928 5.92a4.451 4.451 0 0 0 3.168 1.156c1.728 0 3.04-1.056 3.04-2.416 0-1.152-.7-1.808-2.272-2.1l-1.312-.24c-1.008-.176-1.344-.48-1.344-1.12 0-.768.672-1.248 1.7-1.248a4.142 4.142 0 0 1 2.448.832l.576-.816a5.048 5.048 0 0 0-2.976-.976c-1.648 0-2.816.944-2.816 2.288 0 1.136.688 1.776 2.208 2.048l1.28.224c.992.192 1.408.528 1.408 1.168 0 .816-.832 1.408-1.968 1.408a4.072 4.072 0 0 1-2.512-.976Z" data-name="Path"/>
  <path fill="#fff" d="M514 0h43v21h-43z" data-name="Rectangle"/>
  <path fill="red" d="M514 0h43v21h-43z" data-name="Rectangle" opacity=".03"/>
  <path fill="#06c" d="M514.448 14.992a4.451 4.451 0 0 0 3.168 1.152c1.728 0 3.04-1.056 3.04-2.416 0-1.152-.7-1.808-2.272-2.1l-1.312-.24c-1.008-.176-1.344-.48-1.344-1.12 0-.768.672-1.248 1.7-1.248a4.142 4.142 0 0 1 2.448.832l.576-.816a5.048 5.048 0 0 0-2.976-.976c-1.648 0-2.816.944-2.816 2.288 0 1.136.688 1.776 2.208 2.048l1.28.224c.992.192 1.408.528 1.408 1.168-.004.82-.836 1.412-1.972 1.412a4.072 4.072 0 0 1-2.512-.976Zm8.752-.752c0 1.248.7 1.9 2.048 1.9a4.386 4.386 0 0 0 1.36-.208V14.9a2.8 2.8 0 0 1-1.108.2c-.816 0-1.136-.336-1.136-1.168v-4.78h2.24v-.96h-2.24V5.776l-1.164.272v2.144h-1.616v.96h1.616Zm7.536 1.9a3.352 3.352 0 0 0 2.48-1.056V16h1.152v-5.184c0-1.776-1.088-2.752-3.024-2.752a6.689 6.689 0 0 0-2.944.752l.432.9a5.156 5.156 0 0 1 2.368-.676 1.758 1.758 0 0 1 2.016 1.936v1.072a4.521 4.521 0 0 0-2.384-.608c-1.76 0-2.928.928-2.928 2.32-.004 1.408 1.168 2.384 2.832 2.384Zm-1.712-2.412c0-.864.784-1.44 1.984-1.44a4.122 4.122 0 0 1 2.208.56v1.5a3.091 3.091 0 0 1-2.24.9c-1.168 0-1.952-.608-1.952-1.52Zm14.992-1.628a3.768 3.768 0 0 0-3.6-4 3.146 3.146 0 0 0-2.516 1.164V4.32l-1.168.24V16h1.152v-1.024a3.161 3.161 0 0 0 2.468 1.136 3.8 3.8 0 0 0 3.664-4.012Zm-3.888-2.98a2.8 2.8 0 0 1 2.736 2.992 2.8 2.8 0 0 1-2.736 2.988 2.744 2.744 0 0 1-2.228-1.084v-3.824a2.666 2.666 0 0 1 2.228-1.072Zm7.1-4.8-1.168.24V16h1.168Zm8.852 10.78-.736-.784a3.191 3.191 0 0 1-2.144.8 2.845 2.845 0 0 1-2.784-2.768h6.128V12a3.689 3.689 0 0 0-3.584-3.936 3.8 3.8 0 0 0-3.68 4.036 3.9 3.9 0 0 0 3.872 4.044 4.558 4.558 0 0 0 2.928-1.044Zm-3.136-6.028a2.579 2.579 0 0 1 2.448 2.448h-4.944a2.608 2.608 0 0 1 2.496-2.448Z" data-name="Path"/>
  <path fill="#fff" d="M460 0h47v21h-47z" data-name="Rectangle"/>
  <path fill="red" d="M460 0h47v21h-47z" data-name="Rectangle" opacity=".03"/>
  <path fill="#06c" d="M460.448 14.992a4.451 4.451 0 0 0 3.168 1.152c1.728 0 3.04-1.056 3.04-2.416 0-1.152-.7-1.808-2.272-2.1l-1.312-.24c-1.008-.176-1.344-.48-1.344-1.12 0-.768.672-1.248 1.7-1.248a4.142 4.142 0 0 1 2.448.832l.576-.816a5.048 5.048 0 0 0-2.976-.976c-1.648 0-2.816.944-2.816 2.288 0 1.136.688 1.776 2.208 2.048l1.28.224c.992.192 1.408.528 1.408 1.168-.004.82-.836 1.412-1.972 1.412a4.072 4.072 0 0 1-2.512-.976Zm14.512.108-.736-.784a3.191 3.191 0 0 1-2.144.8 2.845 2.845 0 0 1-2.78-2.764h6.128V12a3.689 3.689 0 0 0-3.588-3.936 3.8 3.8 0 0 0-3.68 4.036 3.9 3.9 0 0 0 3.872 4.044 4.558 4.558 0 0 0 2.928-1.044Zm-3.136-6.028a2.579 2.579 0 0 1 2.448 2.448h-4.944a2.608 2.608 0 0 1 2.496-2.448Zm9.184 6.016a2.832 2.832 0 0 1-2.752-2.988 2.835 2.835 0 0 1 2.736-2.98 3.069 3.069 0 0 1 2.208.98l.752-.816a4.259 4.259 0 0 0-3.008-1.216 3.9 3.9 0 0 0-3.856 4.032 3.913 3.913 0 0 0 3.856 4.044 4.061 4.061 0 0 0 2.956-1.264l-.72-.72a2.876 2.876 0 0 1-2.172.928Zm5.712-6.9h-1.184v5.04a2.73 2.73 0 0 0 2.832 2.9 2.8 2.8 0 0 0 2.48-1.392V16h1.168V8.192h-1.168v5.776a2.318 2.318 0 0 1-2.048 1.184 2.017 2.017 0 0 1-2.08-2.252ZM494.416 16h1.168v-5.344a2.226 2.226 0 0 1 2.1-1.584 2.919 2.919 0 0 1 .816.144V8.16a2.217 2.217 0 0 0-.736-.112 2.332 2.332 0 0 0-2.176 1.728V8.192h-1.172ZM506 15.1l-.736-.784a3.191 3.191 0 0 1-2.144.8 2.845 2.845 0 0 1-2.784-2.768h6.128V12a3.689 3.689 0 0 0-3.584-3.936 3.8 3.8 0 0 0-3.68 4.036 3.9 3.9 0 0 0 3.872 4.044A4.558 4.558 0 0 0 506 15.1Zm-3.136-6.028a2.579 2.579 0 0 1 2.448 2.448h-4.944a2.608 2.608 0 0 1 2.496-2.448Z" data-name="Path"/>
  <path fill="#fff" d="M143 0h182v21H143z" data-name="Rectangle"/>
  <path fill="red" d="M143 0h182v21H143z" data-name="Rectangle" opacity=".03"/>
  <path fill="#06c" d="M143.848 12.1a3.867 3.867 0 0 0 3.792 4.06 3.86 3.86 0 0 0 3.808-4.06 3.832 3.832 0 0 0-3.808-4.036 3.829 3.829 0 0 0-3.792 4.036Zm3.792 3.02a2.753 2.753 0 0 1-2.64-3.008 2.777 2.777 0 0 1 2.64-3.024 2.789 2.789 0 0 1 2.66 3.024 2.774 2.774 0 0 1-2.66 3.008Zm5.86 4.224h1.168v-4.32a3.166 3.166 0 0 0 2.444 1.088 3.8 3.8 0 0 0 3.664-4.012 3.768 3.768 0 0 0-3.6-4 3.08 3.08 0 0 0-2.528 1.216v-1.12H153.5Zm3.388-10.224a2.8 2.8 0 0 1 2.736 2.992 2.8 2.8 0 0 1-2.736 2.988 2.744 2.744 0 0 1-2.224-1.088v-3.82a2.666 2.666 0 0 1 2.224-1.072Zm12.4 5.98-.736-.784a3.191 3.191 0 0 1-2.144.8 2.845 2.845 0 0 1-2.784-2.768h6.128V12a3.689 3.689 0 0 0-3.584-3.936 3.8 3.8 0 0 0-3.68 4.036 3.9 3.9 0 0 0 3.872 4.044 4.558 4.558 0 0 0 2.928-1.044Zm-3.136-6.028a2.579 2.579 0 0 1 2.448 2.448h-4.944a2.608 2.608 0 0 1 2.496-2.448Zm5.6 6.928h1.168v-5.76a2.3 2.3 0 0 1 2.048-1.2 2.024 2.024 0 0 1 2.1 2.24V16h1.168v-5.056a2.717 2.717 0 0 0-2.836-2.88 2.813 2.813 0 0 0-2.48 1.392V8.192h-1.168Zm18.3 0h1.168V4.32l-1.168.24v4.624a3.18 3.18 0 0 0-2.428-1.084 3.8 3.8 0 0 0-3.664 4.012 3.768 3.768 0 0 0 3.6 4 3.077 3.077 0 0 0 2.5-1.152Zm-4.94-3.9a2.787 2.787 0 0 1 2.736-2.98 2.8 2.8 0 0 1 2.208 1.056v3.872a2.674 2.674 0 0 1-2.208 1.04 2.8 2.8 0 0 1-2.736-2.988Zm14.96 3-.736-.784a3.191 3.191 0 0 1-2.144.8 2.845 2.845 0 0 1-2.784-2.768h6.128V12a3.689 3.689 0 0 0-3.584-3.936 3.8 3.8 0 0 0-3.68 4.036 3.9 3.9 0 0 0 3.872 4.044 4.558 4.558 0 0 0 2.928-1.044Zm-3.136-6.028a2.579 2.579 0 0 1 2.448 2.448h-4.944a2.608 2.608 0 0 1 2.496-2.448Zm7.6 6.928h1.12l3.216-7.808h-1.248l-2.5 6.352-2.524-6.352h-1.264Zm11.984-.9-.736-.784a3.191 3.191 0 0 1-2.144.8 2.845 2.845 0 0 1-2.784-2.768h6.128V12a3.689 3.689 0 0 0-3.584-3.936 3.8 3.8 0 0 0-3.68 4.036 3.9 3.9 0 0 0 3.872 4.044 4.558 4.558 0 0 0 2.928-1.044Zm-3.136-6.028a2.579 2.579 0 0 1 2.448 2.448h-4.944a2.608 2.608 0 0 1 2.496-2.448Zm6.768-4.752-1.168.24V16h1.168Zm2.048 7.78a3.867 3.867 0 0 0 3.792 4.06 3.86 3.86 0 0 0 3.808-4.06 3.832 3.832 0 0 0-3.808-4.032A3.829 3.829 0 0 0 222.2 12.1Zm3.792 3.02a2.753 2.753 0 0 1-2.64-3.008 2.777 2.777 0 0 1 2.64-3.024 2.789 2.789 0 0 1 2.656 3.024 2.774 2.774 0 0 1-2.656 3.008Zm5.856 4.224h1.168v-4.32a3.165 3.165 0 0 0 2.448 1.088 3.8 3.8 0 0 0 3.664-4.012 3.768 3.768 0 0 0-3.6-4A3.08 3.08 0 0 0 233 9.312v-1.12h-1.152ZM235.24 9.12a2.8 2.8 0 0 1 2.736 2.992 2.8 2.8 0 0 1-2.736 2.988 2.744 2.744 0 0 1-2.224-1.088v-3.82a2.666 2.666 0 0 1 2.224-1.072Zm5.936 6.88h1.168v-5.808a2.14 2.14 0 0 1 1.9-1.152 1.94 1.94 0 0 1 1.936 2.208V16h1.168v-5.04a3.238 3.238 0 0 0-.064-.688 2.173 2.173 0 0 1 1.956-1.232c1.184 0 1.92.848 1.92 2.208V16h1.168v-5.04a2.657 2.657 0 0 0-2.656-2.9 2.885 2.885 0 0 0-2.608 1.52 2.566 2.566 0 0 0-2.4-1.52 2.674 2.674 0 0 0-2.32 1.344V8.192h-1.168Zm19.968-.9-.736-.784a3.191 3.191 0 0 1-2.144.8 2.845 2.845 0 0 1-2.784-2.768h6.128V12a3.689 3.689 0 0 0-3.584-3.936 3.8 3.8 0 0 0-3.68 4.032 3.9 3.9 0 0 0 3.872 4.048 4.558 4.558 0 0 0 2.928-1.044Zm-3.136-6.032a2.579 2.579 0 0 1 2.448 2.448h-4.944a2.608 2.608 0 0 1 2.496-2.444Zm5.6 6.932h1.168v-5.76a2.3 2.3 0 0 1 2.048-1.2 2.024 2.024 0 0 1 2.1 2.24V16h1.168v-5.056a2.717 2.717 0 0 0-2.832-2.88 2.813 2.813 0 0 0-2.48 1.392V8.192h-1.168Zm9.52-1.76c0 1.248.7 1.9 2.048 1.9a4.386 4.386 0 0 0 1.36-.208V14.9a2.8 2.8 0 0 1-1.1.208c-.816 0-1.136-.336-1.136-1.168V9.152h2.24v-.96h-2.24V5.776l-1.168.272v2.144h-1.616v.96h1.616Zm8.848 1.76h1.168v-5.808a2.14 2.14 0 0 1 1.9-1.152 1.94 1.94 0 0 1 1.936 2.208V16h1.168v-5.04a3.238 3.238 0 0 0-.064-.688 2.173 2.173 0 0 1 1.956-1.232c1.184 0 1.92.848 1.92 2.208V16h1.168v-5.04a2.657 2.657 0 0 0-2.656-2.9 2.885 2.885 0 0 0-2.608 1.52 2.566 2.566 0 0 0-2.4-1.52 2.674 2.674 0 0 0-2.32 1.344V8.192h-1.168Zm13.168-3.9a3.867 3.867 0 0 0 3.792 4.06 3.86 3.86 0 0 0 3.808-4.06 3.832 3.832 0 0 0-3.808-4.032 3.829 3.829 0 0 0-3.792 4.032Zm3.792 3.02a2.753 2.753 0 0 1-2.64-3.008 2.777 2.777 0 0 1 2.64-3.024 2.789 2.789 0 0 1 2.656 3.024 2.774 2.774 0 0 1-2.656 3.008Zm11.616.88h1.168V4.32l-1.168.24v4.624A3.18 3.18 0 0 0 308.12 8.1a3.8 3.8 0 0 0-3.664 4.016 3.768 3.768 0 0 0 3.6 4 3.077 3.077 0 0 0 2.5-1.152Zm-4.944-3.9a2.787 2.787 0 0 1 2.736-2.976 2.8 2.8 0 0 1 2.208 1.056v3.872a2.674 2.674 0 0 1-2.208 1.04 2.8 2.8 0 0 1-2.736-2.992Zm14.96 3-.736-.784a3.191 3.191 0 0 1-2.144.8 2.845 2.845 0 0 1-2.788-2.764h6.128V12a3.689 3.689 0 0 0-3.584-3.936 3.8 3.8 0 0 0-3.68 4.032 3.9 3.9 0 0 0 3.876 4.048 4.558 4.558 0 0 0 2.928-1.044Zm-3.136-6.032a2.579 2.579 0 0 1 2.448 2.452h-4.944a2.608 2.608 0 0 1 2.496-2.448ZM324.2 4.32l-1.168.24V16h1.168Z" data-name="Path"/>
</svg>
