<svg width="288" height="318" viewBox="0 0 288 318" fill="none" xmlns="http://www.w3.org/2000/svg">
<path d="M120.264 36.396C118.464 36.396 116.868 36.084 115.476 35.46C114.108 34.836 113.028 33.972 112.236 32.868C111.444 31.764 111.048 30.504 111.048 29.088C111.048 28.104 111.276 27.192 111.732 26.352C112.212 25.512 112.872 24.78 113.712 24.156C114.576 23.532 115.548 23.088 116.628 22.824C115.236 22.392 114.108 21.66 113.244 20.628C112.38 19.596 111.948 18.444 111.948 17.172C111.948 15.876 112.308 14.724 113.028 13.716C113.772 12.684 114.768 11.88 116.016 11.304C117.264 10.704 118.68 10.404 120.264 10.404C121.848 10.404 123.264 10.704 124.512 11.304C125.784 11.88 126.78 12.684 127.5 13.716C128.22 14.724 128.58 15.876 128.58 17.172C128.58 18.444 128.148 19.596 127.284 20.628C126.42 21.66 125.292 22.392 123.9 22.824C125.556 23.256 126.9 24.048 127.932 25.2C128.964 26.328 129.48 27.624 129.48 29.088C129.48 30.504 129.084 31.764 128.292 32.868C127.524 33.972 126.444 34.836 125.052 35.46C123.66 36.084 122.064 36.396 120.264 36.396ZM120.264 21.492C121.2 21.492 122.04 21.312 122.784 20.952C123.528 20.592 124.116 20.1 124.548 19.476C124.98 18.852 125.196 18.156 125.196 17.388C125.196 16.596 124.98 15.888 124.548 15.264C124.116 14.616 123.528 14.124 122.784 13.788C122.04 13.428 121.2 13.248 120.264 13.248C119.328 13.248 118.488 13.428 117.744 13.788C117 14.124 116.412 14.604 115.98 15.228C115.548 15.852 115.332 16.56 115.332 17.352C115.332 18.144 115.548 18.852 115.98 19.476C116.412 20.1 117 20.592 117.744 20.952C118.488 21.312 119.328 21.492 120.264 21.492ZM120.264 33.552C121.368 33.552 122.352 33.36 123.216 32.976C124.08 32.568 124.764 32.016 125.268 31.32C125.772 30.6 126.024 29.796 126.024 28.908C126.024 28.02 125.772 27.228 125.268 26.532C124.764 25.812 124.08 25.26 123.216 24.876C122.352 24.468 121.368 24.264 120.264 24.264C119.16 24.264 118.176 24.468 117.312 24.876C116.448 25.284 115.764 25.836 115.26 26.532C114.756 27.228 114.504 28.02 114.504 28.908C114.504 29.796 114.756 30.6 115.26 31.32C115.764 32.016 116.448 32.568 117.312 32.976C118.176 33.36 119.16 33.552 120.264 33.552ZM133.16 36V33.48L143.384 22.608C144.08 21.888 144.62 21.24 145.004 20.664C145.388 20.088 145.652 19.548 145.796 19.044C145.964 18.516 146.048 17.964 146.048 17.388C146.048 16.26 145.592 15.324 144.68 14.58C143.768 13.836 142.616 13.464 141.224 13.464C140.072 13.464 138.992 13.692 137.984 14.148C136.976 14.604 135.86 15.396 134.636 16.524L132.692 14.148C134.036 12.9 135.416 11.964 136.832 11.34C138.272 10.716 139.76 10.404 141.296 10.404C142.904 10.404 144.32 10.692 145.544 11.268C146.768 11.844 147.716 12.648 148.388 13.68C149.084 14.688 149.432 15.852 149.432 17.172C149.432 18.012 149.324 18.792 149.108 19.512C148.892 20.208 148.52 20.952 147.992 21.744C147.464 22.512 146.72 23.4 145.76 24.408L137.552 33.048L149.936 33.012V36H133.16ZM157.773 23.58C156.117 23.58 154.785 22.98 153.777 21.78C152.769 20.58 152.265 19.02 152.265 17.1C152.265 15.156 152.769 13.596 153.777 12.42C154.785 11.22 156.117 10.62 157.773 10.62C159.405 10.62 160.725 11.22 161.733 12.42C162.741 13.596 163.257 15.156 163.281 17.1C163.257 19.02 162.741 20.58 161.733 21.78C160.725 22.98 159.405 23.58 157.773 23.58ZM157.773 21.528C158.757 21.528 159.537 21.132 160.113 20.34C160.689 19.524 160.977 18.444 160.977 17.1C160.977 15.732 160.689 14.652 160.113 13.86C159.537 13.044 158.757 12.636 157.773 12.636C156.789 12.636 156.009 13.044 155.433 13.86C154.881 14.652 154.593 15.732 154.569 17.1C154.593 18.444 154.881 19.524 155.433 20.34C156.009 21.132 156.789 21.528 157.773 21.528ZM156.477 36L170.661 10.8H173.505L159.285 36H156.477ZM172.389 36.18C170.733 36.18 169.401 35.58 168.393 34.38C167.385 33.18 166.881 31.62 166.881 29.7C166.881 27.756 167.385 26.196 168.393 25.02C169.401 23.82 170.733 23.22 172.389 23.22C174.021 23.22 175.341 23.82 176.349 25.02C177.357 26.196 177.873 27.756 177.897 29.7C177.873 31.62 177.357 33.18 176.349 34.38C175.341 35.58 174.021 36.18 172.389 36.18ZM172.389 34.128C173.373 34.128 174.153 33.732 174.729 32.94C175.305 32.124 175.593 31.044 175.593 29.7C175.593 28.332 175.305 27.252 174.729 26.46C174.153 25.644 173.373 25.236 172.389 25.236C171.405 25.236 170.625 25.644 170.049 26.46C169.497 27.252 169.209 28.332 169.185 29.7C169.209 31.044 169.497 32.124 170.049 32.94C170.625 33.732 171.405 34.128 172.389 34.128Z" fill="#EE0000"/>
<path d="M3.68631 73.144C3.13165 73.144 2.64098 73.0427 2.21431 72.84C1.78765 72.6373 1.45165 72.36 1.20631 72.008C0.971646 71.6453 0.854313 71.2293 0.854313 70.76C0.854313 70.2907 0.976979 69.8853 1.22231 69.544C1.46765 69.192 1.80898 68.92 2.24631 68.728C2.68365 68.536 3.19565 68.44 3.78231 68.44C4.23031 68.44 4.65165 68.488 5.04631 68.584C5.45165 68.68 5.82498 68.8347 6.16631 69.048V67.976C6.16631 67.336 5.99565 66.856 5.65431 66.536C5.31298 66.2053 4.81165 66.04 4.15031 66.04C3.78765 66.04 3.41431 66.0933 3.03031 66.2C2.65698 66.3067 2.24098 66.4773 1.78231 66.712L1.35031 65.816C2.39565 65.3147 3.37698 65.064 4.29431 65.064C5.26498 65.064 6.01165 65.304 6.53431 65.784C7.05698 66.2533 7.31831 66.9307 7.31831 67.816V73H6.16631V72.088C5.82498 72.44 5.44631 72.7067 5.03031 72.888C4.61431 73.0587 4.16631 73.144 3.68631 73.144ZM1.97431 70.728C1.97431 71.1867 2.15031 71.5547 2.50231 71.832C2.86498 72.1093 3.33965 72.248 3.92631 72.248C4.36365 72.248 4.76365 72.1733 5.12631 72.024C5.49965 71.8747 5.84631 71.6507 6.16631 71.352V69.848C5.83565 69.656 5.49431 69.5173 5.14231 69.432C4.79031 69.336 4.39565 69.288 3.95831 69.288C3.36098 69.288 2.88098 69.4213 2.51831 69.688C2.15565 69.944 1.97431 70.2907 1.97431 70.728ZM13.3082 76.504C12.7855 76.504 12.2575 76.4293 11.7242 76.28C11.2015 76.1413 10.7162 75.944 10.2682 75.688L10.7642 74.792C11.2442 75.0373 11.6815 75.2187 12.0762 75.336C12.4709 75.4533 12.8655 75.512 13.2602 75.512C13.9749 75.512 14.5135 75.3413 14.8762 75C15.2495 74.6587 15.4362 74.1627 15.4362 73.512V71.944C15.1375 72.3173 14.7749 72.6053 14.3482 72.808C13.9215 73 13.4522 73.096 12.9402 73.096C12.2682 73.096 11.6602 72.92 11.1162 72.568C10.5722 72.2053 10.1402 71.7253 9.82019 71.128C9.50019 70.52 9.34019 69.8427 9.34019 69.096C9.34019 68.3493 9.50019 67.6773 9.82019 67.08C10.1509 66.472 10.5935 65.992 11.1482 65.64C11.7029 65.2773 12.3215 65.096 13.0042 65.096C13.4949 65.096 13.9482 65.192 14.3642 65.384C14.7802 65.5653 15.1429 65.8373 15.4522 66.2V65.192H16.6042V73.496C16.6042 74.4667 16.3215 75.208 15.7562 75.72C15.1909 76.2427 14.3749 76.504 13.3082 76.504ZM13.2282 72.088C13.6869 72.088 14.1082 71.9973 14.4922 71.816C14.8762 71.624 15.1909 71.3627 15.4362 71.032V67.176C15.1802 66.8453 14.8549 66.5893 14.4602 66.408C14.0762 66.216 13.6655 66.12 13.2282 66.12C12.7055 66.12 12.2362 66.248 11.8202 66.504C11.4149 66.76 11.0895 67.112 10.8442 67.56C10.6095 68.008 10.4922 68.52 10.4922 69.096C10.4922 69.6613 10.6095 70.1733 10.8442 70.632C11.0895 71.08 11.4149 71.4373 11.8202 71.704C12.2362 71.96 12.7055 72.088 13.2282 72.088ZM19.0047 73V65.192H20.1727V66.792C20.3754 66.248 20.6634 65.8267 21.0367 65.528C21.4207 65.2187 21.858 65.064 22.3487 65.064C22.4874 65.064 22.6154 65.0747 22.7327 65.096C22.85 65.1067 22.9674 65.1333 23.0847 65.176V66.232C22.9567 66.1893 22.818 66.1573 22.6687 66.136C22.53 66.104 22.3967 66.088 22.2687 66.088C21.7887 66.088 21.3674 66.2267 21.0047 66.504C20.6527 66.7813 20.3754 67.1707 20.1727 67.672V73H19.0047ZM27.6653 73.16C26.94 73.16 26.284 72.984 25.6973 72.632C25.1106 72.2693 24.6466 71.784 24.3053 71.176C23.964 70.5573 23.7933 69.864 23.7933 69.096C23.7933 68.328 23.9533 67.64 24.2733 67.032C24.604 66.424 25.0466 65.944 25.6013 65.592C26.156 65.24 26.7746 65.064 27.4573 65.064C28.1506 65.064 28.764 65.24 29.2973 65.592C29.8413 65.9333 30.268 66.4027 30.5773 67C30.8973 67.5867 31.0573 68.2533 31.0573 69V69.352H24.9293C24.972 69.8853 25.116 70.3653 25.3613 70.792C25.6173 71.208 25.948 71.5387 26.3533 71.784C26.7693 72.0187 27.2226 72.136 27.7133 72.136C28.1186 72.136 28.508 72.0667 28.8813 71.928C29.2653 71.7787 29.5906 71.5813 29.8573 71.336L30.5933 72.12C30.1453 72.472 29.6813 72.7333 29.2013 72.904C28.7213 73.0747 28.2093 73.16 27.6653 73.16ZM24.9613 68.52H29.9053C29.852 68.0507 29.708 67.6347 29.4733 67.272C29.2493 66.8987 28.9613 66.6053 28.6093 66.392C28.268 66.1787 27.884 66.072 27.4573 66.072C27.0306 66.072 26.6413 66.1787 26.2893 66.392C25.9373 66.5947 25.644 66.8827 25.4093 67.256C25.1853 67.6187 25.036 68.04 24.9613 68.52ZM36.5716 73.16C35.8462 73.16 35.1902 72.984 34.6036 72.632C34.0169 72.2693 33.5529 71.784 33.2116 71.176C32.8702 70.5573 32.6996 69.864 32.6996 69.096C32.6996 68.328 32.8596 67.64 33.1796 67.032C33.5102 66.424 33.9529 65.944 34.5076 65.592C35.0622 65.24 35.6809 65.064 36.3636 65.064C37.0569 65.064 37.6702 65.24 38.2036 65.592C38.7476 65.9333 39.1742 66.4027 39.4836 67C39.8036 67.5867 39.9636 68.2533 39.9636 69V69.352H33.8356C33.8782 69.8853 34.0222 70.3653 34.2676 70.792C34.5236 71.208 34.8542 71.5387 35.2596 71.784C35.6756 72.0187 36.1289 72.136 36.6196 72.136C37.0249 72.136 37.4142 72.0667 37.7876 71.928C38.1716 71.7787 38.4969 71.5813 38.7636 71.336L39.4996 72.12C39.0516 72.472 38.5876 72.7333 38.1076 72.904C37.6276 73.0747 37.1156 73.16 36.5716 73.16ZM33.8676 68.52H38.8116C38.7582 68.0507 38.6142 67.6347 38.3796 67.272C38.1556 66.8987 37.8676 66.6053 37.5156 66.392C37.1742 66.1787 36.7902 66.072 36.3636 66.072C35.9369 66.072 35.5476 66.1787 35.1956 66.392C34.8436 66.5947 34.5502 66.8827 34.3156 67.256C34.0916 67.6187 33.9422 68.04 33.8676 68.52ZM45.9162 73V61.8H50.5082C51.2229 61.8 51.8469 61.9387 52.3802 62.216C52.9135 62.4827 53.3295 62.856 53.6282 63.336C53.9269 63.816 54.0762 64.3813 54.0762 65.032C54.0762 65.7787 53.8682 66.4187 53.4522 66.952C53.0362 67.4747 52.4655 67.8427 51.7402 68.056L54.1242 73H52.7642L50.4922 68.216H47.1482V73H45.9162ZM47.1482 67.192H50.4122C51.1482 67.192 51.7349 67 52.1722 66.616C52.6202 66.2213 52.8442 65.6987 52.8442 65.048C52.8442 64.3867 52.6202 63.864 52.1722 63.48C51.7349 63.0853 51.1482 62.888 50.4122 62.888H47.1482V67.192ZM56.2596 73V61.8H57.4916V66.808H63.9236V61.8H65.1556V73H63.9236V67.912H57.4916V73H56.2596ZM67.9943 73V61.8H69.2263V71.912H75.5463V73H67.9943ZM81.3291 73.176C80.4544 73.176 79.6437 73.0213 78.8971 72.712C78.1504 72.392 77.4304 71.912 76.7371 71.272L77.4891 70.376C78.1611 71.0053 78.7904 71.4533 79.3771 71.72C79.9744 71.9867 80.6357 72.12 81.3611 72.12C81.9371 72.12 82.4491 72.024 82.8971 71.832C83.3557 71.6293 83.7131 71.3573 83.9691 71.016C84.2251 70.6747 84.3531 70.2853 84.3531 69.848C84.3531 69.2827 84.1664 68.856 83.7931 68.568C83.4197 68.2693 82.7744 68.04 81.8571 67.88L80.0491 67.576C79.0251 67.3947 78.2731 67.0853 77.7931 66.648C77.3237 66.2 77.0891 65.6027 77.0891 64.856C77.0891 64.2267 77.2491 63.672 77.5691 63.192C77.8997 62.7013 78.3531 62.3173 78.9291 62.04C79.5051 61.7627 80.1717 61.624 80.9291 61.624C81.7611 61.624 82.5344 61.7413 83.2491 61.976C83.9637 62.2 84.6677 62.5573 85.3611 63.048L84.7211 64.008C84.1451 63.5707 83.5371 63.24 82.8971 63.016C82.2571 62.7813 81.6064 62.664 80.9451 62.664C80.4224 62.664 79.9584 62.7547 79.5531 62.936C79.1584 63.1173 78.8437 63.3627 78.6091 63.672C78.3851 63.9813 78.2731 64.3333 78.2731 64.728C78.2731 65.2187 78.4384 65.6027 78.7691 65.88C79.0997 66.1573 79.6384 66.3547 80.3851 66.472L82.1771 66.776C83.3717 66.9893 84.2357 67.336 84.7691 67.816C85.3131 68.2853 85.5851 68.9413 85.5851 69.784C85.5851 70.4347 85.3984 71.016 85.0251 71.528C84.6624 72.04 84.1611 72.4453 83.5211 72.744C82.8811 73.032 82.1504 73.176 81.3291 73.176ZM91.1762 73V65.192H92.3442V73H91.1762ZM91.7682 63.256C91.5335 63.256 91.3309 63.176 91.1602 63.016C91.0002 62.8453 90.9202 62.648 90.9202 62.424C90.9202 62.2 91.0002 62.008 91.1602 61.848C91.3309 61.6773 91.5335 61.592 91.7682 61.592C92.0029 61.592 92.2002 61.6773 92.3602 61.848C92.5309 62.008 92.6162 62.2 92.6162 62.424C92.6162 62.648 92.5309 62.8453 92.3602 63.016C92.2002 63.176 92.0029 63.256 91.7682 63.256ZM97.1551 73.16C96.5151 73.16 95.9231 73.064 95.3791 72.872C94.8351 72.6693 94.3711 72.3813 93.9871 72.008L94.6111 71.24C95.0804 71.5813 95.5124 71.832 95.9071 71.992C96.3017 72.1413 96.7071 72.216 97.1231 72.216C97.6884 72.216 98.1577 72.0827 98.5311 71.816C98.9044 71.5493 99.0911 71.208 99.0911 70.792C99.0911 70.472 98.9791 70.2213 98.7551 70.04C98.5417 69.8587 98.1844 69.72 97.6831 69.624L96.4031 69.4C95.6457 69.2613 95.0857 69.0267 94.7231 68.696C94.3711 68.3653 94.1951 67.9173 94.1951 67.352C94.1951 66.904 94.3124 66.5093 94.5471 66.168C94.7924 65.8267 95.1284 65.56 95.5551 65.368C95.9817 65.1653 96.4671 65.064 97.0111 65.064C97.5444 65.064 98.0511 65.144 98.5311 65.304C99.0111 65.4533 99.4964 65.6987 99.9871 66.04L99.4111 66.856C99.0057 66.568 98.6004 66.36 98.1951 66.232C97.7897 66.0933 97.3791 66.024 96.9631 66.024C96.4511 66.024 96.0404 66.136 95.7311 66.36C95.4217 66.584 95.2671 66.888 95.2671 67.272C95.2671 67.592 95.3631 67.8373 95.5551 68.008C95.7577 68.1787 96.1097 68.3067 96.6111 68.392L97.9231 68.632C98.7124 68.7707 99.2884 69.0107 99.6511 69.352C100.014 69.6933 100.195 70.152 100.195 70.728C100.195 71.1867 100.062 71.6027 99.7951 71.976C99.5284 72.3387 99.1657 72.6267 98.7071 72.84C98.2484 73.0533 97.7311 73.16 97.1551 73.16ZM108.124 73.144C107.569 73.144 107.078 73.0427 106.652 72.84C106.225 72.6373 105.889 72.36 105.644 72.008C105.409 71.6453 105.292 71.2293 105.292 70.76C105.292 70.2907 105.414 69.8853 105.66 69.544C105.905 69.192 106.246 68.92 106.684 68.728C107.121 68.536 107.633 68.44 108.22 68.44C108.668 68.44 109.089 68.488 109.484 68.584C109.889 68.68 110.262 68.8347 110.604 69.048V67.976C110.604 67.336 110.433 66.856 110.092 66.536C109.75 66.2053 109.249 66.04 108.588 66.04C108.225 66.04 107.852 66.0933 107.468 66.2C107.094 66.3067 106.678 66.4773 106.22 66.712L105.788 65.816C106.833 65.3147 107.814 65.064 108.732 65.064C109.702 65.064 110.449 65.304 110.972 65.784C111.494 66.2533 111.756 66.9307 111.756 67.816V73H110.604V72.088C110.262 72.44 109.884 72.7067 109.468 72.888C109.052 73.0587 108.604 73.144 108.124 73.144ZM106.412 70.728C106.412 71.1867 106.588 71.5547 106.94 71.832C107.302 72.1093 107.777 72.248 108.364 72.248C108.801 72.248 109.201 72.1733 109.564 72.024C109.937 71.8747 110.284 71.6507 110.604 71.352V69.848C110.273 69.656 109.932 69.5173 109.58 69.432C109.228 69.336 108.833 69.288 108.396 69.288C107.798 69.288 107.318 69.4213 106.956 69.688C106.593 69.944 106.412 70.2907 106.412 70.728ZM117.864 73V61.448L119.032 61.208V68.696L122.744 65.192H124.152L120.184 68.904L124.328 73H122.792L119.032 69.272V73H117.864ZM128.572 73.16C127.846 73.16 127.19 72.984 126.604 72.632C126.017 72.2693 125.553 71.784 125.212 71.176C124.87 70.5573 124.7 69.864 124.7 69.096C124.7 68.328 124.86 67.64 125.18 67.032C125.51 66.424 125.953 65.944 126.508 65.592C127.062 65.24 127.681 65.064 128.364 65.064C129.057 65.064 129.67 65.24 130.204 65.592C130.748 65.9333 131.174 66.4027 131.484 67C131.804 67.5867 131.964 68.2533 131.964 69V69.352H125.836C125.878 69.8853 126.022 70.3653 126.268 70.792C126.524 71.208 126.854 71.5387 127.26 71.784C127.676 72.0187 128.129 72.136 128.62 72.136C129.025 72.136 129.414 72.0667 129.788 71.928C130.172 71.7787 130.497 71.5813 130.764 71.336L131.5 72.12C131.052 72.472 130.588 72.7333 130.108 72.904C129.628 73.0747 129.116 73.16 128.572 73.16ZM125.868 68.52H130.812C130.758 68.0507 130.614 67.6347 130.38 67.272C130.156 66.8987 129.868 66.6053 129.516 66.392C129.174 66.1787 128.79 66.072 128.364 66.072C127.937 66.072 127.548 66.1787 127.196 66.392C126.844 66.5947 126.55 66.8827 126.316 67.256C126.092 67.6187 125.942 68.04 125.868 68.52ZM134.059 76.504C133.814 76.504 133.563 76.4667 133.307 76.392V75.352C133.414 75.3733 133.526 75.3893 133.643 75.4C133.761 75.4107 133.862 75.416 133.947 75.416C134.246 75.416 134.491 75.336 134.683 75.176C134.886 75.016 135.057 74.7653 135.195 74.424L135.771 73L132.763 65.192H134.059L136.427 71.608L138.939 65.192H140.235L136.299 74.776C136.129 75.192 135.942 75.528 135.739 75.784C135.537 76.04 135.302 76.2213 135.035 76.328C134.769 76.4453 134.443 76.504 134.059 76.504ZM145.427 76.344V65.192H146.579V66.312C146.877 65.9173 147.24 65.6187 147.667 65.416C148.104 65.2027 148.584 65.096 149.107 65.096C149.789 65.096 150.397 65.2773 150.931 65.64C151.475 65.992 151.907 66.472 152.227 67.08C152.547 67.6773 152.707 68.3493 152.707 69.096C152.707 69.8427 152.541 70.52 152.211 71.128C151.891 71.736 151.453 72.2213 150.899 72.584C150.355 72.936 149.736 73.112 149.043 73.112C148.552 73.112 148.099 73.0213 147.683 72.84C147.267 72.648 146.904 72.376 146.595 72.024V76.344H145.427ZM148.819 72.104C149.341 72.104 149.805 71.976 150.211 71.72C150.627 71.4533 150.952 71.096 151.187 70.648C151.432 70.1893 151.555 69.6773 151.555 69.112C151.555 68.536 151.432 68.024 151.187 67.576C150.952 67.128 150.627 66.776 150.211 66.52C149.805 66.2533 149.341 66.12 148.819 66.12C148.36 66.12 147.933 66.216 147.539 66.408C147.155 66.5893 146.84 66.8507 146.595 67.192V71.016C146.851 71.3573 147.171 71.624 147.555 71.816C147.949 72.008 148.371 72.104 148.819 72.104ZM157.249 73.144C156.694 73.144 156.203 73.0427 155.777 72.84C155.35 72.6373 155.014 72.36 154.769 72.008C154.534 71.6453 154.417 71.2293 154.417 70.76C154.417 70.2907 154.539 69.8853 154.785 69.544C155.03 69.192 155.371 68.92 155.809 68.728C156.246 68.536 156.758 68.44 157.345 68.44C157.793 68.44 158.214 68.488 158.609 68.584C159.014 68.68 159.387 68.8347 159.729 69.048V67.976C159.729 67.336 159.558 66.856 159.217 66.536C158.875 66.2053 158.374 66.04 157.713 66.04C157.35 66.04 156.977 66.0933 156.593 66.2C156.219 66.3067 155.803 66.4773 155.345 66.712L154.913 65.816C155.958 65.3147 156.939 65.064 157.857 65.064C158.827 65.064 159.574 65.304 160.097 65.784C160.619 66.2533 160.881 66.9307 160.881 67.816V73H159.729V72.088C159.387 72.44 159.009 72.7067 158.593 72.888C158.177 73.0587 157.729 73.144 157.249 73.144ZM155.537 70.728C155.537 71.1867 155.713 71.5547 156.065 71.832C156.427 72.1093 156.902 72.248 157.489 72.248C157.926 72.248 158.326 72.1733 158.689 72.024C159.062 71.8747 159.409 71.6507 159.729 71.352V69.848C159.398 69.656 159.057 69.5173 158.705 69.432C158.353 69.336 157.958 69.288 157.521 69.288C156.923 69.288 156.443 69.4213 156.081 69.688C155.718 69.944 155.537 70.2907 155.537 70.728ZM163.255 73V65.192H164.423V66.792C164.625 66.248 164.913 65.8267 165.287 65.528C165.671 65.2187 166.108 65.064 166.599 65.064C166.737 65.064 166.865 65.0747 166.983 65.096C167.1 65.1067 167.217 65.1333 167.335 65.176V66.232C167.207 66.1893 167.068 66.1573 166.919 66.136C166.78 66.104 166.647 66.088 166.519 66.088C166.039 66.088 165.617 66.2267 165.255 66.504C164.903 66.7813 164.625 67.1707 164.423 67.672V73H163.255ZM171.856 73.16C171.184 73.16 170.672 73 170.32 72.68C169.978 72.3493 169.808 71.8747 169.808 71.256V66.152H168.192V65.192H169.808V63.048L170.976 62.776V65.192H173.216V66.152H170.976V70.952C170.976 71.368 171.061 71.6667 171.232 71.848C171.413 72.0293 171.706 72.12 172.112 72.12C172.314 72.12 172.496 72.104 172.656 72.072C172.816 72.04 173.002 71.9867 173.216 71.912V72.952C173.002 73.0267 172.778 73.08 172.544 73.112C172.309 73.144 172.08 73.16 171.856 73.16ZM182.117 73.128C181.392 73.128 180.741 72.952 180.165 72.6C179.589 72.248 179.136 71.768 178.805 71.16C178.474 70.552 178.309 69.864 178.309 69.096C178.309 68.328 178.474 67.64 178.805 67.032C179.136 66.424 179.589 65.944 180.165 65.592C180.741 65.24 181.392 65.064 182.117 65.064C182.832 65.064 183.472 65.24 184.037 65.592C184.613 65.944 185.066 66.424 185.397 67.032C185.728 67.64 185.893 68.328 185.893 69.096C185.893 69.864 185.728 70.552 185.397 71.16C185.066 71.768 184.613 72.248 184.037 72.6C183.472 72.952 182.832 73.128 182.117 73.128ZM182.101 72.104C182.613 72.104 183.066 71.976 183.461 71.72C183.856 71.4533 184.165 71.0907 184.389 70.632C184.624 70.1733 184.741 69.6613 184.741 69.096C184.741 68.52 184.624 68.008 184.389 67.56C184.165 67.1013 183.856 66.744 183.461 66.488C183.066 66.2213 182.613 66.088 182.101 66.088C181.589 66.088 181.136 66.2213 180.741 66.488C180.346 66.744 180.032 67.1013 179.797 67.56C179.573 68.008 179.461 68.52 179.461 69.096C179.461 69.6613 179.573 70.1733 179.797 70.632C180.032 71.0907 180.346 71.4533 180.741 71.72C181.136 71.976 181.589 72.104 182.101 72.104ZM188.45 73V66.152H186.706V65.192H188.45V63.56C188.45 62.792 188.652 62.2 189.058 61.784C189.463 61.368 190.039 61.16 190.786 61.16C190.999 61.16 191.191 61.1707 191.362 61.192C191.543 61.2133 191.703 61.2507 191.842 61.304V62.36C191.671 62.3067 191.516 62.2693 191.378 62.248C191.239 62.2267 191.079 62.216 190.898 62.216C190.45 62.216 190.124 62.328 189.922 62.552C189.719 62.7653 189.618 63.1067 189.618 63.576V65.192H191.842V66.152H189.618V73H188.45ZM200.09 73.16C199.418 73.16 198.906 73 198.554 72.68C198.213 72.3493 198.042 71.8747 198.042 71.256V66.152H196.426V65.192H198.042V63.048L199.21 62.776V65.192H201.45V66.152H199.21V70.952C199.21 71.368 199.295 71.6667 199.466 71.848C199.647 72.0293 199.941 72.12 200.346 72.12C200.549 72.12 200.73 72.104 200.89 72.072C201.05 72.04 201.237 71.9867 201.45 71.912V72.952C201.237 73.0267 201.013 73.08 200.778 73.112C200.543 73.144 200.314 73.16 200.09 73.16ZM203.161 73V61.448L204.329 61.208V66.456C204.628 65.9867 204.985 65.64 205.401 65.416C205.817 65.1813 206.286 65.064 206.809 65.064C207.374 65.064 207.865 65.1867 208.281 65.432C208.708 65.6667 209.038 66.0027 209.273 66.44C209.518 66.8667 209.641 67.368 209.641 67.944V73H208.473V68.28C208.473 67.5867 208.281 67.0427 207.897 66.648C207.524 66.2427 207.017 66.04 206.377 66.04C205.95 66.04 205.561 66.1413 205.209 66.344C204.857 66.5467 204.564 66.8453 204.329 67.24V73H203.161ZM215.509 73.16C214.784 73.16 214.128 72.984 213.541 72.632C212.954 72.2693 212.49 71.784 212.149 71.176C211.808 70.5573 211.637 69.864 211.637 69.096C211.637 68.328 211.797 67.64 212.117 67.032C212.448 66.424 212.89 65.944 213.445 65.592C214 65.24 214.618 65.064 215.301 65.064C215.994 65.064 216.608 65.24 217.141 65.592C217.685 65.9333 218.112 66.4027 218.421 67C218.741 67.5867 218.901 68.2533 218.901 69V69.352H212.773C212.816 69.8853 212.96 70.3653 213.205 70.792C213.461 71.208 213.792 71.5387 214.197 71.784C214.613 72.0187 215.066 72.136 215.557 72.136C215.962 72.136 216.352 72.0667 216.725 71.928C217.109 71.7787 217.434 71.5813 217.701 71.336L218.437 72.12C217.989 72.472 217.525 72.7333 217.045 72.904C216.565 73.0747 216.053 73.16 215.509 73.16ZM212.805 68.52H217.749C217.696 68.0507 217.552 67.6347 217.317 67.272C217.093 66.8987 216.805 66.6053 216.453 66.392C216.112 66.1787 215.728 66.072 215.301 66.072C214.874 66.072 214.485 66.1787 214.133 66.392C213.781 66.5947 213.488 66.8827 213.253 67.256C213.029 67.6187 212.88 68.04 212.805 68.52ZM220.879 73V65.192H222.047V73H220.879ZM221.471 63.256C221.237 63.256 221.034 63.176 220.863 63.016C220.703 62.8453 220.623 62.648 220.623 62.424C220.623 62.2 220.703 62.008 220.863 61.848C221.034 61.6773 221.237 61.592 221.471 61.592C221.706 61.592 221.903 61.6773 222.063 61.848C222.234 62.008 222.319 62.2 222.319 62.424C222.319 62.648 222.234 62.8453 222.063 63.016C221.903 63.176 221.706 63.256 221.471 63.256ZM224.442 73V65.192H225.61V66.792C225.813 66.248 226.101 65.8267 226.474 65.528C226.858 65.2187 227.296 65.064 227.786 65.064C227.925 65.064 228.053 65.0747 228.17 65.096C228.288 65.1067 228.405 65.1333 228.522 65.176V66.232C228.394 66.1893 228.256 66.1573 228.106 66.136C227.968 66.104 227.834 66.088 227.706 66.088C227.226 66.088 226.805 66.2267 226.442 66.504C226.09 66.7813 225.813 67.1707 225.61 67.672V73H224.442ZM236.218 73.16C235.578 73.16 234.986 73.064 234.442 72.872C233.898 72.6693 233.434 72.3813 233.05 72.008L233.674 71.24C234.143 71.5813 234.575 71.832 234.97 71.992C235.364 72.1413 235.77 72.216 236.186 72.216C236.751 72.216 237.22 72.0827 237.594 71.816C237.967 71.5493 238.154 71.208 238.154 70.792C238.154 70.472 238.042 70.2213 237.818 70.04C237.604 69.8587 237.247 69.72 236.746 69.624L235.466 69.4C234.708 69.2613 234.148 69.0267 233.786 68.696C233.434 68.3653 233.258 67.9173 233.258 67.352C233.258 66.904 233.375 66.5093 233.61 66.168C233.855 65.8267 234.191 65.56 234.618 65.368C235.044 65.1653 235.53 65.064 236.074 65.064C236.607 65.064 237.114 65.144 237.594 65.304C238.074 65.4533 238.559 65.6987 239.05 66.04L238.474 66.856C238.068 66.568 237.663 66.36 237.258 66.232C236.852 66.0933 236.442 66.024 236.026 66.024C235.514 66.024 235.103 66.136 234.794 66.36C234.484 66.584 234.33 66.888 234.33 67.272C234.33 67.592 234.426 67.8373 234.618 68.008C234.82 68.1787 235.172 68.3067 235.674 68.392L236.986 68.632C237.775 68.7707 238.351 69.0107 238.714 69.352C239.076 69.6933 239.258 70.152 239.258 70.728C239.258 71.1867 239.124 71.6027 238.858 71.976C238.591 72.3387 238.228 72.6267 237.77 72.84C237.311 73.0533 236.794 73.16 236.218 73.16ZM243.82 73.128C243.265 73.128 242.775 73.0053 242.348 72.76C241.921 72.5147 241.585 72.1733 241.34 71.736C241.105 71.2987 240.988 70.7973 240.988 70.232V65.192H242.172V69.896C242.172 70.5893 242.359 71.1387 242.732 71.544C243.105 71.9493 243.612 72.152 244.252 72.152C244.689 72.152 245.079 72.0507 245.42 71.848C245.772 71.6453 246.065 71.352 246.3 70.968V65.192H247.468V73H246.3V71.736C246.001 72.1947 245.644 72.5413 245.228 72.776C244.823 73.0107 244.353 73.128 243.82 73.128ZM253.368 73.128C252.643 73.128 251.987 72.952 251.4 72.6C250.824 72.2373 250.365 71.752 250.024 71.144C249.683 70.5253 249.512 69.8427 249.512 69.096C249.512 68.3387 249.683 67.656 250.024 67.048C250.365 66.44 250.824 65.96 251.4 65.608C251.987 65.2453 252.643 65.064 253.368 65.064C253.944 65.064 254.493 65.1707 255.016 65.384C255.539 65.5973 255.992 65.896 256.376 66.28L255.624 67.096C255.347 66.7867 255.011 66.5467 254.616 66.376C254.221 66.2053 253.821 66.12 253.416 66.12C252.904 66.12 252.44 66.2533 252.024 66.52C251.619 66.7867 251.293 67.144 251.048 67.592C250.803 68.04 250.68 68.5413 250.68 69.096C250.68 69.6507 250.803 70.152 251.048 70.6C251.293 71.048 251.619 71.4053 252.024 71.672C252.44 71.9387 252.904 72.072 253.416 72.072C253.821 72.072 254.221 71.9867 254.616 71.816C255.011 71.6347 255.347 71.3947 255.624 71.096L256.376 71.912C255.992 72.296 255.539 72.5947 255.016 72.808C254.493 73.0213 253.944 73.128 253.368 73.128ZM261.274 73.128C260.549 73.128 259.893 72.952 259.306 72.6C258.73 72.2373 258.272 71.752 257.93 71.144C257.589 70.5253 257.418 69.8427 257.418 69.096C257.418 68.3387 257.589 67.656 257.93 67.048C258.272 66.44 258.73 65.96 259.306 65.608C259.893 65.2453 260.549 65.064 261.274 65.064C261.85 65.064 262.4 65.1707 262.922 65.384C263.445 65.5973 263.898 65.896 264.282 66.28L263.53 67.096C263.253 66.7867 262.917 66.5467 262.522 66.376C262.128 66.2053 261.728 66.12 261.322 66.12C260.81 66.12 260.346 66.2533 259.93 66.52C259.525 66.7867 259.2 67.144 258.954 67.592C258.709 68.04 258.586 68.5413 258.586 69.096C258.586 69.6507 258.709 70.152 258.954 70.6C259.2 71.048 259.525 71.4053 259.93 71.672C260.346 71.9387 260.81 72.072 261.322 72.072C261.728 72.072 262.128 71.9867 262.522 71.816C262.917 71.6347 263.253 71.3947 263.53 71.096L264.282 71.912C263.898 72.296 263.445 72.5947 262.922 72.808C262.4 73.0213 261.85 73.128 261.274 73.128ZM269.197 73.16C268.471 73.16 267.815 72.984 267.229 72.632C266.642 72.2693 266.178 71.784 265.837 71.176C265.495 70.5573 265.325 69.864 265.325 69.096C265.325 68.328 265.485 67.64 265.805 67.032C266.135 66.424 266.578 65.944 267.133 65.592C267.687 65.24 268.306 65.064 268.989 65.064C269.682 65.064 270.295 65.24 270.829 65.592C271.373 65.9333 271.799 66.4027 272.109 67C272.429 67.5867 272.589 68.2533 272.589 69V69.352H266.461C266.503 69.8853 266.647 70.3653 266.893 70.792C267.149 71.208 267.479 71.5387 267.885 71.784C268.301 72.0187 268.754 72.136 269.245 72.136C269.65 72.136 270.039 72.0667 270.413 71.928C270.797 71.7787 271.122 71.5813 271.389 71.336L272.125 72.12C271.677 72.472 271.213 72.7333 270.733 72.904C270.253 73.0747 269.741 73.16 269.197 73.16ZM266.493 68.52H271.437C271.383 68.0507 271.239 67.6347 271.005 67.272C270.781 66.8987 270.493 66.6053 270.141 66.392C269.799 66.1787 269.415 66.072 268.989 66.072C268.562 66.072 268.173 66.1787 267.821 66.392C267.469 66.5947 267.175 66.8827 266.941 67.256C266.717 67.6187 266.567 68.04 266.493 68.52ZM277.077 73.16C276.437 73.16 275.845 73.064 275.301 72.872C274.757 72.6693 274.293 72.3813 273.909 72.008L274.533 71.24C275.002 71.5813 275.434 71.832 275.829 71.992C276.224 72.1413 276.629 72.216 277.045 72.216C277.61 72.216 278.08 72.0827 278.453 71.816C278.826 71.5493 279.013 71.208 279.013 70.792C279.013 70.472 278.901 70.2213 278.677 70.04C278.464 69.8587 278.106 69.72 277.605 69.624L276.325 69.4C275.568 69.2613 275.008 69.0267 274.645 68.696C274.293 68.3653 274.117 67.9173 274.117 67.352C274.117 66.904 274.234 66.5093 274.469 66.168C274.714 65.8267 275.05 65.56 275.477 65.368C275.904 65.1653 276.389 65.064 276.933 65.064C277.466 65.064 277.973 65.144 278.453 65.304C278.933 65.4533 279.418 65.6987 279.909 66.04L279.333 66.856C278.928 66.568 278.522 66.36 278.117 66.232C277.712 66.0933 277.301 66.024 276.885 66.024C276.373 66.024 275.962 66.136 275.653 66.36C275.344 66.584 275.189 66.888 275.189 67.272C275.189 67.592 275.285 67.8373 275.477 68.008C275.68 68.1787 276.032 68.3067 276.533 68.392L277.845 68.632C278.634 68.7707 279.21 69.0107 279.573 69.352C279.936 69.6933 280.117 70.152 280.117 70.728C280.117 71.1867 279.984 71.6027 279.717 71.976C279.45 72.3387 279.088 72.6267 278.629 72.84C278.17 73.0533 277.653 73.16 277.077 73.16ZM284.311 73.16C283.671 73.16 283.079 73.064 282.535 72.872C281.991 72.6693 281.527 72.3813 281.143 72.008L281.767 71.24C282.237 71.5813 282.669 71.832 283.063 71.992C283.458 72.1413 283.863 72.216 284.279 72.216C284.845 72.216 285.314 72.0827 285.687 71.816C286.061 71.5493 286.247 71.208 286.247 70.792C286.247 70.472 286.135 70.2213 285.911 70.04C285.698 69.8587 285.341 69.72 284.839 69.624L283.559 69.4C282.802 69.2613 282.242 69.0267 281.879 68.696C281.527 68.3653 281.351 67.9173 281.351 67.352C281.351 66.904 281.469 66.5093 281.703 66.168C281.949 65.8267 282.285 65.56 282.711 65.368C283.138 65.1653 283.623 65.064 284.167 65.064C284.701 65.064 285.207 65.144 285.687 65.304C286.167 65.4533 286.653 65.6987 287.143 66.04L286.567 66.856C286.162 66.568 285.757 66.36 285.351 66.232C284.946 66.0933 284.535 66.024 284.119 66.024C283.607 66.024 283.197 66.136 282.887 66.36C282.578 66.584 282.423 66.888 282.423 67.272C282.423 67.592 282.519 67.8373 282.711 68.008C282.914 68.1787 283.266 68.3067 283.767 68.392L285.079 68.632C285.869 68.7707 286.445 69.0107 286.807 69.352C287.17 69.6933 287.351 70.152 287.351 70.728C287.351 71.1867 287.218 71.6027 286.951 71.976C286.685 72.3387 286.322 72.6267 285.863 72.84C285.405 73.0533 284.887 73.16 284.311 73.16ZM64.7106 97.128C64.1559 97.128 63.6652 97.0053 63.2386 96.76C62.8119 96.5147 62.4759 96.1733 62.2306 95.736C61.9959 95.2987 61.8786 94.7973 61.8786 94.232V89.192H63.0626V93.896C63.0626 94.5893 63.2492 95.1387 63.6226 95.544C63.9959 95.9493 64.5026 96.152 65.1426 96.152C65.5799 96.152 65.9692 96.0507 66.3106 95.848C66.6626 95.6453 66.9559 95.352 67.1906 94.968V89.192H68.3586V97H67.1906V95.736C66.8919 96.1947 66.5346 96.5413 66.1186 96.776C65.7132 97.0107 65.2439 97.128 64.7106 97.128ZM73.1707 97.16C72.5307 97.16 71.9387 97.064 71.3947 96.872C70.8507 96.6693 70.3867 96.3813 70.0027 96.008L70.6267 95.24C71.096 95.5813 71.528 95.832 71.9227 95.992C72.3174 96.1413 72.7227 96.216 73.1387 96.216C73.704 96.216 74.1734 96.0827 74.5467 95.816C74.92 95.5493 75.1067 95.208 75.1067 94.792C75.1067 94.472 74.9947 94.2213 74.7707 94.04C74.5574 93.8587 74.2 93.72 73.6987 93.624L72.4187 93.4C71.6614 93.2613 71.1014 93.0267 70.7387 92.696C70.3867 92.3653 70.2107 91.9173 70.2107 91.352C70.2107 90.904 70.328 90.5093 70.5627 90.168C70.808 89.8267 71.144 89.56 71.5707 89.368C71.9974 89.1653 72.4827 89.064 73.0267 89.064C73.56 89.064 74.0667 89.144 74.5467 89.304C75.0267 89.4533 75.512 89.6987 76.0027 90.04L75.4267 90.856C75.0214 90.568 74.616 90.36 74.2107 90.232C73.8054 90.0933 73.3947 90.024 72.9787 90.024C72.4667 90.024 72.056 90.136 71.7467 90.36C71.4374 90.584 71.2827 90.888 71.2827 91.272C71.2827 91.592 71.3787 91.8373 71.5707 92.008C71.7734 92.1787 72.1254 92.3067 72.6267 92.392L73.9387 92.632C74.728 92.7707 75.304 93.0107 75.6667 93.352C76.0294 93.6933 76.2107 94.152 76.2107 94.728C76.2107 95.1867 76.0774 95.6027 75.8107 95.976C75.544 96.3387 75.1814 96.6267 74.7227 96.84C74.264 97.0533 73.7467 97.16 73.1707 97.16ZM77.9731 97V89.192H79.1411V97H77.9731ZM78.5651 87.256C78.3304 87.256 78.1277 87.176 77.9571 87.016C77.7971 86.8453 77.7171 86.648 77.7171 86.424C77.7171 86.2 77.7971 86.008 77.9571 85.848C78.1277 85.6773 78.3304 85.592 78.5651 85.592C78.7997 85.592 78.9971 85.6773 79.1571 85.848C79.3277 86.008 79.4131 86.2 79.4131 86.424C79.4131 86.648 79.3277 86.8453 79.1571 87.016C78.9971 87.176 78.7997 87.256 78.5651 87.256ZM81.5359 97V89.192H82.7039V90.456C83.0026 89.9867 83.3599 89.64 83.7759 89.416C84.1919 89.1813 84.6613 89.064 85.1839 89.064C85.7493 89.064 86.2399 89.1867 86.6559 89.432C87.0826 89.6667 87.4133 90.0027 87.6479 90.44C87.8933 90.8667 88.0159 91.368 88.0159 91.944V97H86.8479V92.28C86.8479 91.5867 86.6559 91.0427 86.2719 90.648C85.8986 90.2427 85.3919 90.04 84.7519 90.04C84.3253 90.04 83.9359 90.1413 83.5839 90.344C83.2319 90.5467 82.9386 90.8453 82.7039 91.24V97H81.5359ZM93.9801 100.504C93.4574 100.504 92.9294 100.429 92.3961 100.28C91.8734 100.141 91.3881 99.944 90.9401 99.688L91.4361 98.792C91.9161 99.0373 92.3534 99.2187 92.7481 99.336C93.1427 99.4533 93.5374 99.512 93.9321 99.512C94.6467 99.512 95.1854 99.3413 95.5481 99C95.9214 98.6587 96.1081 98.1627 96.1081 97.512V95.944C95.8094 96.3173 95.4467 96.6053 95.0201 96.808C94.5934 97 94.1241 97.096 93.6121 97.096C92.9401 97.096 92.3321 96.92 91.7881 96.568C91.2441 96.2053 90.8121 95.7253 90.4921 95.128C90.1721 94.52 90.0121 93.8427 90.0121 93.096C90.0121 92.3493 90.1721 91.6773 90.4921 91.08C90.8227 90.472 91.2654 89.992 91.8201 89.64C92.3747 89.2773 92.9934 89.096 93.6761 89.096C94.1667 89.096 94.6201 89.192 95.0361 89.384C95.4521 89.5653 95.8147 89.8373 96.1241 90.2V89.192H97.2761V97.496C97.2761 98.4667 96.9934 99.208 96.4281 99.72C95.8627 100.243 95.0467 100.504 93.9801 100.504ZM93.9001 96.088C94.3587 96.088 94.7801 95.9973 95.1641 95.816C95.5481 95.624 95.8627 95.3627 96.1081 95.032V91.176C95.8521 90.8453 95.5267 90.5893 95.1321 90.408C94.7481 90.216 94.3374 90.12 93.9001 90.12C93.3774 90.12 92.9081 90.248 92.4921 90.504C92.0867 90.76 91.7614 91.112 91.5161 91.56C91.2814 92.008 91.1641 92.52 91.1641 93.096C91.1641 93.6613 91.2814 94.1733 91.5161 94.632C91.7614 95.08 92.0867 95.4373 92.4921 95.704C92.9081 95.96 93.3774 96.088 93.9001 96.088ZM103.635 97V85.8H108.227C108.942 85.8 109.566 85.9387 110.099 86.216C110.632 86.4827 111.048 86.856 111.347 87.336C111.646 87.816 111.795 88.3813 111.795 89.032C111.795 89.7787 111.587 90.4187 111.171 90.952C110.755 91.4747 110.184 91.8427 109.459 92.056L111.843 97H110.483L108.211 92.216H104.867V97H103.635ZM104.867 91.192H108.131C108.867 91.192 109.454 91 109.891 90.616C110.339 90.2213 110.563 89.6987 110.563 89.048C110.563 88.3867 110.339 87.864 109.891 87.48C109.454 87.0853 108.867 86.888 108.131 86.888H104.867V91.192ZM116.884 97.16C116.159 97.16 115.503 96.984 114.916 96.632C114.329 96.2693 113.865 95.784 113.524 95.176C113.183 94.5573 113.012 93.864 113.012 93.096C113.012 92.328 113.172 91.64 113.492 91.032C113.823 90.424 114.265 89.944 114.82 89.592C115.375 89.24 115.993 89.064 116.676 89.064C117.369 89.064 117.983 89.24 118.516 89.592C119.06 89.9333 119.487 90.4027 119.796 91C120.116 91.5867 120.276 92.2533 120.276 93V93.352H114.148C114.191 93.8853 114.335 94.3653 114.58 94.792C114.836 95.208 115.167 95.5387 115.572 95.784C115.988 96.0187 116.441 96.136 116.932 96.136C117.337 96.136 117.727 96.0667 118.1 95.928C118.484 95.7787 118.809 95.5813 119.076 95.336L119.812 96.12C119.364 96.472 118.9 96.7333 118.42 96.904C117.94 97.0747 117.428 97.16 116.884 97.16ZM114.18 92.52H119.124C119.071 92.0507 118.927 91.6347 118.692 91.272C118.468 90.8987 118.18 90.6053 117.828 90.392C117.487 90.1787 117.103 90.072 116.676 90.072C116.249 90.072 115.86 90.1787 115.508 90.392C115.156 90.5947 114.863 90.8827 114.628 91.256C114.404 91.6187 114.255 92.04 114.18 92.52ZM125.518 97.112C124.846 97.112 124.238 96.936 123.694 96.584C123.15 96.2213 122.718 95.7413 122.398 95.144C122.078 94.536 121.918 93.8587 121.918 93.112C121.918 92.3547 122.078 91.6773 122.398 91.08C122.729 90.472 123.172 89.992 123.726 89.64C124.281 89.2773 124.9 89.096 125.582 89.096C126.062 89.096 126.51 89.192 126.926 89.384C127.342 89.5653 127.705 89.832 128.014 90.184V85.448L129.182 85.208V97H128.014V95.96C127.716 96.3333 127.353 96.6213 126.926 96.824C126.5 97.016 126.03 97.112 125.518 97.112ZM125.806 96.088C126.265 96.088 126.686 95.9973 127.07 95.816C127.454 95.6347 127.769 95.3787 128.014 95.048V91.176C127.758 90.8453 127.433 90.5893 127.038 90.408C126.654 90.216 126.244 90.12 125.806 90.12C125.284 90.12 124.814 90.248 124.398 90.504C123.993 90.76 123.668 91.112 123.422 91.56C123.188 92.008 123.07 92.52 123.07 93.096C123.07 93.6613 123.188 94.1733 123.422 94.632C123.668 95.08 123.993 95.4373 124.398 95.704C124.814 95.96 125.284 96.088 125.806 96.088ZM135.525 97V85.8H136.757V90.808H143.189V85.8H144.421V97H143.189V91.912H136.757V97H135.525ZM149.296 97.144C148.741 97.144 148.25 97.0427 147.824 96.84C147.397 96.6373 147.061 96.36 146.816 96.008C146.581 95.6453 146.464 95.2293 146.464 94.76C146.464 94.2907 146.586 93.8853 146.832 93.544C147.077 93.192 147.418 92.92 147.856 92.728C148.293 92.536 148.805 92.44 149.392 92.44C149.84 92.44 150.261 92.488 150.656 92.584C151.061 92.68 151.434 92.8347 151.776 93.048V91.976C151.776 91.336 151.605 90.856 151.264 90.536C150.922 90.2053 150.421 90.04 149.76 90.04C149.397 90.04 149.024 90.0933 148.64 90.2C148.266 90.3067 147.85 90.4773 147.392 90.712L146.96 89.816C148.005 89.3147 148.986 89.064 149.904 89.064C150.874 89.064 151.621 89.304 152.144 89.784C152.666 90.2533 152.928 90.9307 152.928 91.816V97H151.776V96.088C151.434 96.44 151.056 96.7067 150.64 96.888C150.224 97.0587 149.776 97.144 149.296 97.144ZM147.584 94.728C147.584 95.1867 147.76 95.5547 148.112 95.832C148.474 96.1093 148.949 96.248 149.536 96.248C149.973 96.248 150.373 96.1733 150.736 96.024C151.109 95.8747 151.456 95.6507 151.776 95.352V93.848C151.445 93.656 151.104 93.5173 150.752 93.432C150.4 93.336 150.005 93.288 149.568 93.288C148.97 93.288 148.49 93.4213 148.128 93.688C147.765 93.944 147.584 94.2907 147.584 94.728ZM158.043 97.16C157.371 97.16 156.859 97 156.507 96.68C156.166 96.3493 155.995 95.8747 155.995 95.256V90.152H154.379V89.192H155.995V87.048L157.163 86.776V89.192H159.403V90.152H157.163V94.952C157.163 95.368 157.249 95.6667 157.419 95.848C157.601 96.0293 157.894 96.12 158.299 96.12C158.502 96.12 158.683 96.104 158.843 96.072C159.003 96.04 159.19 95.9867 159.403 95.912V96.952C159.19 97.0267 158.966 97.08 158.731 97.112C158.497 97.144 158.267 97.16 158.043 97.16ZM164.848 100.344V89.192H166V90.312C166.299 89.9173 166.662 89.6187 167.088 89.416C167.526 89.2027 168.006 89.096 168.528 89.096C169.211 89.096 169.819 89.2773 170.352 89.64C170.896 89.992 171.328 90.472 171.648 91.08C171.968 91.6773 172.128 92.3493 172.128 93.096C172.128 93.8427 171.963 94.52 171.632 95.128C171.312 95.736 170.875 96.2213 170.32 96.584C169.776 96.936 169.158 97.112 168.464 97.112C167.974 97.112 167.52 97.0213 167.104 96.84C166.688 96.648 166.326 96.376 166.016 96.024V100.344H164.848ZM168.24 96.104C168.763 96.104 169.227 95.976 169.632 95.72C170.048 95.4533 170.374 95.096 170.608 94.648C170.854 94.1893 170.976 93.6773 170.976 93.112C170.976 92.536 170.854 92.024 170.608 91.576C170.374 91.128 170.048 90.776 169.632 90.52C169.227 90.2533 168.763 90.12 168.24 90.12C167.782 90.12 167.355 90.216 166.96 90.408C166.576 90.5893 166.262 90.8507 166.016 91.192V95.016C166.272 95.3573 166.592 95.624 166.976 95.816C167.371 96.008 167.792 96.104 168.24 96.104ZM174.177 97V89.192H175.345V90.792C175.547 90.248 175.835 89.8267 176.209 89.528C176.593 89.2187 177.03 89.064 177.521 89.064C177.659 89.064 177.787 89.0747 177.905 89.096C178.022 89.1067 178.139 89.1333 178.257 89.176V90.232C178.129 90.1893 177.99 90.1573 177.841 90.136C177.702 90.104 177.569 90.088 177.441 90.088C176.961 90.088 176.539 90.2267 176.177 90.504C175.825 90.7813 175.547 91.1707 175.345 91.672V97H174.177ZM182.773 97.128C182.048 97.128 181.397 96.952 180.821 96.6C180.245 96.248 179.792 95.768 179.461 95.16C179.131 94.552 178.965 93.864 178.965 93.096C178.965 92.328 179.131 91.64 179.461 91.032C179.792 90.424 180.245 89.944 180.821 89.592C181.397 89.24 182.048 89.064 182.773 89.064C183.488 89.064 184.128 89.24 184.693 89.592C185.269 89.944 185.723 90.424 186.053 91.032C186.384 91.64 186.549 92.328 186.549 93.096C186.549 93.864 186.384 94.552 186.053 95.16C185.723 95.768 185.269 96.248 184.693 96.6C184.128 96.952 183.488 97.128 182.773 97.128ZM182.757 96.104C183.269 96.104 183.723 95.976 184.117 95.72C184.512 95.4533 184.821 95.0907 185.045 94.632C185.28 94.1733 185.397 93.6613 185.397 93.096C185.397 92.52 185.28 92.008 185.045 91.56C184.821 91.1013 184.512 90.744 184.117 90.488C183.723 90.2213 183.269 90.088 182.757 90.088C182.245 90.088 181.792 90.2213 181.397 90.488C181.003 90.744 180.688 91.1013 180.453 91.56C180.229 92.008 180.117 92.52 180.117 93.096C180.117 93.6613 180.229 94.1733 180.453 94.632C180.688 95.0907 181.003 95.4533 181.397 95.72C181.792 95.976 182.245 96.104 182.757 96.104ZM191.846 97.112C191.174 97.112 190.566 96.936 190.022 96.584C189.478 96.2213 189.046 95.7413 188.726 95.144C188.406 94.536 188.246 93.8587 188.246 93.112C188.246 92.3547 188.406 91.6773 188.726 91.08C189.057 90.472 189.5 89.992 190.054 89.64C190.609 89.2773 191.228 89.096 191.91 89.096C192.39 89.096 192.838 89.192 193.254 89.384C193.67 89.5653 194.033 89.832 194.342 90.184V85.448L195.51 85.208V97H194.342V95.96C194.044 96.3333 193.681 96.6213 193.254 96.824C192.828 97.016 192.358 97.112 191.846 97.112ZM192.134 96.088C192.593 96.088 193.014 95.9973 193.398 95.816C193.782 95.6347 194.097 95.3787 194.342 95.048V91.176C194.086 90.8453 193.761 90.5893 193.366 90.408C192.982 90.216 192.572 90.12 192.134 90.12C191.612 90.12 191.142 90.248 190.726 90.504C190.321 90.76 189.996 91.112 189.75 91.56C189.516 92.008 189.398 92.52 189.398 93.096C189.398 93.6613 189.516 94.1733 189.75 94.632C189.996 95.08 190.321 95.4373 190.726 95.704C191.142 95.96 191.612 96.088 192.134 96.088ZM200.695 97.128C200.14 97.128 199.65 97.0053 199.223 96.76C198.796 96.5147 198.46 96.1733 198.215 95.736C197.98 95.2987 197.863 94.7973 197.863 94.232V89.192H199.047V93.896C199.047 94.5893 199.234 95.1387 199.607 95.544C199.98 95.9493 200.487 96.152 201.127 96.152C201.564 96.152 201.954 96.0507 202.295 95.848C202.647 95.6453 202.94 95.352 203.175 94.968V89.192H204.343V97H203.175V95.736C202.876 96.1947 202.519 96.5413 202.103 96.776C201.698 97.0107 201.228 97.128 200.695 97.128ZM210.243 97.128C209.518 97.128 208.862 96.952 208.275 96.6C207.699 96.2373 207.24 95.752 206.899 95.144C206.558 94.5253 206.387 93.8427 206.387 93.096C206.387 92.3387 206.558 91.656 206.899 91.048C207.24 90.44 207.699 89.96 208.275 89.608C208.862 89.2453 209.518 89.064 210.243 89.064C210.819 89.064 211.368 89.1707 211.891 89.384C212.414 89.5973 212.867 89.896 213.251 90.28L212.499 91.096C212.222 90.7867 211.886 90.5467 211.491 90.376C211.096 90.2053 210.696 90.12 210.291 90.12C209.779 90.12 209.315 90.2533 208.899 90.52C208.494 90.7867 208.168 91.144 207.923 91.592C207.678 92.04 207.555 92.5413 207.555 93.096C207.555 93.6507 207.678 94.152 207.923 94.6C208.168 95.048 208.494 95.4053 208.899 95.672C209.315 95.9387 209.779 96.072 210.291 96.072C210.696 96.072 211.096 95.9867 211.491 95.816C211.886 95.6347 212.222 95.3947 212.499 95.096L213.251 95.912C212.867 96.296 212.414 96.5947 211.891 96.808C211.368 97.0213 210.819 97.128 210.243 97.128ZM218.012 97.16C217.34 97.16 216.828 97 216.476 96.68C216.135 96.3493 215.964 95.8747 215.964 95.256V90.152H214.348V89.192H215.964V87.048L217.132 86.776V89.192H219.372V90.152H217.132V94.952C217.132 95.368 217.217 95.6667 217.388 95.848C217.569 96.0293 217.863 96.12 218.268 96.12C218.471 96.12 218.652 96.104 218.812 96.072C218.972 96.04 219.159 95.9867 219.372 95.912V96.952C219.159 97.0267 218.935 97.08 218.7 97.112C218.465 97.144 218.236 97.16 218.012 97.16ZM223.655 97.16C223.015 97.16 222.423 97.064 221.879 96.872C221.335 96.6693 220.871 96.3813 220.487 96.008L221.111 95.24C221.58 95.5813 222.012 95.832 222.407 95.992C222.802 96.1413 223.207 96.216 223.623 96.216C224.188 96.216 224.658 96.0827 225.031 95.816C225.404 95.5493 225.591 95.208 225.591 94.792C225.591 94.472 225.479 94.2213 225.255 94.04C225.042 93.8587 224.684 93.72 224.183 93.624L222.903 93.4C222.146 93.2613 221.586 93.0267 221.223 92.696C220.871 92.3653 220.695 91.9173 220.695 91.352C220.695 90.904 220.812 90.5093 221.047 90.168C221.292 89.8267 221.628 89.56 222.055 89.368C222.482 89.1653 222.967 89.064 223.511 89.064C224.044 89.064 224.551 89.144 225.031 89.304C225.511 89.4533 225.996 89.6987 226.487 90.04L225.911 90.856C225.506 90.568 225.1 90.36 224.695 90.232C224.29 90.0933 223.879 90.024 223.463 90.024C222.951 90.024 222.54 90.136 222.231 90.36C221.922 90.584 221.767 90.888 221.767 91.272C221.767 91.592 221.863 91.8373 222.055 92.008C222.258 92.1787 222.61 92.3067 223.111 92.392L224.423 92.632C225.212 92.7707 225.788 93.0107 226.151 93.352C226.514 93.6933 226.695 94.152 226.695 94.728C226.695 95.1867 226.562 95.6027 226.295 95.976C226.028 96.3387 225.666 96.6267 225.207 96.84C224.748 97.0533 224.231 97.16 223.655 97.16Z" fill="#151515"/>
<rect opacity="0.5" x="0.5" y="103.5" width="287" height="23" stroke="#B300B3" stroke-dasharray="4 4"/>
<rect opacity="0.5" y="280" width="288" height="24" fill="#FCE3E3"/>
<path d="M120.264 211.396C118.464 211.396 116.868 211.084 115.476 210.46C114.108 209.836 113.028 208.972 112.236 207.868C111.444 206.764 111.048 205.504 111.048 204.088C111.048 203.104 111.276 202.192 111.732 201.352C112.212 200.512 112.872 199.78 113.712 199.156C114.576 198.532 115.548 198.088 116.628 197.824C115.236 197.392 114.108 196.66 113.244 195.628C112.38 194.596 111.948 193.444 111.948 192.172C111.948 190.876 112.308 189.724 113.028 188.716C113.772 187.684 114.768 186.88 116.016 186.304C117.264 185.704 118.68 185.404 120.264 185.404C121.848 185.404 123.264 185.704 124.512 186.304C125.784 186.88 126.78 187.684 127.5 188.716C128.22 189.724 128.58 190.876 128.58 192.172C128.58 193.444 128.148 194.596 127.284 195.628C126.42 196.66 125.292 197.392 123.9 197.824C125.556 198.256 126.9 199.048 127.932 200.2C128.964 201.328 129.48 202.624 129.48 204.088C129.48 205.504 129.084 206.764 128.292 207.868C127.524 208.972 126.444 209.836 125.052 210.46C123.66 211.084 122.064 211.396 120.264 211.396ZM120.264 196.492C121.2 196.492 122.04 196.312 122.784 195.952C123.528 195.592 124.116 195.1 124.548 194.476C124.98 193.852 125.196 193.156 125.196 192.388C125.196 191.596 124.98 190.888 124.548 190.264C124.116 189.616 123.528 189.124 122.784 188.788C122.04 188.428 121.2 188.248 120.264 188.248C119.328 188.248 118.488 188.428 117.744 188.788C117 189.124 116.412 189.604 115.98 190.228C115.548 190.852 115.332 191.56 115.332 192.352C115.332 193.144 115.548 193.852 115.98 194.476C116.412 195.1 117 195.592 117.744 195.952C118.488 196.312 119.328 196.492 120.264 196.492ZM120.264 208.552C121.368 208.552 122.352 208.36 123.216 207.976C124.08 207.568 124.764 207.016 125.268 206.32C125.772 205.6 126.024 204.796 126.024 203.908C126.024 203.02 125.772 202.228 125.268 201.532C124.764 200.812 124.08 200.26 123.216 199.876C122.352 199.468 121.368 199.264 120.264 199.264C119.16 199.264 118.176 199.468 117.312 199.876C116.448 200.284 115.764 200.836 115.26 201.532C114.756 202.228 114.504 203.02 114.504 203.908C114.504 204.796 114.756 205.6 115.26 206.32C115.764 207.016 116.448 207.568 117.312 207.976C118.176 208.36 119.16 208.552 120.264 208.552ZM133.16 211V208.48L143.384 197.608C144.08 196.888 144.62 196.24 145.004 195.664C145.388 195.088 145.652 194.548 145.796 194.044C145.964 193.516 146.048 192.964 146.048 192.388C146.048 191.26 145.592 190.324 144.68 189.58C143.768 188.836 142.616 188.464 141.224 188.464C140.072 188.464 138.992 188.692 137.984 189.148C136.976 189.604 135.86 190.396 134.636 191.524L132.692 189.148C134.036 187.9 135.416 186.964 136.832 186.34C138.272 185.716 139.76 185.404 141.296 185.404C142.904 185.404 144.32 185.692 145.544 186.268C146.768 186.844 147.716 187.648 148.388 188.68C149.084 189.688 149.432 190.852 149.432 192.172C149.432 193.012 149.324 193.792 149.108 194.512C148.892 195.208 148.52 195.952 147.992 196.744C147.464 197.512 146.72 198.4 145.76 199.408L137.552 208.048L149.936 208.012V211H133.16ZM157.773 198.58C156.117 198.58 154.785 197.98 153.777 196.78C152.769 195.58 152.265 194.02 152.265 192.1C152.265 190.156 152.769 188.596 153.777 187.42C154.785 186.22 156.117 185.62 157.773 185.62C159.405 185.62 160.725 186.22 161.733 187.42C162.741 188.596 163.257 190.156 163.281 192.1C163.257 194.02 162.741 195.58 161.733 196.78C160.725 197.98 159.405 198.58 157.773 198.58ZM157.773 196.528C158.757 196.528 159.537 196.132 160.113 195.34C160.689 194.524 160.977 193.444 160.977 192.1C160.977 190.732 160.689 189.652 160.113 188.86C159.537 188.044 158.757 187.636 157.773 187.636C156.789 187.636 156.009 188.044 155.433 188.86C154.881 189.652 154.593 190.732 154.569 192.1C154.593 193.444 154.881 194.524 155.433 195.34C156.009 196.132 156.789 196.528 157.773 196.528ZM156.477 211L170.661 185.8H173.505L159.285 211H156.477ZM172.389 211.18C170.733 211.18 169.401 210.58 168.393 209.38C167.385 208.18 166.881 206.62 166.881 204.7C166.881 202.756 167.385 201.196 168.393 200.02C169.401 198.82 170.733 198.22 172.389 198.22C174.021 198.22 175.341 198.82 176.349 200.02C177.357 201.196 177.873 202.756 177.897 204.7C177.873 206.62 177.357 208.18 176.349 209.38C175.341 210.58 174.021 211.18 172.389 211.18ZM172.389 209.128C173.373 209.128 174.153 208.732 174.729 207.94C175.305 207.124 175.593 206.044 175.593 204.7C175.593 203.332 175.305 202.252 174.729 201.46C174.153 200.644 173.373 200.236 172.389 200.236C171.405 200.236 170.625 200.644 170.049 201.46C169.497 202.252 169.209 203.332 169.185 204.7C169.209 206.044 169.497 207.124 170.049 207.94C170.625 208.732 171.405 209.128 172.389 209.128Z" fill="#EE0000"/>
<path d="M17.4051 248.16C16.7651 248.16 16.1731 248.064 15.6291 247.872C15.0851 247.669 14.6211 247.381 14.2371 247.008L14.8611 246.24C15.3304 246.581 15.7624 246.832 16.1571 246.992C16.5517 247.141 16.9571 247.216 17.3731 247.216C17.9384 247.216 18.4077 247.083 18.7811 246.816C19.1544 246.549 19.3411 246.208 19.3411 245.792C19.3411 245.472 19.2291 245.221 19.0051 245.04C18.7917 244.859 18.4344 244.72 17.9331 244.624L16.6531 244.4C15.8957 244.261 15.3357 244.027 14.9731 243.696C14.6211 243.365 14.4451 242.917 14.4451 242.352C14.4451 241.904 14.5624 241.509 14.7971 241.168C15.0424 240.827 15.3784 240.56 15.8051 240.368C16.2317 240.165 16.7171 240.064 17.2611 240.064C17.7944 240.064 18.3011 240.144 18.7811 240.304C19.2611 240.453 19.7464 240.699 20.2371 241.04L19.6611 241.856C19.2557 241.568 18.8504 241.36 18.4451 241.232C18.0397 241.093 17.6291 241.024 17.2131 241.024C16.7011 241.024 16.2904 241.136 15.9811 241.36C15.6717 241.584 15.5171 241.888 15.5171 242.272C15.5171 242.592 15.6131 242.837 15.8051 243.008C16.0077 243.179 16.3597 243.307 16.8611 243.392L18.1731 243.632C18.9624 243.771 19.5384 244.011 19.9011 244.352C20.2637 244.693 20.4451 245.152 20.4451 245.728C20.4451 246.187 20.3117 246.603 20.0451 246.976C19.7784 247.339 19.4157 247.627 18.9571 247.84C18.4984 248.053 17.9811 248.16 17.4051 248.16ZM25.0432 248.16C24.3712 248.16 23.8592 248 23.5072 247.68C23.1659 247.349 22.9952 246.875 22.9952 246.256V241.152H21.3792V240.192H22.9952V238.048L24.1632 237.776V240.192H26.4032V241.152H24.1632V245.952C24.1632 246.368 24.2485 246.667 24.4192 246.848C24.6005 247.029 24.8939 247.12 25.2992 247.12C25.5019 247.12 25.6832 247.104 25.8432 247.072C26.0032 247.04 26.1899 246.987 26.4032 246.912V247.952C26.1899 248.027 25.9659 248.08 25.7312 248.112C25.4965 248.144 25.2672 248.16 25.0432 248.16ZM28.0981 248V240.192H29.2661V248H28.0981ZM28.6901 238.256C28.4554 238.256 28.2527 238.176 28.0821 238.016C27.9221 237.845 27.8421 237.648 27.8421 237.424C27.8421 237.2 27.9221 237.008 28.0821 236.848C28.2527 236.677 28.4554 236.592 28.6901 236.592C28.9247 236.592 29.1221 236.677 29.2821 236.848C29.4527 237.008 29.5381 237.2 29.5381 237.424C29.5381 237.648 29.4527 237.845 29.2821 238.016C29.1221 238.176 28.9247 238.256 28.6901 238.256ZM31.6609 248V240.192H32.8289V241.408C33.1276 240.96 33.4689 240.624 33.8529 240.4C34.2369 240.176 34.6689 240.064 35.1489 240.064C35.7036 240.064 36.1889 240.203 36.6049 240.48C37.0209 240.747 37.3356 241.115 37.5489 241.584C37.8583 241.083 38.2263 240.704 38.6529 240.448C39.0903 240.192 39.5916 240.064 40.1569 240.064C40.6796 240.064 41.1383 240.187 41.5329 240.432C41.9383 240.677 42.2529 241.019 42.4769 241.456C42.7009 241.883 42.8129 242.384 42.8129 242.96V248H41.6449V243.248C41.6449 242.565 41.4743 242.027 41.1329 241.632C40.7916 241.237 40.3223 241.04 39.7249 241.04C39.3196 241.04 38.9516 241.141 38.6209 241.344C38.3009 241.547 38.0183 241.856 37.7729 242.272C37.7943 242.379 37.8103 242.491 37.8209 242.608C37.8316 242.725 37.8369 242.843 37.8369 242.96V248H36.6689V243.248C36.6689 242.565 36.4929 242.027 36.1409 241.632C35.7996 241.237 35.3303 241.04 34.7329 241.04C33.9329 241.04 33.2983 241.424 32.8289 242.192V248H31.6609ZM45.1766 248V240.192H46.3446V241.408C46.6432 240.96 46.9846 240.624 47.3686 240.4C47.7526 240.176 48.1846 240.064 48.6646 240.064C49.2192 240.064 49.7046 240.203 50.1206 240.48C50.5366 240.747 50.8512 241.115 51.0646 241.584C51.3739 241.083 51.7419 240.704 52.1686 240.448C52.6059 240.192 53.1072 240.064 53.6726 240.064C54.1952 240.064 54.6539 240.187 55.0486 240.432C55.4539 240.677 55.7686 241.019 55.9926 241.456C56.2166 241.883 56.3286 242.384 56.3286 242.96V248H55.1606V243.248C55.1606 242.565 54.9899 242.027 54.6486 241.632C54.3072 241.237 53.8379 241.04 53.2406 241.04C52.8352 241.04 52.4672 241.141 52.1366 241.344C51.8166 241.547 51.5339 241.856 51.2886 242.272C51.3099 242.379 51.3259 242.491 51.3366 242.608C51.3472 242.725 51.3526 242.843 51.3526 242.96V248H50.1846V243.248C50.1846 242.565 50.0086 242.027 49.6566 241.632C49.3152 241.237 48.8459 241.04 48.2486 241.04C47.4486 241.04 46.8139 241.424 46.3446 242.192V248H45.1766ZM62.2122 248.16C61.4869 248.16 60.8309 247.984 60.2442 247.632C59.6575 247.269 59.1935 246.784 58.8522 246.176C58.5109 245.557 58.3402 244.864 58.3402 244.096C58.3402 243.328 58.5002 242.64 58.8202 242.032C59.1509 241.424 59.5935 240.944 60.1482 240.592C60.7029 240.24 61.3215 240.064 62.0042 240.064C62.6975 240.064 63.3109 240.24 63.8442 240.592C64.3882 240.933 64.8149 241.403 65.1242 242C65.4442 242.587 65.6042 243.253 65.6042 244V244.352H59.4762C59.5189 244.885 59.6629 245.365 59.9082 245.792C60.1642 246.208 60.4949 246.539 60.9002 246.784C61.3162 247.019 61.7695 247.136 62.2602 247.136C62.6655 247.136 63.0549 247.067 63.4282 246.928C63.8122 246.779 64.1375 246.581 64.4042 246.336L65.1402 247.12C64.6922 247.472 64.2282 247.733 63.7482 247.904C63.2682 248.075 62.7562 248.16 62.2122 248.16ZM59.5082 243.52H64.4522C64.3989 243.051 64.2549 242.635 64.0202 242.272C63.7962 241.899 63.5082 241.605 63.1562 241.392C62.8149 241.179 62.4309 241.072 62.0042 241.072C61.5775 241.072 61.1882 241.179 60.8362 241.392C60.4842 241.595 60.1909 241.883 59.9562 242.256C59.7322 242.619 59.5829 243.04 59.5082 243.52ZM67.5984 248V240.192H68.7664V241.456C69.0651 240.987 69.4224 240.64 69.8384 240.416C70.2544 240.181 70.7238 240.064 71.2464 240.064C71.8118 240.064 72.3024 240.187 72.7184 240.432C73.1451 240.667 73.4758 241.003 73.7104 241.44C73.9558 241.867 74.0784 242.368 74.0784 242.944V248H72.9104V243.28C72.9104 242.587 72.7184 242.043 72.3344 241.648C71.9611 241.243 71.4544 241.04 70.8144 241.04C70.3878 241.04 69.9984 241.141 69.6464 241.344C69.2944 241.547 69.0011 241.845 68.7664 242.24V248H67.5984ZM79.6169 248V247.072L84.1129 241.248L79.6649 241.264V240.192H85.5369V241.104L81.0249 246.96L85.6009 246.944V248H79.6169ZM90.2887 248.128C89.734 248.128 89.2434 248.005 88.8167 247.76C88.39 247.515 88.054 247.173 87.8087 246.736C87.574 246.299 87.4567 245.797 87.4567 245.232V240.192H88.6407V244.896C88.6407 245.589 88.8274 246.139 89.2007 246.544C89.574 246.949 90.0807 247.152 90.7207 247.152C91.158 247.152 91.5474 247.051 91.8887 246.848C92.2407 246.645 92.534 246.352 92.7687 245.968V240.192H93.9367V248H92.7687V246.736C92.47 247.195 92.1127 247.541 91.6967 247.776C91.2914 248.011 90.822 248.128 90.2887 248.128ZM95.9328 250.512L96.8928 246.816H98.1408L96.8448 250.512H95.9328ZM107.315 248.112C106.643 248.112 106.035 247.936 105.491 247.584C104.947 247.221 104.515 246.741 104.195 246.144C103.875 245.536 103.715 244.859 103.715 244.112C103.715 243.355 103.875 242.677 104.195 242.08C104.526 241.472 104.969 240.992 105.523 240.64C106.078 240.277 106.697 240.096 107.379 240.096C107.859 240.096 108.307 240.192 108.723 240.384C109.139 240.565 109.502 240.832 109.811 241.184V236.448L110.979 236.208V248H109.811V246.96C109.513 247.333 109.15 247.621 108.723 247.824C108.297 248.016 107.827 248.112 107.315 248.112ZM107.603 247.088C108.062 247.088 108.483 246.997 108.867 246.816C109.251 246.635 109.566 246.379 109.811 246.048V242.176C109.555 241.845 109.23 241.589 108.835 241.408C108.451 241.216 108.041 241.12 107.603 241.12C107.081 241.12 106.611 241.248 106.195 241.504C105.79 241.76 105.465 242.112 105.219 242.56C104.985 243.008 104.867 243.52 104.867 244.096C104.867 244.661 104.985 245.173 105.219 245.632C105.465 246.08 105.79 246.437 106.195 246.704C106.611 246.96 107.081 247.088 107.603 247.088ZM115.796 248.144C115.241 248.144 114.75 248.043 114.324 247.84C113.897 247.637 113.561 247.36 113.316 247.008C113.081 246.645 112.964 246.229 112.964 245.76C112.964 245.291 113.086 244.885 113.332 244.544C113.577 244.192 113.918 243.92 114.356 243.728C114.793 243.536 115.305 243.44 115.892 243.44C116.34 243.44 116.761 243.488 117.156 243.584C117.561 243.68 117.934 243.835 118.276 244.048V242.976C118.276 242.336 118.105 241.856 117.764 241.536C117.422 241.205 116.921 241.04 116.26 241.04C115.897 241.04 115.524 241.093 115.14 241.2C114.766 241.307 114.35 241.477 113.892 241.712L113.46 240.816C114.505 240.315 115.486 240.064 116.404 240.064C117.374 240.064 118.121 240.304 118.644 240.784C119.166 241.253 119.428 241.931 119.428 242.816V248H118.276V247.088C117.934 247.44 117.556 247.707 117.14 247.888C116.724 248.059 116.276 248.144 115.796 248.144ZM114.084 245.728C114.084 246.187 114.26 246.555 114.612 246.832C114.974 247.109 115.449 247.248 116.036 247.248C116.473 247.248 116.873 247.173 117.236 247.024C117.609 246.875 117.956 246.651 118.276 246.352V244.848C117.945 244.656 117.604 244.517 117.252 244.432C116.9 244.336 116.505 244.288 116.068 244.288C115.47 244.288 114.99 244.421 114.628 244.688C114.265 244.944 114.084 245.291 114.084 245.728ZM124.218 248.16C123.578 248.16 122.986 248.064 122.442 247.872C121.898 247.669 121.434 247.381 121.05 247.008L121.674 246.24C122.143 246.581 122.575 246.832 122.97 246.992C123.364 247.141 123.77 247.216 124.186 247.216C124.751 247.216 125.22 247.083 125.594 246.816C125.967 246.549 126.154 246.208 126.154 245.792C126.154 245.472 126.042 245.221 125.818 245.04C125.604 244.859 125.247 244.72 124.746 244.624L123.466 244.4C122.708 244.261 122.148 244.027 121.786 243.696C121.434 243.365 121.258 242.917 121.258 242.352C121.258 241.904 121.375 241.509 121.61 241.168C121.855 240.827 122.191 240.56 122.618 240.368C123.044 240.165 123.53 240.064 124.074 240.064C124.607 240.064 125.114 240.144 125.594 240.304C126.074 240.453 126.559 240.699 127.05 241.04L126.474 241.856C126.068 241.568 125.663 241.36 125.258 241.232C124.852 241.093 124.442 241.024 124.026 241.024C123.514 241.024 123.103 241.136 122.794 241.36C122.484 241.584 122.33 241.888 122.33 242.272C122.33 242.592 122.426 242.837 122.618 243.008C122.82 243.179 123.172 243.307 123.674 243.392L124.986 243.632C125.775 243.771 126.351 244.011 126.714 244.352C127.076 244.693 127.258 245.152 127.258 245.728C127.258 246.187 127.124 246.603 126.858 246.976C126.591 247.339 126.228 247.627 125.77 247.84C125.311 248.053 124.794 248.16 124.218 248.16ZM131.452 248.16C130.812 248.16 130.22 248.064 129.676 247.872C129.132 247.669 128.668 247.381 128.284 247.008L128.908 246.24C129.377 246.581 129.809 246.832 130.204 246.992C130.599 247.141 131.004 247.216 131.42 247.216C131.985 247.216 132.455 247.083 132.828 246.816C133.201 246.549 133.388 246.208 133.388 245.792C133.388 245.472 133.276 245.221 133.052 245.04C132.839 244.859 132.481 244.72 131.98 244.624L130.7 244.4C129.943 244.261 129.383 244.027 129.02 243.696C128.668 243.365 128.492 242.917 128.492 242.352C128.492 241.904 128.609 241.509 128.844 241.168C129.089 240.827 129.425 240.56 129.852 240.368C130.279 240.165 130.764 240.064 131.308 240.064C131.841 240.064 132.348 240.144 132.828 240.304C133.308 240.453 133.793 240.699 134.284 241.04L133.708 241.856C133.303 241.568 132.897 241.36 132.492 241.232C132.087 241.093 131.676 241.024 131.26 241.024C130.748 241.024 130.337 241.136 130.028 241.36C129.719 241.584 129.564 241.888 129.564 242.272C129.564 242.592 129.66 242.837 129.852 243.008C130.055 243.179 130.407 243.307 130.908 243.392L132.22 243.632C133.009 243.771 133.585 244.011 133.948 244.352C134.311 244.693 134.492 245.152 134.492 245.728C134.492 246.187 134.359 246.603 134.092 246.976C133.825 247.339 133.463 247.627 133.004 247.84C132.545 248.053 132.028 248.16 131.452 248.16ZM140.229 248V236.8H144.821C145.535 236.8 146.159 236.939 146.693 237.216C147.226 237.483 147.642 237.856 147.941 238.336C148.239 238.816 148.389 239.381 148.389 240.032C148.389 240.779 148.181 241.419 147.765 241.952C147.349 242.475 146.778 242.843 146.053 243.056L148.437 248H147.077L144.805 243.216H141.461V248H140.229ZM141.461 242.192H144.725C145.461 242.192 146.047 242 146.485 241.616C146.933 241.221 147.157 240.699 147.157 240.048C147.157 239.387 146.933 238.864 146.485 238.48C146.047 238.085 145.461 237.888 144.725 237.888H141.461V242.192ZM150.572 248V236.8H151.804V241.808H158.236V236.8H159.468V248H158.236V242.912H151.804V248H150.572ZM162.307 248V236.8H163.539V246.912H169.859V248H162.307ZM175.642 248.176C174.767 248.176 173.956 248.021 173.21 247.712C172.463 247.392 171.743 246.912 171.05 246.272L171.802 245.376C172.474 246.005 173.103 246.453 173.69 246.72C174.287 246.987 174.948 247.12 175.674 247.12C176.25 247.12 176.762 247.024 177.21 246.832C177.668 246.629 178.026 246.357 178.282 246.016C178.538 245.675 178.666 245.285 178.666 244.848C178.666 244.283 178.479 243.856 178.106 243.568C177.732 243.269 177.087 243.04 176.17 242.88L174.362 242.576C173.338 242.395 172.586 242.085 172.106 241.648C171.636 241.2 171.402 240.603 171.402 239.856C171.402 239.227 171.562 238.672 171.882 238.192C172.212 237.701 172.666 237.317 173.242 237.04C173.818 236.763 174.484 236.624 175.242 236.624C176.074 236.624 176.847 236.741 177.562 236.976C178.276 237.2 178.98 237.557 179.674 238.048L179.034 239.008C178.458 238.571 177.85 238.24 177.21 238.016C176.57 237.781 175.919 237.664 175.258 237.664C174.735 237.664 174.271 237.755 173.866 237.936C173.471 238.117 173.156 238.363 172.922 238.672C172.698 238.981 172.586 239.333 172.586 239.728C172.586 240.219 172.751 240.603 173.082 240.88C173.412 241.157 173.951 241.355 174.698 241.472L176.49 241.776C177.684 241.989 178.548 242.336 179.082 242.816C179.626 243.285 179.898 243.941 179.898 244.784C179.898 245.435 179.711 246.016 179.338 246.528C178.975 247.04 178.474 247.445 177.834 247.744C177.194 248.032 176.463 248.176 175.642 248.176ZM189.025 248.16C188.299 248.16 187.643 247.984 187.057 247.632C186.47 247.269 186.006 246.784 185.665 246.176C185.323 245.557 185.153 244.864 185.153 244.096C185.153 243.328 185.313 242.64 185.633 242.032C185.963 241.424 186.406 240.944 186.961 240.592C187.515 240.24 188.134 240.064 188.817 240.064C189.51 240.064 190.123 240.24 190.657 240.592C191.201 240.933 191.627 241.403 191.937 242C192.257 242.587 192.417 243.253 192.417 244V244.352H186.289C186.331 244.885 186.475 245.365 186.721 245.792C186.977 246.208 187.307 246.539 187.713 246.784C188.129 247.019 188.582 247.136 189.073 247.136C189.478 247.136 189.867 247.067 190.241 246.928C190.625 246.779 190.95 246.581 191.217 246.336L191.953 247.12C191.505 247.472 191.041 247.733 190.561 247.904C190.081 248.075 189.569 248.16 189.025 248.16ZM186.321 243.52H191.265C191.211 243.051 191.067 242.635 190.833 242.272C190.609 241.899 190.321 241.605 189.969 241.392C189.627 241.179 189.243 241.072 188.817 241.072C188.39 241.072 188.001 241.179 187.649 241.392C187.297 241.595 187.003 241.883 186.769 242.256C186.545 242.619 186.395 243.04 186.321 243.52ZM194.395 248V240.192H195.563V248H194.395ZM194.987 238.256C194.752 238.256 194.55 238.176 194.379 238.016C194.219 237.845 194.139 237.648 194.139 237.424C194.139 237.2 194.219 237.008 194.379 236.848C194.55 236.677 194.752 236.592 194.987 236.592C195.222 236.592 195.419 236.677 195.579 236.848C195.75 237.008 195.835 237.2 195.835 237.424C195.835 237.648 195.75 237.845 195.579 238.016C195.419 238.176 195.222 238.256 194.987 238.256ZM197.958 248V240.192H199.126V241.456C199.424 240.987 199.782 240.64 200.198 240.416C200.614 240.181 201.083 240.064 201.606 240.064C202.171 240.064 202.662 240.187 203.078 240.432C203.504 240.667 203.835 241.003 204.07 241.44C204.315 241.867 204.438 242.368 204.438 242.944V248H203.27V243.28C203.27 242.587 203.078 242.043 202.694 241.648C202.32 241.243 201.814 241.04 201.174 241.04C200.747 241.04 200.358 241.141 200.006 241.344C199.654 241.547 199.36 241.845 199.126 242.24V248H197.958ZM211.912 248L209.768 240.192H210.904L212.536 246.432L214.408 240.192H215.448L217.32 246.432L218.936 240.192H220.04L217.912 248H216.776L214.92 241.696L213.064 248H211.912ZM221.676 248V240.192H222.844V248H221.676ZM222.268 238.256C222.034 238.256 221.831 238.176 221.66 238.016C221.5 237.845 221.42 237.648 221.42 237.424C221.42 237.2 221.5 237.008 221.66 236.848C221.831 236.677 222.034 236.592 222.268 236.592C222.503 236.592 222.7 236.677 222.86 236.848C223.031 237.008 223.116 237.2 223.116 237.424C223.116 237.648 223.031 237.845 222.86 238.016C222.7 238.176 222.503 238.256 222.268 238.256ZM228.743 248.128C228.018 248.128 227.362 247.952 226.775 247.6C226.199 247.237 225.74 246.752 225.399 246.144C225.058 245.525 224.887 244.843 224.887 244.096C224.887 243.339 225.058 242.656 225.399 242.048C225.74 241.44 226.199 240.96 226.775 240.608C227.362 240.245 228.018 240.064 228.743 240.064C229.319 240.064 229.868 240.171 230.391 240.384C230.914 240.597 231.367 240.896 231.751 241.28L230.999 242.096C230.722 241.787 230.386 241.547 229.991 241.376C229.596 241.205 229.196 241.12 228.791 241.12C228.279 241.12 227.815 241.253 227.399 241.52C226.994 241.787 226.668 242.144 226.423 242.592C226.178 243.04 226.055 243.541 226.055 244.096C226.055 244.651 226.178 245.152 226.423 245.6C226.668 246.048 226.994 246.405 227.399 246.672C227.815 246.939 228.279 247.072 228.791 247.072C229.196 247.072 229.596 246.987 229.991 246.816C230.386 246.635 230.722 246.395 230.999 246.096L231.751 246.912C231.367 247.296 230.914 247.595 230.391 247.808C229.868 248.021 229.319 248.128 228.743 248.128ZM233.38 248V236.448L234.548 236.208V241.456C234.846 240.987 235.204 240.64 235.62 240.416C236.036 240.181 236.505 240.064 237.028 240.064C237.593 240.064 238.084 240.187 238.5 240.432C238.926 240.667 239.257 241.003 239.492 241.44C239.737 241.867 239.86 242.368 239.86 242.944V248H238.692V243.28C238.692 242.587 238.5 242.043 238.116 241.648C237.742 241.243 237.236 241.04 236.596 241.04C236.169 241.04 235.78 241.141 235.428 241.344C235.076 241.547 234.782 241.845 234.548 242.24V248H233.38ZM244.949 248.16C244.277 248.16 243.765 248 243.413 247.68C243.072 247.349 242.901 246.875 242.901 246.256V241.152H241.285V240.192H242.901V238.048L244.069 237.776V240.192H246.309V241.152H244.069V245.952C244.069 246.368 244.155 246.667 244.325 246.848C244.507 247.029 244.8 247.12 245.205 247.12C245.408 247.12 245.589 247.104 245.749 247.072C245.909 247.04 246.096 246.987 246.309 246.912V247.952C246.096 248.027 245.872 248.08 245.637 248.112C245.403 248.144 245.173 248.16 244.949 248.16ZM248.004 248V240.192H249.172V248H248.004ZM248.596 238.256C248.362 238.256 248.159 238.176 247.988 238.016C247.828 237.845 247.748 237.648 247.748 237.424C247.748 237.2 247.828 237.008 247.988 236.848C248.159 236.677 248.362 236.592 248.596 236.592C248.831 236.592 249.028 236.677 249.188 236.848C249.359 237.008 249.444 237.2 249.444 237.424C249.444 237.648 249.359 237.845 249.188 238.016C249.028 238.176 248.831 238.256 248.596 238.256ZM255.183 251.504C254.661 251.504 254.133 251.429 253.599 251.28C253.077 251.141 252.591 250.944 252.143 250.688L252.639 249.792C253.119 250.037 253.557 250.219 253.951 250.336C254.346 250.453 254.741 250.512 255.135 250.512C255.85 250.512 256.389 250.341 256.751 250C257.125 249.659 257.311 249.163 257.311 248.512V246.944C257.013 247.317 256.65 247.605 256.223 247.808C255.797 248 255.327 248.096 254.815 248.096C254.143 248.096 253.535 247.92 252.991 247.568C252.447 247.205 252.015 246.725 251.695 246.128C251.375 245.52 251.215 244.843 251.215 244.096C251.215 243.349 251.375 242.677 251.695 242.08C252.026 241.472 252.469 240.992 253.023 240.64C253.578 240.277 254.197 240.096 254.879 240.096C255.37 240.096 255.823 240.192 256.239 240.384C256.655 240.565 257.018 240.837 257.327 241.2V240.192H258.479V248.496C258.479 249.467 258.197 250.208 257.631 250.72C257.066 251.243 256.25 251.504 255.183 251.504ZM255.103 247.088C255.562 247.088 255.983 246.997 256.367 246.816C256.751 246.624 257.066 246.363 257.311 246.032V242.176C257.055 241.845 256.73 241.589 256.335 241.408C255.951 241.216 255.541 241.12 255.103 241.12C254.581 241.12 254.111 241.248 253.695 241.504C253.29 241.76 252.965 242.112 252.719 242.56C252.485 243.008 252.367 243.52 252.367 244.096C252.367 244.661 252.485 245.173 252.719 245.632C252.965 246.08 253.29 246.437 253.695 246.704C254.111 246.96 254.581 247.088 255.103 247.088ZM264.4 248.16C263.674 248.16 263.018 247.984 262.432 247.632C261.845 247.269 261.381 246.784 261.04 246.176C260.698 245.557 260.528 244.864 260.528 244.096C260.528 243.328 260.688 242.64 261.008 242.032C261.338 241.424 261.781 240.944 262.336 240.592C262.89 240.24 263.509 240.064 264.192 240.064C264.885 240.064 265.498 240.24 266.032 240.592C266.576 240.933 267.002 241.403 267.312 242C267.632 242.587 267.792 243.253 267.792 244V244.352H261.664C261.706 244.885 261.85 245.365 262.096 245.792C262.352 246.208 262.682 246.539 263.088 246.784C263.504 247.019 263.957 247.136 264.448 247.136C264.853 247.136 265.242 247.067 265.616 246.928C266 246.779 266.325 246.581 266.592 246.336L267.328 247.12C266.88 247.472 266.416 247.733 265.936 247.904C265.456 248.075 264.944 248.16 264.4 248.16ZM261.696 243.52H266.64C266.586 243.051 266.442 242.635 266.208 242.272C265.984 241.899 265.696 241.605 265.344 241.392C265.002 241.179 264.618 241.072 264.192 241.072C263.765 241.072 263.376 241.179 263.024 241.392C262.672 241.595 262.378 241.883 262.144 242.256C261.92 242.619 261.77 243.04 261.696 243.52ZM269.786 248V240.192H270.954V241.792C271.157 241.248 271.445 240.827 271.818 240.528C272.202 240.219 272.639 240.064 273.13 240.064C273.269 240.064 273.397 240.075 273.514 240.096C273.631 240.107 273.749 240.133 273.866 240.176V241.232C273.738 241.189 273.599 241.157 273.45 241.136C273.311 241.104 273.178 241.088 273.05 241.088C272.57 241.088 272.149 241.227 271.786 241.504C271.434 241.781 271.157 242.171 270.954 242.672V248H269.786ZM23.424 272V260.8H31.072V261.888H24.656V265.888H29.04V266.96H24.656V272H23.424ZM34.3348 272.144C33.7801 272.144 33.2894 272.043 32.8628 271.84C32.4361 271.637 32.1001 271.36 31.8548 271.008C31.6201 270.645 31.5028 270.229 31.5028 269.76C31.5028 269.291 31.6254 268.885 31.8708 268.544C32.1161 268.192 32.4574 267.92 32.8948 267.728C33.3321 267.536 33.8441 267.44 34.4308 267.44C34.8788 267.44 35.3001 267.488 35.6948 267.584C36.1001 267.68 36.4734 267.835 36.8148 268.048V266.976C36.8148 266.336 36.6441 265.856 36.3028 265.536C35.9614 265.205 35.4601 265.04 34.7988 265.04C34.4361 265.04 34.0628 265.093 33.6788 265.2C33.3054 265.307 32.8894 265.477 32.4308 265.712L31.9988 264.816C33.0441 264.315 34.0254 264.064 34.9427 264.064C35.9134 264.064 36.6601 264.304 37.1828 264.784C37.7054 265.253 37.9668 265.931 37.9668 266.816V272H36.8148V271.088C36.4734 271.44 36.0948 271.707 35.6788 271.888C35.2628 272.059 34.8148 272.144 34.3348 272.144ZM32.6228 269.728C32.6228 270.187 32.7988 270.555 33.1508 270.832C33.5134 271.109 33.9881 271.248 34.5748 271.248C35.0121 271.248 35.4121 271.173 35.7748 271.024C36.1481 270.875 36.4948 270.651 36.8148 270.352V268.848C36.4841 268.656 36.1428 268.517 35.7908 268.432C35.4388 268.336 35.0441 268.288 34.6068 268.288C34.0094 268.288 33.5294 268.421 33.1668 268.688C32.8041 268.944 32.6228 269.291 32.6228 269.728ZM40.3406 272V260.448L41.5086 260.208V267.696L45.2206 264.192H46.6286L42.6606 267.904L46.8046 272H45.2686L41.5086 268.272V272H40.3406ZM50.9885 272.16C50.3165 272.16 49.8045 272 49.4525 271.68C49.1112 271.349 48.9405 270.875 48.9405 270.256V265.152H47.3245V264.192H48.9405V262.048L50.1085 261.776V264.192H52.3485V265.152H50.1085V269.952C50.1085 270.368 50.1938 270.667 50.3645 270.848C50.5458 271.029 50.8392 271.12 51.2445 271.12C51.4472 271.12 51.6285 271.104 51.7885 271.072C51.9485 271.04 52.1352 270.987 52.3485 270.912V271.952C52.1352 272.027 51.9112 272.08 51.6765 272.112C51.4418 272.144 51.2125 272.16 50.9885 272.16ZM57.3591 272.128C56.6338 272.128 55.9831 271.952 55.4071 271.6C54.8311 271.248 54.3778 270.768 54.0471 270.16C53.7165 269.552 53.5511 268.864 53.5511 268.096C53.5511 267.328 53.7165 266.64 54.0471 266.032C54.3778 265.424 54.8311 264.944 55.4071 264.592C55.9831 264.24 56.6338 264.064 57.3591 264.064C58.0738 264.064 58.7138 264.24 59.2791 264.592C59.8551 264.944 60.3085 265.424 60.6391 266.032C60.9698 266.64 61.1351 267.328 61.1351 268.096C61.1351 268.864 60.9698 269.552 60.6391 270.16C60.3085 270.768 59.8551 271.248 59.2791 271.6C58.7138 271.952 58.0738 272.128 57.3591 272.128ZM57.3431 271.104C57.8551 271.104 58.3085 270.976 58.7031 270.72C59.0978 270.453 59.4071 270.091 59.6311 269.632C59.8658 269.173 59.9831 268.661 59.9831 268.096C59.9831 267.52 59.8658 267.008 59.6311 266.56C59.4071 266.101 59.0978 265.744 58.7031 265.488C58.3085 265.221 57.8551 265.088 57.3431 265.088C56.8311 265.088 56.3778 265.221 55.9831 265.488C55.5885 265.744 55.2738 266.101 55.0391 266.56C54.8151 267.008 54.7031 267.52 54.7031 268.096C54.7031 268.661 54.8151 269.173 55.0391 269.632C55.2738 270.091 55.5885 270.453 55.9831 270.72C56.3778 270.976 56.8311 271.104 57.3431 271.104ZM63.1844 272V264.192H64.3524V265.792C64.555 265.248 64.843 264.827 65.2164 264.528C65.6004 264.219 66.0377 264.064 66.5284 264.064C66.667 264.064 66.795 264.075 66.9124 264.096C67.0297 264.107 67.147 264.133 67.2644 264.176V265.232C67.1364 265.189 66.9977 265.157 66.8484 265.136C66.7097 265.104 66.5764 265.088 66.4484 265.088C65.9684 265.088 65.547 265.227 65.1844 265.504C64.8324 265.781 64.555 266.171 64.3524 266.672V272H63.1844ZM73.5358 272V265.152H71.7918V264.192H73.5358V262.56C73.5358 261.792 73.7384 261.2 74.1438 260.784C74.5491 260.368 75.1251 260.16 75.8718 260.16C76.0851 260.16 76.2771 260.171 76.4478 260.192C76.6291 260.213 76.7891 260.251 76.9278 260.304V261.36C76.7571 261.307 76.6024 261.269 76.4638 261.248C76.3251 261.227 76.1651 261.216 75.9838 261.216C75.5358 261.216 75.2104 261.328 75.0078 261.552C74.8051 261.765 74.7038 262.107 74.7038 262.576V264.192H76.9278V265.152H74.7038V272H73.5358ZM81.2496 272.128C80.695 272.128 80.2043 272.005 79.7776 271.76C79.351 271.515 79.015 271.173 78.7696 270.736C78.535 270.299 78.4176 269.797 78.4176 269.232V264.192H79.6016V268.896C79.6016 269.589 79.7883 270.139 80.1616 270.544C80.535 270.949 81.0416 271.152 81.6816 271.152C82.119 271.152 82.5083 271.051 82.8496 270.848C83.2016 270.645 83.495 270.352 83.7296 269.968V264.192H84.8976V272H83.7296V270.736C83.431 271.195 83.0736 271.541 82.6576 271.776C82.2523 272.011 81.783 272.128 81.2496 272.128ZM80.2736 262.256C80.039 262.256 79.8363 262.176 79.6656 262.016C79.5056 261.845 79.4256 261.648 79.4256 261.424C79.4256 261.2 79.5056 261.008 79.6656 260.848C79.8363 260.677 80.039 260.592 80.2736 260.592C80.5083 260.592 80.7056 260.677 80.8656 260.848C81.0363 261.008 81.1216 261.2 81.1216 261.424C81.1216 261.648 81.0363 261.845 80.8656 262.016C80.7056 262.176 80.5083 262.256 80.2736 262.256ZM83.0896 262.256C82.855 262.256 82.6523 262.176 82.4816 262.016C82.3216 261.845 82.2416 261.648 82.2416 261.424C82.2416 261.2 82.3216 261.008 82.4816 260.848C82.6523 260.677 82.855 260.592 83.0896 260.592C83.3243 260.592 83.5216 260.677 83.6816 260.848C83.8523 261.008 83.9376 261.2 83.9376 261.424C83.9376 261.648 83.8523 261.845 83.6816 262.016C83.5216 262.176 83.3243 262.256 83.0896 262.256ZM87.2938 272V264.192H88.4618V265.792C88.6644 265.248 88.9524 264.827 89.3258 264.528C89.7098 264.219 90.1471 264.064 90.6378 264.064C90.7764 264.064 90.9044 264.075 91.0218 264.096C91.1391 264.107 91.2564 264.133 91.3738 264.176V265.232C91.2458 265.189 91.1071 265.157 90.9578 265.136C90.8191 265.104 90.6858 265.088 90.5578 265.088C90.0778 265.088 89.6564 265.227 89.2938 265.504C88.9418 265.781 88.6644 266.171 88.4618 266.672V272H87.2938ZM96.6371 272V264.192H97.8051V272H96.6371ZM97.2291 262.256C96.9945 262.256 96.7918 262.176 96.6211 262.016C96.4611 261.845 96.3811 261.648 96.3811 261.424C96.3811 261.2 96.4611 261.008 96.6211 260.848C96.7918 260.677 96.9945 260.592 97.2291 260.592C97.4638 260.592 97.6611 260.677 97.8211 260.848C97.9918 261.008 98.0771 261.2 98.0771 261.424C98.0771 261.648 97.9918 261.845 97.8211 262.016C97.6611 262.176 97.4638 262.256 97.2291 262.256ZM100.2 272V260.448L101.368 260.208V265.456C101.667 264.987 102.024 264.64 102.44 264.416C102.856 264.181 103.325 264.064 103.848 264.064C104.413 264.064 104.904 264.187 105.32 264.432C105.747 264.667 106.077 265.003 106.312 265.44C106.557 265.867 106.68 266.368 106.68 266.944V272H105.512V267.28C105.512 266.587 105.32 266.043 104.936 265.648C104.563 265.243 104.056 265.04 103.416 265.04C102.989 265.04 102.6 265.141 102.248 265.344C101.896 265.547 101.603 265.845 101.368 266.24V272H100.2ZM109.028 272V264.192H110.196V265.792C110.399 265.248 110.687 264.827 111.06 264.528C111.444 264.219 111.881 264.064 112.372 264.064C112.511 264.064 112.639 264.075 112.756 264.096C112.873 264.107 112.991 264.133 113.108 264.176V265.232C112.98 265.189 112.841 265.157 112.692 265.136C112.553 265.104 112.42 265.088 112.292 265.088C111.812 265.088 111.391 265.227 111.028 265.504C110.676 265.781 110.399 266.171 110.196 266.672V272H109.028ZM117.689 272.16C116.963 272.16 116.307 271.984 115.721 271.632C115.134 271.269 114.67 270.784 114.329 270.176C113.987 269.557 113.817 268.864 113.817 268.096C113.817 267.328 113.977 266.64 114.297 266.032C114.627 265.424 115.07 264.944 115.625 264.592C116.179 264.24 116.798 264.064 117.481 264.064C118.174 264.064 118.787 264.24 119.321 264.592C119.865 264.933 120.291 265.403 120.601 266C120.921 266.587 121.081 267.253 121.081 268V268.352H114.953C114.995 268.885 115.139 269.365 115.385 269.792C115.641 270.208 115.971 270.539 116.377 270.784C116.793 271.019 117.246 271.136 117.737 271.136C118.142 271.136 118.531 271.067 118.905 270.928C119.289 270.779 119.614 270.581 119.881 270.336L120.617 271.12C120.169 271.472 119.705 271.733 119.225 271.904C118.745 272.075 118.233 272.16 117.689 272.16ZM114.985 267.52H119.929C119.875 267.051 119.731 266.635 119.497 266.272C119.273 265.899 118.985 265.605 118.633 265.392C118.291 265.179 117.907 265.072 117.481 265.072C117.054 265.072 116.665 265.179 116.313 265.392C115.961 265.595 115.667 265.883 115.433 266.256C115.209 266.619 115.059 267.04 114.985 267.52ZM123.075 272V264.192H124.243V265.456C124.542 264.987 124.899 264.64 125.315 264.416C125.731 264.181 126.2 264.064 126.723 264.064C127.288 264.064 127.779 264.187 128.195 264.432C128.622 264.667 128.952 265.003 129.187 265.44C129.432 265.867 129.555 266.368 129.555 266.944V272H128.387V267.28C128.387 266.587 128.195 266.043 127.811 265.648C127.438 265.243 126.931 265.04 126.291 265.04C125.864 265.04 125.475 265.141 125.123 265.344C124.771 265.547 124.478 265.845 124.243 266.24V272H123.075ZM135.862 272V260.8H143.51V261.888H137.094V265.808H141.542V266.88H137.094V270.912H143.574V272H135.862ZM145.544 272V264.192H146.712V265.792C146.914 265.248 147.202 264.827 147.576 264.528C147.96 264.219 148.397 264.064 148.888 264.064C149.026 264.064 149.154 264.075 149.272 264.096C149.389 264.107 149.506 264.133 149.624 264.176V265.232C149.496 265.189 149.357 265.157 149.208 265.136C149.069 265.104 148.936 265.088 148.808 265.088C148.328 265.088 147.906 265.227 147.544 265.504C147.192 265.781 146.914 266.171 146.712 266.672V272H145.544ZM152.161 272V265.152H150.417V264.192H152.161V262.56C152.161 261.792 152.363 261.2 152.769 260.784C153.174 260.368 153.75 260.16 154.497 260.16C154.71 260.16 154.902 260.171 155.073 260.192C155.254 260.213 155.414 260.251 155.553 260.304V261.36C155.382 261.307 155.227 261.269 155.089 261.248C154.95 261.227 154.79 261.216 154.609 261.216C154.161 261.216 153.835 261.328 153.633 261.552C153.43 261.765 153.329 262.107 153.329 262.576V264.192H155.553V265.152H153.329V272H152.161ZM160.219 272.128C159.493 272.128 158.843 271.952 158.267 271.6C157.691 271.248 157.237 270.768 156.907 270.16C156.576 269.552 156.411 268.864 156.411 268.096C156.411 267.328 156.576 266.64 156.907 266.032C157.237 265.424 157.691 264.944 158.267 264.592C158.843 264.24 159.493 264.064 160.219 264.064C160.933 264.064 161.573 264.24 162.139 264.592C162.715 264.944 163.168 265.424 163.499 266.032C163.829 266.64 163.995 267.328 163.995 268.096C163.995 268.864 163.829 269.552 163.499 270.16C163.168 270.768 162.715 271.248 162.139 271.6C161.573 271.952 160.933 272.128 160.219 272.128ZM160.203 271.104C160.715 271.104 161.168 270.976 161.563 270.72C161.957 270.453 162.267 270.091 162.491 269.632C162.725 269.173 162.843 268.661 162.843 268.096C162.843 267.52 162.725 267.008 162.491 266.56C162.267 266.101 161.957 265.744 161.563 265.488C161.168 265.221 160.715 265.088 160.203 265.088C159.691 265.088 159.237 265.221 158.843 265.488C158.448 265.744 158.133 266.101 157.899 266.56C157.675 267.008 157.562 267.52 157.562 268.096C157.562 268.661 157.675 269.173 157.899 269.632C158.133 270.091 158.448 270.453 158.843 270.72C159.237 270.976 159.691 271.104 160.203 271.104ZM166.044 272V260.448L167.212 260.208V272H166.044ZM173.222 275.504C172.7 275.504 172.172 275.429 171.638 275.28C171.116 275.141 170.63 274.944 170.182 274.688L170.678 273.792C171.158 274.037 171.596 274.219 171.99 274.336C172.385 274.453 172.78 274.512 173.174 274.512C173.889 274.512 174.428 274.341 174.79 274C175.164 273.659 175.35 273.163 175.35 272.512V270.944C175.052 271.317 174.689 271.605 174.262 271.808C173.836 272 173.366 272.096 172.854 272.096C172.182 272.096 171.574 271.92 171.03 271.568C170.486 271.205 170.054 270.725 169.734 270.128C169.414 269.52 169.254 268.843 169.254 268.096C169.254 267.349 169.414 266.677 169.734 266.08C170.065 265.472 170.508 264.992 171.062 264.64C171.617 264.277 172.236 264.096 172.918 264.096C173.409 264.096 173.862 264.192 174.278 264.384C174.694 264.565 175.057 264.837 175.366 265.2V264.192H176.518V272.496C176.518 273.467 176.236 274.208 175.67 274.72C175.105 275.243 174.289 275.504 173.222 275.504ZM173.142 271.088C173.601 271.088 174.022 270.997 174.406 270.816C174.79 270.624 175.105 270.363 175.35 270.032V266.176C175.094 265.845 174.769 265.589 174.374 265.408C173.99 265.216 173.58 265.12 173.142 265.12C172.62 265.12 172.15 265.248 171.734 265.504C171.329 265.76 171.004 266.112 170.758 266.56C170.524 267.008 170.406 267.52 170.406 268.096C170.406 268.661 170.524 269.173 170.758 269.632C171.004 270.08 171.329 270.437 171.734 270.704C172.15 270.96 172.62 271.088 173.142 271.088ZM182.653 272V264.192H183.821V265.408C184.12 264.96 184.461 264.624 184.845 264.4C185.229 264.176 185.661 264.064 186.141 264.064C186.696 264.064 187.181 264.203 187.597 264.48C188.013 264.747 188.328 265.115 188.541 265.584C188.85 265.083 189.218 264.704 189.645 264.448C190.082 264.192 190.584 264.064 191.149 264.064C191.672 264.064 192.13 264.187 192.525 264.432C192.93 264.677 193.245 265.019 193.469 265.456C193.693 265.883 193.805 266.384 193.805 266.96V272H192.637V267.248C192.637 266.565 192.466 266.027 192.125 265.632C191.784 265.237 191.314 265.04 190.717 265.04C190.312 265.04 189.944 265.141 189.613 265.344C189.293 265.547 189.01 265.856 188.765 266.272C188.786 266.379 188.802 266.491 188.813 266.608C188.824 266.725 188.829 266.843 188.829 266.96V272H187.661V267.248C187.661 266.565 187.485 266.027 187.133 265.632C186.792 265.237 186.322 265.04 185.725 265.04C184.925 265.04 184.29 265.424 183.821 266.192V272H182.653ZM196.153 272V264.192H197.321V272H196.153ZM196.745 262.256C196.51 262.256 196.307 262.176 196.137 262.016C195.977 261.845 195.897 261.648 195.897 261.424C195.897 261.2 195.977 261.008 196.137 260.848C196.307 260.677 196.51 260.592 196.745 260.592C196.979 260.592 197.177 260.677 197.337 260.848C197.507 261.008 197.593 261.2 197.593 261.424C197.593 261.648 197.507 261.845 197.337 262.016C197.177 262.176 196.979 262.256 196.745 262.256ZM202.692 272.16C202.02 272.16 201.508 272 201.156 271.68C200.814 271.349 200.644 270.875 200.644 270.256V265.152H199.028V264.192H200.644V262.048L201.812 261.776V264.192H204.052V265.152H201.812V269.952C201.812 270.368 201.897 270.667 202.068 270.848C202.249 271.029 202.542 271.12 202.948 271.12C203.15 271.12 203.332 271.104 203.492 271.072C203.652 271.04 203.838 270.987 204.052 270.912V271.952C203.838 272.027 203.614 272.08 203.38 272.112C203.145 272.144 202.916 272.16 202.692 272.16ZM209.721 272V260.8H214.313C215.028 260.8 215.652 260.939 216.185 261.216C216.718 261.483 217.134 261.856 217.433 262.336C217.732 262.816 217.881 263.381 217.881 264.032C217.881 264.779 217.673 265.419 217.257 265.952C216.841 266.475 216.27 266.843 215.545 267.056L217.929 272H216.569L214.297 267.216H210.953V272H209.721ZM210.953 266.192H214.217C214.953 266.192 215.54 266 215.977 265.616C216.425 265.221 216.649 264.699 216.649 264.048C216.649 263.387 216.425 262.864 215.977 262.48C215.54 262.085 214.953 261.888 214.217 261.888H210.953V266.192ZM222.97 272.16C222.245 272.16 221.589 271.984 221.002 271.632C220.415 271.269 219.951 270.784 219.61 270.176C219.269 269.557 219.098 268.864 219.098 268.096C219.098 267.328 219.258 266.64 219.578 266.032C219.909 265.424 220.351 264.944 220.906 264.592C221.461 264.24 222.079 264.064 222.762 264.064C223.455 264.064 224.069 264.24 224.602 264.592C225.146 264.933 225.573 265.403 225.882 266C226.202 266.587 226.362 267.253 226.362 268V268.352H220.234C220.277 268.885 220.421 269.365 220.666 269.792C220.922 270.208 221.253 270.539 221.658 270.784C222.074 271.019 222.527 271.136 223.018 271.136C223.423 271.136 223.813 271.067 224.186 270.928C224.57 270.779 224.895 270.581 225.162 270.336L225.898 271.12C225.45 271.472 224.986 271.733 224.506 271.904C224.026 272.075 223.514 272.16 222.97 272.16ZM220.266 267.52H225.21C225.157 267.051 225.013 266.635 224.778 266.272C224.554 265.899 224.266 265.605 223.914 265.392C223.573 265.179 223.189 265.072 222.762 265.072C222.335 265.072 221.946 265.179 221.594 265.392C221.242 265.595 220.949 265.883 220.714 266.256C220.49 266.619 220.341 267.04 220.266 267.52ZM231.604 272.112C230.932 272.112 230.324 271.936 229.78 271.584C229.236 271.221 228.804 270.741 228.484 270.144C228.164 269.536 228.004 268.859 228.004 268.112C228.004 267.355 228.164 266.677 228.484 266.08C228.815 265.472 229.258 264.992 229.812 264.64C230.367 264.277 230.986 264.096 231.668 264.096C232.148 264.096 232.596 264.192 233.012 264.384C233.428 264.565 233.791 264.832 234.1 265.184V260.448L235.268 260.208V272H234.1V270.96C233.802 271.333 233.439 271.621 233.012 271.824C232.586 272.016 232.116 272.112 231.604 272.112ZM231.892 271.088C232.351 271.088 232.772 270.997 233.156 270.816C233.54 270.635 233.855 270.379 234.1 270.048V266.176C233.844 265.845 233.519 265.589 233.124 265.408C232.74 265.216 232.33 265.12 231.892 265.12C231.37 265.12 230.9 265.248 230.484 265.504C230.079 265.76 229.754 266.112 229.508 266.56C229.274 267.008 229.156 267.52 229.156 268.096C229.156 268.661 229.274 269.173 229.508 269.632C229.754 270.08 230.079 270.437 230.484 270.704C230.9 270.96 231.37 271.088 231.892 271.088ZM241.611 272V260.8H242.843V265.808H249.275V260.8H250.507V272H249.275V266.912H242.843V272H241.611ZM255.382 272.144C254.827 272.144 254.336 272.043 253.91 271.84C253.483 271.637 253.147 271.36 252.902 271.008C252.667 270.645 252.55 270.229 252.55 269.76C252.55 269.291 252.672 268.885 252.918 268.544C253.163 268.192 253.504 267.92 253.942 267.728C254.379 267.536 254.891 267.44 255.478 267.44C255.926 267.44 256.347 267.488 256.742 267.584C257.147 267.68 257.52 267.835 257.862 268.048V266.976C257.862 266.336 257.691 265.856 257.35 265.536C257.008 265.205 256.507 265.04 255.846 265.04C255.483 265.04 255.11 265.093 254.726 265.2C254.352 265.307 253.936 265.477 253.478 265.712L253.046 264.816C254.091 264.315 255.072 264.064 255.99 264.064C256.96 264.064 257.707 264.304 258.23 264.784C258.752 265.253 259.014 265.931 259.014 266.816V272H257.862V271.088C257.52 271.44 257.142 271.707 256.726 271.888C256.31 272.059 255.862 272.144 255.382 272.144ZM253.67 269.728C253.67 270.187 253.846 270.555 254.198 270.832C254.56 271.109 255.035 271.248 255.622 271.248C256.059 271.248 256.459 271.173 256.822 271.024C257.195 270.875 257.542 270.651 257.862 270.352V268.848C257.531 268.656 257.19 268.517 256.838 268.432C256.486 268.336 256.091 268.288 255.654 268.288C255.056 268.288 254.576 268.421 254.214 268.688C253.851 268.944 253.67 269.291 253.67 269.728ZM264.129 272.16C263.457 272.16 262.945 272 262.593 271.68C262.252 271.349 262.081 270.875 262.081 270.256V265.152H260.465V264.192H262.081V262.048L263.249 261.776V264.192H265.489V265.152H263.249V269.952C263.249 270.368 263.334 270.667 263.505 270.848C263.686 271.029 263.98 271.12 264.385 271.12C264.588 271.12 264.769 271.104 264.929 271.072C265.089 271.04 265.276 270.987 265.489 270.912V271.952C265.276 272.027 265.052 272.08 264.817 272.112C264.582 272.144 264.353 272.16 264.129 272.16ZM98.0959 296V284.8H102.72C103.445 284.8 104.075 284.939 104.608 285.216C105.141 285.483 105.552 285.867 105.84 286.368C106.139 286.859 106.288 287.44 106.288 288.112C106.288 288.773 106.139 289.355 105.84 289.856C105.552 290.357 105.141 290.747 104.608 291.024C104.075 291.291 103.445 291.424 102.72 291.424H99.3279V296H98.0959ZM99.3279 290.368H102.576C103.355 290.368 103.963 290.165 104.4 289.76C104.837 289.355 105.056 288.805 105.056 288.112C105.056 287.419 104.837 286.875 104.4 286.48C103.963 286.085 103.355 285.888 102.576 285.888H99.3279V290.368ZM108.263 296V288.192H109.431V289.792C109.633 289.248 109.921 288.827 110.295 288.528C110.679 288.219 111.116 288.064 111.607 288.064C111.745 288.064 111.873 288.075 111.991 288.096C112.108 288.107 112.225 288.133 112.343 288.176V289.232C112.215 289.189 112.076 289.157 111.927 289.136C111.788 289.104 111.655 289.088 111.527 289.088C111.047 289.088 110.625 289.227 110.263 289.504C109.911 289.781 109.633 290.171 109.431 290.672V296H108.263ZM116.859 296.128C116.134 296.128 115.483 295.952 114.907 295.6C114.331 295.248 113.878 294.768 113.547 294.16C113.216 293.552 113.051 292.864 113.051 292.096C113.051 291.328 113.216 290.64 113.547 290.032C113.878 289.424 114.331 288.944 114.907 288.592C115.483 288.24 116.134 288.064 116.859 288.064C117.574 288.064 118.214 288.24 118.779 288.592C119.355 288.944 119.808 289.424 120.139 290.032C120.47 290.64 120.635 291.328 120.635 292.096C120.635 292.864 120.47 293.552 120.139 294.16C119.808 294.768 119.355 295.248 118.779 295.6C118.214 295.952 117.574 296.128 116.859 296.128ZM116.843 295.104C117.355 295.104 117.808 294.976 118.203 294.72C118.598 294.453 118.907 294.091 119.131 293.632C119.366 293.173 119.483 292.661 119.483 292.096C119.483 291.52 119.366 291.008 119.131 290.56C118.907 290.101 118.598 289.744 118.203 289.488C117.808 289.221 117.355 289.088 116.843 289.088C116.331 289.088 115.878 289.221 115.483 289.488C115.088 289.744 114.774 290.101 114.539 290.56C114.315 291.008 114.203 291.52 114.203 292.096C114.203 292.661 114.315 293.173 114.539 293.632C114.774 294.091 115.088 294.453 115.483 294.72C115.878 294.976 116.331 295.104 116.843 295.104ZM125.932 296.112C125.26 296.112 124.652 295.936 124.108 295.584C123.564 295.221 123.132 294.741 122.812 294.144C122.492 293.536 122.332 292.859 122.332 292.112C122.332 291.355 122.492 290.677 122.812 290.08C123.143 289.472 123.586 288.992 124.14 288.64C124.695 288.277 125.314 288.096 125.996 288.096C126.476 288.096 126.924 288.192 127.34 288.384C127.756 288.565 128.119 288.832 128.428 289.184V284.448L129.596 284.208V296H128.428V294.96C128.13 295.333 127.767 295.621 127.34 295.824C126.914 296.016 126.444 296.112 125.932 296.112ZM126.22 295.088C126.679 295.088 127.1 294.997 127.484 294.816C127.868 294.635 128.183 294.379 128.428 294.048V290.176C128.172 289.845 127.847 289.589 127.452 289.408C127.068 289.216 126.658 289.12 126.22 289.12C125.698 289.12 125.228 289.248 124.812 289.504C124.407 289.76 124.082 290.112 123.836 290.56C123.602 291.008 123.484 291.52 123.484 292.096C123.484 292.661 123.602 293.173 123.836 293.632C124.082 294.08 124.407 294.437 124.812 294.704C125.228 294.96 125.698 295.088 126.22 295.088ZM134.781 296.128C134.226 296.128 133.736 296.005 133.309 295.76C132.882 295.515 132.546 295.173 132.301 294.736C132.066 294.299 131.949 293.797 131.949 293.232V288.192H133.133V292.896C133.133 293.589 133.32 294.139 133.693 294.544C134.066 294.949 134.573 295.152 135.213 295.152C135.65 295.152 136.04 295.051 136.381 294.848C136.733 294.645 137.026 294.352 137.261 293.968V288.192H138.429V296H137.261V294.736C136.962 295.195 136.605 295.541 136.189 295.776C135.784 296.011 135.314 296.128 134.781 296.128ZM140.825 296V284.448L141.993 284.208V291.696L145.705 288.192H147.113L143.145 291.904L147.289 296H145.753L141.993 292.272V296H140.825ZM151.473 296.16C150.801 296.16 150.289 296 149.937 295.68C149.596 295.349 149.425 294.875 149.425 294.256V289.152H147.809V288.192H149.425V286.048L150.593 285.776V288.192H152.833V289.152H150.593V293.952C150.593 294.368 150.678 294.667 150.849 294.848C151.03 295.029 151.324 295.12 151.729 295.12C151.932 295.12 152.113 295.104 152.273 295.072C152.433 295.04 152.62 294.987 152.833 294.912V295.952C152.62 296.027 152.396 296.08 152.161 296.112C151.926 296.144 151.697 296.16 151.473 296.16ZM157.908 296.16C157.182 296.16 156.526 295.984 155.94 295.632C155.353 295.269 154.889 294.784 154.548 294.176C154.206 293.557 154.036 292.864 154.036 292.096C154.036 291.328 154.196 290.64 154.516 290.032C154.846 289.424 155.289 288.944 155.844 288.592C156.398 288.24 157.017 288.064 157.7 288.064C158.393 288.064 159.006 288.24 159.54 288.592C160.084 288.933 160.51 289.403 160.82 290C161.14 290.587 161.3 291.253 161.3 292V292.352H155.172C155.214 292.885 155.358 293.365 155.604 293.792C155.86 294.208 156.19 294.539 156.596 294.784C157.012 295.019 157.465 295.136 157.956 295.136C158.361 295.136 158.75 295.067 159.124 294.928C159.508 294.779 159.833 294.581 160.1 294.336L160.836 295.12C160.388 295.472 159.924 295.733 159.444 295.904C158.964 296.075 158.452 296.16 157.908 296.16ZM155.204 291.52H160.148C160.094 291.051 159.95 290.635 159.716 290.272C159.492 289.899 159.204 289.605 158.852 289.392C158.51 289.179 158.126 289.072 157.7 289.072C157.273 289.072 156.884 289.179 156.532 289.392C156.18 289.595 155.886 289.883 155.652 290.256C155.428 290.619 155.278 291.04 155.204 291.52ZM163.294 296V288.192H164.462V289.456C164.76 288.987 165.118 288.64 165.534 288.416C165.95 288.181 166.419 288.064 166.942 288.064C167.507 288.064 167.998 288.187 168.414 288.432C168.84 288.667 169.171 289.003 169.406 289.44C169.651 289.867 169.774 290.368 169.774 290.944V296H168.606V291.28C168.606 290.587 168.414 290.043 168.03 289.648C167.656 289.243 167.15 289.04 166.51 289.04C166.083 289.04 165.694 289.141 165.342 289.344C164.99 289.547 164.696 289.845 164.462 290.24V296H163.294ZM175.84 296V288.192H177.008V296H175.84ZM176.432 286.256C176.198 286.256 175.995 286.176 175.824 286.016C175.664 285.845 175.584 285.648 175.584 285.424C175.584 285.2 175.664 285.008 175.824 284.848C175.995 284.677 176.198 284.592 176.432 284.592C176.667 284.592 176.864 284.677 177.024 284.848C177.195 285.008 177.28 285.2 177.28 285.424C177.28 285.648 177.195 285.845 177.024 286.016C176.864 286.176 176.667 286.256 176.432 286.256ZM181.819 296.16C181.179 296.16 180.587 296.064 180.043 295.872C179.499 295.669 179.035 295.381 178.651 295.008L179.275 294.24C179.744 294.581 180.176 294.832 180.571 294.992C180.966 295.141 181.371 295.216 181.787 295.216C182.352 295.216 182.822 295.083 183.195 294.816C183.568 294.549 183.755 294.208 183.755 293.792C183.755 293.472 183.643 293.221 183.419 293.04C183.206 292.859 182.848 292.72 182.347 292.624L181.067 292.4C180.31 292.261 179.75 292.027 179.387 291.696C179.035 291.365 178.859 290.917 178.859 290.352C178.859 289.904 178.976 289.509 179.211 289.168C179.456 288.827 179.792 288.56 180.219 288.368C180.646 288.165 181.131 288.064 181.675 288.064C182.208 288.064 182.715 288.144 183.195 288.304C183.675 288.453 184.16 288.699 184.651 289.04L184.075 289.856C183.67 289.568 183.264 289.36 182.859 289.232C182.454 289.093 182.043 289.024 181.627 289.024C181.115 289.024 180.704 289.136 180.395 289.36C180.086 289.584 179.931 289.888 179.931 290.272C179.931 290.592 180.027 290.837 180.219 291.008C180.422 291.179 180.774 291.307 181.275 291.392L182.587 291.632C183.376 291.771 183.952 292.011 184.315 292.352C184.678 292.693 184.859 293.152 184.859 293.728C184.859 294.187 184.726 294.603 184.459 294.976C184.192 295.339 183.83 295.627 183.371 295.84C182.912 296.053 182.395 296.16 181.819 296.16ZM189.457 296.16C188.785 296.16 188.273 296 187.921 295.68C187.58 295.349 187.409 294.875 187.409 294.256V289.152H185.793V288.192H187.409V286.048L188.577 285.776V288.192H190.817V289.152H188.577V293.952C188.577 294.368 188.663 294.667 188.833 294.848C189.015 295.029 189.308 295.12 189.713 295.12C189.916 295.12 190.097 295.104 190.257 295.072C190.417 295.04 190.604 294.987 190.817 294.912V295.952C190.604 296.027 190.38 296.08 190.145 296.112C189.911 296.144 189.681 296.16 189.457 296.16Z" fill="#151515"/>
</svg>
