<svg xmlns="http://www.w3.org/2000/svg" width="360" height="135" viewBox="0 0 360 135"><g transform="translate(-610 -320)"><g transform="translate(610 320)"><text transform="translate(0 112)" fill="#151515" font-size="18" font-family="RedHatText-Regular, Red Hat Text"><tspan x="8.738" y="18">of Fortune Global 500 telecom companies</tspan><tspan y="18" font-size="10.499" baseline-shift="5.999400079342301">1</tspan></text><text transform="translate(144 93)" fill="#e00" font-size="36" font-family="RedHatDisplay-Regular, Red Hat Display"><tspan x="0" y="0">80%</tspan></text><g transform="translate(160)"><rect width="40" height="40" fill="none"/><g transform="translate(0 2.229)"><path d="M15.644,11.936a.9.9,0,0,0,1,.205.973.973,0,0,0,.5-.5.921.921,0,0,0-1.5-1,.956.956,0,0,0-.205,1A.969.969,0,0,0,15.644,11.936Z" transform="translate(0.779 -4.501)"/><path d="M19.644,11.928a.93.93,0,1,0-.205-.293A.969.969,0,0,0,19.644,11.928Z" transform="translate(2.643 -4.494)"/><path d="M44.067,30.109l-2.933-2.933a.91.91,0,0,0-.645-.264H36.955a12.622,12.622,0,0,0-1.994-5.953A3.85,3.85,0,0,0,37,17.558v-.645C43.3,15.725,42.542,6.487,36.076,6.37a.9.9,0,0,0-.909.909v3.328l-3.211-.674a.954.954,0,0,0-.689.132.909.909,0,0,0-.4.587,5.326,5.326,0,0,0,4.3,6.261v.645a1.985,1.985,0,0,1-1.378,1.877c-4.6-5.6-14.267-5.6-18.886,0a2,2,0,0,1-1.378-1.877v-.645a5.326,5.326,0,0,0,4.3-6.261.909.909,0,0,0-.4-.587.954.954,0,0,0-.689-.132l-3.211.674V7.279a.914.914,0,0,0-.909-.909c-6.466.117-7.214,9.355-.909,10.543v.645a3.885,3.885,0,0,0,2.038,3.4,12.568,12.568,0,0,0-1.994,5.953H8.216a.948.948,0,0,0-.645.264L4.639,30.109a.912.912,0,0,0,1.29,1.29L8.6,28.731H11.75a12.313,12.313,0,0,0,.968,4.032H9.7a.948.948,0,0,0-.645.264L6.12,35.96a.912.912,0,0,0,1.29,1.29l2.669-2.669H13.7a12.513,12.513,0,0,0,2.17,2.566H14.1a.948.948,0,0,0-.645.264l-2.933,2.933a.912.912,0,0,0,1.29,1.29l2.669-2.669h3.988a12.693,12.693,0,0,0,11.789,0h3.988l2.669,2.669a.912.912,0,0,0,1.29-1.29l-2.933-2.933a.91.91,0,0,0-.645-.264H32.85a12.513,12.513,0,0,0,2.17-2.566h3.622L41.31,37.25a.912.912,0,0,0,1.29-1.29l-2.933-2.933a.91.91,0,0,0-.645-.264H36a12.693,12.693,0,0,0,.968-4.032h3.153L42.791,31.4a.912.912,0,0,0,1.29-1.29ZM32.615,11.957l3.284.7a.852.852,0,0,0,.762-.191A.911.911,0,0,0,37,11.751V8.335a3.486,3.486,0,1,1-4.4,3.622ZM9.14,11.707a3.479,3.479,0,0,1,2.566-3.358v3.416a.92.92,0,0,0,1.1.909l3.284-.7a3.481,3.481,0,0,1-6.95-.249Zm15.22,26.95A10.832,10.832,0,0,1,13.539,27.836c.572-14.34,21.056-14.326,21.628,0A10.82,10.82,0,0,1,24.345,38.643Z" transform="translate(-4.36 -6.37)"/></g></g></g></g></svg>