<svg width="426" height="193" viewBox="0 0 426 193" fill="none" xmlns="http://www.w3.org/2000/svg">
<rect x="0.5" y="0.5" width="425" height="192" rx="2.5" stroke="#C7C7C7"/>
<circle cx="213" cy="110.999" r="3" stroke="#E0E0E0" stroke-width="2"/>
<path d="M216.153 111.785C216.555 111.885 216.97 111.64 216.994 111.226C217.019 110.786 216.971 110.344 216.851 109.916C216.663 109.247 216.304 108.639 215.809 108.151C215.314 107.663 214.7 107.312 214.029 107.133C213.6 107.019 213.156 106.978 212.717 107.009C212.304 107.038 212.064 107.456 212.17 107.857V107.857C212.276 108.257 212.69 108.484 213.104 108.501C213.285 108.509 213.466 108.536 213.643 108.583C214.063 108.695 214.446 108.914 214.755 109.219C215.065 109.524 215.289 109.904 215.407 110.322C215.456 110.498 215.486 110.679 215.496 110.86C215.519 111.273 215.752 111.685 216.153 111.785V111.785Z" fill="#0066CC"/>
<rect width="426" height="30" fill="#151515"/>
<path d="M20.8167 15.7632C21.6847 15.7632 22.9424 15.5833 22.9424 14.5507C22.9424 14.4701 22.9403 14.3917 22.9208 14.3132L22.4035 12.066C22.2833 11.5722 22.1792 11.3472 21.3104 10.9132C20.6375 10.5687 19.1701 10 18.7361 10C18.3319 10 18.2125 10.5236 17.7333 10.5236C17.2542 10.5236 16.925 10.1347 16.491 10.1347C16.0569 10.1347 15.8021 10.4194 15.5931 11.0028C15.5931 11.0028 15.009 12.6493 14.934 12.8889C14.9188 12.934 14.9188 12.984 14.9188 13.0236C14.9188 13.6639 17.4389 15.7632 20.8174 15.7632M23.0778 14.9694C23.1979 15.5382 23.1979 15.5979 23.1979 15.6729C23.1979 16.6458 22.1049 17.1847 20.6681 17.1847C17.4194 17.1847 14.575 15.2833 14.575 14.0264C14.575 13.8319 14.6201 13.6521 14.6799 13.5174C13.5118 13.5771 12 13.7868 12 15.1194C12 17.3049 17.1799 20 21.2813 20C24.425 20 25.2181 18.5778 25.2181 17.4549C25.2181 16.5715 24.4549 15.5688 23.0771 14.9694" fill="#EE0000"/>
<path d="M22.9208 14.3132C22.9403 14.3917 22.9424 14.4701 22.9424 14.5507C22.9424 15.5833 21.6847 15.7632 20.8167 15.7632C17.4382 15.7632 14.9181 13.6639 14.9181 13.0236C14.9181 12.984 14.9181 12.934 14.9333 12.8889L14.6785 13.5181C14.6187 13.6528 14.5736 13.8319 14.5736 14.0271C14.5736 15.2847 17.4181 17.1854 20.6667 17.1854C22.1035 17.1854 23.1965 16.6465 23.1965 15.6736C23.1965 15.5986 23.1965 15.5389 23.0764 14.9701L22.9201 14.3132H22.9208Z" fill="black"/>
<line x1="33.218" y1="14.5" x2="54.218" y2="14.5" stroke="white" stroke-width="3"/>
<line x1="62.218" y1="14.5" x2="83.218" y2="14.5" stroke="white" stroke-width="3"/>
<line x1="91.218" y1="14.5" x2="112.218" y2="14.5" stroke="white" stroke-width="3"/>
<line x1="120.218" y1="14.5" x2="141.218" y2="14.5" stroke="white" stroke-width="3"/>
<line x1="149.218" y1="14.5" x2="170.218" y2="14.5" stroke="white" stroke-width="3"/>
<line x1="332" y1="14" x2="342" y2="14" stroke="white" stroke-width="10"/>
<line x1="350" y1="14" x2="360" y2="14" stroke="white" stroke-width="10"/>
<line x1="368" y1="14" x2="378" y2="14" stroke="white" stroke-width="10"/>
<line x1="386" y1="14" x2="396" y2="14" stroke="white" stroke-width="10"/>
<line x1="404" y1="14" x2="414" y2="14" stroke="white" stroke-width="10"/>
</svg>
