<svg width="426" height="200" viewBox="0 0 426 200" fill="none" xmlns="http://www.w3.org/2000/svg">
<rect x="0.5" y="0.5" width="425" height="199" rx="2.5" fill="white" stroke="#C7C7C7"/>
<line x1="213.5" y1="-2.18557e-08" x2="213.5" y2="200" stroke="#B300B3" stroke-dasharray="2 2"/>
<line x1="426" y1="100.5" y2="100.5" stroke="#B300B3" stroke-dasharray="2 2"/>
<circle cx="320" cy="49.9988" r="18" stroke="#E0E0E0" stroke-width="4"/>
<path d="M337.866 52.1924C338.962 52.327 339.971 51.5465 339.995 50.4422C340.048 48.0716 339.678 45.7051 338.899 43.4544C337.901 40.5723 336.257 37.9565 334.093 35.8074C331.928 33.6582 329.301 32.0325 326.412 31.0546C324.156 30.291 321.787 29.9382 319.417 30.0073C318.313 30.0395 317.539 31.0533 317.682 32.1487V32.1487C317.824 33.2441 318.829 34.0035 319.934 33.9989C321.696 33.9916 323.452 34.2755 325.13 34.8434C327.441 35.6257 329.543 36.9263 331.274 38.6456C333.006 40.365 334.321 42.4576 335.119 44.7633C335.699 46.4372 335.995 48.1913 336 49.9535C336.003 51.0581 336.769 52.0578 337.866 52.1924V52.1924Z" fill="#0066CC"/>
</svg>
