<svg xmlns="http://www.w3.org/2000/svg" width="786" height="335"><path d="M613 326a9 9 0 11-9-9 9 9 0 019 9zm-9 1.815a1.669 1.669 0 101.669 1.669 1.669 1.669 0 00-1.669-1.669zm-1.585-6l.269 4.935a.435.435 0 00.435.412h1.762a.435.435 0 00.435-.412l.269-4.935a.435.435 0 00-.435-.459h-2.3a.435.435 0 00-.435.459z" fill="#c9190b"/><g transform="translate(424 2)" fill="#fff" stroke="#d2d2d2"><rect width="360" height="299" rx="3" stroke="none"/><rect x=".5" y=".5" width="359" height="298" rx="2.5" fill="none"/></g><g data-name="Call to action"><g data-name="Rectangle" transform="translate(456.576 217.176)" fill="none" stroke="#151515"><rect width="161.376" height="46.984" rx="3" stroke="none"/><rect x=".5" y=".5" width="160.376" height="45.984" rx="2.5"/></g><path data-name="Path 95" d="M494.608 245.016a3.765 3.765 0 001.648-.368 4.154 4.154 0 001.36-1.056l1.52 1.5a5.7 5.7 0 01-2.036 1.508 6.138 6.138 0 01-2.556.56 6.177 6.177 0 01-2.36-.448 5.963 5.963 0 01-1.896-1.212 5.546 5.546 0 01-1.256-1.828 5.669 5.669 0 01-.456-2.272 5.641 5.641 0 01.464-2.28 5.625 5.625 0 011.26-1.832 5.963 5.963 0 011.9-1.216 6.135 6.135 0 012.344-.448 6.3 6.3 0 012.608.568 5.5 5.5 0 012.048 1.528l-1.568 1.552a4.079 4.079 0 00-1.392-1.128 3.8 3.8 0 00-1.7-.392 3.607 3.607 0 00-1.416.28 3.483 3.483 0 00-1.14.768 3.533 3.533 0 00-.752 1.152 3.784 3.784 0 00-.272 1.448 3.647 3.647 0 00.28 1.432 3.483 3.483 0 00.768 1.144 3.642 3.642 0 001.152.76 3.689 3.689 0 001.448.28zm8.384 2.128a3.293 3.293 0 01-2.192-.712 2.3 2.3 0 01-.848-1.848 2.178 2.178 0 01.912-1.856 4.157 4.157 0 012.512-.672 6.624 6.624 0 011.024.08 6.6 6.6 0 011.008.24v-.592a1.326 1.326 0 00-.448-1.084 2.025 2.025 0 00-1.312-.368 4.366 4.366 0 00-1.148.168 9.744 9.744 0 00-1.4.52l-.8-1.62a10.528 10.528 0 011.9-.672 7.657 7.657 0 011.816-.228 3.878 3.878 0 012.616.808 2.85 2.85 0 01.936 2.28V247h-2.16v-.576a3.912 3.912 0 01-1.108.544 4.511 4.511 0 01-1.308.176zm-.944-2.608a.872.872 0 00.416.76 1.946 1.946 0 001.1.28 3.488 3.488 0 001-.136 3.1 3.1 0 00.84-.392V243.8a3.989 3.989 0 00-.84-.232 5.692 5.692 0 00-.92-.072 2.119 2.119 0 00-1.176.28.868.868 0 00-.42.76zm9.376-9.216V247h-2.192v-11.2zm3.9 0V247h-2.188v-11.2zm6.064 9.328V240.5h-1.708v-1.84h1.712v-2.128l2.192-.5v2.624h2.368v1.844h-2.368v3.7a1.109 1.109 0 00.256.832 1.307 1.307 0 00.9.24 3.96 3.96 0 00.576-.04 3.23 3.23 0 00.584-.152v1.792a5.385 5.385 0 01-.848.184 6.041 6.041 0 01-.848.072 3.081 3.081 0 01-2.104-.628 2.341 2.341 0 01-.708-1.852zm5.188-1.808a4.23 4.23 0 01.344-1.7 4.276 4.276 0 01.944-1.376 4.418 4.418 0 011.416-.92 4.535 4.535 0 011.744-.344 4.535 4.535 0 011.744.336 4.418 4.418 0 011.416.92 4.276 4.276 0 01.944 1.376 4.23 4.23 0 01.344 1.7 4.23 4.23 0 01-.344 1.7 4.185 4.185 0 01-.944 1.368 4.489 4.489 0 01-1.416.912 4.535 4.535 0 01-1.744.348 4.535 4.535 0 01-1.744-.336 4.489 4.489 0 01-1.416-.912 4.184 4.184 0 01-.944-1.368 4.23 4.23 0 01-.344-1.704zm4.448 2.416a2.172 2.172 0 001.632-.7 2.388 2.388 0 00.672-1.712 2.408 2.408 0 00-.672-1.728 2.172 2.172 0 00-1.632-.7 2.172 2.172 0 00-1.632.7 2.408 2.408 0 00-.672 1.724 2.388 2.388 0 00.672 1.712 2.172 2.172 0 001.632.704zm11.648 1.888a3.293 3.293 0 01-2.192-.712 2.3 2.3 0 01-.848-1.848 2.178 2.178 0 01.912-1.856 4.157 4.157 0 012.512-.672 6.624 6.624 0 011.024.08 6.6 6.6 0 011.008.24v-.592a1.326 1.326 0 00-.448-1.084 2.025 2.025 0 00-1.312-.368 4.366 4.366 0 00-1.144.168 9.744 9.744 0 00-1.4.52l-.8-1.616a10.528 10.528 0 011.9-.672 7.657 7.657 0 011.816-.232 3.878 3.878 0 012.616.808 2.85 2.85 0 01.936 2.28V247h-2.16v-.576a3.912 3.912 0 01-1.112.544 4.511 4.511 0 01-1.308.176zm-.944-2.608a.872.872 0 00.416.76 1.946 1.946 0 001.1.28 3.488 3.488 0 001-.136 3.1 3.1 0 00.84-.392V243.8a3.989 3.989 0 00-.84-.232 5.692 5.692 0 00-.92-.072 2.119 2.119 0 00-1.176.28.868.868 0 00-.42.76zm11.264.7a2.482 2.482 0 001.048-.224 3.02 3.02 0 00.936-.7l1.312 1.36a4.471 4.471 0 01-1.536 1.1 4.584 4.584 0 01-1.852.388 4.434 4.434 0 01-1.72-.336 4.32 4.32 0 01-1.392-.912 4.2 4.2 0 01-.92-1.368 4.317 4.317 0 01-.336-1.7 4.317 4.317 0 01.336-1.7 4.3 4.3 0 01.92-1.376 4.253 4.253 0 011.392-.92 4.434 4.434 0 011.72-.348 4.773 4.773 0 011.9.392 4.434 4.434 0 011.552 1.1l-1.344 1.424a3.279 3.279 0 00-.96-.752 2.434 2.434 0 00-1.1-.256 2.08 2.08 0 00-1.592.7 2.457 2.457 0 00-.656 1.732 2.368 2.368 0 00.664 1.712 2.17 2.17 0 001.628.688zm5.728-.592V240.5h-1.712v-1.84h1.712v-2.128l2.192-.5v2.624h2.368v1.844h-2.368v3.7a1.109 1.109 0 00.256.832 1.307 1.307 0 00.9.24 3.96 3.96 0 00.576-.04 3.23 3.23 0 00.592-.152v1.792a5.385 5.385 0 01-.848.184 6.041 6.041 0 01-.848.072 3.081 3.081 0 01-2.1-.632 2.341 2.341 0 01-.72-1.848zm6.736-6.976a1.2 1.2 0 01-.88-.368 1.2 1.2 0 01-.368-.88 1.2 1.2 0 01.368-.88 1.2 1.2 0 01.88-.368 1.2 1.2 0 01.88.368 1.2 1.2 0 01.368.88 1.2 1.2 0 01-.368.88 1.2 1.2 0 01-.88.372zm1.1.992V247h-2.188v-8.336zm1.332 4.18a4.23 4.23 0 01.344-1.7 4.276 4.276 0 01.944-1.376 4.418 4.418 0 011.416-.92 4.535 4.535 0 011.744-.344 4.535 4.535 0 011.744.336 4.418 4.418 0 011.416.92 4.276 4.276 0 01.944 1.376 4.23 4.23 0 01.344 1.7 4.23 4.23 0 01-.344 1.7 4.184 4.184 0 01-.94 1.38 4.489 4.489 0 01-1.416.912 4.535 4.535 0 01-1.748.336 4.535 4.535 0 01-1.744-.336 4.489 4.489 0 01-1.416-.912 4.184 4.184 0 01-.944-1.368 4.23 4.23 0 01-.344-1.704zm4.448 2.416a2.172 2.172 0 001.632-.7 2.388 2.388 0 00.672-1.716 2.408 2.408 0 00-.672-1.728 2.172 2.172 0 00-1.632-.7 2.172 2.172 0 00-1.632.7 2.408 2.408 0 00-.672 1.728 2.388 2.388 0 00.668 1.712 2.172 2.172 0 001.636.704zm5.792 1.744v-8.336h2.192v.656a3.467 3.467 0 011.064-.608 3.766 3.766 0 011.272-.212 3.207 3.207 0 012.368.928 3.227 3.227 0 01.928 2.384V247h-2.192v-4.864a1.725 1.725 0 00-.472-1.264 1.682 1.682 0 00-1.256-.48 2.2 2.2 0 00-.984.216 1.935 1.935 0 00-.728.616V247z" fill="#151515"/></g><path data-name="Path 96" d="M457.6 130h8.5v-1.224h-7.112V117.4H457.6zm9.738-4.392a4.293 4.293 0 108.568 0 4.291 4.291 0 10-8.568 0zm7.254.018a3.1 3.1 0 01-2.988 3.384 3.085 3.085 0 01-2.952-3.384 3.112 3.112 0 012.952-3.4 3.117 3.117 0 012.99 3.4zm3.53 4.374h1.314v-6.012a2.47 2.47 0 012.358-1.782 3.114 3.114 0 01.918.162v-1.188a2.584 2.584 0 00-.828-.126 2.611 2.611 0 00-2.448 1.908v-1.746h-1.314zm5.292-4.392a4.395 4.395 0 004.356 4.554 5.059 5.059 0 003.294-1.17l-.828-.9a3.589 3.589 0 01-2.412.9 3.161 3.161 0 01-3.114-3.114h6.89v-.378a4.161 4.161 0 00-4.032-4.428 4.289 4.289 0 00-4.154 4.536zm4.14-3.384a2.893 2.893 0 012.736 2.736h-5.544a2.9 2.9 0 012.808-2.736zm6.21 7.776h1.314v-6.534a2.442 2.442 0 012.142-1.3 2.182 2.182 0 012.18 2.488V130h1.314v-5.67a3.643 3.643 0 00-.072-.774 2.47 2.47 0 012.2-1.386c1.368 0 2.16.972 2.16 2.484V130h1.332v-5.67a3 3 0 00-3.006-3.258 3.28 3.28 0 00-2.934 1.71 2.88 2.88 0 00-2.682-1.71 3.006 3.006 0 00-2.628 1.512v-1.368h-1.32zm20.016-11a.945.945 0 10-.936-.954.934.934 0 00.936.954zm.648 2.214h-1.314V130h1.314zm2.61 12.366h1.314v-4.7a3.533 3.533 0 002.754 1.242 4.28 4.28 0 004.14-4.518 4.253 4.253 0 00-4.068-4.5 3.466 3.466 0 00-2.844 1.368v-1.256h-1.3zm3.816-11.32a3.151 3.151 0 013.078 3.366 3.115 3.115 0 01-5.58 2.142v-4.3a3.023 3.023 0 012.502-1.208zm5.868 6.516a4.871 4.871 0 003.578 1.386c1.98 0 3.42-1.224 3.4-2.718.018-1.332-.828-2.052-2.556-2.358l-1.458-.27c-1.08-.2-1.53-.5-1.53-1.26 0-.864.81-1.4 1.908-1.4a4.436 4.436 0 012.718.99l.7-.9a5.465 5.465 0 00-3.366-1.17c-1.854 0-3.168 1.08-3.168 2.574 0 1.314.846 2.016 2.484 2.3l1.468.25c1.1.2 1.566.576 1.566 1.314 0 .864-.792 1.584-2.214 1.584a3.934 3.934 0 01-2.772-1.152zm10.206-7.56h-1.314v5.684a3.062 3.062 0 003.168 3.24 3.165 3.165 0 002.808-1.58V130h1.31v-8.784h-1.31v6.484a2.61 2.61 0 01-2.3 1.35 2.276 2.276 0 01-2.358-2.52zM545.5 130h1.31v-6.534a2.442 2.442 0 012.142-1.3 2.182 2.182 0 012.178 2.484V130h1.314v-5.67a3.643 3.643 0 00-.072-.774 2.47 2.47 0 012.2-1.386c1.368 0 2.16.972 2.16 2.484V130h1.332v-5.67a3 3 0 00-3.006-3.258 3.28 3.28 0 00-2.934 1.71 2.88 2.88 0 00-2.682-1.71 3.006 3.006 0 00-2.628 1.512v-1.368H545.5zm25.848 0h1.314v-12.87l-1.332.27v4.914a3.6 3.6 0 00-2.718-1.206 4.28 4.28 0 00-4.14 4.518 4.253 4.253 0 004.068 4.5 3.531 3.531 0 002.808-1.314zm-5.562-4.392a3.121 3.121 0 013.06-3.348 3.165 3.165 0 012.484 1.17v4.37a3.034 3.034 0 01-2.484 1.17 3.138 3.138 0 01-3.064-3.362zm9.09 0a4.293 4.293 0 108.568 0 4.291 4.291 0 10-8.568 0zm7.254.018a3 3 0 11-5.94 0 3 3 0 115.94 0zm4.842-8.5l-1.314.27V130h1.314zm2.232 8.478a4.293 4.293 0 108.568 0 4.291 4.291 0 10-8.568 0zm7.254.018a3 3 0 11-5.94 0 3 3 0 115.94 0zm3.524 4.378h1.318v-6.012a2.47 2.47 0 012.358-1.782 3.114 3.114 0 01.918.162v-1.188a2.584 2.584 0 00-.828-.126 2.611 2.611 0 00-2.448 1.908v-1.746h-1.314zm9.684-1.224a4.871 4.871 0 003.582 1.386c1.98 0 3.42-1.224 3.4-2.718.018-1.332-.828-2.052-2.556-2.358l-1.458-.27c-1.08-.2-1.53-.5-1.53-1.26 0-.864.81-1.4 1.908-1.4a4.436 4.436 0 012.718.99l.7-.9a5.465 5.465 0 00-3.366-1.17c-1.854 0-3.168 1.08-3.168 2.574 0 1.314.846 2.016 2.484 2.3l1.458.252c1.1.2 1.566.576 1.566 1.314 0 .864-.792 1.584-2.214 1.584a3.934 3.934 0 01-2.772-1.152zm9.558-9.776a.945.945 0 10-.936-.954.934.934 0 00.936.954zm.648 2.214h-1.314V130h1.314zm3.672 6.8c0 1.368.774 2.142 2.3 2.142a5.3 5.3 0 001.548-.234v-1.17a3.241 3.241 0 01-1.242.234c-.936 0-1.3-.378-1.3-1.314V122.3h2.55v-1.084h-2.538v-2.538l-1.314.306v2.232h-1.818v1.084h1.818zm12.618 2.142a3.737 3.737 0 002.79-1.17V130h1.3v-5.832c0-2.034-1.26-3.1-3.4-3.1a7.357 7.357 0 00-3.312.846l.5 1.008a5.667 5.667 0 012.646-.756c1.476 0 2.268.7 2.268 2.178v1.188a5.269 5.269 0 00-2.664-.666c-1.908 0-3.294.972-3.294 2.592-.002 1.606 1.312 2.704 3.166 2.704zm-1.908-2.718c0-1.026.936-1.638 2.214-1.638a4.558 4.558 0 012.484.648v1.692a3.505 3.505 0 01-2.52 1.008c-1.278.006-2.178-.678-2.178-1.704zm8.6 2.556h1.314v-6.528a2.442 2.442 0 012.142-1.3 2.182 2.182 0 012.178 2.484V130h1.314v-5.67a3.643 3.643 0 00-.072-.774 2.47 2.47 0 012.2-1.386c1.368 0 2.16.972 2.16 2.484V130h1.332v-5.67a3 3 0 00-3.006-3.258 3.28 3.28 0 00-2.934 1.71 2.88 2.88 0 00-2.682-1.71 3.006 3.006 0 00-2.628 1.512v-1.368h-1.314zm14.778-4.392a4.395 4.395 0 004.356 4.554 5.059 5.059 0 003.294-1.17l-.828-.9a3.589 3.589 0 01-2.412.9 3.161 3.161 0 01-3.114-3.114h6.894v-.372a4.161 4.161 0 00-4.032-4.428 4.289 4.289 0 00-4.154 4.536zm4.14-3.384a2.893 2.893 0 012.736 2.736h-5.544a2.9 2.9 0 012.812-2.73zm6.912 5.8c0 1.368.774 2.142 2.3 2.142a5.3 5.3 0 001.548-.234v-1.17a3.241 3.241 0 01-1.242.234c-.936 0-1.3-.378-1.3-1.314V122.3h2.538v-1.084H670v-2.538l-1.314.306v2.232h-1.816v1.084h1.818zm5.958.648l-.99 3.8h1.026l1.368-3.8zm-213.35 27.308a3.371 3.371 0 010-6.714 3.356 3.356 0 012.412 1.1l.846-.918a4.664 4.664 0 00-3.276-1.368 4.549 4.549 0 000 9.09 4.449 4.449 0 003.226-1.424l-.81-.81a3.139 3.139 0 01-2.398 1.044zm4.408-3.366a4.293 4.293 0 108.568 0 4.291 4.291 0 10-8.568 0zm7.254.018a3.1 3.1 0 01-2.988 3.384 3.085 3.085 0 01-2.952-3.384 3.112 3.112 0 012.952-3.4 3.117 3.117 0 012.99 3.4zm3.53 4.374h1.316v-6.48a2.61 2.61 0 012.3-1.35 2.276 2.276 0 012.358 2.52V157h1.314v-5.688a3.062 3.062 0 00-3.168-3.24 3.165 3.165 0 00-2.804 1.584v-1.44h-1.316zm9.054-1.224a4.871 4.871 0 003.582 1.386c1.98 0 3.42-1.224 3.4-2.718.018-1.332-.828-2.052-2.556-2.358l-1.458-.27c-1.08-.2-1.53-.5-1.53-1.26 0-.864.81-1.4 1.908-1.4a4.436 4.436 0 012.718.99l.7-.9a5.465 5.465 0 00-3.366-1.17c-1.854 0-3.168 1.08-3.168 2.574 0 1.314.846 2.016 2.484 2.3l1.458.252c1.1.2 1.566.576 1.566 1.314 0 .864-.792 1.584-2.214 1.584a3.934 3.934 0 01-2.772-1.152zm8.6-3.168a4.395 4.395 0 004.362 4.554 5.059 5.059 0 003.294-1.17l-.828-.9a3.589 3.589 0 01-2.412.9 3.161 3.161 0 01-3.114-3.114h6.894v-.378a4.161 4.161 0 00-4.034-4.428 4.289 4.289 0 00-4.158 4.536zm4.14-3.384a2.893 2.893 0 012.736 2.736h-5.54a2.9 2.9 0 012.808-2.736zm10.224 6.75a3.371 3.371 0 010-6.714 3.356 3.356 0 012.412 1.1l.846-.918a4.664 4.664 0 00-3.276-1.368 4.549 4.549 0 000 9.09 4.449 4.449 0 003.226-1.424l-.81-.81a3.139 3.139 0 01-2.394 1.044zm6.39-.954c0 1.368.774 2.142 2.3 2.142a5.3 5.3 0 001.548-.234v-1.17a3.241 3.241 0 01-1.242.234c-.936 0-1.3-.378-1.3-1.314V149.3h2.538v-1.08h-2.526v-2.542l-1.314.306v2.232h-1.818v1.084h1.822zm5.022-2.412a4.395 4.395 0 004.356 4.554 5.059 5.059 0 003.294-1.17l-.828-.9a3.589 3.589 0 01-2.412.9 3.161 3.161 0 01-3.114-3.114h6.894v-.378a4.161 4.161 0 00-4.032-4.428 4.289 4.289 0 00-4.154 4.536zm4.14-3.384a2.893 2.893 0 012.736 2.736h-5.54a2.9 2.9 0 012.808-2.736zm6.912 5.8c0 1.368.774 2.142 2.3 2.142a5.3 5.3 0 001.548-.234v-1.17a3.241 3.241 0 01-1.242.234c-.936 0-1.3-.378-1.3-1.314V149.3h2.538v-1.08h-2.526v-2.542l-1.314.306v2.232h-1.818v1.084h1.818zm7-6.8h-1.308v5.676a3.062 3.062 0 003.168 3.24 3.165 3.165 0 002.808-1.584V157h1.314v-8.784h-1.314v6.484a2.61 2.61 0 01-2.3 1.35 2.276 2.276 0 01-2.358-2.52zM546.54 157h1.314v-6.012a2.47 2.47 0 012.358-1.782 3.114 3.114 0 01.918.162v-1.188a2.584 2.584 0 00-.828-.126 2.611 2.611 0 00-2.448 1.908v-1.746h-1.314zm13.248.162a3.737 3.737 0 002.79-1.17V157h1.3v-5.832c0-2.034-1.26-3.1-3.4-3.1a7.357 7.357 0 00-3.312.846l.5 1.008a5.667 5.667 0 012.646-.756c1.476 0 2.268.7 2.268 2.178v1.188a5.269 5.269 0 00-2.664-.666c-1.908 0-3.294.972-3.294 2.592-.002 1.606 1.312 2.704 3.166 2.704zm-1.908-2.718c0-1.026.936-1.638 2.214-1.638a4.558 4.558 0 012.484.648v1.692a3.505 3.505 0 01-2.52 1.008c-1.278 0-2.178-.684-2.178-1.71zM572.982 157h1.318v-12.87l-1.332.27v4.914a3.6 3.6 0 00-2.718-1.206 4.28 4.28 0 00-4.14 4.518 4.253 4.253 0 004.068 4.5 3.531 3.531 0 002.808-1.314zm-5.562-4.392a3.121 3.121 0 013.06-3.348 3.165 3.165 0 012.484 1.17v4.37a3.034 3.034 0 01-2.484 1.17 3.138 3.138 0 01-3.06-3.362zM577.554 146a.945.945 0 10-.936-.954.934.934 0 00.936.954zm.648 2.214h-1.314V157h1.312zm2.61 12.366h1.314v-4.7a3.533 3.533 0 002.754 1.242 4.28 4.28 0 004.14-4.518 4.253 4.253 0 00-4.068-4.5 3.466 3.466 0 00-2.844 1.368v-1.26h-1.3zm3.816-11.322a3.151 3.151 0 013.078 3.366 3.115 3.115 0 01-5.58 2.142v-4.3a3.023 3.023 0 012.502-1.206zM591.9 146a.945.945 0 10-.936-.954.934.934 0 00.936.954zm.648 2.214h-1.314V157h1.314zm1.782 7.56a4.871 4.871 0 003.582 1.386c1.98 0 3.42-1.224 3.4-2.718.018-1.332-.828-2.052-2.556-2.358l-1.458-.27c-1.08-.2-1.53-.5-1.53-1.26 0-.864.81-1.4 1.908-1.4a4.436 4.436 0 012.718.99l.7-.9a5.465 5.465 0 00-3.366-1.17c-1.854 0-3.168 1.08-3.168 2.574 0 1.314.846 2.016 2.484 2.3l1.458.252c1.1.2 1.566.576 1.566 1.314 0 .864-.792 1.584-2.214 1.584a3.934 3.934 0 01-2.772-1.152zm12.978.2a3.371 3.371 0 010-6.714 3.356 3.356 0 012.412 1.1l.846-.918a4.664 4.664 0 00-3.276-1.368 4.549 4.549 0 000 9.09 4.449 4.449 0 003.222-1.422l-.81-.81a3.139 3.139 0 01-2.394 1.042zm5.814-9.974a.945.945 0 10-.936-.954.934.934 0 00.936.954zm.648 2.214h-1.314V157h1.314zm2.61 8.786h1.314v-6.48a2.61 2.61 0 012.3-1.35 2.276 2.276 0 012.358 2.52V157h1.314v-5.688a3.062 3.062 0 00-3.168-3.24 3.165 3.165 0 00-2.808 1.584v-1.44h-1.31zm13.572.126a3.547 3.547 0 002.79-1.278v1.44c0 1.476-.864 2.25-2.448 2.25a5.72 5.72 0 01-2.79-.81l-.558 1.008a6.838 6.838 0 003.42.918c2.376 0 3.69-1.188 3.69-3.384v-9.054h-1.3v1.116a3.626 3.626 0 00-2.736-1.224 4.28 4.28 0 00-4.14 4.518 4.253 4.253 0 004.072 4.5zm-2.752-4.518a3.122 3.122 0 013.06-3.348 3.165 3.165 0 012.484 1.17v4.37a3.034 3.034 0 01-2.484 1.17 3.138 3.138 0 01-3.06-3.362zm13.266 0a4.395 4.395 0 004.356 4.554 5.059 5.059 0 003.294-1.17l-.828-.9a3.589 3.589 0 01-2.412.9 3.161 3.161 0 01-3.114-3.114h6.894v-.378a4.161 4.161 0 00-4.032-4.428 4.289 4.289 0 00-4.16 4.536zm4.14-3.384a2.893 2.893 0 012.736 2.736H641.8a2.9 2.9 0 012.8-2.736zm7.524-5.094l-1.314.27V157h1.314zm3.27 1.87a.945.945 0 10-.936-.954.934.934 0 00.936.954zm.648 2.214h-1.314V157h1.314zm3.672 6.8c0 1.368.774 2.142 2.3 2.142a5.3 5.3 0 001.548-.234v-1.17a3.241 3.241 0 01-1.242.234c-.936 0-1.3-.378-1.3-1.314V149.3h2.538v-1.08h-2.538v-2.542l-1.314.306v2.232h-1.818v1.084h1.818zm6.372.162a.982.982 0 10.936.99.969.969 0 00-.928-.984zm17.658-3.51V144.4h-1.386v7.272c0 2.718-1.53 4.266-3.672 4.266s-3.672-1.548-3.672-4.266V144.4h-1.386v7.272c0 3.51 2.052 5.526 5.058 5.526 2.992.002 5.062-2.016 5.062-5.526zm3.726 3.348c0 1.368.774 2.142 2.3 2.142a5.3 5.3 0 001.548-.234v-1.17a3.241 3.241 0 01-1.242.234c-.936 0-1.3-.378-1.3-1.314V149.3h2.538v-1.08h-2.538v-2.542l-1.314.306v2.232h-1.818v1.084h1.818zm-231.008 27.762a4.871 4.871 0 003.582 1.386c1.98 0 3.42-1.224 3.4-2.718.018-1.332-.828-2.052-2.556-2.358l-1.458-.27c-1.08-.2-1.53-.5-1.53-1.26 0-.864.81-1.4 1.908-1.4a4.436 4.436 0 012.718.99l.7-.9a5.465 5.465 0 00-3.366-1.17c-1.85-.004-3.166 1.076-3.166 2.57 0 1.314.846 2.016 2.484 2.3l1.458.252c1.1.2 1.566.576 1.566 1.314.002.868-.79 1.588-2.208 1.588a3.934 3.934 0 01-2.772-1.152zm10.206-7.56h-1.314v5.684a3.062 3.062 0 003.168 3.24 3.165 3.165 0 002.808-1.584V184h1.314v-8.784h-1.314v6.484a2.61 2.61 0 01-2.3 1.35 2.276 2.276 0 01-2.358-2.52zm7.74 7.56a4.871 4.871 0 003.586 1.386c1.98 0 3.42-1.224 3.4-2.718.018-1.332-.828-2.052-2.556-2.358l-1.458-.27c-1.08-.2-1.53-.5-1.53-1.26 0-.864.81-1.4 1.908-1.4a4.436 4.436 0 012.718.99l.7-.9a5.465 5.465 0 00-3.366-1.17c-1.854 0-3.168 1.08-3.168 2.574 0 1.314.846 2.016 2.484 2.3l1.458.252c1.1.2 1.566.576 1.566 1.314 0 .864-.792 1.584-2.214 1.584a3.934 3.934 0 01-2.772-1.152zm12.978.2a3.371 3.371 0 010-6.714 3.356 3.356 0 012.412 1.1l.846-.918a4.664 4.664 0 00-3.276-1.368 4.549 4.549 0 000 9.09 4.449 4.449 0 003.226-1.426l-.81-.81a3.139 3.139 0 01-2.398 1.044zm5.814-9.976a.945.945 0 10-.936-.954.934.934 0 00.936.954zm.648 2.214h-1.314V184h1.314zm2.61 12.366h1.314v-4.7a3.533 3.533 0 002.754 1.242 4.529 4.529 0 00.072-9.018 3.466 3.466 0 00-2.844 1.368v-1.26h-1.3zm3.816-11.32a3.379 3.379 0 010 6.732 3.112 3.112 0 01-2.5-1.224v-4.3a3.023 3.023 0 012.5-1.208zm7.272-3.26a.945.945 0 10-.936-.954.934.934 0 00.936.954zm.648 2.214h-1.314V184h1.314zm3.672 6.8c0 1.368.774 2.142 2.3 2.142a5.3 5.3 0 001.548-.234v-1.17a3.241 3.241 0 01-1.242.234c-.936 0-1.3-.378-1.3-1.314V176.3h2.538v-1.08h-2.53v-2.542l-1.314.306v2.232h-1.818v1.084h1.818zm12.618 2.148a3.736 3.736 0 002.79-1.17V184h1.3v-5.832c0-2.034-1.26-3.1-3.4-3.1a7.357 7.357 0 00-3.312.846l.5 1.008a5.667 5.667 0 012.646-.756c1.476 0 2.268.7 2.268 2.178v1.188a5.268 5.268 0 00-2.664-.666c-1.908 0-3.294.972-3.294 2.592-.002 1.606 1.312 2.704 3.166 2.704zm-1.908-2.718c0-1.026.936-1.638 2.214-1.638a4.558 4.558 0 012.484.648v1.692a3.505 3.505 0 01-2.52 1.008c-1.278 0-2.178-.684-2.178-1.71zm9.918-10.314l-1.314.27V184h1.314zm3.276 1.87a.945.945 0 10-.936-.954.934.934 0 00.936.954zm.648 2.214h-1.314V184h1.314zm6.3 8.91a3.547 3.547 0 002.79-1.278v4.734h1.332v-12.364h-1.314v1.116a3.626 3.626 0 00-2.732-1.224 4.529 4.529 0 00-.072 9.018zm-2.754-4.516a3.121 3.121 0 013.06-3.348 3.165 3.165 0 012.484 1.17v4.37a3.034 3.034 0 01-2.484 1.17 3.138 3.138 0 01-3.06-3.362zm10.782-4.392h-1.314v5.684a3.062 3.062 0 003.168 3.24 3.165 3.165 0 002.808-1.584V184h1.314v-8.784h-1.314v6.484a2.61 2.61 0 01-2.3 1.35 2.276 2.276 0 01-2.358-2.52zm8.19 4.392a4.395 4.395 0 004.356 4.554 5.059 5.059 0 003.294-1.17l-.828-.9a3.589 3.589 0 01-2.412.9 3.161 3.161 0 01-3.114-3.114h6.894v-.378a4.161 4.161 0 00-4.032-4.428 4.289 4.289 0 00-4.158 4.536zm4.14-3.384a2.893 2.893 0 012.736 2.736h-5.544a2.9 2.9 0 012.808-2.736zm6.912 5.8c0 1.368.774 2.142 2.3 2.142a5.3 5.3 0 001.548-.234v-1.17a3.241 3.241 0 01-1.242.234c-.936 0-1.3-.378-1.3-1.314V176.3h2.538v-1.08H571.3v-2.542l-1.314.306v2.232h-1.818v1.084h1.818zm9.882 1.976h1.314v-6.534a2.442 2.442 0 012.142-1.3 2.182 2.182 0 012.178 2.484V184h1.314v-5.67a3.643 3.643 0 00-.072-.774 2.47 2.47 0 012.2-1.386c1.368 0 2.16.972 2.16 2.484V184h1.332v-5.67a3 3 0 00-3.006-3.258 3.28 3.28 0 00-2.934 1.71 2.88 2.88 0 00-2.682-1.71 3.006 3.006 0 00-2.628 1.512v-1.368h-1.314zm17.892.162a3.737 3.737 0 002.79-1.17V184h1.3v-5.832c0-2.034-1.26-3.1-3.4-3.1a7.357 7.357 0 00-3.312.846l.5 1.008a5.667 5.667 0 012.646-.756c1.476 0 2.268.7 2.268 2.178v1.188a5.268 5.268 0 00-2.664-.666c-1.908 0-3.294.972-3.294 2.592-.002 1.606 1.312 2.704 3.166 2.704zm-1.908-2.718c0-1.026.936-1.638 2.214-1.638a4.558 4.558 0 012.484.648v1.692a3.505 3.505 0 01-2.52 1.008c-1.278 0-2.178-.684-2.178-1.71zm9.828-6.228h-1.314v5.684a3.062 3.062 0 003.168 3.24 3.165 3.165 0 002.808-1.584V184h1.314v-8.784h-1.314v6.484a2.61 2.61 0 01-2.3 1.35 2.276 2.276 0 01-2.358-2.52zm8.568 8.784h1.314v-6.012a2.47 2.47 0 012.358-1.782 3.114 3.114 0 01.918.162v-1.188a2.585 2.585 0 00-.828-.126 2.611 2.611 0 00-2.448 1.908v-1.746h-1.314zm6.984-11a.945.945 0 10-.936-.954.934.934 0 00.936.954zm.648 2.214h-1.314V184h1.314zm1.782 7.56a4.871 4.871 0 003.582 1.386c1.98 0 3.42-1.224 3.4-2.718.018-1.332-.828-2.052-2.556-2.358l-1.458-.27c-1.08-.2-1.53-.5-1.53-1.26 0-.864.81-1.4 1.908-1.4a4.436 4.436 0 012.718.99l.7-.9a5.465 5.465 0 00-3.366-1.17c-1.854 0-3.168 1.08-3.168 2.574 0 1.314.846 2.016 2.484 2.3l1.458.252c1.1.2 1.566.576 1.566 1.314 0 .864-.792 1.584-2.214 1.584a3.934 3.934 0 01-2.772-1.152zm8.874-.108l-.99 3.8h1.026l1.368-3.8zm8.55-9.666a.945.945 0 10-.936-.954.934.934 0 00.936.954zm.648 2.214h-1.314V184h1.314zm2.61 8.786h1.314v-6.48a2.61 2.61 0 012.3-1.35 2.276 2.276 0 012.358 2.52V184h1.314v-5.688a3.062 3.062 0 00-3.168-3.24 3.165 3.165 0 00-2.808 1.584v-1.44h-1.314zm18.072-1.026a3.371 3.371 0 010-6.714 3.356 3.356 0 012.412 1.1l.846-.918a4.664 4.664 0 00-3.276-1.368 4.549 4.549 0 000 9.09 4.449 4.449 0 003.222-1.422l-.81-.81a3.139 3.139 0 01-2.394 1.042zm4.41-3.366a4.291 4.291 0 104.266-4.536 4.351 4.351 0 00-4.266 4.536zm7.254.018a3 3 0 11-2.988-3.4 3.1 3.1 0 012.988 3.4zm3.528 4.374h1.314v-6.48a2.61 2.61 0 012.3-1.35 2.276 2.276 0 012.358 2.52V184h1.314v-5.688a3.062 3.062 0 00-3.168-3.24 3.165 3.165 0 00-2.808 1.584v-1.44h-1.314zm9.054-1.224a4.871 4.871 0 003.582 1.386c1.98 0 3.42-1.224 3.4-2.718.018-1.332-.828-2.052-2.556-2.358l-1.458-.27c-1.08-.2-1.53-.5-1.53-1.26 0-.864.81-1.4 1.908-1.4a4.436 4.436 0 012.718.99l.7-.9a5.465 5.465 0 00-3.366-1.17c-1.854 0-3.168 1.08-3.168 2.574 0 1.314.846 2.016 2.484 2.3l1.458.252c1.1.2 1.566.576 1.566 1.314 0 .864-.792 1.584-2.214 1.584a3.934 3.934 0 01-2.772-1.152zm8.6-3.168a4.395 4.395 0 004.356 4.554 5.059 5.059 0 003.294-1.17l-.828-.9a3.589 3.589 0 01-2.412.9 3.161 3.161 0 01-3.114-3.114h6.894v-.378a4.161 4.161 0 00-4.032-4.428 4.289 4.289 0 00-4.154 4.536zm4.14-3.384a2.893 2.893 0 012.736 2.736h-5.544a2.9 2.9 0 012.812-2.736zm9.918 7.9a3.547 3.547 0 002.79-1.278v4.734h1.332v-12.364h-1.31v1.116a3.626 3.626 0 00-2.736-1.224 4.529 4.529 0 00-.072 9.018zm-2.754-4.518a3.122 3.122 0 013.06-3.348 3.165 3.165 0 012.484 1.17v4.372a3.034 3.034 0 01-2.484 1.17 3.138 3.138 0 01-3.056-3.362zm10.782-4.392h-1.314v5.686a3.062 3.062 0 003.168 3.24 3.165 3.165 0 002.808-1.584V184h1.314v-8.784h-1.314v6.484a2.61 2.61 0 01-2.3 1.35 2.276 2.276 0 01-2.358-2.52zm11.3 8.946a3.736 3.736 0 002.79-1.17V184h1.3v-5.832c0-2.034-1.26-3.1-3.4-3.1a7.357 7.357 0 00-3.312.846l.5 1.008a5.667 5.667 0 012.646-.756c1.476 0 2.268.7 2.268 2.178v1.188a5.268 5.268 0 00-2.664-.666c-1.908 0-3.294.972-3.294 2.592.01 1.606 1.32 2.704 3.174 2.704zm-1.908-2.718c0-1.026.936-1.638 2.214-1.638a4.558 4.558 0 012.484.648v1.692a3.505 3.505 0 01-2.52 1.008c-1.27.002-2.17-.682-2.17-1.708zm9.306.576c0 1.368.774 2.142 2.3 2.142a5.3 5.3 0 001.548-.234v-1.17a3.241 3.241 0 01-1.242.234c-.936 0-1.3-.378-1.3-1.314V176.3h2.538v-1.08h-2.538v-2.542l-1.314.306v2.232h-1.818v1.084h1.818z" fill="#151515"/><path data-name="Path 97" d="M457.7 58V41.2h2.52v14.568h9.68V58zm13.272-6.12a6.314 6.314 0 01.492-2.484 6.173 6.173 0 011.356-2.016 6.411 6.411 0 012.028-1.344 6.348 6.348 0 110 11.712 6.411 6.411 0 01-2.024-1.348 6.173 6.173 0 01-1.356-2.016 6.375 6.375 0 01-.492-2.504zm6.36 4.248a3.731 3.731 0 002.82-1.236 4.231 4.231 0 001.168-3.012 4.189 4.189 0 00-1.164-3 3.748 3.748 0 00-2.82-1.224 3.786 3.786 0 00-2.836 1.224 4.166 4.166 0 00-1.176 3 4.231 4.231 0 001.164 3.012 3.757 3.757 0 002.848 1.236zm8.62 1.872V45.784h2.4v1.56a3.766 3.766 0 011.416-1.356 4.015 4.015 0 011.944-.468 4.135 4.135 0 01.672.048 3.106 3.106 0 01.552.144v2.16a4.956 4.956 0 00-.7-.192 3.663 3.663 0 00-.72-.072 3.268 3.268 0 00-1.884.564 3.62 3.62 0 00-1.284 1.668V58zm18.748-1.392a7.36 7.36 0 01-4.728 1.608 6.528 6.528 0 01-4.56-1.824 6.039 6.039 0 01-1.356-2 6.622 6.622 0 01-.012-4.98 6.305 6.305 0 011.3-1.992 6.049 6.049 0 011.944-1.332 5.937 5.937 0 012.4-.492 5.692 5.692 0 014.212 1.836 6.386 6.386 0 011.236 2.028 6.909 6.909 0 01.456 2.52v.7h-9.656a4.13 4.13 0 004.128 3.5 5.082 5.082 0 001.7-.288 4.219 4.219 0 001.396-.792zm-5.064-9a3.469 3.469 0 00-2.388.912 4.03 4.03 0 00-1.284 2.352h7.248a4.177 4.177 0 00-1.26-2.328 3.277 3.277 0 00-2.32-.936zM507.864 58V45.784h2.4v1.152A4.723 4.723 0 01511.8 45.9a4.882 4.882 0 011.9-.36 4.513 4.513 0 012.208.54 4.073 4.073 0 011.56 1.5 4.919 4.919 0 011.788-1.524 5.209 5.209 0 012.34-.516 4.382 4.382 0 013.3 1.332 4.756 4.756 0 011.284 3.444V58h-2.4v-7.272a3.237 3.237 0 00-.756-2.268 2.641 2.641 0 00-2.052-.828 3.2 3.2 0 00-1.608.408 3.636 3.636 0 00-1.248 1.224 4.72 4.72 0 01.072.516q.024.276.024.54V58h-2.38v-7.272a3.237 3.237 0 00-.756-2.268 2.641 2.641 0 00-2.052-.828 3.257 3.257 0 00-1.56.372 3.377 3.377 0 00-1.2 1.116V58zm27.288-14.184a1.39 1.39 0 01-1.032-.444 1.478 1.478 0 010-2.088 1.39 1.39 0 011.032-.444 1.477 1.477 0 011.048 2.532 1.429 1.429 0 01-1.048.444zm1.2 1.968V58h-2.4V45.784zm2.832 17.184V45.784h2.376v1.176a5.119 5.119 0 011.7-1.02 6.188 6.188 0 014.464.144 6.1 6.1 0 013.264 3.324 6.362 6.362 0 01.48 2.472 6.451 6.451 0 01-.48 2.484 6.226 6.226 0 01-7.688 3.516 5.924 5.924 0 01-1.716-.888v5.976zm5.808-15.288a4.785 4.785 0 00-1.92.384 4.06 4.06 0 00-1.488 1.08v5.52a3.946 3.946 0 001.476 1.056 4.871 4.871 0 001.932.384 3.973 3.973 0 002.94-1.2 4.092 4.092 0 001.188-3 4.11 4.11 0 00-1.2-3.012 3.964 3.964 0 00-2.928-1.212zm7.608 8.736l1.3-1.584a8.071 8.071 0 001.956 1.14 5.446 5.446 0 002.028.4 3.969 3.969 0 002.112-.5 1.507 1.507 0 00.816-1.32 1.253 1.253 0 00-.48-1.032 3.093 3.093 0 00-1.488-.528l-2.208-.312a5.007 5.007 0 01-2.724-1.116 2.937 2.937 0 01-.924-2.268 3.221 3.221 0 011.32-2.676 5.5 5.5 0 013.456-1.02 8.413 8.413 0 012.556.384 8.936 8.936 0 012.364 1.176l-1.224 1.584a7.8 7.8 0 00-1.956-.972 6.291 6.291 0 00-1.908-.3 3.11 3.11 0 00-1.776.456 1.391 1.391 0 00-.672 1.2 1.192 1.192 0 00.468 1.02 3.608 3.608 0 001.548.516l2.208.312a5.089 5.089 0 012.748 1.128 2.938 2.938 0 01.948 2.28 3.072 3.072 0 01-.4 1.524 3.8 3.8 0 01-1.08 1.212 5.577 5.577 0 01-1.62.8 6.569 6.569 0 01-2.016.3 9.39 9.39 0 01-2.964-.456 6.784 6.784 0 01-2.388-1.348zm14.664-10.632v7.248a3.106 3.106 0 00.828 2.28 2.945 2.945 0 002.2.84 3.469 3.469 0 003-1.608v-8.76h2.4V58h-2.4v-1.224a4.886 4.886 0 01-1.644 1.092 5.382 5.382 0 01-2.028.372 4.608 4.608 0 01-3.42-1.34 4.7 4.7 0 01-1.332-3.456v-7.66zM578.52 58V45.784h2.4v1.152a4.723 4.723 0 011.536-1.032 4.882 4.882 0 011.9-.36 4.513 4.513 0 012.208.54 4.073 4.073 0 011.56 1.5 4.919 4.919 0 011.788-1.524 5.209 5.209 0 012.34-.516 4.382 4.382 0 013.3 1.332 4.756 4.756 0 011.284 3.444V58h-2.4v-7.272a3.237 3.237 0 00-.756-2.268 2.641 2.641 0 00-2.052-.828 3.2 3.2 0 00-1.608.408 3.636 3.636 0 00-1.248 1.224 4.723 4.723 0 01.072.516q.024.276.024.54V58h-2.376v-7.272a3.237 3.237 0 00-.756-2.268 2.641 2.641 0 00-2.052-.828 3.257 3.257 0 00-1.56.372 3.377 3.377 0 00-1.2 1.116V58zm35.448 0v-1.152a5.635 5.635 0 01-1.728 1 5.87 5.87 0 01-2.016.348 6 6 0 01-2.424-.496 6.069 6.069 0 01-3.264-3.336 6.451 6.451 0 01-.48-2.484 6.362 6.362 0 01.48-2.472 6.2 6.2 0 011.308-1.992 6.266 6.266 0 016.372-1.512 6.315 6.315 0 011.728.888V41.2l2.4-.528V58zm-7.56-6.144a4.151 4.151 0 001.2 3.024 3.972 3.972 0 002.952 1.22 4.7 4.7 0 001.908-.384 4.084 4.084 0 001.476-1.08V49.1a4.2 4.2 0 00-1.488-1.056 4.725 4.725 0 00-1.9-.384 4.012 4.012 0 00-2.952 1.2 4.07 4.07 0 00-1.196 2.996zm12.216.024a6.314 6.314 0 01.492-2.484 6.173 6.173 0 011.356-2.016 6.411 6.411 0 012.028-1.344 6.348 6.348 0 110 11.712 6.411 6.411 0 01-2.028-1.344 6.173 6.173 0 01-1.356-2.016 6.375 6.375 0 01-.492-2.508zm6.36 4.248a3.731 3.731 0 002.82-1.236 4.231 4.231 0 001.164-3.012 4.189 4.189 0 00-1.164-3 3.748 3.748 0 00-2.82-1.224 3.786 3.786 0 00-2.832 1.224 4.166 4.166 0 00-1.176 3 4.231 4.231 0 001.164 3.012 3.757 3.757 0 002.844 1.236zM636 40.672V58h-2.4V41.2zm2.28 11.208a6.314 6.314 0 01.492-2.484 6.173 6.173 0 011.356-2.016 6.411 6.411 0 012.028-1.344 6.348 6.348 0 110 11.712 6.411 6.411 0 01-2.028-1.344 6.173 6.173 0 01-1.356-2.016 6.375 6.375 0 01-.492-2.508zm6.36 4.248a3.731 3.731 0 002.82-1.236 4.231 4.231 0 001.164-3.012 4.189 4.189 0 00-1.164-3 3.748 3.748 0 00-2.82-1.224 3.786 3.786 0 00-2.832 1.224 4.166 4.166 0 00-1.176 3 4.231 4.231 0 001.164 3.012 3.757 3.757 0 002.844 1.236zM653.256 58V45.784h2.4v1.56a3.766 3.766 0 011.416-1.356 4.015 4.015 0 011.944-.468 4.135 4.135 0 01.672.048 3.105 3.105 0 01.552.144v2.16a4.956 4.956 0 00-.7-.192 3.663 3.663 0 00-.72-.072 3.268 3.268 0 00-1.884.564 3.62 3.62 0 00-1.284 1.668V58zm12.768-1.584l1.3-1.584a8.071 8.071 0 001.956 1.14 5.446 5.446 0 002.028.4 3.969 3.969 0 002.112-.5 1.507 1.507 0 00.816-1.32 1.253 1.253 0 00-.48-1.032 3.093 3.093 0 00-1.488-.528l-2.208-.312a5.007 5.007 0 01-2.724-1.116 2.937 2.937 0 01-.924-2.268 3.221 3.221 0 011.32-2.676 5.5 5.5 0 013.456-1.02 8.413 8.413 0 012.556.384 8.935 8.935 0 012.364 1.176l-1.224 1.584a7.8 7.8 0 00-1.956-.972 6.291 6.291 0 00-1.908-.3 3.11 3.11 0 00-1.776.456 1.391 1.391 0 00-.672 1.2 1.192 1.192 0 00.468 1.02 3.608 3.608 0 001.548.516l2.208.312a5.089 5.089 0 012.744 1.124 2.938 2.938 0 01.948 2.28 3.072 3.072 0 01-.4 1.524 3.8 3.8 0 01-1.08 1.212 5.578 5.578 0 01-1.62.8 6.569 6.569 0 01-2.016.3 9.39 9.39 0 01-2.964-.456 6.784 6.784 0 01-2.384-1.344zm13.512-12.6a1.39 1.39 0 01-1.032-.444 1.477 1.477 0 010-2.088 1.39 1.39 0 011.032-.444 1.477 1.477 0 011.044 2.532 1.429 1.429 0 01-1.044.444zm1.2 1.968V58h-2.4V45.784zm4.416 9.192V47.8h-2.592v-2.016h2.592v-3.12l2.376-.576v3.7h3.6V47.8h-3.6v6.624a1.729 1.729 0 00.42 1.32 2.018 2.018 0 001.38.384 6.056 6.056 0 00.9-.06 4.38 4.38 0 00.852-.228v2.016a6.2 6.2 0 01-1.116.264 7.85 7.85 0 01-1.164.1 3.97 3.97 0 01-2.712-.828 3.05 3.05 0 01-.936-2.416zM461.28 89.216a4.917 4.917 0 01-3.24-1.032 3.323 3.323 0 01-1.248-2.684 3.228 3.228 0 011.32-2.724 5.891 5.891 0 013.624-1 8.224 8.224 0 011.728.18 9.617 9.617 0 011.608.492v-1.3a2.4 2.4 0 00-.772-1.94 3.335 3.335 0 00-2.2-.648 6.573 6.573 0 00-1.752.252 13.162 13.162 0 00-2.04.78l-.888-1.8a13.737 13.737 0 012.592-.948 10.154 10.154 0 012.424-.3 5.43 5.43 0 013.684 1.14 4.053 4.053 0 011.308 3.228V89h-2.356v-1.056a5.707 5.707 0 01-1.752.96 6.416 6.416 0 01-2.04.312zm-2.18-3.768a1.7 1.7 0 00.756 1.44 3.279 3.279 0 001.98.552 5.3 5.3 0 001.776-.288 4.375 4.375 0 001.464-.864v-2.112a5.718 5.718 0 00-1.464-.564 7.36 7.36 0 00-1.68-.18 3.468 3.468 0 00-2.064.552 1.718 1.718 0 00-.768 1.464zM470.184 89V76.784h2.4v1.152a4.723 4.723 0 011.536-1.036 4.882 4.882 0 011.9-.36 4.513 4.513 0 012.208.54 4.073 4.073 0 011.56 1.5 4.919 4.919 0 011.788-1.524 5.209 5.209 0 012.34-.516 4.382 4.382 0 013.3 1.332 4.756 4.756 0 011.284 3.448V89h-2.4v-7.272a3.237 3.237 0 00-.756-2.268 2.641 2.641 0 00-2.052-.828 3.2 3.2 0 00-1.608.408 3.636 3.636 0 00-1.248 1.224 4.721 4.721 0 01.072.516q.024.276.024.54V89h-2.38v-7.272a3.237 3.237 0 00-.752-2.268 2.641 2.641 0 00-2.052-.828 3.257 3.257 0 00-1.56.372 3.377 3.377 0 00-1.2 1.116V89zm31.656-1.392a7.36 7.36 0 01-4.728 1.608 6.528 6.528 0 01-4.56-1.824 6.039 6.039 0 01-1.356-2 6.622 6.622 0 01-.012-4.98 6.305 6.305 0 011.3-1.992 6.049 6.049 0 011.944-1.332 5.938 5.938 0 012.4-.492 5.692 5.692 0 014.212 1.836 6.386 6.386 0 011.236 2.028 6.909 6.909 0 01.456 2.52v.7h-9.652a4.13 4.13 0 004.128 3.5 5.082 5.082 0 001.7-.288 4.219 4.219 0 001.392-.792zm-5.064-9a3.469 3.469 0 00-2.388.912 4.03 4.03 0 00-1.288 2.352h7.248a4.177 4.177 0 00-1.26-2.328 3.277 3.277 0 00-2.312-.936zm9.336 7.368V78.8h-2.592v-2.016h2.592v-3.12l2.376-.576v3.7h3.6V78.8h-3.6v6.624a1.729 1.729 0 00.42 1.32 2.018 2.018 0 001.38.384 6.056 6.056 0 00.9-.06 4.38 4.38 0 00.852-.228v2.016a6.2 6.2 0 01-1.116.264 7.85 7.85 0 01-1.164.1 3.97 3.97 0 01-2.712-.828 3.05 3.05 0 01-.936-2.416zm8.064.864h2.544l-2.208 5.592h-1.824zm15.724.26a4.117 4.117 0 001.728-.372 5.375 5.375 0 001.56-1.116l1.44 1.56a7.059 7.059 0 01-2.208 1.5 6.519 6.519 0 01-2.616.54A6.185 6.185 0 01524 85.388a6.47 6.47 0 011.332-7.008 6.163 6.163 0 011.992-1.344 6.227 6.227 0 012.472-.492 7.06 7.06 0 014.92 2.04l-1.512 1.632a4.957 4.957 0 00-1.56-1.14 4.273 4.273 0 00-1.8-.4 3.71 3.71 0 00-2.804 1.224 4.449 4.449 0 00.012 5.988A3.792 3.792 0 00529.9 87.1zm5.64-4.224a6.314 6.314 0 01.492-2.484 6.173 6.173 0 011.356-2.016 6.411 6.411 0 012.028-1.344 6.348 6.348 0 110 11.712 6.411 6.411 0 01-2.032-1.344 6.173 6.173 0 01-1.356-2.016 6.375 6.375 0 01-.492-2.504zm6.36 4.248a3.731 3.731 0 002.82-1.236 4.463 4.463 0 000-6.012 3.748 3.748 0 00-2.82-1.224 3.786 3.786 0 00-2.832 1.224 4.166 4.166 0 00-1.176 3 4.231 4.231 0 001.164 3.012 3.757 3.757 0 002.844 1.24zM550.512 89V76.784h2.4v1.224a4.886 4.886 0 011.644-1.092 5.382 5.382 0 012.028-.372 4.583 4.583 0 014.776 4.776V89h-2.4v-7.272a3.065 3.065 0 00-.828-2.268 2.968 2.968 0 00-2.2-.828 3.7 3.7 0 00-1.74.408 3.41 3.41 0 00-1.284 1.176V89zm12.456-1.584l1.3-1.584a8.071 8.071 0 001.956 1.14 5.446 5.446 0 002.028.4 3.969 3.969 0 002.112-.5 1.507 1.507 0 00.816-1.32 1.253 1.253 0 00-.48-1.032 3.093 3.093 0 00-1.488-.528l-2.212-.32a5.007 5.007 0 01-2.724-1.116 2.937 2.937 0 01-.924-2.268 3.221 3.221 0 011.32-2.676 5.5 5.5 0 013.456-1.02 8.413 8.413 0 012.556.384 8.936 8.936 0 012.364 1.176l-1.224 1.584a7.8 7.8 0 00-1.956-.972 6.291 6.291 0 00-1.908-.3 3.11 3.11 0 00-1.776.456 1.391 1.391 0 00-.672 1.2 1.192 1.192 0 00.468 1.02 3.608 3.608 0 001.548.516l2.208.312a5.089 5.089 0 012.748 1.128 2.938 2.938 0 01.948 2.28 3.072 3.072 0 01-.4 1.524 3.8 3.8 0 01-1.08 1.212 5.577 5.577 0 01-1.62.8 6.569 6.569 0 01-2.016.3 9.39 9.39 0 01-2.964-.456 6.784 6.784 0 01-2.384-1.34zm23.016.192a7.36 7.36 0 01-4.728 1.608 6.529 6.529 0 01-4.56-1.824 6.039 6.039 0 01-1.356-2 6.622 6.622 0 01-.012-4.98 6.305 6.305 0 011.3-1.992 6.049 6.049 0 011.944-1.332 5.938 5.938 0 012.4-.492 5.692 5.692 0 014.212 1.836 6.386 6.386 0 011.236 2.028 6.909 6.909 0 01.456 2.52v.7h-9.648a4.13 4.13 0 004.128 3.5 5.082 5.082 0 001.7-.288 4.219 4.219 0 001.392-.792zm-5.064-9a3.469 3.469 0 00-2.388.912 4.03 4.03 0 00-1.284 2.352h7.252a4.177 4.177 0 00-1.26-2.328 3.277 3.277 0 00-2.32-.936zm14.112 8.5a4.117 4.117 0 001.728-.372 5.375 5.375 0 001.56-1.116l1.44 1.56a7.059 7.059 0 01-2.208 1.5 6.519 6.519 0 01-2.616.54 6.185 6.185 0 01-5.8-3.828 6.47 6.47 0 011.332-7.008 6.163 6.163 0 011.992-1.344 6.227 6.227 0 012.472-.492 7.06 7.06 0 014.92 2.04l-1.512 1.632a4.957 4.957 0 00-1.56-1.14 4.273 4.273 0 00-1.8-.4 3.71 3.71 0 00-2.808 1.224 4.449 4.449 0 00.012 5.988 3.792 3.792 0 002.848 1.208zm8.5-1.128V78.8h-2.592v-2.016h2.592v-3.12l2.376-.576v3.7h3.6V78.8h-3.6v6.624a1.729 1.729 0 00.42 1.32 2.018 2.018 0 001.38.384 6.056 6.056 0 00.9-.06 4.38 4.38 0 00.852-.228v2.016a6.2 6.2 0 01-1.116.264 7.85 7.85 0 01-1.164.1 3.97 3.97 0 01-2.712-.828 3.05 3.05 0 01-.94-2.416zm18.068 1.628a7.36 7.36 0 01-4.728 1.608 6.528 6.528 0 01-4.56-1.824 6.039 6.039 0 01-1.356-2 6.622 6.622 0 01-.012-4.98 6.305 6.305 0 011.3-1.992 6.048 6.048 0 011.944-1.332 5.938 5.938 0 012.4-.492 5.692 5.692 0 014.212 1.836 6.386 6.386 0 011.236 2.028 6.909 6.909 0 01.456 2.52v.7h-9.652a4.13 4.13 0 004.128 3.5 5.082 5.082 0 001.7-.288 4.22 4.22 0 001.392-.792zm-5.064-9a3.469 3.469 0 00-2.388.912 4.03 4.03 0 00-1.284 2.352h7.248a4.177 4.177 0 00-1.26-2.328 3.277 3.277 0 00-2.316-.936zm9.336 7.368V78.8h-2.592v-2.016h2.592v-3.12l2.376-.576v3.7h3.6V78.8h-3.6v6.624a1.729 1.729 0 00.42 1.32 2.018 2.018 0 001.38.384 6.056 6.056 0 00.9-.06 4.38 4.38 0 00.852-.228v2.016a6.2 6.2 0 01-1.116.264 7.85 7.85 0 01-1.164.1 3.97 3.97 0 01-2.712-.828 3.05 3.05 0 01-.936-2.416zm10.1-9.192v7.248a3.106 3.106 0 00.828 2.28 2.945 2.945 0 002.2.84 3.469 3.469 0 003-1.608v-8.76h2.4V89H642v-1.224a4.886 4.886 0 01-1.644 1.092 5.382 5.382 0 01-2.028.372 4.608 4.608 0 01-3.42-1.344 4.7 4.7 0 01-1.332-3.456v-7.656zM647.232 89V76.784h2.4v1.56a3.766 3.766 0 011.416-1.356 4.015 4.015 0 011.944-.468 4.135 4.135 0 01.672.048 3.105 3.105 0 01.552.144v2.16a4.956 4.956 0 00-.7-.192 3.663 3.663 0 00-.72-.072 3.268 3.268 0 00-1.884.564 3.62 3.62 0 00-1.284 1.668V89z" fill="#151515"/><g data-name="Rectangle" transform="translate(424 2)" fill="none" stroke="#2261c5" stroke-width="2"><rect width="360" height="299" rx="3" stroke="none"/><rect x="-1" y="-1" width="362" height="301" rx="4"/></g><path data-name="Icon" d="M189 326a9 9 0 11-9-9 9 9 0 019 9zm-10.041 4.765l6.677-6.677a.581.581 0 000-.821l-.821-.821a.581.581 0 00-.821 0l-5.446 5.446-2.542-2.542a.581.581 0 00-.821 0l-.821.821a.581.581 0 000 .821l3.774 3.774a.581.581 0 00.821 0z" fill="#51a549"/><g data-name="Card"><g data-name="Rectangle" transform="translate(0 2)" fill="#fff" stroke="#d2d2d2"><rect width="360" height="299" rx="3" stroke="none"/><rect x=".5" y=".5" width="359" height="298" rx="2.5" fill="none"/></g><g data-name="Call to action"><g data-name="Rectangle" transform="translate(32 213)" fill="none" stroke="#151515"><rect width="163" height="56" rx="3" stroke="none"/><rect x=".5" y=".5" width="162" height="55" rx="2.5"/></g><path data-name="Path 98" d="M70.608 245.016a3.765 3.765 0 001.648-.368 4.154 4.154 0 001.36-1.056l1.52 1.5A5.7 5.7 0 0173.1 246.6a6.138 6.138 0 01-2.556.56 6.177 6.177 0 01-2.36-.448 5.963 5.963 0 01-1.896-1.212 5.546 5.546 0 01-1.256-1.828 5.669 5.669 0 01-.456-2.272 5.641 5.641 0 01.464-2.28 5.625 5.625 0 011.26-1.832 5.963 5.963 0 011.9-1.216 6.135 6.135 0 012.344-.448 6.3 6.3 0 012.608.568 5.5 5.5 0 012.048 1.528l-1.568 1.552a4.079 4.079 0 00-1.392-1.128 3.8 3.8 0 00-1.7-.392 3.607 3.607 0 00-1.416.28 3.483 3.483 0 00-1.14.768 3.533 3.533 0 00-.752 1.152 3.784 3.784 0 00-.272 1.448 3.647 3.647 0 00.28 1.432 3.483 3.483 0 00.768 1.144 3.642 3.642 0 001.152.76 3.689 3.689 0 001.448.28zm8.384 2.128a3.293 3.293 0 01-2.192-.712 2.3 2.3 0 01-.848-1.848 2.178 2.178 0 01.912-1.856 4.157 4.157 0 012.512-.672 6.624 6.624 0 011.024.08 6.6 6.6 0 011.008.24v-.592a1.326 1.326 0 00-.448-1.084 2.025 2.025 0 00-1.312-.368 4.366 4.366 0 00-1.148.168 9.744 9.744 0 00-1.4.52l-.8-1.62a10.528 10.528 0 011.9-.672 7.657 7.657 0 011.816-.228 3.878 3.878 0 012.616.808 2.85 2.85 0 01.936 2.28V247h-2.16v-.576a3.912 3.912 0 01-1.108.544 4.511 4.511 0 01-1.308.176zm-.944-2.608a.872.872 0 00.416.76 1.946 1.946 0 001.1.28 3.488 3.488 0 001-.136 3.1 3.1 0 00.84-.392V243.8a3.989 3.989 0 00-.84-.232 5.692 5.692 0 00-.92-.072 2.119 2.119 0 00-1.176.28.868.868 0 00-.42.76zm9.376-9.216V247h-2.192v-11.2zm3.9 0V247h-2.188v-11.2zm6.064 9.328V240.5H95.68v-1.84h1.712v-2.128l2.192-.5v2.624h2.368v1.844h-2.368v3.7a1.109 1.109 0 00.256.832 1.307 1.307 0 00.9.24 3.96 3.96 0 00.576-.04 3.23 3.23 0 00.584-.152v1.792a5.385 5.385 0 01-.848.184 6.041 6.041 0 01-.848.072 3.081 3.081 0 01-2.104-.628 2.341 2.341 0 01-.708-1.852zm5.188-1.808a4.23 4.23 0 01.344-1.7 4.276 4.276 0 01.944-1.376 4.418 4.418 0 011.416-.92 4.535 4.535 0 011.744-.344 4.535 4.535 0 011.744.336 4.418 4.418 0 011.416.92 4.276 4.276 0 01.944 1.376 4.23 4.23 0 01.344 1.7 4.23 4.23 0 01-.344 1.7 4.185 4.185 0 01-.944 1.368 4.489 4.489 0 01-1.416.912 4.535 4.535 0 01-1.744.348 4.535 4.535 0 01-1.744-.336 4.489 4.489 0 01-1.416-.912 4.184 4.184 0 01-.944-1.368 4.23 4.23 0 01-.344-1.704zm4.448 2.416a2.172 2.172 0 001.632-.7 2.388 2.388 0 00.672-1.712 2.408 2.408 0 00-.672-1.728 2.172 2.172 0 00-1.632-.7 2.172 2.172 0 00-1.632.7 2.408 2.408 0 00-.672 1.724 2.388 2.388 0 00.672 1.712 2.172 2.172 0 001.632.704zm11.648 1.888a3.293 3.293 0 01-2.192-.712 2.3 2.3 0 01-.848-1.848 2.178 2.178 0 01.912-1.856 4.157 4.157 0 012.512-.672 6.624 6.624 0 011.024.08 6.6 6.6 0 011.008.24v-.592a1.326 1.326 0 00-.448-1.084 2.025 2.025 0 00-1.312-.368 4.366 4.366 0 00-1.144.168 9.744 9.744 0 00-1.4.52l-.8-1.616a10.528 10.528 0 011.9-.672 7.657 7.657 0 011.816-.232 3.878 3.878 0 012.616.808 2.85 2.85 0 01.936 2.28V247h-2.16v-.576a3.912 3.912 0 01-1.112.544 4.511 4.511 0 01-1.308.176zm-.944-2.608a.872.872 0 00.416.76 1.946 1.946 0 001.1.28 3.488 3.488 0 001-.136 3.1 3.1 0 00.84-.392V243.8a3.989 3.989 0 00-.84-.232 5.692 5.692 0 00-.92-.072 2.119 2.119 0 00-1.176.28.868.868 0 00-.42.76zm11.264.7a2.482 2.482 0 001.048-.224 3.02 3.02 0 00.936-.7l1.312 1.36a4.471 4.471 0 01-1.536 1.1 4.584 4.584 0 01-1.852.388 4.434 4.434 0 01-1.72-.336 4.32 4.32 0 01-1.392-.912 4.2 4.2 0 01-.92-1.368 4.317 4.317 0 01-.336-1.7 4.317 4.317 0 01.336-1.7 4.3 4.3 0 01.92-1.376 4.253 4.253 0 011.392-.92 4.434 4.434 0 011.72-.348 4.773 4.773 0 011.9.392 4.434 4.434 0 011.552 1.1l-1.344 1.424a3.279 3.279 0 00-.96-.752 2.434 2.434 0 00-1.1-.256 2.08 2.08 0 00-1.592.7 2.457 2.457 0 00-.656 1.732 2.368 2.368 0 00.664 1.712 2.17 2.17 0 001.628.688zm5.728-.592V240.5h-1.712v-1.84h1.712v-2.128l2.192-.5v2.624h2.368v1.844h-2.368v3.7a1.109 1.109 0 00.256.832 1.307 1.307 0 00.9.24 3.96 3.96 0 00.576-.04 3.23 3.23 0 00.592-.152v1.792a5.385 5.385 0 01-.848.184 6.041 6.041 0 01-.848.072 3.081 3.081 0 01-2.1-.632 2.341 2.341 0 01-.72-1.848zm6.736-6.976a1.2 1.2 0 01-.88-.368 1.2 1.2 0 01-.368-.88 1.2 1.2 0 01.368-.88 1.2 1.2 0 01.88-.368 1.2 1.2 0 01.88.368 1.2 1.2 0 01.368.88 1.2 1.2 0 01-.368.88 1.2 1.2 0 01-.88.372zm1.1.992V247h-2.188v-8.336zm1.332 4.18a4.23 4.23 0 01.344-1.7 4.276 4.276 0 01.944-1.376 4.418 4.418 0 011.416-.92 4.535 4.535 0 011.744-.344 4.535 4.535 0 011.744.336 4.418 4.418 0 011.416.92 4.276 4.276 0 01.944 1.376 4.23 4.23 0 01.344 1.7 4.23 4.23 0 01-.344 1.7 4.184 4.184 0 01-.94 1.38 4.489 4.489 0 01-1.416.912 4.535 4.535 0 01-1.748.336 4.535 4.535 0 01-1.744-.336 4.489 4.489 0 01-1.416-.912 4.184 4.184 0 01-.944-1.368 4.23 4.23 0 01-.344-1.704zm4.448 2.416a2.172 2.172 0 001.632-.7 2.388 2.388 0 00.672-1.716 2.408 2.408 0 00-.672-1.728 2.172 2.172 0 00-1.632-.7 2.172 2.172 0 00-1.632.7 2.408 2.408 0 00-.672 1.728 2.388 2.388 0 00.668 1.712 2.172 2.172 0 001.636.704zm5.792 1.744v-8.336h2.192v.656a3.467 3.467 0 011.064-.608 3.766 3.766 0 011.272-.212 3.207 3.207 0 012.368.928 3.227 3.227 0 01.928 2.384V247h-2.192v-4.864a1.725 1.725 0 00-.472-1.264 1.682 1.682 0 00-1.256-.48 2.2 2.2 0 00-.984.216 1.935 1.935 0 00-.728.616V247z" fill="#151515"/><g data-name="Rectangle" transform="translate(34 215)" fill="none" stroke="#151515"><rect width="159" height="52" rx="2" stroke="none"/><rect x=".5" y=".5" width="158" height="51" rx="1.5"/></g></g><g data-name="Rectangle" transform="translate(32 213)" fill="none" stroke="#2261c5" stroke-width="2"><rect width="163" height="56" rx="3" stroke="none"/><rect x="-1" y="-1" width="165" height="58" rx="4"/></g><path data-name="Path 99" d="M33.6 130h8.5v-1.224h-7.112V117.4H33.6zm9.738-4.392a4.293 4.293 0 108.568 0 4.291 4.291 0 10-8.568 0zm7.254.018a3.1 3.1 0 01-2.988 3.384 3.085 3.085 0 01-2.952-3.384 3.112 3.112 0 012.952-3.4 3.117 3.117 0 012.99 3.4zm3.53 4.374h1.314v-6.012a2.47 2.47 0 012.358-1.782 3.114 3.114 0 01.918.162v-1.188a2.584 2.584 0 00-.828-.126 2.611 2.611 0 00-2.448 1.908v-1.746h-1.314zm5.292-4.392a4.395 4.395 0 004.356 4.554 5.059 5.059 0 003.294-1.17l-.828-.9a3.589 3.589 0 01-2.412.9 3.161 3.161 0 01-3.114-3.114h6.89v-.378a4.161 4.161 0 00-4.032-4.428 4.289 4.289 0 00-4.154 4.536zm4.14-3.384a2.893 2.893 0 012.736 2.736h-5.544a2.9 2.9 0 012.808-2.736zm6.21 7.776h1.314v-6.534a2.442 2.442 0 012.142-1.3 2.182 2.182 0 012.18 2.488V130h1.314v-5.67a3.643 3.643 0 00-.072-.774 2.47 2.47 0 012.2-1.386c1.368 0 2.16.972 2.16 2.484V130h1.332v-5.67a3 3 0 00-3.006-3.258 3.28 3.28 0 00-2.934 1.71 2.88 2.88 0 00-2.682-1.71 3.006 3.006 0 00-2.628 1.512v-1.368h-1.32zm20.016-11a.945.945 0 10-.936-.954.934.934 0 00.936.954zm.648 2.214h-1.314V130h1.314zm2.61 12.366h1.314v-4.7a3.533 3.533 0 002.754 1.242 4.28 4.28 0 004.14-4.518 4.253 4.253 0 00-4.068-4.5 3.466 3.466 0 00-2.844 1.368v-1.256h-1.3zm3.816-11.32a3.151 3.151 0 013.078 3.366 3.115 3.115 0 01-5.58 2.142v-4.3a3.023 3.023 0 012.502-1.208zm5.868 6.516a4.871 4.871 0 003.578 1.386c1.98 0 3.42-1.224 3.4-2.718.018-1.332-.828-2.052-2.556-2.358l-1.458-.27c-1.08-.2-1.53-.5-1.53-1.26 0-.864.81-1.4 1.908-1.4a4.436 4.436 0 012.718.99l.7-.9a5.465 5.465 0 00-3.366-1.17c-1.854 0-3.168 1.08-3.168 2.574 0 1.314.846 2.016 2.484 2.3l1.468.25c1.1.2 1.566.576 1.566 1.314 0 .864-.792 1.584-2.214 1.584a3.934 3.934 0 01-2.772-1.152zm10.206-7.56h-1.314v5.684a3.062 3.062 0 003.168 3.24 3.165 3.165 0 002.808-1.58V130h1.31v-8.784h-1.31v6.484a2.61 2.61 0 01-2.3 1.35 2.276 2.276 0 01-2.358-2.52zM121.5 130h1.31v-6.534a2.442 2.442 0 012.142-1.3 2.182 2.182 0 012.178 2.484V130h1.314v-5.67a3.643 3.643 0 00-.072-.774 2.47 2.47 0 012.2-1.386c1.368 0 2.16.972 2.16 2.484V130h1.332v-5.67a3 3 0 00-3.006-3.258 3.28 3.28 0 00-2.934 1.71 2.88 2.88 0 00-2.682-1.71 3.006 3.006 0 00-2.628 1.512v-1.368H121.5zm25.848 0h1.314v-12.87l-1.332.27v4.914a3.6 3.6 0 00-2.718-1.206 4.28 4.28 0 00-4.14 4.518 4.253 4.253 0 004.068 4.5 3.531 3.531 0 002.808-1.314zm-5.562-4.392a3.121 3.121 0 013.06-3.348 3.165 3.165 0 012.484 1.17v4.37a3.034 3.034 0 01-2.484 1.17 3.138 3.138 0 01-3.064-3.362zm9.09 0a4.293 4.293 0 108.568 0 4.291 4.291 0 10-8.568 0zm7.254.018a3 3 0 11-5.94 0 3 3 0 115.94 0zm4.842-8.5l-1.314.27V130h1.314zm2.232 8.478a4.293 4.293 0 108.568 0 4.291 4.291 0 10-8.568 0zm7.254.018a3 3 0 11-5.94 0 3 3 0 115.94 0zm3.524 4.378h1.318v-6.012a2.47 2.47 0 012.358-1.782 3.114 3.114 0 01.918.162v-1.188a2.584 2.584 0 00-.828-.126 2.611 2.611 0 00-2.448 1.908v-1.746h-1.314zm9.684-1.224a4.871 4.871 0 003.582 1.386c1.98 0 3.42-1.224 3.4-2.718.018-1.332-.828-2.052-2.556-2.358l-1.458-.27c-1.08-.2-1.53-.5-1.53-1.26 0-.864.81-1.4 1.908-1.4a4.436 4.436 0 012.718.99l.7-.9a5.465 5.465 0 00-3.366-1.17c-1.854 0-3.168 1.08-3.168 2.574 0 1.314.846 2.016 2.484 2.3l1.458.252c1.1.2 1.566.576 1.566 1.314 0 .864-.792 1.584-2.214 1.584a3.934 3.934 0 01-2.772-1.152zm9.558-9.776a.945.945 0 10-.936-.954.934.934 0 00.936.954zm.648 2.214h-1.314V130h1.314zm3.672 6.8c0 1.368.774 2.142 2.3 2.142a5.3 5.3 0 001.548-.234v-1.17a3.241 3.241 0 01-1.242.234c-.936 0-1.3-.378-1.3-1.314V122.3h2.55v-1.084h-2.538v-2.538l-1.314.306v2.232h-1.818v1.084h1.818zm12.618 2.142a3.737 3.737 0 002.79-1.17V130h1.3v-5.832c0-2.034-1.26-3.1-3.4-3.1a7.357 7.357 0 00-3.312.846l.5 1.008a5.667 5.667 0 012.646-.756c1.476 0 2.268.7 2.268 2.178v1.188a5.269 5.269 0 00-2.664-.666c-1.908 0-3.294.972-3.294 2.592-.002 1.606 1.312 2.704 3.166 2.704zm-1.908-2.718c0-1.026.936-1.638 2.214-1.638a4.558 4.558 0 012.484.648v1.692a3.505 3.505 0 01-2.52 1.008c-1.278.006-2.178-.678-2.178-1.704zm8.6 2.556h1.314v-6.528a2.442 2.442 0 012.142-1.3 2.182 2.182 0 012.178 2.484V130h1.314v-5.67a3.643 3.643 0 00-.072-.774 2.47 2.47 0 012.2-1.386c1.368 0 2.16.972 2.16 2.484V130h1.332v-5.67a3 3 0 00-3.006-3.258 3.28 3.28 0 00-2.934 1.71 2.88 2.88 0 00-2.682-1.71 3.006 3.006 0 00-2.628 1.512v-1.368h-1.314zm14.778-4.392a4.395 4.395 0 004.356 4.554 5.059 5.059 0 003.294-1.17l-.828-.9a3.589 3.589 0 01-2.412.9 3.161 3.161 0 01-3.114-3.114h6.894v-.372a4.161 4.161 0 00-4.032-4.428 4.289 4.289 0 00-4.154 4.536zm4.14-3.384a2.893 2.893 0 012.736 2.736h-5.544a2.9 2.9 0 012.812-2.73zm6.912 5.8c0 1.368.774 2.142 2.3 2.142a5.3 5.3 0 001.548-.234v-1.17a3.241 3.241 0 01-1.242.234c-.936 0-1.3-.378-1.3-1.314V122.3h2.538v-1.084H246v-2.538l-1.314.306v2.232h-1.816v1.084h1.818zm5.958.648l-.99 3.8h1.026l1.368-3.8zm-213.35 27.308a3.371 3.371 0 010-6.714 3.356 3.356 0 012.412 1.1l.846-.918a4.664 4.664 0 00-3.276-1.368 4.549 4.549 0 000 9.09 4.449 4.449 0 003.226-1.424l-.81-.81a3.139 3.139 0 01-2.398 1.044zm4.408-3.366a4.293 4.293 0 108.568 0 4.291 4.291 0 10-8.568 0zm7.254.018a3.1 3.1 0 01-2.988 3.384 3.085 3.085 0 01-2.952-3.384 3.112 3.112 0 012.952-3.4 3.117 3.117 0 012.99 3.4zm3.53 4.374H53.8v-6.48a2.61 2.61 0 012.3-1.35 2.276 2.276 0 012.358 2.52V157h1.314v-5.688a3.062 3.062 0 00-3.168-3.24 3.165 3.165 0 00-2.804 1.584v-1.44h-1.316zm9.054-1.224a4.871 4.871 0 003.582 1.386c1.98 0 3.42-1.224 3.4-2.718.018-1.332-.828-2.052-2.556-2.358l-1.458-.27c-1.08-.2-1.53-.5-1.53-1.26 0-.864.81-1.4 1.908-1.4a4.436 4.436 0 012.718.99l.7-.9a5.465 5.465 0 00-3.366-1.17c-1.854 0-3.168 1.08-3.168 2.574 0 1.314.846 2.016 2.484 2.3l1.458.252c1.1.2 1.566.576 1.566 1.314 0 .864-.792 1.584-2.214 1.584a3.934 3.934 0 01-2.772-1.152zm8.6-3.168a4.395 4.395 0 004.362 4.554 5.059 5.059 0 003.294-1.17l-.828-.9a3.589 3.589 0 01-2.412.9 3.161 3.161 0 01-3.114-3.114h6.894v-.378a4.161 4.161 0 00-4.034-4.428 4.289 4.289 0 00-4.158 4.536zm4.14-3.384a2.893 2.893 0 012.736 2.736h-5.54a2.9 2.9 0 012.808-2.736zm10.224 6.75a3.371 3.371 0 010-6.714 3.356 3.356 0 012.412 1.1l.846-.918a4.664 4.664 0 00-3.276-1.368 4.549 4.549 0 000 9.09 4.449 4.449 0 003.226-1.424l-.81-.81a3.139 3.139 0 01-2.394 1.044zm6.39-.954c0 1.368.774 2.142 2.3 2.142a5.3 5.3 0 001.548-.234v-1.17a3.241 3.241 0 01-1.242.234c-.936 0-1.3-.378-1.3-1.314V149.3h2.538v-1.08H92.21v-2.542l-1.314.306v2.232h-1.818v1.084H90.9zm5.022-2.412a4.395 4.395 0 004.356 4.554 5.059 5.059 0 003.294-1.17l-.828-.9a3.589 3.589 0 01-2.412.9 3.161 3.161 0 01-3.114-3.114h6.894v-.378a4.161 4.161 0 00-4.032-4.428 4.289 4.289 0 00-4.154 4.536zm4.14-3.384a2.893 2.893 0 012.736 2.736h-5.54a2.9 2.9 0 012.808-2.736zm6.912 5.8c0 1.368.774 2.142 2.3 2.142a5.3 5.3 0 001.548-.234v-1.17a3.241 3.241 0 01-1.242.234c-.936 0-1.3-.378-1.3-1.314V149.3h2.538v-1.08h-2.526v-2.542l-1.314.306v2.232h-1.818v1.084h1.818zm7-6.8h-1.308v5.676a3.062 3.062 0 003.168 3.24 3.165 3.165 0 002.808-1.584V157h1.314v-8.784h-1.314v6.484a2.61 2.61 0 01-2.3 1.35 2.276 2.276 0 01-2.358-2.52zM122.54 157h1.314v-6.012a2.47 2.47 0 012.358-1.782 3.114 3.114 0 01.918.162v-1.188a2.584 2.584 0 00-.828-.126 2.611 2.611 0 00-2.448 1.908v-1.746h-1.314zm13.248.162a3.737 3.737 0 002.79-1.17V157h1.3v-5.832c0-2.034-1.26-3.1-3.4-3.1a7.357 7.357 0 00-3.312.846l.5 1.008a5.667 5.667 0 012.646-.756c1.476 0 2.268.7 2.268 2.178v1.188a5.269 5.269 0 00-2.664-.666c-1.908 0-3.294.972-3.294 2.592-.002 1.606 1.312 2.704 3.166 2.704zm-1.908-2.718c0-1.026.936-1.638 2.214-1.638a4.558 4.558 0 012.484.648v1.692a3.505 3.505 0 01-2.52 1.008c-1.278 0-2.178-.684-2.178-1.71zM148.982 157h1.318v-12.87l-1.332.27v4.914a3.6 3.6 0 00-2.718-1.206 4.28 4.28 0 00-4.14 4.518 4.253 4.253 0 004.068 4.5 3.531 3.531 0 002.808-1.314zm-5.562-4.392a3.121 3.121 0 013.06-3.348 3.165 3.165 0 012.484 1.17v4.37a3.034 3.034 0 01-2.484 1.17 3.138 3.138 0 01-3.06-3.362zM153.554 146a.945.945 0 10-.936-.954.934.934 0 00.936.954zm.648 2.214h-1.314V157h1.312zm2.61 12.366h1.314v-4.7a3.533 3.533 0 002.754 1.242 4.28 4.28 0 004.14-4.518 4.253 4.253 0 00-4.068-4.5 3.466 3.466 0 00-2.844 1.368v-1.26h-1.3zm3.816-11.322a3.151 3.151 0 013.078 3.366 3.115 3.115 0 01-5.58 2.142v-4.3a3.023 3.023 0 012.502-1.206zM167.9 146a.945.945 0 10-.936-.954.934.934 0 00.936.954zm.648 2.214h-1.314V157h1.314zm1.782 7.56a4.871 4.871 0 003.582 1.386c1.98 0 3.42-1.224 3.4-2.718.018-1.332-.828-2.052-2.556-2.358l-1.458-.27c-1.08-.2-1.53-.5-1.53-1.26 0-.864.81-1.4 1.908-1.4a4.436 4.436 0 012.718.99l.7-.9a5.465 5.465 0 00-3.366-1.17c-1.854 0-3.168 1.08-3.168 2.574 0 1.314.846 2.016 2.484 2.3l1.458.252c1.1.2 1.566.576 1.566 1.314 0 .864-.792 1.584-2.214 1.584a3.934 3.934 0 01-2.772-1.152zm12.978.2a3.371 3.371 0 010-6.714 3.356 3.356 0 012.412 1.1l.846-.918a4.664 4.664 0 00-3.276-1.368 4.549 4.549 0 000 9.09 4.449 4.449 0 003.222-1.422l-.81-.81a3.139 3.139 0 01-2.394 1.042zm5.814-9.974a.945.945 0 10-.936-.954.934.934 0 00.936.954zm.648 2.214h-1.314V157h1.314zm2.61 8.786h1.314v-6.48a2.61 2.61 0 012.3-1.35 2.276 2.276 0 012.358 2.52V157h1.314v-5.688a3.062 3.062 0 00-3.168-3.24 3.165 3.165 0 00-2.808 1.584v-1.44h-1.31zm13.572.126a3.547 3.547 0 002.79-1.278v1.44c0 1.476-.864 2.25-2.448 2.25a5.72 5.72 0 01-2.79-.81l-.558 1.008a6.838 6.838 0 003.42.918c2.376 0 3.69-1.188 3.69-3.384v-9.054h-1.3v1.116a3.626 3.626 0 00-2.736-1.224 4.28 4.28 0 00-4.14 4.518 4.253 4.253 0 004.072 4.5zm-2.752-4.518a3.122 3.122 0 013.06-3.348 3.165 3.165 0 012.484 1.17v4.37a3.034 3.034 0 01-2.484 1.17 3.138 3.138 0 01-3.06-3.362zm13.266 0a4.395 4.395 0 004.356 4.554 5.059 5.059 0 003.294-1.17l-.828-.9a3.589 3.589 0 01-2.412.9 3.161 3.161 0 01-3.114-3.114h6.894v-.378a4.161 4.161 0 00-4.032-4.428 4.289 4.289 0 00-4.16 4.536zm4.14-3.384a2.893 2.893 0 012.736 2.736H217.8a2.9 2.9 0 012.8-2.736zm7.524-5.094l-1.314.27V157h1.314zm3.27 1.87a.945.945 0 10-.936-.954.934.934 0 00.936.954zm.648 2.214h-1.314V157h1.314zm3.672 6.8c0 1.368.774 2.142 2.3 2.142a5.3 5.3 0 001.548-.234v-1.17a3.241 3.241 0 01-1.242.234c-.936 0-1.3-.378-1.3-1.314V149.3h2.538v-1.08h-2.538v-2.542l-1.314.306v2.232h-1.818v1.084h1.818zm6.372.162a.982.982 0 10.936.99.969.969 0 00-.928-.984zm17.658-3.51V144.4h-1.386v7.272c0 2.718-1.53 4.266-3.672 4.266s-3.672-1.548-3.672-4.266V144.4h-1.386v7.272c0 3.51 2.052 5.526 5.058 5.526 2.992.002 5.062-2.016 5.062-5.526zm3.726 3.348c0 1.368.774 2.142 2.3 2.142a5.3 5.3 0 001.548-.234v-1.17a3.241 3.241 0 01-1.242.234c-.936 0-1.3-.378-1.3-1.314V149.3h2.538v-1.08h-2.538v-2.542l-1.314.306v2.232h-1.818v1.084h1.818zM32.468 182.776a4.871 4.871 0 003.582 1.386c1.98 0 3.42-1.224 3.4-2.718.018-1.332-.828-2.052-2.556-2.358l-1.458-.27c-1.08-.2-1.53-.5-1.53-1.26 0-.864.81-1.4 1.908-1.4a4.436 4.436 0 012.718.99l.7-.9a5.465 5.465 0 00-3.366-1.17c-1.85-.004-3.166 1.076-3.166 2.57 0 1.314.846 2.016 2.484 2.3l1.458.252c1.1.2 1.566.576 1.566 1.314.002.868-.79 1.588-2.208 1.588a3.934 3.934 0 01-2.772-1.152zm10.206-7.56H41.36v5.684a3.062 3.062 0 003.168 3.24 3.165 3.165 0 002.808-1.584V184h1.314v-8.784h-1.314v6.484a2.61 2.61 0 01-2.3 1.35 2.276 2.276 0 01-2.358-2.52zm7.74 7.56A4.871 4.871 0 0054 184.162c1.98 0 3.42-1.224 3.4-2.718.018-1.332-.828-2.052-2.556-2.358l-1.458-.27c-1.08-.2-1.53-.5-1.53-1.26 0-.864.81-1.4 1.908-1.4a4.436 4.436 0 012.718.99l.7-.9a5.465 5.465 0 00-3.366-1.17c-1.854 0-3.168 1.08-3.168 2.574 0 1.314.846 2.016 2.484 2.3l1.458.252c1.1.2 1.566.576 1.566 1.314 0 .864-.792 1.584-2.214 1.584a3.934 3.934 0 01-2.772-1.152zm12.978.2a3.371 3.371 0 010-6.714 3.356 3.356 0 012.412 1.1l.846-.918a4.664 4.664 0 00-3.276-1.368 4.549 4.549 0 000 9.09 4.449 4.449 0 003.226-1.426l-.81-.81a3.139 3.139 0 01-2.398 1.044zM69.206 173a.945.945 0 10-.936-.954.934.934 0 00.936.954zm.648 2.214H68.54V184h1.314zm2.61 12.366h1.314v-4.7a3.533 3.533 0 002.754 1.242 4.529 4.529 0 00.072-9.018 3.466 3.466 0 00-2.844 1.368v-1.26h-1.3zm3.816-11.32a3.379 3.379 0 010 6.732 3.112 3.112 0 01-2.5-1.224v-4.3a3.023 3.023 0 012.5-1.208zm7.272-3.26a.945.945 0 10-.936-.954.934.934 0 00.936.954zm.648 2.214h-1.314V184H84.2zm3.672 6.8c0 1.368.774 2.142 2.3 2.142a5.3 5.3 0 001.548-.234v-1.17a3.241 3.241 0 01-1.242.234c-.936 0-1.3-.378-1.3-1.314V176.3h2.538v-1.08h-2.53v-2.542l-1.314.306v2.232h-1.818v1.084h1.818zm12.618 2.148a3.736 3.736 0 002.79-1.17V184h1.3v-5.832c0-2.034-1.26-3.1-3.4-3.1a7.357 7.357 0 00-3.312.846l.5 1.008a5.667 5.667 0 012.646-.756c1.476 0 2.268.7 2.268 2.178v1.188a5.268 5.268 0 00-2.664-.666c-1.908 0-3.294.972-3.294 2.592-.002 1.606 1.312 2.704 3.166 2.704zm-1.908-2.718c0-1.026.936-1.638 2.214-1.638a4.558 4.558 0 012.484.648v1.692a3.505 3.505 0 01-2.52 1.008c-1.278 0-2.178-.684-2.178-1.71zm9.918-10.314l-1.314.27V184h1.314zm3.276 1.87a.945.945 0 10-.936-.954.934.934 0 00.936.954zm.648 2.214h-1.314V184h1.314zm6.3 8.91a3.547 3.547 0 002.79-1.278v4.734h1.332v-12.364h-1.314v1.116a3.626 3.626 0 00-2.732-1.224 4.529 4.529 0 00-.072 9.018zm-2.754-4.516a3.121 3.121 0 013.06-3.348 3.165 3.165 0 012.484 1.17v4.37a3.034 3.034 0 01-2.484 1.17 3.138 3.138 0 01-3.06-3.362zm10.782-4.392h-1.314v5.684a3.062 3.062 0 003.168 3.24 3.165 3.165 0 002.808-1.584V184h1.314v-8.784h-1.314v6.484a2.61 2.61 0 01-2.3 1.35 2.276 2.276 0 01-2.358-2.52zm8.19 4.392a4.395 4.395 0 004.356 4.554 5.059 5.059 0 003.294-1.17l-.828-.9a3.589 3.589 0 01-2.412.9 3.161 3.161 0 01-3.114-3.114h6.894v-.378a4.161 4.161 0 00-4.032-4.428 4.289 4.289 0 00-4.158 4.536zm4.14-3.384a2.893 2.893 0 012.736 2.736h-5.544a2.9 2.9 0 012.808-2.736zm6.912 5.8c0 1.368.774 2.142 2.3 2.142a5.3 5.3 0 001.548-.234v-1.17a3.241 3.241 0 01-1.242.234c-.936 0-1.3-.378-1.3-1.314V176.3h2.538v-1.08H147.3v-2.542l-1.314.306v2.232h-1.818v1.084h1.818zm9.882 1.976h1.314v-6.534a2.442 2.442 0 012.142-1.3 2.182 2.182 0 012.178 2.484V184h1.314v-5.67a3.643 3.643 0 00-.072-.774 2.47 2.47 0 012.2-1.386c1.368 0 2.16.972 2.16 2.484V184h1.332v-5.67a3 3 0 00-3.006-3.258 3.28 3.28 0 00-2.934 1.71 2.88 2.88 0 00-2.682-1.71 3.006 3.006 0 00-2.628 1.512v-1.368h-1.314zm17.892.162a3.737 3.737 0 002.79-1.17V184h1.3v-5.832c0-2.034-1.26-3.1-3.4-3.1a7.357 7.357 0 00-3.312.846l.5 1.008a5.667 5.667 0 012.646-.756c1.476 0 2.268.7 2.268 2.178v1.188a5.268 5.268 0 00-2.664-.666c-1.908 0-3.294.972-3.294 2.592-.002 1.606 1.312 2.704 3.166 2.704zm-1.908-2.718c0-1.026.936-1.638 2.214-1.638a4.558 4.558 0 012.484.648v1.692a3.505 3.505 0 01-2.52 1.008c-1.278 0-2.178-.684-2.178-1.71zm9.828-6.228h-1.314v5.684a3.062 3.062 0 003.168 3.24 3.165 3.165 0 002.808-1.584V184h1.314v-8.784h-1.314v6.484a2.61 2.61 0 01-2.3 1.35 2.276 2.276 0 01-2.358-2.52zm8.568 8.784h1.314v-6.012a2.47 2.47 0 012.358-1.782 3.114 3.114 0 01.918.162v-1.188a2.585 2.585 0 00-.828-.126 2.611 2.611 0 00-2.448 1.908v-1.746h-1.314zm6.984-11a.945.945 0 10-.936-.954.934.934 0 00.936.954zm.648 2.214h-1.314V184h1.314zm1.782 7.56a4.871 4.871 0 003.582 1.386c1.98 0 3.42-1.224 3.4-2.718.018-1.332-.828-2.052-2.556-2.358l-1.458-.27c-1.08-.2-1.53-.5-1.53-1.26 0-.864.81-1.4 1.908-1.4a4.436 4.436 0 012.718.99l.7-.9a5.465 5.465 0 00-3.366-1.17c-1.854 0-3.168 1.08-3.168 2.574 0 1.314.846 2.016 2.484 2.3l1.458.252c1.1.2 1.566.576 1.566 1.314 0 .864-.792 1.584-2.214 1.584a3.934 3.934 0 01-2.772-1.152zm8.874-.108l-.99 3.8h1.026l1.368-3.8zm8.55-9.666a.945.945 0 10-.936-.954.934.934 0 00.936.954zm.648 2.214h-1.314V184h1.314zm2.61 8.786h1.314v-6.48a2.61 2.61 0 012.3-1.35 2.276 2.276 0 012.358 2.52V184h1.314v-5.688a3.062 3.062 0 00-3.168-3.24 3.165 3.165 0 00-2.808 1.584v-1.44h-1.314zm18.072-1.026a3.371 3.371 0 010-6.714 3.356 3.356 0 012.412 1.1l.846-.918a4.664 4.664 0 00-3.276-1.368 4.549 4.549 0 000 9.09 4.449 4.449 0 003.222-1.422l-.81-.81a3.139 3.139 0 01-2.394 1.042zm4.41-3.366a4.291 4.291 0 104.266-4.536 4.351 4.351 0 00-4.266 4.536zm7.254.018a3 3 0 11-2.988-3.4 3.1 3.1 0 012.988 3.4zm3.528 4.374h1.314v-6.48a2.61 2.61 0 012.3-1.35 2.276 2.276 0 012.358 2.52V184h1.314v-5.688a3.062 3.062 0 00-3.168-3.24 3.165 3.165 0 00-2.808 1.584v-1.44h-1.314zm9.054-1.224a4.871 4.871 0 003.582 1.386c1.98 0 3.42-1.224 3.4-2.718.018-1.332-.828-2.052-2.556-2.358l-1.458-.27c-1.08-.2-1.53-.5-1.53-1.26 0-.864.81-1.4 1.908-1.4a4.436 4.436 0 012.718.99l.7-.9a5.465 5.465 0 00-3.366-1.17c-1.854 0-3.168 1.08-3.168 2.574 0 1.314.846 2.016 2.484 2.3l1.458.252c1.1.2 1.566.576 1.566 1.314 0 .864-.792 1.584-2.214 1.584a3.934 3.934 0 01-2.772-1.152zm8.6-3.168a4.395 4.395 0 004.356 4.554 5.059 5.059 0 003.294-1.17l-.828-.9a3.589 3.589 0 01-2.412.9 3.161 3.161 0 01-3.114-3.114h6.894v-.378a4.161 4.161 0 00-4.032-4.428 4.289 4.289 0 00-4.154 4.536zm4.14-3.384a2.893 2.893 0 012.736 2.736h-5.544a2.9 2.9 0 012.812-2.736zm9.918 7.9a3.547 3.547 0 002.79-1.278v4.734h1.332v-12.364h-1.31v1.116a3.626 3.626 0 00-2.736-1.224 4.529 4.529 0 00-.072 9.018zm-2.754-4.518a3.122 3.122 0 013.06-3.348 3.165 3.165 0 012.484 1.17v4.372a3.034 3.034 0 01-2.484 1.17 3.138 3.138 0 01-3.056-3.362zm10.782-4.392h-1.314v5.686a3.062 3.062 0 003.168 3.24 3.165 3.165 0 002.808-1.584V184h1.314v-8.784h-1.314v6.484a2.61 2.61 0 01-2.3 1.35 2.276 2.276 0 01-2.358-2.52zm11.3 8.946a3.736 3.736 0 002.79-1.17V184h1.3v-5.832c0-2.034-1.26-3.1-3.4-3.1a7.357 7.357 0 00-3.312.846l.5 1.008a5.667 5.667 0 012.646-.756c1.476 0 2.268.7 2.268 2.178v1.188a5.268 5.268 0 00-2.664-.666c-1.908 0-3.294.972-3.294 2.592.01 1.606 1.32 2.704 3.174 2.704zm-1.908-2.718c0-1.026.936-1.638 2.214-1.638a4.558 4.558 0 012.484.648v1.692a3.505 3.505 0 01-2.52 1.008c-1.27.002-2.17-.682-2.17-1.708zm9.306.576c0 1.368.774 2.142 2.3 2.142a5.3 5.3 0 001.548-.234v-1.17a3.241 3.241 0 01-1.242.234c-.936 0-1.3-.378-1.3-1.314V176.3h2.538v-1.08h-2.538v-2.542l-1.314.306v2.232h-1.818v1.084h1.818z" fill="#151515"/><path data-name="Path 100" d="M33.7 58V41.2h2.52v14.568h9.68V58zm13.272-6.12a6.314 6.314 0 01.492-2.484 6.173 6.173 0 011.356-2.016 6.411 6.411 0 012.028-1.344 6.348 6.348 0 110 11.712 6.411 6.411 0 01-2.024-1.348 6.173 6.173 0 01-1.356-2.016 6.375 6.375 0 01-.492-2.504zm6.36 4.248a3.731 3.731 0 002.82-1.236 4.231 4.231 0 001.168-3.012 4.189 4.189 0 00-1.164-3 3.748 3.748 0 00-2.82-1.224A3.786 3.786 0 0050.5 48.88a4.166 4.166 0 00-1.176 3 4.231 4.231 0 001.164 3.012 3.757 3.757 0 002.848 1.236zM61.952 58V45.784h2.4v1.56a3.766 3.766 0 011.416-1.356 4.015 4.015 0 011.944-.468 4.135 4.135 0 01.672.048 3.106 3.106 0 01.552.144v2.16a4.956 4.956 0 00-.7-.192 3.663 3.663 0 00-.72-.072 3.268 3.268 0 00-1.884.564 3.62 3.62 0 00-1.284 1.668V58zM80.7 56.608a7.36 7.36 0 01-4.728 1.608 6.528 6.528 0 01-4.56-1.824 6.039 6.039 0 01-1.356-2 6.622 6.622 0 01-.012-4.98 6.305 6.305 0 011.3-1.992 6.049 6.049 0 011.944-1.332 5.937 5.937 0 012.4-.492 5.692 5.692 0 014.212 1.836 6.386 6.386 0 011.236 2.028 6.909 6.909 0 01.456 2.52v.7h-9.656a4.13 4.13 0 004.128 3.5 5.082 5.082 0 001.7-.288 4.219 4.219 0 001.396-.792zm-5.064-9a3.469 3.469 0 00-2.388.912 4.03 4.03 0 00-1.284 2.352h7.248a4.177 4.177 0 00-1.26-2.328 3.277 3.277 0 00-2.32-.936zM83.864 58V45.784h2.4v1.152A4.723 4.723 0 0187.8 45.9a4.882 4.882 0 011.9-.36 4.513 4.513 0 012.208.54 4.073 4.073 0 011.56 1.5 4.919 4.919 0 011.788-1.524 5.209 5.209 0 012.34-.516 4.382 4.382 0 013.3 1.332 4.756 4.756 0 011.284 3.444V58h-2.4v-7.272a3.237 3.237 0 00-.756-2.268 2.641 2.641 0 00-2.052-.828 3.2 3.2 0 00-1.608.408 3.636 3.636 0 00-1.248 1.224 4.72 4.72 0 01.072.516q.024.276.024.54V58h-2.38v-7.272a3.237 3.237 0 00-.756-2.268 2.641 2.641 0 00-2.052-.828 3.257 3.257 0 00-1.56.372 3.377 3.377 0 00-1.2 1.116V58zm27.288-14.184a1.39 1.39 0 01-1.032-.444 1.478 1.478 0 010-2.088 1.39 1.39 0 011.032-.444 1.477 1.477 0 011.048 2.532 1.429 1.429 0 01-1.048.444zm1.2 1.968V58h-2.4V45.784zm2.832 17.184V45.784h2.376v1.176a5.119 5.119 0 011.7-1.02 6.188 6.188 0 014.464.144 6.1 6.1 0 013.264 3.324 6.362 6.362 0 01.48 2.472 6.451 6.451 0 01-.48 2.484 6.226 6.226 0 01-7.688 3.516 5.924 5.924 0 01-1.716-.888v5.976zm5.808-15.288a4.785 4.785 0 00-1.92.384 4.06 4.06 0 00-1.488 1.08v5.52a3.946 3.946 0 001.476 1.056 4.871 4.871 0 001.932.384 3.973 3.973 0 002.94-1.2 4.092 4.092 0 001.188-3 4.11 4.11 0 00-1.2-3.012 3.964 3.964 0 00-2.928-1.212zm7.608 8.736l1.3-1.584a8.071 8.071 0 001.956 1.14 5.446 5.446 0 002.028.4 3.969 3.969 0 002.112-.5 1.507 1.507 0 00.816-1.32 1.253 1.253 0 00-.48-1.032 3.093 3.093 0 00-1.488-.528l-2.208-.312a5.007 5.007 0 01-2.724-1.116 2.937 2.937 0 01-.924-2.268 3.221 3.221 0 011.32-2.676 5.5 5.5 0 013.456-1.02 8.413 8.413 0 012.556.384 8.936 8.936 0 012.364 1.176l-1.224 1.584a7.8 7.8 0 00-1.956-.972 6.291 6.291 0 00-1.908-.3 3.11 3.11 0 00-1.776.456 1.391 1.391 0 00-.672 1.2 1.192 1.192 0 00.468 1.02 3.608 3.608 0 001.548.516l2.208.312a5.089 5.089 0 012.748 1.128 2.938 2.938 0 01.948 2.28 3.072 3.072 0 01-.4 1.524 3.8 3.8 0 01-1.08 1.212 5.577 5.577 0 01-1.62.8 6.569 6.569 0 01-2.016.3 9.39 9.39 0 01-2.964-.456 6.784 6.784 0 01-2.388-1.348zm14.664-10.632v7.248a3.106 3.106 0 00.828 2.28 2.945 2.945 0 002.2.84 3.469 3.469 0 003-1.608v-8.76h2.4V58h-2.4v-1.224a4.886 4.886 0 01-1.644 1.092 5.382 5.382 0 01-2.028.372 4.608 4.608 0 01-3.42-1.34 4.7 4.7 0 01-1.332-3.456v-7.66zM154.52 58V45.784h2.4v1.152a4.723 4.723 0 011.536-1.032 4.882 4.882 0 011.9-.36 4.513 4.513 0 012.208.54 4.073 4.073 0 011.56 1.5 4.919 4.919 0 011.788-1.524 5.209 5.209 0 012.34-.516 4.382 4.382 0 013.3 1.332 4.756 4.756 0 011.284 3.444V58h-2.4v-7.272a3.237 3.237 0 00-.756-2.268 2.641 2.641 0 00-2.052-.828 3.2 3.2 0 00-1.608.408 3.636 3.636 0 00-1.248 1.224 4.723 4.723 0 01.072.516q.024.276.024.54V58h-2.376v-7.272a3.237 3.237 0 00-.756-2.268 2.641 2.641 0 00-2.052-.828 3.257 3.257 0 00-1.56.372 3.377 3.377 0 00-1.2 1.116V58zm35.448 0v-1.152a5.635 5.635 0 01-1.728 1 5.87 5.87 0 01-2.016.348 6 6 0 01-2.424-.496 6.069 6.069 0 01-3.264-3.336 6.451 6.451 0 01-.48-2.484 6.362 6.362 0 01.48-2.472 6.2 6.2 0 011.308-1.992 6.266 6.266 0 016.372-1.512 6.315 6.315 0 011.728.888V41.2l2.4-.528V58zm-7.56-6.144a4.151 4.151 0 001.2 3.024 3.972 3.972 0 002.952 1.22 4.7 4.7 0 001.908-.384 4.084 4.084 0 001.476-1.08V49.1a4.2 4.2 0 00-1.488-1.056 4.725 4.725 0 00-1.9-.384 4.012 4.012 0 00-2.952 1.2 4.07 4.07 0 00-1.196 2.996zm12.216.024a6.314 6.314 0 01.492-2.484 6.173 6.173 0 011.356-2.016 6.411 6.411 0 012.028-1.344 6.348 6.348 0 110 11.712 6.411 6.411 0 01-2.028-1.344 6.173 6.173 0 01-1.356-2.016 6.375 6.375 0 01-.492-2.508zm6.36 4.248a3.731 3.731 0 002.82-1.236 4.231 4.231 0 001.164-3.012 4.189 4.189 0 00-1.164-3 3.748 3.748 0 00-2.82-1.224 3.786 3.786 0 00-2.832 1.224 4.166 4.166 0 00-1.176 3 4.231 4.231 0 001.164 3.012 3.757 3.757 0 002.844 1.236zM212 40.672V58h-2.4V41.2zm2.28 11.208a6.314 6.314 0 01.492-2.484 6.173 6.173 0 011.356-2.016 6.411 6.411 0 012.028-1.344 6.348 6.348 0 110 11.712 6.411 6.411 0 01-2.028-1.344 6.173 6.173 0 01-1.356-2.016 6.375 6.375 0 01-.492-2.508zm6.36 4.248a3.731 3.731 0 002.82-1.236 4.231 4.231 0 001.164-3.012 4.189 4.189 0 00-1.164-3 3.748 3.748 0 00-2.82-1.224 3.786 3.786 0 00-2.832 1.224 4.166 4.166 0 00-1.176 3 4.231 4.231 0 001.164 3.012 3.757 3.757 0 002.844 1.236zM229.256 58V45.784h2.4v1.56a3.766 3.766 0 011.416-1.356 4.015 4.015 0 011.944-.468 4.135 4.135 0 01.672.048 3.105 3.105 0 01.552.144v2.16a4.956 4.956 0 00-.7-.192 3.663 3.663 0 00-.72-.072 3.268 3.268 0 00-1.884.564 3.62 3.62 0 00-1.284 1.668V58zm12.768-1.584l1.3-1.584a8.071 8.071 0 001.956 1.14 5.446 5.446 0 002.028.4 3.969 3.969 0 002.112-.5 1.507 1.507 0 00.816-1.32 1.253 1.253 0 00-.48-1.032 3.093 3.093 0 00-1.488-.528l-2.208-.312a5.007 5.007 0 01-2.724-1.116 2.937 2.937 0 01-.924-2.268 3.221 3.221 0 011.32-2.676 5.5 5.5 0 013.456-1.02 8.413 8.413 0 012.556.384 8.935 8.935 0 012.364 1.176l-1.224 1.584a7.8 7.8 0 00-1.956-.972 6.291 6.291 0 00-1.908-.3 3.11 3.11 0 00-1.776.456 1.391 1.391 0 00-.672 1.2 1.192 1.192 0 00.468 1.02 3.608 3.608 0 001.548.516l2.208.312a5.089 5.089 0 012.744 1.124 2.938 2.938 0 01.948 2.28 3.072 3.072 0 01-.4 1.524 3.8 3.8 0 01-1.08 1.212 5.578 5.578 0 01-1.62.8 6.569 6.569 0 01-2.016.3 9.39 9.39 0 01-2.964-.456 6.784 6.784 0 01-2.384-1.344zm13.512-12.6a1.39 1.39 0 01-1.032-.444 1.477 1.477 0 010-2.088 1.39 1.39 0 011.032-.444 1.477 1.477 0 011.044 2.532 1.429 1.429 0 01-1.044.444zm1.2 1.968V58h-2.4V45.784zm4.416 9.192V47.8h-2.592v-2.016h2.592v-3.12l2.376-.576v3.7h3.6V47.8h-3.6v6.624a1.729 1.729 0 00.42 1.32 2.018 2.018 0 001.38.384 6.056 6.056 0 00.9-.06 4.38 4.38 0 00.852-.228v2.016a6.2 6.2 0 01-1.116.264 7.85 7.85 0 01-1.164.1 3.97 3.97 0 01-2.712-.828 3.05 3.05 0 01-.936-2.416zM37.28 89.216a4.917 4.917 0 01-3.24-1.032 3.323 3.323 0 01-1.248-2.684 3.228 3.228 0 011.32-2.724 5.891 5.891 0 013.624-1 8.224 8.224 0 011.728.18 9.617 9.617 0 011.608.492v-1.3a2.4 2.4 0 00-.772-1.94 3.335 3.335 0 00-2.2-.648 6.573 6.573 0 00-1.752.252 13.162 13.162 0 00-2.04.78l-.888-1.8a13.737 13.737 0 012.592-.948 10.154 10.154 0 012.424-.3 5.43 5.43 0 013.684 1.14 4.053 4.053 0 011.308 3.228V89h-2.356v-1.056a5.707 5.707 0 01-1.752.96 6.416 6.416 0 01-2.04.312zm-2.18-3.768a1.7 1.7 0 00.756 1.44 3.279 3.279 0 001.98.552 5.3 5.3 0 001.776-.288 4.375 4.375 0 001.464-.864v-2.112a5.718 5.718 0 00-1.464-.564 7.36 7.36 0 00-1.68-.18 3.468 3.468 0 00-2.064.552 1.718 1.718 0 00-.768 1.464zM46.184 89V76.784h2.4v1.152A4.723 4.723 0 0150.12 76.9a4.882 4.882 0 011.9-.36 4.513 4.513 0 012.208.54 4.073 4.073 0 011.56 1.5 4.919 4.919 0 011.788-1.524 5.209 5.209 0 012.34-.516 4.382 4.382 0 013.3 1.332A4.756 4.756 0 0164.5 81.32V89h-2.4v-7.272a3.237 3.237 0 00-.756-2.268 2.641 2.641 0 00-2.052-.828 3.2 3.2 0 00-1.608.408 3.636 3.636 0 00-1.248 1.224 4.721 4.721 0 01.072.516q.024.276.024.54V89h-2.38v-7.272a3.237 3.237 0 00-.752-2.268 2.641 2.641 0 00-2.052-.828 3.257 3.257 0 00-1.56.372 3.377 3.377 0 00-1.2 1.116V89zm31.656-1.392a7.36 7.36 0 01-4.728 1.608 6.528 6.528 0 01-4.56-1.824 6.039 6.039 0 01-1.356-2 6.622 6.622 0 01-.012-4.98 6.305 6.305 0 011.3-1.992 6.049 6.049 0 011.944-1.332 5.938 5.938 0 012.4-.492 5.692 5.692 0 014.212 1.836 6.386 6.386 0 011.236 2.028 6.909 6.909 0 01.456 2.52v.7H69.08a4.13 4.13 0 004.128 3.5 5.082 5.082 0 001.7-.288A4.219 4.219 0 0076.3 86.1zm-5.064-9a3.469 3.469 0 00-2.388.912 4.03 4.03 0 00-1.288 2.352h7.248a4.177 4.177 0 00-1.26-2.328 3.277 3.277 0 00-2.312-.936zm9.336 7.368V78.8H79.52v-2.016h2.592v-3.12l2.376-.576v3.7h3.6V78.8h-3.6v6.624a1.729 1.729 0 00.42 1.32 2.018 2.018 0 001.38.384 6.056 6.056 0 00.9-.06 4.38 4.38 0 00.852-.228v2.016a6.2 6.2 0 01-1.116.264 7.85 7.85 0 01-1.164.1 3.97 3.97 0 01-2.712-.828 3.05 3.05 0 01-.936-2.416zm8.064.864h2.544l-2.208 5.592h-1.824zm15.724.26a4.117 4.117 0 001.728-.372 5.375 5.375 0 001.56-1.116l1.44 1.56a7.059 7.059 0 01-2.208 1.5 6.519 6.519 0 01-2.616.54A6.185 6.185 0 01100 85.388a6.47 6.47 0 011.332-7.008 6.163 6.163 0 011.992-1.344 6.227 6.227 0 012.472-.492 7.06 7.06 0 014.92 2.04l-1.512 1.632a4.957 4.957 0 00-1.56-1.14 4.273 4.273 0 00-1.8-.4 3.71 3.71 0 00-2.804 1.224 4.449 4.449 0 00.012 5.988A3.792 3.792 0 00105.9 87.1zm5.64-4.224a6.314 6.314 0 01.492-2.484 6.173 6.173 0 011.356-2.016 6.411 6.411 0 012.028-1.344 6.348 6.348 0 110 11.712 6.411 6.411 0 01-2.032-1.344 6.173 6.173 0 01-1.356-2.016 6.375 6.375 0 01-.492-2.504zm6.36 4.248a3.731 3.731 0 002.82-1.236 4.463 4.463 0 000-6.012 3.748 3.748 0 00-2.82-1.224 3.786 3.786 0 00-2.832 1.224 4.166 4.166 0 00-1.176 3 4.231 4.231 0 001.164 3.012 3.757 3.757 0 002.844 1.24zM126.512 89V76.784h2.4v1.224a4.886 4.886 0 011.644-1.092 5.382 5.382 0 012.028-.372 4.583 4.583 0 014.776 4.776V89h-2.4v-7.272a3.065 3.065 0 00-.828-2.268 2.968 2.968 0 00-2.2-.828 3.7 3.7 0 00-1.74.408 3.41 3.41 0 00-1.284 1.176V89zm12.456-1.584l1.3-1.584a8.071 8.071 0 001.956 1.14 5.446 5.446 0 002.028.4 3.969 3.969 0 002.112-.5 1.507 1.507 0 00.816-1.32 1.253 1.253 0 00-.48-1.032 3.093 3.093 0 00-1.488-.528l-2.212-.32a5.007 5.007 0 01-2.724-1.116 2.937 2.937 0 01-.924-2.268 3.221 3.221 0 011.32-2.676 5.5 5.5 0 013.456-1.02 8.413 8.413 0 012.556.384 8.936 8.936 0 012.364 1.176l-1.224 1.584a7.8 7.8 0 00-1.956-.972 6.291 6.291 0 00-1.908-.3 3.11 3.11 0 00-1.776.456 1.391 1.391 0 00-.672 1.2 1.192 1.192 0 00.468 1.02 3.608 3.608 0 001.548.516l2.208.312a5.089 5.089 0 012.748 1.128 2.938 2.938 0 01.948 2.28 3.072 3.072 0 01-.4 1.524 3.8 3.8 0 01-1.08 1.212 5.577 5.577 0 01-1.62.8 6.569 6.569 0 01-2.016.3 9.39 9.39 0 01-2.964-.456 6.784 6.784 0 01-2.384-1.34zm23.016.192a7.36 7.36 0 01-4.728 1.608 6.529 6.529 0 01-4.56-1.824 6.039 6.039 0 01-1.356-2 6.622 6.622 0 01-.012-4.98 6.305 6.305 0 011.3-1.992 6.049 6.049 0 011.944-1.332 5.938 5.938 0 012.4-.492 5.692 5.692 0 014.212 1.836 6.386 6.386 0 011.236 2.028 6.909 6.909 0 01.456 2.52v.7h-9.648a4.13 4.13 0 004.128 3.5 5.082 5.082 0 001.7-.288 4.219 4.219 0 001.392-.792zm-5.064-9a3.469 3.469 0 00-2.388.912 4.03 4.03 0 00-1.284 2.352h7.252a4.177 4.177 0 00-1.26-2.328 3.277 3.277 0 00-2.32-.936zm14.112 8.5a4.117 4.117 0 001.728-.372 5.375 5.375 0 001.56-1.116l1.44 1.56a7.059 7.059 0 01-2.208 1.5 6.519 6.519 0 01-2.616.54 6.185 6.185 0 01-5.8-3.828 6.47 6.47 0 011.332-7.008 6.163 6.163 0 011.992-1.344 6.227 6.227 0 012.472-.492 7.06 7.06 0 014.92 2.04l-1.512 1.632a4.957 4.957 0 00-1.56-1.14 4.273 4.273 0 00-1.8-.4 3.71 3.71 0 00-2.808 1.224 4.449 4.449 0 00.012 5.988 3.792 3.792 0 002.848 1.208zm8.5-1.128V78.8h-2.592v-2.016h2.592v-3.12l2.376-.576v3.7h3.6V78.8h-3.6v6.624a1.729 1.729 0 00.42 1.32 2.018 2.018 0 001.38.384 6.056 6.056 0 00.9-.06 4.38 4.38 0 00.852-.228v2.016a6.2 6.2 0 01-1.116.264 7.85 7.85 0 01-1.164.1 3.97 3.97 0 01-2.712-.828 3.05 3.05 0 01-.94-2.416zm18.068 1.628a7.36 7.36 0 01-4.728 1.608 6.528 6.528 0 01-4.56-1.824 6.039 6.039 0 01-1.356-2 6.622 6.622 0 01-.012-4.98 6.305 6.305 0 011.3-1.992 6.048 6.048 0 011.944-1.332 5.938 5.938 0 012.4-.492 5.692 5.692 0 014.212 1.836 6.386 6.386 0 011.236 2.028 6.909 6.909 0 01.456 2.52v.7h-9.652a4.13 4.13 0 004.128 3.5 5.082 5.082 0 001.7-.288 4.22 4.22 0 001.392-.792zm-5.064-9a3.469 3.469 0 00-2.388.912 4.03 4.03 0 00-1.284 2.352h7.248a4.177 4.177 0 00-1.26-2.328 3.277 3.277 0 00-2.316-.936zm9.336 7.368V78.8h-2.592v-2.016h2.592v-3.12l2.376-.576v3.7h3.6V78.8h-3.6v6.624a1.729 1.729 0 00.42 1.32 2.018 2.018 0 001.38.384 6.056 6.056 0 00.9-.06 4.38 4.38 0 00.852-.228v2.016a6.2 6.2 0 01-1.116.264 7.85 7.85 0 01-1.164.1 3.97 3.97 0 01-2.712-.828 3.05 3.05 0 01-.936-2.416zm10.1-9.192v7.248a3.106 3.106 0 00.828 2.28 2.945 2.945 0 002.2.84 3.469 3.469 0 003-1.608v-8.76h2.4V89H218v-1.224a4.886 4.886 0 01-1.644 1.092 5.382 5.382 0 01-2.028.372 4.608 4.608 0 01-3.42-1.344 4.7 4.7 0 01-1.332-3.456v-7.656zM223.232 89V76.784h2.4v1.56a3.766 3.766 0 011.416-1.356 4.015 4.015 0 011.944-.468 4.135 4.135 0 01.672.048 3.105 3.105 0 01.552.144v2.16a4.956 4.956 0 00-.7-.192 3.663 3.663 0 00-.72-.072 3.268 3.268 0 00-1.884.564 3.62 3.62 0 00-1.284 1.668V89z" fill="#151515"/></g></svg>