<svg width="482" height="56" viewBox="0 0 482 56" fill="none" xmlns="http://www.w3.org/2000/svg">
<rect width="233" height="56" rx="3" fill="#EE0000"/>
<path d="M87.008 34V22.8H92.624C93.36 22.8 94.0053 22.9493 94.56 23.248C95.1253 23.5467 95.568 23.9627 95.888 24.496C96.208 25.0187 96.368 25.6267 96.368 26.32C96.368 26.9813 96.208 27.5733 95.888 28.096C95.568 28.6187 95.1253 29.0293 94.56 29.328C93.9947 29.6267 93.3493 29.776 92.624 29.776H89.328V34H87.008ZM89.328 27.856H92.368C92.8693 27.856 93.2693 27.7173 93.568 27.44C93.8773 27.1627 94.032 26.7947 94.032 26.336C94.032 25.8667 93.8773 25.4933 93.568 25.216C93.2693 24.9387 92.8693 24.8 92.368 24.8H89.328V27.856ZM97.739 34V25.664H99.931V26.592C100.198 26.2293 100.518 25.952 100.891 25.76C101.264 25.568 101.686 25.472 102.155 25.472C102.56 25.4827 102.864 25.5467 103.067 25.664V27.584C102.907 27.5093 102.731 27.456 102.539 27.424C102.347 27.3813 102.15 27.36 101.947 27.36C101.52 27.36 101.131 27.4667 100.779 27.68C100.427 27.8933 100.144 28.1973 99.931 28.592V34H97.739ZM104.27 34V25.664H106.462V34H104.27ZM105.358 24.672C105.017 24.672 104.724 24.5493 104.478 24.304C104.233 24.0587 104.11 23.7653 104.11 23.424C104.11 23.072 104.233 22.7787 104.478 22.544C104.724 22.2987 105.017 22.176 105.358 22.176C105.71 22.176 106.004 22.2987 106.238 22.544C106.484 22.7787 106.606 23.072 106.606 23.424C106.606 23.7653 106.484 24.0587 106.238 24.304C106.004 24.5493 105.71 24.672 105.358 24.672ZM108.177 34V25.664H110.369V26.304C110.966 25.7707 111.691 25.504 112.545 25.504C113.089 25.504 113.574 25.616 114.001 25.84C114.427 26.0533 114.779 26.3573 115.057 26.752C115.398 26.3467 115.798 26.0373 116.257 25.824C116.726 25.6107 117.243 25.504 117.809 25.504C118.438 25.504 118.987 25.648 119.457 25.936C119.937 26.2133 120.31 26.6027 120.577 27.104C120.854 27.5947 120.993 28.1707 120.993 28.832V34H118.817V29.152C118.817 28.608 118.673 28.1813 118.385 27.872C118.097 27.552 117.713 27.392 117.233 27.392C116.902 27.392 116.598 27.4613 116.321 27.6C116.054 27.7387 115.825 27.9467 115.633 28.224C115.643 28.32 115.654 28.416 115.665 28.512C115.675 28.608 115.681 28.7147 115.681 28.832V34H113.489V29.152C113.489 28.608 113.345 28.1813 113.057 27.872C112.779 27.552 112.401 27.392 111.921 27.392C111.59 27.392 111.291 27.456 111.025 27.584C110.769 27.712 110.55 27.904 110.369 28.16V34H108.177ZM125.317 34.144C124.72 34.144 124.192 34.0373 123.733 33.824C123.274 33.6 122.917 33.296 122.661 32.912C122.405 32.528 122.277 32.0853 122.277 31.584C122.277 30.784 122.576 30.1653 123.173 29.728C123.781 29.28 124.613 29.056 125.669 29.056C126.394 29.056 127.077 29.168 127.717 29.392V28.784C127.717 28.304 127.568 27.9413 127.269 27.696C126.97 27.4507 126.533 27.328 125.957 27.328C125.605 27.328 125.226 27.3867 124.821 27.504C124.416 27.6107 123.946 27.7813 123.413 28.016L122.613 26.4C123.274 26.1013 123.904 25.8773 124.501 25.728C125.109 25.5787 125.717 25.504 126.325 25.504C127.445 25.504 128.314 25.776 128.933 26.32C129.562 26.8533 129.877 27.6107 129.877 28.592V34H127.717V33.408C127.376 33.664 127.008 33.8507 126.613 33.968C126.218 34.0853 125.786 34.144 125.317 34.144ZM124.357 31.536C124.357 31.856 124.496 32.112 124.773 32.304C125.05 32.4853 125.418 32.576 125.877 32.576C126.24 32.576 126.576 32.5333 126.885 32.448C127.194 32.352 127.472 32.2133 127.717 32.032V30.816C127.45 30.7093 127.173 30.6293 126.885 30.576C126.597 30.5227 126.288 30.496 125.957 30.496C125.456 30.496 125.061 30.592 124.773 30.784C124.496 30.9653 124.357 31.216 124.357 31.536ZM131.536 34V25.664H133.728V26.592C133.995 26.2293 134.315 25.952 134.688 25.76C135.061 25.568 135.483 25.472 135.952 25.472C136.357 25.4827 136.661 25.5467 136.864 25.664V27.584C136.704 27.5093 136.528 27.456 136.336 27.424C136.144 27.3813 135.947 27.36 135.744 27.36C135.317 27.36 134.928 27.4667 134.576 27.68C134.224 27.8933 133.941 28.1973 133.728 28.592V34H131.536ZM139.039 37.44C138.847 37.44 138.661 37.4293 138.479 37.408C138.309 37.3973 138.165 37.3813 138.047 37.36V35.472C138.261 35.5147 138.517 35.536 138.815 35.536C139.615 35.536 140.17 35.1573 140.479 34.4L140.607 34.08L137.359 25.664H139.775L141.855 31.344L144.207 25.664H146.575L142.735 34.672C142.447 35.344 142.133 35.8827 141.791 36.288C141.45 36.6933 141.055 36.9867 140.607 37.168C140.17 37.3493 139.647 37.44 139.039 37.44Z" fill="white"/>
<rect x="249.5" y="0.5" width="232" height="55" rx="3.5" stroke="#151515"/>
<path d="M329.008 34.16C328.101 34.16 327.216 33.9947 326.352 33.664C325.488 33.3227 324.72 32.8427 324.048 32.224L325.376 30.56C326.027 31.136 326.651 31.552 327.248 31.808C327.856 32.064 328.496 32.192 329.168 32.192C329.637 32.192 330.043 32.1387 330.384 32.032C330.725 31.9147 330.987 31.7493 331.168 31.536C331.36 31.3227 331.456 31.072 331.456 30.784C331.456 30.4 331.317 30.1067 331.04 29.904C330.763 29.6907 330.288 29.5253 329.616 29.408L327.392 29.024C326.443 28.864 325.717 28.528 325.216 28.016C324.725 27.504 324.48 26.8427 324.48 26.032C324.48 25.3387 324.656 24.736 325.008 24.224C325.371 23.712 325.877 23.3227 326.528 23.056C327.189 22.7787 327.973 22.64 328.88 22.64C329.701 22.64 330.517 22.7787 331.328 23.056C332.149 23.3333 332.875 23.7173 333.504 24.208L332.256 25.936C331.083 25.04 329.904 24.592 328.72 24.592C328.304 24.592 327.941 24.6453 327.632 24.752C327.323 24.8587 327.083 25.008 326.912 25.2C326.752 25.3813 326.672 25.6 326.672 25.856C326.672 26.1973 326.795 26.464 327.04 26.656C327.285 26.8373 327.696 26.976 328.272 27.072L330.384 27.424C331.504 27.6053 332.341 27.9627 332.896 28.496C333.451 29.0187 333.728 29.712 333.728 30.576C333.728 31.3013 333.536 31.936 333.152 32.48C332.768 33.0133 332.219 33.4293 331.504 33.728C330.8 34.016 329.968 34.16 329.008 34.16ZM339.194 34.16C338.362 34.16 337.605 33.968 336.922 33.584C336.25 33.2 335.717 32.6827 335.322 32.032C334.927 31.3813 334.73 30.6507 334.73 29.84C334.73 29.0293 334.917 28.2987 335.29 27.648C335.674 26.9973 336.191 26.48 336.842 26.096C337.493 25.712 338.218 25.52 339.018 25.52C339.818 25.52 340.527 25.7173 341.146 26.112C341.765 26.5067 342.25 27.04 342.602 27.712C342.965 28.384 343.146 29.1467 343.146 30V30.576H336.97C337.066 30.9067 337.221 31.2053 337.434 31.472C337.658 31.7387 337.93 31.9467 338.25 32.096C338.581 32.2453 338.933 32.32 339.306 32.32C339.679 32.32 340.021 32.2613 340.33 32.144C340.65 32.0267 340.922 31.8613 341.146 31.648L342.586 32.96C342.074 33.376 341.546 33.68 341.002 33.872C340.469 34.064 339.866 34.16 339.194 34.16ZM336.938 29.008H340.986C340.911 28.6773 340.773 28.3893 340.57 28.144C340.378 27.888 340.143 27.6907 339.866 27.552C339.599 27.4027 339.301 27.328 338.97 27.328C338.629 27.328 338.319 27.3973 338.042 27.536C337.765 27.6747 337.53 27.872 337.338 28.128C337.157 28.3733 337.023 28.6667 336.938 29.008ZM348.536 34.16C347.714 34.16 346.973 33.9733 346.312 33.6C345.65 33.216 345.128 32.6987 344.743 32.048C344.36 31.3867 344.168 30.6507 344.168 29.84C344.168 29.0187 344.36 28.2827 344.743 27.632C345.128 26.9813 345.65 26.464 346.312 26.08C346.973 25.696 347.714 25.504 348.536 25.504C349.197 25.504 349.826 25.632 350.424 25.888C351.032 26.144 351.554 26.512 351.992 26.992L350.648 28.416C350.338 28.0747 350.013 27.824 349.672 27.664C349.341 27.4933 348.978 27.408 348.584 27.408C348.157 27.408 347.773 27.5147 347.432 27.728C347.101 27.9413 346.834 28.2293 346.632 28.592C346.44 28.9547 346.344 29.3707 346.344 29.84C346.344 30.288 346.44 30.6987 346.632 31.072C346.834 31.4347 347.112 31.7227 347.464 31.936C347.816 32.1387 348.205 32.24 348.632 32.24C349.005 32.24 349.352 32.1653 349.672 32.016C350.002 31.856 350.317 31.6213 350.616 31.312L351.928 32.688C351.501 33.1467 350.989 33.5093 350.392 33.776C349.794 34.032 349.176 34.16 348.536 34.16ZM356.897 34.16C356.065 34.16 355.313 33.968 354.641 33.584C353.969 33.2 353.435 32.6827 353.041 32.032C352.646 31.3813 352.449 30.6507 352.449 29.84C352.449 29.0293 352.641 28.2987 353.025 27.648C353.419 26.9867 353.953 26.464 354.625 26.08C355.307 25.696 356.065 25.504 356.897 25.504C357.729 25.504 358.481 25.696 359.153 26.08C359.835 26.464 360.369 26.9867 360.753 27.648C361.147 28.2987 361.345 29.0293 361.345 29.84C361.345 30.6507 361.147 31.3813 360.753 32.032C360.369 32.6827 359.841 33.2 359.169 33.584C358.497 33.968 357.739 34.16 356.897 34.16ZM356.897 32.256C357.334 32.256 357.723 32.1493 358.065 31.936C358.417 31.7227 358.694 31.4347 358.897 31.072C359.11 30.6987 359.217 30.288 359.217 29.84C359.217 29.3813 359.11 28.9707 358.897 28.608C358.694 28.2453 358.417 27.9573 358.065 27.744C357.723 27.52 357.334 27.408 356.897 27.408C356.47 27.408 356.081 27.52 355.729 27.744C355.377 27.9573 355.099 28.2453 354.897 28.608C354.694 28.9707 354.593 29.3813 354.593 29.84C354.593 30.288 354.694 30.6987 354.897 31.072C355.099 31.4347 355.377 31.7227 355.729 31.936C356.081 32.1493 356.47 32.256 356.897 32.256ZM362.692 34V25.664H364.884V26.352C365.513 25.7867 366.292 25.504 367.22 25.504C367.871 25.504 368.441 25.648 368.932 25.936C369.433 26.2133 369.823 26.6027 370.1 27.104C370.377 27.5947 370.516 28.1707 370.516 28.832V34H368.324V29.152C368.324 28.608 368.169 28.1813 367.86 27.872C367.551 27.552 367.129 27.392 366.596 27.392C366.223 27.392 365.892 27.4667 365.604 27.616C365.316 27.7547 365.076 27.9573 364.884 28.224V34H362.692ZM376.033 34.112C375.243 34.112 374.529 33.92 373.889 33.536C373.249 33.152 372.737 32.64 372.353 32C371.979 31.3493 371.793 30.624 371.793 29.824C371.793 29.024 371.979 28.304 372.353 27.664C372.737 27.0133 373.254 26.5013 373.905 26.128C374.555 25.744 375.286 25.552 376.097 25.552C376.513 25.552 376.913 25.6107 377.297 25.728C377.681 25.8347 378.038 25.9947 378.369 26.208V22.8L380.561 22.432V34H378.401V33.312C377.718 33.8453 376.929 34.112 376.033 34.112ZM376.385 32.24C376.79 32.24 377.158 32.176 377.489 32.048C377.83 31.9093 378.123 31.7067 378.369 31.44V28.192C378.123 27.9467 377.83 27.7547 377.489 27.616C377.147 27.4773 376.779 27.408 376.385 27.408C375.926 27.408 375.51 27.5147 375.137 27.728C374.774 27.9307 374.486 28.2187 374.273 28.592C374.059 28.9547 373.953 29.3653 373.953 29.824C373.953 30.2827 374.059 30.6933 374.273 31.056C374.486 31.4187 374.774 31.7067 375.137 31.92C375.51 32.1333 375.926 32.24 376.385 32.24ZM384.926 34.144C384.329 34.144 383.801 34.0373 383.342 33.824C382.884 33.6 382.526 33.296 382.27 32.912C382.014 32.528 381.886 32.0853 381.886 31.584C381.886 30.784 382.185 30.1653 382.782 29.728C383.39 29.28 384.222 29.056 385.278 29.056C386.004 29.056 386.686 29.168 387.326 29.392V28.784C387.326 28.304 387.177 27.9413 386.878 27.696C386.58 27.4507 386.142 27.328 385.566 27.328C385.214 27.328 384.836 27.3867 384.43 27.504C384.025 27.6107 383.556 27.7813 383.022 28.016L382.222 26.4C382.884 26.1013 383.513 25.8773 384.11 25.728C384.718 25.5787 385.326 25.504 385.934 25.504C387.054 25.504 387.924 25.776 388.542 26.32C389.172 26.8533 389.486 27.6107 389.486 28.592V34H387.326V33.408C386.985 33.664 386.617 33.8507 386.222 33.968C385.828 34.0853 385.396 34.144 384.926 34.144ZM383.966 31.536C383.966 31.856 384.105 32.112 384.382 32.304C384.66 32.4853 385.028 32.576 385.486 32.576C385.849 32.576 386.185 32.5333 386.494 32.448C386.804 32.352 387.081 32.2133 387.326 32.032V30.816C387.06 30.7093 386.782 30.6293 386.494 30.576C386.206 30.5227 385.897 30.496 385.566 30.496C385.065 30.496 384.67 30.592 384.382 30.784C384.105 30.9653 383.966 31.216 383.966 31.536ZM391.145 34V25.664H393.337V26.592C393.604 26.2293 393.924 25.952 394.297 25.76C394.671 25.568 395.092 25.472 395.561 25.472C395.967 25.4827 396.271 25.5467 396.473 25.664V27.584C396.313 27.5093 396.137 27.456 395.945 27.424C395.753 27.3813 395.556 27.36 395.353 27.36C394.927 27.36 394.537 27.4667 394.185 27.68C393.833 27.8933 393.551 28.1973 393.337 28.592V34H391.145ZM398.649 37.44C398.457 37.44 398.27 37.4293 398.089 37.408C397.918 37.3973 397.774 37.3813 397.657 37.36V35.472C397.87 35.5147 398.126 35.536 398.425 35.536C399.225 35.536 399.779 35.1573 400.089 34.4L400.217 34.08L396.969 25.664H399.385L401.465 31.344L403.817 25.664H406.185L402.345 34.672C402.057 35.344 401.742 35.8827 401.401 36.288C401.059 36.6933 400.665 36.9867 400.217 37.168C399.779 37.3493 399.257 37.44 398.649 37.44Z" fill="#151515"/>
</svg>
