<svg width="450" height="56" viewBox="0 0 450 56" fill="none" xmlns="http://www.w3.org/2000/svg">
<rect x="0.5" width="104" height="56" rx="3" fill="#EE0000"/>
<path d="M36.564 34V24.848H32.788V22.8H42.644V24.848H38.884V34H36.564ZM43.114 34V25.664H45.306V26.592C45.5727 26.2293 45.8927 25.952 46.266 25.76C46.6393 25.568 47.0607 25.472 47.53 25.472C47.9353 25.4827 48.2393 25.5467 48.442 25.664V27.584C48.282 27.5093 48.106 27.456 47.914 27.424C47.722 27.3813 47.5247 27.36 47.322 27.36C46.8953 27.36 46.506 27.4667 46.154 27.68C45.802 27.8933 45.5193 28.1973 45.306 28.592V34H43.114ZM50.6175 37.44C50.4255 37.44 50.2388 37.4293 50.0575 37.408C49.8868 37.3973 49.7428 37.3813 49.6255 37.36V35.472C49.8388 35.5147 50.0948 35.536 50.3935 35.536C51.1935 35.536 51.7482 35.1573 52.0575 34.4L52.1855 34.08L48.9375 25.664H51.3535L53.4335 31.344L55.7855 25.664H58.1535L54.3135 34.672C54.0255 35.344 53.7108 35.8827 53.3695 36.288C53.0282 36.6933 52.6335 36.9867 52.1855 37.168C51.7482 37.3493 51.2255 37.44 50.6175 37.44ZM62.2546 34V25.664H64.4466V34H62.2546ZM63.3426 24.672C63.0013 24.672 62.708 24.5493 62.4626 24.304C62.2173 24.0587 62.0946 23.7653 62.0946 23.424C62.0946 23.072 62.2173 22.7787 62.4626 22.544C62.708 22.2987 63.0013 22.176 63.3426 22.176C63.6946 22.176 63.988 22.2987 64.2226 22.544C64.468 22.7787 64.5906 23.072 64.5906 23.424C64.5906 23.7653 64.468 24.0587 64.2226 24.304C63.988 24.5493 63.6946 24.672 63.3426 24.672ZM70.1129 34.128C69.1849 34.128 68.4809 33.92 68.0009 33.504C67.5315 33.0773 67.2969 32.4587 67.2969 31.648V27.488H65.5849V25.664H67.2969V23.536L69.4889 23.04V25.664H71.8729V27.488H69.4889V31.2C69.4889 31.584 69.5742 31.8613 69.7449 32.032C69.9155 32.192 70.2142 32.272 70.6409 32.272C70.8542 32.272 71.0462 32.2613 71.2169 32.24C71.3982 32.208 71.5955 32.1547 71.8089 32.08V33.888C71.5849 33.9627 71.3022 34.0213 70.9609 34.064C70.6302 34.1067 70.3475 34.128 70.1129 34.128Z" fill="white"/>
<rect x="129" y="0.5" width="107" height="55" rx="3.5" stroke="#151515"/>
<path d="M161.508 34V22.8H166.772C167.529 22.8 168.191 22.928 168.756 23.184C169.321 23.44 169.764 23.8027 170.084 24.272C170.404 24.7307 170.564 25.264 170.564 25.872C170.564 26.3627 170.436 26.816 170.18 27.232C169.935 27.6373 169.599 27.968 169.172 28.224C169.716 28.48 170.148 28.8267 170.468 29.264C170.788 29.7013 170.948 30.1973 170.948 30.752C170.948 31.392 170.783 31.9573 170.452 32.448C170.132 32.9387 169.673 33.3227 169.076 33.6C168.489 33.8667 167.807 34 167.028 34H161.508ZM163.828 27.376H166.628C167.129 27.376 167.524 27.2587 167.812 27.024C168.111 26.7787 168.26 26.4533 168.26 26.048C168.26 25.6427 168.111 25.3227 167.812 25.088C167.524 24.8427 167.129 24.72 166.628 24.72H163.828V27.376ZM163.828 32.08H166.852C167.385 32.08 167.812 31.952 168.132 31.696C168.452 31.4293 168.612 31.0773 168.612 30.64C168.612 30.192 168.452 29.84 168.132 29.584C167.812 29.3173 167.385 29.184 166.852 29.184H163.828V32.08ZM175.502 34.16C174.862 34.16 174.292 34.0213 173.79 33.744C173.3 33.456 172.91 33.0613 172.622 32.56C172.345 32.0587 172.206 31.4827 172.206 30.832V25.664H174.398V30.512C174.398 31.0453 174.553 31.472 174.862 31.792C175.182 32.112 175.609 32.272 176.142 32.272C176.505 32.272 176.83 32.2027 177.118 32.064C177.417 31.9147 177.662 31.7067 177.854 31.44V25.664H180.046V34H177.854V33.328C177.214 33.8827 176.43 34.16 175.502 34.16ZM182.571 37.44C182.379 37.44 182.192 37.4293 182.011 37.408C181.84 37.3973 181.696 37.3813 181.579 37.36V35.472C181.792 35.5147 182.048 35.536 182.347 35.536C183.147 35.536 183.701 35.1573 184.011 34.4L184.139 34.08L180.891 25.664H183.307L185.387 31.344L187.739 25.664H190.107L186.267 34.672C185.979 35.344 185.664 35.8827 185.323 36.288C184.981 36.6933 184.587 36.9867 184.139 37.168C183.701 37.3493 183.179 37.44 182.571 37.44ZM194.208 34V25.664H196.4V34H194.208ZM195.296 24.672C194.954 24.672 194.661 24.5493 194.416 24.304C194.17 24.0587 194.048 23.7653 194.048 23.424C194.048 23.072 194.17 22.7787 194.416 22.544C194.661 22.2987 194.954 22.176 195.296 22.176C195.648 22.176 195.941 22.2987 196.176 22.544C196.421 22.7787 196.544 23.072 196.544 23.424C196.544 23.7653 196.421 24.0587 196.176 24.304C195.941 24.5493 195.648 24.672 195.296 24.672ZM202.066 34.128C201.138 34.128 200.434 33.92 199.954 33.504C199.485 33.0773 199.25 32.4587 199.25 31.648V27.488H197.538V25.664H199.25V23.536L201.442 23.04V25.664H203.826V27.488H201.442V31.2C201.442 31.584 201.527 31.8613 201.698 32.032C201.869 32.192 202.167 32.272 202.594 32.272C202.807 32.272 202.999 32.2613 203.17 32.24C203.351 32.208 203.549 32.1547 203.762 32.08V33.888C203.538 33.9627 203.255 34.0213 202.914 34.064C202.583 34.1067 202.301 34.128 202.066 34.128Z" fill="#151515"/>
<rect x="261" y="0.5" width="188" height="55" rx="2.5" stroke="#151515"/>
<path d="M299.028 34.16C298.196 34.16 297.417 34.016 296.692 33.728C295.967 33.4293 295.332 33.0187 294.788 32.496C294.255 31.9733 293.833 31.3653 293.524 30.672C293.225 29.968 293.076 29.2107 293.076 28.4C293.076 27.5787 293.225 26.8213 293.524 26.128C293.833 25.424 294.26 24.8107 294.804 24.288C295.348 23.7653 295.977 23.36 296.692 23.072C297.417 22.7733 298.196 22.624 299.028 22.624C299.647 22.624 300.244 22.7093 300.82 22.88C301.396 23.0507 301.929 23.2907 302.42 23.6C302.921 23.9093 303.348 24.2827 303.7 24.72L302.132 26.272C301.727 25.7707 301.257 25.392 300.724 25.136C300.201 24.88 299.636 24.752 299.028 24.752C298.527 24.752 298.057 24.848 297.62 25.04C297.183 25.2213 296.804 25.4773 296.484 25.808C296.164 26.128 295.913 26.512 295.732 26.96C295.551 27.3973 295.46 27.8773 295.46 28.4C295.46 28.912 295.551 29.392 295.732 29.84C295.913 30.2773 296.169 30.6613 296.5 30.992C296.831 31.312 297.215 31.5627 297.652 31.744C298.1 31.9253 298.585 32.016 299.108 32.016C299.695 32.016 300.244 31.8933 300.756 31.648C301.268 31.4027 301.721 31.0507 302.116 30.592L303.636 32.096C303.284 32.5227 302.863 32.8907 302.372 33.2C301.881 33.5093 301.348 33.7493 300.772 33.92C300.207 34.08 299.625 34.16 299.028 34.16ZM308.678 34.16C307.846 34.16 307.094 33.968 306.422 33.584C305.75 33.2 305.217 32.6827 304.822 32.032C304.427 31.3813 304.23 30.6507 304.23 29.84C304.23 29.0293 304.422 28.2987 304.806 27.648C305.201 26.9867 305.734 26.464 306.406 26.08C307.089 25.696 307.846 25.504 308.678 25.504C309.51 25.504 310.262 25.696 310.934 26.08C311.617 26.464 312.15 26.9867 312.534 27.648C312.929 28.2987 313.126 29.0293 313.126 29.84C313.126 30.6507 312.929 31.3813 312.534 32.032C312.15 32.6827 311.622 33.2 310.95 33.584C310.278 33.968 309.521 34.16 308.678 34.16ZM308.678 32.256C309.115 32.256 309.505 32.1493 309.846 31.936C310.198 31.7227 310.475 31.4347 310.678 31.072C310.891 30.6987 310.998 30.288 310.998 29.84C310.998 29.3813 310.891 28.9707 310.678 28.608C310.475 28.2453 310.198 27.9573 309.846 27.744C309.505 27.52 309.115 27.408 308.678 27.408C308.251 27.408 307.862 27.52 307.51 27.744C307.158 27.9573 306.881 28.2453 306.678 28.608C306.475 28.9707 306.374 29.3813 306.374 29.84C306.374 30.288 306.475 30.6987 306.678 31.072C306.881 31.4347 307.158 31.7227 307.51 31.936C307.862 32.1493 308.251 32.256 308.678 32.256ZM314.473 34V25.664H316.665V26.352C317.295 25.7867 318.073 25.504 319.001 25.504C319.652 25.504 320.223 25.648 320.713 25.936C321.215 26.2133 321.604 26.6027 321.881 27.104C322.159 27.5947 322.297 28.1707 322.297 28.832V34H320.105V29.152C320.105 28.608 319.951 28.1813 319.641 27.872C319.332 27.552 318.911 27.392 318.377 27.392C318.004 27.392 317.673 27.4667 317.385 27.616C317.097 27.7547 316.857 27.9573 316.665 28.224V34H314.473ZM327.675 34.128C326.747 34.128 326.043 33.92 325.563 33.504C325.094 33.0773 324.859 32.4587 324.859 31.648V27.488H323.147V25.664H324.859V23.536L327.051 23.04V25.664H329.435V27.488H327.051V31.2C327.051 31.584 327.137 31.8613 327.307 32.032C327.478 32.192 327.777 32.272 328.203 32.272C328.417 32.272 328.609 32.2613 328.779 32.24C328.961 32.208 329.158 32.1547 329.371 32.08V33.888C329.147 33.9627 328.865 34.0213 328.523 34.064C328.193 34.1067 327.91 34.128 327.675 34.128ZM333.161 34.144C332.563 34.144 332.035 34.0373 331.577 33.824C331.118 33.6 330.761 33.296 330.505 32.912C330.249 32.528 330.121 32.0853 330.121 31.584C330.121 30.784 330.419 30.1653 331.017 29.728C331.625 29.28 332.457 29.056 333.513 29.056C334.238 29.056 334.921 29.168 335.561 29.392V28.784C335.561 28.304 335.411 27.9413 335.113 27.696C334.814 27.4507 334.377 27.328 333.801 27.328C333.449 27.328 333.07 27.3867 332.665 27.504C332.259 27.6107 331.79 27.7813 331.257 28.016L330.457 26.4C331.118 26.1013 331.747 25.8773 332.345 25.728C332.953 25.5787 333.561 25.504 334.169 25.504C335.289 25.504 336.158 25.776 336.777 26.32C337.406 26.8533 337.721 27.6107 337.721 28.592V34H335.561V33.408C335.219 33.664 334.851 33.8507 334.457 33.968C334.062 34.0853 333.63 34.144 333.161 34.144ZM332.201 31.536C332.201 31.856 332.339 32.112 332.617 32.304C332.894 32.4853 333.262 32.576 333.721 32.576C334.083 32.576 334.419 32.5333 334.729 32.448C335.038 32.352 335.315 32.2133 335.561 32.032V30.816C335.294 30.7093 335.017 30.6293 334.729 30.576C334.441 30.5227 334.131 30.496 333.801 30.496C333.299 30.496 332.905 30.592 332.617 30.784C332.339 30.9653 332.201 31.216 332.201 31.536ZM343.364 34.16C342.542 34.16 341.801 33.9733 341.14 33.6C340.478 33.216 339.956 32.6987 339.572 32.048C339.188 31.3867 338.996 30.6507 338.996 29.84C338.996 29.0187 339.188 28.2827 339.572 27.632C339.956 26.9813 340.478 26.464 341.14 26.08C341.801 25.696 342.542 25.504 343.364 25.504C344.025 25.504 344.654 25.632 345.252 25.888C345.86 26.144 346.382 26.512 346.82 26.992L345.476 28.416C345.166 28.0747 344.841 27.824 344.5 27.664C344.169 27.4933 343.806 27.408 343.412 27.408C342.985 27.408 342.601 27.5147 342.26 27.728C341.929 27.9413 341.662 28.2293 341.46 28.592C341.268 28.9547 341.172 29.3707 341.172 29.84C341.172 30.288 341.268 30.6987 341.46 31.072C341.662 31.4347 341.94 31.7227 342.292 31.936C342.644 32.1387 343.033 32.24 343.46 32.24C343.833 32.24 344.18 32.1653 344.5 32.016C344.83 31.856 345.145 31.6213 345.444 31.312L346.756 32.688C346.329 33.1467 345.817 33.5093 345.22 33.776C344.622 34.032 344.004 34.16 343.364 34.16ZM352.004 34.128C351.076 34.128 350.372 33.92 349.892 33.504C349.422 33.0773 349.188 32.4587 349.188 31.648V27.488H347.476V25.664H349.188V23.536L351.38 23.04V25.664H353.764V27.488H351.38V31.2C351.38 31.584 351.465 31.8613 351.636 32.032C351.806 32.192 352.105 32.272 352.532 32.272C352.745 32.272 352.937 32.2613 353.108 32.24C353.289 32.208 353.486 32.1547 353.7 32.08V33.888C353.476 33.9627 353.193 34.0213 352.852 34.064C352.521 34.1067 352.238 34.128 352.004 34.128ZM358.196 34V22.8H363.668C364.425 22.8 365.092 22.9493 365.668 23.248C366.254 23.536 366.708 23.9413 367.028 24.464C367.358 24.9867 367.524 25.5893 367.524 26.272C367.524 26.9867 367.326 27.616 366.932 28.16C366.537 28.704 366.009 29.1093 365.348 29.376L367.828 34H365.236L363.044 29.712H360.516V34H358.196ZM360.516 27.808H363.46C363.982 27.808 364.398 27.6693 364.708 27.392C365.028 27.1147 365.188 26.752 365.188 26.304C365.188 25.856 365.028 25.4933 364.708 25.216C364.398 24.9387 363.982 24.8 363.46 24.8H360.516V27.808ZM372.507 34.16C371.675 34.16 370.917 33.968 370.235 33.584C369.563 33.2 369.029 32.6827 368.635 32.032C368.24 31.3813 368.043 30.6507 368.043 29.84C368.043 29.0293 368.229 28.2987 368.603 27.648C368.987 26.9973 369.504 26.48 370.155 26.096C370.805 25.712 371.531 25.52 372.331 25.52C373.131 25.52 373.84 25.7173 374.459 26.112C375.077 26.5067 375.563 27.04 375.915 27.712C376.277 28.384 376.459 29.1467 376.459 30V30.576H370.283C370.379 30.9067 370.533 31.2053 370.747 31.472C370.971 31.7387 371.243 31.9467 371.562 32.096C371.893 32.2453 372.245 32.32 372.619 32.32C372.992 32.32 373.333 32.2613 373.643 32.144C373.963 32.0267 374.235 31.8613 374.459 31.648L375.899 32.96C375.387 33.376 374.859 33.68 374.315 33.872C373.781 34.064 373.179 34.16 372.507 34.16ZM370.251 29.008H374.299C374.224 28.6773 374.085 28.3893 373.883 28.144C373.691 27.888 373.456 27.6907 373.179 27.552C372.912 27.4027 372.613 27.328 372.283 27.328C371.941 27.328 371.632 27.3973 371.355 27.536C371.077 27.6747 370.843 27.872 370.651 28.128C370.469 28.3733 370.336 28.6667 370.251 29.008ZM381.72 34.112C380.931 34.112 380.216 33.92 379.576 33.536C378.936 33.152 378.424 32.64 378.04 32C377.667 31.3493 377.48 30.624 377.48 29.824C377.48 29.024 377.667 28.304 378.04 27.664C378.424 27.0133 378.941 26.5013 379.592 26.128C380.243 25.744 380.973 25.552 381.784 25.552C382.2 25.552 382.6 25.6107 382.984 25.728C383.368 25.8347 383.725 25.9947 384.056 26.208V22.8L386.248 22.432V34H384.088V33.312C383.405 33.8453 382.616 34.112 381.72 34.112ZM382.072 32.24C382.477 32.24 382.845 32.176 383.176 32.048C383.517 31.9093 383.811 31.7067 384.056 31.44V28.192C383.811 27.9467 383.517 27.7547 383.176 27.616C382.835 27.4773 382.467 27.408 382.072 27.408C381.613 27.408 381.197 27.5147 380.824 27.728C380.461 27.9307 380.173 28.2187 379.96 28.592C379.747 28.9547 379.64 29.3653 379.64 29.824C379.64 30.2827 379.747 30.6933 379.96 31.056C380.173 31.4187 380.461 31.7067 380.824 31.92C381.197 32.1333 381.613 32.24 382.072 32.24ZM391.321 34V22.8H393.641V27.312H398.793V22.8H401.113V34H398.793V29.408H393.641V34H391.321ZM405.504 34.144C404.907 34.144 404.379 34.0373 403.92 33.824C403.462 33.6 403.104 33.296 402.848 32.912C402.592 32.528 402.464 32.0853 402.464 31.584C402.464 30.784 402.763 30.1653 403.36 29.728C403.968 29.28 404.8 29.056 405.856 29.056C406.582 29.056 407.264 29.168 407.904 29.392V28.784C407.904 28.304 407.755 27.9413 407.456 27.696C407.158 27.4507 406.72 27.328 406.144 27.328C405.792 27.328 405.414 27.3867 405.008 27.504C404.603 27.6107 404.134 27.7813 403.6 28.016L402.8 26.4C403.462 26.1013 404.091 25.8773 404.688 25.728C405.296 25.5787 405.904 25.504 406.512 25.504C407.632 25.504 408.502 25.776 409.12 26.32C409.75 26.8533 410.064 27.6107 410.064 28.592V34H407.904V33.408C407.563 33.664 407.195 33.8507 406.8 33.968C406.406 34.0853 405.974 34.144 405.504 34.144ZM404.544 31.536C404.544 31.856 404.683 32.112 404.96 32.304C405.238 32.4853 405.606 32.576 406.064 32.576C406.427 32.576 406.763 32.5333 407.072 32.448C407.382 32.352 407.659 32.2133 407.904 32.032V30.816C407.638 30.7093 407.36 30.6293 407.072 30.576C406.784 30.5227 406.475 30.496 406.144 30.496C405.643 30.496 405.248 30.592 404.96 30.784C404.683 30.9653 404.544 31.216 404.544 31.536ZM415.441 34.128C414.513 34.128 413.809 33.92 413.329 33.504C412.86 33.0773 412.625 32.4587 412.625 31.648V27.488H410.913V25.664H412.625V23.536L414.817 23.04V25.664H417.201V27.488H414.817V31.2C414.817 31.584 414.902 31.8613 415.073 32.032C415.244 32.192 415.542 32.272 415.969 32.272C416.182 32.272 416.374 32.2613 416.545 32.24C416.726 32.208 416.924 32.1547 417.137 32.08V33.888C416.913 33.9627 416.63 34.0213 416.289 34.064C415.958 34.1067 415.676 34.128 415.441 34.128Z" fill="#151515"/>
</svg>
