<svg width="436" height="56" viewBox="0 0 436 56" fill="none" xmlns="http://www.w3.org/2000/svg">
<rect width="125" height="56" rx="3" fill="#EE0000"/>
<path d="M33.008 34V22.8H38.624C39.36 22.8 40.0053 22.9493 40.56 23.248C41.1253 23.5467 41.568 23.9627 41.888 24.496C42.208 25.0187 42.368 25.6267 42.368 26.32C42.368 26.9813 42.208 27.5733 41.888 28.096C41.568 28.6187 41.1253 29.0293 40.56 29.328C39.9947 29.6267 39.3493 29.776 38.624 29.776H35.328V34H33.008ZM35.328 27.856H38.368C38.8693 27.856 39.2693 27.7173 39.568 27.44C39.8773 27.1627 40.032 26.7947 40.032 26.336C40.032 25.8667 39.8773 25.4933 39.568 25.216C39.2693 24.9387 38.8693 24.8 38.368 24.8H35.328V27.856ZM43.739 34V25.664H45.931V26.592C46.1977 26.2293 46.5177 25.952 46.891 25.76C47.2643 25.568 47.6857 25.472 48.155 25.472C48.5603 25.4827 48.8643 25.5467 49.067 25.664V27.584C48.907 27.5093 48.731 27.456 48.539 27.424C48.347 27.3813 48.1497 27.36 47.947 27.36C47.5203 27.36 47.131 27.4667 46.779 27.68C46.427 27.8933 46.1443 28.1973 45.931 28.592V34H43.739ZM50.2703 34V25.664H52.4623V34H50.2703ZM51.3583 24.672C51.0169 24.672 50.7236 24.5493 50.4783 24.304C50.2329 24.0587 50.1103 23.7653 50.1103 23.424C50.1103 23.072 50.2329 22.7787 50.4783 22.544C50.7236 22.2987 51.0169 22.176 51.3583 22.176C51.7103 22.176 52.0036 22.2987 52.2383 22.544C52.4836 22.7787 52.6063 23.072 52.6063 23.424C52.6063 23.7653 52.4836 24.0587 52.2383 24.304C52.0036 24.5493 51.7103 24.672 51.3583 24.672ZM54.1765 34V25.664H56.3685V26.304C56.9658 25.7707 57.6912 25.504 58.5445 25.504C59.0885 25.504 59.5738 25.616 60.0005 25.84C60.4272 26.0533 60.7792 26.3573 61.0565 26.752C61.3978 26.3467 61.7978 26.0373 62.2565 25.824C62.7258 25.6107 63.2432 25.504 63.8085 25.504C64.4378 25.504 64.9872 25.648 65.4565 25.936C65.9365 26.2133 66.3098 26.6027 66.5765 27.104C66.8538 27.5947 66.9925 28.1707 66.9925 28.832V34H64.8165V29.152C64.8165 28.608 64.6725 28.1813 64.3845 27.872C64.0965 27.552 63.7125 27.392 63.2325 27.392C62.9018 27.392 62.5978 27.4613 62.3205 27.6C62.0538 27.7387 61.8245 27.9467 61.6325 28.224C61.6432 28.32 61.6538 28.416 61.6645 28.512C61.6752 28.608 61.6805 28.7147 61.6805 28.832V34H59.4885V29.152C59.4885 28.608 59.3445 28.1813 59.0565 27.872C58.7792 27.552 58.4005 27.392 57.9205 27.392C57.5898 27.392 57.2912 27.456 57.0245 27.584C56.7685 27.712 56.5498 27.904 56.3685 28.16V34H54.1765ZM71.3169 34.144C70.7195 34.144 70.1915 34.0373 69.7329 33.824C69.2742 33.6 68.9169 33.296 68.6609 32.912C68.4049 32.528 68.2769 32.0853 68.2769 31.584C68.2769 30.784 68.5755 30.1653 69.1729 29.728C69.7809 29.28 70.6129 29.056 71.6689 29.056C72.3942 29.056 73.0769 29.168 73.7169 29.392V28.784C73.7169 28.304 73.5675 27.9413 73.2689 27.696C72.9702 27.4507 72.5329 27.328 71.9569 27.328C71.6049 27.328 71.2262 27.3867 70.8209 27.504C70.4155 27.6107 69.9462 27.7813 69.4129 28.016L68.6129 26.4C69.2742 26.1013 69.9035 25.8773 70.5009 25.728C71.1089 25.5787 71.7169 25.504 72.3249 25.504C73.4449 25.504 74.3142 25.776 74.9329 26.32C75.5622 26.8533 75.8769 27.6107 75.8769 28.592V34H73.7169V33.408C73.3755 33.664 73.0075 33.8507 72.6129 33.968C72.2182 34.0853 71.7862 34.144 71.3169 34.144ZM70.3569 31.536C70.3569 31.856 70.4955 32.112 70.7729 32.304C71.0502 32.4853 71.4182 32.576 71.8769 32.576C72.2395 32.576 72.5755 32.5333 72.8849 32.448C73.1942 32.352 73.4715 32.2133 73.7169 32.032V30.816C73.4502 30.7093 73.1729 30.6293 72.8849 30.576C72.5969 30.5227 72.2875 30.496 71.9569 30.496C71.4555 30.496 71.0609 30.592 70.7729 30.784C70.4955 30.9653 70.3569 31.216 70.3569 31.536ZM77.5359 34V25.664H79.7279V26.592C79.9945 26.2293 80.3145 25.952 80.6879 25.76C81.0612 25.568 81.4825 25.472 81.9519 25.472C82.3572 25.4827 82.6612 25.5467 82.8639 25.664V27.584C82.7039 27.5093 82.5279 27.456 82.3359 27.424C82.1439 27.3813 81.9465 27.36 81.7439 27.36C81.3172 27.36 80.9279 27.4667 80.5759 27.68C80.2239 27.8933 79.9412 28.1973 79.7279 28.592V34H77.5359ZM85.0394 37.44C84.8474 37.44 84.6607 37.4293 84.4794 37.408C84.3087 37.3973 84.1647 37.3813 84.0474 37.36V35.472C84.2607 35.5147 84.5167 35.536 84.8154 35.536C85.6154 35.536 86.17 35.1573 86.4794 34.4L86.6074 34.08L83.3594 25.664H85.7754L87.8554 31.344L90.2074 25.664H92.5754L88.7354 34.672C88.4474 35.344 88.1327 35.8827 87.7914 36.288C87.45 36.6933 87.0554 36.9867 86.6074 37.168C86.17 37.3493 85.6474 37.44 85.0394 37.44Z" fill="white"/>
<rect x="157.5" y="0.5" width="146" height="55" rx="2.5" stroke="#151515"/>
<path d="M194.008 34.16C193.101 34.16 192.216 33.9947 191.352 33.664C190.488 33.3227 189.72 32.8427 189.048 32.224L190.376 30.56C191.027 31.136 191.651 31.552 192.248 31.808C192.856 32.064 193.496 32.192 194.168 32.192C194.637 32.192 195.043 32.1387 195.384 32.032C195.725 31.9147 195.987 31.7493 196.168 31.536C196.36 31.3227 196.456 31.072 196.456 30.784C196.456 30.4 196.317 30.1067 196.04 29.904C195.763 29.6907 195.288 29.5253 194.616 29.408L192.392 29.024C191.443 28.864 190.717 28.528 190.216 28.016C189.725 27.504 189.48 26.8427 189.48 26.032C189.48 25.3387 189.656 24.736 190.008 24.224C190.371 23.712 190.877 23.3227 191.528 23.056C192.189 22.7787 192.973 22.64 193.88 22.64C194.701 22.64 195.517 22.7787 196.328 23.056C197.149 23.3333 197.875 23.7173 198.504 24.208L197.256 25.936C196.083 25.04 194.904 24.592 193.72 24.592C193.304 24.592 192.941 24.6453 192.632 24.752C192.323 24.8587 192.083 25.008 191.912 25.2C191.752 25.3813 191.672 25.6 191.672 25.856C191.672 26.1973 191.795 26.464 192.04 26.656C192.285 26.8373 192.696 26.976 193.272 27.072L195.384 27.424C196.504 27.6053 197.341 27.9627 197.896 28.496C198.451 29.0187 198.728 29.712 198.728 30.576C198.728 31.3013 198.536 31.936 198.152 32.48C197.768 33.0133 197.219 33.4293 196.504 33.728C195.8 34.016 194.968 34.16 194.008 34.16ZM204.194 34.16C203.362 34.16 202.605 33.968 201.922 33.584C201.25 33.2 200.717 32.6827 200.322 32.032C199.927 31.3813 199.73 30.6507 199.73 29.84C199.73 29.0293 199.917 28.2987 200.29 27.648C200.674 26.9973 201.191 26.48 201.842 26.096C202.493 25.712 203.218 25.52 204.018 25.52C204.818 25.52 205.527 25.7173 206.146 26.112C206.765 26.5067 207.25 27.04 207.602 27.712C207.965 28.384 208.146 29.1467 208.146 30V30.576H201.97C202.066 30.9067 202.221 31.2053 202.434 31.472C202.658 31.7387 202.93 31.9467 203.25 32.096C203.581 32.2453 203.933 32.32 204.306 32.32C204.679 32.32 205.021 32.2613 205.33 32.144C205.65 32.0267 205.922 31.8613 206.146 31.648L207.586 32.96C207.074 33.376 206.546 33.68 206.002 33.872C205.469 34.064 204.866 34.16 204.194 34.16ZM201.938 29.008H205.986C205.911 28.6773 205.773 28.3893 205.57 28.144C205.378 27.888 205.143 27.6907 204.866 27.552C204.599 27.4027 204.301 27.328 203.97 27.328C203.629 27.328 203.319 27.3973 203.042 27.536C202.765 27.6747 202.53 27.872 202.338 28.128C202.157 28.3733 202.023 28.6667 201.938 29.008ZM213.536 34.16C212.714 34.16 211.973 33.9733 211.312 33.6C210.65 33.216 210.128 32.6987 209.743 32.048C209.36 31.3867 209.168 30.6507 209.168 29.84C209.168 29.0187 209.36 28.2827 209.743 27.632C210.128 26.9813 210.65 26.464 211.312 26.08C211.973 25.696 212.714 25.504 213.536 25.504C214.197 25.504 214.826 25.632 215.424 25.888C216.032 26.144 216.554 26.512 216.992 26.992L215.648 28.416C215.338 28.0747 215.013 27.824 214.672 27.664C214.341 27.4933 213.978 27.408 213.584 27.408C213.157 27.408 212.773 27.5147 212.432 27.728C212.101 27.9413 211.834 28.2293 211.632 28.592C211.44 28.9547 211.344 29.3707 211.344 29.84C211.344 30.288 211.44 30.6987 211.632 31.072C211.834 31.4347 212.112 31.7227 212.464 31.936C212.816 32.1387 213.205 32.24 213.632 32.24C214.005 32.24 214.352 32.1653 214.672 32.016C215.002 31.856 215.317 31.6213 215.616 31.312L216.928 32.688C216.501 33.1467 215.989 33.5093 215.392 33.776C214.794 34.032 214.176 34.16 213.536 34.16ZM221.897 34.16C221.065 34.16 220.313 33.968 219.641 33.584C218.969 33.2 218.435 32.6827 218.041 32.032C217.646 31.3813 217.449 30.6507 217.449 29.84C217.449 29.0293 217.641 28.2987 218.025 27.648C218.419 26.9867 218.953 26.464 219.625 26.08C220.307 25.696 221.065 25.504 221.897 25.504C222.729 25.504 223.481 25.696 224.153 26.08C224.835 26.464 225.369 26.9867 225.753 27.648C226.147 28.2987 226.345 29.0293 226.345 29.84C226.345 30.6507 226.147 31.3813 225.753 32.032C225.369 32.6827 224.841 33.2 224.169 33.584C223.497 33.968 222.739 34.16 221.897 34.16ZM221.897 32.256C222.334 32.256 222.723 32.1493 223.065 31.936C223.417 31.7227 223.694 31.4347 223.897 31.072C224.11 30.6987 224.217 30.288 224.217 29.84C224.217 29.3813 224.11 28.9707 223.897 28.608C223.694 28.2453 223.417 27.9573 223.065 27.744C222.723 27.52 222.334 27.408 221.897 27.408C221.47 27.408 221.081 27.52 220.729 27.744C220.377 27.9573 220.099 28.2453 219.897 28.608C219.694 28.9707 219.593 29.3813 219.593 29.84C219.593 30.288 219.694 30.6987 219.897 31.072C220.099 31.4347 220.377 31.7227 220.729 31.936C221.081 32.1493 221.47 32.256 221.897 32.256ZM227.692 34V25.664H229.884V26.352C230.513 25.7867 231.292 25.504 232.22 25.504C232.871 25.504 233.441 25.648 233.932 25.936C234.433 26.2133 234.823 26.6027 235.1 27.104C235.377 27.5947 235.516 28.1707 235.516 28.832V34H233.324V29.152C233.324 28.608 233.169 28.1813 232.86 27.872C232.551 27.552 232.129 27.392 231.596 27.392C231.223 27.392 230.892 27.4667 230.604 27.616C230.316 27.7547 230.076 27.9573 229.884 28.224V34H227.692ZM241.033 34.112C240.243 34.112 239.529 33.92 238.889 33.536C238.249 33.152 237.737 32.64 237.353 32C236.979 31.3493 236.793 30.624 236.793 29.824C236.793 29.024 236.979 28.304 237.353 27.664C237.737 27.0133 238.254 26.5013 238.905 26.128C239.555 25.744 240.286 25.552 241.097 25.552C241.513 25.552 241.913 25.6107 242.297 25.728C242.681 25.8347 243.038 25.9947 243.369 26.208V22.8L245.561 22.432V34H243.401V33.312C242.718 33.8453 241.929 34.112 241.033 34.112ZM241.385 32.24C241.79 32.24 242.158 32.176 242.489 32.048C242.83 31.9093 243.123 31.7067 243.369 31.44V28.192C243.123 27.9467 242.83 27.7547 242.489 27.616C242.147 27.4773 241.779 27.408 241.385 27.408C240.926 27.408 240.51 27.5147 240.137 27.728C239.774 27.9307 239.486 28.2187 239.273 28.592C239.059 28.9547 238.953 29.3653 238.953 29.824C238.953 30.2827 239.059 30.6933 239.273 31.056C239.486 31.4187 239.774 31.7067 240.137 31.92C240.51 32.1333 240.926 32.24 241.385 32.24ZM249.926 34.144C249.329 34.144 248.801 34.0373 248.342 33.824C247.884 33.6 247.526 33.296 247.27 32.912C247.014 32.528 246.886 32.0853 246.886 31.584C246.886 30.784 247.185 30.1653 247.782 29.728C248.39 29.28 249.222 29.056 250.278 29.056C251.004 29.056 251.686 29.168 252.326 29.392V28.784C252.326 28.304 252.177 27.9413 251.878 27.696C251.58 27.4507 251.142 27.328 250.566 27.328C250.214 27.328 249.836 27.3867 249.43 27.504C249.025 27.6107 248.556 27.7813 248.022 28.016L247.222 26.4C247.884 26.1013 248.513 25.8773 249.11 25.728C249.718 25.5787 250.326 25.504 250.934 25.504C252.054 25.504 252.924 25.776 253.542 26.32C254.172 26.8533 254.486 27.6107 254.486 28.592V34H252.326V33.408C251.985 33.664 251.617 33.8507 251.222 33.968C250.828 34.0853 250.396 34.144 249.926 34.144ZM248.966 31.536C248.966 31.856 249.105 32.112 249.382 32.304C249.66 32.4853 250.028 32.576 250.486 32.576C250.849 32.576 251.185 32.5333 251.494 32.448C251.804 32.352 252.081 32.2133 252.326 32.032V30.816C252.06 30.7093 251.782 30.6293 251.494 30.576C251.206 30.5227 250.897 30.496 250.566 30.496C250.065 30.496 249.67 30.592 249.382 30.784C249.105 30.9653 248.966 31.216 248.966 31.536ZM256.145 34V25.664H258.337V26.592C258.604 26.2293 258.924 25.952 259.297 25.76C259.671 25.568 260.092 25.472 260.561 25.472C260.967 25.4827 261.271 25.5467 261.473 25.664V27.584C261.313 27.5093 261.137 27.456 260.945 27.424C260.753 27.3813 260.556 27.36 260.353 27.36C259.927 27.36 259.537 27.4667 259.185 27.68C258.833 27.8933 258.551 28.1973 258.337 28.592V34H256.145ZM263.649 37.44C263.457 37.44 263.27 37.4293 263.089 37.408C262.918 37.3973 262.774 37.3813 262.657 37.36V35.472C262.87 35.5147 263.126 35.536 263.425 35.536C264.225 35.536 264.779 35.1573 265.089 34.4L265.217 34.08L261.969 25.664H264.385L266.465 31.344L268.817 25.664H271.185L267.345 34.672C267.057 35.344 266.742 35.8827 266.401 36.288C266.059 36.6933 265.665 36.9867 265.217 37.168C264.779 37.3493 264.257 37.44 263.649 37.44Z" fill="#151515"/>
<path d="M340.572 34.5V24.204H336.324V21.9H347.412V24.204H343.182V34.5H340.572ZM351.177 34.68C350.241 34.68 349.389 34.464 348.621 34.032C347.865 33.6 347.265 33.018 346.821 32.286C346.377 31.554 346.155 30.732 346.155 29.82C346.155 28.908 346.365 28.086 346.785 27.354C347.217 26.622 347.799 26.04 348.531 25.608C349.263 25.176 350.079 24.96 350.979 24.96C351.879 24.96 352.677 25.182 353.373 25.626C354.069 26.07 354.615 26.67 355.011 27.426C355.419 28.182 355.623 29.04 355.623 30V30.648H348.675C348.783 31.02 348.957 31.356 349.197 31.656C349.449 31.956 349.755 32.19 350.115 32.358C350.487 32.526 350.883 32.61 351.303 32.61C351.723 32.61 352.107 32.544 352.455 32.412C352.815 32.28 353.121 32.094 353.373 31.854L354.993 33.33C354.417 33.798 353.823 34.14 353.211 34.356C352.611 34.572 351.933 34.68 351.177 34.68ZM348.639 28.884H353.193C353.109 28.512 352.953 28.188 352.725 27.912C352.509 27.624 352.245 27.402 351.933 27.246C351.633 27.078 351.297 26.994 350.925 26.994C350.541 26.994 350.193 27.072 349.881 27.228C349.569 27.384 349.305 27.606 349.089 27.894C348.885 28.17 348.735 28.5 348.639 28.884ZM357.134 34.5V25.122H359.6V26.166C359.9 25.758 360.26 25.446 360.68 25.23C361.1 25.014 361.574 24.906 362.102 24.906C362.558 24.918 362.9 24.99 363.128 25.122V27.282C362.948 27.198 362.75 27.138 362.534 27.102C362.318 27.054 362.096 27.03 361.868 27.03C361.388 27.03 360.95 27.15 360.554 27.39C360.158 27.63 359.84 27.972 359.6 28.416V34.5H357.134ZM368.928 34.644C367.884 34.644 367.092 34.41 366.552 33.942C366.024 33.462 365.76 32.766 365.76 31.854V27.174H363.834V25.122H365.76V22.728L368.226 22.17V25.122H370.908V27.174H368.226V31.35C368.226 31.782 368.322 32.094 368.514 32.286C368.706 32.466 369.042 32.556 369.522 32.556C369.762 32.556 369.978 32.544 370.17 32.52C370.374 32.484 370.596 32.424 370.836 32.34V34.374C370.584 34.458 370.266 34.524 369.882 34.572C369.51 34.62 369.192 34.644 368.928 34.644ZM372.111 34.5V25.122H374.577V34.5H372.111ZM373.335 24.006C372.951 24.006 372.621 23.868 372.345 23.592C372.069 23.316 371.931 22.986 371.931 22.602C371.931 22.206 372.069 21.876 372.345 21.612C372.621 21.336 372.951 21.198 373.335 21.198C373.731 21.198 374.061 21.336 374.325 21.612C374.601 21.876 374.739 22.206 374.739 22.602C374.739 22.986 374.601 23.316 374.325 23.592C374.061 23.868 373.731 24.006 373.335 24.006ZM379.493 34.662C378.821 34.662 378.227 34.542 377.711 34.302C377.195 34.05 376.793 33.708 376.505 33.276C376.217 32.844 376.073 32.346 376.073 31.782C376.073 30.882 376.409 30.186 377.081 29.694C377.765 29.19 378.701 28.938 379.889 28.938C380.705 28.938 381.473 29.064 382.193 29.316V28.632C382.193 28.092 382.025 27.684 381.689 27.408C381.353 27.132 380.861 26.994 380.213 26.994C379.817 26.994 379.391 27.06 378.935 27.192C378.479 27.312 377.951 27.504 377.351 27.768L376.451 25.95C377.195 25.614 377.903 25.362 378.575 25.194C379.259 25.026 379.943 24.942 380.627 24.942C381.887 24.942 382.865 25.248 383.561 25.86C384.269 26.46 384.623 27.312 384.623 28.416V34.5H382.193V33.834C381.809 34.122 381.395 34.332 380.951 34.464C380.507 34.596 380.021 34.662 379.493 34.662ZM378.413 31.728C378.413 32.088 378.569 32.376 378.881 32.592C379.193 32.796 379.607 32.898 380.123 32.898C380.531 32.898 380.909 32.85 381.257 32.754C381.605 32.646 381.917 32.49 382.193 32.286V30.918C381.893 30.798 381.581 30.708 381.257 30.648C380.933 30.588 380.585 30.558 380.213 30.558C379.649 30.558 379.205 30.666 378.881 30.882C378.569 31.086 378.413 31.368 378.413 31.728ZM386.49 34.5V25.122H388.956V26.166C389.256 25.758 389.616 25.446 390.036 25.23C390.456 25.014 390.93 24.906 391.458 24.906C391.914 24.918 392.256 24.99 392.484 25.122V27.282C392.304 27.198 392.106 27.138 391.89 27.102C391.674 27.054 391.452 27.03 391.224 27.03C390.744 27.03 390.306 27.15 389.91 27.39C389.514 27.63 389.196 27.972 388.956 28.416V34.5H386.49ZM394.931 38.37C394.715 38.37 394.505 38.358 394.301 38.334C394.109 38.322 393.947 38.304 393.815 38.28V36.156C394.055 36.204 394.343 36.228 394.679 36.228C395.579 36.228 396.203 35.802 396.551 34.95L396.695 34.59L393.041 25.122H395.759L398.099 31.512L400.745 25.122H403.409L399.089 35.256C398.765 36.012 398.411 36.618 398.027 37.074C397.643 37.53 397.199 37.86 396.695 38.064C396.203 38.268 395.615 38.37 394.931 38.37Z" fill="#0066CC"/>
<g clip-path="url(#clip0_2010_3186)">
<path d="M433.1 27.3376L426.444 20.6813C426.2 20.4376 425.806 20.4376 425.563 20.6813C425.319 20.9251 425.319 21.3188 425.563 21.5626L431.369 27.3688H415.381C415.038 27.3688 414.756 27.6501 414.756 27.9938C414.756 28.3376 415.038 28.6188 415.381 28.6188H431.375L425.569 34.4251C425.325 34.6688 425.325 35.0626 425.569 35.3063C425.694 35.4313 425.85 35.4876 426.013 35.4876C426.175 35.4876 426.331 35.4251 426.456 35.3063L433.113 28.6501C433.475 28.2876 433.475 27.6876 433.113 27.3251L433.1 27.3376Z" fill="#0066CC"/>
</g>
<rect opacity="0.5" x="412.5" y="16.5" width="23" height="23" stroke="#FF00FF"/>
<path d="M408.002 22.132C407.426 22.132 406.914 22.028 406.466 21.82C406.018 21.612 405.662 21.328 405.398 20.968C405.142 20.6 405.014 20.188 405.014 19.732C405.014 19.388 405.098 19.072 405.266 18.784C405.434 18.488 405.666 18.236 405.962 18.028C406.266 17.812 406.61 17.66 406.994 17.572C406.506 17.436 406.106 17.192 405.794 16.84C405.49 16.488 405.338 16.092 405.338 15.652C405.338 15.236 405.454 14.864 405.686 14.536C405.918 14.208 406.234 13.948 406.634 13.756C407.042 13.564 407.498 13.468 408.002 13.468C408.514 13.468 408.97 13.564 409.37 13.756C409.77 13.948 410.086 14.208 410.318 14.536C410.55 14.864 410.666 15.236 410.666 15.652C410.666 16.092 410.514 16.488 410.21 16.84C409.906 17.192 409.506 17.436 409.01 17.572C409.594 17.708 410.07 17.976 410.438 18.376C410.806 18.768 410.99 19.22 410.99 19.732C410.99 20.188 410.862 20.6 410.606 20.968C410.35 21.328 409.994 21.612 409.538 21.82C409.09 22.028 408.578 22.132 408.002 22.132ZM408.002 17.212C408.346 17.212 408.654 17.144 408.926 17.008C409.206 16.872 409.426 16.692 409.586 16.468C409.746 16.236 409.826 15.976 409.826 15.688C409.826 15.4 409.746 15.14 409.586 14.908C409.426 14.676 409.206 14.496 408.926 14.368C408.654 14.232 408.346 14.164 408.002 14.164C407.658 14.164 407.346 14.232 407.066 14.368C406.794 14.496 406.578 14.676 406.418 14.908C406.258 15.14 406.178 15.4 406.178 15.688C406.178 15.976 406.258 16.236 406.418 16.468C406.578 16.692 406.794 16.872 407.066 17.008C407.346 17.144 407.658 17.212 408.002 17.212ZM408.002 21.436C408.41 21.436 408.774 21.36 409.094 21.208C409.414 21.056 409.666 20.848 409.85 20.584C410.042 20.32 410.138 20.024 410.138 19.696C410.138 19.368 410.042 19.072 409.85 18.808C409.666 18.544 409.414 18.336 409.094 18.184C408.774 18.032 408.41 17.956 408.002 17.956C407.594 17.956 407.23 18.032 406.91 18.184C406.59 18.336 406.334 18.544 406.142 18.808C405.958 19.072 405.866 19.368 405.866 19.696C405.866 20.024 405.958 20.32 406.142 20.584C406.334 20.848 406.59 21.056 406.91 21.208C407.23 21.36 407.594 21.436 408.002 21.436Z" fill="#4D4D4D"/>
<rect x="404" y="24" width="8" height="8" fill="#87BB62"/>
<rect opacity="0.5" x="336.5" y="15" width="67" height="26" stroke="#FF00FF"/>
<rect x="272" y="12" width="32" height="32" fill="#4394E5"/>
<path d="M284.237 32.132C283.661 32.132 283.121 32.032 282.617 31.832C282.121 31.632 281.681 31.336 281.297 30.944L281.873 30.38C282.225 30.732 282.585 30.988 282.953 31.148C283.329 31.3 283.753 31.376 284.225 31.376C284.633 31.376 284.993 31.304 285.305 31.16C285.625 31.016 285.873 30.816 286.049 30.56C286.225 30.304 286.313 30.012 286.313 29.684C286.313 29.372 286.233 29.096 286.073 28.856C285.921 28.608 285.709 28.416 285.437 28.28C285.165 28.144 284.853 28.076 284.501 28.076H283.505V27.332H284.465C284.921 27.332 285.289 27.192 285.569 26.912C285.857 26.632 286.001 26.268 286.001 25.82C286.001 25.524 285.921 25.256 285.761 25.016C285.601 24.776 285.381 24.588 285.101 24.452C284.829 24.308 284.521 24.236 284.177 24.236C283.745 24.236 283.357 24.316 283.013 24.476C282.677 24.628 282.333 24.888 281.981 25.256L281.405 24.68C281.781 24.28 282.205 23.98 282.677 23.78C283.149 23.572 283.653 23.468 284.189 23.468C284.701 23.468 285.157 23.568 285.557 23.768C285.965 23.968 286.285 24.244 286.517 24.596C286.749 24.94 286.865 25.332 286.865 25.772C286.865 26.212 286.721 26.608 286.433 26.96C286.145 27.304 285.765 27.544 285.293 27.68C285.861 27.808 286.317 28.056 286.661 28.424C287.005 28.792 287.177 29.22 287.177 29.708C287.177 30.172 287.049 30.588 286.793 30.956C286.545 31.324 286.197 31.612 285.749 31.82C285.309 32.028 284.805 32.132 284.237 32.132ZM288.888 32V31.364L292.248 27.692C292.512 27.404 292.716 27.152 292.86 26.936C293.012 26.712 293.116 26.504 293.172 26.312C293.236 26.12 293.268 25.916 293.268 25.7C293.268 25.276 293.1 24.928 292.764 24.656C292.436 24.376 292.016 24.236 291.504 24.236C291.112 24.236 290.748 24.312 290.412 24.464C290.076 24.616 289.7 24.88 289.284 25.256L288.78 24.656C289.22 24.256 289.664 23.96 290.112 23.768C290.56 23.568 291.028 23.468 291.516 23.468C292.02 23.468 292.468 23.564 292.86 23.756C293.252 23.94 293.56 24.196 293.784 24.524C294.008 24.852 294.12 25.228 294.12 25.652C294.12 25.932 294.084 26.192 294.012 26.432C293.94 26.664 293.812 26.916 293.628 27.188C293.444 27.452 293.18 27.772 292.836 28.148L289.968 31.256L294.3 31.244V32H288.888Z" fill="white"/>
<rect x="223" y="40" width="16" height="16" fill="#3D7317"/>
<path d="M224.813 52V51.244H226.937V44.536L224.813 45.472V44.68L227.261 43.6H227.801V51.244H230.225V52H224.813ZM234.852 52.12C234.204 52.12 233.632 51.948 233.136 51.604C232.648 51.26 232.264 50.788 231.984 50.188C231.704 49.58 231.564 48.88 231.564 48.088C231.564 47.16 231.72 46.352 232.032 45.664C232.344 44.968 232.784 44.428 233.352 44.044C233.92 43.66 234.58 43.468 235.332 43.468C235.684 43.468 236.032 43.516 236.376 43.612C236.72 43.708 237.028 43.848 237.3 44.032L236.868 44.704C236.62 44.56 236.36 44.448 236.088 44.368C235.816 44.288 235.54 44.248 235.26 44.248C234.684 44.248 234.184 44.4 233.76 44.704C233.344 45 233.02 45.428 232.788 45.988C232.564 46.548 232.444 47.22 232.428 48.004C232.74 47.604 233.112 47.292 233.544 47.068C233.976 46.844 234.424 46.732 234.888 46.732C235.432 46.732 235.916 46.844 236.34 47.068C236.764 47.292 237.096 47.604 237.336 48.004C237.576 48.396 237.696 48.844 237.696 49.348C237.696 49.876 237.572 50.352 237.324 50.776C237.076 51.192 236.736 51.52 236.304 51.76C235.88 52 235.396 52.12 234.852 52.12ZM234.768 47.44C234.328 47.44 233.904 47.552 233.496 47.776C233.096 47.992 232.748 48.292 232.452 48.676C232.516 49.212 232.652 49.684 232.86 50.092C233.076 50.492 233.352 50.804 233.688 51.028C234.032 51.252 234.416 51.364 234.84 51.364C235.224 51.364 235.564 51.28 235.86 51.112C236.164 50.936 236.4 50.696 236.568 50.392C236.744 50.088 236.832 49.748 236.832 49.372C236.832 48.996 236.744 48.664 236.568 48.376C236.392 48.08 236.148 47.852 235.836 47.692C235.532 47.524 235.176 47.44 234.768 47.44Z" fill="white"/>
<rect opacity="0.5" x="189.5" y="16.5" width="82" height="23" stroke="#FF00FF"/>
<rect x="223" width="16" height="16" fill="#3D7317"/>
<path d="M224.813 12V11.244H226.937V4.536L224.813 5.472V4.68L227.261 3.6H227.801V11.244H230.225V12H224.813ZM234.852 12.12C234.204 12.12 233.632 11.948 233.136 11.604C232.648 11.26 232.264 10.788 231.984 10.188C231.704 9.58 231.564 8.88 231.564 8.088C231.564 7.16 231.72 6.352 232.032 5.664C232.344 4.968 232.784 4.428 233.352 4.044C233.92 3.66 234.58 3.468 235.332 3.468C235.684 3.468 236.032 3.516 236.376 3.612C236.72 3.708 237.028 3.848 237.3 4.032L236.868 4.704C236.62 4.56 236.36 4.448 236.088 4.368C235.816 4.288 235.54 4.248 235.26 4.248C234.684 4.248 234.184 4.4 233.76 4.704C233.344 5 233.02 5.428 232.788 5.988C232.564 6.548 232.444 7.22 232.428 8.004C232.74 7.604 233.112 7.292 233.544 7.068C233.976 6.844 234.424 6.732 234.888 6.732C235.432 6.732 235.916 6.844 236.34 7.068C236.764 7.292 237.096 7.604 237.336 8.004C237.576 8.396 237.696 8.844 237.696 9.348C237.696 9.876 237.572 10.352 237.324 10.776C237.076 11.192 236.736 11.52 236.304 11.76C235.88 12 235.396 12.12 234.852 12.12ZM234.768 7.44C234.328 7.44 233.904 7.552 233.496 7.776C233.096 7.992 232.748 8.292 232.452 8.676C232.516 9.212 232.652 9.684 232.86 10.092C233.076 10.492 233.352 10.804 233.688 11.028C234.032 11.252 234.416 11.364 234.84 11.364C235.224 11.364 235.564 11.28 235.86 11.112C236.164 10.936 236.4 10.696 236.568 10.392C236.744 10.088 236.832 9.748 236.832 9.372C236.832 8.996 236.744 8.664 236.568 8.376C236.392 8.08 236.148 7.852 235.836 7.692C235.532 7.524 235.176 7.44 234.768 7.44Z" fill="white"/>
<rect x="157" y="12" width="32" height="32" fill="#4394E5"/>
<path d="M169.237 32.132C168.661 32.132 168.121 32.032 167.617 31.832C167.121 31.632 166.681 31.336 166.297 30.944L166.873 30.38C167.225 30.732 167.585 30.988 167.953 31.148C168.329 31.3 168.753 31.376 169.225 31.376C169.633 31.376 169.993 31.304 170.305 31.16C170.625 31.016 170.873 30.816 171.049 30.56C171.225 30.304 171.313 30.012 171.313 29.684C171.313 29.372 171.233 29.096 171.073 28.856C170.921 28.608 170.709 28.416 170.437 28.28C170.165 28.144 169.853 28.076 169.501 28.076H168.505V27.332H169.465C169.921 27.332 170.289 27.192 170.569 26.912C170.857 26.632 171.001 26.268 171.001 25.82C171.001 25.524 170.921 25.256 170.761 25.016C170.601 24.776 170.381 24.588 170.101 24.452C169.829 24.308 169.521 24.236 169.177 24.236C168.745 24.236 168.357 24.316 168.013 24.476C167.677 24.628 167.333 24.888 166.981 25.256L166.405 24.68C166.781 24.28 167.205 23.98 167.677 23.78C168.149 23.572 168.653 23.468 169.189 23.468C169.701 23.468 170.157 23.568 170.557 23.768C170.965 23.968 171.285 24.244 171.517 24.596C171.749 24.94 171.865 25.332 171.865 25.772C171.865 26.212 171.721 26.608 171.433 26.96C171.145 27.304 170.765 27.544 170.293 27.68C170.861 27.808 171.317 28.056 171.661 28.424C172.005 28.792 172.177 29.22 172.177 29.708C172.177 30.172 172.049 30.588 171.793 30.956C171.545 31.324 171.197 31.612 170.749 31.82C170.309 32.028 169.805 32.132 169.237 32.132ZM173.888 32V31.364L177.248 27.692C177.512 27.404 177.716 27.152 177.86 26.936C178.012 26.712 178.116 26.504 178.172 26.312C178.236 26.12 178.268 25.916 178.268 25.7C178.268 25.276 178.1 24.928 177.764 24.656C177.436 24.376 177.016 24.236 176.504 24.236C176.112 24.236 175.748 24.312 175.412 24.464C175.076 24.616 174.7 24.88 174.284 25.256L173.78 24.656C174.22 24.256 174.664 23.96 175.112 23.768C175.56 23.568 176.028 23.468 176.516 23.468C177.02 23.468 177.468 23.564 177.86 23.756C178.252 23.94 178.56 24.196 178.784 24.524C179.008 24.852 179.12 25.228 179.12 25.652C179.12 25.932 179.084 26.192 179.012 26.432C178.94 26.664 178.812 26.916 178.628 27.188C178.444 27.452 178.18 27.772 177.836 28.148L174.968 31.256L179.3 31.244V32H173.888Z" fill="white"/>
<rect x="93" y="12" width="32" height="32" fill="#4394E5"/>
<path d="M105.237 32.132C104.661 32.132 104.121 32.032 103.617 31.832C103.121 31.632 102.681 31.336 102.297 30.944L102.873 30.38C103.225 30.732 103.585 30.988 103.953 31.148C104.329 31.3 104.753 31.376 105.225 31.376C105.633 31.376 105.993 31.304 106.305 31.16C106.625 31.016 106.873 30.816 107.049 30.56C107.225 30.304 107.313 30.012 107.313 29.684C107.313 29.372 107.233 29.096 107.073 28.856C106.921 28.608 106.709 28.416 106.437 28.28C106.165 28.144 105.853 28.076 105.501 28.076H104.505V27.332H105.465C105.921 27.332 106.289 27.192 106.569 26.912C106.857 26.632 107.001 26.268 107.001 25.82C107.001 25.524 106.921 25.256 106.761 25.016C106.601 24.776 106.381 24.588 106.101 24.452C105.829 24.308 105.521 24.236 105.177 24.236C104.745 24.236 104.357 24.316 104.013 24.476C103.677 24.628 103.333 24.888 102.981 25.256L102.405 24.68C102.781 24.28 103.205 23.98 103.677 23.78C104.149 23.572 104.653 23.468 105.189 23.468C105.701 23.468 106.157 23.568 106.557 23.768C106.965 23.968 107.285 24.244 107.517 24.596C107.749 24.94 107.865 25.332 107.865 25.772C107.865 26.212 107.721 26.608 107.433 26.96C107.145 27.304 106.765 27.544 106.293 27.68C106.861 27.808 107.317 28.056 107.661 28.424C108.005 28.792 108.177 29.22 108.177 29.708C108.177 30.172 108.049 30.588 107.793 30.956C107.545 31.324 107.197 31.612 106.749 31.82C106.309 32.028 105.805 32.132 105.237 32.132ZM109.888 32V31.364L113.248 27.692C113.512 27.404 113.716 27.152 113.86 26.936C114.012 26.712 114.116 26.504 114.172 26.312C114.236 26.12 114.268 25.916 114.268 25.7C114.268 25.276 114.1 24.928 113.764 24.656C113.436 24.376 113.016 24.236 112.504 24.236C112.112 24.236 111.748 24.312 111.412 24.464C111.076 24.616 110.7 24.88 110.284 25.256L109.78 24.656C110.22 24.256 110.664 23.96 111.112 23.768C111.56 23.568 112.028 23.468 112.516 23.468C113.02 23.468 113.468 23.564 113.86 23.756C114.252 23.94 114.56 24.196 114.784 24.524C115.008 24.852 115.12 25.228 115.12 25.652C115.12 25.932 115.084 26.192 115.012 26.432C114.94 26.664 114.812 26.916 114.628 27.188C114.444 27.452 114.18 27.772 113.836 28.148L110.968 31.256L115.3 31.244V32H109.888Z" fill="white"/>
<rect x="55" y="40" width="16" height="16" fill="#3D7317"/>
<path d="M56.8127 52V51.244H58.9367V44.536L56.8127 45.472V44.68L59.2607 43.6H59.8007V51.244H62.2247V52H56.8127ZM66.852 52.12C66.204 52.12 65.632 51.948 65.136 51.604C64.648 51.26 64.264 50.788 63.984 50.188C63.704 49.58 63.564 48.88 63.564 48.088C63.564 47.16 63.72 46.352 64.032 45.664C64.344 44.968 64.784 44.428 65.352 44.044C65.92 43.66 66.58 43.468 67.332 43.468C67.684 43.468 68.032 43.516 68.376 43.612C68.72 43.708 69.028 43.848 69.3 44.032L68.868 44.704C68.62 44.56 68.36 44.448 68.088 44.368C67.816 44.288 67.54 44.248 67.26 44.248C66.684 44.248 66.184 44.4 65.76 44.704C65.344 45 65.02 45.428 64.788 45.988C64.564 46.548 64.444 47.22 64.428 48.004C64.74 47.604 65.112 47.292 65.544 47.068C65.976 46.844 66.424 46.732 66.888 46.732C67.432 46.732 67.916 46.844 68.34 47.068C68.764 47.292 69.096 47.604 69.336 48.004C69.576 48.396 69.696 48.844 69.696 49.348C69.696 49.876 69.572 50.352 69.324 50.776C69.076 51.192 68.736 51.52 68.304 51.76C67.88 52 67.396 52.12 66.852 52.12ZM66.768 47.44C66.328 47.44 65.904 47.552 65.496 47.776C65.096 47.992 64.748 48.292 64.452 48.676C64.516 49.212 64.652 49.684 64.86 50.092C65.076 50.492 65.352 50.804 65.688 51.028C66.032 51.252 66.416 51.364 66.84 51.364C67.224 51.364 67.564 51.28 67.86 51.112C68.164 50.936 68.4 50.696 68.568 50.392C68.744 50.088 68.832 49.748 68.832 49.372C68.832 48.996 68.744 48.664 68.568 48.376C68.392 48.08 68.148 47.852 67.836 47.692C67.532 47.524 67.176 47.44 66.768 47.44Z" fill="white"/>
<rect opacity="0.5" x="32.5" y="16.5" width="60" height="23" stroke="#151515"/>
<rect x="55" width="16" height="16" fill="#3D7317"/>
<path d="M56.8127 12V11.244H58.9367V4.536L56.8127 5.472V4.68L59.2607 3.6H59.8007V11.244H62.2247V12H56.8127ZM66.852 12.12C66.204 12.12 65.632 11.948 65.136 11.604C64.648 11.26 64.264 10.788 63.984 10.188C63.704 9.58 63.564 8.88 63.564 8.088C63.564 7.16 63.72 6.352 64.032 5.664C64.344 4.968 64.784 4.428 65.352 4.044C65.92 3.66 66.58 3.468 67.332 3.468C67.684 3.468 68.032 3.516 68.376 3.612C68.72 3.708 69.028 3.848 69.3 4.032L68.868 4.704C68.62 4.56 68.36 4.448 68.088 4.368C67.816 4.288 67.54 4.248 67.26 4.248C66.684 4.248 66.184 4.4 65.76 4.704C65.344 5 65.02 5.428 64.788 5.988C64.564 6.548 64.444 7.22 64.428 8.004C64.74 7.604 65.112 7.292 65.544 7.068C65.976 6.844 66.424 6.732 66.888 6.732C67.432 6.732 67.916 6.844 68.34 7.068C68.764 7.292 69.096 7.604 69.336 8.004C69.576 8.396 69.696 8.844 69.696 9.348C69.696 9.876 69.572 10.352 69.324 10.776C69.076 11.192 68.736 11.52 68.304 11.76C67.88 12 67.396 12.12 66.852 12.12ZM66.768 7.44C66.328 7.44 65.904 7.552 65.496 7.776C65.096 7.992 64.748 8.292 64.452 8.676C64.516 9.212 64.652 9.684 64.86 10.092C65.076 10.492 65.352 10.804 65.688 11.028C66.032 11.252 66.416 11.364 66.84 11.364C67.224 11.364 67.564 11.28 67.86 11.112C68.164 10.936 68.4 10.696 68.568 10.392C68.744 10.088 68.832 9.748 68.832 9.372C68.832 8.996 68.744 8.664 68.568 8.376C68.392 8.08 68.148 7.852 67.836 7.692C67.532 7.524 67.176 7.44 66.768 7.44Z" fill="white"/>
<rect y="12" width="32" height="32" fill="#4394E5"/>
<path d="M12.2367 32.132C11.6607 32.132 11.1207 32.032 10.6167 31.832C10.1207 31.632 9.68069 31.336 9.29669 30.944L9.87269 30.38C10.2247 30.732 10.5847 30.988 10.9527 31.148C11.3287 31.3 11.7527 31.376 12.2247 31.376C12.6327 31.376 12.9927 31.304 13.3047 31.16C13.6247 31.016 13.8727 30.816 14.0487 30.56C14.2247 30.304 14.3127 30.012 14.3127 29.684C14.3127 29.372 14.2327 29.096 14.0727 28.856C13.9207 28.608 13.7087 28.416 13.4367 28.28C13.1647 28.144 12.8527 28.076 12.5007 28.076H11.5047V27.332H12.4647C12.9207 27.332 13.2887 27.192 13.5687 26.912C13.8567 26.632 14.0007 26.268 14.0007 25.82C14.0007 25.524 13.9207 25.256 13.7607 25.016C13.6007 24.776 13.3807 24.588 13.1007 24.452C12.8287 24.308 12.5207 24.236 12.1767 24.236C11.7447 24.236 11.3567 24.316 11.0127 24.476C10.6767 24.628 10.3327 24.888 9.98069 25.256L9.40469 24.68C9.78069 24.28 10.2047 23.98 10.6767 23.78C11.1487 23.572 11.6527 23.468 12.1887 23.468C12.7007 23.468 13.1567 23.568 13.5567 23.768C13.9647 23.968 14.2847 24.244 14.5167 24.596C14.7487 24.94 14.8647 25.332 14.8647 25.772C14.8647 26.212 14.7207 26.608 14.4327 26.96C14.1447 27.304 13.7647 27.544 13.2927 27.68C13.8607 27.808 14.3167 28.056 14.6607 28.424C15.0047 28.792 15.1767 29.22 15.1767 29.708C15.1767 30.172 15.0487 30.588 14.7927 30.956C14.5447 31.324 14.1967 31.612 13.7487 31.82C13.3087 32.028 12.8047 32.132 12.2367 32.132ZM16.888 32V31.364L20.248 27.692C20.512 27.404 20.716 27.152 20.86 26.936C21.012 26.712 21.116 26.504 21.172 26.312C21.236 26.12 21.268 25.916 21.268 25.7C21.268 25.276 21.1 24.928 20.764 24.656C20.436 24.376 20.016 24.236 19.504 24.236C19.112 24.236 18.748 24.312 18.412 24.464C18.076 24.616 17.7 24.88 17.284 25.256L16.78 24.656C17.22 24.256 17.664 23.96 18.112 23.768C18.56 23.568 19.028 23.468 19.516 23.468C20.02 23.468 20.468 23.564 20.86 23.756C21.252 23.94 21.56 24.196 21.784 24.524C22.008 24.852 22.12 25.228 22.12 25.652C22.12 25.932 22.084 26.192 22.012 26.432C21.94 26.664 21.812 26.916 21.628 27.188C21.444 27.452 21.18 27.772 20.836 28.148L17.968 31.256L22.3 31.244V32H16.888Z" fill="white"/>
<defs>
<clipPath id="clip0_2010_3186">
<rect width="20" height="20" fill="white" transform="translate(414 18)"/>
</clipPath>
</defs>
</svg>
