<svg width="816" height="88" viewBox="0 0 816 88" fill="none" xmlns="http://www.w3.org/2000/svg">
<rect x="0.5" y="16.5" width="179" height="55" rx="2.5" stroke="#C7C7C7"/>
<path d="M73.644 50L78.076 38.8H79.548L83.916 50H82.588L81.26 46.48H76.268L74.94 50H73.644ZM76.652 45.504H80.892L78.764 39.92L76.652 45.504ZM85.4865 50V38.8H90.1105C90.8358 38.8 91.4652 38.9387 91.9985 39.216C92.5318 39.4827 92.9425 39.8667 93.2305 40.368C93.5292 40.8587 93.6785 41.44 93.6785 42.112C93.6785 42.7733 93.5292 43.3547 93.2305 43.856C92.9425 44.3573 92.5318 44.7467 91.9985 45.024C91.4652 45.2907 90.8358 45.424 90.1105 45.424H86.7185V50H85.4865ZM86.7185 44.368H89.9665C90.7452 44.368 91.3532 44.1653 91.7905 43.76C92.2278 43.3547 92.4465 42.8053 92.4465 42.112C92.4465 41.4187 92.2278 40.8747 91.7905 40.48C91.3532 40.0853 90.7452 39.888 89.9665 39.888H86.7185V44.368ZM95.9393 50V38.8H97.1713V50H95.9393ZM102.194 50.16C101.554 50.16 100.962 50.064 100.418 49.872C99.8741 49.6693 99.4101 49.3813 99.0261 49.008L99.6501 48.24C100.119 48.5813 100.551 48.832 100.946 48.992C101.341 49.1413 101.746 49.216 102.162 49.216C102.727 49.216 103.197 49.0827 103.57 48.816C103.943 48.5493 104.13 48.208 104.13 47.792C104.13 47.472 104.018 47.2213 103.794 47.04C103.581 46.8587 103.223 46.72 102.722 46.624L101.442 46.4C100.685 46.2613 100.125 46.0267 99.7621 45.696C99.4101 45.3653 99.2341 44.9173 99.2341 44.352C99.2341 43.904 99.3515 43.5093 99.5861 43.168C99.8315 42.8267 100.167 42.56 100.594 42.368C101.021 42.1653 101.506 42.064 102.05 42.064C102.583 42.064 103.09 42.144 103.57 42.304C104.05 42.4533 104.535 42.6987 105.026 43.04L104.45 43.856C104.045 43.568 103.639 43.36 103.234 43.232C102.829 43.0933 102.418 43.024 102.002 43.024C101.49 43.024 101.079 43.136 100.77 43.36C100.461 43.584 100.306 43.888 100.306 44.272C100.306 44.592 100.402 44.8373 100.594 45.008C100.797 45.1787 101.149 45.3067 101.65 45.392L102.962 45.632C103.751 45.7707 104.327 46.0107 104.69 46.352C105.053 46.6933 105.234 47.152 105.234 47.728C105.234 48.1867 105.101 48.6027 104.834 48.976C104.567 49.3387 104.205 49.6267 103.746 49.84C103.287 50.0533 102.77 50.16 102.194 50.16Z" fill="#0066CC"/>
<rect x="212.5" y="16.5" width="179" height="55" rx="2.5" stroke="#C7C7C7"/>
<g clip-path="url(#clip0_43_554)">
<path d="M253.833 34.92H249.833C249.607 34.92 249.42 35.1066 249.42 35.3333V39.3333C249.42 39.5666 249.607 39.7466 249.833 39.7466H253.833C254.06 39.7466 254.247 39.56 254.247 39.3333V35.3333C254.247 35.1 254.06 34.92 253.833 34.92ZM253.42 38.92H250.253V35.7533H253.42V38.92Z" fill="black"/>
<path d="M253.833 41.5867H249.833C249.607 41.5867 249.42 41.7733 249.42 42V46C249.42 46.2333 249.607 46.4133 249.833 46.4133H253.833C254.06 46.4133 254.247 46.2267 254.247 46V42C254.247 41.7667 254.06 41.5867 253.833 41.5867ZM253.42 45.5867H250.253V42.42H253.42V45.5867Z" fill="black"/>
<path d="M253.833 48.2533H249.827C249.598 48.2533 249.413 48.4384 249.413 48.6666V52.6733C249.413 52.9016 249.598 53.0866 249.827 53.0866H253.833C254.062 53.0866 254.247 52.9016 254.247 52.6733V48.6666C254.247 48.4384 254.062 48.2533 253.833 48.2533Z" fill="black"/>
<path d="M260.167 47.5867C259.94 47.5867 259.753 47.7733 259.753 48V48.6667C259.753 49.54 259.04 50.2533 258.167 50.2533H257.173L257.793 49.6333C257.953 49.4733 257.953 49.2067 257.793 49.0467C257.633 48.8867 257.367 48.8867 257.207 49.0467L255.873 50.38C255.873 50.38 255.86 50.4 255.853 50.4067C255.827 50.44 255.8 50.4733 255.78 50.5133C255.76 50.56 255.753 50.6067 255.753 50.6533C255.753 50.66 255.753 50.6667 255.753 50.6733C255.753 50.68 255.753 50.6867 255.753 50.6933C255.753 50.74 255.76 50.7867 255.78 50.8333C255.793 50.8733 255.82 50.9067 255.853 50.94C255.86 50.9467 255.867 50.96 255.873 50.9667L257.207 52.3C257.287 52.38 257.393 52.42 257.5 52.42C257.607 52.42 257.713 52.38 257.793 52.3C257.953 52.14 257.953 51.8733 257.793 51.7133L257.173 51.0933H258.167C259.5 51.0933 260.58 50.0067 260.58 48.68V48.0133C260.58 47.78 260.393 47.6 260.167 47.6V47.5867Z" fill="black"/>
<path d="M256.167 37.7466H258.167C259.04 37.7466 259.753 38.46 259.753 39.3333V40C259.753 40.2333 259.94 40.4133 260.167 40.4133C260.393 40.4133 260.58 40.2266 260.58 40V39.3333C260.58 38 259.493 36.92 258.167 36.92H256.167C255.94 36.92 255.753 37.1066 255.753 37.3333C255.753 37.56 255.94 37.7466 256.167 37.7466Z" fill="black"/>
<path d="M262.167 43.5867H261.86C261.82 43.4133 261.747 43.2533 261.66 43.1L261.88 42.88C262.04 42.72 262.04 42.4533 261.88 42.2933C261.72 42.1333 261.453 42.1333 261.293 42.2933L261.073 42.5133C260.927 42.42 260.76 42.3533 260.587 42.3133V42.0067C260.587 41.7733 260.4 41.5933 260.173 41.5933C259.947 41.5933 259.76 41.78 259.76 42.0067V42.3133C259.587 42.3533 259.427 42.4267 259.273 42.5133L259.053 42.2933C258.893 42.1333 258.627 42.1333 258.467 42.2933C258.307 42.4533 258.307 42.72 258.467 42.88L258.687 43.1C258.593 43.2467 258.527 43.4133 258.487 43.5867H258.18C257.953 43.5867 257.767 43.7733 257.767 44C257.767 44.2267 257.953 44.4133 258.18 44.4133H258.487C258.527 44.5867 258.6 44.7467 258.687 44.9L258.467 45.12C258.307 45.28 258.307 45.5467 258.467 45.7067C258.547 45.7867 258.653 45.8267 258.76 45.8267C258.867 45.8267 258.973 45.7867 259.053 45.7067L259.273 45.4867C259.42 45.58 259.587 45.6467 259.76 45.6867V45.9933C259.76 46.2267 259.947 46.4067 260.173 46.4067C260.4 46.4067 260.587 46.22 260.587 45.9933V45.6867C260.76 45.6467 260.92 45.5733 261.073 45.4867L261.293 45.7067C261.373 45.7867 261.48 45.8267 261.587 45.8267C261.693 45.8267 261.8 45.7867 261.88 45.7067C262.04 45.5467 262.04 45.28 261.88 45.12L261.66 44.9C261.753 44.7533 261.82 44.5867 261.86 44.4133H262.167C262.393 44.4133 262.58 44.2267 262.58 44C262.58 43.7733 262.393 43.5867 262.167 43.5867ZM259.247 44C259.247 43.4933 259.66 43.08 260.167 43.08C260.673 43.08 261.087 43.4933 261.087 44C261.087 44.5067 260.673 44.92 260.167 44.92C259.66 44.92 259.247 44.5067 259.247 44Z" fill="black"/>
</g>
<path d="M276.144 50L280.576 38.8H282.048L286.416 50H285.088L283.76 46.48H278.768L277.44 50H276.144ZM279.152 45.504H283.392L281.264 39.92L279.152 45.504ZM290.312 50.128C289.757 50.128 289.267 50.0053 288.84 49.76C288.413 49.5147 288.077 49.1733 287.832 48.736C287.597 48.2987 287.48 47.7973 287.48 47.232V42.192H288.664V46.896C288.664 47.5893 288.851 48.1387 289.224 48.544C289.597 48.9493 290.104 49.152 290.744 49.152C291.181 49.152 291.571 49.0507 291.912 48.848C292.264 48.6453 292.557 48.352 292.792 47.968V42.192H293.96V50H292.792V48.736C292.493 49.1947 292.136 49.5413 291.72 49.776C291.315 50.0107 290.845 50.128 290.312 50.128ZM299.332 50.16C298.66 50.16 298.148 50 297.796 49.68C297.455 49.3493 297.284 48.8747 297.284 48.256V43.152H295.668V42.192H297.284V40.048L298.452 39.776V42.192H300.692V43.152H298.452V47.952C298.452 48.368 298.538 48.6667 298.708 48.848C298.89 49.0293 299.183 49.12 299.588 49.12C299.791 49.12 299.972 49.104 300.132 49.072C300.292 49.04 300.479 48.9867 300.692 48.912V49.952C300.479 50.0267 300.255 50.08 300.02 50.112C299.786 50.144 299.556 50.16 299.332 50.16ZM305.703 50.128C304.978 50.128 304.327 49.952 303.751 49.6C303.175 49.248 302.722 48.768 302.391 48.16C302.06 47.552 301.895 46.864 301.895 46.096C301.895 45.328 302.06 44.64 302.391 44.032C302.722 43.424 303.175 42.944 303.751 42.592C304.327 42.24 304.978 42.064 305.703 42.064C306.418 42.064 307.058 42.24 307.623 42.592C308.199 42.944 308.652 43.424 308.983 44.032C309.314 44.64 309.479 45.328 309.479 46.096C309.479 46.864 309.314 47.552 308.983 48.16C308.652 48.768 308.199 49.248 307.623 49.6C307.058 49.952 306.418 50.128 305.703 50.128ZM305.687 49.104C306.199 49.104 306.652 48.976 307.047 48.72C307.442 48.4533 307.751 48.0907 307.975 47.632C308.21 47.1733 308.327 46.6613 308.327 46.096C308.327 45.52 308.21 45.008 307.975 44.56C307.751 44.1013 307.442 43.744 307.047 43.488C306.652 43.2213 306.199 43.088 305.687 43.088C305.175 43.088 304.722 43.2213 304.327 43.488C303.932 43.744 303.618 44.1013 303.383 44.56C303.159 45.008 303.047 45.52 303.047 46.096C303.047 46.6613 303.159 47.1733 303.383 47.632C303.618 48.0907 303.932 48.4533 304.327 48.72C304.722 48.976 305.175 49.104 305.687 49.104ZM311.528 50V42.192H312.696V43.408C312.995 42.96 313.336 42.624 313.72 42.4C314.104 42.176 314.536 42.064 315.016 42.064C315.571 42.064 316.056 42.2027 316.472 42.48C316.888 42.7467 317.203 43.1147 317.416 43.584C317.725 43.0827 318.093 42.704 318.52 42.448C318.957 42.192 319.459 42.064 320.024 42.064C320.547 42.064 321.005 42.1867 321.4 42.432C321.805 42.6773 322.12 43.0187 322.344 43.456C322.568 43.8827 322.68 44.384 322.68 44.96V50H321.512V45.248C321.512 44.5653 321.341 44.0267 321 43.632C320.659 43.2373 320.189 43.04 319.592 43.04C319.187 43.04 318.819 43.1413 318.488 43.344C318.168 43.5467 317.885 43.856 317.64 44.272C317.661 44.3787 317.677 44.4907 317.688 44.608C317.699 44.7253 317.704 44.8427 317.704 44.96V50H316.536V45.248C316.536 44.5653 316.36 44.0267 316.008 43.632C315.667 43.2373 315.197 43.04 314.6 43.04C313.8 43.04 313.165 43.424 312.696 44.192V50H311.528ZM327.46 50.144C326.905 50.144 326.414 50.0427 325.988 49.84C325.561 49.6373 325.225 49.36 324.98 49.008C324.745 48.6453 324.628 48.2293 324.628 47.76C324.628 47.2907 324.75 46.8853 324.996 46.544C325.241 46.192 325.582 45.92 326.02 45.728C326.457 45.536 326.969 45.44 327.556 45.44C328.004 45.44 328.425 45.488 328.82 45.584C329.225 45.68 329.598 45.8347 329.94 46.048V44.976C329.94 44.336 329.769 43.856 329.428 43.536C329.086 43.2053 328.585 43.04 327.924 43.04C327.561 43.04 327.188 43.0933 326.804 43.2C326.43 43.3067 326.014 43.4773 325.556 43.712L325.124 42.816C326.169 42.3147 327.15 42.064 328.068 42.064C329.038 42.064 329.785 42.304 330.308 42.784C330.83 43.2533 331.092 43.9307 331.092 44.816V50H329.94V49.088C329.598 49.44 329.22 49.7067 328.804 49.888C328.388 50.0587 327.94 50.144 327.46 50.144ZM325.748 47.728C325.748 48.1867 325.924 48.5547 326.276 48.832C326.638 49.1093 327.113 49.248 327.7 49.248C328.137 49.248 328.537 49.1733 328.9 49.024C329.273 48.8747 329.62 48.6507 329.94 48.352V46.848C329.609 46.656 329.268 46.5173 328.916 46.432C328.564 46.336 328.169 46.288 327.732 46.288C327.134 46.288 326.654 46.4213 326.292 46.688C325.929 46.944 325.748 47.2907 325.748 47.728ZM336.207 50.16C335.535 50.16 335.023 50 334.671 49.68C334.33 49.3493 334.159 48.8747 334.159 48.256V43.152H332.543V42.192H334.159V40.048L335.327 39.776V42.192H337.567V43.152H335.327V47.952C335.327 48.368 335.413 48.6667 335.583 48.848C335.765 49.0293 336.058 49.12 336.463 49.12C336.666 49.12 336.847 49.104 337.007 49.072C337.167 49.04 337.354 48.9867 337.567 48.912V49.952C337.354 50.0267 337.13 50.08 336.895 50.112C336.661 50.144 336.431 50.16 336.207 50.16ZM339.262 50V42.192H340.43V50H339.262ZM339.854 40.256C339.619 40.256 339.417 40.176 339.246 40.016C339.086 39.8453 339.006 39.648 339.006 39.424C339.006 39.2 339.086 39.008 339.246 38.848C339.417 38.6773 339.619 38.592 339.854 38.592C340.089 38.592 340.286 38.6773 340.446 38.848C340.617 39.008 340.702 39.2 340.702 39.424C340.702 39.648 340.617 39.8453 340.446 40.016C340.286 40.176 340.089 40.256 339.854 40.256ZM346.281 50.128C345.556 50.128 344.905 49.952 344.329 49.6C343.753 49.248 343.3 48.768 342.969 48.16C342.638 47.552 342.473 46.864 342.473 46.096C342.473 45.328 342.638 44.64 342.969 44.032C343.3 43.424 343.753 42.944 344.329 42.592C344.905 42.24 345.556 42.064 346.281 42.064C346.996 42.064 347.636 42.24 348.201 42.592C348.777 42.944 349.23 43.424 349.561 44.032C349.892 44.64 350.057 45.328 350.057 46.096C350.057 46.864 349.892 47.552 349.561 48.16C349.23 48.768 348.777 49.248 348.201 49.6C347.636 49.952 346.996 50.128 346.281 50.128ZM346.265 49.104C346.777 49.104 347.23 48.976 347.625 48.72C348.02 48.4533 348.329 48.0907 348.553 47.632C348.788 47.1733 348.905 46.6613 348.905 46.096C348.905 45.52 348.788 45.008 348.553 44.56C348.329 44.1013 348.02 43.744 347.625 43.488C347.23 43.2213 346.777 43.088 346.265 43.088C345.753 43.088 345.3 43.2213 344.905 43.488C344.51 43.744 344.196 44.1013 343.961 44.56C343.737 45.008 343.625 45.52 343.625 46.096C343.625 46.6613 343.737 47.1733 343.961 47.632C344.196 48.0907 344.51 48.4533 344.905 48.72C345.3 48.976 345.753 49.104 346.265 49.104ZM352.106 50V42.192H353.274V43.456C353.573 42.9867 353.93 42.64 354.346 42.416C354.762 42.1813 355.232 42.064 355.754 42.064C356.32 42.064 356.81 42.1867 357.226 42.432C357.653 42.6667 357.984 43.0027 358.218 43.44C358.464 43.8667 358.586 44.368 358.586 44.944V50H357.418V45.28C357.418 44.5867 357.226 44.0427 356.842 43.648C356.469 43.2427 355.962 43.04 355.322 43.04C354.896 43.04 354.506 43.1413 354.154 43.344C353.802 43.5467 353.509 43.8453 353.274 44.24V50H352.106Z" fill="#0066CC"/>
<rect x="424.5" y="0.5" width="179" height="87" rx="2.5" stroke="#C7C7C7"/>
<g clip-path="url(#clip1_43_554)">
<path d="M521.08 27.68V27.6667C521.08 24.3133 518.353 21.5867 515 21.5867C512.687 21.5867 510.587 22.9 509.56 24.9533C506.673 24.6 504.253 26.8667 504.253 29.6667C504.253 32.2867 506.387 34.4133 509 34.4133H520.667C520.727 34.4133 520.787 34.4 520.84 34.3733C522.487 34.1267 523.753 32.7067 523.753 30.9933C523.753 29.38 522.633 28.02 521.087 27.6733L521.08 27.68ZM520.333 33.58H509C506.84 33.58 505.08 31.82 505.08 29.66C505.08 27.5 506.84 25.74 509 25.74C509.233 25.74 509.48 25.7667 509.727 25.8133C509.92 25.8467 510.107 25.7467 510.187 25.5667C511.02 23.6467 512.913 22.4067 515 22.4067C517.893 22.4067 520.253 24.76 520.253 27.6533C520.253 27.74 520.253 27.8267 520.24 27.92V27.9933C520.22 28.2133 520.387 28.4133 520.607 28.4333C521.927 28.5733 522.92 29.6733 522.92 30.9867C522.92 32.4133 521.76 33.5733 520.333 33.5733V33.58Z" fill="black"/>
</g>
<path d="M499.092 66.176C498.292 66.176 497.545 66.032 496.852 65.744C496.169 65.4453 495.567 65.0347 495.044 64.512C494.521 63.9787 494.116 63.3653 493.828 62.672C493.54 61.968 493.396 61.2107 493.396 60.4C493.396 59.5893 493.54 58.8373 493.828 58.144C494.116 57.44 494.521 56.8267 495.044 56.304C495.567 55.7707 496.169 55.36 496.852 55.072C497.545 54.7733 498.292 54.624 499.092 54.624C499.647 54.624 500.175 54.6987 500.676 54.848C501.188 54.9867 501.668 55.1947 502.116 55.472C502.564 55.7387 502.964 56.0693 503.316 56.464L502.5 57.312C502.084 56.8107 501.572 56.4267 500.964 56.16C500.367 55.8827 499.743 55.744 499.092 55.744C498.463 55.744 497.876 55.8613 497.332 56.096C496.788 56.3307 496.313 56.6613 495.908 57.088C495.513 57.5147 495.204 58.0107 494.98 58.576C494.756 59.1307 494.644 59.7387 494.644 60.4C494.644 61.0507 494.756 61.6587 494.98 62.224C495.204 62.7893 495.513 63.2853 495.908 63.712C496.313 64.1387 496.788 64.4693 497.332 64.704C497.876 64.9387 498.463 65.056 499.092 65.056C499.743 65.056 500.367 64.9173 500.964 64.64C501.572 64.3627 502.084 63.9787 502.5 63.488L503.316 64.336C502.964 64.7307 502.564 65.0667 502.116 65.344C501.668 65.6107 501.188 65.8187 500.676 65.968C500.175 66.1067 499.647 66.176 499.092 66.176ZM505.309 66V54.448L506.477 54.208V66H505.309ZM512.328 66.128C511.603 66.128 510.952 65.952 510.376 65.6C509.8 65.248 509.347 64.768 509.016 64.16C508.685 63.552 508.52 62.864 508.52 62.096C508.52 61.328 508.685 60.64 509.016 60.032C509.347 59.424 509.8 58.944 510.376 58.592C510.952 58.24 511.603 58.064 512.328 58.064C513.043 58.064 513.683 58.24 514.248 58.592C514.824 58.944 515.277 59.424 515.608 60.032C515.939 60.64 516.104 61.328 516.104 62.096C516.104 62.864 515.939 63.552 515.608 64.16C515.277 64.768 514.824 65.248 514.248 65.6C513.683 65.952 513.043 66.128 512.328 66.128ZM512.312 65.104C512.824 65.104 513.277 64.976 513.672 64.72C514.067 64.4533 514.376 64.0907 514.6 63.632C514.835 63.1733 514.952 62.6613 514.952 62.096C514.952 61.52 514.835 61.008 514.6 60.56C514.376 60.1013 514.067 59.744 513.672 59.488C513.277 59.2213 512.824 59.088 512.312 59.088C511.8 59.088 511.347 59.2213 510.952 59.488C510.557 59.744 510.243 60.1013 510.008 60.56C509.784 61.008 509.672 61.52 509.672 62.096C509.672 62.6613 509.784 63.1733 510.008 63.632C510.243 64.0907 510.557 64.4533 510.952 64.72C511.347 64.976 511.8 65.104 512.312 65.104ZM520.937 66.128C520.382 66.128 519.892 66.0053 519.465 65.76C519.038 65.5147 518.702 65.1733 518.457 64.736C518.222 64.2987 518.105 63.7973 518.105 63.232V58.192H519.289V62.896C519.289 63.5893 519.476 64.1387 519.849 64.544C520.222 64.9493 520.729 65.152 521.369 65.152C521.806 65.152 522.196 65.0507 522.537 64.848C522.889 64.6453 523.182 64.352 523.417 63.968V58.192H524.585V66H523.417V64.736C523.118 65.1947 522.761 65.5413 522.345 65.776C521.94 66.0107 521.47 66.128 520.937 66.128ZM530.229 66.112C529.557 66.112 528.949 65.936 528.405 65.584C527.861 65.2213 527.429 64.7413 527.109 64.144C526.789 63.536 526.629 62.8587 526.629 62.112C526.629 61.3547 526.789 60.6773 527.109 60.08C527.44 59.472 527.883 58.992 528.437 58.64C528.992 58.2773 529.611 58.096 530.293 58.096C530.773 58.096 531.221 58.192 531.637 58.384C532.053 58.5653 532.416 58.832 532.725 59.184V54.448L533.893 54.208V66H532.725V64.96C532.427 65.3333 532.064 65.6213 531.637 65.824C531.211 66.016 530.741 66.112 530.229 66.112ZM530.517 65.088C530.976 65.088 531.397 64.9973 531.781 64.816C532.165 64.6347 532.48 64.3787 532.725 64.048V60.176C532.469 59.8453 532.144 59.5893 531.749 59.408C531.365 59.216 530.955 59.12 530.517 59.12C529.995 59.12 529.525 59.248 529.109 59.504C528.704 59.76 528.379 60.112 528.133 60.56C527.899 61.008 527.781 61.52 527.781 62.096C527.781 62.6613 527.899 63.1733 528.133 63.632C528.379 64.08 528.704 64.4373 529.109 64.704C529.525 64.96 529.995 65.088 530.517 65.088Z" fill="#0066CC"/>
<rect x="636.5" y="16.5" width="179" height="55" rx="2.5" stroke="#C7C7C7"/>
<path d="M693.592 50.176C692.792 50.176 692.045 50.032 691.352 49.744C690.669 49.4453 690.067 49.0347 689.544 48.512C689.021 47.9787 688.616 47.3653 688.328 46.672C688.04 45.968 687.896 45.2107 687.896 44.4C687.896 43.5893 688.04 42.8373 688.328 42.144C688.616 41.44 689.021 40.8267 689.544 40.304C690.067 39.7707 690.669 39.36 691.352 39.072C692.045 38.7733 692.792 38.624 693.592 38.624C694.147 38.624 694.675 38.6987 695.176 38.848C695.688 38.9867 696.168 39.1947 696.616 39.472C697.064 39.7387 697.464 40.0693 697.816 40.464L697 41.312C696.584 40.8107 696.072 40.4267 695.464 40.16C694.867 39.8827 694.243 39.744 693.592 39.744C692.963 39.744 692.376 39.8613 691.832 40.096C691.288 40.3307 690.813 40.6613 690.408 41.088C690.013 41.5147 689.704 42.0107 689.48 42.576C689.256 43.1307 689.144 43.7387 689.144 44.4C689.144 45.0507 689.256 45.6587 689.48 46.224C689.704 46.7893 690.013 47.2853 690.408 47.712C690.813 48.1387 691.288 48.4693 691.832 48.704C692.376 48.9387 692.963 49.056 693.592 49.056C694.243 49.056 694.867 48.9173 695.464 48.64C696.072 48.3627 696.584 47.9787 697 47.488L697.816 48.336C697.464 48.7307 697.064 49.0667 696.616 49.344C696.168 49.6107 695.688 49.8187 695.176 49.968C694.675 50.1067 694.147 50.176 693.592 50.176ZM703.031 50.128C702.306 50.128 701.655 49.952 701.079 49.6C700.503 49.248 700.05 48.768 699.719 48.16C699.388 47.552 699.223 46.864 699.223 46.096C699.223 45.328 699.388 44.64 699.719 44.032C700.05 43.424 700.503 42.944 701.079 42.592C701.655 42.24 702.306 42.064 703.031 42.064C703.746 42.064 704.386 42.24 704.951 42.592C705.527 42.944 705.98 43.424 706.311 44.032C706.642 44.64 706.807 45.328 706.807 46.096C706.807 46.864 706.642 47.552 706.311 48.16C705.98 48.768 705.527 49.248 704.951 49.6C704.386 49.952 703.746 50.128 703.031 50.128ZM703.015 49.104C703.527 49.104 703.98 48.976 704.375 48.72C704.77 48.4533 705.079 48.0907 705.303 47.632C705.538 47.1733 705.655 46.6613 705.655 46.096C705.655 45.52 705.538 45.008 705.303 44.56C705.079 44.1013 704.77 43.744 704.375 43.488C703.98 43.2213 703.527 43.088 703.015 43.088C702.503 43.088 702.05 43.2213 701.655 43.488C701.26 43.744 700.946 44.1013 700.711 44.56C700.487 45.008 700.375 45.52 700.375 46.096C700.375 46.6613 700.487 47.1733 700.711 47.632C700.946 48.0907 701.26 48.4533 701.655 48.72C702.05 48.976 702.503 49.104 703.015 49.104ZM708.856 50V42.192H710.024V43.456C710.323 42.9867 710.68 42.64 711.096 42.416C711.512 42.1813 711.982 42.064 712.504 42.064C713.07 42.064 713.56 42.1867 713.976 42.432C714.403 42.6667 714.734 43.0027 714.968 43.44C715.214 43.8667 715.336 44.368 715.336 44.944V50H714.168V45.28C714.168 44.5867 713.976 44.0427 713.592 43.648C713.219 43.2427 712.712 43.04 712.072 43.04C711.646 43.04 711.256 43.1413 710.904 43.344C710.552 43.5467 710.259 43.8453 710.024 44.24V50H708.856ZM720.426 50.16C719.754 50.16 719.242 50 718.89 49.68C718.549 49.3493 718.378 48.8747 718.378 48.256V43.152H716.762V42.192H718.378V40.048L719.546 39.776V42.192H721.786V43.152H719.546V47.952C719.546 48.368 719.631 48.6667 719.802 48.848C719.983 49.0293 720.277 49.12 720.682 49.12C720.885 49.12 721.066 49.104 721.226 49.072C721.386 49.04 721.573 48.9867 721.786 48.912V49.952C721.573 50.0267 721.349 50.08 721.114 50.112C720.879 50.144 720.65 50.16 720.426 50.16ZM725.913 50.144C725.358 50.144 724.868 50.0427 724.441 49.84C724.014 49.6373 723.678 49.36 723.433 49.008C723.198 48.6453 723.081 48.2293 723.081 47.76C723.081 47.2907 723.204 46.8853 723.449 46.544C723.694 46.192 724.036 45.92 724.473 45.728C724.91 45.536 725.422 45.44 726.009 45.44C726.457 45.44 726.878 45.488 727.273 45.584C727.678 45.68 728.052 45.8347 728.393 46.048V44.976C728.393 44.336 728.222 43.856 727.881 43.536C727.54 43.2053 727.038 43.04 726.377 43.04C726.014 43.04 725.641 43.0933 725.257 43.2C724.884 43.3067 724.468 43.4773 724.009 43.712L723.577 42.816C724.622 42.3147 725.604 42.064 726.521 42.064C727.492 42.064 728.238 42.304 728.761 42.784C729.284 43.2533 729.545 43.9307 729.545 44.816V50H728.393V49.088C728.052 49.44 727.673 49.7067 727.257 49.888C726.841 50.0587 726.393 50.144 725.913 50.144ZM724.201 47.728C724.201 48.1867 724.377 48.5547 724.729 48.832C725.092 49.1093 725.566 49.248 726.153 49.248C726.59 49.248 726.99 49.1733 727.353 49.024C727.726 48.8747 728.073 48.6507 728.393 48.352V46.848C728.062 46.656 727.721 46.5173 727.369 46.432C727.017 46.336 726.622 46.288 726.185 46.288C725.588 46.288 725.108 46.4213 724.745 46.688C724.382 46.944 724.201 47.2907 724.201 47.728ZM731.903 50V42.192H733.071V50H731.903ZM732.495 40.256C732.26 40.256 732.057 40.176 731.887 40.016C731.727 39.8453 731.647 39.648 731.647 39.424C731.647 39.2 731.727 39.008 731.887 38.848C732.057 38.6773 732.26 38.592 732.495 38.592C732.729 38.592 732.927 38.6773 733.087 38.848C733.257 39.008 733.343 39.2 733.343 39.424C733.343 39.648 733.257 39.8453 733.087 40.016C732.927 40.176 732.729 40.256 732.495 40.256ZM735.466 50V42.192H736.634V43.456C736.932 42.9867 737.29 42.64 737.706 42.416C738.122 42.1813 738.591 42.064 739.114 42.064C739.679 42.064 740.17 42.1867 740.586 42.432C741.012 42.6667 741.343 43.0027 741.578 43.44C741.823 43.8667 741.946 44.368 741.946 44.944V50H740.778V45.28C740.778 44.5867 740.586 44.0427 740.202 43.648C739.828 43.2427 739.322 43.04 738.682 43.04C738.255 43.04 737.866 43.1413 737.514 43.344C737.162 43.5467 736.868 43.8453 736.634 44.24V50H735.466ZM747.814 50.16C747.088 50.16 746.432 49.984 745.846 49.632C745.259 49.2693 744.795 48.784 744.454 48.176C744.112 47.5573 743.942 46.864 743.942 46.096C743.942 45.328 744.102 44.64 744.422 44.032C744.752 43.424 745.195 42.944 745.75 42.592C746.304 42.24 746.923 42.064 747.606 42.064C748.299 42.064 748.912 42.24 749.446 42.592C749.99 42.9333 750.416 43.4027 750.726 44C751.046 44.5867 751.206 45.2533 751.206 46V46.352H745.078C745.12 46.8853 745.264 47.3653 745.51 47.792C745.766 48.208 746.096 48.5387 746.502 48.784C746.918 49.0187 747.371 49.136 747.862 49.136C748.267 49.136 748.656 49.0667 749.03 48.928C749.414 48.7787 749.739 48.5813 750.006 48.336L750.742 49.12C750.294 49.472 749.83 49.7333 749.35 49.904C748.87 50.0747 748.358 50.16 747.814 50.16ZM745.11 45.52H750.054C750 45.0507 749.856 44.6347 749.622 44.272C749.398 43.8987 749.11 43.6053 748.758 43.392C748.416 43.1787 748.032 43.072 747.606 43.072C747.179 43.072 746.79 43.1787 746.438 43.392C746.086 43.5947 745.792 43.8827 745.558 44.256C745.334 44.6187 745.184 45.04 745.11 45.52ZM753.2 50V42.192H754.368V43.792C754.571 43.248 754.859 42.8267 755.232 42.528C755.616 42.2187 756.053 42.064 756.544 42.064C756.683 42.064 756.811 42.0747 756.928 42.096C757.045 42.1067 757.163 42.1333 757.28 42.176V43.232C757.152 43.1893 757.013 43.1573 756.864 43.136C756.725 43.104 756.592 43.088 756.464 43.088C755.984 43.088 755.563 43.2267 755.2 43.504C754.848 43.7813 754.571 44.1707 754.368 44.672V50H753.2ZM761.163 50.16C760.523 50.16 759.931 50.064 759.387 49.872C758.843 49.6693 758.379 49.3813 757.995 49.008L758.619 48.24C759.088 48.5813 759.52 48.832 759.915 48.992C760.31 49.1413 760.715 49.216 761.131 49.216C761.696 49.216 762.166 49.0827 762.539 48.816C762.912 48.5493 763.099 48.208 763.099 47.792C763.099 47.472 762.987 47.2213 762.763 47.04C762.55 46.8587 762.192 46.72 761.691 46.624L760.411 46.4C759.654 46.2613 759.094 46.0267 758.731 45.696C758.379 45.3653 758.203 44.9173 758.203 44.352C758.203 43.904 758.32 43.5093 758.555 43.168C758.8 42.8267 759.136 42.56 759.563 42.368C759.99 42.1653 760.475 42.064 761.019 42.064C761.552 42.064 762.059 42.144 762.539 42.304C763.019 42.4533 763.504 42.6987 763.995 43.04L763.419 43.856C763.014 43.568 762.608 43.36 762.203 43.232C761.798 43.0933 761.387 43.024 760.971 43.024C760.459 43.024 760.048 43.136 759.739 43.36C759.43 43.584 759.275 43.888 759.275 44.272C759.275 44.592 759.371 44.8373 759.563 45.008C759.766 45.1787 760.118 45.3067 760.619 45.392L761.931 45.632C762.72 45.7707 763.296 46.0107 763.659 46.352C764.022 46.6933 764.203 47.152 764.203 47.728C764.203 48.1867 764.07 48.6027 763.803 48.976C763.536 49.3387 763.174 49.6267 762.715 49.84C762.256 50.0533 761.739 50.16 761.163 50.16Z" fill="#0066CC"/>
<defs>
<clipPath id="clip0_43_554">
<rect width="24" height="24" fill="white" transform="translate(244 32)"/>
</clipPath>
<clipPath id="clip1_43_554">
<rect width="24" height="24" fill="white" transform="translate(502 16)"/>
</clipPath>
</defs>
</svg>
