<?xml version="1.0" encoding="utf-8"?>
<!-- Generator: Adobe Illustrator 24.3.0, SVG Export Plug-In . SVG Version: 6.00 Build 0)  -->
<svg version="1.1" id="Layer_1" xmlns="http://www.w3.org/2000/svg" xmlns:xlink="http://www.w3.org/1999/xlink" x="0px" y="0px"
	 viewBox="0 0 768 184" style="enable-background:new 0 0 768 184;" xml:space="preserve">
<style type="text/css">
	.st0{fill:#FFFFFF;}
	.st1{fill:none;stroke:#D2D2D2;}
	.st2{enable-background:new    ;}
	.st3{fill:#151515;}
	.st4{fill:#0066CC;}
	.st5{fill:none;}
	.st6{fill:#EE0000;}
	.st7{opacity:3.000000e-02;}
	.st8{opacity:0.75;fill:#0000FF;enable-background:new    ;}
	.st9{opacity:0.75;fill:#FF0000;enable-background:new    ;}
</style>
<g transform="translate(-360 -5988)">
	<g transform="translate(30 5769)">
		<g transform="matrix(1, 0, 0, 1, 330, 219)">
			<g transform="translate(30 3)">
				<rect class="st0" width="708" height="172"/>
				<rect x="0.5" y="0.5" class="st1" width="707" height="171"/>
			</g>
		</g>
		<g class="st2">
			<path class="st3" d="M384.4,329.8h9v1.1h-3.9V341h-1.2v-10.1h-3.9V329.8z"/>
			<path class="st3" d="M395.1,329.6l1.2-0.2v5.1c0.6-0.9,1.4-1.4,2.5-1.4c1.7,0,2.8,1.2,2.8,2.9v5.1h-1.2v-4.7
				c0-1.4-0.8-2.2-2.1-2.2c-0.9,0-1.6,0.4-2,1.2v5.8h-1.2V329.6z"/>
			<path class="st3" d="M407.4,341.1c-2.2,0-3.9-1.8-3.9-4s1.6-4,3.7-4c2,0,3.6,1.7,3.6,3.9v0.4h-6.1c0.1,1.6,1.3,2.8,2.8,2.8
				c0.8,0,1.6-0.3,2.1-0.8l0.7,0.8C409.5,340.8,408.5,341.1,407.4,341.1z M404.7,336.5h4.9c-0.2-1.4-1.2-2.4-2.4-2.4
				C405.9,334.1,404.9,335.1,404.7,336.5z"/>
			<path class="st3" d="M416.8,329.8h4.6c2.1,0,3.6,1.3,3.6,3.2c0,1.5-0.9,2.6-2.3,3l2.4,4.9h-1.4l-2.3-4.8H418v4.8h-1.2V329.8z
				 M418,330.9v4.3h3.3c1.5,0,2.4-0.8,2.4-2.1c0-1.3-1-2.2-2.4-2.2H418z"/>
			<path class="st3" d="M430,341.1c-2.2,0-3.9-1.8-3.9-4s1.6-4,3.7-4c2,0,3.6,1.7,3.6,3.9v0.4h-6.1c0.1,1.6,1.3,2.8,2.8,2.8
				c0.8,0,1.6-0.3,2.1-0.8l0.7,0.8C432,340.8,431.1,341.1,430,341.1z M427.3,336.5h4.9c-0.2-1.4-1.2-2.4-2.4-2.4
				C428.5,334.1,427.5,335.1,427.3,336.5z"/>
			<path class="st3" d="M441.2,340c-0.6,0.8-1.5,1.2-2.5,1.2c-2,0-3.6-1.8-3.6-4c0-2.3,1.6-4,3.7-4c1,0,1.8,0.4,2.4,1.1v-4.6
				l1.2-0.2V341h-1.2V340z M439,340.1c0.9,0,1.7-0.4,2.2-1v-3.9c-0.5-0.7-1.3-1.1-2.2-1.1c-1.6,0-2.7,1.3-2.7,3
				C436.2,338.8,437.4,340.1,439,340.1z"/>
			<path class="st3" d="M448.7,329.8h1.2v5h6.4v-5h1.2V341h-1.2v-5.1h-6.4v5.1h-1.2V329.8z"/>
			<path class="st3" d="M459.6,338.8c0-1.4,1.2-2.3,2.9-2.3c0.9,0,1.7,0.2,2.4,0.6V336c0-1.3-0.7-1.9-2-1.9c-0.7,0-1.5,0.2-2.4,0.7
				l-0.4-0.9c1.1-0.5,2-0.8,2.9-0.8c1.9,0,3,1,3,2.8v5.2h-1.2v-0.9c-0.7,0.7-1.5,1.1-2.5,1.1C460.8,341.1,459.6,340.2,459.6,338.8z
				 M462.7,340.2c0.9,0,1.6-0.3,2.2-0.9v-1.5c-0.7-0.4-1.3-0.6-2.2-0.6c-1.2,0-2,0.6-2,1.4C460.7,339.6,461.5,340.2,462.7,340.2z"/>
			<path class="st3" d="M469.1,334.1h-1.6v-1h1.6V331l1.2-0.3v2.4h2.2v1h-2.2v4.8c0,0.8,0.3,1.2,1.1,1.2c0.4,0,0.7,0,1.1-0.2v1
				c-0.4,0.1-0.9,0.2-1.4,0.2c-1.3,0-2-0.7-2-1.9V334.1z"/>
			<path class="st3" d="M478.2,329.8h7.7v1.1h-6.4v3.9h4.4v1.1h-4.4v4h6.5v1.1h-7.7V329.8z"/>
			<path class="st3" d="M487.9,333.2h1.2v1.3c0.6-0.9,1.4-1.4,2.5-1.4c1.7,0,2.8,1.2,2.8,2.9v5.1h-1.2v-4.7c0-1.4-0.8-2.2-2.1-2.2
				c-0.9,0-1.6,0.4-2,1.2v5.8h-1.2V333.2z"/>
			<path class="st3" d="M497.4,334.1h-1.6v-1h1.6V331l1.2-0.3v2.4h2.2v1h-2.2v4.8c0,0.8,0.3,1.2,1.1,1.2c0.4,0,0.7,0,1.1-0.2v1
				c-0.4,0.1-0.9,0.2-1.4,0.2c-1.3,0-2-0.7-2-1.9V334.1z"/>
			<path class="st3" d="M505.8,341.1c-2.2,0-3.9-1.8-3.9-4s1.6-4,3.7-4c2,0,3.6,1.7,3.6,3.9v0.4h-6.1c0.1,1.6,1.3,2.8,2.8,2.8
				c0.8,0,1.6-0.3,2.1-0.8l0.7,0.8C507.9,340.8,506.9,341.1,505.8,341.1z M503.1,336.5h4.9c-0.2-1.4-1.2-2.4-2.4-2.4
				C504.3,334.1,503.3,335.1,503.1,336.5z"/>
			<path class="st3" d="M511.2,333.2h1.2v1.6c0.4-1.1,1.2-1.7,2.2-1.7c0.3,0,0.5,0,0.7,0.1v1.1c-0.3-0.1-0.6-0.1-0.8-0.1
				c-1,0-1.7,0.6-2.1,1.6v5.3h-1.2V333.2z"/>
			<path class="st3" d="M516.8,333.2h1.2v1.1c0.6-0.8,1.5-1.2,2.5-1.2c2,0,3.6,1.8,3.6,4c0,2.3-1.6,4-3.7,4c-1,0-1.8-0.4-2.4-1.1
				v4.3h-1.2V333.2z M518,335.2v3.8c0.5,0.7,1.3,1.1,2.2,1.1c1.6,0,2.7-1.3,2.7-3s-1.2-3-2.7-3C519.3,334.1,518.5,334.5,518,335.2z"
				/>
			<path class="st3" d="M526.2,333.2h1.2v1.6c0.4-1.1,1.2-1.7,2.2-1.7c0.3,0,0.5,0,0.7,0.1v1.1c-0.3-0.1-0.6-0.1-0.8-0.1
				c-1,0-1.7,0.6-2.1,1.6v5.3h-1.2V333.2z"/>
			<path class="st3" d="M531.5,330.4c0-0.4,0.4-0.8,0.8-0.8c0.4,0,0.8,0.4,0.8,0.8c0,0.5-0.4,0.8-0.8,0.8
				C531.9,331.3,531.5,330.9,531.5,330.4z M533,341h-1.2v-7.8h1.2V341z"/>
			<path class="st3" d="M535.2,339.2c0.9,0.7,1.7,1,2.5,1c1.1,0,2-0.6,2-1.4c0-0.6-0.4-1-1.4-1.2l-1.3-0.2c-1.5-0.3-2.2-0.9-2.2-2
				c0-1.3,1.2-2.3,2.8-2.3c1.1,0,2,0.3,3,1l-0.6,0.8c-0.8-0.6-1.6-0.8-2.4-0.8c-1,0-1.7,0.5-1.7,1.2c0,0.6,0.3,0.9,1.3,1.1l1.3,0.2
				c1.6,0.3,2.3,0.9,2.3,2.1c0,1.4-1.3,2.4-3,2.4c-1.3,0-2.4-0.4-3.2-1.2L535.2,339.2z"/>
			<path class="st3" d="M546.2,341.1c-2.2,0-3.9-1.8-3.9-4s1.6-4,3.7-4c2,0,3.6,1.7,3.6,3.9v0.4h-6.1c0.1,1.6,1.3,2.8,2.8,2.8
				c0.8,0,1.6-0.3,2.1-0.8l0.7,0.8C548.2,340.8,547.3,341.1,546.2,341.1z M543.5,336.5h4.9c-0.2-1.4-1.2-2.4-2.4-2.4
				C544.7,334.1,543.7,335.1,543.5,336.5z"/>
			<path class="st3" d="M555.5,329.8h1.2v10.1h6.3v1.1h-7.6V329.8z"/>
			<path class="st3" d="M564.8,330.4c0-0.4,0.4-0.8,0.8-0.8c0.4,0,0.8,0.4,0.8,0.8c0,0.5-0.4,0.8-0.8,0.8
				C565.1,331.3,564.8,330.9,564.8,330.4z M566.2,341H565v-7.8h1.2V341z"/>
			<path class="st3" d="M568.6,333.2h1.2v1.3c0.6-0.9,1.4-1.4,2.5-1.4c1.7,0,2.8,1.2,2.8,2.9v5.1h-1.2v-4.7c0-1.4-0.8-2.2-2.1-2.2
				c-0.9,0-1.6,0.4-2,1.2v5.8h-1.2V333.2z"/>
			<path class="st3" d="M578.5,337.9c0,1.4,0.8,2.3,2.1,2.3c0.9,0,1.6-0.4,2-1.2v-5.8h1.2v7.8h-1.2v-1.3c-0.6,0.9-1.4,1.4-2.5,1.4
				c-1.7,0-2.8-1.2-2.8-2.9v-5h1.2V337.9z"/>
			<path class="st3" d="M588.2,337l-2.8-3.8h1.4l2.2,3l2.1-3h1.3l-2.8,3.8l3,4h-1.4l-2.3-3.2l-2.3,3.2h-1.3L588.2,337z"/>
			<path class="st3" d="M597.7,333.2h1.2v1.1c0.6-0.8,1.5-1.2,2.5-1.2c2,0,3.6,1.8,3.6,4c0,2.3-1.6,4-3.7,4c-1,0-1.8-0.4-2.4-1.1
				v4.3h-1.2V333.2z M598.9,335.2v3.8c0.5,0.7,1.3,1.1,2.2,1.1c1.6,0,2.7-1.3,2.7-3s-1.2-3-2.7-3
				C600.2,334.1,599.4,334.5,598.9,335.2z"/>
			<path class="st3" d="M607,333.2h1.2v1.6c0.4-1.1,1.2-1.7,2.2-1.7c0.3,0,0.5,0,0.7,0.1v1.1c-0.3-0.1-0.6-0.1-0.8-0.1
				c-1,0-1.7,0.6-2.1,1.6v5.3H607V333.2z"/>
			<path class="st3" d="M615.6,333.1c2.2,0,3.8,1.7,3.8,4c0,2.3-1.6,4.1-3.8,4.1c-2.1,0-3.8-1.8-3.8-4.1
				C611.8,334.8,613.5,333.1,615.6,333.1z M618.3,337.1c0-1.7-1.1-3-2.7-3s-2.6,1.3-2.6,3c0,1.7,1.1,3,2.6,3
				S618.3,338.8,618.3,337.1z"/>
			<path class="st3" d="M627.2,340c-0.6,0.8-1.5,1.2-2.5,1.2c-2,0-3.6-1.8-3.6-4c0-2.3,1.6-4,3.7-4c1,0,1.8,0.4,2.4,1.1v-4.6
				l1.2-0.2V341h-1.2V340z M625,340.1c0.9,0,1.7-0.4,2.2-1v-3.9c-0.5-0.7-1.3-1.1-2.2-1.1c-1.6,0-2.7,1.3-2.7,3
				C622.3,338.8,623.5,340.1,625,340.1z"/>
			<path class="st3" d="M631.9,337.9c0,1.4,0.8,2.3,2.1,2.3c0.9,0,1.6-0.4,2-1.2v-5.8h1.2v7.8h-1.2v-1.3c-0.6,0.9-1.4,1.4-2.5,1.4
				c-1.7,0-2.8-1.2-2.8-2.9v-5h1.2V337.9z"/>
			<path class="st3" d="M645.4,339.2l0.7,0.7c-0.8,0.8-1.8,1.3-3,1.3c-2.2,0-3.9-1.8-3.9-4c0-2.3,1.7-4,3.9-4c1.2,0,2.2,0.4,3,1.2
				l-0.8,0.8c-0.6-0.6-1.4-1-2.2-1c-1.5,0-2.7,1.3-2.7,3c0,1.7,1.2,3,2.8,3C644,340.1,644.8,339.8,645.4,339.2z"/>
			<path class="st3" d="M648.9,334.1h-1.6v-1h1.6V331l1.2-0.3v2.4h2.2v1H650v4.8c0,0.8,0.3,1.2,1.1,1.2c0.4,0,0.7,0,1.1-0.2v1
				c-0.4,0.1-0.9,0.2-1.4,0.2c-1.3,0-2-0.7-2-1.9V334.1z"/>
			<path class="st3" d="M657.7,333.2h1.2v1.1c0.6-0.8,1.5-1.2,2.5-1.2c2,0,3.6,1.8,3.6,4c0,2.3-1.6,4-3.7,4c-1,0-1.8-0.4-2.4-1.1
				v4.3h-1.2V333.2z M658.9,335.2v3.8c0.5,0.7,1.3,1.1,2.2,1.1c1.6,0,2.7-1.3,2.7-3s-1.2-3-2.7-3
				C660.2,334.1,659.4,334.5,658.9,335.2z"/>
			<path class="st3" d="M666.7,338.8c0-1.4,1.2-2.3,2.9-2.3c0.9,0,1.7,0.2,2.4,0.6V336c0-1.3-0.7-1.9-2-1.9c-0.7,0-1.5,0.2-2.4,0.7
				l-0.4-0.9c1.1-0.5,2-0.8,2.9-0.8c1.9,0,3,1,3,2.8v5.2H672v-0.9c-0.7,0.7-1.5,1.1-2.5,1.1C667.9,341.1,666.7,340.2,666.7,338.8z
				 M669.8,340.2c0.9,0,1.6-0.3,2.2-0.9v-1.5c-0.7-0.4-1.3-0.6-2.2-0.6c-1.2,0-2,0.6-2,1.4C667.8,339.6,668.6,340.2,669.8,340.2z"/>
			<path class="st3" d="M675.2,337.1c0-2.2,1.6-4,3.7-4c1,0,1.8,0.4,2.4,1.1v-1h1.2v8.2c0,1.9-1.2,3-3.3,3c-1.1,0-2.1-0.3-3-0.8
				l0.5-0.9c1,0.5,1.7,0.7,2.5,0.7c1.4,0,2.2-0.7,2.2-2v-1.5c-0.6,0.8-1.5,1.2-2.5,1.2C676.7,341.1,675.2,339.3,675.2,337.1z
				 M679.1,340.1c0.9,0,1.7-0.4,2.2-1.1v-3.9c-0.5-0.7-1.3-1.1-2.2-1.1c-1.6,0-2.7,1.3-2.7,3C676.3,338.8,677.5,340.1,679.1,340.1z"
				/>
			<path class="st3" d="M688.4,341.1c-2.2,0-3.9-1.8-3.9-4s1.6-4,3.7-4c2,0,3.6,1.7,3.6,3.9v0.4h-6.1c0.1,1.6,1.3,2.8,2.8,2.8
				c0.8,0,1.6-0.3,2.1-0.8l0.7,0.8C690.4,340.8,689.5,341.1,688.4,341.1z M685.7,336.5h4.9c-0.2-1.4-1.2-2.4-2.4-2.4
				C686.9,334.1,685.9,335.1,685.7,336.5z"/>
			<path class="st3" d="M697.5,329.6l1.2-0.2v5.1c0.6-0.9,1.4-1.4,2.5-1.4c1.7,0,2.8,1.2,2.8,2.9v5.1h-1.2v-4.7
				c0-1.4-0.8-2.2-2.1-2.2c-0.9,0-1.6,0.4-2,1.2v5.8h-1.2V329.6z"/>
			<path class="st3" d="M705.9,338.8c0-1.4,1.2-2.3,2.9-2.3c0.9,0,1.7,0.2,2.4,0.6V336c0-1.3-0.7-1.9-2-1.9c-0.7,0-1.5,0.2-2.4,0.7
				l-0.4-0.9c1.1-0.5,2-0.8,2.9-0.8c1.9,0,3,1,3,2.8v5.2h-1.2v-0.9c-0.7,0.7-1.5,1.1-2.5,1.1C707.1,341.1,705.9,340.2,705.9,338.8z
				 M709,340.2c0.9,0,1.6-0.3,2.2-0.9v-1.5c-0.7-0.4-1.3-0.6-2.2-0.6c-1.2,0-2,0.6-2,1.4C707,339.6,707.8,340.2,709,340.2z"/>
			<path class="st3" d="M714.6,339.2c0.9,0.7,1.7,1,2.5,1c1.1,0,2-0.6,2-1.4c0-0.6-0.4-1-1.4-1.2l-1.3-0.2c-1.5-0.3-2.2-0.9-2.2-2
				c0-1.3,1.2-2.3,2.8-2.3c1.1,0,2,0.3,3,1l-0.6,0.8c-0.8-0.6-1.6-0.8-2.4-0.8c-1,0-1.7,0.5-1.7,1.2c0,0.6,0.3,0.9,1.3,1.1l1.3,0.2
				c1.6,0.3,2.3,0.9,2.3,2.1c0,1.4-1.3,2.4-3,2.4c-1.3,0-2.4-0.4-3.2-1.2L714.6,339.2z"/>
			<path class="st3" d="M726.6,334.1H725v-1h1.6V331l1.2-0.3v2.4h2.2v1h-2.2v4.8c0,0.8,0.3,1.2,1.1,1.2c0.4,0,0.7,0,1.1-0.2v1
				c-0.4,0.1-0.9,0.2-1.4,0.2c-1.3,0-2-0.7-2-1.9V334.1z"/>
			<path class="st3" d="M731.7,329.6l1.2-0.2v5.1c0.6-0.9,1.4-1.4,2.5-1.4c1.7,0,2.8,1.2,2.8,2.9v5.1h-1.2v-4.7
				c0-1.4-0.8-2.2-2.1-2.2c-0.9,0-1.6,0.4-2,1.2v5.8h-1.2V329.6z"/>
			<path class="st3" d="M744.1,341.1c-2.2,0-3.9-1.8-3.9-4s1.6-4,3.7-4c2,0,3.6,1.7,3.6,3.9v0.4h-6.1c0.1,1.6,1.3,2.8,2.8,2.8
				c0.8,0,1.6-0.3,2.1-0.8l0.7,0.8C746.1,340.8,745.2,341.1,744.1,341.1z M741.4,336.5h4.9c-0.2-1.4-1.2-2.4-2.4-2.4
				C742.6,334.1,741.6,335.1,741.4,336.5z"/>
			<path class="st3" d="M754.4,341h-1.2v-11.4l1.2-0.2V341z"/>
			<path class="st3" d="M756.4,338.8c0-1.4,1.2-2.3,2.9-2.3c0.9,0,1.7,0.2,2.4,0.6V336c0-1.3-0.7-1.9-2-1.9c-0.7,0-1.5,0.2-2.4,0.7
				l-0.4-0.9c1.1-0.5,2-0.8,2.9-0.8c1.9,0,3,1,3,2.8v5.2h-1.2v-0.9c-0.7,0.7-1.5,1.1-2.5,1.1C757.5,341.1,756.4,340.2,756.4,338.8z
				 M759.4,340.2c0.9,0,1.6-0.3,2.2-0.9v-1.5c-0.7-0.4-1.3-0.6-2.2-0.6c-1.2,0-2,0.6-2,1.4C757.5,339.6,758.3,340.2,759.4,340.2z"/>
			<path class="st3" d="M765.9,334.1h-1.6v-1h1.6V331l1.2-0.3v2.4h2.2v1H767v4.8c0,0.8,0.3,1.2,1.1,1.2c0.4,0,0.7,0,1.1-0.2v1
				c-0.4,0.1-0.9,0.2-1.4,0.2c-1.3,0-2-0.7-2-1.9V334.1z"/>
			<path class="st3" d="M774.3,341.1c-2.2,0-3.9-1.8-3.9-4s1.6-4,3.7-4c2,0,3.6,1.7,3.6,3.9v0.4h-6.1c0.1,1.6,1.3,2.8,2.8,2.8
				c0.8,0,1.6-0.3,2.1-0.8l0.7,0.8C776.4,340.8,775.4,341.1,774.3,341.1z M771.6,336.5h4.9c-0.2-1.4-1.2-2.4-2.4-2.4
				C772.8,334.1,771.8,335.1,771.6,336.5z"/>
			<path class="st3" d="M779.7,339.2c0.9,0.7,1.7,1,2.5,1c1.1,0,2-0.6,2-1.4c0-0.6-0.4-1-1.4-1.2l-1.3-0.2c-1.5-0.3-2.2-0.9-2.2-2
				c0-1.3,1.2-2.3,2.8-2.3c1.1,0,2,0.3,3,1l-0.6,0.8c-0.8-0.6-1.6-0.8-2.4-0.8c-1,0-1.7,0.5-1.7,1.2c0,0.6,0.3,0.9,1.3,1.1l1.3,0.2
				c1.6,0.3,2.3,0.9,2.3,2.1c0,1.4-1.3,2.4-3,2.4c-1.3,0-2.4-0.4-3.2-1.2L779.7,339.2z"/>
			<path class="st3" d="M787.8,334.1h-1.6v-1h1.6V331l1.2-0.3v2.4h2.2v1H789v4.8c0,0.8,0.3,1.2,1.1,1.2c0.4,0,0.7,0,1.1-0.2v1
				c-0.4,0.1-0.9,0.2-1.4,0.2c-1.3,0-2-0.7-2-1.9V334.1z"/>
			<path class="st3" d="M802.4,340c-0.6,0.8-1.5,1.2-2.5,1.2c-2,0-3.6-1.8-3.6-4c0-2.3,1.6-4,3.7-4c1,0,1.8,0.4,2.4,1.1v-4.6
				l1.2-0.2V341h-1.2V340z M800.2,340.1c0.9,0,1.7-0.4,2.2-1v-3.9c-0.5-0.7-1.3-1.1-2.2-1.1c-1.6,0-2.7,1.3-2.7,3
				C797.4,338.8,798.6,340.1,800.2,340.1z"/>
			<path class="st3" d="M809.4,333.1c2.2,0,3.8,1.7,3.8,4c0,2.3-1.6,4.1-3.8,4.1c-2.1,0-3.8-1.8-3.8-4.1
				C805.6,334.8,807.2,333.1,809.4,333.1z M812.1,337.1c0-1.7-1.1-3-2.7-3s-2.6,1.3-2.6,3c0,1.7,1.1,3,2.6,3
				S812.1,338.8,812.1,337.1z"/>
			<path class="st3" d="M816.5,341l-2.1-7.8h1.1l1.6,6.2l1.9-6.2h1l1.9,6.2l1.6-6.2h1.1l-2.1,7.8h-1.1l-1.9-6.3l-1.9,6.3H816.5z"/>
			<path class="st3" d="M826.3,333.2h1.2v1.3c0.6-0.9,1.4-1.4,2.5-1.4c1.7,0,2.8,1.2,2.8,2.9v5.1h-1.2v-4.7c0-1.4-0.8-2.2-2.1-2.2
				c-0.9,0-1.6,0.4-2,1.2v5.8h-1.2V333.2z"/>
			<path class="st3" d="M836.3,341h-1.2v-11.4l1.2-0.2V341z"/>
			<path class="st3" d="M842.1,333.1c2.2,0,3.8,1.7,3.8,4c0,2.3-1.6,4.1-3.8,4.1c-2.1,0-3.8-1.8-3.8-4.1
				C838.3,334.8,839.9,333.1,842.1,333.1z M844.8,337.1c0-1.7-1.1-3-2.7-3s-2.6,1.3-2.6,3c0,1.7,1.1,3,2.6,3
				S844.8,338.8,844.8,337.1z"/>
			<path class="st3" d="M847.6,338.8c0-1.4,1.2-2.3,2.9-2.3c0.9,0,1.7,0.2,2.4,0.6V336c0-1.3-0.7-1.9-2-1.9c-0.7,0-1.5,0.2-2.4,0.7
				l-0.4-0.9c1.1-0.5,2-0.8,2.9-0.8c1.9,0,3,1,3,2.8v5.2h-1.2v-0.9c-0.7,0.7-1.5,1.1-2.5,1.1C848.8,341.1,847.6,340.2,847.6,338.8z
				 M850.7,340.2c0.9,0,1.6-0.3,2.2-0.9v-1.5c-0.7-0.4-1.3-0.6-2.2-0.6c-1.2,0-2,0.6-2,1.4C848.7,339.6,849.5,340.2,850.7,340.2z"/>
			<path class="st3" d="M862.2,340c-0.6,0.8-1.5,1.2-2.5,1.2c-2,0-3.6-1.8-3.6-4c0-2.3,1.6-4,3.7-4c1,0,1.8,0.4,2.4,1.1v-4.6
				l1.2-0.2V341h-1.2V340z M860,340.1c0.9,0,1.7-0.4,2.2-1v-3.9c-0.5-0.7-1.3-1.1-2.2-1.1c-1.6,0-2.7,1.3-2.7,3
				C857.3,338.8,858.4,340.1,860,340.1z"/>
			<path class="st3" d="M865.6,339.2c0.9,0.7,1.7,1,2.5,1c1.1,0,2-0.6,2-1.4c0-0.6-0.4-1-1.4-1.2l-1.3-0.2c-1.5-0.3-2.2-0.9-2.2-2
				c0-1.3,1.2-2.3,2.8-2.3c1.1,0,2,0.3,3,1l-0.6,0.8c-0.8-0.6-1.6-0.8-2.4-0.8c-1,0-1.7,0.5-1.7,1.2c0,0.6,0.3,0.9,1.3,1.1l1.3,0.2
				c1.6,0.3,2.3,0.9,2.3,2.1c0,1.4-1.3,2.4-3,2.4c-1.3,0-2.4-0.4-3.2-1.2L865.6,339.2z"/>
			<path class="st3" d="M874.2,339.8l-1.3,3.7H872l1-3.7H874.2z"/>
			<path class="st3" d="M885.8,339.2l0.7,0.7c-0.8,0.8-1.8,1.3-3,1.3c-2.2,0-3.9-1.8-3.9-4c0-2.3,1.7-4,3.9-4c1.2,0,2.2,0.4,3,1.2
				l-0.8,0.8c-0.6-0.6-1.4-1-2.2-1c-1.5,0-2.7,1.3-2.7,3c0,1.7,1.2,3,2.8,3C884.5,340.1,885.3,339.8,885.8,339.2z"/>
			<path class="st3" d="M889.3,337.9c0,1.4,0.8,2.3,2.1,2.3c0.9,0,1.6-0.4,2-1.2v-5.8h1.2v7.8h-1.2v-1.3c-0.6,0.9-1.4,1.4-2.5,1.4
				c-1.7,0-2.8-1.2-2.8-2.9v-5h1.2V337.9z"/>
			<path class="st3" d="M897,333.2h1.2v1.6c0.4-1.1,1.2-1.7,2.2-1.7c0.3,0,0.5,0,0.7,0.1v1.1c-0.3-0.1-0.6-0.1-0.8-0.1
				c-1,0-1.7,0.6-2.1,1.6v5.3H897V333.2z"/>
			<path class="st3" d="M901.9,338.8c0-1.4,1.2-2.3,2.9-2.3c0.9,0,1.7,0.2,2.4,0.6V336c0-1.3-0.7-1.9-2-1.9c-0.7,0-1.5,0.2-2.4,0.7
				l-0.4-0.9c1.1-0.5,2-0.8,2.9-0.8c1.9,0,3,1,3,2.8v5.2h-1.2v-0.9c-0.7,0.7-1.5,1.1-2.5,1.1C903.1,341.1,901.9,340.2,901.9,338.8z
				 M905,340.2c0.9,0,1.6-0.3,2.2-0.9v-1.5c-0.7-0.4-1.3-0.6-2.2-0.6c-1.2,0-2,0.6-2,1.4C903,339.6,903.8,340.2,905,340.2z"/>
			<path class="st3" d="M911.4,334.1h-1.6v-1h1.6V331l1.2-0.3v2.4h2.2v1h-2.2v4.8c0,0.8,0.3,1.2,1.1,1.2c0.4,0,0.7,0,1.1-0.2v1
				c-0.4,0.1-0.9,0.2-1.4,0.2c-1.3,0-2-0.7-2-1.9V334.1z"/>
			<path class="st3" d="M919.9,341.1c-2.2,0-3.9-1.8-3.9-4s1.6-4,3.7-4c2,0,3.6,1.7,3.6,3.9v0.4h-6.1c0.1,1.6,1.3,2.8,2.8,2.8
				c0.8,0,1.6-0.3,2.1-0.8l0.7,0.8C921.9,340.8,921,341.1,919.9,341.1z M917.2,336.5h4.9c-0.2-1.4-1.2-2.4-2.4-2.4
				C918.4,334.1,917.4,335.1,917.2,336.5z"/>
			<path class="st3" d="M931,340c-0.6,0.8-1.5,1.2-2.5,1.2c-2,0-3.6-1.8-3.6-4c0-2.3,1.6-4,3.7-4c1,0,1.8,0.4,2.4,1.1v-4.6l1.2-0.2
				V341H931V340z M928.8,340.1c0.9,0,1.7-0.4,2.2-1v-3.9c-0.5-0.7-1.3-1.1-2.2-1.1c-1.6,0-2.7,1.3-2.7,3
				C926.1,338.8,927.2,340.1,928.8,340.1z"/>
			<path class="st3" d="M938.3,329.6l1.2-0.2v7.4l3.7-3.5h1.4l-4,3.7l4.1,4.1h-1.5l-3.8-3.7v3.7h-1.2V329.6z"/>
			<path class="st3" d="M946.1,333.2h1.2v1.3c0.6-0.9,1.4-1.4,2.5-1.4c1.7,0,2.8,1.2,2.8,2.9v5.1h-1.2v-4.7c0-1.4-0.8-2.2-2.1-2.2
				c-0.9,0-1.6,0.4-2,1.2v5.8h-1.2V333.2z"/>
			<path class="st3" d="M958.4,333.1c2.2,0,3.8,1.7,3.8,4c0,2.3-1.6,4.1-3.8,4.1c-2.1,0-3.8-1.8-3.8-4.1
				C954.6,334.8,956.2,333.1,958.4,333.1z M961.1,337.1c0-1.7-1.1-3-2.7-3s-2.6,1.3-2.6,3c0,1.7,1.1,3,2.6,3
				S961.1,338.8,961.1,337.1z"/>
			<path class="st3" d="M965.5,341l-2.1-7.8h1.1l1.6,6.2l1.9-6.2h1l1.9,6.2l1.6-6.2h1.1l-2.1,7.8h-1.1l-1.9-6.3l-1.9,6.3H965.5z"/>
			<path class="st3" d="M976.4,341h-1.2v-11.4l1.2-0.2V341z"/>
			<path class="st3" d="M982.4,341.1c-2.2,0-3.9-1.8-3.9-4s1.6-4,3.7-4c2,0,3.6,1.7,3.6,3.9v0.4h-6.1c0.1,1.6,1.3,2.8,2.8,2.8
				c0.8,0,1.6-0.3,2.1-0.8l0.7,0.8C984.4,340.8,983.4,341.1,982.4,341.1z M979.7,336.5h4.9c-0.2-1.4-1.2-2.4-2.4-2.4
				C980.9,334.1,979.9,335.1,979.7,336.5z"/>
			<path class="st3" d="M993.5,340c-0.6,0.8-1.5,1.2-2.5,1.2c-2,0-3.6-1.8-3.6-4c0-2.3,1.6-4,3.7-4c1,0,1.8,0.4,2.4,1.1v-4.6
				l1.2-0.2V341h-1.2V340z M991.3,340.1c0.9,0,1.7-0.4,2.2-1v-3.9c-0.5-0.7-1.3-1.1-2.2-1.1c-1.6,0-2.7,1.3-2.7,3
				C988.6,338.8,989.7,340.1,991.3,340.1z"/>
			<path class="st3" d="M996.7,337.1c0-2.2,1.6-4,3.7-4c1,0,1.8,0.4,2.4,1.1v-1h1.2v8.2c0,1.9-1.2,3-3.3,3c-1.1,0-2.1-0.3-3-0.8
				l0.5-0.9c1,0.5,1.7,0.7,2.5,0.7c1.4,0,2.2-0.7,2.2-2v-1.5c-0.6,0.8-1.5,1.2-2.5,1.2C998.3,341.1,996.7,339.3,996.7,337.1z
				 M1000.6,340.1c0.9,0,1.7-0.4,2.2-1.1v-3.9c-0.5-0.7-1.3-1.1-2.2-1.1c-1.6,0-2.7,1.3-2.7,3C997.9,338.8,999,340.1,1000.6,340.1z"
				/>
			<path class="st3" d="M1009.9,341.1c-2.2,0-3.9-1.8-3.9-4s1.6-4,3.7-4c2,0,3.6,1.7,3.6,3.9v0.4h-6.1c0.1,1.6,1.3,2.8,2.8,2.8
				c0.8,0,1.6-0.3,2.1-0.8l0.7,0.8C1011.9,340.8,1011,341.1,1009.9,341.1z M1007.2,336.5h4.9c-0.2-1.4-1.2-2.4-2.4-2.4
				C1008.4,334.1,1007.4,335.1,1007.2,336.5z"/>
			<path class="st3" d="M1016.3,339.8l-1.3,3.7h-0.9l1-3.7H1016.3z"/>
			<path class="st3" d="M1021.7,338.8c0-1.4,1.2-2.3,2.9-2.3c0.9,0,1.7,0.2,2.4,0.6V336c0-1.3-0.7-1.9-2-1.9c-0.7,0-1.5,0.2-2.4,0.7
				l-0.4-0.9c1.1-0.5,2-0.8,2.9-0.8c1.9,0,3,1,3,2.8v5.2h-1.2v-0.9c-0.7,0.7-1.5,1.1-2.5,1.1
				C1022.9,341.1,1021.7,340.2,1021.7,338.8z M1024.8,340.2c0.9,0,1.6-0.3,2.2-0.9v-1.5c-0.7-0.4-1.3-0.6-2.2-0.6
				c-1.2,0-2,0.6-2,1.4C1022.8,339.6,1023.6,340.2,1024.8,340.2z"/>
			<path class="st3" d="M1030.6,333.2h1.2v1.3c0.6-0.9,1.4-1.4,2.5-1.4c1.7,0,2.8,1.2,2.8,2.9v5.1h-1.2v-4.7c0-1.4-0.8-2.2-2.1-2.2
				c-0.9,0-1.6,0.4-2,1.2v5.8h-1.2V333.2z"/>
			<path class="st3" d="M1045.1,340c-0.6,0.8-1.5,1.2-2.5,1.2c-2,0-3.6-1.8-3.6-4c0-2.3,1.6-4,3.7-4c1,0,1.8,0.4,2.4,1.1v-4.6
				l1.2-0.2V341h-1.2V340z M1042.9,340.1c0.9,0,1.7-0.4,2.2-1v-3.9c-0.5-0.7-1.3-1.1-2.2-1.1c-1.6,0-2.7,1.3-2.7,3
				C1040.2,338.8,1041.4,340.1,1042.9,340.1z"/>
		</g>
		<g class="st2">
			<path class="st3" d="M385.1,363.2c0.9,0.7,1.7,1,2.5,1c1.1,0,2-0.6,2-1.4c0-0.6-0.4-1-1.4-1.2l-1.3-0.2c-1.5-0.3-2.2-0.9-2.2-2
				c0-1.3,1.2-2.3,2.8-2.3c1.1,0,2,0.3,3,1l-0.6,0.8c-0.8-0.6-1.6-0.8-2.4-0.8c-1,0-1.7,0.5-1.7,1.2c0,0.6,0.3,0.9,1.3,1.1l1.3,0.2
				c1.6,0.3,2.3,0.9,2.3,2.1c0,1.4-1.3,2.4-3,2.4c-1.3,0-2.4-0.4-3.2-1.2L385.1,363.2z"/>
			<path class="st3" d="M393.6,361.9c0,1.4,0.8,2.3,2.1,2.3c0.9,0,1.6-0.4,2-1.2v-5.8h1.2v7.8h-1.2v-1.3c-0.6,0.9-1.4,1.4-2.5,1.4
				c-1.7,0-2.8-1.2-2.8-2.9v-5h1.2V361.9z"/>
			<path class="st3" d="M401.3,357.2h1.2v1.1c0.6-0.8,1.5-1.2,2.5-1.2c2,0,3.6,1.8,3.6,4c0,2.3-1.6,4-3.7,4c-1,0-1.8-0.4-2.4-1.1
				v4.3h-1.2V357.2z M402.4,359.2v3.8c0.5,0.7,1.3,1.1,2.2,1.1c1.6,0,2.7-1.3,2.7-3s-1.2-3-2.7-3
				C403.7,358.1,402.9,358.5,402.4,359.2z"/>
			<path class="st3" d="M410.6,357.2h1.2v1.1c0.6-0.8,1.5-1.2,2.5-1.2c2,0,3.6,1.8,3.6,4c0,2.3-1.6,4-3.7,4c-1,0-1.8-0.4-2.4-1.1
				v4.3h-1.2V357.2z M411.8,359.2v3.8c0.5,0.7,1.3,1.1,2.2,1.1c1.6,0,2.7-1.3,2.7-3s-1.2-3-2.7-3
				C413.1,358.1,412.3,358.5,411.8,359.2z"/>
			<path class="st3" d="M423.4,357.1c2.2,0,3.8,1.7,3.8,4c0,2.3-1.6,4.1-3.8,4.1c-2.1,0-3.8-1.8-3.8-4.1
				C419.6,358.8,421.2,357.1,423.4,357.1z M426,361.1c0-1.7-1.1-3-2.7-3s-2.6,1.3-2.6,3c0,1.7,1.1,3,2.6,3S426,362.8,426,361.1z"/>
			<path class="st3" d="M429.2,357.2h1.2v1.6c0.4-1.1,1.2-1.7,2.2-1.7c0.3,0,0.5,0,0.7,0.1v1.1c-0.3-0.1-0.6-0.1-0.8-0.1
				c-1,0-1.7,0.6-2.1,1.6v5.3h-1.2V357.2z"/>
			<path class="st3" d="M435.8,358.1h-1.6v-1h1.6V355l1.2-0.3v2.4h2.2v1H437v4.8c0,0.8,0.3,1.2,1.1,1.2c0.4,0,0.7,0,1.1-0.2v1
				c-0.4,0.1-0.9,0.2-1.4,0.2c-1.3,0-2-0.7-2-1.9V358.1z"/>
			<path class="st3" d="M444.4,354.4c0-0.4,0.4-0.8,0.8-0.8c0.4,0,0.8,0.4,0.8,0.8c0,0.5-0.4,0.8-0.8,0.8
				C444.8,355.3,444.4,354.9,444.4,354.4z M445.8,365h-1.2v-7.8h1.2V365z"/>
			<path class="st3" d="M448.2,357.2h1.2v1.3c0.6-0.9,1.4-1.4,2.5-1.4c1.7,0,2.8,1.2,2.8,2.9v5.1h-1.2v-4.7c0-1.4-0.8-2.2-2.1-2.2
				c-0.9,0-1.6,0.4-2,1.2v5.8h-1.2V357.2z"/>
			<path class="st3" d="M457.8,357.2v-1.7c0-1.5,0.8-2.4,2.3-2.4c0.4,0,0.8,0,1.1,0.1v1.1c-0.4-0.1-0.6-0.1-0.9-0.1
				c-0.9,0-1.3,0.4-1.3,1.4v1.7h2.2v1H459v6.9h-1.2v-6.9h-1.7v-1H457.8z"/>
			<path class="st3" d="M465.8,357.1c2.2,0,3.8,1.7,3.8,4c0,2.3-1.6,4.1-3.8,4.1c-2.1,0-3.8-1.8-3.8-4.1
				C462,358.8,463.7,357.1,465.8,357.1z M468.5,361.1c0-1.7-1.1-3-2.7-3s-2.6,1.3-2.6,3c0,1.7,1.1,3,2.6,3S468.5,362.8,468.5,361.1z
				"/>
			<path class="st3" d="M471.7,357.2h1.2v1.6c0.4-1.1,1.2-1.7,2.2-1.7c0.3,0,0.5,0,0.7,0.1v1.1c-0.3-0.1-0.6-0.1-0.8-0.1
				c-1,0-1.7,0.6-2.1,1.6v5.3h-1.2V357.2z"/>
			<path class="st3" d="M477.3,357.2h1.2v1.2c0.6-0.9,1.4-1.3,2.3-1.3c1.1,0,2,0.6,2.4,1.5c0.6-1,1.5-1.5,2.6-1.5
				c1.6,0,2.7,1.2,2.7,2.9v5h-1.2v-4.8c0-1.4-0.7-2.2-1.9-2.2c-0.8,0-1.5,0.4-2,1.2c0,0.2,0.1,0.4,0.1,0.7v5h-1.2v-4.8
				c0-1.4-0.8-2.2-1.9-2.2c-0.8,0-1.4,0.4-1.9,1.2v5.8h-1.2V357.2z"/>
			<path class="st3" d="M490.4,362.8c0-1.4,1.2-2.3,2.9-2.3c0.9,0,1.7,0.2,2.4,0.6V360c0-1.3-0.7-1.9-2-1.9c-0.7,0-1.5,0.2-2.4,0.7
				l-0.4-0.9c1.1-0.5,2-0.8,2.9-0.8c1.9,0,3,1,3,2.8v5.2h-1.2v-0.9c-0.7,0.7-1.5,1.1-2.5,1.1C491.6,365.1,490.4,364.2,490.4,362.8z
				 M493.5,364.2c0.9,0,1.6-0.3,2.2-0.9v-1.5c-0.7-0.4-1.3-0.6-2.2-0.6c-1.2,0-2,0.6-2,1.4C491.6,363.6,492.3,364.2,493.5,364.2z"/>
			<path class="st3" d="M500,358.1h-1.6v-1h1.6V355l1.2-0.3v2.4h2.2v1h-2.2v4.8c0,0.8,0.3,1.2,1.1,1.2c0.4,0,0.7,0,1.1-0.2v1
				c-0.4,0.1-0.9,0.2-1.4,0.2c-1.3,0-2-0.7-2-1.9V358.1z"/>
			<path class="st3" d="M504.8,354.4c0-0.4,0.4-0.8,0.8-0.8c0.4,0,0.8,0.4,0.8,0.8c0,0.5-0.4,0.8-0.8,0.8
				C505.2,355.3,504.8,354.9,504.8,354.4z M506.2,365h-1.2v-7.8h1.2V365z"/>
			<path class="st3" d="M512.1,357.1c2.2,0,3.8,1.7,3.8,4c0,2.3-1.6,4.1-3.8,4.1c-2.1,0-3.8-1.8-3.8-4.1
				C508.3,358.8,509.9,357.1,512.1,357.1z M514.7,361.1c0-1.7-1.1-3-2.7-3s-2.6,1.3-2.6,3c0,1.7,1.1,3,2.6,3
				S514.7,362.8,514.7,361.1z"/>
			<path class="st3" d="M517.9,357.2h1.2v1.3c0.6-0.9,1.4-1.4,2.5-1.4c1.7,0,2.8,1.2,2.8,2.9v5.1h-1.2v-4.7c0-1.4-0.8-2.2-2.1-2.2
				c-0.9,0-1.6,0.4-2,1.2v5.8h-1.2V357.2z"/>
			<path class="st3" d="M528.2,364.2c0,0.5-0.4,0.9-0.8,0.9c-0.5,0-0.8-0.4-0.8-0.9c0-0.5,0.4-0.9,0.8-0.9
				C527.8,363.4,528.2,363.8,528.2,364.2z"/>
		</g>
		<g class="st2">
			<path class="st4" d="M385.6,291.4h5.2c2.4,0,4,1.5,4,3.6c0,1.7-1,2.9-2.6,3.4l2.7,5.6h-1.5l-2.6-5.4H387v5.4h-1.4V291.4z
				 M387,292.6v4.8h3.7c1.7,0,2.7-1,2.7-2.4c0-1.5-1.1-2.4-2.7-2.4H387z"/>
			<path class="st4" d="M400.5,304.2c-2.5,0-4.4-2-4.4-4.6c0-2.6,1.8-4.5,4.1-4.5c2.3,0,4,1.9,4,4.4v0.4h-6.9
				c0.1,1.8,1.5,3.1,3.1,3.1c0.9,0,1.8-0.3,2.4-0.9l0.8,0.9C402.8,303.8,401.7,304.2,400.5,304.2z M397.5,299h5.6
				c-0.2-1.6-1.3-2.8-2.8-2.8C398.8,296.2,397.7,297.3,397.5,299z"/>
			<path class="st4" d="M413.1,302.8c-0.7,0.8-1.7,1.3-2.8,1.3c-2.3,0-4.1-2-4.1-4.5c0-2.5,1.8-4.5,4.1-4.5c1.1,0,2,0.4,2.7,1.2
				v-5.2l1.3-0.3V304h-1.3V302.8z M410.6,303c1,0,1.9-0.4,2.5-1.2v-4.4c-0.6-0.7-1.5-1.2-2.5-1.2c-1.8,0-3.1,1.4-3.1,3.3
				S408.8,303,410.6,303z"/>
			<path class="st4" d="M421.5,291.4h1.4v5.6h7.2v-5.6h1.4V304h-1.4v-5.7h-7.2v5.7h-1.4V291.4z"/>
			<path class="st4" d="M433.8,301.5c0-1.6,1.3-2.6,3.3-2.6c1,0,1.9,0.2,2.7,0.7v-1.2c0-1.4-0.8-2.2-2.3-2.2c-0.8,0-1.6,0.2-2.7,0.8
				l-0.5-1c1.2-0.6,2.3-0.8,3.3-0.8c2.2,0,3.4,1.1,3.4,3.1v5.8h-1.3v-1c-0.8,0.8-1.7,1.2-2.8,1.2
				C435.1,304.2,433.8,303.1,433.8,301.5z M437.2,303.2c1,0,1.8-0.3,2.5-1v-1.7c-0.7-0.4-1.5-0.6-2.5-0.6c-1.3,0-2.2,0.6-2.2,1.6
				C435,302.5,435.9,303.2,437.2,303.2z"/>
			<path class="st4" d="M444.5,296.3h-1.8v-1.1h1.8v-2.4l1.3-0.3v2.7h2.5v1.1h-2.5v5.4c0,0.9,0.4,1.3,1.3,1.3c0.5,0,0.8-0.1,1.2-0.2
				v1.2c-0.5,0.2-1,0.2-1.5,0.2c-1.5,0-2.3-0.7-2.3-2.1V296.3z"/>
			<path class="st4" d="M454.7,291.4h8.6v1.2h-7.2v4.4h5v1.2h-5v4.6h7.3v1.2h-8.7V291.4z"/>
			<path class="st4" d="M465.6,295.2h1.3v1.4c0.7-1,1.6-1.6,2.8-1.6c1.9,0,3.2,1.3,3.2,3.2v5.7h-1.3v-5.3c0-1.5-0.9-2.5-2.4-2.5
				c-1,0-1.8,0.5-2.3,1.3v6.5h-1.3V295.2z"/>
			<path class="st4" d="M476.3,296.3h-1.8v-1.1h1.8v-2.4l1.3-0.3v2.7h2.5v1.1h-2.5v5.4c0,0.9,0.4,1.3,1.3,1.3c0.5,0,0.8-0.1,1.2-0.2
				v1.2c-0.5,0.2-1,0.2-1.5,0.2c-1.5,0-2.3-0.7-2.3-2.1V296.3z"/>
			<path class="st4" d="M485.8,304.2c-2.5,0-4.4-2-4.4-4.6c0-2.6,1.8-4.5,4.1-4.5c2.3,0,4,1.9,4,4.4v0.4h-6.9
				c0.1,1.8,1.5,3.1,3.1,3.1c0.9,0,1.8-0.3,2.4-0.9l0.8,0.9C488.1,303.8,487,304.2,485.8,304.2z M482.7,299h5.6
				c-0.2-1.6-1.3-2.8-2.8-2.8C484.1,296.2,483,297.3,482.7,299z"/>
			<path class="st4" d="M491.9,295.2h1.3v1.8c0.5-1.2,1.3-1.9,2.4-1.9c0.3,0,0.6,0,0.8,0.1v1.2c-0.3-0.1-0.6-0.2-0.9-0.2
				c-1.1,0-1.9,0.6-2.4,1.8v6h-1.3V295.2z"/>
			<path class="st4" d="M498.2,295.2h1.3v1.3c0.7-0.9,1.7-1.4,2.8-1.4c2.3,0,4.1,2,4.1,4.5c0,2.5-1.8,4.5-4.1,4.5
				c-1.1,0-2.1-0.4-2.8-1.2v4.9h-1.3V295.2z M499.5,297.5v4.3c0.6,0.8,1.5,1.2,2.5,1.2c1.8,0,3.1-1.4,3.1-3.4c0-1.9-1.3-3.4-3.1-3.4
				C501,296.3,500.1,296.7,499.5,297.5z"/>
			<path class="st4" d="M508.7,295.2h1.3v1.8c0.5-1.2,1.3-1.9,2.4-1.9c0.3,0,0.6,0,0.8,0.1v1.2c-0.3-0.1-0.6-0.2-0.9-0.2
				c-1.1,0-1.9,0.6-2.4,1.8v6h-1.3V295.2z"/>
			<path class="st4" d="M514.7,292.1c0-0.5,0.4-0.9,1-0.9c0.5,0,0.9,0.4,0.9,0.9c0,0.5-0.4,1-0.9,1
				C515.1,293.1,514.7,292.6,514.7,292.1z M516.3,304H515v-8.8h1.3V304z"/>
			<path class="st4" d="M518.9,302c1,0.8,1.9,1.1,2.8,1.1c1.3,0,2.2-0.7,2.2-1.6c0-0.7-0.5-1.1-1.6-1.3l-1.4-0.3
				c-1.7-0.3-2.5-1-2.5-2.3c0-1.5,1.3-2.6,3.2-2.6c1.2,0,2.2,0.3,3.3,1.1l-0.6,0.9c-0.9-0.6-1.8-0.9-2.8-0.9c-1.2,0-1.9,0.5-1.9,1.4
				c0,0.7,0.4,1.1,1.5,1.3l1.5,0.3c1.8,0.3,2.6,1.1,2.6,2.4c0,1.5-1.5,2.7-3.4,2.7c-1.4,0-2.7-0.5-3.6-1.3L518.9,302z"/>
			<path class="st4" d="M531.2,304.2c-2.5,0-4.4-2-4.4-4.6c0-2.6,1.8-4.5,4.1-4.5c2.3,0,4,1.9,4,4.4v0.4h-6.9
				c0.1,1.8,1.5,3.1,3.1,3.1c0.9,0,1.8-0.3,2.4-0.9l0.8,0.9C533.5,303.8,532.4,304.2,531.2,304.2z M528.2,299h5.6
				c-0.2-1.6-1.3-2.8-2.8-2.8C529.5,296.2,528.4,297.3,528.2,299z"/>
			<path class="st4" d="M541.7,291.4h1.4v11.4h7.1v1.2h-8.5V291.4z"/>
			<path class="st4" d="M552.1,292.1c0-0.5,0.4-0.9,1-0.9c0.5,0,0.9,0.4,0.9,0.9c0,0.5-0.4,1-0.9,1
				C552.5,293.1,552.1,292.6,552.1,292.1z M553.7,304h-1.3v-8.8h1.3V304z"/>
			<path class="st4" d="M556.4,295.2h1.3v1.4c0.7-1,1.6-1.6,2.8-1.6c1.9,0,3.2,1.3,3.2,3.2v5.7h-1.3v-5.3c0-1.5-0.9-2.5-2.4-2.5
				c-1,0-1.8,0.5-2.3,1.3v6.5h-1.3V295.2z"/>
			<path class="st4" d="M567.5,300.5c0,1.6,0.9,2.5,2.3,2.5c1,0,1.8-0.5,2.3-1.3v-6.5h1.3v8.8h-1.3v-1.4c-0.7,1-1.6,1.6-2.8,1.6
				c-1.9,0-3.2-1.3-3.2-3.3v-5.7h1.3V300.5z"/>
			<path class="st4" d="M578.4,299.5l-3.2-4.3h1.6l2.4,3.3l2.4-3.3h1.5l-3.2,4.2l3.4,4.6h-1.6l-2.6-3.6l-2.6,3.6h-1.5L578.4,299.5z"
				/>
		</g>
		<g class="st2">
			<path class="st3" d="M409.4,244.8h4.6c2.1,0,3.6,1.3,3.6,3.2c0,1.5-0.9,2.6-2.3,3l2.4,4.9h-1.4l-2.3-4.8h-3.3v4.8h-1.2V244.8z
				 M410.7,245.9v4.3h3.3c1.5,0,2.4-0.8,2.4-2.1c0-1.3-1-2.2-2.4-2.2H410.7z"/>
			<path class="st3" d="M422.7,256.1c-2.2,0-3.9-1.8-3.9-4s1.6-4,3.7-4c2,0,3.6,1.7,3.6,3.9v0.4h-6.1c0.1,1.6,1.3,2.8,2.8,2.8
				c0.8,0,1.6-0.3,2.1-0.8l0.7,0.8C424.7,255.8,423.8,256.1,422.7,256.1z M420,251.5h4.9c-0.2-1.4-1.2-2.4-2.4-2.4
				C421.2,249.1,420.2,250.1,420,251.5z"/>
			<path class="st3" d="M428,254.2c0.9,0.7,1.7,1,2.5,1c1.1,0,2-0.6,2-1.4c0-0.6-0.4-1-1.4-1.2l-1.3-0.2c-1.5-0.3-2.2-0.9-2.2-2
				c0-1.3,1.2-2.3,2.8-2.3c1.1,0,2,0.3,3,1l-0.6,0.8c-0.8-0.6-1.6-0.8-2.4-0.8c-1,0-1.7,0.5-1.7,1.2c0,0.6,0.3,0.9,1.3,1.1l1.3,0.2
				c1.6,0.3,2.3,0.9,2.3,2.1c0,1.4-1.3,2.4-3,2.4c-1.3,0-2.4-0.4-3.2-1.2L428,254.2z"/>
			<path class="st3" d="M436.5,252.9c0,1.4,0.8,2.3,2.1,2.3c0.9,0,1.6-0.4,2-1.2v-5.8h1.2v7.8h-1.2v-1.3c-0.6,0.9-1.4,1.4-2.5,1.4
				c-1.7,0-2.8-1.2-2.8-2.9v-5h1.2V252.9z"/>
			<path class="st3" d="M445.4,256h-1.2v-11.4l1.2-0.2V256z"/>
			<path class="st3" d="M448.7,249.1h-1.6v-1h1.6V246l1.2-0.3v2.4h2.2v1h-2.2v4.8c0,0.8,0.3,1.2,1.1,1.2c0.4,0,0.7,0,1.1-0.2v1
				c-0.4,0.1-0.9,0.2-1.4,0.2c-1.3,0-2-0.7-2-1.9V249.1z"/>
			<path class="st3" d="M453.9,254.2c0.9,0.7,1.7,1,2.5,1c1.1,0,2-0.6,2-1.4c0-0.6-0.4-1-1.4-1.2l-1.3-0.2c-1.5-0.3-2.2-0.9-2.2-2
				c0-1.3,1.2-2.3,2.8-2.3c1.1,0,2,0.3,3,1l-0.6,0.8c-0.8-0.6-1.6-0.8-2.4-0.8c-1,0-1.7,0.5-1.7,1.2c0,0.6,0.3,0.9,1.3,1.1l1.3,0.2
				c1.6,0.3,2.3,0.9,2.3,2.1c0,1.4-1.3,2.4-3,2.4c-1.3,0-2.4-0.4-3.2-1.2L453.9,254.2z"/>
			<path class="st3" d="M465.9,248.2v-1.7c0-1.5,0.8-2.4,2.3-2.4c0.4,0,0.8,0,1.1,0.1v1.1c-0.4-0.1-0.6-0.1-0.9-0.1
				c-0.9,0-1.3,0.4-1.3,1.4v1.7h2.2v1h-2.2v6.9h-1.2v-6.9h-1.7v-1H465.9z"/>
			<path class="st3" d="M470.9,248.2h1.2v1.6c0.4-1.1,1.2-1.7,2.2-1.7c0.3,0,0.5,0,0.7,0.1v1.1c-0.3-0.1-0.6-0.1-0.8-0.1
				c-1,0-1.7,0.6-2.1,1.6v5.3h-1.2V248.2z"/>
			<path class="st3" d="M479.4,248.1c2.2,0,3.8,1.7,3.8,4c0,2.3-1.6,4.1-3.8,4.1c-2.1,0-3.8-1.8-3.8-4.1
				C475.6,249.8,477.3,248.1,479.4,248.1z M482.1,252.1c0-1.7-1.1-3-2.7-3s-2.6,1.3-2.6,3c0,1.7,1.1,3,2.6,3
				S482.1,253.8,482.1,252.1z"/>
			<path class="st3" d="M485.3,248.2h1.2v1.2c0.6-0.9,1.4-1.3,2.3-1.3c1.1,0,2,0.6,2.4,1.5c0.6-1,1.5-1.5,2.6-1.5
				c1.6,0,2.7,1.2,2.7,2.9v5h-1.2v-4.8c0-1.4-0.7-2.2-1.9-2.2c-0.8,0-1.5,0.4-2,1.2c0,0.2,0.1,0.4,0.1,0.7v5h-1.2v-4.8
				c0-1.4-0.8-2.2-1.9-2.2c-0.8,0-1.4,0.4-1.9,1.2v5.8h-1.2V248.2z"/>
			<path class="st3" d="M511.3,253.5l0.8,0.8c-1.1,1.2-2.6,1.8-4.2,1.8c-3.2,0-5.7-2.6-5.7-5.8c0-3.2,2.5-5.8,5.7-5.8
				c1.6,0,3.2,0.7,4.2,1.8l-0.8,0.8c-0.8-1-2.1-1.6-3.4-1.6c-2.5,0-4.5,2-4.5,4.7s1.9,4.7,4.5,4.7
				C509.3,255.1,510.5,254.5,511.3,253.5z"/>
			<path class="st3" d="M515.1,252.9c0,1.4,0.8,2.3,2.1,2.3c0.9,0,1.6-0.4,2-1.2v-5.8h1.2v7.8h-1.2v-1.3c-0.6,0.9-1.4,1.4-2.5,1.4
				c-1.7,0-2.8-1.2-2.8-2.9v-5h1.2V252.9z"/>
			<path class="st3" d="M522.6,254.2c0.9,0.7,1.7,1,2.5,1c1.1,0,2-0.6,2-1.4c0-0.6-0.4-1-1.4-1.2l-1.3-0.2c-1.5-0.3-2.2-0.9-2.2-2
				c0-1.3,1.2-2.3,2.8-2.3c1.1,0,2,0.3,3,1l-0.6,0.8c-0.8-0.6-1.6-0.8-2.4-0.8c-1,0-1.7,0.5-1.7,1.2c0,0.6,0.3,0.9,1.3,1.1l1.3,0.2
				c1.6,0.3,2.3,0.9,2.3,2.1c0,1.4-1.3,2.4-3,2.4c-1.3,0-2.4-0.4-3.2-1.2L522.6,254.2z"/>
			<path class="st3" d="M530.8,249.1h-1.6v-1h1.6V246l1.2-0.3v2.4h2.2v1h-2.2v4.8c0,0.8,0.3,1.2,1.1,1.2c0.4,0,0.7,0,1.1-0.2v1
				c-0.4,0.1-0.9,0.2-1.4,0.2c-1.3,0-2-0.7-2-1.9V249.1z"/>
			<path class="st3" d="M539.1,248.1c2.2,0,3.8,1.7,3.8,4c0,2.3-1.6,4.1-3.8,4.1c-2.1,0-3.8-1.8-3.8-4.1
				C535.3,249.8,537,248.1,539.1,248.1z M541.8,252.1c0-1.7-1.1-3-2.7-3s-2.6,1.3-2.6,3c0,1.7,1.1,3,2.6,3S541.8,253.8,541.8,252.1z
				"/>
			<path class="st3" d="M545,248.2h1.2v1.2c0.6-0.9,1.4-1.3,2.3-1.3c1.1,0,2,0.6,2.4,1.5c0.6-1,1.5-1.5,2.6-1.5
				c1.6,0,2.7,1.2,2.7,2.9v5H555v-4.8c0-1.4-0.7-2.2-1.9-2.2c-0.8,0-1.5,0.4-2,1.2c0,0.2,0.1,0.4,0.1,0.7v5H550v-4.8
				c0-1.4-0.8-2.2-1.9-2.2c-0.8,0-1.4,0.4-1.9,1.2v5.8H545V248.2z"/>
			<path class="st3" d="M562,256.1c-2.2,0-3.9-1.8-3.9-4s1.6-4,3.7-4c2,0,3.6,1.7,3.6,3.9v0.4h-6.1c0.1,1.6,1.3,2.8,2.8,2.8
				c0.8,0,1.6-0.3,2.1-0.8l0.7,0.8C564,255.8,563.1,256.1,562,256.1z M559.3,251.5h4.9c-0.2-1.4-1.2-2.4-2.4-2.4
				C560.5,249.1,559.5,250.1,559.3,251.5z"/>
			<path class="st3" d="M567.4,248.2h1.2v1.6c0.4-1.1,1.2-1.7,2.2-1.7c0.3,0,0.5,0,0.7,0.1v1.1c-0.3-0.1-0.6-0.1-0.8-0.1
				c-1,0-1.7,0.6-2.1,1.6v5.3h-1.2V248.2z"/>
			<path class="st3" d="M576.8,248.2h1.2v1.1c0.6-0.8,1.5-1.2,2.5-1.2c2,0,3.6,1.8,3.6,4c0,2.3-1.6,4-3.7,4c-1,0-1.8-0.4-2.4-1.1
				v4.3h-1.2V248.2z M577.9,250.2v3.8c0.5,0.7,1.3,1.1,2.2,1.1c1.6,0,2.7-1.3,2.7-3s-1.2-3-2.7-3
				C579.2,249.1,578.4,249.5,577.9,250.2z"/>
			<path class="st3" d="M589.5,248.1c2.2,0,3.8,1.7,3.8,4c0,2.3-1.6,4.1-3.8,4.1c-2.1,0-3.8-1.8-3.8-4.1
				C585.8,249.8,587.4,248.1,589.5,248.1z M592.2,252.1c0-1.7-1.1-3-2.7-3s-2.6,1.3-2.6,3c0,1.7,1.1,3,2.6,3
				S592.2,253.8,592.2,252.1z"/>
			<path class="st3" d="M595.4,248.2h1.2v1.6c0.4-1.1,1.2-1.7,2.2-1.7c0.3,0,0.5,0,0.7,0.1v1.1c-0.3-0.1-0.6-0.1-0.8-0.1
				c-1,0-1.7,0.6-2.1,1.6v5.3h-1.2V248.2z"/>
			<path class="st3" d="M602,249.1h-1.6v-1h1.6V246l1.2-0.3v2.4h2.2v1h-2.2v4.8c0,0.8,0.3,1.2,1.1,1.2c0.4,0,0.7,0,1.1-0.2v1
				c-0.4,0.1-0.9,0.2-1.4,0.2c-1.3,0-2-0.7-2-1.9V249.1z"/>
			<path class="st3" d="M606.7,253.8c0-1.4,1.2-2.3,2.9-2.3c0.9,0,1.7,0.2,2.4,0.6V251c0-1.3-0.7-1.9-2-1.9c-0.7,0-1.5,0.2-2.4,0.7
				l-0.4-0.9c1.1-0.5,2-0.8,2.9-0.8c1.9,0,3,1,3,2.8v5.2H612v-0.9c-0.7,0.7-1.5,1.1-2.5,1.1C607.9,256.1,606.7,255.2,606.7,253.8z
				 M609.8,255.2c0.9,0,1.6-0.3,2.2-0.9v-1.5c-0.7-0.4-1.3-0.6-2.2-0.6c-1.2,0-2,0.6-2,1.4C607.8,254.6,608.6,255.2,609.8,255.2z"/>
			<path class="st3" d="M616.7,256h-1.2v-11.4l1.2-0.2V256z"/>
		</g>
		<g transform="translate(-307 -95)">
			<rect x="683" y="333" class="st5" width="24" height="24"/>
			<path class="st3" d="M694.2,350l-6.9-6.9c-0.4-0.5-0.4-1.2,0-1.6l1.2-1.2c0.5-0.4,1.2-0.4,1.6,0l4.9,4.9l4.9-4.9
				c0.5-0.4,1.2-0.4,1.6,0l1.2,1.2c0.4,0.5,0.4,1.2,0,1.6l-6.9,6.9C695.3,350.4,694.7,350.4,694.2,350z"/>
		</g>
		<rect x="360" y="222" class="st6" width="3" height="172"/>
	</g>
	<g transform="translate(0 312)" class="st7">
		<rect x="1098" y="5679" class="st8" width="30" height="172"/>
		<rect x="1050" y="5679" class="st9" width="48" height="172"/>
		<rect x="990" y="5679" class="st9" width="48" height="172"/>
		<rect x="930" y="5679" class="st9" width="48" height="172"/>
		<rect x="870" y="5679" class="st9" width="48" height="172"/>
		<rect x="810" y="5679" class="st9" width="48" height="172"/>
		<rect x="750" y="5679" class="st9" width="48" height="172"/>
		<rect x="690" y="5679" class="st9" width="48" height="172"/>
		<rect x="630" y="5679" class="st9" width="48" height="172"/>
		<rect x="570" y="5679" class="st9" width="48" height="172"/>
		<rect x="510" y="5679" class="st9" width="48" height="172"/>
		<rect x="450" y="5679" class="st9" width="48" height="172"/>
		<rect x="390" y="5679" class="st9" width="48" height="172"/>
		<rect x="360" y="5679" class="st8" width="30" height="172"/>
	</g>
</g>
</svg>
