<svg width="482" height="117" viewBox="0 0 482 117" fill="none" xmlns="http://www.w3.org/2000/svg">
<path d="M141 35C141 33.3431 142.343 32 144 32H338C339.657 32 341 33.3431 341 35V82C341 83.6569 339.657 85 338 85H144C142.343 85 141 83.6569 141 82V35Z" fill="#E9F7DF"/>
<g clip-path="url(#clip0_79_9998)">
<path d="M165 50.5C160.59 50.5 157 54.09 157 58.5C157 62.91 160.59 66.5 165 66.5C169.41 66.5 173 62.91 173 58.5C173 54.09 169.41 50.5 165 50.5ZM168.9 56.9L164.575 61.225C164.415 61.385 164.21 61.46 164 61.46C163.79 61.46 163.585 61.38 163.425 61.225L161.1 58.9C160.88 58.68 160.88 58.325 161.1 58.105C161.32 57.885 161.675 57.885 161.895 58.105L163.995 60.21L168.095 56.105C168.315 55.885 168.67 55.885 168.89 56.105C169.11 56.325 169.11 56.68 168.89 56.9H168.9Z" fill="#3D7317"/>
</g>
<path d="M181.126 63L185.004 53.2H186.292L190.114 63H188.952L187.79 59.92H183.422L182.26 63H181.126ZM183.758 59.066H187.468L185.606 54.18L183.758 59.066ZM191.292 63V52.892L192.314 52.682V63H191.292ZM194.409 63V52.892L195.431 52.682V63H194.409ZM202.908 63.14C202.348 63.14 201.83 63.056 201.354 62.888C200.878 62.7107 200.472 62.4587 200.136 62.132L200.682 61.46C201.093 61.7587 201.471 61.978 201.816 62.118C202.161 62.2487 202.516 62.314 202.88 62.314C203.375 62.314 203.785 62.1973 204.112 61.964C204.439 61.7307 204.602 61.432 204.602 61.068C204.602 60.788 204.504 60.5687 204.308 60.41C204.121 60.2513 203.809 60.13 203.37 60.046L202.25 59.85C201.587 59.7287 201.097 59.5233 200.78 59.234C200.472 58.9447 200.318 58.5527 200.318 58.058C200.318 57.666 200.421 57.3207 200.626 57.022C200.841 56.7233 201.135 56.49 201.508 56.322C201.881 56.1447 202.306 56.056 202.782 56.056C203.249 56.056 203.692 56.126 204.112 56.266C204.532 56.3967 204.957 56.6113 205.386 56.91L204.882 57.624C204.527 57.372 204.173 57.19 203.818 57.078C203.463 56.9567 203.104 56.896 202.74 56.896C202.292 56.896 201.933 56.994 201.662 57.19C201.391 57.386 201.256 57.652 201.256 57.988C201.256 58.268 201.34 58.4827 201.508 58.632C201.685 58.7813 201.993 58.8933 202.432 58.968L203.58 59.178C204.271 59.2993 204.775 59.5093 205.092 59.808C205.409 60.1067 205.568 60.508 205.568 61.012C205.568 61.4133 205.451 61.7773 205.218 62.104C204.985 62.4213 204.667 62.6733 204.266 62.86C203.865 63.0467 203.412 63.14 202.908 63.14ZM207.282 66.066C207.067 66.066 206.848 66.0333 206.624 65.968V65.058C206.717 65.0767 206.815 65.0907 206.918 65.1C207.02 65.1093 207.109 65.114 207.184 65.114C207.445 65.114 207.66 65.044 207.828 64.904C208.005 64.764 208.154 64.5447 208.276 64.246L208.78 63L206.148 56.168H207.282L209.354 61.782L211.552 56.168H212.686L209.242 64.554C209.092 64.918 208.929 65.212 208.752 65.436C208.574 65.66 208.369 65.8187 208.136 65.912C207.902 66.0147 207.617 66.066 207.282 66.066ZM216.074 63.14C215.514 63.14 214.996 63.056 214.52 62.888C214.044 62.7107 213.638 62.4587 213.302 62.132L213.848 61.46C214.259 61.7587 214.637 61.978 214.982 62.118C215.327 62.2487 215.682 62.314 216.046 62.314C216.541 62.314 216.951 62.1973 217.278 61.964C217.605 61.7307 217.768 61.432 217.768 61.068C217.768 60.788 217.67 60.5687 217.474 60.41C217.287 60.2513 216.975 60.13 216.536 60.046L215.416 59.85C214.753 59.7287 214.263 59.5233 213.946 59.234C213.638 58.9447 213.484 58.5527 213.484 58.058C213.484 57.666 213.587 57.3207 213.792 57.022C214.007 56.7233 214.301 56.49 214.674 56.322C215.047 56.1447 215.472 56.056 215.948 56.056C216.415 56.056 216.858 56.126 217.278 56.266C217.698 56.3967 218.123 56.6113 218.552 56.91L218.048 57.624C217.693 57.372 217.339 57.19 216.984 57.078C216.629 56.9567 216.27 56.896 215.906 56.896C215.458 56.896 215.099 56.994 214.828 57.19C214.557 57.386 214.422 57.652 214.422 57.988C214.422 58.268 214.506 58.4827 214.674 58.632C214.851 58.7813 215.159 58.8933 215.598 58.968L216.746 59.178C217.437 59.2993 217.941 59.5093 218.258 59.808C218.575 60.1067 218.734 60.508 218.734 61.012C218.734 61.4133 218.617 61.7773 218.384 62.104C218.151 62.4213 217.833 62.6733 217.432 62.86C217.031 63.0467 216.578 63.14 216.074 63.14ZM222.758 63.14C222.17 63.14 221.722 63 221.414 62.72C221.115 62.4307 220.966 62.0153 220.966 61.474V57.008H219.552V56.168H220.966V54.292L221.988 54.054V56.168H223.948V57.008H221.988V61.208C221.988 61.572 222.062 61.8333 222.212 61.992C222.37 62.1507 222.627 62.23 222.982 62.23C223.159 62.23 223.318 62.216 223.458 62.188C223.598 62.16 223.761 62.1133 223.948 62.048V62.958C223.761 63.0233 223.565 63.07 223.36 63.098C223.154 63.126 222.954 63.14 222.758 63.14ZM228.388 63.14C227.753 63.14 227.179 62.986 226.666 62.678C226.152 62.3607 225.746 61.936 225.448 61.404C225.149 60.8627 225 60.256 225 59.584C225 58.912 225.14 58.31 225.42 57.778C225.709 57.246 226.096 56.826 226.582 56.518C227.067 56.21 227.608 56.056 228.206 56.056C228.812 56.056 229.349 56.21 229.816 56.518C230.292 56.8167 230.665 57.2273 230.936 57.75C231.216 58.2633 231.356 58.8467 231.356 59.5V59.808H225.994C226.031 60.2747 226.157 60.6947 226.372 61.068C226.596 61.432 226.885 61.7213 227.24 61.936C227.604 62.1413 228 62.244 228.43 62.244C228.784 62.244 229.125 62.1833 229.452 62.062C229.788 61.9313 230.072 61.7587 230.306 61.544L230.95 62.23C230.558 62.538 230.152 62.7667 229.732 62.916C229.312 63.0653 228.864 63.14 228.388 63.14ZM226.022 59.08H230.348C230.301 58.6693 230.175 58.3053 229.97 57.988C229.774 57.6613 229.522 57.4047 229.214 57.218C228.915 57.0313 228.579 56.938 228.206 56.938C227.832 56.938 227.492 57.0313 227.184 57.218C226.876 57.3953 226.619 57.6473 226.414 57.974C226.218 58.2913 226.087 58.66 226.022 59.08ZM233.101 63V56.168H234.123V57.232C234.384 56.84 234.683 56.546 235.019 56.35C235.355 56.154 235.733 56.056 236.153 56.056C236.638 56.056 237.063 56.1773 237.427 56.42C237.791 56.6533 238.066 56.9753 238.253 57.386C238.523 56.9473 238.845 56.616 239.219 56.392C239.601 56.168 240.04 56.056 240.535 56.056C240.992 56.056 241.393 56.1633 241.739 56.378C242.093 56.5927 242.369 56.8913 242.565 57.274C242.761 57.6473 242.859 58.086 242.859 58.59V63H241.837V58.842C241.837 58.2447 241.687 57.7733 241.389 57.428C241.09 57.0827 240.679 56.91 240.157 56.91C239.802 56.91 239.48 56.9987 239.191 57.176C238.911 57.3533 238.663 57.624 238.449 57.988C238.467 58.0813 238.481 58.1793 238.491 58.282C238.5 58.3847 238.505 58.4873 238.505 58.59V63H237.483V58.842C237.483 58.2447 237.329 57.7733 237.021 57.428C236.722 57.0827 236.311 56.91 235.789 56.91C235.089 56.91 234.533 57.246 234.123 57.918V63H233.101ZM247.041 63.14C246.481 63.14 245.963 63.056 245.487 62.888C245.011 62.7107 244.605 62.4587 244.269 62.132L244.815 61.46C245.226 61.7587 245.604 61.978 245.949 62.118C246.294 62.2487 246.649 62.314 247.013 62.314C247.508 62.314 247.918 62.1973 248.245 61.964C248.572 61.7307 248.735 61.432 248.735 61.068C248.735 60.788 248.637 60.5687 248.441 60.41C248.254 60.2513 247.942 60.13 247.503 60.046L246.383 59.85C245.72 59.7287 245.23 59.5233 244.913 59.234C244.605 58.9447 244.451 58.5527 244.451 58.058C244.451 57.666 244.554 57.3207 244.759 57.022C244.974 56.7233 245.268 56.49 245.641 56.322C246.014 56.1447 246.439 56.056 246.915 56.056C247.382 56.056 247.825 56.126 248.245 56.266C248.665 56.3967 249.09 56.6113 249.519 56.91L249.015 57.624C248.66 57.372 248.306 57.19 247.951 57.078C247.596 56.9567 247.237 56.896 246.873 56.896C246.425 56.896 246.066 56.994 245.795 57.19C245.524 57.386 245.389 57.652 245.389 57.988C245.389 58.268 245.473 58.4827 245.641 58.632C245.818 58.7813 246.126 58.8933 246.565 58.968L247.713 59.178C248.404 59.2993 248.908 59.5093 249.225 59.808C249.542 60.1067 249.701 60.508 249.701 61.012C249.701 61.4133 249.584 61.7773 249.351 62.104C249.118 62.4213 248.8 62.6733 248.399 62.86C247.998 63.0467 247.545 63.14 247.041 63.14ZM257.549 63.112C256.914 63.112 256.345 62.958 255.841 62.65C255.337 62.342 254.94 61.922 254.651 61.39C254.361 60.858 254.217 60.256 254.217 59.584C254.217 58.912 254.361 58.31 254.651 57.778C254.94 57.246 255.337 56.826 255.841 56.518C256.345 56.21 256.914 56.056 257.549 56.056C258.174 56.056 258.734 56.21 259.229 56.518C259.733 56.826 260.129 57.246 260.419 57.778C260.708 58.31 260.853 58.912 260.853 59.584C260.853 60.256 260.708 60.858 260.419 61.39C260.129 61.922 259.733 62.342 259.229 62.65C258.734 62.958 258.174 63.112 257.549 63.112ZM257.535 62.216C257.983 62.216 258.379 62.104 258.725 61.88C259.07 61.6467 259.341 61.3293 259.537 60.928C259.742 60.5267 259.845 60.0787 259.845 59.584C259.845 59.08 259.742 58.632 259.537 58.24C259.341 57.8387 259.07 57.526 258.725 57.302C258.379 57.0687 257.983 56.952 257.535 56.952C257.087 56.952 256.69 57.0687 256.345 57.302C255.999 57.526 255.724 57.8387 255.519 58.24C255.323 58.632 255.225 59.08 255.225 59.584C255.225 60.0787 255.323 60.5267 255.519 60.928C255.724 61.3293 255.999 61.6467 256.345 61.88C256.69 62.104 257.087 62.216 257.535 62.216ZM262.646 65.926V56.168H263.654V57.148C263.915 56.8027 264.232 56.5413 264.606 56.364C264.988 56.1773 265.408 56.084 265.866 56.084C266.463 56.084 266.995 56.2427 267.462 56.56C267.938 56.868 268.316 57.288 268.596 57.82C268.876 58.3427 269.016 58.9307 269.016 59.584C269.016 60.2373 268.871 60.83 268.582 61.362C268.302 61.894 267.919 62.3187 267.434 62.636C266.958 62.944 266.416 63.098 265.81 63.098C265.38 63.098 264.984 63.0187 264.62 62.86C264.256 62.692 263.938 62.454 263.668 62.146V65.926H262.646ZM265.614 62.216C266.071 62.216 266.477 62.104 266.832 61.88C267.196 61.6467 267.48 61.334 267.686 60.942C267.9 60.5407 268.008 60.0927 268.008 59.598C268.008 59.094 267.9 58.646 267.686 58.254C267.48 57.862 267.196 57.554 266.832 57.33C266.477 57.0967 266.071 56.98 265.614 56.98C265.212 56.98 264.839 57.064 264.494 57.232C264.158 57.3907 263.882 57.6193 263.668 57.918V61.264C263.892 61.5627 264.172 61.796 264.508 61.964C264.853 62.132 265.222 62.216 265.614 62.216ZM273.888 63.14C273.253 63.14 272.679 62.986 272.166 62.678C271.652 62.3607 271.246 61.936 270.948 61.404C270.649 60.8627 270.5 60.256 270.5 59.584C270.5 58.912 270.64 58.31 270.92 57.778C271.209 57.246 271.596 56.826 272.082 56.518C272.567 56.21 273.108 56.056 273.706 56.056C274.312 56.056 274.849 56.21 275.316 56.518C275.792 56.8167 276.165 57.2273 276.436 57.75C276.716 58.2633 276.856 58.8467 276.856 59.5V59.808H271.494C271.531 60.2747 271.657 60.6947 271.872 61.068C272.096 61.432 272.385 61.7213 272.74 61.936C273.104 62.1413 273.5 62.244 273.93 62.244C274.284 62.244 274.625 62.1833 274.952 62.062C275.288 61.9313 275.572 61.7587 275.806 61.544L276.45 62.23C276.058 62.538 275.652 62.7667 275.232 62.916C274.812 63.0653 274.364 63.14 273.888 63.14ZM271.522 59.08H275.848C275.801 58.6693 275.675 58.3053 275.47 57.988C275.274 57.6613 275.022 57.4047 274.714 57.218C274.415 57.0313 274.079 56.938 273.706 56.938C273.332 56.938 272.992 57.0313 272.684 57.218C272.376 57.3953 272.119 57.6473 271.914 57.974C271.718 58.2913 271.587 58.66 271.522 59.08ZM278.601 63V56.168H279.623V57.568C279.8 57.092 280.052 56.7233 280.379 56.462C280.715 56.1913 281.097 56.056 281.527 56.056C281.648 56.056 281.76 56.0653 281.863 56.084C281.965 56.0933 282.068 56.1167 282.171 56.154V57.078C282.059 57.0407 281.937 57.0127 281.807 56.994C281.685 56.966 281.569 56.952 281.457 56.952C281.037 56.952 280.668 57.0733 280.351 57.316C280.043 57.5587 279.8 57.8993 279.623 58.338V63H278.601ZM285.35 63.126C284.864 63.126 284.435 63.0373 284.062 62.86C283.688 62.6827 283.394 62.44 283.18 62.132C282.974 61.8147 282.872 61.4507 282.872 61.04C282.872 60.6293 282.979 60.2747 283.194 59.976C283.408 59.668 283.707 59.43 284.09 59.262C284.472 59.094 284.92 59.01 285.434 59.01C285.826 59.01 286.194 59.052 286.54 59.136C286.894 59.22 287.221 59.3553 287.52 59.542V58.604C287.52 58.044 287.37 57.624 287.072 57.344C286.773 57.0547 286.334 56.91 285.756 56.91C285.438 56.91 285.112 56.9567 284.776 57.05C284.449 57.1433 284.085 57.2927 283.684 57.498L283.306 56.714C284.22 56.2753 285.079 56.056 285.882 56.056C286.731 56.056 287.384 56.266 287.842 56.686C288.299 57.0967 288.528 57.6893 288.528 58.464V63H287.52V62.202C287.221 62.51 286.89 62.7433 286.526 62.902C286.162 63.0513 285.77 63.126 285.35 63.126ZM283.852 61.012C283.852 61.4133 284.006 61.7353 284.314 61.978C284.631 62.2207 285.046 62.342 285.56 62.342C285.942 62.342 286.292 62.2767 286.61 62.146C286.936 62.0153 287.24 61.8193 287.52 61.558V60.242C287.23 60.074 286.932 59.9527 286.624 59.878C286.316 59.794 285.97 59.752 285.588 59.752C285.065 59.752 284.645 59.8687 284.328 60.102C284.01 60.326 283.852 60.6293 283.852 61.012ZM293.004 63.14C292.416 63.14 291.968 63 291.66 62.72C291.361 62.4307 291.212 62.0153 291.212 61.474V57.008H289.798V56.168H291.212V54.292L292.234 54.054V56.168H294.194V57.008H292.234V61.208C292.234 61.572 292.308 61.8333 292.458 61.992C292.616 62.1507 292.873 62.23 293.228 62.23C293.405 62.23 293.564 62.216 293.704 62.188C293.844 62.16 294.007 62.1133 294.194 62.048V62.958C294.007 63.0233 293.811 63.07 293.606 63.098C293.4 63.126 293.2 63.14 293.004 63.14ZM295.677 63V56.168H296.699V63H295.677ZM296.195 54.474C295.989 54.474 295.812 54.404 295.663 54.264C295.523 54.1147 295.453 53.942 295.453 53.746C295.453 53.55 295.523 53.382 295.663 53.242C295.812 53.0927 295.989 53.018 296.195 53.018C296.4 53.018 296.573 53.0927 296.713 53.242C296.862 53.382 296.937 53.55 296.937 53.746C296.937 53.942 296.862 54.1147 296.713 54.264C296.573 54.404 296.4 54.474 296.195 54.474ZM301.818 63.112C301.183 63.112 300.614 62.958 300.11 62.65C299.606 62.342 299.209 61.922 298.92 61.39C298.631 60.858 298.486 60.256 298.486 59.584C298.486 58.912 298.631 58.31 298.92 57.778C299.209 57.246 299.606 56.826 300.11 56.518C300.614 56.21 301.183 56.056 301.818 56.056C302.443 56.056 303.003 56.21 303.498 56.518C304.002 56.826 304.399 57.246 304.688 57.778C304.977 58.31 305.122 58.912 305.122 59.584C305.122 60.256 304.977 60.858 304.688 61.39C304.399 61.922 304.002 62.342 303.498 62.65C303.003 62.958 302.443 63.112 301.818 63.112ZM301.804 62.216C302.252 62.216 302.649 62.104 302.994 61.88C303.339 61.6467 303.61 61.3293 303.806 60.928C304.011 60.5267 304.114 60.0787 304.114 59.584C304.114 59.08 304.011 58.632 303.806 58.24C303.61 57.8387 303.339 57.526 302.994 57.302C302.649 57.0687 302.252 56.952 301.804 56.952C301.356 56.952 300.959 57.0687 300.614 57.302C300.269 57.526 299.993 57.8387 299.788 58.24C299.592 58.632 299.494 59.08 299.494 59.584C299.494 60.0787 299.592 60.5267 299.788 60.928C299.993 61.3293 300.269 61.6467 300.614 61.88C300.959 62.104 301.356 62.216 301.804 62.216ZM306.915 63V56.168H307.937V57.274C308.199 56.8633 308.511 56.56 308.875 56.364C309.239 56.1587 309.65 56.056 310.107 56.056C310.602 56.056 311.031 56.1633 311.395 56.378C311.769 56.5833 312.058 56.8773 312.263 57.26C312.478 57.6333 312.585 58.072 312.585 58.576V63H311.563V58.87C311.563 58.2633 311.395 57.7873 311.059 57.442C310.733 57.0873 310.289 56.91 309.729 56.91C309.356 56.91 309.015 56.9987 308.707 57.176C308.399 57.3533 308.143 57.6147 307.937 57.96V63H306.915ZM316.754 63.126C316.269 63.126 315.839 63.0373 315.466 62.86C315.093 62.6827 314.799 62.44 314.584 62.132C314.379 61.8147 314.276 61.4507 314.276 61.04C314.276 60.6293 314.383 60.2747 314.598 59.976C314.813 59.668 315.111 59.43 315.494 59.262C315.877 59.094 316.325 59.01 316.838 59.01C317.23 59.01 317.599 59.052 317.944 59.136C318.299 59.22 318.625 59.3553 318.924 59.542V58.604C318.924 58.044 318.775 57.624 318.476 57.344C318.177 57.0547 317.739 56.91 317.16 56.91C316.843 56.91 316.516 56.9567 316.18 57.05C315.853 57.1433 315.489 57.2927 315.088 57.498L314.71 56.714C315.625 56.2753 316.483 56.056 317.286 56.056C318.135 56.056 318.789 56.266 319.246 56.686C319.703 57.0967 319.932 57.6893 319.932 58.464V63H318.924V62.202C318.625 62.51 318.294 62.7433 317.93 62.902C317.566 63.0513 317.174 63.126 316.754 63.126ZM315.256 61.012C315.256 61.4133 315.41 61.7353 315.718 61.978C316.035 62.2207 316.451 62.342 316.964 62.342C317.347 62.342 317.697 62.2767 318.014 62.146C318.341 62.0153 318.644 61.8193 318.924 61.558V60.242C318.635 60.074 318.336 59.9527 318.028 59.878C317.72 59.794 317.375 59.752 316.992 59.752C316.469 59.752 316.049 59.8687 315.732 60.102C315.415 60.326 315.256 60.6293 315.256 61.012ZM322.009 63V52.892L323.031 52.682V63H322.009Z" fill="#151515"/>
<defs>
<clipPath id="clip0_79_9998">
<rect width="16" height="16" fill="white" transform="translate(157 50.5)"/>
</clipPath>
</defs>
</svg>
