<svg width="707" height="53" viewBox="0 0 707 53" fill="none" xmlns="http://www.w3.org/2000/svg">
  <rect width="200" height="53" rx="3" fill="#383838"/>
  <path d="M24 18.5C19.59 18.5 16 22.09 16 26.5C16 30.91 19.59 34.5 24 34.5C28.41 34.5 32 30.91 32 26.5C32 22.09 28.41 18.5 24 18.5ZM27.9 24.9L23.575 29.225C23.415 29.385 23.21 29.46 23 29.46C22.79 29.46 22.585 29.38 22.425 29.225L20.1 26.9C19.88 26.68 19.88 26.325 20.1 26.105C20.32 25.885 20.675 25.885 20.895 26.105L22.995 28.21L27.095 24.105C27.315 23.885 27.67 23.885 27.89 24.105C28.11 24.325 28.11 24.68 27.89 24.9H27.9Z" fill="#87BB62"/>
  <path d="M40.126 31L44.004 21.2H45.292L49.114 31H47.952L46.79 27.92H42.422L41.26 31H40.126ZM42.758 27.066H46.468L44.606 22.18L42.758 27.066ZM50.2922 31V20.892L51.3142 20.682V31H50.2922ZM53.4094 31V20.892L54.4314 20.682V31H53.4094ZM61.9081 31.14C61.3481 31.14 60.8301 31.056 60.3541 30.888C59.8781 30.7107 59.4721 30.4587 59.1361 30.132L59.6821 29.46C60.0928 29.7587 60.4708 29.978 60.8161 30.118C61.1615 30.2487 61.5161 30.314 61.8801 30.314C62.3748 30.314 62.7855 30.1973 63.1121 29.964C63.4388 29.7307 63.6021 29.432 63.6021 29.068C63.6021 28.788 63.5041 28.5687 63.3081 28.41C63.1215 28.2513 62.8088 28.13 62.3701 28.046L61.2501 27.85C60.5875 27.7287 60.0975 27.5233 59.7801 27.234C59.4721 26.9447 59.3181 26.5527 59.3181 26.058C59.3181 25.666 59.4208 25.3207 59.6261 25.022C59.8408 24.7233 60.1348 24.49 60.5081 24.322C60.8815 24.1447 61.3061 24.056 61.7821 24.056C62.2488 24.056 62.6921 24.126 63.1121 24.266C63.5321 24.3967 63.9568 24.6113 64.3861 24.91L63.8821 25.624C63.5275 25.372 63.1728 25.19 62.8181 25.078C62.4635 24.9567 62.1041 24.896 61.7401 24.896C61.2921 24.896 60.9328 24.994 60.6621 25.19C60.3915 25.386 60.2561 25.652 60.2561 25.988C60.2561 26.268 60.3401 26.4827 60.5081 26.632C60.6855 26.7813 60.9935 26.8933 61.4321 26.968L62.5801 27.178C63.2708 27.2993 63.7748 27.5093 64.0921 27.808C64.4095 28.1067 64.5681 28.508 64.5681 29.012C64.5681 29.4133 64.4515 29.7773 64.2181 30.104C63.9848 30.4213 63.6675 30.6733 63.2661 30.86C62.8648 31.0467 62.4121 31.14 61.9081 31.14ZM66.2815 34.066C66.0668 34.066 65.8475 34.0333 65.6235 33.968V33.058C65.7168 33.0767 65.8148 33.0907 65.9175 33.1C66.0202 33.1093 66.1088 33.114 66.1835 33.114C66.4448 33.114 66.6595 33.044 66.8275 32.904C67.0048 32.764 67.1542 32.5447 67.2755 32.246L67.7795 31L65.1475 24.168H66.2815L68.3535 29.782L70.5515 24.168H71.6855L68.2415 32.554C68.0922 32.918 67.9288 33.212 67.7515 33.436C67.5742 33.66 67.3688 33.8187 67.1355 33.912C66.9022 34.0147 66.6175 34.066 66.2815 34.066ZM75.0742 31.14C74.5142 31.14 73.9962 31.056 73.5202 30.888C73.0442 30.7107 72.6382 30.4587 72.3022 30.132L72.8482 29.46C73.2588 29.7587 73.6368 29.978 73.9822 30.118C74.3275 30.2487 74.6822 30.314 75.0462 30.314C75.5408 30.314 75.9515 30.1973 76.2782 29.964C76.6048 29.7307 76.7682 29.432 76.7682 29.068C76.7682 28.788 76.6702 28.5687 76.4742 28.41C76.2875 28.2513 75.9748 28.13 75.5362 28.046L74.4162 27.85C73.7535 27.7287 73.2635 27.5233 72.9462 27.234C72.6382 26.9447 72.4842 26.5527 72.4842 26.058C72.4842 25.666 72.5868 25.3207 72.7922 25.022C73.0068 24.7233 73.3008 24.49 73.6742 24.322C74.0475 24.1447 74.4722 24.056 74.9482 24.056C75.4148 24.056 75.8582 24.126 76.2782 24.266C76.6982 24.3967 77.1228 24.6113 77.5522 24.91L77.0482 25.624C76.6935 25.372 76.3388 25.19 75.9842 25.078C75.6295 24.9567 75.2702 24.896 74.9062 24.896C74.4582 24.896 74.0988 24.994 73.8282 25.19C73.5575 25.386 73.4222 25.652 73.4222 25.988C73.4222 26.268 73.5062 26.4827 73.6742 26.632C73.8515 26.7813 74.1595 26.8933 74.5982 26.968L75.7462 27.178C76.4368 27.2993 76.9408 27.5093 77.2582 27.808C77.5755 28.1067 77.7342 28.508 77.7342 29.012C77.7342 29.4133 77.6175 29.7773 77.3842 30.104C77.1508 30.4213 76.8335 30.6733 76.4322 30.86C76.0308 31.0467 75.5782 31.14 75.0742 31.14ZM81.7575 31.14C81.1695 31.14 80.7215 31 80.4135 30.72C80.1148 30.4307 79.9655 30.0153 79.9655 29.474V25.008H78.5515V24.168H79.9655V22.292L80.9875 22.054V24.168H82.9475V25.008H80.9875V29.208C80.9875 29.572 81.0622 29.8333 81.2115 29.992C81.3702 30.1507 81.6268 30.23 81.9815 30.23C82.1588 30.23 82.3175 30.216 82.4575 30.188C82.5975 30.16 82.7608 30.1133 82.9475 30.048V30.958C82.7608 31.0233 82.5648 31.07 82.3595 31.098C82.1542 31.126 81.9535 31.14 81.7575 31.14ZM87.3878 31.14C86.7531 31.14 86.1791 30.986 85.6658 30.678C85.1525 30.3607 84.7465 29.936 84.4478 29.404C84.1491 28.8627 83.9998 28.256 83.9998 27.584C83.9998 26.912 84.1398 26.31 84.4198 25.778C84.7091 25.246 85.0965 24.826 85.5818 24.518C86.0671 24.21 86.6085 24.056 87.2058 24.056C87.8125 24.056 88.3491 24.21 88.8158 24.518C89.2918 24.8167 89.6651 25.2273 89.9358 25.75C90.2158 26.2633 90.3558 26.8467 90.3558 27.5V27.808H84.9938C85.0311 28.2747 85.1571 28.6947 85.3718 29.068C85.5958 29.432 85.8851 29.7213 86.2398 29.936C86.6038 30.1413 87.0005 30.244 87.4298 30.244C87.7845 30.244 88.1251 30.1833 88.4518 30.062C88.7878 29.9313 89.0725 29.7587 89.3058 29.544L89.9498 30.23C89.5578 30.538 89.1518 30.7667 88.7318 30.916C88.3118 31.0653 87.8638 31.14 87.3878 31.14ZM85.0218 27.08H89.3478C89.3011 26.6693 89.1751 26.3053 88.9698 25.988C88.7738 25.6613 88.5218 25.4047 88.2138 25.218C87.9151 25.0313 87.5791 24.938 87.2058 24.938C86.8325 24.938 86.4918 25.0313 86.1838 25.218C85.8758 25.3953 85.6191 25.6473 85.4138 25.974C85.2178 26.2913 85.0871 26.66 85.0218 27.08ZM92.1008 31V24.168H93.1228V25.232C93.3841 24.84 93.6828 24.546 94.0188 24.35C94.3548 24.154 94.7328 24.056 95.1528 24.056C95.6381 24.056 96.0628 24.1773 96.4268 24.42C96.7908 24.6533 97.0661 24.9753 97.2528 25.386C97.5234 24.9473 97.8454 24.616 98.2188 24.392C98.6014 24.168 99.0401 24.056 99.5348 24.056C99.9921 24.056 100.393 24.1633 100.739 24.378C101.093 24.5927 101.369 24.8913 101.565 25.274C101.761 25.6473 101.859 26.086 101.859 26.59V31H100.837V26.842C100.837 26.2447 100.687 25.7733 100.389 25.428C100.09 25.0827 99.6794 24.91 99.1568 24.91C98.8021 24.91 98.4801 24.9987 98.1908 25.176C97.9108 25.3533 97.6634 25.624 97.4488 25.988C97.4674 26.0813 97.4814 26.1793 97.4908 26.282C97.5001 26.3847 97.5048 26.4873 97.5048 26.59V31H96.4828V26.842C96.4828 26.2447 96.3288 25.7733 96.0208 25.428C95.7221 25.0827 95.3114 24.91 94.7888 24.91C94.0888 24.91 93.5334 25.246 93.1228 25.918V31H92.1008ZM106.041 31.14C105.481 31.14 104.963 31.056 104.487 30.888C104.011 30.7107 103.605 30.4587 103.269 30.132L103.815 29.46C104.226 29.7587 104.604 29.978 104.949 30.118C105.294 30.2487 105.649 30.314 106.013 30.314C106.508 30.314 106.918 30.1973 107.245 29.964C107.572 29.7307 107.735 29.432 107.735 29.068C107.735 28.788 107.637 28.5687 107.441 28.41C107.254 28.2513 106.942 28.13 106.503 28.046L105.383 27.85C104.72 27.7287 104.23 27.5233 103.913 27.234C103.605 26.9447 103.451 26.5527 103.451 26.058C103.451 25.666 103.554 25.3207 103.759 25.022C103.974 24.7233 104.268 24.49 104.641 24.322C105.014 24.1447 105.439 24.056 105.915 24.056C106.382 24.056 106.825 24.126 107.245 24.266C107.665 24.3967 108.09 24.6113 108.519 24.91L108.015 25.624C107.66 25.372 107.306 25.19 106.951 25.078C106.596 24.9567 106.237 24.896 105.873 24.896C105.425 24.896 105.066 24.994 104.795 25.19C104.524 25.386 104.389 25.652 104.389 25.988C104.389 26.268 104.473 26.4827 104.641 26.632C104.818 26.7813 105.126 26.8933 105.565 26.968L106.713 27.178C107.404 27.2993 107.908 27.5093 108.225 27.808C108.542 28.1067 108.701 28.508 108.701 29.012C108.701 29.4133 108.584 29.7773 108.351 30.104C108.118 30.4213 107.8 30.6733 107.399 30.86C106.998 31.0467 106.545 31.14 106.041 31.14ZM116.549 31.112C115.914 31.112 115.345 30.958 114.841 30.65C114.337 30.342 113.94 29.922 113.651 29.39C113.361 28.858 113.217 28.256 113.217 27.584C113.217 26.912 113.361 26.31 113.651 25.778C113.94 25.246 114.337 24.826 114.841 24.518C115.345 24.21 115.914 24.056 116.549 24.056C117.174 24.056 117.734 24.21 118.229 24.518C118.733 24.826 119.129 25.246 119.419 25.778C119.708 26.31 119.853 26.912 119.853 27.584C119.853 28.256 119.708 28.858 119.419 29.39C119.129 29.922 118.733 30.342 118.229 30.65C117.734 30.958 117.174 31.112 116.549 31.112ZM116.535 30.216C116.983 30.216 117.379 30.104 117.725 29.88C118.07 29.6467 118.341 29.3293 118.537 28.928C118.742 28.5267 118.845 28.0787 118.845 27.584C118.845 27.08 118.742 26.632 118.537 26.24C118.341 25.8387 118.07 25.526 117.725 25.302C117.379 25.0687 116.983 24.952 116.535 24.952C116.087 24.952 115.69 25.0687 115.345 25.302C114.999 25.526 114.724 25.8387 114.519 26.24C114.323 26.632 114.225 27.08 114.225 27.584C114.225 28.0787 114.323 28.5267 114.519 28.928C114.724 29.3293 114.999 29.6467 115.345 29.88C115.69 30.104 116.087 30.216 116.535 30.216ZM121.646 33.926V24.168H122.654V25.148C122.915 24.8027 123.232 24.5413 123.606 24.364C123.988 24.1773 124.408 24.084 124.866 24.084C125.463 24.084 125.995 24.2427 126.462 24.56C126.938 24.868 127.316 25.288 127.596 25.82C127.876 26.3427 128.016 26.9307 128.016 27.584C128.016 28.2373 127.871 28.83 127.582 29.362C127.302 29.894 126.919 30.3187 126.434 30.636C125.958 30.944 125.416 31.098 124.81 31.098C124.38 31.098 123.984 31.0187 123.62 30.86C123.256 30.692 122.938 30.454 122.668 30.146V33.926H121.646ZM124.614 30.216C125.071 30.216 125.477 30.104 125.832 29.88C126.196 29.6467 126.48 29.334 126.686 28.942C126.9 28.5407 127.008 28.0927 127.008 27.598C127.008 27.094 126.9 26.646 126.686 26.254C126.48 25.862 126.196 25.554 125.832 25.33C125.477 25.0967 125.071 24.98 124.614 24.98C124.212 24.98 123.839 25.064 123.494 25.232C123.158 25.3907 122.882 25.6193 122.668 25.918V29.264C122.892 29.5627 123.172 29.796 123.508 29.964C123.853 30.132 124.222 30.216 124.614 30.216ZM132.888 31.14C132.253 31.14 131.679 30.986 131.166 30.678C130.652 30.3607 130.246 29.936 129.948 29.404C129.649 28.8627 129.5 28.256 129.5 27.584C129.5 26.912 129.64 26.31 129.92 25.778C130.209 25.246 130.596 24.826 131.082 24.518C131.567 24.21 132.108 24.056 132.706 24.056C133.312 24.056 133.849 24.21 134.316 24.518C134.792 24.8167 135.165 25.2273 135.436 25.75C135.716 26.2633 135.856 26.8467 135.856 27.5V27.808H130.494C130.531 28.2747 130.657 28.6947 130.872 29.068C131.096 29.432 131.385 29.7213 131.74 29.936C132.104 30.1413 132.5 30.244 132.93 30.244C133.284 30.244 133.625 30.1833 133.952 30.062C134.288 29.9313 134.572 29.7587 134.806 29.544L135.45 30.23C135.058 30.538 134.652 30.7667 134.232 30.916C133.812 31.0653 133.364 31.14 132.888 31.14ZM130.522 27.08H134.848C134.801 26.6693 134.675 26.3053 134.47 25.988C134.274 25.6613 134.022 25.4047 133.714 25.218C133.415 25.0313 133.079 24.938 132.706 24.938C132.332 24.938 131.992 25.0313 131.684 25.218C131.376 25.3953 131.119 25.6473 130.914 25.974C130.718 26.2913 130.587 26.66 130.522 27.08ZM137.601 31V24.168H138.623V25.568C138.8 25.092 139.052 24.7233 139.379 24.462C139.715 24.1913 140.097 24.056 140.527 24.056C140.648 24.056 140.76 24.0653 140.863 24.084C140.965 24.0933 141.068 24.1167 141.171 24.154V25.078C141.059 25.0407 140.937 25.0127 140.807 24.994C140.685 24.966 140.569 24.952 140.457 24.952C140.037 24.952 139.668 25.0733 139.351 25.316C139.043 25.5587 138.8 25.8993 138.623 26.338V31H137.601ZM144.35 31.126C143.864 31.126 143.435 31.0373 143.062 30.86C142.688 30.6827 142.394 30.44 142.18 30.132C141.974 29.8147 141.872 29.4507 141.872 29.04C141.872 28.6293 141.979 28.2747 142.194 27.976C142.408 27.668 142.707 27.43 143.09 27.262C143.472 27.094 143.92 27.01 144.434 27.01C144.826 27.01 145.194 27.052 145.54 27.136C145.894 27.22 146.221 27.3553 146.52 27.542V26.604C146.52 26.044 146.37 25.624 146.072 25.344C145.773 25.0547 145.334 24.91 144.756 24.91C144.438 24.91 144.112 24.9567 143.776 25.05C143.449 25.1433 143.085 25.2927 142.684 25.498L142.306 24.714C143.22 24.2753 144.079 24.056 144.882 24.056C145.731 24.056 146.384 24.266 146.842 24.686C147.299 25.0967 147.528 25.6893 147.528 26.464V31H146.52V30.202C146.221 30.51 145.89 30.7433 145.526 30.902C145.162 31.0513 144.77 31.126 144.35 31.126ZM142.852 29.012C142.852 29.4133 143.006 29.7353 143.314 29.978C143.631 30.2207 144.046 30.342 144.56 30.342C144.942 30.342 145.292 30.2767 145.61 30.146C145.936 30.0153 146.24 29.8193 146.52 29.558V28.242C146.23 28.074 145.932 27.9527 145.624 27.878C145.316 27.794 144.97 27.752 144.588 27.752C144.065 27.752 143.645 27.8687 143.328 28.102C143.01 28.326 142.852 28.6293 142.852 29.012ZM152.004 31.14C151.416 31.14 150.968 31 150.66 30.72C150.361 30.4307 150.212 30.0153 150.212 29.474V25.008H148.798V24.168H150.212V22.292L151.234 22.054V24.168H153.194V25.008H151.234V29.208C151.234 29.572 151.308 29.8333 151.458 29.992C151.616 30.1507 151.873 30.23 152.228 30.23C152.405 30.23 152.564 30.216 152.704 30.188C152.844 30.16 153.007 30.1133 153.194 30.048V30.958C153.007 31.0233 152.811 31.07 152.606 31.098C152.4 31.126 152.2 31.14 152.004 31.14ZM154.677 31V24.168H155.699V31H154.677ZM155.195 22.474C154.989 22.474 154.812 22.404 154.663 22.264C154.523 22.1147 154.453 21.942 154.453 21.746C154.453 21.55 154.523 21.382 154.663 21.242C154.812 21.0927 154.989 21.018 155.195 21.018C155.4 21.018 155.573 21.0927 155.713 21.242C155.862 21.382 155.937 21.55 155.937 21.746C155.937 21.942 155.862 22.1147 155.713 22.264C155.573 22.404 155.4 22.474 155.195 22.474ZM160.818 31.112C160.183 31.112 159.614 30.958 159.11 30.65C158.606 30.342 158.209 29.922 157.92 29.39C157.631 28.858 157.486 28.256 157.486 27.584C157.486 26.912 157.631 26.31 157.92 25.778C158.209 25.246 158.606 24.826 159.11 24.518C159.614 24.21 160.183 24.056 160.818 24.056C161.443 24.056 162.003 24.21 162.498 24.518C163.002 24.826 163.399 25.246 163.688 25.778C163.977 26.31 164.122 26.912 164.122 27.584C164.122 28.256 163.977 28.858 163.688 29.39C163.399 29.922 163.002 30.342 162.498 30.65C162.003 30.958 161.443 31.112 160.818 31.112ZM160.804 30.216C161.252 30.216 161.649 30.104 161.994 29.88C162.339 29.6467 162.61 29.3293 162.806 28.928C163.011 28.5267 163.114 28.0787 163.114 27.584C163.114 27.08 163.011 26.632 162.806 26.24C162.61 25.8387 162.339 25.526 161.994 25.302C161.649 25.0687 161.252 24.952 160.804 24.952C160.356 24.952 159.959 25.0687 159.614 25.302C159.269 25.526 158.993 25.8387 158.788 26.24C158.592 26.632 158.494 27.08 158.494 27.584C158.494 28.0787 158.592 28.5267 158.788 28.928C158.993 29.3293 159.269 29.6467 159.614 29.88C159.959 30.104 160.356 30.216 160.804 30.216ZM165.915 31V24.168H166.937V25.274C167.199 24.8633 167.511 24.56 167.875 24.364C168.239 24.1587 168.65 24.056 169.107 24.056C169.602 24.056 170.031 24.1633 170.395 24.378C170.769 24.5833 171.058 24.8773 171.263 25.26C171.478 25.6333 171.585 26.072 171.585 26.576V31H170.563V26.87C170.563 26.2633 170.395 25.7873 170.059 25.442C169.733 25.0873 169.289 24.91 168.729 24.91C168.356 24.91 168.015 24.9987 167.707 25.176C167.399 25.3533 167.143 25.6147 166.937 25.96V31H165.915ZM175.754 31.126C175.269 31.126 174.839 31.0373 174.466 30.86C174.093 30.6827 173.799 30.44 173.584 30.132C173.379 29.8147 173.276 29.4507 173.276 29.04C173.276 28.6293 173.383 28.2747 173.598 27.976C173.813 27.668 174.111 27.43 174.494 27.262C174.877 27.094 175.325 27.01 175.838 27.01C176.23 27.01 176.599 27.052 176.944 27.136C177.299 27.22 177.625 27.3553 177.924 27.542V26.604C177.924 26.044 177.775 25.624 177.476 25.344C177.177 25.0547 176.739 24.91 176.16 24.91C175.843 24.91 175.516 24.9567 175.18 25.05C174.853 25.1433 174.489 25.2927 174.088 25.498L173.71 24.714C174.625 24.2753 175.483 24.056 176.286 24.056C177.135 24.056 177.789 24.266 178.246 24.686C178.703 25.0967 178.932 25.6893 178.932 26.464V31H177.924V30.202C177.625 30.51 177.294 30.7433 176.93 30.902C176.566 31.0513 176.174 31.126 175.754 31.126ZM174.256 29.012C174.256 29.4133 174.41 29.7353 174.718 29.978C175.035 30.2207 175.451 30.342 175.964 30.342C176.347 30.342 176.697 30.2767 177.014 30.146C177.341 30.0153 177.644 29.8193 177.924 29.558V28.242C177.635 28.074 177.336 27.9527 177.028 27.878C176.72 27.794 176.375 27.752 175.992 27.752C175.469 27.752 175.049 27.8687 174.732 28.102C174.415 28.326 174.256 28.6293 174.256 29.012ZM181.009 31V20.892L182.031 20.682V31H181.009Z" fill="white"/>
  <rect x="264" width="192" height="53" rx="3" fill="#383838"/>
  <path d="M295.898 32.3545L288.667 19.8818C288.529 19.6476 288.279 19.5 288.003 19.5C287.732 19.5 287.476 19.6476 287.338 19.8818L280.102 32.3545C280.036 32.4716 280 32.604 280 32.7364C280 32.8687 280.036 33.0011 280.102 33.1182C280.24 33.3524 280.496 33.5 280.767 33.5H295.233C295.504 33.5 295.76 33.3524 295.898 33.1182C295.964 33.0011 296 32.8687 296 32.7364C296 32.604 295.964 32.4716 295.898 32.3545ZM287.368 23.8273C287.368 23.476 287.655 23.1909 288.008 23.1909C288.36 23.1909 288.647 23.476 288.647 23.8273V27.3909C288.647 27.7422 288.36 28.0273 288.008 28.0273C287.655 28.0273 287.368 27.7422 287.368 27.3909V23.8273ZM288.008 31.7182C287.583 31.7182 287.241 31.3771 287.241 30.9545C287.241 30.532 287.583 30.1909 288.008 30.1909C288.432 30.1909 288.775 30.532 288.775 30.9545C288.775 31.3771 288.432 31.7182 288.008 31.7182Z" fill="#FFCC17"/>
  <path d="M305.246 31V21.2H309.292C309.927 21.2 310.477 21.3213 310.944 21.564C311.411 21.7973 311.77 22.1333 312.022 22.572C312.283 23.0013 312.414 23.51 312.414 24.098C312.414 24.6767 312.283 25.1853 312.022 25.624C311.77 26.0627 311.411 26.4033 310.944 26.646C310.477 26.8793 309.927 26.996 309.292 26.996H306.324V31H305.246ZM306.324 26.072H309.166C309.847 26.072 310.379 25.8947 310.762 25.54C311.145 25.1853 311.336 24.7047 311.336 24.098C311.336 23.4913 311.145 23.0153 310.762 22.67C310.379 22.3247 309.847 22.152 309.166 22.152H306.324V26.072ZM315.969 31.126C315.483 31.126 315.054 31.0373 314.681 30.86C314.307 30.6827 314.013 30.44 313.799 30.132C313.593 29.8147 313.491 29.4507 313.491 29.04C313.491 28.6293 313.598 28.2747 313.813 27.976C314.027 27.668 314.326 27.43 314.709 27.262C315.091 27.094 315.539 27.01 316.053 27.01C316.445 27.01 316.813 27.052 317.159 27.136C317.513 27.22 317.84 27.3553 318.139 27.542V26.604C318.139 26.044 317.989 25.624 317.691 25.344C317.392 25.0547 316.953 24.91 316.375 24.91C316.057 24.91 315.731 24.9567 315.395 25.05C315.068 25.1433 314.704 25.2927 314.303 25.498L313.925 24.714C314.839 24.2753 315.698 24.056 316.501 24.056C317.35 24.056 318.003 24.266 318.461 24.686C318.918 25.0967 319.147 25.6893 319.147 26.464V31H318.139V30.202C317.84 30.51 317.509 30.7433 317.145 30.902C316.781 31.0513 316.389 31.126 315.969 31.126ZM314.471 29.012C314.471 29.4133 314.625 29.7353 314.933 29.978C315.25 30.2207 315.665 30.342 316.179 30.342C316.561 30.342 316.911 30.2767 317.229 30.146C317.555 30.0153 317.859 29.8193 318.139 29.558V28.242C317.849 28.074 317.551 27.9527 317.243 27.878C316.935 27.794 316.589 27.752 316.207 27.752C315.684 27.752 315.264 27.8687 314.947 28.102C314.629 28.326 314.471 28.6293 314.471 29.012ZM321.224 31V24.168H322.246V25.568C322.423 25.092 322.675 24.7233 323.002 24.462C323.338 24.1913 323.72 24.056 324.15 24.056C324.271 24.056 324.383 24.0653 324.486 24.084C324.588 24.0933 324.691 24.1167 324.794 24.154V25.078C324.682 25.0407 324.56 25.0127 324.43 24.994C324.308 24.966 324.192 24.952 324.08 24.952C323.66 24.952 323.291 25.0733 322.974 25.316C322.666 25.5587 322.423 25.8993 322.246 26.338V31H321.224ZM328.75 31.14C328.162 31.14 327.714 31 327.406 30.72C327.107 30.4307 326.958 30.0153 326.958 29.474V25.008H325.544V24.168H326.958V22.292L327.98 22.054V24.168H329.94V25.008H327.98V29.208C327.98 29.572 328.054 29.8333 328.204 29.992C328.362 30.1507 328.619 30.23 328.974 30.23C329.151 30.23 329.31 30.216 329.45 30.188C329.59 30.16 329.753 30.1133 329.94 30.048V30.958C329.753 31.0233 329.557 31.07 329.352 31.098C329.146 31.126 328.946 31.14 328.75 31.14ZM331.423 31V24.168H332.445V31H331.423ZM331.941 22.474C331.735 22.474 331.558 22.404 331.409 22.264C331.269 22.1147 331.199 21.942 331.199 21.746C331.199 21.55 331.269 21.382 331.409 21.242C331.558 21.0927 331.735 21.018 331.941 21.018C332.146 21.018 332.319 21.0927 332.459 21.242C332.608 21.382 332.683 21.55 332.683 21.746C332.683 21.942 332.608 22.1147 332.459 22.264C332.319 22.404 332.146 22.474 331.941 22.474ZM336.654 31.126C336.169 31.126 335.74 31.0373 335.366 30.86C334.993 30.6827 334.699 30.44 334.484 30.132C334.279 29.8147 334.176 29.4507 334.176 29.04C334.176 28.6293 334.284 28.2747 334.498 27.976C334.713 27.668 335.012 27.43 335.394 27.262C335.777 27.094 336.225 27.01 336.738 27.01C337.13 27.01 337.499 27.052 337.844 27.136C338.199 27.22 338.526 27.3553 338.824 27.542V26.604C338.824 26.044 338.675 25.624 338.376 25.344C338.078 25.0547 337.639 24.91 337.06 24.91C336.743 24.91 336.416 24.9567 336.08 25.05C335.754 25.1433 335.39 25.2927 334.988 25.498L334.61 24.714C335.525 24.2753 336.384 24.056 337.186 24.056C338.036 24.056 338.689 24.266 339.146 24.686C339.604 25.0967 339.832 25.6893 339.832 26.464V31H338.824V30.202C338.526 30.51 338.194 30.7433 337.83 30.902C337.466 31.0513 337.074 31.126 336.654 31.126ZM335.156 29.012C335.156 29.4133 335.31 29.7353 335.618 29.978C335.936 30.2207 336.351 30.342 336.864 30.342C337.247 30.342 337.597 30.2767 337.914 30.146C338.241 30.0153 338.544 29.8193 338.824 29.558V28.242C338.535 28.074 338.236 27.9527 337.928 27.878C337.62 27.794 337.275 27.752 336.892 27.752C336.37 27.752 335.95 27.8687 335.632 28.102C335.315 28.326 335.156 28.6293 335.156 29.012ZM341.909 31V20.892L342.931 20.682V31H341.909ZM350.408 31.14C349.848 31.14 349.33 31.056 348.854 30.888C348.378 30.7107 347.972 30.4587 347.636 30.132L348.182 29.46C348.593 29.7587 348.971 29.978 349.316 30.118C349.661 30.2487 350.016 30.314 350.38 30.314C350.875 30.314 351.285 30.1973 351.612 29.964C351.939 29.7307 352.102 29.432 352.102 29.068C352.102 28.788 352.004 28.5687 351.808 28.41C351.621 28.2513 351.309 28.13 350.87 28.046L349.75 27.85C349.087 27.7287 348.597 27.5233 348.28 27.234C347.972 26.9447 347.818 26.5527 347.818 26.058C347.818 25.666 347.921 25.3207 348.126 25.022C348.341 24.7233 348.635 24.49 349.008 24.322C349.381 24.1447 349.806 24.056 350.282 24.056C350.749 24.056 351.192 24.126 351.612 24.266C352.032 24.3967 352.457 24.6113 352.886 24.91L352.382 25.624C352.027 25.372 351.673 25.19 351.318 25.078C350.963 24.9567 350.604 24.896 350.24 24.896C349.792 24.896 349.433 24.994 349.162 25.19C348.891 25.386 348.756 25.652 348.756 25.988C348.756 26.268 348.84 26.4827 349.008 26.632C349.185 26.7813 349.493 26.8933 349.932 26.968L351.08 27.178C351.771 27.2993 352.275 27.5093 352.592 27.808C352.909 28.1067 353.068 28.508 353.068 29.012C353.068 29.4133 352.951 29.7773 352.718 30.104C352.485 30.4213 352.167 30.6733 351.766 30.86C351.365 31.0467 350.912 31.14 350.408 31.14ZM354.782 34.066C354.567 34.066 354.348 34.0333 354.124 33.968V33.058C354.217 33.0767 354.315 33.0907 354.418 33.1C354.52 33.1093 354.609 33.114 354.684 33.114C354.945 33.114 355.16 33.044 355.328 32.904C355.505 32.764 355.654 32.5447 355.776 32.246L356.28 31L353.648 24.168H354.782L356.854 29.782L359.052 24.168H360.186L356.742 32.554C356.592 32.918 356.429 33.212 356.252 33.436C356.074 33.66 355.869 33.8187 355.636 33.912C355.402 34.0147 355.117 34.066 354.782 34.066ZM363.574 31.14C363.014 31.14 362.496 31.056 362.02 30.888C361.544 30.7107 361.138 30.4587 360.802 30.132L361.348 29.46C361.759 29.7587 362.137 29.978 362.482 30.118C362.827 30.2487 363.182 30.314 363.546 30.314C364.041 30.314 364.451 30.1973 364.778 29.964C365.105 29.7307 365.268 29.432 365.268 29.068C365.268 28.788 365.17 28.5687 364.974 28.41C364.787 28.2513 364.475 28.13 364.036 28.046L362.916 27.85C362.253 27.7287 361.763 27.5233 361.446 27.234C361.138 26.9447 360.984 26.5527 360.984 26.058C360.984 25.666 361.087 25.3207 361.292 25.022C361.507 24.7233 361.801 24.49 362.174 24.322C362.547 24.1447 362.972 24.056 363.448 24.056C363.915 24.056 364.358 24.126 364.778 24.266C365.198 24.3967 365.623 24.6113 366.052 24.91L365.548 25.624C365.193 25.372 364.839 25.19 364.484 25.078C364.129 24.9567 363.77 24.896 363.406 24.896C362.958 24.896 362.599 24.994 362.328 25.19C362.057 25.386 361.922 25.652 361.922 25.988C361.922 26.268 362.006 26.4827 362.174 26.632C362.351 26.7813 362.659 26.8933 363.098 26.968L364.246 27.178C364.937 27.2993 365.441 27.5093 365.758 27.808C366.075 28.1067 366.234 28.508 366.234 29.012C366.234 29.4133 366.117 29.7773 365.884 30.104C365.651 30.4213 365.333 30.6733 364.932 30.86C364.531 31.0467 364.078 31.14 363.574 31.14ZM370.258 31.14C369.67 31.14 369.222 31 368.914 30.72C368.615 30.4307 368.466 30.0153 368.466 29.474V25.008H367.052V24.168H368.466V22.292L369.488 22.054V24.168H371.448V25.008H369.488V29.208C369.488 29.572 369.562 29.8333 369.712 29.992C369.87 30.1507 370.127 30.23 370.482 30.23C370.659 30.23 370.818 30.216 370.958 30.188C371.098 30.16 371.261 30.1133 371.448 30.048V30.958C371.261 31.0233 371.065 31.07 370.86 31.098C370.654 31.126 370.454 31.14 370.258 31.14ZM375.888 31.14C375.253 31.14 374.679 30.986 374.166 30.678C373.652 30.3607 373.246 29.936 372.948 29.404C372.649 28.8627 372.5 28.256 372.5 27.584C372.5 26.912 372.64 26.31 372.92 25.778C373.209 25.246 373.596 24.826 374.082 24.518C374.567 24.21 375.108 24.056 375.706 24.056C376.312 24.056 376.849 24.21 377.316 24.518C377.792 24.8167 378.165 25.2273 378.436 25.75C378.716 26.2633 378.856 26.8467 378.856 27.5V27.808H373.494C373.531 28.2747 373.657 28.6947 373.872 29.068C374.096 29.432 374.385 29.7213 374.74 29.936C375.104 30.1413 375.5 30.244 375.93 30.244C376.284 30.244 376.625 30.1833 376.952 30.062C377.288 29.9313 377.572 29.7587 377.806 29.544L378.45 30.23C378.058 30.538 377.652 30.7667 377.232 30.916C376.812 31.0653 376.364 31.14 375.888 31.14ZM373.522 27.08H377.848C377.801 26.6693 377.675 26.3053 377.47 25.988C377.274 25.6613 377.022 25.4047 376.714 25.218C376.415 25.0313 376.079 24.938 375.706 24.938C375.332 24.938 374.992 25.0313 374.684 25.218C374.376 25.3953 374.119 25.6473 373.914 25.974C373.718 26.2913 373.587 26.66 373.522 27.08ZM380.601 31V24.168H381.623V25.232C381.884 24.84 382.183 24.546 382.519 24.35C382.855 24.154 383.233 24.056 383.653 24.056C384.138 24.056 384.563 24.1773 384.927 24.42C385.291 24.6533 385.566 24.9753 385.753 25.386C386.023 24.9473 386.345 24.616 386.719 24.392C387.101 24.168 387.54 24.056 388.035 24.056C388.492 24.056 388.893 24.1633 389.239 24.378C389.593 24.5927 389.869 24.8913 390.065 25.274C390.261 25.6473 390.359 26.086 390.359 26.59V31H389.337V26.842C389.337 26.2447 389.187 25.7733 388.889 25.428C388.59 25.0827 388.179 24.91 387.657 24.91C387.302 24.91 386.98 24.9987 386.691 25.176C386.411 25.3533 386.163 25.624 385.949 25.988C385.967 26.0813 385.981 26.1793 385.991 26.282C386 26.3847 386.005 26.4873 386.005 26.59V31H384.983V26.842C384.983 26.2447 384.829 25.7733 384.521 25.428C384.222 25.0827 383.811 24.91 383.289 24.91C382.589 24.91 382.033 25.246 381.623 25.918V31H380.601ZM398.719 31.112C398.084 31.112 397.515 30.958 397.011 30.65C396.507 30.342 396.11 29.922 395.821 29.39C395.531 28.858 395.387 28.256 395.387 27.584C395.387 26.912 395.531 26.31 395.821 25.778C396.11 25.246 396.507 24.826 397.011 24.518C397.515 24.21 398.084 24.056 398.719 24.056C399.344 24.056 399.904 24.21 400.399 24.518C400.903 24.826 401.299 25.246 401.589 25.778C401.878 26.31 402.023 26.912 402.023 27.584C402.023 28.256 401.878 28.858 401.589 29.39C401.299 29.922 400.903 30.342 400.399 30.65C399.904 30.958 399.344 31.112 398.719 31.112ZM398.705 30.216C399.153 30.216 399.549 30.104 399.895 29.88C400.24 29.6467 400.511 29.3293 400.707 28.928C400.912 28.5267 401.015 28.0787 401.015 27.584C401.015 27.08 400.912 26.632 400.707 26.24C400.511 25.8387 400.24 25.526 399.895 25.302C399.549 25.0687 399.153 24.952 398.705 24.952C398.257 24.952 397.86 25.0687 397.515 25.302C397.169 25.526 396.894 25.8387 396.689 26.24C396.493 26.632 396.395 27.08 396.395 27.584C396.395 28.0787 396.493 28.5267 396.689 28.928C396.894 29.3293 397.169 29.6467 397.515 29.88C397.86 30.104 398.257 30.216 398.705 30.216ZM406.252 31.112C405.766 31.112 405.337 31.0047 404.964 30.79C404.59 30.5753 404.296 30.2767 404.082 29.894C403.876 29.5113 403.774 29.0727 403.774 28.578V24.168H404.81V28.284C404.81 28.8907 404.973 29.3713 405.3 29.726C405.626 30.0807 406.07 30.258 406.63 30.258C407.012 30.258 407.353 30.1693 407.652 29.992C407.96 29.8147 408.216 29.558 408.422 29.222V24.168H409.444V31H408.422V29.894C408.16 30.2953 407.848 30.5987 407.484 30.804C407.129 31.0093 406.718 31.112 406.252 31.112ZM414.144 31.14C413.556 31.14 413.108 31 412.8 30.72C412.502 30.4307 412.352 30.0153 412.352 29.474V25.008H410.938V24.168H412.352V22.292L413.374 22.054V24.168H415.334V25.008H413.374V29.208C413.374 29.572 413.449 29.8333 413.598 29.992C413.757 30.1507 414.014 30.23 414.368 30.23C414.546 30.23 414.704 30.216 414.844 30.188C414.984 30.16 415.148 30.1133 415.334 30.048V30.958C415.148 31.0233 414.952 31.07 414.746 31.098C414.541 31.126 414.34 31.14 414.144 31.14ZM418.945 31.126C418.46 31.126 418.031 31.0373 417.657 30.86C417.284 30.6827 416.99 30.44 416.775 30.132C416.57 29.8147 416.467 29.4507 416.467 29.04C416.467 28.6293 416.575 28.2747 416.789 27.976C417.004 27.668 417.303 27.43 417.685 27.262C418.068 27.094 418.516 27.01 419.029 27.01C419.421 27.01 419.79 27.052 420.135 27.136C420.49 27.22 420.817 27.3553 421.115 27.542V26.604C421.115 26.044 420.966 25.624 420.667 25.344C420.369 25.0547 419.93 24.91 419.351 24.91C419.034 24.91 418.707 24.9567 418.371 25.05C418.045 25.1433 417.681 25.2927 417.279 25.498L416.901 24.714C417.816 24.2753 418.675 24.056 419.477 24.056C420.327 24.056 420.98 24.266 421.437 24.686C421.895 25.0967 422.123 25.6893 422.123 26.464V31H421.115V30.202C420.817 30.51 420.485 30.7433 420.121 30.902C419.757 31.0513 419.365 31.126 418.945 31.126ZM417.447 29.012C417.447 29.4133 417.601 29.7353 417.909 29.978C418.227 30.2207 418.642 30.342 419.155 30.342C419.538 30.342 419.888 30.2767 420.205 30.146C420.532 30.0153 420.835 29.8193 421.115 29.558V28.242C420.826 28.074 420.527 27.9527 420.219 27.878C419.911 27.794 419.566 27.752 419.183 27.752C418.661 27.752 418.241 27.8687 417.923 28.102C417.606 28.326 417.447 28.6293 417.447 29.012ZM427.364 34.066C426.907 34.066 426.445 34.0007 425.978 33.87C425.521 33.7487 425.096 33.576 424.704 33.352L425.138 32.568C425.558 32.7827 425.941 32.9413 426.286 33.044C426.632 33.1467 426.977 33.198 427.322 33.198C427.948 33.198 428.419 33.0487 428.736 32.75C429.063 32.4513 429.226 32.0173 429.226 31.448V30.076C428.965 30.4027 428.648 30.6547 428.274 30.832C427.901 31 427.49 31.084 427.042 31.084C426.454 31.084 425.922 30.93 425.446 30.622C424.97 30.3047 424.592 29.8847 424.312 29.362C424.032 28.83 423.892 28.2373 423.892 27.584C423.892 26.9307 424.032 26.3427 424.312 25.82C424.602 25.288 424.989 24.868 425.474 24.56C425.96 24.2427 426.501 24.084 427.098 24.084C427.528 24.084 427.924 24.168 428.288 24.336C428.652 24.4947 428.97 24.7327 429.24 25.05V24.168H430.248V31.434C430.248 32.2833 430.001 32.932 429.506 33.38C429.012 33.8373 428.298 34.066 427.364 34.066ZM427.294 30.202C427.696 30.202 428.064 30.1227 428.4 29.964C428.736 29.796 429.012 29.5673 429.226 29.278V25.904C429.002 25.6147 428.718 25.3907 428.372 25.232C428.036 25.064 427.677 24.98 427.294 24.98C426.837 24.98 426.426 25.092 426.062 25.316C425.708 25.54 425.423 25.848 425.208 26.24C425.003 26.632 424.9 27.08 424.9 27.584C424.9 28.0787 425.003 28.5267 425.208 28.928C425.423 29.32 425.708 29.6327 426.062 29.866C426.426 30.09 426.837 30.202 427.294 30.202ZM435.429 31.14C434.794 31.14 434.22 30.986 433.707 30.678C433.193 30.3607 432.787 29.936 432.489 29.404C432.19 28.8627 432.041 28.256 432.041 27.584C432.041 26.912 432.181 26.31 432.461 25.778C432.75 25.246 433.137 24.826 433.623 24.518C434.108 24.21 434.649 24.056 435.247 24.056C435.853 24.056 436.39 24.21 436.857 24.518C437.333 24.8167 437.706 25.2273 437.977 25.75C438.257 26.2633 438.397 26.8467 438.397 27.5V27.808H433.035C433.072 28.2747 433.198 28.6947 433.413 29.068C433.637 29.432 433.926 29.7213 434.281 29.936C434.645 30.1413 435.041 30.244 435.471 30.244C435.825 30.244 436.166 30.1833 436.493 30.062C436.829 29.9313 437.113 29.7587 437.347 29.544L437.991 30.23C437.599 30.538 437.193 30.7667 436.773 30.916C436.353 31.0653 435.905 31.14 435.429 31.14ZM433.063 27.08H437.389C437.342 26.6693 437.216 26.3053 437.011 25.988C436.815 25.6613 436.563 25.4047 436.255 25.218C435.956 25.0313 435.62 24.938 435.247 24.938C434.873 24.938 434.533 25.0313 434.225 25.218C433.917 25.3953 433.66 25.6473 433.455 25.974C433.259 26.2913 433.128 26.66 433.063 27.08Z" fill="white"/>
  <rect x="520" width="187" height="53" rx="3" fill="#383838"/>
  <path d="M544 18.5C539.59 18.5 536 22.09 536 26.5C536 30.91 539.59 34.5 544 34.5C548.41 34.5 552 30.91 552 26.5C552 22.09 548.41 18.5 544 18.5ZM543.375 23C543.375 22.655 543.655 22.375 544 22.375C544.345 22.375 544.625 22.655 544.625 23V27C544.625 27.345 544.345 27.625 544 27.625C543.655 27.625 543.375 27.345 543.375 27V23ZM544 31.255C543.585 31.255 543.25 30.92 543.25 30.505C543.25 30.09 543.585 29.755 544 29.755C544.415 29.755 544.75 30.09 544.75 30.505C544.75 30.92 544.415 31.255 544 31.255Z" fill="#F0561D"/>
  <path d="M561.246 31V21.2H562.744L566.02 28.172L569.296 21.2H570.794V31H569.772V22.474L566.02 30.3L562.254 22.446V31H561.246ZM575.072 31.126C574.587 31.126 574.158 31.0373 573.784 30.86C573.411 30.6827 573.117 30.44 572.902 30.132C572.697 29.8147 572.594 29.4507 572.594 29.04C572.594 28.6293 572.702 28.2747 572.916 27.976C573.131 27.668 573.43 27.43 573.812 27.262C574.195 27.094 574.643 27.01 575.156 27.01C575.548 27.01 575.917 27.052 576.262 27.136C576.617 27.22 576.944 27.3553 577.242 27.542V26.604C577.242 26.044 577.093 25.624 576.794 25.344C576.496 25.0547 576.057 24.91 575.478 24.91C575.161 24.91 574.834 24.9567 574.498 25.05C574.172 25.1433 573.808 25.2927 573.406 25.498L573.028 24.714C573.943 24.2753 574.802 24.056 575.604 24.056C576.454 24.056 577.107 24.266 577.564 24.686C578.022 25.0967 578.25 25.6893 578.25 26.464V31H577.242V30.202C576.944 30.51 576.612 30.7433 576.248 30.902C575.884 31.0513 575.492 31.126 575.072 31.126ZM573.574 29.012C573.574 29.4133 573.728 29.7353 574.036 29.978C574.354 30.2207 574.769 30.342 575.282 30.342C575.665 30.342 576.015 30.2767 576.332 30.146C576.659 30.0153 576.962 29.8193 577.242 29.558V28.242C576.953 28.074 576.654 27.9527 576.346 27.878C576.038 27.794 575.693 27.752 575.31 27.752C574.788 27.752 574.368 27.8687 574.05 28.102C573.733 28.326 573.574 28.6293 573.574 29.012ZM580.845 22.474C580.64 22.474 580.463 22.404 580.313 22.264C580.173 22.1147 580.103 21.942 580.103 21.746C580.103 21.55 580.173 21.382 580.313 21.242C580.463 21.0927 580.64 21.018 580.845 21.018C581.051 21.018 581.223 21.0927 581.363 21.242C581.513 21.382 581.587 21.55 581.587 21.746C581.587 21.942 581.513 22.1147 581.363 22.264C581.223 22.404 581.051 22.474 580.845 22.474ZM579.627 34.066C579.515 34.066 579.403 34.052 579.291 34.024C579.189 34.0053 579.091 33.9913 578.997 33.982V33.1C579.081 33.1187 579.165 33.1327 579.249 33.142C579.324 33.1513 579.408 33.156 579.501 33.156C579.8 33.156 580.01 33.086 580.131 32.946C580.262 32.806 580.327 32.5773 580.327 32.26V24.168H581.349V32.316C581.349 32.8667 581.2 33.296 580.901 33.604C580.612 33.912 580.187 34.066 579.627 34.066ZM586.469 31.112C585.834 31.112 585.265 30.958 584.761 30.65C584.257 30.342 583.86 29.922 583.571 29.39C583.281 28.858 583.137 28.256 583.137 27.584C583.137 26.912 583.281 26.31 583.571 25.778C583.86 25.246 584.257 24.826 584.761 24.518C585.265 24.21 585.834 24.056 586.469 24.056C587.094 24.056 587.654 24.21 588.149 24.518C588.653 24.826 589.049 25.246 589.339 25.778C589.628 26.31 589.773 26.912 589.773 27.584C589.773 28.256 589.628 28.858 589.339 29.39C589.049 29.922 588.653 30.342 588.149 30.65C587.654 30.958 587.094 31.112 586.469 31.112ZM586.455 30.216C586.903 30.216 587.299 30.104 587.645 29.88C587.99 29.6467 588.261 29.3293 588.457 28.928C588.662 28.5267 588.765 28.0787 588.765 27.584C588.765 27.08 588.662 26.632 588.457 26.24C588.261 25.8387 587.99 25.526 587.645 25.302C587.299 25.0687 586.903 24.952 586.455 24.952C586.007 24.952 585.61 25.0687 585.265 25.302C584.919 25.526 584.644 25.8387 584.439 26.24C584.243 26.632 584.145 27.08 584.145 27.584C584.145 28.0787 584.243 28.5267 584.439 28.928C584.644 29.3293 584.919 29.6467 585.265 29.88C585.61 30.104 586.007 30.216 586.455 30.216ZM591.566 31V24.168H592.588V25.568C592.765 25.092 593.017 24.7233 593.344 24.462C593.68 24.1913 594.062 24.056 594.492 24.056C594.613 24.056 594.725 24.0653 594.828 24.084C594.93 24.0933 595.033 24.1167 595.136 24.154V25.078C595.024 25.0407 594.902 25.0127 594.772 24.994C594.65 24.966 594.534 24.952 594.422 24.952C594.002 24.952 593.633 25.0733 593.316 25.316C593.008 25.5587 592.765 25.8993 592.588 26.338V31H591.566ZM601.869 31.14C601.309 31.14 600.791 31.056 600.315 30.888C599.839 30.7107 599.433 30.4587 599.097 30.132L599.643 29.46C600.054 29.7587 600.432 29.978 600.777 30.118C601.122 30.2487 601.477 30.314 601.841 30.314C602.336 30.314 602.746 30.1973 603.073 29.964C603.4 29.7307 603.563 29.432 603.563 29.068C603.563 28.788 603.465 28.5687 603.269 28.41C603.082 28.2513 602.77 28.13 602.331 28.046L601.211 27.85C600.548 27.7287 600.058 27.5233 599.741 27.234C599.433 26.9447 599.279 26.5527 599.279 26.058C599.279 25.666 599.382 25.3207 599.587 25.022C599.802 24.7233 600.096 24.49 600.469 24.322C600.842 24.1447 601.267 24.056 601.743 24.056C602.21 24.056 602.653 24.126 603.073 24.266C603.493 24.3967 603.918 24.6113 604.347 24.91L603.843 25.624C603.488 25.372 603.134 25.19 602.779 25.078C602.424 24.9567 602.065 24.896 601.701 24.896C601.253 24.896 600.894 24.994 600.623 25.19C600.352 25.386 600.217 25.652 600.217 25.988C600.217 26.268 600.301 26.4827 600.469 26.632C600.646 26.7813 600.954 26.8933 601.393 26.968L602.541 27.178C603.232 27.2993 603.736 27.5093 604.053 27.808C604.37 28.1067 604.529 28.508 604.529 29.012C604.529 29.4133 604.412 29.7773 604.179 30.104C603.946 30.4213 603.628 30.6733 603.227 30.86C602.826 31.0467 602.373 31.14 601.869 31.14ZM606.242 34.066C606.028 34.066 605.808 34.0333 605.584 33.968V33.058C605.678 33.0767 605.776 33.0907 605.878 33.1C605.981 33.1093 606.07 33.114 606.144 33.114C606.406 33.114 606.62 33.044 606.788 32.904C606.966 32.764 607.115 32.5447 607.236 32.246L607.74 31L605.108 24.168H606.242L608.314 29.782L610.512 24.168H611.646L608.202 32.554C608.053 32.918 607.89 33.212 607.712 33.436C607.535 33.66 607.33 33.8187 607.096 33.912C606.863 34.0147 606.578 34.066 606.242 34.066ZM615.035 31.14C614.475 31.14 613.957 31.056 613.481 30.888C613.005 30.7107 612.599 30.4587 612.263 30.132L612.809 29.46C613.22 29.7587 613.598 29.978 613.943 30.118C614.288 30.2487 614.643 30.314 615.007 30.314C615.502 30.314 615.912 30.1973 616.239 29.964C616.566 29.7307 616.729 29.432 616.729 29.068C616.729 28.788 616.631 28.5687 616.435 28.41C616.248 28.2513 615.936 28.13 615.497 28.046L614.377 27.85C613.714 27.7287 613.224 27.5233 612.907 27.234C612.599 26.9447 612.445 26.5527 612.445 26.058C612.445 25.666 612.548 25.3207 612.753 25.022C612.968 24.7233 613.262 24.49 613.635 24.322C614.008 24.1447 614.433 24.056 614.909 24.056C615.376 24.056 615.819 24.126 616.239 24.266C616.659 24.3967 617.084 24.6113 617.513 24.91L617.009 25.624C616.654 25.372 616.3 25.19 615.945 25.078C615.59 24.9567 615.231 24.896 614.867 24.896C614.419 24.896 614.06 24.994 613.789 25.19C613.518 25.386 613.383 25.652 613.383 25.988C613.383 26.268 613.467 26.4827 613.635 26.632C613.812 26.7813 614.12 26.8933 614.559 26.968L615.707 27.178C616.398 27.2993 616.902 27.5093 617.219 27.808C617.536 28.1067 617.695 28.508 617.695 29.012C617.695 29.4133 617.578 29.7773 617.345 30.104C617.112 30.4213 616.794 30.6733 616.393 30.86C615.992 31.0467 615.539 31.14 615.035 31.14ZM621.718 31.14C621.13 31.14 620.682 31 620.374 30.72C620.076 30.4307 619.926 30.0153 619.926 29.474V25.008H618.512V24.168H619.926V22.292L620.948 22.054V24.168H622.908V25.008H620.948V29.208C620.948 29.572 621.023 29.8333 621.172 29.992C621.331 30.1507 621.588 30.23 621.942 30.23C622.12 30.23 622.278 30.216 622.418 30.188C622.558 30.16 622.722 30.1133 622.908 30.048V30.958C622.722 31.0233 622.526 31.07 622.32 31.098C622.115 31.126 621.914 31.14 621.718 31.14ZM627.349 31.14C626.714 31.14 626.14 30.986 625.627 30.678C625.113 30.3607 624.707 29.936 624.409 29.404C624.11 28.8627 623.961 28.256 623.961 27.584C623.961 26.912 624.101 26.31 624.381 25.778C624.67 25.246 625.057 24.826 625.543 24.518C626.028 24.21 626.569 24.056 627.167 24.056C627.773 24.056 628.31 24.21 628.777 24.518C629.253 24.8167 629.626 25.2273 629.897 25.75C630.177 26.2633 630.317 26.8467 630.317 27.5V27.808H624.955C624.992 28.2747 625.118 28.6947 625.333 29.068C625.557 29.432 625.846 29.7213 626.201 29.936C626.565 30.1413 626.961 30.244 627.391 30.244C627.745 30.244 628.086 30.1833 628.413 30.062C628.749 29.9313 629.033 29.7587 629.267 29.544L629.911 30.23C629.519 30.538 629.113 30.7667 628.693 30.916C628.273 31.0653 627.825 31.14 627.349 31.14ZM624.983 27.08H629.309C629.262 26.6693 629.136 26.3053 628.931 25.988C628.735 25.6613 628.483 25.4047 628.175 25.218C627.876 25.0313 627.54 24.938 627.167 24.938C626.793 24.938 626.453 25.0313 626.145 25.218C625.837 25.3953 625.58 25.6473 625.375 25.974C625.179 26.2913 625.048 26.66 624.983 27.08ZM632.062 31V24.168H633.084V25.232C633.345 24.84 633.644 24.546 633.98 24.35C634.316 24.154 634.694 24.056 635.114 24.056C635.599 24.056 636.024 24.1773 636.388 24.42C636.752 24.6533 637.027 24.9753 637.214 25.386C637.484 24.9473 637.806 24.616 638.18 24.392C638.562 24.168 639.001 24.056 639.496 24.056C639.953 24.056 640.354 24.1633 640.7 24.378C641.054 24.5927 641.33 24.8913 641.526 25.274C641.722 25.6473 641.82 26.086 641.82 26.59V31H640.798V26.842C640.798 26.2447 640.648 25.7733 640.35 25.428C640.051 25.0827 639.64 24.91 639.118 24.91C638.763 24.91 638.441 24.9987 638.152 25.176C637.872 25.3533 637.624 25.624 637.41 25.988C637.428 26.0813 637.442 26.1793 637.452 26.282C637.461 26.3847 637.466 26.4873 637.466 26.59V31H636.444V26.842C636.444 26.2447 636.29 25.7733 635.982 25.428C635.683 25.0827 635.272 24.91 634.75 24.91C634.05 24.91 633.494 25.246 633.084 25.918V31H632.062ZM650.179 31.112C649.545 31.112 648.975 30.958 648.471 30.65C647.967 30.342 647.571 29.922 647.281 29.39C646.992 28.858 646.847 28.256 646.847 27.584C646.847 26.912 646.992 26.31 647.281 25.778C647.571 25.246 647.967 24.826 648.471 24.518C648.975 24.21 649.545 24.056 650.179 24.056C650.805 24.056 651.365 24.21 651.859 24.518C652.363 24.826 652.76 25.246 653.049 25.778C653.339 26.31 653.483 26.912 653.483 27.584C653.483 28.256 653.339 28.858 653.049 29.39C652.76 29.922 652.363 30.342 651.859 30.65C651.365 30.958 650.805 31.112 650.179 31.112ZM650.165 30.216C650.613 30.216 651.01 30.104 651.355 29.88C651.701 29.6467 651.971 29.3293 652.167 28.928C652.373 28.5267 652.475 28.0787 652.475 27.584C652.475 27.08 652.373 26.632 652.167 26.24C651.971 25.8387 651.701 25.526 651.355 25.302C651.01 25.0687 650.613 24.952 650.165 24.952C649.717 24.952 649.321 25.0687 648.975 25.302C648.63 25.526 648.355 25.8387 648.149 26.24C647.953 26.632 647.855 27.08 647.855 27.584C647.855 28.0787 647.953 28.5267 648.149 28.928C648.355 29.3293 648.63 29.6467 648.975 29.88C649.321 30.104 649.717 30.216 650.165 30.216ZM657.713 31.112C657.227 31.112 656.798 31.0047 656.425 30.79C656.051 30.5753 655.757 30.2767 655.543 29.894C655.337 29.5113 655.235 29.0727 655.235 28.578V24.168H656.271V28.284C656.271 28.8907 656.434 29.3713 656.761 29.726C657.087 30.0807 657.531 30.258 658.091 30.258C658.473 30.258 658.814 30.1693 659.113 29.992C659.421 29.8147 659.677 29.558 659.883 29.222V24.168H660.905V31H659.883V29.894C659.621 30.2953 659.309 30.5987 658.945 30.804C658.59 31.0093 658.179 31.112 657.713 31.112ZM665.605 31.14C665.017 31.14 664.569 31 664.261 30.72C663.963 30.4307 663.813 30.0153 663.813 29.474V25.008H662.399V24.168H663.813V22.292L664.835 22.054V24.168H666.795V25.008H664.835V29.208C664.835 29.572 664.91 29.8333 665.059 29.992C665.218 30.1507 665.475 30.23 665.829 30.23C666.007 30.23 666.165 30.216 666.305 30.188C666.445 30.16 666.609 30.1133 666.795 30.048V30.958C666.609 31.0233 666.413 31.07 666.207 31.098C666.002 31.126 665.801 31.14 665.605 31.14ZM670.406 31.126C669.921 31.126 669.492 31.0373 669.118 30.86C668.745 30.6827 668.451 30.44 668.236 30.132C668.031 29.8147 667.928 29.4507 667.928 29.04C667.928 28.6293 668.036 28.2747 668.25 27.976C668.465 27.668 668.764 27.43 669.146 27.262C669.529 27.094 669.977 27.01 670.49 27.01C670.882 27.01 671.251 27.052 671.596 27.136C671.951 27.22 672.278 27.3553 672.576 27.542V26.604C672.576 26.044 672.427 25.624 672.128 25.344C671.83 25.0547 671.391 24.91 670.812 24.91C670.495 24.91 670.168 24.9567 669.832 25.05C669.506 25.1433 669.142 25.2927 668.74 25.498L668.362 24.714C669.277 24.2753 670.136 24.056 670.938 24.056C671.788 24.056 672.441 24.266 672.898 24.686C673.356 25.0967 673.584 25.6893 673.584 26.464V31H672.576V30.202C672.278 30.51 671.946 30.7433 671.582 30.902C671.218 31.0513 670.826 31.126 670.406 31.126ZM668.908 29.012C668.908 29.4133 669.062 29.7353 669.37 29.978C669.688 30.2207 670.103 30.342 670.616 30.342C670.999 30.342 671.349 30.2767 671.666 30.146C671.993 30.0153 672.296 29.8193 672.576 29.558V28.242C672.287 28.074 671.988 27.9527 671.68 27.878C671.372 27.794 671.027 27.752 670.644 27.752C670.122 27.752 669.702 27.8687 669.384 28.102C669.067 28.326 668.908 28.6293 668.908 29.012ZM678.825 34.066C678.368 34.066 677.906 34.0007 677.439 33.87C676.982 33.7487 676.557 33.576 676.165 33.352L676.599 32.568C677.019 32.7827 677.402 32.9413 677.747 33.044C678.093 33.1467 678.438 33.198 678.783 33.198C679.409 33.198 679.88 33.0487 680.197 32.75C680.524 32.4513 680.687 32.0173 680.687 31.448V30.076C680.426 30.4027 680.109 30.6547 679.735 30.832C679.362 31 678.951 31.084 678.503 31.084C677.915 31.084 677.383 30.93 676.907 30.622C676.431 30.3047 676.053 29.8847 675.773 29.362C675.493 28.83 675.353 28.2373 675.353 27.584C675.353 26.9307 675.493 26.3427 675.773 25.82C676.063 25.288 676.45 24.868 676.935 24.56C677.421 24.2427 677.962 24.084 678.559 24.084C678.989 24.084 679.385 24.168 679.749 24.336C680.113 24.4947 680.431 24.7327 680.701 25.05V24.168H681.709V31.434C681.709 32.2833 681.462 32.932 680.967 33.38C680.473 33.8373 679.759 34.066 678.825 34.066ZM678.755 30.202C679.157 30.202 679.525 30.1227 679.861 29.964C680.197 29.796 680.473 29.5673 680.687 29.278V25.904C680.463 25.6147 680.179 25.3907 679.833 25.232C679.497 25.064 679.138 24.98 678.755 24.98C678.298 24.98 677.887 25.092 677.523 25.316C677.169 25.54 676.884 25.848 676.669 26.24C676.464 26.632 676.361 27.08 676.361 27.584C676.361 28.0787 676.464 28.5267 676.669 28.928C676.884 29.32 677.169 29.6327 677.523 29.866C677.887 30.09 678.298 30.202 678.755 30.202ZM686.89 31.14C686.255 31.14 685.681 30.986 685.168 30.678C684.654 30.3607 684.248 29.936 683.95 29.404C683.651 28.8627 683.502 28.256 683.502 27.584C683.502 26.912 683.642 26.31 683.922 25.778C684.211 25.246 684.598 24.826 685.084 24.518C685.569 24.21 686.11 24.056 686.708 24.056C687.314 24.056 687.851 24.21 688.318 24.518C688.794 24.8167 689.167 25.2273 689.438 25.75C689.718 26.2633 689.858 26.8467 689.858 27.5V27.808H684.496C684.533 28.2747 684.659 28.6947 684.874 29.068C685.098 29.432 685.387 29.7213 685.742 29.936C686.106 30.1413 686.502 30.244 686.932 30.244C687.286 30.244 687.627 30.1833 687.954 30.062C688.29 29.9313 688.574 29.7587 688.808 29.544L689.452 30.23C689.06 30.538 688.654 30.7667 688.234 30.916C687.814 31.0653 687.366 31.14 686.89 31.14ZM684.524 27.08H688.85C688.803 26.6693 688.677 26.3053 688.472 25.988C688.276 25.6613 688.024 25.4047 687.716 25.218C687.417 25.0313 687.081 24.938 686.708 24.938C686.334 24.938 685.994 25.0313 685.686 25.218C685.378 25.3953 685.121 25.6473 684.916 25.974C684.72 26.2913 684.589 26.66 684.524 27.08Z" fill="white"/>
</svg>
  