<?xml version="1.0" encoding="utf-8"?>
<!-- Generator: Adobe Illustrator 24.3.0, SVG Export Plug-In . SVG Version: 6.00 Build 0)  -->
<svg version="1.1" id="Layer_1" xmlns="http://www.w3.org/2000/svg" xmlns:xlink="http://www.w3.org/1999/xlink" x="0px" y="0px"
	 viewBox="0 0 360 640" style="enable-background:new 0 0 360 640;" xml:space="preserve">
<style type="text/css">
	.st0{fill:#C9190B;}
	.st1{fill:#F5F5F5;}
	.st2{fill:#D2D2D2;}
	.st3{enable-background:new    ;}
	.st4{fill:#6A6E73;}
	.st5{fill:#151515;}
	.st6{fill:#EE0000;}
	.st7{opacity:3.000000e-02;}
	.st8{opacity:0.75;fill:#0000FF;enable-background:new    ;}
	.st9{opacity:0.75;fill:#EE0000;enable-background:new    ;}
</style>
<g transform="translate(-360 -8339)">
	<path class="st0" d="M549,8801c0,5-4,9-9,9s-9-4-9-9s4-9,9-9l0,0C545,8792,549,8796,549,8801z M540,8802.8c-0.9,0-1.7,0.7-1.7,1.7
		c0,0.9,0.7,1.7,1.7,1.7c0.9,0,1.7-0.7,1.7-1.7C541.7,8803.6,540.9,8802.8,540,8802.8L540,8802.8z M538.4,8796.8l0.3,4.9
		c0,0.2,0.2,0.4,0.4,0.4h1.8c0.2,0,0.4-0.2,0.4-0.4l0.3-4.9c0-0.2-0.2-0.4-0.4-0.5c0,0,0,0,0,0h-2.3
		C538.6,8796.4,538.4,8796.5,538.4,8796.8C538.4,8796.8,538.4,8796.8,538.4,8796.8L538.4,8796.8z"/>
	<path class="st1" d="M499,8543h202c1.7,0,3,1.3,3,3v227c0,1.7-1.3,3-3,3H499c-1.7,0-3-1.3-3-3v-227C496,8544.3,497.3,8543,499,8543
		z"/>
	<path class="st2" d="M376,8543h1v233h-1V8543z"/>
	<g class="st3">
		<path class="st4" d="M394.2,8736.4c1.3,1.3,2.4,1.7,3.9,1.7c1.7,0,3-1,3-2.3c0-1.1-0.7-1.6-2.5-2l-1.8-0.3c-2-0.4-3-1.2-3-2.7
			c0-1.9,1.6-3.2,3.8-3.2c1.7,0,3,0.4,4.4,1.4l-0.6,1c-1.2-0.9-2.5-1.3-3.8-1.3c-1.6,0-2.7,0.9-2.7,2c0,1,0.6,1.5,2.1,1.7l1.8,0.3
			c2.4,0.4,3.4,1.3,3.4,3c0,1.9-1.8,3.4-4.3,3.4c-1.8,0-3.2-0.6-4.6-1.9L394.2,8736.4z"/>
		<path class="st4" d="M407.8,8739.1c-2.2,0-3.9-1.8-3.9-4s1.6-4,3.7-4c2,0,3.6,1.7,3.6,3.9v0.4h-6.1c0.1,1.6,1.3,2.8,2.8,2.8
			c0.8,0,1.6-0.3,2.1-0.8l0.7,0.8C409.9,8738.8,408.9,8739.1,407.8,8739.1z M405.1,8734.5h4.9c-0.2-1.4-1.2-2.4-2.4-2.4
			C406.3,8732.1,405.4,8733.1,405.1,8734.5z"/>
		<path class="st4" d="M419,8737.2l0.7,0.7c-0.8,0.8-1.8,1.3-3,1.3c-2.2,0-3.9-1.8-3.9-4c0-2.3,1.7-4,3.9-4c1.2,0,2.2,0.4,3,1.2
			l-0.8,0.8c-0.6-0.6-1.4-1-2.2-1c-1.5,0-2.7,1.3-2.7,3c0,1.7,1.2,3,2.8,3C417.7,8738.1,418.5,8737.8,419,8737.2z"/>
		<path class="st4" d="M422.5,8732.1h-1.6v-1h1.6v-2.1l1.2-0.3v2.4h2.2v1h-2.2v4.8c0,0.8,0.3,1.2,1.1,1.2c0.4,0,0.7,0,1.1-0.2v1
			c-0.4,0.1-0.9,0.2-1.4,0.2c-1.3,0-2-0.7-2-1.9V8732.1z"/>
		<path class="st4" d="M427.4,8728.4c0-0.4,0.4-0.8,0.8-0.8c0.4,0,0.8,0.4,0.8,0.8c0,0.5-0.4,0.8-0.8,0.8
			C427.7,8729.3,427.4,8728.9,427.4,8728.4z M428.8,8739h-1.2v-7.8h1.2V8739z"/>
		<path class="st4" d="M434.6,8731.1c2.2,0,3.8,1.7,3.8,4c0,2.3-1.6,4.1-3.8,4.1c-2.1,0-3.8-1.8-3.8-4.1
			C430.8,8732.8,432.5,8731.1,434.6,8731.1z M437.3,8735.1c0-1.7-1.1-3-2.7-3s-2.6,1.3-2.6,3c0,1.7,1.1,3,2.6,3
			S437.3,8736.8,437.3,8735.1z"/>
		<path class="st4" d="M440.5,8731.2h1.2v1.3c0.6-0.9,1.4-1.4,2.5-1.4c1.7,0,2.8,1.2,2.8,2.9v5.1h-1.2v-4.7c0-1.4-0.8-2.2-2.1-2.2
			c-0.9,0-1.6,0.4-2,1.2v5.8h-1.2V8731.2z"/>
		<path class="st4" d="M453.2,8727.8h6.4v1h-5.4l-0.2,3.9c0.8-0.4,1.6-0.6,2.5-0.6c2.2,0,3.7,1.4,3.7,3.4c0,2.2-1.6,3.7-3.9,3.7
			c-1.5,0-2.8-0.5-3.8-1.5l0.7-0.8c1,0.9,1.9,1.3,3.1,1.3c1.6,0,2.8-1.1,2.8-2.7c0-1.5-1.1-2.5-2.8-2.5c-0.8,0-1.6,0.2-2.5,0.6
			l-0.8-0.3L453.2,8727.8z"/>
	</g>
	<g class="st3">
		<path class="st4" d="M394.2,8699.4c1.3,1.3,2.4,1.7,3.9,1.7c1.7,0,3-1,3-2.3c0-1.1-0.7-1.6-2.5-2l-1.8-0.3c-2-0.4-3-1.2-3-2.7
			c0-1.9,1.6-3.2,3.8-3.2c1.7,0,3,0.4,4.4,1.4l-0.6,1c-1.2-0.9-2.5-1.3-3.8-1.3c-1.6,0-2.7,0.9-2.7,2c0,1,0.6,1.5,2.1,1.7l1.8,0.3
			c2.4,0.4,3.4,1.3,3.4,3c0,1.9-1.8,3.4-4.3,3.4c-1.8,0-3.2-0.6-4.6-1.9L394.2,8699.4z"/>
		<path class="st4" d="M407.8,8702.1c-2.2,0-3.9-1.8-3.9-4s1.6-4,3.7-4c2,0,3.6,1.7,3.6,3.9v0.4h-6.1c0.1,1.6,1.3,2.8,2.8,2.8
			c0.8,0,1.6-0.3,2.1-0.8l0.7,0.8C409.9,8701.8,408.9,8702.1,407.8,8702.1z M405.1,8697.5h4.9c-0.2-1.4-1.2-2.4-2.4-2.4
			C406.3,8695.1,405.4,8696.1,405.1,8697.5z"/>
		<path class="st4" d="M419,8700.2l0.7,0.7c-0.8,0.8-1.8,1.3-3,1.3c-2.2,0-3.9-1.8-3.9-4c0-2.3,1.7-4,3.9-4c1.2,0,2.2,0.4,3,1.2
			l-0.8,0.8c-0.6-0.6-1.4-1-2.2-1c-1.5,0-2.7,1.3-2.7,3c0,1.7,1.2,3,2.8,3C417.7,8701.1,418.5,8700.8,419,8700.2z"/>
		<path class="st4" d="M422.5,8695.1h-1.6v-1h1.6v-2.1l1.2-0.3v2.4h2.2v1h-2.2v4.8c0,0.8,0.3,1.2,1.1,1.2c0.4,0,0.7,0,1.1-0.2v1
			c-0.4,0.1-0.9,0.2-1.4,0.2c-1.3,0-2-0.7-2-1.9V8695.1z"/>
		<path class="st4" d="M427.4,8691.4c0-0.4,0.4-0.8,0.8-0.8c0.4,0,0.8,0.4,0.8,0.8c0,0.5-0.4,0.8-0.8,0.8
			C427.7,8692.3,427.4,8691.9,427.4,8691.4z M428.8,8702h-1.2v-7.8h1.2V8702z"/>
		<path class="st4" d="M434.6,8694.1c2.2,0,3.8,1.7,3.8,4c0,2.3-1.6,4.1-3.8,4.1c-2.1,0-3.8-1.8-3.8-4.1
			C430.8,8695.8,432.5,8694.1,434.6,8694.1z M437.3,8698.1c0-1.7-1.1-3-2.7-3s-2.6,1.3-2.6,3c0,1.7,1.1,3,2.6,3
			S437.3,8699.8,437.3,8698.1z"/>
		<path class="st4" d="M440.5,8694.2h1.2v1.3c0.6-0.9,1.4-1.4,2.5-1.4c1.7,0,2.8,1.2,2.8,2.9v5.1h-1.2v-4.7c0-1.4-0.8-2.2-2.1-2.2
			c-0.9,0-1.6,0.4-2,1.2v5.8h-1.2V8694.2z"/>
		<path class="st4" d="M459.6,8698h1.6v1h-1.6v3h-1.1v-3h-6.1v-0.9l6-7.3h1.2V8698z M458.5,8698v-5.8l-4.7,5.8H458.5z"/>
	</g>
	<g class="st3">
		<path class="st5" d="M394.2,8662.4c1.3,1.3,2.4,1.7,3.9,1.7c1.7,0,3-1,3-2.3c0-1.1-0.7-1.6-2.5-2l-1.8-0.3c-2-0.4-3-1.2-3-2.7
			c0-1.9,1.6-3.2,3.8-3.2c1.7,0,3,0.4,4.4,1.4l-0.6,1c-1.2-0.9-2.5-1.3-3.8-1.3c-1.6,0-2.7,0.9-2.7,2c0,1,0.6,1.5,2.1,1.7l1.8,0.3
			c2.4,0.4,3.4,1.3,3.4,3c0,1.9-1.8,3.4-4.3,3.4c-1.8,0-3.2-0.6-4.6-1.9L394.2,8662.4z"/>
		<path class="st5" d="M407.8,8665.1c-2.2,0-3.9-1.8-3.9-4s1.6-4,3.7-4c2,0,3.6,1.7,3.6,3.9v0.4h-6.1c0.1,1.6,1.3,2.8,2.8,2.8
			c0.8,0,1.6-0.3,2.1-0.8l0.7,0.8C409.9,8664.8,408.9,8665.1,407.8,8665.1z M405.1,8660.5h4.9c-0.2-1.4-1.2-2.4-2.4-2.4
			C406.3,8658.1,405.4,8659.1,405.1,8660.5z"/>
		<path class="st5" d="M419,8663.2l0.7,0.7c-0.8,0.8-1.8,1.3-3,1.3c-2.2,0-3.9-1.8-3.9-4c0-2.3,1.7-4,3.9-4c1.2,0,2.2,0.4,3,1.2
			l-0.8,0.8c-0.6-0.6-1.4-1-2.2-1c-1.5,0-2.7,1.3-2.7,3c0,1.7,1.2,3,2.8,3C417.7,8664.1,418.5,8663.8,419,8663.2z"/>
		<path class="st5" d="M422.5,8658.1h-1.6v-1h1.6v-2.1l1.2-0.3v2.4h2.2v1h-2.2v4.8c0,0.8,0.3,1.2,1.1,1.2c0.4,0,0.7,0,1.1-0.2v1
			c-0.4,0.1-0.9,0.2-1.4,0.2c-1.3,0-2-0.7-2-1.9V8658.1z"/>
		<path class="st5" d="M427.4,8654.4c0-0.4,0.4-0.8,0.8-0.8c0.4,0,0.8,0.4,0.8,0.8c0,0.5-0.4,0.8-0.8,0.8
			C427.7,8655.3,427.4,8654.9,427.4,8654.4z M428.8,8665h-1.2v-7.8h1.2V8665z"/>
		<path class="st5" d="M434.6,8657.1c2.2,0,3.8,1.7,3.8,4c0,2.3-1.6,4.1-3.8,4.1c-2.1,0-3.8-1.8-3.8-4.1
			C430.8,8658.8,432.5,8657.1,434.6,8657.1z M437.3,8661.1c0-1.7-1.1-3-2.7-3s-2.6,1.3-2.6,3c0,1.7,1.1,3,2.6,3
			S437.3,8662.8,437.3,8661.1z"/>
		<path class="st5" d="M440.5,8657.2h1.2v1.3c0.6-0.9,1.4-1.4,2.5-1.4c1.7,0,2.8,1.2,2.8,2.9v5.1h-1.2v-4.7c0-1.4-0.8-2.2-2.1-2.2
			c-0.9,0-1.6,0.4-2,1.2v5.8h-1.2V8657.2z"/>
		<path class="st5" d="M456.3,8665.2c-1.5,0-2.9-0.5-3.9-1.6l0.8-0.8c0.9,0.9,1.9,1.3,3.1,1.3c1.6,0,2.8-0.9,2.8-2.3
			c0-1.2-1-2.1-2.4-2.1h-1.3v-1h1.3c1.2,0,2-0.8,2-2c0-1.2-1.1-2.1-2.4-2.1c-1.2,0-2,0.4-2.9,1.4l-0.8-0.8c1-1.1,2.3-1.6,3.7-1.6
			c2,0,3.6,1.3,3.6,3.1c0,1.2-0.8,2.2-2.1,2.5c1.5,0.3,2.5,1.4,2.5,2.7C460.2,8663.8,458.6,8665.2,456.3,8665.2z"/>
	</g>
	<path class="st6" d="M376,8641h3v37h-3V8641z"/>
	<g class="st3">
		<path class="st4" d="M394.2,8625.4c1.3,1.3,2.4,1.7,3.9,1.7c1.7,0,3-1,3-2.3c0-1.1-0.7-1.6-2.5-2l-1.8-0.3c-2-0.4-3-1.2-3-2.7
			c0-1.9,1.6-3.2,3.8-3.2c1.7,0,3,0.4,4.4,1.4l-0.6,1c-1.2-0.9-2.5-1.3-3.8-1.3c-1.6,0-2.7,0.9-2.7,2c0,1,0.6,1.5,2.1,1.7l1.8,0.3
			c2.4,0.4,3.4,1.3,3.4,3c0,1.9-1.8,3.4-4.3,3.4c-1.8,0-3.2-0.6-4.6-1.9L394.2,8625.4z"/>
		<path class="st4" d="M407.8,8628.1c-2.2,0-3.9-1.8-3.9-4s1.6-4,3.7-4c2,0,3.6,1.7,3.6,3.9v0.4h-6.1c0.1,1.6,1.3,2.8,2.8,2.8
			c0.8,0,1.6-0.3,2.1-0.8l0.7,0.8C409.9,8627.8,408.9,8628.1,407.8,8628.1z M405.1,8623.5h4.9c-0.2-1.4-1.2-2.4-2.4-2.4
			C406.3,8621.1,405.4,8622.1,405.1,8623.5z"/>
		<path class="st4" d="M419,8626.2l0.7,0.7c-0.8,0.8-1.8,1.3-3,1.3c-2.2,0-3.9-1.8-3.9-4c0-2.3,1.7-4,3.9-4c1.2,0,2.2,0.4,3,1.2
			l-0.8,0.8c-0.6-0.6-1.4-1-2.2-1c-1.5,0-2.7,1.3-2.7,3c0,1.7,1.2,3,2.8,3C417.7,8627.1,418.5,8626.8,419,8626.2z"/>
		<path class="st4" d="M422.5,8621.1h-1.6v-1h1.6v-2.1l1.2-0.3v2.4h2.2v1h-2.2v4.8c0,0.8,0.3,1.2,1.1,1.2c0.4,0,0.7,0,1.1-0.2v1
			c-0.4,0.1-0.9,0.2-1.4,0.2c-1.3,0-2-0.7-2-1.9V8621.1z"/>
		<path class="st4" d="M427.4,8617.4c0-0.4,0.4-0.8,0.8-0.8c0.4,0,0.8,0.4,0.8,0.8c0,0.5-0.4,0.8-0.8,0.8
			C427.7,8618.3,427.4,8617.9,427.4,8617.4z M428.8,8628h-1.2v-7.8h1.2V8628z"/>
		<path class="st4" d="M434.6,8620.1c2.2,0,3.8,1.7,3.8,4c0,2.3-1.6,4.1-3.8,4.1c-2.1,0-3.8-1.8-3.8-4.1
			C430.8,8621.8,432.5,8620.1,434.6,8620.1z M437.3,8624.1c0-1.7-1.1-3-2.7-3s-2.6,1.3-2.6,3c0,1.7,1.1,3,2.6,3
			S437.3,8625.8,437.3,8624.1z"/>
		<path class="st4" d="M440.5,8620.2h1.2v1.3c0.6-0.9,1.4-1.4,2.5-1.4c1.7,0,2.8,1.2,2.8,2.9v5.1h-1.2v-4.7c0-1.4-0.8-2.2-2.1-2.2
			c-0.9,0-1.6,0.4-2,1.2v5.8h-1.2V8620.2z"/>
		<path class="st4" d="M452.6,8627.2l4.5-4.9c1-1.2,1.4-1.8,1.4-2.6c0-1.1-1-2-2.4-2c-1.1,0-1.9,0.4-3,1.4l-0.7-0.8
			c1.2-1.1,2.3-1.6,3.6-1.6c2,0,3.5,1.2,3.5,2.9c0,1.1-0.4,1.8-1.7,3.3l-3.8,4.1l5.8,0v1h-7.2V8627.2z"/>
	</g>
	<g class="st3">
		<path class="st4" d="M394.2,8588.4c1.3,1.3,2.4,1.7,3.9,1.7c1.7,0,3-1,3-2.3c0-1.1-0.7-1.6-2.5-2l-1.8-0.3c-2-0.4-3-1.2-3-2.7
			c0-1.9,1.6-3.2,3.8-3.2c1.7,0,3,0.4,4.4,1.4l-0.6,1c-1.2-0.9-2.5-1.3-3.8-1.3c-1.6,0-2.7,0.9-2.7,2c0,1,0.6,1.5,2.1,1.7l1.8,0.3
			c2.4,0.4,3.4,1.3,3.4,3c0,1.9-1.8,3.4-4.3,3.4c-1.8,0-3.2-0.6-4.6-1.9L394.2,8588.4z"/>
		<path class="st4" d="M407.8,8591.1c-2.2,0-3.9-1.8-3.9-4s1.6-4,3.7-4c2,0,3.6,1.7,3.6,3.9v0.4h-6.1c0.1,1.6,1.3,2.8,2.8,2.8
			c0.8,0,1.6-0.3,2.1-0.8l0.7,0.8C409.9,8590.8,408.9,8591.1,407.8,8591.1z M405.1,8586.5h4.9c-0.2-1.4-1.2-2.4-2.4-2.4
			C406.3,8584.1,405.4,8585.1,405.1,8586.5z"/>
		<path class="st4" d="M419,8589.2l0.7,0.7c-0.8,0.8-1.8,1.3-3,1.3c-2.2,0-3.9-1.8-3.9-4c0-2.3,1.7-4,3.9-4c1.2,0,2.2,0.4,3,1.2
			l-0.8,0.8c-0.6-0.6-1.4-1-2.2-1c-1.5,0-2.7,1.3-2.7,3c0,1.7,1.2,3,2.8,3C417.7,8590.1,418.5,8589.8,419,8589.2z"/>
		<path class="st4" d="M422.5,8584.1h-1.6v-1h1.6v-2.1l1.2-0.3v2.4h2.2v1h-2.2v4.8c0,0.8,0.3,1.2,1.1,1.2c0.4,0,0.7,0,1.1-0.2v1
			c-0.4,0.1-0.9,0.2-1.4,0.2c-1.3,0-2-0.7-2-1.9V8584.1z"/>
		<path class="st4" d="M427.4,8580.4c0-0.4,0.4-0.8,0.8-0.8c0.4,0,0.8,0.4,0.8,0.8c0,0.5-0.4,0.8-0.8,0.8
			C427.7,8581.3,427.4,8580.9,427.4,8580.4z M428.8,8591h-1.2v-7.8h1.2V8591z"/>
		<path class="st4" d="M434.6,8583.1c2.2,0,3.8,1.7,3.8,4c0,2.3-1.6,4.1-3.8,4.1c-2.1,0-3.8-1.8-3.8-4.1
			C430.8,8584.8,432.5,8583.1,434.6,8583.1z M437.3,8587.1c0-1.7-1.1-3-2.7-3s-2.6,1.3-2.6,3c0,1.7,1.1,3,2.6,3
			S437.3,8588.8,437.3,8587.1z"/>
		<path class="st4" d="M440.5,8583.2h1.2v1.3c0.6-0.9,1.4-1.4,2.5-1.4c1.7,0,2.8,1.2,2.8,2.9v5.1h-1.2v-4.7c0-1.4-0.8-2.2-2.1-2.2
			c-0.9,0-1.6,0.4-2,1.2v5.8h-1.2V8583.2z"/>
		<path class="st4" d="M455.4,8591h-1.2v-10l-1.8,0.8v-1.1l2.2-1h0.7V8591z"/>
	</g>
	<g class="st7">
		<path class="st8" d="M704,8339h16v640h-16V8339z"/>
		<path class="st9" d="M376,8339h328v640H376V8339z"/>
		<path class="st8" d="M360,8339h16v640h-16V8339z"/>
	</g>
</g>
</svg>
