<svg xmlns="http://www.w3.org/2000/svg" width="1000" height="470" viewBox="0 0 1000 470"><defs><style>.a{fill:#f5f5f5;}.b{fill:#d2d2d2;}.c{fill:#341974;}.d{fill:#6a6e73;}.e{fill:#e00;}.f{fill:#151515;}.g{fill:#51a549;}.h,.l{fill:none;}.h{stroke:#f0f;opacity:0.25;}.i{opacity:0.5;}.j{fill:#1893d2;}.k{stroke:none;}</style></defs><g transform="translate(-360 -13370)"><rect class="a" width="1000" height="470" rx="3" transform="translate(360 13370)"/><rect class="b" width="872" height="240" rx="3" transform="translate(424 13536)"/><rect class="c" width="64" height="64" transform="translate(828 13472)"/><g transform="translate(424 13434)"><rect class="b" width="872" height="1" transform="translate(0 37)"/><g transform="translate(-62 -3)"><path class="d" d="M.144,0h1.3L2.768-3.52H7.76L9.088,0h1.328L6.048-11.2H4.576ZM3.152-4.5l2.112-5.6L7.392-4.5Zm9.5-3.312H11.472v5.04A2.73,2.73,0,0,0,14.3.128a2.8,2.8,0,0,0,2.48-1.392V0h1.168V-7.808H16.784v5.776A2.318,2.318,0,0,1,14.736-.848,2.017,2.017,0,0,1,12.656-3.1ZM21.28-1.76c0,1.248.7,1.9,2.048,1.9a4.386,4.386,0,0,0,1.36-.208V-1.1a2.8,2.8,0,0,1-1.1.208c-.816,0-1.136-.336-1.136-1.168V-6.848h2.24v-.96h-2.24v-2.416l-1.168.272v2.144H19.664v.96H21.28ZM25.856-3.9A3.867,3.867,0,0,0,29.648.16,3.86,3.86,0,0,0,33.456-3.9a3.832,3.832,0,0,0-3.808-4.032A3.829,3.829,0,0,0,25.856-3.9ZM29.648-.88a2.753,2.753,0,0,1-2.64-3.008,2.777,2.777,0,0,1,2.64-3.024A2.789,2.789,0,0,1,32.3-3.888,2.774,2.774,0,0,1,29.648-.88ZM35.5,0h1.168V-5.808a2.14,2.14,0,0,1,1.9-1.152,1.94,1.94,0,0,1,1.936,2.208V0H41.68V-5.04a3.238,3.238,0,0,0-.064-.688A2.173,2.173,0,0,1,43.568-6.96c1.184,0,1.92.848,1.92,2.208V0h1.168V-5.04A2.657,2.657,0,0,0,44-7.936a2.885,2.885,0,0,0-2.608,1.52,2.566,2.566,0,0,0-2.4-1.52,2.674,2.674,0,0,0-2.32,1.344V-7.808H35.5ZM51.44.144A3.352,3.352,0,0,0,53.92-.912V0h1.152V-5.184c0-1.776-1.088-2.752-3.024-2.752a6.689,6.689,0,0,0-2.944.752l.432.9A5.156,5.156,0,0,1,51.9-6.96,1.758,1.758,0,0,1,53.92-5.024v1.072a4.521,4.521,0,0,0-2.384-.608c-1.76,0-2.928.928-2.928,2.32C48.608-.832,49.776.144,51.44.144ZM49.728-2.272c0-.864.784-1.44,1.984-1.44a4.122,4.122,0,0,1,2.208.56v1.5a3.091,3.091,0,0,1-2.24.9C50.512-.752,49.728-1.36,49.728-2.272Zm8.4.512c0,1.248.7,1.9,2.048,1.9a4.386,4.386,0,0,0,1.36-.208V-1.1a2.8,2.8,0,0,1-1.1.208c-.816,0-1.136-.336-1.136-1.168V-6.848h2.24v-.96H59.3v-2.416l-1.168.272v2.144H56.512v.96h1.616ZM63.84-9.728a.83.83,0,0,0,.832-.848.847.847,0,0,0-.832-.832.85.85,0,0,0-.848.832A.834.834,0,0,0,63.84-9.728Zm.576,1.92H63.248V0h1.168Zm2.048,3.9A3.867,3.867,0,0,0,70.256.16,3.86,3.86,0,0,0,74.064-3.9a3.832,3.832,0,0,0-3.808-4.032A3.829,3.829,0,0,0,66.464-3.9ZM70.256-.88a2.753,2.753,0,0,1-2.64-3.008,2.777,2.777,0,0,1,2.64-3.024,2.789,2.789,0,0,1,2.656,3.024A2.774,2.774,0,0,1,70.256-.88ZM76.112,0H77.28V-5.76a2.3,2.3,0,0,1,2.048-1.2,2.024,2.024,0,0,1,2.1,2.24V0h1.168V-5.056a2.717,2.717,0,0,0-2.832-2.88,2.813,2.813,0,0,0-2.48,1.392V-7.808H76.112ZM97.936-.64c-.608-.464-1.3-1.024-1.984-1.616a9.811,9.811,0,0,0,1.376-3.552L96.24-5.984a8.732,8.732,0,0,1-1.088,3.008c-1.088-.992-2.16-2.048-3.04-3.024l.8-.48A2.947,2.947,0,0,0,94.7-9.056a2.326,2.326,0,0,0-2.528-2.3,2.6,2.6,0,0,0-2.7,2.624A3.773,3.773,0,0,0,90.5-6.224l-.3.176c-1.568.864-2.176,1.744-2.176,3.04,0,1.9,1.472,3.168,3.7,3.168a4.841,4.841,0,0,0,3.584-1.5c.656.56,1.312,1.088,1.92,1.552ZM90.592-8.752A1.54,1.54,0,0,1,92.144-10.4a1.391,1.391,0,0,1,1.44,1.376A2.029,2.029,0,0,1,92.4-7.264l-.912.528A3,3,0,0,1,90.592-8.752ZM89.136-3.04c0-.928.464-1.552,1.616-2.208l.368-.208a42.43,42.43,0,0,0,3.392,3.408,3.657,3.657,0,0,1-2.752,1.2C90.192-.848,89.136-1.712,89.136-3.04ZM103.1,0h1.168V-5.808a2.14,2.14,0,0,1,1.9-1.152,1.94,1.94,0,0,1,1.936,2.208V0h1.168V-5.04a3.238,3.238,0,0,0-.064-.688,2.173,2.173,0,0,1,1.952-1.232c1.184,0,1.92.848,1.92,2.208V0h1.168V-5.04a2.657,2.657,0,0,0-2.656-2.9,2.885,2.885,0,0,0-2.608,1.52,2.566,2.566,0,0,0-2.4-1.52,2.674,2.674,0,0,0-2.32,1.344V-7.808H103.1ZM119.04.144a3.352,3.352,0,0,0,2.48-1.056V0h1.152V-5.184c0-1.776-1.088-2.752-3.024-2.752a6.689,6.689,0,0,0-2.944.752l.432.9A5.156,5.156,0,0,1,119.5-6.96a1.758,1.758,0,0,1,2.016,1.936v1.072a4.521,4.521,0,0,0-2.384-.608c-1.76,0-2.928.928-2.928,2.32C116.208-.832,117.376.144,119.04.144Zm-1.712-2.416c0-.864.784-1.44,1.984-1.44a4.122,4.122,0,0,1,2.208.56v1.5a3.091,3.091,0,0,1-2.24.9C118.112-.752,117.328-1.36,117.328-2.272ZM125.04,0h1.168V-5.76a2.3,2.3,0,0,1,2.048-1.2,2.024,2.024,0,0,1,2.1,2.24V0h1.168V-5.056a2.717,2.717,0,0,0-2.832-2.88,2.813,2.813,0,0,0-2.48,1.392V-7.808H125.04Zm11.248.144a3.352,3.352,0,0,0,2.48-1.056V0h1.152V-5.184c0-1.776-1.088-2.752-3.024-2.752a6.689,6.689,0,0,0-2.944.752l.432.9a5.156,5.156,0,0,1,2.368-.672,1.758,1.758,0,0,1,2.016,1.936v1.072a4.521,4.521,0,0,0-2.384-.608c-1.76,0-2.928.928-2.928,2.32C133.456-.832,134.624.144,136.288.144Zm-1.712-2.416c0-.864.784-1.44,1.984-1.44a4.122,4.122,0,0,1,2.208.56v1.5a3.091,3.091,0,0,1-2.24.9C135.36-.752,134.576-1.36,134.576-2.272ZM145.536.1a3.077,3.077,0,0,0,2.5-1.152V.416c0,1.312-.752,2-2.176,2a5.25,5.25,0,0,1-2.5-.72l-.5.9a6.262,6.262,0,0,0,3.04.816c2.128,0,3.3-1.072,3.3-3.008V-7.808h-1.152V-6.8A3.151,3.151,0,0,0,145.6-7.9a3.8,3.8,0,0,0-3.664,4A3.768,3.768,0,0,0,145.536.1Zm-2.448-4a2.787,2.787,0,0,1,2.736-2.976,2.8,2.8,0,0,1,2.208,1.056v3.856a2.687,2.687,0,0,1-2.208,1.056A2.8,2.8,0,0,1,143.088-3.9ZM158.048-.9l-.736-.784a3.191,3.191,0,0,1-2.144.8,2.845,2.845,0,0,1-2.784-2.768h6.128V-4a3.689,3.689,0,0,0-3.584-3.936,3.8,3.8,0,0,0-3.68,4.032A3.9,3.9,0,0,0,155.12.144,4.558,4.558,0,0,0,158.048-.9Zm-3.136-6.032A2.579,2.579,0,0,1,157.36-4.48h-4.944A2.608,2.608,0,0,1,154.912-6.928ZM160.512,0h1.168V-5.808a2.14,2.14,0,0,1,1.9-1.152,1.94,1.94,0,0,1,1.936,2.208V0h1.168V-5.04a3.238,3.238,0,0,0-.064-.688,2.173,2.173,0,0,1,1.952-1.232c1.184,0,1.92.848,1.92,2.208V0h1.168V-5.04a2.657,2.657,0,0,0-2.656-2.9,2.885,2.885,0,0,0-2.608,1.52,2.566,2.566,0,0,0-2.4-1.52,2.674,2.674,0,0,0-2.32,1.344V-7.808h-1.168ZM180.48-.9l-.736-.784a3.191,3.191,0,0,1-2.144.8,2.845,2.845,0,0,1-2.784-2.768h6.128V-4a3.689,3.689,0,0,0-3.584-3.936A3.8,3.8,0,0,0,173.68-3.9,3.9,3.9,0,0,0,177.552.144,4.558,4.558,0,0,0,180.48-.9Zm-3.136-6.032a2.579,2.579,0,0,1,2.448,2.448h-4.944A2.608,2.608,0,0,1,177.344-6.928ZM182.944,0h1.168V-5.76a2.3,2.3,0,0,1,2.048-1.2,2.024,2.024,0,0,1,2.1,2.24V0h1.168V-5.056a2.717,2.717,0,0,0-2.832-2.88,2.813,2.813,0,0,0-2.48,1.392V-7.808h-1.168Zm9.52-1.76c0,1.248.7,1.9,2.048,1.9a4.386,4.386,0,0,0,1.36-.208V-1.1a2.8,2.8,0,0,1-1.1.208c-.816,0-1.136-.336-1.136-1.168V-6.848h2.24v-.96h-2.24v-2.416l-1.168.272v2.144h-1.616v.96h1.616Z" transform="translate(667 19)"/><path class="d" d="M.144,0h1.3L2.768-3.52H7.76L9.088,0h1.328L6.048-11.2H4.576ZM3.152-4.5l2.112-5.6L7.392-4.5Zm8.608,7.84h1.168V-.976A3.166,3.166,0,0,0,15.376.112,3.8,3.8,0,0,0,19.04-3.9a3.768,3.768,0,0,0-3.6-4,3.08,3.08,0,0,0-2.528,1.216v-1.12H11.76ZM15.152-6.88a2.8,2.8,0,0,1,2.736,2.992A2.8,2.8,0,0,1,15.152-.9a2.744,2.744,0,0,1-2.224-1.088V-5.808A2.666,2.666,0,0,1,15.152-6.88ZM21.088,3.344h1.168V-.976A3.166,3.166,0,0,0,24.7.112,3.8,3.8,0,0,0,28.368-3.9a3.768,3.768,0,0,0-3.6-4A3.08,3.08,0,0,0,22.24-6.688v-1.12H21.088ZM24.48-6.88a2.8,2.8,0,0,1,2.736,2.992A2.8,2.8,0,0,1,24.48-.9a2.744,2.744,0,0,1-2.224-1.088V-5.808A2.666,2.666,0,0,1,24.48-6.88ZM39.888,0h1.168V-11.68l-1.168.24v4.624A3.18,3.18,0,0,0,37.456-7.9a3.8,3.8,0,0,0-3.664,4.016,3.768,3.768,0,0,0,3.6,4,3.077,3.077,0,0,0,2.5-1.152ZM34.944-3.9A2.787,2.787,0,0,1,37.68-6.88a2.8,2.8,0,0,1,2.208,1.056v3.872A2.674,2.674,0,0,1,37.68-.912,2.8,2.8,0,0,1,34.944-3.9ZM49.9-.9l-.736-.784a3.191,3.191,0,0,1-2.144.8A2.845,2.845,0,0,1,44.24-3.648h6.128V-4a3.689,3.689,0,0,0-3.584-3.936A3.8,3.8,0,0,0,43.1-3.9,3.9,3.9,0,0,0,46.976.144,4.558,4.558,0,0,0,49.9-.9ZM46.768-6.928A2.579,2.579,0,0,1,49.216-4.48H44.272A2.608,2.608,0,0,1,46.768-6.928ZM54.368,0h1.12L58.7-7.808H57.456l-2.5,6.352L52.432-7.808H51.168Z" transform="translate(544 19)"/><rect class="e" width="142" height="3" transform="translate(370 38)"/><path class="f" d="M1.392,0H2.624V-11.2H1.392Zm3.84,0H6.4V-5.76a2.3,2.3,0,0,1,2.048-1.2,2.024,2.024,0,0,1,2.1,2.24V0h1.168V-5.056A2.717,2.717,0,0,0,8.88-7.936,2.813,2.813,0,0,0,6.4-6.544V-7.808H5.232Zm9.52-1.76c0,1.248.7,1.9,2.048,1.9a4.386,4.386,0,0,0,1.36-.208V-1.1a2.8,2.8,0,0,1-1.1.208c-.816,0-1.136-.336-1.136-1.168V-6.848h2.24v-.96H15.92v-2.416l-1.168.272v2.144H13.136v.96h1.616ZM26.128-.9l-.736-.784a3.191,3.191,0,0,1-2.144.8,2.845,2.845,0,0,1-2.784-2.768h6.128V-4a3.689,3.689,0,0,0-3.584-3.936A3.8,3.8,0,0,0,19.328-3.9,3.9,3.9,0,0,0,23.2.144,4.558,4.558,0,0,0,26.128-.9ZM22.992-6.928A2.579,2.579,0,0,1,25.44-4.48H20.5A2.608,2.608,0,0,1,22.992-6.928ZM31.856.1a3.077,3.077,0,0,0,2.5-1.152V.416c0,1.312-.752,2-2.176,2a5.25,5.25,0,0,1-2.5-.72l-.5.9a6.262,6.262,0,0,0,3.04.816c2.128,0,3.3-1.072,3.3-3.008V-7.808H34.368V-6.8A3.151,3.151,0,0,0,31.92-7.9a3.8,3.8,0,0,0-3.664,4A3.768,3.768,0,0,0,31.856.1Zm-2.448-4A2.787,2.787,0,0,1,32.144-6.88a2.8,2.8,0,0,1,2.208,1.056v3.856A2.687,2.687,0,0,1,32.144-.912,2.8,2.8,0,0,1,29.408-3.9ZM37.92,0h1.168V-5.344a2.226,2.226,0,0,1,2.1-1.584A2.919,2.919,0,0,1,42-6.784V-7.84a2.217,2.217,0,0,0-.736-.112,2.332,2.332,0,0,0-2.176,1.728V-7.808H37.92Zm7.7.144A3.352,3.352,0,0,0,48.1-.912V0h1.152V-5.184c0-1.776-1.088-2.752-3.024-2.752a6.689,6.689,0,0,0-2.944.752l.432.9A5.156,5.156,0,0,1,46.08-6.96,1.758,1.758,0,0,1,48.1-5.024v1.072a4.521,4.521,0,0,0-2.384-.608c-1.76,0-2.928.928-2.928,2.32C42.784-.832,43.952.144,45.616.144ZM43.9-2.272c0-.864.784-1.44,1.984-1.44a4.122,4.122,0,0,1,2.208.56v1.5a3.091,3.091,0,0,1-2.24.9C44.688-.752,43.9-1.36,43.9-2.272Zm8.4.512c0,1.248.7,1.9,2.048,1.9a4.386,4.386,0,0,0,1.36-.208V-1.1a2.8,2.8,0,0,1-1.1.208c-.816,0-1.136-.336-1.136-1.168V-6.848h2.24v-.96h-2.24v-2.416L52.3-9.952v2.144H50.688v.96H52.3Zm5.712-7.968a.83.83,0,0,0,.832-.848.847.847,0,0,0-.832-.832.85.85,0,0,0-.848.832A.834.834,0,0,0,58.016-9.728Zm.576,1.92H57.424V0h1.168ZM60.64-3.9A3.867,3.867,0,0,0,64.432.16,3.86,3.86,0,0,0,68.24-3.9a3.832,3.832,0,0,0-3.808-4.032A3.829,3.829,0,0,0,60.64-3.9ZM64.432-.88a2.753,2.753,0,0,1-2.64-3.008,2.777,2.777,0,0,1,2.64-3.024,2.789,2.789,0,0,1,2.656,3.024A2.774,2.774,0,0,1,64.432-.88ZM70.288,0h1.168V-5.76A2.3,2.3,0,0,1,73.5-6.96a2.024,2.024,0,0,1,2.1,2.24V0h1.168V-5.056a2.717,2.717,0,0,0-2.832-2.88,2.813,2.813,0,0,0-2.48,1.392V-7.808H70.288Z" transform="translate(402 19)"/><path class="d" d="M1.392,0H2.624V-11.2H1.392Zm3.84,0H6.4V-5.76a2.3,2.3,0,0,1,2.048-1.2,2.024,2.024,0,0,1,2.1,2.24V0h1.168V-5.056A2.717,2.717,0,0,0,8.88-7.936,2.813,2.813,0,0,0,6.4-6.544V-7.808H5.232Zm7.84-7.808v.96h1.744V0h1.168V-6.848h2.224v-.96H15.984V-9.5c0-.928.384-1.36,1.28-1.36a3.22,3.22,0,0,1,.944.144v-1.056a3.3,3.3,0,0,0-1.056-.144,2.143,2.143,0,0,0-2.336,2.4v1.712ZM19.744,0h1.168V-5.344a2.226,2.226,0,0,1,2.1-1.584,2.919,2.919,0,0,1,.816.144V-7.84a2.217,2.217,0,0,0-.736-.112,2.332,2.332,0,0,0-2.176,1.728V-7.808H19.744Zm7.7.144A3.352,3.352,0,0,0,29.92-.912V0h1.152V-5.184c0-1.776-1.088-2.752-3.024-2.752a6.689,6.689,0,0,0-2.944.752l.432.9A5.156,5.156,0,0,1,27.9-6.96,1.758,1.758,0,0,1,29.92-5.024v1.072a4.521,4.521,0,0,0-2.384-.608c-1.76,0-2.928.928-2.928,2.32C24.608-.832,25.776.144,27.44.144ZM25.728-2.272c0-.864.784-1.44,1.984-1.44a4.122,4.122,0,0,1,2.208.56v1.5a3.091,3.091,0,0,1-2.24.9C26.512-.752,25.728-1.36,25.728-2.272Zm6.96,1.264A4.451,4.451,0,0,0,35.856.144c1.728,0,3.04-1.056,3.04-2.416,0-1.152-.7-1.808-2.272-2.1l-1.312-.24c-1.008-.176-1.344-.48-1.344-1.12,0-.768.672-1.248,1.7-1.248a4.142,4.142,0,0,1,2.448.832l.576-.816a5.048,5.048,0,0,0-2.976-.976c-1.648,0-2.816.944-2.816,2.288,0,1.136.688,1.776,2.208,2.048l1.28.224c.992.192,1.408.528,1.408,1.168,0,.816-.832,1.408-1.968,1.408a4.072,4.072,0,0,1-2.512-.976ZM41.44-1.76c0,1.248.7,1.9,2.048,1.9a4.386,4.386,0,0,0,1.36-.208V-1.1a2.8,2.8,0,0,1-1.1.208c-.816,0-1.136-.336-1.136-1.168V-6.848h2.24v-.96h-2.24v-2.416l-1.168.272v2.144H39.824v.96H41.44ZM46.56,0h1.168V-5.344a2.226,2.226,0,0,1,2.1-1.584,2.919,2.919,0,0,1,.816.144V-7.84a2.217,2.217,0,0,0-.736-.112,2.332,2.332,0,0,0-2.176,1.728V-7.808H46.56ZM53.2-7.808H52.016v5.04a2.73,2.73,0,0,0,2.832,2.9,2.8,2.8,0,0,0,2.48-1.392V0H58.5V-7.808H57.328v5.776A2.318,2.318,0,0,1,55.28-.848,2.017,2.017,0,0,1,53.2-3.1Zm11.264,6.9A2.832,2.832,0,0,1,61.712-3.9,2.835,2.835,0,0,1,64.448-6.88a3.069,3.069,0,0,1,2.208.976l.752-.816A4.259,4.259,0,0,0,64.4-7.936,3.9,3.9,0,0,0,60.544-3.9,3.913,3.913,0,0,0,64.4.144,4.061,4.061,0,0,0,67.36-1.12l-.72-.72A2.876,2.876,0,0,1,64.464-.912Zm5.664-.848c0,1.248.7,1.9,2.048,1.9a4.386,4.386,0,0,0,1.36-.208V-1.1a2.8,2.8,0,0,1-1.1.208c-.816,0-1.136-.336-1.136-1.168V-6.848h2.24v-.96H71.3v-2.416l-1.168.272v2.144H68.512v.96h1.616Zm6.256-6.048H75.2v5.04a2.73,2.73,0,0,0,2.832,2.9,2.8,2.8,0,0,0,2.48-1.392V0H81.68V-7.808H80.512v5.776A2.318,2.318,0,0,1,78.464-.848,2.017,2.017,0,0,1,76.384-3.1ZM84.08,0h1.168V-5.344a2.226,2.226,0,0,1,2.1-1.584,2.919,2.919,0,0,1,.816.144V-7.84a2.217,2.217,0,0,0-.736-.112,2.332,2.332,0,0,0-2.176,1.728V-7.808H84.08ZM95.664-.9l-.736-.784a3.191,3.191,0,0,1-2.144.8A2.845,2.845,0,0,1,90-3.648h6.128V-4a3.689,3.689,0,0,0-3.584-3.936A3.8,3.8,0,0,0,88.864-3.9,3.9,3.9,0,0,0,92.736.144,4.558,4.558,0,0,0,95.664-.9ZM92.528-6.928A2.579,2.579,0,0,1,94.976-4.48H90.032A2.608,2.608,0,0,1,92.528-6.928Z" transform="translate(241 19)"/><path class="d" d="M6.624-.944A4.485,4.485,0,0,1,2.144-5.6a4.478,4.478,0,0,1,4.448-4.656A4.489,4.489,0,0,1,10-8.688l.816-.848a5.6,5.6,0,0,0-4.224-1.84A5.676,5.676,0,0,0,.9-5.6,5.676,5.676,0,0,0,6.592.176a5.632,5.632,0,0,0,4.192-1.84l-.8-.816A4.388,4.388,0,0,1,6.624-.944Zm7.36-10.736-1.168.24V0h1.168ZM16.032-3.9A3.867,3.867,0,0,0,19.824.16,3.86,3.86,0,0,0,23.632-3.9a3.832,3.832,0,0,0-3.808-4.032A3.829,3.829,0,0,0,16.032-3.9ZM19.824-.88a2.753,2.753,0,0,1-2.64-3.008,2.777,2.777,0,0,1,2.64-3.024A2.789,2.789,0,0,1,22.48-3.888,2.774,2.774,0,0,1,19.824-.88Zm6.992-6.928H25.632v5.04a2.73,2.73,0,0,0,2.832,2.9,2.8,2.8,0,0,0,2.48-1.392V0h1.168V-7.808H30.944v5.776A2.318,2.318,0,0,1,28.9-.848,2.017,2.017,0,0,1,26.816-3.1ZM40.256,0h1.168V-11.68l-1.168.24v4.624A3.18,3.18,0,0,0,37.824-7.9,3.8,3.8,0,0,0,34.16-3.888a3.768,3.768,0,0,0,3.6,4,3.077,3.077,0,0,0,2.5-1.152ZM35.312-3.9A2.787,2.787,0,0,1,38.048-6.88a2.8,2.8,0,0,1,2.208,1.056v3.872a2.674,2.674,0,0,1-2.208,1.04A2.8,2.8,0,0,1,35.312-3.9Z" transform="translate(134 19)"/><g transform="translate(757 24)"><rect class="g" width="16" height="16"/></g><g class="h" transform="translate(667 3)"><rect class="k" width="196" height="21"/><rect class="l" x="0.5" y="0.5" width="195" height="20"/></g><g transform="translate(603 3)"><rect class="c" width="64" height="21"/></g><g transform="translate(566 24)"><rect class="g" width="16" height="16"/></g><g class="h" transform="translate(544 3)"><rect class="k" width="59" height="21"/><rect class="l" x="0.5" y="0.5" width="58" height="20"/></g><g class="i" transform="translate(512 3)"><rect class="j" width="32" height="21"/></g><g transform="translate(480 3)"><rect class="j" width="32" height="21"/></g><g class="h" transform="translate(402 3)"><rect class="k" width="78" height="21"/><rect class="l" x="0.5" y="0.5" width="77" height="20"/></g><g transform="translate(370 3)"><rect class="j" width="32" height="21"/></g><g class="i" transform="translate(338 3)"><rect class="j" width="32" height="21"/></g><g transform="translate(282 24)"><rect class="g" width="16" height="16"/></g><g class="h" transform="translate(241 3)"><rect class="k" width="97" height="21"/><rect class="l" x="0.5" y="0.5" width="96" height="20"/></g><g transform="translate(177 3)"><rect class="c" width="64" height="21"/></g><g transform="translate(148 24)"><rect class="g" width="16" height="16"/></g><g class="h" transform="translate(134 3)"><rect class="k" width="43" height="21"/><rect class="l" x="0.5" y="0.5" width="42" height="20"/></g></g></g></g></svg>