<svg xmlns="http://www.w3.org/2000/svg" width="344" height="255" viewBox="0 0 344 255">
  <g id="Group_84" data-name="Group 84" transform="translate(-408 -2530)">
    <g id="Accordion_Exterior_sections_collapsed_Light_theme" data-name="Accordion / Exterior sections collapsed / Light theme" transform="translate(408 2666)">
      <rect id="Rectangle" width="344" height="1" transform="translate(0 118)" fill="#d2d2d2"/>
      <g id="UI_icon_-_Caret_large_right_light_theme" data-name="UI icon - Caret, large, right, light theme" transform="translate(311 82)">
        <path id="Icon" d="M5.314,15.922,4.165,14.771a.756.756,0,0,1,0-1.151L8.583,9.194,4.165,4.767a.756.756,0,0,1,0-1.151L5.314,2.466a.752.752,0,0,1,1.149,0l6.185,6.2a.756.756,0,0,1,0,1.151l-6.185,6.2A.825.825,0,0,1,5.314,15.922Z" transform="translate(-3.9 -2.2)" fill="#d2d2d2"/>
      </g>
      <path id="Path_1349" data-name="Path 1349" d="M1.42,0H6.36c4.24,0,7.38-2.98,7.38-6.98,0-4.04-3.16-7.02-7.38-7.02H1.42ZM6.4-12.12a5.073,5.073,0,0,1,5.18,5.14A5.064,5.064,0,0,1,6.4-1.88H3.52V-12.12ZM24.56-1.16,23.28-2.42a3.96,3.96,0,0,1-2.58.9,3.434,3.434,0,0,1-3.44-2.92H25.3v-.58a5.041,5.041,0,0,0-4.92-5.32,5.115,5.115,0,0,0-5.1,5.24A5.238,5.238,0,0,0,20.62.18,6.072,6.072,0,0,0,24.56-1.16Zm-4.22-7.5a3.149,3.149,0,0,1,2.98,2.72H17.28A3.126,3.126,0,0,1,20.34-8.66ZM30.08,0h1.9l4.4-10.18H34.24L31.06-2.56l-3.18-7.62h-2.2ZM46.04-1.16,44.76-2.42a3.96,3.96,0,0,1-2.58.9,3.434,3.434,0,0,1-3.44-2.92h8.04v-.58a5.041,5.041,0,0,0-4.92-5.32,5.115,5.115,0,0,0-5.1,5.24A5.238,5.238,0,0,0,42.1.18,6.072,6.072,0,0,0,46.04-1.16Zm-4.22-7.5A3.149,3.149,0,0,1,44.8-5.94H38.76A3.126,3.126,0,0,1,41.82-8.66Zm8.86-5.78-2,.44V0h2Zm1.9,9.34A5.246,5.246,0,0,0,57.88.2a5.229,5.229,0,0,0,5.28-5.3,5.225,5.225,0,0,0-5.28-5.28A5.242,5.242,0,0,0,52.58-5.1Zm5.3,3.54A3.406,3.406,0,0,1,54.54-5.1a3.4,3.4,0,0,1,3.34-3.52A3.4,3.4,0,0,1,61.2-5.1,3.416,3.416,0,0,1,57.88-1.56Zm7.18,5.7h2V-.84a5.142,5.142,0,0,0,3.06,1A5.149,5.149,0,0,0,75.3-5.1a5.136,5.136,0,0,0-5.14-5.24A4.645,4.645,0,0,0,67.04-9.2v-.98H65.06ZM69.9-8.6a3.421,3.421,0,0,1,3.44,3.52,3.392,3.392,0,0,1-3.44,3.5,3.774,3.774,0,0,1-2.84-1.2v-4.6A3.651,3.651,0,0,1,69.9-8.6ZM86.06-1.16,84.78-2.42a3.96,3.96,0,0,1-2.58.9,3.434,3.434,0,0,1-3.44-2.92H86.8v-.58a5.041,5.041,0,0,0-4.92-5.32,5.115,5.115,0,0,0-5.1,5.24A5.238,5.238,0,0,0,82.12.18,6.072,6.072,0,0,0,86.06-1.16Zm-4.22-7.5a3.149,3.149,0,0,1,2.98,2.72H78.78A3.126,3.126,0,0,1,81.84-8.66ZM88.7,0h2V-6.8a2.779,2.779,0,0,1,2.64-1.86,3.425,3.425,0,0,1,1.18.22v-1.8a2.541,2.541,0,0,0-1.02-.16,3.186,3.186,0,0,0-2.8,1.52v-1.3h-2Zm12.92-2.52c0,1.76,1.06,2.7,3.04,2.7a6.624,6.624,0,0,0,1.9-.3V-1.8a3.929,3.929,0,0,1-1.46.24c-1.08,0-1.5-.38-1.5-1.42V-8.5h3v-1.68h-3v-3.08l-1.98.48v2.6H99.46V-8.5h2.16ZM107.4-5.1A5.246,5.246,0,0,0,112.7.2a5.229,5.229,0,0,0,5.28-5.3,5.225,5.225,0,0,0-5.28-5.28A5.242,5.242,0,0,0,107.4-5.1Zm5.3,3.54a3.406,3.406,0,0,1-3.34-3.54,3.4,3.4,0,0,1,3.34-3.52,3.4,3.4,0,0,1,3.32,3.52A3.416,3.416,0,0,1,112.7-1.56Zm6.76-3.54a5.246,5.246,0,0,0,5.3,5.3,5.229,5.229,0,0,0,5.28-5.3,5.225,5.225,0,0,0-5.28-5.28A5.242,5.242,0,0,0,119.46-5.1Zm5.3,3.54a3.406,3.406,0,0,1-3.34-3.54,3.4,3.4,0,0,1,3.34-3.52,3.4,3.4,0,0,1,3.32,3.52A3.416,3.416,0,0,1,124.76-1.56Zm9.18-12.88-2,.44V0h2Zm1.4,13.12A6.714,6.714,0,0,0,139.8.18c2.42,0,4.26-1.38,4.26-3.2,0-1.58-1.06-2.54-3.08-2.84l-1.84-.26c-1.2-.18-1.68-.54-1.68-1.28,0-.82.82-1.38,2.04-1.38a5.659,5.659,0,0,1,3.22,1.06l1.02-1.32a6.981,6.981,0,0,0-4.1-1.3c-2.38,0-3.98,1.24-3.98,3.08,0,1.58,1.02,2.52,3.04,2.82l1.84.26c1.12.16,1.64.58,1.64,1.3,0,.9-1,1.52-2.44,1.52a5.335,5.335,0,0,1-3.32-1.28Z" transform="translate(24 96)" fill="#151515"/>
      <rect id="Rectangle-2" data-name="Rectangle" width="344" height="1" transform="translate(0 59)" fill="#d2d2d2"/>
      <g id="UI_icon_-_Caret_large_right_light_theme-2" data-name="UI icon - Caret, large, right, light theme" transform="translate(311 23)">
        <path id="Icon-2" data-name="Icon" d="M5.314,15.922,4.165,14.771a.756.756,0,0,1,0-1.151L8.583,9.194,4.165,4.767a.756.756,0,0,1,0-1.151L5.314,2.466a.752.752,0,0,1,1.149,0l6.185,6.2a.756.756,0,0,1,0,1.151l-6.185,6.2A.825.825,0,0,1,5.314,15.922Z" transform="translate(-3.9 -2.2)" fill="#151515"/>
      </g>
      <path id="Path_1348" data-name="Path 1348" d="M.16-2.32A8.433,8.433,0,0,0,6.16.2c3.34,0,5.58-1.72,5.58-4.3,0-2.18-1.34-3.4-4.3-3.88L5.18-8.34c-1.8-.3-2.5-.84-2.5-1.98,0-1.24,1.22-2.08,3.04-2.08a7.437,7.437,0,0,1,4.58,1.72l1.16-1.6a9.393,9.393,0,0,0-5.64-1.9C2.7-14.18.66-12.6.66-10.16c0,2.02,1.26,3.22,3.82,3.64l2.34.38c2.04.34,2.84.96,2.84,2.2,0,1.38-1.38,2.34-3.4,2.34A6.757,6.757,0,0,1,1.44-3.8ZM15.4-10.18h-2V-3.8a3.8,3.8,0,0,0,3.96,4,4.16,4.16,0,0,0,3.06-1.22V0h2V-10.18h-2v7.3a2.86,2.86,0,0,1-2.5,1.34,2.385,2.385,0,0,1-2.52-2.6ZM24.78,4.14h2V-.84a5.142,5.142,0,0,0,3.06,1A5.149,5.149,0,0,0,35.02-5.1a5.136,5.136,0,0,0-5.14-5.24A4.645,4.645,0,0,0,26.76-9.2v-.98H24.78ZM29.62-8.6a3.421,3.421,0,0,1,3.44,3.52,3.392,3.392,0,0,1-3.44,3.5,3.774,3.774,0,0,1-2.84-1.2v-4.6A3.651,3.651,0,0,1,29.62-8.6Zm7.3,12.74h2V-.84a5.142,5.142,0,0,0,3.06,1A5.149,5.149,0,0,0,47.16-5.1a5.136,5.136,0,0,0-5.14-5.24A4.645,4.645,0,0,0,38.9-9.2v-.98H36.92ZM41.76-8.6A3.421,3.421,0,0,1,45.2-5.08a3.392,3.392,0,0,1-3.44,3.5,3.774,3.774,0,0,1-2.84-1.2v-4.6A3.651,3.651,0,0,1,41.76-8.6Zm6.88,3.5A5.246,5.246,0,0,0,53.94.2a5.229,5.229,0,0,0,5.28-5.3,5.225,5.225,0,0,0-5.28-5.28A5.242,5.242,0,0,0,48.64-5.1Zm5.3,3.54A3.406,3.406,0,0,1,50.6-5.1a3.4,3.4,0,0,1,3.34-3.52A3.4,3.4,0,0,1,57.26-5.1,3.416,3.416,0,0,1,53.94-1.56ZM61.12,0h2V-6.8a2.779,2.779,0,0,1,2.64-1.86,3.426,3.426,0,0,1,1.18.22v-1.8a2.541,2.541,0,0,0-1.02-.16,3.186,3.186,0,0,0-2.8,1.52v-1.3h-2Zm8.82-2.52c0,1.76,1.06,2.7,3.04,2.7a6.624,6.624,0,0,0,1.9-.3V-1.8a3.929,3.929,0,0,1-1.46.24c-1.08,0-1.5-.38-1.5-1.42V-8.5h3v-1.68h-3v-3.08l-1.98.48v2.6H67.78V-8.5h2.16ZM84.42,0l2.3-7.46L89,0h1.92l2.86-10.18H91.9L89.92-2.7,87.6-10.18H85.88L83.54-2.7l-1.96-7.48H79.64L82.48,0ZM94.54-5.1A5.246,5.246,0,0,0,99.84.2a5.229,5.229,0,0,0,5.28-5.3,5.225,5.225,0,0,0-5.28-5.28A5.242,5.242,0,0,0,94.54-5.1Zm5.3,3.54A3.406,3.406,0,0,1,96.5-5.1a3.4,3.4,0,0,1,3.34-3.52,3.4,3.4,0,0,1,3.32,3.52A3.416,3.416,0,0,1,99.84-1.56ZM107.02,0h2V-6.8a2.779,2.779,0,0,1,2.64-1.86,3.425,3.425,0,0,1,1.18.22v-1.8a2.541,2.541,0,0,0-1.02-.16,3.186,3.186,0,0,0-2.8,1.52v-1.3h-2Zm7.42,0h2V-4.8L121.36,0H124l-5.52-5.4,5.24-4.78h-2.34L116.44-5.7v-8.74l-2,.44Zm12.48-14.44-2,.44V0h2Zm1.9,9.34a5.246,5.246,0,0,0,5.3,5.3,5.229,5.229,0,0,0,5.28-5.3,5.225,5.225,0,0,0-5.28-5.28A5.242,5.242,0,0,0,128.82-5.1Zm5.3,3.54a3.406,3.406,0,0,1-3.34-3.54,3.4,3.4,0,0,1,3.34-3.52,3.4,3.4,0,0,1,3.32,3.52A3.416,3.416,0,0,1,134.12-1.56ZM144.62.18a4.829,4.829,0,0,0,3.16-1.06V0h1.96V-6.74c0-2.34-1.52-3.64-4.16-3.64a9.528,9.528,0,0,0-4.18,1.04l.74,1.5a7.236,7.236,0,0,1,3.16-.86c1.62,0,2.48.72,2.48,2.16v1.08A7.187,7.187,0,0,0,145-6.02c-2.56,0-4.12,1.18-4.12,3.1C140.88-1.08,142.4.18,144.62.18ZM142.8-2.96c0-1.02.9-1.68,2.36-1.68a5.287,5.287,0,0,1,2.62.62v1.76a3.915,3.915,0,0,1-2.7.96C143.72-1.3,142.8-1.98,142.8-2.96ZM159.84,0h1.98V-14.44l-2,.44v4.66a5.187,5.187,0,0,0-3.06-1,5.144,5.144,0,0,0-5.18,5.24A5.141,5.141,0,0,0,156.72.16a4.808,4.808,0,0,0,3.12-1.12Zm-6.3-5.12A3.408,3.408,0,0,1,157-8.62a3.722,3.722,0,0,1,2.82,1.2V-2.8A3.668,3.668,0,0,1,157-1.58,3.442,3.442,0,0,1,153.54-5.12Zm9.68,3.8a6.714,6.714,0,0,0,4.46,1.5c2.42,0,4.26-1.38,4.26-3.2,0-1.58-1.06-2.54-3.08-2.84l-1.84-.26c-1.2-.18-1.68-.54-1.68-1.28,0-.82.82-1.38,2.04-1.38a5.659,5.659,0,0,1,3.22,1.06l1.02-1.32a6.981,6.981,0,0,0-4.1-1.3c-2.38,0-3.98,1.24-3.98,3.08,0,1.58,1.02,2.52,3.04,2.82l1.84.26c1.12.16,1.64.58,1.64,1.3,0,.9-1,1.52-2.44,1.52a5.335,5.335,0,0,1-3.32-1.28Z" transform="translate(24 37)" fill="#151515"/>
      <rect id="Rectangle-3" data-name="Rectangle" width="344" height="1" fill="#d2d2d2"/>
    </g>
    <g id="Group_74" data-name="Group 74" transform="translate(-66 872)">
      <g id="Group_56" data-name="Group 56" transform="translate(158 -18)">
        <rect id="Rectangle_12" data-name="Rectangle 12" width="72" height="72" transform="translate(588 1676)" fill="none" opacity="0.5"/>
        <g id="Transportation_-_Speedometer" data-name="Transportation - Speedometer" transform="translate(594 1682)">
          <path id="Path_1179" data-name="Path 1179" d="M33.36,3.36a30.078,30.078,0,0,0-30,30.073c1.639,39.913,58.361,39.892,60,0a30.078,30.078,0,0,0-30-30.073Zm0,57.517A27.513,27.513,0,0,1,5.921,33.433c1.5-36.5,53.381-36.482,54.877,0A27.513,27.513,0,0,1,33.36,60.939Z" transform="translate(-3.36 -3.36)" fill="#e00"/>
          <path id="Path_1180" data-name="Path 1180" d="M17.752,9.564c1.168,1.171,3.012-.637,1.8-1.808A1.277,1.277,0,0,0,17.752,9.564Z" transform="translate(11.346 0.871)" fill="#e00"/>
          <path id="Path_1181" data-name="Path 1181" d="M12.554,12.567c1.209-1.171-.656-3-1.8-1.808a1.277,1.277,0,0,0,1.8,1.808Z" transform="translate(4.003 4.031)" fill="#e00"/>
          <path id="Path_1182" data-name="Path 1182" d="M9.1,17.451a1.294,1.294,0,0,0-.984,2.383A1.294,1.294,0,0,0,9.1,17.451Z" transform="translate(0.899 11.431)" fill="#e00"/>
          <path id="Path_1183" data-name="Path 1183" d="M29.828,18.119a1.291,1.291,0,0,0-2.377.986,1.291,1.291,0,0,0,2.377-.986Z" transform="translate(21.852 11.461)" fill="#e00"/>
          <path id="Path_1184" data-name="Path 1184" d="M33.9,23.38H15.454a4.355,4.355,0,0,0,0,8.71H33.9a4.355,4.355,0,0,0,0-8.71Zm0,6.163H15.454a1.808,1.808,0,0,1,0-3.595H33.9a1.808,1.808,0,0,1,0,3.595Z" transform="translate(4.771 17.745)" fill="#e00"/>
          <path id="Path_1185" data-name="Path 1185" d="M34.663,10.749,24.417,21.02a6.17,6.17,0,1,0,1.824,1.828L36.486,12.577C37.614,11.406,35.81,9.6,34.663,10.749ZM21.1,29.791a3.636,3.636,0,1,1,3.627-3.636A3.631,3.631,0,0,1,21.1,29.791Z" transform="translate(8.78 4.041)" fill="#e00"/>
        </g>
      </g>
      <g id="Group_55" data-name="Group 55" transform="translate(72 -18)">
        <rect id="Rectangle_11" data-name="Rectangle 11" width="72" height="72" transform="translate(538 1676)" fill="none" opacity="0.5"/>
        <g id="Software_and_technologies_-_Hybrid_cloud_infrastructure" data-name="Software and technologies - Hybrid cloud infrastructure" transform="translate(538 1683)">
          <path id="Path_746" data-name="Path 746" d="M20.979,53.823H64.228a1.853,1.853,0,0,0,.643-.124,12.629,12.629,0,0,0,.89-24.713h0a22.539,22.539,0,0,0-42.7-10.058A17.6,17.6,0,1,0,20.979,54Zm0-32.127a14.655,14.655,0,0,1,2.694.272,1.582,1.582,0,0,0,1.705-.89A19.449,19.449,0,0,1,62.7,28.813c0,.321,0,.643,0,.989v.247a1.557,1.557,0,0,0,1.384,1.631,9.564,9.564,0,0,1-1.013,19.054H21.054a14.531,14.531,0,1,1,0-29.063Z" transform="translate(-3.378 -6.452)" fill="#151515"/>
          <path id="Path_747" data-name="Path 747" d="M70.167,28.38H5.912a1.532,1.532,0,1,0,0,3.064H70.167a1.532,1.532,0,0,0,0-3.064Z" transform="translate(-1.903 25.812)" fill="#151515"/>
        </g>
      </g>
      <g id="Group_57" data-name="Group 57" transform="translate(68 -18)">
        <rect id="Rectangle_10" data-name="Rectangle 10" width="72" height="72" transform="translate(406 1676)" fill="none" opacity="0.5"/>
        <g id="Diagrams_-_Simplify" data-name="Diagrams - Simplify" transform="translate(410 1682)">
          <path id="Diagrams_-_Simplify-2" data-name="Diagrams - Simplify" d="M68.352,34.992a1.291,1.291,0,0,0-.423-1.033l-7.042-7.042c-1.314-1.361-3.45.751-2.066,2.066l4.53,4.554H48.119A17.275,17.275,0,0,1,31.853,21.965a8.473,8.473,0,1,0-3.028.352,20.233,20.233,0,0,0,8.825,11.22H21.22a8.5,8.5,0,1,0,0,2.934h16.43a20.162,20.162,0,0,0-8.825,11.2,8.473,8.473,0,1,0,3.028.352A17.228,17.228,0,0,1,48.119,36.47H63.376L58.846,41a1.461,1.461,0,0,0,2.066,2.066l7.042-7.042a1.62,1.62,0,0,0,.4-1.033Zm-44.6-21.125a5.586,5.586,0,0,1,11.149,0,5.586,5.586,0,0,1-11.149,0Zm11.173,42.25a5.586,5.586,0,0,1-11.149,0,5.586,5.586,0,0,1,11.149,0ZM12.911,40.578a5.586,5.586,0,0,1,0-11.149,5.586,5.586,0,0,1,0,11.149Z" transform="translate(-4.354 -5.387)" fill="#e00"/>
        </g>
      </g>
    </g>
  </g>
</svg>
