<svg xmlns="http://www.w3.org/2000/svg" width="340" height="200" viewBox="0 0 340 200">
  <g id="Announcement" transform="translate(-424 -580)">
    <rect id="Rectangle" width="340" height="200" transform="translate(424 580)" fill="none"/>
    <rect id="Rectangle-2" data-name="Rectangle" width="340" height="77" transform="translate(424 642)" fill="#fff"/>
    <path id="Path" d="M22.84,10.64v-.5H17.816v1.088h3.776a4.076,4.076,0,0,1-4.1,3.84A4.486,4.486,0,0,1,13.08,10.4,4.472,4.472,0,0,1,17.5,5.744,4.645,4.645,0,0,1,21.032,7.3l.832-.832A5.749,5.749,0,0,0,17.5,4.624,5.669,5.669,0,0,0,11.832,10.4a5.682,5.682,0,0,0,5.68,5.776A5.345,5.345,0,0,0,22.84,10.64ZM31.368,15.1l-.736-.784a3.191,3.191,0,0,1-2.144.8A2.845,2.845,0,0,1,25.7,12.352h6.128V12a3.689,3.689,0,0,0-3.584-3.936,3.8,3.8,0,0,0-3.68,4.032,3.9,3.9,0,0,0,3.872,4.048A4.558,4.558,0,0,0,31.368,15.1ZM28.232,9.072A2.579,2.579,0,0,1,30.68,11.52H25.736A2.608,2.608,0,0,1,28.232,9.072ZM34.52,14.24c0,1.248.7,1.9,2.048,1.9a4.386,4.386,0,0,0,1.36-.208V14.9a2.8,2.8,0,0,1-1.1.208c-.816,0-1.136-.336-1.136-1.168V9.152h2.24v-.96h-2.24V5.776l-1.168.272V8.192H32.9v.96H34.52ZM44.9,17.248c-.288.7-.656.992-1.248.992a2.719,2.719,0,0,1-.64-.064v1.04a2.679,2.679,0,0,0,.752.112c1.152,0,1.744-.464,2.24-1.728L49.88,8.192h-1.3l-2.512,6.416L43.7,8.192h-1.3l3.008,7.792Zm5.84-5.152a3.809,3.809,0,1,0,7.6,0,3.807,3.807,0,1,0-7.6,0Zm3.792,3.024a2.753,2.753,0,0,1-2.64-3.008,2.671,2.671,0,1,1,5.3,0A2.774,2.774,0,0,1,54.536,15.12Zm6.992-6.928H60.344v5.04a2.73,2.73,0,0,0,2.832,2.9,2.8,2.8,0,0,0,2.48-1.392V16h1.168V8.192H65.656v5.776a2.318,2.318,0,0,1-2.048,1.184,2.017,2.017,0,0,1-2.08-2.256ZM69.224,16h1.168V10.656a2.226,2.226,0,0,1,2.1-1.584,2.919,2.919,0,0,1,.816.144V8.16a2.217,2.217,0,0,0-.736-.112,2.332,2.332,0,0,0-2.176,1.728V8.192H69.224Zm8.608-7.808v.96h1.744V16h1.168V9.152h2.224v-.96H80.744V6.5c0-.928.384-1.36,1.28-1.36a3.22,3.22,0,0,1,.944.144V4.224a3.3,3.3,0,0,0-1.056-.144,2.143,2.143,0,0,0-2.336,2.4V8.192ZM84.5,16h1.168V10.656a2.226,2.226,0,0,1,2.1-1.584,2.919,2.919,0,0,1,.816.144V8.16a2.217,2.217,0,0,0-.736-.112,2.332,2.332,0,0,0-2.176,1.728V8.192H84.5Zm11.584-.9-.736-.784a3.191,3.191,0,0,1-2.144.8,2.845,2.845,0,0,1-2.784-2.768h6.128V12a3.689,3.689,0,0,0-3.584-3.936,3.8,3.8,0,0,0-3.68,4.032,3.9,3.9,0,0,0,3.872,4.048A4.558,4.558,0,0,0,96.088,15.1ZM92.952,9.072A2.579,2.579,0,0,1,95.4,11.52H90.456A2.608,2.608,0,0,1,92.952,9.072ZM105.016,15.1l-.736-.784a3.191,3.191,0,0,1-2.144.8,2.845,2.845,0,0,1-2.784-2.768h6.128V12A3.689,3.689,0,0,0,101.9,8.064a3.8,3.8,0,0,0-3.68,4.032,3.9,3.9,0,0,0,3.872,4.048A4.558,4.558,0,0,0,105.016,15.1ZM101.88,9.072a2.579,2.579,0,0,1,2.448,2.448H99.384A2.608,2.608,0,0,1,101.88,9.072Zm9.328,10.272h1.168v-4.32a3.166,3.166,0,0,0,2.448,1.088,3.8,3.8,0,0,0,3.664-4.016,3.768,3.768,0,0,0-3.6-4,3.08,3.08,0,0,0-2.528,1.216V8.192h-1.152ZM114.6,9.12a2.8,2.8,0,0,1,2.736,2.992A2.8,2.8,0,0,1,114.6,15.1a2.744,2.744,0,0,1-2.224-1.088V10.192A2.666,2.666,0,0,1,114.6,9.12Zm8.432,7.024a3.352,3.352,0,0,0,2.48-1.056V16h1.152V10.816c0-1.776-1.088-2.752-3.024-2.752a6.689,6.689,0,0,0-2.944.752l.432.9A5.156,5.156,0,0,1,123.5,9.04a1.758,1.758,0,0,1,2.016,1.936v1.072a4.521,4.521,0,0,0-2.384-.608c-1.76,0-2.928.928-2.928,2.32C120.2,15.168,121.368,16.144,123.032,16.144Zm-1.712-2.416c0-.864.784-1.44,1.984-1.44a4.122,4.122,0,0,1,2.208.56v1.5a3.091,3.091,0,0,1-2.24.9C122.1,15.248,121.32,14.64,121.32,13.728Zm6.96,1.264a4.451,4.451,0,0,0,3.168,1.152c1.728,0,3.04-1.056,3.04-2.416,0-1.152-.7-1.808-2.272-2.1l-1.312-.24c-1.008-.176-1.344-.48-1.344-1.12,0-.768.672-1.248,1.7-1.248a4.142,4.142,0,0,1,2.448.832l.576-.816a5.048,5.048,0,0,0-2.976-.976c-1.648,0-2.816.944-2.816,2.288,0,1.136.688,1.776,2.208,2.048l1.28.224c.992.192,1.408.528,1.408,1.168,0,.816-.832,1.408-1.968,1.408a4.072,4.072,0,0,1-2.512-.976Zm7.36,0a4.451,4.451,0,0,0,3.168,1.152c1.728,0,3.04-1.056,3.04-2.416,0-1.152-.7-1.808-2.272-2.1l-1.312-.24c-1.008-.176-1.344-.48-1.344-1.12,0-.768.672-1.248,1.7-1.248a4.142,4.142,0,0,1,2.448.832l.576-.816a5.048,5.048,0,0,0-2.976-.976c-1.648,0-2.816.944-2.816,2.288,0,1.136.688,1.776,2.208,2.048l1.28.224c.992.192,1.408.528,1.408,1.168,0,.816-.832,1.408-1.968,1.408a4.072,4.072,0,0,1-2.512-.976Zm12.64-.752c0,1.248.7,1.9,2.048,1.9a4.386,4.386,0,0,0,1.36-.208V14.9a2.8,2.8,0,0,1-1.1.208c-.816,0-1.136-.336-1.136-1.168V9.152h2.24v-.96h-2.24V5.776l-1.168.272V8.192h-1.616v.96h1.616Zm4.576-2.144a3.809,3.809,0,1,0,7.6,0,3.807,3.807,0,1,0-7.6,0Zm3.792,3.024a2.753,2.753,0,0,1-2.64-3.008,2.671,2.671,0,1,1,5.3,0A2.774,2.774,0,0,1,156.648,15.12ZM165.88,12.1a3.809,3.809,0,1,0,7.6,0,3.807,3.807,0,1,0-7.6,0Zm3.792,3.024a2.753,2.753,0,0,1-2.64-3.008,2.671,2.671,0,1,1,5.3,0A2.774,2.774,0,0,1,169.672,15.12Zm6.992-6.928H175.48v5.04a2.73,2.73,0,0,0,2.832,2.9,2.8,2.8,0,0,0,2.48-1.392V16h1.168V8.192h-1.168v5.776a2.318,2.318,0,0,1-2.048,1.184,2.017,2.017,0,0,1-2.08-2.256ZM184.36,16h1.168V10.656a2.226,2.226,0,0,1,2.1-1.584,2.919,2.919,0,0,1,.816.144V8.16a2.217,2.217,0,0,0-.736-.112,2.332,2.332,0,0,0-2.176,1.728V8.192H184.36Zm9.952-9.728a.83.83,0,0,0,.832-.848.84.84,0,0,0-1.68,0A.834.834,0,0,0,194.312,6.272Zm.576,1.92H193.72V16h1.168Zm2.4,7.808h1.168V10.192a2.14,2.14,0,0,1,1.9-1.152,1.94,1.94,0,0,1,1.936,2.208V16h1.168V10.96a3.238,3.238,0,0,0-.064-.688,2.173,2.173,0,0,1,1.952-1.232c1.184,0,1.92.848,1.92,2.208V16h1.168V10.96a2.657,2.657,0,0,0-2.656-2.9,2.885,2.885,0,0,0-2.608,1.52,2.566,2.566,0,0,0-2.4-1.52,2.674,2.674,0,0,0-2.32,1.344V8.192h-1.168Zm13.52,0h1.168V10.192a2.14,2.14,0,0,1,1.9-1.152,1.94,1.94,0,0,1,1.936,2.208V16h1.168V10.96a3.238,3.238,0,0,0-.064-.688,2.173,2.173,0,0,1,1.952-1.232c1.184,0,1.92.848,1.92,2.208V16h1.168V10.96a2.657,2.657,0,0,0-2.656-2.9,2.885,2.885,0,0,0-2.608,1.52,2.566,2.566,0,0,0-2.4-1.52,2.674,2.674,0,0,0-2.32,1.344V8.192h-1.168Zm19.968-.9-.736-.784a3.191,3.191,0,0,1-2.144.8,2.845,2.845,0,0,1-2.784-2.768h6.128V12a3.689,3.689,0,0,0-3.584-3.936,3.8,3.8,0,0,0-3.68,4.032,3.9,3.9,0,0,0,3.872,4.048A4.558,4.558,0,0,0,230.776,15.1ZM227.64,9.072a2.579,2.579,0,0,1,2.448,2.448h-4.944A2.608,2.608,0,0,1,227.64,9.072ZM233.24,16h1.168V10.656a2.226,2.226,0,0,1,2.1-1.584,2.919,2.919,0,0,1,.816.144V8.16a2.217,2.217,0,0,0-.736-.112,2.332,2.332,0,0,0-2.176,1.728V8.192H233.24Zm4.784-1.008a4.451,4.451,0,0,0,3.168,1.152c1.728,0,3.04-1.056,3.04-2.416,0-1.152-.7-1.808-2.272-2.1l-1.312-.24c-1.008-.176-1.344-.48-1.344-1.12,0-.768.672-1.248,1.7-1.248a4.142,4.142,0,0,1,2.448.832l.576-.816a5.048,5.048,0,0,0-2.976-.976c-1.648,0-2.816.944-2.816,2.288,0,1.136.688,1.776,2.208,2.048l1.28.224c.992.192,1.408.528,1.408,1.168,0,.816-.832,1.408-1.968,1.408a4.072,4.072,0,0,1-2.512-.976Zm8.576-8.72a.83.83,0,0,0,.832-.848.84.84,0,0,0-1.68,0A.834.834,0,0,0,246.6,6.272Zm.576,1.92h-1.168V16h1.168ZM251.816,16h1.12l3.216-7.808H254.9l-2.5,6.352L249.88,8.192h-1.264Zm11.984-.9-.736-.784a3.19,3.19,0,0,1-2.144.8,2.845,2.845,0,0,1-2.784-2.768h6.128V12a3.689,3.689,0,0,0-3.584-3.936A3.8,3.8,0,0,0,257,12.1a3.9,3.9,0,0,0,3.872,4.048A4.558,4.558,0,0,0,263.8,15.1Zm-3.136-6.032a2.579,2.579,0,0,1,2.448,2.448h-4.944A2.608,2.608,0,0,1,260.664,9.072ZM97.52,40h1.12l3.216-7.808h-1.248l-2.5,6.352-2.528-6.352H94.32Zm6.368-9.728a.83.83,0,0,0,.832-.848.84.84,0,0,0-1.68,0A.834.834,0,0,0,103.888,30.272Zm.576,1.92H103.3V40h1.168Zm2.4,7.808h1.168V34.656a2.226,2.226,0,0,1,2.1-1.584,2.919,2.919,0,0,1,.816.144V32.16a2.217,2.217,0,0,0-.736-.112,2.332,2.332,0,0,0-2.176,1.728V32.192h-1.168Zm6.592-1.76c0,1.248.7,1.9,2.048,1.9a4.386,4.386,0,0,0,1.36-.208V38.9a2.8,2.8,0,0,1-1.1.208c-.816,0-1.136-.336-1.136-1.168V33.152h2.24v-.96h-2.24V29.776l-1.168.272v2.144H111.84v.96h1.616Zm6.256-6.048h-1.184v5.04a2.73,2.73,0,0,0,2.832,2.9,2.8,2.8,0,0,0,2.48-1.392V40h1.168V32.192H123.84v5.776a2.318,2.318,0,0,1-2.048,1.184,2.017,2.017,0,0,1-2.08-2.256Zm10.112,7.952a3.352,3.352,0,0,0,2.48-1.056V40h1.152V34.816c0-1.776-1.088-2.752-3.024-2.752a6.689,6.689,0,0,0-2.944.752l.432.9a5.156,5.156,0,0,1,2.368-.672,1.758,1.758,0,0,1,2.016,1.936v1.072a4.521,4.521,0,0,0-2.384-.608c-1.76,0-2.928.928-2.928,2.32C126.992,39.168,128.16,40.144,129.824,40.144Zm-1.712-2.416c0-.864.784-1.44,1.984-1.44a4.122,4.122,0,0,1,2.208.56v1.5a3.091,3.091,0,0,1-2.24.9C128.9,39.248,128.112,38.64,128.112,37.728Zm8.88-9.408-1.168.24V40h1.168ZM149.568,39.1l-.736-.784a3.191,3.191,0,0,1-2.144.8,2.845,2.845,0,0,1-2.784-2.768h6.128V36a3.689,3.689,0,0,0-3.584-3.936,3.8,3.8,0,0,0-3.68,4.032,3.9,3.9,0,0,0,3.872,4.048A4.558,4.558,0,0,0,149.568,39.1Zm-3.136-6.032a2.579,2.579,0,0,1,2.448,2.448h-4.944A2.608,2.608,0,0,1,146.432,33.072Zm7.6,6.928h1.12l3.216-7.808H157.12l-2.5,6.352L152.1,32.192h-1.264Zm11.984-.9-.736-.784a3.191,3.191,0,0,1-2.144.8,2.845,2.845,0,0,1-2.784-2.768h6.128V36a3.689,3.689,0,0,0-3.584-3.936,3.8,3.8,0,0,0-3.68,4.032,3.9,3.9,0,0,0,3.872,4.048A4.558,4.558,0,0,0,166.016,39.1Zm-3.136-6.032a2.579,2.579,0,0,1,2.448,2.448h-4.944A2.608,2.608,0,0,1,162.88,33.072ZM168.48,40h1.168V34.24a2.3,2.3,0,0,1,2.048-1.2,2.024,2.024,0,0,1,2.1,2.24V40h1.168V34.944a2.717,2.717,0,0,0-2.832-2.88,2.813,2.813,0,0,0-2.48,1.392V32.192H168.48ZM178,38.24c0,1.248.7,1.9,2.048,1.9a4.386,4.386,0,0,0,1.36-.208V38.9a2.8,2.8,0,0,1-1.1.208c-.816,0-1.136-.336-1.136-1.168V33.152h2.24v-.96h-2.24V29.776L178,30.048v2.144h-1.616v.96H178Z" transform="translate(456 658)" fill="#06c"/>
  </g>
</svg>
