<svg width="418" height="232" viewBox="0 0 418 232" fill="none" xmlns="http://www.w3.org/2000/svg">
<rect x="0.5" y="144.5" width="417" height="55" fill="white"/>
<rect x="0.5" y="144.5" width="417" height="55" stroke="#C7C7C7"/>
<g clip-path="url(#clip0_59_3138)">
<path d="M31.9998 176.395C31.8098 176.395 31.6148 176.32 31.4698 176.175L24.6448 169.355C24.4498 169.16 24.4498 168.845 24.6448 168.65C24.8398 168.455 25.1548 168.455 25.3498 168.65L31.9948 175.295L38.6398 168.65C38.8348 168.455 39.1498 168.455 39.3448 168.65C39.5398 168.845 39.5398 169.16 39.3448 169.355L32.5198 176.18C32.3748 176.325 32.1798 176.4 31.9898 176.4L31.9998 176.395Z" fill="#151515"/>
</g>
<path d="M51.264 176.336H53.488C54.16 176.336 54.768 176.165 55.312 175.824C55.856 175.472 56.288 174.997 56.608 174.4C56.928 173.803 57.088 173.136 57.088 172.4C57.088 171.653 56.928 170.987 56.608 170.4C56.288 169.803 55.856 169.333 55.312 168.992C54.768 168.64 54.16 168.464 53.488 168.464H51.264V176.336ZM49.344 178V166.8H53.44C54.2507 166.8 54.9973 166.944 55.68 167.232C56.3627 167.52 56.9547 167.92 57.456 168.432C57.968 168.933 58.3627 169.525 58.64 170.208C58.9173 170.88 59.056 171.611 59.056 172.4C59.056 173.189 58.9173 173.925 58.64 174.608C58.3627 175.28 57.968 175.872 57.456 176.384C56.9547 176.885 56.3627 177.28 55.68 177.568C54.9973 177.856 54.2507 178 53.44 178H49.344ZM60.979 178V169.984H62.787V178H60.979ZM61.891 168.352C61.5817 168.352 61.315 168.245 61.091 168.032C60.8777 167.808 60.771 167.547 60.771 167.248C60.771 166.939 60.8777 166.677 61.091 166.464C61.315 166.24 61.5817 166.128 61.891 166.128C62.2003 166.128 62.4617 166.24 62.675 166.464C62.899 166.677 63.011 166.933 63.011 167.232C63.011 167.541 62.899 167.808 62.675 168.032C62.4617 168.245 62.2003 168.352 61.891 168.352ZM67.7463 178.16C67.0636 178.16 66.4236 178.069 65.8263 177.888C65.2396 177.696 64.7329 177.424 64.3063 177.072L65.1543 175.872C65.6876 176.203 66.1463 176.437 66.5303 176.576C66.9249 176.715 67.3249 176.784 67.7303 176.784C68.2103 176.784 68.5996 176.683 68.8983 176.48C69.1969 176.277 69.3463 176.016 69.3463 175.696C69.3463 175.451 69.2556 175.259 69.0743 175.12C68.9036 174.971 68.6209 174.859 68.2263 174.784L66.8183 174.544C66.0396 174.395 65.4583 174.139 65.0743 173.776C64.6903 173.413 64.4983 172.933 64.4983 172.336C64.4983 171.835 64.6263 171.403 64.8823 171.04C65.1489 170.667 65.5116 170.379 65.9703 170.176C66.4396 169.963 66.9836 169.856 67.6023 169.856C68.1569 169.856 68.6956 169.936 69.2183 170.096C69.7409 170.256 70.2529 170.496 70.7543 170.816L69.9063 172.016C69.5009 171.749 69.0956 171.557 68.6903 171.44C68.2956 171.312 67.8956 171.248 67.4903 171.248C67.0743 171.248 66.7383 171.333 66.4823 171.504C66.2369 171.664 66.1143 171.888 66.1143 172.176C66.1143 172.432 66.1943 172.629 66.3543 172.768C66.5249 172.896 66.8183 172.992 67.2343 173.056L68.6583 173.328C69.4583 173.467 70.0503 173.723 70.4343 174.096C70.8289 174.459 71.0263 174.944 71.0263 175.552C71.0263 176.043 70.8823 176.485 70.5943 176.88C70.3063 177.275 69.9169 177.589 69.4263 177.824C68.9356 178.048 68.3756 178.16 67.7463 178.16ZM76.4406 178.144C75.6833 178.144 74.9953 177.963 74.3766 177.6C73.7686 177.227 73.2833 176.725 72.9206 176.096C72.5686 175.467 72.3926 174.768 72.3926 174C72.3926 173.221 72.5686 172.523 72.9206 171.904C73.2833 171.275 73.7686 170.779 74.3766 170.416C74.9953 170.043 75.6833 169.856 76.4406 169.856C77.0593 169.856 77.646 169.973 78.2006 170.208C78.766 170.443 79.246 170.779 79.6406 171.216L78.5206 172.384C78.2433 172.075 77.934 171.84 77.5926 171.68C77.2513 171.52 76.8886 171.44 76.5046 171.44C76.0673 171.44 75.6726 171.557 75.3206 171.792C74.9793 172.016 74.7073 172.32 74.5046 172.704C74.302 173.088 74.2006 173.52 74.2006 174C74.2006 174.48 74.302 174.917 74.5046 175.312C74.7073 175.696 74.9793 176 75.3206 176.224C75.6726 176.448 76.0673 176.56 76.5046 176.56C76.8886 176.56 77.2513 176.48 77.5926 176.32C77.934 176.16 78.2433 175.931 78.5206 175.632L79.6406 176.784C79.246 177.221 78.766 177.557 78.2006 177.792C77.646 178.027 77.0593 178.144 76.4406 178.144ZM81.1356 178V166.528L82.9436 166.208V178H81.1356ZM88.8309 178.144C88.0735 178.144 87.3855 177.963 86.7669 177.6C86.1589 177.237 85.6789 176.747 85.3269 176.128C84.9749 175.499 84.7989 174.789 84.7989 174C84.7989 173.211 84.9749 172.507 85.3269 171.888C85.6789 171.259 86.1589 170.763 86.7669 170.4C87.3749 170.037 88.0629 169.856 88.8309 169.856C89.5989 169.856 90.2815 170.037 90.8789 170.4C91.4869 170.763 91.9669 171.259 92.3189 171.888C92.6709 172.507 92.8469 173.211 92.8469 174C92.8469 174.789 92.6709 175.499 92.3189 176.128C91.9669 176.747 91.4869 177.237 90.8789 177.6C90.2815 177.963 89.5989 178.144 88.8309 178.144ZM88.8309 176.608C89.2682 176.608 89.6522 176.496 89.9829 176.272C90.3242 176.048 90.5909 175.739 90.7829 175.344C90.9749 174.939 91.0709 174.491 91.0709 174C91.0709 173.499 90.9749 173.056 90.7829 172.672C90.5909 172.277 90.3242 171.968 89.9829 171.744C89.6522 171.509 89.2682 171.392 88.8309 171.392C88.3935 171.392 88.0042 171.509 87.6629 171.744C87.3215 171.968 87.0549 172.277 86.8629 172.672C86.6709 173.056 86.5749 173.499 86.5749 174C86.5749 174.501 86.6709 174.949 86.8629 175.344C87.0549 175.739 87.3215 176.048 87.6629 176.272C88.0042 176.496 88.3935 176.608 88.8309 176.608ZM97.4338 178.16C96.7511 178.16 96.1111 178.069 95.5138 177.888C94.9271 177.696 94.4204 177.424 93.9938 177.072L94.8418 175.872C95.3751 176.203 95.8338 176.437 96.2178 176.576C96.6124 176.715 97.0124 176.784 97.4178 176.784C97.8978 176.784 98.2871 176.683 98.5858 176.48C98.8844 176.277 99.0338 176.016 99.0338 175.696C99.0338 175.451 98.9431 175.259 98.7618 175.12C98.5911 174.971 98.3084 174.859 97.9138 174.784L96.5058 174.544C95.7271 174.395 95.1458 174.139 94.7618 173.776C94.3778 173.413 94.1858 172.933 94.1858 172.336C94.1858 171.835 94.3138 171.403 94.5698 171.04C94.8364 170.667 95.1991 170.379 95.6578 170.176C96.1271 169.963 96.6711 169.856 97.2898 169.856C97.8444 169.856 98.3831 169.936 98.9058 170.096C99.4284 170.256 99.9404 170.496 100.442 170.816L99.5938 172.016C99.1884 171.749 98.7831 171.557 98.3778 171.44C97.9831 171.312 97.5831 171.248 97.1778 171.248C96.7618 171.248 96.4258 171.333 96.1698 171.504C95.9244 171.664 95.8018 171.888 95.8018 172.176C95.8018 172.432 95.8818 172.629 96.0418 172.768C96.2124 172.896 96.5058 172.992 96.9218 173.056L98.3458 173.328C99.1458 173.467 99.7378 173.723 100.122 174.096C100.516 174.459 100.714 174.944 100.714 175.552C100.714 176.043 100.57 176.485 100.282 176.88C99.9938 177.275 99.6044 177.589 99.1138 177.824C98.6231 178.048 98.0631 178.16 97.4338 178.16ZM105.106 178.128C104.551 178.128 104.066 178.005 103.65 177.76C103.234 177.515 102.903 177.179 102.658 176.752C102.423 176.325 102.306 175.829 102.306 175.264V169.984H104.13V174.736C104.13 175.333 104.285 175.808 104.594 176.16C104.914 176.501 105.346 176.672 105.89 176.672C106.253 176.672 106.578 176.592 106.866 176.432C107.165 176.272 107.421 176.032 107.634 175.712V169.984H109.442V178H107.634V176.704C107.325 177.173 106.957 177.531 106.53 177.776C106.103 178.011 105.629 178.128 105.106 178.128ZM111.683 178V169.984H113.491V171.712C113.725 171.104 114.029 170.64 114.403 170.32C114.776 170 115.208 169.84 115.699 169.84C115.848 169.851 115.981 169.867 116.099 169.888C116.216 169.899 116.344 169.936 116.483 170V171.584C116.344 171.52 116.184 171.472 116.003 171.44C115.832 171.408 115.661 171.392 115.491 171.392C115.053 171.392 114.659 171.509 114.307 171.744C113.965 171.979 113.693 172.304 113.491 172.72V178H111.683ZM121.317 178.16C120.549 178.16 119.855 177.979 119.237 177.616C118.618 177.243 118.127 176.747 117.765 176.128C117.402 175.499 117.221 174.789 117.221 174C117.221 173.211 117.391 172.507 117.733 171.888C118.074 171.269 118.538 170.779 119.125 170.416C119.722 170.043 120.383 169.856 121.109 169.856C121.855 169.856 122.511 170.037 123.077 170.4C123.653 170.763 124.101 171.253 124.421 171.872C124.751 172.491 124.917 173.2 124.917 174V174.432H118.997C119.061 174.869 119.199 175.259 119.413 175.6C119.637 175.931 119.919 176.192 120.261 176.384C120.613 176.576 120.991 176.672 121.397 176.672C121.77 176.672 122.122 176.608 122.453 176.48C122.794 176.341 123.077 176.155 123.301 175.92L124.485 176.992C123.994 177.397 123.493 177.696 122.981 177.888C122.479 178.069 121.925 178.16 121.317 178.16ZM119.013 173.312H123.205C123.141 172.928 123.007 172.587 122.805 172.288C122.613 171.989 122.367 171.755 122.069 171.584C121.781 171.413 121.461 171.328 121.109 171.328C120.757 171.328 120.431 171.413 120.133 171.584C119.845 171.744 119.605 171.973 119.413 172.272C119.221 172.571 119.087 172.917 119.013 173.312ZM133.938 178.176C133.106 178.176 132.333 178.032 131.618 177.744C130.904 177.445 130.296 177.029 129.794 176.496L130.962 175.376C131.41 175.845 131.858 176.176 132.306 176.368C132.754 176.549 133.288 176.64 133.906 176.64C134.397 176.64 134.824 176.565 135.186 176.416C135.56 176.256 135.848 176.037 136.05 175.76C136.253 175.483 136.354 175.157 136.354 174.784C136.354 174.453 136.269 174.16 136.098 173.904C135.928 173.648 135.693 173.451 135.394 173.312C135.096 173.163 134.749 173.088 134.354 173.088H132.978V171.616H134.21C134.754 171.616 135.186 171.467 135.506 171.168C135.837 170.869 136.002 170.464 136.002 169.952C136.002 169.621 135.906 169.323 135.714 169.056C135.533 168.779 135.282 168.565 134.962 168.416C134.642 168.256 134.28 168.176 133.874 168.176C133.309 168.176 132.813 168.277 132.386 168.48C131.97 168.672 131.538 169.013 131.09 169.504L129.906 168.4C130.418 167.824 131.021 167.387 131.714 167.088C132.418 166.779 133.154 166.624 133.922 166.624C134.669 166.624 135.33 166.757 135.906 167.024C136.482 167.291 136.93 167.664 137.25 168.144C137.581 168.613 137.746 169.152 137.746 169.76C137.746 170.357 137.549 170.891 137.154 171.36C136.77 171.819 136.264 172.139 135.634 172.32C136.381 172.48 136.978 172.795 137.426 173.264C137.885 173.723 138.114 174.267 138.114 174.896C138.114 175.525 137.933 176.091 137.57 176.592C137.208 177.083 136.712 177.472 136.082 177.76C135.464 178.037 134.749 178.176 133.938 178.176Z" fill="#151515"/>
<rect x="0.5" y="88.5" width="417" height="55" fill="white"/>
<rect x="0.5" y="88.5" width="417" height="55" stroke="#C7C7C7"/>
<g clip-path="url(#clip1_59_3138)">
<path d="M31.9998 120.395C31.8098 120.395 31.6148 120.32 31.4698 120.175L24.6448 113.355C24.4498 113.16 24.4498 112.845 24.6448 112.65C24.8398 112.455 25.1548 112.455 25.3498 112.65L31.9948 119.295L38.6398 112.65C38.8348 112.455 39.1498 112.455 39.3448 112.65C39.5398 112.845 39.5398 113.16 39.3448 113.355L32.5198 120.18C32.3748 120.325 32.1798 120.4 31.9898 120.4L31.9998 120.395Z" fill="#151515"/>
</g>
<path d="M51.264 120.336H53.488C54.16 120.336 54.768 120.165 55.312 119.824C55.856 119.472 56.288 118.997 56.608 118.4C56.928 117.803 57.088 117.136 57.088 116.4C57.088 115.653 56.928 114.987 56.608 114.4C56.288 113.803 55.856 113.333 55.312 112.992C54.768 112.64 54.16 112.464 53.488 112.464H51.264V120.336ZM49.344 122V110.8H53.44C54.2507 110.8 54.9973 110.944 55.68 111.232C56.3627 111.52 56.9547 111.92 57.456 112.432C57.968 112.933 58.3627 113.525 58.64 114.208C58.9173 114.88 59.056 115.611 59.056 116.4C59.056 117.189 58.9173 117.925 58.64 118.608C58.3627 119.28 57.968 119.872 57.456 120.384C56.9547 120.885 56.3627 121.28 55.68 121.568C54.9973 121.856 54.2507 122 53.44 122H49.344ZM60.979 122V113.984H62.787V122H60.979ZM61.891 112.352C61.5817 112.352 61.315 112.245 61.091 112.032C60.8777 111.808 60.771 111.547 60.771 111.248C60.771 110.939 60.8777 110.677 61.091 110.464C61.315 110.24 61.5817 110.128 61.891 110.128C62.2003 110.128 62.4617 110.24 62.675 110.464C62.899 110.677 63.011 110.933 63.011 111.232C63.011 111.541 62.899 111.808 62.675 112.032C62.4617 112.245 62.2003 112.352 61.891 112.352ZM67.7463 122.16C67.0636 122.16 66.4236 122.069 65.8263 121.888C65.2396 121.696 64.7329 121.424 64.3063 121.072L65.1543 119.872C65.6876 120.203 66.1463 120.437 66.5303 120.576C66.9249 120.715 67.3249 120.784 67.7303 120.784C68.2103 120.784 68.5996 120.683 68.8983 120.48C69.1969 120.277 69.3463 120.016 69.3463 119.696C69.3463 119.451 69.2556 119.259 69.0743 119.12C68.9036 118.971 68.6209 118.859 68.2263 118.784L66.8183 118.544C66.0396 118.395 65.4583 118.139 65.0743 117.776C64.6903 117.413 64.4983 116.933 64.4983 116.336C64.4983 115.835 64.6263 115.403 64.8823 115.04C65.1489 114.667 65.5116 114.379 65.9703 114.176C66.4396 113.963 66.9836 113.856 67.6023 113.856C68.1569 113.856 68.6956 113.936 69.2183 114.096C69.7409 114.256 70.2529 114.496 70.7543 114.816L69.9063 116.016C69.5009 115.749 69.0956 115.557 68.6903 115.44C68.2956 115.312 67.8956 115.248 67.4903 115.248C67.0743 115.248 66.7383 115.333 66.4823 115.504C66.2369 115.664 66.1143 115.888 66.1143 116.176C66.1143 116.432 66.1943 116.629 66.3543 116.768C66.5249 116.896 66.8183 116.992 67.2343 117.056L68.6583 117.328C69.4583 117.467 70.0503 117.723 70.4343 118.096C70.8289 118.459 71.0263 118.944 71.0263 119.552C71.0263 120.043 70.8823 120.485 70.5943 120.88C70.3063 121.275 69.9169 121.589 69.4263 121.824C68.9356 122.048 68.3756 122.16 67.7463 122.16ZM76.4406 122.144C75.6833 122.144 74.9953 121.963 74.3766 121.6C73.7686 121.227 73.2833 120.725 72.9206 120.096C72.5686 119.467 72.3926 118.768 72.3926 118C72.3926 117.221 72.5686 116.523 72.9206 115.904C73.2833 115.275 73.7686 114.779 74.3766 114.416C74.9953 114.043 75.6833 113.856 76.4406 113.856C77.0593 113.856 77.646 113.973 78.2006 114.208C78.766 114.443 79.246 114.779 79.6406 115.216L78.5206 116.384C78.2433 116.075 77.934 115.84 77.5926 115.68C77.2513 115.52 76.8886 115.44 76.5046 115.44C76.0673 115.44 75.6726 115.557 75.3206 115.792C74.9793 116.016 74.7073 116.32 74.5046 116.704C74.302 117.088 74.2006 117.52 74.2006 118C74.2006 118.48 74.302 118.917 74.5046 119.312C74.7073 119.696 74.9793 120 75.3206 120.224C75.6726 120.448 76.0673 120.56 76.5046 120.56C76.8886 120.56 77.2513 120.48 77.5926 120.32C77.934 120.16 78.2433 119.931 78.5206 119.632L79.6406 120.784C79.246 121.221 78.766 121.557 78.2006 121.792C77.646 122.027 77.0593 122.144 76.4406 122.144ZM81.1356 122V110.528L82.9436 110.208V122H81.1356ZM88.8309 122.144C88.0735 122.144 87.3855 121.963 86.7669 121.6C86.1589 121.237 85.6789 120.747 85.3269 120.128C84.9749 119.499 84.7989 118.789 84.7989 118C84.7989 117.211 84.9749 116.507 85.3269 115.888C85.6789 115.259 86.1589 114.763 86.7669 114.4C87.3749 114.037 88.0629 113.856 88.8309 113.856C89.5989 113.856 90.2815 114.037 90.8789 114.4C91.4869 114.763 91.9669 115.259 92.3189 115.888C92.6709 116.507 92.8469 117.211 92.8469 118C92.8469 118.789 92.6709 119.499 92.3189 120.128C91.9669 120.747 91.4869 121.237 90.8789 121.6C90.2815 121.963 89.5989 122.144 88.8309 122.144ZM88.8309 120.608C89.2682 120.608 89.6522 120.496 89.9829 120.272C90.3242 120.048 90.5909 119.739 90.7829 119.344C90.9749 118.939 91.0709 118.491 91.0709 118C91.0709 117.499 90.9749 117.056 90.7829 116.672C90.5909 116.277 90.3242 115.968 89.9829 115.744C89.6522 115.509 89.2682 115.392 88.8309 115.392C88.3935 115.392 88.0042 115.509 87.6629 115.744C87.3215 115.968 87.0549 116.277 86.8629 116.672C86.6709 117.056 86.5749 117.499 86.5749 118C86.5749 118.501 86.6709 118.949 86.8629 119.344C87.0549 119.739 87.3215 120.048 87.6629 120.272C88.0042 120.496 88.3935 120.608 88.8309 120.608ZM97.4338 122.16C96.7511 122.16 96.1111 122.069 95.5138 121.888C94.9271 121.696 94.4204 121.424 93.9938 121.072L94.8418 119.872C95.3751 120.203 95.8338 120.437 96.2178 120.576C96.6124 120.715 97.0124 120.784 97.4178 120.784C97.8978 120.784 98.2871 120.683 98.5858 120.48C98.8844 120.277 99.0338 120.016 99.0338 119.696C99.0338 119.451 98.9431 119.259 98.7618 119.12C98.5911 118.971 98.3084 118.859 97.9138 118.784L96.5058 118.544C95.7271 118.395 95.1458 118.139 94.7618 117.776C94.3778 117.413 94.1858 116.933 94.1858 116.336C94.1858 115.835 94.3138 115.403 94.5698 115.04C94.8364 114.667 95.1991 114.379 95.6578 114.176C96.1271 113.963 96.6711 113.856 97.2898 113.856C97.8444 113.856 98.3831 113.936 98.9058 114.096C99.4284 114.256 99.9404 114.496 100.442 114.816L99.5938 116.016C99.1884 115.749 98.7831 115.557 98.3778 115.44C97.9831 115.312 97.5831 115.248 97.1778 115.248C96.7618 115.248 96.4258 115.333 96.1698 115.504C95.9244 115.664 95.8018 115.888 95.8018 116.176C95.8018 116.432 95.8818 116.629 96.0418 116.768C96.2124 116.896 96.5058 116.992 96.9218 117.056L98.3458 117.328C99.1458 117.467 99.7378 117.723 100.122 118.096C100.516 118.459 100.714 118.944 100.714 119.552C100.714 120.043 100.57 120.485 100.282 120.88C99.9938 121.275 99.6044 121.589 99.1138 121.824C98.6231 122.048 98.0631 122.16 97.4338 122.16ZM105.106 122.128C104.551 122.128 104.066 122.005 103.65 121.76C103.234 121.515 102.903 121.179 102.658 120.752C102.423 120.325 102.306 119.829 102.306 119.264V113.984H104.13V118.736C104.13 119.333 104.285 119.808 104.594 120.16C104.914 120.501 105.346 120.672 105.89 120.672C106.253 120.672 106.578 120.592 106.866 120.432C107.165 120.272 107.421 120.032 107.634 119.712V113.984H109.442V122H107.634V120.704C107.325 121.173 106.957 121.531 106.53 121.776C106.103 122.011 105.629 122.128 105.106 122.128ZM111.683 122V113.984H113.491V115.712C113.725 115.104 114.029 114.64 114.403 114.32C114.776 114 115.208 113.84 115.699 113.84C115.848 113.851 115.981 113.867 116.099 113.888C116.216 113.899 116.344 113.936 116.483 114V115.584C116.344 115.52 116.184 115.472 116.003 115.44C115.832 115.408 115.661 115.392 115.491 115.392C115.053 115.392 114.659 115.509 114.307 115.744C113.965 115.979 113.693 116.304 113.491 116.72V122H111.683ZM121.317 122.16C120.549 122.16 119.855 121.979 119.237 121.616C118.618 121.243 118.127 120.747 117.765 120.128C117.402 119.499 117.221 118.789 117.221 118C117.221 117.211 117.391 116.507 117.733 115.888C118.074 115.269 118.538 114.779 119.125 114.416C119.722 114.043 120.383 113.856 121.109 113.856C121.855 113.856 122.511 114.037 123.077 114.4C123.653 114.763 124.101 115.253 124.421 115.872C124.751 116.491 124.917 117.2 124.917 118V118.432H118.997C119.061 118.869 119.199 119.259 119.413 119.6C119.637 119.931 119.919 120.192 120.261 120.384C120.613 120.576 120.991 120.672 121.397 120.672C121.77 120.672 122.122 120.608 122.453 120.48C122.794 120.341 123.077 120.155 123.301 119.92L124.485 120.992C123.994 121.397 123.493 121.696 122.981 121.888C122.479 122.069 121.925 122.16 121.317 122.16ZM119.013 117.312H123.205C123.141 116.928 123.007 116.587 122.805 116.288C122.613 115.989 122.367 115.755 122.069 115.584C121.781 115.413 121.461 115.328 121.109 115.328C120.757 115.328 120.431 115.413 120.133 115.584C119.845 115.744 119.605 115.973 119.413 116.272C119.221 116.571 119.087 116.917 119.013 117.312ZM130.05 122V120.736L134.642 115.936C134.92 115.648 135.133 115.387 135.282 115.152C135.442 114.917 135.554 114.693 135.618 114.48C135.693 114.256 135.73 114.027 135.73 113.792C135.73 113.323 135.538 112.933 135.154 112.624C134.77 112.315 134.285 112.16 133.698 112.16C133.186 112.16 132.706 112.261 132.258 112.464C131.81 112.667 131.32 113.019 130.786 113.52L129.794 112.32C130.413 111.755 131.048 111.333 131.698 111.056C132.349 110.768 133.026 110.624 133.73 110.624C134.466 110.624 135.112 110.757 135.666 111.024C136.221 111.28 136.653 111.637 136.962 112.096C137.272 112.555 137.426 113.088 137.426 113.696C137.426 114.059 137.378 114.4 137.282 114.72C137.186 115.04 137.021 115.365 136.786 115.696C136.562 116.027 136.248 116.405 135.842 116.832L132.274 120.512L137.634 120.496V122H130.05Z" fill="#151515"/>
<rect x="0.5" y="32.5" width="417" height="55" fill="white"/>
<rect x="0.5" y="32.5" width="417" height="55" stroke="#C7C7C7"/>
<g clip-path="url(#clip2_59_3138)">
<path d="M31.9998 64.3952C31.8098 64.3952 31.6148 64.3202 31.4698 64.1752L24.6448 57.3552C24.4498 57.1602 24.4498 56.8452 24.6448 56.6502C24.8398 56.4552 25.1548 56.4552 25.3498 56.6502L31.9948 63.2952L38.6398 56.6502C38.8348 56.4552 39.1498 56.4552 39.3448 56.6502C39.5398 56.8452 39.5398 57.1602 39.3448 57.3552L32.5198 64.1802C32.3748 64.3252 32.1798 64.4002 31.9898 64.4002L31.9998 64.3952Z" fill="#151515"/>
</g>
<path d="M51.264 64.336H53.488C54.16 64.336 54.768 64.1653 55.312 63.824C55.856 63.472 56.288 62.9973 56.608 62.4C56.928 61.8027 57.088 61.136 57.088 60.4C57.088 59.6533 56.928 58.9867 56.608 58.4C56.288 57.8027 55.856 57.3333 55.312 56.992C54.768 56.64 54.16 56.464 53.488 56.464H51.264V64.336ZM49.344 66V54.8H53.44C54.2507 54.8 54.9973 54.944 55.68 55.232C56.3627 55.52 56.9547 55.92 57.456 56.432C57.968 56.9333 58.3627 57.5253 58.64 58.208C58.9173 58.88 59.056 59.6107 59.056 60.4C59.056 61.1893 58.9173 61.9253 58.64 62.608C58.3627 63.28 57.968 63.872 57.456 64.384C56.9547 64.8853 56.3627 65.28 55.68 65.568C54.9973 65.856 54.2507 66 53.44 66H49.344ZM60.979 66V57.984H62.787V66H60.979ZM61.891 56.352C61.5817 56.352 61.315 56.2453 61.091 56.032C60.8777 55.808 60.771 55.5467 60.771 55.248C60.771 54.9387 60.8777 54.6773 61.091 54.464C61.315 54.24 61.5817 54.128 61.891 54.128C62.2003 54.128 62.4617 54.24 62.675 54.464C62.899 54.6773 63.011 54.9333 63.011 55.232C63.011 55.5413 62.899 55.808 62.675 56.032C62.4617 56.2453 62.2003 56.352 61.891 56.352ZM67.7463 66.16C67.0636 66.16 66.4236 66.0693 65.8263 65.888C65.2396 65.696 64.7329 65.424 64.3063 65.072L65.1543 63.872C65.6876 64.2027 66.1463 64.4373 66.5303 64.576C66.9249 64.7147 67.3249 64.784 67.7303 64.784C68.2103 64.784 68.5996 64.6827 68.8983 64.48C69.1969 64.2773 69.3463 64.016 69.3463 63.696C69.3463 63.4507 69.2556 63.2587 69.0743 63.12C68.9036 62.9707 68.6209 62.8587 68.2263 62.784L66.8183 62.544C66.0396 62.3947 65.4583 62.1387 65.0743 61.776C64.6903 61.4133 64.4983 60.9333 64.4983 60.336C64.4983 59.8347 64.6263 59.4027 64.8823 59.04C65.1489 58.6667 65.5116 58.3787 65.9703 58.176C66.4396 57.9627 66.9836 57.856 67.6023 57.856C68.1569 57.856 68.6956 57.936 69.2183 58.096C69.7409 58.256 70.2529 58.496 70.7543 58.816L69.9063 60.016C69.5009 59.7493 69.0956 59.5573 68.6903 59.44C68.2956 59.312 67.8956 59.248 67.4903 59.248C67.0743 59.248 66.7383 59.3333 66.4823 59.504C66.2369 59.664 66.1143 59.888 66.1143 60.176C66.1143 60.432 66.1943 60.6293 66.3543 60.768C66.5249 60.896 66.8183 60.992 67.2343 61.056L68.6583 61.328C69.4583 61.4667 70.0503 61.7227 70.4343 62.096C70.8289 62.4587 71.0263 62.944 71.0263 63.552C71.0263 64.0427 70.8823 64.4853 70.5943 64.88C70.3063 65.2747 69.9169 65.5893 69.4263 65.824C68.9356 66.048 68.3756 66.16 67.7463 66.16ZM76.4406 66.144C75.6833 66.144 74.9953 65.9627 74.3766 65.6C73.7686 65.2267 73.2833 64.7253 72.9206 64.096C72.5686 63.4667 72.3926 62.768 72.3926 62C72.3926 61.2213 72.5686 60.5227 72.9206 59.904C73.2833 59.2747 73.7686 58.7787 74.3766 58.416C74.9953 58.0427 75.6833 57.856 76.4406 57.856C77.0593 57.856 77.646 57.9733 78.2006 58.208C78.766 58.4427 79.246 58.7787 79.6406 59.216L78.5206 60.384C78.2433 60.0747 77.934 59.84 77.5926 59.68C77.2513 59.52 76.8886 59.44 76.5046 59.44C76.0673 59.44 75.6726 59.5573 75.3206 59.792C74.9793 60.016 74.7073 60.32 74.5046 60.704C74.302 61.088 74.2006 61.52 74.2006 62C74.2006 62.48 74.302 62.9173 74.5046 63.312C74.7073 63.696 74.9793 64 75.3206 64.224C75.6726 64.448 76.0673 64.56 76.5046 64.56C76.8886 64.56 77.2513 64.48 77.5926 64.32C77.934 64.16 78.2433 63.9307 78.5206 63.632L79.6406 64.784C79.246 65.2213 78.766 65.5573 78.2006 65.792C77.646 66.0267 77.0593 66.144 76.4406 66.144ZM81.1356 66V54.528L82.9436 54.208V66H81.1356ZM88.8309 66.144C88.0735 66.144 87.3855 65.9627 86.7669 65.6C86.1589 65.2373 85.6789 64.7467 85.3269 64.128C84.9749 63.4987 84.7989 62.7893 84.7989 62C84.7989 61.2107 84.9749 60.5067 85.3269 59.888C85.6789 59.2587 86.1589 58.7627 86.7669 58.4C87.3749 58.0373 88.0629 57.856 88.8309 57.856C89.5989 57.856 90.2815 58.0373 90.8789 58.4C91.4869 58.7627 91.9669 59.2587 92.3189 59.888C92.6709 60.5067 92.8469 61.2107 92.8469 62C92.8469 62.7893 92.6709 63.4987 92.3189 64.128C91.9669 64.7467 91.4869 65.2373 90.8789 65.6C90.2815 65.9627 89.5989 66.144 88.8309 66.144ZM88.8309 64.608C89.2682 64.608 89.6522 64.496 89.9829 64.272C90.3242 64.048 90.5909 63.7387 90.7829 63.344C90.9749 62.9387 91.0709 62.4907 91.0709 62C91.0709 61.4987 90.9749 61.056 90.7829 60.672C90.5909 60.2773 90.3242 59.968 89.9829 59.744C89.6522 59.5093 89.2682 59.392 88.8309 59.392C88.3935 59.392 88.0042 59.5093 87.6629 59.744C87.3215 59.968 87.0549 60.2773 86.8629 60.672C86.6709 61.056 86.5749 61.4987 86.5749 62C86.5749 62.5013 86.6709 62.9493 86.8629 63.344C87.0549 63.7387 87.3215 64.048 87.6629 64.272C88.0042 64.496 88.3935 64.608 88.8309 64.608ZM97.4338 66.16C96.7511 66.16 96.1111 66.0693 95.5138 65.888C94.9271 65.696 94.4204 65.424 93.9938 65.072L94.8418 63.872C95.3751 64.2027 95.8338 64.4373 96.2178 64.576C96.6124 64.7147 97.0124 64.784 97.4178 64.784C97.8978 64.784 98.2871 64.6827 98.5858 64.48C98.8844 64.2773 99.0338 64.016 99.0338 63.696C99.0338 63.4507 98.9431 63.2587 98.7618 63.12C98.5911 62.9707 98.3084 62.8587 97.9138 62.784L96.5058 62.544C95.7271 62.3947 95.1458 62.1387 94.7618 61.776C94.3778 61.4133 94.1858 60.9333 94.1858 60.336C94.1858 59.8347 94.3138 59.4027 94.5698 59.04C94.8364 58.6667 95.1991 58.3787 95.6578 58.176C96.1271 57.9627 96.6711 57.856 97.2898 57.856C97.8444 57.856 98.3831 57.936 98.9058 58.096C99.4284 58.256 99.9404 58.496 100.442 58.816L99.5938 60.016C99.1884 59.7493 98.7831 59.5573 98.3778 59.44C97.9831 59.312 97.5831 59.248 97.1778 59.248C96.7618 59.248 96.4258 59.3333 96.1698 59.504C95.9244 59.664 95.8018 59.888 95.8018 60.176C95.8018 60.432 95.8818 60.6293 96.0418 60.768C96.2124 60.896 96.5058 60.992 96.9218 61.056L98.3458 61.328C99.1458 61.4667 99.7378 61.7227 100.122 62.096C100.516 62.4587 100.714 62.944 100.714 63.552C100.714 64.0427 100.57 64.4853 100.282 64.88C99.9938 65.2747 99.6044 65.5893 99.1138 65.824C98.6231 66.048 98.0631 66.16 97.4338 66.16ZM105.106 66.128C104.551 66.128 104.066 66.0053 103.65 65.76C103.234 65.5147 102.903 65.1787 102.658 64.752C102.423 64.3253 102.306 63.8293 102.306 63.264V57.984H104.13V62.736C104.13 63.3333 104.285 63.808 104.594 64.16C104.914 64.5013 105.346 64.672 105.89 64.672C106.253 64.672 106.578 64.592 106.866 64.432C107.165 64.272 107.421 64.032 107.634 63.712V57.984H109.442V66H107.634V64.704C107.325 65.1733 106.957 65.5307 106.53 65.776C106.103 66.0107 105.629 66.128 105.106 66.128ZM111.683 66V57.984H113.491V59.712C113.725 59.104 114.029 58.64 114.403 58.32C114.776 58 115.208 57.84 115.699 57.84C115.848 57.8507 115.981 57.8667 116.099 57.888C116.216 57.8987 116.344 57.936 116.483 58V59.584C116.344 59.52 116.184 59.472 116.003 59.44C115.832 59.408 115.661 59.392 115.491 59.392C115.053 59.392 114.659 59.5093 114.307 59.744C113.965 59.9787 113.693 60.304 113.491 60.72V66H111.683ZM121.317 66.16C120.549 66.16 119.855 65.9787 119.237 65.616C118.618 65.2427 118.127 64.7467 117.765 64.128C117.402 63.4987 117.221 62.7893 117.221 62C117.221 61.2107 117.391 60.5067 117.733 59.888C118.074 59.2693 118.538 58.7787 119.125 58.416C119.722 58.0427 120.383 57.856 121.109 57.856C121.855 57.856 122.511 58.0373 123.077 58.4C123.653 58.7627 124.101 59.2533 124.421 59.872C124.751 60.4907 124.917 61.2 124.917 62V62.432H118.997C119.061 62.8693 119.199 63.2587 119.413 63.6C119.637 63.9307 119.919 64.192 120.261 64.384C120.613 64.576 120.991 64.672 121.397 64.672C121.77 64.672 122.122 64.608 122.453 64.48C122.794 64.3413 123.077 64.1547 123.301 63.92L124.485 64.992C123.994 65.3973 123.493 65.696 122.981 65.888C122.479 66.0693 121.925 66.16 121.317 66.16ZM119.013 61.312H123.205C123.141 60.928 123.007 60.5867 122.805 60.288C122.613 59.9893 122.367 59.7547 122.069 59.584C121.781 59.4133 121.461 59.328 121.109 59.328C120.757 59.328 120.431 59.4133 120.133 59.584C119.845 59.744 119.605 59.9733 119.413 60.272C119.221 60.5707 119.087 60.9173 119.013 61.312ZM131.81 66V56.64L129.826 57.488V55.936L132.45 54.8H133.554V66H131.81Z" fill="#151515"/>
<defs>
<clipPath id="clip0_59_3138">
<rect width="16" height="16" fill="white" transform="translate(24 164)"/>
</clipPath>
<clipPath id="clip1_59_3138">
<rect width="16" height="16" fill="white" transform="translate(24 108)"/>
</clipPath>
<clipPath id="clip2_59_3138">
<rect width="16" height="16" fill="white" transform="translate(24 52)"/>
</clipPath>
</defs>
</svg>
