<svg width="482" height="93" viewBox="0 0 482 93" fill="none" xmlns="http://www.w3.org/2000/svg">
<path d="M34.424 52.5V41.3H42.072V42.388H35.656V46.388H40.04V47.46H35.656V52.5H34.424ZM43.7153 52.5V44.692H44.8832V52.5H43.7153ZM44.3073 42.756C44.0726 42.756 43.8699 42.676 43.6993 42.516C43.5393 42.3453 43.4593 42.148 43.4593 41.924C43.4593 41.7 43.5393 41.508 43.6993 41.348C43.8699 41.1773 44.0726 41.092 44.3073 41.092C44.5419 41.092 44.7393 41.1773 44.8993 41.348C45.0699 41.508 45.1553 41.7 45.1553 41.924C45.1553 42.148 45.0699 42.3453 44.8993 42.516C44.7393 42.676 44.5419 42.756 44.3073 42.756ZM47.2781 52.5V40.948L48.4461 40.708V52.5H47.2781ZM53.8166 52.66C53.1446 52.66 52.6326 52.5 52.2806 52.18C51.9393 51.8493 51.7686 51.3747 51.7686 50.756V45.652H50.1526V44.692H51.7686V42.548L52.9366 42.276V44.692H55.1766V45.652H52.9366V50.452C52.9366 50.868 53.022 51.1667 53.1926 51.348C53.374 51.5293 53.6673 51.62 54.0726 51.62C54.2753 51.62 54.4566 51.604 54.6166 51.572C54.7766 51.54 54.9633 51.4867 55.1766 51.412V52.452C54.9633 52.5267 54.7393 52.58 54.5046 52.612C54.27 52.644 54.0406 52.66 53.8166 52.66ZM60.2513 52.66C59.5259 52.66 58.8699 52.484 58.2833 52.132C57.6966 51.7693 57.2326 51.284 56.8913 50.676C56.5499 50.0573 56.3793 49.364 56.3793 48.596C56.3793 47.828 56.5393 47.14 56.8593 46.532C57.1899 45.924 57.6326 45.444 58.1873 45.092C58.7419 44.74 59.3606 44.564 60.0433 44.564C60.7366 44.564 61.3499 44.74 61.8833 45.092C62.4273 45.4333 62.8539 45.9027 63.1633 46.5C63.4833 47.0867 63.6433 47.7533 63.6433 48.5V48.852H57.5153C57.5579 49.3853 57.7019 49.8653 57.9473 50.292C58.2033 50.708 58.5339 51.0387 58.9393 51.284C59.3553 51.5187 59.8086 51.636 60.2993 51.636C60.7046 51.636 61.0939 51.5667 61.4673 51.428C61.8513 51.2787 62.1766 51.0813 62.4433 50.836L63.1793 51.62C62.7313 51.972 62.2673 52.2333 61.7873 52.404C61.3073 52.5747 60.7953 52.66 60.2513 52.66ZM57.5473 48.02H62.4913C62.4379 47.5507 62.2939 47.1347 62.0593 46.772C61.8353 46.3987 61.5473 46.1053 61.1953 45.892C60.8539 45.6787 60.4699 45.572 60.0433 45.572C59.6166 45.572 59.2273 45.6787 58.8753 45.892C58.5233 46.0947 58.2299 46.3827 57.9953 46.756C57.7713 47.1187 57.6219 47.54 57.5473 48.02ZM65.6375 52.5V44.692H66.8055V46.292C67.0082 45.748 67.2962 45.3267 67.6695 45.028C68.0535 44.7187 68.4908 44.564 68.9815 44.564C69.1202 44.564 69.2482 44.5747 69.3655 44.596C69.4828 44.6067 69.6002 44.6333 69.7175 44.676V45.732C69.5895 45.6893 69.4508 45.6573 69.3015 45.636C69.1628 45.604 69.0295 45.588 68.9015 45.588C68.4215 45.588 68.0002 45.7267 67.6375 46.004C67.2855 46.2813 67.0082 46.6707 66.8055 47.172V52.5H65.6375ZM74.9969 52.5V41.06L76.1649 40.82V45.764C76.4635 45.3907 76.8262 45.1027 77.2529 44.9C77.6795 44.6973 78.1542 44.596 78.6769 44.596C79.3595 44.596 79.9675 44.7773 80.5009 45.14C81.0449 45.492 81.4769 45.972 81.7969 46.58C82.1169 47.1773 82.2769 47.8493 82.2769 48.596C82.2769 49.3427 82.1115 50.02 81.7809 50.628C81.4609 51.236 81.0235 51.7213 80.4689 52.084C79.9249 52.436 79.3062 52.612 78.6129 52.612C78.1222 52.612 77.6635 52.516 77.2369 52.324C76.8209 52.1213 76.4582 51.8387 76.1489 51.476V52.5H74.9969ZM78.3889 51.604C78.9115 51.604 79.3755 51.476 79.7809 51.22C80.1969 50.9533 80.5222 50.596 80.7569 50.148C81.0022 49.6893 81.1249 49.1773 81.1249 48.612C81.1249 48.036 81.0022 47.524 80.7569 47.076C80.5222 46.628 80.1969 46.276 79.7809 46.02C79.3755 45.7533 78.9115 45.62 78.3889 45.62C77.9302 45.62 77.5035 45.716 77.1089 45.908C76.7249 46.0893 76.4102 46.3507 76.1649 46.692V50.516C76.4209 50.8573 76.7409 51.124 77.1249 51.316C77.5195 51.508 77.9409 51.604 78.3889 51.604ZM84.4266 56.004C84.1813 56.004 83.9306 55.9667 83.6746 55.892V54.852C83.7813 54.8733 83.8933 54.8893 84.0106 54.9C84.128 54.9107 84.2293 54.916 84.3146 54.916C84.6133 54.916 84.8586 54.836 85.0506 54.676C85.2533 54.516 85.424 54.2653 85.5626 53.924L86.1386 52.5L83.1306 44.692H84.4266L86.7946 51.108L89.3066 44.692H90.6026L86.6666 54.276C86.496 54.692 86.3093 55.028 86.1066 55.284C85.904 55.54 85.6693 55.7213 85.4026 55.828C85.136 55.9453 84.8106 56.004 84.4266 56.004ZM98.7698 52.66C98.0978 52.66 97.5858 52.5 97.2338 52.18C96.8924 51.8493 96.7218 51.3747 96.7218 50.756V45.652H95.1058V44.692H96.7218V42.548L97.8898 42.276V44.692H100.13V45.652H97.8898V50.452C97.8898 50.868 97.9751 51.1667 98.1458 51.348C98.3271 51.5293 98.6204 51.62 99.0258 51.62C99.2284 51.62 99.4098 51.604 99.5698 51.572C99.7298 51.54 99.9164 51.4867 100.13 51.412V52.452C99.9164 52.5267 99.6924 52.58 99.4578 52.612C99.2231 52.644 98.9938 52.66 98.7698 52.66ZM105.14 52.628C104.415 52.628 103.764 52.452 103.188 52.1C102.612 51.748 102.159 51.268 101.828 50.66C101.498 50.052 101.332 49.364 101.332 48.596C101.332 47.828 101.498 47.14 101.828 46.532C102.159 45.924 102.612 45.444 103.188 45.092C103.764 44.74 104.415 44.564 105.14 44.564C105.855 44.564 106.495 44.74 107.06 45.092C107.636 45.444 108.09 45.924 108.42 46.532C108.751 47.14 108.916 47.828 108.916 48.596C108.916 49.364 108.751 50.052 108.42 50.66C108.09 51.268 107.636 51.748 107.06 52.1C106.495 52.452 105.855 52.628 105.14 52.628ZM105.124 51.604C105.636 51.604 106.09 51.476 106.484 51.22C106.879 50.9533 107.188 50.5907 107.412 50.132C107.647 49.6733 107.764 49.1613 107.764 48.596C107.764 48.02 107.647 47.508 107.412 47.06C107.188 46.6013 106.879 46.244 106.484 45.988C106.09 45.7213 105.636 45.588 105.124 45.588C104.612 45.588 104.159 45.7213 103.764 45.988C103.37 46.244 103.055 46.6013 102.82 47.06C102.596 47.508 102.484 48.02 102.484 48.596C102.484 49.1613 102.596 49.6733 102.82 50.132C103.055 50.5907 103.37 50.9533 103.764 51.22C104.159 51.476 104.612 51.604 105.124 51.604ZM110.966 55.844V44.692H112.118V45.812C112.416 45.4173 112.779 45.1187 113.206 44.916C113.643 44.7027 114.123 44.596 114.646 44.596C115.328 44.596 115.936 44.7773 116.47 45.14C117.014 45.492 117.446 45.972 117.766 46.58C118.086 47.1773 118.246 47.8493 118.246 48.596C118.246 49.3427 118.08 50.02 117.75 50.628C117.43 51.236 116.992 51.7213 116.438 52.084C115.894 52.436 115.275 52.612 114.582 52.612C114.091 52.612 113.638 52.5213 113.222 52.34C112.806 52.148 112.443 51.876 112.134 51.524V55.844H110.966ZM114.358 51.604C114.88 51.604 115.344 51.476 115.75 51.22C116.166 50.9533 116.491 50.596 116.726 50.148C116.971 49.6893 117.094 49.1773 117.094 48.612C117.094 48.036 116.971 47.524 116.726 47.076C116.491 46.628 116.166 46.276 115.75 46.02C115.344 45.7533 114.88 45.62 114.358 45.62C113.899 45.62 113.472 45.716 113.078 45.908C112.694 46.0893 112.379 46.3507 112.134 46.692V50.516C112.39 50.8573 112.71 51.124 113.094 51.316C113.488 51.508 113.91 51.604 114.358 51.604ZM120.278 52.5V44.692H121.446V52.5H120.278ZM120.87 42.756C120.635 42.756 120.432 42.676 120.262 42.516C120.102 42.3453 120.022 42.148 120.022 41.924C120.022 41.7 120.102 41.508 120.262 41.348C120.432 41.1773 120.635 41.092 120.87 41.092C121.104 41.092 121.302 41.1773 121.462 41.348C121.632 41.508 121.718 41.7 121.718 41.924C121.718 42.148 121.632 42.3453 121.462 42.516C121.302 42.676 121.104 42.756 120.87 42.756ZM127.345 52.628C126.619 52.628 125.963 52.452 125.377 52.1C124.801 51.7373 124.342 51.252 124.001 50.644C123.659 50.0253 123.489 49.3427 123.489 48.596C123.489 47.8387 123.659 47.156 124.001 46.548C124.342 45.94 124.801 45.46 125.377 45.108C125.963 44.7453 126.619 44.564 127.345 44.564C127.921 44.564 128.47 44.6707 128.993 44.884C129.515 45.0973 129.969 45.396 130.353 45.78L129.601 46.596C129.323 46.2867 128.987 46.0467 128.593 45.876C128.198 45.7053 127.798 45.62 127.393 45.62C126.881 45.62 126.417 45.7533 126.001 46.02C125.595 46.2867 125.27 46.644 125.025 47.092C124.779 47.54 124.657 48.0413 124.657 48.596C124.657 49.1507 124.779 49.652 125.025 50.1C125.27 50.548 125.595 50.9053 126.001 51.172C126.417 51.4387 126.881 51.572 127.393 51.572C127.798 51.572 128.198 51.4867 128.593 51.316C128.987 51.1347 129.323 50.8947 129.601 50.596L130.353 51.412C129.969 51.796 129.515 52.0947 128.993 52.308C128.47 52.5213 127.921 52.628 127.345 52.628ZM132.781 52.628C132.547 52.628 132.344 52.5427 132.173 52.372C132.013 52.2013 131.933 51.9987 131.933 51.764C131.933 51.5187 132.013 51.316 132.173 51.156C132.344 50.9853 132.547 50.9 132.781 50.9C133.016 50.9 133.213 50.9853 133.373 51.156C133.544 51.316 133.629 51.5187 133.629 51.764C133.629 51.9987 133.544 52.2013 133.373 52.372C133.213 52.5427 133.016 52.628 132.781 52.628ZM132.781 46.276C132.547 46.276 132.344 46.1907 132.173 46.02C132.013 45.8493 131.933 45.6467 131.933 45.412C131.933 45.1667 132.013 44.964 132.173 44.804C132.344 44.6333 132.547 44.548 132.781 44.548C133.016 44.548 133.213 44.6333 133.373 44.804C133.544 44.964 133.629 45.1667 133.629 45.412C133.629 45.6467 133.544 45.8493 133.373 46.02C133.213 46.1907 133.016 46.276 132.781 46.276Z" fill="#151515"/>
<rect x="143.5" y="32.5" width="101" height="28" rx="14" fill="white"/>
<rect x="143.5" y="32.5" width="101" height="28" rx="14" stroke="#C7C7C7"/>
<path d="M156.74 51.154C156.04 51.154 155.391 51.0233 154.794 50.762C154.197 50.5007 153.669 50.1413 153.212 49.684C152.764 49.2173 152.414 48.6807 152.162 48.074C151.91 47.458 151.784 46.8 151.784 46.1C151.784 45.4 151.91 44.7467 152.162 44.14C152.414 43.524 152.764 42.9873 153.212 42.53C153.669 42.0633 154.197 41.6993 154.794 41.438C155.391 41.1767 156.04 41.046 156.74 41.046C157.487 41.046 158.191 41.1813 158.854 41.452C159.526 41.7227 160.095 42.124 160.562 42.656L159.834 43.384C159.47 42.9453 159.013 42.6093 158.462 42.376C157.911 42.1427 157.337 42.026 156.74 42.026C156.189 42.026 155.681 42.1333 155.214 42.348C154.747 42.5533 154.337 42.8427 153.982 43.216C153.637 43.58 153.366 44.0093 153.17 44.504C152.974 44.9987 152.876 45.5307 152.876 46.1C152.876 46.6693 152.974 47.2013 153.17 47.696C153.366 48.1907 153.637 48.6247 153.982 48.998C154.337 49.362 154.747 49.6513 155.214 49.866C155.681 50.0713 156.189 50.174 156.74 50.174C157.393 50.174 157.977 50.0293 158.49 49.74C159.013 49.4507 159.433 49.054 159.75 48.55C160.077 48.0367 160.268 47.4627 160.324 46.828H157.02V45.876H161.416V46.31C161.416 46.9913 161.299 47.626 161.066 48.214C160.833 48.7927 160.501 49.306 160.072 49.754C159.652 50.1927 159.157 50.538 158.588 50.79C158.019 51.0327 157.403 51.154 156.74 51.154ZM166.314 51.14C165.679 51.14 165.105 50.986 164.592 50.678C164.078 50.3607 163.672 49.936 163.374 49.404C163.075 48.8627 162.926 48.256 162.926 47.584C162.926 46.912 163.066 46.31 163.346 45.778C163.635 45.246 164.022 44.826 164.508 44.518C164.993 44.21 165.534 44.056 166.132 44.056C166.738 44.056 167.275 44.21 167.742 44.518C168.218 44.8167 168.591 45.2273 168.862 45.75C169.142 46.2633 169.282 46.8467 169.282 47.5V47.808H163.92C163.957 48.2747 164.083 48.6947 164.298 49.068C164.522 49.432 164.811 49.7213 165.166 49.936C165.53 50.1413 165.926 50.244 166.356 50.244C166.71 50.244 167.051 50.1833 167.378 50.062C167.714 49.9313 167.998 49.7587 168.232 49.544L168.876 50.23C168.484 50.538 168.078 50.7667 167.658 50.916C167.238 51.0653 166.79 51.14 166.314 51.14ZM163.948 47.08H168.274C168.227 46.6693 168.101 46.3053 167.896 45.988C167.7 45.6613 167.448 45.4047 167.14 45.218C166.841 45.0313 166.505 44.938 166.132 44.938C165.758 44.938 165.418 45.0313 165.11 45.218C164.802 45.3953 164.545 45.6473 164.34 45.974C164.144 46.2913 164.013 46.66 163.948 47.08ZM171.027 51V44.168H172.049V45.274C172.31 44.8633 172.623 44.56 172.987 44.364C173.351 44.1587 173.761 44.056 174.219 44.056C174.713 44.056 175.143 44.1633 175.507 44.378C175.88 44.5833 176.169 44.8773 176.375 45.26C176.589 45.6333 176.697 46.072 176.697 46.576V51H175.675V46.87C175.675 46.2633 175.507 45.7873 175.171 45.442C174.844 45.0873 174.401 44.91 173.841 44.91C173.467 44.91 173.127 44.9987 172.819 45.176C172.511 45.3533 172.254 45.6147 172.049 45.96V51H171.027ZM181.831 51.14C181.197 51.14 180.623 50.986 180.109 50.678C179.596 50.3607 179.19 49.936 178.891 49.404C178.593 48.8627 178.443 48.256 178.443 47.584C178.443 46.912 178.583 46.31 178.863 45.778C179.153 45.246 179.54 44.826 180.025 44.518C180.511 44.21 181.052 44.056 181.649 44.056C182.256 44.056 182.793 44.21 183.259 44.518C183.735 44.8167 184.109 45.2273 184.379 45.75C184.659 46.2633 184.799 46.8467 184.799 47.5V47.808H179.437C179.475 48.2747 179.601 48.6947 179.815 49.068C180.039 49.432 180.329 49.7213 180.683 49.936C181.047 50.1413 181.444 50.244 181.873 50.244C182.228 50.244 182.569 50.1833 182.895 50.062C183.231 49.9313 183.516 49.7587 183.749 49.544L184.393 50.23C184.001 50.538 183.595 50.7667 183.175 50.916C182.755 51.0653 182.307 51.14 181.831 51.14ZM179.465 47.08H183.791C183.745 46.6693 183.619 46.3053 183.413 45.988C183.217 45.6613 182.965 45.4047 182.657 45.218C182.359 45.0313 182.023 44.938 181.649 44.938C181.276 44.938 180.935 45.0313 180.627 45.218C180.319 45.3953 180.063 45.6473 179.857 45.974C179.661 46.2913 179.531 46.66 179.465 47.08ZM186.544 51V44.168H187.566V45.568C187.743 45.092 187.995 44.7233 188.322 44.462C188.658 44.1913 189.041 44.056 189.47 44.056C189.591 44.056 189.703 44.0653 189.806 44.084C189.909 44.0933 190.011 44.1167 190.114 44.154V45.078C190.002 45.0407 189.881 45.0127 189.75 44.994C189.629 44.966 189.512 44.952 189.4 44.952C188.98 44.952 188.611 45.0733 188.294 45.316C187.986 45.5587 187.743 45.8993 187.566 46.338V51H186.544ZM193.293 51.126C192.808 51.126 192.378 51.0373 192.005 50.86C191.632 50.6827 191.338 50.44 191.123 50.132C190.918 49.8147 190.815 49.4507 190.815 49.04C190.815 48.6293 190.922 48.2747 191.137 47.976C191.352 47.668 191.65 47.43 192.033 47.262C192.416 47.094 192.864 47.01 193.377 47.01C193.769 47.01 194.138 47.052 194.483 47.136C194.838 47.22 195.164 47.3553 195.463 47.542V46.604C195.463 46.044 195.314 45.624 195.015 45.344C194.716 45.0547 194.278 44.91 193.699 44.91C193.382 44.91 193.055 44.9567 192.719 45.05C192.392 45.1433 192.028 45.2927 191.627 45.498L191.249 44.714C192.164 44.2753 193.022 44.056 193.825 44.056C194.674 44.056 195.328 44.266 195.785 44.686C196.242 45.0967 196.471 45.6893 196.471 46.464V51H195.463V50.202C195.164 50.51 194.833 50.7433 194.469 50.902C194.105 51.0513 193.713 51.126 193.293 51.126ZM191.795 49.012C191.795 49.4133 191.949 49.7353 192.257 49.978C192.574 50.2207 192.99 50.342 193.503 50.342C193.886 50.342 194.236 50.2767 194.553 50.146C194.88 50.0153 195.183 49.8193 195.463 49.558V48.242C195.174 48.074 194.875 47.9527 194.567 47.878C194.259 47.794 193.914 47.752 193.531 47.752C193.008 47.752 192.588 47.8687 192.271 48.102C191.954 48.326 191.795 48.6293 191.795 49.012ZM200.947 51.14C200.359 51.14 199.911 51 199.603 50.72C199.304 50.4307 199.155 50.0153 199.155 49.474V45.008H197.741V44.168H199.155V42.292L200.177 42.054V44.168H202.137V45.008H200.177V49.208C200.177 49.572 200.252 49.8333 200.401 49.992C200.56 50.1507 200.816 50.23 201.171 50.23C201.348 50.23 201.507 50.216 201.647 50.188C201.787 50.16 201.95 50.1133 202.137 50.048V50.958C201.95 51.0233 201.754 51.07 201.549 51.098C201.344 51.126 201.143 51.14 200.947 51.14ZM203.62 51V44.168H204.642V51H203.62ZM204.138 42.474C203.933 42.474 203.755 42.404 203.606 42.264C203.466 42.1147 203.396 41.942 203.396 41.746C203.396 41.55 203.466 41.382 203.606 41.242C203.755 41.0927 203.933 41.018 204.138 41.018C204.343 41.018 204.516 41.0927 204.656 41.242C204.805 41.382 204.88 41.55 204.88 41.746C204.88 41.942 204.805 42.1147 204.656 42.264C204.516 42.404 204.343 42.474 204.138 42.474ZM208.698 51L205.898 44.168H207.004L209.216 49.726L211.4 44.168H212.492L209.678 51H208.698ZM216.626 51.14C215.991 51.14 215.417 50.986 214.904 50.678C214.391 50.3607 213.985 49.936 213.686 49.404C213.387 48.8627 213.238 48.256 213.238 47.584C213.238 46.912 213.378 46.31 213.658 45.778C213.947 45.246 214.335 44.826 214.82 44.518C215.305 44.21 215.847 44.056 216.444 44.056C217.051 44.056 217.587 44.21 218.054 44.518C218.53 44.8167 218.903 45.2273 219.174 45.75C219.454 46.2633 219.594 46.8467 219.594 47.5V47.808H214.232C214.269 48.2747 214.395 48.6947 214.61 49.068C214.834 49.432 215.123 49.7213 215.478 49.936C215.842 50.1413 216.239 50.244 216.668 50.244C217.023 50.244 217.363 50.1833 217.69 50.062C218.026 49.9313 218.311 49.7587 218.544 49.544L219.188 50.23C218.796 50.538 218.39 50.7667 217.97 50.916C217.55 51.0653 217.102 51.14 216.626 51.14ZM214.26 47.08H218.586C218.539 46.6693 218.413 46.3053 218.208 45.988C218.012 45.6613 217.76 45.4047 217.452 45.218C217.153 45.0313 216.817 44.938 216.444 44.938C216.071 44.938 215.73 45.0313 215.422 45.218C215.114 45.3953 214.857 45.6473 214.652 45.974C214.456 46.2913 214.325 46.66 214.26 47.08ZM223.683 51L227.561 41.2H228.849L232.671 51H231.509L230.347 47.92H225.979L224.817 51H223.683ZM226.315 47.066H230.025L228.163 42.18L226.315 47.066ZM234.031 51V41.2H235.109V51H234.031Z" fill="#151515"/>
<rect x="253.5" y="32.5" width="121" height="28" rx="14" fill="white"/>
<rect x="253.5" y="32.5" width="121" height="28" rx="14" stroke="#C7C7C7"/>
<path d="M262.246 51V41.2H263.744L267.02 48.172L270.296 41.2H271.794V51H270.772V42.474L267.02 50.3L263.254 42.446V51H262.246ZM276.072 51.126C275.587 51.126 275.158 51.0373 274.784 50.86C274.411 50.6827 274.117 50.44 273.902 50.132C273.697 49.8147 273.594 49.4507 273.594 49.04C273.594 48.6293 273.702 48.2747 273.916 47.976C274.131 47.668 274.43 47.43 274.812 47.262C275.195 47.094 275.643 47.01 276.156 47.01C276.548 47.01 276.917 47.052 277.262 47.136C277.617 47.22 277.944 47.3553 278.242 47.542V46.604C278.242 46.044 278.093 45.624 277.794 45.344C277.496 45.0547 277.057 44.91 276.478 44.91C276.161 44.91 275.834 44.9567 275.498 45.05C275.172 45.1433 274.808 45.2927 274.406 45.498L274.028 44.714C274.943 44.2753 275.802 44.056 276.604 44.056C277.454 44.056 278.107 44.266 278.564 44.686C279.022 45.0967 279.25 45.6893 279.25 46.464V51H278.242V50.202C277.944 50.51 277.612 50.7433 277.248 50.902C276.884 51.0513 276.492 51.126 276.072 51.126ZM274.574 49.012C274.574 49.4133 274.728 49.7353 275.036 49.978C275.354 50.2207 275.769 50.342 276.282 50.342C276.665 50.342 277.015 50.2767 277.332 50.146C277.659 50.0153 277.962 49.8193 278.242 49.558V48.242C277.953 48.074 277.654 47.9527 277.346 47.878C277.038 47.794 276.693 47.752 276.31 47.752C275.788 47.752 275.368 47.8687 275.05 48.102C274.733 48.326 274.574 48.6293 274.574 49.012ZM284.393 51.112C283.759 51.112 283.185 50.958 282.671 50.65C282.167 50.3327 281.766 49.908 281.467 49.376C281.169 48.8347 281.019 48.2373 281.019 47.584C281.019 46.9213 281.169 46.324 281.467 45.792C281.766 45.26 282.167 44.84 282.671 44.532C283.185 44.2147 283.759 44.056 284.393 44.056C284.897 44.056 285.378 44.1493 285.835 44.336C286.293 44.5227 286.689 44.784 287.025 45.12L286.367 45.834C286.125 45.5633 285.831 45.3533 285.485 45.204C285.14 45.0547 284.79 44.98 284.435 44.98C283.987 44.98 283.581 45.0967 283.217 45.33C282.863 45.5633 282.578 45.876 282.363 46.268C282.149 46.66 282.041 47.0987 282.041 47.584C282.041 48.0693 282.149 48.508 282.363 48.9C282.578 49.292 282.863 49.6047 283.217 49.838C283.581 50.0713 283.987 50.188 284.435 50.188C284.79 50.188 285.14 50.1133 285.485 49.964C285.831 49.8053 286.125 49.5953 286.367 49.334L287.025 50.048C286.689 50.384 286.293 50.6453 285.835 50.832C285.378 51.0187 284.897 51.112 284.393 51.112ZM288.45 51V40.892L289.472 40.682V45.274C289.734 44.8633 290.046 44.56 290.41 44.364C290.774 44.1587 291.185 44.056 291.642 44.056C292.137 44.056 292.566 44.1633 292.93 44.378C293.304 44.5833 293.593 44.8773 293.798 45.26C294.013 45.6333 294.12 46.072 294.12 46.576V51H293.098V46.87C293.098 46.2633 292.93 45.7873 292.594 45.442C292.268 45.0873 291.824 44.91 291.264 44.91C290.891 44.91 290.55 44.9987 290.242 45.176C289.934 45.3533 289.678 45.6147 289.472 45.96V51H288.45ZM296.161 51V44.168H297.183V51H296.161ZM296.679 42.474C296.474 42.474 296.296 42.404 296.147 42.264C296.007 42.1147 295.937 41.942 295.937 41.746C295.937 41.55 296.007 41.382 296.147 41.242C296.296 41.0927 296.474 41.018 296.679 41.018C296.884 41.018 297.057 41.0927 297.197 41.242C297.346 41.382 297.421 41.55 297.421 41.746C297.421 41.942 297.346 42.1147 297.197 42.264C297.057 42.404 296.884 42.474 296.679 42.474ZM299.279 51V44.168H300.301V45.274C300.562 44.8633 300.875 44.56 301.239 44.364C301.603 44.1587 302.013 44.056 302.471 44.056C302.965 44.056 303.395 44.1633 303.759 44.378C304.132 44.5833 304.421 44.8773 304.627 45.26C304.841 45.6333 304.949 46.072 304.949 46.576V51H303.927V46.87C303.927 46.2633 303.759 45.7873 303.423 45.442C303.096 45.0873 302.653 44.91 302.093 44.91C301.719 44.91 301.379 44.9987 301.071 45.176C300.763 45.3533 300.506 45.6147 300.301 45.96V51H299.279ZM310.083 51.14C309.448 51.14 308.874 50.986 308.361 50.678C307.848 50.3607 307.442 49.936 307.143 49.404C306.844 48.8627 306.695 48.256 306.695 47.584C306.695 46.912 306.835 46.31 307.115 45.778C307.404 45.246 307.792 44.826 308.277 44.518C308.762 44.21 309.304 44.056 309.901 44.056C310.508 44.056 311.044 44.21 311.511 44.518C311.987 44.8167 312.36 45.2273 312.631 45.75C312.911 46.2633 313.051 46.8467 313.051 47.5V47.808H307.689C307.726 48.2747 307.852 48.6947 308.067 49.068C308.291 49.432 308.58 49.7213 308.935 49.936C309.299 50.1413 309.696 50.244 310.125 50.244C310.48 50.244 310.82 50.1833 311.147 50.062C311.483 49.9313 311.768 49.7587 312.001 49.544L312.645 50.23C312.253 50.538 311.847 50.7667 311.427 50.916C311.007 51.0653 310.559 51.14 310.083 51.14ZM307.717 47.08H312.043C311.996 46.6693 311.87 46.3053 311.665 45.988C311.469 45.6613 311.217 45.4047 310.909 45.218C310.61 45.0313 310.274 44.938 309.901 44.938C309.528 44.938 309.187 45.0313 308.879 45.218C308.571 45.3953 308.314 45.6473 308.109 45.974C307.913 46.2913 307.782 46.66 307.717 47.08ZM318.064 51V40.892L319.086 40.682V51H318.064ZM324.261 51.14C323.626 51.14 323.052 50.986 322.539 50.678C322.026 50.3607 321.62 49.936 321.321 49.404C321.022 48.8627 320.873 48.256 320.873 47.584C320.873 46.912 321.013 46.31 321.293 45.778C321.582 45.246 321.97 44.826 322.455 44.518C322.94 44.21 323.482 44.056 324.079 44.056C324.686 44.056 325.222 44.21 325.689 44.518C326.165 44.8167 326.538 45.2273 326.809 45.75C327.089 46.2633 327.229 46.8467 327.229 47.5V47.808H321.867C321.904 48.2747 322.03 48.6947 322.245 49.068C322.469 49.432 322.758 49.7213 323.113 49.936C323.477 50.1413 323.874 50.244 324.303 50.244C324.658 50.244 324.998 50.1833 325.325 50.062C325.661 49.9313 325.946 49.7587 326.179 49.544L326.823 50.23C326.431 50.538 326.025 50.7667 325.605 50.916C325.185 51.0653 324.737 51.14 324.261 51.14ZM321.895 47.08H326.221C326.174 46.6693 326.048 46.3053 325.843 45.988C325.647 45.6613 325.395 45.4047 325.087 45.218C324.788 45.0313 324.452 44.938 324.079 44.938C323.706 44.938 323.365 45.0313 323.057 45.218C322.749 45.3953 322.492 45.6473 322.287 45.974C322.091 46.2913 321.96 46.66 321.895 47.08ZM330.951 51.126C330.466 51.126 330.036 51.0373 329.663 50.86C329.29 50.6827 328.996 50.44 328.781 50.132C328.576 49.8147 328.473 49.4507 328.473 49.04C328.473 48.6293 328.58 48.2747 328.795 47.976C329.01 47.668 329.308 47.43 329.691 47.262C330.074 47.094 330.522 47.01 331.035 47.01C331.427 47.01 331.796 47.052 332.141 47.136C332.496 47.22 332.822 47.3553 333.121 47.542V46.604C333.121 46.044 332.972 45.624 332.673 45.344C332.374 45.0547 331.936 44.91 331.357 44.91C331.04 44.91 330.713 44.9567 330.377 45.05C330.05 45.1433 329.686 45.2927 329.285 45.498L328.907 44.714C329.822 44.2753 330.68 44.056 331.483 44.056C332.332 44.056 332.986 44.266 333.443 44.686C333.9 45.0967 334.129 45.6893 334.129 46.464V51H333.121V50.202C332.822 50.51 332.491 50.7433 332.127 50.902C331.763 51.0513 331.371 51.126 330.951 51.126ZM329.453 49.012C329.453 49.4133 329.607 49.7353 329.915 49.978C330.232 50.2207 330.648 50.342 331.161 50.342C331.544 50.342 331.894 50.2767 332.211 50.146C332.538 50.0153 332.841 49.8193 333.121 49.558V48.242C332.832 48.074 332.533 47.9527 332.225 47.878C331.917 47.794 331.572 47.752 331.189 47.752C330.666 47.752 330.246 47.8687 329.929 48.102C329.612 48.326 329.453 48.6293 329.453 49.012ZM336.206 51V44.168H337.228V45.568C337.406 45.092 337.658 44.7233 337.984 44.462C338.32 44.1913 338.703 44.056 339.132 44.056C339.254 44.056 339.366 44.0653 339.468 44.084C339.571 44.0933 339.674 44.1167 339.776 44.154V45.078C339.664 45.0407 339.543 45.0127 339.412 44.994C339.291 44.966 339.174 44.952 339.062 44.952C338.642 44.952 338.274 45.0733 337.956 45.316C337.648 45.5587 337.406 45.8993 337.228 46.338V51H336.206ZM341.128 51V44.168H342.15V45.274C342.411 44.8633 342.724 44.56 343.088 44.364C343.452 44.1587 343.863 44.056 344.32 44.056C344.815 44.056 345.244 44.1633 345.608 44.378C345.981 44.5833 346.271 44.8773 346.476 45.26C346.691 45.6333 346.798 46.072 346.798 46.576V51H345.776V46.87C345.776 46.2633 345.608 45.7873 345.272 45.442C344.945 45.0873 344.502 44.91 343.942 44.91C343.569 44.91 343.228 44.9987 342.92 45.176C342.612 45.3533 342.355 45.6147 342.15 45.96V51H341.128ZM348.839 51V44.168H349.861V51H348.839ZM349.357 42.474C349.151 42.474 348.974 42.404 348.825 42.264C348.685 42.1147 348.615 41.942 348.615 41.746C348.615 41.55 348.685 41.382 348.825 41.242C348.974 41.0927 349.151 41.018 349.357 41.018C349.562 41.018 349.735 41.0927 349.875 41.242C350.024 41.382 350.099 41.55 350.099 41.746C350.099 41.942 350.024 42.1147 349.875 42.264C349.735 42.404 349.562 42.474 349.357 42.474ZM351.956 51V44.168H352.978V45.274C353.24 44.8633 353.552 44.56 353.916 44.364C354.28 44.1587 354.691 44.056 355.148 44.056C355.643 44.056 356.072 44.1633 356.436 44.378C356.81 44.5833 357.099 44.8773 357.304 45.26C357.519 45.6333 357.626 46.072 357.626 46.576V51H356.604V46.87C356.604 46.2633 356.436 45.7873 356.1 45.442C355.774 45.0873 355.33 44.91 354.77 44.91C354.397 44.91 354.056 44.9987 353.748 45.176C353.44 45.3533 353.184 45.6147 352.978 45.96V51H351.956ZM362.845 54.066C362.388 54.066 361.926 54.0007 361.459 53.87C361.002 53.7487 360.577 53.576 360.185 53.352L360.619 52.568C361.039 52.7827 361.422 52.9413 361.767 53.044C362.112 53.1467 362.458 53.198 362.803 53.198C363.428 53.198 363.9 53.0487 364.217 52.75C364.544 52.4513 364.707 52.0173 364.707 51.448V50.076C364.446 50.4027 364.128 50.6547 363.755 50.832C363.382 51 362.971 51.084 362.523 51.084C361.935 51.084 361.403 50.93 360.927 50.622C360.451 50.3047 360.073 49.8847 359.793 49.362C359.513 48.83 359.373 48.2373 359.373 47.584C359.373 46.9307 359.513 46.3427 359.793 45.82C360.082 45.288 360.47 44.868 360.955 44.56C361.44 44.2427 361.982 44.084 362.579 44.084C363.008 44.084 363.405 44.168 363.769 44.336C364.133 44.4947 364.45 44.7327 364.721 45.05V44.168H365.729V51.434C365.729 52.2833 365.482 52.932 364.987 53.38C364.492 53.8373 363.778 54.066 362.845 54.066ZM362.775 50.202C363.176 50.202 363.545 50.1227 363.881 49.964C364.217 49.796 364.492 49.5673 364.707 49.278V45.904C364.483 45.6147 364.198 45.3907 363.853 45.232C363.517 45.064 363.158 44.98 362.775 44.98C362.318 44.98 361.907 45.092 361.543 45.316C361.188 45.54 360.904 45.848 360.689 46.24C360.484 46.632 360.381 47.08 360.381 47.584C360.381 48.0787 360.484 48.5267 360.689 48.928C360.904 49.32 361.188 49.6327 361.543 49.866C361.907 50.09 362.318 50.202 362.775 50.202Z" fill="#151515"/>
<rect x="383" y="32" width="67" height="29" rx="14.5" fill="white"/>
<path d="M396.768 51.154C396.068 51.154 395.415 51.028 394.808 50.776C394.211 50.5147 393.683 50.1553 393.226 49.698C392.769 49.2313 392.414 48.6947 392.162 48.088C391.91 47.472 391.784 46.8093 391.784 46.1C391.784 45.3907 391.91 44.7327 392.162 44.126C392.414 43.51 392.769 42.9733 393.226 42.516C393.683 42.0493 394.211 41.69 394.808 41.438C395.415 41.1767 396.068 41.046 396.768 41.046C397.253 41.046 397.715 41.1113 398.154 41.242C398.602 41.3633 399.022 41.5453 399.414 41.788C399.806 42.0213 400.156 42.3107 400.464 42.656L399.75 43.398C399.386 42.9593 398.938 42.6233 398.406 42.39C397.883 42.1473 397.337 42.026 396.768 42.026C396.217 42.026 395.704 42.1287 395.228 42.334C394.752 42.5393 394.337 42.8287 393.982 43.202C393.637 43.5753 393.366 44.0093 393.17 44.504C392.974 44.9893 392.876 45.5213 392.876 46.1C392.876 46.6693 392.974 47.2013 393.17 47.696C393.366 48.1907 393.637 48.6247 393.982 48.998C394.337 49.3713 394.752 49.6607 395.228 49.866C395.704 50.0713 396.217 50.174 396.768 50.174C397.337 50.174 397.883 50.0527 398.406 49.81C398.938 49.5673 399.386 49.2313 399.75 48.802L400.464 49.544C400.156 49.8893 399.806 50.1833 399.414 50.426C399.022 50.6593 398.602 50.8413 398.154 50.972C397.715 51.0933 397.253 51.154 396.768 51.154ZM402.208 51V40.892L403.23 40.682V51H402.208ZM408.405 51.14C407.771 51.14 407.197 50.986 406.683 50.678C406.17 50.3607 405.764 49.936 405.465 49.404C405.167 48.8627 405.017 48.256 405.017 47.584C405.017 46.912 405.157 46.31 405.437 45.778C405.727 45.246 406.114 44.826 406.599 44.518C407.085 44.21 407.626 44.056 408.223 44.056C408.83 44.056 409.367 44.21 409.833 44.518C410.309 44.8167 410.683 45.2273 410.953 45.75C411.233 46.2633 411.373 46.8467 411.373 47.5V47.808H406.011C406.049 48.2747 406.175 48.6947 406.389 49.068C406.613 49.432 406.903 49.7213 407.257 49.936C407.621 50.1413 408.018 50.244 408.447 50.244C408.802 50.244 409.143 50.1833 409.469 50.062C409.805 49.9313 410.09 49.7587 410.323 49.544L410.967 50.23C410.575 50.538 410.169 50.7667 409.749 50.916C409.329 51.0653 408.881 51.14 408.405 51.14ZM406.039 47.08H410.365C410.319 46.6693 410.193 46.3053 409.987 45.988C409.791 45.6613 409.539 45.4047 409.231 45.218C408.933 45.0313 408.597 44.938 408.223 44.938C407.85 44.938 407.509 45.0313 407.201 45.218C406.893 45.3953 406.637 45.6473 406.431 45.974C406.235 46.2913 406.105 46.66 406.039 47.08ZM415.096 51.126C414.61 51.126 414.181 51.0373 413.808 50.86C413.434 50.6827 413.14 50.44 412.926 50.132C412.72 49.8147 412.618 49.4507 412.618 49.04C412.618 48.6293 412.725 48.2747 412.94 47.976C413.154 47.668 413.453 47.43 413.836 47.262C414.218 47.094 414.666 47.01 415.18 47.01C415.572 47.01 415.94 47.052 416.286 47.136C416.64 47.22 416.967 47.3553 417.266 47.542V46.604C417.266 46.044 417.116 45.624 416.818 45.344C416.519 45.0547 416.08 44.91 415.502 44.91C415.184 44.91 414.858 44.9567 414.522 45.05C414.195 45.1433 413.831 45.2927 413.43 45.498L413.052 44.714C413.966 44.2753 414.825 44.056 415.628 44.056C416.477 44.056 417.13 44.266 417.588 44.686C418.045 45.0967 418.274 45.6893 418.274 46.464V51H417.266V50.202C416.967 50.51 416.636 50.7433 416.272 50.902C415.908 51.0513 415.516 51.126 415.096 51.126ZM413.598 49.012C413.598 49.4133 413.752 49.7353 414.06 49.978C414.377 50.2207 414.792 50.342 415.306 50.342C415.688 50.342 416.038 50.2767 416.356 50.146C416.682 50.0153 416.986 49.8193 417.266 49.558V48.242C416.976 48.074 416.678 47.9527 416.37 47.878C416.062 47.794 415.716 47.752 415.334 47.752C414.811 47.752 414.391 47.8687 414.074 48.102C413.756 48.326 413.598 48.6293 413.598 49.012ZM420.351 51V44.168H421.373V45.568C421.55 45.092 421.802 44.7233 422.129 44.462C422.465 44.1913 422.847 44.056 423.277 44.056C423.398 44.056 423.51 44.0653 423.613 44.084C423.715 44.0933 423.818 44.1167 423.921 44.154V45.078C423.809 45.0407 423.687 45.0127 423.557 44.994C423.435 44.966 423.319 44.952 423.207 44.952C422.787 44.952 422.418 45.0733 422.101 45.316C421.793 45.5587 421.55 45.8993 421.373 46.338V51H420.351ZM430.654 51.126C430.169 51.126 429.74 51.0373 429.366 50.86C428.993 50.6827 428.699 50.44 428.484 50.132C428.279 49.8147 428.176 49.4507 428.176 49.04C428.176 48.6293 428.284 48.2747 428.498 47.976C428.713 47.668 429.012 47.43 429.394 47.262C429.777 47.094 430.225 47.01 430.738 47.01C431.13 47.01 431.499 47.052 431.844 47.136C432.199 47.22 432.526 47.3553 432.824 47.542V46.604C432.824 46.044 432.675 45.624 432.376 45.344C432.078 45.0547 431.639 44.91 431.06 44.91C430.743 44.91 430.416 44.9567 430.08 45.05C429.754 45.1433 429.39 45.2927 428.988 45.498L428.61 44.714C429.525 44.2753 430.384 44.056 431.186 44.056C432.036 44.056 432.689 44.266 433.146 44.686C433.604 45.0967 433.832 45.6893 433.832 46.464V51H432.824V50.202C432.526 50.51 432.194 50.7433 431.83 50.902C431.466 51.0513 431.074 51.126 430.654 51.126ZM429.156 49.012C429.156 49.4133 429.31 49.7353 429.618 49.978C429.936 50.2207 430.351 50.342 430.864 50.342C431.247 50.342 431.597 50.2767 431.914 50.146C432.241 50.0153 432.544 49.8193 432.824 49.558V48.242C432.535 48.074 432.236 47.9527 431.928 47.878C431.62 47.794 431.275 47.752 430.892 47.752C430.37 47.752 429.95 47.8687 429.632 48.102C429.315 48.326 429.156 48.6293 429.156 49.012ZM435.909 51V40.892L436.931 40.682V51H435.909ZM439.027 51V40.892L440.049 40.682V51H439.027Z" fill="#0066CC"/>
</svg>
