<svg xmlns="http://www.w3.org/2000/svg" width="768" height="392"><defs><style>.e,.j{fill:#fff}.c{fill:#341974}.d{fill:#8a8d90}.e{font-size:10px;font-family:RedHatText-Medium,Red Hat Text;font-weight:500;letter-spacing:.04em}.k,.l,.n{fill:none}.h{fill:#e00}.k,.l{stroke:#fff}.k{stroke-linecap:round}.k,.l{stroke-miterlimit:10;stroke-width:1.4px}.o{stroke:none}</style></defs><g fill="#fff" stroke="#d2d2d2"><path d="M0 0h768v392H0z" class="o"/><path d="M.5.5h767v391H.5z" class="n"/></g><path fill="#f5f5f5" d="M1 104h766v256H1z"/><path d="M365 296h64v64h-64z" class="c"/><path d="M677 223h18v18h-18z" class="d"/><text class="e" transform="translate(681 236)"><tspan x="0" y="0">18</tspan></text><path d="M617 223h18v18h-18z" class="d"/><text class="e" transform="translate(621 236)"><tspan x="0" y="0">18</tspan></text><path d="M556 223h18v18h-18z" class="d"/><text class="e" transform="translate(560 236)"><tspan x="0" y="0">18</tspan></text><path d="M496 223h18v18h-18z" class="d"/><text class="e" transform="translate(500 236)"><tspan x="0" y="0">18</tspan></text><path d="M435 223h18v18h-18z" class="d"/><text class="e" transform="translate(439 236)"><tspan x="0" y="0">18</tspan></text><path d="M375 223h18v18h-18z" class="d"/><text class="e" transform="translate(379 236)"><tspan x="0" y="0">18</tspan></text><g><path d="M314 223h18v18h-18z" class="d"/><text class="e" transform="translate(318 236)"><tspan x="0" y="0">18</tspan></text></g><g><path d="M254 223h18v18h-18z" class="d"/><text class="e" transform="translate(258 236)"><tspan x="0" y="0">18</tspan></text></g><g><path d="M194 223h18v18h-18z" class="d"/><text class="e" transform="translate(198 236)"><tspan x="0" y="0">18</tspan></text></g><g><path d="M134 223h18v18h-18z" class="d"/><text class="e" transform="translate(138 236)"><tspan x="0" y="0">18</tspan></text></g><g><path d="M73 223h18v18H73z" class="d"/><text class="e" transform="translate(77 236)"><tspan x="0" y="0">18</tspan></text></g><g fill="none" stroke="#f0f" opacity=".25"><path d="M30 168h708v128H30z" class="o"/><path d="M30.5 168.5h707v127h-707z" class="n"/></g><g><path d="M365 104h64v64h-64z" class="c"/></g><g opacity=".03"><path d="M695.5 72h42.3v320h-42.3zM635 72h42.3v320H635zM574.5 72h42.3v320h-42.3zM514 72h42.3v320H514zM453.5 72h42.3v320h-42.3zM393 72h42.3v320H393zM332.5 72h42.3v320h-42.3zM272 72h42.3v320H272zM211.5 72h42.3v320h-42.3zM151 72h42.3v320H151zM90.5 72h42.3v320H90.5zM30 72h42.3v320H30z" class="h"/></g><g><path fill="#151515" d="M0 0h768v72H0z"/><path d="M692.07 53h5.66v-.82H693V44.6h-.92zm6.57-2.93a2.9 2.9 0 002.85 3.05 2.9 2.9 0 002.85-3.05 2.87 2.87 0 00-2.85-3.02 2.87 2.87 0 00-2.85 3.02zm2.85 2.27a2.06 2.06 0 01-1.98-2.26 2.08 2.08 0 011.98-2.26 2.1 2.1 0 011.99 2.26 2.08 2.08 0 01-2 2.26zm6.84.73a2.3 2.3 0 001.87-.86v1.1c0 .98-.56 1.5-1.63 1.5a3.94 3.94 0 01-1.87-.54l-.38.67a4.7 4.7 0 002.28.61c1.6 0 2.48-.8 2.48-2.25v-6.16h-.87v.76a2.36 2.36 0 00-1.83-.83 2.85 2.85 0 00-2.75 3 2.83 2.83 0 002.7 3zm-1.84-3a2.09 2.09 0 012.05-2.23 2.1 2.1 0 011.66.8v2.88a2.02 2.02 0 01-1.66.8 2.1 2.1 0 01-2.05-2.25zm9.63-4.37a.62.62 0 00.62-.64.64.64 0 00-.62-.62.64.64 0 00-.64.62.63.63 0 00.64.64zm.43 1.44h-.88V53h.88zm1.8 5.86h.87v-4.32a1.73 1.73 0 011.54-.9 1.52 1.52 0 011.57 1.68V53h.88v-3.8a2.04 2.04 0 00-2.13-2.15 2.11 2.11 0 00-1.86 1.04v-.95h-.87z" class="j"/><g transform="translate(699 18)"><path d="M0 18a9 9 0 0118 0" class="k"/><circle cx="4.5" cy="4.5" r="4.5" class="l" transform="translate(4.5)"/></g><path d="M608.1 53h.98l1-2.64h3.74l1 2.64h1l-3.28-8.4h-1.1zm2.26-3.37l1.59-4.2 1.6 4.2zm7.34-5.39l-.88.18V53h.88zm2.68 0l-.88.18V53h.88zm4.76 8.76h.92v-3.59h2.5l1.71 3.59h1.02l-1.79-3.7a2.29 2.29 0 001.75-2.28 2.42 2.42 0 00-2.67-2.42h-3.44zm3.37-7.58a1.62 1.62 0 011.82 1.62 1.62 1.62 0 01-1.82 1.6h-2.45v-3.22zm8.76 6.9l-.55-.58a2.4 2.4 0 01-1.61.6 2.13 2.13 0 01-2.09-2.08h4.6V50a2.77 2.77 0 00-2.69-2.95 2.85 2.85 0 00-2.76 3.02 2.92 2.92 0 002.9 3.04 3.42 3.42 0 002.2-.78zm-2.35-4.52a1.93 1.93 0 011.83 1.84h-3.7a1.96 1.96 0 011.87-1.84zm8.52 5.2h.87v-8.76l-.87.18v3.47a2.38 2.38 0 00-1.83-.82 2.85 2.85 0 00-2.75 3.01 2.83 2.83 0 002.7 3 2.3 2.3 0 001.88-.86zm-3.71-2.93a2.09 2.09 0 012.05-2.23 2.1 2.1 0 011.66.8v2.9a2 2 0 01-1.66.77 2.1 2.1 0 01-2.05-2.24zm9.33 2.93h.93v-3.82h4.82V53h.93v-8.4h-.93v3.76H650V44.6h-.93zm10.31.1a2.51 2.51 0 001.86-.78V53h.87v-3.89c0-1.33-.82-2.06-2.27-2.06a5.02 5.02 0 00-2.2.56l.32.67a3.87 3.87 0 011.77-.5 1.32 1.32 0 011.52 1.46v.8a3.4 3.4 0 00-1.8-.46c-1.31 0-2.2.7-2.2 1.74a1.9 1.9 0 002.13 1.79zm-1.28-1.8c0-.65.59-1.08 1.49-1.08a3.1 3.1 0 011.65.42v1.13a2.32 2.32 0 01-1.68.67c-.87 0-1.46-.46-1.46-1.14zm6.3.38c0 .94.53 1.43 1.53 1.43a3.29 3.29 0 001.02-.15v-.78a2.1 2.1 0 01-.82.15c-.62 0-.86-.25-.86-.87v-3.6h1.68v-.72h-1.68v-1.8l-.87.2v1.6h-1.21v.72h1.2zM630.22 25.26a1.97 1.97 0 00-.65.45 1.7 1.7 0 00-.43.63 1.83 1.83 0 00-.14.63 1.99 1.99 0 00.56 1.36 1.96 1.96 0 001.37.54 1.83 1.83 0 001.35-.56 1.92 1.92 0 00.1-2.29 1.94 1.94 0 00-2.17-.76zm0 7.05a1.97 1.97 0 00-.65.44 1.7 1.7 0 00-.43.63 1.83 1.83 0 00-.14.71 1.99 1.99 0 00.56 1.37 1.94 1.94 0 001.37.54 1.83 1.83 0 001.35-.56 1.92 1.92 0 00.22-2.39 1.94 1.94 0 00-2.3-.74zm14.86-10.45a1.89 1.89 0 001.35-.56 1.83 1.83 0 00.56-1.36 1.86 1.86 0 00-.44-1.35 1.92 1.92 0 00-2.75-.01 1.84 1.84 0 00-.43.64 2.1 2.1 0 00-.14.7 1.94 1.94 0 001.85 1.94zm-14.86-3.73a1.97 1.97 0 00-.65.45 1.84 1.84 0 00-.43.64 1.7 1.7 0 00-.14.7 1.92 1.92 0 001.93 1.92 1.9 1.9 0 001.36-.56 1.94 1.94 0 00.58-1.36 1.87 1.87 0 00-.55-1.33 1.94 1.94 0 00-2.1-.46zm14.16 7.13a1.95 1.95 0 00-.67.45 1.92 1.92 0 00-.43.63 2.2 2.2 0 00-.15.63 1.92 1.92 0 001.93 1.9 1.87 1.87 0 001.38-.54 1.85 1.85 0 00.55-1.37 1.83 1.83 0 00-.44-1.32 1.9 1.9 0 00-2.17-.38zm-7.08 6.96a2.02 2.02 0 00-1.1 1.08 2.2 2.2 0 00-.14.71 1.92 1.92 0 00.57 1.34 1.87 1.87 0 001.37.57 1.9 1.9 0 001.36-.56 1.93 1.93 0 00.02-2.68 1.94 1.94 0 00-2.08-.46zm0-14.09a1.88 1.88 0 00-.67.45 1.94 1.94 0 00-.34.64 2.1 2.1 0 00-.14.7 1.93 1.93 0 001.85 1.94 1.9 1.9 0 001.37-.56 1.88 1.88 0 00.54-1.38 1.87 1.87 0 00-.53-1.32 1.94 1.94 0 00-2.08-.46zm7.08 14.1a1.95 1.95 0 00-.67.44 1.92 1.92 0 00-.43.62 2.2 2.2 0 00-.13.72 1.92 1.92 0 103.85 0 1.83 1.83 0 00-.53-1.33 1.94 1.94 0 00-2.1-.46zm-7.08-6.97a1.72 1.72 0 00-1.01 1 2.2 2.2 0 00-.23.7 1.98 1.98 0 003.12 1.6 1.9 1.9 0 00.52-2.48 1.92 1.92 0 00-2.4-.81zM546.97 52.3a3.36 3.36 0 01-3.36-3.5 3.36 3.36 0 013.33-3.5 3.37 3.37 0 012.56 1.18l.61-.63a4.2 4.2 0 00-3.17-1.38 4.26 4.26 0 00-4.27 4.33 4.26 4.26 0 004.27 4.33 4.22 4.22 0 003.15-1.38l-.6-.61a3.3 3.3 0 01-2.52 1.15zm5.31-5.16h-.88v3.78a2.05 2.05 0 002.12 2.18 2.1 2.1 0 001.86-1.05V53h.88v-5.86h-.88v4.34a1.74 1.74 0 01-1.54.88 1.51 1.51 0 01-1.56-1.69zm5.21 5.1a3.34 3.34 0 002.38.87 2.05 2.05 0 002.28-1.81c0-.86-.53-1.36-1.7-1.57l-.99-.18c-.75-.13-1-.36-1-.84 0-.58.5-.94 1.27-.94a3.1 3.1 0 011.83.63l.44-.62a3.79 3.79 0 00-2.24-.73c-1.23 0-2.1.71-2.1 1.72 0 .85.5 1.33 1.65 1.53l.96.17c.74.15 1.05.4 1.05.88 0 .6-.62 1.05-1.48 1.05a3.05 3.05 0 01-1.88-.73zm6.57-.56c0 .94.52 1.43 1.53 1.43a3.29 3.29 0 001.02-.16v-.78a2.1 2.1 0 01-.83.16c-.6 0-.85-.25-.85-.88v-3.59h1.68v-.72h-1.68v-1.8l-.87.2v1.6h-1.22v.72h1.22zm3.43-1.6a2.9 2.9 0 002.84 3.04 2.9 2.9 0 002.86-3.05 2.87 2.87 0 00-2.86-3.02 2.87 2.87 0 00-2.84 3.02zm2.84 2.26a2.06 2.06 0 01-1.98-2.26 2.08 2.08 0 011.98-2.26 2.1 2.1 0 012 2.26 2.08 2.08 0 01-2 2.26zm4.4.66h.87v-4.36a1.6 1.6 0 011.43-.86 1.46 1.46 0 011.45 1.66V53h.88v-3.78a2.43 2.43 0 00-.05-.52 1.63 1.63 0 011.46-.92c.89 0 1.44.64 1.44 1.66V53h.88v-3.78a2 2 0 00-1.99-2.17 2.16 2.16 0 00-1.96 1.14 1.93 1.93 0 00-1.8-1.14 2 2 0 00-1.74 1v-.9h-.88z" class="j"/><g fill="none" stroke="#fff" stroke-width="1.3" transform="translate(554 18)"><circle cx="9" cy="9" r="9" class="o"/><circle cx="9" cy="9" r="8.35" class="n"/></g><g><path d="M481.34 51.7a4.83 4.83 0 003.44 1.42c1.85 0 3.2-1.08 3.2-2.53 0-1.26-.78-1.93-2.56-2.26l-1.35-.23c-1.13-.18-1.58-.56-1.58-1.3 0-.88.83-1.52 2-1.52a4.75 4.75 0 012.83 1l.48-.72a5.5 5.5 0 00-3.32-1.07c-1.7 0-2.88.99-2.88 2.4 0 1.13.68 1.77 2.22 2.04l1.36.23c1.36.24 1.87.64 1.87 1.48 0 .97-.95 1.69-2.25 1.69a3.91 3.91 0 01-2.9-1.31zm13 .63l-.56-.59a2.4 2.4 0 01-1.6.6 2.13 2.13 0 01-2.1-2.08h4.6V50a2.77 2.77 0 00-2.68-2.95 2.85 2.85 0 00-2.76 3.02 2.92 2.92 0 002.9 3.04 3.42 3.42 0 002.2-.78zm-2.36-4.53a1.93 1.93 0 011.84 1.84h-3.71a1.96 1.96 0 011.87-1.84zm5.92 5.3a2.51 2.51 0 001.86-.78V53h.86v-3.89c0-1.33-.81-2.06-2.26-2.06a5.02 5.02 0 00-2.21.56l.32.67a3.87 3.87 0 011.78-.5 1.32 1.32 0 011.51 1.46v.8a3.4 3.4 0 00-1.79-.46c-1.32 0-2.2.7-2.2 1.74a1.9 1.9 0 002.13 1.79zm-1.29-1.8c0-.65.59-1.08 1.49-1.08a3.1 3.1 0 011.66.42v1.13a2.32 2.32 0 01-1.68.67c-.88 0-1.47-.46-1.47-1.14zm5.79 1.7h.88v-4a1.67 1.67 0 011.56-1.2 2.19 2.19 0 01.62.1v-.78a1.66 1.66 0 00-.56-.08 1.75 1.75 0 00-1.63 1.3v-1.2h-.87zm6.53-.68a2.12 2.12 0 01-2.07-2.25 2.13 2.13 0 012.05-2.23 2.3 2.3 0 011.66.73l.56-.61a3.2 3.2 0 00-2.25-.91 2.92 2.92 0 00-2.9 3.02 2.94 2.94 0 002.9 3.04 3.05 3.05 0 002.22-.95l-.54-.54a2.16 2.16 0 01-1.64.7zm3.43.68h.87v-4.32a1.73 1.73 0 011.54-.9 1.52 1.52 0 011.57 1.68V53h.88v-3.8a2.04 2.04 0 00-2.13-2.15 2.11 2.11 0 00-1.86 1.04v-3.85l-.87.18z" class="j"/><path d="M509 36l-6-6" class="k"/><g class="l" transform="translate(491 18)"><circle cx="7" cy="7" r="7" class="o"/><circle cx="7" cy="7" r="6.3" class="n"/></g></g><g><path d="M235.16 52.4l3.22-6.7V53h.87v-8.4h-1.28l-2.81 5.98-2.8-5.98h-1.3V53h.87v-7.33zm10.9-.07l-.54-.59a2.4 2.4 0 01-1.61.6 2.13 2.13 0 01-2.09-2.08h4.6V50a2.77 2.77 0 00-2.69-2.95 2.85 2.85 0 00-2.76 3.02 2.92 2.92 0 002.9 3.04 3.42 3.42 0 002.2-.78zm-2.34-4.53a1.93 1.93 0 011.83 1.84h-3.7a1.96 1.96 0 011.87-1.84zm4.2 5.2h.87v-4.32a1.73 1.73 0 011.54-.9 1.52 1.52 0 011.57 1.68V53h.88v-3.8a2.04 2.04 0 00-2.13-2.15 2.11 2.11 0 00-1.86 1.04v-.95h-.87zm7.41-5.86h-.89v3.78a2.05 2.05 0 002.13 2.18 2.1 2.1 0 001.86-1.04V53h.87v-5.86h-.88v4.34a1.74 1.74 0 01-1.53.88 1.51 1.51 0 01-1.56-1.69z" class="j"/><path d="M236 18h18v18h-18z" class="n"/><path d="M236 34h18M236 27h18M236 20h18" class="k"/></g><g><path d="M185.37 41.36c0 3.14 1.9 4.67 5.35 4.67a14.18 14.18 0 003.15-.45v-3.64a6.71 6.71 0 01-2.04.31c-1.43 0-1.96-.45-1.96-1.76v-5.6H194v-3.75h-4.13V26.4l-4.5.98v3.77h-3v3.75h2.97v6.47zm-14.04.08c0-.98.98-1.45 2.47-1.45a10.19 10.19 0 012.67.34v1.9a5.53 5.53 0 01-2.8.68c-1.46 0-2.34-.55-2.34-1.47m1.38 4.64a7.08 7.08 0 004.08-1.13v.9h4.45v-9.43c0-3.6-2.41-5.54-6.46-5.54a16.54 16.54 0 00-6.89 1.6l1.62 3.3a12.22 12.22 0 014.44-1.16c1.86 0 2.81.72 2.81 2.2v.7a13 13 0 00-3.33-.41c-3.8 0-6.07 1.58-6.07 4.4 0 2.59 2.07 4.57 5.35 4.57m-24.47-.24h4.8v-7.62h8.02v7.6h4.8V26.39h-4.8v7.47h-8.02V26.4h-4.8zM130 38.48a3.72 3.72 0 013.86-3.72 4.7 4.7 0 013.13 1.13v5.15a4.4 4.4 0 01-3.13 1.18 3.78 3.78 0 01-3.86-3.74m7.04 7.36h4.45V25.42l-4.5.97v5.52a7.57 7.57 0 10-4.02 14.1h.13a6.76 6.76 0 003.94-1.28zm-20.44-11.3a3.27 3.27 0 013.1 2.33h-6.14a3.06 3.06 0 013.04-2.32M109 38.5a7.71 7.71 0 008.03 7.6 8.78 8.78 0 006.14-2.22l-3-2.64a4 4 0 01-2.93 1.1 3.8 3.8 0 01-3.63-2.31h10.49v-1.11c0-4.67-3.15-8.02-7.44-8.02a7.55 7.55 0 00-7.68 7.41.39.39 0 01.02.19m-7.75-8.02a2.2 2.2 0 110 4.38H96.5v-4.38zM91.7 45.82h4.8v-7.08h3.65l3.68 7.08h5.35l-4.3-7.79a5.89 5.89 0 003.69-5.46c0-3.48-2.75-6.2-6.89-6.2h-9.98z" class="j"/><path d="M65.63 38.9c3.3 0 8.1-.69 8.1-4.62a5.14 5.14 0 00-.08-.9l-1.96-8.55c-.45-1.87-.85-2.74-4.16-4.38-2.56-1.31-8.15-3.45-9.82-3.45-1.56 0-2.01 1.98-3.84 1.98-1.77 0-3.07-1.48-4.74-1.48-1.59 0-2.62 1.08-3.41 3.3 0 0-2.23 6.25-2.52 7.18a1.62 1.62 0 00-.05.5c-.03 2.43 9.58 10.4 22.48 10.42m8.6-3a13.57 13.57 0 01.45 2.66c0 3.7-4.15 5.75-9.63 5.75-12.4 0-23.23-7.23-23.23-12a4.83 4.83 0 01.4-1.93c-4.45.21-10.22 1-10.22 6.07C32 44.76 51.75 55 67.38 55c12 0 15.01-5.41 15.01-9.69 0-3.35-2.91-7.15-8.16-9.42" class="h"/><path d="M74.23 35.9a13.57 13.57 0 01.45 2.66c0 3.7-4.15 5.75-9.63 5.75-12.4 0-23.23-7.23-23.23-12a4.83 4.83 0 01.4-1.93l.98-2.4a1.62 1.62 0 00-.05.5c0 2.43 9.61 10.4 22.48 10.4 3.31 0 8.1-.69 8.1-4.62a5.14 5.14 0 00-.08-.9z"/></g></g></svg>