<svg width="297" height="53" viewBox="0 0 297 53" fill="none" xmlns="http://www.w3.org/2000/svg">
<path d="M3.232 45V35.2H4.31V39.582H9.938V35.2H11.016V45H9.938V40.548H4.31V45H3.232ZM16.3279 45.112C15.6932 45.112 15.1239 44.958 14.6199 44.65C14.1159 44.342 13.7192 43.922 13.4299 43.39C13.1406 42.858 12.9959 42.256 12.9959 41.584C12.9959 40.912 13.1406 40.31 13.4299 39.778C13.7192 39.246 14.1159 38.826 14.6199 38.518C15.1239 38.21 15.6932 38.056 16.3279 38.056C16.9532 38.056 17.5132 38.21 18.0079 38.518C18.5119 38.826 18.9086 39.246 19.1979 39.778C19.4872 40.31 19.6319 40.912 19.6319 41.584C19.6319 42.256 19.4872 42.858 19.1979 43.39C18.9086 43.922 18.5119 44.342 18.0079 44.65C17.5132 44.958 16.9532 45.112 16.3279 45.112ZM16.3139 44.216C16.7619 44.216 17.1586 44.104 17.5039 43.88C17.8492 43.6467 18.1199 43.3293 18.3159 42.928C18.5212 42.5267 18.6239 42.0787 18.6239 41.584C18.6239 41.08 18.5212 40.632 18.3159 40.24C18.1199 39.8387 17.8492 39.526 17.5039 39.302C17.1586 39.0687 16.7619 38.952 16.3139 38.952C15.8659 38.952 15.4692 39.0687 15.1239 39.302C14.7786 39.526 14.5032 39.8387 14.2979 40.24C14.1019 40.632 14.0039 41.08 14.0039 41.584C14.0039 42.0787 14.1019 42.5267 14.2979 42.928C14.5032 43.3293 14.7786 43.6467 15.1239 43.88C15.4692 44.104 15.8659 44.216 16.3139 44.216ZM21.425 45V38.168H22.447V39.232C22.7083 38.84 23.007 38.546 23.343 38.35C23.679 38.154 24.057 38.056 24.477 38.056C24.9623 38.056 25.387 38.1773 25.751 38.42C26.115 38.6533 26.3903 38.9753 26.577 39.386C26.8477 38.9473 27.1697 38.616 27.543 38.392C27.9257 38.168 28.3643 38.056 28.859 38.056C29.3163 38.056 29.7177 38.1633 30.063 38.378C30.4177 38.5927 30.693 38.8913 30.889 39.274C31.085 39.6473 31.183 40.086 31.183 40.59V45H30.161V40.842C30.161 40.2447 30.0117 39.7733 29.713 39.428C29.4143 39.0827 29.0037 38.91 28.481 38.91C28.1263 38.91 27.8043 38.9987 27.515 39.176C27.235 39.3533 26.9877 39.624 26.773 39.988C26.7917 40.0813 26.8057 40.1793 26.815 40.282C26.8243 40.3847 26.829 40.4873 26.829 40.59V45H25.807V40.842C25.807 40.2447 25.653 39.7733 25.345 39.428C25.0463 39.0827 24.6357 38.91 24.113 38.91C23.413 38.91 22.8577 39.246 22.447 39.918V45H21.425ZM36.3312 45.14C35.6965 45.14 35.1225 44.986 34.6092 44.678C34.0958 44.3607 33.6898 43.936 33.3912 43.404C33.0925 42.8627 32.9432 42.256 32.9432 41.584C32.9432 40.912 33.0832 40.31 33.3632 39.778C33.6525 39.246 34.0398 38.826 34.5252 38.518C35.0105 38.21 35.5518 38.056 36.1492 38.056C36.7558 38.056 37.2925 38.21 37.7592 38.518C38.2352 38.8167 38.6085 39.2273 38.8792 39.75C39.1592 40.2633 39.2992 40.8467 39.2992 41.5V41.808H33.9372C33.9745 42.2747 34.1005 42.6947 34.3152 43.068C34.5392 43.432 34.8285 43.7213 35.1832 43.936C35.5472 44.1413 35.9438 44.244 36.3732 44.244C36.7278 44.244 37.0685 44.1833 37.3952 44.062C37.7312 43.9313 38.0158 43.7587 38.2492 43.544L38.8932 44.23C38.5012 44.538 38.0952 44.7667 37.6752 44.916C37.2552 45.0653 36.8072 45.14 36.3312 45.14ZM33.9652 41.08H38.2912C38.2445 40.6693 38.1185 40.3053 37.9132 39.988C37.7172 39.6613 37.4652 39.4047 37.1572 39.218C36.8585 39.0313 36.5225 38.938 36.1492 38.938C35.7758 38.938 35.4352 39.0313 35.1272 39.218C34.8192 39.3953 34.5625 39.6473 34.3572 39.974C34.1612 40.2913 34.0305 40.66 33.9652 41.08Z" fill="#003366"/>
<path d="M2 48.5H39.9992V49.9H2V48.5Z" fill="#003366"/>
<path d="M59.8569 46.5L58.1426 44.7857L62.4284 40.5L58.1426 36.2143L59.8569 34.5L65.8569 40.5L59.8569 46.5Z" fill="#151515"/>
<path d="M85.246 45V35.2H86.324V44.048H91.854V45H85.246ZM93.5399 45V38.168H94.5619V45H93.5399ZM94.0579 36.474C93.8526 36.474 93.6752 36.404 93.5259 36.264C93.3859 36.1147 93.3159 35.942 93.3159 35.746C93.3159 35.55 93.3859 35.382 93.5259 35.242C93.6752 35.0927 93.8526 35.018 94.0579 35.018C94.2632 35.018 94.4359 35.0927 94.5759 35.242C94.7252 35.382 94.7999 35.55 94.7999 35.746C94.7999 35.942 94.7252 36.1147 94.5759 36.264C94.4359 36.404 94.2632 36.474 94.0579 36.474ZM96.6574 45V38.168H97.6794V39.274C97.9408 38.8633 98.2534 38.56 98.6174 38.364C98.9814 38.1587 99.3921 38.056 99.8494 38.056C100.344 38.056 100.773 38.1633 101.137 38.378C101.511 38.5833 101.8 38.8773 102.005 39.26C102.22 39.6333 102.327 40.072 102.327 40.576V45H101.305V40.87C101.305 40.2633 101.137 39.7873 100.801 39.442C100.475 39.0873 100.031 38.91 99.4714 38.91C99.0981 38.91 98.7574 38.9987 98.4494 39.176C98.1414 39.3533 97.8848 39.6147 97.6794 39.96V45H96.6574ZM104.382 45V34.892L105.404 34.682V41.234L108.652 38.168H109.884L106.412 41.416L110.038 45H108.694L105.404 41.738V45H104.382Z" fill="#003366"/>
<path d="M84 48.5H110.178V49.9H84V48.5Z" fill="#003366"/>
<path d="M130.857 46.5L129.143 44.7857L133.428 40.5L129.143 36.2143L130.857 34.5L136.857 40.5L130.857 46.5Z" fill="#151515"/>
<path d="M156.246 45V35.2H157.324V44.048H162.854V45H156.246ZM164.54 45V38.168H165.562V45H164.54ZM165.058 36.474C164.853 36.474 164.675 36.404 164.526 36.264C164.386 36.1147 164.316 35.942 164.316 35.746C164.316 35.55 164.386 35.382 164.526 35.242C164.675 35.0927 164.853 35.018 165.058 35.018C165.263 35.018 165.436 35.0927 165.576 35.242C165.725 35.382 165.8 35.55 165.8 35.746C165.8 35.942 165.725 36.1147 165.576 36.264C165.436 36.404 165.263 36.474 165.058 36.474ZM167.657 45V38.168H168.679V39.274C168.941 38.8633 169.253 38.56 169.617 38.364C169.981 38.1587 170.392 38.056 170.849 38.056C171.344 38.056 171.773 38.1633 172.137 38.378C172.511 38.5833 172.8 38.8773 173.005 39.26C173.22 39.6333 173.327 40.072 173.327 40.576V45H172.305V40.87C172.305 40.2633 172.137 39.7873 171.801 39.442C171.475 39.0873 171.031 38.91 170.471 38.91C170.098 38.91 169.757 38.9987 169.449 39.176C169.141 39.3533 168.885 39.6147 168.679 39.96V45H167.657ZM175.382 45V34.892L176.404 34.682V41.234L179.652 38.168H180.884L177.412 41.416L181.038 45H179.694L176.404 41.738V45H175.382Z" fill="#003366"/>
<path d="M155 48.5H181.178V49.9H155V48.5Z" fill="#003366"/>
<path d="M201.857 46.5L200.143 44.7857L204.428 40.5L200.143 36.2143L201.857 34.5L207.857 40.5L201.857 46.5Z" fill="#151515"/>
<path d="M227.246 45V35.2H231.292C231.927 35.2 232.477 35.3213 232.944 35.564C233.411 35.7973 233.77 36.1333 234.022 36.572C234.283 37.0013 234.414 37.51 234.414 38.098C234.414 38.6767 234.283 39.1853 234.022 39.624C233.77 40.0627 233.411 40.4033 232.944 40.646C232.477 40.8793 231.927 40.996 231.292 40.996H228.324V45H227.246ZM228.324 40.072H231.166C231.847 40.072 232.379 39.8947 232.762 39.54C233.145 39.1853 233.336 38.7047 233.336 38.098C233.336 37.4913 233.145 37.0153 232.762 36.67C232.379 36.3247 231.847 36.152 231.166 36.152H228.324V40.072ZM237.969 45.126C237.483 45.126 237.054 45.0373 236.681 44.86C236.307 44.6827 236.013 44.44 235.799 44.132C235.593 43.8147 235.491 43.4507 235.491 43.04C235.491 42.6293 235.598 42.2747 235.813 41.976C236.027 41.668 236.326 41.43 236.709 41.262C237.091 41.094 237.539 41.01 238.053 41.01C238.445 41.01 238.813 41.052 239.159 41.136C239.513 41.22 239.84 41.3553 240.139 41.542V40.604C240.139 40.044 239.989 39.624 239.691 39.344C239.392 39.0547 238.953 38.91 238.375 38.91C238.057 38.91 237.731 38.9567 237.395 39.05C237.068 39.1433 236.704 39.2927 236.303 39.498L235.925 38.714C236.839 38.2753 237.698 38.056 238.501 38.056C239.35 38.056 240.003 38.266 240.461 38.686C240.918 39.0967 241.147 39.6893 241.147 40.464V45H240.139V44.202C239.84 44.51 239.509 44.7433 239.145 44.902C238.781 45.0513 238.389 45.126 237.969 45.126ZM236.471 43.012C236.471 43.4133 236.625 43.7353 236.933 43.978C237.25 44.2207 237.665 44.342 238.179 44.342C238.561 44.342 238.911 44.2767 239.229 44.146C239.555 44.0153 239.859 43.8193 240.139 43.558V42.242C239.849 42.074 239.551 41.9527 239.243 41.878C238.935 41.794 238.589 41.752 238.207 41.752C237.684 41.752 237.264 41.8687 236.947 42.102C236.629 42.326 236.471 42.6293 236.471 43.012ZM246.388 48.066C245.93 48.066 245.468 48.0007 245.002 47.87C244.544 47.7487 244.12 47.576 243.728 47.352L244.162 46.568C244.582 46.7827 244.964 46.9413 245.31 47.044C245.655 47.1467 246 47.198 246.346 47.198C246.971 47.198 247.442 47.0487 247.76 46.75C248.086 46.4513 248.25 46.0173 248.25 45.448V44.076C247.988 44.4027 247.671 44.6547 247.298 44.832C246.924 45 246.514 45.084 246.066 45.084C245.478 45.084 244.946 44.93 244.47 44.622C243.994 44.3047 243.616 43.8847 243.336 43.362C243.056 42.83 242.916 42.2373 242.916 41.584C242.916 40.9307 243.056 40.3427 243.336 39.82C243.625 39.288 244.012 38.868 244.498 38.56C244.983 38.2427 245.524 38.084 246.122 38.084C246.551 38.084 246.948 38.168 247.312 38.336C247.676 38.4947 247.993 38.7327 248.264 39.05V38.168H249.272V45.434C249.272 46.2833 249.024 46.932 248.53 47.38C248.035 47.8373 247.321 48.066 246.388 48.066ZM246.318 44.202C246.719 44.202 247.088 44.1227 247.424 43.964C247.76 43.796 248.035 43.5673 248.25 43.278V39.904C248.026 39.6147 247.741 39.3907 247.396 39.232C247.06 39.064 246.7 38.98 246.318 38.98C245.86 38.98 245.45 39.092 245.086 39.316C244.731 39.54 244.446 39.848 244.232 40.24C244.026 40.632 243.924 41.08 243.924 41.584C243.924 42.0787 244.026 42.5267 244.232 42.928C244.446 43.32 244.731 43.6327 245.086 43.866C245.45 44.09 245.86 44.202 246.318 44.202ZM254.452 45.14C253.818 45.14 253.244 44.986 252.73 44.678C252.217 44.3607 251.811 43.936 251.512 43.404C251.214 42.8627 251.064 42.256 251.064 41.584C251.064 40.912 251.204 40.31 251.484 39.778C251.774 39.246 252.161 38.826 252.646 38.518C253.132 38.21 253.673 38.056 254.27 38.056C254.877 38.056 255.414 38.21 255.88 38.518C256.356 38.8167 256.73 39.2273 257 39.75C257.28 40.2633 257.42 40.8467 257.42 41.5V41.808H252.058C252.096 42.2747 252.222 42.6947 252.436 43.068C252.66 43.432 252.95 43.7213 253.304 43.936C253.668 44.1413 254.065 44.244 254.494 44.244C254.849 44.244 255.19 44.1833 255.516 44.062C255.852 43.9313 256.137 43.7587 256.37 43.544L257.014 44.23C256.622 44.538 256.216 44.7667 255.796 44.916C255.376 45.0653 254.928 45.14 254.452 45.14ZM252.086 41.08H256.412C256.366 40.6693 256.24 40.3053 256.034 39.988C255.838 39.6613 255.586 39.4047 255.278 39.218C254.98 39.0313 254.644 38.938 254.27 38.938C253.897 38.938 253.556 39.0313 253.248 39.218C252.94 39.3953 252.684 39.6473 252.478 39.974C252.282 40.2913 252.152 40.66 252.086 41.08ZM262.433 45V38.168H263.455V39.274C263.716 38.8633 264.029 38.56 264.393 38.364C264.757 38.1587 265.167 38.056 265.625 38.056C266.119 38.056 266.549 38.1633 266.913 38.378C267.286 38.5833 267.575 38.8773 267.781 39.26C267.995 39.6333 268.103 40.072 268.103 40.576V45H267.081V40.87C267.081 40.2633 266.913 39.7873 266.577 39.442C266.25 39.0873 265.807 38.91 265.247 38.91C264.873 38.91 264.533 38.9987 264.225 39.176C263.917 39.3533 263.66 39.6147 263.455 39.96V45H262.433ZM272.271 45.126C271.786 45.126 271.357 45.0373 270.983 44.86C270.61 44.6827 270.316 44.44 270.101 44.132C269.896 43.8147 269.793 43.4507 269.793 43.04C269.793 42.6293 269.901 42.2747 270.115 41.976C270.33 41.668 270.629 41.43 271.011 41.262C271.394 41.094 271.842 41.01 272.355 41.01C272.747 41.01 273.116 41.052 273.461 41.136C273.816 41.22 274.143 41.3553 274.441 41.542V40.604C274.441 40.044 274.292 39.624 273.993 39.344C273.695 39.0547 273.256 38.91 272.677 38.91C272.36 38.91 272.033 38.9567 271.697 39.05C271.371 39.1433 271.007 39.2927 270.605 39.498L270.227 38.714C271.142 38.2753 272.001 38.056 272.803 38.056C273.653 38.056 274.306 38.266 274.763 38.686C275.221 39.0967 275.449 39.6893 275.449 40.464V45H274.441V44.202C274.143 44.51 273.811 44.7433 273.447 44.902C273.083 45.0513 272.691 45.126 272.271 45.126ZM270.773 43.012C270.773 43.4133 270.927 43.7353 271.235 43.978C271.553 44.2207 271.968 44.342 272.481 44.342C272.864 44.342 273.214 44.2767 273.531 44.146C273.858 44.0153 274.161 43.8193 274.441 43.558V42.242C274.152 42.074 273.853 41.9527 273.545 41.878C273.237 41.794 272.892 41.752 272.509 41.752C271.987 41.752 271.567 41.8687 271.249 42.102C270.932 42.326 270.773 42.6293 270.773 43.012ZM277.527 45V38.168H278.549V39.232C278.81 38.84 279.109 38.546 279.445 38.35C279.781 38.154 280.159 38.056 280.579 38.056C281.064 38.056 281.489 38.1773 281.853 38.42C282.217 38.6533 282.492 38.9753 282.679 39.386C282.949 38.9473 283.271 38.616 283.645 38.392C284.027 38.168 284.466 38.056 284.961 38.056C285.418 38.056 285.819 38.1633 286.165 38.378C286.519 38.5927 286.795 38.8913 286.991 39.274C287.187 39.6473 287.285 40.086 287.285 40.59V45H286.263V40.842C286.263 40.2447 286.113 39.7733 285.815 39.428C285.516 39.0827 285.105 38.91 284.583 38.91C284.228 38.91 283.906 38.9987 283.617 39.176C283.337 39.3533 283.089 39.624 282.875 39.988C282.893 40.0813 282.907 40.1793 282.917 40.282C282.926 40.3847 282.931 40.4873 282.931 40.59V45H281.909V40.842C281.909 40.2447 281.755 39.7733 281.447 39.428C281.148 39.0827 280.737 38.91 280.215 38.91C279.515 38.91 278.959 39.246 278.549 39.918V45H277.527ZM292.433 45.14C291.798 45.14 291.224 44.986 290.711 44.678C290.197 44.3607 289.791 43.936 289.493 43.404C289.194 42.8627 289.045 42.256 289.045 41.584C289.045 40.912 289.185 40.31 289.465 39.778C289.754 39.246 290.141 38.826 290.627 38.518C291.112 38.21 291.653 38.056 292.251 38.056C292.857 38.056 293.394 38.21 293.861 38.518C294.337 38.8167 294.71 39.2273 294.981 39.75C295.261 40.2633 295.401 40.8467 295.401 41.5V41.808H290.039C290.076 42.2747 290.202 42.6947 290.417 43.068C290.641 43.432 290.93 43.7213 291.285 43.936C291.649 44.1413 292.045 44.244 292.475 44.244C292.829 44.244 293.17 44.1833 293.497 44.062C293.833 43.9313 294.117 43.7587 294.351 43.544L294.995 44.23C294.603 44.538 294.197 44.7667 293.777 44.916C293.357 45.0653 292.909 45.14 292.433 45.14ZM290.067 41.08H294.393C294.346 40.6693 294.22 40.3053 294.015 39.988C293.819 39.6613 293.567 39.4047 293.259 39.218C292.96 39.0313 292.624 38.938 292.251 38.938C291.877 38.938 291.537 39.0313 291.229 39.218C290.921 39.3953 290.664 39.6473 290.459 39.974C290.263 40.2913 290.132 40.66 290.067 41.08Z" fill="#151515"/>
<rect x="1" y="29" width="40" height="23" rx="3" stroke="#0066CC" stroke-width="2"/>
<rect x="83" y="29" width="29" height="23" rx="3" stroke="#0066CC" stroke-width="2"/>
<rect x="154" y="29" width="29" height="23" rx="3" stroke="#0066CC" stroke-width="2"/>
<circle cx="21" cy="11" r="11" fill="#B300B3"/>
<path d="M17.9787 16V15.118H20.4567V7.292L17.9787 8.384V7.46L20.8347 6.2H21.4647V15.118H24.2927V16H17.9787Z" fill="white"/>
<circle cx="98" cy="11" r="11" fill="#B300B3"/>
<path d="M94.8387 16V15.258L98.7587 10.974C99.0667 10.638 99.3047 10.344 99.4727 10.092C99.6501 9.83067 99.7714 9.588 99.8367 9.364C99.9114 9.14 99.9487 8.902 99.9487 8.65C99.9487 8.15533 99.7527 7.74933 99.3607 7.432C98.9781 7.10533 98.4881 6.942 97.8907 6.942C97.4334 6.942 97.0087 7.03067 96.6167 7.208C96.2247 7.38533 95.7861 7.69333 95.3007 8.132L94.7127 7.432C95.2261 6.96533 95.7441 6.62 96.2667 6.396C96.7894 6.16267 97.3354 6.046 97.9047 6.046C98.4927 6.046 99.0154 6.158 99.4727 6.382C99.9301 6.59667 100.289 6.89533 100.551 7.278C100.812 7.66067 100.943 8.09933 100.943 8.594C100.943 8.92067 100.901 9.224 100.817 9.504C100.733 9.77467 100.583 10.0687 100.369 10.386C100.154 10.694 99.8461 11.0673 99.4447 11.506L96.0987 15.132L101.153 15.118V16H94.8387Z" fill="white"/>
<circle cx="169" cy="11" r="11" fill="#B300B3"/>
<path d="M168.807 16.154C168.135 16.154 167.505 16.0373 166.917 15.804C166.338 15.5707 165.825 15.2253 165.377 14.768L166.049 14.11C166.459 14.5207 166.879 14.8193 167.309 15.006C167.747 15.1833 168.242 15.272 168.793 15.272C169.269 15.272 169.689 15.188 170.053 15.02C170.426 14.852 170.715 14.6187 170.921 14.32C171.126 14.0213 171.229 13.6807 171.229 13.298C171.229 12.934 171.135 12.612 170.949 12.332C170.771 12.0427 170.524 11.8187 170.207 11.66C169.889 11.5013 169.525 11.422 169.115 11.422H167.953V10.554H169.073C169.605 10.554 170.034 10.3907 170.361 10.064C170.697 9.73733 170.865 9.31267 170.865 8.79C170.865 8.44467 170.771 8.132 170.585 7.852C170.398 7.572 170.141 7.35267 169.815 7.194C169.497 7.026 169.138 6.942 168.737 6.942C168.233 6.942 167.78 7.03533 167.379 7.222C166.987 7.39933 166.585 7.70267 166.175 8.132L165.503 7.46C165.941 6.99333 166.436 6.64333 166.987 6.41C167.537 6.16733 168.125 6.046 168.751 6.046C169.348 6.046 169.88 6.16267 170.347 6.396C170.823 6.62933 171.196 6.95133 171.467 7.362C171.737 7.76333 171.873 8.22067 171.873 8.734C171.873 9.24733 171.705 9.70933 171.369 10.12C171.033 10.5213 170.589 10.8013 170.039 10.96C170.701 11.1093 171.233 11.3987 171.635 11.828C172.036 12.2573 172.237 12.7567 172.237 13.326C172.237 13.8673 172.087 14.3527 171.789 14.782C171.499 15.2113 171.093 15.5473 170.571 15.79C170.057 16.0327 169.469 16.154 168.807 16.154Z" fill="white"/>
</svg>
