<svg width="560" height="36" viewBox="0 0 560 36" fill="none" xmlns="http://www.w3.org/2000/svg">
<rect width="32" height="32" transform="translate(0 2)" fill="#F2F2F2"/>
<g clip-path="url(#clip0_4063_2564)">
<path d="M9.70492 17.9999L16.3549 11.3549C16.5499 11.1599 16.5499 10.8449 16.3549 10.6499C16.1599 10.4549 15.8449 10.4549 15.6499 10.6499L8.82492 17.4699C8.53492 17.7599 8.53492 18.2399 8.82492 18.5299L15.6499 25.3549C15.7499 25.4549 15.8749 25.4999 16.0049 25.4999C16.1349 25.4999 16.2599 25.4499 16.3599 25.3549C16.5549 25.1599 16.5549 24.8449 16.3599 24.6499L9.70492 17.9999Z" fill="#151515"/>
<path d="M16.7049 17.9999L23.3549 11.3549C23.5499 11.1599 23.5499 10.8449 23.3549 10.6499C23.1599 10.4549 22.8449 10.4549 22.6499 10.6499L15.8249 17.4749C15.5349 17.7649 15.5349 18.2449 15.8249 18.5349L22.6499 25.3599C22.7499 25.4599 22.8749 25.5049 23.0049 25.5049C23.1349 25.5049 23.2599 25.4549 23.3599 25.3599C23.5549 25.1649 23.5549 24.8499 23.3599 24.6549L16.7149 18.0099L16.7049 17.9999Z" fill="#151515"/>
</g>
<rect width="32" height="32" transform="translate(34 2)" fill="#F2F2F2"/>
<g clip-path="url(#clip1_4063_2564)">
<path d="M53 25.5C52.87 25.5 52.745 25.45 52.645 25.355L45.82 18.53C45.53 18.24 45.53 17.76 45.82 17.47L52.645 10.645C52.84 10.45 53.155 10.45 53.35 10.645C53.545 10.84 53.545 11.155 53.35 11.35L46.705 17.995L53.35 24.64C53.545 24.835 53.545 25.15 53.35 25.345C53.25 25.445 53.125 25.49 52.995 25.49L53 25.5Z" fill="#151515"/>
</g>
<rect width="32" height="32" transform="translate(68 2)" fill="#F2F2F2"/>
<path d="M83.9004 23.5V13.948L81.8844 14.796V13.388L84.4764 12.3H85.4844V23.5H83.9004Z" fill="#151515"/>
<rect width="32" height="32" transform="translate(102 2)" fill="#F2F2F2"/>
<path d="M114.347 23.5V22.38L118.891 17.548C119.2 17.228 119.44 16.94 119.611 16.684C119.781 16.428 119.899 16.188 119.963 15.964C120.037 15.7293 120.075 15.484 120.075 15.228C120.075 14.7267 119.872 14.3107 119.467 13.98C119.061 13.6493 118.549 13.484 117.931 13.484C117.419 13.484 116.939 13.5853 116.491 13.788C116.043 13.9907 115.547 14.3427 115.003 14.844L114.139 13.788C114.736 13.2333 115.349 12.8173 115.979 12.54C116.619 12.2627 117.28 12.124 117.963 12.124C118.677 12.124 119.307 12.252 119.851 12.508C120.395 12.764 120.816 13.1213 121.115 13.58C121.424 14.028 121.579 14.5453 121.579 15.132C121.579 15.5053 121.531 15.852 121.435 16.172C121.339 16.4813 121.173 16.812 120.939 17.164C120.704 17.5053 120.373 17.9 119.947 18.348L116.299 22.188L121.803 22.172V23.5H114.347Z" fill="#151515"/>
<rect width="32" height="32" transform="translate(136 2)" fill="#F2F2F2"/>
<path d="M151.874 23.676C151.074 23.676 150.322 23.5373 149.618 23.26C148.925 22.972 148.322 22.5613 147.81 22.028L148.85 21.036C149.298 21.5053 149.752 21.8413 150.21 22.044C150.68 22.236 151.229 22.332 151.858 22.332C152.36 22.332 152.802 22.2467 153.186 22.076C153.581 21.9053 153.885 21.6707 154.098 21.372C154.312 21.0733 154.418 20.7267 154.418 20.332C154.418 19.9693 154.322 19.6493 154.13 19.372C153.949 19.084 153.698 18.8653 153.378 18.716C153.069 18.556 152.701 18.476 152.274 18.476H150.914V17.18H152.162C152.728 17.18 153.181 17.0147 153.522 16.684C153.864 16.3533 154.034 15.9213 154.034 15.388C154.034 15.036 153.938 14.716 153.746 14.428C153.554 14.14 153.288 13.916 152.946 13.756C152.616 13.5853 152.237 13.5 151.81 13.5C151.245 13.5 150.744 13.6013 150.306 13.804C149.88 13.996 149.437 14.3373 148.978 14.828L147.938 13.836C148.45 13.2813 149.042 12.86 149.714 12.572C150.386 12.2733 151.096 12.124 151.842 12.124C152.568 12.124 153.208 12.2573 153.762 12.524C154.328 12.7907 154.77 13.164 155.09 13.644C155.421 14.1133 155.586 14.6467 155.586 15.244C155.586 15.8307 155.389 16.3587 154.994 16.828C154.61 17.2867 154.104 17.6067 153.474 17.788C154.232 17.948 154.834 18.268 155.282 18.748C155.73 19.2173 155.954 19.772 155.954 20.412C155.954 21.0413 155.778 21.6013 155.426 22.092C155.085 22.5827 154.605 22.972 153.986 23.26C153.368 23.5373 152.664 23.676 151.874 23.676Z" fill="#151515"/>
<g filter="url(#filter0_i_4063_2564)">
<mask id="path-7-inside-1_4063_2564" fill="white">
<path d="M170 2H202V34H170V2Z"/>
</mask>
<path d="M170 2H202V34H170V2Z" fill="white"/>
<path d="M202 34V35H203V34H202ZM170 34H169V35H170V34ZM201 2V34H203V2H201ZM202 33H170V35H202V33ZM171 34V2H169V34H171Z" fill="#C7C7C7" mask="url(#path-7-inside-1_4063_2564)"/>
<path d="M187.659 23.5V20.652H181.307V19.388L187.467 12.3H189.243V19.308H190.603V20.652H189.243V23.5H187.659ZM183.211 19.308H187.659V14.188L183.211 19.308Z" fill="#151515"/>
</g>
<rect width="32" height="32" transform="translate(204 2)" fill="#F2F2F2"/>
<path d="M219.824 23.676C218.33 23.676 217.034 23.1693 215.936 22.156L216.88 21.1C217.36 21.5373 217.834 21.8573 218.304 22.06C218.784 22.252 219.306 22.348 219.872 22.348C220.384 22.348 220.826 22.252 221.2 22.06C221.573 21.8573 221.866 21.58 222.08 21.228C222.293 20.8653 222.4 20.4547 222.4 19.996C222.4 19.324 222.16 18.78 221.68 18.364C221.21 17.948 220.597 17.74 219.84 17.74C219.456 17.74 219.077 17.7933 218.704 17.9C218.33 17.996 217.941 18.1507 217.536 18.364L216.448 18.028L216.704 12.3H223.36V13.628H218.048L217.888 17.084C218.304 16.8707 218.698 16.7267 219.072 16.652C219.456 16.5667 219.85 16.524 220.256 16.524C221.002 16.524 221.648 16.668 222.192 16.956C222.746 17.2333 223.178 17.628 223.488 18.14C223.797 18.652 223.952 19.244 223.952 19.916C223.952 20.6627 223.776 21.3187 223.424 21.884C223.082 22.4387 222.602 22.876 221.984 23.196C221.365 23.516 220.645 23.676 219.824 23.676Z" fill="#151515"/>
<path d="M249 25.14C248.653 25.14 248.353 25.02 248.1 24.78C247.86 24.5267 247.74 24.2267 247.74 23.88C247.74 23.5333 247.86 23.24 248.1 23C248.353 22.7467 248.653 22.62 249 22.62C249.347 22.62 249.64 22.7467 249.88 23C250.133 23.24 250.26 23.5333 250.26 23.88C250.26 24.2267 250.133 24.5267 249.88 24.78C249.64 25.02 249.347 25.14 249 25.14ZM254 25.14C253.653 25.14 253.353 25.02 253.1 24.78C252.86 24.5267 252.74 24.2267 252.74 23.88C252.74 23.5333 252.86 23.24 253.1 23C253.353 22.7467 253.653 22.62 254 22.62C254.347 22.62 254.64 22.7467 254.88 23C255.133 23.24 255.26 23.5333 255.26 23.88C255.26 24.2267 255.133 24.5267 254.88 24.78C254.64 25.02 254.347 25.14 254 25.14ZM259 25.14C258.653 25.14 258.353 25.02 258.1 24.78C257.86 24.5267 257.74 24.2267 257.74 23.88C257.74 23.5333 257.86 23.24 258.1 23C258.353 22.7467 258.653 22.62 259 22.62C259.347 22.62 259.64 22.7467 259.88 23C260.133 23.24 260.26 23.5333 260.26 23.88C260.26 24.2267 260.133 24.5267 259.88 24.78C259.64 25.02 259.347 25.14 259 25.14Z" fill="#A3A3A3"/>
<rect width="32" height="32" transform="translate(272 2)" fill="#F2F2F2"/>
<path d="M282.457 23.676C280.963 23.676 279.667 23.1693 278.569 22.156L279.513 21.1C279.993 21.5373 280.467 21.8573 280.937 22.06C281.417 22.252 281.939 22.348 282.505 22.348C283.017 22.348 283.459 22.252 283.833 22.06C284.206 21.8573 284.499 21.58 284.713 21.228C284.926 20.8653 285.033 20.4547 285.033 19.996C285.033 19.324 284.793 18.78 284.313 18.364C283.843 17.948 283.23 17.74 282.473 17.74C282.089 17.74 281.71 17.7933 281.337 17.9C280.963 17.996 280.574 18.1507 280.169 18.364L279.081 18.028L279.337 12.3H285.993V13.628H280.681L280.521 17.084C280.937 16.8707 281.331 16.7267 281.705 16.652C282.089 16.5667 282.483 16.524 282.889 16.524C283.635 16.524 284.281 16.668 284.825 16.956C285.379 17.2333 285.811 17.628 286.121 18.14C286.43 18.652 286.585 19.244 286.585 19.916C286.585 20.6627 286.409 21.3187 286.057 21.884C285.715 22.4387 285.235 22.876 284.617 23.196C283.998 23.516 283.278 23.676 282.457 23.676ZM292.665 23.676C291.726 23.676 290.905 23.436 290.201 22.956C289.497 22.4653 288.942 21.788 288.537 20.924C288.142 20.0493 287.945 19.0413 287.945 17.9C287.945 16.7587 288.142 15.756 288.537 14.892C288.942 14.0173 289.497 13.34 290.201 12.86C290.905 12.3693 291.726 12.124 292.665 12.124C293.593 12.124 294.409 12.3693 295.113 12.86C295.817 13.34 296.366 14.0173 296.761 14.892C297.166 15.756 297.369 16.7587 297.369 17.9C297.369 19.0413 297.166 20.0493 296.761 20.924C296.366 21.788 295.817 22.4653 295.113 22.956C294.409 23.436 293.593 23.676 292.665 23.676ZM292.665 22.284C293.305 22.284 293.86 22.108 294.329 21.756C294.798 21.3933 295.161 20.8813 295.417 20.22C295.673 19.5587 295.801 18.7853 295.801 17.9C295.801 17.004 295.673 16.2307 295.417 15.58C295.161 14.9187 294.798 14.412 294.329 14.06C293.86 13.6973 293.305 13.516 292.665 13.516C292.025 13.516 291.465 13.6973 290.985 14.06C290.516 14.412 290.153 14.9187 289.897 15.58C289.641 16.2307 289.513 17.004 289.513 17.9C289.513 18.7853 289.641 19.5587 289.897 20.22C290.153 20.8813 290.516 21.3933 290.985 21.756C291.465 22.108 292.025 22.284 292.665 22.284Z" fill="#151515"/>
<rect width="32" height="32" transform="translate(306 2)" fill="#F2F2F2"/>
<g clip-path="url(#clip2_4063_2564)">
<path d="M319 25.4999C318.87 25.4999 318.745 25.4499 318.645 25.3549C318.45 25.1599 318.45 24.8449 318.645 24.6499L325.29 18.0049L318.645 11.3549C318.45 11.1599 318.45 10.8449 318.645 10.6499C318.84 10.4549 319.155 10.4549 319.35 10.6499L326.175 17.4749C326.465 17.7649 326.465 18.2449 326.175 18.5349L319.35 25.3599C319.25 25.4599 319.125 25.5049 318.995 25.5049L319 25.4999Z" fill="#151515"/>
</g>
<rect width="32" height="32" transform="translate(340 2)" fill="#F2F2F2"/>
<g clip-path="url(#clip3_4063_2564)">
<path d="M363.175 17.47L356.355 10.645C356.16 10.45 355.845 10.45 355.65 10.645C355.455 10.84 355.455 11.155 355.65 11.35L362.295 17.995L355.65 24.64C355.455 24.835 355.455 25.15 355.65 25.345C355.75 25.445 355.875 25.49 356.005 25.49C356.135 25.49 356.26 25.44 356.36 25.345L363.185 18.52C363.475 18.23 363.475 17.75 363.185 17.46L363.175 17.47Z" fill="#151515"/>
<path d="M356.175 17.47L349.355 10.645C349.16 10.45 348.845 10.45 348.65 10.645C348.455 10.84 348.455 11.155 348.65 11.35L355.295 17.995L348.645 24.645C348.45 24.84 348.45 25.155 348.645 25.35C348.745 25.45 348.87 25.495 349 25.495C349.13 25.495 349.255 25.445 349.355 25.35L356.18 18.525C356.47 18.235 356.47 17.755 356.18 17.465L356.175 17.47Z" fill="#151515"/>
</g>
<path d="M405.424 24V12.8H410.048C410.773 12.8 411.403 12.9387 411.936 13.216C412.469 13.4827 412.88 13.8667 413.168 14.368C413.467 14.8587 413.616 15.44 413.616 16.112C413.616 16.7733 413.467 17.3547 413.168 17.856C412.88 18.3573 412.469 18.7467 411.936 19.024C411.403 19.2907 410.773 19.424 410.048 19.424H406.656V24H405.424ZM406.656 18.368H409.904C410.683 18.368 411.291 18.1653 411.728 17.76C412.165 17.3547 412.384 16.8053 412.384 16.112C412.384 15.4187 412.165 14.8747 411.728 14.48C411.291 14.0853 410.683 13.888 409.904 13.888H406.656V18.368ZM417.679 24.144C417.124 24.144 416.633 24.0427 416.207 23.84C415.78 23.6373 415.444 23.36 415.199 23.008C414.964 22.6453 414.847 22.2293 414.847 21.76C414.847 21.2907 414.969 20.8853 415.215 20.544C415.46 20.192 415.801 19.92 416.239 19.728C416.676 19.536 417.188 19.44 417.775 19.44C418.223 19.44 418.644 19.488 419.039 19.584C419.444 19.68 419.817 19.8347 420.159 20.048V18.976C420.159 18.336 419.988 17.856 419.647 17.536C419.305 17.2053 418.804 17.04 418.143 17.04C417.78 17.04 417.407 17.0933 417.023 17.2C416.649 17.3067 416.233 17.4773 415.775 17.712L415.343 16.816C416.388 16.3147 417.369 16.064 418.286 16.064C419.257 16.064 420.004 16.304 420.527 16.784C421.049 17.2533 421.311 17.9307 421.311 18.816V24H420.159V23.088C419.817 23.44 419.439 23.7067 419.023 23.888C418.607 24.0587 418.159 24.144 417.679 24.144ZM415.967 21.728C415.967 22.1867 416.143 22.5547 416.495 22.832C416.857 23.1093 417.332 23.248 417.919 23.248C418.356 23.248 418.756 23.1733 419.119 23.024C419.492 22.8747 419.839 22.6507 420.159 22.352V20.848C419.828 20.656 419.487 20.5173 419.135 20.432C418.783 20.336 418.388 20.288 417.951 20.288C417.353 20.288 416.873 20.4213 416.511 20.688C416.148 20.944 415.967 21.2907 415.967 21.728ZM427.3 27.504C426.778 27.504 426.25 27.4293 425.716 27.28C425.194 27.1413 424.708 26.944 424.26 26.688L424.756 25.792C425.236 26.0373 425.674 26.2187 426.068 26.336C426.463 26.4533 426.858 26.512 427.252 26.512C427.967 26.512 428.506 26.3413 428.868 26C429.242 25.6587 429.428 25.1627 429.428 24.512V22.944C429.13 23.3173 428.767 23.6053 428.34 23.808C427.914 24 427.444 24.096 426.932 24.096C426.26 24.096 425.652 23.92 425.108 23.568C424.564 23.2053 424.132 22.7253 423.812 22.128C423.492 21.52 423.332 20.8427 423.332 20.096C423.332 19.3493 423.492 18.6773 423.812 18.08C424.143 17.472 424.586 16.992 425.14 16.64C425.695 16.2773 426.314 16.096 426.996 16.096C427.487 16.096 427.94 16.192 428.356 16.384C428.772 16.5653 429.135 16.8373 429.444 17.2V16.192H430.596V24.496C430.596 25.4667 430.314 26.208 429.748 26.72C429.183 27.2427 428.367 27.504 427.3 27.504ZM427.22 23.088C427.679 23.088 428.1 22.9973 428.484 22.816C428.868 22.624 429.183 22.3627 429.428 22.032V18.176C429.172 17.8453 428.847 17.5893 428.452 17.408C428.068 17.216 427.658 17.12 427.22 17.12C426.698 17.12 426.228 17.248 425.812 17.504C425.407 17.76 425.082 18.112 424.836 18.56C424.602 19.008 424.484 19.52 424.484 20.096C424.484 20.6613 424.602 21.1733 424.836 21.632C425.082 22.08 425.407 22.4373 425.812 22.704C426.228 22.96 426.698 23.088 427.22 23.088ZM436.517 24.16C435.792 24.16 435.136 23.984 434.549 23.632C433.962 23.2693 433.498 22.784 433.157 22.176C432.816 21.5573 432.645 20.864 432.645 20.096C432.645 19.328 432.805 18.64 433.125 18.032C433.456 17.424 433.898 16.944 434.453 16.592C435.008 16.24 435.626 16.064 436.309 16.064C437.002 16.064 437.616 16.24 438.149 16.592C438.693 16.9333 439.12 17.4027 439.429 18C439.749 18.5867 439.909 19.2533 439.909 20V20.352H433.781C433.824 20.8853 433.968 21.3653 434.213 21.792C434.469 22.208 434.8 22.5387 435.205 22.784C435.621 23.0187 436.074 23.136 436.565 23.136C436.97 23.136 437.36 23.0667 437.733 22.928C438.117 22.7787 438.442 22.5813 438.709 22.336L439.445 23.12C438.997 23.472 438.533 23.7333 438.053 23.904C437.573 24.0747 437.061 24.16 436.517 24.16ZM433.813 19.52H438.757C438.704 19.0507 438.56 18.6347 438.325 18.272C438.101 17.8987 437.813 17.6053 437.461 17.392C437.12 17.1787 436.736 17.072 436.309 17.072C435.882 17.072 435.493 17.1787 435.141 17.392C434.789 17.5947 434.496 17.8827 434.261 18.256C434.037 18.6187 433.888 19.04 433.813 19.52Z" fill="#151515"/>
<g filter="url(#filter1_i_4063_2564)">
<mask id="path-17-inside-2_4063_2564" fill="white">
<path d="M449 0H513V36H449V0Z"/>
</mask>
<path d="M449 0H513V36H449V0Z" fill="white"/>
<path d="M449 0V-1H448V0H449ZM513 0H514V-1H513V0ZM449 1H513V-1H449V1ZM512 0V36H514V0H512ZM450 36V0H448V36H450Z" fill="#C7C7C7" mask="url(#path-17-inside-2_4063_2564)"/>
<path d="M463.672 24V21.008H457.624V20.096L463.576 12.8H464.808V20H466.36V21.008H464.808V24H463.672ZM458.968 20H463.672V14.192L458.968 20Z" fill="#151515"/>
</g>
<path d="M525.656 24.128C524.931 24.128 524.28 23.952 523.704 23.6C523.128 23.248 522.675 22.768 522.344 22.16C522.013 21.552 521.848 20.864 521.848 20.096C521.848 19.328 522.013 18.64 522.344 18.032C522.675 17.424 523.128 16.944 523.704 16.592C524.28 16.24 524.931 16.064 525.656 16.064C526.371 16.064 527.011 16.24 527.576 16.592C528.152 16.944 528.605 17.424 528.936 18.032C529.267 18.64 529.432 19.328 529.432 20.096C529.432 20.864 529.267 21.552 528.936 22.16C528.605 22.768 528.152 23.248 527.576 23.6C527.011 23.952 526.371 24.128 525.656 24.128ZM525.64 23.104C526.152 23.104 526.605 22.976 527 22.72C527.395 22.4533 527.704 22.0907 527.928 21.632C528.163 21.1733 528.28 20.6613 528.28 20.096C528.28 19.52 528.163 19.008 527.928 18.56C527.704 18.1013 527.395 17.744 527 17.488C526.605 17.2213 526.152 17.088 525.64 17.088C525.128 17.088 524.675 17.2213 524.28 17.488C523.885 17.744 523.571 18.1013 523.336 18.56C523.112 19.008 523 19.52 523 20.096C523 20.6613 523.112 21.1733 523.336 21.632C523.571 22.0907 523.885 22.4533 524.28 22.72C524.675 22.976 525.128 23.104 525.64 23.104ZM531.989 24V17.152H530.245V16.192H531.989V14.56C531.989 13.792 532.192 13.2 532.597 12.784C533.002 12.368 533.578 12.16 534.325 12.16C534.538 12.16 534.73 12.1707 534.901 12.192C535.082 12.2133 535.242 12.2507 535.381 12.304V13.36C535.21 13.3067 535.056 13.2693 534.917 13.248C534.778 13.2267 534.618 13.216 534.437 13.216C533.989 13.216 533.664 13.328 533.461 13.552C533.258 13.7653 533.157 14.1067 533.157 14.576V16.192H535.381V17.152H533.157V24H531.989Z" fill="#151515"/>
<path d="M543.853 24.176C542.381 24.176 541.112 23.6693 540.045 22.656L540.765 21.872C541.256 22.3307 541.741 22.6667 542.221 22.88C542.712 23.0827 543.261 23.184 543.869 23.184C544.413 23.184 544.893 23.072 545.309 22.848C545.725 22.624 546.045 22.3093 546.269 21.904C546.504 21.4987 546.621 21.0347 546.621 20.512C546.621 19.7653 546.365 19.1627 545.853 18.704C545.352 18.2453 544.69 18.016 543.869 18.016C543.442 18.016 543.026 18.0693 542.621 18.176C542.216 18.272 541.794 18.432 541.357 18.656L540.557 18.4L540.813 12.8H547.181V13.808H541.805L541.629 17.68C542.056 17.4667 542.466 17.3173 542.861 17.232C543.256 17.136 543.672 17.088 544.109 17.088C544.845 17.088 545.485 17.232 546.029 17.52C546.584 17.7973 547.01 18.192 547.309 18.704C547.618 19.2053 547.773 19.792 547.773 20.464C547.773 21.2 547.608 21.8453 547.277 22.4C546.946 22.9547 546.488 23.392 545.901 23.712C545.314 24.0213 544.632 24.176 543.853 24.176ZM553.858 24.176C553.005 24.176 552.247 23.9307 551.586 23.44C550.935 22.9493 550.423 22.272 550.05 21.408C549.677 20.5333 549.49 19.5307 549.49 18.4C549.49 17.2587 549.677 16.256 550.05 15.392C550.423 14.528 550.935 13.8507 551.586 13.36C552.247 12.8693 553.005 12.624 553.858 12.624C554.711 12.624 555.463 12.8693 556.114 13.36C556.775 13.8507 557.293 14.528 557.666 15.392C558.039 16.256 558.226 17.2587 558.226 18.4C558.226 19.5307 558.039 20.5333 557.666 21.408C557.293 22.272 556.775 22.9493 556.114 23.44C555.463 23.9307 554.711 24.176 553.858 24.176ZM553.858 23.136C554.509 23.136 555.069 22.944 555.538 22.56C556.018 22.1653 556.391 21.616 556.658 20.912C556.925 20.1973 557.058 19.36 557.058 18.4C557.058 17.44 556.925 16.608 556.658 15.904C556.391 15.1893 556.018 14.64 555.538 14.256C555.069 13.8613 554.509 13.664 553.858 13.664C553.218 13.664 552.658 13.8613 552.178 14.256C551.698 14.64 551.325 15.1893 551.058 15.904C550.791 16.608 550.658 17.44 550.658 18.4C550.658 19.36 550.791 20.1973 551.058 20.912C551.325 21.616 551.698 22.1653 552.178 22.56C552.658 22.944 553.218 23.136 553.858 23.136Z" fill="#0066CC"/>
<defs>
<filter id="filter0_i_4063_2564" x="170" y="2" width="32" height="32" filterUnits="userSpaceOnUse" color-interpolation-filters="sRGB">
<feFlood flood-opacity="0" result="BackgroundImageFix"/>
<feBlend mode="normal" in="SourceGraphic" in2="BackgroundImageFix" result="shape"/>
<feColorMatrix in="SourceAlpha" type="matrix" values="0 0 0 0 0 0 0 0 0 0 0 0 0 0 0 0 0 0 127 0" result="hardAlpha"/>
<feOffset dy="3"/>
<feComposite in2="hardAlpha" operator="arithmetic" k2="-1" k3="1"/>
<feColorMatrix type="matrix" values="0 0 0 0 0 0 0 0 0 0.4 0 0 0 0 0.8 0 0 0 1 0"/>
<feBlend mode="normal" in2="shape" result="effect1_innerShadow_4063_2564"/>
</filter>
<filter id="filter1_i_4063_2564" x="449" y="0" width="64" height="36" filterUnits="userSpaceOnUse" color-interpolation-filters="sRGB">
<feFlood flood-opacity="0" result="BackgroundImageFix"/>
<feBlend mode="normal" in="SourceGraphic" in2="BackgroundImageFix" result="shape"/>
<feColorMatrix in="SourceAlpha" type="matrix" values="0 0 0 0 0 0 0 0 0 0 0 0 0 0 0 0 0 0 127 0" result="hardAlpha"/>
<feOffset dy="-1"/>
<feComposite in2="hardAlpha" operator="arithmetic" k2="-1" k3="1"/>
<feColorMatrix type="matrix" values="0 0 0 0 0.301961 0 0 0 0 0.301961 0 0 0 0 0.301961 0 0 0 1 0"/>
<feBlend mode="normal" in2="shape" result="effect1_innerShadow_4063_2564"/>
</filter>
<clipPath id="clip0_4063_2564">
<rect width="16" height="16" fill="white" transform="translate(8 10)"/>
</clipPath>
<clipPath id="clip1_4063_2564">
<rect width="16" height="16" fill="white" transform="translate(42 10)"/>
</clipPath>
<clipPath id="clip2_4063_2564">
<rect width="16" height="16" fill="white" transform="translate(314 10)"/>
</clipPath>
<clipPath id="clip3_4063_2564">
<rect width="16" height="16" fill="white" transform="translate(348 10)"/>
</clipPath>
</defs>
</svg>
