<svg xmlns="http://www.w3.org/2000/svg" width="884" height="205"><defs><filter id="a" width="884" height="180" x="0" y="0" filterUnits="userSpaceOnUse"><feOffset dy="3"/><feGaussianBlur stdDeviation="2" result="b"/><feFlood flood-opacity=".102"/><feComposite operator="in" in2="b"/><feComposite in="SourceGraphic"/></filter></defs><g transform="translate(-354 -219)"><g fill="#fff" stroke="#d2d2d2" transform="translate(354 219)" filter="url(#a)"><path stroke="none" d="M6 3h872v168H6z"/><path fill="none" d="M6.5 3.5h871v167H6.5z"/></g><rect width="824" height="80" fill="#f5f5f5" rx="3" transform="translate(384 286)"/><text fill="#8a8d90" transform="translate(408 256)" font-size="16" font-family="RedHatText-Regular, RedHatText"><tspan x="0" y="0">Lorem ipsum</tspan></text><path fill="none" d="M376 238h24v24h-24z"/><path fill="#8a8d90" d="M387.2 255.03l-6.9-6.9a1.23 1.23 0 0 1 0-1.6l1.22-1.23a1.23 1.23 0 0 1 1.62 0l4.86 4.86 4.86-4.86a1.23 1.23 0 0 1 1.62 0l1.22 1.22a1.23 1.23 0 0 1 0 1.62l-6.9 6.9a1.23 1.23 0 0 1-1.6 0zM360 222h3v168h-3z"/><text fill="#06c" transform="translate(755 420)" font-size="14" font-family="RedHatText-Regular, RedHatText"><tspan x="0" y="0">Content area</tspan></text><path fill="#06c" d="M796 327h1v79h-1z"/><circle cx="3.5" cy="3.5" r="3.5" fill="#06c" transform="translate(793 323)"/><text fill="#06c" transform="translate(437 420)" font-size="14" font-family="RedHatText-Regular, RedHatText"><tspan x="0" y="0">Label</tspan></text><path fill="#06c" d="M454 251h1v155h-1z"/><circle cx="3.5" cy="3.5" r="3.5" fill="#06c" transform="translate(451 247)"/><text fill="#06c" transform="translate(371 420)" font-size="14" font-family="RedHatText-Regular, RedHatText"><tspan x="0" y="0">Caret</tspan></text><path fill="#06c" d="M388 251h1v155h-1z"/><circle cx="3.5" cy="3.5" r="3.5" fill="#06c" transform="translate(385 247)"/></g></svg>