<svg xmlns="http://www.w3.org/2000/svg" width="1012" height="160"><defs><filter id="a" width="1012" height="160" x="0" y="0" filterUnits="userSpaceOnUse"><feOffset dy="3"/><feGaussianBlur result="b" stdDeviation="2"/><feFlood flood-opacity=".102"/><feComposite in2="b" operator="in"/><feComposite in="SourceGraphic"/></filter></defs><g filter="url(#a)"><g fill="#fff" stroke="#d2d2d2"><path stroke="none" d="M6 3h1000v148H6z"/><path fill="none" d="M6.5 3.5h999v147H6.5z"/></g></g><g fill="#06c"><path d="M109 109l-1.5 1.5 4.5 4.5h-10v2h10l-4.5 4.5 1.5 1.5 7-7z"/><text font-family="RedHatDisplay-Bold, Red Hat Display" font-size="18" font-weight="700" transform="translate(30 122)"><tspan x="0" y="0">Default</tspan></text></g><text fill="#151515" font-family="RedHatText-Regular, Red Hat Text" font-size="16" transform="translate(30 83)"><tspan x="0" y="0">Lorem ipsum dolor sit amet, consectetur adipiscing elit. Ut suscipit aliquet mauris, in consequat lorem.</tspan></text><text fill="#151515" font-family="RedHatText-Regular, Red Hat Text" font-size="16" transform="translate(54 37)"><tspan x="0" y="0">Lorem ipsum</tspan></text><path fill="none" d="M22 19h24v24H22z"/><path fill="#151515" d="M33.19 36.03l-6.89-6.9a1.23 1.23 0 010-1.61l1.22-1.22a1.23 1.23 0 011.62 0L34 31.17l4.86-4.87a1.23 1.23 0 011.62 0l1.22 1.22a1.23 1.23 0 010 1.62l-6.89 6.89a1.23 1.23 0 01-1.62 0z"/><path fill="#e00" d="M6 3h3v148H6z"/></svg>