<svg xmlns="http://www.w3.org/2000/svg" width="884" height="259"><defs><filter id="a" width="884" height="259" x="0" y="0" filterUnits="userSpaceOnUse"><feOffset dy="3"/><feGaussianBlur result="b" stdDeviation="2"/><feFlood flood-opacity=".102"/><feComposite in2="b" operator="in"/><feComposite in="SourceGraphic"/></filter></defs><g filter="url(#a)"><g fill="#fff" stroke="#d2d2d2"><path stroke="none" d="M6 3h872v247H6z"/><path fill="none" d="M6.5 3.5h871v246H6.5z"/></g></g><path fill="#d2d2d2" d="M30 67h1v159h-1z"/><text fill="#6a6e73" font-family="RedHatText-Regular, RedHatText" font-size="16" transform="translate(47 189)"><tspan x="0" y="0">Section 3</tspan></text><text fill="#151515" font-family="RedHatText-Regular, RedHatText" font-size="16" transform="translate(47 152)"><tspan x="0" y="0">Section 2</tspan></text><path fill="#e00" d="M30 128h3v37h-3z"/><text fill="#6a6e73" font-family="RedHatText-Regular, RedHatText" font-size="16" transform="translate(47 115)"><tspan x="0" y="0">Section 1</tspan></text><text fill="#151515" font-family="RedHatText-Regular, RedHatText" font-size="16" transform="translate(54 37)"><tspan x="0" y="0">Jump to section</tspan></text><path fill="none" d="M22 19h24v24H22z"/><path fill="#151515" d="M33.19 36.03l-6.89-6.9a1.23 1.23 0 010-1.61l1.22-1.22a1.23 1.23 0 011.62 0L34 31.17l4.86-4.87a1.23 1.23 0 011.62 0l1.22 1.22a1.23 1.23 0 010 1.62l-6.89 6.89a1.23 1.23 0 01-1.62 0z"/></svg>