<svg xmlns="http://www.w3.org/2000/svg" xmlns:xlink="http://www.w3.org/1999/xlink" width="884" height="184" viewBox="0 0 884 184"><defs><filter id="a" x="0" y="0" width="884" height="184" filterUnits="userSpaceOnUse"><feOffset dy="3" input="SourceAlpha"/><feGaussianBlur stdDeviation="2" result="b"/><feFlood flood-opacity="0.102"/><feComposite operator="in" in2="b"/><feComposite in="SourceGraphic"/></filter></defs><g transform="translate(-354 -219)"><g transform="matrix(1, 0, 0, 1, 354, 219)" filter="url(#a)"><g transform="translate(6 3)" fill="#fff" stroke="#d2d2d2" stroke-width="1"><rect width="872" height="172" stroke="none"/><rect x="0.5" y="0.5" width="871" height="171" fill="none"/></g></g><g transform="translate(0 14)"><path d="M7,0,5.5,1.5,10,6H0V8H10L5.5,12.5,7,14l7-7Z" transform="translate(456 338)" fill="#06c"/><text transform="translate(384 351)" fill="#06c" font-size="18" font-family="RedHatDisplay-Bold, Red Hat Display" font-weight="700"><tspan x="0" y="0">Default</tspan></text></g><text transform="translate(384 286)" fill="#151515" font-size="16" font-family="RedHatText-Regular, Red Hat Text"><tspan x="0" y="16">Lorem ipsum dolor sit amet, consectetur adipiscing elit. Ut suscipit aliquet mauris, in consequat lorem ullamcorper a. </tspan><tspan x="0" y="40">Curabitur tempor ante vitae ultrices dignissim. Nullam ut urna eros. Morbi interdum luctus lacus, lacinia tempor purus </tspan></text><text transform="translate(408 256)" fill="#151515" font-size="16" font-family="RedHatText-Regular, Red Hat Text"><tspan x="0" y="0">Lorem ipsum</tspan></text><g transform="translate(-307 -95)"><rect width="24" height="24" transform="translate(683 333)" fill="none"/><path d="M8.24,12.475,1.354,5.589a1.232,1.232,0,0,1,0-1.62L2.569,2.754a1.232,1.232,0,0,1,1.62,0L9.05,7.615l4.861-4.861a1.232,1.232,0,0,1,1.62,0l1.215,1.215a1.232,1.232,0,0,1,0,1.62L9.86,12.475A1.232,1.232,0,0,1,8.24,12.475Z" transform="translate(685.95 337.55)" fill="#151515"/></g><rect width="3" height="172" transform="translate(360 222)" fill="#e00"/><g transform="translate(0 -59)" opacity="0.05"><rect width="54" height="172" transform="translate(1154 281)" fill="blue" opacity="0.75"/><rect width="54" height="172" transform="translate(1084 281)" fill="blue" opacity="0.75"/><rect width="54" height="172" transform="translate(1014 281)" fill="blue" opacity="0.75"/><rect width="54" height="172" transform="translate(944 281)" fill="blue" opacity="0.75"/><rect width="54" height="172" transform="translate(874 281)" fill="#151515" opacity="0.5"/><rect width="54" height="172" transform="translate(804 281)" fill="#151515" opacity="0.5"/><rect width="54" height="172" transform="translate(734 281)" fill="#151515" opacity="0.5"/><rect width="54" height="172" transform="translate(664 281)" fill="#151515" opacity="0.5"/><rect width="54" height="172" transform="translate(594 281)" fill="#151515" opacity="0.5"/><rect width="54" height="172" transform="translate(524 281)" fill="#151515" opacity="0.5"/><rect width="54" height="172" transform="translate(454 281)" fill="#151515" opacity="0.5"/><rect width="54" height="172" transform="translate(384 281)" fill="#151515" opacity="0.5"/></g></g></svg>