<svg width="610" height="31" viewBox="0 0 610 31" fill="none" xmlns="http://www.w3.org/2000/svg">
<rect x="1" y="1" width="76" height="29" rx="3" stroke="#0066CC" stroke-width="2"/>
<path d="M3.584 22V9.4H4.97V22H3.584ZM7.90273 22V13.216H9.21673V14.638C9.55273 14.11 9.95473 13.72 10.4227 13.468C10.8907 13.204 11.4187 13.072 12.0067 13.072C12.6427 13.072 13.1947 13.21 13.6627 13.486C14.1427 13.75 14.5147 14.128 14.7787 14.62C15.0547 15.1 15.1927 15.664 15.1927 16.312V22H13.8787V16.69C13.8787 15.91 13.6627 15.298 13.2307 14.854C12.8107 14.398 12.2407 14.17 11.5207 14.17C11.0407 14.17 10.6027 14.284 10.2067 14.512C9.81073 14.74 9.48073 15.076 9.21673 15.52V22H7.90273ZM17.8344 22V9.004L19.1484 8.734V22H17.8344ZM21.8242 22V13.216H23.1382V22H21.8242ZM22.4902 11.038C22.2262 11.038 21.9982 10.948 21.8062 10.768C21.6262 10.576 21.5362 10.354 21.5362 10.102C21.5362 9.85 21.6262 9.634 21.8062 9.454C21.9982 9.262 22.2262 9.166 22.4902 9.166C22.7542 9.166 22.9762 9.262 23.1562 9.454C23.3482 9.634 23.4442 9.85 23.4442 10.102C23.4442 10.354 23.3482 10.576 23.1562 10.768C22.9762 10.948 22.7542 11.038 22.4902 11.038ZM25.8324 22V13.216H27.1464V14.638C27.4824 14.11 27.8844 13.72 28.3524 13.468C28.8204 13.204 29.3484 13.072 29.9364 13.072C30.5724 13.072 31.1244 13.21 31.5924 13.486C32.0724 13.75 32.4444 14.128 32.7084 14.62C32.9844 15.1 33.1224 15.664 33.1224 16.312V22H31.8084V16.69C31.8084 15.91 31.5924 15.298 31.1604 14.854C30.7404 14.398 30.1704 14.17 29.4504 14.17C28.9704 14.17 28.5324 14.284 28.1364 14.512C27.7404 14.74 27.4104 15.076 27.1464 15.52V22H25.8324ZM39.7241 22.18C38.9081 22.18 38.1701 21.982 37.5101 21.586C36.8501 21.178 36.3281 20.632 35.9441 19.948C35.5601 19.252 35.3681 18.472 35.3681 17.608C35.3681 16.744 35.5481 15.97 35.9081 15.286C36.2801 14.602 36.7781 14.062 37.4021 13.666C38.0261 13.27 38.7221 13.072 39.4901 13.072C40.2701 13.072 40.9601 13.27 41.5601 13.666C42.1721 14.05 42.6521 14.578 43.0001 15.25C43.3601 15.91 43.5401 16.66 43.5401 17.5V17.896H36.6461C36.6941 18.496 36.8561 19.036 37.1321 19.516C37.4201 19.984 37.7921 20.356 38.2481 20.632C38.7161 20.896 39.2261 21.028 39.7781 21.028C40.2341 21.028 40.6721 20.95 41.0921 20.794C41.5241 20.626 41.8901 20.404 42.1901 20.128L43.0181 21.01C42.5141 21.406 41.9921 21.7 41.4521 21.892C40.9121 22.084 40.3361 22.18 39.7241 22.18ZM36.6821 16.96H42.2441C42.1841 16.432 42.0221 15.964 41.7581 15.556C41.5061 15.136 41.1821 14.806 40.7861 14.566C40.4021 14.326 39.9701 14.206 39.4901 14.206C39.0101 14.206 38.5721 14.326 38.1761 14.566C37.7801 14.794 37.4501 15.118 37.1861 15.538C36.9341 15.946 36.7661 16.42 36.6821 16.96ZM49.9848 22V9.004L51.2988 8.734V22H49.9848ZM53.9746 22V13.216H55.2886V22H53.9746ZM54.6406 11.038C54.3766 11.038 54.1486 10.948 53.9566 10.768C53.7766 10.576 53.6866 10.354 53.6866 10.102C53.6866 9.85 53.7766 9.634 53.9566 9.454C54.1486 9.262 54.3766 9.166 54.6406 9.166C54.9046 9.166 55.1266 9.262 55.3066 9.454C55.4986 9.634 55.5946 9.85 55.5946 10.102C55.5946 10.354 55.4986 10.576 55.3066 10.768C55.1266 10.948 54.9046 11.038 54.6406 11.038ZM57.9828 22V13.216H59.2968V14.638C59.6328 14.11 60.0348 13.72 60.5028 13.468C60.9708 13.204 61.4988 13.072 62.0868 13.072C62.7228 13.072 63.2748 13.21 63.7428 13.486C64.2228 13.75 64.5948 14.128 64.8588 14.62C65.1348 15.1 65.2728 15.664 65.2728 16.312V22H63.9588V16.69C63.9588 15.91 63.7428 15.298 63.3108 14.854C62.8908 14.398 62.3208 14.17 61.6008 14.17C61.1208 14.17 60.6828 14.284 60.2868 14.512C59.8908 14.74 59.5608 15.076 59.2968 15.52V22H57.9828ZM67.9145 22V9.004L69.2285 8.734V17.158L73.4045 13.216H74.9885L70.5245 17.392L75.1865 22H73.4585L69.2285 17.806V22H67.9145Z" fill="#003366"/>
<line x1="2" y1="27.5" x2="76" y2="27.5" stroke="#707070" stroke-dasharray="3 2"/>
<rect x="155" y="1" width="76" height="29" rx="3" stroke="#0066CC" stroke-width="2"/>
<path d="M157.584 22V9.4H158.97V22H157.584ZM161.903 22V13.216H163.217V14.638C163.553 14.11 163.955 13.72 164.423 13.468C164.891 13.204 165.419 13.072 166.007 13.072C166.643 13.072 167.195 13.21 167.663 13.486C168.143 13.75 168.515 14.128 168.779 14.62C169.055 15.1 169.193 15.664 169.193 16.312V22H167.879V16.69C167.879 15.91 167.663 15.298 167.231 14.854C166.811 14.398 166.241 14.17 165.521 14.17C165.041 14.17 164.603 14.284 164.207 14.512C163.811 14.74 163.481 15.076 163.217 15.52V22H161.903ZM171.834 22V9.004L173.148 8.734V22H171.834ZM175.824 22V13.216H177.138V22H175.824ZM176.49 11.038C176.226 11.038 175.998 10.948 175.806 10.768C175.626 10.576 175.536 10.354 175.536 10.102C175.536 9.85 175.626 9.634 175.806 9.454C175.998 9.262 176.226 9.166 176.49 9.166C176.754 9.166 176.976 9.262 177.156 9.454C177.348 9.634 177.444 9.85 177.444 10.102C177.444 10.354 177.348 10.576 177.156 10.768C176.976 10.948 176.754 11.038 176.49 11.038ZM179.832 22V13.216H181.146V14.638C181.482 14.11 181.884 13.72 182.352 13.468C182.82 13.204 183.348 13.072 183.936 13.072C184.572 13.072 185.124 13.21 185.592 13.486C186.072 13.75 186.444 14.128 186.708 14.62C186.984 15.1 187.122 15.664 187.122 16.312V22H185.808V16.69C185.808 15.91 185.592 15.298 185.16 14.854C184.74 14.398 184.17 14.17 183.45 14.17C182.97 14.17 182.532 14.284 182.136 14.512C181.74 14.74 181.41 15.076 181.146 15.52V22H179.832ZM193.724 22.18C192.908 22.18 192.17 21.982 191.51 21.586C190.85 21.178 190.328 20.632 189.944 19.948C189.56 19.252 189.368 18.472 189.368 17.608C189.368 16.744 189.548 15.97 189.908 15.286C190.28 14.602 190.778 14.062 191.402 13.666C192.026 13.27 192.722 13.072 193.49 13.072C194.27 13.072 194.96 13.27 195.56 13.666C196.172 14.05 196.652 14.578 197 15.25C197.36 15.91 197.54 16.66 197.54 17.5V17.896H190.646C190.694 18.496 190.856 19.036 191.132 19.516C191.42 19.984 191.792 20.356 192.248 20.632C192.716 20.896 193.226 21.028 193.778 21.028C194.234 21.028 194.672 20.95 195.092 20.794C195.524 20.626 195.89 20.404 196.19 20.128L197.018 21.01C196.514 21.406 195.992 21.7 195.452 21.892C194.912 22.084 194.336 22.18 193.724 22.18ZM190.682 16.96H196.244C196.184 16.432 196.022 15.964 195.758 15.556C195.506 15.136 195.182 14.806 194.786 14.566C194.402 14.326 193.97 14.206 193.49 14.206C193.01 14.206 192.572 14.326 192.176 14.566C191.78 14.794 191.45 15.118 191.186 15.538C190.934 15.946 190.766 16.42 190.682 16.96ZM203.985 22V9.004L205.299 8.734V22H203.985ZM207.975 22V13.216H209.289V22H207.975ZM208.641 11.038C208.377 11.038 208.149 10.948 207.957 10.768C207.777 10.576 207.687 10.354 207.687 10.102C207.687 9.85 207.777 9.634 207.957 9.454C208.149 9.262 208.377 9.166 208.641 9.166C208.905 9.166 209.127 9.262 209.307 9.454C209.499 9.634 209.595 9.85 209.595 10.102C209.595 10.354 209.499 10.576 209.307 10.768C209.127 10.948 208.905 11.038 208.641 11.038ZM211.983 22V13.216H213.297V14.638C213.633 14.11 214.035 13.72 214.503 13.468C214.971 13.204 215.499 13.072 216.087 13.072C216.723 13.072 217.275 13.21 217.743 13.486C218.223 13.75 218.595 14.128 218.859 14.62C219.135 15.1 219.273 15.664 219.273 16.312V22H217.959V16.69C217.959 15.91 217.743 15.298 217.311 14.854C216.891 14.398 216.321 14.17 215.601 14.17C215.121 14.17 214.683 14.284 214.287 14.512C213.891 14.74 213.561 15.076 213.297 15.52V22H211.983ZM221.914 22V9.004L223.228 8.734V17.158L227.404 13.216H228.988L224.524 17.392L229.186 22H227.458L223.228 17.806V22H221.914Z" fill="#003366"/>
<line x1="156" y1="27.5" x2="230" y2="27.5" stroke="#707070" stroke-dasharray="3 2"/>
<path d="M311.584 22V9.4H312.97V22H311.584ZM315.903 22V13.216H317.217V14.638C317.553 14.11 317.955 13.72 318.423 13.468C318.891 13.204 319.419 13.072 320.007 13.072C320.643 13.072 321.195 13.21 321.663 13.486C322.143 13.75 322.515 14.128 322.779 14.62C323.055 15.1 323.193 15.664 323.193 16.312V22H321.879V16.69C321.879 15.91 321.663 15.298 321.231 14.854C320.811 14.398 320.241 14.17 319.521 14.17C319.041 14.17 318.603 14.284 318.207 14.512C317.811 14.74 317.481 15.076 317.217 15.52V22H315.903ZM325.834 22V9.004L327.148 8.734V22H325.834ZM329.824 22V13.216H331.138V22H329.824ZM330.49 11.038C330.226 11.038 329.998 10.948 329.806 10.768C329.626 10.576 329.536 10.354 329.536 10.102C329.536 9.85 329.626 9.634 329.806 9.454C329.998 9.262 330.226 9.166 330.49 9.166C330.754 9.166 330.976 9.262 331.156 9.454C331.348 9.634 331.444 9.85 331.444 10.102C331.444 10.354 331.348 10.576 331.156 10.768C330.976 10.948 330.754 11.038 330.49 11.038ZM333.832 22V13.216H335.146V14.638C335.482 14.11 335.884 13.72 336.352 13.468C336.82 13.204 337.348 13.072 337.936 13.072C338.572 13.072 339.124 13.21 339.592 13.486C340.072 13.75 340.444 14.128 340.708 14.62C340.984 15.1 341.122 15.664 341.122 16.312V22H339.808V16.69C339.808 15.91 339.592 15.298 339.16 14.854C338.74 14.398 338.17 14.17 337.45 14.17C336.97 14.17 336.532 14.284 336.136 14.512C335.74 14.74 335.41 15.076 335.146 15.52V22H333.832ZM347.724 22.18C346.908 22.18 346.17 21.982 345.51 21.586C344.85 21.178 344.328 20.632 343.944 19.948C343.56 19.252 343.368 18.472 343.368 17.608C343.368 16.744 343.548 15.97 343.908 15.286C344.28 14.602 344.778 14.062 345.402 13.666C346.026 13.27 346.722 13.072 347.49 13.072C348.27 13.072 348.96 13.27 349.56 13.666C350.172 14.05 350.652 14.578 351 15.25C351.36 15.91 351.54 16.66 351.54 17.5V17.896H344.646C344.694 18.496 344.856 19.036 345.132 19.516C345.42 19.984 345.792 20.356 346.248 20.632C346.716 20.896 347.226 21.028 347.778 21.028C348.234 21.028 348.672 20.95 349.092 20.794C349.524 20.626 349.89 20.404 350.19 20.128L351.018 21.01C350.514 21.406 349.992 21.7 349.452 21.892C348.912 22.084 348.336 22.18 347.724 22.18ZM344.682 16.96H350.244C350.184 16.432 350.022 15.964 349.758 15.556C349.506 15.136 349.182 14.806 348.786 14.566C348.402 14.326 347.97 14.206 347.49 14.206C347.01 14.206 346.572 14.326 346.176 14.566C345.78 14.794 345.45 15.118 345.186 15.538C344.934 15.946 344.766 16.42 344.682 16.96ZM357.985 22V9.004L359.299 8.734V22H357.985ZM361.975 22V13.216H363.289V22H361.975ZM362.641 11.038C362.377 11.038 362.149 10.948 361.957 10.768C361.777 10.576 361.687 10.354 361.687 10.102C361.687 9.85 361.777 9.634 361.957 9.454C362.149 9.262 362.377 9.166 362.641 9.166C362.905 9.166 363.127 9.262 363.307 9.454C363.499 9.634 363.595 9.85 363.595 10.102C363.595 10.354 363.499 10.576 363.307 10.768C363.127 10.948 362.905 11.038 362.641 11.038ZM365.983 22V13.216H367.297V14.638C367.633 14.11 368.035 13.72 368.503 13.468C368.971 13.204 369.499 13.072 370.087 13.072C370.723 13.072 371.275 13.21 371.743 13.486C372.223 13.75 372.595 14.128 372.859 14.62C373.135 15.1 373.273 15.664 373.273 16.312V22H371.959V16.69C371.959 15.91 371.743 15.298 371.311 14.854C370.891 14.398 370.321 14.17 369.601 14.17C369.121 14.17 368.683 14.284 368.287 14.512C367.891 14.74 367.561 15.076 367.297 15.52V22H365.983ZM375.914 22V9.004L377.228 8.734V17.158L381.404 13.216H382.988L378.524 17.392L383.186 22H381.458L377.228 17.806V22H375.914Z" fill="#003366"/>
<line x1="310" y1="27.5" x2="384" y2="27.5" stroke="#707070" stroke-dasharray="3 2"/>
<rect x="309" y="1" width="76" height="29" rx="3" stroke="#0066CC" stroke-width="2"/>
<path d="M471.344 22.18C470.408 22.18 469.532 22.018 468.716 21.694C467.9 21.358 467.186 20.896 466.574 20.308C465.974 19.72 465.5 19.036 465.152 18.256C464.816 17.464 464.648 16.612 464.648 15.7C464.648 14.776 464.816 13.924 465.152 13.144C465.5 12.352 465.98 11.662 466.592 11.074C467.204 10.486 467.912 10.03 468.716 9.706C469.532 9.37 470.408 9.202 471.344 9.202C472.04 9.202 472.712 9.298 473.36 9.49C474.008 9.682 474.608 9.952 475.16 10.3C475.724 10.648 476.204 11.068 476.6 11.56L474.836 13.306C474.38 12.742 473.852 12.316 473.252 12.028C472.664 11.74 472.028 11.596 471.344 11.596C470.78 11.596 470.252 11.704 469.76 11.92C469.268 12.124 468.842 12.412 468.482 12.784C468.122 13.144 467.84 13.576 467.636 14.08C467.432 14.572 467.33 15.112 467.33 15.7C467.33 16.276 467.432 16.816 467.636 17.32C467.84 17.812 468.128 18.244 468.5 18.616C468.872 18.976 469.304 19.258 469.796 19.462C470.3 19.666 470.846 19.768 471.434 19.768C472.094 19.768 472.712 19.63 473.288 19.354C473.864 19.078 474.374 18.682 474.818 18.166L476.528 19.858C476.132 20.338 475.658 20.752 475.106 21.1C474.554 21.448 473.954 21.718 473.306 21.91C472.67 22.09 472.016 22.18 471.344 22.18ZM480.88 22.162C480.208 22.162 479.614 22.042 479.098 21.802C478.582 21.55 478.18 21.208 477.892 20.776C477.604 20.344 477.46 19.846 477.46 19.282C477.46 18.382 477.796 17.686 478.468 17.194C479.152 16.69 480.088 16.438 481.276 16.438C482.092 16.438 482.86 16.564 483.58 16.816V16.132C483.58 15.592 483.412 15.184 483.076 14.908C482.74 14.632 482.248 14.494 481.6 14.494C481.204 14.494 480.778 14.56 480.322 14.692C479.866 14.812 479.338 15.004 478.738 15.268L477.838 13.45C478.582 13.114 479.29 12.862 479.962 12.694C480.646 12.526 481.33 12.442 482.014 12.442C483.274 12.442 484.252 12.748 484.948 13.36C485.656 13.96 486.01 14.812 486.01 15.916V22H483.58V21.334C483.196 21.622 482.782 21.832 482.338 21.964C481.894 22.096 481.408 22.162 480.88 22.162ZM479.8 19.228C479.8 19.588 479.956 19.876 480.268 20.092C480.58 20.296 480.994 20.398 481.51 20.398C481.918 20.398 482.296 20.35 482.644 20.254C482.992 20.146 483.304 19.99 483.58 19.786V18.418C483.28 18.298 482.968 18.208 482.644 18.148C482.32 18.088 481.972 18.058 481.6 18.058C481.036 18.058 480.592 18.166 480.268 18.382C479.956 18.586 479.8 18.868 479.8 19.228ZM487.876 22V9.4L490.342 8.986V22H487.876ZM492.271 22V9.4L494.737 8.986V22H492.271ZM504.732 22.144C503.688 22.144 502.896 21.91 502.356 21.442C501.828 20.962 501.564 20.266 501.564 19.354V14.674H499.638V12.622H501.564V10.228L504.03 9.67V12.622H506.712V14.674H504.03V18.85C504.03 19.282 504.126 19.594 504.318 19.786C504.51 19.966 504.846 20.056 505.326 20.056C505.566 20.056 505.782 20.044 505.974 20.02C506.178 19.984 506.4 19.924 506.64 19.84V21.874C506.388 21.958 506.07 22.024 505.686 22.072C505.314 22.12 504.996 22.144 504.732 22.144ZM512.382 22.18C511.446 22.18 510.6 21.964 509.844 21.532C509.088 21.1 508.488 20.518 508.044 19.786C507.6 19.054 507.378 18.232 507.378 17.32C507.378 16.408 507.594 15.586 508.026 14.854C508.47 14.11 509.07 13.522 509.826 13.09C510.594 12.658 511.446 12.442 512.382 12.442C513.318 12.442 514.164 12.658 514.92 13.09C515.688 13.522 516.288 14.11 516.72 14.854C517.164 15.586 517.386 16.408 517.386 17.32C517.386 18.232 517.164 19.054 516.72 19.786C516.288 20.518 515.694 21.1 514.938 21.532C514.182 21.964 513.33 22.18 512.382 22.18ZM512.382 20.038C512.874 20.038 513.312 19.918 513.696 19.678C514.092 19.438 514.404 19.114 514.632 18.706C514.872 18.286 514.992 17.824 514.992 17.32C514.992 16.804 514.872 16.342 514.632 15.934C514.404 15.526 514.092 15.202 513.696 14.962C513.312 14.71 512.874 14.584 512.382 14.584C511.902 14.584 511.464 14.71 511.068 14.962C510.672 15.202 510.36 15.526 510.132 15.934C509.904 16.342 509.79 16.804 509.79 17.32C509.79 17.824 509.904 18.286 510.132 18.706C510.36 19.114 510.672 19.438 511.068 19.678C511.464 19.918 511.902 20.038 512.382 20.038ZM525.511 22.162C524.839 22.162 524.245 22.042 523.729 21.802C523.213 21.55 522.811 21.208 522.523 20.776C522.235 20.344 522.091 19.846 522.091 19.282C522.091 18.382 522.427 17.686 523.099 17.194C523.783 16.69 524.719 16.438 525.907 16.438C526.723 16.438 527.491 16.564 528.211 16.816V16.132C528.211 15.592 528.043 15.184 527.707 14.908C527.371 14.632 526.879 14.494 526.231 14.494C525.835 14.494 525.409 14.56 524.953 14.692C524.497 14.812 523.969 15.004 523.369 15.268L522.469 13.45C523.213 13.114 523.921 12.862 524.593 12.694C525.277 12.526 525.961 12.442 526.645 12.442C527.905 12.442 528.883 12.748 529.579 13.36C530.287 13.96 530.641 14.812 530.641 15.916V22H528.211V21.334C527.827 21.622 527.413 21.832 526.969 21.964C526.525 22.096 526.039 22.162 525.511 22.162ZM524.431 19.228C524.431 19.588 524.587 19.876 524.899 20.092C525.211 20.296 525.625 20.398 526.141 20.398C526.549 20.398 526.927 20.35 527.275 20.254C527.623 20.146 527.935 19.99 528.211 19.786V18.418C527.911 18.298 527.599 18.208 527.275 18.148C526.951 18.088 526.603 18.058 526.231 18.058C525.667 18.058 525.223 18.166 524.899 18.382C524.587 18.586 524.431 18.868 524.431 19.228ZM536.989 22.18C536.065 22.18 535.231 21.97 534.487 21.55C533.743 21.118 533.155 20.536 532.723 19.804C532.291 19.06 532.075 18.232 532.075 17.32C532.075 16.396 532.291 15.568 532.723 14.836C533.155 14.104 533.743 13.522 534.487 13.09C535.231 12.658 536.065 12.442 536.989 12.442C537.733 12.442 538.441 12.586 539.113 12.874C539.797 13.162 540.385 13.576 540.877 14.116L539.365 15.718C539.017 15.334 538.651 15.052 538.267 14.872C537.895 14.68 537.487 14.584 537.043 14.584C536.563 14.584 536.131 14.704 535.747 14.944C535.375 15.184 535.075 15.508 534.847 15.916C534.631 16.324 534.523 16.792 534.523 17.32C534.523 17.824 534.631 18.286 534.847 18.706C535.075 19.114 535.387 19.438 535.783 19.678C536.179 19.906 536.617 20.02 537.097 20.02C537.517 20.02 537.907 19.936 538.267 19.768C538.639 19.588 538.993 19.324 539.329 18.976L540.805 20.524C540.325 21.04 539.749 21.448 539.077 21.748C538.405 22.036 537.709 22.18 536.989 22.18ZM546.709 22.144C545.665 22.144 544.873 21.91 544.333 21.442C543.805 20.962 543.541 20.266 543.541 19.354V14.674H541.615V12.622H543.541V10.228L546.007 9.67V12.622H548.689V14.674H546.007V18.85C546.007 19.282 546.103 19.594 546.295 19.786C546.487 19.966 546.823 20.056 547.303 20.056C547.543 20.056 547.759 20.044 547.951 20.02C548.155 19.984 548.377 19.924 548.617 19.84V21.874C548.365 21.958 548.047 22.024 547.663 22.072C547.291 22.12 546.973 22.144 546.709 22.144ZM549.892 22V12.622H552.358V22H549.892ZM551.116 11.506C550.732 11.506 550.402 11.368 550.126 11.092C549.85 10.816 549.712 10.486 549.712 10.102C549.712 9.706 549.85 9.376 550.126 9.112C550.402 8.836 550.732 8.698 551.116 8.698C551.512 8.698 551.842 8.836 552.106 9.112C552.382 9.376 552.52 9.706 552.52 10.102C552.52 10.486 552.382 10.816 552.106 11.092C551.842 11.368 551.512 11.506 551.116 11.506ZM558.858 22.18C557.922 22.18 557.076 21.964 556.32 21.532C555.564 21.1 554.964 20.518 554.52 19.786C554.076 19.054 553.854 18.232 553.854 17.32C553.854 16.408 554.07 15.586 554.502 14.854C554.946 14.11 555.546 13.522 556.302 13.09C557.07 12.658 557.922 12.442 558.858 12.442C559.794 12.442 560.64 12.658 561.396 13.09C562.164 13.522 562.764 14.11 563.196 14.854C563.64 15.586 563.862 16.408 563.862 17.32C563.862 18.232 563.64 19.054 563.196 19.786C562.764 20.518 562.17 21.1 561.414 21.532C560.658 21.964 559.806 22.18 558.858 22.18ZM558.858 20.038C559.35 20.038 559.788 19.918 560.172 19.678C560.568 19.438 560.88 19.114 561.108 18.706C561.348 18.286 561.468 17.824 561.468 17.32C561.468 16.804 561.348 16.342 561.108 15.934C560.88 15.526 560.568 15.202 560.172 14.962C559.788 14.71 559.35 14.584 558.858 14.584C558.378 14.584 557.94 14.71 557.544 14.962C557.148 15.202 556.836 15.526 556.608 15.934C556.38 16.342 556.266 16.804 556.266 17.32C556.266 17.824 556.38 18.286 556.608 18.706C556.836 19.114 557.148 19.438 557.544 19.678C557.94 19.918 558.378 20.038 558.858 20.038ZM565.378 22V12.622H567.844V13.396C568.552 12.76 569.428 12.442 570.472 12.442C571.204 12.442 571.846 12.604 572.398 12.928C572.962 13.24 573.4 13.678 573.712 14.242C574.024 14.794 574.18 15.442 574.18 16.186V22H571.714V16.546C571.714 15.934 571.54 15.454 571.192 15.106C570.844 14.746 570.37 14.566 569.77 14.566C569.35 14.566 568.978 14.65 568.654 14.818C568.33 14.974 568.06 15.202 567.844 15.502V22H565.378Z" fill="#003366"/>
<g clip-path="url(#clip0_103_2303)">
<path d="M605.1 14.8376L598.444 8.18135C598.2 7.9376 597.806 7.9376 597.563 8.18135C597.319 8.4251 597.319 8.81885 597.563 9.0626L603.369 14.8688H587.381C587.038 14.8688 586.756 15.1501 586.756 15.4938C586.756 15.8376 587.038 16.1188 587.381 16.1188H603.375L597.569 21.9251C597.325 22.1688 597.325 22.5626 597.569 22.8063C597.694 22.9313 597.85 22.9876 598.013 22.9876C598.175 22.9876 598.331 22.9251 598.456 22.8063L605.113 16.1501C605.475 15.7876 605.475 15.1876 605.113 14.8251L605.1 14.8376Z" fill="#003366"/>
</g>
<rect x="463" y="1" width="146" height="29" rx="3" stroke="#0066CC" stroke-width="2"/>
<defs>
<clipPath id="clip0_103_2303">
<rect width="20" height="20" fill="white" transform="translate(586 5.5)"/>
</clipPath>
</defs>
</svg>
