<svg width="482" height="268" viewBox="0 0 482 268" fill="none" xmlns="http://www.w3.org/2000/svg">
<path d="M82.024 56L88.96 39.2H91.936L98.8 56H96.064L94.12 51.08H86.608L84.64 56H82.024ZM87.424 48.992H93.304L90.376 41.6L87.424 48.992ZM100.244 56V43.784H102.644V45.344C103.028 44.768 103.5 44.32 104.06 44C104.636 43.664 105.284 43.496 106.004 43.496C106.5 43.512 106.908 43.584 107.228 43.712V45.872C107.004 45.776 106.772 45.712 106.532 45.68C106.292 45.632 106.052 45.608 105.812 45.608C105.108 45.608 104.484 45.8 103.94 46.184C103.396 46.552 102.964 47.096 102.644 47.816V56H100.244ZM114.382 56.216C113.198 56.216 112.294 55.944 111.67 55.4C111.046 54.84 110.734 54.032 110.734 52.976V45.8H108.142V43.784H110.734V40.664L113.11 40.088V43.784H116.71V45.8H113.11V52.424C113.11 53.048 113.246 53.496 113.518 53.768C113.806 54.024 114.27 54.152 114.91 54.152C115.246 54.152 115.542 54.128 115.798 54.08C116.07 54.032 116.358 53.96 116.662 53.864V55.88C116.342 55.992 115.966 56.072 115.534 56.12C115.118 56.184 114.734 56.216 114.382 56.216ZM118.479 56V43.784H120.879V56H118.479ZM119.679 41.816C119.279 41.816 118.935 41.672 118.646 41.384C118.359 41.08 118.215 40.728 118.215 40.328C118.215 39.912 118.359 39.568 118.646 39.296C118.935 39.008 119.279 38.864 119.679 38.864C120.095 38.864 120.447 39.008 120.735 39.296C121.023 39.568 121.167 39.912 121.167 40.328C121.167 40.728 121.023 41.08 120.735 41.384C120.447 41.672 120.095 41.816 119.679 41.816ZM129.441 56.216C128.273 56.216 127.209 55.936 126.249 55.376C125.289 54.816 124.529 54.056 123.969 53.096C123.425 52.136 123.153 51.064 123.153 49.88C123.153 48.696 123.433 47.632 123.993 46.688C124.553 45.728 125.305 44.968 126.249 44.408C127.209 43.832 128.273 43.544 129.441 43.544C130.369 43.544 131.257 43.72 132.105 44.072C132.969 44.424 133.713 44.92 134.337 45.56L132.849 47.216C132.385 46.704 131.865 46.32 131.289 46.064C130.713 45.808 130.113 45.68 129.489 45.68C128.753 45.68 128.081 45.864 127.473 46.232C126.881 46.6 126.409 47.104 126.057 47.744C125.705 48.384 125.529 49.096 125.529 49.88C125.529 50.664 125.705 51.376 126.057 52.016C126.409 52.656 126.889 53.168 127.497 53.552C128.105 53.92 128.785 54.104 129.537 54.104C130.161 54.104 130.745 53.984 131.289 53.744C131.833 53.488 132.345 53.12 132.825 52.64L134.289 54.176C133.649 54.832 132.905 55.336 132.057 55.688C131.225 56.04 130.353 56.216 129.441 56.216ZM136.221 56V39.2L138.621 38.744V56H136.221ZM147.303 56.216C146.103 56.216 145.015 55.936 144.039 55.376C143.079 54.816 142.311 54.056 141.735 53.096C141.175 52.136 140.895 51.064 140.895 49.88C140.895 48.712 141.167 47.656 141.711 46.712C142.255 45.752 142.991 44.992 143.919 44.432C144.847 43.856 145.879 43.568 147.015 43.568C148.151 43.568 149.159 43.856 150.039 44.432C150.919 44.992 151.615 45.76 152.127 46.736C152.655 47.696 152.919 48.784 152.919 50V50.672H143.295C143.423 51.344 143.671 51.944 144.039 52.472C144.423 53 144.903 53.416 145.479 53.72C146.071 54.024 146.711 54.176 147.399 54.176C147.991 54.176 148.559 54.088 149.103 53.912C149.663 53.72 150.127 53.448 150.495 53.096L152.031 54.608C151.311 55.152 150.567 55.56 149.799 55.832C149.047 56.088 148.215 56.216 147.303 56.216ZM143.319 48.872H150.543C150.447 48.232 150.223 47.672 149.871 47.192C149.535 46.696 149.111 46.312 148.599 46.04C148.103 45.752 147.559 45.608 146.967 45.608C146.359 45.608 145.799 45.744 145.287 46.016C144.775 46.288 144.343 46.672 143.991 47.168C143.655 47.648 143.431 48.216 143.319 48.872ZM159.522 56.24C158.466 56.24 157.474 56.088 156.546 55.784C155.634 55.464 154.842 55.016 154.17 54.44L155.49 52.856C156.114 53.352 156.754 53.736 157.41 54.008C158.082 54.264 158.762 54.392 159.45 54.392C160.314 54.392 161.018 54.224 161.562 53.888C162.106 53.552 162.378 53.112 162.378 52.568C162.378 52.12 162.218 51.768 161.898 51.512C161.578 51.256 161.082 51.08 160.41 50.984L158.202 50.672C156.986 50.496 156.074 50.12 155.466 49.544C154.858 48.968 154.554 48.2 154.554 47.24C154.554 46.504 154.754 45.864 155.154 45.32C155.554 44.76 156.114 44.328 156.834 44.024C157.554 43.704 158.394 43.544 159.354 43.544C160.234 43.544 161.082 43.672 161.898 43.928C162.714 44.184 163.498 44.584 164.25 45.128L163.026 46.712C162.354 46.264 161.698 45.936 161.058 45.728C160.434 45.52 159.802 45.416 159.162 45.416C158.426 45.416 157.834 45.576 157.386 45.896C156.938 46.2 156.714 46.6 156.714 47.096C156.714 47.544 156.866 47.896 157.17 48.152C157.49 48.392 158.01 48.56 158.73 48.656L160.938 48.968C162.154 49.144 163.074 49.52 163.698 50.096C164.322 50.656 164.634 51.416 164.634 52.376C164.634 53.112 164.41 53.776 163.962 54.368C163.514 54.944 162.906 55.4 162.138 55.736C161.37 56.072 160.498 56.24 159.522 56.24Z" fill="#151515"/>
<path d="M85.474 100L82.756 87.4H84.16L86.302 97.822L89.416 87.4H90.766L93.88 97.786L96.04 87.4H97.39L94.672 100H93.268L90.082 89.308L86.878 100H85.474ZM99.5043 100V87.004L100.818 86.734V92.638C101.154 92.11 101.556 91.72 102.024 91.468C102.492 91.204 103.02 91.072 103.608 91.072C104.244 91.072 104.796 91.21 105.264 91.486C105.744 91.75 106.116 92.128 106.38 92.62C106.656 93.1 106.794 93.664 106.794 94.312V100H105.48V94.69C105.48 93.91 105.264 93.298 104.832 92.854C104.412 92.398 103.842 92.17 103.122 92.17C102.642 92.17 102.204 92.284 101.808 92.512C101.412 92.74 101.082 93.076 100.818 93.52V100H99.5043ZM112.154 100.162C111.53 100.162 110.978 100.048 110.498 99.82C110.018 99.592 109.64 99.28 109.364 98.884C109.1 98.476 108.968 98.008 108.968 97.48C108.968 96.952 109.106 96.496 109.382 96.112C109.658 95.716 110.042 95.41 110.534 95.194C111.026 94.978 111.602 94.87 112.262 94.87C112.766 94.87 113.24 94.924 113.684 95.032C114.14 95.14 114.56 95.314 114.944 95.554V94.348C114.944 93.628 114.752 93.088 114.368 92.728C113.984 92.356 113.42 92.17 112.676 92.17C112.268 92.17 111.848 92.23 111.416 92.35C110.996 92.47 110.528 92.662 110.012 92.926L109.526 91.918C110.702 91.354 111.806 91.072 112.838 91.072C113.93 91.072 114.77 91.342 115.358 91.882C115.946 92.41 116.24 93.172 116.24 94.168V100H114.944V98.974C114.56 99.37 114.134 99.67 113.666 99.874C113.198 100.066 112.694 100.162 112.154 100.162ZM110.228 97.444C110.228 97.96 110.426 98.374 110.822 98.686C111.23 98.998 111.764 99.154 112.424 99.154C112.916 99.154 113.366 99.07 113.774 98.902C114.194 98.734 114.584 98.482 114.944 98.146V96.454C114.572 96.238 114.188 96.082 113.792 95.986C113.396 95.878 112.952 95.824 112.46 95.824C111.788 95.824 111.248 95.974 110.84 96.274C110.432 96.562 110.228 96.952 110.228 97.444ZM121.995 100.18C121.239 100.18 120.663 100 120.267 99.64C119.883 99.268 119.691 98.734 119.691 98.038V92.296H117.873V91.216H119.691V88.804L121.005 88.498V91.216H123.525V92.296H121.005V97.696C121.005 98.164 121.101 98.5 121.293 98.704C121.497 98.908 121.827 99.01 122.283 99.01C122.511 99.01 122.715 98.992 122.895 98.956C123.075 98.92 123.285 98.86 123.525 98.776V99.946C123.285 100.03 123.033 100.09 122.769 100.126C122.505 100.162 122.247 100.18 121.995 100.18ZM129.633 100V91.216H130.947V100H129.633ZM130.299 89.038C130.035 89.038 129.807 88.948 129.615 88.768C129.435 88.576 129.345 88.354 129.345 88.102C129.345 87.85 129.435 87.634 129.615 87.454C129.807 87.262 130.035 87.166 130.299 87.166C130.563 87.166 130.785 87.262 130.965 87.454C131.157 87.634 131.253 87.85 131.253 88.102C131.253 88.354 131.157 88.576 130.965 88.768C130.785 88.948 130.563 89.038 130.299 89.038ZM136.359 100.18C135.639 100.18 134.973 100.072 134.361 99.856C133.749 99.628 133.227 99.304 132.795 98.884L133.497 98.02C134.025 98.404 134.511 98.686 134.955 98.866C135.399 99.034 135.855 99.118 136.323 99.118C136.959 99.118 137.487 98.968 137.907 98.668C138.327 98.368 138.537 97.984 138.537 97.516C138.537 97.156 138.411 96.874 138.159 96.67C137.919 96.466 137.517 96.31 136.953 96.202L135.513 95.95C134.661 95.794 134.031 95.53 133.623 95.158C133.227 94.786 133.029 94.282 133.029 93.646C133.029 93.142 133.161 92.698 133.425 92.314C133.701 91.93 134.079 91.63 134.559 91.414C135.039 91.186 135.585 91.072 136.197 91.072C136.797 91.072 137.367 91.162 137.907 91.342C138.447 91.51 138.993 91.786 139.545 92.17L138.897 93.088C138.441 92.764 137.985 92.53 137.529 92.386C137.073 92.23 136.611 92.152 136.143 92.152C135.567 92.152 135.105 92.278 134.757 92.53C134.409 92.782 134.235 93.124 134.235 93.556C134.235 93.916 134.343 94.192 134.559 94.384C134.787 94.576 135.183 94.72 135.747 94.816L137.223 95.086C138.111 95.242 138.759 95.512 139.167 95.896C139.575 96.28 139.779 96.796 139.779 97.444C139.779 97.96 139.629 98.428 139.329 98.848C139.029 99.256 138.621 99.58 138.105 99.82C137.589 100.06 137.007 100.18 136.359 100.18ZM146.215 100V87.4H147.601V100H146.215ZM154.044 100V88.624H149.688V87.4H159.786V88.624H155.43V100H154.044ZM168.562 100.162C167.938 100.162 167.386 100.048 166.906 99.82C166.426 99.592 166.048 99.28 165.772 98.884C165.508 98.476 165.376 98.008 165.376 97.48C165.376 96.952 165.514 96.496 165.79 96.112C166.066 95.716 166.45 95.41 166.942 95.194C167.434 94.978 168.01 94.87 168.67 94.87C169.174 94.87 169.648 94.924 170.092 95.032C170.548 95.14 170.968 95.314 171.352 95.554V94.348C171.352 93.628 171.16 93.088 170.776 92.728C170.392 92.356 169.828 92.17 169.084 92.17C168.676 92.17 168.256 92.23 167.824 92.35C167.404 92.47 166.936 92.662 166.42 92.926L165.934 91.918C167.11 91.354 168.214 91.072 169.246 91.072C170.338 91.072 171.178 91.342 171.766 91.882C172.354 92.41 172.648 93.172 172.648 94.168V100H171.352V98.974C170.968 99.37 170.542 99.67 170.074 99.874C169.606 100.066 169.102 100.162 168.562 100.162ZM166.636 97.444C166.636 97.96 166.834 98.374 167.23 98.686C167.638 98.998 168.172 99.154 168.832 99.154C169.324 99.154 169.774 99.07 170.182 98.902C170.602 98.734 170.992 98.482 171.352 98.146V96.454C170.98 96.238 170.596 96.082 170.2 95.986C169.804 95.878 169.36 95.824 168.868 95.824C168.196 95.824 167.656 95.974 167.248 96.274C166.84 96.562 166.636 96.952 166.636 97.444ZM178.363 100.144C177.739 100.144 177.187 100.006 176.707 99.73C176.227 99.454 175.849 99.07 175.573 98.578C175.309 98.086 175.177 97.522 175.177 96.886V91.216H176.509V96.508C176.509 97.288 176.719 97.906 177.139 98.362C177.559 98.818 178.129 99.046 178.849 99.046C179.341 99.046 179.779 98.932 180.163 98.704C180.559 98.476 180.889 98.146 181.153 97.714V91.216H182.467V100H181.153V98.578C180.817 99.094 180.415 99.484 179.947 99.748C179.491 100.012 178.963 100.144 178.363 100.144ZM188.511 100.18C187.755 100.18 187.179 100 186.783 99.64C186.399 99.268 186.207 98.734 186.207 98.038V92.296H184.389V91.216H186.207V88.804L187.521 88.498V91.216H190.041V92.296H187.521V97.696C187.521 98.164 187.617 98.5 187.809 98.704C188.013 98.908 188.343 99.01 188.799 99.01C189.027 99.01 189.231 98.992 189.411 98.956C189.591 98.92 189.801 98.86 190.041 98.776V99.946C189.801 100.03 189.549 100.09 189.285 100.126C189.021 100.162 188.763 100.18 188.511 100.18ZM195.677 100.144C194.861 100.144 194.129 99.946 193.481 99.55C192.833 99.154 192.323 98.614 191.951 97.93C191.579 97.246 191.393 96.472 191.393 95.608C191.393 94.744 191.579 93.97 191.951 93.286C192.323 92.602 192.833 92.062 193.481 91.666C194.129 91.27 194.861 91.072 195.677 91.072C196.481 91.072 197.201 91.27 197.837 91.666C198.485 92.062 198.995 92.602 199.367 93.286C199.739 93.97 199.925 94.744 199.925 95.608C199.925 96.472 199.739 97.246 199.367 97.93C198.995 98.614 198.485 99.154 197.837 99.55C197.201 99.946 196.481 100.144 195.677 100.144ZM195.659 98.992C196.235 98.992 196.745 98.848 197.189 98.56C197.633 98.26 197.981 97.852 198.233 97.336C198.497 96.82 198.629 96.244 198.629 95.608C198.629 94.96 198.497 94.384 198.233 93.88C197.981 93.364 197.633 92.962 197.189 92.674C196.745 92.374 196.235 92.224 195.659 92.224C195.083 92.224 194.573 92.374 194.129 92.674C193.685 92.962 193.331 93.364 193.067 93.88C192.815 94.384 192.689 94.96 192.689 95.608C192.689 96.244 192.815 96.82 193.067 97.336C193.331 97.852 193.685 98.26 194.129 98.56C194.573 98.848 195.083 98.992 195.659 98.992ZM202.231 100V91.216H203.545V92.584C203.881 92.08 204.265 91.702 204.697 91.45C205.129 91.198 205.615 91.072 206.155 91.072C206.779 91.072 207.325 91.228 207.793 91.54C208.261 91.84 208.615 92.254 208.855 92.782C209.203 92.218 209.617 91.792 210.097 91.504C210.589 91.216 211.153 91.072 211.789 91.072C212.377 91.072 212.893 91.21 213.337 91.486C213.793 91.762 214.147 92.146 214.399 92.638C214.651 93.118 214.777 93.682 214.777 94.33V100H213.463V94.654C213.463 93.886 213.271 93.28 212.887 92.836C212.503 92.392 211.975 92.17 211.303 92.17C210.847 92.17 210.433 92.284 210.061 92.512C209.701 92.74 209.383 93.088 209.107 93.556C209.131 93.676 209.149 93.802 209.161 93.934C209.173 94.066 209.179 94.198 209.179 94.33V100H207.865V94.654C207.865 93.886 207.667 93.28 207.271 92.836C206.887 92.392 206.359 92.17 205.687 92.17C204.787 92.17 204.073 92.602 203.545 93.466V100H202.231ZM220.154 100.162C219.53 100.162 218.978 100.048 218.498 99.82C218.018 99.592 217.64 99.28 217.364 98.884C217.1 98.476 216.968 98.008 216.968 97.48C216.968 96.952 217.106 96.496 217.382 96.112C217.658 95.716 218.042 95.41 218.534 95.194C219.026 94.978 219.602 94.87 220.262 94.87C220.766 94.87 221.24 94.924 221.684 95.032C222.14 95.14 222.56 95.314 222.944 95.554V94.348C222.944 93.628 222.752 93.088 222.368 92.728C221.984 92.356 221.42 92.17 220.676 92.17C220.268 92.17 219.848 92.23 219.416 92.35C218.996 92.47 218.528 92.662 218.012 92.926L217.526 91.918C218.702 91.354 219.806 91.072 220.838 91.072C221.93 91.072 222.77 91.342 223.358 91.882C223.946 92.41 224.24 93.172 224.24 94.168V100H222.944V98.974C222.56 99.37 222.134 99.67 221.666 99.874C221.198 100.066 220.694 100.162 220.154 100.162ZM218.228 97.444C218.228 97.96 218.426 98.374 218.822 98.686C219.23 98.998 219.764 99.154 220.424 99.154C220.916 99.154 221.366 99.07 221.774 98.902C222.194 98.734 222.584 98.482 222.944 98.146V96.454C222.572 96.238 222.188 96.082 221.792 95.986C221.396 95.878 220.952 95.824 220.46 95.824C219.788 95.824 219.248 95.974 218.84 96.274C218.432 96.562 218.228 96.952 218.228 97.444ZM229.995 100.18C229.239 100.18 228.663 100 228.267 99.64C227.883 99.268 227.691 98.734 227.691 98.038V92.296H225.873V91.216H227.691V88.804L229.005 88.498V91.216H231.525V92.296H229.005V97.696C229.005 98.164 229.101 98.5 229.293 98.704C229.497 98.908 229.827 99.01 230.283 99.01C230.511 99.01 230.715 98.992 230.895 98.956C231.075 98.92 231.285 98.86 231.525 98.776V99.946C231.285 100.03 231.033 100.09 230.769 100.126C230.505 100.162 230.247 100.18 229.995 100.18ZM233.432 100V91.216H234.746V100H233.432ZM234.098 89.038C233.834 89.038 233.606 88.948 233.414 88.768C233.234 88.576 233.144 88.354 233.144 88.102C233.144 87.85 233.234 87.634 233.414 87.454C233.606 87.262 233.834 87.166 234.098 87.166C234.362 87.166 234.584 87.262 234.764 87.454C234.956 87.634 235.052 87.85 235.052 88.102C235.052 88.354 234.956 88.576 234.764 88.768C234.584 88.948 234.362 89.038 234.098 89.038ZM241.328 100.144C240.512 100.144 239.78 99.946 239.132 99.55C238.484 99.154 237.974 98.614 237.602 97.93C237.23 97.246 237.044 96.472 237.044 95.608C237.044 94.744 237.23 93.97 237.602 93.286C237.974 92.602 238.484 92.062 239.132 91.666C239.78 91.27 240.512 91.072 241.328 91.072C242.132 91.072 242.852 91.27 243.488 91.666C244.136 92.062 244.646 92.602 245.018 93.286C245.39 93.97 245.576 94.744 245.576 95.608C245.576 96.472 245.39 97.246 245.018 97.93C244.646 98.614 244.136 99.154 243.488 99.55C242.852 99.946 242.132 100.144 241.328 100.144ZM241.31 98.992C241.886 98.992 242.396 98.848 242.84 98.56C243.284 98.26 243.632 97.852 243.884 97.336C244.148 96.82 244.28 96.244 244.28 95.608C244.28 94.96 244.148 94.384 243.884 93.88C243.632 93.364 243.284 92.962 242.84 92.674C242.396 92.374 241.886 92.224 241.31 92.224C240.734 92.224 240.224 92.374 239.78 92.674C239.336 92.962 238.982 93.364 238.718 93.88C238.466 94.384 238.34 94.96 238.34 95.608C238.34 96.244 238.466 96.82 238.718 97.336C238.982 97.852 239.336 98.26 239.78 98.56C240.224 98.848 240.734 98.992 241.31 98.992ZM247.881 100V91.216H249.195V92.638C249.531 92.11 249.933 91.72 250.401 91.468C250.869 91.204 251.397 91.072 251.985 91.072C252.621 91.072 253.173 91.21 253.641 91.486C254.121 91.75 254.493 92.128 254.757 92.62C255.033 93.1 255.171 93.664 255.171 94.312V100H253.857V94.69C253.857 93.91 253.641 93.298 253.209 92.854C252.789 92.398 252.219 92.17 251.499 92.17C251.019 92.17 250.581 92.284 250.185 92.512C249.789 92.74 249.459 93.076 249.195 93.52V100H247.881ZM259.216 96.274C259.192 95.77 259.216 95.332 259.288 94.96C259.372 94.588 259.522 94.252 259.738 93.952C259.954 93.64 260.248 93.346 260.62 93.07L261.376 92.512C261.868 92.128 262.216 91.78 262.42 91.468C262.624 91.156 262.726 90.796 262.726 90.388C262.726 90.016 262.618 89.686 262.402 89.398C262.186 89.11 261.892 88.882 261.52 88.714C261.148 88.534 260.728 88.444 260.26 88.444C259.696 88.444 259.168 88.582 258.676 88.858C258.184 89.134 257.746 89.536 257.362 90.064L256.354 89.38C256.846 88.696 257.428 88.174 258.1 87.814C258.784 87.442 259.522 87.256 260.314 87.256C261.022 87.256 261.652 87.394 262.204 87.67C262.756 87.934 263.194 88.3 263.518 88.768C263.842 89.236 264.004 89.77 264.004 90.37C264.004 90.778 263.938 91.15 263.806 91.486C263.686 91.81 263.482 92.128 263.194 92.44C262.906 92.752 262.504 93.094 261.988 93.466L261.412 93.898C261.004 94.198 260.716 94.534 260.548 94.906C260.38 95.278 260.314 95.734 260.35 96.274H259.216ZM259.81 100.144C259.546 100.144 259.318 100.054 259.126 99.874C258.946 99.682 258.856 99.454 258.856 99.19C258.856 98.914 258.946 98.686 259.126 98.506C259.318 98.326 259.546 98.236 259.81 98.236C260.074 98.236 260.296 98.326 260.476 98.506C260.656 98.686 260.746 98.914 260.746 99.19C260.746 99.454 260.656 99.682 260.476 99.874C260.296 100.054 260.074 100.144 259.81 100.144Z" fill="#0066CC"/>
<path d="M85.474 143L82.756 130.4H84.16L86.302 140.822L89.416 130.4H90.766L93.88 140.786L96.04 130.4H97.39L94.672 143H93.268L90.082 132.308L86.878 143H85.474ZM99.5043 143V130.004L100.818 129.734V135.638C101.154 135.11 101.556 134.72 102.024 134.468C102.492 134.204 103.02 134.072 103.608 134.072C104.244 134.072 104.796 134.21 105.264 134.486C105.744 134.75 106.116 135.128 106.38 135.62C106.656 136.1 106.794 136.664 106.794 137.312V143H105.48V137.69C105.48 136.91 105.264 136.298 104.832 135.854C104.412 135.398 103.842 135.17 103.122 135.17C102.642 135.17 102.204 135.284 101.808 135.512C101.412 135.74 101.082 136.076 100.818 136.52V143H99.5043ZM112.154 143.162C111.53 143.162 110.978 143.048 110.498 142.82C110.018 142.592 109.64 142.28 109.364 141.884C109.1 141.476 108.968 141.008 108.968 140.48C108.968 139.952 109.106 139.496 109.382 139.112C109.658 138.716 110.042 138.41 110.534 138.194C111.026 137.978 111.602 137.87 112.262 137.87C112.766 137.87 113.24 137.924 113.684 138.032C114.14 138.14 114.56 138.314 114.944 138.554V137.348C114.944 136.628 114.752 136.088 114.368 135.728C113.984 135.356 113.42 135.17 112.676 135.17C112.268 135.17 111.848 135.23 111.416 135.35C110.996 135.47 110.528 135.662 110.012 135.926L109.526 134.918C110.702 134.354 111.806 134.072 112.838 134.072C113.93 134.072 114.77 134.342 115.358 134.882C115.946 135.41 116.24 136.172 116.24 137.168V143H114.944V141.974C114.56 142.37 114.134 142.67 113.666 142.874C113.198 143.066 112.694 143.162 112.154 143.162ZM110.228 140.444C110.228 140.96 110.426 141.374 110.822 141.686C111.23 141.998 111.764 142.154 112.424 142.154C112.916 142.154 113.366 142.07 113.774 141.902C114.194 141.734 114.584 141.482 114.944 141.146V139.454C114.572 139.238 114.188 139.082 113.792 138.986C113.396 138.878 112.952 138.824 112.46 138.824C111.788 138.824 111.248 138.974 110.84 139.274C110.432 139.562 110.228 139.952 110.228 140.444ZM121.995 143.18C121.239 143.18 120.663 143 120.267 142.64C119.883 142.268 119.691 141.734 119.691 141.038V135.296H117.873V134.216H119.691V131.804L121.005 131.498V134.216H123.525V135.296H121.005V140.696C121.005 141.164 121.101 141.5 121.293 141.704C121.497 141.908 121.827 142.01 122.283 142.01C122.511 142.01 122.715 141.992 122.895 141.956C123.075 141.92 123.285 141.86 123.525 141.776V142.946C123.285 143.03 123.033 143.09 122.769 143.126C122.505 143.162 122.247 143.18 121.995 143.18ZM129.633 143V134.216H130.947V143H129.633ZM130.299 132.038C130.035 132.038 129.807 131.948 129.615 131.768C129.435 131.576 129.345 131.354 129.345 131.102C129.345 130.85 129.435 130.634 129.615 130.454C129.807 130.262 130.035 130.166 130.299 130.166C130.563 130.166 130.785 130.262 130.965 130.454C131.157 130.634 131.253 130.85 131.253 131.102C131.253 131.354 131.157 131.576 130.965 131.768C130.785 131.948 130.563 132.038 130.299 132.038ZM136.359 143.18C135.639 143.18 134.973 143.072 134.361 142.856C133.749 142.628 133.227 142.304 132.795 141.884L133.497 141.02C134.025 141.404 134.511 141.686 134.955 141.866C135.399 142.034 135.855 142.118 136.323 142.118C136.959 142.118 137.487 141.968 137.907 141.668C138.327 141.368 138.537 140.984 138.537 140.516C138.537 140.156 138.411 139.874 138.159 139.67C137.919 139.466 137.517 139.31 136.953 139.202L135.513 138.95C134.661 138.794 134.031 138.53 133.623 138.158C133.227 137.786 133.029 137.282 133.029 136.646C133.029 136.142 133.161 135.698 133.425 135.314C133.701 134.93 134.079 134.63 134.559 134.414C135.039 134.186 135.585 134.072 136.197 134.072C136.797 134.072 137.367 134.162 137.907 134.342C138.447 134.51 138.993 134.786 139.545 135.17L138.897 136.088C138.441 135.764 137.985 135.53 137.529 135.386C137.073 135.23 136.611 135.152 136.143 135.152C135.567 135.152 135.105 135.278 134.757 135.53C134.409 135.782 134.235 136.124 134.235 136.556C134.235 136.916 134.343 137.192 134.559 137.384C134.787 137.576 135.183 137.72 135.747 137.816L137.223 138.086C138.111 138.242 138.759 138.512 139.167 138.896C139.575 139.28 139.779 139.796 139.779 140.444C139.779 140.96 139.629 141.428 139.329 141.848C139.029 142.256 138.621 142.58 138.105 142.82C137.589 143.06 137.007 143.18 136.359 143.18ZM145.981 143V130.13L147.295 129.86V135.422C147.631 135.002 148.039 134.678 148.519 134.45C148.999 134.222 149.533 134.108 150.121 134.108C150.889 134.108 151.573 134.312 152.173 134.72C152.785 135.116 153.271 135.656 153.631 136.34C153.991 137.012 154.171 137.768 154.171 138.608C154.171 139.448 153.985 140.21 153.613 140.894C153.253 141.578 152.761 142.124 152.137 142.532C151.525 142.928 150.829 143.126 150.049 143.126C149.497 143.126 148.981 143.018 148.501 142.802C148.033 142.574 147.625 142.256 147.277 141.848V143H145.981ZM149.797 141.992C150.385 141.992 150.907 141.848 151.363 141.56C151.831 141.26 152.197 140.858 152.461 140.354C152.737 139.838 152.875 139.262 152.875 138.626C152.875 137.978 152.737 137.402 152.461 136.898C152.197 136.394 151.831 135.998 151.363 135.71C150.907 135.41 150.385 135.26 149.797 135.26C149.281 135.26 148.801 135.368 148.357 135.584C147.925 135.788 147.571 136.082 147.295 136.466V140.768C147.583 141.152 147.943 141.452 148.375 141.668C148.819 141.884 149.293 141.992 149.797 141.992ZM159.607 143.144C158.983 143.144 158.431 143.006 157.951 142.73C157.471 142.454 157.093 142.07 156.817 141.578C156.553 141.086 156.421 140.522 156.421 139.886V134.216H157.753V139.508C157.753 140.288 157.963 140.906 158.383 141.362C158.803 141.818 159.373 142.046 160.093 142.046C160.585 142.046 161.023 141.932 161.407 141.704C161.803 141.476 162.133 141.146 162.397 140.714V134.216H163.711V143H162.397V141.578C162.061 142.094 161.659 142.484 161.191 142.748C160.735 143.012 160.207 143.144 159.607 143.144ZM169.125 143.18C168.405 143.18 167.739 143.072 167.127 142.856C166.515 142.628 165.993 142.304 165.561 141.884L166.263 141.02C166.791 141.404 167.277 141.686 167.721 141.866C168.165 142.034 168.621 142.118 169.089 142.118C169.725 142.118 170.253 141.968 170.673 141.668C171.093 141.368 171.303 140.984 171.303 140.516C171.303 140.156 171.177 139.874 170.925 139.67C170.685 139.466 170.283 139.31 169.719 139.202L168.279 138.95C167.427 138.794 166.797 138.53 166.389 138.158C165.993 137.786 165.795 137.282 165.795 136.646C165.795 136.142 165.927 135.698 166.191 135.314C166.467 134.93 166.845 134.63 167.325 134.414C167.805 134.186 168.351 134.072 168.963 134.072C169.563 134.072 170.133 134.162 170.673 134.342C171.213 134.51 171.759 134.786 172.311 135.17L171.663 136.088C171.207 135.764 170.751 135.53 170.295 135.386C169.839 135.23 169.377 135.152 168.909 135.152C168.333 135.152 167.871 135.278 167.523 135.53C167.175 135.782 167.001 136.124 167.001 136.556C167.001 136.916 167.109 137.192 167.325 137.384C167.553 137.576 167.949 137.72 168.513 137.816L169.989 138.086C170.877 138.242 171.525 138.512 171.933 138.896C172.341 139.28 172.545 139.796 172.545 140.444C172.545 140.96 172.395 141.428 172.095 141.848C171.795 142.256 171.387 142.58 170.871 142.82C170.355 143.06 169.773 143.18 169.125 143.18ZM174.527 143V134.216H175.841V143H174.527ZM175.193 132.038C174.929 132.038 174.701 131.948 174.509 131.768C174.329 131.576 174.239 131.354 174.239 131.102C174.239 130.85 174.329 130.634 174.509 130.454C174.701 130.262 174.929 130.166 175.193 130.166C175.457 130.166 175.679 130.262 175.859 130.454C176.051 130.634 176.147 130.85 176.147 131.102C176.147 131.354 176.051 131.576 175.859 131.768C175.679 131.948 175.457 132.038 175.193 132.038ZM178.536 143V134.216H179.85V135.638C180.186 135.11 180.588 134.72 181.056 134.468C181.524 134.204 182.052 134.072 182.64 134.072C183.276 134.072 183.828 134.21 184.296 134.486C184.776 134.75 185.148 135.128 185.412 135.62C185.688 136.1 185.826 136.664 185.826 137.312V143H184.512V137.69C184.512 136.91 184.296 136.298 183.864 135.854C183.444 135.398 182.874 135.17 182.154 135.17C181.674 135.17 181.236 135.284 180.84 135.512C180.444 135.74 180.114 136.076 179.85 136.52V143H178.536ZM192.427 143.18C191.611 143.18 190.873 142.982 190.213 142.586C189.553 142.178 189.031 141.632 188.647 140.948C188.263 140.252 188.071 139.472 188.071 138.608C188.071 137.744 188.251 136.97 188.611 136.286C188.983 135.602 189.481 135.062 190.105 134.666C190.729 134.27 191.425 134.072 192.193 134.072C192.973 134.072 193.663 134.27 194.263 134.666C194.875 135.05 195.355 135.578 195.703 136.25C196.063 136.91 196.243 137.66 196.243 138.5V138.896H189.349C189.397 139.496 189.559 140.036 189.835 140.516C190.123 140.984 190.495 141.356 190.951 141.632C191.419 141.896 191.929 142.028 192.481 142.028C192.937 142.028 193.375 141.95 193.795 141.794C194.227 141.626 194.593 141.404 194.893 141.128L195.721 142.01C195.217 142.406 194.695 142.7 194.155 142.892C193.615 143.084 193.039 143.18 192.427 143.18ZM189.385 137.96H194.947C194.887 137.432 194.725 136.964 194.461 136.556C194.209 136.136 193.885 135.806 193.489 135.566C193.105 135.326 192.673 135.206 192.193 135.206C191.713 135.206 191.275 135.326 190.879 135.566C190.483 135.794 190.153 136.118 189.889 136.538C189.637 136.946 189.469 137.42 189.385 137.96ZM201.293 143.18C200.573 143.18 199.907 143.072 199.295 142.856C198.683 142.628 198.161 142.304 197.729 141.884L198.431 141.02C198.959 141.404 199.445 141.686 199.889 141.866C200.333 142.034 200.789 142.118 201.257 142.118C201.893 142.118 202.421 141.968 202.841 141.668C203.261 141.368 203.471 140.984 203.471 140.516C203.471 140.156 203.345 139.874 203.093 139.67C202.853 139.466 202.451 139.31 201.887 139.202L200.447 138.95C199.595 138.794 198.965 138.53 198.557 138.158C198.161 137.786 197.963 137.282 197.963 136.646C197.963 136.142 198.095 135.698 198.359 135.314C198.635 134.93 199.013 134.63 199.493 134.414C199.973 134.186 200.519 134.072 201.131 134.072C201.731 134.072 202.301 134.162 202.841 134.342C203.381 134.51 203.927 134.786 204.479 135.17L203.831 136.088C203.375 135.764 202.919 135.53 202.463 135.386C202.007 135.23 201.545 135.152 201.077 135.152C200.501 135.152 200.039 135.278 199.691 135.53C199.343 135.782 199.169 136.124 199.169 136.556C199.169 136.916 199.277 137.192 199.493 137.384C199.721 137.576 200.117 137.72 200.681 137.816L202.157 138.086C203.045 138.242 203.693 138.512 204.101 138.896C204.509 139.28 204.713 139.796 204.713 140.444C204.713 140.96 204.563 141.428 204.263 141.848C203.963 142.256 203.555 142.58 203.039 142.82C202.523 143.06 201.941 143.18 201.293 143.18ZM209.431 143.18C208.711 143.18 208.045 143.072 207.433 142.856C206.821 142.628 206.299 142.304 205.867 141.884L206.569 141.02C207.097 141.404 207.583 141.686 208.027 141.866C208.471 142.034 208.927 142.118 209.395 142.118C210.031 142.118 210.559 141.968 210.979 141.668C211.399 141.368 211.609 140.984 211.609 140.516C211.609 140.156 211.483 139.874 211.231 139.67C210.991 139.466 210.589 139.31 210.025 139.202L208.585 138.95C207.733 138.794 207.103 138.53 206.695 138.158C206.299 137.786 206.101 137.282 206.101 136.646C206.101 136.142 206.233 135.698 206.497 135.314C206.773 134.93 207.151 134.63 207.631 134.414C208.111 134.186 208.657 134.072 209.269 134.072C209.869 134.072 210.439 134.162 210.979 134.342C211.519 134.51 212.065 134.786 212.617 135.17L211.969 136.088C211.513 135.764 211.057 135.53 210.601 135.386C210.145 135.23 209.683 135.152 209.215 135.152C208.639 135.152 208.177 135.278 207.829 135.53C207.481 135.782 207.307 136.124 207.307 136.556C207.307 136.916 207.415 137.192 207.631 137.384C207.859 137.576 208.255 137.72 208.819 137.816L210.295 138.086C211.183 138.242 211.831 138.512 212.239 138.896C212.647 139.28 212.851 139.796 212.851 140.444C212.851 140.96 212.701 141.428 212.401 141.848C212.101 142.256 211.693 142.58 211.177 142.82C210.661 143.06 210.079 143.18 209.431 143.18ZM221.771 143.162C221.147 143.162 220.595 143.048 220.115 142.82C219.635 142.592 219.257 142.28 218.981 141.884C218.717 141.476 218.585 141.008 218.585 140.48C218.585 139.952 218.723 139.496 218.999 139.112C219.275 138.716 219.659 138.41 220.151 138.194C220.643 137.978 221.219 137.87 221.879 137.87C222.383 137.87 222.857 137.924 223.301 138.032C223.757 138.14 224.177 138.314 224.561 138.554V137.348C224.561 136.628 224.369 136.088 223.985 135.728C223.601 135.356 223.037 135.17 222.293 135.17C221.885 135.17 221.465 135.23 221.033 135.35C220.613 135.47 220.145 135.662 219.629 135.926L219.143 134.918C220.319 134.354 221.423 134.072 222.455 134.072C223.547 134.072 224.387 134.342 224.975 134.882C225.563 135.41 225.857 136.172 225.857 137.168V143H224.561V141.974C224.177 142.37 223.751 142.67 223.283 142.874C222.815 143.066 222.311 143.162 221.771 143.162ZM219.845 140.444C219.845 140.96 220.043 141.374 220.439 141.686C220.847 141.998 221.381 142.154 222.041 142.154C222.533 142.154 222.983 142.07 223.391 141.902C223.811 141.734 224.201 141.482 224.561 141.146V139.454C224.189 139.238 223.805 139.082 223.409 138.986C223.013 138.878 222.569 138.824 222.077 138.824C221.405 138.824 220.865 138.974 220.457 139.274C220.049 139.562 219.845 139.952 219.845 140.444ZM231.572 143.144C230.948 143.144 230.396 143.006 229.916 142.73C229.436 142.454 229.058 142.07 228.782 141.578C228.518 141.086 228.386 140.522 228.386 139.886V134.216H229.718V139.508C229.718 140.288 229.928 140.906 230.348 141.362C230.768 141.818 231.338 142.046 232.058 142.046C232.55 142.046 232.988 141.932 233.372 141.704C233.768 141.476 234.098 141.146 234.362 140.714V134.216H235.676V143H234.362V141.578C234.026 142.094 233.624 142.484 233.156 142.748C232.7 143.012 232.172 143.144 231.572 143.144ZM241.719 143.18C240.963 143.18 240.387 143 239.991 142.64C239.607 142.268 239.415 141.734 239.415 141.038V135.296H237.597V134.216H239.415V131.804L240.729 131.498V134.216H243.249V135.296H240.729V140.696C240.729 141.164 240.825 141.5 241.017 141.704C241.221 141.908 241.551 142.01 242.007 142.01C242.235 142.01 242.439 141.992 242.619 141.956C242.799 141.92 243.009 141.86 243.249 141.776V142.946C243.009 143.03 242.757 143.09 242.493 143.126C242.229 143.162 241.971 143.18 241.719 143.18ZM248.886 143.144C248.07 143.144 247.338 142.946 246.69 142.55C246.042 142.154 245.532 141.614 245.16 140.93C244.788 140.246 244.602 139.472 244.602 138.608C244.602 137.744 244.788 136.97 245.16 136.286C245.532 135.602 246.042 135.062 246.69 134.666C247.338 134.27 248.07 134.072 248.886 134.072C249.69 134.072 250.41 134.27 251.046 134.666C251.694 135.062 252.204 135.602 252.576 136.286C252.948 136.97 253.134 137.744 253.134 138.608C253.134 139.472 252.948 140.246 252.576 140.93C252.204 141.614 251.694 142.154 251.046 142.55C250.41 142.946 249.69 143.144 248.886 143.144ZM248.868 141.992C249.444 141.992 249.954 141.848 250.398 141.56C250.842 141.26 251.19 140.852 251.442 140.336C251.706 139.82 251.838 139.244 251.838 138.608C251.838 137.96 251.706 137.384 251.442 136.88C251.19 136.364 250.842 135.962 250.398 135.674C249.954 135.374 249.444 135.224 248.868 135.224C248.292 135.224 247.782 135.374 247.338 135.674C246.894 135.962 246.54 136.364 246.276 136.88C246.024 137.384 245.898 137.96 245.898 138.608C245.898 139.244 246.024 139.82 246.276 140.336C246.54 140.852 246.894 141.26 247.338 141.56C247.782 141.848 248.292 141.992 248.868 141.992ZM255.44 143V134.216H256.754V135.584C257.09 135.08 257.474 134.702 257.906 134.45C258.338 134.198 258.824 134.072 259.364 134.072C259.988 134.072 260.534 134.228 261.002 134.54C261.47 134.84 261.824 135.254 262.064 135.782C262.412 135.218 262.826 134.792 263.306 134.504C263.798 134.216 264.362 134.072 264.998 134.072C265.586 134.072 266.102 134.21 266.546 134.486C267.002 134.762 267.356 135.146 267.608 135.638C267.86 136.118 267.986 136.682 267.986 137.33V143H266.672V137.654C266.672 136.886 266.48 136.28 266.096 135.836C265.712 135.392 265.184 135.17 264.512 135.17C264.056 135.17 263.642 135.284 263.27 135.512C262.91 135.74 262.592 136.088 262.316 136.556C262.34 136.676 262.358 136.802 262.37 136.934C262.382 137.066 262.388 137.198 262.388 137.33V143H261.074V137.654C261.074 136.886 260.876 136.28 260.48 135.836C260.096 135.392 259.568 135.17 258.896 135.17C257.996 135.17 257.282 135.602 256.754 136.466V143H255.44ZM273.363 143.162C272.739 143.162 272.187 143.048 271.707 142.82C271.227 142.592 270.849 142.28 270.573 141.884C270.309 141.476 270.177 141.008 270.177 140.48C270.177 139.952 270.315 139.496 270.591 139.112C270.867 138.716 271.251 138.41 271.743 138.194C272.235 137.978 272.811 137.87 273.471 137.87C273.975 137.87 274.449 137.924 274.893 138.032C275.349 138.14 275.769 138.314 276.153 138.554V137.348C276.153 136.628 275.961 136.088 275.577 135.728C275.193 135.356 274.629 135.17 273.885 135.17C273.477 135.17 273.057 135.23 272.625 135.35C272.205 135.47 271.737 135.662 271.221 135.926L270.735 134.918C271.911 134.354 273.015 134.072 274.047 134.072C275.139 134.072 275.979 134.342 276.567 134.882C277.155 135.41 277.449 136.172 277.449 137.168V143H276.153V141.974C275.769 142.37 275.343 142.67 274.875 142.874C274.407 143.066 273.903 143.162 273.363 143.162ZM271.437 140.444C271.437 140.96 271.635 141.374 272.031 141.686C272.439 141.998 272.973 142.154 273.633 142.154C274.125 142.154 274.575 142.07 274.983 141.902C275.403 141.734 275.793 141.482 276.153 141.146V139.454C275.781 139.238 275.397 139.082 275.001 138.986C274.605 138.878 274.161 138.824 273.669 138.824C272.997 138.824 272.457 138.974 272.049 139.274C271.641 139.562 271.437 139.952 271.437 140.444ZM283.204 143.18C282.448 143.18 281.872 143 281.476 142.64C281.092 142.268 280.9 141.734 280.9 141.038V135.296H279.082V134.216H280.9V131.804L282.214 131.498V134.216H284.734V135.296H282.214V140.696C282.214 141.164 282.31 141.5 282.502 141.704C282.706 141.908 283.036 142.01 283.492 142.01C283.72 142.01 283.924 141.992 284.104 141.956C284.284 141.92 284.494 141.86 284.734 141.776V142.946C284.494 143.03 284.242 143.09 283.978 143.126C283.714 143.162 283.456 143.18 283.204 143.18ZM286.641 143V134.216H287.955V143H286.641ZM287.307 132.038C287.043 132.038 286.815 131.948 286.623 131.768C286.443 131.576 286.353 131.354 286.353 131.102C286.353 130.85 286.443 130.634 286.623 130.454C286.815 130.262 287.043 130.166 287.307 130.166C287.571 130.166 287.793 130.262 287.973 130.454C288.165 130.634 288.261 130.85 288.261 131.102C288.261 131.354 288.165 131.576 287.973 131.768C287.793 131.948 287.571 132.038 287.307 132.038ZM294.537 143.144C293.721 143.144 292.989 142.946 292.341 142.55C291.693 142.154 291.183 141.614 290.811 140.93C290.439 140.246 290.253 139.472 290.253 138.608C290.253 137.744 290.439 136.97 290.811 136.286C291.183 135.602 291.693 135.062 292.341 134.666C292.989 134.27 293.721 134.072 294.537 134.072C295.341 134.072 296.061 134.27 296.697 134.666C297.345 135.062 297.855 135.602 298.227 136.286C298.599 136.97 298.785 137.744 298.785 138.608C298.785 139.472 298.599 140.246 298.227 140.93C297.855 141.614 297.345 142.154 296.697 142.55C296.061 142.946 295.341 143.144 294.537 143.144ZM294.519 141.992C295.095 141.992 295.605 141.848 296.049 141.56C296.493 141.26 296.841 140.852 297.093 140.336C297.357 139.82 297.489 139.244 297.489 138.608C297.489 137.96 297.357 137.384 297.093 136.88C296.841 136.364 296.493 135.962 296.049 135.674C295.605 135.374 295.095 135.224 294.519 135.224C293.943 135.224 293.433 135.374 292.989 135.674C292.545 135.962 292.191 136.364 291.927 136.88C291.675 137.384 291.549 137.96 291.549 138.608C291.549 139.244 291.675 139.82 291.927 140.336C292.191 140.852 292.545 141.26 292.989 141.56C293.433 141.848 293.943 141.992 294.519 141.992ZM301.09 143V134.216H302.404V135.638C302.74 135.11 303.142 134.72 303.61 134.468C304.078 134.204 304.606 134.072 305.194 134.072C305.83 134.072 306.382 134.21 306.85 134.486C307.33 134.75 307.702 135.128 307.966 135.62C308.242 136.1 308.38 136.664 308.38 137.312V143H307.066V137.69C307.066 136.91 306.85 136.298 306.418 135.854C305.998 135.398 305.428 135.17 304.708 135.17C304.228 135.17 303.79 135.284 303.394 135.512C302.998 135.74 302.668 136.076 302.404 136.52V143H301.09ZM312.425 139.274C312.401 138.77 312.425 138.332 312.497 137.96C312.581 137.588 312.731 137.252 312.947 136.952C313.163 136.64 313.457 136.346 313.829 136.07L314.585 135.512C315.077 135.128 315.425 134.78 315.629 134.468C315.833 134.156 315.935 133.796 315.935 133.388C315.935 133.016 315.827 132.686 315.611 132.398C315.395 132.11 315.101 131.882 314.729 131.714C314.357 131.534 313.937 131.444 313.469 131.444C312.905 131.444 312.377 131.582 311.885 131.858C311.393 132.134 310.955 132.536 310.571 133.064L309.563 132.38C310.055 131.696 310.637 131.174 311.309 130.814C311.993 130.442 312.731 130.256 313.523 130.256C314.231 130.256 314.861 130.394 315.413 130.67C315.965 130.934 316.403 131.3 316.727 131.768C317.051 132.236 317.213 132.77 317.213 133.37C317.213 133.778 317.147 134.15 317.015 134.486C316.895 134.81 316.691 135.128 316.403 135.44C316.115 135.752 315.713 136.094 315.197 136.466L314.621 136.898C314.213 137.198 313.925 137.534 313.757 137.906C313.589 138.278 313.523 138.734 313.559 139.274H312.425ZM313.019 143.144C312.755 143.144 312.527 143.054 312.335 142.874C312.155 142.682 312.065 142.454 312.065 142.19C312.065 141.914 312.155 141.686 312.335 141.506C312.527 141.326 312.755 141.236 313.019 141.236C313.283 141.236 313.505 141.326 313.685 141.506C313.865 141.686 313.955 141.914 313.955 142.19C313.955 142.454 313.865 142.682 313.685 142.874C313.505 143.054 313.283 143.144 313.019 143.144Z" fill="#0066CC"/>
<path d="M85.474 186L82.756 173.4H84.16L86.302 183.822L89.416 173.4H90.766L93.88 183.786L96.04 173.4H97.39L94.672 186H93.268L90.082 175.308L86.878 186H85.474ZM99.5043 186V173.004L100.818 172.734V178.638C101.154 178.11 101.556 177.72 102.024 177.468C102.492 177.204 103.02 177.072 103.608 177.072C104.244 177.072 104.796 177.21 105.264 177.486C105.744 177.75 106.116 178.128 106.38 178.62C106.656 179.1 106.794 179.664 106.794 180.312V186H105.48V180.69C105.48 179.91 105.264 179.298 104.832 178.854C104.412 178.398 103.842 178.17 103.122 178.17C102.642 178.17 102.204 178.284 101.808 178.512C101.412 178.74 101.082 179.076 100.818 179.52V186H99.5043ZM112.154 186.162C111.53 186.162 110.978 186.048 110.498 185.82C110.018 185.592 109.64 185.28 109.364 184.884C109.1 184.476 108.968 184.008 108.968 183.48C108.968 182.952 109.106 182.496 109.382 182.112C109.658 181.716 110.042 181.41 110.534 181.194C111.026 180.978 111.602 180.87 112.262 180.87C112.766 180.87 113.24 180.924 113.684 181.032C114.14 181.14 114.56 181.314 114.944 181.554V180.348C114.944 179.628 114.752 179.088 114.368 178.728C113.984 178.356 113.42 178.17 112.676 178.17C112.268 178.17 111.848 178.23 111.416 178.35C110.996 178.47 110.528 178.662 110.012 178.926L109.526 177.918C110.702 177.354 111.806 177.072 112.838 177.072C113.93 177.072 114.77 177.342 115.358 177.882C115.946 178.41 116.24 179.172 116.24 180.168V186H114.944V184.974C114.56 185.37 114.134 185.67 113.666 185.874C113.198 186.066 112.694 186.162 112.154 186.162ZM110.228 183.444C110.228 183.96 110.426 184.374 110.822 184.686C111.23 184.998 111.764 185.154 112.424 185.154C112.916 185.154 113.366 185.07 113.774 184.902C114.194 184.734 114.584 184.482 114.944 184.146V182.454C114.572 182.238 114.188 182.082 113.792 181.986C113.396 181.878 112.952 181.824 112.46 181.824C111.788 181.824 111.248 181.974 110.84 182.274C110.432 182.562 110.228 182.952 110.228 183.444ZM121.995 186.18C121.239 186.18 120.663 186 120.267 185.64C119.883 185.268 119.691 184.734 119.691 184.038V178.296H117.873V177.216H119.691V174.804L121.005 174.498V177.216H123.525V178.296H121.005V183.696C121.005 184.164 121.101 184.5 121.293 184.704C121.497 184.908 121.827 185.01 122.283 185.01C122.511 185.01 122.715 184.992 122.895 184.956C123.075 184.92 123.285 184.86 123.525 184.776V185.946C123.285 186.03 123.033 186.09 122.769 186.126C122.505 186.162 122.247 186.18 121.995 186.18ZM129.633 186V177.216H130.947V186H129.633ZM130.299 175.038C130.035 175.038 129.807 174.948 129.615 174.768C129.435 174.576 129.345 174.354 129.345 174.102C129.345 173.85 129.435 173.634 129.615 173.454C129.807 173.262 130.035 173.166 130.299 173.166C130.563 173.166 130.785 173.262 130.965 173.454C131.157 173.634 131.253 173.85 131.253 174.102C131.253 174.354 131.157 174.576 130.965 174.768C130.785 174.948 130.563 175.038 130.299 175.038ZM136.359 186.18C135.639 186.18 134.973 186.072 134.361 185.856C133.749 185.628 133.227 185.304 132.795 184.884L133.497 184.02C134.025 184.404 134.511 184.686 134.955 184.866C135.399 185.034 135.855 185.118 136.323 185.118C136.959 185.118 137.487 184.968 137.907 184.668C138.327 184.368 138.537 183.984 138.537 183.516C138.537 183.156 138.411 182.874 138.159 182.67C137.919 182.466 137.517 182.31 136.953 182.202L135.513 181.95C134.661 181.794 134.031 181.53 133.623 181.158C133.227 180.786 133.029 180.282 133.029 179.646C133.029 179.142 133.161 178.698 133.425 178.314C133.701 177.93 134.079 177.63 134.559 177.414C135.039 177.186 135.585 177.072 136.197 177.072C136.797 177.072 137.367 177.162 137.907 177.342C138.447 177.51 138.993 177.786 139.545 178.17L138.897 179.088C138.441 178.764 137.985 178.53 137.529 178.386C137.073 178.23 136.611 178.152 136.143 178.152C135.567 178.152 135.105 178.278 134.757 178.53C134.409 178.782 134.235 179.124 134.235 179.556C134.235 179.916 134.343 180.192 134.559 180.384C134.787 180.576 135.183 180.72 135.747 180.816L137.223 181.086C138.111 181.242 138.759 181.512 139.167 181.896C139.575 182.28 139.779 182.796 139.779 183.444C139.779 183.96 139.629 184.428 139.329 184.848C139.029 185.256 138.621 185.58 138.105 185.82C137.589 186.06 137.007 186.18 136.359 186.18ZM149.923 186.144C149.107 186.144 148.369 185.946 147.709 185.55C147.061 185.142 146.545 184.596 146.161 183.912C145.777 183.216 145.585 182.448 145.585 181.608C145.585 180.756 145.777 179.988 146.161 179.304C146.545 178.62 147.061 178.08 147.709 177.684C148.369 177.276 149.107 177.072 149.923 177.072C150.571 177.072 151.189 177.192 151.777 177.432C152.365 177.672 152.875 178.008 153.307 178.44L152.461 179.358C152.149 179.01 151.771 178.74 151.327 178.548C150.883 178.356 150.433 178.26 149.977 178.26C149.401 178.26 148.879 178.41 148.411 178.71C147.955 179.01 147.589 179.412 147.313 179.916C147.037 180.42 146.899 180.984 146.899 181.608C146.899 182.232 147.037 182.796 147.313 183.3C147.589 183.804 147.955 184.206 148.411 184.506C148.879 184.806 149.401 184.956 149.977 184.956C150.433 184.956 150.883 184.86 151.327 184.668C151.771 184.464 152.149 184.194 152.461 183.858L153.307 184.776C152.875 185.208 152.365 185.544 151.777 185.784C151.189 186.024 150.571 186.144 149.923 186.144ZM158.763 186.144C157.947 186.144 157.215 185.946 156.567 185.55C155.919 185.154 155.409 184.614 155.037 183.93C154.665 183.246 154.479 182.472 154.479 181.608C154.479 180.744 154.665 179.97 155.037 179.286C155.409 178.602 155.919 178.062 156.567 177.666C157.215 177.27 157.947 177.072 158.763 177.072C159.567 177.072 160.287 177.27 160.923 177.666C161.571 178.062 162.081 178.602 162.453 179.286C162.825 179.97 163.011 180.744 163.011 181.608C163.011 182.472 162.825 183.246 162.453 183.93C162.081 184.614 161.571 185.154 160.923 185.55C160.287 185.946 159.567 186.144 158.763 186.144ZM158.745 184.992C159.321 184.992 159.831 184.848 160.275 184.56C160.719 184.26 161.067 183.852 161.319 183.336C161.583 182.82 161.715 182.244 161.715 181.608C161.715 180.96 161.583 180.384 161.319 179.88C161.067 179.364 160.719 178.962 160.275 178.674C159.831 178.374 159.321 178.224 158.745 178.224C158.169 178.224 157.659 178.374 157.215 178.674C156.771 178.962 156.417 179.364 156.153 179.88C155.901 180.384 155.775 180.96 155.775 181.608C155.775 182.244 155.901 182.82 156.153 183.336C156.417 183.852 156.771 184.26 157.215 184.56C157.659 184.848 158.169 184.992 158.745 184.992ZM165.317 186V177.216H166.631V178.638C166.967 178.11 167.369 177.72 167.837 177.468C168.305 177.204 168.833 177.072 169.421 177.072C170.057 177.072 170.609 177.21 171.077 177.486C171.557 177.75 171.929 178.128 172.193 178.62C172.469 179.1 172.607 179.664 172.607 180.312V186H171.293V180.69C171.293 179.91 171.077 179.298 170.645 178.854C170.225 178.398 169.655 178.17 168.935 178.17C168.455 178.17 168.017 178.284 167.621 178.512C167.225 178.74 166.895 179.076 166.631 179.52V186H165.317ZM176.101 186V178.296H174.139V177.216H176.101V175.38C176.101 174.516 176.329 173.85 176.785 173.382C177.241 172.914 177.889 172.68 178.729 172.68C178.969 172.68 179.185 172.692 179.377 172.716C179.581 172.74 179.761 172.782 179.917 172.842V174.03C179.725 173.97 179.551 173.928 179.395 173.904C179.239 173.88 179.059 173.868 178.855 173.868C178.351 173.868 177.985 173.994 177.757 174.246C177.529 174.486 177.415 174.87 177.415 175.398V177.216H179.917V178.296H177.415V186H176.101ZM181.629 186V177.216H182.943V186H181.629ZM182.295 175.038C182.031 175.038 181.803 174.948 181.611 174.768C181.431 174.576 181.341 174.354 181.341 174.102C181.341 173.85 181.431 173.634 181.611 173.454C181.803 173.262 182.031 173.166 182.295 173.166C182.559 173.166 182.781 173.262 182.961 173.454C183.153 173.634 183.249 173.85 183.249 174.102C183.249 174.354 183.153 174.576 182.961 174.768C182.781 174.948 182.559 175.038 182.295 175.038ZM189.705 189.942C189.117 189.942 188.523 189.858 187.923 189.69C187.335 189.534 186.789 189.312 186.285 189.024L186.843 188.016C187.383 188.292 187.875 188.496 188.319 188.628C188.763 188.76 189.207 188.826 189.651 188.826C190.455 188.826 191.061 188.634 191.469 188.25C191.889 187.866 192.099 187.308 192.099 186.576V184.812C191.763 185.232 191.355 185.556 190.875 185.784C190.395 186 189.867 186.108 189.291 186.108C188.535 186.108 187.851 185.91 187.239 185.514C186.627 185.106 186.141 184.566 185.781 183.894C185.421 183.21 185.241 182.448 185.241 181.608C185.241 180.768 185.421 180.012 185.781 179.34C186.153 178.656 186.651 178.116 187.275 177.72C187.899 177.312 188.595 177.108 189.363 177.108C189.915 177.108 190.425 177.216 190.893 177.432C191.361 177.636 191.769 177.942 192.117 178.35V177.216H193.413V186.558C193.413 187.65 193.095 188.484 192.459 189.06C191.823 189.648 190.905 189.942 189.705 189.942ZM189.615 184.974C190.131 184.974 190.605 184.872 191.037 184.668C191.469 184.452 191.823 184.158 192.099 183.786V179.448C191.811 179.076 191.445 178.788 191.001 178.584C190.569 178.368 190.107 178.26 189.615 178.26C189.027 178.26 188.499 178.404 188.031 178.692C187.575 178.98 187.209 179.376 186.933 179.88C186.669 180.384 186.537 180.96 186.537 181.608C186.537 182.244 186.669 182.82 186.933 183.336C187.209 183.84 187.575 184.242 188.031 184.542C188.499 184.83 189.027 184.974 189.615 184.974ZM199.246 186.144C198.622 186.144 198.07 186.006 197.59 185.73C197.11 185.454 196.732 185.07 196.456 184.578C196.192 184.086 196.06 183.522 196.06 182.886V177.216H197.392V182.508C197.392 183.288 197.602 183.906 198.022 184.362C198.442 184.818 199.012 185.046 199.732 185.046C200.224 185.046 200.662 184.932 201.046 184.704C201.442 184.476 201.772 184.146 202.036 183.714V177.216H203.35V186H202.036V184.578C201.7 185.094 201.298 185.484 200.83 185.748C200.374 186.012 199.846 186.144 199.246 186.144ZM206.045 186V177.216H207.359V179.016C207.587 178.404 207.911 177.93 208.331 177.594C208.763 177.246 209.255 177.072 209.807 177.072C209.963 177.072 210.107 177.084 210.239 177.108C210.371 177.12 210.503 177.15 210.635 177.198V178.386C210.491 178.338 210.335 178.302 210.167 178.278C210.011 178.242 209.861 178.224 209.717 178.224C209.177 178.224 208.703 178.38 208.295 178.692C207.899 179.004 207.587 179.442 207.359 180.006V186H206.045ZM214.722 186.162C214.098 186.162 213.546 186.048 213.066 185.82C212.586 185.592 212.208 185.28 211.932 184.884C211.668 184.476 211.536 184.008 211.536 183.48C211.536 182.952 211.674 182.496 211.95 182.112C212.226 181.716 212.61 181.41 213.102 181.194C213.594 180.978 214.17 180.87 214.83 180.87C215.334 180.87 215.808 180.924 216.252 181.032C216.708 181.14 217.128 181.314 217.512 181.554V180.348C217.512 179.628 217.32 179.088 216.936 178.728C216.552 178.356 215.988 178.17 215.244 178.17C214.836 178.17 214.416 178.23 213.984 178.35C213.564 178.47 213.096 178.662 212.58 178.926L212.094 177.918C213.27 177.354 214.374 177.072 215.406 177.072C216.498 177.072 217.338 177.342 217.926 177.882C218.514 178.41 218.808 179.172 218.808 180.168V186H217.512V184.974C217.128 185.37 216.702 185.67 216.234 185.874C215.766 186.066 215.262 186.162 214.722 186.162ZM212.796 183.444C212.796 183.96 212.994 184.374 213.39 184.686C213.798 184.998 214.332 185.154 214.992 185.154C215.484 185.154 215.934 185.07 216.342 184.902C216.762 184.734 217.152 184.482 217.512 184.146V182.454C217.14 182.238 216.756 182.082 216.36 181.986C215.964 181.878 215.52 181.824 215.028 181.824C214.356 181.824 213.816 181.974 213.408 182.274C213 182.562 212.796 182.952 212.796 183.444ZM224.563 186.18C223.807 186.18 223.231 186 222.835 185.64C222.451 185.268 222.259 184.734 222.259 184.038V178.296H220.441V177.216H222.259V174.804L223.573 174.498V177.216H226.093V178.296H223.573V183.696C223.573 184.164 223.669 184.5 223.861 184.704C224.065 184.908 224.395 185.01 224.851 185.01C225.079 185.01 225.283 184.992 225.463 184.956C225.643 184.92 225.853 184.86 226.093 184.776V185.946C225.853 186.03 225.601 186.09 225.337 186.126C225.073 186.162 224.815 186.18 224.563 186.18ZM228 186V177.216H229.314V186H228ZM228.666 175.038C228.402 175.038 228.174 174.948 227.982 174.768C227.802 174.576 227.712 174.354 227.712 174.102C227.712 173.85 227.802 173.634 227.982 173.454C228.174 173.262 228.402 173.166 228.666 173.166C228.93 173.166 229.152 173.262 229.332 173.454C229.524 173.634 229.62 173.85 229.62 174.102C229.62 174.354 229.524 174.576 229.332 174.768C229.152 174.948 228.93 175.038 228.666 175.038ZM235.896 186.144C235.08 186.144 234.348 185.946 233.7 185.55C233.052 185.154 232.542 184.614 232.17 183.93C231.798 183.246 231.612 182.472 231.612 181.608C231.612 180.744 231.798 179.97 232.17 179.286C232.542 178.602 233.052 178.062 233.7 177.666C234.348 177.27 235.08 177.072 235.896 177.072C236.7 177.072 237.42 177.27 238.056 177.666C238.704 178.062 239.214 178.602 239.586 179.286C239.958 179.97 240.144 180.744 240.144 181.608C240.144 182.472 239.958 183.246 239.586 183.93C239.214 184.614 238.704 185.154 238.056 185.55C237.42 185.946 236.7 186.144 235.896 186.144ZM235.878 184.992C236.454 184.992 236.964 184.848 237.408 184.56C237.852 184.26 238.2 183.852 238.452 183.336C238.716 182.82 238.848 182.244 238.848 181.608C238.848 180.96 238.716 180.384 238.452 179.88C238.2 179.364 237.852 178.962 237.408 178.674C236.964 178.374 236.454 178.224 235.878 178.224C235.302 178.224 234.792 178.374 234.348 178.674C233.904 178.962 233.55 179.364 233.286 179.88C233.034 180.384 232.908 180.96 232.908 181.608C232.908 182.244 233.034 182.82 233.286 183.336C233.55 183.852 233.904 184.26 234.348 184.56C234.792 184.848 235.302 184.992 235.878 184.992ZM242.45 186V177.216H243.764V178.638C244.1 178.11 244.502 177.72 244.97 177.468C245.438 177.204 245.966 177.072 246.554 177.072C247.19 177.072 247.742 177.21 248.21 177.486C248.69 177.75 249.062 178.128 249.326 178.62C249.602 179.1 249.74 179.664 249.74 180.312V186H248.426V180.69C248.426 179.91 248.21 179.298 247.778 178.854C247.358 178.398 246.788 178.17 246.068 178.17C245.588 178.17 245.15 178.284 244.754 178.512C244.358 178.74 244.028 179.076 243.764 179.52V186H242.45ZM256.582 186V177.216H257.896V178.584C258.232 178.08 258.616 177.702 259.048 177.45C259.48 177.198 259.966 177.072 260.506 177.072C261.13 177.072 261.676 177.228 262.144 177.54C262.612 177.84 262.966 178.254 263.206 178.782C263.554 178.218 263.968 177.792 264.448 177.504C264.94 177.216 265.504 177.072 266.14 177.072C266.728 177.072 267.244 177.21 267.688 177.486C268.144 177.762 268.498 178.146 268.75 178.638C269.002 179.118 269.128 179.682 269.128 180.33V186H267.814V180.654C267.814 179.886 267.622 179.28 267.238 178.836C266.854 178.392 266.326 178.17 265.654 178.17C265.198 178.17 264.784 178.284 264.412 178.512C264.052 178.74 263.734 179.088 263.458 179.556C263.482 179.676 263.5 179.802 263.512 179.934C263.524 180.066 263.53 180.198 263.53 180.33V186H262.216V180.654C262.216 179.886 262.018 179.28 261.622 178.836C261.238 178.392 260.71 178.17 260.038 178.17C259.138 178.17 258.424 178.602 257.896 179.466V186H256.582ZM274.506 186.162C273.882 186.162 273.33 186.048 272.85 185.82C272.37 185.592 271.992 185.28 271.716 184.884C271.452 184.476 271.32 184.008 271.32 183.48C271.32 182.952 271.458 182.496 271.734 182.112C272.01 181.716 272.394 181.41 272.886 181.194C273.378 180.978 273.954 180.87 274.614 180.87C275.118 180.87 275.592 180.924 276.036 181.032C276.492 181.14 276.912 181.314 277.296 181.554V180.348C277.296 179.628 277.104 179.088 276.72 178.728C276.336 178.356 275.772 178.17 275.028 178.17C274.62 178.17 274.2 178.23 273.768 178.35C273.348 178.47 272.88 178.662 272.364 178.926L271.878 177.918C273.054 177.354 274.158 177.072 275.189 177.072C276.282 177.072 277.122 177.342 277.71 177.882C278.298 178.41 278.592 179.172 278.592 180.168V186H277.296V184.974C276.912 185.37 276.486 185.67 276.018 185.874C275.55 186.066 275.046 186.162 274.506 186.162ZM272.58 183.444C272.58 183.96 272.778 184.374 273.174 184.686C273.582 184.998 274.116 185.154 274.776 185.154C275.268 185.154 275.718 185.07 276.126 184.902C276.546 184.734 276.936 184.482 277.296 184.146V182.454C276.924 182.238 276.54 182.082 276.144 181.986C275.748 181.878 275.304 181.824 274.812 181.824C274.14 181.824 273.6 181.974 273.192 182.274C272.784 182.562 272.58 182.952 272.58 183.444ZM281.262 186V177.216H282.576V178.638C282.912 178.11 283.314 177.72 283.782 177.468C284.25 177.204 284.778 177.072 285.366 177.072C286.002 177.072 286.554 177.21 287.022 177.486C287.502 177.75 287.874 178.128 288.138 178.62C288.414 179.1 288.552 179.664 288.552 180.312V186H287.238V180.69C287.238 179.91 287.022 179.298 286.59 178.854C286.17 178.398 285.6 178.17 284.88 178.17C284.4 178.17 283.962 178.284 283.566 178.512C283.17 178.74 282.84 179.076 282.576 179.52V186H281.262ZM293.912 186.162C293.288 186.162 292.736 186.048 292.256 185.82C291.776 185.592 291.398 185.28 291.122 184.884C290.858 184.476 290.726 184.008 290.726 183.48C290.726 182.952 290.864 182.496 291.14 182.112C291.416 181.716 291.8 181.41 292.292 181.194C292.784 180.978 293.36 180.87 294.02 180.87C294.524 180.87 294.998 180.924 295.442 181.032C295.898 181.14 296.318 181.314 296.702 181.554V180.348C296.702 179.628 296.51 179.088 296.126 178.728C295.742 178.356 295.178 178.17 294.434 178.17C294.026 178.17 293.606 178.23 293.174 178.35C292.754 178.47 292.286 178.662 291.77 178.926L291.284 177.918C292.46 177.354 293.564 177.072 294.596 177.072C295.688 177.072 296.528 177.342 297.116 177.882C297.704 178.41 297.998 179.172 297.998 180.168V186H296.702V184.974C296.318 185.37 295.892 185.67 295.424 185.874C294.956 186.066 294.452 186.162 293.912 186.162ZM291.986 183.444C291.986 183.96 292.184 184.374 292.58 184.686C292.988 184.998 293.522 185.154 294.182 185.154C294.674 185.154 295.124 185.07 295.532 184.902C295.952 184.734 296.342 184.482 296.702 184.146V182.454C296.33 182.238 295.946 182.082 295.55 181.986C295.154 181.878 294.71 181.824 294.218 181.824C293.546 181.824 293.006 181.974 292.598 182.274C292.19 182.562 291.986 182.952 291.986 183.444ZM304.736 189.942C304.148 189.942 303.554 189.858 302.954 189.69C302.366 189.534 301.82 189.312 301.316 189.024L301.874 188.016C302.414 188.292 302.906 188.496 303.35 188.628C303.794 188.76 304.238 188.826 304.682 188.826C305.486 188.826 306.092 188.634 306.5 188.25C306.92 187.866 307.13 187.308 307.13 186.576V184.812C306.794 185.232 306.386 185.556 305.906 185.784C305.426 186 304.898 186.108 304.322 186.108C303.566 186.108 302.882 185.91 302.27 185.514C301.658 185.106 301.172 184.566 300.812 183.894C300.452 183.21 300.272 182.448 300.272 181.608C300.272 180.768 300.452 180.012 300.812 179.34C301.184 178.656 301.682 178.116 302.306 177.72C302.93 177.312 303.626 177.108 304.394 177.108C304.946 177.108 305.456 177.216 305.924 177.432C306.392 177.636 306.8 177.942 307.148 178.35V177.216H308.444V186.558C308.444 187.65 308.126 188.484 307.49 189.06C306.854 189.648 305.936 189.942 304.736 189.942ZM304.646 184.974C305.162 184.974 305.636 184.872 306.068 184.668C306.5 184.452 306.854 184.158 307.13 183.786V179.448C306.842 179.076 306.476 178.788 306.032 178.584C305.6 178.368 305.138 178.26 304.646 178.26C304.058 178.26 303.53 178.404 303.062 178.692C302.606 178.98 302.24 179.376 301.964 179.88C301.7 180.384 301.568 180.96 301.568 181.608C301.568 182.244 301.7 182.82 301.964 183.336C302.24 183.84 302.606 184.242 303.062 184.542C303.53 184.83 304.058 184.974 304.646 184.974ZM315.105 186.18C314.289 186.18 313.551 185.982 312.891 185.586C312.231 185.178 311.709 184.632 311.325 183.948C310.941 183.252 310.749 182.472 310.749 181.608C310.749 180.744 310.929 179.97 311.289 179.286C311.661 178.602 312.159 178.062 312.783 177.666C313.407 177.27 314.103 177.072 314.871 177.072C315.651 177.072 316.341 177.27 316.941 177.666C317.553 178.05 318.033 178.578 318.381 179.25C318.741 179.91 318.921 180.66 318.921 181.5V181.896H312.027C312.075 182.496 312.237 183.036 312.513 183.516C312.801 183.984 313.173 184.356 313.629 184.632C314.097 184.896 314.607 185.028 315.159 185.028C315.615 185.028 316.053 184.95 316.473 184.794C316.905 184.626 317.271 184.404 317.571 184.128L318.399 185.01C317.895 185.406 317.373 185.7 316.833 185.892C316.293 186.084 315.717 186.18 315.105 186.18ZM312.063 180.96H317.625C317.565 180.432 317.403 179.964 317.139 179.556C316.887 179.136 316.563 178.806 316.167 178.566C315.783 178.326 315.351 178.206 314.871 178.206C314.391 178.206 313.953 178.326 313.557 178.566C313.161 178.794 312.831 179.118 312.567 179.538C312.315 179.946 312.147 180.42 312.063 180.96ZM321.164 186V177.216H322.478V178.584C322.814 178.08 323.198 177.702 323.63 177.45C324.062 177.198 324.548 177.072 325.088 177.072C325.712 177.072 326.258 177.228 326.726 177.54C327.194 177.84 327.548 178.254 327.788 178.782C328.136 178.218 328.55 177.792 329.03 177.504C329.522 177.216 330.086 177.072 330.722 177.072C331.31 177.072 331.826 177.21 332.27 177.486C332.726 177.762 333.08 178.146 333.332 178.638C333.584 179.118 333.71 179.682 333.71 180.33V186H332.396V180.654C332.396 179.886 332.204 179.28 331.82 178.836C331.436 178.392 330.908 178.17 330.236 178.17C329.78 178.17 329.366 178.284 328.994 178.512C328.634 178.74 328.316 179.088 328.04 179.556C328.064 179.676 328.082 179.802 328.094 179.934C328.106 180.066 328.112 180.198 328.112 180.33V186H326.798V180.654C326.798 179.886 326.6 179.28 326.204 178.836C325.82 178.392 325.292 178.17 324.62 178.17C323.72 178.17 323.006 178.602 322.478 179.466V186H321.164ZM340.33 186.18C339.514 186.18 338.776 185.982 338.116 185.586C337.456 185.178 336.934 184.632 336.55 183.948C336.166 183.252 335.974 182.472 335.974 181.608C335.974 180.744 336.154 179.97 336.514 179.286C336.886 178.602 337.384 178.062 338.008 177.666C338.632 177.27 339.328 177.072 340.096 177.072C340.876 177.072 341.566 177.27 342.166 177.666C342.778 178.05 343.258 178.578 343.606 179.25C343.966 179.91 344.146 180.66 344.146 181.5V181.896H337.252C337.3 182.496 337.462 183.036 337.738 183.516C338.026 183.984 338.398 184.356 338.854 184.632C339.322 184.896 339.832 185.028 340.384 185.028C340.84 185.028 341.278 184.95 341.698 184.794C342.13 184.626 342.496 184.404 342.796 184.128L343.624 185.01C343.12 185.406 342.598 185.7 342.058 185.892C341.518 186.084 340.942 186.18 340.33 186.18ZM337.288 180.96H342.85C342.79 180.432 342.628 179.964 342.364 179.556C342.112 179.136 341.788 178.806 341.392 178.566C341.008 178.326 340.576 178.206 340.096 178.206C339.616 178.206 339.178 178.326 338.782 178.566C338.386 178.794 338.056 179.118 337.792 179.538C337.54 179.946 337.372 180.42 337.288 180.96ZM346.389 186V177.216H347.703V178.638C348.039 178.11 348.441 177.72 348.909 177.468C349.377 177.204 349.905 177.072 350.493 177.072C351.129 177.072 351.681 177.21 352.149 177.486C352.629 177.75 353.001 178.128 353.265 178.62C353.541 179.1 353.679 179.664 353.679 180.312V186H352.365V180.69C352.365 179.91 352.149 179.298 351.717 178.854C351.297 178.398 350.727 178.17 350.007 178.17C349.527 178.17 349.089 178.284 348.693 178.512C348.297 178.74 347.967 179.076 347.703 179.52V186H346.389ZM359.405 186.18C358.649 186.18 358.073 186 357.677 185.64C357.293 185.268 357.101 184.734 357.101 184.038V178.296H355.283V177.216H357.101V174.804L358.415 174.498V177.216H360.935V178.296H358.415V183.696C358.415 184.164 358.511 184.5 358.703 184.704C358.907 184.908 359.237 185.01 359.693 185.01C359.921 185.01 360.125 184.992 360.305 184.956C360.485 184.92 360.695 184.86 360.935 184.776V185.946C360.695 186.03 360.443 186.09 360.179 186.126C359.915 186.162 359.657 186.18 359.405 186.18ZM365.072 182.274C365.048 181.77 365.072 181.332 365.144 180.96C365.228 180.588 365.378 180.252 365.594 179.952C365.81 179.64 366.104 179.346 366.476 179.07L367.232 178.512C367.724 178.128 368.072 177.78 368.276 177.468C368.48 177.156 368.582 176.796 368.582 176.388C368.582 176.016 368.474 175.686 368.258 175.398C368.042 175.11 367.748 174.882 367.376 174.714C367.004 174.534 366.584 174.444 366.116 174.444C365.552 174.444 365.024 174.582 364.532 174.858C364.04 175.134 363.602 175.536 363.218 176.064L362.21 175.38C362.702 174.696 363.284 174.174 363.956 173.814C364.64 173.442 365.378 173.256 366.17 173.256C366.878 173.256 367.508 173.394 368.06 173.67C368.612 173.934 369.05 174.3 369.374 174.768C369.698 175.236 369.86 175.77 369.86 176.37C369.86 176.778 369.794 177.15 369.662 177.486C369.542 177.81 369.338 178.128 369.05 178.44C368.762 178.752 368.36 179.094 367.844 179.466L367.268 179.898C366.86 180.198 366.572 180.534 366.404 180.906C366.236 181.278 366.17 181.734 366.206 182.274H365.072ZM365.666 186.144C365.402 186.144 365.174 186.054 364.982 185.874C364.802 185.682 364.712 185.454 364.712 185.19C364.712 184.914 364.802 184.686 364.982 184.506C365.174 184.326 365.402 184.236 365.666 184.236C365.93 184.236 366.152 184.326 366.332 184.506C366.512 184.686 366.602 184.914 366.602 185.19C366.602 185.454 366.512 185.682 366.332 185.874C366.152 186.054 365.93 186.144 365.666 186.144Z" fill="#0066CC"/>
<path d="M85.474 229L82.756 216.4H84.16L86.302 226.822L89.416 216.4H90.766L93.88 226.786L96.04 216.4H97.39L94.672 229H93.268L90.082 218.308L86.878 229H85.474ZM99.5043 229V216.004L100.818 215.734V221.638C101.154 221.11 101.556 220.72 102.024 220.468C102.492 220.204 103.02 220.072 103.608 220.072C104.244 220.072 104.796 220.21 105.264 220.486C105.744 220.75 106.116 221.128 106.38 221.62C106.656 222.1 106.794 222.664 106.794 223.312V229H105.48V223.69C105.48 222.91 105.264 222.298 104.832 221.854C104.412 221.398 103.842 221.17 103.122 221.17C102.642 221.17 102.204 221.284 101.808 221.512C101.412 221.74 101.082 222.076 100.818 222.52V229H99.5043ZM112.154 229.162C111.53 229.162 110.978 229.048 110.498 228.82C110.018 228.592 109.64 228.28 109.364 227.884C109.1 227.476 108.968 227.008 108.968 226.48C108.968 225.952 109.106 225.496 109.382 225.112C109.658 224.716 110.042 224.41 110.534 224.194C111.026 223.978 111.602 223.87 112.262 223.87C112.766 223.87 113.24 223.924 113.684 224.032C114.14 224.14 114.56 224.314 114.944 224.554V223.348C114.944 222.628 114.752 222.088 114.368 221.728C113.984 221.356 113.42 221.17 112.676 221.17C112.268 221.17 111.848 221.23 111.416 221.35C110.996 221.47 110.528 221.662 110.012 221.926L109.526 220.918C110.702 220.354 111.806 220.072 112.838 220.072C113.93 220.072 114.77 220.342 115.358 220.882C115.946 221.41 116.24 222.172 116.24 223.168V229H114.944V227.974C114.56 228.37 114.134 228.67 113.666 228.874C113.198 229.066 112.694 229.162 112.154 229.162ZM110.228 226.444C110.228 226.96 110.426 227.374 110.822 227.686C111.23 227.998 111.764 228.154 112.424 228.154C112.916 228.154 113.366 228.07 113.774 227.902C114.194 227.734 114.584 227.482 114.944 227.146V225.454C114.572 225.238 114.188 225.082 113.792 224.986C113.396 224.878 112.952 224.824 112.46 224.824C111.788 224.824 111.248 224.974 110.84 225.274C110.432 225.562 110.228 225.952 110.228 226.444ZM121.995 229.18C121.239 229.18 120.663 229 120.267 228.64C119.883 228.268 119.691 227.734 119.691 227.038V221.296H117.873V220.216H119.691V217.804L121.005 217.498V220.216H123.525V221.296H121.005V226.696C121.005 227.164 121.101 227.5 121.293 227.704C121.497 227.908 121.827 228.01 122.283 228.01C122.511 228.01 122.715 227.992 122.895 227.956C123.075 227.92 123.285 227.86 123.525 227.776V228.946C123.285 229.03 123.033 229.09 122.769 229.126C122.505 229.162 122.247 229.18 121.995 229.18ZM129.633 229V220.216H130.947V229H129.633ZM130.299 218.038C130.035 218.038 129.807 217.948 129.615 217.768C129.435 217.576 129.345 217.354 129.345 217.102C129.345 216.85 129.435 216.634 129.615 216.454C129.807 216.262 130.035 216.166 130.299 216.166C130.563 216.166 130.785 216.262 130.965 216.454C131.157 216.634 131.253 216.85 131.253 217.102C131.253 217.354 131.157 217.576 130.965 217.768C130.785 217.948 130.563 218.038 130.299 218.038ZM136.359 229.18C135.639 229.18 134.973 229.072 134.361 228.856C133.749 228.628 133.227 228.304 132.795 227.884L133.497 227.02C134.025 227.404 134.511 227.686 134.955 227.866C135.399 228.034 135.855 228.118 136.323 228.118C136.959 228.118 137.487 227.968 137.907 227.668C138.327 227.368 138.537 226.984 138.537 226.516C138.537 226.156 138.411 225.874 138.159 225.67C137.919 225.466 137.517 225.31 136.953 225.202L135.513 224.95C134.661 224.794 134.031 224.53 133.623 224.158C133.227 223.786 133.029 223.282 133.029 222.646C133.029 222.142 133.161 221.698 133.425 221.314C133.701 220.93 134.079 220.63 134.559 220.414C135.039 220.186 135.585 220.072 136.197 220.072C136.797 220.072 137.367 220.162 137.907 220.342C138.447 220.51 138.993 220.786 139.545 221.17L138.897 222.088C138.441 221.764 137.985 221.53 137.529 221.386C137.073 221.23 136.611 221.152 136.143 221.152C135.567 221.152 135.105 221.278 134.757 221.53C134.409 221.782 134.235 222.124 134.235 222.556C134.235 222.916 134.343 223.192 134.559 223.384C134.787 223.576 135.183 223.72 135.747 223.816L137.223 224.086C138.111 224.242 138.759 224.512 139.167 224.896C139.575 225.28 139.779 225.796 139.779 226.444C139.779 226.96 139.629 227.428 139.329 227.848C139.029 228.256 138.621 228.58 138.105 228.82C137.589 229.06 137.007 229.18 136.359 229.18ZM145.981 229V216.13L147.295 215.86V221.422C147.631 221.002 148.039 220.678 148.519 220.45C148.999 220.222 149.533 220.108 150.121 220.108C150.889 220.108 151.573 220.312 152.173 220.72C152.785 221.116 153.271 221.656 153.631 222.34C153.991 223.012 154.171 223.768 154.171 224.608C154.171 225.448 153.985 226.21 153.613 226.894C153.253 227.578 152.761 228.124 152.137 228.532C151.525 228.928 150.829 229.126 150.049 229.126C149.497 229.126 148.981 229.018 148.501 228.802C148.033 228.574 147.625 228.256 147.277 227.848V229H145.981ZM149.797 227.992C150.385 227.992 150.907 227.848 151.363 227.56C151.831 227.26 152.197 226.858 152.461 226.354C152.737 225.838 152.875 225.262 152.875 224.626C152.875 223.978 152.737 223.402 152.461 222.898C152.197 222.394 151.831 221.998 151.363 221.71C150.907 221.41 150.385 221.26 149.797 221.26C149.281 221.26 148.801 221.368 148.357 221.584C147.925 221.788 147.571 222.082 147.295 222.466V226.768C147.583 227.152 147.943 227.452 148.375 227.668C148.819 227.884 149.293 227.992 149.797 227.992ZM159.607 229.144C158.983 229.144 158.431 229.006 157.951 228.73C157.471 228.454 157.093 228.07 156.817 227.578C156.553 227.086 156.421 226.522 156.421 225.886V220.216H157.753V225.508C157.753 226.288 157.963 226.906 158.383 227.362C158.803 227.818 159.373 228.046 160.093 228.046C160.585 228.046 161.023 227.932 161.407 227.704C161.803 227.476 162.133 227.146 162.397 226.714V220.216H163.711V229H162.397V227.578C162.061 228.094 161.659 228.484 161.191 228.748C160.735 229.012 160.207 229.144 159.607 229.144ZM169.125 229.18C168.405 229.18 167.739 229.072 167.127 228.856C166.515 228.628 165.993 228.304 165.561 227.884L166.263 227.02C166.791 227.404 167.277 227.686 167.721 227.866C168.165 228.034 168.621 228.118 169.089 228.118C169.725 228.118 170.253 227.968 170.673 227.668C171.093 227.368 171.303 226.984 171.303 226.516C171.303 226.156 171.177 225.874 170.925 225.67C170.685 225.466 170.283 225.31 169.719 225.202L168.279 224.95C167.427 224.794 166.797 224.53 166.389 224.158C165.993 223.786 165.795 223.282 165.795 222.646C165.795 222.142 165.927 221.698 166.191 221.314C166.467 220.93 166.845 220.63 167.325 220.414C167.805 220.186 168.351 220.072 168.963 220.072C169.563 220.072 170.133 220.162 170.673 220.342C171.213 220.51 171.759 220.786 172.311 221.17L171.663 222.088C171.207 221.764 170.751 221.53 170.295 221.386C169.839 221.23 169.377 221.152 168.909 221.152C168.333 221.152 167.871 221.278 167.523 221.53C167.175 221.782 167.001 222.124 167.001 222.556C167.001 222.916 167.109 223.192 167.325 223.384C167.553 223.576 167.949 223.72 168.513 223.816L169.989 224.086C170.877 224.242 171.525 224.512 171.933 224.896C172.341 225.28 172.545 225.796 172.545 226.444C172.545 226.96 172.395 227.428 172.095 227.848C171.795 228.256 171.387 228.58 170.871 228.82C170.355 229.06 169.773 229.18 169.125 229.18ZM174.527 229V220.216H175.841V229H174.527ZM175.193 218.038C174.929 218.038 174.701 217.948 174.509 217.768C174.329 217.576 174.239 217.354 174.239 217.102C174.239 216.85 174.329 216.634 174.509 216.454C174.701 216.262 174.929 216.166 175.193 216.166C175.457 216.166 175.679 216.262 175.859 216.454C176.051 216.634 176.147 216.85 176.147 217.102C176.147 217.354 176.051 217.576 175.859 217.768C175.679 217.948 175.457 218.038 175.193 218.038ZM178.536 229V220.216H179.85V221.638C180.186 221.11 180.588 220.72 181.056 220.468C181.524 220.204 182.052 220.072 182.64 220.072C183.276 220.072 183.828 220.21 184.296 220.486C184.776 220.75 185.148 221.128 185.412 221.62C185.688 222.1 185.826 222.664 185.826 223.312V229H184.512V223.69C184.512 222.91 184.296 222.298 183.864 221.854C183.444 221.398 182.874 221.17 182.154 221.17C181.674 221.17 181.236 221.284 180.84 221.512C180.444 221.74 180.114 222.076 179.85 222.52V229H178.536ZM192.427 229.18C191.611 229.18 190.873 228.982 190.213 228.586C189.553 228.178 189.031 227.632 188.647 226.948C188.263 226.252 188.071 225.472 188.071 224.608C188.071 223.744 188.251 222.97 188.611 222.286C188.983 221.602 189.481 221.062 190.105 220.666C190.729 220.27 191.425 220.072 192.193 220.072C192.973 220.072 193.663 220.27 194.263 220.666C194.875 221.05 195.355 221.578 195.703 222.25C196.063 222.91 196.243 223.66 196.243 224.5V224.896H189.349C189.397 225.496 189.559 226.036 189.835 226.516C190.123 226.984 190.495 227.356 190.951 227.632C191.419 227.896 191.929 228.028 192.481 228.028C192.937 228.028 193.375 227.95 193.795 227.794C194.227 227.626 194.593 227.404 194.893 227.128L195.721 228.01C195.217 228.406 194.695 228.7 194.155 228.892C193.615 229.084 193.039 229.18 192.427 229.18ZM189.385 223.96H194.947C194.887 223.432 194.725 222.964 194.461 222.556C194.209 222.136 193.885 221.806 193.489 221.566C193.105 221.326 192.673 221.206 192.193 221.206C191.713 221.206 191.275 221.326 190.879 221.566C190.483 221.794 190.153 222.118 189.889 222.538C189.637 222.946 189.469 223.42 189.385 223.96ZM201.293 229.18C200.573 229.18 199.907 229.072 199.295 228.856C198.683 228.628 198.161 228.304 197.729 227.884L198.431 227.02C198.959 227.404 199.445 227.686 199.889 227.866C200.333 228.034 200.789 228.118 201.257 228.118C201.893 228.118 202.421 227.968 202.841 227.668C203.261 227.368 203.471 226.984 203.471 226.516C203.471 226.156 203.345 225.874 203.093 225.67C202.853 225.466 202.451 225.31 201.887 225.202L200.447 224.95C199.595 224.794 198.965 224.53 198.557 224.158C198.161 223.786 197.963 223.282 197.963 222.646C197.963 222.142 198.095 221.698 198.359 221.314C198.635 220.93 199.013 220.63 199.493 220.414C199.973 220.186 200.519 220.072 201.131 220.072C201.731 220.072 202.301 220.162 202.841 220.342C203.381 220.51 203.927 220.786 204.479 221.17L203.831 222.088C203.375 221.764 202.919 221.53 202.463 221.386C202.007 221.23 201.545 221.152 201.077 221.152C200.501 221.152 200.039 221.278 199.691 221.53C199.343 221.782 199.169 222.124 199.169 222.556C199.169 222.916 199.277 223.192 199.493 223.384C199.721 223.576 200.117 223.72 200.681 223.816L202.157 224.086C203.045 224.242 203.693 224.512 204.101 224.896C204.509 225.28 204.713 225.796 204.713 226.444C204.713 226.96 204.563 227.428 204.263 227.848C203.963 228.256 203.555 228.58 203.039 228.82C202.523 229.06 201.941 229.18 201.293 229.18ZM209.431 229.18C208.711 229.18 208.045 229.072 207.433 228.856C206.821 228.628 206.299 228.304 205.867 227.884L206.569 227.02C207.097 227.404 207.583 227.686 208.027 227.866C208.471 228.034 208.927 228.118 209.395 228.118C210.031 228.118 210.559 227.968 210.979 227.668C211.399 227.368 211.609 226.984 211.609 226.516C211.609 226.156 211.483 225.874 211.231 225.67C210.991 225.466 210.589 225.31 210.025 225.202L208.585 224.95C207.733 224.794 207.103 224.53 206.695 224.158C206.299 223.786 206.101 223.282 206.101 222.646C206.101 222.142 206.233 221.698 206.497 221.314C206.773 220.93 207.151 220.63 207.631 220.414C208.111 220.186 208.657 220.072 209.269 220.072C209.869 220.072 210.439 220.162 210.979 220.342C211.519 220.51 212.065 220.786 212.617 221.17L211.969 222.088C211.513 221.764 211.057 221.53 210.601 221.386C210.145 221.23 209.683 221.152 209.215 221.152C208.639 221.152 208.177 221.278 207.829 221.53C207.481 221.782 207.307 222.124 207.307 222.556C207.307 222.916 207.415 223.192 207.631 223.384C207.859 223.576 208.255 223.72 208.819 223.816L210.295 224.086C211.183 224.242 211.831 224.512 212.239 224.896C212.647 225.28 212.851 225.796 212.851 226.444C212.851 226.96 212.701 227.428 212.401 227.848C212.101 228.256 211.693 228.58 211.177 228.82C210.661 229.06 210.079 229.18 209.431 229.18ZM219.053 232.762V220.216H220.349V221.476C220.685 221.032 221.093 220.696 221.573 220.468C222.065 220.228 222.605 220.108 223.193 220.108C223.961 220.108 224.645 220.312 225.245 220.72C225.857 221.116 226.343 221.656 226.703 222.34C227.063 223.012 227.243 223.768 227.243 224.608C227.243 225.448 227.057 226.21 226.685 226.894C226.325 227.578 225.833 228.124 225.209 228.532C224.597 228.928 223.901 229.126 223.121 229.126C222.569 229.126 222.059 229.024 221.591 228.82C221.123 228.604 220.715 228.298 220.367 227.902V232.762H219.053ZM222.869 227.992C223.457 227.992 223.979 227.848 224.435 227.56C224.903 227.26 225.269 226.858 225.533 226.354C225.809 225.838 225.947 225.262 225.947 224.626C225.947 223.978 225.809 223.402 225.533 222.898C225.269 222.394 224.903 221.998 224.435 221.71C223.979 221.41 223.457 221.26 222.869 221.26C222.353 221.26 221.873 221.368 221.429 221.584C220.997 221.788 220.643 222.082 220.367 222.466V226.768C220.655 227.152 221.015 227.452 221.447 227.668C221.891 227.884 222.365 227.992 222.869 227.992ZM229.547 229V220.216H230.861V222.016C231.089 221.404 231.413 220.93 231.833 220.594C232.265 220.246 232.757 220.072 233.309 220.072C233.465 220.072 233.609 220.084 233.741 220.108C233.873 220.12 234.005 220.15 234.137 220.198V221.386C233.993 221.338 233.837 221.302 233.669 221.278C233.513 221.242 233.363 221.224 233.219 221.224C232.679 221.224 232.205 221.38 231.797 221.692C231.401 222.004 231.089 222.442 230.861 223.006V229H229.547ZM239.218 229.144C238.402 229.144 237.67 228.946 237.022 228.55C236.374 228.154 235.864 227.614 235.492 226.93C235.12 226.246 234.934 225.472 234.934 224.608C234.934 223.744 235.12 222.97 235.492 222.286C235.864 221.602 236.374 221.062 237.022 220.666C237.67 220.27 238.402 220.072 239.218 220.072C240.022 220.072 240.742 220.27 241.378 220.666C242.026 221.062 242.536 221.602 242.908 222.286C243.28 222.97 243.466 223.744 243.466 224.608C243.466 225.472 243.28 226.246 242.908 226.93C242.536 227.614 242.026 228.154 241.378 228.55C240.742 228.946 240.022 229.144 239.218 229.144ZM239.2 227.992C239.776 227.992 240.286 227.848 240.73 227.56C241.174 227.26 241.522 226.852 241.774 226.336C242.038 225.82 242.17 225.244 242.17 224.608C242.17 223.96 242.038 223.384 241.774 222.88C241.522 222.364 241.174 221.962 240.73 221.674C240.286 221.374 239.776 221.224 239.2 221.224C238.624 221.224 238.114 221.374 237.67 221.674C237.226 221.962 236.872 222.364 236.608 222.88C236.356 223.384 236.23 223.96 236.23 224.608C236.23 225.244 236.356 225.82 236.608 226.336C236.872 226.852 237.226 227.26 237.67 227.56C238.114 227.848 238.624 227.992 239.2 227.992ZM249.714 229.144C248.898 229.144 248.16 228.946 247.5 228.55C246.852 228.142 246.336 227.596 245.952 226.912C245.568 226.216 245.376 225.448 245.376 224.608C245.376 223.756 245.568 222.988 245.952 222.304C246.336 221.62 246.852 221.08 247.5 220.684C248.16 220.276 248.898 220.072 249.714 220.072C250.362 220.072 250.98 220.192 251.568 220.432C252.156 220.672 252.666 221.008 253.098 221.44L252.252 222.358C251.94 222.01 251.562 221.74 251.118 221.548C250.674 221.356 250.224 221.26 249.768 221.26C249.192 221.26 248.67 221.41 248.202 221.71C247.746 222.01 247.38 222.412 247.104 222.916C246.828 223.42 246.69 223.984 246.69 224.608C246.69 225.232 246.828 225.796 247.104 226.3C247.38 226.804 247.746 227.206 248.202 227.506C248.67 227.806 249.192 227.956 249.768 227.956C250.224 227.956 250.674 227.86 251.118 227.668C251.562 227.464 251.94 227.194 252.252 226.858L253.098 227.776C252.666 228.208 252.156 228.544 251.568 228.784C250.98 229.024 250.362 229.144 249.714 229.144ZM258.626 229.18C257.81 229.18 257.072 228.982 256.412 228.586C255.752 228.178 255.23 227.632 254.846 226.948C254.462 226.252 254.27 225.472 254.27 224.608C254.27 223.744 254.45 222.97 254.81 222.286C255.182 221.602 255.68 221.062 256.304 220.666C256.928 220.27 257.624 220.072 258.392 220.072C259.172 220.072 259.862 220.27 260.462 220.666C261.074 221.05 261.554 221.578 261.902 222.25C262.262 222.91 262.442 223.66 262.442 224.5V224.896H255.548C255.596 225.496 255.758 226.036 256.034 226.516C256.322 226.984 256.694 227.356 257.15 227.632C257.618 227.896 258.128 228.028 258.68 228.028C259.136 228.028 259.574 227.95 259.994 227.794C260.426 227.626 260.792 227.404 261.092 227.128L261.92 228.01C261.416 228.406 260.894 228.7 260.354 228.892C259.814 229.084 259.238 229.18 258.626 229.18ZM255.584 223.96H261.146C261.086 223.432 260.924 222.964 260.66 222.556C260.408 222.136 260.084 221.806 259.688 221.566C259.304 221.326 258.872 221.206 258.392 221.206C257.912 221.206 257.474 221.326 257.078 221.566C256.682 221.794 256.352 222.118 256.088 222.538C255.836 222.946 255.668 223.42 255.584 223.96ZM267.492 229.18C266.772 229.18 266.106 229.072 265.494 228.856C264.882 228.628 264.36 228.304 263.928 227.884L264.63 227.02C265.158 227.404 265.644 227.686 266.088 227.866C266.532 228.034 266.988 228.118 267.456 228.118C268.092 228.118 268.62 227.968 269.04 227.668C269.46 227.368 269.67 226.984 269.67 226.516C269.67 226.156 269.544 225.874 269.292 225.67C269.052 225.466 268.65 225.31 268.086 225.202L266.646 224.95C265.794 224.794 265.164 224.53 264.756 224.158C264.36 223.786 264.162 223.282 264.162 222.646C264.162 222.142 264.294 221.698 264.558 221.314C264.834 220.93 265.212 220.63 265.692 220.414C266.172 220.186 266.718 220.072 267.33 220.072C267.93 220.072 268.5 220.162 269.04 220.342C269.58 220.51 270.126 220.786 270.678 221.17L270.03 222.088C269.574 221.764 269.118 221.53 268.662 221.386C268.206 221.23 267.744 221.152 267.276 221.152C266.7 221.152 266.238 221.278 265.89 221.53C265.542 221.782 265.368 222.124 265.368 222.556C265.368 222.916 265.476 223.192 265.692 223.384C265.92 223.576 266.316 223.72 266.88 223.816L268.356 224.086C269.244 224.242 269.892 224.512 270.3 224.896C270.708 225.28 270.912 225.796 270.912 226.444C270.912 226.96 270.762 227.428 270.462 227.848C270.162 228.256 269.754 228.58 269.238 228.82C268.722 229.06 268.14 229.18 267.492 229.18ZM275.631 229.18C274.911 229.18 274.245 229.072 273.633 228.856C273.021 228.628 272.499 228.304 272.067 227.884L272.769 227.02C273.297 227.404 273.783 227.686 274.227 227.866C274.671 228.034 275.127 228.118 275.595 228.118C276.231 228.118 276.759 227.968 277.179 227.668C277.599 227.368 277.809 226.984 277.809 226.516C277.809 226.156 277.683 225.874 277.431 225.67C277.191 225.466 276.789 225.31 276.225 225.202L274.785 224.95C273.933 224.794 273.303 224.53 272.895 224.158C272.499 223.786 272.301 223.282 272.301 222.646C272.301 222.142 272.433 221.698 272.697 221.314C272.973 220.93 273.351 220.63 273.831 220.414C274.311 220.186 274.857 220.072 275.469 220.072C276.069 220.072 276.639 220.162 277.179 220.342C277.719 220.51 278.265 220.786 278.817 221.17L278.169 222.088C277.713 221.764 277.257 221.53 276.801 221.386C276.345 221.23 275.883 221.152 275.415 221.152C274.839 221.152 274.377 221.278 274.029 221.53C273.681 221.782 273.507 222.124 273.507 222.556C273.507 222.916 273.615 223.192 273.831 223.384C274.059 223.576 274.455 223.72 275.019 223.816L276.495 224.086C277.383 224.242 278.031 224.512 278.439 224.896C278.847 225.28 279.051 225.796 279.051 226.444C279.051 226.96 278.901 227.428 278.601 227.848C278.301 228.256 277.893 228.58 277.377 228.82C276.861 229.06 276.279 229.18 275.631 229.18ZM285.252 229V220.216H286.566V221.584C286.902 221.08 287.286 220.702 287.718 220.45C288.15 220.198 288.636 220.072 289.176 220.072C289.8 220.072 290.346 220.228 290.814 220.54C291.282 220.84 291.636 221.254 291.876 221.782C292.224 221.218 292.638 220.792 293.118 220.504C293.61 220.216 294.174 220.072 294.81 220.072C295.398 220.072 295.914 220.21 296.358 220.486C296.814 220.762 297.168 221.146 297.42 221.638C297.672 222.118 297.798 222.682 297.798 223.33V229H296.484V223.654C296.484 222.886 296.292 222.28 295.908 221.836C295.524 221.392 294.996 221.17 294.324 221.17C293.868 221.17 293.454 221.284 293.082 221.512C292.722 221.74 292.404 222.088 292.128 222.556C292.152 222.676 292.17 222.802 292.182 222.934C292.194 223.066 292.2 223.198 292.2 223.33V229H290.886V223.654C290.886 222.886 290.688 222.28 290.292 221.836C289.908 221.392 289.38 221.17 288.708 221.17C287.808 221.17 287.094 221.602 286.566 222.466V229H285.252ZM303.175 229.162C302.551 229.162 301.999 229.048 301.519 228.82C301.039 228.592 300.661 228.28 300.385 227.884C300.121 227.476 299.989 227.008 299.989 226.48C299.989 225.952 300.127 225.496 300.403 225.112C300.679 224.716 301.063 224.41 301.555 224.194C302.047 223.978 302.623 223.87 303.283 223.87C303.787 223.87 304.261 223.924 304.705 224.032C305.161 224.14 305.581 224.314 305.965 224.554V223.348C305.965 222.628 305.773 222.088 305.389 221.728C305.005 221.356 304.441 221.17 303.697 221.17C303.289 221.17 302.869 221.23 302.437 221.35C302.017 221.47 301.549 221.662 301.033 221.926L300.547 220.918C301.723 220.354 302.827 220.072 303.859 220.072C304.951 220.072 305.791 220.342 306.379 220.882C306.967 221.41 307.261 222.172 307.261 223.168V229H305.965V227.974C305.581 228.37 305.155 228.67 304.687 228.874C304.219 229.066 303.715 229.162 303.175 229.162ZM301.249 226.444C301.249 226.96 301.447 227.374 301.843 227.686C302.251 227.998 302.785 228.154 303.445 228.154C303.937 228.154 304.387 228.07 304.795 227.902C305.215 227.734 305.605 227.482 305.965 227.146V225.454C305.593 225.238 305.209 225.082 304.813 224.986C304.417 224.878 303.973 224.824 303.481 224.824C302.809 224.824 302.269 224.974 301.861 225.274C301.453 225.562 301.249 225.952 301.249 226.444ZM309.932 229V220.216H311.246V221.638C311.582 221.11 311.984 220.72 312.452 220.468C312.92 220.204 313.448 220.072 314.036 220.072C314.672 220.072 315.224 220.21 315.692 220.486C316.172 220.75 316.544 221.128 316.808 221.62C317.084 222.1 317.222 222.664 317.222 223.312V229H315.908V223.69C315.908 222.91 315.692 222.298 315.26 221.854C314.84 221.398 314.27 221.17 313.55 221.17C313.07 221.17 312.632 221.284 312.236 221.512C311.84 221.74 311.51 222.076 311.246 222.52V229H309.932ZM322.582 229.162C321.958 229.162 321.406 229.048 320.926 228.82C320.446 228.592 320.068 228.28 319.792 227.884C319.528 227.476 319.396 227.008 319.396 226.48C319.396 225.952 319.534 225.496 319.81 225.112C320.086 224.716 320.47 224.41 320.962 224.194C321.454 223.978 322.03 223.87 322.69 223.87C323.194 223.87 323.668 223.924 324.112 224.032C324.568 224.14 324.988 224.314 325.372 224.554V223.348C325.372 222.628 325.18 222.088 324.796 221.728C324.412 221.356 323.848 221.17 323.104 221.17C322.696 221.17 322.276 221.23 321.844 221.35C321.424 221.47 320.956 221.662 320.44 221.926L319.954 220.918C321.13 220.354 322.234 220.072 323.266 220.072C324.358 220.072 325.198 220.342 325.786 220.882C326.374 221.41 326.668 222.172 326.668 223.168V229H325.372V227.974C324.988 228.37 324.562 228.67 324.094 228.874C323.626 229.066 323.122 229.162 322.582 229.162ZM320.656 226.444C320.656 226.96 320.854 227.374 321.25 227.686C321.658 227.998 322.192 228.154 322.852 228.154C323.344 228.154 323.794 228.07 324.202 227.902C324.622 227.734 325.012 227.482 325.372 227.146V225.454C325 225.238 324.616 225.082 324.22 224.986C323.824 224.878 323.38 224.824 322.888 224.824C322.216 224.824 321.676 224.974 321.268 225.274C320.86 225.562 320.656 225.952 320.656 226.444ZM333.406 232.942C332.818 232.942 332.224 232.858 331.624 232.69C331.036 232.534 330.49 232.312 329.986 232.024L330.544 231.016C331.084 231.292 331.576 231.496 332.02 231.628C332.464 231.76 332.908 231.826 333.352 231.826C334.156 231.826 334.762 231.634 335.17 231.25C335.59 230.866 335.8 230.308 335.8 229.576V227.812C335.464 228.232 335.056 228.556 334.576 228.784C334.096 229 333.568 229.108 332.992 229.108C332.236 229.108 331.552 228.91 330.94 228.514C330.328 228.106 329.842 227.566 329.482 226.894C329.122 226.21 328.942 225.448 328.942 224.608C328.942 223.768 329.122 223.012 329.482 222.34C329.854 221.656 330.352 221.116 330.976 220.72C331.6 220.312 332.296 220.108 333.064 220.108C333.616 220.108 334.126 220.216 334.594 220.432C335.062 220.636 335.47 220.942 335.818 221.35V220.216H337.114V229.558C337.114 230.65 336.796 231.484 336.16 232.06C335.524 232.648 334.606 232.942 333.406 232.942ZM333.316 227.974C333.832 227.974 334.306 227.872 334.738 227.668C335.17 227.452 335.524 227.158 335.8 226.786V222.448C335.512 222.076 335.146 221.788 334.702 221.584C334.27 221.368 333.808 221.26 333.316 221.26C332.728 221.26 332.2 221.404 331.732 221.692C331.276 221.98 330.91 222.376 330.634 222.88C330.37 223.384 330.238 223.96 330.238 224.608C330.238 225.244 330.37 225.82 330.634 226.336C330.91 226.84 331.276 227.242 331.732 227.542C332.2 227.83 332.728 227.974 333.316 227.974ZM343.775 229.18C342.959 229.18 342.221 228.982 341.561 228.586C340.901 228.178 340.379 227.632 339.995 226.948C339.611 226.252 339.419 225.472 339.419 224.608C339.419 223.744 339.599 222.97 339.959 222.286C340.331 221.602 340.829 221.062 341.453 220.666C342.077 220.27 342.773 220.072 343.541 220.072C344.321 220.072 345.011 220.27 345.611 220.666C346.223 221.05 346.703 221.578 347.051 222.25C347.411 222.91 347.591 223.66 347.591 224.5V224.896H340.697C340.745 225.496 340.907 226.036 341.183 226.516C341.471 226.984 341.843 227.356 342.299 227.632C342.767 227.896 343.277 228.028 343.829 228.028C344.285 228.028 344.723 227.95 345.143 227.794C345.575 227.626 345.941 227.404 346.241 227.128L347.069 228.01C346.565 228.406 346.043 228.7 345.503 228.892C344.963 229.084 344.387 229.18 343.775 229.18ZM340.733 223.96H346.295C346.235 223.432 346.073 222.964 345.809 222.556C345.557 222.136 345.233 221.806 344.837 221.566C344.453 221.326 344.021 221.206 343.541 221.206C343.061 221.206 342.623 221.326 342.227 221.566C341.831 221.794 341.501 222.118 341.237 222.538C340.985 222.946 340.817 223.42 340.733 223.96ZM349.834 229V220.216H351.148V221.584C351.484 221.08 351.868 220.702 352.3 220.45C352.732 220.198 353.218 220.072 353.758 220.072C354.382 220.072 354.928 220.228 355.396 220.54C355.864 220.84 356.218 221.254 356.458 221.782C356.806 221.218 357.22 220.792 357.7 220.504C358.192 220.216 358.756 220.072 359.392 220.072C359.98 220.072 360.496 220.21 360.94 220.486C361.396 220.762 361.75 221.146 362.002 221.638C362.254 222.118 362.38 222.682 362.38 223.33V229H361.066V223.654C361.066 222.886 360.874 222.28 360.49 221.836C360.106 221.392 359.578 221.17 358.906 221.17C358.45 221.17 358.036 221.284 357.664 221.512C357.304 221.74 356.986 222.088 356.71 222.556C356.734 222.676 356.752 222.802 356.764 222.934C356.776 223.066 356.782 223.198 356.782 223.33V229H355.468V223.654C355.468 222.886 355.27 222.28 354.874 221.836C354.49 221.392 353.962 221.17 353.29 221.17C352.39 221.17 351.676 221.602 351.148 222.466V229H349.834ZM368.999 229.18C368.183 229.18 367.445 228.982 366.785 228.586C366.125 228.178 365.603 227.632 365.219 226.948C364.835 226.252 364.643 225.472 364.643 224.608C364.643 223.744 364.823 222.97 365.183 222.286C365.555 221.602 366.053 221.062 366.677 220.666C367.301 220.27 367.997 220.072 368.765 220.072C369.545 220.072 370.235 220.27 370.835 220.666C371.447 221.05 371.927 221.578 372.275 222.25C372.635 222.91 372.815 223.66 372.815 224.5V224.896H365.921C365.969 225.496 366.131 226.036 366.407 226.516C366.695 226.984 367.067 227.356 367.523 227.632C367.991 227.896 368.501 228.028 369.053 228.028C369.509 228.028 369.947 227.95 370.367 227.794C370.799 227.626 371.165 227.404 371.465 227.128L372.293 228.01C371.789 228.406 371.267 228.7 370.727 228.892C370.187 229.084 369.611 229.18 368.999 229.18ZM365.957 223.96H371.519C371.459 223.432 371.297 222.964 371.033 222.556C370.781 222.136 370.457 221.806 370.061 221.566C369.677 221.326 369.245 221.206 368.765 221.206C368.285 221.206 367.847 221.326 367.451 221.566C367.055 221.794 366.725 222.118 366.461 222.538C366.209 222.946 366.041 223.42 365.957 223.96ZM375.059 229V220.216H376.373V221.638C376.709 221.11 377.111 220.72 377.579 220.468C378.047 220.204 378.575 220.072 379.163 220.072C379.799 220.072 380.351 220.21 380.819 220.486C381.299 220.75 381.671 221.128 381.935 221.62C382.211 222.1 382.349 222.664 382.349 223.312V229H381.035V223.69C381.035 222.91 380.819 222.298 380.387 221.854C379.967 221.398 379.397 221.17 378.677 221.17C378.197 221.17 377.759 221.284 377.363 221.512C376.967 221.74 376.637 222.076 376.373 222.52V229H375.059ZM388.075 229.18C387.319 229.18 386.743 229 386.347 228.64C385.963 228.268 385.771 227.734 385.771 227.038V221.296H383.953V220.216H385.771V217.804L387.085 217.498V220.216H389.605V221.296H387.085V226.696C387.085 227.164 387.181 227.5 387.373 227.704C387.577 227.908 387.907 228.01 388.363 228.01C388.591 228.01 388.795 227.992 388.975 227.956C389.155 227.92 389.365 227.86 389.605 227.776V228.946C389.365 229.03 389.113 229.09 388.849 229.126C388.585 229.162 388.327 229.18 388.075 229.18ZM393.742 225.274C393.718 224.77 393.742 224.332 393.814 223.96C393.898 223.588 394.048 223.252 394.264 222.952C394.48 222.64 394.774 222.346 395.146 222.07L395.902 221.512C396.394 221.128 396.742 220.78 396.946 220.468C397.15 220.156 397.252 219.796 397.252 219.388C397.252 219.016 397.144 218.686 396.928 218.398C396.712 218.11 396.418 217.882 396.046 217.714C395.674 217.534 395.254 217.444 394.786 217.444C394.222 217.444 393.694 217.582 393.202 217.858C392.71 218.134 392.272 218.536 391.888 219.064L390.88 218.38C391.372 217.696 391.954 217.174 392.626 216.814C393.31 216.442 394.048 216.256 394.84 216.256C395.548 216.256 396.178 216.394 396.73 216.67C397.282 216.934 397.72 217.3 398.044 217.768C398.368 218.236 398.53 218.77 398.53 219.37C398.53 219.778 398.464 220.15 398.332 220.486C398.212 220.81 398.008 221.128 397.72 221.44C397.432 221.752 397.03 222.094 396.514 222.466L395.938 222.898C395.53 223.198 395.242 223.534 395.074 223.906C394.906 224.278 394.84 224.734 394.876 225.274H393.742ZM394.336 229.144C394.072 229.144 393.844 229.054 393.652 228.874C393.472 228.682 393.382 228.454 393.382 228.19C393.382 227.914 393.472 227.686 393.652 227.506C393.844 227.326 394.072 227.236 394.336 227.236C394.6 227.236 394.822 227.326 395.002 227.506C395.182 227.686 395.272 227.914 395.272 228.19C395.272 228.454 395.182 228.682 395.002 228.874C394.822 229.054 394.6 229.144 394.336 229.144Z" fill="#0066CC"/>
</svg>
