<svg width="78"
     height="24"
     viewBox="0 0 78 24"
     fill="none"
     xmlns="http://www.w3.org/2000/svg">
  <rect width="40"
        height="24"
        rx="12"
        fill="var(--rh-color-interactive-primary-default,#0066CC)" />
  <circle cx="28"
          cy="12"
          r="7"
          fill="light-dark(var(--rh-color-surface-lightest, #ffffff), oklch(from var(--rh-color-surface-dark, #383838) calc(l * 0.82) c h))" />
  <path d="M62.48 18.176C61.7013 18.176 60.976 18.032 60.304 17.744C59.632 17.4453 59.04 17.0347 58.528 16.512C58.0267 15.9787 57.632 15.3653 57.344 14.672C57.056 13.968 56.912 13.2107 56.912 12.4C56.912 11.5893 57.056 10.8373 57.344 10.144C57.632 9.44 58.0267 8.82667 58.528 8.304C59.04 7.77067 59.632 7.36 60.304 7.072C60.976 6.77333 61.7013 6.624 62.48 6.624C63.2587 6.624 63.984 6.77333 64.656 7.072C65.328 7.36 65.9147 7.77067 66.416 8.304C66.928 8.82667 67.328 9.44 67.616 10.144C67.904 10.8373 68.048 11.5893 68.048 12.4C68.048 13.2107 67.904 13.968 67.616 14.672C67.328 15.3653 66.928 15.9787 66.416 16.512C65.9147 17.0347 65.328 17.4453 64.656 17.744C63.984 18.032 63.2587 18.176 62.48 18.176ZM62.48 17.056C63.088 17.056 63.6533 16.9387 64.176 16.704C64.6987 16.4693 65.1573 16.1387 65.552 15.712C65.9467 15.2853 66.2507 14.7893 66.464 14.224C66.688 13.6587 66.8 13.0507 66.8 12.4C66.8 11.7387 66.688 11.1307 66.464 10.576C66.2507 10.0107 65.9467 9.51467 65.552 9.088C65.1573 8.66133 64.6987 8.33067 64.176 8.096C63.6533 7.86133 63.088 7.744 62.48 7.744C61.872 7.744 61.3067 7.86133 60.784 8.096C60.2613 8.33067 59.8027 8.66133 59.408 9.088C59.0133 9.51467 58.704 10.0107 58.48 10.576C58.2667 11.1307 58.16 11.7333 58.16 12.384C58.16 13.0453 58.2667 13.6587 58.48 14.224C58.704 14.7893 59.0133 15.2853 59.408 15.712C59.8027 16.1387 60.2613 16.4693 60.784 16.704C61.3067 16.9387 61.872 17.056 62.48 17.056ZM70.1531 18V10.192H71.3211V11.456C71.6198 10.9867 71.9771 10.64 72.3931 10.416C72.8091 10.1813 73.2785 10.064 73.8011 10.064C74.3665 10.064 74.8571 10.1867 75.2731 10.432C75.6998 10.6667 76.0305 11.0027 76.2651 11.44C76.5105 11.8667 76.6331 12.368 76.6331 12.944V18H75.4651V13.28C75.4651 12.5867 75.2731 12.0427 74.8891 11.648C74.5158 11.2427 74.0091 11.04 73.3691 11.04C72.9425 11.04 72.5531 11.1413 72.2011 11.344C71.8491 11.5467 71.5558 11.8453 71.3211 12.24V18H70.1531Z"
        fill="var(--rh-color-text-primary,#151515)" />
</svg>
