<svg width="250" height="86" viewBox="0 0 250 86" fill="none" xmlns="http://www.w3.org/2000/svg">
<path d="M52.8568 81V72.6H58.1728V73.404H53.7808V76.416H56.7568V77.22H53.7808V81H52.8568ZM63.8081 81.12C63.1921 81.12 62.7201 80.976 62.3921 80.688C62.0641 80.4 61.9001 79.968 61.9001 79.392V72.996H59.7281V72.276H62.7761V79.308C62.7761 79.676 62.8641 79.94 63.0401 80.1C63.2161 80.26 63.4761 80.34 63.8201 80.34C64.0281 80.34 64.2401 80.32 64.4561 80.28C64.6721 80.232 64.9121 80.156 65.1761 80.052V80.844C64.9441 80.924 64.7121 80.988 64.4801 81.036C64.2561 81.092 64.0321 81.12 63.8081 81.12ZM69.7674 81.12C69.2074 81.12 68.7034 80.988 68.2554 80.724C67.8074 80.452 67.4514 80.088 67.1874 79.632C66.9314 79.168 66.8034 78.648 66.8034 78.072C66.8034 77.496 66.9274 76.98 67.1754 76.524C67.4234 76.068 67.7594 75.708 68.1834 75.444C68.6154 75.18 69.0954 75.048 69.6234 75.048C70.1754 75.048 70.6674 75.18 71.0994 75.444C71.5314 75.7 71.8714 76.052 72.1194 76.5C72.3674 76.94 72.4914 77.44 72.4914 78V78.264H67.6554C67.6874 78.664 67.7994 79.024 67.9914 79.344C68.1834 79.656 68.4354 79.904 68.7474 80.088C69.0674 80.264 69.4194 80.352 69.8034 80.352C70.1474 80.352 70.4674 80.288 70.7634 80.16C71.0674 80.024 71.3194 79.84 71.5194 79.608L72.1314 80.148C71.8194 80.468 71.4634 80.712 71.0634 80.88C70.6634 81.04 70.2314 81.12 69.7674 81.12ZM67.6794 77.616H71.6274C71.5794 77.264 71.4594 76.952 71.2674 76.68C71.0834 76.408 70.8474 76.196 70.5594 76.044C70.2794 75.884 69.9634 75.804 69.6114 75.804C69.2834 75.804 68.9834 75.88 68.7114 76.032C68.4394 76.184 68.2114 76.396 68.0274 76.668C67.8514 76.94 67.7354 77.256 67.6794 77.616ZM73.9148 81L76.2788 77.988L74.0228 75.144H75.0668L76.8308 77.388L78.6188 75.144H79.6148L77.3468 77.964L79.7228 81H78.6788L76.7828 78.588L74.9108 81H73.9148ZM83.9301 73.752C83.7221 73.752 83.5421 73.68 83.3901 73.536C83.2461 73.384 83.1741 73.208 83.1741 73.008C83.1741 72.8 83.2461 72.624 83.3901 72.48C83.5421 72.336 83.7221 72.264 83.9301 72.264C84.1381 72.264 84.3141 72.336 84.4581 72.48C84.6101 72.624 84.6861 72.8 84.6861 73.008C84.6861 73.208 84.6101 73.384 84.4581 73.536C84.3141 73.68 84.1381 73.752 83.9301 73.752ZM85.3941 81.12C84.7781 81.12 84.3061 80.976 83.9781 80.688C83.6501 80.4 83.4861 79.968 83.4861 79.392V75.864H81.3141V75.144H84.3621V79.308C84.3621 79.676 84.4501 79.94 84.6261 80.1C84.8021 80.26 85.0621 80.34 85.4061 80.34C85.6141 80.34 85.8261 80.32 86.0421 80.28C86.2581 80.232 86.4981 80.156 86.7621 80.052V80.844C86.5301 80.924 86.2981 80.988 86.0661 81.036C85.8421 81.092 85.6181 81.12 85.3941 81.12ZM88.7014 81V72.336L89.5774 72.156V75.888C89.8094 75.624 90.0814 75.424 90.3934 75.288C90.7054 75.144 91.0414 75.072 91.4014 75.072C91.9214 75.072 92.3854 75.208 92.7934 75.48C93.2094 75.744 93.5374 76.104 93.7774 76.56C94.0254 77.008 94.1494 77.516 94.1494 78.084C94.1494 78.644 94.0294 79.152 93.7894 79.608C93.5494 80.056 93.2254 80.416 92.8174 80.688C92.4174 80.952 91.9614 81.084 91.4494 81.084C91.0654 81.084 90.7134 81.012 90.3934 80.868C90.0734 80.716 89.8014 80.5 89.5774 80.22V81H88.7014ZM91.2334 80.316C91.6254 80.316 91.9734 80.22 92.2774 80.028C92.5894 79.828 92.8334 79.56 93.0094 79.224C93.1934 78.88 93.2854 78.496 93.2854 78.072C93.2854 77.64 93.1934 77.256 93.0094 76.92C92.8334 76.584 92.5894 76.32 92.2774 76.128C91.9734 75.936 91.6254 75.84 91.2334 75.84C90.9054 75.84 90.5934 75.912 90.2974 76.056C90.0094 76.192 89.7694 76.384 89.5774 76.632V79.536C89.7614 79.784 89.9974 79.976 90.2854 80.112C90.5734 80.248 90.8894 80.316 91.2334 80.316ZM99.7847 81.12C99.1687 81.12 98.6967 80.976 98.3687 80.688C98.0407 80.4 97.8767 79.968 97.8767 79.392V72.996H95.7047V72.276H98.7527V79.308C98.7527 79.676 98.8407 79.94 99.0167 80.1C99.1927 80.26 99.4527 80.34 99.7967 80.34C100.005 80.34 100.217 80.32 100.433 80.28C100.649 80.232 100.889 80.156 101.153 80.052V80.844C100.921 80.924 100.689 80.988 100.457 81.036C100.233 81.092 100.009 81.12 99.7847 81.12ZM105.744 81.12C105.184 81.12 104.68 80.988 104.232 80.724C103.784 80.452 103.428 80.088 103.164 79.632C102.908 79.168 102.78 78.648 102.78 78.072C102.78 77.496 102.904 76.98 103.152 76.524C103.4 76.068 103.736 75.708 104.16 75.444C104.592 75.18 105.072 75.048 105.6 75.048C106.152 75.048 106.644 75.18 107.076 75.444C107.508 75.7 107.848 76.052 108.096 76.5C108.344 76.94 108.468 77.44 108.468 78V78.264H103.632C103.664 78.664 103.776 79.024 103.968 79.344C104.16 79.656 104.412 79.904 104.724 80.088C105.044 80.264 105.396 80.352 105.78 80.352C106.124 80.352 106.444 80.288 106.74 80.16C107.044 80.024 107.296 79.84 107.496 79.608L108.108 80.148C107.796 80.468 107.44 80.712 107.04 80.88C106.64 81.04 106.208 81.12 105.744 81.12ZM103.656 77.616H107.604C107.556 77.264 107.436 76.952 107.244 76.68C107.06 76.408 106.824 76.196 106.536 76.044C106.256 75.884 105.94 75.804 105.588 75.804C105.26 75.804 104.96 75.88 104.688 76.032C104.416 76.184 104.188 76.396 104.004 76.668C103.828 76.94 103.712 77.256 103.656 77.616ZM118.011 81L116.847 75.144H117.627L118.455 79.788L119.631 75.144H120.411L121.599 79.788L122.415 75.144H123.135L121.971 81H121.179L120.003 76.284L118.827 81H118.011ZM127.102 73.752C126.894 73.752 126.714 73.68 126.562 73.536C126.418 73.384 126.346 73.208 126.346 73.008C126.346 72.8 126.418 72.624 126.562 72.48C126.714 72.336 126.894 72.264 127.102 72.264C127.31 72.264 127.486 72.336 127.63 72.48C127.782 72.624 127.858 72.8 127.858 73.008C127.858 73.208 127.782 73.384 127.63 73.536C127.486 73.68 127.31 73.752 127.102 73.752ZM128.566 81.12C127.95 81.12 127.478 80.976 127.15 80.688C126.822 80.4 126.658 79.968 126.658 79.392V75.864H124.486V75.144H127.534V79.308C127.534 79.676 127.622 79.94 127.798 80.1C127.974 80.26 128.234 80.34 128.578 80.34C128.786 80.34 128.998 80.32 129.214 80.28C129.43 80.232 129.67 80.156 129.934 80.052V80.844C129.702 80.924 129.47 80.988 129.238 81.036C129.014 81.092 128.79 81.12 128.566 81.12ZM134.141 81.084C133.637 81.084 133.181 80.952 132.773 80.688C132.365 80.416 132.041 80.056 131.801 79.608C131.561 79.152 131.441 78.644 131.441 78.084C131.441 77.516 131.561 77.008 131.801 76.56C132.049 76.104 132.381 75.744 132.797 75.48C133.213 75.208 133.677 75.072 134.189 75.072C134.549 75.072 134.885 75.144 135.197 75.288C135.509 75.424 135.781 75.624 136.013 75.888V72.336L136.889 72.156V81H136.013V80.22C135.789 80.5 135.517 80.716 135.197 80.868C134.877 81.012 134.525 81.084 134.141 81.084ZM134.357 80.316C134.701 80.316 135.017 80.248 135.305 80.112C135.593 79.976 135.829 79.784 136.013 79.536V76.632C135.821 76.384 135.577 76.192 135.281 76.056C134.993 75.912 134.685 75.84 134.357 75.84C133.965 75.84 133.613 75.936 133.301 76.128C132.997 76.32 132.753 76.584 132.569 76.92C132.393 77.256 132.305 77.64 132.305 78.072C132.305 78.496 132.393 78.88 132.569 79.224C132.753 79.56 132.997 79.828 133.301 80.028C133.613 80.22 133.965 80.316 134.357 80.316ZM142.537 81.12C141.881 81.12 141.377 80.98 141.025 80.7C140.681 80.412 140.509 79.996 140.509 79.452V75.864H138.505V75.144H140.509V73.536L141.385 73.332V75.144H144.085V75.864H141.385V79.308C141.385 79.676 141.485 79.94 141.685 80.1C141.885 80.26 142.173 80.34 142.549 80.34C142.781 80.34 143.021 80.316 143.269 80.268C143.517 80.22 143.789 80.14 144.085 80.028V80.82C143.821 80.916 143.561 80.988 143.305 81.036C143.049 81.092 142.793 81.12 142.537 81.12ZM146.36 81V72.336L147.236 72.156V76.092C147.684 75.396 148.304 75.048 149.096 75.048C149.52 75.048 149.888 75.14 150.2 75.324C150.52 75.5 150.768 75.752 150.944 76.08C151.128 76.4 151.22 76.776 151.22 77.208V81H150.344V77.46C150.344 76.94 150.2 76.532 149.912 76.236C149.632 75.932 149.252 75.78 148.772 75.78C148.452 75.78 148.16 75.856 147.896 76.008C147.632 76.16 147.412 76.384 147.236 76.68V81H146.36Z" fill="#B300B3"/>
<rect x="163" y="59" width="1" height="7" fill="#B300B3"/>
<rect x="40" y="62" width="124" height="1" fill="#B300B3"/>
<rect x="40" y="59" width="1" height="7" fill="#B300B3"/>
<path d="M221.888 47V46.364L225.248 42.692C225.512 42.404 225.716 42.152 225.86 41.936C226.012 41.712 226.116 41.504 226.172 41.312C226.236 41.12 226.268 40.916 226.268 40.7C226.268 40.276 226.1 39.928 225.764 39.656C225.436 39.376 225.016 39.236 224.504 39.236C224.112 39.236 223.748 39.312 223.412 39.464C223.076 39.616 222.7 39.88 222.284 40.256L221.78 39.656C222.22 39.256 222.664 38.96 223.112 38.768C223.56 38.568 224.028 38.468 224.516 38.468C225.02 38.468 225.468 38.564 225.86 38.756C226.252 38.94 226.56 39.196 226.784 39.524C227.008 39.852 227.12 40.228 227.12 40.652C227.12 40.932 227.084 41.192 227.012 41.432C226.94 41.664 226.812 41.916 226.628 42.188C226.444 42.452 226.18 42.772 225.836 43.148L222.968 46.256L227.3 46.244V47H221.888ZM233.079 47V44.756H228.543V44.072L233.007 38.6H233.931V44H235.095V44.756H233.931V47H233.079ZM229.551 44H233.079V39.644L229.551 44ZM236.471 49.508V41.144H237.335V41.984C237.559 41.688 237.831 41.464 238.151 41.312C238.479 41.152 238.839 41.072 239.231 41.072C239.743 41.072 240.199 41.208 240.599 41.48C241.007 41.744 241.331 42.104 241.571 42.56C241.811 43.008 241.931 43.512 241.931 44.072C241.931 44.632 241.807 45.14 241.559 45.596C241.319 46.052 240.991 46.416 240.575 46.688C240.167 46.952 239.703 47.084 239.183 47.084C238.815 47.084 238.475 47.016 238.163 46.88C237.851 46.736 237.579 46.532 237.347 46.268V49.508H236.471ZM239.015 46.328C239.407 46.328 239.755 46.232 240.059 46.04C240.371 45.84 240.615 45.572 240.791 45.236C240.975 44.892 241.067 44.508 241.067 44.084C241.067 43.652 240.975 43.268 240.791 42.932C240.615 42.596 240.371 42.332 240.059 42.14C239.755 41.94 239.407 41.84 239.015 41.84C238.671 41.84 238.351 41.912 238.055 42.056C237.767 42.192 237.531 42.388 237.347 42.644V45.512C237.539 45.768 237.779 45.968 238.067 46.112C238.363 46.256 238.679 46.328 239.015 46.328ZM243.282 47L245.646 43.988L243.39 41.144H244.434L246.198 43.388L247.986 41.144H248.982L246.714 43.964L249.09 47H248.046L246.15 44.588L244.278 47H243.282Z" fill="#B300B3"/>
<rect x="214" y="54" width="7" height="1" fill="#B300B3"/>
<rect x="217" y="31" width="1" height="24" fill="#B300B3"/>
<rect x="214" y="31" width="7" height="1" fill="#B300B3"/>
<rect x="40" y="31" width="40" height="24" rx="12" fill="#0066CC"/>
<circle cx="68" cy="43" r="7" fill="white"/>
<path d="M101.04 49.176C100.165 49.176 99.3547 49.0213 98.608 48.712C97.8613 48.392 97.1413 47.912 96.448 47.272L97.2 46.376C97.872 47.0053 98.5013 47.4533 99.088 47.72C99.6853 47.9867 100.347 48.12 101.072 48.12C101.648 48.12 102.16 48.024 102.608 47.832C103.067 47.6293 103.424 47.3573 103.68 47.016C103.936 46.6747 104.064 46.2853 104.064 45.848C104.064 45.2827 103.877 44.856 103.504 44.568C103.131 44.2693 102.485 44.04 101.568 43.88L99.76 43.576C98.736 43.3947 97.984 43.0853 97.504 42.648C97.0347 42.2 96.8 41.6027 96.8 40.856C96.8 40.2267 96.96 39.672 97.28 39.192C97.6107 38.7013 98.064 38.3173 98.64 38.04C99.216 37.7627 99.8827 37.624 100.64 37.624C101.472 37.624 102.245 37.7413 102.96 37.976C103.675 38.2 104.379 38.5573 105.072 39.048L104.432 40.008C103.856 39.5707 103.248 39.24 102.608 39.016C101.968 38.7813 101.317 38.664 100.656 38.664C100.133 38.664 99.6693 38.7547 99.264 38.936C98.8693 39.1173 98.5547 39.3627 98.32 39.672C98.096 39.9813 97.984 40.3333 97.984 40.728C97.984 41.2187 98.1493 41.6027 98.48 41.88C98.8107 42.1573 99.3493 42.3547 100.096 42.472L101.888 42.776C103.083 42.9893 103.947 43.336 104.48 43.816C105.024 44.2853 105.296 44.9413 105.296 45.784C105.296 46.4347 105.109 47.016 104.736 47.528C104.373 48.04 103.872 48.4453 103.232 48.744C102.592 49.032 101.861 49.176 101.04 49.176ZM109.91 49.16C109.238 49.16 108.726 49 108.374 48.68C108.033 48.3493 107.862 47.8747 107.862 47.256V42.152H106.246V41.192H107.862V39.048L109.03 38.776V41.192H111.27V42.152H109.03V46.952C109.03 47.368 109.116 47.6667 109.286 47.848C109.468 48.0293 109.761 48.12 110.166 48.12C110.369 48.12 110.55 48.104 110.71 48.072C110.87 48.04 111.057 47.9867 111.27 47.912V48.952C111.057 49.0267 110.833 49.08 110.598 49.112C110.364 49.144 110.134 49.16 109.91 49.16ZM115.397 49.144C114.843 49.144 114.352 49.0427 113.925 48.84C113.499 48.6373 113.163 48.36 112.917 48.008C112.683 47.6453 112.565 47.2293 112.565 46.76C112.565 46.2907 112.688 45.8853 112.933 45.544C113.179 45.192 113.52 44.92 113.957 44.728C114.395 44.536 114.907 44.44 115.493 44.44C115.941 44.44 116.363 44.488 116.757 44.584C117.163 44.68 117.536 44.8347 117.877 45.048V43.976C117.877 43.336 117.707 42.856 117.365 42.536C117.024 42.2053 116.523 42.04 115.861 42.04C115.499 42.04 115.125 42.0933 114.741 42.2C114.368 42.3067 113.952 42.4773 113.493 42.712L113.061 41.816C114.107 41.3147 115.088 41.064 116.005 41.064C116.976 41.064 117.723 41.304 118.245 41.784C118.768 42.2533 119.029 42.9307 119.029 43.816V49H117.877V48.088C117.536 48.44 117.157 48.7067 116.741 48.888C116.325 49.0587 115.877 49.144 115.397 49.144ZM113.685 46.728C113.685 47.1867 113.861 47.5547 114.213 47.832C114.576 48.1093 115.051 48.248 115.637 48.248C116.075 48.248 116.475 48.1733 116.837 48.024C117.211 47.8747 117.557 47.6507 117.877 47.352V45.848C117.547 45.656 117.205 45.5173 116.853 45.432C116.501 45.336 116.107 45.288 115.669 45.288C115.072 45.288 114.592 45.4213 114.229 45.688C113.867 45.944 113.685 46.2907 113.685 46.728ZM124.145 49.16C123.473 49.16 122.961 49 122.609 48.68C122.267 48.3493 122.097 47.8747 122.097 47.256V42.152H120.481V41.192H122.097V39.048L123.265 38.776V41.192H125.505V42.152H123.265V46.952C123.265 47.368 123.35 47.6667 123.521 47.848C123.702 48.0293 123.995 48.12 124.401 48.12C124.603 48.12 124.785 48.104 124.945 48.072C125.105 48.04 125.291 47.9867 125.505 47.912V48.952C125.291 49.0267 125.067 49.08 124.833 49.112C124.598 49.144 124.369 49.16 124.145 49.16ZM130 49.128C129.445 49.128 128.954 49.0053 128.528 48.76C128.101 48.5147 127.765 48.1733 127.52 47.736C127.285 47.2987 127.168 46.7973 127.168 46.232V41.192H128.352V45.896C128.352 46.5893 128.538 47.1387 128.912 47.544C129.285 47.9493 129.792 48.152 130.432 48.152C130.869 48.152 131.258 48.0507 131.6 47.848C131.952 47.6453 132.245 47.352 132.48 46.968V41.192H133.648V49H132.48V47.736C132.181 48.1947 131.824 48.5413 131.408 48.776C131.002 49.0107 130.533 49.128 130 49.128ZM138.46 49.16C137.82 49.16 137.228 49.064 136.684 48.872C136.14 48.6693 135.676 48.3813 135.292 48.008L135.916 47.24C136.385 47.5813 136.817 47.832 137.212 47.992C137.606 48.1413 138.012 48.216 138.428 48.216C138.993 48.216 139.462 48.0827 139.836 47.816C140.209 47.5493 140.396 47.208 140.396 46.792C140.396 46.472 140.284 46.2213 140.06 46.04C139.846 45.8587 139.489 45.72 138.988 45.624L137.708 45.4C136.95 45.2613 136.39 45.0267 136.028 44.696C135.676 44.3653 135.5 43.9173 135.5 43.352C135.5 42.904 135.617 42.5093 135.852 42.168C136.097 41.8267 136.433 41.56 136.86 41.368C137.286 41.1653 137.772 41.064 138.316 41.064C138.849 41.064 139.356 41.144 139.836 41.304C140.316 41.4533 140.801 41.6987 141.292 42.04L140.716 42.856C140.31 42.568 139.905 42.36 139.5 42.232C139.094 42.0933 138.684 42.024 138.268 42.024C137.756 42.024 137.345 42.136 137.036 42.36C136.726 42.584 136.572 42.888 136.572 43.272C136.572 43.592 136.668 43.8373 136.86 44.008C137.062 44.1787 137.414 44.3067 137.916 44.392L139.228 44.632C140.017 44.7707 140.593 45.0107 140.956 45.352C141.318 45.6933 141.5 46.152 141.5 46.728C141.5 47.1867 141.366 47.6027 141.1 47.976C140.833 48.3387 140.47 48.6267 140.012 48.84C139.553 49.0533 139.036 49.16 138.46 49.16ZM147.013 49V41.192H148.181V42.408C148.479 41.96 148.821 41.624 149.205 41.4C149.589 41.176 150.021 41.064 150.501 41.064C151.055 41.064 151.541 41.2027 151.957 41.48C152.373 41.7467 152.687 42.1147 152.901 42.584C153.21 42.0827 153.578 41.704 154.005 41.448C154.442 41.192 154.943 41.064 155.509 41.064C156.031 41.064 156.49 41.1867 156.885 41.432C157.29 41.6773 157.605 42.0187 157.829 42.456C158.053 42.8827 158.165 43.384 158.165 43.96V49H156.997V44.248C156.997 43.5653 156.826 43.0267 156.485 42.632C156.143 42.2373 155.674 42.04 155.077 42.04C154.671 42.04 154.303 42.1413 153.973 42.344C153.653 42.5467 153.37 42.856 153.125 43.272C153.146 43.3787 153.162 43.4907 153.173 43.608C153.183 43.7253 153.189 43.8427 153.189 43.96V49H152.021V44.248C152.021 43.5653 151.845 43.0267 151.493 42.632C151.151 42.2373 150.682 42.04 150.085 42.04C149.285 42.04 148.65 42.424 148.181 43.192V49H147.013ZM164.048 49.16C163.323 49.16 162.667 48.984 162.08 48.632C161.493 48.2693 161.029 47.784 160.688 47.176C160.347 46.5573 160.176 45.864 160.176 45.096C160.176 44.328 160.336 43.64 160.656 43.032C160.987 42.424 161.429 41.944 161.984 41.592C162.539 41.24 163.157 41.064 163.84 41.064C164.533 41.064 165.147 41.24 165.68 41.592C166.224 41.9333 166.651 42.4027 166.96 43C167.28 43.5867 167.44 44.2533 167.44 45V45.352H161.312C161.355 45.8853 161.499 46.3653 161.744 46.792C162 47.208 162.331 47.5387 162.736 47.784C163.152 48.0187 163.605 48.136 164.096 48.136C164.501 48.136 164.891 48.0667 165.264 47.928C165.648 47.7787 165.973 47.5813 166.24 47.336L166.976 48.12C166.528 48.472 166.064 48.7333 165.584 48.904C165.104 49.0747 164.592 49.16 164.048 49.16ZM161.344 44.52H166.288C166.235 44.0507 166.091 43.6347 165.856 43.272C165.632 42.8987 165.344 42.6053 164.992 42.392C164.651 42.1787 164.267 42.072 163.84 42.072C163.413 42.072 163.024 42.1787 162.672 42.392C162.32 42.5947 162.027 42.8827 161.792 43.256C161.568 43.6187 161.419 44.04 161.344 44.52ZM171.929 49.16C171.289 49.16 170.697 49.064 170.153 48.872C169.609 48.6693 169.145 48.3813 168.761 48.008L169.385 47.24C169.854 47.5813 170.286 47.832 170.681 47.992C171.075 48.1413 171.481 48.216 171.897 48.216C172.462 48.216 172.931 48.0827 173.305 47.816C173.678 47.5493 173.865 47.208 173.865 46.792C173.865 46.472 173.753 46.2213 173.529 46.04C173.315 45.8587 172.958 45.72 172.457 45.624L171.177 45.4C170.419 45.2613 169.859 45.0267 169.497 44.696C169.145 44.3653 168.969 43.9173 168.969 43.352C168.969 42.904 169.086 42.5093 169.321 42.168C169.566 41.8267 169.902 41.56 170.329 41.368C170.755 41.1653 171.241 41.064 171.785 41.064C172.318 41.064 172.825 41.144 173.305 41.304C173.785 41.4533 174.27 41.6987 174.761 42.04L174.185 42.856C173.779 42.568 173.374 42.36 172.969 42.232C172.563 42.0933 172.153 42.024 171.737 42.024C171.225 42.024 170.814 42.136 170.505 42.36C170.195 42.584 170.041 42.888 170.041 43.272C170.041 43.592 170.137 43.8373 170.329 44.008C170.531 44.1787 170.883 44.3067 171.385 44.392L172.697 44.632C173.486 44.7707 174.062 45.0107 174.425 45.352C174.787 45.6933 174.969 46.152 174.969 46.728C174.969 47.1867 174.835 47.6027 174.569 47.976C174.302 48.3387 173.939 48.6267 173.481 48.84C173.022 49.0533 172.505 49.16 171.929 49.16ZM179.163 49.16C178.523 49.16 177.931 49.064 177.387 48.872C176.843 48.6693 176.379 48.3813 175.995 48.008L176.619 47.24C177.088 47.5813 177.52 47.832 177.915 47.992C178.31 48.1413 178.715 48.216 179.131 48.216C179.696 48.216 180.166 48.0827 180.539 47.816C180.912 47.5493 181.099 47.208 181.099 46.792C181.099 46.472 180.987 46.2213 180.763 46.04C180.55 45.8587 180.192 45.72 179.691 45.624L178.411 45.4C177.654 45.2613 177.094 45.0267 176.731 44.696C176.379 44.3653 176.203 43.9173 176.203 43.352C176.203 42.904 176.32 42.5093 176.555 42.168C176.8 41.8267 177.136 41.56 177.563 41.368C177.99 41.1653 178.475 41.064 179.019 41.064C179.552 41.064 180.059 41.144 180.539 41.304C181.019 41.4533 181.504 41.6987 181.995 42.04L181.419 42.856C181.014 42.568 180.608 42.36 180.203 42.232C179.798 42.0933 179.387 42.024 178.971 42.024C178.459 42.024 178.048 42.136 177.739 42.36C177.43 42.584 177.275 42.888 177.275 43.272C177.275 43.592 177.371 43.8373 177.563 44.008C177.766 44.1787 178.118 44.3067 178.619 44.392L179.931 44.632C180.72 44.7707 181.296 45.0107 181.659 45.352C182.022 45.6933 182.203 46.152 182.203 46.728C182.203 47.1867 182.07 47.6027 181.803 47.976C181.536 48.3387 181.174 48.6267 180.715 48.84C180.256 49.0533 179.739 49.16 179.163 49.16ZM186.475 49.144C185.921 49.144 185.43 49.0427 185.003 48.84C184.577 48.6373 184.241 48.36 183.995 48.008C183.761 47.6453 183.643 47.2293 183.643 46.76C183.643 46.2907 183.766 45.8853 184.011 45.544C184.257 45.192 184.598 44.92 185.035 44.728C185.473 44.536 185.985 44.44 186.571 44.44C187.019 44.44 187.441 44.488 187.835 44.584C188.241 44.68 188.614 44.8347 188.955 45.048V43.976C188.955 43.336 188.785 42.856 188.443 42.536C188.102 42.2053 187.601 42.04 186.939 42.04C186.577 42.04 186.203 42.0933 185.819 42.2C185.446 42.3067 185.03 42.4773 184.571 42.712L184.139 41.816C185.185 41.3147 186.166 41.064 187.083 41.064C188.054 41.064 188.801 41.304 189.323 41.784C189.846 42.2533 190.107 42.9307 190.107 43.816V49H188.955V48.088C188.614 48.44 188.235 48.7067 187.819 48.888C187.403 49.0587 186.955 49.144 186.475 49.144ZM184.763 46.728C184.763 47.1867 184.939 47.5547 185.291 47.832C185.654 48.1093 186.129 48.248 186.715 48.248C187.153 48.248 187.553 48.1733 187.915 48.024C188.289 47.8747 188.635 47.6507 188.955 47.352V45.848C188.625 45.656 188.283 45.5173 187.931 45.432C187.579 45.336 187.185 45.288 186.747 45.288C186.15 45.288 185.67 45.4213 185.307 45.688C184.945 45.944 184.763 46.2907 184.763 46.728ZM196.097 52.504C195.575 52.504 195.047 52.4293 194.513 52.28C193.991 52.1413 193.505 51.944 193.057 51.688L193.553 50.792C194.033 51.0373 194.471 51.2187 194.865 51.336C195.26 51.4533 195.655 51.512 196.049 51.512C196.764 51.512 197.303 51.3413 197.665 51C198.039 50.6587 198.225 50.1627 198.225 49.512V47.944C197.927 48.3173 197.564 48.6053 197.137 48.808C196.711 49 196.241 49.096 195.729 49.096C195.057 49.096 194.449 48.92 193.905 48.568C193.361 48.2053 192.929 47.7253 192.609 47.128C192.289 46.52 192.129 45.8427 192.129 45.096C192.129 44.3493 192.289 43.6773 192.609 43.08C192.94 42.472 193.383 41.992 193.937 41.64C194.492 41.2773 195.111 41.096 195.793 41.096C196.284 41.096 196.737 41.192 197.153 41.384C197.569 41.5653 197.932 41.8373 198.241 42.2V41.192H199.393V49.496C199.393 50.4667 199.111 51.208 198.545 51.72C197.98 52.2427 197.164 52.504 196.097 52.504ZM196.017 48.088C196.476 48.088 196.897 47.9973 197.281 47.816C197.665 47.624 197.98 47.3627 198.225 47.032V43.176C197.969 42.8453 197.644 42.5893 197.249 42.408C196.865 42.216 196.455 42.12 196.017 42.12C195.495 42.12 195.025 42.248 194.609 42.504C194.204 42.76 193.879 43.112 193.633 43.56C193.399 44.008 193.281 44.52 193.281 45.096C193.281 45.6613 193.399 46.1733 193.633 46.632C193.879 47.08 194.204 47.4373 194.609 47.704C195.025 47.96 195.495 48.088 196.017 48.088ZM205.314 49.16C204.588 49.16 203.932 48.984 203.346 48.632C202.759 48.2693 202.295 47.784 201.954 47.176C201.612 46.5573 201.442 45.864 201.442 45.096C201.442 44.328 201.602 43.64 201.922 43.032C202.252 42.424 202.695 41.944 203.25 41.592C203.804 41.24 204.423 41.064 205.106 41.064C205.799 41.064 206.412 41.24 206.946 41.592C207.49 41.9333 207.916 42.4027 208.226 43C208.546 43.5867 208.706 44.2533 208.706 45V45.352H202.578C202.62 45.8853 202.764 46.3653 203.01 46.792C203.266 47.208 203.596 47.5387 204.002 47.784C204.418 48.0187 204.871 48.136 205.362 48.136C205.767 48.136 206.156 48.0667 206.53 47.928C206.914 47.7787 207.239 47.5813 207.506 47.336L208.242 48.12C207.794 48.472 207.33 48.7333 206.85 48.904C206.37 49.0747 205.858 49.16 205.314 49.16ZM202.61 44.52H207.554C207.5 44.0507 207.356 43.6347 207.122 43.272C206.898 42.8987 206.61 42.6053 206.258 42.392C205.916 42.1787 205.532 42.072 205.106 42.072C204.679 42.072 204.29 42.1787 203.938 42.392C203.586 42.5947 203.292 42.8827 203.058 43.256C202.834 43.6187 202.684 44.04 202.61 44.52Z" fill="#151515"/>
<rect x="96.5" y="31.5" width="113" height="23" stroke="#B300B3" stroke-dasharray="4 4"/>
<rect x="29" y="54" width="7" height="1" fill="#B300B3"/>
<rect x="32" y="31" width="1" height="24" fill="#B300B3"/>
<rect x="29" y="31" width="7" height="1" fill="#B300B3"/>
<path d="M0.888 47V46.364L4.248 42.692C4.512 42.404 4.716 42.152 4.86 41.936C5.012 41.712 5.116 41.504 5.172 41.312C5.236 41.12 5.268 40.916 5.268 40.7C5.268 40.276 5.1 39.928 4.764 39.656C4.436 39.376 4.016 39.236 3.504 39.236C3.112 39.236 2.748 39.312 2.412 39.464C2.076 39.616 1.7 39.88 1.284 40.256L0.78 39.656C1.22 39.256 1.664 38.96 2.112 38.768C2.56 38.568 3.028 38.468 3.516 38.468C4.02 38.468 4.468 38.564 4.86 38.756C5.252 38.94 5.56 39.196 5.784 39.524C6.008 39.852 6.12 40.228 6.12 40.652C6.12 40.932 6.084 41.192 6.012 41.432C5.94 41.664 5.812 41.916 5.628 42.188C5.444 42.452 5.18 42.772 4.836 43.148L1.968 46.256L6.3 46.244V47H0.888ZM12.0793 47V44.756H7.54331V44.072L12.0073 38.6H12.9313V44H14.0953V44.756H12.9313V47H12.0793ZM8.55131 44H12.0793V39.644L8.55131 44ZM15.4706 49.508V41.144H16.3346V41.984C16.5586 41.688 16.8306 41.464 17.1506 41.312C17.4786 41.152 17.8386 41.072 18.2306 41.072C18.7426 41.072 19.1986 41.208 19.5986 41.48C20.0066 41.744 20.3306 42.104 20.5706 42.56C20.8106 43.008 20.9306 43.512 20.9306 44.072C20.9306 44.632 20.8066 45.14 20.5586 45.596C20.3186 46.052 19.9906 46.416 19.5746 46.688C19.1666 46.952 18.7026 47.084 18.1826 47.084C17.8146 47.084 17.4746 47.016 17.1626 46.88C16.8506 46.736 16.5786 46.532 16.3466 46.268V49.508H15.4706ZM18.0146 46.328C18.4066 46.328 18.7546 46.232 19.0586 46.04C19.3706 45.84 19.6146 45.572 19.7906 45.236C19.9746 44.892 20.0666 44.508 20.0666 44.084C20.0666 43.652 19.9746 43.268 19.7906 42.932C19.6146 42.596 19.3706 42.332 19.0586 42.14C18.7546 41.94 18.4066 41.84 18.0146 41.84C17.6706 41.84 17.3506 41.912 17.0546 42.056C16.7666 42.192 16.5306 42.388 16.3466 42.644V45.512C16.5386 45.768 16.7786 45.968 17.0666 46.112C17.3626 46.256 17.6786 46.328 18.0146 46.328ZM22.2819 47L24.6459 43.988L22.3899 41.144H23.4339L25.1979 43.388L26.9859 41.144H27.9819L25.7139 43.964L28.0899 47H27.0459L25.1499 44.588L23.2779 47H22.2819Z" fill="#B300B3"/>
<rect x="79" y="20" width="1" height="7" fill="#B300B3"/>
<rect x="40" y="23" width="40" height="1" fill="#B300B3"/>
<rect x="40" y="20" width="1" height="7" fill="#B300B3"/>
<path d="M50.4934 13V10.756H45.9574V10.072L50.4214 4.6H51.3454V10H52.5094V10.756H51.3454V13H50.4934ZM46.9654 10H50.4934V5.644L46.9654 10ZM56.4047 13.132C55.8047 13.132 55.2687 12.956 54.7967 12.604C54.3327 12.252 53.9687 11.752 53.7047 11.104C53.4407 10.456 53.3087 9.688 53.3087 8.8C53.3087 7.904 53.4407 7.136 53.7047 6.496C53.9687 5.848 54.3327 5.348 54.7967 4.996C55.2687 4.644 55.8047 4.468 56.4047 4.468C57.0127 4.468 57.5487 4.644 58.0127 4.996C58.4767 5.348 58.8407 5.848 59.1047 6.496C59.3687 7.136 59.5007 7.904 59.5007 8.8C59.5007 9.688 59.3687 10.456 59.1047 11.104C58.8407 11.752 58.4767 12.252 58.0127 12.604C57.5487 12.956 57.0127 13.132 56.4047 13.132ZM54.1847 8.8C54.1847 9.296 54.2287 9.752 54.3167 10.168C54.4127 10.576 54.5407 10.932 54.7007 11.236L57.5567 5.668C57.2287 5.388 56.8447 5.248 56.4047 5.248C55.9567 5.248 55.5647 5.396 55.2287 5.692C54.9007 5.98 54.6447 6.392 54.4607 6.928C54.2767 7.456 54.1847 8.08 54.1847 8.8ZM56.4047 12.352C56.8527 12.352 57.2407 12.208 57.5687 11.92C57.9047 11.624 58.1647 11.212 58.3487 10.684C58.5327 10.148 58.6247 9.52 58.6247 8.8C58.6247 8.304 58.5767 7.852 58.4807 7.444C58.3927 7.028 58.2687 6.668 58.1087 6.364L55.2527 11.932C55.5807 12.212 55.9647 12.352 56.4047 12.352ZM61.08 15.508V7.144H61.944V7.984C62.168 7.688 62.44 7.464 62.76 7.312C63.088 7.152 63.448 7.072 63.84 7.072C64.352 7.072 64.808 7.208 65.208 7.48C65.616 7.744 65.94 8.104 66.18 8.56C66.42 9.008 66.54 9.512 66.54 10.072C66.54 10.632 66.416 11.14 66.168 11.596C65.928 12.052 65.6 12.416 65.184 12.688C64.776 12.952 64.312 13.084 63.792 13.084C63.424 13.084 63.084 13.016 62.772 12.88C62.46 12.736 62.188 12.532 61.956 12.268V15.508H61.08ZM63.624 12.328C64.016 12.328 64.364 12.232 64.668 12.04C64.98 11.84 65.224 11.572 65.4 11.236C65.584 10.892 65.676 10.508 65.676 10.084C65.676 9.652 65.584 9.268 65.4 8.932C65.224 8.596 64.98 8.332 64.668 8.14C64.364 7.94 64.016 7.84 63.624 7.84C63.28 7.84 62.96 7.912 62.664 8.056C62.376 8.192 62.14 8.388 61.956 8.644V11.512C62.148 11.768 62.388 11.968 62.676 12.112C62.972 12.256 63.288 12.328 63.624 12.328ZM67.8913 13L70.2553 9.988L67.9993 7.144H69.0433L70.8073 9.388L72.5953 7.144H73.5913L71.3233 9.964L73.6993 13H72.6553L70.7593 10.588L68.8873 13H67.8913Z" fill="#B300B3"/>
</svg>
