<svg width="319" height="24" viewBox="0 0 319 24" fill="none" xmlns="http://www.w3.org/2000/svg">
<rect x="238" width="40" height="24" rx="12" fill="#4D4D4D"/>
<circle cx="250" cy="12" r="7" fill="white"/>
<path d="M300.48 18.176C299.701 18.176 298.976 18.032 298.304 17.744C297.632 17.4453 297.04 17.0347 296.528 16.512C296.027 15.9787 295.632 15.3653 295.344 14.672C295.056 13.968 294.912 13.2107 294.912 12.4C294.912 11.5893 295.056 10.8373 295.344 10.144C295.632 9.44 296.027 8.82667 296.528 8.304C297.04 7.77067 297.632 7.36 298.304 7.072C298.976 6.77333 299.701 6.624 300.48 6.624C301.259 6.624 301.984 6.77333 302.656 7.072C303.328 7.36 303.915 7.77067 304.416 8.304C304.928 8.82667 305.328 9.44 305.616 10.144C305.904 10.8373 306.048 11.5893 306.048 12.4C306.048 13.2107 305.904 13.968 305.616 14.672C305.328 15.3653 304.928 15.9787 304.416 16.512C303.915 17.0347 303.328 17.4453 302.656 17.744C301.984 18.032 301.259 18.176 300.48 18.176ZM300.48 17.056C301.088 17.056 301.653 16.9387 302.176 16.704C302.699 16.4693 303.157 16.1387 303.552 15.712C303.947 15.2853 304.251 14.7893 304.464 14.224C304.688 13.6587 304.8 13.0507 304.8 12.4C304.8 11.7387 304.688 11.1307 304.464 10.576C304.251 10.0107 303.947 9.51467 303.552 9.088C303.157 8.66133 302.699 8.33067 302.176 8.096C301.653 7.86133 301.088 7.744 300.48 7.744C299.872 7.744 299.307 7.86133 298.784 8.096C298.261 8.33067 297.803 8.66133 297.408 9.088C297.013 9.51467 296.704 10.0107 296.48 10.576C296.267 11.1307 296.16 11.7333 296.16 12.384C296.16 13.0453 296.267 13.6587 296.48 14.224C296.704 14.7893 297.013 15.2853 297.408 15.712C297.803 16.1387 298.261 16.4693 298.784 16.704C299.307 16.9387 299.872 17.056 300.48 17.056ZM309.145 18V11.152H307.401V10.192H309.145V8.56C309.145 7.792 309.348 7.2 309.753 6.784C310.158 6.368 310.734 6.16 311.481 6.16C311.694 6.16 311.886 6.17067 312.057 6.192C312.238 6.21333 312.398 6.25067 312.537 6.304V7.36C312.366 7.30667 312.212 7.26933 312.073 7.248C311.934 7.22667 311.774 7.216 311.593 7.216C311.145 7.216 310.82 7.328 310.617 7.552C310.414 7.76533 310.313 8.10667 310.313 8.576V10.192H312.537V11.152H310.313V18H309.145ZM315.223 18V11.152H313.479V10.192H315.223V8.56C315.223 7.792 315.426 7.2 315.831 6.784C316.237 6.368 316.813 6.16 317.559 6.16C317.773 6.16 317.965 6.17067 318.135 6.192C318.317 6.21333 318.477 6.25067 318.615 6.304V7.36C318.445 7.30667 318.29 7.26933 318.151 7.248C318.013 7.22667 317.853 7.216 317.671 7.216C317.223 7.216 316.898 7.328 316.695 7.552C316.493 7.76533 316.391 8.10667 316.391 8.576V10.192H318.615V11.152H316.391V18H315.223Z" fill="#4D4D4D"/>
<rect width="40" height="24" rx="12" fill="#0066CC"/>
<circle cx="28" cy="12" r="7" fill="white"/>
<path d="M62.48 18.176C61.7013 18.176 60.976 18.032 60.304 17.744C59.632 17.4453 59.04 17.0347 58.528 16.512C58.0267 15.9787 57.632 15.3653 57.344 14.672C57.056 13.968 56.912 13.2107 56.912 12.4C56.912 11.5893 57.056 10.8373 57.344 10.144C57.632 9.44 58.0267 8.82667 58.528 8.304C59.04 7.77067 59.632 7.36 60.304 7.072C60.976 6.77333 61.7013 6.624 62.48 6.624C63.2587 6.624 63.984 6.77333 64.656 7.072C65.328 7.36 65.9147 7.77067 66.416 8.304C66.928 8.82667 67.328 9.44 67.616 10.144C67.904 10.8373 68.048 11.5893 68.048 12.4C68.048 13.2107 67.904 13.968 67.616 14.672C67.328 15.3653 66.928 15.9787 66.416 16.512C65.9147 17.0347 65.328 17.4453 64.656 17.744C63.984 18.032 63.2587 18.176 62.48 18.176ZM62.48 17.056C63.088 17.056 63.6533 16.9387 64.176 16.704C64.6987 16.4693 65.1573 16.1387 65.552 15.712C65.9467 15.2853 66.2507 14.7893 66.464 14.224C66.688 13.6587 66.8 13.0507 66.8 12.4C66.8 11.7387 66.688 11.1307 66.464 10.576C66.2507 10.0107 65.9467 9.51467 65.552 9.088C65.1573 8.66133 64.6987 8.33067 64.176 8.096C63.6533 7.86133 63.088 7.744 62.48 7.744C61.872 7.744 61.3067 7.86133 60.784 8.096C60.2613 8.33067 59.8027 8.66133 59.408 9.088C59.0133 9.51467 58.704 10.0107 58.48 10.576C58.2667 11.1307 58.16 11.7333 58.16 12.384C58.16 13.0453 58.2667 13.6587 58.48 14.224C58.704 14.7893 59.0133 15.2853 59.408 15.712C59.8027 16.1387 60.2613 16.4693 60.784 16.704C61.3067 16.9387 61.872 17.056 62.48 17.056ZM70.1531 18V10.192H71.3211V11.456C71.6198 10.9867 71.9771 10.64 72.3931 10.416C72.8091 10.1813 73.2785 10.064 73.8011 10.064C74.3665 10.064 74.8571 10.1867 75.2731 10.432C75.6998 10.6667 76.0305 11.0027 76.2651 11.44C76.5105 11.8667 76.6331 12.368 76.6331 12.944V18H75.4651V13.28C75.4651 12.5867 75.2731 12.0427 74.8891 11.648C74.5158 11.2427 74.0091 11.04 73.3691 11.04C72.9425 11.04 72.5531 11.1413 72.2011 11.344C71.8491 11.5467 71.5558 11.8453 71.3211 12.24V18H70.1531Z" fill="#151515"/>
</svg>
