<svg width="555" height="312" viewBox="0 0 555 312" fill="none" xmlns="http://www.w3.org/2000/svg">
<g clip-path="url(#clip0_4562_636)">
<path d="M555 0H0V312H555V0Z" fill="#E0E0E0"/>
<path d="M159.49 163.25C167.74 163.25 179.68 161.55 179.68 151.74C179.7 150.98 179.64 150.23 179.48 149.48L174.57 128.14C173.44 123.44 172.44 121.31 164.2 117.19C157.8 113.92 143.87 108.52 139.75 108.52C135.91 108.52 134.8 113.47 130.22 113.47C125.64 113.47 122.54 109.78 118.42 109.78C114.3 109.78 111.88 112.48 109.89 118.02C109.89 118.02 104.34 133.66 103.63 135.93C103.52 136.35 103.47 136.78 103.48 137.21C103.48 143.29 127.42 163.23 159.5 163.23M180.94 155.72C182.08 161.12 182.08 161.69 182.08 162.4C182.08 171.63 171.7 176.76 158.06 176.76C127.22 176.78 100.21 158.71 100.21 146.77C100.21 145.11 100.55 143.46 101.21 141.94C90.12 142.49 75.76 144.47 75.76 157.15C75.76 177.91 124.95 203.5 163.9 203.5C193.76 203.5 201.29 189.99 201.29 179.33C201.29 170.94 194.04 161.42 180.96 155.73" fill="#EE0000"/>
<path d="M180.94 155.72C182.08 161.12 182.08 161.69 182.08 162.4C182.08 171.63 171.7 176.76 158.06 176.76C127.22 176.78 100.21 158.71 100.21 146.77C100.21 145.11 100.55 143.46 101.21 141.94L103.62 135.97C103.51 136.38 103.46 136.8 103.47 137.22C103.47 143.3 127.41 163.24 159.49 163.24C167.74 163.24 179.68 161.54 179.68 151.73C179.7 150.97 179.64 150.22 179.48 149.47L180.95 155.74L180.94 155.72Z" fill="black"/>
<path d="M457.75 169.39C457.75 177.23 462.47 181.04 471.06 181.04C473.71 180.97 476.34 180.6 478.9 179.93V170.84C477.26 171.36 475.55 171.62 473.84 171.6C470.3 171.6 468.99 170.49 468.99 167.16V153.23H479.25V143.87H468.99V132L457.78 134.43V143.87H450.33V153.23H457.75V169.39ZM422.8 169.6C422.8 167.17 425.23 165.99 428.91 165.99C431.16 166 433.39 166.28 435.57 166.82V171.54C433.42 172.71 431.01 173.31 428.56 173.27C424.96 173.27 422.8 171.89 422.8 169.6ZM426.22 181.18C430.18 181.18 433.37 180.35 436.35 178.34V180.56H447.44V157.04C447.44 148.1 441.41 143.19 431.36 143.19C425.74 143.19 420.19 144.51 414.21 147.21L418.23 155.47C422.53 153.66 426.14 152.56 429.33 152.56C433.95 152.56 436.33 154.36 436.33 158.04V159.84C433.61 159.14 430.81 158.79 428.01 158.8C418.57 158.8 412.89 162.76 412.89 169.83C412.89 176.28 418.02 181.2 426.2 181.2M365.25 180.58H377.18V161.55H397.16V180.56H409.12V132.01H397.2V150.67H377.22V132.01H365.29L365.24 180.58H365.25ZM319.84 162.18C319.84 156.9 324 152.88 329.48 152.88C332.33 152.82 335.1 153.84 337.24 155.73V168.56C335.15 170.53 332.36 171.59 329.48 171.5C324.07 171.5 319.84 167.48 319.84 162.21M337.39 180.59H348.49V129.59L337.28 132.02V145.82C334.43 144.2 331.2 143.36 327.92 143.39C317.24 143.39 308.85 151.64 308.85 162.19C308.72 172.48 316.96 180.92 327.25 181.05C327.36 181.05 327.47 181.05 327.58 181.05C331.12 181.07 334.57 179.95 337.43 177.86L337.4 180.59H337.39ZM286.46 152.37C289.99 152.37 292.98 154.66 294.16 158.19H278.86C279.97 154.54 282.74 152.37 286.46 152.37ZM267.55 162.27C267.55 172.95 276.29 181.28 287.52 181.28C293.69 181.28 298.2 179.61 302.85 175.73L295.42 169.14C293.69 170.95 291.12 171.92 288.07 171.92C284.15 172.03 280.56 169.72 279.05 166.1H305.2V163.31C305.2 151.66 297.37 143.27 286.68 143.27C276.28 143.11 267.71 151.42 267.56 161.82C267.56 161.97 267.56 162.12 267.56 162.26M248.21 142.2C252.17 142.2 254.38 144.69 254.38 147.68C254.38 150.67 252.16 153.16 248.21 153.16H236.41V142.2H248.21ZM224.47 180.56H236.4V162.87H245.48L254.64 180.56H267.99L257.31 161.14C262.86 158.88 266.49 153.47 266.46 147.48C266.46 138.74 259.59 132.02 249.31 132.02H224.46V180.57L224.47 180.56Z" fill="black"/>
</g>
<defs>
<clipPath id="clip0_4562_636">
<rect width="555" height="312" fill="white"/>
</clipPath>
</defs>
</svg>
