<svg xmlns="http://www.w3.org/2000/svg" width="1000" height="160" viewBox="0 0 1000 160"><defs><style>.a{fill:#fff;}.b{opacity:0.05;}.c{fill:blue;}.d{opacity:0.03;}.e{fill:red;}</style></defs><g transform="translate(-360 -222)"><rect class="a" width="1000" height="160" transform="translate(360 222)"/><g class="b" transform="translate(425 222)"><rect class="c" width="20" height="160" transform="translate(850)"/><rect class="c" width="20" height="160" transform="translate(765)"/><rect class="c" width="20" height="160" transform="translate(680)"/><rect class="c" width="20" height="160" transform="translate(595)"/><rect class="c" width="20" height="160" transform="translate(510)"/><rect class="c" width="20" height="160" transform="translate(425)"/><rect class="c" width="20" height="160" transform="translate(340)"/><rect class="c" width="20" height="160" transform="translate(255)"/><rect class="c" width="20" height="160" transform="translate(170)"/><rect class="c" width="20" height="160" transform="translate(85)"/><rect class="c" width="20" height="160"/></g><g class="d" transform="translate(360 222)"><rect class="e" width="65" height="160" transform="translate(935)"/><rect class="e" width="65" height="160" transform="translate(850)"/><rect class="e" width="65" height="160" transform="translate(765)"/><rect class="e" width="65" height="160" transform="translate(680)"/><rect class="e" width="65" height="160" transform="translate(595)"/><rect class="e" width="65" height="160" transform="translate(510)"/><rect class="e" width="65" height="160" transform="translate(425)"/><rect class="e" width="65" height="160" transform="translate(340)"/><rect class="e" width="65" height="160" transform="translate(255)"/><rect class="e" width="65" height="160" transform="translate(170)"/><rect class="e" width="65" height="160" transform="translate(85)"/><rect class="e" width="65" height="160"/></g></g></svg>