<svg xmlns="http://www.w3.org/2000/svg" width="876.754" height="192.982" viewBox="0 0 876.754 192.982">
  <g id="Group_1" data-name="Group 1" transform="translate(-419.246 -677)">
    <g id="Grid" transform="translate(64 455)">
      <rect id="Rectangle" width="872" height="160" transform="translate(360 222)" fill="#fff"/>
      <g id="Columns" opacity="0.03">
        <rect id="Rectangle-2" data-name="Rectangle" width="53" height="160" transform="translate(1149 222)" fill="#151515"/>
        <rect id="Rectangle-3" data-name="Rectangle" width="53" height="160" transform="translate(1080 222)" fill="#151515"/>
        <rect id="Rectangle-4" data-name="Rectangle" width="53" height="160" transform="translate(1011 222)" fill="#151515"/>
        <rect id="Rectangle-5" data-name="Rectangle" width="53" height="160" transform="translate(942 222)" fill="#151515"/>
        <rect id="Rectangle-6" data-name="Rectangle" width="53" height="160" transform="translate(873 222)" fill="#151515"/>
        <rect id="Rectangle-7" data-name="Rectangle" width="53" height="160" transform="translate(804 222)" fill="#151515"/>
        <rect id="Rectangle-8" data-name="Rectangle" width="53" height="160" transform="translate(735 222)" fill="#151515"/>
        <rect id="Rectangle-9" data-name="Rectangle" width="53" height="160" transform="translate(666 222)" fill="#151515"/>
        <rect id="Rectangle-10" data-name="Rectangle" width="53" height="160" transform="translate(597 222)" fill="#151515"/>
        <rect id="Rectangle-11" data-name="Rectangle" width="53" height="160" transform="translate(528 222)" fill="#151515"/>
        <rect id="Rectangle-12" data-name="Rectangle" width="53" height="160" transform="translate(459 222)" fill="#151515"/>
        <rect id="Rectangle-13" data-name="Rectangle" width="53" height="160" transform="translate(390 222)" fill="#151515"/>
      </g>
      <g id="Margins" opacity="0.07">
        <rect id="Rectangle-14" data-name="Rectangle" width="30" height="160" transform="translate(1202 222)" fill="#151515"/>
        <rect id="Rectangle-15" data-name="Rectangle" width="30" height="160" transform="translate(360 222)" fill="#151515"/>
      </g>
    </g>
    <path id="Path" d="M10.416-4.69v-.434H6.02v.952h3.3A3.566,3.566,0,0,1,5.74-.812,3.925,3.925,0,0,1,1.876-4.9,3.913,3.913,0,0,1,5.74-8.974,4.064,4.064,0,0,1,8.834-7.616l.728-.728A5.03,5.03,0,0,0,5.74-9.954,4.96,4.96,0,0,0,.784-4.9,4.972,4.972,0,0,0,5.754.154,4.677,4.677,0,0,0,10.416-4.69ZM13.37-6.832H12.334v4.41A2.389,2.389,0,0,0,14.812.112a2.446,2.446,0,0,0,2.17-1.218V0H18V-6.832H16.982v5.054A2.028,2.028,0,0,1,15.19-.742a1.765,1.765,0,0,1-1.82-1.974ZM21.056-1.54c0,1.092.616,1.666,1.792,1.666a3.837,3.837,0,0,0,1.19-.182v-.91a2.454,2.454,0,0,1-.966.182c-.714,0-.994-.294-.994-1.022V-5.992h1.96v-.84h-1.96V-8.946l-1.022.238v1.876H19.642v.84h1.414Zm5.572,0c0,1.092.616,1.666,1.792,1.666a3.837,3.837,0,0,0,1.19-.182v-.91a2.454,2.454,0,0,1-.966.182c-.714,0-.994-.294-.994-1.022V-5.992h1.96v-.84H27.65V-8.946l-1.022.238v1.876H25.214v.84h1.414Zm10.094.756-.644-.686a2.792,2.792,0,0,1-1.876.7,2.49,2.49,0,0,1-2.436-2.422h5.362V-3.5a3.228,3.228,0,0,0-3.136-3.444,3.325,3.325,0,0,0-3.22,3.528A3.41,3.41,0,0,0,34.16.126,3.989,3.989,0,0,0,36.722-.784ZM33.978-6.062A2.256,2.256,0,0,1,36.12-3.92H31.794A2.282,2.282,0,0,1,33.978-6.062ZM39.018,0H40.04V-4.676a1.947,1.947,0,0,1,1.834-1.386,2.554,2.554,0,0,1,.714.126V-6.86a1.94,1.94,0,0,0-.644-.1,2.041,2.041,0,0,0-1.9,1.512V-6.832H39.018Z" transform="translate(839 867)" fill="#06c"/>
    <rect id="Rectangle-16" data-name="Rectangle" width="1" height="95" transform="translate(860 758)" fill="#06c"/>
    <circle id="Ellipse" cx="3.5" cy="3.5" r="3.5" transform="translate(857 754)" fill="#06c"/>
    <path id="Path-2" data-name="Path" d="M5.8-.826A3.924,3.924,0,0,1,1.876-4.9,3.918,3.918,0,0,1,5.768-8.974,3.928,3.928,0,0,1,8.75-7.6l.714-.742a4.9,4.9,0,0,0-3.7-1.61A4.966,4.966,0,0,0,.784-4.9,4.966,4.966,0,0,0,5.768.154a4.928,4.928,0,0,0,3.668-1.61l-.7-.714A3.84,3.84,0,0,1,5.8-.826Zm5.04-2.59A3.384,3.384,0,0,0,14.154.14a3.378,3.378,0,0,0,3.332-3.556,3.353,3.353,0,0,0-3.332-3.528A3.351,3.351,0,0,0,10.836-3.416ZM14.154-.77A2.409,2.409,0,0,1,11.844-3.4a2.43,2.43,0,0,1,2.31-2.646A2.44,2.44,0,0,1,16.478-3.4,2.427,2.427,0,0,1,14.154-.77Zm6.286-9.45-1.022.21V0H20.44Zm3.234,3.388H22.638v4.41A2.389,2.389,0,0,0,25.116.112a2.446,2.446,0,0,0,2.17-1.218V0h1.022V-6.832H27.286v5.054A2.028,2.028,0,0,1,25.494-.742a1.765,1.765,0,0,1-1.82-1.974ZM30.548,0H31.57V-5.082A1.872,1.872,0,0,1,33.236-6.09,1.7,1.7,0,0,1,34.93-4.158V0h1.022V-4.41a2.834,2.834,0,0,0-.056-.6A1.9,1.9,0,0,1,37.6-6.09c1.036,0,1.68.742,1.68,1.932V0h1.022V-4.41a2.325,2.325,0,0,0-2.324-2.534A2.524,2.524,0,0,0,35.7-5.614a2.245,2.245,0,0,0-2.1-1.33,2.34,2.34,0,0,0-2.03,1.176V-6.832H30.548Zm11.97,0H43.54V-5.04a2.014,2.014,0,0,1,1.792-1.05,1.771,1.771,0,0,1,1.834,1.96V0h1.022V-4.424a2.378,2.378,0,0,0-2.478-2.52,2.462,2.462,0,0,0-2.17,1.218V-6.832H42.518Z" transform="translate(732 867)" fill="#06c"/>
    <rect id="Rectangle-17" data-name="Rectangle" width="1" height="95" transform="translate(756 758)" fill="#06c"/>
    <circle id="Ellipse-2" data-name="Ellipse" cx="3.5" cy="3.5" r="3.5" transform="translate(753 754)" fill="#06c"/>
    <path id="Path-3" data-name="Path" d="M6.02-.7,9.772-8.526V0h1.022V-9.8H9.3L6.02-2.828,2.744-9.8h-1.5V0H2.254V-8.554Zm9.2.826A2.933,2.933,0,0,0,17.388-.8V0H18.4V-4.536c0-1.554-.952-2.408-2.646-2.408a5.853,5.853,0,0,0-2.576.658l.378.784a4.511,4.511,0,0,1,2.072-.588A1.538,1.538,0,0,1,17.388-4.4v.938A3.956,3.956,0,0,0,15.3-3.99c-1.54,0-2.562.812-2.562,2.03A2.206,2.206,0,0,0,15.218.126Zm-1.5-2.114c0-.756.686-1.26,1.736-1.26a3.607,3.607,0,0,1,1.932.49v1.316a2.7,2.7,0,0,1-1.96.784C14.406-.658,13.72-1.19,13.72-1.988ZM20.608,0H21.63V-4.676a1.947,1.947,0,0,1,1.834-1.386,2.554,2.554,0,0,1,.714.126V-6.86a1.94,1.94,0,0,0-.644-.1,2.041,2.041,0,0,0-1.9,1.512V-6.832H20.608Zm7.476.084A2.692,2.692,0,0,0,30.268-.924V.364c0,1.148-.658,1.75-1.9,1.75a4.594,4.594,0,0,1-2.184-.63l-.434.784a5.479,5.479,0,0,0,2.66.714c1.862,0,2.884-.938,2.884-2.632V-6.832H30.282v.882a2.757,2.757,0,0,0-2.142-.966,3.323,3.323,0,0,0-3.206,3.5A3.3,3.3,0,0,0,28.084.084Zm-2.142-3.5a2.438,2.438,0,0,1,2.394-2.6,2.45,2.45,0,0,1,1.932.924v3.374A2.351,2.351,0,0,1,28.336-.8,2.451,2.451,0,0,1,25.942-3.416Zm8.106-5.1a.726.726,0,0,0,.728-.742.741.741,0,0,0-.728-.728.744.744,0,0,0-.742.728A.729.729,0,0,0,34.048-8.512Zm.5,1.68H33.53V0h1.022ZM36.792,0h1.022V-5.04a2.014,2.014,0,0,1,1.792-1.05A1.771,1.771,0,0,1,41.44-4.13V0h1.022V-4.424a2.378,2.378,0,0,0-2.478-2.52,2.462,2.462,0,0,0-2.17,1.218V-6.832H36.792Z" transform="translate(418 867)" fill="#06c"/>
    <rect id="Rectangle-18" data-name="Rectangle" width="1" height="95" transform="translate(439 758)" fill="#06c"/>
    <circle id="Ellipse-3" data-name="Ellipse" cx="3.5" cy="3.5" r="3.5" transform="translate(436 754)" fill="#06c"/>
  </g>
</svg>
