<svg xmlns="http://www.w3.org/2000/svg" width="313" height="56" viewBox="0 0 313 56">
  <g id="cta-bestpractice-2" transform="translate(-704 -5809)">
    <g id="Primary" transform="translate(451 3505)">
      <rect id="Rectangle" width="142" height="56" rx="3" transform="translate(424 2304)" fill="#e00"/>
      <path id="Path_32" data-name="Path 32" d="M1.008-11.2H6.272a4.208,4.208,0,0,1,2.736.856,2.721,2.721,0,0,1,1.056,2.216A2.546,2.546,0,0,1,9.7-6.784,3.035,3.035,0,0,1,8.688-5.776a3.314,3.314,0,0,1,1.28,1.048,2.467,2.467,0,0,1,.48,1.48A2.908,2.908,0,0,1,9.368-.9a4.3,4.3,0,0,1-2.84.9H1.008Zm5.12,1.92h-2.8v2.656h2.8a1.834,1.834,0,0,0,1.184-.36,1.177,1.177,0,0,0,.448-.968,1.177,1.177,0,0,0-.448-.968A1.834,1.834,0,0,0,6.128-9.28Zm.224,7.36a1.962,1.962,0,0,0,1.28-.392,1.3,1.3,0,0,0,.48-1.064,1.29,1.29,0,0,0-.48-1.04,1.935,1.935,0,0,0-1.28-.4H3.328v2.9Zm7.536-6.416v4.848a1.746,1.746,0,0,0,.472,1.28,1.682,1.682,0,0,0,1.256.48,2.24,2.24,0,0,0,1-.216,1.935,1.935,0,0,0,.728-.616V-8.336h2.192V0H17.344V-.672a3.576,3.576,0,0,1-1.072.616,3.707,3.707,0,0,1-1.28.216,3.193,3.193,0,0,1-2.368-.936A3.254,3.254,0,0,1,11.7-3.168V-8.336ZM23.5.384l.128-.3L20.384-8.336H22.8l2.064,5.68,2.368-5.68H29.6L25.76.656A5.152,5.152,0,0,1,24.272,2.8a3.569,3.569,0,0,1-2.208.64q-.288,0-.552-.024a2.227,2.227,0,0,1-.424-.072V1.456a3.183,3.183,0,0,0,.336.048q.176.016.432.016a1.69,1.69,0,0,0,1-.288A1.939,1.939,0,0,0,23.5.384ZM34.768-9.328a1.2,1.2,0,0,1-.88-.368,1.2,1.2,0,0,1-.368-.88,1.2,1.2,0,0,1,.368-.88,1.2,1.2,0,0,1,.88-.368,1.2,1.2,0,0,1,.88.368,1.2,1.2,0,0,1,.368.88,1.2,1.2,0,0,1-.368.88A1.2,1.2,0,0,1,34.768-9.328Zm1.1.992V0H33.68V-8.336ZM38.72-2.352V-6.5H37.008v-1.84H38.72v-2.128l2.192-.5v2.624H43.28V-6.5H40.912v3.7a1.109,1.109,0,0,0,.256.832,1.307,1.307,0,0,0,.9.24,3.96,3.96,0,0,0,.576-.04,3.23,3.23,0,0,0,.592-.152V-.128a5.385,5.385,0,0,1-.848.184,6.041,6.041,0,0,1-.848.072,3.081,3.081,0,0,1-2.1-.632A2.341,2.341,0,0,1,38.72-2.352ZM47.584,0V-8.336h2.192v.656a3.467,3.467,0,0,1,1.064-.608A3.766,3.766,0,0,1,52.112-8.5a3.207,3.207,0,0,1,2.368.928,3.227,3.227,0,0,1,.928,2.384V0H53.216V-4.864a1.725,1.725,0,0,0-.472-1.264,1.682,1.682,0,0,0-1.256-.48,2.2,2.2,0,0,0-.984.216,1.935,1.935,0,0,0-.728.616V0Zm9.1-4.16a4.23,4.23,0,0,1,.344-1.7,4.276,4.276,0,0,1,.944-1.376,4.418,4.418,0,0,1,1.416-.92A4.535,4.535,0,0,1,61.136-8.5a4.535,4.535,0,0,1,1.744.336,4.418,4.418,0,0,1,1.416.92,4.276,4.276,0,0,1,.944,1.376,4.23,4.23,0,0,1,.344,1.7,4.23,4.23,0,0,1-.344,1.7A4.184,4.184,0,0,1,64.3-1.088a4.489,4.489,0,0,1-1.416.912A4.535,4.535,0,0,1,61.136.16a4.535,4.535,0,0,1-1.744-.336,4.489,4.489,0,0,1-1.416-.912,4.184,4.184,0,0,1-.944-1.368A4.23,4.23,0,0,1,56.688-4.16Zm4.448,2.416a2.172,2.172,0,0,0,1.632-.7A2.388,2.388,0,0,0,63.44-4.16a2.408,2.408,0,0,0-.672-1.728,2.172,2.172,0,0,0-1.632-.7,2.172,2.172,0,0,0-1.632.7,2.408,2.408,0,0,0-.672,1.728A2.388,2.388,0,0,0,59.5-2.448,2.172,2.172,0,0,0,61.136-1.744ZM70.464,0H68.352L66.064-8.336h2.08L69.52-2.944l1.664-5.392h1.84l1.648,5.392,1.376-5.392H78.1L75.792,0H73.7L72.08-5.328Z" transform="translate(456 2338)" fill="#fff"/>
    </g>
    <g id="Primary-2" data-name="Primary" transform="translate(280 3505)">
      <rect id="Rectangle-2" data-name="Rectangle" width="139" height="56" rx="3" transform="translate(424 2304)" fill="#e00"/>
      <path id="Path_33" data-name="Path 33" d="M.288-9.152V-11.2h9.856v2.048H6.384V0H4.064V-9.152ZM10.608,0V-8.336H12.8v.912a2.645,2.645,0,0,1,.968-.824,2.8,2.8,0,0,1,1.256-.28,4.155,4.155,0,0,1,.536.056,1.122,1.122,0,0,1,.376.136v1.92a2.267,2.267,0,0,0-.528-.168,3.1,3.1,0,0,0-.592-.056,2.252,2.252,0,0,0-1.176.32,2.189,2.189,0,0,0-.84.928V0Zm8.928.384.128-.3L16.416-8.336h2.416L20.9-2.656l2.368-5.68h2.368L21.792.656A5.152,5.152,0,0,1,20.3,2.8a3.569,3.569,0,0,1-2.208.64q-.288,0-.552-.024a2.227,2.227,0,0,1-.424-.072V1.456a3.183,3.183,0,0,0,.336.048q.176.016.432.016a1.69,1.69,0,0,0,1-.288A1.939,1.939,0,0,0,19.536.384ZM30.8-9.328a1.2,1.2,0,0,1-.88-.368,1.2,1.2,0,0,1-.368-.88,1.2,1.2,0,0,1,.368-.88,1.2,1.2,0,0,1,.88-.368,1.2,1.2,0,0,1,.88.368,1.2,1.2,0,0,1,.368.88,1.2,1.2,0,0,1-.368.88A1.2,1.2,0,0,1,30.8-9.328Zm1.1.992V0H29.712V-8.336Zm2.848,5.984V-6.5H33.04v-1.84h1.712v-2.128l2.192-.5v2.624h2.368V-6.5H36.944v3.7a1.109,1.109,0,0,0,.256.832,1.307,1.307,0,0,0,.9.24,3.96,3.96,0,0,0,.576-.04,3.23,3.23,0,0,0,.592-.152V-.128a5.385,5.385,0,0,1-.848.184,6.041,6.041,0,0,1-.848.072,3.081,3.081,0,0,1-2.1-.632A2.341,2.341,0,0,1,34.752-2.352ZM43.04-8.336H44.9v-.8a2.77,2.77,0,0,1,.816-2.144,3.35,3.35,0,0,1,2.352-.752,6.092,6.092,0,0,1,.688.04,4.754,4.754,0,0,1,.608.1v1.84q-.3-.064-.536-.1a3.572,3.572,0,0,0-.488-.032A1.391,1.391,0,0,0,47.4-9.9a1.025,1.025,0,0,0-.312.816v.752H49.36V-6.5H47.088V0H44.9V-6.5H43.04ZM50.512,0V-8.336H52.7v.912a2.645,2.645,0,0,1,.968-.824,2.8,2.8,0,0,1,1.256-.28,4.155,4.155,0,0,1,.536.056,1.122,1.122,0,0,1,.376.136v1.92a2.267,2.267,0,0,0-.528-.168,3.1,3.1,0,0,0-.592-.056,2.252,2.252,0,0,0-1.176.32,2.189,2.189,0,0,0-.84.928V0ZM64.1-1.04a5.365,5.365,0,0,1-1.576.912,5.332,5.332,0,0,1-1.8.288,4.637,4.637,0,0,1-1.768-.336,4.467,4.467,0,0,1-1.424-.912,4.184,4.184,0,0,1-.944-1.368,4.23,4.23,0,0,1-.344-1.7,4.368,4.368,0,0,1,.328-1.688,4.256,4.256,0,0,1,.9-1.376,4.2,4.2,0,0,1,1.368-.92,4.277,4.277,0,0,1,1.688-.336,3.93,3.93,0,0,1,1.64.344A4.065,4.065,0,0,1,63.48-7.2a4.263,4.263,0,0,1,.864,1.416A5,5,0,0,1,64.656-4v.576H58.448a2.34,2.34,0,0,0,.864,1.264,2.437,2.437,0,0,0,1.5.48,2.951,2.951,0,0,0,1.024-.176,2.328,2.328,0,0,0,.816-.5ZM60.48-6.672a1.953,1.953,0,0,0-1.3.456,2.349,2.349,0,0,0-.752,1.224h4.08a2.412,2.412,0,0,0-.76-1.208A1.9,1.9,0,0,0,60.48-6.672ZM73.536-1.04a5.365,5.365,0,0,1-1.576.912,5.332,5.332,0,0,1-1.8.288,4.637,4.637,0,0,1-1.768-.336,4.467,4.467,0,0,1-1.424-.912,4.184,4.184,0,0,1-.944-1.368,4.23,4.23,0,0,1-.344-1.7,4.368,4.368,0,0,1,.328-1.688,4.256,4.256,0,0,1,.9-1.376,4.2,4.2,0,0,1,1.368-.92,4.277,4.277,0,0,1,1.688-.336,3.93,3.93,0,0,1,1.64.344A4.065,4.065,0,0,1,72.92-7.2a4.263,4.263,0,0,1,.864,1.416A5,5,0,0,1,74.1-4v.576H67.888a2.34,2.34,0,0,0,.864,1.264,2.437,2.437,0,0,0,1.5.48,2.951,2.951,0,0,0,1.024-.176,2.328,2.328,0,0,0,.816-.5ZM69.92-6.672a1.953,1.953,0,0,0-1.3.456,2.349,2.349,0,0,0-.752,1.224h4.08a2.412,2.412,0,0,0-.76-1.208A1.9,1.9,0,0,0,69.92-6.672Z" transform="translate(456 2338)" fill="#fff"/>
    </g>
  </g>
</svg>
