<svg xmlns="http://www.w3.org/2000/svg" width="659" height="56"><g transform="translate(513)" fill="none" stroke="#151515"><rect width="146" height="56" rx="3" stroke="none"/><rect x=".5" y=".5" width="145" height="55" rx="2.5"/></g><path data-name="Path 35" d="M545.048 32.224l1.328-1.664a7.444 7.444 0 001.88 1.24 4.755 4.755 0 001.912.392 3.15 3.15 0 001.664-.384 1.161 1.161 0 00.624-1.024 1.058 1.058 0 00-.424-.9 3.3 3.3 0 00-1.416-.48l-2.224-.38a3.822 3.822 0 01-2.184-1.008 2.732 2.732 0 01-.744-1.984 2.956 2.956 0 011.192-2.48 5.179 5.179 0 013.224-.912 7.687 7.687 0 012.456.416 7.074 7.074 0 012.164 1.152l-1.244 1.728a7 7 0 00-1.756-1.016 4.965 4.965 0 00-1.78-.328 2.819 2.819 0 00-1.488.344 1.042 1.042 0 00-.56.92.959.959 0 00.368.8 2.7 2.7 0 001.232.416l2.112.352a4.676 4.676 0 012.5 1.064 2.736 2.736 0 01.84 2.088 3.108 3.108 0 01-1.284 2.608 5.542 5.542 0 01-3.432.976 7.19 7.19 0 01-2.648-.512 7.5 7.5 0 01-2.312-1.424zm18.56.736a5.365 5.365 0 01-1.576.912 5.332 5.332 0 01-1.8.288 4.637 4.637 0 01-1.768-.336 4.467 4.467 0 01-1.424-.912 4.185 4.185 0 01-.94-1.368 4.23 4.23 0 01-.344-1.7 4.367 4.367 0 01.328-1.688 4.255 4.255 0 01.9-1.376 4.2 4.2 0 011.368-.92 4.277 4.277 0 011.688-.34 3.93 3.93 0 011.64.344 4.065 4.065 0 011.312.936 4.263 4.263 0 01.864 1.416 5 5 0 01.312 1.784v.576h-6.208a2.34 2.34 0 00.864 1.264 2.437 2.437 0 001.5.48 2.951 2.951 0 001.024-.176 2.328 2.328 0 00.816-.5zm-3.616-5.632a1.953 1.953 0 00-1.3.456 2.349 2.349 0 00-.752 1.224h4.08a2.412 2.412 0 00-.76-1.208 1.9 1.9 0 00-1.268-.472zm9.664 4.912a2.482 2.482 0 001.044-.224 3.02 3.02 0 00.936-.7l1.312 1.36a4.471 4.471 0 01-1.536 1.1 4.584 4.584 0 01-1.852.384 4.434 4.434 0 01-1.72-.336 4.32 4.32 0 01-1.392-.912 4.2 4.2 0 01-.92-1.368 4.317 4.317 0 01-.336-1.7 4.317 4.317 0 01.336-1.7 4.3 4.3 0 01.92-1.376 4.253 4.253 0 011.392-.92 4.434 4.434 0 011.72-.348 4.773 4.773 0 011.9.392 4.434 4.434 0 011.552 1.1l-1.34 1.424a3.279 3.279 0 00-.96-.752 2.434 2.434 0 00-1.1-.256 2.08 2.08 0 00-1.592.7 2.457 2.457 0 00-.648 1.728 2.368 2.368 0 00.664 1.712 2.17 2.17 0 001.62.692zm3.728-2.4a4.23 4.23 0 01.344-1.7 4.276 4.276 0 01.944-1.376 4.418 4.418 0 011.416-.92 4.535 4.535 0 011.744-.344 4.535 4.535 0 011.744.336 4.418 4.418 0 011.416.92 4.276 4.276 0 01.944 1.376 4.23 4.23 0 01.344 1.7 4.23 4.23 0 01-.344 1.7 4.185 4.185 0 01-.944 1.368 4.489 4.489 0 01-1.416.912 4.535 4.535 0 01-1.744.348 4.535 4.535 0 01-1.744-.336 4.489 4.489 0 01-1.416-.912 4.185 4.185 0 01-.944-1.368 4.23 4.23 0 01-.344-1.704zm4.448 2.416a2.172 2.172 0 001.632-.7 2.388 2.388 0 00.672-1.712 2.408 2.408 0 00-.672-1.728 2.172 2.172 0 00-1.632-.7 2.172 2.172 0 00-1.632.7 2.408 2.408 0 00-.672 1.728 2.388 2.388 0 00.672 1.708 2.172 2.172 0 001.632.704zM583.624 34v-8.336h2.192v.656a3.467 3.467 0 011.064-.608 3.766 3.766 0 011.272-.212 3.207 3.207 0 012.368.928 3.227 3.227 0 01.928 2.384V34h-2.192v-4.864a1.725 1.725 0 00-.472-1.264 1.682 1.682 0 00-1.256-.48 2.2 2.2 0 00-.984.216 1.935 1.935 0 00-.728.616V34zm15.712 0v-.688a3.473 3.473 0 01-1.1.6 4.019 4.019 0 01-1.264.2 4.123 4.123 0 01-1.656-.336 4.317 4.317 0 01-1.352-.912 4.185 4.185 0 01-.9-1.36 4.308 4.308 0 01-.328-1.68 4.219 4.219 0 01.336-1.68 4.293 4.293 0 01.912-1.36 4.164 4.164 0 011.368-.9 4.367 4.367 0 011.688-.328 4.291 4.291 0 011.192.168 4.04 4.04 0 011.08.488V22.8l2.192-.48V34zm-4.448-4.176a2.33 2.33 0 00.7 1.712 2.349 2.349 0 001.728.7 2.888 2.888 0 001.112-.208 2.53 2.53 0 00.872-.588v-3.248a2.442 2.442 0 00-.872-.576 2.966 2.966 0 00-1.112-.208 2.356 2.356 0 00-1.736.7 2.337 2.337 0 00-.692 1.716zm10.976 4.32a3.293 3.293 0 01-2.192-.712 2.3 2.3 0 01-.848-1.848 2.178 2.178 0 01.912-1.856 4.157 4.157 0 012.512-.672 6.624 6.624 0 011.024.08 6.6 6.6 0 011.008.24v-.592a1.326 1.326 0 00-.448-1.084 2.025 2.025 0 00-1.312-.368 4.366 4.366 0 00-1.144.168 9.744 9.744 0 00-1.4.52l-.8-1.616a10.528 10.528 0 011.9-.672 7.657 7.657 0 011.812-.232 3.878 3.878 0 012.616.808 2.85 2.85 0 01.936 2.28V34h-2.16v-.576a3.912 3.912 0 01-1.112.544 4.511 4.511 0 01-1.304.176zm-.944-2.608a.872.872 0 00.416.76 1.946 1.946 0 001.1.28 3.488 3.488 0 001-.136 3.1 3.1 0 00.84-.392V30.8a3.989 3.989 0 00-.84-.232 5.692 5.692 0 00-.92-.072 2.119 2.119 0 00-1.176.28.868.868 0 00-.42.76zM612.1 34v-8.336h2.2v.912a2.645 2.645 0 01.968-.824 2.8 2.8 0 011.256-.28 4.156 4.156 0 01.536.056 1.122 1.122 0 01.376.136v1.92a2.267 2.267 0 00-.528-.168 3.1 3.1 0 00-.592-.056 2.252 2.252 0 00-1.176.32 2.189 2.189 0 00-.84.928V34zm8.928.384l.128-.3-3.244-8.42h2.416l2.064 5.68 2.368-5.68h2.368l-3.84 8.992A5.152 5.152 0 01621.8 36.8a3.569 3.569 0 01-2.208.64q-.288 0-.552-.024a2.227 2.227 0 01-.424-.072v-1.888a3.183 3.183 0 00.336.048q.176.016.432.016a1.69 1.69 0 001-.288 1.939 1.939 0 00.648-.848z" fill="#151515"/><g data-name="Secondary"><g data-name="Rectangle" transform="translate(335)" fill="none" stroke="#151515"><rect width="146" height="56" rx="3" stroke="none"/><rect x=".5" y=".5" width="145" height="55" rx="2.5"/></g><path data-name="Path 36" d="M367.048 32.224l1.328-1.664a7.444 7.444 0 001.88 1.24 4.755 4.755 0 001.912.392 3.15 3.15 0 001.664-.384 1.161 1.161 0 00.624-1.024 1.058 1.058 0 00-.424-.9 3.3 3.3 0 00-1.416-.48l-2.224-.38a3.822 3.822 0 01-2.184-1.008 2.732 2.732 0 01-.744-1.984 2.956 2.956 0 011.192-2.48 5.179 5.179 0 013.224-.912 7.687 7.687 0 012.456.416 7.074 7.074 0 012.164 1.152l-1.244 1.728a7 7 0 00-1.756-1.016 4.965 4.965 0 00-1.78-.328 2.819 2.819 0 00-1.488.344 1.042 1.042 0 00-.56.92.959.959 0 00.368.8 2.7 2.7 0 001.232.416l2.112.352a4.676 4.676 0 012.5 1.064 2.736 2.736 0 01.84 2.088 3.108 3.108 0 01-1.284 2.608 5.542 5.542 0 01-3.432.976 7.19 7.19 0 01-2.648-.512 7.5 7.5 0 01-2.312-1.424zm18.56.736a5.365 5.365 0 01-1.576.912 5.332 5.332 0 01-1.8.288 4.637 4.637 0 01-1.768-.336 4.467 4.467 0 01-1.424-.912 4.185 4.185 0 01-.94-1.368 4.23 4.23 0 01-.344-1.7 4.367 4.367 0 01.328-1.688 4.255 4.255 0 01.9-1.376 4.2 4.2 0 011.368-.92 4.277 4.277 0 011.688-.34 3.93 3.93 0 011.64.344 4.065 4.065 0 011.312.936 4.263 4.263 0 01.864 1.416 5 5 0 01.312 1.784v.576h-6.208a2.34 2.34 0 00.864 1.264 2.437 2.437 0 001.5.48 2.951 2.951 0 001.024-.176 2.328 2.328 0 00.816-.5zm-3.616-5.632a1.953 1.953 0 00-1.3.456 2.349 2.349 0 00-.752 1.224h4.08a2.412 2.412 0 00-.76-1.208 1.9 1.9 0 00-1.268-.472zm9.664 4.912a2.482 2.482 0 001.044-.224 3.02 3.02 0 00.936-.7l1.312 1.36a4.471 4.471 0 01-1.536 1.1 4.584 4.584 0 01-1.852.384 4.434 4.434 0 01-1.72-.336 4.32 4.32 0 01-1.392-.912 4.2 4.2 0 01-.92-1.368 4.317 4.317 0 01-.336-1.7 4.317 4.317 0 01.336-1.7 4.3 4.3 0 01.92-1.376 4.253 4.253 0 011.392-.92 4.434 4.434 0 011.72-.348 4.773 4.773 0 011.9.392 4.434 4.434 0 011.552 1.1l-1.34 1.424a3.279 3.279 0 00-.96-.752 2.434 2.434 0 00-1.1-.256 2.08 2.08 0 00-1.592.7 2.457 2.457 0 00-.648 1.728 2.368 2.368 0 00.664 1.712 2.17 2.17 0 001.62.692zm3.728-2.4a4.23 4.23 0 01.344-1.7 4.276 4.276 0 01.944-1.376 4.418 4.418 0 011.416-.92 4.535 4.535 0 011.744-.344 4.535 4.535 0 011.744.336 4.418 4.418 0 011.416.92 4.276 4.276 0 01.944 1.376 4.23 4.23 0 01.344 1.7 4.23 4.23 0 01-.344 1.7 4.185 4.185 0 01-.944 1.368 4.489 4.489 0 01-1.416.912 4.535 4.535 0 01-1.744.348 4.535 4.535 0 01-1.744-.336 4.489 4.489 0 01-1.416-.912 4.185 4.185 0 01-.944-1.368 4.23 4.23 0 01-.344-1.704zm4.448 2.416a2.172 2.172 0 001.632-.7 2.388 2.388 0 00.672-1.712 2.408 2.408 0 00-.672-1.728 2.172 2.172 0 00-1.632-.7 2.172 2.172 0 00-1.632.7 2.408 2.408 0 00-.672 1.728 2.388 2.388 0 00.672 1.708 2.172 2.172 0 001.632.704zM405.624 34v-8.336h2.192v.656a3.467 3.467 0 011.064-.608 3.766 3.766 0 011.272-.212 3.207 3.207 0 012.368.928 3.227 3.227 0 01.928 2.384V34h-2.192v-4.864a1.725 1.725 0 00-.472-1.264 1.682 1.682 0 00-1.256-.48 2.2 2.2 0 00-.984.216 1.935 1.935 0 00-.728.616V34zm15.712 0v-.688a3.473 3.473 0 01-1.1.6 4.019 4.019 0 01-1.264.2 4.123 4.123 0 01-1.656-.336 4.317 4.317 0 01-1.352-.912 4.185 4.185 0 01-.9-1.36 4.308 4.308 0 01-.328-1.68 4.219 4.219 0 01.336-1.68 4.293 4.293 0 01.912-1.36 4.164 4.164 0 011.368-.9 4.367 4.367 0 011.688-.328 4.291 4.291 0 011.192.168 4.04 4.04 0 011.08.488V22.8l2.192-.48V34zm-4.448-4.176a2.33 2.33 0 00.7 1.712 2.349 2.349 0 001.728.7 2.888 2.888 0 001.112-.208 2.53 2.53 0 00.872-.588v-3.248a2.442 2.442 0 00-.872-.576 2.966 2.966 0 00-1.112-.208 2.356 2.356 0 00-1.736.7 2.337 2.337 0 00-.692 1.716zm10.976 4.32a3.293 3.293 0 01-2.192-.712 2.3 2.3 0 01-.848-1.848 2.178 2.178 0 01.912-1.856 4.157 4.157 0 012.512-.672 6.624 6.624 0 011.024.08 6.6 6.6 0 011.008.24v-.592a1.326 1.326 0 00-.448-1.084 2.025 2.025 0 00-1.312-.368 4.366 4.366 0 00-1.144.168 9.744 9.744 0 00-1.4.52l-.8-1.616a10.528 10.528 0 011.9-.672 7.657 7.657 0 011.812-.232 3.878 3.878 0 012.616.808 2.85 2.85 0 01.936 2.28V34h-2.16v-.576a3.912 3.912 0 01-1.112.544 4.511 4.511 0 01-1.304.176zm-.944-2.608a.872.872 0 00.416.76 1.946 1.946 0 001.1.28 3.488 3.488 0 001-.136 3.1 3.1 0 00.84-.392V30.8a3.989 3.989 0 00-.84-.232 5.692 5.692 0 00-.92-.072 2.119 2.119 0 00-1.176.28.868.868 0 00-.42.76zM434.1 34v-8.336h2.2v.912a2.645 2.645 0 01.968-.824 2.8 2.8 0 011.256-.28 4.156 4.156 0 01.536.056 1.122 1.122 0 01.376.136v1.92a2.267 2.267 0 00-.528-.168 3.1 3.1 0 00-.592-.056 2.252 2.252 0 00-1.176.32 2.189 2.189 0 00-.84.928V34zm8.928.384l.128-.3-3.244-8.42h2.416l2.064 5.68 2.368-5.68h2.368l-3.84 8.992A5.152 5.152 0 01443.8 36.8a3.569 3.569 0 01-2.208.64q-.288 0-.552-.024a2.227 2.227 0 01-.424-.072v-1.888a3.183 3.183 0 00.336.048q.176.016.432.016a1.69 1.69 0 001-.288 1.939 1.939 0 00.648-.848z" fill="#151515"/></g><g data-name="Secondary"><g data-name="Rectangle" transform="translate(157)" fill="none" stroke="#151515"><rect width="146" height="56" rx="3" stroke="none"/><rect x=".5" y=".5" width="145" height="55" rx="2.5"/></g><path data-name="Path 37" d="M189.048 32.224l1.328-1.664a7.444 7.444 0 001.88 1.24 4.755 4.755 0 001.912.392 3.15 3.15 0 001.664-.384 1.161 1.161 0 00.624-1.024 1.058 1.058 0 00-.424-.9 3.3 3.3 0 00-1.416-.48l-2.224-.38a3.822 3.822 0 01-2.184-1.008 2.732 2.732 0 01-.744-1.984 2.956 2.956 0 011.192-2.48 5.179 5.179 0 013.224-.912 7.687 7.687 0 012.456.416 7.074 7.074 0 012.164 1.152l-1.244 1.728a7 7 0 00-1.756-1.016 4.965 4.965 0 00-1.78-.328 2.819 2.819 0 00-1.488.344 1.042 1.042 0 00-.56.92.959.959 0 00.368.8 2.7 2.7 0 001.232.416l2.112.352a4.676 4.676 0 012.5 1.064 2.736 2.736 0 01.84 2.088 3.108 3.108 0 01-1.284 2.608 5.542 5.542 0 01-3.432.976 7.19 7.19 0 01-2.648-.512 7.5 7.5 0 01-2.312-1.424zm18.56.736a5.365 5.365 0 01-1.576.912 5.332 5.332 0 01-1.8.288 4.637 4.637 0 01-1.768-.336 4.467 4.467 0 01-1.424-.912 4.185 4.185 0 01-.94-1.368 4.23 4.23 0 01-.344-1.7 4.367 4.367 0 01.328-1.688 4.255 4.255 0 01.9-1.376 4.2 4.2 0 011.368-.92 4.277 4.277 0 011.688-.34 3.93 3.93 0 011.64.344 4.065 4.065 0 011.312.936 4.263 4.263 0 01.864 1.416 5 5 0 01.312 1.784v.576h-6.208a2.34 2.34 0 00.864 1.264 2.437 2.437 0 001.5.48 2.951 2.951 0 001.024-.176 2.328 2.328 0 00.816-.5zm-3.616-5.632a1.953 1.953 0 00-1.3.456 2.349 2.349 0 00-.752 1.224h4.08a2.412 2.412 0 00-.76-1.208 1.9 1.9 0 00-1.268-.472zm9.664 4.912a2.482 2.482 0 001.044-.224 3.02 3.02 0 00.936-.7l1.312 1.36a4.471 4.471 0 01-1.536 1.1 4.584 4.584 0 01-1.852.384 4.434 4.434 0 01-1.72-.336 4.32 4.32 0 01-1.392-.912 4.2 4.2 0 01-.92-1.368 4.317 4.317 0 01-.336-1.7 4.317 4.317 0 01.336-1.7 4.3 4.3 0 01.92-1.376 4.253 4.253 0 011.392-.92 4.434 4.434 0 011.72-.348 4.773 4.773 0 011.9.392 4.434 4.434 0 011.552 1.1l-1.34 1.424a3.279 3.279 0 00-.96-.752 2.434 2.434 0 00-1.1-.256 2.08 2.08 0 00-1.592.7 2.457 2.457 0 00-.648 1.728 2.368 2.368 0 00.664 1.712 2.17 2.17 0 001.62.692zm3.728-2.4a4.23 4.23 0 01.344-1.7 4.276 4.276 0 01.944-1.376 4.418 4.418 0 011.416-.92 4.535 4.535 0 011.744-.344 4.535 4.535 0 011.744.336 4.418 4.418 0 011.416.92 4.276 4.276 0 01.944 1.376 4.23 4.23 0 01.344 1.7 4.23 4.23 0 01-.344 1.7 4.185 4.185 0 01-.944 1.368 4.489 4.489 0 01-1.416.912 4.535 4.535 0 01-1.744.348 4.535 4.535 0 01-1.744-.336 4.489 4.489 0 01-1.416-.912 4.185 4.185 0 01-.944-1.368 4.23 4.23 0 01-.344-1.704zm4.448 2.416a2.172 2.172 0 001.632-.7 2.388 2.388 0 00.672-1.712 2.408 2.408 0 00-.672-1.728 2.172 2.172 0 00-1.632-.7 2.172 2.172 0 00-1.632.7 2.408 2.408 0 00-.672 1.728 2.388 2.388 0 00.672 1.708 2.172 2.172 0 001.632.704zM227.624 34v-8.336h2.192v.656a3.467 3.467 0 011.064-.608 3.766 3.766 0 011.272-.212 3.207 3.207 0 012.368.928 3.227 3.227 0 01.928 2.384V34h-2.192v-4.864a1.725 1.725 0 00-.472-1.264 1.682 1.682 0 00-1.256-.48 2.2 2.2 0 00-.984.216 1.935 1.935 0 00-.728.616V34zm15.712 0v-.688a3.473 3.473 0 01-1.1.6 4.019 4.019 0 01-1.264.2 4.123 4.123 0 01-1.656-.336 4.317 4.317 0 01-1.352-.912 4.185 4.185 0 01-.9-1.36 4.308 4.308 0 01-.328-1.68 4.219 4.219 0 01.336-1.68 4.293 4.293 0 01.912-1.36 4.164 4.164 0 011.368-.9 4.367 4.367 0 011.688-.328 4.291 4.291 0 011.192.168 4.04 4.04 0 011.08.488V22.8l2.192-.48V34zm-4.448-4.176a2.33 2.33 0 00.7 1.712 2.349 2.349 0 001.728.7 2.888 2.888 0 001.112-.208 2.53 2.53 0 00.872-.588v-3.248a2.442 2.442 0 00-.872-.576 2.966 2.966 0 00-1.112-.208 2.356 2.356 0 00-1.736.7 2.337 2.337 0 00-.692 1.716zm10.976 4.32a3.293 3.293 0 01-2.192-.712 2.3 2.3 0 01-.848-1.848 2.178 2.178 0 01.912-1.856 4.157 4.157 0 012.512-.672 6.624 6.624 0 011.024.08 6.6 6.6 0 011.008.24v-.592a1.326 1.326 0 00-.448-1.084 2.025 2.025 0 00-1.312-.368 4.366 4.366 0 00-1.144.168 9.744 9.744 0 00-1.4.52l-.8-1.616a10.528 10.528 0 011.9-.672 7.657 7.657 0 011.812-.232 3.878 3.878 0 012.616.808 2.85 2.85 0 01.936 2.28V34h-2.16v-.576a3.912 3.912 0 01-1.112.544 4.511 4.511 0 01-1.304.176zm-.944-2.608a.872.872 0 00.416.76 1.946 1.946 0 001.1.28 3.488 3.488 0 001-.136 3.1 3.1 0 00.84-.392V30.8a3.989 3.989 0 00-.84-.232 5.692 5.692 0 00-.92-.072 2.119 2.119 0 00-1.176.28.868.868 0 00-.42.76zM256.1 34v-8.336h2.2v.912a2.645 2.645 0 01.968-.824 2.8 2.8 0 011.256-.28 4.156 4.156 0 01.536.056 1.122 1.122 0 01.376.136v1.92a2.267 2.267 0 00-.528-.168 3.1 3.1 0 00-.592-.056 2.252 2.252 0 00-1.176.32 2.189 2.189 0 00-.84.928V34zm8.928.384l.128-.3-3.244-8.42h2.416l2.064 5.68 2.368-5.68h2.368l-3.84 8.992A5.152 5.152 0 01265.8 36.8a3.569 3.569 0 01-2.208.64q-.288 0-.552-.024a2.227 2.227 0 01-.424-.072v-1.888a3.183 3.183 0 00.336.048q.176.016.432.016a1.69 1.69 0 001-.288 1.939 1.939 0 00.648-.848z" fill="#151515"/></g><g transform="translate(-424 -2304)"><rect data-name="Rectangle" width="125" height="56" rx="3" transform="translate(424 2304)" fill="#e00"/><path data-name="Path 38" d="M457.008 2338v-11.2h5.616a4.229 4.229 0 011.512.264 3.58 3.58 0 011.192.728 3.29 3.29 0 01.772 1.108 3.532 3.532 0 01.28 1.416 3.378 3.378 0 01-.28 1.384 3.278 3.278 0 01-.78 1.1 3.583 3.583 0 01-1.192.72 4.281 4.281 0 01-1.5.256h-3.3V2338zm5.36-9.2h-3.04v3.056h3.04a1.723 1.723 0 001.208-.416 1.422 1.422 0 00.456-1.1 1.448 1.448 0 00-.456-1.112 1.7 1.7 0 00-1.208-.428zm5.392 9.2v-8.336h2.192v.912a2.645 2.645 0 01.968-.824 2.8 2.8 0 011.256-.28 4.155 4.155 0 01.536.056 1.122 1.122 0 01.376.136v1.92a2.267 2.267 0 00-.528-.168 3.1 3.1 0 00-.592-.056 2.252 2.252 0 00-1.176.32 2.189 2.189 0 00-.84.928V2338zm7.6-9.328a1.2 1.2 0 01-.88-.368 1.2 1.2 0 01-.368-.88 1.2 1.2 0 01.368-.88 1.2 1.2 0 01.88-.368 1.2 1.2 0 01.88.368 1.2 1.2 0 01.368.88 1.2 1.2 0 01-.368.88 1.2 1.2 0 01-.88.368zm1.1.992V2338h-2.188v-8.336zm1.716 8.336v-8.336h2.192v.624a3.222 3.222 0 01.992-.588 3.406 3.406 0 011.184-.2 3.16 3.16 0 011.448.328 2.859 2.859 0 011.064.92 3.285 3.285 0 011.2-.928 3.707 3.707 0 011.552-.32 3.042 3.042 0 012.288.928 3.29 3.29 0 01.9 2.384V2338H488.8v-4.864a1.839 1.839 0 00-.424-1.264 1.449 1.449 0 00-1.144-.48 1.9 1.9 0 00-.9.216 2.014 2.014 0 00-.7.616l.032.288a2.756 2.756 0 01.016.3V2338h-2.192v-4.864a1.839 1.839 0 00-.424-1.264 1.449 1.449 0 00-1.144-.48 1.942 1.942 0 00-.88.192 1.969 1.969 0 00-.672.56V2338zm17.136.144a3.293 3.293 0 01-2.192-.712 2.3 2.3 0 01-.848-1.848 2.178 2.178 0 01.912-1.856 4.157 4.157 0 012.516-.672 6.624 6.624 0 011.024.08 6.6 6.6 0 011.008.24v-.592a1.326 1.326 0 00-.452-1.084 2.025 2.025 0 00-1.312-.368 4.366 4.366 0 00-1.144.168 9.744 9.744 0 00-1.4.52l-.8-1.616a10.528 10.528 0 011.9-.672 7.657 7.657 0 011.812-.232 3.878 3.878 0 012.616.808 2.85 2.85 0 01.936 2.28V2338h-2.16v-.576a3.912 3.912 0 01-1.112.544 4.511 4.511 0 01-1.304.176zm-.944-2.608a.872.872 0 00.416.76 1.946 1.946 0 001.1.28 3.488 3.488 0 001-.136 3.1 3.1 0 00.84-.392v-1.248a3.989 3.989 0 00-.84-.232 5.692 5.692 0 00-.92-.072 2.119 2.119 0 00-1.176.28.868.868 0 00-.42.76zm7.184 2.464v-8.336h2.192v.912a2.645 2.645 0 01.968-.824 2.8 2.8 0 011.256-.28 4.155 4.155 0 01.536.056 1.122 1.122 0 01.376.136v1.92a2.267 2.267 0 00-.528-.168 3.1 3.1 0 00-.592-.056 2.252 2.252 0 00-1.176.32 2.189 2.189 0 00-.84.928V2338zm8.928.384l.128-.3-3.248-8.42h2.416l2.064 5.68 2.368-5.68h2.368l-3.84 8.992a5.152 5.152 0 01-1.488 2.144 3.569 3.569 0 01-2.208.64q-.288 0-.552-.024a2.227 2.227 0 01-.424-.072v-1.888a3.183 3.183 0 00.336.044q.176.016.432.016a1.69 1.69 0 001-.288 1.939 1.939 0 00.648-.844z" fill="#fff"/></g></svg>