<svg xmlns="http://www.w3.org/2000/svg" width="872" height="120" viewBox="0 0 872 120">
  <g id="Outlined" transform="translate(-227 -5052)">
    <rect id="Rectangle" width="872" height="120" transform="translate(227 5052)" fill="none"/>
    <path id="Path" d="M.126,0H1.26L2.422-3.08H6.79L7.952,0H9.114L5.292-9.8H4ZM2.758-3.934l1.848-4.9,1.862,4.9ZM13.258-.8A2.478,2.478,0,0,1,10.85-3.416a2.48,2.48,0,0,1,2.394-2.6,2.685,2.685,0,0,1,1.932.854l.658-.714A3.727,3.727,0,0,0,13.2-6.944,3.412,3.412,0,0,0,9.828-3.416,3.424,3.424,0,0,0,13.2.126,3.553,3.553,0,0,0,15.792-.98l-.63-.63A2.516,2.516,0,0,1,13.258-.8Zm5.1-.742c0,1.092.616,1.666,1.792,1.666a3.837,3.837,0,0,0,1.19-.182v-.91a2.454,2.454,0,0,1-.966.182c-.714,0-.994-.294-.994-1.022V-5.992h1.96v-.84h-1.96V-8.946l-1.022.238v1.876H16.94v.84h1.414Zm5.138-6.972a.726.726,0,0,0,.728-.742.741.741,0,0,0-.728-.728.744.744,0,0,0-.742.728A.729.729,0,0,0,23.492-8.512Zm.5,1.68H22.974V0H24ZM28.2,0h.98L31.99-6.832H30.9L28.714-1.274,26.5-6.832H25.4ZM38.822-.784l-.644-.686a2.792,2.792,0,0,1-1.876.7,2.49,2.49,0,0,1-2.436-2.422h5.362V-3.5a3.228,3.228,0,0,0-3.136-3.444,3.325,3.325,0,0,0-3.22,3.528A3.41,3.41,0,0,0,36.26.126,3.989,3.989,0,0,0,38.822-.784ZM36.078-6.062A2.256,2.256,0,0,1,38.22-3.92H33.894A2.282,2.282,0,0,1,36.078-6.062Z" transform="translate(845 5168)" fill="#fff"/>
    <path id="Path-2" data-name="Path" d="M1.232,0H2.31V-4.452H7.938V0H9.016V-9.8H7.938v4.382H2.31V-9.8H1.232Zm9.884-3.416A3.384,3.384,0,0,0,14.434.14a3.378,3.378,0,0,0,3.332-3.556,3.353,3.353,0,0,0-3.332-3.528A3.351,3.351,0,0,0,11.116-3.416ZM14.434-.77A2.409,2.409,0,0,1,12.124-3.4a2.43,2.43,0,0,1,2.31-2.646A2.44,2.44,0,0,1,16.758-3.4,2.427,2.427,0,0,1,14.434-.77ZM21.448,0h.98l2.814-6.832H24.15L21.966-1.274,19.754-6.832H18.648ZM32.074-.784,31.43-1.47a2.792,2.792,0,0,1-1.876.7,2.49,2.49,0,0,1-2.436-2.422H32.48V-3.5a3.228,3.228,0,0,0-3.136-3.444,3.325,3.325,0,0,0-3.22,3.528A3.41,3.41,0,0,0,29.512.126,3.989,3.989,0,0,0,32.074-.784ZM29.33-6.062A2.256,2.256,0,0,1,31.472-3.92H27.146A2.282,2.282,0,0,1,29.33-6.062ZM34.37,0h1.022V-4.676a1.947,1.947,0,0,1,1.834-1.386,2.554,2.554,0,0,1,.714.126V-6.86a1.94,1.94,0,0,0-.644-.1,2.041,2.041,0,0,0-1.9,1.512V-6.832H34.37Z" transform="translate(695 5168)" fill="#fff"/>
    <path id="Path-3" data-name="Path" d="M1.246,0H2.324V-4.41H6.16v-.938H2.324V-8.862H7.938V-9.8H1.246ZM8.428-3.416A3.384,3.384,0,0,0,11.746.14a3.378,3.378,0,0,0,3.332-3.556,3.353,3.353,0,0,0-3.332-3.528A3.351,3.351,0,0,0,8.428-3.416ZM11.746-.77A2.409,2.409,0,0,1,9.436-3.4a2.43,2.43,0,0,1,2.31-2.646A2.44,2.44,0,0,1,14.07-3.4,2.427,2.427,0,0,1,11.746-.77Zm8.4-.028a2.478,2.478,0,0,1-2.408-2.618,2.48,2.48,0,0,1,2.394-2.6,2.685,2.685,0,0,1,1.932.854l.658-.714A3.727,3.727,0,0,0,20.09-6.944a3.412,3.412,0,0,0-3.374,3.528A3.424,3.424,0,0,0,20.09.126,3.553,3.553,0,0,0,22.68-.98l-.63-.63A2.516,2.516,0,0,1,20.146-.8Zm5.138-6.034H24.248v4.41A2.389,2.389,0,0,0,26.726.112,2.446,2.446,0,0,0,28.9-1.106V0h1.022V-6.832H28.9v5.054A2.028,2.028,0,0,1,27.1-.742a1.765,1.765,0,0,1-1.82-1.974ZM31.5-.882A3.9,3.9,0,0,0,34.272.126c1.512,0,2.66-.924,2.66-2.114,0-1.008-.616-1.582-1.988-1.834L33.8-4.032c-.882-.154-1.176-.42-1.176-.98,0-.672.588-1.092,1.484-1.092a3.624,3.624,0,0,1,2.142.728l.5-.714a4.417,4.417,0,0,0-2.6-.854c-1.442,0-2.464.826-2.464,2,0,.994.6,1.554,1.932,1.792l1.12.2c.868.168,1.232.462,1.232,1.022,0,.714-.728,1.232-1.722,1.232a3.563,3.563,0,0,1-2.2-.854Z" transform="translate(545 5168)" fill="#fff"/>
    <path id="Path-4" data-name="Path" d="M1.246,0H7.854V-.952H2.324V-9.8H1.246Zm8.96-8.512a.726.726,0,0,0,.728-.742.741.741,0,0,0-.728-.728.744.744,0,0,0-.742.728A.729.729,0,0,0,10.206-8.512Zm.5,1.68H9.688V0H10.71ZM12.95,0h1.022V-5.04a2.014,2.014,0,0,1,1.792-1.05A1.771,1.771,0,0,1,17.6-4.13V0H18.62V-4.424a2.378,2.378,0,0,0-2.478-2.52,2.462,2.462,0,0,0-2.17,1.218V-6.832H12.95Zm7.868,0H21.84V-3.262L25.13,0h1.344L22.848-3.584,26.32-6.832H25.088L21.84-3.766V-10.22l-1.022.21Z" transform="translate(395 5168)" fill="#fff"/>
    <g id="CTA_Default_Video_Light_blue" data-name="CTA / Default / Video / Light blue" transform="translate(845 5103)">
      <rect id="Rectangle-2" data-name="Rectangle" width="79" height="27" rx="3" fill="#bee1f4" opacity="0.15"/>
      <g id="Component">
        <g id="Play_light_blue_" data-name="Play (light blue)" transform="translate(59 4)">
          <path id="Path-5" data-name="Path" d="M32,42A10,10,0,1,1,42,32,10.029,10.029,0,0,1,32,42Zm0-18a8,8,0,1,0,8,8A8.024,8.024,0,0,0,32,24Z" transform="translate(-22 -22)" fill="#bee1f4"/>
          <path id="Path-6" data-name="Path" d="M37,32l-8,4V28Z" transform="translate(-22 -22)" fill="#bee1f4"/>
        </g>
        <g id="Text">
          <rect id="Rectangle-3" data-name="Rectangle" width="50.184" height="17.482" transform="translate(-0.072 4.698)" fill="none"/>
          <path id="Path-7" data-name="Path" d="M5.04,0H8.064l5.184-12.6h-2.7L6.606-2.646,2.754-12.6H-.072ZM15.372-10.494a1.406,1.406,0,0,0,1.4-1.4,1.406,1.406,0,0,0-1.4-1.4,1.406,1.406,0,0,0-1.4,1.4A1.406,1.406,0,0,0,15.372-10.494Zm1.242,1.116H14.148V0h2.466ZM25.542,0h2.43V-13.14l-2.466.54v3.834A4.661,4.661,0,0,0,22.95-9.5,4.768,4.768,0,0,0,18.108-4.7,4.756,4.756,0,0,0,22.878.126a4.253,4.253,0,0,0,2.664-.9Zm-5-4.7a2.664,2.664,0,0,1,2.736-2.718,3.1,3.1,0,0,1,2.232.882V-2.88a3.008,3.008,0,0,1-2.232.9A2.686,2.686,0,0,1,20.538-4.7ZM38.322-1.17,36.7-2.646a2.952,2.952,0,0,1-2.07.756,2.7,2.7,0,0,1-2.664-1.962h6.984V-4.5a4.733,4.733,0,0,0-4.644-5.04,4.787,4.787,0,0,0-4.824,4.86A4.882,4.882,0,0,0,34.524.18,5.622,5.622,0,0,0,38.322-1.17ZM34.254-7.506a2.419,2.419,0,0,1,2.286,1.89H31.95A2.355,2.355,0,0,1,34.254-7.506ZM40.1-4.68a4.873,4.873,0,0,0,5,4.86,4.873,4.873,0,0,0,5-4.86,4.888,4.888,0,0,0-5-4.878A4.888,4.888,0,0,0,40.1-4.68Zm5,2.718A2.634,2.634,0,0,1,42.516-4.68a2.638,2.638,0,0,1,2.592-2.736A2.627,2.627,0,0,1,47.7-4.68,2.634,2.634,0,0,1,45.108-1.962Z" transform="translate(0 20)" fill="#bee1f4"/>
        </g>
      </g>
    </g>
    <g id="CTA_Default_Video_Light_blue-2" data-name="CTA / Default / Video / Light blue" transform="translate(695 5103)">
      <g id="Component-2" data-name="Component">
        <g id="Play_light_blue_2" data-name="Play (light blue)" transform="translate(59 4)">
          <path id="Path-8" data-name="Path" d="M32,42A10,10,0,1,1,42,32,10.029,10.029,0,0,1,32,42Zm0-18a8,8,0,1,0,8,8A8.024,8.024,0,0,0,32,24Z" transform="translate(-22 -22)" fill="#bee1f4"/>
          <path id="Path-9" data-name="Path" d="M37,32l-8,4V28Z" transform="translate(-22 -22)" fill="#bee1f4"/>
        </g>
        <g id="Text-2" data-name="Text">
          <rect id="Rectangle-4" data-name="Rectangle" width="50.184" height="17.482" transform="translate(-0.072 4.698)" fill="none"/>
          <path id="Path-10" data-name="Path" d="M5.04,0H8.064l5.184-12.6h-2.7L6.606-2.646,2.754-12.6H-.072ZM15.372-10.494a1.406,1.406,0,0,0,1.4-1.4,1.406,1.406,0,0,0-1.4-1.4,1.406,1.406,0,0,0-1.4,1.4A1.406,1.406,0,0,0,15.372-10.494Zm1.242,1.116H14.148V0h2.466ZM25.542,0h2.43V-13.14l-2.466.54v3.834A4.661,4.661,0,0,0,22.95-9.5,4.768,4.768,0,0,0,18.108-4.7,4.756,4.756,0,0,0,22.878.126a4.253,4.253,0,0,0,2.664-.9Zm-5-4.7a2.664,2.664,0,0,1,2.736-2.718,3.1,3.1,0,0,1,2.232.882V-2.88a3.008,3.008,0,0,1-2.232.9A2.686,2.686,0,0,1,20.538-4.7ZM38.322-1.17,36.7-2.646a2.952,2.952,0,0,1-2.07.756,2.7,2.7,0,0,1-2.664-1.962h6.984V-4.5a4.733,4.733,0,0,0-4.644-5.04,4.787,4.787,0,0,0-4.824,4.86A4.882,4.882,0,0,0,34.524.18,5.622,5.622,0,0,0,38.322-1.17ZM34.254-7.506a2.419,2.419,0,0,1,2.286,1.89H31.95A2.355,2.355,0,0,1,34.254-7.506ZM40.1-4.68a4.873,4.873,0,0,0,5,4.86,4.873,4.873,0,0,0,5-4.86,4.888,4.888,0,0,0-5-4.878A4.888,4.888,0,0,0,40.1-4.68Zm5,2.718A2.634,2.634,0,0,1,42.516-4.68a2.638,2.638,0,0,1,2.592-2.736A2.627,2.627,0,0,1,47.7-4.68,2.634,2.634,0,0,1,45.108-1.962Z" transform="translate(0 20)" fill="#bee1f4"/>
        </g>
      </g>
    </g>
    <g id="CTA_Default_Video_Light_blue-3" data-name="CTA / Default / Video / Light blue" transform="translate(545 5103)">
      <rect id="Rectangle-5" data-name="Rectangle" width="79" height="27" rx="3" fill="#73bcf7" opacity="0.15"/>
      <g id="Component-3" data-name="Component">
        <g id="Play_light_blue_3" data-name="Play (light blue)" transform="translate(59 4)">
          <path id="Path-11" data-name="Path" d="M32,42A10,10,0,1,1,42,32,10.029,10.029,0,0,1,32,42Zm0-18a8,8,0,1,0,8,8A8.024,8.024,0,0,0,32,24Z" transform="translate(-22 -22)" fill="#73bcf7"/>
          <path id="Path-12" data-name="Path" d="M37,32l-8,4V28Z" transform="translate(-22 -22)" fill="#73bcf7"/>
        </g>
        <g id="Text-3" data-name="Text">
          <rect id="Rectangle-6" data-name="Rectangle" width="50.184" height="17.482" transform="translate(-0.072 4.698)" fill="none"/>
          <path id="Path-13" data-name="Path" d="M5.04,0H8.064l5.184-12.6h-2.7L6.606-2.646,2.754-12.6H-.072ZM15.372-10.494a1.406,1.406,0,0,0,1.4-1.4,1.406,1.406,0,0,0-1.4-1.4,1.406,1.406,0,0,0-1.4,1.4A1.406,1.406,0,0,0,15.372-10.494Zm1.242,1.116H14.148V0h2.466ZM25.542,0h2.43V-13.14l-2.466.54v3.834A4.661,4.661,0,0,0,22.95-9.5,4.768,4.768,0,0,0,18.108-4.7,4.756,4.756,0,0,0,22.878.126a4.253,4.253,0,0,0,2.664-.9Zm-5-4.7a2.664,2.664,0,0,1,2.736-2.718,3.1,3.1,0,0,1,2.232.882V-2.88a3.008,3.008,0,0,1-2.232.9A2.686,2.686,0,0,1,20.538-4.7ZM38.322-1.17,36.7-2.646a2.952,2.952,0,0,1-2.07.756,2.7,2.7,0,0,1-2.664-1.962h6.984V-4.5a4.733,4.733,0,0,0-4.644-5.04,4.787,4.787,0,0,0-4.824,4.86A4.882,4.882,0,0,0,34.524.18,5.622,5.622,0,0,0,38.322-1.17ZM34.254-7.506a2.419,2.419,0,0,1,2.286,1.89H31.95A2.355,2.355,0,0,1,34.254-7.506ZM40.1-4.68a4.873,4.873,0,0,0,5,4.86,4.873,4.873,0,0,0,5-4.86,4.888,4.888,0,0,0-5-4.878A4.888,4.888,0,0,0,40.1-4.68Zm5,2.718A2.634,2.634,0,0,1,42.516-4.68a2.638,2.638,0,0,1,2.592-2.736A2.627,2.627,0,0,1,47.7-4.68,2.634,2.634,0,0,1,45.108-1.962Z" transform="translate(0 20)" fill="#73bcf7"/>
        </g>
      </g>
    </g>
    <g id="CTA_Default_Video_Light_blue-4" data-name="CTA / Default / Video / Light blue" transform="translate(395 5103)">
      <g id="Component-4" data-name="Component">
        <g id="Play_light_blue_4" data-name="Play (light blue)" transform="translate(59 4)">
          <path id="Path-14" data-name="Path" d="M32,42A10,10,0,1,1,42,32,10.029,10.029,0,0,1,32,42Zm0-18a8,8,0,1,0,8,8A8.024,8.024,0,0,0,32,24Z" transform="translate(-22 -22)" fill="#73bcf7"/>
          <path id="Path-15" data-name="Path" d="M37,32l-8,4V28Z" transform="translate(-22 -22)" fill="#73bcf7"/>
        </g>
        <g id="Text-4" data-name="Text">
          <rect id="Rectangle-7" data-name="Rectangle" width="50.184" height="17.482" transform="translate(-0.072 4.698)" fill="none"/>
          <path id="Path-16" data-name="Path" d="M5.04,0H8.064l5.184-12.6h-2.7L6.606-2.646,2.754-12.6H-.072ZM15.372-10.494a1.406,1.406,0,0,0,1.4-1.4,1.406,1.406,0,0,0-1.4-1.4,1.406,1.406,0,0,0-1.4,1.4A1.406,1.406,0,0,0,15.372-10.494Zm1.242,1.116H14.148V0h2.466ZM25.542,0h2.43V-13.14l-2.466.54v3.834A4.661,4.661,0,0,0,22.95-9.5,4.768,4.768,0,0,0,18.108-4.7,4.756,4.756,0,0,0,22.878.126a4.253,4.253,0,0,0,2.664-.9Zm-5-4.7a2.664,2.664,0,0,1,2.736-2.718,3.1,3.1,0,0,1,2.232.882V-2.88a3.008,3.008,0,0,1-2.232.9A2.686,2.686,0,0,1,20.538-4.7ZM38.322-1.17,36.7-2.646a2.952,2.952,0,0,1-2.07.756,2.7,2.7,0,0,1-2.664-1.962h6.984V-4.5a4.733,4.733,0,0,0-4.644-5.04,4.787,4.787,0,0,0-4.824,4.86A4.882,4.882,0,0,0,34.524.18,5.622,5.622,0,0,0,38.322-1.17ZM34.254-7.506a2.419,2.419,0,0,1,2.286,1.89H31.95A2.355,2.355,0,0,1,34.254-7.506ZM40.1-4.68a4.873,4.873,0,0,0,5,4.86,4.873,4.873,0,0,0,5-4.86,4.888,4.888,0,0,0-5-4.878A4.888,4.888,0,0,0,40.1-4.68Zm5,2.718A2.634,2.634,0,0,1,42.516-4.68a2.638,2.638,0,0,1,2.592-2.736A2.627,2.627,0,0,1,47.7-4.68,2.634,2.634,0,0,1,45.108-1.962Z" transform="translate(0 20)" fill="#73bcf7"/>
        </g>
      </g>
    </g>
    <g id="CTA_Default_Light_blue_FTS" data-name="CTA / Default / Light blue / FTS" transform="translate(845 5052)">
      <rect id="Rectangle-8" data-name="Rectangle" width="86" height="27" rx="3" fill="#bee1f4" opacity="0.15"/>
      <g id="Component-5" data-name="Component">
        <g id="Arrow_light_blue_" data-name="Arrow (light blue)" transform="translate(72 7)">
          <path id="Arrow" d="M7,0,5.6,1.4,10.3,6H0V8H10.3L5.6,12.6,7,14l7-7Z" fill="#bee1f4"/>
        </g>
        <g id="Text-5" data-name="Text">
          <rect id="Rectangle-9" data-name="Rectangle" width="62.406" height="17.716" transform="translate(1.134 4.464)" fill="none"/>
          <path id="Path-17" data-name="Path" d="M1.134,0H5.976a6.376,6.376,0,0,0,6.66-6.264A6.4,6.4,0,0,0,5.976-12.6H1.134ZM5.958-10.278A3.942,3.942,0,0,1,9.936-6.264,3.915,3.915,0,0,1,5.958-2.322H3.744v-7.956Zm16.7,9.108-1.62-1.476a2.952,2.952,0,0,1-2.07.756,2.7,2.7,0,0,1-2.664-1.962h6.984V-4.5a4.733,4.733,0,0,0-4.644-5.04,4.787,4.787,0,0,0-4.824,4.86A4.882,4.882,0,0,0,18.864.18,5.622,5.622,0,0,0,22.662-1.17ZM18.594-7.506a2.419,2.419,0,0,1,2.286,1.89H16.29A2.355,2.355,0,0,1,18.594-7.506Zm5.2-1.872v2.07h2.088V0H28.35V-7.308h2.556v-2.07H28.35v-.846c0-.828.468-1.224,1.4-1.224a5.445,5.445,0,0,1,1.152.144v-2.07a6.023,6.023,0,0,0-1.458-.162c-2.3,0-3.564,1.152-3.564,3.258v.9ZM35.136.162a4.457,4.457,0,0,0,2.718-.81V0h2.43V-6.084c0-2.214-1.458-3.474-4-3.474A9.779,9.779,0,0,0,32.112-8.55l.9,1.818a7.267,7.267,0,0,1,2.862-.774c1.314,0,1.98.558,1.98,1.638V-5.2a7.585,7.585,0,0,0-2.286-.36c-2.412,0-3.852,1.062-3.852,2.844C31.716-1.008,33.12.162,35.136.162ZM34.074-2.772c0-.72.666-1.17,1.8-1.17a5.449,5.449,0,0,1,1.98.342v1.4a3.551,3.551,0,0,1-2.07.594C34.74-1.6,34.074-2.052,34.074-2.772ZM44.46-9.378H41.994v5.814A3.573,3.573,0,0,0,45.7.18a3.993,3.993,0,0,0,2.646-.936V0h2.466V-9.378H48.348v6.5a2.257,2.257,0,0,1-1.944.936,1.843,1.843,0,0,1-1.944-1.98ZM55.206-13.14l-2.466.54V0h2.466Zm3.2,10.494c0,1.836,1.08,2.79,3.168,2.79a7.651,7.651,0,0,0,1.908-.288V-2.16a3.794,3.794,0,0,1-1.314.216c-.954,0-1.3-.324-1.3-1.206V-7.308H63.54v-2.07H60.876V-12.33l-2.466.558v2.394H56.484v2.07H58.41Z" transform="translate(0 20)" fill="#bee1f4"/>
        </g>
      </g>
    </g>
    <g id="CTA_Default_Light_blue_FTS-2" data-name="CTA / Default / Light blue / FTS" transform="translate(695 5052)">
      <g id="Component-6" data-name="Component">
        <g id="Arrow_light_blue_2" data-name="Arrow (light blue)" transform="translate(72 7)">
          <path id="Arrow-2" data-name="Arrow" d="M7,0,5.6,1.4,10.3,6H0V8H10.3L5.6,12.6,7,14l7-7Z" fill="#bee1f4"/>
        </g>
        <g id="Text-6" data-name="Text">
          <rect id="Rectangle-10" data-name="Rectangle" width="62.406" height="17.716" transform="translate(1.134 4.464)" fill="none"/>
          <path id="Path-18" data-name="Path" d="M1.134,0H5.976a6.376,6.376,0,0,0,6.66-6.264A6.4,6.4,0,0,0,5.976-12.6H1.134ZM5.958-10.278A3.942,3.942,0,0,1,9.936-6.264,3.915,3.915,0,0,1,5.958-2.322H3.744v-7.956Zm16.7,9.108-1.62-1.476a2.952,2.952,0,0,1-2.07.756,2.7,2.7,0,0,1-2.664-1.962h6.984V-4.5a4.733,4.733,0,0,0-4.644-5.04,4.787,4.787,0,0,0-4.824,4.86A4.882,4.882,0,0,0,18.864.18,5.622,5.622,0,0,0,22.662-1.17ZM18.594-7.506a2.419,2.419,0,0,1,2.286,1.89H16.29A2.355,2.355,0,0,1,18.594-7.506Zm5.2-1.872v2.07h2.088V0H28.35V-7.308h2.556v-2.07H28.35v-.846c0-.828.468-1.224,1.4-1.224a5.445,5.445,0,0,1,1.152.144v-2.07a6.023,6.023,0,0,0-1.458-.162c-2.3,0-3.564,1.152-3.564,3.258v.9ZM35.136.162a4.457,4.457,0,0,0,2.718-.81V0h2.43V-6.084c0-2.214-1.458-3.474-4-3.474A9.779,9.779,0,0,0,32.112-8.55l.9,1.818a7.267,7.267,0,0,1,2.862-.774c1.314,0,1.98.558,1.98,1.638V-5.2a7.585,7.585,0,0,0-2.286-.36c-2.412,0-3.852,1.062-3.852,2.844C31.716-1.008,33.12.162,35.136.162ZM34.074-2.772c0-.72.666-1.17,1.8-1.17a5.449,5.449,0,0,1,1.98.342v1.4a3.551,3.551,0,0,1-2.07.594C34.74-1.6,34.074-2.052,34.074-2.772ZM44.46-9.378H41.994v5.814A3.573,3.573,0,0,0,45.7.18a3.993,3.993,0,0,0,2.646-.936V0h2.466V-9.378H48.348v6.5a2.257,2.257,0,0,1-1.944.936,1.843,1.843,0,0,1-1.944-1.98ZM55.206-13.14l-2.466.54V0h2.466Zm3.2,10.494c0,1.836,1.08,2.79,3.168,2.79a7.651,7.651,0,0,0,1.908-.288V-2.16a3.794,3.794,0,0,1-1.314.216c-.954,0-1.3-.324-1.3-1.206V-7.308H63.54v-2.07H60.876V-12.33l-2.466.558v2.394H56.484v2.07H58.41Z" transform="translate(0 20)" fill="#bee1f4"/>
        </g>
      </g>
    </g>
    <g id="CTA_Default_Light_blue_FTS-3" data-name="CTA / Default / Light blue / FTS" transform="translate(545 5052)">
      <rect id="Rectangle-11" data-name="Rectangle" width="86" height="27" rx="3" fill="#73bcf7" opacity="0.15"/>
      <g id="Component-7" data-name="Component">
        <g id="Arrow_light_blue_3" data-name="Arrow (light blue)" transform="translate(72 7)">
          <path id="Arrow-3" data-name="Arrow" d="M7,0,5.6,1.4,10.3,6H0V8H10.3L5.6,12.6,7,14l7-7Z" fill="#73bcf7"/>
        </g>
        <g id="Text-7" data-name="Text">
          <rect id="Rectangle-12" data-name="Rectangle" width="62.406" height="17.716" transform="translate(1.134 4.464)" fill="none"/>
          <path id="Path-19" data-name="Path" d="M1.134,0H5.976a6.376,6.376,0,0,0,6.66-6.264A6.4,6.4,0,0,0,5.976-12.6H1.134ZM5.958-10.278A3.942,3.942,0,0,1,9.936-6.264,3.915,3.915,0,0,1,5.958-2.322H3.744v-7.956Zm16.7,9.108-1.62-1.476a2.952,2.952,0,0,1-2.07.756,2.7,2.7,0,0,1-2.664-1.962h6.984V-4.5a4.733,4.733,0,0,0-4.644-5.04,4.787,4.787,0,0,0-4.824,4.86A4.882,4.882,0,0,0,18.864.18,5.622,5.622,0,0,0,22.662-1.17ZM18.594-7.506a2.419,2.419,0,0,1,2.286,1.89H16.29A2.355,2.355,0,0,1,18.594-7.506Zm5.2-1.872v2.07h2.088V0H28.35V-7.308h2.556v-2.07H28.35v-.846c0-.828.468-1.224,1.4-1.224a5.445,5.445,0,0,1,1.152.144v-2.07a6.023,6.023,0,0,0-1.458-.162c-2.3,0-3.564,1.152-3.564,3.258v.9ZM35.136.162a4.457,4.457,0,0,0,2.718-.81V0h2.43V-6.084c0-2.214-1.458-3.474-4-3.474A9.779,9.779,0,0,0,32.112-8.55l.9,1.818a7.267,7.267,0,0,1,2.862-.774c1.314,0,1.98.558,1.98,1.638V-5.2a7.585,7.585,0,0,0-2.286-.36c-2.412,0-3.852,1.062-3.852,2.844C31.716-1.008,33.12.162,35.136.162ZM34.074-2.772c0-.72.666-1.17,1.8-1.17a5.449,5.449,0,0,1,1.98.342v1.4a3.551,3.551,0,0,1-2.07.594C34.74-1.6,34.074-2.052,34.074-2.772ZM44.46-9.378H41.994v5.814A3.573,3.573,0,0,0,45.7.18a3.993,3.993,0,0,0,2.646-.936V0h2.466V-9.378H48.348v6.5a2.257,2.257,0,0,1-1.944.936,1.843,1.843,0,0,1-1.944-1.98ZM55.206-13.14l-2.466.54V0h2.466Zm3.2,10.494c0,1.836,1.08,2.79,3.168,2.79a7.651,7.651,0,0,0,1.908-.288V-2.16a3.794,3.794,0,0,1-1.314.216c-.954,0-1.3-.324-1.3-1.206V-7.308H63.54v-2.07H60.876V-12.33l-2.466.558v2.394H56.484v2.07H58.41Z" transform="translate(0 20)" fill="#73bcf7"/>
        </g>
      </g>
    </g>
    <g id="CTA_Default_Light_blue_FTS-4" data-name="CTA / Default / Light blue / FTS" transform="translate(395 5052)">
      <g id="Component-8" data-name="Component">
        <g id="Arrow_light_blue_4" data-name="Arrow (light blue)" transform="translate(72 7)">
          <path id="Arrow-4" data-name="Arrow" d="M7,0,5.6,1.4,10.3,6H0V8H10.3L5.6,12.6,7,14l7-7Z" fill="#73bcf7"/>
        </g>
        <g id="Text-8" data-name="Text">
          <rect id="Rectangle-13" data-name="Rectangle" width="62.406" height="17.716" transform="translate(1.134 4.464)" fill="none"/>
          <path id="Path-20" data-name="Path" d="M1.134,0H5.976a6.376,6.376,0,0,0,6.66-6.264A6.4,6.4,0,0,0,5.976-12.6H1.134ZM5.958-10.278A3.942,3.942,0,0,1,9.936-6.264,3.915,3.915,0,0,1,5.958-2.322H3.744v-7.956Zm16.7,9.108-1.62-1.476a2.952,2.952,0,0,1-2.07.756,2.7,2.7,0,0,1-2.664-1.962h6.984V-4.5a4.733,4.733,0,0,0-4.644-5.04,4.787,4.787,0,0,0-4.824,4.86A4.882,4.882,0,0,0,18.864.18,5.622,5.622,0,0,0,22.662-1.17ZM18.594-7.506a2.419,2.419,0,0,1,2.286,1.89H16.29A2.355,2.355,0,0,1,18.594-7.506Zm5.2-1.872v2.07h2.088V0H28.35V-7.308h2.556v-2.07H28.35v-.846c0-.828.468-1.224,1.4-1.224a5.445,5.445,0,0,1,1.152.144v-2.07a6.023,6.023,0,0,0-1.458-.162c-2.3,0-3.564,1.152-3.564,3.258v.9ZM35.136.162a4.457,4.457,0,0,0,2.718-.81V0h2.43V-6.084c0-2.214-1.458-3.474-4-3.474A9.779,9.779,0,0,0,32.112-8.55l.9,1.818a7.267,7.267,0,0,1,2.862-.774c1.314,0,1.98.558,1.98,1.638V-5.2a7.585,7.585,0,0,0-2.286-.36c-2.412,0-3.852,1.062-3.852,2.844C31.716-1.008,33.12.162,35.136.162ZM34.074-2.772c0-.72.666-1.17,1.8-1.17a5.449,5.449,0,0,1,1.98.342v1.4a3.551,3.551,0,0,1-2.07.594C34.74-1.6,34.074-2.052,34.074-2.772ZM44.46-9.378H41.994v5.814A3.573,3.573,0,0,0,45.7.18a3.993,3.993,0,0,0,2.646-.936V0h2.466V-9.378H48.348v6.5a2.257,2.257,0,0,1-1.944.936,1.843,1.843,0,0,1-1.944-1.98ZM55.206-13.14l-2.466.54V0h2.466Zm3.2,10.494c0,1.836,1.08,2.79,3.168,2.79a7.651,7.651,0,0,0,1.908-.288V-2.16a3.794,3.794,0,0,1-1.314.216c-.954,0-1.3-.324-1.3-1.206V-7.308H63.54v-2.07H60.876V-12.33l-2.466.558v2.394H56.484v2.07H58.41Z" transform="translate(0 20)" fill="#73bcf7"/>
        </g>
      </g>
    </g>
  </g>
</svg>
