<svg xmlns="http://www.w3.org/2000/svg" width="305" height="56" viewBox="0 0 305 56">
  <g id="Outlined" transform="translate(-231 -10433)">
    <g id="CTA_Primary_FTS" data-name="CTA / Primary / FTS" transform="translate(394 10433)">
      <rect id="Rectangle" width="142" height="56" rx="3" fill="#e00"/>
      <g id="Text" transform="translate(0 -2)">
        <rect id="Rectangle-2" data-name="Rectangle" width="77.088" height="18.264" transform="translate(33.008 22.176)" fill="none"/>
        <path id="Path" d="M1.008-11.2V0h5.52c2.352,0,3.92-1.3,3.92-3.248a2.823,2.823,0,0,0-1.76-2.528,2.763,2.763,0,0,0,1.376-2.352c0-1.824-1.536-3.072-3.792-3.072Zm5.12,1.92c.992,0,1.632.512,1.632,1.328S7.12-6.624,6.128-6.624h-2.8V-9.28Zm.224,7.36H3.328v-2.9H6.352c1.072,0,1.76.576,1.76,1.44C8.112-2.48,7.424-1.92,6.352-1.92Zm7.536-6.416H11.7v5.168A3.176,3.176,0,0,0,14.992.16a3.549,3.549,0,0,0,2.352-.832V0h2.192V-8.336H17.344V-2.56a2.006,2.006,0,0,1-1.728.832,1.638,1.638,0,0,1-1.728-1.76ZM23.5.384A1.678,1.678,0,0,1,21.856,1.52a3.438,3.438,0,0,1-.768-.064V3.344a4,4,0,0,0,.976.1c1.824,0,2.832-.768,3.7-2.784L29.6-8.336H27.232l-2.368,5.68L22.8-8.336H20.384L23.632.08ZM34.768-9.328a1.25,1.25,0,0,0,1.248-1.248,1.25,1.25,0,0,0-1.248-1.248,1.25,1.25,0,0,0-1.248,1.248A1.25,1.25,0,0,0,34.768-9.328Zm1.1.992H33.68V0h2.192ZM38.72-2.352c0,1.632.96,2.48,2.816,2.48a6.8,6.8,0,0,0,1.7-.256V-1.92a3.372,3.372,0,0,1-1.168.192c-.848,0-1.152-.288-1.152-1.072V-6.5H43.28v-1.84H40.912V-10.96l-2.192.5v2.128H37.008V-6.5H38.72ZM47.584,0h2.192V-5.776a2,2,0,0,1,1.712-.832,1.625,1.625,0,0,1,1.728,1.744V0h2.192V-5.184a3.163,3.163,0,0,0-3.3-3.312,3.578,3.578,0,0,0-2.336.816v-.656H47.584Zm9.1-4.16A4.332,4.332,0,0,0,61.136.16a4.332,4.332,0,0,0,4.448-4.32A4.345,4.345,0,0,0,61.136-8.5,4.345,4.345,0,0,0,56.688-4.16Zm4.448,2.416a2.341,2.341,0,0,1-2.3-2.416,2.345,2.345,0,0,1,2.3-2.432,2.335,2.335,0,0,1,2.3,2.432A2.341,2.341,0,0,1,61.136-1.744ZM70.464,0,72.08-5.328,73.7,0h2.1l2.3-8.336H76.048L74.672-2.944,73.024-8.336h-1.84L69.52-2.944,68.144-8.336h-2.08L68.352,0Z" transform="translate(32 36)" fill="#fff"/>
      </g>
    </g>
    <g id="CTA_Primary_FTS-2" data-name="CTA / Primary / FTS" transform="translate(231 10433)">
      <rect id="Rectangle-3" data-name="Rectangle" width="139" height="56" rx="3" fill="#e00"/>
      <g id="Text-2" data-name="Text" transform="translate(0 -2)">
        <rect id="Rectangle-4" data-name="Rectangle" width="73.808" height="18.472" transform="translate(32.288 21.968)" fill="none"/>
        <path id="Path-2" data-name="Path" d="M.288-9.152H4.064V0h2.32V-9.152h3.76V-11.2H.288ZM10.608,0H12.8V-5.392A2.206,2.206,0,0,1,14.816-6.64a2.8,2.8,0,0,1,1.12.224v-1.92a1.889,1.889,0,0,0-.912-.192,2.652,2.652,0,0,0-2.224,1.1v-.912H10.608Zm8.928.384A1.678,1.678,0,0,1,17.888,1.52a3.438,3.438,0,0,1-.768-.064V3.344a4,4,0,0,0,.976.1c1.824,0,2.832-.768,3.7-2.784l3.84-8.992H23.264L20.9-2.656l-2.064-5.68H16.416L19.664.08ZM30.8-9.328a1.25,1.25,0,0,0,1.248-1.248A1.25,1.25,0,0,0,30.8-11.824a1.25,1.25,0,0,0-1.248,1.248A1.25,1.25,0,0,0,30.8-9.328Zm1.1.992H29.712V0H31.9Zm2.848,5.984c0,1.632.96,2.48,2.816,2.48a6.8,6.8,0,0,0,1.7-.256V-1.92a3.372,3.372,0,0,1-1.168.192c-.848,0-1.152-.288-1.152-1.072V-6.5h2.368v-1.84H36.944V-10.96l-2.192.5v2.128H33.04V-6.5h1.712ZM43.04-8.336V-6.5H44.9V0h2.192V-6.5H49.36v-1.84H47.088v-.752c0-.736.416-1.088,1.248-1.088a4.84,4.84,0,0,1,1.024.128v-1.84a5.354,5.354,0,0,0-1.3-.144c-2.048,0-3.168,1.024-3.168,2.9v.8ZM50.512,0H52.7V-5.392A2.206,2.206,0,0,1,54.72-6.64a2.8,2.8,0,0,1,1.12.224v-1.92a1.889,1.889,0,0,0-.912-.192,2.652,2.652,0,0,0-2.224,1.1v-.912H50.512ZM64.1-1.04l-1.44-1.312a2.624,2.624,0,0,1-1.84.672,2.4,2.4,0,0,1-2.368-1.744h6.208V-4a4.207,4.207,0,0,0-4.128-4.48A4.255,4.255,0,0,0,56.24-4.16,4.34,4.34,0,0,0,60.72.16,5,5,0,0,0,64.1-1.04ZM60.48-6.672a2.151,2.151,0,0,1,2.032,1.68h-4.08A2.094,2.094,0,0,1,60.48-6.672ZM73.536-1.04,72.1-2.352a2.624,2.624,0,0,1-1.84.672,2.4,2.4,0,0,1-2.368-1.744H74.1V-4a4.207,4.207,0,0,0-4.128-4.48A4.255,4.255,0,0,0,65.68-4.16,4.34,4.34,0,0,0,70.16.16,5,5,0,0,0,73.536-1.04ZM69.92-6.672a2.151,2.151,0,0,1,2.032,1.68h-4.08A2.094,2.094,0,0,1,69.92-6.672Z" transform="translate(32 36)" fill="#fff"/>
      </g>
    </g>
  </g>
</svg>
