<svg xmlns="http://www.w3.org/2000/svg" width="1000" height="408" viewBox="0 0 1000 408">
  <g id="Example" transform="translate(-360 -7167)">
    <g id="Rectangle" transform="translate(360 7167)" fill="#fff" stroke="#d2d2d2" stroke-width="1">
      <rect width="1000" height="408" rx="3" stroke="none"/>
      <rect x="0.5" y="0.5" width="999" height="407" rx="2.5" fill="none"/>
    </g>
    <g id="Brick" transform="translate(725 5151)">
      <g id="Rectangle-2" data-name="Rectangle" transform="translate(377 2304)" fill="none" stroke="#d2d2d2" stroke-width="1">
        <rect width="194" height="56" rx="3" stroke="none"/>
        <rect x="0.5" y="0.5" width="193" height="55" rx="2.5" fill="none"/>
      </g>
      <path id="Path_16" data-name="Path 16" d="M1.424-11.2V0h4.7C8.384,0,9.76-1.28,9.76-3.1a2.781,2.781,0,0,0-2.416-2.72A2.585,2.585,0,0,0,9.328-8.352c0-1.7-1.3-2.848-3.376-2.848Zm4.464,1.056A1.945,1.945,0,0,1,8.1-8.224,1.945,1.945,0,0,1,5.888-6.3H2.656v-3.84Zm.144,9.088H2.656V-5.3H6.032c1.536,0,2.48.848,2.48,2.112S7.568-1.056,6.032-1.056ZM11.856,0h1.168V-5.344a2.2,2.2,0,0,1,2.1-1.584,2.768,2.768,0,0,1,.816.144V-7.84a2.3,2.3,0,0,0-.736-.112,2.321,2.321,0,0,0-2.176,1.7V-7.808H11.856Zm6.208-9.776a.83.83,0,0,0,.832-.848.826.826,0,0,0-.832-.832.826.826,0,0,0-.832.832A.83.83,0,0,0,18.064-9.776Zm.576,1.968H17.472V0H18.64Zm5.872,6.9A2.817,2.817,0,0,1,21.792-3.9a2.832,2.832,0,0,1,2.72-2.976,2.983,2.983,0,0,1,2.144.976l.752-.816A4.146,4.146,0,0,0,24.5-7.936,3.912,3.912,0,0,0,20.624-3.9,3.926,3.926,0,0,0,24.5.144,3.955,3.955,0,0,0,27.36-1.12l-.72-.72A2.791,2.791,0,0,1,24.512-.912ZM29.088,0h1.168V-3.728L34.016,0h1.552l-4.16-4.1,3.968-3.712H33.968l-3.712,3.52V-11.44l-1.168.24Z" transform="translate(456 2338)" fill="#06c"/>
    </g>
    <g id="Brick-2" data-name="Brick" transform="translate(499 5151)">
      <g id="Rectangle-3" data-name="Rectangle" transform="translate(377 2304)" fill="none" stroke="#d2d2d2" stroke-width="1">
        <rect width="194" height="56" rx="3" stroke="none"/>
        <rect x="0.5" y="0.5" width="193" height="55" rx="2.5" fill="none"/>
      </g>
      <path id="Path_17" data-name="Path 17" d="M1.424-11.2V0h4.7C8.384,0,9.76-1.28,9.76-3.1a2.781,2.781,0,0,0-2.416-2.72A2.585,2.585,0,0,0,9.328-8.352c0-1.7-1.3-2.848-3.376-2.848Zm4.464,1.056A1.945,1.945,0,0,1,8.1-8.224,1.945,1.945,0,0,1,5.888-6.3H2.656v-3.84Zm.144,9.088H2.656V-5.3H6.032c1.536,0,2.48.848,2.48,2.112S7.568-1.056,6.032-1.056ZM11.856,0h1.168V-5.344a2.2,2.2,0,0,1,2.1-1.584,2.768,2.768,0,0,1,.816.144V-7.84a2.3,2.3,0,0,0-.736-.112,2.321,2.321,0,0,0-2.176,1.7V-7.808H11.856Zm6.208-9.776a.83.83,0,0,0,.832-.848.826.826,0,0,0-.832-.832.826.826,0,0,0-.832.832A.83.83,0,0,0,18.064-9.776Zm.576,1.968H17.472V0H18.64Zm5.872,6.9A2.817,2.817,0,0,1,21.792-3.9a2.832,2.832,0,0,1,2.72-2.976,2.983,2.983,0,0,1,2.144.976l.752-.816A4.146,4.146,0,0,0,24.5-7.936,3.912,3.912,0,0,0,20.624-3.9,3.926,3.926,0,0,0,24.5.144,3.955,3.955,0,0,0,27.36-1.12l-.72-.72A2.791,2.791,0,0,1,24.512-.912ZM29.088,0h1.168V-3.728L34.016,0h1.552l-4.16-4.1,3.968-3.712H33.968l-3.712,3.52V-11.44l-1.168.24Z" transform="translate(456 2338)" fill="#06c"/>
    </g>
    <g id="Brick-3" data-name="Brick" transform="translate(273 5151)">
      <g id="Rectangle-4" data-name="Rectangle" transform="translate(377 2304)" fill="none" stroke="#d2d2d2" stroke-width="1">
        <rect width="194" height="56" rx="3" stroke="none"/>
        <rect x="0.5" y="0.5" width="193" height="55" rx="2.5" fill="none"/>
      </g>
      <path id="Path_18" data-name="Path 18" d="M1.424-11.2V0h4.7C8.384,0,9.76-1.28,9.76-3.1a2.781,2.781,0,0,0-2.416-2.72A2.585,2.585,0,0,0,9.328-8.352c0-1.7-1.3-2.848-3.376-2.848Zm4.464,1.056A1.945,1.945,0,0,1,8.1-8.224,1.945,1.945,0,0,1,5.888-6.3H2.656v-3.84Zm.144,9.088H2.656V-5.3H6.032c1.536,0,2.48.848,2.48,2.112S7.568-1.056,6.032-1.056ZM11.856,0h1.168V-5.344a2.2,2.2,0,0,1,2.1-1.584,2.768,2.768,0,0,1,.816.144V-7.84a2.3,2.3,0,0,0-.736-.112,2.321,2.321,0,0,0-2.176,1.7V-7.808H11.856Zm6.208-9.776a.83.83,0,0,0,.832-.848.826.826,0,0,0-.832-.832.826.826,0,0,0-.832.832A.83.83,0,0,0,18.064-9.776Zm.576,1.968H17.472V0H18.64Zm5.872,6.9A2.817,2.817,0,0,1,21.792-3.9a2.832,2.832,0,0,1,2.72-2.976,2.983,2.983,0,0,1,2.144.976l.752-.816A4.146,4.146,0,0,0,24.5-7.936,3.912,3.912,0,0,0,20.624-3.9,3.926,3.926,0,0,0,24.5.144,3.955,3.955,0,0,0,27.36-1.12l-.72-.72A2.791,2.791,0,0,1,24.512-.912ZM29.088,0h1.168V-3.728L34.016,0h1.552l-4.16-4.1,3.968-3.712H33.968l-3.712,3.52V-11.44l-1.168.24Z" transform="translate(456 2338)" fill="#06c"/>
    </g>
    <g id="Brick-4" data-name="Brick" transform="translate(47 5151)">
      <g id="Rectangle-5" data-name="Rectangle" transform="translate(377 2304)" fill="none" stroke="#d2d2d2" stroke-width="1">
        <rect width="194" height="56" rx="3" stroke="none"/>
        <rect x="0.5" y="0.5" width="193" height="55" rx="2.5" fill="none"/>
      </g>
      <path id="Path_19" data-name="Path 19" d="M1.424-11.2V0h4.7C8.384,0,9.76-1.28,9.76-3.1a2.781,2.781,0,0,0-2.416-2.72A2.585,2.585,0,0,0,9.328-8.352c0-1.7-1.3-2.848-3.376-2.848Zm4.464,1.056A1.945,1.945,0,0,1,8.1-8.224,1.945,1.945,0,0,1,5.888-6.3H2.656v-3.84Zm.144,9.088H2.656V-5.3H6.032c1.536,0,2.48.848,2.48,2.112S7.568-1.056,6.032-1.056ZM11.856,0h1.168V-5.344a2.2,2.2,0,0,1,2.1-1.584,2.768,2.768,0,0,1,.816.144V-7.84a2.3,2.3,0,0,0-.736-.112,2.321,2.321,0,0,0-2.176,1.7V-7.808H11.856Zm6.208-9.776a.83.83,0,0,0,.832-.848.826.826,0,0,0-.832-.832.826.826,0,0,0-.832.832A.83.83,0,0,0,18.064-9.776Zm.576,1.968H17.472V0H18.64Zm5.872,6.9A2.817,2.817,0,0,1,21.792-3.9a2.832,2.832,0,0,1,2.72-2.976,2.983,2.983,0,0,1,2.144.976l.752-.816A4.146,4.146,0,0,0,24.5-7.936,3.912,3.912,0,0,0,20.624-3.9,3.926,3.926,0,0,0,24.5.144,3.955,3.955,0,0,0,27.36-1.12l-.72-.72A2.791,2.791,0,0,1,24.512-.912ZM29.088,0h1.168V-3.728L34.016,0h1.552l-4.16-4.1,3.968-3.712H33.968l-3.712,3.52V-11.44l-1.168.24Z" transform="translate(456 2338)" fill="#06c"/>
    </g>
    <g id="Content">
      <rect id="Rectangle-6" data-name="Rectangle" width="872" height="1" transform="translate(424 7430)" fill="#d2d2d2"/>
      <rect id="Rectangle-7" data-name="Rectangle" width="872" height="1" transform="translate(424 7311)" fill="#d2d2d2"/>
      <g id="Polygon" transform="translate(726 7297)" fill="#fff">
        <path d="M 30.79289817810059 15.5 L 1.207099080085754 15.5 L 15.99999904632568 0.707099974155426 L 30.79289817810059 15.5 Z" stroke="none"/>
        <path d="M 15.99999904632568 1.414219856262207 L 2.414218902587891 15 L 29.58577919006348 15 L 15.99999904632568 1.414219856262207 M 15.99999904632568 0 L 32 16 L -1.9073486328125e-06 16 L 15.99999904632568 0 Z" stroke="none" fill="#d2d2d2"/>
      </g>
      <rect id="Rectangle-8" data-name="Rectangle" width="872" height="118" transform="translate(424 7312)" fill="#fff"/>
    </g>
    <g id="Brick-5" data-name="Brick" transform="translate(725 4927)">
      <g id="Rectangle-9" data-name="Rectangle" transform="translate(377 2304)" fill="none" stroke="#d2d2d2" stroke-width="1">
        <rect width="194" height="56" rx="3" stroke="none"/>
        <rect x="0.5" y="0.5" width="193" height="55" rx="2.5" fill="none"/>
      </g>
      <path id="Path_20" data-name="Path 20" d="M1.424-11.2V0h4.7C8.384,0,9.76-1.28,9.76-3.1a2.781,2.781,0,0,0-2.416-2.72A2.585,2.585,0,0,0,9.328-8.352c0-1.7-1.3-2.848-3.376-2.848Zm4.464,1.056A1.945,1.945,0,0,1,8.1-8.224,1.945,1.945,0,0,1,5.888-6.3H2.656v-3.84Zm.144,9.088H2.656V-5.3H6.032c1.536,0,2.48.848,2.48,2.112S7.568-1.056,6.032-1.056ZM11.856,0h1.168V-5.344a2.2,2.2,0,0,1,2.1-1.584,2.768,2.768,0,0,1,.816.144V-7.84a2.3,2.3,0,0,0-.736-.112,2.321,2.321,0,0,0-2.176,1.7V-7.808H11.856Zm6.208-9.776a.83.83,0,0,0,.832-.848.826.826,0,0,0-.832-.832.826.826,0,0,0-.832.832A.83.83,0,0,0,18.064-9.776Zm.576,1.968H17.472V0H18.64Zm5.872,6.9A2.817,2.817,0,0,1,21.792-3.9a2.832,2.832,0,0,1,2.72-2.976,2.983,2.983,0,0,1,2.144.976l.752-.816A4.146,4.146,0,0,0,24.5-7.936,3.912,3.912,0,0,0,20.624-3.9,3.926,3.926,0,0,0,24.5.144,3.955,3.955,0,0,0,27.36-1.12l-.72-.72A2.791,2.791,0,0,1,24.512-.912ZM29.088,0h1.168V-3.728L34.016,0h1.552l-4.16-4.1,3.968-3.712H33.968l-3.712,3.52V-11.44l-1.168.24Z" transform="translate(456 2338)" fill="#06c"/>
    </g>
    <g id="Brick-6" data-name="Brick" transform="translate(499 4927)">
      <g id="Rectangle-10" data-name="Rectangle" transform="translate(377 2304)" fill="none" stroke="#d2d2d2" stroke-width="1">
        <rect width="194" height="56" rx="3" stroke="none"/>
        <rect x="0.5" y="0.5" width="193" height="55" rx="2.5" fill="none"/>
      </g>
      <path id="Path_21" data-name="Path 21" d="M1.424-11.2V0h4.7C8.384,0,9.76-1.28,9.76-3.1a2.781,2.781,0,0,0-2.416-2.72A2.585,2.585,0,0,0,9.328-8.352c0-1.7-1.3-2.848-3.376-2.848Zm4.464,1.056A1.945,1.945,0,0,1,8.1-8.224,1.945,1.945,0,0,1,5.888-6.3H2.656v-3.84Zm.144,9.088H2.656V-5.3H6.032c1.536,0,2.48.848,2.48,2.112S7.568-1.056,6.032-1.056ZM11.856,0h1.168V-5.344a2.2,2.2,0,0,1,2.1-1.584,2.768,2.768,0,0,1,.816.144V-7.84a2.3,2.3,0,0,0-.736-.112,2.321,2.321,0,0,0-2.176,1.7V-7.808H11.856Zm6.208-9.776a.83.83,0,0,0,.832-.848.826.826,0,0,0-.832-.832.826.826,0,0,0-.832.832A.83.83,0,0,0,18.064-9.776Zm.576,1.968H17.472V0H18.64Zm5.872,6.9A2.817,2.817,0,0,1,21.792-3.9a2.832,2.832,0,0,1,2.72-2.976,2.983,2.983,0,0,1,2.144.976l.752-.816A4.146,4.146,0,0,0,24.5-7.936,3.912,3.912,0,0,0,20.624-3.9,3.926,3.926,0,0,0,24.5.144,3.955,3.955,0,0,0,27.36-1.12l-.72-.72A2.791,2.791,0,0,1,24.512-.912ZM29.088,0h1.168V-3.728L34.016,0h1.552l-4.16-4.1,3.968-3.712H33.968l-3.712,3.52V-11.44l-1.168.24Z" transform="translate(456 2338)" fill="#06c"/>
    </g>
    <g id="Brick-7" data-name="Brick" transform="translate(273 4927)">
      <g id="Rectangle-11" data-name="Rectangle" transform="translate(377 2304)" fill="#f0f0f0" stroke="#d2d2d2" stroke-width="1">
        <rect width="194" height="56" rx="3" stroke="none"/>
        <rect x="0.5" y="0.5" width="193" height="55" rx="2.5" fill="none"/>
      </g>
      <g id="Rectangle-12" data-name="Rectangle" transform="translate(379 2306)" fill="none" stroke="#d2d2d2" stroke-width="1">
        <rect width="190" height="52" rx="2" stroke="none"/>
        <rect x="0.5" y="0.5" width="189" height="51" rx="1.5" fill="none"/>
      </g>
      <path id="Path_22" data-name="Path 22" d="M1.424-11.2V0h4.7C8.384,0,9.76-1.28,9.76-3.1a2.781,2.781,0,0,0-2.416-2.72A2.585,2.585,0,0,0,9.328-8.352c0-1.7-1.3-2.848-3.376-2.848Zm4.464,1.056A1.945,1.945,0,0,1,8.1-8.224,1.945,1.945,0,0,1,5.888-6.3H2.656v-3.84Zm.144,9.088H2.656V-5.3H6.032c1.536,0,2.48.848,2.48,2.112S7.568-1.056,6.032-1.056ZM11.856,0h1.168V-5.344a2.2,2.2,0,0,1,2.1-1.584,2.768,2.768,0,0,1,.816.144V-7.84a2.3,2.3,0,0,0-.736-.112,2.321,2.321,0,0,0-2.176,1.7V-7.808H11.856Zm6.208-9.776a.83.83,0,0,0,.832-.848.826.826,0,0,0-.832-.832.826.826,0,0,0-.832.832A.83.83,0,0,0,18.064-9.776Zm.576,1.968H17.472V0H18.64Zm5.872,6.9A2.817,2.817,0,0,1,21.792-3.9a2.832,2.832,0,0,1,2.72-2.976,2.983,2.983,0,0,1,2.144.976l.752-.816A4.146,4.146,0,0,0,24.5-7.936,3.912,3.912,0,0,0,20.624-3.9,3.926,3.926,0,0,0,24.5.144,3.955,3.955,0,0,0,27.36-1.12l-.72-.72A2.791,2.791,0,0,1,24.512-.912ZM29.088,0h1.168V-3.728L34.016,0h1.552l-4.16-4.1,3.968-3.712H33.968l-3.712,3.52V-11.44l-1.168.24Z" transform="translate(456 2338)" fill="#004080"/>
    </g>
    <g id="Brick-8" data-name="Brick" transform="translate(47 4927)">
      <g id="Rectangle-13" data-name="Rectangle" transform="translate(377 2304)" fill="none" stroke="#d2d2d2" stroke-width="1">
        <rect width="194" height="56" rx="3" stroke="none"/>
        <rect x="0.5" y="0.5" width="193" height="55" rx="2.5" fill="none"/>
      </g>
      <path id="Path_23" data-name="Path 23" d="M1.424-11.2V0h4.7C8.384,0,9.76-1.28,9.76-3.1a2.781,2.781,0,0,0-2.416-2.72A2.585,2.585,0,0,0,9.328-8.352c0-1.7-1.3-2.848-3.376-2.848Zm4.464,1.056A1.945,1.945,0,0,1,8.1-8.224,1.945,1.945,0,0,1,5.888-6.3H2.656v-3.84Zm.144,9.088H2.656V-5.3H6.032c1.536,0,2.48.848,2.48,2.112S7.568-1.056,6.032-1.056ZM11.856,0h1.168V-5.344a2.2,2.2,0,0,1,2.1-1.584,2.768,2.768,0,0,1,.816.144V-7.84a2.3,2.3,0,0,0-.736-.112,2.321,2.321,0,0,0-2.176,1.7V-7.808H11.856Zm6.208-9.776a.83.83,0,0,0,.832-.848.826.826,0,0,0-.832-.832.826.826,0,0,0-.832.832A.83.83,0,0,0,18.064-9.776Zm.576,1.968H17.472V0H18.64Zm5.872,6.9A2.817,2.817,0,0,1,21.792-3.9a2.832,2.832,0,0,1,2.72-2.976,2.983,2.983,0,0,1,2.144.976l.752-.816A4.146,4.146,0,0,0,24.5-7.936,3.912,3.912,0,0,0,20.624-3.9,3.926,3.926,0,0,0,24.5.144,3.955,3.955,0,0,0,27.36-1.12l-.72-.72A2.791,2.791,0,0,1,24.512-.912ZM29.088,0h1.168V-3.728L34.016,0h1.552l-4.16-4.1,3.968-3.712H33.968l-3.712,3.52V-11.44l-1.168.24Z" transform="translate(456 2338)" fill="#06c"/>
    </g>
  </g>
</svg>
