<svg xmlns="http://www.w3.org/2000/svg" width="818" height="56" viewBox="0 0 818 56">
  <g id="Outlined" transform="translate(-338 -808)">
    <rect id="Rectangle" width="818" height="56" transform="translate(338 808)" fill="none"/>
    <g id="CTA_Default_Video_Light_blue" data-name="CTA / Default / Video / Light blue" transform="translate(1077 823)">
      <g id="Component">
        <g id="Play_light_blue_" data-name="Play (light blue)" transform="translate(59 4)">
          <path id="Path" d="M32,42A10,10,0,1,1,42,32,10.029,10.029,0,0,1,32,42Zm0-18a8,8,0,1,0,8,8A8.024,8.024,0,0,0,32,24Z" transform="translate(-22 -22)" fill="#73bcf7"/>
          <path id="Path-2" data-name="Path" d="M37,32l-8,4V28Z" transform="translate(-22 -22)" fill="#73bcf7"/>
        </g>
        <g id="Text">
          <rect id="Rectangle-2" data-name="Rectangle" width="50.184" height="17.482" transform="translate(-0.072 4.698)" fill="none"/>
          <path id="Path-3" data-name="Path" d="M5.04,0H8.064l5.184-12.6h-2.7L6.606-2.646,2.754-12.6H-.072ZM15.372-10.494a1.406,1.406,0,0,0,1.4-1.4,1.406,1.406,0,0,0-1.4-1.4,1.406,1.406,0,0,0-1.4,1.4A1.406,1.406,0,0,0,15.372-10.494Zm1.242,1.116H14.148V0h2.466ZM25.542,0h2.43V-13.14l-2.466.54v3.834A4.661,4.661,0,0,0,22.95-9.5,4.768,4.768,0,0,0,18.108-4.7,4.756,4.756,0,0,0,22.878.126a4.253,4.253,0,0,0,2.664-.9Zm-5-4.7a2.664,2.664,0,0,1,2.736-2.718,3.1,3.1,0,0,1,2.232.882V-2.88a3.008,3.008,0,0,1-2.232.9A2.686,2.686,0,0,1,20.538-4.7ZM38.322-1.17,36.7-2.646a2.952,2.952,0,0,1-2.07.756,2.7,2.7,0,0,1-2.664-1.962h6.984V-4.5a4.733,4.733,0,0,0-4.644-5.04,4.787,4.787,0,0,0-4.824,4.86A4.882,4.882,0,0,0,34.524.18,5.622,5.622,0,0,0,38.322-1.17ZM34.254-7.506a2.419,2.419,0,0,1,2.286,1.89H31.95A2.355,2.355,0,0,1,34.254-7.506ZM40.1-4.68a4.873,4.873,0,0,0,5,4.86,4.873,4.873,0,0,0,5-4.86,4.888,4.888,0,0,0-5-4.878A4.888,4.888,0,0,0,40.1-4.68Zm5,2.718A2.634,2.634,0,0,1,42.516-4.68a2.638,2.638,0,0,1,2.592-2.736A2.627,2.627,0,0,1,47.7-4.68,2.634,2.634,0,0,1,45.108-1.962Z" transform="translate(0 20)" fill="#73bcf7"/>
        </g>
      </g>
    </g>
    <g id="CTA_Default_Light_blue_FTS" data-name="CTA / Default / Light blue / FTS" transform="translate(967 823)">
      <g id="Component-2" data-name="Component">
        <g id="Arrow_light_blue_" data-name="Arrow (light blue)" transform="translate(72 7)">
          <path id="Arrow" d="M7,0,5.6,1.4,10.3,6H0V8H10.3L5.6,12.6,7,14l7-7Z" fill="#73bcf7"/>
        </g>
        <g id="Text-2" data-name="Text">
          <rect id="Rectangle-3" data-name="Rectangle" width="62.406" height="17.716" transform="translate(1.134 4.464)" fill="none"/>
          <path id="Path-4" data-name="Path" d="M1.134,0H5.976a6.376,6.376,0,0,0,6.66-6.264A6.4,6.4,0,0,0,5.976-12.6H1.134ZM5.958-10.278A3.942,3.942,0,0,1,9.936-6.264,3.915,3.915,0,0,1,5.958-2.322H3.744v-7.956Zm16.7,9.108-1.62-1.476a2.952,2.952,0,0,1-2.07.756,2.7,2.7,0,0,1-2.664-1.962h6.984V-4.5a4.733,4.733,0,0,0-4.644-5.04,4.787,4.787,0,0,0-4.824,4.86A4.882,4.882,0,0,0,18.864.18,5.622,5.622,0,0,0,22.662-1.17ZM18.594-7.506a2.419,2.419,0,0,1,2.286,1.89H16.29A2.355,2.355,0,0,1,18.594-7.506Zm5.2-1.872v2.07h2.088V0H28.35V-7.308h2.556v-2.07H28.35v-.846c0-.828.468-1.224,1.4-1.224a5.445,5.445,0,0,1,1.152.144v-2.07a6.023,6.023,0,0,0-1.458-.162c-2.3,0-3.564,1.152-3.564,3.258v.9ZM35.136.162a4.457,4.457,0,0,0,2.718-.81V0h2.43V-6.084c0-2.214-1.458-3.474-4-3.474A9.779,9.779,0,0,0,32.112-8.55l.9,1.818a7.267,7.267,0,0,1,2.862-.774c1.314,0,1.98.558,1.98,1.638V-5.2a7.585,7.585,0,0,0-2.286-.36c-2.412,0-3.852,1.062-3.852,2.844C31.716-1.008,33.12.162,35.136.162ZM34.074-2.772c0-.72.666-1.17,1.8-1.17a5.449,5.449,0,0,1,1.98.342v1.4a3.551,3.551,0,0,1-2.07.594C34.74-1.6,34.074-2.052,34.074-2.772ZM44.46-9.378H41.994v5.814A3.573,3.573,0,0,0,45.7.18a3.993,3.993,0,0,0,2.646-.936V0h2.466V-9.378H48.348v6.5a2.257,2.257,0,0,1-1.944.936,1.843,1.843,0,0,1-1.944-1.98ZM55.206-13.14l-2.466.54V0h2.466Zm3.2,10.494c0,1.836,1.08,2.79,3.168,2.79a7.651,7.651,0,0,0,1.908-.288V-2.16a3.794,3.794,0,0,1-1.314.216c-.954,0-1.3-.324-1.3-1.206V-7.308H63.54v-2.07H60.876V-12.33l-2.466.558v2.394H56.484v2.07H58.41Z" transform="translate(0 20)" fill="#73bcf7"/>
        </g>
      </g>
    </g>
    <g id="CTA_Secondary_White_FTS" data-name="CTA / Secondary / White / FTS" transform="translate(797 808)">
      <g id="Rectangle-4" data-name="Rectangle" fill="none" stroke="#fff" stroke-width="1">
        <rect width="146" height="56" rx="3" stroke="none"/>
        <rect x="0.5" y="0.5" width="145" height="55" rx="2.5" fill="none"/>
      </g>
      <g id="Text-3" data-name="Text">
        <rect id="Rectangle-5" data-name="Rectangle" width="82.08" height="18.12" transform="translate(32.048 20.32)" fill="none"/>
        <path id="Path-5" data-name="Path" d="M.048-1.776A7.425,7.425,0,0,0,5.008.16c2.88,0,4.72-1.392,4.72-3.584,0-1.728-1.1-2.784-3.344-3.152L4.272-6.928c-1.152-.176-1.6-.528-1.6-1.216,0-.768.8-1.264,2.048-1.264A5.7,5.7,0,0,1,8.256-8.064L9.5-9.792A7.781,7.781,0,0,0,4.88-11.36c-2.72,0-4.416,1.3-4.416,3.392,0,1.632,1.008,2.672,2.928,2.992l2.224.384c1.328.224,1.84.608,1.84,1.376,0,.864-.9,1.408-2.288,1.408A5.548,5.548,0,0,1,1.376-3.44Zm18.56.736-1.44-1.312a2.624,2.624,0,0,1-1.84.672A2.4,2.4,0,0,1,12.96-3.424h6.208V-4A4.207,4.207,0,0,0,15.04-8.48a4.255,4.255,0,0,0-4.288,4.32A4.34,4.34,0,0,0,15.232.16,5,5,0,0,0,18.608-1.04ZM14.992-6.672a2.151,2.151,0,0,1,2.032,1.68h-4.08A2.094,2.094,0,0,1,14.992-6.672ZM24.656-1.76a2.3,2.3,0,0,1-2.288-2.4,2.3,2.3,0,0,1,2.24-2.432,2.705,2.705,0,0,1,2.064,1.008l1.344-1.424A4.689,4.689,0,0,0,24.56-8.5,4.3,4.3,0,0,0,20.192-4.16,4.283,4.283,0,0,0,24.56.16a4.627,4.627,0,0,0,3.392-1.488L26.64-2.688A2.587,2.587,0,0,1,24.656-1.76Zm3.728-2.4A4.332,4.332,0,0,0,32.832.16,4.332,4.332,0,0,0,37.28-4.16,4.345,4.345,0,0,0,32.832-8.5,4.345,4.345,0,0,0,28.384-4.16Zm4.448,2.416a2.341,2.341,0,0,1-2.3-2.416,2.345,2.345,0,0,1,2.3-2.432,2.335,2.335,0,0,1,2.3,2.432A2.341,2.341,0,0,1,32.832-1.744ZM38.624,0h2.192V-5.776a2,2,0,0,1,1.712-.832,1.625,1.625,0,0,1,1.728,1.744V0h2.192V-5.184a3.163,3.163,0,0,0-3.3-3.312,3.578,3.578,0,0,0-2.336.816v-.656H38.624ZM54.336,0H56.5V-11.68L54.3-11.2v3.408a4.143,4.143,0,0,0-2.272-.656,4.238,4.238,0,0,0-4.3,4.272A4.228,4.228,0,0,0,51.968.112a3.78,3.78,0,0,0,2.368-.8ZM49.888-4.176A2.368,2.368,0,0,1,52.32-6.592a2.752,2.752,0,0,1,1.984.784V-2.56a2.674,2.674,0,0,1-1.984.8A2.388,2.388,0,0,1,49.888-4.176ZM60.864.144a3.962,3.962,0,0,0,2.416-.72V0h2.16V-5.408c0-1.968-1.3-3.088-3.552-3.088a8.692,8.692,0,0,0-3.712.9l.8,1.616a6.46,6.46,0,0,1,2.544-.688c1.168,0,1.76.5,1.76,1.456v.592a6.742,6.742,0,0,0-2.032-.32c-2.144,0-3.424.944-3.424,2.528C57.824-.9,59.072.144,60.864.144ZM59.92-2.464c0-.64.592-1.04,1.6-1.04a4.843,4.843,0,0,1,1.76.3v1.248a3.156,3.156,0,0,1-1.84.528C60.512-1.424,59.92-1.824,59.92-2.464ZM67.1,0H69.3V-5.392A2.206,2.206,0,0,1,71.312-6.64a2.8,2.8,0,0,1,1.12.224v-1.92a1.889,1.889,0,0,0-.912-.192,2.652,2.652,0,0,0-2.224,1.1v-.912H67.1Zm8.928.384A1.678,1.678,0,0,1,74.384,1.52a3.438,3.438,0,0,1-.768-.064V3.344a4,4,0,0,0,.976.1c1.824,0,2.832-.768,3.7-2.784l3.84-8.992H79.76l-2.368,5.68-2.064-5.68H72.912L76.16.08Z" transform="translate(32 34)" fill="#fff"/>
      </g>
    </g>
    <g id="CTA_Primary_White_FTS" data-name="CTA / Primary / White / FTS" transform="translate(648 808)">
      <rect id="Rectangle-6" data-name="Rectangle" width="125" height="56" rx="3" fill="#fff"/>
      <g id="Text-4" data-name="Text">
        <rect id="Rectangle-7" data-name="Rectangle" width="59.568" height="18.264" transform="translate(33.008 20.176)" fill="none"/>
        <path id="Path-6" data-name="Path" d="M1.008,0h2.32V-4.224h3.3a3.5,3.5,0,0,0,3.76-3.456,3.5,3.5,0,0,0-3.76-3.52H1.008Zm5.36-9.2A1.507,1.507,0,0,1,8.032-7.664a1.5,1.5,0,0,1-1.664,1.52H3.328V-9.2ZM11.76,0h2.192V-5.392A2.206,2.206,0,0,1,15.968-6.64a2.8,2.8,0,0,1,1.12.224v-1.92a1.889,1.889,0,0,0-.912-.192,2.652,2.652,0,0,0-2.224,1.1v-.912H11.76Zm7.6-9.328a1.25,1.25,0,0,0,1.248-1.248,1.25,1.25,0,0,0-1.248-1.248,1.25,1.25,0,0,0-1.248,1.248A1.25,1.25,0,0,0,19.36-9.328Zm1.1.992H18.272V0h2.192ZM22.176,0h2.192V-5.856a1.86,1.86,0,0,1,1.552-.752,1.556,1.556,0,0,1,1.568,1.744V0H29.68V-5.184a3.548,3.548,0,0,0-.048-.592,1.877,1.877,0,0,1,1.6-.832A1.556,1.556,0,0,1,32.8-4.864V0h2.192V-5.184A3.11,3.11,0,0,0,31.808-8.5a3.43,3.43,0,0,0-2.752,1.248A2.992,2.992,0,0,0,26.544-8.5a3.242,3.242,0,0,0-2.176.784v-.624H22.176ZM39.312.144a3.962,3.962,0,0,0,2.416-.72V0h2.16V-5.408c0-1.968-1.3-3.088-3.552-3.088a8.692,8.692,0,0,0-3.712.9l.8,1.616a6.46,6.46,0,0,1,2.544-.688c1.168,0,1.76.5,1.76,1.456v.592a6.742,6.742,0,0,0-2.032-.32c-2.144,0-3.424.944-3.424,2.528C36.272-.9,37.52.144,39.312.144Zm-.944-2.608c0-.64.592-1.04,1.6-1.04a4.843,4.843,0,0,1,1.76.3v1.248a3.156,3.156,0,0,1-1.84.528C38.96-1.424,38.368-1.824,38.368-2.464ZM45.552,0h2.192V-5.392A2.206,2.206,0,0,1,49.76-6.64a2.8,2.8,0,0,1,1.12.224v-1.92a1.889,1.889,0,0,0-.912-.192,2.652,2.652,0,0,0-2.224,1.1v-.912H45.552ZM54.48.384A1.678,1.678,0,0,1,52.832,1.52a3.438,3.438,0,0,1-.768-.064V3.344a4,4,0,0,0,.976.1c1.824,0,2.832-.768,3.7-2.784l3.84-8.992H58.208L55.84-2.656l-2.064-5.68H51.36L54.608.08Z" transform="translate(32 34)" fill="#151515"/>
      </g>
    </g>
    <g id="CTA_Primary_Video" data-name="CTA / Primary / Video" transform="translate(487 808)">
      <rect id="Rectangle-8" data-name="Rectangle" width="137" height="56" rx="3" fill="#e00"/>
      <g id="Text_and_icon" data-name="Text and icon" transform="translate(0 -2)">
        <g id="Play_White" data-name="Play / White" transform="translate(85 20)">
          <path id="Path-7" data-name="Path" d="M32,42A10,10,0,1,1,42,32,10.029,10.029,0,0,1,32,42Zm0-18a8,8,0,1,0,8,8A8.024,8.024,0,0,0,32,24Z" transform="translate(-22 -22)" fill="#fff"/>
          <path id="Path-8" data-name="Path" d="M37,32l-8,4V28Z" transform="translate(-22 -22)" fill="#fff"/>
        </g>
        <g id="Text-5" data-name="Text">
          <rect id="Rectangle-9" data-name="Rectangle" width="44.608" height="14.984" transform="translate(31.936 22.176)" fill="none"/>
          <path id="Path-9" data-name="Path" d="M4.48,0H7.168l4.608-11.2h-2.4l-3.5,8.848L2.448-11.2H-.064Zm9.184-9.328a1.25,1.25,0,0,0,1.248-1.248,1.25,1.25,0,0,0-1.248-1.248,1.25,1.25,0,0,0-1.248,1.248A1.25,1.25,0,0,0,13.664-9.328Zm1.1.992H12.576V0h2.192ZM22.7,0h2.16V-11.68l-2.192.48v3.408A4.143,4.143,0,0,0,20.4-8.448a4.238,4.238,0,0,0-4.3,4.272A4.228,4.228,0,0,0,20.336.112a3.78,3.78,0,0,0,2.368-.8ZM18.256-4.176a2.368,2.368,0,0,1,2.432-2.416,2.752,2.752,0,0,1,1.984.784V-2.56a2.674,2.674,0,0,1-1.984.8A2.388,2.388,0,0,1,18.256-4.176ZM34.064-1.04l-1.44-1.312a2.624,2.624,0,0,1-1.84.672,2.4,2.4,0,0,1-2.368-1.744h6.208V-4A4.207,4.207,0,0,0,30.5-8.48a4.255,4.255,0,0,0-4.288,4.32A4.34,4.34,0,0,0,30.688.16,5,5,0,0,0,34.064-1.04ZM30.448-6.672a2.151,2.151,0,0,1,2.032,1.68H28.4A2.094,2.094,0,0,1,30.448-6.672Zm5.2,2.512A4.332,4.332,0,0,0,40.1.16a4.332,4.332,0,0,0,4.448-4.32A4.345,4.345,0,0,0,40.1-8.5,4.345,4.345,0,0,0,35.648-4.16ZM40.1-1.744a2.341,2.341,0,0,1-2.3-2.416,2.345,2.345,0,0,1,2.3-2.432A2.335,2.335,0,0,1,42.4-4.16,2.341,2.341,0,0,1,40.1-1.744Z" transform="translate(32 36)" fill="#fff"/>
        </g>
      </g>
    </g>
    <g id="CTA_Primary_FTS" data-name="CTA / Primary / FTS" transform="translate(338 808)">
      <rect id="Rectangle-10" data-name="Rectangle" width="125" height="56" rx="3" fill="#e00"/>
      <g id="Text-6" data-name="Text" transform="translate(0 -2)">
        <rect id="Rectangle-11" data-name="Rectangle" width="59.568" height="18.264" transform="translate(33.008 22.176)" fill="none"/>
        <path id="Path-10" data-name="Path" d="M1.008,0h2.32V-4.224h3.3a3.5,3.5,0,0,0,3.76-3.456,3.5,3.5,0,0,0-3.76-3.52H1.008Zm5.36-9.2A1.507,1.507,0,0,1,8.032-7.664a1.5,1.5,0,0,1-1.664,1.52H3.328V-9.2ZM11.76,0h2.192V-5.392A2.206,2.206,0,0,1,15.968-6.64a2.8,2.8,0,0,1,1.12.224v-1.92a1.889,1.889,0,0,0-.912-.192,2.652,2.652,0,0,0-2.224,1.1v-.912H11.76Zm7.6-9.328a1.25,1.25,0,0,0,1.248-1.248,1.25,1.25,0,0,0-1.248-1.248,1.25,1.25,0,0,0-1.248,1.248A1.25,1.25,0,0,0,19.36-9.328Zm1.1.992H18.272V0h2.192ZM22.176,0h2.192V-5.856a1.86,1.86,0,0,1,1.552-.752,1.556,1.556,0,0,1,1.568,1.744V0H29.68V-5.184a3.548,3.548,0,0,0-.048-.592,1.877,1.877,0,0,1,1.6-.832A1.556,1.556,0,0,1,32.8-4.864V0h2.192V-5.184A3.11,3.11,0,0,0,31.808-8.5a3.43,3.43,0,0,0-2.752,1.248A2.992,2.992,0,0,0,26.544-8.5a3.242,3.242,0,0,0-2.176.784v-.624H22.176ZM39.312.144a3.962,3.962,0,0,0,2.416-.72V0h2.16V-5.408c0-1.968-1.3-3.088-3.552-3.088a8.692,8.692,0,0,0-3.712.9l.8,1.616a6.46,6.46,0,0,1,2.544-.688c1.168,0,1.76.5,1.76,1.456v.592a6.742,6.742,0,0,0-2.032-.32c-2.144,0-3.424.944-3.424,2.528C36.272-.9,37.52.144,39.312.144Zm-.944-2.608c0-.64.592-1.04,1.6-1.04a4.843,4.843,0,0,1,1.76.3v1.248a3.156,3.156,0,0,1-1.84.528C38.96-1.424,38.368-1.824,38.368-2.464ZM45.552,0h2.192V-5.392A2.206,2.206,0,0,1,49.76-6.64a2.8,2.8,0,0,1,1.12.224v-1.92a1.889,1.889,0,0,0-.912-.192,2.652,2.652,0,0,0-2.224,1.1v-.912H45.552ZM54.48.384A1.678,1.678,0,0,1,52.832,1.52a3.438,3.438,0,0,1-.768-.064V3.344a4,4,0,0,0,.976.1c1.824,0,2.832-.768,3.7-2.784l3.84-8.992H58.208L55.84-2.656l-2.064-5.68H51.36L54.608.08Z" transform="translate(32 36)" fill="#fff"/>
      </g>
    </g>
  </g>
</svg>
