<svg width="84" height="104" viewBox="0 0 84 104" fill="none" xmlns="http://www.w3.org/2000/svg">
<rect x="12" y="0.5" width="60" height="35" rx="2.5" stroke="#0066CC"/>
<path d="M29.174 24V12.8H36.822V13.888H30.406V17.808H34.854V18.88H30.406V22.912H36.886V24H29.174ZM41.7918 24.112C41.1198 24.112 40.5118 23.936 39.9678 23.584C39.4238 23.2213 38.9918 22.7413 38.6718 22.144C38.3518 21.536 38.1918 20.8587 38.1918 20.112C38.1918 19.3547 38.3518 18.6773 38.6718 18.08C39.0024 17.472 39.4451 16.992 39.9998 16.64C40.5544 16.2773 41.1731 16.096 41.8558 16.096C42.3358 16.096 42.7838 16.192 43.1998 16.384C43.6158 16.5653 43.9784 16.832 44.2878 17.184V12.448L45.4558 12.208V24H44.2878V22.96C43.9891 23.3333 43.6264 23.6213 43.1998 23.824C42.7731 24.016 42.3038 24.112 41.7918 24.112ZM42.0798 23.088C42.5384 23.088 42.9598 22.9973 43.3438 22.816C43.7278 22.6347 44.0424 22.3787 44.2878 22.048V18.176C44.0318 17.8453 43.7064 17.5893 43.3118 17.408C42.9278 17.216 42.5171 17.12 42.0798 17.12C41.5571 17.12 41.0878 17.248 40.6718 17.504C40.2664 17.76 39.9411 18.112 39.6957 18.56C39.4611 19.008 39.3438 19.52 39.3438 20.096C39.3438 20.6613 39.4611 21.1733 39.6957 21.632C39.9411 22.08 40.2664 22.4373 40.6718 22.704C41.0878 22.96 41.5571 23.088 42.0798 23.088ZM47.8403 24V16.192H49.0082V24H47.8403ZM48.4323 14.256C48.1976 14.256 47.9949 14.176 47.8243 14.016C47.6643 13.8453 47.5843 13.648 47.5843 13.424C47.5843 13.2 47.6643 13.008 47.8243 12.848C47.9949 12.6773 48.1976 12.592 48.4323 12.592C48.6669 12.592 48.8643 12.6773 49.0243 12.848C49.1949 13.008 49.2803 13.2 49.2803 13.424C49.2803 13.648 49.1949 13.8453 49.0243 14.016C48.8643 14.176 48.6669 14.256 48.4323 14.256ZM54.3791 24.16C53.7071 24.16 53.1951 24 52.8431 23.68C52.5018 23.3493 52.3311 22.8747 52.3311 22.256V17.152H50.7151V16.192H52.3311V14.048L53.4991 13.776V16.192H55.7391V17.152H53.4991V21.952C53.4991 22.368 53.5845 22.6667 53.7551 22.848C53.9365 23.0293 54.2298 23.12 54.6351 23.12C54.8378 23.12 55.0191 23.104 55.1791 23.072C55.3391 23.04 55.5258 22.9867 55.7391 22.912V23.952C55.5258 24.0267 55.3018 24.08 55.0671 24.112C54.8325 24.144 54.6031 24.16 54.3791 24.16Z" fill="#0066CC"/>
<rect y="68" width="84" height="36" rx="3" fill="#0066CC"/>
<path d="M21.4228 92.176C20.5481 92.176 19.7375 92.0213 18.9908 91.712C18.2441 91.392 17.5241 90.912 16.8308 90.272L17.5828 89.376C18.2548 90.0053 18.8841 90.4533 19.4708 90.72C20.0681 90.9867 20.7295 91.12 21.4548 91.12C22.0308 91.12 22.5428 91.024 22.9908 90.832C23.4495 90.6293 23.8068 90.3573 24.0628 90.016C24.3188 89.6747 24.4468 89.2853 24.4468 88.848C24.4468 88.2827 24.2601 87.856 23.8868 87.568C23.5135 87.2693 22.8681 87.04 21.9508 86.88L20.1428 86.576C19.1188 86.3947 18.3668 86.0853 17.8868 85.648C17.4175 85.2 17.1828 84.6027 17.1828 83.856C17.1828 83.2267 17.3428 82.672 17.6628 82.192C17.9935 81.7013 18.4468 81.3173 19.0228 81.04C19.5988 80.7627 20.2655 80.624 21.0228 80.624C21.8548 80.624 22.6281 80.7413 23.3428 80.976C24.0575 81.2 24.7615 81.5573 25.4548 82.048L24.8148 83.008C24.2388 82.5707 23.6308 82.24 22.9908 82.016C22.3508 81.7813 21.7001 81.664 21.0388 81.664C20.5161 81.664 20.0521 81.7547 19.6468 81.936C19.2521 82.1173 18.9375 82.3627 18.7028 82.672C18.4788 82.9813 18.3668 83.3333 18.3668 83.728C18.3668 84.2187 18.5321 84.6027 18.8628 84.88C19.1935 85.1573 19.7321 85.3547 20.4788 85.472L22.2708 85.776C23.4655 85.9893 24.3295 86.336 24.8628 86.816C25.4068 87.2853 25.6788 87.9413 25.6788 88.784C25.6788 89.4347 25.4921 90.016 25.1188 90.528C24.7561 91.04 24.2548 91.4453 23.6148 91.744C22.9748 92.032 22.2441 92.176 21.4228 92.176ZM30.3356 92.128C29.7809 92.128 29.2902 92.0053 28.8636 91.76C28.4369 91.5147 28.1009 91.1733 27.8556 90.736C27.6209 90.2987 27.5036 89.7973 27.5036 89.232V84.192H28.6876V88.896C28.6876 89.5893 28.8742 90.1387 29.2476 90.544C29.6209 90.9493 30.1276 91.152 30.7676 91.152C31.2049 91.152 31.5942 91.0507 31.9356 90.848C32.2876 90.6453 32.5809 90.352 32.8156 89.968V84.192H33.9836V92H32.8156V90.736C32.5169 91.1947 32.1596 91.5413 31.7436 91.776C31.3382 92.0107 30.8689 92.128 30.3356 92.128ZM36.3797 92V80.56L37.5477 80.32V85.264C37.8464 84.8907 38.209 84.6027 38.6357 84.4C39.0624 84.1973 39.537 84.096 40.0597 84.096C40.7424 84.096 41.3504 84.2773 41.8837 84.64C42.4277 84.992 42.8597 85.472 43.1797 86.08C43.4997 86.6773 43.6597 87.3493 43.6597 88.096C43.6597 88.8427 43.4944 89.52 43.1637 90.128C42.8437 90.736 42.4064 91.2213 41.8517 91.584C41.3077 91.936 40.689 92.112 39.9957 92.112C39.505 92.112 39.0464 92.016 38.6197 91.824C38.2037 91.6213 37.841 91.3387 37.5317 90.976V92H36.3797ZM39.7717 91.104C40.2944 91.104 40.7584 90.976 41.1637 90.72C41.5797 90.4533 41.905 90.096 42.1397 89.648C42.385 89.1893 42.5077 88.6773 42.5077 88.112C42.5077 87.536 42.385 87.024 42.1397 86.576C41.905 86.128 41.5797 85.776 41.1637 85.52C40.7584 85.2533 40.2944 85.12 39.7717 85.12C39.313 85.12 38.8864 85.216 38.4917 85.408C38.1077 85.5893 37.793 85.8507 37.5477 86.192V90.016C37.8037 90.3573 38.1237 90.624 38.5077 90.816C38.9024 91.008 39.3237 91.104 39.7717 91.104ZM45.7078 92V84.192H46.8758V85.408C47.1745 84.96 47.5158 84.624 47.8998 84.4C48.2838 84.176 48.7158 84.064 49.1958 84.064C49.7505 84.064 50.2358 84.2027 50.6518 84.48C51.0678 84.7467 51.3825 85.1147 51.5958 85.584C51.9051 85.0827 52.2731 84.704 52.6998 84.448C53.1371 84.192 53.6385 84.064 54.2038 84.064C54.7265 84.064 55.1851 84.1867 55.5798 84.432C55.9851 84.6773 56.2998 85.0187 56.5238 85.456C56.7478 85.8827 56.8598 86.384 56.8598 86.96V92H55.6918V87.248C55.6918 86.5653 55.5211 86.0267 55.1798 85.632C54.8385 85.2373 54.3691 85.04 53.7718 85.04C53.3665 85.04 52.9985 85.1413 52.6678 85.344C52.3478 85.5467 52.0651 85.856 51.8198 86.272C51.8411 86.3787 51.8571 86.4907 51.8678 86.608C51.8785 86.7253 51.8838 86.8427 51.8838 86.96V92H50.7158V87.248C50.7158 86.5653 50.5398 86.0267 50.1878 85.632C49.8465 85.2373 49.3771 85.04 48.7798 85.04C47.9798 85.04 47.3451 85.424 46.8758 86.192V92H45.7078ZM59.2074 92V84.192H60.3754V92H59.2074ZM59.7994 82.256C59.5648 82.256 59.3621 82.176 59.1914 82.016C59.0314 81.8453 58.9514 81.648 58.9514 81.424C58.9514 81.2 59.0314 81.008 59.1914 80.848C59.3621 80.6773 59.5648 80.592 59.7994 80.592C60.0341 80.592 60.2314 80.6773 60.3914 80.848C60.5621 81.008 60.6474 81.2 60.6474 81.424C60.6474 81.648 60.5621 81.8453 60.3914 82.016C60.2314 82.176 60.0341 82.256 59.7994 82.256ZM65.7463 92.16C65.0743 92.16 64.5623 92 64.2103 91.68C63.869 91.3493 63.6983 90.8747 63.6983 90.256V85.152H62.0823V84.192H63.6983V82.048L64.8663 81.776V84.192H67.1063V85.152H64.8663V89.952C64.8663 90.368 64.9516 90.6667 65.1223 90.848C65.3036 91.0293 65.597 91.12 66.0023 91.12C66.205 91.12 66.3863 91.104 66.5463 91.072C66.7063 91.04 66.893 90.9867 67.1063 90.912V91.952C66.893 92.0267 66.669 92.08 66.4343 92.112C66.1996 92.144 65.9703 92.16 65.7463 92.16Z" fill="white"/>
</svg>
