<svg width="240" height="104" viewBox="0 0 240 104" fill="none" xmlns="http://www.w3.org/2000/svg">
<rect width="127" height="36" rx="3" fill="#0066CC"/>
<path d="M23.0373 24.176C22.2373 24.176 21.4906 24.032 20.7973 23.744C20.1146 23.4453 19.512 23.0347 18.9893 22.512C18.4666 21.9787 18.0613 21.3653 17.7733 20.672C17.4853 19.968 17.3413 19.2107 17.3413 18.4C17.3413 17.5893 17.4853 16.8373 17.7733 16.144C18.0613 15.44 18.4666 14.8267 18.9893 14.304C19.512 13.7707 20.1146 13.36 20.7973 13.072C21.4906 12.7733 22.2373 12.624 23.0373 12.624C23.592 12.624 24.12 12.6987 24.6213 12.848C25.1333 12.9867 25.6133 13.1947 26.0613 13.472C26.5093 13.7387 26.9093 14.0693 27.2613 14.464L26.4453 15.312C26.0293 14.8107 25.5173 14.4267 24.9093 14.16C24.312 13.8827 23.688 13.744 23.0373 13.744C22.408 13.744 21.8213 13.8613 21.2773 14.096C20.7333 14.3307 20.2586 14.6613 19.8533 15.088C19.4586 15.5147 19.1493 16.0107 18.9253 16.576C18.7013 17.1307 18.5893 17.7387 18.5893 18.4C18.5893 19.0507 18.7013 19.6587 18.9253 20.224C19.1493 20.7893 19.4586 21.2853 19.8533 21.712C20.2586 22.1387 20.7333 22.4693 21.2773 22.704C21.8213 22.9387 22.408 23.056 23.0373 23.056C23.688 23.056 24.312 22.9173 24.9093 22.64C25.5173 22.3627 26.0293 21.9787 26.4453 21.488L27.2613 22.336C26.9093 22.7307 26.5093 23.0667 26.0613 23.344C25.6133 23.6107 25.1333 23.8187 24.6213 23.968C24.12 24.1067 23.592 24.176 23.0373 24.176ZM29.2547 24V16.192H30.4227V17.792C30.6254 17.248 30.9134 16.8267 31.2867 16.528C31.6707 16.2187 32.108 16.064 32.5987 16.064C32.7374 16.064 32.8654 16.0747 32.9827 16.096C33.1 16.1067 33.2174 16.1333 33.3347 16.176V17.232C33.2067 17.1893 33.068 17.1573 32.9187 17.136C32.78 17.104 32.6467 17.088 32.5187 17.088C32.0387 17.088 31.6174 17.2267 31.2547 17.504C30.9027 17.7813 30.6254 18.1707 30.4227 18.672V24H29.2547ZM37.9153 24.16C37.19 24.16 36.534 23.984 35.9473 23.632C35.3606 23.2693 34.8966 22.784 34.5553 22.176C34.214 21.5573 34.0433 20.864 34.0433 20.096C34.0433 19.328 34.2033 18.64 34.5233 18.032C34.854 17.424 35.2966 16.944 35.8513 16.592C36.406 16.24 37.0246 16.064 37.7073 16.064C38.4006 16.064 39.014 16.24 39.5473 16.592C40.0913 16.9333 40.518 17.4027 40.8273 18C41.1473 18.5867 41.3073 19.2533 41.3073 20V20.352H35.1793C35.222 20.8853 35.366 21.3653 35.6113 21.792C35.8673 22.208 36.198 22.5387 36.6033 22.784C37.0193 23.0187 37.4726 23.136 37.9633 23.136C38.3686 23.136 38.758 23.0667 39.1313 22.928C39.5153 22.7787 39.8406 22.5813 40.1073 22.336L40.8433 23.12C40.3953 23.472 39.9313 23.7333 39.4513 23.904C38.9713 24.0747 38.4593 24.16 37.9153 24.16ZM35.2113 19.52H40.1553C40.102 19.0507 39.958 18.6347 39.7233 18.272C39.4993 17.8987 39.2113 17.6053 38.8593 17.392C38.518 17.1787 38.134 17.072 37.7073 17.072C37.2806 17.072 36.8913 17.1787 36.5393 17.392C36.1873 17.5947 35.894 17.8827 35.6593 18.256C35.4353 18.6187 35.286 19.04 35.2113 19.52ZM45.5613 24.144C45.0066 24.144 44.516 24.0427 44.0893 23.84C43.6626 23.6373 43.3266 23.36 43.0813 23.008C42.8466 22.6453 42.7293 22.2293 42.7293 21.76C42.7293 21.2907 42.852 20.8853 43.0973 20.544C43.3426 20.192 43.684 19.92 44.1213 19.728C44.5586 19.536 45.0706 19.44 45.6573 19.44C46.1053 19.44 46.5266 19.488 46.9213 19.584C47.3266 19.68 47.7 19.8347 48.0413 20.048V18.976C48.0413 18.336 47.8706 17.856 47.5293 17.536C47.188 17.2053 46.6866 17.04 46.0253 17.04C45.6626 17.04 45.2893 17.0933 44.9053 17.2C44.532 17.3067 44.116 17.4773 43.6573 17.712L43.2253 16.816C44.2706 16.3147 45.252 16.064 46.1693 16.064C47.14 16.064 47.8866 16.304 48.4093 16.784C48.932 17.2533 49.1933 17.9307 49.1933 18.816V24H48.0413V23.088C47.7 23.44 47.3213 23.7067 46.9053 23.888C46.4893 24.0587 46.0413 24.144 45.5613 24.144ZM43.8493 21.728C43.8493 22.1867 44.0253 22.5547 44.3773 22.832C44.74 23.1093 45.2146 23.248 45.8013 23.248C46.2386 23.248 46.6386 23.1733 47.0013 23.024C47.3746 22.8747 47.7213 22.6507 48.0413 22.352V20.848C47.7106 20.656 47.3693 20.5173 47.0173 20.432C46.6653 20.336 46.2706 20.288 45.8333 20.288C45.236 20.288 44.756 20.4213 44.3933 20.688C44.0306 20.944 43.8493 21.2907 43.8493 21.728ZM54.3088 24.16C53.6368 24.16 53.1248 24 52.7728 23.68C52.4315 23.3493 52.2608 22.8747 52.2608 22.256V17.152H50.6448V16.192H52.2608V14.048L53.4288 13.776V16.192H55.6688V17.152H53.4288V21.952C53.4288 22.368 53.5141 22.6667 53.6848 22.848C53.8661 23.0293 54.1595 23.12 54.5648 23.12C54.7675 23.12 54.9488 23.104 55.1088 23.072C55.2688 23.04 55.4555 22.9867 55.6688 22.912V23.952C55.4555 24.0267 55.2315 24.08 54.9968 24.112C54.7621 24.144 54.5328 24.16 54.3088 24.16ZM60.7434 24.16C60.0181 24.16 59.3621 23.984 58.7754 23.632C58.1888 23.2693 57.7248 22.784 57.3834 22.176C57.0421 21.5573 56.8714 20.864 56.8714 20.096C56.8714 19.328 57.0314 18.64 57.3514 18.032C57.6821 17.424 58.1248 16.944 58.6794 16.592C59.2341 16.24 59.8528 16.064 60.5354 16.064C61.2288 16.064 61.8421 16.24 62.3754 16.592C62.9194 16.9333 63.3461 17.4027 63.6554 18C63.9754 18.5867 64.1354 19.2533 64.1354 20V20.352H58.0074C58.0501 20.8853 58.1941 21.3653 58.4394 21.792C58.6954 22.208 59.0261 22.5387 59.4314 22.784C59.8474 23.0187 60.3008 23.136 60.7914 23.136C61.1968 23.136 61.5861 23.0667 61.9594 22.928C62.3434 22.7787 62.6688 22.5813 62.9354 22.336L63.6714 23.12C63.2234 23.472 62.7594 23.7333 62.2794 23.904C61.7994 24.0747 61.2874 24.16 60.7434 24.16ZM58.0394 19.52H62.9834C62.9301 19.0507 62.7861 18.6347 62.5514 18.272C62.3274 17.8987 62.0394 17.6053 61.6874 17.392C61.3461 17.1787 60.9621 17.072 60.5354 17.072C60.1088 17.072 59.7194 17.1787 59.3674 17.392C59.0154 17.5947 58.7221 17.8827 58.4874 18.256C58.2634 18.6187 58.1141 19.04 58.0394 19.52ZM73.4801 27.504C72.9574 27.504 72.4294 27.4293 71.8961 27.28C71.3734 27.1413 70.8881 26.944 70.4401 26.688L70.9361 25.792C71.4161 26.0373 71.8534 26.2187 72.2481 26.336C72.6427 26.4533 73.0374 26.512 73.4321 26.512C74.1467 26.512 74.6854 26.3413 75.0481 26C75.4214 25.6587 75.6081 25.1627 75.6081 24.512V22.944C75.3094 23.3173 74.9467 23.6053 74.5201 23.808C74.0934 24 73.6241 24.096 73.1121 24.096C72.4401 24.096 71.8321 23.92 71.2881 23.568C70.7441 23.2053 70.3121 22.7253 69.9921 22.128C69.6721 21.52 69.5121 20.8427 69.5121 20.096C69.5121 19.3493 69.6721 18.6773 69.9921 18.08C70.3227 17.472 70.7654 16.992 71.3201 16.64C71.8747 16.2773 72.4934 16.096 73.1761 16.096C73.6667 16.096 74.1201 16.192 74.5361 16.384C74.9521 16.5653 75.3147 16.8373 75.6241 17.2V16.192H76.7761V24.496C76.7761 25.4667 76.4934 26.208 75.9281 26.72C75.3627 27.2427 74.5467 27.504 73.4801 27.504ZM73.4001 23.088C73.8587 23.088 74.2801 22.9973 74.6641 22.816C75.0481 22.624 75.3627 22.3627 75.6081 22.032V18.176C75.3521 17.8453 75.0267 17.5893 74.6321 17.408C74.2481 17.216 73.8374 17.12 73.4001 17.12C72.8774 17.12 72.4081 17.248 71.9921 17.504C71.5867 17.76 71.2614 18.112 71.0161 18.56C70.7814 19.008 70.6641 19.52 70.6641 20.096C70.6641 20.6613 70.7814 21.1733 71.0161 21.632C71.2614 22.08 71.5867 22.4373 71.9921 22.704C72.4081 22.96 72.8774 23.088 73.4001 23.088ZM79.1766 24V16.192H80.3446V17.792C80.5472 17.248 80.8352 16.8267 81.2086 16.528C81.5926 16.2187 82.0299 16.064 82.5206 16.064C82.6592 16.064 82.7872 16.0747 82.9046 16.096C83.0219 16.1067 83.1392 16.1333 83.2566 16.176V17.232C83.1286 17.1893 82.9899 17.1573 82.8406 17.136C82.7019 17.104 82.5686 17.088 82.4406 17.088C81.9606 17.088 81.5392 17.2267 81.1766 17.504C80.8246 17.7813 80.5472 18.1707 80.3446 18.672V24H79.1766ZM87.7732 24.128C87.0479 24.128 86.3972 23.952 85.8212 23.6C85.2452 23.248 84.7919 22.768 84.4612 22.16C84.1305 21.552 83.9652 20.864 83.9652 20.096C83.9652 19.328 84.1305 18.64 84.4612 18.032C84.7919 17.424 85.2452 16.944 85.8212 16.592C86.3972 16.24 87.0479 16.064 87.7732 16.064C88.4879 16.064 89.1279 16.24 89.6932 16.592C90.2692 16.944 90.7225 17.424 91.0532 18.032C91.3839 18.64 91.5492 19.328 91.5492 20.096C91.5492 20.864 91.3839 21.552 91.0532 22.16C90.7225 22.768 90.2692 23.248 89.6932 23.6C89.1279 23.952 88.4879 24.128 87.7732 24.128ZM87.7572 23.104C88.2692 23.104 88.7225 22.976 89.1172 22.72C89.5119 22.4533 89.8212 22.0907 90.0452 21.632C90.2799 21.1733 90.3972 20.6613 90.3972 20.096C90.3972 19.52 90.2799 19.008 90.0452 18.56C89.8212 18.1013 89.5119 17.744 89.1172 17.488C88.7225 17.2213 88.2692 17.088 87.7572 17.088C87.2452 17.088 86.7919 17.2213 86.3972 17.488C86.0025 17.744 85.6879 18.1013 85.4532 18.56C85.2292 19.008 85.1172 19.52 85.1172 20.096C85.1172 20.6613 85.2292 21.1733 85.4532 21.632C85.6879 22.0907 86.0025 22.4533 86.3972 22.72C86.7919 22.976 87.2452 23.104 87.7572 23.104ZM96.3824 24.128C95.8278 24.128 95.3371 24.0053 94.9104 23.76C94.4838 23.5147 94.1478 23.1733 93.9024 22.736C93.6678 22.2987 93.5504 21.7973 93.5504 21.232V16.192H94.7344V20.896C94.7344 21.5893 94.9211 22.1387 95.2944 22.544C95.6678 22.9493 96.1744 23.152 96.8144 23.152C97.2518 23.152 97.6411 23.0507 97.9824 22.848C98.3344 22.6453 98.6278 22.352 98.8624 21.968V16.192H100.03V24H98.8624V22.736C98.5638 23.1947 98.2064 23.5413 97.7904 23.776C97.3851 24.0107 96.9158 24.128 96.3824 24.128ZM102.427 27.344V16.192H103.579V17.312C103.877 16.9173 104.24 16.6187 104.667 16.416C105.104 16.2027 105.584 16.096 106.107 16.096C106.789 16.096 107.397 16.2773 107.931 16.64C108.475 16.992 108.907 17.472 109.227 18.08C109.547 18.6773 109.707 19.3493 109.707 20.096C109.707 20.8427 109.541 21.52 109.211 22.128C108.891 22.736 108.453 23.2213 107.899 23.584C107.355 23.936 106.736 24.112 106.043 24.112C105.552 24.112 105.099 24.0213 104.683 23.84C104.267 23.648 103.904 23.376 103.595 23.024V27.344H102.427ZM105.819 23.104C106.341 23.104 106.805 22.976 107.211 22.72C107.627 22.4533 107.952 22.096 108.187 21.648C108.432 21.1893 108.555 20.6773 108.555 20.112C108.555 19.536 108.432 19.024 108.187 18.576C107.952 18.128 107.627 17.776 107.211 17.52C106.805 17.2533 106.341 17.12 105.819 17.12C105.36 17.12 104.933 17.216 104.539 17.408C104.155 17.5893 103.84 17.8507 103.595 18.192V22.016C103.851 22.3573 104.171 22.624 104.555 22.816C104.949 23.008 105.371 23.104 105.819 23.104Z" fill="white"/>
<rect x="143" width="97" height="36" rx="3" fill="#0066CC"/>
<path d="M159.41 24L163.842 12.8H165.314L169.682 24H168.354L167.026 20.48H162.034L160.706 24H159.41ZM162.418 19.504H166.658L164.53 13.92L162.418 19.504ZM173.964 24.112C173.292 24.112 172.684 23.936 172.14 23.584C171.596 23.2213 171.164 22.7413 170.844 22.144C170.524 21.536 170.364 20.8587 170.364 20.112C170.364 19.3547 170.524 18.6773 170.844 18.08C171.174 17.472 171.617 16.992 172.172 16.64C172.726 16.2773 173.345 16.096 174.028 16.096C174.508 16.096 174.956 16.192 175.372 16.384C175.788 16.5653 176.15 16.832 176.46 17.184V12.448L177.628 12.208V24H176.46V22.96C176.161 23.3333 175.798 23.6213 175.372 23.824C174.945 24.016 174.476 24.112 173.964 24.112ZM174.252 23.088C174.71 23.088 175.132 22.9973 175.516 22.816C175.9 22.6347 176.214 22.3787 176.46 22.048V18.176C176.204 17.8453 175.878 17.5893 175.484 17.408C175.1 17.216 174.689 17.12 174.252 17.12C173.729 17.12 173.26 17.248 172.844 17.504C172.438 17.76 172.113 18.112 171.868 18.56C171.633 19.008 171.516 19.52 171.516 20.096C171.516 20.6613 171.633 21.1733 171.868 21.632C172.113 22.08 172.438 22.4373 172.844 22.704C173.26 22.96 173.729 23.088 174.252 23.088ZM183.276 24.112C182.604 24.112 181.996 23.936 181.452 23.584C180.908 23.2213 180.476 22.7413 180.156 22.144C179.836 21.536 179.676 20.8587 179.676 20.112C179.676 19.3547 179.836 18.6773 180.156 18.08C180.487 17.472 180.929 16.992 181.484 16.64C182.039 16.2773 182.657 16.096 183.34 16.096C183.82 16.096 184.268 16.192 184.684 16.384C185.1 16.5653 185.463 16.832 185.772 17.184V12.448L186.94 12.208V24H185.772V22.96C185.473 23.3333 185.111 23.6213 184.684 23.824C184.257 24.016 183.788 24.112 183.276 24.112ZM183.564 23.088C184.023 23.088 184.444 22.9973 184.828 22.816C185.212 22.6347 185.527 22.3787 185.772 22.048V18.176C185.516 17.8453 185.191 17.5893 184.796 17.408C184.412 17.216 184.001 17.12 183.564 17.12C183.041 17.12 182.572 17.248 182.156 17.504C181.751 17.76 181.425 18.112 181.18 18.56C180.945 19.008 180.828 19.52 180.828 20.096C180.828 20.6613 180.945 21.1733 181.18 21.632C181.425 22.08 181.751 22.4373 182.156 22.704C182.572 22.96 183.041 23.088 183.564 23.088ZM193.059 24V16.192H194.227V24H193.059ZM193.651 14.256C193.416 14.256 193.214 14.176 193.043 14.016C192.883 13.8453 192.803 13.648 192.803 13.424C192.803 13.2 192.883 13.008 193.043 12.848C193.214 12.6773 193.416 12.592 193.651 12.592C193.886 12.592 194.083 12.6773 194.243 12.848C194.414 13.008 194.499 13.2 194.499 13.424C194.499 13.648 194.414 13.8453 194.243 14.016C194.083 14.176 193.886 14.256 193.651 14.256ZM199.598 24.16C198.926 24.16 198.414 24 198.062 23.68C197.721 23.3493 197.55 22.8747 197.55 22.256V17.152H195.934V16.192H197.55V14.048L198.718 13.776V16.192H200.958V17.152H198.718V21.952C198.718 22.368 198.803 22.6667 198.974 22.848C199.155 23.0293 199.449 23.12 199.854 23.12C200.057 23.12 200.238 23.104 200.398 23.072C200.558 23.04 200.745 22.9867 200.958 22.912V23.952C200.745 24.0267 200.521 24.08 200.286 24.112C200.051 24.144 199.822 24.16 199.598 24.16ZM206.033 24.16C205.307 24.16 204.651 23.984 204.065 23.632C203.478 23.2693 203.014 22.784 202.673 22.176C202.331 21.5573 202.161 20.864 202.161 20.096C202.161 19.328 202.321 18.64 202.641 18.032C202.971 17.424 203.414 16.944 203.969 16.592C204.523 16.24 205.142 16.064 205.825 16.064C206.518 16.064 207.131 16.24 207.665 16.592C208.209 16.9333 208.635 17.4027 208.945 18C209.265 18.5867 209.425 19.2533 209.425 20V20.352H203.297C203.339 20.8853 203.483 21.3653 203.729 21.792C203.985 22.208 204.315 22.5387 204.721 22.784C205.137 23.0187 205.59 23.136 206.081 23.136C206.486 23.136 206.875 23.0667 207.249 22.928C207.633 22.7787 207.958 22.5813 208.225 22.336L208.961 23.12C208.513 23.472 208.049 23.7333 207.569 23.904C207.089 24.0747 206.577 24.16 206.033 24.16ZM203.329 19.52H208.273C208.219 19.0507 208.075 18.6347 207.841 18.272C207.617 17.8987 207.329 17.6053 206.977 17.392C206.635 17.1787 206.251 17.072 205.825 17.072C205.398 17.072 205.009 17.1787 204.657 17.392C204.305 17.5947 204.011 17.8827 203.777 18.256C203.553 18.6187 203.403 19.04 203.329 19.52ZM211.419 24V16.192H212.587V17.408C212.885 16.96 213.227 16.624 213.611 16.4C213.995 16.176 214.427 16.064 214.907 16.064C215.461 16.064 215.947 16.2027 216.363 16.48C216.779 16.7467 217.093 17.1147 217.307 17.584C217.616 17.0827 217.984 16.704 218.411 16.448C218.848 16.192 219.349 16.064 219.915 16.064C220.437 16.064 220.896 16.1867 221.291 16.432C221.696 16.6773 222.011 17.0187 222.235 17.456C222.459 17.8827 222.571 18.384 222.571 18.96V24H221.403V19.248C221.403 18.5653 221.232 18.0267 220.891 17.632C220.549 17.2373 220.08 17.04 219.483 17.04C219.077 17.04 218.709 17.1413 218.379 17.344C218.059 17.5467 217.776 17.856 217.531 18.272C217.552 18.3787 217.568 18.4907 217.579 18.608C217.589 18.7253 217.595 18.8427 217.595 18.96V24H216.427V19.248C216.427 18.5653 216.251 18.0267 215.899 17.632C215.557 17.2373 215.088 17.04 214.491 17.04C213.691 17.04 213.056 17.424 212.587 18.192V24H211.419Z" fill="white"/>
<rect x="31" y="68" width="80" height="36" rx="3" fill="#B1380B"/>
<path d="M49.8669 90.896H52.4269C53.2376 90.896 53.9629 90.6987 54.6029 90.304C55.2429 89.9093 55.7496 89.376 56.1229 88.704C56.5069 88.0213 56.6989 87.2533 56.6989 86.4C56.6989 85.5467 56.5069 84.784 56.1229 84.112C55.7496 83.4293 55.2429 82.8907 54.6029 82.496C53.9629 82.1013 53.2376 81.904 52.4269 81.904H49.8669V90.896ZM48.6349 92V80.8H52.3469C53.1683 80.8 53.9203 80.944 54.6029 81.232C55.2963 81.5093 55.8883 81.904 56.3789 82.416C56.8803 82.9173 57.2643 83.5093 57.5309 84.192C57.8083 84.864 57.9469 85.6 57.9469 86.4C57.9469 87.2 57.8083 87.9413 57.5309 88.624C57.2643 89.296 56.8803 89.888 56.3789 90.4C55.8883 90.9013 55.2963 91.296 54.6029 91.584C53.9203 91.8613 53.1683 92 52.3469 92H48.6349ZM63.5716 92.16C62.8462 92.16 62.1902 91.984 61.6036 91.632C61.0169 91.2693 60.5529 90.784 60.2116 90.176C59.8702 89.5573 59.6996 88.864 59.6996 88.096C59.6996 87.328 59.8596 86.64 60.1796 86.032C60.5102 85.424 60.9529 84.944 61.5076 84.592C62.0622 84.24 62.6809 84.064 63.3636 84.064C64.0569 84.064 64.6702 84.24 65.2036 84.592C65.7476 84.9333 66.1742 85.4027 66.4836 86C66.8036 86.5867 66.9636 87.2533 66.9636 88V88.352H60.8356C60.8782 88.8853 61.0222 89.3653 61.2676 89.792C61.5236 90.208 61.8542 90.5387 62.2596 90.784C62.6756 91.0187 63.1289 91.136 63.6196 91.136C64.0249 91.136 64.4142 91.0667 64.7876 90.928C65.1716 90.7787 65.4969 90.5813 65.7636 90.336L66.4996 91.12C66.0516 91.472 65.5876 91.7333 65.1076 91.904C64.6276 92.0747 64.1156 92.16 63.5716 92.16ZM60.8676 87.52H65.8116C65.7582 87.0507 65.6142 86.6347 65.3796 86.272C65.1556 85.8987 64.8676 85.6053 64.5156 85.392C64.1742 85.1787 63.7902 85.072 63.3636 85.072C62.9369 85.072 62.5476 85.1787 62.1956 85.392C61.8436 85.5947 61.5502 85.8827 61.3156 86.256C61.0916 86.6187 60.9422 87.04 60.8676 87.52ZM68.9578 92V80.448L70.1258 80.208V92H68.9578ZM76.0403 92.16C75.315 92.16 74.659 91.984 74.0723 91.632C73.4856 91.2693 73.0216 90.784 72.6803 90.176C72.339 89.5573 72.1683 88.864 72.1683 88.096C72.1683 87.328 72.3283 86.64 72.6483 86.032C72.979 85.424 73.4216 84.944 73.9763 84.592C74.531 84.24 75.1496 84.064 75.8323 84.064C76.5256 84.064 77.139 84.24 77.6723 84.592C78.2163 84.9333 78.643 85.4027 78.9523 86C79.2723 86.5867 79.4323 87.2533 79.4323 88V88.352H73.3043C73.347 88.8853 73.491 89.3653 73.7363 89.792C73.9923 90.208 74.323 90.5387 74.7283 90.784C75.1443 91.0187 75.5976 91.136 76.0883 91.136C76.4936 91.136 76.883 91.0667 77.2563 90.928C77.6403 90.7787 77.9656 90.5813 78.2323 90.336L78.9683 91.12C78.5203 91.472 78.0563 91.7333 77.5763 91.904C77.0963 92.0747 76.5843 92.16 76.0403 92.16ZM73.3363 87.52H78.2803C78.227 87.0507 78.083 86.6347 77.8483 86.272C77.6243 85.8987 77.3363 85.6053 76.9843 85.392C76.643 85.1787 76.259 85.072 75.8323 85.072C75.4056 85.072 75.0163 85.1787 74.6643 85.392C74.3123 85.5947 74.019 85.8827 73.7843 86.256C73.5603 86.6187 73.411 87.04 73.3363 87.52ZM84.1682 92.16C83.4962 92.16 82.9842 92 82.6322 91.68C82.2909 91.3493 82.1202 90.8747 82.1202 90.256V85.152H80.5042V84.192H82.1202V82.048L83.2882 81.776V84.192H85.5282V85.152H83.2882V89.952C83.2882 90.368 83.3735 90.6667 83.5442 90.848C83.7255 91.0293 84.0189 91.12 84.4242 91.12C84.6269 91.12 84.8082 91.104 84.9682 91.072C85.1282 91.04 85.3149 90.9867 85.5282 90.912V91.952C85.3149 92.0267 85.0909 92.08 84.8562 92.112C84.6215 92.144 84.3922 92.16 84.1682 92.16ZM90.6028 92.16C89.8775 92.16 89.2215 91.984 88.6348 91.632C88.0481 91.2693 87.5841 90.784 87.2428 90.176C86.9015 89.5573 86.7308 88.864 86.7308 88.096C86.7308 87.328 86.8908 86.64 87.2108 86.032C87.5415 85.424 87.9841 84.944 88.5388 84.592C89.0935 84.24 89.7121 84.064 90.3948 84.064C91.0881 84.064 91.7015 84.24 92.2348 84.592C92.7788 84.9333 93.2055 85.4027 93.5148 86C93.8348 86.5867 93.9948 87.2533 93.9948 88V88.352H87.8668C87.9095 88.8853 88.0535 89.3653 88.2988 89.792C88.5548 90.208 88.8855 90.5387 89.2908 90.784C89.7068 91.0187 90.1601 91.136 90.6508 91.136C91.0561 91.136 91.4455 91.0667 91.8188 90.928C92.2028 90.7787 92.5281 90.5813 92.7948 90.336L93.5308 91.12C93.0828 91.472 92.6188 91.7333 92.1388 91.904C91.6588 92.0747 91.1468 92.16 90.6028 92.16ZM87.8988 87.52H92.8428C92.7895 87.0507 92.6455 86.6347 92.4108 86.272C92.1868 85.8987 91.8988 85.6053 91.5468 85.392C91.2055 85.1787 90.8215 85.072 90.3948 85.072C89.9681 85.072 89.5788 85.1787 89.2268 85.392C88.8748 85.5947 88.5815 85.8827 88.3468 86.256C88.1228 86.6187 87.9735 87.04 87.8988 87.52Z" fill="white"/>
<rect x="127" y="68" width="82" height="36" rx="3" fill="#B1380B"/>
<path d="M149.975 92.176C149.175 92.176 148.428 92.032 147.735 91.744C147.052 91.4453 146.449 91.0347 145.927 90.512C145.404 89.9787 144.999 89.3653 144.711 88.672C144.423 87.968 144.279 87.2107 144.279 86.4C144.279 85.5893 144.423 84.8373 144.711 84.144C144.999 83.44 145.404 82.8267 145.927 82.304C146.449 81.7707 147.052 81.36 147.735 81.072C148.428 80.7733 149.175 80.624 149.975 80.624C150.529 80.624 151.057 80.6987 151.559 80.848C152.071 80.9867 152.551 81.1947 152.999 81.472C153.447 81.7387 153.847 82.0693 154.199 82.464L153.383 83.312C152.967 82.8107 152.455 82.4267 151.847 82.16C151.249 81.8827 150.625 81.744 149.975 81.744C149.345 81.744 148.759 81.8613 148.215 82.096C147.671 82.3307 147.196 82.6613 146.791 83.088C146.396 83.5147 146.087 84.0107 145.863 84.576C145.639 85.1307 145.527 85.7387 145.527 86.4C145.527 87.0507 145.639 87.6587 145.863 88.224C146.087 88.7893 146.396 89.2853 146.791 89.712C147.196 90.1387 147.671 90.4693 148.215 90.704C148.759 90.9387 149.345 91.056 149.975 91.056C150.625 91.056 151.249 90.9173 151.847 90.64C152.455 90.3627 152.967 89.9787 153.383 89.488L154.199 90.336C153.847 90.7307 153.447 91.0667 152.999 91.344C152.551 91.6107 152.071 91.8187 151.559 91.968C151.057 92.1067 150.529 92.176 149.975 92.176ZM158.608 92.144C158.054 92.144 157.563 92.0427 157.136 91.84C156.71 91.6373 156.374 91.36 156.128 91.008C155.894 90.6453 155.776 90.2293 155.776 89.76C155.776 89.2907 155.899 88.8853 156.144 88.544C156.39 88.192 156.731 87.92 157.168 87.728C157.606 87.536 158.118 87.44 158.704 87.44C159.152 87.44 159.574 87.488 159.968 87.584C160.374 87.68 160.747 87.8347 161.088 88.048V86.976C161.088 86.336 160.918 85.856 160.576 85.536C160.235 85.2053 159.734 85.04 159.072 85.04C158.71 85.04 158.336 85.0933 157.952 85.2C157.579 85.3067 157.163 85.4773 156.704 85.712L156.272 84.816C157.318 84.3147 158.299 84.064 159.216 84.064C160.187 84.064 160.934 84.304 161.456 84.784C161.979 85.2533 162.24 85.9307 162.24 86.816V92H161.088V91.088C160.747 91.44 160.368 91.7067 159.952 91.888C159.536 92.0587 159.088 92.144 158.608 92.144ZM156.896 89.728C156.896 90.1867 157.072 90.5547 157.424 90.832C157.787 91.1093 158.262 91.248 158.848 91.248C159.286 91.248 159.686 91.1733 160.048 91.024C160.422 90.8747 160.768 90.6507 161.088 90.352V88.848C160.758 88.656 160.416 88.5173 160.064 88.432C159.712 88.336 159.318 88.288 158.88 88.288C158.283 88.288 157.803 88.4213 157.44 88.688C157.078 88.944 156.896 89.2907 156.896 89.728ZM164.614 92V84.192H165.782V85.456C166.081 84.9867 166.438 84.64 166.854 84.416C167.27 84.1813 167.739 84.064 168.262 84.064C168.827 84.064 169.318 84.1867 169.734 84.432C170.161 84.6667 170.491 85.0027 170.726 85.44C170.971 85.8667 171.094 86.368 171.094 86.944V92H169.926V87.28C169.926 86.5867 169.734 86.0427 169.35 85.648C168.977 85.2427 168.47 85.04 167.83 85.04C167.403 85.04 167.014 85.1413 166.662 85.344C166.31 85.5467 166.017 85.8453 165.782 86.24V92H164.614ZM176.946 92.128C176.221 92.128 175.565 91.952 174.978 91.6C174.402 91.2373 173.944 90.752 173.602 90.144C173.261 89.5253 173.09 88.8427 173.09 88.096C173.09 87.3387 173.261 86.656 173.602 86.048C173.944 85.44 174.402 84.96 174.978 84.608C175.565 84.2453 176.221 84.064 176.946 84.064C177.522 84.064 178.072 84.1707 178.594 84.384C179.117 84.5973 179.57 84.896 179.954 85.28L179.202 86.096C178.925 85.7867 178.589 85.5467 178.194 85.376C177.8 85.2053 177.4 85.12 176.994 85.12C176.482 85.12 176.018 85.2533 175.602 85.52C175.197 85.7867 174.872 86.144 174.626 86.592C174.381 87.04 174.258 87.5413 174.258 88.096C174.258 88.6507 174.381 89.152 174.626 89.6C174.872 90.048 175.197 90.4053 175.602 90.672C176.018 90.9387 176.482 91.072 176.994 91.072C177.4 91.072 177.8 90.9867 178.194 90.816C178.589 90.6347 178.925 90.3947 179.202 90.096L179.954 90.912C179.57 91.296 179.117 91.5947 178.594 91.808C178.072 92.0213 177.522 92.128 176.946 92.128ZM184.868 92.16C184.143 92.16 183.487 91.984 182.9 91.632C182.314 91.2693 181.85 90.784 181.508 90.176C181.167 89.5573 180.996 88.864 180.996 88.096C180.996 87.328 181.156 86.64 181.476 86.032C181.807 85.424 182.25 84.944 182.804 84.592C183.359 84.24 183.978 84.064 184.66 84.064C185.354 84.064 185.967 84.24 186.5 84.592C187.044 84.9333 187.471 85.4027 187.78 86C188.1 86.5867 188.26 87.2533 188.26 88V88.352H182.132C182.175 88.8853 182.319 89.3653 182.564 89.792C182.82 90.208 183.151 90.5387 183.556 90.784C183.972 91.0187 184.426 91.136 184.916 91.136C185.322 91.136 185.711 91.0667 186.084 90.928C186.468 90.7787 186.794 90.5813 187.06 90.336L187.796 91.12C187.348 91.472 186.884 91.7333 186.404 91.904C185.924 92.0747 185.412 92.16 184.868 92.16ZM182.164 87.52H187.108C187.055 87.0507 186.911 86.6347 186.676 86.272C186.452 85.8987 186.164 85.6053 185.812 85.392C185.471 85.1787 185.087 85.072 184.66 85.072C184.234 85.072 183.844 85.1787 183.492 85.392C183.14 85.5947 182.847 85.8827 182.612 86.256C182.388 86.6187 182.239 87.04 182.164 87.52ZM190.255 92V80.448L191.423 80.208V92H190.255Z" fill="white"/>
</svg>
