<svg xmlns="http://www.w3.org/2000/svg" width="680" height="200" viewBox="0 0 680 200">
  <g id="button-theme-dark" transform="translate(-520 -1010)">
    <g id="Close" transform="translate(-368 909)">
      <rect id="Rectangle" width="14" height="14" transform="translate(984 262)" fill="none"/>
      <path id="Icon" d="M6.9,85l2.843-2.843a.894.894,0,0,0,0-1.264l-.632-.632a.894.894,0,0,0-1.264,0L5,83.1,2.157,80.262a.894.894,0,0,0-1.264,0l-.632.632a.894.894,0,0,0,0,1.264L3.1,85,.262,87.843a.894.894,0,0,0,0,1.264l.632.632a.894.894,0,0,0,1.264,0L5,86.9l2.843,2.843a.894.894,0,0,0,1.264,0l.632-.632a.894.894,0,0,0,0-1.264Z" transform="translate(986 184)" fill="#fff"/>
    </g>
    <g id="Play_button" data-name="Play button" transform="translate(520 1146)">
      <circle id="Ellipse" cx="32" cy="32" r="32" fill="#fff" opacity="0.25"/>
      <path id="Path" d="M44,32,24,42V22Z" fill="#fff"/>
    </g>
    <rect id="Rectangle-2" data-name="Rectangle" width="94" height="36" rx="3" transform="translate(1106 1078)" fill="#d2d2d2"/>
    <g id="Disabled" transform="translate(746 856)">
      <path id="Path_42" data-name="Path 42" d="M1.424,0H5.136a5.413,5.413,0,0,0,5.6-5.6,5.422,5.422,0,0,0-5.6-5.6H1.424ZM5.216-10.1A4.3,4.3,0,0,1,9.472-5.6,4.3,4.3,0,0,1,5.216-1.1H2.656V-10.1Zm8.176.32a.83.83,0,0,0,.832-.848.826.826,0,0,0-.832-.832.826.826,0,0,0-.832.832A.83.83,0,0,0,13.392-9.776Zm.576,1.968H12.8V0h1.168Zm1.584,6.72A4.33,4.33,0,0,0,18.736.144c1.76,0,3.04-1.088,3.024-2.416.016-1.184-.736-1.824-2.272-2.1l-1.3-.24c-.96-.176-1.36-.448-1.36-1.12,0-.768.72-1.248,1.7-1.248a3.943,3.943,0,0,1,2.416.88l.624-.8a4.858,4.858,0,0,0-2.992-1.04c-1.648,0-2.816.96-2.816,2.288,0,1.168.752,1.792,2.208,2.048l1.3.224c.976.176,1.392.512,1.392,1.168,0,.768-.7,1.408-1.968,1.408a3.5,3.5,0,0,1-2.464-1.024ZM25.968.144A3.321,3.321,0,0,0,28.448-.9V0H29.6V-5.184c0-1.808-1.12-2.752-3.024-2.752a6.539,6.539,0,0,0-2.944.752l.448.9a5.037,5.037,0,0,1,2.352-.672c1.312,0,2.016.624,2.016,1.936v1.056A4.683,4.683,0,0,0,26.08-4.56c-1.7,0-2.928.864-2.928,2.3C23.152-.832,24.32.144,25.968.144Zm-1.7-2.416c0-.912.832-1.456,1.968-1.456a4.052,4.052,0,0,1,2.208.576v1.5a3.116,3.116,0,0,1-2.24.9C25.072-.752,24.272-1.36,24.272-2.272ZM39.216-3.9a3.78,3.78,0,0,0-3.616-4A3.091,3.091,0,0,0,33.088-6.72v-4.72l-1.168.24V0h1.152V-1.024A3.081,3.081,0,0,0,35.536.112,3.8,3.8,0,0,0,39.216-3.9Zm-3.9-2.976a2.8,2.8,0,0,1,2.736,2.992A2.791,2.791,0,0,1,35.312-.9a2.767,2.767,0,0,1-2.224-1.088V-5.808A2.688,2.688,0,0,1,35.312-6.88Zm7.04-4.56-1.168.24V0h1.168ZM44.336-3.9A3.907,3.907,0,0,0,48.208.144,4.5,4.5,0,0,0,51.136-.9L50.4-1.7a3.191,3.191,0,0,1-2.144.8,2.81,2.81,0,0,1-2.768-2.768h6.128V-4a3.7,3.7,0,0,0-3.584-3.936A3.812,3.812,0,0,0,44.336-3.9Zm3.68-3.008A2.572,2.572,0,0,1,50.448-4.48H45.52A2.581,2.581,0,0,1,48.016-6.912ZM59.328,0H60.5V-11.44l-1.184.24v4.368A3.2,3.2,0,0,0,56.9-7.9a3.8,3.8,0,0,0-3.68,4.016,3.78,3.78,0,0,0,3.616,4,3.139,3.139,0,0,0,2.5-1.168ZM54.384-3.9A2.775,2.775,0,0,1,57.1-6.88a2.813,2.813,0,0,1,2.208,1.04v3.888A2.7,2.7,0,0,1,57.1-.912,2.789,2.789,0,0,1,54.384-3.9Z" transform="translate(376 246)" fill="#6a6e73"/>
    </g>
    <g id="Search" transform="translate(633 856)">
      <rect id="Rectangle-3" data-name="Rectangle" width="81" height="36" rx="3" transform="translate(360 222)" fill="#e00"/>
      <path id="Path_43" data-name="Path 43" d="M.448-1.84a6.318,6.318,0,0,0,4.576,2C7.776.16,9.3-1.424,9.3-3.216c0-1.648-.96-2.576-3.408-3.008L4.1-6.528C2.72-6.768,1.984-7.2,1.984-8.3c0-1.392,1.344-2,2.672-2a5.937,5.937,0,0,1,3.728,1.36l.72-.928a7.091,7.091,0,0,0-4.416-1.472C2.64-11.344.8-10.32.8-8.208c0,1.584.944,2.432,2.96,2.784l1.808.3c1.808.32,2.5.848,2.5,1.968C8.064-1.9,6.912-.9,5.072-.9A5.393,5.393,0,0,1,1.216-2.7ZM10.944-3.9A3.907,3.907,0,0,0,14.816.144,4.5,4.5,0,0,0,17.744-.9l-.736-.8a3.191,3.191,0,0,1-2.144.8A2.81,2.81,0,0,1,12.1-3.664h6.128V-4A3.7,3.7,0,0,0,14.64-7.936,3.812,3.812,0,0,0,10.944-3.9Zm3.68-3.008A2.572,2.572,0,0,1,17.056-4.48H12.128A2.581,2.581,0,0,1,14.624-6.912ZM22.448.144A3.321,3.321,0,0,0,24.928-.9V0H26.08V-5.184c0-1.808-1.12-2.752-3.024-2.752a6.539,6.539,0,0,0-2.944.752l.448.9a5.037,5.037,0,0,1,2.352-.672c1.312,0,2.016.624,2.016,1.936v1.056A4.683,4.683,0,0,0,22.56-4.56c-1.7,0-2.928.864-2.928,2.3C19.632-.832,20.8.144,22.448.144Zm-1.7-2.416c0-.912.832-1.456,1.968-1.456a4.052,4.052,0,0,1,2.208.576v1.5a3.116,3.116,0,0,1-2.24.9C21.552-.752,20.752-1.36,20.752-2.272ZM28.4,0h1.168V-5.344a2.2,2.2,0,0,1,2.1-1.584,2.768,2.768,0,0,1,.816.144V-7.84a2.3,2.3,0,0,0-.736-.112,2.321,2.321,0,0,0-2.176,1.7V-7.808H28.4Zm8.592-.912A2.817,2.817,0,0,1,34.272-3.9a2.832,2.832,0,0,1,2.72-2.976,2.983,2.983,0,0,1,2.144.976l.752-.816a4.146,4.146,0,0,0-2.912-1.216A3.912,3.912,0,0,0,33.1-3.9,3.926,3.926,0,0,0,36.976.144,3.955,3.955,0,0,0,39.84-1.12l-.72-.72A2.791,2.791,0,0,1,36.992-.912ZM46.88,0h1.168V-5.056a2.722,2.722,0,0,0-2.816-2.88,2.813,2.813,0,0,0-2.5,1.408V-11.44l-1.168.24V0h1.168V-5.76a2.32,2.32,0,0,1,2.048-1.2,2.023,2.023,0,0,1,2.1,2.24Z" transform="translate(376 246)" fill="#fff"/>
    </g>
    <g id="Tertiary" transform="translate(514 856)">
      <g id="Rectangle-4" data-name="Rectangle" transform="translate(360 222)" fill="none" stroke="#fff" stroke-width="1">
        <rect width="87" height="36" rx="3" stroke="none"/>
        <rect x="0.5" y="0.5" width="86" height="35" rx="2.5" fill="none"/>
      </g>
      <path id="Path_44" data-name="Path 44" d="M.448-10.112H4.32V0H5.552V-10.112H9.408V-11.2H.448ZM8.88-3.9A3.907,3.907,0,0,0,12.752.144,4.5,4.5,0,0,0,15.68-.9l-.736-.8A3.191,3.191,0,0,1,12.8-.9a2.81,2.81,0,0,1-2.768-2.768H16.16V-4a3.7,3.7,0,0,0-3.584-3.936A3.812,3.812,0,0,0,8.88-3.9Zm3.68-3.008A2.572,2.572,0,0,1,14.992-4.48H10.064A2.581,2.581,0,0,1,12.56-6.912ZM18.08,0h1.168V-5.344a2.2,2.2,0,0,1,2.1-1.584,2.768,2.768,0,0,1,.816.144V-7.84a2.3,2.3,0,0,0-.736-.112,2.321,2.321,0,0,0-2.176,1.7V-7.808H18.08ZM24.8-1.76c0,1.216.688,1.9,2.048,1.9a4.713,4.713,0,0,0,1.376-.208V-1.1a2.881,2.881,0,0,1-1.1.208c-.832,0-1.152-.336-1.152-1.168V-6.848h2.256v-.96H25.968v-2.256L24.8-9.792v1.984H23.184v.96H24.8Zm5.648-8.016a.83.83,0,0,0,.832-.848.826.826,0,0,0-.832-.832.826.826,0,0,0-.832.832A.83.83,0,0,0,30.448-9.776Zm.576,1.968H29.856V0h1.168ZM35.776.144A3.321,3.321,0,0,0,38.256-.9V0h1.152V-5.184c0-1.808-1.12-2.752-3.024-2.752a6.539,6.539,0,0,0-2.944.752l.448.9A5.037,5.037,0,0,1,36.24-6.96c1.312,0,2.016.624,2.016,1.936v1.056a4.683,4.683,0,0,0-2.368-.592c-1.7,0-2.928.864-2.928,2.3C32.96-.832,34.128.144,35.776.144Zm-1.7-2.416c0-.912.832-1.456,1.968-1.456a4.052,4.052,0,0,1,2.208.576v1.5a3.116,3.116,0,0,1-2.24.9C34.88-.752,34.08-1.36,34.08-2.272ZM41.728,0H42.9V-5.344a2.2,2.2,0,0,1,2.1-1.584,2.768,2.768,0,0,1,.816.144V-7.84a2.3,2.3,0,0,0-.736-.112,2.321,2.321,0,0,0-2.176,1.7V-7.808H41.728Zm7.5,1.088c-.32.8-.736.992-1.264.992a3.939,3.939,0,0,1-.64-.064v1.04a2.568,2.568,0,0,0,.752.112c1.168,0,1.76-.5,2.24-1.728l3.808-9.248h-1.28L50.336-1.376,47.968-7.808H46.656L49.68-.016Z" transform="translate(376 246)" fill="#fff"/>
    </g>
    <g id="Secondary" transform="translate(373 856)">
      <g id="Rectangle-5" data-name="Rectangle" transform="translate(360 222)" fill="none" stroke="#2b9af3" stroke-width="1">
        <rect width="109" height="36" rx="3" stroke="none"/>
        <rect x="0.5" y="0.5" width="108" height="35" rx="2.5" fill="none"/>
      </g>
      <path id="Path_45" data-name="Path 45" d="M.448-1.84a6.318,6.318,0,0,0,4.576,2C7.776.16,9.3-1.424,9.3-3.216c0-1.648-.96-2.576-3.408-3.008L4.1-6.528C2.72-6.768,1.984-7.2,1.984-8.3c0-1.392,1.344-2,2.672-2a5.937,5.937,0,0,1,3.728,1.36l.72-.928a7.091,7.091,0,0,0-4.416-1.472C2.64-11.344.8-10.32.8-8.208c0,1.584.944,2.432,2.96,2.784l1.808.3c1.808.32,2.5.848,2.5,1.968C8.064-1.9,6.912-.9,5.072-.9A5.393,5.393,0,0,1,1.216-2.7ZM10.944-3.9A3.907,3.907,0,0,0,14.816.144,4.5,4.5,0,0,0,17.744-.9l-.736-.8a3.191,3.191,0,0,1-2.144.8A2.81,2.81,0,0,1,12.1-3.664h6.128V-4A3.7,3.7,0,0,0,14.64-7.936,3.812,3.812,0,0,0,10.944-3.9Zm3.68-3.008A2.572,2.572,0,0,1,17.056-4.48H12.128A2.581,2.581,0,0,1,14.624-6.912Zm9.088,6A2.817,2.817,0,0,1,20.992-3.9a2.832,2.832,0,0,1,2.72-2.976,2.983,2.983,0,0,1,2.144.976l.752-.816A4.146,4.146,0,0,0,23.7-7.936,3.912,3.912,0,0,0,19.824-3.9,3.926,3.926,0,0,0,23.7.144,3.955,3.955,0,0,0,26.56-1.12l-.72-.72A2.791,2.791,0,0,1,23.712-.912ZM27.632-3.9A3.867,3.867,0,0,0,31.424.16,3.873,3.873,0,0,0,35.248-3.9a3.845,3.845,0,0,0-3.824-4.032A3.839,3.839,0,0,0,27.632-3.9Zm6.448.016A2.756,2.756,0,0,1,31.424-.88,2.742,2.742,0,0,1,28.8-3.888a2.767,2.767,0,0,1,2.624-3.024A2.771,2.771,0,0,1,34.08-3.888ZM37.216,0h1.168V-5.76a2.32,2.32,0,0,1,2.048-1.2,2.023,2.023,0,0,1,2.1,2.24V0H43.7V-5.056a2.722,2.722,0,0,0-2.816-2.88,2.813,2.813,0,0,0-2.5,1.408v-1.28H37.216Zm14.56,0h1.168V-11.44l-1.184.24v4.368A3.2,3.2,0,0,0,49.344-7.9a3.8,3.8,0,0,0-3.68,4.016,3.78,3.78,0,0,0,3.616,4,3.139,3.139,0,0,0,2.5-1.168ZM46.832-3.9a2.775,2.775,0,0,1,2.72-2.976A2.813,2.813,0,0,1,51.76-5.84v3.888a2.7,2.7,0,0,1-2.208,1.04A2.789,2.789,0,0,1,46.832-3.9ZM57.68.144A3.321,3.321,0,0,0,60.16-.9V0h1.152V-5.184c0-1.808-1.12-2.752-3.024-2.752a6.539,6.539,0,0,0-2.944.752l.448.9a5.037,5.037,0,0,1,2.352-.672c1.312,0,2.016.624,2.016,1.936v1.056a4.683,4.683,0,0,0-2.368-.592c-1.7,0-2.928.864-2.928,2.3C54.864-.832,56.032.144,57.68.144Zm-1.7-2.416c0-.912.832-1.456,1.968-1.456a4.052,4.052,0,0,1,2.208.576v1.5a3.116,3.116,0,0,1-2.24.9C56.784-.752,55.984-1.36,55.984-2.272ZM63.632,0H64.8V-5.344a2.2,2.2,0,0,1,2.1-1.584,2.768,2.768,0,0,1,.816.144V-7.84a2.3,2.3,0,0,0-.736-.112,2.321,2.321,0,0,0-2.176,1.7V-7.808H63.632Zm7.5,1.088c-.32.8-.736.992-1.264.992a3.939,3.939,0,0,1-.64-.064v1.04a2.568,2.568,0,0,0,.752.112c1.168,0,1.76-.5,2.24-1.728l3.808-9.248h-1.28L72.24-1.376,69.872-7.808H68.56L71.584-.016Z" transform="translate(376 246)" fill="#fff"/>
    </g>
    <g id="Link" transform="translate(279 856)">
      <rect id="Rectangle-6" data-name="Rectangle" width="62" height="36" rx="3" transform="translate(360 222)" fill="none"/>
      <path id="Path_46" data-name="Path 46" d="M1.424,0H8.976V-1.088H2.656V-11.2H1.424ZM11.456-9.776a.83.83,0,0,0,.832-.848.826.826,0,0,0-.832-.832.826.826,0,0,0-.832.832A.83.83,0,0,0,11.456-9.776Zm.576,1.968H10.864V0h1.168ZM14.352,0H15.52V-5.76a2.32,2.32,0,0,1,2.048-1.2,2.023,2.023,0,0,1,2.1,2.24V0h1.168V-5.056a2.722,2.722,0,0,0-2.816-2.88,2.813,2.813,0,0,0-2.5,1.408v-1.28H14.352Zm8.784,0H24.3V-3.728L28.064,0h1.552l-4.16-4.1,3.968-3.712H28.016L24.3-4.288V-11.44l-1.168.24Z" transform="translate(376 246)" fill="#73bcf7"/>
    </g>
    <g id="Primary" transform="translate(160 856)">
      <rect id="Rectangle-7" data-name="Rectangle" width="87" height="36" rx="3" transform="translate(360 222)" fill="#2b9af3"/>
      <path id="Path_47" data-name="Path 47" d="M1.424,0H2.656V-4.576H6.048A3.248,3.248,0,0,0,9.616-7.888,3.24,3.24,0,0,0,6.048-11.2H1.424Zm4.5-10.112A2.173,2.173,0,0,1,8.384-7.888,2.188,2.188,0,0,1,5.92-5.632H2.656v-4.48ZM11.616,0h1.168V-5.344a2.2,2.2,0,0,1,2.1-1.584,2.768,2.768,0,0,1,.816.144V-7.84a2.3,2.3,0,0,0-.736-.112,2.321,2.321,0,0,0-2.176,1.7V-7.808H11.616Zm6.208-9.776a.83.83,0,0,0,.832-.848.826.826,0,0,0-.832-.832.826.826,0,0,0-.832.832A.83.83,0,0,0,17.824-9.776ZM18.4-7.808H17.232V0H18.4ZM20.72,0h1.168V-5.808a2.171,2.171,0,0,1,1.9-1.152,1.939,1.939,0,0,1,1.936,2.208V0H26.9V-5.04a3.238,3.238,0,0,0-.064-.688A2.2,2.2,0,0,1,28.784-6.96C30-6.96,30.7-6.1,30.7-4.752V0h1.184V-5.04a2.669,2.669,0,0,0-2.672-2.9,2.915,2.915,0,0,0-2.608,1.52,2.56,2.56,0,0,0-2.384-1.52,2.672,2.672,0,0,0-2.336,1.344V-7.808H20.72Zm15.9.144A3.321,3.321,0,0,0,39.1-.9V0h1.152V-5.184c0-1.808-1.12-2.752-3.024-2.752a6.539,6.539,0,0,0-2.944.752l.448.9a5.037,5.037,0,0,1,2.352-.672c1.312,0,2.016.624,2.016,1.936v1.056a4.683,4.683,0,0,0-2.368-.592c-1.7,0-2.928.864-2.928,2.3C33.808-.832,34.976.144,36.624.144Zm-1.7-2.416c0-.912.832-1.456,1.968-1.456a4.052,4.052,0,0,1,2.208.576v1.5a3.116,3.116,0,0,1-2.24.9C35.728-.752,34.928-1.36,34.928-2.272ZM42.576,0h1.168V-5.344a2.2,2.2,0,0,1,2.1-1.584,2.768,2.768,0,0,1,.816.144V-7.84a2.3,2.3,0,0,0-.736-.112,2.321,2.321,0,0,0-2.176,1.7V-7.808H42.576Zm7.5,1.088c-.32.8-.736.992-1.264.992a3.939,3.939,0,0,1-.64-.064v1.04a2.568,2.568,0,0,0,.752.112c1.168,0,1.76-.5,2.24-1.728l3.808-9.248H53.7L51.184-1.376,48.816-7.808H47.5L50.528-.016Z" transform="translate(376 246)" fill="#fff"/>
    </g>
    <g id="Danger" transform="translate(160 788)">
      <rect id="Rectangle-8" data-name="Rectangle" width="85" height="36" rx="3" transform="translate(360 222)" fill="#e74c3c"/>
      <path id="Path_48" data-name="Path 48" d="M1.424,0H5.136a5.413,5.413,0,0,0,5.6-5.6,5.422,5.422,0,0,0-5.6-5.6H1.424ZM5.216-10.1A4.3,4.3,0,0,1,9.472-5.6,4.3,4.3,0,0,1,5.216-1.1H2.656V-10.1ZM15.072.144A3.321,3.321,0,0,0,17.552-.9V0H18.7V-5.184c0-1.808-1.12-2.752-3.024-2.752a6.539,6.539,0,0,0-2.944.752l.448.9a5.037,5.037,0,0,1,2.352-.672c1.312,0,2.016.624,2.016,1.936v1.056a4.683,4.683,0,0,0-2.368-.592c-1.7,0-2.928.864-2.928,2.3C12.256-.832,13.424.144,15.072.144Zm-1.7-2.416c0-.912.832-1.456,1.968-1.456a4.052,4.052,0,0,1,2.208.576v1.5a3.116,3.116,0,0,1-2.24.9C14.176-.752,13.376-1.36,13.376-2.272ZM21.024,0h1.168V-5.76a2.32,2.32,0,0,1,2.048-1.2,2.023,2.023,0,0,1,2.1,2.24V0H27.5V-5.056a2.722,2.722,0,0,0-2.816-2.88,2.813,2.813,0,0,0-2.5,1.408v-1.28H21.024ZM33.088.112a3.153,3.153,0,0,0,2.48-1.136V.256c0,1.312-.768,2-2.176,2a5.084,5.084,0,0,1-2.48-.72l-.5.9a6.078,6.078,0,0,0,3.04.816c2.112,0,3.28-1.056,3.28-3.008V-7.808H35.584v.992A3.223,3.223,0,0,0,33.152-7.9a3.8,3.8,0,0,0-3.68,4.016A3.78,3.78,0,0,0,33.088.112ZM30.64-3.9A2.775,2.775,0,0,1,33.36-6.88a2.813,2.813,0,0,1,2.208,1.04v3.888A2.7,2.7,0,0,1,33.36-.912,2.789,2.789,0,0,1,30.64-3.9Zm8.064,0A3.907,3.907,0,0,0,42.576.144,4.5,4.5,0,0,0,45.5-.9l-.736-.8a3.191,3.191,0,0,1-2.144.8,2.81,2.81,0,0,1-2.768-2.768h6.128V-4A3.7,3.7,0,0,0,42.4-7.936,3.812,3.812,0,0,0,38.7-3.9Zm3.68-3.008A2.572,2.572,0,0,1,44.816-4.48H39.888A2.581,2.581,0,0,1,42.384-6.912ZM47.9,0h1.168V-5.344a2.2,2.2,0,0,1,2.1-1.584,2.768,2.768,0,0,1,.816.144V-7.84a2.3,2.3,0,0,0-.736-.112,2.321,2.321,0,0,0-2.176,1.7V-7.808H47.9Z" transform="translate(376 246)" fill="#fff"/>
    </g>
  </g>
</svg>
