<svg xmlns="http://www.w3.org/2000/svg" width="308" height="135"><defs><style>.a{fill:#d2d2d2}.b{fill:#8a8d90}.c{fill:#06c}.d{fill:#fff;stroke:#8a8d90}.f{stroke:none}.g{fill:none}</style></defs><g transform="translate(42 27)"><path class="a" d="M106 96h160v12H106z"/><circle class="b" cx="4" cy="4" r="4" transform="translate(90 98)"/></g><path class="c" d="M116 91h80v16h-80z"/><g transform="translate(42 -44)"><path class="a" d="M106 96h160v12H106z"/><circle class="b" cx="4" cy="4" r="4" transform="translate(90 98)"/></g><g transform="translate(42 -64)"><path class="a" d="M106 96h160v12H106z"/><circle class="b" cx="4" cy="4" r="4" transform="translate(90 98)"/></g><path class="c" d="M116 0h80v16h-80z"/><path class="b" d="M99 0h1v135h-1z"/><g><g class="d" transform="translate(96 64)"><circle class="f" cx="3.5" cy="3.5" r="3.5"/><circle class="g" cx="3.5" cy="3.5" r="3"/></g><path class="b" d="M51 67h46v1H51z"/><g class="d" transform="translate(0 42)"><rect class="f" width="51" height="51" rx="3"/><rect class="g" x=".5" y=".5" width="50" height="50" rx="2.5"/></g><path d="M25.5 57L36 67.5 25.5 78 15 67.5z" fill="#51a549"/></g></svg>