<svg xmlns="http://www.w3.org/2000/svg" width="308" height="135" viewBox="0 0 308 135"><g transform="translate(-80 -64)"><g transform="translate(0 -3)"><g transform="translate(122 94)"><rect width="160" height="12" transform="translate(106 96)" fill="#d2d2d2"/><circle cx="4" cy="4" r="4" transform="translate(90 98)" fill="#8a8d90"/></g><rect width="80" height="16" transform="translate(196 158)" fill="#06c"/></g><g transform="translate(0 -24)"><g transform="translate(122 44)"><rect width="160" height="12" transform="translate(106 96)" fill="#d2d2d2"/><circle cx="4" cy="4" r="4" transform="translate(90 98)" fill="#8a8d90"/></g><g transform="translate(122 24)"><rect width="160" height="12" transform="translate(106 96)" fill="#d2d2d2"/><circle cx="4" cy="4" r="4" transform="translate(90 98)" fill="#8a8d90"/></g><rect width="80" height="16" transform="translate(196 88)" fill="#06c"/></g><rect width="1" height="135" transform="translate(179 64)" fill="#8a8d90"/><g transform="translate(0 -34)"><g transform="translate(176 162)" fill="#fff" stroke="#8a8d90" stroke-width="1"><circle cx="3.5" cy="3.5" r="3.5" stroke="none"/><circle cx="3.5" cy="3.5" r="3" fill="none"/></g><rect width="46" height="1" transform="translate(131 165)" fill="#8a8d90"/><g transform="translate(0 40)"><g transform="translate(80 100)" fill="#fff" stroke="#8a8d90" stroke-width="1"><rect width="51" height="51" rx="3" stroke="none"/><rect x="0.5" y="0.5" width="50" height="50" rx="2.5" fill="none"/></g><path d="M10.5,0,21,10.5,10.5,21,0,10.5Z" transform="translate(95 115)" fill="#51a549"/></g></g></g></svg>