<svg xmlns="http://www.w3.org/2000/svg" width="69" height="64"><path fill="none" d="M0 0h69v64H0z"/><path d="M62.088 6.728a22.907 22.907 0 00-26.03-4.477c-.547.26-1.093.6-1.64.911A22.829 22.829 0 006.513 38.795a6.638 6.638 0 001.874 5.206 6.508 6.508 0 004.659 1.926 6.534 6.534 0 001.926 4.637 6.429 6.429 0 004.633 1.926 6.586 6.586 0 006.587 6.585 6.013 6.013 0 001.8-.286 6.351 6.351 0 001.77 3.28 6.586 6.586 0 009.319 0l23.007-22.985a22.907 22.907 0 000-32.356zM9.507 9.488a18.976 18.976 0 0126.811 0L46.99 20.16a2.687 2.687 0 01-3.8 3.8L32.517 13.288a1.952 1.952 0 00-2.759 0 9.944 9.944 0 01-13.744 0 1.952 1.952 0 00-2.759 0 1.926 1.926 0 000 2.759 13.484 13.484 0 009.631 4.009l-14.5 14.551-.156.208A18.976 18.976 0 019.505 9.488zm49.822 26.807L36.372 59.283a2.724 2.724 0 01-3.852-3.852l6.452-6.536a1.952 1.952 0 00-2.6-2.759l-8.2 8.226a2.706 2.706 0 11-3.826-3.826l8.173-8.121a1.952 1.952 0 10-2.759-2.759l-8.226 8.121a2.7 2.7 0 11-3.8-3.826l8.226-8.173a1.96 1.96 0 10-2.761-2.783l-8.2 8.226a2.785 2.785 0 01-3.826 0 2.6 2.6 0 010-3.8l19.991-19.994 9.267 9.368a6.59 6.59 0 109.319-9.319L38.272 5.974l-.312-.208a18.95 18.95 0 0121.369 30.611z" fill="#e00"/></svg>