<svg xmlns="http://www.w3.org/2000/svg" width="67" height="64"><path fill="none" d="M0 0h67v64H0z"/><path d="M65.855 30.566l-3.176-3.176-3.173-3.173a2.027 2.027 0 10-2.865 2.865l2.457 2.46.43.432H34.813a28.082 28.082 0 009.688-7.028 25.376 25.376 0 005.865-12.637c.068-.416.122-.811.168-1.2l.308.335 2.36 2.554a2.027 2.027 0 002.973-2.749l-3.027-3.3-3.052-3.3c-.035-.038-.086-.054-.124-.089a1.488 1.488 0 00-.135-.154 2.211 2.211 0 00-.241-.119 1.8 1.8 0 00-.289-.143 2.136 2.136 0 00-.408-.1 1.976 1.976 0 00-.211-.049c-.059 0-.116.024-.178.027a.618.618 0 00-.173 0c-.059.019-.127.051-.195.068a1.868 1.868 0 00-.735.346 1.405 1.405 0 00-.173.105l-3.3 3.033-3.3 3.046a2.026 2.026 0 102.747 2.979l2.557-2.357.56-.519c-.035.295-.073.592-.124.9a21.433 21.433 0 01-4.928 10.666 25.544 25.544 0 01-11.3 7.214 52.169 52.169 0 01-15.391 2.408 7.525 7.525 0 100 4.174 52.353 52.353 0 0115.356 2.395 25.628 25.628 0 0111.292 7.182 21.449 21.449 0 014.947 10.642c.057.33.1.646.138.954l-.541-.5-2.555-2.359a2.027 2.027 0 00-2.752 2.973l3.3 3.046 3.3 3.049a1.745 1.745 0 00.192.119 1.93 1.93 0 00.3.189c.051.024.092.07.146.092a2.189 2.189 0 00.27.049c.073.016.132.059.208.07a.71.71 0 01.138.016h.214a2.323 2.323 0 00.227-.057 2 2 0 00.476-.114.615.615 0 01.068-.016c.065-.032.114-.092.178-.13a2.106 2.106 0 00.3-.181c.03-.027.046-.065.076-.095s.059-.035.084-.062l3.046-3.3 3.044-3.3a2.029 2.029 0 10-2.979-2.754l-2.36 2.557-.308.335c-.046-.387-.1-.784-.168-1.2a25.374 25.374 0 00-5.876-12.648 28.036 28.036 0 00-9.693-7.028h24.71l-.43.43-2.452 2.46a2.027 2.027 0 102.865 2.868l3.162-3.168 3.176-3.163a2.027 2.027 0 00.001-2.87zm-55.808 3.825a3.376 3.376 0 11.986-2.392 3.376 3.376 0 01-.989 2.39z" fill="#e00"/></svg>