<svg xmlns="http://www.w3.org/2000/svg" width="468" height="347" viewBox="0 0 468 347"><defs><style>.a{fill:#fff;stroke:#d2d2d2;}.b,.f{fill:#06c;}.b,.c{opacity:0.04;}.c{fill:red;}.d{fill:none;}.e{fill:#8a8d90;}.g{fill:#d2d2d2;}.h{fill:#e00;}.i{stroke:none;}</style></defs><g class="a"><rect class="i" width="468" height="347" rx="3"/><rect class="d" x="0.5" y="0.5" width="467" height="346" rx="2.5"/></g><g transform="translate(-360 -1180)"><path class="b" d="M0,0H468a0,0,0,0,1,0,0V170a3,3,0,0,1-3,3H3a3,3,0,0,1-3-3V0A0,0,0,0,1,0,0Z" transform="translate(360 1354)"/><path class="c" d="M3,0H465a3,3,0,0,1,3,3V174a0,0,0,0,1,0,0H0a0,0,0,0,1,0,0V3A3,3,0,0,1,3,0Z" transform="translate(360 1180)"/></g><g transform="translate(-360 -1192)"><g class="a" transform="translate(424 1470)"><rect class="i" width="340" height="1"/><rect class="d" x="0.5" y="0.5" width="339"/></g><g transform="translate(108 158)"><rect class="d" width="16" height="16" transform="translate(624 1280)"/><path class="e" d="M13,8,7,14,5,12,9,8,5,4,7,2Z" transform="translate(623 1280)"/></g><rect class="e" width="80" height="16" transform="translate(440 1438)"/><g class="a" transform="translate(424 1309)"><rect class="i" width="340" height="113"/><rect class="d" x="0.5" y="0.5" width="339" height="112"/></g><g transform="translate(0 -16)"><path class="f" d="M7,0,5.5,1.5,10,6H0V8H10L5.5,12.5,7,14l7-7Z" transform="translate(528 1407)"/><rect class="f" width="80" height="16" transform="translate(440 1406)"/></g><rect class="g" width="308" height="8" transform="translate(440 1366)"/><rect class="g" width="308" height="8" transform="translate(440 1350)"/><g transform="translate(108 46)"><rect class="d" width="16" height="16" transform="translate(624 1280)"/><path class="e" d="M13,8,7,14,5,12,9,8,5,4,7,2Z" transform="translate(640 1279) rotate(90)"/></g><rect class="e" width="80" height="16" transform="translate(440 1326)"/><rect class="f" width="3" height="56" transform="translate(424 1366)"/><rect class="h" width="3" height="57" transform="translate(424 1309)"/><g transform="translate(108 -3)"><rect class="d" width="16" height="16" transform="translate(624 1280)"/><path class="e" d="M13,8,7,14,5,12,9,8,5,4,7,2Z" transform="translate(623 1280)"/></g><rect class="e" width="80" height="16" transform="translate(440 1277)"/><g class="a" transform="translate(424 1260)"><rect class="i" width="340" height="1"/><rect class="d" x="0.5" y="0.5" width="339"/></g></g></svg>