<svg xmlns="http://www.w3.org/2000/svg" xmlns:xlink="http://www.w3.org/1999/xlink" width="538" height="127" viewBox="0 0 538 127">
  <defs>
    <filter id="Rectangle" x="0" y="0" width="538" height="127" filterUnits="userSpaceOnUse">
      <feOffset dy="8" input="SourceAlpha"/>
      <feGaussianBlur stdDeviation="8" result="blur"/>
      <feFlood flood-color="#151515" flood-opacity="0.302"/>
      <feComposite operator="in" in2="blur"/>
      <feComposite in="SourceGraphic"/>
    </filter>
  </defs>
  <g id="alert-spacing-toast" transform="translate(-599 -535)">
    <g id="Toast" transform="translate(623 549)">
      <g transform="matrix(1, 0, 0, 1, -24, -14)" filter="url(#Rectangle)">
        <rect id="Rectangle-2" data-name="Rectangle" width="490" height="79" transform="translate(24 16)" fill="#fff"/>
      </g>
      <text id="From_the_Settings_tab_select_View_logs." data-name="From the Settings tab, select View logs." transform="translate(48 47)" fill="#151515" font-size="14" font-family="RedHatText-Regular, Red Hat Text" letter-spacing="0.01em"><tspan x="0" y="14">From the </tspan><tspan y="14" font-family="RedHatText-Medium, Red Hat Text" font-weight="500">Settings</tspan><tspan y="14" xml:space="preserve"> tab, select </tspan><tspan y="14" fill="#06c">View logs</tspan><tspan y="14">.</tspan></text>
      <g id="Close_-_light_theme" data-name="Close - light theme" transform="translate(458 18)">
        <g id="Icon">
          <rect id="Rectangle-3" data-name="Rectangle" width="16" height="16" fill="none"/>
          <path id="Icon-2" data-name="Icon" d="M8.275,86l3.411-3.411a1.072,1.072,0,0,0,0-1.516l-.758-.758a1.072,1.072,0,0,0-1.516,0L6,83.725,2.589,80.314a1.072,1.072,0,0,0-1.516,0l-.758.758a1.072,1.072,0,0,0,0,1.516L3.725,86,.314,89.411a1.072,1.072,0,0,0,0,1.516l.758.758a1.072,1.072,0,0,0,1.516,0L6,88.275l3.411,3.411a1.072,1.072,0,0,0,1.516,0l.758-.758a1.072,1.072,0,0,0,0-1.516Z" transform="translate(2 -78)" fill="#6a6e73"/>
        </g>
      </g>
      <text id="Download_complete_with_errors" data-name="Download complete with errors" transform="translate(48 21)" fill="#795600" font-size="14" font-family="RedHatText-Medium, Red Hat Text" font-weight="500" letter-spacing="0.01em"><tspan x="0" y="14">Download complete with errors</tspan></text>
      <g id="Warning" transform="translate(16 18)">
        <rect id="Rectangle-4" data-name="Rectangle" width="24" height="24" fill="none"/>
        <path id="Icon-3" data-name="Icon" d="M19.775,15.469A1.689,1.689,0,0,1,18.331,18H1.668A1.689,1.689,0,0,1,.225,15.469L8.556.843a1.657,1.657,0,0,1,2.887,0l8.331,14.626ZM10,12.445a1.617,1.617,0,1,0,1.6,1.617A1.607,1.607,0,0,0,10,12.445ZM8.483,6.632l.258,4.781a.419.419,0,0,0,.416.4h1.686a.419.419,0,0,0,.416-.4l.258-4.781a.42.42,0,0,0-.416-.445H8.9a.42.42,0,0,0-.416.445Z" transform="translate(2 3)" fill="#f0ab00"/>
      </g>
      <rect id="Rectangle-5" data-name="Rectangle" width="490" height="2" fill="#f0ab00"/>
      <g id="Spacers" transform="translate(0 2)">
        <g id="Rectangle-6" data-name="Rectangle" transform="translate(48 45)" fill="none" stroke="#b300b3" stroke-width="1" opacity="0.5">
          <rect width="394" height="18" stroke="none"/>
          <rect x="0.5" y="0.5" width="393" height="17" fill="none"/>
        </g>
        <g id="Rectangle-7" data-name="Rectangle" transform="translate(458 16)" fill="none" stroke="#b300b3" stroke-width="1" opacity="0.5">
          <rect width="16" height="16" stroke="none"/>
          <rect x="0.5" y="0.5" width="15" height="15" fill="none"/>
        </g>
        <g id="Rectangle-8" data-name="Rectangle" transform="translate(48 19)" fill="none" stroke="#b300b3" stroke-width="1" opacity="0.5">
          <rect width="394" height="18" stroke="none"/>
          <rect x="0.5" y="0.5" width="393" height="17" fill="none"/>
        </g>
        <g id="Rectangle-9" data-name="Rectangle" transform="translate(16 16)" fill="none" stroke="#b300b3" stroke-width="1" opacity="0.5">
          <rect width="24" height="24" stroke="none"/>
          <rect x="0.5" y="0.5" width="23" height="23" fill="none"/>
        </g>
        <g id="_16px_spacer" data-name="16px spacer" transform="translate(0 20)">
          <g id="Rectangle-10" data-name="Rectangle" fill="rgba(81,165,73,0.1)" stroke="#51a549" stroke-width="1" stroke-dasharray="3 2">
            <rect width="16" height="16" stroke="none"/>
            <rect x="0.5" y="0.5" width="15" height="15" fill="none"/>
          </g>
          <text id="_16" data-name="16" transform="translate(1 12)" fill="#51a549" font-size="12" font-family="RedHatMono-Regular, Red Hat Mono"><tspan x="0" y="0">16</tspan></text>
        </g>
        <g id="_16px_spacer-2" data-name="16px spacer" transform="translate(20)">
          <g id="Rectangle-11" data-name="Rectangle" fill="rgba(81,165,73,0.1)" stroke="#51a549" stroke-width="1" stroke-dasharray="3 2">
            <rect width="16" height="16" stroke="none"/>
            <rect x="0.5" y="0.5" width="15" height="15" fill="none"/>
          </g>
          <text id="_16-2" data-name="16" transform="translate(1 12)" fill="#51a549" font-size="12" font-family="RedHatMono-Regular, Red Hat Mono"><tspan x="0" y="0">16</tspan></text>
        </g>
        <g id="_16px_spacer-3" data-name="16px spacer" transform="translate(48 63)">
          <g id="Rectangle-12" data-name="Rectangle" fill="rgba(81,165,73,0.1)" stroke="#51a549" stroke-width="1" stroke-dasharray="3 2">
            <rect width="16" height="16" stroke="none"/>
            <rect x="0.5" y="0.5" width="15" height="15" fill="none"/>
          </g>
          <text id="_16-3" data-name="16" transform="translate(1 12)" fill="#51a549" font-size="12" font-family="RedHatMono-Regular, Red Hat Mono"><tspan x="0" y="0">16</tspan></text>
        </g>
        <g id="_16px_spacer-4" data-name="16px spacer" transform="translate(474 16)">
          <g id="Rectangle-13" data-name="Rectangle" fill="rgba(81,165,73,0.1)" stroke="#51a549" stroke-width="1" stroke-dasharray="3 2">
            <rect width="16" height="16" stroke="none"/>
            <rect x="0.5" y="0.5" width="15" height="15" fill="none"/>
          </g>
          <text id="_16-4" data-name="16" transform="translate(1 12)" fill="#51a549" font-size="12" font-family="RedHatMono-Regular, Red Hat Mono"><tspan x="0" y="0">16</tspan></text>
        </g>
        <g id="_16px_spacer-5" data-name="16px spacer" transform="translate(458)">
          <g id="Rectangle-14" data-name="Rectangle" fill="rgba(81,165,73,0.1)" stroke="#51a549" stroke-width="1" stroke-dasharray="3 2">
            <rect width="16" height="16" stroke="none"/>
            <rect x="0.5" y="0.5" width="15" height="15" fill="none"/>
          </g>
          <text id="_16-5" data-name="16" transform="translate(1 12)" fill="#51a549" font-size="12" font-family="RedHatMono-Regular, Red Hat Mono"><tspan x="0" y="0">16</tspan></text>
        </g>
        <g id="_16px_spacer-6" data-name="16px spacer" transform="translate(442 20)">
          <g id="Rectangle-15" data-name="Rectangle" fill="rgba(81,165,73,0.1)" stroke="#51a549" stroke-width="1" stroke-dasharray="3 2">
            <rect width="16" height="16" stroke="none"/>
            <rect x="0.5" y="0.5" width="15" height="15" fill="none"/>
          </g>
          <text id="_16-6" data-name="16" transform="translate(1 12)" fill="#51a549" font-size="12" font-family="RedHatMono-Regular, Red Hat Mono"><tspan x="0" y="0">16</tspan></text>
        </g>
        <g id="_8px" data-name="8px" transform="translate(40 24)">
          <g id="Rectangle-16" data-name="Rectangle" transform="translate(0 1)" fill="rgba(155,217,23,0.1)" stroke="#9bd917" stroke-width="1" stroke-dasharray="3 2">
            <rect width="8" height="8" stroke="none"/>
            <rect x="0.5" y="0.5" width="7" height="7" fill="none"/>
          </g>
          <text id="_8" data-name="8" transform="translate(2 7)" fill="#a8d747" font-size="7" font-family="RedHatMono-Medium, Red Hat Mono" font-weight="500"><tspan x="0" y="0">8</tspan></text>
        </g>
        <g id="_8px-2" data-name="8px" transform="translate(48 36)">
          <g id="Rectangle-17" data-name="Rectangle" transform="translate(0 1)" fill="rgba(155,217,23,0.1)" stroke="#9bd917" stroke-width="1" stroke-dasharray="3 2">
            <rect width="8" height="8" stroke="none"/>
            <rect x="0.5" y="0.5" width="7" height="7" fill="none"/>
          </g>
          <text id="_8-2" data-name="8" transform="translate(2 7)" fill="#a8d747" font-size="7" font-family="RedHatMono-Medium, Red Hat Mono" font-weight="500"><tspan x="0" y="0">8</tspan></text>
        </g>
      </g>
    </g>
  </g>
</svg>
