<svg xmlns="http://www.w3.org/2000/svg" width="872" height="451" viewBox="0 0 872 451"><defs><style>.a{fill:#d2d2d2;}.b{fill:#f5f5f5;}.c{fill:#6a6e73;}.d{fill:#fff;}.e{fill:#151515;}.f{fill:#e00;}.g,.h,.i,.j,.k,.m{fill:none;}.g,.h,.i,.j,.k{stroke:#2261c5;stroke-width:2px;}.h{opacity:0.8;}.i{opacity:0.6;}.j{opacity:0.4;}.k{opacity:0.2;}.l{stroke:none;}</style></defs><path class="a" d="M101,118h1V451h-1Z"/><path class="b" d="M0,366H101v53H0Z"/><path class="c" d="M.448-1.84a6.318,6.318,0,0,0,4.576,2C7.776.16,9.3-1.424,9.3-3.216c0-1.648-.96-2.576-3.408-3.008L4.1-6.528C2.72-6.768,1.984-7.2,1.984-8.3c0-1.392,1.344-2,2.672-2a5.937,5.937,0,0,1,3.728,1.36l.72-.928a7.091,7.091,0,0,0-4.416-1.472C2.64-11.344.8-10.32.8-8.208c0,1.584.944,2.432,2.96,2.784l1.808.3c1.808.32,2.5.848,2.5,1.968C8.064-1.9,6.912-.9,5.072-.9A5.393,5.393,0,0,1,1.216-2.7ZM10.944-3.9A3.907,3.907,0,0,0,14.816.144,4.5,4.5,0,0,0,17.744-.9l-.736-.8a3.191,3.191,0,0,1-2.144.8A2.81,2.81,0,0,1,12.1-3.664h6.128V-4A3.7,3.7,0,0,0,14.64-7.936,3.812,3.812,0,0,0,10.944-3.9Zm3.68-3.008A2.572,2.572,0,0,1,17.056-4.48H12.128A2.581,2.581,0,0,1,14.624-6.912Zm9.088,6A2.817,2.817,0,0,1,20.992-3.9a2.832,2.832,0,0,1,2.72-2.976,2.983,2.983,0,0,1,2.144.976l.752-.816A4.146,4.146,0,0,0,23.7-7.936,3.912,3.912,0,0,0,19.824-3.9,3.926,3.926,0,0,0,23.7.144,3.955,3.955,0,0,0,26.56-1.12l-.72-.72A2.791,2.791,0,0,1,23.712-.912Zm5.68-.848c0,1.216.688,1.9,2.048,1.9a4.713,4.713,0,0,0,1.376-.208V-1.1a2.881,2.881,0,0,1-1.1.208c-.832,0-1.152-.336-1.152-1.168V-6.848h2.256v-.96H30.56v-2.256l-1.168.272v1.984H27.776v.96h1.616ZM35.04-9.776a.83.83,0,0,0,.832-.848.826.826,0,0,0-.832-.832.826.826,0,0,0-.832.832A.83.83,0,0,0,35.04-9.776Zm.576,1.968H34.448V0h1.168ZM37.6-3.9A3.867,3.867,0,0,0,41.392.16,3.873,3.873,0,0,0,45.216-3.9a3.845,3.845,0,0,0-3.824-4.032A3.839,3.839,0,0,0,37.6-3.9Zm6.448.016A2.756,2.756,0,0,1,41.392-.88a2.742,2.742,0,0,1-2.624-3.008,2.767,2.767,0,0,1,2.624-3.024A2.771,2.771,0,0,1,44.048-3.888ZM47.184,0h1.168V-5.76A2.32,2.32,0,0,1,50.4-6.96a2.023,2.023,0,0,1,2.1,2.24V0h1.168V-5.056a2.722,2.722,0,0,0-2.816-2.88,2.813,2.813,0,0,0-2.5,1.408v-1.28H47.184ZM59.648-5.6l.8.256a5.424,5.424,0,0,1,2.448-.64A2.5,2.5,0,0,1,65.7-3.5,2.583,2.583,0,0,1,62.944-.832a4.17,4.17,0,0,1-3.088-1.312l-.72.784A5.33,5.33,0,0,0,62.944.16a3.619,3.619,0,0,0,3.92-3.712c0-1.9-1.344-3.392-3.76-3.36a5.536,5.536,0,0,0-2.4.592l.176-3.872h5.392V-11.2H59.9Z" transform="translate(16 398)"/><path class="a" d="M0,365H101v1H0Z"/><path class="b" d="M0,312H101v53H0Z"/><path class="c" d="M.448-1.84a6.318,6.318,0,0,0,4.576,2C7.776.16,9.3-1.424,9.3-3.216c0-1.648-.96-2.576-3.408-3.008L4.1-6.528C2.72-6.768,1.984-7.2,1.984-8.3c0-1.392,1.344-2,2.672-2a5.937,5.937,0,0,1,3.728,1.36l.72-.928a7.091,7.091,0,0,0-4.416-1.472C2.64-11.344.8-10.32.8-8.208c0,1.584.944,2.432,2.96,2.784l1.808.3c1.808.32,2.5.848,2.5,1.968C8.064-1.9,6.912-.9,5.072-.9A5.393,5.393,0,0,1,1.216-2.7ZM10.944-3.9A3.907,3.907,0,0,0,14.816.144,4.5,4.5,0,0,0,17.744-.9l-.736-.8a3.191,3.191,0,0,1-2.144.8A2.81,2.81,0,0,1,12.1-3.664h6.128V-4A3.7,3.7,0,0,0,14.64-7.936,3.812,3.812,0,0,0,10.944-3.9Zm3.68-3.008A2.572,2.572,0,0,1,17.056-4.48H12.128A2.581,2.581,0,0,1,14.624-6.912Zm9.088,6A2.817,2.817,0,0,1,20.992-3.9a2.832,2.832,0,0,1,2.72-2.976,2.983,2.983,0,0,1,2.144.976l.752-.816A4.146,4.146,0,0,0,23.7-7.936,3.912,3.912,0,0,0,19.824-3.9,3.926,3.926,0,0,0,23.7.144,3.955,3.955,0,0,0,26.56-1.12l-.72-.72A2.791,2.791,0,0,1,23.712-.912Zm5.68-.848c0,1.216.688,1.9,2.048,1.9a4.713,4.713,0,0,0,1.376-.208V-1.1a2.881,2.881,0,0,1-1.1.208c-.832,0-1.152-.336-1.152-1.168V-6.848h2.256v-.96H30.56v-2.256l-1.168.272v1.984H27.776v.96h1.616ZM35.04-9.776a.83.83,0,0,0,.832-.848.826.826,0,0,0-.832-.832.826.826,0,0,0-.832.832A.83.83,0,0,0,35.04-9.776Zm.576,1.968H34.448V0h1.168ZM37.6-3.9A3.867,3.867,0,0,0,41.392.16,3.873,3.873,0,0,0,45.216-3.9a3.845,3.845,0,0,0-3.824-4.032A3.839,3.839,0,0,0,37.6-3.9Zm6.448.016A2.756,2.756,0,0,1,41.392-.88a2.742,2.742,0,0,1-2.624-3.008,2.767,2.767,0,0,1,2.624-3.024A2.771,2.771,0,0,1,44.048-3.888ZM47.184,0h1.168V-5.76A2.32,2.32,0,0,1,50.4-6.96a2.023,2.023,0,0,1,2.1,2.24V0h1.168V-5.056a2.722,2.722,0,0,0-2.816-2.88,2.813,2.813,0,0,0-2.5,1.408v-1.28H47.184ZM66.352-11.2H65.12L59.168-3.9v.912h6.048V0h1.136V-2.992H67.9V-4H66.352ZM60.528-4l4.688-5.792V-4Z" transform="translate(16 344)"/><path class="a" d="M0,311H101v1H0Z"/><path class="d" d="M0,258H102v53H0Z"/><path class="e" d="M.448-1.84a6.318,6.318,0,0,0,4.576,2C7.776.16,9.3-1.424,9.3-3.216c0-1.648-.96-2.576-3.408-3.008L4.1-6.528C2.72-6.768,1.984-7.2,1.984-8.3c0-1.392,1.344-2,2.672-2a5.937,5.937,0,0,1,3.728,1.36l.72-.928a7.091,7.091,0,0,0-4.416-1.472C2.64-11.344.8-10.32.8-8.208c0,1.584.944,2.432,2.96,2.784l1.808.3c1.808.32,2.5.848,2.5,1.968C8.064-1.9,6.912-.9,5.072-.9A5.393,5.393,0,0,1,1.216-2.7ZM10.944-3.9A3.907,3.907,0,0,0,14.816.144,4.5,4.5,0,0,0,17.744-.9l-.736-.8a3.191,3.191,0,0,1-2.144.8A2.81,2.81,0,0,1,12.1-3.664h6.128V-4A3.7,3.7,0,0,0,14.64-7.936,3.812,3.812,0,0,0,10.944-3.9Zm3.68-3.008A2.572,2.572,0,0,1,17.056-4.48H12.128A2.581,2.581,0,0,1,14.624-6.912Zm9.088,6A2.817,2.817,0,0,1,20.992-3.9a2.832,2.832,0,0,1,2.72-2.976,2.983,2.983,0,0,1,2.144.976l.752-.816A4.146,4.146,0,0,0,23.7-7.936,3.912,3.912,0,0,0,19.824-3.9,3.926,3.926,0,0,0,23.7.144,3.955,3.955,0,0,0,26.56-1.12l-.72-.72A2.791,2.791,0,0,1,23.712-.912Zm5.68-.848c0,1.216.688,1.9,2.048,1.9a4.713,4.713,0,0,0,1.376-.208V-1.1a2.881,2.881,0,0,1-1.1.208c-.832,0-1.152-.336-1.152-1.168V-6.848h2.256v-.96H30.56v-2.256l-1.168.272v1.984H27.776v.96h1.616ZM35.04-9.776a.83.83,0,0,0,.832-.848.826.826,0,0,0-.832-.832.826.826,0,0,0-.832.832A.83.83,0,0,0,35.04-9.776Zm.576,1.968H34.448V0h1.168ZM37.6-3.9A3.867,3.867,0,0,0,41.392.16,3.873,3.873,0,0,0,45.216-3.9a3.845,3.845,0,0,0-3.824-4.032A3.839,3.839,0,0,0,37.6-3.9Zm6.448.016A2.756,2.756,0,0,1,41.392-.88a2.742,2.742,0,0,1-2.624-3.008,2.767,2.767,0,0,1,2.624-3.024A2.771,2.771,0,0,1,44.048-3.888ZM47.184,0h1.168V-5.76A2.32,2.32,0,0,1,50.4-6.96a2.023,2.023,0,0,1,2.1,2.24V0h1.168V-5.056a2.722,2.722,0,0,0-2.816-2.88,2.813,2.813,0,0,0-2.5,1.408v-1.28H47.184ZM66.96-3.072A2.879,2.879,0,0,0,64.448-5.76a2.7,2.7,0,0,0,2.1-2.544c0-1.744-1.52-3.072-3.568-3.072A4.969,4.969,0,0,0,59.264-9.76l.768.768a3.746,3.746,0,0,1,2.928-1.36A2.257,2.257,0,0,1,65.392-8.24a1.932,1.932,0,0,1-2.048,2.016h-1.28v.992h1.328A2.216,2.216,0,0,1,65.808-3.1c0,1.328-1.136,2.256-2.784,2.256a4.089,4.089,0,0,1-3.136-1.328l-.768.752A5.4,5.4,0,0,0,63.04.16C65.312.16,66.96-1.2,66.96-3.072Z" transform="translate(16 290)"/><path class="f" d="M0,258H3v53H0Z"/><path class="a" d="M0,257H101v1H0Z"/><path class="b" d="M0,204H101v53H0Z"/><path class="c" d="M.448-1.84a6.318,6.318,0,0,0,4.576,2C7.776.16,9.3-1.424,9.3-3.216c0-1.648-.96-2.576-3.408-3.008L4.1-6.528C2.72-6.768,1.984-7.2,1.984-8.3c0-1.392,1.344-2,2.672-2a5.937,5.937,0,0,1,3.728,1.36l.72-.928a7.091,7.091,0,0,0-4.416-1.472C2.64-11.344.8-10.32.8-8.208c0,1.584.944,2.432,2.96,2.784l1.808.3c1.808.32,2.5.848,2.5,1.968C8.064-1.9,6.912-.9,5.072-.9A5.393,5.393,0,0,1,1.216-2.7ZM10.944-3.9A3.907,3.907,0,0,0,14.816.144,4.5,4.5,0,0,0,17.744-.9l-.736-.8a3.191,3.191,0,0,1-2.144.8A2.81,2.81,0,0,1,12.1-3.664h6.128V-4A3.7,3.7,0,0,0,14.64-7.936,3.812,3.812,0,0,0,10.944-3.9Zm3.68-3.008A2.572,2.572,0,0,1,17.056-4.48H12.128A2.581,2.581,0,0,1,14.624-6.912Zm9.088,6A2.817,2.817,0,0,1,20.992-3.9a2.832,2.832,0,0,1,2.72-2.976,2.983,2.983,0,0,1,2.144.976l.752-.816A4.146,4.146,0,0,0,23.7-7.936,3.912,3.912,0,0,0,19.824-3.9,3.926,3.926,0,0,0,23.7.144,3.955,3.955,0,0,0,26.56-1.12l-.72-.72A2.791,2.791,0,0,1,23.712-.912Zm5.68-.848c0,1.216.688,1.9,2.048,1.9a4.713,4.713,0,0,0,1.376-.208V-1.1a2.881,2.881,0,0,1-1.1.208c-.832,0-1.152-.336-1.152-1.168V-6.848h2.256v-.96H30.56v-2.256l-1.168.272v1.984H27.776v.96h1.616ZM35.04-9.776a.83.83,0,0,0,.832-.848.826.826,0,0,0-.832-.832.826.826,0,0,0-.832.832A.83.83,0,0,0,35.04-9.776Zm.576,1.968H34.448V0h1.168ZM37.6-3.9A3.867,3.867,0,0,0,41.392.16,3.873,3.873,0,0,0,45.216-3.9a3.845,3.845,0,0,0-3.824-4.032A3.839,3.839,0,0,0,37.6-3.9Zm6.448.016A2.756,2.756,0,0,1,41.392-.88a2.742,2.742,0,0,1-2.624-3.008,2.767,2.767,0,0,1,2.624-3.024A2.771,2.771,0,0,1,44.048-3.888ZM47.184,0h1.168V-5.76A2.32,2.32,0,0,1,50.4-6.96a2.023,2.023,0,0,1,2.1,2.24V0h1.168V-5.056a2.722,2.722,0,0,0-2.816-2.88,2.813,2.813,0,0,0-2.5,1.408v-1.28H47.184Zm12.16,0H66.56V-1.008H60.816l3.76-4.16C65.776-6.5,66.32-7.2,66.32-8.432c0-1.68-1.44-2.912-3.472-2.912A5.271,5.271,0,0,0,59.2-9.76l.672.8a4.114,4.114,0,0,1,2.96-1.36,2.106,2.106,0,0,1,2.352,1.952c0,.848-.384,1.44-1.392,2.576L59.344-.848Z" transform="translate(16 236)"/><path class="a" d="M0,203H101v1H0Z"/><path class="b" d="M0,150H101v53H0Z"/><path class="c" d="M.448-1.84a6.318,6.318,0,0,0,4.576,2C7.776.16,9.3-1.424,9.3-3.216c0-1.648-.96-2.576-3.408-3.008L4.1-6.528C2.72-6.768,1.984-7.2,1.984-8.3c0-1.392,1.344-2,2.672-2a5.937,5.937,0,0,1,3.728,1.36l.72-.928a7.091,7.091,0,0,0-4.416-1.472C2.64-11.344.8-10.32.8-8.208c0,1.584.944,2.432,2.96,2.784l1.808.3c1.808.32,2.5.848,2.5,1.968C8.064-1.9,6.912-.9,5.072-.9A5.393,5.393,0,0,1,1.216-2.7ZM10.944-3.9A3.907,3.907,0,0,0,14.816.144,4.5,4.5,0,0,0,17.744-.9l-.736-.8a3.191,3.191,0,0,1-2.144.8A2.81,2.81,0,0,1,12.1-3.664h6.128V-4A3.7,3.7,0,0,0,14.64-7.936,3.812,3.812,0,0,0,10.944-3.9Zm3.68-3.008A2.572,2.572,0,0,1,17.056-4.48H12.128A2.581,2.581,0,0,1,14.624-6.912Zm9.088,6A2.817,2.817,0,0,1,20.992-3.9a2.832,2.832,0,0,1,2.72-2.976,2.983,2.983,0,0,1,2.144.976l.752-.816A4.146,4.146,0,0,0,23.7-7.936,3.912,3.912,0,0,0,19.824-3.9,3.926,3.926,0,0,0,23.7.144,3.955,3.955,0,0,0,26.56-1.12l-.72-.72A2.791,2.791,0,0,1,23.712-.912Zm5.68-.848c0,1.216.688,1.9,2.048,1.9a4.713,4.713,0,0,0,1.376-.208V-1.1a2.881,2.881,0,0,1-1.1.208c-.832,0-1.152-.336-1.152-1.168V-6.848h2.256v-.96H30.56v-2.256l-1.168.272v1.984H27.776v.96h1.616ZM35.04-9.776a.83.83,0,0,0,.832-.848.826.826,0,0,0-.832-.832.826.826,0,0,0-.832.832A.83.83,0,0,0,35.04-9.776Zm.576,1.968H34.448V0h1.168ZM37.6-3.9A3.867,3.867,0,0,0,41.392.16,3.873,3.873,0,0,0,45.216-3.9a3.845,3.845,0,0,0-3.824-4.032A3.839,3.839,0,0,0,37.6-3.9Zm6.448.016A2.756,2.756,0,0,1,41.392-.88a2.742,2.742,0,0,1-2.624-3.008,2.767,2.767,0,0,1,2.624-3.024A2.771,2.771,0,0,1,44.048-3.888ZM47.184,0h1.168V-5.76A2.32,2.32,0,0,1,50.4-6.96a2.023,2.023,0,0,1,2.1,2.24V0h1.168V-5.056a2.722,2.722,0,0,0-2.816-2.88,2.813,2.813,0,0,0-2.5,1.408v-1.28H47.184Zm14.96-11.2h-.72l-2.224.992v1.056l1.792-.8V0h1.152Z" transform="translate(16 182)"/><g class="g" transform="translate(0 366)"><rect class="l" width="101" height="53" rx="3"/><rect class="m" x="1" y="1" width="99" height="51" rx="2"/></g><g class="h" transform="translate(0 312)"><rect class="l" width="101" height="53" rx="3"/><rect class="m" x="1" y="1" width="99" height="51" rx="2"/></g><g class="i" transform="translate(0 258)"><rect class="l" width="101" height="53" rx="3"/><rect class="m" x="1" y="1" width="99" height="51" rx="2"/></g><g class="j" transform="translate(0 204)"><rect class="l" width="101" height="53" rx="3"/><rect class="m" x="1" y="1" width="99" height="51" rx="2"/></g><g class="k" transform="translate(0 150)"><rect class="l" width="101" height="53" rx="3"/><rect class="m" x="1" y="1" width="99" height="51" rx="2"/></g><path class="a" d="M0,53H872v1H0Z"/><path class="c" d="M.448-1.84a6.318,6.318,0,0,0,4.576,2C7.776.16,9.3-1.424,9.3-3.216c0-1.648-.96-2.576-3.408-3.008L4.1-6.528C2.72-6.768,1.984-7.2,1.984-8.3c0-1.392,1.344-2,2.672-2a5.937,5.937,0,0,1,3.728,1.36l.72-.928a7.091,7.091,0,0,0-4.416-1.472C2.64-11.344.8-10.32.8-8.208c0,1.584.944,2.432,2.96,2.784l1.808.3c1.808.32,2.5.848,2.5,1.968C8.064-1.9,6.912-.9,5.072-.9A5.393,5.393,0,0,1,1.216-2.7ZM10.944-3.9A3.907,3.907,0,0,0,14.816.144,4.5,4.5,0,0,0,17.744-.9l-.736-.8a3.191,3.191,0,0,1-2.144.8A2.81,2.81,0,0,1,12.1-3.664h6.128V-4A3.7,3.7,0,0,0,14.64-7.936,3.812,3.812,0,0,0,10.944-3.9Zm3.68-3.008A2.572,2.572,0,0,1,17.056-4.48H12.128A2.581,2.581,0,0,1,14.624-6.912Zm9.088,6A2.817,2.817,0,0,1,20.992-3.9a2.832,2.832,0,0,1,2.72-2.976,2.983,2.983,0,0,1,2.144.976l.752-.816A4.146,4.146,0,0,0,23.7-7.936,3.912,3.912,0,0,0,19.824-3.9,3.926,3.926,0,0,0,23.7.144,3.955,3.955,0,0,0,26.56-1.12l-.72-.72A2.791,2.791,0,0,1,23.712-.912Zm5.68-.848c0,1.216.688,1.9,2.048,1.9a4.713,4.713,0,0,0,1.376-.208V-1.1a2.881,2.881,0,0,1-1.1.208c-.832,0-1.152-.336-1.152-1.168V-6.848h2.256v-.96H30.56v-2.256l-1.168.272v1.984H27.776v.96h1.616ZM35.04-9.776a.83.83,0,0,0,.832-.848.826.826,0,0,0-.832-.832.826.826,0,0,0-.832.832A.83.83,0,0,0,35.04-9.776Zm.576,1.968H34.448V0h1.168ZM37.6-3.9A3.867,3.867,0,0,0,41.392.16,3.873,3.873,0,0,0,45.216-3.9a3.845,3.845,0,0,0-3.824-4.032A3.839,3.839,0,0,0,37.6-3.9Zm6.448.016A2.756,2.756,0,0,1,41.392-.88a2.742,2.742,0,0,1-2.624-3.008,2.767,2.767,0,0,1,2.624-3.024A2.771,2.771,0,0,1,44.048-3.888ZM47.184,0h1.168V-5.76A2.32,2.32,0,0,1,50.4-6.96a2.023,2.023,0,0,1,2.1,2.24V0h1.168V-5.056a2.722,2.722,0,0,0-2.816-2.88,2.813,2.813,0,0,0-2.5,1.408v-1.28H47.184ZM59.648-5.6l.8.256a5.424,5.424,0,0,1,2.448-.64A2.5,2.5,0,0,1,65.7-3.5,2.583,2.583,0,0,1,62.944-.832a4.17,4.17,0,0,1-3.088-1.312l-.72.784A5.33,5.33,0,0,0,62.944.16a3.619,3.619,0,0,0,3.92-3.712c0-1.9-1.344-3.392-3.76-3.36a5.536,5.536,0,0,0-2.4.592l.176-3.872h5.392V-11.2H59.9Z" transform="translate(665 32)"/><path class="c" d="M.448-1.84a6.318,6.318,0,0,0,4.576,2C7.776.16,9.3-1.424,9.3-3.216c0-1.648-.96-2.576-3.408-3.008L4.1-6.528C2.72-6.768,1.984-7.2,1.984-8.3c0-1.392,1.344-2,2.672-2a5.937,5.937,0,0,1,3.728,1.36l.72-.928a7.091,7.091,0,0,0-4.416-1.472C2.64-11.344.8-10.32.8-8.208c0,1.584.944,2.432,2.96,2.784l1.808.3c1.808.32,2.5.848,2.5,1.968C8.064-1.9,6.912-.9,5.072-.9A5.393,5.393,0,0,1,1.216-2.7ZM10.944-3.9A3.907,3.907,0,0,0,14.816.144,4.5,4.5,0,0,0,17.744-.9l-.736-.8a3.191,3.191,0,0,1-2.144.8A2.81,2.81,0,0,1,12.1-3.664h6.128V-4A3.7,3.7,0,0,0,14.64-7.936,3.812,3.812,0,0,0,10.944-3.9Zm3.68-3.008A2.572,2.572,0,0,1,17.056-4.48H12.128A2.581,2.581,0,0,1,14.624-6.912Zm9.088,6A2.817,2.817,0,0,1,20.992-3.9a2.832,2.832,0,0,1,2.72-2.976,2.983,2.983,0,0,1,2.144.976l.752-.816A4.146,4.146,0,0,0,23.7-7.936,3.912,3.912,0,0,0,19.824-3.9,3.926,3.926,0,0,0,23.7.144,3.955,3.955,0,0,0,26.56-1.12l-.72-.72A2.791,2.791,0,0,1,23.712-.912Zm5.68-.848c0,1.216.688,1.9,2.048,1.9a4.713,4.713,0,0,0,1.376-.208V-1.1a2.881,2.881,0,0,1-1.1.208c-.832,0-1.152-.336-1.152-1.168V-6.848h2.256v-.96H30.56v-2.256l-1.168.272v1.984H27.776v.96h1.616ZM35.04-9.776a.83.83,0,0,0,.832-.848.826.826,0,0,0-.832-.832.826.826,0,0,0-.832.832A.83.83,0,0,0,35.04-9.776Zm.576,1.968H34.448V0h1.168ZM37.6-3.9A3.867,3.867,0,0,0,41.392.16,3.873,3.873,0,0,0,45.216-3.9a3.845,3.845,0,0,0-3.824-4.032A3.839,3.839,0,0,0,37.6-3.9Zm6.448.016A2.756,2.756,0,0,1,41.392-.88a2.742,2.742,0,0,1-2.624-3.008,2.767,2.767,0,0,1,2.624-3.024A2.771,2.771,0,0,1,44.048-3.888ZM47.184,0h1.168V-5.76A2.32,2.32,0,0,1,50.4-6.96a2.023,2.023,0,0,1,2.1,2.24V0h1.168V-5.056a2.722,2.722,0,0,0-2.816-2.88,2.813,2.813,0,0,0-2.5,1.408v-1.28H47.184ZM66.352-11.2H65.12L59.168-3.9v.912h6.048V0h1.136V-2.992H67.9V-4H66.352ZM60.528-4l4.688-5.792V-4Z" transform="translate(532 32)"/><path class="f" d="M368,51H500v3H368Z"/><path class="e" d="M.448-1.84a6.318,6.318,0,0,0,4.576,2C7.776.16,9.3-1.424,9.3-3.216c0-1.648-.96-2.576-3.408-3.008L4.1-6.528C2.72-6.768,1.984-7.2,1.984-8.3c0-1.392,1.344-2,2.672-2a5.937,5.937,0,0,1,3.728,1.36l.72-.928a7.091,7.091,0,0,0-4.416-1.472C2.64-11.344.8-10.32.8-8.208c0,1.584.944,2.432,2.96,2.784l1.808.3c1.808.32,2.5.848,2.5,1.968C8.064-1.9,6.912-.9,5.072-.9A5.393,5.393,0,0,1,1.216-2.7ZM10.944-3.9A3.907,3.907,0,0,0,14.816.144,4.5,4.5,0,0,0,17.744-.9l-.736-.8a3.191,3.191,0,0,1-2.144.8A2.81,2.81,0,0,1,12.1-3.664h6.128V-4A3.7,3.7,0,0,0,14.64-7.936,3.812,3.812,0,0,0,10.944-3.9Zm3.68-3.008A2.572,2.572,0,0,1,17.056-4.48H12.128A2.581,2.581,0,0,1,14.624-6.912Zm9.088,6A2.817,2.817,0,0,1,20.992-3.9a2.832,2.832,0,0,1,2.72-2.976,2.983,2.983,0,0,1,2.144.976l.752-.816A4.146,4.146,0,0,0,23.7-7.936,3.912,3.912,0,0,0,19.824-3.9,3.926,3.926,0,0,0,23.7.144,3.955,3.955,0,0,0,26.56-1.12l-.72-.72A2.791,2.791,0,0,1,23.712-.912Zm5.68-.848c0,1.216.688,1.9,2.048,1.9a4.713,4.713,0,0,0,1.376-.208V-1.1a2.881,2.881,0,0,1-1.1.208c-.832,0-1.152-.336-1.152-1.168V-6.848h2.256v-.96H30.56v-2.256l-1.168.272v1.984H27.776v.96h1.616ZM35.04-9.776a.83.83,0,0,0,.832-.848.826.826,0,0,0-.832-.832.826.826,0,0,0-.832.832A.83.83,0,0,0,35.04-9.776Zm.576,1.968H34.448V0h1.168ZM37.6-3.9A3.867,3.867,0,0,0,41.392.16,3.873,3.873,0,0,0,45.216-3.9a3.845,3.845,0,0,0-3.824-4.032A3.839,3.839,0,0,0,37.6-3.9Zm6.448.016A2.756,2.756,0,0,1,41.392-.88a2.742,2.742,0,0,1-2.624-3.008,2.767,2.767,0,0,1,2.624-3.024A2.771,2.771,0,0,1,44.048-3.888ZM47.184,0h1.168V-5.76A2.32,2.32,0,0,1,50.4-6.96a2.023,2.023,0,0,1,2.1,2.24V0h1.168V-5.056a2.722,2.722,0,0,0-2.816-2.88,2.813,2.813,0,0,0-2.5,1.408v-1.28H47.184ZM66.96-3.072A2.879,2.879,0,0,0,64.448-5.76a2.7,2.7,0,0,0,2.1-2.544c0-1.744-1.52-3.072-3.568-3.072A4.969,4.969,0,0,0,59.264-9.76l.768.768a3.746,3.746,0,0,1,2.928-1.36A2.257,2.257,0,0,1,65.392-8.24a1.932,1.932,0,0,1-2.048,2.016h-1.28v.992h1.328A2.216,2.216,0,0,1,65.808-3.1c0,1.328-1.136,2.256-2.784,2.256a4.089,4.089,0,0,1-3.136-1.328l-.768.752A5.4,5.4,0,0,0,63.04.16C65.312.16,66.96-1.2,66.96-3.072Z" transform="translate(400 32)"/><path class="c" d="M.448-1.84a6.318,6.318,0,0,0,4.576,2C7.776.16,9.3-1.424,9.3-3.216c0-1.648-.96-2.576-3.408-3.008L4.1-6.528C2.72-6.768,1.984-7.2,1.984-8.3c0-1.392,1.344-2,2.672-2a5.937,5.937,0,0,1,3.728,1.36l.72-.928a7.091,7.091,0,0,0-4.416-1.472C2.64-11.344.8-10.32.8-8.208c0,1.584.944,2.432,2.96,2.784l1.808.3c1.808.32,2.5.848,2.5,1.968C8.064-1.9,6.912-.9,5.072-.9A5.393,5.393,0,0,1,1.216-2.7ZM10.944-3.9A3.907,3.907,0,0,0,14.816.144,4.5,4.5,0,0,0,17.744-.9l-.736-.8a3.191,3.191,0,0,1-2.144.8A2.81,2.81,0,0,1,12.1-3.664h6.128V-4A3.7,3.7,0,0,0,14.64-7.936,3.812,3.812,0,0,0,10.944-3.9Zm3.68-3.008A2.572,2.572,0,0,1,17.056-4.48H12.128A2.581,2.581,0,0,1,14.624-6.912Zm9.088,6A2.817,2.817,0,0,1,20.992-3.9a2.832,2.832,0,0,1,2.72-2.976,2.983,2.983,0,0,1,2.144.976l.752-.816A4.146,4.146,0,0,0,23.7-7.936,3.912,3.912,0,0,0,19.824-3.9,3.926,3.926,0,0,0,23.7.144,3.955,3.955,0,0,0,26.56-1.12l-.72-.72A2.791,2.791,0,0,1,23.712-.912Zm5.68-.848c0,1.216.688,1.9,2.048,1.9a4.713,4.713,0,0,0,1.376-.208V-1.1a2.881,2.881,0,0,1-1.1.208c-.832,0-1.152-.336-1.152-1.168V-6.848h2.256v-.96H30.56v-2.256l-1.168.272v1.984H27.776v.96h1.616ZM35.04-9.776a.83.83,0,0,0,.832-.848.826.826,0,0,0-.832-.832.826.826,0,0,0-.832.832A.83.83,0,0,0,35.04-9.776Zm.576,1.968H34.448V0h1.168ZM37.6-3.9A3.867,3.867,0,0,0,41.392.16,3.873,3.873,0,0,0,45.216-3.9a3.845,3.845,0,0,0-3.824-4.032A3.839,3.839,0,0,0,37.6-3.9Zm6.448.016A2.756,2.756,0,0,1,41.392-.88a2.742,2.742,0,0,1-2.624-3.008,2.767,2.767,0,0,1,2.624-3.024A2.771,2.771,0,0,1,44.048-3.888ZM47.184,0h1.168V-5.76A2.32,2.32,0,0,1,50.4-6.96a2.023,2.023,0,0,1,2.1,2.24V0h1.168V-5.056a2.722,2.722,0,0,0-2.816-2.88,2.813,2.813,0,0,0-2.5,1.408v-1.28H47.184Zm12.16,0H66.56V-1.008H60.816l3.76-4.16C65.776-6.5,66.32-7.2,66.32-8.432c0-1.68-1.44-2.912-3.472-2.912A5.271,5.271,0,0,0,59.2-9.76l.672.8a4.114,4.114,0,0,1,2.96-1.36,2.106,2.106,0,0,1,2.352,1.952c0,.848-.384,1.44-1.392,2.576L59.344-.848Z" transform="translate(268 32)"/><path class="c" d="M.448-1.84a6.318,6.318,0,0,0,4.576,2C7.776.16,9.3-1.424,9.3-3.216c0-1.648-.96-2.576-3.408-3.008L4.1-6.528C2.72-6.768,1.984-7.2,1.984-8.3c0-1.392,1.344-2,2.672-2a5.937,5.937,0,0,1,3.728,1.36l.72-.928a7.091,7.091,0,0,0-4.416-1.472C2.64-11.344.8-10.32.8-8.208c0,1.584.944,2.432,2.96,2.784l1.808.3c1.808.32,2.5.848,2.5,1.968C8.064-1.9,6.912-.9,5.072-.9A5.393,5.393,0,0,1,1.216-2.7ZM10.944-3.9A3.907,3.907,0,0,0,14.816.144,4.5,4.5,0,0,0,17.744-.9l-.736-.8a3.191,3.191,0,0,1-2.144.8A2.81,2.81,0,0,1,12.1-3.664h6.128V-4A3.7,3.7,0,0,0,14.64-7.936,3.812,3.812,0,0,0,10.944-3.9Zm3.68-3.008A2.572,2.572,0,0,1,17.056-4.48H12.128A2.581,2.581,0,0,1,14.624-6.912Zm9.088,6A2.817,2.817,0,0,1,20.992-3.9a2.832,2.832,0,0,1,2.72-2.976,2.983,2.983,0,0,1,2.144.976l.752-.816A4.146,4.146,0,0,0,23.7-7.936,3.912,3.912,0,0,0,19.824-3.9,3.926,3.926,0,0,0,23.7.144,3.955,3.955,0,0,0,26.56-1.12l-.72-.72A2.791,2.791,0,0,1,23.712-.912Zm5.68-.848c0,1.216.688,1.9,2.048,1.9a4.713,4.713,0,0,0,1.376-.208V-1.1a2.881,2.881,0,0,1-1.1.208c-.832,0-1.152-.336-1.152-1.168V-6.848h2.256v-.96H30.56v-2.256l-1.168.272v1.984H27.776v.96h1.616ZM35.04-9.776a.83.83,0,0,0,.832-.848.826.826,0,0,0-.832-.832.826.826,0,0,0-.832.832A.83.83,0,0,0,35.04-9.776Zm.576,1.968H34.448V0h1.168ZM37.6-3.9A3.867,3.867,0,0,0,41.392.16,3.873,3.873,0,0,0,45.216-3.9a3.845,3.845,0,0,0-3.824-4.032A3.839,3.839,0,0,0,37.6-3.9Zm6.448.016A2.756,2.756,0,0,1,41.392-.88a2.742,2.742,0,0,1-2.624-3.008,2.767,2.767,0,0,1,2.624-3.024A2.771,2.771,0,0,1,44.048-3.888ZM47.184,0h1.168V-5.76A2.32,2.32,0,0,1,50.4-6.96a2.023,2.023,0,0,1,2.1,2.24V0h1.168V-5.056a2.722,2.722,0,0,0-2.816-2.88,2.813,2.813,0,0,0-2.5,1.408v-1.28H47.184Zm14.96-11.2h-.72l-2.224.992v1.056l1.792-.8V0h1.152Z" transform="translate(140 32)"/><g class="g" transform="translate(633)"><rect class="l" width="132" height="53" rx="3"/><rect class="m" x="1" y="1" width="130" height="51" rx="2"/></g><g class="h" transform="translate(500)"><rect class="l" width="133" height="53" rx="3"/><rect class="m" x="1" y="1" width="131" height="51" rx="2"/></g><g class="i" transform="translate(368)"><rect class="l" width="132" height="53" rx="3"/><rect class="m" x="1" y="1" width="130" height="51" rx="2"/></g><g class="j" transform="translate(236)"><rect class="l" width="132" height="53" rx="3"/><rect class="m" x="1" y="1" width="130" height="51" rx="2"/></g><g class="k" transform="translate(108)"><rect class="l" width="128" height="53" rx="3"/><rect class="m" x="1" y="1" width="126" height="51" rx="2"/></g></svg>