<svg xmlns="http://www.w3.org/2000/svg" width="555" height="79"><defs><filter id="a" x="414.5" y="52.5" width="21" height="26" filterUnits="userSpaceOnUse"><feOffset dy="2"/><feGaussianBlur stdDeviation="1.5" result="blur"/><feFlood flood-opacity=".251"/><feComposite operator="in" in2="blur"/><feComposite in="SourceGraphic"/></filter><filter id="b" x="19.5" y="52.5" width="21" height="26" filterUnits="userSpaceOnUse"><feOffset dy="2"/><feGaussianBlur stdDeviation="1.5" result="blur-2"/><feFlood flood-opacity=".251"/><feComposite operator="in" in2="blur-2"/><feComposite in="SourceGraphic"/></filter><filter id="c" x="272.5" y="52.5" width="21" height="26" filterUnits="userSpaceOnUse"><feOffset dy="2"/><feGaussianBlur stdDeviation="1.5" result="blur-3"/><feFlood flood-opacity=".251"/><feComposite operator="in" in2="blur-3"/><feComposite in="SourceGraphic"/></filter></defs><g data-name="Audio player" transform="translate(-360 -191)"><rect width="555" height="48" rx="3" transform="translate(360 222)" fill="#3c3f42"/><path data-name="Rectangle" fill="none" d="M875 230h32v32h-32z"/><path d="M899.568 244h-2.16c-.144-.429-.288-.714-.432-1.143l1.44-1.429a.432.432 0 000-.571l-2.3-2.286a.441.441 0 00-.576 0L894.1 240a9.971 9.971 0 00-1.152-.429v-2.142a.38.38 0 00-.432-.429h-3.172a.44.44 0 00-.432.429v2.142a4.325 4.325 0 00-1.152.571l-1.44-1.428a.441.441 0 00-.576 0l-2.304 2.143a.432.432 0 000 .571l1.44 1.429c-.144.429-.288.714-.432 1.143h-2.016a.38.38 0 00-.432.429v3.143a.38.38 0 00.432.429h2.16c.144.429.288.714.432 1.143l-1.44 1.429a.432.432 0 000 .571l2.3 2.286a.441.441 0 00.576 0l1.44-1.43a9.971 9.971 0 001.152.429v2.143a.38.38 0 00.432.429h3.168a.38.38 0 00.432-.429v-2.143c.432-.143.72-.286 1.152-.429l1.44 1.429a.441.441 0 00.576 0l2.3-2.286a.432.432 0 000-.571l-1.44-1.429a9.793 9.793 0 00.432-1.143h2.016a.38.38 0 00.432-.429v-3.142c.008-.461-.28-.429-.424-.429zm-5.76 2a2.877 2.877 0 01-2.88 2.857 2.756 2.756 0 01-2.736-2.857 2.756 2.756 0 012.736-2.857 2.877 2.877 0 012.88 2.857z" fill="#d2d2d2"/><g transform="translate(803 243)"><rect data-name="Rectangle" width="64" height="6" rx="3" fill="#8a8d90"/><path data-name="Rectangle" d="M3 0h29v6H3a3 3 0 01-3-3 3 3 0 013-3z" fill="#e00"/></g><g data-name="Focus indicator"><g data-name="Rectangle" transform="translate(803 243)" fill="none" stroke="#2261c5" stroke-width="2"><rect width="64" height="6" rx="3" stroke="none"/><rect x="-1" y="-1" width="66" height="8" rx="4"/></g></g><g transform="translate(827 238)" fill="#fff" stroke="#b8bbbe"><circle cx="8" cy="8" r="8" stroke="none"/><circle cx="8" cy="8" r="7.5" fill="none"/></g><g data-name="Button"><path data-name="Rectangle" fill="none" d="M763 230h32v32h-32z"/><path data-name="Icon" d="M781.414 237.111a.891.891 0 00-.867 0l-5.634 4.287h-4.046a.943.943 0 00-.867.887v7.39a.943.943 0 00.867.887h4.046l5.635 4.287c.144 0 .289.148.433.148a.523.523 0 00.433-.148.816.816 0 00.433-.739v-16.26a.816.816 0 00-.433-.739zm5.779 8.871l1.59-1.627a.915.915 0 000-1.183.864.864 0 00-1.156 0l-1.589 1.627-1.589-1.624a.864.864 0 00-1.156 0 .915.915 0 000 1.183l1.589 1.626-1.589 1.626a.915.915 0 000 1.183 1.086 1.086 0 00.578.3 1.086 1.086 0 00.578-.3l1.589-1.626 1.589 1.626a1.086 1.086 0 00.578.3 1.086 1.086 0 00.578-.3.915.915 0 000-1.183z" fill="#d2d2d2"/></g><rect data-name="Rectangle" width="32" height="32" rx="3" transform="translate(763 230)" fill="#fff" opacity=".3"/><g data-name="Focus indicator"><g data-name="Rectangle" transform="translate(763 230)" fill="none" stroke="#2261c5" stroke-width="2"><rect width="32" height="32" rx="3" stroke="none"/><rect x="-1" y="-1" width="34" height="34" rx="4"/></g></g><g transform="translate(360 191)" filter="url(#a)" data-name="Cursor"><g data-name="Cursor"><path d="M419.5 70.793V56.207L429.793 66.5h-6l-.147.146-4.146 4.147z"/><path d="M420 69.586l3.293-3.293.293-.293h5L420 57.414v12.172M419 72V55l12 12h-7l-5 5z" fill="#fff"/></g></g><path data-name="Path 3" d="M724.15 241.2h-.63l-1.946.868v.924l1.568-.7V251h1.008zm2.25 4.9l.7.224a4.746 4.746 0 012.142-.56 2.187 2.187 0 012.45 2.17 2.26 2.26 0 01-2.404 2.338 3.649 3.649 0 01-2.7-1.148l-.63.686a4.664 4.664 0 003.33 1.33 3.167 3.167 0 003.43-3.248 2.921 2.921 0 00-3.29-2.94 4.844 4.844 0 00-2.1.518l.154-3.388h4.718v-.882h-5.572zm8.7-2.338a.753.753 0 00-.742.77.75.75 0 00.742.756.747.747 0 00.728-.756.751.751 0 00-.728-.77zm0 5.824a.753.753 0 00-.742.77.75.75 0 00.742.756.747.747 0 00.728-.756.751.751 0 00-.728-.77zm6.3 1.554c2.212 0 3.808-2.016 3.808-5.04s-1.608-5.04-3.808-5.04-3.81 2.016-3.81 5.04 1.61 5.04 3.81 5.04zm0-.91c-1.666 0-2.814-1.568-2.814-4.13s1.146-4.13 2.814-4.13 2.814 1.568 2.814 4.13-1.136 4.13-2.814 4.13zm9.38.91c2.212 0 3.808-2.016 3.808-5.04s-1.61-5.04-3.808-5.04-3.81 2.016-3.81 5.04 1.61 5.04 3.808 5.04zm0-.91c-1.666 0-2.814-1.568-2.814-4.13s1.148-4.13 2.814-4.13 2.814 1.568 2.814 4.13-1.136 4.13-2.816 4.13z" fill="#fff"/><g data-name="Bar" transform="translate(408 243)"><rect data-name="Rectangle" width="305" height="6" rx="3" fill="#8a8d90"/><path data-name="Rectangle" d="M3 0h226v6H3a3 3 0 01-3-3 3 3 0 013-3z" fill="#e00"/></g><g data-name="Focus indicator"><g data-name="Rectangle" transform="translate(408 243)" fill="none" stroke="#2261c5" stroke-width="2"><rect width="305" height="6" rx="3" stroke="none"/><rect x="-1" y="-1" width="307" height="8" rx="4"/></g></g><g data-name="Ellipse" transform="translate(629 238)" fill="#fff" stroke="#b8bbbe"><circle cx="8" cy="8" r="8" stroke="none"/><circle cx="8" cy="8" r="7.5" fill="none"/></g><g data-name="Button"><path data-name="Rectangle" fill="none" d="M368 230h32v32h-32z"/><path data-name="Icon" d="M391.529 245.175l-14.117-8.054a.977.977 0 00-.941 0 .889.889 0 00-.471.805v16.108a.889.889 0 00.471.805.567.567 0 00.471.161.567.567 0 00.471-.161l14.116-8.054a.924.924 0 000-1.611z" fill="#d2d2d2"/></g><rect data-name="Rectangle" width="32" height="32" rx="3" transform="translate(368 230)" fill="#fff" opacity=".3"/><g data-name="Focus indicator"><g data-name="Rectangle" transform="translate(368 230)" fill="none" stroke="#2261c5" stroke-width="2"><rect width="32" height="32" rx="3" stroke="none"/><rect x="-1" y="-1" width="34" height="34" rx="4"/></g></g><g data-name="Cursor"><g transform="translate(360 191)" filter="url(#b)"><g data-name="Cursor"><path d="M24.5 70.793V56.207L34.793 66.5h-6l-.147.146-4.146 4.147z"/><path d="M25 69.586l3.293-3.293.293-.293h5L25 57.414v12.172M24 72V55l12 12h-7l-5 5z" fill="#fff"/></g></g></g></g><g filter="url(#c)" data-name="Cursor"><g data-name="Cursor"><path d="M277.5 70.793V56.207L287.793 66.5h-6l-.147.146-4.146 4.147z"/><path d="M278 69.586l3.293-3.293.293-.293h5L278 57.414v12.172M277 72V55l12 12h-7l-5 5z" fill="#fff"/></g></g><g transform="translate(-456 -3464)"><path d="M733 3504l-6-6h12z" fill="#fff"/><rect data-name="Rectangle" width="52" height="34" rx="3" transform="translate(707 3464)" fill="#fff"/><path data-name="Path 4" d="M715.542 3486h6.314v-.882h-5.026l3.29-3.64c1.05-1.162 1.526-1.778 1.526-2.856 0-1.47-1.26-2.548-3.038-2.548a4.612 4.612 0 00-3.192 1.386l.588.7a3.6 3.6 0 012.59-1.19 1.843 1.843 0 012.058 1.708c0 .742-.336 1.26-1.218 2.254l-3.892 4.326zm7.812 0h6.314v-.882h-5.026l3.29-3.64c1.05-1.162 1.526-1.778 1.526-2.856 0-1.47-1.26-2.548-3.038-2.548a4.612 4.612 0 00-3.192 1.386l.588.7a3.6 3.6 0 012.59-1.19 1.843 1.843 0 012.058 1.708c0 .742-.336 1.26-1.218 2.254l-3.892 4.326zm8.652-7.238a.753.753 0 00-.742.77.75.75 0 00.742.756.747.747 0 00.728-.756.751.751 0 00-.728-.77zm0 5.824a.753.753 0 00-.742.77.75.75 0 00.742.756.747.747 0 00.728-.756.751.751 0 00-.728-.77zm9.044-1.274a2.519 2.519 0 00-2.2-2.352 2.363 2.363 0 001.836-2.226 2.861 2.861 0 00-3.122-2.688 4.348 4.348 0 00-3.248 1.414l.672.672a3.278 3.278 0 012.562-1.19 1.975 1.975 0 012.128 1.848 1.69 1.69 0 01-1.792 1.764h-1.12v.868h1.162a1.939 1.939 0 012.114 1.862c0 1.162-.994 1.974-2.436 1.974a3.578 3.578 0 01-2.744-1.158l-.672.658a4.723 4.723 0 003.43 1.382c1.988 0 3.43-1.19 3.43-2.828zm5.488 2.828c2.212 0 3.808-2.016 3.808-5.04s-1.61-5.04-3.808-5.04-3.808 2.016-3.808 5.04 1.61 5.04 3.808 5.04zm0-.91c-1.666 0-2.814-1.568-2.814-4.13s1.148-4.13 2.814-4.13 2.814 1.568 2.814 4.13-1.134 4.13-2.814 4.13z" fill="#151515"/></g></svg>