<svg viewBox="0 0 570 502" fill="none" xmlns="http://www.w3.org/2000/svg">
  <path d="M0 0H567C568.657 0 570 1.34315 570 3V499C570 500.657 568.657 502 567 502H0V0Z" fill="#151515"/>
  <g clip-path="url(#clip0_20_4427)">
  <path d="M117.28 426.47L111.955 421.145C111.76 420.95 111.445 420.95 111.25 421.145C111.055 421.34 111.055 421.655 111.25 421.85L115.895 426.495H103.105C102.83 426.495 102.605 426.72 102.605 426.995C102.605 427.27 102.83 427.495 103.105 427.495H115.9L111.255 432.14C111.06 432.335 111.06 432.65 111.255 432.845C111.355 432.945 111.48 432.99 111.61 432.99C111.74 432.99 111.865 432.94 111.965 432.845L117.29 427.52C117.58 427.23 117.58 426.75 117.29 426.46L117.28 426.47Z" fill="white"/>
  </g>
  <g clip-path="url(#clip1_20_4427)">
  <path d="M158 419C153.59 419 150 422.59 150 427C150 431.41 153.59 435 158 435C162.41 435 166 431.41 166 427C166 422.59 162.41 419 158 419ZM161.535 427.56H158.56V430.535C158.56 430.845 158.31 431.095 158 431.095C157.69 431.095 157.44 430.845 157.44 430.535V427.56H154.465C154.155 427.56 153.905 427.31 153.905 427C153.905 426.69 154.155 426.44 154.465 426.44H157.44V423.465C157.44 423.155 157.69 422.905 158 422.905C158.31 422.905 158.56 423.155 158.56 423.465V426.44H161.535C161.845 426.44 162.095 426.69 162.095 427C162.095 427.31 161.845 427.56 161.535 427.56Z" fill="#B6A6E9"/>
  </g>
  <g clip-path="url(#clip2_20_4427)">
  <path d="M206.705 420.05C206.535 419.965 206.33 419.99 206.18 420.105L201.83 423.5H199.25C198.835 423.5 198.5 423.835 198.5 424.25V429.75C198.5 430.165 198.835 430.5 199.25 430.5H201.83L206.18 433.895C206.27 433.965 206.38 434 206.49 434C206.565 434 206.64 433.985 206.71 433.95C206.88 433.865 206.99 433.69 206.99 433.5V420.5C206.99 420.31 206.88 420.135 206.71 420.05H206.705ZM205.985 432.475L202.31 429.605C202.22 429.535 202.115 429.5 202 429.5H199.5V424.5H202C202.11 424.5 202.22 424.465 202.31 424.395L205.985 421.525V432.475Z" fill="white"/>
  <path d="M211.865 421.56C211.675 421.355 211.36 421.345 211.16 421.535C210.96 421.725 210.945 422.04 211.135 422.24C212.34 423.54 213 425.23 213 427C213 428.77 212.335 430.46 211.135 431.76C210.945 431.96 210.96 432.28 211.16 432.465C211.255 432.555 211.38 432.6 211.5 432.6C211.635 432.6 211.77 432.545 211.865 432.44C213.24 430.955 214 429.025 214 427C214 424.975 213.24 423.045 211.865 421.56Z" fill="white"/>
  <path d="M209.185 423.785C208.97 423.96 208.935 424.275 209.11 424.49C209.685 425.2 210 426.09 210 427.005C210 427.92 209.685 428.81 209.11 429.52C208.935 429.735 208.97 430.05 209.185 430.225C209.28 430.3 209.39 430.335 209.5 430.335C209.645 430.335 209.79 430.27 209.89 430.15C210.605 429.265 211 428.15 211 427.005C211 425.86 210.605 424.75 209.89 423.86C209.715 423.645 209.4 423.61 209.185 423.785Z" fill="white"/>
  </g>
  <g clip-path="url(#clip3_20_4427)">
  <path d="M261.355 422.235C261.29 422.09 261.155 421.98 261 421.95C260.835 421.92 260.665 421.97 260.55 422.09L257.93 424.71C257.685 424.955 257.35 425.075 257 425.045C256.65 425.01 256.345 424.83 256.145 424.53C255.84 424.08 255.92 423.45 256.33 423.035L258.91 420.455C259.03 420.335 259.08 420.17 259.05 420.005C259.02 419.845 258.915 419.71 258.765 419.645C258.12 419.365 257.44 419.23 256.725 419.245C254.09 419.29 251.87 421.56 251.875 424.2C251.875 424.7 251.955 425.195 252.105 425.67L246.92 430.86C246.475 431.305 246.235 431.9 246.255 432.53C246.27 433.16 246.54 433.74 247.01 434.165C247.42 434.535 247.95 434.72 248.495 434.72C249.12 434.72 249.75 434.48 250.23 434L255.34 428.895C255.815 429.045 256.31 429.125 256.81 429.125H256.825C259.455 429.125 261.715 426.905 261.765 424.275C261.775 423.565 261.64 422.88 261.365 422.24L261.355 422.235ZM249 432.75C248.585 432.75 248.25 432.415 248.25 432C248.25 431.585 248.585 431.25 249 431.25C249.415 431.25 249.75 431.585 249.75 432C249.75 432.415 249.415 432.75 249 432.75Z" fill="#63BDBD"/>
  </g>
  <g clip-path="url(#clip4_20_4427)">
  <path d="M299 434.5C298.87 434.5 298.745 434.45 298.645 434.355C298.45 434.16 298.45 433.845 298.645 433.65L305.29 427.005L298.645 420.355C298.45 420.16 298.45 419.845 298.645 419.65C298.84 419.455 299.155 419.455 299.35 419.65L306.175 426.475C306.465 426.765 306.465 427.245 306.175 427.535L299.35 434.36C299.25 434.46 299.125 434.505 298.995 434.505L299 434.5Z" fill="white"/>
  </g>
  <g clip-path="url(#clip5_20_4427)">
  <path d="M357.5 429H355.35C355.285 428.285 355.075 427.61 354.755 427H356C356.135 427 356.26 426.945 356.355 426.855L357.355 425.855C357.55 425.66 357.55 425.345 357.355 425.15C357.16 424.955 356.845 424.955 356.65 425.15L355.795 426.005H354.075C353.43 425.255 352.585 424.685 351.62 424.38C352.38 423.86 352.875 422.99 352.875 422.005C352.875 420.42 351.585 419.13 350 419.13C348.415 419.13 347.125 420.42 347.125 422.005C347.125 422.99 347.625 423.86 348.38 424.38C347.415 424.685 346.57 425.255 345.925 426.005H344.205L343.35 425.15C343.155 424.955 342.84 424.955 342.645 425.15C342.45 425.345 342.45 425.66 342.645 425.855L343.645 426.855C343.74 426.95 343.865 427 344 427H345.245C344.925 427.61 344.715 428.285 344.65 429H342.5C342.225 429 342 429.225 342 429.5C342 429.775 342.225 430 342.5 430H344.65C344.715 430.715 344.925 431.39 345.245 432H344C343.865 432 343.74 432.055 343.645 432.145L342.645 433.145C342.45 433.34 342.45 433.655 342.645 433.85C342.745 433.95 342.87 433.995 343 433.995C343.13 433.995 343.255 433.945 343.355 433.85L344.21 432.995H345.93C346.915 434.14 348.375 434.87 350 434.87C351.625 434.87 353.085 434.14 354.07 432.995H355.79L356.645 433.85C356.745 433.95 356.87 433.995 357 433.995C357.13 433.995 357.255 433.945 357.355 433.85C357.55 433.655 357.55 433.34 357.355 433.145L356.355 432.145C356.26 432.05 356.135 432 356 432H354.755C355.075 431.39 355.285 430.715 355.35 430H357.5C357.775 430 358 429.775 358 429.5C358 429.225 357.775 429 357.5 429Z" fill="#F4784A"/>
  </g>
  <g clip-path="url(#clip6_20_4427)">
  <path d="M393.5 428.5H391.5V420.5H399.5V422.5C399.5 422.775 399.725 423 400 423C400.275 423 400.5 422.775 400.5 422.5V420.25C400.5 419.835 400.165 419.5 399.75 419.5H391.25C390.835 419.5 390.5 419.835 390.5 420.25V428.75C390.5 429.165 390.835 429.5 391.25 429.5H393.5C393.775 429.5 394 429.275 394 429C394 428.725 393.775 428.5 393.5 428.5Z" fill="white"/>
  <path d="M404.75 424.5H396.25C395.835 424.5 395.5 424.835 395.5 425.25V433.75C395.5 434.165 395.835 434.5 396.25 434.5H404.75C405.165 434.5 405.5 434.165 405.5 433.75V425.25C405.5 424.835 405.165 424.5 404.75 424.5ZM404.5 433.5H396.5V425.5H404.5V433.5Z" fill="white"/>
  </g>
  <g clip-path="url(#clip7_20_4427)">
  <path d="M446 419C441.59 419 438 422.59 438 427C438 431.41 441.59 435 446 435C450.41 435 454 431.41 454 427C454 422.59 450.41 419 446 419ZM449.9 425.4L445.575 429.725C445.415 429.885 445.21 429.96 445 429.96C444.79 429.96 444.585 429.88 444.425 429.725L442.1 427.4C441.88 427.18 441.88 426.825 442.1 426.605C442.32 426.385 442.675 426.385 442.895 426.605L444.995 428.71L449.095 424.605C449.315 424.385 449.67 424.385 449.89 424.605C450.11 424.825 450.11 425.18 449.89 425.4H449.9Z" fill="#87BB62"/>
  </g>
  <circle cx="75" cy="427" r="11" fill="#B300B3"/>
  <path d="M74.8067 432.154C74.1347 432.154 73.5047 432.037 72.9167 431.804C72.3381 431.571 71.8247 431.225 71.3767 430.768L72.0487 430.11C72.4594 430.521 72.8794 430.819 73.3087 431.006C73.7474 431.183 74.2421 431.272 74.7927 431.272C75.2687 431.272 75.6887 431.188 76.0527 431.02C76.4261 430.852 76.7154 430.619 76.9207 430.32C77.1261 430.021 77.2287 429.681 77.2287 429.298C77.2287 428.934 77.1354 428.612 76.9487 428.332C76.7714 428.043 76.5241 427.819 76.2067 427.66C75.8894 427.501 75.5254 427.422 75.1147 427.422H73.9527V426.554H75.0727C75.6047 426.554 76.0341 426.391 76.3607 426.064C76.6967 425.737 76.8647 425.313 76.8647 424.79C76.8647 424.445 76.7714 424.132 76.5847 423.852C76.3981 423.572 76.1414 423.353 75.8147 423.194C75.4974 423.026 75.1381 422.942 74.7367 422.942C74.2327 422.942 73.7801 423.035 73.3787 423.222C72.9867 423.399 72.5854 423.703 72.1747 424.132L71.5027 423.46C71.9414 422.993 72.4361 422.643 72.9867 422.41C73.5374 422.167 74.1254 422.046 74.7507 422.046C75.3481 422.046 75.8801 422.163 76.3467 422.396C76.8227 422.629 77.1961 422.951 77.4667 423.362C77.7374 423.763 77.8727 424.221 77.8727 424.734C77.8727 425.247 77.7047 425.709 77.3687 426.12C77.0327 426.521 76.5894 426.801 76.0387 426.96C76.7014 427.109 77.2334 427.399 77.6347 427.828C78.0361 428.257 78.2367 428.757 78.2367 429.326C78.2367 429.867 78.0874 430.353 77.7887 430.782C77.4994 431.211 77.0934 431.547 76.5707 431.79C76.0574 432.033 75.4694 432.154 74.8067 432.154Z" fill="white"/>
  <g clip-path="url(#clip8_20_4427)">
  <path d="M422.98 297.24H387C377.744 297.24 370.24 304.744 370.24 314V349.98C370.24 359.237 377.744 366.74 387 366.74H422.98C432.236 366.74 439.74 359.237 439.74 349.98V314C439.74 304.744 432.236 297.24 422.98 297.24Z" fill="black"/>
  <path d="M423 298.5C431.54 298.5 438.5 305.46 438.5 314V350C438.5 358.54 431.54 365.5 423 365.5H387C378.46 365.5 371.5 358.54 371.5 350V314C371.5 305.46 378.46 298.5 387 298.5H423ZM423 296H387C377.06 296 369 304.06 369 314V350C369 359.94 377.06 368 387 368H423C432.94 368 441 359.94 441 350V314C441 304.06 432.94 296 423 296Z" fill="#4D4D4D"/>
  <path d="M398 353.04C397.8 353.04 397.58 352.98 397.4 352.88C396.8 352.54 396.58 351.78 396.92 351.18L403.92 338.58C404.26 337.98 405.02 337.76 405.62 338.1C406.22 338.44 406.44 339.2 406.1 339.8L399.1 352.4C398.88 352.82 398.44 353.04 398 353.04Z" fill="#EE0000"/>
  <path d="M398 353.04C397.56 353.04 397.14 352.8 396.9 352.4L385.9 332.6C385.68 332.22 385.68 331.76 385.9 331.38L396.9 311.58C397.24 310.98 398 310.76 398.6 311.1C399.2 311.44 399.42 312.2 399.08 312.8L388.42 332L399.08 351.2C399.42 351.8 399.2 352.56 398.6 352.9C398.4 353 398.2 353.06 398 353.06V353.04Z" fill="white"/>
  <path d="M413.1 352.4C412.98 352.6 412.82 352.78 412.6 352.9C412.42 353 412.2 353.04 412 353.04C411.56 353.04 411.14 352.82 410.9 352.4C410.7 352.04 410.7 351.58 410.9 351.2L412 349.22L413.1 351.2C413.3 351.58 413.3 352.04 413.1 352.4Z" fill="#EE0000"/>
  <path d="M405 326.04C404.56 326.04 404.14 325.8 403.9 325.4L396.9 312.8C396.56 312.2 396.78 311.44 397.38 311.1C397.98 310.76 398.74 310.98 399.08 311.58L406.08 324.18C406.42 324.78 406.2 325.54 405.6 325.88C405.4 325.98 405.2 326.04 405 326.04Z" fill="#EE0000"/>
  <path d="M413.1 352.4C412.98 352.6 412.82 352.78 412.6 352.9C412.42 353 412.2 353.04 412 353.04C411.56 353.04 411.14 352.82 410.9 352.4L405 341.78L403.56 339.2L399.9 332.6C399.7 332.22 399.7 331.78 399.9 331.4L403.56 324.8L405 322.22L410.9 311.6C410.7 311.96 410.7 312.42 410.9 312.8L412 314.78L406.08 325.42L402.42 332L406.08 338.58L412 349.22L413.1 351.2C413.3 351.58 413.3 352.04 413.1 352.4Z" fill="white"/>
  <path d="M424.08 332.62L413.1 352.4C413.3 352.04 413.3 351.58 413.1 351.2L412 349.22L421.56 332L412 314.78L410.9 312.8C410.7 312.42 410.7 311.96 410.9 311.6C411.02 311.4 411.18 311.22 411.4 311.1C412 310.78 412.76 311 413.1 311.6L424.08 331.38H424.1C424.32 331.8 424.3 332.26 424.08 332.62Z" fill="#EE0000"/>
  </g>
  <g clip-path="url(#clip9_20_4427)">
  <path d="M287 296H251C241.059 296 233 304.059 233 314V350C233 359.941 241.059 368 251 368H287C296.941 368 305 359.941 305 350V314C305 304.059 296.941 296 287 296Z" fill="black"/>
  <path d="M287 298.5C295.54 298.5 302.5 305.46 302.5 314V350C302.5 358.54 295.54 365.5 287 365.5H251C242.46 365.5 235.5 358.54 235.5 350V314C235.5 305.46 242.46 298.5 251 298.5H287ZM287 296H251C241.06 296 233 304.06 233 314V350C233 359.94 241.06 368 251 368H287C296.94 368 305 359.94 305 350V314C305 304.06 296.94 296 287 296Z" fill="#4D4D4D"/>
  <path d="M273.7 330.68C268.2 330.68 263.72 326.2 263.72 320.7C263.72 317.54 265.18 314.62 267.72 312.72C267.96 312.54 268.22 312.36 268.5 312.18C268.76 312.02 269.04 311.86 269.34 311.72C270.72 311.06 272.18 310.72 273.72 310.72C279.22 310.72 283.7 315.2 283.7 320.7C283.7 326.2 279.22 330.68 273.72 330.68H273.7ZM273.7 313.22C272.54 313.22 271.44 313.48 270.42 313.98C270.2 314.08 270 314.2 269.8 314.32C269.6 314.44 269.4 314.58 269.22 314.72C267.32 316.16 266.22 318.34 266.22 320.72C266.22 324.84 269.58 328.2 273.7 328.2C277.82 328.2 281.18 324.84 281.18 320.72C281.18 316.6 277.82 313.24 273.7 313.24V313.22Z" fill="#EE0000"/>
  <path d="M256.02 343.52C250.52 343.52 246.04 339.04 246.04 333.54C246.04 330.38 247.5 327.46 250.04 325.56C250.3 325.38 250.56 325.2 250.82 325.02C251.08 324.86 251.36 324.7 251.66 324.56C253.04 323.9 254.5 323.56 256.04 323.56C261.54 323.56 266.02 328.04 266.02 333.54C266.02 339.04 261.54 343.52 256.04 343.52H256.02ZM256.02 326.06C254.86 326.06 253.76 326.32 252.74 326.82C252.52 326.92 252.32 327.04 252.12 327.16C251.92 327.28 251.72 327.42 251.54 327.56C249.64 328.98 248.54 331.18 248.54 333.54C248.54 337.66 251.9 341.02 256.02 341.02C260.14 341.02 263.5 337.66 263.5 333.54C263.5 329.42 260.14 326.06 256.02 326.06Z" fill="#EE0000"/>
  <path d="M275.98 352.4C270.48 352.4 266 347.92 266 342.42C266 339.26 267.46 336.34 270 334.44C270.24 334.26 270.5 334.08 270.78 333.9C271.06 333.72 271.34 333.58 271.62 333.44C272.98 332.78 274.46 332.44 276 332.44C281.5 332.44 285.98 336.92 285.98 342.42C285.98 347.92 281.5 352.4 276 352.4H275.98ZM275.98 334.94C274.82 334.94 273.72 335.2 272.7 335.7C272.48 335.8 272.28 335.92 272.08 336.04C271.88 336.16 271.68 336.3 271.5 336.44C269.6 337.88 268.5 340.06 268.5 342.42C268.5 346.54 271.86 349.9 275.98 349.9C280.1 349.9 283.46 346.54 283.46 342.42C283.46 338.3 280.1 334.94 275.98 334.94Z" fill="#EE0000"/>
  <path d="M267.46 353.96C267.46 353.26 268.02 352.7 268.7 352.7C269.4 352.7 269.96 353.26 269.96 353.96C269.96 354.64 269.4 355.2 268.7 355.2C268.02 355.2 267.46 354.64 267.46 353.96ZM264.5 354.82C263.82 354.7 263.38 354.06 263.5 353.38C263.62 352.7 264.28 352.24 264.96 352.36C265.64 352.5 266.08 353.14 265.96 353.82C265.86 354.42 265.32 354.84 264.74 354.84C264.74 354.84 264.58 354.84 264.5 354.82ZM260.44 353.68C259.8 353.44 259.48 352.72 259.72 352.08C259.96 351.44 260.68 351.12 261.32 351.36C261.98 351.6 262.3 352.32 262.06 352.96C261.86 353.46 261.38 353.78 260.88 353.78C260.74 353.78 260.58 353.74 260.44 353.68ZM256.64 351.84C256.06 351.48 255.88 350.7 256.22 350.12C256.58 349.54 257.36 349.34 257.94 349.7C258.54 350.06 258.72 350.82 258.36 351.42C258.12 351.8 257.72 352.02 257.3 352.02C257.08 352.02 256.84 351.96 256.64 351.84ZM253.26 349.32C252.74 348.86 252.7 348.08 253.16 347.56C253.62 347.04 254.4 347 254.92 347.46C255.44 347.92 255.48 348.7 255.02 349.22C254.78 349.5 254.42 349.64 254.08 349.64C253.78 349.64 253.48 349.54 253.26 349.32Z" fill="white"/>
  <path d="M290.28 336.48C289.6 336.38 289.12 335.74 289.22 335.06H289.24C289.34 334.38 289.96 333.92 290.66 334.02C291.34 334.12 291.8 334.76 291.7 335.44C291.6 336.06 291.08 336.5 290.48 336.5C290.48 336.5 290.34 336.5 290.28 336.48ZM289.44 331.3C289.44 330.6 289.96 330.04 290.66 330C291.36 330 291.92 330.54 291.94 331.22C291.94 331.92 291.42 332.5 290.74 332.5H290.7C290.02 332.5 289.46 331.98 289.44 331.3ZM289 327.56C288.84 326.88 289.28 326.22 289.96 326.08C290.62 325.92 291.3 326.36 291.44 327.04C291.58 327.7 291.16 328.38 290.48 328.52C290.38 328.54 290.3 328.54 290.22 328.54C289.64 328.54 289.12 328.14 289 327.56ZM287.86 323.96C287.58 323.32 287.88 322.6 288.52 322.34C289.16 322.06 289.88 322.34 290.16 323C290.42 323.64 290.12 324.38 289.48 324.64C289.32 324.7 289.16 324.74 289 324.74C288.52 324.74 288.04 324.44 287.84 323.96H287.86ZM286.1 320.64C285.72 320.06 285.88 319.28 286.46 318.9C287.04 318.54 287.82 318.7 288.2 319.28C288.58 319.86 288.42 320.62 287.84 321C287.62 321.14 287.38 321.2 287.16 321.2C286.74 321.2 286.34 321 286.1 320.64Z" fill="white"/>
  <path d="M249.58 321C249 320.62 248.84 319.84 249.22 319.28C249.6 318.7 250.36 318.54 250.94 318.9C251.52 319.28 251.68 320.06 251.32 320.64C251.08 321 250.68 321.2 250.26 321.2C250.04 321.2 249.8 321.14 249.58 321ZM251.88 317.72C251.38 317.26 251.36 316.46 251.84 315.96C252.3 315.46 253.1 315.44 253.6 315.92C254.1 316.4 254.12 317.18 253.64 317.68H253.66C253.4 317.94 253.08 318.08 252.74 318.08C252.44 318.08 252.12 317.96 251.88 317.72ZM254.74 314.92C254.32 314.36 254.44 313.58 255 313.18C255.56 312.76 256.34 312.88 256.76 313.44C257.16 314 257.04 314.78 256.48 315.2C256.26 315.36 256 315.44 255.74 315.44C255.36 315.44 254.98 315.26 254.74 314.92ZM258.04 312.68C257.74 312.06 258 311.3 258.62 311C259.24 310.7 260 310.96 260.3 311.58C260.58 312.2 260.32 312.96 259.7 313.26C259.54 313.34 259.34 313.38 259.16 313.38C258.7 313.38 258.26 313.12 258.04 312.68ZM261.7 311.06C261.52 310.4 261.9 309.7 262.58 309.52C263.24 309.34 263.92 309.74 264.12 310.4C264.3 311.06 263.9 311.76 263.24 311.94C263.12 311.96 263.02 311.98 262.9 311.98C262.36 311.98 261.86 311.62 261.7 311.06Z" fill="white"/>
  </g>
  <g clip-path="url(#clip10_20_4427)">
  <path d="M156 296H120C110.059 296 102 304.059 102 314V350C102 359.941 110.059 368 120 368H156C165.941 368 174 359.941 174 350V314C174 304.059 165.941 296 156 296Z" fill="black"/>
  <path d="M156 298.5C164.547 298.5 171.5 305.453 171.5 314V350C171.5 358.547 164.547 365.5 156 365.5H120C111.453 365.5 104.5 358.547 104.5 350V314C104.5 305.453 111.453 298.5 120 298.5H156ZM156 296H120C110.059 296 102 304.059 102 314V350C102 359.941 110.059 368 120 368H156C165.941 368 174 359.941 174 350V314C174 304.059 165.941 296 156 296Z" fill="#4D4D4D"/>
  <path d="M159.092 330.392C158.756 329.789 157.998 329.574 157.393 329.907L145.4 336.57L141.865 334.606L148.553 330.89C149.156 330.555 149.373 329.794 149.037 329.19C148.701 328.587 147.943 328.371 147.338 328.705L139.291 333.176L135.374 331L146.008 325.092C146.611 324.757 146.828 323.996 146.492 323.392C146.156 322.79 145.4 322.573 144.793 322.907L132.192 329.907C131.796 330.128 131.55 330.545 131.55 331C131.55 331.454 131.796 331.872 132.192 332.092L144.793 339.092C144.982 339.197 145.191 339.25 145.4 339.25C145.609 339.25 145.818 339.197 146.008 339.092L158.607 332.092C159.211 331.757 159.428 330.996 159.092 330.392Z" fill="#EE0000"/>
  <path d="M147.832 348.87C147.207 348.577 146.463 348.842 146.166 349.466C145.209 351.491 143.228 352.75 141 352.75C140.031 352.75 139.096 352.493 138.25 352.026V350C138.25 349.31 137.69 348.75 137 348.75C136.31 348.75 135.75 349.31 135.75 350V352.026C134.904 352.493 133.968 352.75 133 352.75C130.005 352.75 127.503 350.397 127.296 347.392V345.908C127.296 344.443 128.488 343.25 129.954 343.25C130.644 343.25 131.204 342.691 131.204 342C131.204 341.31 130.644 340.75 129.954 340.75C127.259 340.75 125.066 342.835 124.84 345.472C122.648 344.07 121.25 341.657 121.25 339C121.25 338.245 121.383 337.497 121.619 336.762C122.19 337.194 122.79 337.586 123.431 337.914C123.613 338.007 123.808 338.051 123.999 338.051C124.453 338.051 124.892 337.803 125.113 337.37C125.427 336.756 125.184 336.002 124.569 335.688C123.636 335.211 122.79 334.589 122.053 333.841C122.047 333.834 122.044 333.824 122.037 333.818C120.779 332.534 119.945 330.955 119.541 329.25H122C123.792 329.25 125.25 327.792 125.25 326C125.25 325.31 124.69 324.75 124 324.75C123.31 324.75 122.75 325.31 122.75 326C122.75 326.413 122.413 326.75 122 326.75H119.271C119.367 323.057 121.553 319.758 124.828 318.202C124.937 321.001 127.232 323.25 130.058 323.25C130.748 323.25 131.308 322.691 131.308 322C131.308 321.31 130.748 320.75 130.058 320.75C128.541 320.75 127.308 319.517 127.308 318V316.498C127.571 313.506 130.014 311.25 133 311.25C133.968 311.25 134.904 311.508 135.75 311.975V320C135.75 320.691 136.31 321.25 137 321.25C137.69 321.25 138.25 320.691 138.25 320V311.975C139.096 311.508 140.031 311.25 141 311.25C143.992 311.25 146.441 313.514 146.695 316.515C146.696 316.526 146.703 316.534 146.704 316.545C146.711 316.602 146.738 316.652 146.752 316.707C146.868 317.156 147.205 317.504 147.637 317.613C150.882 318.523 153.466 321.097 154.383 324.34C154.539 324.891 155.039 325.25 155.586 325.25C155.697 325.25 155.813 325.235 155.926 325.203C156.59 325.015 156.977 324.324 156.789 323.66C155.706 319.832 152.766 316.767 149.035 315.458C148.305 311.586 145.01 308.75 141 308.75C139.592 308.75 138.225 309.108 137 309.793C135.775 309.108 134.408 308.75 133 308.75C128.986 308.75 125.654 311.578 124.929 315.455C120.073 317.167 116.75 321.8 116.75 327C116.75 327.332 116.772 327.659 116.798 327.986C116.798 327.991 116.795 327.995 116.795 328C116.795 328.008 116.799 328.014 116.799 328.022C116.827 328.355 116.872 328.684 116.926 329.012C116.938 329.082 116.944 329.153 116.957 329.222C117.073 329.855 117.244 330.471 117.456 331.073C117.485 331.155 117.513 331.237 117.543 331.319C117.768 331.915 118.039 332.491 118.355 333.045C118.395 333.114 118.435 333.181 118.476 333.249C118.811 333.811 119.187 334.349 119.613 334.857C119.624 334.871 119.632 334.887 119.644 334.901C119.05 336.223 118.75 337.598 118.75 339C118.75 343.064 121.188 346.727 124.893 348.351C125.545 352.279 128.962 355.25 133 355.25C134.408 355.25 135.776 354.891 137 354.207C138.225 354.891 139.592 355.25 141 355.25C144.158 355.25 147.072 353.399 148.428 350.534C148.723 349.91 148.455 349.165 147.832 348.87Z" fill="white"/>
  <path d="M159.092 336.393C158.756 335.79 157.998 335.574 157.393 335.907L145.4 342.57L133.407 335.907C132.804 335.574 132.043 335.79 131.707 336.393C131.372 336.996 131.589 337.758 132.192 338.093L144.793 345.093C144.982 345.197 145.191 345.25 145.4 345.25C145.609 345.25 145.818 345.197 146.008 345.093L158.607 338.093C159.211 337.758 159.428 336.996 159.092 336.393Z" fill="white"/>
  </g>
  <circle cx="75" cy="332" r="11" fill="#B300B3"/>
  <path d="M71.8387 337V336.258L75.7587 331.974C76.0667 331.638 76.3047 331.344 76.4727 331.092C76.6501 330.831 76.7714 330.588 76.8367 330.364C76.9114 330.14 76.9487 329.902 76.9487 329.65C76.9487 329.155 76.7527 328.749 76.3607 328.432C75.9781 328.105 75.4881 327.942 74.8907 327.942C74.4334 327.942 74.0087 328.031 73.6167 328.208C73.2247 328.385 72.7861 328.693 72.3007 329.132L71.7127 328.432C72.2261 327.965 72.7441 327.62 73.2667 327.396C73.7894 327.163 74.3354 327.046 74.9047 327.046C75.4927 327.046 76.0154 327.158 76.4727 327.382C76.9301 327.597 77.2894 327.895 77.5507 328.278C77.8121 328.661 77.9427 329.099 77.9427 329.594C77.9427 329.921 77.9007 330.224 77.8167 330.504C77.7327 330.775 77.5834 331.069 77.3687 331.386C77.1541 331.694 76.8461 332.067 76.4447 332.506L73.0987 336.132L78.1527 336.118V337H71.8387Z" fill="white"/>
  <g clip-path="url(#clip11_20_4427)">
  <path d="M423 192H387C377.059 192 369 200.059 369 210V246C369 255.941 377.059 264 387 264H423C432.941 264 441 255.941 441 246V210C441 200.059 432.941 192 423 192Z" fill="white"/>
  <path d="M423 194.5C431.547 194.5 438.5 201.453 438.5 210V246C438.5 254.547 431.547 261.5 423 261.5H387C378.453 261.5 371.5 254.547 371.5 246V210C371.5 201.453 378.453 194.5 387 194.5H423ZM423 192H387C377.059 192 369 200.059 369 210V246C369 255.941 377.059 264 387 264H423C432.941 264 441 255.941 441 246V210C441 200.059 432.941 192 423 192Z" fill="#E0E0E0"/>
  <path d="M421 245.25H409C408.311 245.25 407.75 244.689 407.75 244V232C407.75 231.311 408.311 230.75 409 230.75H421C421.689 230.75 422.25 231.311 422.25 232V244C422.25 244.689 421.689 245.25 421 245.25ZM410.25 242.75H419.75V233.25H410.25V242.75Z" fill="#EE0000"/>
  <path d="M421 225.25H409C408.311 225.25 407.75 224.689 407.75 224V212C407.75 211.311 408.311 210.75 409 210.75H421C421.689 210.75 422.25 211.311 422.25 212V224C422.25 224.689 421.689 225.25 421 225.25ZM410.25 222.75H419.75V213.25H410.25V222.75Z" fill="#EE0000"/>
  <path d="M401 225.25H389C388.311 225.25 387.75 224.689 387.75 224V212C387.75 211.311 388.311 210.75 389 210.75H401C401.689 210.75 402.25 211.311 402.25 212V224C402.25 224.689 401.689 225.25 401 225.25ZM390.25 222.75H399.75V213.25H390.25V222.75Z" fill="#EE0000"/>
  <path d="M402.239 231.944C402.232 231.8 402.209 231.656 402.153 231.521C402.113 231.425 402.045 231.348 401.984 231.266C401.948 231.217 401.929 231.16 401.885 231.115C401.829 231.06 401.76 231.034 401.698 230.991C401.626 230.941 401.562 230.881 401.481 230.847C401.325 230.783 401.16 230.749 400.995 230.75H391C390.31 230.75 389.75 231.311 389.75 232C389.75 232.689 390.31 233.25 391 233.25H397.98L388.115 243.115C387.629 243.603 387.629 244.396 388.115 244.885C388.359 245.129 388.679 245.25 389 245.25C389.32 245.25 389.64 245.129 389.885 244.885L399.75 235.02V242C399.75 242.689 400.31 243.25 401 243.25C401.689 243.25 402.25 242.689 402.25 242V232C402.25 231.98 402.24 231.964 402.239 231.944Z" fill="black"/>
  </g>
  <g clip-path="url(#clip12_20_4427)">
  <path d="M287 192H251C241.06 192 233 200.06 233 210V246C233 255.94 241.06 264 251 264H287C296.94 264 305 255.94 305 246V210C305 200.06 296.94 192 287 192Z" fill="white"/>
  <path d="M287 194.5C295.54 194.5 302.5 201.46 302.5 210V246C302.5 254.54 295.54 261.5 287 261.5H251C242.46 261.5 235.5 254.54 235.5 246V210C235.5 201.46 242.46 194.5 251 194.5H287ZM287 192H251C241.06 192 233 200.06 233 210V246C233 255.94 241.06 264 251 264H287C296.94 264 305 255.94 305 246V210C305 200.06 296.94 192 287 192Z" fill="#E0E0E0"/>
  <path d="M277 226.76H275.46C275.28 225.88 274.94 225.04 274.46 224.32L275.54 223.24C276.02 222.76 276.02 221.96 275.54 221.48C275.06 221 274.26 221 273.78 221.48L272.7 222.56C271.98 222.08 271.16 221.72 270.26 221.56V220.02C270.26 219.34 269.7 218.78 269.02 218.78C268.34 218.78 267.78 219.34 267.78 220.02V221.56C266.9 221.74 266.06 222.08 265.34 222.56L264.26 221.48C263.78 221 262.98 221 262.5 221.48C262.02 221.96 262.02 222.76 262.5 223.24L263.58 224.32C263.1 225.04 262.74 225.86 262.58 226.76H261.04C260.36 226.76 259.8 227.32 259.8 228C259.8 228.68 260.36 229.24 261.04 229.24H262.58C262.76 230.12 263.1 230.96 263.58 231.68L262.5 232.76C262.02 233.24 262.02 234.04 262.5 234.52C262.74 234.76 263.06 234.88 263.38 234.88C263.7 234.88 264.02 234.76 264.26 234.52L265.34 233.44C266.06 233.92 266.88 234.28 267.78 234.44V235.98C267.78 236.66 268.34 237.22 269.02 237.22C269.7 237.22 270.26 236.66 270.26 235.98V234.44C271.14 234.26 271.98 233.92 272.7 233.44L273.78 234.52C274.02 234.76 274.34 234.88 274.66 234.88C274.98 234.88 275.3 234.76 275.54 234.52C276.02 234.04 276.02 233.24 275.54 232.76L274.46 231.68C274.94 230.96 275.3 230.14 275.46 229.24H277C277.68 229.24 278.24 228.68 278.24 228C278.24 227.32 277.68 226.76 277 226.76ZM269 232.1C266.74 232.1 264.92 230.26 264.92 228.02C264.92 225.78 266.76 223.94 269 223.94C271.24 223.94 273.08 225.78 273.08 228.02C273.08 230.26 271.24 232.1 269 232.1Z" fill="#EE0000"/>
  <path d="M258.82 241.6C258.54 241.6 258.26 241.5 258.02 241.32C251.94 236.32 250.02 227.84 253.36 220.7C256.7 213.56 264.4 209.58 272.14 211.04C272.82 211.16 273.26 211.82 273.14 212.5C273.02 213.18 272.36 213.62 271.68 213.5C265.06 212.26 258.46 215.66 255.62 221.76C252.78 227.86 254.4 235.1 259.6 239.38C260.14 239.82 260.2 240.6 259.76 241.14C259.52 241.44 259.16 241.6 258.8 241.6H258.82Z" fill="#EE0000"/>
  <path d="M269.02 245.26C267.96 245.26 266.92 245.16 265.84 244.96C265.16 244.84 264.72 244.18 264.84 243.5C264.96 242.82 265.62 242.36 266.3 242.5C272.9 243.74 279.52 240.34 282.36 234.24C285.2 228.14 283.58 220.9 278.38 216.62C277.84 216.18 277.78 215.4 278.22 214.86C278.66 214.32 279.46 214.26 279.98 214.68C286.06 219.68 287.98 228.16 284.64 235.3C281.76 241.46 275.62 245.26 269.02 245.26Z" fill="black"/>
  <path d="M285 214.16C284.66 214.16 284.34 214.02 284.1 213.76C280.14 209.56 274.78 207.26 269 207.26C263.22 207.26 257.88 209.58 253.9 213.76C253.42 214.26 252.64 214.28 252.14 213.82C251.64 213.34 251.62 212.56 252.08 212.06C256.52 207.36 262.52 204.76 268.98 204.76C275.44 204.76 281.44 207.34 285.88 212.06C286.36 212.56 286.34 213.36 285.82 213.82C285.58 214.04 285.28 214.16 284.96 214.16H285Z" fill="black"/>
  <path d="M269 251.24C256.18 251.24 245.76 240.82 245.76 228C245.76 225.08 246.3 222.24 247.34 219.54C247.6 218.9 248.32 218.58 248.96 218.84C249.6 219.1 249.92 219.82 249.66 220.46C248.72 222.86 248.24 225.4 248.24 228C248.24 239.44 257.54 248.76 269 248.76C269.68 248.76 270.24 249.32 270.24 250C270.24 250.68 269.68 251.24 269 251.24Z" fill="black"/>
  <path d="M277 249.76C276.5 249.76 276.02 249.46 275.84 248.96C275.58 248.32 275.9 247.6 276.54 247.34C278.58 246.54 280.5 245.42 282.2 244.02C287 240.06 289.74 234.22 289.74 228.02C289.74 225 289.1 222.08 287.86 219.36C287.58 218.74 287.86 218 288.48 217.7C289.1 217.4 289.84 217.7 290.14 218.32C291.54 221.38 292.26 224.64 292.26 228.02C292.26 234.98 289.18 241.52 283.8 245.96C281.88 247.54 279.76 248.8 277.46 249.68C277.3 249.74 277.16 249.76 277 249.76Z" fill="#EE0000"/>
  </g>
  <g clip-path="url(#clip13_20_4427)">
  <path d="M156 192H120C110.06 192 102 200.06 102 210V246C102 255.94 110.06 264 120 264H156C165.94 264 174 255.94 174 246V210C174 200.06 165.94 192 156 192Z" fill="white"/>
  <path d="M156 194.5C164.54 194.5 171.5 201.46 171.5 210V246C171.5 254.54 164.54 261.5 156 261.5H120C111.46 261.5 104.5 254.54 104.5 246V210C104.5 201.46 111.46 194.5 120 194.5H156ZM156 192H120C110.06 192 102 200.06 102 210V246C102 255.94 110.06 264 120 264H156C165.94 264 174 255.94 174 246V210C174 200.06 165.94 192 156 192Z" fill="#E0E0E0"/>
  <path d="M156.18 219.96C156.18 219.96 156.06 220 156 220C154.9 220 154 219.1 154 218C154 217.68 154.1 217.38 154.24 217.12C144.92 219 140.9 212 139.66 209.08C139.3 209.64 138.72 210.02 138 210.02C137.2 210.02 136.52 209.54 136.2 208.86C132.64 217.84 124.04 217.02 121.24 216.5C121.7 216.86 122 217.4 122 218.04C122 219.14 121.1 220.04 120 220.04C119.98 220.04 119.94 220.04 119.92 220.04C125.36 227.58 121.92 233.68 120.08 236.08C121.14 236.12 122 236.98 122 238.06C122 238.38 121.9 238.68 121.78 238.94C131.14 237.04 135.14 244.1 136.36 247C136.72 246.44 137.3 246.06 138.02 246.06C138.74 246.06 139.34 246.46 139.7 247.02C143 238.18 151.04 238.44 154.28 238.96C154.14 238.68 154.04 238.38 154.04 238.04C154.04 236.94 154.94 236.04 156.04 236.04C156.08 236.04 156.12 236.06 156.18 236.06C150.74 228.42 154.42 222.26 156.22 220L156.18 219.96ZM123.94 234.38C125.4 231.26 126.32 226.74 123.8 221.54L135.44 228L123.96 234.38H123.94ZM136.76 242.58C134.76 239.66 131.36 236.5 126 236.1L136.76 230.12V242.58ZM136.76 225.88L124.8 219.24C125.72 219.24 126.7 219.14 127.74 218.96C130.64 218.42 134.18 216.92 136.76 213.16V225.88ZM139.26 213.42C141.26 216.32 144.66 219.5 150 219.9L139.26 225.86V213.4V213.42ZM148.28 236.52C145.38 237.06 141.84 238.56 139.26 242.32V230.12L150.34 236.28C149.68 236.32 149 236.4 148.28 236.52ZM152.32 234.52L140.58 228L152.36 221.46C150.84 224.58 149.76 229.18 152.32 234.52Z" fill="#EE0000"/>
  <path d="M138 211.26C136.2 211.26 134.76 209.8 134.76 208.02C134.76 206.24 136.22 204.78 138 204.78C139.78 204.78 141.24 206.24 141.24 208.02C141.24 209.8 139.78 211.26 138 211.26ZM138 207.26C137.58 207.26 137.24 207.6 137.24 208.02C137.24 208.44 137.58 208.78 138 208.78C138.42 208.78 138.76 208.44 138.76 208.02C138.76 207.6 138.42 207.26 138 207.26Z" fill="black"/>
  <path d="M138 251.26C136.2 251.26 134.76 249.8 134.76 248.02C134.76 246.24 136.22 244.78 138 244.78C139.78 244.78 141.24 246.24 141.24 248.02C141.24 249.8 139.78 251.26 138 251.26ZM138 247.26C137.58 247.26 137.24 247.6 137.24 248.02C137.24 248.44 137.58 248.78 138 248.78C138.42 248.78 138.76 248.44 138.76 248.02C138.76 247.6 138.42 247.26 138 247.26Z" fill="black"/>
  <path d="M156 221.26C154.2 221.26 152.76 219.8 152.76 218.02C152.76 216.24 154.22 214.78 156 214.78C157.78 214.78 159.24 216.24 159.24 218.02C159.24 219.8 157.78 221.26 156 221.26ZM156 217.26C155.58 217.26 155.24 217.6 155.24 218.02C155.24 218.44 155.58 218.78 156 218.78C156.42 218.78 156.76 218.44 156.76 218.02C156.76 217.6 156.42 217.26 156 217.26Z" fill="black"/>
  <path d="M120 221.26C118.2 221.26 116.76 219.8 116.76 218.02C116.76 216.24 118.22 214.78 120 214.78C121.78 214.78 123.24 216.24 123.24 218.02C123.24 219.8 121.78 221.26 120 221.26ZM120 217.26C119.58 217.26 119.24 217.6 119.24 218.02C119.24 218.44 119.58 218.78 120 218.78C120.42 218.78 120.76 218.44 120.76 218.02C120.76 217.6 120.42 217.26 120 217.26Z" fill="black"/>
  <path d="M156 241.26C154.2 241.26 152.76 239.8 152.76 238.02C152.76 236.24 154.22 234.78 156 234.78C157.78 234.78 159.24 236.24 159.24 238.02C159.24 239.8 157.78 241.26 156 241.26ZM156 237.26C155.58 237.26 155.24 237.6 155.24 238.02C155.24 238.44 155.58 238.78 156 238.78C156.42 238.78 156.76 238.44 156.76 238.02C156.76 237.6 156.42 237.26 156 237.26Z" fill="black"/>
  <path d="M120 241.26C118.2 241.26 116.76 239.8 116.76 238.02C116.76 236.24 118.22 234.78 120 234.78C121.78 234.78 123.24 236.24 123.24 238.02C123.24 239.8 121.78 241.26 120 241.26ZM120 237.26C119.58 237.26 119.24 237.6 119.24 238.02C119.24 238.44 119.58 238.78 120 238.78C120.42 238.78 120.76 238.44 120.76 238.02C120.76 237.6 120.42 237.26 120 237.26Z" fill="black"/>
  </g>
  <circle cx="75" cy="228" r="11" fill="#B300B3"/>
  <path d="M71.8387 233V232.258L75.7587 227.974C76.0667 227.638 76.3047 227.344 76.4727 227.092C76.6501 226.831 76.7714 226.588 76.8367 226.364C76.9114 226.14 76.9487 225.902 76.9487 225.65C76.9487 225.155 76.7527 224.749 76.3607 224.432C75.9781 224.105 75.4881 223.942 74.8907 223.942C74.4334 223.942 74.0087 224.031 73.6167 224.208C73.2247 224.385 72.7861 224.693 72.3007 225.132L71.7127 224.432C72.2261 223.965 72.7441 223.62 73.2667 223.396C73.7894 223.163 74.3354 223.046 74.9047 223.046C75.4927 223.046 76.0154 223.158 76.4727 223.382C76.9301 223.597 77.2894 223.895 77.5507 224.278C77.8121 224.661 77.9427 225.099 77.9427 225.594C77.9427 225.921 77.9007 226.224 77.8167 226.504C77.7327 226.775 77.5834 227.069 77.3687 227.386C77.1541 227.694 76.8461 228.067 76.4447 228.506L73.0987 232.132L78.1527 232.118V233H71.8387Z" fill="white"/>
  <g clip-path="url(#clip14_20_4427)">
  <path d="M389.824 96.2307C389.128 96.0407 388.389 96.4418 388.199 97.1385C386.932 101.508 386.658 106.195 387.376 110.671C387.481 111.325 388.03 111.768 388.684 111.768C388.748 111.768 388.832 111.768 388.896 111.768C389.613 111.642 390.099 110.966 389.993 110.248C389.318 106.153 389.592 101.867 390.732 97.8774C390.943 97.1807 390.521 96.4418 389.824 96.2518V96.2307Z" fill="white"/>
  <path d="M430.864 104C430.864 95.8298 427.655 88.3987 422.441 82.8676C422.335 82.6987 422.209 82.5509 422.061 82.4454C419.295 79.6165 415.981 77.3154 412.308 75.6898C412.287 75.6898 412.244 75.6687 412.223 75.6476C408.465 74.022 404.349 73.1143 400 73.1143C384.948 73.1143 372.387 83.9654 369.684 98.2365C369.684 98.2365 369.684 98.2787 369.684 98.2998C369.347 100.136 369.135 102.036 369.135 103.979C369.135 120.994 382.984 134.843 400.021 134.843C408.318 134.843 415.854 131.529 421.407 126.188C421.533 126.103 421.639 125.998 421.744 125.892C427.381 120.298 430.907 112.55 430.907 103.979L430.864 104ZM400 75.7531C402.491 75.7531 404.898 76.112 407.199 76.7243C405.953 77.1887 404.729 77.7376 403.526 78.3498C401.52 79.4054 399.62 80.672 397.889 82.1498C397.34 82.6143 397.255 83.4587 397.741 84.0076C397.994 84.3243 398.374 84.472 398.754 84.472C399.05 84.472 399.367 84.3665 399.599 84.1554C401.182 82.8254 402.913 81.6431 404.75 80.6931C406.882 79.5743 409.12 78.7509 411.442 78.202C414.693 79.6376 417.628 81.6854 420.077 84.1765C421.977 96.1465 416.087 107.926 405.299 113.584C394.384 119.305 380.789 117.194 372.133 108.475C371.901 107.019 371.753 105.541 371.753 104.021C371.753 102.29 371.922 100.622 372.239 98.9754C374.118 97.1809 376.25 95.6609 378.572 94.4365C389.36 88.7787 402.512 90.6365 411.273 99.102C411.801 99.6087 412.624 99.5876 413.131 99.0598C413.638 98.532 413.617 97.7087 413.089 97.202C403.504 87.9554 389.128 85.9076 377.327 92.1143C375.954 92.832 374.645 93.6554 373.421 94.5631C377.327 83.6487 387.734 75.7954 399.979 75.7954L400 75.7531ZM373.21 112.888C378.699 117.152 385.433 119.411 392.252 119.411C397.129 119.411 402.048 118.271 406.523 115.906C417.1 110.354 423.37 99.3976 423.032 87.7443C426.283 92.3465 428.204 97.9409 428.204 104C428.204 110.375 426.051 116.265 422.462 120.994C422.61 118.018 422.378 115.062 421.66 112.128C421.491 111.431 420.773 110.988 420.055 111.156C419.338 111.325 418.916 112.043 419.084 112.761C420.013 116.603 420.119 120.509 419.422 124.414C415.833 127.834 411.358 130.325 406.354 131.486C402.702 129.861 399.367 127.454 396.728 124.478C396.242 123.929 395.398 123.886 394.87 124.372C394.321 124.858 394.279 125.681 394.764 126.23C396.833 128.552 399.282 130.536 401.963 132.141C401.309 132.183 400.654 132.246 399.979 132.246C387.523 132.246 376.925 124.119 373.189 112.909L373.21 112.888Z" fill="white"/>
  </g>
  <g clip-path="url(#clip15_20_4427)">
  <path d="M283.956 74.4666C278.533 72.6888 272.733 73.1111 267.644 75.6888C267.044 75.9777 266.489 76.3111 265.911 76.6444C257.644 71.6666 246.756 72.7111 239.622 79.8222C231.244 88.2 231.244 101.822 239.622 110.2C239.489 111.8 239.978 113.444 241.156 114.689C242.311 115.933 243.867 116.556 245.444 116.556C245.578 116.556 245.733 116.533 245.867 116.511C245.689 118.2 246.222 119.956 247.511 121.244C248.644 122.378 250.156 122.956 251.644 122.956C251.733 122.956 251.822 122.956 251.911 122.933C251.689 124.8 252.356 126.756 253.889 128.089C255 129.044 256.356 129.511 257.711 129.511C258.422 129.511 259.133 129.356 259.8 129.111C259.978 130.556 260.644 131.867 261.756 132.822C262.867 133.778 264.244 134.267 265.6 134.267C267.2 134.267 268.778 133.6 269.933 132.356C269.933 132.356 269.956 132.356 269.978 132.333L292.067 110.244C298.889 103.689 300.622 93.6 296.333 85.1555C293.756 80.0444 289.333 76.2666 283.911 74.4888H283.956V74.4666ZM241.578 81.8C248.867 74.5111 260.733 74.5111 268.022 81.8L278.267 92.0444C278.844 92.6444 279.178 93.4222 279.156 94.2444C279.156 95.0666 278.822 95.8444 278.222 96.4444C277.044 97.6 275.222 97.6 274 96.5333C273.978 96.4888 273.956 96.4444 273.911 96.4L263.667 86.1555C263.533 86.0222 263.378 85.9111 263.2 85.8444C262.911 85.7333 262.578 85.7333 262.267 85.8444H262.156C262.156 85.8444 262.111 85.8666 262.089 85.8888C261.956 85.9555 261.8 86.0444 261.689 86.1555C257.867 90 251.622 89.9777 247.8 86.1555C247.267 85.6222 246.378 85.6222 245.844 86.1555C245.311 86.6888 245.311 87.5777 245.844 88.1111C248.289 90.5777 251.533 91.8 254.756 91.8C255.244 91.8 255.711 91.7111 256.178 91.6666L241.156 106.667C240.978 106.844 240.844 107.044 240.711 107.244C234.311 99.9111 234.6 88.7333 241.578 81.7555V81.8ZM290.133 108.244L268.022 130.356C268.022 130.356 268.022 130.378 268 130.4C268 130.4 267.978 130.4 267.956 130.422C266.844 131.711 264.889 131.844 263.6 130.733C262.978 130.2 262.6 129.444 262.556 128.622C262.489 127.8 262.756 127 263.244 126.467L263.511 126.2L263.689 126.022L270 119.711C270.533 119.178 270.533 118.289 270 117.756C269.467 117.222 268.578 117.222 268.044 117.756L260.156 125.644C260.156 125.644 260.156 125.667 260.133 125.689C260.111 125.711 260.111 125.689 260.089 125.711C258.978 127 257.022 127.156 255.733 126.022C254.444 124.911 254.311 122.956 255.356 121.733L255.8 121.289L263.711 113.378C264.244 112.844 264.244 111.956 263.711 111.422C263.178 110.889 262.289 110.889 261.756 111.422L253.844 119.333C252.689 120.489 250.667 120.489 249.511 119.333C248.933 118.756 248.622 117.978 248.622 117.156C248.622 116.333 248.933 115.578 249.511 114.978L257.4 107.067C257.933 106.533 257.933 105.644 257.4 105.111C256.867 104.578 255.978 104.578 255.444 105.111L247.6 112.978C246.356 114.133 244.4 114.067 243.244 112.822C242.133 111.644 242.133 109.8 243.244 108.6L262.778 89.0888L271.756 98.0666C271.756 98.0666 271.867 98.2666 271.956 98.3555C273.111 99.5111 274.622 100.111 276.156 100.111C277.689 100.111 279.156 99.5555 280.289 98.4222C281.422 97.2888 282.022 95.8444 282.044 94.2666C282.044 92.6888 281.444 91.2 280.333 90.0888L269.311 79.0666C269.311 79.0666 269.111 78.9111 269 78.8666C268.844 78.7333 268.689 78.5777 268.511 78.4444C268.667 78.3777 268.8 78.2666 268.956 78.2C273.4 75.9555 278.444 75.5777 283.178 77.1333C287.911 78.6888 291.733 81.9777 293.978 86.4222C297.689 93.7777 296.2 102.556 290.244 108.267H290.133V108.244Z" fill="#EE0000"/>
  </g>
  <g clip-path="url(#clip16_20_4427)">
  <g clip-path="url(#clip17_20_4427)">
  <path d="M130.945 121.681C130.216 121.681 129.625 122.273 129.625 123V131.187C128.413 131.862 127.063 132.236 125.667 132.236C122.162 132.236 119.093 129.995 117.966 126.649V120.889C117.966 119.289 119.268 117.986 120.869 117.986C121.598 117.986 122.189 117.395 122.189 116.667C122.189 115.939 121.598 115.347 120.869 115.347C117.814 115.347 115.328 117.834 115.328 120.889V125.08C111.557 123.5 109.042 119.817 109.042 115.611C109.042 114.077 109.383 112.587 110.056 111.181C110.345 110.581 110.139 109.859 109.578 109.501C106.674 107.642 104.923 104.513 104.836 101.097H109.833C112.598 101.097 114.847 103.347 114.847 106.111C114.847 106.839 115.438 107.431 116.167 107.431C116.896 107.431 117.486 106.839 117.486 106.111C117.486 104.122 116.705 102.323 115.456 100.961C119.032 100.32 121.759 97.2027 121.759 93.4447C121.759 92.717 121.168 92.1253 120.439 92.1253C119.711 92.1253 119.12 92.717 119.12 93.4447C119.12 96.2094 116.871 98.4586 114.106 98.4586H105.125C105.862 95.3722 107.98 92.7326 110.97 91.4162C111.62 91.1297 111.926 90.3813 111.665 89.7216C111.325 88.864 111.153 87.9856 111.153 87.1116C111.153 83.1822 114.349 79.9866 118.278 79.9866C118.366 79.9866 118.45 80.002 118.535 80.0134L118.868 80.0527C119.419 80.1135 119.942 79.796 120.175 79.2929C121.169 77.1499 123.326 75.7644 125.667 75.7644C127.142 75.7644 128.52 76.315 129.625 77.2799V87.7046C127.503 87.1211 125.931 85.1943 125.931 82.8894C125.931 82.1617 125.34 81.5699 124.611 81.5699C123.882 81.5699 123.292 82.1617 123.292 82.8894C123.292 86.6577 126.035 89.7794 129.625 90.4087V93.4449C129.625 94.1726 130.216 94.7644 130.945 94.7644C131.673 94.7644 132.264 94.1726 132.264 93.4449V77.2799C133.369 76.315 134.747 75.7644 136.222 75.7644C138.484 75.7644 140.562 77.0644 141.598 79.0839C140.71 80.5967 139.075 81.5699 137.278 81.5699C136.549 81.5699 135.958 82.1617 135.958 82.8894C135.958 83.6171 136.549 84.2088 137.278 84.2088C140.169 84.2088 142.786 82.5615 144.081 80.0341C147.787 80.2811 150.736 83.3431 150.736 87.1116C150.736 87.8393 151.327 88.431 152.056 88.431C152.784 88.431 153.375 87.8393 153.375 87.1116C153.375 81.7452 149.024 77.3766 143.665 77.3477C142.1 74.7563 139.271 73.1255 136.222 73.1255C134.289 73.1255 132.455 73.7533 130.945 74.913C129.434 73.7533 127.601 73.1255 125.667 73.1255C122.618 73.1255 119.789 74.7563 118.224 77.3477C112.865 77.3766 108.514 81.7452 108.514 87.1116C108.514 87.924 108.62 88.7361 108.83 89.536C105.108 91.6051 102.664 95.3884 102.263 99.6208C102.256 99.6748 102.231 99.7223 102.231 99.7781C102.231 99.8057 102.245 99.8289 102.247 99.8562C102.222 100.181 102.181 100.504 102.181 100.834C102.181 104.881 104.05 108.633 107.234 111.076C106.682 112.533 106.403 114.053 106.403 115.611C106.403 121.38 110.163 126.371 115.635 127.992C117.252 132.138 121.196 134.875 125.667 134.875C127.813 134.875 129.892 134.244 131.679 133.049C131.715 133.024 131.735 132.986 131.768 132.959C131.838 132.901 131.898 132.84 131.955 132.77C132.008 132.704 132.054 132.638 132.093 132.565C132.132 132.492 132.161 132.417 132.186 132.337C132.213 132.249 132.231 132.165 132.239 132.074C132.244 132.032 132.264 131.995 132.264 131.952V123C132.264 122.272 131.673 121.681 130.945 121.681Z" fill="#EE0000"/>
  <path d="M154.167 106.903C151.568 106.903 149.397 108.708 148.801 111.125H143.611C142.882 111.125 142.292 111.717 142.292 112.444V121.857C139.875 122.453 138.07 124.624 138.07 127.222C138.07 130.278 140.556 132.764 143.611 132.764C146.667 132.764 149.153 130.278 149.153 127.222C149.153 124.624 147.348 122.453 144.931 121.857V113.764H148.801C149.397 116.181 151.568 117.986 154.167 117.986C157.222 117.986 159.708 115.5 159.708 112.444C159.708 109.389 157.222 106.903 154.167 106.903ZM146.514 127.222C146.514 128.822 145.212 130.125 143.611 130.125C142.01 130.125 140.708 128.822 140.708 127.222C140.708 125.622 142.01 124.319 143.611 124.319C145.212 124.319 146.514 125.622 146.514 127.222ZM154.167 115.347C152.566 115.347 151.264 114.044 151.264 112.444C151.264 110.845 152.566 109.542 154.167 109.542C155.768 109.542 157.07 110.845 157.07 112.444C157.07 114.044 155.768 115.347 154.167 115.347Z" fill="#EE0000"/>
  <path d="M134.836 106.396C135.798 104.235 138.134 98.9861 138.134 98.9861H146.69C147.286 101.403 149.457 103.208 152.056 103.208C155.111 103.208 157.597 100.722 157.597 97.6667C157.597 94.6113 155.111 92.125 152.056 92.125C149.457 92.125 147.286 93.93 146.69 96.3472H137.278C136.837 96.3911 136.377 96.5786 136.168 96.9972C136.133 97.0511 136.084 97.0927 136.062 97.1558C136.062 97.1558 133.345 103.258 132.545 105.056C132.035 104.9 131.505 104.792 130.944 104.792C127.889 104.792 125.403 107.278 125.403 110.334C125.403 113.389 127.889 115.875 130.944 115.875C134 115.875 136.486 113.389 136.486 110.334C136.486 108.794 135.853 107.401 134.836 106.396ZM152.056 94.7639C153.656 94.7639 154.958 96.0669 154.958 97.6667C154.958 99.2665 153.656 100.569 152.056 100.569C150.455 100.569 149.153 99.2665 149.153 97.6667C149.153 96.0669 150.455 94.7639 152.056 94.7639ZM130.944 113.236C129.344 113.236 128.042 111.933 128.042 110.333C128.042 108.734 129.344 107.431 130.944 107.431C132.545 107.431 133.847 108.734 133.847 110.333C133.847 111.933 132.545 113.236 130.944 113.236Z" fill="#EE0000"/>
  </g>
  </g>
  <circle cx="75" cy="104" r="11" fill="#B300B3"/>
  <path d="M71.9787 109V108.118H74.4567V100.292L71.9787 101.384V100.46L74.8347 99.2H75.4647V108.118H78.2927V109H71.9787Z" fill="white"/>
  <defs>
  <clipPath id="clip0_20_4427">
  <rect width="16" height="16" fill="white" transform="translate(102 419)"/>
  </clipPath>
  <clipPath id="clip1_20_4427">
  <rect width="16" height="16" fill="white" transform="translate(150 419)"/>
  </clipPath>
  <clipPath id="clip2_20_4427">
  <rect width="16" height="16" fill="white" transform="translate(198 419)"/>
  </clipPath>
  <clipPath id="clip3_20_4427">
  <rect width="16" height="16" fill="white" transform="translate(246 419)"/>
  </clipPath>
  <clipPath id="clip4_20_4427">
  <rect width="16" height="16" fill="white" transform="translate(294 419)"/>
  </clipPath>
  <clipPath id="clip5_20_4427">
  <rect width="16" height="16" fill="white" transform="translate(342 419)"/>
  </clipPath>
  <clipPath id="clip6_20_4427">
  <rect width="16" height="16" fill="white" transform="translate(390 419)"/>
  </clipPath>
  <clipPath id="clip7_20_4427">
  <rect width="16" height="16" fill="white" transform="translate(438 419)"/>
  </clipPath>
  <clipPath id="clip8_20_4427">
  <rect width="72" height="72" fill="white" transform="translate(369 296)"/>
  </clipPath>
  <clipPath id="clip9_20_4427">
  <rect width="72" height="72" fill="white" transform="translate(233 296)"/>
  </clipPath>
  <clipPath id="clip10_20_4427">
  <rect width="72" height="72" fill="white" transform="translate(102 296)"/>
  </clipPath>
  <clipPath id="clip11_20_4427">
  <rect width="72" height="72" fill="white" transform="translate(369 192)"/>
  </clipPath>
  <clipPath id="clip12_20_4427">
  <rect width="72" height="72" fill="white" transform="translate(233 192)"/>
  </clipPath>
  <clipPath id="clip13_20_4427">
  <rect width="72" height="72" fill="white" transform="translate(102 192)"/>
  </clipPath>
  <clipPath id="clip14_20_4427">
  <rect width="76" height="76" fill="white" transform="translate(362 66)"/>
  </clipPath>
  <clipPath id="clip15_20_4427">
  <rect width="80" height="80" fill="white" transform="translate(226 64)"/>
  </clipPath>
  <clipPath id="clip16_20_4427">
  <rect width="76" height="76" fill="white" transform="translate(94 66)"/>
  </clipPath>
  <clipPath id="clip17_20_4427">
  <rect width="76" height="76" fill="white" transform="translate(94 66)"/>
  </clipPath>
  </defs>
  </svg>