<svg viewBox="0 0 570 854" fill="none" xmlns="http://www.w3.org/2000/svg">
  <title>Examples of elements using the five colors that denote interactivity</title>
  <path d="M0 0h567a3 3 0 0 1 3 3v848a3 3 0 0 1-3 3H0V0Z" fill="#151515" />
  <rect x="102.5" y="761.5" width="87" height="28" rx="14" fill="#731F00" />
  <rect x="102.5" y="761.5" width="87" height="28" rx="14" stroke="#F0561D" />
  <path
    d="M111.246 780v-9.8h4.018c.625 0 1.171.121 1.638.364.467.233.831.56 1.092.98.261.42.392.915.392 1.484 0 .653-.182 1.213-.546 1.68-.364.457-.863.779-1.498.966l2.086 4.326h-1.19l-1.988-4.186h-2.926V780h-1.078Zm1.078-5.082h2.856c.644 0 1.157-.168 1.54-.504.392-.345.588-.803.588-1.372 0-.579-.196-1.036-.588-1.372-.383-.345-.896-.518-1.54-.518h-2.856v3.766Zm10.515 5.222a3.28 3.28 0 0 1-1.722-.462 3.472 3.472 0 0 1-1.218-1.274 3.7 3.7 0 0 1-.448-1.82c0-.672.14-1.274.42-1.806a3.364 3.364 0 0 1 1.162-1.26 2.968 2.968 0 0 1 1.624-.462c.607 0 1.143.154 1.61.462.476.299.849.709 1.12 1.232.28.513.42 1.097.42 1.75v.308h-5.362c.037.467.163.887.378 1.26.224.364.513.653.868.868.364.205.761.308 1.19.308a2.92 2.92 0 0 0 1.022-.182c.336-.131.621-.303.854-.518l.644.686a4.303 4.303 0 0 1-1.218.686 3.99 3.99 0 0 1-1.344.224Zm-2.366-4.06h4.326a2.504 2.504 0 0 0-.378-1.092 2.213 2.213 0 0 0-.756-.77 1.861 1.861 0 0 0-1.008-.28c-.373 0-.714.093-1.022.28a2.199 2.199 0 0 0-.77.756 2.933 2.933 0 0 0-.392 1.106Zm9.921 4.018c-.588 0-1.12-.154-1.596-.462a3.432 3.432 0 0 1-1.134-1.26 3.76 3.76 0 0 1-.42-1.778c0-.663.14-1.255.42-1.778a3.364 3.364 0 0 1 1.162-1.26 2.906 2.906 0 0 1 1.624-.476c.42 0 .812.084 1.176.252.364.159.681.392.952.7v-4.144l1.022-.21V780h-1.022v-.91a2.668 2.668 0 0 1-.952.756 2.967 2.967 0 0 1-1.232.252Zm.252-.896c.401 0 .77-.079 1.106-.238.336-.159.611-.383.826-.672v-3.388a2.257 2.257 0 0 0-.854-.672 2.377 2.377 0 0 0-1.078-.252c-.457 0-.868.112-1.232.336a2.474 2.474 0 0 0-.854.924c-.205.392-.308.84-.308 1.344 0 .495.103.943.308 1.344.215.392.499.705.854.938.364.224.775.336 1.232.336Zm11.346.91a3.209 3.209 0 0 1-1.708-.462 3.287 3.287 0 0 1-1.19-1.26c-.289-.532-.434-1.134-.434-1.806 0-.672.145-1.274.434-1.806a3.287 3.287 0 0 1 1.19-1.26 3.209 3.209 0 0 1 1.708-.462c.625 0 1.185.154 1.68.462.504.308.901.728 1.19 1.26.289.532.434 1.134.434 1.806 0 .672-.145 1.274-.434 1.806a3.287 3.287 0 0 1-1.19 1.26 3.114 3.114 0 0 1-1.68.462Zm-.014-.896c.448 0 .845-.112 1.19-.336.345-.233.616-.551.812-.952a2.91 2.91 0 0 0 .308-1.344c0-.504-.103-.952-.308-1.344a2.287 2.287 0 0 0-.812-.938 2.077 2.077 0 0 0-1.19-.35c-.448 0-.845.117-1.19.35a2.385 2.385 0 0 0-.826.938c-.196.392-.294.84-.294 1.344 0 .495.098.943.294 1.344.205.401.481.719.826.952.345.224.742.336 1.19.336Zm5.111.784v-6.832h1.022v1.4c.177-.476.429-.845.756-1.106a1.779 1.779 0 0 1 1.148-.406c.121 0 .233.009.336.028.103.009.205.033.308.07v.924a2.135 2.135 0 0 0-.364-.084 1.767 1.767 0 0 0-1.456.322c-.308.243-.551.583-.728 1.022V780h-1.022Zm6.749.126a2.97 2.97 0 0 1-1.288-.266 2.186 2.186 0 0 1-.882-.728 1.959 1.959 0 0 1-.308-1.092c0-.411.107-.765.322-1.064.214-.308.513-.546.896-.714.382-.168.83-.252 1.344-.252.392 0 .76.042 1.106.126.354.084.681.219.98.406v-.938c0-.56-.15-.98-.448-1.26-.299-.289-.738-.434-1.316-.434-.318 0-.644.047-.98.14a6.132 6.132 0 0 0-1.092.448l-.378-.784c.914-.439 1.773-.658 2.576-.658.849 0 1.502.21 1.96.63.457.411.686 1.003.686 1.778V780h-1.008v-.798c-.299.308-.63.541-.994.7a3.074 3.074 0 0 1-1.176.224Zm-1.498-2.114c0 .401.154.723.462.966.317.243.732.364 1.246.364a2.73 2.73 0 0 0 1.05-.196 2.94 2.94 0 0 0 .91-.588v-1.316a3.371 3.371 0 0 0-.896-.364 3.942 3.942 0 0 0-1.036-.126c-.523 0-.943.117-1.26.35a1.056 1.056 0 0 0-.476.91Zm6.753 1.988v-6.832h1.022v1.106c.261-.411.574-.714.938-.91a2.468 2.468 0 0 1 1.232-.308c.495 0 .924.107 1.288.322.373.205.663.499.868.882.215.373.322.812.322 1.316V780h-1.022v-4.13c0-.607-.168-1.083-.504-1.428-.327-.355-.77-.532-1.33-.532-.373 0-.714.089-1.022.266a2.139 2.139 0 0 0-.77.784V780h-1.022Zm10.889 3.066c-.458 0-.92-.065-1.386-.196a5.264 5.264 0 0 1-1.274-.518l.434-.784c.42.215.802.373 1.148.476.345.103.69.154 1.036.154.625 0 1.096-.149 1.414-.448.326-.299.49-.733.49-1.302v-1.372a2.676 2.676 0 0 1-.952.756 2.97 2.97 0 0 1-1.232.252c-.588 0-1.12-.154-1.596-.462a3.432 3.432 0 0 1-1.134-1.26 3.76 3.76 0 0 1-.42-1.778c0-.653.14-1.241.42-1.764a3.356 3.356 0 0 1 1.162-1.26 2.904 2.904 0 0 1 1.624-.476c.429 0 .826.084 1.19.252.364.159.681.397.952.714v-.882h1.008v7.266c0 .849-.248 1.498-.742 1.946-.495.457-1.209.686-2.142.686Zm-.07-3.864c.401 0 .77-.079 1.106-.238.336-.168.611-.397.826-.686v-3.374a2.257 2.257 0 0 0-.854-.672 2.38 2.38 0 0 0-1.078-.252c-.458 0-.868.112-1.232.336-.355.224-.64.532-.854.924-.206.392-.308.84-.308 1.344 0 .495.102.943.308 1.344.214.392.499.705.854.938.364.224.774.336 1.232.336Zm8.134.938a3.28 3.28 0 0 1-1.722-.462 3.472 3.472 0 0 1-1.218-1.274 3.7 3.7 0 0 1-.448-1.82c0-.672.14-1.274.42-1.806a3.364 3.364 0 0 1 1.162-1.26 2.968 2.968 0 0 1 1.624-.462c.607 0 1.143.154 1.61.462.476.299.849.709 1.12 1.232.28.513.42 1.097.42 1.75v.308h-5.362c.037.467.163.887.378 1.26.224.364.513.653.868.868.364.205.761.308 1.19.308a2.92 2.92 0 0 0 1.022-.182c.336-.131.621-.303.854-.518l.644.686a4.303 4.303 0 0 1-1.218.686 3.99 3.99 0 0 1-1.344.224Zm-2.366-4.06h4.326a2.504 2.504 0 0 0-.378-1.092 2.213 2.213 0 0 0-.756-.77 1.861 1.861 0 0 0-1.008-.28c-.373 0-.714.093-1.022.28a2.199 2.199 0 0 0-.77.756 2.933 2.933 0 0 0-.392 1.106Z"
    fill="#FFE3D9" />
  <path fill="#FFE3D9" d="M111 782h70v1h-70z" />
  <rect x="198.5" y="761.5" width="63" height="28" rx="14" fill="#732E00" />
  <rect x="198.5" y="761.5" width="63" height="28" rx="14" stroke="#CA6C0F" />
  <path
    d="M211.67 780.154a4.783 4.783 0 0 1-1.904-.378 4.996 4.996 0 0 1-1.554-1.078 5.287 5.287 0 0 1-1.036-1.61 5.2 5.2 0 0 1-.378-1.988c0-.709.126-1.367.378-1.974a5.067 5.067 0 0 1 1.036-1.61 4.697 4.697 0 0 1 1.554-1.078 4.641 4.641 0 0 1 1.904-.392c.681 0 1.316.131 1.904.392a4.552 4.552 0 0 1 1.54 1.078 5.097 5.097 0 0 1 1.428 3.584 5.2 5.2 0 0 1-.378 1.988 5.163 5.163 0 0 1-1.05 1.61 4.834 4.834 0 0 1-1.54 1.078 4.783 4.783 0 0 1-1.904.378Zm0-.98a3.585 3.585 0 0 0 2.688-1.176c.345-.373.611-.807.798-1.302a4.296 4.296 0 0 0 .294-1.596c0-.579-.098-1.111-.294-1.596a3.954 3.954 0 0 0-.798-1.302 3.585 3.585 0 0 0-2.688-1.176 3.585 3.585 0 0 0-2.688 1.176 4.145 4.145 0 0 0-.812 1.302 4.363 4.363 0 0 0-.28 1.582c0 .579.093 1.115.28 1.61.196.495.467.929.812 1.302a3.585 3.585 0 0 0 2.688 1.176Zm6.714.826v-6.832h1.022v1.4c.177-.476.429-.845.756-1.106a1.779 1.779 0 0 1 1.148-.406c.121 0 .233.009.336.028.103.009.205.033.308.07v.924a2.135 2.135 0 0 0-.364-.084 1.767 1.767 0 0 0-1.456.322c-.308.243-.551.583-.728 1.022V780h-1.022Zm6.749.126a2.97 2.97 0 0 1-1.288-.266 2.186 2.186 0 0 1-.882-.728 1.959 1.959 0 0 1-.308-1.092c0-.411.107-.765.322-1.064.214-.308.513-.546.896-.714.382-.168.83-.252 1.344-.252.392 0 .76.042 1.106.126.354.084.681.219.98.406v-.938c0-.56-.15-.98-.448-1.26-.299-.289-.738-.434-1.316-.434-.318 0-.644.047-.98.14a6.132 6.132 0 0 0-1.092.448l-.378-.784c.914-.439 1.773-.658 2.576-.658.849 0 1.502.21 1.96.63.457.411.686 1.003.686 1.778V780h-1.008v-.798c-.299.308-.63.541-.994.7a3.074 3.074 0 0 1-1.176.224Zm-1.498-2.114c0 .401.154.723.462.966.317.243.732.364 1.246.364a2.73 2.73 0 0 0 1.05-.196 2.94 2.94 0 0 0 .91-.588v-1.316a3.371 3.371 0 0 0-.896-.364 3.942 3.942 0 0 0-1.036-.126c-.523 0-.943.117-1.26.35a1.056 1.056 0 0 0-.476.91Zm6.753 1.988v-6.832h1.022v1.106c.261-.411.574-.714.938-.91a2.468 2.468 0 0 1 1.232-.308c.495 0 .924.107 1.288.322.373.205.663.499.868.882.215.373.322.812.322 1.316V780h-1.022v-4.13c0-.607-.168-1.083-.504-1.428-.327-.355-.77-.532-1.33-.532-.373 0-.714.089-1.022.266a2.139 2.139 0 0 0-.77.784V780h-1.022Zm10.889 3.066c-.458 0-.92-.065-1.386-.196a5.264 5.264 0 0 1-1.274-.518l.434-.784c.42.215.802.373 1.148.476.345.103.69.154 1.036.154.625 0 1.096-.149 1.414-.448.326-.299.49-.733.49-1.302v-1.372a2.676 2.676 0 0 1-.952.756 2.97 2.97 0 0 1-1.232.252c-.588 0-1.12-.154-1.596-.462a3.432 3.432 0 0 1-1.134-1.26 3.76 3.76 0 0 1-.42-1.778c0-.653.14-1.241.42-1.764a3.356 3.356 0 0 1 1.162-1.26 2.904 2.904 0 0 1 1.624-.476c.429 0 .826.084 1.19.252.364.159.681.397.952.714v-.882h1.008v7.266c0 .849-.248 1.498-.742 1.946-.495.457-1.209.686-2.142.686Zm-.07-3.864c.401 0 .77-.079 1.106-.238.336-.168.611-.397.826-.686v-3.374a2.257 2.257 0 0 0-.854-.672 2.38 2.38 0 0 0-1.078-.252c-.458 0-.868.112-1.232.336-.355.224-.64.532-.855.924-.205.392-.308.84-.308 1.344 0 .495.103.943.308 1.344.215.392.5.705.855.938.364.224.774.336 1.232.336Zm8.134.938a3.28 3.28 0 0 1-1.722-.462 3.472 3.472 0 0 1-1.218-1.274 3.7 3.7 0 0 1-.448-1.82c0-.672.14-1.274.42-1.806a3.364 3.364 0 0 1 1.162-1.26 2.968 2.968 0 0 1 1.624-.462c.607 0 1.143.154 1.61.462.476.299.849.709 1.12 1.232.28.513.42 1.097.42 1.75v.308h-5.362c.037.467.163.887.378 1.26.224.364.513.653.868.868.364.205.761.308 1.19.308a2.92 2.92 0 0 0 1.022-.182c.336-.131.621-.303.854-.518l.644.686a4.303 4.303 0 0 1-1.218.686 3.99 3.99 0 0 1-1.344.224Zm-2.366-4.06h4.326a2.504 2.504 0 0 0-.378-1.092 2.213 2.213 0 0 0-.756-.77 1.861 1.861 0 0 0-1.008-.28c-.373 0-.714.093-1.022.28a2.199 2.199 0 0 0-.77.756 2.933 2.933 0 0 0-.392 1.106Z"
    fill="#FFE8CC" />
  <path fill="#FFE8CC" d="M207 782h46v1h-46z" />
  <rect x="270.5" y="761.5" width="55" height="28" rx="14" fill="#73480B" />
  <rect x="270.5" y="761.5" width="55" height="28" rx="14" stroke="#B98412" />
  <path
    d="M281.976 780v-4.004l-3.808-5.796h1.26l3.122 4.858 3.136-4.858h1.19l-3.822 5.824V780h-1.078Zm7.742.14a3.28 3.28 0 0 1-1.722-.462 3.472 3.472 0 0 1-1.218-1.274 3.7 3.7 0 0 1-.448-1.82c0-.672.14-1.274.42-1.806a3.364 3.364 0 0 1 1.162-1.26 2.968 2.968 0 0 1 1.624-.462c.607 0 1.143.154 1.61.462.476.299.849.709 1.12 1.232.28.513.42 1.097.42 1.75v.308h-5.362c.037.467.163.887.378 1.26.224.364.513.653.868.868.364.205.761.308 1.19.308a2.92 2.92 0 0 0 1.022-.182c.336-.131.621-.303.854-.518l.644.686a4.303 4.303 0 0 1-1.218.686 3.99 3.99 0 0 1-1.344.224Zm-2.366-4.06h4.326a2.504 2.504 0 0 0-.378-1.092 2.213 2.213 0 0 0-.756-.77 1.861 1.861 0 0 0-1.008-.28c-.373 0-.714.093-1.022.28a2.199 2.199 0 0 0-.77.756 2.933 2.933 0 0 0-.392 1.106Zm7.079 3.92v-10.108l1.022-.21V780h-1.022Zm3.117 0v-10.108l1.022-.21V780h-1.022Zm6.141.112a3.211 3.211 0 0 1-1.708-.462 3.294 3.294 0 0 1-1.19-1.26c-.289-.532-.434-1.134-.434-1.806 0-.672.145-1.274.434-1.806.29-.532.686-.952 1.19-1.26a3.211 3.211 0 0 1 1.708-.462 3.11 3.11 0 0 1 1.68.462c.504.308.901.728 1.19 1.26.29.532.434 1.134.434 1.806 0 .672-.144 1.274-.434 1.806a3.287 3.287 0 0 1-1.19 1.26 3.11 3.11 0 0 1-1.68.462Zm-.014-.896c.448 0 .845-.112 1.19-.336a2.38 2.38 0 0 0 .812-.952c.206-.401.308-.849.308-1.344 0-.504-.102-.952-.308-1.344a2.28 2.28 0 0 0-.812-.938 2.077 2.077 0 0 0-1.19-.35 2.08 2.08 0 0 0-1.19.35c-.345.224-.62.537-.826.938-.196.392-.294.84-.294 1.344 0 .495.098.943.294 1.344.206.401.481.719.826.952a2.14 2.14 0 0 0 1.19.336Zm6.193.784-1.876-6.832h.994l1.428 5.46 1.638-5.46h.91l1.638 5.46 1.414-5.46h.966L315.118 780h-.994l-1.624-5.516-1.624 5.516h-1.008ZM279 782h38v1h-38z"
    fill="#FFF4CC" />
  <rect x="334.5" y="761.5" width="54" height="28" rx="14" fill="#204D00" />
  <rect x="334.5" y="761.5" width="54" height="28" rx="14" stroke="#63993D" />
  <path
    d="M347.74 780.154c-.7 0-1.349-.131-1.946-.392a5.118 5.118 0 0 1-1.582-1.078 5.163 5.163 0 0 1-1.05-1.61 5.162 5.162 0 0 1-.378-1.974c0-.7.126-1.353.378-1.96a4.992 4.992 0 0 1 2.632-2.702 4.806 4.806 0 0 1 1.946-.392 5.53 5.53 0 0 1 2.114.406 4.454 4.454 0 0 1 1.708 1.204l-.728.728a3.543 3.543 0 0 0-1.372-1.008 4.378 4.378 0 0 0-1.722-.35c-.551 0-1.059.107-1.526.322a3.789 3.789 0 0 0-1.232.868 3.98 3.98 0 0 0-.812 1.288 4.296 4.296 0 0 0-.294 1.596c0 .569.098 1.101.294 1.596.196.495.467.929.812 1.302.355.364.765.653 1.232.868.467.205.975.308 1.526.308.653 0 1.237-.145 1.75-.434a3.418 3.418 0 0 0 1.26-1.19 3.77 3.77 0 0 0 .574-1.722h-3.304v-.952h4.396v.434c0 .681-.117 1.316-.35 1.904a4.795 4.795 0 0 1-.994 1.54 4.62 4.62 0 0 1-1.484 1.036 4.655 4.655 0 0 1-1.848.364Zm6.494-.154v-6.832h1.022v1.4c.177-.476.429-.845.756-1.106a1.777 1.777 0 0 1 1.148-.406c.121 0 .233.009.336.028.102.009.205.033.308.07v.924a2.157 2.157 0 0 0-.364-.084 1.767 1.767 0 0 0-1.456.322c-.308.243-.551.583-.728 1.022V780h-1.022Zm7.578.14a3.28 3.28 0 0 1-1.722-.462 3.456 3.456 0 0 1-1.218-1.274 3.7 3.7 0 0 1-.448-1.82c0-.672.14-1.274.42-1.806a3.356 3.356 0 0 1 1.162-1.26 2.966 2.966 0 0 1 1.624-.462c.606 0 1.143.154 1.61.462.476.299.849.709 1.12 1.232.28.513.42 1.097.42 1.75v.308h-5.362c.037.467.163.887.378 1.26.224.364.513.653.868.868.364.205.76.308 1.19.308.354 0 .695-.061 1.022-.182.336-.131.62-.303.854-.518l.644.686a4.303 4.303 0 0 1-1.218.686 3.99 3.99 0 0 1-1.344.224Zm-2.366-4.06h4.326a2.504 2.504 0 0 0-.378-1.092 2.213 2.213 0 0 0-.756-.77 1.861 1.861 0 0 0-1.008-.28 1.93 1.93 0 0 0-1.022.28 2.199 2.199 0 0 0-.77.756 2.933 2.933 0 0 0-.392 1.106Zm10.159 4.06a3.28 3.28 0 0 1-1.722-.462 3.456 3.456 0 0 1-1.218-1.274 3.7 3.7 0 0 1-.448-1.82c0-.672.14-1.274.42-1.806a3.356 3.356 0 0 1 1.162-1.26 2.966 2.966 0 0 1 1.624-.462c.606 0 1.143.154 1.61.462.476.299.849.709 1.12 1.232.28.513.42 1.097.42 1.75v.308h-5.362c.037.467.163.887.378 1.26.224.364.513.653.868.868.364.205.76.308 1.19.308.354 0 .695-.061 1.022-.182.336-.131.62-.303.854-.518l.644.686a4.303 4.303 0 0 1-1.218.686 3.99 3.99 0 0 1-1.344.224Zm-2.366-4.06h4.326a2.504 2.504 0 0 0-.378-1.092 2.213 2.213 0 0 0-.756-.77 1.861 1.861 0 0 0-1.008-.28 1.93 1.93 0 0 0-1.022.28 2.199 2.199 0 0 0-.77.756 2.933 2.933 0 0 0-.392 1.106Zm7.079 3.92v-6.832h1.022v1.106c.261-.411.574-.714.938-.91a2.465 2.465 0 0 1 1.232-.308c.494 0 .924.107 1.288.322.373.205.662.499.868.882.214.373.322.812.322 1.316V780h-1.022v-4.13c0-.607-.168-1.083-.504-1.428-.327-.355-.77-.532-1.33-.532-.374 0-.714.089-1.022.266a2.139 2.139 0 0 0-.77.784V780h-1.022ZM343 782h37v1h-37z"
    fill="#E9F7DF" />
  <rect x="397.5" y="761.5" width="41" height="28" rx="14" fill="#004D4D" />
  <rect x="397.5" y="761.5" width="41" height="28" rx="14" stroke="#37A3A3" />
  <path
    d="M408.78 780v-8.848h-3.388v-.952h7.854v.952h-3.388V780h-1.078Zm7.596.14a3.28 3.28 0 0 1-1.722-.462 3.472 3.472 0 0 1-1.218-1.274 3.7 3.7 0 0 1-.448-1.82c0-.672.14-1.274.42-1.806a3.364 3.364 0 0 1 1.162-1.26 2.968 2.968 0 0 1 1.624-.462c.607 0 1.143.154 1.61.462.476.299.849.709 1.12 1.232.28.513.42 1.097.42 1.75v.308h-5.362c.037.467.163.887.378 1.26.224.364.513.653.868.868.364.205.761.308 1.19.308a2.92 2.92 0 0 0 1.022-.182c.336-.131.621-.303.854-.518l.644.686a4.303 4.303 0 0 1-1.218.686 3.99 3.99 0 0 1-1.344.224Zm-2.366-4.06h4.326a2.504 2.504 0 0 0-.378-1.092 2.213 2.213 0 0 0-.756-.77 1.861 1.861 0 0 0-1.008-.28c-.373 0-.714.093-1.022.28a2.199 2.199 0 0 0-.77.756 2.933 2.933 0 0 0-.392 1.106Zm9.056 4.046c-.485 0-.914-.089-1.288-.266a2.199 2.199 0 0 1-.882-.728 1.967 1.967 0 0 1-.308-1.092c0-.411.108-.765.322-1.064.215-.308.514-.546.896-.714.383-.168.831-.252 1.344-.252.392 0 .761.042 1.106.126.355.084.682.219.98.406v-.938c0-.56-.149-.98-.448-1.26-.298-.289-.737-.434-1.316-.434a3.67 3.67 0 0 0-.98.14c-.326.093-.69.243-1.092.448l-.378-.784c.915-.439 1.774-.658 2.576-.658.85 0 1.503.21 1.96.63.458.411.686 1.003.686 1.778V780h-1.008v-.798c-.298.308-.63.541-.994.7a3.074 3.074 0 0 1-1.176.224Zm-1.498-2.114c0 .401.154.723.462.966.318.243.733.364 1.246.364.383 0 .733-.065 1.05-.196.327-.131.63-.327.91-.588v-1.316a3.358 3.358 0 0 0-.896-.364 3.936 3.936 0 0 0-1.036-.126c-.522 0-.942.117-1.26.35a1.058 1.058 0 0 0-.476.91Zm6.753 1.988v-10.108l1.022-.21V780h-1.022ZM406 782h24v1h-24z"
    fill="#DAF2F2" />
  <circle cx="75" cy="776" r="11" fill="#B300B3" />
  <path
    d="M75.297 781.14c-.756 0-1.424-.201-2.002-.602-.57-.401-1.018-.952-1.344-1.652-.327-.709-.49-1.526-.49-2.45 0-1.083.182-2.025.546-2.828.364-.812.877-1.442 1.54-1.89.662-.448 1.432-.672 2.31-.672.41 0 .816.056 1.218.168.401.112.76.275 1.078.49l-.504.784a4.106 4.106 0 0 0-.91-.392 3.418 3.418 0 0 0-.966-.14c-.672 0-1.256.177-1.75.532-.486.345-.864.845-1.134 1.498-.262.653-.402 1.437-.42 2.352a3.93 3.93 0 0 1 1.302-1.092 3.369 3.369 0 0 1 1.568-.392c.634 0 1.2.131 1.694.392s.882.625 1.162 1.092c.28.457.42.98.42 1.568 0 .616-.145 1.171-.434 1.666-.29.485-.686.868-1.19 1.148-.495.28-1.06.42-1.694.42Zm-.098-5.46c-.514 0-1.008.131-1.484.392a3.83 3.83 0 0 0-1.218 1.05c.074.625.233 1.176.476 1.652.252.467.574.831.966 1.092.401.261.85.392 1.344.392.448 0 .844-.098 1.19-.294a2.16 2.16 0 0 0 .826-.84 2.33 2.33 0 0 0 .308-1.19c0-.439-.103-.826-.308-1.162a2.077 2.077 0 0 0-.854-.798c-.355-.196-.77-.294-1.246-.294ZM106.86 637v-11.376h-4.356V624.4h10.098v1.224h-4.356V637h-1.386Zm6.791 0v-8.784h1.314v1.8c.228-.612.552-1.086.972-1.422a2.289 2.289 0 0 1 1.476-.522c.156 0 .3.012.432.036.132.012.264.042.396.09v1.188a2.675 2.675 0 0 0-.468-.108 2.276 2.276 0 0 0-1.872.414c-.396.312-.708.75-.936 1.314V637h-1.314Zm8.677.162c-.624 0-1.176-.114-1.656-.342a2.825 2.825 0 0 1-1.134-.936 2.527 2.527 0 0 1-.396-1.404c0-.528.138-.984.414-1.368.276-.396.66-.702 1.152-.918.492-.216 1.068-.324 1.728-.324.504 0 .978.054 1.422.162.456.108.876.282 1.26.522v-1.206c0-.72-.192-1.26-.576-1.62-.384-.372-.948-.558-1.692-.558-.408 0-.828.06-1.26.18a7.91 7.91 0 0 0-1.404.576l-.486-1.008c1.176-.564 2.28-.846 3.312-.846 1.092 0 1.932.27 2.52.81.588.528.882 1.29.882 2.286V637h-1.296v-1.026c-.384.396-.81.696-1.278.9a3.945 3.945 0 0 1-1.512.288Zm-1.926-2.718c0 .516.198.93.594 1.242.408.312.942.468 1.602.468.492 0 .942-.084 1.35-.252.42-.168.81-.42 1.17-.756v-1.692a4.31 4.31 0 0 0-1.152-.468 5.063 5.063 0 0 0-1.332-.162c-.672 0-1.212.15-1.62.45-.408.288-.612.678-.612 1.17Zm8.664 2.556v-8.784h1.314V637h-1.314Zm.666-10.962a.966.966 0 0 1-.684-.27.945.945 0 0 1-.27-.666c0-.252.09-.468.27-.648a.934.934 0 0 1 .684-.288c.264 0 .486.096.666.288.192.18.288.396.288.648a.914.914 0 0 1-.288.666.905.905 0 0 1-.666.27ZM133.075 637v-8.784h1.314v1.422c.336-.528.738-.918 1.206-1.17a3.167 3.167 0 0 1 1.584-.396c.636 0 1.188.138 1.656.414.48.264.852.642 1.116 1.134.276.48.414 1.044.414 1.692V637h-1.314v-5.31c0-.78-.216-1.392-.648-1.836-.42-.456-.99-.684-1.71-.684-.48 0-.918.114-1.314.342-.396.228-.726.564-.99 1.008V637h-1.314Zm9.913 0v-8.784h1.314V637h-1.314Zm.666-10.962a.966.966 0 0 1-.684-.27.945.945 0 0 1-.27-.666c0-.252.09-.468.27-.648a.934.934 0 0 1 .684-.288c.264 0 .486.096.666.288.192.18.288.396.288.648a.914.914 0 0 1-.288.666.905.905 0 0 1-.666.27ZM146.996 637v-8.784h1.314v1.422c.336-.528.738-.918 1.206-1.17a3.167 3.167 0 0 1 1.584-.396c.636 0 1.188.138 1.656.414.48.264.852.642 1.116 1.134.276.48.414 1.044.414 1.692V637h-1.314v-5.31c0-.78-.216-1.392-.648-1.836-.42-.456-.99-.684-1.71-.684-.48 0-.918.114-1.314.342-.396.228-.726.564-.99 1.008V637h-1.314Zm14 3.942a6.586 6.586 0 0 1-1.782-.252 6.8 6.8 0 0 1-1.638-.666l.558-1.008a8.82 8.82 0 0 0 1.476.612c.444.132.888.198 1.332.198.804 0 1.41-.192 1.818-.576.42-.384.63-.942.63-1.674v-1.764a3.44 3.44 0 0 1-1.224.972 3.816 3.816 0 0 1-1.584.324c-.756 0-1.44-.198-2.052-.594a4.419 4.419 0 0 1-1.458-1.62c-.36-.684-.54-1.446-.54-2.286 0-.84.18-1.596.54-2.268a4.325 4.325 0 0 1 1.494-1.62 3.734 3.734 0 0 1 2.088-.612c.552 0 1.062.108 1.53.324.468.204.876.51 1.224.918v-1.134h1.296v9.342c0 1.092-.318 1.926-.954 2.502-.636.588-1.554.882-2.754.882Zm-.09-4.968c.516 0 .99-.102 1.422-.306.432-.216.786-.51 1.062-.882v-4.338a2.89 2.89 0 0 0-1.098-.864 3.057 3.057 0 0 0-1.386-.324c-.588 0-1.116.144-1.584.432a3.18 3.18 0 0 0-1.098 1.188c-.264.504-.396 1.08-.396 1.728 0 .636.132 1.212.396 1.728.276.504.642.906 1.098 1.206.468.288.996.432 1.584.432Zm14.12 1.224c-.828 0-1.554-.15-2.178-.45-.624-.3-1.11-.714-1.458-1.242-.348-.54-.522-1.17-.522-1.89 0-.744.204-1.392.612-1.944.408-.552 1.134-1.11 2.178-1.674-.42-.528-.72-1.008-.9-1.44a3.884 3.884 0 0 1-.252-1.386c0-.576.132-1.086.396-1.53a2.821 2.821 0 0 1 1.08-1.044c.468-.264.99-.396 1.566-.396.552 0 1.038.114 1.458.342a2.41 2.41 0 0 1 1.008.918c.252.384.378.834.378 1.35 0 .588-.162 1.116-.486 1.584-.324.468-.834.906-1.53 1.314l-.9.54a34.664 34.664 0 0 0 1.62 1.692 81.443 81.443 0 0 0 1.8 1.71c.3-.48.546-1.008.738-1.584.204-.576.366-1.176.486-1.8l1.224.198c-.156.768-.36 1.488-.612 2.16a9.433 9.433 0 0 1-.936 1.836c.384.336.768.66 1.152.972l1.08.846-.81.954c-.336-.264-.69-.54-1.062-.828l-1.098-.918c-1.068 1.14-2.412 1.71-4.032 1.71Zm-.252-7.776 1.026-.594c.444-.264.774-.558.99-.882.228-.324.342-.69.342-1.098 0-.456-.156-.828-.468-1.116-.312-.3-.696-.45-1.152-.45a1.68 1.68 0 0 0-1.26.522c-.324.336-.486.786-.486 1.35 0 .372.072.732.216 1.08.156.336.42.732.792 1.188Zm.306 6.642c.6 0 1.164-.114 1.692-.342.528-.24.996-.582 1.404-1.026a78.16 78.16 0 0 1-2.034-1.926 35.63 35.63 0 0 1-1.782-1.908c-.552.3-.996.588-1.332.864-.324.264-.558.546-.702.846a2.398 2.398 0 0 0-.198 1.008c0 .756.27 1.362.81 1.818.552.444 1.266.666 2.142.666Zm16.71 1.08a4.22 4.22 0 0 1-2.214-.594 4.51 4.51 0 0 1-1.548-1.638 4.69 4.69 0 0 1-.576-2.304c0-.852.192-1.62.576-2.304.384-.684.9-1.224 1.548-1.62a4.126 4.126 0 0 1 2.214-.612c.648 0 1.266.12 1.854.36.588.24 1.098.576 1.53 1.008l-.846.918a3.216 3.216 0 0 0-1.134-.81 3.373 3.373 0 0 0-1.35-.288 2.84 2.84 0 0 0-1.566.45c-.456.3-.822.702-1.098 1.206a3.464 3.464 0 0 0-.414 1.692c0 .624.138 1.188.414 1.692.276.504.642.906 1.098 1.206.468.3.99.45 1.566.45.456 0 .906-.096 1.35-.288a3.55 3.55 0 0 0 1.134-.81l.846.918a4.592 4.592 0 0 1-1.53 1.008 4.86 4.86 0 0 1-1.854.36Zm8.913.036a4.22 4.22 0 0 1-2.214-.594 4.46 4.46 0 0 1-1.566-1.638c-.384-.696-.576-1.476-.576-2.34 0-.864.18-1.638.54-2.322a4.325 4.325 0 0 1 1.494-1.62 3.816 3.816 0 0 1 2.088-.594c.78 0 1.47.198 2.07.594a3.998 3.998 0 0 1 1.44 1.584c.36.66.54 1.41.54 2.25v.396h-6.894c.048.6.21 1.14.486 1.62.288.468.66.84 1.116 1.116.468.264.978.396 1.53.396.456 0 .894-.078 1.314-.234.432-.168.798-.39 1.098-.666l.828.882a5.542 5.542 0 0 1-1.566.882 5.12 5.12 0 0 1-1.728.288Zm-3.042-5.22h5.562a3.213 3.213 0 0 0-.486-1.404 2.846 2.846 0 0 0-.972-.99 2.395 2.395 0 0 0-1.296-.36c-.48 0-.918.12-1.314.36a2.838 2.838 0 0 0-.99.972c-.252.408-.42.882-.504 1.422Zm9.101 5.04v-8.784h1.314v1.8c.228-.612.552-1.086.972-1.422a2.289 2.289 0 0 1 1.476-.522c.156 0 .3.012.432.036.132.012.264.042.396.09v1.188a2.675 2.675 0 0 0-.468-.108 2.276 2.276 0 0 0-1.872.414c-.396.312-.708.75-.936 1.314V637h-1.314Zm9.676.18c-.756 0-1.332-.18-1.728-.54-.384-.372-.576-.906-.576-1.602v-5.742h-1.818v-1.08h1.818v-2.412l1.314-.306v2.718h2.52v1.08h-2.52v5.4c0 .468.096.804.288 1.008.204.204.534.306.99.306.228 0 .432-.018.612-.054.18-.036.39-.096.63-.18v1.17c-.24.084-.492.144-.756.18a5.726 5.726 0 0 1-.774.054Zm3.437-.18v-8.784h1.314V637h-1.314Zm.666-10.962a.966.966 0 0 1-.684-.27.945.945 0 0 1-.27-.666c0-.252.09-.468.27-.648a.934.934 0 0 1 .684-.288c.264 0 .486.096.666.288.192.18.288.396.288.648a.914.914 0 0 1-.288.666.905.905 0 0 1-.666.27ZM224.999 637v-7.704h-1.962v-1.08h1.962v-1.836c0-.864.228-1.53.684-1.998.456-.468 1.104-.702 1.944-.702.24 0 .456.012.648.036.204.024.384.066.54.126v1.188a3.612 3.612 0 0 0-.522-.126 3.588 3.588 0 0 0-.54-.036c-.504 0-.87.126-1.098.378-.228.24-.342.624-.342 1.152v1.818h2.502v1.08h-2.502V637h-1.314Zm5.528 0v-8.784h1.314V637h-1.314Zm.666-10.962a.966.966 0 0 1-.684-.27.945.945 0 0 1-.27-.666c0-.252.09-.468.27-.648a.934.934 0 0 1 .684-.288c.264 0 .486.096.666.288.192.18.288.396.288.648a.914.914 0 0 1-.288.666.905.905 0 0 1-.666.27Zm7.285 11.106a4.22 4.22 0 0 1-2.214-.594 4.51 4.51 0 0 1-1.548-1.638 4.69 4.69 0 0 1-.576-2.304c0-.852.192-1.62.576-2.304.384-.684.9-1.224 1.548-1.62a4.126 4.126 0 0 1 2.214-.612c.648 0 1.266.12 1.854.36.588.24 1.098.576 1.53 1.008l-.846.918a3.216 3.216 0 0 0-1.134-.81 3.373 3.373 0 0 0-1.35-.288 2.84 2.84 0 0 0-1.566.45c-.456.3-.822.702-1.098 1.206a3.464 3.464 0 0 0-.414 1.692c0 .624.138 1.188.414 1.692.276.504.642.906 1.098 1.206.468.3.99.45 1.566.45.456 0 .906-.096 1.35-.288a3.55 3.55 0 0 0 1.134-.81l.846.918a4.592 4.592 0 0 1-1.53 1.008 4.86 4.86 0 0 1-1.854.36Zm7.934.018c-.624 0-1.176-.114-1.656-.342a2.825 2.825 0 0 1-1.134-.936 2.527 2.527 0 0 1-.396-1.404c0-.528.138-.984.414-1.368.276-.396.66-.702 1.152-.918.492-.216 1.068-.324 1.728-.324.504 0 .978.054 1.422.162.456.108.876.282 1.26.522v-1.206c0-.72-.192-1.26-.576-1.62-.384-.372-.948-.558-1.692-.558-.408 0-.828.06-1.26.18a7.91 7.91 0 0 0-1.404.576l-.486-1.008c1.176-.564 2.28-.846 3.312-.846 1.092 0 1.932.27 2.52.81.588.528.882 1.29.882 2.286V637h-1.296v-1.026c-.384.396-.81.696-1.278.9a3.945 3.945 0 0 1-1.512.288Zm-1.926-2.718c0 .516.198.93.594 1.242.408.312.942.468 1.602.468.492 0 .942-.084 1.35-.252.42-.168.81-.42 1.17-.756v-1.692a4.31 4.31 0 0 0-1.152-.468 5.063 5.063 0 0 0-1.332-.162c-.672 0-1.212.15-1.62.45-.408.288-.612.678-.612 1.17Zm11.767 2.736c-.756 0-1.332-.18-1.728-.54-.384-.372-.576-.906-.576-1.602v-5.742h-1.818v-1.08h1.818v-2.412l1.314-.306v2.718h2.52v1.08h-2.52v5.4c0 .468.096.804.288 1.008.204.204.534.306.99.306.228 0 .432-.018.612-.054.18-.036.39-.096.63-.18v1.17c-.24.084-.492.144-.756.18a5.726 5.726 0 0 1-.774.054Zm3.436-.18v-8.784h1.314V637h-1.314Zm.666-10.962a.966.966 0 0 1-.684-.27.945.945 0 0 1-.27-.666c0-.252.09-.468.27-.648a.934.934 0 0 1 .684-.288c.264 0 .486.096.666.288.192.18.288.396.288.648a.914.914 0 0 1-.288.666.905.905 0 0 1-.666.27Zm7.231 11.106c-.816 0-1.548-.198-2.196-.594a4.229 4.229 0 0 1-1.53-1.62c-.372-.684-.558-1.458-.558-2.322 0-.864.186-1.638.558-2.322a4.229 4.229 0 0 1 1.53-1.62c.648-.396 1.38-.594 2.196-.594.804 0 1.524.198 2.16.594a4.229 4.229 0 0 1 1.53 1.62c.372.684.558 1.458.558 2.322 0 .864-.186 1.638-.558 2.322a4.229 4.229 0 0 1-1.53 1.62c-.636.396-1.356.594-2.16.594Zm-.018-1.152c.576 0 1.086-.144 1.53-.432.444-.3.792-.708 1.044-1.224a3.738 3.738 0 0 0 .396-1.728c0-.648-.132-1.224-.396-1.728a2.935 2.935 0 0 0-1.044-1.206c-.444-.3-.954-.45-1.53-.45-.576 0-1.086.15-1.53.45-.444.288-.798.69-1.062 1.206-.252.504-.378 1.08-.378 1.728 0 .636.126 1.212.378 1.728.264.516.618.924 1.062 1.224.444.288.954.432 1.53.432Zm6.571 1.008v-8.784h1.314v1.422c.336-.528.738-.918 1.206-1.17a3.167 3.167 0 0 1 1.584-.396c.636 0 1.188.138 1.656.414.48.264.852.642 1.116 1.134.276.48.414 1.044.414 1.692V637h-1.314v-5.31c0-.78-.216-1.392-.648-1.836-.42-.456-.99-.684-1.71-.684-.48 0-.918.114-1.314.342-.396.228-.726.564-.99 1.008V637h-1.314ZM102 641.5h180.725v1.8H102v-1.8Z"
    fill="#fff" />
  <rect x="102.5" y="668.5" width="89" height="28" rx="14" stroke="#fff" />
  <path
    d="M111.246 687v-9.8h6.692v.952h-5.614v3.5h3.836v.938h-3.836V687h-1.078Zm7.652 0v-6.832h1.022v1.4c.177-.476.429-.845.756-1.106a1.777 1.777 0 0 1 1.148-.406c.121 0 .233.009.336.028.102.009.205.033.308.07v.924a2.157 2.157 0 0 0-.364-.084 1.767 1.767 0 0 0-1.456.322c-.308.243-.551.583-.728 1.022V687h-1.022Zm7.578.14a3.28 3.28 0 0 1-1.722-.462 3.456 3.456 0 0 1-1.218-1.274 3.7 3.7 0 0 1-.448-1.82c0-.672.14-1.274.42-1.806a3.356 3.356 0 0 1 1.162-1.26 2.966 2.966 0 0 1 1.624-.462c.606 0 1.143.154 1.61.462.476.299.849.709 1.12 1.232.28.513.42 1.097.42 1.75v.308h-5.362c.037.467.163.887.378 1.26.224.364.513.653.868.868.364.205.76.308 1.19.308.354 0 .695-.061 1.022-.182.336-.131.62-.303.854-.518l.644.686a4.303 4.303 0 0 1-1.218.686 3.99 3.99 0 0 1-1.344.224Zm-2.366-4.06h4.326a2.504 2.504 0 0 0-.378-1.092 2.213 2.213 0 0 0-.756-.77 1.861 1.861 0 0 0-1.008-.28 1.93 1.93 0 0 0-1.022.28 2.199 2.199 0 0 0-.77.756 2.933 2.933 0 0 0-.392 1.106Zm10.159 4.06a3.28 3.28 0 0 1-1.722-.462 3.456 3.456 0 0 1-1.218-1.274 3.7 3.7 0 0 1-.448-1.82c0-.672.14-1.274.42-1.806a3.356 3.356 0 0 1 1.162-1.26 2.966 2.966 0 0 1 1.624-.462c.606 0 1.143.154 1.61.462.476.299.849.709 1.12 1.232.28.513.42 1.097.42 1.75v.308h-5.362c.037.467.163.887.378 1.26.224.364.513.653.868.868.364.205.76.308 1.19.308.354 0 .695-.061 1.022-.182.336-.131.62-.303.854-.518l.644.686a4.303 4.303 0 0 1-1.218.686 3.99 3.99 0 0 1-1.344.224Zm-2.366-4.06h4.326a2.504 2.504 0 0 0-.378-1.092 2.213 2.213 0 0 0-.756-.77 1.861 1.861 0 0 0-1.008-.28 1.93 1.93 0 0 0-1.022.28 2.199 2.199 0 0 0-.77.756 2.933 2.933 0 0 0-.392 1.106Zm13.412 4.032a3.286 3.286 0 0 1-1.722-.462 3.508 3.508 0 0 1-1.204-1.274 3.655 3.655 0 0 1-.448-1.792c0-.663.15-1.26.448-1.792.299-.532.7-.952 1.204-1.26a3.215 3.215 0 0 1 1.722-.476c.504 0 .985.093 1.442.28a3.57 3.57 0 0 1 1.19.784l-.658.714a2.482 2.482 0 0 0-.882-.63 2.627 2.627 0 0 0-1.05-.224c-.448 0-.854.117-1.218.35a2.595 2.595 0 0 0-.854.938 2.702 2.702 0 0 0-.322 1.316c0 .485.108.924.322 1.316.215.392.5.705.854.938.364.233.77.35 1.218.35.355 0 .705-.075 1.05-.224.346-.159.64-.369.882-.63l.658.714a3.57 3.57 0 0 1-1.19.784c-.457.187-.938.28-1.442.28Zm6.876 0a3.211 3.211 0 0 1-1.708-.462 3.294 3.294 0 0 1-1.19-1.26c-.289-.532-.434-1.134-.434-1.806 0-.672.145-1.274.434-1.806.29-.532.686-.952 1.19-1.26a3.211 3.211 0 0 1 1.708-.462 3.11 3.11 0 0 1 1.68.462c.504.308.901.728 1.19 1.26.29.532.434 1.134.434 1.806 0 .672-.144 1.274-.434 1.806a3.287 3.287 0 0 1-1.19 1.26 3.11 3.11 0 0 1-1.68.462Zm-.014-.896c.448 0 .845-.112 1.19-.336a2.38 2.38 0 0 0 .812-.952c.206-.401.308-.849.308-1.344 0-.504-.102-.952-.308-1.344a2.28 2.28 0 0 0-.812-.938 2.077 2.077 0 0 0-1.19-.35 2.08 2.08 0 0 0-1.19.35c-.345.224-.62.537-.826.938-.196.392-.294.84-.294 1.344 0 .495.098.943.294 1.344.206.401.481.719.826.952a2.14 2.14 0 0 0 1.19.336Zm7.547.896c-.485 0-.914-.107-1.288-.322a2.33 2.33 0 0 1-.882-.896 2.744 2.744 0 0 1-.308-1.316v-4.41h1.036v4.116c0 .607.164 1.087.49 1.442.327.355.77.532 1.33.532.383 0 .724-.089 1.022-.266.308-.177.565-.434.77-.77v-5.054h1.022V687h-1.022v-1.106a2.717 2.717 0 0 1-.938.91 2.415 2.415 0 0 1-1.232.308Zm5.289-.112v-6.832h1.022v1.4c.177-.476.429-.845.756-1.106a1.779 1.779 0 0 1 1.148-.406c.121 0 .233.009.336.028.103.009.205.033.308.07v.924a2.135 2.135 0 0 0-.364-.084 1.767 1.767 0 0 0-1.456.322c-.308.243-.551.583-.728 1.022V687h-1.022Zm6.967.14c-.56 0-1.078-.084-1.554-.252a3.44 3.44 0 0 1-1.218-.756l.546-.672c.411.299.789.518 1.134.658.346.131.7.196 1.064.196.495 0 .906-.117 1.232-.35.327-.233.49-.532.49-.896 0-.28-.098-.499-.294-.658-.186-.159-.499-.28-.938-.364l-1.12-.196c-.662-.121-1.152-.327-1.47-.616-.308-.289-.462-.681-.462-1.176 0-.392.103-.737.308-1.036a2.14 2.14 0 0 1 .882-.7 2.941 2.941 0 0 1 1.274-.266c.467 0 .91.07 1.33.21.42.131.845.345 1.274.644l-.504.714a3.831 3.831 0 0 0-1.064-.546 3.316 3.316 0 0 0-1.078-.182c-.448 0-.807.098-1.078.294a.936.936 0 0 0-.406.798c0 .28.084.495.252.644.178.149.486.261.924.336l1.148.21c.691.121 1.195.331 1.512.63.318.299.476.7.476 1.204 0 .401-.116.765-.35 1.092-.233.317-.55.569-.952.756-.401.187-.854.28-1.358.28Zm7.365 0a3.28 3.28 0 0 1-1.722-.462 3.472 3.472 0 0 1-1.218-1.274 3.7 3.7 0 0 1-.448-1.82c0-.672.14-1.274.42-1.806a3.364 3.364 0 0 1 1.162-1.26 2.968 2.968 0 0 1 1.624-.462c.607 0 1.143.154 1.61.462.476.299.849.709 1.12 1.232.28.513.42 1.097.42 1.75v.308h-5.362c.037.467.163.887.378 1.26.224.364.513.653.868.868.364.205.761.308 1.19.308a2.92 2.92 0 0 0 1.022-.182c.336-.131.621-.303.854-.518l.644.686a4.303 4.303 0 0 1-1.218.686 3.99 3.99 0 0 1-1.344.224Zm-2.366-4.06h4.326a2.504 2.504 0 0 0-.378-1.092 2.213 2.213 0 0 0-.756-.77 1.861 1.861 0 0 0-1.008-.28c-.373 0-.714.093-1.022.28a2.199 2.199 0 0 0-.77.756 2.933 2.933 0 0 0-.392 1.106ZM111 689h72v1h-72z"
    fill="#fff" />
  <circle cx="75" cy="657" r="11" fill="#B300B3" />
  <path
    d="M74.835 662.154c-1.288 0-2.399-.443-3.332-1.33l.63-.686c.43.401.854.695 1.274.882.43.177.91.266 1.442.266.476 0 .896-.098 1.26-.294.364-.196.644-.471.84-.826.205-.355.308-.761.308-1.218 0-.653-.224-1.181-.672-1.582-.439-.401-1.018-.602-1.736-.602-.374 0-.738.047-1.092.14a4.934 4.934 0 0 0-1.106.42l-.7-.224.224-4.9h5.572v.882h-4.704l-.154 3.388a4.595 4.595 0 0 1 1.078-.392c.345-.084.71-.126 1.092-.126.644 0 1.204.126 1.68.378a2.62 2.62 0 0 1 1.12 1.036c.27.439.406.952.406 1.54 0 .644-.145 1.209-.434 1.694-.29.485-.69.868-1.204 1.148-.514.271-1.11.406-1.792.406Z"
    fill="#fff" />
  <path
    d="M106.41 494.154a5.499 5.499 0 0 1-2.128-.406c-.653-.28-1.283-.7-1.89-1.26l.658-.784c.588.551 1.139.943 1.652 1.176.523.233 1.101.35 1.736.35.504 0 .952-.084 1.344-.252.401-.177.714-.415.938-.714.224-.299.336-.639.336-1.022 0-.495-.163-.868-.49-1.12-.327-.261-.891-.462-1.694-.602l-1.582-.266c-.896-.159-1.554-.429-1.974-.812-.411-.392-.616-.915-.616-1.568 0-.551.14-1.036.42-1.456a2.938 2.938 0 0 1 1.19-1.008c.504-.243 1.087-.364 1.75-.364.728 0 1.405.103 2.03.308a6.664 6.664 0 0 1 1.848.938l-.56.84a5.794 5.794 0 0 0-1.596-.868 4.933 4.933 0 0 0-1.708-.308c-.457 0-.863.079-1.218.238a2.128 2.128 0 0 0-.826.644 1.537 1.537 0 0 0-.294.924c0 .429.145.765.434 1.008.289.243.761.415 1.414.518l1.568.266c1.045.187 1.801.49 2.268.91.476.411.714.985.714 1.722 0 .569-.163 1.078-.49 1.526-.317.448-.756.803-1.316 1.064-.56.252-1.199.378-1.918.378Zm8.579-.014a3.286 3.286 0 0 1-1.722-.462 3.472 3.472 0 0 1-1.218-1.274 3.71 3.71 0 0 1-.448-1.82c0-.672.14-1.274.42-1.806.29-.532.677-.952 1.162-1.26a2.97 2.97 0 0 1 1.624-.462c.607 0 1.144.154 1.61.462.476.299.85.709 1.12 1.232.28.513.42 1.097.42 1.75v.308h-5.362c.038.467.164.887.378 1.26.224.364.514.653.868.868.364.205.761.308 1.19.308.355 0 .696-.061 1.022-.182.336-.131.621-.303.854-.518l.644.686a4.303 4.303 0 0 1-1.218.686 3.99 3.99 0 0 1-1.344.224Zm-2.366-4.06h4.326a2.48 2.48 0 0 0-.378-1.092 2.213 2.213 0 0 0-.756-.77 1.857 1.857 0 0 0-1.008-.28c-.373 0-.714.093-1.022.28a2.207 2.207 0 0 0-.77.756 2.95 2.95 0 0 0-.392 1.106Zm10.159 4.06a3.286 3.286 0 0 1-1.722-.462 3.472 3.472 0 0 1-1.218-1.274 3.71 3.71 0 0 1-.448-1.82c0-.672.14-1.274.42-1.806.29-.532.677-.952 1.162-1.26a2.97 2.97 0 0 1 1.624-.462c.607 0 1.144.154 1.61.462.476.299.85.709 1.12 1.232.28.513.42 1.097.42 1.75v.308h-5.362c.038.467.164.887.378 1.26.224.364.514.653.868.868.364.205.761.308 1.19.308.355 0 .696-.061 1.022-.182.336-.131.621-.303.854-.518l.644.686a4.303 4.303 0 0 1-1.218.686 3.99 3.99 0 0 1-1.344.224Zm-2.366-4.06h4.326a2.48 2.48 0 0 0-.378-1.092 2.213 2.213 0 0 0-.756-.77 1.857 1.857 0 0 0-1.008-.28c-.373 0-.714.093-1.022.28a2.207 2.207 0 0 0-.77.756 2.95 2.95 0 0 0-.392 1.106Zm10.347 6.846v-9.758h1.008v.98c.261-.345.579-.607.952-.784.383-.187.803-.28 1.26-.28.597 0 1.129.159 1.596.476.476.308.854.728 1.134 1.26.28.523.42 1.111.42 1.764s-.145 1.246-.434 1.778c-.28.532-.663.957-1.148 1.274a2.923 2.923 0 0 1-1.624.462c-.429 0-.826-.079-1.19-.238a2.844 2.844 0 0 1-.952-.714v3.78h-1.022Zm2.968-3.71c.457 0 .863-.112 1.218-.336a2.43 2.43 0 0 0 .854-.938c.215-.401.322-.849.322-1.344 0-.504-.107-.952-.322-1.344a2.33 2.33 0 0 0-.854-.924 2.17 2.17 0 0 0-1.218-.35c-.401 0-.775.084-1.12.252a2.112 2.112 0 0 0-.826.686v3.346c.224.299.504.532.84.7.345.168.714.252 1.106.252Zm5.194.784v-6.832h1.022v1.4c.177-.476.429-.845.756-1.106a1.779 1.779 0 0 1 1.148-.406c.121 0 .233.009.336.028.103.009.205.033.308.07v.924a2.135 2.135 0 0 0-.364-.084 1.767 1.767 0 0 0-1.456.322c-.308.243-.551.583-.728 1.022V494h-1.022Zm4.908 0v-6.832h1.022V494h-1.022Zm.518-8.526a.751.751 0 0 1-.532-.21.734.734 0 0 1-.21-.518c0-.196.07-.364.21-.504a.728.728 0 0 1 .532-.224c.205 0 .378.075.518.224.149.14.224.308.224.504a.712.712 0 0 1-.224.518.704.704 0 0 1-.518.21ZM148.91 494l-2.8-6.832h1.106l2.212 5.558 2.184-5.558h1.092L149.89 494h-.98Zm6.895.126a2.97 2.97 0 0 1-1.288-.266 2.186 2.186 0 0 1-.882-.728 1.959 1.959 0 0 1-.308-1.092c0-.411.107-.765.322-1.064.214-.308.513-.546.896-.714.382-.168.83-.252 1.344-.252.392 0 .76.042 1.106.126.354.084.681.219.98.406v-.938c0-.56-.15-.98-.448-1.26-.299-.289-.738-.434-1.316-.434-.318 0-.644.047-.98.14a6.132 6.132 0 0 0-1.092.448l-.378-.784c.914-.439 1.773-.658 2.576-.658.849 0 1.502.21 1.96.63.457.411.686 1.003.686 1.778V494h-1.008v-.798c-.299.308-.63.541-.994.7a3.074 3.074 0 0 1-1.176.224Zm-1.498-2.114c0 .401.154.723.462.966.317.243.732.364 1.246.364a2.73 2.73 0 0 0 1.05-.196 2.94 2.94 0 0 0 .91-.588v-1.316a3.371 3.371 0 0 0-.896-.364 3.942 3.942 0 0 0-1.036-.126c-.523 0-.943.117-1.26.35a1.056 1.056 0 0 0-.476.91Zm9.819 2.1a3.28 3.28 0 0 1-1.722-.462 3.5 3.5 0 0 1-1.204-1.274 3.644 3.644 0 0 1-.448-1.792c0-.663.149-1.26.448-1.792a3.39 3.39 0 0 1 1.204-1.26 3.21 3.21 0 0 1 1.722-.476c.504 0 .984.093 1.442.28a3.58 3.58 0 0 1 1.19.784l-.658.714a2.5 2.5 0 0 0-.882-.63 2.634 2.634 0 0 0-1.05-.224c-.448 0-.854.117-1.218.35-.355.233-.64.546-.854.938a2.691 2.691 0 0 0-.322 1.316c0 .485.107.924.322 1.316.214.392.499.705.854.938.364.233.77.35 1.218.35.354 0 .704-.075 1.05-.224.345-.159.639-.369.882-.63l.658.714a3.58 3.58 0 0 1-1.19.784c-.458.187-.938.28-1.442.28Zm4.351 2.954c-.215 0-.434-.033-.658-.098v-.91a3.108 3.108 0 0 0 .56.056c.261 0 .476-.07.644-.21.177-.14.326-.359.448-.658l.504-1.246-2.632-6.832h1.134l2.072 5.614 2.198-5.614h1.134l-3.444 8.386c-.15.364-.313.658-.49.882a1.495 1.495 0 0 1-.616.476c-.234.103-.518.154-.854.154Zm12.06-2.926c-.56 0-1.078-.084-1.554-.252a3.44 3.44 0 0 1-1.218-.756l.546-.672c.411.299.789.518 1.134.658.345.131.7.196 1.064.196.495 0 .905-.117 1.232-.35.327-.233.49-.532.49-.896 0-.28-.098-.499-.294-.658-.187-.159-.499-.28-.938-.364l-1.12-.196c-.663-.121-1.153-.327-1.47-.616-.308-.289-.462-.681-.462-1.176 0-.392.103-.737.308-1.036a2.14 2.14 0 0 1 .882-.7 2.938 2.938 0 0 1 1.274-.266c.467 0 .91.07 1.33.21.42.131.845.345 1.274.644l-.504.714a3.845 3.845 0 0 0-1.064-.546 3.32 3.32 0 0 0-1.078-.182c-.448 0-.807.098-1.078.294a.933.933 0 0 0-.406.798c0 .28.084.495.252.644.177.149.485.261.924.336l1.148.21c.691.121 1.195.331 1.512.63.317.299.476.7.476 1.204 0 .401-.117.765-.35 1.092a2.424 2.424 0 0 1-.952.756c-.401.187-.854.28-1.358.28Zm6.683 0c-.588 0-1.036-.14-1.344-.42-.298-.289-.448-.705-.448-1.246v-4.466h-1.414v-.84h1.414v-1.876l1.022-.238v2.114h1.96v.84h-1.96v4.2c0 .364.075.625.224.784.159.159.416.238.77.238.178 0 .336-.014.476-.042.14-.028.304-.075.49-.14v.91a3.005 3.005 0 0 1-.588.14 4.45 4.45 0 0 1-.602.042Zm4.801-.014c-.485 0-.914-.089-1.288-.266a2.199 2.199 0 0 1-.882-.728 1.967 1.967 0 0 1-.308-1.092c0-.411.108-.765.322-1.064.215-.308.514-.546.896-.714.383-.168.831-.252 1.344-.252.392 0 .761.042 1.106.126.355.084.682.219.98.406v-.938c0-.56-.149-.98-.448-1.26-.298-.289-.737-.434-1.316-.434a3.67 3.67 0 0 0-.98.14c-.326.093-.69.243-1.092.448l-.378-.784c.915-.439 1.774-.658 2.576-.658.85 0 1.503.21 1.96.63.458.411.686 1.003.686 1.778V494h-1.008v-.798c-.298.308-.63.541-.994.7a3.074 3.074 0 0 1-1.176.224Zm-1.498-2.114c0 .401.154.723.462.966.318.243.733.364 1.246.364.383 0 .733-.065 1.05-.196.327-.131.63-.327.91-.588v-1.316a3.358 3.358 0 0 0-.896-.364 3.936 3.936 0 0 0-1.036-.126c-.522 0-.942.117-1.26.35a1.058 1.058 0 0 0-.476.91Zm9.152 2.128c-.588 0-1.036-.14-1.344-.42-.298-.289-.448-.705-.448-1.246v-4.466h-1.414v-.84h1.414v-1.876l1.022-.238v2.114h1.96v.84h-1.96v4.2c0 .364.075.625.224.784.159.159.416.238.77.238.178 0 .336-.014.476-.042.14-.028.304-.075.49-.14v.91a3.005 3.005 0 0 1-.588.14 4.45 4.45 0 0 1-.602.042Zm5.631 0a3.28 3.28 0 0 1-1.722-.462 3.456 3.456 0 0 1-1.218-1.274 3.7 3.7 0 0 1-.448-1.82c0-.672.14-1.274.42-1.806a3.356 3.356 0 0 1 1.162-1.26 2.966 2.966 0 0 1 1.624-.462c.606 0 1.143.154 1.61.462.476.299.849.709 1.12 1.232.28.513.42 1.097.42 1.75v.308h-5.362c.037.467.163.887.378 1.26.224.364.513.653.868.868.364.205.76.308 1.19.308.354 0 .695-.061 1.022-.182.336-.131.62-.303.854-.518l.644.686a4.303 4.303 0 0 1-1.218.686 3.99 3.99 0 0 1-1.344.224Zm-2.366-4.06h4.326a2.504 2.504 0 0 0-.378-1.092 2.213 2.213 0 0 0-.756-.77 1.861 1.861 0 0 0-1.008-.28 1.93 1.93 0 0 0-1.022.28 2.199 2.199 0 0 0-.77.756 2.933 2.933 0 0 0-.392 1.106Zm7.079 3.92v-6.832h1.022v1.064c.261-.392.56-.686.896-.882a2.209 2.209 0 0 1 1.134-.294c.485 0 .91.121 1.274.364.364.233.639.555.826.966.27-.439.592-.77.966-.994a2.554 2.554 0 0 1 1.316-.336c.457 0 .858.107 1.204.322.354.215.63.513.826.896.196.373.294.812.294 1.316V494h-1.022v-4.158c0-.597-.15-1.069-.448-1.414-.299-.345-.71-.518-1.232-.518-.355 0-.677.089-.966.266-.28.177-.528.448-.742.812a3.15 3.15 0 0 1 .056.602V494h-1.022v-4.158c0-.597-.154-1.069-.462-1.414-.299-.345-.71-.518-1.232-.518-.7 0-1.256.336-1.666 1.008V494h-1.022Zm14.906.14a3.28 3.28 0 0 1-1.722-.462 3.472 3.472 0 0 1-1.218-1.274 3.7 3.7 0 0 1-.448-1.82c0-.672.14-1.274.42-1.806a3.364 3.364 0 0 1 1.162-1.26 2.968 2.968 0 0 1 1.624-.462c.607 0 1.143.154 1.61.462.476.299.849.709 1.12 1.232.28.513.42 1.097.42 1.75v.308h-5.362c.037.467.163.887.378 1.26.224.364.513.653.868.868.364.205.761.308 1.19.308a2.92 2.92 0 0 0 1.022-.182c.336-.131.621-.303.854-.518l.644.686a4.303 4.303 0 0 1-1.218.686 3.99 3.99 0 0 1-1.344.224Zm-2.366-4.06h4.326a2.504 2.504 0 0 0-.378-1.092 2.213 2.213 0 0 0-.756-.77 1.861 1.861 0 0 0-1.008-.28c-.373 0-.714.093-1.022.28a2.199 2.199 0 0 0-.77.756 2.933 2.933 0 0 0-.392 1.106Zm7.079 3.92v-6.832h1.022v1.106c.261-.411.574-.714.938-.91a2.468 2.468 0 0 1 1.232-.308c.495 0 .924.107 1.288.322.373.205.663.499.868.882.215.373.322.812.322 1.316V494h-1.022v-4.13c0-.607-.168-1.083-.504-1.428-.327-.355-.77-.532-1.33-.532-.373 0-.714.089-1.022.266a2.139 2.139 0 0 0-.77.784V494h-1.022Zm10.123.14c-.588 0-1.036-.14-1.344-.42-.298-.289-.448-.705-.448-1.246v-4.466h-1.414v-.84h1.414v-1.876l1.022-.238v2.114h1.96v.84h-1.96v4.2c0 .364.075.625.224.784.159.159.416.238.77.238.178 0 .336-.014.476-.042.14-.028.304-.075.49-.14v.91a3.005 3.005 0 0 1-.588.14 4.45 4.45 0 0 1-.602.042Zm6.823-.14v-5.992h-1.526v-.84h1.526v-1.428c0-.672.177-1.19.532-1.554.355-.364.859-.546 1.512-.546.187 0 .355.009.504.028.159.019.299.051.42.098v.924a2.81 2.81 0 0 0-.406-.098 2.741 2.741 0 0 0-.42-.028c-.392 0-.677.098-.854.294-.177.187-.266.485-.266.896v1.414h1.946v.84h-1.946V494h-1.022Zm7.051.112a3.209 3.209 0 0 1-1.708-.462 3.287 3.287 0 0 1-1.19-1.26c-.29-.532-.434-1.134-.434-1.806 0-.672.144-1.274.434-1.806a3.287 3.287 0 0 1 1.19-1.26 3.209 3.209 0 0 1 1.708-.462c.625 0 1.185.154 1.68.462.504.308.9.728 1.19 1.26.289.532.434 1.134.434 1.806 0 .672-.145 1.274-.434 1.806-.29.532-.686.952-1.19 1.26a3.114 3.114 0 0 1-1.68.462Zm-.014-.896a2.14 2.14 0 0 0 1.19-.336c.345-.233.616-.551.812-.952a2.91 2.91 0 0 0 .308-1.344c0-.504-.103-.952-.308-1.344a2.287 2.287 0 0 0-.812-.938 2.08 2.08 0 0 0-1.19-.35c-.448 0-.845.117-1.19.35a2.378 2.378 0 0 0-.826.938c-.196.392-.294.84-.294 1.344 0 .495.098.943.294 1.344.205.401.48.719.826.952.345.224.742.336 1.19.336Zm5.111.784v-6.832h1.022v1.4c.177-.476.429-.845.756-1.106a1.777 1.777 0 0 1 1.148-.406c.121 0 .233.009.336.028.102.009.205.033.308.07v.924a2.157 2.157 0 0 0-.364-.084 1.767 1.767 0 0 0-1.456.322c-.308.243-.551.583-.728 1.022V494h-1.022Zm11.031.098c-.588 0-1.12-.154-1.596-.462a3.432 3.432 0 0 1-1.134-1.26 3.76 3.76 0 0 1-.42-1.778c0-.663.14-1.255.42-1.778a3.364 3.364 0 0 1 1.162-1.26 2.906 2.906 0 0 1 1.624-.476c.42 0 .812.084 1.176.252.364.159.681.392.952.7v-4.144l1.022-.21V494h-1.022v-.91a2.668 2.668 0 0 1-.952.756 2.967 2.967 0 0 1-1.232.252Zm.252-.896c.401 0 .77-.079 1.106-.238.336-.159.611-.383.826-.672v-3.388a2.257 2.257 0 0 0-.854-.672 2.377 2.377 0 0 0-1.078-.252c-.457 0-.868.112-1.232.336a2.474 2.474 0 0 0-.854.924c-.205.392-.308.84-.308 1.344 0 .495.103.943.308 1.344.215.392.499.705.854.938.364.224.775.336 1.232.336Zm8.135.938a3.28 3.28 0 0 1-1.722-.462 3.456 3.456 0 0 1-1.218-1.274 3.7 3.7 0 0 1-.448-1.82c0-.672.14-1.274.42-1.806a3.356 3.356 0 0 1 1.162-1.26 2.966 2.966 0 0 1 1.624-.462c.606 0 1.143.154 1.61.462.476.299.849.709 1.12 1.232.28.513.42 1.097.42 1.75v.308h-5.362c.037.467.163.887.378 1.26.224.364.513.653.868.868.364.205.76.308 1.19.308.354 0 .695-.061 1.022-.182.336-.131.62-.303.854-.518l.644.686a4.303 4.303 0 0 1-1.218.686 3.99 3.99 0 0 1-1.344.224Zm-2.366-4.06h4.326a2.504 2.504 0 0 0-.378-1.092 2.213 2.213 0 0 0-.756-.77 1.861 1.861 0 0 0-1.008-.28 1.93 1.93 0 0 0-1.022.28 2.199 2.199 0 0 0-.77.756 2.933 2.933 0 0 0-.392 1.106Zm9.477 4.06c-.588 0-1.036-.14-1.344-.42-.298-.289-.448-.705-.448-1.246v-4.466h-1.414v-.84h1.414v-1.876l1.022-.238v2.114h1.96v.84h-1.96v4.2c0 .364.075.625.224.784.159.159.416.238.77.238.178 0 .336-.014.476-.042.14-.028.304-.075.49-.14v.91a3.005 3.005 0 0 1-.588.14 4.45 4.45 0 0 1-.602.042Zm4.801-.014c-.485 0-.914-.089-1.288-.266a2.199 2.199 0 0 1-.882-.728 1.967 1.967 0 0 1-.308-1.092c0-.411.108-.765.322-1.064.215-.308.514-.546.896-.714.383-.168.831-.252 1.344-.252.392 0 .761.042 1.106.126.355.084.682.219.98.406v-.938c0-.56-.149-.98-.448-1.26-.298-.289-.737-.434-1.316-.434a3.67 3.67 0 0 0-.98.14c-.326.093-.69.243-1.092.448l-.378-.784c.915-.439 1.774-.658 2.576-.658.85 0 1.503.21 1.96.63.458.411.686 1.003.686 1.778V494h-1.008v-.798c-.298.308-.63.541-.994.7a3.074 3.074 0 0 1-1.176.224Zm-1.498-2.114c0 .401.154.723.462.966.318.243.733.364 1.246.364.383 0 .733-.065 1.05-.196.327-.131.63-.327.91-.588v-1.316a3.358 3.358 0 0 0-.896-.364 3.936 3.936 0 0 0-1.036-.126c-.522 0-.942.117-1.26.35a1.058 1.058 0 0 0-.476.91Zm6.74 1.988v-6.832h1.022V494h-1.022Zm.518-8.526a.75.75 0 0 1-.532-.21.734.734 0 0 1-.21-.518c0-.196.07-.364.21-.504a.726.726 0 0 1 .532-.224c.205 0 .378.075.518.224.149.14.224.308.224.504a.712.712 0 0 1-.224.518.704.704 0 0 1-.518.21Zm2.599 8.526v-10.108l1.022-.21V494h-1.022Zm5.231.14c-.56 0-1.078-.084-1.554-.252a3.44 3.44 0 0 1-1.218-.756l.546-.672c.411.299.789.518 1.134.658.346.131.7.196 1.064.196.495 0 .906-.117 1.232-.35.327-.233.49-.532.49-.896 0-.28-.098-.499-.294-.658-.186-.159-.499-.28-.938-.364l-1.12-.196c-.662-.121-1.152-.327-1.47-.616-.308-.289-.462-.681-.462-1.176 0-.392.103-.737.308-1.036a2.14 2.14 0 0 1 .882-.7 2.941 2.941 0 0 1 1.274-.266c.467 0 .91.07 1.33.21.42.131.845.345 1.274.644l-.504.714a3.831 3.831 0 0 0-1.064-.546 3.316 3.316 0 0 0-1.078-.182c-.448 0-.807.098-1.078.294a.936.936 0 0 0-.406.798c0 .28.084.495.252.644.178.149.486.261.924.336l1.148.21c.691.121 1.195.331 1.512.63.318.299.476.7.476 1.204 0 .401-.116.765-.35 1.092-.233.317-.55.569-.952.756-.401.187-.854.28-1.358.28Zm4.78-.028a.726.726 0 0 1-.532-.224.751.751 0 0 1-.21-.532.72.72 0 0 1 .21-.532.726.726 0 0 1 .532-.224c.205 0 .378.075.518.224.149.14.224.317.224.532a.728.728 0 0 1-.224.532.684.684 0 0 1-.518.224ZM102 497.5h208.182v1.4H102v-1.4Z"
    fill="#C7C7C7" />
  <rect x="102.5" y="524.5" width="64" height="28" rx="14" fill="#383838" />
  <rect x="102.5" y="524.5" width="64" height="28" rx="14" stroke="#707070" />
  <path
    d="M111.232 543v-9.8h1.078v9.8h-1.078Zm3.359 0v-6.832h1.022v1.106c.261-.411.574-.714.938-.91a2.468 2.468 0 0 1 1.232-.308c.495 0 .924.107 1.288.322.373.205.663.499.868.882.215.373.322.812.322 1.316V543h-1.022v-4.13c0-.607-.168-1.083-.504-1.428-.327-.355-.77-.532-1.33-.532-.373 0-.714.089-1.022.266a2.139 2.139 0 0 0-.77.784V543h-1.022Zm9.839.126a2.97 2.97 0 0 1-1.288-.266 2.186 2.186 0 0 1-.882-.728 1.959 1.959 0 0 1-.308-1.092c0-.411.107-.765.322-1.064.214-.308.513-.546.896-.714.382-.168.83-.252 1.344-.252.392 0 .76.042 1.106.126.354.084.681.219.98.406v-.938c0-.56-.15-.98-.448-1.26-.299-.289-.738-.434-1.316-.434-.318 0-.644.047-.98.14a6.132 6.132 0 0 0-1.092.448l-.378-.784c.914-.439 1.773-.658 2.576-.658.849 0 1.502.21 1.96.63.457.411.686 1.003.686 1.778V543H126.6v-.798c-.299.308-.63.541-.994.7a3.074 3.074 0 0 1-1.176.224Zm-1.498-2.114c0 .401.154.723.462.966.317.243.732.364 1.246.364a2.73 2.73 0 0 0 1.05-.196 2.94 2.94 0 0 0 .91-.588v-1.316a3.371 3.371 0 0 0-.896-.364 3.942 3.942 0 0 0-1.036-.126c-.523 0-.943.117-1.26.35a1.056 1.056 0 0 0-.476.91Zm9.819 2.1a3.28 3.28 0 0 1-1.722-.462 3.5 3.5 0 0 1-1.204-1.274 3.644 3.644 0 0 1-.448-1.792c0-.663.149-1.26.448-1.792a3.39 3.39 0 0 1 1.204-1.26 3.21 3.21 0 0 1 1.722-.476c.504 0 .984.093 1.442.28a3.58 3.58 0 0 1 1.19.784l-.658.714a2.5 2.5 0 0 0-.882-.63 2.634 2.634 0 0 0-1.05-.224c-.448 0-.854.117-1.218.35-.355.233-.64.546-.854.938a2.691 2.691 0 0 0-.322 1.316c0 .485.107.924.322 1.316.214.392.499.705.854.938.364.233.77.35 1.218.35.354 0 .704-.075 1.05-.224.345-.159.639-.369.882-.63l.658.714a3.58 3.58 0 0 1-1.19.784c-.458.187-.938.28-1.442.28Zm6.798.028c-.588 0-1.036-.14-1.344-.42-.299-.289-.448-.705-.448-1.246v-4.466h-1.414v-.84h1.414v-1.876l1.022-.238v2.114h1.96v.84h-1.96v4.2c0 .364.074.625.224.784.158.159.415.238.77.238.177 0 .336-.014.476-.042.14-.028.303-.075.49-.14v.91a3.04 3.04 0 0 1-.588.14 4.461 4.461 0 0 1-.602.042Zm2.673-.14v-6.832h1.022V543h-1.022Zm.518-8.526a.75.75 0 0 1-.532-.21.734.734 0 0 1-.21-.518c0-.196.07-.364.21-.504a.726.726 0 0 1 .532-.224c.205 0 .378.075.518.224.149.14.224.308.224.504a.712.712 0 0 1-.224.518.704.704 0 0 1-.518.21Zm4.559 8.526-2.8-6.832h1.106l2.212 5.558 2.184-5.558h1.092L148.279 543h-.98Zm7.929.14a3.28 3.28 0 0 1-1.722-.462 3.456 3.456 0 0 1-1.218-1.274 3.7 3.7 0 0 1-.448-1.82c0-.672.14-1.274.42-1.806a3.356 3.356 0 0 1 1.162-1.26 2.966 2.966 0 0 1 1.624-.462c.606 0 1.143.154 1.61.462.476.299.849.709 1.12 1.232.28.513.42 1.097.42 1.75v.308h-5.362c.037.467.163.887.378 1.26.224.364.513.653.868.868.364.205.76.308 1.19.308.354 0 .695-.061 1.022-.182.336-.131.62-.303.854-.518l.644.686a4.303 4.303 0 0 1-1.218.686 3.99 3.99 0 0 1-1.344.224Zm-2.366-4.06h4.326a2.504 2.504 0 0 0-.378-1.092 2.213 2.213 0 0 0-.756-.77 1.861 1.861 0 0 0-1.008-.28 1.93 1.93 0 0 0-1.022.28 2.199 2.199 0 0 0-.77.756 2.933 2.933 0 0 0-.392 1.106ZM111 545h47v1h-47z"
    fill="#F2F2F2" />
  <rect x="175.5" y="524.5" width="64" height="28" rx="14" fill="#151515" />
  <rect x="175.5" y="524.5" width="64" height="28" rx="14" stroke="#707070" />
  <path
    d="M184.232 543v-9.8h1.078v9.8h-1.078Zm3.359 0v-6.832h1.022v1.106c.261-.411.574-.714.938-.91a2.468 2.468 0 0 1 1.232-.308c.495 0 .924.107 1.288.322.373.205.663.499.868.882.215.373.322.812.322 1.316V543h-1.022v-4.13c0-.607-.168-1.083-.504-1.428-.327-.355-.77-.532-1.33-.532-.373 0-.714.089-1.022.266a2.139 2.139 0 0 0-.77.784V543h-1.022Zm9.839.126a2.97 2.97 0 0 1-1.288-.266 2.186 2.186 0 0 1-.882-.728 1.959 1.959 0 0 1-.308-1.092c0-.411.107-.765.322-1.064.214-.308.513-.546.896-.714.382-.168.83-.252 1.344-.252.392 0 .76.042 1.106.126.354.084.681.219.98.406v-.938c0-.56-.15-.98-.448-1.26-.299-.289-.738-.434-1.316-.434-.318 0-.644.047-.98.14a6.132 6.132 0 0 0-1.092.448l-.378-.784c.914-.439 1.773-.658 2.576-.658.849 0 1.502.21 1.96.63.457.411.686 1.003.686 1.778V543H199.6v-.798c-.299.308-.63.541-.994.7a3.074 3.074 0 0 1-1.176.224Zm-1.498-2.114c0 .401.154.723.462.966.317.243.732.364 1.246.364a2.73 2.73 0 0 0 1.05-.196 2.94 2.94 0 0 0 .91-.588v-1.316a3.371 3.371 0 0 0-.896-.364 3.942 3.942 0 0 0-1.036-.126c-.523 0-.943.117-1.26.35a1.056 1.056 0 0 0-.476.91Zm9.819 2.1a3.28 3.28 0 0 1-1.722-.462 3.5 3.5 0 0 1-1.204-1.274 3.644 3.644 0 0 1-.448-1.792c0-.663.149-1.26.448-1.792a3.39 3.39 0 0 1 1.204-1.26 3.21 3.21 0 0 1 1.722-.476c.504 0 .984.093 1.442.28a3.58 3.58 0 0 1 1.19.784l-.658.714a2.5 2.5 0 0 0-.882-.63 2.634 2.634 0 0 0-1.05-.224c-.448 0-.854.117-1.218.35-.355.233-.64.546-.854.938a2.691 2.691 0 0 0-.322 1.316c0 .485.107.924.322 1.316.214.392.499.705.854.938.364.233.77.35 1.218.35.354 0 .704-.075 1.05-.224.345-.159.639-.369.882-.63l.658.714a3.58 3.58 0 0 1-1.19.784c-.458.187-.938.28-1.442.28Zm6.798.028c-.588 0-1.036-.14-1.344-.42-.299-.289-.448-.705-.448-1.246v-4.466h-1.414v-.84h1.414v-1.876l1.022-.238v2.114h1.96v.84h-1.96v4.2c0 .364.074.625.224.784.158.159.415.238.77.238.177 0 .336-.014.476-.042.14-.028.303-.075.49-.14v.91a3.04 3.04 0 0 1-.588.14 4.461 4.461 0 0 1-.602.042Zm2.673-.14v-6.832h1.022V543h-1.022Zm.518-8.526a.75.75 0 0 1-.532-.21.734.734 0 0 1-.21-.518c0-.196.07-.364.21-.504a.726.726 0 0 1 .532-.224c.205 0 .378.075.518.224.149.14.224.308.224.504a.712.712 0 0 1-.224.518.704.704 0 0 1-.518.21Zm4.559 8.526-2.8-6.832h1.106l2.212 5.558 2.184-5.558h1.092L221.279 543h-.98Zm7.929.14a3.28 3.28 0 0 1-1.722-.462 3.456 3.456 0 0 1-1.218-1.274 3.7 3.7 0 0 1-.448-1.82c0-.672.14-1.274.42-1.806a3.356 3.356 0 0 1 1.162-1.26 2.966 2.966 0 0 1 1.624-.462c.606 0 1.143.154 1.61.462.476.299.849.709 1.12 1.232.28.513.42 1.097.42 1.75v.308h-5.362c.037.467.163.887.378 1.26.224.364.513.653.868.868.364.205.76.308 1.19.308.354 0 .695-.061 1.022-.182.336-.131.62-.303.854-.518l.644.686a4.303 4.303 0 0 1-1.218.686 3.99 3.99 0 0 1-1.344.224Zm-2.366-4.06h4.326a2.504 2.504 0 0 0-.378-1.092 2.213 2.213 0 0 0-.756-.77 1.861 1.861 0 0 0-1.008-.28 1.93 1.93 0 0 0-1.022.28 2.199 2.199 0 0 0-.77.756 2.933 2.933 0 0 0-.392 1.106ZM184 545h47v1h-47z"
    fill="#C7C7C7" />
  <circle cx="75" cy="516" r="11" fill="#B300B3" />
  <path
    d="M76.5 521v-2.618H71.21v-.798l5.208-6.384h1.078v6.3h1.358v.882h-1.358V521H76.5Zm-4.115-3.5H76.5v-5.082l-4.116 5.082Z"
    fill="#fff" />
  <rect x="102" y="359" width="152" height="56" rx="3" fill="#E00" />
  <path
    d="M140.512 393.176a6.15 6.15 0 0 1-2.32-.432 6.08 6.08 0 0 1-1.888-1.232 5.944 5.944 0 0 1-1.28-1.84 5.75 5.75 0 0 1-.448-2.272c0-.811.149-1.563.448-2.256a5.839 5.839 0 0 1 1.264-1.84 5.55 5.55 0 0 1 1.872-1.232 6.027 6.027 0 0 1 2.32-.448c.928 0 1.803.187 2.624.56a5.333 5.333 0 0 1 2.032 1.536l-1.616 1.488a3.79 3.79 0 0 0-1.36-1.088 3.912 3.912 0 0 0-1.68-.368c-.501 0-.965.096-1.392.288-.427.181-.8.437-1.12.768a3.42 3.42 0 0 0-.752 1.152 3.919 3.919 0 0 0-.256 1.44c0 .523.091 1.008.272 1.456.181.448.432.837.752 1.168.331.32.709.576 1.136.768.437.181.912.272 1.424.272.533 0 1.013-.096 1.44-.288.427-.203.784-.48 1.072-.832.299-.363.496-.768.592-1.216h-3.312v-2.016h5.792v.704c0 .832-.144 1.6-.432 2.304a5.63 5.63 0 0 1-1.168 1.824 5.38 5.38 0 0 1-1.776 1.2 5.705 5.705 0 0 1-2.24.432Zm11.135-.016a4.555 4.555 0 0 1-2.272-.576 4.38 4.38 0 0 1-1.6-1.552c-.395-.651-.592-1.381-.592-2.192 0-.811.187-1.541.56-2.192a4.324 4.324 0 0 1 1.552-1.552 4.202 4.202 0 0 1 2.176-.576c.8 0 1.509.197 2.128.592a4.135 4.135 0 0 1 1.456 1.6c.363.672.544 1.435.544 2.288v.576h-6.176c.096.331.251.629.464.896.224.267.496.475.816.624.331.149.683.224 1.056.224s.715-.059 1.024-.176c.32-.117.592-.283.816-.496l1.44 1.312c-.512.416-1.04.72-1.584.912-.533.192-1.136.288-1.808.288Zm-2.256-5.152h4.048a2.036 2.036 0 0 0-.416-.864 1.982 1.982 0 0 0-.704-.592 1.806 1.806 0 0 0-.896-.224c-.341 0-.651.069-.928.208a1.982 1.982 0 0 0-.704.592 2.47 2.47 0 0 0-.4.88Zm11.269 5.12c-.928 0-1.632-.208-2.112-.624-.47-.427-.704-1.045-.704-1.856v-4.16h-1.712v-1.824h1.712v-2.128l2.192-.496v2.624h2.384v1.824h-2.384v3.712c0 .384.085.661.256.832.17.16.469.24.896.24.213 0 .405-.011.576-.032.181-.032.378-.085.592-.16v1.808a4.508 4.508 0 0 1-.848.176 6.73 6.73 0 0 1-.848.064Zm9.168.032a7.49 7.49 0 0 1-2.128-.288 5.31 5.31 0 0 1-1.696-.864l1.088-1.456c.48.32.938.56 1.376.72.448.16.89.24 1.328.24.49 0 .88-.08 1.168-.24.298-.171.448-.389.448-.656a.61.61 0 0 0-.256-.512c-.16-.128-.422-.219-.784-.272l-1.6-.24c-.832-.128-1.462-.395-1.888-.8-.427-.416-.64-.96-.64-1.632 0-.544.138-1.008.416-1.392.288-.395.688-.699 1.2-.912.522-.224 1.141-.336 1.856-.336.608 0 1.2.085 1.776.256a5.723 5.723 0 0 1 1.648.784l-1.056 1.424a5.59 5.59 0 0 0-1.312-.624 4.279 4.279 0 0 0-1.264-.192c-.395 0-.715.075-.96.224-.235.149-.352.347-.352.592 0 .224.085.4.256.528.17.128.464.219.88.272l1.584.24c.832.117 1.466.384 1.904.8.437.405.656.933.656 1.584 0 .533-.16 1.008-.48 1.424-.32.405-.752.731-1.296.976-.544.235-1.168.352-1.872.352Zm8.535-.032c-.928 0-1.632-.208-2.112-.624-.469-.427-.704-1.045-.704-1.856v-4.16h-1.712v-1.824h1.712v-2.128l2.192-.496v2.624h2.384v1.824h-2.384v3.712c0 .384.085.661.256.832.171.16.469.24.896.24.213 0 .405-.011.576-.032.181-.032.379-.085.592-.16v1.808a4.508 4.508 0 0 1-.848.176 6.717 6.717 0 0 1-.848.064Zm5.485.016c-.597 0-1.125-.107-1.584-.32a2.651 2.651 0 0 1-1.072-.912 2.339 2.339 0 0 1-.384-1.328c0-.8.299-1.419.896-1.856.608-.448 1.44-.672 2.496-.672.725 0 1.408.112 2.048.336v-.608c0-.48-.149-.843-.448-1.088-.299-.245-.736-.368-1.312-.368-.352 0-.731.059-1.136.176a9.723 9.723 0 0 0-1.408.512l-.8-1.616a11.173 11.173 0 0 1 1.888-.672 7.64 7.64 0 0 1 1.824-.224c1.12 0 1.989.272 2.608.816.629.533.944 1.291.944 2.272V393h-2.16v-.592a3.47 3.47 0 0 1-1.104.56 4.548 4.548 0 0 1-1.296.176Zm-.96-2.608c0 .32.139.576.416.768.277.181.645.272 1.104.272a3.79 3.79 0 0 0 1.008-.128c.309-.096.587-.235.832-.416v-1.216a4.342 4.342 0 0 0-.832-.24 5.124 5.124 0 0 0-.928-.08c-.501 0-.896.096-1.184.288a.853.853 0 0 0-.416.752Zm7.179 2.464v-8.336h2.192v.928c.267-.363.587-.64.96-.832a2.723 2.723 0 0 1 1.264-.288c.405.011.709.075.912.192v1.92a2.02 2.02 0 0 0-.528-.16 2.698 2.698 0 0 0-.592-.064c-.427 0-.816.107-1.168.32a2.331 2.331 0 0 0-.848.912V393h-2.192Zm10.483.128c-.928 0-1.632-.208-2.112-.624-.469-.427-.704-1.045-.704-1.856v-4.16h-1.712v-1.824h1.712v-2.128l2.192-.496v2.624h2.384v1.824h-2.384v3.712c0 .384.086.661.256.832.171.16.47.24.896.24.214 0 .406-.011.576-.032.182-.032.379-.085.592-.16v1.808a4.49 4.49 0 0 1-.848.176c-.33.043-.613.064-.848.064Zm6.816.032a4.555 4.555 0 0 1-2.272-.576 4.38 4.38 0 0 1-1.6-1.552c-.395-.651-.592-1.381-.592-2.192 0-.811.187-1.541.56-2.192a4.324 4.324 0 0 1 1.552-1.552 4.202 4.202 0 0 1 2.176-.576c.8 0 1.509.197 2.128.592a4.135 4.135 0 0 1 1.456 1.6c.363.672.544 1.435.544 2.288v.576h-6.176c.096.331.251.629.464.896.224.267.496.475.816.624.331.149.683.224 1.056.224s.715-.059 1.024-.176c.32-.117.592-.283.816-.496l1.44 1.312c-.512.416-1.04.72-1.584.912-.533.192-1.136.288-1.808.288Zm-2.256-5.152h4.048a2.036 2.036 0 0 0-.416-.864 1.982 1.982 0 0 0-.704-.592 1.806 1.806 0 0 0-.896-.224c-.341 0-.651.069-.928.208a1.982 1.982 0 0 0-.704.592 2.47 2.47 0 0 0-.4.88Zm11.469 5.104a4.088 4.088 0 0 1-2.144-.576 4.412 4.412 0 0 1-1.536-1.536 4.298 4.298 0 0 1-.56-2.176c0-.8.187-1.52.56-2.16a4.203 4.203 0 0 1 1.552-1.536c.651-.384 1.382-.576 2.192-.576.416 0 .816.059 1.2.176.384.107.742.267 1.072.48V381.8l2.192-.368V393h-2.16v-.688c-.682.533-1.472.8-2.368.8Zm.352-1.872a3.03 3.03 0 0 0 1.104-.192c.342-.139.635-.341.88-.608v-3.248a2.626 2.626 0 0 0-.88-.576 2.896 2.896 0 0 0-1.104-.208c-.458 0-.874.107-1.248.32-.362.203-.65.491-.864.864-.213.363-.32.773-.32 1.232 0 .459.107.869.32 1.232.214.363.502.651.864.864.374.213.79.32 1.248.32Z"
    fill="#fff" />
  <rect x="278.5" y="373" width="91" height="28" rx="14" fill="#5F0000" />
  <rect x="278.5" y="373" width="91" height="28" rx="14" stroke="#E00" />
  <path
    d="M289.78 391.5v-8.848h-3.388v-.952h7.854v.952h-3.388v8.848h-1.078Zm5.282 0v-6.832h1.022v1.4c.177-.476.429-.845.756-1.106a1.777 1.777 0 0 1 1.148-.406c.121 0 .233.009.336.028.102.009.205.033.308.07v.924a2.157 2.157 0 0 0-.364-.084 1.767 1.767 0 0 0-1.456.322c-.308.243-.551.583-.728 1.022v4.662h-1.022Zm4.908 0v-6.832h1.022v6.832h-1.022Zm.518-8.526a.75.75 0 0 1-.532-.21.734.734 0 0 1-.21-.518c0-.196.07-.364.21-.504a.726.726 0 0 1 .532-.224c.205 0 .378.075.518.224.149.14.224.308.224.504a.712.712 0 0 1-.224.518.704.704 0 0 1-.518.21Zm4.713 8.652c-.485 0-.915-.089-1.288-.266a2.199 2.199 0 0 1-.882-.728 1.967 1.967 0 0 1-.308-1.092c0-.411.107-.765.322-1.064.215-.308.513-.546.896-.714.383-.168.831-.252 1.344-.252.392 0 .761.042 1.106.126.355.084.681.219.98.406v-.938c0-.56-.149-.98-.448-1.26-.299-.289-.737-.434-1.316-.434a3.67 3.67 0 0 0-.98.14 6.132 6.132 0 0 0-1.092.448l-.378-.784c.915-.439 1.773-.658 2.576-.658.849 0 1.503.21 1.96.63.457.411.686 1.003.686 1.778v4.536h-1.008v-.798c-.299.308-.63.541-.994.7a3.074 3.074 0 0 1-1.176.224Zm-1.498-2.114c0 .401.154.723.462.966.317.243.733.364 1.246.364.383 0 .733-.065 1.05-.196.327-.131.63-.327.91-.588v-1.316a3.358 3.358 0 0 0-.896-.364 3.936 3.936 0 0 0-1.036-.126c-.523 0-.943.117-1.26.35a1.058 1.058 0 0 0-.476.91Zm6.753 1.988v-10.108l1.022-.21V391.5h-1.022Zm9.465.14a3.28 3.28 0 0 1-1.722-.462 3.472 3.472 0 0 1-1.218-1.274 3.7 3.7 0 0 1-.448-1.82c0-.672.14-1.274.42-1.806a3.364 3.364 0 0 1 1.162-1.26 2.968 2.968 0 0 1 1.624-.462c.607 0 1.143.154 1.61.462.476.299.849.709 1.12 1.232.28.513.42 1.097.42 1.75v.308h-5.362c.037.467.163.887.378 1.26.224.364.513.653.868.868.364.205.761.308 1.19.308a2.92 2.92 0 0 0 1.022-.182c.336-.131.621-.303.854-.518l.644.686a4.303 4.303 0 0 1-1.218.686 3.99 3.99 0 0 1-1.344.224Zm-2.366-4.06h4.326a2.504 2.504 0 0 0-.378-1.092 2.213 2.213 0 0 0-.756-.77 1.861 1.861 0 0 0-1.008-.28c-.373 0-.714.093-1.022.28a2.199 2.199 0 0 0-.77.756 2.933 2.933 0 0 0-.392 1.106Zm5.787 3.92 2.618-3.542-2.464-3.29h1.218l1.89 2.604 1.876-2.604h1.162l-2.478 3.318 2.632 3.514h-1.218l-2.044-2.786-2.03 2.786h-1.162Zm7.69 2.926v-9.758h1.008v.98c.262-.345.579-.607.952-.784.383-.187.803-.28 1.26-.28.598 0 1.13.159 1.596.476.476.308.854.728 1.134 1.26.28.523.42 1.111.42 1.764s-.144 1.246-.434 1.778c-.28.532-.662.957-1.148 1.274a2.923 2.923 0 0 1-1.624.462c-.429 0-.826-.079-1.19-.238a2.844 2.844 0 0 1-.952-.714v3.78h-1.022Zm2.968-3.71c.458 0 .864-.112 1.218-.336a2.43 2.43 0 0 0 .854-.938c.215-.401.322-.849.322-1.344 0-.504-.107-.952-.322-1.344a2.33 2.33 0 0 0-.854-.924 2.165 2.165 0 0 0-1.218-.35 2.53 2.53 0 0 0-1.12.252 2.112 2.112 0 0 0-.826.686v3.346c.224.299.504.532.84.7.346.168.714.252 1.106.252Zm5.181.784v-6.832h1.022v6.832h-1.022Zm.518-8.526a.75.75 0 0 1-.532-.21.734.734 0 0 1-.21-.518c0-.196.07-.364.21-.504a.726.726 0 0 1 .532-.224c.205 0 .378.075.518.224.149.14.224.308.224.504a.712.712 0 0 1-.224.518.704.704 0 0 1-.518.21Zm2.599 8.526v-6.832h1.022v1.4c.177-.476.429-.845.756-1.106a1.779 1.779 0 0 1 1.148-.406c.121 0 .233.009.336.028.103.009.205.033.308.07v.924a2.135 2.135 0 0 0-.364-.084 1.767 1.767 0 0 0-1.456.322c-.308.243-.551.583-.728 1.022v4.662h-1.022Zm7.578.14a3.28 3.28 0 0 1-1.722-.462 3.472 3.472 0 0 1-1.218-1.274 3.7 3.7 0 0 1-.448-1.82c0-.672.14-1.274.42-1.806a3.364 3.364 0 0 1 1.162-1.26 2.968 2.968 0 0 1 1.624-.462c.607 0 1.143.154 1.61.462.476.299.849.709 1.12 1.232.28.513.42 1.097.42 1.75v.308h-5.362c.037.467.163.887.378 1.26.224.364.513.653.868.868.364.205.761.308 1.19.308a2.92 2.92 0 0 0 1.022-.182c.336-.131.621-.303.854-.518l.644.686a4.303 4.303 0 0 1-1.218.686 3.99 3.99 0 0 1-1.344.224Zm-2.366-4.06h4.326a2.504 2.504 0 0 0-.378-1.092 2.213 2.213 0 0 0-.756-.77 1.861 1.861 0 0 0-1.008-.28c-.373 0-.714.093-1.022.28a2.199 2.199 0 0 0-.77.756 2.933 2.933 0 0 0-.392 1.106Zm9.921 4.018c-.588 0-1.12-.154-1.596-.462a3.432 3.432 0 0 1-1.134-1.26 3.76 3.76 0 0 1-.42-1.778c0-.663.14-1.255.42-1.778a3.364 3.364 0 0 1 1.162-1.26 2.906 2.906 0 0 1 1.624-.476c.42 0 .812.084 1.176.252.364.159.681.392.952.7v-4.144l1.022-.21V391.5h-1.022v-.91a2.668 2.668 0 0 1-.952.756 2.967 2.967 0 0 1-1.232.252Zm.252-.896c.401 0 .77-.079 1.106-.238.336-.159.611-.383.826-.672v-3.388a2.257 2.257 0 0 0-.854-.672 2.377 2.377 0 0 0-1.078-.252c-.457 0-.868.112-1.232.336a2.474 2.474 0 0 0-.854.924c-.205.392-.308.84-.308 1.344 0 .495.103.943.308 1.344.215.392.499.705.854.938.364.224.775.336 1.232.336Z"
    fill="#FCE3E3" />
  <path fill="#FCE3E3" d="M287 393.5h74v1h-74z" />
  <circle cx="75" cy="387" r="11" fill="#B300B3" />
  <path
    d="M74.807 392.154a5.084 5.084 0 0 1-1.89-.35 4.486 4.486 0 0 1-1.54-1.036l.672-.658c.41.411.83.709 1.26.896.438.177.933.266 1.484.266.476 0 .896-.084 1.26-.252.373-.168.662-.401.868-.7a1.76 1.76 0 0 0 .308-1.022 1.7 1.7 0 0 0-.28-.966 1.79 1.79 0 0 0-.742-.672 2.405 2.405 0 0 0-1.092-.238h-1.162v-.868h1.12c.532 0 .961-.163 1.288-.49.336-.327.504-.751.504-1.274 0-.345-.094-.658-.28-.938a1.902 1.902 0 0 0-.77-.658 2.268 2.268 0 0 0-1.078-.252c-.504 0-.957.093-1.358.28-.392.177-.794.481-1.204.91l-.672-.672a4.355 4.355 0 0 1 1.484-1.05 4.32 4.32 0 0 1 1.764-.364c.597 0 1.13.117 1.596.35.476.233.85.555 1.12.966.27.401.406.859.406 1.372 0 .513-.168.975-.504 1.386-.336.401-.78.681-1.33.84.662.149 1.194.439 1.596.868.401.429.602.929.602 1.498 0 .541-.15 1.027-.448 1.456-.29.429-.696.765-1.218 1.008-.514.243-1.102.364-1.764.364Z"
    fill="#fff" />
  <path
    d="m105.474 235-2.718-12.6h1.404l2.142 10.422 3.114-10.422h1.35l3.114 10.386 2.16-10.386h1.35l-2.718 12.6h-1.404l-3.186-10.692L106.878 235h-1.404Zm14.03 0v-12.996l1.314-.27v5.904c.336-.528.738-.918 1.206-1.17a3.167 3.167 0 0 1 1.584-.396c.636 0 1.188.138 1.656.414.48.264.852.642 1.116 1.134.276.48.414 1.044.414 1.692V235h-1.314v-5.31c0-.78-.216-1.392-.648-1.836-.42-.456-.99-.684-1.71-.684-.48 0-.918.114-1.314.342-.396.228-.726.564-.99 1.008V235h-1.314Zm12.65.162c-.624 0-1.176-.114-1.656-.342a2.825 2.825 0 0 1-1.134-.936 2.527 2.527 0 0 1-.396-1.404c0-.528.138-.984.414-1.368.276-.396.66-.702 1.152-.918.492-.216 1.068-.324 1.728-.324.504 0 .978.054 1.422.162.456.108.876.282 1.26.522v-1.206c0-.72-.192-1.26-.576-1.62-.384-.372-.948-.558-1.692-.558-.408 0-.828.06-1.26.18a7.91 7.91 0 0 0-1.404.576l-.486-1.008c1.176-.564 2.28-.846 3.312-.846 1.092 0 1.932.27 2.52.81.588.528.882 1.29.882 2.286V235h-1.296v-1.026c-.384.396-.81.696-1.278.9a3.945 3.945 0 0 1-1.512.288Zm-1.926-2.718c0 .516.198.93.594 1.242.408.312.942.468 1.602.468.492 0 .942-.084 1.35-.252.42-.168.81-.42 1.17-.756v-1.692a4.31 4.31 0 0 0-1.152-.468 5.063 5.063 0 0 0-1.332-.162c-.672 0-1.212.15-1.62.45-.408.288-.612.678-.612 1.17Zm11.767 2.736c-.756 0-1.332-.18-1.728-.54-.384-.372-.576-.906-.576-1.602v-5.742h-1.818v-1.08h1.818v-2.412l1.314-.306v2.718h2.52v1.08h-2.52v5.4c0 .468.096.804.288 1.008.204.204.534.306.99.306.228 0 .432-.018.612-.054.18-.036.39-.096.63-.18v1.17c-.24.084-.492.144-.756.18a5.726 5.726 0 0 1-.774.054Zm7.638-.18v-8.784h1.314V235h-1.314Zm.666-10.962a.966.966 0 0 1-.684-.27.945.945 0 0 1-.27-.666c0-.252.09-.468.27-.648a.934.934 0 0 1 .684-.288c.264 0 .486.096.666.288.192.18.288.396.288.648a.914.914 0 0 1-.288.666.905.905 0 0 1-.666.27Zm6.06 11.142c-.72 0-1.386-.108-1.998-.324a4.435 4.435 0 0 1-1.566-.972l.702-.864c.528.384 1.014.666 1.458.846.444.168.9.252 1.368.252.636 0 1.164-.15 1.584-.45.42-.3.63-.684.63-1.152 0-.36-.126-.642-.378-.846-.24-.204-.642-.36-1.206-.468l-1.44-.252c-.852-.156-1.482-.42-1.89-.792-.396-.372-.594-.876-.594-1.512 0-.504.132-.948.396-1.332a2.75 2.75 0 0 1 1.134-.9c.48-.228 1.026-.342 1.638-.342.6 0 1.17.09 1.71.27.54.168 1.086.444 1.638.828l-.648.918a4.943 4.943 0 0 0-1.368-.702 4.256 4.256 0 0 0-1.386-.234c-.576 0-1.038.126-1.386.378a1.2 1.2 0 0 0-.522 1.026c0 .36.108.636.324.828.228.192.624.336 1.188.432l1.476.27c.888.156 1.536.426 1.944.81.408.384.612.9.612 1.548 0 .516-.15.984-.45 1.404-.3.408-.708.732-1.224.972s-1.098.36-1.746.36Zm13.69 3.762a6.586 6.586 0 0 1-1.782-.252 6.8 6.8 0 0 1-1.638-.666l.558-1.008a8.82 8.82 0 0 0 1.476.612c.444.132.888.198 1.332.198.804 0 1.41-.192 1.818-.576.42-.384.63-.942.63-1.674v-1.764a3.44 3.44 0 0 1-1.224.972 3.816 3.816 0 0 1-1.584.324c-.756 0-1.44-.198-2.052-.594a4.419 4.419 0 0 1-1.458-1.62c-.36-.684-.54-1.446-.54-2.286 0-.84.18-1.596.54-2.268a4.325 4.325 0 0 1 1.494-1.62 3.734 3.734 0 0 1 2.088-.612c.552 0 1.062.108 1.53.324.468.204.876.51 1.224.918v-1.134h1.296v9.342c0 1.092-.318 1.926-.954 2.502-.636.588-1.554.882-2.754.882Zm-.09-4.968c.516 0 .99-.102 1.422-.306.432-.216.786-.51 1.062-.882v-4.338a2.89 2.89 0 0 0-1.098-.864 3.057 3.057 0 0 0-1.386-.324c-.588 0-1.116.144-1.584.432a3.18 3.18 0 0 0-1.098 1.188c-.264.504-.396 1.08-.396 1.728 0 .636.132 1.212.396 1.728.276.504.642.906 1.098 1.206.468.288.996.432 1.584.432Zm10.458 1.206a4.22 4.22 0 0 1-2.214-.594 4.46 4.46 0 0 1-1.566-1.638c-.384-.696-.576-1.476-.576-2.34 0-.864.18-1.638.54-2.322a4.325 4.325 0 0 1 1.494-1.62 3.816 3.816 0 0 1 2.088-.594c.78 0 1.47.198 2.07.594a3.998 3.998 0 0 1 1.44 1.584c.36.66.54 1.41.54 2.25v.396h-6.894c.048.6.21 1.14.486 1.62.288.468.66.84 1.116 1.116.468.264.978.396 1.53.396.456 0 .894-.078 1.314-.234.432-.168.798-.39 1.098-.666l.828.882a5.542 5.542 0 0 1-1.566.882 5.12 5.12 0 0 1-1.728.288Zm-3.042-5.22h5.562a3.213 3.213 0 0 0-.486-1.404 2.846 2.846 0 0 0-.972-.99 2.395 2.395 0 0 0-1.296-.36c-.48 0-.918.12-1.314.36a2.838 2.838 0 0 0-.99.972c-.252.408-.42.882-.504 1.422Zm9.102 5.04v-8.784h1.314v1.422c.336-.528.738-.918 1.206-1.17a3.167 3.167 0 0 1 1.584-.396c.636 0 1.188.138 1.656.414.48.264.852.642 1.116 1.134.276.48.414 1.044.414 1.692V235h-1.314v-5.31c0-.78-.216-1.392-.648-1.836-.42-.456-.99-.684-1.71-.684-.48 0-.918.114-1.314.342-.396.228-.726.564-.99 1.008V235h-1.314Zm13.892.18a4.22 4.22 0 0 1-2.214-.594 4.46 4.46 0 0 1-1.566-1.638c-.384-.696-.576-1.476-.576-2.34 0-.864.18-1.638.54-2.322a4.325 4.325 0 0 1 1.494-1.62 3.816 3.816 0 0 1 2.088-.594c.78 0 1.47.198 2.07.594a3.998 3.998 0 0 1 1.44 1.584c.36.66.54 1.41.54 2.25v.396h-6.894c.048.6.21 1.14.486 1.62.288.468.66.84 1.116 1.116.468.264.978.396 1.53.396.456 0 .894-.078 1.314-.234.432-.168.798-.39 1.098-.666l.828.882a5.542 5.542 0 0 1-1.566.882 5.12 5.12 0 0 1-1.728.288Zm-3.042-5.22h5.562a3.213 3.213 0 0 0-.486-1.404 2.846 2.846 0 0 0-.972-.99 2.395 2.395 0 0 0-1.296-.36c-.48 0-.918.12-1.314.36a2.838 2.838 0 0 0-.99.972c-.252.408-.42.882-.504 1.422Zm9.101 5.04v-8.784h1.314v1.8c.228-.612.552-1.086.972-1.422a2.289 2.289 0 0 1 1.476-.522c.156 0 .3.012.432.036.132.012.264.042.396.09v1.188a2.675 2.675 0 0 0-.468-.108 2.276 2.276 0 0 0-1.872.414c-.396.312-.708.75-.936 1.314V235h-1.314Zm8.677.162c-.624 0-1.176-.114-1.656-.342a2.825 2.825 0 0 1-1.134-.936 2.527 2.527 0 0 1-.396-1.404c0-.528.138-.984.414-1.368.276-.396.66-.702 1.152-.918.492-.216 1.068-.324 1.728-.324.504 0 .978.054 1.422.162.456.108.876.282 1.26.522v-1.206c0-.72-.192-1.26-.576-1.62-.384-.372-.948-.558-1.692-.558-.408 0-.828.06-1.26.18a7.91 7.91 0 0 0-1.404.576l-.486-1.008c1.176-.564 2.28-.846 3.312-.846 1.092 0 1.932.27 2.52.81.588.528.882 1.29.882 2.286V235h-1.296v-1.026c-.384.396-.81.696-1.278.9a3.945 3.945 0 0 1-1.512.288Zm-1.926-2.718c0 .516.198.93.594 1.242.408.312.942.468 1.602.468.492 0 .942-.084 1.35-.252.42-.168.81-.42 1.17-.756v-1.692a4.31 4.31 0 0 0-1.152-.468 5.063 5.063 0 0 0-1.332-.162c-.672 0-1.212.15-1.62.45-.408.288-.612.678-.612 1.17Zm11.767 2.736c-.756 0-1.332-.18-1.728-.54-.384-.372-.576-.906-.576-1.602v-5.742h-1.818v-1.08h1.818v-2.412l1.314-.306v2.718h2.52v1.08h-2.52v5.4c0 .468.096.804.288 1.008.204.204.534.306.99.306.228 0 .432-.018.612-.054.18-.036.39-.096.63-.18v1.17c-.24.084-.492.144-.756.18a5.726 5.726 0 0 1-.774.054Zm3.437-.18v-8.784h1.314V235h-1.314Zm.666-10.962a.966.966 0 0 1-.684-.27.945.945 0 0 1-.27-.666c0-.252.09-.468.27-.648a.934.934 0 0 1 .684-.288c.264 0 .486.096.666.288.192.18.288.396.288.648a.914.914 0 0 1-.288.666.905.905 0 0 1-.666.27ZM234.911 235l-3.6-8.784h1.422l2.844 7.146 2.808-7.146h1.404L236.171 235h-1.26Zm10.194.18a4.22 4.22 0 0 1-2.214-.594 4.46 4.46 0 0 1-1.566-1.638c-.384-.696-.576-1.476-.576-2.34 0-.864.18-1.638.54-2.322a4.325 4.325 0 0 1 1.494-1.62 3.816 3.816 0 0 1 2.088-.594c.78 0 1.47.198 2.07.594a3.998 3.998 0 0 1 1.44 1.584c.36.66.54 1.41.54 2.25v.396h-6.894c.048.6.21 1.14.486 1.62.288.468.66.84 1.116 1.116.468.264.978.396 1.53.396.456 0 .894-.078 1.314-.234.432-.168.798-.39 1.098-.666l.828.882a5.542 5.542 0 0 1-1.566.882 5.12 5.12 0 0 1-1.728.288Zm-3.042-5.22h5.562a3.213 3.213 0 0 0-.486-1.404 2.846 2.846 0 0 0-.972-.99 2.395 2.395 0 0 0-1.296-.36c-.48 0-.918.12-1.314.36a2.838 2.838 0 0 0-.99.972c-.252.408-.42.882-.504 1.422Zm12.115 5.04 4.986-12.6h1.656l4.914 12.6h-1.494l-1.494-3.96h-5.616l-1.494 3.96h-1.458Zm3.384-5.058h4.77l-2.394-6.282-2.376 6.282Zm9.92 5.058v-12.6h1.386V235h-1.386Zm6.443-3.726a5.59 5.59 0 0 1 .072-1.314c.084-.372.234-.708.45-1.008.216-.312.51-.606.882-.882l.756-.558c.492-.384.84-.732 1.044-1.044.204-.312.306-.672.306-1.08 0-.372-.108-.702-.324-.99a2.214 2.214 0 0 0-.882-.684 2.856 2.856 0 0 0-1.26-.27c-.564 0-1.092.138-1.584.414-.492.276-.93.678-1.314 1.206l-1.008-.684c.492-.684 1.074-1.206 1.746-1.566a4.561 4.561 0 0 1 2.214-.558c.708 0 1.338.138 1.89.414.552.264.99.63 1.314 1.098.324.468.486 1.002.486 1.602 0 .408-.066.78-.198 1.116-.12.324-.324.642-.612.954-.288.312-.69.654-1.206 1.026l-.576.432c-.408.3-.696.636-.864 1.008-.168.372-.234.828-.198 1.368h-1.134Zm.594 3.87a.966.966 0 0 1-.684-.27.966.966 0 0 1-.27-.684c0-.276.09-.504.27-.684.192-.18.42-.27.684-.27a.927.927 0 0 1 .936.954c0 .264-.09.492-.27.684a.905.905 0 0 1-.666.27ZM102 239.5h177.667v1.8H102v-1.8Z"
    fill="#B6A6E9" />
  <rect x="102.5" y="266.5" width="67" height="28" rx="14" fill="#21134D" />
  <rect x="102.5" y="266.5" width="67" height="28" rx="14" stroke="#5E40BE" />
  <path
    d="M111.246 285v-9.8h4.046c.635 0 1.185.121 1.652.364.467.233.826.569 1.078 1.008.261.429.392.938.392 1.526 0 .579-.131 1.087-.392 1.526a2.589 2.589 0 0 1-1.078 1.022c-.467.233-1.017.35-1.652.35h-2.968V285h-1.078Zm1.078-4.928h2.842c.681 0 1.213-.177 1.596-.532.383-.355.574-.835.574-1.442s-.191-1.083-.574-1.428c-.383-.345-.915-.518-1.596-.518h-2.842v3.92ZM120.21 285v-10.108l1.022-.21V285h-1.022Zm5.231.126c-.485 0-.914-.089-1.288-.266a2.199 2.199 0 0 1-.882-.728 1.967 1.967 0 0 1-.308-1.092c0-.411.108-.765.322-1.064.215-.308.514-.546.896-.714.383-.168.831-.252 1.344-.252.392 0 .761.042 1.106.126.355.084.682.219.98.406v-.938c0-.56-.149-.98-.448-1.26-.298-.289-.737-.434-1.316-.434a3.67 3.67 0 0 0-.98.14c-.326.093-.69.243-1.092.448l-.378-.784c.915-.439 1.774-.658 2.576-.658.85 0 1.503.21 1.96.63.458.411.686 1.003.686 1.778V285h-1.008v-.798c-.298.308-.63.541-.994.7a3.074 3.074 0 0 1-1.176.224Zm-1.498-2.114c0 .401.154.723.462.966.318.243.733.364 1.246.364.383 0 .733-.065 1.05-.196.327-.131.63-.327.91-.588v-1.316a3.358 3.358 0 0 0-.896-.364 3.936 3.936 0 0 0-1.036-.126c-.522 0-.942.117-1.26.35a1.058 1.058 0 0 0-.476.91Zm6.753 1.988v-6.832h1.022v1.106c.262-.411.574-.714.938-.91a2.468 2.468 0 0 1 1.232-.308c.495 0 .924.107 1.288.322.374.205.663.499.868.882.215.373.322.812.322 1.316V285h-1.022v-4.13c0-.607-.168-1.083-.504-1.428-.326-.355-.77-.532-1.33-.532-.373 0-.714.089-1.022.266a2.147 2.147 0 0 0-.77.784V285h-1.022Zm7.725 0v-6.832h1.022v1.106c.261-.411.574-.714.938-.91a2.468 2.468 0 0 1 1.232-.308c.495 0 .924.107 1.288.322.373.205.663.499.868.882.215.373.322.812.322 1.316V285h-1.022v-4.13c0-.607-.168-1.083-.504-1.428-.327-.355-.77-.532-1.33-.532-.373 0-.714.089-1.022.266a2.139 2.139 0 0 0-.77.784V285h-1.022Zm10.805.14a3.28 3.28 0 0 1-1.722-.462 3.456 3.456 0 0 1-1.218-1.274 3.7 3.7 0 0 1-.448-1.82c0-.672.14-1.274.42-1.806a3.356 3.356 0 0 1 1.162-1.26 2.966 2.966 0 0 1 1.624-.462c.606 0 1.143.154 1.61.462.476.299.849.709 1.12 1.232.28.513.42 1.097.42 1.75v.308h-5.362c.037.467.163.887.378 1.26.224.364.513.653.868.868.364.205.76.308 1.19.308.354 0 .695-.061 1.022-.182.336-.131.62-.303.854-.518l.644.686a4.303 4.303 0 0 1-1.218.686 3.99 3.99 0 0 1-1.344.224Zm-2.366-4.06h4.326a2.504 2.504 0 0 0-.378-1.092 2.213 2.213 0 0 0-.756-.77 1.861 1.861 0 0 0-1.008-.28 1.93 1.93 0 0 0-1.022.28 2.199 2.199 0 0 0-.77.756 2.933 2.933 0 0 0-.392 1.106Zm9.921 4.018c-.588 0-1.12-.154-1.596-.462a3.432 3.432 0 0 1-1.134-1.26 3.76 3.76 0 0 1-.42-1.778c0-.663.14-1.255.42-1.778a3.356 3.356 0 0 1 1.162-1.26 2.904 2.904 0 0 1 1.624-.476c.42 0 .812.084 1.176.252.364.159.681.392.952.7v-4.144l1.022-.21V285h-1.022v-.91a2.676 2.676 0 0 1-.952.756 2.97 2.97 0 0 1-1.232.252Zm.252-.896c.401 0 .77-.079 1.106-.238.336-.159.611-.383.826-.672v-3.388a2.257 2.257 0 0 0-.854-.672 2.38 2.38 0 0 0-1.078-.252c-.458 0-.868.112-1.232.336-.355.224-.64.532-.854.924-.206.392-.308.84-.308 1.344 0 .495.102.943.308 1.344.214.392.499.705.854.938.364.224.774.336 1.232.336ZM111 287h50v1h-50z"
    fill="#ECE6FF" />
  <rect x="178.5" y="266.5" width="67" height="28" rx="14" fill="#151515" />
  <rect x="178.5" y="266.5" width="67" height="28" rx="14" stroke="#707070" />
  <path
    d="M187.246 285v-9.8h4.046c.635 0 1.185.121 1.652.364.467.233.826.569 1.078 1.008.261.429.392.938.392 1.526 0 .579-.131 1.087-.392 1.526a2.589 2.589 0 0 1-1.078 1.022c-.467.233-1.017.35-1.652.35h-2.968V285h-1.078Zm1.078-4.928h2.842c.681 0 1.213-.177 1.596-.532.383-.355.574-.835.574-1.442s-.191-1.083-.574-1.428c-.383-.345-.915-.518-1.596-.518h-2.842v3.92ZM196.21 285v-10.108l1.022-.21V285h-1.022Zm5.231.126c-.485 0-.914-.089-1.288-.266a2.199 2.199 0 0 1-.882-.728 1.967 1.967 0 0 1-.308-1.092c0-.411.108-.765.322-1.064.215-.308.514-.546.896-.714.383-.168.831-.252 1.344-.252.392 0 .761.042 1.106.126.355.084.682.219.98.406v-.938c0-.56-.149-.98-.448-1.26-.298-.289-.737-.434-1.316-.434a3.67 3.67 0 0 0-.98.14c-.326.093-.69.243-1.092.448l-.378-.784c.915-.439 1.774-.658 2.576-.658.85 0 1.503.21 1.96.63.458.411.686 1.003.686 1.778V285h-1.008v-.798c-.298.308-.63.541-.994.7a3.074 3.074 0 0 1-1.176.224Zm-1.498-2.114c0 .401.154.723.462.966.318.243.733.364 1.246.364.383 0 .733-.065 1.05-.196.327-.131.63-.327.91-.588v-1.316a3.358 3.358 0 0 0-.896-.364 3.936 3.936 0 0 0-1.036-.126c-.522 0-.942.117-1.26.35a1.058 1.058 0 0 0-.476.91Zm6.753 1.988v-6.832h1.022v1.106c.262-.411.574-.714.938-.91a2.468 2.468 0 0 1 1.232-.308c.495 0 .924.107 1.288.322.374.205.663.499.868.882.215.373.322.812.322 1.316V285h-1.022v-4.13c0-.607-.168-1.083-.504-1.428-.326-.355-.77-.532-1.33-.532-.373 0-.714.089-1.022.266a2.147 2.147 0 0 0-.77.784V285h-1.022Zm7.725 0v-6.832h1.022v1.106c.261-.411.574-.714.938-.91a2.468 2.468 0 0 1 1.232-.308c.495 0 .924.107 1.288.322.373.205.663.499.868.882.215.373.322.812.322 1.316V285h-1.022v-4.13c0-.607-.168-1.083-.504-1.428-.327-.355-.77-.532-1.33-.532-.373 0-.714.089-1.022.266a2.139 2.139 0 0 0-.77.784V285h-1.022Zm10.805.14a3.28 3.28 0 0 1-1.722-.462 3.456 3.456 0 0 1-1.218-1.274 3.7 3.7 0 0 1-.448-1.82c0-.672.14-1.274.42-1.806a3.356 3.356 0 0 1 1.162-1.26 2.966 2.966 0 0 1 1.624-.462c.606 0 1.143.154 1.61.462.476.299.849.709 1.12 1.232.28.513.42 1.097.42 1.75v.308h-5.362c.037.467.163.887.378 1.26.224.364.513.653.868.868.364.205.76.308 1.19.308.354 0 .695-.061 1.022-.182.336-.131.62-.303.854-.518l.644.686a4.303 4.303 0 0 1-1.218.686 3.99 3.99 0 0 1-1.344.224Zm-2.366-4.06h4.326a2.504 2.504 0 0 0-.378-1.092 2.213 2.213 0 0 0-.756-.77 1.861 1.861 0 0 0-1.008-.28 1.93 1.93 0 0 0-1.022.28 2.199 2.199 0 0 0-.77.756 2.933 2.933 0 0 0-.392 1.106Zm9.921 4.018c-.588 0-1.12-.154-1.596-.462a3.432 3.432 0 0 1-1.134-1.26 3.76 3.76 0 0 1-.42-1.778c0-.663.14-1.255.42-1.778a3.356 3.356 0 0 1 1.162-1.26 2.904 2.904 0 0 1 1.624-.476c.42 0 .812.084 1.176.252.364.159.681.392.952.7v-4.144l1.022-.21V285h-1.022v-.91a2.676 2.676 0 0 1-.952.756 2.97 2.97 0 0 1-1.232.252Zm.252-.896c.401 0 .77-.079 1.106-.238.336-.159.611-.383.826-.672v-3.388a2.257 2.257 0 0 0-.854-.672 2.38 2.38 0 0 0-1.078-.252c-.458 0-.868.112-1.232.336-.355.224-.64.532-.854.924-.206.392-.308.84-.308 1.344 0 .495.102.943.308 1.344.214.392.499.705.854.938.364.224.774.336 1.232.336ZM187 287h50v1h-50z"
    fill="#B6A6E9" />
  <circle cx="75" cy="255" r="11" fill="#B300B3" />
  <path
    d="M71.839 260v-.742l3.92-4.284c.308-.336.546-.63.714-.882.177-.261.298-.504.364-.728.074-.224.112-.462.112-.714 0-.495-.196-.901-.588-1.218-.383-.327-.873-.49-1.47-.49a3.06 3.06 0 0 0-1.274.266c-.392.177-.83.485-1.316.924l-.588-.7c.513-.467 1.031-.812 1.554-1.036a3.98 3.98 0 0 1 1.638-.35c.588 0 1.11.112 1.568.336a2.62 2.62 0 0 1 1.078.896c.261.383.392.821.392 1.316 0 .327-.042.63-.126.91a3.407 3.407 0 0 1-.448.882c-.215.308-.523.681-.924 1.12l-3.346 3.626 5.054-.014V260h-6.314Z"
    fill="#fff" />
  <path
    d="m105.474 84-2.718-12.6h1.404l2.142 10.422 3.114-10.422h1.35l3.114 10.386 2.16-10.386h1.35L114.672 84h-1.404l-3.186-10.692L106.878 84h-1.404Zm14.03 0V71.004l1.314-.27v5.904c.336-.528.738-.918 1.206-1.17a3.167 3.167 0 0 1 1.584-.396c.636 0 1.188.138 1.656.414.48.264.852.642 1.116 1.134.276.48.414 1.044.414 1.692V84h-1.314v-5.31c0-.78-.216-1.392-.648-1.836-.42-.456-.99-.684-1.71-.684-.48 0-.918.114-1.314.342-.396.228-.726.564-.99 1.008V84h-1.314Zm12.65.162c-.624 0-1.176-.114-1.656-.342a2.825 2.825 0 0 1-1.134-.936 2.527 2.527 0 0 1-.396-1.404c0-.528.138-.984.414-1.368.276-.396.66-.702 1.152-.918.492-.216 1.068-.324 1.728-.324.504 0 .978.054 1.422.162.456.108.876.282 1.26.522v-1.206c0-.72-.192-1.26-.576-1.62-.384-.372-.948-.558-1.692-.558-.408 0-.828.06-1.26.18a7.91 7.91 0 0 0-1.404.576l-.486-1.008c1.176-.564 2.28-.846 3.312-.846 1.092 0 1.932.27 2.52.81.588.528.882 1.29.882 2.286V84h-1.296v-1.026c-.384.396-.81.696-1.278.9a3.945 3.945 0 0 1-1.512.288Zm-1.926-2.718c0 .516.198.93.594 1.242.408.312.942.468 1.602.468.492 0 .942-.084 1.35-.252.42-.168.81-.42 1.17-.756v-1.692a4.31 4.31 0 0 0-1.152-.468 5.063 5.063 0 0 0-1.332-.162c-.672 0-1.212.15-1.62.45-.408.288-.612.678-.612 1.17Zm11.767 2.736c-.756 0-1.332-.18-1.728-.54-.384-.372-.576-.906-.576-1.602v-5.742h-1.818v-1.08h1.818v-2.412l1.314-.306v2.718h2.52v1.08h-2.52v5.4c0 .468.096.804.288 1.008.204.204.534.306.99.306.228 0 .432-.018.612-.054.18-.036.39-.096.63-.18v1.17c-.24.084-.492.144-.756.18a5.726 5.726 0 0 1-.774.054Zm7.638-.18v-8.784h1.314V84h-1.314Zm.666-10.962a.966.966 0 0 1-.684-.27.945.945 0 0 1-.27-.666c0-.252.09-.468.27-.648a.934.934 0 0 1 .684-.288c.264 0 .486.096.666.288.192.18.288.396.288.648a.914.914 0 0 1-.288.666.905.905 0 0 1-.666.27Zm6.06 11.142c-.72 0-1.386-.108-1.998-.324a4.435 4.435 0 0 1-1.566-.972l.702-.864c.528.384 1.014.666 1.458.846.444.168.9.252 1.368.252.636 0 1.164-.15 1.584-.45.42-.3.63-.684.63-1.152 0-.36-.126-.642-.378-.846-.24-.204-.642-.36-1.206-.468l-1.44-.252c-.852-.156-1.482-.42-1.89-.792-.396-.372-.594-.876-.594-1.512 0-.504.132-.948.396-1.332a2.75 2.75 0 0 1 1.134-.9c.48-.228 1.026-.342 1.638-.342.6 0 1.17.09 1.71.27.54.168 1.086.444 1.638.828l-.648.918a4.943 4.943 0 0 0-1.368-.702 4.256 4.256 0 0 0-1.386-.234c-.576 0-1.038.126-1.386.378a1.2 1.2 0 0 0-.522 1.026c0 .36.108.636.324.828.228.192.624.336 1.188.432l1.476.27c.888.156 1.536.426 1.944.81.408.384.612.9.612 1.548 0 .516-.15.984-.45 1.404-.3.408-.708.732-1.224.972s-1.098.36-1.746.36Zm13.69 3.762a6.586 6.586 0 0 1-1.782-.252 6.8 6.8 0 0 1-1.638-.666l.558-1.008a8.82 8.82 0 0 0 1.476.612c.444.132.888.198 1.332.198.804 0 1.41-.192 1.818-.576.42-.384.63-.942.63-1.674v-1.764a3.44 3.44 0 0 1-1.224.972 3.816 3.816 0 0 1-1.584.324c-.756 0-1.44-.198-2.052-.594a4.419 4.419 0 0 1-1.458-1.62c-.36-.684-.54-1.446-.54-2.286 0-.84.18-1.596.54-2.268a4.325 4.325 0 0 1 1.494-1.62 3.734 3.734 0 0 1 2.088-.612c.552 0 1.062.108 1.53.324.468.204.876.51 1.224.918v-1.134h1.296v9.342c0 1.092-.318 1.926-.954 2.502-.636.588-1.554.882-2.754.882Zm-.09-4.968c.516 0 .99-.102 1.422-.306.432-.216.786-.51 1.062-.882v-4.338a2.89 2.89 0 0 0-1.098-.864 3.057 3.057 0 0 0-1.386-.324c-.588 0-1.116.144-1.584.432a3.18 3.18 0 0 0-1.098 1.188c-.264.504-.396 1.08-.396 1.728 0 .636.132 1.212.396 1.728.276.504.642.906 1.098 1.206.468.288.996.432 1.584.432Zm10.458 1.206a4.22 4.22 0 0 1-2.214-.594 4.46 4.46 0 0 1-1.566-1.638c-.384-.696-.576-1.476-.576-2.34 0-.864.18-1.638.54-2.322a4.325 4.325 0 0 1 1.494-1.62 3.816 3.816 0 0 1 2.088-.594c.78 0 1.47.198 2.07.594a3.998 3.998 0 0 1 1.44 1.584c.36.66.54 1.41.54 2.25v.396h-6.894c.048.6.21 1.14.486 1.62.288.468.66.84 1.116 1.116.468.264.978.396 1.53.396.456 0 .894-.078 1.314-.234.432-.168.798-.39 1.098-.666l.828.882a5.542 5.542 0 0 1-1.566.882 5.12 5.12 0 0 1-1.728.288Zm-3.042-5.22h5.562a3.213 3.213 0 0 0-.486-1.404 2.846 2.846 0 0 0-.972-.99 2.395 2.395 0 0 0-1.296-.36c-.48 0-.918.12-1.314.36a2.838 2.838 0 0 0-.99.972c-.252.408-.42.882-.504 1.422Zm9.102 5.04v-8.784h1.314v1.422c.336-.528.738-.918 1.206-1.17a3.167 3.167 0 0 1 1.584-.396c.636 0 1.188.138 1.656.414.48.264.852.642 1.116 1.134.276.48.414 1.044.414 1.692V84h-1.314v-5.31c0-.78-.216-1.392-.648-1.836-.42-.456-.99-.684-1.71-.684-.48 0-.918.114-1.314.342-.396.228-.726.564-.99 1.008V84h-1.314Zm13.892.18a4.22 4.22 0 0 1-2.214-.594 4.46 4.46 0 0 1-1.566-1.638c-.384-.696-.576-1.476-.576-2.34 0-.864.18-1.638.54-2.322a4.325 4.325 0 0 1 1.494-1.62 3.816 3.816 0 0 1 2.088-.594c.78 0 1.47.198 2.07.594a3.998 3.998 0 0 1 1.44 1.584c.36.66.54 1.41.54 2.25v.396h-6.894c.048.6.21 1.14.486 1.62.288.468.66.84 1.116 1.116.468.264.978.396 1.53.396.456 0 .894-.078 1.314-.234.432-.168.798-.39 1.098-.666l.828.882a5.542 5.542 0 0 1-1.566.882 5.12 5.12 0 0 1-1.728.288Zm-3.042-5.22h5.562a3.213 3.213 0 0 0-.486-1.404 2.846 2.846 0 0 0-.972-.99 2.395 2.395 0 0 0-1.296-.36c-.48 0-.918.12-1.314.36a2.838 2.838 0 0 0-.99.972c-.252.408-.42.882-.504 1.422Zm9.101 5.04v-8.784h1.314v1.8c.228-.612.552-1.086.972-1.422a2.289 2.289 0 0 1 1.476-.522c.156 0 .3.012.432.036.132.012.264.042.396.09v1.188a2.675 2.675 0 0 0-.468-.108 2.276 2.276 0 0 0-1.872.414c-.396.312-.708.75-.936 1.314V84h-1.314Zm8.677.162c-.624 0-1.176-.114-1.656-.342a2.825 2.825 0 0 1-1.134-.936 2.527 2.527 0 0 1-.396-1.404c0-.528.138-.984.414-1.368.276-.396.66-.702 1.152-.918.492-.216 1.068-.324 1.728-.324.504 0 .978.054 1.422.162.456.108.876.282 1.26.522v-1.206c0-.72-.192-1.26-.576-1.62-.384-.372-.948-.558-1.692-.558-.408 0-.828.06-1.26.18a7.91 7.91 0 0 0-1.404.576l-.486-1.008c1.176-.564 2.28-.846 3.312-.846 1.092 0 1.932.27 2.52.81.588.528.882 1.29.882 2.286V84h-1.296v-1.026c-.384.396-.81.696-1.278.9a3.945 3.945 0 0 1-1.512.288Zm-1.926-2.718c0 .516.198.93.594 1.242.408.312.942.468 1.602.468.492 0 .942-.084 1.35-.252.42-.168.81-.42 1.17-.756v-1.692a4.31 4.31 0 0 0-1.152-.468 5.063 5.063 0 0 0-1.332-.162c-.672 0-1.212.15-1.62.45-.408.288-.612.678-.612 1.17Zm11.767 2.736c-.756 0-1.332-.18-1.728-.54-.384-.372-.576-.906-.576-1.602v-5.742h-1.818v-1.08h1.818v-2.412l1.314-.306v2.718h2.52v1.08h-2.52v5.4c0 .468.096.804.288 1.008.204.204.534.306.99.306.228 0 .432-.018.612-.054.18-.036.39-.096.63-.18v1.17c-.24.084-.492.144-.756.18a5.726 5.726 0 0 1-.774.054Zm3.437-.18v-8.784h1.314V84h-1.314Zm.666-10.962a.966.966 0 0 1-.684-.27.945.945 0 0 1-.27-.666c0-.252.09-.468.27-.648a.934.934 0 0 1 .684-.288c.264 0 .486.096.666.288.192.18.288.396.288.648a.914.914 0 0 1-.288.666.905.905 0 0 1-.666.27ZM234.911 84l-3.6-8.784h1.422l2.844 7.146 2.808-7.146h1.404L236.171 84h-1.26Zm10.194.18a4.22 4.22 0 0 1-2.214-.594 4.46 4.46 0 0 1-1.566-1.638c-.384-.696-.576-1.476-.576-2.34 0-.864.18-1.638.54-2.322a4.325 4.325 0 0 1 1.494-1.62 3.816 3.816 0 0 1 2.088-.594c.78 0 1.47.198 2.07.594a3.998 3.998 0 0 1 1.44 1.584c.36.66.54 1.41.54 2.25v.396h-6.894c.048.6.21 1.14.486 1.62.288.468.66.84 1.116 1.116.468.264.978.396 1.53.396.456 0 .894-.078 1.314-.234.432-.168.798-.39 1.098-.666l.828.882a5.542 5.542 0 0 1-1.566.882 5.12 5.12 0 0 1-1.728.288Zm-3.042-5.22h5.562a3.213 3.213 0 0 0-.486-1.404 2.846 2.846 0 0 0-.972-.99 2.395 2.395 0 0 0-1.296-.36c-.48 0-.918.12-1.314.36a2.838 2.838 0 0 0-.99.972c-.252.408-.42.882-.504 1.422ZM254.178 84l4.986-12.6h1.656l4.914 12.6h-1.494l-1.494-3.96h-5.616L255.636 84h-1.458Zm3.384-5.058h4.77l-2.394-6.282-2.376 6.282Zm9.92 5.058V71.4h1.386V84h-1.386Zm6.443-3.726a5.59 5.59 0 0 1 .072-1.314c.084-.372.234-.708.45-1.008.216-.312.51-.606.882-.882l.756-.558c.492-.384.84-.732 1.044-1.044.204-.312.306-.672.306-1.08 0-.372-.108-.702-.324-.99a2.214 2.214 0 0 0-.882-.684 2.856 2.856 0 0 0-1.26-.27c-.564 0-1.092.138-1.584.414-.492.276-.93.678-1.314 1.206l-1.008-.684c.492-.684 1.074-1.206 1.746-1.566a4.561 4.561 0 0 1 2.214-.558c.708 0 1.338.138 1.89.414.552.264.99.63 1.314 1.098.324.468.486 1.002.486 1.602 0 .408-.066.78-.198 1.116-.12.324-.324.642-.612.954-.288.312-.69.654-1.206 1.026l-.576.432c-.408.3-.696.636-.864 1.008-.168.372-.234.828-.198 1.368h-1.134Zm.594 3.87a.966.966 0 0 1-.684-.27.966.966 0 0 1-.27-.684c0-.276.09-.504.27-.684.192-.18.42-.27.684-.27a.927.927 0 0 1 .936.954c0 .264-.09.492-.27.684a.905.905 0 0 1-.666.27ZM102 88.5h177.667v1.8H102v-1.8ZM305.134 84V71.4h6.156c.852 0 1.602.168 2.25.504.66.324 1.17.78 1.53 1.368.372.588.558 1.266.558 2.034 0 .804-.222 1.512-.666 2.124-.444.612-1.038 1.068-1.782 1.368L315.97 84h-2.916l-2.466-4.824h-2.844V84h-2.61Zm2.61-6.966h3.312c.588 0 1.056-.156 1.404-.468.36-.312.54-.72.54-1.224s-.18-.912-.54-1.224c-.348-.312-.816-.468-1.404-.468h-3.312v3.384Zm13.49 7.146c-.936 0-1.788-.216-2.556-.648a4.927 4.927 0 0 1-1.8-1.746c-.444-.732-.666-1.554-.666-2.466 0-.912.21-1.734.63-2.466a4.87 4.87 0 0 1 1.746-1.746c.732-.432 1.548-.648 2.448-.648.9 0 1.698.222 2.394.666a4.652 4.652 0 0 1 1.638 1.8c.408.756.612 1.614.612 2.574v.648h-6.948c.108.372.282.708.522 1.008.252.3.558.534.918.702.372.168.768.252 1.188.252.42 0 .804-.066 1.152-.198.36-.132.666-.318.918-.558l1.62 1.476a6 6 0 0 1-1.782 1.026c-.6.216-1.278.324-2.034.324Zm-2.538-5.796h4.554a2.295 2.295 0 0 0-.468-.972 2.223 2.223 0 0 0-.792-.666 2.027 2.027 0 0 0-1.008-.252c-.384 0-.732.078-1.044.234a2.223 2.223 0 0 0-.792.666 2.78 2.78 0 0 0-.45.99Zm11.43 5.778c-.672 0-1.266-.12-1.782-.36-.516-.252-.918-.594-1.206-1.026a2.63 2.63 0 0 1-.432-1.494c0-.9.336-1.596 1.008-2.088.684-.504 1.62-.756 2.808-.756.816 0 1.584.126 2.304.378v-.684c0-.54-.168-.948-.504-1.224-.336-.276-.828-.414-1.476-.414a4.61 4.61 0 0 0-1.278.198c-.456.12-.984.312-1.584.576l-.9-1.818a12.636 12.636 0 0 1 2.124-.756 8.575 8.575 0 0 1 2.052-.252c1.26 0 2.238.306 2.934.918.708.6 1.062 1.452 1.062 2.556V84h-2.43v-.666a3.92 3.92 0 0 1-1.242.63 5.1 5.1 0 0 1-1.458.198Zm-1.08-2.934c0 .36.156.648.468.864.312.204.726.306 1.242.306.408 0 .786-.048 1.134-.144.348-.108.66-.264.936-.468v-1.368c-.3-.12-.612-.21-.936-.27a5.734 5.734 0 0 0-1.044-.09c-.564 0-1.008.108-1.332.324-.312.204-.468.486-.468.846Zm12.414 2.898c-.888 0-1.692-.216-2.412-.648a4.964 4.964 0 0 1-1.728-1.728c-.42-.732-.63-1.548-.63-2.448 0-.9.21-1.71.63-2.43a4.729 4.729 0 0 1 1.746-1.728c.732-.432 1.554-.648 2.466-.648.468 0 .918.066 1.35.198.432.12.834.3 1.206.54V71.4l2.466-.414V84h-2.43v-.774c-.768.6-1.656.9-2.664.9Zm.396-2.106c.456 0 .87-.072 1.242-.216.384-.156.714-.384.99-.684v-3.654a2.954 2.954 0 0 0-.99-.648 3.268 3.268 0 0 0-1.242-.234c-.516 0-.984.12-1.404.36a2.522 2.522 0 0 0-.972.972c-.24.408-.36.87-.36 1.386 0 .516.12.978.36 1.386.24.408.564.732.972.972.42.24.888.36 1.404.36ZM352.099 84v-9.378h2.466v.72c.672-.6 1.488-.9 2.448-.9.612 0 1.158.126 1.638.378.48.24.876.582 1.188 1.026a3.905 3.905 0 0 1 1.35-1.044 4.17 4.17 0 0 1 1.746-.36c.708 0 1.326.162 1.854.486.54.312.96.75 1.26 1.314.312.552.468 1.2.468 1.944V84h-2.448v-5.454c0-.612-.162-1.092-.486-1.44-.324-.36-.756-.54-1.296-.54-.372 0-.714.078-1.026.234-.3.156-.558.39-.774.702l.036.324c.012.108.018.228.018.36V84h-2.466v-5.454c0-.612-.162-1.092-.486-1.44-.312-.36-.738-.54-1.278-.54a2.3 2.3 0 0 0-1.008.216c-.288.144-.534.36-.738.648V84h-2.466Zm20.867.18c-.936 0-1.782-.216-2.538-.648a4.927 4.927 0 0 1-1.8-1.746c-.444-.732-.666-1.554-.666-2.466 0-.912.216-1.734.648-2.466a4.881 4.881 0 0 1 1.8-1.764c.768-.432 1.62-.648 2.556-.648.936 0 1.782.216 2.538.648a4.708 4.708 0 0 1 1.8 1.764c.444.732.666 1.554.666 2.466 0 .912-.222 1.734-.666 2.466a4.787 4.787 0 0 1-1.782 1.746c-.756.432-1.608.648-2.556.648Zm0-2.142c.492 0 .93-.12 1.314-.36a2.6 2.6 0 0 0 .936-.972c.24-.42.36-.882.36-1.386 0-.516-.12-.978-.36-1.386a2.6 2.6 0 0 0-.936-.972 2.341 2.341 0 0 0-1.314-.378c-.48 0-.918.126-1.314.378a2.6 2.6 0 0 0-.936.972c-.228.408-.342.87-.342 1.386 0 .504.114.966.342 1.386a2.6 2.6 0 0 0 .936.972c.396.24.834.36 1.314.36Zm6.52 1.962v-9.378h2.466v1.044c.3-.408.66-.72 1.08-.936.42-.216.894-.324 1.422-.324.456.012.798.084 1.026.216v2.16a2.287 2.287 0 0 0-.594-.18 3.06 3.06 0 0 0-.666-.072c-.48 0-.918.12-1.314.36a2.63 2.63 0 0 0-.954 1.026V84h-2.466Zm11.568.18c-.936 0-1.788-.216-2.556-.648a4.927 4.927 0 0 1-1.8-1.746c-.444-.732-.666-1.554-.666-2.466 0-.912.21-1.734.63-2.466a4.87 4.87 0 0 1 1.746-1.746c.732-.432 1.548-.648 2.448-.648.9 0 1.698.222 2.394.666a4.652 4.652 0 0 1 1.638 1.8c.408.756.612 1.614.612 2.574v.648h-6.948c.108.372.282.708.522 1.008.252.3.558.534.918.702.372.168.768.252 1.188.252.42 0 .804-.066 1.152-.198.36-.132.666-.318.918-.558l1.62 1.476a6 6 0 0 1-1.782 1.026c-.6.216-1.278.324-2.034.324Zm-2.538-5.796h4.554a2.295 2.295 0 0 0-.468-.972 2.223 2.223 0 0 0-.792-.666 2.027 2.027 0 0 0-1.008-.252c-.384 0-.732.078-1.044.234a2.223 2.223 0 0 0-.792.666 2.78 2.78 0 0 0-.45.99Z"
    fill="#92C5F9" />
  <g clip-path="url(#p)">
    <path
      d="m426.1 76.838-6.656-6.657a.622.622 0 1 0-.881.882l5.806 5.806h-15.988a.627.627 0 0 0-.625.625c0 .344.282.625.625.625h15.994l-5.806 5.806a.622.622 0 0 0 .444 1.063.64.64 0 0 0 .443-.182l6.657-6.656a.944.944 0 0 0 0-1.325l-.013.013Z"
      fill="#92C5F9" />
  </g>
  <rect x="102" y="115" width="84" height="36" rx="3" fill="#06C" />
  <path
    d="M123.04 139.176a6.298 6.298 0 0 1-2.432-.464c-.747-.32-1.467-.8-2.16-1.44l.752-.896c.672.629 1.301 1.077 1.888 1.344.597.267 1.259.4 1.984.4.576 0 1.088-.096 1.536-.288.459-.203.816-.475 1.072-.816.256-.341.384-.731.384-1.168 0-.565-.187-.992-.56-1.28-.373-.299-1.019-.528-1.936-.688l-1.808-.304c-1.024-.181-1.776-.491-2.256-.928-.469-.448-.704-1.045-.704-1.792 0-.629.16-1.184.48-1.664a3.351 3.351 0 0 1 1.36-1.152c.576-.277 1.243-.416 2-.416.832 0 1.605.117 2.32.352a7.577 7.577 0 0 1 2.112 1.072l-.64.96a6.64 6.64 0 0 0-1.824-.992 5.624 5.624 0 0 0-1.952-.352c-.523 0-.987.091-1.392.272a2.431 2.431 0 0 0-.944.736 1.754 1.754 0 0 0-.336 1.056c0 .491.165.875.496 1.152.331.277.869.475 1.616.592l1.792.304c1.195.213 2.059.56 2.592 1.04.544.469.816 1.125.816 1.968 0 .651-.187 1.232-.56 1.744-.363.512-.864.917-1.504 1.216-.64.288-1.371.432-2.192.432Zm8.913-.048c-.555 0-1.046-.123-1.472-.368a2.653 2.653 0 0 1-1.008-1.024c-.235-.437-.352-.939-.352-1.504v-5.04h1.184v4.704c0 .693.186 1.243.56 1.648.373.405.88.608 1.52.608.437 0 .826-.101 1.168-.304.352-.203.645-.496.88-.88v-5.776h1.168V139h-1.168v-1.264c-.299.459-.656.805-1.072 1.04-.406.235-.875.352-1.408.352Zm6.044-.128v-11.44l1.168-.24v4.944a3.064 3.064 0 0 1 1.088-.864 3.272 3.272 0 0 1 1.424-.304c.683 0 1.291.181 1.824.544.544.352.976.832 1.296 1.44.32.597.48 1.269.48 2.016 0 .747-.165 1.424-.496 2.032a3.845 3.845 0 0 1-1.312 1.456 3.342 3.342 0 0 1-1.856.528c-.491 0-.949-.096-1.376-.288a3.34 3.34 0 0 1-1.088-.848V139h-1.152Zm3.392-.896a2.55 2.55 0 0 0 1.392-.384c.416-.267.741-.624.976-1.072a3.21 3.21 0 0 0 .368-1.536c0-.576-.123-1.088-.368-1.536-.235-.448-.56-.8-.976-1.056a2.471 2.471 0 0 0-1.392-.4c-.459 0-.885.096-1.28.288a2.408 2.408 0 0 0-.944.784v3.824c.256.341.576.608.96.8.395.192.816.288 1.264.288Zm5.936.896v-7.808h1.168v1.216c.299-.448.64-.784 1.024-1.008a2.524 2.524 0 0 1 1.296-.336c.555 0 1.04.139 1.456.416.416.267.731.635.944 1.104.309-.501.677-.88 1.104-1.136.437-.256.939-.384 1.504-.384.523 0 .981.123 1.376.368.405.245.72.587.944 1.024.224.427.336.928.336 1.504V139h-1.168v-4.752c0-.683-.171-1.221-.512-1.616-.341-.395-.811-.592-1.408-.592a2.07 2.07 0 0 0-1.104.304c-.32.203-.603.512-.848.928a3.395 3.395 0 0 1 .064.688V139h-1.168v-4.752c0-.683-.176-1.221-.528-1.616-.341-.395-.811-.592-1.408-.592-.8 0-1.435.384-1.904 1.152V139h-1.168Zm13.5 0v-7.808h1.168V139h-1.168Zm.592-9.744a.857.857 0 0 1-.608-.24.84.84 0 0 1-.24-.592c0-.224.08-.416.24-.576a.828.828 0 0 1 .608-.256.78.78 0 0 1 .592.256c.17.16.256.352.256.576a.816.816 0 0 1-.256.592.805.805 0 0 1-.592.24Zm5.947 9.904c-.672 0-1.184-.16-1.536-.48-.342-.331-.512-.805-.512-1.424v-5.104H163.7v-.96h1.616v-2.144l1.168-.272v2.416h2.24v.96h-2.24v4.8c0 .416.085.715.256.896.181.181.474.272.88.272.202 0 .384-.016.544-.048.16-.032.346-.085.56-.16v1.04a3.432 3.432 0 0 1-.672.16 5.094 5.094 0 0 1-.688.048Z"
    fill="#fff" />
  <rect x="210.5" y="119" width="81" height="28" rx="14" fill="#036" />
  <rect x="210.5" y="119" width="81" height="28" rx="14" stroke="#06C" />
  <path
    d="M223.67 137.654a4.783 4.783 0 0 1-1.904-.378 4.996 4.996 0 0 1-1.554-1.078 5.287 5.287 0 0 1-1.036-1.61 5.2 5.2 0 0 1-.378-1.988c0-.709.126-1.367.378-1.974a5.067 5.067 0 0 1 1.036-1.61 4.697 4.697 0 0 1 1.554-1.078 4.641 4.641 0 0 1 1.904-.392c.681 0 1.316.131 1.904.392a4.552 4.552 0 0 1 1.54 1.078 5.097 5.097 0 0 1 1.428 3.584 5.2 5.2 0 0 1-.378 1.988 5.163 5.163 0 0 1-1.05 1.61 4.834 4.834 0 0 1-1.54 1.078 4.783 4.783 0 0 1-1.904.378Zm0-.98a3.585 3.585 0 0 0 2.688-1.176c.345-.373.611-.807.798-1.302a4.296 4.296 0 0 0 .294-1.596c0-.579-.098-1.111-.294-1.596a3.954 3.954 0 0 0-.798-1.302 3.585 3.585 0 0 0-2.688-1.176 3.585 3.585 0 0 0-2.688 1.176 4.145 4.145 0 0 0-.812 1.302 4.363 4.363 0 0 0-.28 1.582c0 .579.093 1.115.28 1.61.196.495.467.929.812 1.302a3.585 3.585 0 0 0 2.688 1.176Zm6.714 3.752v-9.758h1.008v.98c.261-.345.579-.607.952-.784.383-.187.803-.28 1.26-.28.597 0 1.129.159 1.596.476.476.308.854.728 1.134 1.26.28.523.42 1.111.42 1.764s-.145 1.246-.434 1.778c-.28.532-.663.957-1.148 1.274a2.923 2.923 0 0 1-1.624.462c-.429 0-.826-.079-1.19-.238a2.844 2.844 0 0 1-.952-.714v3.78h-1.022Zm2.968-3.71c.457 0 .863-.112 1.218-.336a2.43 2.43 0 0 0 .854-.938c.215-.401.322-.849.322-1.344 0-.504-.107-.952-.322-1.344a2.33 2.33 0 0 0-.854-.924 2.17 2.17 0 0 0-1.218-.35c-.401 0-.775.084-1.12.252a2.112 2.112 0 0 0-.826.686v3.346c.224.299.504.532.84.7.345.168.714.252 1.106.252Zm8.274.924a3.28 3.28 0 0 1-1.722-.462 3.472 3.472 0 0 1-1.218-1.274 3.7 3.7 0 0 1-.448-1.82c0-.672.14-1.274.42-1.806a3.364 3.364 0 0 1 1.162-1.26 2.968 2.968 0 0 1 1.624-.462c.607 0 1.143.154 1.61.462.476.299.849.709 1.12 1.232.28.513.42 1.097.42 1.75v.308h-5.362c.037.467.163.887.378 1.26.224.364.513.653.868.868.364.205.761.308 1.19.308a2.92 2.92 0 0 0 1.022-.182c.336-.131.621-.303.854-.518l.644.686a4.303 4.303 0 0 1-1.218.686 3.99 3.99 0 0 1-1.344.224Zm-2.366-4.06h4.326a2.504 2.504 0 0 0-.378-1.092 2.213 2.213 0 0 0-.756-.77 1.861 1.861 0 0 0-1.008-.28c-.373 0-.714.093-1.022.28a2.199 2.199 0 0 0-.77.756 2.933 2.933 0 0 0-.392 1.106Zm7.079 3.92v-6.832h1.022v1.106c.261-.411.574-.714.938-.91a2.468 2.468 0 0 1 1.232-.308c.495 0 .924.107 1.288.322.373.205.663.499.868.882.215.373.322.812.322 1.316v4.424h-1.022v-4.13c0-.607-.168-1.083-.504-1.428-.327-.355-.77-.532-1.33-.532-.373 0-.714.089-1.022.266a2.139 2.139 0 0 0-.77.784v5.04h-1.022Zm11.085.154a5.495 5.495 0 0 1-2.128-.406c-.654-.28-1.284-.7-1.89-1.26l.658-.784c.588.551 1.138.943 1.652 1.176.522.233 1.101.35 1.736.35.504 0 .952-.084 1.344-.252.401-.177.714-.415.938-.714.224-.299.336-.639.336-1.022 0-.495-.164-.868-.49-1.12-.327-.261-.892-.462-1.694-.602l-1.582-.266c-.896-.159-1.554-.429-1.974-.812-.411-.392-.616-.915-.616-1.568 0-.551.14-1.036.42-1.456a2.938 2.938 0 0 1 1.19-1.008c.504-.243 1.087-.364 1.75-.364.728 0 1.404.103 2.03.308a6.664 6.664 0 0 1 1.848.938l-.56.84a5.794 5.794 0 0 0-1.596-.868 4.937 4.937 0 0 0-1.708-.308c-.458 0-.864.079-1.218.238a2.12 2.12 0 0 0-.826.644 1.537 1.537 0 0 0-.294.924c0 .429.144.765.434 1.008.289.243.76.415 1.414.518l1.568.266c1.045.187 1.801.49 2.268.91.476.411.714.985.714 1.722a2.53 2.53 0 0 1-.49 1.526c-.318.448-.756.803-1.316 1.064-.56.252-1.2.378-1.918.378Zm5.362-.154v-10.108l1.022-.21v4.592c.262-.411.574-.714.938-.91a2.468 2.468 0 0 1 1.232-.308c.495 0 .924.107 1.288.322.374.205.663.499.868.882.215.373.322.812.322 1.316v4.424h-1.022v-4.13c0-.607-.168-1.083-.504-1.428-.326-.355-.77-.532-1.33-.532-.373 0-.714.089-1.022.266a2.147 2.147 0 0 0-.77.784v5.04h-1.022Zm7.711 0v-6.832h1.022v6.832h-1.022Zm.518-8.526a.751.751 0 0 1-.532-.21.734.734 0 0 1-.21-.518c0-.196.07-.364.21-.504a.728.728 0 0 1 .532-.224c.205 0 .378.075.518.224.149.14.224.308.224.504a.712.712 0 0 1-.224.518.704.704 0 0 1-.518.21Zm3.467 8.526v-5.992h-1.526v-.84h1.526v-1.428c0-.672.178-1.19.532-1.554.355-.364.859-.546 1.512-.546.187 0 .355.009.504.028.159.019.299.051.42.098v.924a2.779 2.779 0 0 0-.406-.098 2.741 2.741 0 0 0-.42-.028c-.392 0-.676.098-.854.294-.177.187-.266.485-.266.896v1.414h1.946v.84h-1.946v5.992h-1.022Zm7.055.14c-.588 0-1.036-.14-1.344-.42-.299-.289-.448-.705-.448-1.246v-4.466h-1.414v-.84h1.414v-1.876l1.022-.238v2.114h1.96v.84h-1.96v4.2c0 .364.074.625.224.784.158.159.415.238.77.238.177 0 .336-.014.476-.042.14-.028.303-.075.49-.14v.91a3.04 3.04 0 0 1-.588.14 4.461 4.461 0 0 1-.602.042Z"
    fill="#E0F0FF" />
  <path fill="#E0F0FF" d="M219 139.5h64v1h-64z" />
  <circle cx="75" cy="108" r="11" fill="#B300B3" />
  <path d="M71.979 113v-.882h2.478v-7.826l-2.478 1.092v-.924l2.856-1.26h.63v8.918h2.828V113h-6.314Z" fill="#fff" />
  <defs>
    <clipPath id="p">
      <path fill="#fff" transform="translate(407 67.5)" d="M0 0h20v20H0z" />
    </clipPath>
  </defs>
</svg>