<svg width="294" height="203" viewBox="0 0 294 203" fill="none" xmlns="http://www.w3.org/2000/svg">
<rect y="18" width="294" height="126" fill="#1F1F1F"/>
<rect x="12" y="67" width="16" height="1" fill="white"/>
<rect x="12" y="72" width="34" height="40" fill="white"/>
<rect x="59" y="67" width="8" height="1" fill="white"/>
<rect x="59" y="72" width="34" height="60" fill="white"/>
<rect x="106" y="67" width="24" height="1" fill="white"/>
<rect x="106" y="72" width="34" height="40" fill="white"/>
<rect x="153" y="67" width="24" height="1" fill="white"/>
<rect x="153" y="72" width="34" height="30" fill="white"/>
<rect x="200" y="67" width="24" height="1" fill="white"/>
<rect x="200" y="72" width="82" height="20" fill="#C7C7C7"/>
<rect x="200" y="98" width="32" height="1" fill="white"/>
<rect x="200" y="103" width="24" height="6" fill="#C7C7C7"/>
<rect x="12" y="54" width="270" height="1" fill="#707070"/>
<rect x="244.5" y="30.5" width="37" height="11" rx="1.5" fill="#1F1F1F" stroke="#707070"/>
<g clip-path="url(#clip0_323_4705)">
<path d="M277.1 35.1001H272.9C272.774 35.1001 272.662 35.1783 272.619 35.2961C272.575 35.4139 272.609 35.5463 272.705 35.628L274.707 37.3439C274.792 37.4169 274.896 37.4532 275 37.4532C275.104 37.4532 275.208 37.4169 275.293 37.3442L277.295 35.628C277.391 35.5463 277.425 35.4138 277.381 35.2961C277.338 35.1783 277.226 35.1001 277.1 35.1001Z" fill="white"/>
</g>
<rect x="249" y="35" width="20" height="2" fill="white"/>
<rect x="32" y="33" width="24" height="6" fill="white"/>
<path d="M22.6723 36.9158C23.723 36.9158 25.2453 36.7 25.2453 35.4608C25.2453 35.3642 25.2428 35.27 25.2193 35.1758L24.593 32.4792C24.4476 31.8867 24.3215 31.6167 23.2699 31.0958C22.4554 30.6825 20.6792 30 20.1538 30C19.6646 30 19.52 30.6283 18.94 30.6283C18.36 30.6283 17.9615 30.1617 17.4362 30.1617C16.9108 30.1617 16.6023 30.5033 16.3493 31.2033C16.3493 31.2033 15.6423 33.1792 15.5515 33.4667C15.533 33.5208 15.533 33.5808 15.533 33.6283C15.533 34.3967 18.5836 36.9158 22.6731 36.9158M25.4093 35.9633C25.5547 36.6458 25.5547 36.7175 25.5547 36.8075C25.5547 37.975 24.2316 38.6217 22.4924 38.6217C18.5601 38.6217 15.1169 36.34 15.1169 34.8317C15.1169 34.5983 15.1716 34.3825 15.2439 34.2208C13.83 34.2925 12 34.5442 12 36.1433C12 38.7658 18.27 42 23.2346 42C27.04 42 28 40.2933 28 38.9458C28 37.8858 27.0762 36.6825 25.4084 35.9633" fill="#EE0000"/>
<path d="M25.2193 35.1757C25.2428 35.2699 25.2453 35.3641 25.2453 35.4607C25.2453 36.6999 23.723 36.9157 22.6722 36.9157C18.5827 36.9157 15.5322 34.3966 15.5322 33.6282C15.5322 33.5807 15.5322 33.5207 15.5507 33.4666L15.2422 34.2216C15.1699 34.3832 15.1152 34.5982 15.1152 34.8324C15.1152 36.3416 18.5583 38.6224 22.4907 38.6224C24.2299 38.6224 25.553 37.9757 25.553 36.8082C25.553 36.7182 25.553 36.6466 25.4076 35.9641L25.2184 35.1757H25.2193Z" fill="black"/>
<rect y="144" width="294" height="41" fill="#151515"/>
<circle cx="242" cy="168" r="4" fill="#C7C7C7"/>
<circle cx="254" cy="168" r="4" fill="#C7C7C7"/>
<circle cx="266" cy="168" r="4" fill="#C7C7C7"/>
<circle cx="278" cy="168" r="4" fill="#C7C7C7"/>
<rect x="258" y="157" width="24" height="2" fill="#C7C7C7"/>
<rect x="36" y="171" width="16" height="2" fill="white"/>
<rect x="60" y="171" width="16" height="2" fill="white"/>
<rect x="84" y="171" width="16" height="2" fill="white"/>
<rect x="108" y="171" width="16" height="2" fill="white"/>
<rect x="132" y="171" width="16" height="2" fill="white"/>
<rect x="36" y="161" width="8" height="2" fill="white"/>
<rect x="52" y="161" width="8" height="2" fill="white"/>
<rect x="68" y="161" width="8" height="2" fill="white"/>
<rect x="84" y="161" width="8" height="2" fill="white"/>
<rect x="100" y="161" width="8" height="2" fill="white"/>
<rect x="116" y="161" width="8" height="2" fill="white"/>
<rect x="132" y="161" width="8" height="2" fill="white"/>
<rect x="148" y="161" width="8" height="2" fill="white"/>
<rect x="164" y="161" width="8" height="2" fill="white"/>
<path d="M22.6723 162.916C23.723 162.916 25.2453 162.7 25.2453 161.461C25.2453 161.364 25.2428 161.27 25.2193 161.176L24.593 158.479C24.4476 157.887 24.3215 157.617 23.2699 157.096C22.4554 156.683 20.6792 156 20.1538 156C19.6646 156 19.52 156.628 18.94 156.628C18.36 156.628 17.9615 156.162 17.4362 156.162C16.9108 156.162 16.6023 156.503 16.3493 157.203C16.3493 157.203 15.6423 159.179 15.5515 159.467C15.533 159.521 15.533 159.581 15.533 159.628C15.533 160.397 18.5836 162.916 22.6731 162.916M25.4093 161.963C25.5547 162.646 25.5547 162.718 25.5547 162.808C25.5547 163.975 24.2316 164.622 22.4924 164.622C18.5601 164.622 15.1169 162.34 15.1169 160.832C15.1169 160.598 15.1716 160.383 15.2439 160.221C13.83 160.293 12 160.544 12 162.143C12 164.766 18.27 168 23.2346 168C27.04 168 28 166.293 28 164.946C28 163.886 27.0762 162.682 25.4084 161.963" fill="#EE0000"/>
<path d="M25.2193 161.176C25.2428 161.27 25.2453 161.364 25.2453 161.461C25.2453 162.7 23.723 162.916 22.6722 162.916C18.5827 162.916 15.5322 160.397 15.5322 159.628C15.5322 159.581 15.5322 159.521 15.5507 159.467L15.2422 160.222C15.1699 160.383 15.1152 160.598 15.1152 160.832C15.1152 162.342 18.5583 164.622 22.4907 164.622C24.2299 164.622 25.553 163.976 25.553 162.808C25.553 162.718 25.553 162.647 25.4076 161.964L25.2184 161.176H25.2193Z" fill="black"/>
<defs>
<clipPath id="clip0_323_4705">
<rect width="6" height="6" fill="white" transform="translate(272 33)"/>
</clipPath>
</defs>
</svg>
