<svg width="289" height="64" viewBox="0 0 289 64" fill="none" xmlns="http://www.w3.org/2000/svg">
<g clip-path="url(#clip0_3_132)">
<rect width="289" height="64" fill="#151515"/>
<mask id="mask0_3_132" style="mask-type:alpha" maskUnits="userSpaceOnUse" x="0" y="0" width="64" height="64">
<circle cx="32" cy="32" r="32" fill="#D9D9D9"/>
</mask>
<g mask="url(#mask0_3_132)">
<rect width="64" height="64" fill="#292929"/>
<path d="M12.1866 49.9114L9 64H55L51.8134 49.9114C50.3702 43.5306 44.7003 39 38.1583 39H25.8417C19.2997 39 13.6298 43.5306 12.1866 49.9114Z" fill="#707070"/>
<path d="M32 36C38.0751 36 43 31.0751 43 25C43 18.9249 38.0751 14 32 14C25.9249 14 21 18.9249 21 25C21 31.0751 25.9249 36 32 36Z" fill="#707070"/>
</g>
<circle cx="32" cy="32" r="31.5" stroke="#707070"/>
<path d="M81.176 26V16.2H82.856V20.666L87.112 16.2H89.17L84.494 20.918L89.338 26H87.112L82.856 21.422V26H81.176ZM92.1588 26.126C91.6734 26.126 91.2394 26.0373 90.8568 25.86C90.4834 25.6733 90.1894 25.4213 89.9748 25.104C89.7694 24.7773 89.6668 24.404 89.6668 23.984C89.6668 23.564 89.7741 23.2 89.9888 22.892C90.2128 22.584 90.5254 22.346 90.9268 22.178C91.3281 22.01 91.8041 21.926 92.3548 21.926C92.6814 21.926 93.0034 21.9633 93.3208 22.038C93.6381 22.1033 93.9461 22.2153 94.2448 22.374V21.59C94.2448 21.1233 94.1094 20.7733 93.8388 20.54C93.5774 20.3067 93.1761 20.19 92.6348 20.19C92.3454 20.19 92.0328 20.2367 91.6968 20.33C91.3701 20.414 91.0014 20.5493 90.5908 20.736L90.0308 19.588C91.0574 19.112 92.0281 18.874 92.9428 18.874C93.8574 18.874 94.5621 19.098 95.0568 19.546C95.5608 19.9847 95.8128 20.61 95.8128 21.422V26H94.2448V25.272C93.9461 25.5613 93.6241 25.776 93.2788 25.916C92.9334 26.056 92.5601 26.126 92.1588 26.126ZM91.1508 23.956C91.1508 24.2827 91.2814 24.5393 91.5428 24.726C91.8041 24.9127 92.1541 25.006 92.5928 25.006C92.9101 25.006 93.2041 24.9593 93.4748 24.866C93.7548 24.7633 94.0114 24.614 94.2448 24.418V23.284C94.0021 23.172 93.7501 23.088 93.4888 23.032C93.2274 22.976 92.9428 22.948 92.6348 22.948C92.1774 22.948 91.8134 23.0367 91.5428 23.214C91.2814 23.3913 91.1508 23.6387 91.1508 23.956ZM97.728 26V18.986H99.31V20.498C99.5154 19.966 99.7814 19.56 100.108 19.28C100.435 19 100.813 18.86 101.242 18.86C101.373 18.8693 101.489 18.8833 101.592 18.902C101.695 18.9113 101.807 18.944 101.928 19V20.386C101.807 20.33 101.667 20.288 101.508 20.26C101.359 20.232 101.209 20.218 101.06 20.218C100.677 20.218 100.332 20.3207 100.024 20.526C99.7254 20.7313 99.4874 21.016 99.31 21.38V26H97.728ZM106.102 26.126C105.439 26.126 104.837 25.9673 104.296 25.65C103.764 25.3327 103.344 24.9033 103.036 24.362C102.728 23.8113 102.574 23.1907 102.574 22.5C102.574 21.8093 102.728 21.1933 103.036 20.652C103.344 20.1013 103.764 19.6673 104.296 19.35C104.828 19.0327 105.43 18.874 106.102 18.874C106.774 18.874 107.371 19.0327 107.894 19.35C108.426 19.6673 108.846 20.1013 109.154 20.652C109.462 21.1933 109.616 21.8093 109.616 22.5C109.616 23.1907 109.462 23.8113 109.154 24.362C108.846 24.9033 108.426 25.3327 107.894 25.65C107.371 25.9673 106.774 26.126 106.102 26.126ZM106.102 24.782C106.485 24.782 106.821 24.684 107.11 24.488C107.409 24.292 107.642 24.0213 107.81 23.676C107.978 23.3213 108.062 22.9293 108.062 22.5C108.062 22.0613 107.978 21.674 107.81 21.338C107.642 20.9927 107.409 20.722 107.11 20.526C106.821 20.3207 106.485 20.218 106.102 20.218C105.719 20.218 105.379 20.3207 105.08 20.526C104.781 20.722 104.548 20.9927 104.38 21.338C104.212 21.674 104.128 22.0613 104.128 22.5C104.128 22.9387 104.212 23.3307 104.38 23.676C104.548 24.0213 104.781 24.292 105.08 24.488C105.379 24.684 105.719 24.782 106.102 24.782ZM111.25 26V15.962L112.832 15.682V26H111.25ZM114.763 26V18.986H116.345V26H114.763ZM115.561 17.558C115.29 17.558 115.057 17.4647 114.861 17.278C114.674 17.082 114.581 16.8533 114.581 16.592C114.581 16.3213 114.674 16.0927 114.861 15.906C115.057 15.71 115.29 15.612 115.561 15.612C115.832 15.612 116.06 15.71 116.247 15.906C116.443 16.0927 116.541 16.3167 116.541 16.578C116.541 16.8487 116.443 17.082 116.247 17.278C116.06 17.4647 115.832 17.558 115.561 17.558ZM118.304 26V18.986H119.886V20.134C120.157 19.714 120.479 19.4013 120.852 19.196C121.226 18.9813 121.641 18.874 122.098 18.874C122.584 18.874 123.008 18.9813 123.372 19.196C123.736 19.4013 124.021 19.6907 124.226 20.064C124.441 20.4373 124.548 20.876 124.548 21.38V26H122.952V21.828C122.952 21.3147 122.812 20.9087 122.532 20.61C122.252 20.302 121.879 20.148 121.412 20.148C121.095 20.148 120.806 20.2227 120.544 20.372C120.292 20.512 120.073 20.722 119.886 21.002V26H118.304ZM128.581 26.126C128.095 26.126 127.661 26.0373 127.279 25.86C126.905 25.6733 126.611 25.4213 126.397 25.104C126.191 24.7773 126.089 24.404 126.089 23.984C126.089 23.564 126.196 23.2 126.411 22.892C126.635 22.584 126.947 22.346 127.349 22.178C127.75 22.01 128.226 21.926 128.777 21.926C129.103 21.926 129.425 21.9633 129.743 22.038C130.06 22.1033 130.368 22.2153 130.667 22.374V21.59C130.667 21.1233 130.531 20.7733 130.261 20.54C129.999 20.3067 129.598 20.19 129.057 20.19C128.767 20.19 128.455 20.2367 128.119 20.33C127.792 20.414 127.423 20.5493 127.013 20.736L126.453 19.588C127.479 19.112 128.45 18.874 129.365 18.874C130.279 18.874 130.984 19.098 131.479 19.546C131.983 19.9847 132.235 20.61 132.235 21.422V26H130.667V25.272C130.368 25.5613 130.046 25.776 129.701 25.916C129.355 26.056 128.982 26.126 128.581 26.126ZM127.573 23.956C127.573 24.2827 127.703 24.5393 127.965 24.726C128.226 24.9127 128.576 25.006 129.015 25.006C129.332 25.006 129.626 24.9593 129.897 24.866C130.177 24.7633 130.433 24.614 130.667 24.418V23.284C130.424 23.172 130.172 23.088 129.911 23.032C129.649 22.976 129.365 22.948 129.057 22.948C128.599 22.948 128.235 23.0367 127.965 23.214C127.703 23.3913 127.573 23.6387 127.573 23.956ZM137.49 26V16.2H139.128L144.238 23.326L144.21 16.2H145.792V26H144.294L139.044 18.678L139.072 26H137.49ZM151.151 26.126C150.488 26.126 149.886 25.9673 149.345 25.65C148.813 25.3327 148.393 24.9033 148.085 24.362C147.777 23.8113 147.623 23.1907 147.623 22.5C147.623 21.8093 147.777 21.1933 148.085 20.652C148.393 20.1013 148.813 19.6673 149.345 19.35C149.877 19.0327 150.479 18.874 151.151 18.874C151.823 18.874 152.42 19.0327 152.943 19.35C153.475 19.6673 153.895 20.1013 154.203 20.652C154.511 21.1933 154.665 21.8093 154.665 22.5C154.665 23.1907 154.511 23.8113 154.203 24.362C153.895 24.9033 153.475 25.3327 152.943 25.65C152.42 25.9673 151.823 26.126 151.151 26.126ZM151.151 24.782C151.534 24.782 151.87 24.684 152.159 24.488C152.458 24.292 152.691 24.0213 152.859 23.676C153.027 23.3213 153.111 22.9293 153.111 22.5C153.111 22.0613 153.027 21.674 152.859 21.338C152.691 20.9927 152.458 20.722 152.159 20.526C151.87 20.3207 151.534 20.218 151.151 20.218C150.768 20.218 150.428 20.3207 150.129 20.526C149.83 20.722 149.597 20.9927 149.429 21.338C149.261 21.674 149.177 22.0613 149.177 22.5C149.177 22.9387 149.261 23.3307 149.429 23.676C149.597 24.0213 149.83 24.292 150.129 24.488C150.428 24.684 150.768 24.782 151.151 24.782ZM158.123 26L155.267 18.986H156.989L158.949 24.082L160.895 18.986H162.547L159.663 26H158.123ZM166.682 26.126C166.019 26.126 165.417 25.9673 164.876 25.65C164.344 25.3327 163.924 24.9033 163.616 24.362C163.308 23.8113 163.154 23.1907 163.154 22.5C163.154 21.8093 163.308 21.1933 163.616 20.652C163.924 20.1013 164.344 19.6673 164.876 19.35C165.408 19.0327 166.01 18.874 166.682 18.874C167.354 18.874 167.951 19.0327 168.474 19.35C169.006 19.6673 169.426 20.1013 169.734 20.652C170.042 21.1933 170.196 21.8093 170.196 22.5C170.196 23.1907 170.042 23.8113 169.734 24.362C169.426 24.9033 169.006 25.3327 168.474 25.65C167.951 25.9673 167.354 26.126 166.682 26.126ZM166.682 24.782C167.065 24.782 167.401 24.684 167.69 24.488C167.989 24.292 168.222 24.0213 168.39 23.676C168.558 23.3213 168.642 22.9293 168.642 22.5C168.642 22.0613 168.558 21.674 168.39 21.338C168.222 20.9927 167.989 20.722 167.69 20.526C167.401 20.3207 167.065 20.218 166.682 20.218C166.299 20.218 165.959 20.3207 165.66 20.526C165.361 20.722 165.128 20.9927 164.96 21.338C164.792 21.674 164.708 22.0613 164.708 22.5C164.708 22.9387 164.792 23.3307 164.96 23.676C165.128 24.0213 165.361 24.292 165.66 24.488C165.959 24.684 166.299 24.782 166.682 24.782ZM174.525 26.14C173.816 26.14 173.279 25.9767 172.915 25.65C172.551 25.314 172.369 24.824 172.369 24.18V20.246H170.969V18.986H172.369V17.054L173.951 16.718V18.986H175.897V20.246H173.951V23.83C173.951 24.1753 174.026 24.4227 174.175 24.572C174.325 24.712 174.577 24.782 174.931 24.782C175.09 24.782 175.235 24.7727 175.365 24.754C175.505 24.726 175.678 24.6793 175.883 24.614V25.944C175.687 26.0093 175.463 26.056 175.211 26.084C174.969 26.1213 174.74 26.14 174.525 26.14ZM177.298 26V18.986H178.88V20.134C179.151 19.714 179.473 19.4013 179.846 19.196C180.22 18.9813 180.635 18.874 181.092 18.874C181.578 18.874 182.002 18.9813 182.366 19.196C182.73 19.4013 183.015 19.6907 183.22 20.064C183.435 20.4373 183.542 20.876 183.542 21.38V26H181.946V21.828C181.946 21.3147 181.806 20.9087 181.526 20.61C181.246 20.302 180.873 20.148 180.406 20.148C180.089 20.148 179.8 20.2227 179.538 20.372C179.286 20.512 179.067 20.722 178.88 21.002V26H177.298ZM188.709 26.14C188.037 26.14 187.43 25.9813 186.889 25.664C186.347 25.3373 185.918 24.9033 185.601 24.362C185.283 23.8113 185.125 23.1907 185.125 22.5C185.125 21.8093 185.274 21.1933 185.573 20.652C185.871 20.1107 186.277 19.6813 186.791 19.364C187.313 19.0373 187.892 18.874 188.527 18.874C189.18 18.874 189.754 19.0327 190.249 19.35C190.753 19.6673 191.145 20.0967 191.425 20.638C191.714 21.1793 191.859 21.8 191.859 22.5V22.878H186.679C186.735 23.2607 186.856 23.6013 187.043 23.9C187.239 24.1893 187.486 24.418 187.785 24.586C188.093 24.754 188.424 24.838 188.779 24.838C189.105 24.838 189.413 24.782 189.703 24.67C190.001 24.5487 190.249 24.3853 190.445 24.18L191.481 25.118C191.051 25.4727 190.613 25.734 190.165 25.902C189.726 26.0607 189.241 26.14 188.709 26.14ZM186.693 21.898H190.361C190.305 21.562 190.188 21.2633 190.011 21.002C189.843 20.7407 189.628 20.5353 189.367 20.386C189.115 20.2367 188.835 20.162 188.527 20.162C188.219 20.162 187.934 20.2367 187.673 20.386C187.421 20.526 187.211 20.7267 187.043 20.988C186.875 21.2493 186.758 21.5527 186.693 21.898ZM193.771 29.066C193.519 29.066 193.258 29.0333 192.987 28.968V27.596C193.08 27.6147 193.178 27.6287 193.281 27.638C193.393 27.6473 193.5 27.652 193.603 27.652C193.883 27.652 194.112 27.5867 194.289 27.456C194.466 27.3253 194.616 27.1247 194.737 26.854L195.059 26.07L192.413 18.986H194.163L195.955 24.18L197.901 18.986H199.637L196.277 27.218C196.1 27.666 195.899 28.0253 195.675 28.296C195.451 28.5667 195.185 28.7627 194.877 28.884C194.578 29.0053 194.21 29.066 193.771 29.066Z" fill="#B9DAFC"/>
<path d="M81.232 47V37.2H82.31V41.582H87.938V37.2H89.016V47H87.938V42.548H82.31V47H81.232ZM94.3839 47.14C93.7492 47.14 93.1752 46.986 92.6619 46.678C92.1486 46.3607 91.7426 45.936 91.4439 45.404C91.1452 44.8627 90.9959 44.256 90.9959 43.584C90.9959 42.912 91.1359 42.31 91.4159 41.778C91.7052 41.246 92.0926 40.826 92.5779 40.518C93.0632 40.21 93.6046 40.056 94.2019 40.056C94.8086 40.056 95.3452 40.21 95.8119 40.518C96.2879 40.8167 96.6612 41.2273 96.9319 41.75C97.2119 42.2633 97.3519 42.8467 97.3519 43.5V43.808H91.9899C92.0272 44.2747 92.1532 44.6947 92.3679 45.068C92.5919 45.432 92.8812 45.7213 93.2359 45.936C93.5999 46.1413 93.9966 46.244 94.4259 46.244C94.7806 46.244 95.1212 46.1833 95.4479 46.062C95.7839 45.9313 96.0686 45.7587 96.3019 45.544L96.9459 46.23C96.5539 46.538 96.1479 46.7667 95.7279 46.916C95.3079 47.0653 94.8599 47.14 94.3839 47.14ZM92.0179 43.08H96.3439C96.2972 42.6693 96.1712 42.3053 95.9659 41.988C95.7699 41.6613 95.5179 41.4047 95.2099 41.218C94.9112 41.0313 94.5752 40.938 94.2019 40.938C93.8286 40.938 93.4879 41.0313 93.1799 41.218C92.8719 41.3953 92.6152 41.6473 92.4099 41.974C92.2139 42.2913 92.0832 42.66 92.0179 43.08ZM101.074 47.126C100.589 47.126 100.159 47.0373 99.7862 46.86C99.4128 46.6827 99.1188 46.44 98.9042 46.132C98.6988 45.8147 98.5962 45.4507 98.5962 45.04C98.5962 44.6293 98.7035 44.2747 98.9182 43.976C99.1328 43.668 99.4315 43.43 99.8142 43.262C100.197 43.094 100.645 43.01 101.158 43.01C101.55 43.01 101.919 43.052 102.264 43.136C102.619 43.22 102.945 43.3553 103.244 43.542V42.604C103.244 42.044 103.095 41.624 102.796 41.344C102.497 41.0547 102.059 40.91 101.48 40.91C101.163 40.91 100.836 40.9567 100.5 41.05C100.173 41.1433 99.8095 41.2927 99.4082 41.498L99.0302 40.714C99.9448 40.2753 100.803 40.056 101.606 40.056C102.455 40.056 103.109 40.266 103.566 40.686C104.023 41.0967 104.252 41.6893 104.252 42.464V47H103.244V46.202C102.945 46.51 102.614 46.7433 102.25 46.902C101.886 47.0513 101.494 47.126 101.074 47.126ZM99.5762 45.012C99.5762 45.4133 99.7302 45.7353 100.038 45.978C100.355 46.2207 100.771 46.342 101.284 46.342C101.667 46.342 102.017 46.2767 102.334 46.146C102.661 46.0153 102.964 45.8193 103.244 45.558V44.242C102.955 44.074 102.656 43.9527 102.348 43.878C102.04 43.794 101.695 43.752 101.312 43.752C100.789 43.752 100.369 43.8687 100.052 44.102C99.7348 44.326 99.5762 44.6293 99.5762 45.012ZM109.171 47.098C108.583 47.098 108.051 46.944 107.575 46.636C107.099 46.3187 106.721 45.8987 106.441 45.376C106.161 44.844 106.021 44.2513 106.021 43.598C106.021 42.9353 106.161 42.3427 106.441 41.82C106.731 41.288 107.118 40.868 107.603 40.56C108.089 40.2427 108.63 40.084 109.227 40.084C109.647 40.084 110.039 40.168 110.403 40.336C110.767 40.4947 111.085 40.728 111.355 41.036V36.892L112.377 36.682V47H111.355V46.09C111.094 46.4167 110.777 46.6687 110.403 46.846C110.03 47.014 109.619 47.098 109.171 47.098ZM109.423 46.202C109.825 46.202 110.193 46.1227 110.529 45.964C110.865 45.8053 111.141 45.5813 111.355 45.292V41.904C111.131 41.6147 110.847 41.3907 110.501 41.232C110.165 41.064 109.806 40.98 109.423 40.98C108.966 40.98 108.555 41.092 108.191 41.316C107.837 41.54 107.552 41.848 107.337 42.24C107.132 42.632 107.029 43.08 107.029 43.584C107.029 44.0787 107.132 44.5267 107.337 44.928C107.552 45.32 107.837 45.6327 108.191 45.866C108.555 46.09 108.966 46.202 109.423 46.202ZM120.769 47.112C120.135 47.112 119.565 46.958 119.061 46.65C118.557 46.342 118.161 45.922 117.871 45.39C117.582 44.858 117.437 44.256 117.437 43.584C117.437 42.912 117.582 42.31 117.871 41.778C118.161 41.246 118.557 40.826 119.061 40.518C119.565 40.21 120.135 40.056 120.769 40.056C121.395 40.056 121.955 40.21 122.449 40.518C122.953 40.826 123.35 41.246 123.639 41.778C123.929 42.31 124.073 42.912 124.073 43.584C124.073 44.256 123.929 44.858 123.639 45.39C123.35 45.922 122.953 46.342 122.449 46.65C121.955 46.958 121.395 47.112 120.769 47.112ZM120.755 46.216C121.203 46.216 121.6 46.104 121.945 45.88C122.291 45.6467 122.561 45.3293 122.757 44.928C122.963 44.5267 123.065 44.0787 123.065 43.584C123.065 43.08 122.963 42.632 122.757 42.24C122.561 41.8387 122.291 41.526 121.945 41.302C121.6 41.0687 121.203 40.952 120.755 40.952C120.307 40.952 119.911 41.0687 119.565 41.302C119.22 41.526 118.945 41.8387 118.739 42.24C118.543 42.632 118.445 43.08 118.445 43.584C118.445 44.0787 118.543 44.5267 118.739 44.928C118.945 45.3293 119.22 45.6467 119.565 45.88C119.911 46.104 120.307 46.216 120.755 46.216ZM126.311 47V41.008H124.785V40.168H126.311V38.74C126.311 38.068 126.488 37.55 126.843 37.186C127.197 36.822 127.701 36.64 128.355 36.64C128.541 36.64 128.709 36.6493 128.859 36.668C129.017 36.6867 129.157 36.7193 129.279 36.766V37.69C129.129 37.6433 128.994 37.6107 128.873 37.592C128.751 37.5733 128.611 37.564 128.453 37.564C128.061 37.564 127.776 37.662 127.599 37.858C127.421 38.0447 127.333 38.3433 127.333 38.754V40.168H129.279V41.008H127.333V47H126.311ZM134.088 47V37.2H138.134C138.768 37.2 139.319 37.3213 139.786 37.564C140.252 37.7973 140.612 38.1333 140.864 38.572C141.125 39.0013 141.256 39.51 141.256 40.098C141.256 40.6767 141.125 41.1853 140.864 41.624C140.612 42.0627 140.252 42.4033 139.786 42.646C139.319 42.8793 138.768 42.996 138.134 42.996H135.166V47H134.088ZM135.166 42.072H138.008C138.689 42.072 139.221 41.8947 139.604 41.54C139.986 41.1853 140.178 40.7047 140.178 40.098C140.178 39.4913 139.986 39.0153 139.604 38.67C139.221 38.3247 138.689 38.152 138.008 38.152H135.166V42.072ZM145.351 47.112C144.866 47.112 144.437 47.0047 144.063 46.79C143.69 46.5753 143.396 46.2767 143.181 45.894C142.976 45.5113 142.873 45.0727 142.873 44.578V40.168H143.909V44.284C143.909 44.8907 144.073 45.3713 144.399 45.726C144.726 46.0807 145.169 46.258 145.729 46.258C146.112 46.258 146.453 46.1693 146.751 45.992C147.059 45.8147 147.316 45.558 147.521 45.222V40.168H148.543V47H147.521V45.894C147.26 46.2953 146.947 46.5987 146.583 46.804C146.229 47.0093 145.818 47.112 145.351 47.112ZM150.64 47V36.99L151.662 36.78V41.106C151.923 40.7793 152.241 40.5273 152.614 40.35C152.987 40.1727 153.403 40.084 153.86 40.084C154.457 40.084 154.989 40.2427 155.456 40.56C155.932 40.868 156.31 41.288 156.59 41.82C156.87 42.3427 157.01 42.9307 157.01 43.584C157.01 44.2373 156.865 44.83 156.576 45.362C156.296 45.894 155.913 46.3187 155.428 46.636C154.952 46.944 154.411 47.098 153.804 47.098C153.375 47.098 152.973 47.014 152.6 46.846C152.236 46.6687 151.919 46.4213 151.648 46.104V47H150.64ZM153.608 46.216C154.065 46.216 154.471 46.104 154.826 45.88C155.19 45.6467 155.475 45.334 155.68 44.942C155.895 44.5407 156.002 44.0927 156.002 43.598C156.002 43.094 155.895 42.646 155.68 42.254C155.475 41.862 155.19 41.554 154.826 41.33C154.471 41.0967 154.065 40.98 153.608 40.98C153.207 40.98 152.833 41.064 152.488 41.232C152.152 41.3907 151.877 41.6193 151.662 41.918V45.264C151.886 45.5627 152.166 45.796 152.502 45.964C152.847 46.132 153.216 46.216 153.608 46.216ZM158.802 47V36.892L159.824 36.682V47H158.802ZM161.905 47V40.168H162.927V47H161.905ZM162.423 38.474C162.218 38.474 162.04 38.404 161.891 38.264C161.751 38.1147 161.681 37.942 161.681 37.746C161.681 37.55 161.751 37.382 161.891 37.242C162.04 37.0927 162.218 37.018 162.423 37.018C162.628 37.018 162.801 37.0927 162.941 37.242C163.09 37.382 163.165 37.55 163.165 37.746C163.165 37.942 163.09 38.1147 162.941 38.264C162.801 38.404 162.628 38.474 162.423 38.474ZM168.089 47.112C167.454 47.112 166.88 46.958 166.367 46.65C165.863 46.3327 165.461 45.908 165.163 45.376C164.864 44.8347 164.715 44.2373 164.715 43.584C164.715 42.9213 164.864 42.324 165.163 41.792C165.461 41.26 165.863 40.84 166.367 40.532C166.88 40.2147 167.454 40.056 168.089 40.056C168.593 40.056 169.073 40.1493 169.531 40.336C169.988 40.5227 170.385 40.784 170.721 41.12L170.063 41.834C169.82 41.5633 169.526 41.3533 169.181 41.204C168.835 41.0547 168.485 40.98 168.131 40.98C167.683 40.98 167.277 41.0967 166.913 41.33C166.558 41.5633 166.273 41.876 166.059 42.268C165.844 42.66 165.737 43.0987 165.737 43.584C165.737 44.0693 165.844 44.508 166.059 44.9C166.273 45.292 166.558 45.6047 166.913 45.838C167.277 46.0713 167.683 46.188 168.131 46.188C168.485 46.188 168.835 46.1133 169.181 45.964C169.526 45.8053 169.82 45.5953 170.063 45.334L170.721 46.048C170.385 46.384 169.988 46.6453 169.531 46.832C169.073 47.0187 168.593 47.112 168.089 47.112ZM175.609 47V37.2H179.627C180.253 37.2 180.799 37.3213 181.265 37.564C181.732 37.7973 182.096 38.124 182.357 38.544C182.619 38.964 182.749 39.4587 182.749 40.028C182.749 40.6813 182.567 41.2413 182.203 41.708C181.839 42.1653 181.34 42.4873 180.705 42.674L182.791 47H181.601L179.613 42.814H176.687V47H175.609ZM176.687 41.918H179.543C180.187 41.918 180.701 41.75 181.083 41.414C181.475 41.0687 181.671 40.6113 181.671 40.042C181.671 39.4633 181.475 39.006 181.083 38.67C180.701 38.3247 180.187 38.152 179.543 38.152H176.687V41.918ZM187.202 47.14C186.568 47.14 185.994 46.986 185.48 46.678C184.967 46.3607 184.561 45.936 184.262 45.404C183.964 44.8627 183.814 44.256 183.814 43.584C183.814 42.912 183.954 42.31 184.234 41.778C184.524 41.246 184.911 40.826 185.396 40.518C185.882 40.21 186.423 40.056 187.02 40.056C187.627 40.056 188.164 40.21 188.63 40.518C189.106 40.8167 189.48 41.2273 189.75 41.75C190.03 42.2633 190.17 42.8467 190.17 43.5V43.808H184.808C184.846 44.2747 184.972 44.6947 185.186 45.068C185.41 45.432 185.7 45.7213 186.054 45.936C186.418 46.1413 186.815 46.244 187.244 46.244C187.599 46.244 187.94 46.1833 188.266 46.062C188.602 45.9313 188.887 45.7587 189.12 45.544L189.764 46.23C189.372 46.538 188.966 46.7667 188.546 46.916C188.126 47.0653 187.678 47.14 187.202 47.14ZM184.836 43.08H189.162C189.116 42.6693 188.99 42.3053 188.784 41.988C188.588 41.6613 188.336 41.4047 188.028 41.218C187.73 41.0313 187.394 40.938 187.02 40.938C186.647 40.938 186.306 41.0313 185.998 41.218C185.69 41.3953 185.434 41.6473 185.228 41.974C185.032 42.2913 184.902 42.66 184.836 43.08ZM191.915 47V36.892L192.937 36.682V47H191.915ZM197.146 47.126C196.661 47.126 196.232 47.0373 195.858 46.86C195.485 46.6827 195.191 46.44 194.976 46.132C194.771 45.8147 194.668 45.4507 194.668 45.04C194.668 44.6293 194.776 44.2747 194.99 43.976C195.205 43.668 195.504 43.43 195.886 43.262C196.269 43.094 196.717 43.01 197.23 43.01C197.622 43.01 197.991 43.052 198.336 43.136C198.691 43.22 199.018 43.3553 199.316 43.542V42.604C199.316 42.044 199.167 41.624 198.868 41.344C198.57 41.0547 198.131 40.91 197.552 40.91C197.235 40.91 196.908 40.9567 196.572 41.05C196.246 41.1433 195.882 41.2927 195.48 41.498L195.102 40.714C196.017 40.2753 196.876 40.056 197.678 40.056C198.528 40.056 199.181 40.266 199.638 40.686C200.096 41.0967 200.324 41.6893 200.324 42.464V47H199.316V46.202C199.018 46.51 198.686 46.7433 198.322 46.902C197.958 47.0513 197.566 47.126 197.146 47.126ZM195.648 45.012C195.648 45.4133 195.802 45.7353 196.11 45.978C196.428 46.2207 196.843 46.342 197.356 46.342C197.739 46.342 198.089 46.2767 198.406 46.146C198.733 46.0153 199.036 45.8193 199.316 45.558V44.242C199.027 44.074 198.728 43.9527 198.42 43.878C198.112 43.794 197.767 43.752 197.384 43.752C196.862 43.752 196.442 43.8687 196.124 44.102C195.807 44.326 195.648 44.6293 195.648 45.012ZM204.8 47.14C204.212 47.14 203.764 47 203.456 46.72C203.158 46.4307 203.008 46.0153 203.008 45.474V41.008H201.594V40.168H203.008V38.292L204.03 38.054V40.168H205.99V41.008H204.03V45.208C204.03 45.572 204.105 45.8333 204.254 45.992C204.413 46.1507 204.67 46.23 205.024 46.23C205.202 46.23 205.36 46.216 205.5 46.188C205.64 46.16 205.804 46.1133 205.99 46.048V46.958C205.804 47.0233 205.608 47.07 205.402 47.098C205.197 47.126 204.996 47.14 204.8 47.14ZM207.474 47V40.168H208.495V47H207.474ZM207.992 38.474C207.786 38.474 207.609 38.404 207.46 38.264C207.32 38.1147 207.25 37.942 207.25 37.746C207.25 37.55 207.32 37.382 207.46 37.242C207.609 37.0927 207.786 37.018 207.992 37.018C208.197 37.018 208.37 37.0927 208.51 37.242C208.659 37.382 208.734 37.55 208.734 37.746C208.734 37.942 208.659 38.1147 208.51 38.264C208.37 38.404 208.197 38.474 207.992 38.474ZM213.615 47.112C212.98 47.112 212.411 46.958 211.907 46.65C211.403 46.342 211.006 45.922 210.717 45.39C210.428 44.858 210.283 44.256 210.283 43.584C210.283 42.912 210.428 42.31 210.717 41.778C211.006 41.246 211.403 40.826 211.907 40.518C212.411 40.21 212.98 40.056 213.615 40.056C214.24 40.056 214.8 40.21 215.295 40.518C215.799 40.826 216.196 41.246 216.485 41.778C216.774 42.31 216.919 42.912 216.919 43.584C216.919 44.256 216.774 44.858 216.485 45.39C216.196 45.922 215.799 46.342 215.295 46.65C214.8 46.958 214.24 47.112 213.615 47.112ZM213.601 46.216C214.049 46.216 214.446 46.104 214.791 45.88C215.136 45.6467 215.407 45.3293 215.603 44.928C215.808 44.5267 215.911 44.0787 215.911 43.584C215.911 43.08 215.808 42.632 215.603 42.24C215.407 41.8387 215.136 41.526 214.791 41.302C214.446 41.0687 214.049 40.952 213.601 40.952C213.153 40.952 212.756 41.0687 212.411 41.302C212.066 41.526 211.79 41.8387 211.585 42.24C211.389 42.632 211.291 43.08 211.291 43.584C211.291 44.0787 211.389 44.5267 211.585 44.928C211.79 45.3293 212.066 45.6467 212.411 45.88C212.756 46.104 213.153 46.216 213.601 46.216ZM218.712 47V40.168H219.734V41.274C219.995 40.8633 220.308 40.56 220.672 40.364C221.036 40.1587 221.447 40.056 221.904 40.056C222.399 40.056 222.828 40.1633 223.192 40.378C223.565 40.5833 223.855 40.8773 224.06 41.26C224.275 41.6333 224.382 42.072 224.382 42.576V47H223.36V42.87C223.36 42.2633 223.192 41.7873 222.856 41.442C222.529 41.0873 222.086 40.91 221.526 40.91C221.153 40.91 220.812 40.9987 220.504 41.176C220.196 41.3533 219.939 41.6147 219.734 41.96V47H218.712ZM228.551 47.14C227.991 47.14 227.473 47.056 226.997 46.888C226.521 46.7107 226.115 46.4587 225.779 46.132L226.325 45.46C226.735 45.7587 227.113 45.978 227.459 46.118C227.804 46.2487 228.159 46.314 228.523 46.314C229.017 46.314 229.428 46.1973 229.755 45.964C230.081 45.7307 230.245 45.432 230.245 45.068C230.245 44.788 230.147 44.5687 229.951 44.41C229.764 44.2513 229.451 44.13 229.013 44.046L227.893 43.85C227.23 43.7287 226.74 43.5233 226.423 43.234C226.115 42.9447 225.961 42.5527 225.961 42.058C225.961 41.666 226.063 41.3207 226.269 41.022C226.483 40.7233 226.777 40.49 227.151 40.322C227.524 40.1447 227.949 40.056 228.425 40.056C228.891 40.056 229.335 40.126 229.755 40.266C230.175 40.3967 230.599 40.6113 231.029 40.91L230.525 41.624C230.17 41.372 229.815 41.19 229.461 41.078C229.106 40.9567 228.747 40.896 228.383 40.896C227.935 40.896 227.575 40.994 227.305 41.19C227.034 41.386 226.899 41.652 226.899 41.988C226.899 42.268 226.983 42.4827 227.151 42.632C227.328 42.7813 227.636 42.8933 228.075 42.968L229.223 43.178C229.913 43.2993 230.417 43.5093 230.735 43.808C231.052 44.1067 231.211 44.508 231.211 45.012C231.211 45.4133 231.094 45.7773 230.861 46.104C230.627 46.4213 230.31 46.6733 229.909 46.86C229.507 47.0467 229.055 47.14 228.551 47.14ZM232.28 49.198L233.12 45.964H234.212L233.078 49.198H232.28ZM238.824 47L240.91 37.2H244.592C245.152 37.2 245.632 37.3027 246.034 37.508C246.444 37.704 246.757 37.9887 246.972 38.362C247.196 38.7353 247.308 39.174 247.308 39.678C247.308 40.2007 247.196 40.6767 246.972 41.106C246.748 41.5353 246.435 41.8947 246.034 42.184C245.642 42.464 245.184 42.6507 244.662 42.744L245.936 47H244.83L243.598 42.814H240.77L239.874 47H238.824ZM240.952 41.918H243.906C244.363 41.918 244.769 41.8247 245.124 41.638C245.478 41.4513 245.754 41.1947 245.95 40.868C246.155 40.5413 246.258 40.168 246.258 39.748C246.258 39.2533 246.094 38.866 245.768 38.586C245.441 38.2967 244.998 38.152 244.438 38.152H241.764L240.952 41.918ZM250.906 47.126C250.299 47.126 249.758 46.9953 249.282 46.734C248.815 46.4633 248.451 46.09 248.19 45.614C247.929 45.138 247.798 44.592 247.798 43.976C247.798 43.4347 247.887 42.9307 248.064 42.464C248.251 41.988 248.503 41.5727 248.82 41.218C249.147 40.854 249.52 40.5693 249.94 40.364C250.369 40.1587 250.827 40.056 251.312 40.056C251.844 40.056 252.315 40.1867 252.726 40.448C253.137 40.7 253.459 41.0547 253.692 41.512C253.935 41.96 254.056 42.478 254.056 43.066C254.056 43.1873 254.051 43.3087 254.042 43.43C254.042 43.5513 254.033 43.6773 254.014 43.808H248.778C248.759 44.256 248.839 44.6667 249.016 45.04C249.203 45.404 249.464 45.698 249.8 45.922C250.136 46.1367 250.519 46.244 250.948 46.244C251.275 46.244 251.597 46.1927 251.914 46.09C252.241 45.978 252.521 45.8287 252.754 45.642L253.286 46.37C252.885 46.6313 252.493 46.8227 252.11 46.944C251.727 47.0653 251.326 47.126 250.906 47.126ZM248.876 43.08H253.104C253.113 42.6787 253.034 42.3193 252.866 42.002C252.707 41.6847 252.488 41.4327 252.208 41.246C251.928 41.05 251.606 40.952 251.242 40.952C250.869 40.952 250.519 41.0453 250.192 41.232C249.875 41.4093 249.599 41.6567 249.366 41.974C249.142 42.2913 248.979 42.66 248.876 43.08ZM258.143 47.098C257.62 47.098 257.154 46.9627 256.743 46.692C256.332 46.4213 256.01 46.0527 255.777 45.586C255.544 45.1193 255.427 44.592 255.427 44.004C255.427 43.472 255.516 42.9727 255.693 42.506C255.88 42.03 256.136 41.6147 256.463 41.26C256.79 40.896 257.163 40.6113 257.583 40.406C258.012 40.2007 258.47 40.098 258.955 40.098C259.422 40.098 259.837 40.1913 260.201 40.378C260.574 40.5647 260.882 40.8353 261.125 41.19L262.007 36.892L263.043 36.682L260.901 47H259.907L260.047 46.356C259.786 46.5893 259.492 46.7713 259.165 46.902C258.848 47.0327 258.507 47.098 258.143 47.098ZM258.507 46.216C259.142 46.216 259.711 45.992 260.215 45.544L260.943 42.016C260.766 41.708 260.509 41.4607 260.173 41.274C259.837 41.0873 259.473 40.994 259.081 40.994C258.586 40.994 258.138 41.1247 257.737 41.386C257.336 41.6473 257.014 41.9973 256.771 42.436C256.538 42.8747 256.421 43.3693 256.421 43.92C256.421 44.6013 256.612 45.1567 256.995 45.586C257.387 46.006 257.891 46.216 258.507 46.216ZM266.427 47L268.513 37.2H269.577L268.639 41.582H274.155L275.093 37.2H276.157L274.071 47H273.007L273.959 42.548H268.443L267.491 47H266.427ZM278.551 47.098C277.87 47.098 277.319 46.9253 276.899 46.58C276.488 46.2253 276.283 45.7587 276.283 45.18C276.283 44.7413 276.39 44.3587 276.605 44.032C276.829 43.7053 277.137 43.4487 277.529 43.262C277.93 43.0753 278.388 42.982 278.901 42.982C279.34 42.982 279.75 43.038 280.133 43.15C280.525 43.262 280.866 43.4253 281.155 43.64L281.337 42.814C281.477 42.1793 281.416 41.7033 281.155 41.386C280.894 41.0687 280.436 40.91 279.783 40.91C279.503 40.91 279.204 40.952 278.887 41.036C278.579 41.1107 278.224 41.2413 277.823 41.428L277.543 40.63C277.991 40.4433 278.411 40.3033 278.803 40.21C279.204 40.1167 279.592 40.07 279.965 40.07C280.581 40.07 281.085 40.1773 281.477 40.392C281.869 40.6067 282.14 40.9147 282.289 41.316C282.448 41.708 282.466 42.1793 282.345 42.73L281.393 47H280.399L280.539 46.356C280.222 46.608 279.9 46.7947 279.573 46.916C279.246 47.0373 278.906 47.098 278.551 47.098ZM278.845 46.328C279.181 46.328 279.498 46.272 279.797 46.16C280.105 46.0387 280.408 45.8613 280.707 45.628L281.001 44.326C280.74 44.1207 280.446 43.9713 280.119 43.878C279.792 43.7847 279.419 43.738 278.999 43.738C278.486 43.738 278.066 43.864 277.739 44.116C277.412 44.368 277.249 44.6853 277.249 45.068C277.249 45.4693 277.389 45.782 277.669 46.006C277.949 46.2207 278.341 46.328 278.845 46.328ZM285.901 47.126C285.275 47.126 284.827 46.9767 284.557 46.678C284.286 46.37 284.211 45.9313 284.333 45.362L285.257 41.008H283.885L284.081 40.168H285.439L285.831 38.292L286.909 38.054L286.447 40.168H288.379L288.183 41.008H286.265L285.369 45.138C285.285 45.53 285.313 45.81 285.453 45.978C285.593 46.146 285.877 46.23 286.307 46.23C286.419 46.23 286.526 46.2207 286.629 46.202C286.741 46.1833 286.895 46.146 287.091 46.09L286.895 47C286.736 47.0373 286.573 47.0653 286.405 47.084C286.237 47.112 286.069 47.126 285.901 47.126Z" fill="#C7C7C7"/>
<line x1="80.5" y1="31.5625" x2="199.5" y2="31.5625" stroke="#B9DAFC" stroke-linecap="square" stroke-dasharray="3 3"/>
<rect x="78" y="11" width="125" height="21" rx="3" stroke="#92C5F9" stroke-width="2"/>
<g filter="url(#filter0_d_3_132)">
<path d="M140.5 40.5V23.5L152.5 35.5H145.5L140.5 40.5Z" fill="#151515"/>
<path d="M153.707 36H145.707L140 41.707V22.293L153.707 36Z" stroke="white"/>
</g>
</g>
<defs>
<filter id="filter0_d_3_132" x="135.5" y="19.0858" width="23.4142" height="29.8284" filterUnits="userSpaceOnUse" color-interpolation-filters="sRGB">
<feFlood flood-opacity="0" result="BackgroundImageFix"/>
<feColorMatrix in="SourceAlpha" type="matrix" values="0 0 0 0 0 0 0 0 0 0 0 0 0 0 0 0 0 0 127 0" result="hardAlpha"/>
<feOffset dy="2"/>
<feGaussianBlur stdDeviation="2"/>
<feComposite in2="hardAlpha" operator="out"/>
<feColorMatrix type="matrix" values="0 0 0 0 0.0823529 0 0 0 0 0.0823529 0 0 0 0 0.0823529 0 0 0 0.2 0"/>
<feBlend mode="normal" in2="BackgroundImageFix" result="effect1_dropShadow_3_132"/>
<feBlend mode="normal" in="SourceGraphic" in2="effect1_dropShadow_3_132" result="shape"/>
</filter>
<clipPath id="clip0_3_132">
<rect width="289" height="64" fill="white"/>
</clipPath>
</defs>
</svg>
