<!-- © Red Hat, Inc. CC-BY-4.0 licensed --><svg xmlns="http://www.w3.org/2000/svg" viewBox="0 0 32 32"><path d="M31.75 18c0-2.62-2.13-4.75-4.75-4.75s-4.75 2.13-4.75 4.75c0 2.264 1.595 4.156 3.718 4.63C25.645 26.747 22.198 30 18 30c-4.411 0-8-3.589-8-8v-1.06a8.9 8.9 0 0 0 5.154-2.373A9.032 9.032 0 0 0 18 12V2.5c0-.827-.673-1.5-1.5-1.5H13a1 1 0 1 0 0 2h3v9c0 1.956-.786 3.77-2.214 5.108a6.923 6.923 0 0 1-5.254 1.876C4.869 18.747 2 15.56 2 11.726V3h3a1 1 0 1 0 0-2H1.5C.673 1 0 1.673 0 2.5v9.226c0 4.743 3.484 8.702 8 9.208V22c0 5.514 4.486 10 10 10 5.295 0 9.63-4.14 9.967-9.35A4.757 4.757 0 0 0 31.75 18Z"/></svg>