<!-- © Red Hat, Inc. CC-BY-4.0 licensed --><svg xmlns="http://www.w3.org/2000/svg" viewBox="0 0 32 32"><path d="M6.5 6h-5C.673 6 0 6.673 0 7.5v5c0 .827.673 1.5 1.5 1.5h5c.827 0 1.5-.673 1.5-1.5v-5C8 6.673 7.327 6 6.5 6ZM6 12H2V8h4v4Zm24.5-6h-5c-.827 0-1.5.673-1.5 1.5v5c0 .827.673 1.5 1.5 1.5h5c.827 0 1.5-.673 1.5-1.5v-5c0-.827-.673-1.5-1.5-1.5Zm-.5 6h-4V8h4v4ZM18.5 6h-5c-.827 0-1.5.673-1.5 1.5v5c0 .827.673 1.5 1.5 1.5h5c.827 0 1.5-.673 1.5-1.5v-5c0-.827-.673-1.5-1.5-1.5Zm-.5 6h-4V8h4v4ZM6.5 18h-5c-.827 0-1.5.673-1.5 1.5v5c0 .827.673 1.5 1.5 1.5h5c.827 0 1.5-.673 1.5-1.5v-5c0-.827-.673-1.5-1.5-1.5ZM6 24H2v-4h4v4Zm24.5-6h-5c-.827 0-1.5.673-1.5 1.5v5c0 .827.673 1.5 1.5 1.5h5c.827 0 1.5-.673 1.5-1.5v-5c0-.827-.673-1.5-1.5-1.5Zm-.5 6h-4v-4h4v4Zm-11.5-6h-5c-.827 0-1.5.673-1.5 1.5v5c0 .827.673 1.5 1.5 1.5h5c.827 0 1.5-.673 1.5-1.5v-5c0-.827-.673-1.5-1.5-1.5Zm-.5 6h-4v-4h4v4Z"/></svg>