<!-- © Red Hat, Inc. CC-BY-4.0 licensed --><svg xmlns="http://www.w3.org/2000/svg" viewBox="0 0 32 32"><path d="M17.625 16.015a1.626 1.626 0 1 1-3.251-.001 1.626 1.626 0 0 1 3.251.001ZM29 2.5v27c0 .827-.673 1.5-1.5 1.5h-23c-.827 0-1.5-.673-1.5-1.5v-27C3 1.673 3.673 1 4.5 1h23c.827 0 1.5.673 1.5 1.5ZM6.995 6.876a1.874 1.874 0 1 0 .001-3.749 1.874 1.874 0 0 0-.001 3.749Zm5.212 16.72a8.538 8.538 0 0 1-1.53-.979l-3.03 3.03a.499.499 0 0 0 .354.854h2a.499.499 0 0 0 .416-.223l1.791-2.682ZM24.5 16c0-4.687-3.813-8.5-8.5-8.5S7.5 11.313 7.5 16a8.47 8.47 0 0 0 2.799 6.286l2.993-2.993a1 1 0 0 1 .697-.293c.183.007.396.051.572.168.459.308.583.928.276 1.388l-2.177 3.26a8.441 8.441 0 0 0 3.338.685c4.687 0 8.5-3.813 8.5-8.5Zm2.375 11.003a1.874 1.874 0 1 0-3.749-.001 1.874 1.874 0 0 0 3.749.001Zm.005-22a1.874 1.874 0 1 0-3.749-.001 1.874 1.874 0 0 0 3.749.001Z"/></svg>