<!-- © Red Hat, Inc. CC-BY-4.0 licensed --><svg xmlns="http://www.w3.org/2000/svg" viewBox="0 0 32 32"><path d="M21.402 18.095a7.454 7.454 0 0 1-2.198 5.302l-5.398 5.41C12.378 30.223 10.494 31 8.497 31s-3.88-.778-5.304-2.19C.274 25.88.274 21.12 3.189 18.194l2.912-2.903a1 1 0 1 1 1.412 1.417l-2.91 2.9c-2.137 2.145-2.137 5.639.002 7.786a5.5 5.5 0 0 0 3.892 1.605c1.465 0 2.85-.572 3.896-1.61l5.396-5.407c1.04-1.04 1.613-2.421 1.613-3.888s-.573-2.849-1.612-3.888a5.356 5.356 0 0 0-1.267-.946 1 1 0 0 1 .947-1.762c.63.338 1.214.774 1.733 1.294a7.45 7.45 0 0 1 2.198 5.302Zm4.496-1.387 2.912-2.903c2.915-2.925 2.915-7.686-.004-10.616-1.424-1.412-3.308-2.19-5.304-2.19s-3.881.778-5.309 2.193l-5.398 5.41c-1.417 1.417-2.198 3.3-2.198 5.302s.781 3.885 2.198 5.302c.52.52 1.104.956 1.733 1.294a1.001 1.001 0 0 0 .948-1.762 5.356 5.356 0 0 1-1.267-.946c-1.039-1.04-1.612-2.42-1.612-3.888s.573-2.848 1.613-3.888l5.396-5.407c1.047-1.038 2.431-1.61 3.896-1.61s2.849.572 3.892 1.605c2.139 2.147 2.139 5.642.002 7.786l-2.91 2.9a1 1 0 1 0 1.412 1.417ZM3 11h3a1 1 0 1 0 0-2H3a1 1 0 1 0 0 2Zm7-4a1 1 0 0 0 1-1V3a1 1 0 1 0-2 0v3a1 1 0 0 0 1 1Zm-4.707-.293a.997.997 0 0 0 1.414 0 .999.999 0 0 0 0-1.414l-2-2a.999.999 0 1 0-1.414 1.414l2 2ZM29 21h-3a1 1 0 1 0 0 2h3a1 1 0 1 0 0-2Zm-7 4a1 1 0 0 0-1 1v3a1 1 0 1 0 2 0v-3a1 1 0 0 0-1-1Zm4.675.262a1.001 1.001 0 0 0-1.35 1.476l2 1.829a.993.993 0 0 0 .675.262 1.001 1.001 0 0 0 .675-1.738l-2-1.829Z"/></svg>