<!-- © Red Hat, Inc. CC-BY-4.0 licensed --><svg xmlns="http://www.w3.org/2000/svg" viewBox="0 0 32 32"><path d="M10.496 7c0-.288.209-.536.497-.59a5.523 5.523 0 0 0 4.418-4.417c.052-.289.3-.498.589-.498s.537.21.59.498a5.524 5.524 0 0 0 4.417 4.417c.289.054.498.3.498.59s-.21.536-.498.59a5.524 5.524 0 0 0-4.418 4.417c-.052.289-.3.498-.589.498s-.537-.21-.59-.498a5.523 5.523 0 0 0-4.417-4.417.604.604 0 0 1-.497-.59ZM31 17.5v11c0 .827-.673 1.5-1.5 1.5h-27c-.827 0-1.5-.673-1.5-1.5v-11c0-.827.673-1.5 1.5-1.5h27c.827 0 1.5.673 1.5 1.5ZM14.125 23c0-.621-.504-1.125-1.125-1.125H8a1.125 1.125 0 0 0 0 2.25h5c.621 0 1.125-.504 1.125-1.125Zm10.75.001a1.875 1.875 0 1 0-3.75 0 1.875 1.875 0 0 0 3.75 0Z"/></svg>