<!-- © Red Hat, Inc. CC-BY-4.0 licensed --><svg xmlns="http://www.w3.org/2000/svg" viewBox="0 0 32 32"><path d="M16 11c-2.757 0-5 2.243-5 5s2.243 5 5 5 5-2.243 5-5-2.243-5-5-5Zm0 8c-1.654 0-3-1.346-3-3s1.346-3 3-3 3 1.346 3 3-1.346 3-3 3Zm14.657-6.211c-.1-.46-.507-.789-.978-.789h-2.373c-.141-.4-.302-.791-.481-1.168l1.677-1.676a1 1 0 0 0 .134-1.249 15.23 15.23 0 0 0-4.543-4.542 1 1 0 0 0-1.248.134l-1.677 1.676c-.378-.18-.768-.341-1.168-.481V2.32a1 1 0 0 0-.788-.978 15.32 15.32 0 0 0-6.424 0A1 1 0 0 0 12 2.32v2.374c-.4.141-.79.302-1.168.481L9.155 3.499a1 1 0 0 0-1.248-.134 15.246 15.246 0 0 0-4.543 4.541 1 1 0 0 0 .134 1.249l1.677 1.676c-.18.378-.341.769-.481 1.168H2.321a1 1 0 0 0-.978.789 15.17 15.17 0 0 0 0 6.422c.1.46.507.789.978.789h2.373c.141.4.302.791.481 1.168l-1.677 1.676a1 1 0 0 0-.134 1.249 15.253 15.253 0 0 0 4.543 4.542 1 1 0 0 0 1.248-.134l1.677-1.676c.378.18.768.341 1.168.481v2.374a1 1 0 0 0 .788.978 15.23 15.23 0 0 0 6.424 0 1 1 0 0 0 .788-.978v-2.374c.4-.141.79-.302 1.168-.481l1.677 1.676a1 1 0 0 0 1.248.134 15.2 15.2 0 0 0 4.543-4.542 1 1 0 0 0-.134-1.249l-1.677-1.676c.18-.378.341-.769.481-1.168h2.373a1 1 0 0 0 .978-.789 15.177 15.177 0 0 0 0-6.422ZM28.848 18h-2.272a1 1 0 0 0-.962.727 9.963 9.963 0 0 1-.885 2.144 1 1 0 0 0 .166 1.195l1.604 1.604a13.234 13.234 0 0 1-2.828 2.829l-1.604-1.604a1 1 0 0 0-1.195-.166 9.96 9.96 0 0 1-2.144.884 1 1 0 0 0-.728.962v2.273a13.277 13.277 0 0 1-4 0v-2.273a1 1 0 0 0-.728-.962 9.96 9.96 0 0 1-2.144-.884 1.001 1.001 0 0 0-1.195.166l-1.604 1.604a13.196 13.196 0 0 1-2.828-2.829l1.604-1.604c.316-.316.384-.805.166-1.195a9.963 9.963 0 0 1-.885-2.144A1 1 0 0 0 5.424 18H3.152a13.126 13.126 0 0 1 0-4h2.272a1 1 0 0 0 .962-.727 9.963 9.963 0 0 1 .885-2.144 1 1 0 0 0-.166-1.195L5.501 8.33a13.163 13.163 0 0 1 2.828-2.829l1.604 1.604c.316.316.805.383 1.195.166a9.96 9.96 0 0 1 2.144-.884A1 1 0 0 0 14 5.425V3.152a13.277 13.277 0 0 1 4 0v2.273a1 1 0 0 0 .728.962 9.96 9.96 0 0 1 2.144.884 1 1 0 0 0 1.195-.166l1.604-1.604a13.196 13.196 0 0 1 2.828 2.828l-1.604 1.604a1.001 1.001 0 0 0-.166 1.195c.372.665.67 1.386.885 2.144a1 1 0 0 0 .962.727h2.272a13.245 13.245 0 0 1 0 4Z"/></svg>