<!-- © Red Hat, Inc. CC-BY-4.0 licensed --><svg xmlns="http://www.w3.org/2000/svg" viewBox="0 0 32 32"><path d="M17.406 2.102a1 1 0 0 0-1.054.11L7.656 9H2.5C1.673 9 1 9.673 1 10.5v11c0 .827.673 1.5 1.5 1.5h5.156l8.697 6.788A1.001 1.001 0 0 0 17.968 29V3a1 1 0 0 0-.562-.898Zm-1.438 24.85-7.353-5.74A.997.997 0 0 0 8 21H3V11h5c.223 0 .44-.074.615-.212l7.353-5.74v21.903Zm11.765-21.83a1 1 0 1 0-1.466 1.36C28.674 9.076 30 12.457 30 16s-1.326 6.923-3.733 9.519a1 1 0 1 0 1.466 1.36C30.485 23.91 32 20.047 32 16s-1.515-7.91-4.267-10.878Z"/><path d="M22.372 9.565a1 1 0 0 0-.149 1.407C23.37 12.389 24 14.174 24 16s-.63 3.611-1.777 5.027a1 1 0 1 0 1.555 1.258C25.21 20.515 26 18.283 26 16s-.79-4.515-2.222-6.286a1 1 0 0 0-1.406-.149Z"/></svg>