<svg width="284" height="37" viewBox="0 0 284 37" fill="none" xmlns="http://www.w3.org/2000/svg">
<rect x="5.5" y="5" width="115" height="27" rx="13.5" fill="white"/>
<rect x="5.5" y="5" width="115" height="27" rx="13.5" stroke="#C7C7C7" stroke-width="2"/>
<g clip-path="url(#clip0_9_2015)">
<path d="M20.5 18C20.225 18 20 18.225 20 18.5V22C20 22.275 20.225 22.5 20.5 22.5C20.775 22.5 21 22.275 21 22V18.5C21 18.225 20.775 18 20.5 18Z" fill="#5E40BE"/>
<path d="M20.5 10.5C16.09 10.5 12.5 14.09 12.5 18.5C12.5 22.91 16.09 26.5 20.5 26.5C24.91 26.5 28.5 22.91 28.5 18.5C28.5 14.09 24.91 10.5 20.5 10.5ZM20.5 25.5C16.64 25.5 13.5 22.36 13.5 18.5C13.5 14.64 16.64 11.5 20.5 11.5C24.36 11.5 27.5 14.64 27.5 18.5C27.5 22.36 24.36 25.5 20.5 25.5Z" fill="#5E40BE"/>
<path d="M20.5 16.25C20.9142 16.25 21.25 15.9142 21.25 15.5C21.25 15.0858 20.9142 14.75 20.5 14.75C20.0858 14.75 19.75 15.0858 19.75 15.5C19.75 15.9142 20.0858 16.25 20.5 16.25Z" fill="#5E40BE"/>
</g>
<path d="M33.746 23V13.2H40.438V14.152H34.824V17.652H38.66V18.59H34.824V23H33.746ZM43.9704 23.112C43.485 23.112 43.0557 23.0047 42.6824 22.79C42.309 22.5753 42.015 22.2767 41.8004 21.894C41.595 21.5113 41.4924 21.0727 41.4924 20.578V16.168H42.5284V20.284C42.5284 20.8907 42.6917 21.3713 43.0184 21.726C43.345 22.0807 43.7884 22.258 44.3484 22.258C44.731 22.258 45.0717 22.1693 45.3704 21.992C45.6784 21.8147 45.935 21.558 46.1404 21.222V16.168H47.1624V23H46.1404V21.894C45.879 22.2953 45.5664 22.5987 45.2024 22.804C44.8477 23.0093 44.437 23.112 43.9704 23.112ZM51.863 23.14C51.275 23.14 50.827 23 50.519 22.72C50.2203 22.4307 50.071 22.0153 50.071 21.474V17.008H48.657V16.168H50.071V14.292L51.093 14.054V16.168H53.053V17.008H51.093V21.208C51.093 21.572 51.1677 21.8333 51.317 21.992C51.4757 22.1507 51.7323 22.23 52.087 22.23C52.2643 22.23 52.423 22.216 52.563 22.188C52.703 22.16 52.8663 22.1133 53.053 22.048V22.958C52.8663 23.0233 52.6703 23.07 52.465 23.098C52.2597 23.126 52.059 23.14 51.863 23.14ZM56.986 23.112C56.5007 23.112 56.0713 23.0047 55.698 22.79C55.3247 22.5753 55.0307 22.2767 54.816 21.894C54.6107 21.5113 54.508 21.0727 54.508 20.578V16.168H55.544V20.284C55.544 20.8907 55.7073 21.3713 56.034 21.726C56.3607 22.0807 56.804 22.258 57.364 22.258C57.7467 22.258 58.0873 22.1693 58.386 21.992C58.694 21.8147 58.9507 21.558 59.156 21.222V16.168H60.178V23H59.156V21.894C58.8947 22.2953 58.582 22.5987 58.218 22.804C57.8633 23.0093 57.4527 23.112 56.986 23.112ZM62.2746 23V16.168H63.2966V17.568C63.4739 17.092 63.7259 16.7233 64.0526 16.462C64.3886 16.1913 64.7713 16.056 65.2006 16.056C65.3219 16.056 65.4339 16.0653 65.5366 16.084C65.6393 16.0933 65.7419 16.1167 65.8446 16.154V17.078C65.7326 17.0407 65.6113 17.0127 65.4806 16.994C65.3593 16.966 65.2426 16.952 65.1306 16.952C64.7106 16.952 64.3419 17.0733 64.0246 17.316C63.7166 17.5587 63.4739 17.8993 63.2966 18.338V23H62.2746ZM69.8527 23.14C69.218 23.14 68.644 22.986 68.1307 22.678C67.6173 22.3607 67.2113 21.936 66.9127 21.404C66.614 20.8627 66.4647 20.256 66.4647 19.584C66.4647 18.912 66.6047 18.31 66.8847 17.778C67.174 17.246 67.5613 16.826 68.0467 16.518C68.532 16.21 69.0733 16.056 69.6707 16.056C70.2773 16.056 70.814 16.21 71.2807 16.518C71.7567 16.8167 72.13 17.2273 72.4007 17.75C72.6807 18.2633 72.8207 18.8467 72.8207 19.5V19.808H67.4587C67.496 20.2747 67.622 20.6947 67.8367 21.068C68.0607 21.432 68.35 21.7213 68.7047 21.936C69.0687 22.1413 69.4653 22.244 69.8947 22.244C70.2493 22.244 70.59 22.1833 70.9167 22.062C71.2527 21.9313 71.5373 21.7587 71.7707 21.544L72.4147 22.23C72.0227 22.538 71.6167 22.7667 71.1967 22.916C70.7767 23.0653 70.3287 23.14 69.8527 23.14ZM67.4867 19.08H71.8127C71.766 18.6693 71.64 18.3053 71.4347 17.988C71.2387 17.6613 70.9867 17.4047 70.6787 17.218C70.38 17.0313 70.044 16.938 69.6707 16.938C69.2973 16.938 68.9567 17.0313 68.6487 17.218C68.3407 17.3953 68.084 17.6473 67.8787 17.974C67.6827 18.2913 67.552 18.66 67.4867 19.08ZM80.6752 23.098C80.0872 23.098 79.5552 22.944 79.0792 22.636C78.6032 22.3187 78.2252 21.8987 77.9452 21.376C77.6652 20.844 77.5252 20.2513 77.5252 19.598C77.5252 18.9353 77.6652 18.3427 77.9452 17.82C78.2345 17.288 78.6219 16.868 79.1072 16.56C79.5925 16.2427 80.1339 16.084 80.7312 16.084C81.1512 16.084 81.5432 16.168 81.9072 16.336C82.2712 16.4947 82.5885 16.728 82.8592 17.036V12.892L83.8812 12.682V23H82.8592V22.09C82.5979 22.4167 82.2805 22.6687 81.9072 22.846C81.5339 23.014 81.1232 23.098 80.6752 23.098ZM80.9272 22.202C81.3285 22.202 81.6972 22.1227 82.0332 21.964C82.3692 21.8053 82.6445 21.5813 82.8592 21.292V17.904C82.6352 17.6147 82.3505 17.3907 82.0052 17.232C81.6692 17.064 81.3099 16.98 80.9272 16.98C80.4699 16.98 80.0592 17.092 79.6952 17.316C79.3405 17.54 79.0559 17.848 78.8412 18.24C78.6359 18.632 78.5332 19.08 78.5332 19.584C78.5332 20.0787 78.6359 20.5267 78.8412 20.928C79.0559 21.32 79.3405 21.6327 79.6952 21.866C80.0592 22.09 80.4699 22.202 80.9272 22.202ZM88.0956 23.126C87.6103 23.126 87.181 23.0373 86.8076 22.86C86.4343 22.6827 86.1403 22.44 85.9256 22.132C85.7203 21.8147 85.6176 21.4507 85.6176 21.04C85.6176 20.6293 85.725 20.2747 85.9396 19.976C86.1543 19.668 86.453 19.43 86.8356 19.262C87.2183 19.094 87.6663 19.01 88.1796 19.01C88.5716 19.01 88.9403 19.052 89.2856 19.136C89.6403 19.22 89.967 19.3553 90.2656 19.542V18.604C90.2656 18.044 90.1163 17.624 89.8176 17.344C89.519 17.0547 89.0803 16.91 88.5016 16.91C88.1843 16.91 87.8576 16.9567 87.5216 17.05C87.195 17.1433 86.831 17.2927 86.4296 17.498L86.0516 16.714C86.9663 16.2753 87.825 16.056 88.6276 16.056C89.477 16.056 90.1303 16.266 90.5876 16.686C91.045 17.0967 91.2736 17.6893 91.2736 18.464V23H90.2656V22.202C89.967 22.51 89.6356 22.7433 89.2716 22.902C88.9076 23.0513 88.5156 23.126 88.0956 23.126ZM86.5976 21.012C86.5976 21.4133 86.7516 21.7353 87.0596 21.978C87.377 22.2207 87.7923 22.342 88.3056 22.342C88.6883 22.342 89.0383 22.2767 89.3556 22.146C89.6823 22.0153 89.9856 21.8193 90.2656 21.558V20.242C89.9763 20.074 89.6776 19.9527 89.3696 19.878C89.0616 19.794 88.7163 19.752 88.3336 19.752C87.811 19.752 87.391 19.8687 87.0736 20.102C86.7563 20.326 86.5976 20.6293 86.5976 21.012ZM95.7497 23.14C95.1617 23.14 94.7137 23 94.4057 22.72C94.107 22.4307 93.9577 22.0153 93.9577 21.474V17.008H92.5437V16.168H93.9577V14.292L94.9797 14.054V16.168H96.9397V17.008H94.9797V21.208C94.9797 21.572 95.0544 21.8333 95.2037 21.992C95.3624 22.1507 95.619 22.23 95.9737 22.23C96.151 22.23 96.3097 22.216 96.4497 22.188C96.5897 22.16 96.753 22.1133 96.9397 22.048V22.958C96.753 23.0233 96.557 23.07 96.3517 23.098C96.1464 23.126 95.9457 23.14 95.7497 23.14ZM101.38 23.14C100.745 23.14 100.171 22.986 99.658 22.678C99.1447 22.3607 98.7387 21.936 98.44 21.404C98.1413 20.8627 97.992 20.256 97.992 19.584C97.992 18.912 98.132 18.31 98.412 17.778C98.7013 17.246 99.0887 16.826 99.574 16.518C100.059 16.21 100.601 16.056 101.198 16.056C101.805 16.056 102.341 16.21 102.808 16.518C103.284 16.8167 103.657 17.2273 103.928 17.75C104.208 18.2633 104.348 18.8467 104.348 19.5V19.808H98.986C99.0233 20.2747 99.1493 20.6947 99.364 21.068C99.588 21.432 99.8773 21.7213 100.232 21.936C100.596 22.1413 100.993 22.244 101.422 22.244C101.777 22.244 102.117 22.1833 102.444 22.062C102.78 21.9313 103.065 21.7587 103.298 21.544L103.942 22.23C103.55 22.538 103.144 22.7667 102.724 22.916C102.304 23.0653 101.856 23.14 101.38 23.14ZM99.014 19.08H103.34C103.293 18.6693 103.167 18.3053 102.962 17.988C102.766 17.6613 102.514 17.4047 102.206 17.218C101.907 17.0313 101.571 16.938 101.198 16.938C100.825 16.938 100.484 17.0313 100.176 17.218C99.868 17.3953 99.6113 17.6473 99.406 17.974C99.21 18.2913 99.0793 18.66 99.014 19.08ZM108.935 23.098C108.347 23.098 107.815 22.944 107.339 22.636C106.863 22.3187 106.485 21.8987 106.205 21.376C105.925 20.844 105.785 20.2513 105.785 19.598C105.785 18.9353 105.925 18.3427 106.205 17.82C106.494 17.288 106.882 16.868 107.367 16.56C107.852 16.2427 108.394 16.084 108.991 16.084C109.411 16.084 109.803 16.168 110.167 16.336C110.531 16.4947 110.848 16.728 111.119 17.036V12.892L112.141 12.682V23H111.119V22.09C110.858 22.4167 110.54 22.6687 110.167 22.846C109.794 23.014 109.383 23.098 108.935 23.098ZM109.187 22.202C109.588 22.202 109.957 22.1227 110.293 21.964C110.629 21.8053 110.904 21.5813 111.119 21.292V17.904C110.895 17.6147 110.61 17.3907 110.265 17.232C109.929 17.064 109.57 16.98 109.187 16.98C108.73 16.98 108.319 17.092 107.955 17.316C107.6 17.54 107.316 17.848 107.101 18.24C106.896 18.632 106.793 19.08 106.793 19.584C106.793 20.0787 106.896 20.5267 107.101 20.928C107.316 21.32 107.6 21.6327 107.955 21.866C108.319 22.09 108.73 22.202 109.187 22.202Z" fill="#3D2785"/>
<rect x="1.5" y="1" width="123" height="35" rx="17.5" stroke="#0066CC" stroke-width="2"/>
<rect x="174.5" y="10.5" width="104" height="16" rx="8" fill="white"/>
<rect x="174.5" y="10.5" width="104" height="16" rx="8" stroke="#C7C7C7" stroke-width="2"/>
<g clip-path="url(#clip1_9_2015)">
<path d="M189.5 18.125C189.294 18.125 189.125 18.2937 189.125 18.5V21.125C189.125 21.3313 189.294 21.5 189.5 21.5C189.706 21.5 189.875 21.3313 189.875 21.125V18.5C189.875 18.2937 189.706 18.125 189.5 18.125Z" fill="#5E40BE"/>
<path d="M189.5 12.5C186.193 12.5 183.5 15.1925 183.5 18.5C183.5 21.8075 186.193 24.5 189.5 24.5C192.807 24.5 195.5 21.8075 195.5 18.5C195.5 15.1925 192.807 12.5 189.5 12.5ZM189.5 23.75C186.605 23.75 184.25 21.395 184.25 18.5C184.25 15.605 186.605 13.25 189.5 13.25C192.395 13.25 194.75 15.605 194.75 18.5C194.75 21.395 192.395 23.75 189.5 23.75Z" fill="#5E40BE"/>
<path d="M189.5 16.8125C189.811 16.8125 190.062 16.5607 190.062 16.25C190.062 15.9393 189.811 15.6875 189.5 15.6875C189.189 15.6875 188.938 15.9393 188.938 16.25C188.938 16.5607 189.189 16.8125 189.5 16.8125Z" fill="#5E40BE"/>
</g>
<path d="M202.568 22.5V14.1H208.304V14.916H203.492V17.916H206.78V18.72H203.492V22.5H202.568ZM211.332 22.596C210.916 22.596 210.548 22.504 210.228 22.32C209.908 22.136 209.656 21.88 209.472 21.552C209.296 21.224 209.208 20.848 209.208 20.424V16.644H210.096V20.172C210.096 20.692 210.236 21.104 210.516 21.408C210.796 21.712 211.176 21.864 211.656 21.864C211.984 21.864 212.276 21.788 212.532 21.636C212.796 21.484 213.016 21.264 213.192 20.976V16.644H214.068V22.5H213.192V21.552C212.968 21.896 212.7 22.156 212.388 22.332C212.084 22.508 211.732 22.596 211.332 22.596ZM218.097 22.62C217.593 22.62 217.209 22.5 216.945 22.26C216.689 22.012 216.561 21.656 216.561 21.192V17.364H215.349V16.644H216.561V15.036L217.437 14.832V16.644H219.117V17.364H217.437V20.964C217.437 21.276 217.501 21.5 217.629 21.636C217.765 21.772 217.985 21.84 218.289 21.84C218.441 21.84 218.577 21.828 218.697 21.804C218.817 21.78 218.957 21.74 219.117 21.684V22.464C218.957 22.52 218.789 22.56 218.613 22.584C218.437 22.608 218.265 22.62 218.097 22.62ZM222.488 22.596C222.072 22.596 221.704 22.504 221.384 22.32C221.064 22.136 220.812 21.88 220.628 21.552C220.452 21.224 220.364 20.848 220.364 20.424V16.644H221.252V20.172C221.252 20.692 221.392 21.104 221.672 21.408C221.952 21.712 222.332 21.864 222.812 21.864C223.14 21.864 223.432 21.788 223.688 21.636C223.952 21.484 224.172 21.264 224.348 20.976V16.644H225.224V22.5H224.348V21.552C224.124 21.896 223.856 22.156 223.544 22.332C223.24 22.508 222.888 22.596 222.488 22.596ZM227.021 22.5V16.644H227.897V17.844C228.049 17.436 228.265 17.12 228.545 16.896C228.833 16.664 229.161 16.548 229.529 16.548C229.633 16.548 229.729 16.556 229.817 16.572C229.905 16.58 229.993 16.6 230.081 16.632V17.424C229.985 17.392 229.881 17.368 229.769 17.352C229.665 17.328 229.565 17.316 229.469 17.316C229.109 17.316 228.793 17.42 228.521 17.628C228.257 17.836 228.049 18.128 227.897 18.504V22.5H227.021ZM233.517 22.62C232.973 22.62 232.481 22.488 232.041 22.224C231.601 21.952 231.253 21.588 230.997 21.132C230.741 20.668 230.613 20.148 230.613 19.572C230.613 18.996 230.733 18.48 230.973 18.024C231.221 17.568 231.553 17.208 231.969 16.944C232.385 16.68 232.849 16.548 233.361 16.548C233.881 16.548 234.341 16.68 234.741 16.944C235.149 17.2 235.469 17.552 235.701 18C235.941 18.44 236.061 18.94 236.061 19.5V19.764H231.465C231.497 20.164 231.605 20.524 231.789 20.844C231.981 21.156 232.229 21.404 232.533 21.588C232.845 21.764 233.185 21.852 233.553 21.852C233.857 21.852 234.149 21.8 234.429 21.696C234.717 21.584 234.961 21.436 235.161 21.252L235.713 21.84C235.377 22.104 235.029 22.3 234.669 22.428C234.309 22.556 233.925 22.62 233.517 22.62ZM231.489 19.14H235.197C235.157 18.788 235.049 18.476 234.873 18.204C234.705 17.924 234.489 17.704 234.225 17.544C233.969 17.384 233.681 17.304 233.361 17.304C233.041 17.304 232.749 17.384 232.485 17.544C232.221 17.696 232.001 17.912 231.825 18.192C231.657 18.464 231.545 18.78 231.489 19.14ZM242.793 22.584C242.289 22.584 241.833 22.452 241.425 22.188C241.017 21.916 240.693 21.556 240.453 21.108C240.213 20.652 240.093 20.144 240.093 19.584C240.093 19.016 240.213 18.508 240.453 18.06C240.701 17.604 241.033 17.244 241.449 16.98C241.865 16.708 242.329 16.572 242.841 16.572C243.201 16.572 243.537 16.644 243.849 16.788C244.161 16.924 244.433 17.124 244.665 17.388V13.836L245.541 13.656V22.5H244.665V21.72C244.441 22 244.169 22.216 243.849 22.368C243.529 22.512 243.177 22.584 242.793 22.584ZM243.009 21.816C243.353 21.816 243.669 21.748 243.957 21.612C244.245 21.476 244.481 21.284 244.665 21.036V18.132C244.473 17.884 244.229 17.692 243.933 17.556C243.645 17.412 243.337 17.34 243.009 17.34C242.617 17.34 242.265 17.436 241.953 17.628C241.649 17.82 241.405 18.084 241.221 18.42C241.045 18.756 240.957 19.14 240.957 19.572C240.957 19.996 241.045 20.38 241.221 20.724C241.405 21.06 241.649 21.328 241.953 21.528C242.265 21.72 242.617 21.816 243.009 21.816ZM249.153 22.608C248.737 22.608 248.369 22.532 248.049 22.38C247.729 22.228 247.477 22.02 247.293 21.756C247.117 21.484 247.029 21.172 247.029 20.82C247.029 20.468 247.121 20.164 247.305 19.908C247.489 19.644 247.745 19.44 248.073 19.296C248.401 19.152 248.785 19.08 249.225 19.08C249.561 19.08 249.877 19.116 250.173 19.188C250.477 19.26 250.757 19.376 251.013 19.536V18.732C251.013 18.252 250.885 17.892 250.629 17.652C250.373 17.404 249.997 17.28 249.501 17.28C249.229 17.28 248.949 17.32 248.661 17.4C248.381 17.48 248.069 17.608 247.725 17.784L247.401 17.112C248.185 16.736 248.921 16.548 249.609 16.548C250.337 16.548 250.897 16.728 251.289 17.088C251.681 17.44 251.877 17.948 251.877 18.612V22.5H251.013V21.816C250.757 22.08 250.473 22.28 250.161 22.416C249.849 22.544 249.513 22.608 249.153 22.608ZM247.869 20.796C247.869 21.14 248.001 21.416 248.265 21.624C248.537 21.832 248.893 21.936 249.333 21.936C249.661 21.936 249.961 21.88 250.233 21.768C250.513 21.656 250.773 21.488 251.013 21.264V20.136C250.765 19.992 250.509 19.888 250.245 19.824C249.981 19.752 249.685 19.716 249.357 19.716C248.909 19.716 248.549 19.816 248.277 20.016C248.005 20.208 247.869 20.468 247.869 20.796ZM255.714 22.62C255.21 22.62 254.826 22.5 254.562 22.26C254.306 22.012 254.178 21.656 254.178 21.192V17.364H252.966V16.644H254.178V15.036L255.054 14.832V16.644H256.734V17.364H255.054V20.964C255.054 21.276 255.118 21.5 255.246 21.636C255.382 21.772 255.602 21.84 255.906 21.84C256.058 21.84 256.194 21.828 256.314 21.804C256.434 21.78 256.574 21.74 256.734 21.684V22.464C256.574 22.52 256.406 22.56 256.23 22.584C256.054 22.608 255.882 22.62 255.714 22.62ZM260.54 22.62C259.996 22.62 259.504 22.488 259.064 22.224C258.624 21.952 258.276 21.588 258.02 21.132C257.764 20.668 257.636 20.148 257.636 19.572C257.636 18.996 257.756 18.48 257.996 18.024C258.244 17.568 258.576 17.208 258.992 16.944C259.408 16.68 259.872 16.548 260.384 16.548C260.904 16.548 261.364 16.68 261.764 16.944C262.172 17.2 262.492 17.552 262.724 18C262.964 18.44 263.084 18.94 263.084 19.5V19.764H258.488C258.52 20.164 258.628 20.524 258.812 20.844C259.004 21.156 259.252 21.404 259.556 21.588C259.868 21.764 260.208 21.852 260.576 21.852C260.88 21.852 261.172 21.8 261.452 21.696C261.74 21.584 261.984 21.436 262.184 21.252L262.736 21.84C262.4 22.104 262.052 22.3 261.692 22.428C261.332 22.556 260.948 22.62 260.54 22.62ZM258.512 19.14H262.22C262.18 18.788 262.072 18.476 261.896 18.204C261.728 17.924 261.512 17.704 261.248 17.544C260.992 17.384 260.704 17.304 260.384 17.304C260.064 17.304 259.772 17.384 259.508 17.544C259.244 17.696 259.024 17.912 258.848 18.192C258.68 18.464 258.568 18.78 258.512 19.14ZM267.016 22.584C266.512 22.584 266.056 22.452 265.648 22.188C265.24 21.916 264.916 21.556 264.676 21.108C264.436 20.652 264.316 20.144 264.316 19.584C264.316 19.016 264.436 18.508 264.676 18.06C264.924 17.604 265.256 17.244 265.672 16.98C266.088 16.708 266.552 16.572 267.064 16.572C267.424 16.572 267.76 16.644 268.072 16.788C268.384 16.924 268.656 17.124 268.888 17.388V13.836L269.764 13.656V22.5H268.888V21.72C268.664 22 268.392 22.216 268.072 22.368C267.752 22.512 267.4 22.584 267.016 22.584ZM267.232 21.816C267.576 21.816 267.892 21.748 268.18 21.612C268.468 21.476 268.704 21.284 268.888 21.036V18.132C268.696 17.884 268.452 17.692 268.156 17.556C267.868 17.412 267.56 17.34 267.232 17.34C266.84 17.34 266.488 17.436 266.176 17.628C265.872 17.82 265.628 18.084 265.444 18.42C265.268 18.756 265.18 19.14 265.18 19.572C265.18 19.996 265.268 20.38 265.444 20.724C265.628 21.06 265.872 21.328 266.176 21.528C266.488 21.72 266.84 21.816 267.232 21.816Z" fill="#3D2785"/>
<rect x="170.5" y="6.5" width="112" height="24" rx="12" stroke="#0066CC" stroke-width="2"/>
<defs>
<clipPath id="clip0_9_2015">
<rect width="16" height="16" fill="white" transform="translate(12.5 10.5)"/>
</clipPath>
<clipPath id="clip1_9_2015">
<rect width="12" height="12" fill="white" transform="translate(183.5 12.5)"/>
</clipPath>
</defs>
</svg>
