<svg width="180" height="42" viewBox="0 0 180 42" fill="none" xmlns="http://www.w3.org/2000/svg">
<path d="M41 13C41 5.8203 46.8203 0 54 0H126C133.18 0 139 5.8203 139 13C139 20.1797 133.18 26 126 26H54C46.8203 26 41 20.1797 41 13Z" fill="#707070"/>
<path d="M50.068 17V8.6H53.464C53.976 8.6 54.42 8.688 54.796 8.864C55.18 9.04 55.476 9.288 55.684 9.608C55.892 9.928 55.996 10.304 55.996 10.736C55.996 11.2 55.86 11.6 55.588 11.936C55.324 12.264 54.964 12.496 54.508 12.632C55.068 12.76 55.508 13.004 55.828 13.364C56.156 13.716 56.32 14.152 56.32 14.672C56.32 15.136 56.208 15.544 55.984 15.896C55.76 16.248 55.444 16.52 55.036 16.712C54.628 16.904 54.148 17 53.596 17H50.068ZM50.992 12.272H53.392C53.904 12.272 54.312 12.144 54.616 11.888C54.92 11.624 55.072 11.272 55.072 10.832C55.072 10.392 54.92 10.044 54.616 9.788C54.312 9.524 53.904 9.392 53.392 9.392H50.992V12.272ZM50.992 16.208H53.5C54.068 16.208 54.524 16.064 54.868 15.776C55.212 15.48 55.384 15.092 55.384 14.612C55.384 14.132 55.212 13.748 54.868 13.46C54.532 13.172 54.076 13.028 53.5 13.028H50.992V16.208ZM59.7393 17.108C59.3233 17.108 58.9553 17.032 58.6353 16.88C58.3153 16.728 58.0633 16.52 57.8793 16.256C57.7033 15.984 57.6153 15.672 57.6153 15.32C57.6153 14.968 57.7073 14.664 57.8913 14.408C58.0753 14.144 58.3313 13.94 58.6593 13.796C58.9873 13.652 59.3713 13.58 59.8113 13.58C60.1473 13.58 60.4633 13.616 60.7593 13.688C61.0633 13.76 61.3433 13.876 61.5993 14.036V13.232C61.5993 12.752 61.4713 12.392 61.2153 12.152C60.9593 11.904 60.5833 11.78 60.0873 11.78C59.8153 11.78 59.5353 11.82 59.2473 11.9C58.9673 11.98 58.6553 12.108 58.3113 12.284L57.9873 11.612C58.7713 11.236 59.5073 11.048 60.1953 11.048C60.9233 11.048 61.4833 11.228 61.8753 11.588C62.2673 11.94 62.4633 12.448 62.4633 13.112V17H61.5993V16.316C61.3433 16.58 61.0593 16.78 60.7473 16.916C60.4353 17.044 60.0993 17.108 59.7393 17.108ZM58.4553 15.296C58.4553 15.64 58.5873 15.916 58.8513 16.124C59.1233 16.332 59.4793 16.436 59.9193 16.436C60.2473 16.436 60.5473 16.38 60.8193 16.268C61.0993 16.156 61.3593 15.988 61.5993 15.764V14.636C61.3513 14.492 61.0953 14.388 60.8313 14.324C60.5673 14.252 60.2713 14.216 59.9433 14.216C59.4953 14.216 59.1353 14.316 58.8633 14.516C58.5913 14.708 58.4553 14.968 58.4553 15.296ZM66.8717 17.096C66.3278 17.096 65.8358 16.964 65.3958 16.7C64.9638 16.428 64.6198 16.064 64.3638 15.608C64.1078 15.144 63.9798 14.632 63.9798 14.072C63.9798 13.504 64.1078 12.992 64.3638 12.536C64.6198 12.08 64.9638 11.72 65.3958 11.456C65.8358 11.184 66.3278 11.048 66.8717 11.048C67.3038 11.048 67.7158 11.128 68.1078 11.288C68.4998 11.448 68.8398 11.672 69.1278 11.96L68.5638 12.572C68.3558 12.34 68.1038 12.16 67.8078 12.032C67.5118 11.904 67.2118 11.84 66.9078 11.84C66.5238 11.84 66.1758 11.94 65.8638 12.14C65.5598 12.34 65.3158 12.608 65.1318 12.944C64.9478 13.28 64.8558 13.656 64.8558 14.072C64.8558 14.488 64.9478 14.864 65.1318 15.2C65.3158 15.536 65.5598 15.804 65.8638 16.004C66.1758 16.204 66.5238 16.304 66.9078 16.304C67.2118 16.304 67.5118 16.24 67.8078 16.112C68.1038 15.976 68.3558 15.796 68.5638 15.572L69.1278 16.184C68.8398 16.472 68.4998 16.696 68.1078 16.856C67.7158 17.016 67.3038 17.096 66.8717 17.096ZM70.3492 17V8.336L71.2252 8.156V13.772L74.0092 11.144H75.0652L72.0892 13.928L75.1972 17H74.0452L71.2252 14.204V17H70.3492ZM81.2531 17.12C80.7491 17.12 80.3651 17 80.1011 16.76C79.8451 16.512 79.7171 16.156 79.7171 15.692V11.864H78.5051V11.144H79.7171V9.536L80.5931 9.332V11.144H82.2731V11.864H80.5931V15.464C80.5931 15.776 80.6571 16 80.7851 16.136C80.9211 16.272 81.1411 16.34 81.4451 16.34C81.5971 16.34 81.7331 16.328 81.8531 16.304C81.9731 16.28 82.1131 16.24 82.2731 16.184V16.964C82.1131 17.02 81.9451 17.06 81.7691 17.084C81.5931 17.108 81.4211 17.12 81.2531 17.12ZM86.0311 17.096C85.4871 17.096 84.9991 16.964 84.5671 16.7C84.1351 16.436 83.7951 16.076 83.5471 15.62C83.2991 15.164 83.1751 14.648 83.1751 14.072C83.1751 13.496 83.2991 12.98 83.5471 12.524C83.7951 12.068 84.1351 11.708 84.5671 11.444C84.9991 11.18 85.4871 11.048 86.0311 11.048C86.5671 11.048 87.0471 11.18 87.4711 11.444C87.9031 11.708 88.2431 12.068 88.4911 12.524C88.7391 12.98 88.8631 13.496 88.8631 14.072C88.8631 14.648 88.7391 15.164 88.4911 15.62C88.2431 16.076 87.9031 16.436 87.4711 16.7C87.0471 16.964 86.5671 17.096 86.0311 17.096ZM86.0191 16.328C86.4031 16.328 86.7431 16.232 87.0391 16.04C87.3351 15.84 87.5671 15.568 87.7351 15.224C87.9111 14.88 87.9991 14.496 87.9991 14.072C87.9991 13.64 87.9111 13.256 87.7351 12.92C87.5671 12.576 87.3351 12.308 87.0391 12.116C86.7431 11.916 86.4031 11.816 86.0191 11.816C85.6351 11.816 85.2951 11.916 84.9991 12.116C84.7031 12.308 84.4671 12.576 84.2911 12.92C84.1231 13.256 84.0391 13.64 84.0391 14.072C84.0391 14.496 84.1231 14.88 84.2911 15.224C84.4671 15.568 84.7031 15.84 84.9991 16.04C85.2951 16.232 85.6351 16.328 86.0191 16.328ZM95.4328 17.12C94.9288 17.12 94.5448 17 94.2808 16.76C94.0248 16.512 93.8968 16.156 93.8968 15.692V11.864H92.6848V11.144H93.8968V9.536L94.7728 9.332V11.144H96.4528V11.864H94.7728V15.464C94.7728 15.776 94.8368 16 94.9648 16.136C95.1008 16.272 95.3208 16.34 95.6248 16.34C95.7768 16.34 95.9128 16.328 96.0328 16.304C96.1528 16.28 96.2928 16.24 96.4528 16.184V16.964C96.2928 17.02 96.1248 17.06 95.9488 17.084C95.7728 17.108 95.6008 17.12 95.4328 17.12ZM100.211 17.096C99.6668 17.096 99.1788 16.964 98.7468 16.7C98.3148 16.436 97.9748 16.076 97.7268 15.62C97.4788 15.164 97.3548 14.648 97.3548 14.072C97.3548 13.496 97.4788 12.98 97.7268 12.524C97.9748 12.068 98.3148 11.708 98.7468 11.444C99.1788 11.18 99.6668 11.048 100.211 11.048C100.747 11.048 101.227 11.18 101.651 11.444C102.083 11.708 102.423 12.068 102.671 12.524C102.919 12.98 103.043 13.496 103.043 14.072C103.043 14.648 102.919 15.164 102.671 15.62C102.423 16.076 102.083 16.436 101.651 16.7C101.227 16.964 100.747 17.096 100.211 17.096ZM100.199 16.328C100.583 16.328 100.923 16.232 101.219 16.04C101.515 15.84 101.747 15.568 101.915 15.224C102.091 14.88 102.179 14.496 102.179 14.072C102.179 13.64 102.091 13.256 101.915 12.92C101.747 12.576 101.515 12.308 101.219 12.116C100.923 11.916 100.583 11.816 100.199 11.816C99.8148 11.816 99.4748 11.916 99.1788 12.116C98.8828 12.308 98.6468 12.576 98.4708 12.92C98.3028 13.256 98.2188 13.64 98.2188 14.072C98.2188 14.496 98.3028 14.88 98.4708 15.224C98.6468 15.568 98.8828 15.84 99.1788 16.04C99.4748 16.232 99.8148 16.328 100.199 16.328ZM104.58 19.508V11.144H105.444V11.984C105.668 11.688 105.94 11.464 106.26 11.312C106.588 11.152 106.948 11.072 107.34 11.072C107.852 11.072 108.308 11.208 108.708 11.48C109.116 11.744 109.44 12.104 109.68 12.56C109.92 13.008 110.04 13.512 110.04 14.072C110.04 14.632 109.916 15.14 109.668 15.596C109.428 16.052 109.1 16.416 108.684 16.688C108.276 16.952 107.812 17.084 107.292 17.084C106.924 17.084 106.584 17.016 106.272 16.88C105.96 16.736 105.688 16.532 105.456 16.268V19.508H104.58ZM107.124 16.328C107.516 16.328 107.864 16.232 108.168 16.04C108.48 15.84 108.724 15.572 108.9 15.236C109.084 14.892 109.176 14.508 109.176 14.084C109.176 13.652 109.084 13.268 108.9 12.932C108.724 12.596 108.48 12.332 108.168 12.14C107.864 11.94 107.516 11.84 107.124 11.84C106.78 11.84 106.46 11.912 106.164 12.056C105.876 12.192 105.64 12.388 105.456 12.644V15.512C105.648 15.768 105.888 15.968 106.176 16.112C106.472 16.256 106.788 16.328 107.124 16.328Z" fill="white"/>
<g clip-path="url(#clip0_2001_4786)">
<path d="M127 15.5C126.872 15.5 126.744 15.4511 126.646 15.3535L123 11.707L119.353 15.3535C119.158 15.5488 118.842 15.5488 118.646 15.3535C118.451 15.1582 118.451 14.8418 118.646 14.6464L122.47 10.8232C122.762 10.5307 123.238 10.5307 123.53 10.8232L127.353 14.6464C127.549 14.8417 127.549 15.1581 127.353 15.3535C127.256 15.4511 127.128 15.5 127 15.5Z" fill="white"/>
</g>
<circle cx="123" cy="31" r="11" fill="#B300B3"/>
<path d="M122.807 36.154C122.135 36.154 121.505 36.0373 120.917 35.804C120.338 35.5707 119.825 35.2253 119.377 34.768L120.049 34.11C120.459 34.5207 120.879 34.8193 121.309 35.006C121.747 35.1833 122.242 35.272 122.793 35.272C123.269 35.272 123.689 35.188 124.053 35.02C124.426 34.852 124.715 34.6187 124.921 34.32C125.126 34.0213 125.229 33.6807 125.229 33.298C125.229 32.934 125.135 32.612 124.949 32.332C124.771 32.0427 124.524 31.8187 124.207 31.66C123.889 31.5013 123.525 31.422 123.115 31.422H121.953V30.554H123.073C123.605 30.554 124.034 30.3907 124.361 30.064C124.697 29.7373 124.865 29.3127 124.865 28.79C124.865 28.4447 124.771 28.132 124.585 27.852C124.398 27.572 124.141 27.3527 123.815 27.194C123.497 27.026 123.138 26.942 122.737 26.942C122.233 26.942 121.78 27.0353 121.379 27.222C120.987 27.3993 120.585 27.7027 120.175 28.132L119.503 27.46C119.941 26.9933 120.436 26.6433 120.987 26.41C121.537 26.1673 122.125 26.046 122.751 26.046C123.348 26.046 123.88 26.1627 124.347 26.396C124.823 26.6293 125.196 26.9513 125.467 27.362C125.737 27.7633 125.873 28.2207 125.873 28.734C125.873 29.2473 125.705 29.7093 125.369 30.12C125.033 30.5213 124.589 30.8013 124.039 30.96C124.701 31.1093 125.233 31.3987 125.635 31.828C126.036 32.2573 126.237 32.7567 126.237 33.326C126.237 33.8673 126.087 34.3527 125.789 34.782C125.499 35.2113 125.093 35.5473 124.571 35.79C124.057 36.0327 123.469 36.154 122.807 36.154Z" fill="white"/>
<circle cx="78" cy="31" r="11" fill="#B300B3"/>
<path d="M74.8387 36V35.258L78.7587 30.974C79.0667 30.638 79.3047 30.344 79.4727 30.092C79.6501 29.8307 79.7714 29.588 79.8367 29.364C79.9114 29.14 79.9487 28.902 79.9487 28.65C79.9487 28.1553 79.7527 27.7493 79.3607 27.432C78.9781 27.1053 78.4881 26.942 77.8907 26.942C77.4334 26.942 77.0087 27.0307 76.6167 27.208C76.2247 27.3853 75.7861 27.6933 75.3007 28.132L74.7127 27.432C75.2261 26.9653 75.7441 26.62 76.2667 26.396C76.7894 26.1627 77.3354 26.046 77.9047 26.046C78.4927 26.046 79.0154 26.158 79.4727 26.382C79.9301 26.5967 80.2894 26.8953 80.5507 27.278C80.8121 27.6607 80.9427 28.0993 80.9427 28.594C80.9427 28.9207 80.9007 29.224 80.8167 29.504C80.7327 29.7747 80.5834 30.0687 80.3687 30.386C80.1541 30.694 79.8461 31.0673 79.4447 31.506L76.0987 35.132L81.1527 35.118V36H74.8387Z" fill="white"/>
<circle cx="41.5" cy="13" r="3" stroke="#B300B3"/>
<line x1="21" y1="13" x2="39" y2="13" stroke="#B300B3"/>
<circle cx="11" cy="13" r="11" fill="#B300B3"/>
<path d="M7.97873 18V17.118H10.4567V9.292L7.97873 10.384V9.46L10.8347 8.2H11.4647V17.118H14.2927V18H7.97873Z" fill="white"/>
<defs>
<clipPath id="clip0_2001_4786">
<rect width="10" height="10" fill="white" transform="translate(118 8)"/>
</clipPath>
</defs>
</svg>
