<svg xmlns="http://www.w3.org/2000/svg" width="332" height="398" viewBox="0 0 332 398"><defs><style>.a{fill:#faeae8;}.b{fill:none;}.c{fill:#6a6e73;}.d{fill:#7d1007;}.d,.g,.j,.m,.p{font-size:13px;font-family:RedHatText-Medium, Red Hat Text;font-weight:500;letter-spacing:0.01em;}.e{fill:#c9190b;}.f{fill:#fdf7e7;}.g{fill:#795600;}.h{fill:#f0ab00;}.i{fill:#f3faf2;}.j{fill:#1e4f18;}.k{fill:#3e8635;}.l{fill:#e7f1fa;}.m{fill:#002952;}.n{fill:#2b9af3;}.o{fill:#f2f9f9;}.p{fill:#003737;}.q{fill:#009596;}</style></defs><g transform="translate(-424 -2413)"><g transform="translate(424 2755.705)"><rect class="a" width="332" height="55" transform="translate(0 0.295)"/><g transform="translate(301.74 15.986)"><rect class="b" width="14" height="14" transform="translate(0.26 0.309)"/><path class="c" d="M6.719,84.872l2.77-2.77a.871.871,0,0,0,0-1.231l-.616-.616a.871.871,0,0,0-1.231,0l-2.77,2.77L2.1,80.255a.871.871,0,0,0-1.231,0l-.616.616a.871.871,0,0,0,0,1.231l2.77,2.77-2.77,2.77a.871.871,0,0,0,0,1.231l.616.616a.871.871,0,0,0,1.231,0l2.77-2.77,2.77,2.77a.871.871,0,0,0,1.231,0l.616-.616a.871.871,0,0,0,0-1.231Z" transform="translate(2.269 -78.168)"/></g><text class="d" transform="translate(47 32.295)"><tspan x="0" y="0">Process failed due to errors</tspan></text><g transform="translate(15.986 15.986)"><rect class="b" width="23" height="23" transform="translate(0.014 0.309)"/><path class="e" d="M25.539,16.769A8.769,8.769,0,1,1,16.769,8,8.769,8.769,0,0,1,25.539,16.769Zm-8.769,1.768A1.627,1.627,0,1,0,18.4,20.164,1.627,1.627,0,0,0,16.769,18.538Zm-1.544-5.847.262,4.809a.424.424,0,0,0,.424.4h1.717a.424.424,0,0,0,.424-.4l.262-4.809a.424.424,0,0,0-.424-.447H15.649a.424.424,0,0,0-.424.447Z" transform="translate(-5.473 -5.194)"/></g><rect class="e" width="332" height="2" transform="translate(0 0.295)"/></g><g transform="translate(424 2669.779)"><rect class="f" width="332" height="55" transform="translate(0 0.221)"/><g transform="translate(301.74 15.986)"><rect class="b" width="14" height="14" transform="translate(0.26 0.235)"/><path class="c" d="M6.719,84.872l2.77-2.77a.871.871,0,0,0,0-1.231l-.616-.616a.871.871,0,0,0-1.231,0l-2.77,2.77L2.1,80.255a.871.871,0,0,0-1.231,0l-.616.616a.871.871,0,0,0,0,1.231l2.77,2.77-2.77,2.77a.871.871,0,0,0,0,1.231l.616.616a.871.871,0,0,0,1.231,0l2.77-2.77,2.77,2.77a.871.871,0,0,0,1.231,0l.616-.616a.871.871,0,0,0,0-1.231Z" transform="translate(2.269 -77.988)"/></g><text class="g" transform="translate(47 32.221)"><tspan x="0" y="0">Process encountered an error</tspan></text><g transform="translate(15.986 15.986)"><rect class="b" width="23" height="23" transform="translate(0.014 0.235)"/><path class="h" d="M17.341,13.4a1.462,1.462,0,0,1-1.266,2.192H1.463A1.462,1.462,0,0,1,.2,13.4L7.5.73a1.462,1.462,0,0,1,2.532,0L17.341,13.4ZM8.769,10.779a1.4,1.4,0,1,0,1.4,1.4A1.4,1.4,0,0,0,8.769,10.779ZM7.439,5.744l.226,4.141a.365.365,0,0,0,.365.345H9.508a.365.365,0,0,0,.365-.345L10.1,5.744a.365.365,0,0,0-.365-.385H7.8a.365.365,0,0,0-.365.385Z" transform="translate(2.527 3.961)"/></g><rect class="h" width="332" height="2" transform="translate(0 0.221)"/></g><g transform="translate(424 2584.852)"><rect class="i" width="332" height="54" transform="translate(0 0.148)"/><g transform="translate(301.74 14.987)"><rect class="b" width="14" height="14" transform="translate(0.26 0.161)"/><path class="c" d="M6.719,84.872l2.77-2.77a.871.871,0,0,0,0-1.231l-.616-.616a.871.871,0,0,0-1.231,0l-2.77,2.77L2.1,80.255a.871.871,0,0,0-1.231,0l-.616.616a.871.871,0,0,0,0,1.231l2.77,2.77-2.77,2.77a.871.871,0,0,0,0,1.231l.616.616a.871.871,0,0,0,1.231,0l2.77-2.77,2.77,2.77a.871.871,0,0,0,1.231,0l.616-.616a.871.871,0,0,0,0-1.231Z" transform="translate(2.269 -77.808)"/></g><text class="j" transform="translate(47 31.148)"><tspan x="0" y="0">Process completed successfully</tspan></text><g transform="translate(15.986 14.987)"><rect class="b" width="23" height="24" transform="translate(0.014 0.161)"/><path class="k" d="M25.539,16.769A8.769,8.769,0,1,1,16.769,8,8.769,8.769,0,0,1,25.539,16.769Zm-9.784,4.643,6.506-6.506a.566.566,0,0,0,0-.8l-.8-.8a.566.566,0,0,0-.8,0l-5.306,5.306-2.477-2.477a.566.566,0,0,0-.8,0l-.8.8a.566.566,0,0,0,0,.8l3.678,3.678a.566.566,0,0,0,.8,0Z" transform="translate(-5.473 -4.834)"/></g><rect class="k" width="332" height="2" transform="translate(0 0.148)"/></g><g transform="translate(424 2498.926)"><rect class="l" width="332" height="54" transform="translate(0 0.074)"/><g transform="translate(301.74 14.987)"><rect class="b" width="14" height="14" transform="translate(0.26 0.087)"/><path class="c" d="M6.719,84.872l2.77-2.77a.871.871,0,0,0,0-1.231l-.616-.616a.871.871,0,0,0-1.231,0l-2.77,2.77L2.1,80.255a.871.871,0,0,0-1.231,0l-.616.616a.871.871,0,0,0,0,1.231l2.77,2.77-2.77,2.77a.871.871,0,0,0,0,1.231l.616.616a.871.871,0,0,0,1.231,0l2.77-2.77,2.77,2.77a.871.871,0,0,0,1.231,0l.616-.616a.871.871,0,0,0,0-1.231Z" transform="translate(2.269 -77.628)"/></g><text class="m" transform="translate(47 31.074)"><tspan x="0" y="0">For your information</tspan></text><g transform="translate(15.986 14.987)"><rect class="b" width="23" height="24" transform="translate(0.014 0.087)"/><path class="n" d="M16.769,8a8.769,8.769,0,1,0,8.769,8.769A8.771,8.771,0,0,0,16.769,8Zm0,3.89a1.485,1.485,0,1,1-1.485,1.485A1.485,1.485,0,0,1,16.769,11.89Zm1.98,8.982a.424.424,0,0,1-.424.424H15.214a.424.424,0,0,1-.424-.424v-.849a.424.424,0,0,1,.424-.424h.424V17.335h-.424a.424.424,0,0,1-.424-.424v-.849a.424.424,0,0,1,.424-.424h2.263a.424.424,0,0,1,.424.424V19.6h.424a.424.424,0,0,1,.424.424Z" transform="translate(-5.473 -4.654)"/></g><rect class="n" width="332" height="2" transform="translate(0 0.074)"/></g><g transform="translate(424 2413)"><rect class="o" width="332" height="55"/><g transform="translate(301.74 15.986)"><rect class="b" width="14" height="13" transform="translate(0.26 0.014)"/><path class="c" d="M6.719,84.872l2.77-2.77a.871.871,0,0,0,0-1.231l-.616-.616a.871.871,0,0,0-1.231,0l-2.77,2.77L2.1,80.255a.871.871,0,0,0-1.231,0l-.616.616a.871.871,0,0,0,0,1.231l2.77,2.77-2.77,2.77a.871.871,0,0,0,0,1.231l.616.616a.871.871,0,0,0,1.231,0l2.77-2.77,2.77,2.77a.871.871,0,0,0,1.231,0l.616-.616a.871.871,0,0,0,0-1.231Z" transform="translate(2.269 -78.447)"/></g><text class="p" transform="translate(47 32)"><tspan x="0" y="0">Something you should know</tspan></text><g transform="translate(15.986 15.986)"><rect class="b" width="23" height="23" transform="translate(0.014 0.014)"/><path class="q" d="M7.673,17.539a2.192,2.192,0,0,0,2.191-2.192H5.481A2.192,2.192,0,0,0,7.673,17.539Zm7.378-5.128c-.662-.711-1.9-1.781-1.9-5.285A5.41,5.41,0,0,0,8.768,1.81V1.1a1.1,1.1,0,1,0-2.191,0V1.81A5.41,5.41,0,0,0,2.194,7.125c0,3.5-1.238,4.574-1.9,5.285A1.07,1.07,0,0,0,0,13.154a1.1,1.1,0,0,0,1.1,1.1H14.246a1.1,1.1,0,0,0,1.1-1.1A1.07,1.07,0,0,0,15.051,12.411Z" transform="translate(3.502 2.527)"/></g><rect class="q" width="332" height="2"/></g></g></svg>