<svg xmlns="http://www.w3.org/2000/svg" width="589.863" height="145.786" viewBox="0 0 589.863 145.786"><g transform="translate(-564.393 -775)"><rect width="555" height="113" transform="translate(596 775)" fill="#f5f5f5"/><g transform="translate(265 543)"><rect width="14" height="14" transform="translate(856 248)" fill="none"/><path d="M6.9,85l2.843-2.843a.894.894,0,0,0,0-1.264l-.632-.632a.894.894,0,0,0-1.264,0L5,83.1,2.157,80.262a.894.894,0,0,0-1.264,0l-.632.632a.894.894,0,0,0,0,1.264L3.1,85,.262,87.843a.894.894,0,0,0,0,1.264l.632.632a.894.894,0,0,0,1.264,0L5,86.9l2.843,2.843a.894.894,0,0,0,1.264,0l.632-.632a.894.894,0,0,0,0-1.264Z" transform="translate(858 170)" fill="#8a8d90"/></g><path d="M.392-1.61A5.528,5.528,0,0,0,4.4.14C6.8.14,8.134-1.246,8.134-2.814c0-1.442-.84-2.254-2.982-2.632L3.584-5.712c-1.2-.21-1.848-.588-1.848-1.554,0-1.218,1.176-1.75,2.338-1.75a5.194,5.194,0,0,1,3.262,1.19l.63-.812A6.2,6.2,0,0,0,4.1-9.926c-1.792,0-3.4.9-3.4,2.744,0,1.386.826,2.128,2.59,2.436l1.582.266c1.582.28,2.184.742,2.184,1.722,0,1.092-1.008,1.974-2.618,1.974A4.719,4.719,0,0,1,1.064-2.366Zm10.024.07c0,1.064.6,1.666,1.792,1.666a4.124,4.124,0,0,0,1.2-.182v-.91a2.521,2.521,0,0,1-.966.182c-.728,0-1.008-.294-1.008-1.022V-5.992h1.974v-.84H11.438V-8.806l-1.022.238v1.736H9v.84h1.414ZM17.108.126a2.906,2.906,0,0,0,2.17-.91V0h1.008V-4.536c0-1.582-.98-2.408-2.646-2.408a5.722,5.722,0,0,0-2.576.658l.392.784a4.407,4.407,0,0,1,2.058-.588c1.148,0,1.764.546,1.764,1.694v.924a4.1,4.1,0,0,0-2.072-.518c-1.484,0-2.562.756-2.562,2.016A2.2,2.2,0,0,0,17.108.126ZM15.624-1.988c0-.8.728-1.274,1.722-1.274a3.545,3.545,0,0,1,1.932.5v1.316a2.726,2.726,0,0,1-1.96.784C16.324-.658,15.624-1.19,15.624-1.988ZM22.456,0h1.022V-4.676a1.921,1.921,0,0,1,1.834-1.386,2.422,2.422,0,0,1,.714.126V-6.86a2.01,2.01,0,0,0-.644-.1,2.031,2.031,0,0,0-1.9,1.484V-6.832H22.456Zm6.02-1.54c0,1.064.6,1.666,1.792,1.666a4.124,4.124,0,0,0,1.2-.182v-.91a2.521,2.521,0,0,1-.966.182c-.728,0-1.008-.294-1.008-1.022V-5.992h1.974v-.84H29.5V-8.806l-1.022.238v1.736H27.062v.84h1.414Zm7.672-1.876A3.384,3.384,0,0,0,39.466.14a3.389,3.389,0,0,0,3.346-3.556,3.365,3.365,0,0,0-3.346-3.528A3.359,3.359,0,0,0,36.148-3.416ZM41.79-3.4A2.412,2.412,0,0,1,39.466-.77,2.4,2.4,0,0,1,37.17-3.4a2.421,2.421,0,0,1,2.3-2.646A2.424,2.424,0,0,1,41.79-3.4ZM46.452,0h.966l2.814-6.832H49.14L46.956-1.288,44.772-6.832H43.638Zm4.62-3.416A3.418,3.418,0,0,0,54.46.126a3.935,3.935,0,0,0,2.562-.91l-.644-.7a2.792,2.792,0,0,1-1.876.7A2.459,2.459,0,0,1,52.08-3.206h5.362V-3.5a3.236,3.236,0,0,0-3.136-3.444A3.336,3.336,0,0,0,51.072-3.416Zm3.22-2.632A2.25,2.25,0,0,1,56.42-3.92H52.108A2.258,2.258,0,0,1,54.292-6.048ZM59.262,0h1.022V-4.676a1.921,1.921,0,0,1,1.834-1.386,2.422,2.422,0,0,1,.714.126V-6.86a2.01,2.01,0,0,0-.644-.1,2.031,2.031,0,0,0-1.9,1.484V-6.832H59.262Z" transform="translate(726 868)" fill="#8a8d90"/><path d="M.392-8.848H3.78V0H4.858V-8.848H8.232V-9.8H.392ZM9.114,0h1.022V-4.676A1.921,1.921,0,0,1,11.97-6.062a2.422,2.422,0,0,1,.714.126V-6.86a2.01,2.01,0,0,0-.644-.1,2.031,2.031,0,0,0-1.9,1.484V-6.832H9.114ZM15.82.952c-.28.7-.644.868-1.106.868a3.447,3.447,0,0,1-.56-.056v.91a2.247,2.247,0,0,0,.658.1c1.022,0,1.54-.434,1.96-1.512L20.1-6.832h-1.12L16.786-1.2,14.714-6.832H13.566L16.212-.014ZM27.062.126a2.906,2.906,0,0,0,2.17-.91V0H30.24V-4.536c0-1.582-.98-2.408-2.646-2.408a5.722,5.722,0,0,0-2.576.658l.392.784a4.407,4.407,0,0,1,2.058-.588c1.148,0,1.764.546,1.764,1.694v.924A4.1,4.1,0,0,0,27.16-3.99c-1.484,0-2.562.756-2.562,2.016A2.2,2.2,0,0,0,27.062.126ZM25.578-1.988c0-.8.728-1.274,1.722-1.274a3.545,3.545,0,0,1,1.932.5v1.316a2.726,2.726,0,0,1-1.96.784C26.278-.658,25.578-1.19,25.578-1.988ZM35.28.1A2.759,2.759,0,0,0,37.45-.9V.224c0,1.148-.672,1.75-1.9,1.75a4.449,4.449,0,0,1-2.17-.63l-.434.784a5.318,5.318,0,0,0,2.66.714c1.848,0,2.87-.924,2.87-2.632V-6.832H37.464v.868a2.82,2.82,0,0,0-2.128-.952A3.329,3.329,0,0,0,32.116-3.4,3.308,3.308,0,0,0,35.28.1ZM33.138-3.416a2.428,2.428,0,0,1,2.38-2.6,2.462,2.462,0,0,1,1.932.91v3.4a2.36,2.36,0,0,1-1.932.91A2.44,2.44,0,0,1,33.138-3.416ZM42.756.126a2.906,2.906,0,0,0,2.17-.91V0h1.008V-4.536c0-1.582-.98-2.408-2.646-2.408a5.722,5.722,0,0,0-2.576.658L41.1-5.5a4.407,4.407,0,0,1,2.058-.588c1.148,0,1.764.546,1.764,1.694v.924a4.1,4.1,0,0,0-2.072-.518c-1.484,0-2.562.756-2.562,2.016A2.2,2.2,0,0,0,42.756.126ZM41.272-1.988c0-.8.728-1.274,1.722-1.274a3.545,3.545,0,0,1,1.932.5v1.316a2.726,2.726,0,0,1-1.96.784C41.972-.658,41.272-1.19,41.272-1.988Zm7.35-6.566A.726.726,0,0,0,49.35-9.3a.723.723,0,0,0-.728-.728.723.723,0,0,0-.728.728A.726.726,0,0,0,48.622-8.554Zm.5,1.722H48.1V0h1.022ZM51.3,0h1.022V-5.04A2.03,2.03,0,0,1,54.11-6.09a1.771,1.771,0,0,1,1.834,1.96V0h1.022V-4.424A2.382,2.382,0,0,0,54.5-6.944a2.462,2.462,0,0,0-2.184,1.232v-1.12H51.3Z" transform="translate(644 868)" fill="#8a8d90"/><path d="M.252,0h1.12L2.548-3.08H6.9L8.064,0H9.24L5.418-9.8H4.13Zm2.66-4,1.82-4.76L6.552-4Zm11.13,6.79h1.022V-.868A2.748,2.748,0,0,0,17.206.1a3.329,3.329,0,0,0,3.22-3.514,3.308,3.308,0,0,0-3.164-3.5A2.7,2.7,0,0,0,15.05-5.852v-.98H14.042ZM17.01-6.02A2.451,2.451,0,0,1,19.4-3.4,2.443,2.443,0,0,1,17.01-.784a2.421,2.421,0,0,1-1.946-.952V-5.082A2.352,2.352,0,0,1,17.01-6.02ZM22.288,0H23.31V-4.676a1.921,1.921,0,0,1,1.834-1.386,2.422,2.422,0,0,1,.714.126V-6.86a2.01,2.01,0,0,0-.644-.1,2.031,2.031,0,0,0-1.9,1.484V-6.832H22.288Zm4.256-3.416A3.384,3.384,0,0,0,29.862.14a3.389,3.389,0,0,0,3.346-3.556,3.365,3.365,0,0,0-3.346-3.528A3.359,3.359,0,0,0,26.544-3.416Zm5.642.014A2.412,2.412,0,0,1,29.862-.77a2.4,2.4,0,0,1-2.3-2.632,2.421,2.421,0,0,1,2.3-2.646A2.424,2.424,0,0,1,32.186-3.4Zm9.268-.014a3.308,3.308,0,0,0-3.164-3.5,2.705,2.705,0,0,0-2.2,1.036v-4.13L35.07-9.8V0h1.008V-.9A2.7,2.7,0,0,0,38.234.1,3.329,3.329,0,0,0,41.454-3.416Zm-3.416-2.6A2.451,2.451,0,0,1,40.432-3.4,2.443,2.443,0,0,1,38.038-.784a2.421,2.421,0,0,1-1.946-.952V-5.082A2.352,2.352,0,0,1,38.038-6.02Zm6.3-3.99-1.022.21V0h1.022Zm1.876,6.594A3.418,3.418,0,0,0,49.6.126a3.935,3.935,0,0,0,2.562-.91l-.644-.7a2.792,2.792,0,0,1-1.876.7,2.459,2.459,0,0,1-2.422-2.422h5.362V-3.5a3.236,3.236,0,0,0-3.136-3.444A3.336,3.336,0,0,0,46.214-3.416Zm3.22-2.632A2.25,2.25,0,0,1,51.562-3.92H47.25A2.258,2.258,0,0,1,49.434-6.048ZM54.4,0h1.022V-5.082A1.9,1.9,0,0,1,57.092-6.09a1.7,1.7,0,0,1,1.694,1.932V0h1.022V-4.41a2.834,2.834,0,0,0-.056-.6A1.921,1.921,0,0,1,61.46-6.09c1.064,0,1.68.756,1.68,1.932V0h1.036V-4.41a2.335,2.335,0,0,0-2.338-2.534,2.551,2.551,0,0,0-2.282,1.33,2.24,2.24,0,0,0-2.086-1.33,2.338,2.338,0,0,0-2.044,1.176V-6.832H54.4ZM71.988,0l1.624-5.516L75.236,0h.994l1.876-6.832h-.98l-1.414,5.46-1.638-5.46h-.91L71.54-1.358,70.112-6.832H69.1L70.98,0ZM81.76.126a2.906,2.906,0,0,0,2.17-.91V0h1.008V-4.536c0-1.582-.98-2.408-2.646-2.408a5.722,5.722,0,0,0-2.576.658l.392.784a4.407,4.407,0,0,1,2.058-.588c1.148,0,1.764.546,1.764,1.694v.924a4.1,4.1,0,0,0-2.072-.518c-1.484,0-2.562.756-2.562,2.016A2.2,2.2,0,0,0,81.76.126ZM80.276-1.988c0-.8.728-1.274,1.722-1.274a3.545,3.545,0,0,1,1.932.5v1.316a2.726,2.726,0,0,1-1.96.784C80.976-.658,80.276-1.19,80.276-1.988ZM86.464-.952A3.788,3.788,0,0,0,89.25.126c1.54,0,2.66-.952,2.646-2.114.014-1.036-.644-1.6-1.988-1.834l-1.134-.21c-.84-.154-1.19-.392-1.19-.98,0-.672.63-1.092,1.484-1.092a3.45,3.45,0,0,1,2.114.77l.546-.7a4.251,4.251,0,0,0-2.618-.91c-1.442,0-2.464.84-2.464,2,0,1.022.658,1.568,1.932,1.792l1.134.2c.854.154,1.218.448,1.218,1.022,0,.672-.616,1.232-1.722,1.232a3.059,3.059,0,0,1-2.156-.9ZM96.628-3.416A3.418,3.418,0,0,0,100.016.126a3.935,3.935,0,0,0,2.562-.91l-.644-.7a2.792,2.792,0,0,1-1.876.7,2.459,2.459,0,0,1-2.422-2.422H103V-3.5a3.236,3.236,0,0,0-3.136-3.444A3.336,3.336,0,0,0,96.628-3.416Zm3.22-2.632a2.25,2.25,0,0,1,2.128,2.128H97.664A2.258,2.258,0,0,1,99.848-6.048ZM104.818,0h1.022V-5.04a2.03,2.03,0,0,1,1.792-1.05,1.771,1.771,0,0,1,1.834,1.96V0h1.022V-4.424a2.382,2.382,0,0,0-2.464-2.52,2.462,2.462,0,0,0-2.184,1.232v-1.12h-1.022Zm10.934-.8a2.465,2.465,0,0,1-2.38-2.618,2.478,2.478,0,0,1,2.38-2.6,2.61,2.61,0,0,1,1.876.854l.658-.714a3.628,3.628,0,0,0-2.548-1.064,3.423,3.423,0,0,0-3.388,3.528A3.435,3.435,0,0,0,115.738.126,3.461,3.461,0,0,0,118.244-.98l-.63-.63A2.442,2.442,0,0,1,115.752-.8Zm3.57-2.618A3.384,3.384,0,0,0,122.64.14a3.389,3.389,0,0,0,3.346-3.556,3.365,3.365,0,0,0-3.346-3.528A3.359,3.359,0,0,0,119.322-3.416Zm5.642.014A2.412,2.412,0,0,1,122.64-.77a2.4,2.4,0,0,1-2.3-2.632,2.421,2.421,0,0,1,2.3-2.646A2.424,2.424,0,0,1,124.964-3.4Zm3.906-3.43h-1.022v4.424a2.382,2.382,0,0,0,2.464,2.52A2.462,2.462,0,0,0,132.5-1.12V0h1.022V-6.832H132.5v5.04A2.03,2.03,0,0,1,130.7-.742,1.771,1.771,0,0,1,128.87-2.7ZM135.674,0H136.7V-5.04a2.03,2.03,0,0,1,1.792-1.05,1.771,1.771,0,0,1,1.834,1.96V0h1.022V-4.424a2.382,2.382,0,0,0-2.464-2.52A2.462,2.462,0,0,0,136.7-5.712v-1.12h-1.022Zm8.372-1.54c0,1.064.6,1.666,1.792,1.666a4.124,4.124,0,0,0,1.2-.182v-.91a2.521,2.521,0,0,1-.966.182c-.728,0-1.008-.294-1.008-1.022V-5.992h1.974v-.84h-1.974V-8.806l-1.022.238v1.736h-1.414v.84h1.414Zm4.046-1.876A3.418,3.418,0,0,0,151.48.126a3.935,3.935,0,0,0,2.562-.91l-.644-.7a2.792,2.792,0,0,1-1.876.7A2.459,2.459,0,0,1,149.1-3.206h5.362V-3.5a3.236,3.236,0,0,0-3.136-3.444A3.336,3.336,0,0,0,148.092-3.416Zm3.22-2.632A2.25,2.25,0,0,1,153.44-3.92h-4.312A2.258,2.258,0,0,1,151.312-6.048ZM156.282,0H157.3V-4.676a1.921,1.921,0,0,1,1.834-1.386,2.422,2.422,0,0,1,.714.126V-6.86a2.01,2.01,0,0,0-.644-.1,2.031,2.031,0,0,0-1.9,1.484V-6.832h-1.022Zm4.256-3.416A3.418,3.418,0,0,0,163.926.126a3.935,3.935,0,0,0,2.562-.91l-.644-.7a2.792,2.792,0,0,1-1.876.7,2.459,2.459,0,0,1-2.422-2.422h5.362V-3.5a3.236,3.236,0,0,0-3.136-3.444A3.336,3.336,0,0,0,160.538-3.416Zm3.22-2.632a2.25,2.25,0,0,1,2.128,2.128h-4.312A2.258,2.258,0,0,1,163.758-6.048ZM173.8,0h1.022V-10.01l-1.036.21v3.822a2.8,2.8,0,0,0-2.114-.938,3.329,3.329,0,0,0-3.22,3.514A3.308,3.308,0,0,0,171.612.1,2.747,2.747,0,0,0,173.8-.924ZM169.47-3.416a2.428,2.428,0,0,1,2.38-2.6,2.462,2.462,0,0,1,1.932.91v3.4a2.36,2.36,0,0,1-1.932.91A2.44,2.44,0,0,1,169.47-3.416ZM183.484-.8a2.465,2.465,0,0,1-2.38-2.618,2.478,2.478,0,0,1,2.38-2.6,2.61,2.61,0,0,1,1.876.854l.658-.714a3.628,3.628,0,0,0-2.548-1.064,3.423,3.423,0,0,0-3.388,3.528A3.435,3.435,0,0,0,183.47.126,3.461,3.461,0,0,0,185.976-.98l-.63-.63A2.442,2.442,0,0,1,183.484-.8Zm4.144.8h1.022V-4.676a1.921,1.921,0,0,1,1.834-1.386,2.422,2.422,0,0,1,.714.126V-6.86a2.01,2.01,0,0,0-.644-.1,2.031,2.031,0,0,0-1.9,1.484V-6.832h-1.022Zm4.256-3.416A3.418,3.418,0,0,0,195.272.126a3.935,3.935,0,0,0,2.562-.91l-.644-.7a2.792,2.792,0,0,1-1.876.7,2.459,2.459,0,0,1-2.422-2.422h5.362V-3.5a3.236,3.236,0,0,0-3.136-3.444A3.336,3.336,0,0,0,191.884-3.416Zm3.22-2.632a2.25,2.25,0,0,1,2.128,2.128H192.92A2.258,2.258,0,0,1,195.1-6.048ZM202.09.126a2.906,2.906,0,0,0,2.17-.91V0h1.008V-4.536c0-1.582-.98-2.408-2.646-2.408a5.722,5.722,0,0,0-2.576.658l.392.784A4.408,4.408,0,0,1,202.5-6.09c1.148,0,1.764.546,1.764,1.694v.924a4.1,4.1,0,0,0-2.072-.518c-1.484,0-2.562.756-2.562,2.016A2.2,2.2,0,0,0,202.09.126Zm-1.484-2.114c0-.8.728-1.274,1.722-1.274a3.545,3.545,0,0,1,1.932.5v1.316a2.726,2.726,0,0,1-1.96.784C201.306-.658,200.606-1.19,200.606-1.988Zm7.378.448c0,1.064.6,1.666,1.792,1.666a4.124,4.124,0,0,0,1.2-.182v-.91a2.521,2.521,0,0,1-.966.182c-.728,0-1.008-.294-1.008-1.022V-5.992h1.974v-.84h-1.974V-8.806l-1.022.238v1.736H206.57v.84h1.414Zm5.082-7.014a.726.726,0,0,0,.728-.742.723.723,0,0,0-.728-.728.723.723,0,0,0-.728.728A.726.726,0,0,0,213.066-8.554Zm.5,1.722h-1.022V0h1.022ZM215.74,0h1.022V-5.04a2.03,2.03,0,0,1,1.792-1.05,1.771,1.771,0,0,1,1.834,1.96V0h1.022V-4.424a2.382,2.382,0,0,0-2.464-2.52,2.462,2.462,0,0,0-2.184,1.232v-1.12H215.74Zm10.7.1a2.759,2.759,0,0,0,2.17-.994V.224c0,1.148-.672,1.75-1.9,1.75a4.448,4.448,0,0,1-2.17-.63l-.434.784a5.318,5.318,0,0,0,2.66.714c1.848,0,2.87-.924,2.87-2.632V-6.832H228.62v.868a2.82,2.82,0,0,0-2.128-.952,3.329,3.329,0,0,0-3.22,3.514A3.308,3.308,0,0,0,226.436.1Zm-2.142-3.514a2.428,2.428,0,0,1,2.38-2.6,2.462,2.462,0,0,1,1.932.91v3.4a2.36,2.36,0,0,1-1.932.91A2.44,2.44,0,0,1,224.294-3.416ZM237.314.126a2.906,2.906,0,0,0,2.17-.91V0h1.008V-4.536c0-1.582-.98-2.408-2.646-2.408a5.722,5.722,0,0,0-2.576.658l.392.784a4.408,4.408,0,0,1,2.058-.588c1.148,0,1.764.546,1.764,1.694v.924a4.1,4.1,0,0,0-2.072-.518c-1.484,0-2.562.756-2.562,2.016A2.2,2.2,0,0,0,237.314.126ZM235.83-1.988c0-.8.728-1.274,1.722-1.274a3.545,3.545,0,0,1,1.932.5v1.316a2.726,2.726,0,0,1-1.96.784C236.53-.658,235.83-1.19,235.83-1.988ZM242.662,0h1.022V-5.04a2.03,2.03,0,0,1,1.792-1.05,1.771,1.771,0,0,1,1.834,1.96V0h1.022V-4.424a2.382,2.382,0,0,0-2.464-2.52,2.462,2.462,0,0,0-2.184,1.232v-1.12h-1.022Zm13.356.126a2.906,2.906,0,0,0,2.17-.91V0H259.2V-4.536c0-1.582-.98-2.408-2.646-2.408a5.722,5.722,0,0,0-2.576.658l.392.784a4.408,4.408,0,0,1,2.058-.588c1.148,0,1.764.546,1.764,1.694v.924a4.1,4.1,0,0,0-2.072-.518c-1.484,0-2.562.756-2.562,2.016A2.2,2.2,0,0,0,256.018.126Zm-1.484-2.114c0-.8.728-1.274,1.722-1.274a3.545,3.545,0,0,1,1.932.5v1.316a2.726,2.726,0,0,1-1.96.784C255.234-.658,254.534-1.19,254.534-1.988Zm9.94,1.19a2.465,2.465,0,0,1-2.38-2.618,2.478,2.478,0,0,1,2.38-2.6,2.61,2.61,0,0,1,1.876.854l.658-.714a3.628,3.628,0,0,0-2.548-1.064,3.423,3.423,0,0,0-3.388,3.528A3.435,3.435,0,0,0,264.46.126,3.461,3.461,0,0,0,266.966-.98l-.63-.63A2.442,2.442,0,0,1,264.474-.8Zm6.972,0a2.465,2.465,0,0,1-2.38-2.618,2.478,2.478,0,0,1,2.38-2.6,2.61,2.61,0,0,1,1.876.854l.658-.714a3.628,3.628,0,0,0-2.548-1.064,3.423,3.423,0,0,0-3.388,3.528A3.435,3.435,0,0,0,271.432.126,3.461,3.461,0,0,0,273.938-.98l-.63-.63A2.442,2.442,0,0,1,271.446-.8Zm3.57-2.618A3.384,3.384,0,0,0,278.334.14a3.389,3.389,0,0,0,3.346-3.556,3.365,3.365,0,0,0-3.346-3.528A3.359,3.359,0,0,0,275.016-3.416Zm5.642.014A2.412,2.412,0,0,1,278.334-.77a2.4,2.4,0,0,1-2.3-2.632,2.421,2.421,0,0,1,2.3-2.646A2.424,2.424,0,0,1,280.658-3.4Zm3.906-3.43h-1.022v4.424a2.382,2.382,0,0,0,2.464,2.52A2.462,2.462,0,0,0,288.19-1.12V0h1.022V-6.832H288.19v5.04A2.03,2.03,0,0,1,286.4-.742a1.771,1.771,0,0,1-1.834-1.96ZM291.368,0h1.022V-5.04a2.03,2.03,0,0,1,1.792-1.05,1.771,1.771,0,0,1,1.834,1.96V0h1.022V-4.424a2.382,2.382,0,0,0-2.464-2.52,2.462,2.462,0,0,0-2.184,1.232v-1.12h-1.022Zm8.372-1.54c0,1.064.6,1.666,1.792,1.666a4.124,4.124,0,0,0,1.2-.182v-.91a2.521,2.521,0,0,1-.966.182c-.728,0-1.008-.294-1.008-1.022V-5.992h1.974v-.84h-1.974V-8.806l-1.022.238v1.736h-1.414v.84h1.414ZM309.96,0l1.624-5.516L313.208,0h.994l1.876-6.832h-.98l-1.414,5.46-1.638-5.46h-.91l-1.624,5.474-1.428-5.474h-1.008L308.952,0Zm8.162-8.554a.726.726,0,0,0,.728-.742.723.723,0,0,0-.728-.728.723.723,0,0,0-.728.728A.726.726,0,0,0,318.122-8.554Zm.5,1.722H317.6V0h1.022Zm3,5.292c0,1.064.6,1.666,1.792,1.666a4.124,4.124,0,0,0,1.2-.182v-.91a2.521,2.521,0,0,1-.966.182c-.728,0-1.008-.294-1.008-1.022V-5.992h1.974v-.84h-1.974V-8.806l-1.022.238v1.736h-1.414v.84h1.414ZM330.834,0h1.022V-4.424a2.382,2.382,0,0,0-2.464-2.52,2.462,2.462,0,0,0-2.184,1.232v-4.3l-1.022.21V0h1.022V-5.04A2.03,2.03,0,0,1,329-6.09a1.771,1.771,0,0,1,1.834,1.96Zm8.092.952c-.28.7-.644.868-1.106.868a3.447,3.447,0,0,1-.56-.056v.91a2.247,2.247,0,0,0,.658.1c1.022,0,1.54-.434,1.96-1.512l3.332-8.092h-1.12l-2.2,5.628L337.82-6.832h-1.148l2.646,6.818Zm5.138-4.368A3.384,3.384,0,0,0,347.382.14a3.389,3.389,0,0,0,3.346-3.556,3.365,3.365,0,0,0-3.346-3.528A3.359,3.359,0,0,0,344.064-3.416Zm5.642.014A2.412,2.412,0,0,1,347.382-.77a2.4,2.4,0,0,1-2.3-2.632,2.421,2.421,0,0,1,2.3-2.646A2.424,2.424,0,0,1,349.706-3.4Zm3.906-3.43H352.59v4.424a2.382,2.382,0,0,0,2.464,2.52,2.462,2.462,0,0,0,2.184-1.232V0h1.022V-6.832h-1.022v5.04a2.03,2.03,0,0,1-1.792,1.05,1.771,1.771,0,0,1-1.834-1.96ZM360.416,0h1.022V-4.676a1.921,1.921,0,0,1,1.834-1.386,2.422,2.422,0,0,1,.714.126V-6.86a2.01,2.01,0,0,0-.644-.1,2.031,2.031,0,0,0-1.9,1.484V-6.832h-1.022Zm8.974-8.554a.726.726,0,0,0,.728-.742.723.723,0,0,0-.728-.728.723.723,0,0,0-.728.728A.726.726,0,0,0,369.39-8.554Zm.5,1.722h-1.022V0h1.022ZM372.064,0h1.022V-5.04a2.03,2.03,0,0,1,1.792-1.05,1.771,1.771,0,0,1,1.834,1.96V0h1.022V-4.424a2.382,2.382,0,0,0-2.464-2.52,2.462,2.462,0,0,0-2.184,1.232v-1.12h-1.022Zm6.9-6.832v.84h1.526V0h1.022V-5.992h1.96v-.84h-1.96V-7.9c0-.826.364-1.19,1.12-1.19a2.5,2.5,0,0,1,.84.126v-.924a3.206,3.206,0,0,0-.924-.126,1.879,1.879,0,0,0-2.058,2.1v1.078Zm5.264,3.416A3.384,3.384,0,0,0,387.548.14a3.389,3.389,0,0,0,3.346-3.556,3.365,3.365,0,0,0-3.346-3.528A3.359,3.359,0,0,0,384.23-3.416Zm5.642.014A2.412,2.412,0,0,1,387.548-.77a2.4,2.4,0,0,1-2.3-2.632,2.421,2.421,0,0,1,2.3-2.646A2.424,2.424,0,0,1,389.872-3.4ZM392.756,0h1.022V-4.676a1.921,1.921,0,0,1,1.834-1.386,2.422,2.422,0,0,1,.714.126V-6.86a2.01,2.01,0,0,0-.644-.1,2.031,2.031,0,0,0-1.9,1.484V-6.832h-1.022Zm5.054,0h1.022V-5.082A1.9,1.9,0,0,1,400.5-6.09a1.7,1.7,0,0,1,1.694,1.932V0h1.022V-4.41a2.832,2.832,0,0,0-.056-.6,1.921,1.921,0,0,1,1.708-1.078c1.064,0,1.68.756,1.68,1.932V0h1.036V-4.41a2.335,2.335,0,0,0-2.338-2.534,2.551,2.551,0,0,0-2.282,1.33,2.24,2.24,0,0,0-2.086-1.33,2.338,2.338,0,0,0-2.044,1.176V-6.832H397.81Zm14.056.126a2.906,2.906,0,0,0,2.17-.91V0h1.008V-4.536c0-1.582-.98-2.408-2.646-2.408a5.722,5.722,0,0,0-2.576.658l.392.784a4.407,4.407,0,0,1,2.058-.588c1.148,0,1.764.546,1.764,1.694v.924a4.1,4.1,0,0,0-2.072-.518c-1.484,0-2.562.756-2.562,2.016A2.2,2.2,0,0,0,411.866.126Zm-1.484-2.114c0-.8.728-1.274,1.722-1.274a3.545,3.545,0,0,1,1.932.5v1.316a2.726,2.726,0,0,1-1.96.784C411.082-.658,410.382-1.19,410.382-1.988Zm7.378.448c0,1.064.6,1.666,1.792,1.666a4.124,4.124,0,0,0,1.2-.182v-.91a2.521,2.521,0,0,1-.966.182c-.728,0-1.008-.294-1.008-1.022V-5.992h1.974v-.84h-1.974V-8.806l-1.022.238v1.736h-1.414v.84h1.414Zm5.082-7.014a.726.726,0,0,0,.728-.742.723.723,0,0,0-.728-.728.723.723,0,0,0-.728.728A.726.726,0,0,0,422.842-8.554Zm.5,1.722h-1.022V0h1.022Zm1.876,3.416A3.384,3.384,0,0,0,428.54.14a3.389,3.389,0,0,0,3.346-3.556,3.365,3.365,0,0,0-3.346-3.528A3.359,3.359,0,0,0,425.222-3.416Zm5.642.014A2.412,2.412,0,0,1,428.54-.77a2.4,2.4,0,0,1-2.3-2.632,2.421,2.421,0,0,1,2.3-2.646A2.424,2.424,0,0,1,430.864-3.4ZM433.748,0h1.022V-5.04a2.03,2.03,0,0,1,1.792-1.05A1.771,1.771,0,0,1,438.4-4.13V0h1.022V-4.424a2.382,2.382,0,0,0-2.464-2.52,2.462,2.462,0,0,0-2.184,1.232v-1.12h-1.022Zm8.358-1.414a.753.753,0,0,0-.742.77.75.75,0,0,0,.742.756.747.747,0,0,0,.728-.756A.751.751,0,0,0,442.106-1.414Z" transform="translate(644 834)" fill="#8a8d90"/><path d="M.182,0h1.75L2.954-2.744h3.99L7.952,0H9.786L5.978-9.8H4.032Zm3.29-4.13,1.5-4.032L6.44-4.13Zm10.5,2.87a2.094,2.094,0,0,1-2.03-2.24A2.088,2.088,0,0,1,13.93-5.74a2.277,2.277,0,0,1,1.722.826l.98-1.022A3.693,3.693,0,0,0,13.9-7.112,3.527,3.527,0,0,0,10.36-3.5,3.551,3.551,0,0,0,13.9.14a3.611,3.611,0,0,0,2.674-1.218l-.952-.952A2.084,2.084,0,0,1,13.972-1.26Zm7.168,0A2.094,2.094,0,0,1,19.11-3.5,2.088,2.088,0,0,1,21.1-5.74a2.277,2.277,0,0,1,1.722.826l.98-1.022a3.693,3.693,0,0,0-2.73-1.176A3.527,3.527,0,0,0,17.528-3.5,3.551,3.551,0,0,0,21.07.14a3.611,3.611,0,0,0,2.674-1.218l-.952-.952A2.084,2.084,0,0,1,21.14-1.26ZM24.7-3.5A3.523,3.523,0,0,0,28.224.14,3.514,3.514,0,0,0,31.752-3.5a3.5,3.5,0,0,0-3.528-3.626A3.511,3.511,0,0,0,24.7-3.5Zm5.5.014a2.05,2.05,0,0,1-1.974,2.254A2.05,2.05,0,0,1,26.25-3.486a2.068,2.068,0,0,1,1.974-2.282A2.068,2.068,0,0,1,30.2-3.486Zm4.858-3.528H33.474v4.62A2.364,2.364,0,0,0,35.91.112a2.52,2.52,0,0,0,2.212-1.26V0h1.6V-7.014h-1.6v5.026a1.768,1.768,0,0,1-1.526.826,1.51,1.51,0,0,1-1.54-1.68ZM41.734,0h1.6V-5.026a1.768,1.768,0,0,1,1.526-.826,1.51,1.51,0,0,1,1.54,1.68V0h1.582V-4.62a2.364,2.364,0,0,0-2.436-2.506,2.52,2.52,0,0,0-2.212,1.26V-7.014h-1.6ZM50.61-1.848c0,1.288.742,1.96,2.156,1.96a5.218,5.218,0,0,0,1.358-.2v-1.33a2.784,2.784,0,0,1-.952.168c-.714,0-.98-.266-.98-.952V-5.754h1.96v-1.26h-1.96V-9.142l-1.582.336v1.792h-1.4v1.26h1.4ZM58.632-3.5A3.568,3.568,0,0,0,62.216.14,4,4,0,0,0,64.988-.9l-1.036-.98a2.279,2.279,0,0,1-1.666.658,2.119,2.119,0,0,1-2.1-1.9H65.38v-.392a3.378,3.378,0,0,0-3.332-3.612A3.455,3.455,0,0,0,58.632-3.5Zm3.4-2.324a1.9,1.9,0,0,1,1.82,1.736h-3.64A1.871,1.871,0,0,1,62.034-5.824ZM67.06,0h1.6V-4.634a1.852,1.852,0,0,1,1.736-1.148,2.3,2.3,0,0,1,.882.168V-7a1.873,1.873,0,0,0-.7-.14,2.077,2.077,0,0,0-1.918,1.61V-7.014h-1.6Zm5.614,0h1.6V-4.634a1.852,1.852,0,0,1,1.736-1.148,2.3,2.3,0,0,1,.882.168V-7a1.873,1.873,0,0,0-.7-.14A2.077,2.077,0,0,0,74.27-5.53V-7.014h-1.6Zm4.914-3.5A3.523,3.523,0,0,0,81.116.14,3.514,3.514,0,0,0,84.644-3.5a3.5,3.5,0,0,0-3.528-3.626A3.511,3.511,0,0,0,77.588-3.5Zm5.5.014a2.05,2.05,0,0,1-1.974,2.254,2.05,2.05,0,0,1-1.974-2.254,2.068,2.068,0,0,1,1.974-2.282A2.068,2.068,0,0,1,83.09-3.486ZM86.366,0h1.6V-4.634A1.852,1.852,0,0,1,89.7-5.782a2.3,2.3,0,0,1,.882.168V-7a1.873,1.873,0,0,0-.7-.14,2.077,2.077,0,0,0-1.918,1.61V-7.014h-1.6Z" transform="translate(644 808)" fill="#8a8d90"/><g transform="translate(213 545)"><rect width="24" height="24" transform="translate(399 246)" fill="none"/><path d="M26,17a9,9,0,1,1-9-9A9,9,0,0,1,26,17Zm-9,1.815a1.669,1.669,0,1,0,1.669,1.669A1.669,1.669,0,0,0,17,18.815Zm-1.585-6,.269,4.935a.435.435,0,0,0,.435.412h1.762a.435.435,0,0,0,.435-.412l.269-4.935a.435.435,0,0,0-.435-.459h-2.3a.435.435,0,0,0-.435.459Z" transform="translate(394 241)" fill="#8a8d90"/></g><rect width="555" height="2" transform="translate(596 775)" fill="#8a8d90"/><path d="M5.8-.826A3.924,3.924,0,0,1,1.876-4.9,3.918,3.918,0,0,1,5.768-8.974,3.928,3.928,0,0,1,8.75-7.6l.714-.742a4.9,4.9,0,0,0-3.7-1.61A4.966,4.966,0,0,0,.784-4.9,4.966,4.966,0,0,0,5.768.154a4.951,4.951,0,0,0,3.668-1.61l-.7-.714A3.84,3.84,0,0,1,5.8-.826Zm6.538-9.184-1.022.21V0h1.022ZM14.21-3.416A3.384,3.384,0,0,0,17.528.14a3.389,3.389,0,0,0,3.346-3.556,3.365,3.365,0,0,0-3.346-3.528A3.359,3.359,0,0,0,14.21-3.416Zm5.642.014A2.412,2.412,0,0,1,17.528-.77a2.4,2.4,0,0,1-2.3-2.632,2.421,2.421,0,0,1,2.3-2.646A2.424,2.424,0,0,1,19.852-3.4Zm2.31,2.45A3.788,3.788,0,0,0,24.948.126c1.54,0,2.66-.952,2.646-2.114.014-1.036-.644-1.6-1.988-1.834l-1.134-.21c-.84-.154-1.19-.392-1.19-.98,0-.672.63-1.092,1.484-1.092a3.45,3.45,0,0,1,2.114.77l.546-.7a4.251,4.251,0,0,0-2.618-.91c-1.442,0-2.464.84-2.464,2,0,1.022.658,1.568,1.932,1.792l1.134.2c.854.154,1.218.448,1.218,1.022,0,.672-.616,1.232-1.722,1.232a3.059,3.059,0,0,1-2.156-.9Zm6.832-2.464A3.418,3.418,0,0,0,32.382.126a3.935,3.935,0,0,0,2.562-.91l-.644-.7a2.792,2.792,0,0,1-1.876.7A2.459,2.459,0,0,1,30-3.206h5.362V-3.5a3.236,3.236,0,0,0-3.136-3.444A3.336,3.336,0,0,0,28.994-3.416Zm3.22-2.632A2.25,2.25,0,0,1,34.342-3.92H30.03A2.258,2.258,0,0,1,32.214-6.048ZM46.97-3.416a3.308,3.308,0,0,0-3.164-3.5,2.705,2.705,0,0,0-2.2,1.036v-4.13l-1.022.21V0h1.008V-.9A2.7,2.7,0,0,0,43.75.1,3.329,3.329,0,0,0,46.97-3.416Zm-3.416-2.6A2.451,2.451,0,0,1,45.948-3.4,2.443,2.443,0,0,1,43.554-.784a2.421,2.421,0,0,1-1.946-.952V-5.082A2.352,2.352,0,0,1,43.554-6.02Zm6.3-.812H48.832v4.424A2.382,2.382,0,0,0,51.3.112,2.462,2.462,0,0,0,53.48-1.12V0H54.5V-6.832H53.48v5.04a2.03,2.03,0,0,1-1.792,1.05A1.771,1.771,0,0,1,49.854-2.7Zm7.63,5.292c0,1.064.6,1.666,1.792,1.666a4.124,4.124,0,0,0,1.2-.182v-.91a2.521,2.521,0,0,1-.966.182c-.728,0-1.008-.294-1.008-1.022V-5.992H60.48v-.84H58.506V-8.806l-1.022.238v1.736H56.07v.84h1.414Zm5.53,0c0,1.064.6,1.666,1.792,1.666a4.124,4.124,0,0,0,1.2-.182v-.91a2.521,2.521,0,0,1-.966.182c-.728,0-1.008-.294-1.008-1.022V-5.992H66.01v-.84H64.036V-8.806l-1.022.238v1.736H61.6v.84h1.414ZM67.06-3.416A3.384,3.384,0,0,0,70.378.14a3.389,3.389,0,0,0,3.346-3.556,3.365,3.365,0,0,0-3.346-3.528A3.359,3.359,0,0,0,67.06-3.416ZM72.7-3.4A2.412,2.412,0,0,1,70.378-.77a2.4,2.4,0,0,1-2.3-2.632,2.421,2.421,0,0,1,2.3-2.646A2.424,2.424,0,0,1,72.7-3.4ZM75.586,0h1.022V-5.04A2.03,2.03,0,0,1,78.4-6.09a1.771,1.771,0,0,1,1.834,1.96V0h1.022V-4.424a2.382,2.382,0,0,0-2.464-2.52,2.462,2.462,0,0,0-2.184,1.232v-1.12H75.586Z" transform="translate(1073 918)" fill="#06c"/><rect width="1" height="105" transform="translate(1114 799)" fill="#06c"/><circle cx="3.5" cy="3.5" r="3.5" transform="translate(1111 795)" fill="#06c"/><path d="M.392-1.61A5.528,5.528,0,0,0,4.4.14C6.8.14,8.134-1.246,8.134-2.814c0-1.442-.84-2.254-2.982-2.632L3.584-5.712c-1.2-.21-1.848-.588-1.848-1.554,0-1.218,1.176-1.75,2.338-1.75a5.194,5.194,0,0,1,3.262,1.19l.63-.812A6.2,6.2,0,0,0,4.1-9.926c-1.792,0-3.4.9-3.4,2.744,0,1.386.826,2.128,2.59,2.436l1.582.266c1.582.28,2.184.742,2.184,1.722,0,1.092-1.008,1.974-2.618,1.974A4.719,4.719,0,0,1,1.064-2.366ZM9.716-3.416A3.418,3.418,0,0,0,13.1.126a3.935,3.935,0,0,0,2.562-.91l-.644-.7a2.792,2.792,0,0,1-1.876.7,2.459,2.459,0,0,1-2.422-2.422h5.362V-3.5A3.236,3.236,0,0,0,12.95-6.944,3.336,3.336,0,0,0,9.716-3.416Zm3.22-2.632A2.25,2.25,0,0,1,15.064-3.92H10.752A2.258,2.258,0,0,1,12.936-6.048ZM19.684,0h.966l2.814-6.832H22.372L20.188-1.288,18-6.832H16.87ZM24.3-3.416A3.418,3.418,0,0,0,27.692.126a3.935,3.935,0,0,0,2.562-.91l-.644-.7a2.792,2.792,0,0,1-1.876.7,2.459,2.459,0,0,1-2.422-2.422h5.362V-3.5a3.236,3.236,0,0,0-3.136-3.444A3.336,3.336,0,0,0,24.3-3.416Zm3.22-2.632A2.25,2.25,0,0,1,29.652-3.92H25.34A2.258,2.258,0,0,1,27.524-6.048ZM32.494,0h1.022V-4.676A1.921,1.921,0,0,1,35.35-6.062a2.422,2.422,0,0,1,.714.126V-6.86a2.01,2.01,0,0,0-.644-.1,2.031,2.031,0,0,0-1.9,1.484V-6.832H32.494Zm5.572-8.554a.726.726,0,0,0,.728-.742.723.723,0,0,0-.728-.728.723.723,0,0,0-.728.728A.726.726,0,0,0,38.066-8.554Zm.5,1.722H37.548V0H38.57Zm3,5.292c0,1.064.6,1.666,1.792,1.666a4.124,4.124,0,0,0,1.2-.182v-.91a2.521,2.521,0,0,1-.966.182c-.728,0-1.008-.294-1.008-1.022V-5.992h1.974v-.84H42.588V-8.806l-1.022.238v1.736H40.152v.84h1.414ZM47.782.952c-.28.7-.644.868-1.106.868a3.447,3.447,0,0,1-.56-.056v.91a2.247,2.247,0,0,0,.658.1c1.022,0,1.54-.434,1.96-1.512l3.332-8.092h-1.12L48.748-1.2,46.676-6.832H45.528L48.174-.014Zm15.5-4.368a3.308,3.308,0,0,0-3.164-3.5,2.705,2.705,0,0,0-2.2,1.036v-4.13L56.9-9.8V0H57.9V-.9A2.7,2.7,0,0,0,60.06.1,3.329,3.329,0,0,0,63.28-3.416Zm-3.416-2.6A2.451,2.451,0,0,1,62.258-3.4,2.443,2.443,0,0,1,59.864-.784a2.421,2.421,0,0,1-1.946-.952V-5.082A2.352,2.352,0,0,1,59.864-6.02ZM67.34.126a2.906,2.906,0,0,0,2.17-.91V0h1.008V-4.536c0-1.582-.98-2.408-2.646-2.408a5.722,5.722,0,0,0-2.576.658l.392.784a4.407,4.407,0,0,1,2.058-.588c1.148,0,1.764.546,1.764,1.694v.924a4.1,4.1,0,0,0-2.072-.518c-1.484,0-2.562.756-2.562,2.016A2.2,2.2,0,0,0,67.34.126ZM65.856-1.988c0-.8.728-1.274,1.722-1.274a3.545,3.545,0,0,1,1.932.5v1.316a2.726,2.726,0,0,1-1.96.784C66.556-.658,65.856-1.19,65.856-1.988ZM72.688,0H73.71V-4.676a1.921,1.921,0,0,1,1.834-1.386,2.422,2.422,0,0,1,.714.126V-6.86a2.01,2.01,0,0,0-.644-.1,2.031,2.031,0,0,0-1.9,1.484V-6.832H72.688Z" transform="translate(949 918)" fill="#06c"/><rect width="1" height="121" transform="translate(987 783)" fill="#06c"/><circle cx="3.5" cy="3.5" r="3.5" transform="translate(984 779)" fill="#06c"/><path d="M1.232,0H2.31V-4.452H7.938V0H9.016V-9.8H7.938v4.382H2.31V-9.8H1.232Zm9.856-3.416A3.418,3.418,0,0,0,14.476.126a3.935,3.935,0,0,0,2.562-.91l-.644-.7a2.792,2.792,0,0,1-1.876.7A2.459,2.459,0,0,1,12.1-3.206h5.362V-3.5a3.236,3.236,0,0,0-3.136-3.444A3.336,3.336,0,0,0,11.088-3.416Zm3.22-2.632A2.25,2.25,0,0,1,16.436-3.92H12.124A2.258,2.258,0,0,1,14.308-6.048ZM20.3-10.01l-1.022.21V0H20.3Zm2.17,12.8h1.022V-.868A2.748,2.748,0,0,0,25.634.1a3.329,3.329,0,0,0,3.22-3.514,3.308,3.308,0,0,0-3.164-3.5,2.7,2.7,0,0,0-2.212,1.064v-.98H22.47ZM25.438-6.02A2.451,2.451,0,0,1,27.832-3.4,2.443,2.443,0,0,1,25.438-.784a2.421,2.421,0,0,1-1.946-.952V-5.082A2.352,2.352,0,0,1,25.438-6.02Zm4.984,2.6A3.418,3.418,0,0,0,33.81.126a3.935,3.935,0,0,0,2.562-.91l-.644-.7a2.792,2.792,0,0,1-1.876.7A2.459,2.459,0,0,1,31.43-3.206h5.362V-3.5a3.236,3.236,0,0,0-3.136-3.444A3.336,3.336,0,0,0,30.422-3.416Zm3.22-2.632A2.25,2.25,0,0,1,35.77-3.92H31.458A2.258,2.258,0,0,1,33.642-6.048ZM38.612,0h1.022V-4.676a1.921,1.921,0,0,1,1.834-1.386,2.422,2.422,0,0,1,.714.126V-6.86a2.01,2.01,0,0,0-.644-.1,2.031,2.031,0,0,0-1.9,1.484V-6.832H38.612Zm9.282-1.54c0,1.064.6,1.666,1.792,1.666a4.124,4.124,0,0,0,1.2-.182v-.91a2.521,2.521,0,0,1-.966.182c-.728,0-1.008-.294-1.008-1.022V-5.992H50.89v-.84H48.916V-8.806l-1.022.238v1.736H46.48v.84h1.414ZM51.94-3.416A3.418,3.418,0,0,0,55.328.126a3.935,3.935,0,0,0,2.562-.91l-.644-.7a2.792,2.792,0,0,1-1.876.7,2.459,2.459,0,0,1-2.422-2.422H58.31V-3.5a3.236,3.236,0,0,0-3.136-3.444A3.336,3.336,0,0,0,51.94-3.416Zm3.22-2.632A2.25,2.25,0,0,1,57.288-3.92H52.976A2.258,2.258,0,0,1,55.16-6.048ZM58.9,0H60.06l2.03-2.786L64.134,0h1.2L62.692-3.542l2.464-3.29H63.98l-1.862,2.59-1.876-2.59H59.01l2.492,3.3Zm8.554-1.54c0,1.064.6,1.666,1.792,1.666a4.124,4.124,0,0,0,1.2-.182v-.91a2.521,2.521,0,0,1-.966.182c-.728,0-1.008-.294-1.008-1.022V-5.992h1.974v-.84H68.474V-8.806l-1.022.238v1.736H66.038v.84h1.414Z" transform="translate(828 918)" fill="#06c"/><rect width="1" height="74" transform="translate(863 830)" fill="#06c"/><circle cx="3.5" cy="3.5" r="3.5" transform="translate(860 826)" fill="#06c"/><path d="M.252,0h1.12L2.548-3.08H6.9L8.064,0H9.24L5.418-9.8H4.13Zm2.66-4,1.82-4.76L6.552-4ZM13.384-.8A2.465,2.465,0,0,1,11-3.416a2.478,2.478,0,0,1,2.38-2.6,2.61,2.61,0,0,1,1.876.854l.658-.714A3.628,3.628,0,0,0,13.37-6.944,3.423,3.423,0,0,0,9.982-3.416,3.435,3.435,0,0,0,13.37.126,3.461,3.461,0,0,0,15.876-.98l-.63-.63A2.442,2.442,0,0,1,13.384-.8Zm5.11-.742c0,1.064.6,1.666,1.792,1.666a4.124,4.124,0,0,0,1.2-.182v-.91a2.521,2.521,0,0,1-.966.182c-.728,0-1.008-.294-1.008-1.022V-5.992H21.49v-.84H19.516V-8.806l-1.022.238v1.736H17.08v.84h1.414Zm5.082-7.014A.726.726,0,0,0,24.3-9.3a.723.723,0,0,0-.728-.728.723.723,0,0,0-.728.728A.726.726,0,0,0,23.576-8.554Zm.5,1.722H23.058V0H24.08Zm1.876,3.416A3.384,3.384,0,0,0,29.274.14,3.389,3.389,0,0,0,32.62-3.416a3.365,3.365,0,0,0-3.346-3.528A3.359,3.359,0,0,0,25.956-3.416ZM31.6-3.4A2.412,2.412,0,0,1,29.274-.77a2.4,2.4,0,0,1-2.3-2.632,2.421,2.421,0,0,1,2.3-2.646A2.424,2.424,0,0,1,31.6-3.4ZM34.482,0H35.5V-5.04A2.03,2.03,0,0,1,37.3-6.09,1.771,1.771,0,0,1,39.13-4.13V0h1.022V-4.424a2.382,2.382,0,0,0-2.464-2.52A2.462,2.462,0,0,0,35.5-5.712v-1.12H34.482Z" transform="translate(736 918)" fill="#06c"/><rect width="1" height="40" transform="translate(756 864)" fill="#06c"/><circle cx="3.5" cy="3.5" r="3.5" transform="translate(753 860)" fill="#06c"/><path d="M.392-8.848H3.78V0H4.858V-8.848H8.232V-9.8H.392Zm9.912.294a.726.726,0,0,0,.728-.742.723.723,0,0,0-.728-.728.723.723,0,0,0-.728.728A.726.726,0,0,0,10.3-8.554Zm.5,1.722H9.786V0h1.022Zm3,5.292c0,1.064.6,1.666,1.792,1.666a4.124,4.124,0,0,0,1.2-.182v-.91a2.521,2.521,0,0,1-.966.182c-.728,0-1.008-.294-1.008-1.022V-5.992H16.8v-.84H14.826V-8.806L13.8-8.568v1.736H12.39v.84H13.8Zm5.586-8.47-1.022.21V0H19.39Zm1.876,6.594A3.418,3.418,0,0,0,24.654.126a3.935,3.935,0,0,0,2.562-.91l-.644-.7a2.792,2.792,0,0,1-1.876.7,2.459,2.459,0,0,1-2.422-2.422h5.362V-3.5A3.236,3.236,0,0,0,24.5-6.944,3.336,3.336,0,0,0,21.266-3.416Zm3.22-2.632A2.25,2.25,0,0,1,26.614-3.92H22.3A2.258,2.258,0,0,1,24.486-6.048Z" transform="translate(675 918)" fill="#06c"/><rect width="1" height="100" transform="translate(689 804)" fill="#06c"/><circle cx="3.5" cy="3.5" r="3.5" transform="translate(686 800)" fill="#06c"/><path d="M.392-1.61A5.528,5.528,0,0,0,4.4.14C6.8.14,8.134-1.246,8.134-2.814c0-1.442-.84-2.254-2.982-2.632L3.584-5.712c-1.2-.21-1.848-.588-1.848-1.554,0-1.218,1.176-1.75,2.338-1.75a5.194,5.194,0,0,1,3.262,1.19l.63-.812A6.2,6.2,0,0,0,4.1-9.926c-1.792,0-3.4.9-3.4,2.744,0,1.386.826,2.128,2.59,2.436l1.582.266c1.582.28,2.184.742,2.184,1.722,0,1.092-1.008,1.974-2.618,1.974A4.719,4.719,0,0,1,1.064-2.366ZM9.716-3.416A3.418,3.418,0,0,0,13.1.126a3.935,3.935,0,0,0,2.562-.91l-.644-.7a2.792,2.792,0,0,1-1.876.7,2.459,2.459,0,0,1-2.422-2.422h5.362V-3.5A3.236,3.236,0,0,0,12.95-6.944,3.336,3.336,0,0,0,9.716-3.416Zm3.22-2.632A2.25,2.25,0,0,1,15.064-3.92H10.752A2.258,2.258,0,0,1,12.936-6.048ZM19.684,0h.966l2.814-6.832H22.372L20.188-1.288,18-6.832H16.87ZM24.3-3.416A3.418,3.418,0,0,0,27.692.126a3.935,3.935,0,0,0,2.562-.91l-.644-.7a2.792,2.792,0,0,1-1.876.7,2.459,2.459,0,0,1-2.422-2.422h5.362V-3.5a3.236,3.236,0,0,0-3.136-3.444A3.336,3.336,0,0,0,24.3-3.416Zm3.22-2.632A2.25,2.25,0,0,1,29.652-3.92H25.34A2.258,2.258,0,0,1,27.524-6.048ZM32.494,0h1.022V-4.676A1.921,1.921,0,0,1,35.35-6.062a2.422,2.422,0,0,1,.714.126V-6.86a2.01,2.01,0,0,0-.644-.1,2.031,2.031,0,0,0-1.9,1.484V-6.832H32.494Zm5.572-8.554a.726.726,0,0,0,.728-.742.723.723,0,0,0-.728-.728.723.723,0,0,0-.728.728A.726.726,0,0,0,38.066-8.554Zm.5,1.722H37.548V0H38.57Zm3,5.292c0,1.064.6,1.666,1.792,1.666a4.124,4.124,0,0,0,1.2-.182v-.91a2.521,2.521,0,0,1-.966.182c-.728,0-1.008-.294-1.008-1.022V-5.992h1.974v-.84H42.588V-8.806l-1.022.238v1.736H40.152v.84h1.414ZM47.782.952c-.28.7-.644.868-1.106.868a3.447,3.447,0,0,1-.56-.056v.91a2.247,2.247,0,0,0,.658.1c1.022,0,1.54-.434,1.96-1.512l3.332-8.092h-1.12L48.748-1.2,46.676-6.832H45.528L48.174-.014Zm9.632-9.506a.726.726,0,0,0,.728-.742.723.723,0,0,0-.728-.728.723.723,0,0,0-.728.728A.726.726,0,0,0,57.414-8.554Zm.5,1.722H56.9V0h1.022ZM63.2-.8a2.465,2.465,0,0,1-2.38-2.618,2.478,2.478,0,0,1,2.38-2.6,2.61,2.61,0,0,1,1.876.854l.658-.714a3.628,3.628,0,0,0-2.548-1.064,3.423,3.423,0,0,0-3.388,3.528A3.435,3.435,0,0,0,63.182.126,3.461,3.461,0,0,0,65.688-.98l-.63-.63A2.442,2.442,0,0,1,63.2-.8Zm3.57-2.618A3.384,3.384,0,0,0,70.084.14,3.389,3.389,0,0,0,73.43-3.416a3.365,3.365,0,0,0-3.346-3.528A3.359,3.359,0,0,0,66.766-3.416Zm5.642.014A2.412,2.412,0,0,1,70.084-.77a2.4,2.4,0,0,1-2.3-2.632,2.421,2.421,0,0,1,2.3-2.646A2.424,2.424,0,0,1,72.408-3.4ZM75.292,0h1.022V-5.04a2.03,2.03,0,0,1,1.792-1.05A1.771,1.771,0,0,1,79.94-4.13V0h1.022V-4.424A2.382,2.382,0,0,0,78.5-6.944a2.462,2.462,0,0,0-2.184,1.232v-1.12H75.292Z" transform="translate(564 918)" fill="#06c"/><rect width="1" height="100" transform="translate(605 804)" fill="#06c"/><circle cx="3.5" cy="3.5" r="3.5" transform="translate(602 800)" fill="#06c"/></g></svg>