<svg xmlns="http://www.w3.org/2000/svg" width="162" height="88" viewBox="0 0 162 88">
  <g id="cta-variant-secondary.svg" transform="translate(-652 -870)">
    <rect id="Rectangle" width="162" height="88" transform="translate(652 870)" fill="none"/>
    <g id="CTA_Secondary_FTS" data-name="CTA / Secondary / FTS" transform="translate(652 886)">
      <g id="Rectangle-2" data-name="Rectangle" fill="none" stroke="#151515" stroke-width="1">
        <rect width="146" height="56" rx="3" stroke="none"/>
        <rect x="0.5" y="0.5" width="145" height="55" rx="2.5" fill="none"/>
      </g>
      <g id="Text">
        <rect id="Rectangle-3" data-name="Rectangle" width="82" height="24" transform="translate(32 16)" fill="none"/>
        <path id="Path" d="M.048-1.776A7.425,7.425,0,0,0,5.008.16c2.88,0,4.72-1.392,4.72-3.584,0-1.728-1.1-2.784-3.344-3.152L4.272-6.928c-1.152-.176-1.6-.528-1.6-1.216,0-.768.8-1.264,2.048-1.264A5.7,5.7,0,0,1,8.256-8.064L9.5-9.792A7.781,7.781,0,0,0,4.88-11.36c-2.72,0-4.416,1.3-4.416,3.392,0,1.632,1.008,2.672,2.928,2.992l2.224.384c1.328.224,1.84.608,1.84,1.376,0,.864-.9,1.408-2.288,1.408A5.548,5.548,0,0,1,1.376-3.44Zm18.56.736-1.44-1.312a2.624,2.624,0,0,1-1.84.672A2.4,2.4,0,0,1,12.96-3.424h6.208V-4A4.207,4.207,0,0,0,15.04-8.48a4.255,4.255,0,0,0-4.288,4.32A4.34,4.34,0,0,0,15.232.16,5,5,0,0,0,18.608-1.04ZM14.992-6.672a2.151,2.151,0,0,1,2.032,1.68h-4.08A2.094,2.094,0,0,1,14.992-6.672ZM24.656-1.76a2.3,2.3,0,0,1-2.288-2.4,2.3,2.3,0,0,1,2.24-2.432,2.705,2.705,0,0,1,2.064,1.008l1.344-1.424A4.689,4.689,0,0,0,24.56-8.5,4.3,4.3,0,0,0,20.192-4.16,4.283,4.283,0,0,0,24.56.16a4.627,4.627,0,0,0,3.392-1.488L26.64-2.688A2.587,2.587,0,0,1,24.656-1.76Zm3.728-2.4A4.332,4.332,0,0,0,32.832.16,4.332,4.332,0,0,0,37.28-4.16,4.345,4.345,0,0,0,32.832-8.5,4.345,4.345,0,0,0,28.384-4.16Zm4.448,2.416a2.341,2.341,0,0,1-2.3-2.416,2.345,2.345,0,0,1,2.3-2.432,2.335,2.335,0,0,1,2.3,2.432A2.341,2.341,0,0,1,32.832-1.744ZM38.624,0h2.192V-5.776a2,2,0,0,1,1.712-.832,1.625,1.625,0,0,1,1.728,1.744V0h2.192V-5.184a3.163,3.163,0,0,0-3.3-3.312,3.578,3.578,0,0,0-2.336.816v-.656H38.624ZM54.336,0H56.5V-11.68L54.3-11.2v3.408a4.143,4.143,0,0,0-2.272-.656,4.238,4.238,0,0,0-4.3,4.272A4.228,4.228,0,0,0,51.968.112a3.78,3.78,0,0,0,2.368-.8ZM49.888-4.176A2.368,2.368,0,0,1,52.32-6.592a2.752,2.752,0,0,1,1.984.784V-2.56a2.674,2.674,0,0,1-1.984.8A2.388,2.388,0,0,1,49.888-4.176ZM60.864.144a3.962,3.962,0,0,0,2.416-.72V0h2.16V-5.408c0-1.968-1.3-3.088-3.552-3.088a8.692,8.692,0,0,0-3.712.9l.8,1.616a6.46,6.46,0,0,1,2.544-.688c1.168,0,1.76.5,1.76,1.456v.592a6.742,6.742,0,0,0-2.032-.32c-2.144,0-3.424.944-3.424,2.528C57.824-.9,59.072.144,60.864.144ZM59.92-2.464c0-.64.592-1.04,1.6-1.04a4.843,4.843,0,0,1,1.76.3v1.248a3.156,3.156,0,0,1-1.84.528C60.512-1.424,59.92-1.824,59.92-2.464ZM67.1,0H69.3V-5.392A2.206,2.206,0,0,1,71.312-6.64a2.8,2.8,0,0,1,1.12.224v-1.92a1.889,1.889,0,0,0-.912-.192,2.652,2.652,0,0,0-2.224,1.1v-.912H67.1Zm8.928.384A1.678,1.678,0,0,1,74.384,1.52a3.438,3.438,0,0,1-.768-.064V3.344a4,4,0,0,0,.976.1c1.824,0,2.832-.768,3.7-2.784l3.84-8.992H79.76l-2.368,5.68-2.064-5.68H72.912L76.16.08Z" transform="translate(32 34)" fill="#151515"/>
      </g>
    </g>
  </g>
</svg>
