<svg xmlns="http://www.w3.org/2000/svg" xmlns:xlink="http://www.w3.org/1999/xlink" width="1000" height="117.5" viewBox="0 0 1000 117.5">
  <defs>
    <filter id="Cursor" x="495.5" y="91.5" width="21" height="26" filterUnits="userSpaceOnUse">
      <feOffset dy="2" input="SourceAlpha"/>
      <feGaussianBlur stdDeviation="1.5" result="blur"/>
      <feFlood flood-opacity="0.251"/>
      <feComposite operator="in" in2="blur"/>
      <feComposite in="SourceGraphic"/>
    </filter>
    <filter id="Rectangle" x="354" y="0" width="292" height="78" filterUnits="userSpaceOnUse">
      <feOffset dy="3" input="SourceAlpha"/>
      <feGaussianBlur stdDeviation="2" result="blur-2"/>
      <feFlood flood-opacity="0.102"/>
      <feComposite operator="in" in2="blur-2"/>
      <feComposite in="SourceGraphic"/>
    </filter>
  </defs>
  <g id="tooltip-desktop" transform="translate(-360 -4843)">
    <g id="tooltip-desktop-2" data-name="tooltip-desktop">
      <path id="Icon" d="M15,8a7,7,0,1,0,7,7A7,7,0,0,0,15,8Zm0,12.645A5.645,5.645,0,1,1,20.645,15,5.642,5.642,0,0,1,15,20.645Zm3.027-7.2c0,1.893-2.044,1.922-2.044,2.621v.179a.339.339,0,0,1-.339.339H14.356a.339.339,0,0,1-.339-.339V16c0-1.009.765-1.412,1.343-1.736.5-.278.8-.467.8-.835,0-.487-.621-.81-1.123-.81-.655,0-.957.31-1.381.846a.339.339,0,0,1-.47.06l-.785-.6a.339.339,0,0,1-.075-.462,3.173,3.173,0,0,1,2.839-1.529A2.8,2.8,0,0,1,18.027,13.442Zm-1.842,4.719A1.185,1.185,0,1,1,15,16.976,1.187,1.187,0,0,1,16.185,18.161Z" transform="translate(845 4922)"/>
      <g id="Cursor-2" data-name="Cursor" transform="translate(860 4937)">
        <g transform="matrix(1, 0, 0, 1, -500, -94)" filter="url(#Cursor)">
          <g id="Cursor-3" data-name="Cursor" transform="translate(500 94)">
            <path d="M 0.5 15.79290008544922 L 0.5 1.207100033760071 L 10.79290008544922 11.5 L 5 11.5 L 4.792890071868896 11.5 L 4.646450042724609 11.64645004272461 L 0.5 15.79290008544922 Z" stroke="none"/>
            <path d="M 1 14.58578014373779 L 4.292890071868896 11.29288959503174 L 4.585790157318115 11 L 5 11 L 9.585780143737793 11 L 1 2.414220094680786 L 1 14.58578014373779 M -8.881784197001252e-16 17 L -8.881784197001252e-16 0 L 12 12 L 5 12 L -8.881784197001252e-16 17 Z" stroke="none" fill="#fff"/>
          </g>
        </g>
      </g>
      <g id="Tooltip" transform="translate(363 4624)">
        <path id="Polygon" d="M10,0,20,10H0Z" transform="translate(507 298) rotate(180)" fill="#151515"/>
        <g id="Box" transform="translate(-3)">
          <g transform="matrix(1, 0, 0, 1, 0, 219)" filter="url(#Rectangle)">
            <rect id="Rectangle-2" data-name="Rectangle" width="280" height="66" rx="3" transform="translate(360 3)" fill="#151515"/>
          </g>
          <text id="Here_is_information_you_should_know." data-name="Here is information you should know." transform="translate(384 260)" fill="#fff" font-size="14" font-family="RedHatText-Regular, RedHatText" letter-spacing="0.01em"><tspan x="0" y="0">Here is information you should know.</tspan></text>
        </g>
      </g>
    </g>
    <g id="Grid" opacity="0.03">
      <rect id="Rectangle-3" data-name="Rectangle" width="65" height="108" transform="translate(1295 4846)" fill="red"/>
      <rect id="Rectangle-4" data-name="Rectangle" width="65" height="108" transform="translate(1210 4846)" fill="red"/>
      <rect id="Rectangle-5" data-name="Rectangle" width="65" height="108" transform="translate(1125 4846)" fill="red"/>
      <rect id="Rectangle-6" data-name="Rectangle" width="65" height="108" transform="translate(1040 4846)" fill="red"/>
      <rect id="Rectangle-7" data-name="Rectangle" width="65" height="108" transform="translate(955 4846)" fill="red"/>
      <rect id="Rectangle-8" data-name="Rectangle" width="65" height="108" transform="translate(870 4846)" fill="red"/>
      <rect id="Rectangle-9" data-name="Rectangle" width="65" height="108" transform="translate(785 4846)" fill="red"/>
      <rect id="Rectangle-10" data-name="Rectangle" width="65" height="108" transform="translate(700 4846)" fill="red"/>
      <rect id="Rectangle-11" data-name="Rectangle" width="65" height="108" transform="translate(615 4846)" fill="red"/>
      <rect id="Rectangle-12" data-name="Rectangle" width="65" height="108" transform="translate(530 4846)" fill="red"/>
      <rect id="Rectangle-13" data-name="Rectangle" width="65" height="108" transform="translate(445 4846)" fill="red"/>
      <rect id="Rectangle-14" data-name="Rectangle" width="65" height="108" transform="translate(360 4846)" fill="red"/>
    </g>
  </g>
</svg>
