<?xml version="1.0" encoding="utf-8"?>
<!-- Generator: Adobe Illustrator 24.3.0, SVG Export Plug-In . SVG Version: 6.00 Build 0)  -->
<svg version="1.1" id="Layer_1" xmlns="http://www.w3.org/2000/svg" xmlns:xlink="http://www.w3.org/1999/xlink" x="0px" y="0px"
	 viewBox="0 0 207.7 110.5" style="enable-background:new 0 0 207.7 110.5;" xml:space="preserve">
<style type="text/css">
	.st0{fill:#FFFFFF;}
	.st1{fill:#151515;}
</style>
<g transform="translate(-776.392 -2989.976)">
	<path d="M881,3070c-3.9,0-7,3.1-7,7s3.1,7,7,7s7-3.1,7-7S884.9,3070,881,3070z M881,3082.6c-3.1,0-5.6-2.5-5.6-5.6s2.5-5.6,5.6-5.6
		s5.6,2.5,5.6,5.6C886.6,3080.1,884.1,3082.6,881,3082.6C881,3082.6,881,3082.6,881,3082.6z M884,3075.4c0,1.9-2,1.9-2,2.6v0.2
		c0,0.2-0.2,0.3-0.3,0.3c0,0,0,0,0,0h-1.3c-0.2,0-0.3-0.2-0.3-0.3l0,0v-0.2c0-1,0.8-1.4,1.3-1.7c0.5-0.3,0.8-0.5,0.8-0.8
		c0-0.5-0.6-0.8-1.1-0.8c-0.7,0-1,0.3-1.4,0.8c-0.1,0.1-0.3,0.2-0.5,0.1l-0.8-0.6c-0.1-0.1-0.2-0.3-0.1-0.5c0.6-1,1.7-1.6,2.8-1.5
		C882.6,3072.9,883.9,3074,884,3075.4L884,3075.4z M882.2,3080.2c0,0.7-0.5,1.2-1.2,1.2s-1.2-0.5-1.2-1.2c0-0.7,0.5-1.2,1.2-1.2
		C881.7,3079,882.2,3079.5,882.2,3080.2L882.2,3080.2z"/>
	<g transform="translate(881 3077)">
		<g transform="matrix(1, 0, 0, 1, -104.61, -87.02)">
			<g transform="translate(104.61 87.02)">
				<path d="M0.5,15.8V1.2l10.3,10.3H5H4.8l-0.1,0.1L0.5,15.8z"/>
				<path class="st0" d="M1,14.6l3.3-3.3L4.6,11H5h4.6L1,2.4V14.6 M0,17V0l12,12H5L0,17z"/>
			</g>
		</g>
	</g>
	<g transform="translate(418 2764)">
		<path class="st0" d="M463,298l-10-10h20L463,298z"/>
		<g transform="translate(-2)">
			<path class="st0" d="M363.4,226h201.7c1.7,0,3,1.3,3,3v54.8c0,1.7-1.3,3-3,3H363.4c-1.7,0-3-1.3-3-3V229
				C360.4,227.3,361.7,226,363.4,226z"/>
			<path class="st1" d="M384.4,251.2h3.4v8.8h1.1v-8.8h3.4v-1h-7.8V251.2z M398.4,260h1v-4.4c0.1-1.3-0.9-2.4-2.2-2.5
				c-0.1,0-0.2,0-0.2,0c-0.9,0-1.7,0.5-2.2,1.2V250l-1,0.2v9.8h1v-5c0.4-0.7,1-1.1,1.8-1.1c1,0,1.8,0.7,1.8,1.7c0,0.1,0,0.2,0,0.3
				V260z M402.1,251.4c0.4,0,0.7-0.3,0.7-0.7c0,0,0,0,0,0c0-0.4-0.3-0.7-0.7-0.7c0,0,0,0,0,0c-0.4,0-0.7,0.3-0.7,0.7c0,0,0,0,0,0
				C401.4,251.1,401.7,251.4,402.1,251.4C402.1,251.4,402.1,251.4,402.1,251.4L402.1,251.4z M402.6,253.2h-1v6.8h1V253.2z
				 M404.2,259c0.7,0.7,1.7,1.1,2.8,1.1c1.5,0,2.7-1,2.6-2.1c0-1-0.6-1.6-2-1.8l-1.1-0.2c-0.8-0.2-1.2-0.4-1.2-1
				c0-0.7,0.6-1.1,1.5-1.1c0.8,0,1.5,0.3,2.1,0.8l0.5-0.7c-0.7-0.6-1.7-0.9-2.6-0.9c-1.4,0-2.5,0.8-2.5,2c0,1,0.7,1.6,1.9,1.8
				l1.1,0.2c0.9,0.2,1.2,0.4,1.2,1c0,0.7-0.6,1.2-1.7,1.2c-0.8,0-1.6-0.3-2.2-0.9L404.2,259z M415.4,258.5c0,1.1,0.6,1.7,1.8,1.7
				c0.4,0,0.8-0.1,1.2-0.2V259c-0.3,0.1-0.6,0.2-1,0.2c-0.7,0-1-0.3-1-1V254h2v-0.8h-2v-2l-1,0.2v1.7H414v0.8h1.4V258.5z
				 M419.5,256.6c-0.1,1.9,1.3,3.5,3.2,3.6c0,0,0.1,0,0.1,0c1.9,0,3.4-1.6,3.3-3.4c0,0,0-0.1,0-0.1c0.1-1.9-1.3-3.4-3.2-3.5
				c0,0-0.1,0-0.1,0c-1.9,0-3.3,1.5-3.3,3.4C419.5,256.5,419.5,256.5,419.5,256.6z M425.1,256.6c0.1,1.3-0.9,2.5-2.2,2.6
				c0,0-0.1,0-0.1,0c-1.3,0-2.4-1.2-2.3-2.5c0,0,0-0.1,0-0.1c-0.1-1.3,0.9-2.5,2.2-2.6c0,0,0.1,0,0.1,0c1.3,0,2.4,1.2,2.3,2.5
				C425.1,256.5,425.1,256.6,425.1,256.6L425.1,256.6z M427.7,256.6c-0.1,1.9,1.3,3.5,3.2,3.6c0,0,0.1,0,0.1,0
				c1.9,0,3.4-1.6,3.3-3.4c0,0,0-0.1,0-0.1c0.1-1.9-1.3-3.4-3.2-3.5c0,0-0.1,0-0.1,0c-1.9,0-3.3,1.5-3.3,3.4
				C427.7,256.5,427.7,256.5,427.7,256.6z M433.4,256.6c0.1,1.3-0.9,2.5-2.2,2.6c0,0-0.1,0-0.1,0c-1.3,0-2.4-1.2-2.3-2.5
				c0,0,0-0.1,0-0.1c-0.1-1.3,0.9-2.5,2.2-2.6c0,0,0.1,0,0.1,0c1.3,0,2.4,1.2,2.3,2.5C433.4,256.5,433.4,256.6,433.4,256.6
				L433.4,256.6z M437.3,250l-1,0.2v9.8h1V250z M440.3,258.5c0,1.1,0.6,1.7,1.8,1.7c0.4,0,0.8-0.1,1.2-0.2V259
				c-0.3,0.1-0.6,0.2-1,0.2c-0.7,0-1-0.3-1-1V254h2v-0.8h-2v-2l-1,0.2v1.7h-1.4v0.8h1.4L440.3,258.5z M445.4,251.4
				c0.4,0,0.7-0.3,0.7-0.7c0,0,0,0,0,0c0-0.4-0.3-0.7-0.7-0.7c0,0,0,0,0,0c-0.4,0-0.7,0.3-0.7,0.7c0,0,0,0,0,0
				C444.6,251.1,444.9,251.4,445.4,251.4C445.3,251.4,445.3,251.4,445.4,251.4L445.4,251.4z M445.9,253.2h-1v6.8h1V253.2z
				 M448,262.8h1v-3.7c0.5,0.6,1.3,1,2.1,1c1.8-0.1,3.3-1.6,3.2-3.4c0,0,0-0.1,0-0.1c0.1-1.8-1.3-3.4-3.1-3.5c0,0,0,0-0.1,0
				c-0.9,0-1.7,0.4-2.2,1.1v-1h-1V262.8z M451,254c1.4,0,2.4,1.1,2.4,2.5c0,0,0,0.1,0,0.1c0.1,1.3-0.9,2.5-2.3,2.6c0,0-0.1,0-0.1,0
				c-0.8,0-1.5-0.3-1.9-1v-3.3C449.5,254.3,450.2,254,451,254z M460.2,251.4c0.4,0,0.7-0.3,0.7-0.7c0,0,0,0,0,0
				c0-0.4-0.3-0.7-0.7-0.7c0,0,0,0,0,0c-0.4,0-0.7,0.3-0.7,0.7c0,0,0,0,0,0C459.5,251.1,459.8,251.4,460.2,251.4
				C460.2,251.4,460.2,251.4,460.2,251.4L460.2,251.4z M460.7,253.2h-1v6.8h1L460.7,253.2z M462.2,259c0.7,0.7,1.7,1.1,2.8,1.1
				c1.5,0,2.7-1,2.6-2.1c0-1-0.6-1.6-2-1.8l-1.1-0.2c-0.8-0.2-1.2-0.4-1.2-1c0-0.7,0.6-1.1,1.5-1.1c0.8,0,1.5,0.3,2.1,0.8l0.5-0.7
				c-0.7-0.6-1.7-0.9-2.6-0.9c-1.4,0-2.5,0.8-2.5,2c0,1,0.7,1.6,1.9,1.8l1.1,0.2c0.9,0.2,1.2,0.4,1.2,1c0,0.7-0.6,1.2-1.7,1.2
				c-0.8,0-1.6-0.3-2.2-0.9L462.2,259z M477.3,260h1v-4.4c0.1-1.3-0.9-2.4-2.2-2.5c-0.1,0-0.2,0-0.2,0c-0.9,0-1.7,0.5-2.2,1.2V250
				l-1,0.2v9.8h1v-5c0.4-0.7,1-1.1,1.8-1.1c1,0,1.8,0.7,1.8,1.7c0,0.1,0,0.2,0,0.3V260z M482.6,260.1c0.8,0,1.6-0.3,2.2-0.9v0.8h1
				v-4.5c0-1.6-1-2.4-2.6-2.4c-0.9,0-1.8,0.2-2.6,0.7l0.4,0.8c0.6-0.4,1.3-0.6,2.1-0.6c1.1,0,1.8,0.5,1.8,1.7v0.9
				c-0.6-0.4-1.3-0.5-2.1-0.5c-1.5,0-2.6,0.8-2.6,2c0,1.2,1.1,2.2,2.3,2.1C482.5,260.1,482.6,260.1,482.6,260.1z M481.1,258
				c0-0.8,0.7-1.3,1.7-1.3c0.7,0,1.3,0.2,1.9,0.5v1.3c-0.5,0.5-1.2,0.8-2,0.8C481.8,259.3,481.1,258.8,481.1,258z M488,260h1v-4.7
				c0.2-0.8,1-1.4,1.8-1.4c0.2,0,0.5,0,0.7,0.1v-0.9c-0.2-0.1-0.4-0.1-0.6-0.1c-0.9,0-1.7,0.6-1.9,1.5v-1.4h-1V260z M497.6,260h1
				v-10l-1,0.2v3.8c-0.5-0.6-1.3-0.9-2.1-0.9c-1.8,0.1-3.3,1.6-3.2,3.4c0,0,0,0.1,0,0.1c-0.1,1.8,1.3,3.4,3.1,3.5c0,0,0,0,0.1,0
				c0.8,0,1.7-0.4,2.2-1L497.6,260z M493.3,256.6c-0.1-1.3,0.9-2.5,2.2-2.6c0,0,0.1,0,0.1,0c0.7,0,1.5,0.3,1.9,0.9v3.4
				c-0.5,0.6-1.2,0.9-1.9,0.9c-1.3,0-2.4-1.1-2.4-2.5C493.3,256.7,493.3,256.6,493.3,256.6L493.3,256.6z M505,258.5
				c0,1.1,0.6,1.7,1.8,1.7c0.4,0,0.8-0.1,1.2-0.2V259c-0.3,0.1-0.6,0.2-1,0.2c-0.7,0-1-0.3-1-1V254h2v-0.8h-2v-2l-1,0.2v1.7h-1.4
				v0.8h1.4V258.5z M509,256.6c-0.1,1.9,1.3,3.5,3.2,3.6c0,0,0.1,0,0.1,0c1.9,0,3.4-1.6,3.4-3.4c0,0,0-0.1,0-0.1
				c0.1-1.9-1.3-3.4-3.2-3.5c0,0-0.1,0-0.1,0c-1.9,0-3.3,1.5-3.3,3.4C509,256.5,509,256.5,509,256.6z M514.7,256.6
				c0.1,1.3-0.9,2.5-2.2,2.6c0,0-0.1,0-0.1,0c-1.3,0-2.4-1.2-2.3-2.5c0,0,0-0.1,0-0.1c-0.1-1.3,0.9-2.5,2.2-2.6c0,0,0.1,0,0.1,0
				c1.3,0,2.4,1.2,2.3,2.5C514.7,256.5,514.7,256.6,514.7,256.6L514.7,256.6z M520.3,259c0.7,0.7,1.7,1.1,2.8,1.1
				c1.5,0,2.7-1,2.6-2.1c0-1-0.6-1.6-2-1.8l-1.1-0.2c-0.8-0.2-1.2-0.4-1.2-1c0-0.7,0.6-1.1,1.5-1.1c0.8,0,1.5,0.3,2.1,0.8l0.5-0.7
				c-0.7-0.6-1.7-0.9-2.6-0.9c-1.4,0-2.5,0.8-2.5,2c0,1,0.7,1.6,1.9,1.8l1.1,0.2c0.9,0.2,1.2,0.4,1.2,1c0,0.7-0.6,1.2-1.7,1.2
				c-0.8,0-1.6-0.3-2.2-0.9L520.3,259z M527.2,256.6c-0.1,1.9,1.4,3.5,3.3,3.5c0,0,0.1,0,0.1,0c0.9,0,1.8-0.3,2.6-0.9l-0.6-0.7
				c-0.5,0.5-1.2,0.7-1.9,0.7c-1.3,0-2.4-1.1-2.4-2.4h5.4v-0.3c0.1-1.8-1.2-3.3-3-3.4c0,0-0.1,0-0.1,0
				C528.5,253.1,527.1,254.6,527.2,256.6C527.1,256.5,527.1,256.6,527.2,256.6z M530.4,254c1.1,0.1,2.1,1,2.1,2.1h-4.3
				C528.3,254.9,529.2,254,530.4,254z M535.1,256.6c-0.1,1.9,1.4,3.5,3.3,3.5c0,0,0.1,0,0.1,0c0.9,0,1.8-0.3,2.6-0.9l-0.6-0.7
				c-0.5,0.5-1.2,0.7-1.9,0.7c-1.3,0-2.4-1.1-2.4-2.4h5.4v-0.3c0.1-1.8-1.2-3.3-3-3.4c0,0-0.1,0-0.1,0
				C536.5,253.1,535,254.6,535.1,256.6C535.1,256.5,535.1,256.6,535.1,256.6z M538.3,254c1.1,0.1,2.1,1,2.1,2.1h-4.3
				C536.2,254.9,537.1,254,538.3,254z M543.4,258.6c-0.4,0-0.7,0.3-0.7,0.8c0,0,0,0,0,0c0,0.4,0.3,0.8,0.7,0.8
				c0.4,0,0.7-0.3,0.7-0.8C544.1,258.9,543.8,258.6,543.4,258.6z"/>
		</g>
	</g>
</g>
</svg>
