<svg xmlns="http://www.w3.org/2000/svg" width="195" height="143"><defs><filter id="a" width="21" height="26" x="87.5" y="104.5" filterUnits="userSpaceOnUse"><feOffset dy="2"/><feGaussianBlur stdDeviation="1.5" result="b"/><feFlood flood-opacity=".251"/><feComposite operator="in" in2="b"/><feComposite in="SourceGraphic"/></filter><filter id="b" width="195" height="78" x="0" y="0" filterUnits="userSpaceOnUse"><feOffset dy="3"/><feGaussianBlur stdDeviation="2" result="d"/><feFlood flood-opacity=".102"/><feComposite operator="in" in2="d"/><feComposite in="SourceGraphic"/></filter></defs><g transform="translate(-763 -2919) translate(68 -73)"><rect width="163" height="56" fill="#e00" rx="3" transform="translate(711 3079)"/><text fill="#fff" transform="translate(743 3113)" font-size="16" font-family="RedHatDisplay-Bold, RedHatDisplay" font-weight="700"><tspan x="0" y="0">Call to action</tspan></text></g><g transform="translate(0 0)" filter="url(#a)"><path d="M92.5 122.8v-14.6l10.3 10.3h-6l-.15.15-4.15 4.14z"/><path fill="#fff" d="M93 121.6l3.3-3.3.3-.3h5l-8.6-8.6v12.2m-1 2.4v-17l12 12h-7l-5 5z"/></g><path fill="#151515" d="M98 79L88 69h20z"/><rect width="183" height="66" fill="#151515" rx="3" transform="translate(6 3)" filter="url(#b)"/><text fill="#fff" transform="translate(30 41)" font-size="14" font-family="RedHatText-Regular, RedHatText"><tspan x="0" y="0">This is a call to action.</tspan></text></svg>