<svg xmlns="http://www.w3.org/2000/svg" xmlns:xlink="http://www.w3.org/1999/xlink" width="1000" height="95" viewBox="0 0 1000 95">
  <defs>
    <filter id="Shape" x="362" y="0" width="276.001" height="72" filterUnits="userSpaceOnUse">
      <feOffset dy="3" input="SourceAlpha"/>
      <feGaussianBlur stdDeviation="2" result="blur"/>
      <feFlood flood-opacity="0.102"/>
      <feComposite operator="in" in2="blur"/>
      <feComposite in="SourceGraphic"/>
    </filter>
  </defs>
  <g id="tooltip-responsive-small-screens" transform="translate(-360 -12755)">
    <g id="Grid" opacity="0.02">
      <rect id="Rectangle" width="65" height="92" transform="translate(1295 12758)" fill="red"/>
      <rect id="Rectangle-2" data-name="Rectangle" width="65" height="92" transform="translate(1210 12758)" fill="red"/>
      <rect id="Rectangle-3" data-name="Rectangle" width="65" height="92" transform="translate(1125 12758)" fill="red"/>
      <rect id="Rectangle-4" data-name="Rectangle" width="65" height="92" transform="translate(1040 12758)" fill="red"/>
      <rect id="Rectangle-5" data-name="Rectangle" width="65" height="92" transform="translate(955 12758)" fill="red"/>
      <rect id="Rectangle-6" data-name="Rectangle" width="65" height="92" transform="translate(870 12758)" fill="red"/>
      <rect id="Rectangle-7" data-name="Rectangle" width="65" height="92" transform="translate(785 12758)" fill="red"/>
      <rect id="Rectangle-8" data-name="Rectangle" width="65" height="92" transform="translate(700 12758)" fill="red"/>
      <rect id="Rectangle-9" data-name="Rectangle" width="65" height="92" transform="translate(615 12758)" fill="red"/>
      <rect id="Rectangle-10" data-name="Rectangle" width="65" height="92" transform="translate(530 12758)" fill="red"/>
      <rect id="Rectangle-11" data-name="Rectangle" width="65" height="92" transform="translate(445 12758)" fill="red"/>
      <rect id="Rectangle-12" data-name="Rectangle" width="65" height="92" transform="translate(360 12758)" fill="red"/>
    </g>
    <g id="Image" transform="translate(444 12614)">
      <g id="Icon" transform="translate(-164 4)">
        <path id="Icon-2" data-name="Icon" d="M16,8a8,8,0,1,0,8,8A8,8,0,0,0,16,8Zm0,14.452A6.452,6.452,0,1,1,22.452,16,6.448,6.448,0,0,1,16,22.452Zm3.459-8.232c0,2.163-2.336,2.2-2.336,3v.2a.387.387,0,0,1-.387.387H15.264a.387.387,0,0,1-.387-.387V17.14c0-1.153.874-1.614,1.535-1.984.566-.318.914-.534.914-.954,0-.556-.71-.926-1.283-.926-.748,0-1.093.354-1.579.967a.387.387,0,0,1-.538.069l-.9-.681a.388.388,0,0,1-.085-.528,3.626,3.626,0,0,1,3.244-1.748A3.2,3.2,0,0,1,19.459,14.219Zm-2.1,5.394A1.355,1.355,0,1,1,16,18.258,1.356,1.356,0,0,1,17.355,19.613Z" transform="translate(564 204)"/>
        <rect id="Rectangle-13" data-name="Rectangle" width="24" height="24" transform="translate(568 208)" fill="none"/>
      </g>
      <g id="Tooltip_Top_Light_theme" data-name="Tooltip / Top / Light theme" transform="translate(284 144)">
        <g transform="matrix(1, 0, 0, 1, -368, -3)" filter="url(#Shape)">
          <path id="Shape-2" data-name="Shape" d="M-162-94H-284v-50H-20v50H-142l-10,10Z" transform="translate(652 147)" fill="#151515"/>
        </g>
        <text id="Here_is_information_you_should_know." data-name="Here is information you should know." transform="translate(132 30)" fill="#fff" font-size="14" font-family="RedHatText-Regular, Red Hat Text" letter-spacing="0.01em"><tspan x="-115.78" y="0">Here is information you should know.</tspan></text>
      </g>
    </g>
  </g>
</svg>
