<svg version="1.1" id="Layer_1" xmlns="http://www.w3.org/2000/svg" x="0" y="0" viewBox="0 0 292 117.5" xml:space="preserve"><style>.st0{fill:#fff}.st1{fill:#151515}</style><path d="M594 4441c-3.9 0-7 3.1-7 7s3.1 7 7 7 7-3.1 7-7-3.1-7-7-7zm0 12.6c-3.1 0-5.6-2.5-5.6-5.6s2.5-5.6 5.6-5.6 5.6 2.5 5.6 5.6c0 3.1-2.5 5.6-5.6 5.6zm3-7.2c0 1.9-2 1.9-2 2.6v.2c0 .2-.2.3-.3.3h-1.3c-.2 0-.3-.2-.3-.3v-.2c0-1 .8-1.4 1.3-1.7.5-.3.8-.5.8-.8 0-.5-.6-.8-1.1-.8-.7 0-1 .3-1.4.8-.1.1-.3.2-.5.1l-.8-.6c-.1-.1-.2-.3-.1-.5.6-1 1.7-1.6 2.8-1.5 1.5-.1 2.8 1 2.9 2.4zm-1.8 4.8c0 .7-.5 1.2-1.2 1.2s-1.2-.5-1.2-1.2.5-1.2 1.2-1.2 1.2.5 1.2 1.2z" transform="translate(-448 -4354)"/><path d="M.5 15.8V1.2l10.3 10.3h-6l-.1.1-4.2 4.2z" transform="translate(146 94)"/><path class="st0" d="M1 14.6l3.3-3.3.3-.3h5L1 2.4v12.2M0 17V0l12 12H5l-5 5z" transform="translate(146 94)"/><g><path class="st1" d="M497 298l-10-10h20l-10 10z" transform="translate(-351 -219)"/><path class="st1" d="M9 3h274c1.7 0 3 1.3 3 3v60c0 1.7-1.3 3-3 3H9c-1.7 0-3-1.3-3-3V6c0-1.7 1.3-3 3-3z"/><text transform="translate(30 41)" class="st0" font-size="14" font-family="RedHatText-Regular">Here is information you should know.</text></g></svg>