<svg xmlns="http://www.w3.org/2000/svg" xmlns:xlink="http://www.w3.org/1999/xlink" width="360" height="640" viewBox="0 0 360 640"><defs><filter id="a" x="37" y="263" width="287" height="78" filterUnits="userSpaceOnUse"><feOffset dy="3" input="SourceAlpha"/><feGaussianBlur stdDeviation="2" result="b"/><feFlood flood-opacity="0.102"/><feComposite operator="in" in2="b"/><feComposite in="SourceGraphic"/></filter></defs><g transform="translate(-360 -5052)"><g transform="translate(0 32)"><path d="M15,8a7,7,0,1,0,7,7A7,7,0,0,0,15,8Zm0,12.645A5.645,5.645,0,1,1,20.645,15,5.642,5.642,0,0,1,15,20.645Zm3.027-7.2c0,1.893-2.044,1.922-2.044,2.621v.179a.339.339,0,0,1-.339.339H14.356a.339.339,0,0,1-.339-.339V16c0-1.009.765-1.412,1.343-1.736.5-.278.8-.467.8-.835,0-.487-.621-.81-1.123-.81-.655,0-.957.31-1.381.846a.339.339,0,0,1-.47.06l-.785-.6a.339.339,0,0,1-.075-.462,3.173,3.173,0,0,1,2.839-1.529A2.8,2.8,0,0,1,18.027,13.442Zm-1.842,4.719A1.185,1.185,0,1,1,15,16.976,1.187,1.187,0,0,1,16.185,18.161Z" transform="translate(526 5362)"/><circle cx="22" cy="22" r="22" transform="translate(519 5355)" fill="red" opacity="0.5"/><g transform="translate(43 5064)"><path d="M10,0,20,10H0Z" transform="translate(508 298) rotate(180)" fill="#151515"/><g transform="matrix(1, 0, 0, 1, 317, -44)" filter="url(#a)"><rect width="275" height="66" rx="3" transform="translate(43 266)" fill="#151515"/></g><text transform="translate(384 260)" fill="#fff" font-size="14" font-family="RedHatText-Regular, Red Hat Text"><tspan x="0" y="0">Here is information you should know.</tspan></text></g></g><g transform="translate(0 206)" opacity="0.03"><rect width="16" height="640" transform="translate(704 4846)" fill="blue"/><rect width="328" height="640" transform="translate(376 4846)" fill="red"/><rect width="16" height="640" transform="translate(360 4846)" fill="blue"/></g></g></svg>