<svg xmlns="http://www.w3.org/2000/svg" xmlns:xlink="http://www.w3.org/1999/xlink" width="671.5" height="282" viewBox="0 0 671.5 282">
  <defs>
    <filter id="Rectangle" x="344" y="204" width="292" height="78" filterUnits="userSpaceOnUse">
      <feOffset dy="3" input="SourceAlpha"/>
      <feGaussianBlur stdDeviation="2" result="blur"/>
      <feFlood flood-opacity="0.102"/>
      <feComposite operator="in" in2="blur"/>
      <feComposite in="SourceGraphic"/>
    </filter>
    <filter id="Cursor" x="320.5" y="237.5" width="21" height="26" filterUnits="userSpaceOnUse">
      <feOffset dy="2" input="SourceAlpha"/>
      <feGaussianBlur stdDeviation="1.5" result="blur-2"/>
      <feFlood flood-opacity="0.251"/>
      <feComposite operator="in" in2="blur-2"/>
      <feComposite in="SourceGraphic"/>
    </filter>
    <filter id="Rectangle-2" x="0" y="204" width="292" height="78" filterUnits="userSpaceOnUse">
      <feOffset dy="3" input="SourceAlpha"/>
      <feGaussianBlur stdDeviation="2" result="blur-3"/>
      <feFlood flood-opacity="0.102"/>
      <feComposite operator="in" in2="blur-3"/>
      <feComposite in="SourceGraphic"/>
    </filter>
    <filter id="Cursor-2" x="141.5" y="179.5" width="21" height="26" filterUnits="userSpaceOnUse">
      <feOffset dy="2" input="SourceAlpha"/>
      <feGaussianBlur stdDeviation="1.5" result="blur-4"/>
      <feFlood flood-opacity="0.251"/>
      <feComposite operator="in" in2="blur-4"/>
      <feComposite in="SourceGraphic"/>
    </filter>
    <filter id="Cursor-3" x="650.5" y="33.5" width="21" height="26" filterUnits="userSpaceOnUse">
      <feOffset dy="2" input="SourceAlpha"/>
      <feGaussianBlur stdDeviation="1.5" result="blur-5"/>
      <feFlood flood-opacity="0.251"/>
      <feComposite operator="in" in2="blur-5"/>
      <feComposite in="SourceGraphic"/>
    </filter>
    <filter id="Rectangle-3" x="344" y="0" width="292" height="78" filterUnits="userSpaceOnUse">
      <feOffset dy="3" input="SourceAlpha"/>
      <feGaussianBlur stdDeviation="2" result="blur-6"/>
      <feFlood flood-opacity="0.102"/>
      <feComposite operator="in" in2="blur-6"/>
      <feComposite in="SourceGraphic"/>
    </filter>
    <filter id="Cursor-4" x="141.5" y="91.5" width="21" height="26" filterUnits="userSpaceOnUse">
      <feOffset dy="2" input="SourceAlpha"/>
      <feGaussianBlur stdDeviation="1.5" result="blur-7"/>
      <feFlood flood-opacity="0.251"/>
      <feComposite operator="in" in2="blur-7"/>
      <feComposite in="SourceGraphic"/>
    </filter>
    <filter id="Rectangle-4" x="0" y="0" width="292" height="78" filterUnits="userSpaceOnUse">
      <feOffset dy="3" input="SourceAlpha"/>
      <feGaussianBlur stdDeviation="2" result="blur-8"/>
      <feFlood flood-opacity="0.102"/>
      <feComposite operator="in" in2="blur-8"/>
      <feComposite in="SourceGraphic"/>
    </filter>
  </defs>
  <g id="tooltip-orientations" transform="translate(-542 -2284)">
    <g id="Right" transform="translate(386 156)">
      <g id="Tooltip" transform="translate(146 2113)">
        <g id="Box">
          <g transform="matrix(1, 0, 0, 1, 10, 15)" filter="url(#Rectangle)">
            <rect id="Rectangle-5" data-name="Rectangle" width="280" height="66" rx="3" transform="translate(350 207)" fill="#151515"/>
          </g>
          <text id="Here_is_information_you_should_know." data-name="Here is information you should know." transform="translate(384 260)" fill="#fff" font-size="14" font-family="RedHatText-Regular, RedHatText" letter-spacing="0.01em"><tspan x="0" y="0">Here is information you should know.</tspan></text>
        </g>
        <path id="Polygon" d="M10,0,20,10H0Z" transform="translate(350 265) rotate(-90)" fill="#151515"/>
      </g>
      <path id="Icon" d="M15,8a7,7,0,1,0,7,7A7,7,0,0,0,15,8Zm0,12.645A5.645,5.645,0,1,1,20.645,15,5.642,5.642,0,0,1,15,20.645Zm3.027-7.2c0,1.893-2.044,1.922-2.044,2.621v.179a.339.339,0,0,1-.339.339H14.356a.339.339,0,0,1-.339-.339V16c0-1.009.765-1.412,1.343-1.736.5-.278.8-.467.8-.835,0-.487-.621-.81-1.123-.81-.655,0-.957.31-1.381.846a.339.339,0,0,1-.47.06l-.785-.6a.339.339,0,0,1-.075-.462,3.173,3.173,0,0,1,2.839-1.529A2.8,2.8,0,0,1,18.027,13.442Zm-1.842,4.719A1.185,1.185,0,1,1,15,16.976,1.187,1.187,0,0,1,16.185,18.161Z" transform="translate(466 2353)"/>
      <g id="Cursor-5" data-name="Cursor" transform="translate(481 2368)">
        <g transform="matrix(1, 0, 0, 1, -325, -240)" filter="url(#Cursor)">
          <g id="Cursor-6" data-name="Cursor" transform="translate(325 240)">
            <path d="M 0.5 15.79290008544922 L 0.5 1.207100033760071 L 10.79290008544922 11.5 L 5 11.5 L 4.792890071868896 11.5 L 4.646450042724609 11.64645004272461 L 0.5 15.79290008544922 Z" stroke="none"/>
            <path d="M 1 14.58578014373779 L 4.292890071868896 11.29288959503174 L 4.585790157318115 11 L 5 11 L 9.585780143737793 11 L 1 2.414220094680786 L 1 14.58578014373779 M -8.881784197001252e-16 17 L -8.881784197001252e-16 0 L 12 12 L 5 12 L -8.881784197001252e-16 17 Z" stroke="none" fill="#fff"/>
          </g>
        </g>
      </g>
    </g>
    <g id="Bottom" transform="translate(36 156)">
      <g id="Tooltip-2" data-name="Tooltip" transform="translate(157 2113)">
        <g id="Box-2" data-name="Box" transform="translate(-5)">
          <g transform="matrix(1, 0, 0, 1, 354, 15)" filter="url(#Rectangle-2)">
            <rect id="Rectangle-6" data-name="Rectangle" width="280" height="66" rx="3" transform="translate(6 207)" fill="#151515"/>
          </g>
          <text id="Here_is_information_you_should_know.-2" data-name="Here is information you should know." transform="translate(384 260)" fill="#fff" font-size="14" font-family="RedHatText-Regular, RedHatText" letter-spacing="0.01em"><tspan x="0" y="0">Here is information you should know.</tspan></text>
        </g>
        <path id="Polygon-2" data-name="Polygon" d="M10,0,20,10H0Z" transform="translate(485 212)" fill="#151515"/>
      </g>
      <path id="Icon-2" data-name="Icon" d="M15,8a7,7,0,1,0,7,7A7,7,0,0,0,15,8Zm0,12.645A5.645,5.645,0,1,1,20.645,15,5.642,5.642,0,0,1,15,20.645Zm3.027-7.2c0,1.893-2.044,1.922-2.044,2.621v.179a.339.339,0,0,1-.339.339H14.356a.339.339,0,0,1-.339-.339V16c0-1.009.765-1.412,1.343-1.736.5-.278.8-.467.8-.835,0-.487-.621-.81-1.123-.81-.655,0-.957.31-1.381.846a.339.339,0,0,1-.47.06l-.785-.6a.339.339,0,0,1-.075-.462,3.173,3.173,0,0,1,2.839-1.529A2.8,2.8,0,0,1,18.027,13.442Zm-1.842,4.719A1.185,1.185,0,1,1,15,16.976,1.187,1.187,0,0,1,16.185,18.161Z" transform="translate(637 2295)"/>
      <g id="Cursor-7" data-name="Cursor" transform="translate(652 2310)">
        <g transform="matrix(1, 0, 0, 1, -146, -182)" filter="url(#Cursor-2)">
          <g id="Cursor-8" data-name="Cursor" transform="translate(146 182)">
            <path d="M 0.5 15.79290008544922 L 0.5 1.207100033760071 L 10.79290008544922 11.5 L 5 11.5 L 4.792890071868896 11.5 L 4.646450042724609 11.64645004272461 L 0.5 15.79290008544922 Z" stroke="none"/>
            <path d="M 1 14.58578014373779 L 4.292890071868896 11.29288959503174 L 4.585790157318115 11 L 5 11 L 9.585780143737793 11 L 1 2.414220094680786 L 1 14.58578014373779 M -8.881784197001252e-16 17 L -8.881784197001252e-16 0 L 12 12 L 5 12 L -8.881784197001252e-16 17 Z" stroke="none" fill="#fff"/>
          </g>
        </g>
      </g>
    </g>
    <g id="Left" transform="translate(375 -48)">
      <path id="Icon-3" data-name="Icon" d="M15,8a7,7,0,1,0,7,7A7,7,0,0,0,15,8Zm0,12.645A5.645,5.645,0,1,1,20.645,15,5.642,5.642,0,0,1,15,20.645Zm3.027-7.2c0,1.893-2.044,1.922-2.044,2.621v.179a.339.339,0,0,1-.339.339H14.356a.339.339,0,0,1-.339-.339V16c0-1.009.765-1.412,1.343-1.736.5-.278.8-.467.8-.835,0-.487-.621-.81-1.123-.81-.655,0-.957.31-1.381.846a.339.339,0,0,1-.47.06l-.785-.6a.339.339,0,0,1-.075-.462,3.173,3.173,0,0,1,2.839-1.529A2.8,2.8,0,0,1,18.027,13.442Zm-1.842,4.719A1.185,1.185,0,1,1,15,16.976,1.187,1.187,0,0,1,16.185,18.161Z" transform="translate(807 2353)"/>
      <g id="Cursor-9" data-name="Cursor" transform="translate(822 2368)">
        <g transform="matrix(1, 0, 0, 1, -655, -36)" filter="url(#Cursor-3)">
          <g id="Cursor-10" data-name="Cursor" transform="translate(655 36)">
            <path d="M 0.5 15.79290008544922 L 0.5 1.207100033760071 L 10.79290008544922 11.5 L 5 11.5 L 4.792890071868896 11.5 L 4.646450042724609 11.64645004272461 L 0.5 15.79290008544922 Z" stroke="none"/>
            <path d="M 1 14.58578014373779 L 4.292890071868896 11.29288959503174 L 4.585790157318115 11 L 5 11 L 9.585780143737793 11 L 1 2.414220094680786 L 1 14.58578014373779 M -8.881784197001252e-16 17 L -8.881784197001252e-16 0 L 12 12 L 5 12 L -8.881784197001252e-16 17 Z" stroke="none" fill="#fff"/>
          </g>
        </g>
      </g>
      <g id="Tooltip-3" data-name="Tooltip" transform="translate(157 2113)">
        <path id="Polygon-3" data-name="Polygon" d="M10,0,20,10H0Z" transform="translate(650 245) rotate(90)" fill="#151515"/>
        <g id="Box-3" data-name="Box">
          <g transform="matrix(1, 0, 0, 1, 10, 219)" filter="url(#Rectangle-3)">
            <rect id="Rectangle-7" data-name="Rectangle" width="280" height="66" rx="3" transform="translate(350 3)" fill="#151515"/>
          </g>
          <text id="Here_is_information_you_should_know.-3" data-name="Here is information you should know." transform="translate(384 260)" fill="#fff" font-size="14" font-family="RedHatText-Regular, RedHatText" letter-spacing="0.01em"><tspan x="0" y="0">Here is information you should know.</tspan></text>
        </g>
      </g>
    </g>
    <g id="Top" transform="translate(31 -48)">
      <path id="Icon-4" data-name="Icon" d="M15,8a7,7,0,1,0,7,7A7,7,0,0,0,15,8Zm0,12.645A5.645,5.645,0,1,1,20.645,15,5.642,5.642,0,0,1,15,20.645Zm3.027-7.2c0,1.893-2.044,1.922-2.044,2.621v.179a.339.339,0,0,1-.339.339H14.356a.339.339,0,0,1-.339-.339V16c0-1.009.765-1.412,1.343-1.736.5-.278.8-.467.8-.835,0-.487-.621-.81-1.123-.81-.655,0-.957.31-1.381.846a.339.339,0,0,1-.47.06l-.785-.6a.339.339,0,0,1-.075-.462,3.173,3.173,0,0,1,2.839-1.529A2.8,2.8,0,0,1,18.027,13.442Zm-1.842,4.719A1.185,1.185,0,1,1,15,16.976,1.187,1.187,0,0,1,16.185,18.161Z" transform="translate(642 2411)"/>
      <g id="Cursor-11" data-name="Cursor" transform="translate(657 2426)">
        <g transform="matrix(1, 0, 0, 1, -146, -94)" filter="url(#Cursor-4)">
          <g id="Cursor-12" data-name="Cursor" transform="translate(146 94)">
            <path d="M 0.5 15.79290008544922 L 0.5 1.207100033760071 L 10.79290008544922 11.5 L 5 11.5 L 4.792890071868896 11.5 L 4.646450042724609 11.64645004272461 L 0.5 15.79290008544922 Z" stroke="none"/>
            <path d="M 1 14.58578014373779 L 4.292890071868896 11.29288959503174 L 4.585790157318115 11 L 5 11 L 9.585780143737793 11 L 1 2.414220094680786 L 1 14.58578014373779 M -8.881784197001252e-16 17 L -8.881784197001252e-16 0 L 12 12 L 5 12 L -8.881784197001252e-16 17 Z" stroke="none" fill="#fff"/>
          </g>
        </g>
      </g>
      <g id="Tooltip-4" data-name="Tooltip" transform="translate(157 2113)">
        <path id="Polygon-4" data-name="Polygon" d="M10,0,20,10H0Z" transform="translate(508 298) rotate(180)" fill="#151515"/>
        <g id="Box-4" data-name="Box">
          <g transform="matrix(1, 0, 0, 1, 354, 219)" filter="url(#Rectangle-4)">
            <rect id="Rectangle-8" data-name="Rectangle" width="280" height="66" rx="3" transform="translate(6 3)" fill="#151515"/>
          </g>
          <text id="Here_is_information_you_should_know.-4" data-name="Here is information you should know." transform="translate(384 260)" fill="#fff" font-size="14" font-family="RedHatText-Regular, RedHatText" letter-spacing="0.01em"><tspan x="0" y="0">Here is information you should know.</tspan></text>
        </g>
      </g>
    </g>
  </g>
</svg>
