<svg xmlns="http://www.w3.org/2000/svg" width="287" height="116"><defs><filter id="a" width="287" height="78" x="0" y="0" filterUnits="userSpaceOnUse"><feOffset dy="3"/><feGaussianBlur result="b" stdDeviation="2"/><feFlood flood-opacity=".102"/><feComposite in2="b" operator="in"/><feComposite in="SourceGraphic"/></filter></defs><g transform="translate(-451 -4354)"><path d="M595 4441a7 7 0 107 7 7 7 0 00-7-7zm0 12.64a5.64 5.64 0 115.64-5.64 5.64 5.64 0 01-5.64 5.64zm3.03-7.2c0 1.9-2.05 1.93-2.05 2.63v.18a.34.34 0 01-.34.33h-1.28a.34.34 0 01-.34-.33v-.25c0-1 .76-1.41 1.34-1.74.5-.27.8-.46.8-.83 0-.49-.62-.81-1.12-.81-.66 0-.96.3-1.38.85a.34.34 0 01-.47.05l-.79-.6a.34.34 0 01-.07-.46 3.17 3.17 0 012.83-1.53 2.8 2.8 0 012.87 2.51zm-1.84 4.72a1.19 1.19 0 11-1.19-1.18 1.19 1.19 0 011.18 1.18z"/><circle cx="22" cy="22" r="22" fill="red" opacity=".5" transform="translate(573 4426)"/><path fill="#151515" d="M595 4433l-10-10h20z"/><g filter="url(#a)" transform="translate(451 4354)"><rect width="275" height="66" fill="#151515" rx="3" transform="translate(6 3)"/></g><text fill="#fff" font-family="RedHatText, RedHatText" font-size="14" transform="translate(481 4395)"><tspan x="0" y="0">Here is information you should know.</tspan></text></g></svg>