<?xml version="1.0" encoding="utf-8"?>
<!-- Generator: Adobe Illustrator 24.3.0, SVG Export Plug-In . SVG Version: 6.00 Build 0)  -->
<svg version="1.1" id="Layer_1" xmlns="http://www.w3.org/2000/svg" xmlns:xlink="http://www.w3.org/1999/xlink" x="0px" y="0px"
	 viewBox="0 0 297 117.5" style="enable-background:new 0 0 297 117.5;" xml:space="preserve">
<style type="text/css">
	.st0{fill:#FFFFFF;}
	.st1{fill:#151515;}
	.st2{fill:none;}
</style>
<g id="Lock-up" transform="translate(-447 -1953)">
	<path id="Icon" d="M595,2040c-3.9,0-7,3.1-7,7s3.1,7,7,7s7-3.1,7-7S598.9,2040,595,2040z M595,2052.6c-3.1,0-5.6-2.5-5.6-5.6
		s2.5-5.6,5.6-5.6s5.6,2.5,5.6,5.6C600.6,2050.1,598.1,2052.6,595,2052.6C595,2052.6,595,2052.6,595,2052.6z M598,2045.4
		c0,1.9-2,1.9-2,2.6v0.2c0,0.2-0.2,0.3-0.3,0.3c0,0,0,0,0,0h-1.3c-0.2,0-0.3-0.2-0.3-0.3l0,0v-0.2c0-1,0.8-1.4,1.3-1.7
		c0.5-0.3,0.8-0.5,0.8-0.8c0-0.5-0.6-0.8-1.1-0.8c-0.7,0-1,0.3-1.4,0.8c-0.1,0.1-0.3,0.2-0.5,0.1l-0.8-0.6c-0.1-0.1-0.2-0.3-0.1-0.5
		c0.6-1,1.7-1.6,2.8-1.5C596.6,2042.9,597.9,2044,598,2045.4L598,2045.4z M596.2,2050.2c0,0.7-0.5,1.2-1.2,1.2s-1.2-0.5-1.2-1.2
		c0-0.7,0.5-1.2,1.2-1.2C595.7,2049,596.2,2049.5,596.2,2050.2L596.2,2050.2z"/>
	<g id="Cursor-2" transform="translate(595 2047)">
		<g transform="matrix(1, 0, 0, 1, -148, -94)">
			<g id="Cursor-3" transform="translate(148 94)">
				<path d="M0.5,15.8V1.2l10.3,10.3H5H4.8l-0.1,0.1L0.5,15.8z"/>
				<path class="st0" d="M1,14.6l3.3-3.3L4.6,11H5h4.6L1,2.4V14.6 M0,17V0l12,12H5L0,17z"/>
			</g>
		</g>
	</g>
	<g id="Tooltip" transform="translate(96 1734)">
		<path id="Polygon" class="st1" d="M499,298l-10-10h20L499,298z"/>
		<rect id="Rectangle-2" x="489" y="268" class="st1" width="20" height="20"/>
		<g id="Box" transform="translate(-3)">
			<g transform="matrix(1, 0, 0, 1, 354, 219)">
				<path id="Rectangle-3" class="st1" d="M9,3h279c1.7,0,3,1.3,3,3v60c0,1.7-1.3,3-3,3H9c-1.7,0-3-1.3-3-3V6C6,4.3,7.3,3,9,3z"/>
			</g>
			<rect id="Rectangle-4" x="384" y="246" class="st2" width="237" height="18"/>
			<path id="Path" class="st0" d="M385.2,260h1.1v-4.5h5.6v4.5h1.1v-9.8h-1.1v4.4h-5.6v-4.4h-1.1V260z M401.1,259.2l-0.6-0.7
				c-0.5,0.5-1.2,0.7-1.9,0.7c-1.3,0-2.4-1.1-2.4-2.4h5.4v-0.3c0.1-1.8-1.2-3.3-3-3.4c0,0-0.1,0-0.1,0c-1.8,0.1-3.3,1.6-3.2,3.4
				c0,0,0,0.1,0,0.1c-0.1,1.9,1.4,3.5,3.3,3.5c0,0,0.1,0,0.1,0C399.4,260.1,400.3,259.8,401.1,259.2z M398.3,253.9
				c1.2,0.1,2.1,1,2.1,2.1h-4.3C396.2,254.9,397.2,254,398.3,253.9z M403.4,260h1v-4.7c0.2-0.8,1-1.4,1.8-1.4c0.2,0,0.5,0.1,0.7,0.1
				v-0.9c-0.2-0.1-0.4-0.1-0.6-0.1c-0.9,0-1.7,0.6-1.9,1.5v-1.4h-1V260z M413.6,259.2l-0.6-0.7c-0.5,0.5-1.2,0.7-1.9,0.7
				c-1.3,0-2.4-1.1-2.4-2.4h5.4v-0.3c0.1-1.8-1.2-3.3-3-3.4c0,0-0.1,0-0.1,0c-1.8,0.1-3.3,1.6-3.2,3.4c0,0,0,0.1,0,0.1
				c-0.1,1.9,1.4,3.5,3.3,3.5c0,0,0.1,0,0.1,0C412,260.1,412.9,259.8,413.6,259.2z M410.9,253.9c1.2,0.1,2.1,1,2.1,2.1h-4.3
				C408.8,254.9,409.7,254,410.9,253.9z M419.9,251.5c0.4,0,0.7-0.3,0.7-0.7c0,0,0,0,0,0c0-0.4-0.3-0.7-0.7-0.7
				c-0.4,0-0.7,0.3-0.7,0.7C419.1,251.1,419.4,251.5,419.9,251.5C419.8,251.5,419.8,251.5,419.9,251.5z M420.4,253.2h-1v6.8h1
				L420.4,253.2z M421.9,259.1c0.8,0.7,1.8,1,2.8,1c1.5,0,2.7-0.9,2.7-2.1c0-1-0.6-1.6-2-1.8l-1.1-0.2c-0.9-0.2-1.2-0.4-1.2-1
				c0-0.7,0.6-1.1,1.5-1.1c0.8,0,1.5,0.3,2.1,0.7l0.5-0.7c-0.8-0.6-1.7-0.9-2.6-0.9c-1.4,0-2.5,0.8-2.5,2c0,1,0.6,1.6,1.9,1.8
				l1.1,0.2c0.9,0.2,1.2,0.5,1.2,1c0,0.7-0.7,1.2-1.7,1.2c-0.8,0-1.6-0.3-2.2-0.9L421.9,259.1z M433,251.5c0.4,0,0.7-0.3,0.7-0.7
				c0,0,0,0,0,0c0-0.4-0.3-0.7-0.7-0.7c-0.4,0-0.7,0.3-0.7,0.7C432.2,251.1,432.6,251.5,433,251.5C433,251.5,433,251.5,433,251.5z
				 M433.5,253.2h-1v6.8h1L433.5,253.2z M435.7,260h1v-5c0.4-0.7,1-1.1,1.8-1.1c1,0,1.8,0.7,1.8,1.7c0,0.1,0,0.2,0,0.3v4.1h1v-4.4
				c0.1-1.3-0.9-2.4-2.2-2.5c-0.1,0-0.2,0-0.2,0c-0.9,0-1.7,0.4-2.2,1.2v-1.1h-1V260z M442.7,253.2v0.8h1.5v6h1v-6h1.9v-0.8h-1.9
				v-1.5c0-0.8,0.3-1.2,1.1-1.2c0.3,0,0.6,0,0.8,0.1v-0.9c-0.3-0.1-0.6-0.1-0.9-0.1c-1-0.1-1.9,0.7-2,1.7c0,0.1,0,0.3,0,0.4v1.5
				L442.7,253.2z M448.1,256.6c-0.1,1.9,1.3,3.5,3.2,3.6c0,0,0.1,0,0.1,0c1.9,0,3.4-1.6,3.3-3.4c0,0,0-0.1,0-0.1
				c0.1-1.8-1.3-3.4-3.2-3.5c-0.1,0-0.1,0-0.2,0c-1.9,0-3.3,1.5-3.3,3.4C448.1,256.5,448.1,256.5,448.1,256.6z M451.4,259.2
				c-1.3,0-2.4-1.2-2.3-2.5c0,0,0-0.1,0-0.1c-0.1-1.3,0.9-2.5,2.2-2.6c0,0,0.1,0,0.1,0c1.3,0.1,2.4,1.2,2.3,2.5c0,0,0,0.1,0,0.1
				c0.1,1.3-0.9,2.5-2.2,2.6C451.5,259.2,451.4,259.2,451.4,259.2z M456.7,260h1v-4.7c0.2-0.8,1-1.4,1.8-1.4c0.2,0,0.5,0.1,0.7,0.1
				v-0.9c-0.2-0.1-0.4-0.1-0.6-0.1c-0.9,0-1.7,0.6-1.9,1.5v-1.4h-1V260z M461.7,260h1v-5.1c0.3-0.6,1-1,1.7-1c0.9,0,1.7,0.8,1.7,1.7
				c0,0.1,0,0.2,0,0.2v4.2h1v-4.4c0-0.2,0-0.4-0.1-0.6c0.3-0.7,1-1.1,1.7-1.1c1,0,1.7,0.7,1.7,1.9v4.2h1v-4.4
				c0.1-1.3-0.8-2.4-2.1-2.5c-0.1,0-0.1,0-0.2,0c-1,0-1.8,0.5-2.3,1.3c-0.4-0.8-1.2-1.4-2.1-1.3c-0.8,0-1.6,0.4-2,1.2v-1.1h-1V260z
				 M475.8,260.1c0.8,0,1.6-0.3,2.2-0.9v0.8h1v-4.5c0-1.6-1-2.4-2.6-2.4c-0.9,0-1.8,0.2-2.6,0.7l0.4,0.8c0.6-0.4,1.3-0.6,2.1-0.6
				c0.8-0.1,1.6,0.4,1.8,1.3c0,0.1,0,0.3,0,0.4v0.9c-0.6-0.4-1.4-0.5-2.1-0.5c-1.5,0-2.6,0.8-2.6,2c0.1,1.2,1.1,2.2,2.3,2.1
				C475.7,260.1,475.8,260.1,475.8,260.1z M474.3,258c0-0.8,0.7-1.3,1.7-1.3c0.7,0,1.4,0.1,1.9,0.5v1.3c-0.5,0.5-1.2,0.8-2,0.8
				C475,259.3,474.3,258.8,474.3,258L474.3,258z M481.8,258.5c0,1.1,0.6,1.7,1.8,1.7c0.4,0,0.8-0.1,1.2-0.2V259
				c-0.3,0.1-0.6,0.2-1,0.2c-0.7,0-1-0.3-1-1V254h2v-0.8h-2v-2.1l-1,0.2v1.9h-1.4v0.8h1.4L481.8,258.5z M487,251.5
				c0.4,0,0.7-0.3,0.7-0.7c0,0,0,0,0,0c0-0.4-0.3-0.7-0.7-0.7c-0.4,0-0.7,0.3-0.7,0.7C486.2,251.1,486.5,251.5,487,251.5
				C486.9,251.5,486.9,251.5,487,251.5L487,251.5z M487.5,253.2h-1v6.8h1V253.2z M489.4,256.6c-0.1,1.9,1.3,3.5,3.2,3.6
				c0,0,0.1,0,0.1,0c1.9,0,3.4-1.6,3.3-3.4c0,0,0-0.1,0-0.1c0.1-1.8-1.3-3.4-3.2-3.5c-0.1,0-0.1,0-0.2,0c-1.9,0-3.3,1.5-3.3,3.4
				C489.4,256.5,489.4,256.5,489.4,256.6L489.4,256.6z M492.7,259.2c-1.3,0-2.4-1.2-2.3-2.5c0,0,0-0.1,0-0.1
				c-0.1-1.3,0.9-2.5,2.2-2.6c0,0,0.1,0,0.1,0c1.3,0.1,2.4,1.2,2.3,2.5c0,0,0,0.1,0,0.1c0.1,1.3-0.9,2.5-2.2,2.6
				C492.8,259.2,492.7,259.2,492.7,259.2z M498,260h1v-5c0.4-0.7,1-1.1,1.8-1.1c1,0,1.8,0.7,1.8,1.7c0,0.1,0,0.2,0,0.3v4.1h1v-4.4
				c0.1-1.3-0.9-2.4-2.2-2.5c-0.1,0-0.2,0-0.2,0c-0.9,0-1.7,0.4-2.2,1.2v-1.1h-1L498,260z M510.1,258.5c0,1.1,0.6,1.7,1.8,1.7
				c0.4,0,0.8-0.1,1.2-0.2V259c-0.3,0.1-0.6,0.2-1,0.2c-0.7,0-1-0.3-1-1V254h2v-0.8h-2v-2.1l-1,0.2v1.9h-1.4v0.8h1.4V258.5z
				 M514.7,260h1v-5c0.4-0.7,1-1.1,1.8-1.1c1,0,1.8,0.7,1.8,1.7c0,0.1,0,0.2,0,0.3v4.1h1v-4.4c0.1-1.3-0.9-2.4-2.2-2.5
				c-0.1,0-0.2,0-0.2,0c-0.9,0-1.7,0.4-2.2,1.2v-4.5l-1,0.2L514.7,260z M524.7,260.1c0.8,0,1.6-0.3,2.2-0.9v0.8h1v-4.5
				c0-1.6-1-2.4-2.6-2.4c-0.9,0-1.8,0.2-2.6,0.7l0.4,0.8c0.6-0.4,1.3-0.6,2.1-0.6c0.8-0.1,1.6,0.4,1.8,1.3c0,0.1,0,0.3,0,0.4v0.9
				c-0.6-0.4-1.4-0.6-2.1-0.5c-1.5,0-2.6,0.8-2.6,2c0.1,1.2,1.1,2.2,2.3,2.1C524.5,260.1,524.6,260.1,524.7,260.1L524.7,260.1z
				 M523.2,258c0-0.8,0.7-1.3,1.7-1.3c0.7,0,1.3,0.1,1.9,0.5v1.3c-0.5,0.5-1.2,0.8-2,0.8C523.8,259.3,523.2,258.8,523.2,258
				L523.2,258z M530.6,258.5c0,1.1,0.6,1.7,1.8,1.7c0.4,0,0.8-0.1,1.2-0.2V259c-0.3,0.1-0.6,0.2-1,0.2c-0.7,0-1-0.3-1-1V254h2v-0.8
				h-2v-2.1l-1,0.2v1.9h-1.4v0.8h1.4V258.5z M541.8,259.2c-1.4,0-2.4-1.2-2.4-2.5c0,0,0,0,0-0.1c-0.1-1.4,1-2.5,2.4-2.6c0,0,0,0,0,0
				c0.7,0,1.4,0.3,1.9,0.9l0.7-0.7c-0.7-0.7-1.6-1.1-2.6-1.1c-1.9,0-3.4,1.6-3.4,3.4c0,0,0,0.1,0,0.1c-0.1,1.9,1.4,3.5,3.3,3.5
				c0,0,0,0,0.1,0c1,0,1.9-0.4,2.6-1.1l-0.6-0.6C543.2,258.9,542.5,259.2,541.8,259.2z M548.1,260.1c0.8,0,1.6-0.3,2.2-0.9v0.8h1
				v-4.5c0-1.6-1-2.4-2.6-2.4c-0.9,0-1.8,0.2-2.6,0.7l0.4,0.8c0.6-0.4,1.3-0.6,2.1-0.6c0.8-0.1,1.6,0.4,1.8,1.3c0,0.1,0,0.3,0,0.4
				v0.9c-0.6-0.4-1.4-0.6-2.1-0.5c-1.5,0-2.6,0.8-2.6,2c0.1,1.2,1.1,2.2,2.3,2.1C547.9,260.1,548,260.1,548.1,260.1L548.1,260.1z
				 M546.6,258c0-0.8,0.7-1.3,1.7-1.3c0.7,0,1.3,0.1,1.9,0.5v1.3c-0.5,0.5-1.2,0.8-2,0.8C547.2,259.3,546.6,258.8,546.6,258
				L546.6,258z M553.4,260h1v-5c0.4-0.7,1-1.1,1.8-1.1c1,0,1.8,0.7,1.8,1.7c0,0.1,0,0.2,0,0.3v4.1h1v-4.4c0.1-1.3-0.9-2.4-2.2-2.5
				c-0.1,0-0.2,0-0.2,0c-0.9,0-1.7,0.4-2.2,1.2v-1.1h-1V260z M564.7,260h1v-5c0.4-0.7,1-1.1,1.8-1.1c1,0,1.8,0.7,1.8,1.7
				c0,0.1,0,0.2,0,0.3v4.1h1v-4.4c0.1-1.3-0.9-2.4-2.2-2.5c-0.1,0-0.2,0-0.2,0c-0.9,0-1.7,0.4-2.2,1.2v-4.5l-1,0.2V260z
				 M578.2,259.2l-0.6-0.7c-0.5,0.5-1.2,0.7-1.9,0.7c-1.3,0-2.4-1.1-2.4-2.4h5.4v-0.3c0.1-1.8-1.2-3.3-3-3.4c0,0-0.1,0-0.1,0
				c-1.8,0.1-3.3,1.6-3.2,3.4c0,0,0,0.1,0,0.1c-0.1,1.9,1.4,3.5,3.3,3.5c0,0,0.1,0,0.1,0C576.6,260.1,577.5,259.8,578.2,259.2z
				 M575.5,253.9c1.2,0.1,2.1,1,2.1,2.1h-4.3C573.4,254.9,574.3,254,575.5,253.9z M581.5,249.8l-1,0.2v10h1V249.8z M583.8,262.9h1
				v-3.8c0.5,0.6,1.3,1,2.1,1c1.8-0.1,3.3-1.6,3.2-3.4c0,0,0,0,0-0.1c0.1-1.8-1.3-3.4-3.1-3.5c0,0,0,0-0.1,0c-0.9,0-1.7,0.4-2.2,1.1
				v-1h-1V262.9z M586.7,254c1.4,0,2.4,1.1,2.4,2.5c0,0,0,0.1,0,0.1c0.1,1.4-0.9,2.5-2.3,2.6c0,0-0.1,0-0.1,0c-0.8,0-1.5-0.3-1.9-1
				v-3.3C585.3,254.3,586,254,586.7,254z M596.8,261.1c-0.3,0.6-0.6,0.9-1.1,0.9c-0.2,0-0.4,0-0.6-0.1v0.9c0.2,0.1,0.4,0.1,0.7,0.1
				c1,0,1.5-0.4,2-1.5l3.4-8.2H600l-2.2,5.6l-2.1-5.6h-1.1l2.6,6.8L596.8,261.1z M602.1,256.6c-0.1,1.9,1.3,3.5,3.2,3.6
				c0,0,0.1,0,0.1,0c1.9,0,3.4-1.6,3.3-3.4c0,0,0-0.1,0-0.1c0.1-1.8-1.3-3.4-3.2-3.5c-0.1,0-0.1,0-0.2,0c-1.9,0-3.3,1.5-3.3,3.4
				C602.1,256.5,602.1,256.5,602.1,256.6z M605.4,259.2c-1.3,0-2.4-1.2-2.3-2.5c0,0,0-0.1,0-0.1c-0.1-1.3,0.9-2.5,2.2-2.6
				c0,0,0.1,0,0.1,0c1.3,0.1,2.4,1.2,2.3,2.5c0,0,0,0.1,0,0.1c0.1,1.3-0.9,2.5-2.2,2.6C605.5,259.2,605.4,259.2,605.4,259.2z
				 M611.7,253.2h-1v4.4c-0.1,1.3,0.9,2.5,2.2,2.5c0.1,0,0.2,0,0.2,0c0.9,0,1.7-0.4,2.2-1.2v1.1h1v-6.8h-1v5.1c-0.4,0.6-1.1,1-1.8,1
				c-1,0-1.8-0.7-1.8-1.7c0-0.1,0-0.2,0-0.3V253.2z M619,258.6c-0.4,0-0.7,0.3-0.7,0.8c0,0.4,0.3,0.8,0.7,0.8c0,0,0,0,0,0
				c0.4,0,0.7-0.4,0.7-0.8C619.8,258.9,619.4,258.6,619,258.6L619,258.6z"/>
		</g>
	</g>
</g>
</svg>
