<svg xmlns="http://www.w3.org/2000/svg" xmlns:xlink="http://www.w3.org/1999/xlink" width="266" height="111" viewBox="0 0 266 111"><defs><style>.a{fill:#fff;}.b{fill:#151515;}.c{filter:url(#a);}</style><filter id="a" x="0" y="0" width="266" height="78" filterUnits="userSpaceOnUse"><feOffset dy="3" input="SourceAlpha"/><feGaussianBlur stdDeviation="2" result="b"/><feFlood flood-opacity="0.102"/><feComposite operator="in" in2="b"/><feComposite in="SourceGraphic"/></filter></defs><g transform="translate(-993 -1953)"><path d="M15,8a7,7,0,1,0,7,7,7,7,0,0,0-7-7Zm0,3.1a1.185,1.185,0,1,1-1.185,1.185A1.185,1.185,0,0,1,15,11.1Zm1.581,7.169a.339.339,0,0,1-.339.339H13.758a.339.339,0,0,1-.339-.339V17.6a.339.339,0,0,1,.339-.339H14.1V15.452h-.339a.339.339,0,0,1-.339-.339v-.677a.339.339,0,0,1,.339-.339h1.806a.339.339,0,0,1,.339.339v2.823h.339a.339.339,0,0,1,.339.339Z" transform="translate(1111 2032)"/><g transform="translate(1126 2047)"><path d="M.5,15.793V1.207L10.793,11.5h-6l-.146.146Z"/><path class="a" d="M1,14.586l3.293-3.293L4.586,11h5L1,2.414V14.586M0,17V0L12,12H5Z"/></g><g transform="translate(639 1734)"><path class="b" d="M10,0,20,10H0Z" transform="translate(497 298) rotate(180)"/><g class="c" transform="matrix(1, 0, 0, 1, 354, 219)"><rect class="b" width="254" height="66" rx="3" transform="translate(6 3)"/></g><path class="a" d="M1.232,0H2.31V-4.452H7.938V0H9.016V-9.8H7.938v4.382H2.31V-9.8H1.232Zm9.856-3.416A3.418,3.418,0,0,0,14.476.126a3.935,3.935,0,0,0,2.562-.91l-.644-.7a2.792,2.792,0,0,1-1.876.7A2.459,2.459,0,0,1,12.1-3.206h5.362V-3.5a3.236,3.236,0,0,0-3.136-3.444A3.336,3.336,0,0,0,11.088-3.416Zm3.22-2.632A2.25,2.25,0,0,1,16.436-3.92H12.124A2.258,2.258,0,0,1,14.308-6.048ZM19.278,0H20.3V-4.676a1.921,1.921,0,0,1,1.834-1.386,2.422,2.422,0,0,1,.714.126V-6.86a2.01,2.01,0,0,0-.644-.1,2.031,2.031,0,0,0-1.9,1.484V-6.832H19.278Zm4.256-3.416A3.418,3.418,0,0,0,26.922.126a3.935,3.935,0,0,0,2.562-.91l-.644-.7a2.792,2.792,0,0,1-1.876.7,2.459,2.459,0,0,1-2.422-2.422H29.9V-3.5a3.236,3.236,0,0,0-3.136-3.444A3.336,3.336,0,0,0,23.534-3.416Zm3.22-2.632A2.25,2.25,0,0,1,28.882-3.92H24.57A2.258,2.258,0,0,1,26.754-6.048Zm8.89-2.506a.726.726,0,0,0,.728-.742.723.723,0,0,0-.728-.728.723.723,0,0,0-.728.728A.726.726,0,0,0,35.644-8.554Zm.5,1.722H35.126V0h1.022Zm1.526,5.88A3.788,3.788,0,0,0,40.46.126c1.54,0,2.66-.952,2.646-2.114.014-1.036-.644-1.6-1.988-1.834l-1.134-.21c-.84-.154-1.19-.392-1.19-.98,0-.672.63-1.092,1.484-1.092a3.45,3.45,0,0,1,2.114.77l.546-.7a4.251,4.251,0,0,0-2.618-.91c-1.442,0-2.464.84-2.464,2,0,1.022.658,1.568,1.932,1.792l1.134.2c.854.154,1.218.448,1.218,1.022,0,.672-.616,1.232-1.722,1.232a3.06,3.06,0,0,1-2.156-.9ZM47.838-3.416A3.418,3.418,0,0,0,51.226.126a3.935,3.935,0,0,0,2.562-.91l-.644-.7a2.792,2.792,0,0,1-1.876.7,2.459,2.459,0,0,1-2.422-2.422h5.362V-3.5a3.236,3.236,0,0,0-3.136-3.444A3.336,3.336,0,0,0,47.838-3.416Zm3.22-2.632A2.25,2.25,0,0,1,53.186-3.92H48.874A2.258,2.258,0,0,1,51.058-6.048ZM54.8,0h1.162l2.03-2.786L60.032,0h1.2L58.59-3.542l2.464-3.29H59.878l-1.862,2.59L56.14-6.832H54.908l2.492,3.3ZM63.35-1.54c0,1.064.6,1.666,1.792,1.666a4.124,4.124,0,0,0,1.2-.182v-.91a2.521,2.521,0,0,1-.966.182c-.728,0-1.008-.294-1.008-1.022V-5.992h1.974v-.84H64.372V-8.806l-1.022.238v1.736H61.936v.84H63.35ZM67.914,0h1.022V-4.676A1.921,1.921,0,0,1,70.77-6.062a2.422,2.422,0,0,1,.714.126V-6.86a2.01,2.01,0,0,0-.644-.1,2.031,2.031,0,0,0-1.9,1.484V-6.832H67.914Zm6.818.126a2.906,2.906,0,0,0,2.17-.91V0H77.91V-4.536c0-1.582-.98-2.408-2.646-2.408a5.722,5.722,0,0,0-2.576.658l.392.784a4.407,4.407,0,0,1,2.058-.588c1.148,0,1.764.546,1.764,1.694v.924A4.1,4.1,0,0,0,74.83-3.99c-1.484,0-2.562.756-2.562,2.016A2.2,2.2,0,0,0,74.732.126ZM73.248-1.988c0-.8.728-1.274,1.722-1.274a3.545,3.545,0,0,1,1.932.5v1.316a2.726,2.726,0,0,1-1.96.784C73.948-.658,73.248-1.19,73.248-1.988ZM88.13,0h1.022V-4.424a2.382,2.382,0,0,0-2.464-2.52A2.462,2.462,0,0,0,84.5-5.712v-4.3l-1.022.21V0H84.5V-5.04A2.03,2.03,0,0,1,86.3-6.09,1.771,1.771,0,0,1,88.13-4.13Zm2.884-3.416A3.418,3.418,0,0,0,94.4.126a3.935,3.935,0,0,0,2.562-.91l-.644-.7a2.792,2.792,0,0,1-1.876.7,2.459,2.459,0,0,1-2.422-2.422h5.362V-3.5a3.236,3.236,0,0,0-3.136-3.444A3.336,3.336,0,0,0,91.014-3.416Zm3.22-2.632A2.25,2.25,0,0,1,96.362-3.92H92.05A2.258,2.258,0,0,1,94.234-6.048Zm5.992-3.962L99.2-9.8V0h1.022Zm2.17,12.8h1.022V-.868A2.748,2.748,0,0,0,105.56.1a3.329,3.329,0,0,0,3.22-3.514,3.308,3.308,0,0,0-3.164-3.5A2.7,2.7,0,0,0,103.4-5.852v-.98H102.4Zm2.968-8.806A2.451,2.451,0,0,1,107.758-3.4a2.443,2.443,0,0,1-2.394,2.618,2.421,2.421,0,0,1-1.946-.952V-5.082A2.352,2.352,0,0,1,105.364-6.02Zm4.13-.812v.84h1.526V0h1.022V-5.992H114v-.84h-1.96V-7.9c0-.826.364-1.19,1.12-1.19a2.5,2.5,0,0,1,.84.126v-.924a3.206,3.206,0,0,0-.924-.126,1.879,1.879,0,0,0-2.058,2.1v1.078Zm6.944,0h-1.022v4.424A2.382,2.382,0,0,0,117.88.112a2.462,2.462,0,0,0,2.184-1.232V0h1.022V-6.832h-1.022v5.04a2.03,2.03,0,0,1-1.792,1.05,1.771,1.771,0,0,1-1.834-1.96Zm7.826-3.178-1.022.21V0h1.022Zm6.09,1.456a.726.726,0,0,0,.728-.742.723.723,0,0,0-.728-.728.723.723,0,0,0-.728.728A.726.726,0,0,0,130.354-8.554Zm.5,1.722h-1.022V0h1.022ZM133.028,0h1.022V-5.04a2.03,2.03,0,0,1,1.792-1.05,1.771,1.771,0,0,1,1.834,1.96V0H138.7V-4.424a2.382,2.382,0,0,0-2.464-2.52,2.462,2.462,0,0,0-2.184,1.232v-1.12h-1.022Zm6.9-6.832v.84h1.526V0h1.022V-5.992h1.96v-.84h-1.96V-7.9c0-.826.364-1.19,1.12-1.19a2.5,2.5,0,0,1,.84.126v-.924a3.206,3.206,0,0,0-.924-.126,1.879,1.879,0,0,0-2.058,2.1v1.078Zm5.264,3.416A3.384,3.384,0,0,0,148.512.14a3.389,3.389,0,0,0,3.346-3.556,3.365,3.365,0,0,0-3.346-3.528A3.359,3.359,0,0,0,145.194-3.416Zm5.642.014A2.412,2.412,0,0,1,148.512-.77a2.4,2.4,0,0,1-2.3-2.632,2.421,2.421,0,0,1,2.3-2.646A2.424,2.424,0,0,1,150.836-3.4ZM153.72,0h1.022V-4.676a1.921,1.921,0,0,1,1.834-1.386,2.422,2.422,0,0,1,.714.126V-6.86a2.01,2.01,0,0,0-.644-.1,2.031,2.031,0,0,0-1.9,1.484V-6.832H153.72Zm5.054,0H159.8V-5.082a1.9,1.9,0,0,1,1.666-1.008,1.7,1.7,0,0,1,1.694,1.932V0h1.022V-4.41a2.834,2.834,0,0,0-.056-.6A1.921,1.921,0,0,1,165.83-6.09c1.064,0,1.68.756,1.68,1.932V0h1.036V-4.41a2.335,2.335,0,0,0-2.338-2.534,2.551,2.551,0,0,0-2.282,1.33,2.24,2.24,0,0,0-2.086-1.33A2.338,2.338,0,0,0,159.8-5.768V-6.832h-1.022ZM172.83.126A2.906,2.906,0,0,0,175-.784V0h1.008V-4.536c0-1.582-.98-2.408-2.646-2.408a5.722,5.722,0,0,0-2.576.658l.392.784a4.408,4.408,0,0,1,2.058-.588c1.148,0,1.764.546,1.764,1.694v.924a4.1,4.1,0,0,0-2.072-.518c-1.484,0-2.562.756-2.562,2.016A2.2,2.2,0,0,0,172.83.126Zm-1.484-2.114c0-.8.728-1.274,1.722-1.274a3.545,3.545,0,0,1,1.932.5v1.316a2.726,2.726,0,0,1-1.96.784C172.046-.658,171.346-1.19,171.346-1.988Zm7.378.448c0,1.064.6,1.666,1.792,1.666a4.124,4.124,0,0,0,1.2-.182v-.91a2.521,2.521,0,0,1-.966.182c-.728,0-1.008-.294-1.008-1.022V-5.992h1.974v-.84h-1.974V-8.806l-1.022.238v1.736H177.31v.84h1.414Zm5.082-7.014a.726.726,0,0,0,.728-.742.723.723,0,0,0-.728-.728.723.723,0,0,0-.728.728A.726.726,0,0,0,183.806-8.554Zm.5,1.722h-1.022V0h1.022Zm1.876,3.416A3.384,3.384,0,0,0,189.5.14a3.389,3.389,0,0,0,3.346-3.556A3.365,3.365,0,0,0,189.5-6.944,3.359,3.359,0,0,0,186.186-3.416Zm5.642.014A2.412,2.412,0,0,1,189.5-.77a2.4,2.4,0,0,1-2.3-2.632,2.421,2.421,0,0,1,2.3-2.646A2.424,2.424,0,0,1,191.828-3.4ZM194.712,0h1.022V-5.04a2.03,2.03,0,0,1,1.792-1.05,1.771,1.771,0,0,1,1.834,1.96V0h1.022V-4.424a2.382,2.382,0,0,0-2.464-2.52,2.462,2.462,0,0,0-2.184,1.232v-1.12h-1.022Zm8.358-1.414a.753.753,0,0,0-.742.77.75.75,0,0,0,.742.756.747.747,0,0,0,.728-.756A.751.751,0,0,0,203.07-1.414Z" transform="translate(384 260)"/></g></g></svg>