<svg xmlns="http://www.w3.org/2000/svg" width="778.54" height="123.786"><path d="M359.224 96.248V90.2h-1.68v6.006a2.174 2.174 0 01-2.142 2.45 2.247 2.247 0 01-2.2-1.806l-1.54.574a3.677 3.677 0 003.723 2.716 3.623 3.623 0 003.839-3.892zm1.8.252a3.523 3.523 0 003.531 3.64 3.514 3.514 0 003.528-3.64 3.5 3.5 0 00-3.528-3.626 3.511 3.511 0 00-3.531 3.626zm5.5.014a2.05 2.05 0 01-1.974 2.254 2.05 2.05 0 01-1.974-2.254 2.068 2.068 0 011.974-2.282 2.068 2.068 0 011.974 2.282zm7.943 3.486h1.582v-4.62a2.364 2.364 0 00-2.436-2.506 2.52 2.52 0 00-2.212 1.26v-4.2l-1.6.266v9.8h1.6v-5.026a1.768 1.768 0 011.523-.826 1.51 1.51 0 011.54 1.68zm3.6 0h1.6v-5.026a1.768 1.768 0 011.526-.826 1.51 1.51 0 011.531 1.68V100h1.582v-4.62a2.364 2.364 0 00-2.433-2.506 2.52 2.52 0 00-2.212 1.26v-1.148h-1.6zm10.946-1.512a6 6 0 004.102 1.652c2.492 0 3.948-1.33 3.948-3.066 0-1.456-.882-2.352-2.9-2.688l-1.739-.308c-1.05-.168-1.512-.5-1.512-1.26 0-.938.882-1.358 1.946-1.358a4.727 4.727 0 013.099 1.148l.924-1.232a6.247 6.247 0 00-3.92-1.316c-2.114 0-3.654 1.008-3.654 2.884 0 1.4.84 2.24 2.52 2.548l1.806.308c1.316.238 1.778.63 1.778 1.4 0 .882-.812 1.554-2.2 1.554a4.757 4.757 0 01-3.246-1.47zm9.66 1.512h1.6v-5.068a1.61 1.61 0 011.386-.784 1.419 1.419 0 011.414 1.61V100h1.582v-4.578c0-.154-.014-.308-.028-.448a1.633 1.633 0 011.414-.826c.882 0 1.4.644 1.4 1.61V100h1.6v-4.578a2.326 2.326 0 00-2.317-2.548 2.593 2.593 0 00-2.31 1.358 2.188 2.188 0 00-2.072-1.358 2.382 2.382 0 00-2.072 1.218v-1.106h-1.6zm13.174-8.4a.965.965 0 00.98-.98.98.98 0 00-.98-.966.989.989 0 00-.98.966.974.974 0 00.98.98zm.8 1.386h-1.6V100h1.6zm2.912 5.166c0 1.288.742 1.96 2.156 1.96a5.218 5.218 0 001.358-.2v-1.33a2.784 2.784 0 01-.952.168c-.714 0-.98-.266-.98-.952v-3.552h1.96v-1.26h-1.96v-2.128l-1.582.336v1.792h-1.4v1.26h1.4zm9.686 1.848h1.579v-4.62a2.364 2.364 0 00-2.436-2.506 2.52 2.52 0 00-2.212 1.26v-4.2l-1.6.266v9.8h1.6v-5.026a1.768 1.768 0 011.526-.826 1.51 1.51 0 011.54 1.68zm-173.152 19.39a5.528 5.528 0 004 1.75c2.408 0 3.738-1.386 3.738-2.954 0-1.442-.84-2.254-2.982-2.632l-1.568-.266c-1.2-.21-1.848-.588-1.848-1.554 0-1.218 1.176-1.75 2.338-1.75a5.194 5.194 0 013.262 1.19l.63-.812a6.2 6.2 0 00-3.864-1.288c-1.792 0-3.4.9-3.4 2.744 0 1.386.826 2.128 2.59 2.436l1.582.266c1.582.28 2.184.742 2.184 1.722 0 1.092-1.008 1.974-2.618 1.974a4.719 4.719 0 01-3.374-1.582zm9.324-1.806a3.418 3.418 0 003.388 3.542 3.935 3.935 0 002.562-.91l-.644-.7a2.792 2.792 0 01-1.876.7 2.459 2.459 0 01-2.422-2.422h5.362v-.294a3.236 3.236 0 00-3.136-3.444 3.336 3.336 0 00-3.234 3.528zm3.22-2.632a2.25 2.25 0 012.128 2.128h-4.312a2.258 2.258 0 012.184-2.128zm4.97 6.048h1.022v-5.04a2.03 2.03 0 011.792-1.05 1.771 1.771 0 011.834 1.96V121h1.022v-4.424a2.382 2.382 0 00-2.464-2.52 2.462 2.462 0 00-2.184 1.232v-1.12h-1.022zm8.344-8.554a.726.726 0 00.728-.742.723.723 0 00-.728-.728.723.723 0 00-.728.728.726.726 0 00.728.742zm.5 1.722h-1.022V121h1.022zm1.876 3.416a3.384 3.384 0 003.318 3.556 3.389 3.389 0 003.346-3.556 3.365 3.365 0 00-3.346-3.528 3.359 3.359 0 00-3.314 3.528zm5.642.014a2.412 2.412 0 01-2.324 2.632 2.4 2.4 0 01-2.3-2.632 2.421 2.421 0 012.3-2.646 2.424 2.424 0 012.328 2.648zm2.884 3.4h1.022v-4.674a1.921 1.921 0 011.834-1.386 2.422 2.422 0 01.714.126v-.924a2.01 2.01 0 00-.644-.1 2.031 2.031 0 00-1.9 1.484v-1.356h-1.022zm8.694 0h3.248a4.736 4.736 0 004.9-4.9 4.744 4.744 0 00-4.9-4.9h-3.248zm3.318-8.834a3.765 3.765 0 013.728 3.936 3.765 3.765 0 01-3.724 3.934h-2.24v-7.868zm7.294.28a.726.726 0 00.728-.742.723.723 0 00-.728-.728.723.723 0 00-.728.728.726.726 0 00.732.744zm.5 1.722h-1.022V121h1.022zm2.178 6.834h1.022v-4.676a1.921 1.921 0 011.834-1.386 2.422 2.422 0 01.714.126v-.924a2.01 2.01 0 00-.644-.1 2.031 2.031 0 00-1.9 1.484v-1.356h-1.022zm4.256-3.416a3.418 3.418 0 003.388 3.542 3.935 3.935 0 002.562-.91l-.644-.7a2.792 2.792 0 01-1.876.7 2.459 2.459 0 01-2.422-2.422h5.362v-.294a3.236 3.236 0 00-3.139-3.444 3.336 3.336 0 00-3.231 3.528zm3.22-2.632a2.25 2.25 0 012.128 2.128h-4.312a2.258 2.258 0 012.184-2.128zm8.092 5.25a2.465 2.465 0 01-2.38-2.618 2.478 2.478 0 012.38-2.6 2.61 2.61 0 011.876.854l.658-.714a3.628 3.628 0 00-2.548-1.064 3.423 3.423 0 00-3.388 3.528 3.435 3.435 0 003.388 3.542 3.461 3.461 0 002.506-1.106l-.63-.63a2.442 2.442 0 01-1.862.806zm5.11-.742c0 1.064.6 1.666 1.792 1.666a4.124 4.124 0 001.2-.182v-.91a2.521 2.521 0 01-.966.182c-.728 0-1.008-.294-1.008-1.022v-4.186h1.974v-.84h-1.974v-1.974l-1.022.238v1.736h-1.414v.84h1.414zm4.046-1.876a3.384 3.384 0 003.318 3.556 3.389 3.389 0 003.345-3.556 3.365 3.365 0 00-3.346-3.528 3.359 3.359 0 00-3.317 3.528zm5.642.014a2.412 2.412 0 01-2.324 2.632 2.4 2.4 0 01-2.3-2.632 2.421 2.421 0 012.3-2.646 2.424 2.424 0 012.324 2.648zm2.884 3.4h1.022v-4.674a1.921 1.921 0 011.834-1.386 2.422 2.422 0 01.714.126v-.924a2.01 2.01 0 00-.644-.1 2.031 2.031 0 00-1.9 1.484v-1.356h-1.022zm4.13-1.036l-.77 2.954h.8l1.064-2.954zm6.65 1.038h3.248a4.736 4.736 0 004.9-4.9 4.744 4.744 0 00-4.9-4.9h-3.248zm3.318-8.834a3.765 3.765 0 013.724 3.934 3.765 3.765 0 01-3.724 3.934h-2.24v-7.868zm6.482 5.418a3.418 3.418 0 003.388 3.542 3.935 3.935 0 002.562-.91l-.644-.7a2.792 2.792 0 01-1.876.7 2.459 2.459 0 01-2.422-2.422h5.362v-.294a3.236 3.236 0 00-3.136-3.444 3.336 3.336 0 00-3.234 3.528zm3.22-2.632a2.25 2.25 0 012.128 2.128h-4.312a2.258 2.258 0 012.184-2.128zm6.748 6.048h.966l2.814-6.832h-1.091l-2.184 5.544-2.184-5.544h-1.132zm14.728-4.9a4.918 4.918 0 00-4.872-5.054 4.926 4.926 0 00-4.867 5.054 4.926 4.926 0 004.872 5.054 4.918 4.918 0 004.867-5.054zm-1.092 0a3.872 3.872 0 01-3.78 4.074 3.881 3.881 0 01-3.78-4.074 3.881 3.881 0 013.78-4.074 3.872 3.872 0 013.78 4.074zm3.038 7.686h1.022v-3.654a2.748 2.748 0 002.142.966 3.329 3.329 0 003.22-3.514 3.308 3.308 0 00-3.164-3.5 2.7 2.7 0 00-2.212 1.064v-.98h-1.008zm2.968-8.806a2.451 2.451 0 012.394 2.62 2.423 2.423 0 01-4.34 1.666v-3.348a2.352 2.352 0 011.946-.938zm4.7 5.068a3.788 3.788 0 002.786 1.078c1.54 0 2.66-.952 2.646-2.114.014-1.036-.644-1.6-1.988-1.834l-1.134-.21c-.84-.154-1.19-.392-1.19-.98 0-.672.63-1.092 1.484-1.092a3.45 3.45 0 012.114.77l.546-.7a4.251 4.251 0 00-2.618-.91c-1.442 0-2.464.84-2.464 2 0 1.022.658 1.568 1.932 1.792l1.134.2c.854.154 1.218.448 1.218 1.022 0 .672-.616 1.232-1.722 1.232a3.059 3.059 0 01-2.156-.9zm7.042-.084l-.77 2.954h.8l1.064-2.954zm5.66 1.036h1.12l1.176-3.08h4.354l1.162 3.08h1.176l-3.822-9.8h-1.288zm2.66-4l1.82-4.76 1.82 4.76zm10.472 3.2a2.465 2.465 0 01-2.38-2.618 2.478 2.478 0 012.38-2.6 2.61 2.61 0 011.876.854l.658-.714a3.628 3.628 0 00-2.548-1.064 3.423 3.423 0 00-3.388 3.528 3.392 3.392 0 005.894 2.436l-.63-.63a2.442 2.442 0 01-1.862.808zm4.144.8h1.022v-5.082a1.9 1.9 0 011.666-1.008 1.7 1.7 0 011.694 1.932V121h1.022v-4.41a2.834 2.834 0 00-.056-.6 1.921 1.921 0 011.708-1.078c1.064 0 1.68.756 1.68 1.932V121h1.033v-4.41a2.335 2.335 0 00-2.338-2.534 2.551 2.551 0 00-2.282 1.33 2.24 2.24 0 00-2.086-1.33 2.338 2.338 0 00-2.044 1.176v-1.064h-1.019zm11.634-3.416a3.418 3.418 0 003.388 3.542 3.935 3.935 0 002.562-.91l-.644-.7a2.792 2.792 0 01-1.876.7 2.459 2.459 0 01-2.422-2.422h5.362v-.294a3.236 3.236 0 00-3.135-3.444 3.336 3.336 0 00-3.235 3.528zm3.22-2.632a2.25 2.25 0 012.128 2.128h-4.313a2.258 2.258 0 012.185-2.128zm13.16 5.222a3.924 3.924 0 01-3.92-4.074 3.905 3.905 0 016.875-2.7l.714-.742a4.9 4.9 0 00-3.7-1.61 4.966 4.966 0 00-4.981 5.052 4.984 4.984 0 008.652 3.444l-.7-.714a3.84 3.84 0 01-2.94 1.344zm4.942-2.59a3.339 3.339 0 106.664 0 3.337 3.337 0 10-6.664 0zm5.642.014a2.33 2.33 0 11-4.62 0 2.331 2.331 0 114.62 0zm2.884 3.402h1.022v-4.676a1.921 1.921 0 011.834-1.386 2.422 2.422 0 01.714.126v-.924a2.01 2.01 0 00-.644-.1 2.031 2.031 0 00-1.9 1.484v-1.356h-1.026zm5.054 2.786h1.022v-3.654a2.748 2.748 0 002.142.966 3.329 3.329 0 003.22-3.514 3.308 3.308 0 00-3.164-3.5 2.7 2.7 0 00-2.212 1.064v-.98h-1.008zm2.968-8.806a2.451 2.451 0 012.394 2.62 2.423 2.423 0 01-4.34 1.666v-3.348a2.352 2.352 0 011.946-.938zm4.984 2.6a3.339 3.339 0 106.664 0 3.337 3.337 0 10-6.664 0zm5.642.014a2.33 2.33 0 11-4.62 0 2.331 2.331 0 114.62 0zm2.884 3.4h1.022v-4.67a1.921 1.921 0 011.834-1.386 2.422 2.422 0 01.714.126v-.924a2.01 2.01 0 00-.644-.1 2.031 2.031 0 00-1.9 1.484v-1.356h-1.022zm6.818.126a2.906 2.906 0 002.17-.91v.79h1.008v-4.536c0-1.582-.98-2.408-2.646-2.408a5.722 5.722 0 00-2.576.658l.392.784a4.407 4.407 0 012.058-.588c1.148 0 1.764.546 1.764 1.694v.924a4.1 4.1 0 00-2.072-.518c-1.484 0-2.562.756-2.562 2.016a2.2 2.2 0 002.464 2.1zm-1.484-2.114c0-.8.728-1.274 1.722-1.274a3.545 3.545 0 011.932.5v1.316a2.726 2.726 0 01-1.96.784c-.994.01-1.694-.522-1.694-1.32zm7.378.448c0 1.064.6 1.666 1.792 1.666a4.124 4.124 0 001.2-.182v-.91a2.521 2.521 0 01-.966.182c-.728 0-1.008-.294-1.008-1.022v-4.18h1.974v-.84h-1.974v-1.974l-1.022.238v1.736h-1.414v.84h1.414zm5.082-7.014a.735.735 0 10-.728-.742.726.726 0 00.728.748zm.5 1.722h-1.022V121h1.022zm1.876 3.416a3.339 3.339 0 106.664 0 3.337 3.337 0 10-6.664 0zm5.642.014a2.33 2.33 0 11-4.62 0 2.331 2.331 0 114.62 0zm2.884 3.4h1.022v-5.032a2.03 2.03 0 011.792-1.05 1.771 1.771 0 011.834 1.96V121h1.022v-4.424a2.382 2.382 0 00-2.464-2.52 2.462 2.462 0 00-2.184 1.232v-1.12h-1.022z" fill="#6a6e73"/><path d="M0 43.332h7.084V61H9.24V43.332h7.084V41.4H0zM28.392 61h2.044v-8.876a5.174 5.174 0 00-5.432-5.432 5.56 5.56 0 00-4.4 1.9V40.92l-2.072.476V61h2.072V50.668a4.336 4.336 0 013.864-2.156 3.692 3.692 0 013.92 4.032zm4.9-7.028a7.149 7.149 0 007.224 7.28 8.248 8.248 0 005.236-1.736l-1.288-1.372a6.113 6.113 0 01-3.864 1.288 5.271 5.271 0 01-5.264-4.816h11.508v-.644c0-4-2.912-7.224-6.636-7.224a7.019 7.019 0 00-6.916 7.224zm6.86-5.4a4.883 4.883 0 014.62 4.4h-9.38a4.885 4.885 0 014.76-4.404zM55.724 61h2.072V50.528a4.049 4.049 0 013.556-2.016c2.268 0 3.64 1.568 3.64 4.032V61h2.044v-8.876a6.539 6.539 0 00-.14-1.316 4.184 4.184 0 013.724-2.3c2.268 0 3.64 1.568 3.64 4.032V61h2.044v-8.876c0-3.22-2.1-5.432-5.18-5.432a5.474 5.474 0 00-4.788 2.548 4.918 4.918 0 00-4.424-2.548 5.279 5.279 0 00-4.116 1.792v-1.512h-2.072zm23.432-7.028a7.16 7.16 0 007.168 7.308 7.155 7.155 0 007.14-7.308 7.148 7.148 0 00-7.14-7.28 7.154 7.154 0 00-7.168 7.28zm12.264 0a5.238 5.238 0 01-5.1 5.46 5.243 5.243 0 01-5.124-5.46 5.236 5.236 0 015.128-5.432 5.213 5.213 0 015.1 5.432zM96.324 61h2.072V50.528a4.049 4.049 0 013.556-2.016c2.268 0 3.64 1.568 3.64 4.032V61h2.044v-8.876a6.539 6.539 0 00-.14-1.316 4.184 4.184 0 013.724-2.3c2.268 0 3.64 1.568 3.64 4.032V61h2.044v-8.876c0-3.22-2.1-5.432-5.18-5.432a5.474 5.474 0 00-4.788 2.548 4.918 4.918 0 00-4.424-2.548 5.279 5.279 0 00-4.116 1.792v-1.512h-2.072zm23.436-7.028a7.149 7.149 0 007.224 7.28 8.248 8.248 0 005.236-1.736l-1.296-1.372a6.113 6.113 0 01-3.864 1.288 5.271 5.271 0 01-5.264-4.816h11.508v-.644c0-4-2.912-7.224-6.636-7.224a7.019 7.019 0 00-6.912 7.224zm6.86-5.4a4.883 4.883 0 014.62 4.4h-9.38a4.885 4.885 0 014.756-4.404zM136.164 61h2.072V50.668a4.336 4.336 0 013.864-2.156 3.692 3.692 0 013.92 4.032V61h2.044v-8.876a5.174 5.174 0 00-5.432-5.432 5.56 5.56 0 00-4.4 1.9v-1.624h-2.068zm16.576-3.136c0 2.184 1.316 3.388 3.78 3.388a8.209 8.209 0 002.464-.364v-1.82a5.219 5.219 0 01-2.044.364c-1.54 0-2.156-.588-2.156-2.1v-8.6h4.228v-1.764h-4.228V42.88l-2.044.532v3.556h-3.024v1.764h3.024zM171.836 61l3.5-11.228L178.808 61h1.988l3.976-14.028h-1.96l-3.052 11.2-3.472-11.2h-1.848l-3.5 11.2-3.024-11.2h-2.044L169.824 61zm14.168-7.028a7.149 7.149 0 007.22 7.28 8.248 8.248 0 005.236-1.736l-1.288-1.372a6.113 6.113 0 01-3.864 1.288 5.271 5.271 0 01-5.264-4.816h11.508v-.644c0-4-2.912-7.224-6.636-7.224a7.019 7.019 0 00-6.912 7.224zm6.86-5.4a4.883 4.883 0 014.62 4.4h-9.38a4.885 4.885 0 014.76-4.404zM218.288 61h2.044v-8.876a5.174 5.174 0 00-5.432-5.432 5.56 5.56 0 00-4.4 1.9V40.92l-2.072.476V61h2.072V50.668a4.336 4.336 0 013.864-2.156 3.692 3.692 0 013.92 4.032zm9.968.252a6.77 6.77 0 004.536-1.624V61h2.016v-9.436c0-3.164-2.016-4.872-5.544-4.872a12.016 12.016 0 00-5.376 1.4l.784 1.6a9.535 9.535 0 014.4-1.232c2.436 0 3.724 1.12 3.724 3.388v1.848a9.089 9.089 0 00-4.116-.952c-3.136 0-5.6 1.428-5.6 4.284-.004 2.516 2.124 4.224 5.176 4.224zm-3.192-4.284c0-1.68 1.512-2.716 3.668-2.716a7.14 7.14 0 014.06 1.092V58a5.722 5.722 0 01-4.168 1.628c-2.048 0-3.56-1.036-3.56-2.66zM242.032 61h1.96l6.048-14.028h-2.216l-4.788 11.34-4.788-11.34h-2.3zm8.708-7.028a7.149 7.149 0 007.224 7.28 8.248 8.248 0 005.236-1.736l-1.288-1.372a6.113 6.113 0 01-3.864 1.288 5.271 5.271 0 01-5.264-4.816h11.508v-.644c0-4-2.912-7.224-6.636-7.224a7.019 7.019 0 00-6.916 7.224zm6.86-5.4a4.883 4.883 0 014.62 4.4h-9.38a4.885 4.885 0 014.76-4.404zm20.024 12.68a6.77 6.77 0 004.536-1.624V61h2.016v-9.436c0-3.164-2.016-4.872-5.544-4.872a12.016 12.016 0 00-5.376 1.4l.784 1.6a9.535 9.535 0 014.4-1.232c2.436 0 3.724 1.12 3.724 3.388v1.848a9.089 9.089 0 00-4.116-.952c-3.136 0-5.6 1.428-5.6 4.284-.008 2.516 2.12 4.224 5.176 4.224zm-3.2-4.284c0-1.68 1.512-2.716 3.668-2.716a7.14 7.14 0 014.06 1.092V58a5.722 5.722 0 01-4.172 1.624c-2.04.004-3.556-1.032-3.556-2.656zM287.644 61h2.072V50.668a4.336 4.336 0 013.864-2.156 3.692 3.692 0 013.92 4.032V61h2.044v-8.876a5.174 5.174 0 00-5.432-5.432 5.56 5.56 0 00-4.4 1.9v-1.624h-2.068zm22.428-16.716a1.4 1.4 0 001.4-1.4 1.386 1.386 0 00-1.4-1.4 1.386 1.386 0 00-1.4 1.4 1.4 1.4 0 001.4 1.4zm1.036 2.688h-2.072V61h2.072zM325.556 61h2.044V40.924l-2.076.476v6.944a7.117 7.117 0 00-4.48-1.6 7.054 7.054 0 00-7.084 7.224 7.072 7.072 0 007.064 7.256 6.568 6.568 0 004.536-1.708zm-9.548-7.056a5.186 5.186 0 015.208-5.376 5.467 5.467 0 014.308 1.932v6.944a5.362 5.362 0 01-4.312 1.96 5.259 5.259 0 01-5.204-5.46zm14.448.028a7.149 7.149 0 007.224 7.28 8.248 8.248 0 005.236-1.736l-1.292-1.372a6.113 6.113 0 01-3.864 1.288 5.271 5.271 0 01-5.264-4.816h11.508v-.644c0-4-2.912-7.224-6.636-7.224a7.019 7.019 0 00-6.912 7.224zm6.86-5.4a4.883 4.883 0 014.62 4.4h-9.38a4.885 4.885 0 014.76-4.404zm13.776 12.68a6.77 6.77 0 004.532-1.624V61h2.016v-9.436c0-3.164-2.016-4.872-5.544-4.872a12.016 12.016 0 00-5.376 1.4l.784 1.6a9.535 9.535 0 014.4-1.232c2.436 0 3.724 1.12 3.724 3.388v1.848a9.089 9.089 0 00-4.116-.952c-3.136 0-5.6 1.428-5.6 4.284 0 2.516 2.128 4.224 5.18 4.224zm-3.192-4.284c0-1.68 1.512-2.716 3.668-2.716a7.14 7.14 0 014.06 1.092V58a5.722 5.722 0 01-4.172 1.624c-2.044.004-3.556-1.032-3.556-2.656zm13.608 1.96l-1.624 5.908h1.624l2.24-5.908zM377.3 61l3.5-11.228L384.272 61h1.988l3.976-14.028h-1.96l-3.052 11.2-3.472-11.2h-1.848l-3.5 11.2-3.024-11.2h-2.044L375.284 61zm14.168-7.028a7.149 7.149 0 007.224 7.28 8.248 8.248 0 005.232-1.736l-1.288-1.372a6.113 6.113 0 01-3.864 1.288 5.271 5.271 0 01-5.264-4.816h11.516v-.644c0-4-2.912-7.224-6.636-7.224a7.019 7.019 0 00-6.92 7.224zm6.86-5.4a4.883 4.883 0 014.62 4.4h-9.38a4.885 4.885 0 014.756-4.404zm22.148 10.804a5.216 5.216 0 01-5.152-5.4 5.2 5.2 0 015.124-5.376 5.825 5.825 0 014.144 1.82l1.316-1.512a8.047 8.047 0 00-5.488-2.212 7.148 7.148 0 00-7.14 7.28 7.131 7.131 0 007.144 7.276 7.841 7.841 0 005.432-2.24l-1.288-1.4a5.737 5.737 0 01-4.092 1.764zm12.292 1.876a6.77 6.77 0 004.536-1.624V61h2.02v-9.436c0-3.164-2.016-4.872-5.544-4.872a12.016 12.016 0 00-5.376 1.4l.784 1.6a9.535 9.535 0 014.4-1.232c2.436 0 3.724 1.12 3.724 3.388v1.848a9.089 9.089 0 00-4.116-.952c-3.136 0-5.6 1.428-5.6 4.284-.008 2.516 2.12 4.224 5.172 4.224zm-3.192-4.284c0-1.68 1.512-2.716 3.668-2.716a7.14 7.14 0 014.06 1.092V58a5.722 5.722 0 01-4.172 1.624c-2.044.004-3.556-1.032-3.556-2.656zM442.792 61h2.072V50.668a4.336 4.336 0 013.864-2.156 3.692 3.692 0 013.92 4.032V61h2.044v-8.876a5.174 5.174 0 00-5.432-5.432 5.56 5.56 0 00-4.4 1.9v-1.624h-2.072zm19.992-1.932a8.584 8.584 0 005.908 2.184c3.276 0 5.684-1.9 5.684-4.284 0-2.156-1.372-3.416-4.2-3.808l-2.436-.336c-1.82-.28-2.6-.84-2.6-2.072 0-1.428 1.372-2.324 3.248-2.324A7.8 7.8 0 01472.924 50l1.092-1.4a9.086 9.086 0 00-5.516-1.848c-3.052 0-5.264 1.708-5.264 4.088 0 2.184 1.428 3.388 4.144 3.78l2.436.336c1.792.252 2.6.924 2.6 2.128 0 1.372-1.4 2.52-3.808 2.52a6.732 6.732 0 01-4.564-1.876zm15.372-1.2c0 2.184 1.316 3.388 3.78 3.388a8.208 8.208 0 002.464-.364v-1.82a5.219 5.219 0 01-2.044.364c-1.54 0-2.156-.588-2.156-2.1v-8.6h4.224v-1.764h-4.228v-4.088l-2.044.532v3.556h-3.024v1.764h3.024zm12.908 3.384a6.77 6.77 0 004.536-1.624V61h2.016v-9.436c0-3.164-2.016-4.872-5.544-4.872a12.016 12.016 0 00-5.376 1.4l.784 1.6a9.535 9.535 0 014.4-1.232c2.436 0 3.724 1.12 3.724 3.388v1.848a9.089 9.089 0 00-4.116-.952c-3.136 0-5.6 1.428-5.6 4.284-.004 2.516 2.124 4.224 5.176 4.224zm-3.192-4.284c0-1.68 1.512-2.716 3.668-2.716a7.14 7.14 0 014.06 1.092V58a5.722 5.722 0 01-4.176 1.628c-2.04 0-3.552-1.036-3.552-2.66zM501.088 61h2.072v-9.632a3.924 3.924 0 013.78-2.856 5.05 5.05 0 011.456.252v-1.9a4.268 4.268 0 00-1.344-.2 4.432 4.432 0 00-3.892 2.24v-1.932h-2.072zm11.788-3.136c0 2.184 1.316 3.388 3.78 3.388a8.209 8.209 0 002.468-.364v-1.82a5.219 5.219 0 01-2.044.364c-1.54 0-2.156-.588-2.156-2.1v-8.6h4.228v-1.764h-4.228V42.88l-2.044.532v3.556h-3.024v1.764h3.024zm28.112-3.892a7.048 7.048 0 00-7.056-7.224 6.606 6.606 0 00-4.508 1.68v-7.5l-2.072.476V61h2.044v-1.4a7 7 0 004.508 1.624 7.06 7.06 0 007.084-7.252zm-7.252-5.4A5.234 5.234 0 01538.944 54a5.21 5.21 0 01-5.208 5.4 5.467 5.467 0 01-4.312-1.928v-6.944a5.362 5.362 0 014.312-1.96zm12.152-1.6h-2.044v8.876a5.174 5.174 0 005.432 5.432 5.56 5.56 0 004.4-1.9V61h2.072V46.972h-2.072V57.3a4.336 4.336 0 01-3.864 2.156 3.692 3.692 0 01-3.92-4.032zm14.364-2.688a1.4 1.4 0 001.4-1.4 1.386 1.386 0 00-1.4-1.4 1.386 1.386 0 00-1.4 1.4 1.4 1.4 0 001.4 1.4zm1.036 2.688h-2.072V61h2.072zm5.544-6.048l-2.072.476V61h2.072zM581.28 61h2.044V40.924l-2.072.476v6.944a7.118 7.118 0 00-4.48-1.6 7.054 7.054 0 00-7.084 7.224 7.072 7.072 0 007.056 7.256 6.568 6.568 0 004.536-1.708zm-9.548-7.056a5.186 5.186 0 015.208-5.376 5.467 5.467 0 014.312 1.932v6.944a5.362 5.362 0 01-4.312 1.96 5.259 5.259 0 01-5.208-5.46zm16.1-9.66a1.4 1.4 0 001.4-1.4 1.386 1.386 0 00-1.4-1.4 1.386 1.386 0 00-1.4 1.4 1.4 1.4 0 001.4 1.4zm1.036 2.688h-2.072V61h2.072zM592.34 61h2.072V50.668a4.336 4.336 0 013.864-2.156 3.692 3.692 0 013.92 4.032V61h2.044v-8.876a5.174 5.174 0 00-5.432-5.432 5.56 5.56 0 00-4.4 1.9v-1.624h-2.072zm21.756.112a6.8 6.8 0 004.452-1.624v1.792c0 2.464-1.4 3.752-4.06 3.752a9.239 9.239 0 01-4.508-1.288l-.9 1.624a11 11 0 005.488 1.456c3.864 0 6.048-1.96 6.048-5.6V46.972h-2.044v1.4a6.714 6.714 0 00-4.424-1.652 7.024 7.024 0 00-7.056 7.2 7.03 7.03 0 007.004 7.192zm-4.956-7.2a5.145 5.145 0 015.124-5.348 5.471 5.471 0 014.284 1.9v6.896a5.364 5.364 0 01-4.284 1.932 5.186 5.186 0 01-5.124-5.376zm22.736 3.948c0 2.184 1.316 3.388 3.78 3.388a8.209 8.209 0 002.468-.36v-1.82a5.219 5.219 0 01-2.044.364c-1.54 0-2.156-.588-2.156-2.1v-8.6h4.228v-1.764h-4.228V42.88l-2.044.532v3.556h-3.024v1.764h3.024zM650.188 61h2.044v-8.876a5.174 5.174 0 00-5.432-5.432 5.56 5.56 0 00-4.4 1.9V40.92l-2.072.476V61h2.072V50.668a4.336 4.336 0 013.864-2.156 3.692 3.692 0 013.92 4.032zm4.9-7.028a7.149 7.149 0 007.224 7.28 8.248 8.248 0 005.236-1.736l-1.288-1.372a6.113 6.113 0 01-3.864 1.288 5.271 5.271 0 01-5.264-4.816h11.508v-.644c0-4-2.912-7.224-6.636-7.224a7.019 7.019 0 00-6.916 7.224zm6.86-5.4a4.883 4.883 0 014.62 4.4h-9.38a4.885 4.885 0 014.76-4.404zm15.568 18.168h2.072v-7.112a7.118 7.118 0 004.48 1.6 7.06 7.06 0 007.084-7.252 7.048 7.048 0 00-7.056-7.224 6.568 6.568 0 00-4.536 1.708v-1.484h-2.044zm6.384-18.172A5.234 5.234 0 01689.108 54a5.21 5.21 0 01-5.208 5.4 5.467 5.467 0 01-4.312-1.932v-6.944a5.362 5.362 0 014.312-1.956zM694.008 61h2.072v-9.632a3.925 3.925 0 013.78-2.856 5.05 5.05 0 011.456.252v-1.9a4.268 4.268 0 00-1.344-.2 4.432 4.432 0 00-3.892 2.24v-1.932h-2.072zm8.12-7.028a7.16 7.16 0 007.168 7.308 7.155 7.155 0 007.14-7.308 7.148 7.148 0 00-7.14-7.28 7.154 7.154 0 00-7.172 7.28zm12.264 0a5.238 5.238 0 01-5.1 5.46 5.243 5.243 0 01-5.124-5.46 5.236 5.236 0 015.124-5.432 5.213 5.213 0 015.1 5.432zM730.268 61h2.044V40.924l-2.072.476v6.944a7.118 7.118 0 00-4.48-1.6 7.054 7.054 0 00-7.084 7.224 7.072 7.072 0 007.056 7.256 6.568 6.568 0 004.536-1.708zm-9.544-7.056a5.186 5.186 0 015.208-5.376 5.467 5.467 0 014.312 1.932v6.944a5.362 5.362 0 01-4.32 1.956 5.259 5.259 0 01-5.2-5.456zm17.1-6.972h-2.04v8.876a5.174 5.174 0 005.432 5.432 5.56 5.56 0 004.4-1.9V61h2.072V46.972h-2.072V57.3a4.336 4.336 0 01-3.864 2.156 3.692 3.692 0 01-3.92-4.032zm19.908 12.4a5.216 5.216 0 01-5.152-5.4 5.2 5.2 0 015.124-5.376 5.825 5.825 0 014.144 1.82l1.316-1.512a8.047 8.047 0 00-5.488-2.212 7.148 7.148 0 00-7.14 7.28 7.131 7.131 0 007.14 7.28 7.842 7.842 0 005.432-2.24l-1.288-1.4a5.737 5.737 0 01-4.084 1.764zm9.892-1.508c0 2.184 1.316 3.388 3.78 3.388a8.209 8.209 0 002.464-.364v-1.82a5.219 5.219 0 01-2.044.364c-1.54 0-2.156-.588-2.156-2.1v-8.6h4.228v-1.764h-4.232V42.88l-2.044.532v3.556h-3.024v1.764h3.028zm9.492.448a1.434 1.434 0 00-1.432 1.428 1.434 1.434 0 001.428 1.428 1.434 1.434 0 001.428-1.428 1.434 1.434 0 00-1.428-1.428z" fill="#151515"/><path d="M395.943 5.9h-3.5a5.167 5.167 0 015.1-4.5.684.684 0 00.7-.7c0-.4-.2-.7-.6-.7a6.594 6.594 0 00-6.6 6.6v8.6a.684.684 0 00.7.7h8.6a.684.684 0 00.7-.7V11a5.121 5.121 0 00-5.1-5.1zm-12.5 0h-3.5a5.167 5.167 0 015.1-4.5.684.684 0 00.7-.7c0-.4-.2-.7-.6-.7a6.594 6.594 0 00-6.6 6.6v8.6a.606.606 0 00.6.8h8.6a.684.684 0 00.7-.7V11a4.974 4.974 0 00-5-5.1z" fill="#e00"/></svg>