<svg xmlns="http://www.w3.org/2000/svg" width="340" height="62"><defs><style>.c{fill:none}</style></defs><g fill="#fff" stroke="#d2d2d2"><path stroke="none" d="M107 13h126v36H107z"/><path class="c" d="M107.5 13.5h125v35h-125z"/></g><path fill="#6a6e73" d="M107 48h126v1H107z"/><path class="c" d="M201 19h24v24h-24z"/><path d="M208.682 28h9.2a.725.725 0 01.5 1.2l-4.6 4.6a.668.668 0 01-1 0l-4.6-4.6a.714.714 0 01.5-1.2z"/><path d="M115.448 35.16a6.318 6.318 0 004.576 2c2.752 0 4.276-1.584 4.276-3.376 0-1.648-.96-2.576-3.408-3.008l-1.792-.304c-1.38-.24-2.116-.672-2.116-1.772 0-1.392 1.344-2 2.672-2a5.937 5.937 0 013.728 1.36l.72-.928a7.091 7.091 0 00-4.416-1.472c-2.048-.004-3.888 1.02-3.888 3.132 0 1.584.944 2.432 2.96 2.784l1.808.3c1.808.32 2.5.848 2.5 1.968-.004 1.256-1.156 2.256-2.996 2.256a5.393 5.393 0 01-3.856-1.8zm10.496-2.06a3.907 3.907 0 003.872 4.044 4.5 4.5 0 002.928-1.044l-.736-.8a3.191 3.191 0 01-2.144.8 2.81 2.81 0 01-2.764-2.764h6.128V33a3.7 3.7 0 00-3.588-3.936 3.812 3.812 0 00-3.696 4.036zm3.68-3.008a2.572 2.572 0 012.432 2.428h-4.928a2.581 2.581 0 012.496-2.432zm6.688-4.528l-1.168.24V37h1.168zM138.3 33.1a3.907 3.907 0 003.868 4.044A4.5 4.5 0 00145.1 36.1l-.736-.8a3.191 3.191 0 01-2.144.8 2.81 2.81 0 01-2.768-2.768h6.128V33a3.7 3.7 0 00-3.584-3.936A3.812 3.812 0 00138.3 33.1zm3.68-3.008a2.572 2.572 0 012.428 2.428h-4.928a2.581 2.581 0 012.496-2.432zm9.088 6a2.817 2.817 0 01-2.724-2.992 2.832 2.832 0 012.72-2.976 2.983 2.983 0 012.144.976l.752-.816a4.146 4.146 0 00-2.912-1.216 3.912 3.912 0 00-3.872 4.032 3.926 3.926 0 003.872 4.044 3.955 3.955 0 002.864-1.264l-.72-.72a2.791 2.791 0 01-2.128.928zm5.68-.848c0 1.216.688 1.9 2.048 1.9a4.713 4.713 0 001.376-.208V35.9a2.881 2.881 0 01-1.1.208c-.832 0-1.152-.336-1.152-1.168v-4.788h2.256v-.96h-2.264v-2.256l-1.168.272v1.984h-1.616v.96h1.616zm9.952-9.684l-1.168.24V37h1.168zm2.912 1.664a.83.83 0 00.832-.848.826.826 0 00-.832-.832.826.826 0 00-.832.832.83.83 0 00.828.848zm.576 1.968h-1.172V37h1.168zm1.584 6.72a4.33 4.33 0 003.18 1.232c1.76 0 3.04-1.088 3.024-2.416.016-1.184-.736-1.824-2.272-2.1l-1.3-.24c-.96-.176-1.36-.448-1.36-1.12 0-.768.72-1.248 1.7-1.248a3.943 3.943 0 012.416.88l.624-.8a4.858 4.858 0 00-2.992-1.04c-1.648 0-2.816.96-2.816 2.288 0 1.168.752 1.792 2.208 2.048l1.3.224c.976.176 1.392.512 1.392 1.168 0 .768-.7 1.408-1.968 1.408a3.5 3.5 0 01-2.468-1.02zm8.688-.672c0 1.216.688 1.9 2.048 1.9a4.713 4.713 0 001.372-.204V35.9a2.881 2.881 0 01-1.1.208c-.832 0-1.152-.336-1.152-1.168v-4.788h2.252v-.96h-2.256v-2.256l-1.168.272v1.984h-1.616v.96h1.616z" fill="#151515"/><path class="c" d="M0 0h340v62H0z"/></svg>