<svg xmlns="http://www.w3.org/2000/svg" width="360" height="396"><defs><style>.a{fill:#fff;stroke:#d2d2d2}.b{fill:#06c}.i{fill:none}.e{fill:#6a6e73}.f{fill:#c9190b}.g{fill:#151515}.h{stroke:none}</style></defs><g class="a"><rect class="h" width="360" height="396" rx="3"/><rect class="i" x=".5" y=".5" width="359" height="395" rx="2.5"/></g><path class="b" d="M214.246 360h1.078v-4h2.968a2.835 2.835 0 003.122-2.9 2.828 2.828 0 00-3.122-2.9h-4.046zm3.92-8.848a1.906 1.906 0 012.17 1.948 1.919 1.919 0 01-2.17 1.974h-2.842v-3.92zm5.18 8.848h1.022v-4.676a1.947 1.947 0 011.832-1.386 2.554 2.554 0 01.714.126v-.924a1.94 1.94 0 00-.644-.1 2.041 2.041 0 00-1.9 1.512v-1.384h-1.024zm5.586-8.512a.726.726 0 00.728-.742.741.741 0 00-.728-.728.744.744 0 00-.742.728.729.729 0 00.742.742zm.5 1.68h-1.018V360h1.022zm4.204 6.832h.98l2.814-6.832h-1.092l-2.184 5.558-2.212-5.558h-1.106zm7.308.126a2.933 2.933 0 002.17-.926v.8h1.008v-4.536c0-1.554-.952-2.408-2.646-2.408a5.853 5.853 0 00-2.576.658l.378.784a4.511 4.511 0 012.072-.588 1.538 1.538 0 011.764 1.69v.938a3.956 3.956 0 00-2.086-.532c-1.54 0-2.562.812-2.562 2.03a2.206 2.206 0 002.478 2.09zm-1.5-2.114c0-.756.686-1.26 1.736-1.26a3.606 3.606 0 011.932.49v1.316a2.7 2.7 0 01-1.96.784c-1.02 0-1.706-.532-1.706-1.33zm10.012 1.188a2.478 2.478 0 01-2.408-2.618 2.48 2.48 0 012.394-2.6 2.685 2.685 0 011.932.854l.658-.714a3.727 3.727 0 00-2.632-1.066 3.412 3.412 0 00-3.374 3.528 3.424 3.424 0 003.374 3.542 3.553 3.553 0 002.59-1.106l-.63-.63a2.516 2.516 0 01-1.904.81zm5.488 1.89c-.252.616-.574.868-1.092.868a2.379 2.379 0 01-.56-.056v.91a2.344 2.344 0 00.658.1c1.008 0 1.526-.406 1.96-1.512l3.39-8.232h-1.136l-2.2 5.614-2.07-5.614h-1.134l2.632 6.818zm8.512-1.972a3.9 3.9 0 002.772 1.008c1.512 0 2.66-.924 2.66-2.114 0-1.008-.616-1.582-1.988-1.834l-1.148-.21c-.882-.154-1.176-.42-1.176-.98 0-.672.588-1.092 1.484-1.092a3.624 3.624 0 012.142.728l.5-.714a4.417 4.417 0 00-2.6-.854c-1.442 0-2.464.826-2.464 2 0 .994.6 1.554 1.932 1.792l1.12.2c.868.168 1.232.462 1.232 1.022 0 .714-.728 1.232-1.722 1.232a3.563 3.563 0 01-2.2-.856zm7.8-.658c0 1.092.616 1.666 1.792 1.666a3.837 3.837 0 001.19-.182v-.91a2.454 2.454 0 01-.966.182c-.714 0-.994-.294-.994-1.022v-4.186h1.96v-.84h-1.96v-2.114l-1.022.238v1.876h-1.416v.84h1.414zm6.732 1.666a2.933 2.933 0 002.17-.926v.8h1.008v-4.536c0-1.554-.952-2.408-2.646-2.408a5.853 5.853 0 00-2.576.658l.378.784a4.511 4.511 0 012.072-.588 1.538 1.538 0 011.764 1.69v.938a3.956 3.956 0 00-2.086-.532c-1.54 0-2.562.812-2.562 2.03a2.206 2.206 0 002.478 2.09zm-1.5-2.114c0-.756.686-1.26 1.736-1.26a3.607 3.607 0 011.932.49v1.316a2.7 2.7 0 01-1.96.784c-1.02 0-1.706-.532-1.706-1.33zm7.49.448c0 1.092.616 1.666 1.792 1.666a3.837 3.837 0 001.19-.182v-.91a2.454 2.454 0 01-.96.182c-.714 0-.994-.294-.994-1.022v-4.186h1.96v-.84H285v-2.114l-1.022.238v1.876h-1.412v.84h1.414zm10.094.756l-.642-.686a2.792 2.792 0 01-1.876.7 2.49 2.49 0 01-2.436-2.422h5.362v-.308a3.228 3.228 0 00-3.136-3.444 3.325 3.325 0 00-3.22 3.528 3.41 3.41 0 003.388 3.542 3.989 3.989 0 002.562-.91zm-2.742-5.278a2.256 2.256 0 012.142 2.142h-4.326a2.282 2.282 0 012.184-2.142zm5.04 6.062h1.022v-5.082a1.872 1.872 0 011.666-1.008 1.7 1.7 0 011.694 1.932V360h1.022v-4.41a2.834 2.834 0 00-.056-.6 1.9 1.9 0 011.708-1.08c1.036 0 1.68.742 1.68 1.932V360h1.022v-4.41a2.325 2.325 0 00-2.328-2.534 2.524 2.524 0 00-2.282 1.33 2.245 2.245 0 00-2.1-1.33 2.34 2.34 0 00-2.03 1.176v-1.064h-1.018zm17.612-.784l-.644-.686a2.792 2.792 0 01-1.876.7 2.49 2.49 0 01-2.436-2.422h5.362v-.308a3.228 3.228 0 00-3.136-3.444 3.325 3.325 0 00-3.22 3.528 3.41 3.41 0 003.388 3.542 3.989 3.989 0 002.562-.91zm-2.744-5.278a2.256 2.256 0 012.142 2.142h-4.326a2.282 2.282 0 012.184-2.142zm5.04 6.062h1.022v-5.04a2.014 2.014 0 011.792-1.05 1.771 1.771 0 011.834 1.96V360h1.022v-4.424a2.378 2.378 0 00-2.478-2.52 2.462 2.462 0 00-2.17 1.218v-1.106h-1.022zm8.47-1.54c0 1.092.616 1.666 1.792 1.666a3.837 3.837 0 001.19-.182v-.91a2.454 2.454 0 01-.966.182c-.714 0-.994-.294-.994-1.022v-4.186h1.96v-.84h-1.96v-2.114l-1.022.238v1.876h-1.414v.84h1.414z"/><g transform="translate(-539 -543)"><rect class="b" width="83" height="36" rx="3" transform="translate(784 821)"/><path d="M800.448 843.256a6.443 6.443 0 004.592 1.904c2.46 0 4.26-1.44 4.26-3.376 0-1.68-1.024-2.576-3.408-3.008l-1.792-.304c-1.5-.24-2.112-.752-2.112-1.744 0-1.168 1.1-2.032 2.672-2.032a6.331 6.331 0 013.772 1.344l.64-.96a7.324 7.324 0 00-4.432-1.424c-2.272 0-3.84 1.312-3.84 3.2 0 1.5.912 2.352 2.96 2.72l1.808.3c1.824.32 2.5.848 2.5 1.968-.004 1.3-1.268 2.256-2.996 2.256a5.216 5.216 0 01-3.872-1.74zm11.852-6.064h-1.18v5.04a2.73 2.73 0 002.832 2.9 2.8 2.8 0 002.48-1.392V845h1.168v-7.808h-1.168v5.776a2.318 2.318 0 01-2.048 1.184 2.017 2.017 0 01-2.084-2.252zm14.98 3.908a3.768 3.768 0 00-3.6-4 3.146 3.146 0 00-2.512 1.168v-4.948l-1.168.24V845h1.152v-1.024a3.161 3.161 0 002.464 1.136 3.8 3.8 0 003.664-4.012zm-3.888-2.98a2.8 2.8 0 012.736 2.992 2.8 2.8 0 01-2.736 2.988 2.744 2.744 0 01-2.224-1.088v-3.82a2.666 2.666 0 012.224-1.072zm5.936 6.88h1.172v-5.808a2.14 2.14 0 011.9-1.152 1.94 1.94 0 011.936 2.208V845h1.164v-5.04a3.238 3.238 0 00-.064-.688 2.173 2.173 0 011.956-1.232c1.184 0 1.92.848 1.92 2.208V845h1.168v-5.04a2.657 2.657 0 00-2.656-2.9 2.885 2.885 0 00-2.608 1.52 2.566 2.566 0 00-2.4-1.52 2.674 2.674 0 00-2.316 1.348v-1.216h-1.172zm14.112-9.728a.83.83 0 00.832-.848.847.847 0 00-.832-.832.85.85 0 00-.848.832.834.834 0 00.848.848zm.576 1.92h-1.168V845h1.168zm3.328 6.048c0 1.248.7 1.9 2.048 1.9a4.386 4.386 0 001.36-.208V843.9a2.8 2.8 0 01-1.1.208c-.816 0-1.136-.336-1.136-1.168v-4.788h2.24v-.96h-2.24v-2.416l-1.168.272v2.144h-1.62v.96h1.616z" fill="#fff"/></g><g transform="translate(156 278)" stroke="#06c" fill="none"><rect class="h" width="73" height="36" rx="3"/><rect class="i" x=".5" y=".5" width="72" height="35" rx="2.5"/></g><path class="b" d="M173.424 302h1.232v-4.784H178l2.272 4.784h1.36l-2.384-4.944a3.048 3.048 0 002.336-3.024c0-1.932-1.424-3.232-3.568-3.232h-4.592zm4.5-10.112a2.165 2.165 0 012.432 2.16 2.162 2.162 0 01-2.436 2.144h-3.264v-4.3zM189.6 301.1l-.736-.784a3.191 3.191 0 01-2.144.8 2.845 2.845 0 01-2.784-2.768h6.128V298a3.689 3.689 0 00-3.584-3.936 3.8 3.8 0 00-3.68 4.036 3.9 3.9 0 003.872 4.044 4.558 4.558 0 002.928-1.044zm-3.136-6.028a2.579 2.579 0 012.448 2.448h-4.944a2.608 2.608 0 012.496-2.448zm4.928 5.92a4.451 4.451 0 003.168 1.152c1.728 0 3.04-1.056 3.04-2.416 0-1.152-.7-1.808-2.272-2.1l-1.312-.24c-1.008-.176-1.344-.48-1.344-1.12 0-.768.672-1.248 1.7-1.248a4.142 4.142 0 012.448.832l.576-.816a5.048 5.048 0 00-2.976-.976c-1.648 0-2.816.944-2.816 2.288 0 1.136.688 1.776 2.208 2.048l1.28.224c.992.192 1.408.528 1.408 1.168 0 .816-.832 1.408-1.968 1.408a4.072 4.072 0 01-2.512-.976zm14.508.108l-.736-.784a3.191 3.191 0 01-2.144.8 2.845 2.845 0 01-2.78-2.764h6.128V298a3.689 3.689 0 00-3.584-3.936 3.8 3.8 0 00-3.684 4.036 3.9 3.9 0 003.876 4.044 4.558 4.558 0 002.924-1.044zm-3.132-6.028a2.579 2.579 0 012.448 2.448h-4.944a2.608 2.608 0 012.496-2.448zm6.288 5.168c0 1.248.7 1.9 2.048 1.9a4.386 4.386 0 001.36-.208V300.9a2.8 2.8 0 01-1.1.208c-.816 0-1.136-.336-1.136-1.168v-4.788h2.24v-.96h-2.24v-2.416l-1.168.272v2.144h-1.62v.96h1.616z"/><g class="a"><path class="h" d="M32 210h296v36H32z"/><path class="i" d="M32.5 210.5h295v35h-295z"/></g><path class="e" d="M32 245h296v1H32zM41.424 234h1.232v-4.576h3.392a3.24 3.24 0 003.568-3.312 3.232 3.232 0 00-3.568-3.312h-4.624zm4.476-10.112a2.178 2.178 0 012.48 2.224 2.193 2.193 0 01-2.48 2.256h-3.244v-4.48zm6.928-1.568l-1.168.24V234h1.168zm4.82 11.824a3.352 3.352 0 002.48-1.056V234h1.152v-5.184c0-1.776-1.088-2.752-3.024-2.752a6.689 6.689 0 00-2.944.752l.432.9a5.156 5.156 0 012.368-.672 1.758 1.758 0 012.016 1.936v1.072a4.521 4.521 0 00-2.384-.608c-1.76 0-2.928.928-2.928 2.32 0 1.404 1.168 2.38 2.832 2.38zm-1.712-2.416c0-.864.784-1.44 1.984-1.44a4.122 4.122 0 012.208.56v1.5a3.091 3.091 0 01-2.24.9c-1.168 0-1.952-.608-1.952-1.52zm11.28 1.36a2.832 2.832 0 01-2.752-2.988 2.835 2.835 0 012.736-2.98 3.069 3.069 0 012.208.976l.752-.816a4.259 4.259 0 00-3.008-1.216A3.9 3.9 0 0063.3 230.1a3.913 3.913 0 003.852 4.044 4.061 4.061 0 002.96-1.264l-.72-.72a2.876 2.876 0 01-2.176.928zM78 233.1l-.736-.784a3.191 3.191 0 01-2.144.8 2.845 2.845 0 01-2.784-2.768h6.128V230a3.689 3.689 0 00-3.584-3.936 3.8 3.8 0 00-3.68 4.036 3.9 3.9 0 003.872 4.044A4.558 4.558 0 0078 233.1zm-3.136-6.028a2.579 2.579 0 012.448 2.448h-4.944a2.608 2.608 0 012.496-2.448zm5.6 6.928h1.168v-5.76a2.3 2.3 0 012.048-1.2 2.024 2.024 0 012.1 2.24V234h1.168v-5.056a2.717 2.717 0 00-2.832-2.88 2.813 2.813 0 00-2.48 1.392v-5.136l-1.168.24zm8.48-3.9a3.867 3.867 0 003.792 4.06 3.86 3.86 0 003.808-4.06 3.832 3.832 0 00-3.808-4.032 3.829 3.829 0 00-3.792 4.032zm3.792 3.02a2.753 2.753 0 01-2.636-3.008 2.777 2.777 0 012.64-3.024 2.789 2.789 0 012.656 3.024 2.774 2.774 0 01-2.66 3.008zm7.024-10.8l-1.168.24V234h1.168zM107.9 234h1.168v-11.68l-1.168.24v4.624a3.18 3.18 0 00-2.428-1.084 3.8 3.8 0 00-3.664 4.016 3.768 3.768 0 003.6 4 3.077 3.077 0 002.492-1.156zm-4.94-3.9a2.787 2.787 0 012.74-2.98 2.8 2.8 0 012.2 1.056v3.872a2.674 2.674 0 01-2.2 1.04 2.8 2.8 0 01-2.74-2.988zm14.96 3l-.736-.784a3.191 3.191 0 01-2.144.8 2.845 2.845 0 01-2.784-2.768h6.128V230a3.689 3.689 0 00-3.584-3.936 3.8 3.8 0 00-3.68 4.036 3.9 3.9 0 003.872 4.044 4.558 4.558 0 002.928-1.044zm-3.136-6.028a2.579 2.579 0 012.448 2.448h-4.944a2.608 2.608 0 012.496-2.448zm5.6 6.928h1.168v-5.344a2.226 2.226 0 012.1-1.584 2.919 2.919 0 01.816.144v-1.056a2.217 2.217 0 00-.736-.112 2.332 2.332 0 00-2.176 1.728v-1.584h-1.172zm10.288-1.76c0 1.248.7 1.9 2.048 1.9a4.386 4.386 0 001.36-.208V232.9a2.8 2.8 0 01-1.1.208c-.816 0-1.136-.336-1.136-1.168v-4.788h2.24v-.96h-2.244v-2.416l-1.168.272v2.144h-1.616v.96h1.616zm11.376.86l-.736-.784a3.191 3.191 0 01-2.144.8 2.845 2.845 0 01-2.784-2.768h6.128V230a3.689 3.689 0 00-3.584-3.936 3.8 3.8 0 00-3.68 4.036 3.9 3.9 0 003.872 4.044 4.558 4.558 0 002.928-1.044zm-3.136-6.028a2.579 2.579 0 012.448 2.448h-4.944a2.608 2.608 0 012.496-2.448zm4.112 6.928h1.328l2.32-3.184 2.336 3.184h1.392l-3.024-4.048 2.8-3.76h-1.328l-2.128 2.96-2.16-2.96h-1.392l2.832 3.792zm9.552-1.76c0 1.248.7 1.9 2.048 1.9a4.386 4.386 0 001.36-.208V232.9a2.8 2.8 0 01-1.1.208c-.816 0-1.136-.336-1.136-1.168v-4.788h2.24v-.96h-2.24v-2.416l-1.168.272v2.144h-1.62v.96h1.616z"/><path class="f" d="M139.082 192.316l.42-.63-1.666-1.022 1.61-1.008-.42-.616-1.5.98.016-1.82h-.728l.014 1.834-1.512-.994-.392.616 1.6 1.008-1.656 1.022.406.63 1.568-1.022-.028 1.932h.728l-.028-1.932z"/><path class="g" d="M33.176 198h1.68v-4.172h3.7v-1.4h-3.7v-2.8h5.362V188.2h-7.042zm9.394-8.442a.966.966 0 00.994-.966 1 1 0 00-.994-.98.992.992 0 00-.98.98.962.962 0 00.98.966zm.8 1.428h-1.584V198h1.582zm8.118 6.114l-1.036-.966a2.279 2.279 0 01-1.666.658 2.142 2.142 0 01-2.1-1.918h5.18v-.392a3.367 3.367 0 00-3.318-3.612 3.454 3.454 0 00-3.416 3.63 3.565 3.565 0 003.568 3.64 4.056 4.056 0 002.788-1.04zm-2.954-4.938a1.92 1.92 0 011.834 1.75h-3.654a1.884 1.884 0 011.82-1.75zm6.666-4.438l-1.582.266V198H55.2zM62.3 198h1.568v-10.276l-1.582.266v3.864a2.676 2.676 0 00-2.044-.924 3.4 3.4 0 00-3.28 3.57 3.366 3.366 0 003.178 3.57 2.7 2.7 0 002.16-1.008zm-3.77-3.5a2.1 2.1 0 012.086-2.24 2.176 2.176 0 011.666.756v2.954a2.1 2.1 0 01-1.666.77 2.121 2.121 0 01-2.086-2.24zm11.592 1.652c0 1.288.742 1.96 2.156 1.96a4.976 4.976 0 001.358-.2v-1.33a2.906 2.906 0 01-.952.168c-.714 0-.98-.266-.98-.952v-3.552h1.96v-1.26H71.7v-2.268l-1.582.336v1.932h-1.41v1.26h1.414zm11 .952l-1.032-.966a2.279 2.279 0 01-1.666.658 2.142 2.142 0 01-2.1-1.918H81.5v-.392a3.367 3.367 0 00-3.318-3.612 3.454 3.454 0 00-3.412 3.626 3.565 3.565 0 003.57 3.64 4.056 4.056 0 002.786-1.04zm-2.95-4.942a1.92 1.92 0 011.834 1.75h-3.654a1.884 1.884 0 011.82-1.75zM81.98 198h1.764l1.764-2.478L87.272 198h1.862l-2.716-3.612 2.52-3.4h-1.764l-1.638 2.312-1.636-2.314h-1.85l2.562 3.444zm9.156-1.848c0 1.288.742 1.96 2.156 1.96a4.976 4.976 0 001.358-.2v-1.33a2.906 2.906 0 01-.952.168c-.714 0-.98-.266-.98-.952v-3.552h1.96v-1.26h-1.96v-2.268l-1.582.336v1.932h-1.414v1.26h1.414zm9.94-8.428l-1.582.266V198h1.582zm4.214 10.388a2.928 2.928 0 002.086-.826V198h1.568v-4.578c0-1.624-1.05-2.548-2.87-2.548a6.734 6.734 0 00-2.912.714l.56 1.148a4.853 4.853 0 012.044-.546c1.078 0 1.61.476 1.61 1.4v.77a4.335 4.335 0 00-1.89-.434c-1.652 0-2.674.8-2.674 2.058a2.211 2.211 0 002.478 2.128zm-.99-2.156c0-.616.56-1.008 1.456-1.008a3.63 3.63 0 011.624.336v1.148a2.5 2.5 0 01-1.652.574c-.872 0-1.428-.406-1.428-1.05zm13.618-1.456a3.366 3.366 0 00-3.178-3.57 2.73 2.73 0 00-2.156.994v-4.2l-1.584.266V198h1.554v-.91a2.609 2.609 0 002.072.98 3.4 3.4 0 003.292-3.57zm-3.654-2.24a2.121 2.121 0 012.086 2.24 2.1 2.1 0 01-2.086 2.24 2.15 2.15 0 01-1.68-.77v-2.926a2.059 2.059 0 011.68-.784zm11.508 4.84l-1.036-.966a2.279 2.279 0 01-1.666.666 2.142 2.142 0 01-2.1-1.918h5.18v-.392a3.367 3.367 0 00-3.318-3.612 3.454 3.454 0 00-3.416 3.622 3.565 3.565 0 003.57 3.64 4.056 4.056 0 002.786-1.04zm-2.954-4.938a1.92 1.92 0 011.834 1.75H121a1.884 1.884 0 011.818-1.75zm6.664-4.438l-1.582.266V198h1.582z"/><g class="a"><path class="h" d="M32 116h296v36H32z"/><path class="i" d="M32.5 116.5h295v35h-295z"/></g><path class="e" d="M32 151h296v1H32zM41.424 140h1.232v-4.576h3.392a3.24 3.24 0 003.568-3.312 3.232 3.232 0 00-3.568-3.312h-4.624zm4.476-10.112a2.178 2.178 0 012.48 2.224 2.193 2.193 0 01-2.48 2.256h-3.244v-4.48zm6.928-1.568l-1.168.24V140h1.168zm4.82 11.824a3.352 3.352 0 002.48-1.056V140h1.152v-5.184c0-1.776-1.088-2.752-3.024-2.752a6.689 6.689 0 00-2.944.752l.432.9a5.156 5.156 0 012.368-.672 1.758 1.758 0 012.016 1.936v1.072a4.521 4.521 0 00-2.384-.608c-1.76 0-2.928.928-2.928 2.32 0 1.404 1.168 2.38 2.832 2.38zm-1.712-2.416c0-.864.784-1.44 1.984-1.44a4.122 4.122 0 012.208.56v1.5a3.091 3.091 0 01-2.24.9c-1.168 0-1.952-.608-1.952-1.52zm11.28 1.36a2.832 2.832 0 01-2.752-2.988 2.835 2.835 0 012.736-2.98 3.069 3.069 0 012.208.976l.752-.816a4.259 4.259 0 00-3.008-1.216A3.9 3.9 0 0063.3 136.1a3.913 3.913 0 003.852 4.044 4.061 4.061 0 002.96-1.264l-.72-.72a2.876 2.876 0 01-2.176.928zM78 139.1l-.736-.784a3.191 3.191 0 01-2.144.8 2.845 2.845 0 01-2.784-2.768h6.128V136a3.689 3.689 0 00-3.584-3.936 3.8 3.8 0 00-3.68 4.036 3.9 3.9 0 003.872 4.044A4.558 4.558 0 0078 139.1zm-3.136-6.028a2.579 2.579 0 012.448 2.448h-4.944a2.608 2.608 0 012.496-2.448zm5.6 6.928h1.168v-5.76a2.3 2.3 0 012.048-1.2 2.024 2.024 0 012.1 2.24V140h1.168v-5.056a2.717 2.717 0 00-2.832-2.88 2.813 2.813 0 00-2.48 1.392v-5.136l-1.168.24zm8.48-3.9a3.867 3.867 0 003.792 4.06 3.86 3.86 0 003.808-4.06 3.832 3.832 0 00-3.808-4.032 3.829 3.829 0 00-3.792 4.032zm3.792 3.02a2.753 2.753 0 01-2.636-3.008 2.777 2.777 0 012.64-3.024 2.789 2.789 0 012.656 3.024 2.774 2.774 0 01-2.66 3.008zm7.024-10.8l-1.168.24V140h1.168zM107.9 140h1.168v-11.68l-1.168.24v4.624a3.18 3.18 0 00-2.428-1.084 3.8 3.8 0 00-3.664 4.016 3.768 3.768 0 003.6 4 3.077 3.077 0 002.492-1.156zm-4.94-3.9a2.787 2.787 0 012.74-2.98 2.8 2.8 0 012.2 1.056v3.872a2.674 2.674 0 01-2.2 1.04 2.8 2.8 0 01-2.74-2.988zm14.96 3l-.736-.784a3.191 3.191 0 01-2.144.8 2.845 2.845 0 01-2.784-2.768h6.128V136a3.689 3.689 0 00-3.584-3.936 3.8 3.8 0 00-3.68 4.036 3.9 3.9 0 003.872 4.044 4.558 4.558 0 002.928-1.044zm-3.136-6.028a2.579 2.579 0 012.448 2.448h-4.944a2.608 2.608 0 012.496-2.448zm5.6 6.928h1.168v-5.344a2.226 2.226 0 012.1-1.584 2.919 2.919 0 01.816.144v-1.056a2.217 2.217 0 00-.736-.112 2.332 2.332 0 00-2.176 1.728v-1.584h-1.172zm10.288-1.76c0 1.248.7 1.9 2.048 1.9a4.386 4.386 0 001.36-.208V138.9a2.8 2.8 0 01-1.1.208c-.816 0-1.136-.336-1.136-1.168v-4.788h2.24v-.96h-2.244v-2.416l-1.168.272v2.144h-1.616v.96h1.616zm11.376.86l-.736-.784a3.191 3.191 0 01-2.144.8 2.845 2.845 0 01-2.784-2.768h6.128V136a3.689 3.689 0 00-3.584-3.936 3.8 3.8 0 00-3.68 4.036 3.9 3.9 0 003.872 4.044 4.558 4.558 0 002.928-1.044zm-3.136-6.028a2.579 2.579 0 012.448 2.448h-4.944a2.608 2.608 0 012.496-2.448zm4.112 6.928h1.328l2.32-3.184 2.336 3.184h1.392l-3.024-4.048 2.8-3.76h-1.328l-2.128 2.96-2.16-2.96h-1.392l2.832 3.792zm9.552-1.76c0 1.248.7 1.9 2.048 1.9a4.386 4.386 0 001.36-.208V138.9a2.8 2.8 0 01-1.1.208c-.816 0-1.136-.336-1.136-1.168v-4.788h2.24v-.96h-2.24v-2.416l-1.168.272v2.144h-1.62v.96h1.616z"/><path class="f" d="M139.082 98.316l.42-.63-1.666-1.022 1.61-1.008-.42-.616-1.5.98.016-1.82h-.728l.014 1.834-1.512-.994-.392.616 1.6 1.008-1.656 1.022.406.63 1.568-1.022-.028 1.932h.728l-.028-1.932z"/><path class="g" d="M33.176 104h1.68v-4.172h3.7v-1.4h-3.7v-2.8h5.362V94.2h-7.042zm9.394-8.442a.966.966 0 00.994-.966 1 1 0 00-.994-.98.992.992 0 00-.98.98.962.962 0 00.98.966zm.8 1.428h-1.584V104h1.582zm8.118 6.114l-1.036-.966a2.279 2.279 0 01-1.666.658 2.142 2.142 0 01-2.1-1.918h5.18v-.392a3.367 3.367 0 00-3.318-3.612 3.454 3.454 0 00-3.416 3.63 3.565 3.565 0 003.568 3.64 4.056 4.056 0 002.788-1.04zm-2.954-4.938a1.92 1.92 0 011.834 1.75h-3.654a1.884 1.884 0 011.82-1.75zm6.666-4.438l-1.582.266V104H55.2zM62.3 104h1.568V93.724l-1.582.266v3.864a2.676 2.676 0 00-2.044-.924 3.4 3.4 0 00-3.28 3.57 3.366 3.366 0 003.178 3.57 2.7 2.7 0 002.16-1.008zm-3.77-3.5a2.1 2.1 0 012.086-2.24 2.176 2.176 0 011.666.756v2.954a2.1 2.1 0 01-1.666.77 2.121 2.121 0 01-2.086-2.24zm11.592 1.652c0 1.288.742 1.96 2.156 1.96a4.976 4.976 0 001.358-.2v-1.33a2.906 2.906 0 01-.952.168c-.714 0-.98-.266-.98-.952v-3.552h1.96v-1.26H71.7v-2.268l-1.582.336v1.932h-1.41v1.26h1.414zm11 .952l-1.032-.966a2.279 2.279 0 01-1.666.658 2.142 2.142 0 01-2.1-1.918H81.5v-.392a3.367 3.367 0 00-3.318-3.612 3.454 3.454 0 00-3.412 3.626 3.565 3.565 0 003.57 3.64 4.056 4.056 0 002.786-1.04zm-2.95-4.942a1.92 1.92 0 011.834 1.75h-3.654a1.884 1.884 0 011.82-1.75zM81.98 104h1.764l1.764-2.478L87.272 104h1.862l-2.716-3.612 2.52-3.4h-1.764L85.536 99.3 83.9 96.986h-1.85l2.562 3.444zm9.156-1.848c0 1.288.742 1.96 2.156 1.96a4.976 4.976 0 001.358-.2v-1.33a2.906 2.906 0 01-.952.168c-.714 0-.98-.266-.98-.952v-3.552h1.96v-1.26h-1.96v-2.268l-1.582.336v1.932h-1.414v1.26h1.414zm9.94-8.428l-1.582.266V104h1.582zm4.214 10.388a2.928 2.928 0 002.086-.826V104h1.568v-4.578c0-1.624-1.05-2.548-2.87-2.548a6.734 6.734 0 00-2.912.714l.56 1.148a4.853 4.853 0 012.044-.546c1.078 0 1.61.476 1.61 1.4v.77a4.335 4.335 0 00-1.89-.434c-1.652 0-2.674.8-2.674 2.058a2.211 2.211 0 002.478 2.128zm-.99-2.156c0-.616.56-1.008 1.456-1.008a3.63 3.63 0 011.624.336v1.148a2.5 2.5 0 01-1.652.574c-.872 0-1.428-.406-1.428-1.05zm13.618-1.456a3.366 3.366 0 00-3.178-3.57 2.73 2.73 0 00-2.156.994v-4.2L111 93.99V104h1.554v-.91a2.609 2.609 0 002.072.98 3.4 3.4 0 003.292-3.57zm-3.654-2.24a2.121 2.121 0 012.086 2.24 2.1 2.1 0 01-2.086 2.24 2.15 2.15 0 01-1.68-.77v-2.926a2.059 2.059 0 011.68-.784zm11.508 4.84l-1.036-.966a2.279 2.279 0 01-1.666.666 2.142 2.142 0 01-2.1-1.918h5.18v-.392a3.367 3.367 0 00-3.318-3.612 3.454 3.454 0 00-3.416 3.622 3.565 3.565 0 003.57 3.64 4.056 4.056 0 002.786-1.04zm-2.954-4.938a1.92 1.92 0 011.834 1.75H121a1.884 1.884 0 011.818-1.75zm6.664-4.438l-1.582.266V104h1.582zM33.42 52h2.1v-6.06h5.44v-1.8h-5.44v-4.3h8.24V38H33.42zm10.02-5.1a5.246 5.246 0 005.3 5.3 5.229 5.229 0 005.28-5.3 5.225 5.225 0 00-5.28-5.28 5.242 5.242 0 00-5.3 5.28zm5.3 3.54a3.406 3.406 0 01-3.34-3.54 3.4 3.4 0 013.34-3.52 3.4 3.4 0 013.32 3.52 3.416 3.416 0 01-3.32 3.54zM55.92 52h2v-6.8a2.779 2.779 0 012.64-1.86 3.425 3.425 0 011.18.22v-1.8a2.541 2.541 0 00-1.02-.16 3.186 3.186 0 00-2.8 1.52v-1.3h-2zm7.42 0h2v-7.4a2.667 2.667 0 012.3-1.24 2.287 2.287 0 012.34 2.58V52h1.98v-6.4a4.239 4.239 0 00-.08-.88 2.715 2.715 0 012.38-1.36 2.287 2.287 0 012.34 2.58V52h2v-6.4a3.73 3.73 0 00-3.82-3.98 4.077 4.077 0 00-3.44 1.7 3.547 3.547 0 00-3.14-1.7 3.906 3.906 0 00-2.86 1.16v-.96h-2zm23.06-2.52c0 1.76 1.06 2.7 3.04 2.7a6.624 6.624 0 001.9-.3V50.2a3.929 3.929 0 01-1.46.24c-1.08 0-1.5-.38-1.5-1.42V43.5h3v-1.68h-3v-3.08l-1.98.48v2.6h-2.16v1.68h2.16zm7.46-9.3a1.246 1.246 0 001.24-1.24 1.246 1.246 0 00-1.24-1.24 1.229 1.229 0 00-1.22 1.24 1.229 1.229 0 001.22 1.24zm1 1.64h-2V52h2zm3.68 7.66c0 1.76 1.06 2.7 3.04 2.7a6.624 6.624 0 001.9-.3V50.2a3.929 3.929 0 01-1.46.24c-1.08 0-1.5-.38-1.5-1.42V43.5h3v-1.68h-3v-3.08l-1.98.48v2.6h-2.16v1.68h2.16zM107 37.56l-2 .44v14h2zm11.18 13.28l-1.28-1.26a3.96 3.96 0 01-2.58.9 3.434 3.434 0 01-3.44-2.92h8.04v-.58a5.041 5.041 0 00-4.92-5.32 5.115 5.115 0 00-5.1 5.24 5.238 5.238 0 005.34 5.28 6.072 6.072 0 003.94-1.34zm-4.22-7.5a3.149 3.149 0 012.98 2.72h-6.04a3.126 3.126 0 013.06-2.72z"/></svg>