<svg xmlns="http://www.w3.org/2000/svg" width="360" height="87.772" viewBox="0 0 360 87.772"><defs><style>.a{fill:#151515;}.b{fill:#fff;}.c{fill:none;stroke:#d2d2d2;}.d{fill:#8a8d90;}.e{fill:#c9190b;}</style></defs><g transform="translate(0 5)"><path class="a" d="M4.046,0H5.124V-3.976L8.946-9.8h-1.2L4.62-4.956,1.5-9.8H.238L4.046-4ZM8.3-3.416A3.384,3.384,0,0,0,11.62.14a3.389,3.389,0,0,0,3.346-3.556A3.365,3.365,0,0,0,11.62-6.944,3.359,3.359,0,0,0,8.3-3.416Zm5.642.014A2.412,2.412,0,0,1,11.62-.77,2.4,2.4,0,0,1,9.324-3.4a2.421,2.421,0,0,1,2.3-2.646A2.424,2.424,0,0,1,13.944-3.4Zm3.906-3.43H16.828v4.424A2.382,2.382,0,0,0,19.292.112,2.462,2.462,0,0,0,21.476-1.12V0H22.5V-6.832H21.476v5.04a2.03,2.03,0,0,1-1.792,1.05A1.771,1.771,0,0,1,17.85-2.7ZM31.164-.8a2.465,2.465,0,0,1-2.38-2.618,2.478,2.478,0,0,1,2.38-2.6,2.61,2.61,0,0,1,1.876.854L33.7-5.88A3.628,3.628,0,0,0,31.15-6.944a3.423,3.423,0,0,0-3.388,3.528A3.435,3.435,0,0,0,31.15.126,3.461,3.461,0,0,0,33.656-.98l-.63-.63A2.442,2.442,0,0,1,31.164-.8Zm6.272.924a2.906,2.906,0,0,0,2.17-.91V0h1.008V-4.536c0-1.582-.98-2.408-2.646-2.408a5.722,5.722,0,0,0-2.576.658l.392.784a4.407,4.407,0,0,1,2.058-.588c1.148,0,1.764.546,1.764,1.694v.924a4.1,4.1,0,0,0-2.072-.518c-1.484,0-2.562.756-2.562,2.016A2.2,2.2,0,0,0,37.436.126ZM35.952-1.988c0-.8.728-1.274,1.722-1.274a3.545,3.545,0,0,1,1.932.5v1.316a2.726,2.726,0,0,1-1.96.784C36.652-.658,35.952-1.19,35.952-1.988ZM42.784,0h1.022V-5.04A2.03,2.03,0,0,1,45.6-6.09a1.771,1.771,0,0,1,1.834,1.96V0h1.022V-4.424a2.382,2.382,0,0,0-2.464-2.52,2.462,2.462,0,0,0-2.184,1.232v-1.12H42.784Zm12.25-6.832H54.012v4.424A2.382,2.382,0,0,0,56.476.112,2.462,2.462,0,0,0,58.66-1.12V0h1.022V-6.832H58.66v5.04a2.03,2.03,0,0,1-1.792,1.05A1.771,1.771,0,0,1,55.034-2.7ZM61.838,0H62.86V-5.04a2.03,2.03,0,0,1,1.792-1.05,1.771,1.771,0,0,1,1.834,1.96V0h1.022V-4.424a2.382,2.382,0,0,0-2.464-2.52A2.462,2.462,0,0,0,62.86-5.712v-1.12H61.838ZM69.02-.952A3.788,3.788,0,0,0,71.806.126c1.54,0,2.66-.952,2.646-2.114.014-1.036-.644-1.6-1.988-1.834l-1.134-.21c-.84-.154-1.19-.392-1.19-.98,0-.672.63-1.092,1.484-1.092a3.45,3.45,0,0,1,2.114.77l.546-.7a4.251,4.251,0,0,0-2.618-.91c-1.442,0-2.464.84-2.464,2,0,1.022.658,1.568,1.932,1.792l1.134.2c.854.154,1.218.448,1.218,1.022,0,.672-.616,1.232-1.722,1.232a3.059,3.059,0,0,1-2.156-.9ZM77.1-6.832H76.076v4.424A2.382,2.382,0,0,0,78.54.112,2.462,2.462,0,0,0,80.724-1.12V0h1.022V-6.832H80.724v5.04a2.03,2.03,0,0,1-1.792,1.05A1.771,1.771,0,0,1,77.1-2.7ZM90.286-3.416a3.308,3.308,0,0,0-3.164-3.5,2.705,2.705,0,0,0-2.2,1.036v-4.13L83.9-9.8V0H84.91V-.9A2.7,2.7,0,0,0,87.066.1,3.329,3.329,0,0,0,90.286-3.416ZM86.87-6.02A2.451,2.451,0,0,1,89.264-3.4,2.443,2.443,0,0,1,86.87-.784a2.421,2.421,0,0,1-1.946-.952V-5.082A2.352,2.352,0,0,1,86.87-6.02Zm4.7,5.068A3.788,3.788,0,0,0,94.36.126c1.54,0,2.66-.952,2.646-2.114.014-1.036-.644-1.6-1.988-1.834l-1.134-.21c-.84-.154-1.19-.392-1.19-.98,0-.672.63-1.092,1.484-1.092a3.45,3.45,0,0,1,2.114.77l.546-.7a4.251,4.251,0,0,0-2.618-.91c-1.442,0-2.464.84-2.464,2,0,1.022.658,1.568,1.932,1.792l1.134.2c.854.154,1.218.448,1.218,1.022,0,.672-.616,1.232-1.722,1.232a3.059,3.059,0,0,1-2.156-.9ZM101.808-.8a2.465,2.465,0,0,1-2.38-2.618,2.478,2.478,0,0,1,2.38-2.6,2.61,2.61,0,0,1,1.876.854l.658-.714a3.628,3.628,0,0,0-2.548-1.064,3.423,3.423,0,0,0-3.388,3.528A3.435,3.435,0,0,0,101.794.126,3.461,3.461,0,0,0,104.3-.98l-.63-.63A2.442,2.442,0,0,1,101.808-.8Zm4.144.8h1.022V-4.676a1.921,1.921,0,0,1,1.834-1.386,2.422,2.422,0,0,1,.714.126V-6.86a2.01,2.01,0,0,0-.644-.1,2.031,2.031,0,0,0-1.9,1.484V-6.832h-1.022Zm5.572-8.554a.726.726,0,0,0,.728-.742.723.723,0,0,0-.728-.728.723.723,0,0,0-.728.728A.726.726,0,0,0,111.524-8.554Zm.5,1.722h-1.022V0h1.022Zm8.554,3.416a3.308,3.308,0,0,0-3.164-3.5,2.705,2.705,0,0,0-2.2,1.036v-4.13L114.2-9.8V0h1.008V-.9A2.7,2.7,0,0,0,117.362.1,3.329,3.329,0,0,0,120.582-3.416Zm-3.416-2.6A2.451,2.451,0,0,1,119.56-3.4a2.443,2.443,0,0,1-2.394,2.618,2.421,2.421,0,0,1-1.946-.952V-5.082A2.352,2.352,0,0,1,117.166-6.02Zm4.984,2.6A3.418,3.418,0,0,0,125.538.126a3.935,3.935,0,0,0,2.562-.91l-.644-.7a2.792,2.792,0,0,1-1.876.7,2.459,2.459,0,0,1-2.422-2.422h5.362V-3.5a3.236,3.236,0,0,0-3.136-3.444A3.336,3.336,0,0,0,122.15-3.416Zm3.22-2.632A2.25,2.25,0,0,1,127.5-3.92h-4.312A2.258,2.258,0,0,1,125.37-6.048ZM135.87.126a2.906,2.906,0,0,0,2.17-.91V0h1.008V-4.536c0-1.582-.98-2.408-2.646-2.408a5.722,5.722,0,0,0-2.576.658l.392.784a4.408,4.408,0,0,1,2.058-.588c1.148,0,1.764.546,1.764,1.694v.924a4.1,4.1,0,0,0-2.072-.518c-1.484,0-2.562.756-2.562,2.016A2.2,2.2,0,0,0,135.87.126Zm-1.484-2.114c0-.8.728-1.274,1.722-1.274a3.545,3.545,0,0,1,1.932.5v1.316a2.726,2.726,0,0,1-1.96.784C135.086-.658,134.386-1.19,134.386-1.988Zm7.378.448c0,1.064.6,1.666,1.792,1.666a4.124,4.124,0,0,0,1.2-.182v-.91a2.521,2.521,0,0,1-.966.182c-.728,0-1.008-.294-1.008-1.022V-5.992h1.974v-.84h-1.974V-8.806l-1.022.238v1.736H140.35v.84h1.414ZM151.858.126a2.906,2.906,0,0,0,2.17-.91V0h1.008V-4.536c0-1.582-.98-2.408-2.646-2.408a5.722,5.722,0,0,0-2.576.658l.392.784a4.408,4.408,0,0,1,2.058-.588c1.148,0,1.764.546,1.764,1.694v.924a4.1,4.1,0,0,0-2.072-.518c-1.484,0-2.562.756-2.562,2.016A2.2,2.2,0,0,0,151.858.126Zm-1.484-2.114c0-.8.728-1.274,1.722-1.274a3.545,3.545,0,0,1,1.932.5v1.316a2.726,2.726,0,0,1-1.96.784C151.074-.658,150.374-1.19,150.374-1.988ZM157.206,0h1.022V-5.04a2.03,2.03,0,0,1,1.792-1.05,1.771,1.771,0,0,1,1.834,1.96V0h1.022V-4.424a2.382,2.382,0,0,0-2.464-2.52,2.462,2.462,0,0,0-2.184,1.232v-1.12h-1.022Zm9.2.952c-.28.7-.644.868-1.106.868a3.447,3.447,0,0,1-.56-.056v.91a2.247,2.247,0,0,0,.658.1c1.022,0,1.54-.434,1.96-1.512l3.332-8.092h-1.12L167.37-1.2,165.3-6.832H164.15L166.8-.014Zm9.94-2.492c0,1.064.6,1.666,1.792,1.666a4.124,4.124,0,0,0,1.2-.182v-.91a2.521,2.521,0,0,1-.966.182c-.728,0-1.008-.294-1.008-1.022V-5.992h1.974v-.84h-1.974V-8.806l-1.022.238v1.736H174.93v.84h1.414Zm5.082-7.014a.726.726,0,0,0,.728-.742.723.723,0,0,0-.728-.728.723.723,0,0,0-.728.728A.726.726,0,0,0,181.426-8.554Zm.5,1.722h-1.022V0h1.022ZM184.1,0h1.022V-5.082a1.9,1.9,0,0,1,1.666-1.008,1.7,1.7,0,0,1,1.694,1.932V0H189.5V-4.41a2.834,2.834,0,0,0-.056-.6,1.921,1.921,0,0,1,1.708-1.078c1.064,0,1.68.756,1.68,1.932V0h1.036V-4.41a2.335,2.335,0,0,0-2.338-2.534,2.551,2.551,0,0,0-2.282,1.33,2.24,2.24,0,0,0-2.086-1.33,2.338,2.338,0,0,0-2.044,1.176V-6.832H184.1Zm11.634-3.416A3.418,3.418,0,0,0,199.122.126a3.935,3.935,0,0,0,2.562-.91l-.644-.7a2.792,2.792,0,0,1-1.876.7,2.459,2.459,0,0,1-2.422-2.422H202.1V-3.5a3.236,3.236,0,0,0-3.136-3.444A3.336,3.336,0,0,0,195.734-3.416Zm3.22-2.632a2.25,2.25,0,0,1,2.128,2.128H196.77A2.258,2.258,0,0,1,198.954-6.048Z" transform="translate(0 80)"/><path class="b" d="M0,26H360V62H0Z"/><path class="c" d="M.5,26.5h359v35H.5Z"/><path class="d" d="M0,61H360v1H0Z"/><path class="d" d="M1.424,0H9.136V-1.072H2.656V-5.12H7.1V-6.192H2.656v-3.936H9.072V-11.2H1.424Zm9.632,0h1.168V-5.808a2.171,2.171,0,0,1,1.9-1.152,1.939,1.939,0,0,1,1.936,2.208V0h1.168V-5.04a3.238,3.238,0,0,0-.064-.688A2.2,2.2,0,0,1,19.12-6.96c1.216,0,1.92.864,1.92,2.208V0h1.184V-5.04a2.669,2.669,0,0,0-2.672-2.9,2.915,2.915,0,0,0-2.608,1.52,2.56,2.56,0,0,0-2.384-1.52,2.672,2.672,0,0,0-2.336,1.344V-7.808H11.056Zm15.9.144A3.321,3.321,0,0,0,29.44-.9V0h1.152V-5.184c0-1.808-1.12-2.752-3.024-2.752a6.539,6.539,0,0,0-2.944.752l.448.9a5.037,5.037,0,0,1,2.352-.672c1.312,0,2.016.624,2.016,1.936v1.056a4.683,4.683,0,0,0-2.368-.592c-1.7,0-2.928.864-2.928,2.3C24.144-.832,25.312.144,26.96.144Zm-1.7-2.416c0-.912.832-1.456,1.968-1.456a4.052,4.052,0,0,1,2.208.576v1.5a3.116,3.116,0,0,1-2.24.9C26.064-.752,25.264-1.36,25.264-2.272Zm8.24-7.5a.83.83,0,0,0,.832-.848.826.826,0,0,0-.832-.832.826.826,0,0,0-.832.832A.83.83,0,0,0,33.5-9.776Zm.576,1.968H32.912V0H34.08Zm3.488-3.632L36.4-11.2V0h1.168ZM46.048.144A3.321,3.321,0,0,0,48.528-.9V0H49.68V-5.184c0-1.808-1.12-2.752-3.024-2.752a6.539,6.539,0,0,0-2.944.752l.448.9a5.037,5.037,0,0,1,2.352-.672c1.312,0,2.016.624,2.016,1.936v1.056A4.683,4.683,0,0,0,46.16-4.56c-1.7,0-2.928.864-2.928,2.3C43.232-.832,44.4.144,46.048.144Zm-1.7-2.416c0-.912.832-1.456,1.968-1.456a4.052,4.052,0,0,1,2.208.576v1.5a3.116,3.116,0,0,1-2.24.9C45.152-.752,44.352-1.36,44.352-2.272ZM57.776,0h1.168V-11.44l-1.184.24v4.368A3.2,3.2,0,0,0,55.344-7.9a3.8,3.8,0,0,0-3.68,4.016,3.78,3.78,0,0,0,3.616,4,3.139,3.139,0,0,0,2.5-1.168ZM52.832-3.9a2.775,2.775,0,0,1,2.72-2.976A2.813,2.813,0,0,1,57.76-5.84v3.888a2.7,2.7,0,0,1-2.208,1.04A2.789,2.789,0,0,1,52.832-3.9ZM67.024,0h1.168V-11.44l-1.184.24v4.368A3.2,3.2,0,0,0,64.592-7.9a3.8,3.8,0,0,0-3.68,4.016,3.78,3.78,0,0,0,3.616,4,3.139,3.139,0,0,0,2.5-1.168ZM62.08-3.9A2.775,2.775,0,0,1,64.8-6.88a2.813,2.813,0,0,1,2.208,1.04v3.888A2.7,2.7,0,0,1,64.8-.912,2.789,2.789,0,0,1,62.08-3.9ZM70.5,0h1.168V-5.344a2.2,2.2,0,0,1,2.1-1.584,2.768,2.768,0,0,1,.816.144V-7.84a2.3,2.3,0,0,0-.736-.112,2.321,2.321,0,0,0-2.176,1.7V-7.808H70.5Zm4.7-3.9A3.907,3.907,0,0,0,79.072.144,4.5,4.5,0,0,0,82-.9l-.736-.8a3.191,3.191,0,0,1-2.144.8,2.81,2.81,0,0,1-2.768-2.768H82.48V-4A3.7,3.7,0,0,0,78.9-7.936,3.812,3.812,0,0,0,75.2-3.9Zm3.68-3.008A2.572,2.572,0,0,1,81.312-4.48H76.384A2.581,2.581,0,0,1,78.88-6.912Zm4.864,5.824A4.33,4.33,0,0,0,86.928.144c1.76,0,3.04-1.088,3.024-2.416.016-1.184-.736-1.824-2.272-2.1l-1.3-.24c-.96-.176-1.36-.448-1.36-1.12,0-.768.72-1.248,1.7-1.248a3.943,3.943,0,0,1,2.416.88l.624-.8a4.858,4.858,0,0,0-2.992-1.04c-1.648,0-2.816.96-2.816,2.288,0,1.168.752,1.792,2.208,2.048l1.3.224c.976.176,1.392.512,1.392,1.168,0,.768-.7,1.408-1.968,1.408a3.5,3.5,0,0,1-2.464-1.024Zm7.3,0A4.33,4.33,0,0,0,94.224.144c1.76,0,3.04-1.088,3.024-2.416.016-1.184-.736-1.824-2.272-2.1l-1.3-.24c-.96-.176-1.36-.448-1.36-1.12,0-.768.72-1.248,1.7-1.248a3.943,3.943,0,0,1,2.416.88l.624-.8a4.858,4.858,0,0,0-2.992-1.04c-1.648,0-2.816.96-2.816,2.288,0,1.168.752,1.792,2.208,2.048l1.3.224c.976.176,1.392.512,1.392,1.168,0,.768-.7,1.408-1.968,1.408a3.5,3.5,0,0,1-2.464-1.024Z" transform="translate(8 50)"/><path d="M117,2a7,7,0,1,1,7,7"/><path class="e" d="M1.176,0h7.07V-1.428H2.856V-4.242H6.58v-1.4H2.856v-2.73H8.19V-9.8H1.176Zm8.876,0h1.6V-5.068a1.61,1.61,0,0,1,1.386-.784,1.419,1.419,0,0,1,1.414,1.61V0H16.03V-4.578c0-.154-.014-.308-.028-.448a1.633,1.633,0,0,1,1.414-.826c.882,0,1.4.644,1.4,1.61V0h1.6V-4.578A2.326,2.326,0,0,0,18.1-7.126a2.593,2.593,0,0,0-2.31,1.358A2.188,2.188,0,0,0,13.72-7.126a2.382,2.382,0,0,0-2.072,1.218V-7.014h-1.6ZM24.584.112A2.978,2.978,0,0,0,26.67-.672V0h1.568V-4.578c0-1.652-1.064-2.548-2.87-2.548a6.854,6.854,0,0,0-2.912.714l.56,1.148A4.966,4.966,0,0,1,25.06-5.81c1.064,0,1.61.448,1.61,1.4v.742a4.229,4.229,0,0,0-1.862-.406c-1.624,0-2.7.756-2.7,2.044A2.222,2.222,0,0,0,24.584.112ZM23.59-2.072c0-.644.6-1.008,1.47-1.008a3.635,3.635,0,0,1,1.61.336v1.176A2.629,2.629,0,0,1,25-1.008C24.164-1.008,23.59-1.414,23.59-2.072Zm7.5-6.328a.965.965,0,0,0,.98-.98.98.98,0,0,0-.98-.966.989.989,0,0,0-.98.966A.974.974,0,0,0,31.094-8.4Zm.8,1.386H30.3V0h1.6ZM35.5-10.066l-1.6.266V0h1.6ZM42.966.112a2.978,2.978,0,0,0,2.086-.784V0H46.62V-4.578c0-1.652-1.064-2.548-2.87-2.548a6.854,6.854,0,0,0-2.912.714l.56,1.148a4.966,4.966,0,0,1,2.044-.546c1.064,0,1.61.448,1.61,1.4v.742a4.229,4.229,0,0,0-1.862-.406c-1.624,0-2.7.756-2.7,2.044A2.222,2.222,0,0,0,42.966.112Zm-.994-2.184c0-.644.6-1.008,1.47-1.008a3.635,3.635,0,0,1,1.61.336v1.176a2.629,2.629,0,0,1-1.666.56C42.546-1.008,41.972-1.414,41.972-2.072ZM53.718,0h1.568V-10.066L53.7-9.8v3.654A2.641,2.641,0,0,0,51.66-7.07,3.4,3.4,0,0,0,48.384-3.5,3.366,3.366,0,0,0,51.562.07,2.68,2.68,0,0,0,53.718-.938ZM49.952-3.5a2.1,2.1,0,0,1,2.086-2.24,2.179,2.179,0,0,1,1.666.756V-2.03a2.082,2.082,0,0,1-1.666.77A2.113,2.113,0,0,1,49.952-3.5ZM62.342,0H63.91V-10.066L62.328-9.8v3.654a2.641,2.641,0,0,0-2.044-.924A3.4,3.4,0,0,0,57.008-3.5,3.366,3.366,0,0,0,60.186.07,2.68,2.68,0,0,0,62.342-.938ZM58.576-3.5a2.1,2.1,0,0,1,2.086-2.24,2.179,2.179,0,0,1,1.666.756V-2.03a2.082,2.082,0,0,1-1.666.77A2.113,2.113,0,0,1,58.576-3.5ZM65.926,0h1.6V-4.634a1.852,1.852,0,0,1,1.736-1.148,2.3,2.3,0,0,1,.882.168V-7a1.873,1.873,0,0,0-.7-.14,2.077,2.077,0,0,0-1.918,1.61V-7.014h-1.6ZM70.84-3.5A3.568,3.568,0,0,0,74.424.14,4,4,0,0,0,77.2-.9l-1.036-.98a2.279,2.279,0,0,1-1.666.658,2.119,2.119,0,0,1-2.1-1.9h5.194v-.392a3.378,3.378,0,0,0-3.332-3.612A3.455,3.455,0,0,0,70.84-3.5Zm3.4-2.324a1.9,1.9,0,0,1,1.82,1.736h-3.64A1.871,1.871,0,0,1,74.242-5.824Zm4.48,4.942A4.609,4.609,0,0,0,81.76.14c1.61,0,2.87-.98,2.856-2.282.014-1.064-.686-1.694-2.072-1.96l-1.232-.224c-.7-.126-.994-.308-.994-.77,0-.532.518-.826,1.218-.826a3.559,3.559,0,0,1,2.072.714l.784-1.022a4.714,4.714,0,0,0-2.772-.9c-1.61,0-2.716.826-2.716,2.17,0,1.05.686,1.68,2.03,1.932l1.246.21c.686.126.966.364.966.8,0,.49-.434.938-1.4.938a3.521,3.521,0,0,1-2.226-.84Zm6.874,0A4.609,4.609,0,0,0,88.634.14c1.61,0,2.87-.98,2.856-2.282C91.5-3.206,90.8-3.836,89.418-4.1l-1.232-.224c-.7-.126-.994-.308-.994-.77,0-.532.518-.826,1.218-.826a3.559,3.559,0,0,1,2.072.714l.784-1.022a4.714,4.714,0,0,0-2.772-.9c-1.61,0-2.716.826-2.716,2.17,0,1.05.686,1.68,2.03,1.932l1.246.21c.686.126.966.364.966.8,0,.49-.434.938-1.4.938a3.521,3.521,0,0,1-2.226-.84Zm14.868-4.8.42-.63L99.218-7.336l1.61-1.008-.42-.616-1.5.98.014-1.82H98.2l.014,1.834L96.7-8.96l-.392.616,1.6,1.008L96.25-6.314l.406.63,1.568-1.022L98.2-4.774h.728L98.9-6.706Z" transform="translate(0 14)"/></g></svg>