<svg xmlns="http://www.w3.org/2000/svg" width="340" height="572"><g fill="#fff" stroke="#d2d2d2" transform="translate(-360 -222) translate(360 222)"><rect width="340" height="572" stroke="none" rx="3"/><rect width="339" height="571" x=".5" y=".5" fill="none" rx="2.5"/></g><text fill="#06c" transform="translate(-360 -222) translate(392 758)" font-size="14" font-family="RedHatText-Regular, Red Hat Text" letter-spacing=".01em"><tspan x="0" y="0">Privacy statement</tspan></text><g fill="none" stroke="#06c" transform="translate(-360 -222) translate(491 676)"><rect width="73" height="36" stroke="none" rx="3"/><rect width="72" height="35" x=".5" y=".5" rx="2.5"/></g><text fill="#06c" transform="translate(147 478)" font-size="16" font-family="RedHatText-Regular, Red Hat Text"><tspan x="0" y="0">Reset</tspan></text><g transform="translate(-360 -222) translate(392 676)"><rect width="83" height="36" fill="#06c" rx="3"/><text fill="#fff" transform="translate(16 24)" font-size="16" font-family="RedHatText-Regular, Red Hat Text"><tspan x="0" y="0">Submit</tspan></text></g><text fill="#c9190b" transform="translate(-360 -222) translate(392 640)" font-size="14" font-family="RedHatText-Regular, Red Hat Text" letter-spacing=".01em"><tspan x="0" y="0">This field cannot be left blank</tspan></text><g fill="#fff" stroke="#d2d2d2"><path stroke="none" d="M32 364h276v36H32z"/><path fill="none" d="M32.5 364.5h275v35h-275z"/></g><path fill="#c9190b" d="M32 398h276v2H32z"/><path fill="none" d="M276 370h24v24h-24z"/><path fill="#c9190b" d="M296 382a8 8 0 1 1-8-8 8 8 0 0 1 8 8zm-8 1.6a1.48 1.48 0 1 0 1.48 1.5 1.48 1.48 0 0 0-1.48-1.5zm-1.4-5.32l.23 4.4a.4.4 0 0 0 .4.35h1.55a.4.4 0 0 0 .4-.36l.23-4.4a.4.4 0 0 0-.38-.4h-2.04a.4.4 0 0 0-.4.4z"/><text fill="#6a6e73" transform="translate(40 388)" font-size="16" font-family="RedHatText-Regular, Red Hat Text"><tspan x="0" y="0">Email address</tspan></text><text fill="#151515" transform="translate(-360 -222) translate(392 574)" font-size="14" font-family="RedHatText-Medium, Red Hat Text" letter-spacing=".01em" font-weight="500"><tspan x="0" y="0">Email address</tspan><tspan y="0" fill="#c9190b" font-family="RedHatText-Regular, Red Hat Text" font-weight="400">*</tspan></text><text fill="#c9190b" transform="translate(-360 -222) translate(392 524)" font-size="14" font-family="RedHatText-Regular, Red Hat Text" letter-spacing=".01em"><tspan x="0" y="0">This field cannot be left blank</tspan></text><g fill="#fff" stroke="#d2d2d2"><path stroke="none" d="M32 248h276v36H32z"/><path fill="none" d="M32.5 248.5h275v35h-275z"/></g><path fill="#c9190b" d="M32 282h276v2H32z"/><path fill="none" d="M276 254h24v24h-24z"/><path fill="#c9190b" d="M296 266a8 8 0 1 1-8-8 8 8 0 0 1 8 8zm-8 1.6a1.48 1.48 0 1 0 1.48 1.5 1.48 1.48 0 0 0-1.48-1.5zm-1.4-5.32l.23 4.4a.4.4 0 0 0 .4.35h1.55a.4.4 0 0 0 .4-.36l.23-4.4a.4.4 0 0 0-.38-.4h-2.04a.4.4 0 0 0-.4.4z"/><text fill="#6a6e73" transform="translate(40 272)" font-size="16" font-family="RedHatText-Regular, Red Hat Text"><tspan x="0" y="0">First name last name</tspan></text><text fill="#151515" transform="translate(-360 -222) translate(392 458)" font-size="14" font-family="RedHatText-Medium, Red Hat Text" letter-spacing=".01em" font-weight="500"><tspan x="0" y="0">First and last name</tspan><tspan y="0" fill="#c9190b" font-family="RedHatText-Regular, Red Hat Text" font-weight="400">*</tspan></text><path fill="#faeae8" d="M32 90h276v100H32z"/><path fill="none" d="M278 106h14v14h-14z"/><path fill="#6a6e73" d="M286.9 113l2.84-2.84a.9.9 0 0 0 0-1.27l-.63-.64a.9.9 0 0 0-1.25 0L285 111.1l-2.84-2.84a.9.9 0 0 0-1.27 0l-.64.63a.9.9 0 0 0 0 1.26l2.84 2.84-2.84 2.84a.9.9 0 0 0 0 1.27l.63.64a.9.9 0 0 0 1.26 0l2.84-2.84 2.84 2.84a.9.9 0 0 0 1.27 0l.64-.63a.9.9 0 0 0 0-1.25z"/><text fill="#151515" transform="translate(80 135)" font-size="14" font-family="RedHatText-Regular, Red Hat Text" letter-spacing=".01em"><tspan x="0" y="14">Please correct the errors</tspan><tspan x="0" y="35">marked in red.</tspan></text><text fill="#7d1007" transform="translate(80 123)" font-size="14" font-family="RedHatText-Medium, Red Hat Text" font-weight="500" letter-spacing=".01em"><tspan x="0" y="0">Errors</tspan></text><path fill="none" d="M48 106h24v24H48z"/><path fill="#c9190b" d="M69 118a9 9 0 1 1-9-9 9 9 0 0 1 9 9zm-9 1.8a1.67 1.67 0 1 0 1.67 1.68A1.67 1.67 0 0 0 60 119.8zm-1.58-5.98l.26 4.93a.43.43 0 0 0 .44.4h1.76a.43.43 0 0 0 .44-.4l.27-4.93a.43.43 0 0 0-.45-.46h-2.3a.43.43 0 0 0-.43.45zM32 90h276v2H32z"/><text fill="#151515" transform="translate(-360 -222) translate(392 274)" font-size="20" font-family="RedHatDisplay-Medium, Red Hat Display" font-weight="500"><tspan x="0" y="0">Form title</tspan></text></svg>