<svg xmlns="http://www.w3.org/2000/svg" width="298" height="55" viewBox="0 0 298 55"><g transform="translate(-445 -4956)"><g transform="translate(0 1700)"><g transform="translate(78 8)"><g transform="translate(453 3257)" fill="#fff" stroke="#d2d2d2" stroke-width="1"><rect width="126" height="36" stroke="none"/><rect x="0.5" y="0.5" width="125" height="35" fill="none"/></g><rect width="126" height="1" transform="translate(453 3292)" fill="#6a6e73"/><g transform="translate(-83 1)"><rect width="24" height="24" transform="translate(630 3262)" fill="none"/><path d="M245.4,51h9.2a.725.725,0,0,1,.5,1.2l-4.6,4.6a.668.668,0,0,1-1,0l-4.6-4.6A.714.714,0,0,1,245.4,51Z" transform="translate(392.282 3220)"/></g><text transform="translate(461 3281)" fill="#151515" font-size="16" font-family="RedHatText-Regular, Red Hat Text"><tspan x="0" y="0">Select list</tspan></text></g></g><rect width="298" height="55" transform="translate(445 4956)" fill="none"/></g></svg>