<svg xmlns="http://www.w3.org/2000/svg" width="1000" height="569" viewBox="0 0 1000 569"><g transform="translate(-360 -3797)"><g transform="translate(-254 3571)"><text transform="translate(784 791)" fill="#06c" font-size="14" font-family="RedHatText-Regular, Red Hat Text" letter-spacing="0.01em"><tspan x="0" y="0">Privacy statement</tspan></text><g transform="translate(883 709)"><g fill="none" stroke="#06c" stroke-width="1"><rect width="73" height="36" rx="3" stroke="none"/><rect x="0.5" y="0.5" width="72" height="35" rx="2.5" fill="none"/></g><text transform="translate(16 24)" fill="#06c" font-size="16" font-family="RedHatText-Regular, Red Hat Text"><tspan x="0" y="0">Reset</tspan></text></g><g transform="translate(784 709)"><rect width="83" height="36" rx="3" fill="#06c"/><text transform="translate(16 24)" fill="#fff" font-size="16" font-family="RedHatText-Regular, Red Hat Text"><tspan x="0" y="0">Submit</tspan></text></g><g transform="translate(907 653)"><text transform="translate(28 18)" fill="#151515" font-size="16" font-family="RedHatText-Regular, Red Hat Text"><tspan x="0" y="0">Don’t subscribe</tspan></text><rect width="24" height="24" fill="none"/><g transform="translate(4 4)" fill="#fff" stroke="#2c77f6" stroke-width="1"><circle cx="8" cy="8" r="8" stroke="none"/><circle cx="8" cy="8" r="7.5" fill="none"/></g><circle cx="5" cy="5" r="5" transform="translate(7 7)" fill="#2c77f6"/></g><g transform="translate(784 653)"><text transform="translate(28 18)" fill="#151515" font-size="16" font-family="RedHatText-Regular, Red Hat Text"><tspan x="0" y="0">Subscribe</tspan></text><rect width="24" height="24" fill="none"/><g transform="translate(4 4)" fill="#fff" stroke="#767676" stroke-width="1"><circle cx="8" cy="8" r="8" stroke="none"/><circle cx="8" cy="8" r="7.5" fill="none"/></g></g><text transform="translate(784 641)" fill="#151515" font-size="14" font-family="RedHatText-Medium, Red Hat Text" letter-spacing="0.01em" font-weight="500"><tspan x="0" y="0">Subscribe </tspan><tspan y="0" fill="#c9190b" font-family="RedHatText-Regular, Red Hat Text" font-weight="400">*</tspan></text><text transform="translate(784 591)" fill="#151515" font-size="14" font-family="RedHatText-Regular, Red Hat Text" letter-spacing="0.01em"><tspan x="0" y="0">You can unsubscribe at any time</tspan></text><g transform="translate(784 537)"><g fill="#fff" stroke="#d2d2d2" stroke-width="1"><rect width="660" height="36" stroke="none"/><rect x="0.5" y="0.5" width="659" height="35" fill="none"/></g><rect width="660" height="1" transform="translate(0 35)" fill="#6a6e73"/><text transform="translate(8 24)" fill="#6a6e73" font-size="16" font-family="RedHatText-Regular, Red Hat Text"><tspan x="0" y="0">Email address</tspan></text></g><text transform="translate(784 525)" fill="#151515" font-size="14" font-family="RedHatText-Medium, Red Hat Text" letter-spacing="0.01em" font-weight="500"><tspan x="0" y="0">Email address </tspan><tspan y="0" fill="#c9190b" font-family="RedHatText-Regular, Red Hat Text" font-weight="400">*</tspan></text><g transform="translate(784 443)"><g fill="#fff" stroke="#d2d2d2" stroke-width="1"><rect width="660" height="36" stroke="none"/><rect x="0.5" y="0.5" width="659" height="35" fill="none"/></g><rect width="660" height="1" transform="translate(0 35)" fill="#6a6e73"/><text transform="translate(8 24)" fill="#6a6e73" font-size="16" font-family="RedHatText-Regular, Red Hat Text"><tspan x="0" y="0">Phone number</tspan></text></g><text transform="translate(784 431)" fill="#151515" font-size="14" font-family="RedHatText-Medium, Red Hat Text" letter-spacing="0.01em" font-weight="500"><tspan x="0" y="0">Phone number </tspan><tspan y="0" fill="#c9190b" font-family="RedHatText-Regular, Red Hat Text" font-weight="400">*</tspan></text><g transform="translate(784 349)"><g fill="#fff" stroke="#d2d2d2" stroke-width="1"><rect width="660" height="36" stroke="none"/><rect x="0.5" y="0.5" width="659" height="35" fill="none"/></g><rect width="660" height="1" transform="translate(0 35)" fill="#6a6e73"/><text transform="translate(8 24)" fill="#6a6e73" font-size="16" font-family="RedHatText-Regular, Red Hat Text"><tspan x="0" y="0">First name last name</tspan></text></g><text transform="translate(784 337)" fill="#151515" font-size="14" font-family="RedHatText-Medium, Red Hat Text" letter-spacing="0.01em" font-weight="500"><tspan x="0" y="0">First and last name </tspan><tspan y="0" fill="#c9190b" font-family="RedHatText-Regular, Red Hat Text" font-weight="400">*</tspan></text><text transform="translate(784 286)" fill="#151515" font-size="18" font-family="RedHatText-Regular, Red Hat Text"><tspan x="0" y="0">Short optional helper text.</tspan></text><text transform="translate(784 246)" fill="#e00" font-size="20" font-family="RedHatDisplay-Medium, Red Hat Display" font-weight="500"><tspan x="0" y="0">FORM TITLE</tspan></text></g><g opacity="0.03"><rect width="65" height="569" transform="translate(1295 3797)" fill="#151515" opacity="0.75"/><rect width="65" height="569" transform="translate(1210 3797)" fill="#151515" opacity="0.75"/><rect width="65" height="569" transform="translate(1125 3797)" fill="red" opacity="0.75"/><rect width="65" height="569" transform="translate(1040 3797)" fill="red" opacity="0.75"/><rect width="65" height="569" transform="translate(955 3797)" fill="red" opacity="0.75"/><rect width="65" height="569" transform="translate(870 3797)" fill="red" opacity="0.75"/><rect width="65" height="569" transform="translate(785 3797)" fill="red" opacity="0.75"/><rect width="65" height="569" transform="translate(700 3797)" fill="red" opacity="0.75"/><rect width="65" height="569" transform="translate(615 3797)" fill="red" opacity="0.75"/><rect width="65" height="569" transform="translate(530 3797)" fill="red" opacity="0.75"/><rect width="65" height="569" transform="translate(445 3797)" fill="#151515" opacity="0.75"/><rect width="65" height="569" transform="translate(360 3797)" fill="#151515" opacity="0.75"/></g></g></svg>