<svg xmlns="http://www.w3.org/2000/svg" width="1000" height="569" viewBox="0 0 1000 569"><defs><style>.a{fill:#06c;}.b,.e,.j{fill:none;}.b{stroke:#06c;}.c,.f,.h{fill:#fff;}.d,.n{fill:#151515;}.f{stroke:#2c77f6;}.g{fill:#2c77f6;}.h{stroke:#767676;}.i{fill:#c9190b;}.j{stroke:#d2d2d2;}.k{fill:#6a6e73;}.l{fill:#e00;}.m{opacity:0.03;}.n,.o{opacity:0.75;}.o{fill:red;}.p{stroke:none;}</style></defs><path class="a" d="M1.246,0H2.324V-4H5.292A2.842,2.842,0,0,0,8.414-6.9,2.835,2.835,0,0,0,5.292-9.8H1.246ZM5.18-8.848A1.9,1.9,0,0,1,7.336-6.9,1.914,1.914,0,0,1,5.18-4.928H2.324v-3.92ZM10.3,0h1.022V-4.676A1.921,1.921,0,0,1,13.16-6.062a2.422,2.422,0,0,1,.714.126V-6.86a2.01,2.01,0,0,0-.644-.1,2.031,2.031,0,0,0-1.9,1.484V-6.832H10.3Zm5.572-8.554A.726.726,0,0,0,16.6-9.3a.723.723,0,0,0-.728-.728.723.723,0,0,0-.728.728A.726.726,0,0,0,15.876-8.554Zm.5,1.722H15.358V0H16.38ZM20.608,0h.966l2.814-6.832H23.3L21.112-1.288,18.928-6.832H17.794ZM27.93.126a2.906,2.906,0,0,0,2.17-.91V0h1.008V-4.536c0-1.582-.98-2.408-2.646-2.408a5.722,5.722,0,0,0-2.576.658l.392.784a4.407,4.407,0,0,1,2.058-.588c1.148,0,1.764.546,1.764,1.694v.924a4.1,4.1,0,0,0-2.072-.518c-1.484,0-2.562.756-2.562,2.016A2.2,2.2,0,0,0,27.93.126ZM26.446-1.988c0-.8.728-1.274,1.722-1.274a3.545,3.545,0,0,1,1.932.5v1.316a2.726,2.726,0,0,1-1.96.784C27.146-.658,26.446-1.19,26.446-1.988ZM36.386-.8a2.465,2.465,0,0,1-2.38-2.618,2.478,2.478,0,0,1,2.38-2.6,2.61,2.61,0,0,1,1.876.854l.658-.714a3.628,3.628,0,0,0-2.548-1.064,3.423,3.423,0,0,0-3.388,3.528A3.435,3.435,0,0,0,36.372.126,3.461,3.461,0,0,0,38.878-.98l-.63-.63A2.442,2.442,0,0,1,36.386-.8ZM42.042.952c-.28.7-.644.868-1.106.868a3.447,3.447,0,0,1-.56-.056v.91a2.247,2.247,0,0,0,.658.1c1.022,0,1.54-.434,1.96-1.512l3.332-8.092h-1.12L43.008-1.2,40.936-6.832H39.788L42.434-.014Zm8.47-1.9A3.788,3.788,0,0,0,53.3.126c1.54,0,2.66-.952,2.646-2.114.014-1.036-.644-1.6-1.988-1.834l-1.134-.21c-.84-.154-1.19-.392-1.19-.98,0-.672.63-1.092,1.484-1.092a3.45,3.45,0,0,1,2.114.77l.546-.7a4.251,4.251,0,0,0-2.618-.91c-1.442,0-2.464.84-2.464,2,0,1.022.658,1.568,1.932,1.792l1.134.2c.854.154,1.218.448,1.218,1.022,0,.672-.616,1.232-1.722,1.232A3.06,3.06,0,0,1,51.1-1.6Zm7.742-.588c0,1.064.6,1.666,1.792,1.666a4.124,4.124,0,0,0,1.2-.182v-.91a2.521,2.521,0,0,1-.966.182c-.728,0-1.008-.294-1.008-1.022V-5.992H61.25v-.84H59.276V-8.806l-1.022.238v1.736H56.84v.84h1.414ZM64.946.126a2.906,2.906,0,0,0,2.17-.91V0h1.008V-4.536c0-1.582-.98-2.408-2.646-2.408a5.722,5.722,0,0,0-2.576.658l.392.784a4.407,4.407,0,0,1,2.058-.588c1.148,0,1.764.546,1.764,1.694v.924a4.1,4.1,0,0,0-2.072-.518c-1.484,0-2.562.756-2.562,2.016A2.2,2.2,0,0,0,64.946.126ZM63.462-1.988c0-.8.728-1.274,1.722-1.274a3.545,3.545,0,0,1,1.932.5v1.316a2.726,2.726,0,0,1-1.96.784C64.162-.658,63.462-1.19,63.462-1.988Zm7.378.448c0,1.064.6,1.666,1.792,1.666a4.124,4.124,0,0,0,1.2-.182v-.91a2.521,2.521,0,0,1-.966.182c-.728,0-1.008-.294-1.008-1.022V-5.992h1.974v-.84H71.862V-8.806l-1.022.238v1.736H69.426v.84H70.84Zm4.046-1.876A3.418,3.418,0,0,0,78.274.126a3.935,3.935,0,0,0,2.562-.91l-.644-.7a2.792,2.792,0,0,1-1.876.7,2.459,2.459,0,0,1-2.422-2.422h5.362V-3.5A3.236,3.236,0,0,0,78.12-6.944,3.336,3.336,0,0,0,74.886-3.416Zm3.22-2.632A2.25,2.25,0,0,1,80.234-3.92H75.922A2.258,2.258,0,0,1,78.106-6.048ZM83.076,0H84.1V-5.082A1.9,1.9,0,0,1,85.764-6.09a1.7,1.7,0,0,1,1.694,1.932V0H88.48V-4.41a2.834,2.834,0,0,0-.056-.6A1.921,1.921,0,0,1,90.132-6.09c1.064,0,1.68.756,1.68,1.932V0h1.036V-4.41A2.335,2.335,0,0,0,90.51-6.944a2.551,2.551,0,0,0-2.282,1.33,2.24,2.24,0,0,0-2.086-1.33A2.338,2.338,0,0,0,84.1-5.768V-6.832H83.076ZM94.71-3.416A3.418,3.418,0,0,0,98.1.126a3.935,3.935,0,0,0,2.562-.91l-.644-.7a2.792,2.792,0,0,1-1.876.7,2.459,2.459,0,0,1-2.422-2.422h5.362V-3.5a3.236,3.236,0,0,0-3.136-3.444A3.336,3.336,0,0,0,94.71-3.416Zm3.22-2.632a2.25,2.25,0,0,1,2.128,2.128H95.746A2.258,2.258,0,0,1,97.93-6.048ZM102.9,0h1.022V-5.04a2.03,2.03,0,0,1,1.792-1.05,1.771,1.771,0,0,1,1.834,1.96V0h1.022V-4.424a2.382,2.382,0,0,0-2.464-2.52,2.462,2.462,0,0,0-2.184,1.232v-1.12H102.9Zm8.372-1.54c0,1.064.6,1.666,1.792,1.666a4.124,4.124,0,0,0,1.2-.182v-.91a2.521,2.521,0,0,1-.966.182c-.728,0-1.008-.294-1.008-1.022V-5.992h1.974v-.84h-1.974V-8.806l-1.022.238v1.736h-1.414v.84h1.414Z" transform="translate(170 565)"/><g class="b" transform="translate(269 483)"><rect class="p" width="73" height="36" rx="3"/><rect class="e" x="0.5" y="0.5" width="72" height="35" rx="2.5"/></g><path class="a" d="M1.424,0H2.656V-4.784H6L8.272,0h1.36L7.264-4.944a3.043,3.043,0,0,0,2.32-3.024c0-1.84-1.312-3.232-3.568-3.232H1.424Zm4.5-10.112a2.157,2.157,0,0,1,2.432,2.16A2.146,2.146,0,0,1,5.92-5.808H2.656v-4.3ZM10.688-3.9A3.907,3.907,0,0,0,14.56.144,4.5,4.5,0,0,0,17.488-.9l-.736-.8a3.191,3.191,0,0,1-2.144.8A2.81,2.81,0,0,1,11.84-3.664h6.128V-4a3.7,3.7,0,0,0-3.584-3.936A3.812,3.812,0,0,0,10.688-3.9Zm3.68-3.008A2.572,2.572,0,0,1,16.8-4.48H11.872A2.581,2.581,0,0,1,14.368-6.912Zm4.864,5.824A4.33,4.33,0,0,0,22.416.144c1.76,0,3.04-1.088,3.024-2.416.016-1.184-.736-1.824-2.272-2.1l-1.3-.24c-.96-.176-1.36-.448-1.36-1.12,0-.768.72-1.248,1.7-1.248a3.943,3.943,0,0,1,2.416.88l.624-.8a4.858,4.858,0,0,0-2.992-1.04c-1.648,0-2.816.96-2.816,2.288,0,1.168.752,1.792,2.208,2.048l1.3.224c.976.176,1.392.512,1.392,1.168,0,.768-.7,1.408-1.968,1.408A3.5,3.5,0,0,1,19.9-1.824ZM26.88-3.9A3.907,3.907,0,0,0,30.752.144,4.5,4.5,0,0,0,33.68-.9l-.736-.8A3.191,3.191,0,0,1,30.8-.9a2.81,2.81,0,0,1-2.768-2.768H34.16V-4a3.7,3.7,0,0,0-3.584-3.936A3.812,3.812,0,0,0,26.88-3.9Zm3.68-3.008A2.572,2.572,0,0,1,32.992-4.48H28.064A2.581,2.581,0,0,1,30.56-6.912ZM36.7-1.76c0,1.216.688,1.9,2.048,1.9a4.713,4.713,0,0,0,1.376-.208V-1.1a2.881,2.881,0,0,1-1.1.208c-.832,0-1.152-.336-1.152-1.168V-6.848h2.256v-.96H37.872v-2.256L36.7-9.792v1.984H35.088v.96H36.7Z" transform="translate(285 507)"/><g transform="translate(170 483)"><rect class="a" width="83" height="36" rx="3"/><path class="c" d="M.448-1.84a6.318,6.318,0,0,0,4.576,2C7.776.16,9.3-1.424,9.3-3.216c0-1.648-.96-2.576-3.408-3.008L4.1-6.528C2.72-6.768,1.984-7.2,1.984-8.3c0-1.392,1.344-2,2.672-2a5.937,5.937,0,0,1,3.728,1.36l.72-.928a7.091,7.091,0,0,0-4.416-1.472C2.64-11.344.8-10.32.8-8.208c0,1.584.944,2.432,2.96,2.784l1.808.3c1.808.32,2.5.848,2.5,1.968C8.064-1.9,6.912-.9,5.072-.9A5.393,5.393,0,0,1,1.216-2.7Zm11.84-5.968H11.12v5.056A2.722,2.722,0,0,0,13.936.128a2.813,2.813,0,0,0,2.5-1.408V0H17.6V-7.808H16.432v5.76a2.32,2.32,0,0,1-2.048,1.2,2.023,2.023,0,0,1-2.1-2.24ZM27.2-3.9a3.78,3.78,0,0,0-3.616-4A3.091,3.091,0,0,0,21.072-6.72v-4.72L19.9-11.2V0h1.152V-1.024A3.081,3.081,0,0,0,23.52.112,3.8,3.8,0,0,0,27.2-3.9ZM23.3-6.88a2.8,2.8,0,0,1,2.736,2.992A2.791,2.791,0,0,1,23.3-.9a2.767,2.767,0,0,1-2.224-1.088V-5.808A2.688,2.688,0,0,1,23.3-6.88ZM29.168,0h1.168V-5.808a2.171,2.171,0,0,1,1.9-1.152,1.939,1.939,0,0,1,1.936,2.208V0h1.168V-5.04a3.238,3.238,0,0,0-.064-.688A2.2,2.2,0,0,1,37.232-6.96c1.216,0,1.92.864,1.92,2.208V0h1.184V-5.04a2.669,2.669,0,0,0-2.672-2.9,2.915,2.915,0,0,0-2.608,1.52,2.56,2.56,0,0,0-2.384-1.52,2.672,2.672,0,0,0-2.336,1.344V-7.808H29.168ZM43.232-9.776a.83.83,0,0,0,.832-.848.826.826,0,0,0-.832-.832.826.826,0,0,0-.832.832A.83.83,0,0,0,43.232-9.776Zm.576,1.968H42.64V0h1.168ZM47.072-1.76c0,1.216.688,1.9,2.048,1.9A4.713,4.713,0,0,0,50.5-.064V-1.1a2.881,2.881,0,0,1-1.1.208c-.832,0-1.152-.336-1.152-1.168V-6.848H50.5v-.96H48.24v-2.256l-1.168.272v1.984H45.456v.96h1.616Z" transform="translate(16 24)"/></g><g transform="translate(293 427)"><path class="d" d="M1.424,0H5.136a5.413,5.413,0,0,0,5.6-5.6,5.422,5.422,0,0,0-5.6-5.6H1.424ZM5.216-10.1A4.3,4.3,0,0,1,9.472-5.6,4.3,4.3,0,0,1,5.216-1.1H2.656V-10.1ZM12.464-3.9A3.867,3.867,0,0,0,16.256.16,3.873,3.873,0,0,0,20.08-3.9a3.845,3.845,0,0,0-3.824-4.032A3.839,3.839,0,0,0,12.464-3.9Zm6.448.016A2.756,2.756,0,0,1,16.256-.88a2.742,2.742,0,0,1-2.624-3.008,2.767,2.767,0,0,1,2.624-3.024A2.771,2.771,0,0,1,18.912-3.888ZM22.048,0h1.168V-5.76a2.32,2.32,0,0,1,2.048-1.2,2.023,2.023,0,0,1,2.1,2.24V0h1.168V-5.056a2.722,2.722,0,0,0-2.816-2.88,2.813,2.813,0,0,0-2.5,1.408v-1.28H22.048Zm9.008-11.344-.88,3.376h.912L32.3-11.344ZM34.528-1.76c0,1.216.688,1.9,2.048,1.9a4.713,4.713,0,0,0,1.376-.208V-1.1a2.881,2.881,0,0,1-1.1.208c-.832,0-1.152-.336-1.152-1.168V-6.848h2.256v-.96H35.7v-2.256l-1.168.272v1.984H32.912v.96h1.616Zm8.048.672A4.33,4.33,0,0,0,45.76.144c1.76,0,3.04-1.088,3.024-2.416.016-1.184-.736-1.824-2.272-2.1l-1.3-.24c-.96-.176-1.36-.448-1.36-1.12,0-.768.72-1.248,1.7-1.248a3.943,3.943,0,0,1,2.416.88l.624-.8A4.858,4.858,0,0,0,45.6-7.936c-1.648,0-2.816.96-2.816,2.288,0,1.168.752,1.792,2.208,2.048l1.3.224c.976.176,1.392.512,1.392,1.168,0,.768-.7,1.408-1.968,1.408a3.5,3.5,0,0,1-2.464-1.024Zm9.072-6.72H50.48v5.056A2.722,2.722,0,0,0,53.3.128a2.813,2.813,0,0,0,2.5-1.408V0H56.96V-7.808H55.792v5.76a2.32,2.32,0,0,1-2.048,1.2,2.023,2.023,0,0,1-2.1-2.24ZM66.56-3.9a3.78,3.78,0,0,0-3.616-4A3.091,3.091,0,0,0,60.432-6.72v-4.72l-1.168.24V0h1.152V-1.024A3.081,3.081,0,0,0,62.88.112,3.8,3.8,0,0,0,66.56-3.9Zm-3.9-2.976a2.8,2.8,0,0,1,2.736,2.992A2.791,2.791,0,0,1,62.656-.9a2.767,2.767,0,0,1-2.224-1.088V-5.808A2.688,2.688,0,0,1,62.656-6.88Zm5.216,5.792A4.33,4.33,0,0,0,71.056.144c1.76,0,3.04-1.088,3.024-2.416.016-1.184-.736-1.824-2.272-2.1l-1.3-.24c-.96-.176-1.36-.448-1.36-1.12,0-.768.72-1.248,1.7-1.248a3.943,3.943,0,0,1,2.416.88l.624-.8A4.858,4.858,0,0,0,70.9-7.936c-1.648,0-2.816.96-2.816,2.288,0,1.168.752,1.792,2.208,2.048l1.3.224c.976.176,1.392.512,1.392,1.168,0,.768-.7,1.408-1.968,1.408a3.5,3.5,0,0,1-2.464-1.024Zm11.536.176A2.817,2.817,0,0,1,76.688-3.9a2.832,2.832,0,0,1,2.72-2.976,2.983,2.983,0,0,1,2.144.976L82.3-6.72a4.146,4.146,0,0,0-2.912-1.216A3.912,3.912,0,0,0,75.52-3.9,3.926,3.926,0,0,0,79.392.144,3.955,3.955,0,0,0,82.256-1.12l-.72-.72A2.791,2.791,0,0,1,79.408-.912ZM83.984,0h1.168V-5.344a2.2,2.2,0,0,1,2.1-1.584,2.768,2.768,0,0,1,.816.144V-7.84a2.3,2.3,0,0,0-.736-.112,2.321,2.321,0,0,0-2.176,1.7V-7.808H83.984Zm6.208-9.776a.83.83,0,0,0,.832-.848.826.826,0,0,0-.832-.832.826.826,0,0,0-.832.832A.83.83,0,0,0,90.192-9.776Zm.576,1.968H89.6V0h1.168Zm9.616,3.9a3.78,3.78,0,0,0-3.616-4A3.091,3.091,0,0,0,94.256-6.72v-4.72l-1.168.24V0H94.24V-1.024A3.081,3.081,0,0,0,96.7.112,3.8,3.8,0,0,0,100.384-3.9ZM96.48-6.88a2.8,2.8,0,0,1,2.736,2.992A2.791,2.791,0,0,1,96.48-.9a2.767,2.767,0,0,1-2.224-1.088V-5.808A2.688,2.688,0,0,1,96.48-6.88ZM102.016-3.9A3.907,3.907,0,0,0,105.888.144,4.5,4.5,0,0,0,108.816-.9l-.736-.8a3.191,3.191,0,0,1-2.144.8,2.81,2.81,0,0,1-2.768-2.768H109.3V-4a3.7,3.7,0,0,0-3.584-3.936A3.812,3.812,0,0,0,102.016-3.9Zm3.68-3.008a2.572,2.572,0,0,1,2.432,2.432H103.2A2.581,2.581,0,0,1,105.7-6.912Z" transform="translate(28 18)"/><path class="e" d="M0,0H24V24H0Z"/><g class="f" transform="translate(4 4)"><circle class="p" cx="8" cy="8" r="8"/><circle class="e" cx="8" cy="8" r="7.5"/></g><circle class="g" cx="5" cy="5" r="5" transform="translate(7 7)"/></g><path class="d" d="M.448-1.84a6.318,6.318,0,0,0,4.576,2C7.776.16,9.3-1.424,9.3-3.216c0-1.648-.96-2.576-3.408-3.008L4.1-6.528C2.72-6.768,1.984-7.2,1.984-8.3c0-1.392,1.344-2,2.672-2a5.937,5.937,0,0,1,3.728,1.36l.72-.928a7.091,7.091,0,0,0-4.416-1.472C2.64-11.344.8-10.32.8-8.208c0,1.584.944,2.432,2.96,2.784l1.808.3c1.808.32,2.5.848,2.5,1.968C8.064-1.9,6.912-.9,5.072-.9A5.393,5.393,0,0,1,1.216-2.7Zm11.84-5.968H11.12v5.056A2.722,2.722,0,0,0,13.936.128a2.813,2.813,0,0,0,2.5-1.408V0H17.6V-7.808H16.432v5.76a2.32,2.32,0,0,1-2.048,1.2,2.023,2.023,0,0,1-2.1-2.24ZM27.2-3.9a3.78,3.78,0,0,0-3.616-4A3.091,3.091,0,0,0,21.072-6.72v-4.72L19.9-11.2V0h1.152V-1.024A3.081,3.081,0,0,0,23.52.112,3.8,3.8,0,0,0,27.2-3.9ZM23.3-6.88a2.8,2.8,0,0,1,2.736,2.992A2.791,2.791,0,0,1,23.3-.9a2.767,2.767,0,0,1-2.224-1.088V-5.808A2.688,2.688,0,0,1,23.3-6.88Zm5.216,5.792A4.33,4.33,0,0,0,31.7.144c1.76,0,3.04-1.088,3.024-2.416.016-1.184-.736-1.824-2.272-2.1l-1.3-.24c-.96-.176-1.36-.448-1.36-1.12,0-.768.72-1.248,1.7-1.248A3.943,3.943,0,0,1,33.9-6.1l.624-.8a4.858,4.858,0,0,0-2.992-1.04c-1.648,0-2.816.96-2.816,2.288,0,1.168.752,1.792,2.208,2.048l1.3.224c.976.176,1.392.512,1.392,1.168,0,.768-.7,1.408-1.968,1.408a3.5,3.5,0,0,1-2.464-1.024Zm11.536.176A2.817,2.817,0,0,1,37.328-3.9a2.832,2.832,0,0,1,2.72-2.976,2.983,2.983,0,0,1,2.144.976l.752-.816a4.146,4.146,0,0,0-2.912-1.216A3.912,3.912,0,0,0,36.16-3.9,3.926,3.926,0,0,0,40.032.144,3.955,3.955,0,0,0,42.9-1.12l-.72-.72A2.791,2.791,0,0,1,40.048-.912ZM44.624,0h1.168V-5.344a2.2,2.2,0,0,1,2.1-1.584,2.768,2.768,0,0,1,.816.144V-7.84a2.3,2.3,0,0,0-.736-.112,2.321,2.321,0,0,0-2.176,1.7V-7.808H44.624Zm6.208-9.776a.83.83,0,0,0,.832-.848.826.826,0,0,0-.832-.832.826.826,0,0,0-.832.832A.83.83,0,0,0,50.832-9.776Zm.576,1.968H50.24V0h1.168Zm9.616,3.9a3.78,3.78,0,0,0-3.616-4A3.091,3.091,0,0,0,54.9-6.72v-4.72l-1.168.24V0H54.88V-1.024A3.081,3.081,0,0,0,57.344.112,3.8,3.8,0,0,0,61.024-3.9ZM57.12-6.88a2.8,2.8,0,0,1,2.736,2.992A2.791,2.791,0,0,1,57.12-.9,2.767,2.767,0,0,1,54.9-1.984V-5.808A2.688,2.688,0,0,1,57.12-6.88ZM62.656-3.9A3.907,3.907,0,0,0,66.528.144,4.5,4.5,0,0,0,69.456-.9l-.736-.8a3.191,3.191,0,0,1-2.144.8,2.81,2.81,0,0,1-2.768-2.768h6.128V-4a3.7,3.7,0,0,0-3.584-3.936A3.812,3.812,0,0,0,62.656-3.9Zm3.68-3.008A2.572,2.572,0,0,1,68.768-4.48H63.84A2.581,2.581,0,0,1,66.336-6.912Z" transform="translate(198 445)"/><path class="e" d="M170,427h24v24H170Z"/><g class="h" transform="translate(174 431)"><circle class="p" cx="8" cy="8" r="8"/><circle class="e" cx="8" cy="8" r="7.5"/></g><path class="i" d="M.336-1.512A6,6,0,0,0,4.438.14C6.93.14,8.386-1.19,8.386-2.926c0-1.456-.882-2.352-2.9-2.688L3.752-5.922C2.7-6.09,2.24-6.426,2.24-7.182c0-.938.882-1.358,1.946-1.358A4.727,4.727,0,0,1,7.28-7.392L8.2-8.624A6.247,6.247,0,0,0,4.284-9.94C2.17-9.94.63-8.932.63-7.056c0,1.4.84,2.24,2.52,2.548L4.956-4.2c1.316.238,1.778.63,1.778,1.4,0,.882-.812,1.554-2.2,1.554a4.757,4.757,0,0,1-3.248-1.47Zm11.242-5.5H10v4.62A2.364,2.364,0,0,0,12.432.112a2.52,2.52,0,0,0,2.212-1.26V0h1.6V-7.014h-1.6v5.026a1.768,1.768,0,0,1-1.526.826,1.51,1.51,0,0,1-1.54-1.68ZM25.172-3.5a3.364,3.364,0,0,0-3.164-3.57,2.671,2.671,0,0,0-2.156.994v-3.99l-1.6.266V0h1.568V-.882A2.68,2.68,0,0,0,21.9.07,3.389,3.389,0,0,0,25.172-3.5Zm-3.64-2.24A2.121,2.121,0,0,1,23.618-3.5a2.1,2.1,0,0,1-2.086,2.24,2.209,2.209,0,0,1-1.68-.756V-4.97A2.11,2.11,0,0,1,21.532-5.74ZM26.348-.882A4.609,4.609,0,0,0,29.386.14c1.61,0,2.87-.98,2.856-2.282.014-1.064-.686-1.694-2.072-1.96l-1.232-.224c-.7-.126-.994-.308-.994-.77,0-.532.518-.826,1.218-.826a3.559,3.559,0,0,1,2.072.714l.784-1.022a4.714,4.714,0,0,0-2.772-.9c-1.61,0-2.716.826-2.716,2.17,0,1.05.686,1.68,2.03,1.932l1.246.21c.686.126.966.364.966.8,0,.49-.434.938-1.4.938a3.521,3.521,0,0,1-2.226-.84ZM37.17-1.26A2.094,2.094,0,0,1,35.14-3.5a2.088,2.088,0,0,1,1.988-2.24,2.277,2.277,0,0,1,1.722.826l.98-1.022A3.693,3.693,0,0,0,37.1-7.112,3.527,3.527,0,0,0,33.558-3.5,3.551,3.551,0,0,0,37.1.14a3.611,3.611,0,0,0,2.674-1.218l-.952-.952A2.084,2.084,0,0,1,37.17-1.26ZM41.3,0h1.6V-4.634a1.852,1.852,0,0,1,1.736-1.148,2.3,2.3,0,0,1,.882.168V-7a1.873,1.873,0,0,0-.7-.14A2.077,2.077,0,0,0,42.9-5.53V-7.014H41.3Zm6.412-8.4a.965.965,0,0,0,.98-.98.98.98,0,0,0-.98-.966.989.989,0,0,0-.98.966A.974.974,0,0,0,47.712-8.4Zm.8,1.386h-1.6V0h1.6ZM57.442-3.5a3.364,3.364,0,0,0-3.164-3.57,2.671,2.671,0,0,0-2.156.994v-3.99l-1.6.266V0h1.568V-.882A2.68,2.68,0,0,0,54.166.07,3.389,3.389,0,0,0,57.442-3.5ZM53.8-5.74A2.121,2.121,0,0,1,55.888-3.5,2.1,2.1,0,0,1,53.8-1.26a2.209,2.209,0,0,1-1.68-.756V-4.97A2.11,2.11,0,0,1,53.8-5.74ZM58.87-3.5A3.568,3.568,0,0,0,62.454.14,4,4,0,0,0,65.226-.9l-1.036-.98a2.279,2.279,0,0,1-1.666.658,2.119,2.119,0,0,1-2.1-1.9h5.194v-.392a3.378,3.378,0,0,0-3.332-3.612A3.455,3.455,0,0,0,58.87-3.5Zm3.4-2.324a1.9,1.9,0,0,1,1.82,1.736h-3.64A1.871,1.871,0,0,1,62.272-5.824Zm9.17.14.42-.63L70.2-7.336l1.61-1.008-.42-.616-1.5.98L69.9-9.8h-.728l.014,1.834L67.676-8.96l-.392.616,1.6,1.008L67.228-6.314l.406.63L69.2-6.706l-.028,1.932H69.9l-.028-1.932Z" transform="translate(170 415)"/><path class="d" d="M4.046,0H5.124V-3.976L8.946-9.8h-1.2L4.62-4.956,1.5-9.8H.238L4.046-4ZM8.3-3.416A3.384,3.384,0,0,0,11.62.14a3.389,3.389,0,0,0,3.346-3.556A3.365,3.365,0,0,0,11.62-6.944,3.359,3.359,0,0,0,8.3-3.416Zm5.642.014A2.412,2.412,0,0,1,11.62-.77,2.4,2.4,0,0,1,9.324-3.4a2.421,2.421,0,0,1,2.3-2.646A2.424,2.424,0,0,1,13.944-3.4Zm3.906-3.43H16.828v4.424A2.382,2.382,0,0,0,19.292.112,2.462,2.462,0,0,0,21.476-1.12V0H22.5V-6.832H21.476v5.04a2.03,2.03,0,0,1-1.792,1.05A1.771,1.771,0,0,1,17.85-2.7ZM31.164-.8a2.465,2.465,0,0,1-2.38-2.618,2.478,2.478,0,0,1,2.38-2.6,2.61,2.61,0,0,1,1.876.854L33.7-5.88A3.628,3.628,0,0,0,31.15-6.944a3.423,3.423,0,0,0-3.388,3.528A3.435,3.435,0,0,0,31.15.126,3.461,3.461,0,0,0,33.656-.98l-.63-.63A2.442,2.442,0,0,1,31.164-.8Zm6.272.924a2.906,2.906,0,0,0,2.17-.91V0h1.008V-4.536c0-1.582-.98-2.408-2.646-2.408a5.722,5.722,0,0,0-2.576.658l.392.784a4.407,4.407,0,0,1,2.058-.588c1.148,0,1.764.546,1.764,1.694v.924a4.1,4.1,0,0,0-2.072-.518c-1.484,0-2.562.756-2.562,2.016A2.2,2.2,0,0,0,37.436.126ZM35.952-1.988c0-.8.728-1.274,1.722-1.274a3.545,3.545,0,0,1,1.932.5v1.316a2.726,2.726,0,0,1-1.96.784C36.652-.658,35.952-1.19,35.952-1.988ZM42.784,0h1.022V-5.04A2.03,2.03,0,0,1,45.6-6.09a1.771,1.771,0,0,1,1.834,1.96V0h1.022V-4.424a2.382,2.382,0,0,0-2.464-2.52,2.462,2.462,0,0,0-2.184,1.232v-1.12H42.784Zm12.25-6.832H54.012v4.424A2.382,2.382,0,0,0,56.476.112,2.462,2.462,0,0,0,58.66-1.12V0h1.022V-6.832H58.66v5.04a2.03,2.03,0,0,1-1.792,1.05A1.771,1.771,0,0,1,55.034-2.7ZM61.838,0H62.86V-5.04a2.03,2.03,0,0,1,1.792-1.05,1.771,1.771,0,0,1,1.834,1.96V0h1.022V-4.424a2.382,2.382,0,0,0-2.464-2.52A2.462,2.462,0,0,0,62.86-5.712v-1.12H61.838ZM69.02-.952A3.788,3.788,0,0,0,71.806.126c1.54,0,2.66-.952,2.646-2.114.014-1.036-.644-1.6-1.988-1.834l-1.134-.21c-.84-.154-1.19-.392-1.19-.98,0-.672.63-1.092,1.484-1.092a3.45,3.45,0,0,1,2.114.77l.546-.7a4.251,4.251,0,0,0-2.618-.91c-1.442,0-2.464.84-2.464,2,0,1.022.658,1.568,1.932,1.792l1.134.2c.854.154,1.218.448,1.218,1.022,0,.672-.616,1.232-1.722,1.232a3.059,3.059,0,0,1-2.156-.9ZM77.1-6.832H76.076v4.424A2.382,2.382,0,0,0,78.54.112,2.462,2.462,0,0,0,80.724-1.12V0h1.022V-6.832H80.724v5.04a2.03,2.03,0,0,1-1.792,1.05A1.771,1.771,0,0,1,77.1-2.7ZM90.286-3.416a3.308,3.308,0,0,0-3.164-3.5,2.705,2.705,0,0,0-2.2,1.036v-4.13L83.9-9.8V0H84.91V-.9A2.7,2.7,0,0,0,87.066.1,3.329,3.329,0,0,0,90.286-3.416ZM86.87-6.02A2.451,2.451,0,0,1,89.264-3.4,2.443,2.443,0,0,1,86.87-.784a2.421,2.421,0,0,1-1.946-.952V-5.082A2.352,2.352,0,0,1,86.87-6.02Zm4.7,5.068A3.788,3.788,0,0,0,94.36.126c1.54,0,2.66-.952,2.646-2.114.014-1.036-.644-1.6-1.988-1.834l-1.134-.21c-.84-.154-1.19-.392-1.19-.98,0-.672.63-1.092,1.484-1.092a3.45,3.45,0,0,1,2.114.77l.546-.7a4.251,4.251,0,0,0-2.618-.91c-1.442,0-2.464.84-2.464,2,0,1.022.658,1.568,1.932,1.792l1.134.2c.854.154,1.218.448,1.218,1.022,0,.672-.616,1.232-1.722,1.232a3.059,3.059,0,0,1-2.156-.9ZM101.808-.8a2.465,2.465,0,0,1-2.38-2.618,2.478,2.478,0,0,1,2.38-2.6,2.61,2.61,0,0,1,1.876.854l.658-.714a3.628,3.628,0,0,0-2.548-1.064,3.423,3.423,0,0,0-3.388,3.528A3.435,3.435,0,0,0,101.794.126,3.461,3.461,0,0,0,104.3-.98l-.63-.63A2.442,2.442,0,0,1,101.808-.8Zm4.144.8h1.022V-4.676a1.921,1.921,0,0,1,1.834-1.386,2.422,2.422,0,0,1,.714.126V-6.86a2.01,2.01,0,0,0-.644-.1,2.031,2.031,0,0,0-1.9,1.484V-6.832h-1.022Zm5.572-8.554a.726.726,0,0,0,.728-.742.723.723,0,0,0-.728-.728.723.723,0,0,0-.728.728A.726.726,0,0,0,111.524-8.554Zm.5,1.722h-1.022V0h1.022Zm8.554,3.416a3.308,3.308,0,0,0-3.164-3.5,2.705,2.705,0,0,0-2.2,1.036v-4.13L114.2-9.8V0h1.008V-.9A2.7,2.7,0,0,0,117.362.1,3.329,3.329,0,0,0,120.582-3.416Zm-3.416-2.6A2.451,2.451,0,0,1,119.56-3.4a2.443,2.443,0,0,1-2.394,2.618,2.421,2.421,0,0,1-1.946-.952V-5.082A2.352,2.352,0,0,1,117.166-6.02Zm4.984,2.6A3.418,3.418,0,0,0,125.538.126a3.935,3.935,0,0,0,2.562-.91l-.644-.7a2.792,2.792,0,0,1-1.876.7,2.459,2.459,0,0,1-2.422-2.422h5.362V-3.5a3.236,3.236,0,0,0-3.136-3.444A3.336,3.336,0,0,0,122.15-3.416Zm3.22-2.632A2.25,2.25,0,0,1,127.5-3.92h-4.312A2.258,2.258,0,0,1,125.37-6.048ZM135.87.126a2.906,2.906,0,0,0,2.17-.91V0h1.008V-4.536c0-1.582-.98-2.408-2.646-2.408a5.722,5.722,0,0,0-2.576.658l.392.784a4.408,4.408,0,0,1,2.058-.588c1.148,0,1.764.546,1.764,1.694v.924a4.1,4.1,0,0,0-2.072-.518c-1.484,0-2.562.756-2.562,2.016A2.2,2.2,0,0,0,135.87.126Zm-1.484-2.114c0-.8.728-1.274,1.722-1.274a3.545,3.545,0,0,1,1.932.5v1.316a2.726,2.726,0,0,1-1.96.784C135.086-.658,134.386-1.19,134.386-1.988Zm7.378.448c0,1.064.6,1.666,1.792,1.666a4.124,4.124,0,0,0,1.2-.182v-.91a2.521,2.521,0,0,1-.966.182c-.728,0-1.008-.294-1.008-1.022V-5.992h1.974v-.84h-1.974V-8.806l-1.022.238v1.736H140.35v.84h1.414ZM151.858.126a2.906,2.906,0,0,0,2.17-.91V0h1.008V-4.536c0-1.582-.98-2.408-2.646-2.408a5.722,5.722,0,0,0-2.576.658l.392.784a4.408,4.408,0,0,1,2.058-.588c1.148,0,1.764.546,1.764,1.694v.924a4.1,4.1,0,0,0-2.072-.518c-1.484,0-2.562.756-2.562,2.016A2.2,2.2,0,0,0,151.858.126Zm-1.484-2.114c0-.8.728-1.274,1.722-1.274a3.545,3.545,0,0,1,1.932.5v1.316a2.726,2.726,0,0,1-1.96.784C151.074-.658,150.374-1.19,150.374-1.988ZM157.206,0h1.022V-5.04a2.03,2.03,0,0,1,1.792-1.05,1.771,1.771,0,0,1,1.834,1.96V0h1.022V-4.424a2.382,2.382,0,0,0-2.464-2.52,2.462,2.462,0,0,0-2.184,1.232v-1.12h-1.022Zm9.2.952c-.28.7-.644.868-1.106.868a3.447,3.447,0,0,1-.56-.056v.91a2.247,2.247,0,0,0,.658.1c1.022,0,1.54-.434,1.96-1.512l3.332-8.092h-1.12L167.37-1.2,165.3-6.832H164.15L166.8-.014Zm9.94-2.492c0,1.064.6,1.666,1.792,1.666a4.124,4.124,0,0,0,1.2-.182v-.91a2.521,2.521,0,0,1-.966.182c-.728,0-1.008-.294-1.008-1.022V-5.992h1.974v-.84h-1.974V-8.806l-1.022.238v1.736H174.93v.84h1.414Zm5.082-7.014a.726.726,0,0,0,.728-.742.723.723,0,0,0-.728-.728.723.723,0,0,0-.728.728A.726.726,0,0,0,181.426-8.554Zm.5,1.722h-1.022V0h1.022ZM184.1,0h1.022V-5.082a1.9,1.9,0,0,1,1.666-1.008,1.7,1.7,0,0,1,1.694,1.932V0H189.5V-4.41a2.834,2.834,0,0,0-.056-.6,1.921,1.921,0,0,1,1.708-1.078c1.064,0,1.68.756,1.68,1.932V0h1.036V-4.41a2.335,2.335,0,0,0-2.338-2.534,2.551,2.551,0,0,0-2.282,1.33,2.24,2.24,0,0,0-2.086-1.33,2.338,2.338,0,0,0-2.044,1.176V-6.832H184.1Zm11.634-3.416A3.418,3.418,0,0,0,199.122.126a3.935,3.935,0,0,0,2.562-.91l-.644-.7a2.792,2.792,0,0,1-1.876.7,2.459,2.459,0,0,1-2.422-2.422H202.1V-3.5a3.236,3.236,0,0,0-3.136-3.444A3.336,3.336,0,0,0,195.734-3.416Zm3.22-2.632a2.25,2.25,0,0,1,2.128,2.128H196.77A2.258,2.258,0,0,1,198.954-6.048Z" transform="translate(170 365)"/><path class="c" d="M170,311H830v36H170Z"/><path class="j" d="M170.5,311.5h659v35h-659Z"/><path class="k" d="M170,346H830v1H170Z"/><path class="k" d="M1.424,0H9.136V-1.072H2.656V-5.12H7.1V-6.192H2.656v-3.936H9.072V-11.2H1.424Zm9.632,0h1.168V-5.808a2.171,2.171,0,0,1,1.9-1.152,1.939,1.939,0,0,1,1.936,2.208V0h1.168V-5.04a3.238,3.238,0,0,0-.064-.688A2.2,2.2,0,0,1,19.12-6.96c1.216,0,1.92.864,1.92,2.208V0h1.184V-5.04a2.669,2.669,0,0,0-2.672-2.9,2.915,2.915,0,0,0-2.608,1.52,2.56,2.56,0,0,0-2.384-1.52,2.672,2.672,0,0,0-2.336,1.344V-7.808H11.056Zm15.9.144A3.321,3.321,0,0,0,29.44-.9V0h1.152V-5.184c0-1.808-1.12-2.752-3.024-2.752a6.539,6.539,0,0,0-2.944.752l.448.9a5.037,5.037,0,0,1,2.352-.672c1.312,0,2.016.624,2.016,1.936v1.056a4.683,4.683,0,0,0-2.368-.592c-1.7,0-2.928.864-2.928,2.3C24.144-.832,25.312.144,26.96.144Zm-1.7-2.416c0-.912.832-1.456,1.968-1.456a4.052,4.052,0,0,1,2.208.576v1.5a3.116,3.116,0,0,1-2.24.9C26.064-.752,25.264-1.36,25.264-2.272Zm8.24-7.5a.83.83,0,0,0,.832-.848.826.826,0,0,0-.832-.832.826.826,0,0,0-.832.832A.83.83,0,0,0,33.5-9.776Zm.576,1.968H32.912V0H34.08Zm3.488-3.632L36.4-11.2V0h1.168ZM46.048.144A3.321,3.321,0,0,0,48.528-.9V0H49.68V-5.184c0-1.808-1.12-2.752-3.024-2.752a6.539,6.539,0,0,0-2.944.752l.448.9a5.037,5.037,0,0,1,2.352-.672c1.312,0,2.016.624,2.016,1.936v1.056A4.683,4.683,0,0,0,46.16-4.56c-1.7,0-2.928.864-2.928,2.3C43.232-.832,44.4.144,46.048.144Zm-1.7-2.416c0-.912.832-1.456,1.968-1.456a4.052,4.052,0,0,1,2.208.576v1.5a3.116,3.116,0,0,1-2.24.9C45.152-.752,44.352-1.36,44.352-2.272ZM57.776,0h1.168V-11.44l-1.184.24v4.368A3.2,3.2,0,0,0,55.344-7.9a3.8,3.8,0,0,0-3.68,4.016,3.78,3.78,0,0,0,3.616,4,3.139,3.139,0,0,0,2.5-1.168ZM52.832-3.9a2.775,2.775,0,0,1,2.72-2.976A2.813,2.813,0,0,1,57.76-5.84v3.888a2.7,2.7,0,0,1-2.208,1.04A2.789,2.789,0,0,1,52.832-3.9ZM67.024,0h1.168V-11.44l-1.184.24v4.368A3.2,3.2,0,0,0,64.592-7.9a3.8,3.8,0,0,0-3.68,4.016,3.78,3.78,0,0,0,3.616,4,3.139,3.139,0,0,0,2.5-1.168ZM62.08-3.9A2.775,2.775,0,0,1,64.8-6.88a2.813,2.813,0,0,1,2.208,1.04v3.888A2.7,2.7,0,0,1,64.8-.912,2.789,2.789,0,0,1,62.08-3.9ZM70.5,0h1.168V-5.344a2.2,2.2,0,0,1,2.1-1.584,2.768,2.768,0,0,1,.816.144V-7.84a2.3,2.3,0,0,0-.736-.112,2.321,2.321,0,0,0-2.176,1.7V-7.808H70.5Zm4.7-3.9A3.907,3.907,0,0,0,79.072.144,4.5,4.5,0,0,0,82-.9l-.736-.8a3.191,3.191,0,0,1-2.144.8,2.81,2.81,0,0,1-2.768-2.768H82.48V-4A3.7,3.7,0,0,0,78.9-7.936,3.812,3.812,0,0,0,75.2-3.9Zm3.68-3.008A2.572,2.572,0,0,1,81.312-4.48H76.384A2.581,2.581,0,0,1,78.88-6.912Zm4.864,5.824A4.33,4.33,0,0,0,86.928.144c1.76,0,3.04-1.088,3.024-2.416.016-1.184-.736-1.824-2.272-2.1l-1.3-.24c-.96-.176-1.36-.448-1.36-1.12,0-.768.72-1.248,1.7-1.248a3.943,3.943,0,0,1,2.416.88l.624-.8a4.858,4.858,0,0,0-2.992-1.04c-1.648,0-2.816.96-2.816,2.288,0,1.168.752,1.792,2.208,2.048l1.3.224c.976.176,1.392.512,1.392,1.168,0,.768-.7,1.408-1.968,1.408a3.5,3.5,0,0,1-2.464-1.024Zm7.3,0A4.33,4.33,0,0,0,94.224.144c1.76,0,3.04-1.088,3.024-2.416.016-1.184-.736-1.824-2.272-2.1l-1.3-.24c-.96-.176-1.36-.448-1.36-1.12,0-.768.72-1.248,1.7-1.248a3.943,3.943,0,0,1,2.416.88l.624-.8a4.858,4.858,0,0,0-2.992-1.04c-1.648,0-2.816.96-2.816,2.288,0,1.168.752,1.792,2.208,2.048l1.3.224c.976.176,1.392.512,1.392,1.168,0,.768-.7,1.408-1.968,1.408a3.5,3.5,0,0,1-2.464-1.024Z" transform="translate(178 335)"/><path class="i" d="M1.176,0h7.07V-1.428H2.856V-4.242H6.58v-1.4H2.856v-2.73H8.19V-9.8H1.176Zm8.876,0h1.6V-5.068a1.61,1.61,0,0,1,1.386-.784,1.419,1.419,0,0,1,1.414,1.61V0H16.03V-4.578c0-.154-.014-.308-.028-.448a1.633,1.633,0,0,1,1.414-.826c.882,0,1.4.644,1.4,1.61V0h1.6V-4.578A2.326,2.326,0,0,0,18.1-7.126a2.593,2.593,0,0,0-2.31,1.358A2.188,2.188,0,0,0,13.72-7.126a2.382,2.382,0,0,0-2.072,1.218V-7.014h-1.6ZM24.584.112A2.978,2.978,0,0,0,26.67-.672V0h1.568V-4.578c0-1.652-1.064-2.548-2.87-2.548a6.854,6.854,0,0,0-2.912.714l.56,1.148A4.966,4.966,0,0,1,25.06-5.81c1.064,0,1.61.448,1.61,1.4v.742a4.229,4.229,0,0,0-1.862-.406c-1.624,0-2.7.756-2.7,2.044A2.222,2.222,0,0,0,24.584.112ZM23.59-2.072c0-.644.6-1.008,1.47-1.008a3.635,3.635,0,0,1,1.61.336v1.176A2.629,2.629,0,0,1,25-1.008C24.164-1.008,23.59-1.414,23.59-2.072Zm7.5-6.328a.965.965,0,0,0,.98-.98.98.98,0,0,0-.98-.966.989.989,0,0,0-.98.966A.974.974,0,0,0,31.094-8.4Zm.8,1.386H30.3V0h1.6ZM35.5-10.066l-1.6.266V0h1.6ZM42.966.112a2.978,2.978,0,0,0,2.086-.784V0H46.62V-4.578c0-1.652-1.064-2.548-2.87-2.548a6.854,6.854,0,0,0-2.912.714l.56,1.148a4.966,4.966,0,0,1,2.044-.546c1.064,0,1.61.448,1.61,1.4v.742a4.229,4.229,0,0,0-1.862-.406c-1.624,0-2.7.756-2.7,2.044A2.222,2.222,0,0,0,42.966.112Zm-.994-2.184c0-.644.6-1.008,1.47-1.008a3.635,3.635,0,0,1,1.61.336v1.176a2.629,2.629,0,0,1-1.666.56C42.546-1.008,41.972-1.414,41.972-2.072ZM53.718,0h1.568V-10.066L53.7-9.8v3.654A2.641,2.641,0,0,0,51.66-7.07,3.4,3.4,0,0,0,48.384-3.5,3.366,3.366,0,0,0,51.562.07,2.68,2.68,0,0,0,53.718-.938ZM49.952-3.5a2.1,2.1,0,0,1,2.086-2.24,2.179,2.179,0,0,1,1.666.756V-2.03a2.082,2.082,0,0,1-1.666.77A2.113,2.113,0,0,1,49.952-3.5ZM62.342,0H63.91V-10.066L62.328-9.8v3.654a2.641,2.641,0,0,0-2.044-.924A3.4,3.4,0,0,0,57.008-3.5,3.366,3.366,0,0,0,60.186.07,2.68,2.68,0,0,0,62.342-.938ZM58.576-3.5a2.1,2.1,0,0,1,2.086-2.24,2.179,2.179,0,0,1,1.666.756V-2.03a2.082,2.082,0,0,1-1.666.77A2.113,2.113,0,0,1,58.576-3.5ZM65.926,0h1.6V-4.634a1.852,1.852,0,0,1,1.736-1.148,2.3,2.3,0,0,1,.882.168V-7a1.873,1.873,0,0,0-.7-.14,2.077,2.077,0,0,0-1.918,1.61V-7.014h-1.6ZM70.84-3.5A3.568,3.568,0,0,0,74.424.14,4,4,0,0,0,77.2-.9l-1.036-.98a2.279,2.279,0,0,1-1.666.658,2.119,2.119,0,0,1-2.1-1.9h5.194v-.392a3.378,3.378,0,0,0-3.332-3.612A3.455,3.455,0,0,0,70.84-3.5Zm3.4-2.324a1.9,1.9,0,0,1,1.82,1.736h-3.64A1.871,1.871,0,0,1,74.242-5.824Zm4.48,4.942A4.609,4.609,0,0,0,81.76.14c1.61,0,2.87-.98,2.856-2.282.014-1.064-.686-1.694-2.072-1.96l-1.232-.224c-.7-.126-.994-.308-.994-.77,0-.532.518-.826,1.218-.826a3.559,3.559,0,0,1,2.072.714l.784-1.022a4.714,4.714,0,0,0-2.772-.9c-1.61,0-2.716.826-2.716,2.17,0,1.05.686,1.68,2.03,1.932l1.246.21c.686.126.966.364.966.8,0,.49-.434.938-1.4.938a3.521,3.521,0,0,1-2.226-.84Zm6.874,0A4.609,4.609,0,0,0,88.634.14c1.61,0,2.87-.98,2.856-2.282C91.5-3.206,90.8-3.836,89.418-4.1l-1.232-.224c-.7-.126-.994-.308-.994-.77,0-.532.518-.826,1.218-.826a3.559,3.559,0,0,1,2.072.714l.784-1.022a4.714,4.714,0,0,0-2.772-.9c-1.61,0-2.716.826-2.716,2.17,0,1.05.686,1.68,2.03,1.932l1.246.21c.686.126.966.364.966.8,0,.49-.434.938-1.4.938a3.521,3.521,0,0,1-2.226-.84Zm11.578-4.8.42-.63L95.928-7.336l1.61-1.008-.42-.616-1.5.98.014-1.82h-.728l.014,1.834L93.408-8.96l-.392.616,1.6,1.008L92.96-6.314l.406.63,1.568-1.022-.028,1.932h.728l-.028-1.932Z" transform="translate(170 299)"/><path class="c" d="M170,217H830v36H170Z"/><path class="j" d="M170.5,217.5h659v35h-659Z"/><path class="k" d="M170,252H830v1H170Z"/><path class="k" d="M1.424,0H2.656V-4.576H6.048A3.248,3.248,0,0,0,9.616-7.888,3.24,3.24,0,0,0,6.048-11.2H1.424Zm4.5-10.112A2.173,2.173,0,0,1,8.384-7.888,2.188,2.188,0,0,1,5.92-5.632H2.656v-4.48ZM16.928,0H18.1V-5.056a2.722,2.722,0,0,0-2.816-2.88,2.813,2.813,0,0,0-2.5,1.408V-11.44l-1.168.24V0h1.168V-5.76a2.32,2.32,0,0,1,2.048-1.2,2.023,2.023,0,0,1,2.1,2.24Zm3.136-3.9A3.867,3.867,0,0,0,23.856.16,3.873,3.873,0,0,0,27.68-3.9a3.845,3.845,0,0,0-3.824-4.032A3.839,3.839,0,0,0,20.064-3.9Zm6.448.016A2.756,2.756,0,0,1,23.856-.88a2.742,2.742,0,0,1-2.624-3.008,2.767,2.767,0,0,1,2.624-3.024A2.771,2.771,0,0,1,26.512-3.888ZM29.648,0h1.168V-5.76a2.32,2.32,0,0,1,2.048-1.2,2.023,2.023,0,0,1,2.1,2.24V0h1.168V-5.056a2.722,2.722,0,0,0-2.816-2.88,2.813,2.813,0,0,0-2.5,1.408v-1.28H29.648ZM38.1-3.9A3.907,3.907,0,0,0,41.968.144,4.5,4.5,0,0,0,44.9-.9l-.736-.8a3.191,3.191,0,0,1-2.144.8,2.81,2.81,0,0,1-2.768-2.768h6.128V-4a3.7,3.7,0,0,0-3.584-3.936A3.812,3.812,0,0,0,38.1-3.9Zm3.68-3.008A2.572,2.572,0,0,1,44.208-4.48H39.28A2.581,2.581,0,0,1,41.776-6.912ZM51.024,0h1.168V-5.76a2.32,2.32,0,0,1,2.048-1.2,2.023,2.023,0,0,1,2.1,2.24V0H57.5V-5.056a2.722,2.722,0,0,0-2.816-2.88,2.813,2.813,0,0,0-2.5,1.408v-1.28H51.024ZM60.9-7.808H59.728v5.056A2.722,2.722,0,0,0,62.544.128a2.813,2.813,0,0,0,2.5-1.408V0h1.168V-7.808H65.04v5.76a2.32,2.32,0,0,1-2.048,1.2,2.023,2.023,0,0,1-2.1-2.24ZM68.512,0H69.68V-5.808a2.171,2.171,0,0,1,1.9-1.152A1.939,1.939,0,0,1,73.52-4.752V0h1.168V-5.04a3.239,3.239,0,0,0-.064-.688A2.2,2.2,0,0,1,76.576-6.96c1.216,0,1.92.864,1.92,2.208V0H79.68V-5.04a2.669,2.669,0,0,0-2.672-2.9A2.915,2.915,0,0,0,74.4-6.416a2.56,2.56,0,0,0-2.384-1.52A2.672,2.672,0,0,0,69.68-6.592V-7.808H68.512ZM89.28-3.9a3.78,3.78,0,0,0-3.616-4A3.091,3.091,0,0,0,83.152-6.72v-4.72l-1.168.24V0h1.152V-1.024A3.081,3.081,0,0,0,85.6.112,3.8,3.8,0,0,0,89.28-3.9Zm-3.9-2.976a2.8,2.8,0,0,1,2.736,2.992A2.791,2.791,0,0,1,85.376-.9a2.767,2.767,0,0,1-2.224-1.088V-5.808A2.688,2.688,0,0,1,85.376-6.88ZM90.912-3.9A3.907,3.907,0,0,0,94.784.144,4.5,4.5,0,0,0,97.712-.9l-.736-.8a3.191,3.191,0,0,1-2.144.8,2.81,2.81,0,0,1-2.768-2.768h6.128V-4a3.7,3.7,0,0,0-3.584-3.936A3.812,3.812,0,0,0,90.912-3.9Zm3.68-3.008A2.572,2.572,0,0,1,97.024-4.48H92.1A2.581,2.581,0,0,1,94.592-6.912ZM100.112,0h1.168V-5.344a2.2,2.2,0,0,1,2.1-1.584,2.768,2.768,0,0,1,.816.144V-7.84a2.3,2.3,0,0,0-.736-.112,2.321,2.321,0,0,0-2.176,1.7V-7.808h-1.168Z" transform="translate(178 241)"/><path class="i" d="M1.176,0h1.68V-3.738h2.7a3,3,0,0,0,3.276-3.01A3,3,0,0,0,5.558-9.8H1.176ZM5.348-8.386A1.593,1.593,0,0,1,7.14-6.734,1.58,1.58,0,0,1,5.348-5.11H2.856V-8.386ZM15.246,0h1.582V-4.62a2.364,2.364,0,0,0-2.436-2.506,2.52,2.52,0,0,0-2.212,1.26v-4.2l-1.6.266V0h1.6V-5.026a1.768,1.768,0,0,1,1.526-.826,1.51,1.51,0,0,1,1.54,1.68Zm3.3-3.5A3.523,3.523,0,0,0,22.078.14,3.514,3.514,0,0,0,25.606-3.5a3.5,3.5,0,0,0-3.528-3.626A3.511,3.511,0,0,0,18.55-3.5Zm5.5.014a2.05,2.05,0,0,1-1.974,2.254A2.05,2.05,0,0,1,20.1-3.486a2.068,2.068,0,0,1,1.974-2.282A2.068,2.068,0,0,1,24.052-3.486ZM27.328,0h1.6V-5.026a1.768,1.768,0,0,1,1.526-.826,1.51,1.51,0,0,1,1.54,1.68V0h1.582V-4.62a2.364,2.364,0,0,0-2.436-2.506,2.52,2.52,0,0,0-2.212,1.26V-7.014h-1.6Zm7.966-3.5A3.568,3.568,0,0,0,38.878.14,4,4,0,0,0,41.65-.9l-1.036-.98a2.279,2.279,0,0,1-1.666.658,2.119,2.119,0,0,1-2.1-1.9h5.194v-.392A3.378,3.378,0,0,0,38.71-7.126,3.455,3.455,0,0,0,35.294-3.5Zm3.4-2.324a1.9,1.9,0,0,1,1.82,1.736h-3.64A1.871,1.871,0,0,1,38.7-5.824ZM47.012,0h1.6V-5.026a1.768,1.768,0,0,1,1.526-.826,1.51,1.51,0,0,1,1.54,1.68V0h1.582V-4.62A2.364,2.364,0,0,0,50.82-7.126a2.52,2.52,0,0,0-2.212,1.26V-7.014h-1.6Zm9.772-7.014H55.2v4.62A2.364,2.364,0,0,0,57.638.112a2.52,2.52,0,0,0,2.212-1.26V0h1.6V-7.014h-1.6v5.026a1.768,1.768,0,0,1-1.526.826,1.51,1.51,0,0,1-1.54-1.68ZM63.462,0h1.6V-5.068a1.61,1.61,0,0,1,1.386-.784,1.419,1.419,0,0,1,1.414,1.61V0H69.44V-4.578c0-.154-.014-.308-.028-.448a1.633,1.633,0,0,1,1.414-.826c.882,0,1.4.644,1.4,1.61V0h1.6V-4.578a2.326,2.326,0,0,0-2.31-2.548A2.593,2.593,0,0,0,69.2-5.768,2.188,2.188,0,0,0,67.13-7.126a2.382,2.382,0,0,0-2.072,1.218V-7.014h-1.6ZM82.754-3.5A3.364,3.364,0,0,0,79.59-7.07a2.671,2.671,0,0,0-2.156.994v-3.99l-1.6.266V0h1.568V-.882A2.68,2.68,0,0,0,79.478.07,3.389,3.389,0,0,0,82.754-3.5Zm-3.64-2.24A2.121,2.121,0,0,1,81.2-3.5a2.1,2.1,0,0,1-2.086,2.24,2.209,2.209,0,0,1-1.68-.756V-4.97A2.11,2.11,0,0,1,79.114-5.74ZM84.182-3.5A3.568,3.568,0,0,0,87.766.14,4,4,0,0,0,90.538-.9L89.5-1.876a2.279,2.279,0,0,1-1.666.658,2.119,2.119,0,0,1-2.1-1.9H90.93v-.392A3.378,3.378,0,0,0,87.6-7.126,3.455,3.455,0,0,0,84.182-3.5Zm3.4-2.324A1.9,1.9,0,0,1,89.4-4.088h-3.64A1.871,1.871,0,0,1,87.584-5.824ZM92.61,0h1.6V-4.634a1.852,1.852,0,0,1,1.736-1.148,2.3,2.3,0,0,1,.882.168V-7a1.873,1.873,0,0,0-.7-.14,2.077,2.077,0,0,0-1.918,1.61V-7.014h-1.6Zm9.758-5.684.42-.63-1.666-1.022,1.61-1.008-.42-.616-1.5.98.014-1.82H100.1l.014,1.834L98.6-8.96l-.392.616,1.6,1.008L98.154-6.314l.406.63,1.568-1.022L100.1-4.774h.728L100.8-6.706Z" transform="translate(170 205)"/><path class="c" d="M170,123H830v36H170Z"/><path class="j" d="M170.5,123.5h659v35h-659Z"/><path class="k" d="M170,158H830v1H170Z"/><path class="k" d="M1.424,0H2.656V-5.04H7.1V-6.112H2.656v-4.016h6.48V-11.2H1.424Zm9.824-9.776a.83.83,0,0,0,.832-.848.826.826,0,0,0-.832-.832.826.826,0,0,0-.832.832A.83.83,0,0,0,11.248-9.776Zm.576,1.968H10.656V0h1.168ZM14.144,0h1.168V-5.344a2.2,2.2,0,0,1,2.1-1.584,2.768,2.768,0,0,1,.816.144V-7.84a2.3,2.3,0,0,0-.736-.112,2.321,2.321,0,0,0-2.176,1.7V-7.808H14.144Zm4.784-1.088A4.33,4.33,0,0,0,22.112.144c1.76,0,3.04-1.088,3.024-2.416.016-1.184-.736-1.824-2.272-2.1l-1.3-.24c-.96-.176-1.36-.448-1.36-1.12,0-.768.72-1.248,1.7-1.248a3.943,3.943,0,0,1,2.416.88l.624-.8a4.858,4.858,0,0,0-2.992-1.04c-1.648,0-2.816.96-2.816,2.288,0,1.168.752,1.792,2.208,2.048l1.3.224c.976.176,1.392.512,1.392,1.168,0,.768-.7,1.408-1.968,1.408A3.5,3.5,0,0,1,19.6-1.824Zm8.688-.672c0,1.216.688,1.9,2.048,1.9A4.713,4.713,0,0,0,31.04-.064V-1.1a2.881,2.881,0,0,1-1.1.208c-.832,0-1.152-.336-1.152-1.168V-6.848H31.04v-.96H28.784v-2.256l-1.168.272v1.984H26v.96h1.616ZM36.4,0h1.168V-5.76a2.32,2.32,0,0,1,2.048-1.2,2.023,2.023,0,0,1,2.1,2.24V0H42.88V-5.056a2.722,2.722,0,0,0-2.816-2.88,2.813,2.813,0,0,0-2.5,1.408v-1.28H36.4ZM47.616.144A3.321,3.321,0,0,0,50.1-.9V0h1.152V-5.184c0-1.808-1.12-2.752-3.024-2.752a6.539,6.539,0,0,0-2.944.752l.448.9A5.037,5.037,0,0,1,48.08-6.96c1.312,0,2.016.624,2.016,1.936v1.056a4.683,4.683,0,0,0-2.368-.592c-1.7,0-2.928.864-2.928,2.3C44.8-.832,45.968.144,47.616.144Zm-1.7-2.416c0-.912.832-1.456,1.968-1.456a4.052,4.052,0,0,1,2.208.576v1.5a3.116,3.116,0,0,1-2.24.9C46.72-.752,45.92-1.36,45.92-2.272ZM53.568,0h1.168V-5.808a2.171,2.171,0,0,1,1.9-1.152,1.939,1.939,0,0,1,1.936,2.208V0h1.168V-5.04a3.238,3.238,0,0,0-.064-.688A2.2,2.2,0,0,1,61.632-6.96c1.216,0,1.92.864,1.92,2.208V0h1.184V-5.04a2.669,2.669,0,0,0-2.672-2.9,2.915,2.915,0,0,0-2.608,1.52,2.56,2.56,0,0,0-2.384-1.52,2.672,2.672,0,0,0-2.336,1.344V-7.808H53.568ZM66.7-3.9A3.907,3.907,0,0,0,70.576.144,4.5,4.5,0,0,0,73.5-.9l-.736-.8a3.191,3.191,0,0,1-2.144.8,2.81,2.81,0,0,1-2.768-2.768h6.128V-4A3.7,3.7,0,0,0,70.4-7.936,3.812,3.812,0,0,0,66.7-3.9Zm3.68-3.008A2.572,2.572,0,0,1,72.816-4.48H67.888A2.581,2.581,0,0,1,70.384-6.912ZM80.8-11.44l-1.168.24V0H80.8ZM85.552.144A3.321,3.321,0,0,0,88.032-.9V0h1.152V-5.184c0-1.808-1.12-2.752-3.024-2.752a6.539,6.539,0,0,0-2.944.752l.448.9a5.037,5.037,0,0,1,2.352-.672c1.312,0,2.016.624,2.016,1.936v1.056a4.683,4.683,0,0,0-2.368-.592c-1.7,0-2.928.864-2.928,2.3C82.736-.832,83.9.144,85.552.144Zm-1.7-2.416c0-.912.832-1.456,1.968-1.456a4.052,4.052,0,0,1,2.208.576v1.5a3.116,3.116,0,0,1-2.24.9C84.656-.752,83.856-1.36,83.856-2.272Zm6.912,1.184A4.33,4.33,0,0,0,93.952.144c1.76,0,3.04-1.088,3.024-2.416.016-1.184-.736-1.824-2.272-2.1l-1.3-.24c-.96-.176-1.36-.448-1.36-1.12,0-.768.72-1.248,1.7-1.248a3.943,3.943,0,0,1,2.416.88l.624-.8a4.858,4.858,0,0,0-2.992-1.04c-1.648,0-2.816.96-2.816,2.288,0,1.168.752,1.792,2.208,2.048l1.3.224c.976.176,1.392.512,1.392,1.168,0,.768-.7,1.408-1.968,1.408A3.5,3.5,0,0,1,91.44-1.824Zm8.688-.672c0,1.216.688,1.9,2.048,1.9a4.713,4.713,0,0,0,1.376-.208V-1.1a2.881,2.881,0,0,1-1.1.208c-.832,0-1.152-.336-1.152-1.168V-6.848h2.256v-.96h-2.256v-2.256l-1.168.272v1.984H97.84v.96h1.616ZM108.24,0h1.168V-5.76a2.32,2.32,0,0,1,2.048-1.2,2.023,2.023,0,0,1,2.1,2.24V0h1.168V-5.056a2.722,2.722,0,0,0-2.816-2.88,2.813,2.813,0,0,0-2.5,1.408v-1.28H108.24Zm11.216.144a3.321,3.321,0,0,0,2.48-1.04V0h1.152V-5.184c0-1.808-1.12-2.752-3.024-2.752a6.539,6.539,0,0,0-2.944.752l.448.9a5.037,5.037,0,0,1,2.352-.672c1.312,0,2.016.624,2.016,1.936v1.056a4.683,4.683,0,0,0-2.368-.592c-1.7,0-2.928.864-2.928,2.3C116.64-.832,117.808.144,119.456.144Zm-1.7-2.416c0-.912.832-1.456,1.968-1.456a4.052,4.052,0,0,1,2.208.576v1.5a3.116,3.116,0,0,1-2.24.9C118.56-.752,117.76-1.36,117.76-2.272ZM125.408,0h1.168V-5.808a2.171,2.171,0,0,1,1.9-1.152,1.939,1.939,0,0,1,1.936,2.208V0h1.168V-5.04a3.238,3.238,0,0,0-.064-.688,2.2,2.2,0,0,1,1.952-1.232c1.216,0,1.92.864,1.92,2.208V0h1.184V-5.04a2.669,2.669,0,0,0-2.672-2.9,2.915,2.915,0,0,0-2.608,1.52,2.56,2.56,0,0,0-2.384-1.52,2.672,2.672,0,0,0-2.336,1.344V-7.808h-1.168Zm13.136-3.9A3.907,3.907,0,0,0,142.416.144,4.5,4.5,0,0,0,145.344-.9l-.736-.8a3.191,3.191,0,0,1-2.144.8A2.81,2.81,0,0,1,139.7-3.664h6.128V-4a3.7,3.7,0,0,0-3.584-3.936A3.812,3.812,0,0,0,138.544-3.9Zm3.68-3.008a2.572,2.572,0,0,1,2.432,2.432h-4.928A2.581,2.581,0,0,1,142.224-6.912Z" transform="translate(178 147)"/><path class="i" d="M1.176,0h1.68V-4.172H6.58v-1.4H2.856v-2.8h5.39V-9.8H1.176ZM10.5-8.4a.965.965,0,0,0,.98-.98.98.98,0,0,0-.98-.966.989.989,0,0,0-.98.966A.974.974,0,0,0,10.5-8.4Zm.8,1.386H9.7V0h1.6ZM13.314,0h1.6V-4.634a1.852,1.852,0,0,1,1.736-1.148,2.3,2.3,0,0,1,.882.168V-7a1.873,1.873,0,0,0-.7-.14A2.077,2.077,0,0,0,14.91-5.53V-7.014h-1.6Zm5.012-.882A4.609,4.609,0,0,0,21.364.14c1.61,0,2.87-.98,2.856-2.282.014-1.064-.686-1.694-2.072-1.96l-1.232-.224c-.7-.126-.994-.308-.994-.77,0-.532.518-.826,1.218-.826a3.559,3.559,0,0,1,2.072.714L24-6.23a4.714,4.714,0,0,0-2.772-.9c-1.61,0-2.716.826-2.716,2.17,0,1.05.686,1.68,2.03,1.932l1.246.21c.686.126.966.364.966.8,0,.49-.434.938-1.4.938a3.521,3.521,0,0,1-2.226-.84Zm8.19-.966c0,1.288.742,1.96,2.156,1.96a5.218,5.218,0,0,0,1.358-.2v-1.33a2.784,2.784,0,0,1-.952.168c-.714,0-.98-.266-.98-.952V-5.754h1.96v-1.26H28.1V-9.142l-1.582.336v1.792h-1.4v1.26h1.4ZM36.988.112a2.978,2.978,0,0,0,2.086-.784V0h1.568V-4.578c0-1.652-1.064-2.548-2.87-2.548a6.854,6.854,0,0,0-2.912.714l.56,1.148a4.966,4.966,0,0,1,2.044-.546c1.064,0,1.61.448,1.61,1.4v.742a4.229,4.229,0,0,0-1.862-.406c-1.624,0-2.7.756-2.7,2.044A2.222,2.222,0,0,0,36.988.112Zm-.994-2.184c0-.644.6-1.008,1.47-1.008a3.635,3.635,0,0,1,1.61.336v1.176a2.629,2.629,0,0,1-1.666.56C36.568-1.008,35.994-1.414,35.994-2.072ZM42.7,0h1.6V-5.026a1.768,1.768,0,0,1,1.526-.826,1.51,1.51,0,0,1,1.54,1.68V0h1.582V-4.62a2.364,2.364,0,0,0-2.436-2.506A2.52,2.52,0,0,0,44.3-5.866V-7.014H42.7ZM56,0h1.568V-10.066L55.986-9.8v3.654a2.641,2.641,0,0,0-2.044-.924A3.4,3.4,0,0,0,50.666-3.5,3.366,3.366,0,0,0,53.844.07,2.68,2.68,0,0,0,56-.938ZM52.234-3.5A2.1,2.1,0,0,1,54.32-5.74a2.179,2.179,0,0,1,1.666.756V-2.03a2.082,2.082,0,0,1-1.666.77A2.113,2.113,0,0,1,52.234-3.5ZM64.47-10.066l-1.6.266V0h1.6ZM68.642.112a2.978,2.978,0,0,0,2.086-.784V0H72.3V-4.578c0-1.652-1.064-2.548-2.87-2.548a6.854,6.854,0,0,0-2.912.714l.56,1.148a4.966,4.966,0,0,1,2.044-.546c1.064,0,1.61.448,1.61,1.4v.742a4.229,4.229,0,0,0-1.862-.406c-1.624,0-2.7.756-2.7,2.044A2.222,2.222,0,0,0,68.642.112Zm-.994-2.184c0-.644.6-1.008,1.47-1.008a3.635,3.635,0,0,1,1.61.336v1.176a2.629,2.629,0,0,1-1.666.56C68.222-1.008,67.648-1.414,67.648-2.072Zm6.09,1.19A4.609,4.609,0,0,0,76.776.14c1.61,0,2.87-.98,2.856-2.282.014-1.064-.686-1.694-2.072-1.96l-1.232-.224c-.7-.126-.994-.308-.994-.77,0-.532.518-.826,1.218-.826a3.559,3.559,0,0,1,2.072.714l.784-1.022a4.714,4.714,0,0,0-2.772-.9c-1.61,0-2.716.826-2.716,2.17,0,1.05.686,1.68,2.03,1.932l1.246.21c.686.126.966.364.966.8,0,.49-.434.938-1.4.938a3.521,3.521,0,0,1-2.226-.84Zm8.19-.966c0,1.288.742,1.96,2.156,1.96a5.218,5.218,0,0,0,1.358-.2v-1.33a2.784,2.784,0,0,1-.952.168c-.714,0-.98-.266-.98-.952V-5.754h1.96v-1.26H83.51V-9.142l-1.582.336v1.792h-1.4v1.26h1.4ZM90.244,0h1.6V-5.026a1.768,1.768,0,0,1,1.526-.826,1.51,1.51,0,0,1,1.54,1.68V0h1.582V-4.62a2.364,2.364,0,0,0-2.436-2.506,2.52,2.52,0,0,0-2.212,1.26V-7.014h-1.6ZM100.66.112a2.978,2.978,0,0,0,2.086-.784V0h1.568V-4.578c0-1.652-1.064-2.548-2.87-2.548a6.854,6.854,0,0,0-2.912.714l.56,1.148a4.966,4.966,0,0,1,2.044-.546c1.064,0,1.61.448,1.61,1.4v.742a4.229,4.229,0,0,0-1.862-.406c-1.624,0-2.7.756-2.7,2.044A2.222,2.222,0,0,0,100.66.112Zm-.994-2.184c0-.644.6-1.008,1.47-1.008a3.635,3.635,0,0,1,1.61.336v1.176a2.629,2.629,0,0,1-1.666.56C100.24-1.008,99.666-1.414,99.666-2.072ZM106.372,0h1.6V-5.068a1.61,1.61,0,0,1,1.386-.784,1.419,1.419,0,0,1,1.414,1.61V0h1.582V-4.578c0-.154-.014-.308-.028-.448a1.633,1.633,0,0,1,1.414-.826c.882,0,1.4.644,1.4,1.61V0h1.6V-4.578a2.326,2.326,0,0,0-2.31-2.548,2.593,2.593,0,0,0-2.31,1.358,2.188,2.188,0,0,0-2.072-1.358,2.382,2.382,0,0,0-2.072,1.218V-7.014h-1.6Zm12.082-3.5A3.568,3.568,0,0,0,122.038.14,4,4,0,0,0,124.81-.9l-1.036-.98a2.279,2.279,0,0,1-1.666.658,2.119,2.119,0,0,1-2.1-1.9H125.2v-.392a3.378,3.378,0,0,0-3.332-3.612A3.455,3.455,0,0,0,118.454-3.5Zm3.4-2.324a1.9,1.9,0,0,1,1.82,1.736h-3.64A1.871,1.871,0,0,1,121.856-5.824Zm9.17.14.42-.63L129.78-7.336l1.61-1.008-.42-.616-1.5.98.014-1.82h-.728l.014,1.834L127.26-8.96l-.392.616,1.6,1.008-1.652,1.022.406.63,1.568-1.022-.028,1.932h.728l-.028-1.932Z" transform="translate(170 111)"/><path class="d" d="M.5-2.07A7.108,7.108,0,0,0,5.652.18c3.1,0,4.806-1.782,4.806-3.8,0-1.854-1.08-2.9-3.834-3.384L4.608-7.344c-1.548-.27-2.376-.756-2.376-2,0-1.566,1.512-2.25,3.006-2.25a6.679,6.679,0,0,1,4.194,1.53l.81-1.044a7.977,7.977,0,0,0-4.968-1.656C2.97-12.762.9-11.61.9-9.234.9-7.452,1.962-6.5,4.23-6.1l2.034.342c2.034.36,2.808.954,2.808,2.214,0,1.4-1.3,2.538-3.366,2.538A6.067,6.067,0,0,1,1.368-3.042ZM18.486,0H19.8V-5.688a3.062,3.062,0,0,0-3.168-3.24,3.165,3.165,0,0,0-2.808,1.584V-12.87l-1.314.27V0h1.314V-6.48a2.61,2.61,0,0,1,2.3-1.35,2.276,2.276,0,0,1,2.358,2.52Zm3.528-4.392A4.351,4.351,0,0,0,26.28.18a4.357,4.357,0,0,0,4.3-4.572,4.326,4.326,0,0,0-4.3-4.536A4.319,4.319,0,0,0,22.014-4.392Zm7.254.018A3.1,3.1,0,0,1,26.28-.99a3.085,3.085,0,0,1-2.952-3.384,3.112,3.112,0,0,1,2.952-3.4A3.117,3.117,0,0,1,29.268-4.374ZM32.8,0H34.11V-6.012a2.47,2.47,0,0,1,2.358-1.782,3.114,3.114,0,0,1,.918.162V-8.82a2.584,2.584,0,0,0-.828-.126A2.611,2.611,0,0,0,34.11-7.038V-8.784H32.8Zm7.56-1.98c0,1.368.774,2.142,2.3,2.142a5.3,5.3,0,0,0,1.548-.234v-1.17a3.241,3.241,0,0,1-1.242.234c-.936,0-1.3-.378-1.3-1.314V-7.7h2.538v-1.08H41.67v-2.538l-1.314.306v2.232H38.538V-7.7h1.818Zm9.5-2.412A4.351,4.351,0,0,0,54.126.18a4.357,4.357,0,0,0,4.3-4.572,4.326,4.326,0,0,0-4.3-4.536A4.319,4.319,0,0,0,49.86-4.392Zm7.254.018A3.1,3.1,0,0,1,54.126-.99a3.085,3.085,0,0,1-2.952-3.384,3.112,3.112,0,0,1,2.952-3.4A3.117,3.117,0,0,1,57.114-4.374Zm3.528,7.956h1.314v-4.7A3.533,3.533,0,0,0,64.71.126a4.28,4.28,0,0,0,4.14-4.518,4.253,4.253,0,0,0-4.068-4.5,3.466,3.466,0,0,0-2.844,1.368v-1.26h-1.3ZM64.458-7.74a3.151,3.151,0,0,1,3.078,3.366,3.14,3.14,0,0,1-3.078,3.366,3.112,3.112,0,0,1-2.5-1.224v-4.3A3.023,3.023,0,0,1,64.458-7.74Zm7.02,5.76c0,1.368.774,2.142,2.3,2.142A5.3,5.3,0,0,0,75.33-.072v-1.17a3.241,3.241,0,0,1-1.242.234c-.936,0-1.3-.378-1.3-1.314V-7.7H75.33v-1.08H72.792v-2.538l-1.314.306v2.232H69.66V-7.7h1.818ZM77.832-11a.934.934,0,0,0,.936-.954.93.93,0,0,0-.936-.936.93.93,0,0,0-.936.936A.934.934,0,0,0,77.832-11Zm.648,2.214H77.166V0H78.48Zm2.232,4.392A4.351,4.351,0,0,0,84.978.18a4.357,4.357,0,0,0,4.3-4.572,4.326,4.326,0,0,0-4.3-4.536A4.319,4.319,0,0,0,80.712-4.392Zm7.254.018A3.1,3.1,0,0,1,84.978-.99a3.085,3.085,0,0,1-2.952-3.384,3.112,3.112,0,0,1,2.952-3.4A3.117,3.117,0,0,1,87.966-4.374ZM91.494,0h1.314V-6.48a2.61,2.61,0,0,1,2.3-1.35A2.276,2.276,0,0,1,97.47-5.31V0h1.314V-5.688a3.062,3.062,0,0,0-3.168-3.24,3.165,3.165,0,0,0-2.808,1.584v-1.44H91.494Zm12.618.162a3.736,3.736,0,0,0,2.79-1.17V0h1.3V-5.832c0-2.034-1.26-3.1-3.4-3.1a7.357,7.357,0,0,0-3.312.846l.5,1.008a5.667,5.667,0,0,1,2.646-.756c1.476,0,2.268.7,2.268,2.178v1.188a5.268,5.268,0,0,0-2.664-.666c-1.908,0-3.294.972-3.294,2.592C100.944-.936,102.258.162,104.112.162ZM102.2-2.556c0-1.026.936-1.638,2.214-1.638a4.558,4.558,0,0,1,2.484.648v1.692a3.505,3.505,0,0,1-2.52,1.008C103.1-.846,102.2-1.53,102.2-2.556Zm9.918-10.314-1.314.27V0h1.314ZM124.9,0h1.314V-5.688a3.062,3.062,0,0,0-3.168-3.24,3.165,3.165,0,0,0-2.808,1.584V-12.87l-1.314.27V0h1.314V-6.48a2.61,2.61,0,0,1,2.3-1.35A2.276,2.276,0,0,1,124.9-5.31Zm3.528-4.392A4.395,4.395,0,0,0,132.786.162a5.059,5.059,0,0,0,3.294-1.17l-.828-.9a3.589,3.589,0,0,1-2.412.9,3.161,3.161,0,0,1-3.114-3.114h6.894V-4.5a4.161,4.161,0,0,0-4.032-4.428A4.289,4.289,0,0,0,128.43-4.392Zm4.14-3.384a2.893,2.893,0,0,1,2.736,2.736h-5.544A2.9,2.9,0,0,1,132.57-7.776Zm7.524-5.094-1.314.27V0h1.314ZM142.7,3.582h1.314v-4.7A3.533,3.533,0,0,0,146.772.126a4.28,4.28,0,0,0,4.14-4.518,4.253,4.253,0,0,0-4.068-4.5A3.466,3.466,0,0,0,144-7.524v-1.26h-1.3ZM146.52-7.74A3.151,3.151,0,0,1,149.6-4.374a3.14,3.14,0,0,1-3.078,3.366,3.112,3.112,0,0,1-2.5-1.224v-4.3A3.023,3.023,0,0,1,146.52-7.74Zm6.228,3.348A4.395,4.395,0,0,0,157.1.162a5.059,5.059,0,0,0,3.294-1.17l-.828-.9a3.589,3.589,0,0,1-2.412.9,3.161,3.161,0,0,1-3.114-3.114h6.894V-4.5a4.161,4.161,0,0,0-4.032-4.428A4.289,4.289,0,0,0,152.748-4.392Zm4.14-3.384a2.893,2.893,0,0,1,2.736,2.736H154.08A2.9,2.9,0,0,1,156.888-7.776ZM163.1,0h1.314V-6.012a2.47,2.47,0,0,1,2.358-1.782,3.114,3.114,0,0,1,.918.162V-8.82a2.584,2.584,0,0,0-.828-.126,2.611,2.611,0,0,0-2.448,1.908V-8.784H163.1Zm11.574-1.98c0,1.368.774,2.142,2.3,2.142a5.3,5.3,0,0,0,1.548-.234v-1.17a3.241,3.241,0,0,1-1.242.234c-.936,0-1.3-.378-1.3-1.314V-7.7h2.538v-1.08h-2.538v-2.538l-1.314.306v2.232h-1.818V-7.7h1.818Zm5.022-2.412A4.395,4.395,0,0,0,184.05.162a5.059,5.059,0,0,0,3.294-1.17l-.828-.9a3.589,3.589,0,0,1-2.412.9,3.161,3.161,0,0,1-3.114-3.114h6.894V-4.5a4.161,4.161,0,0,0-4.032-4.428A4.289,4.289,0,0,0,179.694-4.392Zm4.14-3.384A2.893,2.893,0,0,1,186.57-5.04h-5.544A2.9,2.9,0,0,1,183.834-7.776ZM188.46,0h1.494l2.61-3.582L195.192,0h1.548l-3.4-4.554,3.168-4.23h-1.512L192.6-5.454l-2.412-3.33H188.6l3.2,4.248Zm10.818-1.98c0,1.368.774,2.142,2.3,2.142a5.3,5.3,0,0,0,1.548-.234v-1.17a3.241,3.241,0,0,1-1.242.234c-.936,0-1.3-.378-1.3-1.314V-7.7h2.538v-1.08h-2.538v-2.538l-1.314.306v2.232H197.46V-7.7h1.818Zm6.372.162a.969.969,0,0,0-.954.99.964.964,0,0,0,.954.972.961.961,0,0,0,.936-.972A.965.965,0,0,0,205.65-1.818Z" transform="translate(170 60)"/><path class="l" d="M1.42,0h2.1V-6.06h5.5v-1.8H3.52v-4.3h8.3V-14H1.42Zm25.5-7a7.2,7.2,0,0,0-7.3-7.22A7.18,7.18,0,0,0,12.34-7,7.18,7.18,0,0,0,19.62.22,7.2,7.2,0,0,0,26.92-7ZM24.78-7a5.137,5.137,0,0,1-5.16,5.28A5.133,5.133,0,0,1,14.48-7a5.121,5.121,0,0,1,5.14-5.28A5.125,5.125,0,0,1,24.78-7Zm4.38,7h2.1V-5.74H35.2L38.1,0h2.32L37.3-6.02a3.966,3.966,0,0,0,2.88-3.84c0-2.34-1.76-4.14-4.66-4.14H29.16Zm6.18-12.16c1.76,0,2.72,1.02,2.72,2.34,0,1.3-.96,2.34-2.72,2.34H31.26v-4.68ZM49.52-1l5.22-10.42V0h1.98V-14h-2.8L49.54-5.06,45.14-14h-2.8V0H44.3V-11.4ZM62.66-12.14h4.92V0h2.1V-12.14H74.6V-14H62.66ZM76.36,0h2.1V-14h-2.1Zm3.88-12.14h4.92V0h2.1V-12.14h4.92V-14H80.24ZM93.94,0H104.1V-1.86H96.04V-14h-2.1Zm12.28,0h10.4V-1.84h-8.3V-6.16h5.4v-1.8h-5.4v-4.2h8.22V-14H106.22Z" transform="translate(170 20)"/><g class="m"><path class="n" d="M935,0h65V569H935ZM850,0h65V569H850Z"/><path class="o" d="M765,0h65V569H765ZM680,0h65V569H680ZM595,0h65V569H595ZM510,0h65V569H510ZM425,0h65V569H425ZM340,0h65V569H340ZM255,0h65V569H255ZM170,0h65V569H170Z"/><path class="n" d="M85,0h65V569H85ZM0,0H65V569H0Z"/></g></svg>