<svg xmlns="http://www.w3.org/2000/svg" width="340" height="572"><defs><style>.a{fill:#fff;stroke:#d2d2d2}.b{fill:#06c}.f{fill:none}.e{fill:#c9190b}.g{fill:#6a6e73}.h{fill:#151515}.k{stroke:none}</style></defs><g class="a"><rect class="k" width="340" height="572" rx="3"/><rect class="f" x=".5" y=".5" width="339" height="571" rx="2.5"/></g><path class="b" d="M33.246 536h1.078v-4h2.968a2.835 2.835 0 003.122-2.9 2.828 2.828 0 00-3.122-2.9h-4.046zm3.92-8.848a1.906 1.906 0 012.17 1.948 1.919 1.919 0 01-2.17 1.974h-2.842v-3.92zm5.18 8.848h1.022v-4.676a1.947 1.947 0 011.832-1.386 2.554 2.554 0 01.714.126v-.924a1.94 1.94 0 00-.644-.1 2.041 2.041 0 00-1.9 1.512v-1.384h-1.024zm5.586-8.512a.726.726 0 00.728-.742.741.741 0 00-.728-.728.744.744 0 00-.742.728.729.729 0 00.742.742zm.5 1.68h-1.018V536h1.022zM52.636 536h.98l2.814-6.832h-1.092l-2.184 5.558-2.212-5.558h-1.106zm7.308.126a2.933 2.933 0 002.17-.926v.8h1.008v-4.536c0-1.554-.952-2.408-2.646-2.408a5.853 5.853 0 00-2.576.658l.378.784a4.511 4.511 0 012.072-.588 1.538 1.538 0 011.764 1.69v.938a3.956 3.956 0 00-2.086-.532c-1.54 0-2.562.812-2.562 2.03a2.206 2.206 0 002.478 2.09zm-1.5-2.114c0-.756.686-1.26 1.736-1.26a3.606 3.606 0 011.932.49v1.316a2.7 2.7 0 01-1.96.784c-1.02 0-1.706-.532-1.706-1.33zm10.012 1.188a2.478 2.478 0 01-2.408-2.618 2.48 2.48 0 012.394-2.6 2.685 2.685 0 011.932.854l.658-.714a3.727 3.727 0 00-2.632-1.066 3.412 3.412 0 00-3.374 3.528 3.424 3.424 0 003.374 3.542 3.553 3.553 0 002.59-1.106l-.63-.63a2.516 2.516 0 01-1.904.81zm5.488 1.89c-.252.616-.574.868-1.092.868a2.379 2.379 0 01-.56-.056v.91a2.344 2.344 0 00.658.1c1.008 0 1.526-.406 1.96-1.512l3.39-8.232h-1.136l-2.2 5.614-2.07-5.614H71.76l2.632 6.818zm8.512-1.972a3.9 3.9 0 002.772 1.008c1.512 0 2.66-.924 2.66-2.114 0-1.008-.616-1.582-1.988-1.834l-1.148-.21c-.882-.154-1.176-.42-1.176-.98 0-.672.588-1.092 1.484-1.092a3.624 3.624 0 012.142.728l.5-.714a4.417 4.417 0 00-2.6-.854c-1.442 0-2.464.826-2.464 2 0 .994.6 1.554 1.932 1.792l1.12.2c.868.168 1.232.462 1.232 1.022 0 .714-.728 1.232-1.722 1.232a3.563 3.563 0 01-2.2-.856zm7.8-.658c0 1.092.616 1.666 1.792 1.666a3.837 3.837 0 001.19-.182v-.91a2.454 2.454 0 01-.966.182c-.714 0-.994-.294-.994-1.022v-4.186h1.96v-.84h-1.96v-2.114l-1.022.238v1.876H88.84v.84h1.414zm6.732 1.666a2.933 2.933 0 002.17-.926v.8h1.008v-4.536c0-1.554-.952-2.408-2.646-2.408a5.853 5.853 0 00-2.576.658l.378.784a4.511 4.511 0 012.072-.588 1.538 1.538 0 011.764 1.69v.938a3.956 3.956 0 00-2.086-.532c-1.54 0-2.562.812-2.562 2.03a2.206 2.206 0 002.478 2.09zm-1.5-2.114c0-.756.686-1.26 1.736-1.26a3.607 3.607 0 011.932.49v1.316a2.7 2.7 0 01-1.96.784c-1.02 0-1.706-.532-1.706-1.33zm7.49.448c0 1.092.616 1.666 1.792 1.666a3.837 3.837 0 001.19-.182v-.91a2.454 2.454 0 01-.96.182c-.714 0-.994-.294-.994-1.022v-4.186h1.96v-.84H104v-2.114l-1.022.238v1.876h-1.412v.84h1.414zm10.094.756l-.642-.686a2.792 2.792 0 01-1.876.7 2.49 2.49 0 01-2.436-2.422h5.362v-.308a3.228 3.228 0 00-3.136-3.444 3.325 3.325 0 00-3.22 3.528 3.41 3.41 0 003.388 3.542 3.989 3.989 0 002.562-.91zm-2.742-5.278a2.256 2.256 0 012.142 2.142h-4.326a2.282 2.282 0 012.184-2.142zm5.04 6.062h1.022v-5.082a1.872 1.872 0 011.666-1.008 1.7 1.7 0 011.694 1.932V536h1.022v-4.41a2.834 2.834 0 00-.056-.6 1.9 1.9 0 011.708-1.08c1.036 0 1.68.742 1.68 1.932V536h1.022v-4.41a2.325 2.325 0 00-2.328-2.534 2.524 2.524 0 00-2.282 1.33 2.245 2.245 0 00-2.1-1.33 2.34 2.34 0 00-2.03 1.176v-1.064h-1.018zm17.612-.784l-.644-.686a2.792 2.792 0 01-1.876.7 2.49 2.49 0 01-2.436-2.422h5.362v-.308a3.228 3.228 0 00-3.136-3.444 3.325 3.325 0 00-3.22 3.528 3.41 3.41 0 003.388 3.542 3.989 3.989 0 002.562-.91zm-2.744-5.278a2.256 2.256 0 012.142 2.142h-4.326a2.282 2.282 0 012.184-2.142zm5.04 6.062h1.022v-5.04a2.014 2.014 0 011.792-1.05 1.771 1.771 0 011.834 1.96V536h1.022v-4.424a2.378 2.378 0 00-2.478-2.52 2.462 2.462 0 00-2.17 1.218v-1.106h-1.022zm8.47-1.54c0 1.092.616 1.666 1.792 1.666a3.837 3.837 0 001.19-.182v-.91a2.454 2.454 0 01-.966.182c-.714 0-.994-.294-.994-1.022v-4.186h1.96v-.84h-1.96v-2.114l-1.022.238v1.876h-1.414v.84h1.414z"/><g transform="translate(132.424 458.8)" stroke="#06c" fill="none"><rect class="k" width="71.04" height="26.344" rx="3"/><rect class="f" x=".5" y=".5" width="70.04" height="25.344" rx="2.5"/></g><path class="b" d="M148.424 478h1.232v-4.784H153l2.272 4.784h1.36l-2.384-4.944a3.048 3.048 0 002.336-3.024c0-1.932-1.424-3.232-3.568-3.232h-4.592zm4.5-10.112a2.165 2.165 0 012.432 2.16 2.162 2.162 0 01-2.436 2.144h-3.264v-4.3zM164.6 477.1l-.736-.784a3.191 3.191 0 01-2.144.8 2.845 2.845 0 01-2.784-2.768h6.128V474a3.689 3.689 0 00-3.584-3.936 3.8 3.8 0 00-3.68 4.036 3.9 3.9 0 003.872 4.044 4.558 4.558 0 002.928-1.044zm-3.136-6.028a2.579 2.579 0 012.448 2.448h-4.944a2.608 2.608 0 012.496-2.448zm4.928 5.92a4.451 4.451 0 003.168 1.152c1.728 0 3.04-1.056 3.04-2.416 0-1.152-.7-1.808-2.272-2.1l-1.312-.24c-1.008-.176-1.344-.48-1.344-1.12 0-.768.672-1.248 1.7-1.248a4.142 4.142 0 012.448.832l.576-.816a5.048 5.048 0 00-2.976-.976c-1.648 0-2.816.944-2.816 2.288 0 1.136.688 1.776 2.208 2.048l1.28.224c.992.192 1.408.528 1.408 1.168 0 .816-.832 1.408-1.968 1.408a4.072 4.072 0 01-2.512-.976zm14.508.108l-.736-.784a3.191 3.191 0 01-2.144.8 2.845 2.845 0 01-2.78-2.764h6.128V474a3.689 3.689 0 00-3.584-3.936 3.8 3.8 0 00-3.684 4.036 3.9 3.9 0 003.876 4.044 4.558 4.558 0 002.924-1.044zm-3.132-6.028a2.579 2.579 0 012.448 2.448h-4.944a2.608 2.608 0 012.496-2.448zm6.288 5.168c0 1.248.7 1.9 2.048 1.9a4.386 4.386 0 001.36-.208V476.9a2.8 2.8 0 01-1.1.208c-.816 0-1.136-.336-1.136-1.168v-4.788h2.24v-.96h-2.24v-2.416l-1.168.272v2.144h-1.62v.96h1.616z"/><g transform="translate(32 454)"><rect class="b" width="82.304" height="26.84" rx="3" transform="translate(.448 4.32)"/><path d="M16.448 22.256a6.443 6.443 0 004.592 1.904c2.46 0 4.26-1.44 4.26-3.376 0-1.68-1.024-2.576-3.408-3.008l-1.792-.304c-1.5-.24-2.112-.752-2.112-1.744 0-1.168 1.1-2.032 2.672-2.032a6.331 6.331 0 013.772 1.344l.64-.96a7.324 7.324 0 00-4.432-1.424c-2.272 0-3.84 1.312-3.84 3.2 0 1.5.912 2.352 2.96 2.72l1.808.3c1.824.32 2.5.848 2.5 1.968-.004 1.3-1.268 2.256-2.996 2.256a5.216 5.216 0 01-3.872-1.74zM28.3 16.192h-1.18v5.04a2.73 2.73 0 002.832 2.9 2.8 2.8 0 002.48-1.392V24H33.6v-7.808h-1.168v5.776a2.318 2.318 0 01-2.048 1.184A2.017 2.017 0 0128.3 20.9zM43.28 20.1a3.768 3.768 0 00-3.6-4 3.146 3.146 0 00-2.512 1.168V12.32L36 12.56V24h1.152v-1.024a3.161 3.161 0 002.464 1.136A3.8 3.8 0 0043.28 20.1zm-3.888-2.98a2.8 2.8 0 012.736 2.992 2.8 2.8 0 01-2.736 2.988 2.744 2.744 0 01-2.224-1.088v-3.82a2.666 2.666 0 012.224-1.072zM45.328 24H46.5v-5.808a2.14 2.14 0 011.9-1.152 1.94 1.94 0 011.936 2.208V24H51.5v-5.04a3.238 3.238 0 00-.064-.688 2.173 2.173 0 011.956-1.232c1.184 0 1.92.848 1.92 2.208V24h1.168v-5.04a2.657 2.657 0 00-2.656-2.9 2.885 2.885 0 00-2.608 1.52 2.566 2.566 0 00-2.4-1.52 2.674 2.674 0 00-2.316 1.348v-1.216h-1.172zm14.112-9.728a.83.83 0 00.832-.848.847.847 0 00-.832-.832.85.85 0 00-.848.832.834.834 0 00.848.848zm.576 1.92h-1.168V24h1.168zm3.328 6.048c0 1.248.7 1.9 2.048 1.9a4.386 4.386 0 001.36-.208V22.9a2.8 2.8 0 01-1.1.208c-.816 0-1.136-.336-1.136-1.168v-4.788h2.24v-.96h-2.24v-2.416l-1.168.272v2.144h-1.62v.96h1.616z" fill="#fff"/></g><path class="e" d="M32.392 409.152h3.388V418h1.078v-8.848h3.374v-.952h-7.84zM41.828 418h1.022v-5.04a2.014 2.014 0 011.792-1.05 1.771 1.771 0 011.834 1.96V418H47.5v-4.424a2.378 2.378 0 00-2.478-2.52 2.462 2.462 0 00-2.17 1.218v-4.494l-1.022.21zm8.386-8.512a.726.726 0 00.728-.742.741.741 0 00-.728-.728.744.744 0 00-.742.728.729.729 0 00.742.742zm.5 1.68H49.7V418h1.022zm1.586 5.95a3.9 3.9 0 002.772 1.008c1.512 0 2.66-.924 2.66-2.114 0-1.008-.616-1.582-1.988-1.834l-1.144-.21c-.882-.154-1.176-.42-1.176-.98 0-.672.588-1.092 1.484-1.092a3.624 3.624 0 012.142.728l.5-.714a4.417 4.417 0 00-2.6-.854c-1.442 0-2.464.826-2.464 2 0 .994.6 1.554 1.932 1.792l1.12.2c.868.168 1.232.462 1.232 1.022 0 .714-.728 1.232-1.722 1.232a3.563 3.563 0 01-2.2-.854zm9.87-5.95v.84h1.53V418h1.022v-5.992h1.946v-.84h-1.95v-1.484c0-.812.336-1.19 1.12-1.19a2.818 2.818 0 01.826.126v-.92a2.887 2.887 0 00-.924-.126 1.875 1.875 0 00-2.04 2.096v1.5zm6.5-1.68a.726.726 0 00.728-.742.741.741 0 00-.728-.728.744.744 0 00-.742.728.729.729 0 00.738.742zm.5 1.68h-1.022V418h1.022zm7.882 6.048l-.644-.686a2.792 2.792 0 01-1.876.7 2.49 2.49 0 01-2.432-2.422h5.362v-.308a3.228 3.228 0 00-3.136-3.444 3.325 3.325 0 00-3.226 3.528 3.41 3.41 0 003.39 3.542 3.989 3.989 0 002.562-.91zm-2.744-5.278a2.256 2.256 0 012.142 2.142h-4.326a2.282 2.282 0 012.184-2.142zm6.062-4.158l-1.022.21V418h1.022zM87.636 418h1.022v-10.22l-1.022.21v4.046a2.783 2.783 0 00-2.128-.952A3.327 3.327 0 0082.3 414.6a3.3 3.3 0 003.152 3.5 2.692 2.692 0 002.184-1.01zm-4.326-3.416a2.438 2.438 0 012.39-2.604 2.45 2.45 0 011.932.924v3.388a2.34 2.34 0 01-1.932.908 2.451 2.451 0 01-2.39-2.616zm14.112 2.616a2.478 2.478 0 01-2.408-2.618 2.48 2.48 0 012.394-2.6 2.685 2.685 0 011.932.854l.66-.716a3.727 3.727 0 00-2.632-1.064 3.412 3.412 0 00-3.374 3.528 3.424 3.424 0 003.372 3.542 3.553 3.553 0 002.59-1.106l-.63-.63a2.516 2.516 0 01-1.904.81zm6.258.926a2.933 2.933 0 002.17-.926v.8h1.008v-4.536c0-1.554-.952-2.408-2.646-2.408a5.853 5.853 0 00-2.576.658l.378.784a4.511 4.511 0 012.072-.588 1.538 1.538 0 011.764 1.69v.938a3.956 3.956 0 00-2.086-.532c-1.54 0-2.562.812-2.562 2.03a2.206 2.206 0 002.478 2.09zm-1.5-2.114c0-.756.686-1.26 1.736-1.26a3.606 3.606 0 011.932.49v1.316a2.7 2.7 0 01-1.96.784c-1.02 0-1.706-.532-1.706-1.33zm6.89 1.988h1.022v-5.04a2.014 2.014 0 011.792-1.05 1.771 1.771 0 011.834 1.96V418h1.022v-4.424a2.378 2.378 0 00-2.478-2.52 2.462 2.462 0 00-2.17 1.218v-1.106h-1.022zm7.868 0h1.022v-5.04a2.014 2.014 0 011.792-1.05 1.771 1.771 0 011.834 1.96V418h1.022v-4.424a2.378 2.378 0 00-2.478-2.52 2.462 2.462 0 00-2.17 1.218v-1.106h-1.022zm7.562-3.416a3.384 3.384 0 003.316 3.556 3.378 3.378 0 003.332-3.556 3.353 3.353 0 00-3.332-3.528 3.351 3.351 0 00-3.316 3.528zm3.316 2.646a2.409 2.409 0 01-2.31-2.63 2.43 2.43 0 012.31-2.646 2.44 2.44 0 012.324 2.646 2.427 2.427 0 01-2.324 2.63zm5.642-.77c0 1.092.616 1.666 1.792 1.666a3.837 3.837 0 001.19-.182v-.91a2.454 2.454 0 01-.966.182c-.714 0-.994-.294-.994-1.022v-4.186h1.96v-.84h-1.96v-2.114l-1.022.238v1.876h-1.414v.84h1.414zm14.392-1.876a3.3 3.3 0 00-3.15-3.5 2.753 2.753 0 00-2.2 1.022v-4.326l-1.022.21V418h1.008v-.9a2.766 2.766 0 002.158 1 3.327 3.327 0 003.206-3.516zm-3.4-2.6a2.451 2.451 0 012.392 2.616 2.451 2.451 0 01-2.394 2.618 2.4 2.4 0 01-1.946-.952v-3.348a2.333 2.333 0 011.946-.938zm10.99 5.236l-.644-.686a2.792 2.792 0 01-1.876.7 2.49 2.49 0 01-2.436-2.422h5.362v-.312a3.228 3.228 0 00-3.136-3.444 3.325 3.325 0 00-3.22 3.528 3.41 3.41 0 003.386 3.542 3.989 3.989 0 002.562-.91zm-2.744-5.278a2.256 2.256 0 012.142 2.142h-4.328a2.282 2.282 0 012.184-2.146zm9.464-4.158l-1.022.21V418h1.022zm7.88 9.432l-.64-.686a2.792 2.792 0 01-1.876.7 2.49 2.49 0 01-2.436-2.422h5.362v-.308a3.228 3.228 0 00-3.136-3.444 3.325 3.325 0 00-3.22 3.528 3.41 3.41 0 003.384 3.542 3.989 3.989 0 002.562-.91zm-2.74-5.278a2.256 2.256 0 012.142 2.142h-4.326a2.282 2.282 0 012.184-2.142zm4.172-.77v.84h1.526V418h1.022v-5.992h1.946v-.84h-1.946v-1.484c0-.812.336-1.19 1.12-1.19a2.818 2.818 0 01.826.126v-.92a2.887 2.887 0 00-.924-.126 1.875 1.875 0 00-2.044 2.1v1.5zm6.928 5.292c0 1.092.616 1.666 1.792 1.666a3.837 3.837 0 001.19-.182v-.91a2.454 2.454 0 01-.966.182c-.714 0-.994-.294-.994-1.022v-4.186h1.96v-.84h-1.96v-2.114l-1.022.238v1.876h-1.414v.84h1.414zm14.39-1.876a3.3 3.3 0 00-3.15-3.5 2.753 2.753 0 00-2.2 1.022v-4.326l-1.022.21V418h1.008v-.9a2.766 2.766 0 002.158 1 3.327 3.327 0 003.206-3.516zm-3.4-2.6a2.451 2.451 0 012.392 2.616 2.451 2.451 0 01-2.394 2.618 2.4 2.4 0 01-1.946-.952v-3.348a2.333 2.333 0 011.946-.938zm6.356-4.2l-1.022.21V418h1.022zm4.354 10.342a2.933 2.933 0 002.17-.924V418h1.008v-4.536c0-1.554-.952-2.408-2.646-2.408a5.853 5.853 0 00-2.576.658l.378.784a4.511 4.511 0 012.066-.588 1.538 1.538 0 011.768 1.69v.938a3.956 3.956 0 00-2.086-.532c-1.54 0-2.562.812-2.562 2.03a2.206 2.206 0 002.48 2.09zm-1.5-2.114c0-.756.686-1.26 1.736-1.26a3.607 3.607 0 011.932.49v1.316a2.7 2.7 0 01-1.96.784c-1.022 0-1.708-.532-1.708-1.33zm6.888 1.988h1.022v-5.04a2.014 2.014 0 011.79-1.05 1.771 1.771 0 011.834 1.96V418h1.022v-4.424a2.378 2.378 0 00-2.478-2.52 2.462 2.462 0 00-2.17 1.218v-1.106h-1.022zm7.868 0h1.022v-3.262l3.29 3.262h1.344l-3.626-3.584 3.472-3.248h-1.232l-3.248 3.066v-6.454l-1.022.21z"/><g class="a"><path class="k" d="M32 364h276v36H32z"/><path class="f" d="M32.5 364.5h275v35h-275z"/></g><path class="e" d="M32 398h276v2H32z"/><path class="f" d="M276 370h24v24h-24z"/><path class="e" d="M296 382a8 8 0 11-8-8 8 8 0 018 8zm-8 1.613a1.484 1.484 0 101.484 1.487 1.484 1.484 0 00-1.484-1.487zm-1.409-5.334l.239 4.387a.387.387 0 00.387.366h1.566a.387.387 0 00.387-.366l.239-4.387a.387.387 0 00-.387-.408h-2.044a.387.387 0 00-.386.408z"/><path class="g" d="M41.424 388h7.712v-1.072h-6.48v-4.048H47.1v-1.072h-4.444v-3.936h6.416V376.8h-7.648zm9.676 0h1.168v-5.808a2.14 2.14 0 011.9-1.152 1.94 1.94 0 011.936 2.208V388h1.176v-5.04a3.238 3.238 0 00-.064-.688 2.173 2.173 0 011.952-1.232c1.184 0 1.92.848 1.92 2.208V388h1.168v-5.04a2.657 2.657 0 00-2.656-2.9 2.885 2.885 0 00-2.608 1.52 2.566 2.566 0 00-2.4-1.52 2.674 2.674 0 00-2.32 1.344v-1.212H51.1zm15.94.144a3.352 3.352 0 002.48-1.056V388h1.152v-5.184c0-1.776-1.088-2.752-3.024-2.752a6.689 6.689 0 00-2.944.752l.432.9a5.156 5.156 0 012.364-.676 1.758 1.758 0 012.02 1.936v1.072a4.521 4.521 0 00-2.384-.608c-1.76 0-2.928.928-2.928 2.32 0 1.408 1.168 2.384 2.832 2.384zm-1.712-2.416c0-.864.784-1.44 1.984-1.44a4.122 4.122 0 012.208.56v1.5a3.091 3.091 0 01-2.24.9c-1.168 0-1.952-.608-1.952-1.52zm8.3-7.456a.83.83 0 00.832-.848.847.847 0 00-.832-.832.85.85 0 00-.848.832.834.834 0 00.852.848zm.576 1.92H73.04V388h1.168zm3.568-3.872l-1.168.24V388h1.168zm8.548 11.824a3.352 3.352 0 002.48-1.056V388h1.152v-5.184c0-1.776-1.088-2.752-3.024-2.752a6.689 6.689 0 00-2.944.752l.432.9a5.156 5.156 0 012.368-.672 1.758 1.758 0 012.016 1.932v1.072a4.521 4.521 0 00-2.384-.608c-1.76 0-2.928.928-2.928 2.32 0 1.408 1.168 2.384 2.832 2.384zm-1.712-2.416c0-.864.784-1.44 1.984-1.44a4.122 4.122 0 012.208.56v1.5a3.091 3.091 0 01-2.24.9c-1.168 0-1.952-.608-1.952-1.52zM98.064 388h1.168v-11.68l-1.168.24v4.624a3.18 3.18 0 00-2.432-1.084 3.8 3.8 0 00-3.664 4.016 3.768 3.768 0 003.6 4 3.077 3.077 0 002.5-1.152zm-4.944-3.9a2.787 2.787 0 012.736-2.98 2.8 2.8 0 012.208 1.056v3.872a2.674 2.674 0 01-2.208 1.04 2.8 2.8 0 01-2.736-2.988zm14.256 3.9h1.168v-11.68l-1.168.24v4.624a3.18 3.18 0 00-2.432-1.084 3.8 3.8 0 00-3.664 4.012 3.768 3.768 0 003.6 4 3.077 3.077 0 002.5-1.152zm-4.944-3.9a2.787 2.787 0 012.736-2.98 2.8 2.8 0 012.208 1.056v3.872a2.674 2.674 0 01-2.208 1.04 2.8 2.8 0 01-2.736-2.988zm8.512 3.9h1.168v-5.344a2.226 2.226 0 012.1-1.584 2.919 2.919 0 01.816.144v-1.056a2.217 2.217 0 00-.736-.112 2.332 2.332 0 00-2.176 1.728v-1.584h-1.172zm11.584-.9l-.736-.784a3.191 3.191 0 01-2.144.8 2.845 2.845 0 01-2.784-2.768h6.128V384a3.689 3.689 0 00-3.584-3.936 3.8 3.8 0 00-3.68 4.036 3.9 3.9 0 003.872 4.044 4.558 4.558 0 002.928-1.044zm-3.136-6.028a2.579 2.579 0 012.448 2.448h-4.94a2.608 2.608 0 012.492-2.448zm4.928 5.92a4.451 4.451 0 003.168 1.152c1.728 0 3.04-1.056 3.04-2.416 0-1.152-.7-1.808-2.272-2.1l-1.312-.24c-1.008-.176-1.344-.48-1.344-1.12 0-.768.672-1.248 1.7-1.248a4.142 4.142 0 012.448.832l.576-.816a5.048 5.048 0 00-2.976-.976c-1.648 0-2.816.944-2.816 2.288 0 1.136.688 1.776 2.208 2.048l1.28.224c.992.192 1.408.528 1.408 1.168 0 .816-.832 1.408-1.968 1.408a4.072 4.072 0 01-2.512-.976zm7.36 0a4.451 4.451 0 003.168 1.152c1.728 0 3.04-1.056 3.04-2.416 0-1.152-.7-1.808-2.272-2.1l-1.316-.236c-1.008-.176-1.344-.48-1.344-1.12 0-.768.672-1.248 1.7-1.248a4.142 4.142 0 012.448.832l.576-.816a5.048 5.048 0 00-2.98-.976c-1.648 0-2.816.944-2.816 2.288 0 1.136.688 1.776 2.208 2.048l1.28.224c.992.192 1.408.528 1.408 1.168 0 .816-.832 1.408-1.968 1.408a4.072 4.072 0 01-2.512-.976z"/><path class="e" d="M133.082 346.316l.42-.63-1.666-1.022 1.61-1.008-.42-.616-1.5.98.016-1.82h-.728l.014 1.834-1.512-.994-.392.616 1.6 1.008-1.656 1.022.406.63 1.568-1.022-.028 1.932h.728l-.028-1.932z"/><path class="h" d="M33.176 352h7.07v-1.428h-5.39v-2.814h3.724v-1.4h-3.724v-2.73h5.334V342.2h-7.014zm8.918 0h1.582v-5.054a1.628 1.628 0 011.386-.8 1.419 1.419 0 011.414 1.61V352h1.582v-4.578c0-.154-.014-.294-.028-.448a1.671 1.671 0 011.414-.826 1.419 1.419 0 011.414 1.61V352h1.582v-4.578a2.324 2.324 0 00-2.3-2.548 2.587 2.587 0 00-2.32 1.358 2.2 2.2 0 00-2.058-1.358 2.393 2.393 0 00-2.086 1.232v-1.12h-1.582zm14.532.112a2.928 2.928 0 002.086-.826V352h1.568v-4.578c0-1.624-1.05-2.548-2.87-2.548a6.734 6.734 0 00-2.912.714l.56 1.148a4.853 4.853 0 012.042-.546c1.078 0 1.61.476 1.61 1.4v.77a4.335 4.335 0 00-1.89-.434c-1.652 0-2.674.8-2.674 2.058a2.211 2.211 0 002.48 2.128zm-.994-2.156c0-.616.56-1.008 1.456-1.008a3.63 3.63 0 011.624.336v1.148a2.5 2.5 0 01-1.652.574c-.868 0-1.428-.406-1.428-1.05zm7.49-6.4a.966.966 0 00.994-.966 1 1 0 00-.994-.98.992.992 0 00-.98.98.962.962 0 00.98.968zm.8 1.428h-1.584V352h1.582zm3.668-3.262l-1.582.266V352h1.582zm7.502 10.39a2.928 2.928 0 002.086-.826V352h1.568v-4.578c0-1.624-1.05-2.548-2.87-2.548a6.734 6.734 0 00-2.912.714l.56 1.148a4.853 4.853 0 012.044-.546c1.078 0 1.61.476 1.61 1.4v.77a4.335 4.335 0 00-1.89-.434c-1.652 0-2.674.8-2.674 2.058a2.211 2.211 0 002.478 2.128zm-.992-2.156c0-.616.56-1.008 1.456-1.008a3.63 3.63 0 011.624.336v1.148a2.5 2.5 0 01-1.652.574c-.87 0-1.428-.406-1.428-1.05zM85.816 352h1.568v-10.276l-1.584.266v3.864a2.676 2.676 0 00-2.044-.924 3.4 3.4 0 00-3.274 3.57 3.366 3.366 0 003.178 3.57 2.7 2.7 0 002.156-1.008zm-3.766-3.5a2.1 2.1 0 012.086-2.24 2.176 2.176 0 011.666.756v2.954a2.1 2.1 0 01-1.666.77 2.121 2.121 0 01-2.086-2.24zM94.5 352h1.568v-10.276l-1.582.266v3.864a2.676 2.676 0 00-2.044-.924 3.4 3.4 0 00-3.28 3.57 3.366 3.366 0 003.178 3.57 2.7 2.7 0 002.16-1.008zm-3.77-3.5a2.1 2.1 0 012.086-2.24 2.176 2.176 0 011.666.756v2.954a2.1 2.1 0 01-1.666.77 2.121 2.121 0 01-2.086-2.24zm7.434 3.5h1.582v-4.62a1.925 1.925 0 011.754-1.162 2.231 2.231 0 01.868.168V345a1.875 1.875 0 00-.686-.14 2.08 2.08 0 00-1.932 1.652v-1.526h-1.586zm11.336-.9l-1.036-.966a2.279 2.279 0 01-1.664.666 2.142 2.142 0 01-2.1-1.918h5.18v-.392a3.367 3.367 0 00-3.318-3.612 3.454 3.454 0 00-3.414 3.622 3.565 3.565 0 003.57 3.64 4.056 4.056 0 002.782-1.04zm-2.95-4.938a1.92 1.92 0 011.834 1.75h-3.654a1.884 1.884 0 011.82-1.75zm4.522 5.026a4.706 4.706 0 003.028.952c1.624 0 2.856-.994 2.856-2.282 0-1.05-.672-1.694-2.072-1.96l-1.232-.224c-.742-.126-.994-.322-.994-.77 0-.518.476-.826 1.2-.826a3.834 3.834 0 012.114.672l.742-1.036a4.936 4.936 0 00-2.758-.84c-1.638 0-2.716.854-2.716 2.17 0 1.05.672 1.68 2.03 1.932l1.246.21c.672.126.966.364.966.8 0 .56-.574.938-1.414.938a4.042 4.042 0 01-2.254-.8zm6.9 0a4.706 4.706 0 003.028.952c1.624 0 2.856-.994 2.856-2.282 0-1.05-.672-1.694-2.072-1.96l-1.234-.224c-.742-.126-.994-.322-.994-.77 0-.518.476-.826 1.2-.826a3.834 3.834 0 012.114.672l.742-1.036a4.936 4.936 0 00-2.758-.84c-1.638 0-2.716.854-2.716 2.17 0 1.05.672 1.68 2.03 1.932l1.246.21c.672.126.966.364.966.8 0 .56-.574.938-1.414.938a4.042 4.042 0 01-2.254-.8z"/><path class="e" d="M32.392 293.152h3.388V302h1.078v-8.848h3.374v-.952h-7.84zM41.828 302h1.022v-5.04a2.014 2.014 0 011.792-1.05 1.771 1.771 0 011.834 1.96V302H47.5v-4.424a2.378 2.378 0 00-2.478-2.52 2.462 2.462 0 00-2.17 1.218v-4.494l-1.022.21zm8.386-8.512a.726.726 0 00.728-.742.741.741 0 00-.728-.728.744.744 0 00-.742.728.729.729 0 00.742.742zm.5 1.68H49.7V302h1.022zm1.586 5.95a3.9 3.9 0 002.772 1.008c1.512 0 2.66-.924 2.66-2.114 0-1.008-.616-1.582-1.988-1.834l-1.144-.21c-.882-.154-1.176-.42-1.176-.98 0-.672.588-1.092 1.484-1.092a3.624 3.624 0 012.142.728l.5-.714a4.417 4.417 0 00-2.6-.854c-1.442 0-2.464.826-2.464 2 0 .994.6 1.554 1.932 1.792l1.12.2c.868.168 1.232.462 1.232 1.022 0 .714-.728 1.232-1.722 1.232a3.563 3.563 0 01-2.2-.854zm9.87-5.95v.84h1.53V302h1.022v-5.992h1.946v-.84h-1.95v-1.484c0-.812.336-1.19 1.12-1.19a2.818 2.818 0 01.826.126v-.92a2.887 2.887 0 00-.924-.126 1.875 1.875 0 00-2.04 2.096v1.5zm6.5-1.68a.726.726 0 00.728-.742.741.741 0 00-.728-.728.744.744 0 00-.742.728.729.729 0 00.738.742zm.5 1.68h-1.022V302h1.022zm7.882 6.048l-.644-.686a2.792 2.792 0 01-1.876.7 2.49 2.49 0 01-2.432-2.422h5.362v-.308a3.228 3.228 0 00-3.136-3.444 3.325 3.325 0 00-3.226 3.528 3.41 3.41 0 003.39 3.542 3.989 3.989 0 002.562-.91zm-2.744-5.278a2.256 2.256 0 012.142 2.142h-4.326a2.282 2.282 0 012.184-2.142zm6.062-4.158l-1.022.21V302h1.022zM87.636 302h1.022v-10.22l-1.022.21v4.046a2.783 2.783 0 00-2.128-.952A3.327 3.327 0 0082.3 298.6a3.3 3.3 0 003.152 3.5 2.692 2.692 0 002.184-1.01zm-4.326-3.416a2.438 2.438 0 012.39-2.604 2.45 2.45 0 011.932.924v3.388a2.34 2.34 0 01-1.932.908 2.451 2.451 0 01-2.39-2.616zm14.112 2.616a2.478 2.478 0 01-2.408-2.618 2.48 2.48 0 012.394-2.6 2.685 2.685 0 011.932.854l.66-.716a3.727 3.727 0 00-2.632-1.064 3.412 3.412 0 00-3.374 3.528 3.424 3.424 0 003.372 3.542 3.553 3.553 0 002.59-1.106l-.63-.63a2.516 2.516 0 01-1.904.81zm6.258.926a2.933 2.933 0 002.17-.926v.8h1.008v-4.536c0-1.554-.952-2.408-2.646-2.408a5.853 5.853 0 00-2.576.658l.378.784a4.511 4.511 0 012.072-.588 1.538 1.538 0 011.764 1.69v.938a3.956 3.956 0 00-2.086-.532c-1.54 0-2.562.812-2.562 2.03a2.206 2.206 0 002.478 2.09zm-1.5-2.114c0-.756.686-1.26 1.736-1.26a3.606 3.606 0 011.932.49v1.316a2.7 2.7 0 01-1.96.784c-1.02 0-1.706-.532-1.706-1.33zm6.89 1.988h1.022v-5.04a2.014 2.014 0 011.792-1.05 1.771 1.771 0 011.834 1.96V302h1.022v-4.424a2.378 2.378 0 00-2.478-2.52 2.462 2.462 0 00-2.17 1.218v-1.106h-1.022zm7.868 0h1.022v-5.04a2.014 2.014 0 011.792-1.05 1.771 1.771 0 011.834 1.96V302h1.022v-4.424a2.378 2.378 0 00-2.478-2.52 2.462 2.462 0 00-2.17 1.218v-1.106h-1.022zm7.562-3.416a3.384 3.384 0 003.316 3.556 3.378 3.378 0 003.332-3.556 3.353 3.353 0 00-3.332-3.528 3.351 3.351 0 00-3.316 3.528zm3.316 2.646a2.409 2.409 0 01-2.31-2.63 2.43 2.43 0 012.31-2.646 2.44 2.44 0 012.324 2.646 2.427 2.427 0 01-2.324 2.63zm5.642-.77c0 1.092.616 1.666 1.792 1.666a3.837 3.837 0 001.19-.182v-.91a2.454 2.454 0 01-.966.182c-.714 0-.994-.294-.994-1.022v-4.186h1.96v-.84h-1.96v-2.114l-1.022.238v1.876h-1.414v.84h1.414zm14.392-1.876a3.3 3.3 0 00-3.15-3.5 2.753 2.753 0 00-2.2 1.022v-4.326l-1.022.21V302h1.008v-.9a2.766 2.766 0 002.158 1 3.327 3.327 0 003.206-3.516zm-3.4-2.6a2.451 2.451 0 012.392 2.616 2.451 2.451 0 01-2.394 2.618 2.4 2.4 0 01-1.946-.952v-3.348a2.333 2.333 0 011.946-.938zm10.99 5.236l-.644-.686a2.792 2.792 0 01-1.876.7 2.49 2.49 0 01-2.436-2.422h5.362v-.312a3.228 3.228 0 00-3.136-3.444 3.325 3.325 0 00-3.22 3.528 3.41 3.41 0 003.386 3.542 3.989 3.989 0 002.562-.91zm-2.744-5.278a2.256 2.256 0 012.142 2.142h-4.328a2.282 2.282 0 012.184-2.146zm9.464-4.158l-1.022.21V302h1.022zm7.88 9.432l-.64-.686a2.792 2.792 0 01-1.876.7 2.49 2.49 0 01-2.436-2.422h5.362v-.308a3.228 3.228 0 00-3.136-3.444 3.325 3.325 0 00-3.22 3.528 3.41 3.41 0 003.384 3.542 3.989 3.989 0 002.562-.91zm-2.74-5.278a2.256 2.256 0 012.142 2.142h-4.326a2.282 2.282 0 012.184-2.142zm4.172-.77v.84h1.526V302h1.022v-5.992h1.946v-.84h-1.946v-1.484c0-.812.336-1.19 1.12-1.19a2.818 2.818 0 01.826.126v-.92a2.887 2.887 0 00-.924-.126 1.875 1.875 0 00-2.044 2.1v1.5zm6.928 5.292c0 1.092.616 1.666 1.792 1.666a3.837 3.837 0 001.19-.182v-.91a2.454 2.454 0 01-.966.182c-.714 0-.994-.294-.994-1.022v-4.186h1.96v-.84h-1.96v-2.114l-1.022.238v1.876h-1.414v.84h1.414zm14.39-1.876a3.3 3.3 0 00-3.15-3.5 2.753 2.753 0 00-2.2 1.022v-4.326l-1.022.21V302h1.008v-.9a2.766 2.766 0 002.158 1 3.327 3.327 0 003.206-3.516zm-3.4-2.6a2.451 2.451 0 012.392 2.616 2.451 2.451 0 01-2.394 2.618 2.4 2.4 0 01-1.946-.952v-3.348a2.333 2.333 0 011.946-.938zm6.356-4.2l-1.022.21V302h1.022zm4.354 10.342a2.933 2.933 0 002.17-.924V302h1.008v-4.536c0-1.554-.952-2.408-2.646-2.408a5.853 5.853 0 00-2.576.658l.378.784a4.511 4.511 0 012.066-.588 1.538 1.538 0 011.768 1.69v.938a3.956 3.956 0 00-2.086-.532c-1.54 0-2.562.812-2.562 2.03a2.206 2.206 0 002.48 2.09zm-1.5-2.114c0-.756.686-1.26 1.736-1.26a3.607 3.607 0 011.932.49v1.316a2.7 2.7 0 01-1.96.784c-1.022 0-1.708-.532-1.708-1.33zm6.888 1.988h1.022v-5.04a2.014 2.014 0 011.79-1.05 1.771 1.771 0 011.834 1.96V302h1.022v-4.424a2.378 2.378 0 00-2.478-2.52 2.462 2.462 0 00-2.17 1.218v-1.106h-1.022zm7.868 0h1.022v-3.262l3.29 3.262h1.344l-3.626-3.584 3.472-3.248h-1.232l-3.248 3.066v-6.454l-1.022.21z"/><g><g class="a"><path class="k" d="M32 248h276v36H32z"/><path class="f" d="M32.5 248.5h275v35h-275z"/></g><path class="e" d="M32 282h276v2H32z"/><path class="f" d="M276 254h24v24h-24z"/><path class="e" d="M296 266a8 8 0 11-8-8 8 8 0 018 8zm-8 1.613a1.484 1.484 0 101.484 1.487 1.484 1.484 0 00-1.484-1.487zm-1.409-5.334l.239 4.387a.387.387 0 00.387.366h1.566a.387.387 0 00.387-.366l.239-4.387a.387.387 0 00-.387-.408h-2.044a.387.387 0 00-.386.408z"/><path class="g" d="M41.424 272h1.232v-5.04h4.384v-1.072h-4.384v-4.016h6.416V260.8h-7.648zm9.888-9.728a.83.83 0 00.832-.848.847.847 0 00-.832-.832.85.85 0 00-.848.832.834.834 0 00.848.848zm.576 1.92H50.72V272h1.168zm2.4 7.808h1.168v-5.344a2.226 2.226 0 012.1-1.584 2.919 2.919 0 01.816.144v-1.056a2.217 2.217 0 00-.736-.112 2.332 2.332 0 00-2.176 1.728v-1.584h-1.172zm4.784-1.008a4.451 4.451 0 003.168 1.152c1.728 0 3.04-1.056 3.04-2.416 0-1.152-.7-1.808-2.272-2.1l-1.308-.236c-1.008-.176-1.344-.48-1.344-1.12 0-.768.672-1.248 1.7-1.248a4.142 4.142 0 012.448.832l.576-.816a5.048 5.048 0 00-2.98-.976c-1.648 0-2.816.944-2.816 2.288 0 1.136.688 1.776 2.208 2.048l1.28.224c.992.192 1.408.528 1.408 1.168 0 .816-.832 1.408-1.968 1.408a4.072 4.072 0 01-2.512-.976zm8.752-.752c0 1.248.7 1.9 2.048 1.9a4.386 4.386 0 001.36-.208V270.9a2.8 2.8 0 01-1.1.208c-.816 0-1.136-.336-1.136-1.168v-4.788h2.24v-.96h-2.24v-2.416l-1.168.272v2.144h-1.62v.96h1.616zm8.848 1.76h1.168v-5.76a2.3 2.3 0 012.048-1.2 2.024 2.024 0 012.1 2.24V272h1.168v-5.056a2.717 2.717 0 00-2.832-2.88 2.813 2.813 0 00-2.48 1.392v-1.264h-1.172zm11.248.144a3.352 3.352 0 002.48-1.056V272h1.152v-5.184c0-1.776-1.088-2.752-3.024-2.752a6.689 6.689 0 00-2.944.752l.432.9a5.156 5.156 0 012.368-.672 1.758 1.758 0 012.016 1.932v1.072a4.521 4.521 0 00-2.384-.608c-1.76 0-2.928.928-2.928 2.32 0 1.408 1.168 2.384 2.832 2.384zm-1.712-2.416c0-.864.784-1.44 1.984-1.44a4.122 4.122 0 012.208.56v1.5a3.091 3.091 0 01-2.24.9c-1.168 0-1.952-.608-1.952-1.52zM93.92 272h1.168v-5.808a2.14 2.14 0 011.9-1.152 1.94 1.94 0 011.936 2.208V272h1.176v-5.04a3.238 3.238 0 00-.064-.688 2.173 2.173 0 011.948-1.232c1.184 0 1.92.848 1.92 2.208V272h1.168v-5.04a2.657 2.657 0 00-2.656-2.9 2.885 2.885 0 00-2.608 1.52 2.566 2.566 0 00-2.4-1.52 2.674 2.674 0 00-2.32 1.344v-1.212H93.92zm19.968-.9l-.736-.784a3.191 3.191 0 01-2.144.8 2.845 2.845 0 01-2.784-2.768h6.128V268a3.689 3.689 0 00-3.584-3.936 3.8 3.8 0 00-3.68 4.036 3.9 3.9 0 003.872 4.044 4.558 4.558 0 002.928-1.044zm-3.136-6.028a2.579 2.579 0 012.448 2.448h-4.944a2.608 2.608 0 012.496-2.448zm10.5-4.752l-1.168.24V272h1.168zm4.812 11.824a3.352 3.352 0 002.48-1.056V272h1.156v-5.184c0-1.776-1.088-2.752-3.024-2.752a6.689 6.689 0 00-2.944.752l.432.9a5.156 5.156 0 012.368-.672 1.758 1.758 0 012.016 1.936v1.072a4.521 4.521 0 00-2.388-.612c-1.76 0-2.928.928-2.928 2.32 0 1.408 1.168 2.384 2.832 2.384zm-1.712-2.416c0-.864.784-1.44 1.984-1.44a4.122 4.122 0 012.208.56v1.5a3.091 3.091 0 01-2.24.9c-1.168 0-1.952-.608-1.952-1.52zm6.96 1.264a4.451 4.451 0 003.168 1.152c1.728 0 3.04-1.056 3.04-2.416 0-1.152-.7-1.808-2.272-2.1l-1.312-.24c-1.008-.176-1.344-.48-1.344-1.12 0-.768.672-1.248 1.7-1.248a4.142 4.142 0 012.448.832l.576-.816a5.048 5.048 0 00-2.976-.976c-1.648 0-2.816.944-2.816 2.288 0 1.136.688 1.776 2.208 2.048l1.28.224c.992.192 1.408.528 1.408 1.168 0 .816-.832 1.408-1.968 1.408a4.072 4.072 0 01-2.512-.976zm8.752-.752c0 1.248.7 1.9 2.048 1.9a4.386 4.386 0 001.36-.208V270.9a2.8 2.8 0 01-1.1.208c-.816 0-1.136-.336-1.136-1.168v-4.788h2.24v-.96h-2.24v-2.416l-1.168.272v2.144h-1.62v.96h1.616zm8.848 1.76h1.168v-5.76a2.3 2.3 0 012.048-1.2 2.024 2.024 0 012.1 2.24V272h1.168v-5.056a2.717 2.717 0 00-2.832-2.88 2.813 2.813 0 00-2.48 1.392v-1.264h-1.168zm11.248.144a3.352 3.352 0 002.48-1.056V272h1.152v-5.184c0-1.776-1.088-2.752-3.024-2.752a6.689 6.689 0 00-2.944.752l.432.9a5.156 5.156 0 012.368-.672 1.758 1.758 0 012.016 1.936v1.072a4.521 4.521 0 00-2.384-.608c-1.76 0-2.928.928-2.928 2.32 0 1.404 1.172 2.38 2.832 2.38zm-1.712-2.416c0-.864.784-1.44 1.984-1.44a4.122 4.122 0 012.208.56v1.5a3.091 3.091 0 01-2.24.9c-1.168 0-1.952-.608-1.952-1.52zM166.16 272h1.168v-5.808a2.14 2.14 0 011.9-1.152 1.94 1.94 0 011.936 2.208V272h1.168v-5.04a3.239 3.239 0 00-.064-.688 2.173 2.173 0 011.952-1.232c1.184 0 1.92.848 1.92 2.208V272h1.168v-5.04a2.657 2.657 0 00-2.656-2.9 2.885 2.885 0 00-2.608 1.52 2.566 2.566 0 00-2.4-1.52 2.674 2.674 0 00-2.32 1.344v-1.212h-1.164zm19.968-.9l-.736-.784a3.191 3.191 0 01-2.144.8 2.845 2.845 0 01-2.784-2.768h6.128V268a3.689 3.689 0 00-3.584-3.936 3.8 3.8 0 00-3.68 4.032 3.9 3.9 0 003.872 4.048 4.558 4.558 0 002.928-1.044zm-3.136-6.032a2.579 2.579 0 012.448 2.452h-4.94a2.608 2.608 0 012.492-2.448z"/></g><path class="e" d="M167.082 230.316l.42-.63-1.666-1.022 1.61-1.008-.42-.616-1.5.98.016-1.82h-.728l.014 1.834-1.512-.994-.392.616 1.6 1.008-1.656 1.022.406.63 1.568-1.022-.028 1.932h.728l-.028-1.932z"/><path class="h" d="M33.176 236h1.68v-4.172h3.7v-1.4h-3.7v-2.8h5.362V226.2h-7.042zm9.394-8.442a.966.966 0 00.994-.966 1 1 0 00-.994-.98.992.992 0 00-.98.98.962.962 0 00.98.966zm.8 1.428h-1.584V236h1.582zM45.454 236h1.582v-4.62a1.925 1.925 0 011.75-1.162 2.231 2.231 0 01.868.168V229a1.875 1.875 0 00-.686-.14 2.08 2.08 0 00-1.932 1.652v-1.526h-1.582zm5.026-.812a4.706 4.706 0 003.02.952c1.624 0 2.856-.994 2.856-2.282 0-1.05-.672-1.694-2.072-1.96l-1.232-.224c-.742-.126-.994-.322-.994-.77 0-.518.476-.826 1.2-.826a3.834 3.834 0 012.114.672l.742-1.036a4.936 4.936 0 00-2.758-.84c-1.638 0-2.716.854-2.716 2.17 0 1.05.672 1.68 2.03 1.932l1.246.21c.672.126.966.364.966.8 0 .56-.574.938-1.414.938a4.042 4.042 0 01-2.254-.8zm8.2-1.036c0 1.288.742 1.96 2.156 1.96a4.976 4.976 0 001.358-.2v-1.33a2.906 2.906 0 01-.952.168c-.714 0-.98-.266-.98-.952v-3.552h1.96v-1.26h-1.96v-2.268l-1.582.336v1.932h-1.41v1.26h1.414zm10.49 1.96a2.928 2.928 0 002.086-.826V236h1.568v-4.578c0-1.624-1.05-2.548-2.87-2.548a6.734 6.734 0 00-2.912.714l.56 1.148a4.853 4.853 0 012.044-.546c1.078 0 1.61.476 1.61 1.4v.77a4.335 4.335 0 00-1.89-.434c-1.652 0-2.674.8-2.674 2.058a2.211 2.211 0 002.478 2.128zm-.994-2.156c0-.616.56-1.008 1.456-1.008a3.63 3.63 0 011.624.336v1.148a2.5 2.5 0 01-1.656.574c-.864 0-1.424-.406-1.424-1.05zM74.882 236h1.582v-5.012a1.8 1.8 0 011.526-.84 1.511 1.511 0 011.54 1.68V236h1.582v-4.62a2.36 2.36 0 00-2.422-2.506 2.545 2.545 0 00-2.226 1.26v-1.148h-1.582zm13.3 0h1.568v-10.276l-1.582.266v3.864a2.676 2.676 0 00-2.044-.924 3.4 3.4 0 00-3.276 3.57 3.366 3.366 0 003.178 3.57 2.7 2.7 0 002.156-1.008zm-3.766-3.5a2.1 2.1 0 012.084-2.24 2.176 2.176 0 011.666.756v2.954a2.1 2.1 0 01-1.666.77 2.121 2.121 0 01-2.084-2.24zm12.306-6.776l-1.582.266V236h1.582zm4.214 10.388a2.928 2.928 0 002.086-.826V236h1.568v-4.578c0-1.624-1.05-2.548-2.87-2.548a6.734 6.734 0 00-2.912.714l.56 1.148a4.853 4.853 0 012.044-.546c1.078 0 1.61.476 1.61 1.4v.77a4.335 4.335 0 00-1.89-.434c-1.652 0-2.674.8-2.674 2.058a2.211 2.211 0 002.478 2.128zm-.994-2.156c0-.616.56-1.008 1.456-1.008a3.63 3.63 0 011.624.336v1.148a2.5 2.5 0 01-1.652.574c-.87 0-1.428-.406-1.428-1.05zm6.076 1.232a4.706 4.706 0 003.024.952c1.624 0 2.858-.994 2.858-2.282 0-1.05-.672-1.694-2.072-1.96l-1.232-.224c-.742-.126-.994-.322-.994-.77 0-.518.476-.826 1.2-.826a3.834 3.834 0 012.114.672l.742-1.036a4.936 4.936 0 00-2.758-.84c-1.638 0-2.716.854-2.716 2.17 0 1.05.672 1.68 2.03 1.932l1.246.21c.672.126.966.364.966.8 0 .56-.574.938-1.414.938a4.042 4.042 0 01-2.254-.8zm8.2-1.036c0 1.288.742 1.96 2.156 1.96a4.976 4.976 0 001.358-.2v-1.33a2.906 2.906 0 01-.952.168c-.714 0-.98-.266-.98-.952v-3.552h1.96v-1.26h-1.96v-2.268l-1.582.336v1.932h-1.41v1.26h1.414zM122.58 236h1.582v-5.012a1.8 1.8 0 011.526-.84 1.511 1.511 0 011.54 1.68V236h1.582v-4.62a2.36 2.36 0 00-2.422-2.506 2.545 2.545 0 00-2.226 1.26v-1.148h-1.582zm10.42.112a2.928 2.928 0 002.086-.826V236h1.568v-4.578c0-1.624-1.05-2.548-2.87-2.548a6.734 6.734 0 00-2.912.714l.56 1.148a4.853 4.853 0 012.044-.546c1.078 0 1.61.476 1.61 1.4v.77a4.335 4.335 0 00-1.89-.434c-1.652 0-2.674.8-2.674 2.058a2.211 2.211 0 002.478 2.128zm-1-2.156c0-.616.56-1.008 1.456-1.008a3.63 3.63 0 011.624.336v1.148a2.5 2.5 0 01-1.652.574c-.866 0-1.428-.406-1.428-1.05zm6.708 2.044h1.582v-5.054a1.628 1.628 0 011.386-.8 1.419 1.419 0 011.414 1.61V236h1.582v-4.578c0-.154-.014-.294-.028-.448a1.671 1.671 0 011.414-.826 1.419 1.419 0 011.414 1.61V236h1.582v-4.578a2.324 2.324 0 00-2.3-2.548 2.587 2.587 0 00-2.324 1.358 2.2 2.2 0 00-2.058-1.358 2.393 2.393 0 00-2.086 1.232v-1.12h-1.582zm18.438-.9l-1.036-.966a2.279 2.279 0 01-1.666.658 2.142 2.142 0 01-2.1-1.918h5.18v-.392a3.367 3.367 0 00-3.318-3.612 3.454 3.454 0 00-3.416 3.63 3.565 3.565 0 003.57 3.64 4.056 4.056 0 002.786-1.04zm-2.954-4.942a1.92 1.92 0 011.834 1.75h-3.654a1.884 1.884 0 011.82-1.746z"/><g><path fill="#faeae8" d="M32 90h276v100H32z"/><path class="f" d="M278 106h14v14h-14z"/><path class="g" d="M286.9 113l2.843-2.843a.894.894 0 000-1.264l-.632-.632a.894.894 0 00-1.264 0L285 111.1l-2.843-2.838a.894.894 0 00-1.264 0l-.632.632a.894.894 0 000 1.264L283.1 113l-2.838 2.843a.894.894 0 000 1.264l.632.632a.894.894 0 001.264 0L285 114.9l2.843 2.843a.894.894 0 001.264 0l.632-.632a.894.894 0 000-1.264z"/><path class="h" d="M81.246 149h1.078v-4h2.968a2.835 2.835 0 003.122-2.9 2.828 2.828 0 00-3.122-2.9h-4.046zm3.92-8.848a1.906 1.906 0 012.17 1.948 1.919 1.919 0 01-2.17 1.974h-2.842v-3.922zm6.2-1.372l-1.022.21V149h1.022zm7.882 9.436l-.644-.686a2.792 2.792 0 01-1.876.7 2.49 2.49 0 01-2.436-2.422h5.362v-.308a3.228 3.228 0 00-3.134-3.444 3.325 3.325 0 00-3.22 3.528 3.41 3.41 0 003.388 3.542 3.989 3.989 0 002.562-.91zm-2.742-5.278a2.256 2.256 0 012.142 2.142h-4.326a2.282 2.282 0 012.184-2.142zm7.042 6.188a2.933 2.933 0 002.17-.924V149h1.008v-4.536c0-1.554-.952-2.408-2.646-2.408a5.853 5.853 0 00-2.576.658l.378.784a4.511 4.511 0 012.072-.588 1.538 1.538 0 011.764 1.69v.938a3.956 3.956 0 00-2.086-.532c-1.54 0-2.562.812-2.562 2.03a2.206 2.206 0 002.478 2.09zm-1.5-2.114c0-.756.686-1.26 1.736-1.26a3.606 3.606 0 011.932.49v1.316a2.7 2.7 0 01-1.96.784c-1.02 0-1.706-.532-1.706-1.33zm6.23 1.106a3.9 3.9 0 002.772 1.008c1.512 0 2.66-.924 2.66-2.114 0-1.008-.616-1.582-1.988-1.834l-1.148-.21c-.882-.154-1.176-.42-1.176-.98 0-.672.588-1.092 1.484-1.092a3.624 3.624 0 012.142.728l.5-.714a4.417 4.417 0 00-2.6-.854c-1.442 0-2.464.826-2.464 2 0 .994.6 1.554 1.932 1.792l1.12.2c.868.168 1.232.462 1.232 1.022 0 .714-.728 1.232-1.722 1.232a3.563 3.563 0 01-2.2-.854zm12.838.1l-.644-.686a2.792 2.792 0 01-1.876.7 2.49 2.49 0 01-2.436-2.422h5.362v-.31a3.228 3.228 0 00-3.136-3.444 3.325 3.325 0 00-3.22 3.528 3.41 3.41 0 003.388 3.542 3.989 3.989 0 002.564-.91zm-2.742-5.28a2.256 2.256 0 012.142 2.142h-4.326a2.282 2.282 0 012.184-2.142zm11.564 5.262a2.478 2.478 0 01-2.408-2.618 2.48 2.48 0 012.394-2.6 2.685 2.685 0 011.932.854l.658-.714a3.727 3.727 0 00-2.632-1.064 3.412 3.412 0 00-3.374 3.528 3.424 3.424 0 003.374 3.542 3.553 3.553 0 002.59-1.106l-.63-.63a2.516 2.516 0 01-1.904.808zm3.626-2.618a3.333 3.333 0 106.65 0 3.331 3.331 0 10-6.65 0zm3.318 2.646a2.409 2.409 0 01-2.31-2.632 2.337 2.337 0 114.634 0 2.427 2.427 0 01-2.324 2.634zm5.264.77h1.022v-4.674a1.947 1.947 0 011.832-1.386 2.554 2.554 0 01.714.126v-.924a1.94 1.94 0 00-.644-.1 2.041 2.041 0 00-1.9 1.512v-1.384h-1.024zm5.068 0h1.022v-4.674a1.947 1.947 0 011.834-1.386 2.554 2.554 0 01.714.126v-.924a1.94 1.94 0 00-.644-.1 2.041 2.041 0 00-1.9 1.512v-1.384h-1.026zm10.276-.784l-.644-.686a2.792 2.792 0 01-1.876.7 2.49 2.49 0 01-2.436-2.422h5.366v-.306a3.228 3.228 0 00-3.14-3.444 3.325 3.325 0 00-3.22 3.528 3.41 3.41 0 003.388 3.542 3.989 3.989 0 002.562-.91zm-2.744-5.276a2.256 2.256 0 012.142 2.142h-4.326a2.282 2.282 0 012.184-2.142zm8.176 5.262a2.478 2.478 0 01-2.408-2.618 2.48 2.48 0 012.394-2.6 2.685 2.685 0 011.932.854l.66-.716a3.727 3.727 0 00-2.632-1.064 3.412 3.412 0 00-3.374 3.528 3.424 3.424 0 003.374 3.542 3.553 3.553 0 002.59-1.106l-.63-.63a2.516 2.516 0 01-1.906.81zm5.1-.742c0 1.092.616 1.666 1.792 1.666a3.837 3.837 0 001.186-.18v-.91a2.454 2.454 0 01-.966.182c-.714 0-.994-.294-.994-1.022v-4.186H171v-.84h-1.96v-2.114l-1.022.238v1.876H166.6v.84h1.414zm8.834 0c0 1.092.616 1.666 1.792 1.666a3.837 3.837 0 001.19-.182v-.91a2.454 2.454 0 01-.966.182c-.714 0-.994-.294-.994-1.022v-4.184h1.96v-.84h-1.96v-2.114l-1.022.238v1.876h-1.418v.84h1.414zm4.62 1.54h1.022v-5.038a2.014 2.014 0 011.792-1.05 1.771 1.771 0 011.834 1.96V149h1.022v-4.424a2.378 2.378 0 00-2.478-2.52 2.462 2.462 0 00-2.17 1.218v-4.494l-1.022.21zm13.51-.784l-.644-.686a2.792 2.792 0 01-1.876.7 2.49 2.49 0 01-2.436-2.422h5.362v-.306a3.228 3.228 0 00-3.136-3.444 3.325 3.325 0 00-3.22 3.528 3.41 3.41 0 003.388 3.542 3.989 3.989 0 002.558-.91zm-2.744-5.278a2.256 2.256 0 012.142 2.142h-4.326a2.282 2.282 0 012.18-2.14zm14.084 5.278l-.644-.686a2.792 2.792 0 01-1.876.7 2.49 2.49 0 01-2.436-2.422h5.362v-.306a3.228 3.228 0 00-3.136-3.444 3.325 3.325 0 00-3.22 3.528 3.41 3.41 0 003.388 3.542 3.989 3.989 0 002.558-.91zm-2.744-5.278a2.256 2.256 0 012.142 2.142h-4.326a2.282 2.282 0 012.18-2.14zm5.036 6.064h1.022v-4.676a1.947 1.947 0 011.834-1.386 2.554 2.554 0 01.714.126v-.924a1.94 1.94 0 00-.644-.1 2.041 2.041 0 00-1.9 1.512v-1.384h-1.022zm5.068 0h1.022v-4.676a1.947 1.947 0 011.834-1.386 2.554 2.554 0 01.714.126v-.924a1.94 1.94 0 00-.644-.1 2.041 2.041 0 00-1.9 1.512v-1.384h-1.022zm4.326-3.416a3.333 3.333 0 106.65 0 3.331 3.331 0 10-6.65 0zm3.318 2.646a2.409 2.409 0 01-2.31-2.632 2.337 2.337 0 114.634 0 2.427 2.427 0 01-2.324 2.632zm5.264.77h1.022v-4.676a1.947 1.947 0 011.834-1.386 2.554 2.554 0 01.714.126v-.924a1.94 1.94 0 00-.644-.1 2.041 2.041 0 00-1.9 1.512v-1.384h-1.022zm4.326-.882a3.9 3.9 0 002.772 1.008c1.512 0 2.66-.924 2.66-2.114 0-1.008-.616-1.582-1.988-1.834l-1.148-.21c-.882-.154-1.176-.42-1.176-.98 0-.672.588-1.092 1.484-1.092a3.624 3.624 0 012.142.728l.5-.714a4.417 4.417 0 00-2.6-.854c-1.442 0-2.464.826-2.464 2 0 .994.6 1.554 1.932 1.792l1.12.2c.868.168 1.232.462 1.232 1.022 0 .714-.728 1.232-1.722 1.232a3.563 3.563 0 01-2.2-.854zM81.05 170h1.022v-5.082a1.872 1.872 0 011.666-1.008 1.7 1.7 0 011.694 1.932V170h1.022v-4.41a2.834 2.834 0 00-.056-.6 1.9 1.9 0 011.708-1.08c1.036 0 1.68.742 1.68 1.932V170h1.022v-4.41a2.325 2.325 0 00-2.324-2.534 2.524 2.524 0 00-2.284 1.33 2.245 2.245 0 00-2.1-1.33 2.34 2.34 0 00-2.03 1.176v-1.064h-1.02zm14.084.126a2.933 2.933 0 002.166-.926v.8h1.008v-4.536c0-1.554-.952-2.408-2.646-2.408a5.853 5.853 0 00-2.576.658l.378.784a4.511 4.511 0 012.072-.588 1.538 1.538 0 011.764 1.69v.938a3.956 3.956 0 00-2.086-.532c-1.54 0-2.562.812-2.562 2.03a2.206 2.206 0 002.482 2.09zm-1.5-2.114c0-.756.686-1.26 1.736-1.26a3.607 3.607 0 011.932.49v1.316a2.7 2.7 0 01-1.96.784c-1.02 0-1.706-.532-1.706-1.33zm6.89 1.988h1.022v-4.676a1.947 1.947 0 011.834-1.386 2.554 2.554 0 01.714.126v-.924a1.94 1.94 0 00-.644-.1 2.041 2.041 0 00-1.9 1.512v-1.384h-1.026zm5.068 0h1.022v-3.262L109.9 170h1.344l-3.626-3.584 3.472-3.248h-1.228l-3.248 3.066v-6.454l-1.022.21zm12.194-.784l-.644-.686a2.792 2.792 0 01-1.876.7 2.49 2.49 0 01-2.436-2.422h5.362v-.308a3.228 3.228 0 00-3.136-3.444 3.325 3.325 0 00-3.22 3.528 3.41 3.41 0 003.388 3.542 3.989 3.989 0 002.562-.91zm-2.744-5.278a2.256 2.256 0 012.142 2.142h-4.326a2.282 2.282 0 012.184-2.142zm10.08 6.062h1.022v-10.22l-1.022.21v4.046a2.783 2.783 0 00-2.128-.952 3.327 3.327 0 00-3.206 3.516 3.3 3.3 0 003.15 3.5 2.692 2.692 0 002.184-1.008zm-4.322-3.416a2.427 2.427 0 014.326-1.68v3.388a2.34 2.34 0 01-1.932.91 2.451 2.451 0 01-2.394-2.618zm11.508-5.1a.726.726 0 00.728-.742.735.735 0 00-1.47 0 .729.729 0 00.734.746zm.5 1.68h-1.022V170h1.022zm2.24 6.836h1.022v-5.04a2.014 2.014 0 011.792-1.05 1.771 1.771 0 011.838 1.96V170h1.022v-4.424a2.378 2.378 0 00-2.478-2.52 2.462 2.462 0 00-2.17 1.218v-1.106h-1.026zm11.27 0h1.022v-4.676a1.947 1.947 0 011.834-1.386 2.554 2.554 0 01.714.126v-.924a1.94 1.94 0 00-.644-.1 2.041 2.041 0 00-1.9 1.512v-1.384h-1.026zm10.276-.784l-.644-.686a2.792 2.792 0 01-1.876.7 2.49 2.49 0 01-2.436-2.422H157v-.308a3.228 3.228 0 00-3.136-3.444 3.325 3.325 0 00-3.22 3.528 3.41 3.41 0 003.388 3.542 3.989 3.989 0 002.562-.91zm-2.744-5.278a2.256 2.256 0 012.142 2.142h-4.326a2.282 2.282 0 012.184-2.142zM163.93 170h1.022v-10.22l-1.022.21v4.046a2.783 2.783 0 00-2.128-.952 3.327 3.327 0 00-3.202 3.516 3.3 3.3 0 003.15 3.5 2.692 2.692 0 002.18-1.01zm-4.33-3.416a2.427 2.427 0 014.33-1.684v3.388a2.34 2.34 0 01-1.93.912 2.451 2.451 0 01-2.4-2.616zm8.078 2a.764.764 0 10.728.756.75.75 0 00-.724-.754z"/><path d="M81.176 123h7.07v-1.428h-5.39v-2.814h3.724v-1.4h-3.724v-2.73h5.334V113.2h-7.014zm8.918 0h1.582v-4.62a1.925 1.925 0 011.75-1.162 2.231 2.231 0 01.868.168V116a1.875 1.875 0 00-.686-.14 2.08 2.08 0 00-1.932 1.652v-1.526h-1.582zm5.642 0h1.582v-4.62a1.925 1.925 0 011.75-1.162 2.231 2.231 0 01.868.168V116a1.875 1.875 0 00-.686-.14 2.08 2.08 0 00-1.932 1.652v-1.526h-1.582zm4.984-3.5a3.522 3.522 0 003.528 3.64 3.514 3.514 0 003.528-3.64 3.5 3.5 0 00-3.528-3.626 3.51 3.51 0 00-3.528 3.626zm3.528 2.268a2.039 2.039 0 01-1.96-2.254 2.057 2.057 0 011.96-2.282 2.065 2.065 0 011.96 2.282 2.047 2.047 0 01-1.96 2.254zm5.306 1.232h1.582v-4.62a1.925 1.925 0 011.75-1.162 2.231 2.231 0 01.868.168V116a1.875 1.875 0 00-.686-.14 2.08 2.08 0 00-1.932 1.652v-1.526h-1.582zm5.026-.812a4.706 4.706 0 003.02.952c1.624 0 2.856-.994 2.856-2.282 0-1.05-.672-1.694-2.072-1.96l-1.232-.224c-.742-.126-.994-.322-.994-.77 0-.518.476-.826 1.2-.826a3.834 3.834 0 012.114.672l.742-1.036a4.936 4.936 0 00-2.758-.84c-1.638 0-2.716.854-2.716 2.17 0 1.05.672 1.68 2.03 1.932l1.246.21c.672.126.966.364.966.8 0 .56-.574.938-1.414.938a4.042 4.042 0 01-2.254-.8z" fill="#7d1007"/><path class="f" d="M48 106h24v24H48z"/><path class="e" d="M69 118a9 9 0 11-9-9 9 9 0 019 9zm-9 1.815a1.669 1.669 0 101.669 1.669A1.669 1.669 0 0060 119.815zm-1.585-6l.269 4.935a.435.435 0 00.435.412h1.762a.435.435 0 00.435-.412l.269-4.935a.435.435 0 00-.435-.459h-2.3a.435.435 0 00-.435.459zM32 90h276v2H32z"/></g><path class="h" d="M33.42 52h2.1v-6.06h5.44v-1.8h-5.44v-4.3h8.24V38H33.42zm10.02-5.1a5.246 5.246 0 005.3 5.3 5.229 5.229 0 005.28-5.3 5.225 5.225 0 00-5.28-5.28 5.242 5.242 0 00-5.3 5.28zm5.3 3.54a3.406 3.406 0 01-3.34-3.54 3.4 3.4 0 013.34-3.52 3.4 3.4 0 013.32 3.52 3.416 3.416 0 01-3.32 3.54zM55.92 52h2v-6.8a2.779 2.779 0 012.64-1.86 3.425 3.425 0 011.18.22v-1.8a2.541 2.541 0 00-1.02-.16 3.186 3.186 0 00-2.8 1.52v-1.3h-2zm7.42 0h2v-7.4a2.667 2.667 0 012.3-1.24 2.287 2.287 0 012.34 2.58V52h1.98v-6.4a4.239 4.239 0 00-.08-.88 2.715 2.715 0 012.38-1.36 2.287 2.287 0 012.34 2.58V52h2v-6.4a3.73 3.73 0 00-3.82-3.98 4.077 4.077 0 00-3.44 1.7 3.547 3.547 0 00-3.14-1.7 3.906 3.906 0 00-2.86 1.16v-.96h-2zm23.06-2.52c0 1.76 1.06 2.7 3.04 2.7a6.624 6.624 0 001.9-.3V50.2a3.929 3.929 0 01-1.46.24c-1.08 0-1.5-.38-1.5-1.42V43.5h3v-1.68h-3v-3.08l-1.98.48v2.6h-2.16v1.68h2.16zm7.46-9.3a1.246 1.246 0 001.24-1.24 1.246 1.246 0 00-1.24-1.24 1.229 1.229 0 00-1.22 1.24 1.229 1.229 0 001.22 1.24zm1 1.64h-2V52h2zm3.68 7.66c0 1.76 1.06 2.7 3.04 2.7a6.624 6.624 0 001.9-.3V50.2a3.929 3.929 0 01-1.46.24c-1.08 0-1.5-.38-1.5-1.42V43.5h3v-1.68h-3v-3.08l-1.98.48v2.6h-2.16v1.68h2.16zM107 37.56l-2 .44v14h2zm11.18 13.28l-1.28-1.26a3.96 3.96 0 01-2.58.9 3.434 3.434 0 01-3.44-2.92h8.04v-.58a5.041 5.041 0 00-4.92-5.32 5.115 5.115 0 00-5.1 5.24 5.238 5.238 0 005.34 5.28 6.072 6.072 0 003.94-1.34zm-4.22-7.5a3.149 3.149 0 012.98 2.72h-6.04a3.126 3.126 0 013.06-2.72z"/></svg>