<svg xmlns="http://www.w3.org/2000/svg" width="360" height="655" viewBox="0 0 360 655"><g transform="translate(-360 -222)"><g transform="translate(360 222)" fill="#fff" stroke="#d2d2d2" stroke-width="1"><rect width="360" height="655" rx="3" stroke="none"/><rect x="0.5" y="0.5" width="359" height="654" rx="2.5" fill="none"/></g><text transform="translate(392 841)" fill="#06c" font-size="14" font-family="RedHatText-Regular, Red Hat Text" letter-spacing="0.01em"><tspan x="0" y="0">Privacy statement</tspan></text><g transform="translate(-293 -62)"><g transform="translate(784 821)" fill="none" stroke="#06c" stroke-width="1"><rect width="73" height="36" rx="3" stroke="none"/><rect x="0.5" y="0.5" width="72" height="35" rx="2.5" fill="none"/></g><text transform="translate(800 845)" fill="#06c" font-size="16" font-family="RedHatText-Regular, Red Hat Text"><tspan x="0" y="0">Reset</tspan></text></g><g transform="translate(-392 -62)"><rect width="83" height="36" rx="3" transform="translate(784 821)" fill="#06c"/><text transform="translate(800 845)" fill="#fff" font-size="16" font-family="RedHatText-Regular, Red Hat Text"><tspan x="0" y="0">Submit</tspan></text></g><g transform="translate(123 22)"><text transform="translate(420 699)" fill="#151515" font-size="16" font-family="RedHatText-Regular, Red Hat Text"><tspan x="0" y="0">Don’t subscribe</tspan></text><g transform="translate(-94 -66)"><rect width="24" height="24" transform="translate(486 747)" fill="none"/><g transform="translate(490 751)" fill="#fff" stroke="#2c77f6" stroke-width="1"><circle cx="8" cy="8" r="8" stroke="none"/><circle cx="8" cy="8" r="7.5" fill="none"/></g><circle cx="5" cy="5" r="5" transform="translate(493 754)" fill="#2c77f6"/></g></g><g transform="translate(0 22)"><text transform="translate(420 699)" fill="#151515" font-size="16" font-family="RedHatText-Regular, Red Hat Text"><tspan x="0" y="0">Subscribe</tspan></text><g transform="translate(-205 -36)"><rect width="24" height="24" transform="translate(597 717)" fill="none"/><g transform="translate(601 721)" fill="#fff" stroke="#767676" stroke-width="1"><circle cx="8" cy="8" r="8" stroke="none"/><circle cx="8" cy="8" r="7.5" fill="none"/></g></g></g><text transform="translate(392 691)" fill="#151515" font-size="14" font-family="RedHatText-Medium, Red Hat Text" letter-spacing="0.01em" font-weight="500"><tspan x="0" y="0">Subscribe </tspan><tspan y="0" fill="#c9190b" font-family="RedHatText-Regular, Red Hat Text" font-weight="400">*</tspan></text><text transform="translate(392 641)" fill="#c9190b" font-size="14" font-family="RedHatText-Regular, Red Hat Text" letter-spacing="0.01em"><tspan x="0" y="0">This field cannot be left blank</tspan></text><g transform="translate(0 176)"><g transform="translate(392 411)" fill="#fff" stroke="#d2d2d2" stroke-width="1"><rect width="296" height="36" stroke="none"/><rect x="0.5" y="0.5" width="295" height="35" fill="none"/></g><rect width="296" height="2" transform="translate(392 445)" fill="#c9190b"/><g transform="translate(411 411)"><rect width="24" height="24" transform="translate(245 6)" fill="none"/><path d="M24,16a8,8,0,1,1-8-8A8,8,0,0,1,24,16Zm-8,1.613A1.484,1.484,0,1,0,17.484,19.1,1.484,1.484,0,0,0,16,17.613Zm-1.409-5.334.239,4.387a.387.387,0,0,0,.387.366h1.566a.387.387,0,0,0,.387-.366l.239-4.387a.387.387,0,0,0-.387-.408H14.978a.387.387,0,0,0-.386.408Z" transform="translate(241 2)" fill="#c9190b"/></g><text transform="translate(400 435)" fill="#6a6e73" font-size="16" font-family="RedHatText-Regular, Red Hat Text"><tspan x="0" y="0">Email address</tspan></text></g><text transform="translate(392 575)" fill="#151515" font-size="14" font-family="RedHatText-Medium, Red Hat Text" letter-spacing="0.01em" font-weight="500"><tspan x="0" y="0">Email address </tspan><tspan y="0" fill="#c9190b" font-family="RedHatText-Regular, Red Hat Text" font-weight="400">*</tspan></text><g transform="translate(0 82)"><g transform="translate(392 411)" fill="#fff" stroke="#d2d2d2" stroke-width="1"><rect width="296" height="36" stroke="none"/><rect x="0.5" y="0.5" width="295" height="35" fill="none"/></g><rect width="296" height="1" transform="translate(392 446)" fill="#6a6e73"/><text transform="translate(400 435)" fill="#6a6e73" font-size="16" font-family="RedHatText-Regular, Red Hat Text"><tspan x="0" y="0">Phone number</tspan></text></g><text transform="translate(392 481)" fill="#151515" font-size="14" font-family="RedHatText-Medium, Red Hat Text" letter-spacing="0.01em" font-weight="500"><tspan x="0" y="0">Phone number </tspan><tspan y="0" fill="#c9190b" font-family="RedHatText-Regular, Red Hat Text" font-weight="400">*</tspan></text><g transform="translate(0 -12)"><g transform="translate(392 411)" fill="#fff" stroke="#d2d2d2" stroke-width="1"><rect width="296" height="36" stroke="none"/><rect x="0.5" y="0.5" width="295" height="35" fill="none"/></g><rect width="296" height="1" transform="translate(392 446)" fill="#6a6e73"/><text transform="translate(400 435)" fill="#6a6e73" font-size="16" font-family="RedHatText-Regular, Red Hat Text"><tspan x="0" y="0">First name last name</tspan></text></g><text transform="translate(392 387)" fill="#151515" font-size="14" font-family="RedHatText-Medium, Red Hat Text" letter-spacing="0.01em" font-weight="500"><tspan x="0" y="0">First and last name </tspan><tspan y="0" fill="#c9190b" font-family="RedHatText-Regular, Red Hat Text" font-weight="400">*</tspan></text><text transform="translate(392 296)" fill="#151515" font-size="16" font-family="RedHatText-Regular, Red Hat Text"><tspan x="0" y="16">Long optional helper text explaining how </tspan><tspan x="0" y="40">to fill out this form.</tspan></text><text transform="translate(392 274)" fill="#151515" font-size="20" font-family="RedHatDisplay-Medium, Red Hat Display" font-weight="500"><tspan x="0" y="0">Form title</tspan></text><g transform="translate(688 222)"><rect width="32" height="655" fill="#1893d2"/></g><g transform="translate(360 845)"><rect width="360" height="32" fill="#1893d2"/></g><g transform="translate(392 827)" fill="none" stroke="#f0f" stroke-width="1" opacity="0.25"><rect width="115" height="18" stroke="none"/><rect x="0.5" y="0.5" width="114" height="17" fill="none"/></g><g transform="translate(360 795)"><rect width="360" height="32" fill="#1893d2"/></g><g transform="translate(475 769)"><rect width="16" height="16" fill="#51a549"/></g><g transform="translate(360 727)"><rect width="360" height="32" fill="#1893d2"/></g><g transform="translate(543 703)" fill="none" stroke="#f0f" stroke-width="1" opacity="0.25"><rect width="111" height="24" stroke="none"/><rect x="0.5" y="0.5" width="110" height="23" fill="none"/></g><rect width="4" height="4" transform="translate(539 713)" fill="#ec861b"/><g transform="translate(515 703)" fill="none" stroke="#f0f" stroke-width="1" opacity="0.25"><rect width="24" height="24" stroke="none"/><rect x="0.5" y="0.5" width="23" height="23" fill="none"/></g><g transform="translate(491 703)"><rect width="24" height="24" fill="#1b8793"/></g><g transform="translate(420 703)" fill="none" stroke="#f0f" stroke-width="1" opacity="0.25"><rect width="71" height="24" stroke="none"/><rect x="0.5" y="0.5" width="70" height="23" fill="none"/></g><rect width="4" height="4" transform="translate(416 713)" fill="#ec861b"/><g transform="translate(392 703)" fill="none" stroke="#f0f" stroke-width="1" opacity="0.25"><rect width="24" height="24" stroke="none"/><rect x="0.5" y="0.5" width="23" height="23" fill="none"/></g><g transform="translate(420 695)"><rect width="8" height="8" fill="#9bd917"/></g><g transform="translate(392 677)" fill="none" stroke="#f0f" stroke-width="1" opacity="0.25"><rect width="76" height="18" stroke="none"/><rect x="0.5" y="0.5" width="75" height="17" fill="none"/></g><g transform="translate(360 645)"><rect width="360" height="32" fill="#1893d2"/></g><g transform="translate(392 627)" fill="none" stroke="#f0f" stroke-width="1" opacity="0.25"><rect width="187" height="18" stroke="none"/><rect x="0.5" y="0.5" width="186" height="17" fill="none"/></g><rect width="4" height="4" transform="translate(392 623)" fill="#ec861b"/><g transform="translate(680 601)"><rect width="8" height="8" fill="#9bd917"/></g><g transform="translate(656 593)" fill="none" stroke="#f0f" stroke-width="1" opacity="0.25"><rect width="24" height="24" stroke="none"/><rect x="0.5" y="0.5" width="23" height="23" fill="none"/></g><rect width="6" height="6" transform="translate(665 587)" fill="#f3d53c"/><g transform="translate(400 593)" fill="none" stroke="#f0f" stroke-width="1" opacity="0.25"><rect width="98" height="24" stroke="none"/><rect x="0.5" y="0.5" width="97" height="23" fill="none"/></g><rect width="6" height="6" transform="translate(446 587)" fill="#f3d53c"/><g transform="translate(392 601)"><rect width="8" height="8" fill="#9bd917"/></g><g transform="translate(392 579)"><rect width="8" height="8" fill="#9bd917"/></g><g transform="translate(392 561)" fill="none" stroke="#f0f" stroke-width="1" opacity="0.25"><rect width="102" height="18" stroke="none"/><rect x="0.5" y="0.5" width="101" height="17" fill="none"/></g><g transform="translate(360 529)"><rect width="360" height="32" fill="#1893d2"/></g><rect width="6" height="5" transform="translate(450 523)" fill="#f3d53c"/><g transform="translate(400 499)" fill="none" stroke="#f0f" stroke-width="1" opacity="0.25"><rect width="105" height="24" stroke="none"/><rect x="0.5" y="0.5" width="104" height="23" fill="none"/></g><rect width="6" height="6" transform="translate(450 493)" fill="#f3d53c"/><g transform="translate(392 507)"><rect width="8" height="8" fill="#9bd917"/></g><g transform="translate(392 485)"><rect width="8" height="8" fill="#9bd917"/></g><g transform="translate(392 467)" fill="none" stroke="#f0f" stroke-width="1" opacity="0.25"><rect width="107" height="18" stroke="none"/><rect x="0.5" y="0.5" width="106" height="17" fill="none"/></g><g transform="translate(360 435)"><rect width="360" height="32" fill="#1893d2"/></g><rect width="6" height="5" transform="translate(469 429)" fill="#f3d53c"/><g transform="translate(400 405)" fill="none" stroke="#f0f" stroke-width="1" opacity="0.25"><rect width="147" height="24" stroke="none"/><rect x="0.5" y="0.5" width="146" height="23" fill="none"/></g><rect width="6" height="6" transform="translate(469 399)" fill="#f3d53c"/><g transform="translate(392 414)"><rect width="8" height="8" fill="#9bd917"/></g><g transform="translate(392 391)"><rect width="8" height="8" fill="#9bd917"/></g><g transform="translate(392 373)" fill="none" stroke="#f0f" stroke-width="1" opacity="0.25"><rect width="136" height="18" stroke="none"/><rect x="0.5" y="0.5" width="135" height="17" fill="none"/></g><g transform="translate(360 341)"><rect width="360" height="32" fill="#1893d2"/></g><g transform="translate(392 296)" fill="none" stroke="#f0f" stroke-width="1" opacity="0.25"><rect width="296" height="45" stroke="none"/><rect x="0.5" y="0.5" width="295" height="44" fill="none"/></g><g transform="translate(392 280)"><rect width="16" height="16" fill="#51a549"/></g><g transform="translate(392 254)" fill="none" stroke="#f0f" stroke-width="1" opacity="0.25"><rect width="88" height="26" stroke="none"/><rect x="0.5" y="0.5" width="87" height="25" fill="none"/></g><g transform="translate(360 222)"><rect width="360" height="32" fill="#1893d2"/></g><g transform="translate(360 222)"><rect width="32" height="655" fill="#1893d2"/></g></g></svg>