<svg xmlns="http://www.w3.org/2000/svg" width="298" height="55" viewBox="0 0 298 55"><defs><style>.a{fill:#151515;}.b{fill:none;}.c{fill:#2c77f6;}.d,.e{fill:#fff;}.e{stroke:#767676;}.f{stroke:none;}</style></defs><g transform="translate(-393 -2571)"><path class="a" d="M6.624-.944A4.485,4.485,0,0,1,2.144-5.6a4.478,4.478,0,0,1,4.448-4.656A4.489,4.489,0,0,1,10-8.688l.816-.848a5.6,5.6,0,0,0-4.224-1.84A5.676,5.676,0,0,0,.9-5.6,5.676,5.676,0,0,0,6.592.176a5.658,5.658,0,0,0,4.192-1.84l-.8-.816A4.388,4.388,0,0,1,6.624-.944ZM18.08,0h1.168V-5.056a2.722,2.722,0,0,0-2.816-2.88,2.813,2.813,0,0,0-2.5,1.408V-11.44l-1.168.24V0h1.168V-5.76a2.32,2.32,0,0,1,2.048-1.2,2.023,2.023,0,0,1,2.1,2.24Zm3.136-3.9A3.907,3.907,0,0,0,25.088.144,4.5,4.5,0,0,0,28.016-.9l-.736-.8a3.191,3.191,0,0,1-2.144.8,2.81,2.81,0,0,1-2.768-2.768H28.5V-4a3.7,3.7,0,0,0-3.584-3.936A3.812,3.812,0,0,0,21.216-3.9ZM24.9-6.912A2.572,2.572,0,0,1,27.328-4.48H22.4A2.581,2.581,0,0,1,24.9-6.912Zm9.088,6A2.817,2.817,0,0,1,31.264-3.9a2.832,2.832,0,0,1,2.72-2.976,2.983,2.983,0,0,1,2.144.976l.752-.816a4.146,4.146,0,0,0-2.912-1.216A3.912,3.912,0,0,0,30.1-3.9,3.926,3.926,0,0,0,33.968.144,3.955,3.955,0,0,0,36.832-1.12l-.72-.72A2.791,2.791,0,0,1,33.984-.912ZM38.56,0h1.168V-3.728L43.488,0H45.04L40.88-4.1l3.968-3.712H43.44l-3.712,3.52V-11.44l-1.168.24ZM45.6-3.9A3.907,3.907,0,0,0,49.472.144,4.5,4.5,0,0,0,52.4-.9l-.736-.8a3.191,3.191,0,0,1-2.144.8,2.81,2.81,0,0,1-2.768-2.768H52.88V-4A3.7,3.7,0,0,0,49.3-7.936,3.812,3.812,0,0,0,45.6-3.9Zm3.68-3.008A2.572,2.572,0,0,1,51.712-4.48H46.784A2.581,2.581,0,0,1,49.28-6.912ZM60.592,0H61.76V-11.44l-1.184.24v4.368A3.2,3.2,0,0,0,58.16-7.9a3.8,3.8,0,0,0-3.68,4.016,3.78,3.78,0,0,0,3.616,4,3.139,3.139,0,0,0,2.5-1.168ZM55.648-3.9a2.775,2.775,0,0,1,2.72-2.976,2.813,2.813,0,0,1,2.208,1.04v3.888a2.7,2.7,0,0,1-2.208,1.04A2.789,2.789,0,0,1,55.648-3.9Z" transform="translate(591 2606)"/><path class="b" d="M563,2588h24v24H563Z"/><rect class="c" width="16" height="16" rx="2" transform="translate(567 2592)"/><path class="d" d="M581,2597.5l-1.5-1.5-6,6-3-3-1.5,1.5,4.5,4.5Z"/></g><path class="a" d="M10.208-4.736V-11.2H8.976v6.464c0,2.416-1.36,3.792-3.264,3.792S2.448-2.32,2.448-4.736V-11.2H1.216v6.464c0,3.12,1.824,4.912,4.5,4.912C8.368.176,10.208-1.616,10.208-4.736ZM12.576,0h1.168V-5.76a2.32,2.32,0,0,1,2.048-1.2,2.023,2.023,0,0,1,2.1,2.24V0h1.168V-5.056a2.722,2.722,0,0,0-2.816-2.88,2.813,2.813,0,0,0-2.5,1.408v-1.28H12.576ZM24.912-.912A2.817,2.817,0,0,1,22.192-3.9a2.832,2.832,0,0,1,2.72-2.976,2.983,2.983,0,0,1,2.144.976l.752-.816A4.146,4.146,0,0,0,24.9-7.936,3.912,3.912,0,0,0,21.024-3.9,3.926,3.926,0,0,0,24.9.144,3.955,3.955,0,0,0,27.76-1.12l-.72-.72A2.791,2.791,0,0,1,24.912-.912ZM34.8,0h1.168V-5.056a2.722,2.722,0,0,0-2.816-2.88,2.813,2.813,0,0,0-2.5,1.408V-11.44l-1.168.24V0h1.168V-5.76A2.32,2.32,0,0,1,32.7-6.96a2.023,2.023,0,0,1,2.1,2.24Zm3.136-3.9A3.907,3.907,0,0,0,41.808.144,4.5,4.5,0,0,0,44.736-.9L44-1.7a3.191,3.191,0,0,1-2.144.8,2.81,2.81,0,0,1-2.768-2.768h6.128V-4a3.7,3.7,0,0,0-3.584-3.936A3.812,3.812,0,0,0,37.936-3.9Zm3.68-3.008A2.572,2.572,0,0,1,44.048-4.48H39.12A2.581,2.581,0,0,1,41.616-6.912Zm9.088,6A2.817,2.817,0,0,1,47.984-3.9,2.832,2.832,0,0,1,50.7-6.88a2.983,2.983,0,0,1,2.144.976L53.6-6.72a4.146,4.146,0,0,0-2.912-1.216A3.912,3.912,0,0,0,46.816-3.9,3.926,3.926,0,0,0,50.688.144,3.955,3.955,0,0,0,53.552-1.12l-.72-.72A2.791,2.791,0,0,1,50.7-.912ZM55.28,0h1.168V-3.728L60.208,0H61.76L57.6-4.1l3.968-3.712H60.16l-3.712,3.52V-11.44l-1.168.24Zm7.04-3.9A3.907,3.907,0,0,0,66.192.144,4.5,4.5,0,0,0,69.12-.9l-.736-.8a3.191,3.191,0,0,1-2.144.8,2.81,2.81,0,0,1-2.768-2.768H69.6V-4a3.7,3.7,0,0,0-3.584-3.936A3.812,3.812,0,0,0,62.32-3.9ZM66-6.912A2.572,2.572,0,0,1,68.432-4.48H63.5A2.581,2.581,0,0,1,66-6.912ZM77.312,0H78.48V-11.44L77.3-11.2v4.368A3.2,3.2,0,0,0,74.88-7.9,3.8,3.8,0,0,0,71.2-3.888a3.78,3.78,0,0,0,3.616,4,3.139,3.139,0,0,0,2.5-1.168ZM72.368-3.9a2.775,2.775,0,0,1,2.72-2.976A2.813,2.813,0,0,1,77.3-5.84v3.888a2.7,2.7,0,0,1-2.208,1.04A2.789,2.789,0,0,1,72.368-3.9Z" transform="translate(66 35)"/><path class="b" d="M38,17H62V41H38Z"/><g class="e" transform="translate(42 21)"><rect class="f" width="16" height="16" rx="2"/><rect class="b" x="0.5" y="0.5" width="15" height="15" rx="1.5"/></g><path class="b" d="M0,0H298V55H0Z"/></svg>