<svg xmlns="http://www.w3.org/2000/svg" width="360" height="655" viewBox="0 0 360 655"><defs><style>.a,.d,.g,.i{fill:#fff;}.a{stroke:#d2d2d2;}.b{fill:#06c;}.c,.f,.m{fill:none;}.c{stroke:#06c;}.e{fill:#151515;}.g{stroke:#2c77f6;}.h{fill:#2c77f6;}.i{stroke:#767676;}.j{fill:#c9190b;}.k{fill:#6a6e73;}.l{fill:#1893d2;}.m{stroke:#f0f;opacity:0.25;}.n{fill:#51a549;}.o{fill:#ec861b;}.p{fill:#1b8793;}.q{fill:#9bd917;}.r{fill:#f3d53c;}.s{stroke:none;}</style></defs><g transform="translate(-680 -9311)"><g transform="translate(320 9089)"><g class="a" transform="translate(360 222)"><rect class="s" width="360" height="655" rx="3"/><rect class="f" x="0.5" y="0.5" width="359" height="654" rx="2.5"/></g><path class="b" d="M1.246,0H2.324V-4H5.292A2.835,2.835,0,0,0,8.414-6.9,2.828,2.828,0,0,0,5.292-9.8H1.246Zm3.92-8.848A1.906,1.906,0,0,1,7.336-6.9a1.919,1.919,0,0,1-2.17,1.974H2.324v-3.92ZM10.346,0h1.022V-4.676A1.947,1.947,0,0,1,13.2-6.062a2.554,2.554,0,0,1,.714.126V-6.86a1.94,1.94,0,0,0-.644-.1,2.041,2.041,0,0,0-1.9,1.512V-6.832H10.346Zm5.586-8.512a.726.726,0,0,0,.728-.742.741.741,0,0,0-.728-.728.744.744,0,0,0-.742.728A.729.729,0,0,0,15.932-8.512Zm.5,1.68H15.414V0h1.022ZM20.636,0h.98L24.43-6.832H23.338L21.154-1.274,18.942-6.832H17.836Zm7.308.126A2.933,2.933,0,0,0,30.114-.8V0h1.008V-4.536c0-1.554-.952-2.408-2.646-2.408a5.853,5.853,0,0,0-2.576.658l.378.784A4.511,4.511,0,0,1,28.35-6.09,1.538,1.538,0,0,1,30.114-4.4v.938a3.956,3.956,0,0,0-2.086-.532c-1.54,0-2.562.812-2.562,2.03A2.206,2.206,0,0,0,27.944.126Zm-1.5-2.114c0-.756.686-1.26,1.736-1.26a3.606,3.606,0,0,1,1.932.49v1.316a2.7,2.7,0,0,1-1.96.784C27.132-.658,26.446-1.19,26.446-1.988ZM36.456-.8a2.478,2.478,0,0,1-2.408-2.618,2.48,2.48,0,0,1,2.394-2.6,2.685,2.685,0,0,1,1.932.854l.658-.714A3.727,3.727,0,0,0,36.4-6.944a3.412,3.412,0,0,0-3.374,3.528A3.424,3.424,0,0,0,36.4.126,3.553,3.553,0,0,0,38.99-.98l-.63-.63A2.516,2.516,0,0,1,36.456-.8Zm5.488,1.89c-.252.616-.574.868-1.092.868a2.379,2.379,0,0,1-.56-.056v.91a2.344,2.344,0,0,0,.658.1c1.008,0,1.526-.406,1.96-1.512L46.3-6.832H45.164l-2.2,5.614L40.894-6.832H39.76L42.392-.014ZM50.456-.882A3.9,3.9,0,0,0,53.228.126c1.512,0,2.66-.924,2.66-2.114,0-1.008-.616-1.582-1.988-1.834l-1.148-.21c-.882-.154-1.176-.42-1.176-.98,0-.672.588-1.092,1.484-1.092a3.624,3.624,0,0,1,2.142.728l.5-.714a4.417,4.417,0,0,0-2.6-.854c-1.442,0-2.464.826-2.464,2,0,.994.6,1.554,1.932,1.792l1.12.2c.868.168,1.232.462,1.232,1.022,0,.714-.728,1.232-1.722,1.232A3.563,3.563,0,0,1,51-1.554Zm7.8-.658c0,1.092.616,1.666,1.792,1.666a3.837,3.837,0,0,0,1.19-.182v-.91a2.454,2.454,0,0,1-.966.182c-.714,0-.994-.294-.994-1.022V-5.992h1.96v-.84h-1.96V-8.946l-1.022.238v1.876H56.84v.84h1.414ZM64.988.126A2.933,2.933,0,0,0,67.158-.8V0h1.008V-4.536c0-1.554-.952-2.408-2.646-2.408a5.853,5.853,0,0,0-2.576.658l.378.784a4.511,4.511,0,0,1,2.072-.588A1.538,1.538,0,0,1,67.158-4.4v.938a3.956,3.956,0,0,0-2.086-.532c-1.54,0-2.562.812-2.562,2.03A2.206,2.206,0,0,0,64.988.126Zm-1.5-2.114c0-.756.686-1.26,1.736-1.26a3.607,3.607,0,0,1,1.932.49v1.316a2.7,2.7,0,0,1-1.96.784C64.176-.658,63.49-1.19,63.49-1.988Zm7.49.448c0,1.092.616,1.666,1.792,1.666a3.837,3.837,0,0,0,1.19-.182v-.91A2.454,2.454,0,0,1,73-.784c-.714,0-.994-.294-.994-1.022V-5.992h1.96v-.84H72V-8.946l-1.022.238v1.876H69.566v.84H70.98Zm10.094.756L80.43-1.47a2.792,2.792,0,0,1-1.876.7,2.49,2.49,0,0,1-2.436-2.422H81.48V-3.5a3.228,3.228,0,0,0-3.136-3.444,3.325,3.325,0,0,0-3.22,3.528A3.41,3.41,0,0,0,78.512.126,3.989,3.989,0,0,0,81.074-.784ZM78.33-6.062A2.256,2.256,0,0,1,80.472-3.92H76.146A2.282,2.282,0,0,1,78.33-6.062ZM83.37,0h1.022V-5.082A1.872,1.872,0,0,1,86.058-6.09a1.7,1.7,0,0,1,1.694,1.932V0h1.022V-4.41a2.834,2.834,0,0,0-.056-.6A1.9,1.9,0,0,1,90.426-6.09c1.036,0,1.68.742,1.68,1.932V0h1.022V-4.41A2.325,2.325,0,0,0,90.8-6.944a2.524,2.524,0,0,0-2.282,1.33,2.245,2.245,0,0,0-2.1-1.33,2.34,2.34,0,0,0-2.03,1.176V-6.832H83.37Zm17.612-.784-.644-.686a2.792,2.792,0,0,1-1.876.7,2.49,2.49,0,0,1-2.436-2.422h5.362V-3.5a3.228,3.228,0,0,0-3.136-3.444,3.325,3.325,0,0,0-3.22,3.528A3.41,3.41,0,0,0,98.42.126,3.989,3.989,0,0,0,100.982-.784ZM98.238-6.062A2.256,2.256,0,0,1,100.38-3.92H96.054A2.282,2.282,0,0,1,98.238-6.062ZM103.278,0H104.3V-5.04a2.014,2.014,0,0,1,1.792-1.05,1.771,1.771,0,0,1,1.834,1.96V0h1.022V-4.424a2.378,2.378,0,0,0-2.478-2.52,2.462,2.462,0,0,0-2.17,1.218V-6.832h-1.022Zm8.47-1.54c0,1.092.616,1.666,1.792,1.666a3.837,3.837,0,0,0,1.19-.182v-.91a2.454,2.454,0,0,1-.966.182c-.714,0-.994-.294-.994-1.022V-5.992h1.96v-.84h-1.96V-8.946l-1.022.238v1.876h-1.414v.84h1.414Z" transform="translate(392 841)"/><g transform="translate(-293 -62)"><g class="c" transform="translate(784 821)"><rect class="s" width="73" height="36" rx="3"/><rect class="f" x="0.5" y="0.5" width="72" height="35" rx="2.5"/></g><path class="b" d="M1.424,0H2.656V-4.784H6L8.272,0h1.36L7.248-4.944A3.048,3.048,0,0,0,9.584-7.968C9.584-9.9,8.16-11.2,6.016-11.2H1.424Zm4.5-10.112a2.165,2.165,0,0,1,2.432,2.16A2.162,2.162,0,0,1,5.92-5.808H2.656v-4.3ZM17.6-.9l-.736-.784a3.191,3.191,0,0,1-2.144.8,2.845,2.845,0,0,1-2.784-2.768h6.128V-4A3.689,3.689,0,0,0,14.48-7.936,3.8,3.8,0,0,0,10.8-3.9,3.9,3.9,0,0,0,14.672.144,4.558,4.558,0,0,0,17.6-.9ZM14.464-6.928A2.579,2.579,0,0,1,16.912-4.48H11.968A2.608,2.608,0,0,1,14.464-6.928Zm4.928,5.92A4.451,4.451,0,0,0,22.56.144c1.728,0,3.04-1.056,3.04-2.416,0-1.152-.7-1.808-2.272-2.1l-1.312-.24c-1.008-.176-1.344-.48-1.344-1.12,0-.768.672-1.248,1.7-1.248a4.142,4.142,0,0,1,2.448.832l.576-.816a5.048,5.048,0,0,0-2.976-.976c-1.648,0-2.816.944-2.816,2.288,0,1.136.688,1.776,2.208,2.048l1.28.224c.992.192,1.408.528,1.408,1.168,0,.816-.832,1.408-1.968,1.408a4.072,4.072,0,0,1-2.512-.976ZM33.9-.9l-.736-.784a3.191,3.191,0,0,1-2.144.8A2.845,2.845,0,0,1,28.24-3.648h6.128V-4a3.689,3.689,0,0,0-3.584-3.936A3.8,3.8,0,0,0,27.1-3.9,3.9,3.9,0,0,0,30.976.144,4.558,4.558,0,0,0,33.9-.9ZM30.768-6.928A2.579,2.579,0,0,1,33.216-4.48H28.272A2.608,2.608,0,0,1,30.768-6.928ZM37.056-1.76c0,1.248.7,1.9,2.048,1.9a4.386,4.386,0,0,0,1.36-.208V-1.1a2.8,2.8,0,0,1-1.1.208c-.816,0-1.136-.336-1.136-1.168V-6.848h2.24v-.96h-2.24v-2.416l-1.168.272v2.144H35.44v.96h1.616Z" transform="translate(800 845)"/></g><g transform="translate(-392 -62)"><rect class="b" width="83" height="36" rx="3" transform="translate(784 821)"/><path class="d" d="M.448-1.744A6.443,6.443,0,0,0,5.04.16C7.5.16,9.3-1.28,9.3-3.216c0-1.68-1.024-2.576-3.408-3.008L4.1-6.528c-1.5-.24-2.112-.752-2.112-1.744,0-1.168,1.1-2.032,2.672-2.032A6.331,6.331,0,0,1,8.432-8.96l.64-.96A7.324,7.324,0,0,0,4.64-11.344c-2.272,0-3.84,1.312-3.84,3.2,0,1.5.912,2.352,2.96,2.72l1.808.3c1.824.32,2.5.848,2.5,1.968C8.064-1.856,6.8-.9,5.072-.9A5.216,5.216,0,0,1,1.2-2.64ZM12.3-7.808H11.12v5.04a2.73,2.73,0,0,0,2.832,2.9,2.8,2.8,0,0,0,2.48-1.392V0H17.6V-7.808H16.432v5.776A2.318,2.318,0,0,1,14.384-.848,2.017,2.017,0,0,1,12.3-3.1ZM27.28-3.9a3.768,3.768,0,0,0-3.6-4,3.146,3.146,0,0,0-2.512,1.168V-11.68L20-11.44V0h1.152V-1.024A3.161,3.161,0,0,0,23.616.112,3.8,3.8,0,0,0,27.28-3.9ZM23.392-6.88a2.8,2.8,0,0,1,2.736,2.992A2.8,2.8,0,0,1,23.392-.9a2.744,2.744,0,0,1-2.224-1.088V-5.808A2.666,2.666,0,0,1,23.392-6.88ZM29.328,0H30.5V-5.808A2.14,2.14,0,0,1,32.4-6.96a1.94,1.94,0,0,1,1.936,2.208V0H35.5V-5.04a3.238,3.238,0,0,0-.064-.688A2.173,2.173,0,0,1,37.392-6.96c1.184,0,1.92.848,1.92,2.208V0H40.48V-5.04a2.657,2.657,0,0,0-2.656-2.9,2.885,2.885,0,0,0-2.608,1.52,2.566,2.566,0,0,0-2.4-1.52A2.674,2.674,0,0,0,30.5-6.592V-7.808H29.328ZM43.44-9.728a.83.83,0,0,0,.832-.848.847.847,0,0,0-.832-.832.85.85,0,0,0-.848.832A.834.834,0,0,0,43.44-9.728Zm.576,1.92H42.848V0h1.168ZM47.344-1.76c0,1.248.7,1.9,2.048,1.9a4.386,4.386,0,0,0,1.36-.208V-1.1a2.8,2.8,0,0,1-1.1.208c-.816,0-1.136-.336-1.136-1.168V-6.848h2.24v-.96h-2.24v-2.416l-1.168.272v2.144H45.728v.96h1.616Z" transform="translate(800 845)"/></g><g transform="translate(123 22)"><path class="e" d="M1.424,0H5.136a5.413,5.413,0,0,0,5.6-5.6,5.422,5.422,0,0,0-5.6-5.6H1.424ZM5.216-10.1A4.305,4.305,0,0,1,9.488-5.6,4.305,4.305,0,0,1,5.216-1.1H2.656V-10.1ZM12.5-3.9A3.867,3.867,0,0,0,16.288.16,3.86,3.86,0,0,0,20.1-3.9a3.832,3.832,0,0,0-3.808-4.032A3.829,3.829,0,0,0,12.5-3.9ZM16.288-.88a2.753,2.753,0,0,1-2.64-3.008,2.777,2.777,0,0,1,2.64-3.024,2.789,2.789,0,0,1,2.656,3.024A2.774,2.774,0,0,1,16.288-.88ZM22.144,0h1.168V-5.76a2.3,2.3,0,0,1,2.048-1.2,2.024,2.024,0,0,1,2.1,2.24V0h1.168V-5.056a2.717,2.717,0,0,0-2.832-2.88,2.813,2.813,0,0,0-2.48,1.392V-7.808H22.144Zm9.072-12-.96,3.7h.912l1.3-3.7ZM34.784-1.76c0,1.248.7,1.9,2.048,1.9a4.386,4.386,0,0,0,1.36-.208V-1.1a2.8,2.8,0,0,1-1.1.208c-.816,0-1.136-.336-1.136-1.168V-6.848h2.24v-.96h-2.24v-2.416l-1.168.272v2.144H33.168v.96h1.616Zm8.1.752A4.451,4.451,0,0,0,46.048.144c1.728,0,3.04-1.056,3.04-2.416,0-1.152-.7-1.808-2.272-2.1L45.5-4.608c-1.008-.176-1.344-.48-1.344-1.12,0-.768.672-1.248,1.7-1.248a4.142,4.142,0,0,1,2.448.832l.576-.816A5.048,5.048,0,0,0,45.9-7.936c-1.648,0-2.816.944-2.816,2.288,0,1.136.688,1.776,2.208,2.048l1.28.224c.992.192,1.408.528,1.408,1.168,0,.816-.832,1.408-1.968,1.408A4.072,4.072,0,0,1,43.5-1.776ZM52-7.808H50.816v5.04a2.73,2.73,0,0,0,2.832,2.9,2.8,2.8,0,0,0,2.48-1.392V0H57.3V-7.808H56.128v5.776A2.318,2.318,0,0,1,54.08-.848,2.017,2.017,0,0,1,52-3.1ZM66.976-3.9a3.768,3.768,0,0,0-3.6-4,3.146,3.146,0,0,0-2.512,1.168V-11.68l-1.168.24V0h1.152V-1.024A3.161,3.161,0,0,0,63.312.112,3.8,3.8,0,0,0,66.976-3.9ZM63.088-6.88a2.8,2.8,0,0,1,2.736,2.992A2.8,2.8,0,0,1,63.088-.9a2.744,2.744,0,0,1-2.224-1.088V-5.808A2.666,2.666,0,0,1,63.088-6.88Zm5.184,5.872A4.451,4.451,0,0,0,71.44.144c1.728,0,3.04-1.056,3.04-2.416,0-1.152-.7-1.808-2.272-2.1L70.9-4.608c-1.008-.176-1.344-.48-1.344-1.12,0-.768.672-1.248,1.7-1.248a4.142,4.142,0,0,1,2.448.832l.576-.816A5.048,5.048,0,0,0,71.3-7.936c-1.648,0-2.816.944-2.816,2.288,0,1.136.688,1.776,2.208,2.048l1.28.224c.992.192,1.408.528,1.408,1.168,0,.816-.832,1.408-1.968,1.408A4.072,4.072,0,0,1,68.9-1.776Zm11.632.1A2.832,2.832,0,0,1,77.152-3.9,2.835,2.835,0,0,1,79.888-6.88,3.069,3.069,0,0,1,82.1-5.9l.752-.816A4.259,4.259,0,0,0,79.84-7.936,3.9,3.9,0,0,0,75.984-3.9,3.913,3.913,0,0,0,79.84.144,4.061,4.061,0,0,0,82.8-1.12l-.72-.72A2.876,2.876,0,0,1,79.9-.912ZM84.48,0h1.168V-5.344a2.226,2.226,0,0,1,2.1-1.584,2.919,2.919,0,0,1,.816.144V-7.84a2.217,2.217,0,0,0-.736-.112,2.332,2.332,0,0,0-2.176,1.728V-7.808H84.48ZM90.7-9.728a.83.83,0,0,0,.832-.848.847.847,0,0,0-.832-.832.85.85,0,0,0-.848.832A.834.834,0,0,0,90.7-9.728Zm.576,1.92H90.112V0H91.28Zm9.68,3.9a3.768,3.768,0,0,0-3.6-4,3.146,3.146,0,0,0-2.512,1.168V-11.68l-1.168.24V0h1.152V-1.024A3.161,3.161,0,0,0,97.3.112,3.8,3.8,0,0,0,100.96-3.9ZM97.072-6.88a2.8,2.8,0,0,1,2.736,2.992A2.8,2.8,0,0,1,97.072-.9a2.744,2.744,0,0,1-2.224-1.088V-5.808A2.666,2.666,0,0,1,97.072-6.88ZM109.472-.9l-.736-.784a3.191,3.191,0,0,1-2.144.8,2.845,2.845,0,0,1-2.784-2.768h6.128V-4a3.689,3.689,0,0,0-3.584-3.936,3.8,3.8,0,0,0-3.68,4.032A3.9,3.9,0,0,0,106.544.144,4.558,4.558,0,0,0,109.472-.9Zm-3.136-6.032a2.579,2.579,0,0,1,2.448,2.448H103.84A2.608,2.608,0,0,1,106.336-6.928Z" transform="translate(420 699)"/><g transform="translate(-94 -66)"><rect class="f" width="24" height="24" transform="translate(486 747)"/><g class="g" transform="translate(490 751)"><circle class="s" cx="8" cy="8" r="8"/><circle class="f" cx="8" cy="8" r="7.5"/></g><circle class="h" cx="5" cy="5" r="5" transform="translate(493 754)"/></g></g><g transform="translate(0 22)"><path class="e" d="M.448-1.744A6.443,6.443,0,0,0,5.04.16C7.5.16,9.3-1.28,9.3-3.216c0-1.68-1.024-2.576-3.408-3.008L4.1-6.528c-1.5-.24-2.112-.752-2.112-1.744,0-1.168,1.1-2.032,2.672-2.032A6.331,6.331,0,0,1,8.432-8.96l.64-.96A7.324,7.324,0,0,0,4.64-11.344c-2.272,0-3.84,1.312-3.84,3.2,0,1.5.912,2.352,2.96,2.72l1.808.3c1.824.32,2.5.848,2.5,1.968C8.064-1.856,6.8-.9,5.072-.9A5.216,5.216,0,0,1,1.2-2.64ZM12.3-7.808H11.12v5.04a2.73,2.73,0,0,0,2.832,2.9,2.8,2.8,0,0,0,2.48-1.392V0H17.6V-7.808H16.432v5.776A2.318,2.318,0,0,1,14.384-.848,2.017,2.017,0,0,1,12.3-3.1ZM27.28-3.9a3.768,3.768,0,0,0-3.6-4,3.146,3.146,0,0,0-2.512,1.168V-11.68L20-11.44V0h1.152V-1.024A3.161,3.161,0,0,0,23.616.112,3.8,3.8,0,0,0,27.28-3.9ZM23.392-6.88a2.8,2.8,0,0,1,2.736,2.992A2.8,2.8,0,0,1,23.392-.9a2.744,2.744,0,0,1-2.224-1.088V-5.808A2.666,2.666,0,0,1,23.392-6.88Zm5.184,5.872A4.451,4.451,0,0,0,31.744.144c1.728,0,3.04-1.056,3.04-2.416,0-1.152-.7-1.808-2.272-2.1L31.2-4.608c-1.008-.176-1.344-.48-1.344-1.12,0-.768.672-1.248,1.7-1.248A4.142,4.142,0,0,1,34-6.144l.576-.816A5.048,5.048,0,0,0,31.6-7.936c-1.648,0-2.816.944-2.816,2.288,0,1.136.688,1.776,2.208,2.048l1.28.224c.992.192,1.408.528,1.408,1.168,0,.816-.832,1.408-1.968,1.408A4.072,4.072,0,0,1,29.2-1.776Zm11.632.1A2.832,2.832,0,0,1,37.456-3.9,2.835,2.835,0,0,1,40.192-6.88,3.069,3.069,0,0,1,42.4-5.9l.752-.816a4.259,4.259,0,0,0-3.008-1.216A3.9,3.9,0,0,0,36.288-3.9,3.913,3.913,0,0,0,40.144.144,4.061,4.061,0,0,0,43.1-1.12l-.72-.72A2.876,2.876,0,0,1,40.208-.912ZM44.784,0h1.168V-5.344a2.226,2.226,0,0,1,2.1-1.584,2.919,2.919,0,0,1,.816.144V-7.84a2.217,2.217,0,0,0-.736-.112,2.332,2.332,0,0,0-2.176,1.728V-7.808H44.784Zm6.224-9.728a.83.83,0,0,0,.832-.848.847.847,0,0,0-.832-.832.85.85,0,0,0-.848.832A.834.834,0,0,0,51.008-9.728Zm.576,1.92H50.416V0h1.168Zm9.68,3.9a3.768,3.768,0,0,0-3.6-4,3.146,3.146,0,0,0-2.512,1.168V-11.68l-1.168.24V0h1.152V-1.024A3.161,3.161,0,0,0,57.6.112,3.8,3.8,0,0,0,61.264-3.9ZM57.376-6.88a2.8,2.8,0,0,1,2.736,2.992A2.8,2.8,0,0,1,57.376-.9a2.744,2.744,0,0,1-2.224-1.088V-5.808A2.666,2.666,0,0,1,57.376-6.88ZM69.776-.9,69.04-1.68a3.191,3.191,0,0,1-2.144.8,2.845,2.845,0,0,1-2.784-2.768H70.24V-4a3.689,3.689,0,0,0-3.584-3.936A3.8,3.8,0,0,0,62.976-3.9,3.9,3.9,0,0,0,66.848.144,4.558,4.558,0,0,0,69.776-.9ZM66.64-6.928A2.579,2.579,0,0,1,69.088-4.48H64.144A2.608,2.608,0,0,1,66.64-6.928Z" transform="translate(420 699)"/><g transform="translate(-205 -36)"><rect class="f" width="24" height="24" transform="translate(597 717)"/><g class="i" transform="translate(601 721)"><circle class="s" cx="8" cy="8" r="8"/><circle class="f" cx="8" cy="8" r="7.5"/></g></g></g><path class="j" d="M5.082-5.684l.42-.63L3.836-7.336l1.61-1.008-.42-.616-1.5.98L3.542-9.8H2.814l.014,1.834L1.316-8.96l-.392.616,1.6,1.008L.868-6.314l.406.63L2.842-6.706,2.814-4.774h.728L3.514-6.706Z" transform="translate(462 691)"/><path class="e" d="M.336-1.442A6.172,6.172,0,0,0,4.452.14C6.79.14,8.386-1.134,8.386-2.926c0-1.484-.924-2.352-2.9-2.688L3.752-5.922C2.674-6.09,2.24-6.454,2.24-7.154c0-.8.77-1.386,1.946-1.386A5.084,5.084,0,0,1,7.322-7.406l.854-1.26A6.544,6.544,0,0,0,4.242-9.94C2.044-9.94.63-8.764.63-7c0,1.344.826,2.184,2.52,2.492L4.956-4.2c1.3.238,1.778.6,1.778,1.4,0,.9-.9,1.554-2.2,1.554a4.9,4.9,0,0,1-3.29-1.428ZM11.578-7.014H10v4.62A2.353,2.353,0,0,0,12.418.112a2.565,2.565,0,0,0,2.24-1.274V0H16.24V-7.014H14.658V-2.03a1.769,1.769,0,0,1-1.54.868,1.511,1.511,0,0,1-1.54-1.68ZM25.242-3.5a3.366,3.366,0,0,0-3.178-3.57,2.73,2.73,0,0,0-2.156.994v-4.2l-1.582.266V0H19.88V-.91a2.609,2.609,0,0,0,2.072.98A3.4,3.4,0,0,0,25.242-3.5ZM21.588-5.74A2.121,2.121,0,0,1,23.674-3.5a2.1,2.1,0,0,1-2.086,2.24,2.15,2.15,0,0,1-1.68-.77V-4.956A2.059,2.059,0,0,1,21.588-5.74Zm4.8,4.928A4.706,4.706,0,0,0,29.414.14c1.624,0,2.856-.994,2.856-2.282,0-1.05-.672-1.694-2.072-1.96l-1.232-.224c-.742-.126-.994-.322-.994-.77,0-.518.476-.826,1.2-.826a3.834,3.834,0,0,1,2.114.672l.742-1.036a4.936,4.936,0,0,0-2.758-.84c-1.638,0-2.716.854-2.716,2.17,0,1.05.672,1.68,2.03,1.932l1.246.21c.672.126.966.364.966.8,0,.56-.574.938-1.414.938a4.042,4.042,0,0,1-2.254-.8ZM37.254-1.26A2.107,2.107,0,0,1,35.2-3.5a2.109,2.109,0,0,1,2.016-2.24,2.318,2.318,0,0,1,1.764.826l.98-1.022a3.78,3.78,0,0,0-2.8-1.176A3.527,3.527,0,0,0,33.614-3.5,3.551,3.551,0,0,0,37.156.14,3.648,3.648,0,0,0,39.9-1.078l-.952-.952A2.155,2.155,0,0,1,37.254-1.26ZM41.4,0H42.98V-4.62a1.925,1.925,0,0,1,1.75-1.162,2.231,2.231,0,0,1,.868.168V-7a1.875,1.875,0,0,0-.686-.14A2.08,2.08,0,0,0,42.98-5.488V-7.014H41.4Zm6.426-8.442a.966.966,0,0,0,.994-.966,1,1,0,0,0-.994-.98.992.992,0,0,0-.98.98A.962.962,0,0,0,47.824-8.442Zm.8,1.428H47.04V0h1.582Zm9,3.514a3.366,3.366,0,0,0-3.178-3.57,2.73,2.73,0,0,0-2.156.994v-4.2l-1.582.266V0h1.554V-.91a2.609,2.609,0,0,0,2.072.98A3.4,3.4,0,0,0,57.624-3.5ZM53.97-5.74A2.121,2.121,0,0,1,56.056-3.5,2.1,2.1,0,0,1,53.97-1.26a2.15,2.15,0,0,1-1.68-.77V-4.956A2.059,2.059,0,0,1,53.97-5.74ZM65.478-.9l-1.036-.966a2.279,2.279,0,0,1-1.666.658,2.142,2.142,0,0,1-2.1-1.918h5.18v-.392a3.367,3.367,0,0,0-3.318-3.612A3.454,3.454,0,0,0,59.122-3.5,3.565,3.565,0,0,0,62.692.14,4.056,4.056,0,0,0,65.478-.9ZM62.524-5.838a1.92,1.92,0,0,1,1.834,1.75H60.7A1.884,1.884,0,0,1,62.524-5.838Z" transform="translate(392 691)"/><path class="j" d="M.392-8.848H3.78V0H4.858V-8.848H8.232V-9.8H.392ZM9.828,0H10.85V-5.04a2.014,2.014,0,0,1,1.792-1.05,1.771,1.771,0,0,1,1.834,1.96V0H15.5V-4.424a2.378,2.378,0,0,0-2.478-2.52,2.462,2.462,0,0,0-2.17,1.218V-10.22l-1.022.21Zm8.386-8.512a.726.726,0,0,0,.728-.742.741.741,0,0,0-.728-.728.744.744,0,0,0-.742.728A.729.729,0,0,0,18.214-8.512Zm.5,1.68H17.7V0h1.022ZM20.3-.882A3.9,3.9,0,0,0,23.072.126c1.512,0,2.66-.924,2.66-2.114,0-1.008-.616-1.582-1.988-1.834L22.6-4.032c-.882-.154-1.176-.42-1.176-.98,0-.672.588-1.092,1.484-1.092a3.624,3.624,0,0,1,2.142.728l.5-.714a4.417,4.417,0,0,0-2.6-.854c-1.442,0-2.464.826-2.464,2,0,.994.6,1.554,1.932,1.792l1.12.2c.868.168,1.232.462,1.232,1.022,0,.714-.728,1.232-1.722,1.232a3.563,3.563,0,0,1-2.2-.854Zm9.87-5.95v.84H31.7V0h1.022V-5.992h1.946v-.84H32.718V-8.316c0-.812.336-1.19,1.12-1.19a2.818,2.818,0,0,1,.826.126V-10.3a2.887,2.887,0,0,0-.924-.126A1.875,1.875,0,0,0,31.7-8.33v1.5Zm6.5-1.68a.726.726,0,0,0,.728-.742.741.741,0,0,0-.728-.728.744.744,0,0,0-.742.728A.729.729,0,0,0,36.666-8.512Zm.5,1.68H36.148V0H37.17ZM45.052-.784l-.644-.686a2.792,2.792,0,0,1-1.876.7A2.49,2.49,0,0,1,40.1-3.192h5.362V-3.5a3.228,3.228,0,0,0-3.136-3.444A3.325,3.325,0,0,0,39.1-3.416,3.41,3.41,0,0,0,42.49.126,3.989,3.989,0,0,0,45.052-.784ZM42.308-6.062A2.256,2.256,0,0,1,44.45-3.92H40.124A2.282,2.282,0,0,1,42.308-6.062ZM48.37-10.22l-1.022.21V0H48.37ZM55.636,0h1.022V-10.22l-1.022.21v4.046a2.783,2.783,0,0,0-2.128-.952A3.327,3.327,0,0,0,50.3-3.4,3.3,3.3,0,0,0,53.452.1,2.692,2.692,0,0,0,55.636-.91ZM51.31-3.416A2.438,2.438,0,0,1,53.7-6.02a2.45,2.45,0,0,1,1.932.924v3.388A2.34,2.34,0,0,1,53.7-.8,2.451,2.451,0,0,1,51.31-3.416ZM65.422-.8a2.478,2.478,0,0,1-2.408-2.618,2.48,2.48,0,0,1,2.394-2.6,2.685,2.685,0,0,1,1.932.854L68-5.88a3.727,3.727,0,0,0-2.632-1.064,3.412,3.412,0,0,0-3.374,3.528A3.424,3.424,0,0,0,65.366.126,3.553,3.553,0,0,0,67.956-.98l-.63-.63A2.516,2.516,0,0,1,65.422-.8ZM71.68.126A2.933,2.933,0,0,0,73.85-.8V0h1.008V-4.536c0-1.554-.952-2.408-2.646-2.408a5.853,5.853,0,0,0-2.576.658l.378.784a4.511,4.511,0,0,1,2.072-.588A1.538,1.538,0,0,1,73.85-4.4v.938a3.956,3.956,0,0,0-2.086-.532c-1.54,0-2.562.812-2.562,2.03A2.206,2.206,0,0,0,71.68.126Zm-1.5-2.114c0-.756.686-1.26,1.736-1.26a3.606,3.606,0,0,1,1.932.49v1.316a2.7,2.7,0,0,1-1.96.784C70.868-.658,70.182-1.19,70.182-1.988ZM77.07,0h1.022V-5.04a2.014,2.014,0,0,1,1.792-1.05,1.771,1.771,0,0,1,1.834,1.96V0H82.74V-4.424a2.378,2.378,0,0,0-2.478-2.52,2.462,2.462,0,0,0-2.17,1.218V-6.832H77.07Zm7.868,0H85.96V-5.04a2.014,2.014,0,0,1,1.792-1.05,1.771,1.771,0,0,1,1.834,1.96V0h1.022V-4.424a2.378,2.378,0,0,0-2.478-2.52,2.462,2.462,0,0,0-2.17,1.218V-6.832H84.938ZM92.5-3.416A3.384,3.384,0,0,0,95.816.14a3.378,3.378,0,0,0,3.332-3.556,3.353,3.353,0,0,0-3.332-3.528A3.351,3.351,0,0,0,92.5-3.416ZM95.816-.77A2.409,2.409,0,0,1,93.506-3.4a2.43,2.43,0,0,1,2.31-2.646A2.44,2.44,0,0,1,98.14-3.4,2.427,2.427,0,0,1,95.816-.77Zm5.642-.77c0,1.092.616,1.666,1.792,1.666a3.837,3.837,0,0,0,1.19-.182v-.91a2.454,2.454,0,0,1-.966.182c-.714,0-.994-.294-.994-1.022V-5.992h1.96v-.84h-1.96V-8.946l-1.022.238v1.876h-1.414v.84h1.414ZM115.85-3.416a3.3,3.3,0,0,0-3.15-3.5,2.753,2.753,0,0,0-2.2,1.022V-10.22l-1.022.21V0h1.008V-.9A2.766,2.766,0,0,0,112.644.1,3.327,3.327,0,0,0,115.85-3.416Zm-3.4-2.6A2.451,2.451,0,0,1,114.842-3.4a2.451,2.451,0,0,1-2.394,2.618,2.4,2.4,0,0,1-1.946-.952V-5.082A2.333,2.333,0,0,1,112.448-6.02Zm10.99,5.236-.644-.686a2.792,2.792,0,0,1-1.876.7,2.49,2.49,0,0,1-2.436-2.422h5.362V-3.5a3.228,3.228,0,0,0-3.136-3.444,3.325,3.325,0,0,0-3.22,3.528A3.41,3.41,0,0,0,120.876.126,3.989,3.989,0,0,0,123.438-.784Zm-2.744-5.278a2.256,2.256,0,0,1,2.142,2.142H118.51A2.282,2.282,0,0,1,120.694-6.062Zm9.464-4.158-1.022.21V0h1.022ZM138.04-.784,137.4-1.47a2.792,2.792,0,0,1-1.876.7,2.49,2.49,0,0,1-2.436-2.422h5.362V-3.5a3.228,3.228,0,0,0-3.136-3.444,3.325,3.325,0,0,0-3.22,3.528A3.41,3.41,0,0,0,135.478.126,3.989,3.989,0,0,0,138.04-.784ZM135.3-6.062a2.256,2.256,0,0,1,2.142,2.142h-4.326A2.282,2.282,0,0,1,135.3-6.062Zm4.172-.77v.84h1.526V0h1.022V-5.992h1.946v-.84h-1.946V-8.316c0-.812.336-1.19,1.12-1.19a2.818,2.818,0,0,1,.826.126V-10.3a2.887,2.887,0,0,0-.924-.126,1.875,1.875,0,0,0-2.044,2.1v1.5ZM146.4-1.54c0,1.092.616,1.666,1.792,1.666a3.837,3.837,0,0,0,1.19-.182v-.91a2.454,2.454,0,0,1-.966.182c-.714,0-.994-.294-.994-1.022V-5.992h1.96v-.84h-1.96V-8.946l-1.022.238v1.876h-1.414v.84H146.4ZM160.79-3.416a3.3,3.3,0,0,0-3.15-3.5,2.753,2.753,0,0,0-2.2,1.022V-10.22l-1.022.21V0h1.008V-.9A2.766,2.766,0,0,0,157.584.1,3.327,3.327,0,0,0,160.79-3.416Zm-3.4-2.6A2.451,2.451,0,0,1,159.782-3.4a2.451,2.451,0,0,1-2.394,2.618,2.4,2.4,0,0,1-1.946-.952V-5.082A2.333,2.333,0,0,1,157.388-6.02Zm6.356-4.2-1.022.21V0h1.022ZM168.1.126a2.933,2.933,0,0,0,2.17-.924V0h1.008V-4.536c0-1.554-.952-2.408-2.646-2.408a5.853,5.853,0,0,0-2.576.658l.378.784A4.511,4.511,0,0,1,168.5-6.09,1.538,1.538,0,0,1,170.268-4.4v.938a3.956,3.956,0,0,0-2.086-.532c-1.54,0-2.562.812-2.562,2.03A2.206,2.206,0,0,0,168.1.126Zm-1.5-2.114c0-.756.686-1.26,1.736-1.26a3.607,3.607,0,0,1,1.932.49v1.316a2.7,2.7,0,0,1-1.96.784C167.286-.658,166.6-1.19,166.6-1.988ZM173.488,0h1.022V-5.04A2.014,2.014,0,0,1,176.3-6.09a1.771,1.771,0,0,1,1.834,1.96V0h1.022V-4.424a2.378,2.378,0,0,0-2.478-2.52,2.462,2.462,0,0,0-2.17,1.218V-6.832h-1.022Zm7.868,0h1.022V-3.262L185.668,0h1.344l-3.626-3.584,3.472-3.248h-1.232l-3.248,3.066V-10.22l-1.022.21Z" transform="translate(392 641)"/><g transform="translate(0 176)"><g class="a" transform="translate(392 411)"><rect class="s" width="296" height="36"/><rect class="f" x="0.5" y="0.5" width="295" height="35"/></g><rect class="j" width="296" height="2" transform="translate(392 445)"/><g transform="translate(411 411)"><rect class="f" width="24" height="24" transform="translate(245 6)"/><path class="j" d="M24,16a8,8,0,1,1-8-8A8,8,0,0,1,24,16Zm-8,1.613A1.484,1.484,0,1,0,17.484,19.1,1.484,1.484,0,0,0,16,17.613Zm-1.409-5.334.239,4.387a.387.387,0,0,0,.387.366h1.566a.387.387,0,0,0,.387-.366l.239-4.387a.387.387,0,0,0-.387-.408H14.978a.387.387,0,0,0-.386.408Z" transform="translate(241 2)"/></g><path class="k" d="M1.424,0H9.136V-1.072H2.656V-5.12H7.1V-6.192H2.656v-3.936H9.072V-11.2H1.424ZM11.1,0h1.168V-5.808a2.14,2.14,0,0,1,1.9-1.152,1.94,1.94,0,0,1,1.936,2.208V0H17.28V-5.04a3.238,3.238,0,0,0-.064-.688A2.173,2.173,0,0,1,19.168-6.96c1.184,0,1.92.848,1.92,2.208V0h1.168V-5.04a2.657,2.657,0,0,0-2.656-2.9,2.885,2.885,0,0,0-2.608,1.52,2.566,2.566,0,0,0-2.4-1.52,2.674,2.674,0,0,0-2.32,1.344V-7.808H11.1ZM27.04.144A3.352,3.352,0,0,0,29.52-.912V0h1.152V-5.184c0-1.776-1.088-2.752-3.024-2.752a6.689,6.689,0,0,0-2.944.752l.432.9A5.156,5.156,0,0,1,27.5-6.96,1.758,1.758,0,0,1,29.52-5.024v1.072a4.521,4.521,0,0,0-2.384-.608c-1.76,0-2.928.928-2.928,2.32C24.208-.832,25.376.144,27.04.144ZM25.328-2.272c0-.864.784-1.44,1.984-1.44a4.122,4.122,0,0,1,2.208.56v1.5a3.091,3.091,0,0,1-2.24.9C26.112-.752,25.328-1.36,25.328-2.272Zm8.3-7.456a.83.83,0,0,0,.832-.848.847.847,0,0,0-.832-.832.85.85,0,0,0-.848.832A.834.834,0,0,0,33.632-9.728Zm.576,1.92H33.04V0h1.168Zm3.568-3.872-1.168.24V0h1.168ZM46.32.144A3.352,3.352,0,0,0,48.8-.912V0h1.152V-5.184c0-1.776-1.088-2.752-3.024-2.752a6.689,6.689,0,0,0-2.944.752l.432.9a5.156,5.156,0,0,1,2.368-.672A1.758,1.758,0,0,1,48.8-5.024v1.072a4.521,4.521,0,0,0-2.384-.608c-1.76,0-2.928.928-2.928,2.32C43.488-.832,44.656.144,46.32.144ZM44.608-2.272c0-.864.784-1.44,1.984-1.44a4.122,4.122,0,0,1,2.208.56v1.5a3.091,3.091,0,0,1-2.24.9C45.392-.752,44.608-1.36,44.608-2.272ZM58.064,0h1.168V-11.68l-1.168.24v4.624A3.18,3.18,0,0,0,55.632-7.9a3.8,3.8,0,0,0-3.664,4.016,3.768,3.768,0,0,0,3.6,4,3.077,3.077,0,0,0,2.5-1.152ZM53.12-3.9A2.787,2.787,0,0,1,55.856-6.88a2.8,2.8,0,0,1,2.208,1.056v3.872a2.674,2.674,0,0,1-2.208,1.04A2.8,2.8,0,0,1,53.12-3.9ZM67.376,0h1.168V-11.68l-1.168.24v4.624A3.18,3.18,0,0,0,64.944-7.9,3.8,3.8,0,0,0,61.28-3.888a3.768,3.768,0,0,0,3.6,4,3.077,3.077,0,0,0,2.5-1.152ZM62.432-3.9A2.787,2.787,0,0,1,65.168-6.88a2.8,2.8,0,0,1,2.208,1.056v3.872a2.674,2.674,0,0,1-2.208,1.04A2.8,2.8,0,0,1,62.432-3.9ZM70.944,0h1.168V-5.344a2.226,2.226,0,0,1,2.1-1.584,2.919,2.919,0,0,1,.816.144V-7.84a2.217,2.217,0,0,0-.736-.112,2.332,2.332,0,0,0-2.176,1.728V-7.808H70.944ZM82.528-.9l-.736-.784a3.191,3.191,0,0,1-2.144.8,2.845,2.845,0,0,1-2.784-2.768h6.128V-4a3.689,3.689,0,0,0-3.584-3.936A3.8,3.8,0,0,0,75.728-3.9,3.9,3.9,0,0,0,79.6.144,4.558,4.558,0,0,0,82.528-.9ZM79.392-6.928A2.579,2.579,0,0,1,81.84-4.48H76.9A2.608,2.608,0,0,1,79.392-6.928Zm4.928,5.92A4.451,4.451,0,0,0,87.488.144c1.728,0,3.04-1.056,3.04-2.416,0-1.152-.7-1.808-2.272-2.1l-1.312-.24c-1.008-.176-1.344-.48-1.344-1.12,0-.768.672-1.248,1.7-1.248a4.142,4.142,0,0,1,2.448.832l.576-.816a5.048,5.048,0,0,0-2.976-.976c-1.648,0-2.816.944-2.816,2.288,0,1.136.688,1.776,2.208,2.048l1.28.224c.992.192,1.408.528,1.408,1.168,0,.816-.832,1.408-1.968,1.408a4.072,4.072,0,0,1-2.512-.976Zm7.36,0A4.451,4.451,0,0,0,94.848.144c1.728,0,3.04-1.056,3.04-2.416,0-1.152-.7-1.808-2.272-2.1L94.3-4.608c-1.008-.176-1.344-.48-1.344-1.12,0-.768.672-1.248,1.7-1.248a4.142,4.142,0,0,1,2.448.832l.576-.816A5.048,5.048,0,0,0,94.7-7.936c-1.648,0-2.816.944-2.816,2.288,0,1.136.688,1.776,2.208,2.048l1.28.224c.992.192,1.408.528,1.408,1.168,0,.816-.832,1.408-1.968,1.408A4.072,4.072,0,0,1,92.3-1.776Z" transform="translate(400 435)"/></g><path class="j" d="M5.082-5.684l.42-.63L3.836-7.336l1.61-1.008-.42-.616-1.5.98L3.542-9.8H2.814l.014,1.834L1.316-8.96l-.392.616,1.6,1.008L.868-6.314l.406.63L2.842-6.706,2.814-4.774h.728L3.514-6.706Z" transform="translate(488 575)"/><path class="e" d="M1.176,0h7.07V-1.428H2.856V-4.242H6.58v-1.4H2.856v-2.73H8.19V-9.8H1.176Zm8.918,0h1.582V-5.054a1.628,1.628,0,0,1,1.386-.8,1.419,1.419,0,0,1,1.414,1.61V0h1.582V-4.578c0-.154-.014-.294-.028-.448a1.671,1.671,0,0,1,1.414-.826,1.419,1.419,0,0,1,1.414,1.61V0H20.44V-4.578a2.324,2.324,0,0,0-2.3-2.548A2.587,2.587,0,0,0,15.82-5.768a2.2,2.2,0,0,0-2.058-1.358,2.393,2.393,0,0,0-2.086,1.232v-1.12H10.094ZM24.626.112a2.928,2.928,0,0,0,2.086-.826V0H28.28V-4.578c0-1.624-1.05-2.548-2.87-2.548a6.734,6.734,0,0,0-2.912.714l.56,1.148A4.853,4.853,0,0,1,25.1-5.81c1.078,0,1.61.476,1.61,1.4v.77a4.335,4.335,0,0,0-1.89-.434c-1.652,0-2.674.8-2.674,2.058A2.211,2.211,0,0,0,24.626.112Zm-.994-2.156c0-.616.56-1.008,1.456-1.008a3.63,3.63,0,0,1,1.624.336v1.148a2.5,2.5,0,0,1-1.652.574C24.192-.994,23.632-1.4,23.632-2.044Zm7.49-6.4a.966.966,0,0,0,.994-.966,1,1,0,0,0-.994-.98.992.992,0,0,0-.98.98A.962.962,0,0,0,31.122-8.442Zm.8,1.428H30.338V0H31.92Zm3.668-3.262-1.582.266V0h1.582ZM43.092.112a2.928,2.928,0,0,0,2.086-.826V0h1.568V-4.578c0-1.624-1.05-2.548-2.87-2.548a6.734,6.734,0,0,0-2.912.714l.56,1.148a4.853,4.853,0,0,1,2.044-.546c1.078,0,1.61.476,1.61,1.4v.77a4.335,4.335,0,0,0-1.89-.434c-1.652,0-2.674.8-2.674,2.058A2.211,2.211,0,0,0,43.092.112ZM42.1-2.044c0-.616.56-1.008,1.456-1.008a3.63,3.63,0,0,1,1.624.336v1.148a2.5,2.5,0,0,1-1.652.574C42.658-.994,42.1-1.4,42.1-2.044ZM53.816,0h1.568V-10.276L53.8-10.01v3.864a2.676,2.676,0,0,0-2.044-.924A3.4,3.4,0,0,0,48.482-3.5,3.366,3.366,0,0,0,51.66.07,2.7,2.7,0,0,0,53.816-.938ZM50.05-3.5a2.1,2.1,0,0,1,2.086-2.24,2.176,2.176,0,0,1,1.666.756V-2.03a2.1,2.1,0,0,1-1.666.77A2.121,2.121,0,0,1,50.05-3.5ZM62.5,0h1.568V-10.276l-1.582.266v3.864a2.676,2.676,0,0,0-2.044-.924A3.4,3.4,0,0,0,57.162-3.5,3.366,3.366,0,0,0,60.34.07,2.7,2.7,0,0,0,62.5-.938ZM58.73-3.5a2.1,2.1,0,0,1,2.086-2.24,2.176,2.176,0,0,1,1.666.756V-2.03a2.1,2.1,0,0,1-1.666.77A2.121,2.121,0,0,1,58.73-3.5ZM66.164,0h1.582V-4.62A1.925,1.925,0,0,1,69.5-5.782a2.231,2.231,0,0,1,.868.168V-7a1.875,1.875,0,0,0-.686-.14,2.08,2.08,0,0,0-1.932,1.652V-7.014H66.164ZM77.5-.9l-1.036-.966A2.279,2.279,0,0,1,74.8-1.2a2.142,2.142,0,0,1-2.1-1.918h5.18v-.392a3.367,3.367,0,0,0-3.318-3.612A3.454,3.454,0,0,0,71.148-3.5,3.565,3.565,0,0,0,74.718.14,4.056,4.056,0,0,0,77.5-.9ZM74.55-5.838a1.92,1.92,0,0,1,1.834,1.75H72.73A1.884,1.884,0,0,1,74.55-5.838ZM79.072-.812A4.706,4.706,0,0,0,82.1.14c1.624,0,2.856-.994,2.856-2.282,0-1.05-.672-1.694-2.072-1.96l-1.232-.224c-.742-.126-.994-.322-.994-.77,0-.518.476-.826,1.2-.826a3.834,3.834,0,0,1,2.114.672l.742-1.036a4.936,4.936,0,0,0-2.758-.84c-1.638,0-2.716.854-2.716,2.17,0,1.05.672,1.68,2.03,1.932l1.246.21c.672.126.966.364.966.8,0,.56-.574.938-1.414.938a4.042,4.042,0,0,1-2.254-.8Zm6.9,0A4.706,4.706,0,0,0,89,.14c1.624,0,2.856-.994,2.856-2.282,0-1.05-.672-1.694-2.072-1.96L88.55-4.326c-.742-.126-.994-.322-.994-.77,0-.518.476-.826,1.2-.826a3.834,3.834,0,0,1,2.114.672l.742-1.036a4.936,4.936,0,0,0-2.758-.84c-1.638,0-2.716.854-2.716,2.17,0,1.05.672,1.68,2.03,1.932l1.246.21c.672.126.966.364.966.8,0,.56-.574.938-1.414.938a4.042,4.042,0,0,1-2.254-.8Z" transform="translate(392 575)"/><g transform="translate(0 82)"><g class="a" transform="translate(392 411)"><rect class="s" width="296" height="36"/><rect class="f" x="0.5" y="0.5" width="295" height="35"/></g><rect class="k" width="296" height="1" transform="translate(392 446)"/><path class="k" d="M1.424,0H2.656V-4.576H6.048A3.24,3.24,0,0,0,9.616-7.888,3.232,3.232,0,0,0,6.048-11.2H1.424ZM5.9-10.112a2.178,2.178,0,0,1,2.48,2.224A2.193,2.193,0,0,1,5.9-5.632H2.656v-4.48ZM11.664,0h1.168V-5.76a2.3,2.3,0,0,1,2.048-1.2,2.024,2.024,0,0,1,2.1,2.24V0h1.168V-5.056a2.717,2.717,0,0,0-2.832-2.88,2.813,2.813,0,0,0-2.48,1.392V-11.68l-1.168.24Zm8.48-3.9A3.867,3.867,0,0,0,23.936.16,3.86,3.86,0,0,0,27.744-3.9a3.832,3.832,0,0,0-3.808-4.032A3.829,3.829,0,0,0,20.144-3.9ZM23.936-.88A2.753,2.753,0,0,1,21.3-3.888a2.777,2.777,0,0,1,2.64-3.024,2.789,2.789,0,0,1,2.656,3.024A2.774,2.774,0,0,1,23.936-.88ZM29.792,0H30.96V-5.76a2.3,2.3,0,0,1,2.048-1.2,2.024,2.024,0,0,1,2.1,2.24V0h1.168V-5.056a2.717,2.717,0,0,0-2.832-2.88,2.813,2.813,0,0,0-2.48,1.392V-7.808H29.792Zm15.28-.9-.736-.784a3.191,3.191,0,0,1-2.144.8,2.845,2.845,0,0,1-2.784-2.768h6.128V-4a3.689,3.689,0,0,0-3.584-3.936A3.8,3.8,0,0,0,38.272-3.9,3.9,3.9,0,0,0,42.144.144,4.558,4.558,0,0,0,45.072-.9ZM41.936-6.928A2.579,2.579,0,0,1,44.384-4.48H39.44A2.608,2.608,0,0,1,41.936-6.928ZM51.264,0h1.168V-5.76a2.3,2.3,0,0,1,2.048-1.2,2.024,2.024,0,0,1,2.1,2.24V0h1.168V-5.056a2.717,2.717,0,0,0-2.832-2.88,2.813,2.813,0,0,0-2.48,1.392V-7.808H51.264Zm9.888-7.808H59.968v5.04A2.73,2.73,0,0,0,62.8.128a2.8,2.8,0,0,0,2.48-1.392V0h1.168V-7.808H65.28v5.776A2.318,2.318,0,0,1,63.232-.848,2.017,2.017,0,0,1,61.152-3.1ZM68.848,0h1.168V-5.808a2.14,2.14,0,0,1,1.9-1.152,1.94,1.94,0,0,1,1.936,2.208V0h1.168V-5.04a3.238,3.238,0,0,0-.064-.688A2.173,2.173,0,0,1,76.912-6.96c1.184,0,1.92.848,1.92,2.208V0H80V-5.04a2.657,2.657,0,0,0-2.656-2.9,2.885,2.885,0,0,0-2.608,1.52,2.566,2.566,0,0,0-2.4-1.52,2.674,2.674,0,0,0-2.32,1.344V-7.808H68.848Zm20.8-3.9a3.768,3.768,0,0,0-3.6-4,3.146,3.146,0,0,0-2.512,1.168V-11.68l-1.168.24V0H83.52V-1.024A3.161,3.161,0,0,0,85.984.112,3.8,3.8,0,0,0,89.648-3.9ZM85.76-6.88A2.8,2.8,0,0,1,88.5-3.888,2.8,2.8,0,0,1,85.76-.9a2.744,2.744,0,0,1-2.224-1.088V-5.808A2.666,2.666,0,0,1,85.76-6.88ZM98.16-.9l-.736-.784a3.191,3.191,0,0,1-2.144.8A2.845,2.845,0,0,1,92.5-3.648h6.128V-4A3.689,3.689,0,0,0,95.04-7.936,3.8,3.8,0,0,0,91.36-3.9,3.9,3.9,0,0,0,95.232.144,4.558,4.558,0,0,0,98.16-.9ZM95.024-6.928A2.579,2.579,0,0,1,97.472-4.48H92.528A2.608,2.608,0,0,1,95.024-6.928ZM100.624,0h1.168V-5.344a2.226,2.226,0,0,1,2.1-1.584,2.919,2.919,0,0,1,.816.144V-7.84a2.217,2.217,0,0,0-.736-.112,2.332,2.332,0,0,0-2.176,1.728V-7.808h-1.168Z" transform="translate(400 435)"/></g><path class="j" d="M5.082-5.684l.42-.63L3.836-7.336l1.61-1.008-.42-.616-1.5.98L3.542-9.8H2.814l.014,1.834L1.316-8.96l-.392.616,1.6,1.008L.868-6.314l.406.63L2.842-6.706,2.814-4.774h.728L3.514-6.706Z" transform="translate(493 481)"/><path class="e" d="M1.176,0h1.68V-3.738h2.7a3,3,0,0,0,3.276-3.01A3,3,0,0,0,5.558-9.8H1.176Zm4.13-8.386A1.608,1.608,0,0,1,7.14-6.762,1.619,1.619,0,0,1,5.292-5.11H2.856V-8.386ZM10.626,0h1.582V-5.012a1.8,1.8,0,0,1,1.526-.84,1.511,1.511,0,0,1,1.54,1.68V0h1.582V-4.62a2.36,2.36,0,0,0-2.422-2.506,2.545,2.545,0,0,0-2.226,1.26v-4.41l-1.582.266Zm7.966-3.5A3.522,3.522,0,0,0,22.12.14,3.514,3.514,0,0,0,25.648-3.5,3.5,3.5,0,0,0,22.12-7.126,3.51,3.51,0,0,0,18.592-3.5ZM22.12-1.232a2.039,2.039,0,0,1-1.96-2.254,2.057,2.057,0,0,1,1.96-2.282,2.065,2.065,0,0,1,1.96,2.282A2.047,2.047,0,0,1,22.12-1.232ZM27.426,0h1.582V-5.012a1.8,1.8,0,0,1,1.526-.84,1.511,1.511,0,0,1,1.54,1.68V0h1.582V-4.62a2.36,2.36,0,0,0-2.422-2.506,2.545,2.545,0,0,0-2.226,1.26V-7.014H27.426ZM41.748-.9l-1.036-.966a2.279,2.279,0,0,1-1.666.658,2.142,2.142,0,0,1-2.1-1.918h5.18v-.392a3.367,3.367,0,0,0-3.318-3.612A3.454,3.454,0,0,0,35.392-3.5,3.565,3.565,0,0,0,38.962.14,4.056,4.056,0,0,0,41.748-.9ZM38.794-5.838a1.92,1.92,0,0,1,1.834,1.75H36.974A1.884,1.884,0,0,1,38.794-5.838ZM47.166,0h1.582V-5.012a1.8,1.8,0,0,1,1.526-.84,1.511,1.511,0,0,1,1.54,1.68V0H53.4V-4.62a2.36,2.36,0,0,0-2.422-2.506,2.545,2.545,0,0,0-2.226,1.26V-7.014H47.166Zm9.758-7.014H55.342v4.62A2.353,2.353,0,0,0,57.764.112,2.565,2.565,0,0,0,60-1.162V0h1.582V-7.014H60V-2.03a1.769,1.769,0,0,1-1.54.868,1.511,1.511,0,0,1-1.54-1.68ZM63.672,0h1.582V-5.054a1.628,1.628,0,0,1,1.386-.8,1.419,1.419,0,0,1,1.414,1.61V0h1.582V-4.578c0-.154-.014-.294-.028-.448a1.671,1.671,0,0,1,1.414-.826,1.419,1.419,0,0,1,1.414,1.61V0h1.582V-4.578a2.324,2.324,0,0,0-2.3-2.548A2.587,2.587,0,0,0,69.4-5.768,2.2,2.2,0,0,0,67.34-7.126a2.393,2.393,0,0,0-2.086,1.232v-1.12H63.672Zm19.32-3.5a3.366,3.366,0,0,0-3.178-3.57,2.73,2.73,0,0,0-2.156.994v-4.2l-1.582.266V0H77.63V-.91A2.609,2.609,0,0,0,79.7.07,3.4,3.4,0,0,0,82.992-3.5ZM79.338-5.74A2.121,2.121,0,0,1,81.424-3.5a2.1,2.1,0,0,1-2.086,2.24,2.15,2.15,0,0,1-1.68-.77V-4.956A2.059,2.059,0,0,1,79.338-5.74ZM90.846-.9,89.81-1.862a2.279,2.279,0,0,1-1.666.658,2.142,2.142,0,0,1-2.1-1.918h5.18v-.392a3.367,3.367,0,0,0-3.318-3.612A3.454,3.454,0,0,0,84.49-3.5,3.565,3.565,0,0,0,88.06.14,4.056,4.056,0,0,0,90.846-.9ZM87.892-5.838a1.92,1.92,0,0,1,1.834,1.75H86.072A1.884,1.884,0,0,1,87.892-5.838ZM92.974,0h1.582V-4.62a1.925,1.925,0,0,1,1.75-1.162,2.231,2.231,0,0,1,.868.168V-7a1.875,1.875,0,0,0-.686-.14,2.08,2.08,0,0,0-1.932,1.652V-7.014H92.974Z" transform="translate(392 481)"/><g transform="translate(0 -12)"><g class="a" transform="translate(392 411)"><rect class="s" width="296" height="36"/><rect class="f" x="0.5" y="0.5" width="295" height="35"/></g><rect class="k" width="296" height="1" transform="translate(392 446)"/><path class="k" d="M1.424,0H2.656V-5.04H7.04V-6.112H2.656v-4.016H9.072V-11.2H1.424Zm9.888-9.728a.83.83,0,0,0,.832-.848.847.847,0,0,0-.832-.832.85.85,0,0,0-.848.832A.834.834,0,0,0,11.312-9.728Zm.576,1.92H10.72V0h1.168ZM14.288,0h1.168V-5.344a2.226,2.226,0,0,1,2.1-1.584,2.919,2.919,0,0,1,.816.144V-7.84a2.217,2.217,0,0,0-.736-.112,2.332,2.332,0,0,0-2.176,1.728V-7.808H14.288Zm4.784-1.008A4.451,4.451,0,0,0,22.24.144c1.728,0,3.04-1.056,3.04-2.416,0-1.152-.7-1.808-2.272-2.1L21.7-4.608c-1.008-.176-1.344-.48-1.344-1.12,0-.768.672-1.248,1.7-1.248a4.142,4.142,0,0,1,2.448.832l.576-.816A5.048,5.048,0,0,0,22.1-7.936c-1.648,0-2.816.944-2.816,2.288,0,1.136.688,1.776,2.208,2.048l1.28.224c.992.192,1.408.528,1.408,1.168,0,.816-.832,1.408-1.968,1.408A4.072,4.072,0,0,1,19.7-1.776Zm8.752-.752c0,1.248.7,1.9,2.048,1.9a4.386,4.386,0,0,0,1.36-.208V-1.1a2.8,2.8,0,0,1-1.1.208c-.816,0-1.136-.336-1.136-1.168V-6.848h2.24v-.96h-2.24v-2.416l-1.168.272v2.144H26.208v.96h1.616ZM36.672,0H37.84V-5.76a2.3,2.3,0,0,1,2.048-1.2,2.024,2.024,0,0,1,2.1,2.24V0h1.168V-5.056a2.717,2.717,0,0,0-2.832-2.88,2.813,2.813,0,0,0-2.48,1.392V-7.808H36.672ZM47.92.144A3.352,3.352,0,0,0,50.4-.912V0h1.152V-5.184c0-1.776-1.088-2.752-3.024-2.752a6.689,6.689,0,0,0-2.944.752l.432.9a5.156,5.156,0,0,1,2.368-.672A1.758,1.758,0,0,1,50.4-5.024v1.072a4.521,4.521,0,0,0-2.384-.608c-1.76,0-2.928.928-2.928,2.32C45.088-.832,46.256.144,47.92.144ZM46.208-2.272c0-.864.784-1.44,1.984-1.44a4.122,4.122,0,0,1,2.208.56v1.5a3.091,3.091,0,0,1-2.24.9C46.992-.752,46.208-1.36,46.208-2.272ZM53.92,0h1.168V-5.808a2.14,2.14,0,0,1,1.9-1.152,1.94,1.94,0,0,1,1.936,2.208V0H60.1V-5.04a3.238,3.238,0,0,0-.064-.688A2.173,2.173,0,0,1,61.984-6.96c1.184,0,1.92.848,1.92,2.208V0h1.168V-5.04a2.657,2.657,0,0,0-2.656-2.9,2.885,2.885,0,0,0-2.608,1.52,2.566,2.566,0,0,0-2.4-1.52,2.674,2.674,0,0,0-2.32,1.344V-7.808H53.92ZM73.888-.9l-.736-.784a3.191,3.191,0,0,1-2.144.8,2.845,2.845,0,0,1-2.784-2.768h6.128V-4a3.689,3.689,0,0,0-3.584-3.936A3.8,3.8,0,0,0,67.088-3.9,3.9,3.9,0,0,0,70.96.144,4.558,4.558,0,0,0,73.888-.9ZM70.752-6.928A2.579,2.579,0,0,1,73.2-4.48H68.256A2.608,2.608,0,0,1,70.752-6.928Zm10.5-4.752-1.168.24V0h1.168ZM86.064.144a3.352,3.352,0,0,0,2.48-1.056V0H89.7V-5.184c0-1.776-1.088-2.752-3.024-2.752a6.689,6.689,0,0,0-2.944.752l.432.9a5.156,5.156,0,0,1,2.368-.672,1.758,1.758,0,0,1,2.016,1.936v1.072A4.521,4.521,0,0,0,86.16-4.56c-1.76,0-2.928.928-2.928,2.32C83.232-.832,84.4.144,86.064.144ZM84.352-2.272c0-.864.784-1.44,1.984-1.44a4.122,4.122,0,0,1,2.208.56v1.5a3.091,3.091,0,0,1-2.24.9C85.136-.752,84.352-1.36,84.352-2.272Zm6.96,1.264A4.451,4.451,0,0,0,94.48.144c1.728,0,3.04-1.056,3.04-2.416,0-1.152-.7-1.808-2.272-2.1l-1.312-.24c-1.008-.176-1.344-.48-1.344-1.12,0-.768.672-1.248,1.7-1.248a4.142,4.142,0,0,1,2.448.832l.576-.816a5.048,5.048,0,0,0-2.976-.976c-1.648,0-2.816.944-2.816,2.288,0,1.136.688,1.776,2.208,2.048l1.28.224c.992.192,1.408.528,1.408,1.168,0,.816-.832,1.408-1.968,1.408a4.072,4.072,0,0,1-2.512-.976Zm8.752-.752c0,1.248.7,1.9,2.048,1.9a4.386,4.386,0,0,0,1.36-.208V-1.1a2.8,2.8,0,0,1-1.1.208c-.816,0-1.136-.336-1.136-1.168V-6.848h2.24v-.96h-2.24v-2.416l-1.168.272v2.144H98.448v.96h1.616ZM108.912,0h1.168V-5.76a2.3,2.3,0,0,1,2.048-1.2,2.024,2.024,0,0,1,2.1,2.24V0h1.168V-5.056a2.717,2.717,0,0,0-2.832-2.88,2.813,2.813,0,0,0-2.48,1.392V-7.808h-1.168ZM120.16.144a3.352,3.352,0,0,0,2.48-1.056V0h1.152V-5.184c0-1.776-1.088-2.752-3.024-2.752a6.689,6.689,0,0,0-2.944.752l.432.9a5.156,5.156,0,0,1,2.368-.672,1.758,1.758,0,0,1,2.016,1.936v1.072a4.521,4.521,0,0,0-2.384-.608c-1.76,0-2.928.928-2.928,2.32C117.328-.832,118.5.144,120.16.144Zm-1.712-2.416c0-.864.784-1.44,1.984-1.44a4.122,4.122,0,0,1,2.208.56v1.5a3.091,3.091,0,0,1-2.24.9C119.232-.752,118.448-1.36,118.448-2.272ZM126.16,0h1.168V-5.808a2.14,2.14,0,0,1,1.9-1.152,1.94,1.94,0,0,1,1.936,2.208V0h1.168V-5.04a3.239,3.239,0,0,0-.064-.688,2.173,2.173,0,0,1,1.952-1.232c1.184,0,1.92.848,1.92,2.208V0h1.168V-5.04a2.657,2.657,0,0,0-2.656-2.9,2.885,2.885,0,0,0-2.608,1.52,2.566,2.566,0,0,0-2.4-1.52,2.674,2.674,0,0,0-2.32,1.344V-7.808H126.16Zm19.968-.9-.736-.784a3.191,3.191,0,0,1-2.144.8,2.845,2.845,0,0,1-2.784-2.768h6.128V-4a3.689,3.689,0,0,0-3.584-3.936,3.8,3.8,0,0,0-3.68,4.032A3.9,3.9,0,0,0,143.2.144,4.558,4.558,0,0,0,146.128-.9Zm-3.136-6.032A2.579,2.579,0,0,1,145.44-4.48H140.5A2.608,2.608,0,0,1,142.992-6.928Z" transform="translate(400 435)"/></g><path class="j" d="M5.082-5.684l.42-.63L3.836-7.336l1.61-1.008-.42-.616-1.5.98L3.542-9.8H2.814l.014,1.834L1.316-8.96l-.392.616,1.6,1.008L.868-6.314l.406.63L2.842-6.706,2.814-4.774h.728L3.514-6.706Z" transform="translate(522 387)"/><path class="e" d="M1.176,0h1.68V-4.172h3.7v-1.4h-3.7v-2.8H8.218V-9.8H1.176ZM10.57-8.442a.966.966,0,0,0,.994-.966,1,1,0,0,0-.994-.98.992.992,0,0,0-.98.98A.962.962,0,0,0,10.57-8.442Zm.8,1.428H9.786V0h1.582ZM13.454,0h1.582V-4.62a1.925,1.925,0,0,1,1.75-1.162,2.231,2.231,0,0,1,.868.168V-7a1.875,1.875,0,0,0-.686-.14,2.08,2.08,0,0,0-1.932,1.652V-7.014H13.454ZM18.48-.812A4.706,4.706,0,0,0,21.5.14c1.624,0,2.856-.994,2.856-2.282,0-1.05-.672-1.694-2.072-1.96l-1.232-.224c-.742-.126-.994-.322-.994-.77,0-.518.476-.826,1.2-.826a3.834,3.834,0,0,1,2.114.672l.742-1.036a4.936,4.936,0,0,0-2.758-.84c-1.638,0-2.716.854-2.716,2.17,0,1.05.672,1.68,2.03,1.932l1.246.21c.672.126.966.364.966.8,0,.56-.574.938-1.414.938a4.042,4.042,0,0,1-2.254-.8Zm8.2-1.036c0,1.288.742,1.96,2.156,1.96a4.976,4.976,0,0,0,1.358-.2v-1.33a2.906,2.906,0,0,1-.952.168c-.714,0-.98-.266-.98-.952V-5.754h1.96v-1.26h-1.96V-9.282l-1.582.336v1.932H25.27v1.26h1.414ZM37.17.112a2.928,2.928,0,0,0,2.086-.826V0h1.568V-4.578c0-1.624-1.05-2.548-2.87-2.548a6.734,6.734,0,0,0-2.912.714l.56,1.148a4.853,4.853,0,0,1,2.044-.546c1.078,0,1.61.476,1.61,1.4v.77a4.335,4.335,0,0,0-1.89-.434c-1.652,0-2.674.8-2.674,2.058A2.211,2.211,0,0,0,37.17.112Zm-.994-2.156c0-.616.56-1.008,1.456-1.008a3.63,3.63,0,0,1,1.624.336v1.148A2.5,2.5,0,0,1,37.6-.994C36.736-.994,36.176-1.4,36.176-2.044ZM42.882,0h1.582V-5.012a1.8,1.8,0,0,1,1.526-.84,1.511,1.511,0,0,1,1.54,1.68V0h1.582V-4.62A2.36,2.36,0,0,0,46.69-7.126a2.545,2.545,0,0,0-2.226,1.26V-7.014H42.882Zm13.3,0H57.75V-10.276l-1.582.266v3.864a2.676,2.676,0,0,0-2.044-.924A3.4,3.4,0,0,0,50.848-3.5,3.366,3.366,0,0,0,54.026.07,2.7,2.7,0,0,0,56.182-.938ZM52.416-3.5A2.1,2.1,0,0,1,54.5-5.74a2.176,2.176,0,0,1,1.666.756V-2.03a2.1,2.1,0,0,1-1.666.77A2.121,2.121,0,0,1,52.416-3.5Zm12.306-6.776-1.582.266V0h1.582ZM68.936.112a2.928,2.928,0,0,0,2.086-.826V0H72.59V-4.578c0-1.624-1.05-2.548-2.87-2.548a6.734,6.734,0,0,0-2.912.714l.56,1.148a4.853,4.853,0,0,1,2.044-.546c1.078,0,1.61.476,1.61,1.4v.77a4.335,4.335,0,0,0-1.89-.434c-1.652,0-2.674.8-2.674,2.058A2.211,2.211,0,0,0,68.936.112Zm-.994-2.156c0-.616.56-1.008,1.456-1.008a3.63,3.63,0,0,1,1.624.336v1.148a2.5,2.5,0,0,1-1.652.574C68.5-.994,67.942-1.4,67.942-2.044ZM74.018-.812A4.706,4.706,0,0,0,77.042.14C78.666.14,79.9-.854,79.9-2.142c0-1.05-.672-1.694-2.072-1.96l-1.232-.224c-.742-.126-.994-.322-.994-.77,0-.518.476-.826,1.2-.826a3.834,3.834,0,0,1,2.114.672l.742-1.036a4.936,4.936,0,0,0-2.758-.84c-1.638,0-2.716.854-2.716,2.17,0,1.05.672,1.68,2.03,1.932l1.246.21c.672.126.966.364.966.8,0,.56-.574.938-1.414.938a4.042,4.042,0,0,1-2.254-.8Zm8.2-1.036c0,1.288.742,1.96,2.156,1.96a4.976,4.976,0,0,0,1.358-.2v-1.33a2.906,2.906,0,0,1-.952.168c-.714,0-.98-.266-.98-.952V-5.754h1.96v-1.26H83.8V-9.282l-1.582.336v1.932H80.808v1.26h1.414ZM90.58,0h1.582V-5.012a1.8,1.8,0,0,1,1.526-.84,1.511,1.511,0,0,1,1.54,1.68V0H96.81V-4.62a2.36,2.36,0,0,0-2.422-2.506,2.545,2.545,0,0,0-2.226,1.26V-7.014H90.58ZM101,.112a2.928,2.928,0,0,0,2.086-.826V0h1.568V-4.578c0-1.624-1.05-2.548-2.87-2.548a6.734,6.734,0,0,0-2.912.714l.56,1.148a4.853,4.853,0,0,1,2.044-.546c1.078,0,1.61.476,1.61,1.4v.77a4.335,4.335,0,0,0-1.89-.434c-1.652,0-2.674.8-2.674,2.058A2.211,2.211,0,0,0,101,.112ZM100-2.044c0-.616.56-1.008,1.456-1.008a3.63,3.63,0,0,1,1.624.336v1.148a2.5,2.5,0,0,1-1.652.574C100.562-.994,100-1.4,100-2.044ZM106.708,0h1.582V-5.054a1.628,1.628,0,0,1,1.386-.8,1.419,1.419,0,0,1,1.414,1.61V0h1.582V-4.578c0-.154-.014-.294-.028-.448a1.671,1.671,0,0,1,1.414-.826,1.419,1.419,0,0,1,1.414,1.61V0h1.582V-4.578a2.324,2.324,0,0,0-2.3-2.548,2.587,2.587,0,0,0-2.324,1.358,2.2,2.2,0,0,0-2.058-1.358,2.393,2.393,0,0,0-2.086,1.232v-1.12h-1.582Zm18.438-.9-1.036-.966a2.279,2.279,0,0,1-1.666.658,2.142,2.142,0,0,1-2.1-1.918h5.18v-.392a3.367,3.367,0,0,0-3.318-3.612A3.454,3.454,0,0,0,118.79-3.5,3.565,3.565,0,0,0,122.36.14,4.056,4.056,0,0,0,125.146-.9Zm-2.954-4.942a1.92,1.92,0,0,1,1.834,1.75h-3.654A1.884,1.884,0,0,1,122.192-5.838Z" transform="translate(392 387)"/><path class="e" d="M1.424,16H8.976V14.912H2.656V4.8H1.424Zm8.768-3.9a3.809,3.809,0,1,0,7.6,0,3.807,3.807,0,1,0-7.6,0Zm3.792,3.024a2.753,2.753,0,0,1-2.64-3.008,2.777,2.777,0,0,1,2.64-3.024,2.789,2.789,0,0,1,2.656,3.024A2.774,2.774,0,0,1,13.984,15.12ZM19.84,16h1.168V10.24a2.3,2.3,0,0,1,2.048-1.2,2.024,2.024,0,0,1,2.1,2.24V16H26.32V10.944a2.717,2.717,0,0,0-2.832-2.88,2.813,2.813,0,0,0-2.48,1.392V8.192H19.84Zm12.08.1a3.077,3.077,0,0,0,2.5-1.152v1.472c0,1.312-.752,2-2.176,2a5.25,5.25,0,0,1-2.5-.72l-.5.9a6.262,6.262,0,0,0,3.04.816c2.128,0,3.3-1.072,3.3-3.008V8.192H34.432V9.2a3.151,3.151,0,0,0-2.448-1.1,3.8,3.8,0,0,0-3.664,4A3.768,3.768,0,0,0,31.92,16.1Zm-2.448-4a2.774,2.774,0,0,1,4.944-1.92v3.856a2.687,2.687,0,0,1-2.208,1.056A2.8,2.8,0,0,1,29.472,12.1Zm11.888,0a3.809,3.809,0,1,0,7.6,0,3.807,3.807,0,1,0-7.6,0Zm3.792,3.024a2.753,2.753,0,0,1-2.64-3.008,2.671,2.671,0,1,1,5.3,0A2.774,2.774,0,0,1,45.152,15.12Zm5.856,4.224h1.168v-4.32a3.166,3.166,0,0,0,2.448,1.088A3.8,3.8,0,0,0,58.288,12.1a3.768,3.768,0,0,0-3.6-4A3.08,3.08,0,0,0,52.16,9.312V8.192H51.008ZM54.4,9.12a2.8,2.8,0,0,1,2.736,2.992A2.8,2.8,0,0,1,54.4,15.1a2.744,2.744,0,0,1-2.224-1.088V10.192A2.666,2.666,0,0,1,54.4,9.12Zm6.368,5.12c0,1.248.7,1.9,2.048,1.9a4.386,4.386,0,0,0,1.36-.208V14.9a2.8,2.8,0,0,1-1.1.208c-.816,0-1.136-.336-1.136-1.168V9.152h2.24v-.96h-2.24V5.776l-1.168.272V8.192H59.152v.96h1.616ZM66.48,6.272a.83.83,0,0,0,.832-.848.84.84,0,0,0-1.68,0A.834.834,0,0,0,66.48,6.272Zm.576,1.92H65.888V16h1.168ZM69.1,12.1a3.809,3.809,0,1,0,7.6,0,3.807,3.807,0,1,0-7.6,0ZM72.9,15.12a2.753,2.753,0,0,1-2.64-3.008,2.671,2.671,0,1,1,5.3,0A2.774,2.774,0,0,1,72.9,15.12Zm5.856.88H79.92V10.24a2.3,2.3,0,0,1,2.048-1.2,2.024,2.024,0,0,1,2.1,2.24V16h1.168V10.944A2.717,2.717,0,0,0,82.4,8.064a2.813,2.813,0,0,0-2.48,1.392V8.192H78.752ZM90,16.144a3.352,3.352,0,0,0,2.48-1.056V16h1.152V10.816c0-1.776-1.088-2.752-3.024-2.752a6.689,6.689,0,0,0-2.944.752l.432.9a5.156,5.156,0,0,1,2.368-.672,1.758,1.758,0,0,1,2.016,1.936v1.072A4.521,4.521,0,0,0,90.1,11.44c-1.76,0-2.928.928-2.928,2.32C87.168,15.168,88.336,16.144,90,16.144Zm-1.712-2.416c0-.864.784-1.44,1.984-1.44a4.122,4.122,0,0,1,2.208.56v1.5a3.091,3.091,0,0,1-2.24.9C89.072,15.248,88.288,14.64,88.288,13.728Zm8.88-9.408L96,4.56V16h1.168ZM103.3,16h1.168V10.24a2.3,2.3,0,0,1,2.048-1.2,2.024,2.024,0,0,1,2.1,2.24V16h1.168V10.944a2.717,2.717,0,0,0-2.832-2.88,2.813,2.813,0,0,0-2.48,1.392V4.32l-1.168.24Zm15.28-.9-.736-.784a3.191,3.191,0,0,1-2.144.8,2.845,2.845,0,0,1-2.784-2.768h6.128V12a3.689,3.689,0,0,0-3.584-3.936,3.8,3.8,0,0,0-3.68,4.032,3.9,3.9,0,0,0,3.872,4.048A4.558,4.558,0,0,0,118.576,15.1ZM115.44,9.072a2.579,2.579,0,0,1,2.448,2.448h-4.944A2.608,2.608,0,0,1,115.44,9.072Zm6.768-4.752-1.168.24V16h1.168Zm2.4,15.024h1.168v-4.32a3.165,3.165,0,0,0,2.448,1.088,3.8,3.8,0,0,0,3.664-4.016,3.768,3.768,0,0,0-3.6-4,3.08,3.08,0,0,0-2.528,1.216V8.192h-1.152ZM128,9.12a2.8,2.8,0,0,1,2.736,2.992A2.8,2.8,0,0,1,128,15.1a2.744,2.744,0,0,1-2.224-1.088V10.192A2.666,2.666,0,0,1,128,9.12ZM140.4,15.1l-.736-.784a3.191,3.191,0,0,1-2.144.8,2.845,2.845,0,0,1-2.784-2.768h6.128V12a3.689,3.689,0,0,0-3.584-3.936A3.8,3.8,0,0,0,133.6,12.1a3.9,3.9,0,0,0,3.872,4.048A4.558,4.558,0,0,0,140.4,15.1Zm-3.136-6.032a2.579,2.579,0,0,1,2.448,2.448h-4.944A2.608,2.608,0,0,1,137.264,9.072Zm5.6,6.928h1.168V10.656a2.226,2.226,0,0,1,2.1-1.584,2.919,2.919,0,0,1,.816.144V8.16a2.217,2.217,0,0,0-.736-.112,2.332,2.332,0,0,0-2.176,1.728V8.192h-1.168Zm10.288-1.76c0,1.248.7,1.9,2.048,1.9a4.386,4.386,0,0,0,1.36-.208V14.9a2.8,2.8,0,0,1-1.1.208c-.816,0-1.136-.336-1.136-1.168V9.152h2.24v-.96h-2.24V5.776l-1.168.272V8.192h-1.616v.96h1.616Zm11.376.864-.736-.784a3.191,3.191,0,0,1-2.144.8,2.845,2.845,0,0,1-2.784-2.768h6.128V12a3.689,3.689,0,0,0-3.584-3.936,3.8,3.8,0,0,0-3.68,4.032,3.9,3.9,0,0,0,3.872,4.048A4.558,4.558,0,0,0,164.528,15.1Zm-3.136-6.032a2.579,2.579,0,0,1,2.448,2.448H158.9A2.608,2.608,0,0,1,161.392,9.072ZM165.5,16h1.328l2.32-3.184L171.488,16h1.392l-3.024-4.048,2.8-3.76h-1.328l-2.128,2.96-2.16-2.96h-1.392l2.832,3.792Zm9.552-1.76c0,1.248.7,1.9,2.048,1.9a4.386,4.386,0,0,0,1.36-.208V14.9a2.8,2.8,0,0,1-1.1.208c-.816,0-1.136-.336-1.136-1.168V9.152h2.24v-.96h-2.24V5.776l-1.168.272V8.192H173.44v.96h1.616Zm15.3.864-.736-.784a3.191,3.191,0,0,1-2.144.8,2.845,2.845,0,0,1-2.784-2.768h6.128V12a3.689,3.689,0,0,0-3.584-3.936,3.8,3.8,0,0,0-3.68,4.032,3.9,3.9,0,0,0,3.872,4.048A4.558,4.558,0,0,0,190.352,15.1Zm-3.136-6.032a2.579,2.579,0,0,1,2.448,2.448H184.72A2.608,2.608,0,0,1,187.216,9.072ZM191.328,16h1.328l2.32-3.184L197.312,16H198.7l-3.024-4.048,2.8-3.76h-1.328l-2.128,2.96-2.16-2.96h-1.392l2.832,3.792Zm8.784,3.344h1.168v-4.32a3.166,3.166,0,0,0,2.448,1.088,3.8,3.8,0,0,0,3.664-4.016,3.768,3.768,0,0,0-3.6-4,3.08,3.08,0,0,0-2.528,1.216V8.192h-1.152ZM203.5,9.12a2.8,2.8,0,0,1,2.736,2.992A2.8,2.8,0,0,1,203.5,15.1a2.744,2.744,0,0,1-2.224-1.088V10.192A2.666,2.666,0,0,1,203.5,9.12Zm7.1-4.8-1.168.24V16h1.168Zm4.816,11.824a3.352,3.352,0,0,0,2.48-1.056V16h1.152V10.816c0-1.776-1.088-2.752-3.024-2.752a6.689,6.689,0,0,0-2.944.752l.432.9a5.156,5.156,0,0,1,2.368-.672,1.758,1.758,0,0,1,2.016,1.936v1.072a4.521,4.521,0,0,0-2.384-.608c-1.76,0-2.928.928-2.928,2.32C212.592,15.168,213.76,16.144,215.424,16.144Zm-1.712-2.416c0-.864.784-1.44,1.984-1.44a4.122,4.122,0,0,1,2.208.56v1.5a3.091,3.091,0,0,1-2.24.9C214.5,15.248,213.712,14.64,213.712,13.728Zm8.3-7.456a.83.83,0,0,0,.832-.848.84.84,0,0,0-1.68,0A.834.834,0,0,0,222.016,6.272Zm.576,1.92h-1.168V16h1.168Zm2.4,7.808h1.168V10.24a2.3,2.3,0,0,1,2.048-1.2,2.024,2.024,0,0,1,2.1,2.24V16h1.168V10.944a2.717,2.717,0,0,0-2.832-2.88,2.813,2.813,0,0,0-2.48,1.392V8.192h-1.168Zm9.424-9.728a.83.83,0,0,0,.832-.848.84.84,0,0,0-1.68,0A.834.834,0,0,0,234.416,6.272Zm.576,1.92h-1.168V16h1.168Zm2.4,7.808h1.168V10.24a2.3,2.3,0,0,1,2.048-1.2,2.024,2.024,0,0,1,2.1,2.24V16h1.168V10.944a2.717,2.717,0,0,0-2.832-2.88,2.813,2.813,0,0,0-2.48,1.392V8.192h-1.168Zm12.08.1a3.077,3.077,0,0,0,2.5-1.152v1.472c0,1.312-.752,2-2.176,2a5.25,5.25,0,0,1-2.5-.72l-.5.9a6.262,6.262,0,0,0,3.04.816c2.128,0,3.3-1.072,3.3-3.008V8.192h-1.152V9.2a3.151,3.151,0,0,0-2.448-1.1,3.8,3.8,0,0,0-3.664,4A3.768,3.768,0,0,0,249.472,16.1Zm-2.448-4a2.774,2.774,0,0,1,4.944-1.92v3.856a2.687,2.687,0,0,1-2.208,1.056A2.8,2.8,0,0,1,247.024,12.1Zm12.24,3.9h1.168V10.24a2.3,2.3,0,0,1,2.048-1.2,2.024,2.024,0,0,1,2.1,2.24V16h1.168V10.944a2.717,2.717,0,0,0-2.832-2.88,2.813,2.813,0,0,0-2.48,1.392V4.32l-1.168.24Zm8.48-3.9a3.809,3.809,0,1,0,7.6,0,3.807,3.807,0,1,0-7.6,0Zm3.792,3.024a2.753,2.753,0,0,1-2.64-3.008,2.671,2.671,0,1,1,5.3,0A2.774,2.774,0,0,1,271.536,15.12Zm8.24.88,1.856-6.3,1.856,6.3h1.136l2.128-7.808h-1.1l-1.616,6.24-1.872-6.24h-1.04l-1.872,6.24-1.632-6.24H276.48L278.624,16ZM2.128,38.24c0,1.248.7,1.9,2.048,1.9a4.386,4.386,0,0,0,1.36-.208V38.9a2.8,2.8,0,0,1-1.1.208c-.816,0-1.136-.336-1.136-1.168V33.152h2.24v-.96H3.3V29.776l-1.168.272v2.144H.512v.96H2.128ZM6.7,36.1A3.867,3.867,0,0,0,10.5,40.16,3.86,3.86,0,0,0,14.3,36.1a3.807,3.807,0,1,0-7.6,0ZM10.5,39.12a2.753,2.753,0,0,1-2.64-3.008,2.777,2.777,0,0,1,2.64-3.024,2.789,2.789,0,0,1,2.656,3.024A2.774,2.774,0,0,1,10.5,39.12Zm8.832-6.928v.96h1.744V40H22.24V33.152h2.224v-.96H22.24V30.5c0-.928.384-1.36,1.28-1.36a3.22,3.22,0,0,1,.944.144V28.224a3.3,3.3,0,0,0-1.056-.144,2.143,2.143,0,0,0-2.336,2.4v1.712Zm7.264-1.92a.83.83,0,0,0,.832-.848.84.84,0,0,0-1.68,0A.834.834,0,0,0,26.592,30.272Zm.576,1.92H26V40h1.168Zm3.568-3.872-1.168.24V40h1.168Zm3.568,0-1.168.24V40H34.3ZM40.08,36.1a3.809,3.809,0,1,0,7.6,0,3.807,3.807,0,1,0-7.6,0Zm3.792,3.024a2.753,2.753,0,0,1-2.64-3.008,2.671,2.671,0,1,1,5.3,0A2.774,2.774,0,0,1,43.872,39.12Zm6.992-6.928H49.68v5.04a2.73,2.73,0,0,0,2.832,2.9,2.8,2.8,0,0,0,2.48-1.392V40H56.16V32.192H54.992v5.776a2.318,2.318,0,0,1-2.048,1.184,2.017,2.017,0,0,1-2.08-2.256Zm8.624,6.048c0,1.248.7,1.9,2.048,1.9a4.386,4.386,0,0,0,1.36-.208V38.9a2.8,2.8,0,0,1-1.1.208c-.816,0-1.136-.336-1.136-1.168V33.152H62.9v-.96h-2.24V29.776l-1.168.272v2.144H57.872v.96h1.616Zm9.776,0c0,1.248.7,1.9,2.048,1.9a4.386,4.386,0,0,0,1.36-.208V38.9a2.8,2.8,0,0,1-1.1.208c-.816,0-1.136-.336-1.136-1.168V33.152h2.24v-.96h-2.24V29.776l-1.168.272v2.144H67.648v.96h1.616ZM74.384,40h1.168V34.24a2.3,2.3,0,0,1,2.048-1.2,2.024,2.024,0,0,1,2.1,2.24V40h1.168V34.944a2.717,2.717,0,0,0-2.832-2.88,2.813,2.813,0,0,0-2.48,1.392V28.32l-1.168.24Zm9.424-9.728a.83.83,0,0,0,.832-.848.84.84,0,0,0-1.68,0A.834.834,0,0,0,83.808,30.272Zm.576,1.92H83.216V40h1.168Zm1.648,6.8A4.451,4.451,0,0,0,89.2,40.144c1.728,0,3.04-1.056,3.04-2.416,0-1.152-.7-1.808-2.272-2.1l-1.312-.24c-1.008-.176-1.344-.48-1.344-1.12,0-.768.672-1.248,1.7-1.248a4.142,4.142,0,0,1,2.448.832l.576-.816a5.048,5.048,0,0,0-2.976-.976c-1.648,0-2.816.944-2.816,2.288,0,1.136.688,1.776,2.208,2.048l1.28.224c.992.192,1.408.528,1.408,1.168,0,.816-.832,1.408-1.968,1.408a4.072,4.072,0,0,1-2.512-.976Zm10.96-6.8v.96h1.744V40H99.9V33.152h2.224v-.96H99.9V30.5c0-.928.384-1.36,1.28-1.36a3.22,3.22,0,0,1,.944.144V28.224a3.3,3.3,0,0,0-1.056-.144,2.143,2.143,0,0,0-2.336,2.4v1.712Zm5.968,3.9a3.809,3.809,0,1,0,7.6,0,3.807,3.807,0,1,0-7.6,0Zm3.792,3.024a2.753,2.753,0,0,1-2.64-3.008,2.671,2.671,0,1,1,5.3,0A2.774,2.774,0,0,1,106.752,39.12Zm5.856.88h1.168V34.656a2.226,2.226,0,0,1,2.1-1.584,2.919,2.919,0,0,1,.816.144V32.16a2.217,2.217,0,0,0-.736-.112,2.332,2.332,0,0,0-2.176,1.728V32.192h-1.168Zm5.632,0h1.168V34.192a2.14,2.14,0,0,1,1.9-1.152,1.94,1.94,0,0,1,1.936,2.208V40h1.168V34.96a3.238,3.238,0,0,0-.064-.688A2.173,2.173,0,0,1,126.3,33.04c1.184,0,1.92.848,1.92,2.208V40h1.168V34.96a2.657,2.657,0,0,0-2.656-2.9,2.885,2.885,0,0,0-2.608,1.52,2.566,2.566,0,0,0-2.4-1.52,2.674,2.674,0,0,0-2.32,1.344V32.192H118.24Zm14.08-1.616a.873.873,0,1,0,.832.864A.857.857,0,0,0,132.32,38.384Z" transform="translate(392 296)"/><path class="e" d="M1.42,0h2.1V-6.06H8.96v-1.8H3.52v-4.3h8.24V-14H1.42ZM11.44-5.1A5.246,5.246,0,0,0,16.74.2a5.229,5.229,0,0,0,5.28-5.3,5.225,5.225,0,0,0-5.28-5.28A5.242,5.242,0,0,0,11.44-5.1Zm5.3,3.54A3.406,3.406,0,0,1,13.4-5.1a3.4,3.4,0,0,1,3.34-3.52A3.4,3.4,0,0,1,20.06-5.1,3.416,3.416,0,0,1,16.74-1.56ZM23.92,0h2V-6.8a2.779,2.779,0,0,1,2.64-1.86,3.425,3.425,0,0,1,1.18.22v-1.8a2.541,2.541,0,0,0-1.02-.16,3.186,3.186,0,0,0-2.8,1.52v-1.3h-2Zm7.42,0h2V-7.4a2.667,2.667,0,0,1,2.3-1.24,2.287,2.287,0,0,1,2.34,2.58V0h1.98V-6.4a4.239,4.239,0,0,0-.08-.88,2.715,2.715,0,0,1,2.38-1.36A2.287,2.287,0,0,1,44.6-6.06V0h2V-6.4a3.73,3.73,0,0,0-3.82-3.98,4.077,4.077,0,0,0-3.44,1.7,3.547,3.547,0,0,0-3.14-1.7,3.906,3.906,0,0,0-2.86,1.16v-.96h-2ZM54.4-2.52c0,1.76,1.06,2.7,3.04,2.7a6.624,6.624,0,0,0,1.9-.3V-1.8a3.929,3.929,0,0,1-1.46.24c-1.08,0-1.5-.38-1.5-1.42V-8.5h3v-1.68h-3v-3.08l-1.98.48v2.6H52.24V-8.5H54.4Zm7.46-9.3a1.246,1.246,0,0,0,1.24-1.24,1.246,1.246,0,0,0-1.24-1.24,1.229,1.229,0,0,0-1.22,1.24A1.229,1.229,0,0,0,61.86-11.82Zm1,1.64h-2V0h2Zm3.68,7.66c0,1.76,1.06,2.7,3.04,2.7a6.624,6.624,0,0,0,1.9-.3V-1.8a3.929,3.929,0,0,1-1.46.24c-1.08,0-1.5-.38-1.5-1.42V-8.5h3v-1.68h-3v-3.08l-1.98.48v2.6H64.38V-8.5h2.16ZM75-14.44,73-14V0h2ZM86.18-1.16,84.9-2.42a3.96,3.96,0,0,1-2.58.9,3.434,3.434,0,0,1-3.44-2.92h8.04v-.58A5.041,5.041,0,0,0,82-10.34,5.115,5.115,0,0,0,76.9-5.1,5.238,5.238,0,0,0,82.24.18,6.072,6.072,0,0,0,86.18-1.16Zm-4.22-7.5a3.149,3.149,0,0,1,2.98,2.72H78.9A3.126,3.126,0,0,1,81.96-8.66Z" transform="translate(392 274)"/><g transform="translate(688 222)"><rect class="l" width="32" height="655"/></g><g transform="translate(360 845)"><rect class="l" width="360" height="32"/></g><g class="m" transform="translate(392 827)"><rect class="s" width="115" height="18"/><rect class="f" x="0.5" y="0.5" width="114" height="17"/></g><g transform="translate(360 795)"><rect class="l" width="360" height="32"/></g><g transform="translate(475 769)"><rect class="n" width="16" height="16"/></g><g transform="translate(360 727)"><rect class="l" width="360" height="32"/></g><g class="m" transform="translate(543 703)"><rect class="s" width="111" height="24"/><rect class="f" x="0.5" y="0.5" width="110" height="23"/></g><rect class="o" width="4" height="4" transform="translate(539 713)"/><g class="m" transform="translate(515 703)"><rect class="s" width="24" height="24"/><rect class="f" x="0.5" y="0.5" width="23" height="23"/></g><g transform="translate(491 703)"><rect class="p" width="24" height="24"/></g><g class="m" transform="translate(420 703)"><rect class="s" width="71" height="24"/><rect class="f" x="0.5" y="0.5" width="70" height="23"/></g><rect class="o" width="4" height="4" transform="translate(416 713)"/><g class="m" transform="translate(392 703)"><rect class="s" width="24" height="24"/><rect class="f" x="0.5" y="0.5" width="23" height="23"/></g><g transform="translate(420 695)"><rect class="q" width="8" height="8"/></g><g class="m" transform="translate(392 677)"><rect class="s" width="76" height="18"/><rect class="f" x="0.5" y="0.5" width="75" height="17"/></g><g transform="translate(360 645)"><rect class="l" width="360" height="32"/></g><g class="m" transform="translate(392 627)"><rect class="s" width="187" height="18"/><rect class="f" x="0.5" y="0.5" width="186" height="17"/></g><rect class="o" width="4" height="4" transform="translate(392 623)"/><g transform="translate(680 601)"><rect class="q" width="8" height="8"/></g><g class="m" transform="translate(656 593)"><rect class="s" width="24" height="24"/><rect class="f" x="0.5" y="0.5" width="23" height="23"/></g><rect class="r" width="6" height="6" transform="translate(665 587)"/><g class="m" transform="translate(400 593)"><rect class="s" width="98" height="24"/><rect class="f" x="0.5" y="0.5" width="97" height="23"/></g><rect class="r" width="6" height="6" transform="translate(446 587)"/><g transform="translate(392 601)"><rect class="q" width="8" height="8"/></g><g transform="translate(392 579)"><rect class="q" width="8" height="8"/></g><g class="m" transform="translate(392 561)"><rect class="s" width="102" height="18"/><rect class="f" x="0.5" y="0.5" width="101" height="17"/></g><g transform="translate(360 529)"><rect class="l" width="360" height="32"/></g><rect class="r" width="6" height="5" transform="translate(450 523)"/><g class="m" transform="translate(400 499)"><rect class="s" width="105" height="24"/><rect class="f" x="0.5" y="0.5" width="104" height="23"/></g><rect class="r" width="6" height="6" transform="translate(450 493)"/><g transform="translate(392 507)"><rect class="q" width="8" height="8"/></g><g transform="translate(392 485)"><rect class="q" width="8" height="8"/></g><g class="m" transform="translate(392 467)"><rect class="s" width="107" height="18"/><rect class="f" x="0.5" y="0.5" width="106" height="17"/></g><g transform="translate(360 435)"><rect class="l" width="360" height="32"/></g><rect class="r" width="6" height="5" transform="translate(469 429)"/><g class="m" transform="translate(400 405)"><rect class="s" width="147" height="24"/><rect class="f" x="0.5" y="0.5" width="146" height="23"/></g><rect class="r" width="6" height="6" transform="translate(469 399)"/><g transform="translate(392 414)"><rect class="q" width="8" height="8"/></g><g transform="translate(392 391)"><rect class="q" width="8" height="8"/></g><g class="m" transform="translate(392 373)"><rect class="s" width="136" height="18"/><rect class="f" x="0.5" y="0.5" width="135" height="17"/></g><g transform="translate(360 341)"><rect class="l" width="360" height="32"/></g><g class="m" transform="translate(392 296)"><rect class="s" width="296" height="45"/><rect class="f" x="0.5" y="0.5" width="295" height="44"/></g><g transform="translate(392 280)"><rect class="n" width="16" height="16"/></g><g class="m" transform="translate(392 254)"><rect class="s" width="88" height="26"/><rect class="f" x="0.5" y="0.5" width="87" height="25"/></g><g transform="translate(360 222)"><rect class="l" width="360" height="32"/></g><g transform="translate(360 222)"><rect class="l" width="32" height="655"/></g></g></g></svg>