<svg width="162" height="425" viewBox="0 0 162 425" fill="none" xmlns="http://www.w3.org/2000/svg">
<path d="M10 1H152C153.105 1 154 1.89543 154 3V33C154 34.1046 153.105 35 152 35H10C8.89543 35 8 34.1046 8 33V3C8 1.89543 8.89543 1 10 1Z" fill="white"/>
<path d="M10 1H152C153.105 1 154 1.89543 154 3V33C154 34.1046 153.105 35 152 35H10C8.89543 35 8 34.1046 8 33V3C8 1.89543 8.89543 1 10 1Z" stroke="#0066CC" stroke-width="2"/>
<path d="M24.424 24V12.8H32.072V13.888H25.656V17.808H30.104V18.88H25.656V22.912H32.136V24H24.424ZM37.0418 24.112C36.3698 24.112 35.7618 23.936 35.2178 23.584C34.6738 23.2213 34.2418 22.7413 33.9218 22.144C33.6018 21.536 33.4418 20.8587 33.4418 20.112C33.4418 19.3547 33.6018 18.6773 33.9218 18.08C34.2524 17.472 34.6951 16.992 35.2498 16.64C35.8044 16.2773 36.4231 16.096 37.1058 16.096C37.5858 16.096 38.0338 16.192 38.4498 16.384C38.8658 16.5653 39.2284 16.832 39.5378 17.184V12.448L40.7058 12.208V24H39.5378V22.96C39.2391 23.3333 38.8764 23.6213 38.4498 23.824C38.0231 24.016 37.5538 24.112 37.0418 24.112ZM37.3298 23.088C37.7884 23.088 38.2098 22.9973 38.5938 22.816C38.9778 22.6347 39.2924 22.3787 39.5378 22.048V18.176C39.2818 17.8453 38.9564 17.5893 38.5618 17.408C38.1778 17.216 37.7671 17.12 37.3298 17.12C36.8071 17.12 36.3378 17.248 35.9218 17.504C35.5164 17.76 35.1911 18.112 34.9457 18.56C34.7111 19.008 34.5938 19.52 34.5938 20.096C34.5938 20.6613 34.7111 21.1733 34.9457 21.632C35.1911 22.08 35.5164 22.4373 35.9218 22.704C36.3378 22.96 36.8071 23.088 37.3298 23.088ZM43.0903 24V16.192H44.2582V24H43.0903ZM43.6823 14.256C43.4476 14.256 43.2449 14.176 43.0743 14.016C42.9143 13.8453 42.8343 13.648 42.8343 13.424C42.8343 13.2 42.9143 13.008 43.0743 12.848C43.2449 12.6773 43.4476 12.592 43.6823 12.592C43.9169 12.592 44.1143 12.6773 44.2743 12.848C44.4449 13.008 44.5303 13.2 44.5303 13.424C44.5303 13.648 44.4449 13.8453 44.2743 14.016C44.1143 14.176 43.9169 14.256 43.6823 14.256ZM49.6291 24.16C48.9571 24.16 48.4451 24 48.0931 23.68C47.7518 23.3493 47.5811 22.8747 47.5811 22.256V17.152H45.9651V16.192H47.5811V14.048L48.7491 13.776V16.192H50.9891V17.152H48.7491V21.952C48.7491 22.368 48.8345 22.6667 49.0051 22.848C49.1865 23.0293 49.4798 23.12 49.8851 23.12C50.0878 23.12 50.2691 23.104 50.4291 23.072C50.5891 23.04 50.7758 22.9867 50.9891 22.912V23.952C50.7758 24.0267 50.5518 24.08 50.3171 24.112C50.0825 24.144 49.8531 24.16 49.6291 24.16Z" fill="#151515"/>
<g clip-path="url(#clip0_8079_4041)">
<path d="M137.8 20.9999C137.647 20.9999 137.493 20.9413 137.376 20.8241L133 16.4483L128.624 20.8241C128.39 21.0585 128.01 21.0585 127.776 20.8241C127.541 20.5898 127.542 20.2101 127.776 19.9757L132.364 15.3878C132.714 15.0368 133.286 15.0368 133.636 15.3878L138.224 19.9757C138.459 20.21 138.459 20.5897 138.224 20.8241C138.107 20.9413 137.954 20.9999 137.8 20.9999Z" fill="#151515"/>
</g>
<g filter="url(#filter0_d_8079_4041)">
<g clip-path="url(#clip1_8079_4041)">
<path d="M7 43C7 41.3432 8.34315 40 10 40H152C153.657 40 155 41.3431 155 43V405C155 406.657 153.657 408 152 408H10C8.34315 408 7 406.657 7 405V43Z" fill="white"/>
<path d="M28.696 74.176C27.7787 74.176 26.9787 73.9787 26.296 73.584C25.624 73.1787 25.1067 72.608 24.744 71.872C24.3813 71.136 24.2 70.2667 24.2 69.264V62.8H25.432V69.264C25.432 70.032 25.5653 70.6987 25.832 71.264C26.0987 71.8293 26.4773 72.272 26.968 72.592C27.4587 72.9013 28.0347 73.056 28.696 73.056C29.3573 73.056 29.9333 72.9013 30.424 72.592C30.9147 72.272 31.2933 71.8293 31.56 71.264C31.8267 70.6987 31.96 70.032 31.96 69.264V62.8H33.192V69.264C33.192 70.2667 33.0107 71.136 32.648 71.872C32.2853 72.608 31.768 73.1787 31.096 73.584C30.424 73.9787 29.624 74.176 28.696 74.176ZM35.5906 74V66.192H36.7586V67.456C37.0573 66.9867 37.4146 66.64 37.8306 66.416C38.2466 66.1813 38.716 66.064 39.2386 66.064C39.804 66.064 40.2946 66.1867 40.7106 66.432C41.1373 66.6667 41.468 67.0027 41.7026 67.44C41.948 67.8667 42.0706 68.368 42.0706 68.944V74H40.9026V69.28C40.9026 68.5867 40.7106 68.0427 40.3266 67.648C39.9533 67.2427 39.4466 67.04 38.8066 67.04C38.38 67.04 37.9906 67.1413 37.6386 67.344C37.2866 67.5467 36.9933 67.8453 36.7586 68.24V74H35.5906ZM47.6668 74.112C46.9948 74.112 46.3868 73.936 45.8428 73.584C45.2988 73.2213 44.8668 72.7413 44.5468 72.144C44.2268 71.536 44.0668 70.8587 44.0668 70.112C44.0668 69.3547 44.2268 68.6773 44.5468 68.08C44.8774 67.472 45.3201 66.992 45.8748 66.64C46.4294 66.2773 47.0481 66.096 47.7308 66.096C48.2108 66.096 48.6588 66.192 49.0748 66.384C49.4908 66.5653 49.8534 66.832 50.1628 67.184V62.448L51.3308 62.208V74H50.1628V72.96C49.8641 73.3333 49.5014 73.6213 49.0748 73.824C48.6481 74.016 48.1788 74.112 47.6668 74.112ZM47.9548 73.088C48.4134 73.088 48.8348 72.9973 49.2188 72.816C49.6028 72.6347 49.9174 72.3787 50.1628 72.048V68.176C49.9068 67.8453 49.5814 67.5893 49.1868 67.408C48.8028 67.216 48.3921 67.12 47.9548 67.12C47.4321 67.12 46.9628 67.248 46.5468 67.504C46.1414 67.76 45.8161 68.112 45.5707 68.56C45.3361 69.008 45.2188 69.52 45.2188 70.096C45.2188 70.6613 45.3361 71.1733 45.5707 71.632C45.8161 72.08 46.1414 72.4373 46.5468 72.704C46.9628 72.96 47.4321 73.088 47.9548 73.088ZM57.1873 74.128C56.4619 74.128 55.8113 73.952 55.2353 73.6C54.6593 73.248 54.2059 72.768 53.8753 72.16C53.5446 71.552 53.3793 70.864 53.3793 70.096C53.3793 69.328 53.5446 68.64 53.8753 68.032C54.2059 67.424 54.6593 66.944 55.2353 66.592C55.8113 66.24 56.4619 66.064 57.1873 66.064C57.9019 66.064 58.5419 66.24 59.1073 66.592C59.6833 66.944 60.1366 67.424 60.4673 68.032C60.7979 68.64 60.9633 69.328 60.9633 70.096C60.9633 70.864 60.7979 71.552 60.4673 72.16C60.1366 72.768 59.6833 73.248 59.1073 73.6C58.5419 73.952 57.9019 74.128 57.1873 74.128ZM57.1713 73.104C57.6833 73.104 58.1366 72.976 58.5313 72.72C58.9259 72.4533 59.2353 72.0907 59.4593 71.632C59.6939 71.1733 59.8113 70.6613 59.8113 70.096C59.8113 69.52 59.6939 69.008 59.4593 68.56C59.2353 68.1013 58.9259 67.744 58.5313 67.488C58.1366 67.2213 57.6833 67.088 57.1713 67.088C56.6593 67.088 56.2059 67.2213 55.8113 67.488C55.4166 67.744 55.1019 68.1013 54.8673 68.56C54.6433 69.008 54.5312 69.52 54.5312 70.096C54.5312 70.6613 54.6433 71.1733 54.8673 71.632C55.1019 72.0907 55.4166 72.4533 55.8113 72.72C56.2059 72.976 56.6593 73.104 57.1713 73.104Z" fill="#151515"/>
<path d="M24.424 114V102.8H29.016C29.7307 102.8 30.3547 102.939 30.888 103.216C31.4213 103.483 31.8373 103.856 32.136 104.336C32.4347 104.816 32.584 105.381 32.584 106.032C32.584 106.779 32.376 107.419 31.96 107.952C31.544 108.475 30.9733 108.843 30.248 109.056L32.632 114H31.272L29 109.216H25.656V114H24.424ZM25.656 108.192H28.92C29.656 108.192 30.2427 108 30.68 107.616C31.128 107.221 31.352 106.699 31.352 106.048C31.352 105.387 31.128 104.864 30.68 104.48C30.2427 104.085 29.656 103.888 28.92 103.888H25.656V108.192ZM37.6731 114.16C36.9478 114.16 36.2918 113.984 35.7051 113.632C35.1185 113.269 34.6545 112.784 34.3131 112.176C33.9718 111.557 33.8011 110.864 33.8011 110.096C33.8011 109.328 33.9611 108.64 34.2811 108.032C34.6118 107.424 35.0545 106.944 35.6091 106.592C36.1638 106.24 36.7825 106.064 37.4651 106.064C38.1585 106.064 38.7718 106.24 39.3051 106.592C39.8491 106.933 40.2758 107.403 40.5851 108C40.9051 108.587 41.0651 109.253 41.0651 110V110.352H34.9371C34.9798 110.885 35.1238 111.365 35.3691 111.792C35.6251 112.208 35.9558 112.539 36.3611 112.784C36.7771 113.019 37.2305 113.136 37.7211 113.136C38.1265 113.136 38.5158 113.067 38.8891 112.928C39.2731 112.779 39.5985 112.581 39.8651 112.336L40.6011 113.12C40.1531 113.472 39.6891 113.733 39.2091 113.904C38.7291 114.075 38.2171 114.16 37.6731 114.16ZM34.9691 109.52H39.9131C39.8598 109.051 39.7158 108.635 39.4811 108.272C39.2571 107.899 38.9691 107.605 38.6171 107.392C38.2758 107.179 37.8918 107.072 37.4651 107.072C37.0385 107.072 36.6491 107.179 36.2971 107.392C35.9451 107.595 35.6518 107.883 35.4171 108.256C35.1931 108.619 35.0438 109.04 34.9691 109.52ZM46.3074 114.112C45.6354 114.112 45.0274 113.936 44.4834 113.584C43.9394 113.221 43.5074 112.741 43.1874 112.144C42.8674 111.536 42.7074 110.859 42.7074 110.112C42.7074 109.355 42.8674 108.677 43.1874 108.08C43.518 107.472 43.9607 106.992 44.5154 106.64C45.07 106.277 45.6887 106.096 46.3714 106.096C46.8514 106.096 47.2994 106.192 47.7154 106.384C48.1314 106.565 48.494 106.832 48.8034 107.184V102.448L49.9714 102.208V114H48.8034V112.96C48.5047 113.333 48.142 113.621 47.7154 113.824C47.2887 114.016 46.8194 114.112 46.3074 114.112ZM46.5954 113.088C47.054 113.088 47.4754 112.997 47.8594 112.816C48.2434 112.635 48.558 112.379 48.8034 112.048V108.176C48.5474 107.845 48.222 107.589 47.8274 107.408C47.4434 107.216 47.0327 107.12 46.5954 107.12C46.0727 107.12 45.6034 107.248 45.1874 107.504C44.782 107.76 44.4567 108.112 44.2114 108.56C43.9767 109.008 43.8594 109.52 43.8594 110.096C43.8594 110.661 43.9767 111.173 44.2114 111.632C44.4567 112.08 44.782 112.437 45.1874 112.704C45.6034 112.96 46.0727 113.088 46.5954 113.088ZM55.8279 114.128C55.1025 114.128 54.4519 113.952 53.8759 113.6C53.2999 113.248 52.8465 112.768 52.5159 112.16C52.1852 111.552 52.0199 110.864 52.0199 110.096C52.0199 109.328 52.1852 108.64 52.5159 108.032C52.8465 107.424 53.2999 106.944 53.8759 106.592C54.4519 106.24 55.1025 106.064 55.8279 106.064C56.5425 106.064 57.1825 106.24 57.7479 106.592C58.3239 106.944 58.7772 107.424 59.1079 108.032C59.4385 108.64 59.6039 109.328 59.6039 110.096C59.6039 110.864 59.4385 111.552 59.1079 112.16C58.7772 112.768 58.3239 113.248 57.7479 113.6C57.1825 113.952 56.5425 114.128 55.8279 114.128ZM55.8119 113.104C56.3239 113.104 56.7772 112.976 57.1719 112.72C57.5665 112.453 57.8759 112.091 58.0999 111.632C58.3345 111.173 58.4519 110.661 58.4519 110.096C58.4519 109.52 58.3345 109.008 58.0999 108.56C57.8759 108.101 57.5665 107.744 57.1719 107.488C56.7772 107.221 56.3239 107.088 55.8119 107.088C55.2999 107.088 54.8465 107.221 54.4519 107.488C54.0572 107.744 53.7425 108.101 53.5079 108.56C53.2839 109.008 53.1719 109.52 53.1719 110.096C53.1719 110.661 53.2839 111.173 53.5079 111.632C53.7425 112.091 54.0572 112.453 54.4519 112.72C54.8465 112.976 55.2999 113.104 55.8119 113.104Z" fill="#151515"/>
<mask id="path-10-inside-1_8079_4041" fill="white">
<path d="M7 136H155V352H7V136Z"/>
</mask>
<path d="M7 136V137H155V136V135H7V136Z" fill="#C7C7C7" mask="url(#path-10-inside-1_8079_4041)"/>
<path d="M29.592 170.176C28.792 170.176 28.0453 170.032 27.352 169.744C26.6693 169.445 26.0667 169.035 25.544 168.512C25.0213 167.979 24.616 167.365 24.328 166.672C24.04 165.968 23.896 165.211 23.896 164.4C23.896 163.589 24.04 162.837 24.328 162.144C24.616 161.44 25.0213 160.827 25.544 160.304C26.0667 159.771 26.6693 159.36 27.352 159.072C28.0453 158.773 28.792 158.624 29.592 158.624C30.1467 158.624 30.6747 158.699 31.176 158.848C31.688 158.987 32.168 159.195 32.616 159.472C33.064 159.739 33.464 160.069 33.816 160.464L33 161.312C32.584 160.811 32.072 160.427 31.464 160.16C30.8667 159.883 30.2427 159.744 29.592 159.744C28.9627 159.744 28.376 159.861 27.832 160.096C27.288 160.331 26.8133 160.661 26.408 161.088C26.0133 161.515 25.704 162.011 25.48 162.576C25.256 163.131 25.144 163.739 25.144 164.4C25.144 165.051 25.256 165.659 25.48 166.224C25.704 166.789 26.0133 167.285 26.408 167.712C26.8133 168.139 27.288 168.469 27.832 168.704C28.376 168.939 28.9627 169.056 29.592 169.056C30.2427 169.056 30.8667 168.917 31.464 168.64C32.072 168.363 32.584 167.979 33 167.488L33.816 168.336C33.464 168.731 33.064 169.067 32.616 169.344C32.168 169.611 31.688 169.819 31.176 169.968C30.6747 170.107 30.1467 170.176 29.592 170.176ZM38.359 170.128C37.8043 170.128 37.3137 170.005 36.887 169.76C36.4603 169.515 36.1243 169.173 35.879 168.736C35.6443 168.299 35.527 167.797 35.527 167.232V162.192H36.711V166.896C36.711 167.589 36.8977 168.139 37.271 168.544C37.6443 168.949 38.151 169.152 38.791 169.152C39.2283 169.152 39.6177 169.051 39.959 168.848C40.311 168.645 40.6043 168.352 40.839 167.968V162.192H42.007V170H40.839V168.736C40.5403 169.195 40.183 169.541 39.767 169.776C39.3617 170.011 38.8923 170.128 38.359 170.128ZM47.3791 170.16C46.7071 170.16 46.1951 170 45.8431 169.68C45.5018 169.349 45.3311 168.875 45.3311 168.256V163.152H43.7151V162.192H45.3311V160.048L46.4991 159.776V162.192H48.7391V163.152H46.4991V167.952C46.4991 168.368 46.5845 168.667 46.7551 168.848C46.9365 169.029 47.2298 169.12 47.6351 169.12C47.8378 169.12 48.0191 169.104 48.1791 169.072C48.3391 169.04 48.5258 168.987 48.7391 168.912V169.952C48.5258 170.027 48.3018 170.08 48.0671 170.112C47.8325 170.144 47.6031 170.16 47.3791 170.16Z" fill="#151515"/>
<path d="M29.592 210.176C28.792 210.176 28.0453 210.032 27.352 209.744C26.6693 209.445 26.0667 209.035 25.544 208.512C25.0213 207.979 24.616 207.365 24.328 206.672C24.04 205.968 23.896 205.211 23.896 204.4C23.896 203.589 24.04 202.837 24.328 202.144C24.616 201.44 25.0213 200.827 25.544 200.304C26.0667 199.771 26.6693 199.36 27.352 199.072C28.0453 198.773 28.792 198.624 29.592 198.624C30.1467 198.624 30.6747 198.699 31.176 198.848C31.688 198.987 32.168 199.195 32.616 199.472C33.064 199.739 33.464 200.069 33.816 200.464L33 201.312C32.584 200.811 32.072 200.427 31.464 200.16C30.8667 199.883 30.2427 199.744 29.592 199.744C28.9627 199.744 28.376 199.861 27.832 200.096C27.288 200.331 26.8133 200.661 26.408 201.088C26.0133 201.515 25.704 202.011 25.48 202.576C25.256 203.131 25.144 203.739 25.144 204.4C25.144 205.051 25.256 205.659 25.48 206.224C25.704 206.789 26.0133 207.285 26.408 207.712C26.8133 208.139 27.288 208.469 27.832 208.704C28.376 208.939 28.9627 209.056 29.592 209.056C30.2427 209.056 30.8667 208.917 31.464 208.64C32.072 208.363 32.584 207.979 33 207.488L33.816 208.336C33.464 208.731 33.064 209.067 32.616 209.344C32.168 209.611 31.688 209.819 31.176 209.968C30.6747 210.107 30.1467 210.176 29.592 210.176ZM39.031 210.128C38.3057 210.128 37.655 209.952 37.079 209.6C36.503 209.248 36.0497 208.768 35.719 208.16C35.3883 207.552 35.223 206.864 35.223 206.096C35.223 205.328 35.3883 204.64 35.719 204.032C36.0497 203.424 36.503 202.944 37.079 202.592C37.655 202.24 38.3057 202.064 39.031 202.064C39.7457 202.064 40.3857 202.24 40.951 202.592C41.527 202.944 41.9803 203.424 42.311 204.032C42.6417 204.64 42.807 205.328 42.807 206.096C42.807 206.864 42.6417 207.552 42.311 208.16C41.9803 208.768 41.527 209.248 40.951 209.6C40.3857 209.952 39.7457 210.128 39.031 210.128ZM39.015 209.104C39.527 209.104 39.9803 208.976 40.375 208.72C40.7697 208.453 41.079 208.091 41.303 207.632C41.5377 207.173 41.655 206.661 41.655 206.096C41.655 205.52 41.5377 205.008 41.303 204.56C41.079 204.101 40.7697 203.744 40.375 203.488C39.9803 203.221 39.527 203.088 39.015 203.088C38.503 203.088 38.0497 203.221 37.655 203.488C37.2603 203.744 36.9457 204.101 36.711 204.56C36.487 205.008 36.375 205.52 36.375 206.096C36.375 206.661 36.487 207.173 36.711 207.632C36.9457 208.091 37.2603 208.453 37.655 208.72C38.0497 208.976 38.503 209.104 39.015 209.104ZM44.8563 213.344V202.192H46.0082V203.312C46.3069 202.917 46.6696 202.619 47.0963 202.416C47.5336 202.203 48.0136 202.096 48.5363 202.096C49.2189 202.096 49.8269 202.277 50.3603 202.64C50.9043 202.992 51.3363 203.472 51.6562 204.08C51.9763 204.677 52.1363 205.349 52.1363 206.096C52.1363 206.843 51.9709 207.52 51.6403 208.128C51.3203 208.736 50.8829 209.221 50.3283 209.584C49.7843 209.936 49.1656 210.112 48.4723 210.112C47.9816 210.112 47.5283 210.021 47.1123 209.84C46.6963 209.648 46.3336 209.376 46.0243 209.024V213.344H44.8563ZM48.2483 209.104C48.7709 209.104 49.2349 208.976 49.6403 208.72C50.0563 208.453 50.3816 208.096 50.6163 207.648C50.8616 207.189 50.9843 206.677 50.9843 206.112C50.9843 205.536 50.8616 205.024 50.6163 204.576C50.3816 204.128 50.0563 203.776 49.6403 203.52C49.2349 203.253 48.7709 203.12 48.2483 203.12C47.7896 203.12 47.3629 203.216 46.9683 203.408C46.5843 203.589 46.2696 203.851 46.0243 204.192V208.016C46.2803 208.357 46.6003 208.624 46.9843 208.816C47.3789 209.008 47.8003 209.104 48.2483 209.104ZM54.286 213.504C54.0407 213.504 53.79 213.467 53.534 213.392V212.352C53.6407 212.373 53.7527 212.389 53.87 212.4C53.9873 212.411 54.0887 212.416 54.174 212.416C54.4727 212.416 54.718 212.336 54.91 212.176C55.1127 212.016 55.2833 211.765 55.422 211.424L55.998 210L52.99 202.192H54.286L56.654 208.608L59.166 202.192H60.462L56.526 211.776C56.3553 212.192 56.1687 212.528 55.966 212.784C55.7633 213.04 55.5287 213.221 55.262 213.328C54.9953 213.445 54.67 213.504 54.286 213.504Z" fill="#151515"/>
<path d="M24.424 250V238.8H29.048C29.7733 238.8 30.4027 238.939 30.936 239.216C31.4693 239.483 31.88 239.867 32.168 240.368C32.4667 240.859 32.616 241.44 32.616 242.112C32.616 242.773 32.4667 243.355 32.168 243.856C31.88 244.357 31.4693 244.747 30.936 245.024C30.4027 245.291 29.7733 245.424 29.048 245.424H25.656V250H24.424ZM25.656 244.368H28.904C29.6827 244.368 30.2907 244.165 30.728 243.76C31.1653 243.355 31.384 242.805 31.384 242.112C31.384 241.419 31.1653 240.875 30.728 240.48C30.2907 240.085 29.6827 239.888 28.904 239.888H25.656V244.368ZM36.6785 250.144C36.1238 250.144 35.6332 250.043 35.2065 249.84C34.7798 249.637 34.4438 249.36 34.1985 249.008C33.9638 248.645 33.8465 248.229 33.8465 247.76C33.8465 247.291 33.9692 246.885 34.2145 246.544C34.4598 246.192 34.8012 245.92 35.2385 245.728C35.6758 245.536 36.1878 245.44 36.7745 245.44C37.2225 245.44 37.6438 245.488 38.0385 245.584C38.4438 245.68 38.8172 245.835 39.1585 246.048V244.976C39.1585 244.336 38.9878 243.856 38.6465 243.536C38.3052 243.205 37.8038 243.04 37.1425 243.04C36.7798 243.04 36.4065 243.093 36.0225 243.2C35.6492 243.307 35.2332 243.477 34.7745 243.712L34.3425 242.816C35.3878 242.315 36.3692 242.064 37.2865 242.064C38.2572 242.064 39.0038 242.304 39.5265 242.784C40.0492 243.253 40.3105 243.931 40.3105 244.816V250H39.1585V249.088C38.8172 249.44 38.4385 249.707 38.0225 249.888C37.6065 250.059 37.1585 250.144 36.6785 250.144ZM34.9665 247.728C34.9665 248.187 35.1425 248.555 35.4945 248.832C35.8572 249.109 36.3318 249.248 36.9185 249.248C37.3558 249.248 37.7558 249.173 38.1185 249.024C38.4918 248.875 38.8385 248.651 39.1585 248.352V246.848C38.8278 246.656 38.4865 246.517 38.1345 246.432C37.7825 246.336 37.3878 246.288 36.9505 246.288C36.3532 246.288 35.8732 246.421 35.5105 246.688C35.1478 246.944 34.9665 247.291 34.9665 247.728ZM45.1004 250.16C44.4604 250.16 43.8684 250.064 43.3244 249.872C42.7804 249.669 42.3164 249.381 41.9324 249.008L42.5564 248.24C43.0257 248.581 43.4577 248.832 43.8524 248.992C44.247 249.141 44.6524 249.216 45.0684 249.216C45.6337 249.216 46.103 249.083 46.4764 248.816C46.8497 248.549 47.0364 248.208 47.0364 247.792C47.0364 247.472 46.9244 247.221 46.7004 247.04C46.487 246.859 46.1297 246.72 45.6284 246.624L44.3484 246.4C43.591 246.261 43.031 246.027 42.6684 245.696C42.3164 245.365 42.1404 244.917 42.1404 244.352C42.1404 243.904 42.2577 243.509 42.4924 243.168C42.7377 242.827 43.0737 242.56 43.5004 242.368C43.927 242.165 44.4124 242.064 44.9564 242.064C45.4897 242.064 45.9964 242.144 46.4764 242.304C46.9564 242.453 47.4417 242.699 47.9324 243.04L47.3564 243.856C46.951 243.568 46.5457 243.36 46.1404 243.232C45.735 243.093 45.3244 243.024 44.9084 243.024C44.3964 243.024 43.9857 243.136 43.6764 243.36C43.367 243.584 43.2124 243.888 43.2124 244.272C43.2124 244.592 43.3084 244.837 43.5004 245.008C43.703 245.179 44.055 245.307 44.5564 245.392L45.8684 245.632C46.6577 245.771 47.2337 246.011 47.5964 246.352C47.959 246.693 48.1404 247.152 48.1404 247.728C48.1404 248.187 48.007 248.603 47.7404 248.976C47.4737 249.339 47.111 249.627 46.6524 249.84C46.1937 250.053 45.6764 250.16 45.1004 250.16ZM52.7385 250.16C52.0665 250.16 51.5545 250 51.2025 249.68C50.8612 249.349 50.6905 248.875 50.6905 248.256V243.152H49.0745V242.192H50.6905V240.048L51.8585 239.776V242.192H54.0985V243.152H51.8585V247.952C51.8585 248.368 51.9438 248.667 52.1145 248.848C52.2958 249.029 52.5892 249.12 52.9945 249.12C53.1972 249.12 53.3785 249.104 53.5385 249.072C53.6985 249.04 53.8852 248.987 54.0985 248.912V249.952C53.8852 250.027 53.6612 250.08 53.4265 250.112C53.1918 250.144 52.9625 250.16 52.7385 250.16ZM59.1731 250.16C58.4478 250.16 57.7918 249.984 57.2051 249.632C56.6185 249.269 56.1545 248.784 55.8131 248.176C55.4718 247.557 55.3011 246.864 55.3011 246.096C55.3011 245.328 55.4611 244.64 55.7811 244.032C56.1118 243.424 56.5545 242.944 57.1091 242.592C57.6638 242.24 58.2825 242.064 58.9651 242.064C59.6585 242.064 60.2718 242.24 60.8051 242.592C61.3491 242.933 61.7758 243.403 62.0851 244C62.4051 244.587 62.5651 245.253 62.5651 246V246.352H56.4371C56.4798 246.885 56.6238 247.365 56.8691 247.792C57.1251 248.208 57.4558 248.539 57.8611 248.784C58.2771 249.019 58.7305 249.136 59.2211 249.136C59.6265 249.136 60.0158 249.067 60.3891 248.928C60.7731 248.779 61.0985 248.581 61.3651 248.336L62.1011 249.12C61.6531 249.472 61.1891 249.733 60.7091 249.904C60.2291 250.075 59.7171 250.16 59.1731 250.16ZM56.4691 245.52H61.4131C61.3598 245.051 61.2158 244.635 60.9811 244.272C60.7571 243.899 60.4691 243.605 60.1171 243.392C59.7758 243.179 59.3918 243.072 58.9651 243.072C58.5385 243.072 58.1491 243.179 57.7971 243.392C57.4451 243.595 57.1518 243.883 56.9171 244.256C56.6931 244.619 56.5438 245.04 56.4691 245.52Z" fill="#151515"/>
<path d="M24.424 290V278.8H29.048C29.7733 278.8 30.4027 278.939 30.936 279.216C31.4693 279.483 31.88 279.867 32.168 280.368C32.4667 280.859 32.616 281.44 32.616 282.112C32.616 282.773 32.4667 283.355 32.168 283.856C31.88 284.357 31.4693 284.747 30.936 285.024C30.4027 285.291 29.7733 285.424 29.048 285.424H25.656V290H24.424ZM25.656 284.368H28.904C29.6827 284.368 30.2907 284.165 30.728 283.76C31.1653 283.355 31.384 282.805 31.384 282.112C31.384 281.419 31.1653 280.875 30.728 280.48C30.2907 280.085 29.6827 279.888 28.904 279.888H25.656V284.368ZM36.6785 290.144C36.1238 290.144 35.6332 290.043 35.2065 289.84C34.7798 289.637 34.4438 289.36 34.1985 289.008C33.9638 288.645 33.8465 288.229 33.8465 287.76C33.8465 287.291 33.9692 286.885 34.2145 286.544C34.4598 286.192 34.8012 285.92 35.2385 285.728C35.6758 285.536 36.1878 285.44 36.7745 285.44C37.2225 285.44 37.6438 285.488 38.0385 285.584C38.4438 285.68 38.8172 285.835 39.1585 286.048V284.976C39.1585 284.336 38.9878 283.856 38.6465 283.536C38.3052 283.205 37.8038 283.04 37.1425 283.04C36.7798 283.04 36.4065 283.093 36.0225 283.2C35.6492 283.307 35.2332 283.477 34.7745 283.712L34.3425 282.816C35.3878 282.315 36.3692 282.064 37.2865 282.064C38.2572 282.064 39.0038 282.304 39.5265 282.784C40.0492 283.253 40.3105 283.931 40.3105 284.816V290H39.1585V289.088C38.8172 289.44 38.4385 289.707 38.0225 289.888C37.6065 290.059 37.1585 290.144 36.6785 290.144ZM34.9665 287.728C34.9665 288.187 35.1425 288.555 35.4945 288.832C35.8572 289.109 36.3318 289.248 36.9185 289.248C37.3558 289.248 37.7558 289.173 38.1185 289.024C38.4918 288.875 38.8385 288.651 39.1585 288.352V286.848C38.8278 286.656 38.4865 286.517 38.1345 286.432C37.7825 286.336 37.3878 286.288 36.9505 286.288C36.3532 286.288 35.8732 286.421 35.5105 286.688C35.1478 286.944 34.9665 287.291 34.9665 287.728ZM45.1004 290.16C44.4604 290.16 43.8684 290.064 43.3244 289.872C42.7804 289.669 42.3164 289.381 41.9324 289.008L42.5564 288.24C43.0257 288.581 43.4577 288.832 43.8524 288.992C44.247 289.141 44.6524 289.216 45.0684 289.216C45.6337 289.216 46.103 289.083 46.4764 288.816C46.8497 288.549 47.0364 288.208 47.0364 287.792C47.0364 287.472 46.9244 287.221 46.7004 287.04C46.487 286.859 46.1297 286.72 45.6284 286.624L44.3484 286.4C43.591 286.261 43.031 286.027 42.6684 285.696C42.3164 285.365 42.1404 284.917 42.1404 284.352C42.1404 283.904 42.2577 283.509 42.4924 283.168C42.7377 282.827 43.0737 282.56 43.5004 282.368C43.927 282.165 44.4124 282.064 44.9564 282.064C45.4897 282.064 45.9964 282.144 46.4764 282.304C46.9564 282.453 47.4417 282.699 47.9324 283.04L47.3564 283.856C46.951 283.568 46.5457 283.36 46.1404 283.232C45.735 283.093 45.3244 283.024 44.9084 283.024C44.3964 283.024 43.9857 283.136 43.6764 283.36C43.367 283.584 43.2124 283.888 43.2124 284.272C43.2124 284.592 43.3084 284.837 43.5004 285.008C43.703 285.179 44.055 285.307 44.5564 285.392L45.8684 285.632C46.6577 285.771 47.2337 286.011 47.5964 286.352C47.959 286.693 48.1404 287.152 48.1404 287.728C48.1404 288.187 48.007 288.603 47.7404 288.976C47.4737 289.339 47.111 289.627 46.6524 289.84C46.1937 290.053 45.6764 290.16 45.1004 290.16ZM52.7385 290.16C52.0665 290.16 51.5545 290 51.2025 289.68C50.8612 289.349 50.6905 288.875 50.6905 288.256V283.152H49.0745V282.192H50.6905V280.048L51.8585 279.776V282.192H54.0985V283.152H51.8585V287.952C51.8585 288.368 51.9438 288.667 52.1145 288.848C52.2958 289.029 52.5892 289.12 52.9945 289.12C53.1972 289.12 53.3785 289.104 53.5385 289.072C53.6985 289.04 53.8852 288.987 54.0985 288.912V289.952C53.8852 290.027 53.6612 290.08 53.4265 290.112C53.1918 290.144 52.9625 290.16 52.7385 290.16ZM59.1731 290.16C58.4478 290.16 57.7918 289.984 57.2051 289.632C56.6185 289.269 56.1545 288.784 55.8131 288.176C55.4718 287.557 55.3011 286.864 55.3011 286.096C55.3011 285.328 55.4611 284.64 55.7811 284.032C56.1118 283.424 56.5545 282.944 57.1091 282.592C57.6638 282.24 58.2825 282.064 58.9651 282.064C59.6585 282.064 60.2718 282.24 60.8051 282.592C61.3491 282.933 61.7758 283.403 62.0851 284C62.4051 284.587 62.5651 285.253 62.5651 286V286.352H56.4371C56.4798 286.885 56.6238 287.365 56.8691 287.792C57.1251 288.208 57.4558 288.539 57.8611 288.784C58.2771 289.019 58.7305 289.136 59.2211 289.136C59.6265 289.136 60.0158 289.067 60.3891 288.928C60.7731 288.779 61.0985 288.581 61.3651 288.336L62.1011 289.12C61.6531 289.472 61.1891 289.733 60.7091 289.904C60.2291 290.075 59.7171 290.16 59.1731 290.16ZM56.4691 285.52H61.4131C61.3598 285.051 61.2158 284.635 60.9811 284.272C60.7571 283.899 60.4691 283.605 60.1171 283.392C59.7758 283.179 59.3918 283.072 58.9651 283.072C58.5385 283.072 58.1491 283.179 57.7971 283.392C57.4451 283.595 57.1518 283.883 56.9171 284.256C56.6931 284.619 56.5438 285.04 56.4691 285.52ZM71.2698 290.16C70.5978 290.16 70.0858 290 69.7338 289.68C69.3924 289.349 69.2218 288.875 69.2218 288.256V283.152H67.6058V282.192H69.2218V280.048L70.3898 279.776V282.192H72.6298V283.152H70.3898V287.952C70.3898 288.368 70.4751 288.667 70.6458 288.848C70.8271 289.029 71.1204 289.12 71.5258 289.12C71.7284 289.12 71.9098 289.104 72.0698 289.072C72.2298 289.04 72.4164 288.987 72.6298 288.912V289.952C72.4164 290.027 72.1924 290.08 71.9578 290.112C71.7231 290.144 71.4938 290.16 71.2698 290.16ZM77.6404 290.128C76.915 290.128 76.2644 289.952 75.6884 289.6C75.1124 289.248 74.659 288.768 74.3284 288.16C73.9977 287.552 73.8324 286.864 73.8324 286.096C73.8324 285.328 73.9977 284.64 74.3284 284.032C74.659 283.424 75.1124 282.944 75.6884 282.592C76.2644 282.24 76.915 282.064 77.6404 282.064C78.355 282.064 78.995 282.24 79.5604 282.592C80.1364 282.944 80.5897 283.424 80.9204 284.032C81.251 284.64 81.4164 285.328 81.4164 286.096C81.4164 286.864 81.251 287.552 80.9204 288.16C80.5897 288.768 80.1364 289.248 79.5604 289.6C78.995 289.952 78.355 290.128 77.6404 290.128ZM77.6244 289.104C78.1364 289.104 78.5897 288.976 78.9844 288.72C79.379 288.453 79.6884 288.091 79.9124 287.632C80.147 287.173 80.2644 286.661 80.2644 286.096C80.2644 285.52 80.147 285.008 79.9124 284.56C79.6884 284.101 79.379 283.744 78.9844 283.488C78.5897 283.221 78.1364 283.088 77.6244 283.088C77.1124 283.088 76.659 283.221 76.2644 283.488C75.8697 283.744 75.555 284.101 75.3204 284.56C75.0964 285.008 74.9844 285.52 74.9844 286.096C74.9844 286.661 75.0964 287.173 75.3204 287.632C75.555 288.091 75.8697 288.453 76.2644 288.72C76.659 288.976 77.1124 289.104 77.6244 289.104ZM87.2 290V282.192H88.368V283.792C88.5707 283.248 88.8587 282.827 89.232 282.528C89.616 282.219 90.0533 282.064 90.544 282.064C90.6827 282.064 90.8107 282.075 90.928 282.096C91.0453 282.107 91.1627 282.133 91.28 282.176V283.232C91.152 283.189 91.0133 283.157 90.864 283.136C90.7253 283.104 90.592 283.088 90.464 283.088C89.984 283.088 89.5627 283.227 89.2 283.504C88.848 283.781 88.5707 284.171 88.368 284.672V290H87.2ZM95.8606 290.16C95.1353 290.16 94.4793 289.984 93.8926 289.632C93.306 289.269 92.842 288.784 92.5006 288.176C92.1593 287.557 91.9886 286.864 91.9886 286.096C91.9886 285.328 92.1486 284.64 92.4686 284.032C92.7993 283.424 93.242 282.944 93.7966 282.592C94.3513 282.24 94.97 282.064 95.6526 282.064C96.346 282.064 96.9593 282.24 97.4926 282.592C98.0366 282.933 98.4633 283.403 98.7726 284C99.0926 284.587 99.2526 285.253 99.2526 286V286.352H93.1246C93.1673 286.885 93.3113 287.365 93.5566 287.792C93.8126 288.208 94.1433 288.539 94.5486 288.784C94.9646 289.019 95.418 289.136 95.9086 289.136C96.314 289.136 96.7033 289.067 97.0766 288.928C97.4606 288.779 97.786 288.581 98.0526 288.336L98.7886 289.12C98.3406 289.472 97.8766 289.733 97.3966 289.904C96.9166 290.075 96.4046 290.16 95.8606 290.16ZM93.1566 285.52H98.1006C98.0473 285.051 97.9033 284.635 97.6686 284.272C97.4446 283.899 97.1566 283.605 96.8046 283.392C96.4633 283.179 96.0793 283.072 95.6526 283.072C95.226 283.072 94.8366 283.179 94.4846 283.392C94.1326 283.595 93.8393 283.883 93.6046 284.256C93.3806 284.619 93.2313 285.04 93.1566 285.52ZM101.247 293.344V282.192H102.399V283.312C102.698 282.917 103.06 282.619 103.487 282.416C103.924 282.203 104.404 282.096 104.927 282.096C105.61 282.096 106.218 282.277 106.751 282.64C107.295 282.992 107.727 283.472 108.047 284.08C108.367 284.677 108.527 285.349 108.527 286.096C108.527 286.843 108.362 287.52 108.031 288.128C107.711 288.736 107.274 289.221 106.719 289.584C106.175 289.936 105.556 290.112 104.863 290.112C104.372 290.112 103.919 290.021 103.503 289.84C103.087 289.648 102.724 289.376 102.415 289.024V293.344H101.247ZM104.639 289.104C105.162 289.104 105.626 288.976 106.031 288.72C106.447 288.453 106.772 288.096 107.007 287.648C107.252 287.189 107.375 286.677 107.375 286.112C107.375 285.536 107.252 285.024 107.007 284.576C106.772 284.128 106.447 283.776 106.031 283.52C105.626 283.253 105.162 283.12 104.639 283.12C104.18 283.12 103.754 283.216 103.359 283.408C102.975 283.589 102.66 283.851 102.415 284.192V288.016C102.671 288.357 102.991 288.624 103.375 288.816C103.77 289.008 104.191 289.104 104.639 289.104ZM110.575 290V278.448L111.743 278.208V290H110.575ZM116.554 290.144C115.999 290.144 115.508 290.043 115.082 289.84C114.655 289.637 114.319 289.36 114.074 289.008C113.839 288.645 113.722 288.229 113.722 287.76C113.722 287.291 113.844 286.885 114.09 286.544C114.335 286.192 114.676 285.92 115.114 285.728C115.551 285.536 116.063 285.44 116.65 285.44C117.098 285.44 117.519 285.488 117.914 285.584C118.319 285.68 118.692 285.835 119.034 286.048V284.976C119.034 284.336 118.863 283.856 118.522 283.536C118.18 283.205 117.679 283.04 117.018 283.04C116.655 283.04 116.282 283.093 115.898 283.2C115.524 283.307 115.108 283.477 114.65 283.712L114.218 282.816C115.263 282.315 116.244 282.064 117.161 282.064C118.132 282.064 118.879 282.304 119.402 282.784C119.924 283.253 120.186 283.931 120.186 284.816V290H119.034V289.088C118.692 289.44 118.314 289.707 117.898 289.888C117.482 290.059 117.034 290.144 116.554 290.144ZM114.842 287.728C114.842 288.187 115.018 288.555 115.37 288.832C115.732 289.109 116.207 289.248 116.794 289.248C117.231 289.248 117.631 289.173 117.994 289.024C118.367 288.875 118.714 288.651 119.034 288.352V286.848C118.703 286.656 118.362 286.517 118.01 286.432C117.658 286.336 117.263 286.288 116.826 286.288C116.228 286.288 115.748 286.421 115.386 286.688C115.023 286.944 114.842 287.291 114.842 287.728ZM126.063 290.128C125.338 290.128 124.682 289.952 124.095 289.6C123.519 289.237 123.061 288.752 122.719 288.144C122.378 287.525 122.207 286.843 122.207 286.096C122.207 285.339 122.378 284.656 122.719 284.048C123.061 283.44 123.519 282.96 124.095 282.608C124.682 282.245 125.338 282.064 126.063 282.064C126.639 282.064 127.189 282.171 127.711 282.384C128.234 282.597 128.687 282.896 129.071 283.28L128.319 284.096C128.042 283.787 127.706 283.547 127.311 283.376C126.917 283.205 126.517 283.12 126.111 283.12C125.599 283.12 125.135 283.253 124.719 283.52C124.314 283.787 123.989 284.144 123.743 284.592C123.498 285.04 123.375 285.541 123.375 286.096C123.375 286.651 123.498 287.152 123.743 287.6C123.989 288.048 124.314 288.405 124.719 288.672C125.135 288.939 125.599 289.072 126.111 289.072C126.517 289.072 126.917 288.987 127.311 288.816C127.706 288.635 128.042 288.395 128.319 288.096L129.071 288.912C128.687 289.296 128.234 289.595 127.711 289.808C127.189 290.021 126.639 290.128 126.063 290.128ZM133.986 290.16C133.26 290.16 132.604 289.984 132.018 289.632C131.431 289.269 130.967 288.784 130.626 288.176C130.284 287.557 130.114 286.864 130.114 286.096C130.114 285.328 130.274 284.64 130.594 284.032C130.924 283.424 131.367 282.944 131.922 282.592C132.476 282.24 133.095 282.064 133.778 282.064C134.471 282.064 135.084 282.24 135.618 282.592C136.162 282.933 136.588 283.403 136.898 284C137.218 284.587 137.378 285.253 137.378 286V286.352H131.25C131.292 286.885 131.436 287.365 131.682 287.792C131.938 288.208 132.268 288.539 132.674 288.784C133.09 289.019 133.543 289.136 134.034 289.136C134.439 289.136 134.828 289.067 135.202 288.928C135.586 288.779 135.911 288.581 136.178 288.336L136.914 289.12C136.466 289.472 136.002 289.733 135.522 289.904C135.042 290.075 134.53 290.16 133.986 290.16ZM131.282 285.52H136.226C136.172 285.051 136.028 284.635 135.794 284.272C135.57 283.899 135.282 283.605 134.93 283.392C134.588 283.179 134.204 283.072 133.778 283.072C133.351 283.072 132.962 283.179 132.61 283.392C132.258 283.595 131.964 283.883 131.73 284.256C131.506 284.619 131.356 285.04 131.282 285.52Z" fill="#151515"/>
<path d="M25.656 328.896H28.216C29.0267 328.896 29.752 328.699 30.392 328.304C31.032 327.909 31.5387 327.376 31.912 326.704C32.296 326.021 32.488 325.253 32.488 324.4C32.488 323.547 32.296 322.784 31.912 322.112C31.5387 321.429 31.032 320.891 30.392 320.496C29.752 320.101 29.0267 319.904 28.216 319.904H25.656V328.896ZM24.424 330V318.8H28.136C28.9573 318.8 29.7093 318.944 30.392 319.232C31.0853 319.509 31.6773 319.904 32.168 320.416C32.6693 320.917 33.0533 321.509 33.32 322.192C33.5973 322.864 33.736 323.6 33.736 324.4C33.736 325.2 33.5973 325.941 33.32 326.624C33.0533 327.296 32.6693 327.888 32.168 328.4C31.6773 328.901 31.0853 329.296 30.392 329.584C29.7093 329.861 28.9573 330 28.136 330H24.424ZM38.6246 330.128C38.07 330.128 37.5793 330.005 37.1526 329.76C36.726 329.515 36.39 329.173 36.1446 328.736C35.91 328.299 35.7926 327.797 35.7926 327.232V322.192H36.9766V326.896C36.9766 327.589 37.1633 328.139 37.5366 328.544C37.91 328.949 38.4166 329.152 39.0566 329.152C39.494 329.152 39.8833 329.051 40.2246 328.848C40.5766 328.645 40.87 328.352 41.1046 327.968V322.192H42.2726V330H41.1046V328.736C40.806 329.195 40.4486 329.541 40.0326 329.776C39.6273 330.011 39.158 330.128 38.6246 330.128ZM44.6688 333.344V322.192H45.8207V323.312C46.1194 322.917 46.4821 322.619 46.9088 322.416C47.3461 322.203 47.8261 322.096 48.3488 322.096C49.0314 322.096 49.6394 322.277 50.1728 322.64C50.7168 322.992 51.1488 323.472 51.4688 324.08C51.7888 324.677 51.9488 325.349 51.9488 326.096C51.9488 326.843 51.7834 327.52 51.4528 328.128C51.1328 328.736 50.6954 329.221 50.1408 329.584C49.5968 329.936 48.9781 330.112 48.2848 330.112C47.7941 330.112 47.3408 330.021 46.9248 329.84C46.5088 329.648 46.1461 329.376 45.8368 329.024V333.344H44.6688ZM48.0608 329.104C48.5834 329.104 49.0474 328.976 49.4528 328.72C49.8688 328.453 50.1941 328.096 50.4288 327.648C50.6741 327.189 50.7968 326.677 50.7968 326.112C50.7968 325.536 50.6741 325.024 50.4288 324.576C50.1941 324.128 49.8688 323.776 49.4528 323.52C49.0474 323.253 48.5834 323.12 48.0608 323.12C47.6021 323.12 47.1754 323.216 46.7808 323.408C46.3968 323.589 46.0821 323.851 45.8368 324.192V328.016C46.0928 328.357 46.4128 328.624 46.7968 328.816C47.1914 329.008 47.6128 329.104 48.0608 329.104ZM53.9969 330V318.448L55.1649 318.208V330H53.9969ZM57.5434 330V322.192H58.7114V330H57.5434ZM58.1354 320.256C57.9007 320.256 57.698 320.176 57.5274 320.016C57.3674 319.845 57.2874 319.648 57.2874 319.424C57.2874 319.2 57.3674 319.008 57.5274 318.848C57.698 318.677 57.9007 318.592 58.1354 318.592C58.37 318.592 58.5674 318.677 58.7274 318.848C58.898 319.008 58.9834 319.2 58.9834 319.424C58.9834 319.648 58.898 319.845 58.7274 320.016C58.5674 320.176 58.37 320.256 58.1354 320.256ZM64.6102 330.128C63.8849 330.128 63.2289 329.952 62.6423 329.6C62.0663 329.237 61.6076 328.752 61.2663 328.144C60.9249 327.525 60.7543 326.843 60.7543 326.096C60.7543 325.339 60.9249 324.656 61.2663 324.048C61.6076 323.44 62.0663 322.96 62.6423 322.608C63.2289 322.245 63.8849 322.064 64.6102 322.064C65.1863 322.064 65.7356 322.171 66.2583 322.384C66.7809 322.597 67.2343 322.896 67.6183 323.28L66.8663 324.096C66.5889 323.787 66.2529 323.547 65.8583 323.376C65.4636 323.205 65.0636 323.12 64.6583 323.12C64.1463 323.12 63.6823 323.253 63.2663 323.52C62.8609 323.787 62.5356 324.144 62.2903 324.592C62.0449 325.04 61.9223 325.541 61.9223 326.096C61.9223 326.651 62.0449 327.152 62.2903 327.6C62.5356 328.048 62.8609 328.405 63.2663 328.672C63.6823 328.939 64.1463 329.072 64.6583 329.072C65.0636 329.072 65.4636 328.987 65.8583 328.816C66.2529 328.635 66.5889 328.395 66.8663 328.096L67.6183 328.912C67.2343 329.296 66.7809 329.595 66.2583 329.808C65.7356 330.021 65.1863 330.128 64.6102 330.128ZM71.6629 330.144C71.1082 330.144 70.6175 330.043 70.1909 329.84C69.7642 329.637 69.4282 329.36 69.1829 329.008C68.9482 328.645 68.8309 328.229 68.8309 327.76C68.8309 327.291 68.9535 326.885 69.1989 326.544C69.4442 326.192 69.7855 325.92 70.2229 325.728C70.6602 325.536 71.1722 325.44 71.7589 325.44C72.2069 325.44 72.6282 325.488 73.0229 325.584C73.4282 325.68 73.8015 325.835 74.1429 326.048V324.976C74.1429 324.336 73.9722 323.856 73.6309 323.536C73.2895 323.205 72.7882 323.04 72.1269 323.04C71.7642 323.04 71.3909 323.093 71.0069 323.2C70.6335 323.307 70.2175 323.477 69.7589 323.712L69.3269 322.816C70.3722 322.315 71.3535 322.064 72.2709 322.064C73.2415 322.064 73.9882 322.304 74.5109 322.784C75.0335 323.253 75.2949 323.931 75.2949 324.816V330H74.1429V329.088C73.8015 329.44 73.4229 329.707 73.0069 329.888C72.5909 330.059 72.1429 330.144 71.6629 330.144ZM69.9509 327.728C69.9509 328.187 70.1269 328.555 70.4789 328.832C70.8415 329.109 71.3162 329.248 71.9029 329.248C72.3402 329.248 72.7402 329.173 73.1029 329.024C73.4762 328.875 73.8229 328.651 74.1429 328.352V326.848C73.8122 326.656 73.4709 326.517 73.1189 326.432C72.7669 326.336 72.3722 326.288 71.9349 326.288C71.3375 326.288 70.8575 326.421 70.4949 326.688C70.1322 326.944 69.9509 327.291 69.9509 327.728ZM80.4104 330.16C79.7384 330.16 79.2264 330 78.8744 329.68C78.533 329.349 78.3624 328.875 78.3624 328.256V323.152H76.7464V322.192H78.3624V320.048L79.5304 319.776V322.192H81.7704V323.152H79.5304V327.952C79.5304 328.368 79.6157 328.667 79.7864 328.848C79.9677 329.029 80.261 329.12 80.6664 329.12C80.869 329.12 81.0504 329.104 81.2104 329.072C81.3704 329.04 81.557 328.987 81.7704 328.912V329.952C81.557 330.027 81.333 330.08 81.0984 330.112C80.8637 330.144 80.6344 330.16 80.4104 330.16ZM86.845 330.16C86.1197 330.16 85.4637 329.984 84.877 329.632C84.2903 329.269 83.8263 328.784 83.485 328.176C83.1437 327.557 82.973 326.864 82.973 326.096C82.973 325.328 83.133 324.64 83.453 324.032C83.7837 323.424 84.2263 322.944 84.781 322.592C85.3357 322.24 85.9543 322.064 86.637 322.064C87.3303 322.064 87.9437 322.24 88.477 322.592C89.021 322.933 89.4477 323.403 89.757 324C90.077 324.587 90.237 325.253 90.237 326V326.352H84.109C84.1517 326.885 84.2957 327.365 84.541 327.792C84.797 328.208 85.1277 328.539 85.533 328.784C85.949 329.019 86.4023 329.136 86.893 329.136C87.2983 329.136 87.6877 329.067 88.061 328.928C88.445 328.779 88.7703 328.581 89.037 328.336L89.773 329.12C89.325 329.472 88.861 329.733 88.381 329.904C87.901 330.075 87.389 330.16 86.845 330.16ZM84.141 325.52H89.085C89.0317 325.051 88.8877 324.635 88.653 324.272C88.429 323.899 88.141 323.605 87.789 323.392C87.4477 323.179 87.0637 323.072 86.637 323.072C86.2103 323.072 85.821 323.179 85.469 323.392C85.117 323.595 84.8237 323.883 84.589 324.256C84.365 324.619 84.2157 325.04 84.141 325.52Z" fill="#151515"/>
<mask id="path-22-inside-2_8079_4041" fill="white">
<path d="M7 352H155V408H7V352Z"/>
</mask>
<path d="M7 352V353H155V352V351H7V352Z" fill="#C7C7C7" mask="url(#path-22-inside-2_8079_4041)"/>
<path d="M25.656 384.896H28.216C29.0267 384.896 29.752 384.699 30.392 384.304C31.032 383.909 31.5387 383.376 31.912 382.704C32.296 382.021 32.488 381.253 32.488 380.4C32.488 379.547 32.296 378.784 31.912 378.112C31.5387 377.429 31.032 376.891 30.392 376.496C29.752 376.101 29.0267 375.904 28.216 375.904H25.656V384.896ZM24.424 386V374.8H28.136C28.9573 374.8 29.7093 374.944 30.392 375.232C31.0853 375.509 31.6773 375.904 32.168 376.416C32.6693 376.917 33.0533 377.509 33.32 378.192C33.5973 378.864 33.736 379.6 33.736 380.4C33.736 381.2 33.5973 381.941 33.32 382.624C33.0533 383.296 32.6693 383.888 32.168 384.4C31.6773 384.901 31.0853 385.296 30.392 385.584C29.7093 385.861 28.9573 386 28.136 386H24.424ZM39.3606 386.16C38.6353 386.16 37.9793 385.984 37.3926 385.632C36.806 385.269 36.342 384.784 36.0006 384.176C35.6593 383.557 35.4886 382.864 35.4886 382.096C35.4886 381.328 35.6486 380.64 35.9686 380.032C36.2993 379.424 36.742 378.944 37.2966 378.592C37.8513 378.24 38.47 378.064 39.1526 378.064C39.846 378.064 40.4593 378.24 40.9926 378.592C41.5366 378.933 41.9633 379.403 42.2726 380C42.5926 380.587 42.7526 381.253 42.7526 382V382.352H36.6246C36.6673 382.885 36.8113 383.365 37.0566 383.792C37.3126 384.208 37.6433 384.539 38.0486 384.784C38.4646 385.019 38.918 385.136 39.4086 385.136C39.814 385.136 40.2033 385.067 40.5766 384.928C40.9606 384.779 41.286 384.581 41.5526 384.336L42.2886 385.12C41.8406 385.472 41.3766 385.733 40.8966 385.904C40.4166 386.075 39.9046 386.16 39.3606 386.16ZM36.6566 381.52H41.6006C41.5473 381.051 41.4033 380.635 41.1686 380.272C40.9446 379.899 40.6566 379.605 40.3046 379.392C39.9633 379.179 39.5793 379.072 39.1526 379.072C38.726 379.072 38.3366 379.179 37.9846 379.392C37.6326 379.595 37.3393 379.883 37.1046 380.256C36.8806 380.619 36.7313 381.04 36.6566 381.52ZM44.7469 386V374.448L45.9149 374.208V386H44.7469ZM51.8294 386.16C51.104 386.16 50.448 385.984 49.8614 385.632C49.2747 385.269 48.8107 384.784 48.4694 384.176C48.128 383.557 47.9574 382.864 47.9574 382.096C47.9574 381.328 48.1174 380.64 48.4374 380.032C48.768 379.424 49.2107 378.944 49.7654 378.592C50.32 378.24 50.9387 378.064 51.6214 378.064C52.3147 378.064 52.928 378.24 53.4614 378.592C54.0054 378.933 54.432 379.403 54.7414 380C55.0614 380.587 55.2214 381.253 55.2214 382V382.352H49.0934C49.136 382.885 49.28 383.365 49.5254 383.792C49.7814 384.208 50.112 384.539 50.5174 384.784C50.9334 385.019 51.3867 385.136 51.8774 385.136C52.2827 385.136 52.672 385.067 53.0454 384.928C53.4294 384.779 53.7547 384.581 54.0214 384.336L54.7574 385.12C54.3094 385.472 53.8454 385.733 53.3654 385.904C52.8854 386.075 52.3734 386.16 51.8294 386.16ZM49.1254 381.52H54.0694C54.016 381.051 53.872 380.635 53.6374 380.272C53.4134 379.899 53.1254 379.605 52.7734 379.392C52.432 379.179 52.048 379.072 51.6214 379.072C51.1947 379.072 50.8054 379.179 50.4534 379.392C50.1014 379.595 49.808 379.883 49.5734 380.256C49.3494 380.619 49.2 381.04 49.1254 381.52ZM59.9573 386.16C59.2853 386.16 58.7733 386 58.4213 385.68C58.0799 385.349 57.9093 384.875 57.9093 384.256V379.152H56.2933V378.192H57.9093V376.048L59.0773 375.776V378.192H61.3173V379.152H59.0773V383.952C59.0773 384.368 59.1626 384.667 59.3333 384.848C59.5146 385.029 59.8079 385.12 60.2133 385.12C60.4159 385.12 60.5973 385.104 60.7573 385.072C60.9173 385.04 61.1039 384.987 61.3173 384.912V385.952C61.1039 386.027 60.8799 386.08 60.6453 386.112C60.4106 386.144 60.1813 386.16 59.9573 386.16ZM66.3919 386.16C65.6665 386.16 65.0105 385.984 64.4239 385.632C63.8372 385.269 63.3732 384.784 63.0319 384.176C62.6905 383.557 62.5199 382.864 62.5199 382.096C62.5199 381.328 62.6799 380.64 62.9999 380.032C63.3305 379.424 63.7732 378.944 64.3279 378.592C64.8825 378.24 65.5012 378.064 66.1839 378.064C66.8772 378.064 67.4905 378.24 68.0239 378.592C68.5679 378.933 68.9945 379.403 69.3039 380C69.6239 380.587 69.7839 381.253 69.7839 382V382.352H63.6559C63.6985 382.885 63.8425 383.365 64.0879 383.792C64.3439 384.208 64.6745 384.539 65.0799 384.784C65.4959 385.019 65.9492 385.136 66.4399 385.136C66.8452 385.136 67.2345 385.067 67.6079 384.928C67.9919 384.779 68.3172 384.581 68.5839 384.336L69.3199 385.12C68.8719 385.472 68.4079 385.733 67.9279 385.904C67.4479 386.075 66.9359 386.16 66.3919 386.16ZM63.6879 381.52H68.6319C68.5785 381.051 68.4345 380.635 68.1999 380.272C67.9759 379.899 67.6879 379.605 67.3359 379.392C66.9945 379.179 66.6105 379.072 66.1839 379.072C65.7572 379.072 65.3679 379.179 65.0159 379.392C64.6639 379.595 64.3705 379.883 64.1359 380.256C63.9119 380.619 63.7625 381.04 63.6879 381.52Z" fill="#151515"/>
</g>
<path d="M10 40.5H152C153.381 40.5 154.5 41.6193 154.5 43V405C154.5 406.381 153.381 407.5 152 407.5H10C8.61929 407.5 7.5 406.381 7.5 405V43C7.5 41.6193 8.61929 40.5 10 40.5Z" stroke="#C7C7C7"/>
</g>
<defs>
<filter id="filter0_d_8079_4041" x="0" y="37" width="162" height="382" filterUnits="userSpaceOnUse" color-interpolation-filters="sRGB">
<feFlood flood-opacity="0" result="BackgroundImageFix"/>
<feColorMatrix in="SourceAlpha" type="matrix" values="0 0 0 0 0 0 0 0 0 0 0 0 0 0 0 0 0 0 127 0" result="hardAlpha"/>
<feMorphology radius="1" operator="dilate" in="SourceAlpha" result="effect1_dropShadow_8079_4041"/>
<feOffset dy="4"/>
<feGaussianBlur stdDeviation="3"/>
<feComposite in2="hardAlpha" operator="out"/>
<feColorMatrix type="matrix" values="0 0 0 0 0.0823529 0 0 0 0 0.0823529 0 0 0 0 0.0823529 0 0 0 0.25 0"/>
<feBlend mode="normal" in2="BackgroundImageFix" result="effect1_dropShadow_8079_4041"/>
<feBlend mode="normal" in="SourceGraphic" in2="effect1_dropShadow_8079_4041" result="shape"/>
</filter>
<clipPath id="clip0_8079_4041">
<rect width="12" height="12" fill="white" transform="translate(127 12)"/>
</clipPath>
<clipPath id="clip1_8079_4041">
<path d="M7 43C7 41.3432 8.34315 40 10 40H152C153.657 40 155 41.3431 155 43V405C155 406.657 153.657 408 152 408H10C8.34315 408 7 406.657 7 405V43Z" fill="white"/>
</clipPath>
</defs>
</svg>
