<svg width="211" height="283" viewBox="0 0 211 283" fill="none" xmlns="http://www.w3.org/2000/svg">
<path d="M34.9531 1H134.953C136.058 1 136.953 1.89543 136.953 3V33C136.953 34.1046 136.058 35 134.953 35H34.9531C33.8486 35 32.9531 34.1046 32.9531 33V3C32.9531 1.89543 33.8486 1 34.9531 1Z" fill="white"/>
<path d="M34.9531 1H134.953C136.058 1 136.953 1.89543 136.953 3V33C136.953 34.1046 136.058 35 134.953 35H34.9531C33.8486 35 32.9531 34.1046 32.9531 33V3C32.9531 1.89543 33.8486 1 34.9531 1Z" stroke="#0066CC" stroke-width="2"/>
<path d="M48.0971 24L52.5291 12.8H54.0011L58.3691 24H57.0411L55.7131 20.48H50.7211L49.3931 24H48.0971ZM51.1051 19.504H55.3451L53.2171 13.92L51.1051 19.504ZM62.9071 24.128C62.1818 24.128 61.5258 23.952 60.9391 23.6C60.3631 23.2373 59.9045 22.752 59.5631 22.144C59.2218 21.5253 59.0511 20.8427 59.0511 20.096C59.0511 19.3387 59.2218 18.656 59.5631 18.048C59.9045 17.44 60.3631 16.96 60.9391 16.608C61.5258 16.2453 62.1818 16.064 62.9071 16.064C63.4831 16.064 64.0325 16.1707 64.5551 16.384C65.0778 16.5973 65.5311 16.896 65.9151 17.28L65.1631 18.096C64.8858 17.7867 64.5498 17.5467 64.1551 17.376C63.7605 17.2053 63.3605 17.12 62.9551 17.12C62.4431 17.12 61.9791 17.2533 61.5631 17.52C61.1578 17.7867 60.8325 18.144 60.5871 18.592C60.3418 19.04 60.2191 19.5413 60.2191 20.096C60.2191 20.6507 60.3418 21.152 60.5871 21.6C60.8325 22.048 61.1578 22.4053 61.5631 22.672C61.9791 22.9387 62.4431 23.072 62.9551 23.072C63.3605 23.072 63.7605 22.9867 64.1551 22.816C64.5498 22.6347 64.8858 22.3947 65.1631 22.096L65.9151 22.912C65.5311 23.296 65.0778 23.5947 64.5551 23.808C64.0325 24.0213 63.4831 24.128 62.9071 24.128ZM70.676 24.16C70.004 24.16 69.492 24 69.14 23.68C68.7987 23.3493 68.628 22.8747 68.628 22.256V17.152H67.012V16.192H68.628V14.048L69.796 13.776V16.192H72.036V17.152H69.796V21.952C69.796 22.368 69.8813 22.6667 70.052 22.848C70.2333 23.0293 70.5267 23.12 70.932 23.12C71.1347 23.12 71.316 23.104 71.476 23.072C71.636 23.04 71.8227 22.9867 72.036 22.912V23.952C71.8227 24.0267 71.5987 24.08 71.364 24.112C71.1293 24.144 70.9 24.16 70.676 24.16ZM73.7309 24V16.192H74.8989V24H73.7309ZM74.3229 14.256C74.0882 14.256 73.8855 14.176 73.7149 14.016C73.5549 13.8453 73.4749 13.648 73.4749 13.424C73.4749 13.2 73.5549 13.008 73.7149 12.848C73.8855 12.6773 74.0882 12.592 74.3229 12.592C74.5575 12.592 74.7549 12.6773 74.9149 12.848C75.0855 13.008 75.1709 13.2 75.1709 13.424C75.1709 13.648 75.0855 13.8453 74.9149 14.016C74.7549 14.176 74.5575 14.256 74.3229 14.256ZM80.7498 24.128C80.0244 24.128 79.3738 23.952 78.7978 23.6C78.2218 23.248 77.7684 22.768 77.4378 22.16C77.1071 21.552 76.9418 20.864 76.9418 20.096C76.9418 19.328 77.1071 18.64 77.4378 18.032C77.7684 17.424 78.2218 16.944 78.7978 16.592C79.3738 16.24 80.0244 16.064 80.7498 16.064C81.4644 16.064 82.1044 16.24 82.6698 16.592C83.2458 16.944 83.6991 17.424 84.0298 18.032C84.3604 18.64 84.5258 19.328 84.5258 20.096C84.5258 20.864 84.3604 21.552 84.0298 22.16C83.6991 22.768 83.2458 23.248 82.6698 23.6C82.1044 23.952 81.4644 24.128 80.7498 24.128ZM80.7338 23.104C81.2458 23.104 81.6991 22.976 82.0938 22.72C82.4884 22.4533 82.7978 22.0907 83.0218 21.632C83.2564 21.1733 83.3738 20.6613 83.3738 20.096C83.3738 19.52 83.2564 19.008 83.0218 18.56C82.7978 18.1013 82.4884 17.744 82.0938 17.488C81.6991 17.2213 81.2458 17.088 80.7338 17.088C80.2218 17.088 79.7684 17.2213 79.3738 17.488C78.9791 17.744 78.6644 18.1013 78.4298 18.56C78.2058 19.008 78.0938 19.52 78.0938 20.096C78.0938 20.6613 78.2058 21.1733 78.4298 21.632C78.6644 22.0907 78.9791 22.4533 79.3738 22.72C79.7684 22.976 80.2218 23.104 80.7338 23.104ZM86.575 24V16.192H87.743V17.456C88.0417 16.9867 88.399 16.64 88.815 16.416C89.231 16.1813 89.7003 16.064 90.223 16.064C90.7883 16.064 91.279 16.1867 91.695 16.432C92.1217 16.6667 92.4523 17.0027 92.687 17.44C92.9323 17.8667 93.055 18.368 93.055 18.944V24H91.887V19.28C91.887 18.5867 91.695 18.0427 91.311 17.648C90.9377 17.2427 90.431 17.04 89.791 17.04C89.3643 17.04 88.975 17.1413 88.623 17.344C88.271 17.5467 87.9777 17.8453 87.743 18.24V24H86.575ZM97.8191 24.16C97.1791 24.16 96.5871 24.064 96.0431 23.872C95.4991 23.6693 95.0351 23.3813 94.6511 23.008L95.2751 22.24C95.7445 22.5813 96.1765 22.832 96.5711 22.992C96.9658 23.1413 97.3711 23.216 97.7871 23.216C98.3525 23.216 98.8218 23.0827 99.1951 22.816C99.5685 22.5493 99.7551 22.208 99.7551 21.792C99.7551 21.472 99.6431 21.2213 99.4191 21.04C99.2058 20.8587 98.8485 20.72 98.3471 20.624L97.0671 20.4C96.3098 20.2613 95.7498 20.0267 95.3871 19.696C95.0351 19.3653 94.8591 18.9173 94.8591 18.352C94.8591 17.904 94.9765 17.5093 95.2111 17.168C95.4565 16.8267 95.7925 16.56 96.2191 16.368C96.6458 16.1653 97.1311 16.064 97.6751 16.064C98.2085 16.064 98.7151 16.144 99.1951 16.304C99.6751 16.4533 100.16 16.6987 100.651 17.04L100.075 17.856C99.6698 17.568 99.2645 17.36 98.8591 17.232C98.4538 17.0933 98.0431 17.024 97.6271 17.024C97.1151 17.024 96.7045 17.136 96.3951 17.36C96.0858 17.584 95.9311 17.888 95.9311 18.272C95.9311 18.592 96.0271 18.8373 96.2191 19.008C96.4218 19.1787 96.7738 19.3067 97.2751 19.392L98.5871 19.632C99.3765 19.7707 99.9525 20.0107 100.315 20.352C100.678 20.6933 100.859 21.152 100.859 21.728C100.859 22.1867 100.726 22.6027 100.459 22.976C100.192 23.3387 99.8298 23.6267 99.3711 23.84C98.9125 24.0533 98.3951 24.16 97.8191 24.16Z" fill="#151515"/>
<g clip-path="url(#clip0_4023_1425)">
<path d="M120.753 21C120.599 21 120.446 20.9414 120.329 20.8242L115.953 16.4484L111.577 20.8242C111.343 21.0585 110.963 21.0585 110.729 20.8242C110.494 20.5898 110.494 20.2101 110.729 19.9757L115.317 15.3878C115.667 15.0368 116.239 15.0368 116.589 15.3878L121.177 19.9757C121.412 20.2101 121.412 20.5898 121.177 20.8242C121.06 20.9414 120.907 21 120.753 21Z" fill="#151515"/>
</g>
<g filter="url(#filter0_d_4023_1425)">
<g clip-path="url(#clip1_4023_1425)">
<path d="M31.9531 43C31.9531 41.3431 33.2963 40 34.9531 40H159.953C161.61 40 162.953 41.3431 162.953 43V269C162.953 270.657 161.61 272 159.953 272H34.9531C33.2963 272 31.9531 270.657 31.9531 269V43Z" fill="white"/>
<path d="M31.9531 48H162.953V88H31.9531V48Z" fill="#F2F2F2"/>
<path d="M49.3771 74V62.8H51.0891L54.8331 70.768L58.5771 62.8H60.2891V74H59.1211V64.256L54.8331 73.2L50.5291 64.224V74H49.3771ZM66.3748 74.128C65.6494 74.128 64.9988 73.952 64.4228 73.6C63.8468 73.248 63.3934 72.768 63.0628 72.16C62.7321 71.552 62.5668 70.864 62.5668 70.096C62.5668 69.328 62.7321 68.64 63.0628 68.032C63.3934 67.424 63.8468 66.944 64.4228 66.592C64.9988 66.24 65.6494 66.064 66.3748 66.064C67.0894 66.064 67.7294 66.24 68.2948 66.592C68.8708 66.944 69.3241 67.424 69.6548 68.032C69.9854 68.64 70.1508 69.328 70.1508 70.096C70.1508 70.864 69.9854 71.552 69.6548 72.16C69.3241 72.768 68.8708 73.248 68.2948 73.6C67.7294 73.952 67.0894 74.128 66.3748 74.128ZM66.3588 73.104C66.8708 73.104 67.3241 72.976 67.7188 72.72C68.1134 72.4533 68.4228 72.0907 68.6468 71.632C68.8814 71.1733 68.9988 70.6613 68.9988 70.096C68.9988 69.52 68.8814 69.008 68.6468 68.56C68.4228 68.1013 68.1134 67.744 67.7188 67.488C67.3241 67.2213 66.8708 67.088 66.3588 67.088C65.8468 67.088 65.3934 67.2213 64.9988 67.488C64.6041 67.744 64.2894 68.1013 64.0548 68.56C63.8308 69.008 63.7188 69.52 63.7188 70.096C63.7188 70.6613 63.8308 71.1733 64.0548 71.632C64.2894 72.0907 64.6041 72.4533 64.9988 72.72C65.3934 72.976 65.8468 73.104 66.3588 73.104ZM74.2056 74L71.0056 66.192H72.2696L74.7976 72.544L77.2936 66.192H78.5416L75.3256 74H74.2056ZM83.2669 74.16C82.5415 74.16 81.8855 73.984 81.2989 73.632C80.7122 73.2693 80.2482 72.784 79.9069 72.176C79.5655 71.5573 79.3949 70.864 79.3949 70.096C79.3949 69.328 79.5549 68.64 79.8749 68.032C80.2055 67.424 80.6482 66.944 81.2029 66.592C81.7575 66.24 82.3762 66.064 83.0589 66.064C83.7522 66.064 84.3655 66.24 84.8989 66.592C85.4429 66.9333 85.8695 67.4027 86.1789 68C86.4989 68.5867 86.6589 69.2533 86.6589 70V70.352H80.5309C80.5735 70.8853 80.7175 71.3653 80.9629 71.792C81.2189 72.208 81.5495 72.5387 81.9549 72.784C82.3709 73.0187 82.8242 73.136 83.3149 73.136C83.7202 73.136 84.1095 73.0667 84.4829 72.928C84.8669 72.7787 85.1922 72.5813 85.4589 72.336L86.1949 73.12C85.7469 73.472 85.2829 73.7333 84.8029 73.904C84.3229 74.0747 83.8109 74.16 83.2669 74.16ZM80.5629 69.52H85.5069C85.4535 69.0507 85.3095 68.6347 85.0749 68.272C84.8509 67.8987 84.5629 67.6053 84.2109 67.392C83.8695 67.1787 83.4855 67.072 83.0589 67.072C82.6322 67.072 82.2429 67.1787 81.8909 67.392C81.5389 67.5947 81.2455 67.8827 81.0109 68.256C80.7869 68.6187 80.6375 69.04 80.5629 69.52Z" fill="#151515"/>
<mask id="path-8-outside-1_4023_1425" maskUnits="userSpaceOnUse" x="35.4531" y="51" width="124" height="34" fill="black">
<rect fill="white" x="35.4531" y="51" width="124" height="34"/>
<path d="M37.4531 56C37.4531 54.3431 38.7963 53 40.4531 53H154.453C156.11 53 157.453 54.3431 157.453 56V80C157.453 81.6569 156.11 83 154.453 83H40.4531C38.7963 83 37.4531 81.6569 37.4531 80V56Z"/>
</mask>
<path d="M40.4531 53V55H154.453V53V51H40.4531V53ZM157.453 56H155.453V80H157.453H159.453V56H157.453ZM154.453 83V81H40.4531V83V85H154.453V83ZM37.4531 80H39.4531V56H37.4531H35.4531V80H37.4531ZM40.4531 83V81C39.9008 81 39.4531 80.5523 39.4531 80H37.4531H35.4531C35.4531 82.7614 37.6917 85 40.4531 85V83ZM157.453 80H155.453C155.453 80.5523 155.005 81 154.453 81V83V85C157.215 85 159.453 82.7614 159.453 80H157.453ZM154.453 53V55C155.005 55 155.453 55.4477 155.453 56H157.453H159.453C159.453 53.2386 157.215 51 154.453 51V53ZM40.4531 53V51C37.6917 51 35.4531 53.2386 35.4531 56H37.4531H39.4531C39.4531 55.4477 39.9008 55 40.4531 55V53Z" fill="#0066CC" mask="url(#path-8-outside-1_4023_1425)"/>
<path d="M49.3771 114V102.8H53.9691C54.6838 102.8 55.3078 102.939 55.8411 103.216C56.3745 103.483 56.7905 103.856 57.0891 104.336C57.3878 104.816 57.5371 105.381 57.5371 106.032C57.5371 106.779 57.3291 107.419 56.9131 107.952C56.4971 108.475 55.9265 108.843 55.2011 109.056L57.5851 114H56.2251L53.9531 109.216H50.6091V114H49.3771ZM50.6091 108.192H53.8731C54.6091 108.192 55.1958 108 55.6331 107.616C56.0811 107.221 56.3051 106.699 56.3051 106.048C56.3051 105.387 56.0811 104.864 55.6331 104.48C55.1958 104.085 54.6091 103.888 53.8731 103.888H50.6091V108.192ZM62.6263 114.16C61.9009 114.16 61.2449 113.984 60.6583 113.632C60.0716 113.269 59.6076 112.784 59.2663 112.176C58.9249 111.557 58.7543 110.864 58.7543 110.096C58.7543 109.328 58.9143 108.64 59.2343 108.032C59.5649 107.424 60.0076 106.944 60.5623 106.592C61.1169 106.24 61.7356 106.064 62.4183 106.064C63.1116 106.064 63.7249 106.24 64.2583 106.592C64.8023 106.933 65.2289 107.403 65.5383 108C65.8583 108.587 66.0183 109.253 66.0183 110V110.352H59.8903C59.9329 110.885 60.0769 111.365 60.3223 111.792C60.5783 112.208 60.9089 112.539 61.3143 112.784C61.7303 113.019 62.1836 113.136 62.6743 113.136C63.0796 113.136 63.4689 113.067 63.8423 112.928C64.2263 112.779 64.5516 112.581 64.8183 112.336L65.5543 113.12C65.1063 113.472 64.6423 113.733 64.1623 113.904C63.6823 114.075 63.1703 114.16 62.6263 114.16ZM59.9223 109.52H64.8663C64.8129 109.051 64.6689 108.635 64.4343 108.272C64.2103 107.899 63.9223 107.605 63.5703 107.392C63.2289 107.179 62.8449 107.072 62.4183 107.072C61.9916 107.072 61.6023 107.179 61.2503 107.392C60.8983 107.595 60.6049 107.883 60.3703 108.256C60.1463 108.619 59.9969 109.04 59.9223 109.52ZM68.0125 114V106.192H69.1805V107.456C69.4792 106.987 69.8365 106.64 70.2525 106.416C70.6685 106.181 71.1378 106.064 71.6605 106.064C72.2258 106.064 72.7165 106.187 73.1325 106.432C73.5592 106.667 73.8898 107.003 74.1245 107.44C74.3698 107.867 74.4925 108.368 74.4925 108.944V114H73.3245V109.28C73.3245 108.587 73.1325 108.043 72.7485 107.648C72.3752 107.243 71.8685 107.04 71.2285 107.04C70.8018 107.04 70.4125 107.141 70.0605 107.344C69.7085 107.547 69.4152 107.845 69.1805 108.24V114H68.0125ZM79.2566 114.144C78.702 114.144 78.2113 114.043 77.7846 113.84C77.358 113.637 77.022 113.36 76.7766 113.008C76.542 112.645 76.4246 112.229 76.4246 111.76C76.4246 111.291 76.5473 110.885 76.7926 110.544C77.038 110.192 77.3793 109.92 77.8166 109.728C78.254 109.536 78.766 109.44 79.3526 109.44C79.8006 109.44 80.222 109.488 80.6166 109.584C81.022 109.68 81.3953 109.835 81.7366 110.048V108.976C81.7366 108.336 81.566 107.856 81.2246 107.536C80.8833 107.205 80.382 107.04 79.7206 107.04C79.358 107.04 78.9846 107.093 78.6006 107.2C78.2273 107.307 77.8113 107.477 77.3526 107.712L76.9206 106.816C77.966 106.315 78.9473 106.064 79.8646 106.064C80.8353 106.064 81.582 106.304 82.1046 106.784C82.6273 107.253 82.8886 107.931 82.8886 108.816V114H81.7366V113.088C81.3953 113.44 81.0166 113.707 80.6006 113.888C80.1846 114.059 79.7366 114.144 79.2566 114.144ZM77.5446 111.728C77.5446 112.187 77.7206 112.555 78.0726 112.832C78.4353 113.109 78.91 113.248 79.4966 113.248C79.934 113.248 80.334 113.173 80.6966 113.024C81.07 112.875 81.4166 112.651 81.7366 112.352V110.848C81.406 110.656 81.0646 110.517 80.7126 110.432C80.3606 110.336 79.966 110.288 79.5286 110.288C78.9313 110.288 78.4513 110.421 78.0886 110.688C77.726 110.944 77.5446 111.291 77.5446 111.728ZM85.2625 114V106.192H86.4305V107.408C86.7292 106.96 87.0705 106.624 87.4545 106.4C87.8385 106.176 88.2705 106.064 88.7505 106.064C89.3052 106.064 89.7905 106.203 90.2065 106.48C90.6225 106.747 90.9372 107.115 91.1505 107.584C91.4598 107.083 91.8278 106.704 92.2545 106.448C92.6918 106.192 93.1932 106.064 93.7585 106.064C94.2812 106.064 94.7398 106.187 95.1345 106.432C95.5398 106.677 95.8545 107.019 96.0785 107.456C96.3025 107.883 96.4145 108.384 96.4145 108.96V114H95.2465V109.248C95.2465 108.565 95.0758 108.027 94.7345 107.632C94.3932 107.237 93.9238 107.04 93.3265 107.04C92.9212 107.04 92.5532 107.141 92.2225 107.344C91.9025 107.547 91.6198 107.856 91.3745 108.272C91.3958 108.379 91.4118 108.491 91.4225 108.608C91.4332 108.725 91.4385 108.843 91.4385 108.96V114H90.2705V109.248C90.2705 108.565 90.0945 108.027 89.7425 107.632C89.4012 107.237 88.9318 107.04 88.3345 107.04C87.5345 107.04 86.8998 107.424 86.4305 108.192V114H85.2625ZM102.298 114.16C101.573 114.16 100.917 113.984 100.33 113.632C99.7435 113.269 99.2795 112.784 98.9381 112.176C98.5968 111.557 98.4261 110.864 98.4261 110.096C98.4261 109.328 98.5861 108.64 98.9061 108.032C99.2368 107.424 99.6795 106.944 100.234 106.592C100.789 106.24 101.407 106.064 102.09 106.064C102.783 106.064 103.397 106.24 103.93 106.592C104.474 106.933 104.901 107.403 105.21 108C105.53 108.587 105.69 109.253 105.69 110V110.352H99.5621C99.6048 110.885 99.7488 111.365 99.9941 111.792C100.25 112.208 100.581 112.539 100.986 112.784C101.402 113.019 101.855 113.136 102.346 113.136C102.751 113.136 103.141 113.067 103.514 112.928C103.898 112.779 104.223 112.581 104.49 112.336L105.226 113.12C104.778 113.472 104.314 113.733 103.834 113.904C103.354 114.075 102.842 114.16 102.298 114.16ZM99.5941 109.52H104.538C104.485 109.051 104.341 108.635 104.106 108.272C103.882 107.899 103.594 107.605 103.242 107.392C102.901 107.179 102.517 107.072 102.09 107.072C101.663 107.072 101.274 107.179 100.922 107.392C100.57 107.595 100.277 107.883 100.042 108.256C99.8181 108.619 99.6688 109.04 99.5941 109.52Z" fill="#151515"/>
<path d="M49.3611 154V142.8H50.5931V147.808H57.0251V142.8H58.2571V154H57.0251V148.912H50.5931V154H49.3611ZM60.8559 154V146.192H62.0239V154H60.8559ZM61.4479 144.256C61.2132 144.256 61.0105 144.176 60.8399 144.016C60.6799 143.845 60.5999 143.648 60.5999 143.424C60.5999 143.2 60.6799 143.008 60.8399 142.848C61.0105 142.677 61.2132 142.592 61.4479 142.592C61.6825 142.592 61.8799 142.677 62.0399 142.848C62.2105 143.008 62.2959 143.2 62.2959 143.424C62.2959 143.648 62.2105 143.845 62.0399 144.016C61.8799 144.176 61.6825 144.256 61.4479 144.256ZM67.6668 154.112C66.9948 154.112 66.3868 153.936 65.8428 153.584C65.2988 153.221 64.8668 152.741 64.5468 152.144C64.2268 151.536 64.0668 150.859 64.0668 150.112C64.0668 149.355 64.2268 148.677 64.5468 148.08C64.8774 147.472 65.3201 146.992 65.8748 146.64C66.4294 146.277 67.0481 146.096 67.7308 146.096C68.2108 146.096 68.6588 146.192 69.0748 146.384C69.4908 146.565 69.8534 146.832 70.1628 147.184V142.448L71.3308 142.208V154H70.1628V152.96C69.8641 153.333 69.5014 153.621 69.0748 153.824C68.6481 154.016 68.1788 154.112 67.6668 154.112ZM67.9548 153.088C68.4134 153.088 68.8348 152.997 69.2188 152.816C69.6028 152.635 69.9174 152.379 70.1628 152.048V148.176C69.9068 147.845 69.5814 147.589 69.1868 147.408C68.8028 147.216 68.3921 147.12 67.9548 147.12C67.4321 147.12 66.9628 147.248 66.5468 147.504C66.1414 147.76 65.8161 148.112 65.5707 148.56C65.3361 149.008 65.2188 149.52 65.2188 150.096C65.2188 150.661 65.3361 151.173 65.5707 151.632C65.8161 152.08 66.1414 152.437 66.5468 152.704C66.9628 152.96 67.4321 153.088 67.9548 153.088ZM77.2513 154.16C76.5259 154.16 75.8699 153.984 75.2833 153.632C74.6966 153.269 74.2326 152.784 73.8913 152.176C73.5499 151.557 73.3793 150.864 73.3793 150.096C73.3793 149.328 73.5393 148.64 73.8593 148.032C74.1899 147.424 74.6326 146.944 75.1873 146.592C75.7419 146.24 76.3606 146.064 77.0433 146.064C77.7366 146.064 78.3499 146.24 78.8833 146.592C79.4273 146.933 79.8539 147.403 80.1633 148C80.4833 148.587 80.6433 149.253 80.6433 150V150.352H74.5153C74.5579 150.885 74.7019 151.365 74.9473 151.792C75.2033 152.208 75.5339 152.539 75.9393 152.784C76.3553 153.019 76.8086 153.136 77.2993 153.136C77.7046 153.136 78.0939 153.067 78.4673 152.928C78.8513 152.779 79.1766 152.581 79.4433 152.336L80.1793 153.12C79.7313 153.472 79.2673 153.733 78.7873 153.904C78.3073 154.075 77.7953 154.16 77.2513 154.16ZM74.5473 149.52H79.4913C79.4379 149.051 79.2939 148.635 79.0593 148.272C78.8353 147.899 78.5473 147.605 78.1953 147.392C77.8539 147.179 77.4699 147.072 77.0433 147.072C76.6166 147.072 76.2273 147.179 75.8753 147.392C75.5233 147.595 75.2299 147.883 74.9953 148.256C74.7713 148.619 74.6219 149.04 74.5473 149.52Z" fill="#151515"/>
<path d="M52.9931 194.176C52.1185 194.176 51.3078 194.021 50.5611 193.712C49.8145 193.392 49.0945 192.912 48.4011 192.272L49.1531 191.376C49.8251 192.005 50.4545 192.453 51.0411 192.72C51.6385 192.987 52.2998 193.12 53.0251 193.12C53.6011 193.12 54.1131 193.024 54.5611 192.832C55.0198 192.629 55.3771 192.357 55.6331 192.016C55.8891 191.675 56.0171 191.285 56.0171 190.848C56.0171 190.283 55.8305 189.856 55.4571 189.568C55.0838 189.269 54.4385 189.04 53.5211 188.88L51.7131 188.576C50.6891 188.395 49.9371 188.085 49.4571 187.648C48.9878 187.2 48.7531 186.603 48.7531 185.856C48.7531 185.227 48.9131 184.672 49.2331 184.192C49.5638 183.701 50.0171 183.317 50.5931 183.04C51.1691 182.763 51.8358 182.624 52.5931 182.624C53.4251 182.624 54.1985 182.741 54.9131 182.976C55.6278 183.2 56.3318 183.557 57.0251 184.048L56.3851 185.008C55.8091 184.571 55.2011 184.24 54.5611 184.016C53.9211 183.781 53.2705 183.664 52.6091 183.664C52.0865 183.664 51.6225 183.755 51.2171 183.936C50.8225 184.117 50.5078 184.363 50.2731 184.672C50.0491 184.981 49.9371 185.333 49.9371 185.728C49.9371 186.219 50.1025 186.603 50.4331 186.88C50.7638 187.157 51.3025 187.355 52.0491 187.472L53.8411 187.776C55.0358 187.989 55.8998 188.336 56.4331 188.816C56.9771 189.285 57.2491 189.941 57.2491 190.784C57.2491 191.435 57.0625 192.016 56.6891 192.528C56.3265 193.04 55.8251 193.445 55.1851 193.744C54.5451 194.032 53.8145 194.176 52.9931 194.176ZM62.7981 194.16C62.0728 194.16 61.4168 193.984 60.8301 193.632C60.2435 193.269 59.7795 192.784 59.4381 192.176C59.0968 191.557 58.9261 190.864 58.9261 190.096C58.9261 189.328 59.0861 188.64 59.4061 188.032C59.7368 187.424 60.1795 186.944 60.7341 186.592C61.2888 186.24 61.9075 186.064 62.5901 186.064C63.2835 186.064 63.8968 186.24 64.4301 186.592C64.9741 186.933 65.4008 187.403 65.7101 188C66.0301 188.587 66.1901 189.253 66.1901 190V190.352H60.0621C60.1048 190.885 60.2488 191.365 60.4941 191.792C60.7501 192.208 61.0808 192.539 61.4861 192.784C61.9021 193.019 62.3555 193.136 62.8461 193.136C63.2515 193.136 63.6408 193.067 64.0141 192.928C64.3981 192.779 64.7235 192.581 64.9901 192.336L65.7261 193.12C65.2781 193.472 64.8141 193.733 64.3341 193.904C63.8541 194.075 63.3421 194.16 62.7981 194.16ZM60.0941 189.52H65.0381C64.9848 189.051 64.8408 188.635 64.6061 188.272C64.3821 187.899 64.0941 187.605 63.7421 187.392C63.4008 187.179 63.0168 187.072 62.5901 187.072C62.1635 187.072 61.7741 187.179 61.4221 187.392C61.0701 187.595 60.7768 187.883 60.5421 188.256C60.3181 188.619 60.1688 189.04 60.0941 189.52ZM70.926 194.16C70.254 194.16 69.742 194 69.39 193.68C69.0487 193.349 68.878 192.875 68.878 192.256V187.152H67.262V186.192H68.878V184.048L70.046 183.776V186.192H72.286V187.152H70.046V191.952C70.046 192.368 70.1313 192.667 70.302 192.848C70.4833 193.029 70.7767 193.12 71.182 193.12C71.3847 193.12 71.566 193.104 71.726 193.072C71.886 193.04 72.0727 192.987 72.286 192.912V193.952C72.0727 194.027 71.8487 194.08 71.614 194.112C71.3793 194.144 71.15 194.16 70.926 194.16ZM80.1473 194.144C79.5926 194.144 79.1019 194.043 78.6753 193.84C78.2486 193.637 77.9126 193.36 77.6673 193.008C77.4326 192.645 77.3153 192.229 77.3153 191.76C77.3153 191.291 77.4379 190.885 77.6833 190.544C77.9286 190.192 78.2699 189.92 78.7073 189.728C79.1446 189.536 79.6566 189.44 80.2433 189.44C80.6913 189.44 81.1126 189.488 81.5073 189.584C81.9126 189.68 82.2859 189.835 82.6273 190.048V188.976C82.6273 188.336 82.4566 187.856 82.1153 187.536C81.7739 187.205 81.2726 187.04 80.6113 187.04C80.2486 187.04 79.8753 187.093 79.4913 187.2C79.1179 187.307 78.7019 187.477 78.2433 187.712L77.8113 186.816C78.8566 186.315 79.8379 186.064 80.7552 186.064C81.7259 186.064 82.4726 186.304 82.9953 186.784C83.5179 187.253 83.7793 187.931 83.7793 188.816V194H82.6273V193.088C82.2859 193.44 81.9073 193.707 81.4913 193.888C81.0753 194.059 80.6273 194.144 80.1473 194.144ZM78.4353 191.728C78.4353 192.187 78.6113 192.555 78.9633 192.832C79.3259 193.109 79.8006 193.248 80.3873 193.248C80.8246 193.248 81.2246 193.173 81.5873 193.024C81.9606 192.875 82.3073 192.651 82.6273 192.352V190.848C82.2966 190.656 81.9553 190.517 81.6033 190.432C81.2513 190.336 80.8566 190.288 80.4193 190.288C79.8219 190.288 79.3419 190.421 78.9793 190.688C78.6166 190.944 78.4353 191.291 78.4353 191.728ZM88.5691 194.16C87.9291 194.16 87.3371 194.064 86.7931 193.872C86.2491 193.669 85.7851 193.381 85.4011 193.008L86.0251 192.24C86.4945 192.581 86.9265 192.832 87.3211 192.992C87.7158 193.141 88.1211 193.216 88.5371 193.216C89.1025 193.216 89.5718 193.083 89.9451 192.816C90.3185 192.549 90.5051 192.208 90.5051 191.792C90.5051 191.472 90.3931 191.221 90.1691 191.04C89.9558 190.859 89.5985 190.72 89.0971 190.624L87.8171 190.4C87.0598 190.261 86.4998 190.027 86.1371 189.696C85.7851 189.365 85.6091 188.917 85.6091 188.352C85.6091 187.904 85.7265 187.509 85.9611 187.168C86.2065 186.827 86.5425 186.56 86.9691 186.368C87.3958 186.165 87.8811 186.064 88.4251 186.064C88.9585 186.064 89.4651 186.144 89.9451 186.304C90.4251 186.453 90.9105 186.699 91.4011 187.04L90.8251 187.856C90.4198 187.568 90.0145 187.36 89.6091 187.232C89.2038 187.093 88.7931 187.024 88.3771 187.024C87.8651 187.024 87.4545 187.136 87.1451 187.36C86.8358 187.584 86.6811 187.888 86.6811 188.272C86.6811 188.592 86.7771 188.837 86.9691 189.008C87.1718 189.179 87.5238 189.307 88.0251 189.392L89.3371 189.632C90.1265 189.771 90.7025 190.011 91.0651 190.352C91.4278 190.693 91.6091 191.152 91.6091 191.728C91.6091 192.187 91.4758 192.603 91.2091 192.976C90.9425 193.339 90.5798 193.627 90.1211 193.84C89.6625 194.053 89.1451 194.16 88.5691 194.16ZM100.37 194.112C99.6979 194.112 99.0899 193.936 98.5459 193.584C98.0019 193.221 97.5699 192.741 97.2499 192.144C96.9299 191.536 96.7699 190.859 96.7699 190.112C96.7699 189.355 96.9299 188.677 97.2499 188.08C97.5805 187.472 98.0232 186.992 98.5779 186.64C99.1325 186.277 99.7512 186.096 100.434 186.096C100.914 186.096 101.362 186.192 101.778 186.384C102.194 186.565 102.557 186.832 102.866 187.184V182.448L104.034 182.208V194H102.866V192.96C102.567 193.333 102.205 193.621 101.778 193.824C101.351 194.016 100.882 194.112 100.37 194.112ZM100.658 193.088C101.117 193.088 101.538 192.997 101.922 192.816C102.306 192.635 102.621 192.379 102.866 192.048V188.176C102.61 187.845 102.285 187.589 101.89 187.408C101.506 187.216 101.095 187.12 100.658 187.12C100.135 187.12 99.6659 187.248 99.2499 187.504C98.8445 187.76 98.5192 188.112 98.2739 188.56C98.0392 189.008 97.9219 189.52 97.9219 190.096C97.9219 190.661 98.0392 191.173 98.2739 191.632C98.5192 192.08 98.8445 192.437 99.2499 192.704C99.6659 192.96 100.135 193.088 100.658 193.088ZM109.954 194.16C109.229 194.16 108.573 193.984 107.986 193.632C107.4 193.269 106.936 192.784 106.594 192.176C106.253 191.557 106.082 190.864 106.082 190.096C106.082 189.328 106.242 188.64 106.562 188.032C106.893 187.424 107.336 186.944 107.89 186.592C108.445 186.24 109.064 186.064 109.746 186.064C110.44 186.064 111.053 186.24 111.586 186.592C112.13 186.933 112.557 187.403 112.866 188C113.186 188.587 113.346 189.253 113.346 190V190.352H107.218C107.261 190.885 107.405 191.365 107.65 191.792C107.906 192.208 108.237 192.539 108.642 192.784C109.058 193.019 109.512 193.136 110.002 193.136C110.408 193.136 110.797 193.067 111.17 192.928C111.554 192.779 111.88 192.581 112.146 192.336L112.882 193.12C112.434 193.472 111.97 193.733 111.49 193.904C111.01 194.075 110.498 194.16 109.954 194.16ZM107.25 189.52H112.194C112.141 189.051 111.997 188.635 111.762 188.272C111.538 187.899 111.25 187.605 110.898 187.392C110.557 187.179 110.173 187.072 109.746 187.072C109.32 187.072 108.93 187.179 108.578 187.392C108.226 187.595 107.933 187.883 107.698 188.256C107.474 188.619 107.325 189.04 107.25 189.52ZM116.098 194V187.152H114.354V186.192H116.098V184.56C116.098 183.792 116.301 183.2 116.706 182.784C117.112 182.368 117.688 182.16 118.434 182.16C118.648 182.16 118.84 182.171 119.01 182.192C119.192 182.213 119.352 182.251 119.49 182.304V183.36C119.32 183.307 119.165 183.269 119.026 183.248C118.888 183.227 118.728 183.216 118.546 183.216C118.098 183.216 117.773 183.328 117.57 183.552C117.368 183.765 117.266 184.107 117.266 184.576V186.192H119.49V187.152H117.266V194H116.098ZM123.21 194.144C122.655 194.144 122.164 194.043 121.738 193.84C121.311 193.637 120.975 193.36 120.73 193.008C120.495 192.645 120.378 192.229 120.378 191.76C120.378 191.291 120.5 190.885 120.746 190.544C120.991 190.192 121.332 189.92 121.77 189.728C122.207 189.536 122.719 189.44 123.306 189.44C123.754 189.44 124.175 189.488 124.57 189.584C124.975 189.68 125.348 189.835 125.69 190.048V188.976C125.69 188.336 125.519 187.856 125.178 187.536C124.836 187.205 124.335 187.04 123.674 187.04C123.311 187.04 122.938 187.093 122.554 187.2C122.18 187.307 121.764 187.477 121.306 187.712L120.874 186.816C121.919 186.315 122.9 186.064 123.818 186.064C124.788 186.064 125.535 186.304 126.058 186.784C126.58 187.253 126.842 187.931 126.842 188.816V194H125.69V193.088C125.348 193.44 124.97 193.707 124.554 193.888C124.138 194.059 123.69 194.144 123.21 194.144ZM121.498 191.728C121.498 192.187 121.674 192.555 122.026 192.832C122.388 193.109 122.863 193.248 123.45 193.248C123.887 193.248 124.287 193.173 124.65 193.024C125.023 192.875 125.37 192.651 125.69 192.352V190.848C125.359 190.656 125.018 190.517 124.666 190.432C124.314 190.336 123.919 190.288 123.482 190.288C122.884 190.288 122.404 190.421 122.042 190.688C121.679 190.944 121.498 191.291 121.498 191.728ZM131.922 194.128C131.367 194.128 130.876 194.005 130.45 193.76C130.023 193.515 129.687 193.173 129.442 192.736C129.207 192.299 129.09 191.797 129.09 191.232V186.192H130.274V190.896C130.274 191.589 130.46 192.139 130.834 192.544C131.207 192.949 131.714 193.152 132.354 193.152C132.791 193.152 133.18 193.051 133.522 192.848C133.874 192.645 134.167 192.352 134.402 191.968V186.192H135.57V194H134.402V192.736C134.103 193.195 133.746 193.541 133.33 193.776C132.924 194.011 132.455 194.128 131.922 194.128ZM137.966 194V182.448L139.134 182.208V194H137.966ZM144.504 194.16C143.832 194.16 143.32 194 142.968 193.68C142.627 193.349 142.456 192.875 142.456 192.256V187.152H140.84V186.192H142.456V184.048L143.624 183.776V186.192H145.864V187.152H143.624V191.952C143.624 192.368 143.709 192.667 143.88 192.848C144.061 193.029 144.355 193.12 144.76 193.12C144.963 193.12 145.144 193.104 145.304 193.072C145.464 193.04 145.651 192.987 145.864 192.912V193.952C145.651 194.027 145.427 194.08 145.192 194.112C144.957 194.144 144.728 194.16 144.504 194.16Z" fill="#707070"/>
<mask id="path-16-inside-2_4023_1425" fill="white">
<path d="M31.9531 216H162.953V272H31.9531V216Z"/>
</mask>
<path d="M31.9531 216V217H162.953V216V215H31.9531V216Z" fill="#C7C7C7" mask="url(#path-16-inside-2_4023_1425)"/>
<path d="M50.6091 248.896H53.1691C53.9798 248.896 54.7051 248.699 55.3451 248.304C55.9851 247.909 56.4918 247.376 56.8651 246.704C57.2491 246.021 57.4411 245.253 57.4411 244.4C57.4411 243.547 57.2491 242.784 56.8651 242.112C56.4918 241.429 55.9851 240.891 55.3451 240.496C54.7051 240.101 53.9798 239.904 53.1691 239.904H50.6091V248.896ZM49.3771 250V238.8H53.0891C53.9105 238.8 54.6625 238.944 55.3451 239.232C56.0385 239.509 56.6305 239.904 57.1211 240.416C57.6225 240.917 58.0065 241.509 58.2731 242.192C58.5505 242.864 58.6891 243.6 58.6891 244.4C58.6891 245.2 58.5505 245.941 58.2731 246.624C58.0065 247.296 57.6225 247.888 57.1211 248.4C56.6305 248.901 56.0385 249.296 55.3451 249.584C54.6625 249.861 53.9105 250 53.0891 250H49.3771ZM64.3138 250.16C63.5884 250.16 62.9324 249.984 62.3458 249.632C61.7591 249.269 61.2951 248.784 60.9538 248.176C60.6124 247.557 60.4418 246.864 60.4418 246.096C60.4418 245.328 60.6018 244.64 60.9218 244.032C61.2524 243.424 61.6951 242.944 62.2498 242.592C62.8044 242.24 63.4231 242.064 64.1058 242.064C64.7991 242.064 65.4124 242.24 65.9458 242.592C66.4898 242.933 66.9164 243.403 67.2258 244C67.5458 244.587 67.7058 245.253 67.7058 246V246.352H61.5778C61.6204 246.885 61.7644 247.365 62.0098 247.792C62.2658 248.208 62.5964 248.539 63.0018 248.784C63.4178 249.019 63.8711 249.136 64.3618 249.136C64.7671 249.136 65.1564 249.067 65.5298 248.928C65.9138 248.779 66.2391 248.581 66.5058 248.336L67.2418 249.12C66.7938 249.472 66.3298 249.733 65.8498 249.904C65.3698 250.075 64.8578 250.16 64.3138 250.16ZM61.6098 245.52H66.5538C66.5004 245.051 66.3564 244.635 66.1218 244.272C65.8978 243.899 65.6098 243.605 65.2578 243.392C64.9164 243.179 64.5324 243.072 64.1058 243.072C63.6791 243.072 63.2898 243.179 62.9378 243.392C62.5858 243.595 62.2924 243.883 62.0578 244.256C61.8338 244.619 61.6844 245.04 61.6098 245.52ZM69.7 250V238.448L70.868 238.208V250H69.7ZM76.7825 250.16C76.0572 250.16 75.4012 249.984 74.8145 249.632C74.2278 249.269 73.7638 248.784 73.4225 248.176C73.0812 247.557 72.9105 246.864 72.9105 246.096C72.9105 245.328 73.0705 244.64 73.3905 244.032C73.7212 243.424 74.1638 242.944 74.7185 242.592C75.2732 242.24 75.8918 242.064 76.5745 242.064C77.2678 242.064 77.8812 242.24 78.4145 242.592C78.9585 242.933 79.3852 243.403 79.6945 244C80.0145 244.587 80.1745 245.253 80.1745 246V246.352H74.0465C74.0892 246.885 74.2332 247.365 74.4785 247.792C74.7345 248.208 75.0652 248.539 75.4705 248.784C75.8865 249.019 76.3398 249.136 76.8305 249.136C77.2358 249.136 77.6252 249.067 77.9985 248.928C78.3825 248.779 78.7078 248.581 78.9745 248.336L79.7105 249.12C79.2625 249.472 78.7985 249.733 78.3185 249.904C77.8385 250.075 77.3265 250.16 76.7825 250.16ZM74.0785 245.52H79.0225C78.9692 245.051 78.8252 244.635 78.5905 244.272C78.3665 243.899 78.0785 243.605 77.7265 243.392C77.3852 243.179 77.0012 243.072 76.5745 243.072C76.1478 243.072 75.7585 243.179 75.4065 243.392C75.0545 243.595 74.7612 243.883 74.5265 244.256C74.3025 244.619 74.1532 245.04 74.0785 245.52ZM84.9104 250.16C84.2384 250.16 83.7264 250 83.3744 249.68C83.033 249.349 82.8624 248.875 82.8624 248.256V243.152H81.2464V242.192H82.8624V240.048L84.0304 239.776V242.192H86.2704V243.152H84.0304V247.952C84.0304 248.368 84.1157 248.667 84.2864 248.848C84.4677 249.029 84.761 249.12 85.1664 249.12C85.369 249.12 85.5504 249.104 85.7104 249.072C85.8704 249.04 86.057 248.987 86.2704 248.912V249.952C86.057 250.027 85.833 250.08 85.5984 250.112C85.3637 250.144 85.1344 250.16 84.9104 250.16ZM91.345 250.16C90.6197 250.16 89.9637 249.984 89.377 249.632C88.7903 249.269 88.3263 248.784 87.985 248.176C87.6437 247.557 87.473 246.864 87.473 246.096C87.473 245.328 87.633 244.64 87.953 244.032C88.2837 243.424 88.7263 242.944 89.281 242.592C89.8357 242.24 90.4543 242.064 91.137 242.064C91.8303 242.064 92.4437 242.24 92.977 242.592C93.521 242.933 93.9477 243.403 94.257 244C94.577 244.587 94.737 245.253 94.737 246V246.352H88.609C88.6517 246.885 88.7957 247.365 89.041 247.792C89.297 248.208 89.6277 248.539 90.033 248.784C90.449 249.019 90.9023 249.136 91.393 249.136C91.7983 249.136 92.1877 249.067 92.561 248.928C92.945 248.779 93.2703 248.581 93.537 248.336L94.273 249.12C93.825 249.472 93.361 249.733 92.881 249.904C92.401 250.075 91.889 250.16 91.345 250.16ZM88.641 245.52H93.585C93.5317 245.051 93.3877 244.635 93.153 244.272C92.929 243.899 92.641 243.605 92.289 243.392C91.9477 243.179 91.5637 243.072 91.137 243.072C90.7103 243.072 90.321 243.179 89.969 243.392C89.617 243.595 89.3237 243.883 89.089 244.256C88.865 244.619 88.7157 245.04 88.641 245.52Z" fill="#151515"/>
</g>
<path d="M34.9531 40.5H159.953C161.334 40.5 162.453 41.6193 162.453 43V269C162.453 270.381 161.334 271.5 159.953 271.5H34.9531C33.5724 271.5 32.4531 270.381 32.4531 269V43C32.4531 41.6193 33.5724 40.5 34.9531 40.5Z" stroke="#C7C7C7"/>
</g>
<circle cx="11" cy="17" r="11" fill="#B300B3"/>
<path d="M7.97873 22V21.118H10.4567V13.292L7.97873 14.384V13.46L10.8347 12.2H11.4647V21.118H14.2927V22H7.97873Z" fill="white"/>
<circle cx="199.516" cy="108" r="11" fill="#B300B3"/>
<path d="M199.322 113.154C198.65 113.154 198.02 113.037 197.432 112.804C196.854 112.571 196.34 112.225 195.892 111.768L196.564 111.11C196.975 111.521 197.395 111.819 197.824 112.006C198.263 112.183 198.758 112.272 199.308 112.272C199.784 112.272 200.204 112.188 200.568 112.02C200.942 111.852 201.231 111.619 201.436 111.32C201.642 111.021 201.744 110.681 201.744 110.298C201.744 109.934 201.651 109.612 201.464 109.332C201.287 109.043 201.04 108.819 200.722 108.66C200.405 108.501 200.041 108.422 199.63 108.422H198.468V107.554H199.588C200.12 107.554 200.55 107.391 200.876 107.064C201.212 106.737 201.38 106.313 201.38 105.79C201.38 105.445 201.287 105.132 201.1 104.852C200.914 104.572 200.657 104.353 200.33 104.194C200.013 104.026 199.654 103.942 199.252 103.942C198.748 103.942 198.296 104.035 197.894 104.222C197.502 104.399 197.101 104.703 196.69 105.132L196.018 104.46C196.457 103.993 196.952 103.643 197.502 103.41C198.053 103.167 198.641 103.046 199.266 103.046C199.864 103.046 200.396 103.163 200.862 103.396C201.338 103.629 201.712 103.951 201.982 104.362C202.253 104.763 202.388 105.221 202.388 105.734C202.388 106.247 202.22 106.709 201.884 107.12C201.548 107.521 201.105 107.801 200.554 107.96C201.217 108.109 201.749 108.399 202.15 108.828C202.552 109.257 202.752 109.757 202.752 110.326C202.752 110.867 202.603 111.353 202.304 111.782C202.015 112.211 201.609 112.547 201.086 112.79C200.573 113.033 199.985 113.154 199.322 113.154Z" fill="white"/>
<line y1="-0.5" x2="175.919" y2="-0.5" transform="matrix(-3.37925e-08 -1 -1 5.65417e-08 179.672 215.919)" stroke="#B300B3"/>
<line y1="-0.5" x2="8" y2="-0.5" transform="matrix(-1 1.13083e-07 6.7585e-08 1 180.641 216)" stroke="#B300B3"/>
<line y1="-0.5" x2="8" y2="-0.5" transform="matrix(-1 1.13083e-07 6.7585e-08 1 180.641 41.2935)" stroke="#B300B3"/>
<circle cx="11.4844" cy="68" r="11" fill="#B300B3"/>
<path d="M8.32311 73V72.258L12.2431 67.974C12.5511 67.638 12.7891 67.344 12.9571 67.092C13.1344 66.8307 13.2558 66.588 13.3211 66.364C13.3958 66.14 13.4331 65.902 13.4331 65.65C13.4331 65.1553 13.2371 64.7493 12.8451 64.432C12.4624 64.1053 11.9724 63.942 11.3751 63.942C10.9178 63.942 10.4931 64.0307 10.1011 64.208C9.70911 64.3853 9.27044 64.6933 8.78511 65.132L8.19711 64.432C8.71044 63.9653 9.22844 63.62 9.75111 63.396C10.2738 63.1627 10.8198 63.046 11.3891 63.046C11.9771 63.046 12.4998 63.158 12.9571 63.382C13.4144 63.5967 13.7738 63.8953 14.0351 64.278C14.2964 64.6607 14.4271 65.0993 14.4271 65.594C14.4271 65.9207 14.3851 66.224 14.3011 66.504C14.2171 66.7747 14.0678 67.0687 13.8531 67.386C13.6384 67.694 13.3304 68.0673 12.9291 68.506L9.58311 72.132L14.6371 72.118V73H8.32311Z" fill="white"/>
<defs>
<filter id="filter0_d_4023_1425" x="24.9531" y="37" width="145" height="246" filterUnits="userSpaceOnUse" color-interpolation-filters="sRGB">
<feFlood flood-opacity="0" result="BackgroundImageFix"/>
<feColorMatrix in="SourceAlpha" type="matrix" values="0 0 0 0 0 0 0 0 0 0 0 0 0 0 0 0 0 0 127 0" result="hardAlpha"/>
<feMorphology radius="1" operator="dilate" in="SourceAlpha" result="effect1_dropShadow_4023_1425"/>
<feOffset dy="4"/>
<feGaussianBlur stdDeviation="3"/>
<feComposite in2="hardAlpha" operator="out"/>
<feColorMatrix type="matrix" values="0 0 0 0 0.0823529 0 0 0 0 0.0823529 0 0 0 0 0.0823529 0 0 0 0.25 0"/>
<feBlend mode="normal" in2="BackgroundImageFix" result="effect1_dropShadow_4023_1425"/>
<feBlend mode="normal" in="SourceGraphic" in2="effect1_dropShadow_4023_1425" result="shape"/>
</filter>
<clipPath id="clip0_4023_1425">
<rect width="12" height="12" fill="white" transform="translate(109.953 12)"/>
</clipPath>
<clipPath id="clip1_4023_1425">
<path d="M31.9531 43C31.9531 41.3431 33.2963 40 34.9531 40H159.953C161.61 40 162.953 41.3431 162.953 43V269C162.953 270.657 161.61 272 159.953 272H34.9531C33.2963 272 31.9531 270.657 31.9531 269V43Z" fill="white"/>
</clipPath>
</defs>
</svg>
