<svg width="162" height="425" viewBox="0 0 162 425" fill="none" xmlns="http://www.w3.org/2000/svg">
<path d="M10 1H152C153.105 1 154 1.89543 154 3V33C154 34.1046 153.105 35 152 35H10C8.89543 35 8 34.1046 8 33V3C8 1.89543 8.89543 1 10 1Z" fill="white"/>
<path d="M10 1H152C153.105 1 154 1.89543 154 3V33C154 34.1046 153.105 35 152 35H10C8.89543 35 8 34.1046 8 33V3C8 1.89543 8.89543 1 10 1Z" stroke="#0066CC" stroke-width="2"/>
<path d="M24.424 24V12.8H32.072V13.888H25.656V17.808H30.104V18.88H25.656V22.912H32.136V24H24.424ZM37.0418 24.112C36.3698 24.112 35.7618 23.936 35.2178 23.584C34.6738 23.2213 34.2418 22.7413 33.9218 22.144C33.6018 21.536 33.4418 20.8587 33.4418 20.112C33.4418 19.3547 33.6018 18.6773 33.9218 18.08C34.2524 17.472 34.6951 16.992 35.2498 16.64C35.8044 16.2773 36.4231 16.096 37.1058 16.096C37.5858 16.096 38.0338 16.192 38.4498 16.384C38.8658 16.5653 39.2284 16.832 39.5378 17.184V12.448L40.7058 12.208V24H39.5378V22.96C39.2391 23.3333 38.8764 23.6213 38.4498 23.824C38.0231 24.016 37.5538 24.112 37.0418 24.112ZM37.3298 23.088C37.7884 23.088 38.2098 22.9973 38.5938 22.816C38.9778 22.6347 39.2924 22.3787 39.5378 22.048V18.176C39.2818 17.8453 38.9564 17.5893 38.5618 17.408C38.1778 17.216 37.7671 17.12 37.3298 17.12C36.8071 17.12 36.3378 17.248 35.9218 17.504C35.5164 17.76 35.1911 18.112 34.9457 18.56C34.7111 19.008 34.5938 19.52 34.5938 20.096C34.5938 20.6613 34.7111 21.1733 34.9457 21.632C35.1911 22.08 35.5164 22.4373 35.9218 22.704C36.3378 22.96 36.8071 23.088 37.3298 23.088ZM43.0903 24V16.192H44.2582V24H43.0903ZM43.6823 14.256C43.4476 14.256 43.2449 14.176 43.0743 14.016C42.9143 13.8453 42.8343 13.648 42.8343 13.424C42.8343 13.2 42.9143 13.008 43.0743 12.848C43.2449 12.6773 43.4476 12.592 43.6823 12.592C43.9169 12.592 44.1143 12.6773 44.2743 12.848C44.4449 13.008 44.5303 13.2 44.5303 13.424C44.5303 13.648 44.4449 13.8453 44.2743 14.016C44.1143 14.176 43.9169 14.256 43.6823 14.256ZM49.6291 24.16C48.9571 24.16 48.4451 24 48.0931 23.68C47.7518 23.3493 47.5811 22.8747 47.5811 22.256V17.152H45.9651V16.192H47.5811V14.048L48.7491 13.776V16.192H50.9891V17.152H48.7491V21.952C48.7491 22.368 48.8345 22.6667 49.0051 22.848C49.1865 23.0293 49.4798 23.12 49.8851 23.12C50.0878 23.12 50.2691 23.104 50.4291 23.072C50.5891 23.04 50.7758 22.9867 50.9891 22.912V23.952C50.7758 24.0267 50.5518 24.08 50.3171 24.112C50.0825 24.144 49.8531 24.16 49.6291 24.16Z" fill="#151515"/>
<g clip-path="url(#clip0_8079_4081)">
<path d="M137.8 20.9999C137.647 20.9999 137.493 20.9413 137.376 20.8241L133 16.4483L128.624 20.8241C128.39 21.0585 128.01 21.0585 127.776 20.8241C127.541 20.5898 127.542 20.2101 127.776 19.9757L132.364 15.3878C132.714 15.0368 133.286 15.0368 133.636 15.3878L138.224 19.9757C138.459 20.21 138.459 20.5897 138.224 20.8241C138.107 20.9413 137.954 20.9999 137.8 20.9999Z" fill="#151515"/>
</g>
<g filter="url(#filter0_d_8079_4081)">
<g clip-path="url(#clip1_8079_4081)">
<path d="M7 43C7 41.3432 8.34315 40 10 40H152C153.657 40 155 41.3431 155 43V373C155 374.657 153.657 376 152 376H10C8.34315 376 7 374.657 7 373V43Z" fill="white"/>
<path d="M28.696 74.176C27.7787 74.176 26.9787 73.9787 26.296 73.584C25.624 73.1787 25.1067 72.608 24.744 71.872C24.3813 71.136 24.2 70.2667 24.2 69.264V62.8H25.432V69.264C25.432 70.032 25.5653 70.6987 25.832 71.264C26.0987 71.8293 26.4773 72.272 26.968 72.592C27.4587 72.9013 28.0347 73.056 28.696 73.056C29.3573 73.056 29.9333 72.9013 30.424 72.592C30.9147 72.272 31.2933 71.8293 31.56 71.264C31.8267 70.6987 31.96 70.032 31.96 69.264V62.8H33.192V69.264C33.192 70.2667 33.0107 71.136 32.648 71.872C32.2853 72.608 31.768 73.1787 31.096 73.584C30.424 73.9787 29.624 74.176 28.696 74.176ZM35.5906 74V66.192H36.7586V67.456C37.0573 66.9867 37.4146 66.64 37.8306 66.416C38.2466 66.1813 38.716 66.064 39.2386 66.064C39.804 66.064 40.2946 66.1867 40.7106 66.432C41.1373 66.6667 41.468 67.0027 41.7026 67.44C41.948 67.8667 42.0706 68.368 42.0706 68.944V74H40.9026V69.28C40.9026 68.5867 40.7106 68.0427 40.3266 67.648C39.9533 67.2427 39.4466 67.04 38.8066 67.04C38.38 67.04 37.9906 67.1413 37.6386 67.344C37.2866 67.5467 36.9933 67.8453 36.7586 68.24V74H35.5906ZM47.6668 74.112C46.9948 74.112 46.3868 73.936 45.8428 73.584C45.2988 73.2213 44.8668 72.7413 44.5468 72.144C44.2268 71.536 44.0668 70.8587 44.0668 70.112C44.0668 69.3547 44.2268 68.6773 44.5468 68.08C44.8774 67.472 45.3201 66.992 45.8748 66.64C46.4294 66.2773 47.0481 66.096 47.7308 66.096C48.2108 66.096 48.6588 66.192 49.0748 66.384C49.4908 66.5653 49.8534 66.832 50.1628 67.184V62.448L51.3308 62.208V74H50.1628V72.96C49.8641 73.3333 49.5014 73.6213 49.0748 73.824C48.6481 74.016 48.1788 74.112 47.6668 74.112ZM47.9548 73.088C48.4134 73.088 48.8348 72.9973 49.2188 72.816C49.6028 72.6347 49.9174 72.3787 50.1628 72.048V68.176C49.9068 67.8453 49.5814 67.5893 49.1868 67.408C48.8028 67.216 48.3921 67.12 47.9548 67.12C47.4321 67.12 46.9628 67.248 46.5468 67.504C46.1414 67.76 45.8161 68.112 45.5707 68.56C45.3361 69.008 45.2188 69.52 45.2188 70.096C45.2188 70.6613 45.3361 71.1733 45.5707 71.632C45.8161 72.08 46.1414 72.4373 46.5468 72.704C46.9628 72.96 47.4321 73.088 47.9548 73.088ZM57.1873 74.128C56.4619 74.128 55.8113 73.952 55.2353 73.6C54.6593 73.248 54.2059 72.768 53.8753 72.16C53.5446 71.552 53.3793 70.864 53.3793 70.096C53.3793 69.328 53.5446 68.64 53.8753 68.032C54.2059 67.424 54.6593 66.944 55.2353 66.592C55.8113 66.24 56.4619 66.064 57.1873 66.064C57.9019 66.064 58.5419 66.24 59.1073 66.592C59.6833 66.944 60.1366 67.424 60.4673 68.032C60.7979 68.64 60.9633 69.328 60.9633 70.096C60.9633 70.864 60.7979 71.552 60.4673 72.16C60.1366 72.768 59.6833 73.248 59.1073 73.6C58.5419 73.952 57.9019 74.128 57.1873 74.128ZM57.1713 73.104C57.6833 73.104 58.1366 72.976 58.5313 72.72C58.9259 72.4533 59.2353 72.0907 59.4593 71.632C59.6939 71.1733 59.8113 70.6613 59.8113 70.096C59.8113 69.52 59.6939 69.008 59.4593 68.56C59.2353 68.1013 58.9259 67.744 58.5313 67.488C58.1366 67.2213 57.6833 67.088 57.1713 67.088C56.6593 67.088 56.2059 67.2213 55.8113 67.488C55.4166 67.744 55.1019 68.1013 54.8673 68.56C54.6433 69.008 54.5312 69.52 54.5312 70.096C54.5312 70.6613 54.6433 71.1733 54.8673 71.632C55.1019 72.0907 55.4166 72.4533 55.8113 72.72C56.2059 72.976 56.6593 73.104 57.1713 73.104Z" fill="#151515"/>
<path d="M24.424 114V102.8H29.016C29.7307 102.8 30.3547 102.939 30.888 103.216C31.4213 103.483 31.8373 103.856 32.136 104.336C32.4347 104.816 32.584 105.381 32.584 106.032C32.584 106.779 32.376 107.419 31.96 107.952C31.544 108.475 30.9733 108.843 30.248 109.056L32.632 114H31.272L29 109.216H25.656V114H24.424ZM25.656 108.192H28.92C29.656 108.192 30.2427 108 30.68 107.616C31.128 107.221 31.352 106.699 31.352 106.048C31.352 105.387 31.128 104.864 30.68 104.48C30.2427 104.085 29.656 103.888 28.92 103.888H25.656V108.192ZM37.6731 114.16C36.9478 114.16 36.2918 113.984 35.7051 113.632C35.1185 113.269 34.6545 112.784 34.3131 112.176C33.9718 111.557 33.8011 110.864 33.8011 110.096C33.8011 109.328 33.9611 108.64 34.2811 108.032C34.6118 107.424 35.0545 106.944 35.6091 106.592C36.1638 106.24 36.7825 106.064 37.4651 106.064C38.1585 106.064 38.7718 106.24 39.3051 106.592C39.8491 106.933 40.2758 107.403 40.5851 108C40.9051 108.587 41.0651 109.253 41.0651 110V110.352H34.9371C34.9798 110.885 35.1238 111.365 35.3691 111.792C35.6251 112.208 35.9558 112.539 36.3611 112.784C36.7771 113.019 37.2305 113.136 37.7211 113.136C38.1265 113.136 38.5158 113.067 38.8891 112.928C39.2731 112.779 39.5985 112.581 39.8651 112.336L40.6011 113.12C40.1531 113.472 39.6891 113.733 39.2091 113.904C38.7291 114.075 38.2171 114.16 37.6731 114.16ZM34.9691 109.52H39.9131C39.8598 109.051 39.7158 108.635 39.4811 108.272C39.2571 107.899 38.9691 107.605 38.6171 107.392C38.2758 107.179 37.8918 107.072 37.4651 107.072C37.0385 107.072 36.6491 107.179 36.2971 107.392C35.9451 107.595 35.6518 107.883 35.4171 108.256C35.1931 108.619 35.0438 109.04 34.9691 109.52ZM46.3074 114.112C45.6354 114.112 45.0274 113.936 44.4834 113.584C43.9394 113.221 43.5074 112.741 43.1874 112.144C42.8674 111.536 42.7074 110.859 42.7074 110.112C42.7074 109.355 42.8674 108.677 43.1874 108.08C43.518 107.472 43.9607 106.992 44.5154 106.64C45.07 106.277 45.6887 106.096 46.3714 106.096C46.8514 106.096 47.2994 106.192 47.7154 106.384C48.1314 106.565 48.494 106.832 48.8034 107.184V102.448L49.9714 102.208V114H48.8034V112.96C48.5047 113.333 48.142 113.621 47.7154 113.824C47.2887 114.016 46.8194 114.112 46.3074 114.112ZM46.5954 113.088C47.054 113.088 47.4754 112.997 47.8594 112.816C48.2434 112.635 48.558 112.379 48.8034 112.048V108.176C48.5474 107.845 48.222 107.589 47.8274 107.408C47.4434 107.216 47.0327 107.12 46.5954 107.12C46.0727 107.12 45.6034 107.248 45.1874 107.504C44.782 107.76 44.4567 108.112 44.2114 108.56C43.9767 109.008 43.8594 109.52 43.8594 110.096C43.8594 110.661 43.9767 111.173 44.2114 111.632C44.4567 112.08 44.782 112.437 45.1874 112.704C45.6034 112.96 46.0727 113.088 46.5954 113.088ZM55.8279 114.128C55.1025 114.128 54.4519 113.952 53.8759 113.6C53.2999 113.248 52.8465 112.768 52.5159 112.16C52.1852 111.552 52.0199 110.864 52.0199 110.096C52.0199 109.328 52.1852 108.64 52.5159 108.032C52.8465 107.424 53.2999 106.944 53.8759 106.592C54.4519 106.24 55.1025 106.064 55.8279 106.064C56.5425 106.064 57.1825 106.24 57.7479 106.592C58.3239 106.944 58.7772 107.424 59.1079 108.032C59.4385 108.64 59.6039 109.328 59.6039 110.096C59.6039 110.864 59.4385 111.552 59.1079 112.16C58.7772 112.768 58.3239 113.248 57.7479 113.6C57.1825 113.952 56.5425 114.128 55.8279 114.128ZM55.8119 113.104C56.3239 113.104 56.7772 112.976 57.1719 112.72C57.5665 112.453 57.8759 112.091 58.0999 111.632C58.3345 111.173 58.4519 110.661 58.4519 110.096C58.4519 109.52 58.3345 109.008 58.0999 108.56C57.8759 108.101 57.5665 107.744 57.1719 107.488C56.7772 107.221 56.3239 107.088 55.8119 107.088C55.2999 107.088 54.8465 107.221 54.4519 107.488C54.0572 107.744 53.7425 108.101 53.5079 108.56C53.2839 109.008 53.1719 109.52 53.1719 110.096C53.1719 110.661 53.2839 111.173 53.5079 111.632C53.7425 112.091 54.0572 112.453 54.4519 112.72C54.8465 112.976 55.2999 113.104 55.8119 113.104Z" fill="#151515"/>
<path d="M29.592 154.176C28.792 154.176 28.0453 154.032 27.352 153.744C26.6693 153.445 26.0667 153.035 25.544 152.512C25.0213 151.979 24.616 151.365 24.328 150.672C24.04 149.968 23.896 149.211 23.896 148.4C23.896 147.589 24.04 146.837 24.328 146.144C24.616 145.44 25.0213 144.827 25.544 144.304C26.0667 143.771 26.6693 143.36 27.352 143.072C28.0453 142.773 28.792 142.624 29.592 142.624C30.1467 142.624 30.6747 142.699 31.176 142.848C31.688 142.987 32.168 143.195 32.616 143.472C33.064 143.739 33.464 144.069 33.816 144.464L33 145.312C32.584 144.811 32.072 144.427 31.464 144.16C30.8667 143.883 30.2427 143.744 29.592 143.744C28.9627 143.744 28.376 143.861 27.832 144.096C27.288 144.331 26.8133 144.661 26.408 145.088C26.0133 145.515 25.704 146.011 25.48 146.576C25.256 147.131 25.144 147.739 25.144 148.4C25.144 149.051 25.256 149.659 25.48 150.224C25.704 150.789 26.0133 151.285 26.408 151.712C26.8133 152.139 27.288 152.469 27.832 152.704C28.376 152.939 28.9627 153.056 29.592 153.056C30.2427 153.056 30.8667 152.917 31.464 152.64C32.072 152.363 32.584 151.979 33 151.488L33.816 152.336C33.464 152.731 33.064 153.067 32.616 153.344C32.168 153.611 31.688 153.819 31.176 153.968C30.6747 154.107 30.1467 154.176 29.592 154.176ZM38.359 154.128C37.8043 154.128 37.3137 154.005 36.887 153.76C36.4603 153.515 36.1243 153.173 35.879 152.736C35.6443 152.299 35.527 151.797 35.527 151.232V146.192H36.711V150.896C36.711 151.589 36.8977 152.139 37.271 152.544C37.6443 152.949 38.151 153.152 38.791 153.152C39.2283 153.152 39.6177 153.051 39.959 152.848C40.311 152.645 40.6043 152.352 40.839 151.968V146.192H42.007V154H40.839V152.736C40.5403 153.195 40.183 153.541 39.767 153.776C39.3617 154.011 38.8923 154.128 38.359 154.128ZM47.3791 154.16C46.7071 154.16 46.1951 154 45.8431 153.68C45.5018 153.349 45.3311 152.875 45.3311 152.256V147.152H43.7151V146.192H45.3311V144.048L46.4991 143.776V146.192H48.7391V147.152H46.4991V151.952C46.4991 152.368 46.5845 152.667 46.7551 152.848C46.9365 153.029 47.2298 153.12 47.6351 153.12C47.8378 153.12 48.0191 153.104 48.1791 153.072C48.3391 153.04 48.5258 152.987 48.7391 152.912V153.952C48.5258 154.027 48.3018 154.08 48.0671 154.112C47.8325 154.144 47.6031 154.16 47.3791 154.16Z" fill="#151515"/>
<path d="M29.592 194.176C28.792 194.176 28.0453 194.032 27.352 193.744C26.6693 193.445 26.0667 193.035 25.544 192.512C25.0213 191.979 24.616 191.365 24.328 190.672C24.04 189.968 23.896 189.211 23.896 188.4C23.896 187.589 24.04 186.837 24.328 186.144C24.616 185.44 25.0213 184.827 25.544 184.304C26.0667 183.771 26.6693 183.36 27.352 183.072C28.0453 182.773 28.792 182.624 29.592 182.624C30.1467 182.624 30.6747 182.699 31.176 182.848C31.688 182.987 32.168 183.195 32.616 183.472C33.064 183.739 33.464 184.069 33.816 184.464L33 185.312C32.584 184.811 32.072 184.427 31.464 184.16C30.8667 183.883 30.2427 183.744 29.592 183.744C28.9627 183.744 28.376 183.861 27.832 184.096C27.288 184.331 26.8133 184.661 26.408 185.088C26.0133 185.515 25.704 186.011 25.48 186.576C25.256 187.131 25.144 187.739 25.144 188.4C25.144 189.051 25.256 189.659 25.48 190.224C25.704 190.789 26.0133 191.285 26.408 191.712C26.8133 192.139 27.288 192.469 27.832 192.704C28.376 192.939 28.9627 193.056 29.592 193.056C30.2427 193.056 30.8667 192.917 31.464 192.64C32.072 192.363 32.584 191.979 33 191.488L33.816 192.336C33.464 192.731 33.064 193.067 32.616 193.344C32.168 193.611 31.688 193.819 31.176 193.968C30.6747 194.107 30.1467 194.176 29.592 194.176ZM39.031 194.128C38.3057 194.128 37.655 193.952 37.079 193.6C36.503 193.248 36.0497 192.768 35.719 192.16C35.3883 191.552 35.223 190.864 35.223 190.096C35.223 189.328 35.3883 188.64 35.719 188.032C36.0497 187.424 36.503 186.944 37.079 186.592C37.655 186.24 38.3057 186.064 39.031 186.064C39.7457 186.064 40.3857 186.24 40.951 186.592C41.527 186.944 41.9803 187.424 42.311 188.032C42.6417 188.64 42.807 189.328 42.807 190.096C42.807 190.864 42.6417 191.552 42.311 192.16C41.9803 192.768 41.527 193.248 40.951 193.6C40.3857 193.952 39.7457 194.128 39.031 194.128ZM39.015 193.104C39.527 193.104 39.9803 192.976 40.375 192.72C40.7697 192.453 41.079 192.091 41.303 191.632C41.5377 191.173 41.655 190.661 41.655 190.096C41.655 189.52 41.5377 189.008 41.303 188.56C41.079 188.101 40.7697 187.744 40.375 187.488C39.9803 187.221 39.527 187.088 39.015 187.088C38.503 187.088 38.0497 187.221 37.655 187.488C37.2603 187.744 36.9457 188.101 36.711 188.56C36.487 189.008 36.375 189.52 36.375 190.096C36.375 190.661 36.487 191.173 36.711 191.632C36.9457 192.091 37.2603 192.453 37.655 192.72C38.0497 192.976 38.503 193.104 39.015 193.104ZM44.8563 197.344V186.192H46.0082V187.312C46.3069 186.917 46.6696 186.619 47.0963 186.416C47.5336 186.203 48.0136 186.096 48.5363 186.096C49.2189 186.096 49.8269 186.277 50.3603 186.64C50.9043 186.992 51.3363 187.472 51.6562 188.08C51.9763 188.677 52.1363 189.349 52.1363 190.096C52.1363 190.843 51.9709 191.52 51.6403 192.128C51.3203 192.736 50.8829 193.221 50.3283 193.584C49.7843 193.936 49.1656 194.112 48.4723 194.112C47.9816 194.112 47.5283 194.021 47.1123 193.84C46.6963 193.648 46.3336 193.376 46.0243 193.024V197.344H44.8563ZM48.2483 193.104C48.7709 193.104 49.2349 192.976 49.6403 192.72C50.0563 192.453 50.3816 192.096 50.6163 191.648C50.8616 191.189 50.9843 190.677 50.9843 190.112C50.9843 189.536 50.8616 189.024 50.6163 188.576C50.3816 188.128 50.0563 187.776 49.6403 187.52C49.2349 187.253 48.7709 187.12 48.2483 187.12C47.7896 187.12 47.3629 187.216 46.9683 187.408C46.5843 187.589 46.2696 187.851 46.0243 188.192V192.016C46.2803 192.357 46.6003 192.624 46.9843 192.816C47.3789 193.008 47.8003 193.104 48.2483 193.104ZM54.286 197.504C54.0407 197.504 53.79 197.467 53.534 197.392V196.352C53.6407 196.373 53.7527 196.389 53.87 196.4C53.9873 196.411 54.0887 196.416 54.174 196.416C54.4727 196.416 54.718 196.336 54.91 196.176C55.1127 196.016 55.2833 195.765 55.422 195.424L55.998 194L52.99 186.192H54.286L56.654 192.608L59.166 186.192H60.462L56.526 195.776C56.3553 196.192 56.1687 196.528 55.966 196.784C55.7633 197.04 55.5287 197.221 55.262 197.328C54.9953 197.445 54.67 197.504 54.286 197.504Z" fill="#151515"/>
<path d="M24.424 234V222.8H29.048C29.7733 222.8 30.4027 222.939 30.936 223.216C31.4693 223.483 31.88 223.867 32.168 224.368C32.4667 224.859 32.616 225.44 32.616 226.112C32.616 226.773 32.4667 227.355 32.168 227.856C31.88 228.357 31.4693 228.747 30.936 229.024C30.4027 229.291 29.7733 229.424 29.048 229.424H25.656V234H24.424ZM25.656 228.368H28.904C29.6827 228.368 30.2907 228.165 30.728 227.76C31.1653 227.355 31.384 226.805 31.384 226.112C31.384 225.419 31.1653 224.875 30.728 224.48C30.2907 224.085 29.6827 223.888 28.904 223.888H25.656V228.368ZM36.6785 234.144C36.1238 234.144 35.6332 234.043 35.2065 233.84C34.7798 233.637 34.4438 233.36 34.1985 233.008C33.9638 232.645 33.8465 232.229 33.8465 231.76C33.8465 231.291 33.9692 230.885 34.2145 230.544C34.4598 230.192 34.8012 229.92 35.2385 229.728C35.6758 229.536 36.1878 229.44 36.7745 229.44C37.2225 229.44 37.6438 229.488 38.0385 229.584C38.4438 229.68 38.8172 229.835 39.1585 230.048V228.976C39.1585 228.336 38.9878 227.856 38.6465 227.536C38.3052 227.205 37.8038 227.04 37.1425 227.04C36.7798 227.04 36.4065 227.093 36.0225 227.2C35.6492 227.307 35.2332 227.477 34.7745 227.712L34.3425 226.816C35.3878 226.315 36.3692 226.064 37.2865 226.064C38.2572 226.064 39.0038 226.304 39.5265 226.784C40.0492 227.253 40.3105 227.931 40.3105 228.816V234H39.1585V233.088C38.8172 233.44 38.4385 233.707 38.0225 233.888C37.6065 234.059 37.1585 234.144 36.6785 234.144ZM34.9665 231.728C34.9665 232.187 35.1425 232.555 35.4945 232.832C35.8572 233.109 36.3318 233.248 36.9185 233.248C37.3558 233.248 37.7558 233.173 38.1185 233.024C38.4918 232.875 38.8385 232.651 39.1585 232.352V230.848C38.8278 230.656 38.4865 230.517 38.1345 230.432C37.7825 230.336 37.3878 230.288 36.9505 230.288C36.3532 230.288 35.8732 230.421 35.5105 230.688C35.1478 230.944 34.9665 231.291 34.9665 231.728ZM45.1004 234.16C44.4604 234.16 43.8684 234.064 43.3244 233.872C42.7804 233.669 42.3164 233.381 41.9324 233.008L42.5564 232.24C43.0257 232.581 43.4577 232.832 43.8524 232.992C44.247 233.141 44.6524 233.216 45.0684 233.216C45.6337 233.216 46.103 233.083 46.4764 232.816C46.8497 232.549 47.0364 232.208 47.0364 231.792C47.0364 231.472 46.9244 231.221 46.7004 231.04C46.487 230.859 46.1297 230.72 45.6284 230.624L44.3484 230.4C43.591 230.261 43.031 230.027 42.6684 229.696C42.3164 229.365 42.1404 228.917 42.1404 228.352C42.1404 227.904 42.2577 227.509 42.4924 227.168C42.7377 226.827 43.0737 226.56 43.5004 226.368C43.927 226.165 44.4124 226.064 44.9564 226.064C45.4897 226.064 45.9964 226.144 46.4764 226.304C46.9564 226.453 47.4417 226.699 47.9324 227.04L47.3564 227.856C46.951 227.568 46.5457 227.36 46.1404 227.232C45.735 227.093 45.3244 227.024 44.9084 227.024C44.3964 227.024 43.9857 227.136 43.6764 227.36C43.367 227.584 43.2124 227.888 43.2124 228.272C43.2124 228.592 43.3084 228.837 43.5004 229.008C43.703 229.179 44.055 229.307 44.5564 229.392L45.8684 229.632C46.6577 229.771 47.2337 230.011 47.5964 230.352C47.959 230.693 48.1404 231.152 48.1404 231.728C48.1404 232.187 48.007 232.603 47.7404 232.976C47.4737 233.339 47.111 233.627 46.6524 233.84C46.1937 234.053 45.6764 234.16 45.1004 234.16ZM52.7385 234.16C52.0665 234.16 51.5545 234 51.2025 233.68C50.8612 233.349 50.6905 232.875 50.6905 232.256V227.152H49.0745V226.192H50.6905V224.048L51.8585 223.776V226.192H54.0985V227.152H51.8585V231.952C51.8585 232.368 51.9438 232.667 52.1145 232.848C52.2958 233.029 52.5892 233.12 52.9945 233.12C53.1972 233.12 53.3785 233.104 53.5385 233.072C53.6985 233.04 53.8852 232.987 54.0985 232.912V233.952C53.8852 234.027 53.6612 234.08 53.4265 234.112C53.1918 234.144 52.9625 234.16 52.7385 234.16ZM59.1731 234.16C58.4478 234.16 57.7918 233.984 57.2051 233.632C56.6185 233.269 56.1545 232.784 55.8131 232.176C55.4718 231.557 55.3011 230.864 55.3011 230.096C55.3011 229.328 55.4611 228.64 55.7811 228.032C56.1118 227.424 56.5545 226.944 57.1091 226.592C57.6638 226.24 58.2825 226.064 58.9651 226.064C59.6585 226.064 60.2718 226.24 60.8051 226.592C61.3491 226.933 61.7758 227.403 62.0851 228C62.4051 228.587 62.5651 229.253 62.5651 230V230.352H56.4371C56.4798 230.885 56.6238 231.365 56.8691 231.792C57.1251 232.208 57.4558 232.539 57.8611 232.784C58.2771 233.019 58.7305 233.136 59.2211 233.136C59.6265 233.136 60.0158 233.067 60.3891 232.928C60.7731 232.779 61.0985 232.581 61.3651 232.336L62.1011 233.12C61.6531 233.472 61.1891 233.733 60.7091 233.904C60.2291 234.075 59.7171 234.16 59.1731 234.16ZM56.4691 229.52H61.4131C61.3598 229.051 61.2158 228.635 60.9811 228.272C60.7571 227.899 60.4691 227.605 60.1171 227.392C59.7758 227.179 59.3918 227.072 58.9651 227.072C58.5385 227.072 58.1491 227.179 57.7971 227.392C57.4451 227.595 57.1518 227.883 56.9171 228.256C56.6931 228.619 56.5438 229.04 56.4691 229.52Z" fill="#151515"/>
<path d="M24.424 274V262.8H29.048C29.7733 262.8 30.4027 262.939 30.936 263.216C31.4693 263.483 31.88 263.867 32.168 264.368C32.4667 264.859 32.616 265.44 32.616 266.112C32.616 266.773 32.4667 267.355 32.168 267.856C31.88 268.357 31.4693 268.747 30.936 269.024C30.4027 269.291 29.7733 269.424 29.048 269.424H25.656V274H24.424ZM25.656 268.368H28.904C29.6827 268.368 30.2907 268.165 30.728 267.76C31.1653 267.355 31.384 266.805 31.384 266.112C31.384 265.419 31.1653 264.875 30.728 264.48C30.2907 264.085 29.6827 263.888 28.904 263.888H25.656V268.368ZM36.6785 274.144C36.1238 274.144 35.6332 274.043 35.2065 273.84C34.7798 273.637 34.4438 273.36 34.1985 273.008C33.9638 272.645 33.8465 272.229 33.8465 271.76C33.8465 271.291 33.9692 270.885 34.2145 270.544C34.4598 270.192 34.8012 269.92 35.2385 269.728C35.6758 269.536 36.1878 269.44 36.7745 269.44C37.2225 269.44 37.6438 269.488 38.0385 269.584C38.4438 269.68 38.8172 269.835 39.1585 270.048V268.976C39.1585 268.336 38.9878 267.856 38.6465 267.536C38.3052 267.205 37.8038 267.04 37.1425 267.04C36.7798 267.04 36.4065 267.093 36.0225 267.2C35.6492 267.307 35.2332 267.477 34.7745 267.712L34.3425 266.816C35.3878 266.315 36.3692 266.064 37.2865 266.064C38.2572 266.064 39.0038 266.304 39.5265 266.784C40.0492 267.253 40.3105 267.931 40.3105 268.816V274H39.1585V273.088C38.8172 273.44 38.4385 273.707 38.0225 273.888C37.6065 274.059 37.1585 274.144 36.6785 274.144ZM34.9665 271.728C34.9665 272.187 35.1425 272.555 35.4945 272.832C35.8572 273.109 36.3318 273.248 36.9185 273.248C37.3558 273.248 37.7558 273.173 38.1185 273.024C38.4918 272.875 38.8385 272.651 39.1585 272.352V270.848C38.8278 270.656 38.4865 270.517 38.1345 270.432C37.7825 270.336 37.3878 270.288 36.9505 270.288C36.3532 270.288 35.8732 270.421 35.5105 270.688C35.1478 270.944 34.9665 271.291 34.9665 271.728ZM45.1004 274.16C44.4604 274.16 43.8684 274.064 43.3244 273.872C42.7804 273.669 42.3164 273.381 41.9324 273.008L42.5564 272.24C43.0257 272.581 43.4577 272.832 43.8524 272.992C44.247 273.141 44.6524 273.216 45.0684 273.216C45.6337 273.216 46.103 273.083 46.4764 272.816C46.8497 272.549 47.0364 272.208 47.0364 271.792C47.0364 271.472 46.9244 271.221 46.7004 271.04C46.487 270.859 46.1297 270.72 45.6284 270.624L44.3484 270.4C43.591 270.261 43.031 270.027 42.6684 269.696C42.3164 269.365 42.1404 268.917 42.1404 268.352C42.1404 267.904 42.2577 267.509 42.4924 267.168C42.7377 266.827 43.0737 266.56 43.5004 266.368C43.927 266.165 44.4124 266.064 44.9564 266.064C45.4897 266.064 45.9964 266.144 46.4764 266.304C46.9564 266.453 47.4417 266.699 47.9324 267.04L47.3564 267.856C46.951 267.568 46.5457 267.36 46.1404 267.232C45.735 267.093 45.3244 267.024 44.9084 267.024C44.3964 267.024 43.9857 267.136 43.6764 267.36C43.367 267.584 43.2124 267.888 43.2124 268.272C43.2124 268.592 43.3084 268.837 43.5004 269.008C43.703 269.179 44.055 269.307 44.5564 269.392L45.8684 269.632C46.6577 269.771 47.2337 270.011 47.5964 270.352C47.959 270.693 48.1404 271.152 48.1404 271.728C48.1404 272.187 48.007 272.603 47.7404 272.976C47.4737 273.339 47.111 273.627 46.6524 273.84C46.1937 274.053 45.6764 274.16 45.1004 274.16ZM52.7385 274.16C52.0665 274.16 51.5545 274 51.2025 273.68C50.8612 273.349 50.6905 272.875 50.6905 272.256V267.152H49.0745V266.192H50.6905V264.048L51.8585 263.776V266.192H54.0985V267.152H51.8585V271.952C51.8585 272.368 51.9438 272.667 52.1145 272.848C52.2958 273.029 52.5892 273.12 52.9945 273.12C53.1972 273.12 53.3785 273.104 53.5385 273.072C53.6985 273.04 53.8852 272.987 54.0985 272.912V273.952C53.8852 274.027 53.6612 274.08 53.4265 274.112C53.1918 274.144 52.9625 274.16 52.7385 274.16ZM59.1731 274.16C58.4478 274.16 57.7918 273.984 57.2051 273.632C56.6185 273.269 56.1545 272.784 55.8131 272.176C55.4718 271.557 55.3011 270.864 55.3011 270.096C55.3011 269.328 55.4611 268.64 55.7811 268.032C56.1118 267.424 56.5545 266.944 57.1091 266.592C57.6638 266.24 58.2825 266.064 58.9651 266.064C59.6585 266.064 60.2718 266.24 60.8051 266.592C61.3491 266.933 61.7758 267.403 62.0851 268C62.4051 268.587 62.5651 269.253 62.5651 270V270.352H56.4371C56.4798 270.885 56.6238 271.365 56.8691 271.792C57.1251 272.208 57.4558 272.539 57.8611 272.784C58.2771 273.019 58.7305 273.136 59.2211 273.136C59.6265 273.136 60.0158 273.067 60.3891 272.928C60.7731 272.779 61.0985 272.581 61.3651 272.336L62.1011 273.12C61.6531 273.472 61.1891 273.733 60.7091 273.904C60.2291 274.075 59.7171 274.16 59.1731 274.16ZM56.4691 269.52H61.4131C61.3598 269.051 61.2158 268.635 60.9811 268.272C60.7571 267.899 60.4691 267.605 60.1171 267.392C59.7758 267.179 59.3918 267.072 58.9651 267.072C58.5385 267.072 58.1491 267.179 57.7971 267.392C57.4451 267.595 57.1518 267.883 56.9171 268.256C56.6931 268.619 56.5438 269.04 56.4691 269.52ZM71.2698 274.16C70.5978 274.16 70.0858 274 69.7338 273.68C69.3924 273.349 69.2218 272.875 69.2218 272.256V267.152H67.6058V266.192H69.2218V264.048L70.3898 263.776V266.192H72.6298V267.152H70.3898V271.952C70.3898 272.368 70.4751 272.667 70.6458 272.848C70.8271 273.029 71.1204 273.12 71.5258 273.12C71.7284 273.12 71.9098 273.104 72.0698 273.072C72.2298 273.04 72.4164 272.987 72.6298 272.912V273.952C72.4164 274.027 72.1924 274.08 71.9578 274.112C71.7231 274.144 71.4938 274.16 71.2698 274.16ZM77.6404 274.128C76.915 274.128 76.2644 273.952 75.6884 273.6C75.1124 273.248 74.659 272.768 74.3284 272.16C73.9977 271.552 73.8324 270.864 73.8324 270.096C73.8324 269.328 73.9977 268.64 74.3284 268.032C74.659 267.424 75.1124 266.944 75.6884 266.592C76.2644 266.24 76.915 266.064 77.6404 266.064C78.355 266.064 78.995 266.24 79.5604 266.592C80.1364 266.944 80.5897 267.424 80.9204 268.032C81.251 268.64 81.4164 269.328 81.4164 270.096C81.4164 270.864 81.251 271.552 80.9204 272.16C80.5897 272.768 80.1364 273.248 79.5604 273.6C78.995 273.952 78.355 274.128 77.6404 274.128ZM77.6244 273.104C78.1364 273.104 78.5897 272.976 78.9844 272.72C79.379 272.453 79.6884 272.091 79.9124 271.632C80.147 271.173 80.2644 270.661 80.2644 270.096C80.2644 269.52 80.147 269.008 79.9124 268.56C79.6884 268.101 79.379 267.744 78.9844 267.488C78.5897 267.221 78.1364 267.088 77.6244 267.088C77.1124 267.088 76.659 267.221 76.2644 267.488C75.8697 267.744 75.555 268.101 75.3204 268.56C75.0964 269.008 74.9844 269.52 74.9844 270.096C74.9844 270.661 75.0964 271.173 75.3204 271.632C75.555 272.091 75.8697 272.453 76.2644 272.72C76.659 272.976 77.1124 273.104 77.6244 273.104ZM87.2 274V266.192H88.368V267.792C88.5707 267.248 88.8587 266.827 89.232 266.528C89.616 266.219 90.0533 266.064 90.544 266.064C90.6827 266.064 90.8107 266.075 90.928 266.096C91.0453 266.107 91.1627 266.133 91.28 266.176V267.232C91.152 267.189 91.0133 267.157 90.864 267.136C90.7253 267.104 90.592 267.088 90.464 267.088C89.984 267.088 89.5627 267.227 89.2 267.504C88.848 267.781 88.5707 268.171 88.368 268.672V274H87.2ZM95.8606 274.16C95.1353 274.16 94.4793 273.984 93.8926 273.632C93.306 273.269 92.842 272.784 92.5006 272.176C92.1593 271.557 91.9886 270.864 91.9886 270.096C91.9886 269.328 92.1486 268.64 92.4686 268.032C92.7993 267.424 93.242 266.944 93.7966 266.592C94.3513 266.24 94.97 266.064 95.6526 266.064C96.346 266.064 96.9593 266.24 97.4926 266.592C98.0366 266.933 98.4633 267.403 98.7726 268C99.0926 268.587 99.2526 269.253 99.2526 270V270.352H93.1246C93.1673 270.885 93.3113 271.365 93.5566 271.792C93.8126 272.208 94.1433 272.539 94.5486 272.784C94.9646 273.019 95.418 273.136 95.9086 273.136C96.314 273.136 96.7033 273.067 97.0766 272.928C97.4606 272.779 97.786 272.581 98.0526 272.336L98.7886 273.12C98.3406 273.472 97.8766 273.733 97.3966 273.904C96.9166 274.075 96.4046 274.16 95.8606 274.16ZM93.1566 269.52H98.1006C98.0473 269.051 97.9033 268.635 97.6686 268.272C97.4446 267.899 97.1566 267.605 96.8046 267.392C96.4633 267.179 96.0793 267.072 95.6526 267.072C95.226 267.072 94.8366 267.179 94.4846 267.392C94.1326 267.595 93.8393 267.883 93.6046 268.256C93.3806 268.619 93.2313 269.04 93.1566 269.52ZM101.247 277.344V266.192H102.399V267.312C102.698 266.917 103.06 266.619 103.487 266.416C103.924 266.203 104.404 266.096 104.927 266.096C105.61 266.096 106.218 266.277 106.751 266.64C107.295 266.992 107.727 267.472 108.047 268.08C108.367 268.677 108.527 269.349 108.527 270.096C108.527 270.843 108.362 271.52 108.031 272.128C107.711 272.736 107.274 273.221 106.719 273.584C106.175 273.936 105.556 274.112 104.863 274.112C104.372 274.112 103.919 274.021 103.503 273.84C103.087 273.648 102.724 273.376 102.415 273.024V277.344H101.247ZM104.639 273.104C105.162 273.104 105.626 272.976 106.031 272.72C106.447 272.453 106.772 272.096 107.007 271.648C107.252 271.189 107.375 270.677 107.375 270.112C107.375 269.536 107.252 269.024 107.007 268.576C106.772 268.128 106.447 267.776 106.031 267.52C105.626 267.253 105.162 267.12 104.639 267.12C104.18 267.12 103.754 267.216 103.359 267.408C102.975 267.589 102.66 267.851 102.415 268.192V272.016C102.671 272.357 102.991 272.624 103.375 272.816C103.77 273.008 104.191 273.104 104.639 273.104ZM110.575 274V262.448L111.743 262.208V274H110.575ZM116.554 274.144C115.999 274.144 115.508 274.043 115.082 273.84C114.655 273.637 114.319 273.36 114.074 273.008C113.839 272.645 113.722 272.229 113.722 271.76C113.722 271.291 113.844 270.885 114.09 270.544C114.335 270.192 114.676 269.92 115.114 269.728C115.551 269.536 116.063 269.44 116.65 269.44C117.098 269.44 117.519 269.488 117.914 269.584C118.319 269.68 118.692 269.835 119.034 270.048V268.976C119.034 268.336 118.863 267.856 118.522 267.536C118.18 267.205 117.679 267.04 117.018 267.04C116.655 267.04 116.282 267.093 115.898 267.2C115.524 267.307 115.108 267.477 114.65 267.712L114.218 266.816C115.263 266.315 116.244 266.064 117.161 266.064C118.132 266.064 118.879 266.304 119.402 266.784C119.924 267.253 120.186 267.931 120.186 268.816V274H119.034V273.088C118.692 273.44 118.314 273.707 117.898 273.888C117.482 274.059 117.034 274.144 116.554 274.144ZM114.842 271.728C114.842 272.187 115.018 272.555 115.37 272.832C115.732 273.109 116.207 273.248 116.794 273.248C117.231 273.248 117.631 273.173 117.994 273.024C118.367 272.875 118.714 272.651 119.034 272.352V270.848C118.703 270.656 118.362 270.517 118.01 270.432C117.658 270.336 117.263 270.288 116.826 270.288C116.228 270.288 115.748 270.421 115.386 270.688C115.023 270.944 114.842 271.291 114.842 271.728ZM126.063 274.128C125.338 274.128 124.682 273.952 124.095 273.6C123.519 273.237 123.061 272.752 122.719 272.144C122.378 271.525 122.207 270.843 122.207 270.096C122.207 269.339 122.378 268.656 122.719 268.048C123.061 267.44 123.519 266.96 124.095 266.608C124.682 266.245 125.338 266.064 126.063 266.064C126.639 266.064 127.189 266.171 127.711 266.384C128.234 266.597 128.687 266.896 129.071 267.28L128.319 268.096C128.042 267.787 127.706 267.547 127.311 267.376C126.917 267.205 126.517 267.12 126.111 267.12C125.599 267.12 125.135 267.253 124.719 267.52C124.314 267.787 123.989 268.144 123.743 268.592C123.498 269.04 123.375 269.541 123.375 270.096C123.375 270.651 123.498 271.152 123.743 271.6C123.989 272.048 124.314 272.405 124.719 272.672C125.135 272.939 125.599 273.072 126.111 273.072C126.517 273.072 126.917 272.987 127.311 272.816C127.706 272.635 128.042 272.395 128.319 272.096L129.071 272.912C128.687 273.296 128.234 273.595 127.711 273.808C127.189 274.021 126.639 274.128 126.063 274.128ZM133.986 274.16C133.26 274.16 132.604 273.984 132.018 273.632C131.431 273.269 130.967 272.784 130.626 272.176C130.284 271.557 130.114 270.864 130.114 270.096C130.114 269.328 130.274 268.64 130.594 268.032C130.924 267.424 131.367 266.944 131.922 266.592C132.476 266.24 133.095 266.064 133.778 266.064C134.471 266.064 135.084 266.24 135.618 266.592C136.162 266.933 136.588 267.403 136.898 268C137.218 268.587 137.378 269.253 137.378 270V270.352H131.25C131.292 270.885 131.436 271.365 131.682 271.792C131.938 272.208 132.268 272.539 132.674 272.784C133.09 273.019 133.543 273.136 134.034 273.136C134.439 273.136 134.828 273.067 135.202 272.928C135.586 272.779 135.911 272.581 136.178 272.336L136.914 273.12C136.466 273.472 136.002 273.733 135.522 273.904C135.042 274.075 134.53 274.16 133.986 274.16ZM131.282 269.52H136.226C136.172 269.051 136.028 268.635 135.794 268.272C135.57 267.899 135.282 267.605 134.93 267.392C134.588 267.179 134.204 267.072 133.778 267.072C133.351 267.072 132.962 267.179 132.61 267.392C132.258 267.595 131.964 267.883 131.73 268.256C131.506 268.619 131.356 269.04 131.282 269.52Z" fill="#151515"/>
<path d="M25.656 312.896H28.216C29.0267 312.896 29.752 312.699 30.392 312.304C31.032 311.909 31.5387 311.376 31.912 310.704C32.296 310.021 32.488 309.253 32.488 308.4C32.488 307.547 32.296 306.784 31.912 306.112C31.5387 305.429 31.032 304.891 30.392 304.496C29.752 304.101 29.0267 303.904 28.216 303.904H25.656V312.896ZM24.424 314V302.8H28.136C28.9573 302.8 29.7093 302.944 30.392 303.232C31.0853 303.509 31.6773 303.904 32.168 304.416C32.6693 304.917 33.0533 305.509 33.32 306.192C33.5973 306.864 33.736 307.6 33.736 308.4C33.736 309.2 33.5973 309.941 33.32 310.624C33.0533 311.296 32.6693 311.888 32.168 312.4C31.6773 312.901 31.0853 313.296 30.392 313.584C29.7093 313.861 28.9573 314 28.136 314H24.424ZM38.6246 314.128C38.07 314.128 37.5793 314.005 37.1526 313.76C36.726 313.515 36.39 313.173 36.1446 312.736C35.91 312.299 35.7926 311.797 35.7926 311.232V306.192H36.9766V310.896C36.9766 311.589 37.1633 312.139 37.5366 312.544C37.91 312.949 38.4166 313.152 39.0566 313.152C39.494 313.152 39.8833 313.051 40.2246 312.848C40.5766 312.645 40.87 312.352 41.1046 311.968V306.192H42.2726V314H41.1046V312.736C40.806 313.195 40.4486 313.541 40.0326 313.776C39.6273 314.011 39.158 314.128 38.6246 314.128ZM44.6688 317.344V306.192H45.8207V307.312C46.1194 306.917 46.4821 306.619 46.9088 306.416C47.3461 306.203 47.8261 306.096 48.3488 306.096C49.0314 306.096 49.6394 306.277 50.1728 306.64C50.7168 306.992 51.1488 307.472 51.4688 308.08C51.7888 308.677 51.9488 309.349 51.9488 310.096C51.9488 310.843 51.7834 311.52 51.4528 312.128C51.1328 312.736 50.6954 313.221 50.1408 313.584C49.5968 313.936 48.9781 314.112 48.2848 314.112C47.7941 314.112 47.3408 314.021 46.9248 313.84C46.5088 313.648 46.1461 313.376 45.8368 313.024V317.344H44.6688ZM48.0608 313.104C48.5834 313.104 49.0474 312.976 49.4528 312.72C49.8688 312.453 50.1941 312.096 50.4288 311.648C50.6741 311.189 50.7968 310.677 50.7968 310.112C50.7968 309.536 50.6741 309.024 50.4288 308.576C50.1941 308.128 49.8688 307.776 49.4528 307.52C49.0474 307.253 48.5834 307.12 48.0608 307.12C47.6021 307.12 47.1754 307.216 46.7808 307.408C46.3968 307.589 46.0821 307.851 45.8368 308.192V312.016C46.0928 312.357 46.4128 312.624 46.7968 312.816C47.1914 313.008 47.6128 313.104 48.0608 313.104ZM53.9969 314V302.448L55.1649 302.208V314H53.9969ZM57.5434 314V306.192H58.7114V314H57.5434ZM58.1354 304.256C57.9007 304.256 57.698 304.176 57.5274 304.016C57.3674 303.845 57.2874 303.648 57.2874 303.424C57.2874 303.2 57.3674 303.008 57.5274 302.848C57.698 302.677 57.9007 302.592 58.1354 302.592C58.37 302.592 58.5674 302.677 58.7274 302.848C58.898 303.008 58.9834 303.2 58.9834 303.424C58.9834 303.648 58.898 303.845 58.7274 304.016C58.5674 304.176 58.37 304.256 58.1354 304.256ZM64.6102 314.128C63.8849 314.128 63.2289 313.952 62.6423 313.6C62.0663 313.237 61.6076 312.752 61.2663 312.144C60.9249 311.525 60.7543 310.843 60.7543 310.096C60.7543 309.339 60.9249 308.656 61.2663 308.048C61.6076 307.44 62.0663 306.96 62.6423 306.608C63.2289 306.245 63.8849 306.064 64.6102 306.064C65.1863 306.064 65.7356 306.171 66.2583 306.384C66.7809 306.597 67.2343 306.896 67.6183 307.28L66.8663 308.096C66.5889 307.787 66.2529 307.547 65.8583 307.376C65.4636 307.205 65.0636 307.12 64.6583 307.12C64.1463 307.12 63.6823 307.253 63.2663 307.52C62.8609 307.787 62.5356 308.144 62.2903 308.592C62.0449 309.04 61.9223 309.541 61.9223 310.096C61.9223 310.651 62.0449 311.152 62.2903 311.6C62.5356 312.048 62.8609 312.405 63.2663 312.672C63.6823 312.939 64.1463 313.072 64.6583 313.072C65.0636 313.072 65.4636 312.987 65.8583 312.816C66.2529 312.635 66.5889 312.395 66.8663 312.096L67.6183 312.912C67.2343 313.296 66.7809 313.595 66.2583 313.808C65.7356 314.021 65.1863 314.128 64.6102 314.128ZM71.6629 314.144C71.1082 314.144 70.6175 314.043 70.1909 313.84C69.7642 313.637 69.4282 313.36 69.1829 313.008C68.9482 312.645 68.8309 312.229 68.8309 311.76C68.8309 311.291 68.9535 310.885 69.1989 310.544C69.4442 310.192 69.7855 309.92 70.2229 309.728C70.6602 309.536 71.1722 309.44 71.7589 309.44C72.2069 309.44 72.6282 309.488 73.0229 309.584C73.4282 309.68 73.8015 309.835 74.1429 310.048V308.976C74.1429 308.336 73.9722 307.856 73.6309 307.536C73.2895 307.205 72.7882 307.04 72.1269 307.04C71.7642 307.04 71.3909 307.093 71.0069 307.2C70.6335 307.307 70.2175 307.477 69.7589 307.712L69.3269 306.816C70.3722 306.315 71.3535 306.064 72.2709 306.064C73.2415 306.064 73.9882 306.304 74.5109 306.784C75.0335 307.253 75.2949 307.931 75.2949 308.816V314H74.1429V313.088C73.8015 313.44 73.4229 313.707 73.0069 313.888C72.5909 314.059 72.1429 314.144 71.6629 314.144ZM69.9509 311.728C69.9509 312.187 70.1269 312.555 70.4789 312.832C70.8415 313.109 71.3162 313.248 71.9029 313.248C72.3402 313.248 72.7402 313.173 73.1029 313.024C73.4762 312.875 73.8229 312.651 74.1429 312.352V310.848C73.8122 310.656 73.4709 310.517 73.1189 310.432C72.7669 310.336 72.3722 310.288 71.9349 310.288C71.3375 310.288 70.8575 310.421 70.4949 310.688C70.1322 310.944 69.9509 311.291 69.9509 311.728ZM80.4104 314.16C79.7384 314.16 79.2264 314 78.8744 313.68C78.533 313.349 78.3624 312.875 78.3624 312.256V307.152H76.7464V306.192H78.3624V304.048L79.5304 303.776V306.192H81.7704V307.152H79.5304V311.952C79.5304 312.368 79.6157 312.667 79.7864 312.848C79.9677 313.029 80.261 313.12 80.6664 313.12C80.869 313.12 81.0504 313.104 81.2104 313.072C81.3704 313.04 81.557 312.987 81.7704 312.912V313.952C81.557 314.027 81.333 314.08 81.0984 314.112C80.8637 314.144 80.6344 314.16 80.4104 314.16ZM86.845 314.16C86.1197 314.16 85.4637 313.984 84.877 313.632C84.2903 313.269 83.8263 312.784 83.485 312.176C83.1437 311.557 82.973 310.864 82.973 310.096C82.973 309.328 83.133 308.64 83.453 308.032C83.7837 307.424 84.2263 306.944 84.781 306.592C85.3357 306.24 85.9543 306.064 86.637 306.064C87.3303 306.064 87.9437 306.24 88.477 306.592C89.021 306.933 89.4477 307.403 89.757 308C90.077 308.587 90.237 309.253 90.237 310V310.352H84.109C84.1517 310.885 84.2957 311.365 84.541 311.792C84.797 312.208 85.1277 312.539 85.533 312.784C85.949 313.019 86.4023 313.136 86.893 313.136C87.2983 313.136 87.6877 313.067 88.061 312.928C88.445 312.779 88.7703 312.581 89.037 312.336L89.773 313.12C89.325 313.472 88.861 313.733 88.381 313.904C87.901 314.075 87.389 314.16 86.845 314.16ZM84.141 309.52H89.085C89.0317 309.051 88.8877 308.635 88.653 308.272C88.429 307.899 88.141 307.605 87.789 307.392C87.4477 307.179 87.0637 307.072 86.637 307.072C86.2103 307.072 85.821 307.179 85.469 307.392C85.117 307.595 84.8237 307.883 84.589 308.256C84.365 308.619 84.2157 309.04 84.141 309.52Z" fill="#151515"/>
<path d="M25.656 352.896H28.216C29.0267 352.896 29.752 352.699 30.392 352.304C31.032 351.909 31.5387 351.376 31.912 350.704C32.296 350.021 32.488 349.253 32.488 348.4C32.488 347.547 32.296 346.784 31.912 346.112C31.5387 345.429 31.032 344.891 30.392 344.496C29.752 344.101 29.0267 343.904 28.216 343.904H25.656V352.896ZM24.424 354V342.8H28.136C28.9573 342.8 29.7093 342.944 30.392 343.232C31.0853 343.509 31.6773 343.904 32.168 344.416C32.6693 344.917 33.0533 345.509 33.32 346.192C33.5973 346.864 33.736 347.6 33.736 348.4C33.736 349.2 33.5973 349.941 33.32 350.624C33.0533 351.296 32.6693 351.888 32.168 352.4C31.6773 352.901 31.0853 353.296 30.392 353.584C29.7093 353.861 28.9573 354 28.136 354H24.424ZM39.3606 354.16C38.6353 354.16 37.9793 353.984 37.3926 353.632C36.806 353.269 36.342 352.784 36.0006 352.176C35.6593 351.557 35.4886 350.864 35.4886 350.096C35.4886 349.328 35.6486 348.64 35.9686 348.032C36.2993 347.424 36.742 346.944 37.2966 346.592C37.8513 346.24 38.47 346.064 39.1526 346.064C39.846 346.064 40.4593 346.24 40.9926 346.592C41.5366 346.933 41.9633 347.403 42.2726 348C42.5926 348.587 42.7526 349.253 42.7526 350V350.352H36.6246C36.6673 350.885 36.8113 351.365 37.0566 351.792C37.3126 352.208 37.6433 352.539 38.0486 352.784C38.4646 353.019 38.918 353.136 39.4086 353.136C39.814 353.136 40.2033 353.067 40.5766 352.928C40.9606 352.779 41.286 352.581 41.5526 352.336L42.2886 353.12C41.8406 353.472 41.3766 353.733 40.8966 353.904C40.4166 354.075 39.9046 354.16 39.3606 354.16ZM36.6566 349.52H41.6006C41.5473 349.051 41.4033 348.635 41.1686 348.272C40.9446 347.899 40.6566 347.605 40.3046 347.392C39.9633 347.179 39.5793 347.072 39.1526 347.072C38.726 347.072 38.3366 347.179 37.9846 347.392C37.6326 347.595 37.3393 347.883 37.1046 348.256C36.8806 348.619 36.7313 349.04 36.6566 349.52ZM44.7469 354V342.448L45.9149 342.208V354H44.7469ZM51.8294 354.16C51.104 354.16 50.448 353.984 49.8614 353.632C49.2747 353.269 48.8107 352.784 48.4694 352.176C48.128 351.557 47.9574 350.864 47.9574 350.096C47.9574 349.328 48.1174 348.64 48.4374 348.032C48.768 347.424 49.2107 346.944 49.7654 346.592C50.32 346.24 50.9387 346.064 51.6214 346.064C52.3147 346.064 52.928 346.24 53.4614 346.592C54.0054 346.933 54.432 347.403 54.7414 348C55.0614 348.587 55.2214 349.253 55.2214 350V350.352H49.0934C49.136 350.885 49.28 351.365 49.5254 351.792C49.7814 352.208 50.112 352.539 50.5174 352.784C50.9334 353.019 51.3867 353.136 51.8774 353.136C52.2827 353.136 52.672 353.067 53.0454 352.928C53.4294 352.779 53.7547 352.581 54.0214 352.336L54.7574 353.12C54.3094 353.472 53.8454 353.733 53.3654 353.904C52.8854 354.075 52.3734 354.16 51.8294 354.16ZM49.1254 349.52H54.0694C54.016 349.051 53.872 348.635 53.6374 348.272C53.4134 347.899 53.1254 347.605 52.7734 347.392C52.432 347.179 52.048 347.072 51.6214 347.072C51.1947 347.072 50.8054 347.179 50.4534 347.392C50.1014 347.595 49.808 347.883 49.5734 348.256C49.3494 348.619 49.2 349.04 49.1254 349.52ZM59.9573 354.16C59.2853 354.16 58.7733 354 58.4213 353.68C58.0799 353.349 57.9093 352.875 57.9093 352.256V347.152H56.2933V346.192H57.9093V344.048L59.0773 343.776V346.192H61.3173V347.152H59.0773V351.952C59.0773 352.368 59.1626 352.667 59.3333 352.848C59.5146 353.029 59.8079 353.12 60.2133 353.12C60.4159 353.12 60.5973 353.104 60.7573 353.072C60.9173 353.04 61.1039 352.987 61.3173 352.912V353.952C61.1039 354.027 60.8799 354.08 60.6453 354.112C60.4106 354.144 60.1813 354.16 59.9573 354.16ZM66.3919 354.16C65.6665 354.16 65.0105 353.984 64.4239 353.632C63.8372 353.269 63.3732 352.784 63.0319 352.176C62.6905 351.557 62.5199 350.864 62.5199 350.096C62.5199 349.328 62.6799 348.64 62.9999 348.032C63.3305 347.424 63.7732 346.944 64.3279 346.592C64.8825 346.24 65.5012 346.064 66.1839 346.064C66.8772 346.064 67.4905 346.24 68.0239 346.592C68.5679 346.933 68.9945 347.403 69.3039 348C69.6239 348.587 69.7839 349.253 69.7839 350V350.352H63.6559C63.6985 350.885 63.8425 351.365 64.0879 351.792C64.3439 352.208 64.6745 352.539 65.0799 352.784C65.4959 353.019 65.9492 353.136 66.4399 353.136C66.8452 353.136 67.2345 353.067 67.6079 352.928C67.9919 352.779 68.3172 352.581 68.5839 352.336L69.3199 353.12C68.8719 353.472 68.4079 353.733 67.9279 353.904C67.4479 354.075 66.9359 354.16 66.3919 354.16ZM63.6879 349.52H68.6319C68.5785 349.051 68.4345 348.635 68.1999 348.272C67.9759 347.899 67.6879 347.605 67.3359 347.392C66.9945 347.179 66.6105 347.072 66.1839 347.072C65.7572 347.072 65.3679 347.179 65.0159 347.392C64.6639 347.595 64.3705 347.883 64.1359 348.256C63.9119 348.619 63.7625 349.04 63.6879 349.52Z" fill="#151515"/>
</g>
<path d="M10 40.5H152C153.381 40.5 154.5 41.6193 154.5 43V373C154.5 374.381 153.381 375.5 152 375.5H10C8.61929 375.5 7.5 374.381 7.5 373V43C7.5 41.6193 8.61929 40.5 10 40.5Z" stroke="#C7C7C7"/>
</g>
<defs>
<filter id="filter0_d_8079_4081" x="0" y="37" width="162" height="350" filterUnits="userSpaceOnUse" color-interpolation-filters="sRGB">
<feFlood flood-opacity="0" result="BackgroundImageFix"/>
<feColorMatrix in="SourceAlpha" type="matrix" values="0 0 0 0 0 0 0 0 0 0 0 0 0 0 0 0 0 0 127 0" result="hardAlpha"/>
<feMorphology radius="1" operator="dilate" in="SourceAlpha" result="effect1_dropShadow_8079_4081"/>
<feOffset dy="4"/>
<feGaussianBlur stdDeviation="3"/>
<feComposite in2="hardAlpha" operator="out"/>
<feColorMatrix type="matrix" values="0 0 0 0 0.0823529 0 0 0 0 0.0823529 0 0 0 0 0.0823529 0 0 0 0.25 0"/>
<feBlend mode="normal" in2="BackgroundImageFix" result="effect1_dropShadow_8079_4081"/>
<feBlend mode="normal" in="SourceGraphic" in2="effect1_dropShadow_8079_4081" result="shape"/>
</filter>
<clipPath id="clip0_8079_4081">
<rect width="12" height="12" fill="white" transform="translate(127 12)"/>
</clipPath>
<clipPath id="clip1_8079_4081">
<path d="M7 43C7 41.3432 8.34315 40 10 40H152C153.657 40 155 41.3431 155 43V373C155 374.657 153.657 376 152 376H10C8.34315 376 7 374.657 7 373V43Z" fill="white"/>
</clipPath>
</defs>
</svg>
