<svg width="482" height="425" viewBox="0 0 482 425" fill="none" xmlns="http://www.w3.org/2000/svg">
<path d="M170 1H312C313.105 1 314 1.89543 314 3V33C314 34.1046 313.105 35 312 35H170C168.895 35 168 34.1046 168 33V3C168 1.89543 168.895 1 170 1Z" fill="white"/>
<path d="M170 1H312C313.105 1 314 1.89543 314 3V33C314 34.1046 313.105 35 312 35H170C168.895 35 168 34.1046 168 33V3C168 1.89543 168.895 1 170 1Z" stroke="#0066CC" stroke-width="2"/>
<path d="M184.424 24V12.8H192.072V13.888H185.656V17.808H190.104V18.88H185.656V22.912H192.136V24H184.424ZM197.042 24.112C196.37 24.112 195.762 23.936 195.218 23.584C194.674 23.2213 194.242 22.7413 193.922 22.144C193.602 21.536 193.442 20.8587 193.442 20.112C193.442 19.3547 193.602 18.6773 193.922 18.08C194.252 17.472 194.695 16.992 195.25 16.64C195.804 16.2773 196.423 16.096 197.106 16.096C197.586 16.096 198.034 16.192 198.45 16.384C198.866 16.5653 199.228 16.832 199.538 17.184V12.448L200.706 12.208V24H199.538V22.96C199.239 23.3333 198.876 23.6213 198.45 23.824C198.023 24.016 197.554 24.112 197.042 24.112ZM197.33 23.088C197.788 23.088 198.21 22.9973 198.594 22.816C198.978 22.6347 199.292 22.3787 199.538 22.048V18.176C199.282 17.8453 198.956 17.5893 198.562 17.408C198.178 17.216 197.767 17.12 197.33 17.12C196.807 17.12 196.338 17.248 195.922 17.504C195.516 17.76 195.191 18.112 194.946 18.56C194.711 19.008 194.594 19.52 194.594 20.096C194.594 20.6613 194.711 21.1733 194.946 21.632C195.191 22.08 195.516 22.4373 195.922 22.704C196.338 22.96 196.807 23.088 197.33 23.088ZM203.09 24V16.192H204.258V24H203.09ZM203.682 14.256C203.448 14.256 203.245 14.176 203.074 14.016C202.914 13.8453 202.834 13.648 202.834 13.424C202.834 13.2 202.914 13.008 203.074 12.848C203.245 12.6773 203.448 12.592 203.682 12.592C203.917 12.592 204.114 12.6773 204.274 12.848C204.445 13.008 204.53 13.2 204.53 13.424C204.53 13.648 204.445 13.8453 204.274 14.016C204.114 14.176 203.917 14.256 203.682 14.256ZM209.629 24.16C208.957 24.16 208.445 24 208.093 23.68C207.752 23.3493 207.581 22.8747 207.581 22.256V17.152H205.965V16.192H207.581V14.048L208.749 13.776V16.192H210.989V17.152H208.749V21.952C208.749 22.368 208.834 22.6667 209.005 22.848C209.186 23.0293 209.48 23.12 209.885 23.12C210.088 23.12 210.269 23.104 210.429 23.072C210.589 23.04 210.776 22.9867 210.989 22.912V23.952C210.776 24.0267 210.552 24.08 210.317 24.112C210.082 24.144 209.853 24.16 209.629 24.16Z" fill="#151515"/>
<path d="M298.354 26.6465L294.53 22.8232C294.238 22.5303 293.762 22.5303 293.47 22.8232L289.647 26.6465C289.504 26.7895 289.461 27.0044 289.538 27.1914C289.615 27.3784 289.798 27.5 290 27.5H298C298.202 27.5 298.385 27.3784 298.462 27.1914C298.54 27.0044 298.497 26.7895 298.354 26.6465Z" fill="#151515"/>
<g filter="url(#filter0_d_8079_4081)">
<g clip-path="url(#clip0_8079_4081)">
<path d="M167 43C167 41.3432 168.343 40 170 40H312C313.657 40 315 41.3431 315 43V373C315 374.657 313.657 376 312 376H170C168.343 376 167 374.657 167 373V43Z" fill="white"/>
<path d="M188.696 74.176C187.779 74.176 186.979 73.9787 186.296 73.584C185.624 73.1787 185.107 72.608 184.744 71.872C184.381 71.136 184.2 70.2667 184.2 69.264V62.8H185.432V69.264C185.432 70.032 185.565 70.6987 185.832 71.264C186.099 71.8293 186.477 72.272 186.968 72.592C187.459 72.9013 188.035 73.056 188.696 73.056C189.357 73.056 189.933 72.9013 190.424 72.592C190.915 72.272 191.293 71.8293 191.56 71.264C191.827 70.6987 191.96 70.032 191.96 69.264V62.8H193.192V69.264C193.192 70.2667 193.011 71.136 192.648 71.872C192.285 72.608 191.768 73.1787 191.096 73.584C190.424 73.9787 189.624 74.176 188.696 74.176ZM195.591 74V66.192H196.759V67.456C197.057 66.9867 197.415 66.64 197.831 66.416C198.247 66.1813 198.716 66.064 199.239 66.064C199.804 66.064 200.295 66.1867 200.711 66.432C201.137 66.6667 201.468 67.0027 201.703 67.44C201.948 67.8667 202.071 68.368 202.071 68.944V74H200.903V69.28C200.903 68.5867 200.711 68.0427 200.327 67.648C199.953 67.2427 199.447 67.04 198.807 67.04C198.38 67.04 197.991 67.1413 197.639 67.344C197.287 67.5467 196.993 67.8453 196.759 68.24V74H195.591ZM207.667 74.112C206.995 74.112 206.387 73.936 205.843 73.584C205.299 73.2213 204.867 72.7413 204.547 72.144C204.227 71.536 204.067 70.8587 204.067 70.112C204.067 69.3547 204.227 68.6773 204.547 68.08C204.877 67.472 205.32 66.992 205.875 66.64C206.429 66.2773 207.048 66.096 207.731 66.096C208.211 66.096 208.659 66.192 209.075 66.384C209.491 66.5653 209.853 66.832 210.163 67.184V62.448L211.331 62.208V74H210.163V72.96C209.864 73.3333 209.501 73.6213 209.075 73.824C208.648 74.016 208.179 74.112 207.667 74.112ZM207.955 73.088C208.413 73.088 208.835 72.9973 209.219 72.816C209.603 72.6347 209.917 72.3787 210.163 72.048V68.176C209.907 67.8453 209.581 67.5893 209.187 67.408C208.803 67.216 208.392 67.12 207.955 67.12C207.432 67.12 206.963 67.248 206.547 67.504C206.141 67.76 205.816 68.112 205.571 68.56C205.336 69.008 205.219 69.52 205.219 70.096C205.219 70.6613 205.336 71.1733 205.571 71.632C205.816 72.08 206.141 72.4373 206.547 72.704C206.963 72.96 207.432 73.088 207.955 73.088ZM217.187 74.128C216.462 74.128 215.811 73.952 215.235 73.6C214.659 73.248 214.206 72.768 213.875 72.16C213.545 71.552 213.379 70.864 213.379 70.096C213.379 69.328 213.545 68.64 213.875 68.032C214.206 67.424 214.659 66.944 215.235 66.592C215.811 66.24 216.462 66.064 217.187 66.064C217.902 66.064 218.542 66.24 219.107 66.592C219.683 66.944 220.137 67.424 220.467 68.032C220.798 68.64 220.963 69.328 220.963 70.096C220.963 70.864 220.798 71.552 220.467 72.16C220.137 72.768 219.683 73.248 219.107 73.6C218.542 73.952 217.902 74.128 217.187 74.128ZM217.171 73.104C217.683 73.104 218.137 72.976 218.531 72.72C218.926 72.4533 219.235 72.0907 219.459 71.632C219.694 71.1733 219.811 70.6613 219.811 70.096C219.811 69.52 219.694 69.008 219.459 68.56C219.235 68.1013 218.926 67.744 218.531 67.488C218.137 67.2213 217.683 67.088 217.171 67.088C216.659 67.088 216.206 67.2213 215.811 67.488C215.417 67.744 215.102 68.1013 214.867 68.56C214.643 69.008 214.531 69.52 214.531 70.096C214.531 70.6613 214.643 71.1733 214.867 71.632C215.102 72.0907 215.417 72.4533 215.811 72.72C216.206 72.976 216.659 73.104 217.171 73.104Z" fill="#151515"/>
<path d="M184.424 114V102.8H189.016C189.731 102.8 190.355 102.939 190.888 103.216C191.421 103.483 191.837 103.856 192.136 104.336C192.435 104.816 192.584 105.381 192.584 106.032C192.584 106.779 192.376 107.419 191.96 107.952C191.544 108.475 190.973 108.843 190.248 109.056L192.632 114H191.272L189 109.216H185.656V114H184.424ZM185.656 108.192H188.92C189.656 108.192 190.243 108 190.68 107.616C191.128 107.221 191.352 106.699 191.352 106.048C191.352 105.387 191.128 104.864 190.68 104.48C190.243 104.085 189.656 103.888 188.92 103.888H185.656V108.192ZM197.673 114.16C196.948 114.16 196.292 113.984 195.705 113.632C195.118 113.269 194.654 112.784 194.313 112.176C193.972 111.557 193.801 110.864 193.801 110.096C193.801 109.328 193.961 108.64 194.281 108.032C194.612 107.424 195.054 106.944 195.609 106.592C196.164 106.24 196.782 106.064 197.465 106.064C198.158 106.064 198.772 106.24 199.305 106.592C199.849 106.933 200.276 107.403 200.585 108C200.905 108.587 201.065 109.253 201.065 110V110.352H194.937C194.98 110.885 195.124 111.365 195.369 111.792C195.625 112.208 195.956 112.539 196.361 112.784C196.777 113.019 197.23 113.136 197.721 113.136C198.126 113.136 198.516 113.067 198.889 112.928C199.273 112.779 199.598 112.581 199.865 112.336L200.601 113.12C200.153 113.472 199.689 113.733 199.209 113.904C198.729 114.075 198.217 114.16 197.673 114.16ZM194.969 109.52H199.913C199.86 109.051 199.716 108.635 199.481 108.272C199.257 107.899 198.969 107.605 198.617 107.392C198.276 107.179 197.892 107.072 197.465 107.072C197.038 107.072 196.649 107.179 196.297 107.392C195.945 107.595 195.652 107.883 195.417 108.256C195.193 108.619 195.044 109.04 194.969 109.52ZM206.307 114.112C205.635 114.112 205.027 113.936 204.483 113.584C203.939 113.221 203.507 112.741 203.187 112.144C202.867 111.536 202.707 110.859 202.707 110.112C202.707 109.355 202.867 108.677 203.187 108.08C203.518 107.472 203.961 106.992 204.515 106.64C205.07 106.277 205.689 106.096 206.371 106.096C206.851 106.096 207.299 106.192 207.715 106.384C208.131 106.565 208.494 106.832 208.803 107.184V102.448L209.971 102.208V114H208.803V112.96C208.505 113.333 208.142 113.621 207.715 113.824C207.289 114.016 206.819 114.112 206.307 114.112ZM206.595 113.088C207.054 113.088 207.475 112.997 207.859 112.816C208.243 112.635 208.558 112.379 208.803 112.048V108.176C208.547 107.845 208.222 107.589 207.827 107.408C207.443 107.216 207.033 107.12 206.595 107.12C206.073 107.12 205.603 107.248 205.187 107.504C204.782 107.76 204.457 108.112 204.211 108.56C203.977 109.008 203.859 109.52 203.859 110.096C203.859 110.661 203.977 111.173 204.211 111.632C204.457 112.08 204.782 112.437 205.187 112.704C205.603 112.96 206.073 113.088 206.595 113.088ZM215.828 114.128C215.103 114.128 214.452 113.952 213.876 113.6C213.3 113.248 212.847 112.768 212.516 112.16C212.185 111.552 212.02 110.864 212.02 110.096C212.02 109.328 212.185 108.64 212.516 108.032C212.847 107.424 213.3 106.944 213.876 106.592C214.452 106.24 215.103 106.064 215.828 106.064C216.543 106.064 217.183 106.24 217.748 106.592C218.324 106.944 218.777 107.424 219.108 108.032C219.439 108.64 219.604 109.328 219.604 110.096C219.604 110.864 219.439 111.552 219.108 112.16C218.777 112.768 218.324 113.248 217.748 113.6C217.183 113.952 216.543 114.128 215.828 114.128ZM215.812 113.104C216.324 113.104 216.777 112.976 217.172 112.72C217.567 112.453 217.876 112.091 218.1 111.632C218.335 111.173 218.452 110.661 218.452 110.096C218.452 109.52 218.335 109.008 218.1 108.56C217.876 108.101 217.567 107.744 217.172 107.488C216.777 107.221 216.324 107.088 215.812 107.088C215.3 107.088 214.847 107.221 214.452 107.488C214.057 107.744 213.743 108.101 213.508 108.56C213.284 109.008 213.172 109.52 213.172 110.096C213.172 110.661 213.284 111.173 213.508 111.632C213.743 112.091 214.057 112.453 214.452 112.72C214.847 112.976 215.3 113.104 215.812 113.104Z" fill="#151515"/>
<path d="M189.592 154.176C188.792 154.176 188.045 154.032 187.352 153.744C186.669 153.445 186.067 153.035 185.544 152.512C185.021 151.979 184.616 151.365 184.328 150.672C184.04 149.968 183.896 149.211 183.896 148.4C183.896 147.589 184.04 146.837 184.328 146.144C184.616 145.44 185.021 144.827 185.544 144.304C186.067 143.771 186.669 143.36 187.352 143.072C188.045 142.773 188.792 142.624 189.592 142.624C190.147 142.624 190.675 142.699 191.176 142.848C191.688 142.987 192.168 143.195 192.616 143.472C193.064 143.739 193.464 144.069 193.816 144.464L193 145.312C192.584 144.811 192.072 144.427 191.464 144.16C190.867 143.883 190.243 143.744 189.592 143.744C188.963 143.744 188.376 143.861 187.832 144.096C187.288 144.331 186.813 144.661 186.408 145.088C186.013 145.515 185.704 146.011 185.48 146.576C185.256 147.131 185.144 147.739 185.144 148.4C185.144 149.051 185.256 149.659 185.48 150.224C185.704 150.789 186.013 151.285 186.408 151.712C186.813 152.139 187.288 152.469 187.832 152.704C188.376 152.939 188.963 153.056 189.592 153.056C190.243 153.056 190.867 152.917 191.464 152.64C192.072 152.363 192.584 151.979 193 151.488L193.816 152.336C193.464 152.731 193.064 153.067 192.616 153.344C192.168 153.611 191.688 153.819 191.176 153.968C190.675 154.107 190.147 154.176 189.592 154.176ZM198.359 154.128C197.804 154.128 197.314 154.005 196.887 153.76C196.46 153.515 196.124 153.173 195.879 152.736C195.644 152.299 195.527 151.797 195.527 151.232V146.192H196.711V150.896C196.711 151.589 196.898 152.139 197.271 152.544C197.644 152.949 198.151 153.152 198.791 153.152C199.228 153.152 199.618 153.051 199.959 152.848C200.311 152.645 200.604 152.352 200.839 151.968V146.192H202.007V154H200.839V152.736C200.54 153.195 200.183 153.541 199.767 153.776C199.362 154.011 198.892 154.128 198.359 154.128ZM207.379 154.16C206.707 154.16 206.195 154 205.843 153.68C205.502 153.349 205.331 152.875 205.331 152.256V147.152H203.715V146.192H205.331V144.048L206.499 143.776V146.192H208.739V147.152H206.499V151.952C206.499 152.368 206.584 152.667 206.755 152.848C206.936 153.029 207.23 153.12 207.635 153.12C207.838 153.12 208.019 153.104 208.179 153.072C208.339 153.04 208.526 152.987 208.739 152.912V153.952C208.526 154.027 208.302 154.08 208.067 154.112C207.832 154.144 207.603 154.16 207.379 154.16Z" fill="#151515"/>
<path d="M189.592 194.176C188.792 194.176 188.045 194.032 187.352 193.744C186.669 193.445 186.067 193.035 185.544 192.512C185.021 191.979 184.616 191.365 184.328 190.672C184.04 189.968 183.896 189.211 183.896 188.4C183.896 187.589 184.04 186.837 184.328 186.144C184.616 185.44 185.021 184.827 185.544 184.304C186.067 183.771 186.669 183.36 187.352 183.072C188.045 182.773 188.792 182.624 189.592 182.624C190.147 182.624 190.675 182.699 191.176 182.848C191.688 182.987 192.168 183.195 192.616 183.472C193.064 183.739 193.464 184.069 193.816 184.464L193 185.312C192.584 184.811 192.072 184.427 191.464 184.16C190.867 183.883 190.243 183.744 189.592 183.744C188.963 183.744 188.376 183.861 187.832 184.096C187.288 184.331 186.813 184.661 186.408 185.088C186.013 185.515 185.704 186.011 185.48 186.576C185.256 187.131 185.144 187.739 185.144 188.4C185.144 189.051 185.256 189.659 185.48 190.224C185.704 190.789 186.013 191.285 186.408 191.712C186.813 192.139 187.288 192.469 187.832 192.704C188.376 192.939 188.963 193.056 189.592 193.056C190.243 193.056 190.867 192.917 191.464 192.64C192.072 192.363 192.584 191.979 193 191.488L193.816 192.336C193.464 192.731 193.064 193.067 192.616 193.344C192.168 193.611 191.688 193.819 191.176 193.968C190.675 194.107 190.147 194.176 189.592 194.176ZM199.031 194.128C198.306 194.128 197.655 193.952 197.079 193.6C196.503 193.248 196.05 192.768 195.719 192.16C195.388 191.552 195.223 190.864 195.223 190.096C195.223 189.328 195.388 188.64 195.719 188.032C196.05 187.424 196.503 186.944 197.079 186.592C197.655 186.24 198.306 186.064 199.031 186.064C199.746 186.064 200.386 186.24 200.951 186.592C201.527 186.944 201.98 187.424 202.311 188.032C202.642 188.64 202.807 189.328 202.807 190.096C202.807 190.864 202.642 191.552 202.311 192.16C201.98 192.768 201.527 193.248 200.951 193.6C200.386 193.952 199.746 194.128 199.031 194.128ZM199.015 193.104C199.527 193.104 199.98 192.976 200.375 192.72C200.77 192.453 201.079 192.091 201.303 191.632C201.538 191.173 201.655 190.661 201.655 190.096C201.655 189.52 201.538 189.008 201.303 188.56C201.079 188.101 200.77 187.744 200.375 187.488C199.98 187.221 199.527 187.088 199.015 187.088C198.503 187.088 198.05 187.221 197.655 187.488C197.26 187.744 196.946 188.101 196.711 188.56C196.487 189.008 196.375 189.52 196.375 190.096C196.375 190.661 196.487 191.173 196.711 191.632C196.946 192.091 197.26 192.453 197.655 192.72C198.05 192.976 198.503 193.104 199.015 193.104ZM204.856 197.344V186.192H206.008V187.312C206.307 186.917 206.67 186.619 207.096 186.416C207.534 186.203 208.014 186.096 208.536 186.096C209.219 186.096 209.827 186.277 210.36 186.64C210.904 186.992 211.336 187.472 211.656 188.08C211.976 188.677 212.136 189.349 212.136 190.096C212.136 190.843 211.971 191.52 211.64 192.128C211.32 192.736 210.883 193.221 210.328 193.584C209.784 193.936 209.166 194.112 208.472 194.112C207.982 194.112 207.528 194.021 207.112 193.84C206.696 193.648 206.334 193.376 206.024 193.024V197.344H204.856ZM208.248 193.104C208.771 193.104 209.235 192.976 209.64 192.72C210.056 192.453 210.382 192.096 210.616 191.648C210.862 191.189 210.984 190.677 210.984 190.112C210.984 189.536 210.862 189.024 210.616 188.576C210.382 188.128 210.056 187.776 209.64 187.52C209.235 187.253 208.771 187.12 208.248 187.12C207.79 187.12 207.363 187.216 206.968 187.408C206.584 187.589 206.27 187.851 206.024 188.192V192.016C206.28 192.357 206.6 192.624 206.984 192.816C207.379 193.008 207.8 193.104 208.248 193.104ZM214.286 197.504C214.041 197.504 213.79 197.467 213.534 197.392V196.352C213.641 196.373 213.753 196.389 213.87 196.4C213.987 196.411 214.089 196.416 214.174 196.416C214.473 196.416 214.718 196.336 214.91 196.176C215.113 196.016 215.283 195.765 215.422 195.424L215.998 194L212.99 186.192H214.286L216.654 192.608L219.166 186.192H220.462L216.526 195.776C216.355 196.192 216.169 196.528 215.966 196.784C215.763 197.04 215.529 197.221 215.262 197.328C214.995 197.445 214.67 197.504 214.286 197.504Z" fill="#151515"/>
<path d="M184.424 234V222.8H189.048C189.773 222.8 190.403 222.939 190.936 223.216C191.469 223.483 191.88 223.867 192.168 224.368C192.467 224.859 192.616 225.44 192.616 226.112C192.616 226.773 192.467 227.355 192.168 227.856C191.88 228.357 191.469 228.747 190.936 229.024C190.403 229.291 189.773 229.424 189.048 229.424H185.656V234H184.424ZM185.656 228.368H188.904C189.683 228.368 190.291 228.165 190.728 227.76C191.165 227.355 191.384 226.805 191.384 226.112C191.384 225.419 191.165 224.875 190.728 224.48C190.291 224.085 189.683 223.888 188.904 223.888H185.656V228.368ZM196.679 234.144C196.124 234.144 195.633 234.043 195.207 233.84C194.78 233.637 194.444 233.36 194.199 233.008C193.964 232.645 193.847 232.229 193.847 231.76C193.847 231.291 193.969 230.885 194.215 230.544C194.46 230.192 194.801 229.92 195.239 229.728C195.676 229.536 196.188 229.44 196.775 229.44C197.223 229.44 197.644 229.488 198.039 229.584C198.444 229.68 198.817 229.835 199.159 230.048V228.976C199.159 228.336 198.988 227.856 198.647 227.536C198.305 227.205 197.804 227.04 197.143 227.04C196.78 227.04 196.407 227.093 196.023 227.2C195.649 227.307 195.233 227.477 194.775 227.712L194.343 226.816C195.388 226.315 196.369 226.064 197.286 226.064C198.257 226.064 199.004 226.304 199.527 226.784C200.049 227.253 200.311 227.931 200.311 228.816V234H199.159V233.088C198.817 233.44 198.439 233.707 198.023 233.888C197.607 234.059 197.159 234.144 196.679 234.144ZM194.967 231.728C194.967 232.187 195.143 232.555 195.495 232.832C195.857 233.109 196.332 233.248 196.919 233.248C197.356 233.248 197.756 233.173 198.119 233.024C198.492 232.875 198.839 232.651 199.159 232.352V230.848C198.828 230.656 198.487 230.517 198.135 230.432C197.783 230.336 197.388 230.288 196.951 230.288C196.353 230.288 195.873 230.421 195.511 230.688C195.148 230.944 194.967 231.291 194.967 231.728ZM205.1 234.16C204.46 234.16 203.868 234.064 203.324 233.872C202.78 233.669 202.316 233.381 201.932 233.008L202.556 232.24C203.026 232.581 203.458 232.832 203.852 232.992C204.247 233.141 204.652 233.216 205.068 233.216C205.634 233.216 206.103 233.083 206.476 232.816C206.85 232.549 207.036 232.208 207.036 231.792C207.036 231.472 206.924 231.221 206.7 231.04C206.487 230.859 206.13 230.72 205.628 230.624L204.348 230.4C203.591 230.261 203.031 230.027 202.668 229.696C202.316 229.365 202.14 228.917 202.14 228.352C202.14 227.904 202.258 227.509 202.492 227.168C202.738 226.827 203.074 226.56 203.5 226.368C203.927 226.165 204.412 226.064 204.956 226.064C205.49 226.064 205.996 226.144 206.476 226.304C206.956 226.453 207.442 226.699 207.932 227.04L207.356 227.856C206.951 227.568 206.546 227.36 206.14 227.232C205.735 227.093 205.324 227.024 204.908 227.024C204.396 227.024 203.986 227.136 203.676 227.36C203.367 227.584 203.212 227.888 203.212 228.272C203.212 228.592 203.308 228.837 203.5 229.008C203.703 229.179 204.055 229.307 204.556 229.392L205.868 229.632C206.658 229.771 207.234 230.011 207.596 230.352C207.959 230.693 208.14 231.152 208.14 231.728C208.14 232.187 208.007 232.603 207.74 232.976C207.474 233.339 207.111 233.627 206.652 233.84C206.194 234.053 205.676 234.16 205.1 234.16ZM212.739 234.16C212.067 234.16 211.555 234 211.203 233.68C210.861 233.349 210.691 232.875 210.691 232.256V227.152H209.075V226.192H210.691V224.048L211.859 223.776V226.192H214.099V227.152H211.859V231.952C211.859 232.368 211.944 232.667 212.115 232.848C212.296 233.029 212.589 233.12 212.995 233.12C213.197 233.12 213.379 233.104 213.539 233.072C213.699 233.04 213.885 232.987 214.099 232.912V233.952C213.885 234.027 213.661 234.08 213.427 234.112C213.192 234.144 212.963 234.16 212.739 234.16ZM219.173 234.16C218.448 234.16 217.792 233.984 217.205 233.632C216.618 233.269 216.154 232.784 215.813 232.176C215.472 231.557 215.301 230.864 215.301 230.096C215.301 229.328 215.461 228.64 215.781 228.032C216.112 227.424 216.554 226.944 217.109 226.592C217.664 226.24 218.282 226.064 218.965 226.064C219.658 226.064 220.272 226.24 220.805 226.592C221.349 226.933 221.776 227.403 222.085 228C222.405 228.587 222.565 229.253 222.565 230V230.352H216.437C216.48 230.885 216.624 231.365 216.869 231.792C217.125 232.208 217.456 232.539 217.861 232.784C218.277 233.019 218.73 233.136 219.221 233.136C219.626 233.136 220.016 233.067 220.389 232.928C220.773 232.779 221.098 232.581 221.365 232.336L222.101 233.12C221.653 233.472 221.189 233.733 220.709 233.904C220.229 234.075 219.717 234.16 219.173 234.16ZM216.469 229.52H221.413C221.36 229.051 221.216 228.635 220.981 228.272C220.757 227.899 220.469 227.605 220.117 227.392C219.776 227.179 219.392 227.072 218.965 227.072C218.538 227.072 218.149 227.179 217.797 227.392C217.445 227.595 217.152 227.883 216.917 228.256C216.693 228.619 216.544 229.04 216.469 229.52Z" fill="#151515"/>
<path d="M184.424 274V262.8H189.048C189.773 262.8 190.403 262.939 190.936 263.216C191.469 263.483 191.88 263.867 192.168 264.368C192.467 264.859 192.616 265.44 192.616 266.112C192.616 266.773 192.467 267.355 192.168 267.856C191.88 268.357 191.469 268.747 190.936 269.024C190.403 269.291 189.773 269.424 189.048 269.424H185.656V274H184.424ZM185.656 268.368H188.904C189.683 268.368 190.291 268.165 190.728 267.76C191.165 267.355 191.384 266.805 191.384 266.112C191.384 265.419 191.165 264.875 190.728 264.48C190.291 264.085 189.683 263.888 188.904 263.888H185.656V268.368ZM196.679 274.144C196.124 274.144 195.633 274.043 195.207 273.84C194.78 273.637 194.444 273.36 194.199 273.008C193.964 272.645 193.847 272.229 193.847 271.76C193.847 271.291 193.969 270.885 194.215 270.544C194.46 270.192 194.801 269.92 195.239 269.728C195.676 269.536 196.188 269.44 196.775 269.44C197.223 269.44 197.644 269.488 198.039 269.584C198.444 269.68 198.817 269.835 199.159 270.048V268.976C199.159 268.336 198.988 267.856 198.647 267.536C198.305 267.205 197.804 267.04 197.143 267.04C196.78 267.04 196.407 267.093 196.023 267.2C195.649 267.307 195.233 267.477 194.775 267.712L194.343 266.816C195.388 266.315 196.369 266.064 197.286 266.064C198.257 266.064 199.004 266.304 199.527 266.784C200.049 267.253 200.311 267.931 200.311 268.816V274H199.159V273.088C198.817 273.44 198.439 273.707 198.023 273.888C197.607 274.059 197.159 274.144 196.679 274.144ZM194.967 271.728C194.967 272.187 195.143 272.555 195.495 272.832C195.857 273.109 196.332 273.248 196.919 273.248C197.356 273.248 197.756 273.173 198.119 273.024C198.492 272.875 198.839 272.651 199.159 272.352V270.848C198.828 270.656 198.487 270.517 198.135 270.432C197.783 270.336 197.388 270.288 196.951 270.288C196.353 270.288 195.873 270.421 195.511 270.688C195.148 270.944 194.967 271.291 194.967 271.728ZM205.1 274.16C204.46 274.16 203.868 274.064 203.324 273.872C202.78 273.669 202.316 273.381 201.932 273.008L202.556 272.24C203.026 272.581 203.458 272.832 203.852 272.992C204.247 273.141 204.652 273.216 205.068 273.216C205.634 273.216 206.103 273.083 206.476 272.816C206.85 272.549 207.036 272.208 207.036 271.792C207.036 271.472 206.924 271.221 206.7 271.04C206.487 270.859 206.13 270.72 205.628 270.624L204.348 270.4C203.591 270.261 203.031 270.027 202.668 269.696C202.316 269.365 202.14 268.917 202.14 268.352C202.14 267.904 202.258 267.509 202.492 267.168C202.738 266.827 203.074 266.56 203.5 266.368C203.927 266.165 204.412 266.064 204.956 266.064C205.49 266.064 205.996 266.144 206.476 266.304C206.956 266.453 207.442 266.699 207.932 267.04L207.356 267.856C206.951 267.568 206.546 267.36 206.14 267.232C205.735 267.093 205.324 267.024 204.908 267.024C204.396 267.024 203.986 267.136 203.676 267.36C203.367 267.584 203.212 267.888 203.212 268.272C203.212 268.592 203.308 268.837 203.5 269.008C203.703 269.179 204.055 269.307 204.556 269.392L205.868 269.632C206.658 269.771 207.234 270.011 207.596 270.352C207.959 270.693 208.14 271.152 208.14 271.728C208.14 272.187 208.007 272.603 207.74 272.976C207.474 273.339 207.111 273.627 206.652 273.84C206.194 274.053 205.676 274.16 205.1 274.16ZM212.739 274.16C212.067 274.16 211.555 274 211.203 273.68C210.861 273.349 210.691 272.875 210.691 272.256V267.152H209.075V266.192H210.691V264.048L211.859 263.776V266.192H214.099V267.152H211.859V271.952C211.859 272.368 211.944 272.667 212.115 272.848C212.296 273.029 212.589 273.12 212.995 273.12C213.197 273.12 213.379 273.104 213.539 273.072C213.699 273.04 213.885 272.987 214.099 272.912V273.952C213.885 274.027 213.661 274.08 213.427 274.112C213.192 274.144 212.963 274.16 212.739 274.16ZM219.173 274.16C218.448 274.16 217.792 273.984 217.205 273.632C216.618 273.269 216.154 272.784 215.813 272.176C215.472 271.557 215.301 270.864 215.301 270.096C215.301 269.328 215.461 268.64 215.781 268.032C216.112 267.424 216.554 266.944 217.109 266.592C217.664 266.24 218.282 266.064 218.965 266.064C219.658 266.064 220.272 266.24 220.805 266.592C221.349 266.933 221.776 267.403 222.085 268C222.405 268.587 222.565 269.253 222.565 270V270.352H216.437C216.48 270.885 216.624 271.365 216.869 271.792C217.125 272.208 217.456 272.539 217.861 272.784C218.277 273.019 218.73 273.136 219.221 273.136C219.626 273.136 220.016 273.067 220.389 272.928C220.773 272.779 221.098 272.581 221.365 272.336L222.101 273.12C221.653 273.472 221.189 273.733 220.709 273.904C220.229 274.075 219.717 274.16 219.173 274.16ZM216.469 269.52H221.413C221.36 269.051 221.216 268.635 220.981 268.272C220.757 267.899 220.469 267.605 220.117 267.392C219.776 267.179 219.392 267.072 218.965 267.072C218.538 267.072 218.149 267.179 217.797 267.392C217.445 267.595 217.152 267.883 216.917 268.256C216.693 268.619 216.544 269.04 216.469 269.52ZM231.27 274.16C230.598 274.16 230.086 274 229.734 273.68C229.392 273.349 229.222 272.875 229.222 272.256V267.152H227.606V266.192H229.222V264.048L230.39 263.776V266.192H232.63V267.152H230.39V271.952C230.39 272.368 230.475 272.667 230.646 272.848C230.827 273.029 231.12 273.12 231.526 273.12C231.728 273.12 231.91 273.104 232.07 273.072C232.23 273.04 232.416 272.987 232.63 272.912V273.952C232.416 274.027 232.192 274.08 231.958 274.112C231.723 274.144 231.494 274.16 231.27 274.16ZM237.64 274.128C236.915 274.128 236.264 273.952 235.688 273.6C235.112 273.248 234.659 272.768 234.328 272.16C233.998 271.552 233.832 270.864 233.832 270.096C233.832 269.328 233.998 268.64 234.328 268.032C234.659 267.424 235.112 266.944 235.688 266.592C236.264 266.24 236.915 266.064 237.64 266.064C238.355 266.064 238.995 266.24 239.56 266.592C240.136 266.944 240.59 267.424 240.92 268.032C241.251 268.64 241.416 269.328 241.416 270.096C241.416 270.864 241.251 271.552 240.92 272.16C240.59 272.768 240.136 273.248 239.56 273.6C238.995 273.952 238.355 274.128 237.64 274.128ZM237.624 273.104C238.136 273.104 238.59 272.976 238.984 272.72C239.379 272.453 239.688 272.091 239.912 271.632C240.147 271.173 240.264 270.661 240.264 270.096C240.264 269.52 240.147 269.008 239.912 268.56C239.688 268.101 239.379 267.744 238.984 267.488C238.59 267.221 238.136 267.088 237.624 267.088C237.112 267.088 236.659 267.221 236.264 267.488C235.87 267.744 235.555 268.101 235.32 268.56C235.096 269.008 234.984 269.52 234.984 270.096C234.984 270.661 235.096 271.173 235.32 271.632C235.555 272.091 235.87 272.453 236.264 272.72C236.659 272.976 237.112 273.104 237.624 273.104ZM247.2 274V266.192H248.368V267.792C248.571 267.248 248.859 266.827 249.232 266.528C249.616 266.219 250.053 266.064 250.544 266.064C250.683 266.064 250.811 266.075 250.928 266.096C251.045 266.107 251.163 266.133 251.28 266.176V267.232C251.152 267.189 251.013 267.157 250.864 267.136C250.725 267.104 250.592 267.088 250.464 267.088C249.984 267.088 249.563 267.227 249.2 267.504C248.848 267.781 248.571 268.171 248.368 268.672V274H247.2ZM255.861 274.16C255.135 274.16 254.479 273.984 253.893 273.632C253.306 273.269 252.842 272.784 252.501 272.176C252.159 271.557 251.989 270.864 251.989 270.096C251.989 269.328 252.149 268.64 252.469 268.032C252.799 267.424 253.242 266.944 253.797 266.592C254.351 266.24 254.97 266.064 255.653 266.064C256.346 266.064 256.959 266.24 257.493 266.592C258.037 266.933 258.463 267.403 258.773 268C259.093 268.587 259.253 269.253 259.253 270V270.352H253.125C253.167 270.885 253.311 271.365 253.557 271.792C253.813 272.208 254.143 272.539 254.549 272.784C254.965 273.019 255.418 273.136 255.909 273.136C256.314 273.136 256.703 273.067 257.077 272.928C257.461 272.779 257.786 272.581 258.053 272.336L258.789 273.12C258.341 273.472 257.877 273.733 257.397 273.904C256.917 274.075 256.405 274.16 255.861 274.16ZM253.157 269.52H258.101C258.047 269.051 257.903 268.635 257.669 268.272C257.445 267.899 257.157 267.605 256.805 267.392C256.463 267.179 256.079 267.072 255.653 267.072C255.226 267.072 254.837 267.179 254.485 267.392C254.133 267.595 253.839 267.883 253.605 268.256C253.381 268.619 253.231 269.04 253.157 269.52ZM261.247 277.344V266.192H262.399V267.312C262.698 266.917 263.06 266.619 263.487 266.416C263.924 266.203 264.404 266.096 264.927 266.096C265.61 266.096 266.218 266.277 266.751 266.64C267.295 266.992 267.727 267.472 268.047 268.08C268.367 268.677 268.527 269.349 268.527 270.096C268.527 270.843 268.362 271.52 268.031 272.128C267.711 272.736 267.274 273.221 266.719 273.584C266.175 273.936 265.556 274.112 264.863 274.112C264.372 274.112 263.919 274.021 263.503 273.84C263.087 273.648 262.724 273.376 262.415 273.024V277.344H261.247ZM264.639 273.104C265.162 273.104 265.626 272.976 266.031 272.72C266.447 272.453 266.772 272.096 267.007 271.648C267.252 271.189 267.375 270.677 267.375 270.112C267.375 269.536 267.252 269.024 267.007 268.576C266.772 268.128 266.447 267.776 266.031 267.52C265.626 267.253 265.162 267.12 264.639 267.12C264.18 267.12 263.754 267.216 263.359 267.408C262.975 267.589 262.66 267.851 262.415 268.192V272.016C262.671 272.357 262.991 272.624 263.375 272.816C263.77 273.008 264.191 273.104 264.639 273.104ZM270.575 274V262.448L271.743 262.208V274H270.575ZM276.554 274.144C275.999 274.144 275.508 274.043 275.082 273.84C274.655 273.637 274.319 273.36 274.074 273.008C273.839 272.645 273.722 272.229 273.722 271.76C273.722 271.291 273.844 270.885 274.09 270.544C274.335 270.192 274.676 269.92 275.114 269.728C275.551 269.536 276.063 269.44 276.65 269.44C277.098 269.44 277.519 269.488 277.914 269.584C278.319 269.68 278.692 269.835 279.034 270.048V268.976C279.034 268.336 278.863 267.856 278.522 267.536C278.18 267.205 277.679 267.04 277.018 267.04C276.655 267.04 276.282 267.093 275.898 267.2C275.524 267.307 275.108 267.477 274.65 267.712L274.218 266.816C275.263 266.315 276.244 266.064 277.161 266.064C278.132 266.064 278.879 266.304 279.402 266.784C279.924 267.253 280.186 267.931 280.186 268.816V274H279.034V273.088C278.692 273.44 278.314 273.707 277.898 273.888C277.482 274.059 277.034 274.144 276.554 274.144ZM274.842 271.728C274.842 272.187 275.018 272.555 275.37 272.832C275.732 273.109 276.207 273.248 276.794 273.248C277.231 273.248 277.631 273.173 277.994 273.024C278.367 272.875 278.714 272.651 279.034 272.352V270.848C278.703 270.656 278.362 270.517 278.01 270.432C277.658 270.336 277.263 270.288 276.826 270.288C276.228 270.288 275.748 270.421 275.386 270.688C275.023 270.944 274.842 271.291 274.842 271.728ZM286.063 274.128C285.338 274.128 284.682 273.952 284.095 273.6C283.519 273.237 283.061 272.752 282.719 272.144C282.378 271.525 282.207 270.843 282.207 270.096C282.207 269.339 282.378 268.656 282.719 268.048C283.061 267.44 283.519 266.96 284.095 266.608C284.682 266.245 285.338 266.064 286.063 266.064C286.639 266.064 287.189 266.171 287.711 266.384C288.234 266.597 288.687 266.896 289.071 267.28L288.319 268.096C288.042 267.787 287.706 267.547 287.311 267.376C286.917 267.205 286.517 267.12 286.111 267.12C285.599 267.12 285.135 267.253 284.719 267.52C284.314 267.787 283.989 268.144 283.743 268.592C283.498 269.04 283.375 269.541 283.375 270.096C283.375 270.651 283.498 271.152 283.743 271.6C283.989 272.048 284.314 272.405 284.719 272.672C285.135 272.939 285.599 273.072 286.111 273.072C286.517 273.072 286.917 272.987 287.311 272.816C287.706 272.635 288.042 272.395 288.319 272.096L289.071 272.912C288.687 273.296 288.234 273.595 287.711 273.808C287.189 274.021 286.639 274.128 286.063 274.128ZM293.986 274.16C293.26 274.16 292.604 273.984 292.018 273.632C291.431 273.269 290.967 272.784 290.626 272.176C290.284 271.557 290.114 270.864 290.114 270.096C290.114 269.328 290.274 268.64 290.594 268.032C290.924 267.424 291.367 266.944 291.922 266.592C292.476 266.24 293.095 266.064 293.778 266.064C294.471 266.064 295.084 266.24 295.618 266.592C296.162 266.933 296.588 267.403 296.898 268C297.218 268.587 297.378 269.253 297.378 270V270.352H291.25C291.292 270.885 291.436 271.365 291.682 271.792C291.938 272.208 292.268 272.539 292.674 272.784C293.09 273.019 293.543 273.136 294.034 273.136C294.439 273.136 294.828 273.067 295.202 272.928C295.586 272.779 295.911 272.581 296.178 272.336L296.914 273.12C296.466 273.472 296.002 273.733 295.522 273.904C295.042 274.075 294.53 274.16 293.986 274.16ZM291.282 269.52H296.226C296.172 269.051 296.028 268.635 295.794 268.272C295.57 267.899 295.282 267.605 294.93 267.392C294.588 267.179 294.204 267.072 293.778 267.072C293.351 267.072 292.962 267.179 292.61 267.392C292.258 267.595 291.964 267.883 291.73 268.256C291.506 268.619 291.356 269.04 291.282 269.52Z" fill="#151515"/>
<path d="M185.656 312.896H188.216C189.027 312.896 189.752 312.699 190.392 312.304C191.032 311.909 191.539 311.376 191.912 310.704C192.296 310.021 192.488 309.253 192.488 308.4C192.488 307.547 192.296 306.784 191.912 306.112C191.539 305.429 191.032 304.891 190.392 304.496C189.752 304.101 189.027 303.904 188.216 303.904H185.656V312.896ZM184.424 314V302.8H188.136C188.957 302.8 189.709 302.944 190.392 303.232C191.085 303.509 191.677 303.904 192.168 304.416C192.669 304.917 193.053 305.509 193.32 306.192C193.597 306.864 193.736 307.6 193.736 308.4C193.736 309.2 193.597 309.941 193.32 310.624C193.053 311.296 192.669 311.888 192.168 312.4C191.677 312.901 191.085 313.296 190.392 313.584C189.709 313.861 188.957 314 188.136 314H184.424ZM198.625 314.128C198.07 314.128 197.579 314.005 197.153 313.76C196.726 313.515 196.39 313.173 196.145 312.736C195.91 312.299 195.793 311.797 195.793 311.232V306.192H196.977V310.896C196.977 311.589 197.163 312.139 197.537 312.544C197.91 312.949 198.417 313.152 199.057 313.152C199.494 313.152 199.883 313.051 200.225 312.848C200.577 312.645 200.87 312.352 201.105 311.968V306.192H202.273V314H201.105V312.736C200.806 313.195 200.449 313.541 200.033 313.776C199.627 314.011 199.158 314.128 198.625 314.128ZM204.669 317.344V306.192H205.821V307.312C206.119 306.917 206.482 306.619 206.909 306.416C207.346 306.203 207.826 306.096 208.349 306.096C209.031 306.096 209.639 306.277 210.173 306.64C210.717 306.992 211.149 307.472 211.469 308.08C211.789 308.677 211.949 309.349 211.949 310.096C211.949 310.843 211.783 311.52 211.453 312.128C211.133 312.736 210.695 313.221 210.141 313.584C209.597 313.936 208.978 314.112 208.285 314.112C207.794 314.112 207.341 314.021 206.925 313.84C206.509 313.648 206.146 313.376 205.837 313.024V317.344H204.669ZM208.061 313.104C208.583 313.104 209.047 312.976 209.453 312.72C209.869 312.453 210.194 312.096 210.429 311.648C210.674 311.189 210.797 310.677 210.797 310.112C210.797 309.536 210.674 309.024 210.429 308.576C210.194 308.128 209.869 307.776 209.453 307.52C209.047 307.253 208.583 307.12 208.061 307.12C207.602 307.12 207.175 307.216 206.781 307.408C206.397 307.589 206.082 307.851 205.837 308.192V312.016C206.093 312.357 206.413 312.624 206.797 312.816C207.191 313.008 207.613 313.104 208.061 313.104ZM213.997 314V302.448L215.165 302.208V314H213.997ZM217.543 314V306.192H218.711V314H217.543ZM218.135 304.256C217.901 304.256 217.698 304.176 217.527 304.016C217.367 303.845 217.287 303.648 217.287 303.424C217.287 303.2 217.367 303.008 217.527 302.848C217.698 302.677 217.901 302.592 218.135 302.592C218.37 302.592 218.567 302.677 218.727 302.848C218.898 303.008 218.983 303.2 218.983 303.424C218.983 303.648 218.898 303.845 218.727 304.016C218.567 304.176 218.37 304.256 218.135 304.256ZM224.61 314.128C223.885 314.128 223.229 313.952 222.642 313.6C222.066 313.237 221.608 312.752 221.266 312.144C220.925 311.525 220.754 310.843 220.754 310.096C220.754 309.339 220.925 308.656 221.266 308.048C221.608 307.44 222.066 306.96 222.642 306.608C223.229 306.245 223.885 306.064 224.61 306.064C225.186 306.064 225.736 306.171 226.258 306.384C226.781 306.597 227.234 306.896 227.618 307.28L226.866 308.096C226.589 307.787 226.253 307.547 225.858 307.376C225.464 307.205 225.064 307.12 224.658 307.12C224.146 307.12 223.682 307.253 223.266 307.52C222.861 307.787 222.536 308.144 222.29 308.592C222.045 309.04 221.922 309.541 221.922 310.096C221.922 310.651 222.045 311.152 222.29 311.6C222.536 312.048 222.861 312.405 223.266 312.672C223.682 312.939 224.146 313.072 224.658 313.072C225.064 313.072 225.464 312.987 225.858 312.816C226.253 312.635 226.589 312.395 226.866 312.096L227.618 312.912C227.234 313.296 226.781 313.595 226.258 313.808C225.736 314.021 225.186 314.128 224.61 314.128ZM231.663 314.144C231.108 314.144 230.618 314.043 230.191 313.84C229.764 313.637 229.428 313.36 229.183 313.008C228.948 312.645 228.831 312.229 228.831 311.76C228.831 311.291 228.954 310.885 229.199 310.544C229.444 310.192 229.786 309.92 230.223 309.728C230.66 309.536 231.172 309.44 231.759 309.44C232.207 309.44 232.628 309.488 233.023 309.584C233.428 309.68 233.802 309.835 234.143 310.048V308.976C234.143 308.336 233.972 307.856 233.631 307.536C233.29 307.205 232.788 307.04 232.127 307.04C231.764 307.04 231.391 307.093 231.007 307.2C230.634 307.307 230.218 307.477 229.759 307.712L229.327 306.816C230.372 306.315 231.354 306.064 232.271 306.064C233.242 306.064 233.988 306.304 234.511 306.784C235.034 307.253 235.295 307.931 235.295 308.816V314H234.143V313.088C233.802 313.44 233.423 313.707 233.007 313.888C232.591 314.059 232.143 314.144 231.663 314.144ZM229.951 311.728C229.951 312.187 230.127 312.555 230.479 312.832C230.842 313.109 231.316 313.248 231.903 313.248C232.34 313.248 232.74 313.173 233.103 313.024C233.476 312.875 233.823 312.651 234.143 312.352V310.848C233.812 310.656 233.471 310.517 233.119 310.432C232.767 310.336 232.372 310.288 231.935 310.288C231.338 310.288 230.858 310.421 230.495 310.688C230.132 310.944 229.951 311.291 229.951 311.728ZM240.41 314.16C239.738 314.16 239.226 314 238.874 313.68C238.533 313.349 238.362 312.875 238.362 312.256V307.152H236.746V306.192H238.362V304.048L239.53 303.776V306.192H241.77V307.152H239.53V311.952C239.53 312.368 239.616 312.667 239.786 312.848C239.968 313.029 240.261 313.12 240.666 313.12C240.869 313.12 241.05 313.104 241.21 313.072C241.37 313.04 241.557 312.987 241.77 312.912V313.952C241.557 314.027 241.333 314.08 241.098 314.112C240.864 314.144 240.634 314.16 240.41 314.16ZM246.845 314.16C246.12 314.16 245.464 313.984 244.877 313.632C244.29 313.269 243.826 312.784 243.485 312.176C243.144 311.557 242.973 310.864 242.973 310.096C242.973 309.328 243.133 308.64 243.453 308.032C243.784 307.424 244.226 306.944 244.781 306.592C245.336 306.24 245.954 306.064 246.637 306.064C247.33 306.064 247.944 306.24 248.477 306.592C249.021 306.933 249.448 307.403 249.757 308C250.077 308.587 250.237 309.253 250.237 310V310.352H244.109C244.152 310.885 244.296 311.365 244.541 311.792C244.797 312.208 245.128 312.539 245.533 312.784C245.949 313.019 246.402 313.136 246.893 313.136C247.298 313.136 247.688 313.067 248.061 312.928C248.445 312.779 248.77 312.581 249.037 312.336L249.773 313.12C249.325 313.472 248.861 313.733 248.381 313.904C247.901 314.075 247.389 314.16 246.845 314.16ZM244.141 309.52H249.085C249.032 309.051 248.888 308.635 248.653 308.272C248.429 307.899 248.141 307.605 247.789 307.392C247.448 307.179 247.064 307.072 246.637 307.072C246.21 307.072 245.821 307.179 245.469 307.392C245.117 307.595 244.824 307.883 244.589 308.256C244.365 308.619 244.216 309.04 244.141 309.52Z" fill="#151515"/>
<path d="M185.656 352.896H188.216C189.027 352.896 189.752 352.699 190.392 352.304C191.032 351.909 191.539 351.376 191.912 350.704C192.296 350.021 192.488 349.253 192.488 348.4C192.488 347.547 192.296 346.784 191.912 346.112C191.539 345.429 191.032 344.891 190.392 344.496C189.752 344.101 189.027 343.904 188.216 343.904H185.656V352.896ZM184.424 354V342.8H188.136C188.957 342.8 189.709 342.944 190.392 343.232C191.085 343.509 191.677 343.904 192.168 344.416C192.669 344.917 193.053 345.509 193.32 346.192C193.597 346.864 193.736 347.6 193.736 348.4C193.736 349.2 193.597 349.941 193.32 350.624C193.053 351.296 192.669 351.888 192.168 352.4C191.677 352.901 191.085 353.296 190.392 353.584C189.709 353.861 188.957 354 188.136 354H184.424ZM199.361 354.16C198.635 354.16 197.979 353.984 197.393 353.632C196.806 353.269 196.342 352.784 196.001 352.176C195.659 351.557 195.489 350.864 195.489 350.096C195.489 349.328 195.649 348.64 195.969 348.032C196.299 347.424 196.742 346.944 197.297 346.592C197.851 346.24 198.47 346.064 199.153 346.064C199.846 346.064 200.459 346.24 200.993 346.592C201.537 346.933 201.963 347.403 202.273 348C202.593 348.587 202.753 349.253 202.753 350V350.352H196.625C196.667 350.885 196.811 351.365 197.057 351.792C197.313 352.208 197.643 352.539 198.049 352.784C198.465 353.019 198.918 353.136 199.409 353.136C199.814 353.136 200.203 353.067 200.577 352.928C200.961 352.779 201.286 352.581 201.553 352.336L202.289 353.12C201.841 353.472 201.377 353.733 200.897 353.904C200.417 354.075 199.905 354.16 199.361 354.16ZM196.657 349.52H201.601C201.547 349.051 201.403 348.635 201.169 348.272C200.945 347.899 200.657 347.605 200.305 347.392C199.963 347.179 199.579 347.072 199.153 347.072C198.726 347.072 198.337 347.179 197.985 347.392C197.633 347.595 197.339 347.883 197.105 348.256C196.881 348.619 196.731 349.04 196.657 349.52ZM204.747 354V342.448L205.915 342.208V354H204.747ZM211.829 354.16C211.104 354.16 210.448 353.984 209.861 353.632C209.275 353.269 208.811 352.784 208.469 352.176C208.128 351.557 207.957 350.864 207.957 350.096C207.957 349.328 208.117 348.64 208.437 348.032C208.768 347.424 209.211 346.944 209.765 346.592C210.32 346.24 210.939 346.064 211.621 346.064C212.315 346.064 212.928 346.24 213.461 346.592C214.005 346.933 214.432 347.403 214.741 348C215.061 348.587 215.221 349.253 215.221 350V350.352H209.093C209.136 350.885 209.28 351.365 209.525 351.792C209.781 352.208 210.112 352.539 210.517 352.784C210.933 353.019 211.387 353.136 211.877 353.136C212.283 353.136 212.672 353.067 213.045 352.928C213.429 352.779 213.755 352.581 214.021 352.336L214.757 353.12C214.309 353.472 213.845 353.733 213.365 353.904C212.885 354.075 212.373 354.16 211.829 354.16ZM209.125 349.52H214.069C214.016 349.051 213.872 348.635 213.637 348.272C213.413 347.899 213.125 347.605 212.773 347.392C212.432 347.179 212.048 347.072 211.621 347.072C211.195 347.072 210.805 347.179 210.453 347.392C210.101 347.595 209.808 347.883 209.573 348.256C209.349 348.619 209.2 349.04 209.125 349.52ZM219.957 354.16C219.285 354.16 218.773 354 218.421 353.68C218.08 353.349 217.909 352.875 217.909 352.256V347.152H216.293V346.192H217.909V344.048L219.077 343.776V346.192H221.317V347.152H219.077V351.952C219.077 352.368 219.163 352.667 219.333 352.848C219.515 353.029 219.808 353.12 220.213 353.12C220.416 353.12 220.597 353.104 220.757 353.072C220.917 353.04 221.104 352.987 221.317 352.912V353.952C221.104 354.027 220.88 354.08 220.645 354.112C220.411 354.144 220.181 354.16 219.957 354.16ZM226.392 354.16C225.667 354.16 225.011 353.984 224.424 353.632C223.837 353.269 223.373 352.784 223.032 352.176C222.691 351.557 222.52 350.864 222.52 350.096C222.52 349.328 222.68 348.64 223 348.032C223.331 347.424 223.773 346.944 224.328 346.592C224.883 346.24 225.501 346.064 226.184 346.064C226.877 346.064 227.491 346.24 228.024 346.592C228.568 346.933 228.995 347.403 229.304 348C229.624 348.587 229.784 349.253 229.784 350V350.352H223.656C223.699 350.885 223.843 351.365 224.088 351.792C224.344 352.208 224.675 352.539 225.08 352.784C225.496 353.019 225.949 353.136 226.44 353.136C226.845 353.136 227.235 353.067 227.608 352.928C227.992 352.779 228.317 352.581 228.584 352.336L229.32 353.12C228.872 353.472 228.408 353.733 227.928 353.904C227.448 354.075 226.936 354.16 226.392 354.16ZM223.688 349.52H228.632C228.579 349.051 228.435 348.635 228.2 348.272C227.976 347.899 227.688 347.605 227.336 347.392C226.995 347.179 226.611 347.072 226.184 347.072C225.757 347.072 225.368 347.179 225.016 347.392C224.664 347.595 224.371 347.883 224.136 348.256C223.912 348.619 223.763 349.04 223.688 349.52Z" fill="#151515"/>
</g>
<path d="M170 40.5H312C313.381 40.5 314.5 41.6193 314.5 43V373C314.5 374.381 313.381 375.5 312 375.5H170C168.619 375.5 167.5 374.381 167.5 373V43C167.5 41.6193 168.619 40.5 170 40.5Z" stroke="#C7C7C7"/>
</g>
<defs>
<filter id="filter0_d_8079_4081" x="160" y="37" width="162" height="350" filterUnits="userSpaceOnUse" color-interpolation-filters="sRGB">
<feFlood flood-opacity="0" result="BackgroundImageFix"/>
<feColorMatrix in="SourceAlpha" type="matrix" values="0 0 0 0 0 0 0 0 0 0 0 0 0 0 0 0 0 0 127 0" result="hardAlpha"/>
<feMorphology radius="1" operator="dilate" in="SourceAlpha" result="effect1_dropShadow_8079_4081"/>
<feOffset dy="4"/>
<feGaussianBlur stdDeviation="3"/>
<feComposite in2="hardAlpha" operator="out"/>
<feColorMatrix type="matrix" values="0 0 0 0 0.0823529 0 0 0 0 0.0823529 0 0 0 0 0.0823529 0 0 0 0.25 0"/>
<feBlend mode="normal" in2="BackgroundImageFix" result="effect1_dropShadow_8079_4081"/>
<feBlend mode="normal" in="SourceGraphic" in2="effect1_dropShadow_8079_4081" result="shape"/>
</filter>
<clipPath id="clip0_8079_4081">
<path d="M167 43C167 41.3432 168.343 40 170 40H312C313.657 40 315 41.3431 315 43V373C315 374.657 313.657 376 312 376H170C168.343 376 167 374.657 167 373V43Z" fill="white"/>
</clipPath>
</defs>
</svg>
