<svg width="950" height="283" viewBox="0 0 950 283" fill="none" xmlns="http://www.w3.org/2000/svg">
<mask id="path-1-inside-1_10064_1681" fill="white">
<path d="M0 3C0 1.34315 1.34315 0 3 0H101C102.657 0 104 1.34315 104 3V33C104 34.6569 102.657 36 101 36H3C1.34314 36 0 34.6569 0 33V3Z"/>
</mask>
<path d="M0 3C0 1.34315 1.34315 0 3 0H101C102.657 0 104 1.34315 104 3V33C104 34.6569 102.657 36 101 36H3C1.34314 36 0 34.6569 0 33V3Z" fill="#151515"/>
<path d="M3 0V1H101V0V-1H3V0ZM104 3H103V33H104H105V3H104ZM101 36V35H3V36V37H101V36ZM0 33H1V3H0H-1V33H0ZM3 36V35C1.89543 35 1 34.1046 1 33H0H-1C-1 35.2091 0.79086 37 3 37V36ZM104 33H103C103 34.1046 102.105 35 101 35V36V37C103.209 37 105 35.2091 105 33H104ZM101 0V1C102.105 1 103 1.89543 103 3H104H105C105 0.790862 103.209 -1 101 -1V0ZM3 0V-1C0.790861 -1 -1 0.79086 -1 3H0H1C1 1.89543 1.89543 1 3 1V0Z" fill="#92C5F9" mask="url(#path-1-inside-1_10064_1681)"/>
<path d="M16.144 24L20.576 12.8H22.048L26.416 24H25.088L23.76 20.48H18.768L17.44 24H16.144ZM19.152 19.504H23.392L21.264 13.92L19.152 19.504ZM30.954 24.128C30.2287 24.128 29.5727 23.952 28.986 23.6C28.41 23.2373 27.9513 22.752 27.61 22.144C27.2687 21.5253 27.098 20.8427 27.098 20.096C27.098 19.3387 27.2687 18.656 27.61 18.048C27.9513 17.44 28.41 16.96 28.986 16.608C29.5727 16.2453 30.2287 16.064 30.954 16.064C31.53 16.064 32.0793 16.1707 32.602 16.384C33.1247 16.5973 33.578 16.896 33.962 17.28L33.21 18.096C32.9327 17.7867 32.5967 17.5467 32.202 17.376C31.8073 17.2053 31.4073 17.12 31.002 17.12C30.49 17.12 30.026 17.2533 29.61 17.52C29.2047 17.7867 28.8793 18.144 28.634 18.592C28.3887 19.04 28.266 19.5413 28.266 20.096C28.266 20.6507 28.3887 21.152 28.634 21.6C28.8793 22.048 29.2047 22.4053 29.61 22.672C30.026 22.9387 30.49 23.072 31.002 23.072C31.4073 23.072 31.8073 22.9867 32.202 22.816C32.5967 22.6347 32.9327 22.3947 33.21 22.096L33.962 22.912C33.578 23.296 33.1247 23.5947 32.602 23.808C32.0793 24.0213 31.53 24.128 30.954 24.128ZM38.7229 24.16C38.0509 24.16 37.5389 24 37.1869 23.68C36.8455 23.3493 36.6749 22.8747 36.6749 22.256V17.152H35.0589V16.192H36.6749V14.048L37.8429 13.776V16.192H40.0829V17.152H37.8429V21.952C37.8429 22.368 37.9282 22.6667 38.0989 22.848C38.2802 23.0293 38.5735 23.12 38.9789 23.12C39.1815 23.12 39.3629 23.104 39.5229 23.072C39.6829 23.04 39.8695 22.9867 40.0829 22.912V23.952C39.8695 24.0267 39.6455 24.08 39.4109 24.112C39.1762 24.144 38.9469 24.16 38.7229 24.16ZM41.7778 24V16.192H42.9457V24H41.7778ZM42.3698 14.256C42.1351 14.256 41.9324 14.176 41.7618 14.016C41.6018 13.8453 41.5218 13.648 41.5218 13.424C41.5218 13.2 41.6018 13.008 41.7618 12.848C41.9324 12.6773 42.1351 12.592 42.3698 12.592C42.6044 12.592 42.8018 12.6773 42.9618 12.848C43.1324 13.008 43.2178 13.2 43.2178 13.424C43.2178 13.648 43.1324 13.8453 42.9618 14.016C42.8018 14.176 42.6044 14.256 42.3698 14.256ZM48.7966 24.128C48.0713 24.128 47.4206 23.952 46.8446 23.6C46.2686 23.248 45.8153 22.768 45.4846 22.16C45.154 21.552 44.9886 20.864 44.9886 20.096C44.9886 19.328 45.154 18.64 45.4846 18.032C45.8153 17.424 46.2686 16.944 46.8446 16.592C47.4206 16.24 48.0713 16.064 48.7966 16.064C49.5113 16.064 50.1513 16.24 50.7166 16.592C51.2926 16.944 51.746 17.424 52.0766 18.032C52.4073 18.64 52.5726 19.328 52.5726 20.096C52.5726 20.864 52.4073 21.552 52.0766 22.16C51.746 22.768 51.2926 23.248 50.7166 23.6C50.1513 23.952 49.5113 24.128 48.7966 24.128ZM48.7806 23.104C49.2926 23.104 49.746 22.976 50.1406 22.72C50.5353 22.4533 50.8446 22.0907 51.0686 21.632C51.3033 21.1733 51.4206 20.6613 51.4206 20.096C51.4206 19.52 51.3033 19.008 51.0686 18.56C50.8446 18.1013 50.5353 17.744 50.1406 17.488C49.746 17.2213 49.2926 17.088 48.7806 17.088C48.2686 17.088 47.8153 17.2213 47.4206 17.488C47.026 17.744 46.7113 18.1013 46.4766 18.56C46.2526 19.008 46.1406 19.52 46.1406 20.096C46.1406 20.6613 46.2526 21.1733 46.4766 21.632C46.7113 22.0907 47.026 22.4533 47.4206 22.72C47.8153 22.976 48.2686 23.104 48.7806 23.104ZM54.6219 24V16.192H55.7899V17.456C56.0885 16.9867 56.4459 16.64 56.8619 16.416C57.2779 16.1813 57.7472 16.064 58.2699 16.064C58.8352 16.064 59.3259 16.1867 59.7419 16.432C60.1685 16.6667 60.4992 17.0027 60.7339 17.44C60.9792 17.8667 61.1019 18.368 61.1019 18.944V24H59.9339V19.28C59.9339 18.5867 59.7419 18.0427 59.3579 17.648C58.9845 17.2427 58.4779 17.04 57.8379 17.04C57.4112 17.04 57.0219 17.1413 56.6699 17.344C56.3179 17.5467 56.0245 17.8453 55.7899 18.24V24H54.6219ZM65.866 24.16C65.226 24.16 64.634 24.064 64.09 23.872C63.546 23.6693 63.082 23.3813 62.698 23.008L63.322 22.24C63.7913 22.5813 64.2233 22.832 64.618 22.992C65.0127 23.1413 65.418 23.216 65.834 23.216C66.3993 23.216 66.8687 23.0827 67.242 22.816C67.6153 22.5493 67.802 22.208 67.802 21.792C67.802 21.472 67.69 21.2213 67.466 21.04C67.2527 20.8587 66.8953 20.72 66.394 20.624L65.114 20.4C64.3567 20.2613 63.7967 20.0267 63.434 19.696C63.082 19.3653 62.906 18.9173 62.906 18.352C62.906 17.904 63.0233 17.5093 63.258 17.168C63.5033 16.8267 63.8393 16.56 64.266 16.368C64.6927 16.1653 65.178 16.064 65.722 16.064C66.2553 16.064 66.762 16.144 67.242 16.304C67.722 16.4533 68.2073 16.6987 68.698 17.04L68.122 17.856C67.7167 17.568 67.3113 17.36 66.906 17.232C66.5007 17.0933 66.09 17.024 65.674 17.024C65.162 17.024 64.7513 17.136 64.442 17.36C64.1327 17.584 63.978 17.888 63.978 18.272C63.978 18.592 64.074 18.8373 64.266 19.008C64.4687 19.1787 64.8207 19.3067 65.322 19.392L66.634 19.632C67.4233 19.7707 67.9993 20.0107 68.362 20.352C68.7247 20.6933 68.906 21.152 68.906 21.728C68.906 22.1867 68.7727 22.6027 68.506 22.976C68.2393 23.3387 67.8767 23.6267 67.418 23.84C66.9593 24.0533 66.442 24.16 65.866 24.16Z" fill="white"/>
<path d="M87.462 15.8086C87.3848 15.6216 87.2022 15.5 87.0001 15.5H79.0001C78.7979 15.5 78.6153 15.6216 78.5382 15.8086C78.4605 15.9956 78.5035 16.2104 78.6466 16.3535L82.4698 20.1768C82.6158 20.3233 82.8082 20.396 83.0001 20.396C83.1919 20.396 83.3844 20.3233 83.5303 20.1768L87.3536 16.3535C87.4966 16.2104 87.5396 15.9956 87.462 15.8086Z" fill="white"/>
<g filter="url(#filter0_d_10064_1681)">
<path d="M53 34.5V17.5L65 29.5H58L53 34.5Z" fill="#151515"/>
<path d="M66.207 30H58.207L52.5 35.707V16.293L66.207 30Z" stroke="white"/>
</g>
<mask id="path-7-inside-2_10064_1681" fill="white">
<path d="M200 3C200 1.34315 201.343 0 203 0H233C234.657 0 236 1.34315 236 3V33C236 34.6569 234.657 36 233 36H203C201.343 36 200 34.6569 200 33V3Z"/>
</mask>
<path d="M203 0V1H233V0V-1H203V0ZM236 3H235V33H236H237V3H236ZM233 36V35H203V36V37H233V36ZM200 33H201V3H200H199V33H200ZM203 36V35C201.895 35 201 34.1046 201 33H200H199C199 35.2091 200.791 37 203 37V36ZM236 33H235C235 34.1046 234.105 35 233 35V36V37C235.209 37 237 35.2091 237 33H236ZM233 0V1C234.105 1 235 1.89543 235 3H236H237C237 0.790861 235.209 -1 233 -1V0ZM203 0V-1C200.791 -1 199 0.79086 199 3H200H201C201 1.89543 201.895 1 203 1V0Z" fill="#92C5F9" mask="url(#path-7-inside-2_10064_1681)"/>
<path d="M216.125 12.5C216.125 11.4661 216.966 10.625 218 10.625C219.034 10.625 219.875 11.4661 219.875 12.5C219.875 13.5339 219.034 14.375 218 14.375C216.966 14.375 216.125 13.5339 216.125 12.5ZM218 16.125C216.966 16.125 216.125 16.9661 216.125 18C216.125 19.0339 216.966 19.875 218 19.875C219.034 19.875 219.875 19.0339 219.875 18C219.875 16.9661 219.034 16.125 218 16.125ZM218 21.625C216.966 21.625 216.125 22.4661 216.125 23.5C216.125 24.5339 216.966 25.375 218 25.375C219.034 25.375 219.875 24.5339 219.875 23.5C219.875 22.4661 219.034 21.625 218 21.625Z" fill="white"/>
<g filter="url(#filter1_d_10064_1681)">
<path d="M224 34.9482V17.9482L236 29.9482H229L224 34.9482Z" fill="#151515"/>
<path d="M237.207 30.4482H229.207L223.5 36.1553V16.7412L237.207 30.4482Z" stroke="white"/>
</g>
<path d="M332 3C332 1.34315 333.343 0 335 0H365C366.657 0 368 1.34315 368 3V33C368 34.6569 366.657 36 365 36H335C333.343 36 332 34.6569 332 33V3Z" fill="#1F1F1F"/>
<path d="M348.125 12.5C348.125 11.4661 348.966 10.625 350 10.625C351.034 10.625 351.875 11.4661 351.875 12.5C351.875 13.5339 351.034 14.375 350 14.375C348.966 14.375 348.125 13.5339 348.125 12.5ZM350 16.125C348.966 16.125 348.125 16.9661 348.125 18C348.125 19.0339 348.966 19.875 350 19.875C351.034 19.875 351.875 19.0339 351.875 18C351.875 16.9661 351.034 16.125 350 16.125ZM350 21.625C348.966 21.625 348.125 22.4661 348.125 23.5C348.125 24.5339 348.966 25.375 350 25.375C351.034 25.375 351.875 24.5339 351.875 23.5C351.875 22.4661 351.034 21.625 350 21.625Z" fill="white"/>
<g filter="url(#filter2_d_10064_1681)">
<path d="M358 34.5V17.5L370 29.5H363L358 34.5Z" fill="#151515"/>
<path d="M371.207 30H363.207L357.5 35.707V16.293L371.207 30Z" stroke="white"/>
</g>
<path d="M469 1H567C568.105 1 569 1.89543 569 3V33C569 34.1046 568.105 35 567 35H469C467.895 35 467 34.1046 467 33V3C467 1.89543 467.895 1 469 1Z" fill="#151515"/>
<path d="M469 1H567C568.105 1 569 1.89543 569 3V33C569 34.1046 568.105 35 567 35H469C467.895 35 467 34.1046 467 33V3C467 1.89543 467.895 1 469 1Z" stroke="#92C5F9" stroke-width="2"/>
<path d="M482.144 24L486.576 12.8H488.048L492.416 24H491.088L489.76 20.48H484.768L483.44 24H482.144ZM485.152 19.504H489.392L487.264 13.92L485.152 19.504ZM496.954 24.128C496.229 24.128 495.573 23.952 494.986 23.6C494.41 23.2373 493.951 22.752 493.61 22.144C493.269 21.5253 493.098 20.8427 493.098 20.096C493.098 19.3387 493.269 18.656 493.61 18.048C493.951 17.44 494.41 16.96 494.986 16.608C495.573 16.2453 496.229 16.064 496.954 16.064C497.53 16.064 498.079 16.1707 498.602 16.384C499.125 16.5973 499.578 16.896 499.962 17.28L499.21 18.096C498.933 17.7867 498.597 17.5467 498.202 17.376C497.807 17.2053 497.407 17.12 497.002 17.12C496.49 17.12 496.026 17.2533 495.61 17.52C495.205 17.7867 494.879 18.144 494.634 18.592C494.389 19.04 494.266 19.5413 494.266 20.096C494.266 20.6507 494.389 21.152 494.634 21.6C494.879 22.048 495.205 22.4053 495.61 22.672C496.026 22.9387 496.49 23.072 497.002 23.072C497.407 23.072 497.807 22.9867 498.202 22.816C498.597 22.6347 498.933 22.3947 499.21 22.096L499.962 22.912C499.578 23.296 499.125 23.5947 498.602 23.808C498.079 24.0213 497.53 24.128 496.954 24.128ZM504.723 24.16C504.051 24.16 503.539 24 503.187 23.68C502.846 23.3493 502.675 22.8747 502.675 22.256V17.152H501.059V16.192H502.675V14.048L503.843 13.776V16.192H506.083V17.152H503.843V21.952C503.843 22.368 503.928 22.6667 504.099 22.848C504.28 23.0293 504.574 23.12 504.979 23.12C505.182 23.12 505.363 23.104 505.523 23.072C505.683 23.04 505.87 22.9867 506.083 22.912V23.952C505.87 24.0267 505.646 24.08 505.411 24.112C505.176 24.144 504.947 24.16 504.723 24.16ZM507.778 24V16.192H508.946V24H507.778ZM508.37 14.256C508.135 14.256 507.932 14.176 507.762 14.016C507.602 13.8453 507.522 13.648 507.522 13.424C507.522 13.2 507.602 13.008 507.762 12.848C507.932 12.6773 508.135 12.592 508.37 12.592C508.604 12.592 508.802 12.6773 508.962 12.848C509.132 13.008 509.218 13.2 509.218 13.424C509.218 13.648 509.132 13.8453 508.962 14.016C508.802 14.176 508.604 14.256 508.37 14.256ZM514.797 24.128C514.071 24.128 513.421 23.952 512.845 23.6C512.269 23.248 511.815 22.768 511.485 22.16C511.154 21.552 510.989 20.864 510.989 20.096C510.989 19.328 511.154 18.64 511.485 18.032C511.815 17.424 512.269 16.944 512.845 16.592C513.421 16.24 514.071 16.064 514.797 16.064C515.511 16.064 516.151 16.24 516.717 16.592C517.293 16.944 517.746 17.424 518.077 18.032C518.407 18.64 518.573 19.328 518.573 20.096C518.573 20.864 518.407 21.552 518.077 22.16C517.746 22.768 517.293 23.248 516.717 23.6C516.151 23.952 515.511 24.128 514.797 24.128ZM514.781 23.104C515.293 23.104 515.746 22.976 516.141 22.72C516.535 22.4533 516.845 22.0907 517.069 21.632C517.303 21.1733 517.421 20.6613 517.421 20.096C517.421 19.52 517.303 19.008 517.069 18.56C516.845 18.1013 516.535 17.744 516.141 17.488C515.746 17.2213 515.293 17.088 514.781 17.088C514.269 17.088 513.815 17.2213 513.421 17.488C513.026 17.744 512.711 18.1013 512.477 18.56C512.253 19.008 512.141 19.52 512.141 20.096C512.141 20.6613 512.253 21.1733 512.477 21.632C512.711 22.0907 513.026 22.4533 513.421 22.72C513.815 22.976 514.269 23.104 514.781 23.104ZM520.622 24V16.192H521.79V17.456C522.089 16.9867 522.446 16.64 522.862 16.416C523.278 16.1813 523.747 16.064 524.27 16.064C524.835 16.064 525.326 16.1867 525.742 16.432C526.169 16.6667 526.499 17.0027 526.734 17.44C526.979 17.8667 527.102 18.368 527.102 18.944V24H525.934V19.28C525.934 18.5867 525.742 18.0427 525.358 17.648C524.985 17.2427 524.478 17.04 523.838 17.04C523.411 17.04 523.022 17.1413 522.67 17.344C522.318 17.5467 522.025 17.8453 521.79 18.24V24H520.622ZM531.866 24.16C531.226 24.16 530.634 24.064 530.09 23.872C529.546 23.6693 529.082 23.3813 528.698 23.008L529.322 22.24C529.791 22.5813 530.223 22.832 530.618 22.992C531.013 23.1413 531.418 23.216 531.834 23.216C532.399 23.216 532.869 23.0827 533.242 22.816C533.615 22.5493 533.802 22.208 533.802 21.792C533.802 21.472 533.69 21.2213 533.466 21.04C533.253 20.8587 532.895 20.72 532.394 20.624L531.114 20.4C530.357 20.2613 529.797 20.0267 529.434 19.696C529.082 19.3653 528.906 18.9173 528.906 18.352C528.906 17.904 529.023 17.5093 529.258 17.168C529.503 16.8267 529.839 16.56 530.266 16.368C530.693 16.1653 531.178 16.064 531.722 16.064C532.255 16.064 532.762 16.144 533.242 16.304C533.722 16.4533 534.207 16.6987 534.698 17.04L534.122 17.856C533.717 17.568 533.311 17.36 532.906 17.232C532.501 17.0933 532.09 17.024 531.674 17.024C531.162 17.024 530.751 17.136 530.442 17.36C530.133 17.584 529.978 17.888 529.978 18.272C529.978 18.592 530.074 18.8373 530.266 19.008C530.469 19.1787 530.821 19.3067 531.322 19.392L532.634 19.632C533.423 19.7707 533.999 20.0107 534.362 20.352C534.725 20.6933 534.906 21.152 534.906 21.728C534.906 22.1867 534.773 22.6027 534.506 22.976C534.239 23.3387 533.877 23.6267 533.418 23.84C532.959 24.0533 532.442 24.16 531.866 24.16Z" fill="white"/>
<path d="M553.354 19.6465L549.53 15.8232C549.238 15.5303 548.762 15.5303 548.47 15.8232L544.647 19.6465C544.504 19.7895 544.461 20.0044 544.538 20.1914C544.615 20.3784 544.798 20.5 545 20.5H553C553.202 20.5 553.385 20.3784 553.462 20.1914C553.54 20.0044 553.497 19.7895 553.354 19.6465Z" fill="white"/>
<g filter="url(#filter3_d_10064_1681)">
<g clip-path="url(#clip0_10064_1681)">
<path d="M466 43C466 41.3431 467.343 40 469 40H594C595.657 40 597 41.3431 597 43V269C597 270.657 595.657 272 594 272H469C467.343 272 466 270.657 466 269V43Z" fill="#151515"/>
<path d="M466 48H597V88H466V48Z" fill="#1F1F1F"/>
<path d="M483.424 74V62.8H485.136L488.88 70.768L492.624 62.8H494.336V74H493.168V64.256L488.88 73.2L484.576 64.224V74H483.424ZM500.422 74.128C499.696 74.128 499.046 73.952 498.47 73.6C497.894 73.248 497.44 72.768 497.11 72.16C496.779 71.552 496.614 70.864 496.614 70.096C496.614 69.328 496.779 68.64 497.11 68.032C497.44 67.424 497.894 66.944 498.47 66.592C499.046 66.24 499.696 66.064 500.422 66.064C501.136 66.064 501.776 66.24 502.342 66.592C502.918 66.944 503.371 67.424 503.702 68.032C504.032 68.64 504.198 69.328 504.198 70.096C504.198 70.864 504.032 71.552 503.702 72.16C503.371 72.768 502.918 73.248 502.342 73.6C501.776 73.952 501.136 74.128 500.422 74.128ZM500.406 73.104C500.918 73.104 501.371 72.976 501.766 72.72C502.16 72.4533 502.47 72.0907 502.694 71.632C502.928 71.1733 503.046 70.6613 503.046 70.096C503.046 69.52 502.928 69.008 502.694 68.56C502.47 68.1013 502.16 67.744 501.766 67.488C501.371 67.2213 500.918 67.088 500.406 67.088C499.894 67.088 499.44 67.2213 499.046 67.488C498.651 67.744 498.336 68.1013 498.102 68.56C497.878 69.008 497.766 69.52 497.766 70.096C497.766 70.6613 497.878 71.1733 498.102 71.632C498.336 72.0907 498.651 72.4533 499.046 72.72C499.44 72.976 499.894 73.104 500.406 73.104ZM508.253 74L505.053 66.192H506.317L508.845 72.544L511.341 66.192H512.589L509.373 74H508.253ZM517.314 74.16C516.588 74.16 515.932 73.984 515.346 73.632C514.759 73.2693 514.295 72.784 513.954 72.176C513.612 71.5573 513.442 70.864 513.442 70.096C513.442 69.328 513.602 68.64 513.922 68.032C514.252 67.424 514.695 66.944 515.25 66.592C515.804 66.24 516.423 66.064 517.106 66.064C517.799 66.064 518.412 66.24 518.946 66.592C519.49 66.9333 519.916 67.4027 520.226 68C520.546 68.5867 520.706 69.2533 520.706 70V70.352H514.578C514.62 70.8853 514.764 71.3653 515.01 71.792C515.266 72.208 515.596 72.5387 516.002 72.784C516.418 73.0187 516.871 73.136 517.362 73.136C517.767 73.136 518.156 73.0667 518.53 72.928C518.914 72.7787 519.239 72.5813 519.506 72.336L520.242 73.12C519.794 73.472 519.33 73.7333 518.85 73.904C518.37 74.0747 517.858 74.16 517.314 74.16ZM514.61 69.52H519.554C519.5 69.0507 519.356 68.6347 519.122 68.272C518.898 67.8987 518.61 67.6053 518.258 67.392C517.916 67.1787 517.532 67.072 517.106 67.072C516.679 67.072 516.29 67.1787 515.938 67.392C515.586 67.5947 515.292 67.8827 515.058 68.256C514.834 68.6187 514.684 69.04 514.61 69.52Z" fill="white"/>
<mask id="path-23-outside-3_10064_1681" maskUnits="userSpaceOnUse" x="469.5" y="51" width="124" height="34" fill="black">
<rect fill="white" x="469.5" y="51" width="124" height="34"/>
<path d="M471.5 56C471.5 54.3431 472.843 53 474.5 53H588.5C590.157 53 591.5 54.3431 591.5 56V80C591.5 81.6569 590.157 83 588.5 83H474.5C472.843 83 471.5 81.6569 471.5 80V56Z"/>
</mask>
<path d="M474.5 53V55H588.5V53V51H474.5V53ZM591.5 56H589.5V80H591.5H593.5V56H591.5ZM588.5 83V81H474.5V83V85H588.5V83ZM471.5 80H473.5V56H471.5H469.5V80H471.5ZM474.5 83V81C473.948 81 473.5 80.5523 473.5 80H471.5H469.5C469.5 82.7614 471.739 85 474.5 85V83ZM591.5 80H589.5C589.5 80.5523 589.052 81 588.5 81V83V85C591.261 85 593.5 82.7614 593.5 80H591.5ZM588.5 53V55C589.052 55 589.5 55.4477 589.5 56H591.5H593.5C593.5 53.2386 591.261 51 588.5 51V53ZM474.5 53V51C471.739 51 469.5 53.2386 469.5 56H471.5H473.5C473.5 55.4477 473.948 55 474.5 55V53Z" fill="#92C5F9" mask="url(#path-23-outside-3_10064_1681)"/>
<path d="M466 88H597V128H466V88Z" fill="#1F1F1F"/>
<path d="M483.424 114V102.8H488.016C488.731 102.8 489.355 102.939 489.888 103.216C490.421 103.483 490.837 103.856 491.136 104.336C491.435 104.816 491.584 105.381 491.584 106.032C491.584 106.779 491.376 107.419 490.96 107.952C490.544 108.475 489.973 108.843 489.248 109.056L491.632 114H490.272L488 109.216H484.656V114H483.424ZM484.656 108.192H487.92C488.656 108.192 489.243 108 489.68 107.616C490.128 107.221 490.352 106.699 490.352 106.048C490.352 105.387 490.128 104.864 489.68 104.48C489.243 104.085 488.656 103.888 487.92 103.888H484.656V108.192ZM496.673 114.16C495.948 114.16 495.292 113.984 494.705 113.632C494.118 113.269 493.654 112.784 493.313 112.176C492.972 111.557 492.801 110.864 492.801 110.096C492.801 109.328 492.961 108.64 493.281 108.032C493.612 107.424 494.054 106.944 494.609 106.592C495.164 106.24 495.782 106.064 496.465 106.064C497.158 106.064 497.772 106.24 498.305 106.592C498.849 106.933 499.276 107.403 499.585 108C499.905 108.587 500.065 109.253 500.065 110V110.352H493.937C493.98 110.885 494.124 111.365 494.369 111.792C494.625 112.208 494.956 112.539 495.361 112.784C495.777 113.019 496.23 113.136 496.721 113.136C497.126 113.136 497.516 113.067 497.889 112.928C498.273 112.779 498.598 112.581 498.865 112.336L499.601 113.12C499.153 113.472 498.689 113.733 498.209 113.904C497.729 114.075 497.217 114.16 496.673 114.16ZM493.969 109.52H498.913C498.86 109.051 498.716 108.635 498.481 108.272C498.257 107.899 497.969 107.605 497.617 107.392C497.276 107.179 496.892 107.072 496.465 107.072C496.038 107.072 495.649 107.179 495.297 107.392C494.945 107.595 494.652 107.883 494.417 108.256C494.193 108.619 494.044 109.04 493.969 109.52ZM502.059 114V106.192H503.227V107.456C503.526 106.987 503.883 106.64 504.299 106.416C504.715 106.181 505.185 106.064 505.707 106.064C506.273 106.064 506.763 106.187 507.179 106.432C507.606 106.667 507.937 107.003 508.171 107.44C508.417 107.867 508.539 108.368 508.539 108.944V114H507.371V109.28C507.371 108.587 507.179 108.043 506.795 107.648C506.422 107.243 505.915 107.04 505.275 107.04C504.849 107.04 504.459 107.141 504.107 107.344C503.755 107.547 503.462 107.845 503.227 108.24V114H502.059ZM513.304 114.144C512.749 114.144 512.258 114.043 511.832 113.84C511.405 113.637 511.069 113.36 510.824 113.008C510.589 112.645 510.472 112.229 510.472 111.76C510.472 111.291 510.594 110.885 510.84 110.544C511.085 110.192 511.426 109.92 511.864 109.728C512.301 109.536 512.813 109.44 513.4 109.44C513.848 109.44 514.269 109.488 514.664 109.584C515.069 109.68 515.442 109.835 515.784 110.048V108.976C515.784 108.336 515.613 107.856 515.272 107.536C514.93 107.205 514.429 107.04 513.768 107.04C513.405 107.04 513.032 107.093 512.648 107.2C512.274 107.307 511.858 107.477 511.4 107.712L510.968 106.816C512.013 106.315 512.994 106.064 513.911 106.064C514.882 106.064 515.629 106.304 516.152 106.784C516.674 107.253 516.936 107.931 516.936 108.816V114H515.784V113.088C515.442 113.44 515.064 113.707 514.648 113.888C514.232 114.059 513.784 114.144 513.304 114.144ZM511.592 111.728C511.592 112.187 511.768 112.555 512.12 112.832C512.482 113.109 512.957 113.248 513.544 113.248C513.981 113.248 514.381 113.173 514.744 113.024C515.117 112.875 515.464 112.651 515.784 112.352V110.848C515.453 110.656 515.112 110.517 514.76 110.432C514.408 110.336 514.013 110.288 513.576 110.288C512.978 110.288 512.498 110.421 512.136 110.688C511.773 110.944 511.592 111.291 511.592 111.728ZM519.309 114V106.192H520.477V107.408C520.776 106.96 521.117 106.624 521.501 106.4C521.885 106.176 522.317 106.064 522.797 106.064C523.352 106.064 523.837 106.203 524.253 106.48C524.669 106.747 524.984 107.115 525.197 107.584C525.507 107.083 525.875 106.704 526.301 106.448C526.739 106.192 527.24 106.064 527.805 106.064C528.328 106.064 528.787 106.187 529.181 106.432C529.587 106.677 529.901 107.019 530.125 107.456C530.349 107.883 530.461 108.384 530.461 108.96V114H529.293V109.248C529.293 108.565 529.123 108.027 528.781 107.632C528.44 107.237 527.971 107.04 527.373 107.04C526.968 107.04 526.6 107.141 526.269 107.344C525.949 107.547 525.667 107.856 525.421 108.272C525.443 108.379 525.459 108.491 525.469 108.608C525.48 108.725 525.485 108.843 525.485 108.96V114H524.317V109.248C524.317 108.565 524.141 108.027 523.789 107.632C523.448 107.237 522.979 107.04 522.381 107.04C521.581 107.04 520.947 107.424 520.477 108.192V114H519.309ZM536.345 114.16C535.62 114.16 534.964 113.984 534.377 113.632C533.79 113.269 533.326 112.784 532.985 112.176C532.644 111.557 532.473 110.864 532.473 110.096C532.473 109.328 532.633 108.64 532.953 108.032C533.284 107.424 533.726 106.944 534.281 106.592C534.836 106.24 535.454 106.064 536.137 106.064C536.83 106.064 537.444 106.24 537.977 106.592C538.521 106.933 538.948 107.403 539.257 108C539.577 108.587 539.737 109.253 539.737 110V110.352H533.609C533.652 110.885 533.796 111.365 534.041 111.792C534.297 112.208 534.628 112.539 535.033 112.784C535.449 113.019 535.902 113.136 536.393 113.136C536.798 113.136 537.188 113.067 537.561 112.928C537.945 112.779 538.27 112.581 538.537 112.336L539.273 113.12C538.825 113.472 538.361 113.733 537.881 113.904C537.401 114.075 536.889 114.16 536.345 114.16ZM533.641 109.52H538.585C538.532 109.051 538.388 108.635 538.153 108.272C537.929 107.899 537.641 107.605 537.289 107.392C536.948 107.179 536.564 107.072 536.137 107.072C535.71 107.072 535.321 107.179 534.969 107.392C534.617 107.595 534.324 107.883 534.089 108.256C533.865 108.619 533.716 109.04 533.641 109.52Z" fill="white"/>
<path d="M483.408 154V142.8H484.64V147.808H491.072V142.8H492.304V154H491.072V148.912H484.64V154H483.408ZM494.903 154V146.192H496.071V154H494.903ZM495.495 144.256C495.26 144.256 495.057 144.176 494.887 144.016C494.727 143.845 494.647 143.648 494.647 143.424C494.647 143.2 494.727 143.008 494.887 142.848C495.057 142.677 495.26 142.592 495.495 142.592C495.729 142.592 495.927 142.677 496.087 142.848C496.257 143.008 496.343 143.2 496.343 143.424C496.343 143.648 496.257 143.845 496.087 144.016C495.927 144.176 495.729 144.256 495.495 144.256ZM501.714 154.112C501.042 154.112 500.434 153.936 499.89 153.584C499.346 153.221 498.914 152.741 498.594 152.144C498.274 151.536 498.114 150.859 498.114 150.112C498.114 149.355 498.274 148.677 498.594 148.08C498.924 147.472 499.367 146.992 499.922 146.64C500.476 146.277 501.095 146.096 501.778 146.096C502.258 146.096 502.706 146.192 503.122 146.384C503.538 146.565 503.9 146.832 504.21 147.184V142.448L505.378 142.208V154H504.21V152.96C503.911 153.333 503.548 153.621 503.122 153.824C502.695 154.016 502.226 154.112 501.714 154.112ZM502.002 153.088C502.46 153.088 502.882 152.997 503.266 152.816C503.65 152.635 503.964 152.379 504.21 152.048V148.176C503.954 147.845 503.628 147.589 503.234 147.408C502.85 147.216 502.439 147.12 502.002 147.12C501.479 147.12 501.01 147.248 500.594 147.504C500.188 147.76 499.863 148.112 499.618 148.56C499.383 149.008 499.266 149.52 499.266 150.096C499.266 150.661 499.383 151.173 499.618 151.632C499.863 152.08 500.188 152.437 500.594 152.704C501.01 152.96 501.479 153.088 502.002 153.088ZM511.298 154.16C510.573 154.16 509.917 153.984 509.33 153.632C508.743 153.269 508.279 152.784 507.938 152.176C507.597 151.557 507.426 150.864 507.426 150.096C507.426 149.328 507.586 148.64 507.906 148.032C508.237 147.424 508.679 146.944 509.234 146.592C509.789 146.24 510.407 146.064 511.09 146.064C511.783 146.064 512.397 146.24 512.93 146.592C513.474 146.933 513.901 147.403 514.21 148C514.53 148.587 514.69 149.253 514.69 150V150.352H508.562C508.605 150.885 508.749 151.365 508.994 151.792C509.25 152.208 509.581 152.539 509.986 152.784C510.402 153.019 510.855 153.136 511.346 153.136C511.751 153.136 512.141 153.067 512.514 152.928C512.898 152.779 513.223 152.581 513.49 152.336L514.226 153.12C513.778 153.472 513.314 153.733 512.834 153.904C512.354 154.075 511.842 154.16 511.298 154.16ZM508.594 149.52H513.538C513.485 149.051 513.341 148.635 513.106 148.272C512.882 147.899 512.594 147.605 512.242 147.392C511.901 147.179 511.517 147.072 511.09 147.072C510.663 147.072 510.274 147.179 509.922 147.392C509.57 147.595 509.277 147.883 509.042 148.256C508.818 148.619 508.669 149.04 508.594 149.52Z" fill="white"/>
<path d="M487.04 194.176C486.165 194.176 485.355 194.021 484.608 193.712C483.861 193.392 483.141 192.912 482.448 192.272L483.2 191.376C483.872 192.005 484.501 192.453 485.088 192.72C485.685 192.987 486.347 193.12 487.072 193.12C487.648 193.12 488.16 193.024 488.608 192.832C489.067 192.629 489.424 192.357 489.68 192.016C489.936 191.675 490.064 191.285 490.064 190.848C490.064 190.283 489.877 189.856 489.504 189.568C489.131 189.269 488.485 189.04 487.568 188.88L485.76 188.576C484.736 188.395 483.984 188.085 483.504 187.648C483.035 187.2 482.8 186.603 482.8 185.856C482.8 185.227 482.96 184.672 483.28 184.192C483.611 183.701 484.064 183.317 484.64 183.04C485.216 182.763 485.883 182.624 486.64 182.624C487.472 182.624 488.245 182.741 488.96 182.976C489.675 183.2 490.379 183.557 491.072 184.048L490.432 185.008C489.856 184.571 489.248 184.24 488.608 184.016C487.968 183.781 487.317 183.664 486.656 183.664C486.133 183.664 485.669 183.755 485.264 183.936C484.869 184.117 484.555 184.363 484.32 184.672C484.096 184.981 483.984 185.333 483.984 185.728C483.984 186.219 484.149 186.603 484.48 186.88C484.811 187.157 485.349 187.355 486.096 187.472L487.888 187.776C489.083 187.989 489.947 188.336 490.48 188.816C491.024 189.285 491.296 189.941 491.296 190.784C491.296 191.435 491.109 192.016 490.736 192.528C490.373 193.04 489.872 193.445 489.232 193.744C488.592 194.032 487.861 194.176 487.04 194.176ZM496.845 194.16C496.12 194.16 495.464 193.984 494.877 193.632C494.29 193.269 493.826 192.784 493.485 192.176C493.144 191.557 492.973 190.864 492.973 190.096C492.973 189.328 493.133 188.64 493.453 188.032C493.784 187.424 494.226 186.944 494.781 186.592C495.336 186.24 495.954 186.064 496.637 186.064C497.33 186.064 497.944 186.24 498.477 186.592C499.021 186.933 499.448 187.403 499.757 188C500.077 188.587 500.237 189.253 500.237 190V190.352H494.109C494.152 190.885 494.296 191.365 494.541 191.792C494.797 192.208 495.128 192.539 495.533 192.784C495.949 193.019 496.402 193.136 496.893 193.136C497.298 193.136 497.688 193.067 498.061 192.928C498.445 192.779 498.77 192.581 499.037 192.336L499.773 193.12C499.325 193.472 498.861 193.733 498.381 193.904C497.901 194.075 497.389 194.16 496.845 194.16ZM494.141 189.52H499.085C499.032 189.051 498.888 188.635 498.653 188.272C498.429 187.899 498.141 187.605 497.789 187.392C497.448 187.179 497.064 187.072 496.637 187.072C496.21 187.072 495.821 187.179 495.469 187.392C495.117 187.595 494.824 187.883 494.589 188.256C494.365 188.619 494.216 189.04 494.141 189.52ZM504.973 194.16C504.301 194.16 503.789 194 503.437 193.68C503.096 193.349 502.925 192.875 502.925 192.256V187.152H501.309V186.192H502.925V184.048L504.093 183.776V186.192H506.333V187.152H504.093V191.952C504.093 192.368 504.178 192.667 504.349 192.848C504.53 193.029 504.824 193.12 505.229 193.12C505.432 193.12 505.613 193.104 505.773 193.072C505.933 193.04 506.12 192.987 506.333 192.912V193.952C506.12 194.027 505.896 194.08 505.661 194.112C505.426 194.144 505.197 194.16 504.973 194.16ZM514.194 194.144C513.639 194.144 513.149 194.043 512.722 193.84C512.295 193.637 511.959 193.36 511.714 193.008C511.479 192.645 511.362 192.229 511.362 191.76C511.362 191.291 511.485 190.885 511.73 190.544C511.975 190.192 512.317 189.92 512.754 189.728C513.191 189.536 513.703 189.44 514.29 189.44C514.738 189.44 515.159 189.488 515.554 189.584C515.959 189.68 516.333 189.835 516.674 190.048V188.976C516.674 188.336 516.503 187.856 516.162 187.536C515.821 187.205 515.319 187.04 514.658 187.04C514.295 187.04 513.922 187.093 513.538 187.2C513.165 187.307 512.749 187.477 512.29 187.712L511.858 186.816C512.903 186.315 513.885 186.064 514.802 186.064C515.773 186.064 516.519 186.304 517.042 186.784C517.565 187.253 517.826 187.931 517.826 188.816V194H516.674V193.088C516.333 193.44 515.954 193.707 515.538 193.888C515.122 194.059 514.674 194.144 514.194 194.144ZM512.482 191.728C512.482 192.187 512.658 192.555 513.01 192.832C513.373 193.109 513.847 193.248 514.434 193.248C514.871 193.248 515.271 193.173 515.634 193.024C516.007 192.875 516.354 192.651 516.674 192.352V190.848C516.343 190.656 516.002 190.517 515.65 190.432C515.298 190.336 514.903 190.288 514.466 190.288C513.869 190.288 513.389 190.421 513.026 190.688C512.663 190.944 512.482 191.291 512.482 191.728ZM522.616 194.16C521.976 194.16 521.384 194.064 520.84 193.872C520.296 193.669 519.832 193.381 519.448 193.008L520.072 192.24C520.541 192.581 520.973 192.832 521.368 192.992C521.763 193.141 522.168 193.216 522.584 193.216C523.149 193.216 523.619 193.083 523.992 192.816C524.365 192.549 524.552 192.208 524.552 191.792C524.552 191.472 524.44 191.221 524.216 191.04C524.003 190.859 523.645 190.72 523.144 190.624L521.864 190.4C521.107 190.261 520.547 190.027 520.184 189.696C519.832 189.365 519.656 188.917 519.656 188.352C519.656 187.904 519.773 187.509 520.008 187.168C520.253 186.827 520.589 186.56 521.016 186.368C521.443 186.165 521.928 186.064 522.472 186.064C523.005 186.064 523.512 186.144 523.992 186.304C524.472 186.453 524.957 186.699 525.448 187.04L524.872 187.856C524.467 187.568 524.061 187.36 523.656 187.232C523.251 187.093 522.84 187.024 522.424 187.024C521.912 187.024 521.501 187.136 521.192 187.36C520.883 187.584 520.728 187.888 520.728 188.272C520.728 188.592 520.824 188.837 521.016 189.008C521.219 189.179 521.571 189.307 522.072 189.392L523.384 189.632C524.173 189.771 524.749 190.011 525.112 190.352C525.475 190.693 525.656 191.152 525.656 191.728C525.656 192.187 525.523 192.603 525.256 192.976C524.989 193.339 524.627 193.627 524.168 193.84C523.709 194.053 523.192 194.16 522.616 194.16ZM534.417 194.112C533.745 194.112 533.137 193.936 532.593 193.584C532.049 193.221 531.617 192.741 531.297 192.144C530.977 191.536 530.817 190.859 530.817 190.112C530.817 189.355 530.977 188.677 531.297 188.08C531.627 187.472 532.07 186.992 532.625 186.64C533.179 186.277 533.798 186.096 534.481 186.096C534.961 186.096 535.409 186.192 535.825 186.384C536.241 186.565 536.603 186.832 536.913 187.184V182.448L538.081 182.208V194H536.913V192.96C536.614 193.333 536.251 193.621 535.825 193.824C535.398 194.016 534.929 194.112 534.417 194.112ZM534.705 193.088C535.163 193.088 535.585 192.997 535.969 192.816C536.353 192.635 536.667 192.379 536.913 192.048V188.176C536.657 187.845 536.331 187.589 535.937 187.408C535.553 187.216 535.142 187.12 534.705 187.12C534.182 187.12 533.713 187.248 533.297 187.504C532.891 187.76 532.566 188.112 532.321 188.56C532.086 189.008 531.969 189.52 531.969 190.096C531.969 190.661 532.086 191.173 532.321 191.632C532.566 192.08 532.891 192.437 533.297 192.704C533.713 192.96 534.182 193.088 534.705 193.088ZM544.001 194.16C543.276 194.16 542.62 193.984 542.033 193.632C541.447 193.269 540.983 192.784 540.641 192.176C540.3 191.557 540.129 190.864 540.129 190.096C540.129 189.328 540.289 188.64 540.609 188.032C540.94 187.424 541.383 186.944 541.937 186.592C542.492 186.24 543.111 186.064 543.793 186.064C544.487 186.064 545.1 186.24 545.633 186.592C546.177 186.933 546.604 187.403 546.913 188C547.233 188.587 547.393 189.253 547.393 190V190.352H541.265C541.308 190.885 541.452 191.365 541.697 191.792C541.953 192.208 542.284 192.539 542.689 192.784C543.105 193.019 543.559 193.136 544.049 193.136C544.455 193.136 544.844 193.067 545.217 192.928C545.601 192.779 545.927 192.581 546.193 192.336L546.929 193.12C546.481 193.472 546.017 193.733 545.537 193.904C545.057 194.075 544.545 194.16 544.001 194.16ZM541.297 189.52H546.241C546.188 189.051 546.044 188.635 545.809 188.272C545.585 187.899 545.297 187.605 544.945 187.392C544.604 187.179 544.22 187.072 543.793 187.072C543.367 187.072 542.977 187.179 542.625 187.392C542.273 187.595 541.98 187.883 541.745 188.256C541.521 188.619 541.372 189.04 541.297 189.52ZM550.145 194V187.152H548.401V186.192H550.145V184.56C550.145 183.792 550.348 183.2 550.753 182.784C551.158 182.368 551.734 182.16 552.481 182.16C552.694 182.16 552.886 182.171 553.057 182.192C553.238 182.213 553.398 182.251 553.537 182.304V183.36C553.366 183.307 553.212 183.269 553.073 183.248C552.934 183.227 552.774 183.216 552.593 183.216C552.145 183.216 551.82 183.328 551.617 183.552C551.414 183.765 551.313 184.107 551.313 184.576V186.192H553.537V187.152H551.313V194H550.145ZM557.257 194.144C556.702 194.144 556.211 194.043 555.785 193.84C555.358 193.637 555.022 193.36 554.777 193.008C554.542 192.645 554.425 192.229 554.425 191.76C554.425 191.291 554.547 190.885 554.793 190.544C555.038 190.192 555.379 189.92 555.817 189.728C556.254 189.536 556.766 189.44 557.353 189.44C557.801 189.44 558.222 189.488 558.617 189.584C559.022 189.68 559.395 189.835 559.737 190.048V188.976C559.737 188.336 559.566 187.856 559.225 187.536C558.883 187.205 558.382 187.04 557.721 187.04C557.358 187.04 556.985 187.093 556.601 187.2C556.227 187.307 555.811 187.477 555.353 187.712L554.921 186.816C555.966 186.315 556.947 186.064 557.865 186.064C558.835 186.064 559.582 186.304 560.105 186.784C560.627 187.253 560.889 187.931 560.889 188.816V194H559.737V193.088C559.395 193.44 559.017 193.707 558.601 193.888C558.185 194.059 557.737 194.144 557.257 194.144ZM555.545 191.728C555.545 192.187 555.721 192.555 556.073 192.832C556.435 193.109 556.91 193.248 557.497 193.248C557.934 193.248 558.334 193.173 558.697 193.024C559.07 192.875 559.417 192.651 559.737 192.352V190.848C559.406 190.656 559.065 190.517 558.713 190.432C558.361 190.336 557.966 190.288 557.529 190.288C556.931 190.288 556.451 190.421 556.089 190.688C555.726 190.944 555.545 191.291 555.545 191.728ZM565.968 194.128C565.414 194.128 564.923 194.005 564.496 193.76C564.07 193.515 563.734 193.173 563.488 192.736C563.254 192.299 563.136 191.797 563.136 191.232V186.192H564.32V190.896C564.32 191.589 564.507 192.139 564.88 192.544C565.254 192.949 565.76 193.152 566.4 193.152C566.838 193.152 567.227 193.051 567.568 192.848C567.92 192.645 568.214 192.352 568.448 191.968V186.192H569.616V194H568.448V192.736C568.15 193.195 567.792 193.541 567.376 193.776C566.971 194.011 566.502 194.128 565.968 194.128ZM572.013 194V182.448L573.181 182.208V194H572.013ZM578.551 194.16C577.879 194.16 577.367 194 577.015 193.68C576.674 193.349 576.503 192.875 576.503 192.256V187.152H574.887V186.192H576.503V184.048L577.671 183.776V186.192H579.911V187.152H577.671V191.952C577.671 192.368 577.756 192.667 577.927 192.848C578.108 193.029 578.402 193.12 578.807 193.12C579.01 193.12 579.191 193.104 579.351 193.072C579.511 193.04 579.698 192.987 579.911 192.912V193.952C579.698 194.027 579.474 194.08 579.239 194.112C579.004 194.144 578.775 194.16 578.551 194.16Z" fill="#4D4D4D"/>
<mask id="path-31-inside-4_10064_1681" fill="white">
<path d="M466 216H597V272H466V216Z"/>
</mask>
<path d="M466 216V217H597V216V215H466V216Z" fill="#707070" mask="url(#path-31-inside-4_10064_1681)"/>
<path d="M484.656 248.896H487.216C488.027 248.896 488.752 248.699 489.392 248.304C490.032 247.909 490.539 247.376 490.912 246.704C491.296 246.021 491.488 245.253 491.488 244.4C491.488 243.547 491.296 242.784 490.912 242.112C490.539 241.429 490.032 240.891 489.392 240.496C488.752 240.101 488.027 239.904 487.216 239.904H484.656V248.896ZM483.424 250V238.8H487.136C487.957 238.8 488.709 238.944 489.392 239.232C490.085 239.509 490.677 239.904 491.168 240.416C491.669 240.917 492.053 241.509 492.32 242.192C492.597 242.864 492.736 243.6 492.736 244.4C492.736 245.2 492.597 245.941 492.32 246.624C492.053 247.296 491.669 247.888 491.168 248.4C490.677 248.901 490.085 249.296 489.392 249.584C488.709 249.861 487.957 250 487.136 250H483.424ZM498.361 250.16C497.635 250.16 496.979 249.984 496.393 249.632C495.806 249.269 495.342 248.784 495.001 248.176C494.659 247.557 494.489 246.864 494.489 246.096C494.489 245.328 494.649 244.64 494.969 244.032C495.299 243.424 495.742 242.944 496.297 242.592C496.851 242.24 497.47 242.064 498.153 242.064C498.846 242.064 499.459 242.24 499.993 242.592C500.537 242.933 500.963 243.403 501.273 244C501.593 244.587 501.753 245.253 501.753 246V246.352H495.625C495.667 246.885 495.811 247.365 496.057 247.792C496.313 248.208 496.643 248.539 497.049 248.784C497.465 249.019 497.918 249.136 498.409 249.136C498.814 249.136 499.203 249.067 499.577 248.928C499.961 248.779 500.286 248.581 500.553 248.336L501.289 249.12C500.841 249.472 500.377 249.733 499.897 249.904C499.417 250.075 498.905 250.16 498.361 250.16ZM495.657 245.52H500.601C500.547 245.051 500.403 244.635 500.169 244.272C499.945 243.899 499.657 243.605 499.305 243.392C498.963 243.179 498.579 243.072 498.153 243.072C497.726 243.072 497.337 243.179 496.985 243.392C496.633 243.595 496.339 243.883 496.105 244.256C495.881 244.619 495.731 245.04 495.657 245.52ZM503.747 250V238.448L504.915 238.208V250H503.747ZM510.829 250.16C510.104 250.16 509.448 249.984 508.861 249.632C508.275 249.269 507.811 248.784 507.469 248.176C507.128 247.557 506.957 246.864 506.957 246.096C506.957 245.328 507.117 244.64 507.437 244.032C507.768 243.424 508.211 242.944 508.765 242.592C509.32 242.24 509.939 242.064 510.621 242.064C511.315 242.064 511.928 242.24 512.461 242.592C513.005 242.933 513.432 243.403 513.741 244C514.061 244.587 514.221 245.253 514.221 246V246.352H508.093C508.136 246.885 508.28 247.365 508.525 247.792C508.781 248.208 509.112 248.539 509.517 248.784C509.933 249.019 510.387 249.136 510.877 249.136C511.283 249.136 511.672 249.067 512.045 248.928C512.429 248.779 512.755 248.581 513.021 248.336L513.757 249.12C513.309 249.472 512.845 249.733 512.365 249.904C511.885 250.075 511.373 250.16 510.829 250.16ZM508.125 245.52H513.069C513.016 245.051 512.872 244.635 512.637 244.272C512.413 243.899 512.125 243.605 511.773 243.392C511.432 243.179 511.048 243.072 510.621 243.072C510.195 243.072 509.805 243.179 509.453 243.392C509.101 243.595 508.808 243.883 508.573 244.256C508.349 244.619 508.2 245.04 508.125 245.52ZM518.957 250.16C518.285 250.16 517.773 250 517.421 249.68C517.08 249.349 516.909 248.875 516.909 248.256V243.152H515.293V242.192H516.909V240.048L518.077 239.776V242.192H520.317V243.152H518.077V247.952C518.077 248.368 518.163 248.667 518.333 248.848C518.515 249.029 518.808 249.12 519.213 249.12C519.416 249.12 519.597 249.104 519.757 249.072C519.917 249.04 520.104 248.987 520.317 248.912V249.952C520.104 250.027 519.88 250.08 519.645 250.112C519.411 250.144 519.181 250.16 518.957 250.16ZM525.392 250.16C524.667 250.16 524.011 249.984 523.424 249.632C522.837 249.269 522.373 248.784 522.032 248.176C521.691 247.557 521.52 246.864 521.52 246.096C521.52 245.328 521.68 244.64 522 244.032C522.331 243.424 522.773 242.944 523.328 242.592C523.883 242.24 524.501 242.064 525.184 242.064C525.877 242.064 526.491 242.24 527.024 242.592C527.568 242.933 527.995 243.403 528.304 244C528.624 244.587 528.784 245.253 528.784 246V246.352H522.656C522.699 246.885 522.843 247.365 523.088 247.792C523.344 248.208 523.675 248.539 524.08 248.784C524.496 249.019 524.949 249.136 525.44 249.136C525.845 249.136 526.235 249.067 526.608 248.928C526.992 248.779 527.317 248.581 527.584 248.336L528.32 249.12C527.872 249.472 527.408 249.733 526.928 249.904C526.448 250.075 525.936 250.16 525.392 250.16ZM522.688 245.52H527.632C527.579 245.051 527.435 244.635 527.2 244.272C526.976 243.899 526.688 243.605 526.336 243.392C525.995 243.179 525.611 243.072 525.184 243.072C524.757 243.072 524.368 243.179 524.016 243.392C523.664 243.595 523.371 243.883 523.136 244.256C522.912 244.619 522.763 245.04 522.688 245.52Z" fill="white"/>
</g>
<path d="M469 40.5H594C595.381 40.5 596.5 41.6193 596.5 43V269C596.5 270.381 595.381 271.5 594 271.5H469C467.619 271.5 466.5 270.381 466.5 269V43C466.5 41.6193 467.619 40.5 469 40.5Z" stroke="#707070"/>
</g>
<g filter="url(#filter4_d_10064_1681)">
<path d="M543 36.5V19.5L555 31.5H548L543 36.5Z" fill="#151515"/>
<path d="M556.207 32H548.207L542.5 37.707V18.293L556.207 32Z" stroke="white"/>
</g>
<g filter="url(#filter5_d_10064_1681)">
<path d="M543 125V108L555 120H548L543 125Z" fill="#151515"/>
<path d="M556.207 120.5H548.207L542.5 126.207V106.793L556.207 120.5Z" stroke="white"/>
</g>
<path d="M696 1H823C824.105 1 825 1.89543 825 3V33C825 34.1046 824.105 35 823 35H696C694.895 35 694 34.1046 694 33V3C694 1.89543 694.895 1 696 1Z" fill="#151515"/>
<path d="M696 1H823C824.105 1 825 1.89543 825 3V33C825 34.1046 824.105 35 823 35H696C694.895 35 694 34.1046 694 33V3C694 1.89543 694.895 1 696 1Z" stroke="#92C5F9" stroke-width="2"/>
<path d="M710.424 24V12.8H712.136L715.88 20.768L719.624 12.8H721.336V24H720.168V14.256L715.88 23.2L711.576 14.224V24H710.424ZM724.302 27.504C724.056 27.504 723.806 27.4667 723.55 27.392V26.352C723.656 26.3733 723.768 26.3893 723.886 26.4C724.003 26.4107 724.104 26.416 724.19 26.416C724.488 26.416 724.734 26.336 724.926 26.176C725.128 26.016 725.299 25.7653 725.438 25.424L726.014 24L723.006 16.192H724.302L726.67 22.608L729.182 16.192H730.478L726.542 25.776C726.371 26.192 726.184 26.528 725.982 26.784C725.779 27.04 725.544 27.2213 725.278 27.328C725.011 27.4453 724.686 27.504 724.302 27.504ZM738.085 24.144C737.53 24.144 737.039 24.0427 736.613 23.84C736.186 23.6373 735.85 23.36 735.605 23.008C735.37 22.6453 735.253 22.2293 735.253 21.76C735.253 21.2907 735.375 20.8853 735.621 20.544C735.866 20.192 736.207 19.92 736.645 19.728C737.082 19.536 737.594 19.44 738.181 19.44C738.629 19.44 739.05 19.488 739.445 19.584C739.85 19.68 740.223 19.8347 740.565 20.048V18.976C740.565 18.336 740.394 17.856 740.053 17.536C739.711 17.2053 739.21 17.04 738.549 17.04C738.186 17.04 737.813 17.0933 737.429 17.2C737.055 17.3067 736.639 17.4773 736.181 17.712L735.749 16.816C736.794 16.3147 737.775 16.064 738.693 16.064C739.663 16.064 740.41 16.304 740.933 16.784C741.455 17.2533 741.717 17.9307 741.717 18.816V24H740.565V23.088C740.223 23.44 739.845 23.7067 739.429 23.888C739.013 24.0587 738.565 24.144 738.085 24.144ZM736.373 21.728C736.373 22.1867 736.549 22.5547 736.901 22.832C737.263 23.1093 737.738 23.248 738.325 23.248C738.762 23.248 739.162 23.1733 739.525 23.024C739.898 22.8747 740.245 22.6507 740.565 22.352V20.848C740.234 20.656 739.893 20.5173 739.541 20.432C739.189 20.336 738.794 20.288 738.357 20.288C737.759 20.288 737.279 20.4213 736.917 20.688C736.554 20.944 736.373 21.2907 736.373 21.728ZM747.595 24.128C746.869 24.128 746.213 23.952 745.627 23.6C745.051 23.2373 744.592 22.752 744.251 22.144C743.909 21.5253 743.739 20.8427 743.739 20.096C743.739 19.3387 743.909 18.656 744.251 18.048C744.592 17.44 745.051 16.96 745.627 16.608C746.213 16.2453 746.869 16.064 747.595 16.064C748.171 16.064 748.72 16.1707 749.243 16.384C749.765 16.5973 750.219 16.896 750.603 17.28L749.851 18.096C749.573 17.7867 749.237 17.5467 748.843 17.376C748.448 17.2053 748.048 17.12 747.643 17.12C747.131 17.12 746.667 17.2533 746.251 17.52C745.845 17.7867 745.52 18.144 745.275 18.592C745.029 19.04 744.907 19.5413 744.907 20.096C744.907 20.6507 745.029 21.152 745.275 21.6C745.52 22.048 745.845 22.4053 746.251 22.672C746.667 22.9387 747.131 23.072 747.643 23.072C748.048 23.072 748.448 22.9867 748.843 22.816C749.237 22.6347 749.573 22.3947 749.851 22.096L750.603 22.912C750.219 23.296 749.765 23.5947 749.243 23.808C748.72 24.0213 748.171 24.128 747.595 24.128ZM755.501 24.128C754.776 24.128 754.12 23.952 753.533 23.6C752.957 23.2373 752.498 22.752 752.157 22.144C751.816 21.5253 751.645 20.8427 751.645 20.096C751.645 19.3387 751.816 18.656 752.157 18.048C752.498 17.44 752.957 16.96 753.533 16.608C754.12 16.2453 754.776 16.064 755.501 16.064C756.077 16.064 756.626 16.1707 757.149 16.384C757.672 16.5973 758.125 16.896 758.509 17.28L757.757 18.096C757.48 17.7867 757.144 17.5467 756.749 17.376C756.354 17.2053 755.954 17.12 755.549 17.12C755.037 17.12 754.573 17.2533 754.157 17.52C753.752 17.7867 753.426 18.144 753.181 18.592C752.936 19.04 752.813 19.5413 752.813 20.096C752.813 20.6507 752.936 21.152 753.181 21.6C753.426 22.048 753.752 22.4053 754.157 22.672C754.573 22.9387 755.037 23.072 755.549 23.072C755.954 23.072 756.354 22.9867 756.749 22.816C757.144 22.6347 757.48 22.3947 757.757 22.096L758.509 22.912C758.125 23.296 757.672 23.5947 757.149 23.808C756.626 24.0213 756.077 24.128 755.501 24.128ZM763.359 24.128C762.634 24.128 761.983 23.952 761.407 23.6C760.831 23.248 760.378 22.768 760.047 22.16C759.716 21.552 759.551 20.864 759.551 20.096C759.551 19.328 759.716 18.64 760.047 18.032C760.378 17.424 760.831 16.944 761.407 16.592C761.983 16.24 762.634 16.064 763.359 16.064C764.074 16.064 764.714 16.24 765.279 16.592C765.855 16.944 766.308 17.424 766.639 18.032C766.97 18.64 767.135 19.328 767.135 20.096C767.135 20.864 766.97 21.552 766.639 22.16C766.308 22.768 765.855 23.248 765.279 23.6C764.714 23.952 764.074 24.128 763.359 24.128ZM763.343 23.104C763.855 23.104 764.308 22.976 764.703 22.72C765.098 22.4533 765.407 22.0907 765.631 21.632C765.866 21.1733 765.983 20.6613 765.983 20.096C765.983 19.52 765.866 19.008 765.631 18.56C765.407 18.1013 765.098 17.744 764.703 17.488C764.308 17.2213 763.855 17.088 763.343 17.088C762.831 17.088 762.378 17.2213 761.983 17.488C761.588 17.744 761.274 18.1013 761.039 18.56C760.815 19.008 760.703 19.52 760.703 20.096C760.703 20.6613 760.815 21.1733 761.039 21.632C761.274 22.0907 761.588 22.4533 761.983 22.72C762.378 22.976 762.831 23.104 763.343 23.104ZM771.968 24.128C771.414 24.128 770.923 24.0053 770.496 23.76C770.07 23.5147 769.734 23.1733 769.488 22.736C769.254 22.2987 769.136 21.7973 769.136 21.232V16.192H770.32V20.896C770.32 21.5893 770.507 22.1387 770.88 22.544C771.254 22.9493 771.76 23.152 772.4 23.152C772.838 23.152 773.227 23.0507 773.568 22.848C773.92 22.6453 774.214 22.352 774.448 21.968V16.192H775.616V24H774.448V22.736C774.15 23.1947 773.792 23.5413 773.376 23.776C772.971 24.0107 772.502 24.128 771.968 24.128ZM778.013 24V16.192H779.181V17.456C779.479 16.9867 779.837 16.64 780.253 16.416C780.669 16.1813 781.138 16.064 781.661 16.064C782.226 16.064 782.717 16.1867 783.133 16.432C783.559 16.6667 783.89 17.0027 784.125 17.44C784.37 17.8667 784.493 18.368 784.493 18.944V24H783.325V19.28C783.325 18.5867 783.133 18.0427 782.749 17.648C782.375 17.2427 781.869 17.04 781.229 17.04C780.802 17.04 780.413 17.1413 780.061 17.344C779.709 17.5467 779.415 17.8453 779.181 18.24V24H778.013ZM789.582 24.16C788.91 24.16 788.398 24 788.046 23.68C787.705 23.3493 787.534 22.8747 787.534 22.256V17.152H785.918V16.192H787.534V14.048L788.702 13.776V16.192H790.942V17.152H788.702V21.952C788.702 22.368 788.788 22.6667 788.958 22.848C789.14 23.0293 789.433 23.12 789.838 23.12C790.041 23.12 790.222 23.104 790.382 23.072C790.542 23.04 790.729 22.9867 790.942 22.912V23.952C790.729 24.0267 790.505 24.08 790.27 24.112C790.036 24.144 789.806 24.16 789.582 24.16Z" fill="white"/>
<path d="M809.354 19.6465L805.53 15.8232C805.238 15.5303 804.762 15.5303 804.47 15.8232L800.647 19.6465C800.504 19.7895 800.461 20.0044 800.538 20.1914C800.615 20.3784 800.798 20.5 801 20.5H809C809.202 20.5 809.385 20.3784 809.462 20.1914C809.54 20.0044 809.497 19.7895 809.354 19.6465Z" fill="white"/>
<g filter="url(#filter6_d_10064_1681)">
<g clip-path="url(#clip1_10064_1681)">
<path d="M693 43C693 41.3431 694.343 40 696 40H940C941.657 40 943 41.3431 943 43V173C943 174.657 941.657 176 940 176H696C694.343 176 693 174.657 693 173V43Z" fill="#151515"/>
<path d="M693 48H943V88H693V48Z" fill="#1F1F1F"/>
<path d="M713.528 74L709.144 62.8H710.456L714.296 72.816L718.152 62.8H719.416L715 74H713.528ZM720.747 74V66.192H721.914V74H720.747ZM721.339 64.256C721.104 64.256 720.901 64.176 720.731 64.016C720.571 63.8453 720.491 63.648 720.491 63.424C720.491 63.2 720.571 63.008 720.731 62.848C720.901 62.6773 721.104 62.592 721.339 62.592C721.573 62.592 721.771 62.6773 721.931 62.848C722.101 63.008 722.187 63.2 722.187 63.424C722.187 63.648 722.101 63.8453 721.931 64.016C721.771 64.176 721.573 64.256 721.339 64.256ZM727.829 74.16C727.104 74.16 726.448 73.984 725.861 73.632C725.275 73.2693 724.811 72.784 724.469 72.176C724.128 71.5573 723.957 70.864 723.957 70.096C723.957 69.328 724.117 68.64 724.437 68.032C724.768 67.424 725.211 66.944 725.765 66.592C726.32 66.24 726.939 66.064 727.621 66.064C728.315 66.064 728.928 66.24 729.461 66.592C730.005 66.9333 730.432 67.4027 730.741 68C731.061 68.5867 731.221 69.2533 731.221 70V70.352H725.093C725.136 70.8853 725.28 71.3653 725.525 71.792C725.781 72.208 726.112 72.5387 726.517 72.784C726.933 73.0187 727.387 73.136 727.877 73.136C728.283 73.136 728.672 73.0667 729.045 72.928C729.429 72.7787 729.755 72.5813 730.021 72.336L730.757 73.12C730.309 73.472 729.845 73.7333 729.365 73.904C728.885 74.0747 728.373 74.16 727.829 74.16ZM725.125 69.52H730.069C730.016 69.0507 729.872 68.6347 729.637 68.272C729.413 67.8987 729.125 67.6053 728.773 67.392C728.432 67.1787 728.048 67.072 727.621 67.072C727.195 67.072 726.805 67.1787 726.453 67.392C726.101 67.5947 725.808 67.8827 725.573 68.256C725.349 68.6187 725.2 69.04 725.125 69.52ZM734.451 74L732.307 66.192H733.443L735.075 72.432L736.947 66.192H737.987L739.859 72.432L741.475 66.192H742.579L740.451 74H739.315L737.459 67.696L735.603 74H734.451ZM747.966 77.344V66.192H749.118V67.312C749.416 66.9173 749.779 66.6187 750.206 66.416C750.643 66.2027 751.123 66.096 751.646 66.096C752.328 66.096 752.936 66.2773 753.47 66.64C754.014 66.992 754.446 67.472 754.766 68.08C755.086 68.6773 755.246 69.3493 755.246 70.096C755.246 70.8427 755.08 71.52 754.75 72.128C754.43 72.736 753.992 73.2213 753.438 73.584C752.894 73.936 752.275 74.112 751.582 74.112C751.091 74.112 750.638 74.0213 750.222 73.84C749.806 73.648 749.443 73.376 749.134 73.024V77.344H747.966ZM751.358 73.104C751.88 73.104 752.344 72.976 752.75 72.72C753.166 72.4533 753.491 72.096 753.726 71.648C753.971 71.1893 754.094 70.6773 754.094 70.112C754.094 69.536 753.971 69.024 753.726 68.576C753.491 68.128 753.166 67.776 752.75 67.52C752.344 67.2533 751.88 67.12 751.358 67.12C750.899 67.12 750.472 67.216 750.078 67.408C749.694 67.5893 749.379 67.8507 749.134 68.192V72.016C749.39 72.3573 749.71 72.624 750.094 72.816C750.488 73.008 750.91 73.104 751.358 73.104ZM757.294 74V66.192H758.462V67.792C758.664 67.248 758.952 66.8267 759.326 66.528C759.71 66.2187 760.147 66.064 760.638 66.064C760.776 66.064 760.904 66.0747 761.022 66.096C761.139 66.1067 761.256 66.1333 761.374 66.176V67.232C761.246 67.1893 761.107 67.1573 760.958 67.136C760.819 67.104 760.686 67.088 760.558 67.088C760.078 67.088 759.656 67.2267 759.294 67.504C758.942 67.7813 758.664 68.1707 758.462 68.672V74H757.294ZM765.89 74.128C765.165 74.128 764.514 73.952 763.938 73.6C763.362 73.248 762.909 72.768 762.578 72.16C762.248 71.552 762.082 70.864 762.082 70.096C762.082 69.328 762.248 68.64 762.578 68.032C762.909 67.424 763.362 66.944 763.938 66.592C764.514 66.24 765.165 66.064 765.89 66.064C766.605 66.064 767.245 66.24 767.81 66.592C768.386 66.944 768.84 67.424 769.17 68.032C769.501 68.64 769.666 69.328 769.666 70.096C769.666 70.864 769.501 71.552 769.17 72.16C768.84 72.768 768.386 73.248 767.81 73.6C767.245 73.952 766.605 74.128 765.89 74.128ZM765.874 73.104C766.386 73.104 766.84 72.976 767.234 72.72C767.629 72.4533 767.938 72.0907 768.162 71.632C768.397 71.1733 768.514 70.6613 768.514 70.096C768.514 69.52 768.397 69.008 768.162 68.56C767.938 68.1013 767.629 67.744 767.234 67.488C766.84 67.2213 766.386 67.088 765.874 67.088C765.362 67.088 764.909 67.2213 764.514 67.488C764.12 67.744 763.805 68.1013 763.57 68.56C763.346 69.008 763.234 69.52 763.234 70.096C763.234 70.6613 763.346 71.1733 763.57 71.632C763.805 72.0907 764.12 72.4533 764.514 72.72C764.909 72.976 765.362 73.104 765.874 73.104ZM772.223 74V67.152H770.479V66.192H772.223V64.56C772.223 63.792 772.426 63.2 772.831 62.784C773.237 62.368 773.813 62.16 774.559 62.16C774.773 62.16 774.965 62.1707 775.135 62.192C775.317 62.2133 775.477 62.2507 775.615 62.304V63.36C775.445 63.3067 775.29 63.2693 775.151 63.248C775.013 63.2267 774.853 63.216 774.671 63.216C774.223 63.216 773.898 63.328 773.695 63.552C773.493 63.7653 773.391 64.1067 773.391 64.576V66.192H775.615V67.152H773.391V74H772.223ZM777.137 74V66.192H778.305V74H777.137ZM777.729 64.256C777.494 64.256 777.292 64.176 777.121 64.016C776.961 63.8453 776.881 63.648 776.881 63.424C776.881 63.2 776.961 63.008 777.121 62.848C777.292 62.6773 777.494 62.592 777.729 62.592C777.964 62.592 778.161 62.6773 778.321 62.848C778.492 63.008 778.577 63.2 778.577 63.424C778.577 63.648 778.492 63.8453 778.321 64.016C778.161 64.176 777.964 64.256 777.729 64.256ZM780.7 74V62.448L781.868 62.208V74H780.7ZM787.783 74.16C787.057 74.16 786.401 73.984 785.815 73.632C785.228 73.2693 784.764 72.784 784.423 72.176C784.081 71.5573 783.911 70.864 783.911 70.096C783.911 69.328 784.071 68.64 784.391 68.032C784.721 67.424 785.164 66.944 785.719 66.592C786.273 66.24 786.892 66.064 787.575 66.064C788.268 66.064 788.881 66.24 789.415 66.592C789.959 66.9333 790.385 67.4027 790.695 68C791.015 68.5867 791.175 69.2533 791.175 70V70.352H785.047C785.089 70.8853 785.233 71.3653 785.479 71.792C785.735 72.208 786.065 72.5387 786.471 72.784C786.887 73.0187 787.34 73.136 787.831 73.136C788.236 73.136 788.625 73.0667 788.999 72.928C789.383 72.7787 789.708 72.5813 789.975 72.336L790.711 73.12C790.263 73.472 789.799 73.7333 789.319 73.904C788.839 74.0747 788.327 74.16 787.783 74.16ZM785.079 69.52H790.023C789.969 69.0507 789.825 68.6347 789.591 68.272C789.367 67.8987 789.079 67.6053 788.727 67.392C788.385 67.1787 788.001 67.072 787.575 67.072C787.148 67.072 786.759 67.1787 786.407 67.392C786.055 67.5947 785.761 67.8827 785.527 68.256C785.303 68.6187 785.153 69.04 785.079 69.52Z" fill="#B9DAFC"/>
<path d="M709 80H792" stroke="#B9DAFC" stroke-linecap="square" stroke-dasharray="3 3"/>
<mask id="path-46-outside-5_10064_1681" maskUnits="userSpaceOnUse" x="697" y="51" width="242" height="34" fill="black">
<rect fill="white" x="697" y="51" width="242" height="34"/>
<path d="M699 56C699 54.3431 700.343 53 702 53H934C935.657 53 937 54.3431 937 56V80C937 81.6569 935.657 83 934 83H702C700.343 83 699 81.6569 699 80V56Z"/>
</mask>
<path d="M702 53V55H934V53V51H702V53ZM937 56H935V80H937H939V56H937ZM934 83V81H702V83V85H934V83ZM699 80H701V56H699H697V80H699ZM702 83V81C701.448 81 701 80.5523 701 80H699H697C697 82.7614 699.239 85 702 85V83ZM937 80H935C935 80.5523 934.552 81 934 81V83V85C936.761 85 939 82.7614 939 80H937ZM934 53V55C934.552 55 935 55.4477 935 56H937H939C939 53.2386 936.761 51 934 51V53ZM702 53V51C699.239 51 697 53.2386 697 56H699H701C701 55.4477 701.448 55 702 55V53Z" fill="#92C5F9" mask="url(#path-46-outside-5_10064_1681)"/>
<path d="M693 88H943V128H693V88Z" fill="#1F1F1F"/>
<path d="M714.696 114.176C713.779 114.176 712.979 113.979 712.296 113.584C711.624 113.179 711.107 112.608 710.744 111.872C710.381 111.136 710.2 110.267 710.2 109.264V102.8H711.432V109.264C711.432 110.032 711.565 110.699 711.832 111.264C712.099 111.829 712.477 112.272 712.968 112.592C713.459 112.901 714.035 113.056 714.696 113.056C715.357 113.056 715.933 112.901 716.424 112.592C716.915 112.272 717.293 111.829 717.56 111.264C717.827 110.699 717.96 110.032 717.96 109.264V102.8H719.192V109.264C719.192 110.267 719.011 111.136 718.648 111.872C718.285 112.608 717.768 113.179 717.096 113.584C716.424 113.979 715.624 114.176 714.696 114.176ZM721.591 117.344V106.192H722.743V107.312C723.041 106.917 723.404 106.619 723.831 106.416C724.268 106.203 724.748 106.096 725.271 106.096C725.953 106.096 726.561 106.277 727.095 106.64C727.639 106.992 728.071 107.472 728.391 108.08C728.711 108.677 728.871 109.349 728.871 110.096C728.871 110.843 728.705 111.52 728.375 112.128C728.055 112.736 727.617 113.221 727.063 113.584C726.519 113.936 725.9 114.112 725.207 114.112C724.716 114.112 724.263 114.021 723.847 113.84C723.431 113.648 723.068 113.376 722.759 113.024V117.344H721.591ZM724.983 113.104C725.505 113.104 725.969 112.976 726.375 112.72C726.791 112.453 727.116 112.096 727.351 111.648C727.596 111.189 727.719 110.677 727.719 110.112C727.719 109.536 727.596 109.024 727.351 108.576C727.116 108.128 726.791 107.776 726.375 107.52C725.969 107.253 725.505 107.12 724.983 107.12C724.524 107.12 724.097 107.216 723.703 107.408C723.319 107.589 723.004 107.851 722.759 108.192V112.016C723.015 112.357 723.335 112.624 723.719 112.816C724.113 113.008 724.535 113.104 724.983 113.104ZM734.167 114.112C733.495 114.112 732.887 113.936 732.343 113.584C731.799 113.221 731.367 112.741 731.047 112.144C730.727 111.536 730.567 110.859 730.567 110.112C730.567 109.355 730.727 108.677 731.047 108.08C731.377 107.472 731.82 106.992 732.375 106.64C732.929 106.277 733.548 106.096 734.231 106.096C734.711 106.096 735.159 106.192 735.575 106.384C735.991 106.565 736.353 106.832 736.663 107.184V102.448L737.831 102.208V114H736.663V112.96C736.364 113.333 736.001 113.621 735.575 113.824C735.148 114.016 734.679 114.112 734.167 114.112ZM734.455 113.088C734.913 113.088 735.335 112.997 735.719 112.816C736.103 112.635 736.417 112.379 736.663 112.048V108.176C736.407 107.845 736.081 107.589 735.687 107.408C735.303 107.216 734.892 107.12 734.455 107.12C733.932 107.12 733.463 107.248 733.047 107.504C732.641 107.76 732.316 108.112 732.071 108.56C731.836 109.008 731.719 109.52 731.719 110.096C731.719 110.661 731.836 111.173 732.071 111.632C732.316 112.08 732.641 112.437 733.047 112.704C733.463 112.96 733.932 113.088 734.455 113.088ZM742.647 114.144C742.093 114.144 741.602 114.043 741.175 113.84C740.749 113.637 740.413 113.36 740.167 113.008C739.933 112.645 739.815 112.229 739.815 111.76C739.815 111.291 739.938 110.885 740.183 110.544C740.429 110.192 740.77 109.92 741.207 109.728C741.645 109.536 742.157 109.44 742.743 109.44C743.191 109.44 743.613 109.488 744.007 109.584C744.413 109.68 744.786 109.835 745.127 110.048V108.976C745.127 108.336 744.957 107.856 744.615 107.536C744.274 107.205 743.773 107.04 743.111 107.04C742.749 107.04 742.375 107.093 741.991 107.2C741.618 107.307 741.202 107.477 740.743 107.712L740.311 106.816C741.357 106.315 742.338 106.064 743.255 106.064C744.226 106.064 744.973 106.304 745.495 106.784C746.018 107.253 746.279 107.931 746.279 108.816V114H745.127V113.088C744.786 113.44 744.407 113.707 743.991 113.888C743.575 114.059 743.127 114.144 742.647 114.144ZM740.935 111.728C740.935 112.187 741.111 112.555 741.463 112.832C741.826 113.109 742.301 113.248 742.887 113.248C743.325 113.248 743.725 113.173 744.087 113.024C744.461 112.875 744.807 112.651 745.127 112.352V110.848C744.797 110.656 744.455 110.517 744.103 110.432C743.751 110.336 743.357 110.288 742.919 110.288C742.322 110.288 741.842 110.421 741.479 110.688C741.117 110.944 740.935 111.291 740.935 111.728ZM751.395 114.16C750.723 114.16 750.211 114 749.859 113.68C749.517 113.349 749.347 112.875 749.347 112.256V107.152H747.731V106.192H749.347V104.048L750.515 103.776V106.192H752.755V107.152H750.515V111.952C750.515 112.368 750.6 112.667 750.771 112.848C750.952 113.029 751.245 113.12 751.651 113.12C751.853 113.12 752.035 113.104 752.195 113.072C752.355 113.04 752.541 112.987 752.755 112.912V113.952C752.541 114.027 752.317 114.08 752.083 114.112C751.848 114.144 751.619 114.16 751.395 114.16ZM757.829 114.16C757.104 114.16 756.448 113.984 755.861 113.632C755.275 113.269 754.811 112.784 754.469 112.176C754.128 111.557 753.957 110.864 753.957 110.096C753.957 109.328 754.117 108.64 754.437 108.032C754.768 107.424 755.211 106.944 755.765 106.592C756.32 106.24 756.939 106.064 757.621 106.064C758.315 106.064 758.928 106.24 759.461 106.592C760.005 106.933 760.432 107.403 760.741 108C761.061 108.587 761.221 109.253 761.221 110V110.352H755.093C755.136 110.885 755.28 111.365 755.525 111.792C755.781 112.208 756.112 112.539 756.517 112.784C756.933 113.019 757.387 113.136 757.877 113.136C758.283 113.136 758.672 113.067 759.045 112.928C759.429 112.779 759.755 112.581 760.021 112.336L760.757 113.12C760.309 113.472 759.845 113.733 759.365 113.904C758.885 114.075 758.373 114.16 757.829 114.16ZM755.125 109.52H760.069C760.016 109.051 759.872 108.635 759.637 108.272C759.413 107.899 759.125 107.605 758.773 107.392C758.432 107.179 758.048 107.072 757.621 107.072C757.195 107.072 756.805 107.179 756.453 107.392C756.101 107.595 755.808 107.883 755.573 108.256C755.349 108.619 755.2 109.04 755.125 109.52ZM766.95 117.344V106.192H768.102V107.312C768.401 106.917 768.763 106.619 769.19 106.416C769.627 106.203 770.107 106.096 770.63 106.096C771.313 106.096 771.921 106.277 772.454 106.64C772.998 106.992 773.43 107.472 773.75 108.08C774.07 108.677 774.23 109.349 774.23 110.096C774.23 110.843 774.065 111.52 773.734 112.128C773.414 112.736 772.977 113.221 772.422 113.584C771.878 113.936 771.259 114.112 770.566 114.112C770.075 114.112 769.622 114.021 769.206 113.84C768.79 113.648 768.427 113.376 768.118 113.024V117.344H766.95ZM770.342 113.104C770.865 113.104 771.329 112.976 771.734 112.72C772.15 112.453 772.475 112.096 772.71 111.648C772.955 111.189 773.078 110.677 773.078 110.112C773.078 109.536 772.955 109.024 772.71 108.576C772.475 108.128 772.15 107.776 771.734 107.52C771.329 107.253 770.865 107.12 770.342 107.12C769.883 107.12 769.457 107.216 769.062 107.408C768.678 107.589 768.363 107.851 768.118 108.192V112.016C768.374 112.357 768.694 112.624 769.078 112.816C769.473 113.008 769.894 113.104 770.342 113.104ZM776.278 114V106.192H777.446V107.792C777.649 107.248 777.937 106.827 778.31 106.528C778.694 106.219 779.131 106.064 779.622 106.064C779.761 106.064 779.889 106.075 780.006 106.096C780.123 106.107 780.241 106.133 780.358 106.176V107.232C780.23 107.189 780.091 107.157 779.942 107.136C779.803 107.104 779.67 107.088 779.542 107.088C779.062 107.088 778.641 107.227 778.278 107.504C777.926 107.781 777.649 108.171 777.446 108.672V114H776.278ZM784.939 114.16C784.213 114.16 783.557 113.984 782.971 113.632C782.384 113.269 781.92 112.784 781.579 112.176C781.237 111.557 781.067 110.864 781.067 110.096C781.067 109.328 781.227 108.64 781.547 108.032C781.877 107.424 782.32 106.944 782.875 106.592C783.429 106.24 784.048 106.064 784.731 106.064C785.424 106.064 786.037 106.24 786.571 106.592C787.115 106.933 787.541 107.403 787.851 108C788.171 108.587 788.331 109.253 788.331 110V110.352H782.203C782.245 110.885 782.389 111.365 782.635 111.792C782.891 112.208 783.221 112.539 783.627 112.784C784.043 113.019 784.496 113.136 784.987 113.136C785.392 113.136 785.781 113.067 786.155 112.928C786.539 112.779 786.864 112.581 787.131 112.336L787.867 113.12C787.419 113.472 786.955 113.733 786.475 113.904C785.995 114.075 785.483 114.16 784.939 114.16ZM782.235 109.52H787.179C787.125 109.051 786.981 108.635 786.747 108.272C786.523 107.899 786.235 107.605 785.883 107.392C785.541 107.179 785.157 107.072 784.731 107.072C784.304 107.072 783.915 107.179 783.563 107.392C783.211 107.595 782.917 107.883 782.683 108.256C782.459 108.619 782.309 109.04 782.235 109.52ZM791.083 114V107.152H789.339V106.192H791.083V104.56C791.083 103.792 791.285 103.2 791.691 102.784C792.096 102.368 792.672 102.16 793.419 102.16C793.632 102.16 793.824 102.171 793.995 102.192C794.176 102.213 794.336 102.251 794.475 102.304V103.36C794.304 103.307 794.149 103.269 794.011 103.248C793.872 103.227 793.712 103.216 793.531 103.216C793.083 103.216 792.757 103.328 792.555 103.552C792.352 103.765 792.251 104.107 792.251 104.576V106.192H794.475V107.152H792.251V114H791.083ZM799.204 114.16C798.479 114.16 797.823 113.984 797.236 113.632C796.65 113.269 796.186 112.784 795.844 112.176C795.503 111.557 795.332 110.864 795.332 110.096C795.332 109.328 795.492 108.64 795.812 108.032C796.143 107.424 796.586 106.944 797.14 106.592C797.695 106.24 798.314 106.064 798.996 106.064C799.69 106.064 800.303 106.24 800.836 106.592C801.38 106.933 801.807 107.403 802.116 108C802.436 108.587 802.596 109.253 802.596 110V110.352H796.468C796.511 110.885 796.655 111.365 796.9 111.792C797.156 112.208 797.487 112.539 797.892 112.784C798.308 113.019 798.762 113.136 799.252 113.136C799.658 113.136 800.047 113.067 800.42 112.928C800.804 112.779 801.13 112.581 801.396 112.336L802.132 113.12C801.684 113.472 801.22 113.733 800.74 113.904C800.26 114.075 799.748 114.16 799.204 114.16ZM796.5 109.52H801.444C801.391 109.051 801.247 108.635 801.012 108.272C800.788 107.899 800.5 107.605 800.148 107.392C799.807 107.179 799.423 107.072 798.996 107.072C798.57 107.072 798.18 107.179 797.828 107.392C797.476 107.595 797.183 107.883 796.948 108.256C796.724 108.619 796.575 109.04 796.5 109.52ZM804.591 114V106.192H805.759V107.792C805.961 107.248 806.249 106.827 806.623 106.528C807.007 106.219 807.444 106.064 807.935 106.064C808.073 106.064 808.201 106.075 808.319 106.096C808.436 106.107 808.553 106.133 808.671 106.176V107.232C808.543 107.189 808.404 107.157 808.255 107.136C808.116 107.104 807.983 107.088 807.855 107.088C807.375 107.088 806.953 107.227 806.591 107.504C806.239 107.781 805.961 108.171 805.759 108.672V114H804.591ZM813.251 114.16C812.526 114.16 811.87 113.984 811.283 113.632C810.697 113.269 810.233 112.784 809.891 112.176C809.55 111.557 809.379 110.864 809.379 110.096C809.379 109.328 809.539 108.64 809.859 108.032C810.19 107.424 810.633 106.944 811.187 106.592C811.742 106.24 812.361 106.064 813.043 106.064C813.737 106.064 814.35 106.24 814.883 106.592C815.427 106.933 815.854 107.403 816.163 108C816.483 108.587 816.643 109.253 816.643 110V110.352H810.515C810.558 110.885 810.702 111.365 810.947 111.792C811.203 112.208 811.534 112.539 811.939 112.784C812.355 113.019 812.809 113.136 813.299 113.136C813.705 113.136 814.094 113.067 814.467 112.928C814.851 112.779 815.177 112.581 815.443 112.336L816.179 113.12C815.731 113.472 815.267 113.733 814.787 113.904C814.307 114.075 813.795 114.16 813.251 114.16ZM810.547 109.52H815.491C815.438 109.051 815.294 108.635 815.059 108.272C814.835 107.899 814.547 107.605 814.195 107.392C813.854 107.179 813.47 107.072 813.043 107.072C812.617 107.072 812.227 107.179 811.875 107.392C811.523 107.595 811.23 107.883 810.995 108.256C810.771 108.619 810.622 109.04 810.547 109.52ZM818.638 114V106.192H819.806V107.456C820.104 106.987 820.462 106.64 820.878 106.416C821.294 106.181 821.763 106.064 822.286 106.064C822.851 106.064 823.342 106.187 823.758 106.432C824.184 106.667 824.515 107.003 824.75 107.44C824.995 107.867 825.118 108.368 825.118 108.944V114H823.95V109.28C823.95 108.587 823.758 108.043 823.374 107.648C823 107.243 822.494 107.04 821.854 107.04C821.427 107.04 821.038 107.141 820.686 107.344C820.334 107.547 820.04 107.845 819.806 108.24V114H818.638ZM830.97 114.128C830.244 114.128 829.588 113.952 829.002 113.6C828.426 113.237 827.967 112.752 827.626 112.144C827.284 111.525 827.114 110.843 827.114 110.096C827.114 109.339 827.284 108.656 827.626 108.048C827.967 107.44 828.426 106.96 829.002 106.608C829.588 106.245 830.244 106.064 830.97 106.064C831.546 106.064 832.095 106.171 832.618 106.384C833.14 106.597 833.594 106.896 833.978 107.28L833.226 108.096C832.948 107.787 832.612 107.547 832.218 107.376C831.823 107.205 831.423 107.12 831.018 107.12C830.506 107.12 830.042 107.253 829.626 107.52C829.22 107.787 828.895 108.144 828.65 108.592C828.404 109.04 828.282 109.541 828.282 110.096C828.282 110.651 828.404 111.152 828.65 111.6C828.895 112.048 829.22 112.405 829.626 112.672C830.042 112.939 830.506 113.072 831.018 113.072C831.423 113.072 831.823 112.987 832.218 112.816C832.612 112.635 832.948 112.395 833.226 112.096L833.978 112.912C833.594 113.296 833.14 113.595 832.618 113.808C832.095 114.021 831.546 114.128 830.97 114.128ZM838.892 114.16C838.167 114.16 837.511 113.984 836.924 113.632C836.337 113.269 835.873 112.784 835.532 112.176C835.191 111.557 835.02 110.864 835.02 110.096C835.02 109.328 835.18 108.64 835.5 108.032C835.831 107.424 836.273 106.944 836.828 106.592C837.383 106.24 838.001 106.064 838.684 106.064C839.377 106.064 839.991 106.24 840.524 106.592C841.068 106.933 841.495 107.403 841.804 108C842.124 108.587 842.284 109.253 842.284 110V110.352H836.156C836.199 110.885 836.343 111.365 836.588 111.792C836.844 112.208 837.175 112.539 837.58 112.784C837.996 113.019 838.449 113.136 838.94 113.136C839.345 113.136 839.735 113.067 840.108 112.928C840.492 112.779 840.817 112.581 841.084 112.336L841.82 113.12C841.372 113.472 840.908 113.733 840.428 113.904C839.948 114.075 839.436 114.16 838.892 114.16ZM836.188 109.52H841.132C841.079 109.051 840.935 108.635 840.7 108.272C840.476 107.899 840.188 107.605 839.836 107.392C839.495 107.179 839.111 107.072 838.684 107.072C838.257 107.072 837.868 107.179 837.516 107.392C837.164 107.595 836.871 107.883 836.636 108.256C836.412 108.619 836.263 109.04 836.188 109.52ZM846.772 114.16C846.132 114.16 845.54 114.064 844.996 113.872C844.452 113.669 843.988 113.381 843.604 113.008L844.228 112.24C844.698 112.581 845.13 112.832 845.524 112.992C845.919 113.141 846.324 113.216 846.74 113.216C847.306 113.216 847.775 113.083 848.148 112.816C848.522 112.549 848.708 112.208 848.708 111.792C848.708 111.472 848.596 111.221 848.372 111.04C848.159 110.859 847.802 110.72 847.3 110.624L846.02 110.4C845.263 110.261 844.703 110.027 844.34 109.696C843.988 109.365 843.812 108.917 843.812 108.352C843.812 107.904 843.93 107.509 844.164 107.168C844.41 106.827 844.746 106.56 845.172 106.368C845.599 106.165 846.084 106.064 846.628 106.064C847.162 106.064 847.668 106.144 848.148 106.304C848.628 106.453 849.114 106.699 849.604 107.04L849.028 107.856C848.623 107.568 848.218 107.36 847.812 107.232C847.407 107.093 846.996 107.024 846.58 107.024C846.068 107.024 845.658 107.136 845.348 107.36C845.039 107.584 844.884 107.888 844.884 108.272C844.884 108.592 844.98 108.837 845.172 109.008C845.375 109.179 845.727 109.307 846.228 109.392L847.54 109.632C848.33 109.771 848.906 110.011 849.268 110.352C849.631 110.693 849.812 111.152 849.812 111.728C849.812 112.187 849.679 112.603 849.412 112.976C849.146 113.339 848.783 113.627 848.324 113.84C847.866 114.053 847.348 114.16 846.772 114.16Z" fill="#B9DAFC"/>
<path d="M709 120H851" stroke="#B9DAFC" stroke-linecap="square" stroke-dasharray="3 3"/>
<path d="M715.56 154.176C714.76 154.176 714.019 154.027 713.336 153.728C712.653 153.429 712.051 153.019 711.528 152.496C711.016 151.963 710.616 151.349 710.328 150.656C710.04 149.952 709.896 149.2 709.896 148.4C709.896 147.6 710.04 146.853 710.328 146.16C710.616 145.456 711.016 144.843 711.528 144.32C712.051 143.787 712.653 143.371 713.336 143.072C714.019 142.773 714.76 142.624 715.56 142.624C716.413 142.624 717.219 142.779 717.976 143.088C718.744 143.397 719.395 143.856 719.928 144.464L719.096 145.296C718.68 144.795 718.157 144.411 717.528 144.144C716.899 143.877 716.243 143.744 715.56 143.744C714.931 143.744 714.349 143.867 713.816 144.112C713.283 144.347 712.813 144.677 712.408 145.104C712.013 145.52 711.704 146.011 711.48 146.576C711.256 147.141 711.144 147.749 711.144 148.4C711.144 149.051 711.256 149.659 711.48 150.224C711.704 150.789 712.013 151.285 712.408 151.712C712.813 152.128 713.283 152.459 713.816 152.704C714.349 152.939 714.931 153.056 715.56 153.056C716.307 153.056 716.973 152.891 717.56 152.56C718.157 152.229 718.637 151.776 719 151.2C719.373 150.613 719.592 149.957 719.656 149.232H715.88V148.144H720.904V148.64C720.904 149.419 720.771 150.144 720.504 150.816C720.237 151.477 719.859 152.064 719.368 152.576C718.888 153.077 718.323 153.472 717.672 153.76C717.021 154.037 716.317 154.176 715.56 154.176ZM726.437 154.128C725.712 154.128 725.061 153.952 724.485 153.6C723.909 153.248 723.456 152.768 723.125 152.16C722.795 151.552 722.629 150.864 722.629 150.096C722.629 149.328 722.795 148.64 723.125 148.032C723.456 147.424 723.909 146.944 724.485 146.592C725.061 146.24 725.712 146.064 726.437 146.064C727.152 146.064 727.792 146.24 728.357 146.592C728.933 146.944 729.387 147.424 729.717 148.032C730.048 148.64 730.213 149.328 730.213 150.096C730.213 150.864 730.048 151.552 729.717 152.16C729.387 152.768 728.933 153.248 728.357 153.6C727.792 153.952 727.152 154.128 726.437 154.128ZM726.421 153.104C726.933 153.104 727.387 152.976 727.781 152.72C728.176 152.453 728.485 152.091 728.709 151.632C728.944 151.173 729.061 150.661 729.061 150.096C729.061 149.52 728.944 149.008 728.709 148.56C728.485 148.101 728.176 147.744 727.781 147.488C727.387 147.221 726.933 147.088 726.421 147.088C725.909 147.088 725.456 147.221 725.061 147.488C724.667 147.744 724.352 148.101 724.117 148.56C723.893 149.008 723.781 149.52 723.781 150.096C723.781 150.661 723.893 151.173 724.117 151.632C724.352 152.091 724.667 152.453 725.061 152.72C725.456 152.976 725.909 153.104 726.421 153.104ZM738.973 154.16C738.301 154.16 737.789 154 737.437 153.68C737.096 153.349 736.925 152.875 736.925 152.256V147.152H735.309V146.192H736.925V144.048L738.093 143.776V146.192H740.333V147.152H738.093V151.952C738.093 152.368 738.178 152.667 738.349 152.848C738.53 153.029 738.824 153.12 739.229 153.12C739.432 153.12 739.613 153.104 739.773 153.072C739.933 153.04 740.12 152.987 740.333 152.912V153.952C740.12 154.027 739.896 154.08 739.661 154.112C739.426 154.144 739.197 154.16 738.973 154.16ZM745.344 154.128C744.618 154.128 743.968 153.952 743.392 153.6C742.816 153.248 742.362 152.768 742.032 152.16C741.701 151.552 741.536 150.864 741.536 150.096C741.536 149.328 741.701 148.64 742.032 148.032C742.362 147.424 742.816 146.944 743.392 146.592C743.968 146.24 744.618 146.064 745.344 146.064C746.058 146.064 746.698 146.24 747.264 146.592C747.84 146.944 748.293 147.424 748.624 148.032C748.954 148.64 749.12 149.328 749.12 150.096C749.12 150.864 748.954 151.552 748.624 152.16C748.293 152.768 747.84 153.248 747.264 153.6C746.698 153.952 746.058 154.128 745.344 154.128ZM745.328 153.104C745.84 153.104 746.293 152.976 746.688 152.72C747.082 152.453 747.392 152.091 747.616 151.632C747.85 151.173 747.968 150.661 747.968 150.096C747.968 149.52 747.85 149.008 747.616 148.56C747.392 148.101 747.082 147.744 746.688 147.488C746.293 147.221 745.84 147.088 745.328 147.088C744.816 147.088 744.362 147.221 743.968 147.488C743.573 147.744 743.258 148.101 743.024 148.56C742.8 149.008 742.688 149.52 742.688 150.096C742.688 150.661 742.8 151.173 743.024 151.632C743.258 152.091 743.573 152.453 743.968 152.72C744.362 152.976 744.816 153.104 745.328 153.104ZM758.359 154.128C757.634 154.128 756.983 153.952 756.407 153.6C755.831 153.248 755.378 152.768 755.047 152.16C754.716 151.552 754.551 150.864 754.551 150.096C754.551 149.328 754.716 148.64 755.047 148.032C755.378 147.424 755.831 146.944 756.407 146.592C756.983 146.24 757.634 146.064 758.359 146.064C759.074 146.064 759.714 146.24 760.279 146.592C760.855 146.944 761.308 147.424 761.639 148.032C761.97 148.64 762.135 149.328 762.135 150.096C762.135 150.864 761.97 151.552 761.639 152.16C761.308 152.768 760.855 153.248 760.279 153.6C759.714 153.952 759.074 154.128 758.359 154.128ZM758.343 153.104C758.855 153.104 759.308 152.976 759.703 152.72C760.098 152.453 760.407 152.091 760.631 151.632C760.866 151.173 760.983 150.661 760.983 150.096C760.983 149.52 760.866 149.008 760.631 148.56C760.407 148.101 760.098 147.744 759.703 147.488C759.308 147.221 758.855 147.088 758.343 147.088C757.831 147.088 757.378 147.221 756.983 147.488C756.588 147.744 756.274 148.101 756.039 148.56C755.815 149.008 755.703 149.52 755.703 150.096C755.703 150.661 755.815 151.173 756.039 151.632C756.274 152.091 756.588 152.453 756.983 152.72C757.378 152.976 757.831 153.104 758.343 153.104ZM764.184 154V146.192H765.352V147.792C765.555 147.248 765.843 146.827 766.216 146.528C766.6 146.219 767.038 146.064 767.528 146.064C767.667 146.064 767.795 146.075 767.912 146.096C768.03 146.107 768.147 146.133 768.264 146.176V147.232C768.136 147.189 767.998 147.157 767.848 147.136C767.71 147.104 767.576 147.088 767.448 147.088C766.968 147.088 766.547 147.227 766.184 147.504C765.832 147.781 765.555 148.171 765.352 148.672V154H764.184ZM772.941 157.504C772.418 157.504 771.89 157.429 771.357 157.28C770.834 157.141 770.349 156.944 769.901 156.688L770.397 155.792C770.877 156.037 771.314 156.219 771.709 156.336C772.104 156.453 772.498 156.512 772.893 156.512C773.608 156.512 774.146 156.341 774.509 156C774.882 155.659 775.069 155.163 775.069 154.512V152.944C774.77 153.317 774.408 153.605 773.981 153.808C773.554 154 773.085 154.096 772.573 154.096C771.901 154.096 771.293 153.92 770.749 153.568C770.205 153.205 769.773 152.725 769.453 152.128C769.133 151.52 768.973 150.843 768.973 150.096C768.973 149.349 769.133 148.677 769.453 148.08C769.784 147.472 770.226 146.992 770.781 146.64C771.336 146.277 771.954 146.096 772.637 146.096C773.128 146.096 773.581 146.192 773.997 146.384C774.413 146.565 774.776 146.837 775.085 147.2V146.192H776.237V154.496C776.237 155.467 775.954 156.208 775.389 156.72C774.824 157.243 774.008 157.504 772.941 157.504ZM772.861 153.088C773.32 153.088 773.741 152.997 774.125 152.816C774.509 152.624 774.824 152.363 775.069 152.032V148.176C774.813 147.845 774.488 147.589 774.093 147.408C773.709 147.216 773.298 147.12 772.861 147.12C772.338 147.12 771.869 147.248 771.453 147.504C771.048 147.76 770.722 148.112 770.477 148.56C770.242 149.008 770.125 149.52 770.125 150.096C770.125 150.661 770.242 151.173 770.477 151.632C770.722 152.08 771.048 152.437 771.453 152.704C771.869 152.96 772.338 153.088 772.861 153.088ZM781.054 154.144C780.499 154.144 780.008 154.043 779.582 153.84C779.155 153.637 778.819 153.36 778.574 153.008C778.339 152.645 778.222 152.229 778.222 151.76C778.222 151.291 778.344 150.885 778.59 150.544C778.835 150.192 779.176 149.92 779.614 149.728C780.051 149.536 780.563 149.44 781.15 149.44C781.598 149.44 782.019 149.488 782.414 149.584C782.819 149.68 783.192 149.835 783.534 150.048V148.976C783.534 148.336 783.363 147.856 783.022 147.536C782.68 147.205 782.179 147.04 781.518 147.04C781.155 147.04 780.782 147.093 780.398 147.2C780.024 147.307 779.608 147.477 779.15 147.712L778.718 146.816C779.763 146.315 780.744 146.064 781.661 146.064C782.632 146.064 783.379 146.304 783.902 146.784C784.424 147.253 784.686 147.931 784.686 148.816V154H783.534V153.088C783.192 153.44 782.814 153.707 782.398 153.888C781.982 154.059 781.534 154.144 781.054 154.144ZM779.342 151.728C779.342 152.187 779.518 152.555 779.87 152.832C780.232 153.109 780.707 153.248 781.294 153.248C781.731 153.248 782.131 153.173 782.494 153.024C782.867 152.875 783.214 152.651 783.534 152.352V150.848C783.203 150.656 782.862 150.517 782.51 150.432C782.158 150.336 781.763 150.288 781.326 150.288C780.728 150.288 780.248 150.421 779.886 150.688C779.523 150.944 779.342 151.291 779.342 151.728ZM787.059 154V146.192H788.227V147.456C788.526 146.987 788.883 146.64 789.299 146.416C789.715 146.181 790.185 146.064 790.707 146.064C791.273 146.064 791.763 146.187 792.179 146.432C792.606 146.667 792.937 147.003 793.171 147.44C793.417 147.867 793.539 148.368 793.539 148.944V154H792.371V149.28C792.371 148.587 792.179 148.043 791.795 147.648C791.422 147.243 790.915 147.04 790.275 147.04C789.849 147.04 789.459 147.141 789.107 147.344C788.755 147.547 788.462 147.845 788.227 148.24V154H787.059ZM795.872 154V146.192H797.039V154H795.872ZM796.464 144.256C796.229 144.256 796.026 144.176 795.856 144.016C795.696 143.845 795.616 143.648 795.616 143.424C795.616 143.2 795.696 143.008 795.856 142.848C796.026 142.677 796.229 142.592 796.464 142.592C796.698 142.592 796.896 142.677 797.056 142.848C797.226 143.008 797.312 143.2 797.312 143.424C797.312 143.648 797.226 143.845 797.056 144.016C796.896 144.176 796.698 144.256 796.464 144.256ZM798.89 154V153.072L803.386 147.248L798.938 147.264V146.192H804.81V147.104L800.298 152.96L804.874 152.944V154H798.89ZM809.194 154.144C808.639 154.144 808.149 154.043 807.722 153.84C807.295 153.637 806.959 153.36 806.714 153.008C806.479 152.645 806.362 152.229 806.362 151.76C806.362 151.291 806.485 150.885 806.73 150.544C806.975 150.192 807.317 149.92 807.754 149.728C808.191 149.536 808.703 149.44 809.29 149.44C809.738 149.44 810.159 149.488 810.554 149.584C810.959 149.68 811.333 149.835 811.674 150.048V148.976C811.674 148.336 811.503 147.856 811.162 147.536C810.821 147.205 810.319 147.04 809.658 147.04C809.295 147.04 808.922 147.093 808.538 147.2C808.165 147.307 807.749 147.477 807.29 147.712L806.858 146.816C807.903 146.315 808.885 146.064 809.802 146.064C810.773 146.064 811.519 146.304 812.042 146.784C812.565 147.253 812.826 147.931 812.826 148.816V154H811.674V153.088C811.333 153.44 810.954 153.707 810.538 153.888C810.122 154.059 809.674 154.144 809.194 154.144ZM807.482 151.728C807.482 152.187 807.658 152.555 808.01 152.832C808.373 153.109 808.847 153.248 809.434 153.248C809.871 153.248 810.271 153.173 810.634 153.024C811.007 152.875 811.354 152.651 811.674 152.352V150.848C811.343 150.656 811.002 150.517 810.65 150.432C810.298 150.336 809.903 150.288 809.466 150.288C808.869 150.288 808.389 150.421 808.026 150.688C807.663 150.944 807.482 151.291 807.482 151.728ZM817.942 154.16C817.27 154.16 816.758 154 816.406 153.68C816.064 153.349 815.894 152.875 815.894 152.256V147.152H814.278V146.192H815.894V144.048L817.062 143.776V146.192H819.302V147.152H817.062V151.952C817.062 152.368 817.147 152.667 817.318 152.848C817.499 153.029 817.792 153.12 818.198 153.12C818.4 153.12 818.582 153.104 818.742 153.072C818.902 153.04 819.088 152.987 819.302 152.912V153.952C819.088 154.027 818.864 154.08 818.63 154.112C818.395 154.144 818.166 154.16 817.942 154.16ZM820.997 154V146.192H822.164V154H820.997ZM821.589 144.256C821.354 144.256 821.151 144.176 820.981 144.016C820.821 143.845 820.741 143.648 820.741 143.424C820.741 143.2 820.821 143.008 820.981 142.848C821.151 142.677 821.354 142.592 821.589 142.592C821.823 142.592 822.021 142.677 822.181 142.848C822.351 143.008 822.437 143.2 822.437 143.424C822.437 143.648 822.351 143.845 822.181 144.016C822.021 144.176 821.823 144.256 821.589 144.256ZM828.015 154.128C827.29 154.128 826.639 153.952 826.063 153.6C825.487 153.248 825.034 152.768 824.703 152.16C824.373 151.552 824.207 150.864 824.207 150.096C824.207 149.328 824.373 148.64 824.703 148.032C825.034 147.424 825.487 146.944 826.063 146.592C826.639 146.24 827.29 146.064 828.015 146.064C828.73 146.064 829.37 146.24 829.935 146.592C830.511 146.944 830.965 147.424 831.295 148.032C831.626 148.64 831.791 149.328 831.791 150.096C831.791 150.864 831.626 151.552 831.295 152.16C830.965 152.768 830.511 153.248 829.935 153.6C829.37 153.952 828.73 154.128 828.015 154.128ZM827.999 153.104C828.511 153.104 828.965 152.976 829.359 152.72C829.754 152.453 830.063 152.091 830.287 151.632C830.522 151.173 830.639 150.661 830.639 150.096C830.639 149.52 830.522 149.008 830.287 148.56C830.063 148.101 829.754 147.744 829.359 147.488C828.965 147.221 828.511 147.088 827.999 147.088C827.487 147.088 827.034 147.221 826.639 147.488C826.245 147.744 825.93 148.101 825.695 148.56C825.471 149.008 825.359 149.52 825.359 150.096C825.359 150.661 825.471 151.173 825.695 151.632C825.93 152.091 826.245 152.453 826.639 152.72C827.034 152.976 827.487 153.104 827.999 153.104ZM833.841 154V146.192H835.009V147.456C835.307 146.987 835.665 146.64 836.081 146.416C836.497 146.181 836.966 146.064 837.489 146.064C838.054 146.064 838.545 146.187 838.961 146.432C839.387 146.667 839.718 147.003 839.953 147.44C840.198 147.867 840.321 148.368 840.321 148.944V154H839.153V149.28C839.153 148.587 838.961 148.043 838.577 147.648C838.203 147.243 837.697 147.04 837.057 147.04C836.63 147.04 836.241 147.141 835.889 147.344C835.537 147.547 835.243 147.845 835.009 148.24V154H833.841ZM848.819 154.144C848.264 154.144 847.774 154.043 847.347 153.84C846.92 153.637 846.584 153.36 846.339 153.008C846.104 152.645 845.987 152.229 845.987 151.76C845.987 151.291 846.11 150.885 846.355 150.544C846.6 150.192 846.942 149.92 847.379 149.728C847.816 149.536 848.328 149.44 848.915 149.44C849.363 149.44 849.784 149.488 850.179 149.584C850.584 149.68 850.958 149.835 851.299 150.048V148.976C851.299 148.336 851.128 147.856 850.787 147.536C850.446 147.205 849.944 147.04 849.283 147.04C848.92 147.04 848.547 147.093 848.163 147.2C847.79 147.307 847.374 147.477 846.915 147.712L846.483 146.816C847.528 146.315 848.51 146.064 849.427 146.064C850.398 146.064 851.144 146.304 851.667 146.784C852.19 147.253 852.451 147.931 852.451 148.816V154H851.299V153.088C850.958 153.44 850.579 153.707 850.163 153.888C849.747 154.059 849.299 154.144 848.819 154.144ZM847.107 151.728C847.107 152.187 847.283 152.555 847.635 152.832C847.998 153.109 848.472 153.248 849.059 153.248C849.496 153.248 849.896 153.173 850.259 153.024C850.632 152.875 850.979 152.651 851.299 152.352V150.848C850.968 150.656 850.627 150.517 850.275 150.432C849.923 150.336 849.528 150.288 849.091 150.288C848.494 150.288 848.014 150.421 847.651 150.688C847.288 150.944 847.107 151.291 847.107 151.728ZM858.329 154.128C857.604 154.128 856.948 153.952 856.361 153.6C855.785 153.237 855.326 152.752 854.985 152.144C854.644 151.525 854.473 150.843 854.473 150.096C854.473 149.339 854.644 148.656 854.985 148.048C855.326 147.44 855.785 146.96 856.361 146.608C856.948 146.245 857.604 146.064 858.329 146.064C858.905 146.064 859.454 146.171 859.977 146.384C860.5 146.597 860.953 146.896 861.337 147.28L860.585 148.096C860.308 147.787 859.972 147.547 859.577 147.376C859.182 147.205 858.782 147.12 858.377 147.12C857.865 147.12 857.401 147.253 856.985 147.52C856.58 147.787 856.254 148.144 856.009 148.592C855.764 149.04 855.641 149.541 855.641 150.096C855.641 150.651 855.764 151.152 856.009 151.6C856.254 152.048 856.58 152.405 856.985 152.672C857.401 152.939 857.865 153.072 858.377 153.072C858.782 153.072 859.182 152.987 859.577 152.816C859.972 152.635 860.308 152.395 860.585 152.096L861.337 152.912C860.953 153.296 860.5 153.595 859.977 153.808C859.454 154.021 858.905 154.128 858.329 154.128ZM866.235 154.128C865.51 154.128 864.854 153.952 864.267 153.6C863.691 153.237 863.233 152.752 862.891 152.144C862.55 151.525 862.379 150.843 862.379 150.096C862.379 149.339 862.55 148.656 862.891 148.048C863.233 147.44 863.691 146.96 864.267 146.608C864.854 146.245 865.51 146.064 866.235 146.064C866.811 146.064 867.361 146.171 867.883 146.384C868.406 146.597 868.859 146.896 869.243 147.28L868.491 148.096C868.214 147.787 867.878 147.547 867.483 147.376C867.089 147.205 866.689 147.12 866.283 147.12C865.771 147.12 865.307 147.253 864.891 147.52C864.486 147.787 864.161 148.144 863.915 148.592C863.67 149.04 863.547 149.541 863.547 150.096C863.547 150.651 863.67 151.152 863.915 151.6C864.161 152.048 864.486 152.405 864.891 152.672C865.307 152.939 865.771 153.072 866.283 153.072C866.689 153.072 867.089 152.987 867.483 152.816C867.878 152.635 868.214 152.395 868.491 152.096L869.243 152.912C868.859 153.296 868.406 153.595 867.883 153.808C867.361 154.021 866.811 154.128 866.235 154.128ZM874.094 154.128C873.368 154.128 872.718 153.952 872.142 153.6C871.566 153.248 871.112 152.768 870.782 152.16C870.451 151.552 870.286 150.864 870.286 150.096C870.286 149.328 870.451 148.64 870.782 148.032C871.112 147.424 871.566 146.944 872.142 146.592C872.718 146.24 873.368 146.064 874.094 146.064C874.808 146.064 875.448 146.24 876.014 146.592C876.59 146.944 877.043 147.424 877.374 148.032C877.704 148.64 877.87 149.328 877.87 150.096C877.87 150.864 877.704 151.552 877.374 152.16C877.043 152.768 876.59 153.248 876.014 153.6C875.448 153.952 874.808 154.128 874.094 154.128ZM874.078 153.104C874.59 153.104 875.043 152.976 875.438 152.72C875.832 152.453 876.142 152.091 876.366 151.632C876.6 151.173 876.718 150.661 876.718 150.096C876.718 149.52 876.6 149.008 876.366 148.56C876.142 148.101 875.832 147.744 875.438 147.488C875.043 147.221 874.59 147.088 874.078 147.088C873.566 147.088 873.112 147.221 872.718 147.488C872.323 147.744 872.008 148.101 871.774 148.56C871.55 149.008 871.438 149.52 871.438 150.096C871.438 150.661 871.55 151.173 871.774 151.632C872.008 152.091 872.323 152.453 872.718 152.72C873.112 152.976 873.566 153.104 874.078 153.104ZM882.703 154.128C882.148 154.128 881.657 154.005 881.231 153.76C880.804 153.515 880.468 153.173 880.223 152.736C879.988 152.299 879.871 151.797 879.871 151.232V146.192H881.055V150.896C881.055 151.589 881.241 152.139 881.615 152.544C881.988 152.949 882.495 153.152 883.135 153.152C883.572 153.152 883.961 153.051 884.303 152.848C884.655 152.645 884.948 152.352 885.183 151.968V146.192H886.351V154H885.183V152.736C884.884 153.195 884.527 153.541 884.111 153.776C883.705 154.011 883.236 154.128 882.703 154.128ZM888.747 154V146.192H889.915V147.456C890.214 146.987 890.571 146.64 890.987 146.416C891.403 146.181 891.872 146.064 892.395 146.064C892.96 146.064 893.451 146.187 893.867 146.432C894.294 146.667 894.624 147.003 894.859 147.44C895.104 147.867 895.227 148.368 895.227 148.944V154H894.059V149.28C894.059 148.587 893.867 148.043 893.483 147.648C893.11 147.243 892.603 147.04 891.963 147.04C891.536 147.04 891.147 147.141 890.795 147.344C890.443 147.547 890.15 147.845 889.915 148.24V154H888.747ZM900.317 154.16C899.645 154.16 899.133 154 898.781 153.68C898.439 153.349 898.269 152.875 898.269 152.256V147.152H896.653V146.192H898.269V144.048L899.437 143.776V146.192H901.677V147.152H899.437V151.952C899.437 152.368 899.522 152.667 899.693 152.848C899.874 153.029 900.167 153.12 900.573 153.12C900.775 153.12 900.957 153.104 901.117 153.072C901.277 153.04 901.463 152.987 901.677 152.912V153.952C901.463 154.027 901.239 154.08 901.005 154.112C900.77 154.144 900.541 154.16 900.317 154.16Z" fill="#92C5F9"/>
<path d="M709 160H903" stroke="#A3A3A3" stroke-linecap="square" stroke-dasharray="3 3"/>
<path d="M926 150.5V154.25C926 154.664 925.664 155 925.25 155H912.75C912.336 155 912 154.664 912 154.25V141.75C912 141.336 912.336 141 912.75 141H916.5C916.776 141 917 141.224 917 141.5C917 141.776 916.776 142 916.5 142H913V154H925V150.5C925 150.224 925.224 150 925.5 150C925.776 150 926 150.224 926 150.5ZM925.25 141H920C919.724 141 919.5 141.224 919.5 141.5C919.5 141.776 919.724 142 920 142H924.293L917.646 148.646C917.451 148.842 917.451 149.158 917.646 149.354C917.744 149.451 917.872 149.5 918 149.5C918.128 149.5 918.256 149.451 918.353 149.354L925 142.707V147C925 147.276 925.224 147.5 925.5 147.5C925.776 147.5 926 147.276 926 147V141.75C926 141.336 925.664 141 925.25 141Z" fill="#4D4D4D"/>
</g>
<path d="M696 40.5H940C941.381 40.5 942.5 41.6193 942.5 43V173C942.5 174.381 941.381 175.5 940 175.5H696C694.619 175.5 693.5 174.381 693.5 173V43C693.5 41.6193 694.619 40.5 696 40.5Z" stroke="#707070"/>
</g>
<g filter="url(#filter7_d_10064_1681)">
<path d="M796 36.5V19.5L808 31.5H801L796 36.5Z" fill="#151515"/>
<path d="M809.207 32H801.207L795.5 37.707V18.293L809.207 32Z" stroke="white"/>
</g>
<g filter="url(#filter8_d_10064_1681)">
<path d="M856 125V108L868 120H861L856 125Z" fill="#151515"/>
<path d="M869.207 120.5H861.207L855.5 126.207V106.793L869.207 120.5Z" stroke="white"/>
</g>
<defs>
<filter id="filter0_d_10064_1681" x="48" y="13.0859" width="23.4143" height="29.8281" filterUnits="userSpaceOnUse" color-interpolation-filters="sRGB">
<feFlood flood-opacity="0" result="BackgroundImageFix"/>
<feColorMatrix in="SourceAlpha" type="matrix" values="0 0 0 0 0 0 0 0 0 0 0 0 0 0 0 0 0 0 127 0" result="hardAlpha"/>
<feOffset dy="2"/>
<feGaussianBlur stdDeviation="2"/>
<feComposite in2="hardAlpha" operator="out"/>
<feColorMatrix type="matrix" values="0 0 0 0 0.0823529 0 0 0 0 0.0823529 0 0 0 0 0.0823529 0 0 0 0.2 0"/>
<feBlend mode="normal" in2="BackgroundImageFix" result="effect1_dropShadow_10064_1681"/>
<feBlend mode="normal" in="SourceGraphic" in2="effect1_dropShadow_10064_1681" result="shape"/>
</filter>
<filter id="filter1_d_10064_1681" x="219" y="13.5342" width="23.4143" height="29.8281" filterUnits="userSpaceOnUse" color-interpolation-filters="sRGB">
<feFlood flood-opacity="0" result="BackgroundImageFix"/>
<feColorMatrix in="SourceAlpha" type="matrix" values="0 0 0 0 0 0 0 0 0 0 0 0 0 0 0 0 0 0 127 0" result="hardAlpha"/>
<feOffset dy="2"/>
<feGaussianBlur stdDeviation="2"/>
<feComposite in2="hardAlpha" operator="out"/>
<feColorMatrix type="matrix" values="0 0 0 0 0.0823529 0 0 0 0 0.0823529 0 0 0 0 0.0823529 0 0 0 0.2 0"/>
<feBlend mode="normal" in2="BackgroundImageFix" result="effect1_dropShadow_10064_1681"/>
<feBlend mode="normal" in="SourceGraphic" in2="effect1_dropShadow_10064_1681" result="shape"/>
</filter>
<filter id="filter2_d_10064_1681" x="353" y="13.0859" width="23.4143" height="29.8281" filterUnits="userSpaceOnUse" color-interpolation-filters="sRGB">
<feFlood flood-opacity="0" result="BackgroundImageFix"/>
<feColorMatrix in="SourceAlpha" type="matrix" values="0 0 0 0 0 0 0 0 0 0 0 0 0 0 0 0 0 0 127 0" result="hardAlpha"/>
<feOffset dy="2"/>
<feGaussianBlur stdDeviation="2"/>
<feComposite in2="hardAlpha" operator="out"/>
<feColorMatrix type="matrix" values="0 0 0 0 0.0823529 0 0 0 0 0.0823529 0 0 0 0 0.0823529 0 0 0 0.2 0"/>
<feBlend mode="normal" in2="BackgroundImageFix" result="effect1_dropShadow_10064_1681"/>
<feBlend mode="normal" in="SourceGraphic" in2="effect1_dropShadow_10064_1681" result="shape"/>
</filter>
<filter id="filter3_d_10064_1681" x="459" y="37" width="145" height="246" filterUnits="userSpaceOnUse" color-interpolation-filters="sRGB">
<feFlood flood-opacity="0" result="BackgroundImageFix"/>
<feColorMatrix in="SourceAlpha" type="matrix" values="0 0 0 0 0 0 0 0 0 0 0 0 0 0 0 0 0 0 127 0" result="hardAlpha"/>
<feMorphology radius="1" operator="dilate" in="SourceAlpha" result="effect1_dropShadow_10064_1681"/>
<feOffset dy="4"/>
<feGaussianBlur stdDeviation="3"/>
<feComposite in2="hardAlpha" operator="out"/>
<feColorMatrix type="matrix" values="0 0 0 0 0.0823529 0 0 0 0 0.0823529 0 0 0 0 0.0823529 0 0 0 0.25 0"/>
<feBlend mode="normal" in2="BackgroundImageFix" result="effect1_dropShadow_10064_1681"/>
<feBlend mode="normal" in="SourceGraphic" in2="effect1_dropShadow_10064_1681" result="shape"/>
</filter>
<filter id="filter4_d_10064_1681" x="538" y="15.0859" width="23.4143" height="29.8281" filterUnits="userSpaceOnUse" color-interpolation-filters="sRGB">
<feFlood flood-opacity="0" result="BackgroundImageFix"/>
<feColorMatrix in="SourceAlpha" type="matrix" values="0 0 0 0 0 0 0 0 0 0 0 0 0 0 0 0 0 0 127 0" result="hardAlpha"/>
<feOffset dy="2"/>
<feGaussianBlur stdDeviation="2"/>
<feComposite in2="hardAlpha" operator="out"/>
<feColorMatrix type="matrix" values="0 0 0 0 0.0823529 0 0 0 0 0.0823529 0 0 0 0 0.0823529 0 0 0 0.2 0"/>
<feBlend mode="normal" in2="BackgroundImageFix" result="effect1_dropShadow_10064_1681"/>
<feBlend mode="normal" in="SourceGraphic" in2="effect1_dropShadow_10064_1681" result="shape"/>
</filter>
<filter id="filter5_d_10064_1681" x="538" y="103.586" width="23.4143" height="29.8281" filterUnits="userSpaceOnUse" color-interpolation-filters="sRGB">
<feFlood flood-opacity="0" result="BackgroundImageFix"/>
<feColorMatrix in="SourceAlpha" type="matrix" values="0 0 0 0 0 0 0 0 0 0 0 0 0 0 0 0 0 0 127 0" result="hardAlpha"/>
<feOffset dy="2"/>
<feGaussianBlur stdDeviation="2"/>
<feComposite in2="hardAlpha" operator="out"/>
<feColorMatrix type="matrix" values="0 0 0 0 0.0823529 0 0 0 0 0.0823529 0 0 0 0 0.0823529 0 0 0 0.2 0"/>
<feBlend mode="normal" in2="BackgroundImageFix" result="effect1_dropShadow_10064_1681"/>
<feBlend mode="normal" in="SourceGraphic" in2="effect1_dropShadow_10064_1681" result="shape"/>
</filter>
<filter id="filter6_d_10064_1681" x="686" y="37" width="264" height="150" filterUnits="userSpaceOnUse" color-interpolation-filters="sRGB">
<feFlood flood-opacity="0" result="BackgroundImageFix"/>
<feColorMatrix in="SourceAlpha" type="matrix" values="0 0 0 0 0 0 0 0 0 0 0 0 0 0 0 0 0 0 127 0" result="hardAlpha"/>
<feMorphology radius="1" operator="dilate" in="SourceAlpha" result="effect1_dropShadow_10064_1681"/>
<feOffset dy="4"/>
<feGaussianBlur stdDeviation="3"/>
<feComposite in2="hardAlpha" operator="out"/>
<feColorMatrix type="matrix" values="0 0 0 0 0.0823529 0 0 0 0 0.0823529 0 0 0 0 0.0823529 0 0 0 0.25 0"/>
<feBlend mode="normal" in2="BackgroundImageFix" result="effect1_dropShadow_10064_1681"/>
<feBlend mode="normal" in="SourceGraphic" in2="effect1_dropShadow_10064_1681" result="shape"/>
</filter>
<filter id="filter7_d_10064_1681" x="791" y="15.0859" width="23.4143" height="29.8281" filterUnits="userSpaceOnUse" color-interpolation-filters="sRGB">
<feFlood flood-opacity="0" result="BackgroundImageFix"/>
<feColorMatrix in="SourceAlpha" type="matrix" values="0 0 0 0 0 0 0 0 0 0 0 0 0 0 0 0 0 0 127 0" result="hardAlpha"/>
<feOffset dy="2"/>
<feGaussianBlur stdDeviation="2"/>
<feComposite in2="hardAlpha" operator="out"/>
<feColorMatrix type="matrix" values="0 0 0 0 0.0823529 0 0 0 0 0.0823529 0 0 0 0 0.0823529 0 0 0 0.2 0"/>
<feBlend mode="normal" in2="BackgroundImageFix" result="effect1_dropShadow_10064_1681"/>
<feBlend mode="normal" in="SourceGraphic" in2="effect1_dropShadow_10064_1681" result="shape"/>
</filter>
<filter id="filter8_d_10064_1681" x="851" y="103.586" width="23.4143" height="29.8281" filterUnits="userSpaceOnUse" color-interpolation-filters="sRGB">
<feFlood flood-opacity="0" result="BackgroundImageFix"/>
<feColorMatrix in="SourceAlpha" type="matrix" values="0 0 0 0 0 0 0 0 0 0 0 0 0 0 0 0 0 0 127 0" result="hardAlpha"/>
<feOffset dy="2"/>
<feGaussianBlur stdDeviation="2"/>
<feComposite in2="hardAlpha" operator="out"/>
<feColorMatrix type="matrix" values="0 0 0 0 0.0823529 0 0 0 0 0.0823529 0 0 0 0 0.0823529 0 0 0 0.2 0"/>
<feBlend mode="normal" in2="BackgroundImageFix" result="effect1_dropShadow_10064_1681"/>
<feBlend mode="normal" in="SourceGraphic" in2="effect1_dropShadow_10064_1681" result="shape"/>
</filter>
<clipPath id="clip0_10064_1681">
<path d="M466 43C466 41.3431 467.343 40 469 40H594C595.657 40 597 41.3431 597 43V269C597 270.657 595.657 272 594 272H469C467.343 272 466 270.657 466 269V43Z" fill="white"/>
</clipPath>
<clipPath id="clip1_10064_1681">
<path d="M693 43C693 41.3431 694.343 40 696 40H940C941.657 40 943 41.3431 943 43V173C943 174.657 941.657 176 940 176H696C694.343 176 693 174.657 693 173V43Z" fill="white"/>
</clipPath>
</defs>
</svg>
