<svg width="952" height="285" viewBox="0 0 952 285" fill="none" xmlns="http://www.w3.org/2000/svg">
<mask id="path-1-inside-1_8069_8751" fill="white">
<path d="M0 5C0 3.34315 1.34315 2 3 2H101C102.657 2 104 3.34315 104 5V35C104 36.6569 102.657 38 101 38H3C1.34314 38 0 36.6569 0 35V5Z"/>
</mask>
<path d="M0 5C0 3.34315 1.34315 2 3 2H101C102.657 2 104 3.34315 104 5V35C104 36.6569 102.657 38 101 38H3C1.34314 38 0 36.6569 0 35V5Z" fill="white"/>
<path d="M3 2V4H101V2V0H3V2ZM104 5H102V35H104H106V5H104ZM101 38V36H3V38V40H101V38ZM0 35H2V5H0H-2V35H0ZM3 38V36C2.44772 36 2 35.5523 2 35H0H-2C-2 37.7614 0.238574 40 3 40V38ZM104 35H102C102 35.5523 101.552 36 101 36V38V40C103.761 40 106 37.7614 106 35H104ZM101 2V4C101.552 4 102 4.44771 102 5H104H106C106 2.23858 103.761 0 101 0V2ZM3 2V0C0.238577 0 -2 2.23857 -2 5H0H2C2 4.44772 2.44771 4 3 4V2Z" fill="#0066CC" mask="url(#path-1-inside-1_8069_8751)"/>
<path d="M16.144 26L20.576 14.8H22.048L26.416 26H25.088L23.76 22.48H18.768L17.44 26H16.144ZM19.152 21.504H23.392L21.264 15.92L19.152 21.504ZM30.954 26.128C30.2287 26.128 29.5727 25.952 28.986 25.6C28.41 25.2373 27.9513 24.752 27.61 24.144C27.2687 23.5253 27.098 22.8427 27.098 22.096C27.098 21.3387 27.2687 20.656 27.61 20.048C27.9513 19.44 28.41 18.96 28.986 18.608C29.5727 18.2453 30.2287 18.064 30.954 18.064C31.53 18.064 32.0793 18.1707 32.602 18.384C33.1247 18.5973 33.578 18.896 33.962 19.28L33.21 20.096C32.9327 19.7867 32.5967 19.5467 32.202 19.376C31.8073 19.2053 31.4073 19.12 31.002 19.12C30.49 19.12 30.026 19.2533 29.61 19.52C29.2047 19.7867 28.8793 20.144 28.634 20.592C28.3887 21.04 28.266 21.5413 28.266 22.096C28.266 22.6507 28.3887 23.152 28.634 23.6C28.8793 24.048 29.2047 24.4053 29.61 24.672C30.026 24.9387 30.49 25.072 31.002 25.072C31.4073 25.072 31.8073 24.9867 32.202 24.816C32.5967 24.6347 32.9327 24.3947 33.21 24.096L33.962 24.912C33.578 25.296 33.1247 25.5947 32.602 25.808C32.0793 26.0213 31.53 26.128 30.954 26.128ZM38.7229 26.16C38.0509 26.16 37.5389 26 37.1869 25.68C36.8455 25.3493 36.6749 24.8747 36.6749 24.256V19.152H35.0589V18.192H36.6749V16.048L37.8429 15.776V18.192H40.0829V19.152H37.8429V23.952C37.8429 24.368 37.9282 24.6667 38.0989 24.848C38.2802 25.0293 38.5735 25.12 38.9789 25.12C39.1815 25.12 39.3629 25.104 39.5229 25.072C39.6829 25.04 39.8695 24.9867 40.0829 24.912V25.952C39.8695 26.0267 39.6455 26.08 39.4109 26.112C39.1762 26.144 38.9469 26.16 38.7229 26.16ZM41.7778 26V18.192H42.9457V26H41.7778ZM42.3698 16.256C42.1351 16.256 41.9324 16.176 41.7618 16.016C41.6018 15.8453 41.5218 15.648 41.5218 15.424C41.5218 15.2 41.6018 15.008 41.7618 14.848C41.9324 14.6773 42.1351 14.592 42.3698 14.592C42.6044 14.592 42.8018 14.6773 42.9618 14.848C43.1324 15.008 43.2178 15.2 43.2178 15.424C43.2178 15.648 43.1324 15.8453 42.9618 16.016C42.8018 16.176 42.6044 16.256 42.3698 16.256ZM48.7966 26.128C48.0713 26.128 47.4206 25.952 46.8446 25.6C46.2686 25.248 45.8153 24.768 45.4846 24.16C45.154 23.552 44.9886 22.864 44.9886 22.096C44.9886 21.328 45.154 20.64 45.4846 20.032C45.8153 19.424 46.2686 18.944 46.8446 18.592C47.4206 18.24 48.0713 18.064 48.7966 18.064C49.5113 18.064 50.1513 18.24 50.7166 18.592C51.2926 18.944 51.746 19.424 52.0766 20.032C52.4073 20.64 52.5726 21.328 52.5726 22.096C52.5726 22.864 52.4073 23.552 52.0766 24.16C51.746 24.768 51.2926 25.248 50.7166 25.6C50.1513 25.952 49.5113 26.128 48.7966 26.128ZM48.7806 25.104C49.2926 25.104 49.746 24.976 50.1406 24.72C50.5353 24.4533 50.8446 24.0907 51.0686 23.632C51.3033 23.1733 51.4206 22.6613 51.4206 22.096C51.4206 21.52 51.3033 21.008 51.0686 20.56C50.8446 20.1013 50.5353 19.744 50.1406 19.488C49.746 19.2213 49.2926 19.088 48.7806 19.088C48.2686 19.088 47.8153 19.2213 47.4206 19.488C47.026 19.744 46.7113 20.1013 46.4766 20.56C46.2526 21.008 46.1406 21.52 46.1406 22.096C46.1406 22.6613 46.2526 23.1733 46.4766 23.632C46.7113 24.0907 47.026 24.4533 47.4206 24.72C47.8153 24.976 48.2686 25.104 48.7806 25.104ZM54.6219 26V18.192H55.7899V19.456C56.0885 18.9867 56.4459 18.64 56.8619 18.416C57.2779 18.1813 57.7472 18.064 58.2699 18.064C58.8352 18.064 59.3259 18.1867 59.7419 18.432C60.1685 18.6667 60.4992 19.0027 60.7339 19.44C60.9792 19.8667 61.1019 20.368 61.1019 20.944V26H59.9339V21.28C59.9339 20.5867 59.7419 20.0427 59.3579 19.648C58.9845 19.2427 58.4779 19.04 57.8379 19.04C57.4112 19.04 57.0219 19.1413 56.6699 19.344C56.3179 19.5467 56.0245 19.8453 55.7899 20.24V26H54.6219ZM65.866 26.16C65.226 26.16 64.634 26.064 64.09 25.872C63.546 25.6693 63.082 25.3813 62.698 25.008L63.322 24.24C63.7913 24.5813 64.2233 24.832 64.618 24.992C65.0127 25.1413 65.418 25.216 65.834 25.216C66.3993 25.216 66.8687 25.0827 67.242 24.816C67.6153 24.5493 67.802 24.208 67.802 23.792C67.802 23.472 67.69 23.2213 67.466 23.04C67.2527 22.8587 66.8953 22.72 66.394 22.624L65.114 22.4C64.3567 22.2613 63.7967 22.0267 63.434 21.696C63.082 21.3653 62.906 20.9173 62.906 20.352C62.906 19.904 63.0233 19.5093 63.258 19.168C63.5033 18.8267 63.8393 18.56 64.266 18.368C64.6927 18.1653 65.178 18.064 65.722 18.064C66.2553 18.064 66.762 18.144 67.242 18.304C67.722 18.4533 68.2073 18.6987 68.698 19.04L68.122 19.856C67.7167 19.568 67.3113 19.36 66.906 19.232C66.5007 19.0933 66.09 19.024 65.674 19.024C65.162 19.024 64.7513 19.136 64.442 19.36C64.1327 19.584 63.978 19.888 63.978 20.272C63.978 20.592 64.074 20.8373 64.266 21.008C64.4687 21.1787 64.8207 21.3067 65.322 21.392L66.634 21.632C67.4233 21.7707 67.9993 22.0107 68.362 22.352C68.7247 22.6933 68.906 23.152 68.906 23.728C68.906 24.1867 68.7727 24.6027 68.506 24.976C68.2393 25.3387 67.8767 25.6267 67.418 25.84C66.9593 26.0533 66.442 26.16 65.866 26.16Z" fill="#151515"/>
<path d="M87.462 17.8086C87.3848 17.6216 87.2022 17.5 87.0001 17.5H79.0001C78.7979 17.5 78.6153 17.6216 78.5382 17.8086C78.4605 17.9956 78.5035 18.2104 78.6466 18.3535L82.4698 22.1768C82.6158 22.3233 82.8082 22.396 83.0001 22.396C83.1919 22.396 83.3844 22.3233 83.5303 22.1768L87.3536 18.3535C87.4966 18.2104 87.5396 17.9956 87.462 17.8086Z" fill="#151515"/>
<g filter="url(#filter0_d_8069_8751)">
<path d="M53 37V20L65 32H58L53 37Z" fill="#151515"/>
<path d="M66.207 32.5H58.207L52.5 38.207V18.793L66.207 32.5Z" stroke="white"/>
</g>
<mask id="path-7-inside-2_8069_8751" fill="white">
<path d="M200 5C200 3.34315 201.343 2 203 2H233C234.657 2 236 3.34315 236 5V35C236 36.6569 234.657 38 233 38H203C201.343 38 200 36.6569 200 35V5Z"/>
</mask>
<path d="M203 2V4H233V2V0H203V2ZM236 5H234V35H236H238V5H236ZM233 38V36H203V38V40H233V38ZM200 35H202V5H200H198V35H200ZM203 38V36C202.448 36 202 35.5523 202 35H200H198C198 37.7614 200.239 40 203 40V38ZM236 35H234C234 35.5523 233.552 36 233 36V38V40C235.761 40 238 37.7614 238 35H236ZM233 2V4C233.552 4 234 4.44771 234 5H236H238C238 2.23858 235.761 0 233 0V2ZM203 2V0C200.239 0 198 2.23857 198 5H200H202C202 4.44772 202.448 4 203 4V2Z" fill="#0066CC" mask="url(#path-7-inside-2_8069_8751)"/>
<path d="M216.125 14.5C216.125 13.4661 216.966 12.625 218 12.625C219.034 12.625 219.875 13.4661 219.875 14.5C219.875 15.5339 219.034 16.375 218 16.375C216.966 16.375 216.125 15.5339 216.125 14.5ZM218 18.125C216.966 18.125 216.125 18.9661 216.125 20C216.125 21.0339 216.966 21.875 218 21.875C219.034 21.875 219.875 21.0339 219.875 20C219.875 18.9661 219.034 18.125 218 18.125ZM218 23.625C216.966 23.625 216.125 24.4661 216.125 25.5C216.125 26.5339 216.966 27.375 218 27.375C219.034 27.375 219.875 26.5339 219.875 25.5C219.875 24.4661 219.034 23.625 218 23.625Z" fill="#151515"/>
<g filter="url(#filter1_d_8069_8751)">
<path d="M224 37V20L236 32H229L224 37Z" fill="#151515"/>
<path d="M237.207 32.5H229.207L223.5 38.207V18.793L237.207 32.5Z" stroke="white"/>
</g>
<path d="M334 7C334 5.34315 335.343 4 337 4H367C368.657 4 370 5.34315 370 7V37C370 38.6569 368.657 40 367 40H337C335.343 40 334 38.6569 334 37V7Z" fill="#F2F2F2"/>
<path d="M350.125 16.5C350.125 15.4661 350.966 14.625 352 14.625C353.034 14.625 353.875 15.4661 353.875 16.5C353.875 17.5339 353.034 18.375 352 18.375C350.966 18.375 350.125 17.5339 350.125 16.5ZM352 20.125C350.966 20.125 350.125 20.9661 350.125 22C350.125 23.0339 350.966 23.875 352 23.875C353.034 23.875 353.875 23.0339 353.875 22C353.875 20.9661 353.034 20.125 352 20.125ZM352 25.625C350.966 25.625 350.125 26.4661 350.125 27.5C350.125 28.5339 350.966 29.375 352 29.375C353.034 29.375 353.875 28.5339 353.875 27.5C353.875 26.4661 353.034 25.625 352 25.625Z" fill="#151515"/>
<mask id="path-14-outside-3_8069_8751" maskUnits="userSpaceOnUse" x="330" y="0" width="44" height="44" fill="black">
<rect fill="white" x="330" width="44" height="44"/>
<path d="M332 5C332 3.34315 333.343 2 335 2H369C370.657 2 372 3.34315 372 5V39C372 40.6569 370.657 42 369 42H335C333.343 42 332 40.6569 332 39V5Z"/>
</mask>
<path d="M335 2V4H369V2V0H335V2ZM372 5H370V39H372H374V5H372ZM369 42V40H335V42V44H369V42ZM332 39H334V5H332H330V39H332ZM335 42V40C334.448 40 334 39.5523 334 39H332H330C330 41.7614 332.239 44 335 44V42ZM372 39H370C370 39.5523 369.552 40 369 40V42V44C371.761 44 374 41.7614 374 39H372ZM369 2V4C369.552 4 370 4.44771 370 5H372H374C374 2.23858 371.761 0 369 0V2ZM335 2V0C332.239 0 330 2.23858 330 5H332H334C334 4.44772 334.448 4 335 4V2Z" fill="#0066CC" mask="url(#path-14-outside-3_8069_8751)"/>
<g filter="url(#filter2_d_8069_8751)">
<path d="M358.5 37V20L370.5 32H363.5L358.5 37Z" fill="#151515"/>
<path d="M371.707 32.5H363.707L358 38.207V18.793L371.707 32.5Z" stroke="white"/>
</g>
<path d="M471 3H569C570.105 3 571 3.89543 571 5V35C571 36.1046 570.105 37 569 37H471C469.895 37 469 36.1046 469 35V5C469 3.89543 469.895 3 471 3Z" fill="white"/>
<path d="M471 3H569C570.105 3 571 3.89543 571 5V35C571 36.1046 570.105 37 569 37H471C469.895 37 469 36.1046 469 35V5C469 3.89543 469.895 3 471 3Z" stroke="#0066CC" stroke-width="2"/>
<path d="M484.144 26L488.576 14.8H490.048L494.416 26H493.088L491.76 22.48H486.768L485.44 26H484.144ZM487.152 21.504H491.392L489.264 15.92L487.152 21.504ZM498.954 26.128C498.229 26.128 497.573 25.952 496.986 25.6C496.41 25.2373 495.951 24.752 495.61 24.144C495.269 23.5253 495.098 22.8427 495.098 22.096C495.098 21.3387 495.269 20.656 495.61 20.048C495.951 19.44 496.41 18.96 496.986 18.608C497.573 18.2453 498.229 18.064 498.954 18.064C499.53 18.064 500.079 18.1707 500.602 18.384C501.125 18.5973 501.578 18.896 501.962 19.28L501.21 20.096C500.933 19.7867 500.597 19.5467 500.202 19.376C499.807 19.2053 499.407 19.12 499.002 19.12C498.49 19.12 498.026 19.2533 497.61 19.52C497.205 19.7867 496.879 20.144 496.634 20.592C496.389 21.04 496.266 21.5413 496.266 22.096C496.266 22.6507 496.389 23.152 496.634 23.6C496.879 24.048 497.205 24.4053 497.61 24.672C498.026 24.9387 498.49 25.072 499.002 25.072C499.407 25.072 499.807 24.9867 500.202 24.816C500.597 24.6347 500.933 24.3947 501.21 24.096L501.962 24.912C501.578 25.296 501.125 25.5947 500.602 25.808C500.079 26.0213 499.53 26.128 498.954 26.128ZM506.723 26.16C506.051 26.16 505.539 26 505.187 25.68C504.846 25.3493 504.675 24.8747 504.675 24.256V19.152H503.059V18.192H504.675V16.048L505.843 15.776V18.192H508.083V19.152H505.843V23.952C505.843 24.368 505.928 24.6667 506.099 24.848C506.28 25.0293 506.574 25.12 506.979 25.12C507.182 25.12 507.363 25.104 507.523 25.072C507.683 25.04 507.87 24.9867 508.083 24.912V25.952C507.87 26.0267 507.646 26.08 507.411 26.112C507.176 26.144 506.947 26.16 506.723 26.16ZM509.778 26V18.192H510.946V26H509.778ZM510.37 16.256C510.135 16.256 509.932 16.176 509.762 16.016C509.602 15.8453 509.522 15.648 509.522 15.424C509.522 15.2 509.602 15.008 509.762 14.848C509.932 14.6773 510.135 14.592 510.37 14.592C510.604 14.592 510.802 14.6773 510.962 14.848C511.132 15.008 511.218 15.2 511.218 15.424C511.218 15.648 511.132 15.8453 510.962 16.016C510.802 16.176 510.604 16.256 510.37 16.256ZM516.797 26.128C516.071 26.128 515.421 25.952 514.845 25.6C514.269 25.248 513.815 24.768 513.485 24.16C513.154 23.552 512.989 22.864 512.989 22.096C512.989 21.328 513.154 20.64 513.485 20.032C513.815 19.424 514.269 18.944 514.845 18.592C515.421 18.24 516.071 18.064 516.797 18.064C517.511 18.064 518.151 18.24 518.717 18.592C519.293 18.944 519.746 19.424 520.077 20.032C520.407 20.64 520.573 21.328 520.573 22.096C520.573 22.864 520.407 23.552 520.077 24.16C519.746 24.768 519.293 25.248 518.717 25.6C518.151 25.952 517.511 26.128 516.797 26.128ZM516.781 25.104C517.293 25.104 517.746 24.976 518.141 24.72C518.535 24.4533 518.845 24.0907 519.069 23.632C519.303 23.1733 519.421 22.6613 519.421 22.096C519.421 21.52 519.303 21.008 519.069 20.56C518.845 20.1013 518.535 19.744 518.141 19.488C517.746 19.2213 517.293 19.088 516.781 19.088C516.269 19.088 515.815 19.2213 515.421 19.488C515.026 19.744 514.711 20.1013 514.477 20.56C514.253 21.008 514.141 21.52 514.141 22.096C514.141 22.6613 514.253 23.1733 514.477 23.632C514.711 24.0907 515.026 24.4533 515.421 24.72C515.815 24.976 516.269 25.104 516.781 25.104ZM522.622 26V18.192H523.79V19.456C524.089 18.9867 524.446 18.64 524.862 18.416C525.278 18.1813 525.747 18.064 526.27 18.064C526.835 18.064 527.326 18.1867 527.742 18.432C528.169 18.6667 528.499 19.0027 528.734 19.44C528.979 19.8667 529.102 20.368 529.102 20.944V26H527.934V21.28C527.934 20.5867 527.742 20.0427 527.358 19.648C526.985 19.2427 526.478 19.04 525.838 19.04C525.411 19.04 525.022 19.1413 524.67 19.344C524.318 19.5467 524.025 19.8453 523.79 20.24V26H522.622ZM533.866 26.16C533.226 26.16 532.634 26.064 532.09 25.872C531.546 25.6693 531.082 25.3813 530.698 25.008L531.322 24.24C531.791 24.5813 532.223 24.832 532.618 24.992C533.013 25.1413 533.418 25.216 533.834 25.216C534.399 25.216 534.869 25.0827 535.242 24.816C535.615 24.5493 535.802 24.208 535.802 23.792C535.802 23.472 535.69 23.2213 535.466 23.04C535.253 22.8587 534.895 22.72 534.394 22.624L533.114 22.4C532.357 22.2613 531.797 22.0267 531.434 21.696C531.082 21.3653 530.906 20.9173 530.906 20.352C530.906 19.904 531.023 19.5093 531.258 19.168C531.503 18.8267 531.839 18.56 532.266 18.368C532.693 18.1653 533.178 18.064 533.722 18.064C534.255 18.064 534.762 18.144 535.242 18.304C535.722 18.4533 536.207 18.6987 536.698 19.04L536.122 19.856C535.717 19.568 535.311 19.36 534.906 19.232C534.501 19.0933 534.09 19.024 533.674 19.024C533.162 19.024 532.751 19.136 532.442 19.36C532.133 19.584 531.978 19.888 531.978 20.272C531.978 20.592 532.074 20.8373 532.266 21.008C532.469 21.1787 532.821 21.3067 533.322 21.392L534.634 21.632C535.423 21.7707 535.999 22.0107 536.362 22.352C536.725 22.6933 536.906 23.152 536.906 23.728C536.906 24.1867 536.773 24.6027 536.506 24.976C536.239 25.3387 535.877 25.6267 535.418 25.84C534.959 26.0533 534.442 26.16 533.866 26.16Z" fill="#151515"/>
<path d="M555.354 21.6465L551.53 17.8232C551.238 17.5303 550.762 17.5303 550.47 17.8232L546.647 21.6465C546.504 21.7895 546.461 22.0044 546.538 22.1914C546.615 22.3784 546.798 22.5 547 22.5H555C555.202 22.5 555.385 22.3784 555.462 22.1914C555.54 22.0044 555.497 21.7895 555.354 21.6465Z" fill="#151515"/>
<g filter="url(#filter3_d_8069_8751)">
<g clip-path="url(#clip0_8069_8751)">
<path d="M468 45C468 43.3431 469.343 42 471 42H596C597.657 42 599 43.3431 599 45V271C599 272.657 597.657 274 596 274H471C469.343 274 468 272.657 468 271V45Z" fill="white"/>
<path d="M485.424 76V64.8H487.136L490.88 72.768L494.624 64.8H496.336V76H495.168V66.256L490.88 75.2L486.576 66.224V76H485.424ZM502.422 76.128C501.696 76.128 501.046 75.952 500.47 75.6C499.894 75.248 499.44 74.768 499.11 74.16C498.779 73.552 498.614 72.864 498.614 72.096C498.614 71.328 498.779 70.64 499.11 70.032C499.44 69.424 499.894 68.944 500.47 68.592C501.046 68.24 501.696 68.064 502.422 68.064C503.136 68.064 503.776 68.24 504.342 68.592C504.918 68.944 505.371 69.424 505.702 70.032C506.032 70.64 506.198 71.328 506.198 72.096C506.198 72.864 506.032 73.552 505.702 74.16C505.371 74.768 504.918 75.248 504.342 75.6C503.776 75.952 503.136 76.128 502.422 76.128ZM502.406 75.104C502.918 75.104 503.371 74.976 503.766 74.72C504.16 74.4533 504.47 74.0907 504.694 73.632C504.928 73.1733 505.046 72.6613 505.046 72.096C505.046 71.52 504.928 71.008 504.694 70.56C504.47 70.1013 504.16 69.744 503.766 69.488C503.371 69.2213 502.918 69.088 502.406 69.088C501.894 69.088 501.44 69.2213 501.046 69.488C500.651 69.744 500.336 70.1013 500.102 70.56C499.878 71.008 499.766 71.52 499.766 72.096C499.766 72.6613 499.878 73.1733 500.102 73.632C500.336 74.0907 500.651 74.4533 501.046 74.72C501.44 74.976 501.894 75.104 502.406 75.104ZM510.253 76L507.053 68.192H508.317L510.845 74.544L513.341 68.192H514.589L511.373 76H510.253ZM519.314 76.16C518.588 76.16 517.932 75.984 517.346 75.632C516.759 75.2693 516.295 74.784 515.954 74.176C515.612 73.5573 515.442 72.864 515.442 72.096C515.442 71.328 515.602 70.64 515.922 70.032C516.252 69.424 516.695 68.944 517.25 68.592C517.804 68.24 518.423 68.064 519.106 68.064C519.799 68.064 520.412 68.24 520.946 68.592C521.49 68.9333 521.916 69.4027 522.226 70C522.546 70.5867 522.706 71.2533 522.706 72V72.352H516.578C516.62 72.8853 516.764 73.3653 517.01 73.792C517.266 74.208 517.596 74.5387 518.002 74.784C518.418 75.0187 518.871 75.136 519.362 75.136C519.767 75.136 520.156 75.0667 520.53 74.928C520.914 74.7787 521.239 74.5813 521.506 74.336L522.242 75.12C521.794 75.472 521.33 75.7333 520.85 75.904C520.37 76.0747 519.858 76.16 519.314 76.16ZM516.61 71.52H521.554C521.5 71.0507 521.356 70.6347 521.122 70.272C520.898 69.8987 520.61 69.6053 520.258 69.392C519.916 69.1787 519.532 69.072 519.106 69.072C518.679 69.072 518.29 69.1787 517.938 69.392C517.586 69.5947 517.292 69.8827 517.058 70.256C516.834 70.6187 516.684 71.04 516.61 71.52Z" fill="#151515"/>
<path d="M468 90H599V130H468V90Z" fill="#F2F2F2"/>
<mask id="path-26-outside-4_8069_8751" maskUnits="userSpaceOnUse" x="472" y="94" width="123" height="32" fill="black">
<rect fill="white" x="472" y="94" width="123" height="32"/>
<path d="M474 99C474 97.3431 475.343 96 477 96H590C591.657 96 593 97.3431 593 99V121C593 122.657 591.657 124 590 124H477C475.343 124 474 122.657 474 121V99Z"/>
</mask>
<path d="M477 96V98H590V96V94H477V96ZM593 99H591V121H593H595V99H593ZM590 124V122H477V124V126H590V124ZM474 121H476V99H474H472V121H474ZM477 124V122C476.448 122 476 121.552 476 121H474H472C472 123.761 474.239 126 477 126V124ZM593 121H591C591 121.552 590.552 122 590 122V124V126C592.761 126 595 123.761 595 121H593ZM590 96V98C590.552 98 591 98.4477 591 99H593H595C595 96.2386 592.761 94 590 94V96ZM477 96V94C474.239 94 472 96.2386 472 99H474H476C476 98.4477 476.448 98 477 98V96Z" fill="#0066CC" mask="url(#path-26-outside-4_8069_8751)"/>
<path d="M485.424 116V104.8H490.016C490.731 104.8 491.355 104.939 491.888 105.216C492.421 105.483 492.837 105.856 493.136 106.336C493.435 106.816 493.584 107.381 493.584 108.032C493.584 108.779 493.376 109.419 492.96 109.952C492.544 110.475 491.973 110.843 491.248 111.056L493.632 116H492.272L490 111.216H486.656V116H485.424ZM486.656 110.192H489.92C490.656 110.192 491.243 110 491.68 109.616C492.128 109.221 492.352 108.699 492.352 108.048C492.352 107.387 492.128 106.864 491.68 106.48C491.243 106.085 490.656 105.888 489.92 105.888H486.656V110.192ZM498.673 116.16C497.948 116.16 497.292 115.984 496.705 115.632C496.118 115.269 495.654 114.784 495.313 114.176C494.972 113.557 494.801 112.864 494.801 112.096C494.801 111.328 494.961 110.64 495.281 110.032C495.612 109.424 496.054 108.944 496.609 108.592C497.164 108.24 497.782 108.064 498.465 108.064C499.158 108.064 499.772 108.24 500.305 108.592C500.849 108.933 501.276 109.403 501.585 110C501.905 110.587 502.065 111.253 502.065 112V112.352H495.937C495.98 112.885 496.124 113.365 496.369 113.792C496.625 114.208 496.956 114.539 497.361 114.784C497.777 115.019 498.23 115.136 498.721 115.136C499.126 115.136 499.516 115.067 499.889 114.928C500.273 114.779 500.598 114.581 500.865 114.336L501.601 115.12C501.153 115.472 500.689 115.733 500.209 115.904C499.729 116.075 499.217 116.16 498.673 116.16ZM495.969 111.52H500.913C500.86 111.051 500.716 110.635 500.481 110.272C500.257 109.899 499.969 109.605 499.617 109.392C499.276 109.179 498.892 109.072 498.465 109.072C498.038 109.072 497.649 109.179 497.297 109.392C496.945 109.595 496.652 109.883 496.417 110.256C496.193 110.619 496.044 111.04 495.969 111.52ZM504.059 116V108.192H505.227V109.456C505.526 108.987 505.883 108.64 506.299 108.416C506.715 108.181 507.185 108.064 507.707 108.064C508.273 108.064 508.763 108.187 509.179 108.432C509.606 108.667 509.937 109.003 510.171 109.44C510.417 109.867 510.539 110.368 510.539 110.944V116H509.371V111.28C509.371 110.587 509.179 110.043 508.795 109.648C508.422 109.243 507.915 109.04 507.275 109.04C506.849 109.04 506.459 109.141 506.107 109.344C505.755 109.547 505.462 109.845 505.227 110.24V116H504.059ZM515.304 116.144C514.749 116.144 514.258 116.043 513.832 115.84C513.405 115.637 513.069 115.36 512.824 115.008C512.589 114.645 512.472 114.229 512.472 113.76C512.472 113.291 512.594 112.885 512.84 112.544C513.085 112.192 513.426 111.92 513.864 111.728C514.301 111.536 514.813 111.44 515.4 111.44C515.848 111.44 516.269 111.488 516.664 111.584C517.069 111.68 517.442 111.835 517.784 112.048V110.976C517.784 110.336 517.613 109.856 517.272 109.536C516.93 109.205 516.429 109.04 515.768 109.04C515.405 109.04 515.032 109.093 514.648 109.2C514.274 109.307 513.858 109.477 513.4 109.712L512.968 108.816C514.013 108.315 514.994 108.064 515.911 108.064C516.882 108.064 517.629 108.304 518.152 108.784C518.674 109.253 518.936 109.931 518.936 110.816V116H517.784V115.088C517.442 115.44 517.064 115.707 516.648 115.888C516.232 116.059 515.784 116.144 515.304 116.144ZM513.592 113.728C513.592 114.187 513.768 114.555 514.12 114.832C514.482 115.109 514.957 115.248 515.544 115.248C515.981 115.248 516.381 115.173 516.744 115.024C517.117 114.875 517.464 114.651 517.784 114.352V112.848C517.453 112.656 517.112 112.517 516.76 112.432C516.408 112.336 516.013 112.288 515.576 112.288C514.978 112.288 514.498 112.421 514.136 112.688C513.773 112.944 513.592 113.291 513.592 113.728ZM521.309 116V108.192H522.477V109.408C522.776 108.96 523.117 108.624 523.501 108.4C523.885 108.176 524.317 108.064 524.797 108.064C525.352 108.064 525.837 108.203 526.253 108.48C526.669 108.747 526.984 109.115 527.197 109.584C527.507 109.083 527.875 108.704 528.301 108.448C528.739 108.192 529.24 108.064 529.805 108.064C530.328 108.064 530.787 108.187 531.181 108.432C531.587 108.677 531.901 109.019 532.125 109.456C532.349 109.883 532.461 110.384 532.461 110.96V116H531.293V111.248C531.293 110.565 531.123 110.027 530.781 109.632C530.44 109.237 529.971 109.04 529.373 109.04C528.968 109.04 528.6 109.141 528.269 109.344C527.949 109.547 527.667 109.856 527.421 110.272C527.443 110.379 527.459 110.491 527.469 110.608C527.48 110.725 527.485 110.843 527.485 110.96V116H526.317V111.248C526.317 110.565 526.141 110.027 525.789 109.632C525.448 109.237 524.979 109.04 524.381 109.04C523.581 109.04 522.947 109.424 522.477 110.192V116H521.309ZM538.345 116.16C537.62 116.16 536.964 115.984 536.377 115.632C535.79 115.269 535.326 114.784 534.985 114.176C534.644 113.557 534.473 112.864 534.473 112.096C534.473 111.328 534.633 110.64 534.953 110.032C535.284 109.424 535.726 108.944 536.281 108.592C536.836 108.24 537.454 108.064 538.137 108.064C538.83 108.064 539.444 108.24 539.977 108.592C540.521 108.933 540.948 109.403 541.257 110C541.577 110.587 541.737 111.253 541.737 112V112.352H535.609C535.652 112.885 535.796 113.365 536.041 113.792C536.297 114.208 536.628 114.539 537.033 114.784C537.449 115.019 537.902 115.136 538.393 115.136C538.798 115.136 539.188 115.067 539.561 114.928C539.945 114.779 540.27 114.581 540.537 114.336L541.273 115.12C540.825 115.472 540.361 115.733 539.881 115.904C539.401 116.075 538.889 116.16 538.345 116.16ZM535.641 111.52H540.585C540.532 111.051 540.388 110.635 540.153 110.272C539.929 109.899 539.641 109.605 539.289 109.392C538.948 109.179 538.564 109.072 538.137 109.072C537.71 109.072 537.321 109.179 536.969 109.392C536.617 109.595 536.324 109.883 536.089 110.256C535.865 110.619 535.716 111.04 535.641 111.52Z" fill="#151515"/>
<path d="M485.408 156V144.8H486.64V149.808H493.072V144.8H494.304V156H493.072V150.912H486.64V156H485.408ZM496.903 156V148.192H498.071V156H496.903ZM497.495 146.256C497.26 146.256 497.057 146.176 496.887 146.016C496.727 145.845 496.647 145.648 496.647 145.424C496.647 145.2 496.727 145.008 496.887 144.848C497.057 144.677 497.26 144.592 497.495 144.592C497.729 144.592 497.927 144.677 498.087 144.848C498.257 145.008 498.343 145.2 498.343 145.424C498.343 145.648 498.257 145.845 498.087 146.016C497.927 146.176 497.729 146.256 497.495 146.256ZM503.714 156.112C503.042 156.112 502.434 155.936 501.89 155.584C501.346 155.221 500.914 154.741 500.594 154.144C500.274 153.536 500.114 152.859 500.114 152.112C500.114 151.355 500.274 150.677 500.594 150.08C500.924 149.472 501.367 148.992 501.922 148.64C502.476 148.277 503.095 148.096 503.778 148.096C504.258 148.096 504.706 148.192 505.122 148.384C505.538 148.565 505.9 148.832 506.21 149.184V144.448L507.378 144.208V156H506.21V154.96C505.911 155.333 505.548 155.621 505.122 155.824C504.695 156.016 504.226 156.112 503.714 156.112ZM504.002 155.088C504.46 155.088 504.882 154.997 505.266 154.816C505.65 154.635 505.964 154.379 506.21 154.048V150.176C505.954 149.845 505.628 149.589 505.234 149.408C504.85 149.216 504.439 149.12 504.002 149.12C503.479 149.12 503.01 149.248 502.594 149.504C502.188 149.76 501.863 150.112 501.618 150.56C501.383 151.008 501.266 151.52 501.266 152.096C501.266 152.661 501.383 153.173 501.618 153.632C501.863 154.08 502.188 154.437 502.594 154.704C503.01 154.96 503.479 155.088 504.002 155.088ZM513.298 156.16C512.573 156.16 511.917 155.984 511.33 155.632C510.743 155.269 510.279 154.784 509.938 154.176C509.597 153.557 509.426 152.864 509.426 152.096C509.426 151.328 509.586 150.64 509.906 150.032C510.237 149.424 510.679 148.944 511.234 148.592C511.789 148.24 512.407 148.064 513.09 148.064C513.783 148.064 514.397 148.24 514.93 148.592C515.474 148.933 515.901 149.403 516.21 150C516.53 150.587 516.69 151.253 516.69 152V152.352H510.562C510.605 152.885 510.749 153.365 510.994 153.792C511.25 154.208 511.581 154.539 511.986 154.784C512.402 155.019 512.855 155.136 513.346 155.136C513.751 155.136 514.141 155.067 514.514 154.928C514.898 154.779 515.223 154.581 515.49 154.336L516.226 155.12C515.778 155.472 515.314 155.733 514.834 155.904C514.354 156.075 513.842 156.16 513.298 156.16ZM510.594 151.52H515.538C515.485 151.051 515.341 150.635 515.106 150.272C514.882 149.899 514.594 149.605 514.242 149.392C513.901 149.179 513.517 149.072 513.09 149.072C512.663 149.072 512.274 149.179 511.922 149.392C511.57 149.595 511.277 149.883 511.042 150.256C510.818 150.619 510.669 151.04 510.594 151.52Z" fill="#151515"/>
<path d="M489.04 196.176C488.165 196.176 487.355 196.021 486.608 195.712C485.861 195.392 485.141 194.912 484.448 194.272L485.2 193.376C485.872 194.005 486.501 194.453 487.088 194.72C487.685 194.987 488.347 195.12 489.072 195.12C489.648 195.12 490.16 195.024 490.608 194.832C491.067 194.629 491.424 194.357 491.68 194.016C491.936 193.675 492.064 193.285 492.064 192.848C492.064 192.283 491.877 191.856 491.504 191.568C491.131 191.269 490.485 191.04 489.568 190.88L487.76 190.576C486.736 190.395 485.984 190.085 485.504 189.648C485.035 189.2 484.8 188.603 484.8 187.856C484.8 187.227 484.96 186.672 485.28 186.192C485.611 185.701 486.064 185.317 486.64 185.04C487.216 184.763 487.883 184.624 488.64 184.624C489.472 184.624 490.245 184.741 490.96 184.976C491.675 185.2 492.379 185.557 493.072 186.048L492.432 187.008C491.856 186.571 491.248 186.24 490.608 186.016C489.968 185.781 489.317 185.664 488.656 185.664C488.133 185.664 487.669 185.755 487.264 185.936C486.869 186.117 486.555 186.363 486.32 186.672C486.096 186.981 485.984 187.333 485.984 187.728C485.984 188.219 486.149 188.603 486.48 188.88C486.811 189.157 487.349 189.355 488.096 189.472L489.888 189.776C491.083 189.989 491.947 190.336 492.48 190.816C493.024 191.285 493.296 191.941 493.296 192.784C493.296 193.435 493.109 194.016 492.736 194.528C492.373 195.04 491.872 195.445 491.232 195.744C490.592 196.032 489.861 196.176 489.04 196.176ZM498.845 196.16C498.12 196.16 497.464 195.984 496.877 195.632C496.29 195.269 495.826 194.784 495.485 194.176C495.144 193.557 494.973 192.864 494.973 192.096C494.973 191.328 495.133 190.64 495.453 190.032C495.784 189.424 496.226 188.944 496.781 188.592C497.336 188.24 497.954 188.064 498.637 188.064C499.33 188.064 499.944 188.24 500.477 188.592C501.021 188.933 501.448 189.403 501.757 190C502.077 190.587 502.237 191.253 502.237 192V192.352H496.109C496.152 192.885 496.296 193.365 496.541 193.792C496.797 194.208 497.128 194.539 497.533 194.784C497.949 195.019 498.402 195.136 498.893 195.136C499.298 195.136 499.688 195.067 500.061 194.928C500.445 194.779 500.77 194.581 501.037 194.336L501.773 195.12C501.325 195.472 500.861 195.733 500.381 195.904C499.901 196.075 499.389 196.16 498.845 196.16ZM496.141 191.52H501.085C501.032 191.051 500.888 190.635 500.653 190.272C500.429 189.899 500.141 189.605 499.789 189.392C499.448 189.179 499.064 189.072 498.637 189.072C498.21 189.072 497.821 189.179 497.469 189.392C497.117 189.595 496.824 189.883 496.589 190.256C496.365 190.619 496.216 191.04 496.141 191.52ZM506.973 196.16C506.301 196.16 505.789 196 505.437 195.68C505.096 195.349 504.925 194.875 504.925 194.256V189.152H503.309V188.192H504.925V186.048L506.093 185.776V188.192H508.333V189.152H506.093V193.952C506.093 194.368 506.178 194.667 506.349 194.848C506.53 195.029 506.824 195.12 507.229 195.12C507.432 195.12 507.613 195.104 507.773 195.072C507.933 195.04 508.12 194.987 508.333 194.912V195.952C508.12 196.027 507.896 196.08 507.661 196.112C507.426 196.144 507.197 196.16 506.973 196.16ZM516.194 196.144C515.639 196.144 515.149 196.043 514.722 195.84C514.295 195.637 513.959 195.36 513.714 195.008C513.479 194.645 513.362 194.229 513.362 193.76C513.362 193.291 513.485 192.885 513.73 192.544C513.975 192.192 514.317 191.92 514.754 191.728C515.191 191.536 515.703 191.44 516.29 191.44C516.738 191.44 517.159 191.488 517.554 191.584C517.959 191.68 518.333 191.835 518.674 192.048V190.976C518.674 190.336 518.503 189.856 518.162 189.536C517.821 189.205 517.319 189.04 516.658 189.04C516.295 189.04 515.922 189.093 515.538 189.2C515.165 189.307 514.749 189.477 514.29 189.712L513.858 188.816C514.903 188.315 515.885 188.064 516.802 188.064C517.773 188.064 518.519 188.304 519.042 188.784C519.565 189.253 519.826 189.931 519.826 190.816V196H518.674V195.088C518.333 195.44 517.954 195.707 517.538 195.888C517.122 196.059 516.674 196.144 516.194 196.144ZM514.482 193.728C514.482 194.187 514.658 194.555 515.01 194.832C515.373 195.109 515.847 195.248 516.434 195.248C516.871 195.248 517.271 195.173 517.634 195.024C518.007 194.875 518.354 194.651 518.674 194.352V192.848C518.343 192.656 518.002 192.517 517.65 192.432C517.298 192.336 516.903 192.288 516.466 192.288C515.869 192.288 515.389 192.421 515.026 192.688C514.663 192.944 514.482 193.291 514.482 193.728ZM524.616 196.16C523.976 196.16 523.384 196.064 522.84 195.872C522.296 195.669 521.832 195.381 521.448 195.008L522.072 194.24C522.541 194.581 522.973 194.832 523.368 194.992C523.763 195.141 524.168 195.216 524.584 195.216C525.149 195.216 525.619 195.083 525.992 194.816C526.365 194.549 526.552 194.208 526.552 193.792C526.552 193.472 526.44 193.221 526.216 193.04C526.003 192.859 525.645 192.72 525.144 192.624L523.864 192.4C523.107 192.261 522.547 192.027 522.184 191.696C521.832 191.365 521.656 190.917 521.656 190.352C521.656 189.904 521.773 189.509 522.008 189.168C522.253 188.827 522.589 188.56 523.016 188.368C523.443 188.165 523.928 188.064 524.472 188.064C525.005 188.064 525.512 188.144 525.992 188.304C526.472 188.453 526.957 188.699 527.448 189.04L526.872 189.856C526.467 189.568 526.061 189.36 525.656 189.232C525.251 189.093 524.84 189.024 524.424 189.024C523.912 189.024 523.501 189.136 523.192 189.36C522.883 189.584 522.728 189.888 522.728 190.272C522.728 190.592 522.824 190.837 523.016 191.008C523.219 191.179 523.571 191.307 524.072 191.392L525.384 191.632C526.173 191.771 526.749 192.011 527.112 192.352C527.475 192.693 527.656 193.152 527.656 193.728C527.656 194.187 527.523 194.603 527.256 194.976C526.989 195.339 526.627 195.627 526.168 195.84C525.709 196.053 525.192 196.16 524.616 196.16ZM536.417 196.112C535.745 196.112 535.137 195.936 534.593 195.584C534.049 195.221 533.617 194.741 533.297 194.144C532.977 193.536 532.817 192.859 532.817 192.112C532.817 191.355 532.977 190.677 533.297 190.08C533.627 189.472 534.07 188.992 534.625 188.64C535.179 188.277 535.798 188.096 536.481 188.096C536.961 188.096 537.409 188.192 537.825 188.384C538.241 188.565 538.603 188.832 538.913 189.184V184.448L540.081 184.208V196H538.913V194.96C538.614 195.333 538.251 195.621 537.825 195.824C537.398 196.016 536.929 196.112 536.417 196.112ZM536.705 195.088C537.163 195.088 537.585 194.997 537.969 194.816C538.353 194.635 538.667 194.379 538.913 194.048V190.176C538.657 189.845 538.331 189.589 537.937 189.408C537.553 189.216 537.142 189.12 536.705 189.12C536.182 189.12 535.713 189.248 535.297 189.504C534.891 189.76 534.566 190.112 534.321 190.56C534.086 191.008 533.969 191.52 533.969 192.096C533.969 192.661 534.086 193.173 534.321 193.632C534.566 194.08 534.891 194.437 535.297 194.704C535.713 194.96 536.182 195.088 536.705 195.088ZM546.001 196.16C545.276 196.16 544.62 195.984 544.033 195.632C543.447 195.269 542.983 194.784 542.641 194.176C542.3 193.557 542.129 192.864 542.129 192.096C542.129 191.328 542.289 190.64 542.609 190.032C542.94 189.424 543.383 188.944 543.937 188.592C544.492 188.24 545.111 188.064 545.793 188.064C546.487 188.064 547.1 188.24 547.633 188.592C548.177 188.933 548.604 189.403 548.913 190C549.233 190.587 549.393 191.253 549.393 192V192.352H543.265C543.308 192.885 543.452 193.365 543.697 193.792C543.953 194.208 544.284 194.539 544.689 194.784C545.105 195.019 545.559 195.136 546.049 195.136C546.455 195.136 546.844 195.067 547.217 194.928C547.601 194.779 547.927 194.581 548.193 194.336L548.929 195.12C548.481 195.472 548.017 195.733 547.537 195.904C547.057 196.075 546.545 196.16 546.001 196.16ZM543.297 191.52H548.241C548.188 191.051 548.044 190.635 547.809 190.272C547.585 189.899 547.297 189.605 546.945 189.392C546.604 189.179 546.22 189.072 545.793 189.072C545.367 189.072 544.977 189.179 544.625 189.392C544.273 189.595 543.98 189.883 543.745 190.256C543.521 190.619 543.372 191.04 543.297 191.52ZM552.145 196V189.152H550.401V188.192H552.145V186.56C552.145 185.792 552.348 185.2 552.753 184.784C553.158 184.368 553.734 184.16 554.481 184.16C554.694 184.16 554.886 184.171 555.057 184.192C555.238 184.213 555.398 184.251 555.537 184.304V185.36C555.366 185.307 555.212 185.269 555.073 185.248C554.934 185.227 554.774 185.216 554.593 185.216C554.145 185.216 553.82 185.328 553.617 185.552C553.414 185.765 553.313 186.107 553.313 186.576V188.192H555.537V189.152H553.313V196H552.145ZM559.257 196.144C558.702 196.144 558.211 196.043 557.785 195.84C557.358 195.637 557.022 195.36 556.777 195.008C556.542 194.645 556.425 194.229 556.425 193.76C556.425 193.291 556.547 192.885 556.793 192.544C557.038 192.192 557.379 191.92 557.817 191.728C558.254 191.536 558.766 191.44 559.353 191.44C559.801 191.44 560.222 191.488 560.617 191.584C561.022 191.68 561.395 191.835 561.737 192.048V190.976C561.737 190.336 561.566 189.856 561.225 189.536C560.883 189.205 560.382 189.04 559.721 189.04C559.358 189.04 558.985 189.093 558.601 189.2C558.227 189.307 557.811 189.477 557.353 189.712L556.921 188.816C557.966 188.315 558.947 188.064 559.865 188.064C560.835 188.064 561.582 188.304 562.105 188.784C562.627 189.253 562.889 189.931 562.889 190.816V196H561.737V195.088C561.395 195.44 561.017 195.707 560.601 195.888C560.185 196.059 559.737 196.144 559.257 196.144ZM557.545 193.728C557.545 194.187 557.721 194.555 558.073 194.832C558.435 195.109 558.91 195.248 559.497 195.248C559.934 195.248 560.334 195.173 560.697 195.024C561.07 194.875 561.417 194.651 561.737 194.352V192.848C561.406 192.656 561.065 192.517 560.713 192.432C560.361 192.336 559.966 192.288 559.529 192.288C558.931 192.288 558.451 192.421 558.089 192.688C557.726 192.944 557.545 193.291 557.545 193.728ZM567.968 196.128C567.414 196.128 566.923 196.005 566.496 195.76C566.07 195.515 565.734 195.173 565.488 194.736C565.254 194.299 565.136 193.797 565.136 193.232V188.192H566.32V192.896C566.32 193.589 566.507 194.139 566.88 194.544C567.254 194.949 567.76 195.152 568.4 195.152C568.838 195.152 569.227 195.051 569.568 194.848C569.92 194.645 570.214 194.352 570.448 193.968V188.192H571.616V196H570.448V194.736C570.15 195.195 569.792 195.541 569.376 195.776C568.971 196.011 568.502 196.128 567.968 196.128ZM574.013 196V184.448L575.181 184.208V196H574.013ZM580.551 196.16C579.879 196.16 579.367 196 579.015 195.68C578.674 195.349 578.503 194.875 578.503 194.256V189.152H576.887V188.192H578.503V186.048L579.671 185.776V188.192H581.911V189.152H579.671V193.952C579.671 194.368 579.756 194.667 579.927 194.848C580.108 195.029 580.402 195.12 580.807 195.12C581.01 195.12 581.191 195.104 581.351 195.072C581.511 195.04 581.698 194.987 581.911 194.912V195.952C581.698 196.027 581.474 196.08 581.239 196.112C581.004 196.144 580.775 196.16 580.551 196.16Z" fill="#707070"/>
<mask id="path-33-inside-5_8069_8751" fill="white">
<path d="M468 218H599V274H468V218Z"/>
</mask>
<path d="M468 218V219H599V218V217H468V218Z" fill="#C7C7C7" mask="url(#path-33-inside-5_8069_8751)"/>
<path d="M486.656 250.896H489.216C490.027 250.896 490.752 250.699 491.392 250.304C492.032 249.909 492.539 249.376 492.912 248.704C493.296 248.021 493.488 247.253 493.488 246.4C493.488 245.547 493.296 244.784 492.912 244.112C492.539 243.429 492.032 242.891 491.392 242.496C490.752 242.101 490.027 241.904 489.216 241.904H486.656V250.896ZM485.424 252V240.8H489.136C489.957 240.8 490.709 240.944 491.392 241.232C492.085 241.509 492.677 241.904 493.168 242.416C493.669 242.917 494.053 243.509 494.32 244.192C494.597 244.864 494.736 245.6 494.736 246.4C494.736 247.2 494.597 247.941 494.32 248.624C494.053 249.296 493.669 249.888 493.168 250.4C492.677 250.901 492.085 251.296 491.392 251.584C490.709 251.861 489.957 252 489.136 252H485.424ZM500.361 252.16C499.635 252.16 498.979 251.984 498.393 251.632C497.806 251.269 497.342 250.784 497.001 250.176C496.659 249.557 496.489 248.864 496.489 248.096C496.489 247.328 496.649 246.64 496.969 246.032C497.299 245.424 497.742 244.944 498.297 244.592C498.851 244.24 499.47 244.064 500.153 244.064C500.846 244.064 501.459 244.24 501.993 244.592C502.537 244.933 502.963 245.403 503.273 246C503.593 246.587 503.753 247.253 503.753 248V248.352H497.625C497.667 248.885 497.811 249.365 498.057 249.792C498.313 250.208 498.643 250.539 499.049 250.784C499.465 251.019 499.918 251.136 500.409 251.136C500.814 251.136 501.203 251.067 501.577 250.928C501.961 250.779 502.286 250.581 502.553 250.336L503.289 251.12C502.841 251.472 502.377 251.733 501.897 251.904C501.417 252.075 500.905 252.16 500.361 252.16ZM497.657 247.52H502.601C502.547 247.051 502.403 246.635 502.169 246.272C501.945 245.899 501.657 245.605 501.305 245.392C500.963 245.179 500.579 245.072 500.153 245.072C499.726 245.072 499.337 245.179 498.985 245.392C498.633 245.595 498.339 245.883 498.105 246.256C497.881 246.619 497.731 247.04 497.657 247.52ZM505.747 252V240.448L506.915 240.208V252H505.747ZM512.829 252.16C512.104 252.16 511.448 251.984 510.861 251.632C510.275 251.269 509.811 250.784 509.469 250.176C509.128 249.557 508.957 248.864 508.957 248.096C508.957 247.328 509.117 246.64 509.437 246.032C509.768 245.424 510.211 244.944 510.765 244.592C511.32 244.24 511.939 244.064 512.621 244.064C513.315 244.064 513.928 244.24 514.461 244.592C515.005 244.933 515.432 245.403 515.741 246C516.061 246.587 516.221 247.253 516.221 248V248.352H510.093C510.136 248.885 510.28 249.365 510.525 249.792C510.781 250.208 511.112 250.539 511.517 250.784C511.933 251.019 512.387 251.136 512.877 251.136C513.283 251.136 513.672 251.067 514.045 250.928C514.429 250.779 514.755 250.581 515.021 250.336L515.757 251.12C515.309 251.472 514.845 251.733 514.365 251.904C513.885 252.075 513.373 252.16 512.829 252.16ZM510.125 247.52H515.069C515.016 247.051 514.872 246.635 514.637 246.272C514.413 245.899 514.125 245.605 513.773 245.392C513.432 245.179 513.048 245.072 512.621 245.072C512.195 245.072 511.805 245.179 511.453 245.392C511.101 245.595 510.808 245.883 510.573 246.256C510.349 246.619 510.2 247.04 510.125 247.52ZM520.957 252.16C520.285 252.16 519.773 252 519.421 251.68C519.08 251.349 518.909 250.875 518.909 250.256V245.152H517.293V244.192H518.909V242.048L520.077 241.776V244.192H522.317V245.152H520.077V249.952C520.077 250.368 520.163 250.667 520.333 250.848C520.515 251.029 520.808 251.12 521.213 251.12C521.416 251.12 521.597 251.104 521.757 251.072C521.917 251.04 522.104 250.987 522.317 250.912V251.952C522.104 252.027 521.88 252.08 521.645 252.112C521.411 252.144 521.181 252.16 520.957 252.16ZM527.392 252.16C526.667 252.16 526.011 251.984 525.424 251.632C524.837 251.269 524.373 250.784 524.032 250.176C523.691 249.557 523.52 248.864 523.52 248.096C523.52 247.328 523.68 246.64 524 246.032C524.331 245.424 524.773 244.944 525.328 244.592C525.883 244.24 526.501 244.064 527.184 244.064C527.877 244.064 528.491 244.24 529.024 244.592C529.568 244.933 529.995 245.403 530.304 246C530.624 246.587 530.784 247.253 530.784 248V248.352H524.656C524.699 248.885 524.843 249.365 525.088 249.792C525.344 250.208 525.675 250.539 526.08 250.784C526.496 251.019 526.949 251.136 527.44 251.136C527.845 251.136 528.235 251.067 528.608 250.928C528.992 250.779 529.317 250.581 529.584 250.336L530.32 251.12C529.872 251.472 529.408 251.733 528.928 251.904C528.448 252.075 527.936 252.16 527.392 252.16ZM524.688 247.52H529.632C529.579 247.051 529.435 246.635 529.2 246.272C528.976 245.899 528.688 245.605 528.336 245.392C527.995 245.179 527.611 245.072 527.184 245.072C526.757 245.072 526.368 245.179 526.016 245.392C525.664 245.595 525.371 245.883 525.136 246.256C524.912 246.619 524.763 247.04 524.688 247.52Z" fill="#151515"/>
</g>
<path d="M471 42.5H596C597.381 42.5 598.5 43.6193 598.5 45V271C598.5 272.381 597.381 273.5 596 273.5H471C469.619 273.5 468.5 272.381 468.5 271V45C468.5 43.6193 469.619 42.5 471 42.5Z" stroke="#C7C7C7"/>
</g>
<g filter="url(#filter4_d_8069_8751)">
<path d="M544 37V20L556 32H549L544 37Z" fill="#151515"/>
<path d="M557.207 32.5H549.207L543.5 38.207V18.793L557.207 32.5Z" stroke="white"/>
</g>
<g filter="url(#filter5_d_8069_8751)">
<path d="M544 127V110L556 122H549L544 127Z" fill="#151515"/>
<path d="M557.207 122.5H549.207L543.5 128.207V108.793L557.207 122.5Z" stroke="white"/>
</g>
<path d="M698 3H825C826.105 3 827 3.89543 827 5V35C827 36.1046 826.105 37 825 37H698C696.895 37 696 36.1046 696 35V5C696 3.89543 696.895 3 698 3Z" fill="white"/>
<path d="M698 3H825C826.105 3 827 3.89543 827 5V35C827 36.1046 826.105 37 825 37H698C696.895 37 696 36.1046 696 35V5C696 3.89543 696.895 3 698 3Z" stroke="#0066CC" stroke-width="2"/>
<path d="M712.424 26V14.8H714.136L717.88 22.768L721.624 14.8H723.336V26H722.168V16.256L717.88 25.2L713.576 16.224V26H712.424ZM726.302 29.504C726.056 29.504 725.806 29.4667 725.55 29.392V28.352C725.656 28.3733 725.768 28.3893 725.886 28.4C726.003 28.4107 726.104 28.416 726.19 28.416C726.488 28.416 726.734 28.336 726.926 28.176C727.128 28.016 727.299 27.7653 727.438 27.424L728.014 26L725.006 18.192H726.302L728.67 24.608L731.182 18.192H732.478L728.542 27.776C728.371 28.192 728.184 28.528 727.982 28.784C727.779 29.04 727.544 29.2213 727.278 29.328C727.011 29.4453 726.686 29.504 726.302 29.504ZM740.085 26.144C739.53 26.144 739.039 26.0427 738.613 25.84C738.186 25.6373 737.85 25.36 737.605 25.008C737.37 24.6453 737.253 24.2293 737.253 23.76C737.253 23.2907 737.375 22.8853 737.621 22.544C737.866 22.192 738.207 21.92 738.645 21.728C739.082 21.536 739.594 21.44 740.181 21.44C740.629 21.44 741.05 21.488 741.445 21.584C741.85 21.68 742.223 21.8347 742.565 22.048V20.976C742.565 20.336 742.394 19.856 742.053 19.536C741.711 19.2053 741.21 19.04 740.549 19.04C740.186 19.04 739.813 19.0933 739.429 19.2C739.055 19.3067 738.639 19.4773 738.181 19.712L737.749 18.816C738.794 18.3147 739.775 18.064 740.693 18.064C741.663 18.064 742.41 18.304 742.933 18.784C743.455 19.2533 743.717 19.9307 743.717 20.816V26H742.565V25.088C742.223 25.44 741.845 25.7067 741.429 25.888C741.013 26.0587 740.565 26.144 740.085 26.144ZM738.373 23.728C738.373 24.1867 738.549 24.5547 738.901 24.832C739.263 25.1093 739.738 25.248 740.325 25.248C740.762 25.248 741.162 25.1733 741.525 25.024C741.898 24.8747 742.245 24.6507 742.565 24.352V22.848C742.234 22.656 741.893 22.5173 741.541 22.432C741.189 22.336 740.794 22.288 740.357 22.288C739.759 22.288 739.279 22.4213 738.917 22.688C738.554 22.944 738.373 23.2907 738.373 23.728ZM749.595 26.128C748.869 26.128 748.213 25.952 747.627 25.6C747.051 25.2373 746.592 24.752 746.251 24.144C745.909 23.5253 745.739 22.8427 745.739 22.096C745.739 21.3387 745.909 20.656 746.251 20.048C746.592 19.44 747.051 18.96 747.627 18.608C748.213 18.2453 748.869 18.064 749.595 18.064C750.171 18.064 750.72 18.1707 751.243 18.384C751.765 18.5973 752.219 18.896 752.603 19.28L751.851 20.096C751.573 19.7867 751.237 19.5467 750.843 19.376C750.448 19.2053 750.048 19.12 749.643 19.12C749.131 19.12 748.667 19.2533 748.251 19.52C747.845 19.7867 747.52 20.144 747.275 20.592C747.029 21.04 746.907 21.5413 746.907 22.096C746.907 22.6507 747.029 23.152 747.275 23.6C747.52 24.048 747.845 24.4053 748.251 24.672C748.667 24.9387 749.131 25.072 749.643 25.072C750.048 25.072 750.448 24.9867 750.843 24.816C751.237 24.6347 751.573 24.3947 751.851 24.096L752.603 24.912C752.219 25.296 751.765 25.5947 751.243 25.808C750.72 26.0213 750.171 26.128 749.595 26.128ZM757.501 26.128C756.776 26.128 756.12 25.952 755.533 25.6C754.957 25.2373 754.498 24.752 754.157 24.144C753.816 23.5253 753.645 22.8427 753.645 22.096C753.645 21.3387 753.816 20.656 754.157 20.048C754.498 19.44 754.957 18.96 755.533 18.608C756.12 18.2453 756.776 18.064 757.501 18.064C758.077 18.064 758.626 18.1707 759.149 18.384C759.672 18.5973 760.125 18.896 760.509 19.28L759.757 20.096C759.48 19.7867 759.144 19.5467 758.749 19.376C758.354 19.2053 757.954 19.12 757.549 19.12C757.037 19.12 756.573 19.2533 756.157 19.52C755.752 19.7867 755.426 20.144 755.181 20.592C754.936 21.04 754.813 21.5413 754.813 22.096C754.813 22.6507 754.936 23.152 755.181 23.6C755.426 24.048 755.752 24.4053 756.157 24.672C756.573 24.9387 757.037 25.072 757.549 25.072C757.954 25.072 758.354 24.9867 758.749 24.816C759.144 24.6347 759.48 24.3947 759.757 24.096L760.509 24.912C760.125 25.296 759.672 25.5947 759.149 25.808C758.626 26.0213 758.077 26.128 757.501 26.128ZM765.359 26.128C764.634 26.128 763.983 25.952 763.407 25.6C762.831 25.248 762.378 24.768 762.047 24.16C761.716 23.552 761.551 22.864 761.551 22.096C761.551 21.328 761.716 20.64 762.047 20.032C762.378 19.424 762.831 18.944 763.407 18.592C763.983 18.24 764.634 18.064 765.359 18.064C766.074 18.064 766.714 18.24 767.279 18.592C767.855 18.944 768.308 19.424 768.639 20.032C768.97 20.64 769.135 21.328 769.135 22.096C769.135 22.864 768.97 23.552 768.639 24.16C768.308 24.768 767.855 25.248 767.279 25.6C766.714 25.952 766.074 26.128 765.359 26.128ZM765.343 25.104C765.855 25.104 766.308 24.976 766.703 24.72C767.098 24.4533 767.407 24.0907 767.631 23.632C767.866 23.1733 767.983 22.6613 767.983 22.096C767.983 21.52 767.866 21.008 767.631 20.56C767.407 20.1013 767.098 19.744 766.703 19.488C766.308 19.2213 765.855 19.088 765.343 19.088C764.831 19.088 764.378 19.2213 763.983 19.488C763.588 19.744 763.274 20.1013 763.039 20.56C762.815 21.008 762.703 21.52 762.703 22.096C762.703 22.6613 762.815 23.1733 763.039 23.632C763.274 24.0907 763.588 24.4533 763.983 24.72C764.378 24.976 764.831 25.104 765.343 25.104ZM773.968 26.128C773.414 26.128 772.923 26.0053 772.496 25.76C772.07 25.5147 771.734 25.1733 771.488 24.736C771.254 24.2987 771.136 23.7973 771.136 23.232V18.192H772.32V22.896C772.32 23.5893 772.507 24.1387 772.88 24.544C773.254 24.9493 773.76 25.152 774.4 25.152C774.838 25.152 775.227 25.0507 775.568 24.848C775.92 24.6453 776.214 24.352 776.448 23.968V18.192H777.616V26H776.448V24.736C776.15 25.1947 775.792 25.5413 775.376 25.776C774.971 26.0107 774.502 26.128 773.968 26.128ZM780.013 26V18.192H781.181V19.456C781.479 18.9867 781.837 18.64 782.253 18.416C782.669 18.1813 783.138 18.064 783.661 18.064C784.226 18.064 784.717 18.1867 785.133 18.432C785.559 18.6667 785.89 19.0027 786.125 19.44C786.37 19.8667 786.493 20.368 786.493 20.944V26H785.325V21.28C785.325 20.5867 785.133 20.0427 784.749 19.648C784.375 19.2427 783.869 19.04 783.229 19.04C782.802 19.04 782.413 19.1413 782.061 19.344C781.709 19.5467 781.415 19.8453 781.181 20.24V26H780.013ZM791.582 26.16C790.91 26.16 790.398 26 790.046 25.68C789.705 25.3493 789.534 24.8747 789.534 24.256V19.152H787.918V18.192H789.534V16.048L790.702 15.776V18.192H792.942V19.152H790.702V23.952C790.702 24.368 790.788 24.6667 790.958 24.848C791.14 25.0293 791.433 25.12 791.838 25.12C792.041 25.12 792.222 25.104 792.382 25.072C792.542 25.04 792.729 24.9867 792.942 24.912V25.952C792.729 26.0267 792.505 26.08 792.27 26.112C792.036 26.144 791.806 26.16 791.582 26.16Z" fill="#151515"/>
<path d="M811.354 21.6465L807.53 17.8232C807.238 17.5303 806.762 17.5303 806.47 17.8232L802.647 21.6465C802.504 21.7895 802.461 22.0044 802.538 22.1914C802.615 22.3784 802.798 22.5 803 22.5H811C811.202 22.5 811.385 22.3784 811.462 22.1914C811.54 22.0044 811.497 21.7895 811.354 21.6465Z" fill="#151515"/>
<g filter="url(#filter6_d_8069_8751)">
<g clip-path="url(#clip1_8069_8751)">
<path d="M695 45C695 43.3431 696.343 42 698 42H942C943.657 42 945 43.3431 945 45V175C945 176.657 943.657 178 942 178H698C696.343 178 695 176.657 695 175V45Z" fill="white"/>
<path d="M715.528 76L711.144 64.8H712.456L716.296 74.816L720.152 64.8H721.416L717 76H715.528ZM722.747 76V68.192H723.914V76H722.747ZM723.339 66.256C723.104 66.256 722.901 66.176 722.731 66.016C722.571 65.8453 722.491 65.648 722.491 65.424C722.491 65.2 722.571 65.008 722.731 64.848C722.901 64.6773 723.104 64.592 723.339 64.592C723.573 64.592 723.771 64.6773 723.931 64.848C724.101 65.008 724.187 65.2 724.187 65.424C724.187 65.648 724.101 65.8453 723.931 66.016C723.771 66.176 723.573 66.256 723.339 66.256ZM729.829 76.16C729.104 76.16 728.448 75.984 727.861 75.632C727.275 75.2693 726.811 74.784 726.469 74.176C726.128 73.5573 725.957 72.864 725.957 72.096C725.957 71.328 726.117 70.64 726.437 70.032C726.768 69.424 727.211 68.944 727.765 68.592C728.32 68.24 728.939 68.064 729.621 68.064C730.315 68.064 730.928 68.24 731.461 68.592C732.005 68.9333 732.432 69.4027 732.741 70C733.061 70.5867 733.221 71.2533 733.221 72V72.352H727.093C727.136 72.8853 727.28 73.3653 727.525 73.792C727.781 74.208 728.112 74.5387 728.517 74.784C728.933 75.0187 729.387 75.136 729.877 75.136C730.283 75.136 730.672 75.0667 731.045 74.928C731.429 74.7787 731.755 74.5813 732.021 74.336L732.757 75.12C732.309 75.472 731.845 75.7333 731.365 75.904C730.885 76.0747 730.373 76.16 729.829 76.16ZM727.125 71.52H732.069C732.016 71.0507 731.872 70.6347 731.637 70.272C731.413 69.8987 731.125 69.6053 730.773 69.392C730.432 69.1787 730.048 69.072 729.621 69.072C729.195 69.072 728.805 69.1787 728.453 69.392C728.101 69.5947 727.808 69.8827 727.573 70.256C727.349 70.6187 727.2 71.04 727.125 71.52ZM736.451 76L734.307 68.192H735.443L737.075 74.432L738.947 68.192H739.987L741.859 74.432L743.475 68.192H744.579L742.451 76H741.315L739.459 69.696L737.603 76H736.451ZM749.966 79.344V68.192H751.118V69.312C751.416 68.9173 751.779 68.6187 752.206 68.416C752.643 68.2027 753.123 68.096 753.646 68.096C754.328 68.096 754.936 68.2773 755.47 68.64C756.014 68.992 756.446 69.472 756.766 70.08C757.086 70.6773 757.246 71.3493 757.246 72.096C757.246 72.8427 757.08 73.52 756.75 74.128C756.43 74.736 755.992 75.2213 755.438 75.584C754.894 75.936 754.275 76.112 753.582 76.112C753.091 76.112 752.638 76.0213 752.222 75.84C751.806 75.648 751.443 75.376 751.134 75.024V79.344H749.966ZM753.358 75.104C753.88 75.104 754.344 74.976 754.75 74.72C755.166 74.4533 755.491 74.096 755.726 73.648C755.971 73.1893 756.094 72.6773 756.094 72.112C756.094 71.536 755.971 71.024 755.726 70.576C755.491 70.128 755.166 69.776 754.75 69.52C754.344 69.2533 753.88 69.12 753.358 69.12C752.899 69.12 752.472 69.216 752.078 69.408C751.694 69.5893 751.379 69.8507 751.134 70.192V74.016C751.39 74.3573 751.71 74.624 752.094 74.816C752.488 75.008 752.91 75.104 753.358 75.104ZM759.294 76V68.192H760.462V69.792C760.664 69.248 760.952 68.8267 761.326 68.528C761.71 68.2187 762.147 68.064 762.638 68.064C762.776 68.064 762.904 68.0747 763.022 68.096C763.139 68.1067 763.256 68.1333 763.374 68.176V69.232C763.246 69.1893 763.107 69.1573 762.958 69.136C762.819 69.104 762.686 69.088 762.558 69.088C762.078 69.088 761.656 69.2267 761.294 69.504C760.942 69.7813 760.664 70.1707 760.462 70.672V76H759.294ZM767.89 76.128C767.165 76.128 766.514 75.952 765.938 75.6C765.362 75.248 764.909 74.768 764.578 74.16C764.248 73.552 764.082 72.864 764.082 72.096C764.082 71.328 764.248 70.64 764.578 70.032C764.909 69.424 765.362 68.944 765.938 68.592C766.514 68.24 767.165 68.064 767.89 68.064C768.605 68.064 769.245 68.24 769.81 68.592C770.386 68.944 770.84 69.424 771.17 70.032C771.501 70.64 771.666 71.328 771.666 72.096C771.666 72.864 771.501 73.552 771.17 74.16C770.84 74.768 770.386 75.248 769.81 75.6C769.245 75.952 768.605 76.128 767.89 76.128ZM767.874 75.104C768.386 75.104 768.84 74.976 769.234 74.72C769.629 74.4533 769.938 74.0907 770.162 73.632C770.397 73.1733 770.514 72.6613 770.514 72.096C770.514 71.52 770.397 71.008 770.162 70.56C769.938 70.1013 769.629 69.744 769.234 69.488C768.84 69.2213 768.386 69.088 767.874 69.088C767.362 69.088 766.909 69.2213 766.514 69.488C766.12 69.744 765.805 70.1013 765.57 70.56C765.346 71.008 765.234 71.52 765.234 72.096C765.234 72.6613 765.346 73.1733 765.57 73.632C765.805 74.0907 766.12 74.4533 766.514 74.72C766.909 74.976 767.362 75.104 767.874 75.104ZM774.223 76V69.152H772.479V68.192H774.223V66.56C774.223 65.792 774.426 65.2 774.831 64.784C775.237 64.368 775.813 64.16 776.559 64.16C776.773 64.16 776.965 64.1707 777.135 64.192C777.317 64.2133 777.477 64.2507 777.615 64.304V65.36C777.445 65.3067 777.29 65.2693 777.151 65.248C777.013 65.2267 776.853 65.216 776.671 65.216C776.223 65.216 775.898 65.328 775.695 65.552C775.493 65.7653 775.391 66.1067 775.391 66.576V68.192H777.615V69.152H775.391V76H774.223ZM779.137 76V68.192H780.305V76H779.137ZM779.729 66.256C779.494 66.256 779.292 66.176 779.121 66.016C778.961 65.8453 778.881 65.648 778.881 65.424C778.881 65.2 778.961 65.008 779.121 64.848C779.292 64.6773 779.494 64.592 779.729 64.592C779.964 64.592 780.161 64.6773 780.321 64.848C780.492 65.008 780.577 65.2 780.577 65.424C780.577 65.648 780.492 65.8453 780.321 66.016C780.161 66.176 779.964 66.256 779.729 66.256ZM782.7 76V64.448L783.868 64.208V76H782.7ZM789.783 76.16C789.057 76.16 788.401 75.984 787.815 75.632C787.228 75.2693 786.764 74.784 786.423 74.176C786.081 73.5573 785.911 72.864 785.911 72.096C785.911 71.328 786.071 70.64 786.391 70.032C786.721 69.424 787.164 68.944 787.719 68.592C788.273 68.24 788.892 68.064 789.575 68.064C790.268 68.064 790.881 68.24 791.415 68.592C791.959 68.9333 792.385 69.4027 792.695 70C793.015 70.5867 793.175 71.2533 793.175 72V72.352H787.047C787.089 72.8853 787.233 73.3653 787.479 73.792C787.735 74.208 788.065 74.5387 788.471 74.784C788.887 75.0187 789.34 75.136 789.831 75.136C790.236 75.136 790.625 75.0667 790.999 74.928C791.383 74.7787 791.708 74.5813 791.975 74.336L792.711 75.12C792.263 75.472 791.799 75.7333 791.319 75.904C790.839 76.0747 790.327 76.16 789.783 76.16ZM787.079 71.52H792.023C791.969 71.0507 791.825 70.6347 791.591 70.272C791.367 69.8987 791.079 69.6053 790.727 69.392C790.385 69.1787 790.001 69.072 789.575 69.072C789.148 69.072 788.759 69.1787 788.407 69.392C788.055 69.5947 787.761 69.8827 787.527 70.256C787.303 70.6187 787.153 71.04 787.079 71.52Z" fill="#0066CC"/>
<path d="M711 82H794" stroke="#707070" stroke-linecap="square" stroke-dasharray="3 3"/>
<path d="M695 90H945V130H695V90Z" fill="#F2F2F2"/>
<rect x="700" y="95" width="240" height="30" rx="4" stroke="#0066CC" stroke-width="2"/>
<path d="M716.696 116.176C715.779 116.176 714.979 115.979 714.296 115.584C713.624 115.179 713.107 114.608 712.744 113.872C712.381 113.136 712.2 112.267 712.2 111.264V104.8H713.432V111.264C713.432 112.032 713.565 112.699 713.832 113.264C714.099 113.829 714.477 114.272 714.968 114.592C715.459 114.901 716.035 115.056 716.696 115.056C717.357 115.056 717.933 114.901 718.424 114.592C718.915 114.272 719.293 113.829 719.56 113.264C719.827 112.699 719.96 112.032 719.96 111.264V104.8H721.192V111.264C721.192 112.267 721.011 113.136 720.648 113.872C720.285 114.608 719.768 115.179 719.096 115.584C718.424 115.979 717.624 116.176 716.696 116.176ZM723.591 119.344V108.192H724.743V109.312C725.041 108.917 725.404 108.619 725.831 108.416C726.268 108.203 726.748 108.096 727.271 108.096C727.953 108.096 728.561 108.277 729.095 108.64C729.639 108.992 730.071 109.472 730.391 110.08C730.711 110.677 730.871 111.349 730.871 112.096C730.871 112.843 730.705 113.52 730.375 114.128C730.055 114.736 729.617 115.221 729.063 115.584C728.519 115.936 727.9 116.112 727.207 116.112C726.716 116.112 726.263 116.021 725.847 115.84C725.431 115.648 725.068 115.376 724.759 115.024V119.344H723.591ZM726.983 115.104C727.505 115.104 727.969 114.976 728.375 114.72C728.791 114.453 729.116 114.096 729.351 113.648C729.596 113.189 729.719 112.677 729.719 112.112C729.719 111.536 729.596 111.024 729.351 110.576C729.116 110.128 728.791 109.776 728.375 109.52C727.969 109.253 727.505 109.12 726.983 109.12C726.524 109.12 726.097 109.216 725.703 109.408C725.319 109.589 725.004 109.851 724.759 110.192V114.016C725.015 114.357 725.335 114.624 725.719 114.816C726.113 115.008 726.535 115.104 726.983 115.104ZM736.167 116.112C735.495 116.112 734.887 115.936 734.343 115.584C733.799 115.221 733.367 114.741 733.047 114.144C732.727 113.536 732.567 112.859 732.567 112.112C732.567 111.355 732.727 110.677 733.047 110.08C733.377 109.472 733.82 108.992 734.375 108.64C734.929 108.277 735.548 108.096 736.231 108.096C736.711 108.096 737.159 108.192 737.575 108.384C737.991 108.565 738.353 108.832 738.663 109.184V104.448L739.831 104.208V116H738.663V114.96C738.364 115.333 738.001 115.621 737.575 115.824C737.148 116.016 736.679 116.112 736.167 116.112ZM736.455 115.088C736.913 115.088 737.335 114.997 737.719 114.816C738.103 114.635 738.417 114.379 738.663 114.048V110.176C738.407 109.845 738.081 109.589 737.687 109.408C737.303 109.216 736.892 109.12 736.455 109.12C735.932 109.12 735.463 109.248 735.047 109.504C734.641 109.76 734.316 110.112 734.071 110.56C733.836 111.008 733.719 111.52 733.719 112.096C733.719 112.661 733.836 113.173 734.071 113.632C734.316 114.08 734.641 114.437 735.047 114.704C735.463 114.96 735.932 115.088 736.455 115.088ZM744.647 116.144C744.093 116.144 743.602 116.043 743.175 115.84C742.749 115.637 742.413 115.36 742.167 115.008C741.933 114.645 741.815 114.229 741.815 113.76C741.815 113.291 741.938 112.885 742.183 112.544C742.429 112.192 742.77 111.92 743.207 111.728C743.645 111.536 744.157 111.44 744.743 111.44C745.191 111.44 745.613 111.488 746.007 111.584C746.413 111.68 746.786 111.835 747.127 112.048V110.976C747.127 110.336 746.957 109.856 746.615 109.536C746.274 109.205 745.773 109.04 745.111 109.04C744.749 109.04 744.375 109.093 743.991 109.2C743.618 109.307 743.202 109.477 742.743 109.712L742.311 108.816C743.357 108.315 744.338 108.064 745.255 108.064C746.226 108.064 746.973 108.304 747.495 108.784C748.018 109.253 748.279 109.931 748.279 110.816V116H747.127V115.088C746.786 115.44 746.407 115.707 745.991 115.888C745.575 116.059 745.127 116.144 744.647 116.144ZM742.935 113.728C742.935 114.187 743.111 114.555 743.463 114.832C743.826 115.109 744.301 115.248 744.887 115.248C745.325 115.248 745.725 115.173 746.087 115.024C746.461 114.875 746.807 114.651 747.127 114.352V112.848C746.797 112.656 746.455 112.517 746.103 112.432C745.751 112.336 745.357 112.288 744.919 112.288C744.322 112.288 743.842 112.421 743.479 112.688C743.117 112.944 742.935 113.291 742.935 113.728ZM753.395 116.16C752.723 116.16 752.211 116 751.859 115.68C751.517 115.349 751.347 114.875 751.347 114.256V109.152H749.731V108.192H751.347V106.048L752.515 105.776V108.192H754.755V109.152H752.515V113.952C752.515 114.368 752.6 114.667 752.771 114.848C752.952 115.029 753.245 115.12 753.651 115.12C753.853 115.12 754.035 115.104 754.195 115.072C754.355 115.04 754.541 114.987 754.755 114.912V115.952C754.541 116.027 754.317 116.08 754.083 116.112C753.848 116.144 753.619 116.16 753.395 116.16ZM759.829 116.16C759.104 116.16 758.448 115.984 757.861 115.632C757.275 115.269 756.811 114.784 756.469 114.176C756.128 113.557 755.957 112.864 755.957 112.096C755.957 111.328 756.117 110.64 756.437 110.032C756.768 109.424 757.211 108.944 757.765 108.592C758.32 108.24 758.939 108.064 759.621 108.064C760.315 108.064 760.928 108.24 761.461 108.592C762.005 108.933 762.432 109.403 762.741 110C763.061 110.587 763.221 111.253 763.221 112V112.352H757.093C757.136 112.885 757.28 113.365 757.525 113.792C757.781 114.208 758.112 114.539 758.517 114.784C758.933 115.019 759.387 115.136 759.877 115.136C760.283 115.136 760.672 115.067 761.045 114.928C761.429 114.779 761.755 114.581 762.021 114.336L762.757 115.12C762.309 115.472 761.845 115.733 761.365 115.904C760.885 116.075 760.373 116.16 759.829 116.16ZM757.125 111.52H762.069C762.016 111.051 761.872 110.635 761.637 110.272C761.413 109.899 761.125 109.605 760.773 109.392C760.432 109.179 760.048 109.072 759.621 109.072C759.195 109.072 758.805 109.179 758.453 109.392C758.101 109.595 757.808 109.883 757.573 110.256C757.349 110.619 757.2 111.04 757.125 111.52ZM768.95 119.344V108.192H770.102V109.312C770.401 108.917 770.763 108.619 771.19 108.416C771.627 108.203 772.107 108.096 772.63 108.096C773.313 108.096 773.921 108.277 774.454 108.64C774.998 108.992 775.43 109.472 775.75 110.08C776.07 110.677 776.23 111.349 776.23 112.096C776.23 112.843 776.065 113.52 775.734 114.128C775.414 114.736 774.977 115.221 774.422 115.584C773.878 115.936 773.259 116.112 772.566 116.112C772.075 116.112 771.622 116.021 771.206 115.84C770.79 115.648 770.427 115.376 770.118 115.024V119.344H768.95ZM772.342 115.104C772.865 115.104 773.329 114.976 773.734 114.72C774.15 114.453 774.475 114.096 774.71 113.648C774.955 113.189 775.078 112.677 775.078 112.112C775.078 111.536 774.955 111.024 774.71 110.576C774.475 110.128 774.15 109.776 773.734 109.52C773.329 109.253 772.865 109.12 772.342 109.12C771.883 109.12 771.457 109.216 771.062 109.408C770.678 109.589 770.363 109.851 770.118 110.192V114.016C770.374 114.357 770.694 114.624 771.078 114.816C771.473 115.008 771.894 115.104 772.342 115.104ZM778.278 116V108.192H779.446V109.792C779.649 109.248 779.937 108.827 780.31 108.528C780.694 108.219 781.131 108.064 781.622 108.064C781.761 108.064 781.889 108.075 782.006 108.096C782.123 108.107 782.241 108.133 782.358 108.176V109.232C782.23 109.189 782.091 109.157 781.942 109.136C781.803 109.104 781.67 109.088 781.542 109.088C781.062 109.088 780.641 109.227 780.278 109.504C779.926 109.781 779.649 110.171 779.446 110.672V116H778.278ZM786.939 116.16C786.213 116.16 785.557 115.984 784.971 115.632C784.384 115.269 783.92 114.784 783.579 114.176C783.237 113.557 783.067 112.864 783.067 112.096C783.067 111.328 783.227 110.64 783.547 110.032C783.877 109.424 784.32 108.944 784.875 108.592C785.429 108.24 786.048 108.064 786.731 108.064C787.424 108.064 788.037 108.24 788.571 108.592C789.115 108.933 789.541 109.403 789.851 110C790.171 110.587 790.331 111.253 790.331 112V112.352H784.203C784.245 112.885 784.389 113.365 784.635 113.792C784.891 114.208 785.221 114.539 785.627 114.784C786.043 115.019 786.496 115.136 786.987 115.136C787.392 115.136 787.781 115.067 788.155 114.928C788.539 114.779 788.864 114.581 789.131 114.336L789.867 115.12C789.419 115.472 788.955 115.733 788.475 115.904C787.995 116.075 787.483 116.16 786.939 116.16ZM784.235 111.52H789.179C789.125 111.051 788.981 110.635 788.747 110.272C788.523 109.899 788.235 109.605 787.883 109.392C787.541 109.179 787.157 109.072 786.731 109.072C786.304 109.072 785.915 109.179 785.563 109.392C785.211 109.595 784.917 109.883 784.683 110.256C784.459 110.619 784.309 111.04 784.235 111.52ZM793.083 116V109.152H791.339V108.192H793.083V106.56C793.083 105.792 793.285 105.2 793.691 104.784C794.096 104.368 794.672 104.16 795.419 104.16C795.632 104.16 795.824 104.171 795.995 104.192C796.176 104.213 796.336 104.251 796.475 104.304V105.36C796.304 105.307 796.149 105.269 796.011 105.248C795.872 105.227 795.712 105.216 795.531 105.216C795.083 105.216 794.757 105.328 794.555 105.552C794.352 105.765 794.251 106.107 794.251 106.576V108.192H796.475V109.152H794.251V116H793.083ZM801.204 116.16C800.479 116.16 799.823 115.984 799.236 115.632C798.65 115.269 798.186 114.784 797.844 114.176C797.503 113.557 797.332 112.864 797.332 112.096C797.332 111.328 797.492 110.64 797.812 110.032C798.143 109.424 798.586 108.944 799.14 108.592C799.695 108.24 800.314 108.064 800.996 108.064C801.69 108.064 802.303 108.24 802.836 108.592C803.38 108.933 803.807 109.403 804.116 110C804.436 110.587 804.596 111.253 804.596 112V112.352H798.468C798.511 112.885 798.655 113.365 798.9 113.792C799.156 114.208 799.487 114.539 799.892 114.784C800.308 115.019 800.762 115.136 801.252 115.136C801.658 115.136 802.047 115.067 802.42 114.928C802.804 114.779 803.13 114.581 803.396 114.336L804.132 115.12C803.684 115.472 803.22 115.733 802.74 115.904C802.26 116.075 801.748 116.16 801.204 116.16ZM798.5 111.52H803.444C803.391 111.051 803.247 110.635 803.012 110.272C802.788 109.899 802.5 109.605 802.148 109.392C801.807 109.179 801.423 109.072 800.996 109.072C800.57 109.072 800.18 109.179 799.828 109.392C799.476 109.595 799.183 109.883 798.948 110.256C798.724 110.619 798.575 111.04 798.5 111.52ZM806.591 116V108.192H807.759V109.792C807.961 109.248 808.249 108.827 808.623 108.528C809.007 108.219 809.444 108.064 809.935 108.064C810.073 108.064 810.201 108.075 810.319 108.096C810.436 108.107 810.553 108.133 810.671 108.176V109.232C810.543 109.189 810.404 109.157 810.255 109.136C810.116 109.104 809.983 109.088 809.855 109.088C809.375 109.088 808.953 109.227 808.591 109.504C808.239 109.781 807.961 110.171 807.759 110.672V116H806.591ZM815.251 116.16C814.526 116.16 813.87 115.984 813.283 115.632C812.697 115.269 812.233 114.784 811.891 114.176C811.55 113.557 811.379 112.864 811.379 112.096C811.379 111.328 811.539 110.64 811.859 110.032C812.19 109.424 812.633 108.944 813.187 108.592C813.742 108.24 814.361 108.064 815.043 108.064C815.737 108.064 816.35 108.24 816.883 108.592C817.427 108.933 817.854 109.403 818.163 110C818.483 110.587 818.643 111.253 818.643 112V112.352H812.515C812.558 112.885 812.702 113.365 812.947 113.792C813.203 114.208 813.534 114.539 813.939 114.784C814.355 115.019 814.809 115.136 815.299 115.136C815.705 115.136 816.094 115.067 816.467 114.928C816.851 114.779 817.177 114.581 817.443 114.336L818.179 115.12C817.731 115.472 817.267 115.733 816.787 115.904C816.307 116.075 815.795 116.16 815.251 116.16ZM812.547 111.52H817.491C817.438 111.051 817.294 110.635 817.059 110.272C816.835 109.899 816.547 109.605 816.195 109.392C815.854 109.179 815.47 109.072 815.043 109.072C814.617 109.072 814.227 109.179 813.875 109.392C813.523 109.595 813.23 109.883 812.995 110.256C812.771 110.619 812.622 111.04 812.547 111.52ZM820.638 116V108.192H821.806V109.456C822.104 108.987 822.462 108.64 822.878 108.416C823.294 108.181 823.763 108.064 824.286 108.064C824.851 108.064 825.342 108.187 825.758 108.432C826.184 108.667 826.515 109.003 826.75 109.44C826.995 109.867 827.118 110.368 827.118 110.944V116H825.95V111.28C825.95 110.587 825.758 110.043 825.374 109.648C825 109.243 824.494 109.04 823.854 109.04C823.427 109.04 823.038 109.141 822.686 109.344C822.334 109.547 822.04 109.845 821.806 110.24V116H820.638ZM832.97 116.128C832.244 116.128 831.588 115.952 831.002 115.6C830.426 115.237 829.967 114.752 829.626 114.144C829.284 113.525 829.114 112.843 829.114 112.096C829.114 111.339 829.284 110.656 829.626 110.048C829.967 109.44 830.426 108.96 831.002 108.608C831.588 108.245 832.244 108.064 832.97 108.064C833.546 108.064 834.095 108.171 834.618 108.384C835.14 108.597 835.594 108.896 835.978 109.28L835.226 110.096C834.948 109.787 834.612 109.547 834.218 109.376C833.823 109.205 833.423 109.12 833.018 109.12C832.506 109.12 832.042 109.253 831.626 109.52C831.22 109.787 830.895 110.144 830.65 110.592C830.404 111.04 830.282 111.541 830.282 112.096C830.282 112.651 830.404 113.152 830.65 113.6C830.895 114.048 831.22 114.405 831.626 114.672C832.042 114.939 832.506 115.072 833.018 115.072C833.423 115.072 833.823 114.987 834.218 114.816C834.612 114.635 834.948 114.395 835.226 114.096L835.978 114.912C835.594 115.296 835.14 115.595 834.618 115.808C834.095 116.021 833.546 116.128 832.97 116.128ZM840.892 116.16C840.167 116.16 839.511 115.984 838.924 115.632C838.337 115.269 837.873 114.784 837.532 114.176C837.191 113.557 837.02 112.864 837.02 112.096C837.02 111.328 837.18 110.64 837.5 110.032C837.831 109.424 838.273 108.944 838.828 108.592C839.383 108.24 840.001 108.064 840.684 108.064C841.377 108.064 841.991 108.24 842.524 108.592C843.068 108.933 843.495 109.403 843.804 110C844.124 110.587 844.284 111.253 844.284 112V112.352H838.156C838.199 112.885 838.343 113.365 838.588 113.792C838.844 114.208 839.175 114.539 839.58 114.784C839.996 115.019 840.449 115.136 840.94 115.136C841.345 115.136 841.735 115.067 842.108 114.928C842.492 114.779 842.817 114.581 843.084 114.336L843.82 115.12C843.372 115.472 842.908 115.733 842.428 115.904C841.948 116.075 841.436 116.16 840.892 116.16ZM838.188 111.52H843.132C843.079 111.051 842.935 110.635 842.7 110.272C842.476 109.899 842.188 109.605 841.836 109.392C841.495 109.179 841.111 109.072 840.684 109.072C840.257 109.072 839.868 109.179 839.516 109.392C839.164 109.595 838.871 109.883 838.636 110.256C838.412 110.619 838.263 111.04 838.188 111.52ZM848.772 116.16C848.132 116.16 847.54 116.064 846.996 115.872C846.452 115.669 845.988 115.381 845.604 115.008L846.228 114.24C846.698 114.581 847.13 114.832 847.524 114.992C847.919 115.141 848.324 115.216 848.74 115.216C849.306 115.216 849.775 115.083 850.148 114.816C850.522 114.549 850.708 114.208 850.708 113.792C850.708 113.472 850.596 113.221 850.372 113.04C850.159 112.859 849.802 112.72 849.3 112.624L848.02 112.4C847.263 112.261 846.703 112.027 846.34 111.696C845.988 111.365 845.812 110.917 845.812 110.352C845.812 109.904 845.93 109.509 846.164 109.168C846.41 108.827 846.746 108.56 847.172 108.368C847.599 108.165 848.084 108.064 848.628 108.064C849.162 108.064 849.668 108.144 850.148 108.304C850.628 108.453 851.114 108.699 851.604 109.04L851.028 109.856C850.623 109.568 850.218 109.36 849.812 109.232C849.407 109.093 848.996 109.024 848.58 109.024C848.068 109.024 847.658 109.136 847.348 109.36C847.039 109.584 846.884 109.888 846.884 110.272C846.884 110.592 846.98 110.837 847.172 111.008C847.375 111.179 847.727 111.307 848.228 111.392L849.54 111.632C850.33 111.771 850.906 112.011 851.268 112.352C851.631 112.693 851.812 113.152 851.812 113.728C851.812 114.187 851.679 114.603 851.412 114.976C851.146 115.339 850.783 115.627 850.324 115.84C849.866 116.053 849.348 116.16 848.772 116.16Z" fill="#003366"/>
<path d="M711 122H929" stroke="#003366" stroke-linecap="square" stroke-dasharray="3 3"/>
<path d="M717.56 156.176C716.76 156.176 716.019 156.027 715.336 155.728C714.653 155.429 714.051 155.019 713.528 154.496C713.016 153.963 712.616 153.349 712.328 152.656C712.04 151.952 711.896 151.2 711.896 150.4C711.896 149.6 712.04 148.853 712.328 148.16C712.616 147.456 713.016 146.843 713.528 146.32C714.051 145.787 714.653 145.371 715.336 145.072C716.019 144.773 716.76 144.624 717.56 144.624C718.413 144.624 719.219 144.779 719.976 145.088C720.744 145.397 721.395 145.856 721.928 146.464L721.096 147.296C720.68 146.795 720.157 146.411 719.528 146.144C718.899 145.877 718.243 145.744 717.56 145.744C716.931 145.744 716.349 145.867 715.816 146.112C715.283 146.347 714.813 146.677 714.408 147.104C714.013 147.52 713.704 148.011 713.48 148.576C713.256 149.141 713.144 149.749 713.144 150.4C713.144 151.051 713.256 151.659 713.48 152.224C713.704 152.789 714.013 153.285 714.408 153.712C714.813 154.128 715.283 154.459 715.816 154.704C716.349 154.939 716.931 155.056 717.56 155.056C718.307 155.056 718.973 154.891 719.56 154.56C720.157 154.229 720.637 153.776 721 153.2C721.373 152.613 721.592 151.957 721.656 151.232H717.88V150.144H722.904V150.64C722.904 151.419 722.771 152.144 722.504 152.816C722.237 153.477 721.859 154.064 721.368 154.576C720.888 155.077 720.323 155.472 719.672 155.76C719.021 156.037 718.317 156.176 717.56 156.176ZM728.437 156.128C727.712 156.128 727.061 155.952 726.485 155.6C725.909 155.248 725.456 154.768 725.125 154.16C724.795 153.552 724.629 152.864 724.629 152.096C724.629 151.328 724.795 150.64 725.125 150.032C725.456 149.424 725.909 148.944 726.485 148.592C727.061 148.24 727.712 148.064 728.437 148.064C729.152 148.064 729.792 148.24 730.357 148.592C730.933 148.944 731.387 149.424 731.717 150.032C732.048 150.64 732.213 151.328 732.213 152.096C732.213 152.864 732.048 153.552 731.717 154.16C731.387 154.768 730.933 155.248 730.357 155.6C729.792 155.952 729.152 156.128 728.437 156.128ZM728.421 155.104C728.933 155.104 729.387 154.976 729.781 154.72C730.176 154.453 730.485 154.091 730.709 153.632C730.944 153.173 731.061 152.661 731.061 152.096C731.061 151.52 730.944 151.008 730.709 150.56C730.485 150.101 730.176 149.744 729.781 149.488C729.387 149.221 728.933 149.088 728.421 149.088C727.909 149.088 727.456 149.221 727.061 149.488C726.667 149.744 726.352 150.101 726.117 150.56C725.893 151.008 725.781 151.52 725.781 152.096C725.781 152.661 725.893 153.173 726.117 153.632C726.352 154.091 726.667 154.453 727.061 154.72C727.456 154.976 727.909 155.104 728.421 155.104ZM740.973 156.16C740.301 156.16 739.789 156 739.437 155.68C739.096 155.349 738.925 154.875 738.925 154.256V149.152H737.309V148.192H738.925V146.048L740.093 145.776V148.192H742.333V149.152H740.093V153.952C740.093 154.368 740.178 154.667 740.349 154.848C740.53 155.029 740.824 155.12 741.229 155.12C741.432 155.12 741.613 155.104 741.773 155.072C741.933 155.04 742.12 154.987 742.333 154.912V155.952C742.12 156.027 741.896 156.08 741.661 156.112C741.426 156.144 741.197 156.16 740.973 156.16ZM747.344 156.128C746.618 156.128 745.968 155.952 745.392 155.6C744.816 155.248 744.362 154.768 744.032 154.16C743.701 153.552 743.536 152.864 743.536 152.096C743.536 151.328 743.701 150.64 744.032 150.032C744.362 149.424 744.816 148.944 745.392 148.592C745.968 148.24 746.618 148.064 747.344 148.064C748.058 148.064 748.698 148.24 749.264 148.592C749.84 148.944 750.293 149.424 750.624 150.032C750.954 150.64 751.12 151.328 751.12 152.096C751.12 152.864 750.954 153.552 750.624 154.16C750.293 154.768 749.84 155.248 749.264 155.6C748.698 155.952 748.058 156.128 747.344 156.128ZM747.328 155.104C747.84 155.104 748.293 154.976 748.688 154.72C749.082 154.453 749.392 154.091 749.616 153.632C749.85 153.173 749.968 152.661 749.968 152.096C749.968 151.52 749.85 151.008 749.616 150.56C749.392 150.101 749.082 149.744 748.688 149.488C748.293 149.221 747.84 149.088 747.328 149.088C746.816 149.088 746.362 149.221 745.968 149.488C745.573 149.744 745.258 150.101 745.024 150.56C744.8 151.008 744.688 151.52 744.688 152.096C744.688 152.661 744.8 153.173 745.024 153.632C745.258 154.091 745.573 154.453 745.968 154.72C746.362 154.976 746.816 155.104 747.328 155.104ZM760.359 156.128C759.634 156.128 758.983 155.952 758.407 155.6C757.831 155.248 757.378 154.768 757.047 154.16C756.716 153.552 756.551 152.864 756.551 152.096C756.551 151.328 756.716 150.64 757.047 150.032C757.378 149.424 757.831 148.944 758.407 148.592C758.983 148.24 759.634 148.064 760.359 148.064C761.074 148.064 761.714 148.24 762.279 148.592C762.855 148.944 763.308 149.424 763.639 150.032C763.97 150.64 764.135 151.328 764.135 152.096C764.135 152.864 763.97 153.552 763.639 154.16C763.308 154.768 762.855 155.248 762.279 155.6C761.714 155.952 761.074 156.128 760.359 156.128ZM760.343 155.104C760.855 155.104 761.308 154.976 761.703 154.72C762.098 154.453 762.407 154.091 762.631 153.632C762.866 153.173 762.983 152.661 762.983 152.096C762.983 151.52 762.866 151.008 762.631 150.56C762.407 150.101 762.098 149.744 761.703 149.488C761.308 149.221 760.855 149.088 760.343 149.088C759.831 149.088 759.378 149.221 758.983 149.488C758.588 149.744 758.274 150.101 758.039 150.56C757.815 151.008 757.703 151.52 757.703 152.096C757.703 152.661 757.815 153.173 758.039 153.632C758.274 154.091 758.588 154.453 758.983 154.72C759.378 154.976 759.831 155.104 760.343 155.104ZM766.184 156V148.192H767.352V149.792C767.555 149.248 767.843 148.827 768.216 148.528C768.6 148.219 769.038 148.064 769.528 148.064C769.667 148.064 769.795 148.075 769.912 148.096C770.03 148.107 770.147 148.133 770.264 148.176V149.232C770.136 149.189 769.998 149.157 769.848 149.136C769.71 149.104 769.576 149.088 769.448 149.088C768.968 149.088 768.547 149.227 768.184 149.504C767.832 149.781 767.555 150.171 767.352 150.672V156H766.184ZM774.941 159.504C774.418 159.504 773.89 159.429 773.357 159.28C772.834 159.141 772.349 158.944 771.901 158.688L772.397 157.792C772.877 158.037 773.314 158.219 773.709 158.336C774.104 158.453 774.498 158.512 774.893 158.512C775.608 158.512 776.146 158.341 776.509 158C776.882 157.659 777.069 157.163 777.069 156.512V154.944C776.77 155.317 776.408 155.605 775.981 155.808C775.554 156 775.085 156.096 774.573 156.096C773.901 156.096 773.293 155.92 772.749 155.568C772.205 155.205 771.773 154.725 771.453 154.128C771.133 153.52 770.973 152.843 770.973 152.096C770.973 151.349 771.133 150.677 771.453 150.08C771.784 149.472 772.226 148.992 772.781 148.64C773.336 148.277 773.954 148.096 774.637 148.096C775.128 148.096 775.581 148.192 775.997 148.384C776.413 148.565 776.776 148.837 777.085 149.2V148.192H778.237V156.496C778.237 157.467 777.954 158.208 777.389 158.72C776.824 159.243 776.008 159.504 774.941 159.504ZM774.861 155.088C775.32 155.088 775.741 154.997 776.125 154.816C776.509 154.624 776.824 154.363 777.069 154.032V150.176C776.813 149.845 776.488 149.589 776.093 149.408C775.709 149.216 775.298 149.12 774.861 149.12C774.338 149.12 773.869 149.248 773.453 149.504C773.048 149.76 772.722 150.112 772.477 150.56C772.242 151.008 772.125 151.52 772.125 152.096C772.125 152.661 772.242 153.173 772.477 153.632C772.722 154.08 773.048 154.437 773.453 154.704C773.869 154.96 774.338 155.088 774.861 155.088ZM783.054 156.144C782.499 156.144 782.008 156.043 781.582 155.84C781.155 155.637 780.819 155.36 780.574 155.008C780.339 154.645 780.222 154.229 780.222 153.76C780.222 153.291 780.344 152.885 780.59 152.544C780.835 152.192 781.176 151.92 781.614 151.728C782.051 151.536 782.563 151.44 783.15 151.44C783.598 151.44 784.019 151.488 784.414 151.584C784.819 151.68 785.192 151.835 785.534 152.048V150.976C785.534 150.336 785.363 149.856 785.022 149.536C784.68 149.205 784.179 149.04 783.518 149.04C783.155 149.04 782.782 149.093 782.398 149.2C782.024 149.307 781.608 149.477 781.15 149.712L780.718 148.816C781.763 148.315 782.744 148.064 783.661 148.064C784.632 148.064 785.379 148.304 785.902 148.784C786.424 149.253 786.686 149.931 786.686 150.816V156H785.534V155.088C785.192 155.44 784.814 155.707 784.398 155.888C783.982 156.059 783.534 156.144 783.054 156.144ZM781.342 153.728C781.342 154.187 781.518 154.555 781.87 154.832C782.232 155.109 782.707 155.248 783.294 155.248C783.731 155.248 784.131 155.173 784.494 155.024C784.867 154.875 785.214 154.651 785.534 154.352V152.848C785.203 152.656 784.862 152.517 784.51 152.432C784.158 152.336 783.763 152.288 783.326 152.288C782.728 152.288 782.248 152.421 781.886 152.688C781.523 152.944 781.342 153.291 781.342 153.728ZM789.059 156V148.192H790.227V149.456C790.526 148.987 790.883 148.64 791.299 148.416C791.715 148.181 792.185 148.064 792.707 148.064C793.273 148.064 793.763 148.187 794.179 148.432C794.606 148.667 794.937 149.003 795.171 149.44C795.417 149.867 795.539 150.368 795.539 150.944V156H794.371V151.28C794.371 150.587 794.179 150.043 793.795 149.648C793.422 149.243 792.915 149.04 792.275 149.04C791.849 149.04 791.459 149.141 791.107 149.344C790.755 149.547 790.462 149.845 790.227 150.24V156H789.059ZM797.872 156V148.192H799.039V156H797.872ZM798.464 146.256C798.229 146.256 798.026 146.176 797.856 146.016C797.696 145.845 797.616 145.648 797.616 145.424C797.616 145.2 797.696 145.008 797.856 144.848C798.026 144.677 798.229 144.592 798.464 144.592C798.698 144.592 798.896 144.677 799.056 144.848C799.226 145.008 799.312 145.2 799.312 145.424C799.312 145.648 799.226 145.845 799.056 146.016C798.896 146.176 798.698 146.256 798.464 146.256ZM800.89 156V155.072L805.386 149.248L800.938 149.264V148.192H806.81V149.104L802.298 154.96L806.874 154.944V156H800.89ZM811.194 156.144C810.639 156.144 810.149 156.043 809.722 155.84C809.295 155.637 808.959 155.36 808.714 155.008C808.479 154.645 808.362 154.229 808.362 153.76C808.362 153.291 808.485 152.885 808.73 152.544C808.975 152.192 809.317 151.92 809.754 151.728C810.191 151.536 810.703 151.44 811.29 151.44C811.738 151.44 812.159 151.488 812.554 151.584C812.959 151.68 813.333 151.835 813.674 152.048V150.976C813.674 150.336 813.503 149.856 813.162 149.536C812.821 149.205 812.319 149.04 811.658 149.04C811.295 149.04 810.922 149.093 810.538 149.2C810.165 149.307 809.749 149.477 809.29 149.712L808.858 148.816C809.903 148.315 810.885 148.064 811.802 148.064C812.773 148.064 813.519 148.304 814.042 148.784C814.565 149.253 814.826 149.931 814.826 150.816V156H813.674V155.088C813.333 155.44 812.954 155.707 812.538 155.888C812.122 156.059 811.674 156.144 811.194 156.144ZM809.482 153.728C809.482 154.187 809.658 154.555 810.01 154.832C810.373 155.109 810.847 155.248 811.434 155.248C811.871 155.248 812.271 155.173 812.634 155.024C813.007 154.875 813.354 154.651 813.674 154.352V152.848C813.343 152.656 813.002 152.517 812.65 152.432C812.298 152.336 811.903 152.288 811.466 152.288C810.869 152.288 810.389 152.421 810.026 152.688C809.663 152.944 809.482 153.291 809.482 153.728ZM819.942 156.16C819.27 156.16 818.758 156 818.406 155.68C818.064 155.349 817.894 154.875 817.894 154.256V149.152H816.278V148.192H817.894V146.048L819.062 145.776V148.192H821.302V149.152H819.062V153.952C819.062 154.368 819.147 154.667 819.318 154.848C819.499 155.029 819.792 155.12 820.198 155.12C820.4 155.12 820.582 155.104 820.742 155.072C820.902 155.04 821.088 154.987 821.302 154.912V155.952C821.088 156.027 820.864 156.08 820.63 156.112C820.395 156.144 820.166 156.16 819.942 156.16ZM822.997 156V148.192H824.164V156H822.997ZM823.589 146.256C823.354 146.256 823.151 146.176 822.981 146.016C822.821 145.845 822.741 145.648 822.741 145.424C822.741 145.2 822.821 145.008 822.981 144.848C823.151 144.677 823.354 144.592 823.589 144.592C823.823 144.592 824.021 144.677 824.181 144.848C824.351 145.008 824.437 145.2 824.437 145.424C824.437 145.648 824.351 145.845 824.181 146.016C824.021 146.176 823.823 146.256 823.589 146.256ZM830.015 156.128C829.29 156.128 828.639 155.952 828.063 155.6C827.487 155.248 827.034 154.768 826.703 154.16C826.373 153.552 826.207 152.864 826.207 152.096C826.207 151.328 826.373 150.64 826.703 150.032C827.034 149.424 827.487 148.944 828.063 148.592C828.639 148.24 829.29 148.064 830.015 148.064C830.73 148.064 831.37 148.24 831.935 148.592C832.511 148.944 832.965 149.424 833.295 150.032C833.626 150.64 833.791 151.328 833.791 152.096C833.791 152.864 833.626 153.552 833.295 154.16C832.965 154.768 832.511 155.248 831.935 155.6C831.37 155.952 830.73 156.128 830.015 156.128ZM829.999 155.104C830.511 155.104 830.965 154.976 831.359 154.72C831.754 154.453 832.063 154.091 832.287 153.632C832.522 153.173 832.639 152.661 832.639 152.096C832.639 151.52 832.522 151.008 832.287 150.56C832.063 150.101 831.754 149.744 831.359 149.488C830.965 149.221 830.511 149.088 829.999 149.088C829.487 149.088 829.034 149.221 828.639 149.488C828.245 149.744 827.93 150.101 827.695 150.56C827.471 151.008 827.359 151.52 827.359 152.096C827.359 152.661 827.471 153.173 827.695 153.632C827.93 154.091 828.245 154.453 828.639 154.72C829.034 154.976 829.487 155.104 829.999 155.104ZM835.841 156V148.192H837.009V149.456C837.307 148.987 837.665 148.64 838.081 148.416C838.497 148.181 838.966 148.064 839.489 148.064C840.054 148.064 840.545 148.187 840.961 148.432C841.387 148.667 841.718 149.003 841.953 149.44C842.198 149.867 842.321 150.368 842.321 150.944V156H841.153V151.28C841.153 150.587 840.961 150.043 840.577 149.648C840.203 149.243 839.697 149.04 839.057 149.04C838.63 149.04 838.241 149.141 837.889 149.344C837.537 149.547 837.243 149.845 837.009 150.24V156H835.841ZM850.819 156.144C850.264 156.144 849.774 156.043 849.347 155.84C848.92 155.637 848.584 155.36 848.339 155.008C848.104 154.645 847.987 154.229 847.987 153.76C847.987 153.291 848.11 152.885 848.355 152.544C848.6 152.192 848.942 151.92 849.379 151.728C849.816 151.536 850.328 151.44 850.915 151.44C851.363 151.44 851.784 151.488 852.179 151.584C852.584 151.68 852.958 151.835 853.299 152.048V150.976C853.299 150.336 853.128 149.856 852.787 149.536C852.446 149.205 851.944 149.04 851.283 149.04C850.92 149.04 850.547 149.093 850.163 149.2C849.79 149.307 849.374 149.477 848.915 149.712L848.483 148.816C849.528 148.315 850.51 148.064 851.427 148.064C852.398 148.064 853.144 148.304 853.667 148.784C854.19 149.253 854.451 149.931 854.451 150.816V156H853.299V155.088C852.958 155.44 852.579 155.707 852.163 155.888C851.747 156.059 851.299 156.144 850.819 156.144ZM849.107 153.728C849.107 154.187 849.283 154.555 849.635 154.832C849.998 155.109 850.472 155.248 851.059 155.248C851.496 155.248 851.896 155.173 852.259 155.024C852.632 154.875 852.979 154.651 853.299 154.352V152.848C852.968 152.656 852.627 152.517 852.275 152.432C851.923 152.336 851.528 152.288 851.091 152.288C850.494 152.288 850.014 152.421 849.651 152.688C849.288 152.944 849.107 153.291 849.107 153.728ZM860.329 156.128C859.604 156.128 858.948 155.952 858.361 155.6C857.785 155.237 857.326 154.752 856.985 154.144C856.644 153.525 856.473 152.843 856.473 152.096C856.473 151.339 856.644 150.656 856.985 150.048C857.326 149.44 857.785 148.96 858.361 148.608C858.948 148.245 859.604 148.064 860.329 148.064C860.905 148.064 861.454 148.171 861.977 148.384C862.5 148.597 862.953 148.896 863.337 149.28L862.585 150.096C862.308 149.787 861.972 149.547 861.577 149.376C861.182 149.205 860.782 149.12 860.377 149.12C859.865 149.12 859.401 149.253 858.985 149.52C858.58 149.787 858.254 150.144 858.009 150.592C857.764 151.04 857.641 151.541 857.641 152.096C857.641 152.651 857.764 153.152 858.009 153.6C858.254 154.048 858.58 154.405 858.985 154.672C859.401 154.939 859.865 155.072 860.377 155.072C860.782 155.072 861.182 154.987 861.577 154.816C861.972 154.635 862.308 154.395 862.585 154.096L863.337 154.912C862.953 155.296 862.5 155.595 861.977 155.808C861.454 156.021 860.905 156.128 860.329 156.128ZM868.235 156.128C867.51 156.128 866.854 155.952 866.267 155.6C865.691 155.237 865.233 154.752 864.891 154.144C864.55 153.525 864.379 152.843 864.379 152.096C864.379 151.339 864.55 150.656 864.891 150.048C865.233 149.44 865.691 148.96 866.267 148.608C866.854 148.245 867.51 148.064 868.235 148.064C868.811 148.064 869.361 148.171 869.883 148.384C870.406 148.597 870.859 148.896 871.243 149.28L870.491 150.096C870.214 149.787 869.878 149.547 869.483 149.376C869.089 149.205 868.689 149.12 868.283 149.12C867.771 149.12 867.307 149.253 866.891 149.52C866.486 149.787 866.161 150.144 865.915 150.592C865.67 151.04 865.547 151.541 865.547 152.096C865.547 152.651 865.67 153.152 865.915 153.6C866.161 154.048 866.486 154.405 866.891 154.672C867.307 154.939 867.771 155.072 868.283 155.072C868.689 155.072 869.089 154.987 869.483 154.816C869.878 154.635 870.214 154.395 870.491 154.096L871.243 154.912C870.859 155.296 870.406 155.595 869.883 155.808C869.361 156.021 868.811 156.128 868.235 156.128ZM876.094 156.128C875.368 156.128 874.718 155.952 874.142 155.6C873.566 155.248 873.112 154.768 872.782 154.16C872.451 153.552 872.286 152.864 872.286 152.096C872.286 151.328 872.451 150.64 872.782 150.032C873.112 149.424 873.566 148.944 874.142 148.592C874.718 148.24 875.368 148.064 876.094 148.064C876.808 148.064 877.448 148.24 878.014 148.592C878.59 148.944 879.043 149.424 879.374 150.032C879.704 150.64 879.87 151.328 879.87 152.096C879.87 152.864 879.704 153.552 879.374 154.16C879.043 154.768 878.59 155.248 878.014 155.6C877.448 155.952 876.808 156.128 876.094 156.128ZM876.078 155.104C876.59 155.104 877.043 154.976 877.438 154.72C877.832 154.453 878.142 154.091 878.366 153.632C878.6 153.173 878.718 152.661 878.718 152.096C878.718 151.52 878.6 151.008 878.366 150.56C878.142 150.101 877.832 149.744 877.438 149.488C877.043 149.221 876.59 149.088 876.078 149.088C875.566 149.088 875.112 149.221 874.718 149.488C874.323 149.744 874.008 150.101 873.774 150.56C873.55 151.008 873.438 151.52 873.438 152.096C873.438 152.661 873.55 153.173 873.774 153.632C874.008 154.091 874.323 154.453 874.718 154.72C875.112 154.976 875.566 155.104 876.078 155.104ZM884.703 156.128C884.148 156.128 883.657 156.005 883.231 155.76C882.804 155.515 882.468 155.173 882.223 154.736C881.988 154.299 881.871 153.797 881.871 153.232V148.192H883.055V152.896C883.055 153.589 883.241 154.139 883.615 154.544C883.988 154.949 884.495 155.152 885.135 155.152C885.572 155.152 885.961 155.051 886.303 154.848C886.655 154.645 886.948 154.352 887.183 153.968V148.192H888.351V156H887.183V154.736C886.884 155.195 886.527 155.541 886.111 155.776C885.705 156.011 885.236 156.128 884.703 156.128ZM890.747 156V148.192H891.915V149.456C892.214 148.987 892.571 148.64 892.987 148.416C893.403 148.181 893.872 148.064 894.395 148.064C894.96 148.064 895.451 148.187 895.867 148.432C896.294 148.667 896.624 149.003 896.859 149.44C897.104 149.867 897.227 150.368 897.227 150.944V156H896.059V151.28C896.059 150.587 895.867 150.043 895.483 149.648C895.11 149.243 894.603 149.04 893.963 149.04C893.536 149.04 893.147 149.141 892.795 149.344C892.443 149.547 892.15 149.845 891.915 150.24V156H890.747ZM902.317 156.16C901.645 156.16 901.133 156 900.781 155.68C900.439 155.349 900.269 154.875 900.269 154.256V149.152H898.653V148.192H900.269V146.048L901.437 145.776V148.192H903.677V149.152H901.437V153.952C901.437 154.368 901.522 154.667 901.693 154.848C901.874 155.029 902.167 155.12 902.573 155.12C902.775 155.12 902.957 155.104 903.117 155.072C903.277 155.04 903.463 154.987 903.677 154.912V155.952C903.463 156.027 903.239 156.08 903.005 156.112C902.77 156.144 902.541 156.16 902.317 156.16Z" fill="#0066CC"/>
<path d="M711 162H905" stroke="#707070" stroke-linecap="square" stroke-dasharray="3 3"/>
<path d="M928 152.5V156.25C928 156.664 927.664 157 927.25 157H914.75C914.336 157 914 156.664 914 156.25V143.75C914 143.336 914.336 143 914.75 143H918.5C918.776 143 919 143.224 919 143.5C919 143.776 918.776 144 918.5 144H915V156H927V152.5C927 152.224 927.224 152 927.5 152C927.776 152 928 152.224 928 152.5ZM927.25 143H922C921.724 143 921.5 143.224 921.5 143.5C921.5 143.776 921.724 144 922 144H926.293L919.646 150.646C919.451 150.842 919.451 151.158 919.646 151.354C919.744 151.451 919.872 151.5 920 151.5C920.128 151.5 920.256 151.451 920.353 151.354L927 144.707V149C927 149.276 927.224 149.5 927.5 149.5C927.776 149.5 928 149.276 928 149V143.75C928 143.336 927.664 143 927.25 143Z" fill="#4D4D4D"/>
</g>
<path d="M698 42.5H942C943.381 42.5 944.5 43.6193 944.5 45V175C944.5 176.381 943.381 177.5 942 177.5H698C696.619 177.5 695.5 176.381 695.5 175V45C695.5 43.6193 696.619 42.5 698 42.5Z" stroke="#C7C7C7"/>
</g>
<g filter="url(#filter7_d_8069_8751)">
<path d="M798 38.5V21.5L810 33.5H803L798 38.5Z" fill="#151515"/>
<path d="M811.207 34H803.207L797.5 39.707V20.293L811.207 34Z" stroke="white"/>
</g>
<g filter="url(#filter8_d_8069_8751)">
<path d="M858 127V110L870 122H863L858 127Z" fill="#151515"/>
<path d="M871.207 122.5H863.207L857.5 128.207V108.793L871.207 122.5Z" stroke="white"/>
</g>
<defs>
<filter id="filter0_d_8069_8751" x="48" y="15.5859" width="23.4143" height="29.8281" filterUnits="userSpaceOnUse" color-interpolation-filters="sRGB">
<feFlood flood-opacity="0" result="BackgroundImageFix"/>
<feColorMatrix in="SourceAlpha" type="matrix" values="0 0 0 0 0 0 0 0 0 0 0 0 0 0 0 0 0 0 127 0" result="hardAlpha"/>
<feOffset dy="2"/>
<feGaussianBlur stdDeviation="2"/>
<feComposite in2="hardAlpha" operator="out"/>
<feColorMatrix type="matrix" values="0 0 0 0 0.0823529 0 0 0 0 0.0823529 0 0 0 0 0.0823529 0 0 0 0.2 0"/>
<feBlend mode="normal" in2="BackgroundImageFix" result="effect1_dropShadow_8069_8751"/>
<feBlend mode="normal" in="SourceGraphic" in2="effect1_dropShadow_8069_8751" result="shape"/>
</filter>
<filter id="filter1_d_8069_8751" x="219" y="15.5859" width="23.4143" height="29.8281" filterUnits="userSpaceOnUse" color-interpolation-filters="sRGB">
<feFlood flood-opacity="0" result="BackgroundImageFix"/>
<feColorMatrix in="SourceAlpha" type="matrix" values="0 0 0 0 0 0 0 0 0 0 0 0 0 0 0 0 0 0 127 0" result="hardAlpha"/>
<feOffset dy="2"/>
<feGaussianBlur stdDeviation="2"/>
<feComposite in2="hardAlpha" operator="out"/>
<feColorMatrix type="matrix" values="0 0 0 0 0.0823529 0 0 0 0 0.0823529 0 0 0 0 0.0823529 0 0 0 0.2 0"/>
<feBlend mode="normal" in2="BackgroundImageFix" result="effect1_dropShadow_8069_8751"/>
<feBlend mode="normal" in="SourceGraphic" in2="effect1_dropShadow_8069_8751" result="shape"/>
</filter>
<filter id="filter2_d_8069_8751" x="353.5" y="15.5859" width="23.4143" height="29.8281" filterUnits="userSpaceOnUse" color-interpolation-filters="sRGB">
<feFlood flood-opacity="0" result="BackgroundImageFix"/>
<feColorMatrix in="SourceAlpha" type="matrix" values="0 0 0 0 0 0 0 0 0 0 0 0 0 0 0 0 0 0 127 0" result="hardAlpha"/>
<feOffset dy="2"/>
<feGaussianBlur stdDeviation="2"/>
<feComposite in2="hardAlpha" operator="out"/>
<feColorMatrix type="matrix" values="0 0 0 0 0.0823529 0 0 0 0 0.0823529 0 0 0 0 0.0823529 0 0 0 0.2 0"/>
<feBlend mode="normal" in2="BackgroundImageFix" result="effect1_dropShadow_8069_8751"/>
<feBlend mode="normal" in="SourceGraphic" in2="effect1_dropShadow_8069_8751" result="shape"/>
</filter>
<filter id="filter3_d_8069_8751" x="461" y="39" width="145" height="246" filterUnits="userSpaceOnUse" color-interpolation-filters="sRGB">
<feFlood flood-opacity="0" result="BackgroundImageFix"/>
<feColorMatrix in="SourceAlpha" type="matrix" values="0 0 0 0 0 0 0 0 0 0 0 0 0 0 0 0 0 0 127 0" result="hardAlpha"/>
<feMorphology radius="1" operator="dilate" in="SourceAlpha" result="effect1_dropShadow_8069_8751"/>
<feOffset dy="4"/>
<feGaussianBlur stdDeviation="3"/>
<feComposite in2="hardAlpha" operator="out"/>
<feColorMatrix type="matrix" values="0 0 0 0 0.0823529 0 0 0 0 0.0823529 0 0 0 0 0.0823529 0 0 0 0.25 0"/>
<feBlend mode="normal" in2="BackgroundImageFix" result="effect1_dropShadow_8069_8751"/>
<feBlend mode="normal" in="SourceGraphic" in2="effect1_dropShadow_8069_8751" result="shape"/>
</filter>
<filter id="filter4_d_8069_8751" x="539" y="15.5859" width="23.4143" height="29.8281" filterUnits="userSpaceOnUse" color-interpolation-filters="sRGB">
<feFlood flood-opacity="0" result="BackgroundImageFix"/>
<feColorMatrix in="SourceAlpha" type="matrix" values="0 0 0 0 0 0 0 0 0 0 0 0 0 0 0 0 0 0 127 0" result="hardAlpha"/>
<feOffset dy="2"/>
<feGaussianBlur stdDeviation="2"/>
<feComposite in2="hardAlpha" operator="out"/>
<feColorMatrix type="matrix" values="0 0 0 0 0.0823529 0 0 0 0 0.0823529 0 0 0 0 0.0823529 0 0 0 0.2 0"/>
<feBlend mode="normal" in2="BackgroundImageFix" result="effect1_dropShadow_8069_8751"/>
<feBlend mode="normal" in="SourceGraphic" in2="effect1_dropShadow_8069_8751" result="shape"/>
</filter>
<filter id="filter5_d_8069_8751" x="539" y="105.586" width="23.4143" height="29.8281" filterUnits="userSpaceOnUse" color-interpolation-filters="sRGB">
<feFlood flood-opacity="0" result="BackgroundImageFix"/>
<feColorMatrix in="SourceAlpha" type="matrix" values="0 0 0 0 0 0 0 0 0 0 0 0 0 0 0 0 0 0 127 0" result="hardAlpha"/>
<feOffset dy="2"/>
<feGaussianBlur stdDeviation="2"/>
<feComposite in2="hardAlpha" operator="out"/>
<feColorMatrix type="matrix" values="0 0 0 0 0.0823529 0 0 0 0 0.0823529 0 0 0 0 0.0823529 0 0 0 0.2 0"/>
<feBlend mode="normal" in2="BackgroundImageFix" result="effect1_dropShadow_8069_8751"/>
<feBlend mode="normal" in="SourceGraphic" in2="effect1_dropShadow_8069_8751" result="shape"/>
</filter>
<filter id="filter6_d_8069_8751" x="688" y="39" width="264" height="150" filterUnits="userSpaceOnUse" color-interpolation-filters="sRGB">
<feFlood flood-opacity="0" result="BackgroundImageFix"/>
<feColorMatrix in="SourceAlpha" type="matrix" values="0 0 0 0 0 0 0 0 0 0 0 0 0 0 0 0 0 0 127 0" result="hardAlpha"/>
<feMorphology radius="1" operator="dilate" in="SourceAlpha" result="effect1_dropShadow_8069_8751"/>
<feOffset dy="4"/>
<feGaussianBlur stdDeviation="3"/>
<feComposite in2="hardAlpha" operator="out"/>
<feColorMatrix type="matrix" values="0 0 0 0 0.0823529 0 0 0 0 0.0823529 0 0 0 0 0.0823529 0 0 0 0.25 0"/>
<feBlend mode="normal" in2="BackgroundImageFix" result="effect1_dropShadow_8069_8751"/>
<feBlend mode="normal" in="SourceGraphic" in2="effect1_dropShadow_8069_8751" result="shape"/>
</filter>
<filter id="filter7_d_8069_8751" x="793" y="17.0859" width="23.4143" height="29.8281" filterUnits="userSpaceOnUse" color-interpolation-filters="sRGB">
<feFlood flood-opacity="0" result="BackgroundImageFix"/>
<feColorMatrix in="SourceAlpha" type="matrix" values="0 0 0 0 0 0 0 0 0 0 0 0 0 0 0 0 0 0 127 0" result="hardAlpha"/>
<feOffset dy="2"/>
<feGaussianBlur stdDeviation="2"/>
<feComposite in2="hardAlpha" operator="out"/>
<feColorMatrix type="matrix" values="0 0 0 0 0.0823529 0 0 0 0 0.0823529 0 0 0 0 0.0823529 0 0 0 0.2 0"/>
<feBlend mode="normal" in2="BackgroundImageFix" result="effect1_dropShadow_8069_8751"/>
<feBlend mode="normal" in="SourceGraphic" in2="effect1_dropShadow_8069_8751" result="shape"/>
</filter>
<filter id="filter8_d_8069_8751" x="853" y="105.586" width="23.4143" height="29.8281" filterUnits="userSpaceOnUse" color-interpolation-filters="sRGB">
<feFlood flood-opacity="0" result="BackgroundImageFix"/>
<feColorMatrix in="SourceAlpha" type="matrix" values="0 0 0 0 0 0 0 0 0 0 0 0 0 0 0 0 0 0 127 0" result="hardAlpha"/>
<feOffset dy="2"/>
<feGaussianBlur stdDeviation="2"/>
<feComposite in2="hardAlpha" operator="out"/>
<feColorMatrix type="matrix" values="0 0 0 0 0.0823529 0 0 0 0 0.0823529 0 0 0 0 0.0823529 0 0 0 0.2 0"/>
<feBlend mode="normal" in2="BackgroundImageFix" result="effect1_dropShadow_8069_8751"/>
<feBlend mode="normal" in="SourceGraphic" in2="effect1_dropShadow_8069_8751" result="shape"/>
</filter>
<clipPath id="clip0_8069_8751">
<path d="M468 45C468 43.3431 469.343 42 471 42H596C597.657 42 599 43.3431 599 45V271C599 272.657 597.657 274 596 274H471C469.343 274 468 272.657 468 271V45Z" fill="white"/>
</clipPath>
<clipPath id="clip1_8069_8751">
<path d="M695 45C695 43.3431 696.343 42 698 42H942C943.657 42 945 43.3431 945 45V175C945 176.657 943.657 178 942 178H698C696.343 178 695 176.657 695 175V45Z" fill="white"/>
</clipPath>
</defs>
</svg>
