<svg width="199" height="234" viewBox="0 0 199 234" fill="none" xmlns="http://www.w3.org/2000/svg">
<path d="M10 30H96C97.1046 30 98 30.8954 98 32V62C98 63.1046 97.1046 64 96 64H10C8.89543 64 8 63.1046 8 62V32C8 30.8954 8.89543 30 10 30Z" fill="white"/>
<path d="M10 30H96C97.1046 30 98 30.8954 98 32V62C98 63.1046 97.1046 64 96 64H10C8.89543 64 8 63.1046 8 62V32C8 30.8954 8.89543 30 10 30Z" stroke="#0066CC" stroke-width="2"/>
<path d="M28.04 53.176C27.1653 53.176 26.3547 53.0213 25.608 52.712C24.8613 52.392 24.1413 51.912 23.448 51.272L24.2 50.376C24.872 51.0053 25.5013 51.4533 26.088 51.72C26.6853 51.9867 27.3467 52.12 28.072 52.12C28.648 52.12 29.16 52.024 29.608 51.832C30.0667 51.6293 30.424 51.3573 30.68 51.016C30.936 50.6747 31.064 50.2853 31.064 49.848C31.064 49.2827 30.8773 48.856 30.504 48.568C30.1307 48.2693 29.4853 48.04 28.568 47.88L26.76 47.576C25.736 47.3947 24.984 47.0853 24.504 46.648C24.0347 46.2 23.8 45.6027 23.8 44.856C23.8 44.2267 23.96 43.672 24.28 43.192C24.6107 42.7013 25.064 42.3173 25.64 42.04C26.216 41.7627 26.8827 41.624 27.64 41.624C28.472 41.624 29.2453 41.7413 29.96 41.976C30.6747 42.2 31.3787 42.5573 32.072 43.048L31.432 44.008C30.856 43.5707 30.248 43.24 29.608 43.016C28.968 42.7813 28.3173 42.664 27.656 42.664C27.1333 42.664 26.6693 42.7547 26.264 42.936C25.8693 43.1173 25.5547 43.3627 25.32 43.672C25.096 43.9813 24.984 44.3333 24.984 44.728C24.984 45.2187 25.1493 45.6027 25.48 45.88C25.8107 46.1573 26.3493 46.3547 27.096 46.472L28.888 46.776C30.0827 46.9893 30.9467 47.336 31.48 47.816C32.024 48.2853 32.296 48.9413 32.296 49.784C32.296 50.4347 32.1093 51.016 31.736 51.528C31.3733 52.04 30.872 52.4453 30.232 52.744C29.592 53.032 28.8613 53.176 28.04 53.176ZM34.1688 53V41.448L35.3368 41.208V46.456C35.6354 45.9867 35.9928 45.64 36.4088 45.416C36.8248 45.1813 37.2941 45.064 37.8168 45.064C38.3821 45.064 38.8728 45.1867 39.2888 45.432C39.7154 45.6667 40.0461 46.0027 40.2808 46.44C40.5261 46.8667 40.6488 47.368 40.6488 47.944V53H39.4808V48.28C39.4808 47.5867 39.2888 47.0427 38.9048 46.648C38.5314 46.2427 38.0248 46.04 37.3848 46.04C36.9581 46.04 36.5688 46.1413 36.2168 46.344C35.8648 46.5467 35.5714 46.8453 35.3368 47.24V53H34.1688ZM45.4129 53.144C44.8582 53.144 44.3675 53.0427 43.9409 52.84C43.5142 52.6373 43.1782 52.36 42.9329 52.008C42.6982 51.6453 42.5809 51.2293 42.5809 50.76C42.5809 50.2907 42.7035 49.8853 42.9489 49.544C43.1942 49.192 43.5355 48.92 43.9729 48.728C44.4102 48.536 44.9222 48.44 45.5089 48.44C45.9569 48.44 46.3782 48.488 46.7729 48.584C47.1782 48.68 47.5515 48.8347 47.8929 49.048V47.976C47.8929 47.336 47.7222 46.856 47.3809 46.536C47.0395 46.2053 46.5382 46.04 45.8769 46.04C45.5142 46.04 45.1409 46.0933 44.7569 46.2C44.3835 46.3067 43.9675 46.4773 43.5089 46.712L43.0769 45.816C44.1222 45.3147 45.1035 45.064 46.0209 45.064C46.9915 45.064 47.7382 45.304 48.2609 45.784C48.7835 46.2533 49.0449 46.9307 49.0449 47.816V53H47.8929V52.088C47.5515 52.44 47.1729 52.7067 46.7569 52.888C46.3409 53.0587 45.8929 53.144 45.4129 53.144ZM43.7009 50.728C43.7009 51.1867 43.8769 51.5547 44.2289 51.832C44.5915 52.1093 45.0662 52.248 45.6529 52.248C46.0902 52.248 46.4902 52.1733 46.8529 52.024C47.2262 51.8747 47.5729 51.6507 47.8929 51.352V49.848C47.5622 49.656 47.2209 49.5173 46.8689 49.432C46.5169 49.336 46.1222 49.288 45.6849 49.288C45.0875 49.288 44.6075 49.4213 44.2449 49.688C43.8822 49.944 43.7009 50.2907 43.7009 50.728ZM51.4188 53V45.192H52.5868V46.792C52.7894 46.248 53.0774 45.8267 53.4508 45.528C53.8348 45.2187 54.2721 45.064 54.7628 45.064C54.9014 45.064 55.0294 45.0747 55.1468 45.096C55.2641 45.1067 55.3814 45.1333 55.4988 45.176V46.232C55.3708 46.1893 55.2321 46.1573 55.0828 46.136C54.9441 46.104 54.8108 46.088 54.6828 46.088C54.2028 46.088 53.7814 46.2267 53.4188 46.504C53.0668 46.7813 52.7894 47.1707 52.5868 47.672V53H51.4188ZM60.0794 53.16C59.354 53.16 58.698 52.984 58.1114 52.632C57.5247 52.2693 57.0607 51.784 56.7194 51.176C56.378 50.5573 56.2074 49.864 56.2074 49.096C56.2074 48.328 56.3674 47.64 56.6874 47.032C57.018 46.424 57.4607 45.944 58.0154 45.592C58.57 45.24 59.1887 45.064 59.8714 45.064C60.5647 45.064 61.178 45.24 61.7114 45.592C62.2554 45.9333 62.682 46.4027 62.9914 47C63.3114 47.5867 63.4714 48.2533 63.4714 49V49.352H57.3434C57.386 49.8853 57.53 50.3653 57.7754 50.792C58.0314 51.208 58.362 51.5387 58.7674 51.784C59.1834 52.0187 59.6367 52.136 60.1274 52.136C60.5327 52.136 60.922 52.0667 61.2954 51.928C61.6794 51.7787 62.0047 51.5813 62.2714 51.336L63.0074 52.12C62.5594 52.472 62.0954 52.7333 61.6154 52.904C61.1354 53.0747 60.6234 53.16 60.0794 53.16ZM57.3754 48.52H62.3194C62.266 48.0507 62.122 47.6347 61.8874 47.272C61.6634 46.8987 61.3754 46.6053 61.0234 46.392C60.682 46.1787 60.298 46.072 59.8714 46.072C59.4447 46.072 59.0554 46.1787 58.7034 46.392C58.3514 46.5947 58.058 46.8827 57.8234 47.256C57.5994 47.6187 57.45 48.04 57.3754 48.52Z" fill="#151515"/>
<path d="M82.3536 48.6465L78.5303 44.8232C78.2383 44.5303 77.7618 44.5303 77.4698 44.8232L73.6466 48.6465C73.5035 48.7895 73.4605 49.0044 73.5382 49.1914C73.6153 49.3784 73.7979 49.5 74.0001 49.5H82.0001C82.2022 49.5 82.3848 49.3784 82.462 49.1914C82.5396 49.0044 82.4966 48.7895 82.3536 48.6465Z" fill="#151515"/>
<g filter="url(#filter0_d_8079_3727)">
<g clip-path="url(#clip0_8079_3727)">
<path d="M7 72C7 70.3431 8.34315 69 10 69H189C190.657 69 192 70.3431 192 72V202C192 203.657 190.657 205 189 205H10C8.34315 205 7 203.657 7 202V72Z" fill="white"/>
<path d="M7 77H192V117H7V77Z" fill="#F2F2F2"/>
<path d="M29.592 103.176C28.792 103.176 28.0453 103.032 27.352 102.744C26.6693 102.445 26.0667 102.035 25.544 101.512C25.0213 100.979 24.616 100.365 24.328 99.672C24.04 98.968 23.896 98.2107 23.896 97.4C23.896 96.5893 24.04 95.8373 24.328 95.144C24.616 94.44 25.0213 93.8267 25.544 93.304C26.0667 92.7707 26.6693 92.36 27.352 92.072C28.0453 91.7733 28.792 91.624 29.592 91.624C30.1467 91.624 30.6747 91.6987 31.176 91.848C31.688 91.9867 32.168 92.1947 32.616 92.472C33.064 92.7387 33.464 93.0693 33.816 93.464L33 94.312C32.584 93.8107 32.072 93.4267 31.464 93.16C30.8667 92.8827 30.2427 92.744 29.592 92.744C28.9627 92.744 28.376 92.8613 27.832 93.096C27.288 93.3307 26.8133 93.6613 26.408 94.088C26.0133 94.5147 25.704 95.0107 25.48 95.576C25.256 96.1307 25.144 96.7387 25.144 97.4C25.144 98.0507 25.256 98.6587 25.48 99.224C25.704 99.7893 26.0133 100.285 26.408 100.712C26.8133 101.139 27.288 101.469 27.832 101.704C28.376 101.939 28.9627 102.056 29.592 102.056C30.2427 102.056 30.8667 101.917 31.464 101.64C32.072 101.363 32.584 100.979 33 100.488L33.816 101.336C33.464 101.731 33.064 102.067 32.616 102.344C32.168 102.611 31.688 102.819 31.176 102.968C30.6747 103.107 30.1467 103.176 29.592 103.176ZM39.031 103.128C38.3057 103.128 37.655 102.952 37.079 102.6C36.503 102.248 36.0497 101.768 35.719 101.16C35.3883 100.552 35.223 99.864 35.223 99.096C35.223 98.328 35.3883 97.64 35.719 97.032C36.0497 96.424 36.503 95.944 37.079 95.592C37.655 95.24 38.3057 95.064 39.031 95.064C39.7457 95.064 40.3857 95.24 40.951 95.592C41.527 95.944 41.9803 96.424 42.311 97.032C42.6417 97.64 42.807 98.328 42.807 99.096C42.807 99.864 42.6417 100.552 42.311 101.16C41.9803 101.768 41.527 102.248 40.951 102.6C40.3857 102.952 39.7457 103.128 39.031 103.128ZM39.015 102.104C39.527 102.104 39.9803 101.976 40.375 101.72C40.7697 101.453 41.079 101.091 41.303 100.632C41.5377 100.173 41.655 99.6613 41.655 99.096C41.655 98.52 41.5377 98.008 41.303 97.56C41.079 97.1013 40.7697 96.744 40.375 96.488C39.9803 96.2213 39.527 96.088 39.015 96.088C38.503 96.088 38.0497 96.2213 37.655 96.488C37.2603 96.744 36.9457 97.1013 36.711 97.56C36.487 98.008 36.375 98.52 36.375 99.096C36.375 99.6613 36.487 100.173 36.711 100.632C36.9457 101.091 37.2603 101.453 37.655 101.72C38.0497 101.976 38.503 102.104 39.015 102.104ZM44.8563 106.344V95.192H46.0082V96.312C46.3069 95.9173 46.6696 95.6187 47.0963 95.416C47.5336 95.2027 48.0136 95.096 48.5363 95.096C49.2189 95.096 49.8269 95.2773 50.3603 95.64C50.9043 95.992 51.3363 96.472 51.6562 97.08C51.9763 97.6773 52.1363 98.3493 52.1363 99.096C52.1363 99.8427 51.9709 100.52 51.6403 101.128C51.3203 101.736 50.8829 102.221 50.3283 102.584C49.7843 102.936 49.1656 103.112 48.4723 103.112C47.9816 103.112 47.5283 103.021 47.1123 102.84C46.6963 102.648 46.3336 102.376 46.0243 102.024V106.344H44.8563ZM48.2483 102.104C48.7709 102.104 49.2349 101.976 49.6403 101.72C50.0563 101.453 50.3816 101.096 50.6163 100.648C50.8616 100.189 50.9843 99.6773 50.9843 99.112C50.9843 98.536 50.8616 98.024 50.6163 97.576C50.3816 97.128 50.0563 96.776 49.6403 96.52C49.2349 96.2533 48.7709 96.12 48.2483 96.12C47.7896 96.12 47.3629 96.216 46.9683 96.408C46.5843 96.5893 46.2696 96.8507 46.0243 97.192V101.016C46.2803 101.357 46.6003 101.624 46.9843 101.816C47.3789 102.008 47.8003 102.104 48.2483 102.104ZM54.286 106.504C54.0407 106.504 53.79 106.467 53.534 106.392V105.352C53.6407 105.373 53.7527 105.389 53.87 105.4C53.9873 105.411 54.0887 105.416 54.174 105.416C54.4727 105.416 54.718 105.336 54.91 105.176C55.1127 105.016 55.2833 104.765 55.422 104.424L55.998 103L52.99 95.192H54.286L56.654 101.608L59.166 95.192H60.462L56.526 104.776C56.3553 105.192 56.1687 105.528 55.966 105.784C55.7633 106.04 55.5287 106.221 55.262 106.328C54.9953 106.445 54.67 106.504 54.286 106.504ZM65.6531 103V91.448L66.8211 91.208V103H65.6531ZM69.1996 103V95.192H70.3676V103H69.1996ZM69.7916 93.256C69.557 93.256 69.3543 93.176 69.1836 93.016C69.0236 92.8453 68.9436 92.648 68.9436 92.424C68.9436 92.2 69.0236 92.008 69.1836 91.848C69.3543 91.6773 69.557 91.592 69.7916 91.592C70.0263 91.592 70.2236 91.6773 70.3836 91.848C70.5543 92.008 70.6396 92.2 70.6396 92.424C70.6396 92.648 70.5543 92.8453 70.3836 93.016C70.2236 93.176 70.0263 93.256 69.7916 93.256ZM72.7625 103V95.192H73.9305V96.456C74.2292 95.9867 74.5865 95.64 75.0025 95.416C75.4185 95.1813 75.8878 95.064 76.4105 95.064C76.9758 95.064 77.4665 95.1867 77.8825 95.432C78.3092 95.6667 78.6398 96.0027 78.8745 96.44C79.1198 96.8667 79.2425 97.368 79.2425 97.944V103H78.0745V98.28C78.0745 97.5867 77.8825 97.0427 77.4985 96.648C77.1252 96.2427 76.6185 96.04 75.9785 96.04C75.5518 96.04 75.1625 96.1413 74.8105 96.344C74.4585 96.5467 74.1652 96.8453 73.9305 97.24V103H72.7625ZM81.5906 103V91.448L82.7586 91.208V98.696L86.4706 95.192H87.8786L83.9106 98.904L88.0546 103H86.5186L82.7586 99.272V103H81.5906Z" fill="#151515"/>
<path d="M24.424 143V131.8H26.136L29.88 139.768L33.624 131.8H35.336V143H34.168V133.256L29.88 142.2L25.576 133.224V143H24.424ZM41.4856 143.16C40.7603 143.16 40.1043 142.984 39.5176 142.632C38.931 142.269 38.467 141.784 38.1256 141.176C37.7843 140.557 37.6136 139.864 37.6136 139.096C37.6136 138.328 37.7736 137.64 38.0936 137.032C38.4243 136.424 38.867 135.944 39.4216 135.592C39.9763 135.24 40.595 135.064 41.2776 135.064C41.971 135.064 42.5843 135.24 43.1176 135.592C43.6616 135.933 44.0883 136.403 44.3976 137C44.7176 137.587 44.8776 138.253 44.8776 139V139.352H38.7496C38.7923 139.885 38.9363 140.365 39.1816 140.792C39.4376 141.208 39.7683 141.539 40.1736 141.784C40.5896 142.019 41.043 142.136 41.5336 142.136C41.939 142.136 42.3283 142.067 42.7016 141.928C43.0856 141.779 43.411 141.581 43.6776 141.336L44.4136 142.12C43.9656 142.472 43.5016 142.733 43.0216 142.904C42.5416 143.075 42.0296 143.16 41.4856 143.16ZM38.7816 138.52H43.7256C43.6723 138.051 43.5283 137.635 43.2936 137.272C43.0696 136.899 42.7816 136.605 42.4296 136.392C42.0883 136.179 41.7043 136.072 41.2776 136.072C40.851 136.072 40.4616 136.179 40.1096 136.392C39.7576 136.595 39.4643 136.883 39.2296 137.256C39.0056 137.619 38.8563 138.04 38.7816 138.52ZM49.366 143.16C48.726 143.16 48.134 143.064 47.59 142.872C47.046 142.669 46.582 142.381 46.198 142.008L46.822 141.24C47.2913 141.581 47.7233 141.832 48.118 141.992C48.5127 142.141 48.918 142.216 49.334 142.216C49.8993 142.216 50.3687 142.083 50.742 141.816C51.1153 141.549 51.302 141.208 51.302 140.792C51.302 140.472 51.19 140.221 50.966 140.04C50.7527 139.859 50.3953 139.72 49.894 139.624L48.614 139.4C47.8567 139.261 47.2967 139.027 46.934 138.696C46.582 138.365 46.406 137.917 46.406 137.352C46.406 136.904 46.5233 136.509 46.758 136.168C47.0033 135.827 47.3393 135.56 47.766 135.368C48.1927 135.165 48.678 135.064 49.222 135.064C49.7553 135.064 50.262 135.144 50.742 135.304C51.222 135.453 51.7073 135.699 52.198 136.04L51.622 136.856C51.2167 136.568 50.8113 136.36 50.406 136.232C50.0007 136.093 49.59 136.024 49.174 136.024C48.662 136.024 48.2513 136.136 47.942 136.36C47.6327 136.584 47.478 136.888 47.478 137.272C47.478 137.592 47.574 137.837 47.766 138.008C47.9687 138.179 48.3207 138.307 48.822 138.392L50.134 138.632C50.9233 138.771 51.4993 139.011 51.862 139.352C52.2247 139.693 52.406 140.152 52.406 140.728C52.406 141.187 52.2727 141.603 52.006 141.976C51.7393 142.339 51.3767 142.627 50.918 142.84C50.4593 143.053 49.942 143.16 49.366 143.16ZM56.6004 143.16C55.9604 143.16 55.3684 143.064 54.8244 142.872C54.2804 142.669 53.8164 142.381 53.4324 142.008L54.0564 141.24C54.5257 141.581 54.9577 141.832 55.3524 141.992C55.747 142.141 56.1524 142.216 56.5684 142.216C57.1337 142.216 57.603 142.083 57.9764 141.816C58.3497 141.549 58.5364 141.208 58.5364 140.792C58.5364 140.472 58.4244 140.221 58.2004 140.04C57.987 139.859 57.6297 139.72 57.1284 139.624L55.8484 139.4C55.091 139.261 54.531 139.027 54.1684 138.696C53.8164 138.365 53.6404 137.917 53.6404 137.352C53.6404 136.904 53.7577 136.509 53.9924 136.168C54.2377 135.827 54.5737 135.56 55.0004 135.368C55.427 135.165 55.9124 135.064 56.4564 135.064C56.9897 135.064 57.4964 135.144 57.9764 135.304C58.4564 135.453 58.9417 135.699 59.4324 136.04L58.8564 136.856C58.451 136.568 58.0457 136.36 57.6404 136.232C57.235 136.093 56.8244 136.024 56.4084 136.024C55.8964 136.024 55.4857 136.136 55.1764 136.36C54.867 136.584 54.7124 136.888 54.7124 137.272C54.7124 137.592 54.8084 137.837 55.0004 138.008C55.203 138.179 55.555 138.307 56.0564 138.392L57.3684 138.632C58.1577 138.771 58.7337 139.011 59.0964 139.352C59.459 139.693 59.6404 140.152 59.6404 140.728C59.6404 141.187 59.507 141.603 59.2404 141.976C58.9737 142.339 58.611 142.627 58.1524 142.84C57.6937 143.053 57.1764 143.16 56.6004 143.16ZM63.9129 143.144C63.3582 143.144 62.8675 143.043 62.4409 142.84C62.0142 142.637 61.6782 142.36 61.4329 142.008C61.1982 141.645 61.0809 141.229 61.0809 140.76C61.0809 140.291 61.2035 139.885 61.4489 139.544C61.6942 139.192 62.0355 138.92 62.4729 138.728C62.9102 138.536 63.4222 138.44 64.0089 138.44C64.4569 138.44 64.8782 138.488 65.2729 138.584C65.6782 138.68 66.0515 138.835 66.3929 139.048V137.976C66.3929 137.336 66.2222 136.856 65.8809 136.536C65.5395 136.205 65.0382 136.04 64.3769 136.04C64.0142 136.04 63.6409 136.093 63.2569 136.2C62.8835 136.307 62.4675 136.477 62.0089 136.712L61.5769 135.816C62.6222 135.315 63.6035 135.064 64.5209 135.064C65.4915 135.064 66.2382 135.304 66.7609 135.784C67.2835 136.253 67.5449 136.931 67.5449 137.816V143H66.3929V142.088C66.0515 142.44 65.6729 142.707 65.2569 142.888C64.8409 143.059 64.3929 143.144 63.9129 143.144ZM62.2009 140.728C62.2009 141.187 62.3769 141.555 62.7289 141.832C63.0915 142.109 63.5662 142.248 64.1529 142.248C64.5902 142.248 64.9902 142.173 65.3529 142.024C65.7262 141.875 66.0729 141.651 66.3929 141.352V139.848C66.0622 139.656 65.7209 139.517 65.3689 139.432C65.0169 139.336 64.6222 139.288 64.1849 139.288C63.5875 139.288 63.1075 139.421 62.7449 139.688C62.3822 139.944 62.2009 140.291 62.2009 140.728ZM73.5348 146.504C73.0121 146.504 72.4841 146.429 71.9508 146.28C71.4281 146.141 70.9428 145.944 70.4948 145.688L70.9908 144.792C71.4708 145.037 71.9081 145.219 72.3028 145.336C72.6974 145.453 73.0921 145.512 73.4868 145.512C74.2014 145.512 74.7401 145.341 75.1028 145C75.4761 144.659 75.6628 144.163 75.6628 143.512V141.944C75.3641 142.317 75.0014 142.605 74.5748 142.808C74.1481 143 73.6788 143.096 73.1668 143.096C72.4948 143.096 71.8868 142.92 71.3428 142.568C70.7988 142.205 70.3668 141.725 70.0468 141.128C69.7268 140.52 69.5668 139.843 69.5668 139.096C69.5668 138.349 69.7268 137.677 70.0468 137.08C70.3774 136.472 70.8201 135.992 71.3748 135.64C71.9294 135.277 72.5481 135.096 73.2308 135.096C73.7214 135.096 74.1748 135.192 74.5908 135.384C75.0068 135.565 75.3694 135.837 75.6788 136.2V135.192H76.8308V143.496C76.8308 144.467 76.5481 145.208 75.9828 145.72C75.4174 146.243 74.6014 146.504 73.5348 146.504ZM73.4548 142.088C73.9134 142.088 74.3348 141.997 74.7188 141.816C75.1028 141.624 75.4174 141.363 75.6628 141.032V137.176C75.4068 136.845 75.0814 136.589 74.6868 136.408C74.3028 136.216 73.8921 136.12 73.4548 136.12C72.9321 136.12 72.4628 136.248 72.0468 136.504C71.6414 136.76 71.3161 137.112 71.0707 137.56C70.8361 138.008 70.7188 138.52 70.7188 139.096C70.7188 139.661 70.8361 140.173 71.0707 140.632C71.3161 141.08 71.6414 141.437 72.0468 141.704C72.4628 141.96 72.9321 142.088 73.4548 142.088ZM82.7513 143.16C82.0259 143.16 81.3699 142.984 80.7833 142.632C80.1966 142.269 79.7326 141.784 79.3913 141.176C79.0499 140.557 78.8793 139.864 78.8793 139.096C78.8793 138.328 79.0393 137.64 79.3593 137.032C79.6899 136.424 80.1326 135.944 80.6873 135.592C81.2419 135.24 81.8606 135.064 82.5433 135.064C83.2366 135.064 83.8499 135.24 84.3833 135.592C84.9273 135.933 85.3539 136.403 85.6633 137C85.9833 137.587 86.1433 138.253 86.1433 139V139.352H80.0153C80.0579 139.885 80.2019 140.365 80.4473 140.792C80.7033 141.208 81.0339 141.539 81.4393 141.784C81.8553 142.019 82.3086 142.136 82.7993 142.136C83.2046 142.136 83.5939 142.067 83.9673 141.928C84.3513 141.779 84.6766 141.581 84.9433 141.336L85.6793 142.12C85.2313 142.472 84.7673 142.733 84.2873 142.904C83.8073 143.075 83.2953 143.16 82.7513 143.16ZM80.0473 138.52H84.9913C84.9379 138.051 84.7939 137.635 84.5593 137.272C84.3353 136.899 84.0473 136.605 83.6953 136.392C83.3539 136.179 82.9699 136.072 82.5433 136.072C82.1166 136.072 81.7273 136.179 81.3753 136.392C81.0233 136.595 80.7299 136.883 80.4953 137.256C80.2713 137.619 80.1219 138.04 80.0473 138.52ZM95.3759 143.128C94.6505 143.128 93.9945 142.952 93.4079 142.6C92.8319 142.237 92.3732 141.752 92.0319 141.144C91.6905 140.525 91.5199 139.843 91.5199 139.096C91.5199 138.339 91.6905 137.656 92.0319 137.048C92.3732 136.44 92.8319 135.96 93.4079 135.608C93.9945 135.245 94.6505 135.064 95.3759 135.064C95.9519 135.064 96.5012 135.171 97.0239 135.384C97.5465 135.597 97.9999 135.896 98.3839 136.28L97.6319 137.096C97.3545 136.787 97.0185 136.547 96.6239 136.376C96.2292 136.205 95.8292 136.12 95.4239 136.12C94.9119 136.12 94.4479 136.253 94.0319 136.52C93.6265 136.787 93.3012 137.144 93.0559 137.592C92.8105 138.04 92.6879 138.541 92.6879 139.096C92.6879 139.651 92.8105 140.152 93.0559 140.6C93.3012 141.048 93.6265 141.405 94.0319 141.672C94.4479 141.939 94.9119 142.072 95.4239 142.072C95.8292 142.072 96.2292 141.987 96.6239 141.816C97.0185 141.635 97.3545 141.395 97.6319 141.096L98.3839 141.912C97.9999 142.296 97.5465 142.595 97.0239 142.808C96.5012 143.021 95.9519 143.128 95.3759 143.128ZM103.234 143.128C102.509 143.128 101.858 142.952 101.282 142.6C100.706 142.248 100.253 141.768 99.9221 141.16C99.5915 140.552 99.4261 139.864 99.4261 139.096C99.4261 138.328 99.5915 137.64 99.9221 137.032C100.253 136.424 100.706 135.944 101.282 135.592C101.858 135.24 102.509 135.064 103.234 135.064C103.949 135.064 104.589 135.24 105.154 135.592C105.73 135.944 106.183 136.424 106.514 137.032C106.845 137.64 107.01 138.328 107.01 139.096C107.01 139.864 106.845 140.552 106.514 141.16C106.183 141.768 105.73 142.248 105.154 142.6C104.589 142.952 103.949 143.128 103.234 143.128ZM103.218 142.104C103.73 142.104 104.183 141.976 104.578 141.72C104.973 141.453 105.282 141.091 105.506 140.632C105.741 140.173 105.858 139.661 105.858 139.096C105.858 138.52 105.741 138.008 105.506 137.56C105.282 137.101 104.973 136.744 104.578 136.488C104.183 136.221 103.73 136.088 103.218 136.088C102.706 136.088 102.253 136.221 101.858 136.488C101.463 136.744 101.149 137.101 100.914 137.56C100.69 138.008 100.578 138.52 100.578 139.096C100.578 139.661 100.69 140.173 100.914 140.632C101.149 141.091 101.463 141.453 101.858 141.72C102.253 141.976 102.706 142.104 103.218 142.104ZM109.059 143V135.192H110.227V136.456C110.526 135.987 110.883 135.64 111.299 135.416C111.715 135.181 112.185 135.064 112.707 135.064C113.273 135.064 113.763 135.187 114.179 135.432C114.606 135.667 114.937 136.003 115.171 136.44C115.417 136.867 115.539 137.368 115.539 137.944V143H114.371V138.28C114.371 137.587 114.179 137.043 113.795 136.648C113.422 136.243 112.915 136.04 112.275 136.04C111.849 136.04 111.459 136.141 111.107 136.344C110.755 136.547 110.462 136.845 110.227 137.24V143H109.059ZM120.629 143.16C119.957 143.16 119.445 143 119.093 142.68C118.752 142.349 118.581 141.875 118.581 141.256V136.152H116.965V135.192H118.581V133.048L119.749 132.776V135.192H121.989V136.152H119.749V140.952C119.749 141.368 119.834 141.667 120.005 141.848C120.186 142.029 120.48 142.12 120.885 142.12C121.088 142.12 121.269 142.104 121.429 142.072C121.589 142.04 121.776 141.987 121.989 141.912V142.952C121.776 143.027 121.552 143.08 121.317 143.112C121.082 143.144 120.853 143.16 120.629 143.16ZM126.116 143.144C125.561 143.144 125.071 143.043 124.644 142.84C124.217 142.637 123.881 142.36 123.636 142.008C123.401 141.645 123.284 141.229 123.284 140.76C123.284 140.291 123.407 139.885 123.652 139.544C123.897 139.192 124.239 138.92 124.676 138.728C125.113 138.536 125.625 138.44 126.212 138.44C126.66 138.44 127.081 138.488 127.476 138.584C127.881 138.68 128.255 138.835 128.596 139.048V137.976C128.596 137.336 128.425 136.856 128.084 136.536C127.743 136.205 127.241 136.04 126.58 136.04C126.217 136.04 125.844 136.093 125.46 136.2C125.087 136.307 124.671 136.477 124.212 136.712L123.78 135.816C124.825 135.315 125.807 135.064 126.724 135.064C127.695 135.064 128.441 135.304 128.964 135.784C129.487 136.253 129.748 136.931 129.748 137.816V143H128.596V142.088C128.255 142.44 127.876 142.707 127.46 142.888C127.044 143.059 126.596 143.144 126.116 143.144ZM124.404 140.728C124.404 141.187 124.58 141.555 124.932 141.832C125.295 142.109 125.769 142.248 126.356 142.248C126.793 142.248 127.193 142.173 127.556 142.024C127.929 141.875 128.276 141.651 128.596 141.352V139.848C128.265 139.656 127.924 139.517 127.572 139.432C127.22 139.336 126.825 139.288 126.388 139.288C125.791 139.288 125.311 139.421 124.948 139.688C124.585 139.944 124.404 140.291 124.404 140.728ZM135.626 143.128C134.901 143.128 134.245 142.952 133.658 142.6C133.082 142.237 132.623 141.752 132.282 141.144C131.941 140.525 131.77 139.843 131.77 139.096C131.77 138.339 131.941 137.656 132.282 137.048C132.623 136.44 133.082 135.96 133.658 135.608C134.245 135.245 134.901 135.064 135.626 135.064C136.202 135.064 136.751 135.171 137.274 135.384C137.797 135.597 138.25 135.896 138.634 136.28L137.882 137.096C137.605 136.787 137.269 136.547 136.874 136.376C136.479 136.205 136.079 136.12 135.674 136.12C135.162 136.12 134.698 136.253 134.282 136.52C133.877 136.787 133.551 137.144 133.306 137.592C133.061 138.04 132.938 138.541 132.938 139.096C132.938 139.651 133.061 140.152 133.306 140.6C133.551 141.048 133.877 141.405 134.282 141.672C134.698 141.939 135.162 142.072 135.674 142.072C136.079 142.072 136.479 141.987 136.874 141.816C137.269 141.635 137.605 141.395 137.882 141.096L138.634 141.912C138.25 142.296 137.797 142.595 137.274 142.808C136.751 143.021 136.202 143.128 135.626 143.128ZM143.395 143.16C142.723 143.16 142.211 143 141.859 142.68C141.517 142.349 141.347 141.875 141.347 141.256V136.152H139.731V135.192H141.347V133.048L142.515 132.776V135.192H144.755V136.152H142.515V140.952C142.515 141.368 142.6 141.667 142.771 141.848C142.952 142.029 143.245 142.12 143.651 142.12C143.853 142.12 144.035 142.104 144.195 142.072C144.355 142.04 144.541 141.987 144.755 141.912V142.952C144.541 143.027 144.317 143.08 144.083 143.112C143.848 143.144 143.619 143.16 143.395 143.16Z" fill="#151515"/>
<path d="M24.424 183V171.8H29.016C29.7307 171.8 30.3547 171.939 30.888 172.216C31.4213 172.483 31.8373 172.856 32.136 173.336C32.4347 173.816 32.584 174.381 32.584 175.032C32.584 175.779 32.376 176.419 31.96 176.952C31.544 177.475 30.9733 177.843 30.248 178.056L32.632 183H31.272L29 178.216H25.656V183H24.424ZM25.656 177.192H28.92C29.656 177.192 30.2427 177 30.68 176.616C31.128 176.221 31.352 175.699 31.352 175.048C31.352 174.387 31.128 173.864 30.68 173.48C30.2427 173.085 29.656 172.888 28.92 172.888H25.656V177.192ZM37.6731 183.16C36.9478 183.16 36.2918 182.984 35.7051 182.632C35.1185 182.269 34.6545 181.784 34.3131 181.176C33.9718 180.557 33.8011 179.864 33.8011 179.096C33.8011 178.328 33.9611 177.64 34.2811 177.032C34.6118 176.424 35.0545 175.944 35.6091 175.592C36.1638 175.24 36.7825 175.064 37.4651 175.064C38.1585 175.064 38.7718 175.24 39.3051 175.592C39.8491 175.933 40.2758 176.403 40.5851 177C40.9051 177.587 41.0651 178.253 41.0651 179V179.352H34.9371C34.9798 179.885 35.1238 180.365 35.3691 180.792C35.6251 181.208 35.9558 181.539 36.3611 181.784C36.7771 182.019 37.2305 182.136 37.7211 182.136C38.1265 182.136 38.5158 182.067 38.8891 181.928C39.2731 181.779 39.5985 181.581 39.8651 181.336L40.6011 182.12C40.1531 182.472 39.6891 182.733 39.2091 182.904C38.7291 183.075 38.2171 183.16 37.6731 183.16ZM34.9691 178.52H39.9131C39.8598 178.051 39.7158 177.635 39.4811 177.272C39.2571 176.899 38.9691 176.605 38.6171 176.392C38.2758 176.179 37.8918 176.072 37.4651 176.072C37.0385 176.072 36.6491 176.179 36.2971 176.392C35.9451 176.595 35.6518 176.883 35.4171 177.256C35.1931 177.619 35.0438 178.04 34.9691 178.52ZM43.0594 186.344V175.192H44.2114V176.312C44.51 175.917 44.8727 175.619 45.2994 175.416C45.7367 175.203 46.2167 175.096 46.7394 175.096C47.422 175.096 48.03 175.277 48.5634 175.64C49.1074 175.992 49.5394 176.472 49.8594 177.08C50.1794 177.677 50.3394 178.349 50.3394 179.096C50.3394 179.843 50.174 180.52 49.8434 181.128C49.5234 181.736 49.086 182.221 48.5314 182.584C47.9874 182.936 47.3687 183.112 46.6754 183.112C46.1847 183.112 45.7314 183.021 45.3154 182.84C44.8994 182.648 44.5367 182.376 44.2274 182.024V186.344H43.0594ZM46.4514 182.104C46.974 182.104 47.438 181.976 47.8434 181.72C48.2594 181.453 48.5847 181.096 48.8194 180.648C49.0647 180.189 49.1874 179.677 49.1874 179.112C49.1874 178.536 49.0647 178.024 48.8194 177.576C48.5847 177.128 48.2594 176.776 47.8434 176.52C47.438 176.253 46.974 176.12 46.4514 176.12C45.9927 176.12 45.566 176.216 45.1714 176.408C44.7874 176.589 44.4727 176.851 44.2274 177.192V181.016C44.4834 181.357 44.8034 181.624 45.1874 181.816C45.582 182.008 46.0034 182.104 46.4514 182.104ZM55.8435 183.128C55.1182 183.128 54.4675 182.952 53.8915 182.6C53.3155 182.248 52.8622 181.768 52.5315 181.16C52.2008 180.552 52.0355 179.864 52.0355 179.096C52.0355 178.328 52.2008 177.64 52.5315 177.032C52.8622 176.424 53.3155 175.944 53.8915 175.592C54.4675 175.24 55.1182 175.064 55.8435 175.064C56.5582 175.064 57.1982 175.24 57.7635 175.592C58.3395 175.944 58.7928 176.424 59.1235 177.032C59.4542 177.64 59.6195 178.328 59.6195 179.096C59.6195 179.864 59.4542 180.552 59.1235 181.16C58.7928 181.768 58.3395 182.248 57.7635 182.6C57.1982 182.952 56.5582 183.128 55.8435 183.128ZM55.8275 182.104C56.3395 182.104 56.7928 181.976 57.1875 181.72C57.5822 181.453 57.8915 181.091 58.1155 180.632C58.3502 180.173 58.4675 179.661 58.4675 179.096C58.4675 178.52 58.3502 178.008 58.1155 177.56C57.8915 177.101 57.5822 176.744 57.1875 176.488C56.7928 176.221 56.3395 176.088 55.8275 176.088C55.3155 176.088 54.8622 176.221 54.4675 176.488C54.0728 176.744 53.7582 177.101 53.5235 177.56C53.2995 178.008 53.1875 178.52 53.1875 179.096C53.1875 179.661 53.2995 180.173 53.5235 180.632C53.7582 181.091 54.0728 181.453 54.4675 181.72C54.8622 181.976 55.3155 182.104 55.8275 182.104ZM64.0848 183.16C63.4448 183.16 62.8528 183.064 62.3088 182.872C61.7648 182.669 61.3008 182.381 60.9168 182.008L61.5408 181.24C62.0101 181.581 62.4421 181.832 62.8368 181.992C63.2314 182.141 63.6368 182.216 64.0528 182.216C64.6181 182.216 65.0874 182.083 65.4608 181.816C65.8341 181.549 66.0208 181.208 66.0208 180.792C66.0208 180.472 65.9088 180.221 65.6848 180.04C65.4714 179.859 65.1141 179.72 64.6128 179.624L63.3328 179.4C62.5754 179.261 62.0154 179.027 61.6528 178.696C61.3008 178.365 61.1248 177.917 61.1248 177.352C61.1248 176.904 61.2421 176.509 61.4768 176.168C61.7221 175.827 62.0581 175.56 62.4848 175.368C62.9114 175.165 63.3968 175.064 63.9408 175.064C64.4741 175.064 64.9808 175.144 65.4608 175.304C65.9408 175.453 66.4261 175.699 66.9168 176.04L66.3408 176.856C65.9354 176.568 65.5301 176.36 65.1248 176.232C64.7194 176.093 64.3088 176.024 63.8928 176.024C63.3808 176.024 62.9701 176.136 62.6608 176.36C62.3514 176.584 62.1968 176.888 62.1968 177.272C62.1968 177.592 62.2928 177.837 62.4848 178.008C62.6874 178.179 63.0394 178.307 63.5408 178.392L64.8528 178.632C65.6421 178.771 66.2181 179.011 66.5808 179.352C66.9434 179.693 67.1248 180.152 67.1248 180.728C67.1248 181.187 66.9914 181.603 66.7248 181.976C66.4581 182.339 66.0954 182.627 65.6368 182.84C65.1781 183.053 64.6608 183.16 64.0848 183.16ZM71.7229 183.16C71.0509 183.16 70.5389 183 70.1869 182.68C69.8455 182.349 69.6749 181.875 69.6749 181.256V176.152H68.0589V175.192H69.6749V173.048L70.8429 172.776V175.192H73.0829V176.152H70.8429V180.952C70.8429 181.368 70.9282 181.667 71.0989 181.848C71.2802 182.029 71.5735 182.12 71.9789 182.12C72.1815 182.12 72.3629 182.104 72.5229 182.072C72.6829 182.04 72.8695 181.987 73.0829 181.912V182.952C72.8695 183.027 72.6455 183.08 72.4109 183.112C72.1762 183.144 71.9469 183.16 71.7229 183.16ZM81.5041 183.16C80.8321 183.16 80.3201 183 79.9681 182.68C79.6268 182.349 79.4561 181.875 79.4561 181.256V176.152H77.8401V175.192H79.4561V173.048L80.6241 172.776V175.192H82.8641V176.152H80.6241V180.952C80.6241 181.368 80.7095 181.667 80.8801 181.848C81.0615 182.029 81.3548 182.12 81.7601 182.12C81.9628 182.12 82.1441 182.104 82.3041 182.072C82.4641 182.04 82.6508 181.987 82.8641 181.912V182.952C82.6508 183.027 82.4268 183.08 82.1921 183.112C81.9575 183.144 81.7281 183.16 81.5041 183.16ZM87.8748 183.128C87.1494 183.128 86.4988 182.952 85.9228 182.6C85.3468 182.248 84.8934 181.768 84.5628 181.16C84.2321 180.552 84.0668 179.864 84.0668 179.096C84.0668 178.328 84.2321 177.64 84.5628 177.032C84.8934 176.424 85.3468 175.944 85.9228 175.592C86.4988 175.24 87.1494 175.064 87.8748 175.064C88.5894 175.064 89.2294 175.24 89.7948 175.592C90.3708 175.944 90.8241 176.424 91.1548 177.032C91.4854 177.64 91.6508 178.328 91.6508 179.096C91.6508 179.864 91.4854 180.552 91.1548 181.16C90.8241 181.768 90.3708 182.248 89.7948 182.6C89.2294 182.952 88.5894 183.128 87.8748 183.128ZM87.8588 182.104C88.3708 182.104 88.8241 181.976 89.2188 181.72C89.6134 181.453 89.9228 181.091 90.1468 180.632C90.3814 180.173 90.4988 179.661 90.4988 179.096C90.4988 178.52 90.3814 178.008 90.1468 177.56C89.9228 177.101 89.6134 176.744 89.2188 176.488C88.8241 176.221 88.3708 176.088 87.8588 176.088C87.3468 176.088 86.8934 176.221 86.4988 176.488C86.1041 176.744 85.7894 177.101 85.5548 177.56C85.3308 178.008 85.2188 178.52 85.2188 179.096C85.2188 179.661 85.3308 180.173 85.5548 180.632C85.7894 181.091 86.1041 181.453 86.4988 181.72C86.8934 181.976 87.3468 182.104 87.8588 182.104ZM100.938 183.128C100.213 183.128 99.557 182.952 98.9704 182.6C98.3944 182.237 97.9357 181.752 97.5944 181.144C97.253 180.525 97.0824 179.843 97.0824 179.096C97.0824 178.339 97.253 177.656 97.5944 177.048C97.9357 176.44 98.3944 175.96 98.9704 175.608C99.557 175.245 100.213 175.064 100.938 175.064C101.514 175.064 102.064 175.171 102.586 175.384C103.109 175.597 103.562 175.896 103.946 176.28L103.194 177.096C102.917 176.787 102.581 176.547 102.186 176.376C101.792 176.205 101.392 176.12 100.986 176.12C100.474 176.12 100.01 176.253 99.5944 176.52C99.189 176.787 98.8637 177.144 98.6184 177.592C98.373 178.04 98.2504 178.541 98.2504 179.096C98.2504 179.651 98.373 180.152 98.6184 180.6C98.8637 181.048 99.189 181.405 99.5944 181.672C100.01 181.939 100.474 182.072 100.986 182.072C101.392 182.072 101.792 181.987 102.186 181.816C102.581 181.635 102.917 181.395 103.194 181.096L103.946 181.912C103.562 182.296 103.109 182.595 102.586 182.808C102.064 183.021 101.514 183.128 100.938 183.128ZM108.797 183.128C108.071 183.128 107.421 182.952 106.845 182.6C106.269 182.248 105.815 181.768 105.485 181.16C105.154 180.552 104.989 179.864 104.989 179.096C104.989 178.328 105.154 177.64 105.485 177.032C105.815 176.424 106.269 175.944 106.845 175.592C107.421 175.24 108.071 175.064 108.797 175.064C109.511 175.064 110.151 175.24 110.717 175.592C111.293 175.944 111.746 176.424 112.077 177.032C112.407 177.64 112.573 178.328 112.573 179.096C112.573 179.864 112.407 180.552 112.077 181.16C111.746 181.768 111.293 182.248 110.717 182.6C110.151 182.952 109.511 183.128 108.797 183.128ZM108.781 182.104C109.293 182.104 109.746 181.976 110.141 181.72C110.535 181.453 110.845 181.091 111.069 180.632C111.303 180.173 111.421 179.661 111.421 179.096C111.421 178.52 111.303 178.008 111.069 177.56C110.845 177.101 110.535 176.744 110.141 176.488C109.746 176.221 109.293 176.088 108.781 176.088C108.269 176.088 107.815 176.221 107.421 176.488C107.026 176.744 106.711 177.101 106.477 177.56C106.253 178.008 106.141 178.52 106.141 179.096C106.141 179.661 106.253 180.173 106.477 180.632C106.711 181.091 107.026 181.453 107.421 181.72C107.815 181.976 108.269 182.104 108.781 182.104ZM114.622 183V175.192H115.79V176.408C116.089 175.96 116.43 175.624 116.814 175.4C117.198 175.176 117.63 175.064 118.11 175.064C118.665 175.064 119.15 175.203 119.566 175.48C119.982 175.747 120.297 176.115 120.51 176.584C120.819 176.083 121.187 175.704 121.614 175.448C122.051 175.192 122.553 175.064 123.118 175.064C123.641 175.064 124.099 175.187 124.494 175.432C124.899 175.677 125.214 176.019 125.438 176.456C125.662 176.883 125.774 177.384 125.774 177.96V183H124.606V178.248C124.606 177.565 124.435 177.027 124.094 176.632C123.753 176.237 123.283 176.04 122.686 176.04C122.281 176.04 121.913 176.141 121.582 176.344C121.262 176.547 120.979 176.856 120.734 177.272C120.755 177.379 120.771 177.491 120.782 177.608C120.793 177.725 120.798 177.843 120.798 177.96V183H119.63V178.248C119.63 177.565 119.454 177.027 119.102 176.632C118.761 176.237 118.291 176.04 117.694 176.04C116.894 176.04 116.259 176.424 115.79 177.192V183H114.622ZM128.138 183V175.192H129.306V176.408C129.604 175.96 129.946 175.624 130.33 175.4C130.714 175.176 131.146 175.064 131.626 175.064C132.18 175.064 132.666 175.203 133.082 175.48C133.498 175.747 133.812 176.115 134.026 176.584C134.335 176.083 134.703 175.704 135.13 175.448C135.567 175.192 136.068 175.064 136.634 175.064C137.156 175.064 137.615 175.187 138.01 175.432C138.415 175.677 138.73 176.019 138.954 176.456C139.178 176.883 139.29 177.384 139.29 177.96V183H138.122V178.248C138.122 177.565 137.951 177.027 137.61 176.632C137.268 176.237 136.799 176.04 136.202 176.04C135.796 176.04 135.428 176.141 135.098 176.344C134.778 176.547 134.495 176.856 134.25 177.272C134.271 177.379 134.287 177.491 134.298 177.608C134.308 177.725 134.314 177.843 134.314 177.96V183H133.146V178.248C133.146 177.565 132.97 177.027 132.618 176.632C132.276 176.237 131.807 176.04 131.21 176.04C130.41 176.04 129.775 176.424 129.306 177.192V183H128.138ZM144.359 183.128C143.804 183.128 143.314 183.005 142.887 182.76C142.46 182.515 142.124 182.173 141.879 181.736C141.644 181.299 141.527 180.797 141.527 180.232V175.192H142.711V179.896C142.711 180.589 142.898 181.139 143.271 181.544C143.644 181.949 144.151 182.152 144.791 182.152C145.228 182.152 145.618 182.051 145.959 181.848C146.311 181.645 146.604 181.352 146.839 180.968V175.192H148.007V183H146.839V181.736C146.54 182.195 146.183 182.541 145.767 182.776C145.362 183.011 144.892 183.128 144.359 183.128ZM150.403 183V175.192H151.571V176.456C151.87 175.987 152.227 175.64 152.643 175.416C153.059 175.181 153.528 175.064 154.051 175.064C154.616 175.064 155.107 175.187 155.523 175.432C155.95 175.667 156.28 176.003 156.515 176.44C156.76 176.867 156.883 177.368 156.883 177.944V183H155.715V178.28C155.715 177.587 155.523 177.043 155.139 176.648C154.766 176.243 154.259 176.04 153.619 176.04C153.192 176.04 152.803 176.141 152.451 176.344C152.099 176.547 151.806 176.845 151.571 177.24V183H150.403ZM159.215 183V175.192H160.383V183H159.215ZM159.807 173.256C159.573 173.256 159.37 173.176 159.199 173.016C159.039 172.845 158.959 172.648 158.959 172.424C158.959 172.2 159.039 172.008 159.199 171.848C159.37 171.677 159.573 171.592 159.807 171.592C160.042 171.592 160.239 171.677 160.399 171.848C160.57 172.008 160.655 172.2 160.655 172.424C160.655 172.648 160.57 172.845 160.399 173.016C160.239 173.176 160.042 173.256 159.807 173.256ZM165.754 183.16C165.082 183.16 164.57 183 164.218 182.68C163.877 182.349 163.706 181.875 163.706 181.256V176.152H162.09V175.192H163.706V173.048L164.874 172.776V175.192H167.114V176.152H164.874V180.952C164.874 181.368 164.959 181.667 165.13 181.848C165.311 182.029 165.605 182.12 166.01 182.12C166.213 182.12 166.394 182.104 166.554 182.072C166.714 182.04 166.901 181.987 167.114 181.912V182.952C166.901 183.027 166.677 183.08 166.442 183.112C166.207 183.144 165.978 183.16 165.754 183.16ZM169.317 186.504C169.072 186.504 168.821 186.467 168.565 186.392V185.352C168.672 185.373 168.784 185.389 168.901 185.4C169.019 185.411 169.12 185.416 169.205 185.416C169.504 185.416 169.749 185.336 169.941 185.176C170.144 185.016 170.315 184.765 170.453 184.424L171.029 183L168.021 175.192H169.317L171.685 181.608L174.197 175.192H175.493L171.557 184.776C171.387 185.192 171.2 185.528 170.997 185.784C170.795 186.04 170.56 186.221 170.293 186.328C170.027 186.445 169.701 186.504 169.317 186.504Z" fill="#151515"/>
</g>
<path d="M10 69.5H189C190.381 69.5 191.5 70.6193 191.5 72V202C191.5 203.381 190.381 204.5 189 204.5H10C8.61929 204.5 7.5 203.381 7.5 202V72C7.5 70.6193 8.61929 69.5 10 69.5Z" stroke="#C7C7C7"/>
</g>
<mask id="path-12-outside-1_8079_3727" maskUnits="userSpaceOnUse" x="10.5" y="80" width="178" height="34" fill="black">
<rect fill="white" x="10.5" y="80" width="178" height="34"/>
<path d="M12.5 85C12.5 83.3431 13.8431 82 15.5 82H183.5C185.157 82 186.5 83.3431 186.5 85V109C186.5 110.657 185.157 112 183.5 112H15.5C13.8431 112 12.5 110.657 12.5 109V85Z"/>
</mask>
<path d="M15.5 82V84H183.5V82V80H15.5V82ZM186.5 85H184.5V109H186.5H188.5V85H186.5ZM183.5 112V110H15.5V112V114H183.5V112ZM12.5 109H14.5V85H12.5H10.5V109H12.5ZM15.5 112V110C14.9477 110 14.5 109.552 14.5 109H12.5H10.5C10.5 111.761 12.7386 114 15.5 114V112ZM186.5 109H184.5C184.5 109.552 184.052 110 183.5 110V112V114C186.261 114 188.5 111.761 188.5 109H186.5ZM183.5 82V84C184.052 84 184.5 84.4477 184.5 85H186.5H188.5C188.5 82.2386 186.261 80 183.5 80V82ZM15.5 82V80C12.7386 80 10.5 82.2386 10.5 85H12.5H14.5C14.5 84.4477 14.9477 84 15.5 84V82Z" fill="#0066CC" mask="url(#path-12-outside-1_8079_3727)"/>
<defs>
<filter id="filter0_d_8079_3727" x="0" y="66" width="199" height="150" filterUnits="userSpaceOnUse" color-interpolation-filters="sRGB">
<feFlood flood-opacity="0" result="BackgroundImageFix"/>
<feColorMatrix in="SourceAlpha" type="matrix" values="0 0 0 0 0 0 0 0 0 0 0 0 0 0 0 0 0 0 127 0" result="hardAlpha"/>
<feMorphology radius="1" operator="dilate" in="SourceAlpha" result="effect1_dropShadow_8079_3727"/>
<feOffset dy="4"/>
<feGaussianBlur stdDeviation="3"/>
<feComposite in2="hardAlpha" operator="out"/>
<feColorMatrix type="matrix" values="0 0 0 0 0.0823529 0 0 0 0 0.0823529 0 0 0 0 0.0823529 0 0 0 0.25 0"/>
<feBlend mode="normal" in2="BackgroundImageFix" result="effect1_dropShadow_8079_3727"/>
<feBlend mode="normal" in="SourceGraphic" in2="effect1_dropShadow_8079_3727" result="shape"/>
</filter>
<clipPath id="clip0_8079_3727">
<path d="M7 72C7 70.3431 8.34315 69 10 69H189C190.657 69 192 70.3431 192 72V202C192 203.657 190.657 205 189 205H10C8.34315 205 7 203.657 7 202V72Z" fill="white"/>
</clipPath>
</defs>
</svg>
