<svg width="482" height="235" viewBox="0 0 482 235" fill="none" xmlns="http://www.w3.org/2000/svg">
<path d="M59 1H145C146.105 1 147 1.89543 147 3V33C147 34.1046 146.105 35 145 35H59C57.8954 35 57 34.1046 57 33V3C57 1.89543 57.8954 1 59 1Z" fill="white"/>
<path d="M59 1H145C146.105 1 147 1.89543 147 3V33C147 34.1046 146.105 35 145 35H59C57.8954 35 57 34.1046 57 33V3C57 1.89543 57.8954 1 59 1Z" stroke="#0066CC" stroke-width="2"/>
<path d="M77.04 24.176C76.1653 24.176 75.3547 24.0213 74.608 23.712C73.8613 23.392 73.1413 22.912 72.448 22.272L73.2 21.376C73.872 22.0053 74.5013 22.4533 75.088 22.72C75.6853 22.9867 76.3467 23.12 77.072 23.12C77.648 23.12 78.16 23.024 78.608 22.832C79.0667 22.6293 79.424 22.3573 79.68 22.016C79.936 21.6747 80.064 21.2853 80.064 20.848C80.064 20.2827 79.8773 19.856 79.504 19.568C79.1307 19.2693 78.4853 19.04 77.568 18.88L75.76 18.576C74.736 18.3947 73.984 18.0853 73.504 17.648C73.0347 17.2 72.8 16.6027 72.8 15.856C72.8 15.2267 72.96 14.672 73.28 14.192C73.6107 13.7013 74.064 13.3173 74.64 13.04C75.216 12.7627 75.8827 12.624 76.64 12.624C77.472 12.624 78.2453 12.7413 78.96 12.976C79.6747 13.2 80.3787 13.5573 81.072 14.048L80.432 15.008C79.856 14.5707 79.248 14.24 78.608 14.016C77.968 13.7813 77.3173 13.664 76.656 13.664C76.1333 13.664 75.6693 13.7547 75.264 13.936C74.8693 14.1173 74.5547 14.3627 74.32 14.672C74.096 14.9813 73.984 15.3333 73.984 15.728C73.984 16.2187 74.1493 16.6027 74.48 16.88C74.8107 17.1573 75.3493 17.3547 76.096 17.472L77.888 17.776C79.0827 17.9893 79.9467 18.336 80.48 18.816C81.024 19.2853 81.296 19.9413 81.296 20.784C81.296 21.4347 81.1093 22.016 80.736 22.528C80.3733 23.04 79.872 23.4453 79.232 23.744C78.592 24.032 77.8613 24.176 77.04 24.176ZM83.1688 24V12.448L84.3368 12.208V17.456C84.6354 16.9867 84.9928 16.64 85.4088 16.416C85.8248 16.1813 86.2941 16.064 86.8168 16.064C87.3821 16.064 87.8728 16.1867 88.2888 16.432C88.7154 16.6667 89.0461 17.0027 89.2808 17.44C89.5261 17.8667 89.6488 18.368 89.6488 18.944V24H88.4808V19.28C88.4808 18.5867 88.2888 18.0427 87.9048 17.648C87.5314 17.2427 87.0248 17.04 86.3848 17.04C85.9581 17.04 85.5688 17.1413 85.2168 17.344C84.8648 17.5467 84.5714 17.8453 84.3368 18.24V24H83.1688ZM94.4129 24.144C93.8582 24.144 93.3675 24.0427 92.9409 23.84C92.5142 23.6373 92.1782 23.36 91.9329 23.008C91.6982 22.6453 91.5809 22.2293 91.5809 21.76C91.5809 21.2907 91.7035 20.8853 91.9489 20.544C92.1942 20.192 92.5355 19.92 92.9729 19.728C93.4102 19.536 93.9222 19.44 94.5089 19.44C94.9569 19.44 95.3782 19.488 95.7729 19.584C96.1782 19.68 96.5515 19.8347 96.8929 20.048V18.976C96.8929 18.336 96.7222 17.856 96.3809 17.536C96.0395 17.2053 95.5382 17.04 94.8769 17.04C94.5142 17.04 94.1409 17.0933 93.7569 17.2C93.3835 17.3067 92.9675 17.4773 92.5089 17.712L92.0769 16.816C93.1222 16.3147 94.1035 16.064 95.0209 16.064C95.9915 16.064 96.7382 16.304 97.2609 16.784C97.7835 17.2533 98.0449 17.9307 98.0449 18.816V24H96.8929V23.088C96.5515 23.44 96.1729 23.7067 95.7569 23.888C95.3409 24.0587 94.8929 24.144 94.4129 24.144ZM92.7009 21.728C92.7009 22.1867 92.8769 22.5547 93.2289 22.832C93.5915 23.1093 94.0662 23.248 94.6529 23.248C95.0902 23.248 95.4902 23.1733 95.8529 23.024C96.2262 22.8747 96.5729 22.6507 96.8929 22.352V20.848C96.5622 20.656 96.2209 20.5173 95.8689 20.432C95.5169 20.336 95.1222 20.288 94.6849 20.288C94.0875 20.288 93.6075 20.4213 93.2449 20.688C92.8822 20.944 92.7009 21.2907 92.7009 21.728ZM100.419 24V16.192H101.587V17.792C101.789 17.248 102.077 16.8267 102.451 16.528C102.835 16.2187 103.272 16.064 103.763 16.064C103.901 16.064 104.029 16.0747 104.147 16.096C104.264 16.1067 104.381 16.1333 104.499 16.176V17.232C104.371 17.1893 104.232 17.1573 104.083 17.136C103.944 17.104 103.811 17.088 103.683 17.088C103.203 17.088 102.781 17.2267 102.419 17.504C102.067 17.7813 101.789 18.1707 101.587 18.672V24H100.419ZM109.079 24.16C108.354 24.16 107.698 23.984 107.111 23.632C106.525 23.2693 106.061 22.784 105.719 22.176C105.378 21.5573 105.207 20.864 105.207 20.096C105.207 19.328 105.367 18.64 105.687 18.032C106.018 17.424 106.461 16.944 107.015 16.592C107.57 16.24 108.189 16.064 108.871 16.064C109.565 16.064 110.178 16.24 110.711 16.592C111.255 16.9333 111.682 17.4027 111.991 18C112.311 18.5867 112.471 19.2533 112.471 20V20.352H106.343C106.386 20.8853 106.53 21.3653 106.775 21.792C107.031 22.208 107.362 22.5387 107.767 22.784C108.183 23.0187 108.637 23.136 109.127 23.136C109.533 23.136 109.922 23.0667 110.295 22.928C110.679 22.7787 111.005 22.5813 111.271 22.336L112.007 23.12C111.559 23.472 111.095 23.7333 110.615 23.904C110.135 24.0747 109.623 24.16 109.079 24.16ZM106.375 19.52H111.319C111.266 19.0507 111.122 18.6347 110.887 18.272C110.663 17.8987 110.375 17.6053 110.023 17.392C109.682 17.1787 109.298 17.072 108.871 17.072C108.445 17.072 108.055 17.1787 107.703 17.392C107.351 17.5947 107.058 17.8827 106.823 18.256C106.599 18.6187 106.45 19.04 106.375 19.52Z" fill="#151515"/>
<path d="M131.354 19.6465L127.53 15.8232C127.238 15.5303 126.762 15.5303 126.47 15.8232L122.647 19.6465C122.504 19.7895 122.461 20.0044 122.538 20.1914C122.615 20.3784 122.798 20.5 123 20.5H131C131.202 20.5 131.385 20.3784 131.462 20.1914C131.54 20.0044 131.497 19.7895 131.354 19.6465Z" fill="#151515"/>
<g filter="url(#filter0_d_4077_5701)">
<g clip-path="url(#clip0_4077_5701)">
<path d="M56 43C56 41.3431 57.3431 40 59 40H258C259.657 40 261 41.3431 261 43V173C261 174.657 259.657 176 258 176H59C57.3431 176 56 174.657 56 173V43Z" fill="white"/>
<path d="M78.592 74.176C77.792 74.176 77.0453 74.032 76.352 73.744C75.6693 73.4453 75.0667 73.0347 74.544 72.512C74.0213 71.9787 73.616 71.3653 73.328 70.672C73.04 69.968 72.896 69.2107 72.896 68.4C72.896 67.5893 73.04 66.8373 73.328 66.144C73.616 65.44 74.0213 64.8267 74.544 64.304C75.0667 63.7707 75.6693 63.36 76.352 63.072C77.0453 62.7733 77.792 62.624 78.592 62.624C79.1467 62.624 79.6747 62.6987 80.176 62.848C80.688 62.9867 81.168 63.1947 81.616 63.472C82.064 63.7387 82.464 64.0693 82.816 64.464L82 65.312C81.584 64.8107 81.072 64.4267 80.464 64.16C79.8667 63.8827 79.2427 63.744 78.592 63.744C77.9627 63.744 77.376 63.8613 76.832 64.096C76.288 64.3307 75.8133 64.6613 75.408 65.088C75.0133 65.5147 74.704 66.0107 74.48 66.576C74.256 67.1307 74.144 67.7387 74.144 68.4C74.144 69.0507 74.256 69.6587 74.48 70.224C74.704 70.7893 75.0133 71.2853 75.408 71.712C75.8133 72.1387 76.288 72.4693 76.832 72.704C77.376 72.9387 77.9627 73.056 78.592 73.056C79.2427 73.056 79.8667 72.9173 80.464 72.64C81.072 72.3627 81.584 71.9787 82 71.488L82.816 72.336C82.464 72.7307 82.064 73.0667 81.616 73.344C81.168 73.6107 80.688 73.8187 80.176 73.968C79.6747 74.1067 79.1467 74.176 78.592 74.176ZM88.031 74.128C87.3057 74.128 86.655 73.952 86.079 73.6C85.503 73.248 85.0497 72.768 84.719 72.16C84.3883 71.552 84.223 70.864 84.223 70.096C84.223 69.328 84.3883 68.64 84.719 68.032C85.0497 67.424 85.503 66.944 86.079 66.592C86.655 66.24 87.3057 66.064 88.031 66.064C88.7457 66.064 89.3857 66.24 89.951 66.592C90.527 66.944 90.9803 67.424 91.311 68.032C91.6417 68.64 91.807 69.328 91.807 70.096C91.807 70.864 91.6417 71.552 91.311 72.16C90.9803 72.768 90.527 73.248 89.951 73.6C89.3857 73.952 88.7457 74.128 88.031 74.128ZM88.015 73.104C88.527 73.104 88.9803 72.976 89.375 72.72C89.7697 72.4533 90.079 72.0907 90.303 71.632C90.5377 71.1733 90.655 70.6613 90.655 70.096C90.655 69.52 90.5377 69.008 90.303 68.56C90.079 68.1013 89.7697 67.744 89.375 67.488C88.9803 67.2213 88.527 67.088 88.015 67.088C87.503 67.088 87.0497 67.2213 86.655 67.488C86.2603 67.744 85.9457 68.1013 85.711 68.56C85.487 69.008 85.375 69.52 85.375 70.096C85.375 70.6613 85.487 71.1733 85.711 71.632C85.9457 72.0907 86.2603 72.4533 86.655 72.72C87.0497 72.976 87.503 73.104 88.015 73.104ZM93.8563 77.344V66.192H95.0082V67.312C95.3069 66.9173 95.6696 66.6187 96.0963 66.416C96.5336 66.2027 97.0136 66.096 97.5363 66.096C98.2189 66.096 98.8269 66.2773 99.3603 66.64C99.9043 66.992 100.336 67.472 100.656 68.08C100.976 68.6773 101.136 69.3493 101.136 70.096C101.136 70.8427 100.971 71.52 100.64 72.128C100.32 72.736 99.8829 73.2213 99.3283 73.584C98.7843 73.936 98.1656 74.112 97.4723 74.112C96.9816 74.112 96.5283 74.0213 96.1123 73.84C95.6963 73.648 95.3336 73.376 95.0243 73.024V77.344H93.8563ZM97.2483 73.104C97.7709 73.104 98.2349 72.976 98.6403 72.72C99.0563 72.4533 99.3816 72.096 99.6163 71.648C99.8616 71.1893 99.9843 70.6773 99.9843 70.112C99.9843 69.536 99.8616 69.024 99.6163 68.576C99.3816 68.128 99.0563 67.776 98.6403 67.52C98.2349 67.2533 97.7709 67.12 97.2483 67.12C96.7896 67.12 96.3629 67.216 95.9683 67.408C95.5843 67.5893 95.2696 67.8507 95.0243 68.192V72.016C95.2803 72.3573 95.6003 72.624 95.9843 72.816C96.3789 73.008 96.8003 73.104 97.2483 73.104ZM103.286 77.504C103.041 77.504 102.79 77.4667 102.534 77.392V76.352C102.641 76.3733 102.753 76.3893 102.87 76.4C102.987 76.4107 103.089 76.416 103.174 76.416C103.473 76.416 103.718 76.336 103.91 76.176C104.113 76.016 104.283 75.7653 104.422 75.424L104.998 74L101.99 66.192H103.286L105.654 72.608L108.166 66.192H109.462L105.526 75.776C105.355 76.192 105.169 76.528 104.966 76.784C104.763 77.04 104.529 77.2213 104.262 77.328C103.995 77.4453 103.67 77.504 103.286 77.504ZM114.653 74V62.448L115.821 62.208V74H114.653ZM118.2 74V66.192H119.368V74H118.2ZM118.792 64.256C118.557 64.256 118.354 64.176 118.184 64.016C118.024 63.8453 117.944 63.648 117.944 63.424C117.944 63.2 118.024 63.008 118.184 62.848C118.354 62.6773 118.557 62.592 118.792 62.592C119.026 62.592 119.224 62.6773 119.384 62.848C119.554 63.008 119.64 63.2 119.64 63.424C119.64 63.648 119.554 63.8453 119.384 64.016C119.224 64.176 119.026 64.256 118.792 64.256ZM121.763 74V66.192H122.931V67.456C123.229 66.9867 123.587 66.64 124.003 66.416C124.419 66.1813 124.888 66.064 125.411 66.064C125.976 66.064 126.467 66.1867 126.883 66.432C127.309 66.6667 127.64 67.0027 127.875 67.44C128.12 67.8667 128.243 68.368 128.243 68.944V74H127.075V69.28C127.075 68.5867 126.883 68.0427 126.499 67.648C126.125 67.2427 125.619 67.04 124.979 67.04C124.552 67.04 124.163 67.1413 123.811 67.344C123.459 67.5467 123.165 67.8453 122.931 68.24V74H121.763ZM130.591 74V62.448L131.759 62.208V69.696L135.471 66.192H136.879L132.911 69.904L137.055 74H135.519L131.759 70.272V74H130.591Z" fill="#151515"/>
<path d="M73.424 114V102.8H75.136L78.88 110.768L82.624 102.8H84.336V114H83.168V104.256L78.88 113.2L74.576 104.224V114H73.424ZM90.4856 114.16C89.7603 114.16 89.1043 113.984 88.5176 113.632C87.931 113.269 87.467 112.784 87.1256 112.176C86.7843 111.557 86.6136 110.864 86.6136 110.096C86.6136 109.328 86.7736 108.64 87.0936 108.032C87.4243 107.424 87.867 106.944 88.4216 106.592C88.9763 106.24 89.595 106.064 90.2776 106.064C90.971 106.064 91.5843 106.24 92.1176 106.592C92.6616 106.933 93.0883 107.403 93.3976 108C93.7176 108.587 93.8776 109.253 93.8776 110V110.352H87.7496C87.7923 110.885 87.9363 111.365 88.1816 111.792C88.4376 112.208 88.7683 112.539 89.1736 112.784C89.5896 113.019 90.043 113.136 90.5336 113.136C90.939 113.136 91.3283 113.067 91.7016 112.928C92.0856 112.779 92.411 112.581 92.6776 112.336L93.4136 113.12C92.9656 113.472 92.5016 113.733 92.0216 113.904C91.5416 114.075 91.0296 114.16 90.4856 114.16ZM87.7816 109.52H92.7256C92.6723 109.051 92.5283 108.635 92.2936 108.272C92.0696 107.899 91.7816 107.605 91.4296 107.392C91.0883 107.179 90.7043 107.072 90.2776 107.072C89.851 107.072 89.4616 107.179 89.1096 107.392C88.7576 107.595 88.4643 107.883 88.2296 108.256C88.0056 108.619 87.8563 109.04 87.7816 109.52ZM98.366 114.16C97.726 114.16 97.134 114.064 96.59 113.872C96.046 113.669 95.582 113.381 95.198 113.008L95.822 112.24C96.2913 112.581 96.7233 112.832 97.118 112.992C97.5127 113.141 97.918 113.216 98.334 113.216C98.8993 113.216 99.3687 113.083 99.742 112.816C100.115 112.549 100.302 112.208 100.302 111.792C100.302 111.472 100.19 111.221 99.966 111.04C99.7527 110.859 99.3953 110.72 98.894 110.624L97.614 110.4C96.8567 110.261 96.2967 110.027 95.934 109.696C95.582 109.365 95.406 108.917 95.406 108.352C95.406 107.904 95.5233 107.509 95.758 107.168C96.0033 106.827 96.3393 106.56 96.766 106.368C97.1927 106.165 97.678 106.064 98.222 106.064C98.7553 106.064 99.262 106.144 99.742 106.304C100.222 106.453 100.707 106.699 101.198 107.04L100.622 107.856C100.217 107.568 99.8113 107.36 99.406 107.232C99.0007 107.093 98.59 107.024 98.174 107.024C97.662 107.024 97.2513 107.136 96.942 107.36C96.6327 107.584 96.478 107.888 96.478 108.272C96.478 108.592 96.574 108.837 96.766 109.008C96.9687 109.179 97.3207 109.307 97.822 109.392L99.134 109.632C99.9233 109.771 100.499 110.011 100.862 110.352C101.225 110.693 101.406 111.152 101.406 111.728C101.406 112.187 101.273 112.603 101.006 112.976C100.739 113.339 100.377 113.627 99.918 113.84C99.4593 114.053 98.942 114.16 98.366 114.16ZM105.6 114.16C104.96 114.16 104.368 114.064 103.824 113.872C103.28 113.669 102.816 113.381 102.432 113.008L103.056 112.24C103.526 112.581 103.958 112.832 104.352 112.992C104.747 113.141 105.152 113.216 105.568 113.216C106.134 113.216 106.603 113.083 106.976 112.816C107.35 112.549 107.536 112.208 107.536 111.792C107.536 111.472 107.424 111.221 107.2 111.04C106.987 110.859 106.63 110.72 106.128 110.624L104.848 110.4C104.091 110.261 103.531 110.027 103.168 109.696C102.816 109.365 102.64 108.917 102.64 108.352C102.64 107.904 102.758 107.509 102.992 107.168C103.238 106.827 103.574 106.56 104 106.368C104.427 106.165 104.912 106.064 105.456 106.064C105.99 106.064 106.496 106.144 106.976 106.304C107.456 106.453 107.942 106.699 108.432 107.04L107.856 107.856C107.451 107.568 107.046 107.36 106.64 107.232C106.235 107.093 105.824 107.024 105.408 107.024C104.896 107.024 104.486 107.136 104.176 107.36C103.867 107.584 103.712 107.888 103.712 108.272C103.712 108.592 103.808 108.837 104 109.008C104.203 109.179 104.555 109.307 105.056 109.392L106.368 109.632C107.158 109.771 107.734 110.011 108.096 110.352C108.459 110.693 108.64 111.152 108.64 111.728C108.64 112.187 108.507 112.603 108.24 112.976C107.974 113.339 107.611 113.627 107.152 113.84C106.694 114.053 106.176 114.16 105.6 114.16ZM112.913 114.144C112.358 114.144 111.868 114.043 111.441 113.84C111.014 113.637 110.678 113.36 110.433 113.008C110.198 112.645 110.081 112.229 110.081 111.76C110.081 111.291 110.204 110.885 110.449 110.544C110.694 110.192 111.036 109.92 111.473 109.728C111.91 109.536 112.422 109.44 113.009 109.44C113.457 109.44 113.878 109.488 114.273 109.584C114.678 109.68 115.052 109.835 115.393 110.048V108.976C115.393 108.336 115.222 107.856 114.881 107.536C114.54 107.205 114.038 107.04 113.377 107.04C113.014 107.04 112.641 107.093 112.257 107.2C111.884 107.307 111.468 107.477 111.009 107.712L110.577 106.816C111.622 106.315 112.604 106.064 113.521 106.064C114.492 106.064 115.238 106.304 115.761 106.784C116.284 107.253 116.545 107.931 116.545 108.816V114H115.393V113.088C115.052 113.44 114.673 113.707 114.257 113.888C113.841 114.059 113.393 114.144 112.913 114.144ZM111.201 111.728C111.201 112.187 111.377 112.555 111.729 112.832C112.092 113.109 112.566 113.248 113.153 113.248C113.59 113.248 113.99 113.173 114.353 113.024C114.726 112.875 115.073 112.651 115.393 112.352V110.848C115.062 110.656 114.721 110.517 114.369 110.432C114.017 110.336 113.622 110.288 113.185 110.288C112.588 110.288 112.108 110.421 111.745 110.688C111.382 110.944 111.201 111.291 111.201 111.728ZM122.535 117.504C122.012 117.504 121.484 117.429 120.951 117.28C120.428 117.141 119.943 116.944 119.495 116.688L119.991 115.792C120.471 116.037 120.908 116.219 121.303 116.336C121.697 116.453 122.092 116.512 122.487 116.512C123.201 116.512 123.74 116.341 124.103 116C124.476 115.659 124.663 115.163 124.663 114.512V112.944C124.364 113.317 124.001 113.605 123.575 113.808C123.148 114 122.679 114.096 122.167 114.096C121.495 114.096 120.887 113.92 120.343 113.568C119.799 113.205 119.367 112.725 119.047 112.128C118.727 111.52 118.567 110.843 118.567 110.096C118.567 109.349 118.727 108.677 119.047 108.08C119.377 107.472 119.82 106.992 120.375 106.64C120.929 106.277 121.548 106.096 122.231 106.096C122.721 106.096 123.175 106.192 123.591 106.384C124.007 106.565 124.369 106.837 124.679 107.2V106.192H125.831V114.496C125.831 115.467 125.548 116.208 124.983 116.72C124.417 117.243 123.601 117.504 122.535 117.504ZM122.455 113.088C122.913 113.088 123.335 112.997 123.719 112.816C124.103 112.624 124.417 112.363 124.663 112.032V108.176C124.407 107.845 124.081 107.589 123.687 107.408C123.303 107.216 122.892 107.12 122.455 107.12C121.932 107.12 121.463 107.248 121.047 107.504C120.641 107.76 120.316 108.112 120.071 108.56C119.836 109.008 119.719 109.52 119.719 110.096C119.719 110.661 119.836 111.173 120.071 111.632C120.316 112.08 120.641 112.437 121.047 112.704C121.463 112.96 121.932 113.088 122.455 113.088ZM131.751 114.16C131.026 114.16 130.37 113.984 129.783 113.632C129.197 113.269 128.733 112.784 128.391 112.176C128.05 111.557 127.879 110.864 127.879 110.096C127.879 109.328 128.039 108.64 128.359 108.032C128.69 107.424 129.133 106.944 129.687 106.592C130.242 106.24 130.861 106.064 131.543 106.064C132.237 106.064 132.85 106.24 133.383 106.592C133.927 106.933 134.354 107.403 134.663 108C134.983 108.587 135.143 109.253 135.143 110V110.352H129.015C129.058 110.885 129.202 111.365 129.447 111.792C129.703 112.208 130.034 112.539 130.439 112.784C130.855 113.019 131.309 113.136 131.799 113.136C132.205 113.136 132.594 113.067 132.967 112.928C133.351 112.779 133.677 112.581 133.943 112.336L134.679 113.12C134.231 113.472 133.767 113.733 133.287 113.904C132.807 114.075 132.295 114.16 131.751 114.16ZM129.047 109.52H133.991C133.938 109.051 133.794 108.635 133.559 108.272C133.335 107.899 133.047 107.605 132.695 107.392C132.354 107.179 131.97 107.072 131.543 107.072C131.117 107.072 130.727 107.179 130.375 107.392C130.023 107.595 129.73 107.883 129.495 108.256C129.271 108.619 129.122 109.04 129.047 109.52ZM144.376 114.128C143.651 114.128 142.995 113.952 142.408 113.6C141.832 113.237 141.373 112.752 141.032 112.144C140.691 111.525 140.52 110.843 140.52 110.096C140.52 109.339 140.691 108.656 141.032 108.048C141.373 107.44 141.832 106.96 142.408 106.608C142.995 106.245 143.651 106.064 144.376 106.064C144.952 106.064 145.501 106.171 146.024 106.384C146.547 106.597 147 106.896 147.384 107.28L146.632 108.096C146.355 107.787 146.019 107.547 145.624 107.376C145.229 107.205 144.829 107.12 144.424 107.12C143.912 107.12 143.448 107.253 143.032 107.52C142.627 107.787 142.301 108.144 142.056 108.592C141.811 109.04 141.688 109.541 141.688 110.096C141.688 110.651 141.811 111.152 142.056 111.6C142.301 112.048 142.627 112.405 143.032 112.672C143.448 112.939 143.912 113.072 144.424 113.072C144.829 113.072 145.229 112.987 145.624 112.816C146.019 112.635 146.355 112.395 146.632 112.096L147.384 112.912C147 113.296 146.547 113.595 146.024 113.808C145.501 114.021 144.952 114.128 144.376 114.128ZM152.234 114.128C151.509 114.128 150.858 113.952 150.282 113.6C149.706 113.248 149.253 112.768 148.922 112.16C148.591 111.552 148.426 110.864 148.426 110.096C148.426 109.328 148.591 108.64 148.922 108.032C149.253 107.424 149.706 106.944 150.282 106.592C150.858 106.24 151.509 106.064 152.234 106.064C152.949 106.064 153.589 106.24 154.154 106.592C154.73 106.944 155.183 107.424 155.514 108.032C155.845 108.64 156.01 109.328 156.01 110.096C156.01 110.864 155.845 111.552 155.514 112.16C155.183 112.768 154.73 113.248 154.154 113.6C153.589 113.952 152.949 114.128 152.234 114.128ZM152.218 113.104C152.73 113.104 153.183 112.976 153.578 112.72C153.973 112.453 154.282 112.091 154.506 111.632C154.741 111.173 154.858 110.661 154.858 110.096C154.858 109.52 154.741 109.008 154.506 108.56C154.282 108.101 153.973 107.744 153.578 107.488C153.183 107.221 152.73 107.088 152.218 107.088C151.706 107.088 151.253 107.221 150.858 107.488C150.463 107.744 150.149 108.101 149.914 108.56C149.69 109.008 149.578 109.52 149.578 110.096C149.578 110.661 149.69 111.173 149.914 111.632C150.149 112.091 150.463 112.453 150.858 112.72C151.253 112.976 151.706 113.104 152.218 113.104ZM158.059 114V106.192H159.227V107.456C159.526 106.987 159.883 106.64 160.299 106.416C160.715 106.181 161.185 106.064 161.707 106.064C162.273 106.064 162.763 106.187 163.179 106.432C163.606 106.667 163.937 107.003 164.171 107.44C164.417 107.867 164.539 108.368 164.539 108.944V114H163.371V109.28C163.371 108.587 163.179 108.043 162.795 107.648C162.422 107.243 161.915 107.04 161.275 107.04C160.849 107.04 160.459 107.141 160.107 107.344C159.755 107.547 159.462 107.845 159.227 108.24V114H158.059ZM169.629 114.16C168.957 114.16 168.445 114 168.093 113.68C167.752 113.349 167.581 112.875 167.581 112.256V107.152H165.965V106.192H167.581V104.048L168.749 103.776V106.192H170.989V107.152H168.749V111.952C168.749 112.368 168.834 112.667 169.005 112.848C169.186 113.029 169.48 113.12 169.885 113.12C170.088 113.12 170.269 113.104 170.429 113.072C170.589 113.04 170.776 112.987 170.989 112.912V113.952C170.776 114.027 170.552 114.08 170.317 114.112C170.082 114.144 169.853 114.16 169.629 114.16ZM175.116 114.144C174.561 114.144 174.071 114.043 173.644 113.84C173.217 113.637 172.881 113.36 172.636 113.008C172.401 112.645 172.284 112.229 172.284 111.76C172.284 111.291 172.407 110.885 172.652 110.544C172.897 110.192 173.239 109.92 173.676 109.728C174.113 109.536 174.625 109.44 175.212 109.44C175.66 109.44 176.081 109.488 176.476 109.584C176.881 109.68 177.255 109.835 177.596 110.048V108.976C177.596 108.336 177.425 107.856 177.084 107.536C176.743 107.205 176.241 107.04 175.58 107.04C175.217 107.04 174.844 107.093 174.46 107.2C174.087 107.307 173.671 107.477 173.212 107.712L172.78 106.816C173.825 106.315 174.807 106.064 175.724 106.064C176.695 106.064 177.441 106.304 177.964 106.784C178.487 107.253 178.748 107.931 178.748 108.816V114H177.596V113.088C177.255 113.44 176.876 113.707 176.46 113.888C176.044 114.059 175.596 114.144 175.116 114.144ZM173.404 111.728C173.404 112.187 173.58 112.555 173.932 112.832C174.295 113.109 174.769 113.248 175.356 113.248C175.793 113.248 176.193 113.173 176.556 113.024C176.929 112.875 177.276 112.651 177.596 112.352V110.848C177.265 110.656 176.924 110.517 176.572 110.432C176.22 110.336 175.825 110.288 175.388 110.288C174.791 110.288 174.311 110.421 173.948 110.688C173.585 110.944 173.404 111.291 173.404 111.728ZM184.626 114.128C183.901 114.128 183.245 113.952 182.658 113.6C182.082 113.237 181.623 112.752 181.282 112.144C180.941 111.525 180.77 110.843 180.77 110.096C180.77 109.339 180.941 108.656 181.282 108.048C181.623 107.44 182.082 106.96 182.658 106.608C183.245 106.245 183.901 106.064 184.626 106.064C185.202 106.064 185.751 106.171 186.274 106.384C186.797 106.597 187.25 106.896 187.634 107.28L186.882 108.096C186.605 107.787 186.269 107.547 185.874 107.376C185.479 107.205 185.079 107.12 184.674 107.12C184.162 107.12 183.698 107.253 183.282 107.52C182.877 107.787 182.551 108.144 182.306 108.592C182.061 109.04 181.938 109.541 181.938 110.096C181.938 110.651 182.061 111.152 182.306 111.6C182.551 112.048 182.877 112.405 183.282 112.672C183.698 112.939 184.162 113.072 184.674 113.072C185.079 113.072 185.479 112.987 185.874 112.816C186.269 112.635 186.605 112.395 186.882 112.096L187.634 112.912C187.25 113.296 186.797 113.595 186.274 113.808C185.751 114.021 185.202 114.128 184.626 114.128ZM192.395 114.16C191.723 114.16 191.211 114 190.859 113.68C190.517 113.349 190.347 112.875 190.347 112.256V107.152H188.731V106.192H190.347V104.048L191.515 103.776V106.192H193.755V107.152H191.515V111.952C191.515 112.368 191.6 112.667 191.771 112.848C191.952 113.029 192.245 113.12 192.651 113.12C192.853 113.12 193.035 113.104 193.195 113.072C193.355 113.04 193.541 112.987 193.755 112.912V113.952C193.541 114.027 193.317 114.08 193.083 114.112C192.848 114.144 192.619 114.16 192.395 114.16Z" fill="#151515"/>
<path d="M56 128H261V168H56V128Z" fill="#F2F2F2"/>
<path d="M73.424 154V142.8H78.016C78.7307 142.8 79.3547 142.939 79.888 143.216C80.4213 143.483 80.8373 143.856 81.136 144.336C81.4347 144.816 81.584 145.381 81.584 146.032C81.584 146.779 81.376 147.419 80.96 147.952C80.544 148.475 79.9733 148.843 79.248 149.056L81.632 154H80.272L78 149.216H74.656V154H73.424ZM74.656 148.192H77.92C78.656 148.192 79.2427 148 79.68 147.616C80.128 147.221 80.352 146.699 80.352 146.048C80.352 145.387 80.128 144.864 79.68 144.48C79.2427 144.085 78.656 143.888 77.92 143.888H74.656V148.192ZM86.6731 154.16C85.9478 154.16 85.2918 153.984 84.7051 153.632C84.1185 153.269 83.6545 152.784 83.3131 152.176C82.9718 151.557 82.8011 150.864 82.8011 150.096C82.8011 149.328 82.9611 148.64 83.2811 148.032C83.6118 147.424 84.0545 146.944 84.6091 146.592C85.1638 146.24 85.7825 146.064 86.4651 146.064C87.1585 146.064 87.7718 146.24 88.3051 146.592C88.8491 146.933 89.2758 147.403 89.5851 148C89.9051 148.587 90.0651 149.253 90.0651 150V150.352H83.9371C83.9798 150.885 84.1238 151.365 84.3691 151.792C84.6251 152.208 84.9558 152.539 85.3611 152.784C85.7771 153.019 86.2305 153.136 86.7211 153.136C87.1265 153.136 87.5158 153.067 87.8891 152.928C88.2731 152.779 88.5985 152.581 88.8651 152.336L89.6011 153.12C89.1531 153.472 88.6891 153.733 88.2091 153.904C87.7291 154.075 87.2171 154.16 86.6731 154.16ZM83.9691 149.52H88.9131C88.8598 149.051 88.7158 148.635 88.4811 148.272C88.2571 147.899 87.9691 147.605 87.6171 147.392C87.2758 147.179 86.8918 147.072 86.4651 147.072C86.0385 147.072 85.6491 147.179 85.2971 147.392C84.9451 147.595 84.6518 147.883 84.4171 148.256C84.1931 148.619 84.0438 149.04 83.9691 149.52ZM92.0594 157.344V146.192H93.2114V147.312C93.51 146.917 93.8727 146.619 94.2994 146.416C94.7367 146.203 95.2167 146.096 95.7394 146.096C96.422 146.096 97.03 146.277 97.5634 146.64C98.1074 146.992 98.5394 147.472 98.8594 148.08C99.1794 148.677 99.3394 149.349 99.3394 150.096C99.3394 150.843 99.174 151.52 98.8434 152.128C98.5234 152.736 98.086 153.221 97.5314 153.584C96.9874 153.936 96.3687 154.112 95.6754 154.112C95.1847 154.112 94.7314 154.021 94.3154 153.84C93.8994 153.648 93.5367 153.376 93.2274 153.024V157.344H92.0594ZM95.4514 153.104C95.974 153.104 96.438 152.976 96.8434 152.72C97.2594 152.453 97.5847 152.096 97.8194 151.648C98.0647 151.189 98.1874 150.677 98.1874 150.112C98.1874 149.536 98.0647 149.024 97.8194 148.576C97.5847 148.128 97.2594 147.776 96.8434 147.52C96.438 147.253 95.974 147.12 95.4514 147.12C94.9927 147.12 94.566 147.216 94.1714 147.408C93.7874 147.589 93.4727 147.851 93.2274 148.192V152.016C93.4834 152.357 93.8034 152.624 94.1874 152.816C94.582 153.008 95.0034 153.104 95.4514 153.104ZM104.844 154.128C104.118 154.128 103.468 153.952 102.892 153.6C102.316 153.248 101.862 152.768 101.532 152.16C101.201 151.552 101.036 150.864 101.036 150.096C101.036 149.328 101.201 148.64 101.532 148.032C101.862 147.424 102.316 146.944 102.892 146.592C103.468 146.24 104.118 146.064 104.844 146.064C105.558 146.064 106.198 146.24 106.764 146.592C107.34 146.944 107.793 147.424 108.124 148.032C108.454 148.64 108.62 149.328 108.62 150.096C108.62 150.864 108.454 151.552 108.124 152.16C107.793 152.768 107.34 153.248 106.764 153.6C106.198 153.952 105.558 154.128 104.844 154.128ZM104.828 153.104C105.34 153.104 105.793 152.976 106.188 152.72C106.582 152.453 106.892 152.091 107.116 151.632C107.35 151.173 107.468 150.661 107.468 150.096C107.468 149.52 107.35 149.008 107.116 148.56C106.892 148.101 106.582 147.744 106.188 147.488C105.793 147.221 105.34 147.088 104.828 147.088C104.316 147.088 103.862 147.221 103.468 147.488C103.073 147.744 102.758 148.101 102.524 148.56C102.3 149.008 102.188 149.52 102.188 150.096C102.188 150.661 102.3 151.173 102.524 151.632C102.758 152.091 103.073 152.453 103.468 152.72C103.862 152.976 104.316 153.104 104.828 153.104ZM113.085 154.16C112.445 154.16 111.853 154.064 111.309 153.872C110.765 153.669 110.301 153.381 109.917 153.008L110.541 152.24C111.01 152.581 111.442 152.832 111.837 152.992C112.231 153.141 112.637 153.216 113.053 153.216C113.618 153.216 114.087 153.083 114.461 152.816C114.834 152.549 115.021 152.208 115.021 151.792C115.021 151.472 114.909 151.221 114.685 151.04C114.471 150.859 114.114 150.72 113.613 150.624L112.333 150.4C111.575 150.261 111.015 150.027 110.653 149.696C110.301 149.365 110.125 148.917 110.125 148.352C110.125 147.904 110.242 147.509 110.477 147.168C110.722 146.827 111.058 146.56 111.485 146.368C111.911 146.165 112.397 146.064 112.941 146.064C113.474 146.064 113.981 146.144 114.461 146.304C114.941 146.453 115.426 146.699 115.917 147.04L115.341 147.856C114.935 147.568 114.53 147.36 114.125 147.232C113.719 147.093 113.309 147.024 112.893 147.024C112.381 147.024 111.97 147.136 111.661 147.36C111.351 147.584 111.197 147.888 111.197 148.272C111.197 148.592 111.293 148.837 111.485 149.008C111.687 149.179 112.039 149.307 112.541 149.392L113.853 149.632C114.642 149.771 115.218 150.011 115.581 150.352C115.943 150.693 116.125 151.152 116.125 151.728C116.125 152.187 115.991 152.603 115.725 152.976C115.458 153.339 115.095 153.627 114.637 153.84C114.178 154.053 113.661 154.16 113.085 154.16ZM120.723 154.16C120.051 154.16 119.539 154 119.187 153.68C118.846 153.349 118.675 152.875 118.675 152.256V147.152H117.059V146.192H118.675V144.048L119.843 143.776V146.192H122.083V147.152H119.843V151.952C119.843 152.368 119.928 152.667 120.099 152.848C120.28 153.029 120.574 153.12 120.979 153.12C121.182 153.12 121.363 153.104 121.523 153.072C121.683 153.04 121.87 152.987 122.083 152.912V153.952C121.87 154.027 121.646 154.08 121.411 154.112C121.176 154.144 120.947 154.16 120.723 154.16ZM130.504 154.16C129.832 154.16 129.32 154 128.968 153.68C128.627 153.349 128.456 152.875 128.456 152.256V147.152H126.84V146.192H128.456V144.048L129.624 143.776V146.192H131.864V147.152H129.624V151.952C129.624 152.368 129.709 152.667 129.88 152.848C130.061 153.029 130.355 153.12 130.76 153.12C130.963 153.12 131.144 153.104 131.304 153.072C131.464 153.04 131.651 152.987 131.864 152.912V153.952C131.651 154.027 131.427 154.08 131.192 154.112C130.957 154.144 130.728 154.16 130.504 154.16ZM136.875 154.128C136.149 154.128 135.499 153.952 134.923 153.6C134.347 153.248 133.893 152.768 133.563 152.16C133.232 151.552 133.067 150.864 133.067 150.096C133.067 149.328 133.232 148.64 133.563 148.032C133.893 147.424 134.347 146.944 134.923 146.592C135.499 146.24 136.149 146.064 136.875 146.064C137.589 146.064 138.229 146.24 138.795 146.592C139.371 146.944 139.824 147.424 140.155 148.032C140.485 148.64 140.651 149.328 140.651 150.096C140.651 150.864 140.485 151.552 140.155 152.16C139.824 152.768 139.371 153.248 138.795 153.6C138.229 153.952 137.589 154.128 136.875 154.128ZM136.859 153.104C137.371 153.104 137.824 152.976 138.219 152.72C138.613 152.453 138.923 152.091 139.147 151.632C139.381 151.173 139.499 150.661 139.499 150.096C139.499 149.52 139.381 149.008 139.147 148.56C138.923 148.101 138.613 147.744 138.219 147.488C137.824 147.221 137.371 147.088 136.859 147.088C136.347 147.088 135.893 147.221 135.499 147.488C135.104 147.744 134.789 148.101 134.555 148.56C134.331 149.008 134.219 149.52 134.219 150.096C134.219 150.661 134.331 151.173 134.555 151.632C134.789 152.091 135.104 152.453 135.499 152.72C135.893 152.976 136.347 153.104 136.859 153.104ZM149.938 154.128C149.213 154.128 148.557 153.952 147.97 153.6C147.394 153.237 146.936 152.752 146.594 152.144C146.253 151.525 146.082 150.843 146.082 150.096C146.082 149.339 146.253 148.656 146.594 148.048C146.936 147.44 147.394 146.96 147.97 146.608C148.557 146.245 149.213 146.064 149.938 146.064C150.514 146.064 151.064 146.171 151.586 146.384C152.109 146.597 152.562 146.896 152.946 147.28L152.194 148.096C151.917 147.787 151.581 147.547 151.186 147.376C150.792 147.205 150.392 147.12 149.986 147.12C149.474 147.12 149.01 147.253 148.594 147.52C148.189 147.787 147.864 148.144 147.618 148.592C147.373 149.04 147.25 149.541 147.25 150.096C147.25 150.651 147.373 151.152 147.618 151.6C147.864 152.048 148.189 152.405 148.594 152.672C149.01 152.939 149.474 153.072 149.986 153.072C150.392 153.072 150.792 152.987 151.186 152.816C151.581 152.635 151.917 152.395 152.194 152.096L152.946 152.912C152.562 153.296 152.109 153.595 151.586 153.808C151.064 154.021 150.514 154.128 149.938 154.128ZM157.797 154.128C157.071 154.128 156.421 153.952 155.845 153.6C155.269 153.248 154.815 152.768 154.485 152.16C154.154 151.552 153.989 150.864 153.989 150.096C153.989 149.328 154.154 148.64 154.485 148.032C154.815 147.424 155.269 146.944 155.845 146.592C156.421 146.24 157.071 146.064 157.797 146.064C158.511 146.064 159.151 146.24 159.717 146.592C160.293 146.944 160.746 147.424 161.077 148.032C161.407 148.64 161.573 149.328 161.573 150.096C161.573 150.864 161.407 151.552 161.077 152.16C160.746 152.768 160.293 153.248 159.717 153.6C159.151 153.952 158.511 154.128 157.797 154.128ZM157.781 153.104C158.293 153.104 158.746 152.976 159.141 152.72C159.535 152.453 159.845 152.091 160.069 151.632C160.303 151.173 160.421 150.661 160.421 150.096C160.421 149.52 160.303 149.008 160.069 148.56C159.845 148.101 159.535 147.744 159.141 147.488C158.746 147.221 158.293 147.088 157.781 147.088C157.269 147.088 156.815 147.221 156.421 147.488C156.026 147.744 155.711 148.101 155.477 148.56C155.253 149.008 155.141 149.52 155.141 150.096C155.141 150.661 155.253 151.173 155.477 151.632C155.711 152.091 156.026 152.453 156.421 152.72C156.815 152.976 157.269 153.104 157.781 153.104ZM163.622 154V146.192H164.79V147.408C165.089 146.96 165.43 146.624 165.814 146.4C166.198 146.176 166.63 146.064 167.11 146.064C167.665 146.064 168.15 146.203 168.566 146.48C168.982 146.747 169.297 147.115 169.51 147.584C169.819 147.083 170.187 146.704 170.614 146.448C171.051 146.192 171.553 146.064 172.118 146.064C172.641 146.064 173.099 146.187 173.494 146.432C173.899 146.677 174.214 147.019 174.438 147.456C174.662 147.883 174.774 148.384 174.774 148.96V154H173.606V149.248C173.606 148.565 173.435 148.027 173.094 147.632C172.753 147.237 172.283 147.04 171.686 147.04C171.281 147.04 170.913 147.141 170.582 147.344C170.262 147.547 169.979 147.856 169.734 148.272C169.755 148.379 169.771 148.491 169.782 148.608C169.793 148.725 169.798 148.843 169.798 148.96V154H168.63V149.248C168.63 148.565 168.454 148.027 168.102 147.632C167.761 147.237 167.291 147.04 166.694 147.04C165.894 147.04 165.259 147.424 164.79 148.192V154H163.622ZM177.138 154V146.192H178.306V147.408C178.604 146.96 178.946 146.624 179.33 146.4C179.714 146.176 180.146 146.064 180.626 146.064C181.18 146.064 181.666 146.203 182.082 146.48C182.498 146.747 182.812 147.115 183.026 147.584C183.335 147.083 183.703 146.704 184.13 146.448C184.567 146.192 185.068 146.064 185.634 146.064C186.156 146.064 186.615 146.187 187.01 146.432C187.415 146.677 187.73 147.019 187.954 147.456C188.178 147.883 188.29 148.384 188.29 148.96V154H187.122V149.248C187.122 148.565 186.951 148.027 186.61 147.632C186.268 147.237 185.799 147.04 185.202 147.04C184.796 147.04 184.428 147.141 184.098 147.344C183.778 147.547 183.495 147.856 183.25 148.272C183.271 148.379 183.287 148.491 183.298 148.608C183.308 148.725 183.314 148.843 183.314 148.96V154H182.146V149.248C182.146 148.565 181.97 148.027 181.618 147.632C181.276 147.237 180.807 147.04 180.21 147.04C179.41 147.04 178.775 147.424 178.306 148.192V154H177.138ZM193.359 154.128C192.804 154.128 192.314 154.005 191.887 153.76C191.46 153.515 191.124 153.173 190.879 152.736C190.644 152.299 190.527 151.797 190.527 151.232V146.192H191.711V150.896C191.711 151.589 191.898 152.139 192.271 152.544C192.644 152.949 193.151 153.152 193.791 153.152C194.228 153.152 194.618 153.051 194.959 152.848C195.311 152.645 195.604 152.352 195.839 151.968V146.192H197.007V154H195.839V152.736C195.54 153.195 195.183 153.541 194.767 153.776C194.362 154.011 193.892 154.128 193.359 154.128ZM199.403 154V146.192H200.571V147.456C200.87 146.987 201.227 146.64 201.643 146.416C202.059 146.181 202.528 146.064 203.051 146.064C203.616 146.064 204.107 146.187 204.523 146.432C204.95 146.667 205.28 147.003 205.515 147.44C205.76 147.867 205.883 148.368 205.883 148.944V154H204.715V149.28C204.715 148.587 204.523 148.043 204.139 147.648C203.766 147.243 203.259 147.04 202.619 147.04C202.192 147.04 201.803 147.141 201.451 147.344C201.099 147.547 200.806 147.845 200.571 148.24V154H199.403ZM208.215 154V146.192H209.383V154H208.215ZM208.807 144.256C208.573 144.256 208.37 144.176 208.199 144.016C208.039 143.845 207.959 143.648 207.959 143.424C207.959 143.2 208.039 143.008 208.199 142.848C208.37 142.677 208.573 142.592 208.807 142.592C209.042 142.592 209.239 142.677 209.399 142.848C209.57 143.008 209.655 143.2 209.655 143.424C209.655 143.648 209.57 143.845 209.399 144.016C209.239 144.176 209.042 144.256 208.807 144.256ZM214.754 154.16C214.082 154.16 213.57 154 213.218 153.68C212.877 153.349 212.706 152.875 212.706 152.256V147.152H211.09V146.192H212.706V144.048L213.874 143.776V146.192H216.114V147.152H213.874V151.952C213.874 152.368 213.959 152.667 214.13 152.848C214.311 153.029 214.605 153.12 215.01 153.12C215.213 153.12 215.394 153.104 215.554 153.072C215.714 153.04 215.901 152.987 216.114 152.912V153.952C215.901 154.027 215.677 154.08 215.442 154.112C215.207 154.144 214.978 154.16 214.754 154.16ZM218.317 157.504C218.072 157.504 217.821 157.467 217.565 157.392V156.352C217.672 156.373 217.784 156.389 217.901 156.4C218.019 156.411 218.12 156.416 218.205 156.416C218.504 156.416 218.749 156.336 218.941 156.176C219.144 156.016 219.315 155.765 219.453 155.424L220.029 154L217.021 146.192H218.317L220.685 152.608L223.197 146.192H224.493L220.557 155.776C220.387 156.192 220.2 156.528 219.997 156.784C219.795 157.04 219.56 157.221 219.293 157.328C219.027 157.445 218.701 157.504 218.317 157.504Z" fill="#151515"/>
<mask id="path-12-outside-1_4077_5701" maskUnits="userSpaceOnUse" x="60" y="131" width="197" height="34" fill="black">
<rect fill="white" x="60" y="131" width="197" height="34"/>
<path d="M62 136C62 134.343 63.3431 133 65 133H252C253.657 133 255 134.343 255 136V160C255 161.657 253.657 163 252 163H65C63.3431 163 62 161.657 62 160V136Z"/>
</mask>
<path d="M65 133V135H252V133V131H65V133ZM255 136H253V160H255H257V136H255ZM252 163V161H65V163V165H252V163ZM62 160H64V136H62H60V160H62ZM65 163V161C64.4477 161 64 160.552 64 160H62H60C60 162.761 62.2386 165 65 165V163ZM255 160H253C253 160.552 252.552 161 252 161V163V165C254.761 165 257 162.761 257 160H255ZM252 133V135C252.552 135 253 135.448 253 136H255H257C257 133.239 254.761 131 252 131V133ZM65 133V131C62.2386 131 60 133.239 60 136H62H64C64 135.448 64.4477 135 65 135V133Z" fill="#0066CC" mask="url(#path-12-outside-1_4077_5701)"/>
<path d="M236.6 153.4C236.446 153.4 236.293 153.342 236.176 153.224C235.941 152.99 235.941 152.61 236.176 152.376L240.552 148L236.176 143.624C235.941 143.39 235.941 143.01 236.176 142.776C236.41 142.541 236.79 142.542 237.024 142.776L241.612 147.364C241.963 147.715 241.963 148.285 241.612 148.636L237.024 153.224C236.907 153.342 236.753 153.4 236.6 153.4Z" fill="#151515"/>
</g>
<path d="M59 40.5H258C259.381 40.5 260.5 41.6193 260.5 43V173C260.5 174.381 259.381 175.5 258 175.5H59C57.6193 175.5 56.5 174.381 56.5 173V43C56.5 41.6193 57.6193 40.5 59 40.5Z" stroke="#C7C7C7"/>
</g>
<g filter="url(#filter1_d_4077_5701)">
<g clip-path="url(#clip1_4077_5701)">
<path d="M265 131C265 129.343 266.343 128 268 128H448C449.657 128 451 129.343 451 131V221C451 222.657 449.657 224 448 224H268C266.343 224 265 222.657 265 221V131Z" fill="white"/>
<path d="M265 136H451V176H265V136Z" fill="#F2F2F2"/>
<mask id="path-18-outside-2_4077_5701" maskUnits="userSpaceOnUse" x="269" y="139" width="178" height="34" fill="black">
<rect fill="white" x="269" y="139" width="178" height="34"/>
<path d="M271 144C271 142.343 272.343 141 274 141H442C443.657 141 445 142.343 445 144V168C445 169.657 443.657 171 442 171H274C272.343 171 271 169.657 271 168V144Z"/>
</mask>
<path d="M274 141V143H442V141V139H274V141ZM445 144H443V168H445H447V144H445ZM442 171V169H274V171V173H442V171ZM271 168H273V144H271H269V168H271ZM274 171V169C273.448 169 273 168.552 273 168H271H269C269 170.761 271.239 173 274 173V171ZM445 168H443C443 168.552 442.552 169 442 169V171V173C444.761 173 447 170.761 447 168H445ZM442 141V143C442.552 143 443 143.448 443 144H445H447C447 141.239 444.761 139 442 139V141ZM274 141V139C271.239 139 269 141.239 269 144H271H273C273 143.448 273.448 143 274 143V141Z" fill="#0066CC" mask="url(#path-18-outside-2_4077_5701)"/>
<path d="M287.592 162.176C286.792 162.176 286.045 162.032 285.352 161.744C284.669 161.445 284.067 161.035 283.544 160.512C283.021 159.979 282.616 159.365 282.328 158.672C282.04 157.968 281.896 157.211 281.896 156.4C281.896 155.589 282.04 154.837 282.328 154.144C282.616 153.44 283.021 152.827 283.544 152.304C284.067 151.771 284.669 151.36 285.352 151.072C286.045 150.773 286.792 150.624 287.592 150.624C288.147 150.624 288.675 150.699 289.176 150.848C289.688 150.987 290.168 151.195 290.616 151.472C291.064 151.739 291.464 152.069 291.816 152.464L291 153.312C290.584 152.811 290.072 152.427 289.464 152.16C288.867 151.883 288.243 151.744 287.592 151.744C286.963 151.744 286.376 151.861 285.832 152.096C285.288 152.331 284.813 152.661 284.408 153.088C284.013 153.515 283.704 154.011 283.48 154.576C283.256 155.131 283.144 155.739 283.144 156.4C283.144 157.051 283.256 157.659 283.48 158.224C283.704 158.789 284.013 159.285 284.408 159.712C284.813 160.139 285.288 160.469 285.832 160.704C286.376 160.939 286.963 161.056 287.592 161.056C288.243 161.056 288.867 160.917 289.464 160.64C290.072 160.363 290.584 159.979 291 159.488L291.816 160.336C291.464 160.731 291.064 161.067 290.616 161.344C290.168 161.611 289.688 161.819 289.176 161.968C288.675 162.107 288.147 162.176 287.592 162.176ZM296.359 162.128C295.804 162.128 295.314 162.005 294.887 161.76C294.46 161.515 294.124 161.173 293.879 160.736C293.644 160.299 293.527 159.797 293.527 159.232V154.192H294.711V158.896C294.711 159.589 294.898 160.139 295.271 160.544C295.644 160.949 296.151 161.152 296.791 161.152C297.228 161.152 297.618 161.051 297.959 160.848C298.311 160.645 298.604 160.352 298.839 159.968V154.192H300.007V162H298.839V160.736C298.54 161.195 298.183 161.541 297.767 161.776C297.362 162.011 296.892 162.128 296.359 162.128ZM304.819 162.16C304.179 162.16 303.587 162.064 303.043 161.872C302.499 161.669 302.035 161.381 301.651 161.008L302.275 160.24C302.744 160.581 303.176 160.832 303.571 160.992C303.966 161.141 304.371 161.216 304.787 161.216C305.352 161.216 305.822 161.083 306.195 160.816C306.568 160.549 306.755 160.208 306.755 159.792C306.755 159.472 306.643 159.221 306.419 159.04C306.206 158.859 305.848 158.72 305.347 158.624L304.067 158.4C303.31 158.261 302.75 158.027 302.387 157.696C302.035 157.365 301.859 156.917 301.859 156.352C301.859 155.904 301.976 155.509 302.211 155.168C302.456 154.827 302.792 154.56 303.219 154.368C303.646 154.165 304.131 154.064 304.675 154.064C305.208 154.064 305.715 154.144 306.195 154.304C306.675 154.453 307.16 154.699 307.651 155.04L307.075 155.856C306.67 155.568 306.264 155.36 305.859 155.232C305.454 155.093 305.043 155.024 304.627 155.024C304.115 155.024 303.704 155.136 303.395 155.36C303.086 155.584 302.931 155.888 302.931 156.272C302.931 156.592 303.027 156.837 303.219 157.008C303.422 157.179 303.774 157.307 304.275 157.392L305.587 157.632C306.376 157.771 306.952 158.011 307.315 158.352C307.678 158.693 307.859 159.152 307.859 159.728C307.859 160.187 307.726 160.603 307.459 160.976C307.192 161.339 306.83 161.627 306.371 161.84C305.912 162.053 305.395 162.16 304.819 162.16ZM312.457 162.16C311.785 162.16 311.273 162 310.921 161.68C310.58 161.349 310.409 160.875 310.409 160.256V155.152H308.793V154.192H310.409V152.048L311.577 151.776V154.192H313.817V155.152H311.577V159.952C311.577 160.368 311.663 160.667 311.833 160.848C312.015 161.029 312.308 161.12 312.713 161.12C312.916 161.12 313.097 161.104 313.257 161.072C313.417 161.04 313.604 160.987 313.817 160.912V161.952C313.604 162.027 313.38 162.08 313.145 162.112C312.911 162.144 312.681 162.16 312.457 162.16ZM318.828 162.128C318.103 162.128 317.452 161.952 316.876 161.6C316.3 161.248 315.847 160.768 315.516 160.16C315.185 159.552 315.02 158.864 315.02 158.096C315.02 157.328 315.185 156.64 315.516 156.032C315.847 155.424 316.3 154.944 316.876 154.592C317.452 154.24 318.103 154.064 318.828 154.064C319.543 154.064 320.183 154.24 320.748 154.592C321.324 154.944 321.777 155.424 322.108 156.032C322.439 156.64 322.604 157.328 322.604 158.096C322.604 158.864 322.439 159.552 322.108 160.16C321.777 160.768 321.324 161.248 320.748 161.6C320.183 161.952 319.543 162.128 318.828 162.128ZM318.812 161.104C319.324 161.104 319.777 160.976 320.172 160.72C320.567 160.453 320.876 160.091 321.1 159.632C321.335 159.173 321.452 158.661 321.452 158.096C321.452 157.52 321.335 157.008 321.1 156.56C320.876 156.101 320.567 155.744 320.172 155.488C319.777 155.221 319.324 155.088 318.812 155.088C318.3 155.088 317.847 155.221 317.452 155.488C317.057 155.744 316.743 156.101 316.508 156.56C316.284 157.008 316.172 157.52 316.172 158.096C316.172 158.661 316.284 159.173 316.508 159.632C316.743 160.091 317.057 160.453 317.452 160.72C317.847 160.976 318.3 161.104 318.812 161.104ZM324.653 162V154.192H325.821V155.408C326.12 154.96 326.461 154.624 326.845 154.4C327.229 154.176 327.661 154.064 328.141 154.064C328.696 154.064 329.181 154.203 329.597 154.48C330.013 154.747 330.328 155.115 330.541 155.584C330.85 155.083 331.218 154.704 331.645 154.448C332.082 154.192 332.584 154.064 333.149 154.064C333.672 154.064 334.13 154.187 334.525 154.432C334.93 154.677 335.245 155.019 335.469 155.456C335.693 155.883 335.805 156.384 335.805 156.96V162H334.637V157.248C334.637 156.565 334.466 156.027 334.125 155.632C333.784 155.237 333.314 155.04 332.717 155.04C332.312 155.04 331.944 155.141 331.613 155.344C331.293 155.547 331.01 155.856 330.765 156.272C330.786 156.379 330.802 156.491 330.813 156.608C330.824 156.725 330.829 156.843 330.829 156.96V162H329.661V157.248C329.661 156.565 329.485 156.027 329.133 155.632C328.792 155.237 328.322 155.04 327.725 155.04C326.925 155.04 326.29 155.424 325.821 156.192V162H324.653ZM341.689 162.16C340.963 162.16 340.307 161.984 339.721 161.632C339.134 161.269 338.67 160.784 338.329 160.176C337.987 159.557 337.817 158.864 337.817 158.096C337.817 157.328 337.977 156.64 338.297 156.032C338.627 155.424 339.07 154.944 339.625 154.592C340.179 154.24 340.798 154.064 341.481 154.064C342.174 154.064 342.787 154.24 343.321 154.592C343.865 154.933 344.291 155.403 344.601 156C344.921 156.587 345.081 157.253 345.081 158V158.352H338.953C338.995 158.885 339.139 159.365 339.385 159.792C339.641 160.208 339.971 160.539 340.377 160.784C340.793 161.019 341.246 161.136 341.737 161.136C342.142 161.136 342.531 161.067 342.905 160.928C343.289 160.779 343.614 160.581 343.881 160.336L344.617 161.12C344.169 161.472 343.705 161.733 343.225 161.904C342.745 162.075 342.233 162.16 341.689 162.16ZM338.985 157.52H343.929C343.875 157.051 343.731 156.635 343.497 156.272C343.273 155.899 342.985 155.605 342.633 155.392C342.291 155.179 341.907 155.072 341.481 155.072C341.054 155.072 340.665 155.179 340.313 155.392C339.961 155.595 339.667 155.883 339.433 156.256C339.209 156.619 339.059 157.04 338.985 157.52ZM347.075 162V154.192H348.243V155.792C348.446 155.248 348.734 154.827 349.107 154.528C349.491 154.219 349.928 154.064 350.419 154.064C350.558 154.064 350.686 154.075 350.803 154.096C350.92 154.107 351.038 154.133 351.155 154.176V155.232C351.027 155.189 350.888 155.157 350.739 155.136C350.6 155.104 350.467 155.088 350.339 155.088C349.859 155.088 349.438 155.227 349.075 155.504C348.723 155.781 348.446 156.171 348.243 156.672V162H347.075ZM359.938 162.128C359.213 162.128 358.557 161.952 357.97 161.6C357.394 161.237 356.936 160.752 356.594 160.144C356.253 159.525 356.082 158.843 356.082 158.096C356.082 157.339 356.253 156.656 356.594 156.048C356.936 155.44 357.394 154.96 357.97 154.608C358.557 154.245 359.213 154.064 359.938 154.064C360.514 154.064 361.064 154.171 361.586 154.384C362.109 154.597 362.562 154.896 362.946 155.28L362.194 156.096C361.917 155.787 361.581 155.547 361.186 155.376C360.792 155.205 360.392 155.12 359.986 155.12C359.474 155.12 359.01 155.253 358.594 155.52C358.189 155.787 357.864 156.144 357.618 156.592C357.373 157.04 357.25 157.541 357.25 158.096C357.25 158.651 357.373 159.152 357.618 159.6C357.864 160.048 358.189 160.405 358.594 160.672C359.01 160.939 359.474 161.072 359.986 161.072C360.392 161.072 360.792 160.987 361.186 160.816C361.581 160.635 361.917 160.395 362.194 160.096L362.946 160.912C362.562 161.296 362.109 161.595 361.586 161.808C361.064 162.021 360.514 162.128 359.938 162.128ZM367.797 162.128C367.071 162.128 366.421 161.952 365.845 161.6C365.269 161.248 364.815 160.768 364.485 160.16C364.154 159.552 363.989 158.864 363.989 158.096C363.989 157.328 364.154 156.64 364.485 156.032C364.815 155.424 365.269 154.944 365.845 154.592C366.421 154.24 367.071 154.064 367.797 154.064C368.511 154.064 369.151 154.24 369.717 154.592C370.293 154.944 370.746 155.424 371.077 156.032C371.407 156.64 371.573 157.328 371.573 158.096C371.573 158.864 371.407 159.552 371.077 160.16C370.746 160.768 370.293 161.248 369.717 161.6C369.151 161.952 368.511 162.128 367.797 162.128ZM367.781 161.104C368.293 161.104 368.746 160.976 369.141 160.72C369.535 160.453 369.845 160.091 370.069 159.632C370.303 159.173 370.421 158.661 370.421 158.096C370.421 157.52 370.303 157.008 370.069 156.56C369.845 156.101 369.535 155.744 369.141 155.488C368.746 155.221 368.293 155.088 367.781 155.088C367.269 155.088 366.815 155.221 366.421 155.488C366.026 155.744 365.711 156.101 365.477 156.56C365.253 157.008 365.141 157.52 365.141 158.096C365.141 158.661 365.253 159.173 365.477 159.632C365.711 160.091 366.026 160.453 366.421 160.72C366.815 160.976 367.269 161.104 367.781 161.104ZM373.622 162V154.192H374.79V155.408C375.089 154.96 375.43 154.624 375.814 154.4C376.198 154.176 376.63 154.064 377.11 154.064C377.665 154.064 378.15 154.203 378.566 154.48C378.982 154.747 379.297 155.115 379.51 155.584C379.819 155.083 380.187 154.704 380.614 154.448C381.051 154.192 381.553 154.064 382.118 154.064C382.641 154.064 383.099 154.187 383.494 154.432C383.899 154.677 384.214 155.019 384.438 155.456C384.662 155.883 384.774 156.384 384.774 156.96V162H383.606V157.248C383.606 156.565 383.435 156.027 383.094 155.632C382.753 155.237 382.283 155.04 381.686 155.04C381.281 155.04 380.913 155.141 380.582 155.344C380.262 155.547 379.979 155.856 379.734 156.272C379.755 156.379 379.771 156.491 379.782 156.608C379.793 156.725 379.798 156.843 379.798 156.96V162H378.63V157.248C378.63 156.565 378.454 156.027 378.102 155.632C377.761 155.237 377.291 155.04 376.694 155.04C375.894 155.04 375.259 155.424 374.79 156.192V162H373.622ZM387.138 162V154.192H388.306V155.408C388.604 154.96 388.946 154.624 389.33 154.4C389.714 154.176 390.146 154.064 390.626 154.064C391.18 154.064 391.666 154.203 392.082 154.48C392.498 154.747 392.812 155.115 393.026 155.584C393.335 155.083 393.703 154.704 394.13 154.448C394.567 154.192 395.068 154.064 395.634 154.064C396.156 154.064 396.615 154.187 397.01 154.432C397.415 154.677 397.73 155.019 397.954 155.456C398.178 155.883 398.29 156.384 398.29 156.96V162H397.122V157.248C397.122 156.565 396.951 156.027 396.61 155.632C396.268 155.237 395.799 155.04 395.202 155.04C394.796 155.04 394.428 155.141 394.098 155.344C393.778 155.547 393.495 155.856 393.25 156.272C393.271 156.379 393.287 156.491 393.298 156.608C393.308 156.725 393.314 156.843 393.314 156.96V162H392.146V157.248C392.146 156.565 391.97 156.027 391.618 155.632C391.276 155.237 390.807 155.04 390.21 155.04C389.41 155.04 388.775 155.424 388.306 156.192V162H387.138ZM403.359 162.128C402.804 162.128 402.314 162.005 401.887 161.76C401.46 161.515 401.124 161.173 400.879 160.736C400.644 160.299 400.527 159.797 400.527 159.232V154.192H401.711V158.896C401.711 159.589 401.898 160.139 402.271 160.544C402.644 160.949 403.151 161.152 403.791 161.152C404.228 161.152 404.618 161.051 404.959 160.848C405.311 160.645 405.604 160.352 405.839 159.968V154.192H407.007V162H405.839V160.736C405.54 161.195 405.183 161.541 404.767 161.776C404.362 162.011 403.892 162.128 403.359 162.128ZM409.403 162V154.192H410.571V155.456C410.87 154.987 411.227 154.64 411.643 154.416C412.059 154.181 412.528 154.064 413.051 154.064C413.616 154.064 414.107 154.187 414.523 154.432C414.95 154.667 415.28 155.003 415.515 155.44C415.76 155.867 415.883 156.368 415.883 156.944V162H414.715V157.28C414.715 156.587 414.523 156.043 414.139 155.648C413.766 155.243 413.259 155.04 412.619 155.04C412.192 155.04 411.803 155.141 411.451 155.344C411.099 155.547 410.806 155.845 410.571 156.24V162H409.403ZM418.215 162V154.192H419.383V162H418.215ZM418.807 152.256C418.573 152.256 418.37 152.176 418.199 152.016C418.039 151.845 417.959 151.648 417.959 151.424C417.959 151.2 418.039 151.008 418.199 150.848C418.37 150.677 418.573 150.592 418.807 150.592C419.042 150.592 419.239 150.677 419.399 150.848C419.57 151.008 419.655 151.2 419.655 151.424C419.655 151.648 419.57 151.845 419.399 152.016C419.239 152.176 419.042 152.256 418.807 152.256ZM424.754 162.16C424.082 162.16 423.57 162 423.218 161.68C422.877 161.349 422.706 160.875 422.706 160.256V155.152H421.09V154.192H422.706V152.048L423.874 151.776V154.192H426.114V155.152H423.874V159.952C423.874 160.368 423.959 160.667 424.13 160.848C424.311 161.029 424.605 161.12 425.01 161.12C425.213 161.12 425.394 161.104 425.554 161.072C425.714 161.04 425.901 160.987 426.114 160.912V161.952C425.901 162.027 425.677 162.08 425.442 162.112C425.207 162.144 424.978 162.16 424.754 162.16ZM428.317 165.504C428.072 165.504 427.821 165.467 427.565 165.392V164.352C427.672 164.373 427.784 164.389 427.901 164.4C428.019 164.411 428.12 164.416 428.205 164.416C428.504 164.416 428.749 164.336 428.941 164.176C429.144 164.016 429.315 163.765 429.453 163.424L430.029 162L427.021 154.192H428.317L430.685 160.608L433.197 154.192H434.493L430.557 163.776C430.387 164.192 430.2 164.528 429.997 164.784C429.795 165.04 429.56 165.221 429.293 165.328C429.027 165.445 428.701 165.504 428.317 165.504Z" fill="#151515"/>
<path d="M282.424 202V190.8H287.048C287.773 190.8 288.403 190.939 288.936 191.216C289.469 191.483 289.88 191.867 290.168 192.368C290.467 192.859 290.616 193.44 290.616 194.112C290.616 194.773 290.467 195.355 290.168 195.856C289.88 196.357 289.469 196.747 288.936 197.024C288.403 197.291 287.773 197.424 287.048 197.424H283.656V202H282.424ZM283.656 196.368H286.904C287.683 196.368 288.291 196.165 288.728 195.76C289.165 195.355 289.384 194.805 289.384 194.112C289.384 193.419 289.165 192.875 288.728 192.48C288.291 192.085 287.683 191.888 286.904 191.888H283.656V196.368ZM294.679 202.144C294.124 202.144 293.633 202.043 293.207 201.84C292.78 201.637 292.444 201.36 292.199 201.008C291.964 200.645 291.847 200.229 291.847 199.76C291.847 199.291 291.969 198.885 292.215 198.544C292.46 198.192 292.801 197.92 293.239 197.728C293.676 197.536 294.188 197.44 294.775 197.44C295.223 197.44 295.644 197.488 296.039 197.584C296.444 197.68 296.817 197.835 297.159 198.048V196.976C297.159 196.336 296.988 195.856 296.647 195.536C296.305 195.205 295.804 195.04 295.143 195.04C294.78 195.04 294.407 195.093 294.023 195.2C293.649 195.307 293.233 195.477 292.775 195.712L292.343 194.816C293.388 194.315 294.369 194.064 295.286 194.064C296.257 194.064 297.004 194.304 297.527 194.784C298.049 195.253 298.311 195.931 298.311 196.816V202H297.159V201.088C296.817 201.44 296.439 201.707 296.023 201.888C295.607 202.059 295.159 202.144 294.679 202.144ZM292.967 199.728C292.967 200.187 293.143 200.555 293.495 200.832C293.857 201.109 294.332 201.248 294.919 201.248C295.356 201.248 295.756 201.173 296.119 201.024C296.492 200.875 296.839 200.651 297.159 200.352V198.848C296.828 198.656 296.487 198.517 296.135 198.432C295.783 198.336 295.388 198.288 294.951 198.288C294.353 198.288 293.873 198.421 293.511 198.688C293.148 198.944 292.967 199.291 292.967 199.728ZM300.684 202V194.192H301.852V195.792C302.055 195.248 302.343 194.827 302.716 194.528C303.1 194.219 303.538 194.064 304.028 194.064C304.167 194.064 304.295 194.075 304.412 194.096C304.53 194.107 304.647 194.133 304.764 194.176V195.232C304.636 195.189 304.498 195.157 304.348 195.136C304.21 195.104 304.076 195.088 303.948 195.088C303.468 195.088 303.047 195.227 302.684 195.504C302.332 195.781 302.055 196.171 301.852 196.672V202H300.684ZM309.285 202.16C308.613 202.16 308.101 202 307.749 201.68C307.408 201.349 307.237 200.875 307.237 200.256V195.152H305.621V194.192H307.237V192.048L308.405 191.776V194.192H310.645V195.152H308.405V199.952C308.405 200.368 308.491 200.667 308.661 200.848C308.843 201.029 309.136 201.12 309.541 201.12C309.744 201.12 309.925 201.104 310.085 201.072C310.245 201.04 310.432 200.987 310.645 200.912V201.952C310.432 202.027 310.208 202.08 309.973 202.112C309.739 202.144 309.509 202.16 309.285 202.16ZM312.356 202V194.192H313.524V195.456C313.823 194.987 314.18 194.64 314.596 194.416C315.012 194.181 315.482 194.064 316.004 194.064C316.57 194.064 317.06 194.187 317.476 194.432C317.903 194.667 318.234 195.003 318.468 195.44C318.714 195.867 318.836 196.368 318.836 196.944V202H317.668V197.28C317.668 196.587 317.476 196.043 317.092 195.648C316.719 195.243 316.212 195.04 315.572 195.04C315.146 195.04 314.756 195.141 314.404 195.344C314.052 195.547 313.759 195.845 313.524 196.24V202H312.356ZM324.704 202.16C323.979 202.16 323.323 201.984 322.736 201.632C322.15 201.269 321.686 200.784 321.344 200.176C321.003 199.557 320.832 198.864 320.832 198.096C320.832 197.328 320.992 196.64 321.312 196.032C321.643 195.424 322.086 194.944 322.64 194.592C323.195 194.24 323.814 194.064 324.496 194.064C325.19 194.064 325.803 194.24 326.336 194.592C326.88 194.933 327.307 195.403 327.616 196C327.936 196.587 328.096 197.253 328.096 198V198.352H321.968C322.011 198.885 322.155 199.365 322.4 199.792C322.656 200.208 322.987 200.539 323.392 200.784C323.808 201.019 324.262 201.136 324.752 201.136C325.158 201.136 325.547 201.067 325.92 200.928C326.304 200.779 326.63 200.581 326.896 200.336L327.632 201.12C327.184 201.472 326.72 201.733 326.24 201.904C325.76 202.075 325.248 202.16 324.704 202.16ZM322 197.52H326.944C326.891 197.051 326.747 196.635 326.512 196.272C326.288 195.899 326 195.605 325.648 195.392C325.307 195.179 324.923 195.072 324.496 195.072C324.07 195.072 323.68 195.179 323.328 195.392C322.976 195.595 322.683 195.883 322.448 196.256C322.224 196.619 322.075 197.04 322 197.52ZM330.091 202V194.192H331.259V195.792C331.461 195.248 331.749 194.827 332.123 194.528C332.507 194.219 332.944 194.064 333.435 194.064C333.573 194.064 333.701 194.075 333.819 194.096C333.936 194.107 334.053 194.133 334.171 194.176V195.232C334.043 195.189 333.904 195.157 333.755 195.136C333.616 195.104 333.483 195.088 333.355 195.088C332.875 195.088 332.453 195.227 332.091 195.504C331.739 195.781 331.461 196.171 331.259 196.672V202H330.091ZM342.954 202.128C342.229 202.128 341.573 201.952 340.986 201.6C340.41 201.237 339.951 200.752 339.61 200.144C339.269 199.525 339.098 198.843 339.098 198.096C339.098 197.339 339.269 196.656 339.61 196.048C339.951 195.44 340.41 194.96 340.986 194.608C341.573 194.245 342.229 194.064 342.954 194.064C343.53 194.064 344.079 194.171 344.602 194.384C345.125 194.597 345.578 194.896 345.962 195.28L345.21 196.096C344.933 195.787 344.597 195.547 344.202 195.376C343.807 195.205 343.407 195.12 343.002 195.12C342.49 195.12 342.026 195.253 341.61 195.52C341.205 195.787 340.879 196.144 340.634 196.592C340.389 197.04 340.266 197.541 340.266 198.096C340.266 198.651 340.389 199.152 340.634 199.6C340.879 200.048 341.205 200.405 341.61 200.672C342.026 200.939 342.49 201.072 343.002 201.072C343.407 201.072 343.807 200.987 344.202 200.816C344.597 200.635 344.933 200.395 345.21 200.096L345.962 200.912C345.578 201.296 345.125 201.595 344.602 201.808C344.079 202.021 343.53 202.128 342.954 202.128ZM350.812 202.128C350.087 202.128 349.436 201.952 348.86 201.6C348.284 201.248 347.831 200.768 347.5 200.16C347.17 199.552 347.004 198.864 347.004 198.096C347.004 197.328 347.17 196.64 347.5 196.032C347.831 195.424 348.284 194.944 348.86 194.592C349.436 194.24 350.087 194.064 350.812 194.064C351.527 194.064 352.167 194.24 352.732 194.592C353.308 194.944 353.762 195.424 354.092 196.032C354.423 196.64 354.588 197.328 354.588 198.096C354.588 198.864 354.423 199.552 354.092 200.16C353.762 200.768 353.308 201.248 352.732 201.6C352.167 201.952 351.527 202.128 350.812 202.128ZM350.796 201.104C351.308 201.104 351.762 200.976 352.156 200.72C352.551 200.453 352.86 200.091 353.084 199.632C353.319 199.173 353.436 198.661 353.436 198.096C353.436 197.52 353.319 197.008 353.084 196.56C352.86 196.101 352.551 195.744 352.156 195.488C351.762 195.221 351.308 195.088 350.796 195.088C350.284 195.088 349.831 195.221 349.436 195.488C349.042 195.744 348.727 196.101 348.492 196.56C348.268 197.008 348.156 197.52 348.156 198.096C348.156 198.661 348.268 199.173 348.492 199.632C348.727 200.091 349.042 200.453 349.436 200.72C349.831 200.976 350.284 201.104 350.796 201.104ZM356.638 202V194.192H357.806V195.408C358.104 194.96 358.446 194.624 358.83 194.4C359.214 194.176 359.646 194.064 360.126 194.064C360.68 194.064 361.166 194.203 361.582 194.48C361.998 194.747 362.312 195.115 362.526 195.584C362.835 195.083 363.203 194.704 363.63 194.448C364.067 194.192 364.568 194.064 365.134 194.064C365.656 194.064 366.115 194.187 366.51 194.432C366.915 194.677 367.23 195.019 367.454 195.456C367.678 195.883 367.79 196.384 367.79 196.96V202H366.622V197.248C366.622 196.565 366.451 196.027 366.11 195.632C365.768 195.237 365.299 195.04 364.702 195.04C364.296 195.04 363.928 195.141 363.598 195.344C363.278 195.547 362.995 195.856 362.75 196.272C362.771 196.379 362.787 196.491 362.798 196.608C362.808 196.725 362.814 196.843 362.814 196.96V202H361.646V197.248C361.646 196.565 361.47 196.027 361.118 195.632C360.776 195.237 360.307 195.04 359.71 195.04C358.91 195.04 358.275 195.424 357.806 196.192V202H356.638ZM370.153 202V194.192H371.321V195.408C371.62 194.96 371.961 194.624 372.345 194.4C372.729 194.176 373.161 194.064 373.641 194.064C374.196 194.064 374.681 194.203 375.097 194.48C375.513 194.747 375.828 195.115 376.041 195.584C376.35 195.083 376.718 194.704 377.145 194.448C377.582 194.192 378.084 194.064 378.649 194.064C379.172 194.064 379.63 194.187 380.025 194.432C380.43 194.677 380.745 195.019 380.969 195.456C381.193 195.883 381.305 196.384 381.305 196.96V202H380.137V197.248C380.137 196.565 379.966 196.027 379.625 195.632C379.284 195.237 378.814 195.04 378.217 195.04C377.812 195.04 377.444 195.141 377.113 195.344C376.793 195.547 376.51 195.856 376.265 196.272C376.286 196.379 376.302 196.491 376.313 196.608C376.324 196.725 376.329 196.843 376.329 196.96V202H375.161V197.248C375.161 196.565 374.985 196.027 374.633 195.632C374.292 195.237 373.822 195.04 373.225 195.04C372.425 195.04 371.79 195.424 371.321 196.192V202H370.153ZM386.375 202.128C385.82 202.128 385.329 202.005 384.903 201.76C384.476 201.515 384.14 201.173 383.895 200.736C383.66 200.299 383.543 199.797 383.543 199.232V194.192H384.727V198.896C384.727 199.589 384.913 200.139 385.287 200.544C385.66 200.949 386.167 201.152 386.807 201.152C387.244 201.152 387.633 201.051 387.975 200.848C388.327 200.645 388.62 200.352 388.855 199.968V194.192H390.023V202H388.855V200.736C388.556 201.195 388.199 201.541 387.783 201.776C387.377 202.011 386.908 202.128 386.375 202.128ZM392.419 202V194.192H393.587V195.456C393.885 194.987 394.243 194.64 394.659 194.416C395.075 194.181 395.544 194.064 396.067 194.064C396.632 194.064 397.123 194.187 397.539 194.432C397.965 194.667 398.296 195.003 398.531 195.44C398.776 195.867 398.899 196.368 398.899 196.944V202H397.731V197.28C397.731 196.587 397.539 196.043 397.155 195.648C396.781 195.243 396.275 195.04 395.635 195.04C395.208 195.04 394.819 195.141 394.467 195.344C394.115 195.547 393.821 195.845 393.587 196.24V202H392.419ZM401.231 202V194.192H402.399V202H401.231ZM401.823 192.256C401.588 192.256 401.386 192.176 401.215 192.016C401.055 191.845 400.975 191.648 400.975 191.424C400.975 191.2 401.055 191.008 401.215 190.848C401.386 190.677 401.588 190.592 401.823 190.592C402.058 190.592 402.255 190.677 402.415 190.848C402.586 191.008 402.671 191.2 402.671 191.424C402.671 191.648 402.586 191.845 402.415 192.016C402.255 192.176 402.058 192.256 401.823 192.256ZM407.77 202.16C407.098 202.16 406.586 202 406.234 201.68C405.892 201.349 405.722 200.875 405.722 200.256V195.152H404.106V194.192H405.722V192.048L406.89 191.776V194.192H409.13V195.152H406.89V199.952C406.89 200.368 406.975 200.667 407.146 200.848C407.327 201.029 407.62 201.12 408.026 201.12C408.228 201.12 408.41 201.104 408.57 201.072C408.73 201.04 408.916 200.987 409.13 200.912V201.952C408.916 202.027 408.692 202.08 408.458 202.112C408.223 202.144 407.994 202.16 407.77 202.16ZM411.333 205.504C411.088 205.504 410.837 205.467 410.581 205.392V204.352C410.688 204.373 410.8 204.389 410.917 204.4C411.034 204.411 411.136 204.416 411.221 204.416C411.52 204.416 411.765 204.336 411.957 204.176C412.16 204.016 412.33 203.765 412.469 203.424L413.045 202L410.037 194.192H411.333L413.701 200.608L416.213 194.192H417.509L413.573 203.776C413.402 204.192 413.216 204.528 413.013 204.784C412.81 205.04 412.576 205.221 412.309 205.328C412.042 205.445 411.717 205.504 411.333 205.504Z" fill="#151515"/>
</g>
<path d="M268 128.5H448C449.381 128.5 450.5 129.619 450.5 131V221C450.5 222.381 449.381 223.5 448 223.5H268C266.619 223.5 265.5 222.381 265.5 221V131C265.5 129.619 266.619 128.5 268 128.5Z" stroke="#C7C7C7"/>
</g>
<defs>
<filter id="filter0_d_4077_5701" x="49" y="37" width="219" height="150" filterUnits="userSpaceOnUse" color-interpolation-filters="sRGB">
<feFlood flood-opacity="0" result="BackgroundImageFix"/>
<feColorMatrix in="SourceAlpha" type="matrix" values="0 0 0 0 0 0 0 0 0 0 0 0 0 0 0 0 0 0 127 0" result="hardAlpha"/>
<feMorphology radius="1" operator="dilate" in="SourceAlpha" result="effect1_dropShadow_4077_5701"/>
<feOffset dy="4"/>
<feGaussianBlur stdDeviation="3"/>
<feComposite in2="hardAlpha" operator="out"/>
<feColorMatrix type="matrix" values="0 0 0 0 0.0823529 0 0 0 0 0.0823529 0 0 0 0 0.0823529 0 0 0 0.25 0"/>
<feBlend mode="normal" in2="BackgroundImageFix" result="effect1_dropShadow_4077_5701"/>
<feBlend mode="normal" in="SourceGraphic" in2="effect1_dropShadow_4077_5701" result="shape"/>
</filter>
<filter id="filter1_d_4077_5701" x="258" y="125" width="200" height="110" filterUnits="userSpaceOnUse" color-interpolation-filters="sRGB">
<feFlood flood-opacity="0" result="BackgroundImageFix"/>
<feColorMatrix in="SourceAlpha" type="matrix" values="0 0 0 0 0 0 0 0 0 0 0 0 0 0 0 0 0 0 127 0" result="hardAlpha"/>
<feMorphology radius="1" operator="dilate" in="SourceAlpha" result="effect1_dropShadow_4077_5701"/>
<feOffset dy="4"/>
<feGaussianBlur stdDeviation="3"/>
<feComposite in2="hardAlpha" operator="out"/>
<feColorMatrix type="matrix" values="0 0 0 0 0.0823529 0 0 0 0 0.0823529 0 0 0 0 0.0823529 0 0 0 0.25 0"/>
<feBlend mode="normal" in2="BackgroundImageFix" result="effect1_dropShadow_4077_5701"/>
<feBlend mode="normal" in="SourceGraphic" in2="effect1_dropShadow_4077_5701" result="shape"/>
</filter>
<clipPath id="clip0_4077_5701">
<path d="M56 43C56 41.3431 57.3431 40 59 40H258C259.657 40 261 41.3431 261 43V173C261 174.657 259.657 176 258 176H59C57.3431 176 56 174.657 56 173V43Z" fill="white"/>
</clipPath>
<clipPath id="clip1_4077_5701">
<path d="M265 131C265 129.343 266.343 128 268 128H448C449.657 128 451 129.343 451 131V221C451 222.657 449.657 224 448 224H268C266.343 224 265 222.657 265 221V131Z" fill="white"/>
</clipPath>
</defs>
</svg>
