<svg xmlns="http://www.w3.org/2000/svg" width="625" height="380"><g transform="translate(-513 -829)"><text fill="#6a6e73" font-family="RedHatText-Regular, Red Hat Text" font-size="14" letter-spacing=".01em" transform="translate(583 1171)"><tspan x="0" y="0">Lorem ipsum dolor sit amet, consectetur adipiscing elit</tspan></text><path fill="#f5f5f5" d="M583 829h555v312H583z"/><g transform="translate(829 953)"><circle cx="32" cy="32" r="32" fill="#d2d2d2"/><path fill="#fff" d="M44 32L24 42V22z"/></g><text fill="#06c" font-family="RedHatText-Regular, Red Hat Text" font-size="14" transform="translate(893 1205)"><tspan x="0" y="0">Play</tspan></text><path fill="#06c" d="M906 986h1v205h-1z"/><circle cx="3.5" cy="3.5" r="3.5" fill="#06c" transform="translate(903 982)"/><text fill="#06c" font-family="RedHatText-Regular, Red Hat Text" font-size="14" transform="translate(666 1205)"><tspan x="0" y="0">Video player</tspan></text><path fill="#06c" d="M705 986h1v205h-1z"/><circle cx="3.5" cy="3.5" r="3.5" fill="#06c" transform="translate(702 982)"/><circle cx="3.5" cy="3.5" r="3.5" fill="#06c" transform="translate(621 1163)"/><path fill="#06c" d="M567 1166h57v1h-57z"/><text fill="#06c" font-family="RedHatText-Regular, Red Hat Text" font-size="14" transform="translate(513 1171)"><tspan x="0" y="0">Caption</tspan></text></g></svg>