<svg xmlns="http://www.w3.org/2000/svg" xmlns:xlink="http://www.w3.org/1999/xlink" width="241.706" height="160" viewBox="0 0 241.706 160">
  <defs>
    <clipPath id="clip-path">
      <rect id="Rectangle_5" data-name="Rectangle 5" width="52.348" height="9.061" transform="translate(0 0)" fill="none"/>
    </clipPath>
  </defs>
  <g id="card-color-dark-gray" transform="translate(-964.294 -3241)">
    <rect id="Rectangle_1" data-name="Rectangle 1" width="160" height="160" rx="3" transform="translate(1046 3241)" fill="#3c3f42"/>
    <circle id="Ellipse_1" data-name="Ellipse 1" cx="3.5" cy="3.5" r="3.5" transform="translate(1056 3251)" fill="#73bcf7"/>
    <rect id="Rectangle_2" data-name="Rectangle 2" width="37" height="1" transform="translate(1022 3254)" fill="#73bcf7"/>
    <rect id="Rectangle_3" data-name="Rectangle 3" width="160" height="160" rx="3" transform="translate(1046 3241)" fill="#212427"/>
    <circle id="Ellipse_2" data-name="Ellipse 2" cx="3.5" cy="3.5" r="3.5" transform="translate(1056 3251)" fill="#73bcf7"/>
    <rect id="Rectangle_4" data-name="Rectangle 4" width="37" height="1" transform="translate(1022 3254)" fill="#73bcf7"/>
    <g id="Group_3" data-name="Group 3" transform="translate(964.294 3249.26)">
      <path id="Path_6" data-name="Path 6" d="M2.8,3.271h1.75L4.3,5.661H2.557ZM4.867.126,4.635,2.382H2.885L3.112.126h-1L1.88,2.382H.349v.889H1.791l-.246,2.39H0v.891H1.456l-.25,2.509H2.215l.253-2.509H4.206L3.958,9.061H4.97l.252-2.509H6.747V5.661H5.311l.24-2.39H7.106V2.382H5.64L5.879.126Z" fill="#73bcf7"/>
      <g id="Group_2" data-name="Group 2">
        <g id="Group_1" data-name="Group 1" clip-path="url(#clip-path)">
          <path id="Path_7" data-name="Path 7" d="M41.92,6.353q.575-.553,1-1.019a6.846,6.846,0,0,0,.7-.9,3.652,3.652,0,0,0,.414-.872,3.152,3.152,0,0,0,.137-.95,2.911,2.911,0,0,0-.194-1.1,2.28,2.28,0,0,0-.55-.82,2.416,2.416,0,0,0-.844-.513A3.143,3.143,0,0,0,41.495,0,3.46,3.46,0,0,0,39.96.322a4.02,4.02,0,0,0-1.166.854l.656.786a3.541,3.541,0,0,1,.854-.656,2.133,2.133,0,0,1,1.032-.253,1.731,1.731,0,0,1,.7.13,1.265,1.265,0,0,1,.479.355,1.48,1.48,0,0,1,.273.523,2.173,2.173,0,0,1,.089.626,2.891,2.891,0,0,1-.068.649,2.285,2.285,0,0,1-.267.639,5.14,5.14,0,0,1-.554.749q-.355.41-.923.971l-2.311,2.3V9.061H44.64V7.932H40.3Z" fill="#73bcf7"/>
          <path id="Path_8" data-name="Path 8" d="M11.4,6.353q.574-.553.995-1.019a6.846,6.846,0,0,0,.7-.9,3.652,3.652,0,0,0,.414-.872,3.152,3.152,0,0,0,.137-.95,2.911,2.911,0,0,0-.194-1.1,2.28,2.28,0,0,0-.55-.82,2.416,2.416,0,0,0-.844-.513A3.143,3.143,0,0,0,10.979,0,3.46,3.46,0,0,0,9.444.322a4.02,4.02,0,0,0-1.166.854l.656.786a3.541,3.541,0,0,1,.854-.656,2.133,2.133,0,0,1,1.032-.253,1.731,1.731,0,0,1,.7.13A1.265,1.265,0,0,1,12,1.538a1.48,1.48,0,0,1,.273.523,2.173,2.173,0,0,1,.089.626,2.891,2.891,0,0,1-.068.649,2.285,2.285,0,0,1-.267.639,5.14,5.14,0,0,1-.554.749q-.356.41-.923.971l-2.311,2.3V9.061h5.886V7.932H9.784Z" fill="#73bcf7"/>
          <path id="Path_9" data-name="Path 9" d="M19.759.082H18.706l-2.844,1.5L16.3,2.594l2.14-1.162V7.954h-2.3V9.061h5.612l.008-1.111h-2Z" fill="#73bcf7"/>
          <path id="Path_10" data-name="Path 10" d="M26.662,6.353q.574-.553.995-1.019a6.846,6.846,0,0,0,.7-.9,3.652,3.652,0,0,0,.414-.872,3.152,3.152,0,0,0,.137-.95,2.911,2.911,0,0,0-.194-1.1,2.28,2.28,0,0,0-.55-.82A2.416,2.416,0,0,0,27.32.179,3.143,3.143,0,0,0,26.237,0,3.46,3.46,0,0,0,24.7.322a4.02,4.02,0,0,0-1.166.854l.656.786a3.541,3.541,0,0,1,.854-.656,2.133,2.133,0,0,1,1.032-.253,1.731,1.731,0,0,1,.7.13,1.265,1.265,0,0,1,.479.355,1.48,1.48,0,0,1,.273.523,2.173,2.173,0,0,1,.089.626,2.891,2.891,0,0,1-.068.649,2.285,2.285,0,0,1-.267.639,5.14,5.14,0,0,1-.554.749q-.355.41-.923.971L23.5,7.995V9.061h5.886V7.932H25.042Z" fill="#73bcf7"/>
          <path id="Path_11" data-name="Path 11" d="M36.067.127H34.355L30.547,6.04V7.085h4.3V9.061h1.22V7.083h1.517l.007-1.043H36.067ZM34.847,6.04h-3.11l3.11-4.765Z" fill="#73bcf7"/>
          <path id="Path_12" data-name="Path 12" d="M52.347.126H46.3V1.234h4.827l-3.89,7.827H48.6l3.747-7.827Z" fill="#73bcf7"/>
        </g>
      </g>
    </g>
  </g>
</svg>
