<svg xmlns="http://www.w3.org/2000/svg" width="1000" height="263" viewBox="0 0 1000 263"><rect width="1000" height="263" rx="3" fill="#f0f0f0"/><path d="M0,0H160a0,0,0,0,1,0,0V65a3,3,0,0,1-3,3H0a0,0,0,0,1,0,0V0A0,0,0,0,1,0,0Z" transform="translate(660 132)" fill="#73bcf7"/><rect width="160" height="68" transform="translate(500 132)" fill="#6a6e73"/><rect width="160" height="68" transform="translate(340 132)" fill="#151515"/><path d="M0,0H157a3,3,0,0,1,3,3V68a0,0,0,0,1,0,0H0a0,0,0,0,1,0,0V0A0,0,0,0,1,0,0Z" transform="translate(660 64)" fill="#06c"/><rect width="160" height="68" transform="translate(500 64)" fill="#d2d2d2"/><rect width="160" height="68" transform="translate(340 64)" fill="#fff"/><path d="M3,0H160a0,0,0,0,1,0,0V136a0,0,0,0,1,0,0H3a3,3,0,0,1-3-3V3A3,3,0,0,1,3,0Z" transform="translate(180 64)" fill="#e00"/><rect width="1" height="263" transform="translate(819)" fill="blue" opacity="0.2"/><rect width="1" height="263" transform="translate(180)" fill="blue" opacity="0.2"/><rect width="1000" height="1" transform="translate(0 199)" fill="blue" opacity="0.2"/><rect width="1000" height="1" transform="translate(0 64)" fill="blue" opacity="0.2"/></svg>