<svg width="240" height="156" viewBox="0 0 240 156" fill="none" xmlns="http://www.w3.org/2000/svg">
<path d="M133.5 156L138 150H129L133.5 156Z" fill="#B300B3"/>
<rect x="133" y="126" width="1" height="24" fill="#B300B3"/>
<rect x="111" y="97" width="42" height="29" rx="4" fill="#B300B3"/>
<path d="M122.668 116V107.138H119.42V106.2H126.98V107.138H123.746V116H122.668ZM130.979 116.14C130.484 116.14 130.041 116.051 129.649 115.874C129.266 115.697 128.967 115.454 128.753 115.146C128.538 114.829 128.431 114.465 128.431 114.054C128.431 113.643 128.538 113.284 128.753 112.976C128.977 112.668 129.285 112.43 129.677 112.262C130.078 112.094 130.54 112.01 131.063 112.01C131.473 112.01 131.856 112.052 132.211 112.136C132.565 112.211 132.901 112.341 133.219 112.528V111.744C133.219 111.137 133.065 110.68 132.757 110.372C132.449 110.064 131.991 109.91 131.385 109.91C131.039 109.91 130.694 109.961 130.349 110.064C130.003 110.157 129.616 110.325 129.187 110.568L128.767 109.798C129.261 109.527 129.733 109.336 130.181 109.224C130.629 109.112 131.072 109.056 131.511 109.056C132.379 109.056 133.046 109.275 133.513 109.714C133.989 110.153 134.227 110.783 134.227 111.604V116H133.219V115.216C132.901 115.533 132.556 115.767 132.183 115.916C131.819 116.065 131.417 116.14 130.979 116.14ZM129.411 114.026C129.411 114.427 129.574 114.749 129.901 114.992C130.227 115.235 130.657 115.356 131.189 115.356C131.59 115.356 131.954 115.295 132.281 115.174C132.617 115.043 132.929 114.838 133.219 114.558V113.242C132.929 113.065 132.621 112.939 132.295 112.864C131.968 112.789 131.609 112.752 131.217 112.752C130.675 112.752 130.237 112.869 129.901 113.102C129.574 113.335 129.411 113.643 129.411 114.026ZM137.063 116V105.892L138.085 105.682V110.036C138.356 109.728 138.673 109.495 139.037 109.336C139.401 109.168 139.793 109.084 140.213 109.084C140.82 109.084 141.361 109.243 141.837 109.56C142.322 109.868 142.705 110.288 142.985 110.82C143.274 111.343 143.419 111.935 143.419 112.598C143.419 113.251 143.279 113.844 142.999 114.376C142.719 114.899 142.341 115.319 141.865 115.636C141.398 115.944 140.866 116.098 140.269 116.098C139.821 116.098 139.41 116.014 139.037 115.846C138.664 115.669 138.346 115.417 138.085 115.09V116H137.063ZM140.017 115.202C140.474 115.202 140.88 115.09 141.235 114.866C141.599 114.633 141.884 114.32 142.089 113.928C142.304 113.527 142.411 113.079 142.411 112.584C142.411 112.08 142.304 111.632 142.089 111.24C141.884 110.848 141.599 110.54 141.235 110.316C140.88 110.092 140.474 109.98 140.017 109.98C139.634 109.98 139.27 110.064 138.925 110.232C138.589 110.391 138.309 110.615 138.085 110.904V114.292C138.3 114.581 138.575 114.805 138.911 114.964C139.247 115.123 139.616 115.202 140.017 115.202Z" fill="white"/>
<rect x="70" y="65" width="40" height="24" rx="12" fill="#4D4D4D"/>
<circle cx="82" cy="77" r="7" fill="white"/>
<path d="M131.04 83.176C130.165 83.176 129.355 83.0213 128.608 82.712C127.861 82.392 127.141 81.912 126.448 81.272L127.2 80.376C127.872 81.0053 128.501 81.4533 129.088 81.72C129.685 81.9867 130.347 82.12 131.072 82.12C131.648 82.12 132.16 82.024 132.608 81.832C133.067 81.6293 133.424 81.3573 133.68 81.016C133.936 80.6747 134.064 80.2853 134.064 79.848C134.064 79.2827 133.877 78.856 133.504 78.568C133.131 78.2693 132.485 78.04 131.568 77.88L129.76 77.576C128.736 77.3947 127.984 77.0853 127.504 76.648C127.035 76.2 126.8 75.6027 126.8 74.856C126.8 74.2267 126.96 73.672 127.28 73.192C127.611 72.7013 128.064 72.3173 128.64 72.04C129.216 71.7627 129.883 71.624 130.64 71.624C131.472 71.624 132.245 71.7413 132.96 71.976C133.675 72.2 134.379 72.5573 135.072 73.048L134.432 74.008C133.856 73.5707 133.248 73.24 132.608 73.016C131.968 72.7813 131.317 72.664 130.656 72.664C130.133 72.664 129.669 72.7547 129.264 72.936C128.869 73.1173 128.555 73.3627 128.32 73.672C128.096 73.9813 127.984 74.3333 127.984 74.728C127.984 75.2187 128.149 75.6027 128.48 75.88C128.811 76.1573 129.349 76.3547 130.096 76.472L131.888 76.776C133.083 76.9893 133.947 77.336 134.48 77.816C135.024 78.2853 135.296 78.9413 135.296 79.784C135.296 80.4347 135.109 81.016 134.736 81.528C134.373 82.04 133.872 82.4453 133.232 82.744C132.592 83.032 131.861 83.176 131.04 83.176ZM139.91 83.16C139.238 83.16 138.726 83 138.374 82.68C138.033 82.3493 137.862 81.8747 137.862 81.256V76.152H136.246V75.192H137.862V73.048L139.03 72.776V75.192H141.27V76.152H139.03V80.952C139.03 81.368 139.116 81.6667 139.286 81.848C139.468 82.0293 139.761 82.12 140.166 82.12C140.369 82.12 140.55 82.104 140.71 82.072C140.87 82.04 141.057 81.9867 141.27 81.912V82.952C141.057 83.0267 140.833 83.08 140.598 83.112C140.364 83.144 140.134 83.16 139.91 83.16ZM145.397 83.144C144.843 83.144 144.352 83.0427 143.925 82.84C143.499 82.6373 143.163 82.36 142.917 82.008C142.683 81.6453 142.565 81.2293 142.565 80.76C142.565 80.2907 142.688 79.8853 142.933 79.544C143.179 79.192 143.52 78.92 143.957 78.728C144.395 78.536 144.907 78.44 145.493 78.44C145.941 78.44 146.363 78.488 146.757 78.584C147.163 78.68 147.536 78.8347 147.877 79.048V77.976C147.877 77.336 147.707 76.856 147.365 76.536C147.024 76.2053 146.523 76.04 145.861 76.04C145.499 76.04 145.125 76.0933 144.741 76.2C144.368 76.3067 143.952 76.4773 143.493 76.712L143.061 75.816C144.107 75.3147 145.088 75.064 146.005 75.064C146.976 75.064 147.723 75.304 148.245 75.784C148.768 76.2533 149.029 76.9307 149.029 77.816V83H147.877V82.088C147.536 82.44 147.157 82.7067 146.741 82.888C146.325 83.0587 145.877 83.144 145.397 83.144ZM143.685 80.728C143.685 81.1867 143.861 81.5547 144.213 81.832C144.576 82.1093 145.051 82.248 145.637 82.248C146.075 82.248 146.475 82.1733 146.837 82.024C147.211 81.8747 147.557 81.6507 147.877 81.352V79.848C147.547 79.656 147.205 79.5173 146.853 79.432C146.501 79.336 146.107 79.288 145.669 79.288C145.072 79.288 144.592 79.4213 144.229 79.688C143.867 79.944 143.685 80.2907 143.685 80.728ZM154.145 83.16C153.473 83.16 152.961 83 152.609 82.68C152.267 82.3493 152.097 81.8747 152.097 81.256V76.152H150.481V75.192H152.097V73.048L153.265 72.776V75.192H155.505V76.152H153.265V80.952C153.265 81.368 153.35 81.6667 153.521 81.848C153.702 82.0293 153.995 82.12 154.401 82.12C154.603 82.12 154.785 82.104 154.945 82.072C155.105 82.04 155.291 81.9867 155.505 81.912V82.952C155.291 83.0267 155.067 83.08 154.833 83.112C154.598 83.144 154.369 83.16 154.145 83.16ZM160 83.128C159.445 83.128 158.954 83.0053 158.528 82.76C158.101 82.5147 157.765 82.1733 157.52 81.736C157.285 81.2987 157.168 80.7973 157.168 80.232V75.192H158.352V79.896C158.352 80.5893 158.538 81.1387 158.912 81.544C159.285 81.9493 159.792 82.152 160.432 82.152C160.869 82.152 161.258 82.0507 161.6 81.848C161.952 81.6453 162.245 81.352 162.48 80.968V75.192H163.648V83H162.48V81.736C162.181 82.1947 161.824 82.5413 161.408 82.776C161.002 83.0107 160.533 83.128 160 83.128ZM168.46 83.16C167.82 83.16 167.228 83.064 166.684 82.872C166.14 82.6693 165.676 82.3813 165.292 82.008L165.916 81.24C166.385 81.5813 166.817 81.832 167.212 81.992C167.606 82.1413 168.012 82.216 168.428 82.216C168.993 82.216 169.462 82.0827 169.836 81.816C170.209 81.5493 170.396 81.208 170.396 80.792C170.396 80.472 170.284 80.2213 170.06 80.04C169.846 79.8587 169.489 79.72 168.988 79.624L167.708 79.4C166.95 79.2613 166.39 79.0267 166.028 78.696C165.676 78.3653 165.5 77.9173 165.5 77.352C165.5 76.904 165.617 76.5093 165.852 76.168C166.097 75.8267 166.433 75.56 166.86 75.368C167.286 75.1653 167.772 75.064 168.316 75.064C168.849 75.064 169.356 75.144 169.836 75.304C170.316 75.4533 170.801 75.6987 171.292 76.04L170.716 76.856C170.31 76.568 169.905 76.36 169.5 76.232C169.094 76.0933 168.684 76.024 168.268 76.024C167.756 76.024 167.345 76.136 167.036 76.36C166.726 76.584 166.572 76.888 166.572 77.272C166.572 77.592 166.668 77.8373 166.86 78.008C167.062 78.1787 167.414 78.3067 167.916 78.392L169.228 78.632C170.017 78.7707 170.593 79.0107 170.956 79.352C171.318 79.6933 171.5 80.152 171.5 80.728C171.5 81.1867 171.366 81.6027 171.1 81.976C170.833 82.3387 170.47 82.6267 170.012 82.84C169.553 83.0533 169.036 83.16 168.46 83.16ZM177.013 83V75.192H178.181V76.408C178.479 75.96 178.821 75.624 179.205 75.4C179.589 75.176 180.021 75.064 180.501 75.064C181.055 75.064 181.541 75.2027 181.957 75.48C182.373 75.7467 182.687 76.1147 182.901 76.584C183.21 76.0827 183.578 75.704 184.005 75.448C184.442 75.192 184.943 75.064 185.509 75.064C186.031 75.064 186.49 75.1867 186.885 75.432C187.29 75.6773 187.605 76.0187 187.829 76.456C188.053 76.8827 188.165 77.384 188.165 77.96V83H186.997V78.248C186.997 77.5653 186.826 77.0267 186.485 76.632C186.143 76.2373 185.674 76.04 185.077 76.04C184.671 76.04 184.303 76.1413 183.973 76.344C183.653 76.5467 183.37 76.856 183.125 77.272C183.146 77.3787 183.162 77.4907 183.173 77.608C183.183 77.7253 183.189 77.8427 183.189 77.96V83H182.021V78.248C182.021 77.5653 181.845 77.0267 181.493 76.632C181.151 76.2373 180.682 76.04 180.085 76.04C179.285 76.04 178.65 76.424 178.181 77.192V83H177.013ZM194.048 83.16C193.323 83.16 192.667 82.984 192.08 82.632C191.493 82.2693 191.029 81.784 190.688 81.176C190.347 80.5573 190.176 79.864 190.176 79.096C190.176 78.328 190.336 77.64 190.656 77.032C190.987 76.424 191.429 75.944 191.984 75.592C192.539 75.24 193.157 75.064 193.84 75.064C194.533 75.064 195.147 75.24 195.68 75.592C196.224 75.9333 196.651 76.4027 196.96 77C197.28 77.5867 197.44 78.2533 197.44 79V79.352H191.312C191.355 79.8853 191.499 80.3653 191.744 80.792C192 81.208 192.331 81.5387 192.736 81.784C193.152 82.0187 193.605 82.136 194.096 82.136C194.501 82.136 194.891 82.0667 195.264 81.928C195.648 81.7787 195.973 81.5813 196.24 81.336L196.976 82.12C196.528 82.472 196.064 82.7333 195.584 82.904C195.104 83.0747 194.592 83.16 194.048 83.16ZM191.344 78.52H196.288C196.235 78.0507 196.091 77.6347 195.856 77.272C195.632 76.8987 195.344 76.6053 194.992 76.392C194.651 76.1787 194.267 76.072 193.84 76.072C193.413 76.072 193.024 76.1787 192.672 76.392C192.32 76.5947 192.027 76.8827 191.792 77.256C191.568 77.6187 191.419 78.04 191.344 78.52ZM201.929 83.16C201.289 83.16 200.697 83.064 200.153 82.872C199.609 82.6693 199.145 82.3813 198.761 82.008L199.385 81.24C199.854 81.5813 200.286 81.832 200.681 81.992C201.075 82.1413 201.481 82.216 201.897 82.216C202.462 82.216 202.931 82.0827 203.305 81.816C203.678 81.5493 203.865 81.208 203.865 80.792C203.865 80.472 203.753 80.2213 203.529 80.04C203.315 79.8587 202.958 79.72 202.457 79.624L201.177 79.4C200.419 79.2613 199.859 79.0267 199.497 78.696C199.145 78.3653 198.969 77.9173 198.969 77.352C198.969 76.904 199.086 76.5093 199.321 76.168C199.566 75.8267 199.902 75.56 200.329 75.368C200.755 75.1653 201.241 75.064 201.785 75.064C202.318 75.064 202.825 75.144 203.305 75.304C203.785 75.4533 204.27 75.6987 204.761 76.04L204.185 76.856C203.779 76.568 203.374 76.36 202.969 76.232C202.563 76.0933 202.153 76.024 201.737 76.024C201.225 76.024 200.814 76.136 200.505 76.36C200.195 76.584 200.041 76.888 200.041 77.272C200.041 77.592 200.137 77.8373 200.329 78.008C200.531 78.1787 200.883 78.3067 201.385 78.392L202.697 78.632C203.486 78.7707 204.062 79.0107 204.425 79.352C204.787 79.6933 204.969 80.152 204.969 80.728C204.969 81.1867 204.835 81.6027 204.569 81.976C204.302 82.3387 203.939 82.6267 203.481 82.84C203.022 83.0533 202.505 83.16 201.929 83.16ZM209.163 83.16C208.523 83.16 207.931 83.064 207.387 82.872C206.843 82.6693 206.379 82.3813 205.995 82.008L206.619 81.24C207.088 81.5813 207.52 81.832 207.915 81.992C208.31 82.1413 208.715 82.216 209.131 82.216C209.696 82.216 210.166 82.0827 210.539 81.816C210.912 81.5493 211.099 81.208 211.099 80.792C211.099 80.472 210.987 80.2213 210.763 80.04C210.55 79.8587 210.192 79.72 209.691 79.624L208.411 79.4C207.654 79.2613 207.094 79.0267 206.731 78.696C206.379 78.3653 206.203 77.9173 206.203 77.352C206.203 76.904 206.32 76.5093 206.555 76.168C206.8 75.8267 207.136 75.56 207.563 75.368C207.99 75.1653 208.475 75.064 209.019 75.064C209.552 75.064 210.059 75.144 210.539 75.304C211.019 75.4533 211.504 75.6987 211.995 76.04L211.419 76.856C211.014 76.568 210.608 76.36 210.203 76.232C209.798 76.0933 209.387 76.024 208.971 76.024C208.459 76.024 208.048 76.136 207.739 76.36C207.43 76.584 207.275 76.888 207.275 77.272C207.275 77.592 207.371 77.8373 207.563 78.008C207.766 78.1787 208.118 78.3067 208.619 78.392L209.931 78.632C210.72 78.7707 211.296 79.0107 211.659 79.352C212.022 79.6933 212.203 80.152 212.203 80.728C212.203 81.1867 212.07 81.6027 211.803 81.976C211.536 82.3387 211.174 82.6267 210.715 82.84C210.256 83.0533 209.739 83.16 209.163 83.16ZM216.475 83.144C215.921 83.144 215.43 83.0427 215.003 82.84C214.577 82.6373 214.241 82.36 213.995 82.008C213.761 81.6453 213.643 81.2293 213.643 80.76C213.643 80.2907 213.766 79.8853 214.011 79.544C214.257 79.192 214.598 78.92 215.035 78.728C215.473 78.536 215.985 78.44 216.571 78.44C217.019 78.44 217.441 78.488 217.835 78.584C218.241 78.68 218.614 78.8347 218.955 79.048V77.976C218.955 77.336 218.785 76.856 218.443 76.536C218.102 76.2053 217.601 76.04 216.939 76.04C216.577 76.04 216.203 76.0933 215.819 76.2C215.446 76.3067 215.03 76.4773 214.571 76.712L214.139 75.816C215.185 75.3147 216.166 75.064 217.083 75.064C218.054 75.064 218.801 75.304 219.323 75.784C219.846 76.2533 220.107 76.9307 220.107 77.816V83H218.955V82.088C218.614 82.44 218.235 82.7067 217.819 82.888C217.403 83.0587 216.955 83.144 216.475 83.144ZM214.763 80.728C214.763 81.1867 214.939 81.5547 215.291 81.832C215.654 82.1093 216.129 82.248 216.715 82.248C217.153 82.248 217.553 82.1733 217.915 82.024C218.289 81.8747 218.635 81.6507 218.955 81.352V79.848C218.625 79.656 218.283 79.5173 217.931 79.432C217.579 79.336 217.185 79.288 216.747 79.288C216.15 79.288 215.67 79.4213 215.307 79.688C214.945 79.944 214.763 80.2907 214.763 80.728ZM226.097 86.504C225.575 86.504 225.047 86.4293 224.513 86.28C223.991 86.1413 223.505 85.944 223.057 85.688L223.553 84.792C224.033 85.0373 224.471 85.2187 224.865 85.336C225.26 85.4533 225.655 85.512 226.049 85.512C226.764 85.512 227.303 85.3413 227.665 85C228.039 84.6587 228.225 84.1627 228.225 83.512V81.944C227.927 82.3173 227.564 82.6053 227.137 82.808C226.711 83 226.241 83.096 225.729 83.096C225.057 83.096 224.449 82.92 223.905 82.568C223.361 82.2053 222.929 81.7253 222.609 81.128C222.289 80.52 222.129 79.8427 222.129 79.096C222.129 78.3493 222.289 77.6773 222.609 77.08C222.94 76.472 223.383 75.992 223.937 75.64C224.492 75.2773 225.111 75.096 225.793 75.096C226.284 75.096 226.737 75.192 227.153 75.384C227.569 75.5653 227.932 75.8373 228.241 76.2V75.192H229.393V83.496C229.393 84.4667 229.111 85.208 228.545 85.72C227.98 86.2427 227.164 86.504 226.097 86.504ZM226.017 82.088C226.476 82.088 226.897 81.9973 227.281 81.816C227.665 81.624 227.98 81.3627 228.225 81.032V77.176C227.969 76.8453 227.644 76.5893 227.249 76.408C226.865 76.216 226.455 76.12 226.017 76.12C225.495 76.12 225.025 76.248 224.609 76.504C224.204 76.76 223.879 77.112 223.633 77.56C223.399 78.008 223.281 78.52 223.281 79.096C223.281 79.6613 223.399 80.1733 223.633 80.632C223.879 81.08 224.204 81.4373 224.609 81.704C225.025 81.96 225.495 82.088 226.017 82.088ZM235.314 83.16C234.588 83.16 233.932 82.984 233.346 82.632C232.759 82.2693 232.295 81.784 231.954 81.176C231.612 80.5573 231.442 79.864 231.442 79.096C231.442 78.328 231.602 77.64 231.922 77.032C232.252 76.424 232.695 75.944 233.25 75.592C233.804 75.24 234.423 75.064 235.106 75.064C235.799 75.064 236.412 75.24 236.946 75.592C237.49 75.9333 237.916 76.4027 238.226 77C238.546 77.5867 238.706 78.2533 238.706 79V79.352H232.578C232.62 79.8853 232.764 80.3653 233.01 80.792C233.266 81.208 233.596 81.5387 234.002 81.784C234.418 82.0187 234.871 82.136 235.362 82.136C235.767 82.136 236.156 82.0667 236.53 81.928C236.914 81.7787 237.239 81.5813 237.506 81.336L238.242 82.12C237.794 82.472 237.33 82.7333 236.85 82.904C236.37 83.0747 235.858 83.16 235.314 83.16ZM232.61 78.52H237.554C237.5 78.0507 237.356 77.6347 237.122 77.272C236.898 76.8987 236.61 76.6053 236.258 76.392C235.916 76.1787 235.532 76.072 235.106 76.072C234.679 76.072 234.29 76.1787 233.938 76.392C233.586 76.5947 233.292 76.8827 233.058 77.256C232.834 77.6187 232.684 78.04 232.61 78.52Z" fill="#4D4D4D"/>
<rect x="67" y="62" width="46" height="30" rx="15" stroke="#0066CC" stroke-width="2"/>
<rect y="62" width="58" height="29" rx="4" fill="#B300B3"/>
<path d="M12.34 81.154C11.6867 81.154 11.0707 81.0327 10.492 80.79C9.91333 80.538 9.33 80.146 8.742 79.614L9.386 78.802C9.96467 79.3247 10.478 79.6933 10.926 79.908C11.374 80.1227 11.8547 80.23 12.368 80.23C12.7973 80.23 13.1753 80.1507 13.502 79.992C13.838 79.824 14.0993 79.6 14.286 79.32C14.482 79.0307 14.58 78.7087 14.58 78.354C14.58 77.9527 14.4773 77.6353 14.272 77.402C14.076 77.1593 13.8147 76.9727 13.488 76.842C13.1613 76.702 12.802 76.5853 12.41 76.492C12.018 76.3893 11.6213 76.282 11.22 76.17C10.828 76.058 10.4687 75.9087 10.142 75.722C9.81533 75.526 9.54933 75.2647 9.344 74.938C9.148 74.6113 9.05 74.1867 9.05 73.664C9.05 73.1507 9.176 72.698 9.428 72.306C9.68933 71.914 10.0487 71.606 10.506 71.382C10.9727 71.158 11.5047 71.046 12.102 71.046C12.6993 71.046 13.2687 71.144 13.81 71.34C14.3607 71.5267 14.944 71.8393 15.56 72.278L15 73.118C14.4867 72.726 13.992 72.4367 13.516 72.25C13.04 72.054 12.5733 71.956 12.116 71.956C11.5187 71.956 11.0287 72.11 10.646 72.418C10.2727 72.7167 10.086 73.0947 10.086 73.552C10.086 73.9627 10.184 74.2893 10.38 74.532C10.5853 74.7747 10.8513 74.966 11.178 75.106C11.514 75.246 11.878 75.3673 12.27 75.47C12.6713 75.5633 13.068 75.666 13.46 75.778C13.8613 75.89 14.2253 76.044 14.552 76.24C14.888 76.4267 15.154 76.6833 15.35 77.01C15.5553 77.3367 15.658 77.766 15.658 78.298C15.658 78.8393 15.5133 79.3293 15.224 79.768C14.944 80.1973 14.552 80.538 14.048 80.79C13.5533 81.0327 12.984 81.154 12.34 81.154ZM17.6545 83.926V74.168H18.6625V75.148C18.9239 74.8027 19.2412 74.5413 19.6145 74.364C19.9972 74.1773 20.4172 74.084 20.8745 74.084C21.4719 74.084 22.0039 74.2427 22.4705 74.56C22.9465 74.868 23.3245 75.288 23.6045 75.82C23.8845 76.3427 24.0245 76.9307 24.0245 77.584C24.0245 78.2373 23.8799 78.83 23.5905 79.362C23.3105 79.894 22.9279 80.3187 22.4425 80.636C21.9665 80.944 21.4252 81.098 20.8185 81.098C20.3892 81.098 19.9925 81.0187 19.6285 80.86C19.2645 80.692 18.9472 80.454 18.6765 80.146V83.926H17.6545ZM20.6225 80.216C21.0799 80.216 21.4859 80.104 21.8405 79.88C22.2045 79.6467 22.4892 79.334 22.6945 78.942C22.9092 78.5407 23.0165 78.0927 23.0165 77.598C23.0165 77.094 22.9092 76.646 22.6945 76.254C22.4892 75.862 22.2045 75.554 21.8405 75.33C21.4859 75.0967 21.0799 74.98 20.6225 74.98C20.2212 74.98 19.8479 75.064 19.5025 75.232C19.1665 75.3907 18.8912 75.6193 18.6765 75.918V79.264C18.9005 79.5627 19.1805 79.796 19.5165 79.964C19.8619 80.132 20.2305 80.216 20.6225 80.216ZM28.3731 81.14C27.8784 81.14 27.4351 81.0513 27.0431 80.874C26.6604 80.6967 26.3617 80.454 26.1471 80.146C25.9324 79.8287 25.8251 79.4647 25.8251 79.054C25.8251 78.6433 25.9324 78.284 26.1471 77.976C26.3711 77.668 26.6791 77.43 27.0711 77.262C27.4724 77.094 27.9344 77.01 28.4571 77.01C28.8677 77.01 29.2504 77.052 29.6051 77.136C29.9597 77.2107 30.2957 77.3413 30.6131 77.528V76.744C30.6131 76.1373 30.4591 75.68 30.1511 75.372C29.8431 75.064 29.3857 74.91 28.7791 74.91C28.4337 74.91 28.0884 74.9613 27.7431 75.064C27.3977 75.1573 27.0104 75.3253 26.5811 75.568L26.1611 74.798C26.6557 74.5273 27.1271 74.336 27.5751 74.224C28.0231 74.112 28.4664 74.056 28.9051 74.056C29.7731 74.056 30.4404 74.2753 30.9071 74.714C31.3831 75.1527 31.6211 75.7827 31.6211 76.604V81H30.6131V80.216C30.2957 80.5333 29.9504 80.7667 29.5771 80.916C29.2131 81.0653 28.8117 81.14 28.3731 81.14ZM26.8051 79.026C26.8051 79.4273 26.9684 79.7493 27.2951 79.992C27.6217 80.2347 28.0511 80.356 28.5831 80.356C28.9844 80.356 29.3484 80.2953 29.6751 80.174C30.0111 80.0433 30.3237 79.838 30.6131 79.558V78.242C30.3237 78.0647 30.0157 77.9387 29.6891 77.864C29.3624 77.7893 29.0031 77.752 28.6111 77.752C28.0697 77.752 27.6311 77.8687 27.2951 78.102C26.9684 78.3353 26.8051 78.6433 26.8051 79.026ZM37.4956 81.14C36.8516 81.14 36.2683 80.986 35.7456 80.678C35.2323 80.3607 34.8216 79.936 34.5136 79.404C34.2149 78.872 34.0656 78.27 34.0656 77.598C34.0656 76.926 34.2149 76.324 34.5136 75.792C34.8216 75.2507 35.2323 74.826 35.7456 74.518C36.2683 74.21 36.8516 74.056 37.4956 74.056C38.1303 74.056 38.7043 74.196 39.2176 74.476C39.7309 74.756 40.1369 75.134 40.4356 75.61L39.6096 76.128C39.3949 75.7733 39.1009 75.4933 38.7276 75.288C38.3636 75.0733 37.9529 74.966 37.4956 74.966C37.0289 74.966 36.6136 75.0827 36.2496 75.316C35.8856 75.54 35.5963 75.848 35.3816 76.24C35.1763 76.632 35.0736 77.0847 35.0736 77.598C35.0736 78.102 35.1763 78.5547 35.3816 78.956C35.5963 79.348 35.8856 79.6607 36.2496 79.894C36.6136 80.118 37.0289 80.23 37.4956 80.23C37.9529 80.23 38.3636 80.1273 38.7276 79.922C39.1009 79.7073 39.3949 79.4227 39.6096 79.068L40.4356 79.586C40.1369 80.062 39.7309 80.44 39.2176 80.72C38.7043 81 38.1303 81.14 37.4956 81.14ZM45.9461 81.14C45.2928 81.14 44.7048 80.986 44.1821 80.678C43.6595 80.3607 43.2441 79.936 42.9361 79.404C42.6375 78.8627 42.4881 78.256 42.4881 77.584C42.4881 76.912 42.6328 76.31 42.9221 75.778C43.2115 75.246 43.6035 74.826 44.0981 74.518C44.6021 74.21 45.1621 74.056 45.7781 74.056C46.4221 74.056 46.9961 74.21 47.5001 74.518C48.0041 74.8167 48.4008 75.2273 48.6901 75.75C48.9795 76.2633 49.1241 76.8467 49.1241 77.5V77.808H43.4821C43.5195 78.2747 43.6501 78.6947 43.8741 79.068C44.0981 79.432 44.3921 79.7213 44.7561 79.936C45.1295 80.1413 45.5401 80.244 45.9881 80.244C46.3895 80.244 46.7628 80.1693 47.1081 80.02C47.4628 79.8613 47.7568 79.6467 47.9901 79.376L48.7041 80.006C48.3401 80.3793 47.9248 80.664 47.4581 80.86C46.9915 81.0467 46.4875 81.14 45.9461 81.14ZM43.5101 77.052H48.1161C48.0601 76.6413 47.9201 76.2773 47.6961 75.96C47.4815 75.6427 47.2061 75.3953 46.8701 75.218C46.5435 75.0313 46.1748 74.938 45.7641 74.938C45.3815 74.938 45.0315 75.0267 44.7141 75.204C44.3968 75.3813 44.1308 75.6287 43.9161 75.946C43.7108 76.2633 43.5755 76.632 43.5101 77.052Z" fill="white"/>
<path d="M133.5 59L138 53H129L133.5 59Z" fill="#B300B3"/>
<rect x="133" y="29" width="1" height="24" fill="#B300B3"/>
<rect x="111" width="42" height="29" rx="4" fill="#B300B3"/>
<path d="M122.668 19V10.138H119.42V9.2H126.98V10.138H123.746V19H122.668ZM130.979 19.14C130.484 19.14 130.041 19.0513 129.649 18.874C129.266 18.6967 128.967 18.454 128.753 18.146C128.538 17.8287 128.431 17.4647 128.431 17.054C128.431 16.6433 128.538 16.284 128.753 15.976C128.977 15.668 129.285 15.43 129.677 15.262C130.078 15.094 130.54 15.01 131.063 15.01C131.473 15.01 131.856 15.052 132.211 15.136C132.565 15.2107 132.901 15.3413 133.219 15.528V14.744C133.219 14.1373 133.065 13.68 132.757 13.372C132.449 13.064 131.991 12.91 131.385 12.91C131.039 12.91 130.694 12.9613 130.349 13.064C130.003 13.1573 129.616 13.3253 129.187 13.568L128.767 12.798C129.261 12.5273 129.733 12.336 130.181 12.224C130.629 12.112 131.072 12.056 131.511 12.056C132.379 12.056 133.046 12.2753 133.513 12.714C133.989 13.1527 134.227 13.7827 134.227 14.604V19H133.219V18.216C132.901 18.5333 132.556 18.7667 132.183 18.916C131.819 19.0653 131.417 19.14 130.979 19.14ZM129.411 17.026C129.411 17.4273 129.574 17.7493 129.901 17.992C130.227 18.2347 130.657 18.356 131.189 18.356C131.59 18.356 131.954 18.2953 132.281 18.174C132.617 18.0433 132.929 17.838 133.219 17.558V16.242C132.929 16.0647 132.621 15.9387 132.295 15.864C131.968 15.7893 131.609 15.752 131.217 15.752C130.675 15.752 130.237 15.8687 129.901 16.102C129.574 16.3353 129.411 16.6433 129.411 17.026ZM137.063 19V8.892L138.085 8.682V13.036C138.356 12.728 138.673 12.4947 139.037 12.336C139.401 12.168 139.793 12.084 140.213 12.084C140.82 12.084 141.361 12.2427 141.837 12.56C142.322 12.868 142.705 13.288 142.985 13.82C143.274 14.3427 143.419 14.9353 143.419 15.598C143.419 16.2513 143.279 16.844 142.999 17.376C142.719 17.8987 142.341 18.3187 141.865 18.636C141.398 18.944 140.866 19.098 140.269 19.098C139.821 19.098 139.41 19.014 139.037 18.846C138.664 18.6687 138.346 18.4167 138.085 18.09V19H137.063ZM140.017 18.202C140.474 18.202 140.88 18.09 141.235 17.866C141.599 17.6327 141.884 17.32 142.089 16.928C142.304 16.5267 142.411 16.0787 142.411 15.584C142.411 15.08 142.304 14.632 142.089 14.24C141.884 13.848 141.599 13.54 141.235 13.316C140.88 13.092 140.474 12.98 140.017 12.98C139.634 12.98 139.27 13.064 138.925 13.232C138.589 13.3907 138.309 13.6147 138.085 13.904V17.292C138.3 17.5813 138.575 17.8053 138.911 17.964C139.247 18.1227 139.616 18.202 140.017 18.202Z" fill="white"/>
</svg>
