<svg xmlns="http://www.w3.org/2000/svg" width="640" height="208" viewBox="0 0 640 208"><defs><style>.a{fill:#151515;}.b,.d,.e,.j{fill:none;}.c{fill:#fff;}.d,.e{stroke:#fff;stroke-linecap:round;}.d{stroke-miterlimit:10;stroke-width:1.4px;}.f{fill:#e00;}.g{fill:#51a549;}.h{fill:#9bd917;}.i,.k{fill:#ec861b;}.j{stroke:#ff40ff;}.j,.k{opacity:0.5;}.l{fill:#1b8793;}.m{stroke:none;}</style></defs><g transform="translate(-360 -7298)"><g transform="translate(0 7213)"><rect class="a" width="360" height="72" transform="translate(360 221)"/><g transform="translate(659 239)"><g transform="translate(0 22)"><rect class="b" width="33" height="18"/><path class="c" d="M1.068,0H6.732V-.816H1.992V-8.4H1.068ZM7.56-2.928A2.9,2.9,0,0,0,10.4.12a2.9,2.9,0,0,0,2.868-3.048A2.884,2.884,0,0,0,10.4-5.952,2.879,2.879,0,0,0,7.56-2.928Zm4.836.012A2.067,2.067,0,0,1,10.4-.66,2.057,2.057,0,0,1,8.436-2.916,2.075,2.075,0,0,1,10.4-5.184,2.078,2.078,0,0,1,12.4-2.916Zm4.812,3a2.365,2.365,0,0,0,1.86-.852v.96c0,.984-.576,1.5-1.632,1.5a3.813,3.813,0,0,1-1.86-.54l-.372.672a4.558,4.558,0,0,0,2.28.612c1.584,0,2.46-.792,2.46-2.256V-5.856H19.08v.744a2.417,2.417,0,0,0-1.824-.816A2.853,2.853,0,0,0,14.5-2.916,2.835,2.835,0,0,0,17.208.084ZM15.372-2.928a2.081,2.081,0,0,1,2.04-2.232,2.11,2.11,0,0,1,1.656.78v2.916a2.023,2.023,0,0,1-1.656.78A2.092,2.092,0,0,1,15.372-2.928Zm9.54-4.4a.622.622,0,0,0,.624-.636.62.62,0,0,0-.624-.624.62.62,0,0,0-.624.624A.622.622,0,0,0,24.912-7.332Zm.432,1.476h-.876V0h.876ZM27.084,0h.876V-4.32a1.74,1.74,0,0,1,1.536-.9,1.518,1.518,0,0,1,1.572,1.68V0h.876V-3.792a2.041,2.041,0,0,0-2.112-2.16A2.11,2.11,0,0,0,27.96-4.9v-.96h-.876Z" transform="translate(0 13)"/></g><g transform="translate(8)"><path class="d" d="M0,18a9,9,0,1,1,18,0"/><circle class="d" cx="4.5" cy="4.5" r="4.5" transform="translate(4.5)"/></g></g><g transform="translate(605 239)"><g transform="translate(0 22)"><rect class="b" width="30" height="18"/><path class="c" d="M5.16-.6,8.376-7.308V0h.876V-8.4H7.968L5.16-2.424,2.352-8.4H1.068V0h.864V-7.332Zm5.784-2.328a2.93,2.93,0,0,0,2.9,3.036,3.373,3.373,0,0,0,2.2-.78l-.552-.6a2.393,2.393,0,0,1-1.608.6,2.108,2.108,0,0,1-2.076-2.076h4.6V-3a2.774,2.774,0,0,0-2.688-2.952A2.859,2.859,0,0,0,10.944-2.928ZM13.7-5.184A1.929,1.929,0,0,1,15.528-3.36h-3.7A1.936,1.936,0,0,1,13.7-5.184ZM17.844,0h.876V-4.32a1.74,1.74,0,0,1,1.536-.9,1.518,1.518,0,0,1,1.572,1.68V0H22.7V-3.792a2.041,2.041,0,0,0-2.112-2.16A2.11,2.11,0,0,0,18.72-4.9v-.96h-.876Zm7.4-5.856h-.876v3.792A2.041,2.041,0,0,0,26.484.1,2.11,2.11,0,0,0,28.356-.96V0h.876V-5.856h-.876v4.32a1.74,1.74,0,0,1-1.536.9,1.518,1.518,0,0,1-1.572-1.68Z" transform="translate(0 13)"/></g><g transform="translate(6)"><rect class="b" width="18" height="18"/><line class="e" x2="18" transform="translate(0 16)"/><line class="e" x2="18" transform="translate(0 9)"/><line class="e" x2="18" transform="translate(0 2)"/></g></g><g transform="translate(380 241)"><path class="c" d="M304.6,45.822c0,2.644,1.6,3.933,4.489,3.933a11.864,11.864,0,0,0,2.644-.378V46.311a5.616,5.616,0,0,1-1.711.267c-1.2,0-1.644-.378-1.644-1.489V40.378h3.467V37.222h-3.467v-4l-3.778.822v3.178h-2.511v3.156h2.489v5.444Zm-11.778.067c0-.822.822-1.222,2.067-1.222a8.522,8.522,0,0,1,2.244.289v1.6a4.628,4.628,0,0,1-2.356.578c-1.222,0-1.956-.467-1.956-1.244m1.156,3.911a5.931,5.931,0,0,0,3.422-.956V49.6h3.733V41.667c0-3.022-2.022-4.667-5.422-4.667a13.842,13.842,0,0,0-5.778,1.356l1.356,2.778a10.232,10.232,0,0,1,3.733-.978c1.556,0,2.356.6,2.356,1.844v.6a10.872,10.872,0,0,0-2.8-.356c-3.178,0-5.089,1.333-5.089,3.711,0,2.178,1.733,3.844,4.489,3.844m-20.533-.2h4.022V43.178H284.2v6.4h4.022V33.222H284.2v6.289h-6.733V33.222h-4.022Zm-15.311-6.2a3.128,3.128,0,0,1,3.244-3.133,3.937,3.937,0,0,1,2.622.956v4.333a3.693,3.693,0,0,1-2.622,1,3.174,3.174,0,0,1-3.244-3.156m5.911,6.2h3.733V32.4L264,33.222v4.644a6.368,6.368,0,1,0-3.378,11.867h.111a5.658,5.658,0,0,0,3.311-1.067Zm-17.156-9.511a2.747,2.747,0,0,1,2.6,1.956h-5.156a2.568,2.568,0,0,1,2.556-1.956m-6.378,3.333a6.481,6.481,0,0,0,6.733,6.4,7.35,7.35,0,0,0,5.156-1.867l-2.511-2.222a3.352,3.352,0,0,1-2.467.933,3.194,3.194,0,0,1-3.044-1.956h8.8v-.933c0-3.933-2.644-6.756-6.244-6.756a6.351,6.351,0,0,0-6.444,6.244.329.329,0,0,1,.022.156M234,36.667a1.859,1.859,0,1,1,0,3.689h-3.978V36.667Zm-8,12.911h4.022V43.622h3.067l3.089,5.956h4.489l-3.6-6.556a4.96,4.96,0,0,0,3.089-4.6c0-2.933-2.311-5.222-5.778-5.222H226Z" transform="translate(-175.889 -25.311)"/><path class="f" d="M28.722,18.944c2.778,0,6.8-.578,6.8-3.889a4.341,4.341,0,0,0-.067-.756L33.811,7.1c-.378-1.578-.711-2.311-3.489-3.689C28.167,2.3,23.478.5,22.078.5c-1.311,0-1.689,1.667-3.222,1.667-1.489,0-2.578-1.244-3.978-1.244-1.333,0-2.2.911-2.867,2.778,0,0-1.867,5.267-2.111,6.044a1.367,1.367,0,0,0-.044.422c-.022,2.044,8.044,8.756,18.867,8.778m7.222-2.533a11.462,11.462,0,0,1,.378,2.244c0,3.111-3.489,4.844-8.089,4.844-10.4,0-19.489-6.089-19.489-10.111a4.077,4.077,0,0,1,.333-1.622C5.344,11.944.5,12.611.5,16.878c0,7,16.578,15.622,29.689,15.622,10.067,0,12.6-4.556,12.6-8.156,0-2.822-2.444-6.022-6.844-7.933" transform="translate(-0.5 -0.5)"/><path d="M64.8,48.767a11.462,11.462,0,0,1,.378,2.244c0,3.111-3.489,4.844-8.089,4.844-10.4,0-19.489-6.089-19.489-10.111a4.077,4.077,0,0,1,.333-1.622l.822-2.022a1.367,1.367,0,0,0-.044.422c0,2.044,8.067,8.756,18.867,8.756,2.778,0,6.8-.578,6.8-3.889a4.34,4.34,0,0,0-.067-.756Z" transform="translate(-29.356 -32.856)"/></g><g transform="translate(360 221)"><g transform="translate(344)"><rect class="g" width="16" height="72"/></g><g transform="translate(233 56)"><rect class="g" width="111" height="16"/></g><g transform="translate(336 16)"><rect class="h" width="8" height="40"/></g><rect class="i" width="4" height="40" transform="translate(332 16)"/><g class="j" transform="translate(299 16)"><rect class="m" width="33" height="40"/><rect class="b" x="0.5" y="0.5" width="32" height="39"/></g><rect class="k" width="33" height="4" transform="translate(299 36)"/><g transform="translate(275 16)"><rect class="l" width="24" height="40"/></g><g class="j" transform="translate(245 16)"><rect class="m" width="30" height="40"/><rect class="b" x="0.5" y="0.5" width="29" height="39"/></g><rect class="k" width="30" height="4" transform="translate(245 36)"/><rect class="i" width="4" height="40" transform="translate(241 16)"/><g transform="translate(233 16)"><rect class="h" width="8" height="40"/></g><g transform="translate(233)"><rect class="g" width="111" height="16"/></g><g transform="translate(16 56)"><rect class="g" width="140" height="16"/></g><rect class="i" width="140" height="4" transform="translate(16 52)"/><g class="j" transform="translate(20 20)"><rect class="m" width="136" height="32"/><rect class="b" x="0.5" y="0.5" width="135" height="31"/></g><rect class="i" width="4" height="32" transform="translate(16 20)"/><rect class="i" width="140" height="4" transform="translate(16 16)"/><g transform="translate(16)"><rect class="g" width="140" height="16"/></g><rect class="g" width="16" height="72"/></g></g><g transform="translate(0 7077)"><rect class="a" width="640" height="72" transform="translate(360 221)"/><g transform="translate(-185 5)"><g transform="translate(0 -5)"><rect class="b" width="33" height="18" transform="translate(1124 261)"/><path class="c" d="M1.068,0H6.732V-.816H1.992V-8.4H1.068ZM7.56-2.928A2.9,2.9,0,0,0,10.4.12a2.9,2.9,0,0,0,2.868-3.048A2.884,2.884,0,0,0,10.4-5.952,2.879,2.879,0,0,0,7.56-2.928Zm4.836.012A2.067,2.067,0,0,1,10.4-.66,2.057,2.057,0,0,1,8.436-2.916,2.075,2.075,0,0,1,10.4-5.184,2.078,2.078,0,0,1,12.4-2.916Zm4.812,3a2.365,2.365,0,0,0,1.86-.852v.96c0,.984-.576,1.5-1.632,1.5a3.813,3.813,0,0,1-1.86-.54l-.372.672a4.558,4.558,0,0,0,2.28.612c1.584,0,2.46-.792,2.46-2.256V-5.856H19.08v.744a2.417,2.417,0,0,0-1.824-.816A2.853,2.853,0,0,0,14.5-2.916,2.835,2.835,0,0,0,17.208.084ZM15.372-2.928a2.081,2.081,0,0,1,2.04-2.232,2.11,2.11,0,0,1,1.656.78v2.916a2.023,2.023,0,0,1-1.656.78A2.092,2.092,0,0,1,15.372-2.928Zm9.54-4.4a.622.622,0,0,0,.624-.636.62.62,0,0,0-.624-.624.62.62,0,0,0-.624.624A.622.622,0,0,0,24.912-7.332Zm.432,1.476h-.876V0h.876ZM27.084,0h.876V-4.32a1.74,1.74,0,0,1,1.536-.9,1.518,1.518,0,0,1,1.572,1.68V0h.876V-3.792a2.041,2.041,0,0,0-2.112-2.16A2.11,2.11,0,0,0,27.96-4.9v-.96h-.876Z" transform="translate(1124 274)"/></g><g transform="translate(1132 234)"><path class="d" d="M0,18a9,9,0,1,1,18,0"/><circle class="d" cx="4.5" cy="4.5" r="4.5" transform="translate(4.5)"/></g></g><g transform="translate(-239 5)"><g transform="translate(0 -5)"><rect class="b" width="30" height="18" transform="translate(1124 261)"/><path class="c" d="M5.16-.6,8.376-7.308V0h.876V-8.4H7.968L5.16-2.424,2.352-8.4H1.068V0h.864V-7.332Zm5.784-2.328a2.93,2.93,0,0,0,2.9,3.036,3.373,3.373,0,0,0,2.2-.78l-.552-.6a2.393,2.393,0,0,1-1.608.6,2.108,2.108,0,0,1-2.076-2.076h4.6V-3a2.774,2.774,0,0,0-2.688-2.952A2.859,2.859,0,0,0,10.944-2.928ZM13.7-5.184A1.929,1.929,0,0,1,15.528-3.36h-3.7A1.936,1.936,0,0,1,13.7-5.184ZM17.844,0h.876V-4.32a1.74,1.74,0,0,1,1.536-.9,1.518,1.518,0,0,1,1.572,1.68V0H22.7V-3.792a2.041,2.041,0,0,0-2.112-2.16A2.11,2.11,0,0,0,18.72-4.9v-.96h-.876Zm7.4-5.856h-.876v3.792A2.041,2.041,0,0,0,26.484.1,2.11,2.11,0,0,0,28.356-.96V0h.876V-5.856h-.876v4.32a1.74,1.74,0,0,1-1.536.9,1.518,1.518,0,0,1-1.572-1.68Z" transform="translate(1124 274)"/></g><g transform="translate(562 -13)"><rect class="b" width="18" height="18" transform="translate(568 247)"/><line class="e" x2="18" transform="translate(568 263)"/><line class="e" x2="18" transform="translate(568 256)"/><line class="e" x2="18" transform="translate(568 249)"/></g></g><g transform="translate(379.5 240.5)"><path class="c" d="M304.6,45.822c0,2.644,1.6,3.933,4.489,3.933a11.864,11.864,0,0,0,2.644-.378V46.311a5.616,5.616,0,0,1-1.711.267c-1.2,0-1.644-.378-1.644-1.489V40.378h3.467V37.222h-3.467v-4l-3.778.822v3.178h-2.511v3.156h2.489v5.444Zm-11.778.067c0-.822.822-1.222,2.067-1.222a8.522,8.522,0,0,1,2.244.289v1.6a4.628,4.628,0,0,1-2.356.578c-1.222,0-1.956-.467-1.956-1.244m1.156,3.911a5.931,5.931,0,0,0,3.422-.956V49.6h3.733V41.667c0-3.022-2.022-4.667-5.422-4.667a13.842,13.842,0,0,0-5.778,1.356l1.356,2.778a10.232,10.232,0,0,1,3.733-.978c1.556,0,2.356.6,2.356,1.844v.6a10.872,10.872,0,0,0-2.8-.356c-3.178,0-5.089,1.333-5.089,3.711,0,2.178,1.733,3.844,4.489,3.844m-20.533-.2h4.022V43.178H284.2v6.4h4.022V33.222H284.2v6.289h-6.733V33.222h-4.022Zm-15.311-6.2a3.128,3.128,0,0,1,3.244-3.133,3.937,3.937,0,0,1,2.622.956v4.333a3.693,3.693,0,0,1-2.622,1,3.174,3.174,0,0,1-3.244-3.156m5.911,6.2h3.733V32.4L264,33.222v4.644a6.368,6.368,0,1,0-3.378,11.867h.111a5.658,5.658,0,0,0,3.311-1.067Zm-17.156-9.511a2.747,2.747,0,0,1,2.6,1.956h-5.156a2.568,2.568,0,0,1,2.556-1.956m-6.378,3.333a6.481,6.481,0,0,0,6.733,6.4,7.35,7.35,0,0,0,5.156-1.867l-2.511-2.222a3.352,3.352,0,0,1-2.467.933,3.194,3.194,0,0,1-3.044-1.956h8.8v-.933c0-3.933-2.644-6.756-6.244-6.756a6.351,6.351,0,0,0-6.444,6.244.329.329,0,0,1,.022.156M234,36.667a1.859,1.859,0,1,1,0,3.689h-3.978V36.667Zm-8,12.911h4.022V43.622h3.067l3.089,5.956h4.489l-3.6-6.556a4.96,4.96,0,0,0,3.089-4.6c0-2.933-2.311-5.222-5.778-5.222H226Z" transform="translate(-175.389 -24.811)"/><path class="f" d="M28.722,18.944c2.778,0,6.8-.578,6.8-3.889a4.341,4.341,0,0,0-.067-.756L33.811,7.1c-.378-1.578-.711-2.311-3.489-3.689C28.167,2.3,23.478.5,22.078.5c-1.311,0-1.689,1.667-3.222,1.667-1.489,0-2.578-1.244-3.978-1.244-1.333,0-2.2.911-2.867,2.778,0,0-1.867,5.267-2.111,6.044a1.367,1.367,0,0,0-.044.422c-.022,2.044,8.044,8.756,18.867,8.778m7.222-2.533a11.462,11.462,0,0,1,.378,2.244c0,3.111-3.489,4.844-8.089,4.844-10.4,0-19.489-6.089-19.489-10.111a4.077,4.077,0,0,1,.333-1.622C5.344,11.944.5,12.611.5,16.878c0,7,16.578,15.622,29.689,15.622,10.067,0,12.6-4.556,12.6-8.156,0-2.822-2.444-6.022-6.844-7.933"/><path d="M64.8,48.767a11.462,11.462,0,0,1,.378,2.244c0,3.111-3.489,4.844-8.089,4.844-10.4,0-19.489-6.089-19.489-10.111a4.077,4.077,0,0,1,.333-1.622l.822-2.022a1.367,1.367,0,0,0-.044.422c0,2.044,8.067,8.756,18.867,8.756,2.778,0,6.8-.578,6.8-3.889a4.34,4.34,0,0,0-.067-.756Z" transform="translate(-28.856 -32.356)"/></g><g transform="translate(0 -4996)"><g transform="translate(984 5217)"><rect class="g" width="16" height="72"/></g><g transform="translate(873 5273)"><rect class="g" width="111" height="16"/></g><g transform="translate(976 5233)"><rect class="h" width="8" height="40"/></g><rect class="i" width="4" height="40" transform="translate(972 5233)"/><g class="j" transform="translate(939 5233)"><rect class="m" width="33" height="40"/><rect class="b" x="0.5" y="0.5" width="32" height="39"/></g><rect class="k" width="33" height="4" transform="translate(939 5253)"/><g transform="translate(915 5233)"><rect class="l" width="24" height="40"/></g><g class="j" transform="translate(885 5233)"><rect class="m" width="30" height="40"/><rect class="b" x="0.5" y="0.5" width="29" height="39"/></g><rect class="k" width="30" height="4" transform="translate(885 5253)"/><rect class="i" width="4" height="40" transform="translate(881 5233)"/><g transform="translate(873 5233)"><rect class="h" width="8" height="40"/></g><g transform="translate(873 5217)"><rect class="g" width="111" height="16"/></g><g transform="translate(376 5273)"><rect class="g" width="140" height="16"/></g><rect class="i" width="140" height="4" transform="translate(376 5269)"/><g class="j" transform="translate(380 5237)"><rect class="m" width="136" height="32"/><rect class="b" x="0.5" y="0.5" width="135" height="31"/></g><rect class="i" width="4" height="32" transform="translate(376 5237)"/><rect class="i" width="140" height="4" transform="translate(376 5233)"/><g transform="translate(376 5217)"><rect class="g" width="140" height="16"/></g><g transform="translate(360 5217)"><rect class="g" width="16" height="72"/></g></g></g></g></svg>