<svg xmlns="http://www.w3.org/2000/svg" width="1000" height="208" viewBox="0 0 1000 208"><g transform="translate(-360 -1025)"><g transform="translate(0 940)"><rect width="1000" height="72" transform="translate(360 221)" fill="#151515"/><g transform="translate(133 5)"><g transform="translate(0 -5)"><rect width="59" height="18" transform="translate(1124 261)" fill="none"/><text transform="translate(1124 274)" fill="#fff" font-size="12" font-family="RedHatText, RedHatText"><tspan x="0" y="0">All Red Hat</tspan></text></g><path d="M18,16.5A1.5,1.5,0,1,1,16.5,15,1.538,1.538,0,0,1,18,16.5ZM9,15a1.5,1.5,0,1,0,1.5,1.5A1.538,1.538,0,0,0,9,15ZM1.5,15a1.5,1.5,0,0,0,0,3,1.5,1.5,0,0,0,0-3Zm15-7.5A1.5,1.5,0,1,0,18,9,1.538,1.538,0,0,0,16.5,7.5ZM9,7.5A1.5,1.5,0,1,0,10.5,9,1.538,1.538,0,0,0,9,7.5Zm-7.5,0a1.5,1.5,0,0,0,0,3,1.5,1.5,0,0,0,0-3ZM16.5,0A1.538,1.538,0,0,0,15,1.5a1.5,1.5,0,0,0,3,0A1.538,1.538,0,0,0,16.5,0ZM9,0A1.538,1.538,0,0,0,7.5,1.5a1.5,1.5,0,0,0,3,0A1.538,1.538,0,0,0,9,0ZM1.5,0A1.538,1.538,0,0,0,0,1.5,1.538,1.538,0,0,0,1.5,3,1.538,1.538,0,0,0,3,1.5,1.538,1.538,0,0,0,1.5,0Z" transform="translate(1145 234)" fill="#fff"/></g><text transform="translate(917 263)" fill="#fff" font-size="16" font-family="RedHatText, RedHatText"><tspan x="0" y="0">Free trial</tspan></text><text transform="translate(810 263)" fill="#fff" font-size="16" font-family="RedHatText, RedHatText"><tspan x="0" y="0">Community</tspan></text><text transform="translate(745 263)" fill="#fff" font-size="16" font-family="RedHatText, RedHatText"><tspan x="0" y="0">Learn</tspan></text><text transform="translate(656 263)" fill="#fff" font-size="16" font-family="RedHatText, RedHatText"><tspan x="0" y="0">Products</tspan></text><text transform="translate(565 263)" fill="#fff" font-size="16" font-family="RedHatText, RedHatText"><tspan x="0" y="0">Overview</tspan></text><g transform="translate(376.4 213.8)"><path d="M345.574,87.6h2.862l6.682,16.317h-2.664l-1.887-4.779H343.26l-1.918,4.779H338.8Zm4.2,9.513-2.846-7.154-2.846,7.154Zm6.743-5.069h2.329V93.23a4.829,4.829,0,0,1,3.577-1.416,4.435,4.435,0,0,1,4.642,4.643v7.458h-2.329V96.837a2.763,2.763,0,0,0-2.938-3.014,3.349,3.349,0,0,0-2.938,1.537V103.9h-2.329V92.042Zm13.364,8.8a6.242,6.242,0,0,0,3.866,1.492c1.674,0,2.846-.731,2.846-1.781,0-.837-.609-1.324-1.918-1.522l-2.146-.3c-2.359-.35-3.547-1.446-3.547-3.288,0-2.146,1.872-3.592,4.643-3.592a8.185,8.185,0,0,1,4.795,1.507l-1.187,1.537a6.571,6.571,0,0,0-3.76-1.233c-1.416,0-2.375.655-2.375,1.613,0,.868.563,1.279,1.964,1.492l2.146.3c2.359.35,3.592,1.476,3.592,3.3,0,2.131-2.146,3.729-4.962,3.729a7.85,7.85,0,0,1-5.206-1.75Zm10.442-12.162a1.439,1.439,0,0,1,1.416-1.446h0a1.447,1.447,0,1,1,.122,2.892h-.107a1.433,1.433,0,0,1-1.431-1.446Zm2.588,15.237h-2.329V92.042h2.329Zm8.661.183a5.984,5.984,0,0,1-3.592-1.187v1h-2.314V87.6L388,87.08v6.089A5.511,5.511,0,0,1,391.6,91.86a6.12,6.12,0,0,1-.03,12.238ZM388,95.315v5.358a4.383,4.383,0,0,0,3.318,1.4,4.1,4.1,0,0,0,0-8.189A4.272,4.272,0,0,0,388,95.315Zm14.156,8.6h-2.329V87.6l2.329-.518Zm8.448.213a6.112,6.112,0,0,1-6.225-6.149,5.966,5.966,0,0,1,5.952-6.1c3.273,0,5.738,2.709,5.738,6.21v.67h-9.376a4.021,4.021,0,0,0,4.018,3.41,4.621,4.621,0,0,0,3.014-1.035l1.492,1.476A7.31,7.31,0,0,1,410.6,104.128Zm-3.9-7.139h7.047a3.544,3.544,0,0,0-7.047,0Zm12.816-21.158c0,2.664,1.6,3.958,4.521,3.958a11.252,11.252,0,0,0,2.664-.381v-3.09a5.548,5.548,0,0,1-1.72.259c-1.2,0-1.644-.381-1.644-1.507V70.337h3.486V67.156h-3.486V63.122l-3.805.822v3.212h-2.527v3.181h2.527Zm-11.888.076c0-.822.822-1.233,2.07-1.233a9.55,9.55,0,0,1,2.268.289v1.6a4.994,4.994,0,0,1-2.375.594c-1.218,0-1.948-.472-1.964-1.248m1.172,3.927a5.916,5.916,0,0,0,3.44-.959v.761h3.775V71.646c0-3.044-2.055-4.7-5.464-4.7a13.736,13.736,0,0,0-5.83,1.37l1.37,2.8a10.3,10.3,0,0,1,3.775-.989c1.568,0,2.375.609,2.375,1.857v.609a10.461,10.461,0,0,0-2.831-.35c-3.212,0-5.145,1.339-5.145,3.744,0,2.192,1.75,3.866,4.536,3.851m-20.731-.2h4.064V73.168h6.789v6.469h4.064V63.122h-4.049v6.347h-6.789V63.122h-4.064Zm-15.45-6.256a3.16,3.16,0,0,1,3.273-3.166,3.859,3.859,0,0,1,2.648.974v4.353a3.685,3.685,0,0,1-2.648.989,3.176,3.176,0,0,1-3.273-3.151m5.967,6.241h3.775V62.3l-3.805.822V67.81a6.434,6.434,0,1,0-3.41,11.994h.107a5.742,5.742,0,0,0,3.349-1.081l-.015.9Zm-17.307-9.574a2.754,2.754,0,0,1,2.618,1.979h-5.206a2.589,2.589,0,0,1,2.588-1.979M354.843,73.4a6.549,6.549,0,0,0,6.789,6.469,7.5,7.5,0,0,0,5.221-1.887l-2.527-2.238a3.4,3.4,0,0,1-2.5.944,3.239,3.239,0,0,1-3.075-1.979h8.889v-.944c0-3.958-2.664-6.819-6.3-6.819a6.4,6.4,0,0,0-6.5,6.317V73.4m-6.591-6.8a1.871,1.871,0,1,1,0,3.714h-4V66.592Zm-8.067,13.045h4.064V73.625h3.09l3.12,6.012h4.521l-3.638-6.606a4.966,4.966,0,0,0,3.105-4.643c0-2.968-2.329-5.251-5.83-5.251H340.2Z" transform="translate(-274.005 -39.931)" fill="#fff"/><path d="M44.094,33.816c2.8,0,6.865-.578,6.865-3.912a2.539,2.539,0,0,0-.076-.761l-1.674-7.261c-.381-1.6-.731-2.314-3.531-3.729C43.5,17.042,38.752,15.2,37.351,15.2c-1.309,0-1.69,1.69-3.242,1.69-1.492,0-2.6-1.263-4.018-1.263-1.339,0-2.222.913-2.892,2.8,0,0-1.887,5.312-2.131,6.089a1.407,1.407,0,0,0-.061.441c.03,2.07,8.174,8.859,19.088,8.859M51.4,31.258a11.4,11.4,0,0,1,.381,2.268c0,3.136-3.531,4.886-8.174,4.886-10.5,0-19.681-6.134-19.681-10.2a4.346,4.346,0,0,1,.335-1.644c-3.775.2-8.661.868-8.661,5.175C15.6,38.808,32.328,47.5,45.571,47.5c10.153,0,12.71-4.6,12.71-8.22.015-2.862-2.451-6.089-6.88-8.022" transform="translate(0 0)" fill="#e00"/><path d="M97.674,83.313a11.4,11.4,0,0,1,.381,2.268c0,3.136-3.531,4.886-8.174,4.886-10.5,0-19.681-6.134-19.681-10.2a4.346,4.346,0,0,1,.335-1.644l.822-2.024a1.375,1.375,0,0,0-.061.426c0,2.07,8.143,8.844,19.057,8.844,2.8,0,6.865-.578,6.865-3.912a2.539,2.539,0,0,0-.076-.761Z" transform="translate(-46.289 -52.054)"/></g></g><g transform="translate(0 804)"><rect width="1000" height="72" transform="translate(360 221)" fill="#151515"/><g transform="translate(159 5)"><g transform="translate(0 -5)"><rect width="33" height="18" transform="translate(1124 261)" fill="none"/><text transform="translate(1124 274)" fill="#fff" font-size="12" font-family="RedHatText, RedHatText"><tspan x="0" y="0">Log in</tspan></text></g><g transform="translate(1132 234)"><path d="M0,18a9,9,0,0,1,18,0" fill="none" stroke="#fff" stroke-linecap="round" stroke-miterlimit="10" stroke-width="1.4"/><circle cx="4.5" cy="4.5" r="4.5" transform="translate(4.5)" fill="none" stroke="#fff" stroke-linecap="round" stroke-miterlimit="10" stroke-width="1.4"/></g></g><g transform="translate(76 5)"><g transform="translate(0 -5)"><rect width="59" height="18" transform="translate(1124 261)" fill="none"/><text transform="translate(1124 274)" fill="#fff" font-size="12" font-family="RedHatText, RedHatText"><tspan x="0" y="0">All Red Hat</tspan></text></g><path d="M18,16.5A1.5,1.5,0,1,1,16.5,15,1.538,1.538,0,0,1,18,16.5ZM9,15a1.5,1.5,0,1,0,1.5,1.5A1.538,1.538,0,0,0,9,15ZM1.5,15a1.5,1.5,0,0,0,0,3,1.5,1.5,0,0,0,0-3Zm15-7.5A1.5,1.5,0,1,0,18,9,1.538,1.538,0,0,0,16.5,7.5ZM9,7.5A1.5,1.5,0,1,0,10.5,9,1.538,1.538,0,0,0,9,7.5Zm-7.5,0a1.5,1.5,0,0,0,0,3,1.5,1.5,0,0,0,0-3ZM16.5,0A1.538,1.538,0,0,0,15,1.5a1.5,1.5,0,0,0,3,0A1.538,1.538,0,0,0,16.5,0ZM9,0A1.538,1.538,0,0,0,7.5,1.5a1.5,1.5,0,0,0,3,0A1.538,1.538,0,0,0,9,0ZM1.5,0A1.538,1.538,0,0,0,0,1.5,1.538,1.538,0,0,0,1.5,3,1.538,1.538,0,0,0,3,1.5,1.538,1.538,0,0,0,1.5,0Z" transform="translate(1145 234)" fill="#fff"/></g><text transform="translate(923 263)" fill="#fff" font-size="16" font-family="RedHatText, RedHatText"><tspan x="0" y="0">Free trial</tspan></text><text transform="translate(841 263)" fill="#fff" font-size="16" font-family="RedHatText, RedHatText"><tspan x="0" y="0">Support</tspan></text><text transform="translate(734 263)" fill="#fff" font-size="16" font-family="RedHatText, RedHatText"><tspan x="0" y="0">Community</tspan></text><text transform="translate(669 263)" fill="#fff" font-size="16" font-family="RedHatText, RedHatText"><tspan x="0" y="0">Learn</tspan></text><text transform="translate(580 263)" fill="#fff" font-size="16" font-family="RedHatText, RedHatText"><tspan x="0" y="0">Products</tspan></text><g transform="translate(390 228)"><path d="M233.584,73.744a8.01,8.01,0,1,1,8.105-8A7.967,7.967,0,0,1,233.584,73.744Zm0-13.864a5.857,5.857,0,1,0,5.716,5.866A5.681,5.681,0,0,0,233.584,59.88ZM243.908,62.2h2.176v1.088a5.157,5.157,0,0,1,3.455-1.258,5.691,5.691,0,0,1,5.7,5.8,5.739,5.739,0,0,1-9.129,4.735V78.1h-2.218Zm2.2,3.114v5.1a4.123,4.123,0,0,0,3.157,1.322,3.893,3.893,0,0,0,0-7.785A4.074,4.074,0,0,0,246.1,65.319ZM262.827,73.7a5.819,5.819,0,0,1-5.93-5.844,5.656,5.656,0,0,1,5.652-5.8,5.6,5.6,0,0,1,5.461,5.908v.64h-8.916a3.818,3.818,0,0,0,3.818,3.242,4.353,4.353,0,0,0,2.858-.981l1.429,1.408A7.162,7.162,0,0,1,262.827,73.7Zm-3.711-6.8h6.7a3.493,3.493,0,0,0-3.306-3.008A3.452,3.452,0,0,0,259.116,66.9ZM270.122,62.2h2.218v1.13a4.7,4.7,0,0,1,3.391-1.365,4.21,4.21,0,0,1,4.415,4.415v7.1h-2.218V66.77a2.627,2.627,0,0,0-2.794-2.858,3.141,3.141,0,0,0-2.794,1.472V73.51h-2.218Zm12.862,7.082a7.477,7.477,0,0,0,5.354,2.432c2.24,0,3.775-1.066,3.775-2.6,0-1.365-.9-2.069-3.157-2.432l-2.6-.427c-2.837-.469-4.245-1.792-4.245-4.031,0-2.709,2.261-4.458,5.716-4.458a10.32,10.32,0,0,1,6.25,2.112l-1.28,1.77a8.271,8.271,0,0,0-5.077-1.9c-2.026,0-3.37.939-3.37,2.3,0,1.258.768,1.856,2.773,2.2l2.5.384c3.285.533,4.778,1.877,4.778,4.309,0,2.858-2.5,4.778-6.186,4.778a9.31,9.31,0,0,1-6.655-2.794Zm13.31-11.326,2.218-.491v5.866A4.7,4.7,0,0,1,301.9,61.97a4.21,4.21,0,0,1,4.415,4.415v7.1H304.1V66.77a2.627,2.627,0,0,0-2.794-2.858,3.165,3.165,0,0,0-2.794,1.472V73.51h-2.218Zm12.329,1.045a1.356,1.356,0,0,1,1.344-1.365h0a1.376,1.376,0,1,1-1.344,1.365ZM311.1,73.488h-2.218V62.2H311.1ZM315.385,62.2V60.5c0-2.346,1.344-3.647,3.839-3.647a6.834,6.834,0,0,1,1.6.192v1.941a3.83,3.83,0,0,0-1.386-.192c-1.216,0-1.813.555-1.813,1.749V62.2h3.221v1.856h-3.221v9.428h-2.218V64.061h-2.624V62.184h2.6Zm8.809,1.856H321.8V62.2h2.389v-2.88l2.2-.533V62.2h3.327v1.856h-3.327v6.122c0,1.152.469,1.578,1.664,1.578a4.611,4.611,0,0,0,1.621-.256V73.36a7.806,7.806,0,0,1-2.112.341c-2.2,0-3.37-1.045-3.37-2.986ZM301.371,46.783c0,2.538,1.536,3.775,4.309,3.775a11.388,11.388,0,0,0,2.538-.363V47.253a5.39,5.39,0,0,1-1.642.256c-1.152,0-1.578-.363-1.578-1.429V41.557h3.327V38.529H305V34.689l-3.626.789v3.05h-2.389v3.029h2.389Zm-11.3.064c0-.789.789-1.173,1.984-1.173a8.18,8.18,0,0,1,2.154.277v1.536a4.39,4.39,0,0,1-2.261.555c-1.173,0-1.856-.448-1.877-1.194M291.2,50.6a5.693,5.693,0,0,0,3.285-.917v.725h3.583V42.795c0-2.9-1.941-4.479-5.2-4.479a13.286,13.286,0,0,0-5.546,1.3l1.3,2.666a9.821,9.821,0,0,1,3.583-.939c1.493,0,2.261.576,2.261,1.77v.576a10.435,10.435,0,0,0-2.688-.341c-3.05,0-4.885,1.28-4.885,3.562,0,2.112,1.642,3.69,4.309,3.69m-19.73-.192h3.861V44.245h6.463v6.143h3.861v-15.7H281.79v6.036h-6.463V34.689h-3.861Zm-14.7-5.951a3,3,0,0,1,3.114-3.008,3.674,3.674,0,0,1,2.517.917v4.138a3.436,3.436,0,0,1-2.517.939,3.011,3.011,0,0,1-3.114-2.986m5.674,5.93h3.583V33.9l-3.626.789v4.458a6.113,6.113,0,1,0-3.242,11.39h.107a5.43,5.43,0,0,0,3.178-1.024v.875ZM245.977,41.28a2.637,2.637,0,0,1,2.5,1.877h-4.949a2.482,2.482,0,0,1,2.453-1.877m-6.122,3.2a6.221,6.221,0,0,0,6.463,6.143,7.055,7.055,0,0,0,4.949-1.792l-2.41-2.133a3.217,3.217,0,0,1-2.368.9,3.066,3.066,0,0,1-2.922-1.877h8.447v-.9c0-3.775-2.538-6.484-5.994-6.484a6.1,6.1,0,0,0-6.186,5.994.316.316,0,0,1,.021.149M233.605,38a1.784,1.784,0,1,1,0,3.541h-3.818V38Zm-7.679,12.393h3.861V44.672h2.944l2.965,5.716H240L236.549,44.1a4.76,4.76,0,0,0,2.965-4.415c0-2.816-2.218-5.013-5.546-5.013h-8.02Z" transform="translate(-175.827 -25.096)" fill="#fff"/><path d="M29.089,19.7c2.666,0,6.527-.555,6.527-3.733a4.166,4.166,0,0,0-.064-.725L33.974,8.335c-.363-1.514-.683-2.218-3.349-3.541C28.535,3.749,24.034,2,22.69,2c-1.237,0-1.621,1.6-3.072,1.6-1.429,0-2.474-1.194-3.818-1.194-1.28,0-2.112.875-2.752,2.666,0,0-1.792,5.055-2.026,5.8a.882.882,0,0,0-.043.405C10.959,13.262,18.7,19.7,29.089,19.7m6.954-2.432a11,11,0,0,1,.363,2.154c0,2.986-3.349,4.65-7.764,4.65-10,0-18.728-5.844-18.728-9.705a3.913,3.913,0,0,1,.32-1.557C6.65,12.985,2,13.625,2,17.72c0,6.719,15.912,14.995,28.5,14.995,9.662,0,12.094-4.373,12.094-7.828,0-2.709-2.346-5.78-6.548-7.615" fill="#e00"/><path d="M65.208,50a11,11,0,0,1,.363,2.154c0,2.986-3.349,4.65-7.764,4.65C47.824,56.8,39.1,50.959,39.1,47.1a3.913,3.913,0,0,1,.32-1.557l.789-1.941a.882.882,0,0,0-.043.405c-.021,1.984,7.721,8.425,18.109,8.425,2.666,0,6.527-.555,6.527-3.733a4.165,4.165,0,0,0-.064-.725Z" transform="translate(-29.187 -32.727)"/></g></g></g></svg>