<svg xmlns="http://www.w3.org/2000/svg" width="872" height="72"><defs><filter id="a" x="662.5" y="33.5" width="21" height="26" filterUnits="userSpaceOnUse"><feOffset dy="2"/><feGaussianBlur stdDeviation="1.5" result="b"/><feFlood flood-opacity=".251"/><feComposite operator="in" in2="b"/><feComposite in="SourceGraphic"/></filter><filter id="c" x="599.5" y="33.5" width="21" height="26" filterUnits="userSpaceOnUse"><feOffset dy="2"/><feGaussianBlur stdDeviation="1.5" result="d"/><feFlood flood-opacity=".251"/><feComposite operator="in" in2="d"/><feComposite in="SourceGraphic"/></filter><filter id="e" x="337.5" y="33.5" width="21" height="26" filterUnits="userSpaceOnUse"><feOffset dy="2"/><feGaussianBlur stdDeviation="1.5" result="f"/><feFlood flood-opacity=".251"/><feComposite operator="in" in2="f"/><feComposite in="SourceGraphic"/></filter><filter id="g" x="237.5" y="33.5" width="21" height="26" filterUnits="userSpaceOnUse"><feOffset dy="2"/><feGaussianBlur stdDeviation="1.5" result="h"/><feFlood flood-opacity=".251"/><feComposite operator="in" in2="h"/><feComposite in="SourceGraphic"/></filter><style>.a{fill:#151515}.b,.d{fill:none}.c,.j{fill:#fff}.d{stroke:#fff;stroke-miterlimit:10;stroke-linecap:round;stroke-width:1.4px}.f{fill:#e00}.h{fill:#6a6e73}.i,.j{stroke:none}</style></defs><path class="a" d="M0 0h872v72H0z"/><path class="b" d="M795 40h33v18h-33z"/><path class="c" d="M796.068 53h5.664v-.816h-4.74V44.6h-.924zm6.492-2.928a2.9 2.9 0 002.84 3.048 2.9 2.9 0 002.868-3.048 2.884 2.884 0 00-2.868-3.024 2.879 2.879 0 00-2.84 3.024zm4.836.012a2.067 2.067 0 01-1.996 2.256 2.057 2.057 0 01-1.964-2.256 2.075 2.075 0 011.964-2.268 2.078 2.078 0 012 2.268zm4.812 3a2.365 2.365 0 001.86-.852v.96c0 .984-.576 1.5-1.632 1.5a3.813 3.813 0 01-1.86-.54l-.372.672a4.558 4.558 0 002.28.612c1.584 0 2.46-.792 2.46-2.256v-6.036h-.864v.744a2.417 2.417 0 00-1.824-.816 2.853 2.853 0 00-2.756 3.012 2.835 2.835 0 002.708 3zm-1.836-3.012a2.081 2.081 0 012.04-2.232 2.11 2.11 0 011.656.78v2.916a2.023 2.023 0 01-1.656.78 2.092 2.092 0 01-2.04-2.244zm9.54-4.4a.622.622 0 00.624-.636.62.62 0 00-.624-.624.62.62 0 00-.624.624.622.622 0 00.624.632zm.432 1.476h-.876V53h.876zm1.74 5.852h.876v-4.32a1.74 1.74 0 011.536-.9 1.518 1.518 0 011.572 1.68V53h.876v-3.792a2.041 2.041 0 00-2.112-2.16 2.11 2.11 0 00-1.872 1.052v-.96h-.876z"/><g transform="translate(803 18)"><path class="d" d="M0 18a9 9 0 0118 0"/><circle class="d" cx="4.5" cy="4.5" r="4.5" transform="translate(4.5)"/></g><path class="b" d="M712 40h59v18h-59z"/><path class="c" d="M712.216 53h.96l1.008-2.64h3.732l1 2.64h1.004l-3.276-8.4h-1.104zm2.284-3.432l1.56-4.08 1.56 4.08zm7.376-5.148l-.876.18V53h.876zm2.616 0l-.876.18V53h.876zm4.74 8.58h.924v-3.588h2.508L734.368 53h1.02l-1.776-3.708a2.282 2.282 0 001.74-2.268 2.412 2.412 0 00-2.676-2.424h-3.444zm3.368-7.584a1.618 1.618 0 011.824 1.62 1.61 1.61 0 01-1.824 1.608h-2.444v-3.228zm3.58 4.656a2.93 2.93 0 002.9 3.036 3.373 3.373 0 002.2-.78l-.552-.6a2.393 2.393 0 01-1.608.6 2.108 2.108 0 01-2.076-2.076h4.6V50a2.774 2.774 0 00-2.688-2.952 2.859 2.859 0 00-2.776 3.024zm2.76-2.256a1.929 1.929 0 011.824 1.824h-3.7a1.936 1.936 0 011.876-1.824zM747.424 53h.876v-8.58l-.888.18v3.276a2.4 2.4 0 00-1.812-.8 2.853 2.853 0 00-2.76 3.012 2.835 2.835 0 002.712 3 2.354 2.354 0 001.872-.876zm-3.708-2.928a2.081 2.081 0 012.04-2.232 2.11 2.11 0 011.656.78v2.916a2.023 2.023 0 01-1.656.78 2.092 2.092 0 01-2.04-2.244zm9.3 2.928h.924v-3.816h4.824V53h.924v-8.4h-.924v3.756h-4.824V44.6h-.924zm10.284.108a2.491 2.491 0 001.86-.78V53h.864v-3.888c0-1.356-.84-2.064-2.268-2.064a4.9 4.9 0 00-2.208.564l.336.672a3.778 3.778 0 011.764-.5c.984 0 1.512.468 1.512 1.452v.792a3.512 3.512 0 00-1.776-.444c-1.272 0-2.2.648-2.2 1.728a1.888 1.888 0 002.116 1.796zm-1.272-1.808c0-.684.624-1.092 1.476-1.092a3.039 3.039 0 011.656.432v1.128a2.337 2.337 0 01-1.68.672c-.852-.004-1.452-.46-1.452-1.14zm6.2.384c0 .912.516 1.428 1.536 1.428a3.535 3.535 0 001.036-.16v-.78a2.161 2.161 0 01-.828.156c-.624 0-.864-.252-.864-.876v-3.588h1.692v-.72h-1.692v-1.692l-.876.2v1.488h-1.212v.72h1.212zM751 34.5a1.5 1.5 0 11-1.5-1.5 1.538 1.538 0 011.5 1.5zm-9-1.5a1.5 1.5 0 101.5 1.5A1.538 1.538 0 00742 33zm-7.5 0a1.5 1.5 0 000 3 1.5 1.5 0 000-3zm15-7.5A1.5 1.5 0 10751 27a1.538 1.538 0 00-1.5-1.5zm-7.5 0a1.5 1.5 0 101.5 1.5 1.538 1.538 0 00-1.5-1.5zm-7.5 0a1.5 1.5 0 000 3 1.5 1.5 0 000-3zm15-7.5a1.538 1.538 0 00-1.5 1.5 1.5 1.5 0 003 0 1.538 1.538 0 00-1.5-1.5zm-7.5 0a1.538 1.538 0 00-1.5 1.5 1.5 1.5 0 003 0A1.538 1.538 0 00742 18zm-7.5 0a1.538 1.538 0 00-1.5 1.5 1.538 1.538 0 001.5 1.5 1.538 1.538 0 001.5-1.5 1.538 1.538 0 00-1.5-1.5zM634 0h66v72h-66z"/><path class="b" d="M646 40h42v18h-42z"/><path class="a" d="M650.968 52.292a3.363 3.363 0 01-3.36-3.492 3.359 3.359 0 013.336-3.492 3.367 3.367 0 012.556 1.176l.612-.636a4.2 4.2 0 00-3.168-1.38 4.257 4.257 0 00-4.272 4.332 4.257 4.257 0 004.272 4.332 4.243 4.243 0 003.144-1.38l-.6-.612a3.291 3.291 0 01-2.52 1.152zm5.244-5.148h-.876v3.792a2.041 2.041 0 002.112 2.164 2.11 2.11 0 001.872-1.06V53h.88v-5.856h-.88v4.32a1.74 1.74 0 01-1.536.9 1.518 1.518 0 01-1.572-1.68zm5.16 5.04a3.247 3.247 0 002.388.924 2.033 2.033 0 002.268-1.808c.012-.888-.552-1.368-1.7-1.572l-.972-.18c-.72-.132-1.02-.336-1.02-.84 0-.576.54-.936 1.272-.936a2.957 2.957 0 011.812.66l.468-.6a3.644 3.644 0 00-2.244-.78c-1.236 0-2.112.72-2.112 1.716 0 .876.564 1.344 1.656 1.536l.972.168c.732.132 1.044.384 1.044.876-.004.572-.532 1.052-1.48 1.052a2.622 2.622 0 01-1.848-.768zm6.516-.5c0 .912.516 1.428 1.536 1.428a3.535 3.535 0 001.032-.156v-.78a2.161 2.161 0 01-.828.156c-.624 0-.864-.252-.864-.876v-3.592h1.692v-.72h-1.692v-1.692l-.876.2v1.488h-1.212v.72h1.212zm3.348-1.608a2.9 2.9 0 002.844 3.044 2.9 2.9 0 002.868-3.048 2.884 2.884 0 00-2.868-3.024 2.879 2.879 0 00-2.844 3.024zm4.836.012a2.067 2.067 0 01-1.992 2.252 2.057 2.057 0 01-1.968-2.256 2.075 2.075 0 011.968-2.268 2.078 2.078 0 011.992 2.268zM678.424 53h.876v-4.356a1.628 1.628 0 011.428-.864 1.455 1.455 0 011.452 1.656V53h.876v-3.78a2.429 2.429 0 00-.048-.516 1.647 1.647 0 011.464-.924c.912 0 1.44.648 1.44 1.656V53h.888v-3.78a2 2 0 00-2-2.172 2.186 2.186 0 00-1.956 1.14 1.92 1.92 0 00-1.788-1.14 2 2 0 00-1.756 1.008v-.912h-.876z"/><g transform="translate(658 18)" stroke="#151515" stroke-width="1.4" fill="none"><circle class="i" cx="9" cy="9" r="9"/><circle class="b" cx="9" cy="9" r="8.3"/></g><path class="f" d="M634 0h66v4h-66z"/><g filter="url(#a)"><path class="i" d="M667.5 51.793V37.207L677.793 47.5h-6l-.147.146-4.146 4.147z"/><path class="j" d="M668 50.586l3.293-3.293.293-.293h5L668 38.414v12.172M667 53V36l12 12h-7l-5 5z"/></g><path class="b" d="M585 40h37v18h-37z"/><path class="c" d="M585.336 51.62a4.739 4.739 0 003.432 1.5c2.064 0 3.2-1.188 3.2-2.532 0-1.236-.72-1.932-2.556-2.256l-1.34-.232c-1.032-.18-1.584-.5-1.584-1.332 0-1.044 1.008-1.5 2-1.5a4.452 4.452 0 012.8 1.02l.54-.7a5.318 5.318 0 00-3.312-1.1c-1.536.004-2.916.772-2.916 2.356 0 1.188.708 1.824 2.22 2.088l1.356.228c1.356.24 1.872.636 1.872 1.476 0 .936-.864 1.692-2.244 1.692a4.044 4.044 0 01-2.892-1.356zm7.872-1.548a2.93 2.93 0 002.9 3.036 3.373 3.373 0 002.2-.78l-.552-.6a2.393 2.393 0 01-1.608.6 2.108 2.108 0 01-2.076-2.076h4.6V50a2.774 2.774 0 00-2.692-2.952 2.859 2.859 0 00-2.772 3.024zm2.76-2.256a1.929 1.929 0 011.824 1.824H594.1a1.936 1.936 0 011.868-1.824zm5.868 5.292a2.491 2.491 0 001.86-.78V53h.864v-3.888c0-1.356-.84-2.064-2.268-2.064a4.9 4.9 0 00-2.208.564l.336.672a3.778 3.778 0 011.764-.5c.984 0 1.512.468 1.512 1.452v.792a3.512 3.512 0 00-1.776-.448c-1.272 0-2.2.648-2.2 1.728a1.888 1.888 0 002.116 1.8zm-1.272-1.808c0-.684.624-1.092 1.476-1.092a3.039 3.039 0 011.656.432v1.128a2.337 2.337 0 01-1.68.672c-.852-.004-1.452-.46-1.452-1.14zM606.3 53h.876v-4.008a1.647 1.647 0 011.572-1.192 2.076 2.076 0 01.612.108v-.788a1.723 1.723 0 00-.552-.084 1.741 1.741 0 00-1.632 1.272v-1.164h-.876zm6.444-.684a2.113 2.113 0 01-2.044-2.244 2.124 2.124 0 012.04-2.232 2.237 2.237 0 011.608.732l.564-.612a3.109 3.109 0 00-2.184-.912 2.934 2.934 0 00-2.9 3.024 2.945 2.945 0 002.9 3.036 2.966 2.966 0 002.152-.948l-.54-.54a2.093 2.093 0 01-1.596.696zm7.416.684h.876v-3.792a2.041 2.041 0 00-2.112-2.16 2.11 2.11 0 00-1.872 1.052v-3.68l-.876.18V53h.876v-4.32a1.74 1.74 0 011.536-.9 1.518 1.518 0 011.572 1.68z"/><g transform="translate(594 17)"><path class="d" d="M13 13l6 6"/><circle cx="7" cy="7" r="7" transform="translate(1 1)" stroke-width="1.4" stroke="#fff" stroke-miterlimit="10" fill="none"/></g><g filter="url(#c)"><path class="i" d="M604.5 51.793V37.207L614.793 47.5h-6l-.147.146-4.146 4.147z"/><path class="j" d="M605 50.586l3.293-3.293.293-.293h5L605 38.414v12.172M604 53V36l12 12h-7l-5 5z"/></g><path class="f" d="M573 0h61v4h-61z"/><path class="c" d="M410.88 41.2l4.288-8.944V42h1.168V30.8h-1.712l-3.744 7.968-3.744-7.968h-1.712V42h1.152v-9.776zm7.712-3.1a3.907 3.907 0 003.872 4.044 4.5 4.5 0 002.928-1.044l-.736-.8a3.191 3.191 0 01-2.144.8 2.81 2.81 0 01-2.768-2.768h6.128V38a3.7 3.7 0 00-3.584-3.936 3.812 3.812 0 00-3.696 4.036zm3.68-3.008a2.572 2.572 0 012.428 2.428h-4.924a2.581 2.581 0 012.496-2.432zm5.52 6.908h1.168v-5.76a2.32 2.32 0 012.048-1.2 2.023 2.023 0 012.1 2.24V42h1.168v-5.056a2.722 2.722 0 00-2.816-2.88 2.813 2.813 0 00-2.5 1.408v-1.28h-1.168zm9.872-7.808H436.5v5.056a2.722 2.722 0 002.812 2.88 2.813 2.813 0 002.5-1.408V42h1.168v-7.808h-1.172v5.76a2.32 2.32 0 01-2.048 1.2 2.023 2.023 0 01-2.1-2.24zm11.936-1.968a.83.83 0 00.832-.848.826.826 0 00-.832-.832.826.826 0 00-.832.832.83.83 0 00.832.848zm.576 1.968h-1.168V42h1.168zm3.264 6.048c0 1.216.688 1.9 2.048 1.9a4.713 4.713 0 001.376-.208V40.9a2.881 2.881 0 01-1.1.208c-.832 0-1.152-.336-1.152-1.168v-4.788h2.256v-.96h-2.26v-2.256l-1.168.272v1.984h-1.616v.96h1.616zm4.46-2.14a3.907 3.907 0 003.876 4.044A4.5 4.5 0 00464.7 41.1l-.736-.8a3.191 3.191 0 01-2.144.8 2.81 2.81 0 01-2.768-2.768h6.128V38a3.7 3.7 0 00-3.58-3.936 3.812 3.812 0 00-3.7 4.036zm3.68-3.008a2.572 2.572 0 012.436 2.428h-4.928a2.581 2.581 0 012.496-2.432zM467.1 42h1.168v-5.808a2.171 2.171 0 011.9-1.152 1.939 1.939 0 011.936 2.208V42h1.176v-5.04a3.239 3.239 0 00-.064-.688 2.2 2.2 0 011.952-1.232c1.216 0 1.92.864 1.92 2.208V42h1.184v-5.04a2.669 2.669 0 00-2.672-2.9 2.915 2.915 0 00-2.608 1.52 2.56 2.56 0 00-2.384-1.52 2.672 2.672 0 00-2.336 1.344v-1.212H467.1zM292 0h100v72H292z"/><path class="h" d="M342 61l-6-6h12z"/><path class="a" d="M310.88 41.2l4.288-8.944V42h1.168V30.8h-1.712l-3.744 7.968-3.744-7.968h-1.712V42h1.152v-9.776zm7.712-3.1a3.907 3.907 0 003.872 4.044 4.5 4.5 0 002.928-1.044l-.736-.8a3.191 3.191 0 01-2.144.8 2.81 2.81 0 01-2.768-2.768h6.128V38a3.7 3.7 0 00-3.584-3.936 3.812 3.812 0 00-3.696 4.036zm3.68-3.008a2.572 2.572 0 012.428 2.428h-4.924a2.581 2.581 0 012.496-2.432zm5.52 6.908h1.168v-5.76a2.32 2.32 0 012.048-1.2 2.023 2.023 0 012.1 2.24V42h1.168v-5.056a2.722 2.722 0 00-2.816-2.88 2.813 2.813 0 00-2.5 1.408v-1.28h-1.168zm9.872-7.808H336.5v5.056a2.722 2.722 0 002.812 2.88 2.813 2.813 0 002.5-1.408V42h1.168v-7.808h-1.172v5.76a2.32 2.32 0 01-2.048 1.2 2.023 2.023 0 01-2.1-2.24zm11.936-1.968a.83.83 0 00.832-.848.826.826 0 00-.832-.832.826.826 0 00-.832.832.83.83 0 00.832.848zm.576 1.968h-1.168V42h1.168zm3.264 6.048c0 1.216.688 1.9 2.048 1.9a4.713 4.713 0 001.376-.208V40.9a2.881 2.881 0 01-1.1.208c-.832 0-1.152-.336-1.152-1.168v-4.788h2.256v-.96h-2.26v-2.256l-1.168.272v1.984h-1.616v.96h1.616zm4.46-2.14a3.907 3.907 0 003.876 4.044A4.5 4.5 0 00364.7 41.1l-.736-.8a3.191 3.191 0 01-2.144.8 2.81 2.81 0 01-2.768-2.768h6.128V38a3.7 3.7 0 00-3.58-3.936 3.812 3.812 0 00-3.7 4.036zm3.68-3.008a2.572 2.572 0 012.436 2.428h-4.928a2.581 2.581 0 012.496-2.432zM367.1 42h1.168v-5.808a2.171 2.171 0 011.9-1.152 1.939 1.939 0 011.936 2.208V42h1.176v-5.04a3.239 3.239 0 00-.064-.688 2.2 2.2 0 011.952-1.232c1.216 0 1.92.864 1.92 2.208V42h1.184v-5.04a2.669 2.669 0 00-2.672-2.9 2.915 2.915 0 00-2.608 1.52 2.56 2.56 0 00-2.384-1.52 2.672 2.672 0 00-2.336 1.344v-1.212H367.1z"/><path class="f" d="M292 0h100v3H292z"/><g><g filter="url(#e)"><path class="i" d="M342.5 51.793V37.207L352.793 47.5h-6l-.147.146-4.146 4.147z"/><path class="j" d="M343 50.586l3.293-3.293.293-.293h5L343 38.414v12.172M342 53V36l12 12h-7l-5 5z"/></g></g><path class="h" d="M242 61l-6-6h12z"/><path class="c" d="M210.88 41.2l4.288-8.944V42h1.168V30.8h-1.712l-3.744 7.968-3.744-7.968h-1.712V42h1.152v-9.776zm7.712-3.1a3.907 3.907 0 003.872 4.044 4.5 4.5 0 002.928-1.044l-.736-.8a3.191 3.191 0 01-2.144.8 2.81 2.81 0 01-2.768-2.768h6.128V38a3.7 3.7 0 00-3.584-3.936 3.812 3.812 0 00-3.696 4.036zm3.68-3.008a2.572 2.572 0 012.428 2.428h-4.924a2.581 2.581 0 012.496-2.432zm5.52 6.908h1.168v-5.76a2.32 2.32 0 012.048-1.2 2.023 2.023 0 012.1 2.24V42h1.168v-5.056a2.722 2.722 0 00-2.816-2.88 2.813 2.813 0 00-2.5 1.408v-1.28h-1.168zm9.872-7.808H236.5v5.056a2.722 2.722 0 002.812 2.88 2.813 2.813 0 002.5-1.408V42h1.168v-7.808h-1.172v5.76a2.32 2.32 0 01-2.048 1.2 2.023 2.023 0 01-2.1-2.24zm11.936-1.968a.83.83 0 00.832-.848.826.826 0 00-.832-.832.826.826 0 00-.832.832.83.83 0 00.832.848zm.576 1.968h-1.168V42h1.168zm3.264 6.048c0 1.216.688 1.9 2.048 1.9a4.713 4.713 0 001.376-.208V40.9a2.881 2.881 0 01-1.1.208c-.832 0-1.152-.336-1.152-1.168v-4.788h2.256v-.96h-2.26v-2.256l-1.168.272v1.984h-1.616v.96h1.616zm4.46-2.14a3.907 3.907 0 003.876 4.044A4.5 4.5 0 00264.7 41.1l-.736-.8a3.191 3.191 0 01-2.144.8 2.81 2.81 0 01-2.768-2.768h6.128V38a3.7 3.7 0 00-3.58-3.936 3.812 3.812 0 00-3.7 4.036zm3.68-3.008a2.572 2.572 0 012.436 2.428h-4.928a2.581 2.581 0 012.496-2.432zM267.1 42h1.168v-5.808a2.171 2.171 0 011.9-1.152 1.939 1.939 0 011.936 2.208V42h1.176v-5.04a3.239 3.239 0 00-.064-.688 2.2 2.2 0 011.952-1.232c1.216 0 1.92.864 1.92 2.208V42h1.184v-5.04a2.669 2.669 0 00-2.672-2.9 2.915 2.915 0 00-2.608 1.52 2.56 2.56 0 00-2.384-1.52 2.672 2.672 0 00-2.336 1.344v-1.212H267.1z"/><g><g filter="url(#g)"><path class="i" d="M242.5 51.793V37.207L252.793 47.5h-6l-.147.146-4.146 4.147z"/><path class="j" d="M243 50.586l3.293-3.293.293-.293h5L243 38.414v12.172M242 53V36l12 12h-7l-5 5z"/></g></g><path class="f" d="M192 0h100v3H192z"/><g><path class="c" d="M160.711 40.511c0 2.644 1.6 3.933 4.489 3.933a11.863 11.863 0 002.644-.378V41a5.616 5.616 0 01-1.711.267c-1.2 0-1.644-.378-1.644-1.489v-4.711h3.467v-3.156h-3.467v-4l-3.778.822v3.178H158.2v3.156h2.489v5.444zm-11.778.067c0-.822.822-1.222 2.067-1.222a8.522 8.522 0 012.244.289v1.6a4.628 4.628 0 01-2.356.578c-1.222 0-1.956-.467-1.956-1.244m1.156 3.911a5.931 5.931 0 003.422-.956v.755h3.733v-7.933c0-3.022-2.022-4.667-5.422-4.667a13.842 13.842 0 00-5.778 1.356l1.356 2.778a10.232 10.232 0 013.733-.978c1.556 0 2.356.6 2.356 1.844v.6a10.872 10.872 0 00-2.8-.356c-3.178 0-5.089 1.333-5.089 3.711 0 2.178 1.733 3.844 4.489 3.844m-20.533-.2h4.022v-6.421h6.734v6.4h4.022V27.911h-4.022V34.2h-6.733v-6.289h-4.022zm-15.311-6.2a3.128 3.128 0 013.244-3.133 3.937 3.937 0 012.622.956v4.333a3.693 3.693 0 01-2.622 1 3.174 3.174 0 01-3.244-3.156m5.911 6.2h3.733V27.089l-3.777.822v4.644a6.368 6.368 0 10-3.378 11.867h.111a5.658 5.658 0 003.311-1.067zm-17.156-9.511a2.747 2.747 0 012.6 1.956h-5.156a2.568 2.568 0 012.556-1.956m-6.378 3.333a6.481 6.481 0 006.733 6.4 7.35 7.35 0 005.156-1.867l-2.511-2.222a3.352 3.352 0 01-2.467.933 3.194 3.194 0 01-3.044-1.956h8.8v-.933c0-3.933-2.644-6.756-6.244-6.756a6.351 6.351 0 00-6.444 6.244.329.329 0 01.022.156m-6.511-6.753a1.859 1.859 0 110 3.689h-3.978v-3.689zm-8 12.911h4.022v-5.956H89.2l3.089 5.956h4.489l-3.6-6.556a4.96 4.96 0 003.089-4.6c0-2.933-2.311-5.222-5.778-5.222h-8.378z"/><path class="f" d="M60.222 38.444c2.778 0 6.8-.578 6.8-3.889a4.34 4.34 0 00-.067-.756L65.311 26.6c-.378-1.578-.711-2.311-3.489-3.689C59.667 21.8 54.978 20 53.578 20c-1.311 0-1.689 1.667-3.222 1.667-1.489 0-2.578-1.244-3.978-1.244-1.333 0-2.2.911-2.867 2.778 0 0-1.867 5.267-2.111 6.044a1.367 1.367 0 00-.044.422c-.022 2.044 8.044 8.756 18.867 8.778m7.222-2.533a11.462 11.462 0 01.378 2.244c0 3.111-3.489 4.844-8.089 4.844-10.4 0-19.489-6.089-19.489-10.111a4.077 4.077 0 01.333-1.622c-3.734.177-8.578.844-8.578 5.111C32 43.378 48.578 52 61.689 52c10.067 0 12.6-4.556 12.6-8.156 0-2.822-2.444-6.022-6.844-7.933"/><path d="M67.444 35.911a11.462 11.462 0 01.378 2.244c0 3.111-3.489 4.844-8.089 4.844-10.4 0-19.489-6.089-19.489-10.111a4.077 4.077 0 01.333-1.622l.822-2.022a1.367 1.367 0 00-.044.422c0 2.044 8.067 8.756 18.867 8.756 2.778 0 6.8-.578 6.8-3.889a4.34 4.34 0 00-.067-.756z"/></g></svg>