<svg xmlns="http://www.w3.org/2000/svg" width="1000" height="528" viewBox="0 0 1000 528"><defs><style>.a{fill:#f0f0f0;}.b,.g{fill:#151515;}.b{opacity:0.5;}.c{fill:#fff;}.d{fill:#d2d2d2;}.e{fill:#06c;}.f{fill:#e00;}.h,.m{fill:none;}.h{stroke:#fff;}.i{fill:#6a6e73;}.j{opacity:0.03;}.k{fill:red;}.l{stroke:none;}</style></defs><path class="a" d="M0,48H1000V528H0Z"/><path class="b" d="M0,309H1000V528H0Z"/><path class="c" d="M0,48H1000V309H0Z"/><path class="d" d="M999,48h1V309h-1Z"/><path class="e" d="M703,254l-1.5,1.5L706,260H696v2h10l-4.5,4.5L703,268l7-7Zm-95,0h80v14H608Z"/><path class="e" d="M499,254l-1.5,1.5L502,260H492v2h10l-4.5,4.5L499,268l7-7Zm-95,0h80v14H404Z"/><g transform="translate(-430 -1440)"><rect class="f" width="112" height="32" rx="3" transform="translate(630 1685)"/><path class="c" d="M654,1697h64v8H654Z"/></g><path class="d" d="M32,212H968v1H32Z"/><path class="e" d="M608,172h64v8H608Zm0-24h64v8H608Zm0-24h64v8H608Zm0-24h64v8H608Z"/><path class="g" d="M608,72h80V84H608Z"/><path class="e" d="M404,172h64v8H404Zm0-24h64v8H404Zm0-24h64v8H404Zm0-24h64v8H404Z"/><path class="g" d="M404,72h80V84H404Z"/><path class="e" d="M200,172h64v8H200Zm0-24h64v8H200Zm0-24h64v8H200Zm0-24h64v8H200Z"/><path class="g" d="M200,72h80V84H200Z"/><path class="d" d="M0,48H1V309H0Z"/><g transform="translate(-360 -321)"><path class="g" d="M360,321H1360v48H360Z"/><path class="c" d="M1280,354h16v4h-16Z"/><g class="h" transform="translate(1280 332)"><circle class="l" cx="8" cy="8" r="8"/><circle class="m" cx="8" cy="8" r="7.5"/></g><path class="c" d="M1248,354h16v4h-16Z"/><g class="h" transform="translate(1248 332)"><circle class="l" cx="8" cy="8" r="8"/><circle class="m" cx="8" cy="8" r="7.5"/></g><path class="c" d="M1216,354h16v4h-16Z"/><g class="h" transform="translate(1216 332)"><circle class="l" cx="8" cy="8" r="8"/><circle class="m" cx="8" cy="8" r="7.5"/></g><path class="c" d="M1184,354h16v4h-16Z"/><g class="h" transform="translate(1184 332)"><circle class="l" cx="8" cy="8" r="8"/><circle class="m" cx="8" cy="8" r="7.5"/></g><path class="c" d="M740,341h48v8H740Zm-64,0h48v8H676Zm-128,0h48v8H548Zm-96-4h72v16H452Z"/><circle class="f" cx="12" cy="12" r="12" transform="translate(424 333)"/></g><path class="c" d="M244,0h64V48H244Z"/><path class="i" d="M276,40l-4-4h8Z"/><path class="g" d="M252,20h48v8H252Z"/><path class="f" d="M244,0h64V2H244Z"/><g class="j"><path class="k" d="M761,0h39V528H761ZM710,0h39V528H710ZM659,0h39V528H659ZM608,0h39V528H608ZM557,0h39V528H557ZM506,0h39V528H506ZM455,0h39V528H455ZM404,0h39V528H404ZM353,0h39V528H353ZM302,0h39V528H302ZM251,0h39V528H251ZM200,0h39V528H200Z"/></g></svg>