<svg width="482" height="100" viewBox="0 0 482 100" fill="none" xmlns="http://www.w3.org/2000/svg">
<path d="M11 35C11 33.3431 12.3431 32 14 32H71C72.6569 32 74 33.3431 74 35V65C74 66.6569 72.6569 68 71 68H14C12.3431 68 11 66.6569 11 65V35Z" fill="#0066CC"/>
<path d="M33.48 56.176C32.7013 56.176 31.976 56.032 31.304 55.744C30.632 55.4453 30.04 55.0347 29.528 54.512C29.0267 53.9787 28.632 53.3653 28.344 52.672C28.056 51.968 27.912 51.2107 27.912 50.4C27.912 49.5893 28.056 48.8373 28.344 48.144C28.632 47.44 29.0267 46.8267 29.528 46.304C30.04 45.7707 30.632 45.36 31.304 45.072C31.976 44.7733 32.7013 44.624 33.48 44.624C34.2587 44.624 34.984 44.7733 35.656 45.072C36.328 45.36 36.9147 45.7707 37.416 46.304C37.928 46.8267 38.328 47.44 38.616 48.144C38.904 48.8373 39.048 49.5893 39.048 50.4C39.048 51.2107 38.904 51.968 38.616 52.672C38.328 53.3653 37.928 53.9787 37.416 54.512C36.9147 55.0347 36.328 55.4453 35.656 55.744C34.984 56.032 34.2587 56.176 33.48 56.176ZM33.48 55.056C34.088 55.056 34.6533 54.9387 35.176 54.704C35.6987 54.4693 36.1573 54.1387 36.552 53.712C36.9467 53.2853 37.2507 52.7893 37.464 52.224C37.688 51.6587 37.8 51.0507 37.8 50.4C37.8 49.7387 37.688 49.1307 37.464 48.576C37.2507 48.0107 36.9467 47.5147 36.552 47.088C36.1573 46.6613 35.6987 46.3307 35.176 46.096C34.6533 45.8613 34.088 45.744 33.48 45.744C32.872 45.744 32.3067 45.8613 31.784 46.096C31.2613 46.3307 30.8027 46.6613 30.408 47.088C30.0133 47.5147 29.704 48.0107 29.48 48.576C29.2667 49.1307 29.16 49.7333 29.16 50.384C29.16 51.0453 29.2667 51.6587 29.48 52.224C29.704 52.7893 30.0133 53.2853 30.408 53.712C30.8027 54.1387 31.2613 54.4693 31.784 54.704C32.3067 54.9387 32.872 55.056 33.48 55.056ZM41.1531 56V48.192H42.3211V49.456C42.6198 48.9867 42.9771 48.64 43.3931 48.416C43.8091 48.1813 44.2785 48.064 44.8011 48.064C45.3665 48.064 45.8571 48.1867 46.2731 48.432C46.6998 48.6667 47.0305 49.0027 47.2651 49.44C47.5105 49.8667 47.6331 50.368 47.6331 50.944V56H46.4651V51.28C46.4651 50.5867 46.2731 50.0427 45.8891 49.648C45.5158 49.2427 45.0091 49.04 44.3691 49.04C43.9425 49.04 43.5531 49.1413 43.2011 49.344C42.8491 49.5467 42.5558 49.8453 42.3211 50.24V56H41.1531ZM53.5013 56.16C52.7759 56.16 52.1199 55.984 51.5333 55.632C50.9466 55.2693 50.4826 54.784 50.1413 54.176C49.7999 53.5573 49.6293 52.864 49.6293 52.096C49.6293 51.328 49.7893 50.64 50.1093 50.032C50.4399 49.424 50.8826 48.944 51.4373 48.592C51.9919 48.24 52.6106 48.064 53.2933 48.064C53.9866 48.064 54.5999 48.24 55.1333 48.592C55.6773 48.9333 56.1039 49.4027 56.4133 50C56.7333 50.5867 56.8933 51.2533 56.8933 52V52.352H50.7653C50.8079 52.8853 50.9519 53.3653 51.1973 53.792C51.4533 54.208 51.7839 54.5387 52.1893 54.784C52.6053 55.0187 53.0586 55.136 53.5493 55.136C53.9546 55.136 54.3439 55.0667 54.7173 54.928C55.1013 54.7787 55.4266 54.5813 55.6933 54.336L56.4293 55.12C55.9813 55.472 55.5173 55.7333 55.0373 55.904C54.5573 56.0747 54.0453 56.16 53.5013 56.16ZM50.7973 51.52H55.7413C55.6879 51.0507 55.5439 50.6347 55.3093 50.272C55.0853 49.8987 54.7973 49.6053 54.4453 49.392C54.1039 49.1787 53.7199 49.072 53.2933 49.072C52.8666 49.072 52.4773 49.1787 52.1253 49.392C51.7733 49.5947 51.4799 49.8827 51.2453 50.256C51.0213 50.6187 50.8719 51.04 50.7973 51.52Z" fill="white"/>
<path d="M90 35C90 33.3431 91.3431 32 93 32H149C150.657 32 152 33.3431 152 35V65C152 66.6569 150.657 68 149 68H93C91.3431 68 90 66.6569 90 65V35Z" fill="#0066CC"/>
<path d="M110.32 56V45.888H106.448V44.8H115.424V45.888H111.552V56H110.32ZM117.592 56L115.448 48.192H116.584L118.216 54.432L120.088 48.192H121.128L123 54.432L124.616 48.192H125.72L123.592 56H122.456L120.6 49.696L118.744 56H117.592ZM130.672 56.128C129.946 56.128 129.296 55.952 128.72 55.6C128.144 55.248 127.69 54.768 127.36 54.16C127.029 53.552 126.864 52.864 126.864 52.096C126.864 51.328 127.029 50.64 127.36 50.032C127.69 49.424 128.144 48.944 128.72 48.592C129.296 48.24 129.946 48.064 130.672 48.064C131.386 48.064 132.026 48.24 132.592 48.592C133.168 48.944 133.621 49.424 133.952 50.032C134.282 50.64 134.448 51.328 134.448 52.096C134.448 52.864 134.282 53.552 133.952 54.16C133.621 54.768 133.168 55.248 132.592 55.6C132.026 55.952 131.386 56.128 130.672 56.128ZM130.656 55.104C131.168 55.104 131.621 54.976 132.016 54.72C132.41 54.4533 132.72 54.0907 132.944 53.632C133.178 53.1733 133.296 52.6613 133.296 52.096C133.296 51.52 133.178 51.008 132.944 50.56C132.72 50.1013 132.41 49.744 132.016 49.488C131.621 49.2213 131.168 49.088 130.656 49.088C130.144 49.088 129.69 49.2213 129.296 49.488C128.901 49.744 128.586 50.1013 128.352 50.56C128.128 51.008 128.016 51.52 128.016 52.096C128.016 52.6613 128.128 53.1733 128.352 53.632C128.586 54.0907 128.901 54.4533 129.296 54.72C129.69 54.976 130.144 55.104 130.656 55.104Z" fill="white"/>
<mask id="path-5-inside-1_123_13497" fill="white">
<path d="M168 35C168 33.3431 169.343 32 171 32H239C240.657 32 242 33.3431 242 35V65C242 66.6569 240.657 68 239 68H171C169.343 68 168 66.6569 168 65V35Z"/>
</mask>
<path d="M171 32V33H239V32V31H171V32ZM242 35H241V65H242H243V35H242ZM239 68V67H171V68V69H239V68ZM168 65H169V35H168H167V65H168ZM171 68V67C169.895 67 169 66.1046 169 65H168H167C167 67.2091 168.791 69 171 69V68ZM242 65H241C241 66.1046 240.105 67 239 67V68V69C241.209 69 243 67.2091 243 65H242ZM239 32V33C240.105 33 241 33.8954 241 35H242H243C243 32.7909 241.209 31 239 31V32ZM171 32V31C168.791 31 167 32.7909 167 35H168H169C169 33.8954 169.895 33 171 33V32Z" fill="#0066CC" mask="url(#path-5-inside-1_123_13497)"/>
<path d="M188.32 56V45.888H184.448V44.8H193.424V45.888H189.552V56H188.32ZM195.075 56V44.448L196.243 44.208V49.456C196.542 48.9867 196.899 48.64 197.315 48.416C197.731 48.1813 198.2 48.064 198.723 48.064C199.288 48.064 199.779 48.1867 200.195 48.432C200.622 48.6667 200.952 49.0027 201.187 49.44C201.432 49.8667 201.555 50.368 201.555 50.944V56H200.387V51.28C200.387 50.5867 200.195 50.0427 199.811 49.648C199.438 49.2427 198.931 49.04 198.291 49.04C197.864 49.04 197.475 49.1413 197.123 49.344C196.771 49.5467 196.478 49.8453 196.243 50.24V56H195.075ZM203.903 56V48.192H205.071V49.792C205.274 49.248 205.562 48.8267 205.935 48.528C206.319 48.2187 206.756 48.064 207.247 48.064C207.386 48.064 207.514 48.0747 207.631 48.096C207.748 48.1067 207.866 48.1333 207.983 48.176V49.232C207.855 49.1893 207.716 49.1573 207.567 49.136C207.428 49.104 207.295 49.088 207.167 49.088C206.687 49.088 206.266 49.2267 205.903 49.504C205.551 49.7813 205.274 50.1707 205.071 50.672V56H203.903ZM212.564 56.16C211.838 56.16 211.182 55.984 210.596 55.632C210.009 55.2693 209.545 54.784 209.204 54.176C208.862 53.5573 208.692 52.864 208.692 52.096C208.692 51.328 208.852 50.64 209.172 50.032C209.502 49.424 209.945 48.944 210.5 48.592C211.054 48.24 211.673 48.064 212.356 48.064C213.049 48.064 213.662 48.24 214.196 48.592C214.74 48.9333 215.166 49.4027 215.476 50C215.796 50.5867 215.956 51.2533 215.956 52V52.352H209.828C209.87 52.8853 210.014 53.3653 210.26 53.792C210.516 54.208 210.846 54.5387 211.252 54.784C211.668 55.0187 212.121 55.136 212.612 55.136C213.017 55.136 213.406 55.0667 213.78 54.928C214.164 54.7787 214.489 54.5813 214.756 54.336L215.492 55.12C215.044 55.472 214.58 55.7333 214.1 55.904C213.62 56.0747 213.108 56.16 212.564 56.16ZM209.86 51.52H214.804C214.75 51.0507 214.606 50.6347 214.372 50.272C214.148 49.8987 213.86 49.6053 213.508 49.392C213.166 49.1787 212.782 49.072 212.356 49.072C211.929 49.072 211.54 49.1787 211.188 49.392C210.836 49.5947 210.542 49.8827 210.308 50.256C210.084 50.6187 209.934 51.04 209.86 51.52ZM221.47 56.16C220.745 56.16 220.089 55.984 219.502 55.632C218.915 55.2693 218.451 54.784 218.11 54.176C217.769 53.5573 217.598 52.864 217.598 52.096C217.598 51.328 217.758 50.64 218.078 50.032C218.409 49.424 218.851 48.944 219.406 48.592C219.961 48.24 220.579 48.064 221.262 48.064C221.955 48.064 222.569 48.24 223.102 48.592C223.646 48.9333 224.073 49.4027 224.382 50C224.702 50.5867 224.862 51.2533 224.862 52V52.352H218.734C218.777 52.8853 218.921 53.3653 219.166 53.792C219.422 54.208 219.753 54.5387 220.158 54.784C220.574 55.0187 221.027 55.136 221.518 55.136C221.923 55.136 222.313 55.0667 222.686 54.928C223.07 54.7787 223.395 54.5813 223.662 54.336L224.398 55.12C223.95 55.472 223.486 55.7333 223.006 55.904C222.526 56.0747 222.014 56.16 221.47 56.16ZM218.766 51.52H223.71C223.657 51.0507 223.513 50.6347 223.278 50.272C223.054 49.8987 222.766 49.6053 222.414 49.392C222.073 49.1787 221.689 49.072 221.262 49.072C220.835 49.072 220.446 49.1787 220.094 49.392C219.742 49.5947 219.449 49.8827 219.214 50.256C218.99 50.6187 218.841 51.04 218.766 51.52Z" fill="#0066CC"/>
<mask id="path-8-inside-2_123_13497" fill="white">
<path d="M258 35C258 33.3431 259.343 32 261 32H320C321.657 32 323 33.3431 323 35V65C323 66.6569 321.657 68 320 68H261C259.343 68 258 66.6569 258 65V35Z"/>
</mask>
<path d="M261 32V33H320V32V31H261V32ZM323 35H322V65H323H324V35H323ZM320 68V67H261V68V69H320V68ZM258 65H259V35H258H257V65H258ZM261 68V67C259.895 67 259 66.1046 259 65H258H257C257 67.2091 258.791 69 261 69V68ZM323 65H322C322 66.1046 321.105 67 320 67V68V69C322.209 69 324 67.2091 324 65H323ZM320 32V33C321.105 33 322 33.8954 322 35H323H324C324 32.7909 322.209 31 320 31V32ZM261 32V31C258.791 31 257 32.7909 257 35H258H259C259 33.8954 259.895 33 261 33V32Z" fill="#0066CC" mask="url(#path-8-inside-2_123_13497)"/>
<path d="M275.424 56V44.8H283.072V45.888H276.656V49.888H281.04V50.96H276.656V56H275.424ZM286.984 56.128C286.259 56.128 285.608 55.952 285.032 55.6C284.456 55.248 284.003 54.768 283.672 54.16C283.341 53.552 283.176 52.864 283.176 52.096C283.176 51.328 283.341 50.64 283.672 50.032C284.003 49.424 284.456 48.944 285.032 48.592C285.608 48.24 286.259 48.064 286.984 48.064C287.699 48.064 288.339 48.24 288.904 48.592C289.48 48.944 289.933 49.424 290.264 50.032C290.595 50.64 290.76 51.328 290.76 52.096C290.76 52.864 290.595 53.552 290.264 54.16C289.933 54.768 289.48 55.248 288.904 55.6C288.339 55.952 287.699 56.128 286.984 56.128ZM286.968 55.104C287.48 55.104 287.933 54.976 288.328 54.72C288.723 54.4533 289.032 54.0907 289.256 53.632C289.491 53.1733 289.608 52.6613 289.608 52.096C289.608 51.52 289.491 51.008 289.256 50.56C289.032 50.1013 288.723 49.744 288.328 49.488C287.933 49.2213 287.48 49.088 286.968 49.088C286.456 49.088 286.003 49.2213 285.608 49.488C285.213 49.744 284.899 50.1013 284.664 50.56C284.44 51.008 284.328 51.52 284.328 52.096C284.328 52.6613 284.44 53.1733 284.664 53.632C284.899 54.0907 285.213 54.4533 285.608 54.72C286.003 54.976 286.456 55.104 286.968 55.104ZM295.593 56.128C295.039 56.128 294.548 56.0053 294.121 55.76C293.695 55.5147 293.359 55.1733 293.113 54.736C292.879 54.2987 292.761 53.7973 292.761 53.232V48.192H293.945V52.896C293.945 53.5893 294.132 54.1387 294.505 54.544C294.879 54.9493 295.385 55.152 296.025 55.152C296.463 55.152 296.852 55.0507 297.193 54.848C297.545 54.6453 297.839 54.352 298.073 53.968V48.192H299.241V56H298.073V54.736C297.775 55.1947 297.417 55.5413 297.001 55.776C296.596 56.0107 296.127 56.128 295.593 56.128ZM301.638 56V48.192H302.806V49.792C303.008 49.248 303.296 48.8267 303.67 48.528C304.054 48.2187 304.491 48.064 304.982 48.064C305.12 48.064 305.248 48.0747 305.366 48.096C305.483 48.1067 305.6 48.1333 305.718 48.176V49.232C305.59 49.1893 305.451 49.1573 305.302 49.136C305.163 49.104 305.03 49.088 304.902 49.088C304.422 49.088 304 49.2267 303.638 49.504C303.286 49.7813 303.008 50.1707 302.806 50.672V56H301.638Z" fill="#0066CC"/>
<mask id="path-11-inside-3_123_13497" fill="white">
<path d="M339 35C339 33.3431 340.343 32 342 32H398C399.657 32 401 33.3431 401 35V65C401 66.6569 399.657 68 398 68H342C340.343 68 339 66.6569 339 65V35Z"/>
</mask>
<path d="M342 32V33H398V32V31H342V32ZM401 35H400V65H401H402V35H401ZM398 68V67H342V68V69H398V68ZM339 65H340V35H339H338V65H339ZM342 68V67C340.895 67 340 66.1046 340 65H339H338C338 67.2091 339.791 69 342 69V68ZM401 65H400C400 66.1046 399.105 67 398 67V68V69C400.209 69 402 67.2091 402 65H401ZM398 32V33C399.105 33 400 33.8954 400 35H401H402C402 32.7909 400.209 31 398 31V32ZM342 32V31C339.791 31 338 32.7909 338 35H339H340C340 33.8954 340.895 33 342 33V32Z" fill="#0066CC" mask="url(#path-11-inside-3_123_13497)"/>
<path d="M356.424 56V44.8H364.072V45.888H357.656V49.888H362.04V50.96H357.656V56H356.424ZM365.715 56V48.192H366.883V56H365.715ZM366.307 46.256C366.073 46.256 365.87 46.176 365.699 46.016C365.539 45.8453 365.459 45.648 365.459 45.424C365.459 45.2 365.539 45.008 365.699 44.848C365.87 44.6773 366.073 44.592 366.307 44.592C366.542 44.592 366.739 44.6773 366.899 44.848C367.07 45.008 367.155 45.2 367.155 45.424C367.155 45.648 367.07 45.8453 366.899 46.016C366.739 46.176 366.542 46.256 366.307 46.256ZM371.518 56L368.318 48.192H369.582L372.11 54.544L374.606 48.192H375.854L372.638 56H371.518ZM380.579 56.16C379.854 56.16 379.198 55.984 378.611 55.632C378.025 55.2693 377.561 54.784 377.219 54.176C376.878 53.5573 376.707 52.864 376.707 52.096C376.707 51.328 376.867 50.64 377.187 50.032C377.518 49.424 377.961 48.944 378.515 48.592C379.07 48.24 379.689 48.064 380.371 48.064C381.065 48.064 381.678 48.24 382.211 48.592C382.755 48.9333 383.182 49.4027 383.491 50C383.811 50.5867 383.971 51.2533 383.971 52V52.352H377.843C377.886 52.8853 378.03 53.3653 378.275 53.792C378.531 54.208 378.862 54.5387 379.267 54.784C379.683 55.0187 380.137 55.136 380.627 55.136C381.033 55.136 381.422 55.0667 381.795 54.928C382.179 54.7787 382.505 54.5813 382.771 54.336L383.507 55.12C383.059 55.472 382.595 55.7333 382.115 55.904C381.635 56.0747 381.123 56.16 380.579 56.16ZM377.875 51.52H382.819C382.766 51.0507 382.622 50.6347 382.387 50.272C382.163 49.8987 381.875 49.6053 381.523 49.392C381.182 49.1787 380.798 49.072 380.371 49.072C379.945 49.072 379.555 49.1787 379.203 49.392C378.851 49.5947 378.558 49.8827 378.323 50.256C378.099 50.6187 377.95 51.04 377.875 51.52Z" fill="#0066CC"/>
<mask id="path-14-inside-4_123_13497" fill="white">
<path d="M417 35C417 33.3431 418.343 32 420 32H468C469.657 32 471 33.3431 471 35V65C471 66.6569 469.657 68 468 68H420C418.343 68 417 66.6569 417 65V35Z"/>
</mask>
<path d="M420 32V33H468V32V31H420V32ZM471 35H470V65H471H472V35H471ZM468 68V67H420V68V69H468V68ZM417 65H418V35H417H416V65H417ZM420 68V67C418.895 67 418 66.1046 418 65H417H416C416 67.2091 417.791 69 420 69V68ZM471 65H470C470 66.1046 469.105 67 468 67V68V69C470.209 69 472 67.2091 472 65H471ZM468 32V33C469.105 33 470 33.8954 470 35H471H472C472 32.7909 470.209 31 468 31V32ZM420 32V31C417.791 31 416 32.7909 416 35H417H418C418 33.8954 418.895 33 420 33V32Z" fill="#0066CC" mask="url(#path-14-inside-4_123_13497)"/>
<path d="M438.04 56.176C437.165 56.176 436.355 56.0213 435.608 55.712C434.861 55.392 434.141 54.912 433.448 54.272L434.2 53.376C434.872 54.0053 435.501 54.4533 436.088 54.72C436.685 54.9867 437.347 55.12 438.072 55.12C438.648 55.12 439.16 55.024 439.608 54.832C440.067 54.6293 440.424 54.3573 440.68 54.016C440.936 53.6747 441.064 53.2853 441.064 52.848C441.064 52.2827 440.877 51.856 440.504 51.568C440.131 51.2693 439.485 51.04 438.568 50.88L436.76 50.576C435.736 50.3947 434.984 50.0853 434.504 49.648C434.035 49.2 433.8 48.6027 433.8 47.856C433.8 47.2267 433.96 46.672 434.28 46.192C434.611 45.7013 435.064 45.3173 435.64 45.04C436.216 44.7627 436.883 44.624 437.64 44.624C438.472 44.624 439.245 44.7413 439.96 44.976C440.675 45.2 441.379 45.5573 442.072 46.048L441.432 47.008C440.856 46.5707 440.248 46.24 439.608 46.016C438.968 45.7813 438.317 45.664 437.656 45.664C437.133 45.664 436.669 45.7547 436.264 45.936C435.869 46.1173 435.555 46.3627 435.32 46.672C435.096 46.9813 434.984 47.3333 434.984 47.728C434.984 48.2187 435.149 48.6027 435.48 48.88C435.811 49.1573 436.349 49.3547 437.096 49.472L438.888 49.776C440.083 49.9893 440.947 50.336 441.48 50.816C442.024 51.2853 442.296 51.9413 442.296 52.784C442.296 53.4347 442.109 54.016 441.736 54.528C441.373 55.04 440.872 55.4453 440.232 55.744C439.592 56.032 438.861 56.176 438.04 56.176ZM444.153 56V48.192H445.321V56H444.153ZM444.745 46.256C444.51 46.256 444.307 46.176 444.137 46.016C443.977 45.8453 443.897 45.648 443.897 45.424C443.897 45.2 443.977 45.008 444.137 44.848C444.307 44.6773 444.51 44.592 444.745 44.592C444.979 44.592 445.177 44.6773 445.337 44.848C445.507 45.008 445.593 45.2 445.593 45.424C445.593 45.648 445.507 45.8453 445.337 46.016C445.177 46.176 444.979 46.256 444.745 46.256ZM446.724 56L449.716 51.952L446.9 48.192H448.292L450.452 51.168L452.596 48.192H453.924L451.092 51.984L454.1 56H452.708L450.372 52.816L448.052 56H446.724Z" fill="#0066CC"/>
</svg>
