<svg width="915" height="169" viewBox="0 0 915 169" fill="none" xmlns="http://www.w3.org/2000/svg">
<path d="M887 48.5L881 53V44L887 48.5Z" fill="#FF00FF"/>
<rect x="45" y="48" width="836" height="1" fill="#FF00FF"/>
<circle cx="42.5" cy="48.5" r="3.5" fill="#FF00FF"/>
<path d="M0 3C0 1.34315 1.34315 0 3 0H82C83.6569 0 85 1.34315 85 3V33C85 34.6569 83.6569 36 82 36H3C1.34315 36 0 34.6569 0 33V3Z" fill="#B1380B"/>
<path d="M18.656 22.896H21.216C22.0267 22.896 22.752 22.6987 23.392 22.304C24.032 21.9093 24.5387 21.376 24.912 20.704C25.296 20.0213 25.488 19.2533 25.488 18.4C25.488 17.5467 25.296 16.784 24.912 16.112C24.5387 15.4293 24.032 14.8907 23.392 14.496C22.752 14.1013 22.0267 13.904 21.216 13.904H18.656V22.896ZM17.424 24V12.8H21.136C21.9573 12.8 22.7093 12.944 23.392 13.232C24.0853 13.5093 24.6773 13.904 25.168 14.416C25.6693 14.9173 26.0533 15.5093 26.32 16.192C26.5973 16.864 26.736 17.6 26.736 18.4C26.736 19.2 26.5973 19.9413 26.32 20.624C26.0533 21.296 25.6693 21.888 25.168 22.4C24.6773 22.9013 24.0853 23.296 23.392 23.584C22.7093 23.8613 21.9573 24 21.136 24H17.424ZM31.1004 24.144C30.5457 24.144 30.055 24.0427 29.6284 23.84C29.2017 23.6373 28.8657 23.36 28.6204 23.008C28.3857 22.6453 28.2684 22.2293 28.2684 21.76C28.2684 21.2907 28.391 20.8853 28.6364 20.544C28.8817 20.192 29.223 19.92 29.6604 19.728C30.0977 19.536 30.6097 19.44 31.1964 19.44C31.6444 19.44 32.0657 19.488 32.4604 19.584C32.8657 19.68 33.239 19.8347 33.5804 20.048V18.976C33.5804 18.336 33.4097 17.856 33.0684 17.536C32.727 17.2053 32.2257 17.04 31.5644 17.04C31.2017 17.04 30.8284 17.0933 30.4444 17.2C30.071 17.3067 29.655 17.4773 29.1964 17.712L28.7644 16.816C29.8097 16.3147 30.791 16.064 31.7084 16.064C32.679 16.064 33.4257 16.304 33.9484 16.784C34.471 17.2533 34.7324 17.9307 34.7324 18.816V24H33.5804V23.088C33.239 23.44 32.8604 23.7067 32.4444 23.888C32.0284 24.0587 31.5804 24.144 31.1004 24.144ZM29.3884 21.728C29.3884 22.1867 29.5644 22.5547 29.9164 22.832C30.279 23.1093 30.7537 23.248 31.3404 23.248C31.7777 23.248 32.1777 23.1733 32.5404 23.024C32.9137 22.8747 33.2604 22.6507 33.5804 22.352V20.848C33.2497 20.656 32.9084 20.5173 32.5564 20.432C32.2044 20.336 31.8097 20.288 31.3724 20.288C30.775 20.288 30.295 20.4213 29.9324 20.688C29.5697 20.944 29.3884 21.2907 29.3884 21.728ZM37.1063 24V16.192H38.2743V17.456C38.5729 16.9867 38.9303 16.64 39.3463 16.416C39.7623 16.1813 40.2316 16.064 40.7543 16.064C41.3196 16.064 41.8103 16.1867 42.2263 16.432C42.6529 16.6667 42.9836 17.0027 43.2183 17.44C43.4636 17.8667 43.5863 18.368 43.5863 18.944V24H42.4183V19.28C42.4183 18.5867 42.2263 18.0427 41.8423 17.648C41.4689 17.2427 40.9623 17.04 40.3223 17.04C39.8956 17.04 39.5063 17.1413 39.1543 17.344C38.8023 17.5467 38.5089 17.8453 38.2743 18.24V24H37.1063ZM49.5504 27.504C49.0277 27.504 48.4997 27.4293 47.9664 27.28C47.4437 27.1413 46.9584 26.944 46.5104 26.688L47.0064 25.792C47.4864 26.0373 47.9237 26.2187 48.3184 26.336C48.713 26.4533 49.1077 26.512 49.5024 26.512C50.217 26.512 50.7557 26.3413 51.1184 26C51.4917 25.6587 51.6784 25.1627 51.6784 24.512V22.944C51.3797 23.3173 51.017 23.6053 50.5904 23.808C50.1637 24 49.6944 24.096 49.1824 24.096C48.5104 24.096 47.9024 23.92 47.3584 23.568C46.8144 23.2053 46.3824 22.7253 46.0624 22.128C45.7424 21.52 45.5824 20.8427 45.5824 20.096C45.5824 19.3493 45.7424 18.6773 46.0624 18.08C46.393 17.472 46.8357 16.992 47.3904 16.64C47.945 16.2773 48.5637 16.096 49.2464 16.096C49.737 16.096 50.1904 16.192 50.6064 16.384C51.0224 16.5653 51.385 16.8373 51.6944 17.2V16.192H52.8464V24.496C52.8464 25.4667 52.5637 26.208 51.9984 26.72C51.433 27.2427 50.617 27.504 49.5504 27.504ZM49.4704 23.088C49.929 23.088 50.3504 22.9973 50.7344 22.816C51.1184 22.624 51.433 22.3627 51.6784 22.032V18.176C51.4224 17.8453 51.097 17.5893 50.7024 17.408C50.3184 17.216 49.9077 17.12 49.4704 17.12C48.9477 17.12 48.4784 17.248 48.0624 17.504C47.657 17.76 47.3317 18.112 47.0864 18.56C46.8517 19.008 46.7344 19.52 46.7344 20.096C46.7344 20.6613 46.8517 21.1733 47.0864 21.632C47.3317 22.08 47.657 22.4373 48.0624 22.704C48.4784 22.96 48.9477 23.088 49.4704 23.088ZM58.7669 24.16C58.0415 24.16 57.3855 23.984 56.7989 23.632C56.2122 23.2693 55.7482 22.784 55.4069 22.176C55.0655 21.5573 54.8949 20.864 54.8949 20.096C54.8949 19.328 55.0549 18.64 55.3749 18.032C55.7055 17.424 56.1482 16.944 56.7029 16.592C57.2575 16.24 57.8762 16.064 58.5589 16.064C59.2522 16.064 59.8655 16.24 60.3989 16.592C60.9429 16.9333 61.3695 17.4027 61.6789 18C61.9989 18.5867 62.1589 19.2533 62.1589 20V20.352H56.0309C56.0735 20.8853 56.2175 21.3653 56.4629 21.792C56.7189 22.208 57.0495 22.5387 57.4549 22.784C57.8709 23.0187 58.3242 23.136 58.8149 23.136C59.2202 23.136 59.6095 23.0667 59.9829 22.928C60.3669 22.7787 60.6922 22.5813 60.9589 22.336L61.6949 23.12C61.2469 23.472 60.7829 23.7333 60.3029 23.904C59.8229 24.0747 59.3109 24.16 58.7669 24.16ZM56.0629 19.52H61.0069C60.9535 19.0507 60.8095 18.6347 60.5749 18.272C60.3509 17.8987 60.0629 17.6053 59.7109 17.392C59.3695 17.1787 58.9855 17.072 58.5589 17.072C58.1322 17.072 57.7429 17.1787 57.3909 17.392C57.0389 17.5947 56.7455 17.8827 56.5109 18.256C56.2869 18.6187 56.1375 19.04 56.0629 19.52ZM64.1531 24V16.192H65.3211V17.792C65.5238 17.248 65.8118 16.8267 66.1851 16.528C66.5691 16.2187 67.0065 16.064 67.4971 16.064C67.6358 16.064 67.7638 16.0747 67.8811 16.096C67.9985 16.1067 68.1158 16.1333 68.2331 16.176V17.232C68.1051 17.1893 67.9665 17.1573 67.8171 17.136C67.6785 17.104 67.5451 17.088 67.4171 17.088C66.9371 17.088 66.5158 17.2267 66.1531 17.504C65.8011 17.7813 65.5238 18.1707 65.3211 18.672V24H64.1531Z" fill="white"/>
<mask id="path-6-inside-1_123_11498" fill="white">
<path d="M165 3C165 1.34315 166.343 0 168 0H271C272.657 0 274 1.34315 274 3V33C274 34.6569 272.657 36 271 36H168C166.343 36 165 34.6569 165 33V3Z"/>
</mask>
<path d="M168 0V1H271V0V-1H168V0ZM274 3H273V33H274H275V3H274ZM271 36V35H168V36V37H271V36ZM165 33H166V3H165H164V33H165ZM168 36V35C166.895 35 166 34.1046 166 33H165H164C164 35.2091 165.791 37 168 37V36ZM274 33H273C273 34.1046 272.105 35 271 35V36V37C273.209 37 275 35.2091 275 33H274ZM271 0V1C272.105 1 273 1.89543 273 3H274H275C275 0.790862 273.209 -1 271 -1V0ZM168 0V-1C165.791 -1 164 0.79086 164 3H165H166C166 1.89543 166.895 1 168 1V0Z" fill="#B1380B" mask="url(#path-6-inside-1_123_11498)"/>
<path d="M186.04 24.176C185.165 24.176 184.355 24.0213 183.608 23.712C182.861 23.392 182.141 22.912 181.448 22.272L182.2 21.376C182.872 22.0053 183.501 22.4533 184.088 22.72C184.685 22.9867 185.347 23.12 186.072 23.12C186.648 23.12 187.16 23.024 187.608 22.832C188.067 22.6293 188.424 22.3573 188.68 22.016C188.936 21.6747 189.064 21.2853 189.064 20.848C189.064 20.2827 188.877 19.856 188.504 19.568C188.131 19.2693 187.485 19.04 186.568 18.88L184.76 18.576C183.736 18.3947 182.984 18.0853 182.504 17.648C182.035 17.2 181.8 16.6027 181.8 15.856C181.8 15.2267 181.96 14.672 182.28 14.192C182.611 13.7013 183.064 13.3173 183.64 13.04C184.216 12.7627 184.883 12.624 185.64 12.624C186.472 12.624 187.245 12.7413 187.96 12.976C188.675 13.2 189.379 13.5573 190.072 14.048L189.432 15.008C188.856 14.5707 188.248 14.24 187.608 14.016C186.968 13.7813 186.317 13.664 185.656 13.664C185.133 13.664 184.669 13.7547 184.264 13.936C183.869 14.1173 183.555 14.3627 183.32 14.672C183.096 14.9813 182.984 15.3333 182.984 15.728C182.984 16.2187 183.149 16.6027 183.48 16.88C183.811 17.1573 184.349 17.3547 185.096 17.472L186.888 17.776C188.083 17.9893 188.947 18.336 189.48 18.816C190.024 19.2853 190.296 19.9413 190.296 20.784C190.296 21.4347 190.109 22.016 189.736 22.528C189.373 23.04 188.872 23.4453 188.232 23.744C187.592 24.032 186.861 24.176 186.04 24.176ZM195.845 24.16C195.12 24.16 194.464 23.984 193.877 23.632C193.29 23.2693 192.826 22.784 192.485 22.176C192.144 21.5573 191.973 20.864 191.973 20.096C191.973 19.328 192.133 18.64 192.453 18.032C192.784 17.424 193.226 16.944 193.781 16.592C194.336 16.24 194.954 16.064 195.637 16.064C196.33 16.064 196.944 16.24 197.477 16.592C198.021 16.9333 198.448 17.4027 198.757 18C199.077 18.5867 199.237 19.2533 199.237 20V20.352H193.109C193.152 20.8853 193.296 21.3653 193.541 21.792C193.797 22.208 194.128 22.5387 194.533 22.784C194.949 23.0187 195.402 23.136 195.893 23.136C196.298 23.136 196.688 23.0667 197.061 22.928C197.445 22.7787 197.77 22.5813 198.037 22.336L198.773 23.12C198.325 23.472 197.861 23.7333 197.381 23.904C196.901 24.0747 196.389 24.16 195.845 24.16ZM193.141 19.52H198.085C198.032 19.0507 197.888 18.6347 197.653 18.272C197.429 17.8987 197.141 17.6053 196.789 17.392C196.448 17.1787 196.064 17.072 195.637 17.072C195.21 17.072 194.821 17.1787 194.469 17.392C194.117 17.5947 193.824 17.8827 193.589 18.256C193.365 18.6187 193.216 19.04 193.141 19.52ZM204.735 24.128C204.01 24.128 203.354 23.952 202.767 23.6C202.191 23.2373 201.733 22.752 201.391 22.144C201.05 21.5253 200.879 20.8427 200.879 20.096C200.879 19.3387 201.05 18.656 201.391 18.048C201.733 17.44 202.191 16.96 202.767 16.608C203.354 16.2453 204.01 16.064 204.735 16.064C205.311 16.064 205.861 16.1707 206.383 16.384C206.906 16.5973 207.359 16.896 207.743 17.28L206.991 18.096C206.714 17.7867 206.378 17.5467 205.983 17.376C205.589 17.2053 205.189 17.12 204.783 17.12C204.271 17.12 203.807 17.2533 203.391 17.52C202.986 17.7867 202.661 18.144 202.415 18.592C202.17 19.04 202.047 19.5413 202.047 20.096C202.047 20.6507 202.17 21.152 202.415 21.6C202.661 22.048 202.986 22.4053 203.391 22.672C203.807 22.9387 204.271 23.072 204.783 23.072C205.189 23.072 205.589 22.9867 205.983 22.816C206.378 22.6347 206.714 22.3947 206.991 22.096L207.743 22.912C207.359 23.296 206.906 23.5947 206.383 23.808C205.861 24.0213 205.311 24.128 204.735 24.128ZM212.594 24.128C211.868 24.128 211.218 23.952 210.642 23.6C210.066 23.248 209.612 22.768 209.282 22.16C208.951 21.552 208.786 20.864 208.786 20.096C208.786 19.328 208.951 18.64 209.282 18.032C209.612 17.424 210.066 16.944 210.642 16.592C211.218 16.24 211.868 16.064 212.594 16.064C213.308 16.064 213.948 16.24 214.514 16.592C215.09 16.944 215.543 17.424 215.874 18.032C216.204 18.64 216.37 19.328 216.37 20.096C216.37 20.864 216.204 21.552 215.874 22.16C215.543 22.768 215.09 23.248 214.514 23.6C213.948 23.952 213.308 24.128 212.594 24.128ZM212.578 23.104C213.09 23.104 213.543 22.976 213.938 22.72C214.332 22.4533 214.642 22.0907 214.866 21.632C215.1 21.1733 215.218 20.6613 215.218 20.096C215.218 19.52 215.1 19.008 214.866 18.56C214.642 18.1013 214.332 17.744 213.938 17.488C213.543 17.2213 213.09 17.088 212.578 17.088C212.066 17.088 211.612 17.2213 211.218 17.488C210.823 17.744 210.508 18.1013 210.274 18.56C210.05 19.008 209.938 19.52 209.938 20.096C209.938 20.6613 210.05 21.1733 210.274 21.632C210.508 22.0907 210.823 22.4533 211.218 22.72C211.612 22.976 212.066 23.104 212.578 23.104ZM218.419 24V16.192H219.587V17.456C219.885 16.9867 220.243 16.64 220.659 16.416C221.075 16.1813 221.544 16.064 222.067 16.064C222.632 16.064 223.123 16.1867 223.539 16.432C223.965 16.6667 224.296 17.0027 224.531 17.44C224.776 17.8667 224.899 18.368 224.899 18.944V24H223.731V19.28C223.731 18.5867 223.539 18.0427 223.155 17.648C222.781 17.2427 222.275 17.04 221.635 17.04C221.208 17.04 220.819 17.1413 220.467 17.344C220.115 17.5467 219.821 17.8453 219.587 18.24V24H218.419ZM230.495 24.112C229.823 24.112 229.215 23.936 228.671 23.584C228.127 23.2213 227.695 22.7413 227.375 22.144C227.055 21.536 226.895 20.8587 226.895 20.112C226.895 19.3547 227.055 18.6773 227.375 18.08C227.706 17.472 228.148 16.992 228.703 16.64C229.258 16.2773 229.876 16.096 230.559 16.096C231.039 16.096 231.487 16.192 231.903 16.384C232.319 16.5653 232.682 16.832 232.991 17.184V12.448L234.159 12.208V24H232.991V22.96C232.692 23.3333 232.33 23.6213 231.903 23.824C231.476 24.016 231.007 24.112 230.495 24.112ZM230.783 23.088C231.242 23.088 231.663 22.9973 232.047 22.816C232.431 22.6347 232.746 22.3787 232.991 22.048V18.176C232.735 17.8453 232.41 17.5893 232.015 17.408C231.631 17.216 231.22 17.12 230.783 17.12C230.26 17.12 229.791 17.248 229.375 17.504C228.97 17.76 228.644 18.112 228.399 18.56C228.164 19.008 228.047 19.52 228.047 20.096C228.047 20.6613 228.164 21.1733 228.399 21.632C228.644 22.08 228.97 22.4373 229.375 22.704C229.791 22.96 230.26 23.088 230.783 23.088ZM238.975 24.144C238.421 24.144 237.93 24.0427 237.503 23.84C237.077 23.6373 236.741 23.36 236.495 23.008C236.261 22.6453 236.143 22.2293 236.143 21.76C236.143 21.2907 236.266 20.8853 236.511 20.544C236.757 20.192 237.098 19.92 237.535 19.728C237.973 19.536 238.485 19.44 239.071 19.44C239.519 19.44 239.941 19.488 240.335 19.584C240.741 19.68 241.114 19.8347 241.455 20.048V18.976C241.455 18.336 241.285 17.856 240.943 17.536C240.602 17.2053 240.101 17.04 239.439 17.04C239.077 17.04 238.703 17.0933 238.319 17.2C237.946 17.3067 237.53 17.4773 237.071 17.712L236.639 16.816C237.685 16.3147 238.666 16.064 239.583 16.064C240.554 16.064 241.301 16.304 241.823 16.784C242.346 17.2533 242.607 17.9307 242.607 18.816V24H241.455V23.088C241.114 23.44 240.735 23.7067 240.319 23.888C239.903 24.0587 239.455 24.144 238.975 24.144ZM237.263 21.728C237.263 22.1867 237.439 22.5547 237.791 22.832C238.154 23.1093 238.629 23.248 239.215 23.248C239.653 23.248 240.053 23.1733 240.415 23.024C240.789 22.8747 241.135 22.6507 241.455 22.352V20.848C241.125 20.656 240.783 20.5173 240.431 20.432C240.079 20.336 239.685 20.288 239.247 20.288C238.65 20.288 238.17 20.4213 237.807 20.688C237.445 20.944 237.263 21.2907 237.263 21.728ZM244.981 24V16.192H246.149V17.792C246.352 17.248 246.64 16.8267 247.013 16.528C247.397 16.2187 247.835 16.064 248.325 16.064C248.464 16.064 248.592 16.0747 248.709 16.096C248.827 16.1067 248.944 16.1333 249.061 16.176V17.232C248.933 17.1893 248.795 17.1573 248.645 17.136C248.507 17.104 248.373 17.088 248.245 17.088C247.765 17.088 247.344 17.2267 246.981 17.504C246.629 17.7813 246.352 18.1707 246.149 18.672V24H244.981ZM251.099 27.504C250.853 27.504 250.603 27.4667 250.347 27.392V26.352C250.453 26.3733 250.565 26.3893 250.683 26.4C250.8 26.4107 250.901 26.416 250.987 26.416C251.285 26.416 251.531 26.336 251.723 26.176C251.925 26.016 252.096 25.7653 252.235 25.424L252.811 24L249.803 16.192H251.099L253.467 22.608L255.979 16.192H257.275L253.339 25.776C253.168 26.192 252.981 26.528 252.779 26.784C252.576 27.04 252.341 27.2213 252.075 27.328C251.808 27.4453 251.482 27.504 251.099 27.504Z" fill="#B1380B"/>
<path d="M371.424 24V12.8H372.656V22.912H378.976V24H371.424ZM380.903 24V16.192H382.071V24H380.903ZM381.495 14.256C381.26 14.256 381.057 14.176 380.887 14.016C380.727 13.8453 380.647 13.648 380.647 13.424C380.647 13.2 380.727 13.008 380.887 12.848C381.057 12.6773 381.26 12.592 381.495 12.592C381.729 12.592 381.927 12.6773 382.087 12.848C382.257 13.008 382.343 13.2 382.343 13.424C382.343 13.648 382.257 13.8453 382.087 14.016C381.927 14.176 381.729 14.256 381.495 14.256ZM384.466 24V16.192H385.634V17.456C385.932 16.9867 386.29 16.64 386.706 16.416C387.122 16.1813 387.591 16.064 388.114 16.064C388.679 16.064 389.17 16.1867 389.586 16.432C390.012 16.6667 390.343 17.0027 390.578 17.44C390.823 17.8667 390.946 18.368 390.946 18.944V24H389.778V19.28C389.778 18.5867 389.586 18.0427 389.202 17.648C388.828 17.2427 388.322 17.04 387.682 17.04C387.255 17.04 386.866 17.1413 386.514 17.344C386.162 17.5467 385.868 17.8453 385.634 18.24V24H384.466ZM393.294 24V12.448L394.462 12.208V19.696L398.174 16.192H399.582L395.614 19.904L399.758 24H398.222L394.462 20.272V24H393.294Z" fill="#B1380B"/>
<path d="M496 3C496 1.34315 497.343 0 499 0H581C582.657 0 584 1.34315 584 3V33C584 34.6569 582.657 36 581 36H499C497.343 36 496 34.6569 496 33V3Z" fill="#0066CC"/>
<path d="M513.424 24V12.8H518.048C518.773 12.8 519.403 12.9387 519.936 13.216C520.469 13.4827 520.88 13.8667 521.168 14.368C521.467 14.8587 521.616 15.44 521.616 16.112C521.616 16.7733 521.467 17.3547 521.168 17.856C520.88 18.3573 520.469 18.7467 519.936 19.024C519.403 19.2907 518.773 19.424 518.048 19.424H514.656V24H513.424ZM514.656 18.368H517.904C518.683 18.368 519.291 18.1653 519.728 17.76C520.165 17.3547 520.384 16.8053 520.384 16.112C520.384 15.4187 520.165 14.8747 519.728 14.48C519.291 14.0853 518.683 13.888 517.904 13.888H514.656V18.368ZM523.591 24V16.192H524.759V17.792C524.961 17.248 525.249 16.8267 525.623 16.528C526.007 16.2187 526.444 16.064 526.935 16.064C527.073 16.064 527.201 16.0747 527.319 16.096C527.436 16.1067 527.553 16.1333 527.671 16.176V17.232C527.543 17.1893 527.404 17.1573 527.255 17.136C527.116 17.104 526.983 17.088 526.855 17.088C526.375 17.088 525.953 17.2267 525.591 17.504C525.239 17.7813 524.961 18.1707 524.759 18.672V24H523.591ZM529.2 24V16.192H530.368V24H529.2ZM529.792 14.256C529.557 14.256 529.354 14.176 529.184 14.016C529.024 13.8453 528.944 13.648 528.944 13.424C528.944 13.2 529.024 13.008 529.184 12.848C529.354 12.6773 529.557 12.592 529.792 12.592C530.026 12.592 530.224 12.6773 530.384 12.848C530.554 13.008 530.64 13.2 530.64 13.424C530.64 13.648 530.554 13.8453 530.384 14.016C530.224 14.176 530.026 14.256 529.792 14.256ZM532.763 24V16.192H533.931V17.408C534.229 16.96 534.571 16.624 534.955 16.4C535.339 16.176 535.771 16.064 536.251 16.064C536.805 16.064 537.291 16.2027 537.707 16.48C538.123 16.7467 538.437 17.1147 538.651 17.584C538.96 17.0827 539.328 16.704 539.755 16.448C540.192 16.192 540.693 16.064 541.259 16.064C541.781 16.064 542.24 16.1867 542.635 16.432C543.04 16.6773 543.355 17.0187 543.579 17.456C543.803 17.8827 543.915 18.384 543.915 18.96V24H542.747V19.248C542.747 18.5653 542.576 18.0267 542.235 17.632C541.893 17.2373 541.424 17.04 540.827 17.04C540.421 17.04 540.053 17.1413 539.723 17.344C539.403 17.5467 539.12 17.856 538.875 18.272C538.896 18.3787 538.912 18.4907 538.923 18.608C538.933 18.7253 538.939 18.8427 538.939 18.96V24H537.771V19.248C537.771 18.5653 537.595 18.0267 537.243 17.632C536.901 17.2373 536.432 17.04 535.835 17.04C535.035 17.04 534.4 17.424 533.931 18.192V24H532.763ZM548.694 24.144C548.139 24.144 547.649 24.0427 547.222 23.84C546.795 23.6373 546.459 23.36 546.214 23.008C545.979 22.6453 545.862 22.2293 545.862 21.76C545.862 21.2907 545.985 20.8853 546.23 20.544C546.475 20.192 546.817 19.92 547.254 19.728C547.691 19.536 548.203 19.44 548.79 19.44C549.238 19.44 549.659 19.488 550.054 19.584C550.459 19.68 550.833 19.8347 551.174 20.048V18.976C551.174 18.336 551.003 17.856 550.662 17.536C550.321 17.2053 549.819 17.04 549.158 17.04C548.795 17.04 548.422 17.0933 548.038 17.2C547.665 17.3067 547.249 17.4773 546.79 17.712L546.358 16.816C547.403 16.3147 548.385 16.064 549.302 16.064C550.273 16.064 551.019 16.304 551.542 16.784C552.065 17.2533 552.326 17.9307 552.326 18.816V24H551.174V23.088C550.833 23.44 550.454 23.7067 550.038 23.888C549.622 24.0587 549.174 24.144 548.694 24.144ZM546.982 21.728C546.982 22.1867 547.158 22.5547 547.51 22.832C547.873 23.1093 548.347 23.248 548.934 23.248C549.371 23.248 549.771 23.1733 550.134 23.024C550.507 22.8747 550.854 22.6507 551.174 22.352V20.848C550.843 20.656 550.502 20.5173 550.15 20.432C549.798 20.336 549.403 20.288 548.966 20.288C548.369 20.288 547.889 20.4213 547.526 20.688C547.163 20.944 546.982 21.2907 546.982 21.728ZM554.7 24V16.192H555.868V17.792C556.071 17.248 556.359 16.8267 556.732 16.528C557.116 16.2187 557.553 16.064 558.044 16.064C558.183 16.064 558.311 16.0747 558.428 16.096C558.545 16.1067 558.663 16.1333 558.78 16.176V17.232C558.652 17.1893 558.513 17.1573 558.364 17.136C558.225 17.104 558.092 17.088 557.964 17.088C557.484 17.088 557.063 17.2267 556.7 17.504C556.348 17.7813 556.071 18.1707 555.868 18.672V24H554.7ZM560.817 27.504C560.572 27.504 560.321 27.4667 560.065 27.392V26.352C560.172 26.3733 560.284 26.3893 560.401 26.4C560.519 26.4107 560.62 26.416 560.705 26.416C561.004 26.416 561.249 26.336 561.441 26.176C561.644 26.016 561.815 25.7653 561.953 25.424L562.529 24L559.521 16.192H560.817L563.185 22.608L565.697 16.192H566.993L563.057 25.776C562.887 26.192 562.7 26.528 562.497 26.784C562.295 27.04 562.06 27.2213 561.793 27.328C561.527 27.4453 561.201 27.504 560.817 27.504Z" fill="white"/>
<mask id="path-13-inside-2_123_11498" fill="white">
<path d="M664 3C664 1.34315 665.343 0 667 0H770C771.657 0 773 1.34315 773 3V33C773 34.6569 771.657 36 770 36H667C665.343 36 664 34.6569 664 33V3Z"/>
</mask>
<path d="M667 0V1H770V0V-1H667V0ZM773 3H772V33H773H774V3H773ZM770 36V35H667V36V37H770V36ZM664 33H665V3H664H663V33H664ZM667 36V35C665.895 35 665 34.1046 665 33H664H663C663 35.2091 664.791 37 667 37V36ZM773 33H772C772 34.1046 771.105 35 770 35V36V37C772.209 37 774 35.2091 774 33H773ZM770 0V1C771.105 1 772 1.89543 772 3H773H774C774 0.790862 772.209 -1 770 -1V0ZM667 0V-1C664.791 -1 663 0.79086 663 3H664H665C665 1.89543 665.895 1 667 1V0Z" fill="#0066CC" mask="url(#path-13-inside-2_123_11498)"/>
<path d="M685.04 24.176C684.165 24.176 683.355 24.0213 682.608 23.712C681.861 23.392 681.141 22.912 680.448 22.272L681.2 21.376C681.872 22.0053 682.501 22.4533 683.088 22.72C683.685 22.9867 684.347 23.12 685.072 23.12C685.648 23.12 686.16 23.024 686.608 22.832C687.067 22.6293 687.424 22.3573 687.68 22.016C687.936 21.6747 688.064 21.2853 688.064 20.848C688.064 20.2827 687.877 19.856 687.504 19.568C687.131 19.2693 686.485 19.04 685.568 18.88L683.76 18.576C682.736 18.3947 681.984 18.0853 681.504 17.648C681.035 17.2 680.8 16.6027 680.8 15.856C680.8 15.2267 680.96 14.672 681.28 14.192C681.611 13.7013 682.064 13.3173 682.64 13.04C683.216 12.7627 683.883 12.624 684.64 12.624C685.472 12.624 686.245 12.7413 686.96 12.976C687.675 13.2 688.379 13.5573 689.072 14.048L688.432 15.008C687.856 14.5707 687.248 14.24 686.608 14.016C685.968 13.7813 685.317 13.664 684.656 13.664C684.133 13.664 683.669 13.7547 683.264 13.936C682.869 14.1173 682.555 14.3627 682.32 14.672C682.096 14.9813 681.984 15.3333 681.984 15.728C681.984 16.2187 682.149 16.6027 682.48 16.88C682.811 17.1573 683.349 17.3547 684.096 17.472L685.888 17.776C687.083 17.9893 687.947 18.336 688.48 18.816C689.024 19.2853 689.296 19.9413 689.296 20.784C689.296 21.4347 689.109 22.016 688.736 22.528C688.373 23.04 687.872 23.4453 687.232 23.744C686.592 24.032 685.861 24.176 685.04 24.176ZM694.845 24.16C694.12 24.16 693.464 23.984 692.877 23.632C692.29 23.2693 691.826 22.784 691.485 22.176C691.144 21.5573 690.973 20.864 690.973 20.096C690.973 19.328 691.133 18.64 691.453 18.032C691.784 17.424 692.226 16.944 692.781 16.592C693.336 16.24 693.954 16.064 694.637 16.064C695.33 16.064 695.944 16.24 696.477 16.592C697.021 16.9333 697.448 17.4027 697.757 18C698.077 18.5867 698.237 19.2533 698.237 20V20.352H692.109C692.152 20.8853 692.296 21.3653 692.541 21.792C692.797 22.208 693.128 22.5387 693.533 22.784C693.949 23.0187 694.402 23.136 694.893 23.136C695.298 23.136 695.688 23.0667 696.061 22.928C696.445 22.7787 696.77 22.5813 697.037 22.336L697.773 23.12C697.325 23.472 696.861 23.7333 696.381 23.904C695.901 24.0747 695.389 24.16 694.845 24.16ZM692.141 19.52H697.085C697.032 19.0507 696.888 18.6347 696.653 18.272C696.429 17.8987 696.141 17.6053 695.789 17.392C695.448 17.1787 695.064 17.072 694.637 17.072C694.21 17.072 693.821 17.1787 693.469 17.392C693.117 17.5947 692.824 17.8827 692.589 18.256C692.365 18.6187 692.216 19.04 692.141 19.52ZM703.735 24.128C703.01 24.128 702.354 23.952 701.767 23.6C701.191 23.2373 700.733 22.752 700.391 22.144C700.05 21.5253 699.879 20.8427 699.879 20.096C699.879 19.3387 700.05 18.656 700.391 18.048C700.733 17.44 701.191 16.96 701.767 16.608C702.354 16.2453 703.01 16.064 703.735 16.064C704.311 16.064 704.861 16.1707 705.383 16.384C705.906 16.5973 706.359 16.896 706.743 17.28L705.991 18.096C705.714 17.7867 705.378 17.5467 704.983 17.376C704.589 17.2053 704.189 17.12 703.783 17.12C703.271 17.12 702.807 17.2533 702.391 17.52C701.986 17.7867 701.661 18.144 701.415 18.592C701.17 19.04 701.047 19.5413 701.047 20.096C701.047 20.6507 701.17 21.152 701.415 21.6C701.661 22.048 701.986 22.4053 702.391 22.672C702.807 22.9387 703.271 23.072 703.783 23.072C704.189 23.072 704.589 22.9867 704.983 22.816C705.378 22.6347 705.714 22.3947 705.991 22.096L706.743 22.912C706.359 23.296 705.906 23.5947 705.383 23.808C704.861 24.0213 704.311 24.128 703.735 24.128ZM711.594 24.128C710.868 24.128 710.218 23.952 709.642 23.6C709.066 23.248 708.612 22.768 708.282 22.16C707.951 21.552 707.786 20.864 707.786 20.096C707.786 19.328 707.951 18.64 708.282 18.032C708.612 17.424 709.066 16.944 709.642 16.592C710.218 16.24 710.868 16.064 711.594 16.064C712.308 16.064 712.948 16.24 713.514 16.592C714.09 16.944 714.543 17.424 714.874 18.032C715.204 18.64 715.37 19.328 715.37 20.096C715.37 20.864 715.204 21.552 714.874 22.16C714.543 22.768 714.09 23.248 713.514 23.6C712.948 23.952 712.308 24.128 711.594 24.128ZM711.578 23.104C712.09 23.104 712.543 22.976 712.938 22.72C713.332 22.4533 713.642 22.0907 713.866 21.632C714.1 21.1733 714.218 20.6613 714.218 20.096C714.218 19.52 714.1 19.008 713.866 18.56C713.642 18.1013 713.332 17.744 712.938 17.488C712.543 17.2213 712.09 17.088 711.578 17.088C711.066 17.088 710.612 17.2213 710.218 17.488C709.823 17.744 709.508 18.1013 709.274 18.56C709.05 19.008 708.938 19.52 708.938 20.096C708.938 20.6613 709.05 21.1733 709.274 21.632C709.508 22.0907 709.823 22.4533 710.218 22.72C710.612 22.976 711.066 23.104 711.578 23.104ZM717.419 24V16.192H718.587V17.456C718.885 16.9867 719.243 16.64 719.659 16.416C720.075 16.1813 720.544 16.064 721.067 16.064C721.632 16.064 722.123 16.1867 722.539 16.432C722.965 16.6667 723.296 17.0027 723.531 17.44C723.776 17.8667 723.899 18.368 723.899 18.944V24H722.731V19.28C722.731 18.5867 722.539 18.0427 722.155 17.648C721.781 17.2427 721.275 17.04 720.635 17.04C720.208 17.04 719.819 17.1413 719.467 17.344C719.115 17.5467 718.821 17.8453 718.587 18.24V24H717.419ZM729.495 24.112C728.823 24.112 728.215 23.936 727.671 23.584C727.127 23.2213 726.695 22.7413 726.375 22.144C726.055 21.536 725.895 20.8587 725.895 20.112C725.895 19.3547 726.055 18.6773 726.375 18.08C726.706 17.472 727.148 16.992 727.703 16.64C728.258 16.2773 728.876 16.096 729.559 16.096C730.039 16.096 730.487 16.192 730.903 16.384C731.319 16.5653 731.682 16.832 731.991 17.184V12.448L733.159 12.208V24H731.991V22.96C731.692 23.3333 731.33 23.6213 730.903 23.824C730.476 24.016 730.007 24.112 729.495 24.112ZM729.783 23.088C730.242 23.088 730.663 22.9973 731.047 22.816C731.431 22.6347 731.746 22.3787 731.991 22.048V18.176C731.735 17.8453 731.41 17.5893 731.015 17.408C730.631 17.216 730.22 17.12 729.783 17.12C729.26 17.12 728.791 17.248 728.375 17.504C727.97 17.76 727.644 18.112 727.399 18.56C727.164 19.008 727.047 19.52 727.047 20.096C727.047 20.6613 727.164 21.1733 727.399 21.632C727.644 22.08 727.97 22.4373 728.375 22.704C728.791 22.96 729.26 23.088 729.783 23.088ZM737.975 24.144C737.421 24.144 736.93 24.0427 736.503 23.84C736.077 23.6373 735.741 23.36 735.495 23.008C735.261 22.6453 735.143 22.2293 735.143 21.76C735.143 21.2907 735.266 20.8853 735.511 20.544C735.757 20.192 736.098 19.92 736.535 19.728C736.973 19.536 737.485 19.44 738.071 19.44C738.519 19.44 738.941 19.488 739.335 19.584C739.741 19.68 740.114 19.8347 740.455 20.048V18.976C740.455 18.336 740.285 17.856 739.943 17.536C739.602 17.2053 739.101 17.04 738.439 17.04C738.077 17.04 737.703 17.0933 737.319 17.2C736.946 17.3067 736.53 17.4773 736.071 17.712L735.639 16.816C736.685 16.3147 737.666 16.064 738.583 16.064C739.554 16.064 740.301 16.304 740.823 16.784C741.346 17.2533 741.607 17.9307 741.607 18.816V24H740.455V23.088C740.114 23.44 739.735 23.7067 739.319 23.888C738.903 24.0587 738.455 24.144 737.975 24.144ZM736.263 21.728C736.263 22.1867 736.439 22.5547 736.791 22.832C737.154 23.1093 737.629 23.248 738.215 23.248C738.653 23.248 739.053 23.1733 739.415 23.024C739.789 22.8747 740.135 22.6507 740.455 22.352V20.848C740.125 20.656 739.783 20.5173 739.431 20.432C739.079 20.336 738.685 20.288 738.247 20.288C737.65 20.288 737.17 20.4213 736.807 20.688C736.445 20.944 736.263 21.2907 736.263 21.728ZM743.981 24V16.192H745.149V17.792C745.352 17.248 745.64 16.8267 746.013 16.528C746.397 16.2187 746.835 16.064 747.325 16.064C747.464 16.064 747.592 16.0747 747.709 16.096C747.827 16.1067 747.944 16.1333 748.061 16.176V17.232C747.933 17.1893 747.795 17.1573 747.645 17.136C747.507 17.104 747.373 17.088 747.245 17.088C746.765 17.088 746.344 17.2267 745.981 17.504C745.629 17.7813 745.352 18.1707 745.149 18.672V24H743.981ZM750.099 27.504C749.853 27.504 749.603 27.4667 749.347 27.392V26.352C749.453 26.3733 749.565 26.3893 749.683 26.4C749.8 26.4107 749.901 26.416 749.987 26.416C750.285 26.416 750.531 26.336 750.723 26.176C750.925 26.016 751.096 25.7653 751.235 25.424L751.811 24L748.803 16.192H750.099L752.467 22.608L754.979 16.192H756.275L752.339 25.776C752.168 26.192 751.981 26.528 751.779 26.784C751.576 27.04 751.341 27.2213 751.075 27.328C750.808 27.4453 750.482 27.504 750.099 27.504Z" fill="#0066CC"/>
<path d="M870.424 24V12.8H871.656V22.912H877.976V24H870.424ZM879.903 24V16.192H881.071V24H879.903ZM880.495 14.256C880.26 14.256 880.057 14.176 879.887 14.016C879.727 13.8453 879.647 13.648 879.647 13.424C879.647 13.2 879.727 13.008 879.887 12.848C880.057 12.6773 880.26 12.592 880.495 12.592C880.729 12.592 880.927 12.6773 881.087 12.848C881.257 13.008 881.343 13.2 881.343 13.424C881.343 13.648 881.257 13.8453 881.087 14.016C880.927 14.176 880.729 14.256 880.495 14.256ZM883.466 24V16.192H884.634V17.456C884.932 16.9867 885.29 16.64 885.706 16.416C886.122 16.1813 886.591 16.064 887.114 16.064C887.679 16.064 888.17 16.1867 888.586 16.432C889.012 16.6667 889.343 17.0027 889.578 17.44C889.823 17.8667 889.946 18.368 889.946 18.944V24H888.778V19.28C888.778 18.5867 888.586 18.0427 888.202 17.648C887.828 17.2427 887.322 17.04 886.682 17.04C886.255 17.04 885.866 17.1413 885.514 17.344C885.162 17.5467 884.868 17.8453 884.634 18.24V24H883.466ZM892.294 24V12.448L893.462 12.208V19.696L897.174 16.192H898.582L894.614 19.904L898.758 24H897.222L893.462 20.272V24H892.294Z" fill="#0066CC"/>
<path d="M760 136C760 134.343 761.343 133 763 133H842C843.657 133 845 134.343 845 136V166C845 167.657 843.657 169 842 169H763C761.343 169 760 167.657 760 166V136Z" fill="#B1380B"/>
<path d="M778.656 155.896H781.216C782.027 155.896 782.752 155.699 783.392 155.304C784.032 154.909 784.539 154.376 784.912 153.704C785.296 153.021 785.488 152.253 785.488 151.4C785.488 150.547 785.296 149.784 784.912 149.112C784.539 148.429 784.032 147.891 783.392 147.496C782.752 147.101 782.027 146.904 781.216 146.904H778.656V155.896ZM777.424 157V145.8H781.136C781.957 145.8 782.709 145.944 783.392 146.232C784.085 146.509 784.677 146.904 785.168 147.416C785.669 147.917 786.053 148.509 786.32 149.192C786.597 149.864 786.736 150.6 786.736 151.4C786.736 152.2 786.597 152.941 786.32 153.624C786.053 154.296 785.669 154.888 785.168 155.4C784.677 155.901 784.085 156.296 783.392 156.584C782.709 156.861 781.957 157 781.136 157H777.424ZM791.1 157.144C790.546 157.144 790.055 157.043 789.628 156.84C789.202 156.637 788.866 156.36 788.62 156.008C788.386 155.645 788.268 155.229 788.268 154.76C788.268 154.291 788.391 153.885 788.636 153.544C788.882 153.192 789.223 152.92 789.66 152.728C790.098 152.536 790.61 152.44 791.196 152.44C791.644 152.44 792.066 152.488 792.46 152.584C792.866 152.68 793.239 152.835 793.58 153.048V151.976C793.58 151.336 793.41 150.856 793.068 150.536C792.727 150.205 792.226 150.04 791.564 150.04C791.202 150.04 790.828 150.093 790.444 150.2C790.071 150.307 789.655 150.477 789.196 150.712L788.764 149.816C789.81 149.315 790.791 149.064 791.708 149.064C792.679 149.064 793.426 149.304 793.948 149.784C794.471 150.253 794.732 150.931 794.732 151.816V157H793.58V156.088C793.239 156.44 792.86 156.707 792.444 156.888C792.028 157.059 791.58 157.144 791.1 157.144ZM789.388 154.728C789.388 155.187 789.564 155.555 789.916 155.832C790.279 156.109 790.754 156.248 791.34 156.248C791.778 156.248 792.178 156.173 792.54 156.024C792.914 155.875 793.26 155.651 793.58 155.352V153.848C793.25 153.656 792.908 153.517 792.556 153.432C792.204 153.336 791.81 153.288 791.372 153.288C790.775 153.288 790.295 153.421 789.932 153.688C789.57 153.944 789.388 154.291 789.388 154.728ZM797.106 157V149.192H798.274V150.456C798.573 149.987 798.93 149.64 799.346 149.416C799.762 149.181 800.232 149.064 800.754 149.064C801.32 149.064 801.81 149.187 802.226 149.432C802.653 149.667 802.984 150.003 803.218 150.44C803.464 150.867 803.586 151.368 803.586 151.944V157H802.418V152.28C802.418 151.587 802.226 151.043 801.842 150.648C801.469 150.243 800.962 150.04 800.322 150.04C799.896 150.04 799.506 150.141 799.154 150.344C798.802 150.547 798.509 150.845 798.274 151.24V157H797.106ZM809.55 160.504C809.028 160.504 808.5 160.429 807.966 160.28C807.444 160.141 806.958 159.944 806.51 159.688L807.006 158.792C807.486 159.037 807.924 159.219 808.318 159.336C808.713 159.453 809.108 159.512 809.502 159.512C810.217 159.512 810.756 159.341 811.118 159C811.492 158.659 811.678 158.163 811.678 157.512V155.944C811.38 156.317 811.017 156.605 810.59 156.808C810.164 157 809.694 157.096 809.182 157.096C808.51 157.096 807.902 156.92 807.358 156.568C806.814 156.205 806.382 155.725 806.062 155.128C805.742 154.52 805.582 153.843 805.582 153.096C805.582 152.349 805.742 151.677 806.062 151.08C806.393 150.472 806.836 149.992 807.39 149.64C807.945 149.277 808.564 149.096 809.246 149.096C809.737 149.096 810.19 149.192 810.606 149.384C811.022 149.565 811.385 149.837 811.694 150.2V149.192H812.846V157.496C812.846 158.467 812.564 159.208 811.998 159.72C811.433 160.243 810.617 160.504 809.55 160.504ZM809.47 156.088C809.929 156.088 810.35 155.997 810.734 155.816C811.118 155.624 811.433 155.363 811.678 155.032V151.176C811.422 150.845 811.097 150.589 810.702 150.408C810.318 150.216 809.908 150.12 809.47 150.12C808.948 150.12 808.478 150.248 808.062 150.504C807.657 150.76 807.332 151.112 807.086 151.56C806.852 152.008 806.734 152.52 806.734 153.096C806.734 153.661 806.852 154.173 807.086 154.632C807.332 155.08 807.657 155.437 808.062 155.704C808.478 155.96 808.948 156.088 809.47 156.088ZM818.767 157.16C818.042 157.16 817.386 156.984 816.799 156.632C816.212 156.269 815.748 155.784 815.407 155.176C815.066 154.557 814.895 153.864 814.895 153.096C814.895 152.328 815.055 151.64 815.375 151.032C815.706 150.424 816.148 149.944 816.703 149.592C817.258 149.24 817.876 149.064 818.559 149.064C819.252 149.064 819.866 149.24 820.399 149.592C820.943 149.933 821.37 150.403 821.679 151C821.999 151.587 822.159 152.253 822.159 153V153.352H816.031C816.074 153.885 816.218 154.365 816.463 154.792C816.719 155.208 817.05 155.539 817.455 155.784C817.871 156.019 818.324 156.136 818.815 156.136C819.22 156.136 819.61 156.067 819.983 155.928C820.367 155.779 820.692 155.581 820.959 155.336L821.695 156.12C821.247 156.472 820.783 156.733 820.303 156.904C819.823 157.075 819.311 157.16 818.767 157.16ZM816.063 152.52H821.007C820.954 152.051 820.81 151.635 820.575 151.272C820.351 150.899 820.063 150.605 819.711 150.392C819.37 150.179 818.986 150.072 818.559 150.072C818.132 150.072 817.743 150.179 817.391 150.392C817.039 150.595 816.746 150.883 816.511 151.256C816.287 151.619 816.138 152.04 816.063 152.52ZM824.153 157V149.192H825.321V150.792C825.524 150.248 825.812 149.827 826.185 149.528C826.569 149.219 827.006 149.064 827.497 149.064C827.636 149.064 827.764 149.075 827.881 149.096C827.998 149.107 828.116 149.133 828.233 149.176V150.232C828.105 150.189 827.966 150.157 827.817 150.136C827.678 150.104 827.545 150.088 827.417 150.088C826.937 150.088 826.516 150.227 826.153 150.504C825.801 150.781 825.524 151.171 825.321 151.672V157H824.153Z" fill="white"/>
<path d="M870.424 157V145.8H871.656V155.912H877.976V157H870.424ZM879.903 157V149.192H881.071V157H879.903ZM880.495 147.256C880.26 147.256 880.057 147.176 879.887 147.016C879.727 146.845 879.647 146.648 879.647 146.424C879.647 146.2 879.727 146.008 879.887 145.848C880.057 145.677 880.26 145.592 880.495 145.592C880.729 145.592 880.927 145.677 881.087 145.848C881.257 146.008 881.343 146.2 881.343 146.424C881.343 146.648 881.257 146.845 881.087 147.016C880.927 147.176 880.729 147.256 880.495 147.256ZM883.466 157V149.192H884.634V150.456C884.932 149.987 885.29 149.64 885.706 149.416C886.122 149.181 886.591 149.064 887.114 149.064C887.679 149.064 888.17 149.187 888.586 149.432C889.012 149.667 889.343 150.003 889.578 150.44C889.823 150.867 889.946 151.368 889.946 151.944V157H888.778V152.28C888.778 151.587 888.586 151.043 888.202 150.648C887.828 150.243 887.322 150.04 886.682 150.04C886.255 150.04 885.866 150.141 885.514 150.344C885.162 150.547 884.868 150.845 884.634 151.24V157H883.466ZM892.294 157V145.448L893.462 145.208V152.696L897.174 149.192H898.582L894.614 152.904L898.758 157H897.222L893.462 153.272V157H892.294Z" fill="#B1380B"/>
<path d="M379 136C379 134.343 380.343 133 382 133H464C465.657 133 467 134.343 467 136V166C467 167.657 465.657 169 464 169H382C380.343 169 379 167.657 379 166V136Z" fill="#0066CC"/>
<path d="M396.424 157V145.8H401.048C401.773 145.8 402.403 145.939 402.936 146.216C403.469 146.483 403.88 146.867 404.168 147.368C404.467 147.859 404.616 148.44 404.616 149.112C404.616 149.773 404.467 150.355 404.168 150.856C403.88 151.357 403.469 151.747 402.936 152.024C402.403 152.291 401.773 152.424 401.048 152.424H397.656V157H396.424ZM397.656 151.368H400.904C401.683 151.368 402.291 151.165 402.728 150.76C403.165 150.355 403.384 149.805 403.384 149.112C403.384 148.419 403.165 147.875 402.728 147.48C402.291 147.085 401.683 146.888 400.904 146.888H397.656V151.368ZM406.591 157V149.192H407.759V150.792C407.961 150.248 408.249 149.827 408.623 149.528C409.007 149.219 409.444 149.064 409.935 149.064C410.073 149.064 410.201 149.075 410.319 149.096C410.436 149.107 410.553 149.133 410.671 149.176V150.232C410.543 150.189 410.404 150.157 410.255 150.136C410.116 150.104 409.983 150.088 409.855 150.088C409.375 150.088 408.953 150.227 408.591 150.504C408.239 150.781 407.961 151.171 407.759 151.672V157H406.591ZM412.2 157V149.192H413.368V157H412.2ZM412.792 147.256C412.557 147.256 412.354 147.176 412.184 147.016C412.024 146.845 411.944 146.648 411.944 146.424C411.944 146.2 412.024 146.008 412.184 145.848C412.354 145.677 412.557 145.592 412.792 145.592C413.026 145.592 413.224 145.677 413.384 145.848C413.554 146.008 413.64 146.2 413.64 146.424C413.64 146.648 413.554 146.845 413.384 147.016C413.224 147.176 413.026 147.256 412.792 147.256ZM415.763 157V149.192H416.931V150.408C417.229 149.96 417.571 149.624 417.955 149.4C418.339 149.176 418.771 149.064 419.251 149.064C419.805 149.064 420.291 149.203 420.707 149.48C421.123 149.747 421.437 150.115 421.651 150.584C421.96 150.083 422.328 149.704 422.755 149.448C423.192 149.192 423.693 149.064 424.259 149.064C424.781 149.064 425.24 149.187 425.635 149.432C426.04 149.677 426.355 150.019 426.579 150.456C426.803 150.883 426.915 151.384 426.915 151.96V157H425.747V152.248C425.747 151.565 425.576 151.027 425.235 150.632C424.893 150.237 424.424 150.04 423.827 150.04C423.421 150.04 423.053 150.141 422.723 150.344C422.403 150.547 422.12 150.856 421.875 151.272C421.896 151.379 421.912 151.491 421.923 151.608C421.933 151.725 421.939 151.843 421.939 151.96V157H420.771V152.248C420.771 151.565 420.595 151.027 420.243 150.632C419.901 150.237 419.432 150.04 418.835 150.04C418.035 150.04 417.4 150.424 416.931 151.192V157H415.763ZM431.694 157.144C431.139 157.144 430.649 157.043 430.222 156.84C429.795 156.637 429.459 156.36 429.214 156.008C428.979 155.645 428.862 155.229 428.862 154.76C428.862 154.291 428.985 153.885 429.23 153.544C429.475 153.192 429.817 152.92 430.254 152.728C430.691 152.536 431.203 152.44 431.79 152.44C432.238 152.44 432.659 152.488 433.054 152.584C433.459 152.68 433.833 152.835 434.174 153.048V151.976C434.174 151.336 434.003 150.856 433.662 150.536C433.321 150.205 432.819 150.04 432.158 150.04C431.795 150.04 431.422 150.093 431.038 150.2C430.665 150.307 430.249 150.477 429.79 150.712L429.358 149.816C430.403 149.315 431.385 149.064 432.302 149.064C433.273 149.064 434.019 149.304 434.542 149.784C435.065 150.253 435.326 150.931 435.326 151.816V157H434.174V156.088C433.833 156.44 433.454 156.707 433.038 156.888C432.622 157.059 432.174 157.144 431.694 157.144ZM429.982 154.728C429.982 155.187 430.158 155.555 430.51 155.832C430.873 156.109 431.347 156.248 431.934 156.248C432.371 156.248 432.771 156.173 433.134 156.024C433.507 155.875 433.854 155.651 434.174 155.352V153.848C433.843 153.656 433.502 153.517 433.15 153.432C432.798 153.336 432.403 153.288 431.966 153.288C431.369 153.288 430.889 153.421 430.526 153.688C430.163 153.944 429.982 154.291 429.982 154.728ZM437.7 157V149.192H438.868V150.792C439.071 150.248 439.359 149.827 439.732 149.528C440.116 149.219 440.553 149.064 441.044 149.064C441.183 149.064 441.311 149.075 441.428 149.096C441.545 149.107 441.663 149.133 441.78 149.176V150.232C441.652 150.189 441.513 150.157 441.364 150.136C441.225 150.104 441.092 150.088 440.964 150.088C440.484 150.088 440.063 150.227 439.7 150.504C439.348 150.781 439.071 151.171 438.868 151.672V157H437.7ZM443.817 160.504C443.572 160.504 443.321 160.467 443.065 160.392V159.352C443.172 159.373 443.284 159.389 443.401 159.4C443.519 159.411 443.62 159.416 443.705 159.416C444.004 159.416 444.249 159.336 444.441 159.176C444.644 159.016 444.815 158.765 444.953 158.424L445.529 157L442.521 149.192H443.817L446.185 155.608L448.697 149.192H449.993L446.057 158.776C445.887 159.192 445.7 159.528 445.497 159.784C445.295 160.04 445.06 160.221 444.793 160.328C444.527 160.445 444.201 160.504 443.817 160.504Z" fill="white"/>
<path d="M492.424 157V145.8H493.656V155.912H499.976V157H492.424ZM501.903 157V149.192H503.071V157H501.903ZM502.495 147.256C502.26 147.256 502.057 147.176 501.887 147.016C501.727 146.845 501.647 146.648 501.647 146.424C501.647 146.2 501.727 146.008 501.887 145.848C502.057 145.677 502.26 145.592 502.495 145.592C502.729 145.592 502.927 145.677 503.087 145.848C503.257 146.008 503.343 146.2 503.343 146.424C503.343 146.648 503.257 146.845 503.087 147.016C502.927 147.176 502.729 147.256 502.495 147.256ZM505.466 157V149.192H506.634V150.456C506.932 149.987 507.29 149.64 507.706 149.416C508.122 149.181 508.591 149.064 509.114 149.064C509.679 149.064 510.17 149.187 510.586 149.432C511.012 149.667 511.343 150.003 511.578 150.44C511.823 150.867 511.946 151.368 511.946 151.944V157H510.778V152.28C510.778 151.587 510.586 151.043 510.202 150.648C509.828 150.243 509.322 150.04 508.682 150.04C508.255 150.04 507.866 150.141 507.514 150.344C507.162 150.547 506.868 150.845 506.634 151.24V157H505.466ZM514.294 157V145.448L515.462 145.208V152.696L519.174 149.192H520.582L516.614 152.904L520.758 157H519.222L515.462 153.272V157H514.294Z" fill="#0066CC"/>
<path d="M0 136C0 134.343 1.34315 133 3 133H85C86.6569 133 88 134.343 88 136V166C88 167.657 86.6569 169 85 169H3C1.34315 169 0 167.657 0 166V136Z" fill="#0066CC"/>
<path d="M17.424 157V145.8H22.048C22.7733 145.8 23.4027 145.939 23.936 146.216C24.4693 146.483 24.88 146.867 25.168 147.368C25.4667 147.859 25.616 148.44 25.616 149.112C25.616 149.773 25.4667 150.355 25.168 150.856C24.88 151.357 24.4693 151.747 23.936 152.024C23.4027 152.291 22.7733 152.424 22.048 152.424H18.656V157H17.424ZM18.656 151.368H21.904C22.6827 151.368 23.2907 151.165 23.728 150.76C24.1653 150.355 24.384 149.805 24.384 149.112C24.384 148.419 24.1653 147.875 23.728 147.48C23.2907 147.085 22.6827 146.888 21.904 146.888H18.656V151.368ZM27.5906 157V149.192H28.7586V150.792C28.9613 150.248 29.2493 149.827 29.6226 149.528C30.0066 149.219 30.444 149.064 30.9346 149.064C31.0733 149.064 31.2013 149.075 31.3186 149.096C31.436 149.107 31.5533 149.133 31.6706 149.176V150.232C31.5426 150.189 31.404 150.157 31.2546 150.136C31.116 150.104 30.9826 150.088 30.8546 150.088C30.3746 150.088 29.9533 150.227 29.5906 150.504C29.2386 150.781 28.9613 151.171 28.7586 151.672V157H27.5906ZM33.1996 157V149.192H34.3676V157H33.1996ZM33.7916 147.256C33.557 147.256 33.3543 147.176 33.1836 147.016C33.0236 146.845 32.9436 146.648 32.9436 146.424C32.9436 146.2 33.0236 146.008 33.1836 145.848C33.3543 145.677 33.557 145.592 33.7916 145.592C34.0263 145.592 34.2236 145.677 34.3836 145.848C34.5543 146.008 34.6396 146.2 34.6396 146.424C34.6396 146.648 34.5543 146.845 34.3836 147.016C34.2236 147.176 34.0263 147.256 33.7916 147.256ZM36.7625 157V149.192H37.9305V150.408C38.2292 149.96 38.5705 149.624 38.9545 149.4C39.3385 149.176 39.7705 149.064 40.2505 149.064C40.8052 149.064 41.2905 149.203 41.7065 149.48C42.1225 149.747 42.4372 150.115 42.6505 150.584C42.9598 150.083 43.3278 149.704 43.7545 149.448C44.1918 149.192 44.6932 149.064 45.2585 149.064C45.7812 149.064 46.2398 149.187 46.6345 149.432C47.0398 149.677 47.3545 150.019 47.5785 150.456C47.8025 150.883 47.9145 151.384 47.9145 151.96V157H46.7465V152.248C46.7465 151.565 46.5758 151.027 46.2345 150.632C45.8932 150.237 45.4238 150.04 44.8265 150.04C44.4212 150.04 44.0532 150.141 43.7225 150.344C43.4025 150.547 43.1198 150.856 42.8745 151.272C42.8958 151.379 42.9118 151.491 42.9225 151.608C42.9332 151.725 42.9385 151.843 42.9385 151.96V157H41.7705V152.248C41.7705 151.565 41.5945 151.027 41.2425 150.632C40.9012 150.237 40.4318 150.04 39.8345 150.04C39.0345 150.04 38.3998 150.424 37.9305 151.192V157H36.7625ZM52.6941 157.144C52.1395 157.144 51.6488 157.043 51.2221 156.84C50.7955 156.637 50.4595 156.36 50.2141 156.008C49.9795 155.645 49.8621 155.229 49.8621 154.76C49.8621 154.291 49.9848 153.885 50.2301 153.544C50.4755 153.192 50.8168 152.92 51.2541 152.728C51.6915 152.536 52.2035 152.44 52.7901 152.44C53.2381 152.44 53.6595 152.488 54.0541 152.584C54.4595 152.68 54.8328 152.835 55.1741 153.048V151.976C55.1741 151.336 55.0035 150.856 54.6621 150.536C54.3208 150.205 53.8195 150.04 53.1581 150.04C52.7955 150.04 52.4221 150.093 52.0381 150.2C51.6648 150.307 51.2488 150.477 50.7901 150.712L50.3581 149.816C51.4035 149.315 52.3848 149.064 53.3021 149.064C54.2728 149.064 55.0195 149.304 55.5421 149.784C56.0648 150.253 56.3261 150.931 56.3261 151.816V157H55.1741V156.088C54.8328 156.44 54.4541 156.707 54.0381 156.888C53.6221 157.059 53.1741 157.144 52.6941 157.144ZM50.9821 154.728C50.9821 155.187 51.1581 155.555 51.5101 155.832C51.8728 156.109 52.3475 156.248 52.9341 156.248C53.3715 156.248 53.7715 156.173 54.1341 156.024C54.5075 155.875 54.8541 155.651 55.1741 155.352V153.848C54.8435 153.656 54.5021 153.517 54.1501 153.432C53.7981 153.336 53.4035 153.288 52.9661 153.288C52.3688 153.288 51.8888 153.421 51.5261 153.688C51.1635 153.944 50.9821 154.291 50.9821 154.728ZM58.7 157V149.192H59.868V150.792C60.0707 150.248 60.3587 149.827 60.732 149.528C61.116 149.219 61.5533 149.064 62.044 149.064C62.1827 149.064 62.3107 149.075 62.428 149.096C62.5453 149.107 62.6627 149.133 62.78 149.176V150.232C62.652 150.189 62.5133 150.157 62.364 150.136C62.2253 150.104 62.092 150.088 61.964 150.088C61.484 150.088 61.0627 150.227 60.7 150.504C60.348 150.781 60.0707 151.171 59.868 151.672V157H58.7ZM64.8173 160.504C64.5719 160.504 64.3213 160.467 64.0653 160.392V159.352C64.1719 159.373 64.2839 159.389 64.4013 159.4C64.5186 159.411 64.6199 159.416 64.7053 159.416C65.0039 159.416 65.2493 159.336 65.4413 159.176C65.6439 159.016 65.8146 158.765 65.9533 158.424L66.5293 157L63.5213 149.192H64.8173L67.1853 155.608L69.6973 149.192H70.9933L67.0573 158.776C66.8866 159.192 66.6999 159.528 66.4973 159.784C66.2946 160.04 66.0599 160.221 65.7933 160.328C65.5266 160.445 65.2012 160.504 64.8173 160.504Z" fill="white"/>
<mask id="path-28-inside-3_123_11498" fill="white">
<path d="M104 136C104 134.343 105.343 133 107 133H210C211.657 133 213 134.343 213 136V166C213 167.657 211.657 169 210 169H107C105.343 169 104 167.657 104 166V136Z"/>
</mask>
<path d="M107 133V134H210V133V132H107V133ZM213 136H212V166H213H214V136H213ZM210 169V168H107V169V170H210V169ZM104 166H105V136H104H103V166H104ZM107 169V168C105.895 168 105 167.105 105 166H104H103C103 168.209 104.791 170 107 170V169ZM213 166H212C212 167.105 211.105 168 210 168V169V170C212.209 170 214 168.209 214 166H213ZM210 133V134C211.105 134 212 134.895 212 136H213H214C214 133.791 212.209 132 210 132V133ZM107 133V132C104.791 132 103 133.791 103 136H104H105C105 134.895 105.895 134 107 134V133Z" fill="#0066CC" mask="url(#path-28-inside-3_123_11498)"/>
<path d="M125.04 157.176C124.165 157.176 123.355 157.021 122.608 156.712C121.861 156.392 121.141 155.912 120.448 155.272L121.2 154.376C121.872 155.005 122.501 155.453 123.088 155.72C123.685 155.987 124.347 156.12 125.072 156.12C125.648 156.12 126.16 156.024 126.608 155.832C127.067 155.629 127.424 155.357 127.68 155.016C127.936 154.675 128.064 154.285 128.064 153.848C128.064 153.283 127.877 152.856 127.504 152.568C127.131 152.269 126.485 152.04 125.568 151.88L123.76 151.576C122.736 151.395 121.984 151.085 121.504 150.648C121.035 150.2 120.8 149.603 120.8 148.856C120.8 148.227 120.96 147.672 121.28 147.192C121.611 146.701 122.064 146.317 122.64 146.04C123.216 145.763 123.883 145.624 124.64 145.624C125.472 145.624 126.245 145.741 126.96 145.976C127.675 146.2 128.379 146.557 129.072 147.048L128.432 148.008C127.856 147.571 127.248 147.24 126.608 147.016C125.968 146.781 125.317 146.664 124.656 146.664C124.133 146.664 123.669 146.755 123.264 146.936C122.869 147.117 122.555 147.363 122.32 147.672C122.096 147.981 121.984 148.333 121.984 148.728C121.984 149.219 122.149 149.603 122.48 149.88C122.811 150.157 123.349 150.355 124.096 150.472L125.888 150.776C127.083 150.989 127.947 151.336 128.48 151.816C129.024 152.285 129.296 152.941 129.296 153.784C129.296 154.435 129.109 155.016 128.736 155.528C128.373 156.04 127.872 156.445 127.232 156.744C126.592 157.032 125.861 157.176 125.04 157.176ZM134.845 157.16C134.12 157.16 133.464 156.984 132.877 156.632C132.29 156.269 131.826 155.784 131.485 155.176C131.144 154.557 130.973 153.864 130.973 153.096C130.973 152.328 131.133 151.64 131.453 151.032C131.784 150.424 132.226 149.944 132.781 149.592C133.336 149.24 133.954 149.064 134.637 149.064C135.33 149.064 135.944 149.24 136.477 149.592C137.021 149.933 137.448 150.403 137.757 151C138.077 151.587 138.237 152.253 138.237 153V153.352H132.109C132.152 153.885 132.296 154.365 132.541 154.792C132.797 155.208 133.128 155.539 133.533 155.784C133.949 156.019 134.402 156.136 134.893 156.136C135.298 156.136 135.688 156.067 136.061 155.928C136.445 155.779 136.77 155.581 137.037 155.336L137.773 156.12C137.325 156.472 136.861 156.733 136.381 156.904C135.901 157.075 135.389 157.16 134.845 157.16ZM132.141 152.52H137.085C137.032 152.051 136.888 151.635 136.653 151.272C136.429 150.899 136.141 150.605 135.789 150.392C135.448 150.179 135.064 150.072 134.637 150.072C134.21 150.072 133.821 150.179 133.469 150.392C133.117 150.595 132.824 150.883 132.589 151.256C132.365 151.619 132.216 152.04 132.141 152.52ZM143.735 157.128C143.01 157.128 142.354 156.952 141.767 156.6C141.191 156.237 140.733 155.752 140.391 155.144C140.05 154.525 139.879 153.843 139.879 153.096C139.879 152.339 140.05 151.656 140.391 151.048C140.733 150.44 141.191 149.96 141.767 149.608C142.354 149.245 143.01 149.064 143.735 149.064C144.311 149.064 144.861 149.171 145.383 149.384C145.906 149.597 146.359 149.896 146.743 150.28L145.991 151.096C145.714 150.787 145.378 150.547 144.983 150.376C144.589 150.205 144.189 150.12 143.783 150.12C143.271 150.12 142.807 150.253 142.391 150.52C141.986 150.787 141.661 151.144 141.415 151.592C141.17 152.04 141.047 152.541 141.047 153.096C141.047 153.651 141.17 154.152 141.415 154.6C141.661 155.048 141.986 155.405 142.391 155.672C142.807 155.939 143.271 156.072 143.783 156.072C144.189 156.072 144.589 155.987 144.983 155.816C145.378 155.635 145.714 155.395 145.991 155.096L146.743 155.912C146.359 156.296 145.906 156.595 145.383 156.808C144.861 157.021 144.311 157.128 143.735 157.128ZM151.594 157.128C150.868 157.128 150.218 156.952 149.642 156.6C149.066 156.248 148.612 155.768 148.282 155.16C147.951 154.552 147.786 153.864 147.786 153.096C147.786 152.328 147.951 151.64 148.282 151.032C148.612 150.424 149.066 149.944 149.642 149.592C150.218 149.24 150.868 149.064 151.594 149.064C152.308 149.064 152.948 149.24 153.514 149.592C154.09 149.944 154.543 150.424 154.874 151.032C155.204 151.64 155.37 152.328 155.37 153.096C155.37 153.864 155.204 154.552 154.874 155.16C154.543 155.768 154.09 156.248 153.514 156.6C152.948 156.952 152.308 157.128 151.594 157.128ZM151.578 156.104C152.09 156.104 152.543 155.976 152.938 155.72C153.332 155.453 153.642 155.091 153.866 154.632C154.1 154.173 154.218 153.661 154.218 153.096C154.218 152.52 154.1 152.008 153.866 151.56C153.642 151.101 153.332 150.744 152.938 150.488C152.543 150.221 152.09 150.088 151.578 150.088C151.066 150.088 150.612 150.221 150.218 150.488C149.823 150.744 149.508 151.101 149.274 151.56C149.05 152.008 148.938 152.52 148.938 153.096C148.938 153.661 149.05 154.173 149.274 154.632C149.508 155.091 149.823 155.453 150.218 155.72C150.612 155.976 151.066 156.104 151.578 156.104ZM157.419 157V149.192H158.587V150.456C158.885 149.987 159.243 149.64 159.659 149.416C160.075 149.181 160.544 149.064 161.067 149.064C161.632 149.064 162.123 149.187 162.539 149.432C162.965 149.667 163.296 150.003 163.531 150.44C163.776 150.867 163.899 151.368 163.899 151.944V157H162.731V152.28C162.731 151.587 162.539 151.043 162.155 150.648C161.781 150.243 161.275 150.04 160.635 150.04C160.208 150.04 159.819 150.141 159.467 150.344C159.115 150.547 158.821 150.845 158.587 151.24V157H157.419ZM169.495 157.112C168.823 157.112 168.215 156.936 167.671 156.584C167.127 156.221 166.695 155.741 166.375 155.144C166.055 154.536 165.895 153.859 165.895 153.112C165.895 152.355 166.055 151.677 166.375 151.08C166.706 150.472 167.148 149.992 167.703 149.64C168.258 149.277 168.876 149.096 169.559 149.096C170.039 149.096 170.487 149.192 170.903 149.384C171.319 149.565 171.682 149.832 171.991 150.184V145.448L173.159 145.208V157H171.991V155.96C171.692 156.333 171.33 156.621 170.903 156.824C170.476 157.016 170.007 157.112 169.495 157.112ZM169.783 156.088C170.242 156.088 170.663 155.997 171.047 155.816C171.431 155.635 171.746 155.379 171.991 155.048V151.176C171.735 150.845 171.41 150.589 171.015 150.408C170.631 150.216 170.22 150.12 169.783 150.12C169.26 150.12 168.791 150.248 168.375 150.504C167.97 150.76 167.644 151.112 167.399 151.56C167.164 152.008 167.047 152.52 167.047 153.096C167.047 153.661 167.164 154.173 167.399 154.632C167.644 155.08 167.97 155.437 168.375 155.704C168.791 155.96 169.26 156.088 169.783 156.088ZM177.975 157.144C177.421 157.144 176.93 157.043 176.503 156.84C176.077 156.637 175.741 156.36 175.495 156.008C175.261 155.645 175.143 155.229 175.143 154.76C175.143 154.291 175.266 153.885 175.511 153.544C175.757 153.192 176.098 152.92 176.535 152.728C176.973 152.536 177.485 152.44 178.071 152.44C178.519 152.44 178.941 152.488 179.335 152.584C179.741 152.68 180.114 152.835 180.455 153.048V151.976C180.455 151.336 180.285 150.856 179.943 150.536C179.602 150.205 179.101 150.04 178.439 150.04C178.077 150.04 177.703 150.093 177.319 150.2C176.946 150.307 176.53 150.477 176.071 150.712L175.639 149.816C176.685 149.315 177.666 149.064 178.583 149.064C179.554 149.064 180.301 149.304 180.823 149.784C181.346 150.253 181.607 150.931 181.607 151.816V157H180.455V156.088C180.114 156.44 179.735 156.707 179.319 156.888C178.903 157.059 178.455 157.144 177.975 157.144ZM176.263 154.728C176.263 155.187 176.439 155.555 176.791 155.832C177.154 156.109 177.629 156.248 178.215 156.248C178.653 156.248 179.053 156.173 179.415 156.024C179.789 155.875 180.135 155.651 180.455 155.352V153.848C180.125 153.656 179.783 153.517 179.431 153.432C179.079 153.336 178.685 153.288 178.247 153.288C177.65 153.288 177.17 153.421 176.807 153.688C176.445 153.944 176.263 154.291 176.263 154.728ZM183.981 157V149.192H185.149V150.792C185.352 150.248 185.64 149.827 186.013 149.528C186.397 149.219 186.835 149.064 187.325 149.064C187.464 149.064 187.592 149.075 187.709 149.096C187.827 149.107 187.944 149.133 188.061 149.176V150.232C187.933 150.189 187.795 150.157 187.645 150.136C187.507 150.104 187.373 150.088 187.245 150.088C186.765 150.088 186.344 150.227 185.981 150.504C185.629 150.781 185.352 151.171 185.149 151.672V157H183.981ZM190.099 160.504C189.853 160.504 189.603 160.467 189.347 160.392V159.352C189.453 159.373 189.565 159.389 189.683 159.4C189.8 159.411 189.901 159.416 189.987 159.416C190.285 159.416 190.531 159.336 190.723 159.176C190.925 159.016 191.096 158.765 191.235 158.424L191.811 157L188.803 149.192H190.099L192.467 155.608L194.979 149.192H196.275L192.339 158.776C192.168 159.192 191.981 159.528 191.779 159.784C191.576 160.04 191.341 160.221 191.075 160.328C190.808 160.445 190.482 160.504 190.099 160.504Z" fill="#0066CC"/>
</svg>
