<svg xmlns="http://www.w3.org/2000/svg" xmlns:xlink="http://www.w3.org/1999/xlink" width="287" height="361" viewBox="0 0 287 361"><defs><style>.a,.f{fill:#fff;}.a{stroke:#d2d2d2;}.b{fill:#06c;}.c{fill:#151515;}.d,.h{fill:none;}.e{fill:#6a6e73;}.g{fill:#1b8793;}.h{stroke:#f0f;opacity:0.25;}.i{fill:#51a549;}.j{stroke:none;}.k{filter:url(#a);}</style><filter id="a" x="0" y="0" width="274" height="361" filterUnits="userSpaceOnUse"><feOffset dy="3" input="SourceAlpha"/><feGaussianBlur stdDeviation="2" result="b"/><feFlood flood-opacity="0.102"/><feComposite operator="in" in2="b"/><feComposite in="SourceGraphic"/></filter></defs><g transform="translate(-723 -10608)"><g class="k" transform="matrix(1, 0, 0, 1, 723, 10608)"><g class="a" transform="translate(6 3)"><path class="j" d="M3,0H262a0,0,0,0,1,0,0V349a0,0,0,0,1,0,0H3a3,3,0,0,1-3-3V3A3,3,0,0,1,3,0Z"/><path class="d" d="M3,.5H261a.5.5,0,0,1,.5.5V348a.5.5,0,0,1-.5.5H3A2.5,2.5,0,0,1,.5,346V3A2.5,2.5,0,0,1,3,.5Z"/></g></g><path class="b" d="M7,0,5.5,1.5,10,6H0V8H10L5.5,12.5,7,14l7-7Z" transform="translate(892 10918)"/><path class="b" d="M13.644-6.282v-.792H7.128v2.268h3.726A3.4,3.4,0,0,1,7.362-2.178,3.991,3.991,0,0,1,3.33-6.3a3.95,3.95,0,0,1,3.96-4.1,4.349,4.349,0,0,1,3.42,1.638l1.818-1.674A6.752,6.752,0,0,0,7.29-12.8,6.505,6.505,0,0,0,.648-6.3,6.525,6.525,0,0,0,7.326.2,6.221,6.221,0,0,0,13.644-6.282Zm1.188,1.6A4.882,4.882,0,0,0,19.872.18a5.622,5.622,0,0,0,3.8-1.35L22.05-2.646a2.952,2.952,0,0,1-2.07.756,2.7,2.7,0,0,1-2.664-1.962H24.3V-4.5a4.733,4.733,0,0,0-4.644-5.04A4.787,4.787,0,0,0,14.832-4.68ZM19.6-7.506a2.384,2.384,0,0,1,2.286,1.89H17.3A2.355,2.355,0,0,1,19.6-7.506Zm7.128,4.86c0,1.854,1.116,2.79,3.168,2.79a7.908,7.908,0,0,0,1.908-.288V-2.16a4.1,4.1,0,0,1-1.314.216c-.954,0-1.3-.324-1.3-1.206V-7.308H31.86v-2.07H29.2V-12.33l-2.466.558v2.394H24.8v2.07H26.73Zm11.25,0c0,1.854,1.116,2.79,3.168,2.79a7.908,7.908,0,0,0,1.908-.288V-2.16a4.1,4.1,0,0,1-1.314.216c-.954,0-1.3-.324-1.3-1.206V-7.308H43.11v-2.07H40.446V-12.33l-2.466.558v2.394H36.054v2.07H37.98ZM50.652,0H53.1V-5.832a3.558,3.558,0,0,0-3.708-3.726,3.912,3.912,0,0,0-2.628.936V-13.14L44.3-12.6V0h2.466V-6.5a2.2,2.2,0,0,1,1.926-.936,1.842,1.842,0,0,1,1.962,1.962Zm3.924-4.68A4.882,4.882,0,0,0,59.616.18a5.622,5.622,0,0,0,3.8-1.35l-1.62-1.476a2.952,2.952,0,0,1-2.07.756A2.7,2.7,0,0,1,57.06-3.852h6.984V-4.5A4.733,4.733,0,0,0,59.4-9.54,4.787,4.787,0,0,0,54.576-4.68Zm4.77-2.826a2.384,2.384,0,0,1,2.286,1.89h-4.59A2.355,2.355,0,0,1,59.346-7.506Zm9.4,2.826A4.882,4.882,0,0,0,73.782.18a5.622,5.622,0,0,0,3.8-1.35L75.96-2.646a2.952,2.952,0,0,1-2.07.756,2.7,2.7,0,0,1-2.664-1.962H78.21V-4.5a4.733,4.733,0,0,0-4.644-5.04A4.787,4.787,0,0,0,68.742-4.68Zm4.77-2.826A2.384,2.384,0,0,1,75.8-5.616h-4.59A2.355,2.355,0,0,1,73.512-7.506Zm6.12,1.332v2.088H86.4V-6.174ZM97.956-4.68A4.745,4.745,0,0,0,93.186-9.5a4.342,4.342,0,0,0-2.628.864v-4.5l-2.466.54V0h2.43V-.63a4.708,4.708,0,0,0,2.592.756A4.768,4.768,0,0,0,97.956-4.68ZM92.79-7.4A2.686,2.686,0,0,1,95.526-4.68,2.675,2.675,0,0,1,92.79-1.962a3.171,3.171,0,0,1-2.232-.882V-6.5A3.008,3.008,0,0,1,92.79-7.4ZM99.036-4.68a4.873,4.873,0,0,0,5,4.86,4.873,4.873,0,0,0,5-4.86,4.888,4.888,0,0,0-5-4.878A4.888,4.888,0,0,0,99.036-4.68Zm7.6,0a2.634,2.634,0,0,1-2.592,2.718,2.634,2.634,0,0,1-2.592-2.718,2.638,2.638,0,0,1,2.592-2.736A2.627,2.627,0,0,1,106.632-4.68Zm3.492,0a4.873,4.873,0,0,0,5,4.86,4.873,4.873,0,0,0,5-4.86,4.888,4.888,0,0,0-5-4.878A4.888,4.888,0,0,0,110.124-4.68Zm7.6,0a2.634,2.634,0,0,1-2.592,2.718,2.634,2.634,0,0,1-2.592-2.718,2.638,2.638,0,0,1,2.592-2.736A2.627,2.627,0,0,1,117.72-4.68ZM121.608,0h2.466V-4.3l3.96,4.3H131.2l-4.68-5.076,4.41-4.3h-2.808l-4.05,3.96V-13.14l-2.466.54Z" transform="translate(753 10931)"/><path class="c" d="M.448,5.888H4.32V16H5.552V5.888H9.408V4.8H.448ZM16.336,16H17.5V10.944a2.722,2.722,0,0,0-2.816-2.88,2.813,2.813,0,0,0-2.5,1.408V4.56l-1.168.24V16h1.168V10.24a2.32,2.32,0,0,1,2.048-1.2,2.023,2.023,0,0,1,2.1,2.24ZM20.4,6.224a.84.84,0,1,0-.832-.848A.83.83,0,0,0,20.4,6.224Zm.576,1.968H19.808V16h1.168Zm1.584,6.72a4.33,4.33,0,0,0,3.184,1.232c1.76,0,3.04-1.088,3.024-2.416.016-1.184-.736-1.824-2.272-2.1l-1.3-.24c-.96-.176-1.36-.448-1.36-1.12,0-.768.72-1.248,1.7-1.248a3.943,3.943,0,0,1,2.416.88l.624-.8a4.858,4.858,0,0,0-2.992-1.04c-1.648,0-2.816.96-2.816,2.288,0,1.168.752,1.792,2.208,2.048l1.3.224c.976.176,1.392.512,1.392,1.168,0,.768-.7,1.408-1.968,1.408a3.5,3.5,0,0,1-2.464-1.024ZM41.488,12.1a3.78,3.78,0,0,0-3.616-4A3.091,3.091,0,0,0,35.36,9.28V4.56l-1.168.24V16h1.152V14.976a3.081,3.081,0,0,0,2.464,1.136A3.8,3.8,0,0,0,41.488,12.1Zm-3.9-2.976a2.8,2.8,0,0,1,2.736,2.992,2.769,2.769,0,0,1-4.96,1.9V10.192A2.688,2.688,0,0,1,37.584,9.12ZM43.12,12.1a3.816,3.816,0,1,0,7.616,0,3.814,3.814,0,1,0-7.616,0Zm6.448.016a2.663,2.663,0,1,1-5.28,0,2.664,2.664,0,1,1,5.28,0Zm2.8-.016a3.816,3.816,0,1,0,7.616,0,3.814,3.814,0,1,0-7.616,0Zm6.448.016a2.663,2.663,0,1,1-5.28,0,2.664,2.664,0,1,1,5.28,0ZM61.952,16H63.12V12.272L66.88,16h1.552l-4.16-4.1L68.24,8.192H66.832l-3.712,3.52V4.56l-1.168.24ZM72.9,14.912a4.33,4.33,0,0,0,3.184,1.232c1.76,0,3.04-1.088,3.024-2.416.016-1.184-.736-1.824-2.272-2.1l-1.3-.24c-.96-.176-1.36-.448-1.36-1.12,0-.768.72-1.248,1.7-1.248a3.943,3.943,0,0,1,2.416.88l.624-.8a4.858,4.858,0,0,0-2.992-1.04c-1.648,0-2.816.96-2.816,2.288,0,1.168.752,1.792,2.208,2.048l1.3.224c.976.176,1.392.512,1.392,1.168,0,.768-.7,1.408-1.968,1.408a3.5,3.5,0,0,1-2.464-1.024ZM86.112,16H87.28V10.944a2.722,2.722,0,0,0-2.816-2.88,2.813,2.813,0,0,0-2.5,1.408V4.56L80.8,4.8V16h1.168V10.24a2.32,2.32,0,0,1,2.048-1.2,2.023,2.023,0,0,1,2.1,2.24Zm3.136-3.9a3.816,3.816,0,1,0,7.616,0,3.814,3.814,0,1,0-7.616,0Zm6.448.016a2.663,2.663,0,1,1-5.28,0,2.664,2.664,0,1,1,5.28,0ZM101.248,16,103.1,9.7,104.96,16H106.1l2.144-7.808h-1.12l-1.616,6.24-1.872-6.24h-1.04l-1.856,6.256L99.1,8.192H97.952L100.1,16Zm7.84-1.088a4.33,4.33,0,0,0,3.184,1.232c1.76,0,3.04-1.088,3.024-2.416.016-1.184-.736-1.824-2.272-2.1l-1.3-.24c-.96-.176-1.36-.448-1.36-1.12,0-.768.72-1.248,1.7-1.248a3.943,3.943,0,0,1,2.416.88l.624-.8a4.858,4.858,0,0,0-2.992-1.04c-1.648,0-2.816.96-2.816,2.288,0,1.168.752,1.792,2.208,2.048l1.3.224c.976.176,1.392.512,1.392,1.168,0,.768-.7,1.408-1.968,1.408a3.5,3.5,0,0,1-2.464-1.024Zm13.36,2.176c-.32.8-.736.992-1.264.992a3.939,3.939,0,0,1-.64-.064v1.04a2.568,2.568,0,0,0,.752.112c1.168,0,1.76-.5,2.24-1.728l3.808-9.248h-1.28l-2.512,6.432-2.368-6.432h-1.312l3.024,7.792ZM128.16,12.1a3.816,3.816,0,1,0,7.616,0,3.814,3.814,0,1,0-7.616,0Zm6.448.016a2.663,2.663,0,1,1-5.28,0,2.664,2.664,0,1,1,5.28,0Zm4.3-3.92h-1.168v5.056a2.722,2.722,0,0,0,2.816,2.88,2.813,2.813,0,0,0,2.5-1.408V16h1.168V8.192h-1.168v5.76a2.32,2.32,0,0,1-2.048,1.2,2.023,2.023,0,0,1-2.1-2.24ZM155.568,16h1.168V10.944a2.722,2.722,0,0,0-2.816-2.88,2.813,2.813,0,0,0-2.5,1.408V4.56l-1.168.24V16h1.168V10.24a2.32,2.32,0,0,1,2.048-1.2,2.023,2.023,0,0,1,2.1,2.24Zm3.136-3.9a3.816,3.816,0,1,0,7.616,0,3.814,3.814,0,1,0-7.616,0Zm6.448.016a2.663,2.663,0,1,1-5.28,0,2.664,2.664,0,1,1,5.28,0ZM170.7,16l1.856-6.3,1.856,6.3h1.136L177.7,8.192h-1.12l-1.616,6.24-1.872-6.24h-1.04l-1.856,6.256L168.56,8.192h-1.152L169.552,16ZM12.048,34.4A5.62,5.62,0,0,0,6.48,28.624a5.78,5.78,0,0,0,0,11.552A5.62,5.62,0,0,0,12.048,34.4Zm-1.248,0a4.426,4.426,0,0,1-4.32,4.656A4.435,4.435,0,0,1,2.16,34.4a4.435,4.435,0,0,1,4.32-4.656A4.426,4.426,0,0,1,10.8,34.4Zm3.312,8.784H15.28V39.008a3.14,3.14,0,0,0,2.448,1.1,3.8,3.8,0,0,0,3.68-4.016,3.78,3.78,0,0,0-3.616-4,3.081,3.081,0,0,0-2.528,1.216v-1.12H14.112ZM17.5,33.12a2.8,2.8,0,0,1,2.736,2.992,2.769,2.769,0,0,1-4.96,1.9V34.192A2.688,2.688,0,0,1,17.5,33.12ZM23.04,36.1a3.907,3.907,0,0,0,3.872,4.048A4.5,4.5,0,0,0,29.84,39.1l-.736-.8a3.191,3.191,0,0,1-2.144.8,2.81,2.81,0,0,1-2.768-2.768H30.32V36a3.7,3.7,0,0,0-3.584-3.936A3.812,3.812,0,0,0,23.04,36.1Zm3.68-3.008a2.572,2.572,0,0,1,2.432,2.432H24.224A2.581,2.581,0,0,1,26.72,33.088ZM32.24,40h1.168V34.656a2.2,2.2,0,0,1,2.1-1.584,2.768,2.768,0,0,1,.816.144V32.16a2.3,2.3,0,0,0-.736-.112,2.321,2.321,0,0,0-2.176,1.7V32.192H32.24Zm7.632.144a3.321,3.321,0,0,0,2.48-1.04V40H43.5V34.816c0-1.808-1.12-2.752-3.024-2.752a6.539,6.539,0,0,0-2.944.752l.448.9a5.037,5.037,0,0,1,2.352-.672c1.312,0,2.016.624,2.016,1.936v1.056a4.683,4.683,0,0,0-2.368-.592c-1.7,0-2.928.864-2.928,2.3C37.056,39.168,38.224,40.144,39.872,40.144Zm-1.7-2.416c0-.912.832-1.456,1.968-1.456a4.052,4.052,0,0,1,2.208.576v1.5a3.116,3.116,0,0,1-2.24.9C38.976,39.248,38.176,38.64,38.176,37.728Zm8.272.512c0,1.216.688,1.9,2.048,1.9a4.713,4.713,0,0,0,1.376-.208V38.9a2.881,2.881,0,0,1-1.1.208c-.832,0-1.152-.336-1.152-1.168V33.152h2.256v-.96H47.616V29.936l-1.168.272v1.984H44.832v.96h1.616ZM50.912,36.1a3.816,3.816,0,1,0,7.616,0,3.814,3.814,0,1,0-7.616,0Zm6.448.016a2.663,2.663,0,1,1-5.28,0,2.664,2.664,0,1,1,5.28,0ZM60.5,40h1.168V34.656a2.2,2.2,0,0,1,2.1-1.584,2.768,2.768,0,0,1,.816.144V32.16a2.3,2.3,0,0,0-.736-.112,2.321,2.321,0,0,0-2.176,1.7V32.192H60.5Zm4.784-1.088a4.33,4.33,0,0,0,3.184,1.232c1.76,0,3.04-1.088,3.024-2.416.016-1.184-.736-1.824-2.272-2.1l-1.3-.24c-.96-.176-1.36-.448-1.36-1.12,0-.768.72-1.248,1.7-1.248a3.943,3.943,0,0,1,2.416.88l.624-.8a4.858,4.858,0,0,0-2.992-1.04c-1.648,0-2.816.96-2.816,2.288,0,1.168.752,1.792,2.208,2.048l1.3.224c.976.176,1.392.512,1.392,1.168,0,.768-.7,1.408-1.968,1.408a3.5,3.5,0,0,1-2.464-1.024ZM79.488,40l1.856-6.3L83.2,40h1.136l2.144-7.808H85.36l-1.616,6.24-1.872-6.24h-1.04l-1.856,6.256-1.632-6.256H76.192L78.336,40Zm8.08-3.9a3.816,3.816,0,1,0,7.616,0,3.814,3.814,0,1,0-7.616,0Zm6.448.016a2.663,2.663,0,1,1-5.28,0,2.664,2.664,0,1,1,5.28,0ZM97.152,40H98.32V34.656a2.2,2.2,0,0,1,2.1-1.584,2.768,2.768,0,0,1,.816.144V32.16a2.3,2.3,0,0,0-.736-.112,2.321,2.321,0,0,0-2.176,1.7V32.192H97.152Zm5.616,0h1.168V36.272L107.7,40h1.552l-4.16-4.1,3.968-3.712h-1.408l-3.712,3.52V28.56l-1.168.24Zm14.112.144a3.321,3.321,0,0,0,2.48-1.04V40h1.152V34.816c0-1.808-1.12-2.752-3.024-2.752a6.539,6.539,0,0,0-2.944.752l.448.9a5.037,5.037,0,0,1,2.352-.672c1.312,0,2.016.624,2.016,1.936v1.056a4.683,4.683,0,0,0-2.368-.592c-1.7,0-2.928.864-2.928,2.3C114.064,39.168,115.232,40.144,116.88,40.144Zm-1.7-2.416c0-.912.832-1.456,1.968-1.456a4.052,4.052,0,0,1,2.208.576v1.5a3.116,3.116,0,0,1-2.24.9C115.984,39.248,115.184,38.64,115.184,37.728ZM122.832,40H124V34.24a2.32,2.32,0,0,1,2.048-1.2,2.023,2.023,0,0,1,2.1,2.24V40h1.168V34.944a2.722,2.722,0,0,0-2.816-2.88,2.813,2.813,0,0,0-2.5,1.408v-1.28h-1.168Zm14.56,0h1.168V28.56l-1.184.24v4.368A3.2,3.2,0,0,0,134.96,32.1a3.8,3.8,0,0,0-3.68,4.016,3.78,3.78,0,0,0,3.616,4,3.139,3.139,0,0,0,2.5-1.168Zm-4.944-3.9a2.775,2.775,0,0,1,2.72-2.976,2.813,2.813,0,0,1,2.208,1.04v3.888a2.7,2.7,0,0,1-2.208,1.04A2.789,2.789,0,0,1,132.448,36.1ZM149.9,40h1.168V34.944a2.722,2.722,0,0,0-2.816-2.88,2.813,2.813,0,0,0-2.5,1.408V28.56l-1.168.24V40h1.168V34.24a2.32,2.32,0,0,1,2.048-1.2,2.023,2.023,0,0,1,2.1,2.24Zm3.136-3.9a3.816,3.816,0,1,0,7.616,0,3.814,3.814,0,1,0-7.616,0Zm6.448.016a2.663,2.663,0,1,1-5.28,0,2.664,2.664,0,1,1,5.28,0ZM165.04,40l1.856-6.3,1.856,6.3h1.136l2.144-7.808h-1.12l-1.616,6.24-1.872-6.24h-1.04l-1.856,6.256L162.9,32.192h-1.152L163.888,40Zm13.248-1.76c0,1.216.688,1.9,2.048,1.9a4.713,4.713,0,0,0,1.376-.208V38.9a2.881,2.881,0,0,1-1.1.208c-.832,0-1.152-.336-1.152-1.168V33.152h2.256v-.96h-2.256V29.936l-1.168.272v1.984h-1.616v.96h1.616Zm4.464-2.144a3.816,3.816,0,1,0,7.616,0,3.814,3.814,0,1,0-7.616,0Zm6.448.016a2.663,2.663,0,1,1-5.28,0,2.664,2.664,0,1,1,5.28,0ZM8.448,60.1a3.78,3.78,0,0,0-3.616-4A3.091,3.091,0,0,0,2.32,57.28V52.56l-1.168.24V64H2.3V62.976a3.081,3.081,0,0,0,2.464,1.136A3.8,3.8,0,0,0,8.448,60.1Zm-3.9-2.976a3,3,0,0,1,0,5.984A2.767,2.767,0,0,1,2.32,62.016V58.192A2.688,2.688,0,0,1,4.544,57.12Zm7.04-.928H10.416v5.056a2.722,2.722,0,0,0,2.816,2.88,2.813,2.813,0,0,0,2.5-1.408V64H16.9V56.192H15.728v5.76a2.32,2.32,0,0,1-2.048,1.2,2.023,2.023,0,0,1-2.1-2.24Zm8.208-1.968a.84.84,0,1,0-.832-.848A.83.83,0,0,0,19.792,54.224Zm.576,1.968H19.2V64h1.168Zm3.488-3.632-1.168.24V64h1.168ZM31.952,64H33.12V52.56l-1.184.24v4.368A3.2,3.2,0,0,0,29.52,56.1a4.026,4.026,0,0,0-.064,8.016,3.139,3.139,0,0,0,2.5-1.168Zm-4.944-3.9a2.775,2.775,0,0,1,2.72-2.976,2.813,2.813,0,0,1,2.208,1.04v3.888a2.7,2.7,0,0,1-2.208,1.04A2.789,2.789,0,0,1,27.008,60.1ZM40.1,62.24c0,1.216.688,1.9,2.048,1.9a4.713,4.713,0,0,0,1.376-.208V62.9a2.881,2.881,0,0,1-1.1.208c-.832,0-1.152-.336-1.152-1.168V57.152H43.52v-.96H41.264V53.936l-1.168.272v1.984H38.48v.96H40.1ZM50.464,64h1.168V58.944a2.722,2.722,0,0,0-2.816-2.88,2.813,2.813,0,0,0-2.5,1.408V52.56l-1.168.24V64H46.32V58.24a2.32,2.32,0,0,1,2.048-1.2,2.023,2.023,0,0,1,2.1,2.24ZM53.6,60.1a3.907,3.907,0,0,0,3.872,4.048A4.5,4.5,0,0,0,60.4,63.1l-.736-.8a3.191,3.191,0,0,1-2.144.8,2.81,2.81,0,0,1-2.768-2.768H60.88V60A3.7,3.7,0,0,0,57.3,56.064,3.812,3.812,0,0,0,53.6,60.1Zm3.68-3.008a2.572,2.572,0,0,1,2.432,2.432H54.784A2.581,2.581,0,0,1,57.28,57.088ZM62.8,64h1.168V58.192a2.171,2.171,0,0,1,1.9-1.152,1.939,1.939,0,0,1,1.936,2.208V64h1.168V58.96a3.239,3.239,0,0,0-.064-.688,2.2,2.2,0,0,1,1.952-1.232c1.216,0,1.92.864,1.92,2.208V64h1.184V58.96a2.669,2.669,0,0,0-2.672-2.9,2.915,2.915,0,0,0-2.608,1.52,2.56,2.56,0,0,0-2.384-1.52,2.672,2.672,0,0,0-2.336,1.344V56.192H62.8Zm19.776,0,1.856-6.3L86.288,64h1.136l2.144-7.808h-1.12l-1.616,6.24-1.872-6.24H83.92l-1.856,6.256-1.632-6.256H79.28L81.424,64Zm9.168-9.776a.84.84,0,1,0-.832-.848A.83.83,0,0,0,91.744,54.224Zm.576,1.968H91.152V64H92.32Zm3.264,6.048c0,1.216.688,1.9,2.048,1.9a4.713,4.713,0,0,0,1.376-.208V62.9a2.881,2.881,0,0,1-1.1.208c-.832,0-1.152-.336-1.152-1.168V57.152h2.256v-.96H96.752V53.936l-1.168.272v1.984H93.968v.96h1.616ZM105.952,64h1.168V58.944a2.722,2.722,0,0,0-2.816-2.88,2.813,2.813,0,0,0-2.5,1.408V52.56l-1.168.24V64h1.168V58.24a2.32,2.32,0,0,1,2.048-1.2,2.023,2.023,0,0,1,2.1,2.24Zm8.144-1.76c0,1.216.688,1.9,2.048,1.9a4.713,4.713,0,0,0,1.376-.208V62.9a2.881,2.881,0,0,1-1.1.208c-.832,0-1.152-.336-1.152-1.168V57.152h2.256v-.96h-2.256V53.936l-1.168.272v1.984H112.48v.96H114.1ZM124.464,64h1.168V58.944a2.722,2.722,0,0,0-2.816-2.88,2.813,2.813,0,0,0-2.5,1.408V52.56l-1.168.24V64h1.168V58.24a2.32,2.32,0,0,1,2.048-1.2,2.023,2.023,0,0,1,2.1,2.24Zm3.136-3.9a3.907,3.907,0,0,0,3.872,4.048A4.5,4.5,0,0,0,134.4,63.1l-.736-.8a3.191,3.191,0,0,1-2.144.8,2.81,2.81,0,0,1-2.768-2.768h6.128V60a3.7,3.7,0,0,0-3.584-3.936A3.812,3.812,0,0,0,127.6,60.1Zm3.68-3.008a2.572,2.572,0,0,1,2.432,2.432h-4.928A2.581,2.581,0,0,1,131.28,57.088ZM151.424,58.4a5.572,5.572,0,1,0-5.568,5.776A5.62,5.62,0,0,0,151.424,58.4Zm-1.248,0a4.332,4.332,0,1,1-4.32-4.656A4.426,4.426,0,0,1,150.176,58.4Zm3.312,8.784h1.168V63.008a3.14,3.14,0,0,0,2.448,1.1,4.026,4.026,0,0,0,.064-8.016,3.081,3.081,0,0,0-2.528,1.216v-1.12h-1.152ZM156.88,57.12a3,3,0,0,1,0,5.984,2.767,2.767,0,0,1-2.224-1.088V58.192A2.687,2.687,0,0,1,156.88,57.12Zm5.536,2.976a3.907,3.907,0,0,0,3.872,4.048,4.5,4.5,0,0,0,2.928-1.04l-.736-.8a3.191,3.191,0,0,1-2.144.8,2.81,2.81,0,0,1-2.768-2.768H169.7V60a3.7,3.7,0,0,0-3.584-3.936A3.812,3.812,0,0,0,162.416,60.1Zm3.68-3.008a2.572,2.572,0,0,1,2.432,2.432H163.6A2.581,2.581,0,0,1,166.1,57.088ZM171.616,64h1.168V58.656a2.2,2.2,0,0,1,2.1-1.584,2.768,2.768,0,0,1,.816.144V56.16a2.3,2.3,0,0,0-.736-.112,2.321,2.321,0,0,0-2.176,1.7V56.192h-1.168Zm7.632.144a3.321,3.321,0,0,0,2.48-1.04V64h1.152V58.816c0-1.808-1.12-2.752-3.024-2.752a6.539,6.539,0,0,0-2.944.752l.448.9a5.037,5.037,0,0,1,2.352-.672c1.312,0,2.016.624,2.016,1.936v1.056a4.683,4.683,0,0,0-2.368-.592c-1.7,0-2.928.864-2.928,2.3C176.432,63.168,177.6,64.144,179.248,64.144Zm-1.7-2.416c0-.912.832-1.456,1.968-1.456a4.052,4.052,0,0,1,2.208.576v1.5a3.116,3.116,0,0,1-2.24.9C178.352,63.248,177.552,62.64,177.552,61.728Zm8.272.512c0,1.216.688,1.9,2.048,1.9a4.713,4.713,0,0,0,1.376-.208V62.9a2.881,2.881,0,0,1-1.1.208c-.832,0-1.152-.336-1.152-1.168V57.152h2.256v-.96h-2.256V53.936l-1.168.272v1.984h-1.616v.96h1.616Zm4.464-2.144a3.814,3.814,0,1,0,3.792-4.032A3.867,3.867,0,0,0,190.288,60.1Zm6.448.016a2.664,2.664,0,1,1-2.656-3.024A2.756,2.756,0,0,1,196.736,60.112ZM199.872,64h1.168V58.656a2.2,2.2,0,0,1,2.1-1.584,2.768,2.768,0,0,1,.816.144V56.16a2.3,2.3,0,0,0-.736-.112,2.321,2.321,0,0,0-2.176,1.7V56.192h-1.168ZM1.424,88H2.656V82.96H7.1V81.888H2.656V77.872h6.48V76.8H1.424Zm8.624,0h1.168V82.656a2.2,2.2,0,0,1,2.1-1.584,2.768,2.768,0,0,1,.816.144V80.16a2.3,2.3,0,0,0-.736-.112,2.321,2.321,0,0,0-2.176,1.7V80.192H10.048Zm7.632.144a3.321,3.321,0,0,0,2.48-1.04V88h1.152V82.816c0-1.808-1.12-2.752-3.024-2.752a6.539,6.539,0,0,0-2.944.752l.448.9a5.037,5.037,0,0,1,2.352-.672c1.312,0,2.016.624,2.016,1.936v1.056a4.683,4.683,0,0,0-2.368-.592c-1.7,0-2.928.864-2.928,2.3C14.864,87.168,16.032,88.144,17.68,88.144Zm-1.7-2.416c0-.912.832-1.456,1.968-1.456a4.052,4.052,0,0,1,2.208.576v1.5a3.116,3.116,0,0,1-2.24.9C16.784,87.248,15.984,86.64,15.984,85.728ZM23.632,88H24.8V82.192a2.171,2.171,0,0,1,1.9-1.152,1.939,1.939,0,0,1,1.936,2.208V88h1.168V82.96a3.238,3.238,0,0,0-.064-.688A2.2,2.2,0,0,1,31.7,81.04c1.216,0,1.92.864,1.92,2.208V88H34.8V82.96a2.669,2.669,0,0,0-2.672-2.9,2.915,2.915,0,0,0-2.608,1.52,2.56,2.56,0,0,0-2.384-1.52A2.672,2.672,0,0,0,24.8,81.408V80.192H23.632Zm13.136-3.9a3.907,3.907,0,0,0,3.872,4.048,4.5,4.5,0,0,0,2.928-1.04l-.736-.8a3.191,3.191,0,0,1-2.144.8,2.81,2.81,0,0,1-2.768-2.768h6.128V84a3.7,3.7,0,0,0-3.584-3.936A3.812,3.812,0,0,0,36.768,84.1Zm3.68-3.008A2.572,2.572,0,0,1,42.88,83.52H37.952A2.581,2.581,0,0,1,40.448,81.088ZM48.384,88l1.856-6.3L52.1,88h1.136l2.144-7.808h-1.12l-1.616,6.24-1.872-6.24h-1.04l-1.856,6.256L46.24,80.192H45.088L47.232,88Zm8.08-3.9a3.814,3.814,0,1,0,3.792-4.032A3.867,3.867,0,0,0,56.464,84.1Zm6.448.016a2.664,2.664,0,1,1-2.656-3.024A2.756,2.756,0,0,1,62.912,84.112ZM66.048,88h1.168V82.656a2.2,2.2,0,0,1,2.1-1.584,2.768,2.768,0,0,1,.816.144V80.16a2.3,2.3,0,0,0-.736-.112,2.321,2.321,0,0,0-2.176,1.7V80.192H66.048Zm5.616,0h1.168V84.272L76.592,88h1.552l-4.16-4.1,3.968-3.712H76.544l-3.712,3.52V76.56l-1.168.24Zm14.112.144a3.321,3.321,0,0,0,2.48-1.04V88h1.152V82.816c0-1.808-1.12-2.752-3.024-2.752a6.539,6.539,0,0,0-2.944.752l.448.9a5.037,5.037,0,0,1,2.352-.672c1.312,0,2.016.624,2.016,1.936v1.056a4.683,4.683,0,0,0-2.368-.592c-1.7,0-2.928.864-2.928,2.3C82.96,87.168,84.128,88.144,85.776,88.144Zm-1.7-2.416c0-.912.832-1.456,1.968-1.456a4.052,4.052,0,0,1,2.208.576v1.5a3.116,3.116,0,0,1-2.24.9C84.88,87.248,84.08,86.64,84.08,85.728ZM91.728,88H92.9V82.24a2.32,2.32,0,0,1,2.048-1.2,2.023,2.023,0,0,1,2.1,2.24V88h1.168V82.944a2.722,2.722,0,0,0-2.816-2.88,2.813,2.813,0,0,0-2.5,1.408v-1.28H91.728Zm14.56,0h1.168V76.56l-1.184.24v4.368a3.2,3.2,0,0,0-2.416-1.072,4.026,4.026,0,0,0-.064,8.016,3.139,3.139,0,0,0,2.5-1.168Zm-4.944-3.9a2.775,2.775,0,0,1,2.72-2.976,2.813,2.813,0,0,1,2.208,1.04v3.888a2.7,2.7,0,0,1-2.208,1.04A2.789,2.789,0,0,1,101.344,84.1Zm11.44,2.064a6.318,6.318,0,0,0,4.576,2c2.752,0,4.272-1.584,4.272-3.376,0-1.648-.96-2.576-3.408-3.008l-1.792-.3c-1.376-.24-2.112-.672-2.112-1.776,0-1.392,1.344-2,2.672-2a5.937,5.937,0,0,1,3.728,1.36l.72-.928a7.091,7.091,0,0,0-4.416-1.472c-2.048,0-3.888,1.024-3.888,3.136,0,1.584.944,2.432,2.96,2.784l1.808.3c1.808.32,2.5.848,2.5,1.968,0,1.248-1.152,2.256-2.992,2.256a5.393,5.393,0,0,1-3.856-1.808ZM123.728,88h3.712a5.6,5.6,0,1,0,0-11.2h-3.712Zm3.792-10.1a4.5,4.5,0,0,1,0,8.992h-2.56V77.9ZM135.376,88h1.232V82.64L142.064,88h1.68l-5.84-5.7,5.712-5.5h-1.568l-5.44,5.312V76.8h-1.232ZM145.6,86.384a.873.873,0,1,0,.832.88A.861.861,0,0,0,145.6,86.384Z" transform="translate(753 10804)"/><path class="c" d="M.02,20H2.2l1.64-4.1H10.1L11.72,20H14L8.28,6H5.82Zm4.52-5.84L6.98,8.02l2.44,6.14ZM16.76,9.82H14.78v6.4a3.8,3.8,0,0,0,3.96,3.98,4.16,4.16,0,0,0,3.06-1.22V20h2V9.82h-2v7.32a2.866,2.866,0,0,1-2.5,1.32,2.374,2.374,0,0,1-2.54-2.58Zm10.7,7.66c0,1.76,1.06,2.7,3.04,2.7a6.851,6.851,0,0,0,1.9-.3V18.2a3.862,3.862,0,0,1-1.46.24c-1.08,0-1.5-.38-1.5-1.42V11.5h3V9.82h-3V6.74l-1.98.48v2.6H25.3V11.5h2.16Zm5.78-2.58a5.29,5.29,0,1,0,5.3-5.28A5.246,5.246,0,0,0,33.24,14.9Zm8.64,0a3.346,3.346,0,1,1-6.68,0,3.345,3.345,0,1,1,6.68,0ZM45.7,20h2V12.58A2.646,2.646,0,0,1,50,11.36a2.283,2.283,0,0,1,2.32,2.58V20h2V13.6a4.238,4.238,0,0,0-.08-.88,2.71,2.71,0,0,1,2.38-1.36,2.287,2.287,0,0,1,2.34,2.58V20h1.98V13.6a3.725,3.725,0,0,0-3.8-3.98A4.086,4.086,0,0,0,53.7,11.3a3.631,3.631,0,0,0-3.16-1.68,3.89,3.89,0,0,0-2.84,1.14V9.82h-2Zm20.8.18a4.792,4.792,0,0,0,3.16-1.06V20h1.96V13.26c0-2.36-1.54-3.64-4.16-3.64a9.555,9.555,0,0,0-4.18,1.04l.74,1.5a7.377,7.377,0,0,1,3.16-.86c1.62,0,2.48.72,2.48,2.16v1.08a7.04,7.04,0,0,0-2.78-.56c-2.38,0-4.12,1.06-4.12,3.1C62.76,18.9,64.28,20.18,66.5,20.18Zm-1.82-3.14c0-1.06.96-1.68,2.36-1.68a5.34,5.34,0,0,1,2.62.6v1.78a3.915,3.915,0,0,1-2.7.96C65.62,18.7,64.68,18.04,64.68,17.04Zm10.18.44c0,1.76,1.06,2.7,3.04,2.7a6.851,6.851,0,0,0,1.9-.3V18.2a3.862,3.862,0,0,1-1.46.24c-1.08,0-1.5-.38-1.5-1.42V11.5h3V9.82h-3V6.74l-1.98.48v2.6H72.7V11.5h2.16Zm7.44-9.3a1.24,1.24,0,0,0,0-2.48,1.24,1.24,0,1,0,0,2.48Zm1,1.64h-2V20h2ZM85.62,20h2V12.68a2.866,2.866,0,0,1,2.5-1.32,2.374,2.374,0,0,1,2.54,2.58V20h1.98V13.6a3.8,3.8,0,0,0-3.96-3.98,4.16,4.16,0,0,0-3.06,1.22V9.82h-2Zm16.02.08A4.746,4.746,0,0,0,104.68,19v1.1c0,1.6-.94,2.42-2.72,2.42a6.893,6.893,0,0,1-3.26-.88l-.78,1.56a8.464,8.464,0,0,0,4.1,1c2.98,0,4.66-1.44,4.66-4.12V9.82H104.7v.84a4.913,4.913,0,0,0-3.02-1.02,5.135,5.135,0,0,0-5.16,5.22A5.115,5.115,0,0,0,101.64,20.08Zm-3.16-5.22a3.391,3.391,0,0,1,3.4-3.48,3.671,3.671,0,0,1,2.8,1.18v4.6a3.671,3.671,0,0,1-2.8,1.18A3.391,3.391,0,0,1,98.48,14.86Zm16.04,2.62c0,1.76,1.06,2.7,3.04,2.7a6.851,6.851,0,0,0,1.9-.3V18.2a3.862,3.862,0,0,1-1.46.24c-1.08,0-1.5-.38-1.5-1.42V11.5h3V9.82h-3V6.74l-1.98.48v2.6h-2.16V11.5h2.16ZM128,20h1.98V13.6a3.8,3.8,0,0,0-3.96-3.98,4.16,4.16,0,0,0-3.06,1.22V5.56l-2,.44V20h2V12.68a2.866,2.866,0,0,1,2.5-1.32A2.374,2.374,0,0,1,128,13.94Zm3.86-5.1a5.238,5.238,0,0,0,5.34,5.28,6,6,0,0,0,3.94-1.34l-1.28-1.26a3.96,3.96,0,0,1-2.58.9,3.434,3.434,0,0,1-3.44-2.92h8.04v-.58a5.041,5.041,0,0,0-4.92-5.32A5.115,5.115,0,0,0,131.86,14.9Zm5.06-3.56a3.133,3.133,0,0,1,2.98,2.72h-6.04A3.129,3.129,0,0,1,136.92,11.34ZM6.04,44.42A3.515,3.515,0,0,1,6,37.4a3.784,3.784,0,0,1,2.8,1.28l1.26-1.36a5.828,5.828,0,0,0-4.1-1.7,5.28,5.28,0,0,0,0,10.56,5.63,5.63,0,0,0,4.02-1.7l-1.2-1.3A3.72,3.72,0,0,1,6.04,44.42Zm4.72-3.52a5.29,5.29,0,1,0,5.3-5.28A5.246,5.246,0,0,0,10.76,40.9Zm8.64,0a3.345,3.345,0,1,1-3.34-3.52A3.419,3.419,0,0,1,19.4,40.9ZM23.22,46h2V38.68a2.866,2.866,0,0,1,2.5-1.32,2.374,2.374,0,0,1,2.54,2.58V46h1.98V39.6a3.8,3.8,0,0,0-3.96-3.98,4.16,4.16,0,0,0-3.06,1.22V35.82h-2ZM35.5,43.48c0,1.76,1.06,2.7,3.04,2.7a6.851,6.851,0,0,0,1.9-.3V44.2a3.862,3.862,0,0,1-1.46.24c-1.08,0-1.5-.38-1.5-1.42V37.5h3V35.82h-3V32.74l-1.98.48v2.6H33.34V37.5H35.5Zm9.68,2.7a4.792,4.792,0,0,0,3.16-1.06V46H50.3V39.26c0-2.36-1.54-3.64-4.16-3.64a9.555,9.555,0,0,0-4.18,1.04l.74,1.5a7.377,7.377,0,0,1,3.16-.86c1.62,0,2.48.72,2.48,2.16v1.08a7.04,7.04,0,0,0-2.78-.56c-2.38,0-4.12,1.06-4.12,3.1C41.44,44.9,42.96,46.18,45.18,46.18Zm-1.82-3.14c0-1.06.96-1.68,2.36-1.68a5.34,5.34,0,0,1,2.62.6v1.78a3.915,3.915,0,0,1-2.7.96C44.3,44.7,43.36,44.04,43.36,43.04ZM53.6,34.18a1.24,1.24,0,0,0,0-2.48,1.24,1.24,0,1,0,0,2.48Zm1,1.64h-2V46h2ZM56.92,46h2V38.68a2.866,2.866,0,0,1,2.5-1.32,2.374,2.374,0,0,1,2.54,2.58V46h1.98V39.6a3.8,3.8,0,0,0-3.96-3.98,4.16,4.16,0,0,0-3.06,1.22V35.82h-2Zm10.9-5.1a5.238,5.238,0,0,0,5.34,5.28,6,6,0,0,0,3.94-1.34l-1.28-1.26a3.96,3.96,0,0,1-2.58.9,3.434,3.434,0,0,1-3.44-2.92h8.04v-.58a5.041,5.041,0,0,0-4.92-5.32A5.115,5.115,0,0,0,67.82,40.9Zm5.06-3.56a3.133,3.133,0,0,1,2.98,2.72H69.82A3.129,3.129,0,0,1,72.88,37.34ZM79.72,46h2V39.18a2.741,2.741,0,0,1,2.62-1.84,3.566,3.566,0,0,1,1.2.22v-1.8a2.909,2.909,0,0,0-1.04-.16,3.264,3.264,0,0,0-2.78,1.48V35.82h-2ZM90.9,40.9a5.29,5.29,0,1,0,5.3-5.28A5.246,5.246,0,0,0,90.9,40.9Zm8.64,0a3.345,3.345,0,1,1-3.34-3.52A3.419,3.419,0,0,1,99.54,40.9Zm3.82,5.1h2V39.18a2.741,2.741,0,0,1,2.62-1.84,3.566,3.566,0,0,1,1.2.22v-1.8a2.909,2.909,0,0,0-1.04-.16,3.264,3.264,0,0,0-2.78,1.48V35.82h-2Zm11.7-1.58a3.515,3.515,0,0,1-.04-7.02,3.784,3.784,0,0,1,2.8,1.28l1.26-1.36a5.828,5.828,0,0,0-4.1-1.7,5.28,5.28,0,0,0,0,10.56,5.63,5.63,0,0,0,4.02-1.7l-1.2-1.3A3.72,3.72,0,0,1,115.06,44.42ZM127.66,46h1.98V39.6a3.8,3.8,0,0,0-3.96-3.98,4.16,4.16,0,0,0-3.06,1.22V31.56l-2,.44V46h2V38.68a2.866,2.866,0,0,1,2.5-1.32,2.374,2.374,0,0,1,2.54,2.58Zm3.86-5.1a5.238,5.238,0,0,0,5.34,5.28,6,6,0,0,0,3.94-1.34l-1.28-1.26a3.96,3.96,0,0,1-2.58.9,3.434,3.434,0,0,1-3.44-2.92h8.04v-.58a5.041,5.041,0,0,0-4.92-5.32A5.115,5.115,0,0,0,131.52,40.9Zm5.06-3.56a3.133,3.133,0,0,1,2.98,2.72h-6.04A3.129,3.129,0,0,1,136.58,37.34Zm6,7.34a6.794,6.794,0,0,0,4.46,1.5c2.42,0,4.26-1.36,4.26-3.2,0-1.56-1.02-2.54-3.08-2.84l-1.84-.26c-1.2-.18-1.68-.52-1.68-1.28,0-.86.86-1.38,2.04-1.38a5.589,5.589,0,0,1,3.22,1.06l1.02-1.32a6.988,6.988,0,0,0-4.1-1.3c-2.34,0-3.98,1.22-3.98,3.08,0,1.58,1.04,2.54,3.04,2.82l1.84.26c1.14.16,1.64.58,1.64,1.3,0,.82-.84,1.52-2.44,1.52a5.235,5.235,0,0,1-3.32-1.28Zm11.38-1.2c0,1.76,1.06,2.7,3.04,2.7a6.851,6.851,0,0,0,1.9-.3V44.2a3.862,3.862,0,0,1-1.46.24c-1.08,0-1.5-.38-1.5-1.42V37.5h3V35.82h-3V32.74l-1.98.48v2.6H151.8V37.5h2.16ZM160.4,46h2V39.18a2.741,2.741,0,0,1,2.62-1.84,3.566,3.566,0,0,1,1.2.22v-1.8a2.909,2.909,0,0,0-1.04-.16,3.264,3.264,0,0,0-2.78,1.48V35.82h-2Zm10.26.18a4.792,4.792,0,0,0,3.16-1.06V46h1.96V39.26c0-2.36-1.54-3.64-4.16-3.64a9.555,9.555,0,0,0-4.18,1.04l.74,1.5a7.377,7.377,0,0,1,3.16-.86c1.62,0,2.48.72,2.48,2.16v1.08a7.04,7.04,0,0,0-2.78-.56c-2.38,0-4.12,1.06-4.12,3.1C166.92,44.9,168.44,46.18,170.66,46.18Zm-1.82-3.14c0-1.06.96-1.68,2.36-1.68a5.34,5.34,0,0,1,2.62.6v1.78a3.915,3.915,0,0,1-2.7.96C169.78,44.7,168.84,44.04,168.84,43.04Zm10.18.44c0,1.76,1.06,2.7,3.04,2.7a6.851,6.851,0,0,0,1.9-.3V44.2a3.862,3.862,0,0,1-1.46.24c-1.08,0-1.5-.38-1.5-1.42V37.5h3V35.82h-3V32.74l-1.98.48v2.6h-2.16V37.5h2.16Zm7.44-9.3a1.24,1.24,0,0,0,0-2.48,1.24,1.24,0,1,0,0,2.48Zm1,1.64h-2V46h2Zm1.88,5.08a5.29,5.29,0,1,0,5.3-5.28A5.246,5.246,0,0,0,189.34,40.9Zm8.64,0a3.345,3.345,0,1,1-3.34-3.52A3.419,3.419,0,0,1,197.98,40.9ZM201.8,46h2V38.68a2.866,2.866,0,0,1,2.5-1.32,2.374,2.374,0,0,1,2.54,2.58V46h1.98V39.6a3.8,3.8,0,0,0-3.96-3.98,4.16,4.16,0,0,0-3.06,1.22V35.82h-2ZM1.16,76.14h2V71.16a5.038,5.038,0,0,0,3.04,1,5.251,5.251,0,0,0,.06-10.5,4.808,4.808,0,0,0-3.12,1.12v-.96H1.16ZM5.98,63.4a3.51,3.51,0,0,1,0,7.02,3.788,3.788,0,0,1-2.82-1.18V64.6A3.631,3.631,0,0,1,5.98,63.4Zm9.3-5.84-2,.44V72h2Zm5.56,14.62A4.792,4.792,0,0,0,24,71.12V72h1.96V65.26c0-2.36-1.54-3.64-4.16-3.64a9.555,9.555,0,0,0-4.18,1.04l.74,1.5a7.377,7.377,0,0,1,3.16-.86c1.62,0,2.48.72,2.48,2.16v1.08a7.04,7.04,0,0,0-2.78-.56c-2.38,0-4.12,1.06-4.12,3.1C17.1,70.9,18.62,72.18,20.84,72.18Zm-1.82-3.14c0-1.06.96-1.68,2.36-1.68a5.34,5.34,0,0,1,2.62.6v1.78a3.915,3.915,0,0,1-2.7.96C19.96,70.7,19.02,70.04,19.02,69.04Zm10.18.44c0,1.76,1.06,2.7,3.04,2.7a6.851,6.851,0,0,0,1.9-.3V70.2a3.862,3.862,0,0,1-1.46.24c-1.08,0-1.5-.38-1.5-1.42V63.5h3V61.82h-3V58.74l-1.98.48v2.6H27.04V63.5H29.2Zm5.82-7.66V63.5h2.36V72h1.98V63.5h2.92V61.82H39.36v-1.5c0-1.1.54-1.58,1.66-1.58a3.845,3.845,0,0,1,1.26.18V57.18A5.57,5.57,0,0,0,40.84,57c-2.28,0-3.46,1.22-3.46,3.28v1.54Zm7.9,5.08a5.29,5.29,0,1,0,5.3-5.28A5.246,5.246,0,0,0,42.92,66.9Zm8.64,0a3.345,3.345,0,1,1-3.34-3.52A3.419,3.419,0,0,1,51.56,66.9ZM55.38,72h2V65.18A2.741,2.741,0,0,1,60,63.34a3.566,3.566,0,0,1,1.2.22v-1.8a2.909,2.909,0,0,0-1.04-.16,3.264,3.264,0,0,0-2.78,1.48V61.82h-2Zm7.44,0h2V64.58a2.646,2.646,0,0,1,2.3-1.22,2.283,2.283,0,0,1,2.32,2.58V72h2V65.6a4.239,4.239,0,0,0-.08-.88,2.71,2.71,0,0,1,2.38-1.36,2.287,2.287,0,0,1,2.34,2.58V72h1.98V65.6a3.725,3.725,0,0,0-3.8-3.98,4.086,4.086,0,0,0-3.44,1.68,3.631,3.631,0,0,0-3.16-1.68,3.89,3.89,0,0,0-2.84,1.14v-.94h-2Z" transform="translate(753 10710)"/><path class="c" d="M1.424,0H9.136V-1.072H2.656V-5.12H7.1V-6.192H2.656v-3.936H9.072V-11.2H1.424ZM10.3-5.008V-4h5.328V-5.008ZM18.032-11.2V0h4.7c2.256,0,3.632-1.28,3.632-3.1a2.781,2.781,0,0,0-2.416-2.72,2.585,2.585,0,0,0,1.984-2.528c0-1.7-1.3-2.848-3.376-2.848ZM22.5-10.144A1.945,1.945,0,0,1,24.7-8.224,1.945,1.945,0,0,1,22.5-6.3H19.264v-3.84Zm.144,9.088H19.264V-5.3H22.64c1.536,0,2.48.848,2.48,2.112S24.176-1.056,22.64-1.056ZM39.2-5.6a5.62,5.62,0,0,0-5.568-5.776A5.63,5.63,0,0,0,28.064-5.6,5.63,5.63,0,0,0,33.632.176,5.62,5.62,0,0,0,39.2-5.6Zm-1.248,0a4.426,4.426,0,0,1-4.32,4.656A4.435,4.435,0,0,1,29.312-5.6a4.435,4.435,0,0,1,4.32-4.656A4.426,4.426,0,0,1,37.952-5.6Zm14.272,0a5.62,5.62,0,0,0-5.568-5.776A5.63,5.63,0,0,0,41.088-5.6,5.63,5.63,0,0,0,46.656.176,5.62,5.62,0,0,0,52.224-5.6Zm-1.248,0a4.426,4.426,0,0,1-4.32,4.656A4.435,4.435,0,0,1,42.336-5.6a4.435,4.435,0,0,1,4.32-4.656A4.426,4.426,0,0,1,50.976-5.6ZM54.56,0h1.232V-5.36L61.248,0h1.68l-5.84-5.7L62.8-11.2H61.232l-5.44,5.312V-11.2H54.56Z" transform="translate(753 10689)"/><rect class="d" width="14" height="14" transform="translate(753 10635)"/><path class="e" d="M6.9,85l2.843-2.843a.894.894,0,0,0,0-1.264l-.632-.632a.894.894,0,0,0-1.264,0L5,83.1,2.157,80.262a.894.894,0,0,0-1.264,0l-.632.632a.894.894,0,0,0,0,1.264L3.1,85,.262,87.843a.894.894,0,0,0,0,1.264l.632.632a.894.894,0,0,0,1.264,0L5,86.9l2.843,2.843a.894.894,0,0,0,1.264,0l.632-.632a.894.894,0,0,0,0-1.264Z" transform="translate(755 10557)"/><rect class="f" width="20" height="349" transform="translate(990 10611)"/><g transform="translate(967 10611)"><rect class="g" width="24" height="349"/></g><g transform="translate(729 10936)"><rect class="g" width="262" height="24"/></g><g class="h" transform="translate(753 10913)"><rect class="j" width="153" height="23"/><rect class="d" x="0.5" y="0.5" width="152" height="22"/></g><g transform="translate(753 10897)"><rect class="i" width="16" height="16"/></g><g class="h" transform="translate(753 10804)"><rect class="j" width="214" height="93"/><rect class="d" x="0.5" y="0.5" width="213" height="92"/></g><g transform="translate(753 10788)"><rect class="i" width="16" height="16"/></g><g class="h" transform="translate(753 10710)"><rect class="j" width="214" height="78"/><rect class="d" x="0.5" y="0.5" width="213" height="77"/></g><g transform="translate(753 10694)"><rect class="i" width="16" height="16"/></g><g class="h" transform="translate(753 10673)"><rect class="j" width="63" height="21"/><rect class="d" x="0.5" y="0.5" width="62" height="20"/></g><g transform="translate(729 10649)"><rect class="g" width="262" height="24"/></g><g class="h" transform="translate(753 10635)"><rect class="j" width="14" height="14"/><rect class="d" x="0.5" y="0.5" width="13" height="13"/></g><g transform="translate(729 10611)"><rect class="g" width="262" height="24"/></g><g transform="translate(729 10611)"><rect class="g" width="24" height="349"/></g></g></svg>