<!-- © Red Hat, Inc. CC-BY-4.0 licensed --><svg xmlns="http://www.w3.org/2000/svg" viewBox="0 0 36 36"><path d="M29.108 25.446a.626.626 0 0 1 0 .885l-2.222 2.222a.621.621 0 0 1-.884 0l-1.11-1.112a.625.625 0 1 1 .883-.882l.67.669 1.78-1.78a.625.625 0 0 1 .883-.002ZM32.625 27c0 3.102-2.523 5.625-5.625 5.625S21.375 30.102 21.375 27s2.523-5.625 5.625-5.625 5.625 2.523 5.625 5.625Zm-1.25 0c0-2.412-1.962-4.375-4.375-4.375S22.625 24.588 22.625 27s1.962 4.375 4.375 4.375 4.375-1.963 4.375-4.375Zm-9.933-5.558a.622.622 0 0 1-.884 0l-.817-.817h-3.482l-6.634 6.634v1.116H19a.625.625 0 0 1 0 1.25H9.625V31c0 .345-.28.625-.625.625H5A.625.625 0 0 1 4.375 31v-4c0-.345.28-.625.625-.625h3.74l6.635-6.634v-1.116h-5.75V20c0 .345-.28.625-.625.625H5A.625.625 0 0 1 4.375 20v-4c0-.345.28-.625.625-.625h4c.345 0 .625.28.625.625v1.375h5.75v-1.116L8.741 9.625H5A.625.625 0 0 1 4.375 9V5c0-.345.28-.625.625-.625h4c.345 0 .625.28.625.625v1.375h16.75V5c0-.345.28-.625.625-.625h4c.345 0 .625.28.625.625v4c0 .345-.28.625-.625.625h-3.74l-6.635 6.634v1.116h5.75V16c0-.345.28-.625.625-.625h4c.345 0 .625.28.625.625v4a.625.625 0 0 1-1.25 0v-3.375h-2.75V19a.625.625 0 0 1-1.25 0v-.375h-5.75v1.116l.817.817a.626.626 0 0 1 0 .884Zm6.183-13.067h2.75v-2.75h-2.75v2.75Zm-19.25-2.75h-2.75v2.75h2.75v-2.75Zm0 11h-2.75v2.75h2.75v-2.75Zm0 11h-2.75v2.75h2.75v-2.75Zm11-11h-2.75v2.75h2.75v-2.75Zm7-7.884V7.625H9.625v1.116l6.634 6.634h3.482l6.634-6.634Z"/></svg>