<!-- © Red Hat, Inc. CC-BY-4.0 licensed --><svg xmlns="http://www.w3.org/2000/svg" viewBox="0 0 36 36"><path d="M31 7.38H9a.63.63 0 0 0-.44.18l-4 4a.63.63 0 0 0-.18.44v16a.61.61 0 0 0 .62.62h26a.61.61 0 0 0 .62-.62V8a.61.61 0 0 0-.62-.62ZM8.38 9.51v1.87H6.51Zm22 17.87H5.62V12.62H9a.61.61 0 0 0 .62-.62V8.62h20.76Z"/><path d="M15 18.62h2.38V23a.61.61 0 0 0 .62.62h3a.62.62 0 0 0 0-1.24h-2.38v-8.76H21a.62.62 0 1 0 0-1.24h-3a.61.61 0 0 0-.62.62v4.38H15a.62.62 0 0 0 0 1.24Zm10-3A2.62 2.62 0 1 0 22.38 13 2.62 2.62 0 0 0 25 15.62Zm0-4A1.38 1.38 0 1 1 23.62 13 1.38 1.38 0 0 1 25 11.62ZM8.38 18A2.62 2.62 0 1 0 11 15.38 2.62 2.62 0 0 0 8.38 18Zm4 0A1.38 1.38 0 1 1 11 16.62 1.38 1.38 0 0 1 12.38 18ZM25 25.62A2.62 2.62 0 1 0 22.38 23 2.62 2.62 0 0 0 25 25.62Zm0-4A1.38 1.38 0 1 1 23.62 23 1.38 1.38 0 0 1 25 21.62Z"/></svg>