<!-- © Red Hat, Inc. CC-BY-4.0 licensed --><svg xmlns="http://www.w3.org/2000/svg" viewBox="0 0 36 36"><path d="M32.625 13A5.631 5.631 0 0 1 27 18.625h-1a.625.625 0 0 1 0-1.25h1c2.413 0 4.375-1.963 4.375-4.375S29.413 8.625 27 8.625H9c-2.413 0-4.375 1.963-4.375 4.375S6.587 17.375 9 17.375h6a.625.625 0 0 1 0 1.25H9c-3.102 0-5.625-2.523-5.625-5.625S5.898 7.375 9 7.375h18A5.631 5.631 0 0 1 32.625 13Zm-5.183 9.558A.626.626 0 0 1 27 23.625h-2.709l1.78 4.01a.626.626 0 0 1-.317.826l-2.5 1.11a.625.625 0 0 1-.825-.316l-1.79-4.01-2.197 2.197A.625.625 0 0 1 17.375 27V14a.625.625 0 0 1 1.067-.442l9 9Zm-1.95-.183-6.867-6.866v9.982l1.773-1.773a.625.625 0 0 1 1.013.187l1.905 4.27 1.36-.603-1.917-4.318a.626.626 0 0 1 .571-.879h2.161Z"/></svg>