<!-- © Red Hat, Inc. CC-BY-4.0 licensed --><svg xmlns="http://www.w3.org/2000/svg" viewBox="0 0 36 36"><path d="M10.5 13.62a5.93 5.93 0 0 1 1.09.11.63.63 0 0 0 .69-.36 7.87 7.87 0 0 1 15.1 3.13v.5a.63.63 0 0 0 .56.66 3.89 3.89 0 0 1 3.24 2.54.63.63 0 0 0 .8.38.62.62 0 0 0 .38-.8 5.17 5.17 0 0 0-3.71-3.27 9.12 9.12 0 0 0-17.28-4.07 7.12 7.12 0 1 0-.84 14.19H23a.62.62 0 0 0 0-1.24H10.5a5.88 5.88 0 0 1 0-11.76Z"/><path d="m32.13 22-3-.64a.57.57 0 0 0-.26 0l-3 .64a.61.61 0 0 0-.49.61v3.45a3.62 3.62 0 1 0 7.24 0v-3.42a.61.61 0 0 0-.49-.64Z"/></svg>