<!-- © Red Hat, Inc. CC-BY-4.0 licensed --><svg xmlns="http://www.w3.org/2000/svg" viewBox="0 0 36 36"><path d="M28 28.625H8a.625.625 0 0 1 0-1.25h19.375V8a.625.625 0 0 1 1.25 0v20c0 .345-.28.625-.625.625Zm3-18.25a.625.625 0 0 0-.625.625v19.375H11a.625.625 0 0 0 0 1.25h20c.345 0 .625-.28.625-.625V11a.625.625 0 0 0-.625-.625ZM5 25.625A.625.625 0 0 1 4.375 25c.01-.048-.015-9.987 0-10.026V10c-.008-.172.082-.315.183-.442l5-5A.63.63 0 0 1 10 4.375h15c.345 0 .625.28.625.625v9.977c.008.044-.01 9.968 0 10.023 0 .345-.28.625-.625.625-.027-.009-9.976.01-10 .005-.02-.014-9.977 0-10-.005Zm1.509-16.25h2.866V6.509L6.509 9.375Zm17.866 15V5.625h-13.75V10c0 .345-.28.625-.625.625H5.625v13.75h18.75Zm-9.374-2.495a.625.625 0 1 0 0 1.25.625.625 0 0 0 0-1.25Zm0-2.505a.625.625 0 1 0 0 1.25.625.625 0 0 0 0-1.25Zm0-2.495a.625.625 0 1 0 0 1.25.625.625 0 0 0 0-1.25Zm0-2.5a.625.625 0 1 0 0 1.25.625.625 0 0 0 0-1.25Zm0-2.505a.625.625 0 1 0 0 1.25.625.625 0 0 0 0-1.25Zm0-2.495a.625.625 0 1 0 0 1.25.625.625 0 0 0 0-1.25Zm0-2.5a.625.625 0 1 0 0 1.25.625.625 0 0 0 0-1.25Zm-7.5 7.5a.625.625 0 1 0 0 1.25.625.625 0 0 0 0-1.25Zm2.505 0a.625.625 0 1 0 0 1.25.625.625 0 0 0 0-1.25Zm2.495 0a.625.625 0 1 0 0 1.25.625.625 0 0 0 0-1.25Zm5.005 0a.625.625 0 1 0 0 1.25.625.625 0 0 0 0-1.25Zm2.495 0a.625.625 0 1 0 0 1.25.625.625 0 0 0 0-1.25Zm2.5 0a.625.625 0 1 0 0 1.25.625.625 0 0 0 0-1.25Z"/></svg>