<!-- © Red Hat, Inc. CC-BY-4.0 licensed --><svg xmlns="http://www.w3.org/2000/svg" viewBox="0 0 36 36"><path d="M11 26.62a.62.62 0 1 0-.62-.62.61.61 0 0 0 .62.62Zm14 0a.62.62 0 1 0-.62-.62.61.61 0 0 0 .62.62Zm-7 0a.62.62 0 1 0-.62-.62.61.61 0 0 0 .62.62Z"/><path d="M31 4.38H5a.61.61 0 0 0-.62.62v26a.61.61 0 0 0 .62.62h26a.61.61 0 0 0 .62-.62V5a.61.61 0 0 0-.62-.62Zm-.62 26H5.62V5.62h24.76Z"/><path d="M9 21.62h4a.62.62 0 0 0 0-1.24H9a.62.62 0 0 0 0 1.24Zm7 0h4a.62.62 0 0 0 0-1.24h-4a.62.62 0 1 0 0 1.24Zm7 0h4a.62.62 0 0 0 0-1.24h-4a.62.62 0 0 0 0 1.24Zm-14-3h4a.62.62 0 0 0 0-1.24H9a.62.62 0 0 0 0 1.24Zm7 0h4a.62.62 0 0 0 0-1.24h-4a.62.62 0 1 0 0 1.24Zm7 0h4a.62.62 0 0 0 0-1.24h-4a.62.62 0 0 0 0 1.24Zm-14-3h4a.62.62 0 0 0 0-1.24H9a.62.62 0 0 0 0 1.24Zm7 0h4a.62.62 0 1 0 0-1.24h-4a.62.62 0 0 0 0 1.24Zm7 0h4a.62.62 0 1 0 0-1.24h-4a.62.62 0 0 0 0 1.24Zm-14-3h4a.62.62 0 0 0 0-1.24H9a.62.62 0 0 0 0 1.24Zm7 0h4a.62.62 0 0 0 0-1.24h-4a.62.62 0 0 0 0 1.24Zm7 0h4a.62.62 0 1 0 0-1.24h-4a.62.62 0 0 0 0 1.24Zm-14-3h4a.62.62 0 0 0 0-1.24H9a.62.62 0 0 0 0 1.24Zm7 0h4a.62.62 0 0 0 0-1.24h-4a.62.62 0 0 0 0 1.24Zm7 0h4a.62.62 0 1 0 0-1.24h-4a.62.62 0 1 0 0 1.24Z"/></svg>