<!-- © Red Hat, Inc. CC-BY-4.0 licensed --><svg xmlns="http://www.w3.org/2000/svg" viewBox="0 0 36 36"><path d="M25.27 7.44a5.74 5.74 0 0 0-4.72 1.11c-1.43 1-2.86 2-4.67 1.57a4.56 4.56 0 0 1-2.32-1.3A2.59 2.59 0 0 0 14.3 7a2.63 2.63 0 1 0-3.75 2.36l-1.92 9.18a.7.7 0 0 0 0 .25L6.07 30.87a.62.62 0 0 0 1.22.26L9.5 20.74a5.85 5.85 0 0 0 3.63 2.48c2.33.5 4.08-.61 5.68-1.79a4.59 4.59 0 0 1 3.09-1l-1.06 5.09a.63.63 0 0 0 .41.72 7.17 7.17 0 0 0 2.18.34 4.52 4.52 0 0 0 3.78-1.74 5.32 5.32 0 0 0 .79-1.65l1.8-8.63a6 6 0 0 0-4.53-7.12ZM11.68 5.62A1.38 1.38 0 1 1 10.3 7a1.37 1.37 0 0 1 1.38-1.38Zm10.51 19.61.94-4.51a4.49 4.49 0 0 1 2.73 2.64 3.5 3.5 0 0 1 .2.93 4 4 0 0 1-3.87.94Zm6.4-10.93-1.72 8.25a5.78 5.78 0 0 0-4.08-3.23 5.27 5.27 0 0 0-1.18-.13 6 6 0 0 0-3.54 1.23c-1.43 1-2.86 2-4.67 1.58a4.67 4.67 0 0 1-3.48-3.25l1.91-9a2.52 2.52 0 0 0 .72-.17 5.87 5.87 0 0 0 3.06 1.74c2.32.5 4.08-.6 5.68-1.79A4.49 4.49 0 0 1 25 8.67a4.74 4.74 0 0 1 3.59 5.63Z"/></svg>