<!-- © Red Hat, Inc. CC-BY-4.0 licensed --><svg xmlns="http://www.w3.org/2000/svg" viewBox="0 0 36 36"><path d="M5.68 23.21c-1.4-3.27-1.4-7.14 0-10.41.67-1.59 1.64-3.02 2.87-4.25.58-.58-.3-1.46-.88-.88-1.34 1.34-2.4 2.91-3.13 4.65-1.53 3.58-1.53 7.81 0 11.38.74 1.74 1.79 3.31 3.13 4.65.58.57 1.46-.3.88-.88a13.46 13.46 0 0 1-2.87-4.25Zm25.8-10.9c-.74-1.74-1.79-3.31-3.13-4.65-.58-.58-1.46.3-.88.88a13.46 13.46 0 0 1 2.87 4.25c1.4 3.27 1.4 7.14 0 10.41-.67 1.59-1.64 3.02-2.87 4.25-.58.58.3 1.46.88.88 1.34-1.34 2.4-2.91 3.13-4.65 1.53-3.58 1.53-7.81 0-11.38Z"/><path d="M10.66 10.66c.58-.58-.3-1.46-.88-.88a11.44 11.44 0 0 0-2.49 3.7c-1.22 2.84-1.22 6.21 0 9.05.59 1.38 1.42 2.63 2.49 3.7.58.58 1.46-.3.88-.88a10.391 10.391 0 0 1 0-14.68ZM29.62 18c0-1.57-.31-3.09-.91-4.52-.59-1.38-1.42-2.63-2.49-3.7-.58-.58-1.46.3-.88.88a10.391 10.391 0 0 1 0 14.68c-.58.58.3 1.46.88.88a11.44 11.44 0 0 0 2.49-3.7c.61-1.43.91-2.96.91-4.52Zm-5.74-2.62c-.25-1.17-1.28-2-2.47-2H14.6c-1.19 0-2.22.83-2.47 2l-.89 4.19a2.531 2.531 0 0 0 4.95 1.05l.16-.76h3.31l.16.76c.14.66.53 1.23 1.1 1.6.57.37 1.25.49 1.9.35a2.539 2.539 0 0 0 1.95-3l-.89-4.19Zm-1.32 5.97c-.33.07-.68 0-.96-.18a1.25 1.25 0 0 1-.55-.81l-.27-1.25a.63.63 0 0 0-.61-.5h-4.33a.63.63 0 0 0-.61.5l-.27 1.25c-.15.69-.83 1.13-1.52.99-.69-.15-1.13-.83-.99-1.52l.89-4.19c.13-.61.68-1.02 1.3-1.01h6.71c.62-.04 1.16.4 1.29 1.01l.89 4.19c.15.69-.3 1.37-.99 1.52Z"/><path d="M14.56 16.56a.61.61 0 0 0 0 .88c.24.25.65.25.88 0 .24-.22.24-.66 0-.88a.628.628 0 0 0-.88 0Zm6 0a.61.61 0 0 0 0 .88c.24.25.65.25.88 0a.61.61 0 0 0 0-.88.628.628 0 0 0-.88 0Z"/></svg>