<!-- © Red Hat, Inc. CC-BY-4.0 licensed --><svg xmlns="http://www.w3.org/2000/svg" viewBox="0 0 36 36"><path d="M31 18.38H5a.62.62 0 0 0-.62.62v10a.62.62 0 0 0 .62.62h26a.62.62 0 0 0 .62-.62V19a.62.62 0 0 0-.62-.62Zm-.62 10H5.62v-8.76h24.76Z"/><path d="M9 24.62h6a.62.62 0 0 0 0-1.24H9a.62.62 0 0 0 0 1.24Zm17.76-.04a.69.69 0 0 0 .24.05.63.63 0 0 0 .44-.19.6.6 0 0 0 .18-.44.67.67 0 0 0 0-.24.56.56 0 0 0-.14-.2.65.65 0 0 0-.88 0 .6.6 0 0 0 0 .88.56.56 0 0 0 .16.14Zm4.48-8a.66.66 0 0 0 .2-.14.6.6 0 0 0 .18-.44.59.59 0 0 0-.18-.44.66.66 0 0 0-.2-.14.65.65 0 0 0-.68.14.6.6 0 0 0 0 .88.63.63 0 0 0 .44.19.69.69 0 0 0 .24-.05Zm-17.57.05A.63.63 0 1 0 13 16a.63.63 0 0 0 .67.63Zm11.55 0a.63.63 0 1 0 0-1.25.63.63 0 0 0 0 1.25Zm-14.44 0a.63.63 0 1 0-.63-.63.63.63 0 0 0 .63.63Zm8.66 0a.63.63 0 1 0-.62-.63.63.63 0 0 0 .62.63Zm8.05-.63a.63.63 0 1 0 .62-.62.63.63 0 0 0-.62.62Zm-10.93.63a.63.63 0 1 0-.63-.63.63.63 0 0 0 .63.63Zm5.77 0a.63.63 0 1 0-.62-.63.63.63 0 0 0 .62.63Zm-14.44 0a.63.63 0 1 0-.63-.63.63.63 0 0 0 .63.63Zm-2.89 0a.61.61 0 0 0 .44-.19.63.63 0 0 0 0-.88.64.64 0 0 0-.88 0 .6.6 0 0 0 0 .88.6.6 0 0 0 .44.19Zm0-3.01a.63.63 0 0 0 .63-.62.63.63 0 1 0-1.26 0 .63.63 0 0 0 .63.62Zm0-2.99a.63.63 0 0 0 .63-.63.63.63 0 0 0-1.26 0 .63.63 0 0 0 .63.63Zm0-3.01A.61.61 0 0 0 5.62 7a.67.67 0 0 0 0-.24.56.56 0 0 0-.14-.2.64.64 0 0 0-.88 0 .56.56 0 0 0-.14.2.69.69 0 0 0 0 .24.61.61 0 0 0 .19.44.59.59 0 0 0 .35.18Zm23.11.01a.63.63 0 0 0 0-1.26.63.63 0 1 0 0 1.26Zm-2.89 0A.63.63 0 1 0 24.6 7a.63.63 0 0 0 .62.63Zm-2.89 0a.63.63 0 1 0-.62-.63.63.63 0 0 0 .62.63Zm-2.89 0a.63.63 0 1 0-.62-.63.63.63 0 0 0 .62.63Zm-11.55 0A.63.63 0 1 0 7.26 7a.63.63 0 0 0 .63.63Zm2.89 0a.63.63 0 1 0-.63-.63.63.63 0 0 0 .63.63Zm5.78 0a.63.63 0 1 0-.63-.63.63.63 0 0 0 .63.63Zm-2.89 0A.63.63 0 1 0 13 7a.63.63 0 0 0 .67.63ZM31 7.62a.67.67 0 0 0 .24 0 .66.66 0 0 0 .2-.14.59.59 0 0 0 .18-.48.6.6 0 0 0-.18-.44.66.66 0 0 0-.2-.14.65.65 0 0 0-.68.14.6.6 0 0 0 0 .88.6.6 0 0 0 .44.18Zm0 3a.63.63 0 0 0 .63-.62.63.63 0 0 0-.63-.63.63.63 0 0 0-.63.63.62.62 0 0 0 .63.62Zm0 1.75a.63.63 0 0 0-.63.63.62.62 0 0 0 .63.62.63.63 0 0 0 .63-.62.63.63 0 0 0-.63-.63Z"/></svg>