<!-- © Red Hat, Inc. CC-BY-4.0 licensed --><svg xmlns="http://www.w3.org/2000/svg" viewBox="0 0 36 36"><path d="M20.625 31c0 .345-.28.625-.625.625h-4a.625.625 0 0 1 0-1.25h4c.345 0 .625.28.625.625Zm7-7v3c0 .345-.28.625-.625.625h-5.375V29c0 .345-.28.625-.625.625h-6a.627.627 0 0 1-.24-.048.617.617 0 0 1-.152-.101c-.016-.013-.035-.019-.05-.034-.01-.01-.013-.023-.022-.034a.622.622 0 0 1-.113-.169.626.626 0 0 1-.048-.239v-1.375H9A.625.625 0 0 1 8.375 27v-3c0-.247.146-.47.37-.571l5.63-2.506V11c0-.02.01-.035.01-.054 0-.57.08-2.266.994-3.485l2.12-2.835a.623.623 0 0 1 1.002 0l2.12 2.835c.913 1.218.994 2.91.993 3.483.002.019.011.037.011.056v9.923l5.63 2.506c.225.1.37.324.37.571Zm-12-8.51 4.729-4.728-.007-.137h-4.694c-.006.124-.019.254-.018.368 0 .02-.009.035-.01.054v4.444Zm4.75-2.98-4.75 4.75v4.23l4.75-4.75v-4.23Zm-4.75 14.98 4.75-4.75v-4.23l-4.75 4.75v4.23Zm.754-19.28c-.244.327-.408.739-.526 1.165h4.294c-.118-.426-.282-.838-.526-1.164L18 6.044 16.379 8.21Zm-2.004 18.165v-4.083l-4.75 2.114v1.969h4.75Zm6-1.866-3.866 3.866h3.866v-3.866Zm6-.103-4.75-2.114v4.083h4.75v-1.969Z"/></svg>