<!-- © Red Hat, Inc. CC-BY-4.0 licensed --><svg xmlns="http://www.w3.org/2000/svg" viewBox="0 0 36 36"><path d="M28 24.375a3.624 3.624 0 0 0-3.562 3H17a.625.625 0 0 0 0 1.25h7.438c.298 1.7 1.777 3 3.562 3 1.999 0 3.625-1.626 3.625-3.625S29.999 24.375 28 24.375Zm0 6c-1.31 0-2.375-1.065-2.375-2.375S26.69 25.625 28 25.625 30.375 26.69 30.375 28 29.31 30.375 28 30.375ZM8 11.625c1.785 0 3.264-1.3 3.562-3h9.93l-.934.933a.626.626 0 0 0 .884.884l2-2c.01-.01.013-.023.022-.033a.622.622 0 0 0 .113-.17.626.626 0 0 0 0-.478.62.62 0 0 0-.112-.17c-.01-.01-.013-.023-.023-.033l-2-2a.625.625 0 1 0-.884.884l.933.933h-9.93c-.297-1.7-1.776-3-3.56-3-2 0-3.626 1.626-3.626 3.625S6.001 11.625 8 11.625Zm0-6c1.31 0 2.375 1.065 2.375 2.375S9.31 10.375 8 10.375 5.625 9.31 5.625 8 6.69 5.625 8 5.625Z"/><path d="M10 18.625h4.438c.298 1.7 1.777 3 3.562 3s3.264-1.3 3.562-3H26c3.102 0 5.625-2.523 5.625-5.625S29.102 7.375 26 7.375a.625.625 0 0 0 0 1.25c2.413 0 4.375 1.963 4.375 4.375S28.413 17.375 26 17.375h-4.438c-.298-1.7-1.777-3-3.562-3s-3.264 1.3-3.562 3H10c-3.102 0-5.625 2.523-5.625 5.625S6.898 28.625 10 28.625h2.491l-.933.933a.626.626 0 0 0 .884.884l2-2c.01-.01.013-.023.022-.034a.622.622 0 0 0 .113-.169.626.626 0 0 0 0-.478.62.62 0 0 0-.113-.17c-.009-.01-.012-.023-.022-.033l-2-2a.625.625 0 1 0-.884.884l.933.933H10c-2.413 0-4.375-1.963-4.375-4.375S7.587 18.625 10 18.625Zm8-3c1.31 0 2.375 1.065 2.375 2.375S19.31 20.375 18 20.375 15.625 19.31 15.625 18 16.69 15.625 18 15.625Z"/></svg>