<!-- © Red Hat, Inc. CC-BY-4.0 licensed --><svg xmlns="http://www.w3.org/2000/svg" viewBox="0 0 36 36"><path d="M26.45 31.62a.59.59 0 0 1-.29-.07L18 27.27l-8.15 4.28a.63.63 0 0 1-.91-.66l1.55-9.08-6.6-6.43a.61.61 0 0 1-.15-.64.63.63 0 0 1 .5-.43L13.36 13l4.08-8.27a.66.66 0 0 1 1.12 0L22.64 13l9.12 1.32a.63.63 0 0 1 .5.43.6.6 0 0 1-.16.64l-6.59 6.43 1.55 9.08a.62.62 0 0 1-.61.72ZM18 25.93a.6.6 0 0 1 .29.08l7.33 3.85-1.4-8.16a.6.6 0 0 1 .18-.55l5.93-5.78-8.2-1.19a.63.63 0 0 1-.47-.35L18 6.41l-3.66 7.42a.63.63 0 0 1-.47.35l-8.2 1.19 5.93 5.78a.6.6 0 0 1 .18.55l-1.39 8.16L17.71 26a.6.6 0 0 1 .29-.07Z"/></svg>