<!-- © Red Hat, Inc. CC-BY-4.0 licensed --><svg xmlns="http://www.w3.org/2000/svg" viewBox="0 0 36 36"><path d="M31 12.38H5a.63.63 0 0 0-.63.62v10a.63.63 0 0 0 .63.62h26a.62.62 0 0 0 .62-.62V13a.62.62 0 0 0-.62-.62Zm-.63 10H5.62v-8.76h24.75Z"/><path d="M9 18.62h6a.62.62 0 0 0 0-1.24H9a.62.62 0 1 0 0 1.24Zm15.2 6.27a.63.63 0 1 0 .63.62.62.62 0 0 0-.63-.62Zm-15.5 0a.63.63 0 1 0 .62.62.63.63 0 0 0-.62-.62Zm9.3 0a.63.63 0 0 0 0 1.25.63.63 0 0 0 0-1.25Zm9.3 0a.63.63 0 1 0 .63.62.62.62 0 0 0-.63-.62Zm-6.2 0a.63.63 0 1 0 .63.62.63.63 0 0 0-.63-.62Zm-15.5 0a.63.63 0 1 0 .62.62.63.63 0 0 0-.62-.62Zm24.8 0a.63.63 0 1 0 .63.62.62.62 0 0 0-.63-.62Zm-18.6 0a.63.63 0 1 0 .62.62.63.63 0 0 0-.62-.62Zm3.1 0a.63.63 0 1 0 .62.62.63.63 0 0 0-.62-.62ZM2.5 12.87a.63.63 0 1 0 .62.62.63.63 0 0 0-.62-.62Zm0 9.01a.63.63 0 1 0 .62.63.63.63 0 0 0-.62-.63Zm0-6.01a.63.63 0 1 0 .62.63.63.63 0 0 0-.62-.63Zm0 3.01a.63.63 0 1 0 .62.62.63.63 0 0 0-.62-.62Zm6.2-7.77a.63.63 0 1 0-.63-.62.62.62 0 0 0 .63.62Zm3.1 0a.63.63 0 1 0-.63-.62.62.62 0 0 0 .63.62Zm3.1 0a.63.63 0 1 0-.63-.62.62.62 0 0 0 .63.62Zm9.3 0a.63.63 0 1 0-.62-.62.63.63 0 0 0 .62.62Zm-3.1 0a.63.63 0 1 0-.62-.62.63.63 0 0 0 .62.62Zm-3.1 0a.63.63 0 1 0-.63-.62.63.63 0 0 0 .63.62Zm9.3 0a.63.63 0 1 0-.62-.62.63.63 0 0 0 .62.62Zm3.1 0a.63.63 0 1 0-.62-.62.63.63 0 0 0 .62.62Zm-24.8 0a.63.63 0 1 0-.6-.62.62.62 0 0 0 .6.62Zm27.9 7.77a.62.62 0 0 0-.62.62.63.63 0 1 0 1.25 0 .62.62 0 0 0-.63-.62Zm0 3a.63.63 0 1 0 .63.63.63.63 0 0 0-.63-.63Zm0-9.01a.63.63 0 1 0 .63.62.62.62 0 0 0-.63-.62Zm0 3a.63.63 0 1 0 .63.63.63.63 0 0 0-.63-.63Zm0-6.01a.63.63 0 1 0 .63.62.62.62 0 0 0-.63-.62Zm-31.01 0a.63.63 0 1 0 .63.62.62.62 0 0 0-.63-.62Zm0 15.03a.63.63 0 1 0 .63.62.62.62 0 0 0-.63-.62Zm31.01 0a.63.63 0 1 0 .63.62.62.62 0 0 0-.63-.62ZM27 17.37a.63.63 0 1 0 .63.62.62.62 0 0 0-.63-.62Z"/></svg>