<!-- © Red Hat, Inc. CC-BY-4.0 licensed --><svg xmlns="http://www.w3.org/2000/svg" viewBox="0 0 36 36"><path d="M31.44 4.56a.61.61 0 0 0-.88 0L18.62 16.49V7a.63.63 0 0 0-1-.5l-7.83 5.87H6A1.62 1.62 0 0 0 4.38 14v8A1.62 1.62 0 0 0 6 23.62h3.79l1 .73-6.2 6.21a.61.61 0 0 0 0 .88.63.63 0 0 0 .88 0l26-26a.61.61 0 0 0-.03-.88ZM10.38 22.5a.65.65 0 0 0-.38-.13H6a.38.38 0 0 1-.38-.37v-8a.38.38 0 0 1 .38-.38h4a.66.66 0 0 0 .38-.12l7-5.25v9.49l-5.72 5.72ZM18 21.37a.63.63 0 0 0-.62.63v5.75l-3-2.25a.63.63 0 1 0-.76 1l4 3a.63.63 0 0 0 1-.5v-7a.63.63 0 0 0-.62-.63Zm8.56-7.79a.65.65 0 0 0-.85-.27.64.64 0 0 0-.26.85 8.36 8.36 0 0 1-1.53 9.76.63.63 0 0 0 .89.88 9.61 9.61 0 0 0 1.75-11.22Z"/><path d="M28.58 10.47a.63.63 0 0 0-.19.87 12.4 12.4 0 0 1-1.66 15.38.63.63 0 0 0 .88.89 13.66 13.66 0 0 0 1.83-16.95.63.63 0 0 0-.86-.19Zm-5.81 5.92a.61.61 0 0 0-.48.73 4.38 4.38 0 0 1-1.2 4A.63.63 0 0 0 22 22a5.62 5.62 0 0 0 1.53-5.11.61.61 0 0 0-.76-.5Z"/></svg>