<svg xmlns="http://www.w3.org/2000/svg" xmlns:xlink="http://www.w3.org/1999/xlink" width="405.5" height="282" viewBox="0 0 405.5 282">
  <defs>
    <filter id="Icon" x="198" y="210.5" width="21" height="26" filterUnits="userSpaceOnUse">
      <feOffset dy="2" input="SourceAlpha"/>
      <feGaussianBlur stdDeviation="1.5" result="blur"/>
      <feFlood flood-opacity="0.251"/>
      <feComposite operator="in" in2="blur"/>
      <feComposite in="SourceGraphic"/>
    </filter>
    <filter id="Rectangle" x="0" y="0.5" width="405" height="210" filterUnits="userSpaceOnUse">
      <feOffset dy="7" input="SourceAlpha"/>
      <feGaussianBlur stdDeviation="7.5" result="blur-2"/>
      <feFlood flood-opacity="0.149"/>
      <feComposite operator="in" in2="blur-2"/>
      <feComposite in="SourceGraphic"/>
    </filter>
    <filter id="Polygon" x="178.5" y="177" width="48" height="30" filterUnits="userSpaceOnUse">
      <feOffset dy="3" input="SourceAlpha"/>
      <feGaussianBlur stdDeviation="2" result="blur-3"/>
      <feFlood flood-opacity="0.051"/>
      <feComposite operator="in" in2="blur-3"/>
      <feComposite in="SourceGraphic"/>
    </filter>
  </defs>
  <g id="Example" transform="translate(-321.5 -3054)">
    <rect id="Rectangle-2" data-name="Rectangle" width="399" height="282" transform="translate(328 3054)" fill="#fff"/>
    <g id="Example-2" data-name="Example" transform="translate(-1)">
      <g id="Field" transform="translate(0 80)">
        <g id="Rectangle-3" data-name="Rectangle" transform="translate(416 3204)" fill="#fff" stroke="#d2d2d2" stroke-width="1">
          <rect width="296" height="36" stroke="none"/>
          <rect x="0.5" y="0.5" width="295" height="35" fill="none"/>
        </g>
        <rect id="Rectangle-4" data-name="Rectangle" width="296" height="1" transform="translate(416 3239)" fill="#6a6e73"/>
        <path id="Path" d="M1.424,0H9.136V-1.072H2.656V-5.12H7.1V-6.192H2.656v-3.936H9.072V-11.2H1.424ZM10.08,0h1.328l2.32-3.184L16.064,0h1.392L14.432-4.048l2.8-3.76H15.9l-2.128,2.96-2.16-2.96H10.224l2.832,3.792ZM21.04.144A3.352,3.352,0,0,0,23.52-.912V0h1.152V-5.184c0-1.776-1.088-2.752-3.024-2.752a6.689,6.689,0,0,0-2.944.752l.432.9A5.156,5.156,0,0,1,21.5-6.96,1.758,1.758,0,0,1,23.52-5.024v1.072a4.521,4.521,0,0,0-2.384-.608c-1.76,0-2.928.928-2.928,2.32C18.208-.832,19.376.144,21.04.144ZM19.328-2.272c0-.864.784-1.44,1.984-1.44a4.122,4.122,0,0,1,2.208.56v1.5a3.091,3.091,0,0,1-2.24.9C20.112-.752,19.328-1.36,19.328-2.272ZM27.04,0h1.168V-5.808a2.14,2.14,0,0,1,1.9-1.152,1.94,1.94,0,0,1,1.936,2.208V0h1.168V-5.04a3.238,3.238,0,0,0-.064-.688A2.173,2.173,0,0,1,35.1-6.96c1.184,0,1.92.848,1.92,2.208V0h1.168V-5.04a2.657,2.657,0,0,0-2.656-2.9,2.885,2.885,0,0,0-2.608,1.52,2.566,2.566,0,0,0-2.4-1.52,2.674,2.674,0,0,0-2.32,1.344V-7.808H27.04ZM40.56,3.344h1.168V-.976A3.166,3.166,0,0,0,44.176.112,3.8,3.8,0,0,0,47.84-3.9a3.768,3.768,0,0,0-3.6-4,3.08,3.08,0,0,0-2.528,1.216v-1.12H40.56ZM43.952-6.88a2.8,2.8,0,0,1,2.736,2.992A2.8,2.8,0,0,1,43.952-.9a2.744,2.744,0,0,1-2.224-1.088V-5.808A2.666,2.666,0,0,1,43.952-6.88Zm7.1-4.8-1.168.24V0h1.168ZM59.9-.9l-.736-.784a3.191,3.191,0,0,1-2.144.8A2.845,2.845,0,0,1,54.24-3.648h6.128V-4a3.689,3.689,0,0,0-3.584-3.936A3.8,3.8,0,0,0,53.1-3.9,3.9,3.9,0,0,0,56.976.144,4.558,4.558,0,0,0,59.9-.9ZM56.768-6.928A2.579,2.579,0,0,1,59.216-4.48H54.272A2.608,2.608,0,0,1,56.768-6.928Zm6.16,5.312a.857.857,0,0,0-.848.864.861.861,0,0,0,.848.88.858.858,0,0,0,.832-.88A.854.854,0,0,0,62.928-1.616Zm0-6.352a.857.857,0,0,0-.848.864.861.861,0,0,0,.848.88.858.858,0,0,0,.832-.88A.854.854,0,0,0,62.928-7.968ZM70.032,0l3.6-4.88L77.216,0H78.7L74.352-5.824,78.368-11.2h-1.44l-3.28,4.448L70.336-11.2H68.864l4.048,5.408L68.592,0Zm10.7,0,3.6-4.88L87.92,0h1.488L85.056-5.824,89.072-11.2h-1.44l-3.28,4.448L81.04-11.2H79.568l4.048,5.408L79.3,0Zm9.376-5.008V-4H95.44V-5.008Zm9.5-6.192H98.9l-2.224.992v1.056l1.792-.8V0h1.152ZM101.728,0h7.216V-1.008l-5.776.016,3.824-4.144c1.36-1.5,1.712-2.192,1.712-3.3,0-1.7-1.456-2.912-3.472-2.912a5.247,5.247,0,0,0-3.648,1.584l.672.8a4.137,4.137,0,0,1,2.96-1.36,2.116,2.116,0,0,1,2.352,1.952c0,.848-.32,1.472-1.36,2.624l-4.48,4.9Zm16.384-3.072A2.879,2.879,0,0,0,115.6-5.76,2.7,2.7,0,0,0,117.7-8.3c0-1.76-1.52-3.072-3.568-3.072a5.029,5.029,0,0,0-3.712,1.616l.768.768a3.745,3.745,0,0,1,2.928-1.36,2.257,2.257,0,0,1,2.432,2.112A1.932,1.932,0,0,1,114.5-6.224h-1.28v.992h1.328A2.206,2.206,0,0,1,116.96-3.1c0,1.328-1.152,2.256-2.784,2.256a4.075,4.075,0,0,1-3.136-1.328l-.768.752A5.37,5.37,0,0,0,114.192.16C116.464.16,118.112-1.2,118.112-3.072ZM126.88-11.2h-1.232L119.7-3.9v.912h6.048V0h1.136V-2.992h1.552V-4H126.88ZM121.04-4l4.7-5.808V-4Zm8.8-1.6.8.256a5.326,5.326,0,0,1,2.512-.64A2.5,2.5,0,0,1,135.9-3.5a2.583,2.583,0,0,1-2.752,2.672,4.166,4.166,0,0,1-3.1-1.312l-.72.784A5.344,5.344,0,0,0,133.136.16a3.628,3.628,0,0,0,3.92-3.712,3.339,3.339,0,0,0-3.664-3.36,5.334,5.334,0,0,0-2.48.592l.176-3.872h5.376V-11.2H130.1ZM143.152.128a3.626,3.626,0,0,0,3.792-3.664A3.5,3.5,0,0,0,143.2-7.024a4.211,4.211,0,0,0-3.28,1.7c.048-3.088,1.472-4.96,3.776-4.96a4.3,4.3,0,0,1,2.144.608l.576-.9a4.884,4.884,0,0,0-2.624-.752c-3.024,0-5.024,2.432-5.024,6.112C138.768-2.08,140.576.128,143.152.128ZM143.04-6.08A2.562,2.562,0,0,1,145.792-3.5,2.574,2.574,0,0,1,143.136-.88c-1.712,0-2.944-1.408-3.184-3.552A3.991,3.991,0,0,1,143.04-6.08ZM148.992,0H150.3l5.5-10.3v-.9h-7.984v1.024h6.736ZM160.96.16c2.32,0,3.984-1.328,3.984-3.184A3.106,3.106,0,0,0,162.32-5.9a2.776,2.776,0,0,0,2.208-2.56c0-1.664-1.536-2.912-3.568-2.912s-3.552,1.248-3.552,2.912a2.776,2.776,0,0,0,2.208,2.56,3.136,3.136,0,0,0-2.64,2.88C156.976-1.184,158.656.16,160.96.16Zm0-6.544a2.229,2.229,0,0,1-2.432-2.032,2.219,2.219,0,0,1,2.432-2.032,2.225,2.225,0,0,1,2.448,2.032A2.234,2.234,0,0,1,160.96-6.384Zm0,5.6a2.578,2.578,0,0,1-2.848-2.32c0-1.3,1.232-2.288,2.848-2.288s2.848.992,2.848,2.288A2.578,2.578,0,0,1,160.96-.784Zm9.168-10.544a3.626,3.626,0,0,0-3.792,3.664,3.5,3.5,0,0,0,3.744,3.488,4.211,4.211,0,0,0,3.28-1.7c-.048,3.088-1.472,4.96-3.776,4.96a4.3,4.3,0,0,1-2.144-.608l-.576.9a4.884,4.884,0,0,0,2.624.752c3.024,0,5.024-2.432,5.024-6.112C174.512-9.12,172.7-11.328,170.128-11.328Zm.112,6.208A2.562,2.562,0,0,1,167.488-7.7a2.574,2.574,0,0,1,2.656-2.624c1.712,0,2.944,1.408,3.184,3.552A3.991,3.991,0,0,1,170.24-5.12ZM180.7.16c2.592,0,4.368-2.368,4.368-5.76s-1.792-5.76-4.368-5.76c-2.56,0-4.368,2.368-4.368,5.76S178.128.16,180.7.16Zm0-1.04c-1.936,0-3.2-1.856-3.2-4.72s1.264-4.72,3.2-4.72,3.2,1.84,3.2,4.72S182.656-.88,180.7-.88Z" transform="translate(424 3228)" fill="#6a6e73"/>
      </g>
      <g id="Text_label" data-name="Text label">
        <path id="Icon-2" data-name="Icon" d="M15,8a7,7,0,1,0,7,7A7,7,0,0,0,15,8Zm0,12.645A5.645,5.645,0,1,1,20.645,15,5.642,5.642,0,0,1,15,20.645Zm3.027-7.2c0,1.893-2.044,1.922-2.044,2.621v.179a.339.339,0,0,1-.339.339H14.356a.339.339,0,0,1-.339-.339V16c0-1.009.765-1.412,1.343-1.736.5-.278.8-.467.8-.835,0-.487-.621-.81-1.123-.81-.655,0-.957.31-1.381.846a.339.339,0,0,1-.47.06l-.785-.6a.339.339,0,0,1-.075-.462,3.173,3.173,0,0,1,2.839-1.529A2.8,2.8,0,0,1,18.027,13.442Zm-1.842,4.719A1.185,1.185,0,1,1,15,16.976,1.187,1.187,0,0,1,16.185,18.161Z" transform="translate(510 3252)"/>
        <path id="Path-2" data-name="Path" d="M5.082-5.684l.42-.63L3.836-7.336l1.61-1.008-.42-.616-1.5.98L3.542-9.8H2.814l.014,1.834L1.316-8.96l-.392.616,1.6,1.008L.868-6.314l.406.63L2.842-6.706,2.814-4.774h.728L3.514-6.706Z" transform="translate(504 3272)" fill="#c9190b"/>
        <path id="Path-3" data-name="Path" d="M1.176,0h7.07V-1.428H2.856V-4.242H6.58v-1.4H2.856v-2.73H8.19V-9.8H1.176Zm8.918,0h1.582V-5.054a1.628,1.628,0,0,1,1.386-.8,1.419,1.419,0,0,1,1.414,1.61V0h1.582V-4.578c0-.154-.014-.294-.028-.448a1.671,1.671,0,0,1,1.414-.826,1.419,1.419,0,0,1,1.414,1.61V0H20.44V-4.578a2.324,2.324,0,0,0-2.3-2.548A2.587,2.587,0,0,0,15.82-5.768a2.2,2.2,0,0,0-2.058-1.358,2.393,2.393,0,0,0-2.086,1.232v-1.12H10.094ZM22.5,2.968H24.08V-.84a2.622,2.622,0,0,0,2.044.91,3.4,3.4,0,0,0,3.29-3.57,3.366,3.366,0,0,0-3.178-3.57,2.643,2.643,0,0,0-2.184,1.064V-7.014H22.5ZM25.76-5.74A2.121,2.121,0,0,1,27.846-3.5,2.1,2.1,0,0,1,25.76-1.26a2.15,2.15,0,0,1-1.68-.77V-4.956A2.059,2.059,0,0,1,25.76-5.74Zm7.014-4.536-1.582.266V0h1.582ZM34.538-3.5A3.522,3.522,0,0,0,38.066.14,3.514,3.514,0,0,0,41.594-3.5a3.5,3.5,0,0,0-3.528-3.626A3.51,3.51,0,0,0,34.538-3.5Zm3.528,2.268a2.039,2.039,0,0,1-1.96-2.254,2.057,2.057,0,0,1,1.96-2.282,2.065,2.065,0,0,1,1.96,2.282A2.047,2.047,0,0,1,38.066-1.232ZM44.66.784a1.118,1.118,0,0,1-1.134.812,5.757,5.757,0,0,1-.616-.056V2.9a3.353,3.353,0,0,0,.8.1A2.371,2.371,0,0,0,46.2,1.148l3.332-8.162H47.81L45.85-1.806,44.072-7.014H42.308L44.954.042ZM56.644-.9l-1.036-.966a2.279,2.279,0,0,1-1.666.658,2.142,2.142,0,0,1-2.1-1.918h5.18v-.392A3.367,3.367,0,0,0,53.7-7.126,3.454,3.454,0,0,0,50.288-3.5,3.565,3.565,0,0,0,53.858.14,4.056,4.056,0,0,0,56.644-.9ZM53.69-5.838a1.92,1.92,0,0,1,1.834,1.75H51.87A1.884,1.884,0,0,1,53.69-5.838ZM64.848-.9l-1.036-.966a2.279,2.279,0,0,1-1.666.658,2.142,2.142,0,0,1-2.1-1.918h5.18v-.392a3.367,3.367,0,0,0-3.318-3.612A3.454,3.454,0,0,0,58.492-3.5,3.565,3.565,0,0,0,62.062.14,4.056,4.056,0,0,0,64.848-.9ZM61.894-5.838a1.92,1.92,0,0,1,1.834,1.75H60.074A1.884,1.884,0,0,1,61.894-5.838ZM70.378,0h1.68V-9.8h-1.68Zm4.1,0h3.584a4.793,4.793,0,0,0,4.914-4.886A4.808,4.808,0,0,0,78.064-9.8H74.48Zm3.626-8.344a3.266,3.266,0,0,1,3.136,3.458,3.241,3.241,0,0,1-3.136,3.43H76.16V-8.344Z" transform="translate(416 3272)" fill="#151515"/>
      </g>
      <g id="Focus_indicator_Outer" data-name="Focus indicator / Outer" transform="translate(516 3258)">
        <g id="Rectangle-5" data-name="Rectangle" fill="none" stroke="#2261c5" stroke-width="2">
          <rect width="18" height="18" rx="3" stroke="none"/>
          <rect x="-1" y="-1" width="20" height="20" rx="4" fill="none"/>
        </g>
      </g>
      <g id="Cursor" transform="translate(525 3267)">
        <g transform="matrix(1, 0, 0, 1, -202.5, -213)" filter="url(#Icon)">
          <g id="Icon-3" data-name="Icon" transform="translate(202.5 213)">
            <path d="M 0.5 15.79290008544922 L 0.5 1.207100033760071 L 10.79290008544922 11.5 L 5 11.5 L 4.792890071868896 11.5 L 4.646450042724609 11.64645004272461 L 0.5 15.79290008544922 Z" stroke="none"/>
            <path d="M 1 14.58578014373779 L 4.585790157318115 11 L 9.585780143737793 11 L 1 2.414220094680786 L 1 14.58578014373779 M -8.881784197001252e-16 17 L -8.881784197001252e-16 0 L 12 12 L 5 12 L -8.881784197001252e-16 17 Z" stroke="none" fill="#fff"/>
          </g>
        </g>
      </g>
      <g id="Popover_Top_Dark_theme" data-name="Popover / Top / Dark theme" transform="translate(345 3070)">
        <g transform="matrix(1, 0, 0, 1, -22.5, -16)" filter="url(#Rectangle)">
          <rect id="Rectangle-6" data-name="Rectangle" width="360" height="165" transform="translate(22.5 16)" fill="#151515"/>
        </g>
        <g transform="matrix(1, 0, 0, 1, -22.5, -16)" filter="url(#Polygon)">
          <path id="Polygon-2" data-name="Polygon" d="M18,0,36,18H0Z" transform="translate(220.5 198) rotate(180)" fill="#151515"/>
        </g>
        <g id="Button_Link_Dark_theme" data-name="Button / Link / Dark theme" transform="translate(24.448 123.32)">
          <path id="Path-4" data-name="Path" d="M1.424,0H8.976V-1.088H2.656V-11.2H1.424Zm8.768-3.9A3.867,3.867,0,0,0,13.984.16,3.86,3.86,0,0,0,17.792-3.9a3.832,3.832,0,0,0-3.808-4.032A3.829,3.829,0,0,0,10.192-3.9ZM13.984-.88a2.753,2.753,0,0,1-2.64-3.008,2.777,2.777,0,0,1,2.64-3.024A2.789,2.789,0,0,1,16.64-3.888,2.774,2.774,0,0,1,13.984-.88ZM23.1.1a3.077,3.077,0,0,0,2.5-1.152V.416c0,1.312-.752,2-2.176,2a5.25,5.25,0,0,1-2.5-.72l-.5.9a6.262,6.262,0,0,0,3.04.816c2.128,0,3.3-1.072,3.3-3.008V-7.808H25.616V-6.8a3.151,3.151,0,0,0-2.448-1.1,3.8,3.8,0,0,0-3.664,4A3.768,3.768,0,0,0,23.1.1Zm-2.448-4A2.787,2.787,0,0,1,23.392-6.88,2.8,2.8,0,0,1,25.6-5.824v3.856A2.687,2.687,0,0,1,23.392-.912,2.8,2.8,0,0,1,20.656-3.9ZM33.488-9.728a.83.83,0,0,0,.832-.848.847.847,0,0,0-.832-.832.85.85,0,0,0-.848.832A.834.834,0,0,0,33.488-9.728Zm.576,1.92H32.9V0h1.168ZM36.464,0h1.168V-5.76a2.3,2.3,0,0,1,2.048-1.2,2.024,2.024,0,0,1,2.1,2.24V0h1.168V-5.056a2.717,2.717,0,0,0-2.832-2.88,2.813,2.813,0,0,0-2.48,1.392V-7.808H36.464Z" transform="translate(135.552 11.68)" fill="#73bcf7"/>
          <path id="Path-5" data-name="Path" d="M.448-1.744A6.443,6.443,0,0,0,5.04.16C7.5.16,9.3-1.28,9.3-3.216c0-1.68-1.024-2.576-3.408-3.008L4.1-6.528c-1.5-.24-2.112-.752-2.112-1.744,0-1.168,1.1-2.032,2.672-2.032A6.331,6.331,0,0,1,8.432-8.96l.64-.96A7.324,7.324,0,0,0,4.64-11.344c-2.272,0-3.84,1.312-3.84,3.2,0,1.5.912,2.352,2.96,2.72l1.808.3c1.824.32,2.5.848,2.5,1.968C8.064-1.856,6.8-.9,5.072-.9A5.216,5.216,0,0,1,1.2-2.64ZM11.168,0h1.168V-5.76a2.3,2.3,0,0,1,2.048-1.2,2.024,2.024,0,0,1,2.1,2.24V0h1.168V-5.056a2.717,2.717,0,0,0-2.832-2.88,2.813,2.813,0,0,0-2.48,1.392V-11.68l-1.168.24Zm8.48-3.9A3.867,3.867,0,0,0,23.44.16,3.86,3.86,0,0,0,27.248-3.9,3.832,3.832,0,0,0,23.44-7.936,3.829,3.829,0,0,0,19.648-3.9ZM23.44-.88A2.753,2.753,0,0,1,20.8-3.888a2.777,2.777,0,0,1,2.64-3.024A2.789,2.789,0,0,1,26.1-3.888,2.774,2.774,0,0,1,23.44-.88ZM31.68,0l1.856-6.3L35.392,0h1.136l2.128-7.808h-1.1l-1.616,6.24-1.872-6.24h-1.04l-1.872,6.24L29.52-7.808H28.384L30.528,0ZM44.032,0H45.2V-5.808A2.14,2.14,0,0,1,47.1-6.96,1.94,1.94,0,0,1,49.04-4.752V0h1.168V-5.04a3.238,3.238,0,0,0-.064-.688A2.173,2.173,0,0,1,52.1-6.96c1.184,0,1.92.848,1.92,2.208V0h1.168V-5.04a2.657,2.657,0,0,0-2.656-2.9,2.885,2.885,0,0,0-2.608,1.52,2.566,2.566,0,0,0-2.4-1.52A2.674,2.674,0,0,0,45.2-6.592V-7.808H44.032ZM64-.9l-.736-.784a3.191,3.191,0,0,1-2.144.8,2.845,2.845,0,0,1-2.784-2.768h6.128V-4A3.689,3.689,0,0,0,60.88-7.936,3.8,3.8,0,0,0,57.2-3.9,3.9,3.9,0,0,0,61.072.144,4.558,4.558,0,0,0,64-.9ZM60.864-6.928A2.579,2.579,0,0,1,63.312-4.48H58.368A2.608,2.608,0,0,1,60.864-6.928ZM72.736,0l1.856-6.3L76.448,0h1.136l2.128-7.808h-1.1l-1.616,6.24L75.12-7.808H74.08l-1.872,6.24-1.632-6.24H69.44L71.584,0ZM81.36,0h1.168V-5.76a2.3,2.3,0,0,1,2.048-1.2,2.024,2.024,0,0,1,2.1,2.24V0H87.84V-5.056a2.717,2.717,0,0,0-2.832-2.88,2.813,2.813,0,0,0-2.48,1.392V-11.68l-1.168.24ZM96.64-.9,95.9-1.68a3.191,3.191,0,0,1-2.144.8,2.845,2.845,0,0,1-2.784-2.768H97.1V-4A3.689,3.689,0,0,0,93.52-7.936,3.8,3.8,0,0,0,89.84-3.9,3.9,3.9,0,0,0,93.712.144,4.558,4.558,0,0,0,96.64-.9ZM93.5-6.928A2.579,2.579,0,0,1,95.952-4.48H91.008A2.608,2.608,0,0,1,93.5-6.928ZM99.1,0h1.168V-5.344a2.226,2.226,0,0,1,2.1-1.584,2.919,2.919,0,0,1,.816.144V-7.84a2.217,2.217,0,0,0-.736-.112,2.332,2.332,0,0,0-2.176,1.728V-7.808H99.1Zm11.584-.9-.736-.784a3.191,3.191,0,0,1-2.144.8,2.845,2.845,0,0,1-2.784-2.768h6.128V-4a3.689,3.689,0,0,0-3.584-3.936,3.8,3.8,0,0,0-3.68,4.032A3.9,3.9,0,0,0,107.76.144,4.558,4.558,0,0,0,110.688-.9Zm-3.136-6.032A2.579,2.579,0,0,1,110-4.48h-4.944A2.608,2.608,0,0,1,107.552-6.928Z" transform="translate(-0.448 11.68)" fill="#73bcf7"/>
        </g>
        <path id="Path-6" data-name="Path" d="M4.544,16H5.776V11.456L10.144,4.8H8.784L5.2,10.352,1.632,4.8H.192l4.352,6.624Zm4.944-3.9a3.809,3.809,0,1,0,7.6,0,3.807,3.807,0,1,0-7.6,0ZM13.28,15.12a2.753,2.753,0,0,1-2.64-3.008,2.777,2.777,0,0,1,2.64-3.024,2.789,2.789,0,0,1,2.656,3.024A2.774,2.774,0,0,1,13.28,15.12Zm6.992-6.928H19.088v5.04a2.73,2.73,0,0,0,2.832,2.9,2.8,2.8,0,0,0,2.48-1.392V16h1.168V8.192H24.4v5.776a2.318,2.318,0,0,1-2.048,1.184,2.017,2.017,0,0,1-2.08-2.256ZM27.968,16h1.168V10.656a2.226,2.226,0,0,1,2.1-1.584,2.919,2.919,0,0,1,.816.144V8.16a2.217,2.217,0,0,0-.736-.112,2.332,2.332,0,0,0-2.176,1.728V8.192H27.968Zm15.808-.9-.736-.784a3.191,3.191,0,0,1-2.144.8,2.845,2.845,0,0,1-2.784-2.768H44.24V12a3.689,3.689,0,0,0-3.584-3.936,3.8,3.8,0,0,0-3.68,4.032,3.9,3.9,0,0,0,3.872,4.048A4.558,4.558,0,0,0,43.776,15.1ZM40.64,9.072a2.579,2.579,0,0,1,2.448,2.448H38.144A2.608,2.608,0,0,1,40.64,9.072ZM46.24,16h1.168V10.192a2.14,2.14,0,0,1,1.9-1.152,1.94,1.94,0,0,1,1.936,2.208V16h1.168V10.96a3.238,3.238,0,0,0-.064-.688A2.173,2.173,0,0,1,54.3,9.04c1.184,0,1.92.848,1.92,2.208V16h1.168V10.96a2.657,2.657,0,0,0-2.656-2.9,2.885,2.885,0,0,0-2.608,1.52,2.566,2.566,0,0,0-2.4-1.52,2.674,2.674,0,0,0-2.32,1.344V8.192H46.24Zm13.52,3.344h1.168v-4.32a3.166,3.166,0,0,0,2.448,1.088A3.8,3.8,0,0,0,67.04,12.1a3.768,3.768,0,0,0-3.6-4,3.08,3.08,0,0,0-2.528,1.216V8.192H59.76ZM63.152,9.12a2.8,2.8,0,0,1,2.736,2.992A2.8,2.8,0,0,1,63.152,15.1a2.744,2.744,0,0,1-2.224-1.088V10.192A2.666,2.666,0,0,1,63.152,9.12Zm7.1-4.8-1.168.24V16h1.168ZM72.3,12.1a3.809,3.809,0,1,0,7.6,0,3.807,3.807,0,1,0-7.6,0ZM76.1,15.12a2.753,2.753,0,0,1-2.64-3.008,2.671,2.671,0,1,1,5.3,0A2.774,2.774,0,0,1,76.1,15.12Zm7.152,2.128c-.288.7-.656.992-1.248.992a2.719,2.719,0,0,1-.64-.064v1.04a2.679,2.679,0,0,0,.752.112c1.152,0,1.744-.464,2.24-1.728l3.872-9.408h-1.3l-2.512,6.416L82.048,8.192h-1.3l3.008,7.792ZM95.888,15.1l-.736-.784a3.191,3.191,0,0,1-2.144.8,2.845,2.845,0,0,1-2.784-2.768h6.128V12a3.689,3.689,0,0,0-3.584-3.936,3.8,3.8,0,0,0-3.68,4.032,3.9,3.9,0,0,0,3.872,4.048A4.558,4.558,0,0,0,95.888,15.1ZM92.752,9.072A2.579,2.579,0,0,1,95.2,11.52H90.256A2.608,2.608,0,0,1,92.752,9.072ZM104.816,15.1l-.736-.784a3.191,3.191,0,0,1-2.144.8,2.845,2.845,0,0,1-2.784-2.768h6.128V12A3.689,3.689,0,0,0,101.7,8.064a3.8,3.8,0,0,0-3.68,4.032,3.9,3.9,0,0,0,3.872,4.048A4.558,4.558,0,0,0,104.816,15.1ZM101.68,9.072a2.579,2.579,0,0,1,2.448,2.448H99.184A2.608,2.608,0,0,1,101.68,9.072ZM111.2,16h1.232V4.8H111.2Zm4.064,0h3.712a5.413,5.413,0,0,0,5.6-5.6,5.422,5.422,0,0,0-5.6-5.6h-3.712Zm3.792-10.1a4.305,4.305,0,0,1,4.272,4.5,4.305,4.305,0,0,1-4.272,4.5H116.5V5.9Zm11.952.368a.83.83,0,0,0,.832-.848.84.84,0,0,0-1.68,0A.834.834,0,0,0,131.008,6.272Zm.576,1.92h-1.168V16h1.168Zm1.648,6.8a4.451,4.451,0,0,0,3.168,1.152c1.728,0,3.04-1.056,3.04-2.416,0-1.152-.7-1.808-2.272-2.1l-1.312-.24c-1.008-.176-1.344-.48-1.344-1.12,0-.768.672-1.248,1.7-1.248a4.142,4.142,0,0,1,2.448.832l.576-.816a5.048,5.048,0,0,0-2.976-.976c-1.648,0-2.816.944-2.816,2.288,0,1.136.688,1.776,2.208,2.048l1.28.224c.992.192,1.408.528,1.408,1.168,0,.816-.832,1.408-1.968,1.408a4.072,4.072,0,0,1-2.512-.976Zm11.36-2.9a3.809,3.809,0,1,0,7.6,0,3.807,3.807,0,1,0-7.6,0Zm3.792,3.024a2.753,2.753,0,0,1-2.64-3.008,2.671,2.671,0,1,1,5.3,0A2.774,2.774,0,0,1,148.384,15.12Zm5.856.88h1.168V10.24a2.3,2.3,0,0,1,2.048-1.2,2.024,2.024,0,0,1,2.1,2.24V16h1.168V10.944a2.717,2.717,0,0,0-2.832-2.88,2.813,2.813,0,0,0-2.48,1.392V8.192H154.24Zm13.488-1.76c0,1.248.7,1.9,2.048,1.9a4.386,4.386,0,0,0,1.36-.208V14.9a2.8,2.8,0,0,1-1.1.208c-.816,0-1.136-.336-1.136-1.168V9.152h2.24v-.96H168.9V5.776l-1.168.272V8.192h-1.616v.96h1.616Zm5.12,1.76h1.168V10.24a2.3,2.3,0,0,1,2.048-1.2,2.024,2.024,0,0,1,2.1,2.24V16h1.168V10.944a2.717,2.717,0,0,0-2.832-2.88,2.813,2.813,0,0,0-2.48,1.392V4.32l-1.168.24Zm15.28-.9-.736-.784a3.191,3.191,0,0,1-2.144.8,2.845,2.845,0,0,1-2.784-2.768h6.128V12a3.689,3.689,0,0,0-3.584-3.936,3.8,3.8,0,0,0-3.68,4.032,3.9,3.9,0,0,0,3.872,4.048A4.558,4.558,0,0,0,188.128,15.1Zm-3.136-6.032a2.579,2.579,0,0,1,2.448,2.448H182.5A2.608,2.608,0,0,1,184.992,9.072ZM201.6,12.1a3.768,3.768,0,0,0-3.6-4,3.146,3.146,0,0,0-2.512,1.168V4.32l-1.168.24V16h1.152V14.976a3.161,3.161,0,0,0,2.464,1.136A3.8,3.8,0,0,0,201.6,12.1ZM197.712,9.12a2.8,2.8,0,0,1,2.736,2.992,2.8,2.8,0,0,1-2.736,2.992,2.744,2.744,0,0,1-2.224-1.088V10.192A2.666,2.666,0,0,1,197.712,9.12Zm5.6,2.976a3.809,3.809,0,1,0,7.6,0,3.807,3.807,0,1,0-7.6,0ZM207.1,15.12a2.753,2.753,0,0,1-2.64-3.008,2.671,2.671,0,1,1,5.3,0A2.774,2.774,0,0,1,207.1,15.12Zm6.288-.88c0,1.248.7,1.9,2.048,1.9a4.386,4.386,0,0,0,1.36-.208V14.9a2.8,2.8,0,0,1-1.1.208c-.816,0-1.136-.336-1.136-1.168V9.152h2.24v-.96h-2.24V5.776l-1.168.272V8.192h-1.616v.96h1.616Zm6.208,0c0,1.248.7,1.9,2.048,1.9a4.386,4.386,0,0,0,1.36-.208V14.9a2.8,2.8,0,0,1-1.1.208c-.816,0-1.136-.336-1.136-1.168V9.152h2.24v-.96h-2.24V5.776l-1.168.272V8.192h-1.616v.96H219.6Zm4.576-2.144a3.809,3.809,0,1,0,7.6,0,3.807,3.807,0,1,0-7.6,0Zm3.792,3.024a2.753,2.753,0,0,1-2.64-3.008,2.671,2.671,0,1,1,5.3,0A2.774,2.774,0,0,1,227.968,15.12Zm5.856.88h1.168V10.192a2.14,2.14,0,0,1,1.9-1.152,1.94,1.94,0,0,1,1.936,2.208V16H240V10.96a3.238,3.238,0,0,0-.064-.688,2.173,2.173,0,0,1,1.952-1.232c1.184,0,1.92.848,1.92,2.208V16h1.168V10.96a2.657,2.657,0,0,0-2.656-2.9,2.885,2.885,0,0,0-2.608,1.52,2.566,2.566,0,0,0-2.4-1.52,2.674,2.674,0,0,0-2.32,1.344V8.192h-1.168Zm16.9-3.9a3.809,3.809,0,1,0,7.6,0,3.807,3.807,0,1,0-7.6,0Zm3.792,3.024a2.753,2.753,0,0,1-2.64-3.008,2.671,2.671,0,1,1,5.3,0A2.774,2.774,0,0,1,254.512,15.12Zm4.608-6.928v.96h1.744V16h1.168V9.152h2.224v-.96h-2.224V6.5c0-.928.384-1.36,1.28-1.36a3.22,3.22,0,0,1,.944.144V4.224A3.3,3.3,0,0,0,263.2,4.08a2.143,2.143,0,0,0-2.336,2.4V8.192ZM2.736,41.248c-.288.7-.656.992-1.248.992a2.719,2.719,0,0,1-.64-.064v1.04a2.678,2.678,0,0,0,.752.112c1.152,0,1.744-.464,2.24-1.728l3.872-9.408h-1.3L3.9,38.608,1.536,32.192H.24l3.008,7.792ZM8.576,36.1a3.809,3.809,0,1,0,7.6,0,3.807,3.807,0,1,0-7.6,0Zm3.792,3.024a2.753,2.753,0,0,1-2.64-3.008,2.777,2.777,0,0,1,2.64-3.024,2.789,2.789,0,0,1,2.656,3.024A2.774,2.774,0,0,1,12.368,39.12Zm6.992-6.928H18.176v5.04a2.73,2.73,0,0,0,2.832,2.9,2.8,2.8,0,0,0,2.48-1.392V40h1.168V32.192H23.488v5.776a2.318,2.318,0,0,1-2.048,1.184A2.017,2.017,0,0,1,19.36,36.9ZM27.056,40h1.168V34.656a2.226,2.226,0,0,1,2.1-1.584,2.919,2.919,0,0,1,.816.144V32.16a2.217,2.217,0,0,0-.736-.112,2.332,2.332,0,0,0-2.176,1.728V32.192H27.056Zm9.552,0H37.84V28.8H36.608Zm4.064,0h3.712a5.413,5.413,0,0,0,5.6-5.6,5.422,5.422,0,0,0-5.6-5.6H40.672Zm3.792-10.1a4.305,4.305,0,0,1,4.272,4.5,4.305,4.305,0,0,1-4.272,4.5H41.9V29.9Zm14.928,9.184a2.995,2.995,0,0,1-.016-5.968,3.069,3.069,0,0,1,2.208.976l.752-.816a4.259,4.259,0,0,0-3.008-1.216,4.044,4.044,0,0,0,0,8.08,4.061,4.061,0,0,0,2.96-1.264l-.72-.72A2.876,2.876,0,0,1,59.392,39.088Zm6.992,1.056a3.352,3.352,0,0,0,2.48-1.056V40h1.152V34.816c0-1.776-1.088-2.752-3.024-2.752a6.689,6.689,0,0,0-2.944.752l.432.9a5.156,5.156,0,0,1,2.368-.672,1.758,1.758,0,0,1,2.016,1.936v1.072a4.521,4.521,0,0,0-2.384-.608c-1.76,0-2.928.928-2.928,2.32C63.552,39.168,64.72,40.144,66.384,40.144Zm-1.712-2.416c0-.864.784-1.44,1.984-1.44a4.122,4.122,0,0,1,2.208.56v1.5a3.091,3.091,0,0,1-2.24.9C65.456,39.248,64.672,38.64,64.672,37.728ZM72.384,40h1.168V34.656a2.226,2.226,0,0,1,2.1-1.584,2.919,2.919,0,0,1,.816.144V32.16a2.217,2.217,0,0,0-.736-.112,2.332,2.332,0,0,0-2.176,1.728V32.192H72.384Zm10.88,0h1.168V28.32l-1.168.24v4.624A3.18,3.18,0,0,0,80.832,32.1a3.8,3.8,0,0,0-3.664,4.016,3.768,3.768,0,0,0,3.6,4,3.077,3.077,0,0,0,2.5-1.152ZM78.32,36.1a2.774,2.774,0,0,1,4.944-1.92v3.872a2.674,2.674,0,0,1-2.208,1.04A2.8,2.8,0,0,1,78.32,36.1Zm11.888,0a3.809,3.809,0,1,0,7.6,0,3.807,3.807,0,1,0-7.6,0ZM94,39.12a2.753,2.753,0,0,1-2.64-3.008,2.671,2.671,0,1,1,5.3,0A2.774,2.774,0,0,1,94,39.12Zm5.856.88h1.168V34.656a2.226,2.226,0,0,1,2.1-1.584,2.919,2.919,0,0,1,.816.144V32.16a2.217,2.217,0,0,0-.736-.112,2.332,2.332,0,0,0-2.176,1.728V32.192H99.856Zm9.952-9.728a.83.83,0,0,0,.832-.848.84.84,0,0,0-1.68,0A.834.834,0,0,0,109.808,30.272Zm.576,1.92h-1.168V40h1.168Zm2.4,7.808h1.168V34.24A2.3,2.3,0,0,1,116,33.04a2.024,2.024,0,0,1,2.1,2.24V40h1.168V34.944a2.717,2.717,0,0,0-2.832-2.88,2.813,2.813,0,0,0-2.48,1.392V32.192h-1.168Zm14.1,1.248c-.288.7-.656.992-1.248.992a2.719,2.719,0,0,1-.64-.064v1.04a2.678,2.678,0,0,0,.752.112c1.152,0,1.744-.464,2.24-1.728l3.872-9.408h-1.3l-2.512,6.416-2.368-6.416h-1.3l3.008,7.792Zm5.84-5.152a3.809,3.809,0,1,0,7.6,0,3.807,3.807,0,1,0-7.6,0Zm3.792,3.024a2.753,2.753,0,0,1-2.64-3.008,2.671,2.671,0,1,1,5.3,0A2.774,2.774,0,0,1,136.512,39.12Zm6.992-6.928H142.32v5.04a2.73,2.73,0,0,0,2.832,2.9,2.8,2.8,0,0,0,2.48-1.392V40H148.8V32.192h-1.168v5.776a2.318,2.318,0,0,1-2.048,1.184A2.017,2.017,0,0,1,143.5,36.9ZM151.2,40h1.168V34.656a2.226,2.226,0,0,1,2.1-1.584,2.919,2.919,0,0,1,.816.144V32.16a2.217,2.217,0,0,0-.736-.112,2.332,2.332,0,0,0-2.176,1.728V32.192H151.2Zm11.776.144a3.352,3.352,0,0,0,2.48-1.056V40h1.152V34.816c0-1.776-1.088-2.752-3.024-2.752a6.689,6.689,0,0,0-2.944.752l.432.9a5.156,5.156,0,0,1,2.368-.672,1.758,1.758,0,0,1,2.016,1.936v1.072a4.521,4.521,0,0,0-2.384-.608c-1.76,0-2.928.928-2.928,2.32C160.144,39.168,161.312,40.144,162.976,40.144Zm-1.712-2.416c0-.864.784-1.44,1.984-1.44a4.122,4.122,0,0,1,2.208.56v1.5a3.091,3.091,0,0,1-2.24.9C162.048,39.248,161.264,38.64,161.264,37.728Zm11.28,1.36a2.995,2.995,0,0,1-.016-5.968,3.069,3.069,0,0,1,2.208.976l.752-.816a4.259,4.259,0,0,0-3.008-1.216,4.044,4.044,0,0,0,0,8.08,4.061,4.061,0,0,0,2.96-1.264l-.72-.72A2.876,2.876,0,0,1,172.544,39.088Zm7.9,0a2.995,2.995,0,0,1-.016-5.968,3.069,3.069,0,0,1,2.208.976l.752-.816a4.259,4.259,0,0,0-3.008-1.216,4.044,4.044,0,0,0,0,8.08,4.061,4.061,0,0,0,2.96-1.264l-.72-.72A2.876,2.876,0,0,1,180.448,39.088Zm3.984-2.992a3.809,3.809,0,1,0,7.6,0,3.807,3.807,0,1,0-7.6,0Zm3.792,3.024a2.753,2.753,0,0,1-2.64-3.008,2.671,2.671,0,1,1,5.3,0A2.774,2.774,0,0,1,188.224,39.12Zm6.992-6.928h-1.184v5.04a2.73,2.73,0,0,0,2.832,2.9,2.8,2.8,0,0,0,2.48-1.392V40h1.168V32.192h-1.168v5.776a2.318,2.318,0,0,1-2.048,1.184,2.017,2.017,0,0,1-2.08-2.256Zm7.7,7.808h1.168V34.24a2.3,2.3,0,0,1,2.048-1.2,2.024,2.024,0,0,1,2.1,2.24V40h1.168V34.944a2.717,2.717,0,0,0-2.832-2.88,2.813,2.813,0,0,0-2.48,1.392V32.192h-1.168Zm9.52-1.76c0,1.248.7,1.9,2.048,1.9a4.386,4.386,0,0,0,1.36-.208V38.9a2.8,2.8,0,0,1-1.1.208c-.816,0-1.136-.336-1.136-1.168V33.152h2.24v-.96H213.6V29.776l-1.168.272v2.144h-1.616v.96h1.616Zm8.848,5.1h1.168v-4.32a3.166,3.166,0,0,0,2.448,1.088A3.8,3.8,0,0,0,228.56,36.1a3.768,3.768,0,0,0-3.6-4,3.08,3.08,0,0,0-2.528,1.216v-1.12H221.28Zm3.392-10.224a2.8,2.8,0,0,1,2.736,2.992,2.8,2.8,0,0,1-2.736,2.992,2.744,2.744,0,0,1-2.224-1.088V34.192A2.666,2.666,0,0,1,224.672,33.12Zm5.6,2.976a3.809,3.809,0,1,0,7.6,0,3.807,3.807,0,1,0-7.6,0Zm3.792,3.024a2.753,2.753,0,0,1-2.64-3.008,2.671,2.671,0,1,1,5.3,0A2.774,2.774,0,0,1,234.064,39.12Zm5.856.88h1.168V34.656a2.226,2.226,0,0,1,2.1-1.584,2.919,2.919,0,0,1,.816.144V32.16a2.217,2.217,0,0,0-.736-.112,2.332,2.332,0,0,0-2.176,1.728V32.192H239.92Zm6.592-1.76c0,1.248.7,1.9,2.048,1.9a4.386,4.386,0,0,0,1.36-.208V38.9a2.8,2.8,0,0,1-1.1.208c-.816,0-1.136-.336-1.136-1.168V33.152h2.24v-.96h-2.24V29.776l-1.168.272v2.144H244.9v.96h1.616Zm7.536,1.9a3.352,3.352,0,0,0,2.48-1.056V40h1.152V34.816c0-1.776-1.088-2.752-3.024-2.752a6.689,6.689,0,0,0-2.944.752l.432.9a5.156,5.156,0,0,1,2.368-.672,1.758,1.758,0,0,1,2.016,1.936v1.072a4.521,4.521,0,0,0-2.384-.608c-1.76,0-2.928.928-2.928,2.32C251.216,39.168,252.384,40.144,254.048,40.144Zm-1.712-2.416c0-.864.784-1.44,1.984-1.44a4.122,4.122,0,0,1,2.208.56v1.5a3.091,3.091,0,0,1-2.24.9C253.12,39.248,252.336,38.64,252.336,37.728Zm8.88-9.408-1.168.24V40h1.168Zm2.96,10.064a.873.873,0,1,0,.832.864A.857.857,0,0,0,264.176,38.384Z" transform="translate(24 58)" fill="#fff"/>
        <g id="UI_icon_-_Close_dark_theme" data-name="UI icon - Close, dark theme" transform="translate(326 24)">
          <path id="Icon-4" data-name="Icon" d="M10.9,9l2.8,2.8a.864.864,0,0,1,.3.6,1.08,1.08,0,0,1-.3.7l-.6.6a.908.908,0,0,1-.7.3.6.6,0,0,1-.6-.3L9,10.9,6.2,13.7a.967.967,0,0,1-1.4,0l-.6-.6a1.421,1.421,0,0,1-.2-.6.713.713,0,0,1,.3-.6L7.1,9,4.3,6.2a.967.967,0,0,1,0-1.4l.6-.6A1.421,1.421,0,0,1,5.5,4a1.08,1.08,0,0,1,.7.3L9,7.1l2.8-2.8a.967.967,0,0,1,1.4,0l.6.6a1.421,1.421,0,0,1,.2.6,1.08,1.08,0,0,1-.3.7Z" transform="translate(-4 -4)" fill="#d2d2d2" fill-rule="evenodd"/>
        </g>
        <path id="Path-7" data-name="Path" d="M1.42,0h10.4V-1.84H3.52V-6.16h5.4v-1.8H3.52v-4.2h8.22V-14H1.42ZM13.74,0h2V-7.4a2.667,2.667,0,0,1,2.3-1.24,2.287,2.287,0,0,1,2.34,2.58V0h1.98V-6.4a4.238,4.238,0,0,0-.08-.88,2.715,2.715,0,0,1,2.38-1.36A2.287,2.287,0,0,1,27-6.06V0h2V-6.4a3.73,3.73,0,0,0-3.82-3.98,4.077,4.077,0,0,0-3.44,1.7,3.547,3.547,0,0,0-3.14-1.7,3.906,3.906,0,0,0-2.86,1.16v-.96h-2ZM31.3,4.14h2V-.84a5.142,5.142,0,0,0,3.06,1A5.149,5.149,0,0,0,41.54-5.1a5.136,5.136,0,0,0-5.14-5.24A4.645,4.645,0,0,0,33.28-9.2v-.98H31.3ZM36.14-8.6a3.421,3.421,0,0,1,3.44,3.52,3.392,3.392,0,0,1-3.44,3.5,3.774,3.774,0,0,1-2.84-1.2v-4.6A3.651,3.651,0,0,1,36.14-8.6Zm9.3-5.84-2,.44V0h2Zm1.9,9.34A5.246,5.246,0,0,0,52.64.2a5.229,5.229,0,0,0,5.28-5.3,5.225,5.225,0,0,0-5.28-5.28A5.242,5.242,0,0,0,47.34-5.1Zm5.3,3.54A3.406,3.406,0,0,1,49.3-5.1a3.4,3.4,0,0,1,3.34-3.52A3.4,3.4,0,0,1,55.96-5.1,3.416,3.416,0,0,1,52.64-1.56ZM61.96.96a2.11,2.11,0,0,1-2.02,1.5,3.955,3.955,0,0,1-.9-.08V4.14a3.866,3.866,0,0,0,1.06.12c1.88,0,2.96-.86,3.9-3.04l4.92-11.4H66.76L63.48-2.4,60.5-10.18H58.3L62.36.04ZM78.58-1.16,77.3-2.42a3.96,3.96,0,0,1-2.58.9,3.434,3.434,0,0,1-3.44-2.92h8.04v-.58a5.041,5.041,0,0,0-4.92-5.32A5.115,5.115,0,0,0,69.3-5.1,5.238,5.238,0,0,0,74.64.18,6.072,6.072,0,0,0,78.58-1.16Zm-4.22-7.5a3.149,3.149,0,0,1,2.98,2.72H71.3A3.126,3.126,0,0,1,74.36-8.66Zm15.72,7.5L88.8-2.42a3.96,3.96,0,0,1-2.58.9,3.434,3.434,0,0,1-3.44-2.92h8.04v-.58a5.041,5.041,0,0,0-4.92-5.32A5.115,5.115,0,0,0,80.8-5.1,5.238,5.238,0,0,0,86.14.18,6.072,6.072,0,0,0,90.08-1.16Zm-4.22-7.5a3.149,3.149,0,0,1,2.98,2.72H82.8A3.126,3.126,0,0,1,85.86-8.66ZM97.14,0h2.1V-14h-2.1Zm4.96,0h4.94c4.24,0,7.38-2.98,7.38-6.98,0-4.04-3.16-7.02-7.38-7.02H102.1Zm4.98-12.12a5.073,5.073,0,0,1,5.18,5.14,5.064,5.064,0,0,1-5.18,5.1H104.2V-12.12Z" transform="translate(24 44)" fill="#fff"/>
      </g>
    </g>
  </g>
</svg>
