<svg viewBox="0 0 824 167" xmlns="http://www.w3.org/2000/svg">
  <path fill="none" d="M0 0h824v167H0z"/>
  <path fill="#06c" d="M710.246 89h1.078v-4h2.968a2.835 2.835 0 0 0 3.122-2.9 2.828 2.828 0 0 0-3.122-2.9h-4.046Zm3.92-8.848a1.906 1.906 0 0 1 2.17 1.948 1.919 1.919 0 0 1-2.17 1.974h-2.842v-3.92Zm5.18 8.848h1.022v-4.676a1.947 1.947 0 0 1 1.832-1.386 2.554 2.554 0 0 1 .714.126v-.924a1.94 1.94 0 0 0-.644-.1 2.041 2.041 0 0 0-1.9 1.512v-1.384h-1.024Zm5.586-8.512a.726.726 0 0 0 .728-.742.741.741 0 0 0-.728-.728.744.744 0 0 0-.742.728.729.729 0 0 0 .742.742Zm.5 1.68h-1.018V89h1.022ZM729.636 89h.98l2.814-6.832h-1.092l-2.184 5.558-2.212-5.558h-1.106Zm7.308.126a2.933 2.933 0 0 0 2.17-.926v.8h1.008v-4.536c0-1.554-.952-2.408-2.646-2.408a5.853 5.853 0 0 0-2.576.658l.378.784a4.511 4.511 0 0 1 2.072-.588 1.538 1.538 0 0 1 1.764 1.69v.938a3.956 3.956 0 0 0-2.086-.532c-1.54 0-2.562.812-2.562 2.03a2.206 2.206 0 0 0 2.478 2.09Zm-1.5-2.114c0-.756.686-1.26 1.736-1.26a3.606 3.606 0 0 1 1.932.49v1.316a2.7 2.7 0 0 1-1.96.784c-1.02 0-1.706-.532-1.706-1.33Zm10.012 1.188a2.478 2.478 0 0 1-2.408-2.618 2.48 2.48 0 0 1 2.394-2.6 2.685 2.685 0 0 1 1.932.854l.658-.714a3.727 3.727 0 0 0-2.632-1.066 3.412 3.412 0 0 0-3.374 3.528 3.424 3.424 0 0 0 3.374 3.542 3.553 3.553 0 0 0 2.59-1.106l-.63-.63a2.516 2.516 0 0 1-1.904.81Zm5.488 1.89c-.252.616-.574.868-1.092.868a2.379 2.379 0 0 1-.56-.056v.91a2.344 2.344 0 0 0 .658.1c1.008 0 1.526-.406 1.96-1.512l3.39-8.232h-1.136l-2.2 5.614-2.07-5.614h-1.134l2.632 6.818Zm8.512-1.972a3.9 3.9 0 0 0 2.772 1.008c1.512 0 2.66-.924 2.66-2.114 0-1.008-.616-1.582-1.988-1.834l-1.148-.21c-.882-.154-1.176-.42-1.176-.98 0-.672.588-1.092 1.484-1.092a3.624 3.624 0 0 1 2.142.728l.5-.714a4.417 4.417 0 0 0-2.6-.854c-1.442 0-2.464.826-2.464 2 0 .994.6 1.554 1.932 1.792l1.12.2c.868.168 1.232.462 1.232 1.022 0 .714-.728 1.232-1.722 1.232a3.563 3.563 0 0 1-2.2-.856Zm7.8-.658c0 1.092.616 1.666 1.792 1.666a3.837 3.837 0 0 0 1.19-.182v-.91a2.454 2.454 0 0 1-.966.182c-.714 0-.994-.294-.994-1.022v-4.186h1.96v-.84h-1.96v-2.114l-1.022.238v1.876h-1.416v.84h1.414Zm6.732 1.666a2.933 2.933 0 0 0 2.17-.926v.8h1.008v-4.536c0-1.554-.952-2.408-2.646-2.408a5.853 5.853 0 0 0-2.576.658l.378.784a4.511 4.511 0 0 1 2.072-.588 1.538 1.538 0 0 1 1.764 1.69v.938a3.956 3.956 0 0 0-2.086-.532c-1.54 0-2.562.812-2.562 2.03a2.206 2.206 0 0 0 2.478 2.09Zm-1.5-2.114c0-.756.686-1.26 1.736-1.26a3.607 3.607 0 0 1 1.932.49v1.316a2.7 2.7 0 0 1-1.96.784c-1.02 0-1.706-.532-1.706-1.33Zm7.49.448c0 1.092.616 1.666 1.792 1.666a3.837 3.837 0 0 0 1.19-.182v-.91a2.454 2.454 0 0 1-.96.182c-.714 0-.994-.294-.994-1.022v-4.186h1.96v-.84H781v-2.114l-1.022.238v1.876h-1.412v.84h1.414Zm10.094.756-.642-.686a2.792 2.792 0 0 1-1.876.7 2.49 2.49 0 0 1-2.436-2.422h5.362V85.5a3.228 3.228 0 0 0-3.136-3.444 3.325 3.325 0 0 0-3.22 3.528 3.41 3.41 0 0 0 3.388 3.542 3.989 3.989 0 0 0 2.562-.91Zm-2.742-5.278a2.256 2.256 0 0 1 2.142 2.142h-4.326a2.282 2.282 0 0 1 2.184-2.142ZM792.37 89h1.022v-5.082a1.872 1.872 0 0 1 1.666-1.008 1.7 1.7 0 0 1 1.694 1.932V89h1.022v-4.41a2.834 2.834 0 0 0-.056-.6 1.9 1.9 0 0 1 1.708-1.08c1.036 0 1.68.742 1.68 1.932V89h1.022v-4.41a2.325 2.325 0 0 0-2.328-2.534 2.524 2.524 0 0 0-2.282 1.33 2.245 2.245 0 0 0-2.1-1.33 2.34 2.34 0 0 0-2.03 1.176v-1.064h-1.018Zm17.612-.784-.644-.686a2.792 2.792 0 0 1-1.876.7 2.49 2.49 0 0 1-2.436-2.422h5.362V85.5a3.228 3.228 0 0 0-3.136-3.444 3.325 3.325 0 0 0-3.22 3.528 3.41 3.41 0 0 0 3.388 3.542 3.989 3.989 0 0 0 2.562-.91Zm-2.744-5.278a2.256 2.256 0 0 1 2.142 2.142h-4.326a2.282 2.282 0 0 1 2.184-2.142Zm5.04 6.062h1.022v-5.04a2.014 2.014 0 0 1 1.792-1.05 1.771 1.771 0 0 1 1.834 1.96V89h1.022v-4.424a2.378 2.378 0 0 0-2.478-2.52 2.462 2.462 0 0 0-2.17 1.218v-1.106h-1.022Zm8.47-1.54c0 1.092.616 1.666 1.792 1.666a3.837 3.837 0 0 0 1.19-.182v-.91a2.454 2.454 0 0 1-.966.182c-.714 0-.994-.294-.994-1.022v-4.186h1.96v-.84h-1.96v-2.114l-1.022.238v1.876h-1.414v.84h1.414Z"/>
  <path fill="none" d="M566 92h62v36h-62z" data-name="Rectangle"/>
  <g data-name="Button / Link / Light theme">
    <path fill="none" d="M582 98h30v24h-30z" data-name="Rectangle"/>
    <path fill="#06c" d="M583.424 116h7.552v-1.088h-6.32V104.8h-1.232Zm10.076-9.728a.83.83 0 0 0 .832-.848.847.847 0 0 0-.832-.832.85.85 0 0 0-.848.832.834.834 0 0 0 .848.848Zm.576 1.92h-1.164V116h1.168ZM596.48 116h1.168v-5.76a2.3 2.3 0 0 1 2.052-1.2 2.024 2.024 0 0 1 2.1 2.24V116h1.16v-5.056a2.717 2.717 0 0 0-2.832-2.88 2.813 2.813 0 0 0-2.48 1.392v-1.264h-1.168Zm8.832 0h1.168v-3.728l3.76 3.728h1.536l-4.144-4.1 3.968-3.708h-1.408l-3.712 3.508v-7.38l-1.168.24Z" data-name="Path"/>
  </g>
  <g transform="translate(566 40)">
    <rect width="87" height="36" fill="#06c" data-name="Rectangle" rx="3"/>
    <g data-name="Text">
      <path fill="none" d="M16 6h55v24H16z" data-name="Rectangle"/>
      <path fill="#fff" d="M17.424 24h1.232v-4.576h3.392a3.24 3.24 0 0 0 3.568-3.312 3.232 3.232 0 0 0-3.568-3.312h-4.624ZM21.9 13.888a2.178 2.178 0 0 1 2.48 2.224 2.193 2.193 0 0 1-2.48 2.256h-3.244v-4.48ZM27.664 24h1.168v-5.344a2.226 2.226 0 0 1 2.1-1.584 2.919 2.919 0 0 1 .816.144V16.16a2.217 2.217 0 0 0-.736-.112 2.332 2.332 0 0 0-2.176 1.728v-1.584h-1.172Zm6.224-9.728a.83.83 0 0 0 .832-.848.847.847 0 0 0-.832-.832.85.85 0 0 0-.848.832.834.834 0 0 0 .848.848Zm.576 1.92H33.3V24h1.168Zm2.4 7.808h1.168v-5.808a2.14 2.14 0 0 1 1.9-1.152 1.94 1.94 0 0 1 1.936 2.208V24h1.172v-5.04a3.238 3.238 0 0 0-.064-.688 2.173 2.173 0 0 1 1.952-1.232c1.184 0 1.92.848 1.92 2.208V24h1.168v-5.04a2.657 2.657 0 0 0-2.656-2.9 2.885 2.885 0 0 0-2.608 1.52 2.566 2.566 0 0 0-2.4-1.52 2.674 2.674 0 0 0-2.32 1.344v-1.212h-1.168Zm15.936.144a3.352 3.352 0 0 0 2.48-1.056V24h1.152v-5.184c0-1.776-1.088-2.752-3.024-2.752a6.689 6.689 0 0 0-2.944.752l.432.9a5.156 5.156 0 0 1 2.368-.672 1.758 1.758 0 0 1 2.016 1.932v1.072a4.521 4.521 0 0 0-2.38-.608c-1.76 0-2.928.928-2.928 2.32-.004 1.408 1.164 2.384 2.828 2.384Zm-1.712-2.416c0-.864.784-1.44 1.984-1.44a4.122 4.122 0 0 1 2.208.56v1.5a3.091 3.091 0 0 1-2.24.9c-1.168 0-1.952-.608-1.952-1.52ZM58.8 24h1.168v-5.344a2.226 2.226 0 0 1 2.1-1.584 2.919 2.919 0 0 1 .816.144V16.16a2.217 2.217 0 0 0-.736-.112 2.332 2.332 0 0 0-2.176 1.728v-1.584H58.8Zm7.328 1.248c-.288.7-.656.992-1.248.992a2.719 2.719 0 0 1-.64-.064v1.04a2.679 2.679 0 0 0 .752.112c1.152 0 1.744-.464 2.24-1.728l3.868-9.408h-1.3l-2.5 6.416-2.372-6.416h-1.3l3.012 7.792Z" data-name="Path"/>
    </g>
  </g>
  <g data-name="Data inputs">
    <g data-name="Text">
      <path fill="none" d="M417 92h71v24h-71z" data-name="Rectangle"/>
      <path fill="#151515" d="M423.624 109.056a4.485 4.485 0 0 1-4.48-4.656 4.478 4.478 0 0 1 4.448-4.656 4.489 4.489 0 0 1 3.408 1.568l.816-.848a5.6 5.6 0 0 0-4.224-1.84 5.676 5.676 0 0 0-5.692 5.776 5.676 5.676 0 0 0 5.692 5.776 5.632 5.632 0 0 0 4.192-1.84l-.8-.816a4.388 4.388 0 0 1-3.36 1.536Zm6.192.944h1.168v-5.76a2.3 2.3 0 0 1 2.048-1.2 2.024 2.024 0 0 1 2.1 2.24V110h1.168v-5.056a2.717 2.717 0 0 0-2.832-2.88 2.813 2.813 0 0 0-2.48 1.392V98.32l-1.168.24Zm15.284-.9-.74-.78a3.191 3.191 0 0 1-2.144.8 2.845 2.845 0 0 1-2.784-2.768h6.128V106a3.689 3.689 0 0 0-3.584-3.936 3.8 3.8 0 0 0-3.676 4.036 3.9 3.9 0 0 0 3.868 4.044 4.558 4.558 0 0 0 2.932-1.044Zm-3.14-6.028a2.579 2.579 0 0 1 2.448 2.448h-4.944a2.608 2.608 0 0 1 2.496-2.448Zm9.184 6.016a2.832 2.832 0 0 1-2.752-2.988 2.835 2.835 0 0 1 2.736-2.98 3.069 3.069 0 0 1 2.208.976l.752-.816a4.259 4.259 0 0 0-3.008-1.216 3.9 3.9 0 0 0-3.856 4.036 3.913 3.913 0 0 0 3.856 4.044 4.061 4.061 0 0 0 2.96-1.264l-.72-.72a2.876 2.876 0 0 1-2.176.928Zm4.576.912h1.168v-3.728l3.76 3.728h1.536l-4.144-4.1 3.968-3.712H460.6l-3.712 3.512v-7.38l-1.168.24Zm15.1-3.9a3.768 3.768 0 0 0-3.6-4 3.146 3.146 0 0 0-2.512 1.168V98.32l-1.168.24V110h1.16v-1.024a3.161 3.161 0 0 0 2.46 1.136 3.8 3.8 0 0 0 3.664-4.012Zm-3.884-2.98a2.8 2.8 0 0 1 2.736 2.992 2.8 2.8 0 0 1-2.736 2.988 2.744 2.744 0 0 1-2.224-1.088v-3.82a2.666 2.666 0 0 1 2.224-1.072Zm5.6 2.976a3.867 3.867 0 0 0 3.792 4.064 3.86 3.86 0 0 0 3.808-4.06 3.832 3.832 0 0 0-3.808-4.032 3.829 3.829 0 0 0-3.792 4.032Zm3.792 3.024a2.753 2.753 0 0 1-2.64-3.008 2.777 2.777 0 0 1 2.64-3.024 2.789 2.789 0 0 1 2.656 3.024 2.774 2.774 0 0 1-2.656 3.008Zm4.224.88h1.328l2.32-3.184 2.336 3.184h1.392l-3.028-4.048 2.8-3.76h-1.324l-2.128 2.96-2.16-2.96H480.7l2.832 3.792Z" data-name="Path"/>
    </g>
    <g fill="none" data-name="Form / Checkbox / Unchecked">
      <path d="M389 92h24v24h-24z" data-name="Rectangle"/>
      <g stroke="#767676" data-name="Rectangle" transform="translate(393 96)">
        <rect width="16" height="16" stroke="none" rx="2"/>
        <rect width="15" height="15" x=".5" y=".5" rx="1.5"/>
      </g>
    </g>
    <g data-name="Radio button">
      <g data-name="Text">
        <path fill="none" d="M417 52h93v24h-93z" data-name="Rectangle"/>
        <path fill="#151515" d="M418.424 70h1.232v-4.784H423L425.272 70h1.36l-2.384-4.944a3.048 3.048 0 0 0 2.336-3.024c0-1.932-1.424-3.232-3.568-3.232h-4.592Zm4.5-10.112a2.165 2.165 0 0 1 2.432 2.16 2.162 2.162 0 0 1-2.436 2.144h-3.264v-4.3Zm7.884 10.256a3.352 3.352 0 0 0 2.48-1.056V70h1.152v-5.184c0-1.776-1.088-2.752-3.024-2.752a6.689 6.689 0 0 0-2.944.752l.432.9a5.156 5.156 0 0 1 2.368-.672 1.758 1.758 0 0 1 2.016 1.936v1.072a4.521 4.521 0 0 0-2.388-.612c-1.76 0-2.928.928-2.928 2.32.004 1.408 1.172 2.384 2.836 2.384Zm-1.708-2.416c0-.864.784-1.44 1.984-1.44a4.122 4.122 0 0 1 2.208.56v1.5a3.091 3.091 0 0 1-2.24.9c-1.172 0-1.952-.608-1.952-1.52ZM442.552 70h1.168V58.32l-1.168.24v4.624a3.18 3.18 0 0 0-2.432-1.084 3.8 3.8 0 0 0-3.664 4.016 3.768 3.768 0 0 0 3.6 4 3.077 3.077 0 0 0 2.5-1.152Zm-4.944-3.9a2.787 2.787 0 0 1 2.736-2.98 2.8 2.8 0 0 1 2.208 1.056v3.872a2.674 2.674 0 0 1-2.208 1.04 2.8 2.8 0 0 1-2.736-2.988Zm9.1-5.824a.83.83 0 0 0 .832-.848.847.847 0 0 0-.832-.832.85.85 0 0 0-.848.832.834.834 0 0 0 .852.844Zm.576 1.92h-1.164V70h1.168Zm2.048 3.9a3.867 3.867 0 0 0 3.796 4.064 3.86 3.86 0 0 0 3.808-4.06 3.832 3.832 0 0 0-3.808-4.032 3.829 3.829 0 0 0-3.792 4.032Zm3.796 3.024a2.753 2.753 0 0 1-2.64-3.008 2.777 2.777 0 0 1 2.64-3.024 2.789 2.789 0 0 1 2.656 3.024 2.774 2.774 0 0 1-2.656 3.008Zm16.864-3.02a3.768 3.768 0 0 0-3.6-4 3.146 3.146 0 0 0-2.512 1.164V58.32l-1.168.24V70h1.152v-1.024a3.161 3.161 0 0 0 2.464 1.136 3.8 3.8 0 0 0 3.664-4.012Zm-3.892-2.98a2.8 2.8 0 0 1 2.74 2.992 2.8 2.8 0 0 1-2.74 2.988 2.744 2.744 0 0 1-2.22-1.084v-3.824a2.666 2.666 0 0 1 2.22-1.072Zm7.072-.928h-1.18v5.04a2.73 2.73 0 0 0 2.832 2.9 2.8 2.8 0 0 0 2.476-1.396V70h1.168v-7.808H477.3v5.776a2.318 2.318 0 0 1-2.044 1.184 2.017 2.017 0 0 1-2.08-2.252Zm8.628 6.048c0 1.248.7 1.9 2.048 1.9a4.386 4.386 0 0 0 1.36-.208V68.9a2.8 2.8 0 0 1-1.108.2c-.816 0-1.136-.336-1.136-1.168v-4.78h2.24v-.96h-2.24v-2.416l-1.164.272v2.144h-1.616v.96h1.616Zm6.208 0c0 1.248.7 1.9 2.048 1.9a4.386 4.386 0 0 0 1.36-.208V68.9a2.8 2.8 0 0 1-1.1.208c-.816 0-1.136-.336-1.136-1.168v-4.788h2.24v-.96h-2.24v-2.416l-1.168.272v2.144h-1.62v.96h1.616Zm4.576-2.14a3.867 3.867 0 0 0 3.792 4.06 3.86 3.86 0 0 0 3.808-4.06 3.832 3.832 0 0 0-3.808-4.032 3.829 3.829 0 0 0-3.792 4.032Zm3.792 3.02a2.753 2.753 0 0 1-2.64-3.008 2.777 2.777 0 0 1 2.64-3.024 2.789 2.789 0 0 1 2.656 3.024 2.774 2.774 0 0 1-2.656 3.008Zm5.856.88h1.168v-5.76a2.3 2.3 0 0 1 2.048-1.2 2.024 2.024 0 0 1 2.1 2.24V70h1.168v-5.056a2.717 2.717 0 0 0-2.832-2.88 2.813 2.813 0 0 0-2.484 1.392v-1.264h-1.168Z" data-name="Path"/>
      </g>
      <g data-name="Form / Radio button / Selected" transform="translate(389 52)">
        <path fill="none" d="M0 0h24v24H0z" data-name="Rectangle"/>
        <g fill="none" stroke="#2c77f6" transform="translate(4 4)">
          <circle cx="8" cy="8" r="8" stroke="none"/>
          <circle cx="8" cy="8" r="7.5"/>
        </g>
        <circle cx="5" cy="5" r="5" fill="#2c77f6" data-name="Ellipse" transform="translate(7 7)"/>
      </g>
    </g>
  </g>
  <g data-name="Field and select list">
    <g data-name="Text label and select list">
      <g data-name="Form / Select / Light theme">
        <g data-name="Form / Field / Light theme">
          <g fill="#fff" stroke="#d2d2d2" data-name="Rectangle">
            <path stroke="none" d="M173 122h160v36H173z"/>
            <path fill="none" d="M173.5 122.5h159v35h-159z"/>
          </g>
          <path fill="#6a6e73" d="M173 157h160v1H173z" data-name="Rectangle"/>
        </g>
        <g data-name="Form / Select / Caret / Active / Light theme">
          <path fill="none" d="M301 128h24v24h-24z" data-name="Rectangle"/>
          <path fill="#151515" d="M308.673 137h8.654a.671.671 0 0 1 .474 1.147l-4.325 4.329a.674.674 0 0 1-.952 0l-4.325-4.329a.671.671 0 0 1 .474-1.147Z"/>
        </g>
        <path fill="#151515" d="M181.448 144.256a6.443 6.443 0 0 0 4.592 1.904c2.46 0 4.26-1.44 4.26-3.376 0-1.68-1.024-2.576-3.408-3.008l-1.792-.304c-1.5-.24-2.112-.752-2.112-1.744 0-1.168 1.1-2.032 2.672-2.032a6.331 6.331 0 0 1 3.772 1.344l.64-.96a7.324 7.324 0 0 0-4.432-1.424c-2.272 0-3.84 1.312-3.84 3.2 0 1.5.912 2.352 2.96 2.72l1.808.3c1.824.32 2.5.848 2.5 1.968-.004 1.3-1.268 2.256-2.996 2.256a5.216 5.216 0 0 1-3.872-1.74Zm17.328.844-.736-.78a3.191 3.191 0 0 1-2.144.8 2.845 2.845 0 0 1-2.784-2.768h6.128V142a3.689 3.689 0 0 0-3.584-3.936 3.8 3.8 0 0 0-3.68 4.036 3.9 3.9 0 0 0 3.872 4.044 4.558 4.558 0 0 0 2.928-1.044Zm-3.136-6.028a2.579 2.579 0 0 1 2.448 2.448h-4.944a2.608 2.608 0 0 1 2.496-2.448Zm6.768-4.752-1.168.24V146h1.168Zm8.848 10.78-.736-.78a3.191 3.191 0 0 1-2.144.8 2.845 2.845 0 0 1-2.784-2.768h6.128V142a3.689 3.689 0 0 0-3.584-3.936 3.8 3.8 0 0 0-3.68 4.036 3.9 3.9 0 0 0 3.872 4.044 4.558 4.558 0 0 0 2.928-1.044Zm-3.136-6.028a2.579 2.579 0 0 1 2.448 2.448h-4.944a2.608 2.608 0 0 1 2.496-2.448Zm9.18 6.016a2.832 2.832 0 0 1-2.748-2.988 2.835 2.835 0 0 1 2.736-2.98 3.069 3.069 0 0 1 2.212.98l.752-.816a4.259 4.259 0 0 0-3.012-1.22 3.9 3.9 0 0 0-3.856 4.036 3.913 3.913 0 0 0 3.856 4.044 4.061 4.061 0 0 0 2.96-1.264l-.72-.72a2.876 2.876 0 0 1-2.18.928Zm5.664-.848c0 1.248.7 1.9 2.048 1.9a4.386 4.386 0 0 0 1.36-.208V144.9a2.8 2.8 0 0 1-1.1.208c-.816 0-1.136-.336-1.136-1.168v-4.788h2.24v-.96h-2.24v-2.416l-1.168.272v2.144h-1.616v.96h1.616Zm10.016-9.92-1.168.24V146h1.168Zm2.992 1.952a.83.83 0 0 0 .832-.848.847.847 0 0 0-.832-.832.85.85 0 0 0-.848.832.834.834 0 0 0 .852.848Zm.576 1.92h-1.164V146h1.168Zm1.648 6.8a4.451 4.451 0 0 0 3.172 1.152c1.728 0 3.04-1.056 3.04-2.416 0-1.152-.7-1.808-2.272-2.1l-1.312-.24c-1.008-.176-1.344-.48-1.344-1.12 0-.768.672-1.248 1.7-1.248a4.142 4.142 0 0 1 2.448.832l.572-.812a5.048 5.048 0 0 0-2.976-.976c-1.648 0-2.816.944-2.816 2.288 0 1.136.688 1.776 2.208 2.048l1.28.224c.992.192 1.408.528 1.408 1.168 0 .816-.832 1.408-1.968 1.408a4.072 4.072 0 0 1-2.512-.976Zm8.752-.752c0 1.248.7 1.9 2.048 1.9a4.386 4.386 0 0 0 1.36-.208V144.9a2.8 2.8 0 0 1-1.1.208c-.816 0-1.136-.336-1.136-1.168v-4.788h2.24v-.96h-2.24v-2.416l-1.168.272v2.144h-1.616v.96h1.616Zm9.776 0c0 1.248.7 1.9 2.048 1.9a4.386 4.386 0 0 0 1.36-.208V144.9a2.8 2.8 0 0 1-1.1.208c-.816 0-1.136-.336-1.136-1.168v-4.788h2.24v-.96H257.9v-2.416l-1.168.272v2.144h-1.62v.96h1.616Zm11.376.86-.736-.784a3.191 3.191 0 0 1-2.144.8 2.845 2.845 0 0 1-2.78-2.764h6.128V142a3.689 3.689 0 0 0-3.584-3.936 3.8 3.8 0 0 0-3.684 4.036 3.9 3.9 0 0 0 3.876 4.044 4.558 4.558 0 0 0 2.924-1.044Zm-3.132-6.028a2.579 2.579 0 0 1 2.448 2.448h-4.944a2.608 2.608 0 0 1 2.496-2.448ZM269.08 146h1.328l2.32-3.184 2.336 3.184h1.392l-3.024-4.048 2.8-3.76H274.9l-2.128 2.96-2.16-2.96h-1.388l2.832 3.792Zm9.552-1.76c0 1.248.7 1.9 2.048 1.9a4.386 4.386 0 0 0 1.36-.208V144.9a2.8 2.8 0 0 1-1.1.208c-.82-.008-1.14-.34-1.14-1.172v-4.784h2.24v-.96h-2.24v-2.416l-1.168.272v2.144h-1.616v.96h1.616Z" data-name="Path"/>
      </g>
      <path fill="#151515" d="M173.35 101.656h3.29V110h1.68v-8.344h3.262V100.2h-8.232Zm14.266 7.444-1.036-.962a2.279 2.279 0 0 1-1.666.658 2.142 2.142 0 0 1-2.1-1.918h5.18v-.392a3.367 3.367 0 0 0-3.318-3.612 3.454 3.454 0 0 0-3.416 3.626 3.565 3.565 0 0 0 3.57 3.64 4.056 4.056 0 0 0 2.786-1.04Zm-2.954-4.938a1.92 1.92 0 0 1 1.838 1.75h-3.658a1.884 1.884 0 0 1 1.82-1.75ZM188.47 110h1.764l1.766-2.478 1.762 2.478h1.862l-2.716-3.612 2.52-3.4h-1.764l-1.638 2.312-1.638-2.31h-1.848l2.56 3.44Zm9.156-1.848c0 1.288.742 1.96 2.156 1.96a4.976 4.976 0 0 0 1.358-.2v-1.33a2.906 2.906 0 0 1-.952.168c-.714 0-.98-.266-.98-.952v-3.552h1.96v-1.26h-1.96v-2.268l-1.582.336v1.932h-1.414v1.26h1.414Zm9.94-8.428-1.582.266V110h1.582Zm4.214 10.388a2.928 2.928 0 0 0 2.086-.826V110h1.568v-4.578c0-1.624-1.05-2.548-2.87-2.548a6.734 6.734 0 0 0-2.912.714l.56 1.148a4.853 4.853 0 0 1 2.044-.546c1.078 0 1.61.476 1.61 1.4v.77a4.335 4.335 0 0 0-1.89-.434c-1.652 0-2.674.8-2.674 2.058a2.211 2.211 0 0 0 2.478 2.128Zm-.994-2.156c0-.616.56-1.008 1.456-1.008a3.63 3.63 0 0 1 1.624.336v1.148a2.5 2.5 0 0 1-1.652.574c-.868 0-1.428-.406-1.428-1.05Zm13.622-1.456a3.366 3.366 0 0 0-3.178-3.57 2.73 2.73 0 0 0-2.156.994v-4.2l-1.582.266V110h1.554v-.91a2.609 2.609 0 0 0 2.072.98 3.4 3.4 0 0 0 3.29-3.57Zm-3.654-2.24a2.121 2.121 0 0 1 2.086 2.24 2.1 2.1 0 0 1-2.086 2.24 2.15 2.15 0 0 1-1.68-.77v-2.926a2.059 2.059 0 0 1 1.68-.784Zm11.508 4.84-1.036-.966a2.279 2.279 0 0 1-1.666.666 2.142 2.142 0 0 1-2.1-1.918h5.18v-.392a3.367 3.367 0 0 0-3.318-3.612 3.454 3.454 0 0 0-3.416 3.622 3.565 3.565 0 0 0 3.57 3.64 4.056 4.056 0 0 0 2.786-1.04Zm-2.954-4.938a1.92 1.92 0 0 1 1.834 1.75h-3.654a1.884 1.884 0 0 1 1.82-1.75Zm6.664-4.438-1.582.266V110h1.582Z" data-name="Path"/>
    </g>
    <g data-name="Text label and field">
      <g data-name="Form / Field / Light theme">
        <g fill="#fff" stroke="#d2d2d2" data-name="Rectangle">
          <path stroke="none" d="M173 36h160v36H173z"/>
          <path fill="none" d="M173.5 36.5h159v35h-159z"/>
        </g>
        <path fill="#6a6e73" d="M173 71h160v1H173z" data-name="Rectangle"/>
        <g data-name="Text">
          <path fill="none" d="M181 42h104v24H181z" data-name="Rectangle"/>
          <path fill="#6a6e73" d="M182.424 60h1.232v-5.04h4.384v-1.072h-4.384v-4.016h6.416V48.8h-7.648Zm8.048-3.9a3.867 3.867 0 0 0 3.792 4.06 3.86 3.86 0 0 0 3.808-4.06 3.832 3.832 0 0 0-3.808-4.032 3.829 3.829 0 0 0-3.792 4.032Zm3.792 3.02a2.753 2.753 0 0 1-2.64-3.008 2.777 2.777 0 0 1 2.64-3.024 2.789 2.789 0 0 1 2.656 3.024 2.774 2.774 0 0 1-2.656 3.008Zm5.856.88h1.168v-5.344a2.226 2.226 0 0 1 2.1-1.584 2.919 2.919 0 0 1 .816.144V52.16a2.217 2.217 0 0 0-.736-.112 2.332 2.332 0 0 0-2.176 1.728v-1.584h-1.172Zm5.632 0h1.168v-5.808a2.14 2.14 0 0 1 1.9-1.152 1.94 1.94 0 0 1 1.94 2.208V60h1.168v-5.04a3.238 3.238 0 0 0-.064-.688 2.173 2.173 0 0 1 1.952-1.232c1.184 0 1.92.848 1.92 2.208V60h1.164v-5.04a2.657 2.657 0 0 0-2.656-2.9 2.885 2.885 0 0 0-2.608 1.52 2.566 2.566 0 0 0-2.4-1.52 2.674 2.674 0 0 0-2.32 1.344v-1.212h-1.164Zm16.5-7.808v.96h1.744V60h1.164v-6.848h2.224v-.96h-2.224V50.5c0-.928.384-1.36 1.28-1.36a3.22 3.22 0 0 1 .944.144v-1.056a3.3 3.3 0 0 0-1.056-.144 2.143 2.143 0 0 0-2.336 2.4v1.712Zm7.264-1.92a.83.83 0 0 0 .832-.848.847.847 0 0 0-.832-.832.85.85 0 0 0-.848.832.834.834 0 0 0 .844.848Zm.576 1.92h-1.172V60h1.168Zm8.844 6.908-.736-.78a3.191 3.191 0 0 1-2.144.8 2.845 2.845 0 0 1-2.784-2.768h6.128V56a3.689 3.689 0 0 0-3.584-3.936 3.8 3.8 0 0 0-3.68 4.036 3.9 3.9 0 0 0 3.872 4.044 4.558 4.558 0 0 0 2.928-1.044Zm-3.136-6.028a2.579 2.579 0 0 1 2.448 2.448H233.3a2.608 2.608 0 0 1 2.5-2.448Zm6.768-4.752-1.168.24V60h1.168ZM250.712 60h1.168V48.32l-1.168.24v4.624a3.18 3.18 0 0 0-2.432-1.084 3.8 3.8 0 0 0-3.664 4.016 3.768 3.768 0 0 0 3.6 4 3.077 3.077 0 0 0 2.5-1.152Zm-4.944-3.9a2.787 2.787 0 0 1 2.732-2.98 2.8 2.8 0 0 1 2.208 1.056v3.872a2.674 2.674 0 0 1-2.208 1.04 2.8 2.8 0 0 1-2.732-2.988Zm13.168 2.14c0 1.248.7 1.9 2.048 1.9a4.386 4.386 0 0 0 1.36-.208V58.9a2.8 2.8 0 0 1-1.1.208c-.816 0-1.136-.336-1.136-1.168v-4.788h2.24v-.96H260.1v-2.416l-1.168.272v2.144h-1.612v.96h1.616Zm11.376.86-.736-.784a3.191 3.191 0 0 1-2.144.8 2.845 2.845 0 0 1-2.784-2.768h6.128V56a3.689 3.689 0 0 0-3.584-3.936 3.8 3.8 0 0 0-3.68 4.036 3.9 3.9 0 0 0 3.872 4.044 4.558 4.558 0 0 0 2.928-1.044Zm-3.136-6.028a2.579 2.579 0 0 1 2.448 2.448h-4.944a2.608 2.608 0 0 1 2.496-2.448ZM271.288 60h1.328l2.32-3.184L277.272 60h1.392l-3.024-4.048 2.8-3.76h-1.328l-2.128 2.96-2.16-2.96h-1.392l2.832 3.792Zm9.552-1.76c0 1.248.7 1.9 2.048 1.9a4.386 4.386 0 0 0 1.36-.208V58.9a2.8 2.8 0 0 1-1.1.208c-.816 0-1.136-.336-1.136-1.168v-4.788h2.24v-.96h-2.24v-2.416l-1.168.272v2.144h-1.62v.96h1.616Z" data-name="Path"/>
        </g>
      </g>
      <path fill="#151515" d="M173.35 15.656h3.29V24h1.68v-8.344h3.262V14.2h-8.232Zm14.266 7.444-1.036-.962a2.279 2.279 0 0 1-1.666.658 2.142 2.142 0 0 1-2.1-1.918h5.18v-.392a3.367 3.367 0 0 0-3.318-3.612 3.454 3.454 0 0 0-3.416 3.626 3.565 3.565 0 0 0 3.57 3.64 4.056 4.056 0 0 0 2.786-1.04Zm-2.954-4.938a1.92 1.92 0 0 1 1.838 1.75h-3.658a1.884 1.884 0 0 1 1.82-1.75ZM188.47 24h1.764L192 21.522 193.762 24h1.862l-2.716-3.612 2.52-3.4h-1.764l-1.638 2.312-1.638-2.31h-1.848l2.56 3.44Zm9.156-1.848c0 1.288.742 1.96 2.156 1.96a4.976 4.976 0 0 0 1.358-.2v-1.33a2.906 2.906 0 0 1-.952.168c-.714 0-.98-.266-.98-.952v-3.552h1.96v-1.26h-1.96v-2.268l-1.582.336v1.932h-1.414v1.26h1.414Zm9.94-8.428-1.582.266V24h1.582Zm4.214 10.388a2.928 2.928 0 0 0 2.086-.826V24h1.568v-4.578c0-1.624-1.05-2.548-2.87-2.548a6.734 6.734 0 0 0-2.912.714l.56 1.148a4.853 4.853 0 0 1 2.044-.546c1.078 0 1.61.476 1.61 1.4v.77a4.335 4.335 0 0 0-1.89-.434c-1.652 0-2.674.8-2.674 2.058a2.211 2.211 0 0 0 2.478 2.128Zm-.994-2.156c0-.616.56-1.008 1.456-1.008a3.63 3.63 0 0 1 1.624.336v1.148a2.5 2.5 0 0 1-1.652.574c-.868 0-1.428-.406-1.428-1.05Zm13.622-1.456a3.366 3.366 0 0 0-3.178-3.57 2.73 2.73 0 0 0-2.156.994v-4.2l-1.582.266V24h1.554v-.91a2.609 2.609 0 0 0 2.072.98 3.4 3.4 0 0 0 3.29-3.57Zm-3.654-2.24a2.121 2.121 0 0 1 2.086 2.24 2.1 2.1 0 0 1-2.086 2.24 2.15 2.15 0 0 1-1.68-.77v-2.926a2.059 2.059 0 0 1 1.68-.784Zm11.508 4.84-1.036-.966a2.279 2.279 0 0 1-1.666.666 2.142 2.142 0 0 1-2.1-1.918h5.18v-.392a3.367 3.367 0 0 0-3.318-3.612 3.454 3.454 0 0 0-3.416 3.622 3.565 3.565 0 0 0 3.57 3.64 4.056 4.056 0 0 0 2.786-1.04Zm-2.954-4.938a1.92 1.92 0 0 1 1.834 1.75h-3.654a1.884 1.884 0 0 1 1.82-1.75Zm6.664-4.438-1.582.266V24h1.582Z" data-name="Path"/>
    </g>
  </g>
  <g data-name="Text">
    <g data-name="Text">
      <path fill="none" d="M0 140h78v27H0z" data-name="Rectangle"/>
      <path fill="#151515" d="M1.6 147.4V160h5.294c2.466 0 4.086-1.386 4.086-3.492a3.129 3.129 0 0 0-2.718-3.06 2.913 2.913 0 0 0 2.232-2.848c0-1.944-1.494-3.2-3.8-3.2Zm4.986 1.188c1.53 0 2.52.846 2.52 2.16s-.99 2.16-2.52 2.16h-3.6v-4.32Zm.164 10.224H2.988v-4.77H6.75c1.728 0 2.826.936 2.826 2.376s-1.116 2.394-2.826 2.394Zm6.25-3.204a4.35 4.35 0 0 0 4.262 4.572 4.343 4.343 0 0 0 4.284-4.572 4.311 4.311 0 0 0-4.284-4.536A4.308 4.308 0 0 0 13 155.608Zm4.266 3.4a3.1 3.1 0 0 1-2.97-3.384 3.124 3.124 0 0 1 2.97-3.4 3.137 3.137 0 0 1 2.988 3.4 3.121 3.121 0 0 1-2.992 3.386ZM30.33 160h1.314v-13.14l-1.314.27v5.2a3.578 3.578 0 0 0-2.736-1.224 4.278 4.278 0 0 0-4.122 4.518 4.239 4.239 0 0 0 4.05 4.5 3.462 3.462 0 0 0 2.808-1.3Zm-5.562-4.392a3.135 3.135 0 0 1 3.078-3.348 3.151 3.151 0 0 1 2.484 1.188v4.352a3.009 3.009 0 0 1-2.484 1.17 3.151 3.151 0 0 1-3.078-3.362Zm11.3 5.8c-.324.792-.738 1.116-1.4 1.116a3.059 3.059 0 0 1-.72-.072v1.17a3.013 3.013 0 0 0 .846.126c1.3 0 1.962-.522 2.52-1.944l4.356-10.588h-1.458l-2.826 7.218-2.664-7.218h-1.458l3.384 8.766Zm12.478-3.388c0 1.4.792 2.142 2.3 2.142a4.934 4.934 0 0 0 1.53-.234v-1.17a3.155 3.155 0 0 1-1.242.234c-.918 0-1.278-.378-1.278-1.314V152.3h2.52v-1.08H49.86v-2.72l-1.314.306v2.412h-1.818v1.082h1.818Zm12.8.972-.828-.882a3.589 3.589 0 0 1-2.412.9 3.2 3.2 0 0 1-3.134-3.11h6.894v-.4a4.15 4.15 0 0 0-4.032-4.428 4.275 4.275 0 0 0-4.14 4.536 4.384 4.384 0 0 0 4.356 4.554 5.128 5.128 0 0 0 3.294-1.17Zm-3.53-6.786a2.9 2.9 0 0 1 2.754 2.754h-5.562a2.934 2.934 0 0 1 2.808-2.754ZM62.442 160h1.494l2.61-3.582L69.174 160h1.566l-3.4-4.554 3.15-4.23h-1.496l-2.394 3.33-2.43-3.33H62.6l3.19 4.266Zm10.746-1.98c0 1.4.792 2.142 2.3 2.142a4.934 4.934 0 0 0 1.53-.234v-1.17a3.155 3.155 0 0 1-1.242.234c-.918 0-1.278-.378-1.278-1.314V152.3h2.52v-1.08H74.5v-2.72l-1.314.306v2.412H71.37v1.082h1.818Z" data-name="Path"/>
    </g>
    <path fill="#e00" d="M1.42 118h2.1v-6.06h5.44v-1.8H3.52v-4.3h8.24V104H1.42Zm25.44-7a7.2 7.2 0 0 0-7.3-7.22 7.18 7.18 0 0 0-7.28 7.22 7.18 7.18 0 0 0 7.28 7.22 7.2 7.2 0 0 0 7.3-7.22Zm-2.14 0a5.137 5.137 0 0 1-5.16 5.28 5.133 5.133 0 0 1-5.14-5.28 5.121 5.121 0 0 1 5.14-5.28 5.125 5.125 0 0 1 5.16 5.28Zm4.38 7h2.1v-5.74h3.94l2.9 5.74h2.32l-3.12-6.02a3.955 3.955 0 0 0 2.88-3.84c0-2.46-1.88-4.14-4.66-4.14H29.1Zm6.18-12.16c1.64 0 2.72.92 2.72 2.34 0 1.4-1.08 2.34-2.72 2.34H31.2v-4.68ZM49.46 117l5.22-10.42V118h1.98v-14h-2.8l-4.38 8.94-4.4-8.94h-2.8v14h1.96v-11.4Zm13.14-11.14h4.92V118h2.1v-12.14h4.92V104H62.6ZM76.3 118h2.1v-14h-2.1Zm3.88-12.14h4.92V118h2.1v-12.14h4.92V104H80.18ZM93.88 118h10.16v-1.86h-8.06V104h-2.1Zm12.28 0h10.4v-1.84h-8.3v-4.32h5.4v-1.8h-5.4v-4.2h8.22V104h-10.32Z" data-name="Path"/>
    <g data-name="Text">
      <path fill="none" d="M0 42h69v24H0z" data-name="Rectangle"/>
      <path fill="#151515" d="M1.424 48.8V60h4.7c2.196 0 3.636-1.232 3.636-3.1a2.781 2.781 0 0 0-2.416-2.72 2.589 2.589 0 0 0 1.984-2.532C9.328 49.92 8 48.8 5.952 48.8Zm4.432 1.056c1.36 0 2.24.752 2.24 1.92s-.88 1.924-2.24 1.924h-3.2v-3.84ZM6 58.944H2.656V54.7H6c1.536 0 2.512.832 2.512 2.112S7.52 58.944 6 58.944Zm5.552-2.844a3.867 3.867 0 0 0 3.792 4.06 3.86 3.86 0 0 0 3.808-4.06 3.832 3.832 0 0 0-3.808-4.032 3.829 3.829 0 0 0-3.792 4.032Zm3.792 3.02a2.753 2.753 0 0 1-2.644-3.008 2.777 2.777 0 0 1 2.64-3.024A2.789 2.789 0 0 1 18 56.112a2.774 2.774 0 0 1-2.656 3.008ZM26.96 60h1.168V48.32l-1.168.24v4.624a3.18 3.18 0 0 0-2.432-1.084 3.8 3.8 0 0 0-3.664 4.016 3.768 3.768 0 0 0 3.6 4 3.077 3.077 0 0 0 2.5-1.152Zm-4.944-3.9a2.787 2.787 0 0 1 2.736-2.98 2.8 2.8 0 0 1 2.208 1.056v3.872a2.674 2.674 0 0 1-2.208 1.04 2.8 2.8 0 0 1-2.736-2.988Zm10.048 5.148c-.288.7-.656.992-1.248.992a2.719 2.719 0 0 1-.64-.064v1.04a2.679 2.679 0 0 0 .752.112c1.152 0 1.744-.464 2.24-1.728l3.872-9.408h-1.3l-2.508 6.416-2.368-6.416h-1.3l3.012 7.792Zm11.088-3.008c0 1.248.7 1.9 2.048 1.9a4.386 4.386 0 0 0 1.36-.208V58.9a2.8 2.8 0 0 1-1.1.208c-.816 0-1.136-.336-1.136-1.168v-4.788h2.24v-.96H44.32v-2.416l-1.168.272v2.144h-1.616v.96h1.616Zm11.376.86-.736-.784a3.191 3.191 0 0 1-2.144.8 2.845 2.845 0 0 1-2.784-2.768h6.128V56a3.689 3.689 0 0 0-3.584-3.936 3.8 3.8 0 0 0-3.68 4.036 3.9 3.9 0 0 0 3.872 4.044 4.558 4.558 0 0 0 2.928-1.044Zm-3.136-6.028a2.579 2.579 0 0 1 2.448 2.448H48.9a2.608 2.608 0 0 1 2.492-2.448ZM55.5 60h1.328l2.32-3.184L61.488 60h1.392l-3.024-4.048 2.8-3.76h-1.328l-2.128 2.96-2.16-2.96h-1.392l2.832 3.792Zm9.552-1.76c0 1.248.7 1.9 2.048 1.9a4.386 4.386 0 0 0 1.36-.208V58.9a2.8 2.8 0 0 1-1.1.208c-.816 0-1.136-.336-1.136-1.168v-4.788h2.24v-.96h-2.24v-2.416l-1.168.272v2.144H63.44v.96h1.616Z" data-name="Path"/>
    </g>
    <path fill="#151515" d="M1.42 20h2.1v-6.06h5.44v-1.8H3.52v-4.3h8.24V6H1.42Zm10.02-5.1a5.246 5.246 0 0 0 5.3 5.3 5.229 5.229 0 0 0 5.28-5.3 5.225 5.225 0 0 0-5.28-5.28 5.242 5.242 0 0 0-5.3 5.28Zm5.3 3.54a3.406 3.406 0 0 1-3.34-3.54 3.4 3.4 0 0 1 3.34-3.52 3.4 3.4 0 0 1 3.32 3.52 3.416 3.416 0 0 1-3.32 3.54ZM23.92 20h2v-6.8a2.779 2.779 0 0 1 2.64-1.86 3.425 3.425 0 0 1 1.18.22v-1.8a2.541 2.541 0 0 0-1.02-.16 3.186 3.186 0 0 0-2.8 1.52v-1.3h-2Zm7.42 0h2v-7.4a2.667 2.667 0 0 1 2.3-1.24 2.287 2.287 0 0 1 2.34 2.58V20h1.98v-6.4a4.239 4.239 0 0 0-.08-.88 2.715 2.715 0 0 1 2.38-1.36 2.287 2.287 0 0 1 2.34 2.58V20h2v-6.4a3.73 3.73 0 0 0-3.82-3.98 4.077 4.077 0 0 0-3.44 1.7 3.547 3.547 0 0 0-3.14-1.7 3.906 3.906 0 0 0-2.86 1.16v-.96h-2Zm23.06-2.52c0 1.76 1.06 2.7 3.04 2.7a6.624 6.624 0 0 0 1.9-.3V18.2a3.929 3.929 0 0 1-1.46.24c-1.08 0-1.5-.38-1.5-1.42V11.5h3V9.82h-3V6.74l-1.98.48v2.6h-2.16v1.68h2.16Zm7.46-9.3a1.246 1.246 0 0 0 1.24-1.24 1.246 1.246 0 0 0-1.24-1.24 1.229 1.229 0 0 0-1.22 1.24 1.229 1.229 0 0 0 1.22 1.24Zm1 1.64h-2V20h2Zm3.68 7.66c0 1.76 1.06 2.7 3.04 2.7a6.624 6.624 0 0 0 1.9-.3V18.2a3.929 3.929 0 0 1-1.46.24c-1.08 0-1.5-.38-1.5-1.42V11.5h3V9.82h-3V6.74l-1.98.48v2.6h-2.16v1.68h2.16ZM75 5.56 73 6v14h2Zm11.18 13.28-1.28-1.26a3.96 3.96 0 0 1-2.58.9 3.434 3.434 0 0 1-3.44-2.92h8.04v-.58A5.041 5.041 0 0 0 82 9.66a5.115 5.115 0 0 0-5.1 5.24 5.238 5.238 0 0 0 5.34 5.28 6.072 6.072 0 0 0 3.94-1.34Zm-4.22-7.5a3.149 3.149 0 0 1 2.98 2.72H78.9a3.126 3.126 0 0 1 3.06-2.72Z" data-name="Path"/>
  </g>
</svg>
