<svg viewBox="0 0 576 124" xmlns="http://www.w3.org/2000/svg">
  <defs>
    <filter id="a" width="26" height="26" x="368" y="96" filterUnits="userSpaceOnUse">
      <feOffset dy="3"/>
      <feGaussianBlur result="blur" stdDeviation="2"/>
      <feFlood flood-opacity=".102"/>
      <feComposite in2="blur" operator="in"/>
      <feComposite in="SourceGraphic"/>
    </filter>
  </defs>
  <g data-name="Switch / On / With label">
    <path fill="none" d="M409 94h127v24H409z"/>
    <path fill="#151515" d="m415.88 111.2 4.288-8.944V112h1.168v-11.2h-1.712l-3.744 7.968-3.744-7.968h-1.712V112h1.152v-9.776Zm14.544-.1-.736-.784a3.191 3.191 0 0 1-2.144.8 2.845 2.845 0 0 1-2.784-2.764h6.128V108a3.689 3.689 0 0 0-3.588-3.936 3.8 3.8 0 0 0-3.676 4.036 3.9 3.9 0 0 0 3.876 4.044 4.558 4.558 0 0 0 2.924-1.044Zm-3.136-6.028a2.579 2.579 0 0 1 2.448 2.448h-4.944a2.608 2.608 0 0 1 2.496-2.448Zm4.928 5.92a4.451 4.451 0 0 0 3.168 1.152c1.728 0 3.04-1.056 3.04-2.416 0-1.152-.7-1.808-2.272-2.1l-1.312-.24c-1.008-.176-1.344-.48-1.344-1.12 0-.768.672-1.248 1.7-1.248a4.142 4.142 0 0 1 2.448.832l.576-.816a5.048 5.048 0 0 0-2.976-.976c-1.648 0-2.816.944-2.816 2.288 0 1.136.688 1.776 2.208 2.048l1.28.224c.992.192 1.408.528 1.408 1.168 0 .816-.832 1.408-1.968 1.408a4.072 4.072 0 0 1-2.512-.976Zm7.36 0a4.451 4.451 0 0 0 3.168 1.152c1.728 0 3.04-1.056 3.04-2.416 0-1.152-.7-1.808-2.272-2.1l-1.312-.236c-1.008-.176-1.344-.48-1.344-1.12 0-.768.672-1.248 1.7-1.248a4.142 4.142 0 0 1 2.444.832l.576-.816a5.048 5.048 0 0 0-2.976-.976c-1.648 0-2.816.944-2.816 2.288 0 1.136.688 1.776 2.208 2.048l1.28.224c.992.192 1.408.528 1.408 1.168 0 .816-.832 1.408-1.968 1.408a4.072 4.072 0 0 1-2.512-.976Zm10.48 1.152a3.352 3.352 0 0 0 2.48-1.056V112h1.152v-5.184c0-1.776-1.088-2.752-3.024-2.752a6.689 6.689 0 0 0-2.944.752l.432.9a5.156 5.156 0 0 1 2.368-.676 1.758 1.758 0 0 1 2.016 1.936v1.072a4.521 4.521 0 0 0-2.384-.608c-1.76 0-2.928.928-2.928 2.32 0 1.408 1.168 2.384 2.832 2.384Zm-1.712-2.416c0-.864.784-1.44 1.984-1.44a4.122 4.122 0 0 1 2.208.56v1.5a3.091 3.091 0 0 1-2.24.9c-1.168 0-1.952-.608-1.952-1.52ZM459.3 112.1a3.077 3.077 0 0 0 2.5-1.152v1.468c0 1.312-.752 2-2.176 2a5.25 5.25 0 0 1-2.5-.72l-.5.9a6.262 6.262 0 0 0 3.04.816c2.128 0 3.3-1.072 3.3-3.008v-8.212h-1.148v1.008a3.151 3.151 0 0 0-2.448-1.1 3.8 3.8 0 0 0-3.664 4 3.768 3.768 0 0 0 3.596 4Zm-2.448-4a2.787 2.787 0 0 1 2.74-2.98 2.8 2.8 0 0 1 2.208 1.056v3.856a2.687 2.687 0 0 1-2.208 1.056 2.8 2.8 0 0 1-2.736-2.988Zm14.964 3-.736-.78a3.191 3.191 0 0 1-2.144.8 2.845 2.845 0 0 1-2.784-2.768h6.128V108a3.689 3.689 0 0 0-3.58-3.936 3.8 3.8 0 0 0-3.684 4.036 3.9 3.9 0 0 0 3.872 4.044 4.558 4.558 0 0 0 2.928-1.044Zm-3.136-6.028a2.579 2.579 0 0 1 2.448 2.448h-4.944a2.608 2.608 0 0 1 2.496-2.448ZM480.552 112l1.856-6.3 1.856 6.3h1.136l2.128-7.808h-1.1l-1.616 6.24-1.872-6.24h-1.04l-1.872 6.24-1.632-6.24h-1.14L479.4 112Zm8.624 0h1.168v-5.76a2.3 2.3 0 0 1 2.048-1.2 2.024 2.024 0 0 1 2.1 2.24V112h1.168v-5.056a2.717 2.717 0 0 0-2.832-2.88 2.813 2.813 0 0 0-2.48 1.392v-5.136l-1.168.24Zm15.28-.9-.736-.78a3.191 3.191 0 0 1-2.144.8 2.845 2.845 0 0 1-2.784-2.768h6.128V108a3.689 3.689 0 0 0-3.584-3.936 3.8 3.8 0 0 0-3.68 4.036 3.9 3.9 0 0 0 3.872 4.044 4.558 4.558 0 0 0 2.928-1.044Zm-3.136-6.028a2.579 2.579 0 0 1 2.448 2.448h-4.944a2.608 2.608 0 0 1 2.496-2.448Zm5.6 6.928h1.168v-5.76a2.3 2.3 0 0 1 2.048-1.2 2.024 2.024 0 0 1 2.1 2.24V112h1.164v-5.056a2.717 2.717 0 0 0-2.832-2.88 2.813 2.813 0 0 0-2.48 1.392v-1.264h-1.168Zm12.208-3.9a3.867 3.867 0 0 0 3.792 4.06 3.86 3.86 0 0 0 3.808-4.06 3.832 3.832 0 0 0-3.808-4.032 3.829 3.829 0 0 0-3.792 4.032Zm3.792 3.02a2.753 2.753 0 0 1-2.64-3.008 2.777 2.777 0 0 1 2.64-3.024 2.789 2.789 0 0 1 2.656 3.024 2.774 2.774 0 0 1-2.656 3.008Zm5.856.88h1.168v-5.76a2.3 2.3 0 0 1 2.048-1.2 2.024 2.024 0 0 1 2.1 2.24V112h1.168v-5.056a2.717 2.717 0 0 0-2.832-2.88 2.813 2.813 0 0 0-2.48 1.392v-1.264h-1.168Z"/>
    <g transform="translate(353 94)">
      <rect width="40" height="24" fill="#06c" data-name="Rectangle" rx="12"/>
      <g filter="url(#a)" transform="translate(-353 -94)">
        <circle cx="7" cy="7" r="7" fill="#fff" data-name="Ellipse" transform="translate(374 99)"/>
      </g>
    </g>
  </g>
  <g data-name="Form / Select / Light theme">
    <g data-name="Form / Field / Light theme">
      <g fill="#fff" stroke="#d2d2d2" data-name="Rectangle">
        <path stroke="none" d="M0 88h225v36H0z"/>
        <path fill="none" d="M.5 88.5h224v35H.5z"/>
      </g>
      <path fill="#6a6e73" d="M0 123h225v1H0z" data-name="Rectangle"/>
    </g>
    <g data-name="Form / Select / Caret / Active / Light theme">
      <path fill="none" d="M193 94h24v24h-24z" data-name="Rectangle"/>
      <path fill="#151515" d="M200.673 103h8.654a.671.671 0 0 1 .474 1.147l-4.325 4.329a.674.674 0 0 1-.952 0l-4.325-4.329a.671.671 0 0 1 .474-1.147Z"/>
    </g>
    <g data-name="Text">
      <path fill="none" d="M8 94h102v24H8z" data-name="Rectangle"/>
      <path fill="#151515" d="M8.448 110.256a6.443 6.443 0 0 0 4.592 1.904c2.46 0 4.26-1.44 4.26-3.376 0-1.68-1.024-2.576-3.408-3.008l-1.792-.304c-1.5-.24-2.112-.752-2.112-1.744 0-1.168 1.1-2.032 2.672-2.032a6.331 6.331 0 0 1 3.772 1.344l.64-.96a7.324 7.324 0 0 0-4.432-1.424c-2.272 0-3.84 1.312-3.84 3.2 0 1.5.912 2.352 2.96 2.72l1.808.3c1.824.32 2.5.848 2.5 1.968-.004 1.3-1.268 2.256-2.996 2.256a5.216 5.216 0 0 1-3.872-1.74Zm17.328.844-.736-.78a3.191 3.191 0 0 1-2.144.8 2.845 2.845 0 0 1-2.784-2.768h6.128V108a3.689 3.689 0 0 0-3.584-3.936 3.8 3.8 0 0 0-3.68 4.036 3.9 3.9 0 0 0 3.872 4.044 4.558 4.558 0 0 0 2.928-1.044Zm-3.136-6.028a2.579 2.579 0 0 1 2.448 2.448h-4.944a2.608 2.608 0 0 1 2.496-2.448Zm6.768-4.752-1.168.24V112h1.168Zm8.848 10.78-.736-.78a3.191 3.191 0 0 1-2.144.8 2.845 2.845 0 0 1-2.784-2.768h6.128V108a3.689 3.689 0 0 0-3.584-3.936 3.8 3.8 0 0 0-3.68 4.036 3.9 3.9 0 0 0 3.872 4.044 4.558 4.558 0 0 0 2.928-1.044Zm-3.136-6.028a2.579 2.579 0 0 1 2.448 2.448h-4.944a2.608 2.608 0 0 1 2.496-2.448Zm9.18 6.016a2.832 2.832 0 0 1-2.748-2.988 2.835 2.835 0 0 1 2.736-2.98 3.069 3.069 0 0 1 2.212.98l.752-.816a4.259 4.259 0 0 0-3.012-1.22 3.9 3.9 0 0 0-3.856 4.036 3.913 3.913 0 0 0 3.856 4.044 4.061 4.061 0 0 0 2.96-1.264l-.72-.72a2.876 2.876 0 0 1-2.18.928Zm5.664-.848c0 1.248.7 1.9 2.048 1.9a4.386 4.386 0 0 0 1.36-.208V110.9a2.8 2.8 0 0 1-1.1.208c-.816 0-1.136-.336-1.136-1.168v-4.788h2.24v-.96h-2.24v-2.416l-1.168.272v2.144h-1.616v.96h1.616Zm10.016-9.92-1.168.24V112h1.168Zm2.992 1.952a.83.83 0 0 0 .832-.848.847.847 0 0 0-.832-.832.85.85 0 0 0-.848.832.834.834 0 0 0 .852.848Zm.576 1.92h-1.164V112h1.168Zm1.648 6.8a4.451 4.451 0 0 0 3.172 1.152c1.728 0 3.04-1.056 3.04-2.416 0-1.152-.7-1.808-2.272-2.1l-1.312-.24c-1.008-.176-1.344-.48-1.344-1.12 0-.768.672-1.248 1.7-1.248a4.142 4.142 0 0 1 2.448.832l.572-.812a5.048 5.048 0 0 0-2.976-.976c-1.648 0-2.816.944-2.816 2.288 0 1.136.688 1.776 2.208 2.048l1.28.224c.992.192 1.408.528 1.408 1.168 0 .816-.832 1.408-1.968 1.408a4.072 4.072 0 0 1-2.512-.976Zm8.752-.752c0 1.248.7 1.9 2.048 1.9a4.386 4.386 0 0 0 1.36-.208V110.9a2.8 2.8 0 0 1-1.1.208c-.816 0-1.136-.336-1.136-1.168v-4.788h2.24v-.96h-2.24v-2.416l-1.168.272v2.144h-1.616v.96h1.616Zm9.776 0c0 1.248.7 1.9 2.048 1.9a4.386 4.386 0 0 0 1.36-.208V110.9a2.8 2.8 0 0 1-1.1.208c-.816 0-1.136-.336-1.136-1.168v-4.788h2.24v-.96H84.9v-2.416l-1.168.272v2.144h-1.62v.96h1.616Zm11.376.86-.736-.784a3.191 3.191 0 0 1-2.144.8 2.845 2.845 0 0 1-2.78-2.764h6.128V108a3.689 3.689 0 0 0-3.584-3.936A3.8 3.8 0 0 0 88.3 108.1a3.9 3.9 0 0 0 3.876 4.044A4.558 4.558 0 0 0 95.1 111.1Zm-3.132-6.028a2.579 2.579 0 0 1 2.448 2.448h-4.944a2.608 2.608 0 0 1 2.496-2.448ZM96.08 112h1.328l2.32-3.184 2.336 3.184h1.392l-3.024-4.048 2.8-3.76H101.9l-2.128 2.96-2.16-2.96h-1.388l2.832 3.792Zm9.552-1.76c0 1.248.7 1.9 2.048 1.9a4.386 4.386 0 0 0 1.36-.208V110.9a2.8 2.8 0 0 1-1.1.208c-.82-.008-1.14-.34-1.14-1.172v-4.784h2.24v-.96h-2.24v-2.416l-1.168.272v2.144h-1.616v.96h1.616Z" data-name="Path"/>
    </g>
  </g>
  <g data-name="Text">
    <path fill="none" d="M496 0h80v24h-80z" data-name="Rectangle"/>
    <path fill="#151515" d="M506.192 13.264V6.8h-1.232v6.464c0 2.3-1.28 3.792-3.264 3.792s-3.264-1.488-3.264-3.792V6.8H497.2v6.464c0 3.024 1.728 4.912 4.5 4.912 2.748 0 4.492-1.904 4.492-4.912Zm2.4 4.736h1.168v-5.76a2.3 2.3 0 0 1 2.048-1.2 2.024 2.024 0 0 1 2.1 2.24V18h1.168v-5.056a2.717 2.717 0 0 0-2.832-2.88 2.813 2.813 0 0 0-2.48 1.392v-1.264h-1.172Zm12.4-.912a2.832 2.832 0 0 1-2.752-2.988 2.835 2.835 0 0 1 2.736-2.98 3.069 3.069 0 0 1 2.208.976l.752-.816a4.259 4.259 0 0 0-3.008-1.216 3.9 3.9 0 0 0-3.856 4.036 3.913 3.913 0 0 0 3.856 4.044 4.061 4.061 0 0 0 2.96-1.264l-.72-.72a2.876 2.876 0 0 1-2.176.928Zm4.576.912h1.168v-5.76a2.3 2.3 0 0 1 2.048-1.2 2.024 2.024 0 0 1 2.1 2.24V18h1.168v-5.056a2.717 2.717 0 0 0-2.832-2.88 2.813 2.813 0 0 0-2.48 1.392V6.32l-1.168.24Zm15.28-.9-.736-.784a3.191 3.191 0 0 1-2.144.8 2.845 2.845 0 0 1-2.784-2.768h6.128V14a3.689 3.689 0 0 0-3.584-3.936 3.8 3.8 0 0 0-3.68 4.036 3.9 3.9 0 0 0 3.872 4.044 4.558 4.558 0 0 0 2.928-1.044Zm-3.136-6.028a2.579 2.579 0 0 1 2.448 2.448h-4.944a2.608 2.608 0 0 1 2.496-2.448Zm9.188 6.016a2.832 2.832 0 0 1-2.756-2.988 2.835 2.835 0 0 1 2.736-2.98 3.069 3.069 0 0 1 2.208.976l.752-.816a4.259 4.259 0 0 0-3.008-1.216 3.9 3.9 0 0 0-3.856 4.036 3.913 3.913 0 0 0 3.856 4.044 4.061 4.061 0 0 0 2.96-1.264l-.72-.72a2.876 2.876 0 0 1-2.172.928Zm4.572.912h1.168v-3.728L556.4 18h1.536l-4.144-4.1 3.968-3.708h-1.408L552.64 13.7V6.32l-1.168.24Zm13.776-.9-.736-.784a3.191 3.191 0 0 1-2.144.8 2.845 2.845 0 0 1-2.784-2.768h6.128V14a3.689 3.689 0 0 0-3.584-3.936 3.8 3.8 0 0 0-3.68 4.036 3.9 3.9 0 0 0 3.872 4.044 4.558 4.558 0 0 0 2.928-1.044Zm-3.136-6.028a2.579 2.579 0 0 1 2.448 2.448h-4.944a2.608 2.608 0 0 1 2.496-2.448ZM573.472 18h1.168V6.32l-1.168.24v4.624a3.18 3.18 0 0 0-2.432-1.084 3.8 3.8 0 0 0-3.664 4.016 3.768 3.768 0 0 0 3.6 4 3.077 3.077 0 0 0 2.5-1.152Zm-4.944-3.9a2.787 2.787 0 0 1 2.736-2.98 2.8 2.8 0 0 1 2.208 1.056v3.872a2.674 2.674 0 0 1-2.208 1.04 2.8 2.8 0 0 1-2.736-2.988Z" data-name="Path"/>
  </g>
  <g fill="none" data-name="Form / Checkbox / Unchecked">
    <path d="M468 0h24v24h-24z" data-name="Rectangle"/>
    <g stroke="#767676" data-name="Rectangle" transform="translate(472 4)">
      <rect width="16" height="16" stroke="none" rx="2"/>
      <rect width="15" height="15" x=".5" y=".5" rx="1.5"/>
    </g>
  </g>
  <g data-name="Text">
    <path fill="none" d="M381 0h63v24h-63z" data-name="Rectangle"/>
    <path fill="#151515" d="M387.624 17.056a4.485 4.485 0 0 1-4.48-4.656 4.478 4.478 0 0 1 4.448-4.656A4.489 4.489 0 0 1 391 9.312l.816-.848a5.6 5.6 0 0 0-4.224-1.84A5.676 5.676 0 0 0 381.9 12.4a5.676 5.676 0 0 0 5.692 5.776 5.632 5.632 0 0 0 4.192-1.84l-.8-.816a4.388 4.388 0 0 1-3.36 1.536Zm6.192.944h1.168v-5.76a2.3 2.3 0 0 1 2.048-1.2 2.024 2.024 0 0 1 2.1 2.24V18h1.168v-5.056a2.717 2.717 0 0 0-2.832-2.88 2.813 2.813 0 0 0-2.48 1.392V6.32l-1.168.24Zm15.284-.9-.74-.78a3.191 3.191 0 0 1-2.144.8 2.845 2.845 0 0 1-2.784-2.768h6.128V14a3.689 3.689 0 0 0-3.584-3.936A3.8 3.8 0 0 0 402.3 14.1a3.9 3.9 0 0 0 3.868 4.044A4.558 4.558 0 0 0 409.1 17.1Zm-3.14-6.028a2.579 2.579 0 0 1 2.448 2.448h-4.944a2.608 2.608 0 0 1 2.496-2.448Zm9.184 6.016a2.832 2.832 0 0 1-2.752-2.988 2.835 2.835 0 0 1 2.736-2.98 3.069 3.069 0 0 1 2.208.976l.752-.816a4.259 4.259 0 0 0-3.008-1.216 3.9 3.9 0 0 0-3.856 4.036 3.913 3.913 0 0 0 3.856 4.044 4.061 4.061 0 0 0 2.96-1.264l-.72-.72a2.876 2.876 0 0 1-2.176.928Zm4.576.912h1.168v-3.728l3.76 3.728h1.536l-4.144-4.1 3.968-3.712H424.6l-3.712 3.512V6.32l-1.168.24Zm13.78-.9-.74-.78a3.191 3.191 0 0 1-2.144.8 2.845 2.845 0 0 1-2.784-2.768h6.128V14a3.689 3.689 0 0 0-3.584-3.936A3.8 3.8 0 0 0 426.7 14.1a3.9 3.9 0 0 0 3.868 4.044A4.558 4.558 0 0 0 433.5 17.1Zm-3.14-6.028a2.579 2.579 0 0 1 2.448 2.448h-4.944a2.608 2.608 0 0 1 2.496-2.448ZM441.72 18h1.168V6.32l-1.168.24v4.624a3.18 3.18 0 0 0-2.432-1.084 3.8 3.8 0 0 0-3.664 4.016 3.768 3.768 0 0 0 3.6 4 3.077 3.077 0 0 0 2.5-1.152Zm-4.944-3.9a2.787 2.787 0 0 1 2.736-2.98 2.8 2.8 0 0 1 2.208 1.056v3.872a2.674 2.674 0 0 1-2.208 1.04 2.8 2.8 0 0 1-2.736-2.988Z" data-name="Path"/>
  </g>
  <g data-name="Form / Checkbox / Checked" transform="translate(353)">
    <path fill="none" d="M0 0h24v24H0z" data-name="Rectangle"/>
    <rect width="16" height="16" fill="#2c77f6" data-name="Rectangle" rx="2" transform="translate(4 4)"/>
    <path fill="#fff" d="M18 9.5 16.5 8l-6 6-3-3L6 12.5l4.5 4.5Z" data-name="Icon"/>
  </g>
  <g data-name="Radio buttons">
    <g data-name="Text">
      <path fill="none" d="M144 0h81v24h-81z" data-name="Rectangle"/>
      <path fill="#151515" d="M154.192 13.264V6.8h-1.232v6.464c0 2.3-1.28 3.792-3.264 3.792s-3.264-1.488-3.264-3.792V6.8H145.2v6.464c0 3.024 1.728 4.912 4.5 4.912 2.748 0 4.492-1.904 4.492-4.912Zm2.4 4.736h1.168v-5.76a2.3 2.3 0 0 1 2.048-1.2 2.024 2.024 0 0 1 2.1 2.24V18h1.168v-5.056a2.717 2.717 0 0 0-2.832-2.88 2.813 2.813 0 0 0-2.48 1.392v-1.264h-1.172Zm8.08-1.008a4.451 4.451 0 0 0 3.168 1.152c1.728 0 3.04-1.056 3.04-2.416 0-1.152-.7-1.808-2.272-2.1l-1.308-.236c-1.008-.176-1.344-.48-1.344-1.12 0-.768.672-1.248 1.7-1.248a4.142 4.142 0 0 1 2.448.832l.576-.816a5.048 5.048 0 0 0-2.98-.976c-1.648 0-2.816.944-2.816 2.288 0 1.136.688 1.776 2.208 2.048l1.28.224c.992.192 1.408.528 1.408 1.168 0 .816-.832 1.408-1.968 1.408a4.072 4.072 0 0 1-2.512-.976Zm14.512.108-.736-.784a3.191 3.191 0 0 1-2.144.8 2.845 2.845 0 0 1-2.784-2.764h6.128V14a3.689 3.689 0 0 0-3.584-3.936 3.8 3.8 0 0 0-3.68 4.036 3.9 3.9 0 0 0 3.872 4.044 4.558 4.558 0 0 0 2.928-1.044Zm-3.136-6.028a2.579 2.579 0 0 1 2.452 2.448h-4.948a2.608 2.608 0 0 1 2.496-2.448Zm6.768-4.752-1.168.24V18h1.168Zm8.848 10.78-.736-.784a3.191 3.191 0 0 1-2.144.8A2.845 2.845 0 0 1 186 14.352h6.128V14a3.689 3.689 0 0 0-3.584-3.936 3.8 3.8 0 0 0-3.68 4.036 3.9 3.9 0 0 0 3.872 4.044 4.558 4.558 0 0 0 2.928-1.044Zm-3.136-6.028a2.579 2.579 0 0 1 2.448 2.448h-4.944a2.608 2.608 0 0 1 2.496-2.448Zm9.184 6.016a2.832 2.832 0 0 1-2.752-2.988 2.835 2.835 0 0 1 2.74-2.98 3.069 3.069 0 0 1 2.2.98l.752-.816a4.259 4.259 0 0 0-3.008-1.216 3.9 3.9 0 0 0-3.852 4.032 3.913 3.913 0 0 0 3.856 4.044 4.061 4.061 0 0 0 2.96-1.264l-.72-.72a2.876 2.876 0 0 1-2.176.928Zm5.664-.848c0 1.248.7 1.9 2.048 1.9a4.386 4.386 0 0 0 1.36-.208V16.9a2.8 2.8 0 0 1-1.1.208c-.816 0-1.136-.336-1.136-1.168v-4.788h2.24v-.96h-2.24V7.776l-1.168.272v2.144h-1.62v.96h1.616Zm11.376.86-.736-.784a3.191 3.191 0 0 1-2.144.8 2.845 2.845 0 0 1-2.784-2.768h6.128V14a3.689 3.689 0 0 0-3.584-3.936 3.8 3.8 0 0 0-3.68 4.036 3.9 3.9 0 0 0 3.872 4.044 4.558 4.558 0 0 0 2.928-1.044Zm-3.136-6.028a2.579 2.579 0 0 1 2.448 2.448h-4.944a2.608 2.608 0 0 1 2.496-2.448ZM222.976 18h1.168V6.32l-1.168.24v4.624a3.18 3.18 0 0 0-2.432-1.084 3.8 3.8 0 0 0-3.664 4.012 3.768 3.768 0 0 0 3.6 4 3.077 3.077 0 0 0 2.5-1.152Zm-4.944-3.9a2.787 2.787 0 0 1 2.736-2.98 2.8 2.8 0 0 1 2.208 1.056v3.872a2.674 2.674 0 0 1-2.208 1.04 2.8 2.8 0 0 1-2.736-2.988Z" data-name="Path"/>
    </g>
    <g fill="none" data-name="Form / Radio button / Unselected">
      <path d="M116 0h24v24h-24z" data-name="Rectangle"/>
      <g stroke="#767676" data-name="Ellipse" transform="translate(120 4)">
        <circle cx="8" cy="8" r="8" stroke="none"/>
        <circle cx="8" cy="8" r="7.5"/>
      </g>
    </g>
    <g data-name="Text">
      <path fill="none" d="M28 0h64v24H28z" data-name="Rectangle"/>
      <path fill="#151515" d="M28.448 16.256a6.443 6.443 0 0 0 4.592 1.904c2.46 0 4.26-1.44 4.26-3.376 0-1.68-1.024-2.576-3.408-3.008l-1.792-.304c-1.5-.24-2.112-.752-2.112-1.744 0-1.168 1.1-2.032 2.672-2.032a6.331 6.331 0 0 1 3.772 1.344l.64-.96a7.324 7.324 0 0 0-4.432-1.424c-2.272 0-3.84 1.312-3.84 3.2 0 1.5.912 2.352 2.96 2.72l1.808.3c1.824.32 2.5.848 2.5 1.968-.004 1.3-1.268 2.256-2.996 2.256a5.216 5.216 0 0 1-3.872-1.74Zm17.328.844-.736-.78a3.191 3.191 0 0 1-2.144.8 2.845 2.845 0 0 1-2.784-2.768h6.128V14a3.689 3.689 0 0 0-3.584-3.936 3.8 3.8 0 0 0-3.68 4.036 3.9 3.9 0 0 0 3.872 4.044 4.558 4.558 0 0 0 2.928-1.044Zm-3.136-6.028a2.579 2.579 0 0 1 2.448 2.448h-4.944a2.608 2.608 0 0 1 2.496-2.448Zm6.768-4.752-1.168.24V18h1.168Zm8.848 10.78-.736-.78a3.191 3.191 0 0 1-2.144.8 2.845 2.845 0 0 1-2.784-2.768h6.128V14a3.689 3.689 0 0 0-3.584-3.936 3.8 3.8 0 0 0-3.68 4.036 3.9 3.9 0 0 0 3.872 4.044 4.558 4.558 0 0 0 2.928-1.044Zm-3.136-6.028a2.579 2.579 0 0 1 2.448 2.448h-4.944a2.608 2.608 0 0 1 2.496-2.448Zm9.18 6.016a2.832 2.832 0 0 1-2.748-2.988 2.835 2.835 0 0 1 2.736-2.98 3.069 3.069 0 0 1 2.212.98l.752-.816a4.259 4.259 0 0 0-3.012-1.22 3.9 3.9 0 0 0-3.856 4.036 3.913 3.913 0 0 0 3.856 4.044 4.061 4.061 0 0 0 2.96-1.264l-.72-.72a2.876 2.876 0 0 1-2.18.928Zm5.664-.848c0 1.248.7 1.9 2.048 1.9a4.386 4.386 0 0 0 1.36-.208V16.9a2.8 2.8 0 0 1-1.1.208c-.816 0-1.136-.336-1.136-1.168v-4.788h2.24v-.96h-2.24V7.776l-1.168.272v2.144h-1.616v.96h1.616Zm11.38.86-.736-.784a3.191 3.191 0 0 1-2.144.8 2.845 2.845 0 0 1-2.784-2.764h6.128V14a3.689 3.689 0 0 0-3.584-3.936 3.8 3.8 0 0 0-3.68 4.036 3.9 3.9 0 0 0 3.872 4.044 4.558 4.558 0 0 0 2.928-1.044Zm-3.136-6.028a2.579 2.579 0 0 1 2.448 2.448h-4.944a2.608 2.608 0 0 1 2.496-2.448ZM89.568 18h1.168V6.32l-1.168.24v4.624a3.18 3.18 0 0 0-2.432-1.084 3.8 3.8 0 0 0-3.664 4.016 3.768 3.768 0 0 0 3.6 4 3.077 3.077 0 0 0 2.5-1.152Zm-4.944-3.9a2.787 2.787 0 0 1 2.736-2.98 2.8 2.8 0 0 1 2.208 1.056v3.872a2.674 2.674 0 0 1-2.208 1.04 2.8 2.8 0 0 1-2.736-2.988Z" data-name="Path"/>
    </g>
    <g data-name="Form / Radio button / Selected">
      <path fill="none" d="M0 0h24v24H0z" data-name="Rectangle"/>
      <g fill="none" stroke="#2c77f6" data-name="Ellipse" transform="translate(4 4)">
        <circle cx="8" cy="8" r="8" stroke="none"/>
        <circle cx="8" cy="8" r="7.5"/>
      </g>
      <circle cx="5" cy="5" r="5" fill="#2c77f6" data-name="Ellipse" transform="translate(7 7)"/>
    </g>
  </g>
</svg>
