<svg xmlns="http://www.w3.org/2000/svg" xmlns:xlink="http://www.w3.org/1999/xlink" width="588" height="329" viewBox="0 0 588 329"><defs><style>.a{isolation:isolate;}.b{fill:#fff;}.c,.i{fill:none;}.d{fill:#6a6e73;}.e{fill:#06c;}.f{fill:#151515;}.g{fill:#51a549;}.h{opacity:0.25;}.i{stroke:#f0f;}.j{fill:#9bd917;}.k{fill:#1893d2;}.l{fill:#1b8793;}.m{filter:url(#c);}.n{filter:url(#a);}</style><filter id="a" x="0" y="167" width="372" height="162" filterUnits="userSpaceOnUse"><feOffset dy="-3" input="SourceAlpha"/><feGaussianBlur stdDeviation="2" result="b"/><feFlood flood-opacity="0.102"/><feComposite operator="in" in2="b"/><feComposite in="SourceGraphic"/></filter><filter id="c" x="0" y="0" width="588" height="115" filterUnits="userSpaceOnUse"><feOffset dy="-3" input="SourceAlpha"/><feGaussianBlur stdDeviation="2" result="d"/><feFlood flood-opacity="0.102"/><feComposite operator="in" in2="d"/><feComposite in="SourceGraphic"/></filter></defs><g class="a"><g class="n" transform="matrix(1, 0, 0, 1, 0, 0)"><path class="b" d="M0,0H360V150H0Z" transform="translate(6 176)"/></g><path class="c" d="M336,192h14v14H336Z"/><path class="d" d="M344.9,199l2.84-2.84a.9.9,0,0,0,0-1.27l-.63-.64a.9.9,0,0,0-1.25,0L343,197.1l-2.84-2.84a.9.9,0,0,0-1.27,0l-.64.63a.9.9,0,0,0,0,1.26l2.84,2.84-2.84,2.84a.9.9,0,0,0,0,1.27l.63.64a.9.9,0,0,0,1.26,0l2.84-2.84,2.84,2.84a.9.9,0,0,0,1.27,0l.64-.63a.9.9,0,0,0,0-1.25Z"/><path class="e" d="M114,292l-1.5,1.5L117,298H107v2h10l-4.5,4.5L114,306l7-7Z"/><path class="e" d="M.054-2A8.354,8.354,0,0,0,5.634.18c3.258,0,5.31-1.584,5.31-4.032,0-1.908-1.188-3.114-3.762-3.546l-2.376-.4c-1.332-.2-1.8-.612-1.8-1.368,0-.864.918-1.422,2.3-1.422A6.344,6.344,0,0,1,9.288-9.072l1.4-1.944a8.716,8.716,0,0,0-5.2-1.764C2.394-12.78.522-11.3.522-8.964c0,1.782,1.1,2.988,3.294,3.366l2.5.432c1.566.27,2.07.72,2.07,1.548,0,.954-.972,1.584-2.574,1.584A6.161,6.161,0,0,1,1.548-3.87ZM18.666,0h2.448V-5.832a3.558,3.558,0,0,0-3.708-3.726,3.912,3.912,0,0,0-2.628.936V-13.14l-2.466.54V0h2.466V-6.5A2.2,2.2,0,0,1,16.7-7.434a1.842,1.842,0,0,1,1.962,1.962ZM22.59-4.68a4.873,4.873,0,0,0,5,4.86,4.873,4.873,0,0,0,5-4.86,4.888,4.888,0,0,0-5-4.878A4.888,4.888,0,0,0,22.59-4.68Zm7.6,0a2.634,2.634,0,0,1-2.592,2.718A2.634,2.634,0,0,1,25-4.68a2.638,2.638,0,0,1,2.592-2.736A2.627,2.627,0,0,1,30.186-4.68ZM38.088,0l1.818-5.994L41.724,0h2.358l2.592-9.378h-2.3L42.822-3.312,40.968-9.378H38.9L37.026-3.312,35.478-9.378h-2.34L35.712,0Zm13.32,0h2.466V-6.57a2.085,2.085,0,0,1,1.746-.864,1.75,1.75,0,0,1,1.764,1.962V0H59.85V-5.832A3.839,3.839,0,0,0,59.8-6.5a2.111,2.111,0,0,1,1.8-.936,1.763,1.763,0,0,1,1.782,1.962V0h2.466V-5.832a3.512,3.512,0,0,0-3.6-3.726,3.95,3.95,0,0,0-3.1,1.386,3.374,3.374,0,0,0-2.826-1.386,3.647,3.647,0,0,0-2.448.882v-.7H51.408ZM67.32-4.68A4.882,4.882,0,0,0,72.36.18a5.622,5.622,0,0,0,3.8-1.35l-1.62-1.476a2.952,2.952,0,0,1-2.07.756A2.7,2.7,0,0,1,69.8-3.852h6.984V-4.5a4.733,4.733,0,0,0-4.644-5.04A4.787,4.787,0,0,0,67.32-4.68Zm4.77-2.826a2.384,2.384,0,0,1,2.286,1.89h-4.59A2.355,2.355,0,0,1,72.09-7.506Z" transform="translate(22 305)"/><path class="f" d="M1.424,0H8.976V-1.088H2.656V-11.2H1.424ZM10.08-3.9A3.907,3.907,0,0,0,13.952.144,4.5,4.5,0,0,0,16.88-.9l-.736-.8A3.191,3.191,0,0,1,14-.9a2.81,2.81,0,0,1-2.768-2.768H17.36V-4a3.7,3.7,0,0,0-3.584-3.936A3.812,3.812,0,0,0,10.08-3.9Zm3.68-3.008A2.572,2.572,0,0,1,16.192-4.48H11.264A2.581,2.581,0,0,1,13.76-6.912ZM21.584.144A3.321,3.321,0,0,0,24.064-.9V0h1.152V-5.184c0-1.808-1.12-2.752-3.024-2.752a6.539,6.539,0,0,0-2.944.752l.448.9a5.037,5.037,0,0,1,2.352-.672c1.312,0,2.016.624,2.016,1.936v1.056A4.683,4.683,0,0,0,21.7-4.56c-1.7,0-2.928.864-2.928,2.3C18.768-.832,19.936.144,21.584.144Zm-1.7-2.416c0-.912.832-1.456,1.968-1.456a4.052,4.052,0,0,1,2.208.576v1.5a3.116,3.116,0,0,1-2.24.9C20.688-.752,19.888-1.36,19.888-2.272ZM27.536,0H28.7V-5.344a2.2,2.2,0,0,1,2.1-1.584,2.768,2.768,0,0,1,.816.144V-7.84a2.3,2.3,0,0,0-.736-.112,2.321,2.321,0,0,0-2.176,1.7V-7.808H27.536Zm5.616,0H34.32V-5.76a2.32,2.32,0,0,1,2.048-1.2,2.023,2.023,0,0,1,2.1,2.24V0h1.168V-5.056a2.722,2.722,0,0,0-2.816-2.88,2.813,2.813,0,0,0-2.5,1.408v-1.28H33.152ZM48.1.144A3.321,3.321,0,0,0,50.576-.9V0h1.152V-5.184c0-1.808-1.12-2.752-3.024-2.752a6.539,6.539,0,0,0-2.944.752l.448.9A5.037,5.037,0,0,1,48.56-6.96c1.312,0,2.016.624,2.016,1.936v1.056a4.683,4.683,0,0,0-2.368-.592c-1.7,0-2.928.864-2.928,2.3C45.28-.832,46.448.144,48.1.144ZM46.4-2.272c0-.912.832-1.456,1.968-1.456a4.052,4.052,0,0,1,2.208.576v1.5a3.116,3.116,0,0,1-2.24.9C47.2-.752,46.4-1.36,46.4-2.272ZM61.344-3.9a3.78,3.78,0,0,0-3.616-4A3.091,3.091,0,0,0,55.216-6.72v-4.72l-1.168.24V0H55.2V-1.024A3.081,3.081,0,0,0,57.664.112,3.8,3.8,0,0,0,61.344-3.9ZM57.44-6.88a2.8,2.8,0,0,1,2.736,2.992A2.791,2.791,0,0,1,57.44-.9a2.767,2.767,0,0,1-2.224-1.088V-5.808A2.688,2.688,0,0,1,57.44-6.88ZM62.976-3.9A3.867,3.867,0,0,0,66.768.16,3.873,3.873,0,0,0,70.592-3.9a3.845,3.845,0,0,0-3.824-4.032A3.839,3.839,0,0,0,62.976-3.9Zm6.448.016A2.756,2.756,0,0,1,66.768-.88a2.742,2.742,0,0,1-2.624-3.008,2.767,2.767,0,0,1,2.624-3.024A2.771,2.771,0,0,1,69.424-3.888Zm4.3-3.92H72.56v5.056A2.722,2.722,0,0,0,75.376.128a2.813,2.813,0,0,0,2.5-1.408V0H79.04V-7.808H77.872v5.76a2.32,2.32,0,0,1-2.048,1.2,2.023,2.023,0,0,1-2.1-2.24Zm8.56,6.048c0,1.216.688,1.9,2.048,1.9a4.713,4.713,0,0,0,1.376-.208V-1.1a2.881,2.881,0,0,1-1.1.208c-.832,0-1.152-.336-1.152-1.168V-6.848h2.256v-.96H83.456v-2.256l-1.168.272v1.984H80.672v.96h1.616ZM96.384,0h1.168V-5.056a2.722,2.722,0,0,0-2.816-2.88,2.813,2.813,0,0,0-2.5,1.408V-11.44l-1.168.24V0H92.24V-5.76a2.32,2.32,0,0,1,2.048-1.2,2.023,2.023,0,0,1,2.1,2.24Zm5.04,1.088c-.32.8-.736.992-1.264.992a3.939,3.939,0,0,1-.64-.064v1.04a2.568,2.568,0,0,0,.752.112c1.168,0,1.76-.5,2.24-1.728l3.808-9.248h-1.28l-2.512,6.432L100.16-7.808H98.848l3.024,7.792ZM115.088-3.9a3.78,3.78,0,0,0-3.616-4A3.091,3.091,0,0,0,108.96-6.72v-4.72l-1.168.24V0h1.152V-1.024A3.081,3.081,0,0,0,111.408.112,3.8,3.8,0,0,0,115.088-3.9Zm-3.9-2.976a2.8,2.8,0,0,1,2.736,2.992A2.791,2.791,0,0,1,111.184-.9a2.767,2.767,0,0,1-2.224-1.088V-5.808A2.688,2.688,0,0,1,111.184-6.88ZM117.056,0h1.168V-5.344a2.2,2.2,0,0,1,2.1-1.584,2.768,2.768,0,0,1,.816.144V-7.84a2.3,2.3,0,0,0-.736-.112,2.321,2.321,0,0,0-2.176,1.7V-7.808h-1.168Zm6.208-9.776a.83.83,0,0,0,.832-.848.826.826,0,0,0-.832-.832.826.826,0,0,0-.832.832A.83.83,0,0,0,123.264-9.776Zm.576,1.968h-1.168V0h1.168ZM131.936,0H133.1V-11.44l-1.184.24v4.368A3.2,3.2,0,0,0,129.5-7.9a3.8,3.8,0,0,0-3.68,4.016,3.78,3.78,0,0,0,3.616,4,3.139,3.139,0,0,0,2.5-1.168Zm-4.944-3.9a2.775,2.775,0,0,1,2.72-2.976,2.813,2.813,0,0,1,2.208,1.04v3.888a2.7,2.7,0,0,1-2.208,1.04A2.789,2.789,0,0,1,126.992-3.9Zm15.7,2.992a2.817,2.817,0,0,1-2.72-2.992,2.832,2.832,0,0,1,2.72-2.976,2.983,2.983,0,0,1,2.144.976l.752-.816a4.146,4.146,0,0,0-2.912-1.216A3.912,3.912,0,0,0,138.8-3.9,3.926,3.926,0,0,0,142.672.144a3.955,3.955,0,0,0,2.864-1.264l-.72-.72A2.791,2.791,0,0,1,142.688-.912Zm5.744-10.528-1.168.24V0h1.168ZM150.416-3.9A3.867,3.867,0,0,0,154.208.16,3.873,3.873,0,0,0,158.032-3.9a3.845,3.845,0,0,0-3.824-4.032A3.839,3.839,0,0,0,150.416-3.9Zm6.448.016A2.756,2.756,0,0,1,154.208-.88a2.742,2.742,0,0,1-2.624-3.008,2.767,2.767,0,0,1,2.624-3.024A2.771,2.771,0,0,1,156.864-3.888Zm4.3-3.92H160v5.056a2.722,2.722,0,0,0,2.816,2.88,2.813,2.813,0,0,0,2.5-1.408V0h1.168V-7.808h-1.168v5.76a2.32,2.32,0,0,1-2.048,1.2,2.023,2.023,0,0,1-2.1-2.24ZM174.56,0h1.168V-11.44l-1.184.24v4.368A3.2,3.2,0,0,0,172.128-7.9a3.8,3.8,0,0,0-3.68,4.016,3.78,3.78,0,0,0,3.616,4,3.139,3.139,0,0,0,2.5-1.168Zm-4.944-3.9a2.775,2.775,0,0,1,2.72-2.976,2.813,2.813,0,0,1,2.208,1.04v3.888a2.7,2.7,0,0,1-2.208,1.04A2.789,2.789,0,0,1,169.616-3.9ZM184.192.144a3.321,3.321,0,0,0,2.48-1.04V0h1.152V-5.184c0-1.808-1.12-2.752-3.024-2.752a6.539,6.539,0,0,0-2.944.752l.448.9a5.037,5.037,0,0,1,2.352-.672c1.312,0,2.016.624,2.016,1.936v1.056A4.683,4.683,0,0,0,184.3-4.56c-1.7,0-2.928.864-2.928,2.3C181.376-.832,182.544.144,184.192.144Zm-1.7-2.416c0-.912.832-1.456,1.968-1.456a4.052,4.052,0,0,1,2.208.576v1.5a3.116,3.116,0,0,1-2.24.9C183.3-.752,182.5-1.36,182.5-2.272ZM190.144,0h1.168V-5.76a2.32,2.32,0,0,1,2.048-1.2,2.023,2.023,0,0,1,2.1,2.24V0h1.168V-5.056a2.722,2.722,0,0,0-2.816-2.88,2.813,2.813,0,0,0-2.5,1.408v-1.28h-1.168ZM204.7,0h1.168V-11.44l-1.184.24v4.368A3.2,3.2,0,0,0,202.272-7.9a3.8,3.8,0,0,0-3.68,4.016,3.78,3.78,0,0,0,3.616,4,3.139,3.139,0,0,0,2.5-1.168ZM199.76-3.9a2.775,2.775,0,0,1,2.72-2.976,2.813,2.813,0,0,1,2.208,1.04v3.888a2.7,2.7,0,0,1-2.208,1.04A2.789,2.789,0,0,1,199.76-3.9ZM217.216,0h1.168V-5.056a2.722,2.722,0,0,0-2.816-2.88,2.813,2.813,0,0,0-2.5,1.408V-11.44l-1.168.24V0h1.168V-5.76a2.32,2.32,0,0,1,2.048-1.2,2.023,2.023,0,0,1,2.1,2.24Zm3.136-3.9A3.867,3.867,0,0,0,224.144.16,3.873,3.873,0,0,0,227.968-3.9a3.845,3.845,0,0,0-3.824-4.032A3.839,3.839,0,0,0,220.352-3.9Zm6.448.016A2.756,2.756,0,0,1,224.144-.88a2.742,2.742,0,0,1-2.624-3.008,2.767,2.767,0,0,1,2.624-3.024A2.771,2.771,0,0,1,226.8-3.888ZM232.352,0l1.856-6.3L236.064,0H237.2l2.144-7.808h-1.12l-1.616,6.24-1.872-6.24H233.7L231.84-1.552l-1.632-6.256h-1.152L231.2,0ZM245.6-1.76c0,1.216.688,1.9,2.048,1.9a4.714,4.714,0,0,0,1.376-.208V-1.1a2.881,2.881,0,0,1-1.1.208c-.832,0-1.152-.336-1.152-1.168V-6.848h2.256v-.96h-2.256v-2.256l-1.168.272v1.984h-1.616v.96H245.6ZM250.064-3.9A3.867,3.867,0,0,0,253.856.16,3.873,3.873,0,0,0,257.68-3.9a3.845,3.845,0,0,0-3.824-4.032A3.839,3.839,0,0,0,250.064-3.9Zm6.448.016A2.756,2.756,0,0,1,253.856-.88a2.742,2.742,0,0,1-2.624-3.008,2.767,2.767,0,0,1,2.624-3.024A2.771,2.771,0,0,1,256.512-3.888Zm10.144,4a3.153,3.153,0,0,0,2.48-1.136V.256c0,1.312-.768,2-2.176,2a5.084,5.084,0,0,1-2.48-.72l-.5.9a6.078,6.078,0,0,0,3.04.816c2.112,0,3.28-1.056,3.28-3.008V-7.808h-1.152v.992A3.223,3.223,0,0,0,266.72-7.9a3.8,3.8,0,0,0-3.68,4.016A3.78,3.78,0,0,0,266.656.112ZM264.208-3.9a2.775,2.775,0,0,1,2.72-2.976,2.813,2.813,0,0,1,2.208,1.04v3.888a2.7,2.7,0,0,1-2.208,1.04A2.789,2.789,0,0,1,264.208-3.9Zm8.064,0A3.907,3.907,0,0,0,276.144.144,4.5,4.5,0,0,0,279.072-.9l-.736-.8a3.191,3.191,0,0,1-2.144.8,2.81,2.81,0,0,1-2.768-2.768h6.128V-4a3.7,3.7,0,0,0-3.584-3.936A3.812,3.812,0,0,0,272.272-3.9Zm3.68-3.008a2.572,2.572,0,0,1,2.432,2.432h-4.928A2.581,2.581,0,0,1,275.952-6.912ZM282.1-1.76c0,1.216.688,1.9,2.048,1.9a4.713,4.713,0,0,0,1.376-.208V-1.1a2.881,2.881,0,0,1-1.1.208c-.832,0-1.152-.336-1.152-1.168V-6.848h2.256v-.96h-2.256v-2.256l-1.168.272v1.984H280.48v.96H282.1ZM.416,22.912A4.33,4.33,0,0,0,3.6,24.144c1.76,0,3.04-1.088,3.024-2.416.016-1.184-.736-1.824-2.272-2.1l-1.3-.24c-.96-.176-1.36-.448-1.36-1.12,0-.768.72-1.248,1.7-1.248a3.943,3.943,0,0,1,2.416.88l.624-.8a4.858,4.858,0,0,0-2.992-1.04c-1.648,0-2.816.96-2.816,2.288,0,1.168.752,1.792,2.208,2.048l1.3.224c.976.176,1.392.512,1.392,1.168,0,.768-.7,1.408-1.968,1.408a3.5,3.5,0,0,1-2.464-1.024ZM9.1,22.24c0,1.216.688,1.9,2.048,1.9a4.714,4.714,0,0,0,1.376-.208V22.9a2.881,2.881,0,0,1-1.1.208c-.832,0-1.152-.336-1.152-1.168V17.152h2.256v-.96H10.272V13.936L9.1,14.208v1.984H7.488v.96H9.1Zm7.488,1.9a3.321,3.321,0,0,0,2.48-1.04V24h1.152V18.816c0-1.808-1.12-2.752-3.024-2.752a6.539,6.539,0,0,0-2.944.752l.448.9a5.037,5.037,0,0,1,2.352-.672c1.312,0,2.016.624,2.016,1.936v1.056A4.683,4.683,0,0,0,16.7,19.44c-1.7,0-2.928.864-2.928,2.3C13.776,23.168,14.944,24.144,16.592,24.144Zm-1.7-2.416c0-.912.832-1.456,1.968-1.456a4.052,4.052,0,0,1,2.208.576v1.5a3.116,3.116,0,0,1-2.24.9C15.7,23.248,14.9,22.64,14.9,21.728ZM22.544,24h1.168V18.656a2.2,2.2,0,0,1,2.1-1.584,2.768,2.768,0,0,1,.816.144V16.16a2.3,2.3,0,0,0-.736-.112,2.321,2.321,0,0,0-2.176,1.7V16.192H22.544Zm6.72-1.76c0,1.216.688,1.9,2.048,1.9a4.714,4.714,0,0,0,1.376-.208V22.9a2.881,2.881,0,0,1-1.1.208c-.832,0-1.152-.336-1.152-1.168V17.152h2.256v-.96H30.432V13.936l-1.168.272v1.984H27.648v.96h1.616ZM33.728,20.1A3.907,3.907,0,0,0,37.6,24.144a4.5,4.5,0,0,0,2.928-1.04l-.736-.8a3.191,3.191,0,0,1-2.144.8,2.81,2.81,0,0,1-2.768-2.768h6.128V20a3.7,3.7,0,0,0-3.584-3.936A3.812,3.812,0,0,0,33.728,20.1Zm3.68-3.008A2.572,2.572,0,0,1,39.84,19.52H34.912A2.581,2.581,0,0,1,37.408,17.088ZM48.72,24h1.168V12.56L48.7,12.8v4.368A3.2,3.2,0,0,0,46.288,16.1a3.8,3.8,0,0,0-3.68,4.016,3.78,3.78,0,0,0,3.616,4,3.139,3.139,0,0,0,2.5-1.168Zm-4.944-3.9A2.775,2.775,0,0,1,46.5,17.12,2.813,2.813,0,0,1,48.7,18.16v3.888a2.7,2.7,0,0,1-2.208,1.04A2.789,2.789,0,0,1,43.776,20.1ZM52.8,22.384a.873.873,0,1,0,.832.88A.861.861,0,0,0,52.8,22.384Z" transform="translate(22 242)"/><path class="f" d="M1.42,0h2.1V-14H1.42Zm4.7,0h2V-7.32a2.866,2.866,0,0,1,2.5-1.32,2.374,2.374,0,0,1,2.54,2.58V0h1.98V-6.4a3.8,3.8,0,0,0-3.96-3.98A4.16,4.16,0,0,0,8.12-9.16v-1.02h-2ZM18.4-2.52c0,1.76,1.06,2.7,3.04,2.7a6.851,6.851,0,0,0,1.9-.3V-1.8a3.862,3.862,0,0,1-1.46.24c-1.08,0-1.5-.38-1.5-1.42V-8.5h3v-1.68h-3v-3.08l-1.98.48v2.6H16.24V-8.5H18.4ZM24.18-5.1A5.238,5.238,0,0,0,29.52.18a6,6,0,0,0,3.94-1.34L32.18-2.42a3.96,3.96,0,0,1-2.58.9,3.434,3.434,0,0,1-3.44-2.92H34.2v-.58a5.041,5.041,0,0,0-4.92-5.32A5.115,5.115,0,0,0,24.18-5.1Zm5.06-3.56a3.133,3.133,0,0,1,2.98,2.72H26.18A3.129,3.129,0,0,1,29.24-8.66ZM36.08,0h2V-6.82A2.741,2.741,0,0,1,40.7-8.66a3.566,3.566,0,0,1,1.2.22v-1.8a2.909,2.909,0,0,0-1.04-.16,3.264,3.264,0,0,0-2.78,1.48v-1.26h-2Zm6.38-5.1A5.238,5.238,0,0,0,47.8.18a6,6,0,0,0,3.94-1.34L50.46-2.42a3.96,3.96,0,0,1-2.58.9,3.434,3.434,0,0,1-3.44-2.92h8.04v-.58a5.041,5.041,0,0,0-4.92-5.32A5.115,5.115,0,0,0,42.46-5.1Zm5.06-3.56A3.133,3.133,0,0,1,50.5-5.94H44.46A3.129,3.129,0,0,1,47.52-8.66Zm6,7.34A6.794,6.794,0,0,0,57.98.18c2.42,0,4.26-1.36,4.26-3.2,0-1.56-1.02-2.54-3.08-2.84l-1.84-.26c-1.2-.18-1.68-.52-1.68-1.28,0-.86.86-1.38,2.04-1.38A5.589,5.589,0,0,1,60.9-7.72l1.02-1.32a6.988,6.988,0,0,0-4.1-1.3c-2.34,0-3.98,1.22-3.98,3.08,0,1.58,1.04,2.54,3.04,2.82l1.84.26c1.14.16,1.64.58,1.64,1.3,0,.82-.84,1.52-2.44,1.52A5.235,5.235,0,0,1,54.6-2.64ZM64.9-2.52c0,1.76,1.06,2.7,3.04,2.7a6.851,6.851,0,0,0,1.9-.3V-1.8a3.862,3.862,0,0,1-1.46.24c-1.08,0-1.5-.38-1.5-1.42V-8.5h3v-1.68h-3v-3.08l-1.98.48v2.6H62.74V-8.5H64.9ZM70.68-5.1A5.238,5.238,0,0,0,76.02.18a6,6,0,0,0,3.94-1.34L78.68-2.42a3.96,3.96,0,0,1-2.58.9,3.434,3.434,0,0,1-3.44-2.92H80.7v-.58a5.041,5.041,0,0,0-4.92-5.32A5.115,5.115,0,0,0,70.68-5.1Zm5.06-3.56a3.133,3.133,0,0,1,2.98,2.72H72.68A3.129,3.129,0,0,1,75.74-8.66ZM90.44,0h1.98V-14.44l-2,.44v4.66a5.1,5.1,0,0,0-3.06-1A5.144,5.144,0,0,0,82.18-5.1,5.153,5.153,0,0,0,87.32.16,4.808,4.808,0,0,0,90.44-.96Zm-6.3-5.12a3.408,3.408,0,0,1,3.46-3.5,3.8,3.8,0,0,1,2.82,1.2V-2.8A3.645,3.645,0,0,1,87.6-1.58,3.442,3.442,0,0,1,84.14-5.12Zm15.78-6.7a1.229,1.229,0,0,0,1.22-1.24,1.229,1.229,0,0,0-1.22-1.24,1.246,1.246,0,0,0-1.24,1.24A1.246,1.246,0,0,0,99.92-11.82Zm1,1.64h-2V0h2ZM103.24,0h2V-7.32a2.866,2.866,0,0,1,2.5-1.32,2.374,2.374,0,0,1,2.54,2.58V0h1.98V-6.4a3.8,3.8,0,0,0-3.96-3.98,4.16,4.16,0,0,0-3.06,1.22v-1.02h-2Zm20.4-1.58A3.377,3.377,0,0,1,120.3-5.1a3.364,3.364,0,0,1,3.3-3.5,3.784,3.784,0,0,1,2.8,1.28l1.26-1.36a5.828,5.828,0,0,0-4.1-1.7,5.2,5.2,0,0,0-5.24,5.28A5.191,5.191,0,0,0,123.56.18a5.63,5.63,0,0,0,4.02-1.7l-1.2-1.3A3.72,3.72,0,0,1,123.64-1.58Zm7.56-12.86-2,.44V0h2Zm1.88,9.34a5.246,5.246,0,0,0,5.3,5.3,5.229,5.229,0,0,0,5.28-5.3,5.225,5.225,0,0,0-5.28-5.28A5.242,5.242,0,0,0,133.08-5.1Zm8.64,0a3.419,3.419,0,0,1-3.34,3.54,3.406,3.406,0,0,1-3.34-3.54,3.4,3.4,0,0,1,3.34-3.52A3.4,3.4,0,0,1,141.72-5.1Zm5.8-5.08h-1.98v6.4A3.8,3.8,0,0,0,149.5.2a4.16,4.16,0,0,0,3.06-1.22V0h2V-10.18h-2v7.32a2.866,2.866,0,0,1-2.5,1.32,2.374,2.374,0,0,1-2.54-2.58ZM164.7,0h1.98V-14.44l-2,.44v4.66a5.1,5.1,0,0,0-3.06-1,5.144,5.144,0,0,0-5.18,5.24A5.153,5.153,0,0,0,161.58.16,4.808,4.808,0,0,0,164.7-.96Zm-6.3-5.12a3.408,3.408,0,0,1,3.46-3.5,3.8,3.8,0,0,1,2.82,1.2V-2.8a3.645,3.645,0,0,1-2.82,1.22A3.442,3.442,0,0,1,158.4-5.12ZM175.04-7.1c1.74-1.2,2.4-2.04,2.4-3.5,0-2.02-1.9-3.58-4.46-3.58a5.606,5.606,0,0,0-4.84,2.66l1.58.84a3.756,3.756,0,0,1,3.16-1.78c1.52,0,2.6.88,2.6,1.94,0,.84-.52,1.4-1.42,2.06l-.94.68a3.656,3.656,0,0,0-1.6,3.74h1.72a2.568,2.568,0,0,1,1.18-2.62Zm-2.66,4.72a1.255,1.255,0,0,0-1.26,1.26A1.272,1.272,0,0,0,172.38.16a1.289,1.289,0,0,0,1.28-1.28A1.272,1.272,0,0,0,172.38-2.38Z" transform="translate(22 212)"/><path class="g" d="M6,310H366v16H6ZM350,176h16V326H350Z"/><g class="h"><path class="c" d="M22,287h99v23H22Z"/><path class="i" d="M22.5,287.5h98v22h-98Z"/></g><path class="g" d="M22,271h99v16H22Z"/><g class="h"><path class="c" d="M22,226H350v45H22Z"/><path class="i" d="M22.5,226.5h327v44H22.5Z"/></g><path class="j" d="M22,218H200v8H22Z"/><g class="h"><path class="c" d="M336,192h14v14H336Z"/><path class="i" d="M336.5,192.5h13v13h-13Z"/></g><g class="h"><path class="c" d="M22,192H200v26H22Z"/><path class="i" d="M22.5,192.5h177v25H22.5Z"/></g><path class="g" d="M6,176H366v16H6Zm0,0H22V326H6Z"/><g class="m" transform="matrix(1, 0, 0, 1, 0, 0)"><path class="b" d="M0,0H576V103H0Z" transform="translate(6 9)"/></g><path class="c" d="M552,25h14V39H552Z"/><path class="d" d="M560.9,32l2.84-2.84a.9.9,0,0,0,0-1.27l-.63-.64a.9.9,0,0,0-1.25,0L559,30.1l-2.84-2.84a.9.9,0,0,0-1.27,0l-.64.63a.9.9,0,0,0,0,1.26L557.1,32l-2.84,2.84a.9.9,0,0,0,0,1.27l.63.64a.9.9,0,0,0,1.26,0L559,33.9l2.84,2.84a.9.9,0,0,0,1.27,0l.64-.63a.9.9,0,0,0,0-1.25Z"/><path class="e" d="M526,54l-1.5,1.5L529,60H519v2h10l-4.5,4.5L526,68l7-7Z"/><path class="e" d="M.054-2A8.354,8.354,0,0,0,5.634.18c3.258,0,5.31-1.584,5.31-4.032,0-1.908-1.188-3.114-3.762-3.546l-2.376-.4c-1.332-.2-1.8-.612-1.8-1.368,0-.864.918-1.422,2.3-1.422A6.344,6.344,0,0,1,9.288-9.072l1.4-1.944a8.716,8.716,0,0,0-5.2-1.764C2.394-12.78.522-11.3.522-8.964c0,1.782,1.1,2.988,3.294,3.366l2.5.432c1.566.27,2.07.72,2.07,1.548,0,.954-.972,1.584-2.574,1.584A6.161,6.161,0,0,1,1.548-3.87ZM18.666,0h2.448V-5.832a3.558,3.558,0,0,0-3.708-3.726,3.912,3.912,0,0,0-2.628.936V-13.14l-2.466.54V0h2.466V-6.5A2.2,2.2,0,0,1,16.7-7.434a1.842,1.842,0,0,1,1.962,1.962ZM22.59-4.68a4.873,4.873,0,0,0,5,4.86,4.873,4.873,0,0,0,5-4.86,4.888,4.888,0,0,0-5-4.878A4.888,4.888,0,0,0,22.59-4.68Zm7.6,0a2.634,2.634,0,0,1-2.592,2.718A2.634,2.634,0,0,1,25-4.68a2.638,2.638,0,0,1,2.592-2.736A2.627,2.627,0,0,1,30.186-4.68ZM38.088,0l1.818-5.994L41.724,0h2.358l2.592-9.378h-2.3L42.822-3.312,40.968-9.378H38.9L37.026-3.312,35.478-9.378h-2.34L35.712,0Zm13.32,0h2.466V-6.57a2.085,2.085,0,0,1,1.746-.864,1.75,1.75,0,0,1,1.764,1.962V0H59.85V-5.832A3.839,3.839,0,0,0,59.8-6.5a2.111,2.111,0,0,1,1.8-.936,1.763,1.763,0,0,1,1.782,1.962V0h2.466V-5.832a3.512,3.512,0,0,0-3.6-3.726,3.95,3.95,0,0,0-3.1,1.386,3.374,3.374,0,0,0-2.826-1.386,3.647,3.647,0,0,0-2.448.882v-.7H51.408ZM67.32-4.68A4.882,4.882,0,0,0,72.36.18a5.622,5.622,0,0,0,3.8-1.35l-1.62-1.476a2.952,2.952,0,0,1-2.07.756A2.7,2.7,0,0,1,69.8-3.852h6.984V-4.5a4.733,4.733,0,0,0-4.644-5.04A4.787,4.787,0,0,0,67.32-4.68Zm4.77-2.826a2.384,2.384,0,0,1,2.286,1.89h-4.59A2.355,2.355,0,0,1,72.09-7.506Z" transform="translate(434 67)"/><path class="f" d="M1.424,0H8.976V-1.088H2.656V-11.2H1.424ZM10.08-3.9A3.907,3.907,0,0,0,13.952.144,4.5,4.5,0,0,0,16.88-.9l-.736-.8A3.191,3.191,0,0,1,14-.9a2.81,2.81,0,0,1-2.768-2.768H17.36V-4a3.7,3.7,0,0,0-3.584-3.936A3.812,3.812,0,0,0,10.08-3.9Zm3.68-3.008A2.572,2.572,0,0,1,16.192-4.48H11.264A2.581,2.581,0,0,1,13.76-6.912ZM21.584.144A3.321,3.321,0,0,0,24.064-.9V0h1.152V-5.184c0-1.808-1.12-2.752-3.024-2.752a6.539,6.539,0,0,0-2.944.752l.448.9a5.037,5.037,0,0,1,2.352-.672c1.312,0,2.016.624,2.016,1.936v1.056A4.683,4.683,0,0,0,21.7-4.56c-1.7,0-2.928.864-2.928,2.3C18.768-.832,19.936.144,21.584.144Zm-1.7-2.416c0-.912.832-1.456,1.968-1.456a4.052,4.052,0,0,1,2.208.576v1.5a3.116,3.116,0,0,1-2.24.9C20.688-.752,19.888-1.36,19.888-2.272ZM27.536,0H28.7V-5.344a2.2,2.2,0,0,1,2.1-1.584,2.768,2.768,0,0,1,.816.144V-7.84a2.3,2.3,0,0,0-.736-.112,2.321,2.321,0,0,0-2.176,1.7V-7.808H27.536Zm5.616,0H34.32V-5.76a2.32,2.32,0,0,1,2.048-1.2,2.023,2.023,0,0,1,2.1,2.24V0h1.168V-5.056a2.722,2.722,0,0,0-2.816-2.88,2.813,2.813,0,0,0-2.5,1.408v-1.28H33.152ZM48.1.144A3.321,3.321,0,0,0,50.576-.9V0h1.152V-5.184c0-1.808-1.12-2.752-3.024-2.752a6.539,6.539,0,0,0-2.944.752l.448.9A5.037,5.037,0,0,1,48.56-6.96c1.312,0,2.016.624,2.016,1.936v1.056a4.683,4.683,0,0,0-2.368-.592c-1.7,0-2.928.864-2.928,2.3C45.28-.832,46.448.144,48.1.144ZM46.4-2.272c0-.912.832-1.456,1.968-1.456a4.052,4.052,0,0,1,2.208.576v1.5a3.116,3.116,0,0,1-2.24.9C47.2-.752,46.4-1.36,46.4-2.272ZM61.344-3.9a3.78,3.78,0,0,0-3.616-4A3.091,3.091,0,0,0,55.216-6.72v-4.72l-1.168.24V0H55.2V-1.024A3.081,3.081,0,0,0,57.664.112,3.8,3.8,0,0,0,61.344-3.9ZM57.44-6.88a2.8,2.8,0,0,1,2.736,2.992A2.791,2.791,0,0,1,57.44-.9a2.767,2.767,0,0,1-2.224-1.088V-5.808A2.688,2.688,0,0,1,57.44-6.88ZM62.976-3.9A3.867,3.867,0,0,0,66.768.16,3.873,3.873,0,0,0,70.592-3.9a3.845,3.845,0,0,0-3.824-4.032A3.839,3.839,0,0,0,62.976-3.9Zm6.448.016A2.756,2.756,0,0,1,66.768-.88a2.742,2.742,0,0,1-2.624-3.008,2.767,2.767,0,0,1,2.624-3.024A2.771,2.771,0,0,1,69.424-3.888Zm4.3-3.92H72.56v5.056A2.722,2.722,0,0,0,75.376.128a2.813,2.813,0,0,0,2.5-1.408V0H79.04V-7.808H77.872v5.76a2.32,2.32,0,0,1-2.048,1.2,2.023,2.023,0,0,1-2.1-2.24Zm8.56,6.048c0,1.216.688,1.9,2.048,1.9a4.713,4.713,0,0,0,1.376-.208V-1.1a2.881,2.881,0,0,1-1.1.208c-.832,0-1.152-.336-1.152-1.168V-6.848h2.256v-.96H83.456v-2.256l-1.168.272v1.984H80.672v.96h1.616ZM96.384,0h1.168V-5.056a2.722,2.722,0,0,0-2.816-2.88,2.813,2.813,0,0,0-2.5,1.408V-11.44l-1.168.24V0H92.24V-5.76a2.32,2.32,0,0,1,2.048-1.2,2.023,2.023,0,0,1,2.1,2.24Zm5.04,1.088c-.32.8-.736.992-1.264.992a3.939,3.939,0,0,1-.64-.064v1.04a2.568,2.568,0,0,0,.752.112c1.168,0,1.76-.5,2.24-1.728l3.808-9.248h-1.28l-2.512,6.432L100.16-7.808H98.848l3.024,7.792ZM115.088-3.9a3.78,3.78,0,0,0-3.616-4A3.091,3.091,0,0,0,108.96-6.72v-4.72l-1.168.24V0h1.152V-1.024A3.081,3.081,0,0,0,111.408.112,3.8,3.8,0,0,0,115.088-3.9Zm-3.9-2.976a2.8,2.8,0,0,1,2.736,2.992A2.791,2.791,0,0,1,111.184-.9a2.767,2.767,0,0,1-2.224-1.088V-5.808A2.688,2.688,0,0,1,111.184-6.88ZM117.056,0h1.168V-5.344a2.2,2.2,0,0,1,2.1-1.584,2.768,2.768,0,0,1,.816.144V-7.84a2.3,2.3,0,0,0-.736-.112,2.321,2.321,0,0,0-2.176,1.7V-7.808h-1.168Zm6.208-9.776a.83.83,0,0,0,.832-.848.826.826,0,0,0-.832-.832.826.826,0,0,0-.832.832A.83.83,0,0,0,123.264-9.776Zm.576,1.968h-1.168V0h1.168ZM131.936,0H133.1V-11.44l-1.184.24v4.368A3.2,3.2,0,0,0,129.5-7.9a3.8,3.8,0,0,0-3.68,4.016,3.78,3.78,0,0,0,3.616,4,3.139,3.139,0,0,0,2.5-1.168Zm-4.944-3.9a2.775,2.775,0,0,1,2.72-2.976,2.813,2.813,0,0,1,2.208,1.04v3.888a2.7,2.7,0,0,1-2.208,1.04A2.789,2.789,0,0,1,126.992-3.9Zm15.7,2.992a2.817,2.817,0,0,1-2.72-2.992,2.832,2.832,0,0,1,2.72-2.976,2.983,2.983,0,0,1,2.144.976l.752-.816a4.146,4.146,0,0,0-2.912-1.216A3.912,3.912,0,0,0,138.8-3.9,3.926,3.926,0,0,0,142.672.144a3.955,3.955,0,0,0,2.864-1.264l-.72-.72A2.791,2.791,0,0,1,142.688-.912Zm5.744-10.528-1.168.24V0h1.168ZM150.416-3.9A3.867,3.867,0,0,0,154.208.16,3.873,3.873,0,0,0,158.032-3.9a3.845,3.845,0,0,0-3.824-4.032A3.839,3.839,0,0,0,150.416-3.9Zm6.448.016A2.756,2.756,0,0,1,154.208-.88a2.742,2.742,0,0,1-2.624-3.008,2.767,2.767,0,0,1,2.624-3.024A2.771,2.771,0,0,1,156.864-3.888Zm4.3-3.92H160v5.056a2.722,2.722,0,0,0,2.816,2.88,2.813,2.813,0,0,0,2.5-1.408V0h1.168V-7.808h-1.168v5.76a2.32,2.32,0,0,1-2.048,1.2,2.023,2.023,0,0,1-2.1-2.24ZM174.56,0h1.168V-11.44l-1.184.24v4.368A3.2,3.2,0,0,0,172.128-7.9a3.8,3.8,0,0,0-3.68,4.016,3.78,3.78,0,0,0,3.616,4,3.139,3.139,0,0,0,2.5-1.168Zm-4.944-3.9a2.775,2.775,0,0,1,2.72-2.976,2.813,2.813,0,0,1,2.208,1.04v3.888a2.7,2.7,0,0,1-2.208,1.04A2.789,2.789,0,0,1,169.616-3.9ZM184.192.144a3.321,3.321,0,0,0,2.48-1.04V0h1.152V-5.184c0-1.808-1.12-2.752-3.024-2.752a6.539,6.539,0,0,0-2.944.752l.448.9a5.037,5.037,0,0,1,2.352-.672c1.312,0,2.016.624,2.016,1.936v1.056A4.683,4.683,0,0,0,184.3-4.56c-1.7,0-2.928.864-2.928,2.3C181.376-.832,182.544.144,184.192.144Zm-1.7-2.416c0-.912.832-1.456,1.968-1.456a4.052,4.052,0,0,1,2.208.576v1.5a3.116,3.116,0,0,1-2.24.9C183.3-.752,182.5-1.36,182.5-2.272ZM190.144,0h1.168V-5.76a2.32,2.32,0,0,1,2.048-1.2,2.023,2.023,0,0,1,2.1,2.24V0h1.168V-5.056a2.722,2.722,0,0,0-2.816-2.88,2.813,2.813,0,0,0-2.5,1.408v-1.28h-1.168ZM204.7,0h1.168V-11.44l-1.184.24v4.368A3.2,3.2,0,0,0,202.272-7.9a3.8,3.8,0,0,0-3.68,4.016,3.78,3.78,0,0,0,3.616,4,3.139,3.139,0,0,0,2.5-1.168ZM199.76-3.9a2.775,2.775,0,0,1,2.72-2.976,2.813,2.813,0,0,1,2.208,1.04v3.888a2.7,2.7,0,0,1-2.208,1.04A2.789,2.789,0,0,1,199.76-3.9ZM217.216,0h1.168V-5.056a2.722,2.722,0,0,0-2.816-2.88,2.813,2.813,0,0,0-2.5,1.408V-11.44l-1.168.24V0h1.168V-5.76a2.32,2.32,0,0,1,2.048-1.2,2.023,2.023,0,0,1,2.1,2.24Zm3.136-3.9A3.867,3.867,0,0,0,224.144.16,3.873,3.873,0,0,0,227.968-3.9a3.845,3.845,0,0,0-3.824-4.032A3.839,3.839,0,0,0,220.352-3.9Zm6.448.016A2.756,2.756,0,0,1,224.144-.88a2.742,2.742,0,0,1-2.624-3.008,2.767,2.767,0,0,1,2.624-3.024A2.771,2.771,0,0,1,226.8-3.888ZM232.352,0l1.856-6.3L236.064,0H237.2l2.144-7.808h-1.12l-1.616,6.24-1.872-6.24H233.7L231.84-1.552l-1.632-6.256h-1.152L231.2,0ZM245.6-1.76c0,1.216.688,1.9,2.048,1.9a4.714,4.714,0,0,0,1.376-.208V-1.1a2.881,2.881,0,0,1-1.1.208c-.832,0-1.152-.336-1.152-1.168V-6.848h2.256v-.96h-2.256v-2.256l-1.168.272v1.984h-1.616v.96H245.6ZM250.064-3.9A3.867,3.867,0,0,0,253.856.16,3.873,3.873,0,0,0,257.68-3.9a3.845,3.845,0,0,0-3.824-4.032A3.839,3.839,0,0,0,250.064-3.9Zm6.448.016A2.756,2.756,0,0,1,253.856-.88a2.742,2.742,0,0,1-2.624-3.008,2.767,2.767,0,0,1,2.624-3.024A2.771,2.771,0,0,1,256.512-3.888Zm10.144,4a3.153,3.153,0,0,0,2.48-1.136V.256c0,1.312-.768,2-2.176,2a5.084,5.084,0,0,1-2.48-.72l-.5.9a6.078,6.078,0,0,0,3.04.816c2.112,0,3.28-1.056,3.28-3.008V-7.808h-1.152v.992A3.223,3.223,0,0,0,266.72-7.9a3.8,3.8,0,0,0-3.68,4.016A3.78,3.78,0,0,0,266.656.112ZM264.208-3.9a2.775,2.775,0,0,1,2.72-2.976,2.813,2.813,0,0,1,2.208,1.04v3.888a2.7,2.7,0,0,1-2.208,1.04A2.789,2.789,0,0,1,264.208-3.9Zm8.064,0A3.907,3.907,0,0,0,276.144.144,4.5,4.5,0,0,0,279.072-.9l-.736-.8a3.191,3.191,0,0,1-2.144.8,2.81,2.81,0,0,1-2.768-2.768h6.128V-4a3.7,3.7,0,0,0-3.584-3.936A3.812,3.812,0,0,0,272.272-3.9Zm3.68-3.008a2.572,2.572,0,0,1,2.432,2.432h-4.928A2.581,2.581,0,0,1,275.952-6.912ZM282.1-1.76c0,1.216.688,1.9,2.048,1.9a4.713,4.713,0,0,0,1.376-.208V-1.1a2.881,2.881,0,0,1-1.1.208c-.832,0-1.152-.336-1.152-1.168V-6.848h2.256v-.96h-2.256v-2.256l-1.168.272v1.984H280.48v.96H282.1Zm8.048.672A4.33,4.33,0,0,0,293.328.144c1.76,0,3.04-1.088,3.024-2.416.016-1.184-.736-1.824-2.272-2.1l-1.3-.24c-.96-.176-1.36-.448-1.36-1.12,0-.768.72-1.248,1.7-1.248a3.943,3.943,0,0,1,2.416.88l.624-.8a4.858,4.858,0,0,0-2.992-1.04c-1.648,0-2.816.96-2.816,2.288,0,1.168.752,1.792,2.208,2.048l1.3.224c.976.176,1.392.512,1.392,1.168,0,.768-.7,1.408-1.968,1.408a3.5,3.5,0,0,1-2.464-1.024Zm8.688-.672c0,1.216.688,1.9,2.048,1.9a4.713,4.713,0,0,0,1.376-.208V-1.1a2.881,2.881,0,0,1-1.1.208C300.32-.9,300-1.232,300-2.064V-6.848h2.256v-.96H300v-2.256l-1.168.272v1.984h-1.616v.96h1.616Zm7.488,1.9A3.321,3.321,0,0,0,308.8-.9V0h1.152V-5.184c0-1.808-1.12-2.752-3.024-2.752a6.539,6.539,0,0,0-2.944.752l.448.9a5.037,5.037,0,0,1,2.352-.672c1.312,0,2.016.624,2.016,1.936v1.056a4.683,4.683,0,0,0-2.368-.592c-1.7,0-2.928.864-2.928,2.3C303.5-.832,304.672.144,306.32.144Zm-1.7-2.416c0-.912.832-1.456,1.968-1.456a4.052,4.052,0,0,1,2.208.576v1.5a3.116,3.116,0,0,1-2.24.9C305.424-.752,304.624-1.36,304.624-2.272ZM312.272,0h1.168V-5.344a2.2,2.2,0,0,1,2.1-1.584,2.768,2.768,0,0,1,.816.144V-7.84a2.3,2.3,0,0,0-.736-.112,2.321,2.321,0,0,0-2.176,1.7V-7.808h-1.168Zm6.72-1.76c0,1.216.688,1.9,2.048,1.9a4.713,4.713,0,0,0,1.376-.208V-1.1a2.881,2.881,0,0,1-1.1.208c-.832,0-1.152-.336-1.152-1.168V-6.848h2.256v-.96H320.16v-2.256l-1.168.272v1.984h-1.616v.96h1.616ZM323.456-3.9A3.907,3.907,0,0,0,327.328.144,4.5,4.5,0,0,0,330.256-.9l-.736-.8a3.191,3.191,0,0,1-2.144.8,2.81,2.81,0,0,1-2.768-2.768h6.128V-4a3.7,3.7,0,0,0-3.584-3.936A3.812,3.812,0,0,0,323.456-3.9Zm3.68-3.008a2.572,2.572,0,0,1,2.432,2.432H324.64A2.581,2.581,0,0,1,327.136-6.912ZM338.448,0h1.168V-11.44l-1.184.24v4.368A3.2,3.2,0,0,0,336.016-7.9a3.8,3.8,0,0,0-3.68,4.016,3.78,3.78,0,0,0,3.616,4,3.139,3.139,0,0,0,2.5-1.168ZM333.5-3.9a2.775,2.775,0,0,1,2.72-2.976,2.813,2.813,0,0,1,2.208,1.04v3.888a2.7,2.7,0,0,1-2.208,1.04A2.789,2.789,0,0,1,333.5-3.9Zm9.024,2.288a.861.861,0,0,0-.848.88.857.857,0,0,0,.848.864.854.854,0,0,0,.832-.864A.858.858,0,0,0,342.528-1.616Z" transform="translate(56 83)"/><path class="f" d="M1.42,0h2.1V-14H1.42Zm4.7,0h2V-7.32a2.866,2.866,0,0,1,2.5-1.32,2.374,2.374,0,0,1,2.54,2.58V0h1.98V-6.4a3.8,3.8,0,0,0-3.96-3.98A4.16,4.16,0,0,0,8.12-9.16v-1.02h-2ZM18.4-2.52c0,1.76,1.06,2.7,3.04,2.7a6.851,6.851,0,0,0,1.9-.3V-1.8a3.862,3.862,0,0,1-1.46.24c-1.08,0-1.5-.38-1.5-1.42V-8.5h3v-1.68h-3v-3.08l-1.98.48v2.6H16.24V-8.5H18.4ZM24.18-5.1A5.238,5.238,0,0,0,29.52.18a6,6,0,0,0,3.94-1.34L32.18-2.42a3.96,3.96,0,0,1-2.58.9,3.434,3.434,0,0,1-3.44-2.92H34.2v-.58a5.041,5.041,0,0,0-4.92-5.32A5.115,5.115,0,0,0,24.18-5.1Zm5.06-3.56a3.133,3.133,0,0,1,2.98,2.72H26.18A3.129,3.129,0,0,1,29.24-8.66ZM36.08,0h2V-6.82A2.741,2.741,0,0,1,40.7-8.66a3.566,3.566,0,0,1,1.2.22v-1.8a2.909,2.909,0,0,0-1.04-.16,3.264,3.264,0,0,0-2.78,1.48v-1.26h-2Zm6.38-5.1A5.238,5.238,0,0,0,47.8.18a6,6,0,0,0,3.94-1.34L50.46-2.42a3.96,3.96,0,0,1-2.58.9,3.434,3.434,0,0,1-3.44-2.92h8.04v-.58a5.041,5.041,0,0,0-4.92-5.32A5.115,5.115,0,0,0,42.46-5.1Zm5.06-3.56A3.133,3.133,0,0,1,50.5-5.94H44.46A3.129,3.129,0,0,1,47.52-8.66Zm6,7.34A6.794,6.794,0,0,0,57.98.18c2.42,0,4.26-1.36,4.26-3.2,0-1.56-1.02-2.54-3.08-2.84l-1.84-.26c-1.2-.18-1.68-.52-1.68-1.28,0-.86.86-1.38,2.04-1.38A5.589,5.589,0,0,1,60.9-7.72l1.02-1.32a6.988,6.988,0,0,0-4.1-1.3c-2.34,0-3.98,1.22-3.98,3.08,0,1.58,1.04,2.54,3.04,2.82l1.84.26c1.14.16,1.64.58,1.64,1.3,0,.82-.84,1.52-2.44,1.52A5.235,5.235,0,0,1,54.6-2.64ZM64.9-2.52c0,1.76,1.06,2.7,3.04,2.7a6.851,6.851,0,0,0,1.9-.3V-1.8a3.862,3.862,0,0,1-1.46.24c-1.08,0-1.5-.38-1.5-1.42V-8.5h3v-1.68h-3v-3.08l-1.98.48v2.6H62.74V-8.5H64.9ZM70.68-5.1A5.238,5.238,0,0,0,76.02.18a6,6,0,0,0,3.94-1.34L78.68-2.42a3.96,3.96,0,0,1-2.58.9,3.434,3.434,0,0,1-3.44-2.92H80.7v-.58a5.041,5.041,0,0,0-4.92-5.32A5.115,5.115,0,0,0,70.68-5.1Zm5.06-3.56a3.133,3.133,0,0,1,2.98,2.72H72.68A3.129,3.129,0,0,1,75.74-8.66ZM90.44,0h1.98V-14.44l-2,.44v4.66a5.1,5.1,0,0,0-3.06-1A5.144,5.144,0,0,0,82.18-5.1,5.153,5.153,0,0,0,87.32.16,4.808,4.808,0,0,0,90.44-.96Zm-6.3-5.12a3.408,3.408,0,0,1,3.46-3.5,3.8,3.8,0,0,1,2.82,1.2V-2.8A3.645,3.645,0,0,1,87.6-1.58,3.442,3.442,0,0,1,84.14-5.12Zm15.78-6.7a1.229,1.229,0,0,0,1.22-1.24,1.229,1.229,0,0,0-1.22-1.24,1.246,1.246,0,0,0-1.24,1.24A1.246,1.246,0,0,0,99.92-11.82Zm1,1.64h-2V0h2ZM103.24,0h2V-7.32a2.866,2.866,0,0,1,2.5-1.32,2.374,2.374,0,0,1,2.54,2.58V0h1.98V-6.4a3.8,3.8,0,0,0-3.96-3.98,4.16,4.16,0,0,0-3.06,1.22v-1.02h-2Zm20.4-1.58A3.377,3.377,0,0,1,120.3-5.1a3.364,3.364,0,0,1,3.3-3.5,3.784,3.784,0,0,1,2.8,1.28l1.26-1.36a5.828,5.828,0,0,0-4.1-1.7,5.2,5.2,0,0,0-5.24,5.28A5.191,5.191,0,0,0,123.56.18a5.63,5.63,0,0,0,4.02-1.7l-1.2-1.3A3.72,3.72,0,0,1,123.64-1.58Zm7.56-12.86-2,.44V0h2Zm1.88,9.34a5.246,5.246,0,0,0,5.3,5.3,5.229,5.229,0,0,0,5.28-5.3,5.225,5.225,0,0,0-5.28-5.28A5.242,5.242,0,0,0,133.08-5.1Zm8.64,0a3.419,3.419,0,0,1-3.34,3.54,3.406,3.406,0,0,1-3.34-3.54,3.4,3.4,0,0,1,3.34-3.52A3.4,3.4,0,0,1,141.72-5.1Zm5.8-5.08h-1.98v6.4A3.8,3.8,0,0,0,149.5.2a4.16,4.16,0,0,0,3.06-1.22V0h2V-10.18h-2v7.32a2.866,2.866,0,0,1-2.5,1.32,2.374,2.374,0,0,1-2.54-2.58ZM164.7,0h1.98V-14.44l-2,.44v4.66a5.1,5.1,0,0,0-3.06-1,5.144,5.144,0,0,0-5.18,5.24A5.153,5.153,0,0,0,161.58.16,4.808,4.808,0,0,0,164.7-.96Zm-6.3-5.12a3.408,3.408,0,0,1,3.46-3.5,3.8,3.8,0,0,1,2.82,1.2V-2.8a3.645,3.645,0,0,1-2.82,1.22A3.442,3.442,0,0,1,158.4-5.12ZM175.04-7.1c1.74-1.2,2.4-2.04,2.4-3.5,0-2.02-1.9-3.58-4.46-3.58a5.606,5.606,0,0,0-4.84,2.66l1.58.84a3.756,3.756,0,0,1,3.16-1.78c1.52,0,2.6.88,2.6,1.94,0,.84-.52,1.4-1.42,2.06l-.94.68a3.656,3.656,0,0,0-1.6,3.74h1.72a2.568,2.568,0,0,1,1.18-2.62Zm-2.66,4.72a1.255,1.255,0,0,0-1.26,1.26A1.272,1.272,0,0,0,172.38.16a1.289,1.289,0,0,0,1.28-1.28A1.272,1.272,0,0,0,172.38-2.38Z" transform="translate(56 53)"/><path class="g" d="M566,25h16V39H566Z"/><g class="h"><path class="c" d="M552,25h14V39H552Z"/><path class="i" d="M552.5,25.5h13v13h-13Z"/></g><path class="g" d="M552,9h14V25H552Z"/><g class="h"><path class="c" d="M434,49h99V72H434Z"/><path class="i" d="M434.5,49.5h98v22h-98Z"/></g><path class="k" d="M402,49h32V88H402Z"/><path class="l" d="M56,88H80v24H56Z"/><g class="h"><path class="c" d="M56,67H402V88H56Z"/><path class="i" d="M56.5,67.5h345v20H56.5Z"/></g><path class="j" d="M56,59H234v8H56Z"/><g class="h"><path class="c" d="M56,33H234V59H56Z"/><path class="i" d="M56.5,33.5h177v25H56.5Z"/></g><path class="l" d="M56,9H80V33H56Z"/></g></svg>