<svg xmlns="http://www.w3.org/2000/svg" width="588" height="327"><defs><filter id="a" width="588" height="115" x="0" y="212" filterUnits="userSpaceOnUse"><feOffset dy="-3"/><feGaussianBlur result="b" stdDeviation="2"/><feFlood flood-opacity=".102"/><feComposite in2="b" operator="in"/><feComposite in="SourceGraphic"/></filter></defs><g filter="url(#a)"><path fill="#fff" d="M6 221h576v103H6z"/></g><path fill="none" d="M552 237h14v14h-14z"/><path fill="#6a6e73" d="M560.9 244l2.84-2.84a.9.9 0 000-1.27l-.63-.63a.9.9 0 00-1.26 0L559 242.1l-2.84-2.84a.9.9 0 00-1.27 0l-.63.63a.9.9 0 000 1.27l2.84 2.84-2.84 2.84a.9.9 0 000 1.27l.63.63a.9.9 0 001.27 0l2.84-2.84 2.84 2.84a.9.9 0 001.27 0l.63-.63a.9.9 0 000-1.26z"/><g fill="#06c"><path d="M526 266l-1.5 1.5 4.5 4.5h-10v2h10l-4.5 4.5 1.5 1.5 7-7z"/><text font-family="RedHatDisplay-Bold, RedHatDisplay" font-size="18" font-weight="700" transform="translate(434 279)"><tspan x="0" y="0">Show me</tspan></text></g><g fill="#151515"><text font-family="RedHatText, RedHatText" font-size="16" transform="translate(56 295)"><tspan x="0" y="0">Learn about hybrid cloud and how to get started.</tspan></text><text font-family="RedHatDisplay-Medium, RedHatDisplay" font-size="20" font-weight="500" transform="translate(56 265)"><tspan x="0" y="0">Interested in cloud?</tspan></text></g><g opacity=".03"><path fill="#00f" d="M566 0h16v324h-16z" opacity=".75"/><path fill="red" d="M22 0h544v324H22z" opacity=".75"/><path fill="#00f" d="M6 0h16v324H6z" opacity=".75"/></g></svg>