<svg xmlns="http://www.w3.org/2000/svg" width="1012" height="608"><defs><filter id="a" width="1012" height="140" x="0" y="468" filterUnits="userSpaceOnUse"><feOffset dy="-3"/><feGaussianBlur stdDeviation="2" result="b"/><feFlood flood-opacity=".102"/><feComposite operator="in" in2="b"/><feComposite in="SourceGraphic"/></filter><clipPath id="b"><path fill="none" d="M363 4317h994a3 3 0 0 1 3 3v599a3 3 0 0 1-3 3H360v-602a3 3 0 0 1 3-3z"/></clipPath><filter id="c" width="274" height="361" x="739" y="61" filterUnits="userSpaceOnUse"><feOffset dy="3"/><feGaussianBlur stdDeviation="2" result="e"/><feFlood flood-opacity=".102"/><feComposite operator="in" in2="e"/><feComposite in="SourceGraphic"/></filter></defs><path fill="#f0f0f0" d="M9 0h994a3 3 0 0 1 3 3v602H6V3a3 3 0 0 1 3-3z"/><path fill="#fff" d="M0 0h1000v128H0z" transform="translate(6 477)" filter="url(#a)"/><path fill="none" d="M976 493h14v14h-14z"/><path fill="#6a6e73" d="M984.9 500l2.84-2.84a.9.9 0 0 0 0-1.27l-.63-.64a.9.9 0 0 0-1.25 0L983 498.1l-2.84-2.84a.9.9 0 0 0-1.27 0l-.64.63a.9.9 0 0 0 0 1.26l2.84 2.84-2.84 2.84a.9.9 0 0 0 0 1.27l.63.64a.9.9 0 0 0 1.26 0l2.84-2.84 2.84 2.84a.9.9 0 0 0 1.27 0l.64-.63a.9.9 0 0 0 0-1.25z"/><g transform="translate(-381 235)"><rect width="133" height="56" fill="#e00" rx="3" transform="translate(1122 278)"/><text fill="#fff" transform="translate(1154 312)" font-size="16" font-family="RedHatDisplay-Bold, Red Hat Display" font-weight="700"><tspan x="0" y="0">Show me</tspan></text></g><g fill="#151515"><text transform="translate(331 564)" font-size="16" font-family="RedHatText-Regular, Red Hat Text"><tspan x="0" y="0">Learn about hybrid cloud and how to get started.</tspan></text><text transform="translate(331 534)" font-size="20" font-family="RedHatDisplay-Medium, Red Hat Display" font-weight="500"><tspan x="0" y="0">Interested in cloud?</tspan></text></g><g transform="translate(-383 -189)"><rect width="160" height="80" fill="#f0f0f0" rx="3" transform="translate(522 690)"/><text fill="#6a6e73" transform="translate(549 735)" font-size="14" font-family="RedHatText-Regular, Red Hat Text" letter-spacing=".01em"><tspan x="0" y="0">Image thumbnail</tspan></text></g><g clip-path="url(#b)" transform="translate(-354 -4317)"><g fill="#fff" stroke="#d2d2d2" transform="translate(739 4159) translate(-385 158)" filter="url(#c)"><path stroke="none" d="M748 64h259v349H748a3 3 0 0 1-3-3V67a3 3 0 0 1 3-3z"/><path fill="none" d="M748 64.5h258a.5.5 0 0 1 .5.5v347a.5.5 0 0 1-.5.5H748a2.5 2.5 0 0 1-2.5-2.5V67a2.5 2.5 0 0 1 2.5-2.5z"/></g><g fill="#06c"><path d="M1269 4688l-1.5 1.5 4.5 4.5h-10v2h10l-4.5 4.5 1.5 1.5 7-7z"/><text transform="translate(1123 4701)" font-size="18" font-family="RedHatDisplay-Bold, Red Hat Display" font-weight="700"><tspan x="0" y="0">Get the e-book</tspan></text></g><text fill="#151515" transform="translate(739 4159) translate(384 415)" font-size="16" font-family="RedHatText-Regular, Red Hat Text"><tspan x="0" y="16">This book shows you how</tspan><tspan x="0" y="40">Operators work and how to</tspan><tspan x="0" y="64">build them with the Operator</tspan><tspan x="0" y="88">Framework and SDK.</tspan></text><text fill="#151515" transform="translate(739 4159) translate(384 321)" font-size="20" font-family="RedHatDisplay-Medium, Red Hat Display" font-weight="500"><tspan x="0" y="20">Automating the</tspan><tspan x="0" y="46">container orchestration</tspan><tspan x="0" y="72">platform</tspan></text><text fill="#151515" transform="translate(739 4159) translate(384 300)" font-size="16" font-family="RedHatText-Regular, Red Hat Text"><tspan x="0" y="0">E-BOOK</tspan></text><path fill="none" d="M1123 4405h14v14h-14z"/><path fill="#6a6e73" d="M1131.9 4412l2.84-2.84a.9.9 0 0 0 0-1.27l-.63-.64a.9.9 0 0 0-1.25 0l-2.85 2.84-2.84-2.84a.9.9 0 0 0-1.27 0l-.64.63a.9.9 0 0 0 0 1.26l2.84 2.84-2.84 2.84a.9.9 0 0 0 0 1.27l.63.64a.9.9 0 0 0 1.26 0l2.84-2.84 2.84 2.84a.9.9 0 0 0 1.27 0l.64-.63a.9.9 0 0 0 0-1.25z"/></g></svg>