<svg xmlns="http://www.w3.org/2000/svg" xmlns:xlink="http://www.w3.org/1999/xlink" width="372" height="643" viewBox="0 0 372 643"><defs><filter id="a" x="0" y="481" width="372" height="162" filterUnits="userSpaceOnUse"><feOffset dy="-3" input="SourceAlpha"/><feGaussianBlur stdDeviation="2" result="b"/><feFlood flood-opacity="0.102"/><feComposite operator="in" in2="b"/><feComposite in="SourceGraphic"/></filter></defs><g transform="translate(-354 -6017)"><g transform="translate(44 6285)"><g transform="matrix(1, 0, 0, 1, 310, -268)" filter="url(#a)"><rect width="360" height="150" transform="translate(6 490)" fill="#fff"/></g><g transform="translate(-210 -10)"><rect width="14" height="14" transform="translate(856 248)" fill="none"/><path d="M6.9,85l2.843-2.843a.894.894,0,0,0,0-1.264l-.632-.632a.894.894,0,0,0-1.264,0L5,83.1,2.157,80.262a.894.894,0,0,0-1.264,0l-.632.632a.894.894,0,0,0,0,1.264L3.1,85,.262,87.843a.894.894,0,0,0,0,1.264l.632.632a.894.894,0,0,0,1.264,0L5,86.9l2.843,2.843a.894.894,0,0,0,1.264,0l.632-.632a.894.894,0,0,0,0-1.264Z" transform="translate(858 170)" fill="#6a6e73"/></g><g transform="translate(-397 74)"><path d="M7,0,5.5,1.5,10,6H0V8H10L5.5,12.5,7,14l7-7Z" transform="translate(814 264)" fill="#06c"/><text transform="translate(729 277)" fill="#06c" font-size="18" font-family="RedHatDisplay-Bold, Red Hat Display" font-weight="700"><tspan x="0" y="0">Show me</tspan></text></g><g transform="translate(-299 -29)"><text transform="translate(631 301)" fill="#151515" font-size="16" font-family="RedHatText-Regular, Red Hat Text"><tspan x="0" y="16">Learn about hybrid cloud and how to get </tspan><tspan x="0" y="40">started.</tspan></text><text transform="translate(631 287)" fill="#151515" font-size="20" font-family="RedHatDisplay-Medium, Red Hat Display" font-weight="500"><tspan x="0" y="0">Interested in cloud?</tspan></text></g></g><g transform="translate(0 438)" opacity="0.03"><rect width="16" height="640" transform="translate(704 5579)" fill="blue" opacity="0.75"/><rect width="328" height="640" transform="translate(376 5579)" fill="red" opacity="0.75"/><rect width="16" height="640" transform="translate(360 5579)" fill="blue" opacity="0.75"/></g></g></svg>