<svg xmlns="http://www.w3.org/2000/svg" width="1012" height="608"><defs><filter id="a" x="0" y="468" width="1012" height="140" filterUnits="userSpaceOnUse"><feOffset dy="-3"/><feGaussianBlur stdDeviation="2" result="blur"/><feFlood flood-opacity=".102"/><feComposite operator="in" in2="blur"/><feComposite in="SourceGraphic"/></filter><filter id="c" x="739" y="61" width="274" height="361" filterUnits="userSpaceOnUse"><feOffset dy="3"/><feGaussianBlur stdDeviation="2" result="blur-2"/><feFlood flood-opacity=".102"/><feComposite operator="in" in2="blur-2"/><feComposite in="SourceGraphic"/></filter><clipPath id="b"><path data-name="Rectangle" d="M3 0h994a3 3 0 013 3v599a3 3 0 01-3 3H0V3a3 3 0 013-3z" transform="translate(360 4317)" fill="none"/></clipPath></defs><g data-name="Example (outlined)"><path data-name="Rectangle" d="M9 0h994a3 3 0 013 3v602H6V3a3 3 0 013-3z" fill="#f0f0f0"/><g data-name="Sticky banner"><g filter="url(#a)"><path data-name="Rectangle" fill="#fff" d="M6 477h1000v128H6z"/></g><path data-name="Rectangle" fill="none" d="M976 493h14v14h-14z"/><path d="M984.9 500l2.843-2.843a.894.894 0 000-1.264l-.632-.632a.894.894 0 00-1.264 0L983 498.1l-2.843-2.838a.894.894 0 00-1.264 0l-.632.632a.894.894 0 000 1.264L981.1 500l-2.838 2.843a.894.894 0 000 1.264l.632.632a.894.894 0 001.264 0L983 501.9l2.843 2.843a.894.894 0 001.264 0l.632-.632a.894.894 0 000-1.264z" fill="#6a6e73"/><g data-name="Call to action" transform="translate(-381 235)"><rect data-name="Rectangle" width="133" height="56" rx="3" transform="translate(1122 278)" fill="#e00"/><path d="M1154.048 310.224a7.425 7.425 0 004.96 1.936c2.88 0 4.72-1.392 4.72-3.584 0-1.728-1.1-2.784-3.344-3.152l-2.112-.352c-1.152-.176-1.6-.528-1.6-1.216 0-.768.8-1.264 2.048-1.264a5.7 5.7 0 013.536 1.344l1.244-1.728a7.781 7.781 0 00-4.62-1.568c-2.72 0-4.416 1.3-4.416 3.392 0 1.632 1.008 2.672 2.928 2.992l2.224.384c1.328.224 1.84.608 1.84 1.376 0 .864-.9 1.408-2.288 1.408a5.548 5.548 0 01-3.792-1.632zm10.928 1.776h2.192v-5.776a2 2 0 011.712-.832 1.625 1.625 0 011.728 1.744V312h2.192v-5.184a3.163 3.163 0 00-3.3-3.316 3.578 3.578 0 00-2.336.816v-4l-2.192.48zm9.1-4.16a4.332 4.332 0 004.452 4.32 4.332 4.332 0 004.448-4.32 4.345 4.345 0 00-4.448-4.34 4.345 4.345 0 00-4.448 4.34zm4.448 2.416a2.341 2.341 0 01-2.3-2.416 2.345 2.345 0 012.3-2.432 2.335 2.335 0 012.3 2.432 2.341 2.341 0 01-2.296 2.416zm9.332 1.744l1.616-5.328 1.616 5.328h2.1l2.3-8.336h-2.048l-1.376 5.392-1.648-5.392h-1.84l-1.664 5.392-1.376-5.392h-2.08l2.288 8.336zm11.872 0h2.192v-5.856a1.86 1.86 0 011.552-.752 1.556 1.556 0 011.568 1.744V312h2.192v-5.184a3.548 3.548 0 00-.048-.592 1.877 1.877 0 011.6-.832 1.556 1.556 0 011.568 1.744V312h2.192v-5.184a3.11 3.11 0 00-3.184-3.316 3.43 3.43 0 00-2.752 1.248 2.992 2.992 0 00-2.508-1.248 3.242 3.242 0 00-2.176.784v-.624h-2.196zm21.972-1.04l-1.44-1.312a2.624 2.624 0 01-1.84.672 2.4 2.4 0 01-2.368-1.744h6.208V308a4.207 4.207 0 00-4.128-4.48 4.255 4.255 0 00-4.292 4.32 4.34 4.34 0 004.48 4.32 5 5 0 003.38-1.2zm-3.62-5.632a2.151 2.151 0 012.032 1.68h-4.08a2.094 2.094 0 012.048-1.68z" fill="#fff"/></g><g fill="#151515"><path data-name="Path" d="M332.424 564h7.552v-1.088h-6.32V552.8h-1.232zm15.568-.9l-.736-.784a3.191 3.191 0 01-2.144.8 2.845 2.845 0 01-2.784-2.768h6.128V560a3.689 3.689 0 00-3.584-3.936 3.8 3.8 0 00-3.68 4.036 3.9 3.9 0 003.872 4.044 4.558 4.558 0 002.928-1.044zm-3.136-6.028a2.579 2.579 0 012.444 2.448h-4.94a2.608 2.608 0 012.496-2.448zm7.888 7.072a3.352 3.352 0 002.48-1.056V564h1.152v-5.184c0-1.776-1.088-2.752-3.024-2.752a6.689 6.689 0 00-2.944.752l.432.9a5.156 5.156 0 012.368-.672 1.758 1.758 0 012.016 1.936v1.072a4.521 4.521 0 00-2.384-.612c-1.76 0-2.928.928-2.928 2.32 0 1.408 1.168 2.384 2.832 2.384zm-1.712-2.416c0-.864.784-1.44 1.984-1.44a4.122 4.122 0 012.208.56v1.5a3.091 3.091 0 01-2.24.9c-1.168 0-1.952-.608-1.952-1.52zm7.712 2.272h1.168v-5.344a2.226 2.226 0 012.1-1.584 2.919 2.919 0 01.816.144v-1.056a2.217 2.217 0 00-.736-.112 2.332 2.332 0 00-2.176 1.728v-1.584h-1.172zm5.632 0h1.168v-5.76a2.3 2.3 0 012.048-1.2 2.024 2.024 0 012.1 2.24V564h1.168v-5.056a2.717 2.717 0 00-2.832-2.88 2.813 2.813 0 00-2.48 1.392v-1.264h-1.172zm14.976.144a3.352 3.352 0 002.48-1.056V564h1.152v-5.184c0-1.776-1.088-2.752-3.024-2.752a6.689 6.689 0 00-2.944.752l.432.9a5.156 5.156 0 012.368-.672 1.758 1.758 0 012.016 1.936v1.072a4.521 4.521 0 00-2.384-.608c-1.76 0-2.928.928-2.928 2.32 0 1.404 1.168 2.38 2.832 2.38zm-1.712-2.416c0-.864.784-1.44 1.984-1.44a4.122 4.122 0 012.208.56v1.5a3.091 3.091 0 01-2.24.9c-1.168 0-1.952-.608-1.952-1.52zm14.992-1.628a3.768 3.768 0 00-3.6-4 3.146 3.146 0 00-2.512 1.164v-4.944l-1.168.24V564h1.148v-1.024a3.161 3.161 0 002.468 1.136 3.8 3.8 0 003.664-4.012zm-3.888-2.98a2.8 2.8 0 012.736 2.992 2.8 2.8 0 01-2.736 2.988 2.744 2.744 0 01-2.224-1.084v-3.824a2.666 2.666 0 012.224-1.072zm5.6 2.976a3.867 3.867 0 003.792 4.064 3.86 3.86 0 003.808-4.06 3.832 3.832 0 00-3.808-4.032 3.829 3.829 0 00-3.792 4.032zm3.792 3.024a2.753 2.753 0 01-2.636-3.008 2.777 2.777 0 012.64-3.024 2.789 2.789 0 012.656 3.024 2.774 2.774 0 01-2.66 3.008zm6.992-6.928h-1.184v5.04a2.73 2.73 0 002.832 2.9 2.8 2.8 0 002.48-1.392V564h1.168v-7.808h-1.168v5.776a2.318 2.318 0 01-2.048 1.184 2.017 2.017 0 01-2.08-2.252zm8.624 6.048c0 1.248.7 1.9 2.048 1.9a4.386 4.386 0 001.36-.208V562.9a2.8 2.8 0 01-1.1.208c-.816 0-1.136-.336-1.136-1.168v-4.788h2.24v-.96h-2.244v-2.416l-1.168.272v2.144h-1.616v.96h1.616zM422.6 564h1.168v-5.76a2.3 2.3 0 012.048-1.2 2.024 2.024 0 012.1 2.24V564h1.164v-5.056a2.717 2.717 0 00-2.832-2.88 2.813 2.813 0 00-2.48 1.392v-5.136l-1.168.24zm10.208 1.248c-.288.7-.656.992-1.248.992a2.719 2.719 0 01-.64-.064v1.04a2.679 2.679 0 00.752.112c1.152 0 1.744-.464 2.24-1.728l3.872-9.408h-1.3l-2.512 6.416-2.368-6.416h-1.3l3.016 7.792zm13.712-5.148a3.768 3.768 0 00-3.6-4 3.146 3.146 0 00-2.512 1.168v-4.948l-1.168.24V564h1.152v-1.024a3.161 3.161 0 002.464 1.136 3.8 3.8 0 003.664-4.012zm-3.888-2.98a2.8 2.8 0 012.736 2.992 2.8 2.8 0 01-2.736 2.988 2.744 2.744 0 01-2.224-1.088v-3.82a2.666 2.666 0 012.224-1.072zm5.936 6.88h1.168v-5.344a2.226 2.226 0 012.1-1.584 2.919 2.919 0 01.816.144v-1.056a2.217 2.217 0 00-.736-.112 2.332 2.332 0 00-2.176 1.728v-1.584h-1.168zm6.224-9.728a.83.83 0 00.832-.848.847.847 0 00-.832-.832.85.85 0 00-.848.832.834.834 0 00.848.848zm.576 1.92H454.2V564h1.168zm8.144 7.808h1.168v-11.68l-1.168.24v4.624a3.18 3.18 0 00-2.432-1.084 3.8 3.8 0 00-3.664 4.016 3.768 3.768 0 003.6 4 3.077 3.077 0 002.5-1.152zm-4.944-3.9a2.787 2.787 0 012.732-2.98 2.8 2.8 0 012.208 1.056v3.872a2.674 2.674 0 01-2.208 1.04 2.8 2.8 0 01-2.732-2.988zm15.808 2.988a2.832 2.832 0 01-2.752-2.988 2.835 2.835 0 012.736-2.98 3.069 3.069 0 012.208.976l.752-.816a4.259 4.259 0 00-3.008-1.216 3.9 3.9 0 00-3.856 4.036 3.913 3.913 0 003.856 4.044 4.061 4.061 0 002.96-1.264l-.72-.72a2.876 2.876 0 01-2.176.928zm5.744-10.768l-1.168.24V564h1.168zm2.048 7.78a3.867 3.867 0 003.792 4.06 3.86 3.86 0 003.808-4.06 3.832 3.832 0 00-3.808-4.032 3.829 3.829 0 00-3.792 4.032zm3.792 3.02a2.753 2.753 0 01-2.64-3.008 2.777 2.777 0 012.64-3.024 2.789 2.789 0 012.656 3.024 2.774 2.774 0 01-2.656 3.008zm6.992-6.928h-1.184v5.04a2.73 2.73 0 002.832 2.896 2.8 2.8 0 002.48-1.392V564h1.168v-7.808h-1.168v5.776a2.318 2.318 0 01-2.048 1.184 2.017 2.017 0 01-2.08-2.256zm13.44 7.808h1.168v-11.68l-1.168.24v4.624a3.18 3.18 0 00-2.432-1.084 3.8 3.8 0 00-3.66 4.012 3.768 3.768 0 003.6 4 3.077 3.077 0 002.5-1.152zm-4.944-3.9a2.787 2.787 0 012.736-2.976 2.8 2.8 0 012.208 1.056v3.872a2.674 2.674 0 01-2.208 1.04 2.8 2.8 0 01-2.736-2.992zm14.652 4.044a3.352 3.352 0 002.48-1.056V564h1.152v-5.184c0-1.776-1.088-2.752-3.024-2.752a6.689 6.689 0 00-2.944.752l.432.9a5.156 5.156 0 012.368-.672 1.758 1.758 0 012.016 1.936v1.072a4.521 4.521 0 00-2.38-.612c-1.76 0-2.928.928-2.928 2.32 0 1.408 1.168 2.384 2.828 2.384zm-1.712-2.416c0-.864.784-1.44 1.984-1.44a4.122 4.122 0 012.208.56v1.5a3.091 3.091 0 01-2.24.9c-1.164 0-1.948-.608-1.948-1.52zM522.1 564h1.168v-5.76a2.3 2.3 0 012.048-1.2 2.024 2.024 0 012.1 2.24V564h1.168v-5.056a2.717 2.717 0 00-2.832-2.88 2.813 2.813 0 00-2.48 1.392v-1.264H522.1zm14.58 0h1.168v-11.68l-1.168.24v4.624a3.18 3.18 0 00-2.432-1.084 3.8 3.8 0 00-3.664 4.016 3.768 3.768 0 003.6 4 3.077 3.077 0 002.5-1.152zm-4.944-3.9a2.787 2.787 0 012.736-2.976 2.8 2.8 0 012.208 1.056v3.872a2.674 2.674 0 01-2.208 1.04 2.8 2.8 0 01-2.736-2.992zm12.24 3.9h1.168v-5.76a2.3 2.3 0 012.048-1.2 2.024 2.024 0 012.1 2.24V564h1.168v-5.056a2.717 2.717 0 00-2.832-2.88 2.813 2.813 0 00-2.48 1.392v-5.136l-1.168.24zm8.48-3.9a3.867 3.867 0 003.792 4.06 3.86 3.86 0 003.808-4.06 3.832 3.832 0 00-3.808-4.032 3.829 3.829 0 00-3.792 4.032zm3.792 3.02a2.753 2.753 0 01-2.64-3.008 2.777 2.777 0 012.64-3.024 2.789 2.789 0 012.652 3.024 2.774 2.774 0 01-2.652 3.008zm8.24.88l1.856-6.3 1.856 6.3h1.136l2.128-7.808h-1.1l-1.616 6.24-1.872-6.24h-1.04l-1.872 6.24-1.632-6.24h-1.136l2.14 7.808zm13.28-1.76c0 1.248.7 1.9 2.048 1.9a4.386 4.386 0 001.36-.208V562.9a2.8 2.8 0 01-1.1.208c-.816 0-1.136-.336-1.136-1.168v-4.788h2.24v-.96h-2.24v-2.416l-1.168.272v2.144h-1.616v.96h1.616zm4.576-2.14a3.867 3.867 0 003.792 4.06 3.86 3.86 0 003.808-4.06 3.832 3.832 0 00-3.808-4.032 3.829 3.829 0 00-3.792 4.032zm3.792 3.02a2.753 2.753 0 01-2.64-3.008 2.777 2.777 0 012.64-3.024 2.789 2.789 0 012.656 3.024 2.774 2.774 0 01-2.656 3.008zm12.832.98a3.077 3.077 0 002.5-1.152v1.468c0 1.312-.752 2-2.176 2a5.25 5.25 0 01-2.5-.72l-.5.9a6.262 6.262 0 003.04.816c2.128 0 3.3-1.072 3.3-3.008v-8.212h-1.152v1.008a3.151 3.151 0 00-2.448-1.1 3.8 3.8 0 00-3.664 4 3.768 3.768 0 003.6 4zm-2.448-4a2.787 2.787 0 012.736-2.976 2.8 2.8 0 012.208 1.056v3.856a2.687 2.687 0 01-2.208 1.056 2.8 2.8 0 01-2.736-2.992zm14.96 3l-.736-.784a3.19 3.19 0 01-2.144.8 2.845 2.845 0 01-2.784-2.768h6.128V560a3.689 3.689 0 00-3.584-3.936 3.8 3.8 0 00-3.68 4.036 3.9 3.9 0 003.872 4.044 4.558 4.558 0 002.928-1.044zm-3.136-6.032a2.579 2.579 0 012.448 2.448h-4.944a2.608 2.608 0 012.496-2.444zm6.288 5.168c0 1.248.7 1.9 2.048 1.9a4.386 4.386 0 001.36-.208V562.9a2.8 2.8 0 01-1.1.208c-.816 0-1.136-.336-1.136-1.168v-4.788h2.24v-.96H615.8v-2.416l-1.168.272v2.144h-1.616v.96h1.616zm8.1.752a4.451 4.451 0 003.168 1.156c1.728 0 3.04-1.056 3.04-2.416 0-1.152-.7-1.808-2.272-2.1l-1.312-.24c-1.008-.176-1.344-.48-1.344-1.12 0-.768.672-1.248 1.7-1.248a4.142 4.142 0 012.448.832l.576-.816a5.048 5.048 0 00-2.976-.976c-1.648 0-2.816.944-2.816 2.288 0 1.136.688 1.776 2.208 2.048l1.28.224c.992.192 1.408.528 1.408 1.168 0 .816-.832 1.408-1.968 1.408a4.072 4.072 0 01-2.512-.976zm8.752-.752c0 1.248.7 1.9 2.048 1.9a4.386 4.386 0 001.36-.208V562.9a2.8 2.8 0 01-1.1.208c-.816 0-1.136-.336-1.136-1.168v-4.788h2.24v-.96h-2.24v-2.416l-1.168.272v2.144h-1.616v.96h1.616zm7.536 1.9a3.352 3.352 0 002.48-1.048V564h1.152v-5.184c0-1.776-1.088-2.752-3.024-2.752a6.689 6.689 0 00-2.944.752l.432.9a5.156 5.156 0 012.368-.672 1.758 1.758 0 012.016 1.932v1.072a4.521 4.521 0 00-2.384-.608c-1.76 0-2.928.928-2.928 2.32-.004 1.408 1.164 2.384 2.828 2.384zm-1.72-2.408c0-.864.784-1.44 1.984-1.44a4.122 4.122 0 012.208.56v1.5a3.091 3.091 0 01-2.24.9c-1.164 0-1.952-.608-1.952-1.52zm7.716 2.272h1.168v-5.344a2.226 2.226 0 012.1-1.584 2.919 2.919 0 01.816.144v-1.056a2.217 2.217 0 00-.736-.112 2.332 2.332 0 00-2.176 1.728v-1.584h-1.168zm6.592-1.76c0 1.248.7 1.9 2.048 1.9a4.386 4.386 0 001.36-.208V562.9a2.8 2.8 0 01-1.1.208c-.816 0-1.136-.336-1.136-1.168v-4.788h2.24v-.96h-2.24v-2.416l-1.168.272v2.144h-1.616v.96h1.616zm11.376.86l-.736-.784a3.19 3.19 0 01-2.144.8 2.845 2.845 0 01-2.784-2.768h6.128V560a3.689 3.689 0 00-3.584-3.936 3.8 3.8 0 00-3.68 4.032 3.9 3.9 0 003.872 4.048 4.558 4.558 0 002.928-1.044zm-3.136-6.032a2.579 2.579 0 012.452 2.452h-4.944a2.608 2.608 0 012.492-2.448zm11.36 6.932h1.168v-11.68l-1.168.24v4.624a3.18 3.18 0 00-2.432-1.084 3.8 3.8 0 00-3.664 4.016 3.768 3.768 0 003.6 4 3.077 3.077 0 002.5-1.152zm-4.944-3.9a2.787 2.787 0 012.736-2.98 2.8 2.8 0 012.208 1.056v3.872a2.674 2.674 0 01-2.208 1.04 2.8 2.8 0 01-2.736-2.988zm9.072 2.288a.857.857 0 00-.848.864.861.861 0 00.848.88.858.858 0 00.832-.88.854.854 0 00-.832-.868zM332.42 534h2.1v-14h-2.1zm4.72 0h2v-7.32a2.877 2.877 0 012.52-1.32 2.369 2.369 0 012.52 2.58V534h2v-6.4a3.8 3.8 0 00-3.98-3.98 4.192 4.192 0 00-3.06 1.22v-1.02h-2zm12.26-2.52c0 1.76 1.06 2.7 3.04 2.7a6.624 6.624 0 001.9-.3v-1.68a3.929 3.929 0 01-1.46.24c-1.08 0-1.5-.38-1.5-1.42v-5.52h3v-1.68h-3v-3.08l-1.98.48v2.6h-2.16v1.68h2.16zm15.06 1.36l-1.28-1.26a3.96 3.96 0 01-2.58.9 3.434 3.434 0 01-3.44-2.92h8.04v-.58a5.041 5.041 0 00-4.92-5.32 5.115 5.115 0 00-5.1 5.24 5.238 5.238 0 005.34 5.28 6.072 6.072 0 003.94-1.34zm-4.22-7.5a3.149 3.149 0 012.98 2.72h-6.04a3.126 3.126 0 013.06-2.72zm6.86 8.66h2v-6.8a2.779 2.779 0 012.64-1.86 3.425 3.425 0 011.18.22v-1.8a2.541 2.541 0 00-1.02-.16 3.186 3.186 0 00-2.8 1.52v-1.3h-2zm15.62-1.16l-1.28-1.26a3.96 3.96 0 01-2.58.9 3.434 3.434 0 01-3.44-2.92h8.04v-.58a5.041 5.041 0 00-4.92-5.32 5.115 5.115 0 00-5.1 5.24 5.238 5.238 0 005.34 5.28 6.072 6.072 0 003.94-1.34zm-4.22-7.5a3.149 3.149 0 012.98 2.72h-6.04a3.126 3.126 0 013.06-2.72zm6 7.34a6.714 6.714 0 004.46 1.5c2.42 0 4.26-1.38 4.26-3.2 0-1.58-1.06-2.54-3.08-2.84l-1.84-.26c-1.2-.18-1.68-.54-1.68-1.28 0-.82.82-1.38 2.04-1.38a5.659 5.659 0 013.22 1.06l1.02-1.32a6.981 6.981 0 00-4.1-1.3c-2.38 0-3.98 1.24-3.98 3.08 0 1.58 1.02 2.52 3.04 2.82l1.84.26c1.12.16 1.64.58 1.64 1.3 0 .9-1 1.52-2.44 1.52a5.335 5.335 0 01-3.32-1.28zm11.38-1.2c0 1.76 1.06 2.7 3.04 2.7a6.624 6.624 0 001.9-.3v-1.68a3.929 3.929 0 01-1.46.24c-1.08 0-1.5-.38-1.5-1.42v-5.52h3v-1.68h-3v-3.08l-1.98.48v2.6h-2.16v1.68h2.16zm15.06 1.36l-1.28-1.26a3.96 3.96 0 01-2.58.9 3.434 3.434 0 01-3.44-2.92h8.04v-.58a5.041 5.041 0 00-4.92-5.32 5.115 5.115 0 00-5.1 5.24 5.238 5.238 0 005.34 5.28 6.072 6.072 0 003.94-1.34zm-4.22-7.5a3.149 3.149 0 012.98 2.72h-6.04a3.126 3.126 0 013.06-2.72zm14.7 8.66h1.98v-14.44l-2 .44v4.66a5.186 5.186 0 00-3.06-1 5.144 5.144 0 00-5.18 5.24 5.141 5.141 0 005.14 5.26 4.808 4.808 0 003.12-1.12zm-6.3-5.12a3.408 3.408 0 013.46-3.5 3.722 3.722 0 012.82 1.2v4.62a3.668 3.668 0 01-2.82 1.22 3.442 3.442 0 01-3.46-3.54zm15.82-6.7a1.246 1.246 0 001.24-1.24 1.246 1.246 0 00-1.24-1.24 1.229 1.229 0 00-1.22 1.24 1.229 1.229 0 001.22 1.24zm1 1.64h-2V534h2zM434.3 534h2v-7.32a2.877 2.877 0 012.52-1.32 2.369 2.369 0 012.52 2.58V534h2v-6.4a3.8 3.8 0 00-3.98-3.98 4.192 4.192 0 00-3.06 1.22v-1.02h-2zm20.38-1.58a3.377 3.377 0 01-3.34-3.52 3.364 3.364 0 013.3-3.5 3.784 3.784 0 012.8 1.28l1.26-1.36a5.779 5.779 0 00-4.1-1.7 5.2 5.2 0 00-5.24 5.28 5.191 5.191 0 005.24 5.28 5.63 5.63 0 004.02-1.7l-1.2-1.3a3.71 3.71 0 01-2.74 1.24zm7.56-12.86l-2 .44v14h2zm1.9 9.34a5.246 5.246 0 005.3 5.3 5.229 5.229 0 005.28-5.3 5.225 5.225 0 00-5.28-5.28 5.242 5.242 0 00-5.3 5.28zm5.3 3.54a3.406 3.406 0 01-3.34-3.54 3.4 3.4 0 013.34-3.52 3.4 3.4 0 013.32 3.52 3.416 3.416 0 01-3.32 3.54zm9.14-8.62h-2v6.38a3.8 3.8 0 003.96 4 4.16 4.16 0 003.06-1.22V534h2v-10.18h-2v7.3a2.86 2.86 0 01-2.5 1.34 2.385 2.385 0 01-2.52-2.6zM495.76 534h1.98v-14.44l-2 .44v4.66a5.187 5.187 0 00-3.06-1 5.144 5.144 0 00-5.18 5.24 5.141 5.141 0 005.14 5.26 4.808 4.808 0 003.12-1.12zm-6.3-5.12a3.408 3.408 0 013.46-3.5 3.722 3.722 0 012.82 1.2v4.62a3.668 3.668 0 01-2.82 1.22 3.442 3.442 0 01-3.46-3.54zm16.66-1.98c1.82-1.24 2.4-2.1 2.4-3.5 0-2.04-1.92-3.58-4.46-3.58a5.593 5.593 0 00-4.84 2.66l1.58.84a3.77 3.77 0 013.16-1.78c1.46 0 2.6.84 2.6 1.94 0 .76-.4 1.32-1.42 2.06l-.94.68a3.7 3.7 0 00-1.6 3.74h1.72a2.591 2.591 0 011.18-2.62zm-2.66 4.72a1.255 1.255 0 00-1.26 1.26 1.272 1.272 0 001.26 1.28 1.289 1.289 0 001.28-1.28 1.272 1.272 0 00-1.28-1.26z"/></g><g data-name="Image thumbnail" transform="translate(-383 -189)"><rect data-name="Rectangle" width="160" height="80" rx="3" transform="translate(522 690)" fill="#f0f0f0"/><path data-name="Path" d="M550.218 735h1.082v-9.8h-1.082zm3.5 0h1.022v-5.082a1.872 1.872 0 011.666-1.008 1.7 1.7 0 011.694 1.932V735h1.022v-4.41a2.834 2.834 0 00-.056-.6 1.9 1.9 0 011.708-1.08c1.036 0 1.68.742 1.68 1.932V735h1.022v-4.41a2.325 2.325 0 00-2.324-2.534 2.524 2.524 0 00-2.282 1.33 2.245 2.245 0 00-2.1-1.33 2.34 2.34 0 00-2.03 1.176v-1.064h-1.022zm14.082.126a2.933 2.933 0 002.172-.926v.8h1.008v-4.536c0-1.554-.952-2.408-2.646-2.408a5.853 5.853 0 00-2.576.658l.378.784a4.511 4.511 0 012.072-.588 1.538 1.538 0 011.764 1.69v.938a3.956 3.956 0 00-2.086-.532c-1.54 0-2.562.812-2.562 2.03a2.206 2.206 0 002.476 2.09zm-1.5-2.114c0-.756.686-1.26 1.736-1.26a3.607 3.607 0 011.932.49v1.316a2.7 2.7 0 01-1.96.784c-1.018 0-1.708-.532-1.708-1.33zm9.734 2.072a2.692 2.692 0 002.184-1.008v1.288c0 1.148-.658 1.75-1.9 1.75a4.594 4.594 0 01-2.184-.63l-.434.784a5.479 5.479 0 002.66.714c1.862 0 2.884-.938 2.884-2.632v-7.182h-1.012v.882a2.757 2.757 0 00-2.142-.966 3.323 3.323 0 00-3.206 3.5 3.3 3.3 0 003.15 3.5zm-2.142-3.5a2.438 2.438 0 012.394-2.6 2.45 2.45 0 011.932.924v3.374a2.351 2.351 0 01-1.932.918 2.451 2.451 0 01-2.394-2.616zm13.23 2.632l-.644-.686a2.792 2.792 0 01-1.876.7 2.49 2.49 0 01-2.436-2.422h5.362v-.308a3.228 3.228 0 00-3.136-3.444 3.325 3.325 0 00-3.22 3.528 3.41 3.41 0 003.388 3.542 3.989 3.989 0 002.562-.91zm-2.744-5.278a2.256 2.256 0 012.142 2.142h-4.326a2.282 2.282 0 012.184-2.142zm9.254 4.522c0 1.092.616 1.666 1.792 1.666a3.837 3.837 0 001.19-.182v-.91a2.454 2.454 0 01-.966.182c-.714 0-.994-.294-.994-1.022v-4.186h1.96v-.84h-1.96v-2.114l-1.022.238v1.876h-1.414v.84h1.414zm4.62 1.54h1.022v-5.04a2.014 2.014 0 011.792-1.05 1.771 1.771 0 011.834 1.96V735h1.022v-4.424a2.378 2.378 0 00-2.478-2.52 2.462 2.462 0 00-2.17 1.218v-4.494l-1.022.21zm8.792-6.832h-1.036v4.41a2.389 2.389 0 002.478 2.534 2.446 2.446 0 002.17-1.218V735h1.022v-6.832h-1.022v5.054a2.028 2.028 0 01-1.792 1.036 1.765 1.765 0 01-1.82-1.974zm6.874 6.832h1.022v-5.082a1.872 1.872 0 011.666-1.008 1.7 1.7 0 011.694 1.932V735h1.022v-4.41a2.834 2.834 0 00-.056-.6 1.9 1.9 0 011.708-1.08c1.036 0 1.68.742 1.68 1.932V735h1.022v-4.41a2.325 2.325 0 00-2.324-2.534 2.524 2.524 0 00-2.282 1.33 2.245 2.245 0 00-2.1-1.33 2.34 2.34 0 00-2.03 1.176v-1.064h-1.022zm18.34-3.416a3.3 3.3 0 00-3.15-3.5 2.753 2.753 0 00-2.2 1.022v-4.326l-1.022.21V735h1.014v-.9a2.766 2.766 0 002.152 1 3.327 3.327 0 003.206-3.516zm-3.4-2.6a2.451 2.451 0 012.392 2.616 2.451 2.451 0 01-2.394 2.616 2.4 2.4 0 01-1.946-.952v-3.346a2.333 2.333 0 011.946-.938zM634.19 735h1.022v-5.04a2.014 2.014 0 011.788-1.05 1.771 1.771 0 011.834 1.96V735h1.026v-4.424a2.378 2.378 0 00-2.478-2.52 2.462 2.462 0 00-2.17 1.218v-1.106h-1.022zm9.982.126a2.933 2.933 0 002.17-.926v.8h1.008v-4.536c0-1.554-.952-2.408-2.646-2.408a5.853 5.853 0 00-2.576.658l.378.784a4.511 4.511 0 012.072-.588 1.538 1.538 0 011.764 1.69v.938a3.956 3.956 0 00-2.086-.532c-1.54 0-2.562.812-2.562 2.03a2.206 2.206 0 002.478 2.09zm-1.5-2.114c0-.756.686-1.26 1.736-1.26a3.606 3.606 0 011.932.49v1.316a2.7 2.7 0 01-1.96.784c-1.02 0-1.706-.532-1.706-1.33zm7.406-6.524a.726.726 0 00.728-.742.741.741 0 00-.728-.728.744.744 0 00-.742.728.729.729 0 00.744.742zm.5 1.68h-1.022V735h1.022zm3.262-3.388l-1.022.21V735h1.022z" fill="#6a6e73"/></g></g><g data-name="Clip mask" clip-path="url(#b)" transform="translate(-354 -4317)"><g data-name="Sticky card"><g transform="translate(354 4317)" filter="url(#c)"><g data-name="Rectangle" fill="#fff" stroke="#d2d2d2"><path d="M748 64h259v349H748a3 3 0 01-3-3V67a3 3 0 013-3z" stroke="none"/><path d="M748 64.5h258a.5.5 0 01.5.5v347a.5.5 0 01-.5.5H748a2.5 2.5 0 01-2.5-2.5V67a2.5 2.5 0 012.5-2.5z" fill="none"/></g></g><g data-name="Call to action" fill="#06c"><path d="M1269 4688l-1.5 1.5 4.5 4.5h-10v2h10l-4.5 4.5 1.5 1.5 7-7z"/><path data-name="Path" d="M1136.644 4694.718v-.792h-6.516v2.268h3.726a3.391 3.391 0 01-3.492 2.628 4 4 0 01-4.032-4.122 3.939 3.939 0 013.96-4.1 4.349 4.349 0 013.42 1.638l1.818-1.674a6.756 6.756 0 00-5.238-2.364 6.494 6.494 0 00-6.642 6.5 6.514 6.514 0 006.678 6.5 6.221 6.221 0 006.318-6.482zm10.026 5.112l-1.62-1.476a2.952 2.952 0 01-2.07.756 2.7 2.7 0 01-2.664-1.962h6.984v-.648a4.733 4.733 0 00-4.644-5.04 4.787 4.787 0 00-4.824 4.86 4.882 4.882 0 005.04 4.86 5.622 5.622 0 003.798-1.35zm-4.07-6.336a2.419 2.419 0 012.286 1.89h-4.586a2.355 2.355 0 012.3-1.89zm7.128 4.86c.002 1.836 1.082 2.79 3.172 2.79a7.651 7.651 0 001.908-.288v-2.016a3.794 3.794 0 01-1.314.216c-.954 0-1.3-.324-1.3-1.206v-4.158h2.666v-2.07h-2.66v-2.952l-2.466.558v2.394h-1.934v2.07h1.93zm11.25 0c0 1.836 1.08 2.79 3.168 2.79a7.651 7.651 0 001.908-.288v-2.016a3.794 3.794 0 01-1.314.216c-.954 0-1.3-.324-1.3-1.206v-4.158h2.67v-2.07h-2.664v-2.952l-2.466.558v2.394h-1.926v2.07h1.926zm6.356 2.646h2.466v-6.5a2.246 2.246 0 011.926-.936 1.829 1.829 0 011.944 1.964V4701h2.466v-5.832a3.558 3.558 0 00-3.708-3.726 4.026 4.026 0 00-2.628.918v-4.5l-2.466.54zm19.08-1.17l-1.62-1.476a2.952 2.952 0 01-2.07.756 2.7 2.7 0 01-2.664-1.962h6.984v-.648a4.733 4.733 0 00-4.644-5.04 4.787 4.787 0 00-4.824 4.86 4.882 4.882 0 005.04 4.86 5.622 5.622 0 003.798-1.35zm-4.068-6.336a2.419 2.419 0 012.286 1.89h-4.59a2.355 2.355 0 012.304-1.89zm18.234 6.336l-1.62-1.476a2.952 2.952 0 01-2.07.756 2.7 2.7 0 01-2.664-1.962h6.984v-.648a4.733 4.733 0 00-4.644-5.04 4.787 4.787 0 00-4.824 4.86 4.882 4.882 0 005.04 4.86 5.622 5.622 0 003.798-1.35zm-4.068-6.336a2.419 2.419 0 012.288 1.89h-4.59a2.355 2.355 0 012.302-1.89zm6.12 1.332v2.088h6.768v-2.088zm18.36 1.494a4.756 4.756 0 00-4.77-4.82 4.342 4.342 0 00-2.628.864v-4.5l-2.466.54V4701h2.43v-.63a4.8 4.8 0 002.592.756 4.768 4.768 0 004.842-4.806zm-5.166-2.72a2.686 2.686 0 012.736 2.72 2.675 2.675 0 01-2.736 2.718 3.158 3.158 0 01-2.232-.864v-3.69a3.024 3.024 0 012.232-.884zm6.318 2.72a4.873 4.873 0 005 4.86 4.873 4.873 0 005-4.86 4.888 4.888 0 00-5-4.878 4.888 4.888 0 00-5 4.878zm5 2.718a2.634 2.634 0 01-2.592-2.718 2.638 2.638 0 012.592-2.736 2.627 2.627 0 012.596 2.736 2.634 2.634 0 01-2.592 2.718zm6.156-2.718a4.873 4.873 0 005 4.86 4.873 4.873 0 005-4.86 4.888 4.888 0 00-5-4.878 4.888 4.888 0 00-5 4.878zm5 2.718a2.634 2.634 0 01-2.592-2.718 2.638 2.638 0 012.592-2.736 2.627 2.627 0 012.6 2.736 2.634 2.634 0 01-2.592 2.718zm6.524 1.962h2.466v-4.284l3.96 4.284h3.15l-4.662-5.076 4.392-4.3h-2.79l-4.05 3.96v-7.724l-2.466.54z"/></g><path data-name="Path" d="M1123.448 4579.888h3.872V4590h1.232v-10.112h3.856v-1.088h-8.96zm10.624 10.112h1.168v-5.76a2.3 2.3 0 012.048-1.2 2.024 2.024 0 012.1 2.24v4.72h1.168v-5.056a2.717 2.717 0 00-2.832-2.88 2.813 2.813 0 00-2.48 1.392v-5.136l-1.168.24zm9.428-9.728a.83.83 0 00.832-.848.84.84 0 00-1.68 0 .834.834 0 00.848.848zm.576 1.92h-1.176V4590h1.168zm1.648 6.8a4.451 4.451 0 003.168 1.152c1.728 0 3.04-1.056 3.04-2.416 0-1.152-.7-1.808-2.272-2.1l-1.312-.24c-1.008-.176-1.344-.48-1.344-1.12 0-.768.672-1.248 1.7-1.248a4.142 4.142 0 012.448.832l.576-.816a5.048 5.048 0 00-2.976-.976c-1.648 0-2.816.944-2.816 2.288 0 1.136.688 1.776 2.208 2.048l1.28.224c.992.192 1.408.528 1.408 1.168 0 .816-.832 1.408-1.968 1.408a4.072 4.072 0 01-2.512-.976zm18.992-2.9a3.768 3.768 0 00-3.6-4 3.146 3.146 0 00-2.516 1.172v-4.944l-1.168.24V4590h1.152v-1.024a3.161 3.161 0 002.464 1.136 3.8 3.8 0 003.664-4.012zm-3.892-2.972a2.8 2.8 0 012.736 2.992 2.8 2.8 0 01-2.736 2.988 2.744 2.744 0 01-2.224-1.084v-3.824a2.666 2.666 0 012.224-1.072zm5.6 2.976a3.809 3.809 0 107.6 0 3.807 3.807 0 10-7.6 0zm3.792 3.024a2.753 2.753 0 01-2.64-3.008 2.671 2.671 0 115.3 0 2.774 2.774 0 01-2.66 3.008zm5.52-3.024a3.809 3.809 0 107.6 0 3.807 3.807 0 10-7.6 0zm3.792 3.024a2.753 2.753 0 01-2.64-3.008 2.671 2.671 0 115.3 0 2.774 2.774 0 01-2.66 3.008zm5.856.88h1.168v-3.728l3.76 3.728h1.536l-4.148-4.1 3.968-3.712h-1.404l-3.712 3.5v-7.368l-1.168.24zm10.8-1.008a4.451 4.451 0 003.168 1.152c1.728 0 3.04-1.056 3.04-2.416 0-1.152-.7-1.808-2.272-2.1l-1.312-.24c-1.008-.176-1.344-.48-1.344-1.12 0-.768.672-1.248 1.7-1.248a4.142 4.142 0 012.448.832l.576-.816a5.048 5.048 0 00-2.976-.976c-1.648 0-2.816.944-2.816 2.288 0 1.136.688 1.776 2.208 2.048l1.28.224c.992.192 1.408.528 1.408 1.168 0 .816-.832 1.408-1.968 1.408a4.072 4.072 0 01-2.512-.976zm7.984 1.008h1.168v-5.76a2.3 2.3 0 012.048-1.2 2.024 2.024 0 012.1 2.24v4.72h1.168v-5.056a2.717 2.717 0 00-2.832-2.88 2.813 2.813 0 00-2.48 1.392v-5.136l-1.168.24zm8.48-3.9a3.809 3.809 0 107.6 0 3.807 3.807 0 10-7.6 0zm3.792 3.02a2.753 2.753 0 01-2.64-3.008 2.671 2.671 0 115.3 0 2.774 2.774 0 01-2.66 3.008zm8.24.88l1.856-6.3 1.856 6.3h1.136l2.128-7.808h-1.1l-1.616 6.24-1.872-6.24h-1.04l-1.872 6.24-1.636-6.24h-1.136l2.144 7.808zm7.872-1.008a4.451 4.451 0 003.168 1.152c1.728 0 3.04-1.056 3.04-2.416 0-1.152-.7-1.808-2.272-2.1l-1.312-.24c-1.008-.176-1.344-.48-1.344-1.12 0-.768.672-1.248 1.7-1.248a4.142 4.142 0 012.448.832l.576-.816a5.048 5.048 0 00-2.976-.976c-1.648 0-2.816.944-2.816 2.288 0 1.136.688 1.776 2.208 2.048l1.28.224c.992.192 1.408.528 1.408 1.168 0 .816-.832 1.408-1.968 1.408a4.072 4.072 0 01-2.512-.976zm13.248 2.256c-.288.7-.656.992-1.248.992a2.719 2.719 0 01-.64-.064v1.04a2.679 2.679 0 00.752.112c1.152 0 1.744-.464 2.24-1.728l3.872-9.408h-1.3l-2.512 6.416-2.364-6.416h-1.3l3.008 7.792zm5.84-5.152a3.809 3.809 0 107.6 0 3.807 3.807 0 10-7.6 0zm3.792 3.024a2.753 2.753 0 01-2.64-3.008 2.671 2.671 0 115.3 0 2.774 2.774 0 01-2.66 3.008zm6.992-6.928h-1.184v5.04a2.73 2.73 0 002.832 2.9 2.8 2.8 0 002.48-1.392v1.26h1.168v-7.808h-1.168v5.776a2.318 2.318 0 01-2.048 1.184 2.017 2.017 0 01-2.08-2.256zm11.424 7.808h1.168v-5.76a2.3 2.3 0 012.048-1.2 2.024 2.024 0 012.1 2.24v4.72h1.168v-5.056a2.717 2.717 0 00-2.832-2.88 2.813 2.813 0 00-2.48 1.392v-5.136l-1.168.24zm8.48-3.9a3.809 3.809 0 107.6 0 3.807 3.807 0 10-7.6 0zm3.792 3.024a2.753 2.753 0 01-2.64-3.008 2.671 2.671 0 115.3 0 2.774 2.774 0 01-2.66 3.004zm8.24.88l1.856-6.3 1.856 6.3h1.136l2.128-7.808h-1.1l-1.616 6.24-1.872-6.24h-1.048l-1.872 6.24-1.628-6.244h-1.136l2.144 7.808zm-159.312 18.396a5.62 5.62 0 00-5.568-5.776 5.78 5.78 0 000 11.552 5.62 5.62 0 005.568-5.776zm-1.248 0a4.426 4.426 0 01-4.32 4.656 4.435 4.435 0 01-4.32-4.656 4.435 4.435 0 014.32-4.656 4.426 4.426 0 014.32 4.656zm3.36 8.944h1.168v-4.32a3.166 3.166 0 002.448 1.088 3.8 3.8 0 003.664-4.012 3.768 3.768 0 00-3.6-4 3.08 3.08 0 00-2.528 1.216v-1.12h-1.152zm3.392-10.224a2.8 2.8 0 012.736 2.992 2.8 2.8 0 01-2.736 2.988 2.744 2.744 0 01-2.224-1.088v-3.82a2.666 2.666 0 012.224-1.072zm12.4 5.984l-.736-.784a3.191 3.191 0 01-2.144.8 2.845 2.845 0 01-2.784-2.768h6.128V4610a3.689 3.689 0 00-3.584-3.936 3.8 3.8 0 00-3.68 4.032 3.9 3.9 0 003.872 4.048 4.558 4.558 0 002.928-1.044zm-3.136-6.032a2.579 2.579 0 012.448 2.448h-4.944a2.608 2.608 0 012.496-2.448zm5.6 6.928h1.168v-5.344a2.226 2.226 0 012.1-1.584 2.919 2.919 0 01.816.144v-1.056a2.217 2.217 0 00-.736-.112 2.332 2.332 0 00-2.176 1.728v-1.584h-1.172zm7.7.144a3.352 3.352 0 002.48-1.056v.912h1.152v-5.184c0-1.776-1.088-2.752-3.024-2.752a6.689 6.689 0 00-2.944.752l.432.9a5.156 5.156 0 012.368-.672 1.758 1.758 0 012.016 1.936v1.072a4.521 4.521 0 00-2.384-.608c-1.76 0-2.928.928-2.928 2.32-.004 1.404 1.164 2.38 2.828 2.38zm-1.716-2.416c0-.864.784-1.44 1.984-1.44a4.122 4.122 0 012.208.56v1.5a3.091 3.091 0 01-2.24.9c-1.168 0-1.952-.608-1.952-1.52zm8.4.512c0 1.248.7 1.9 2.048 1.9a4.386 4.386 0 001.36-.208v-1.032a2.8 2.8 0 01-1.1.208c-.816 0-1.136-.336-1.136-1.168v-4.788h2.24v-.96h-2.24v-2.416l-1.168.272v2.144h-1.62v.96h1.616zm4.576-2.14a3.809 3.809 0 107.6 0 3.807 3.807 0 10-7.6 0zm3.792 3.024a2.753 2.753 0 01-2.64-3.008 2.671 2.671 0 115.3 0 2.774 2.774 0 01-2.66 3.004zm5.856.88h1.168v-5.348a2.226 2.226 0 012.1-1.584 2.919 2.919 0 01.816.144v-1.056a2.217 2.217 0 00-.736-.112 2.332 2.332 0 00-2.176 1.728v-1.584h-1.172zm4.784-1.008a4.451 4.451 0 003.168 1.152c1.728 0 3.04-1.056 3.04-2.416 0-1.152-.7-1.808-2.272-2.1l-1.312-.24c-1.008-.176-1.344-.48-1.344-1.12 0-.768.672-1.248 1.7-1.248a4.142 4.142 0 012.448.832l.576-.816a5.048 5.048 0 00-2.976-.976c-1.648 0-2.816.944-2.816 2.288 0 1.136.688 1.776 2.208 2.048l1.28.224c.992.192 1.408.528 1.408 1.168 0 .816-.832 1.408-1.968 1.408a4.072 4.072 0 01-2.512-.976zm14.256 1.004l1.856-6.3 1.856 6.3h1.136l2.128-7.808h-1.1l-1.616 6.24-1.872-6.24h-1.04l-1.872 6.24-1.64-6.24h-1.132l2.144 7.808zm8.112-3.9a3.809 3.809 0 107.6 0 3.807 3.807 0 10-7.6 0zm3.792 3.024a2.753 2.753 0 01-2.64-3.008 2.671 2.671 0 115.3 0 2.774 2.774 0 01-2.66 3.004zm5.856.88h1.168v-5.348a2.226 2.226 0 012.1-1.584 2.919 2.919 0 01.816.144v-1.056a2.217 2.217 0 00-.736-.112 2.332 2.332 0 00-2.176 1.728v-1.584h-1.172zm5.632 0h1.168v-3.732l3.76 3.728h1.536l-4.144-4.1 3.968-3.712h-1.408l-3.712 3.5v-7.368l-1.168.24zm13.968.144a3.352 3.352 0 002.48-1.056v.908h1.152v-5.184c0-1.776-1.088-2.752-3.024-2.752a6.689 6.689 0 00-2.944.752l.432.9a5.156 5.156 0 012.368-.672 1.758 1.758 0 012.016 1.936v1.072a4.521 4.521 0 00-2.384-.608c-1.76 0-2.928.928-2.928 2.32 0 1.404 1.168 2.38 2.832 2.38zm-1.712-2.416c0-.864.784-1.44 1.984-1.44a4.122 4.122 0 012.208.56v1.5a3.091 3.091 0 01-2.24.9c-1.164-.004-1.952-.612-1.952-1.524zm7.712 2.268h1.168v-5.76a2.3 2.3 0 012.048-1.2 2.024 2.024 0 012.1 2.24v4.72h1.16v-5.056a2.717 2.717 0 00-2.832-2.88 2.813 2.813 0 00-2.48 1.392v-1.264h-1.168zm14.576 0h1.168v-11.68l-1.168.24v4.624a3.18 3.18 0 00-2.432-1.088 3.8 3.8 0 00-3.664 4.016 3.768 3.768 0 003.6 4 3.077 3.077 0 002.496-1.152zm-4.944-3.9a2.774 2.774 0 014.944-1.924v3.872a2.674 2.674 0 01-2.208 1.04 2.8 2.8 0 01-2.736-2.988zm12.244 3.9h1.168v-5.76a2.3 2.3 0 012.048-1.2 2.024 2.024 0 012.1 2.24v4.72h1.168v-5.056a2.717 2.717 0 00-2.832-2.88 2.813 2.813 0 00-2.48 1.392v-5.136l-1.168.24zm8.48-3.9a3.809 3.809 0 107.6 0 3.807 3.807 0 10-7.6 0zm3.792 3.024a2.753 2.753 0 01-2.64-3.008 2.671 2.671 0 115.3 0 2.774 2.774 0 01-2.664 3.004zm8.24.88l1.856-6.3 1.852 6.296h1.136l2.128-7.808h-1.1l-1.616 6.24-1.872-6.24h-1.04l-1.872 6.24-1.632-6.24h-1.136l2.14 7.808zm13.28-1.76c0 1.248.7 1.9 2.048 1.9a4.386 4.386 0 001.36-.208v-1.036a2.8 2.8 0 01-1.1.208c-.816 0-1.136-.336-1.136-1.168v-4.788h2.24v-.96h-2.24v-2.416l-1.168.272v2.144h-1.616v.96h1.616zm4.576-2.144a3.809 3.809 0 107.6 0 3.807 3.807 0 10-7.6 0zm3.792 3.024a2.753 2.753 0 01-2.64-3.008 2.671 2.671 0 115.3 0 2.774 2.774 0 01-2.664 3.004zm-178.98 20.976a3.768 3.768 0 00-3.6-4 3.146 3.146 0 00-2.512 1.168v-4.948l-1.168.24V4638h1.152v-1.024a3.161 3.161 0 002.464 1.136 3.8 3.8 0 003.664-4.012zm-3.888-2.98a3 3 0 010 5.984 2.744 2.744 0 01-2.224-1.088v-3.824a2.666 2.666 0 012.224-1.072zm7.072-.928h-1.184v5.04a2.73 2.73 0 002.832 2.9 2.8 2.8 0 002.48-1.392v1.26h1.168v-7.808h-1.168v5.776a2.318 2.318 0 01-2.048 1.184 2.017 2.017 0 01-2.08-2.256zm8.288-1.92a.83.83 0 00.832-.848.84.84 0 00-1.68 0 .834.834 0 00.848.848zm.576 1.92h-1.168V4638h1.168zm3.572-3.872l-1.168.24V4638h1.168zm8.14 11.68h1.168v-11.68l-1.168.24v4.624a3.18 3.18 0 00-2.432-1.084 4.028 4.028 0 00-.064 8.016 3.077 3.077 0 002.5-1.152zm-4.94-3.9a2.774 2.774 0 014.944-1.92v3.872a2.674 2.674 0 01-2.208 1.04 2.8 2.8 0 01-2.736-2.992zm13.164 2.14c0 1.248.7 1.9 2.048 1.9a4.386 4.386 0 001.36-.208v-1.032a2.8 2.8 0 01-1.1.208c-.816 0-1.136-.336-1.136-1.168v-4.788h2.24v-.96h-2.24v-2.416l-1.168.272v2.144h-1.62v.96h1.616zm5.12 1.76h1.168v-5.76a2.3 2.3 0 012.048-1.2 2.024 2.024 0 012.1 2.24v4.72h1.168v-5.056a2.717 2.717 0 00-2.832-2.88 2.813 2.813 0 00-2.48 1.392v-5.136l-1.168.24zm15.28-.9l-.736-.784a3.191 3.191 0 01-2.144.8 2.845 2.845 0 01-2.784-2.764h6.128V4634a3.689 3.689 0 00-3.584-3.936 3.8 3.8 0 00-3.68 4.032 3.9 3.9 0 003.872 4.048 4.558 4.558 0 002.928-1.044zm-3.136-6.032a2.579 2.579 0 012.448 2.448h-4.944a2.608 2.608 0 012.496-2.444zm5.6 6.932h1.172v-5.808a2.14 2.14 0 011.9-1.152 1.94 1.94 0 011.936 2.208V4638h1.164v-5.04a3.238 3.238 0 00-.064-.688 2.173 2.173 0 011.952-1.232c1.184 0 1.92.848 1.92 2.208V4638h1.172v-5.04a2.657 2.657 0 00-2.656-2.9 2.885 2.885 0 00-2.608 1.52 2.566 2.566 0 00-2.4-1.52 2.674 2.674 0 00-2.32 1.344v-1.212h-1.168zm19.792 0l1.856-6.3 1.856 6.3h1.136l2.132-7.808h-1.1l-1.616 6.24-1.884-6.24h-1.04l-1.872 6.24-1.632-6.24h-1.132l2.144 7.808zm9.216-9.728a.83.83 0 00.832-.848.84.84 0 00-1.68 0 .834.834 0 00.848.848zm.576 1.92h-1.168V4638h1.168zm3.328 6.048c0 1.248.7 1.9 2.048 1.9a4.386 4.386 0 001.36-.208v-1.032a2.8 2.8 0 01-1.1.208c-.816 0-1.136-.336-1.136-1.168v-4.788h2.24v-.96h-2.24v-2.416l-1.168.272v2.144h-1.62v.96h1.616zm5.12 1.76h1.168v-5.76a2.3 2.3 0 012.048-1.2 2.024 2.024 0 012.1 2.24v4.72h1.168v-5.056a2.717 2.717 0 00-2.832-2.88 2.813 2.813 0 00-2.48 1.392v-5.136l-1.168.24zm13.488-1.76c0 1.248.7 1.9 2.048 1.9a4.386 4.386 0 001.36-.208v-1.032a2.8 2.8 0 01-1.1.208c-.816 0-1.136-.336-1.136-1.168v-4.788h2.24v-.96h-2.24v-2.416l-1.168.272v2.144h-1.616v.96h1.616zm5.12 1.76h1.168v-5.76a2.3 2.3 0 012.048-1.2 2.024 2.024 0 012.1 2.24v4.72h1.168v-5.056a2.717 2.717 0 00-2.832-2.88 2.813 2.813 0 00-2.48 1.392v-5.136l-1.168.24zm15.28-.9l-.736-.784a3.191 3.191 0 01-2.144.8 2.845 2.845 0 01-2.784-2.768h6.128V4634a3.689 3.689 0 00-3.584-3.936 3.8 3.8 0 00-3.68 4.032 3.9 3.9 0 003.872 4.048 4.558 4.558 0 002.928-1.044zm-3.136-6.032a2.579 2.579 0 012.448 2.448h-4.944a2.608 2.608 0 012.496-2.444zm20.176 1.332a5.572 5.572 0 10-5.568 5.776 5.62 5.62 0 005.568-5.776zm-1.248 0a4.332 4.332 0 11-4.32-4.656 4.426 4.426 0 014.32 4.656zm3.36 8.944h1.168v-4.32a3.166 3.166 0 002.448 1.088 4.028 4.028 0 00.064-8.016 3.08 3.08 0 00-2.528 1.216v-1.12h-1.152zm3.392-10.224a3 3 0 010 5.984 2.744 2.744 0 01-2.224-1.088v-3.824a2.666 2.666 0 012.224-1.072zm12.4 5.984l-.736-.784a3.191 3.191 0 01-2.144.8 2.845 2.845 0 01-2.784-2.768h6.128V4634a3.689 3.689 0 00-3.584-3.936 3.8 3.8 0 00-3.68 4.032 3.9 3.9 0 003.872 4.048 4.558 4.558 0 002.928-1.044zm-3.136-6.032a2.579 2.579 0 012.444 2.448h-4.94a2.608 2.608 0 012.496-2.448zm5.6 6.928h1.168v-5.344a2.226 2.226 0 012.1-1.584 2.919 2.919 0 01.816.144v-1.056a2.217 2.217 0 00-.736-.112 2.332 2.332 0 00-2.176 1.728v-1.584h-1.168zm7.7.144a3.352 3.352 0 002.48-1.056v.912h1.152v-5.184c0-1.776-1.088-2.752-3.024-2.752a6.689 6.689 0 00-2.944.752l.432.9a5.156 5.156 0 012.368-.672 1.758 1.758 0 012.016 1.936v1.072a4.521 4.521 0 00-2.384-.608c-1.76 0-2.928.928-2.928 2.32-.004 1.404 1.164 2.38 2.828 2.38zm-1.712-2.416c0-.864.784-1.44 1.984-1.44a4.122 4.122 0 012.208.56v1.5a3.091 3.091 0 01-2.24.9c-1.172 0-1.956-.608-1.956-1.52zm8.4.512c0 1.248.7 1.9 2.048 1.9a4.386 4.386 0 001.36-.208v-1.032a2.8 2.8 0 01-1.1.208c-.816 0-1.136-.336-1.136-1.168v-4.788h2.24v-.96h-2.24v-2.416l-1.168.272v2.144h-1.616v.96h1.616zm4.576-2.144a3.807 3.807 0 103.792-4.032 3.867 3.867 0 00-3.796 4.036zm3.792 3.024a3.043 3.043 0 010-6.032 3.04 3.04 0 010 6.032zm5.856.88h1.168v-5.344a2.226 2.226 0 012.1-1.584 2.919 2.919 0 01.816.144v-1.056a2.217 2.217 0 00-.736-.112 2.332 2.332 0 00-2.176 1.728v-1.584h-1.168zm-199.844 24h1.232v-5.04h4.384v-1.072h-4.384v-4.016h6.416v-1.072h-7.648zm8.7 0h1.176v-5.344a2.226 2.226 0 012.1-1.584 2.919 2.919 0 01.816.144v-1.056a2.217 2.217 0 00-.736-.112 2.332 2.332 0 00-2.18 1.728v-1.584h-1.172zm7.7.144a3.352 3.352 0 002.48-1.056v.912h1.152v-5.184c0-1.776-1.088-2.752-3.024-2.752a6.689 6.689 0 00-2.944.752l.432.9a5.156 5.156 0 012.368-.672 1.758 1.758 0 012.012 1.932v1.072a4.521 4.521 0 00-2.384-.608c-1.76 0-2.928.928-2.928 2.32.004 1.408 1.172 2.384 2.836 2.384zm-1.712-2.416c0-.864.784-1.44 1.984-1.44a4.122 4.122 0 012.208.56v1.5a3.091 3.091 0 01-2.24.9c-1.164 0-1.952-.608-1.952-1.52zm7.712 2.272h1.168v-5.808a2.14 2.14 0 011.9-1.152 1.94 1.94 0 011.936 2.208V4662H1153v-5.04a3.238 3.238 0 00-.064-.688 2.173 2.173 0 011.952-1.232c1.184 0 1.92.848 1.92 2.208V4662h1.168v-5.04a2.657 2.657 0 00-2.656-2.9 2.885 2.885 0 00-2.608 1.52 2.566 2.566 0 00-2.4-1.52 2.674 2.674 0 00-2.32 1.344v-1.212h-1.168zm19.968-.9l-.736-.784a3.191 3.191 0 01-2.144.8 2.845 2.845 0 01-2.784-2.768h6.128V4658a3.689 3.689 0 00-3.584-3.936 3.8 3.8 0 00-3.68 4.032 3.9 3.9 0 003.872 4.048 4.558 4.558 0 002.928-1.044zm-3.136-6.032a2.579 2.579 0 012.444 2.452h-4.94a2.608 2.608 0 012.496-2.448zm7.984 6.932l1.86-6.3 1.852 6.3h1.136l2.128-7.808h-1.1l-1.616 6.24-1.872-6.24h-1.04l-1.872 6.24-1.632-6.24h-1.14l2.144 7.808zm8.112-3.9a3.807 3.807 0 103.792-4.032 3.867 3.867 0 00-3.792 4.032zm3.792 3.024a3.043 3.043 0 010-6.032 3.04 3.04 0 010 6.032zm5.856.876h1.168v-5.344a2.226 2.226 0 012.1-1.584 2.919 2.919 0 01.816.144v-1.056a2.217 2.217 0 00-.736-.112 2.332 2.332 0 00-2.176 1.728v-1.584h-1.172zm5.632 0h1.168v-3.728l3.76 3.728h1.54l-4.144-4.1 3.968-3.712h-1.412l-3.712 3.512v-7.38l-1.168.24zm13.968.144a3.352 3.352 0 002.48-1.056v.912h1.152v-5.184c0-1.776-1.088-2.752-3.024-2.752a6.689 6.689 0 00-2.944.752l.432.9a5.156 5.156 0 012.368-.672 1.758 1.758 0 012.016 1.936v1.072a4.521 4.521 0 00-2.38-.612c-1.76 0-2.928.928-2.928 2.32-.004 1.408 1.164 2.384 2.828 2.384zm-1.712-2.416c0-.864.784-1.44 1.984-1.44a4.122 4.122 0 012.208.56v1.5a3.091 3.091 0 01-2.24.9c-1.168 0-1.952-.608-1.952-1.52zM1215 4662h1.168v-5.76a2.3 2.3 0 012.048-1.2 2.024 2.024 0 012.1 2.24v4.72h1.164v-5.056a2.717 2.717 0 00-2.832-2.88 2.813 2.813 0 00-2.48 1.392v-1.264H1215zm14.576 0h1.168v-11.68l-1.168.24v4.624a3.18 3.18 0 00-2.432-1.088 4.028 4.028 0 00-.064 8.016 3.077 3.077 0 002.5-1.152zm-4.944-3.9a2.774 2.774 0 014.944-1.92v3.872a2.674 2.674 0 01-2.208 1.04 2.8 2.8 0 01-2.736-2.992zm11.488 2.16a6.443 6.443 0 004.592 1.9c2.464 0 4.256-1.44 4.256-3.376 0-1.68-1.024-2.576-3.408-3.008l-1.792-.3c-1.5-.24-2.112-.752-2.112-1.744 0-1.168 1.1-2.032 2.672-2.032a6.331 6.331 0 013.772 1.34l.64-.96a7.324 7.324 0 00-4.432-1.424c-2.272 0-3.84 1.312-3.84 3.2 0 1.5.912 2.352 2.96 2.72l1.808.3c1.824.32 2.5.848 2.5 1.968 0 1.3-1.264 2.256-2.992 2.256a5.216 5.216 0 01-3.872-1.744zm10.944 1.74h3.712a5.6 5.6 0 100-11.2h-3.712zm3.792-10.1a4.5 4.5 0 010 8.992h-2.556v-8.992zm7.856 10.1h1.232v-5.36l5.456 5.36h1.68l-5.84-5.7 5.712-5.5h-1.568l-5.44 5.312v-5.312h-1.232zm10.1-1.616a.873.873 0 10.832.864.857.857 0 00-.836-.864zM1123.02 4500h2.18l1.64-4.1h6.26l1.62 4.1h2.28l-5.72-14h-2.46zm4.52-5.84l2.44-6.14 2.44 6.14zm12.22-4.34h-2v6.38a3.8 3.8 0 003.96 4 4.16 4.16 0 003.06-1.22v1.02h2v-10.18h-2v7.3a2.86 2.86 0 01-2.5 1.34 2.385 2.385 0 01-2.52-2.6zm10.7 7.66c0 1.76 1.06 2.7 3.04 2.7a6.624 6.624 0 001.9-.3v-1.68a3.929 3.929 0 01-1.46.24c-1.08 0-1.5-.38-1.5-1.42v-5.52h3v-1.68h-3v-3.08l-1.98.48v2.6h-2.16v1.68h2.16zm5.78-2.58a5.29 5.29 0 105.3-5.28 5.246 5.246 0 00-5.3 5.28zm5.3 3.54a3.406 3.406 0 01-3.34-3.54 3.335 3.335 0 116.66 0 3.416 3.416 0 01-3.32 3.54zm7.18 1.56h2v-7.4a2.667 2.667 0 012.3-1.24 2.287 2.287 0 012.34 2.58v6.06h1.98v-6.4a4.239 4.239 0 00-.08-.88 2.715 2.715 0 012.38-1.36 2.287 2.287 0 012.34 2.58v6.06h2v-6.4a3.73 3.73 0 00-3.82-3.98 4.077 4.077 0 00-3.44 1.7 3.547 3.547 0 00-3.14-1.7 3.906 3.906 0 00-2.86 1.16v-.96h-2zm20.78.18a4.829 4.829 0 003.16-1.06v.88h1.96v-6.74c0-2.34-1.52-3.64-4.16-3.64a9.528 9.528 0 00-4.18 1.04l.74 1.5a7.236 7.236 0 013.16-.86c1.62 0 2.48.72 2.48 2.16v1.08a7.187 7.187 0 00-2.78-.56c-2.56 0-4.12 1.18-4.12 3.1 0 1.84 1.52 3.1 3.74 3.1zm-1.82-3.14c0-1.02.9-1.68 2.36-1.68a5.287 5.287 0 012.62.62v1.76a3.915 3.915 0 01-2.7.96c-1.36 0-2.28-.68-2.28-1.66zm10.16.44c0 1.76 1.06 2.7 3.04 2.7a6.624 6.624 0 001.9-.3v-1.68a3.929 3.929 0 01-1.46.24c-1.08 0-1.5-.38-1.5-1.42v-5.52h3v-1.68h-3v-3.08l-1.98.48v2.6h-2.16v1.68h2.16zm7.46-9.3a1.24 1.24 0 000-2.48 1.24 1.24 0 000 2.48zm1 1.64h-2V4500h2zm2.36 10.18h2v-7.32a2.877 2.877 0 012.52-1.32 2.369 2.369 0 012.52 2.58v6.06h2v-6.4a3.8 3.8 0 00-3.98-3.98 4.192 4.192 0 00-3.06 1.22v-1.02h-2zm16 .08a4.786 4.786 0 003.04-1.08v1.14c0 1.6-.94 2.44-2.72 2.44a6.893 6.893 0 01-3.26-.88l-.78 1.56a8.634 8.634 0 004.1 1c3 0 4.66-1.48 4.66-4.12v-10.32h-1.98v.84a5 5 0 00-3.02-1.02 5.135 5.135 0 00-5.16 5.22 5.127 5.127 0 005.12 5.22zm-3.16-5.22a3.391 3.391 0 013.4-3.48 3.671 3.671 0 012.8 1.18v4.6a3.6 3.6 0 01-2.8 1.18 3.391 3.391 0 01-3.4-3.48zm16.06 2.62c0 1.76 1.06 2.7 3.04 2.7a6.624 6.624 0 001.9-.3v-1.68a3.929 3.929 0 01-1.46.24c-1.08 0-1.5-.38-1.5-1.42v-5.52h3v-1.68h-3v-3.08l-1.98.48v2.6h-2.16v1.68h2.16zm6.46 2.52h2v-7.32a2.877 2.877 0 012.52-1.32 2.369 2.369 0 012.52 2.58v6.06h2v-6.4a3.8 3.8 0 00-3.98-3.98 4.192 4.192 0 00-3.06 1.22v-5.28l-2 .44zm20.16-1.16l-1.28-1.26a3.96 3.96 0 01-2.58.9 3.434 3.434 0 01-3.44-2.92h8.04v-.58a5.041 5.041 0 00-4.92-5.32 5.115 5.115 0 00-5.1 5.24 5.238 5.238 0 005.34 5.28 6.072 6.072 0 003.94-1.34zm-4.22-7.5a3.149 3.149 0 012.98 2.72h-6.04a3.126 3.126 0 013.06-2.72zm-130.92 33.08a3.515 3.515 0 01-.04-7.02 3.784 3.784 0 012.8 1.28l1.26-1.36a5.779 5.779 0 00-4.1-1.7 5.28 5.28 0 000 10.56 5.63 5.63 0 004.02-1.7l-1.2-1.3a3.71 3.71 0 01-2.74 1.24zm4.7-3.52a5.29 5.29 0 105.3-5.28 5.246 5.246 0 00-5.3 5.28zm5.3 3.54a3.537 3.537 0 113.32-3.54 3.406 3.406 0 01-3.32 3.54zm7.18 1.56h2v-7.32a2.877 2.877 0 012.52-1.32 2.369 2.369 0 012.52 2.58v6.06h2v-6.4a3.8 3.8 0 00-3.98-3.98 4.192 4.192 0 00-3.06 1.22v-1.02h-2zm12.26-2.52c0 1.76 1.06 2.7 3.04 2.7a6.624 6.624 0 001.9-.3v-1.68a3.929 3.929 0 01-1.46.24c-1.08 0-1.5-.38-1.5-1.42v-5.52h3v-1.68h-3v-3.08l-1.98.48v2.6h-2.16v1.68h2.16zm9.68 2.7a4.829 4.829 0 003.16-1.06v.88h1.96v-6.74c0-2.34-1.52-3.64-4.16-3.64a9.528 9.528 0 00-4.18 1.04l.74 1.5a7.236 7.236 0 013.16-.86c1.62 0 2.48.72 2.48 2.16v1.08a7.187 7.187 0 00-2.78-.56c-2.56 0-4.12 1.18-4.12 3.1 0 1.84 1.52 3.1 3.74 3.1zm-1.82-3.14c0-1.02.9-1.68 2.36-1.68a5.287 5.287 0 012.62.62v1.76a3.915 3.915 0 01-2.7.96c-1.36 0-2.28-.68-2.28-1.66zm10.24-8.86a1.24 1.24 0 000-2.48 1.24 1.24 0 000 2.48zm1 1.64h-2V4526h2zm2.36 10.18h2v-7.32a2.877 2.877 0 012.52-1.32 2.369 2.369 0 012.52 2.58v6.06h2v-6.4a3.8 3.8 0 00-3.98-3.98 4.192 4.192 0 00-3.06 1.22v-1.02h-2zm20.16-1.16l-1.28-1.26a3.96 3.96 0 01-2.58.9 3.434 3.434 0 01-3.44-2.92h8.04v-.58a5.041 5.041 0 00-4.92-5.32 5.115 5.115 0 00-5.1 5.24 5.238 5.238 0 005.34 5.28 6.072 6.072 0 003.94-1.34zm-4.22-7.5a3.149 3.149 0 012.98 2.72h-6.04a3.126 3.126 0 013.06-2.72zm6.86 8.66h2v-6.8a2.779 2.779 0 012.64-1.86 3.425 3.425 0 011.18.22v-1.8a2.541 2.541 0 00-1.02-.16 3.186 3.186 0 00-2.8 1.52v-1.3h-2zm11.14-5.1a5.29 5.29 0 105.3-5.28 5.246 5.246 0 00-5.3 5.28zm5.3 3.54a3.537 3.537 0 113.32-3.54 3.406 3.406 0 01-3.32 3.54zm7.18 1.56h2v-6.8a2.779 2.779 0 012.64-1.86 3.425 3.425 0 011.18.22v-1.8a2.541 2.541 0 00-1.02-.16 3.186 3.186 0 00-2.8 1.52v-1.3h-2zm11.66-1.58a3.515 3.515 0 01-.04-7.02 3.784 3.784 0 012.8 1.28l1.26-1.36a5.779 5.779 0 00-4.1-1.7 5.28 5.28 0 000 10.56 5.63 5.63 0 004.02-1.7l-1.2-1.3a3.71 3.71 0 01-2.74 1.24zm5.56 1.58h2v-7.32a2.877 2.877 0 012.52-1.32 2.369 2.369 0 012.52 2.58v6.06h2v-6.4a3.8 3.8 0 00-3.98-3.98 4.192 4.192 0 00-3.06 1.22v-5.28l-2 .44zm20.16-1.16l-1.28-1.26a3.96 3.96 0 01-2.58.9 3.434 3.434 0 01-3.44-2.92h8.04v-.58a5.041 5.041 0 00-4.92-5.32 5.115 5.115 0 00-5.1 5.24 5.238 5.238 0 005.34 5.28 6.072 6.072 0 003.94-1.34zm-4.22-7.5a3.149 3.149 0 012.98 2.72h-6.04a3.126 3.126 0 013.06-2.72zm6 7.34a6.714 6.714 0 004.46 1.5c2.42 0 4.26-1.38 4.26-3.2 0-1.58-1.06-2.54-3.08-2.84l-1.84-.26c-1.2-.18-1.68-.54-1.68-1.28 0-.82.82-1.38 2.04-1.38a5.659 5.659 0 013.22 1.06l1.02-1.32a6.981 6.981 0 00-4.1-1.3c-2.38 0-3.98 1.24-3.98 3.08 0 1.58 1.02 2.52 3.04 2.82l1.84.26c1.12.16 1.64.58 1.64 1.3 0 .9-1 1.52-2.44 1.52a5.335 5.335 0 01-3.32-1.28zm11.38-1.2c0 1.76 1.06 2.7 3.04 2.7a6.624 6.624 0 001.9-.3v-1.68a3.929 3.929 0 01-1.46.24c-1.08 0-1.5-.38-1.5-1.42v-5.52h3v-1.68h-3v-3.08l-1.98.48v2.6h-2.16v1.68h2.16zm6.46 2.52h2v-6.8a2.779 2.779 0 012.64-1.86 3.425 3.425 0 011.18.22v-1.8a2.541 2.541 0 00-1.02-.16 3.186 3.186 0 00-2.8 1.52v-1.3h-2zm10.22.18a4.829 4.829 0 003.16-1.06v.88h1.96v-6.74c0-2.34-1.52-3.64-4.16-3.64a9.528 9.528 0 00-4.18 1.04l.74 1.5a7.236 7.236 0 013.16-.86c1.62 0 2.48.72 2.48 2.16v1.08a7.187 7.187 0 00-2.78-.56c-2.56 0-4.12 1.18-4.12 3.1 0 1.84 1.52 3.1 3.74 3.1zm-1.82-3.14c0-1.02.9-1.68 2.36-1.68a5.287 5.287 0 012.62.62v1.76a3.915 3.915 0 01-2.7.96c-1.36 0-2.28-.68-2.28-1.66zm10.16.44c0 1.76 1.06 2.7 3.04 2.7a6.624 6.624 0 001.9-.3v-1.68a3.929 3.929 0 01-1.46.24c-1.08 0-1.5-.38-1.5-1.42v-5.52h3v-1.68h-3v-3.08l-1.98.48v2.6h-2.16v1.68h2.16zm7.46-9.3a1.24 1.24 0 100-2.48 1.24 1.24 0 000 2.48zm1 1.64h-2V4526h2zm1.9 5.08a5.29 5.29 0 105.3-5.28 5.246 5.246 0 00-5.3 5.28zm5.3 3.54a3.537 3.537 0 113.32-3.54 3.406 3.406 0 01-3.32 3.54zm7.18 1.56h2v-7.32a2.877 2.877 0 012.52-1.32 2.369 2.369 0 012.52 2.58v6.06h2v-6.4a3.8 3.8 0 00-3.98-3.98 4.192 4.192 0 00-3.06 1.22v-1.02h-2zm-200.58 30.14h2v-4.98a5.228 5.228 0 103.1-9.5 4.645 4.645 0 00-3.12 1.14v-.98h-1.98zm4.84-12.74a3.511 3.511 0 010 7.02 3.774 3.774 0 01-2.84-1.2v-4.6a3.651 3.651 0 012.84-1.22zm9.3-5.84l-2 .44v14h2zm5.58 14.62a4.829 4.829 0 003.16-1.06v.88h1.96v-6.74c0-2.34-1.52-3.64-4.16-3.64a9.528 9.528 0 00-4.18 1.04l.74 1.5a7.236 7.236 0 013.16-.86c1.62 0 2.48.72 2.48 2.16v1.08a7.187 7.187 0 00-2.78-.56c-2.56 0-4.12 1.18-4.12 3.1 0 1.84 1.52 3.1 3.74 3.1zm-1.82-3.14c0-1.02.9-1.68 2.36-1.68a5.287 5.287 0 012.62.62v1.76a3.915 3.915 0 01-2.7.96c-1.36 0-2.28-.68-2.28-1.66zm10.16.44c0 1.76 1.06 2.7 3.04 2.7a6.624 6.624 0 001.9-.3v-1.68a3.929 3.929 0 01-1.46.24c-1.08 0-1.5-.38-1.5-1.42v-5.52h3v-1.68h-3v-3.08l-1.98.48v2.6h-2.16v1.68h2.16zm5.82-7.66v1.68h2.36v8.5h2v-8.5h2.9v-1.68h-2.9v-1.5c0-1.08.54-1.58 1.64-1.58a4 4 0 011.26.18v-1.74a5.251 5.251 0 00-1.44-.18c-2.24 0-3.46 1.16-3.46 3.28v1.54zm7.9 5.08a5.29 5.29 0 105.3-5.28 5.246 5.246 0 00-5.3 5.28zm5.3 3.54a3.537 3.537 0 113.32-3.54 3.406 3.406 0 01-3.32 3.54zm7.18 1.56h2v-6.8a2.779 2.779 0 012.64-1.86 3.425 3.425 0 011.18.22v-1.8a2.541 2.541 0 00-1.02-.16 3.186 3.186 0 00-2.8 1.52v-1.3h-2zm7.42 0h2v-7.4a2.667 2.667 0 012.3-1.24 2.287 2.287 0 012.34 2.58v6.06h1.98v-6.4a4.239 4.239 0 00-.08-.88 2.715 2.715 0 012.38-1.36 2.287 2.287 0 012.34 2.58v6.06h2v-6.4a3.73 3.73 0 00-3.82-3.98 4.077 4.077 0 00-3.44 1.7 3.547 3.547 0 00-3.14-1.7 3.906 3.906 0 00-2.86 1.16v-.96h-2zM1124.424 4459h7.712v-1.072h-6.48v-4.048h4.444v-1.072h-4.444v-3.936h6.416v-1.072h-7.648zm8.96-5.008V4455h5.328v-1.008zm7.728-6.192v11.2h4.7c2.192 0 3.632-1.232 3.632-3.1a2.781 2.781 0 00-2.416-2.72 2.589 2.589 0 001.984-2.528c0-1.728-1.328-2.848-3.376-2.848zm4.432 1.056c1.36 0 2.24.752 2.24 1.92s-.884 1.924-2.24 1.924h-3.2v-3.84zm.144 9.088h-3.344v-4.244h3.344c1.536 0 2.512.832 2.512 2.112s-.992 2.132-2.512 2.132zm16.592-4.544a5.62 5.62 0 00-5.568-5.776 5.63 5.63 0 00-5.568 5.776 5.63 5.63 0 005.568 5.776 5.62 5.62 0 005.568-5.776zm-1.248 0a4.426 4.426 0 01-4.32 4.656 4.435 4.435 0 01-4.32-4.656 4.435 4.435 0 014.32-4.656 4.426 4.426 0 014.32 4.656zm14.208 0a5.62 5.62 0 00-5.568-5.776 5.63 5.63 0 00-5.572 5.776 5.63 5.63 0 005.572 5.776 5.62 5.62 0 005.568-5.776zm-1.248 0a4.426 4.426 0 01-4.32 4.656 4.435 4.435 0 01-4.32-4.656 4.435 4.435 0 014.32-4.656 4.426 4.426 0 014.32 4.656zm3.584 5.6h1.232v-5.36l5.456 5.36h1.68l-5.844-5.7 5.712-5.5h-1.564l-5.44 5.312v-5.312h-1.232z" fill="#151515"/><g data-name="Close"><path data-name="Rectangle" fill="none" d="M1123 4405h14v14h-14z"/><path data-name="Icon" d="M1131.9 4412l2.843-2.843a.894.894 0 000-1.264l-.632-.632a.894.894 0 00-1.264 0L1130 4410.1l-2.843-2.838a.894.894 0 00-1.264 0l-.632.632a.894.894 0 000 1.264l2.839 2.842-2.838 2.843a.894.894 0 000 1.264l.632.632a.894.894 0 001.264 0l2.842-2.839 2.843 2.843a.894.894 0 001.264 0l.632-.632a.894.894 0 000-1.264z" fill="#6a6e73"/></g></g></g></g></svg>