<svg xmlns="http://www.w3.org/2000/svg" xmlns:xlink="http://www.w3.org/1999/xlink" width="1012" height="608" viewBox="0 0 1012 608"><defs><filter id="a" x="0" y="468" width="1012" height="140" filterUnits="userSpaceOnUse"><feOffset dy="-3" input="SourceAlpha"/><feGaussianBlur stdDeviation="2" result="b"/><feFlood flood-opacity="0.102"/><feComposite operator="in" in2="b"/><feComposite in="SourceGraphic"/></filter><clipPath id="c"><path d="M3,0H997a3,3,0,0,1,3,3V602a3,3,0,0,1-3,3H0a0,0,0,0,1,0,0V3A3,3,0,0,1,3,0Z" transform="translate(360 4317)" fill="none"/></clipPath><filter id="d" x="739" y="61" width="274" height="361" filterUnits="userSpaceOnUse"><feOffset dy="3" input="SourceAlpha"/><feGaussianBlur stdDeviation="2" result="e"/><feFlood flood-opacity="0.102"/><feComposite operator="in" in2="e"/><feComposite in="SourceGraphic"/></filter></defs><g transform="translate(-354 -4317)"><path d="M3,0H997a3,3,0,0,1,3,3V605a0,0,0,0,1,0,0H0a0,0,0,0,1,0,0V3A3,3,0,0,1,3,0Z" transform="translate(360 4317)" fill="#f0f0f0"/><g transform="translate(44 4572)"><g transform="matrix(1, 0, 0, 1, 310, -255)" filter="url(#a)"><rect width="1000" height="128" transform="translate(6 477)" fill="#fff"/></g><g transform="translate(430 -10)"><rect width="14" height="14" transform="translate(856 248)" fill="none"/><path d="M6.9,85l2.843-2.843a.894.894,0,0,0,0-1.264l-.632-.632a.894.894,0,0,0-1.264,0L5,83.1,2.157,80.262a.894.894,0,0,0-1.264,0l-.632.632a.894.894,0,0,0,0,1.264L3.1,85,.262,87.843a.894.894,0,0,0,0,1.264l.632.632a.894.894,0,0,0,1.264,0L5,86.9l2.843,2.843a.894.894,0,0,0,1.264,0l.632-.632a.894.894,0,0,0,0-1.264Z" transform="translate(858 170)" fill="#6a6e73"/></g><g transform="translate(-71 -20)"><rect width="133" height="56" rx="3" transform="translate(1122 278)" fill="#e00"/><text transform="translate(1154 312)" fill="#fff" font-size="16" font-family="RedHatDisplay-Bold, Red Hat Display" font-weight="700"><tspan x="0" y="0">Show me</tspan></text></g><g transform="translate(10 -8)"><text transform="translate(631 317)" fill="#151515" font-size="16" font-family="RedHatText-Regular, Red Hat Text"><tspan x="0" y="0">Learn about hybrid cloud and how to get started.</tspan></text><text transform="translate(631 287)" fill="#151515" font-size="20" font-family="RedHatDisplay-Medium, Red Hat Display" font-weight="500"><tspan x="0" y="0">Interested in cloud?</tspan></text></g><g transform="translate(-73 -444)"><rect width="160" height="80" rx="3" transform="translate(522 690)" fill="#f0f0f0"/><text transform="translate(549 735)" fill="#6a6e73" font-size="14" font-family="RedHatText-Regular, Red Hat Text" letter-spacing="0.01em"><tspan x="0" y="0">Image thumbnail</tspan></text></g></g><g clip-path="url(#c)"><g transform="translate(739 4159)"><g transform="matrix(1, 0, 0, 1, -385, 158)" filter="url(#d)"><g transform="translate(745 64)" fill="#fff" stroke="#d2d2d2" stroke-width="1"><path d="M3,0H262a0,0,0,0,1,0,0V349a0,0,0,0,1,0,0H3a3,3,0,0,1-3-3V3A3,3,0,0,1,3,0Z" stroke="none"/><path d="M3,.5H261a.5.5,0,0,1,.5.5V348a.5.5,0,0,1-.5.5H3A2.5,2.5,0,0,1,.5,346V3A2.5,2.5,0,0,1,3,.5Z" fill="none"/></g></g><g transform="translate(0 91)"><path d="M7,0,5.5,1.5,10,6H0V8H10L5.5,12.5,7,14l7-7Z" transform="translate(523 438)" fill="#06c"/><text transform="translate(384 451)" fill="#06c" font-size="18" font-family="RedHatDisplay-Bold, Red Hat Display" font-weight="700"><tspan x="0" y="0">Get the e-book</tspan></text></g><text transform="translate(384 415)" fill="#151515" font-size="16" font-family="RedHatText-Regular, Red Hat Text"><tspan x="0" y="16">This book shows you how </tspan><tspan x="0" y="40">Operators work and how to </tspan><tspan x="0" y="64">build them with the Operator </tspan><tspan x="0" y="88">Framework and SDK.</tspan></text><text transform="translate(384 321)" fill="#151515" font-size="20" font-family="RedHatDisplay-Medium, Red Hat Display" font-weight="500"><tspan x="0" y="20">Automating the </tspan><tspan x="0" y="46">container orchestration </tspan><tspan x="0" y="72">platform</tspan></text><text transform="translate(384 300)" fill="#151515" font-size="16" font-family="RedHatText-Regular, Red Hat Text"><tspan x="0" y="0">E-BOOK</tspan></text><g transform="translate(-472 -2)"><rect width="14" height="14" transform="translate(856 248)" fill="none"/><path d="M6.9,85l2.843-2.843a.894.894,0,0,0,0-1.264l-.632-.632a.894.894,0,0,0-1.264,0L5,83.1,2.157,80.262a.894.894,0,0,0-1.264,0l-.632.632a.894.894,0,0,0,0,1.264L3.1,85,.262,87.843a.894.894,0,0,0,0,1.264l.632.632a.894.894,0,0,0,1.264,0L5,86.9l2.843,2.843a.894.894,0,0,0,1.264,0l.632-.632a.894.894,0,0,0,0-1.264Z" transform="translate(858 170)" fill="#6a6e73"/></g></g></g></g></svg>