<svg xmlns="http://www.w3.org/2000/svg" width="372" height="643"><defs><filter id="a" width="372" height="162" x="0" y="481" filterUnits="userSpaceOnUse"><feOffset dy="-3"/><feGaussianBlur stdDeviation="2" result="b"/><feFlood flood-opacity=".102"/><feComposite operator="in" in2="b"/><feComposite in="SourceGraphic"/></filter></defs><path fill="#fff" d="M0 0h360v150H0z" transform="translate(6 490)" filter="url(#a)"/><path fill="none" d="M336 506h14v14h-14z"/><path fill="#6a6e73" d="M344.9 513l2.84-2.84a.9.9 0 0 0 0-1.27l-.63-.64a.9.9 0 0 0-1.25 0L343 511.1l-2.84-2.84a.9.9 0 0 0-1.27 0l-.64.63a.9.9 0 0 0 0 1.26l2.84 2.84-2.84 2.84a.9.9 0 0 0 0 1.27l.63.64a.9.9 0 0 0 1.26 0l2.84-2.84 2.84 2.84a.9.9 0 0 0 1.27 0l.64-.63a.9.9 0 0 0 0-1.25z"/><g fill="#06c"><path d="M114 606l-1.5 1.5 4.5 4.5h-10v2h10l-4.5 4.5 1.5 1.5 7-7z"/><text transform="translate(22 619)" font-size="18" font-family="RedHatDisplay-Bold, RedHatDisplay" font-weight="700"><tspan x="0" y="0">Show me</tspan></text></g><g fill="#151515"><text transform="translate(22 540)" font-size="16" font-family="RedHatText-Regular, RedHatText"><tspan x="0" y="16">Learn about hybrid cloud and how to get</tspan><tspan x="0" y="40">started.</tspan></text><text transform="translate(22 526)" font-size="20" font-family="RedHatDisplay-Medium, RedHatDisplay" font-weight="500"><tspan x="0" y="0">Interested in cloud?</tspan></text></g><g opacity=".03"><path fill="#00f" d="M350 0h16v640h-16z" opacity=".75"/><path fill="#f00" d="M22 0h328v640H22z" opacity=".75"/><path fill="#00f" d="M6 0h16v640H6z" opacity=".75"/></g></svg>