<svg xmlns="http://www.w3.org/2000/svg" xmlns:xlink="http://www.w3.org/1999/xlink" width="884" height="308" viewBox="0 0 884 308"><defs><filter id="a" x="0" y="192" width="780" height="116" filterUnits="userSpaceOnUse"><feOffset dy="-3" input="SourceAlpha"/><feGaussianBlur stdDeviation="2" result="b"/><feFlood flood-opacity="0.102"/><feComposite operator="in" in2="b"/><feComposite in="SourceGraphic"/></filter><filter id="c" x="0" y="0" width="884" height="140" filterUnits="userSpaceOnUse"><feOffset dy="-3" input="SourceAlpha"/><feGaussianBlur stdDeviation="2" result="d"/><feFlood flood-opacity="0.102"/><feComposite operator="in" in2="d"/><feComposite in="SourceGraphic"/></filter></defs><g transform="translate(-418 -7689)"><g transform="translate(0 704)"><g transform="translate(108 6964)"><g transform="matrix(1, 0, 0, 1, 310, 21)" filter="url(#a)"><rect width="768" height="104" transform="translate(6 201)" fill="#fff"/></g><g transform="translate(198 -10)"><rect width="14" height="14" transform="translate(856 248)" fill="none"/><path d="M6.9,85l2.843-2.843a.894.894,0,0,0,0-1.264l-.632-.632a.894.894,0,0,0-1.264,0L5,83.1,2.157,80.262a.894.894,0,0,0-1.264,0l-.632.632a.894.894,0,0,0,0,1.264L3.1,85,.262,87.843a.894.894,0,0,0,0,1.264l.632.632a.894.894,0,0,0,1.264,0L5,86.9l2.843,2.843a.894.894,0,0,0,1.264,0l.632-.632a.894.894,0,0,0,0-1.264Z" transform="translate(858 170)" fill="#6a6e73"/></g><g transform="translate(-283 -32)"><rect width="133" height="56" rx="3" transform="translate(1122 278)" fill="#e00"/><text transform="translate(1154 312)" fill="#fff" font-size="16" font-family="RedHatDisplay-Bold, Red Hat Display" font-weight="700"><tspan x="0" y="0">Show me</tspan></text></g><g transform="translate(-202 -20)"><text transform="translate(631 317)" fill="#151515" font-size="16" font-family="RedHatText-Regular, Red Hat Text"><tspan x="0" y="0">Learn about hybrid cloud and how to get started.</tspan></text><text transform="translate(631 287)" fill="#151515" font-size="20" font-family="RedHatDisplay-Medium, Red Hat Display" font-weight="500"><tspan x="0" y="0">Interested in cloud?</tspan></text></g><g transform="translate(1068 238)"><rect width="16" height="14" fill="#51a549"/></g><g transform="translate(1054 238)" fill="none" stroke="#f0f" stroke-width="1" opacity="0.25"><rect width="14" height="14" stroke="none"/><rect x="0.5" y="0.5" width="13" height="13" fill="none"/></g><g transform="translate(1054 222)"><rect width="14" height="16" fill="#51a549"/></g><g transform="translate(429 302)"><rect width="543" height="24" fill="#1b8793"/></g><g transform="translate(429 222)"><rect width="543" height="24" fill="#1b8793"/></g><g transform="translate(775 246)"><rect width="64" height="56" fill="#341974"/></g><g transform="translate(429 280)" fill="none" stroke="#f0f" stroke-width="1" opacity="0.25"><rect width="346" height="22" stroke="none"/><rect x="0.5" y="0.5" width="345" height="21" fill="none"/></g><g transform="translate(429 272)"><rect width="178" height="8" fill="#9bd917"/></g><g transform="translate(429 246)" fill="none" stroke="#f0f" stroke-width="1" opacity="0.25"><rect width="178" height="26" stroke="none"/><rect x="0.5" y="0.5" width="177" height="25" fill="none"/></g></g><g transform="translate(108 6772)"><g transform="matrix(1, 0, 0, 1, 310, 213)" filter="url(#c)"><rect width="872" height="128" transform="translate(6 9)" fill="#fff"/></g><g transform="translate(302 -10)"><rect width="14" height="14" transform="translate(856 248)" fill="none"/><path d="M6.9,85l2.843-2.843a.894.894,0,0,0,0-1.264l-.632-.632a.894.894,0,0,0-1.264,0L5,83.1,2.157,80.262a.894.894,0,0,0-1.264,0l-.632.632a.894.894,0,0,0,0,1.264L3.1,85,.262,87.843a.894.894,0,0,0,0,1.264l.632.632a.894.894,0,0,0,1.264,0L5,86.9l2.843,2.843a.894.894,0,0,0,1.264,0l.632-.632a.894.894,0,0,0,0-1.264Z" transform="translate(858 170)" fill="#6a6e73"/></g><g transform="translate(-135 -20)"><rect width="133" height="56" rx="3" transform="translate(1122 278)" fill="#e00"/><text transform="translate(1154 312)" fill="#fff" font-size="16" font-family="RedHatDisplay-Bold, Red Hat Display" font-weight="700"><tspan x="0" y="0">Show me</tspan></text></g><g transform="translate(-54 -8)"><text transform="translate(631 317)" fill="#151515" font-size="16" font-family="RedHatText-Regular, Red Hat Text"><tspan x="0" y="0">Learn about hybrid cloud and how to get started.</tspan></text><text transform="translate(631 287)" fill="#151515" font-size="20" font-family="RedHatDisplay-Medium, Red Hat Display" font-weight="500"><tspan x="0" y="0">Interested in cloud?</tspan></text></g><g transform="translate(-137 -444)"><rect width="160" height="80" rx="3" transform="translate(522 690)" fill="#f0f0f0"/><text transform="translate(549 735)" fill="#6a6e73" font-size="14" font-family="RedHatText-Regular, Red Hat Text" letter-spacing="0.01em"><tspan x="0" y="0">Image thumbnail</tspan></text></g><g transform="translate(1172 238)"><rect width="16" height="14" fill="#51a549"/></g><g transform="translate(1158 238)" fill="none" stroke="#f0f" stroke-width="1" opacity="0.25"><rect width="14" height="14" stroke="none"/><rect x="0.5" y="0.5" width="13" height="13" fill="none"/></g><g transform="translate(1158 222)"><rect width="14" height="16" fill="#51a549"/></g><g transform="translate(923 258)"><rect width="64" height="56" fill="#341974"/></g><g transform="translate(577 293)" fill="none" stroke="#f0f" stroke-width="1" opacity="0.25"><rect width="346" height="21" stroke="none"/><rect x="0.5" y="0.5" width="345" height="20" fill="none"/></g><g transform="translate(577 285)"><rect width="178" height="8" fill="#9bd917"/></g><g transform="translate(577 259)" fill="none" stroke="#f0f" stroke-width="1" opacity="0.25"><rect width="178" height="26" stroke="none"/><rect x="0.5" y="0.5" width="177" height="25" fill="none"/></g><g transform="translate(545 259)"><rect width="32" height="55" fill="#1893d2"/></g><g transform="translate(453 326)"><rect width="24" height="24" fill="#1b8793"/></g><g transform="translate(453 222)"><rect width="24" height="24" fill="#1b8793"/></g></g></g></g></svg>