<svg xmlns="http://www.w3.org/2000/svg" xmlns:xlink="http://www.w3.org/1999/xlink" width="1012" height="608" viewBox="0 0 1012 608"><defs><style>.a{fill:none;}.b{fill:#f0f0f0;}.c,.f,.k{fill:#fff;}.d,.i{fill:#6a6e73;}.e{fill:#e00;}.f,.g{font-size:16px;}.f,.m{font-family:RedHatDisplay-Bold, Red Hat Display;font-weight:700;}.g,.h{fill:#151515;}.g,.i{font-family:RedHatText-Regular, Red Hat Text;}.h{font-size:20px;font-family:RedHatDisplay-Medium, Red Hat Display;font-weight:500;}.i{font-size:14px;letter-spacing:0.01em;}.j{clip-path:url(#c);}.k{stroke:#d2d2d2;}.l,.m{fill:#06c;}.m{font-size:18px;}.n{stroke:none;}.o{filter:url(#d);}.p{filter:url(#a);}</style><filter id="a" x="0" y="468" width="1012" height="140" filterUnits="userSpaceOnUse"><feOffset dy="-3" input="SourceAlpha"/><feGaussianBlur stdDeviation="2" result="b"/><feFlood flood-opacity="0.102"/><feComposite operator="in" in2="b"/><feComposite in="SourceGraphic"/></filter><clipPath id="c"><path class="a" d="M3,0H997a3,3,0,0,1,3,3V602a3,3,0,0,1-3,3H0a0,0,0,0,1,0,0V3A3,3,0,0,1,3,0Z" transform="translate(360 4317)"/></clipPath><filter id="d" x="739" y="61" width="274" height="361" filterUnits="userSpaceOnUse"><feOffset dy="3" input="SourceAlpha"/><feGaussianBlur stdDeviation="2" result="e"/><feFlood flood-opacity="0.102"/><feComposite operator="in" in2="e"/><feComposite in="SourceGraphic"/></filter></defs><g transform="translate(-354 -4621)"><path class="b" d="M3,0H997a3,3,0,0,1,3,3V605a0,0,0,0,1,0,0H0a0,0,0,0,1,0,0V3A3,3,0,0,1,3,0Z" transform="translate(360 4621)"/><g transform="translate(44 4876)"><g class="p" transform="matrix(1, 0, 0, 1, 310, -255)"><rect class="c" width="1000" height="128" transform="translate(6 477)"/></g><g transform="translate(430 -10)"><rect class="a" width="14" height="14" transform="translate(856 248)"/><path class="d" d="M6.9,85l2.843-2.843a.894.894,0,0,0,0-1.264l-.632-.632a.894.894,0,0,0-1.264,0L5,83.1,2.157,80.262a.894.894,0,0,0-1.264,0l-.632.632a.894.894,0,0,0,0,1.264L3.1,85,.262,87.843a.894.894,0,0,0,0,1.264l.632.632a.894.894,0,0,0,1.264,0L5,86.9l2.843,2.843a.894.894,0,0,0,1.264,0l.632-.632a.894.894,0,0,0,0-1.264Z" transform="translate(858 170)"/></g><g transform="translate(-71 -20)"><rect class="e" width="133" height="56" rx="3" transform="translate(1122 278)"/><text class="f" transform="translate(1154 312)"><tspan x="0" y="0">Show me</tspan></text></g><g transform="translate(10 -8)"><text class="g" transform="translate(631 317)"><tspan x="0" y="0">Learn about hybrid cloud and how to get started.</tspan></text><text class="h" transform="translate(631 287)"><tspan x="0" y="0">Interested in cloud?</tspan></text></g><g transform="translate(-73 -444)"><rect class="b" width="160" height="80" rx="3" transform="translate(522 690)"/><text class="i" transform="translate(549 735)"><tspan x="0" y="0">Image thumbnail</tspan></text></g></g><g class="j" transform="translate(0 304)"><g transform="translate(739 4159)"><g class="o" transform="matrix(1, 0, 0, 1, -385, 158)"><g class="k" transform="translate(745 64)"><path class="n" d="M3,0H262a0,0,0,0,1,0,0V349a0,0,0,0,1,0,0H3a3,3,0,0,1-3-3V3A3,3,0,0,1,3,0Z"/><path class="a" d="M3,.5H261a.5.5,0,0,1,.5.5V348a.5.5,0,0,1-.5.5H3A2.5,2.5,0,0,1,.5,346V3A2.5,2.5,0,0,1,3,.5Z"/></g></g><g transform="translate(0 91)"><path class="l" d="M7,0,5.5,1.5,10,6H0V8H10L5.5,12.5,7,14l7-7Z" transform="translate(523 438)"/><text class="m" transform="translate(384 451)"><tspan x="0" y="0">Get the e-book</tspan></text></g><text class="g" transform="translate(384 415)"><tspan x="0" y="16">This book shows you how </tspan><tspan x="0" y="40">Operators work and how to </tspan><tspan x="0" y="64">build them with the Operator </tspan><tspan x="0" y="88">Framework and SDK.</tspan></text><text class="h" transform="translate(384 321)"><tspan x="0" y="20">Automating the </tspan><tspan x="0" y="46">container orchestration </tspan><tspan x="0" y="72">platform</tspan></text><text class="g" transform="translate(384 300)"><tspan x="0" y="0">E-BOOK</tspan></text><g transform="translate(-472 -2)"><rect class="a" width="14" height="14" transform="translate(856 248)"/><path class="d" d="M6.9,85l2.843-2.843a.894.894,0,0,0,0-1.264l-.632-.632a.894.894,0,0,0-1.264,0L5,83.1,2.157,80.262a.894.894,0,0,0-1.264,0l-.632.632a.894.894,0,0,0,0,1.264L3.1,85,.262,87.843a.894.894,0,0,0,0,1.264l.632.632a.894.894,0,0,0,1.264,0L5,86.9l2.843,2.843a.894.894,0,0,0,1.264,0l.632-.632a.894.894,0,0,0,0-1.264Z" transform="translate(858 170)"/></g></g></g></g></svg>