<svg xmlns="http://www.w3.org/2000/svg" width="711" height="361"><defs><filter id="a" width="274" height="278" x="434" y="0" filterUnits="userSpaceOnUse"><feOffset dy="3"/><feGaussianBlur stdDeviation="2" result="b"/><feFlood flood-opacity=".102"/><feComposite operator="in" in2="b"/><feComposite in="SourceGraphic"/></filter><filter id="b" width="274" height="361" x="109" y="0" filterUnits="userSpaceOnUse"><feOffset dy="3"/><feGaussianBlur stdDeviation="2" result="d"/><feFlood flood-opacity=".102"/><feComposite operator="in" in2="d"/><feComposite in="SourceGraphic"/></filter></defs><g transform="translate(-452 -1571)"><g fill="#fff" stroke="#d2d2d2" transform="translate(452 1571)" filter="url(#a)"><path stroke="none" d="M443 3h259v266H443a3 3 0 0 1-3-3V6a3 3 0 0 1 3-3z"/><path fill="none" d="M443 3.5h258a.5.5 0 0 1 .5.5v264a.5.5 0 0 1-.5.5H443a2.5 2.5 0 0 1-2.5-2.5V6a2.5 2.5 0 0 1 2.5-2.5z"/></g><g fill="#06c"><path d="M1062 1798l-1.5 1.5 4.5 4.5h-10v2h10l-4.5 4.5 1.5 1.5 7-7z"/><text transform="translate(532 1360) translate(384 451)" font-size="18" font-family="RedHatDisplay-Bold, RedHatDisplay" font-weight="700"><tspan x="0" y="0">Get the e-book</tspan></text></g><text fill="#151515" transform="translate(916 1673)" font-size="20" font-family="RedHatDisplay-Medium, RedHatDisplay" font-weight="500"><tspan x="0" y="20">O’Reilly: Kubernetes</tspan><tspan x="0" y="46">operators: Automating</tspan><tspan x="0" y="72">the container</tspan><tspan x="0" y="98">orchestration platform</tspan></text><text fill="#151515" transform="translate(916 1652)" font-size="16" font-family="RedHatText-Regular, RedHatText"><tspan x="0" y="0">E-BOOK</tspan></text><path fill="none" d="M916 1598h14v14h-14z"/><path fill="#6a6e73" d="M924.9 1605l2.84-2.84a.9.9 0 0 0 0-1.27l-.63-.64a.9.9 0 0 0-1.25 0l-2.85 2.84-2.84-2.84a.9.9 0 0 0-1.27 0l-.64.63a.9.9 0 0 0 0 1.26l2.84 2.84-2.84 2.84a.9.9 0 0 0 0 1.27l.63.64a.9.9 0 0 0 1.26 0l2.84-2.84 2.84 2.84a.9.9 0 0 0 1.27 0l.64-.63a.9.9 0 0 0 0-1.25z"/><path fill="#fff" d="M1153 1574h10v266h-10z"/><path fill="#51a549" d="M892 1793h261v23H892z" opacity=".25"/><path fill="#b316b3" d="M892 1636h261v141H892z" opacity=".25"/><g fill="#fff" stroke="#d2d2d2" transform="translate(207 1352) translate(245 219)" filter="url(#b)"><path stroke="none" d="M118 3h259v349H118a3 3 0 0 1-3-3V6a3 3 0 0 1 3-3z"/><path fill="none" d="M118 3.5h258a.5.5 0 0 1 .5.5v347a.5.5 0 0 1-.5.5H118a2.5 2.5 0 0 1-2.5-2.5V6a2.5 2.5 0 0 1 2.5-2.5z"/></g><g fill="#06c"><path d="M737 1881l-1.5 1.5 4.5 4.5h-10v2h10l-4.5 4.5 1.5 1.5 7-7z"/><text transform="translate(591 1894)" font-size="18" font-family="RedHatDisplay-Bold, RedHatDisplay" font-weight="700"><tspan x="0" y="0">Get the e-book</tspan></text></g><text fill="#151515" transform="translate(207 1352) translate(384 415)" font-size="16" font-family="RedHatText-Regular, RedHatText"><tspan x="0" y="16">This book shows you how</tspan><tspan x="0" y="40">Operators work and how to</tspan><tspan x="0" y="64">build them with the Operator</tspan><tspan x="0" y="88">Framework and SDK.</tspan></text><text fill="#151515" transform="translate(207 1352) translate(384 321)" font-size="20" font-family="RedHatDisplay-Medium, RedHatDisplay" font-weight="500"><tspan x="0" y="20">Automating the</tspan><tspan x="0" y="46">container orchestration</tspan><tspan x="0" y="72">platform</tspan></text><text fill="#151515" transform="translate(207 1352) translate(384 300)" font-size="16" font-family="RedHatText-Regular, RedHatText"><tspan x="0" y="0">E-BOOK</tspan></text><path fill="none" d="M591 1598h14v14h-14z"/><path fill="#6a6e73" d="M599.9 1605l2.84-2.84a.9.9 0 0 0 0-1.27l-.63-.64a.9.9 0 0 0-1.25 0l-2.85 2.84-2.84-2.84a.9.9 0 0 0-1.27 0l-.64.63a.9.9 0 0 0 0 1.26l2.84 2.84-2.84 2.84a.9.9 0 0 0 0 1.27l.63.64a.9.9 0 0 0 1.26 0l2.84-2.84 2.84 2.84a.9.9 0 0 0 1.27 0l.64-.63a.9.9 0 0 0 0-1.25z"/><path fill="#fff" d="M828 1574h10v353h-10z"/><path fill="#51a549" d="M567 1876h261v23H567z" opacity=".25"/><circle cx="3.5" cy="3.5" r="3.5" fill="#06c" transform="translate(663 1884)"/><path fill="#06c" d="M551 1887h115v1H551z"/><text fill="#06c" transform="translate(457 1892)" font-size="14" font-family="RedHatText-Regular, RedHatText"><tspan x="0" y="0">Footer section</tspan></text><path fill="#1893d2" d="M567 1767h261v93H567z" opacity=".25"/><circle cx="3.5" cy="3.5" r="3.5" fill="#06c" transform="translate(694 1810)"/><path fill="#06c" d="M551 1813h146v1H551z"/><text fill="#06c" transform="translate(465 1819)" font-size="14" font-family="RedHatText-Regular, RedHatText"><tspan x="0" y="0">Body section</tspan></text><path fill="#b316b3" d="M567 1636h261v115H567z" opacity=".25"/><circle cx="3.5" cy="3.5" r="3.5" fill="#06c" transform="translate(694 1690)"/><path fill="#06c" d="M551 1693h146v1H551z"/><text fill="#06c" transform="translate(452 1699)" font-size="14" font-family="RedHatText-Regular, RedHatText"><tspan x="0" y="0">Header section</tspan></text></g></svg>