<svg width="482" height="96" viewBox="0 0 482 96" fill="none" xmlns="http://www.w3.org/2000/svg">
<path d="M117.592 54.176C116.792 54.176 116.045 54.032 115.352 53.744C114.669 53.4453 114.067 53.0347 113.544 52.512C113.021 51.9787 112.616 51.3653 112.328 50.672C112.04 49.968 111.896 49.2107 111.896 48.4C111.896 47.5893 112.04 46.8373 112.328 46.144C112.616 45.44 113.021 44.8267 113.544 44.304C114.067 43.7707 114.669 43.36 115.352 43.072C116.045 42.7733 116.792 42.624 117.592 42.624C118.147 42.624 118.675 42.6987 119.176 42.848C119.688 42.9867 120.168 43.1947 120.616 43.472C121.064 43.7387 121.464 44.0693 121.816 44.464L121 45.312C120.584 44.8107 120.072 44.4267 119.464 44.16C118.867 43.8827 118.243 43.744 117.592 43.744C116.963 43.744 116.376 43.8613 115.832 44.096C115.288 44.3307 114.813 44.6613 114.408 45.088C114.013 45.5147 113.704 46.0107 113.48 46.576C113.256 47.1307 113.144 47.7387 113.144 48.4C113.144 49.0507 113.256 49.6587 113.48 50.224C113.704 50.7893 114.013 51.2853 114.408 51.712C114.813 52.1387 115.288 52.4693 115.832 52.704C116.376 52.9387 116.963 53.056 117.592 53.056C118.243 53.056 118.867 52.9173 119.464 52.64C120.072 52.3627 120.584 51.9787 121 51.488L121.816 52.336C121.464 52.7307 121.064 53.0667 120.616 53.344C120.168 53.6107 119.688 53.8187 119.176 53.968C118.675 54.1067 118.147 54.176 117.592 54.176ZM127.031 54.128C126.306 54.128 125.655 53.952 125.079 53.6C124.503 53.248 124.05 52.768 123.719 52.16C123.388 51.552 123.223 50.864 123.223 50.096C123.223 49.328 123.388 48.64 123.719 48.032C124.05 47.424 124.503 46.944 125.079 46.592C125.655 46.24 126.306 46.064 127.031 46.064C127.746 46.064 128.386 46.24 128.951 46.592C129.527 46.944 129.98 47.424 130.311 48.032C130.642 48.64 130.807 49.328 130.807 50.096C130.807 50.864 130.642 51.552 130.311 52.16C129.98 52.768 129.527 53.248 128.951 53.6C128.386 53.952 127.746 54.128 127.031 54.128ZM127.015 53.104C127.527 53.104 127.98 52.976 128.375 52.72C128.77 52.4533 129.079 52.0907 129.303 51.632C129.538 51.1733 129.655 50.6613 129.655 50.096C129.655 49.52 129.538 49.008 129.303 48.56C129.079 48.1013 128.77 47.744 128.375 47.488C127.98 47.2213 127.527 47.088 127.015 47.088C126.503 47.088 126.05 47.2213 125.655 47.488C125.26 47.744 124.946 48.1013 124.711 48.56C124.487 49.008 124.375 49.52 124.375 50.096C124.375 50.6613 124.487 51.1733 124.711 51.632C124.946 52.0907 125.26 52.4533 125.655 52.72C126.05 52.976 126.503 53.104 127.015 53.104ZM132.856 54V42.448L134.024 42.208V54H132.856ZM139.875 54.128C139.149 54.128 138.499 53.952 137.923 53.6C137.347 53.248 136.893 52.768 136.563 52.16C136.232 51.552 136.067 50.864 136.067 50.096C136.067 49.328 136.232 48.64 136.563 48.032C136.893 47.424 137.347 46.944 137.923 46.592C138.499 46.24 139.149 46.064 139.875 46.064C140.589 46.064 141.229 46.24 141.795 46.592C142.371 46.944 142.824 47.424 143.155 48.032C143.485 48.64 143.651 49.328 143.651 50.096C143.651 50.864 143.485 51.552 143.155 52.16C142.824 52.768 142.371 53.248 141.795 53.6C141.229 53.952 140.589 54.128 139.875 54.128ZM139.859 53.104C140.371 53.104 140.824 52.976 141.219 52.72C141.613 52.4533 141.923 52.0907 142.147 51.632C142.381 51.1733 142.499 50.6613 142.499 50.096C142.499 49.52 142.381 49.008 142.147 48.56C141.923 48.1013 141.613 47.744 141.219 47.488C140.824 47.2213 140.371 47.088 139.859 47.088C139.347 47.088 138.893 47.2213 138.499 47.488C138.104 47.744 137.789 48.1013 137.555 48.56C137.331 49.008 137.219 49.52 137.219 50.096C137.219 50.6613 137.331 51.1733 137.555 51.632C137.789 52.0907 138.104 52.4533 138.499 52.72C138.893 52.976 139.347 53.104 139.859 53.104ZM145.7 54V46.192H146.868V47.792C147.071 47.248 147.359 46.8267 147.732 46.528C148.116 46.2187 148.553 46.064 149.044 46.064C149.183 46.064 149.311 46.0747 149.428 46.096C149.545 46.1067 149.663 46.1333 149.78 46.176V47.232C149.652 47.1893 149.513 47.1573 149.364 47.136C149.225 47.104 149.092 47.088 148.964 47.088C148.484 47.088 148.063 47.2267 147.7 47.504C147.348 47.7813 147.071 48.1707 146.868 48.672V54H145.7ZM157.475 54.16C156.835 54.16 156.243 54.064 155.699 53.872C155.155 53.6693 154.691 53.3813 154.307 53.008L154.931 52.24C155.401 52.5813 155.833 52.832 156.227 52.992C156.622 53.1413 157.027 53.216 157.443 53.216C158.009 53.216 158.478 53.0827 158.851 52.816C159.225 52.5493 159.411 52.208 159.411 51.792C159.411 51.472 159.299 51.2213 159.075 51.04C158.862 50.8587 158.505 50.72 158.003 50.624L156.723 50.4C155.966 50.2613 155.406 50.0267 155.043 49.696C154.691 49.3653 154.515 48.9173 154.515 48.352C154.515 47.904 154.633 47.5093 154.867 47.168C155.113 46.8267 155.449 46.56 155.875 46.368C156.302 46.1653 156.787 46.064 157.331 46.064C157.865 46.064 158.371 46.144 158.851 46.304C159.331 46.4533 159.817 46.6987 160.307 47.04L159.731 47.856C159.326 47.568 158.921 47.36 158.515 47.232C158.11 47.0933 157.699 47.024 157.283 47.024C156.771 47.024 156.361 47.136 156.051 47.36C155.742 47.584 155.587 47.888 155.587 48.272C155.587 48.592 155.683 48.8373 155.875 49.008C156.078 49.1787 156.43 49.3067 156.931 49.392L158.243 49.632C159.033 49.7707 159.609 50.0107 159.971 50.352C160.334 50.6933 160.515 51.152 160.515 51.728C160.515 52.1867 160.382 52.6027 160.115 52.976C159.849 53.3387 159.486 53.6267 159.027 53.84C158.569 54.0533 158.051 54.16 157.475 54.16ZM165.876 54.128C165.151 54.128 164.495 53.952 163.908 53.6C163.332 53.2373 162.873 52.752 162.532 52.144C162.191 51.5253 162.02 50.8427 162.02 50.096C162.02 49.3387 162.191 48.656 162.532 48.048C162.873 47.44 163.332 46.96 163.908 46.608C164.495 46.2453 165.151 46.064 165.876 46.064C166.452 46.064 167.001 46.1707 167.524 46.384C168.047 46.5973 168.5 46.896 168.884 47.28L168.132 48.096C167.855 47.7867 167.519 47.5467 167.124 47.376C166.729 47.2053 166.329 47.12 165.924 47.12C165.412 47.12 164.948 47.2533 164.532 47.52C164.127 47.7867 163.801 48.144 163.556 48.592C163.311 49.04 163.188 49.5413 163.188 50.096C163.188 50.6507 163.311 51.152 163.556 51.6C163.801 52.048 164.127 52.4053 164.532 52.672C164.948 52.9387 165.412 53.072 165.924 53.072C166.329 53.072 166.729 52.9867 167.124 52.816C167.519 52.6347 167.855 52.3947 168.132 52.096L168.884 52.912C168.5 53.296 168.047 53.5947 167.524 53.808C167.001 54.0213 166.452 54.128 165.876 54.128ZM170.513 54V42.448L171.681 42.208V47.456C171.979 46.9867 172.337 46.64 172.753 46.416C173.169 46.1813 173.638 46.064 174.161 46.064C174.726 46.064 175.217 46.1867 175.633 46.432C176.059 46.6667 176.39 47.0027 176.625 47.44C176.87 47.8667 176.993 48.368 176.993 48.944V54H175.825V49.28C175.825 48.5867 175.633 48.0427 175.249 47.648C174.875 47.2427 174.369 47.04 173.729 47.04C173.302 47.04 172.913 47.1413 172.561 47.344C172.209 47.5467 171.915 47.8453 171.681 48.24V54H170.513ZM182.861 54.16C182.135 54.16 181.479 53.984 180.893 53.632C180.306 53.2693 179.842 52.784 179.501 52.176C179.159 51.5573 178.989 50.864 178.989 50.096C178.989 49.328 179.149 48.64 179.469 48.032C179.799 47.424 180.242 46.944 180.797 46.592C181.351 46.24 181.97 46.064 182.653 46.064C183.346 46.064 183.959 46.24 184.493 46.592C185.037 46.9333 185.463 47.4027 185.773 48C186.093 48.5867 186.253 49.2533 186.253 50V50.352H180.125C180.167 50.8853 180.311 51.3653 180.557 51.792C180.813 52.208 181.143 52.5387 181.549 52.784C181.965 53.0187 182.418 53.136 182.909 53.136C183.314 53.136 183.703 53.0667 184.077 52.928C184.461 52.7787 184.786 52.5813 185.053 52.336L185.789 53.12C185.341 53.472 184.877 53.7333 184.397 53.904C183.917 54.0747 183.405 54.16 182.861 54.16ZM180.157 49.52H185.101C185.047 49.0507 184.903 48.6347 184.669 48.272C184.445 47.8987 184.157 47.6053 183.805 47.392C183.463 47.1787 183.079 47.072 182.653 47.072C182.226 47.072 181.837 47.1787 181.485 47.392C181.133 47.5947 180.839 47.8827 180.605 48.256C180.381 48.6187 180.231 49.04 180.157 49.52ZM188.247 54V46.192H189.415V47.408C189.714 46.96 190.055 46.624 190.439 46.4C190.823 46.176 191.255 46.064 191.735 46.064C192.29 46.064 192.775 46.2027 193.191 46.48C193.607 46.7467 193.922 47.1147 194.135 47.584C194.444 47.0827 194.812 46.704 195.239 46.448C195.676 46.192 196.178 46.064 196.743 46.064C197.266 46.064 197.724 46.1867 198.119 46.432C198.524 46.6773 198.839 47.0187 199.063 47.456C199.287 47.8827 199.399 48.384 199.399 48.96V54H198.231V49.248C198.231 48.5653 198.06 48.0267 197.719 47.632C197.378 47.2373 196.908 47.04 196.311 47.04C195.906 47.04 195.538 47.1413 195.207 47.344C194.887 47.5467 194.604 47.856 194.359 48.272C194.38 48.3787 194.396 48.4907 194.407 48.608C194.418 48.7253 194.423 48.8427 194.423 48.96V54H193.255V49.248C193.255 48.5653 193.079 48.0267 192.727 47.632C192.386 47.2373 191.916 47.04 191.319 47.04C190.519 47.04 189.884 47.424 189.415 48.192V54H188.247ZM205.283 54.16C204.557 54.16 203.901 53.984 203.315 53.632C202.728 53.2693 202.264 52.784 201.923 52.176C201.581 51.5573 201.411 50.864 201.411 50.096C201.411 49.328 201.571 48.64 201.891 48.032C202.221 47.424 202.664 46.944 203.219 46.592C203.773 46.24 204.392 46.064 205.075 46.064C205.768 46.064 206.381 46.24 206.915 46.592C207.459 46.9333 207.885 47.4027 208.195 48C208.515 48.5867 208.675 49.2533 208.675 50V50.352H202.547C202.589 50.8853 202.733 51.3653 202.979 51.792C203.235 52.208 203.565 52.5387 203.971 52.784C204.387 53.0187 204.84 53.136 205.331 53.136C205.736 53.136 206.125 53.0667 206.499 52.928C206.883 52.7787 207.208 52.5813 207.475 52.336L208.211 53.12C207.763 53.472 207.299 53.7333 206.819 53.904C206.339 54.0747 205.827 54.16 205.283 54.16ZM202.579 49.52H207.523C207.469 49.0507 207.325 48.6347 207.091 48.272C206.867 47.8987 206.579 47.6053 206.227 47.392C205.885 47.1787 205.501 47.072 205.075 47.072C204.648 47.072 204.259 47.1787 203.907 47.392C203.555 47.5947 203.261 47.8827 203.027 48.256C202.803 48.6187 202.653 49.04 202.579 49.52ZM211.469 54.128C211.234 54.128 211.031 54.0427 210.861 53.872C210.701 53.7013 210.621 53.4987 210.621 53.264C210.621 53.0187 210.701 52.816 210.861 52.656C211.031 52.4853 211.234 52.4 211.469 52.4C211.703 52.4 211.901 52.4853 212.061 52.656C212.231 52.816 212.317 53.0187 212.317 53.264C212.317 53.4987 212.231 53.7013 212.061 53.872C211.901 54.0427 211.703 54.128 211.469 54.128ZM211.469 47.776C211.234 47.776 211.031 47.6907 210.861 47.52C210.701 47.3493 210.621 47.1467 210.621 46.912C210.621 46.6667 210.701 46.464 210.861 46.304C211.031 46.1333 211.234 46.048 211.469 46.048C211.703 46.048 211.901 46.1333 212.061 46.304C212.231 46.464 212.317 46.6667 212.317 46.912C212.317 47.1467 212.231 47.3493 212.061 47.52C211.901 47.6907 211.703 47.776 211.469 47.776Z" fill="#151515"/>
<mask id="path-2-inside-1_82_7049" fill="white">
<path d="M230 35C230 33.3431 231.343 32 233 32H278V64H233C231.343 64 230 62.6569 230 61V35Z"/>
</mask>
<path d="M230 35C230 33.3431 231.343 32 233 32H278V64H233C231.343 64 230 62.6569 230 61V35Z" fill="#0066CC"/>
<path d="M278 32H279V31H278V32ZM278 64V65H279V64H278ZM233 32V33H278V32V31H233V32ZM278 32H277V64H278H279V32H278ZM278 64V63H233V64V65H278V64ZM230 61H231V35H230H229V61H230ZM233 64V63C231.895 63 231 62.1046 231 61H230H229C229 63.2091 230.791 65 233 65V64ZM233 32V31C230.791 31 229 32.7909 229 35H230H231C231 33.8954 231.895 33 233 33V32Z" fill="#0066CC" mask="url(#path-2-inside-1_82_7049)"/>
<g clip-path="url(#clip0_82_7049)">
<path d="M254 52.5C251.519 52.5 249.5 50.4812 249.5 48C249.5 45.5188 251.519 43.5 254 43.5C256.481 43.5 258.5 45.5188 258.5 48C258.5 50.4812 256.481 52.5 254 52.5ZM254 44.5C252.07 44.5 250.5 46.0701 250.5 48C250.5 49.9299 252.07 51.5 254 51.5C255.93 51.5 257.5 49.9299 257.5 48C257.5 46.0701 255.93 44.5 254 44.5Z" fill="white"/>
<path d="M254 42.5C253.724 42.5 253.5 42.2761 253.5 42V40.5C253.5 40.2239 253.724 40 254 40C254.276 40 254.5 40.2239 254.5 40.5V42C254.5 42.2761 254.276 42.5 254 42.5Z" fill="white"/>
<path d="M254 56C253.724 56 253.5 55.7761 253.5 55.5V54C253.5 53.7239 253.724 53.5 254 53.5C254.276 53.5 254.5 53.7239 254.5 54V55.5C254.5 55.7761 254.276 56 254 56Z" fill="white"/>
<path d="M248 48.5H246.5C246.224 48.5 246 48.2761 246 48C246 47.7239 246.224 47.5 246.5 47.5H248C248.276 47.5 248.5 47.7239 248.5 48C248.5 48.2761 248.276 48.5 248 48.5Z" fill="white"/>
<path d="M261.5 48.5H260C259.724 48.5 259.5 48.2761 259.5 48C259.5 47.7239 259.724 47.5 260 47.5H261.5C261.776 47.5 262 47.7239 262 48C262 48.2761 261.776 48.5 261.5 48.5Z" fill="white"/>
<path d="M248.697 53.8033C248.569 53.8033 248.441 53.7544 248.343 53.6568C248.148 53.4615 248.148 53.1451 248.343 52.9497L249.404 51.8892C249.599 51.6939 249.916 51.6939 250.111 51.8892C250.306 52.0845 250.306 52.4009 250.111 52.5962L249.05 53.6568C248.953 53.7544 248.825 53.8033 248.697 53.8033Z" fill="white"/>
<path d="M258.243 44.2574C258.115 44.2574 257.987 44.2085 257.889 44.1109C257.694 43.9156 257.694 43.5992 257.889 43.4038L258.95 42.3433C259.145 42.148 259.461 42.148 259.657 42.3433C259.852 42.5386 259.852 42.855 259.657 43.0503L258.596 44.1109C258.499 44.2085 258.371 44.2574 258.243 44.2574Z" fill="white"/>
<path d="M249.757 44.2574C249.629 44.2574 249.501 44.2085 249.404 44.1109L248.343 43.0503C248.148 42.855 248.148 42.5386 248.343 42.3433C248.539 42.1479 248.855 42.148 249.05 42.3433L250.111 43.4038C250.306 43.5991 250.306 43.9155 250.111 44.1109C250.013 44.2085 249.885 44.2574 249.757 44.2574Z" fill="white"/>
<path d="M259.303 53.8033C259.175 53.8033 259.047 53.7544 258.95 53.6568L257.889 52.5962C257.694 52.4009 257.694 52.0845 257.889 51.8892C258.084 51.6938 258.401 51.6939 258.596 51.8892L259.657 52.9497C259.852 53.145 259.852 53.4614 259.657 53.6568C259.559 53.7544 259.431 53.8033 259.303 53.8033Z" fill="white"/>
</g>
<mask id="path-13-inside-2_82_7049" fill="white">
<path d="M277 32H325V64H277V32Z"/>
</mask>
<path d="M277 32H325V64H277V32Z" fill="white"/>
<path d="M325 32H326V31H325V32ZM325 64V65H326V64H325ZM277 32V33H325V32V31H277V32ZM325 32H324V64H325H326V32H325ZM325 64V63H277V64V65H325V64Z" fill="#C7C7C7" mask="url(#path-13-inside-2_82_7049)"/>
<g clip-path="url(#clip1_82_7049)">
<path d="M301.229 55.0001C297.243 55.0001 294 51.7574 294 47.7718C294 44.807 295.857 42.0992 298.622 41.0335C298.806 40.963 299.017 41.0074 299.156 41.148C299.296 41.2889 299.339 41.4991 299.266 41.6837C298.987 42.3924 298.845 43.1473 298.845 43.9271C298.845 47.3614 301.639 50.1553 305.073 50.1553C305.853 50.1553 306.608 50.0135 307.316 49.7337C307.5 49.6617 307.711 49.7036 307.852 49.8438C307.993 49.9834 308.038 50.1934 307.966 50.3787C306.901 53.1428 304.193 55.0001 301.229 55.0001ZM297.996 42.4522C296.169 43.5667 295 45.5885 295 47.7718C295 51.2062 297.794 54.0001 301.229 54.0001C303.412 54.0001 305.434 52.8309 306.548 51.0042C306.067 51.1048 305.575 51.1553 305.073 51.1553C301.087 51.1553 297.845 47.9126 297.845 43.9271C297.845 43.4256 297.896 42.9327 297.996 42.4522Z" fill="#151515"/>
</g>
<mask id="path-16-inside-3_82_7049" fill="white">
<path d="M324 32H369C370.657 32 372 33.3431 372 35V61C372 62.6569 370.657 64 369 64H324V32Z"/>
</mask>
<path d="M324 32H369C370.657 32 372 33.3431 372 35V61C372 62.6569 370.657 64 369 64H324V32Z" fill="white"/>
<path d="M324 32V31H323V32H324ZM324 64H323V65H324V64ZM324 32V33H369V32V31H324V32ZM372 35H371V61H372H373V35H372ZM369 64V63H324V64V65H369V64ZM324 64H325V32H324H323V64H324ZM372 61H371C371 62.1046 370.105 63 369 63V64V65C371.209 65 373 63.2091 373 61H372ZM369 32V33C370.105 33 371 33.8954 371 35H372H373C373 32.7909 371.209 31 369 31V32Z" fill="#C7C7C7" mask="url(#path-16-inside-3_82_7049)"/>
<g clip-path="url(#clip2_82_7049)">
<path d="M351.97 48C351.721 48 351.506 47.8147 351.474 47.5617C351.277 45.9704 350.029 44.7243 348.44 44.5312C348.166 44.498 347.97 44.2487 348.004 43.9746C348.037 43.7004 348.285 43.5056 348.561 43.5385C350.606 43.7871 352.212 45.3906 352.467 47.4382C352.501 47.7123 352.306 47.9621 352.032 47.996C352.011 47.9987 351.99 48 351.97 48Z" fill="#151515"/>
<path d="M348 42.5C347.724 42.5 347.5 42.2761 347.5 42V40.5C347.5 40.2239 347.724 40 348 40C348.276 40 348.5 40.2239 348.5 40.5V42C348.5 42.2761 348.276 42.5 348 42.5Z" fill="#151515"/>
<path d="M348 56C347.724 56 347.5 55.7761 347.5 55.5V54C347.5 53.7239 347.724 53.5 348 53.5C348.276 53.5 348.5 53.7239 348.5 54V55.5C348.5 55.7761 348.276 56 348 56Z" fill="#151515"/>
<path d="M342 48.5H340.5C340.224 48.5 340 48.2761 340 48C340 47.7239 340.224 47.5 340.5 47.5H342C342.276 47.5 342.5 47.7239 342.5 48C342.5 48.2761 342.276 48.5 342 48.5Z" fill="#151515"/>
<path d="M355.5 48.5H354C353.724 48.5 353.5 48.2761 353.5 48C353.5 47.7239 353.724 47.5 354 47.5H355.5C355.776 47.5 356 47.7239 356 48C356 48.2761 355.776 48.5 355.5 48.5Z" fill="#151515"/>
<path d="M342.697 53.8033C342.569 53.8033 342.441 53.7544 342.343 53.6568C342.148 53.4615 342.148 53.1451 342.343 52.9497L343.404 51.8892C343.599 51.6939 343.916 51.6939 344.111 51.8892C344.306 52.0845 344.306 52.4009 344.111 52.5962L343.05 53.6568C342.953 53.7544 342.825 53.8033 342.697 53.8033Z" fill="#151515"/>
<path d="M352.243 44.2574C352.115 44.2574 351.987 44.2085 351.889 44.1109C351.694 43.9156 351.694 43.5992 351.889 43.4038L352.95 42.3433C353.145 42.148 353.461 42.148 353.657 42.3433C353.852 42.5386 353.852 42.855 353.657 43.0503L352.596 44.1109C352.499 44.2085 352.371 44.2574 352.243 44.2574Z" fill="#151515"/>
<path d="M343.757 44.2574C343.629 44.2574 343.501 44.2085 343.404 44.1109L342.343 43.0503C342.148 42.855 342.148 42.5386 342.343 42.3433C342.539 42.1479 342.855 42.148 343.05 42.3433L344.111 43.4038C344.306 43.5991 344.306 43.9155 344.111 44.1109C344.013 44.2085 343.885 44.2574 343.757 44.2574Z" fill="#151515"/>
<path d="M353.303 53.8033C353.175 53.8033 353.047 53.7544 352.95 53.6568L351.889 52.5962C351.694 52.4009 351.694 52.0845 351.889 51.8892C352.084 51.6938 352.401 51.6939 352.596 51.8892L353.657 52.9497C353.852 53.145 353.852 53.4614 353.657 53.6568C353.559 53.7544 353.431 53.8033 353.303 53.8033Z" fill="#151515"/>
<path d="M348 52.4375C345.553 52.4375 343.562 50.4468 343.562 48C343.562 46.2571 344.588 44.6697 346.176 43.9561C346.342 43.8804 346.537 43.9177 346.666 44.0469C346.794 44.1765 346.829 44.3721 346.752 44.5378C346.543 44.9922 346.438 45.4841 346.438 46C346.438 47.9643 348.036 49.5625 350 49.5625C350.516 49.5625 351.008 49.4565 351.462 49.2475C351.627 49.1721 351.823 49.2058 351.953 49.3342C352.083 49.4628 352.119 49.6581 352.044 49.8244C351.33 51.4118 349.743 52.4375 348 52.4375ZM345.607 45.3609C344.876 46.0247 344.438 46.979 344.438 48C344.438 49.9644 346.036 51.5625 348 51.5625C349.021 51.5625 349.975 51.1243 350.639 50.3926C350.43 50.4224 350.216 50.4375 350 50.4375C347.553 50.4375 345.562 48.4468 345.562 46C345.562 45.7835 345.578 45.5703 345.607 45.3609Z" fill="#151515"/>
</g>
<defs>
<clipPath id="clip0_82_7049">
<rect width="16" height="16" fill="white" transform="translate(246 40)"/>
</clipPath>
<clipPath id="clip1_82_7049">
<rect width="16" height="16" fill="white" transform="translate(293 40)"/>
</clipPath>
<clipPath id="clip2_82_7049">
<rect width="16" height="16" fill="white" transform="translate(340 40)"/>
</clipPath>
</defs>
</svg>
