<svg width="946" height="79" viewBox="0 0 946 79" fill="none" xmlns="http://www.w3.org/2000/svg">
<rect x="818" y="46" width="109" height="33" rx="3" fill="#B300B3"/>
<path d="M827.428 67V57.2H830.466C831.091 57.2 831.637 57.3213 832.104 57.564C832.571 57.7973 832.935 58.124 833.196 58.544C833.457 58.964 833.588 59.4587 833.588 60.028C833.588 60.6813 833.406 61.2413 833.042 61.708C832.678 62.1653 832.183 62.4873 831.558 62.674L833.756 67H832.566L830.466 62.814H828.506V67H827.428ZM828.506 61.918H830.382C831.026 61.918 831.539 61.75 831.922 61.414C832.314 61.0687 832.51 60.6113 832.51 60.042C832.51 59.4633 832.314 59.0013 831.922 58.656C831.539 58.3107 831.026 58.138 830.382 58.138H828.506V61.918ZM838.497 58.544C838.254 58.544 838.044 58.46 837.867 58.292C837.699 58.1147 837.615 57.9093 837.615 57.676C837.615 57.4333 837.699 57.228 837.867 57.06C838.044 56.892 838.254 56.808 838.497 56.808C838.739 56.808 838.945 56.892 839.113 57.06C839.29 57.228 839.379 57.4333 839.379 57.676C839.379 57.9093 839.29 58.1147 839.113 58.292C838.945 58.46 838.739 58.544 838.497 58.544ZM840.205 67.14C839.486 67.14 838.935 66.972 838.553 66.636C838.17 66.3 837.979 65.796 837.979 65.124V61.008H835.445V60.168H839.001V65.026C839.001 65.4553 839.103 65.7633 839.309 65.95C839.514 66.1367 839.817 66.23 840.219 66.23C840.461 66.23 840.709 66.2067 840.961 66.16C841.213 66.104 841.493 66.0153 841.801 65.894V66.818C841.53 66.9113 841.259 66.986 840.989 67.042C840.727 67.1073 840.466 67.14 840.205 67.14ZM847.031 70.066C846.574 70.066 846.112 70.0007 845.645 69.87C845.188 69.7487 844.763 69.576 844.371 69.352L844.805 68.568C845.225 68.7827 845.608 68.9413 845.953 69.044C846.298 69.1467 846.644 69.198 846.989 69.198C848.258 69.198 848.893 68.6147 848.893 67.448V66.076C848.632 66.4027 848.314 66.6547 847.941 66.832C847.568 67 847.157 67.084 846.709 67.084C846.121 67.084 845.589 66.93 845.113 66.622C844.637 66.3047 844.259 65.8847 843.979 65.362C843.699 64.83 843.559 64.2373 843.559 63.584C843.559 62.9307 843.699 62.3427 843.979 61.82C844.268 61.288 844.656 60.868 845.141 60.56C845.626 60.2427 846.168 60.084 846.765 60.084C847.194 60.084 847.591 60.168 847.955 60.336C848.319 60.4947 848.636 60.7327 848.907 61.05V60.168H849.915V67.434C849.915 68.2833 849.668 68.932 849.173 69.38C848.678 69.8373 847.964 70.066 847.031 70.066ZM846.961 66.202C847.362 66.202 847.731 66.1227 848.067 65.964C848.403 65.796 848.678 65.5673 848.893 65.278V61.904C848.669 61.6147 848.384 61.3907 848.039 61.232C847.703 61.064 847.344 60.98 846.961 60.98C846.504 60.98 846.093 61.092 845.729 61.316C845.374 61.54 845.09 61.848 844.875 62.24C844.67 62.632 844.567 63.08 844.567 63.584C844.567 64.0787 844.67 64.5267 844.875 64.928C845.09 65.32 845.374 65.6327 845.729 65.866C846.093 66.09 846.504 66.202 846.961 66.202ZM852.57 67V56.892L853.592 56.682V61.274C854.114 60.462 854.838 60.056 855.762 60.056C856.256 60.056 856.686 60.1633 857.05 60.378C857.423 60.5833 857.712 60.8773 857.918 61.26C858.132 61.6333 858.24 62.072 858.24 62.576V67H857.218V62.87C857.218 62.2633 857.05 61.7873 856.714 61.442C856.387 61.0873 855.944 60.91 855.384 60.91C855.01 60.91 854.67 60.9987 854.362 61.176C854.054 61.3533 853.797 61.6147 853.592 61.96V67H852.57ZM864.898 67.14C864.133 67.14 863.545 66.9767 863.134 66.65C862.733 66.314 862.532 65.8287 862.532 65.194V61.008H860.194V60.168H862.532V58.292L863.554 58.054V60.168H866.704V61.008H863.554V65.026C863.554 65.4553 863.671 65.7633 863.904 65.95C864.137 66.1367 864.473 66.23 864.912 66.23C865.183 66.23 865.463 66.202 865.752 66.146C866.041 66.09 866.359 65.9967 866.704 65.866V66.79C866.396 66.902 866.093 66.986 865.794 67.042C865.495 67.1073 865.197 67.14 864.898 67.14ZM879.951 67.14C879.457 67.14 879.013 67.0513 878.621 66.874C878.239 66.6967 877.94 66.454 877.725 66.146C877.511 65.8287 877.403 65.4647 877.403 65.054C877.403 64.6433 877.511 64.284 877.725 63.976C877.949 63.668 878.257 63.43 878.649 63.262C879.051 63.094 879.513 63.01 880.035 63.01C880.446 63.01 880.829 63.052 881.183 63.136C881.538 63.2107 881.874 63.3413 882.191 63.528V62.744C882.191 62.1373 882.037 61.68 881.729 61.372C881.421 61.064 880.964 60.91 880.357 60.91C880.012 60.91 879.667 60.9613 879.321 61.064C878.976 61.1573 878.589 61.3253 878.159 61.568L877.739 60.798C878.234 60.5273 878.705 60.336 879.153 60.224C879.601 60.112 880.045 60.056 880.483 60.056C881.351 60.056 882.019 60.2753 882.485 60.714C882.961 61.1527 883.199 61.7827 883.199 62.604V67H882.191V66.216C881.874 66.5333 881.529 66.7667 881.155 66.916C880.791 67.0653 880.39 67.14 879.951 67.14ZM878.383 65.026C878.383 65.4273 878.547 65.7493 878.873 65.992C879.2 66.2347 879.629 66.356 880.161 66.356C880.563 66.356 880.927 66.2953 881.253 66.174C881.589 66.0433 881.902 65.838 882.191 65.558V64.242C881.902 64.0647 881.594 63.9387 881.267 63.864C880.941 63.7893 880.581 63.752 880.189 63.752C879.648 63.752 879.209 63.8687 878.873 64.102C878.547 64.3353 878.383 64.6433 878.383 65.026ZM886.064 67V66.16H887.94V61.008H886.064V60.168H888.962V61.694C889.167 61.1713 889.475 60.77 889.886 60.49C890.296 60.2007 890.772 60.056 891.314 60.056C891.528 60.056 891.72 60.0747 891.888 60.112C892.056 60.14 892.256 60.1913 892.49 60.266V61.204C892.256 61.1293 892.032 61.0687 891.818 61.022C891.612 60.9753 891.407 60.952 891.202 60.952C890.698 60.952 890.25 61.0827 889.858 61.344C889.466 61.6053 889.167 61.9787 888.962 62.464V66.16H890.95V67H886.064ZM894.458 67V66.16H896.334V61.008H894.458V60.168H897.356V61.694C897.562 61.1713 897.87 60.77 898.28 60.49C898.691 60.2007 899.167 60.056 899.708 60.056C899.923 60.056 900.114 60.0747 900.282 60.112C900.45 60.14 900.651 60.1913 900.884 60.266V61.204C900.651 61.1293 900.427 61.0687 900.212 61.022C900.007 60.9753 899.802 60.952 899.596 60.952C899.092 60.952 898.644 61.0827 898.252 61.344C897.86 61.6053 897.562 61.9787 897.356 62.464V66.16H899.344V67H894.458ZM905.751 67.14C905.125 67.14 904.561 66.986 904.057 66.678C903.562 66.3607 903.165 65.936 902.867 65.404C902.577 64.872 902.433 64.27 902.433 63.598C902.433 62.926 902.577 62.324 902.867 61.792C903.165 61.2507 903.562 60.826 904.057 60.518C904.561 60.21 905.125 60.056 905.751 60.056C906.376 60.056 906.936 60.21 907.431 60.518C907.935 60.826 908.331 61.2507 908.621 61.792C908.919 62.324 909.069 62.926 909.069 63.598C909.069 64.27 908.919 64.872 908.621 65.404C908.331 65.936 907.935 66.3607 907.431 66.678C906.936 66.986 906.376 67.14 905.751 67.14ZM905.751 66.23C906.199 66.23 906.595 66.118 906.941 65.894C907.286 65.6607 907.557 65.348 907.753 64.956C907.958 64.5547 908.061 64.102 908.061 63.598C908.061 63.0847 907.958 62.632 907.753 62.24C907.557 61.848 907.286 61.54 906.941 61.316C906.595 61.0827 906.199 60.966 905.751 60.966C905.303 60.966 904.906 61.0827 904.561 61.316C904.215 61.54 903.94 61.848 903.735 62.24C903.539 62.632 903.441 63.0847 903.441 63.598C903.441 64.102 903.539 64.5547 903.735 64.956C903.94 65.348 904.215 65.6607 904.561 65.894C904.906 66.118 905.303 66.23 905.751 66.23ZM911.835 67L910.477 60.168H911.387L912.353 65.586L913.725 60.168H914.635L916.021 65.586L916.973 60.168H917.813L916.455 67H915.531L914.159 61.498L912.787 67H911.835Z" fill="white"/>
<path d="M688.592 25.176C687.792 25.176 687.045 25.032 686.352 24.744C685.669 24.4453 685.067 24.0347 684.544 23.512C684.021 22.9787 683.616 22.3653 683.328 21.672C683.04 20.968 682.896 20.2107 682.896 19.4C682.896 18.5893 683.04 17.8373 683.328 17.144C683.616 16.44 684.021 15.8267 684.544 15.304C685.067 14.7707 685.669 14.36 686.352 14.072C687.045 13.7733 687.792 13.624 688.592 13.624C689.147 13.624 689.675 13.6987 690.176 13.848C690.688 13.9867 691.168 14.1947 691.616 14.472C692.064 14.7387 692.464 15.0693 692.816 15.464L692 16.312C691.584 15.8107 691.072 15.4267 690.464 15.16C689.867 14.8827 689.243 14.744 688.592 14.744C687.963 14.744 687.376 14.8613 686.832 15.096C686.288 15.3307 685.813 15.6613 685.408 16.088C685.013 16.5147 684.704 17.0107 684.48 17.576C684.256 18.1307 684.144 18.7387 684.144 19.4C684.144 20.0507 684.256 20.6587 684.48 21.224C684.704 21.7893 685.013 22.2853 685.408 22.712C685.813 23.1387 686.288 23.4693 686.832 23.704C687.376 23.9387 687.963 24.056 688.592 24.056C689.243 24.056 689.867 23.9173 690.464 23.64C691.072 23.3627 691.584 22.9787 692 22.488L692.816 23.336C692.464 23.7307 692.064 24.0667 691.616 24.344C691.168 24.6107 690.688 24.8187 690.176 24.968C689.675 25.1067 689.147 25.176 688.592 25.176ZM698.031 25.128C697.306 25.128 696.655 24.952 696.079 24.6C695.503 24.248 695.05 23.768 694.719 23.16C694.388 22.552 694.223 21.864 694.223 21.096C694.223 20.328 694.388 19.64 694.719 19.032C695.05 18.424 695.503 17.944 696.079 17.592C696.655 17.24 697.306 17.064 698.031 17.064C698.746 17.064 699.386 17.24 699.951 17.592C700.527 17.944 700.98 18.424 701.311 19.032C701.642 19.64 701.807 20.328 701.807 21.096C701.807 21.864 701.642 22.552 701.311 23.16C700.98 23.768 700.527 24.248 699.951 24.6C699.386 24.952 698.746 25.128 698.031 25.128ZM698.015 24.104C698.527 24.104 698.98 23.976 699.375 23.72C699.77 23.4533 700.079 23.0907 700.303 22.632C700.538 22.1733 700.655 21.6613 700.655 21.096C700.655 20.52 700.538 20.008 700.303 19.56C700.079 19.1013 699.77 18.744 699.375 18.488C698.98 18.2213 698.527 18.088 698.015 18.088C697.503 18.088 697.05 18.2213 696.655 18.488C696.26 18.744 695.946 19.1013 695.711 19.56C695.487 20.008 695.375 20.52 695.375 21.096C695.375 21.6613 695.487 22.1733 695.711 22.632C695.946 23.0907 696.26 23.4533 696.655 23.72C697.05 23.976 697.503 24.104 698.015 24.104ZM703.856 25V13.448L705.024 13.208V25H703.856ZM710.875 25.128C710.149 25.128 709.499 24.952 708.923 24.6C708.347 24.248 707.893 23.768 707.563 23.16C707.232 22.552 707.067 21.864 707.067 21.096C707.067 20.328 707.232 19.64 707.563 19.032C707.893 18.424 708.347 17.944 708.923 17.592C709.499 17.24 710.149 17.064 710.875 17.064C711.589 17.064 712.229 17.24 712.795 17.592C713.371 17.944 713.824 18.424 714.155 19.032C714.485 19.64 714.651 20.328 714.651 21.096C714.651 21.864 714.485 22.552 714.155 23.16C713.824 23.768 713.371 24.248 712.795 24.6C712.229 24.952 711.589 25.128 710.875 25.128ZM710.859 24.104C711.371 24.104 711.824 23.976 712.219 23.72C712.613 23.4533 712.923 23.0907 713.147 22.632C713.381 22.1733 713.499 21.6613 713.499 21.096C713.499 20.52 713.381 20.008 713.147 19.56C712.923 19.1013 712.613 18.744 712.219 18.488C711.824 18.2213 711.371 18.088 710.859 18.088C710.347 18.088 709.893 18.2213 709.499 18.488C709.104 18.744 708.789 19.1013 708.555 19.56C708.331 20.008 708.219 20.52 708.219 21.096C708.219 21.6613 708.331 22.1733 708.555 22.632C708.789 23.0907 709.104 23.4533 709.499 23.72C709.893 23.976 710.347 24.104 710.859 24.104ZM716.7 25V17.192H717.868V18.792C718.071 18.248 718.359 17.8267 718.732 17.528C719.116 17.2187 719.553 17.064 720.044 17.064C720.183 17.064 720.311 17.0747 720.428 17.096C720.545 17.1067 720.663 17.1333 720.78 17.176V18.232C720.652 18.1893 720.513 18.1573 720.364 18.136C720.225 18.104 720.092 18.088 719.964 18.088C719.484 18.088 719.063 18.2267 718.7 18.504C718.348 18.7813 718.071 19.1707 717.868 19.672V25H716.7ZM728.475 25.16C727.835 25.16 727.243 25.064 726.699 24.872C726.155 24.6693 725.691 24.3813 725.307 24.008L725.931 23.24C726.401 23.5813 726.833 23.832 727.227 23.992C727.622 24.1413 728.027 24.216 728.443 24.216C729.009 24.216 729.478 24.0827 729.851 23.816C730.225 23.5493 730.411 23.208 730.411 22.792C730.411 22.472 730.299 22.2213 730.075 22.04C729.862 21.8587 729.505 21.72 729.003 21.624L727.723 21.4C726.966 21.2613 726.406 21.0267 726.043 20.696C725.691 20.3653 725.515 19.9173 725.515 19.352C725.515 18.904 725.633 18.5093 725.867 18.168C726.113 17.8267 726.449 17.56 726.875 17.368C727.302 17.1653 727.787 17.064 728.331 17.064C728.865 17.064 729.371 17.144 729.851 17.304C730.331 17.4533 730.817 17.6987 731.307 18.04L730.731 18.856C730.326 18.568 729.921 18.36 729.515 18.232C729.11 18.0933 728.699 18.024 728.283 18.024C727.771 18.024 727.361 18.136 727.051 18.36C726.742 18.584 726.587 18.888 726.587 19.272C726.587 19.592 726.683 19.8373 726.875 20.008C727.078 20.1787 727.43 20.3067 727.931 20.392L729.243 20.632C730.033 20.7707 730.609 21.0107 730.971 21.352C731.334 21.6933 731.515 22.152 731.515 22.728C731.515 23.1867 731.382 23.6027 731.115 23.976C730.849 24.3387 730.486 24.6267 730.027 24.84C729.569 25.0533 729.051 25.16 728.475 25.16ZM736.876 25.128C736.151 25.128 735.495 24.952 734.908 24.6C734.332 24.2373 733.873 23.752 733.532 23.144C733.191 22.5253 733.02 21.8427 733.02 21.096C733.02 20.3387 733.191 19.656 733.532 19.048C733.873 18.44 734.332 17.96 734.908 17.608C735.495 17.2453 736.151 17.064 736.876 17.064C737.452 17.064 738.001 17.1707 738.524 17.384C739.047 17.5973 739.5 17.896 739.884 18.28L739.132 19.096C738.855 18.7867 738.519 18.5467 738.124 18.376C737.729 18.2053 737.329 18.12 736.924 18.12C736.412 18.12 735.948 18.2533 735.532 18.52C735.127 18.7867 734.801 19.144 734.556 19.592C734.311 20.04 734.188 20.5413 734.188 21.096C734.188 21.6507 734.311 22.152 734.556 22.6C734.801 23.048 735.127 23.4053 735.532 23.672C735.948 23.9387 736.412 24.072 736.924 24.072C737.329 24.072 737.729 23.9867 738.124 23.816C738.519 23.6347 738.855 23.3947 739.132 23.096L739.884 23.912C739.5 24.296 739.047 24.5947 738.524 24.808C738.001 25.0213 737.452 25.128 736.876 25.128ZM741.513 25V13.448L742.681 13.208V18.456C742.979 17.9867 743.337 17.64 743.753 17.416C744.169 17.1813 744.638 17.064 745.161 17.064C745.726 17.064 746.217 17.1867 746.633 17.432C747.059 17.6667 747.39 18.0027 747.625 18.44C747.87 18.8667 747.993 19.368 747.993 19.944V25H746.825V20.28C746.825 19.5867 746.633 19.0427 746.249 18.648C745.875 18.2427 745.369 18.04 744.729 18.04C744.302 18.04 743.913 18.1413 743.561 18.344C743.209 18.5467 742.915 18.8453 742.681 19.24V25H741.513ZM753.861 25.16C753.135 25.16 752.479 24.984 751.893 24.632C751.306 24.2693 750.842 23.784 750.501 23.176C750.159 22.5573 749.989 21.864 749.989 21.096C749.989 20.328 750.149 19.64 750.469 19.032C750.799 18.424 751.242 17.944 751.797 17.592C752.351 17.24 752.97 17.064 753.653 17.064C754.346 17.064 754.959 17.24 755.493 17.592C756.037 17.9333 756.463 18.4027 756.773 19C757.093 19.5867 757.253 20.2533 757.253 21V21.352H751.125C751.167 21.8853 751.311 22.3653 751.557 22.792C751.813 23.208 752.143 23.5387 752.549 23.784C752.965 24.0187 753.418 24.136 753.909 24.136C754.314 24.136 754.703 24.0667 755.077 23.928C755.461 23.7787 755.786 23.5813 756.053 23.336L756.789 24.12C756.341 24.472 755.877 24.7333 755.397 24.904C754.917 25.0747 754.405 25.16 753.861 25.16ZM751.157 20.52H756.101C756.047 20.0507 755.903 19.6347 755.669 19.272C755.445 18.8987 755.157 18.6053 754.805 18.392C754.463 18.1787 754.079 18.072 753.653 18.072C753.226 18.072 752.837 18.1787 752.485 18.392C752.133 18.5947 751.839 18.8827 751.605 19.256C751.381 19.6187 751.231 20.04 751.157 20.52ZM759.247 25V17.192H760.415V18.408C760.714 17.96 761.055 17.624 761.439 17.4C761.823 17.176 762.255 17.064 762.735 17.064C763.29 17.064 763.775 17.2027 764.191 17.48C764.607 17.7467 764.922 18.1147 765.135 18.584C765.444 18.0827 765.812 17.704 766.239 17.448C766.676 17.192 767.178 17.064 767.743 17.064C768.266 17.064 768.724 17.1867 769.119 17.432C769.524 17.6773 769.839 18.0187 770.063 18.456C770.287 18.8827 770.399 19.384 770.399 19.96V25H769.231V20.248C769.231 19.5653 769.06 19.0267 768.719 18.632C768.378 18.2373 767.908 18.04 767.311 18.04C766.906 18.04 766.538 18.1413 766.207 18.344C765.887 18.5467 765.604 18.856 765.359 19.272C765.38 19.3787 765.396 19.4907 765.407 19.608C765.418 19.7253 765.423 19.8427 765.423 19.96V25H764.255V20.248C764.255 19.5653 764.079 19.0267 763.727 18.632C763.386 18.2373 762.916 18.04 762.319 18.04C761.519 18.04 760.884 18.424 760.415 19.192V25H759.247ZM776.283 25.16C775.557 25.16 774.901 24.984 774.315 24.632C773.728 24.2693 773.264 23.784 772.923 23.176C772.581 22.5573 772.411 21.864 772.411 21.096C772.411 20.328 772.571 19.64 772.891 19.032C773.221 18.424 773.664 17.944 774.219 17.592C774.773 17.24 775.392 17.064 776.075 17.064C776.768 17.064 777.381 17.24 777.915 17.592C778.459 17.9333 778.885 18.4027 779.195 19C779.515 19.5867 779.675 20.2533 779.675 21V21.352H773.547C773.589 21.8853 773.733 22.3653 773.979 22.792C774.235 23.208 774.565 23.5387 774.971 23.784C775.387 24.0187 775.84 24.136 776.331 24.136C776.736 24.136 777.125 24.0667 777.499 23.928C777.883 23.7787 778.208 23.5813 778.475 23.336L779.211 24.12C778.763 24.472 778.299 24.7333 777.819 24.904C777.339 25.0747 776.827 25.16 776.283 25.16ZM773.579 20.52H778.523C778.469 20.0507 778.325 19.6347 778.091 19.272C777.867 18.8987 777.579 18.6053 777.227 18.392C776.885 18.1787 776.501 18.072 776.075 18.072C775.648 18.072 775.259 18.1787 774.907 18.392C774.555 18.5947 774.261 18.8827 774.027 19.256C773.803 19.6187 773.653 20.04 773.579 20.52ZM782.469 25.128C782.234 25.128 782.031 25.0427 781.861 24.872C781.701 24.7013 781.621 24.4987 781.621 24.264C781.621 24.0187 781.701 23.816 781.861 23.656C782.031 23.4853 782.234 23.4 782.469 23.4C782.703 23.4 782.901 23.4853 783.061 23.656C783.231 23.816 783.317 24.0187 783.317 24.264C783.317 24.4987 783.231 24.7013 783.061 24.872C782.901 25.0427 782.703 25.128 782.469 25.128ZM782.469 18.776C782.234 18.776 782.031 18.6907 781.861 18.52C781.701 18.3493 781.621 18.1467 781.621 17.912C781.621 17.6667 781.701 17.464 781.861 17.304C782.031 17.1333 782.234 17.048 782.469 17.048C782.703 17.048 782.901 17.1333 783.061 17.304C783.231 17.464 783.317 17.6667 783.317 17.912C783.317 18.1467 783.231 18.3493 783.061 18.52C782.901 18.6907 782.703 18.776 782.469 18.776Z" fill="#151515"/>
<mask id="path-4-inside-1_82_10520" fill="white">
<path d="M801 6C801 4.34315 802.343 3 804 3H849V35H804C802.343 35 801 33.6569 801 32V6Z"/>
</mask>
<path d="M801 6C801 4.34315 802.343 3 804 3H849V35H804C802.343 35 801 33.6569 801 32V6Z" fill="white"/>
<path d="M849 3H850V2H849V3ZM849 35V36H850V35H849ZM804 3V4H849V3V2H804V3ZM849 3H848V35H849H850V3H849ZM849 35V34H804V35V36H849V35ZM801 32H802V6H801H800V32H801ZM804 35V34C802.895 34 802 33.1046 802 32H801H800C800 34.2091 801.791 36 804 36V35ZM804 3V2C801.791 2 800 3.79086 800 6H801H802C802 4.89543 802.895 4 804 4V3Z" fill="#C7C7C7" mask="url(#path-4-inside-1_82_10520)"/>
<g clip-path="url(#clip0_82_10520)">
<path d="M825 23.5C822.519 23.5 820.5 21.4812 820.5 19C820.5 16.5188 822.519 14.5 825 14.5C827.481 14.5 829.5 16.5188 829.5 19C829.5 21.4812 827.481 23.5 825 23.5ZM825 15.5C823.07 15.5 821.5 17.0701 821.5 19C821.5 20.9299 823.07 22.5 825 22.5C826.93 22.5 828.5 20.9299 828.5 19C828.5 17.0701 826.93 15.5 825 15.5Z" fill="#151515"/>
<path d="M825 13.5C824.724 13.5 824.5 13.2761 824.5 13V11.5C824.5 11.2239 824.724 11 825 11C825.276 11 825.5 11.2239 825.5 11.5V13C825.5 13.2761 825.276 13.5 825 13.5Z" fill="#151515"/>
<path d="M825 27C824.724 27 824.5 26.7761 824.5 26.5V25C824.5 24.7239 824.724 24.5 825 24.5C825.276 24.5 825.5 24.7239 825.5 25V26.5C825.5 26.7761 825.276 27 825 27Z" fill="#151515"/>
<path d="M819 19.5H817.5C817.224 19.5 817 19.2761 817 19C817 18.7239 817.224 18.5 817.5 18.5H819C819.276 18.5 819.5 18.7239 819.5 19C819.5 19.2761 819.276 19.5 819 19.5Z" fill="#151515"/>
<path d="M832.5 19.5H831C830.724 19.5 830.5 19.2761 830.5 19C830.5 18.7239 830.724 18.5 831 18.5H832.5C832.776 18.5 833 18.7239 833 19C833 19.2761 832.776 19.5 832.5 19.5Z" fill="#151515"/>
<path d="M819.697 24.8033C819.569 24.8033 819.441 24.7544 819.344 24.6568C819.148 24.4615 819.148 24.1451 819.344 23.9497L820.404 22.8892C820.6 22.6939 820.916 22.6939 821.111 22.8892C821.307 23.0845 821.307 23.4009 821.111 23.5962L820.051 24.6568C819.953 24.7544 819.825 24.8033 819.697 24.8033Z" fill="#151515"/>
<path d="M829.243 15.2574C829.115 15.2574 828.987 15.2085 828.89 15.1109C828.694 14.9156 828.694 14.5992 828.89 14.4038L829.95 13.3433C830.145 13.148 830.462 13.148 830.657 13.3433C830.853 13.5386 830.853 13.855 830.657 14.0503L829.597 15.1109C829.499 15.2085 829.371 15.2574 829.243 15.2574Z" fill="#151515"/>
<path d="M820.757 15.2572C820.629 15.2572 820.501 15.2084 820.403 15.1107L819.343 14.0502C819.147 13.8549 819.147 13.5385 819.343 13.3431C819.538 13.1478 819.854 13.1478 820.05 13.3431L821.11 14.4037C821.306 14.599 821.306 14.9154 821.11 15.1107C821.013 15.2084 820.885 15.2572 820.757 15.2572Z" fill="#151515"/>
<path d="M830.303 24.8031C830.175 24.8031 830.047 24.7543 829.949 24.6566L828.889 23.5961C828.693 23.4008 828.693 23.0844 828.889 22.889C829.084 22.6937 829.4 22.6937 829.596 22.889L830.656 23.9496C830.852 24.1449 830.852 24.4613 830.656 24.6566C830.559 24.7543 830.431 24.8031 830.303 24.8031Z" fill="#151515"/>
</g>
<mask id="path-15-inside-2_82_10520" fill="white">
<path d="M848 3H896V35H848V3Z"/>
</mask>
<path d="M848 3H896V35H848V3Z" fill="white"/>
<path d="M848 3V2H847V3H848ZM896 3H897V2H896V3ZM896 35V36H897V35H896ZM848 35H847V36H848V35ZM848 3V4H896V3V2H848V3ZM896 3H895V35H896H897V3H896ZM896 35V34H848V35V36H896V35ZM848 35H849V3H848H847V35H848Z" fill="#C7C7C7" mask="url(#path-15-inside-2_82_10520)"/>
<g clip-path="url(#clip1_82_10520)">
<path d="M872.229 25.9999C868.243 25.9999 865 22.7572 865 18.7717C865 15.8068 866.857 13.0991 869.622 12.0334C869.806 11.9628 870.017 12.0073 870.156 12.1479C870.296 12.2887 870.339 12.4989 870.266 12.6835C869.987 13.3923 869.845 14.1471 869.845 14.9269C869.845 18.3613 872.639 21.1552 876.073 21.1552C876.853 21.1552 877.608 21.0133 878.316 20.7335C878.5 20.6615 878.711 20.7035 878.852 20.8436C878.993 20.9833 879.038 21.1932 878.966 21.3785C877.901 24.1427 875.193 25.9999 872.229 25.9999ZM868.996 13.4521C867.169 14.5666 866 16.5883 866 18.7717C866 22.206 868.794 24.9999 872.229 24.9999C874.412 24.9999 876.434 23.8307 877.548 22.0041C877.067 22.1047 876.575 22.1552 876.073 22.1552C872.087 22.1552 868.845 18.9125 868.845 14.9269C868.845 14.4255 868.896 13.9325 868.996 13.4521Z" fill="#151515"/>
</g>
<mask id="path-18-inside-3_82_10520" fill="white">
<path d="M895 3H940C941.657 3 943 4.34315 943 6V32C943 33.6569 941.657 35 940 35H895V3Z"/>
</mask>
<path d="M895 3H940C941.657 3 943 4.34315 943 6V32C943 33.6569 941.657 35 940 35H895V3Z" fill="#0066CC"/>
<path d="M895 3V2H894V3H895ZM895 35H894V36H895V35ZM895 3V4H940V3V2H895V3ZM943 6H942V32H943H944V6H943ZM940 35V34H895V35V36H940V35ZM895 35H896V3H895H894V35H895ZM943 32H942C942 33.1046 941.105 34 940 34V35V36C942.209 36 944 34.2091 944 32H943ZM940 3V4C941.105 4 942 4.89543 942 6H943H944C944 3.79086 942.209 2 940 2V3Z" fill="#0066CC" mask="url(#path-18-inside-3_82_10520)"/>
<g clip-path="url(#clip2_82_10520)">
<path d="M922.97 19C922.721 19 922.506 18.8147 922.474 18.5617C922.277 16.9704 921.029 15.7243 919.44 15.5312C919.166 15.498 918.97 15.2487 919.004 14.9746C919.037 14.7004 919.285 14.5056 919.561 14.5385C921.606 14.7871 923.212 16.3906 923.467 18.4382C923.501 18.7123 923.306 18.9621 923.032 18.996C923.011 18.9987 922.99 19 922.97 19Z" fill="white"/>
<path d="M919 13.5C918.724 13.5 918.5 13.2761 918.5 13V11.5C918.5 11.2239 918.724 11 919 11C919.276 11 919.5 11.2239 919.5 11.5V13C919.5 13.2761 919.276 13.5 919 13.5Z" fill="white"/>
<path d="M919 27C918.724 27 918.5 26.7761 918.5 26.5V25C918.5 24.7239 918.724 24.5 919 24.5C919.276 24.5 919.5 24.7239 919.5 25V26.5C919.5 26.7761 919.276 27 919 27Z" fill="white"/>
<path d="M913 19.5H911.5C911.224 19.5 911 19.2761 911 19C911 18.7239 911.224 18.5 911.5 18.5H913C913.276 18.5 913.5 18.7239 913.5 19C913.5 19.2761 913.276 19.5 913 19.5Z" fill="white"/>
<path d="M926.5 19.5H925C924.724 19.5 924.5 19.2761 924.5 19C924.5 18.7239 924.724 18.5 925 18.5H926.5C926.776 18.5 927 18.7239 927 19C927 19.2761 926.776 19.5 926.5 19.5Z" fill="white"/>
<path d="M913.697 24.8033C913.569 24.8033 913.441 24.7544 913.344 24.6568C913.148 24.4615 913.148 24.1451 913.344 23.9497L914.404 22.8892C914.6 22.6939 914.916 22.6939 915.111 22.8892C915.307 23.0845 915.307 23.4009 915.111 23.5962L914.051 24.6568C913.953 24.7544 913.825 24.8033 913.697 24.8033Z" fill="white"/>
<path d="M923.243 15.2574C923.115 15.2574 922.987 15.2085 922.89 15.1109C922.694 14.9156 922.694 14.5992 922.89 14.4038L923.95 13.3433C924.145 13.148 924.462 13.148 924.657 13.3433C924.853 13.5386 924.853 13.855 924.657 14.0503L923.597 15.1109C923.499 15.2085 923.371 15.2574 923.243 15.2574Z" fill="white"/>
<path d="M914.757 15.2572C914.629 15.2572 914.501 15.2084 914.403 15.1107L913.343 14.0502C913.147 13.8549 913.147 13.5385 913.343 13.3431C913.538 13.1478 913.854 13.1478 914.05 13.3431L915.11 14.4037C915.306 14.599 915.306 14.9154 915.11 15.1107C915.013 15.2084 914.885 15.2572 914.757 15.2572Z" fill="white"/>
<path d="M924.303 24.8031C924.175 24.8031 924.047 24.7543 923.949 24.6566L922.889 23.5961C922.693 23.4008 922.693 23.0844 922.889 22.889C923.084 22.6937 923.4 22.6937 923.596 22.889L924.656 23.9496C924.852 24.1449 924.852 24.4613 924.656 24.6566C924.559 24.7543 924.431 24.8031 924.303 24.8031Z" fill="white"/>
<path d="M919 23.4375C916.553 23.4375 914.562 21.4468 914.562 19C914.562 17.2571 915.588 15.6697 917.176 14.9561C917.342 14.8804 917.537 14.9177 917.666 15.0469C917.794 15.1765 917.829 15.3721 917.752 15.5378C917.543 15.9922 917.438 16.4841 917.438 17C917.438 18.9643 919.036 20.5625 921 20.5625C921.516 20.5625 922.008 20.4565 922.462 20.2475C922.627 20.1721 922.823 20.2058 922.953 20.3342C923.083 20.4628 923.119 20.6581 923.044 20.8244C922.33 22.4118 920.743 23.4375 919 23.4375ZM916.607 16.3609C915.876 17.0247 915.438 17.979 915.438 19C915.438 20.9644 917.036 22.5625 919 22.5625C920.021 22.5625 920.975 22.1243 921.639 21.3926C921.43 21.4224 921.216 21.4375 921 21.4375C918.553 21.4375 916.562 19.4468 916.562 17C916.562 16.7835 916.578 16.5703 916.607 16.3609Z" fill="white"/>
</g>
<mask id="path-30-outside-4_82_10520" maskUnits="userSpaceOnUse" x="892" y="0" width="54" height="38" fill="black">
<rect fill="white" x="892" width="54" height="38"/>
<path d="M894 5C894 3.34315 895.343 2 897 2H941C942.657 2 944 3.34315 944 5V33C944 34.6569 942.657 36 941 36H897C895.343 36 894 34.6569 894 33V5Z"/>
</mask>
<path d="M897 2V4H941V2V0H897V2ZM944 5H942V33H944H946V5H944ZM941 36V34H897V36V38H941V36ZM894 33H896V5H894H892V33H894ZM897 36V34C896.448 34 896 33.5523 896 33H894H892C892 35.7614 894.239 38 897 38V36ZM944 33H942C942 33.5523 941.552 34 941 34V36V38C943.761 38 946 35.7614 946 33H944ZM941 2V4C941.552 4 942 4.44772 942 5H944H946C946 2.23858 943.761 0 941 0V2ZM897 2V0C894.239 0 892 2.23858 892 5H894H896C896 4.44772 896.448 4 897 4V2Z" fill="#0066CC" mask="url(#path-30-outside-4_82_10520)"/>
<rect x="477" y="46" width="109" height="33" rx="3" fill="#B300B3"/>
<path d="M486.428 67V57.2H489.466C490.091 57.2 490.637 57.3213 491.104 57.564C491.571 57.7973 491.935 58.124 492.196 58.544C492.457 58.964 492.588 59.4587 492.588 60.028C492.588 60.6813 492.406 61.2413 492.042 61.708C491.678 62.1653 491.183 62.4873 490.558 62.674L492.756 67H491.566L489.466 62.814H487.506V67H486.428ZM487.506 61.918H489.382C490.026 61.918 490.539 61.75 490.922 61.414C491.314 61.0687 491.51 60.6113 491.51 60.042C491.51 59.4633 491.314 59.0013 490.922 58.656C490.539 58.3107 490.026 58.138 489.382 58.138H487.506V61.918ZM497.497 58.544C497.254 58.544 497.044 58.46 496.867 58.292C496.699 58.1147 496.615 57.9093 496.615 57.676C496.615 57.4333 496.699 57.228 496.867 57.06C497.044 56.892 497.254 56.808 497.497 56.808C497.739 56.808 497.945 56.892 498.113 57.06C498.29 57.228 498.379 57.4333 498.379 57.676C498.379 57.9093 498.29 58.1147 498.113 58.292C497.945 58.46 497.739 58.544 497.497 58.544ZM499.205 67.14C498.486 67.14 497.935 66.972 497.553 66.636C497.17 66.3 496.979 65.796 496.979 65.124V61.008H494.445V60.168H498.001V65.026C498.001 65.4553 498.103 65.7633 498.309 65.95C498.514 66.1367 498.817 66.23 499.219 66.23C499.461 66.23 499.709 66.2067 499.961 66.16C500.213 66.104 500.493 66.0153 500.801 65.894V66.818C500.53 66.9113 500.259 66.986 499.989 67.042C499.727 67.1073 499.466 67.14 499.205 67.14ZM506.031 70.066C505.574 70.066 505.112 70.0007 504.645 69.87C504.188 69.7487 503.763 69.576 503.371 69.352L503.805 68.568C504.225 68.7827 504.608 68.9413 504.953 69.044C505.298 69.1467 505.644 69.198 505.989 69.198C507.258 69.198 507.893 68.6147 507.893 67.448V66.076C507.632 66.4027 507.314 66.6547 506.941 66.832C506.568 67 506.157 67.084 505.709 67.084C505.121 67.084 504.589 66.93 504.113 66.622C503.637 66.3047 503.259 65.8847 502.979 65.362C502.699 64.83 502.559 64.2373 502.559 63.584C502.559 62.9307 502.699 62.3427 502.979 61.82C503.268 61.288 503.656 60.868 504.141 60.56C504.626 60.2427 505.168 60.084 505.765 60.084C506.194 60.084 506.591 60.168 506.955 60.336C507.319 60.4947 507.636 60.7327 507.907 61.05V60.168H508.915V67.434C508.915 68.2833 508.668 68.932 508.173 69.38C507.678 69.8373 506.964 70.066 506.031 70.066ZM505.961 66.202C506.362 66.202 506.731 66.1227 507.067 65.964C507.403 65.796 507.678 65.5673 507.893 65.278V61.904C507.669 61.6147 507.384 61.3907 507.039 61.232C506.703 61.064 506.344 60.98 505.961 60.98C505.504 60.98 505.093 61.092 504.729 61.316C504.374 61.54 504.09 61.848 503.875 62.24C503.67 62.632 503.567 63.08 503.567 63.584C503.567 64.0787 503.67 64.5267 503.875 64.928C504.09 65.32 504.374 65.6327 504.729 65.866C505.093 66.09 505.504 66.202 505.961 66.202ZM511.57 67V56.892L512.592 56.682V61.274C513.114 60.462 513.838 60.056 514.762 60.056C515.256 60.056 515.686 60.1633 516.05 60.378C516.423 60.5833 516.712 60.8773 516.918 61.26C517.132 61.6333 517.24 62.072 517.24 62.576V67H516.218V62.87C516.218 62.2633 516.05 61.7873 515.714 61.442C515.387 61.0873 514.944 60.91 514.384 60.91C514.01 60.91 513.67 60.9987 513.362 61.176C513.054 61.3533 512.797 61.6147 512.592 61.96V67H511.57ZM523.898 67.14C523.133 67.14 522.545 66.9767 522.134 66.65C521.733 66.314 521.532 65.8287 521.532 65.194V61.008H519.194V60.168H521.532V58.292L522.554 58.054V60.168H525.704V61.008H522.554V65.026C522.554 65.4553 522.671 65.7633 522.904 65.95C523.137 66.1367 523.473 66.23 523.912 66.23C524.183 66.23 524.463 66.202 524.752 66.146C525.041 66.09 525.359 65.9967 525.704 65.866V66.79C525.396 66.902 525.093 66.986 524.794 67.042C524.495 67.1073 524.197 67.14 523.898 67.14ZM538.951 67.14C538.457 67.14 538.013 67.0513 537.621 66.874C537.239 66.6967 536.94 66.454 536.725 66.146C536.511 65.8287 536.403 65.4647 536.403 65.054C536.403 64.6433 536.511 64.284 536.725 63.976C536.949 63.668 537.257 63.43 537.649 63.262C538.051 63.094 538.513 63.01 539.035 63.01C539.446 63.01 539.829 63.052 540.183 63.136C540.538 63.2107 540.874 63.3413 541.191 63.528V62.744C541.191 62.1373 541.037 61.68 540.729 61.372C540.421 61.064 539.964 60.91 539.357 60.91C539.012 60.91 538.667 60.9613 538.321 61.064C537.976 61.1573 537.589 61.3253 537.159 61.568L536.739 60.798C537.234 60.5273 537.705 60.336 538.153 60.224C538.601 60.112 539.045 60.056 539.483 60.056C540.351 60.056 541.019 60.2753 541.485 60.714C541.961 61.1527 542.199 61.7827 542.199 62.604V67H541.191V66.216C540.874 66.5333 540.529 66.7667 540.155 66.916C539.791 67.0653 539.39 67.14 538.951 67.14ZM537.383 65.026C537.383 65.4273 537.547 65.7493 537.873 65.992C538.2 66.2347 538.629 66.356 539.161 66.356C539.563 66.356 539.927 66.2953 540.253 66.174C540.589 66.0433 540.902 65.838 541.191 65.558V64.242C540.902 64.0647 540.594 63.9387 540.267 63.864C539.941 63.7893 539.581 63.752 539.189 63.752C538.648 63.752 538.209 63.8687 537.873 64.102C537.547 64.3353 537.383 64.6433 537.383 65.026ZM545.064 67V66.16H546.94V61.008H545.064V60.168H547.962V61.694C548.167 61.1713 548.475 60.77 548.886 60.49C549.296 60.2007 549.772 60.056 550.314 60.056C550.528 60.056 550.72 60.0747 550.888 60.112C551.056 60.14 551.256 60.1913 551.49 60.266V61.204C551.256 61.1293 551.032 61.0687 550.818 61.022C550.612 60.9753 550.407 60.952 550.202 60.952C549.698 60.952 549.25 61.0827 548.858 61.344C548.466 61.6053 548.167 61.9787 547.962 62.464V66.16H549.95V67H545.064ZM553.458 67V66.16H555.334V61.008H553.458V60.168H556.356V61.694C556.562 61.1713 556.87 60.77 557.28 60.49C557.691 60.2007 558.167 60.056 558.708 60.056C558.923 60.056 559.114 60.0747 559.282 60.112C559.45 60.14 559.651 60.1913 559.884 60.266V61.204C559.651 61.1293 559.427 61.0687 559.212 61.022C559.007 60.9753 558.802 60.952 558.596 60.952C558.092 60.952 557.644 61.0827 557.252 61.344C556.86 61.6053 556.562 61.9787 556.356 62.464V66.16H558.344V67H553.458ZM564.751 67.14C564.125 67.14 563.561 66.986 563.057 66.678C562.562 66.3607 562.165 65.936 561.867 65.404C561.577 64.872 561.433 64.27 561.433 63.598C561.433 62.926 561.577 62.324 561.867 61.792C562.165 61.2507 562.562 60.826 563.057 60.518C563.561 60.21 564.125 60.056 564.751 60.056C565.376 60.056 565.936 60.21 566.431 60.518C566.935 60.826 567.331 61.2507 567.621 61.792C567.919 62.324 568.069 62.926 568.069 63.598C568.069 64.27 567.919 64.872 567.621 65.404C567.331 65.936 566.935 66.3607 566.431 66.678C565.936 66.986 565.376 67.14 564.751 67.14ZM564.751 66.23C565.199 66.23 565.595 66.118 565.941 65.894C566.286 65.6607 566.557 65.348 566.753 64.956C566.958 64.5547 567.061 64.102 567.061 63.598C567.061 63.0847 566.958 62.632 566.753 62.24C566.557 61.848 566.286 61.54 565.941 61.316C565.595 61.0827 565.199 60.966 564.751 60.966C564.303 60.966 563.906 61.0827 563.561 61.316C563.215 61.54 562.94 61.848 562.735 62.24C562.539 62.632 562.441 63.0847 562.441 63.598C562.441 64.102 562.539 64.5547 562.735 64.956C562.94 65.348 563.215 65.6607 563.561 65.894C563.906 66.118 564.303 66.23 564.751 66.23ZM570.835 67L569.477 60.168H570.387L571.353 65.586L572.725 60.168H573.635L575.021 65.586L575.973 60.168H576.813L575.455 67H574.531L573.159 61.498L571.787 67H570.835Z" fill="white"/>
<path d="M347.592 25.176C346.792 25.176 346.045 25.032 345.352 24.744C344.669 24.4453 344.067 24.0347 343.544 23.512C343.021 22.9787 342.616 22.3653 342.328 21.672C342.04 20.968 341.896 20.2107 341.896 19.4C341.896 18.5893 342.04 17.8373 342.328 17.144C342.616 16.44 343.021 15.8267 343.544 15.304C344.067 14.7707 344.669 14.36 345.352 14.072C346.045 13.7733 346.792 13.624 347.592 13.624C348.147 13.624 348.675 13.6987 349.176 13.848C349.688 13.9867 350.168 14.1947 350.616 14.472C351.064 14.7387 351.464 15.0693 351.816 15.464L351 16.312C350.584 15.8107 350.072 15.4267 349.464 15.16C348.867 14.8827 348.243 14.744 347.592 14.744C346.963 14.744 346.376 14.8613 345.832 15.096C345.288 15.3307 344.813 15.6613 344.408 16.088C344.013 16.5147 343.704 17.0107 343.48 17.576C343.256 18.1307 343.144 18.7387 343.144 19.4C343.144 20.0507 343.256 20.6587 343.48 21.224C343.704 21.7893 344.013 22.2853 344.408 22.712C344.813 23.1387 345.288 23.4693 345.832 23.704C346.376 23.9387 346.963 24.056 347.592 24.056C348.243 24.056 348.867 23.9173 349.464 23.64C350.072 23.3627 350.584 22.9787 351 22.488L351.816 23.336C351.464 23.7307 351.064 24.0667 350.616 24.344C350.168 24.6107 349.688 24.8187 349.176 24.968C348.675 25.1067 348.147 25.176 347.592 25.176ZM357.031 25.128C356.306 25.128 355.655 24.952 355.079 24.6C354.503 24.248 354.05 23.768 353.719 23.16C353.388 22.552 353.223 21.864 353.223 21.096C353.223 20.328 353.388 19.64 353.719 19.032C354.05 18.424 354.503 17.944 355.079 17.592C355.655 17.24 356.306 17.064 357.031 17.064C357.746 17.064 358.386 17.24 358.951 17.592C359.527 17.944 359.98 18.424 360.311 19.032C360.642 19.64 360.807 20.328 360.807 21.096C360.807 21.864 360.642 22.552 360.311 23.16C359.98 23.768 359.527 24.248 358.951 24.6C358.386 24.952 357.746 25.128 357.031 25.128ZM357.015 24.104C357.527 24.104 357.98 23.976 358.375 23.72C358.77 23.4533 359.079 23.0907 359.303 22.632C359.538 22.1733 359.655 21.6613 359.655 21.096C359.655 20.52 359.538 20.008 359.303 19.56C359.079 19.1013 358.77 18.744 358.375 18.488C357.98 18.2213 357.527 18.088 357.015 18.088C356.503 18.088 356.05 18.2213 355.655 18.488C355.26 18.744 354.946 19.1013 354.711 19.56C354.487 20.008 354.375 20.52 354.375 21.096C354.375 21.6613 354.487 22.1733 354.711 22.632C354.946 23.0907 355.26 23.4533 355.655 23.72C356.05 23.976 356.503 24.104 357.015 24.104ZM362.856 25V13.448L364.024 13.208V25H362.856ZM369.875 25.128C369.149 25.128 368.499 24.952 367.923 24.6C367.347 24.248 366.893 23.768 366.563 23.16C366.232 22.552 366.067 21.864 366.067 21.096C366.067 20.328 366.232 19.64 366.563 19.032C366.893 18.424 367.347 17.944 367.923 17.592C368.499 17.24 369.149 17.064 369.875 17.064C370.589 17.064 371.229 17.24 371.795 17.592C372.371 17.944 372.824 18.424 373.155 19.032C373.485 19.64 373.651 20.328 373.651 21.096C373.651 21.864 373.485 22.552 373.155 23.16C372.824 23.768 372.371 24.248 371.795 24.6C371.229 24.952 370.589 25.128 369.875 25.128ZM369.859 24.104C370.371 24.104 370.824 23.976 371.219 23.72C371.613 23.4533 371.923 23.0907 372.147 22.632C372.381 22.1733 372.499 21.6613 372.499 21.096C372.499 20.52 372.381 20.008 372.147 19.56C371.923 19.1013 371.613 18.744 371.219 18.488C370.824 18.2213 370.371 18.088 369.859 18.088C369.347 18.088 368.893 18.2213 368.499 18.488C368.104 18.744 367.789 19.1013 367.555 19.56C367.331 20.008 367.219 20.52 367.219 21.096C367.219 21.6613 367.331 22.1733 367.555 22.632C367.789 23.0907 368.104 23.4533 368.499 23.72C368.893 23.976 369.347 24.104 369.859 24.104ZM375.7 25V17.192H376.868V18.792C377.071 18.248 377.359 17.8267 377.732 17.528C378.116 17.2187 378.553 17.064 379.044 17.064C379.183 17.064 379.311 17.0747 379.428 17.096C379.545 17.1067 379.663 17.1333 379.78 17.176V18.232C379.652 18.1893 379.513 18.1573 379.364 18.136C379.225 18.104 379.092 18.088 378.964 18.088C378.484 18.088 378.063 18.2267 377.7 18.504C377.348 18.7813 377.071 19.1707 376.868 19.672V25H375.7ZM387.475 25.16C386.835 25.16 386.243 25.064 385.699 24.872C385.155 24.6693 384.691 24.3813 384.307 24.008L384.931 23.24C385.401 23.5813 385.833 23.832 386.227 23.992C386.622 24.1413 387.027 24.216 387.443 24.216C388.009 24.216 388.478 24.0827 388.851 23.816C389.225 23.5493 389.411 23.208 389.411 22.792C389.411 22.472 389.299 22.2213 389.075 22.04C388.862 21.8587 388.505 21.72 388.003 21.624L386.723 21.4C385.966 21.2613 385.406 21.0267 385.043 20.696C384.691 20.3653 384.515 19.9173 384.515 19.352C384.515 18.904 384.633 18.5093 384.867 18.168C385.113 17.8267 385.449 17.56 385.875 17.368C386.302 17.1653 386.787 17.064 387.331 17.064C387.865 17.064 388.371 17.144 388.851 17.304C389.331 17.4533 389.817 17.6987 390.307 18.04L389.731 18.856C389.326 18.568 388.921 18.36 388.515 18.232C388.11 18.0933 387.699 18.024 387.283 18.024C386.771 18.024 386.361 18.136 386.051 18.36C385.742 18.584 385.587 18.888 385.587 19.272C385.587 19.592 385.683 19.8373 385.875 20.008C386.078 20.1787 386.43 20.3067 386.931 20.392L388.243 20.632C389.033 20.7707 389.609 21.0107 389.971 21.352C390.334 21.6933 390.515 22.152 390.515 22.728C390.515 23.1867 390.382 23.6027 390.115 23.976C389.849 24.3387 389.486 24.6267 389.027 24.84C388.569 25.0533 388.051 25.16 387.475 25.16ZM395.876 25.128C395.151 25.128 394.495 24.952 393.908 24.6C393.332 24.2373 392.873 23.752 392.532 23.144C392.191 22.5253 392.02 21.8427 392.02 21.096C392.02 20.3387 392.191 19.656 392.532 19.048C392.873 18.44 393.332 17.96 393.908 17.608C394.495 17.2453 395.151 17.064 395.876 17.064C396.452 17.064 397.001 17.1707 397.524 17.384C398.047 17.5973 398.5 17.896 398.884 18.28L398.132 19.096C397.855 18.7867 397.519 18.5467 397.124 18.376C396.729 18.2053 396.329 18.12 395.924 18.12C395.412 18.12 394.948 18.2533 394.532 18.52C394.127 18.7867 393.801 19.144 393.556 19.592C393.311 20.04 393.188 20.5413 393.188 21.096C393.188 21.6507 393.311 22.152 393.556 22.6C393.801 23.048 394.127 23.4053 394.532 23.672C394.948 23.9387 395.412 24.072 395.924 24.072C396.329 24.072 396.729 23.9867 397.124 23.816C397.519 23.6347 397.855 23.3947 398.132 23.096L398.884 23.912C398.5 24.296 398.047 24.5947 397.524 24.808C397.001 25.0213 396.452 25.128 395.876 25.128ZM400.513 25V13.448L401.681 13.208V18.456C401.979 17.9867 402.337 17.64 402.753 17.416C403.169 17.1813 403.638 17.064 404.161 17.064C404.726 17.064 405.217 17.1867 405.633 17.432C406.059 17.6667 406.39 18.0027 406.625 18.44C406.87 18.8667 406.993 19.368 406.993 19.944V25H405.825V20.28C405.825 19.5867 405.633 19.0427 405.249 18.648C404.875 18.2427 404.369 18.04 403.729 18.04C403.302 18.04 402.913 18.1413 402.561 18.344C402.209 18.5467 401.915 18.8453 401.681 19.24V25H400.513ZM412.861 25.16C412.135 25.16 411.479 24.984 410.893 24.632C410.306 24.2693 409.842 23.784 409.501 23.176C409.159 22.5573 408.989 21.864 408.989 21.096C408.989 20.328 409.149 19.64 409.469 19.032C409.799 18.424 410.242 17.944 410.797 17.592C411.351 17.24 411.97 17.064 412.653 17.064C413.346 17.064 413.959 17.24 414.493 17.592C415.037 17.9333 415.463 18.4027 415.773 19C416.093 19.5867 416.253 20.2533 416.253 21V21.352H410.125C410.167 21.8853 410.311 22.3653 410.557 22.792C410.813 23.208 411.143 23.5387 411.549 23.784C411.965 24.0187 412.418 24.136 412.909 24.136C413.314 24.136 413.703 24.0667 414.077 23.928C414.461 23.7787 414.786 23.5813 415.053 23.336L415.789 24.12C415.341 24.472 414.877 24.7333 414.397 24.904C413.917 25.0747 413.405 25.16 412.861 25.16ZM410.157 20.52H415.101C415.047 20.0507 414.903 19.6347 414.669 19.272C414.445 18.8987 414.157 18.6053 413.805 18.392C413.463 18.1787 413.079 18.072 412.653 18.072C412.226 18.072 411.837 18.1787 411.485 18.392C411.133 18.5947 410.839 18.8827 410.605 19.256C410.381 19.6187 410.231 20.04 410.157 20.52ZM418.247 25V17.192H419.415V18.408C419.714 17.96 420.055 17.624 420.439 17.4C420.823 17.176 421.255 17.064 421.735 17.064C422.29 17.064 422.775 17.2027 423.191 17.48C423.607 17.7467 423.922 18.1147 424.135 18.584C424.444 18.0827 424.812 17.704 425.239 17.448C425.676 17.192 426.178 17.064 426.743 17.064C427.266 17.064 427.724 17.1867 428.119 17.432C428.524 17.6773 428.839 18.0187 429.063 18.456C429.287 18.8827 429.399 19.384 429.399 19.96V25H428.231V20.248C428.231 19.5653 428.06 19.0267 427.719 18.632C427.378 18.2373 426.908 18.04 426.311 18.04C425.906 18.04 425.538 18.1413 425.207 18.344C424.887 18.5467 424.604 18.856 424.359 19.272C424.38 19.3787 424.396 19.4907 424.407 19.608C424.418 19.7253 424.423 19.8427 424.423 19.96V25H423.255V20.248C423.255 19.5653 423.079 19.0267 422.727 18.632C422.386 18.2373 421.916 18.04 421.319 18.04C420.519 18.04 419.884 18.424 419.415 19.192V25H418.247ZM435.283 25.16C434.557 25.16 433.901 24.984 433.315 24.632C432.728 24.2693 432.264 23.784 431.923 23.176C431.581 22.5573 431.411 21.864 431.411 21.096C431.411 20.328 431.571 19.64 431.891 19.032C432.221 18.424 432.664 17.944 433.219 17.592C433.773 17.24 434.392 17.064 435.075 17.064C435.768 17.064 436.381 17.24 436.915 17.592C437.459 17.9333 437.885 18.4027 438.195 19C438.515 19.5867 438.675 20.2533 438.675 21V21.352H432.547C432.589 21.8853 432.733 22.3653 432.979 22.792C433.235 23.208 433.565 23.5387 433.971 23.784C434.387 24.0187 434.84 24.136 435.331 24.136C435.736 24.136 436.125 24.0667 436.499 23.928C436.883 23.7787 437.208 23.5813 437.475 23.336L438.211 24.12C437.763 24.472 437.299 24.7333 436.819 24.904C436.339 25.0747 435.827 25.16 435.283 25.16ZM432.579 20.52H437.523C437.469 20.0507 437.325 19.6347 437.091 19.272C436.867 18.8987 436.579 18.6053 436.227 18.392C435.885 18.1787 435.501 18.072 435.075 18.072C434.648 18.072 434.259 18.1787 433.907 18.392C433.555 18.5947 433.261 18.8827 433.027 19.256C432.803 19.6187 432.653 20.04 432.579 20.52ZM441.469 25.128C441.234 25.128 441.031 25.0427 440.861 24.872C440.701 24.7013 440.621 24.4987 440.621 24.264C440.621 24.0187 440.701 23.816 440.861 23.656C441.031 23.4853 441.234 23.4 441.469 23.4C441.703 23.4 441.901 23.4853 442.061 23.656C442.231 23.816 442.317 24.0187 442.317 24.264C442.317 24.4987 442.231 24.7013 442.061 24.872C441.901 25.0427 441.703 25.128 441.469 25.128ZM441.469 18.776C441.234 18.776 441.031 18.6907 440.861 18.52C440.701 18.3493 440.621 18.1467 440.621 17.912C440.621 17.6667 440.701 17.464 440.861 17.304C441.031 17.1333 441.234 17.048 441.469 17.048C441.703 17.048 441.901 17.1333 442.061 17.304C442.231 17.464 442.317 17.6667 442.317 17.912C442.317 18.1467 442.231 18.3493 442.061 18.52C441.901 18.6907 441.703 18.776 441.469 18.776Z" fill="#151515"/>
<mask id="path-35-inside-5_82_10520" fill="white">
<path d="M460 6C460 4.34315 461.343 3 463 3H508V35H463C461.343 35 460 33.6569 460 32V6Z"/>
</mask>
<path d="M460 6C460 4.34315 461.343 3 463 3H508V35H463C461.343 35 460 33.6569 460 32V6Z" fill="white"/>
<path d="M508 3H509V2H508V3ZM508 35V36H509V35H508ZM463 3V4H508V3V2H463V3ZM508 3H507V35H508H509V3H508ZM508 35V34H463V35V36H508V35ZM460 32H461V6H460H459V32H460ZM463 35V34C461.895 34 461 33.1046 461 32H460H459C459 34.2091 460.791 36 463 36V35ZM463 3V2C460.791 2 459 3.79086 459 6H460H461C461 4.89543 461.895 4 463 4V3Z" fill="#C7C7C7" mask="url(#path-35-inside-5_82_10520)"/>
<g clip-path="url(#clip3_82_10520)">
<path d="M484 23.5C481.519 23.5 479.5 21.4812 479.5 19C479.5 16.5188 481.519 14.5 484 14.5C486.481 14.5 488.5 16.5188 488.5 19C488.5 21.4812 486.481 23.5 484 23.5ZM484 15.5C482.07 15.5 480.5 17.0701 480.5 19C480.5 20.9299 482.07 22.5 484 22.5C485.93 22.5 487.5 20.9299 487.5 19C487.5 17.0701 485.93 15.5 484 15.5Z" fill="#151515"/>
<path d="M484 13.5C483.724 13.5 483.5 13.2761 483.5 13V11.5C483.5 11.2239 483.724 11 484 11C484.276 11 484.5 11.2239 484.5 11.5V13C484.5 13.2761 484.276 13.5 484 13.5Z" fill="#151515"/>
<path d="M484 27C483.724 27 483.5 26.7761 483.5 26.5V25C483.5 24.7239 483.724 24.5 484 24.5C484.276 24.5 484.5 24.7239 484.5 25V26.5C484.5 26.7761 484.276 27 484 27Z" fill="#151515"/>
<path d="M478 19.5H476.5C476.224 19.5 476 19.2761 476 19C476 18.7239 476.224 18.5 476.5 18.5H478C478.276 18.5 478.5 18.7239 478.5 19C478.5 19.2761 478.276 19.5 478 19.5Z" fill="#151515"/>
<path d="M491.5 19.5H490C489.724 19.5 489.5 19.2761 489.5 19C489.5 18.7239 489.724 18.5 490 18.5H491.5C491.776 18.5 492 18.7239 492 19C492 19.2761 491.776 19.5 491.5 19.5Z" fill="#151515"/>
<path d="M478.697 24.8033C478.569 24.8033 478.441 24.7544 478.343 24.6568C478.148 24.4615 478.148 24.1451 478.343 23.9497L479.404 22.8892C479.599 22.6939 479.916 22.6939 480.111 22.8892C480.306 23.0845 480.306 23.4009 480.111 23.5962L479.05 24.6568C478.953 24.7544 478.825 24.8033 478.697 24.8033Z" fill="#151515"/>
<path d="M488.243 15.2574C488.115 15.2574 487.987 15.2085 487.889 15.1109C487.694 14.9156 487.694 14.5992 487.889 14.4038L488.95 13.3433C489.145 13.148 489.461 13.148 489.657 13.3433C489.852 13.5386 489.852 13.855 489.657 14.0503L488.596 15.1109C488.499 15.2085 488.371 15.2574 488.243 15.2574Z" fill="#151515"/>
<path d="M479.757 15.2572C479.629 15.2572 479.501 15.2084 479.404 15.1107L478.343 14.0502C478.148 13.8549 478.148 13.5385 478.343 13.3431C478.539 13.1478 478.855 13.1478 479.05 13.3431L480.111 14.4037C480.306 14.599 480.306 14.9154 480.111 15.1107C480.013 15.2084 479.885 15.2572 479.757 15.2572Z" fill="#151515"/>
<path d="M489.303 24.8031C489.175 24.8031 489.047 24.7543 488.95 24.6566L487.889 23.5961C487.694 23.4008 487.694 23.0844 487.889 22.889C488.084 22.6937 488.401 22.6937 488.596 22.889L489.657 23.9496C489.852 24.1449 489.852 24.4613 489.657 24.6566C489.559 24.7543 489.431 24.8031 489.303 24.8031Z" fill="#151515"/>
</g>
<mask id="path-46-inside-6_82_10520" fill="white">
<path d="M507 3H555V35H507V3Z"/>
</mask>
<path d="M507 3H555V35H507V3Z" fill="#0066CC"/>
<path d="M507 3V2H506V3H507ZM555 3H556V2H555V3ZM555 35V36H556V35H555ZM507 35H506V36H507V35ZM507 3V4H555V3V2H507V3ZM555 3H554V35H555H556V3H555ZM555 35V34H507V35V36H555V35ZM507 35H508V3H507H506V35H507Z" fill="#0066CC" mask="url(#path-46-inside-6_82_10520)"/>
<g clip-path="url(#clip4_82_10520)">
<path d="M531.229 25.9999C527.243 25.9999 524 22.7572 524 18.7717C524 15.8068 525.857 13.0991 528.622 12.0334C528.806 11.9628 529.017 12.0073 529.156 12.1479C529.296 12.2887 529.339 12.4989 529.266 12.6835C528.987 13.3923 528.845 14.1471 528.845 14.9269C528.845 18.3613 531.639 21.1552 535.073 21.1552C535.853 21.1552 536.608 21.0133 537.316 20.7335C537.5 20.6615 537.711 20.7035 537.852 20.8436C537.993 20.9833 538.038 21.1932 537.966 21.3785C536.901 24.1427 534.193 25.9999 531.229 25.9999ZM527.996 13.4521C526.169 14.5666 525 16.5883 525 18.7717C525 22.206 527.794 24.9999 531.229 24.9999C533.412 24.9999 535.434 23.8307 536.548 22.0041C536.067 22.1047 535.575 22.1552 535.073 22.1552C531.087 22.1552 527.845 18.9125 527.845 14.9269C527.845 14.4255 527.896 13.9325 527.996 13.4521Z" fill="white"/>
</g>
<mask id="path-49-inside-7_82_10520" fill="white">
<path d="M554 3H599C600.657 3 602 4.34315 602 6V32C602 33.6569 600.657 35 599 35H554V3Z"/>
</mask>
<path d="M554 3H599C600.657 3 602 4.34315 602 6V32C602 33.6569 600.657 35 599 35H554V3Z" fill="white"/>
<path d="M554 2H599C601.209 2 603 3.79086 603 6H601C601 4.89543 600.105 4 599 4H554V2ZM603 32C603 34.2091 601.209 36 599 36H554V34H599C600.105 34 601 33.1046 601 32H603ZM554 35V3V35ZM599 2C601.209 2 603 3.79086 603 6V32C603 34.2091 601.209 36 599 36V34C600.105 34 601 33.1046 601 32V6C601 4.89543 600.105 4 599 4V2Z" fill="#C7C7C7" mask="url(#path-49-inside-7_82_10520)"/>
<g clip-path="url(#clip5_82_10520)">
<path d="M581.97 19C581.721 19 581.506 18.8147 581.474 18.5617C581.277 16.9704 580.029 15.7243 578.44 15.5312C578.166 15.498 577.97 15.2487 578.004 14.9746C578.037 14.7004 578.285 14.5056 578.561 14.5385C580.606 14.7871 582.212 16.3906 582.467 18.4382C582.501 18.7123 582.306 18.9621 582.032 18.996C582.011 18.9987 581.99 19 581.97 19Z" fill="#151515"/>
<path d="M578 13.5C577.724 13.5 577.5 13.2761 577.5 13V11.5C577.5 11.2239 577.724 11 578 11C578.276 11 578.5 11.2239 578.5 11.5V13C578.5 13.2761 578.276 13.5 578 13.5Z" fill="#151515"/>
<path d="M578 27C577.724 27 577.5 26.7761 577.5 26.5V25C577.5 24.7239 577.724 24.5 578 24.5C578.276 24.5 578.5 24.7239 578.5 25V26.5C578.5 26.7761 578.276 27 578 27Z" fill="#151515"/>
<path d="M572 19.5H570.5C570.224 19.5 570 19.2761 570 19C570 18.7239 570.224 18.5 570.5 18.5H572C572.276 18.5 572.5 18.7239 572.5 19C572.5 19.2761 572.276 19.5 572 19.5Z" fill="#151515"/>
<path d="M585.5 19.5H584C583.724 19.5 583.5 19.2761 583.5 19C583.5 18.7239 583.724 18.5 584 18.5H585.5C585.776 18.5 586 18.7239 586 19C586 19.2761 585.776 19.5 585.5 19.5Z" fill="#151515"/>
<path d="M572.697 24.8033C572.569 24.8033 572.441 24.7544 572.343 24.6568C572.148 24.4615 572.148 24.1451 572.343 23.9497L573.404 22.8892C573.599 22.6939 573.916 22.6939 574.111 22.8892C574.306 23.0845 574.306 23.4009 574.111 23.5962L573.05 24.6568C572.953 24.7544 572.825 24.8033 572.697 24.8033Z" fill="#151515"/>
<path d="M582.243 15.2574C582.115 15.2574 581.987 15.2085 581.889 15.1109C581.694 14.9156 581.694 14.5992 581.889 14.4038L582.95 13.3433C583.145 13.148 583.461 13.148 583.657 13.3433C583.852 13.5386 583.852 13.855 583.657 14.0503L582.596 15.1109C582.499 15.2085 582.371 15.2574 582.243 15.2574Z" fill="#151515"/>
<path d="M573.757 15.2572C573.629 15.2572 573.501 15.2084 573.404 15.1107L572.343 14.0502C572.148 13.8549 572.148 13.5385 572.343 13.3431C572.539 13.1478 572.855 13.1478 573.05 13.3431L574.111 14.4037C574.306 14.599 574.306 14.9154 574.111 15.1107C574.013 15.2084 573.885 15.2572 573.757 15.2572Z" fill="#151515"/>
<path d="M583.303 24.8031C583.175 24.8031 583.047 24.7543 582.95 24.6566L581.889 23.5961C581.694 23.4008 581.694 23.0844 581.889 22.889C582.084 22.6937 582.401 22.6937 582.596 22.889L583.657 23.9496C583.852 24.1449 583.852 24.4613 583.657 24.6566C583.559 24.7543 583.431 24.8031 583.303 24.8031Z" fill="#151515"/>
<path d="M578 23.4375C575.553 23.4375 573.562 21.4468 573.562 19C573.562 17.2571 574.588 15.6697 576.176 14.9561C576.342 14.8804 576.537 14.9177 576.666 15.0469C576.794 15.1765 576.829 15.3721 576.752 15.5378C576.543 15.9922 576.438 16.4841 576.438 17C576.438 18.9643 578.036 20.5625 580 20.5625C580.516 20.5625 581.008 20.4565 581.462 20.2475C581.627 20.1721 581.823 20.2058 581.953 20.3342C582.083 20.4628 582.119 20.6581 582.044 20.8244C581.33 22.4118 579.743 23.4375 578 23.4375ZM575.607 16.3609C574.876 17.0247 574.438 17.979 574.438 19C574.438 20.9644 576.036 22.5625 578 22.5625C579.021 22.5625 579.975 22.1243 580.639 21.3926C580.43 21.4224 580.216 21.4375 580 21.4375C577.553 21.4375 575.562 19.4468 575.562 17C575.562 16.7835 575.578 16.5703 575.607 16.3609Z" fill="#151515"/>
</g>
<mask id="path-61-outside-8_82_10520" maskUnits="userSpaceOnUse" x="504" y="0" width="53" height="38" fill="black">
<rect fill="white" x="504" width="53" height="38"/>
<path d="M506 5C506 3.34315 507.343 2 509 2H552C553.657 2 555 3.34315 555 5V33C555 34.6569 553.657 36 552 36H509C507.343 36 506 34.6569 506 33V5Z"/>
</mask>
<path d="M509 2V4H552V2V0H509V2ZM555 5H553V33H555H557V5H555ZM552 36V34H509V36V38H552V36ZM506 33H508V5H506H504V33H506ZM509 36V34C508.448 34 508 33.5523 508 33H506H504C504 35.7614 506.239 38 509 38V36ZM555 33H553C553 33.5523 552.552 34 552 34V36V38C554.761 38 557 35.7614 557 33H555ZM552 2V4C552.552 4 553 4.44771 553 5H555H557C557 2.23858 554.761 0 552 0V2ZM509 2V0C506.239 0 504 2.23858 504 5H506H508C508 4.44772 508.448 4 509 4V2Z" fill="#0066CC" mask="url(#path-61-outside-8_82_10520)"/>
<rect x="122" y="46" width="42" height="33" rx="3" fill="#B300B3"/>
<path d="M133.668 67V58.138H130.42V57.2H137.98V58.138H134.746V67H133.668ZM141.979 67.14C141.484 67.14 141.041 67.0513 140.649 66.874C140.266 66.6967 139.967 66.454 139.753 66.146C139.538 65.8287 139.431 65.4647 139.431 65.054C139.431 64.6433 139.538 64.284 139.753 63.976C139.977 63.668 140.285 63.43 140.677 63.262C141.078 63.094 141.54 63.01 142.063 63.01C142.473 63.01 142.856 63.052 143.211 63.136C143.565 63.2107 143.901 63.3413 144.219 63.528V62.744C144.219 62.1373 144.065 61.68 143.757 61.372C143.449 61.064 142.991 60.91 142.385 60.91C142.039 60.91 141.694 60.9613 141.349 61.064C141.003 61.1573 140.616 61.3253 140.187 61.568L139.767 60.798C140.261 60.5273 140.733 60.336 141.181 60.224C141.629 60.112 142.072 60.056 142.511 60.056C143.379 60.056 144.046 60.2753 144.513 60.714C144.989 61.1527 145.227 61.7827 145.227 62.604V67H144.219V66.216C143.901 66.5333 143.556 66.7667 143.183 66.916C142.819 67.0653 142.417 67.14 141.979 67.14ZM140.411 65.026C140.411 65.4273 140.574 65.7493 140.901 65.992C141.227 66.2347 141.657 66.356 142.189 66.356C142.59 66.356 142.954 66.2953 143.281 66.174C143.617 66.0433 143.929 65.838 144.219 65.558V64.242C143.929 64.0647 143.621 63.9387 143.295 63.864C142.968 63.7893 142.609 63.752 142.217 63.752C141.675 63.752 141.237 63.8687 140.901 64.102C140.574 64.3353 140.411 64.6433 140.411 65.026ZM148.063 67V56.892L149.085 56.682V61.036C149.356 60.728 149.673 60.4947 150.037 60.336C150.401 60.168 150.793 60.084 151.213 60.084C151.82 60.084 152.361 60.2427 152.837 60.56C153.322 60.868 153.705 61.288 153.985 61.82C154.274 62.3427 154.419 62.9353 154.419 63.598C154.419 64.2513 154.279 64.844 153.999 65.376C153.719 65.8987 153.341 66.3187 152.865 66.636C152.398 66.944 151.866 67.098 151.269 67.098C150.821 67.098 150.41 67.014 150.037 66.846C149.664 66.6687 149.346 66.4167 149.085 66.09V67H148.063ZM151.017 66.202C151.474 66.202 151.88 66.09 152.235 65.866C152.599 65.6327 152.884 65.32 153.089 64.928C153.304 64.5267 153.411 64.0787 153.411 63.584C153.411 63.08 153.304 62.632 153.089 62.24C152.884 61.848 152.599 61.54 152.235 61.316C151.88 61.092 151.474 60.98 151.017 60.98C150.634 60.98 150.27 61.064 149.925 61.232C149.589 61.3907 149.309 61.6147 149.085 61.904V65.292C149.3 65.5813 149.575 65.8053 149.911 65.964C150.247 66.1227 150.616 66.202 151.017 66.202Z" fill="white"/>
<path d="M6.592 25.176C5.792 25.176 5.04533 25.032 4.352 24.744C3.66933 24.4453 3.06667 24.0347 2.544 23.512C2.02133 22.9787 1.616 22.3653 1.328 21.672C1.04 20.968 0.896 20.2107 0.896 19.4C0.896 18.5893 1.04 17.8373 1.328 17.144C1.616 16.44 2.02133 15.8267 2.544 15.304C3.06667 14.7707 3.66933 14.36 4.352 14.072C5.04533 13.7733 5.792 13.624 6.592 13.624C7.14667 13.624 7.67467 13.6987 8.176 13.848C8.688 13.9867 9.168 14.1947 9.616 14.472C10.064 14.7387 10.464 15.0693 10.816 15.464L10 16.312C9.584 15.8107 9.072 15.4267 8.464 15.16C7.86667 14.8827 7.24267 14.744 6.592 14.744C5.96267 14.744 5.376 14.8613 4.832 15.096C4.288 15.3307 3.81333 15.6613 3.408 16.088C3.01333 16.5147 2.704 17.0107 2.48 17.576C2.256 18.1307 2.144 18.7387 2.144 19.4C2.144 20.0507 2.256 20.6587 2.48 21.224C2.704 21.7893 3.01333 22.2853 3.408 22.712C3.81333 23.1387 4.288 23.4693 4.832 23.704C5.376 23.9387 5.96267 24.056 6.592 24.056C7.24267 24.056 7.86667 23.9173 8.464 23.64C9.072 23.3627 9.584 22.9787 10 22.488L10.816 23.336C10.464 23.7307 10.064 24.0667 9.616 24.344C9.168 24.6107 8.688 24.8187 8.176 24.968C7.67467 25.1067 7.14667 25.176 6.592 25.176ZM16.031 25.128C15.3057 25.128 14.655 24.952 14.079 24.6C13.503 24.248 13.0497 23.768 12.719 23.16C12.3883 22.552 12.223 21.864 12.223 21.096C12.223 20.328 12.3883 19.64 12.719 19.032C13.0497 18.424 13.503 17.944 14.079 17.592C14.655 17.24 15.3057 17.064 16.031 17.064C16.7457 17.064 17.3857 17.24 17.951 17.592C18.527 17.944 18.9803 18.424 19.311 19.032C19.6417 19.64 19.807 20.328 19.807 21.096C19.807 21.864 19.6417 22.552 19.311 23.16C18.9803 23.768 18.527 24.248 17.951 24.6C17.3857 24.952 16.7457 25.128 16.031 25.128ZM16.015 24.104C16.527 24.104 16.9803 23.976 17.375 23.72C17.7697 23.4533 18.079 23.0907 18.303 22.632C18.5377 22.1733 18.655 21.6613 18.655 21.096C18.655 20.52 18.5377 20.008 18.303 19.56C18.079 19.1013 17.7697 18.744 17.375 18.488C16.9803 18.2213 16.527 18.088 16.015 18.088C15.503 18.088 15.0497 18.2213 14.655 18.488C14.2603 18.744 13.9457 19.1013 13.711 19.56C13.487 20.008 13.375 20.52 13.375 21.096C13.375 21.6613 13.487 22.1733 13.711 22.632C13.9457 23.0907 14.2603 23.4533 14.655 23.72C15.0497 23.976 15.503 24.104 16.015 24.104ZM21.8563 25V13.448L23.0243 13.208V25H21.8563ZM28.8748 25.128C28.1494 25.128 27.4988 24.952 26.9228 24.6C26.3468 24.248 25.8934 23.768 25.5628 23.16C25.2321 22.552 25.0668 21.864 25.0668 21.096C25.0668 20.328 25.2321 19.64 25.5628 19.032C25.8934 18.424 26.3468 17.944 26.9228 17.592C27.4988 17.24 28.1494 17.064 28.8748 17.064C29.5894 17.064 30.2294 17.24 30.7948 17.592C31.3708 17.944 31.8241 18.424 32.1548 19.032C32.4854 19.64 32.6508 20.328 32.6508 21.096C32.6508 21.864 32.4854 22.552 32.1548 23.16C31.8241 23.768 31.3708 24.248 30.7948 24.6C30.2294 24.952 29.5894 25.128 28.8748 25.128ZM28.8588 24.104C29.3708 24.104 29.8241 23.976 30.2188 23.72C30.6134 23.4533 30.9228 23.0907 31.1468 22.632C31.3814 22.1733 31.4988 21.6613 31.4988 21.096C31.4988 20.52 31.3814 20.008 31.1468 19.56C30.9228 19.1013 30.6134 18.744 30.2188 18.488C29.8241 18.2213 29.3708 18.088 28.8588 18.088C28.3468 18.088 27.8934 18.2213 27.4988 18.488C27.1041 18.744 26.7894 19.1013 26.5548 19.56C26.3308 20.008 26.2188 20.52 26.2188 21.096C26.2188 21.6613 26.3308 22.1733 26.5548 22.632C26.7894 23.0907 27.1041 23.4533 27.4988 23.72C27.8934 23.976 28.3468 24.104 28.8588 24.104ZM34.7 25V17.192H35.868V18.792C36.0707 18.248 36.3587 17.8267 36.732 17.528C37.116 17.2187 37.5533 17.064 38.044 17.064C38.1827 17.064 38.3107 17.0747 38.428 17.096C38.5453 17.1067 38.6627 17.1333 38.78 17.176V18.232C38.652 18.1893 38.5133 18.1573 38.364 18.136C38.2253 18.104 38.092 18.088 37.964 18.088C37.484 18.088 37.0627 18.2267 36.7 18.504C36.348 18.7813 36.0707 19.1707 35.868 19.672V25H34.7ZM46.4754 25.16C45.8354 25.16 45.2434 25.064 44.6994 24.872C44.1554 24.6693 43.6914 24.3813 43.3074 24.008L43.9314 23.24C44.4007 23.5813 44.8327 23.832 45.2274 23.992C45.622 24.1413 46.0274 24.216 46.4434 24.216C47.0087 24.216 47.478 24.0827 47.8514 23.816C48.2247 23.5493 48.4114 23.208 48.4114 22.792C48.4114 22.472 48.2994 22.2213 48.0754 22.04C47.862 21.8587 47.5047 21.72 47.0034 21.624L45.7234 21.4C44.966 21.2613 44.406 21.0267 44.0434 20.696C43.6914 20.3653 43.5154 19.9173 43.5154 19.352C43.5154 18.904 43.6327 18.5093 43.8674 18.168C44.1127 17.8267 44.4487 17.56 44.8754 17.368C45.302 17.1653 45.7874 17.064 46.3314 17.064C46.8647 17.064 47.3714 17.144 47.8514 17.304C48.3314 17.4533 48.8167 17.6987 49.3074 18.04L48.7314 18.856C48.326 18.568 47.9207 18.36 47.5154 18.232C47.11 18.0933 46.6994 18.024 46.2834 18.024C45.7714 18.024 45.3607 18.136 45.0514 18.36C44.742 18.584 44.5874 18.888 44.5874 19.272C44.5874 19.592 44.6834 19.8373 44.8754 20.008C45.078 20.1787 45.43 20.3067 45.9314 20.392L47.2434 20.632C48.0327 20.7707 48.6087 21.0107 48.9714 21.352C49.334 21.6933 49.5154 22.152 49.5154 22.728C49.5154 23.1867 49.382 23.6027 49.1154 23.976C48.8487 24.3387 48.486 24.6267 48.0274 24.84C47.5687 25.0533 47.0514 25.16 46.4754 25.16ZM54.8759 25.128C54.1505 25.128 53.4945 24.952 52.9079 24.6C52.3319 24.2373 51.8732 23.752 51.5319 23.144C51.1905 22.5253 51.0199 21.8427 51.0199 21.096C51.0199 20.3387 51.1905 19.656 51.5319 19.048C51.8732 18.44 52.3319 17.96 52.9079 17.608C53.4945 17.2453 54.1505 17.064 54.8759 17.064C55.4519 17.064 56.0012 17.1707 56.5239 17.384C57.0465 17.5973 57.4999 17.896 57.8839 18.28L57.1319 19.096C56.8545 18.7867 56.5185 18.5467 56.1239 18.376C55.7292 18.2053 55.3292 18.12 54.9239 18.12C54.4119 18.12 53.9479 18.2533 53.5319 18.52C53.1265 18.7867 52.8012 19.144 52.5559 19.592C52.3105 20.04 52.1879 20.5413 52.1879 21.096C52.1879 21.6507 52.3105 22.152 52.5559 22.6C52.8012 23.048 53.1265 23.4053 53.5319 23.672C53.9479 23.9387 54.4119 24.072 54.9239 24.072C55.3292 24.072 55.7292 23.9867 56.1239 23.816C56.5185 23.6347 56.8545 23.3947 57.1319 23.096L57.8839 23.912C57.4999 24.296 57.0465 24.5947 56.5239 24.808C56.0012 25.0213 55.4519 25.128 54.8759 25.128ZM59.5125 25V13.448L60.6805 13.208V18.456C60.9792 17.9867 61.3365 17.64 61.7525 17.416C62.1685 17.1813 62.6378 17.064 63.1605 17.064C63.7258 17.064 64.2165 17.1867 64.6325 17.432C65.0592 17.6667 65.3898 18.0027 65.6245 18.44C65.8698 18.8667 65.9925 19.368 65.9925 19.944V25H64.8245V20.28C64.8245 19.5867 64.6325 19.0427 64.2485 18.648C63.8752 18.2427 63.3685 18.04 62.7285 18.04C62.3018 18.04 61.9125 18.1413 61.5605 18.344C61.2085 18.5467 60.9152 18.8453 60.6805 19.24V25H59.5125ZM71.8606 25.16C71.1353 25.16 70.4793 24.984 69.8926 24.632C69.306 24.2693 68.842 23.784 68.5006 23.176C68.1593 22.5573 67.9886 21.864 67.9886 21.096C67.9886 20.328 68.1486 19.64 68.4686 19.032C68.7993 18.424 69.242 17.944 69.7966 17.592C70.3513 17.24 70.97 17.064 71.6526 17.064C72.346 17.064 72.9593 17.24 73.4926 17.592C74.0366 17.9333 74.4633 18.4027 74.7726 19C75.0926 19.5867 75.2526 20.2533 75.2526 21V21.352H69.1246C69.1673 21.8853 69.3113 22.3653 69.5566 22.792C69.8126 23.208 70.1433 23.5387 70.5486 23.784C70.9646 24.0187 71.418 24.136 71.9086 24.136C72.314 24.136 72.7033 24.0667 73.0766 23.928C73.4606 23.7787 73.786 23.5813 74.0526 23.336L74.7886 24.12C74.3406 24.472 73.8766 24.7333 73.3966 24.904C72.9166 25.0747 72.4046 25.16 71.8606 25.16ZM69.1566 20.52H74.1006C74.0473 20.0507 73.9033 19.6347 73.6686 19.272C73.4446 18.8987 73.1566 18.6053 72.8046 18.392C72.4633 18.1787 72.0793 18.072 71.6526 18.072C71.226 18.072 70.8366 18.1787 70.4846 18.392C70.1326 18.5947 69.8393 18.8827 69.6046 19.256C69.3806 19.6187 69.2313 20.04 69.1566 20.52ZM77.2469 25V17.192H78.4149V18.408C78.7135 17.96 79.0549 17.624 79.4389 17.4C79.8229 17.176 80.2549 17.064 80.7349 17.064C81.2895 17.064 81.7749 17.2027 82.1909 17.48C82.6069 17.7467 82.9215 18.1147 83.1349 18.584C83.4442 18.0827 83.8122 17.704 84.2389 17.448C84.6762 17.192 85.1775 17.064 85.7429 17.064C86.2655 17.064 86.7242 17.1867 87.1189 17.432C87.5242 17.6773 87.8389 18.0187 88.0629 18.456C88.2869 18.8827 88.3989 19.384 88.3989 19.96V25H87.2309V20.248C87.2309 19.5653 87.0602 19.0267 86.7189 18.632C86.3775 18.2373 85.9082 18.04 85.3109 18.04C84.9055 18.04 84.5375 18.1413 84.2069 18.344C83.8869 18.5467 83.6042 18.856 83.3589 19.272C83.3802 19.3787 83.3962 19.4907 83.4069 19.608C83.4175 19.7253 83.4229 19.8427 83.4229 19.96V25H82.2549V20.248C82.2549 19.5653 82.0789 19.0267 81.7269 18.632C81.3855 18.2373 80.9162 18.04 80.3189 18.04C79.5189 18.04 78.8842 18.424 78.4149 19.192V25H77.2469ZM94.2825 25.16C93.5572 25.16 92.9012 24.984 92.3145 24.632C91.7278 24.2693 91.2638 23.784 90.9225 23.176C90.5812 22.5573 90.4105 21.864 90.4105 21.096C90.4105 20.328 90.5705 19.64 90.8905 19.032C91.2212 18.424 91.6638 17.944 92.2185 17.592C92.7732 17.24 93.3918 17.064 94.0745 17.064C94.7678 17.064 95.3812 17.24 95.9145 17.592C96.4585 17.9333 96.8852 18.4027 97.1945 19C97.5145 19.5867 97.6745 20.2533 97.6745 21V21.352H91.5465C91.5892 21.8853 91.7332 22.3653 91.9785 22.792C92.2345 23.208 92.5652 23.5387 92.9705 23.784C93.3865 24.0187 93.8398 24.136 94.3305 24.136C94.7358 24.136 95.1252 24.0667 95.4985 23.928C95.8825 23.7787 96.2078 23.5813 96.4745 23.336L97.2105 24.12C96.7625 24.472 96.2985 24.7333 95.8185 24.904C95.3385 25.0747 94.8265 25.16 94.2825 25.16ZM91.5785 20.52H96.5225C96.4692 20.0507 96.3252 19.6347 96.0905 19.272C95.8665 18.8987 95.5785 18.6053 95.2265 18.392C94.8852 18.1787 94.5012 18.072 94.0745 18.072C93.6478 18.072 93.2585 18.1787 92.9065 18.392C92.5545 18.5947 92.2612 18.8827 92.0265 19.256C91.8025 19.6187 91.6532 20.04 91.5785 20.52ZM100.469 25.128C100.234 25.128 100.031 25.0427 99.8608 24.872C99.7008 24.7013 99.6208 24.4987 99.6208 24.264C99.6208 24.0187 99.7008 23.816 99.8608 23.656C100.031 23.4853 100.234 23.4 100.469 23.4C100.703 23.4 100.901 23.4853 101.061 23.656C101.231 23.816 101.317 24.0187 101.317 24.264C101.317 24.4987 101.231 24.7013 101.061 24.872C100.901 25.0427 100.703 25.128 100.469 25.128ZM100.469 18.776C100.234 18.776 100.031 18.6907 99.8608 18.52C99.7008 18.3493 99.6208 18.1467 99.6208 17.912C99.6208 17.6667 99.7008 17.464 99.8608 17.304C100.031 17.1333 100.234 17.048 100.469 17.048C100.703 17.048 100.901 17.1333 101.061 17.304C101.231 17.464 101.317 17.6667 101.317 17.912C101.317 18.1467 101.231 18.3493 101.061 18.52C100.901 18.6907 100.703 18.776 100.469 18.776Z" fill="#151515"/>
<mask id="path-66-inside-9_82_10520" fill="white">
<path d="M119 6C119 4.34315 120.343 3 122 3H167V35H122C120.343 35 119 33.6569 119 32V6Z"/>
</mask>
<path d="M119 6C119 4.34315 120.343 3 122 3H167V35H122C120.343 35 119 33.6569 119 32V6Z" fill="#0066CC"/>
<path d="M167 3H168V2H167V3ZM167 35V36H168V35H167ZM122 3V4H167V3V2H122V3ZM167 3H166V35H167H168V3H167ZM167 35V34H122V35V36H167V35ZM119 32H120V6H119H118V32H119ZM122 35V34C120.895 34 120 33.1046 120 32H119H118C118 34.2091 119.791 36 122 36V35ZM122 3V2C119.791 2 118 3.79086 118 6H119H120C120 4.89543 120.895 4 122 4V3Z" fill="#0066CC" mask="url(#path-66-inside-9_82_10520)"/>
<g clip-path="url(#clip6_82_10520)">
<path d="M143 23.5C140.519 23.5 138.5 21.4812 138.5 19C138.5 16.5188 140.519 14.5 143 14.5C145.481 14.5 147.5 16.5188 147.5 19C147.5 21.4812 145.481 23.5 143 23.5ZM143 15.5C141.07 15.5 139.5 17.0701 139.5 19C139.5 20.9299 141.07 22.5 143 22.5C144.93 22.5 146.5 20.9299 146.5 19C146.5 17.0701 144.93 15.5 143 15.5Z" fill="white"/>
<path d="M143 13.5C142.724 13.5 142.5 13.2761 142.5 13V11.5C142.5 11.2239 142.724 11 143 11C143.276 11 143.5 11.2239 143.5 11.5V13C143.5 13.2761 143.276 13.5 143 13.5Z" fill="white"/>
<path d="M143 27C142.724 27 142.5 26.7761 142.5 26.5V25C142.5 24.7239 142.724 24.5 143 24.5C143.276 24.5 143.5 24.7239 143.5 25V26.5C143.5 26.7761 143.276 27 143 27Z" fill="white"/>
<path d="M137 19.5H135.5C135.224 19.5 135 19.2761 135 19C135 18.7239 135.224 18.5 135.5 18.5H137C137.276 18.5 137.5 18.7239 137.5 19C137.5 19.2761 137.276 19.5 137 19.5Z" fill="white"/>
<path d="M150.5 19.5H149C148.724 19.5 148.5 19.2761 148.5 19C148.5 18.7239 148.724 18.5 149 18.5H150.5C150.776 18.5 151 18.7239 151 19C151 19.2761 150.776 19.5 150.5 19.5Z" fill="white"/>
<path d="M137.697 24.8033C137.569 24.8033 137.441 24.7544 137.343 24.6568C137.148 24.4615 137.148 24.1451 137.343 23.9497L138.404 22.8892C138.599 22.6939 138.916 22.6939 139.111 22.8892C139.306 23.0845 139.306 23.4009 139.111 23.5962L138.05 24.6568C137.953 24.7544 137.825 24.8033 137.697 24.8033Z" fill="white"/>
<path d="M147.243 15.2574C147.115 15.2574 146.987 15.2085 146.889 15.1109C146.694 14.9156 146.694 14.5992 146.889 14.4038L147.95 13.3433C148.145 13.148 148.461 13.148 148.657 13.3433C148.852 13.5386 148.852 13.855 148.657 14.0503L147.596 15.1109C147.499 15.2085 147.371 15.2574 147.243 15.2574Z" fill="white"/>
<path d="M138.757 15.2572C138.629 15.2572 138.501 15.2084 138.404 15.1107L137.343 14.0502C137.148 13.8549 137.148 13.5385 137.343 13.3431C137.539 13.1478 137.855 13.1478 138.05 13.3431L139.111 14.4037C139.306 14.599 139.306 14.9154 139.111 15.1107C139.013 15.2084 138.885 15.2572 138.757 15.2572Z" fill="white"/>
<path d="M148.303 24.8031C148.175 24.8031 148.047 24.7543 147.95 24.6566L146.889 23.5961C146.694 23.4008 146.694 23.0844 146.889 22.889C147.084 22.6937 147.401 22.6937 147.596 22.889L148.657 23.9496C148.852 24.1449 148.852 24.4613 148.657 24.6566C148.559 24.7543 148.431 24.8031 148.303 24.8031Z" fill="white"/>
</g>
<mask id="path-77-inside-10_82_10520" fill="white">
<path d="M166 3H214V35H166V3Z"/>
</mask>
<path d="M166 3H214V35H166V3Z" fill="white"/>
<path d="M214 3H215V2H214V3ZM214 35V36H215V35H214ZM166 3V4H214V3V2H166V3ZM214 3H213V35H214H215V3H214ZM214 35V34H166V35V36H214V35Z" fill="#C7C7C7" mask="url(#path-77-inside-10_82_10520)"/>
<g clip-path="url(#clip7_82_10520)">
<path d="M190.229 25.9999C186.243 25.9999 183 22.7572 183 18.7717C183 15.8068 184.857 13.0991 187.622 12.0334C187.806 11.9628 188.017 12.0073 188.156 12.1479C188.296 12.2887 188.339 12.4989 188.266 12.6835C187.987 13.3923 187.845 14.1471 187.845 14.9269C187.845 18.3613 190.639 21.1552 194.073 21.1552C194.853 21.1552 195.608 21.0133 196.316 20.7335C196.5 20.6615 196.711 20.7035 196.852 20.8436C196.993 20.9833 197.038 21.1932 196.966 21.3785C195.901 24.1427 193.193 25.9999 190.229 25.9999ZM186.996 13.4521C185.169 14.5666 184 16.5883 184 18.7717C184 22.206 186.794 24.9999 190.229 24.9999C192.412 24.9999 194.434 23.8307 195.548 22.0041C195.067 22.1047 194.575 22.1552 194.073 22.1552C190.087 22.1552 186.845 18.9125 186.845 14.9269C186.845 14.4255 186.896 13.9325 186.996 13.4521Z" fill="#151515"/>
</g>
<mask id="path-80-inside-11_82_10520" fill="white">
<path d="M213 3H258C259.657 3 261 4.34315 261 6V32C261 33.6569 259.657 35 258 35H213V3Z"/>
</mask>
<path d="M213 3H258C259.657 3 261 4.34315 261 6V32C261 33.6569 259.657 35 258 35H213V3Z" fill="white"/>
<path d="M213 3V2H212V3H213ZM213 35H212V36H213V35ZM213 3V4H258V3V2H213V3ZM261 6H260V32H261H262V6H261ZM258 35V34H213V35V36H258V35ZM213 35H214V3H213H212V35H213ZM261 32H260C260 33.1046 259.105 34 258 34V35V36C260.209 36 262 34.2091 262 32H261ZM258 3V4C259.105 4 260 4.89543 260 6H261H262C262 3.79086 260.209 2 258 2V3Z" fill="#C7C7C7" mask="url(#path-80-inside-11_82_10520)"/>
<g clip-path="url(#clip8_82_10520)">
<path d="M240.97 19C240.721 19 240.506 18.8147 240.474 18.5617C240.277 16.9704 239.029 15.7243 237.44 15.5312C237.166 15.498 236.97 15.2487 237.004 14.9746C237.037 14.7004 237.285 14.5056 237.561 14.5385C239.606 14.7871 241.212 16.3906 241.467 18.4382C241.501 18.7123 241.306 18.9621 241.032 18.996C241.011 18.9987 240.99 19 240.97 19Z" fill="#151515"/>
<path d="M237 13.5C236.724 13.5 236.5 13.2761 236.5 13V11.5C236.5 11.2239 236.724 11 237 11C237.276 11 237.5 11.2239 237.5 11.5V13C237.5 13.2761 237.276 13.5 237 13.5Z" fill="#151515"/>
<path d="M237 27C236.724 27 236.5 26.7761 236.5 26.5V25C236.5 24.7239 236.724 24.5 237 24.5C237.276 24.5 237.5 24.7239 237.5 25V26.5C237.5 26.7761 237.276 27 237 27Z" fill="#151515"/>
<path d="M231 19.5H229.5C229.224 19.5 229 19.2761 229 19C229 18.7239 229.224 18.5 229.5 18.5H231C231.276 18.5 231.5 18.7239 231.5 19C231.5 19.2761 231.276 19.5 231 19.5Z" fill="#151515"/>
<path d="M244.5 19.5H243C242.724 19.5 242.5 19.2761 242.5 19C242.5 18.7239 242.724 18.5 243 18.5H244.5C244.776 18.5 245 18.7239 245 19C245 19.2761 244.776 19.5 244.5 19.5Z" fill="#151515"/>
<path d="M231.697 24.8033C231.569 24.8033 231.441 24.7544 231.343 24.6568C231.148 24.4615 231.148 24.1451 231.343 23.9497L232.404 22.8892C232.599 22.6939 232.916 22.6939 233.111 22.8892C233.306 23.0845 233.306 23.4009 233.111 23.5962L232.05 24.6568C231.953 24.7544 231.825 24.8033 231.697 24.8033Z" fill="#151515"/>
<path d="M241.243 15.2574C241.115 15.2574 240.987 15.2085 240.889 15.1109C240.694 14.9156 240.694 14.5992 240.889 14.4038L241.95 13.3433C242.145 13.148 242.461 13.148 242.657 13.3433C242.852 13.5386 242.852 13.855 242.657 14.0503L241.596 15.1109C241.499 15.2085 241.371 15.2574 241.243 15.2574Z" fill="#151515"/>
<path d="M232.757 15.2572C232.629 15.2572 232.501 15.2084 232.404 15.1107L231.343 14.0502C231.148 13.8549 231.148 13.5385 231.343 13.3431C231.539 13.1478 231.855 13.1478 232.05 13.3431L233.111 14.4037C233.306 14.599 233.306 14.9154 233.111 15.1107C233.013 15.2084 232.885 15.2572 232.757 15.2572Z" fill="#151515"/>
<path d="M242.303 24.8031C242.175 24.8031 242.047 24.7543 241.95 24.6566L240.889 23.5961C240.694 23.4008 240.694 23.0844 240.889 22.889C241.084 22.6937 241.401 22.6937 241.596 22.889L242.657 23.9496C242.852 24.1449 242.852 24.4613 242.657 24.6566C242.559 24.7543 242.431 24.8031 242.303 24.8031Z" fill="#151515"/>
<path d="M237 23.4375C234.553 23.4375 232.562 21.4468 232.562 19C232.562 17.2571 233.588 15.6697 235.176 14.9561C235.342 14.8804 235.537 14.9177 235.666 15.0469C235.794 15.1765 235.829 15.3721 235.752 15.5378C235.543 15.9922 235.438 16.4841 235.438 17C235.438 18.9643 237.036 20.5625 239 20.5625C239.516 20.5625 240.008 20.4565 240.462 20.2475C240.627 20.1721 240.823 20.2058 240.953 20.3342C241.083 20.4628 241.119 20.6581 241.044 20.8244C240.33 22.4118 238.743 23.4375 237 23.4375ZM234.607 16.3609C233.876 17.0247 233.438 17.979 233.438 19C233.438 20.9644 235.036 22.5625 237 22.5625C238.021 22.5625 238.975 22.1243 239.639 21.3926C239.43 21.4224 239.216 21.4375 239 21.4375C236.553 21.4375 234.562 19.4468 234.562 17C234.562 16.7835 234.578 16.5703 234.607 16.3609Z" fill="#151515"/>
</g>
<mask id="path-92-outside-12_82_10520" maskUnits="userSpaceOnUse" x="116" y="0" width="53" height="38" fill="black">
<rect fill="white" x="116" width="53" height="38"/>
<path d="M118 5C118 3.34315 119.343 2 121 2H164C165.657 2 167 3.34315 167 5V33C167 34.6569 165.657 36 164 36H121C119.343 36 118 34.6569 118 33V5Z"/>
</mask>
<path d="M121 2V4H164V2V0H121V2ZM167 5H165V33H167H169V5H167ZM164 36V34H121V36V38H164V36ZM118 33H120V5H118H116V33H118ZM121 36V34C120.448 34 120 33.5523 120 33H118H116C116 35.7614 118.239 38 121 38V36ZM167 33H165C165 33.5523 164.552 34 164 34V36V38C166.761 38 169 35.7614 169 33H167ZM164 2V4C164.552 4 165 4.44771 165 5H167H169C169 2.23858 166.761 0 164 0V2ZM121 2V0C118.239 0 116 2.23858 116 5H118H120C120 4.44772 120.448 4 121 4V2Z" fill="#0066CC" mask="url(#path-92-outside-12_82_10520)"/>
<defs>
<clipPath id="clip0_82_10520">
<rect width="16" height="16" fill="white" transform="translate(817 11)"/>
</clipPath>
<clipPath id="clip1_82_10520">
<rect width="16" height="16" fill="white" transform="translate(864 11)"/>
</clipPath>
<clipPath id="clip2_82_10520">
<rect width="16" height="16" fill="white" transform="translate(911 11)"/>
</clipPath>
<clipPath id="clip3_82_10520">
<rect width="16" height="16" fill="white" transform="translate(476 11)"/>
</clipPath>
<clipPath id="clip4_82_10520">
<rect width="16" height="16" fill="white" transform="translate(523 11)"/>
</clipPath>
<clipPath id="clip5_82_10520">
<rect width="16" height="16" fill="white" transform="translate(570 11)"/>
</clipPath>
<clipPath id="clip6_82_10520">
<rect width="16" height="16" fill="white" transform="translate(135 11)"/>
</clipPath>
<clipPath id="clip7_82_10520">
<rect width="16" height="16" fill="white" transform="translate(182 11)"/>
</clipPath>
<clipPath id="clip8_82_10520">
<rect width="16" height="16" fill="white" transform="translate(229 11)"/>
</clipPath>
</defs>
</svg>
