<svg width="642" height="42" viewBox="0 0 642 42" fill="none" xmlns="http://www.w3.org/2000/svg">
<path d="M387.592 22.176C386.792 22.176 386.045 22.032 385.352 21.744C384.669 21.4453 384.067 21.0347 383.544 20.512C383.021 19.9787 382.616 19.3653 382.328 18.672C382.04 17.968 381.896 17.2107 381.896 16.4C381.896 15.5893 382.04 14.8373 382.328 14.144C382.616 13.44 383.021 12.8267 383.544 12.304C384.067 11.7707 384.669 11.36 385.352 11.072C386.045 10.7733 386.792 10.624 387.592 10.624C388.147 10.624 388.675 10.6987 389.176 10.848C389.688 10.9867 390.168 11.1947 390.616 11.472C391.064 11.7387 391.464 12.0693 391.816 12.464L391 13.312C390.584 12.8107 390.072 12.4267 389.464 12.16C388.867 11.8827 388.243 11.744 387.592 11.744C386.963 11.744 386.376 11.8613 385.832 12.096C385.288 12.3307 384.813 12.6613 384.408 13.088C384.013 13.5147 383.704 14.0107 383.48 14.576C383.256 15.1307 383.144 15.7387 383.144 16.4C383.144 17.0507 383.256 17.6587 383.48 18.224C383.704 18.7893 384.013 19.2853 384.408 19.712C384.813 20.1387 385.288 20.4693 385.832 20.704C386.376 20.9387 386.963 21.056 387.592 21.056C388.243 21.056 388.867 20.9173 389.464 20.64C390.072 20.3627 390.584 19.9787 391 19.488L391.816 20.336C391.464 20.7307 391.064 21.0667 390.616 21.344C390.168 21.6107 389.688 21.8187 389.176 21.968C388.675 22.1067 388.147 22.176 387.592 22.176ZM397.031 22.128C396.306 22.128 395.655 21.952 395.079 21.6C394.503 21.248 394.05 20.768 393.719 20.16C393.388 19.552 393.223 18.864 393.223 18.096C393.223 17.328 393.388 16.64 393.719 16.032C394.05 15.424 394.503 14.944 395.079 14.592C395.655 14.24 396.306 14.064 397.031 14.064C397.746 14.064 398.386 14.24 398.951 14.592C399.527 14.944 399.98 15.424 400.311 16.032C400.642 16.64 400.807 17.328 400.807 18.096C400.807 18.864 400.642 19.552 400.311 20.16C399.98 20.768 399.527 21.248 398.951 21.6C398.386 21.952 397.746 22.128 397.031 22.128ZM397.015 21.104C397.527 21.104 397.98 20.976 398.375 20.72C398.77 20.4533 399.079 20.0907 399.303 19.632C399.538 19.1733 399.655 18.6613 399.655 18.096C399.655 17.52 399.538 17.008 399.303 16.56C399.079 16.1013 398.77 15.744 398.375 15.488C397.98 15.2213 397.527 15.088 397.015 15.088C396.503 15.088 396.05 15.2213 395.655 15.488C395.26 15.744 394.946 16.1013 394.711 16.56C394.487 17.008 394.375 17.52 394.375 18.096C394.375 18.6613 394.487 19.1733 394.711 19.632C394.946 20.0907 395.26 20.4533 395.655 20.72C396.05 20.976 396.503 21.104 397.015 21.104ZM402.856 22V10.448L404.024 10.208V22H402.856ZM409.875 22.128C409.149 22.128 408.499 21.952 407.923 21.6C407.347 21.248 406.893 20.768 406.563 20.16C406.232 19.552 406.067 18.864 406.067 18.096C406.067 17.328 406.232 16.64 406.563 16.032C406.893 15.424 407.347 14.944 407.923 14.592C408.499 14.24 409.149 14.064 409.875 14.064C410.589 14.064 411.229 14.24 411.795 14.592C412.371 14.944 412.824 15.424 413.155 16.032C413.485 16.64 413.651 17.328 413.651 18.096C413.651 18.864 413.485 19.552 413.155 20.16C412.824 20.768 412.371 21.248 411.795 21.6C411.229 21.952 410.589 22.128 409.875 22.128ZM409.859 21.104C410.371 21.104 410.824 20.976 411.219 20.72C411.613 20.4533 411.923 20.0907 412.147 19.632C412.381 19.1733 412.499 18.6613 412.499 18.096C412.499 17.52 412.381 17.008 412.147 16.56C411.923 16.1013 411.613 15.744 411.219 15.488C410.824 15.2213 410.371 15.088 409.859 15.088C409.347 15.088 408.893 15.2213 408.499 15.488C408.104 15.744 407.789 16.1013 407.555 16.56C407.331 17.008 407.219 17.52 407.219 18.096C407.219 18.6613 407.331 19.1733 407.555 19.632C407.789 20.0907 408.104 20.4533 408.499 20.72C408.893 20.976 409.347 21.104 409.859 21.104ZM415.7 22V14.192H416.868V15.792C417.071 15.248 417.359 14.8267 417.732 14.528C418.116 14.2187 418.553 14.064 419.044 14.064C419.183 14.064 419.311 14.0747 419.428 14.096C419.545 14.1067 419.663 14.1333 419.78 14.176V15.232C419.652 15.1893 419.513 15.1573 419.364 15.136C419.225 15.104 419.092 15.088 418.964 15.088C418.484 15.088 418.063 15.2267 417.7 15.504C417.348 15.7813 417.071 16.1707 416.868 16.672V22H415.7ZM427.475 22.16C426.835 22.16 426.243 22.064 425.699 21.872C425.155 21.6693 424.691 21.3813 424.307 21.008L424.931 20.24C425.401 20.5813 425.833 20.832 426.227 20.992C426.622 21.1413 427.027 21.216 427.443 21.216C428.009 21.216 428.478 21.0827 428.851 20.816C429.225 20.5493 429.411 20.208 429.411 19.792C429.411 19.472 429.299 19.2213 429.075 19.04C428.862 18.8587 428.505 18.72 428.003 18.624L426.723 18.4C425.966 18.2613 425.406 18.0267 425.043 17.696C424.691 17.3653 424.515 16.9173 424.515 16.352C424.515 15.904 424.633 15.5093 424.867 15.168C425.113 14.8267 425.449 14.56 425.875 14.368C426.302 14.1653 426.787 14.064 427.331 14.064C427.865 14.064 428.371 14.144 428.851 14.304C429.331 14.4533 429.817 14.6987 430.307 15.04L429.731 15.856C429.326 15.568 428.921 15.36 428.515 15.232C428.11 15.0933 427.699 15.024 427.283 15.024C426.771 15.024 426.361 15.136 426.051 15.36C425.742 15.584 425.587 15.888 425.587 16.272C425.587 16.592 425.683 16.8373 425.875 17.008C426.078 17.1787 426.43 17.3067 426.931 17.392L428.243 17.632C429.033 17.7707 429.609 18.0107 429.971 18.352C430.334 18.6933 430.515 19.152 430.515 19.728C430.515 20.1867 430.382 20.6027 430.115 20.976C429.849 21.3387 429.486 21.6267 429.027 21.84C428.569 22.0533 428.051 22.16 427.475 22.16ZM435.876 22.128C435.151 22.128 434.495 21.952 433.908 21.6C433.332 21.2373 432.873 20.752 432.532 20.144C432.191 19.5253 432.02 18.8427 432.02 18.096C432.02 17.3387 432.191 16.656 432.532 16.048C432.873 15.44 433.332 14.96 433.908 14.608C434.495 14.2453 435.151 14.064 435.876 14.064C436.452 14.064 437.001 14.1707 437.524 14.384C438.047 14.5973 438.5 14.896 438.884 15.28L438.132 16.096C437.855 15.7867 437.519 15.5467 437.124 15.376C436.729 15.2053 436.329 15.12 435.924 15.12C435.412 15.12 434.948 15.2533 434.532 15.52C434.127 15.7867 433.801 16.144 433.556 16.592C433.311 17.04 433.188 17.5413 433.188 18.096C433.188 18.6507 433.311 19.152 433.556 19.6C433.801 20.048 434.127 20.4053 434.532 20.672C434.948 20.9387 435.412 21.072 435.924 21.072C436.329 21.072 436.729 20.9867 437.124 20.816C437.519 20.6347 437.855 20.3947 438.132 20.096L438.884 20.912C438.5 21.296 438.047 21.5947 437.524 21.808C437.001 22.0213 436.452 22.128 435.876 22.128ZM440.513 22V10.448L441.681 10.208V15.456C441.979 14.9867 442.337 14.64 442.753 14.416C443.169 14.1813 443.638 14.064 444.161 14.064C444.726 14.064 445.217 14.1867 445.633 14.432C446.059 14.6667 446.39 15.0027 446.625 15.44C446.87 15.8667 446.993 16.368 446.993 16.944V22H445.825V17.28C445.825 16.5867 445.633 16.0427 445.249 15.648C444.875 15.2427 444.369 15.04 443.729 15.04C443.302 15.04 442.913 15.1413 442.561 15.344C442.209 15.5467 441.915 15.8453 441.681 16.24V22H440.513ZM452.861 22.16C452.135 22.16 451.479 21.984 450.893 21.632C450.306 21.2693 449.842 20.784 449.501 20.176C449.159 19.5573 448.989 18.864 448.989 18.096C448.989 17.328 449.149 16.64 449.469 16.032C449.799 15.424 450.242 14.944 450.797 14.592C451.351 14.24 451.97 14.064 452.653 14.064C453.346 14.064 453.959 14.24 454.493 14.592C455.037 14.9333 455.463 15.4027 455.773 16C456.093 16.5867 456.253 17.2533 456.253 18V18.352H450.125C450.167 18.8853 450.311 19.3653 450.557 19.792C450.813 20.208 451.143 20.5387 451.549 20.784C451.965 21.0187 452.418 21.136 452.909 21.136C453.314 21.136 453.703 21.0667 454.077 20.928C454.461 20.7787 454.786 20.5813 455.053 20.336L455.789 21.12C455.341 21.472 454.877 21.7333 454.397 21.904C453.917 22.0747 453.405 22.16 452.861 22.16ZM450.157 17.52H455.101C455.047 17.0507 454.903 16.6347 454.669 16.272C454.445 15.8987 454.157 15.6053 453.805 15.392C453.463 15.1787 453.079 15.072 452.653 15.072C452.226 15.072 451.837 15.1787 451.485 15.392C451.133 15.5947 450.839 15.8827 450.605 16.256C450.381 16.6187 450.231 17.04 450.157 17.52ZM458.247 22V14.192H459.415V15.408C459.714 14.96 460.055 14.624 460.439 14.4C460.823 14.176 461.255 14.064 461.735 14.064C462.29 14.064 462.775 14.2027 463.191 14.48C463.607 14.7467 463.922 15.1147 464.135 15.584C464.444 15.0827 464.812 14.704 465.239 14.448C465.676 14.192 466.178 14.064 466.743 14.064C467.266 14.064 467.724 14.1867 468.119 14.432C468.524 14.6773 468.839 15.0187 469.063 15.456C469.287 15.8827 469.399 16.384 469.399 16.96V22H468.231V17.248C468.231 16.5653 468.06 16.0267 467.719 15.632C467.378 15.2373 466.908 15.04 466.311 15.04C465.906 15.04 465.538 15.1413 465.207 15.344C464.887 15.5467 464.604 15.856 464.359 16.272C464.38 16.3787 464.396 16.4907 464.407 16.608C464.418 16.7253 464.423 16.8427 464.423 16.96V22H463.255V17.248C463.255 16.5653 463.079 16.0267 462.727 15.632C462.386 15.2373 461.916 15.04 461.319 15.04C460.519 15.04 459.884 15.424 459.415 16.192V22H458.247ZM475.283 22.16C474.557 22.16 473.901 21.984 473.315 21.632C472.728 21.2693 472.264 20.784 471.923 20.176C471.581 19.5573 471.411 18.864 471.411 18.096C471.411 17.328 471.571 16.64 471.891 16.032C472.221 15.424 472.664 14.944 473.219 14.592C473.773 14.24 474.392 14.064 475.075 14.064C475.768 14.064 476.381 14.24 476.915 14.592C477.459 14.9333 477.885 15.4027 478.195 16C478.515 16.5867 478.675 17.2533 478.675 18V18.352H472.547C472.589 18.8853 472.733 19.3653 472.979 19.792C473.235 20.208 473.565 20.5387 473.971 20.784C474.387 21.0187 474.84 21.136 475.331 21.136C475.736 21.136 476.125 21.0667 476.499 20.928C476.883 20.7787 477.208 20.5813 477.475 20.336L478.211 21.12C477.763 21.472 477.299 21.7333 476.819 21.904C476.339 22.0747 475.827 22.16 475.283 22.16ZM472.579 17.52H477.523C477.469 17.0507 477.325 16.6347 477.091 16.272C476.867 15.8987 476.579 15.6053 476.227 15.392C475.885 15.1787 475.501 15.072 475.075 15.072C474.648 15.072 474.259 15.1787 473.907 15.392C473.555 15.5947 473.261 15.8827 473.027 16.256C472.803 16.6187 472.653 17.04 472.579 17.52ZM481.469 22.128C481.234 22.128 481.031 22.0427 480.861 21.872C480.701 21.7013 480.621 21.4987 480.621 21.264C480.621 21.0187 480.701 20.816 480.861 20.656C481.031 20.4853 481.234 20.4 481.469 20.4C481.703 20.4 481.901 20.4853 482.061 20.656C482.231 20.816 482.317 21.0187 482.317 21.264C482.317 21.4987 482.231 21.7013 482.061 21.872C481.901 22.0427 481.703 22.128 481.469 22.128ZM481.469 15.776C481.234 15.776 481.031 15.6907 480.861 15.52C480.701 15.3493 480.621 15.1467 480.621 14.912C480.621 14.6667 480.701 14.464 480.861 14.304C481.031 14.1333 481.234 14.048 481.469 14.048C481.703 14.048 481.901 14.1333 482.061 14.304C482.231 14.464 482.317 14.6667 482.317 14.912C482.317 15.1467 482.231 15.3493 482.061 15.52C481.901 15.6907 481.703 15.776 481.469 15.776Z" fill="#151515"/>
<mask id="path-2-inside-1_72_22407" fill="white">
<path d="M500 3C500 1.34315 501.343 0 503 0H548V32H503C501.343 32 500 30.6569 500 29V3Z"/>
</mask>
<path d="M500 3C500 1.34315 501.343 0 503 0H548V32H503C501.343 32 500 30.6569 500 29V3Z" fill="#0066CC"/>
<path d="M548 0H549V-1H548V0ZM548 32V33H549V32H548ZM503 0V1H548V0V-1H503V0ZM548 0H547V32H548H549V0H548ZM548 32V31H503V32V33H548V32ZM500 29H501V3H500H499V29H500ZM503 32V31C501.895 31 501 30.1046 501 29H500H499C499 31.2091 500.791 33 503 33V32ZM503 0V-1C500.791 -1 499 0.790861 499 3H500H501C501 1.89543 501.895 1 503 1V0Z" fill="#0066CC" mask="url(#path-2-inside-1_72_22407)"/>
<g clip-path="url(#clip0_72_22407)">
<path d="M524 20.5C521.519 20.5 519.5 18.4812 519.5 16C519.5 13.5188 521.519 11.5 524 11.5C526.481 11.5 528.5 13.5188 528.5 16C528.5 18.4812 526.481 20.5 524 20.5ZM524 12.5C522.07 12.5 520.5 14.0701 520.5 16C520.5 17.9299 522.07 19.5 524 19.5C525.93 19.5 527.5 17.9299 527.5 16C527.5 14.0701 525.93 12.5 524 12.5Z" fill="white"/>
<path d="M524 10.5C523.724 10.5 523.5 10.2761 523.5 10V8.5C523.5 8.2239 523.724 8 524 8C524.276 8 524.5 8.2239 524.5 8.5V10C524.5 10.2761 524.276 10.5 524 10.5Z" fill="white"/>
<path d="M524 24C523.724 24 523.5 23.7761 523.5 23.5V22C523.5 21.7239 523.724 21.5 524 21.5C524.276 21.5 524.5 21.7239 524.5 22V23.5C524.5 23.7761 524.276 24 524 24Z" fill="white"/>
<path d="M518 16.5H516.5C516.224 16.5 516 16.2761 516 16C516 15.7239 516.224 15.5 516.5 15.5H518C518.276 15.5 518.5 15.7239 518.5 16C518.5 16.2761 518.276 16.5 518 16.5Z" fill="white"/>
<path d="M531.5 16.5H530C529.724 16.5 529.5 16.2761 529.5 16C529.5 15.7239 529.724 15.5 530 15.5H531.5C531.776 15.5 532 15.7239 532 16C532 16.2761 531.776 16.5 531.5 16.5Z" fill="white"/>
<path d="M518.697 21.8033C518.569 21.8033 518.441 21.7544 518.343 21.6568C518.148 21.4615 518.148 21.1451 518.343 20.9497L519.404 19.8892C519.599 19.6939 519.916 19.6939 520.111 19.8892C520.306 20.0845 520.306 20.4009 520.111 20.5962L519.05 21.6568C518.953 21.7544 518.825 21.8033 518.697 21.8033Z" fill="white"/>
<path d="M528.243 12.2574C528.115 12.2574 527.987 12.2085 527.889 12.1109C527.694 11.9156 527.694 11.5992 527.889 11.4038L528.95 10.3433C529.145 10.148 529.461 10.148 529.657 10.3433C529.852 10.5386 529.852 10.855 529.657 11.0503L528.596 12.1109C528.499 12.2085 528.371 12.2574 528.243 12.2574Z" fill="white"/>
<path d="M519.757 12.2574C519.629 12.2574 519.501 12.2085 519.404 12.1109L518.343 11.0503C518.148 10.855 518.148 10.5386 518.343 10.3433C518.539 10.1479 518.855 10.148 519.05 10.3433L520.111 11.4038C520.306 11.5991 520.306 11.9155 520.111 12.1109C520.013 12.2085 519.885 12.2574 519.757 12.2574Z" fill="white"/>
<path d="M529.303 21.8033C529.175 21.8033 529.047 21.7544 528.95 21.6568L527.889 20.5962C527.694 20.4009 527.694 20.0845 527.889 19.8892C528.084 19.6938 528.401 19.6939 528.596 19.8892L529.657 20.9497C529.852 21.145 529.852 21.4614 529.657 21.6568C529.559 21.7544 529.431 21.8033 529.303 21.8033Z" fill="white"/>
</g>
<mask id="path-13-inside-2_72_22407" fill="white">
<path d="M547 0H595V32H547V0Z"/>
</mask>
<path d="M547 0H595V32H547V0Z" fill="white"/>
<path d="M595 0H596V-1H595V0ZM595 32V33H596V32H595ZM547 0V1H595V0V-1H547V0ZM595 0H594V32H595H596V0H595ZM595 32V31H547V32V33H595V32Z" fill="#C7C7C7" mask="url(#path-13-inside-2_72_22407)"/>
<g clip-path="url(#clip1_72_22407)">
<path d="M571.229 23.0001C567.243 23.0001 564 19.7574 564 15.7718C564 12.807 565.857 10.0992 568.622 9.03351C568.806 8.96296 569.017 9.00741 569.156 9.14801C569.296 9.28886 569.339 9.49906 569.266 9.68366C568.987 10.3924 568.845 11.1473 568.845 11.9271C568.845 15.3614 571.639 18.1553 575.073 18.1553C575.853 18.1553 576.608 18.0135 577.316 17.7337C577.5 17.6617 577.711 17.7036 577.852 17.8438C577.993 17.9834 578.038 18.1934 577.966 18.3787C576.901 21.1428 574.193 23.0001 571.229 23.0001ZM567.996 10.4522C566.169 11.5667 565 13.5885 565 15.7718C565 19.2062 567.794 22.0001 571.229 22.0001C573.412 22.0001 575.434 20.8309 576.548 19.0042C576.067 19.1048 575.575 19.1553 575.073 19.1553C571.087 19.1553 567.845 15.9126 567.845 11.9271C567.845 11.4256 567.896 10.9327 567.996 10.4522Z" fill="#151515"/>
</g>
<mask id="path-16-inside-3_72_22407" fill="white">
<path d="M594 0H639C640.657 0 642 1.34315 642 3V29C642 30.6569 640.657 32 639 32H594V0Z"/>
</mask>
<path d="M594 0H639C640.657 0 642 1.34315 642 3V29C642 30.6569 640.657 32 639 32H594V0Z" fill="#E0E0E0"/>
<path d="M594 0V-1H593V0H594ZM594 32H593V33H594V32ZM594 0V1H639V0V-1H594V0ZM642 3H641V29H642H643V3H642ZM639 32V31H594V32V33H639V32ZM594 32H595V0H594H593V32H594ZM642 29H641C641 30.1046 640.105 31 639 31V32V33C641.209 33 643 31.2091 643 29H642ZM639 0V1C640.105 1 641 1.89543 641 3H642H643C643 0.790861 641.209 -1 639 -1V0Z" fill="#C7C7C7" mask="url(#path-16-inside-3_72_22407)"/>
<g clip-path="url(#clip2_72_22407)">
<path d="M621.97 16C621.721 16 621.505 15.8147 621.474 15.5617C621.276 13.9704 620.028 12.7243 618.439 12.5312C618.166 12.498 617.97 12.2487 618.003 11.9746C618.037 11.7004 618.285 11.5056 618.561 11.5385C620.605 11.7871 622.212 13.3906 622.466 15.4382C622.501 15.7123 622.306 15.9621 622.032 15.996C622.011 15.9987 621.99 16 621.97 16Z" fill="#151515"/>
<path d="M618 10.5C617.724 10.5 617.5 10.2761 617.5 10V8.5C617.5 8.2239 617.724 8 618 8C618.276 8 618.5 8.2239 618.5 8.5V10C618.5 10.2761 618.276 10.5 618 10.5Z" fill="#151515"/>
<path d="M618 24C617.724 24 617.5 23.7761 617.5 23.5V22C617.5 21.7239 617.724 21.5 618 21.5C618.276 21.5 618.5 21.7239 618.5 22V23.5C618.5 23.7761 618.276 24 618 24Z" fill="#151515"/>
<path d="M612 16.5H610.5C610.224 16.5 610 16.2761 610 16C610 15.7239 610.224 15.5 610.5 15.5H612C612.276 15.5 612.5 15.7239 612.5 16C612.5 16.2761 612.276 16.5 612 16.5Z" fill="#151515"/>
<path d="M625.5 16.5H624C623.724 16.5 623.5 16.2761 623.5 16C623.5 15.7239 623.724 15.5 624 15.5H625.5C625.776 15.5 626 15.7239 626 16C626 16.2761 625.776 16.5 625.5 16.5Z" fill="#151515"/>
<path d="M612.697 21.8033C612.569 21.8033 612.441 21.7544 612.343 21.6568C612.148 21.4615 612.148 21.1451 612.343 20.9497L613.404 19.8892C613.599 19.6939 613.916 19.6939 614.111 19.8892C614.306 20.0845 614.306 20.4009 614.111 20.5962L613.05 21.6568C612.953 21.7544 612.825 21.8033 612.697 21.8033Z" fill="#151515"/>
<path d="M622.243 12.2574C622.115 12.2574 621.987 12.2085 621.889 12.1109C621.694 11.9156 621.694 11.5992 621.889 11.4038L622.95 10.3433C623.145 10.148 623.461 10.148 623.657 10.3433C623.852 10.5386 623.852 10.855 623.657 11.0503L622.596 12.1109C622.499 12.2085 622.371 12.2574 622.243 12.2574Z" fill="#151515"/>
<path d="M613.757 12.2574C613.629 12.2574 613.501 12.2085 613.404 12.1109L612.343 11.0503C612.148 10.855 612.148 10.5386 612.343 10.3433C612.539 10.1479 612.855 10.148 613.05 10.3433L614.111 11.4038C614.306 11.5991 614.306 11.9155 614.111 12.1109C614.013 12.2085 613.885 12.2574 613.757 12.2574Z" fill="#151515"/>
<path d="M623.303 21.8033C623.175 21.8033 623.047 21.7544 622.95 21.6568L621.889 20.5962C621.694 20.4009 621.694 20.0845 621.889 19.8892C622.084 19.6938 622.401 19.6939 622.596 19.8892L623.657 20.9497C623.852 21.145 623.852 21.4614 623.657 21.6568C623.559 21.7544 623.431 21.8033 623.303 21.8033Z" fill="#151515"/>
<path d="M618 20.4375C615.553 20.4375 613.562 18.4468 613.562 16C613.562 14.2571 614.588 12.6697 616.176 11.9561C616.342 11.8804 616.537 11.9177 616.666 12.0469C616.794 12.1765 616.829 12.3721 616.752 12.5378C616.543 12.9922 616.438 13.4841 616.438 14C616.438 15.9643 618.036 17.5625 620 17.5625C620.516 17.5625 621.008 17.4565 621.462 17.2475C621.627 17.1721 621.823 17.2058 621.953 17.3342C622.083 17.4628 622.119 17.6581 622.044 17.8244C621.33 19.4118 619.743 20.4375 618 20.4375ZM615.607 13.3609C614.876 14.0247 614.438 14.979 614.438 16C614.438 17.9644 616.036 19.5625 618 19.5625C619.021 19.5625 619.975 19.1243 620.639 18.3926C620.43 18.4224 620.216 18.4375 620 18.4375C617.553 18.4375 615.562 16.4468 615.562 14C615.562 13.7835 615.578 13.5703 615.607 13.3609Z" fill="#151515"/>
</g>
<g filter="url(#filter0_d_72_22407)">
<path d="M618 33V16L630 28H623L618 33Z" fill="#151515"/>
<path d="M631.207 28.5H623.207L617.5 34.207V14.793L631.207 28.5Z" stroke="white"/>
</g>
<path d="M6.592 22.176C5.792 22.176 5.04533 22.032 4.352 21.744C3.66933 21.4453 3.06667 21.0347 2.544 20.512C2.02133 19.9787 1.616 19.3653 1.328 18.672C1.04 17.968 0.896 17.2107 0.896 16.4C0.896 15.5893 1.04 14.8373 1.328 14.144C1.616 13.44 2.02133 12.8267 2.544 12.304C3.06667 11.7707 3.66933 11.36 4.352 11.072C5.04533 10.7733 5.792 10.624 6.592 10.624C7.14667 10.624 7.67467 10.6987 8.176 10.848C8.688 10.9867 9.168 11.1947 9.616 11.472C10.064 11.7387 10.464 12.0693 10.816 12.464L10 13.312C9.584 12.8107 9.072 12.4267 8.464 12.16C7.86667 11.8827 7.24267 11.744 6.592 11.744C5.96267 11.744 5.376 11.8613 4.832 12.096C4.288 12.3307 3.81333 12.6613 3.408 13.088C3.01333 13.5147 2.704 14.0107 2.48 14.576C2.256 15.1307 2.144 15.7387 2.144 16.4C2.144 17.0507 2.256 17.6587 2.48 18.224C2.704 18.7893 3.01333 19.2853 3.408 19.712C3.81333 20.1387 4.288 20.4693 4.832 20.704C5.376 20.9387 5.96267 21.056 6.592 21.056C7.24267 21.056 7.86667 20.9173 8.464 20.64C9.072 20.3627 9.584 19.9787 10 19.488L10.816 20.336C10.464 20.7307 10.064 21.0667 9.616 21.344C9.168 21.6107 8.688 21.8187 8.176 21.968C7.67467 22.1067 7.14667 22.176 6.592 22.176ZM16.031 22.128C15.3057 22.128 14.655 21.952 14.079 21.6C13.503 21.248 13.0497 20.768 12.719 20.16C12.3883 19.552 12.223 18.864 12.223 18.096C12.223 17.328 12.3883 16.64 12.719 16.032C13.0497 15.424 13.503 14.944 14.079 14.592C14.655 14.24 15.3057 14.064 16.031 14.064C16.7457 14.064 17.3857 14.24 17.951 14.592C18.527 14.944 18.9803 15.424 19.311 16.032C19.6417 16.64 19.807 17.328 19.807 18.096C19.807 18.864 19.6417 19.552 19.311 20.16C18.9803 20.768 18.527 21.248 17.951 21.6C17.3857 21.952 16.7457 22.128 16.031 22.128ZM16.015 21.104C16.527 21.104 16.9803 20.976 17.375 20.72C17.7697 20.4533 18.079 20.0907 18.303 19.632C18.5377 19.1733 18.655 18.6613 18.655 18.096C18.655 17.52 18.5377 17.008 18.303 16.56C18.079 16.1013 17.7697 15.744 17.375 15.488C16.9803 15.2213 16.527 15.088 16.015 15.088C15.503 15.088 15.0497 15.2213 14.655 15.488C14.2603 15.744 13.9457 16.1013 13.711 16.56C13.487 17.008 13.375 17.52 13.375 18.096C13.375 18.6613 13.487 19.1733 13.711 19.632C13.9457 20.0907 14.2603 20.4533 14.655 20.72C15.0497 20.976 15.503 21.104 16.015 21.104ZM21.8563 22V10.448L23.0243 10.208V22H21.8563ZM28.8748 22.128C28.1494 22.128 27.4988 21.952 26.9228 21.6C26.3468 21.248 25.8934 20.768 25.5628 20.16C25.2321 19.552 25.0668 18.864 25.0668 18.096C25.0668 17.328 25.2321 16.64 25.5628 16.032C25.8934 15.424 26.3468 14.944 26.9228 14.592C27.4988 14.24 28.1494 14.064 28.8748 14.064C29.5894 14.064 30.2294 14.24 30.7948 14.592C31.3708 14.944 31.8241 15.424 32.1548 16.032C32.4854 16.64 32.6508 17.328 32.6508 18.096C32.6508 18.864 32.4854 19.552 32.1548 20.16C31.8241 20.768 31.3708 21.248 30.7948 21.6C30.2294 21.952 29.5894 22.128 28.8748 22.128ZM28.8588 21.104C29.3708 21.104 29.8241 20.976 30.2188 20.72C30.6134 20.4533 30.9228 20.0907 31.1468 19.632C31.3814 19.1733 31.4988 18.6613 31.4988 18.096C31.4988 17.52 31.3814 17.008 31.1468 16.56C30.9228 16.1013 30.6134 15.744 30.2188 15.488C29.8241 15.2213 29.3708 15.088 28.8588 15.088C28.3468 15.088 27.8934 15.2213 27.4988 15.488C27.1041 15.744 26.7894 16.1013 26.5548 16.56C26.3308 17.008 26.2188 17.52 26.2188 18.096C26.2188 18.6613 26.3308 19.1733 26.5548 19.632C26.7894 20.0907 27.1041 20.4533 27.4988 20.72C27.8934 20.976 28.3468 21.104 28.8588 21.104ZM34.7 22V14.192H35.868V15.792C36.0707 15.248 36.3587 14.8267 36.732 14.528C37.116 14.2187 37.5533 14.064 38.044 14.064C38.1827 14.064 38.3107 14.0747 38.428 14.096C38.5453 14.1067 38.6627 14.1333 38.78 14.176V15.232C38.652 15.1893 38.5133 15.1573 38.364 15.136C38.2253 15.104 38.092 15.088 37.964 15.088C37.484 15.088 37.0627 15.2267 36.7 15.504C36.348 15.7813 36.0707 16.1707 35.868 16.672V22H34.7ZM46.4754 22.16C45.8354 22.16 45.2434 22.064 44.6994 21.872C44.1554 21.6693 43.6914 21.3813 43.3074 21.008L43.9314 20.24C44.4007 20.5813 44.8327 20.832 45.2274 20.992C45.622 21.1413 46.0274 21.216 46.4434 21.216C47.0087 21.216 47.478 21.0827 47.8514 20.816C48.2247 20.5493 48.4114 20.208 48.4114 19.792C48.4114 19.472 48.2994 19.2213 48.0754 19.04C47.862 18.8587 47.5047 18.72 47.0034 18.624L45.7234 18.4C44.966 18.2613 44.406 18.0267 44.0434 17.696C43.6914 17.3653 43.5154 16.9173 43.5154 16.352C43.5154 15.904 43.6327 15.5093 43.8674 15.168C44.1127 14.8267 44.4487 14.56 44.8754 14.368C45.302 14.1653 45.7874 14.064 46.3314 14.064C46.8647 14.064 47.3714 14.144 47.8514 14.304C48.3314 14.4533 48.8167 14.6987 49.3074 15.04L48.7314 15.856C48.326 15.568 47.9207 15.36 47.5154 15.232C47.11 15.0933 46.6994 15.024 46.2834 15.024C45.7714 15.024 45.3607 15.136 45.0514 15.36C44.742 15.584 44.5874 15.888 44.5874 16.272C44.5874 16.592 44.6834 16.8373 44.8754 17.008C45.078 17.1787 45.43 17.3067 45.9314 17.392L47.2434 17.632C48.0327 17.7707 48.6087 18.0107 48.9714 18.352C49.334 18.6933 49.5154 19.152 49.5154 19.728C49.5154 20.1867 49.382 20.6027 49.1154 20.976C48.8487 21.3387 48.486 21.6267 48.0274 21.84C47.5687 22.0533 47.0514 22.16 46.4754 22.16ZM54.8759 22.128C54.1505 22.128 53.4945 21.952 52.9079 21.6C52.3319 21.2373 51.8732 20.752 51.5319 20.144C51.1905 19.5253 51.0199 18.8427 51.0199 18.096C51.0199 17.3387 51.1905 16.656 51.5319 16.048C51.8732 15.44 52.3319 14.96 52.9079 14.608C53.4945 14.2453 54.1505 14.064 54.8759 14.064C55.4519 14.064 56.0012 14.1707 56.5239 14.384C57.0465 14.5973 57.4999 14.896 57.8839 15.28L57.1319 16.096C56.8545 15.7867 56.5185 15.5467 56.1239 15.376C55.7292 15.2053 55.3292 15.12 54.9239 15.12C54.4119 15.12 53.9479 15.2533 53.5319 15.52C53.1265 15.7867 52.8012 16.144 52.5559 16.592C52.3105 17.04 52.1879 17.5413 52.1879 18.096C52.1879 18.6507 52.3105 19.152 52.5559 19.6C52.8012 20.048 53.1265 20.4053 53.5319 20.672C53.9479 20.9387 54.4119 21.072 54.9239 21.072C55.3292 21.072 55.7292 20.9867 56.1239 20.816C56.5185 20.6347 56.8545 20.3947 57.1319 20.096L57.8839 20.912C57.4999 21.296 57.0465 21.5947 56.5239 21.808C56.0012 22.0213 55.4519 22.128 54.8759 22.128ZM59.5125 22V10.448L60.6805 10.208V15.456C60.9792 14.9867 61.3365 14.64 61.7525 14.416C62.1685 14.1813 62.6378 14.064 63.1605 14.064C63.7258 14.064 64.2165 14.1867 64.6325 14.432C65.0592 14.6667 65.3898 15.0027 65.6245 15.44C65.8698 15.8667 65.9925 16.368 65.9925 16.944V22H64.8245V17.28C64.8245 16.5867 64.6325 16.0427 64.2485 15.648C63.8752 15.2427 63.3685 15.04 62.7285 15.04C62.3018 15.04 61.9125 15.1413 61.5605 15.344C61.2085 15.5467 60.9152 15.8453 60.6805 16.24V22H59.5125ZM71.8606 22.16C71.1353 22.16 70.4793 21.984 69.8926 21.632C69.306 21.2693 68.842 20.784 68.5006 20.176C68.1593 19.5573 67.9886 18.864 67.9886 18.096C67.9886 17.328 68.1486 16.64 68.4686 16.032C68.7993 15.424 69.242 14.944 69.7966 14.592C70.3513 14.24 70.97 14.064 71.6526 14.064C72.346 14.064 72.9593 14.24 73.4926 14.592C74.0366 14.9333 74.4633 15.4027 74.7726 16C75.0926 16.5867 75.2526 17.2533 75.2526 18V18.352H69.1246C69.1673 18.8853 69.3113 19.3653 69.5566 19.792C69.8126 20.208 70.1433 20.5387 70.5486 20.784C70.9646 21.0187 71.418 21.136 71.9086 21.136C72.314 21.136 72.7033 21.0667 73.0766 20.928C73.4606 20.7787 73.786 20.5813 74.0526 20.336L74.7886 21.12C74.3406 21.472 73.8766 21.7333 73.3966 21.904C72.9166 22.0747 72.4046 22.16 71.8606 22.16ZM69.1566 17.52H74.1006C74.0473 17.0507 73.9033 16.6347 73.6686 16.272C73.4446 15.8987 73.1566 15.6053 72.8046 15.392C72.4633 15.1787 72.0793 15.072 71.6526 15.072C71.226 15.072 70.8366 15.1787 70.4846 15.392C70.1326 15.5947 69.8393 15.8827 69.6046 16.256C69.3806 16.6187 69.2313 17.04 69.1566 17.52ZM77.2469 22V14.192H78.4149V15.408C78.7135 14.96 79.0549 14.624 79.4389 14.4C79.8229 14.176 80.2549 14.064 80.7349 14.064C81.2895 14.064 81.7749 14.2027 82.1909 14.48C82.6069 14.7467 82.9215 15.1147 83.1349 15.584C83.4442 15.0827 83.8122 14.704 84.2389 14.448C84.6762 14.192 85.1775 14.064 85.7429 14.064C86.2655 14.064 86.7242 14.1867 87.1189 14.432C87.5242 14.6773 87.8389 15.0187 88.0629 15.456C88.2869 15.8827 88.3989 16.384 88.3989 16.96V22H87.2309V17.248C87.2309 16.5653 87.0602 16.0267 86.7189 15.632C86.3775 15.2373 85.9082 15.04 85.3109 15.04C84.9055 15.04 84.5375 15.1413 84.2069 15.344C83.8869 15.5467 83.6042 15.856 83.3589 16.272C83.3802 16.3787 83.3962 16.4907 83.4069 16.608C83.4175 16.7253 83.4229 16.8427 83.4229 16.96V22H82.2549V17.248C82.2549 16.5653 82.0789 16.0267 81.7269 15.632C81.3855 15.2373 80.9162 15.04 80.3189 15.04C79.5189 15.04 78.8842 15.424 78.4149 16.192V22H77.2469ZM94.2825 22.16C93.5572 22.16 92.9012 21.984 92.3145 21.632C91.7278 21.2693 91.2638 20.784 90.9225 20.176C90.5812 19.5573 90.4105 18.864 90.4105 18.096C90.4105 17.328 90.5705 16.64 90.8905 16.032C91.2212 15.424 91.6638 14.944 92.2185 14.592C92.7732 14.24 93.3918 14.064 94.0745 14.064C94.7678 14.064 95.3812 14.24 95.9145 14.592C96.4585 14.9333 96.8852 15.4027 97.1945 16C97.5145 16.5867 97.6745 17.2533 97.6745 18V18.352H91.5465C91.5892 18.8853 91.7332 19.3653 91.9785 19.792C92.2345 20.208 92.5652 20.5387 92.9705 20.784C93.3865 21.0187 93.8398 21.136 94.3305 21.136C94.7358 21.136 95.1252 21.0667 95.4985 20.928C95.8825 20.7787 96.2078 20.5813 96.4745 20.336L97.2105 21.12C96.7625 21.472 96.2985 21.7333 95.8185 21.904C95.3385 22.0747 94.8265 22.16 94.2825 22.16ZM91.5785 17.52H96.5225C96.4692 17.0507 96.3252 16.6347 96.0905 16.272C95.8665 15.8987 95.5785 15.6053 95.2265 15.392C94.8852 15.1787 94.5012 15.072 94.0745 15.072C93.6478 15.072 93.2585 15.1787 92.9065 15.392C92.5545 15.5947 92.2612 15.8827 92.0265 16.256C91.8025 16.6187 91.6532 17.04 91.5785 17.52ZM100.469 22.128C100.234 22.128 100.031 22.0427 99.8608 21.872C99.7008 21.7013 99.6208 21.4987 99.6208 21.264C99.6208 21.0187 99.7008 20.816 99.8608 20.656C100.031 20.4853 100.234 20.4 100.469 20.4C100.703 20.4 100.901 20.4853 101.061 20.656C101.231 20.816 101.317 21.0187 101.317 21.264C101.317 21.4987 101.231 21.7013 101.061 21.872C100.901 22.0427 100.703 22.128 100.469 22.128ZM100.469 15.776C100.234 15.776 100.031 15.6907 99.8608 15.52C99.7008 15.3493 99.6208 15.1467 99.6208 14.912C99.6208 14.6667 99.7008 14.464 99.8608 14.304C100.031 14.1333 100.234 14.048 100.469 14.048C100.703 14.048 100.901 14.1333 101.061 14.304C101.231 14.464 101.317 14.6667 101.317 14.912C101.317 15.1467 101.231 15.3493 101.061 15.52C100.901 15.6907 100.703 15.776 100.469 15.776Z" fill="#151515"/>
<mask id="path-31-inside-4_72_22407" fill="white">
<path d="M119 3C119 1.34315 120.343 0 122 0H167V32H122C120.343 32 119 30.6569 119 29V3Z"/>
</mask>
<path d="M119 3C119 1.34315 120.343 0 122 0H167V32H122C120.343 32 119 30.6569 119 29V3Z" fill="#0066CC"/>
<path d="M167 0H168V-1H167V0ZM167 32V33H168V32H167ZM122 0V1H167V0V-1H122V0ZM167 0H166V32H167H168V0H167ZM167 32V31H122V32V33H167V32ZM119 29H120V3H119H118V29H119ZM122 32V31C120.895 31 120 30.1046 120 29H119H118C118 31.2091 119.791 33 122 33V32ZM122 0V-1C119.791 -1 118 0.790861 118 3H119H120C120 1.89543 120.895 1 122 1V0Z" fill="#0066CC" mask="url(#path-31-inside-4_72_22407)"/>
<g clip-path="url(#clip3_72_22407)">
<path d="M143 20.5C140.519 20.5 138.5 18.4812 138.5 16C138.5 13.5188 140.519 11.5 143 11.5C145.481 11.5 147.5 13.5188 147.5 16C147.5 18.4812 145.481 20.5 143 20.5ZM143 12.5C141.07 12.5 139.5 14.0701 139.5 16C139.5 17.9299 141.07 19.5 143 19.5C144.93 19.5 146.5 17.9299 146.5 16C146.5 14.0701 144.93 12.5 143 12.5Z" fill="white"/>
<path d="M143 10.5C142.724 10.5 142.5 10.2761 142.5 10V8.5C142.5 8.2239 142.724 8 143 8C143.276 8 143.5 8.2239 143.5 8.5V10C143.5 10.2761 143.276 10.5 143 10.5Z" fill="white"/>
<path d="M143 24C142.724 24 142.5 23.7761 142.5 23.5V22C142.5 21.7239 142.724 21.5 143 21.5C143.276 21.5 143.5 21.7239 143.5 22V23.5C143.5 23.7761 143.276 24 143 24Z" fill="white"/>
<path d="M137 16.5H135.5C135.224 16.5 135 16.2761 135 16C135 15.7239 135.224 15.5 135.5 15.5H137C137.276 15.5 137.5 15.7239 137.5 16C137.5 16.2761 137.276 16.5 137 16.5Z" fill="white"/>
<path d="M150.5 16.5H149C148.724 16.5 148.5 16.2761 148.5 16C148.5 15.7239 148.724 15.5 149 15.5H150.5C150.776 15.5 151 15.7239 151 16C151 16.2761 150.776 16.5 150.5 16.5Z" fill="white"/>
<path d="M137.697 21.8033C137.569 21.8033 137.441 21.7544 137.343 21.6568C137.148 21.4615 137.148 21.1451 137.343 20.9497L138.404 19.8892C138.599 19.6939 138.916 19.6939 139.111 19.8892C139.306 20.0845 139.306 20.4009 139.111 20.5962L138.05 21.6568C137.953 21.7544 137.825 21.8033 137.697 21.8033Z" fill="white"/>
<path d="M147.243 12.2574C147.115 12.2574 146.987 12.2085 146.889 12.1109C146.694 11.9156 146.694 11.5992 146.889 11.4038L147.95 10.3433C148.145 10.148 148.461 10.148 148.657 10.3433C148.852 10.5386 148.852 10.855 148.657 11.0503L147.596 12.1109C147.499 12.2085 147.371 12.2574 147.243 12.2574Z" fill="white"/>
<path d="M138.757 12.2574C138.629 12.2574 138.501 12.2085 138.404 12.1109L137.343 11.0503C137.148 10.855 137.148 10.5386 137.343 10.3433C137.539 10.1479 137.855 10.148 138.05 10.3433L139.111 11.4038C139.306 11.5991 139.306 11.9155 139.111 12.1109C139.013 12.2085 138.885 12.2574 138.757 12.2574Z" fill="white"/>
<path d="M148.303 21.8033C148.175 21.8033 148.047 21.7544 147.95 21.6568L146.889 20.5962C146.694 20.4009 146.694 20.0845 146.889 19.8892C147.084 19.6938 147.401 19.6939 147.596 19.8892L148.657 20.9497C148.852 21.145 148.852 21.4614 148.657 21.6568C148.559 21.7544 148.431 21.8033 148.303 21.8033Z" fill="white"/>
</g>
<mask id="path-42-inside-5_72_22407" fill="white">
<path d="M166 0H214V32H166V0Z"/>
</mask>
<path d="M166 0H214V32H166V0Z" fill="#E0E0E0"/>
<path d="M214 0H215V-1H214V0ZM214 32V33H215V32H214ZM166 0V1H214V0V-1H166V0ZM214 0H213V32H214H215V0H214ZM214 32V31H166V32V33H214V32Z" fill="#C7C7C7" mask="url(#path-42-inside-5_72_22407)"/>
<g clip-path="url(#clip4_72_22407)">
<path d="M190.229 23.0001C186.243 23.0001 183 19.7574 183 15.7718C183 12.807 184.857 10.0992 187.622 9.03351C187.806 8.96296 188.017 9.00741 188.156 9.14801C188.296 9.28886 188.339 9.49906 188.266 9.68366C187.987 10.3924 187.845 11.1473 187.845 11.9271C187.845 15.3614 190.639 18.1553 194.073 18.1553C194.853 18.1553 195.608 18.0135 196.316 17.7337C196.5 17.6617 196.711 17.7036 196.852 17.8438C196.993 17.9834 197.038 18.1934 196.966 18.3787C195.901 21.1428 193.193 23.0001 190.229 23.0001ZM186.996 10.4522C185.169 11.5667 184 13.5885 184 15.7718C184 19.2062 186.794 22.0001 190.229 22.0001C192.412 22.0001 194.434 20.8309 195.548 19.0042C195.067 19.1048 194.575 19.1553 194.073 19.1553C190.087 19.1553 186.845 15.9126 186.845 11.9271C186.845 11.4256 186.896 10.9327 186.996 10.4522Z" fill="#151515"/>
</g>
<mask id="path-45-inside-6_72_22407" fill="white">
<path d="M213 0H258C259.657 0 261 1.34315 261 3V29C261 30.6569 259.657 32 258 32H213V0Z"/>
</mask>
<path d="M213 0H258C259.657 0 261 1.34315 261 3V29C261 30.6569 259.657 32 258 32H213V0Z" fill="white"/>
<path d="M213 0V-1H212V0H213ZM213 32H212V33H213V32ZM213 0V1H258V0V-1H213V0ZM261 3H260V29H261H262V3H261ZM258 32V31H213V32V33H258V32ZM213 32H214V0H213H212V32H213ZM261 29H260C260 30.1046 259.105 31 258 31V32V33C260.209 33 262 31.2091 262 29H261ZM258 0V1C259.105 1 260 1.89543 260 3H261H262C262 0.790861 260.209 -1 258 -1V0Z" fill="#C7C7C7" mask="url(#path-45-inside-6_72_22407)"/>
<g clip-path="url(#clip5_72_22407)">
<path d="M240.97 16C240.721 16 240.505 15.8147 240.474 15.5617C240.276 13.9704 239.028 12.7243 237.439 12.5312C237.166 12.498 236.97 12.2487 237.003 11.9746C237.037 11.7004 237.285 11.5056 237.561 11.5385C239.605 11.7871 241.212 13.3906 241.466 15.4382C241.501 15.7123 241.306 15.9621 241.032 15.996C241.011 15.9987 240.99 16 240.97 16Z" fill="#151515"/>
<path d="M237 10.5C236.724 10.5 236.5 10.2761 236.5 10V8.5C236.5 8.2239 236.724 8 237 8C237.276 8 237.5 8.2239 237.5 8.5V10C237.5 10.2761 237.276 10.5 237 10.5Z" fill="#151515"/>
<path d="M237 24C236.724 24 236.5 23.7761 236.5 23.5V22C236.5 21.7239 236.724 21.5 237 21.5C237.276 21.5 237.5 21.7239 237.5 22V23.5C237.5 23.7761 237.276 24 237 24Z" fill="#151515"/>
<path d="M231 16.5H229.5C229.224 16.5 229 16.2761 229 16C229 15.7239 229.224 15.5 229.5 15.5H231C231.276 15.5 231.5 15.7239 231.5 16C231.5 16.2761 231.276 16.5 231 16.5Z" fill="#151515"/>
<path d="M244.5 16.5H243C242.724 16.5 242.5 16.2761 242.5 16C242.5 15.7239 242.724 15.5 243 15.5H244.5C244.776 15.5 245 15.7239 245 16C245 16.2761 244.776 16.5 244.5 16.5Z" fill="#151515"/>
<path d="M231.697 21.8033C231.569 21.8033 231.441 21.7544 231.343 21.6568C231.148 21.4615 231.148 21.1451 231.343 20.9497L232.404 19.8892C232.599 19.6939 232.916 19.6939 233.111 19.8892C233.306 20.0845 233.306 20.4009 233.111 20.5962L232.05 21.6568C231.953 21.7544 231.825 21.8033 231.697 21.8033Z" fill="#151515"/>
<path d="M241.243 12.2574C241.115 12.2574 240.987 12.2085 240.889 12.1109C240.694 11.9156 240.694 11.5992 240.889 11.4038L241.95 10.3433C242.145 10.148 242.461 10.148 242.657 10.3433C242.852 10.5386 242.852 10.855 242.657 11.0503L241.596 12.1109C241.499 12.2085 241.371 12.2574 241.243 12.2574Z" fill="#151515"/>
<path d="M232.757 12.2574C232.629 12.2574 232.501 12.2085 232.404 12.1109L231.343 11.0503C231.148 10.855 231.148 10.5386 231.343 10.3433C231.539 10.1479 231.855 10.148 232.05 10.3433L233.111 11.4038C233.306 11.5991 233.306 11.9155 233.111 12.1109C233.013 12.2085 232.885 12.2574 232.757 12.2574Z" fill="#151515"/>
<path d="M242.303 21.8033C242.175 21.8033 242.047 21.7544 241.95 21.6568L240.889 20.5962C240.694 20.4009 240.694 20.0845 240.889 19.8892C241.084 19.6938 241.401 19.6939 241.596 19.8892L242.657 20.9497C242.852 21.145 242.852 21.4614 242.657 21.6568C242.559 21.7544 242.431 21.8033 242.303 21.8033Z" fill="#151515"/>
<path d="M237 20.4375C234.553 20.4375 232.562 18.4468 232.562 16C232.562 14.2571 233.588 12.6697 235.176 11.9561C235.342 11.8804 235.537 11.9177 235.666 12.0469C235.794 12.1765 235.829 12.3721 235.752 12.5378C235.543 12.9922 235.438 13.4841 235.438 14C235.438 15.9643 237.036 17.5625 239 17.5625C239.516 17.5625 240.008 17.4565 240.462 17.2475C240.627 17.1721 240.823 17.2058 240.953 17.3342C241.083 17.4628 241.119 17.6581 241.044 17.8244C240.33 19.4118 238.743 20.4375 237 20.4375ZM234.607 13.3609C233.876 14.0247 233.438 14.979 233.438 16C233.438 17.9644 235.036 19.5625 237 19.5625C238.021 19.5625 238.975 19.1243 239.639 18.3926C239.43 18.4224 239.216 18.4375 239 18.4375C236.553 18.4375 234.562 16.4468 234.562 14C234.562 13.7835 234.578 13.5703 234.607 13.3609Z" fill="#151515"/>
</g>
<g filter="url(#filter1_d_72_22407)">
<path d="M190 33V16L202 28H195L190 33Z" fill="#151515"/>
<path d="M203.207 28.5H195.207L189.5 34.207V14.793L203.207 28.5Z" stroke="white"/>
</g>
<defs>
<filter id="filter0_d_72_22407" x="613" y="11.5857" width="23.4143" height="29.8286" filterUnits="userSpaceOnUse" color-interpolation-filters="sRGB">
<feFlood flood-opacity="0" result="BackgroundImageFix"/>
<feColorMatrix in="SourceAlpha" type="matrix" values="0 0 0 0 0 0 0 0 0 0 0 0 0 0 0 0 0 0 127 0" result="hardAlpha"/>
<feOffset dy="2"/>
<feGaussianBlur stdDeviation="2"/>
<feComposite in2="hardAlpha" operator="out"/>
<feColorMatrix type="matrix" values="0 0 0 0 0.0823529 0 0 0 0 0.0823529 0 0 0 0 0.0823529 0 0 0 0.2 0"/>
<feBlend mode="normal" in2="BackgroundImageFix" result="effect1_dropShadow_72_22407"/>
<feBlend mode="normal" in="SourceGraphic" in2="effect1_dropShadow_72_22407" result="shape"/>
</filter>
<filter id="filter1_d_72_22407" x="185" y="11.5857" width="23.4143" height="29.8286" filterUnits="userSpaceOnUse" color-interpolation-filters="sRGB">
<feFlood flood-opacity="0" result="BackgroundImageFix"/>
<feColorMatrix in="SourceAlpha" type="matrix" values="0 0 0 0 0 0 0 0 0 0 0 0 0 0 0 0 0 0 127 0" result="hardAlpha"/>
<feOffset dy="2"/>
<feGaussianBlur stdDeviation="2"/>
<feComposite in2="hardAlpha" operator="out"/>
<feColorMatrix type="matrix" values="0 0 0 0 0.0823529 0 0 0 0 0.0823529 0 0 0 0 0.0823529 0 0 0 0.2 0"/>
<feBlend mode="normal" in2="BackgroundImageFix" result="effect1_dropShadow_72_22407"/>
<feBlend mode="normal" in="SourceGraphic" in2="effect1_dropShadow_72_22407" result="shape"/>
</filter>
<clipPath id="clip0_72_22407">
<rect width="16" height="16" fill="white" transform="translate(516 8)"/>
</clipPath>
<clipPath id="clip1_72_22407">
<rect width="16" height="16" fill="white" transform="translate(563 8)"/>
</clipPath>
<clipPath id="clip2_72_22407">
<rect width="16" height="16" fill="white" transform="translate(610 8)"/>
</clipPath>
<clipPath id="clip3_72_22407">
<rect width="16" height="16" fill="white" transform="translate(135 8)"/>
</clipPath>
<clipPath id="clip4_72_22407">
<rect width="16" height="16" fill="white" transform="translate(182 8)"/>
</clipPath>
<clipPath id="clip5_72_22407">
<rect width="16" height="16" fill="white" transform="translate(229 8)"/>
</clipPath>
</defs>
</svg>
