<svg width="784" height="227" viewBox="0 0 784 227" fill="none" xmlns="http://www.w3.org/2000/svg">
<rect y="83" width="360" height="144" fill="#F2F2F2"/>
<mask id="mask0_108_4724" style="mask-type:alpha" maskUnits="userSpaceOnUse" x="0" y="83" width="360" height="144">
<rect y="83" width="360" height="144" fill="white"/>
</mask>
<g mask="url(#mask0_108_4724)">
<g filter="url(#filter0_d_108_4724)">
<rect y="83" width="328" height="144" fill="white"/>
</g>
<path d="M38.592 185.176C37.792 185.176 37.0453 185.032 36.352 184.744C35.6693 184.445 35.0667 184.035 34.544 183.512C34.0213 182.979 33.616 182.365 33.328 181.672C33.04 180.968 32.896 180.211 32.896 179.4C32.896 178.589 33.04 177.837 33.328 177.144C33.616 176.44 34.0213 175.827 34.544 175.304C35.0667 174.771 35.6693 174.36 36.352 174.072C37.0453 173.773 37.792 173.624 38.592 173.624C39.1467 173.624 39.6747 173.699 40.176 173.848C40.688 173.987 41.168 174.195 41.616 174.472C42.064 174.739 42.464 175.069 42.816 175.464L42 176.312C41.584 175.811 41.072 175.427 40.464 175.16C39.8667 174.883 39.2427 174.744 38.592 174.744C37.9627 174.744 37.376 174.861 36.832 175.096C36.288 175.331 35.8133 175.661 35.408 176.088C35.0133 176.515 34.704 177.011 34.48 177.576C34.256 178.131 34.144 178.739 34.144 179.4C34.144 180.051 34.256 180.659 34.48 181.224C34.704 181.789 35.0133 182.285 35.408 182.712C35.8133 183.139 36.288 183.469 36.832 183.704C37.376 183.939 37.9627 184.056 38.592 184.056C39.2427 184.056 39.8667 183.917 40.464 183.64C41.072 183.363 41.584 182.979 42 182.488L42.816 183.336C42.464 183.731 42.064 184.067 41.616 184.344C41.168 184.611 40.688 184.819 40.176 184.968C39.6747 185.107 39.1467 185.176 38.592 185.176ZM48.031 185.128C47.3057 185.128 46.655 184.952 46.079 184.6C45.503 184.248 45.0497 183.768 44.719 183.16C44.3883 182.552 44.223 181.864 44.223 181.096C44.223 180.328 44.3883 179.64 44.719 179.032C45.0497 178.424 45.503 177.944 46.079 177.592C46.655 177.24 47.3057 177.064 48.031 177.064C48.7457 177.064 49.3857 177.24 49.951 177.592C50.527 177.944 50.9803 178.424 51.311 179.032C51.6417 179.64 51.807 180.328 51.807 181.096C51.807 181.864 51.6417 182.552 51.311 183.16C50.9803 183.768 50.527 184.248 49.951 184.6C49.3857 184.952 48.7457 185.128 48.031 185.128ZM48.015 184.104C48.527 184.104 48.9803 183.976 49.375 183.72C49.7697 183.453 50.079 183.091 50.303 182.632C50.5377 182.173 50.655 181.661 50.655 181.096C50.655 180.52 50.5377 180.008 50.303 179.56C50.079 179.101 49.7697 178.744 49.375 178.488C48.9803 178.221 48.527 178.088 48.015 178.088C47.503 178.088 47.0497 178.221 46.655 178.488C46.2603 178.744 45.9457 179.101 45.711 179.56C45.487 180.008 45.375 180.52 45.375 181.096C45.375 181.661 45.487 182.173 45.711 182.632C45.9457 183.091 46.2603 183.453 46.655 183.72C47.0497 183.976 47.503 184.104 48.015 184.104ZM53.8563 185V173.448L55.0243 173.208V185H53.8563ZM60.8748 185.128C60.1494 185.128 59.4988 184.952 58.9228 184.6C58.3468 184.248 57.8934 183.768 57.5628 183.16C57.2321 182.552 57.0668 181.864 57.0668 181.096C57.0668 180.328 57.2321 179.64 57.5628 179.032C57.8934 178.424 58.3468 177.944 58.9228 177.592C59.4988 177.24 60.1494 177.064 60.8748 177.064C61.5894 177.064 62.2294 177.24 62.7948 177.592C63.3708 177.944 63.8241 178.424 64.1548 179.032C64.4854 179.64 64.6508 180.328 64.6508 181.096C64.6508 181.864 64.4854 182.552 64.1548 183.16C63.8241 183.768 63.3708 184.248 62.7948 184.6C62.2294 184.952 61.5894 185.128 60.8748 185.128ZM60.8588 184.104C61.3708 184.104 61.8241 183.976 62.2188 183.72C62.6134 183.453 62.9228 183.091 63.1468 182.632C63.3814 182.173 63.4988 181.661 63.4988 181.096C63.4988 180.52 63.3814 180.008 63.1468 179.56C62.9228 179.101 62.6134 178.744 62.2188 178.488C61.8241 178.221 61.3708 178.088 60.8588 178.088C60.3468 178.088 59.8934 178.221 59.4988 178.488C59.1041 178.744 58.7894 179.101 58.5548 179.56C58.3308 180.008 58.2188 180.52 58.2188 181.096C58.2188 181.661 58.3308 182.173 58.5548 182.632C58.7894 183.091 59.1041 183.453 59.4988 183.72C59.8934 183.976 60.3468 184.104 60.8588 184.104ZM66.7 185V177.192H67.868V178.792C68.0707 178.248 68.3587 177.827 68.732 177.528C69.116 177.219 69.5533 177.064 70.044 177.064C70.1827 177.064 70.3107 177.075 70.428 177.096C70.5453 177.107 70.6627 177.133 70.78 177.176V178.232C70.652 178.189 70.5133 178.157 70.364 178.136C70.2253 178.104 70.092 178.088 69.964 178.088C69.484 178.088 69.0627 178.227 68.7 178.504C68.348 178.781 68.0707 179.171 67.868 179.672V185H66.7ZM78.4754 185.16C77.8354 185.16 77.2434 185.064 76.6994 184.872C76.1554 184.669 75.6914 184.381 75.3074 184.008L75.9314 183.24C76.4007 183.581 76.8327 183.832 77.2274 183.992C77.622 184.141 78.0274 184.216 78.4434 184.216C79.0087 184.216 79.478 184.083 79.8514 183.816C80.2247 183.549 80.4114 183.208 80.4114 182.792C80.4114 182.472 80.2994 182.221 80.0754 182.04C79.862 181.859 79.5047 181.72 79.0034 181.624L77.7234 181.4C76.966 181.261 76.406 181.027 76.0434 180.696C75.6914 180.365 75.5154 179.917 75.5154 179.352C75.5154 178.904 75.6327 178.509 75.8674 178.168C76.1127 177.827 76.4487 177.56 76.8754 177.368C77.302 177.165 77.7874 177.064 78.3314 177.064C78.8647 177.064 79.3714 177.144 79.8514 177.304C80.3314 177.453 80.8167 177.699 81.3074 178.04L80.7314 178.856C80.326 178.568 79.9207 178.36 79.5154 178.232C79.11 178.093 78.6994 178.024 78.2834 178.024C77.7714 178.024 77.3607 178.136 77.0514 178.36C76.742 178.584 76.5874 178.888 76.5874 179.272C76.5874 179.592 76.6834 179.837 76.8754 180.008C77.078 180.179 77.43 180.307 77.9314 180.392L79.2434 180.632C80.0327 180.771 80.6087 181.011 80.9714 181.352C81.334 181.693 81.5154 182.152 81.5154 182.728C81.5154 183.187 81.382 183.603 81.1154 183.976C80.8487 184.339 80.486 184.627 80.0274 184.84C79.5687 185.053 79.0514 185.16 78.4754 185.16ZM86.8759 185.128C86.1505 185.128 85.4945 184.952 84.9079 184.6C84.3319 184.237 83.8732 183.752 83.5319 183.144C83.1905 182.525 83.0199 181.843 83.0199 181.096C83.0199 180.339 83.1905 179.656 83.5319 179.048C83.8732 178.44 84.3319 177.96 84.9079 177.608C85.4945 177.245 86.1505 177.064 86.8759 177.064C87.4519 177.064 88.0012 177.171 88.5239 177.384C89.0465 177.597 89.4999 177.896 89.8839 178.28L89.1319 179.096C88.8545 178.787 88.5185 178.547 88.1239 178.376C87.7292 178.205 87.3292 178.12 86.9239 178.12C86.4119 178.12 85.9479 178.253 85.5319 178.52C85.1265 178.787 84.8012 179.144 84.5559 179.592C84.3105 180.04 84.1879 180.541 84.1879 181.096C84.1879 181.651 84.3105 182.152 84.5559 182.6C84.8012 183.048 85.1265 183.405 85.5319 183.672C85.9479 183.939 86.4119 184.072 86.9239 184.072C87.3292 184.072 87.7292 183.987 88.1239 183.816C88.5185 183.635 88.8545 183.395 89.1319 183.096L89.8839 183.912C89.4999 184.296 89.0465 184.595 88.5239 184.808C88.0012 185.021 87.4519 185.128 86.8759 185.128ZM91.5125 185V173.448L92.6805 173.208V178.456C92.9792 177.987 93.3365 177.64 93.7525 177.416C94.1685 177.181 94.6378 177.064 95.1605 177.064C95.7258 177.064 96.2165 177.187 96.6325 177.432C97.0592 177.667 97.3898 178.003 97.6245 178.44C97.8698 178.867 97.9925 179.368 97.9925 179.944V185H96.8245V180.28C96.8245 179.587 96.6325 179.043 96.2485 178.648C95.8752 178.243 95.3685 178.04 94.7285 178.04C94.3018 178.04 93.9125 178.141 93.5605 178.344C93.2085 178.547 92.9152 178.845 92.6805 179.24V185H91.5125ZM103.861 185.16C103.135 185.16 102.479 184.984 101.893 184.632C101.306 184.269 100.842 183.784 100.501 183.176C100.159 182.557 99.9886 181.864 99.9886 181.096C99.9886 180.328 100.149 179.64 100.469 179.032C100.799 178.424 101.242 177.944 101.797 177.592C102.351 177.24 102.97 177.064 103.653 177.064C104.346 177.064 104.959 177.24 105.493 177.592C106.037 177.933 106.463 178.403 106.773 179C107.093 179.587 107.253 180.253 107.253 181V181.352H101.125C101.167 181.885 101.311 182.365 101.557 182.792C101.813 183.208 102.143 183.539 102.549 183.784C102.965 184.019 103.418 184.136 103.909 184.136C104.314 184.136 104.703 184.067 105.077 183.928C105.461 183.779 105.786 183.581 106.053 183.336L106.789 184.12C106.341 184.472 105.877 184.733 105.397 184.904C104.917 185.075 104.405 185.16 103.861 185.16ZM101.157 180.52H106.101C106.047 180.051 105.903 179.635 105.669 179.272C105.445 178.899 105.157 178.605 104.805 178.392C104.463 178.179 104.079 178.072 103.653 178.072C103.226 178.072 102.837 178.179 102.485 178.392C102.133 178.595 101.839 178.883 101.605 179.256C101.381 179.619 101.231 180.04 101.157 180.52ZM109.247 185V177.192H110.415V178.408C110.714 177.96 111.055 177.624 111.439 177.4C111.823 177.176 112.255 177.064 112.735 177.064C113.29 177.064 113.775 177.203 114.191 177.48C114.607 177.747 114.922 178.115 115.135 178.584C115.444 178.083 115.812 177.704 116.239 177.448C116.676 177.192 117.178 177.064 117.743 177.064C118.266 177.064 118.724 177.187 119.119 177.432C119.524 177.677 119.839 178.019 120.063 178.456C120.287 178.883 120.399 179.384 120.399 179.96V185H119.231V180.248C119.231 179.565 119.06 179.027 118.719 178.632C118.378 178.237 117.908 178.04 117.311 178.04C116.906 178.04 116.538 178.141 116.207 178.344C115.887 178.547 115.604 178.856 115.359 179.272C115.38 179.379 115.396 179.491 115.407 179.608C115.418 179.725 115.423 179.843 115.423 179.96V185H114.255V180.248C114.255 179.565 114.079 179.027 113.727 178.632C113.386 178.237 112.916 178.04 112.319 178.04C111.519 178.04 110.884 178.424 110.415 179.192V185H109.247ZM126.283 185.16C125.557 185.16 124.901 184.984 124.315 184.632C123.728 184.269 123.264 183.784 122.923 183.176C122.581 182.557 122.411 181.864 122.411 181.096C122.411 180.328 122.571 179.64 122.891 179.032C123.221 178.424 123.664 177.944 124.219 177.592C124.773 177.24 125.392 177.064 126.075 177.064C126.768 177.064 127.381 177.24 127.915 177.592C128.459 177.933 128.885 178.403 129.195 179C129.515 179.587 129.675 180.253 129.675 181V181.352H123.547C123.589 181.885 123.733 182.365 123.979 182.792C124.235 183.208 124.565 183.539 124.971 183.784C125.387 184.019 125.84 184.136 126.331 184.136C126.736 184.136 127.125 184.067 127.499 183.928C127.883 183.779 128.208 183.581 128.475 183.336L129.211 184.12C128.763 184.472 128.299 184.733 127.819 184.904C127.339 185.075 126.827 185.16 126.283 185.16ZM123.579 180.52H128.523C128.469 180.051 128.325 179.635 128.091 179.272C127.867 178.899 127.579 178.605 127.227 178.392C126.885 178.179 126.501 178.072 126.075 178.072C125.648 178.072 125.259 178.179 124.907 178.392C124.555 178.595 124.261 178.883 124.027 179.256C123.803 179.619 123.653 180.04 123.579 180.52ZM132.469 185.128C132.234 185.128 132.031 185.043 131.861 184.872C131.701 184.701 131.621 184.499 131.621 184.264C131.621 184.019 131.701 183.816 131.861 183.656C132.031 183.485 132.234 183.4 132.469 183.4C132.703 183.4 132.901 183.485 133.061 183.656C133.231 183.816 133.317 184.019 133.317 184.264C133.317 184.499 133.231 184.701 133.061 184.872C132.901 185.043 132.703 185.128 132.469 185.128ZM132.469 178.776C132.234 178.776 132.031 178.691 131.861 178.52C131.701 178.349 131.621 178.147 131.621 177.912C131.621 177.667 131.701 177.464 131.861 177.304C132.031 177.133 132.234 177.048 132.469 177.048C132.703 177.048 132.901 177.133 133.061 177.304C133.231 177.464 133.317 177.667 133.317 177.912C133.317 178.147 133.231 178.349 133.061 178.52C132.901 178.691 132.703 178.776 132.469 178.776Z" fill="#151515"/>
<mask id="path-5-inside-1_108_4724" fill="white">
<path d="M151 166C151 164.343 152.343 163 154 163H199V195H154C152.343 195 151 193.657 151 192V166Z"/>
</mask>
<path d="M151 166C151 164.343 152.343 163 154 163H199V195H154C152.343 195 151 193.657 151 192V166Z" fill="#0066CC"/>
<path d="M199 163H200V162H199V163ZM199 195V196H200V195H199ZM154 163V164H199V163V162H154V163ZM199 163H198V195H199H200V163H199ZM199 195V194H154V195V196H199V195ZM151 192H152V166H151H150V192H151ZM154 195V194C152.895 194 152 193.105 152 192H151H150C150 194.209 151.791 196 154 196V195ZM154 163V162C151.791 162 150 163.791 150 166H151H152C152 164.895 152.895 164 154 164V163Z" fill="#0066CC" mask="url(#path-5-inside-1_108_4724)"/>
<g clip-path="url(#clip0_108_4724)">
<path d="M175 183.5C172.519 183.5 170.5 181.481 170.5 179C170.5 176.519 172.519 174.5 175 174.5C177.481 174.5 179.5 176.519 179.5 179C179.5 181.481 177.481 183.5 175 183.5ZM175 175.5C173.07 175.5 171.5 177.07 171.5 179C171.5 180.93 173.07 182.5 175 182.5C176.93 182.5 178.5 180.93 178.5 179C178.5 177.07 176.93 175.5 175 175.5Z" fill="white"/>
<path d="M175 173.5C174.724 173.5 174.5 173.276 174.5 173V171.5C174.5 171.224 174.724 171 175 171C175.276 171 175.5 171.224 175.5 171.5V173C175.5 173.276 175.276 173.5 175 173.5Z" fill="white"/>
<path d="M175 187C174.724 187 174.5 186.776 174.5 186.5V185C174.5 184.724 174.724 184.5 175 184.5C175.276 184.5 175.5 184.724 175.5 185V186.5C175.5 186.776 175.276 187 175 187Z" fill="white"/>
<path d="M169 179.5H167.5C167.224 179.5 167 179.276 167 179C167 178.724 167.224 178.5 167.5 178.5H169C169.276 178.5 169.5 178.724 169.5 179C169.5 179.276 169.276 179.5 169 179.5Z" fill="white"/>
<path d="M182.5 179.5H181C180.724 179.5 180.5 179.276 180.5 179C180.5 178.724 180.724 178.5 181 178.5H182.5C182.776 178.5 183 178.724 183 179C183 179.276 182.776 179.5 182.5 179.5Z" fill="white"/>
<path d="M169.697 184.803C169.569 184.803 169.441 184.754 169.343 184.657C169.148 184.461 169.148 184.145 169.343 183.95L170.404 182.889C170.599 182.694 170.916 182.694 171.111 182.889C171.306 183.084 171.306 183.401 171.111 183.596L170.05 184.657C169.953 184.754 169.825 184.803 169.697 184.803Z" fill="white"/>
<path d="M179.243 175.257C179.115 175.257 178.987 175.209 178.889 175.111C178.694 174.916 178.694 174.599 178.889 174.404L179.95 173.343C180.145 173.148 180.461 173.148 180.657 173.343C180.852 173.539 180.852 173.855 180.657 174.05L179.596 175.111C179.499 175.209 179.371 175.257 179.243 175.257Z" fill="white"/>
<path d="M170.757 175.257C170.629 175.257 170.501 175.209 170.404 175.111L169.343 174.05C169.148 173.855 169.148 173.539 169.343 173.343C169.539 173.148 169.855 173.148 170.05 173.343L171.111 174.404C171.306 174.599 171.306 174.916 171.111 175.111C171.013 175.209 170.885 175.257 170.757 175.257Z" fill="white"/>
<path d="M180.303 184.803C180.175 184.803 180.047 184.754 179.95 184.657L178.889 183.596C178.694 183.401 178.694 183.085 178.889 182.889C179.084 182.694 179.401 182.694 179.596 182.889L180.657 183.95C180.852 184.145 180.852 184.461 180.657 184.657C180.559 184.754 180.431 184.803 180.303 184.803Z" fill="white"/>
</g>
<mask id="path-16-inside-2_108_4724" fill="white">
<path d="M198 163H246V195H198V163Z"/>
</mask>
<path d="M198 163H246V195H198V163Z" fill="white"/>
<path d="M246 163H247V162H246V163ZM246 195V196H247V195H246ZM198 163V164H246V163V162H198V163ZM246 163H245V195H246H247V163H246ZM246 195V194H198V195V196H246V195Z" fill="#C7C7C7" mask="url(#path-16-inside-2_108_4724)"/>
<g clip-path="url(#clip1_108_4724)">
<path d="M222.229 186C218.243 186 215 182.757 215 178.772C215 175.807 216.857 173.099 219.622 172.034C219.806 171.963 220.017 172.007 220.156 172.148C220.296 172.289 220.339 172.499 220.266 172.684C219.987 173.392 219.845 174.147 219.845 174.927C219.845 178.361 222.639 181.155 226.073 181.155C226.853 181.155 227.608 181.013 228.316 180.734C228.5 180.662 228.711 180.704 228.852 180.844C228.993 180.983 229.038 181.193 228.966 181.379C227.901 184.143 225.193 186 222.229 186ZM218.996 173.452C217.169 174.567 216 176.588 216 178.772C216 182.206 218.794 185 222.229 185C224.412 185 226.434 183.831 227.548 182.004C227.067 182.105 226.575 182.155 226.073 182.155C222.087 182.155 218.845 178.913 218.845 174.927C218.845 174.426 218.896 173.933 218.996 173.452Z" fill="#151515"/>
</g>
<mask id="path-19-inside-3_108_4724" fill="white">
<path d="M245 163H290C291.657 163 293 164.343 293 166V192C293 193.657 291.657 195 290 195H245V163Z"/>
</mask>
<path d="M245 163H290C291.657 163 293 164.343 293 166V192C293 193.657 291.657 195 290 195H245V163Z" fill="white"/>
<path d="M245 163V162H244V163H245ZM245 195H244V196H245V195ZM245 163V164H290V163V162H245V163ZM293 166H292V192H293H294V166H293ZM290 195V194H245V195V196H290V195ZM245 195H246V163H245H244V195H245ZM293 192H292C292 193.105 291.105 194 290 194V195V196C292.209 196 294 194.209 294 192H293ZM290 163V164C291.105 164 292 164.895 292 166H293H294C294 163.791 292.209 162 290 162V163Z" fill="#C7C7C7" mask="url(#path-19-inside-3_108_4724)"/>
<g clip-path="url(#clip2_108_4724)">
<path d="M272.97 179C272.721 179 272.506 178.815 272.474 178.562C272.277 176.97 271.029 175.724 269.44 175.531C269.166 175.498 268.97 175.249 269.004 174.975C269.037 174.7 269.285 174.506 269.561 174.539C271.606 174.787 273.212 176.391 273.467 178.438C273.501 178.712 273.306 178.962 273.032 178.996C273.011 178.999 272.99 179 272.97 179Z" fill="#151515"/>
<path d="M269 173.5C268.724 173.5 268.5 173.276 268.5 173V171.5C268.5 171.224 268.724 171 269 171C269.276 171 269.5 171.224 269.5 171.5V173C269.5 173.276 269.276 173.5 269 173.5Z" fill="#151515"/>
<path d="M269 187C268.724 187 268.5 186.776 268.5 186.5V185C268.5 184.724 268.724 184.5 269 184.5C269.276 184.5 269.5 184.724 269.5 185V186.5C269.5 186.776 269.276 187 269 187Z" fill="#151515"/>
<path d="M263 179.5H261.5C261.224 179.5 261 179.276 261 179C261 178.724 261.224 178.5 261.5 178.5H263C263.276 178.5 263.5 178.724 263.5 179C263.5 179.276 263.276 179.5 263 179.5Z" fill="#151515"/>
<path d="M276.5 179.5H275C274.724 179.5 274.5 179.276 274.5 179C274.5 178.724 274.724 178.5 275 178.5H276.5C276.776 178.5 277 178.724 277 179C277 179.276 276.776 179.5 276.5 179.5Z" fill="#151515"/>
<path d="M263.697 184.803C263.569 184.803 263.441 184.754 263.343 184.657C263.148 184.461 263.148 184.145 263.343 183.95L264.404 182.889C264.599 182.694 264.916 182.694 265.111 182.889C265.306 183.084 265.306 183.401 265.111 183.596L264.05 184.657C263.953 184.754 263.825 184.803 263.697 184.803Z" fill="#151515"/>
<path d="M273.243 175.257C273.115 175.257 272.987 175.209 272.889 175.111C272.694 174.916 272.694 174.599 272.889 174.404L273.95 173.343C274.145 173.148 274.461 173.148 274.657 173.343C274.852 173.539 274.852 173.855 274.657 174.05L273.596 175.111C273.499 175.209 273.371 175.257 273.243 175.257Z" fill="#151515"/>
<path d="M264.757 175.257C264.629 175.257 264.501 175.209 264.404 175.111L263.343 174.05C263.148 173.855 263.148 173.539 263.343 173.343C263.539 173.148 263.855 173.148 264.05 173.343L265.111 174.404C265.306 174.599 265.306 174.916 265.111 175.111C265.013 175.209 264.885 175.257 264.757 175.257Z" fill="#151515"/>
<path d="M274.303 184.803C274.175 184.803 274.047 184.754 273.95 184.657L272.889 183.596C272.694 183.401 272.694 183.085 272.889 182.889C273.084 182.694 273.401 182.694 273.596 182.889L274.657 183.95C274.852 184.145 274.852 184.461 274.657 184.657C274.559 184.754 274.431 184.803 274.303 184.803Z" fill="#151515"/>
<path d="M269 183.438C266.553 183.438 264.562 181.447 264.562 179C264.562 177.257 265.588 175.67 267.176 174.956C267.342 174.88 267.537 174.918 267.666 175.047C267.794 175.177 267.829 175.372 267.752 175.538C267.543 175.992 267.438 176.484 267.438 177C267.438 178.964 269.036 180.562 271 180.562C271.516 180.562 272.008 180.457 272.462 180.248C272.627 180.172 272.823 180.206 272.953 180.334C273.083 180.463 273.119 180.658 273.044 180.824C272.33 182.412 270.743 183.438 269 183.438ZM266.607 176.361C265.876 177.025 265.438 177.979 265.438 179C265.438 180.964 267.036 182.563 269 182.563C270.021 182.563 270.975 182.124 271.639 181.393C271.43 181.422 271.216 181.438 271 181.438C268.553 181.438 266.562 179.447 266.562 177C266.562 176.783 266.578 176.57 266.607 176.361Z" fill="#151515"/>
</g>
</g>
<g clip-path="url(#clip3_108_4724)">
<path d="M288.796 123L291.898 119.898C292.117 119.678 292.117 119.322 291.898 119.102C291.678 118.883 291.322 118.883 291.102 119.102L288 122.204L284.898 119.102C284.678 118.883 284.322 118.883 284.102 119.102C283.883 119.322 283.883 119.678 284.102 119.898L287.204 123L284.102 126.102C283.883 126.322 283.883 126.678 284.102 126.898C284.212 127.008 284.356 127.063 284.5 127.063C284.644 127.063 284.788 127.008 284.898 126.898L288 123.796L291.102 126.898C291.212 127.008 291.356 127.063 291.5 127.063C291.644 127.063 291.788 127.008 291.898 126.898C292.117 126.678 292.117 126.322 291.898 126.102L288.796 123Z" fill="#151515"/>
</g>
<mask id="mask1_108_4724" style="mask-type:alpha" maskUnits="userSpaceOnUse" x="0" y="0" width="360" height="91">
<rect width="360" height="91" fill="white"/>
</mask>
<g mask="url(#mask1_108_4724)">
<g filter="url(#filter1_d_108_4724)">
<rect width="360" height="83" fill="white"/>
<path d="M42.6807 43.7896C45.3076 43.7896 49.1134 43.25 49.1134 40.1521C49.1134 39.9104 49.1071 39.675 49.0482 39.4396L47.4826 32.6979C47.1191 31.2167 46.8038 30.5417 44.1748 29.2396C42.1385 28.2062 37.698 26.5 36.3846 26.5C35.1615 26.5 34.8 28.0708 33.35 28.0708C31.9 28.0708 30.9039 26.9042 29.5904 26.9042C28.277 26.9042 27.5057 27.7583 26.8732 29.5083C26.8732 29.5083 25.1058 34.4479 24.8788 35.1667C24.8326 35.3021 24.8326 35.4521 24.8326 35.5708C24.8326 37.4917 32.459 43.7896 42.6828 43.7896M49.5232 41.4083C49.8867 43.1146 49.8867 43.2938 49.8867 43.5187C49.8867 46.4375 46.579 48.0542 42.231 48.0542C32.4001 48.0542 23.7924 42.35 23.7924 38.5792C23.7924 37.9958 23.929 37.4563 24.1097 37.0521C20.575 37.2312 16 37.8604 16 41.8583C16 48.4146 31.6751 56.5 44.0866 56.5C53.6001 56.5 56 52.2333 56 48.8646C56 46.2146 53.6904 43.2062 49.5211 41.4083" fill="#EE0000"/>
<path d="M49.0481 39.4397C49.107 39.6751 49.1133 39.9105 49.1133 40.1522C49.1133 43.2501 45.3075 43.7897 42.6806 43.7897C32.4568 43.7897 24.8304 37.4917 24.8304 35.5709C24.8304 35.4522 24.8304 35.3022 24.8767 35.1667L24.1054 37.0542C23.9247 37.4584 23.7881 37.9959 23.7881 38.5813C23.7881 42.3542 32.3958 48.0563 42.2267 48.0563C46.5747 48.0563 49.8824 46.4397 49.8824 43.5209C49.8824 43.2959 49.8824 43.1167 49.5189 41.4105L49.046 39.4397H49.0481Z" fill="black"/>
<mask id="path-35-inside-4_108_4724" fill="white">
<path d="M72 41.5C72 30.4543 80.9543 21.5 92 21.5H118C129.046 21.5 138 30.4543 138 41.5C138 52.5457 129.046 61.5 118 61.5H92C80.9543 61.5 72 52.5457 72 41.5Z"/>
</mask>
<path d="M72 41.5C72 30.4543 80.9543 21.5 92 21.5H118C129.046 21.5 138 30.4543 138 41.5C138 52.5457 129.046 61.5 118 61.5H92C80.9543 61.5 72 52.5457 72 41.5Z" fill="white"/>
<path d="M92 21.5V22.5H118V21.5V20.5H92V21.5ZM118 61.5V60.5H92V61.5V62.5H118V61.5ZM92 61.5V60.5C81.5066 60.5 73 51.9934 73 41.5H72H71C71 53.098 80.402 62.5 92 62.5V61.5ZM138 41.5H137C137 51.9934 128.493 60.5 118 60.5V61.5V62.5C129.598 62.5 139 53.098 139 41.5H138ZM118 21.5V22.5C128.493 22.5 137 31.0066 137 41.5H138H139C139 29.902 129.598 20.5 118 20.5V21.5ZM92 21.5V20.5C80.402 20.5 71 29.902 71 41.5H72H73C73 31.0066 81.5066 22.5 92 22.5V21.5Z" fill="#C7C7C7" mask="url(#path-35-inside-4_108_4724)"/>
<g clip-path="url(#clip4_108_4724)">
<path d="M103 41H89C88.725 41 88.5 41.225 88.5 41.5C88.5 41.775 88.725 42 89 42H103C103.275 42 103.5 41.775 103.5 41.5C103.5 41.225 103.275 41 103 41Z" fill="#151515"/>
<path d="M89 37H103C103.275 37 103.5 36.775 103.5 36.5C103.5 36.225 103.275 36 103 36H89C88.725 36 88.5 36.225 88.5 36.5C88.5 36.775 88.725 37 89 37Z" fill="#151515"/>
<path d="M103 46H89C88.725 46 88.5 46.225 88.5 46.5C88.5 46.775 88.725 47 89 47H103C103.275 47 103.5 46.775 103.5 46.5C103.5 46.225 103.275 46 103 46Z" fill="#151515"/>
</g>
<g clip-path="url(#clip5_108_4724)">
<path d="M121.354 39.1465C121.158 38.9512 120.842 38.9512 120.646 39.1465L117 42.793L113.354 39.1465C113.158 38.9512 112.842 38.9512 112.646 39.1465C112.451 39.3418 112.451 39.6582 112.646 39.8535L116.47 43.6768C116.616 43.8233 116.808 43.896 117 43.896C117.192 43.896 117.384 43.8233 117.53 43.6768L121.353 39.8535C121.549 39.6582 121.549 39.3418 121.354 39.1465Z" fill="#707070"/>
</g>
<mask id="path-41-inside-5_108_4724" fill="white">
<path d="M278 41.5C278 30.4543 286.954 21.5 298 21.5H324C335.046 21.5 344 30.4543 344 41.5C344 52.5457 335.046 61.5 324 61.5H298C286.954 61.5 278 52.5457 278 41.5Z"/>
</mask>
<path d="M278 41.5C278 30.4543 286.954 21.5 298 21.5H324C335.046 21.5 344 30.4543 344 41.5C344 52.5457 335.046 61.5 324 61.5H298C286.954 61.5 278 52.5457 278 41.5Z" fill="white"/>
<path d="M298 21.5V22.5H324V21.5V20.5H298V21.5ZM324 61.5V60.5H298V61.5V62.5H324V61.5ZM298 61.5V60.5C287.507 60.5 279 51.9934 279 41.5H278H277C277 53.098 286.402 62.5 298 62.5V61.5ZM344 41.5H343C343 51.9934 334.493 60.5 324 60.5V61.5V62.5C335.598 62.5 345 53.098 345 41.5H344ZM324 21.5V22.5C334.493 22.5 343 31.0066 343 41.5H344H345C345 29.902 335.598 20.5 324 20.5V21.5ZM298 21.5V20.5C286.402 20.5 277 29.902 277 41.5H278H279C279 31.0066 287.507 22.5 298 22.5V21.5Z" fill="#C7C7C7" mask="url(#path-41-inside-5_108_4724)"/>
<g clip-path="url(#clip6_108_4724)">
<path d="M304.19 40.84C305.28 40.125 306 38.895 306 37.5C306 35.295 304.205 33.5 302 33.5C299.795 33.5 298 35.295 298 37.5C298 38.895 298.72 40.125 299.81 40.84C296.81 41.805 294.615 44.705 294.505 48.22C294.5 48.42 294.575 48.62 294.715 48.765C294.855 48.91 295.055 48.995 295.255 48.995H308.74C308.945 48.995 309.14 48.91 309.28 48.765C309.42 48.62 309.5 48.42 309.49 48.22C309.38 44.7 307.185 41.8 304.185 40.835L304.19 40.84ZM299 37.5C299 35.845 300.345 34.5 302 34.5C303.655 34.5 305 35.845 305 37.5C305 39.155 303.655 40.5 302 40.5C300.345 40.5 299 39.155 299 37.5ZM295.515 48C295.75 44.335 298.555 41.5 302 41.5C305.445 41.5 308.245 44.335 308.485 48H295.515Z" fill="#151515"/>
</g>
<g clip-path="url(#clip7_108_4724)">
<path d="M327.354 39.1465C327.158 38.9512 326.842 38.9512 326.646 39.1465L323 42.793L319.354 39.1465C319.158 38.9512 318.842 38.9512 318.646 39.1465C318.451 39.3418 318.451 39.6582 318.646 39.8535L322.47 43.6768C322.616 43.8233 322.808 43.896 323 43.896C323.192 43.896 323.384 43.8233 323.53 43.6768L327.353 39.8535C327.549 39.6582 327.549 39.3418 327.354 39.1465Z" fill="#707070"/>
</g>
</g>
</g>
<rect x="424" y="83" width="360" height="144" fill="#383838"/>
<mask id="mask2_108_4724" style="mask-type:alpha" maskUnits="userSpaceOnUse" x="424" y="83" width="360" height="144">
<rect x="424" y="83" width="360" height="144" fill="#383838"/>
</mask>
<g mask="url(#mask2_108_4724)">
<g filter="url(#filter2_d_108_4724)">
<rect x="424" y="83" width="328" height="144" fill="#1F1F1F"/>
</g>
<path d="M462.592 185.176C461.792 185.176 461.045 185.032 460.352 184.744C459.669 184.445 459.067 184.035 458.544 183.512C458.021 182.979 457.616 182.365 457.328 181.672C457.04 180.968 456.896 180.211 456.896 179.4C456.896 178.589 457.04 177.837 457.328 177.144C457.616 176.44 458.021 175.827 458.544 175.304C459.067 174.771 459.669 174.36 460.352 174.072C461.045 173.773 461.792 173.624 462.592 173.624C463.147 173.624 463.675 173.699 464.176 173.848C464.688 173.987 465.168 174.195 465.616 174.472C466.064 174.739 466.464 175.069 466.816 175.464L466 176.312C465.584 175.811 465.072 175.427 464.464 175.16C463.867 174.883 463.243 174.744 462.592 174.744C461.963 174.744 461.376 174.861 460.832 175.096C460.288 175.331 459.813 175.661 459.408 176.088C459.013 176.515 458.704 177.011 458.48 177.576C458.256 178.131 458.144 178.739 458.144 179.4C458.144 180.051 458.256 180.659 458.48 181.224C458.704 181.789 459.013 182.285 459.408 182.712C459.813 183.139 460.288 183.469 460.832 183.704C461.376 183.939 461.963 184.056 462.592 184.056C463.243 184.056 463.867 183.917 464.464 183.64C465.072 183.363 465.584 182.979 466 182.488L466.816 183.336C466.464 183.731 466.064 184.067 465.616 184.344C465.168 184.611 464.688 184.819 464.176 184.968C463.675 185.107 463.147 185.176 462.592 185.176ZM472.031 185.128C471.306 185.128 470.655 184.952 470.079 184.6C469.503 184.248 469.05 183.768 468.719 183.16C468.388 182.552 468.223 181.864 468.223 181.096C468.223 180.328 468.388 179.64 468.719 179.032C469.05 178.424 469.503 177.944 470.079 177.592C470.655 177.24 471.306 177.064 472.031 177.064C472.746 177.064 473.386 177.24 473.951 177.592C474.527 177.944 474.98 178.424 475.311 179.032C475.642 179.64 475.807 180.328 475.807 181.096C475.807 181.864 475.642 182.552 475.311 183.16C474.98 183.768 474.527 184.248 473.951 184.6C473.386 184.952 472.746 185.128 472.031 185.128ZM472.015 184.104C472.527 184.104 472.98 183.976 473.375 183.72C473.77 183.453 474.079 183.091 474.303 182.632C474.538 182.173 474.655 181.661 474.655 181.096C474.655 180.52 474.538 180.008 474.303 179.56C474.079 179.101 473.77 178.744 473.375 178.488C472.98 178.221 472.527 178.088 472.015 178.088C471.503 178.088 471.05 178.221 470.655 178.488C470.26 178.744 469.946 179.101 469.711 179.56C469.487 180.008 469.375 180.52 469.375 181.096C469.375 181.661 469.487 182.173 469.711 182.632C469.946 183.091 470.26 183.453 470.655 183.72C471.05 183.976 471.503 184.104 472.015 184.104ZM477.856 185V173.448L479.024 173.208V185H477.856ZM484.875 185.128C484.149 185.128 483.499 184.952 482.923 184.6C482.347 184.248 481.893 183.768 481.563 183.16C481.232 182.552 481.067 181.864 481.067 181.096C481.067 180.328 481.232 179.64 481.563 179.032C481.893 178.424 482.347 177.944 482.923 177.592C483.499 177.24 484.149 177.064 484.875 177.064C485.589 177.064 486.229 177.24 486.795 177.592C487.371 177.944 487.824 178.424 488.155 179.032C488.485 179.64 488.651 180.328 488.651 181.096C488.651 181.864 488.485 182.552 488.155 183.16C487.824 183.768 487.371 184.248 486.795 184.6C486.229 184.952 485.589 185.128 484.875 185.128ZM484.859 184.104C485.371 184.104 485.824 183.976 486.219 183.72C486.613 183.453 486.923 183.091 487.147 182.632C487.381 182.173 487.499 181.661 487.499 181.096C487.499 180.52 487.381 180.008 487.147 179.56C486.923 179.101 486.613 178.744 486.219 178.488C485.824 178.221 485.371 178.088 484.859 178.088C484.347 178.088 483.893 178.221 483.499 178.488C483.104 178.744 482.789 179.101 482.555 179.56C482.331 180.008 482.219 180.52 482.219 181.096C482.219 181.661 482.331 182.173 482.555 182.632C482.789 183.091 483.104 183.453 483.499 183.72C483.893 183.976 484.347 184.104 484.859 184.104ZM490.7 185V177.192H491.868V178.792C492.071 178.248 492.359 177.827 492.732 177.528C493.116 177.219 493.553 177.064 494.044 177.064C494.183 177.064 494.311 177.075 494.428 177.096C494.545 177.107 494.663 177.133 494.78 177.176V178.232C494.652 178.189 494.513 178.157 494.364 178.136C494.225 178.104 494.092 178.088 493.964 178.088C493.484 178.088 493.063 178.227 492.7 178.504C492.348 178.781 492.071 179.171 491.868 179.672V185H490.7ZM502.475 185.16C501.835 185.16 501.243 185.064 500.699 184.872C500.155 184.669 499.691 184.381 499.307 184.008L499.931 183.24C500.401 183.581 500.833 183.832 501.227 183.992C501.622 184.141 502.027 184.216 502.443 184.216C503.009 184.216 503.478 184.083 503.851 183.816C504.225 183.549 504.411 183.208 504.411 182.792C504.411 182.472 504.299 182.221 504.075 182.04C503.862 181.859 503.505 181.72 503.003 181.624L501.723 181.4C500.966 181.261 500.406 181.027 500.043 180.696C499.691 180.365 499.515 179.917 499.515 179.352C499.515 178.904 499.633 178.509 499.867 178.168C500.113 177.827 500.449 177.56 500.875 177.368C501.302 177.165 501.787 177.064 502.331 177.064C502.865 177.064 503.371 177.144 503.851 177.304C504.331 177.453 504.817 177.699 505.307 178.04L504.731 178.856C504.326 178.568 503.921 178.36 503.515 178.232C503.11 178.093 502.699 178.024 502.283 178.024C501.771 178.024 501.361 178.136 501.051 178.36C500.742 178.584 500.587 178.888 500.587 179.272C500.587 179.592 500.683 179.837 500.875 180.008C501.078 180.179 501.43 180.307 501.931 180.392L503.243 180.632C504.033 180.771 504.609 181.011 504.971 181.352C505.334 181.693 505.515 182.152 505.515 182.728C505.515 183.187 505.382 183.603 505.115 183.976C504.849 184.339 504.486 184.627 504.027 184.84C503.569 185.053 503.051 185.16 502.475 185.16ZM510.876 185.128C510.151 185.128 509.495 184.952 508.908 184.6C508.332 184.237 507.873 183.752 507.532 183.144C507.191 182.525 507.02 181.843 507.02 181.096C507.02 180.339 507.191 179.656 507.532 179.048C507.873 178.44 508.332 177.96 508.908 177.608C509.495 177.245 510.151 177.064 510.876 177.064C511.452 177.064 512.001 177.171 512.524 177.384C513.047 177.597 513.5 177.896 513.884 178.28L513.132 179.096C512.855 178.787 512.519 178.547 512.124 178.376C511.729 178.205 511.329 178.12 510.924 178.12C510.412 178.12 509.948 178.253 509.532 178.52C509.127 178.787 508.801 179.144 508.556 179.592C508.311 180.04 508.188 180.541 508.188 181.096C508.188 181.651 508.311 182.152 508.556 182.6C508.801 183.048 509.127 183.405 509.532 183.672C509.948 183.939 510.412 184.072 510.924 184.072C511.329 184.072 511.729 183.987 512.124 183.816C512.519 183.635 512.855 183.395 513.132 183.096L513.884 183.912C513.5 184.296 513.047 184.595 512.524 184.808C512.001 185.021 511.452 185.128 510.876 185.128ZM515.513 185V173.448L516.681 173.208V178.456C516.979 177.987 517.337 177.64 517.753 177.416C518.169 177.181 518.638 177.064 519.161 177.064C519.726 177.064 520.217 177.187 520.633 177.432C521.059 177.667 521.39 178.003 521.625 178.44C521.87 178.867 521.993 179.368 521.993 179.944V185H520.825V180.28C520.825 179.587 520.633 179.043 520.249 178.648C519.875 178.243 519.369 178.04 518.729 178.04C518.302 178.04 517.913 178.141 517.561 178.344C517.209 178.547 516.915 178.845 516.681 179.24V185H515.513ZM527.861 185.16C527.135 185.16 526.479 184.984 525.893 184.632C525.306 184.269 524.842 183.784 524.501 183.176C524.159 182.557 523.989 181.864 523.989 181.096C523.989 180.328 524.149 179.64 524.469 179.032C524.799 178.424 525.242 177.944 525.797 177.592C526.351 177.24 526.97 177.064 527.653 177.064C528.346 177.064 528.959 177.24 529.493 177.592C530.037 177.933 530.463 178.403 530.773 179C531.093 179.587 531.253 180.253 531.253 181V181.352H525.125C525.167 181.885 525.311 182.365 525.557 182.792C525.813 183.208 526.143 183.539 526.549 183.784C526.965 184.019 527.418 184.136 527.909 184.136C528.314 184.136 528.703 184.067 529.077 183.928C529.461 183.779 529.786 183.581 530.053 183.336L530.789 184.12C530.341 184.472 529.877 184.733 529.397 184.904C528.917 185.075 528.405 185.16 527.861 185.16ZM525.157 180.52H530.101C530.047 180.051 529.903 179.635 529.669 179.272C529.445 178.899 529.157 178.605 528.805 178.392C528.463 178.179 528.079 178.072 527.653 178.072C527.226 178.072 526.837 178.179 526.485 178.392C526.133 178.595 525.839 178.883 525.605 179.256C525.381 179.619 525.231 180.04 525.157 180.52ZM533.247 185V177.192H534.415V178.408C534.714 177.96 535.055 177.624 535.439 177.4C535.823 177.176 536.255 177.064 536.735 177.064C537.29 177.064 537.775 177.203 538.191 177.48C538.607 177.747 538.922 178.115 539.135 178.584C539.444 178.083 539.812 177.704 540.239 177.448C540.676 177.192 541.178 177.064 541.743 177.064C542.266 177.064 542.724 177.187 543.119 177.432C543.524 177.677 543.839 178.019 544.063 178.456C544.287 178.883 544.399 179.384 544.399 179.96V185H543.231V180.248C543.231 179.565 543.06 179.027 542.719 178.632C542.378 178.237 541.908 178.04 541.311 178.04C540.906 178.04 540.538 178.141 540.207 178.344C539.887 178.547 539.604 178.856 539.359 179.272C539.38 179.379 539.396 179.491 539.407 179.608C539.418 179.725 539.423 179.843 539.423 179.96V185H538.255V180.248C538.255 179.565 538.079 179.027 537.727 178.632C537.386 178.237 536.916 178.04 536.319 178.04C535.519 178.04 534.884 178.424 534.415 179.192V185H533.247ZM550.283 185.16C549.557 185.16 548.901 184.984 548.315 184.632C547.728 184.269 547.264 183.784 546.923 183.176C546.581 182.557 546.411 181.864 546.411 181.096C546.411 180.328 546.571 179.64 546.891 179.032C547.221 178.424 547.664 177.944 548.219 177.592C548.773 177.24 549.392 177.064 550.075 177.064C550.768 177.064 551.381 177.24 551.915 177.592C552.459 177.933 552.885 178.403 553.195 179C553.515 179.587 553.675 180.253 553.675 181V181.352H547.547C547.589 181.885 547.733 182.365 547.979 182.792C548.235 183.208 548.565 183.539 548.971 183.784C549.387 184.019 549.84 184.136 550.331 184.136C550.736 184.136 551.125 184.067 551.499 183.928C551.883 183.779 552.208 183.581 552.475 183.336L553.211 184.12C552.763 184.472 552.299 184.733 551.819 184.904C551.339 185.075 550.827 185.16 550.283 185.16ZM547.579 180.52H552.523C552.469 180.051 552.325 179.635 552.091 179.272C551.867 178.899 551.579 178.605 551.227 178.392C550.885 178.179 550.501 178.072 550.075 178.072C549.648 178.072 549.259 178.179 548.907 178.392C548.555 178.595 548.261 178.883 548.027 179.256C547.803 179.619 547.653 180.04 547.579 180.52ZM556.469 185.128C556.234 185.128 556.031 185.043 555.861 184.872C555.701 184.701 555.621 184.499 555.621 184.264C555.621 184.019 555.701 183.816 555.861 183.656C556.031 183.485 556.234 183.4 556.469 183.4C556.703 183.4 556.901 183.485 557.061 183.656C557.231 183.816 557.317 184.019 557.317 184.264C557.317 184.499 557.231 184.701 557.061 184.872C556.901 185.043 556.703 185.128 556.469 185.128ZM556.469 178.776C556.234 178.776 556.031 178.691 555.861 178.52C555.701 178.349 555.621 178.147 555.621 177.912C555.621 177.667 555.701 177.464 555.861 177.304C556.031 177.133 556.234 177.048 556.469 177.048C556.703 177.048 556.901 177.133 557.061 177.304C557.231 177.464 557.317 177.667 557.317 177.912C557.317 178.147 557.231 178.349 557.061 178.52C556.901 178.691 556.703 178.776 556.469 178.776Z" fill="white"/>
<mask id="path-49-inside-6_108_4724" fill="white">
<path d="M575 166C575 164.343 576.343 163 578 163H623V195H578C576.343 195 575 193.657 575 192V166Z"/>
</mask>
<path d="M575 166C575 164.343 576.343 163 578 163H623V195H578C576.343 195 575 193.657 575 192V166Z" fill="#92C5F9"/>
<path d="M623 163H624V162H623V163ZM623 195V196H624V195H623ZM578 163V164H623V163V162H578V163ZM623 163H622V195H623H624V163H623ZM623 195V194H578V195V196H623V195ZM575 192H576V166H575H574V192H575ZM578 195V194C576.895 194 576 193.105 576 192H575H574C574 194.209 575.791 196 578 196V195ZM578 163V162C575.791 162 574 163.791 574 166H575H576C576 164.895 576.895 164 578 164V163Z" fill="#92C5F9" mask="url(#path-49-inside-6_108_4724)"/>
<g clip-path="url(#clip8_108_4724)">
<path d="M599 183.5C596.519 183.5 594.5 181.481 594.5 179C594.5 176.519 596.519 174.5 599 174.5C601.481 174.5 603.5 176.519 603.5 179C603.5 181.481 601.481 183.5 599 183.5ZM599 175.5C597.07 175.5 595.5 177.07 595.5 179C595.5 180.93 597.07 182.5 599 182.5C600.93 182.5 602.5 180.93 602.5 179C602.5 177.07 600.93 175.5 599 175.5Z" fill="#151515"/>
<path d="M599 173.5C598.724 173.5 598.5 173.276 598.5 173V171.5C598.5 171.224 598.724 171 599 171C599.276 171 599.5 171.224 599.5 171.5V173C599.5 173.276 599.276 173.5 599 173.5Z" fill="#151515"/>
<path d="M599 187C598.724 187 598.5 186.776 598.5 186.5V185C598.5 184.724 598.724 184.5 599 184.5C599.276 184.5 599.5 184.724 599.5 185V186.5C599.5 186.776 599.276 187 599 187Z" fill="#151515"/>
<path d="M593 179.5H591.5C591.224 179.5 591 179.276 591 179C591 178.724 591.224 178.5 591.5 178.5H593C593.276 178.5 593.5 178.724 593.5 179C593.5 179.276 593.276 179.5 593 179.5Z" fill="#151515"/>
<path d="M606.5 179.5H605C604.724 179.5 604.5 179.276 604.5 179C604.5 178.724 604.724 178.5 605 178.5H606.5C606.776 178.5 607 178.724 607 179C607 179.276 606.776 179.5 606.5 179.5Z" fill="#151515"/>
<path d="M593.697 184.803C593.569 184.803 593.441 184.754 593.343 184.657C593.148 184.461 593.148 184.145 593.343 183.95L594.404 182.889C594.599 182.694 594.916 182.694 595.111 182.889C595.306 183.084 595.306 183.401 595.111 183.596L594.05 184.657C593.953 184.754 593.825 184.803 593.697 184.803Z" fill="#151515"/>
<path d="M603.243 175.257C603.115 175.257 602.987 175.209 602.889 175.111C602.694 174.916 602.694 174.599 602.889 174.404L603.95 173.343C604.145 173.148 604.461 173.148 604.657 173.343C604.852 173.539 604.852 173.855 604.657 174.05L603.596 175.111C603.499 175.209 603.371 175.257 603.243 175.257Z" fill="#151515"/>
<path d="M594.757 175.257C594.629 175.257 594.501 175.209 594.404 175.111L593.343 174.05C593.148 173.855 593.148 173.539 593.343 173.343C593.539 173.148 593.855 173.148 594.05 173.343L595.111 174.404C595.306 174.599 595.306 174.916 595.111 175.111C595.013 175.209 594.885 175.257 594.757 175.257Z" fill="#151515"/>
<path d="M604.303 184.803C604.175 184.803 604.047 184.754 603.95 184.657L602.889 183.596C602.694 183.401 602.694 183.085 602.889 182.889C603.084 182.694 603.401 182.694 603.596 182.889L604.657 183.95C604.852 184.145 604.852 184.461 604.657 184.657C604.559 184.754 604.431 184.803 604.303 184.803Z" fill="#151515"/>
</g>
<mask id="path-60-inside-7_108_4724" fill="white">
<path d="M622 163H670V195H622V163Z"/>
</mask>
<path d="M622 163H670V195H622V163Z" fill="#151515"/>
<path d="M670 163H671V162H670V163ZM670 195V196H671V195H670ZM622 163V164H670V163V162H622V163ZM670 163H669V195H670H671V163H670ZM670 195V194H622V195V196H670V195Z" fill="#707070" mask="url(#path-60-inside-7_108_4724)"/>
<g clip-path="url(#clip9_108_4724)">
<path d="M646.229 186C642.243 186 639 182.757 639 178.772C639 175.807 640.857 173.099 643.622 172.034C643.806 171.963 644.017 172.007 644.156 172.148C644.296 172.289 644.339 172.499 644.266 172.684C643.987 173.392 643.845 174.147 643.845 174.927C643.845 178.361 646.639 181.155 650.073 181.155C650.853 181.155 651.608 181.013 652.316 180.734C652.5 180.662 652.711 180.704 652.852 180.844C652.993 180.983 653.038 181.193 652.966 181.379C651.901 184.143 649.193 186 646.229 186ZM642.996 173.452C641.169 174.567 640 176.588 640 178.772C640 182.206 642.794 185 646.229 185C648.412 185 650.434 183.831 651.548 182.004C651.067 182.105 650.575 182.155 650.073 182.155C646.087 182.155 642.845 178.913 642.845 174.927C642.845 174.426 642.896 173.933 642.996 173.452Z" fill="white"/>
</g>
<mask id="path-63-inside-8_108_4724" fill="white">
<path d="M669 163H714C715.657 163 717 164.343 717 166V192C717 193.657 715.657 195 714 195H669V163Z"/>
</mask>
<path d="M669 163H714C715.657 163 717 164.343 717 166V192C717 193.657 715.657 195 714 195H669V163Z" fill="#151515"/>
<path d="M669 163V162H668V163H669ZM669 195H668V196H669V195ZM669 163V164H714V163V162H669V163ZM717 166H716V192H717H718V166H717ZM714 195V194H669V195V196H714V195ZM669 195H670V163H669H668V195H669ZM717 192H716C716 193.105 715.105 194 714 194V195V196C716.209 196 718 194.209 718 192H717ZM714 163V164C715.105 164 716 164.895 716 166H717H718C718 163.791 716.209 162 714 162V163Z" fill="#707070" mask="url(#path-63-inside-8_108_4724)"/>
<g clip-path="url(#clip10_108_4724)">
<path d="M696.97 179C696.721 179 696.506 178.815 696.474 178.562C696.277 176.97 695.029 175.724 693.44 175.531C693.166 175.498 692.97 175.249 693.004 174.975C693.037 174.7 693.285 174.506 693.561 174.539C695.606 174.787 697.212 176.391 697.467 178.438C697.501 178.712 697.306 178.962 697.032 178.996C697.011 178.999 696.99 179 696.97 179Z" fill="white"/>
<path d="M693 173.5C692.724 173.5 692.5 173.276 692.5 173V171.5C692.5 171.224 692.724 171 693 171C693.276 171 693.5 171.224 693.5 171.5V173C693.5 173.276 693.276 173.5 693 173.5Z" fill="white"/>
<path d="M693 187C692.724 187 692.5 186.776 692.5 186.5V185C692.5 184.724 692.724 184.5 693 184.5C693.276 184.5 693.5 184.724 693.5 185V186.5C693.5 186.776 693.276 187 693 187Z" fill="white"/>
<path d="M687 179.5H685.5C685.224 179.5 685 179.276 685 179C685 178.724 685.224 178.5 685.5 178.5H687C687.276 178.5 687.5 178.724 687.5 179C687.5 179.276 687.276 179.5 687 179.5Z" fill="white"/>
<path d="M700.5 179.5H699C698.724 179.5 698.5 179.276 698.5 179C698.5 178.724 698.724 178.5 699 178.5H700.5C700.776 178.5 701 178.724 701 179C701 179.276 700.776 179.5 700.5 179.5Z" fill="white"/>
<path d="M687.697 184.803C687.569 184.803 687.441 184.754 687.343 184.657C687.148 184.461 687.148 184.145 687.343 183.95L688.404 182.889C688.599 182.694 688.916 182.694 689.111 182.889C689.306 183.084 689.306 183.401 689.111 183.596L688.05 184.657C687.953 184.754 687.825 184.803 687.697 184.803Z" fill="white"/>
<path d="M697.243 175.257C697.115 175.257 696.987 175.209 696.889 175.111C696.694 174.916 696.694 174.599 696.889 174.404L697.95 173.343C698.145 173.148 698.461 173.148 698.657 173.343C698.852 173.539 698.852 173.855 698.657 174.05L697.596 175.111C697.499 175.209 697.371 175.257 697.243 175.257Z" fill="white"/>
<path d="M688.757 175.257C688.629 175.257 688.501 175.209 688.404 175.111L687.343 174.05C687.148 173.855 687.148 173.539 687.343 173.343C687.539 173.148 687.855 173.148 688.05 173.343L689.111 174.404C689.306 174.599 689.306 174.916 689.111 175.111C689.013 175.209 688.885 175.257 688.757 175.257Z" fill="white"/>
<path d="M698.303 184.803C698.175 184.803 698.047 184.754 697.95 184.657L696.889 183.596C696.694 183.401 696.694 183.085 696.889 182.889C697.084 182.694 697.401 182.694 697.596 182.889L698.657 183.95C698.852 184.145 698.852 184.461 698.657 184.657C698.559 184.754 698.431 184.803 698.303 184.803Z" fill="white"/>
<path d="M693 183.438C690.553 183.438 688.562 181.447 688.562 179C688.562 177.257 689.588 175.67 691.176 174.956C691.342 174.88 691.537 174.918 691.666 175.047C691.794 175.177 691.829 175.372 691.752 175.538C691.543 175.992 691.438 176.484 691.438 177C691.438 178.964 693.036 180.562 695 180.562C695.516 180.562 696.008 180.457 696.462 180.248C696.627 180.172 696.823 180.206 696.953 180.334C697.083 180.463 697.119 180.658 697.044 180.824C696.33 182.412 694.743 183.438 693 183.438ZM690.607 176.361C689.876 177.025 689.438 177.979 689.438 179C689.438 180.964 691.036 182.563 693 182.563C694.021 182.563 694.975 182.124 695.639 181.393C695.43 181.422 695.216 181.438 695 181.438C692.553 181.438 690.562 179.447 690.562 177C690.562 176.783 690.578 176.57 690.607 176.361Z" fill="white"/>
</g>
</g>
<g clip-path="url(#clip11_108_4724)">
<path d="M712.796 123L715.898 119.898C716.117 119.678 716.117 119.322 715.898 119.102C715.678 118.883 715.322 118.883 715.102 119.102L712 122.204L708.898 119.102C708.678 118.883 708.322 118.883 708.102 119.102C707.883 119.322 707.883 119.678 708.102 119.898L711.204 123L708.102 126.102C707.883 126.322 707.883 126.678 708.102 126.898C708.212 127.008 708.356 127.063 708.5 127.063C708.644 127.063 708.788 127.008 708.898 126.898L712 123.796L715.102 126.898C715.212 127.008 715.356 127.063 715.5 127.063C715.644 127.063 715.788 127.008 715.898 126.898C716.117 126.678 716.117 126.322 715.898 126.102L712.796 123Z" fill="white"/>
</g>
<mask id="mask3_108_4724" style="mask-type:alpha" maskUnits="userSpaceOnUse" x="424" y="0" width="360" height="91">
<rect x="424" width="360" height="91" fill="#151515"/>
</mask>
<g mask="url(#mask3_108_4724)">
<g filter="url(#filter3_d_108_4724)">
<rect width="360" height="83" transform="translate(424)" fill="#151515"/>
<path d="M466.681 43.7896C469.308 43.7896 473.113 43.25 473.113 40.1521C473.113 39.9104 473.107 39.675 473.048 39.4396L471.483 32.6979C471.119 31.2167 470.804 30.5417 468.175 29.2396C466.138 28.2062 461.698 26.5 460.385 26.5C459.161 26.5 458.8 28.0708 457.35 28.0708C455.9 28.0708 454.904 26.9042 453.59 26.9042C452.277 26.9042 451.506 27.7583 450.873 29.5083C450.873 29.5083 449.106 34.4479 448.879 35.1667C448.833 35.3021 448.833 35.4521 448.833 35.5708C448.833 37.4917 456.459 43.7896 466.683 43.7896M473.523 41.4083C473.887 43.1146 473.887 43.2938 473.887 43.5187C473.887 46.4375 470.579 48.0542 466.231 48.0542C456.4 48.0542 447.792 42.35 447.792 38.5792C447.792 37.9958 447.929 37.4563 448.11 37.0521C444.575 37.2312 440 37.8604 440 41.8583C440 48.4146 455.675 56.5 468.087 56.5C477.6 56.5 480 52.2333 480 48.8646C480 46.2146 477.69 43.2062 473.521 41.4083" fill="#EE0000"/>
<path d="M473.048 39.4397C473.107 39.6751 473.113 39.9105 473.113 40.1522C473.113 43.2501 469.307 43.7897 466.681 43.7897C456.457 43.7897 448.83 37.4917 448.83 35.5709C448.83 35.4522 448.83 35.3022 448.877 35.1667L448.105 37.0542C447.925 37.4584 447.788 37.9959 447.788 38.5813C447.788 42.3542 456.396 48.0563 466.227 48.0563C470.575 48.0563 473.882 46.4397 473.882 43.5209C473.882 43.2959 473.882 43.1167 473.519 41.4105L473.046 39.4397H473.048Z" fill="black"/>
<mask id="path-79-inside-9_108_4724" fill="white">
<path d="M496 41.5C496 30.4543 504.954 21.5 516 21.5H542C553.046 21.5 562 30.4543 562 41.5C562 52.5457 553.046 61.5 542 61.5H516C504.954 61.5 496 52.5457 496 41.5Z"/>
</mask>
<path d="M496 41.5C496 30.4543 504.954 21.5 516 21.5H542C553.046 21.5 562 30.4543 562 41.5C562 52.5457 553.046 61.5 542 61.5H516C504.954 61.5 496 52.5457 496 41.5Z" fill="#151515"/>
<path d="M516 21.5V22.5H542V21.5V20.5H516V21.5ZM542 61.5V60.5H516V61.5V62.5H542V61.5ZM516 61.5V60.5C505.507 60.5 497 51.9934 497 41.5H496H495C495 53.098 504.402 62.5 516 62.5V61.5ZM562 41.5H561C561 51.9934 552.493 60.5 542 60.5V61.5V62.5C553.598 62.5 563 53.098 563 41.5H562ZM542 21.5V22.5C552.493 22.5 561 31.0066 561 41.5H562H563C563 29.902 553.598 20.5 542 20.5V21.5ZM516 21.5V20.5C504.402 20.5 495 29.902 495 41.5H496H497C497 31.0066 505.507 22.5 516 22.5V21.5Z" fill="#707070" mask="url(#path-79-inside-9_108_4724)"/>
<g clip-path="url(#clip12_108_4724)">
<path d="M527 41H513C512.725 41 512.5 41.225 512.5 41.5C512.5 41.775 512.725 42 513 42H527C527.275 42 527.5 41.775 527.5 41.5C527.5 41.225 527.275 41 527 41Z" fill="white"/>
<path d="M513 37H527C527.275 37 527.5 36.775 527.5 36.5C527.5 36.225 527.275 36 527 36H513C512.725 36 512.5 36.225 512.5 36.5C512.5 36.775 512.725 37 513 37Z" fill="white"/>
<path d="M527 46H513C512.725 46 512.5 46.225 512.5 46.5C512.5 46.775 512.725 47 513 47H527C527.275 47 527.5 46.775 527.5 46.5C527.5 46.225 527.275 46 527 46Z" fill="white"/>
</g>
<g clip-path="url(#clip13_108_4724)">
<path d="M545.354 39.1465C545.158 38.9512 544.842 38.9512 544.646 39.1465L541 42.793L537.354 39.1465C537.158 38.9512 536.842 38.9512 536.646 39.1465C536.451 39.3418 536.451 39.6582 536.646 39.8535L540.47 43.6768C540.616 43.8233 540.808 43.896 541 43.896C541.192 43.896 541.384 43.8233 541.53 43.6768L545.353 39.8535C545.549 39.6582 545.549 39.3418 545.354 39.1465Z" fill="#A3A3A3"/>
</g>
<mask id="path-85-inside-10_108_4724" fill="white">
<path d="M702 41.5C702 30.4543 710.954 21.5 722 21.5H748C759.046 21.5 768 30.4543 768 41.5C768 52.5457 759.046 61.5 748 61.5H722C710.954 61.5 702 52.5457 702 41.5Z"/>
</mask>
<path d="M702 41.5C702 30.4543 710.954 21.5 722 21.5H748C759.046 21.5 768 30.4543 768 41.5C768 52.5457 759.046 61.5 748 61.5H722C710.954 61.5 702 52.5457 702 41.5Z" fill="#151515"/>
<path d="M722 21.5V22.5H748V21.5V20.5H722V21.5ZM748 61.5V60.5H722V61.5V62.5H748V61.5ZM722 61.5V60.5C711.507 60.5 703 51.9934 703 41.5H702H701C701 53.098 710.402 62.5 722 62.5V61.5ZM768 41.5H767C767 51.9934 758.493 60.5 748 60.5V61.5V62.5C759.598 62.5 769 53.098 769 41.5H768ZM748 21.5V22.5C758.493 22.5 767 31.0066 767 41.5H768H769C769 29.902 759.598 20.5 748 20.5V21.5ZM722 21.5V20.5C710.402 20.5 701 29.902 701 41.5H702H703C703 31.0066 711.507 22.5 722 22.5V21.5Z" fill="#707070" mask="url(#path-85-inside-10_108_4724)"/>
<g clip-path="url(#clip14_108_4724)">
<path d="M728.19 40.84C729.28 40.125 730 38.895 730 37.5C730 35.295 728.205 33.5 726 33.5C723.795 33.5 722 35.295 722 37.5C722 38.895 722.72 40.125 723.81 40.84C720.81 41.805 718.615 44.705 718.505 48.22C718.5 48.42 718.575 48.62 718.715 48.765C718.855 48.91 719.055 48.995 719.255 48.995H732.74C732.945 48.995 733.14 48.91 733.28 48.765C733.42 48.62 733.5 48.42 733.49 48.22C733.38 44.7 731.185 41.8 728.185 40.835L728.19 40.84ZM723 37.5C723 35.845 724.345 34.5 726 34.5C727.655 34.5 729 35.845 729 37.5C729 39.155 727.655 40.5 726 40.5C724.345 40.5 723 39.155 723 37.5ZM719.515 48C719.75 44.335 722.555 41.5 726 41.5C729.445 41.5 732.245 44.335 732.485 48H719.515Z" fill="white"/>
</g>
<g clip-path="url(#clip15_108_4724)">
<path d="M751.354 39.1465C751.158 38.9512 750.842 38.9512 750.646 39.1465L747 42.793L743.354 39.1465C743.158 38.9512 742.842 38.9512 742.646 39.1465C742.451 39.3418 742.451 39.6582 742.646 39.8535L746.47 43.6768C746.616 43.8233 746.808 43.896 747 43.896C747.192 43.896 747.384 43.8233 747.53 43.6768L751.353 39.8535C751.549 39.6582 751.549 39.3418 751.354 39.1465Z" fill="#A3A3A3"/>
</g>
</g>
</g>
<defs>
<filter id="filter0_d_108_4724" x="-7" y="80" width="342" height="158" filterUnits="userSpaceOnUse" color-interpolation-filters="sRGB">
<feFlood flood-opacity="0" result="BackgroundImageFix"/>
<feColorMatrix in="SourceAlpha" type="matrix" values="0 0 0 0 0 0 0 0 0 0 0 0 0 0 0 0 0 0 127 0" result="hardAlpha"/>
<feMorphology radius="1" operator="dilate" in="SourceAlpha" result="effect1_dropShadow_108_4724"/>
<feOffset dy="4"/>
<feGaussianBlur stdDeviation="3"/>
<feComposite in2="hardAlpha" operator="out"/>
<feColorMatrix type="matrix" values="0 0 0 0 0.0823529 0 0 0 0 0.0823529 0 0 0 0 0.0823529 0 0 0 0.25 0"/>
<feBlend mode="normal" in2="BackgroundImageFix" result="effect1_dropShadow_108_4724"/>
<feBlend mode="normal" in="SourceGraphic" in2="effect1_dropShadow_108_4724" result="shape"/>
</filter>
<filter id="filter1_d_108_4724" x="-4" y="-2" width="368" height="91" filterUnits="userSpaceOnUse" color-interpolation-filters="sRGB">
<feFlood flood-opacity="0" result="BackgroundImageFix"/>
<feColorMatrix in="SourceAlpha" type="matrix" values="0 0 0 0 0 0 0 0 0 0 0 0 0 0 0 0 0 0 127 0" result="hardAlpha"/>
<feOffset dy="2"/>
<feGaussianBlur stdDeviation="2"/>
<feComposite in2="hardAlpha" operator="out"/>
<feColorMatrix type="matrix" values="0 0 0 0 0.0823529 0 0 0 0 0.0823529 0 0 0 0 0.0823529 0 0 0 0.2 0"/>
<feBlend mode="normal" in2="BackgroundImageFix" result="effect1_dropShadow_108_4724"/>
<feBlend mode="normal" in="SourceGraphic" in2="effect1_dropShadow_108_4724" result="shape"/>
</filter>
<filter id="filter2_d_108_4724" x="417" y="80" width="342" height="158" filterUnits="userSpaceOnUse" color-interpolation-filters="sRGB">
<feFlood flood-opacity="0" result="BackgroundImageFix"/>
<feColorMatrix in="SourceAlpha" type="matrix" values="0 0 0 0 0 0 0 0 0 0 0 0 0 0 0 0 0 0 127 0" result="hardAlpha"/>
<feMorphology radius="1" operator="dilate" in="SourceAlpha" result="effect1_dropShadow_108_4724"/>
<feOffset dy="4"/>
<feGaussianBlur stdDeviation="3"/>
<feComposite in2="hardAlpha" operator="out"/>
<feColorMatrix type="matrix" values="0 0 0 0 0.0823529 0 0 0 0 0.0823529 0 0 0 0 0.0823529 0 0 0 0.25 0"/>
<feBlend mode="normal" in2="BackgroundImageFix" result="effect1_dropShadow_108_4724"/>
<feBlend mode="normal" in="SourceGraphic" in2="effect1_dropShadow_108_4724" result="shape"/>
</filter>
<filter id="filter3_d_108_4724" x="420" y="-2" width="368" height="91" filterUnits="userSpaceOnUse" color-interpolation-filters="sRGB">
<feFlood flood-opacity="0" result="BackgroundImageFix"/>
<feColorMatrix in="SourceAlpha" type="matrix" values="0 0 0 0 0 0 0 0 0 0 0 0 0 0 0 0 0 0 127 0" result="hardAlpha"/>
<feOffset dy="2"/>
<feGaussianBlur stdDeviation="2"/>
<feComposite in2="hardAlpha" operator="out"/>
<feColorMatrix type="matrix" values="0 0 0 0 0.0823529 0 0 0 0 0.0823529 0 0 0 0 0.0823529 0 0 0 0.2 0"/>
<feBlend mode="normal" in2="BackgroundImageFix" result="effect1_dropShadow_108_4724"/>
<feBlend mode="normal" in="SourceGraphic" in2="effect1_dropShadow_108_4724" result="shape"/>
</filter>
<clipPath id="clip0_108_4724">
<rect width="16" height="16" fill="white" transform="translate(167 171)"/>
</clipPath>
<clipPath id="clip1_108_4724">
<rect width="16" height="16" fill="white" transform="translate(214 171)"/>
</clipPath>
<clipPath id="clip2_108_4724">
<rect width="16" height="16" fill="white" transform="translate(261 171)"/>
</clipPath>
<clipPath id="clip3_108_4724">
<rect width="10" height="10" fill="white" transform="translate(283 118)"/>
</clipPath>
<clipPath id="clip4_108_4724">
<rect width="16" height="16" fill="white" transform="translate(88 33.5)"/>
</clipPath>
<clipPath id="clip5_108_4724">
<rect width="10" height="10" fill="white" transform="translate(112 36.5)"/>
</clipPath>
<clipPath id="clip6_108_4724">
<rect width="16" height="16" fill="white" transform="translate(294 33.5)"/>
</clipPath>
<clipPath id="clip7_108_4724">
<rect width="10" height="10" fill="white" transform="translate(318 36.5)"/>
</clipPath>
<clipPath id="clip8_108_4724">
<rect width="16" height="16" fill="white" transform="translate(591 171)"/>
</clipPath>
<clipPath id="clip9_108_4724">
<rect width="16" height="16" fill="white" transform="translate(638 171)"/>
</clipPath>
<clipPath id="clip10_108_4724">
<rect width="16" height="16" fill="white" transform="translate(685 171)"/>
</clipPath>
<clipPath id="clip11_108_4724">
<rect width="10" height="10" fill="white" transform="translate(707 118)"/>
</clipPath>
<clipPath id="clip12_108_4724">
<rect width="16" height="16" fill="white" transform="translate(512 33.5)"/>
</clipPath>
<clipPath id="clip13_108_4724">
<rect width="10" height="10" fill="white" transform="translate(536 36.5)"/>
</clipPath>
<clipPath id="clip14_108_4724">
<rect width="16" height="16" fill="white" transform="translate(718 33.5)"/>
</clipPath>
<clipPath id="clip15_108_4724">
<rect width="10" height="10" fill="white" transform="translate(742 36.5)"/>
</clipPath>
</defs>
</svg>
