<svg width="64" height="64" viewBox="0 0 64 64" fill="none" xmlns="http://www.w3.org/2000/svg">
<rect width="64" height="64" rx="3" fill="#F2F2F2"/>
<path d="M44.6719 16.1758H31.6479V48.7357H44.6719V16.1758Z" fill="#1A73E8"/>
<path d="M31.648 16.1758L10 48.5597H24.784L31.648 38.3517V16.1758Z" fill="#FBBC04"/>
<path d="M44.672 48.7358C49.8237 48.7358 54 44.5595 54 39.4078C54 34.2561 49.8237 30.0798 44.672 30.0798C39.5203 30.0798 35.344 34.2561 35.344 39.4078C35.344 44.5595 39.5203 48.7358 44.672 48.7358Z" fill="#34A853"/>
<path d="M35.344 39.4078C35.344 44.5118 39.568 48.7358 44.672 48.7358V30.0798C39.568 30.0798 35.344 34.3038 35.344 39.4078Z" fill="#0E652D"/>
<path d="M44.6718 30.08C48.5599 30.08 51.7118 26.9281 51.7118 23.04C51.7118 19.1519 48.5599 16 44.6718 16C40.7837 16 37.6318 19.1519 37.6318 23.04C37.6318 26.9281 40.7837 30.08 44.6718 30.08Z" fill="#1A73E8"/>
<path d="M37.6318 23.0398C37.6318 26.9118 40.7998 30.0798 44.6718 30.0798V16.1758C40.7998 16.1758 37.6318 19.3438 37.6318 23.2158V23.0398Z" fill="#174EA6"/>
<path d="M17.2159 28.32C20.618 28.32 23.3759 25.5621 23.3759 22.16C23.3759 18.7579 20.618 16 17.2159 16C13.8138 16 11.0559 18.7579 11.0559 22.16C11.0559 25.5621 13.8138 28.32 17.2159 28.32Z" fill="#EA4235"/>
</svg>
