<svg width="482" height="248" viewBox="0 0 482 248" fill="none" xmlns="http://www.w3.org/2000/svg">
<path d="M35.08 72V44H47.08C48.92 44 50.52 44.3333 51.88 45C53.24 45.6667 54.2933 46.6 55.04 47.8C55.8133 49 56.2 50.4133 56.2 52.04C56.2 53.88 55.6533 55.4667 54.56 56.8C53.4933 58.1067 52.0533 59.0267 50.24 59.56L56.52 72H53.12L47.12 59.96H38.16V72H35.08ZM38.16 57.36H46.88C48.7733 57.36 50.28 56.88 51.4 55.92C52.5467 54.96 53.12 53.6667 53.12 52.04C53.12 50.44 52.5467 49.16 51.4 48.2C50.28 47.24 48.7733 46.76 46.88 46.76H38.16V57.36ZM68.4903 72.36C66.5703 72.36 64.8236 71.9067 63.2503 71C61.7036 70.0667 60.4636 68.8133 59.5303 67.24C58.6236 65.6667 58.1703 63.9067 58.1703 61.96C58.1703 60.04 58.6103 58.3067 59.4903 56.76C60.3703 55.1867 61.557 53.9467 63.0503 53.04C64.5436 52.1067 66.2103 51.64 68.0503 51.64C69.837 51.64 71.437 52.1067 72.8503 53.04C74.2903 53.9467 75.4236 55.1867 76.2503 56.76C77.1036 58.3067 77.5303 60.04 77.5303 61.96V62.88H61.0903C61.2503 64.1867 61.6636 65.36 62.3303 66.4C63.0236 67.44 63.917 68.2667 65.0103 68.88C66.1036 69.4667 67.3036 69.76 68.6103 69.76C69.6503 69.76 70.6636 69.6 71.6503 69.28C72.637 68.96 73.4636 68.5067 74.1303 67.92L75.9703 69.88C74.8503 70.7067 73.677 71.3333 72.4503 71.76C71.2503 72.16 69.9303 72.36 68.4903 72.36ZM61.1703 60.52H74.5703C74.4103 59.32 74.0103 58.2533 73.3703 57.32C72.757 56.36 71.9836 55.6133 71.0503 55.08C70.117 54.52 69.0903 54.24 67.9703 54.24C66.8236 54.24 65.7703 54.5067 64.8103 55.04C63.8503 55.5733 63.0503 56.32 62.4103 57.28C61.7703 58.2133 61.357 59.2933 61.1703 60.52ZM90.8284 72.32C88.9618 72.32 87.2551 71.8667 85.7084 70.96C84.1884 70.0267 82.9751 68.7867 82.0684 67.24C81.1884 65.6667 80.7484 63.9067 80.7484 61.96C80.7484 60.0133 81.1884 58.2667 82.0684 56.72C82.9751 55.1733 84.1884 53.9467 85.7084 53.04C87.2551 52.1067 88.9751 51.64 90.8684 51.64C92.0418 51.64 93.1751 51.84 94.2684 52.24C95.3618 52.6133 96.3618 53.1733 97.2684 53.92V44L100.228 43.32V72H97.3084V69.88C95.5484 71.5067 93.3884 72.32 90.8284 72.32ZM91.1084 69.72C92.3618 69.72 93.5218 69.48 94.5884 69C95.6818 68.4933 96.5751 67.8 97.2684 66.92V57C96.5751 56.1467 95.6818 55.48 94.5884 55C93.5218 54.4933 92.3618 54.24 91.1084 54.24C89.7218 54.24 88.4551 54.5733 87.3084 55.24C86.1884 55.9067 85.2951 56.8267 84.6284 58C83.9884 59.1467 83.6684 60.4533 83.6684 61.92C83.6684 63.3867 83.9884 64.7067 84.6284 65.88C85.2951 67.0533 86.1884 67.9867 87.3084 68.68C88.4551 69.3733 89.7218 69.72 91.1084 69.72ZM114.416 72V44H117.496V56.52H133.776V44H136.856V72H133.776V59.28H117.496V72H114.416ZM148.379 72.36C146.912 72.36 145.619 72.1067 144.499 71.6C143.406 71.0933 142.539 70.3867 141.899 69.48C141.286 68.5733 140.979 67.52 140.979 66.32C140.979 64.4267 141.699 62.9333 143.139 61.84C144.579 60.7467 146.526 60.2 148.979 60.2C151.139 60.2 153.099 60.6533 154.859 61.56V58.92C154.859 57.32 154.406 56.12 153.499 55.32C152.592 54.4933 151.272 54.08 149.539 54.08C148.552 54.08 147.552 54.2267 146.539 54.52C145.552 54.7867 144.459 55.2267 143.259 55.84L142.139 53.56C143.579 52.8667 144.912 52.36 146.139 52.04C147.366 51.72 148.592 51.56 149.819 51.56C152.352 51.56 154.299 52.16 155.659 53.36C157.046 54.56 157.739 56.28 157.739 58.52V72H154.859V70.04C153.952 70.8133 152.952 71.4 151.859 71.8C150.792 72.1733 149.632 72.36 148.379 72.36ZM143.819 66.24C143.819 67.36 144.286 68.28 145.219 69C146.179 69.6933 147.406 70.04 148.899 70.04C150.099 70.04 151.192 69.8533 152.179 69.48C153.166 69.1067 154.059 68.52 154.859 67.72V63.96C154.032 63.4 153.152 63 152.219 62.76C151.286 62.4933 150.232 62.36 149.059 62.36C147.459 62.36 146.179 62.72 145.219 63.44C144.286 64.1333 143.819 65.0667 143.819 66.24ZM169.978 72.4C168.245 72.4 166.911 71.9867 165.978 71.16C165.045 70.3333 164.578 69.1333 164.578 67.56V54.48H160.258V51.96H164.578V46.88L167.498 46.12V51.96H173.538V54.48H167.498V66.8C167.498 67.8667 167.738 68.64 168.218 69.12C168.698 69.5733 169.485 69.8 170.578 69.8C171.138 69.8 171.631 69.76 172.058 69.68C172.511 69.6 172.991 69.4667 173.498 69.28V71.88C172.991 72.0667 172.418 72.2 171.778 72.28C171.165 72.36 170.565 72.4 169.978 72.4ZM185.861 72V44H205.901V46.72H188.941V56.52H200.021V59.2H188.941V69.28H206.061V72H185.861ZM209.95 72V51.96H212.91V54.32C214.483 52.48 216.59 51.56 219.23 51.56C220.75 51.56 222.083 51.8933 223.23 52.56C224.403 53.2 225.31 54.1067 225.95 55.28C226.616 56.4267 226.95 57.7733 226.95 59.32V72H224.03V59.92C224.03 58.1333 223.523 56.7333 222.51 55.72C221.523 54.68 220.163 54.16 218.43 54.16C217.23 54.16 216.163 54.4267 215.23 54.96C214.296 55.4933 213.523 56.2533 212.91 57.24V72H209.95ZM239.197 72.4C237.464 72.4 236.13 71.9867 235.197 71.16C234.264 70.3333 233.797 69.1333 233.797 67.56V54.48H229.477V51.96H233.797V46.88L236.717 46.12V51.96H242.757V54.48H236.717V66.8C236.717 67.8667 236.957 68.64 237.437 69.12C237.917 69.5733 238.704 69.8 239.797 69.8C240.357 69.8 240.85 69.76 241.277 69.68C241.73 69.6 242.21 69.4667 242.717 69.28V71.88C242.21 72.0667 241.637 72.2 240.997 72.28C240.384 72.36 239.784 72.4 239.197 72.4ZM254.936 72.36C253.016 72.36 251.269 71.9067 249.696 71C248.149 70.0667 246.909 68.8133 245.976 67.24C245.069 65.6667 244.616 63.9067 244.616 61.96C244.616 60.04 245.056 58.3067 245.936 56.76C246.816 55.1867 248.002 53.9467 249.496 53.04C250.989 52.1067 252.656 51.64 254.496 51.64C256.282 51.64 257.882 52.1067 259.296 53.04C260.736 53.9467 261.869 55.1867 262.696 56.76C263.549 58.3067 263.976 60.04 263.976 61.96V62.88H247.536C247.696 64.1867 248.109 65.36 248.776 66.4C249.469 67.44 250.362 68.2667 251.456 68.88C252.549 69.4667 253.749 69.76 255.056 69.76C256.096 69.76 257.109 69.6 258.096 69.28C259.082 68.96 259.909 68.5067 260.576 67.92L262.416 69.88C261.296 70.7067 260.122 71.3333 258.896 71.76C257.696 72.16 256.376 72.36 254.936 72.36ZM247.616 60.52H261.016C260.856 59.32 260.456 58.2533 259.816 57.32C259.202 56.36 258.429 55.6133 257.496 55.08C256.562 54.52 255.536 54.24 254.416 54.24C253.269 54.24 252.216 54.5067 251.256 55.04C250.296 55.5733 249.496 56.32 248.856 57.28C248.216 58.2133 247.802 59.2933 247.616 60.52ZM268.114 72V51.96H271.074V54.8C271.687 53.76 272.46 52.96 273.394 52.4C274.354 51.8133 275.447 51.52 276.674 51.52C277.367 51.52 277.994 51.6133 278.554 51.8V54.52C278.207 54.3867 277.86 54.2933 277.514 54.24C277.167 54.1867 276.82 54.16 276.474 54.16C275.247 54.16 274.167 54.52 273.234 55.24C272.327 55.9333 271.607 56.9467 271.074 58.28V72H268.114ZM281.942 80.16V51.96H284.862V54.12C286.595 52.4667 288.755 51.64 291.342 51.64C293.235 51.64 294.942 52.1067 296.462 53.04C297.982 53.9467 299.182 55.1733 300.062 56.72C300.969 58.2667 301.422 60.0133 301.422 61.96C301.422 63.9067 300.969 65.6667 300.062 67.24C299.182 68.7867 297.982 70.0267 296.462 70.96C294.942 71.8667 293.222 72.32 291.302 72.32C290.129 72.32 288.995 72.12 287.902 71.72C286.809 71.32 285.809 70.7467 284.902 70V80.16H281.942ZM291.062 69.72C292.475 69.72 293.742 69.3867 294.862 68.72C295.982 68.0267 296.862 67.1067 297.502 65.96C298.169 64.7867 298.502 63.4667 298.502 62C298.502 60.5333 298.169 59.2133 297.502 58.04C296.862 56.8667 295.982 55.9467 294.862 55.28C293.742 54.5867 292.475 54.24 291.062 54.24C289.809 54.24 288.635 54.4933 287.542 55C286.475 55.48 285.595 56.16 284.902 57.04V66.96C285.595 67.8133 286.489 68.4933 287.582 69C288.675 69.48 289.835 69.72 291.062 69.72ZM305.536 72V51.96H308.496V54.8C309.109 53.76 309.882 52.96 310.816 52.4C311.776 51.8133 312.869 51.52 314.096 51.52C314.789 51.52 315.416 51.6133 315.976 51.8V54.52C315.629 54.3867 315.282 54.2933 314.936 54.24C314.589 54.1867 314.242 54.16 313.896 54.16C312.669 54.16 311.589 54.52 310.656 55.24C309.749 55.9333 309.029 56.9467 308.496 58.28V72H305.536ZM319.364 72V51.96H322.324V72H319.364ZM320.844 48.12C320.31 48.12 319.844 47.92 319.444 47.52C319.044 47.12 318.844 46.6533 318.844 46.12C318.844 45.56 319.044 45.0933 319.444 44.72C319.844 44.32 320.31 44.12 320.844 44.12C321.404 44.12 321.87 44.32 322.244 44.72C322.644 45.0933 322.844 45.56 322.844 46.12C322.844 46.6533 322.644 47.12 322.244 47.52C321.87 47.92 321.404 48.12 320.844 48.12ZM333.772 72.4C332.118 72.4 330.558 72.1333 329.092 71.6C327.652 71.04 326.398 70.2667 325.332 69.28L327.132 67.36C328.065 68.2133 329.092 68.88 330.212 69.36C331.332 69.8133 332.478 70.04 333.652 70.04C335.252 70.04 336.558 69.7067 337.572 69.04C338.585 68.3733 339.092 67.5067 339.092 66.44C339.092 65.56 338.785 64.88 338.172 64.4C337.585 63.8933 336.652 63.5467 335.372 63.36L331.892 62.88C329.892 62.5867 328.398 61.9867 327.412 61.08C326.452 60.1733 325.972 58.9467 325.972 57.4C325.972 56.28 326.292 55.28 326.932 54.4C327.572 53.52 328.452 52.8267 329.572 52.32C330.718 51.8133 332.025 51.56 333.492 51.56C334.958 51.56 336.332 51.7733 337.612 52.2C338.892 52.6267 340.145 53.2933 341.372 54.2L339.812 56.2C338.692 55.4267 337.598 54.8667 336.532 54.52C335.492 54.1467 334.425 53.96 333.332 53.96C331.945 53.96 330.825 54.2667 329.972 54.88C329.118 55.4933 328.692 56.2933 328.692 57.28C328.692 58.1867 328.985 58.88 329.572 59.36C330.158 59.8133 331.105 60.1333 332.412 60.32L335.892 60.8C337.892 61.0667 339.385 61.6533 340.372 62.56C341.385 63.4667 341.892 64.7067 341.892 66.28C341.892 67.4267 341.532 68.4667 340.812 69.4C340.092 70.3333 339.118 71.0667 337.892 71.6C336.692 72.1333 335.318 72.4 333.772 72.4ZM354.818 72.36C352.898 72.36 351.152 71.9067 349.578 71C348.032 70.0667 346.792 68.8133 345.858 67.24C344.952 65.6667 344.498 63.9067 344.498 61.96C344.498 60.04 344.938 58.3067 345.818 56.76C346.698 55.1867 347.885 53.9467 349.378 53.04C350.872 52.1067 352.538 51.64 354.378 51.64C356.165 51.64 357.765 52.1067 359.178 53.04C360.618 53.9467 361.752 55.1867 362.578 56.76C363.432 58.3067 363.858 60.04 363.858 61.96V62.88H347.418C347.578 64.1867 347.992 65.36 348.658 66.4C349.352 67.44 350.245 68.2667 351.338 68.88C352.432 69.4667 353.632 69.76 354.938 69.76C355.978 69.76 356.992 69.6 357.978 69.28C358.965 68.96 359.792 68.5067 360.458 67.92L362.298 69.88C361.178 70.7067 360.005 71.3333 358.778 71.76C357.578 72.16 356.258 72.36 354.818 72.36ZM347.498 60.52H360.898C360.738 59.32 360.338 58.2533 359.698 57.32C359.085 56.36 358.312 55.6133 357.378 55.08C356.445 54.52 355.418 54.24 354.298 54.24C353.152 54.24 352.098 54.5067 351.138 55.04C350.178 55.5733 349.378 56.32 348.738 57.28C348.098 58.2133 347.685 59.2933 347.498 60.52ZM35.08 124V96H38.16V121.24H54.84V124H35.08ZM58.6606 124V103.96H61.6206V124H58.6606ZM60.1406 100.12C59.6073 100.12 59.1406 99.92 58.7406 99.52C58.3406 99.12 58.1406 98.6533 58.1406 98.12C58.1406 97.56 58.3406 97.0933 58.7406 96.72C59.1406 96.32 59.6073 96.12 60.1406 96.12C60.7006 96.12 61.1673 96.32 61.5406 96.72C61.9406 97.0933 62.1406 97.56 62.1406 98.12C62.1406 98.6533 61.9406 99.12 61.5406 99.52C61.1673 99.92 60.7006 100.12 60.1406 100.12ZM66.6684 124V103.96H69.6284V106.32C71.2018 104.48 73.3084 103.56 75.9484 103.56C77.4684 103.56 78.8018 103.893 79.9484 104.56C81.1218 105.2 82.0284 106.107 82.6684 107.28C83.3351 108.427 83.6684 109.773 83.6684 111.32V124H80.7484V111.92C80.7484 110.133 80.2418 108.733 79.2284 107.72C78.2418 106.68 76.8818 106.16 75.1484 106.16C73.9484 106.16 72.8818 106.427 71.9484 106.96C71.0151 107.493 70.2418 108.253 69.6284 109.24V124H66.6684ZM96.1063 124.4C94.5863 124.4 93.2396 124.08 92.0663 123.44C90.8929 122.773 89.9729 121.867 89.3063 120.72C88.6663 119.547 88.3463 118.187 88.3463 116.64V103.96H91.2663V116.04C91.2663 117.827 91.7729 119.24 92.7863 120.28C93.7996 121.293 95.1596 121.8 96.8663 121.8C98.0663 121.8 99.1329 121.533 100.066 121C101.026 120.44 101.8 119.667 102.386 118.68V103.96H105.346V124H102.386V121.68C100.813 123.493 98.7196 124.4 96.1063 124.4ZM108.059 124L115.939 113.68L108.459 103.96H111.979L117.659 111.48L123.339 103.96H126.739L119.339 113.64L127.259 124H123.739L117.619 115.84L111.419 124H108.059ZM136.262 124L147.862 96H151.582L163.102 124H159.742L156.222 115.2H143.022L139.462 124H136.262ZM144.102 112.56H155.142L149.622 98.84L144.102 112.56ZM166.33 124V96H169.41V124H166.33ZM183.622 124V103.96H186.582V124H183.622ZM185.102 100.12C184.568 100.12 184.102 99.92 183.702 99.52C183.302 99.12 183.102 98.6533 183.102 98.12C183.102 97.56 183.302 97.0933 183.702 96.72C184.102 96.32 184.568 96.12 185.102 96.12C185.662 96.12 186.128 96.32 186.502 96.72C186.902 97.0933 187.102 97.56 187.102 98.12C187.102 98.6533 186.902 99.12 186.502 99.52C186.128 99.92 185.662 100.12 185.102 100.12ZM198.029 124.4C196.376 124.4 194.816 124.133 193.349 123.6C191.909 123.04 190.656 122.267 189.589 121.28L191.389 119.36C192.323 120.213 193.349 120.88 194.469 121.36C195.589 121.813 196.736 122.04 197.909 122.04C199.509 122.04 200.816 121.707 201.829 121.04C202.843 120.373 203.349 119.507 203.349 118.44C203.349 117.56 203.043 116.88 202.429 116.4C201.843 115.893 200.909 115.547 199.629 115.36L196.149 114.88C194.149 114.587 192.656 113.987 191.669 113.08C190.709 112.173 190.229 110.947 190.229 109.4C190.229 108.28 190.549 107.28 191.189 106.4C191.829 105.52 192.709 104.827 193.829 104.32C194.976 103.813 196.283 103.56 197.749 103.56C199.216 103.56 200.589 103.773 201.869 104.2C203.149 104.627 204.403 105.293 205.629 106.2L204.069 108.2C202.949 107.427 201.856 106.867 200.789 106.52C199.749 106.147 198.683 105.96 197.589 105.96C196.203 105.96 195.083 106.267 194.229 106.88C193.376 107.493 192.949 108.293 192.949 109.28C192.949 110.187 193.243 110.88 193.829 111.36C194.416 111.813 195.363 112.133 196.669 112.32L200.149 112.8C202.149 113.067 203.643 113.653 204.629 114.56C205.643 115.467 206.149 116.707 206.149 118.28C206.149 119.427 205.789 120.467 205.069 121.4C204.349 122.333 203.376 123.067 202.149 123.6C200.949 124.133 199.576 124.4 198.029 124.4ZM218.075 124V96L221.035 95.32V106.32C222.608 104.48 224.715 103.56 227.355 103.56C228.875 103.56 230.208 103.893 231.355 104.56C232.528 105.2 233.435 106.107 234.075 107.28C234.741 108.427 235.075 109.773 235.075 111.32V124H232.155V111.92C232.155 110.133 231.648 108.733 230.635 107.72C229.648 106.68 228.288 106.16 226.555 106.16C225.355 106.16 224.288 106.427 223.355 106.96C222.421 107.493 221.648 108.253 221.035 109.24V124H218.075ZM249.428 124.36C247.508 124.36 245.761 123.907 244.188 123C242.641 122.067 241.401 120.813 240.468 119.24C239.561 117.667 239.108 115.907 239.108 113.96C239.108 112.04 239.548 110.307 240.428 108.76C241.308 107.187 242.494 105.947 243.988 105.04C245.481 104.107 247.148 103.64 248.988 103.64C250.774 103.64 252.374 104.107 253.788 105.04C255.228 105.947 256.361 107.187 257.188 108.76C258.041 110.307 258.468 112.04 258.468 113.96V114.88H242.028C242.188 116.187 242.601 117.36 243.268 118.4C243.961 119.44 244.854 120.267 245.948 120.88C247.041 121.467 248.241 121.76 249.548 121.76C250.588 121.76 251.601 121.6 252.588 121.28C253.574 120.96 254.401 120.507 255.068 119.92L256.908 121.88C255.788 122.707 254.614 123.333 253.388 123.76C252.188 124.16 250.868 124.36 249.428 124.36ZM242.108 112.52H255.508C255.348 111.32 254.948 110.253 254.308 109.32C253.694 108.36 252.921 107.613 251.988 107.08C251.054 106.52 250.028 106.24 248.908 106.24C247.761 106.24 246.708 106.507 245.748 107.04C244.788 107.573 243.988 108.32 243.348 109.28C242.708 110.213 242.294 111.293 242.108 112.52ZM262.606 124V103.96H265.566V106.8C266.179 105.76 266.953 104.96 267.886 104.4C268.846 103.813 269.939 103.52 271.166 103.52C271.859 103.52 272.486 103.613 273.046 103.8V106.52C272.699 106.387 272.353 106.293 272.006 106.24C271.659 106.187 271.313 106.16 270.966 106.16C269.739 106.16 268.659 106.52 267.726 107.24C266.819 107.933 266.099 108.947 265.566 110.28V124H262.606ZM284.428 124.36C282.508 124.36 280.761 123.907 279.188 123C277.641 122.067 276.401 120.813 275.468 119.24C274.561 117.667 274.108 115.907 274.108 113.96C274.108 112.04 274.548 110.307 275.428 108.76C276.308 107.187 277.494 105.947 278.988 105.04C280.481 104.107 282.148 103.64 283.988 103.64C285.774 103.64 287.374 104.107 288.788 105.04C290.228 105.947 291.361 107.187 292.188 108.76C293.041 110.307 293.468 112.04 293.468 113.96V114.88H277.028C277.188 116.187 277.601 117.36 278.268 118.4C278.961 119.44 279.854 120.267 280.948 120.88C282.041 121.467 283.241 121.76 284.548 121.76C285.588 121.76 286.601 121.6 287.588 121.28C288.574 120.96 289.401 120.507 290.068 119.92L291.908 121.88C290.788 122.707 289.614 123.333 288.388 123.76C287.188 124.16 285.868 124.36 284.428 124.36ZM277.108 112.52H290.508C290.348 111.32 289.948 110.253 289.308 109.32C288.694 108.36 287.921 107.613 286.988 107.08C286.054 106.52 285.028 106.24 283.908 106.24C282.761 106.24 281.708 106.507 280.748 107.04C279.788 107.573 278.988 108.32 278.348 109.28C277.708 110.213 277.294 111.293 277.108 112.52Z" fill="#151515"/>
<path d="M38.592 186.176C37.792 186.176 37.0453 186.032 36.352 185.744C35.6693 185.445 35.0667 185.035 34.544 184.512C34.0213 183.979 33.616 183.365 33.328 182.672C33.04 181.968 32.896 181.211 32.896 180.4C32.896 179.589 33.04 178.837 33.328 178.144C33.616 177.44 34.0213 176.827 34.544 176.304C35.0667 175.771 35.6693 175.36 36.352 175.072C37.0453 174.773 37.792 174.624 38.592 174.624C39.1467 174.624 39.6747 174.699 40.176 174.848C40.688 174.987 41.168 175.195 41.616 175.472C42.064 175.739 42.464 176.069 42.816 176.464L42 177.312C41.584 176.811 41.072 176.427 40.464 176.16C39.8667 175.883 39.2427 175.744 38.592 175.744C37.9627 175.744 37.376 175.861 36.832 176.096C36.288 176.331 35.8133 176.661 35.408 177.088C35.0133 177.515 34.704 178.011 34.48 178.576C34.256 179.131 34.144 179.739 34.144 180.4C34.144 181.051 34.256 181.659 34.48 182.224C34.704 182.789 35.0133 183.285 35.408 183.712C35.8133 184.139 36.288 184.469 36.832 184.704C37.376 184.939 37.9627 185.056 38.592 185.056C39.2427 185.056 39.8667 184.917 40.464 184.64C41.072 184.363 41.584 183.979 42 183.488L42.816 184.336C42.464 184.731 42.064 185.067 41.616 185.344C41.168 185.611 40.688 185.819 40.176 185.968C39.6747 186.107 39.1467 186.176 38.592 186.176ZM44.8094 186V174.448L45.9774 174.208V186H44.8094ZM51.8279 186.128C51.1025 186.128 50.4519 185.952 49.8759 185.6C49.2999 185.248 48.8465 184.768 48.5159 184.16C48.1852 183.552 48.0199 182.864 48.0199 182.096C48.0199 181.328 48.1852 180.64 48.5159 180.032C48.8465 179.424 49.2999 178.944 49.8759 178.592C50.4519 178.24 51.1025 178.064 51.8279 178.064C52.5425 178.064 53.1825 178.24 53.7479 178.592C54.3239 178.944 54.7772 179.424 55.1079 180.032C55.4385 180.64 55.6039 181.328 55.6039 182.096C55.6039 182.864 55.4385 183.552 55.1079 184.16C54.7772 184.768 54.3239 185.248 53.7479 185.6C53.1825 185.952 52.5425 186.128 51.8279 186.128ZM51.8119 185.104C52.3239 185.104 52.7772 184.976 53.1719 184.72C53.5665 184.453 53.8759 184.091 54.0999 183.632C54.3345 183.173 54.4519 182.661 54.4519 182.096C54.4519 181.52 54.3345 181.008 54.0999 180.56C53.8759 180.101 53.5665 179.744 53.1719 179.488C52.7772 179.221 52.3239 179.088 51.8119 179.088C51.2999 179.088 50.8465 179.221 50.4519 179.488C50.0572 179.744 49.7425 180.101 49.5079 180.56C49.2839 181.008 49.1719 181.52 49.1719 182.096C49.1719 182.661 49.2839 183.173 49.5079 183.632C49.7425 184.091 50.0572 184.453 50.4519 184.72C50.8465 184.976 51.2999 185.104 51.8119 185.104ZM60.4371 186.128C59.8825 186.128 59.3918 186.005 58.9651 185.76C58.5385 185.515 58.2025 185.173 57.9571 184.736C57.7225 184.299 57.6051 183.797 57.6051 183.232V178.192H58.7891V182.896C58.7891 183.589 58.9758 184.139 59.3491 184.544C59.7225 184.949 60.2291 185.152 60.8691 185.152C61.3065 185.152 61.6958 185.051 62.0371 184.848C62.3891 184.645 62.6825 184.352 62.9171 183.968V178.192H64.0851V186H62.9171V184.736C62.6185 185.195 62.2611 185.541 61.8451 185.776C61.4398 186.011 60.9705 186.128 60.4371 186.128ZM69.7293 186.112C69.0573 186.112 68.4493 185.936 67.9053 185.584C67.3613 185.221 66.9293 184.741 66.6093 184.144C66.2893 183.536 66.1293 182.859 66.1293 182.112C66.1293 181.355 66.2893 180.677 66.6093 180.08C66.9399 179.472 67.3826 178.992 67.9373 178.64C68.4919 178.277 69.1106 178.096 69.7933 178.096C70.2733 178.096 70.7213 178.192 71.1373 178.384C71.5533 178.565 71.9159 178.832 72.2253 179.184V174.448L73.3933 174.208V186H72.2253V184.96C71.9266 185.333 71.5639 185.621 71.1373 185.824C70.7106 186.016 70.2413 186.112 69.7293 186.112ZM70.0173 185.088C70.4759 185.088 70.8973 184.997 71.2813 184.816C71.6653 184.635 71.9799 184.379 72.2253 184.048V180.176C71.9693 179.845 71.6439 179.589 71.2493 179.408C70.8653 179.216 70.4546 179.12 70.0173 179.12C69.4946 179.12 69.0253 179.248 68.6093 179.504C68.2039 179.76 67.8786 180.112 67.6332 180.56C67.3986 181.008 67.2812 181.52 67.2812 182.096C67.2812 182.661 67.3986 183.173 67.6332 183.632C67.8786 184.08 68.2039 184.437 68.6093 184.704C69.0253 184.96 69.4946 185.088 70.0173 185.088ZM78.2098 186.16C77.5698 186.16 76.9778 186.064 76.4338 185.872C75.8898 185.669 75.4258 185.381 75.0418 185.008L75.6658 184.24C76.1351 184.581 76.5671 184.832 76.9618 184.992C77.3564 185.141 77.7618 185.216 78.1778 185.216C78.7431 185.216 79.2124 185.083 79.5858 184.816C79.9591 184.549 80.1458 184.208 80.1458 183.792C80.1458 183.472 80.0338 183.221 79.8098 183.04C79.5964 182.859 79.2391 182.72 78.7378 182.624L77.4578 182.4C76.7004 182.261 76.1404 182.027 75.7778 181.696C75.4258 181.365 75.2498 180.917 75.2498 180.352C75.2498 179.904 75.3671 179.509 75.6018 179.168C75.8471 178.827 76.1831 178.56 76.6098 178.368C77.0364 178.165 77.5218 178.064 78.0658 178.064C78.5991 178.064 79.1058 178.144 79.5858 178.304C80.0658 178.453 80.5511 178.699 81.0418 179.04L80.4658 179.856C80.0604 179.568 79.6551 179.36 79.2498 179.232C78.8444 179.093 78.4338 179.024 78.0178 179.024C77.5058 179.024 77.0951 179.136 76.7858 179.36C76.4764 179.584 76.3218 179.888 76.3218 180.272C76.3218 180.592 76.4178 180.837 76.6098 181.008C76.8124 181.179 77.1644 181.307 77.6658 181.392L78.9778 181.632C79.7671 181.771 80.3431 182.011 80.7058 182.352C81.0684 182.693 81.2498 183.152 81.2498 183.728C81.2498 184.187 81.1164 184.603 80.8498 184.976C80.5831 185.339 80.2204 185.627 79.7618 185.84C79.3031 186.053 78.7858 186.16 78.2098 186.16ZM89.1785 186.144C88.6238 186.144 88.1332 186.043 87.7065 185.84C87.2798 185.637 86.9438 185.36 86.6985 185.008C86.4638 184.645 86.3465 184.229 86.3465 183.76C86.3465 183.291 86.4692 182.885 86.7145 182.544C86.9598 182.192 87.3012 181.92 87.7385 181.728C88.1758 181.536 88.6878 181.44 89.2745 181.44C89.7225 181.44 90.1438 181.488 90.5385 181.584C90.9438 181.68 91.3172 181.835 91.6585 182.048V180.976C91.6585 180.336 91.4878 179.856 91.1465 179.536C90.8052 179.205 90.3038 179.04 89.6425 179.04C89.2798 179.04 88.9065 179.093 88.5225 179.2C88.1492 179.307 87.7332 179.477 87.2745 179.712L86.8425 178.816C87.8878 178.315 88.8692 178.064 89.7865 178.064C90.7572 178.064 91.5038 178.304 92.0265 178.784C92.5492 179.253 92.8105 179.931 92.8105 180.816V186H91.6585V185.088C91.3172 185.44 90.9385 185.707 90.5225 185.888C90.1065 186.059 89.6585 186.144 89.1785 186.144ZM87.4665 183.728C87.4665 184.187 87.6425 184.555 87.9945 184.832C88.3572 185.109 88.8318 185.248 89.4185 185.248C89.8558 185.248 90.2558 185.173 90.6185 185.024C90.9918 184.875 91.3385 184.651 91.6585 184.352V182.848C91.3278 182.656 90.9865 182.517 90.6345 182.432C90.2825 182.336 89.8878 182.288 89.4505 182.288C88.8532 182.288 88.3732 182.421 88.0105 182.688C87.6478 182.944 87.4665 183.291 87.4665 183.728ZM95.1844 186V178.192H96.3524V179.792C96.555 179.248 96.843 178.827 97.2164 178.528C97.6004 178.219 98.0377 178.064 98.5284 178.064C98.667 178.064 98.795 178.075 98.9124 178.096C99.0297 178.107 99.147 178.133 99.2644 178.176V179.232C99.1364 179.189 98.9977 179.157 98.8484 179.136C98.7097 179.104 98.5764 179.088 98.4484 179.088C97.9684 179.088 97.547 179.227 97.1844 179.504C96.8324 179.781 96.555 180.171 96.3524 180.672V186H95.1844ZM103.845 186.16C103.12 186.16 102.464 185.984 101.877 185.632C101.29 185.269 100.826 184.784 100.485 184.176C100.144 183.557 99.973 182.864 99.973 182.096C99.973 181.328 100.133 180.64 100.453 180.032C100.784 179.424 101.226 178.944 101.781 178.592C102.336 178.24 102.954 178.064 103.637 178.064C104.33 178.064 104.944 178.24 105.477 178.592C106.021 178.933 106.448 179.403 106.757 180C107.077 180.587 107.237 181.253 107.237 182V182.352H101.109C101.152 182.885 101.296 183.365 101.541 183.792C101.797 184.208 102.128 184.539 102.533 184.784C102.949 185.019 103.402 185.136 103.893 185.136C104.298 185.136 104.688 185.067 105.061 184.928C105.445 184.779 105.77 184.581 106.037 184.336L106.773 185.12C106.325 185.472 105.861 185.733 105.381 185.904C104.901 186.075 104.389 186.16 103.845 186.16ZM101.141 181.52H106.085C106.032 181.051 105.888 180.635 105.653 180.272C105.429 179.899 105.141 179.605 104.789 179.392C104.448 179.179 104.064 179.072 103.637 179.072C103.21 179.072 102.821 179.179 102.469 179.392C102.117 179.595 101.824 179.883 101.589 180.256C101.365 180.619 101.216 181.04 101.141 181.52ZM113.174 186V174.8H114.406V186H113.174ZM120.133 186V175.888H116.261V174.8H125.237V175.888H121.365V186H120.133ZM134.142 186.16C133.417 186.16 132.761 185.984 132.174 185.632C131.587 185.269 131.123 184.784 130.782 184.176C130.441 183.557 130.27 182.864 130.27 182.096C130.27 181.328 130.43 180.64 130.75 180.032C131.081 179.424 131.523 178.944 132.078 178.592C132.633 178.24 133.251 178.064 133.934 178.064C134.627 178.064 135.241 178.24 135.774 178.592C136.318 178.933 136.745 179.403 137.054 180C137.374 180.587 137.534 181.253 137.534 182V182.352H131.406C131.449 182.885 131.593 183.365 131.838 183.792C132.094 184.208 132.425 184.539 132.83 184.784C133.246 185.019 133.699 185.136 134.19 185.136C134.595 185.136 134.985 185.067 135.358 184.928C135.742 184.779 136.067 184.581 136.334 184.336L137.07 185.12C136.622 185.472 136.158 185.733 135.678 185.904C135.198 186.075 134.686 186.16 134.142 186.16ZM131.438 181.52H136.382C136.329 181.051 136.185 180.635 135.95 180.272C135.726 179.899 135.438 179.605 135.086 179.392C134.745 179.179 134.361 179.072 133.934 179.072C133.507 179.072 133.118 179.179 132.766 179.392C132.414 179.595 132.121 179.883 131.886 180.256C131.662 180.619 131.513 181.04 131.438 181.52ZM139.528 186V178.192H140.696V179.456C140.995 178.987 141.352 178.64 141.768 178.416C142.184 178.181 142.653 178.064 143.176 178.064C143.741 178.064 144.232 178.187 144.648 178.432C145.075 178.667 145.405 179.003 145.64 179.44C145.885 179.867 146.008 180.368 146.008 180.944V186H144.84V181.28C144.84 180.587 144.648 180.043 144.264 179.648C143.891 179.243 143.384 179.04 142.744 179.04C142.317 179.04 141.928 179.141 141.576 179.344C141.224 179.547 140.931 179.845 140.696 180.24V186H139.528ZM150.284 186L147.084 178.192H148.348L150.876 184.544L153.372 178.192H154.62L151.404 186H150.284ZM156.043 186V178.192H157.211V186H156.043ZM156.635 176.256C156.401 176.256 156.198 176.176 156.027 176.016C155.867 175.845 155.787 175.648 155.787 175.424C155.787 175.2 155.867 175.008 156.027 174.848C156.198 174.677 156.401 174.592 156.635 174.592C156.87 174.592 157.067 174.677 157.227 174.848C157.398 175.008 157.483 175.2 157.483 175.424C157.483 175.648 157.398 175.845 157.227 176.016C157.067 176.176 156.87 176.256 156.635 176.256ZM159.606 186V178.192H160.774V179.792C160.977 179.248 161.265 178.827 161.638 178.528C162.022 178.219 162.46 178.064 162.95 178.064C163.089 178.064 163.217 178.075 163.334 178.096C163.452 178.107 163.569 178.133 163.686 178.176V179.232C163.558 179.189 163.42 179.157 163.27 179.136C163.132 179.104 162.998 179.088 162.87 179.088C162.39 179.088 161.969 179.227 161.606 179.504C161.254 179.781 160.977 180.171 160.774 180.672V186H159.606ZM168.203 186.128C167.478 186.128 166.827 185.952 166.251 185.6C165.675 185.248 165.222 184.768 164.891 184.16C164.56 183.552 164.395 182.864 164.395 182.096C164.395 181.328 164.56 180.64 164.891 180.032C165.222 179.424 165.675 178.944 166.251 178.592C166.827 178.24 167.478 178.064 168.203 178.064C168.918 178.064 169.558 178.24 170.123 178.592C170.699 178.944 171.152 179.424 171.483 180.032C171.814 180.64 171.979 181.328 171.979 182.096C171.979 182.864 171.814 183.552 171.483 184.16C171.152 184.768 170.699 185.248 170.123 185.6C169.558 185.952 168.918 186.128 168.203 186.128ZM168.187 185.104C168.699 185.104 169.152 184.976 169.547 184.72C169.942 184.453 170.251 184.091 170.475 183.632C170.71 183.173 170.827 182.661 170.827 182.096C170.827 181.52 170.71 181.008 170.475 180.56C170.251 180.101 169.942 179.744 169.547 179.488C169.152 179.221 168.699 179.088 168.187 179.088C167.675 179.088 167.222 179.221 166.827 179.488C166.432 179.744 166.118 180.101 165.883 180.56C165.659 181.008 165.547 181.52 165.547 182.096C165.547 182.661 165.659 183.173 165.883 183.632C166.118 184.091 166.432 184.453 166.827 184.72C167.222 184.976 167.675 185.104 168.187 185.104ZM174.028 186V178.192H175.196V179.456C175.495 178.987 175.852 178.64 176.268 178.416C176.684 178.181 177.153 178.064 177.676 178.064C178.241 178.064 178.732 178.187 179.148 178.432C179.575 178.667 179.905 179.003 180.14 179.44C180.385 179.867 180.508 180.368 180.508 180.944V186H179.34V181.28C179.34 180.587 179.148 180.043 178.764 179.648C178.391 179.243 177.884 179.04 177.244 179.04C176.817 179.04 176.428 179.141 176.076 179.344C175.724 179.547 175.431 179.845 175.196 180.24V186H174.028ZM182.856 186V178.192H184.024V179.408C184.323 178.96 184.664 178.624 185.048 178.4C185.432 178.176 185.864 178.064 186.344 178.064C186.899 178.064 187.384 178.203 187.8 178.48C188.216 178.747 188.531 179.115 188.744 179.584C189.054 179.083 189.422 178.704 189.848 178.448C190.286 178.192 190.787 178.064 191.352 178.064C191.875 178.064 192.334 178.187 192.728 178.432C193.134 178.677 193.448 179.019 193.672 179.456C193.896 179.883 194.008 180.384 194.008 180.96V186H192.84V181.248C192.84 180.565 192.67 180.027 192.328 179.632C191.987 179.237 191.518 179.04 190.92 179.04C190.515 179.04 190.147 179.141 189.816 179.344C189.496 179.547 189.214 179.856 188.968 180.272C188.99 180.379 189.006 180.491 189.016 180.608C189.027 180.725 189.032 180.843 189.032 180.96V186H187.864V181.248C187.864 180.565 187.688 180.027 187.336 179.632C186.995 179.237 186.526 179.04 185.928 179.04C185.128 179.04 184.494 179.424 184.024 180.192V186H182.856ZM199.892 186.16C199.167 186.16 198.511 185.984 197.924 185.632C197.337 185.269 196.873 184.784 196.532 184.176C196.191 183.557 196.02 182.864 196.02 182.096C196.02 181.328 196.18 180.64 196.5 180.032C196.831 179.424 197.273 178.944 197.828 178.592C198.383 178.24 199.001 178.064 199.684 178.064C200.377 178.064 200.991 178.24 201.524 178.592C202.068 178.933 202.495 179.403 202.804 180C203.124 180.587 203.284 181.253 203.284 182V182.352H197.156C197.199 182.885 197.343 183.365 197.588 183.792C197.844 184.208 198.175 184.539 198.58 184.784C198.996 185.019 199.449 185.136 199.94 185.136C200.345 185.136 200.735 185.067 201.108 184.928C201.492 184.779 201.817 184.581 202.084 184.336L202.82 185.12C202.372 185.472 201.908 185.733 201.428 185.904C200.948 186.075 200.436 186.16 199.892 186.16ZM197.188 181.52H202.132C202.079 181.051 201.935 180.635 201.7 180.272C201.476 179.899 201.188 179.605 200.836 179.392C200.495 179.179 200.111 179.072 199.684 179.072C199.257 179.072 198.868 179.179 198.516 179.392C198.164 179.595 197.871 179.883 197.636 180.256C197.412 180.619 197.263 181.04 197.188 181.52ZM205.278 186V178.192H206.446V179.456C206.745 178.987 207.102 178.64 207.518 178.416C207.934 178.181 208.403 178.064 208.926 178.064C209.491 178.064 209.982 178.187 210.398 178.432C210.825 178.667 211.155 179.003 211.39 179.44C211.635 179.867 211.758 180.368 211.758 180.944V186H210.59V181.28C210.59 180.587 210.398 180.043 210.014 179.648C209.641 179.243 209.134 179.04 208.494 179.04C208.067 179.04 207.678 179.141 207.326 179.344C206.974 179.547 206.681 179.845 206.446 180.24V186H205.278ZM216.848 186.16C216.176 186.16 215.664 186 215.312 185.68C214.971 185.349 214.8 184.875 214.8 184.256V179.152H213.184V178.192H214.8V176.048L215.968 175.776V178.192H218.208V179.152H215.968V183.952C215.968 184.368 216.053 184.667 216.224 184.848C216.405 185.029 216.699 185.12 217.104 185.12C217.307 185.12 217.488 185.104 217.648 185.072C217.808 185.04 217.995 184.987 218.208 184.912V185.952C217.995 186.027 217.771 186.08 217.536 186.112C217.301 186.144 217.072 186.16 216.848 186.16ZM222.491 186.16C221.851 186.16 221.259 186.064 220.715 185.872C220.171 185.669 219.707 185.381 219.323 185.008L219.947 184.24C220.416 184.581 220.848 184.832 221.243 184.992C221.638 185.141 222.043 185.216 222.459 185.216C223.024 185.216 223.494 185.083 223.867 184.816C224.24 184.549 224.427 184.208 224.427 183.792C224.427 183.472 224.315 183.221 224.091 183.04C223.878 182.859 223.52 182.72 223.019 182.624L221.739 182.4C220.982 182.261 220.422 182.027 220.059 181.696C219.707 181.365 219.531 180.917 219.531 180.352C219.531 179.904 219.648 179.509 219.883 179.168C220.128 178.827 220.464 178.56 220.891 178.368C221.318 178.165 221.803 178.064 222.347 178.064C222.88 178.064 223.387 178.144 223.867 178.304C224.347 178.453 224.832 178.699 225.323 179.04L224.747 179.856C224.342 179.568 223.936 179.36 223.531 179.232C223.126 179.093 222.715 179.024 222.299 179.024C221.787 179.024 221.376 179.136 221.067 179.36C220.758 179.584 220.603 179.888 220.603 180.272C220.603 180.592 220.699 180.837 220.891 181.008C221.094 181.179 221.446 181.307 221.947 181.392L223.259 181.632C224.048 181.771 224.624 182.011 224.987 182.352C225.35 182.693 225.531 183.152 225.531 183.728C225.531 184.187 225.398 184.603 225.131 184.976C224.864 185.339 224.502 185.627 224.043 185.84C223.584 186.053 223.067 186.16 222.491 186.16ZM234.02 186.16C233.348 186.16 232.836 186 232.484 185.68C232.142 185.349 231.972 184.875 231.972 184.256V179.152H230.356V178.192H231.972V176.048L233.14 175.776V178.192H235.38V179.152H233.14V183.952C233.14 184.368 233.225 184.667 233.396 184.848C233.577 185.029 233.87 185.12 234.276 185.12C234.478 185.12 234.66 185.104 234.82 185.072C234.98 185.04 235.166 184.987 235.38 184.912V185.952C235.166 186.027 234.942 186.08 234.708 186.112C234.473 186.144 234.244 186.16 234.02 186.16ZM237.091 186V174.448L238.259 174.208V179.456C238.557 178.987 238.915 178.64 239.331 178.416C239.747 178.181 240.216 178.064 240.739 178.064C241.304 178.064 241.795 178.187 242.211 178.432C242.637 178.667 242.968 179.003 243.203 179.44C243.448 179.867 243.571 180.368 243.571 180.944V186H242.403V181.28C242.403 180.587 242.211 180.043 241.827 179.648C241.453 179.243 240.947 179.04 240.307 179.04C239.88 179.04 239.491 179.141 239.139 179.344C238.787 179.547 238.493 179.845 238.259 180.24V186H237.091ZM248.335 186.144C247.78 186.144 247.289 186.043 246.863 185.84C246.436 185.637 246.1 185.36 245.855 185.008C245.62 184.645 245.503 184.229 245.503 183.76C245.503 183.291 245.625 182.885 245.871 182.544C246.116 182.192 246.457 181.92 246.895 181.728C247.332 181.536 247.844 181.44 248.431 181.44C248.879 181.44 249.3 181.488 249.695 181.584C250.1 181.68 250.473 181.835 250.815 182.048V180.976C250.815 180.336 250.644 179.856 250.303 179.536C249.961 179.205 249.46 179.04 248.799 179.04C248.436 179.04 248.063 179.093 247.679 179.2C247.305 179.307 246.889 179.477 246.431 179.712L245.999 178.816C247.044 178.315 248.025 178.064 248.943 178.064C249.913 178.064 250.66 178.304 251.183 178.784C251.705 179.253 251.967 179.931 251.967 180.816V186H250.815V185.088C250.473 185.44 250.095 185.707 249.679 185.888C249.263 186.059 248.815 186.144 248.335 186.144ZM246.623 183.728C246.623 184.187 246.799 184.555 247.151 184.832C247.513 185.109 247.988 185.248 248.575 185.248C249.012 185.248 249.412 185.173 249.775 185.024C250.148 184.875 250.495 184.651 250.815 184.352V182.848C250.484 182.656 250.143 182.517 249.791 182.432C249.439 182.336 249.044 182.288 248.607 182.288C248.009 182.288 247.529 182.421 247.167 182.688C246.804 182.944 246.623 183.291 246.623 183.728ZM257.082 186.16C256.41 186.16 255.898 186 255.546 185.68C255.205 185.349 255.034 184.875 255.034 184.256V179.152H253.418V178.192H255.034V176.048L256.202 175.776V178.192H258.442V179.152H256.202V183.952C256.202 184.368 256.288 184.667 256.458 184.848C256.64 185.029 256.933 185.12 257.338 185.12C257.541 185.12 257.722 185.104 257.882 185.072C258.042 185.04 258.229 184.987 258.442 184.912V185.952C258.229 186.027 258.005 186.08 257.77 186.112C257.536 186.144 257.306 186.16 257.082 186.16ZM266.304 186.144C265.749 186.144 265.258 186.043 264.832 185.84C264.405 185.637 264.069 185.36 263.824 185.008C263.589 184.645 263.472 184.229 263.472 183.76C263.472 183.291 263.594 182.885 263.84 182.544C264.085 182.192 264.426 181.92 264.864 181.728C265.301 181.536 265.813 181.44 266.4 181.44C266.848 181.44 267.269 181.488 267.664 181.584C268.069 181.68 268.442 181.835 268.784 182.048V180.976C268.784 180.336 268.613 179.856 268.272 179.536C267.93 179.205 267.429 179.04 266.768 179.04C266.405 179.04 266.032 179.093 265.648 179.2C265.274 179.307 264.858 179.477 264.4 179.712L263.968 178.816C265.013 178.315 265.994 178.064 266.911 178.064C267.882 178.064 268.629 178.304 269.152 178.784C269.674 179.253 269.936 179.931 269.936 180.816V186H268.784V185.088C268.442 185.44 268.064 185.707 267.648 185.888C267.232 186.059 266.784 186.144 266.304 186.144ZM264.592 183.728C264.592 184.187 264.768 184.555 265.12 184.832C265.482 185.109 265.957 185.248 266.544 185.248C266.981 185.248 267.381 185.173 267.744 185.024C268.117 184.875 268.464 184.651 268.784 184.352V182.848C268.453 182.656 268.112 182.517 267.76 182.432C267.408 182.336 267.013 182.288 266.576 182.288C265.978 182.288 265.498 182.421 265.136 182.688C264.773 182.944 264.592 183.291 264.592 183.728ZM272.309 186V174.56L273.477 174.32V179.264C273.776 178.891 274.139 178.603 274.565 178.4C274.992 178.197 275.467 178.096 275.989 178.096C276.672 178.096 277.28 178.277 277.813 178.64C278.357 178.992 278.789 179.472 279.109 180.08C279.429 180.677 279.589 181.349 279.589 182.096C279.589 182.843 279.424 183.52 279.093 184.128C278.773 184.736 278.336 185.221 277.781 185.584C277.237 185.936 276.619 186.112 275.925 186.112C275.435 186.112 274.976 186.016 274.549 185.824C274.133 185.621 273.771 185.339 273.461 184.976V186H272.309ZM275.701 185.104C276.224 185.104 276.688 184.976 277.093 184.72C277.509 184.453 277.835 184.096 278.069 183.648C278.315 183.189 278.437 182.677 278.437 182.112C278.437 181.536 278.315 181.024 278.069 180.576C277.835 180.128 277.509 179.776 277.093 179.52C276.688 179.253 276.224 179.12 275.701 179.12C275.243 179.12 274.816 179.216 274.421 179.408C274.037 179.589 273.723 179.851 273.477 180.192V184.016C273.733 184.357 274.053 184.624 274.437 184.816C274.832 185.008 275.253 185.104 275.701 185.104ZM284.054 186.16C283.414 186.16 282.822 186.064 282.278 185.872C281.734 185.669 281.27 185.381 280.886 185.008L281.51 184.24C281.979 184.581 282.411 184.832 282.806 184.992C283.2 185.141 283.606 185.216 284.022 185.216C284.587 185.216 285.056 185.083 285.43 184.816C285.803 184.549 285.99 184.208 285.99 183.792C285.99 183.472 285.878 183.221 285.654 183.04C285.44 182.859 285.083 182.72 284.582 182.624L283.302 182.4C282.544 182.261 281.984 182.027 281.622 181.696C281.27 181.365 281.094 180.917 281.094 180.352C281.094 179.904 281.211 179.509 281.446 179.168C281.691 178.827 282.027 178.56 282.454 178.368C282.88 178.165 283.366 178.064 283.91 178.064C284.443 178.064 284.95 178.144 285.43 178.304C285.91 178.453 286.395 178.699 286.886 179.04L286.31 179.856C285.904 179.568 285.499 179.36 285.094 179.232C284.688 179.093 284.278 179.024 283.862 179.024C283.35 179.024 282.939 179.136 282.63 179.36C282.32 179.584 282.166 179.888 282.166 180.272C282.166 180.592 282.262 180.837 282.454 181.008C282.656 181.179 283.008 181.307 283.51 181.392L284.822 181.632C285.611 181.771 286.187 182.011 286.55 182.352C286.912 182.693 287.094 183.152 287.094 183.728C287.094 184.187 286.96 184.603 286.694 184.976C286.427 185.339 286.064 185.627 285.606 185.84C285.147 186.053 284.63 186.16 284.054 186.16ZM291.692 186.16C291.02 186.16 290.508 186 290.156 185.68C289.814 185.349 289.644 184.875 289.644 184.256V179.152H288.028V178.192H289.644V176.048L290.812 175.776V178.192H293.052V179.152H290.812V183.952C290.812 184.368 290.897 184.667 291.068 184.848C291.249 185.029 291.542 185.12 291.948 185.12C292.15 185.12 292.332 185.104 292.492 185.072C292.652 185.04 292.838 184.987 293.052 184.912V185.952C292.838 186.027 292.614 186.08 292.38 186.112C292.145 186.144 291.916 186.16 291.692 186.16ZM294.763 186V178.192H295.931V179.792C296.133 179.248 296.421 178.827 296.795 178.528C297.179 178.219 297.616 178.064 298.107 178.064C298.245 178.064 298.373 178.075 298.491 178.096C298.608 178.107 298.725 178.133 298.843 178.176V179.232C298.715 179.189 298.576 179.157 298.427 179.136C298.288 179.104 298.155 179.088 298.027 179.088C297.547 179.088 297.125 179.227 296.763 179.504C296.411 179.781 296.133 180.171 295.931 180.672V186H294.763ZM302.475 186.144C301.921 186.144 301.43 186.043 301.003 185.84C300.577 185.637 300.241 185.36 299.995 185.008C299.761 184.645 299.643 184.229 299.643 183.76C299.643 183.291 299.766 182.885 300.011 182.544C300.257 182.192 300.598 181.92 301.035 181.728C301.473 181.536 301.985 181.44 302.571 181.44C303.019 181.44 303.441 181.488 303.835 181.584C304.241 181.68 304.614 181.835 304.955 182.048V180.976C304.955 180.336 304.785 179.856 304.443 179.536C304.102 179.205 303.601 179.04 302.939 179.04C302.577 179.04 302.203 179.093 301.819 179.2C301.446 179.307 301.03 179.477 300.571 179.712L300.139 178.816C301.185 178.315 302.166 178.064 303.083 178.064C304.054 178.064 304.801 178.304 305.323 178.784C305.846 179.253 306.107 179.931 306.107 180.816V186H304.955V185.088C304.614 185.44 304.235 185.707 303.819 185.888C303.403 186.059 302.955 186.144 302.475 186.144ZM300.763 183.728C300.763 184.187 300.939 184.555 301.291 184.832C301.654 185.109 302.129 185.248 302.715 185.248C303.153 185.248 303.553 185.173 303.915 185.024C304.289 184.875 304.635 184.651 304.955 184.352V182.848C304.625 182.656 304.283 182.517 303.931 182.432C303.579 182.336 303.185 182.288 302.747 182.288C302.15 182.288 301.67 182.421 301.307 182.688C300.945 182.944 300.763 183.291 300.763 183.728ZM311.985 186.128C311.26 186.128 310.604 185.952 310.017 185.6C309.441 185.237 308.983 184.752 308.641 184.144C308.3 183.525 308.129 182.843 308.129 182.096C308.129 181.339 308.3 180.656 308.641 180.048C308.983 179.44 309.441 178.96 310.017 178.608C310.604 178.245 311.26 178.064 311.985 178.064C312.561 178.064 313.111 178.171 313.633 178.384C314.156 178.597 314.609 178.896 314.993 179.28L314.241 180.096C313.964 179.787 313.628 179.547 313.233 179.376C312.839 179.205 312.439 179.12 312.033 179.12C311.521 179.12 311.057 179.253 310.641 179.52C310.236 179.787 309.911 180.144 309.665 180.592C309.42 181.04 309.297 181.541 309.297 182.096C309.297 182.651 309.42 183.152 309.665 183.6C309.911 184.048 310.236 184.405 310.641 184.672C311.057 184.939 311.521 185.072 312.033 185.072C312.439 185.072 312.839 184.987 313.233 184.816C313.628 184.635 313.964 184.395 314.241 184.096L314.993 184.912C314.609 185.296 314.156 185.595 313.633 185.808C313.111 186.021 312.561 186.128 311.985 186.128ZM319.754 186.16C319.082 186.16 318.57 186 318.218 185.68C317.877 185.349 317.706 184.875 317.706 184.256V179.152H316.09V178.192H317.706V176.048L318.874 175.776V178.192H321.114V179.152H318.874V183.952C318.874 184.368 318.959 184.667 319.13 184.848C319.311 185.029 319.605 185.12 320.01 185.12C320.213 185.12 320.394 185.104 320.554 185.072C320.714 185.04 320.901 184.987 321.114 184.912V185.952C320.901 186.027 320.677 186.08 320.442 186.112C320.207 186.144 319.978 186.16 319.754 186.16ZM322.425 188.512L323.385 184.816H324.633L323.337 188.512H322.425ZM330.559 189.344V178.192H331.711V179.312C332.01 178.917 332.373 178.619 332.799 178.416C333.237 178.203 333.717 178.096 334.239 178.096C334.922 178.096 335.53 178.277 336.063 178.64C336.607 178.992 337.039 179.472 337.359 180.08C337.679 180.677 337.839 181.349 337.839 182.096C337.839 182.843 337.674 183.52 337.343 184.128C337.023 184.736 336.586 185.221 336.031 185.584C335.487 185.936 334.869 186.112 334.175 186.112C333.685 186.112 333.231 186.021 332.815 185.84C332.399 185.648 332.037 185.376 331.727 185.024V189.344H330.559ZM333.951 185.104C334.474 185.104 334.938 184.976 335.343 184.72C335.759 184.453 336.085 184.096 336.319 183.648C336.565 183.189 336.687 182.677 336.687 182.112C336.687 181.536 336.565 181.024 336.319 180.576C336.085 180.128 335.759 179.776 335.343 179.52C334.938 179.253 334.474 179.12 333.951 179.12C333.493 179.12 333.066 179.216 332.671 179.408C332.287 179.589 331.973 179.851 331.727 180.192V184.016C331.983 184.357 332.303 184.624 332.687 184.816C333.082 185.008 333.503 185.104 333.951 185.104ZM343.344 186.128C342.618 186.128 341.968 185.952 341.392 185.6C340.816 185.248 340.362 184.768 340.032 184.16C339.701 183.552 339.536 182.864 339.536 182.096C339.536 181.328 339.701 180.64 340.032 180.032C340.362 179.424 340.816 178.944 341.392 178.592C341.968 178.24 342.618 178.064 343.344 178.064C344.058 178.064 344.698 178.24 345.264 178.592C345.84 178.944 346.293 179.424 346.624 180.032C346.954 180.64 347.12 181.328 347.12 182.096C347.12 182.864 346.954 183.552 346.624 184.16C346.293 184.768 345.84 185.248 345.264 185.6C344.698 185.952 344.058 186.128 343.344 186.128ZM343.328 185.104C343.84 185.104 344.293 184.976 344.688 184.72C345.082 184.453 345.392 184.091 345.616 183.632C345.85 183.173 345.968 182.661 345.968 182.096C345.968 181.52 345.85 181.008 345.616 180.56C345.392 180.101 345.082 179.744 344.688 179.488C344.293 179.221 343.84 179.088 343.328 179.088C342.816 179.088 342.362 179.221 341.968 179.488C341.573 179.744 341.258 180.101 341.024 180.56C340.8 181.008 340.688 181.52 340.688 182.096C340.688 182.661 340.8 183.173 341.024 183.632C341.258 184.091 341.573 184.453 341.968 184.72C342.362 184.976 342.816 185.104 343.328 185.104ZM352.625 186.128C351.899 186.128 351.249 185.952 350.673 185.6C350.097 185.248 349.643 184.768 349.313 184.16C348.982 183.552 348.817 182.864 348.817 182.096C348.817 181.328 348.982 180.64 349.313 180.032C349.643 179.424 350.097 178.944 350.673 178.592C351.249 178.24 351.899 178.064 352.625 178.064C353.339 178.064 353.979 178.24 354.545 178.592C355.121 178.944 355.574 179.424 355.905 180.032C356.235 180.64 356.401 181.328 356.401 182.096C356.401 182.864 356.235 183.552 355.905 184.16C355.574 184.768 355.121 185.248 354.545 185.6C353.979 185.952 353.339 186.128 352.625 186.128ZM352.609 185.104C353.121 185.104 353.574 184.976 353.969 184.72C354.363 184.453 354.673 184.091 354.897 183.632C355.131 183.173 355.249 182.661 355.249 182.096C355.249 181.52 355.131 181.008 354.897 180.56C354.673 180.101 354.363 179.744 353.969 179.488C353.574 179.221 353.121 179.088 352.609 179.088C352.097 179.088 351.643 179.221 351.249 179.488C350.854 179.744 350.539 180.101 350.305 180.56C350.081 181.008 349.969 181.52 349.969 182.096C349.969 182.661 350.081 183.173 350.305 183.632C350.539 184.091 350.854 184.453 351.249 184.72C351.643 184.976 352.097 185.104 352.609 185.104ZM358.45 186V174.448L359.618 174.208V186H358.45ZM361.613 188.512L362.573 184.816H363.821L362.525 188.512H361.613ZM372.163 186.144C371.608 186.144 371.118 186.043 370.691 185.84C370.264 185.637 369.928 185.36 369.683 185.008C369.448 184.645 369.331 184.229 369.331 183.76C369.331 183.291 369.454 182.885 369.699 182.544C369.944 182.192 370.286 181.92 370.723 181.728C371.16 181.536 371.672 181.44 372.259 181.44C372.707 181.44 373.128 181.488 373.523 181.584C373.928 181.68 374.302 181.835 374.643 182.048V180.976C374.643 180.336 374.472 179.856 374.131 179.536C373.79 179.205 373.288 179.04 372.627 179.04C372.264 179.04 371.891 179.093 371.507 179.2C371.134 179.307 370.718 179.477 370.259 179.712L369.827 178.816C370.872 178.315 371.854 178.064 372.771 178.064C373.742 178.064 374.488 178.304 375.011 178.784C375.534 179.253 375.795 179.931 375.795 180.816V186H374.643V185.088C374.302 185.44 373.923 185.707 373.507 185.888C373.091 186.059 372.643 186.144 372.163 186.144ZM370.451 183.728C370.451 184.187 370.627 184.555 370.979 184.832C371.342 185.109 371.816 185.248 372.403 185.248C372.84 185.248 373.24 185.173 373.603 185.024C373.976 184.875 374.323 184.651 374.643 184.352V182.848C374.312 182.656 373.971 182.517 373.619 182.432C373.267 182.336 372.872 182.288 372.435 182.288C371.838 182.288 371.358 182.421 370.995 182.688C370.632 182.944 370.451 183.291 370.451 183.728ZM378.169 186V178.192H379.337V179.456C379.635 178.987 379.993 178.64 380.409 178.416C380.825 178.181 381.294 178.064 381.817 178.064C382.382 178.064 382.873 178.187 383.289 178.432C383.715 178.667 384.046 179.003 384.281 179.44C384.526 179.867 384.649 180.368 384.649 180.944V186H383.481V181.28C383.481 180.587 383.289 180.043 382.905 179.648C382.531 179.243 382.025 179.04 381.385 179.04C380.958 179.04 380.569 179.141 380.217 179.344C379.865 179.547 379.571 179.845 379.337 180.24V186H378.169ZM390.245 186.112C389.573 186.112 388.965 185.936 388.421 185.584C387.877 185.221 387.445 184.741 387.125 184.144C386.805 183.536 386.645 182.859 386.645 182.112C386.645 181.355 386.805 180.677 387.125 180.08C387.456 179.472 387.898 178.992 388.453 178.64C389.008 178.277 389.626 178.096 390.309 178.096C390.789 178.096 391.237 178.192 391.653 178.384C392.069 178.565 392.432 178.832 392.741 179.184V174.448L393.909 174.208V186H392.741V184.96C392.442 185.333 392.08 185.621 391.653 185.824C391.226 186.016 390.757 186.112 390.245 186.112ZM390.533 185.088C390.992 185.088 391.413 184.997 391.797 184.816C392.181 184.635 392.496 184.379 392.741 184.048V180.176C392.485 179.845 392.16 179.589 391.765 179.408C391.381 179.216 390.97 179.12 390.533 179.12C390.01 179.12 389.541 179.248 389.125 179.504C388.72 179.76 388.394 180.112 388.149 180.56C387.914 181.008 387.797 181.52 387.797 182.096C387.797 182.661 387.914 183.173 388.149 183.632C388.394 184.08 388.72 184.437 389.125 184.704C389.541 184.96 390.01 185.088 390.533 185.088ZM402.46 186.16C401.82 186.16 401.228 186.064 400.684 185.872C400.14 185.669 399.676 185.381 399.292 185.008L399.916 184.24C400.385 184.581 400.817 184.832 401.212 184.992C401.606 185.141 402.012 185.216 402.428 185.216C402.993 185.216 403.462 185.083 403.836 184.816C404.209 184.549 404.396 184.208 404.396 183.792C404.396 183.472 404.284 183.221 404.06 183.04C403.846 182.859 403.489 182.72 402.988 182.624L401.708 182.4C400.95 182.261 400.39 182.027 400.028 181.696C399.676 181.365 399.5 180.917 399.5 180.352C399.5 179.904 399.617 179.509 399.852 179.168C400.097 178.827 400.433 178.56 400.86 178.368C401.286 178.165 401.772 178.064 402.316 178.064C402.849 178.064 403.356 178.144 403.836 178.304C404.316 178.453 404.801 178.699 405.292 179.04L404.716 179.856C404.31 179.568 403.905 179.36 403.5 179.232C403.094 179.093 402.684 179.024 402.268 179.024C401.756 179.024 401.345 179.136 401.036 179.36C400.726 179.584 400.572 179.888 400.572 180.272C400.572 180.592 400.668 180.837 400.86 181.008C401.062 181.179 401.414 181.307 401.916 181.392L403.228 181.632C404.017 181.771 404.593 182.011 404.956 182.352C405.318 182.693 405.5 183.152 405.5 183.728C405.5 184.187 405.366 184.603 405.1 184.976C404.833 185.339 404.47 185.627 404.012 185.84C403.553 186.053 403.036 186.16 402.46 186.16ZM407.278 186V174.448L408.446 174.208V179.456C408.745 178.987 409.102 178.64 409.518 178.416C409.934 178.181 410.403 178.064 410.926 178.064C411.491 178.064 411.982 178.187 412.398 178.432C412.825 178.667 413.155 179.003 413.39 179.44C413.635 179.867 413.758 180.368 413.758 180.944V186H412.59V181.28C412.59 180.587 412.398 180.043 412.014 179.648C411.641 179.243 411.134 179.04 410.494 179.04C410.067 179.04 409.678 179.141 409.326 179.344C408.974 179.547 408.681 179.845 408.446 180.24V186H407.278ZM418.522 186.144C417.968 186.144 417.477 186.043 417.05 185.84C416.624 185.637 416.288 185.36 416.042 185.008C415.808 184.645 415.69 184.229 415.69 183.76C415.69 183.291 415.813 182.885 416.058 182.544C416.304 182.192 416.645 181.92 417.082 181.728C417.52 181.536 418.032 181.44 418.618 181.44C419.066 181.44 419.488 181.488 419.882 181.584C420.288 181.68 420.661 181.835 421.002 182.048V180.976C421.002 180.336 420.832 179.856 420.49 179.536C420.149 179.205 419.648 179.04 418.986 179.04C418.624 179.04 418.25 179.093 417.866 179.2C417.493 179.307 417.077 179.477 416.618 179.712L416.186 178.816C417.232 178.315 418.213 178.064 419.13 178.064C420.101 178.064 420.848 178.304 421.37 178.784C421.893 179.253 422.154 179.931 422.154 180.816V186H421.002V185.088C420.661 185.44 420.282 185.707 419.866 185.888C419.45 186.059 419.002 186.144 418.522 186.144ZM416.81 183.728C416.81 184.187 416.986 184.555 417.338 184.832C417.701 185.109 418.176 185.248 418.762 185.248C419.2 185.248 419.6 185.173 419.962 185.024C420.336 184.875 420.682 184.651 421.002 184.352V182.848C420.672 182.656 420.33 182.517 419.978 182.432C419.626 182.336 419.232 182.288 418.794 182.288C418.197 182.288 417.717 182.421 417.354 182.688C416.992 182.944 416.81 183.291 416.81 183.728ZM424.528 186V178.192H425.696V179.792C425.899 179.248 426.187 178.827 426.56 178.528C426.944 178.219 427.381 178.064 427.872 178.064C428.011 178.064 428.139 178.075 428.256 178.096C428.373 178.107 428.491 178.133 428.608 178.176V179.232C428.48 179.189 428.341 179.157 428.192 179.136C428.053 179.104 427.92 179.088 427.792 179.088C427.312 179.088 426.891 179.227 426.528 179.504C426.176 179.781 425.899 180.171 425.696 180.672V186H424.528ZM433.189 186.16C432.463 186.16 431.807 185.984 431.221 185.632C430.634 185.269 430.17 184.784 429.829 184.176C429.487 183.557 429.317 182.864 429.317 182.096C429.317 181.328 429.477 180.64 429.797 180.032C430.127 179.424 430.57 178.944 431.125 178.592C431.679 178.24 432.298 178.064 432.981 178.064C433.674 178.064 434.287 178.24 434.821 178.592C435.365 178.933 435.791 179.403 436.101 180C436.421 180.587 436.581 181.253 436.581 182V182.352H430.453C430.495 182.885 430.639 183.365 430.885 183.792C431.141 184.208 431.471 184.539 431.877 184.784C432.293 185.019 432.746 185.136 433.237 185.136C433.642 185.136 434.031 185.067 434.405 184.928C434.789 184.779 435.114 184.581 435.381 184.336L436.117 185.12C435.669 185.472 435.205 185.733 434.725 185.904C434.245 186.075 433.733 186.16 433.189 186.16ZM430.485 181.52H435.429C435.375 181.051 435.231 180.635 434.997 180.272C434.773 179.899 434.485 179.605 434.133 179.392C433.791 179.179 433.407 179.072 432.981 179.072C432.554 179.072 432.165 179.179 431.813 179.392C431.461 179.595 431.167 179.883 430.933 180.256C430.709 180.619 430.559 181.04 430.485 181.52ZM35.616 210.16C34.976 210.16 34.384 210.064 33.84 209.872C33.296 209.669 32.832 209.381 32.448 209.008L33.072 208.24C33.5413 208.581 33.9733 208.832 34.368 208.992C34.7627 209.141 35.168 209.216 35.584 209.216C36.1493 209.216 36.6187 209.083 36.992 208.816C37.3653 208.549 37.552 208.208 37.552 207.792C37.552 207.472 37.44 207.221 37.216 207.04C37.0027 206.859 36.6453 206.72 36.144 206.624L34.864 206.4C34.1067 206.261 33.5467 206.027 33.184 205.696C32.832 205.365 32.656 204.917 32.656 204.352C32.656 203.904 32.7733 203.509 33.008 203.168C33.2533 202.827 33.5893 202.56 34.016 202.368C34.4427 202.165 34.928 202.064 35.472 202.064C36.0053 202.064 36.512 202.144 36.992 202.304C37.472 202.453 37.9573 202.699 38.448 203.04L37.872 203.856C37.4667 203.568 37.0613 203.36 36.656 203.232C36.2507 203.093 35.84 203.024 35.424 203.024C34.912 203.024 34.5013 203.136 34.192 203.36C33.8827 203.584 33.728 203.888 33.728 204.272C33.728 204.592 33.824 204.837 34.016 205.008C34.2187 205.179 34.5707 205.307 35.072 205.392L36.384 205.632C37.1733 205.771 37.7493 206.011 38.112 206.352C38.4747 206.693 38.656 207.152 38.656 207.728C38.656 208.187 38.5227 208.603 38.256 208.976C37.9893 209.339 37.6267 209.627 37.168 209.84C36.7093 210.053 36.192 210.16 35.616 210.16ZM44.0165 210.128C43.2912 210.128 42.6352 209.952 42.0485 209.6C41.4725 209.237 41.0138 208.752 40.6725 208.144C40.3312 207.525 40.1605 206.843 40.1605 206.096C40.1605 205.339 40.3312 204.656 40.6725 204.048C41.0138 203.44 41.4725 202.96 42.0485 202.608C42.6352 202.245 43.2912 202.064 44.0165 202.064C44.5925 202.064 45.1418 202.171 45.6645 202.384C46.1872 202.597 46.6405 202.896 47.0245 203.28L46.2725 204.096C45.9952 203.787 45.6592 203.547 45.2645 203.376C44.8698 203.205 44.4698 203.12 44.0645 203.12C43.5525 203.12 43.0885 203.253 42.6725 203.52C42.2672 203.787 41.9418 204.144 41.6965 204.592C41.4512 205.04 41.3285 205.541 41.3285 206.096C41.3285 206.651 41.4512 207.152 41.6965 207.6C41.9418 208.048 42.2672 208.405 42.6725 208.672C43.0885 208.939 43.5525 209.072 44.0645 209.072C44.4698 209.072 44.8698 208.987 45.2645 208.816C45.6592 208.635 45.9952 208.395 46.2725 208.096L47.0245 208.912C46.6405 209.296 46.1872 209.595 45.6645 209.808C45.1418 210.021 44.5925 210.128 44.0165 210.128ZM51.0691 210.144C50.5145 210.144 50.0238 210.043 49.5971 209.84C49.1705 209.637 48.8345 209.36 48.5891 209.008C48.3545 208.645 48.2371 208.229 48.2371 207.76C48.2371 207.291 48.3598 206.885 48.6051 206.544C48.8505 206.192 49.1918 205.92 49.6291 205.728C50.0665 205.536 50.5785 205.44 51.1651 205.44C51.6131 205.44 52.0345 205.488 52.4291 205.584C52.8345 205.68 53.2078 205.835 53.5491 206.048V204.976C53.5491 204.336 53.3785 203.856 53.0371 203.536C52.6958 203.205 52.1945 203.04 51.5331 203.04C51.1705 203.04 50.7971 203.093 50.4131 203.2C50.0398 203.307 49.6238 203.477 49.1651 203.712L48.7331 202.816C49.7785 202.315 50.7598 202.064 51.6771 202.064C52.6478 202.064 53.3945 202.304 53.9171 202.784C54.4398 203.253 54.7011 203.931 54.7011 204.816V210H53.5491V209.088C53.2078 209.44 52.8291 209.707 52.4131 209.888C51.9971 210.059 51.5491 210.144 51.0691 210.144ZM49.3571 207.728C49.3571 208.187 49.5331 208.555 49.8851 208.832C50.2478 209.109 50.7225 209.248 51.3091 209.248C51.7465 209.248 52.1465 209.173 52.5091 209.024C52.8825 208.875 53.2291 208.651 53.5491 208.352V206.848C53.2185 206.656 52.8771 206.517 52.5251 206.432C52.1731 206.336 51.7785 206.288 51.3411 206.288C50.7438 206.288 50.2638 206.421 49.9011 206.688C49.5385 206.944 49.3571 207.291 49.3571 207.728ZM57.075 210V198.448L58.243 198.208V210H57.075ZM63.0535 210.144C62.4988 210.144 62.0082 210.043 61.5815 209.84C61.1548 209.637 60.8188 209.36 60.5735 209.008C60.3388 208.645 60.2215 208.229 60.2215 207.76C60.2215 207.291 60.3442 206.885 60.5895 206.544C60.8348 206.192 61.1762 205.92 61.6135 205.728C62.0508 205.536 62.5628 205.44 63.1495 205.44C63.5975 205.44 64.0188 205.488 64.4135 205.584C64.8188 205.68 65.1922 205.835 65.5335 206.048V204.976C65.5335 204.336 65.3628 203.856 65.0215 203.536C64.6802 203.205 64.1788 203.04 63.5175 203.04C63.1548 203.04 62.7815 203.093 62.3975 203.2C62.0242 203.307 61.6082 203.477 61.1495 203.712L60.7175 202.816C61.7628 202.315 62.7442 202.064 63.6615 202.064C64.6322 202.064 65.3788 202.304 65.9015 202.784C66.4242 203.253 66.6855 203.931 66.6855 204.816V210H65.5335V209.088C65.1922 209.44 64.8135 209.707 64.3975 209.888C63.9815 210.059 63.5335 210.144 63.0535 210.144ZM61.3415 207.728C61.3415 208.187 61.5175 208.555 61.8695 208.832C62.2322 209.109 62.7068 209.248 63.2935 209.248C63.7308 209.248 64.1308 209.173 64.4935 209.024C64.8668 208.875 65.2135 208.651 65.5335 208.352V206.848C65.2028 206.656 64.8615 206.517 64.5095 206.432C64.1575 206.336 63.7628 206.288 63.3255 206.288C62.7282 206.288 62.2482 206.421 61.8855 206.688C61.5228 206.944 61.3415 207.291 61.3415 207.728ZM69.0594 210V198.56L70.2274 198.32V203.264C70.526 202.891 70.8887 202.603 71.3154 202.4C71.742 202.197 72.2167 202.096 72.7394 202.096C73.422 202.096 74.03 202.277 74.5634 202.64C75.1074 202.992 75.5394 203.472 75.8594 204.08C76.1794 204.677 76.3394 205.349 76.3394 206.096C76.3394 206.843 76.174 207.52 75.8434 208.128C75.5234 208.736 75.086 209.221 74.5314 209.584C73.9874 209.936 73.3687 210.112 72.6754 210.112C72.1847 210.112 71.726 210.016 71.2994 209.824C70.8834 209.621 70.5207 209.339 70.2114 208.976V210H69.0594ZM72.4514 209.104C72.974 209.104 73.438 208.976 73.8434 208.72C74.2594 208.453 74.5847 208.096 74.8194 207.648C75.0647 207.189 75.1874 206.677 75.1874 206.112C75.1874 205.536 75.0647 205.024 74.8194 204.576C74.5847 204.128 74.2594 203.776 73.8434 203.52C73.438 203.253 72.974 203.12 72.4514 203.12C71.9927 203.12 71.566 203.216 71.1714 203.408C70.7874 203.589 70.4727 203.851 70.2274 204.192V208.016C70.4834 208.357 70.8034 208.624 71.1874 208.816C71.582 209.008 72.0034 209.104 72.4514 209.104ZM78.3875 210V198.448L79.5555 198.208V210H78.3875ZM85.47 210.16C84.7447 210.16 84.0887 209.984 83.502 209.632C82.9153 209.269 82.4513 208.784 82.11 208.176C81.7687 207.557 81.598 206.864 81.598 206.096C81.598 205.328 81.758 204.64 82.078 204.032C82.4087 203.424 82.8513 202.944 83.406 202.592C83.9607 202.24 84.5793 202.064 85.262 202.064C85.9553 202.064 86.5687 202.24 87.102 202.592C87.646 202.933 88.0727 203.403 88.382 204C88.702 204.587 88.862 205.253 88.862 206V206.352H82.734C82.7767 206.885 82.9207 207.365 83.166 207.792C83.422 208.208 83.7527 208.539 84.158 208.784C84.574 209.019 85.0273 209.136 85.518 209.136C85.9233 209.136 86.3127 209.067 86.686 208.928C87.07 208.779 87.3953 208.581 87.662 208.336L88.398 209.12C87.95 209.472 87.486 209.733 87.006 209.904C86.526 210.075 86.014 210.16 85.47 210.16ZM82.766 205.52H87.71C87.6567 205.051 87.5127 204.635 87.278 204.272C87.054 203.899 86.766 203.605 86.414 203.392C86.0727 203.179 85.6887 203.072 85.262 203.072C84.8353 203.072 84.446 203.179 84.094 203.392C83.742 203.595 83.4487 203.883 83.214 204.256C82.99 204.619 82.8407 205.04 82.766 205.52ZM94.5906 210V202.192H95.7586V203.792C95.9613 203.248 96.2493 202.827 96.6226 202.528C97.0066 202.219 97.444 202.064 97.9346 202.064C98.0733 202.064 98.2013 202.075 98.3186 202.096C98.436 202.107 98.5533 202.133 98.6706 202.176V203.232C98.5426 203.189 98.404 203.157 98.2546 203.136C98.116 203.104 97.9826 203.088 97.8546 203.088C97.3746 203.088 96.9533 203.227 96.5906 203.504C96.2386 203.781 95.9613 204.171 95.7586 204.672V210H94.5906ZM103.251 210.16C102.526 210.16 101.87 209.984 101.283 209.632C100.697 209.269 100.233 208.784 99.8913 208.176C99.5499 207.557 99.3793 206.864 99.3793 206.096C99.3793 205.328 99.5393 204.64 99.8593 204.032C100.19 203.424 100.633 202.944 101.187 202.592C101.742 202.24 102.361 202.064 103.043 202.064C103.737 202.064 104.35 202.24 104.883 202.592C105.427 202.933 105.854 203.403 106.163 204C106.483 204.587 106.643 205.253 106.643 206V206.352H100.515C100.558 206.885 100.702 207.365 100.947 207.792C101.203 208.208 101.534 208.539 101.939 208.784C102.355 209.019 102.809 209.136 103.299 209.136C103.705 209.136 104.094 209.067 104.467 208.928C104.851 208.779 105.177 208.581 105.443 208.336L106.179 209.12C105.731 209.472 105.267 209.733 104.787 209.904C104.307 210.075 103.795 210.16 103.251 210.16ZM100.547 205.52H105.491C105.438 205.051 105.294 204.635 105.059 204.272C104.835 203.899 104.547 203.605 104.195 203.392C103.854 203.179 103.47 203.072 103.043 203.072C102.617 203.072 102.227 203.179 101.875 203.392C101.523 203.595 101.23 203.883 100.995 204.256C100.771 204.619 100.622 205.04 100.547 205.52ZM111.132 210.16C110.492 210.16 109.9 210.064 109.356 209.872C108.812 209.669 108.348 209.381 107.964 209.008L108.588 208.24C109.057 208.581 109.489 208.832 109.884 208.992C110.278 209.141 110.684 209.216 111.1 209.216C111.665 209.216 112.134 209.083 112.508 208.816C112.881 208.549 113.068 208.208 113.068 207.792C113.068 207.472 112.956 207.221 112.732 207.04C112.518 206.859 112.161 206.72 111.66 206.624L110.38 206.4C109.622 206.261 109.062 206.027 108.7 205.696C108.348 205.365 108.172 204.917 108.172 204.352C108.172 203.904 108.289 203.509 108.524 203.168C108.769 202.827 109.105 202.56 109.532 202.368C109.958 202.165 110.444 202.064 110.988 202.064C111.521 202.064 112.028 202.144 112.508 202.304C112.988 202.453 113.473 202.699 113.964 203.04L113.388 203.856C112.982 203.568 112.577 203.36 112.172 203.232C111.766 203.093 111.356 203.024 110.94 203.024C110.428 203.024 110.017 203.136 109.708 203.36C109.398 203.584 109.244 203.888 109.244 204.272C109.244 204.592 109.34 204.837 109.532 205.008C109.734 205.179 110.086 205.307 110.588 205.392L111.9 205.632C112.689 205.771 113.265 206.011 113.628 206.352C113.99 206.693 114.172 207.152 114.172 207.728C114.172 208.187 114.038 208.603 113.772 208.976C113.505 209.339 113.142 209.627 112.684 209.84C112.225 210.053 111.708 210.16 111.132 210.16ZM119.484 210.128C118.759 210.128 118.108 209.952 117.532 209.6C116.956 209.248 116.503 208.768 116.172 208.16C115.841 207.552 115.676 206.864 115.676 206.096C115.676 205.328 115.841 204.64 116.172 204.032C116.503 203.424 116.956 202.944 117.532 202.592C118.108 202.24 118.759 202.064 119.484 202.064C120.199 202.064 120.839 202.24 121.404 202.592C121.98 202.944 122.433 203.424 122.764 204.032C123.095 204.64 123.26 205.328 123.26 206.096C123.26 206.864 123.095 207.552 122.764 208.16C122.433 208.768 121.98 209.248 121.404 209.6C120.839 209.952 120.199 210.128 119.484 210.128ZM119.468 209.104C119.98 209.104 120.433 208.976 120.828 208.72C121.223 208.453 121.532 208.091 121.756 207.632C121.991 207.173 122.108 206.661 122.108 206.096C122.108 205.52 121.991 205.008 121.756 204.56C121.532 204.101 121.223 203.744 120.828 203.488C120.433 203.221 119.98 203.088 119.468 203.088C118.956 203.088 118.503 203.221 118.108 203.488C117.713 203.744 117.399 204.101 117.164 204.56C116.94 205.008 116.828 205.52 116.828 206.096C116.828 206.661 116.94 207.173 117.164 207.632C117.399 208.091 117.713 208.453 118.108 208.72C118.503 208.976 118.956 209.104 119.468 209.104ZM128.093 210.128C127.539 210.128 127.048 210.005 126.621 209.76C126.195 209.515 125.859 209.173 125.613 208.736C125.379 208.299 125.261 207.797 125.261 207.232V202.192H126.445V206.896C126.445 207.589 126.632 208.139 127.005 208.544C127.379 208.949 127.885 209.152 128.525 209.152C128.963 209.152 129.352 209.051 129.693 208.848C130.045 208.645 130.339 208.352 130.573 207.968V202.192H131.741V210H130.573V208.736C130.275 209.195 129.917 209.541 129.501 209.776C129.096 210.011 128.627 210.128 128.093 210.128ZM134.138 210V202.192H135.306V203.792C135.508 203.248 135.796 202.827 136.17 202.528C136.554 202.219 136.991 202.064 137.482 202.064C137.62 202.064 137.748 202.075 137.866 202.096C137.983 202.107 138.1 202.133 138.218 202.176V203.232C138.09 203.189 137.951 203.157 137.802 203.136C137.663 203.104 137.53 203.088 137.402 203.088C136.922 203.088 136.5 203.227 136.138 203.504C135.786 203.781 135.508 204.171 135.306 204.672V210H134.138ZM142.782 210.128C142.057 210.128 141.401 209.952 140.814 209.6C140.238 209.237 139.779 208.752 139.438 208.144C139.097 207.525 138.926 206.843 138.926 206.096C138.926 205.339 139.097 204.656 139.438 204.048C139.779 203.44 140.238 202.96 140.814 202.608C141.401 202.245 142.057 202.064 142.782 202.064C143.358 202.064 143.907 202.171 144.43 202.384C144.953 202.597 145.406 202.896 145.79 203.28L145.038 204.096C144.761 203.787 144.425 203.547 144.03 203.376C143.635 203.205 143.235 203.12 142.83 203.12C142.318 203.12 141.854 203.253 141.438 203.52C141.033 203.787 140.707 204.144 140.462 204.592C140.217 205.04 140.094 205.541 140.094 206.096C140.094 206.651 140.217 207.152 140.462 207.6C140.707 208.048 141.033 208.405 141.438 208.672C141.854 208.939 142.318 209.072 142.83 209.072C143.235 209.072 143.635 208.987 144.03 208.816C144.425 208.635 144.761 208.395 145.038 208.096L145.79 208.912C145.406 209.296 144.953 209.595 144.43 209.808C143.907 210.021 143.358 210.128 142.782 210.128ZM150.704 210.16C149.979 210.16 149.323 209.984 148.736 209.632C148.15 209.269 147.686 208.784 147.344 208.176C147.003 207.557 146.832 206.864 146.832 206.096C146.832 205.328 146.992 204.64 147.312 204.032C147.643 203.424 148.086 202.944 148.64 202.592C149.195 202.24 149.814 202.064 150.496 202.064C151.19 202.064 151.803 202.24 152.336 202.592C152.88 202.933 153.307 203.403 153.616 204C153.936 204.587 154.096 205.253 154.096 206V206.352H147.968C148.011 206.885 148.155 207.365 148.4 207.792C148.656 208.208 148.987 208.539 149.392 208.784C149.808 209.019 150.262 209.136 150.752 209.136C151.158 209.136 151.547 209.067 151.92 208.928C152.304 208.779 152.63 208.581 152.896 208.336L153.632 209.12C153.184 209.472 152.72 209.733 152.24 209.904C151.76 210.075 151.248 210.16 150.704 210.16ZM148 205.52H152.944C152.891 205.051 152.747 204.635 152.512 204.272C152.288 203.899 152 203.605 151.648 203.392C151.307 203.179 150.923 203.072 150.496 203.072C150.07 203.072 149.68 203.179 149.328 203.392C148.976 203.595 148.683 203.883 148.448 204.256C148.224 204.619 148.075 205.04 148 205.52ZM158.585 210.16C157.945 210.16 157.353 210.064 156.809 209.872C156.265 209.669 155.801 209.381 155.417 209.008L156.041 208.24C156.51 208.581 156.942 208.832 157.337 208.992C157.731 209.141 158.137 209.216 158.553 209.216C159.118 209.216 159.587 209.083 159.961 208.816C160.334 208.549 160.521 208.208 160.521 207.792C160.521 207.472 160.409 207.221 160.185 207.04C159.971 206.859 159.614 206.72 159.113 206.624L157.833 206.4C157.075 206.261 156.515 206.027 156.153 205.696C155.801 205.365 155.625 204.917 155.625 204.352C155.625 203.904 155.742 203.509 155.977 203.168C156.222 202.827 156.558 202.56 156.985 202.368C157.411 202.165 157.897 202.064 158.441 202.064C158.974 202.064 159.481 202.144 159.961 202.304C160.441 202.453 160.926 202.699 161.417 203.04L160.841 203.856C160.435 203.568 160.03 203.36 159.625 203.232C159.219 203.093 158.809 203.024 158.393 203.024C157.881 203.024 157.47 203.136 157.161 203.36C156.851 203.584 156.697 203.888 156.697 204.272C156.697 204.592 156.793 204.837 156.985 205.008C157.187 205.179 157.539 205.307 158.041 205.392L159.353 205.632C160.142 205.771 160.718 206.011 161.081 206.352C161.443 206.693 161.625 207.152 161.625 207.728C161.625 208.187 161.491 208.603 161.225 208.976C160.958 209.339 160.595 209.627 160.137 209.84C159.678 210.053 159.161 210.16 158.585 210.16ZM169.554 210.144C168.999 210.144 168.508 210.043 168.082 209.84C167.655 209.637 167.319 209.36 167.074 209.008C166.839 208.645 166.722 208.229 166.722 207.76C166.722 207.291 166.844 206.885 167.09 206.544C167.335 206.192 167.676 205.92 168.114 205.728C168.551 205.536 169.063 205.44 169.65 205.44C170.098 205.44 170.519 205.488 170.914 205.584C171.319 205.68 171.692 205.835 172.034 206.048V204.976C172.034 204.336 171.863 203.856 171.522 203.536C171.18 203.205 170.679 203.04 170.018 203.04C169.655 203.04 169.282 203.093 168.898 203.2C168.524 203.307 168.108 203.477 167.65 203.712L167.218 202.816C168.263 202.315 169.244 202.064 170.161 202.064C171.132 202.064 171.879 202.304 172.402 202.784C172.924 203.253 173.186 203.931 173.186 204.816V210H172.034V209.088C171.692 209.44 171.314 209.707 170.898 209.888C170.482 210.059 170.034 210.144 169.554 210.144ZM167.842 207.728C167.842 208.187 168.018 208.555 168.37 208.832C168.732 209.109 169.207 209.248 169.794 209.248C170.231 209.248 170.631 209.173 170.994 209.024C171.367 208.875 171.714 208.651 172.034 208.352V206.848C171.703 206.656 171.362 206.517 171.01 206.432C170.658 206.336 170.263 206.288 169.826 206.288C169.228 206.288 168.748 206.421 168.386 206.688C168.023 206.944 167.842 207.291 167.842 207.728ZM179.063 210.128C178.338 210.128 177.682 209.952 177.095 209.6C176.519 209.237 176.061 208.752 175.719 208.144C175.378 207.525 175.207 206.843 175.207 206.096C175.207 205.339 175.378 204.656 175.719 204.048C176.061 203.44 176.519 202.96 177.095 202.608C177.682 202.245 178.338 202.064 179.063 202.064C179.639 202.064 180.189 202.171 180.711 202.384C181.234 202.597 181.687 202.896 182.071 203.28L181.319 204.096C181.042 203.787 180.706 203.547 180.311 203.376C179.917 203.205 179.517 203.12 179.111 203.12C178.599 203.12 178.135 203.253 177.719 203.52C177.314 203.787 176.989 204.144 176.743 204.592C176.498 205.04 176.375 205.541 176.375 206.096C176.375 206.651 176.498 207.152 176.743 207.6C176.989 208.048 177.314 208.405 177.719 208.672C178.135 208.939 178.599 209.072 179.111 209.072C179.517 209.072 179.917 208.987 180.311 208.816C180.706 208.635 181.042 208.395 181.319 208.096L182.071 208.912C181.687 209.296 181.234 209.595 180.711 209.808C180.189 210.021 179.639 210.128 179.063 210.128ZM183.7 210V202.192H184.868V203.792C185.071 203.248 185.359 202.827 185.732 202.528C186.116 202.219 186.553 202.064 187.044 202.064C187.183 202.064 187.311 202.075 187.428 202.096C187.545 202.107 187.663 202.133 187.78 202.176V203.232C187.652 203.189 187.513 203.157 187.364 203.136C187.225 203.104 187.092 203.088 186.964 203.088C186.484 203.088 186.063 203.227 185.7 203.504C185.348 203.781 185.071 204.171 184.868 204.672V210H183.7ZM192.297 210.128C191.571 210.128 190.921 209.952 190.345 209.6C189.769 209.248 189.315 208.768 188.985 208.16C188.654 207.552 188.489 206.864 188.489 206.096C188.489 205.328 188.654 204.64 188.985 204.032C189.315 203.424 189.769 202.944 190.345 202.592C190.921 202.24 191.571 202.064 192.297 202.064C193.011 202.064 193.651 202.24 194.217 202.592C194.793 202.944 195.246 203.424 195.577 204.032C195.907 204.64 196.073 205.328 196.073 206.096C196.073 206.864 195.907 207.552 195.577 208.16C195.246 208.768 194.793 209.248 194.217 209.6C193.651 209.952 193.011 210.128 192.297 210.128ZM192.281 209.104C192.793 209.104 193.246 208.976 193.641 208.72C194.035 208.453 194.345 208.091 194.569 207.632C194.803 207.173 194.921 206.661 194.921 206.096C194.921 205.52 194.803 205.008 194.569 204.56C194.345 204.101 194.035 203.744 193.641 203.488C193.246 203.221 192.793 203.088 192.281 203.088C191.769 203.088 191.315 203.221 190.921 203.488C190.526 203.744 190.211 204.101 189.977 204.56C189.753 205.008 189.641 205.52 189.641 206.096C189.641 206.661 189.753 207.173 189.977 207.632C190.211 208.091 190.526 208.453 190.921 208.72C191.315 208.976 191.769 209.104 192.281 209.104ZM200.538 210.16C199.898 210.16 199.306 210.064 198.762 209.872C198.218 209.669 197.754 209.381 197.37 209.008L197.994 208.24C198.463 208.581 198.895 208.832 199.29 208.992C199.685 209.141 200.09 209.216 200.506 209.216C201.071 209.216 201.541 209.083 201.914 208.816C202.287 208.549 202.474 208.208 202.474 207.792C202.474 207.472 202.362 207.221 202.138 207.04C201.925 206.859 201.567 206.72 201.066 206.624L199.786 206.4C199.029 206.261 198.469 206.027 198.106 205.696C197.754 205.365 197.578 204.917 197.578 204.352C197.578 203.904 197.695 203.509 197.93 203.168C198.175 202.827 198.511 202.56 198.938 202.368C199.365 202.165 199.85 202.064 200.394 202.064C200.927 202.064 201.434 202.144 201.914 202.304C202.394 202.453 202.879 202.699 203.37 203.04L202.794 203.856C202.389 203.568 201.983 203.36 201.578 203.232C201.173 203.093 200.762 203.024 200.346 203.024C199.834 203.024 199.423 203.136 199.114 203.36C198.805 203.584 198.65 203.888 198.65 204.272C198.65 204.592 198.746 204.837 198.938 205.008C199.141 205.179 199.493 205.307 199.994 205.392L201.306 205.632C202.095 205.771 202.671 206.011 203.034 206.352C203.397 206.693 203.578 207.152 203.578 207.728C203.578 208.187 203.445 208.603 203.178 208.976C202.911 209.339 202.549 209.627 202.09 209.84C201.631 210.053 201.114 210.16 200.538 210.16ZM207.772 210.16C207.132 210.16 206.54 210.064 205.996 209.872C205.452 209.669 204.988 209.381 204.604 209.008L205.228 208.24C205.698 208.581 206.13 208.832 206.524 208.992C206.919 209.141 207.324 209.216 207.74 209.216C208.306 209.216 208.775 209.083 209.148 208.816C209.522 208.549 209.708 208.208 209.708 207.792C209.708 207.472 209.596 207.221 209.372 207.04C209.159 206.859 208.802 206.72 208.3 206.624L207.02 206.4C206.263 206.261 205.703 206.027 205.34 205.696C204.988 205.365 204.812 204.917 204.812 204.352C204.812 203.904 204.93 203.509 205.164 203.168C205.41 202.827 205.746 202.56 206.172 202.368C206.599 202.165 207.084 202.064 207.628 202.064C208.162 202.064 208.668 202.144 209.148 202.304C209.628 202.453 210.114 202.699 210.604 203.04L210.028 203.856C209.623 203.568 209.218 203.36 208.812 203.232C208.407 203.093 207.996 203.024 207.58 203.024C207.068 203.024 206.658 203.136 206.348 203.36C206.039 203.584 205.884 203.888 205.884 204.272C205.884 204.592 205.98 204.837 206.172 205.008C206.375 205.179 206.727 205.307 207.228 205.392L208.54 205.632C209.33 205.771 209.906 206.011 210.268 206.352C210.631 206.693 210.812 207.152 210.812 207.728C210.812 208.187 210.679 208.603 210.412 208.976C210.146 209.339 209.783 209.627 209.324 209.84C208.866 210.053 208.348 210.16 207.772 210.16ZM218.741 210.144C218.186 210.144 217.696 210.043 217.269 209.84C216.842 209.637 216.506 209.36 216.261 209.008C216.026 208.645 215.909 208.229 215.909 207.76C215.909 207.291 216.032 206.885 216.277 206.544C216.522 206.192 216.864 205.92 217.301 205.728C217.738 205.536 218.25 205.44 218.837 205.44C219.285 205.44 219.706 205.488 220.101 205.584C220.506 205.68 220.88 205.835 221.221 206.048V204.976C221.221 204.336 221.05 203.856 220.709 203.536C220.368 203.205 219.866 203.04 219.205 203.04C218.842 203.04 218.469 203.093 218.085 203.2C217.712 203.307 217.296 203.477 216.837 203.712L216.405 202.816C217.45 202.315 218.432 202.064 219.349 202.064C220.32 202.064 221.066 202.304 221.589 202.784C222.112 203.253 222.373 203.931 222.373 204.816V210H221.221V209.088C220.88 209.44 220.501 209.707 220.085 209.888C219.669 210.059 219.221 210.144 218.741 210.144ZM217.029 207.728C217.029 208.187 217.205 208.555 217.557 208.832C217.92 209.109 218.394 209.248 218.981 209.248C219.418 209.248 219.818 209.173 220.181 209.024C220.554 208.875 220.901 208.651 221.221 208.352V206.848C220.89 206.656 220.549 206.517 220.197 206.432C219.845 206.336 219.45 206.288 219.013 206.288C218.416 206.288 217.936 206.421 217.573 206.688C217.21 206.944 217.029 207.291 217.029 207.728ZM228.481 210V202.192H229.649V203.456C229.948 202.987 230.305 202.64 230.721 202.416C231.137 202.181 231.607 202.064 232.129 202.064C232.695 202.064 233.185 202.187 233.601 202.432C234.028 202.667 234.359 203.003 234.593 203.44C234.839 203.867 234.961 204.368 234.961 204.944V210H233.793V205.28C233.793 204.587 233.601 204.043 233.217 203.648C232.844 203.243 232.337 203.04 231.697 203.04C231.271 203.04 230.881 203.141 230.529 203.344C230.177 203.547 229.884 203.845 229.649 204.24V210H228.481ZM240.829 210.16C240.104 210.16 239.448 209.984 238.861 209.632C238.275 209.269 237.811 208.784 237.469 208.176C237.128 207.557 236.957 206.864 236.957 206.096C236.957 205.328 237.117 204.64 237.437 204.032C237.768 203.424 238.211 202.944 238.765 202.592C239.32 202.24 239.939 202.064 240.621 202.064C241.315 202.064 241.928 202.24 242.461 202.592C243.005 202.933 243.432 203.403 243.741 204C244.061 204.587 244.221 205.253 244.221 206V206.352H238.093C238.136 206.885 238.28 207.365 238.525 207.792C238.781 208.208 239.112 208.539 239.517 208.784C239.933 209.019 240.387 209.136 240.877 209.136C241.283 209.136 241.672 209.067 242.045 208.928C242.429 208.779 242.755 208.581 243.021 208.336L243.757 209.12C243.309 209.472 242.845 209.733 242.365 209.904C241.885 210.075 241.373 210.16 240.829 210.16ZM238.125 205.52H243.069C243.016 205.051 242.872 204.635 242.637 204.272C242.413 203.899 242.125 203.605 241.773 203.392C241.432 203.179 241.048 203.072 240.621 203.072C240.195 203.072 239.805 203.179 239.453 203.392C239.101 203.595 238.808 203.883 238.573 204.256C238.349 204.619 238.2 205.04 238.125 205.52ZM248.957 210.16C248.285 210.16 247.773 210 247.421 209.68C247.08 209.349 246.909 208.875 246.909 208.256V203.152H245.293V202.192H246.909V200.048L248.077 199.776V202.192H250.317V203.152H248.077V207.952C248.077 208.368 248.163 208.667 248.333 208.848C248.515 209.029 248.808 209.12 249.213 209.12C249.416 209.12 249.597 209.104 249.757 209.072C249.917 209.04 250.104 208.987 250.317 208.912V209.952C250.104 210.027 249.88 210.08 249.645 210.112C249.411 210.144 249.181 210.16 248.957 210.16ZM253.576 210L251.432 202.192H252.568L254.2 208.432L256.072 202.192H257.112L258.984 208.432L260.6 202.192H261.704L259.576 210H258.44L256.584 203.696L254.728 210H253.576ZM266.656 210.128C265.931 210.128 265.28 209.952 264.704 209.6C264.128 209.248 263.675 208.768 263.344 208.16C263.013 207.552 262.848 206.864 262.848 206.096C262.848 205.328 263.013 204.64 263.344 204.032C263.675 203.424 264.128 202.944 264.704 202.592C265.28 202.24 265.931 202.064 266.656 202.064C267.371 202.064 268.011 202.24 268.576 202.592C269.152 202.944 269.605 203.424 269.936 204.032C270.267 204.64 270.432 205.328 270.432 206.096C270.432 206.864 270.267 207.552 269.936 208.16C269.605 208.768 269.152 209.248 268.576 209.6C268.011 209.952 267.371 210.128 266.656 210.128ZM266.64 209.104C267.152 209.104 267.605 208.976 268 208.72C268.395 208.453 268.704 208.091 268.928 207.632C269.163 207.173 269.28 206.661 269.28 206.096C269.28 205.52 269.163 205.008 268.928 204.56C268.704 204.101 268.395 203.744 268 203.488C267.605 203.221 267.152 203.088 266.64 203.088C266.128 203.088 265.675 203.221 265.28 203.488C264.885 203.744 264.571 204.101 264.336 204.56C264.112 205.008 264 205.52 264 206.096C264 206.661 264.112 207.173 264.336 207.632C264.571 208.091 264.885 208.453 265.28 208.72C265.675 208.976 266.128 209.104 266.64 209.104ZM272.481 210V202.192H273.649V203.792C273.852 203.248 274.14 202.827 274.513 202.528C274.897 202.219 275.335 202.064 275.825 202.064C275.964 202.064 276.092 202.075 276.209 202.096C276.327 202.107 276.444 202.133 276.561 202.176V203.232C276.433 203.189 276.295 203.157 276.145 203.136C276.007 203.104 275.873 203.088 275.745 203.088C275.265 203.088 274.844 203.227 274.481 203.504C274.129 203.781 273.852 204.171 273.649 204.672V210H272.481ZM278.106 210V198.448L279.274 198.208V205.696L282.986 202.192H284.394L280.426 205.904L284.57 210H283.034L279.274 206.272V210H278.106ZM286.734 210.128C286.5 210.128 286.297 210.043 286.126 209.872C285.966 209.701 285.886 209.499 285.886 209.264C285.886 209.019 285.966 208.816 286.126 208.656C286.297 208.485 286.5 208.4 286.734 208.4C286.969 208.4 287.166 208.485 287.326 208.656C287.497 208.816 287.582 209.019 287.582 209.264C287.582 209.499 287.497 209.701 287.326 209.872C287.166 210.043 286.969 210.128 286.734 210.128Z" fill="#151515"/>
</svg>
