<svg xmlns="http://www.w3.org/2000/svg" width="687" height="272" viewBox="0 0 687 272">
  <g id="Image" transform="translate(-517 -18236)">
    <g id="Progress_steps_Vertical_Step_2" data-name="Progress steps / Vertical / Step 2" transform="translate(517 18364)">
      <rect id="Rectangle" width="2" height="112" transform="translate(15 16)" fill="#d2d2d2"/>
      <rect id="Rectangle-2" data-name="Rectangle" width="2" height="56" transform="translate(15 16)" fill="#6a6e73"/>
      <g id="Text" transform="translate(40 116)">
        <rect id="Rectangle-3" data-name="Rectangle" width="34" height="24" fill="none"/>
        <text id="Final" transform="translate(0 18)" fill="#151515" font-size="16" font-family="RedHatText-Regular, Red Hat Text"><tspan x="0" y="0">Final</tspan></text>
      </g>
      <g id="Ellipse" transform="translate(8 120)" fill="#fff" stroke="#d2d2d2" stroke-width="2">
        <circle cx="8" cy="8" r="8" stroke="none"/>
        <circle cx="8" cy="8" r="7" fill="none"/>
      </g>
      <g id="Text-2" data-name="Text" transform="translate(40 60)">
        <rect id="Rectangle-4" data-name="Rectangle" width="55" height="24" fill="none"/>
        <text id="Current" transform="translate(0 18)" fill="#151515" font-size="16" font-family="RedHatText-Regular, Red Hat Text"><tspan x="0" y="0">Current</tspan></text>
      </g>
      <g id="Current-2" data-name="Current" transform="translate(0 56)">
        <circle id="Ellipse-2" data-name="Ellipse" cx="16" cy="16" r="16" fill="#e00" opacity="0.15"/>
        <circle id="Ellipse-3" data-name="Ellipse" cx="10" cy="10" r="10" transform="translate(6 6)" fill="#e00"/>
      </g>
      <g id="Text-3" data-name="Text" transform="translate(40 4)">
        <rect id="Rectangle-5" data-name="Rectangle" width="60" height="24" fill="none"/>
        <text id="Finished" transform="translate(0 18)" fill="#151515" font-size="16" font-family="RedHatText-Regular, Red Hat Text"><tspan x="0" y="0">Finished</tspan></text>
      </g>
      <g id="Finished-2" data-name="Finished" transform="translate(6 6)">
        <circle id="Ellipse-4" data-name="Ellipse" cx="10" cy="10" r="10" fill="#fff"/>
        <path id="Icon" d="M20,10A9.938,9.938,0,0,1,10,20,9.938,9.938,0,0,1,0,10,9.938,9.938,0,0,1,10,0,9.938,9.938,0,0,1,20,10ZM8.857,15.286l7.429-7.429c.286-.286.286-.714,0-.857l-.857-.857c-.286-.286-.714-.286-.857,0l-6.143,6L5.571,9.286C5.286,9,4.857,9,4.714,9.286l-1,.857c-.286.286-.286.714,0,.857l4.143,4.143A.612.612,0,0,0,8.857,15.286Z" fill="#3e8635"/>
      </g>
      <g id="Spacing">
        <g id="Rectangle-6" data-name="Rectangle" transform="translate(40 116)" fill="none" stroke="#f0f" stroke-width="1" opacity="0.25">
          <rect width="34" height="24" stroke="none"/>
          <rect x="0.5" y="0.5" width="33" height="23" fill="none"/>
        </g>
        <g id="_8px" data-name="8px" transform="translate(32 124)">
          <rect id="Rectangle-7" data-name="Rectangle" width="8" height="8" fill="#9bd917"/>
        </g>
        <g id="Rectangle-8" data-name="Rectangle" transform="translate(0 112)" fill="none" stroke="#f0f" stroke-width="1" opacity="0.25">
          <rect width="32" height="32" stroke="none"/>
          <rect x="0.5" y="0.5" width="31" height="31" fill="none"/>
        </g>
        <g id="_32px" data-name="32px" transform="translate(40 84)">
          <rect id="Rectangle-9" data-name="Rectangle" width="8" height="32" fill="#1893d2"/>
        </g>
        <g id="_24px" data-name="24px" transform="translate(4 88)">
          <rect id="Rectangle-10" data-name="Rectangle" width="24" height="24" fill="#1b8793"/>
        </g>
        <g id="Rectangle-11" data-name="Rectangle" transform="translate(40 60)" fill="none" stroke="#f0f" stroke-width="1" opacity="0.25">
          <rect width="55" height="24" stroke="none"/>
          <rect x="0.5" y="0.5" width="54" height="23" fill="none"/>
        </g>
        <g id="_8px-2" data-name="8px" transform="translate(32 68)">
          <rect id="Rectangle-12" data-name="Rectangle" width="8" height="8" fill="#9bd917"/>
        </g>
        <g id="Rectangle-13" data-name="Rectangle" transform="translate(0 56)" fill="none" stroke="#f0f" stroke-width="1" opacity="0.25">
          <rect width="32" height="32" stroke="none"/>
          <rect x="0.5" y="0.5" width="31" height="31" fill="none"/>
        </g>
        <g id="_32px-2" data-name="32px" transform="translate(40 28)">
          <rect id="Rectangle-14" data-name="Rectangle" width="8" height="32" fill="#1893d2"/>
        </g>
        <g id="_24px-2" data-name="24px" transform="translate(4 32)">
          <rect id="Rectangle-15" data-name="Rectangle" width="24" height="24" fill="#1b8793"/>
        </g>
        <g id="Rectangle-16" data-name="Rectangle" transform="translate(40 4)" fill="none" stroke="#f0f" stroke-width="1" opacity="0.25">
          <rect width="60" height="24" stroke="none"/>
          <rect x="0.5" y="0.5" width="59" height="23" fill="none"/>
        </g>
        <g id="_8px-3" data-name="8px" transform="translate(32 12)">
          <rect id="Rectangle-17" data-name="Rectangle" width="8" height="8" fill="#9bd917"/>
        </g>
        <g id="Rectangle-18" data-name="Rectangle" fill="none" stroke="#f0f" stroke-width="1" opacity="0.25">
          <rect width="32" height="32" stroke="none"/>
          <rect x="0.5" y="0.5" width="31" height="31" fill="none"/>
        </g>
      </g>
    </g>
    <g id="Progress_steps_Horizontal_Step_2" data-name="Progress steps / Horizontal / Step 2" transform="translate(517 18236)">
      <g id="Text-4" data-name="Text" transform="translate(653 40)">
        <rect id="Rectangle-19" data-name="Rectangle" width="34" height="24" fill="none"/>
        <text id="Final-2" data-name="Final" transform="translate(0 18)" fill="#151515" font-size="16" font-family="RedHatText-Regular, Red Hat Text"><tspan x="0" y="0">Final</tspan></text>
      </g>
      <g id="Text-5" data-name="Text" transform="translate(323 40)">
        <rect id="Rectangle-20" data-name="Rectangle" width="55" height="24" fill="none"/>
        <text id="Current-3" data-name="Current" transform="translate(0 18)" fill="#151515" font-size="16" font-family="RedHatText-Regular, Red Hat Text"><tspan x="0" y="0">Current</tspan></text>
      </g>
      <g id="Text-6" data-name="Text" transform="translate(0 40)">
        <rect id="Rectangle-21" data-name="Rectangle" width="60" height="24" fill="none"/>
        <text id="Finished-3" data-name="Finished" transform="translate(0 18)" fill="#151515" font-size="16" font-family="RedHatText-Regular, Red Hat Text"><tspan x="0" y="0">Finished</tspan></text>
      </g>
      <rect id="Rectangle-22" data-name="Rectangle" width="640" height="2" transform="translate(30 15)" fill="#d2d2d2"/>
      <rect id="Rectangle-23" data-name="Rectangle" width="320" height="2" transform="translate(30 15)" fill="#6a6e73"/>
      <g id="Ellipse-5" data-name="Ellipse" transform="translate(662 8)" fill="#fff" stroke="#d2d2d2" stroke-width="2">
        <circle cx="8" cy="8" r="8" stroke="none"/>
        <circle cx="8" cy="8" r="7" fill="none"/>
      </g>
      <g id="Current-4" data-name="Current" transform="translate(334)">
        <circle id="Ellipse-6" data-name="Ellipse" cx="16" cy="16" r="16" fill="#e00" opacity="0.15"/>
        <circle id="Ellipse-7" data-name="Ellipse" cx="10" cy="10" r="10" transform="translate(6 6)" fill="#e00"/>
      </g>
      <g id="Finished-4" data-name="Finished" transform="translate(20 6)">
        <circle id="Ellipse-8" data-name="Ellipse" cx="10" cy="10" r="10" fill="#fff"/>
        <path id="Icon-2" data-name="Icon" d="M20,10A9.938,9.938,0,0,1,10,20,9.938,9.938,0,0,1,0,10,9.938,9.938,0,0,1,10,0,9.938,9.938,0,0,1,20,10ZM8.857,15.286l7.429-7.429c.286-.286.286-.714,0-.857l-.857-.857c-.286-.286-.714-.286-.857,0l-6.143,6L5.571,9.286C5.286,9,4.857,9,4.714,9.286l-1,.857c-.286.286-.286.714,0,.857l4.143,4.143A.612.612,0,0,0,8.857,15.286Z" fill="#3e8635"/>
      </g>
      <g id="Spacing-2" data-name="Spacing" transform="translate(10)">
        <g id="Rectangle-24" data-name="Rectangle" transform="translate(643 40)" fill="none" stroke="#f0f" stroke-width="1" opacity="0.25">
          <rect width="34" height="24" stroke="none"/>
          <rect x="0.5" y="0.5" width="33" height="23" fill="none"/>
        </g>
        <g id="_8px-4" data-name="8px" transform="translate(656 32)">
          <rect id="Rectangle-25" data-name="Rectangle" width="8" height="8" fill="#9bd917"/>
        </g>
        <g id="Rectangle-26" data-name="Rectangle" transform="translate(644)" fill="none" stroke="#f0f" stroke-width="1" opacity="0.25">
          <rect width="32" height="32" stroke="none"/>
          <rect x="0.5" y="0.5" width="31" height="31" fill="none"/>
        </g>
        <g id="Rectangle-27" data-name="Rectangle" transform="translate(313 40)" fill="none" stroke="#f0f" stroke-width="1" opacity="0.25">
          <rect width="55" height="24" stroke="none"/>
          <rect x="0.5" y="0.5" width="54" height="23" fill="none"/>
        </g>
        <g id="_8px-5" data-name="8px" transform="translate(336 32)">
          <rect id="Rectangle-28" data-name="Rectangle" width="8" height="8" fill="#9bd917"/>
        </g>
        <g id="Rectangle-29" data-name="Rectangle" transform="translate(324)" fill="none" stroke="#f0f" stroke-width="1" opacity="0.25">
          <rect width="32" height="32" stroke="none"/>
          <rect x="0.5" y="0.5" width="31" height="31" fill="none"/>
        </g>
        <g id="Rectangle-30" data-name="Rectangle" transform="translate(-10 40)" fill="none" stroke="#f0f" stroke-width="1" opacity="0.25">
          <rect width="60" height="24" stroke="none"/>
          <rect x="0.5" y="0.5" width="59" height="23" fill="none"/>
        </g>
        <g id="_8px-6" data-name="8px" transform="translate(16 32)">
          <rect id="Rectangle-31" data-name="Rectangle" width="8" height="8" fill="#9bd917"/>
        </g>
        <g id="Rectangle-32" data-name="Rectangle" transform="translate(4)" fill="none" stroke="#f0f" stroke-width="1" opacity="0.25">
          <rect width="32" height="32" stroke="none"/>
          <rect x="0.5" y="0.5" width="31" height="31" fill="none"/>
        </g>
      </g>
    </g>
  </g>
</svg>
