<svg id="Progress_steps_Horizontal_Step_2_Error" data-name="Progress steps / Horizontal / Step 2 / Error" xmlns="http://www.w3.org/2000/svg" width="687" height="64" viewBox="0 0 687 64">
  <g id="Text" transform="translate(632 40)">
    <rect id="Rectangle" width="55" height="24" fill="none"/>
    <text id="Current" transform="translate(0 18)" fill="#151515" font-size="16" font-family="RedHatText-Regular, Red Hat Text"><tspan x="0" y="0">Current</tspan></text>
  </g>
  <g id="Text-2" data-name="Text" transform="translate(332 40)">
    <rect id="Rectangle-2" data-name="Rectangle" width="36" height="24" fill="none"/>
    <text id="Error" transform="translate(0 18)" fill="#c9190b" font-size="16" font-family="RedHatText-Regular, Red Hat Text"><tspan x="0" y="0">Error</tspan></text>
  </g>
  <g id="Text-3" data-name="Text" transform="translate(0 40)">
    <rect id="Rectangle-3" data-name="Rectangle" width="60" height="24" fill="none"/>
    <text id="Finished" transform="translate(0 18)" fill="#151515" font-size="16" font-family="RedHatText-Regular, Red Hat Text"><tspan x="0" y="0">Finished</tspan></text>
  </g>
  <rect id="Rectangle-4" data-name="Rectangle" width="629" height="2" transform="translate(30 15)" fill="#6a6e73"/>
  <g id="Current-2" data-name="Current" transform="translate(643)">
    <circle id="Ellipse" cx="16" cy="16" r="16" fill="#e00" opacity="0.15"/>
    <circle id="Ellipse-2" data-name="Ellipse" cx="10" cy="10" r="10" transform="translate(6 6)" fill="#e00"/>
  </g>
  <g id="Error-2" data-name="Error" transform="translate(340 6)">
    <circle id="Ellipse-3" data-name="Ellipse" cx="10" cy="10" r="10" fill="#fff"/>
    <path id="Icon" d="M20,10A9.938,9.938,0,0,1,10,20,9.938,9.938,0,0,1,0,10,9.938,9.938,0,0,1,10,0,9.938,9.938,0,0,1,20,10ZM10,12a1.857,1.857,0,1,0,1.857,1.857A1.891,1.891,0,0,0,10,12ZM8.286,5.286l.286,5.571A.456.456,0,0,0,9,11.286h2a.379.379,0,0,0,.429-.429l.286-5.429c0-.286-.143-.571-.429-.571H8.714A.456.456,0,0,0,8.286,5.286Z" fill="#c9190b"/>
  </g>
  <g id="Finished-2" data-name="Finished" transform="translate(20 6)">
    <circle id="Ellipse-4" data-name="Ellipse" cx="10" cy="10" r="10" fill="#fff"/>
    <path id="Icon-2" data-name="Icon" d="M20,10A9.938,9.938,0,0,1,10,20,9.938,9.938,0,0,1,0,10,9.938,9.938,0,0,1,10,0,9.938,9.938,0,0,1,20,10ZM8.857,15.286l7.429-7.429c.286-.286.286-.714,0-.857l-.857-.857c-.286-.286-.714-.286-.857,0l-6.143,6L5.571,9.286C5.286,9,4.857,9,4.714,9.286l-1,.857c-.286.286-.286.714,0,.857l4.143,4.143A.612.612,0,0,0,8.857,15.286Z" fill="#3e8635"/>
  </g>
</svg>
