<svg xmlns="http://www.w3.org/2000/svg" width="687" height="345" viewBox="0 0 687 345">
  <g id="Image" transform="translate(-517 -7353)">
    <g id="Direction" transform="translate(-8 573)">
      <circle id="Ellipse" cx="3.5" cy="3.5" r="3.5" transform="translate(642 7054)" fill="#f0f"/>
      <rect id="Rectangle" width="1" height="109" transform="translate(645 6948)" fill="#f0f"/>
      <path id="Polygon" d="M4.5,0,9,6H0Z" transform="translate(641 6942)" fill="#f0f"/>
    </g>
    <g id="Progress_steps_Vertical_Step_2" data-name="Progress steps / Vertical / Step 2" transform="translate(517 7506)">
      <rect id="Rectangle-2" data-name="Rectangle" width="2" height="168" transform="translate(15 12)" fill="#d2d2d2"/>
      <rect id="Rectangle-3" data-name="Rectangle" width="2" height="112" transform="translate(15 12)" fill="#6a6e73"/>
      <g id="Text" transform="translate(40 168)">
        <rect id="Rectangle-4" data-name="Rectangle" width="34" height="24" fill="none"/>
        <text id="Final" transform="translate(0 18)" fill="#151515" font-size="16" font-family="RedHatText-Regular, Red Hat Text"><tspan x="0" y="0">Final</tspan></text>
      </g>
      <g id="Ellipse-2" data-name="Ellipse" transform="translate(8 172)" fill="#fff" stroke="#d2d2d2" stroke-width="2">
        <circle cx="8" cy="8" r="8" stroke="none"/>
        <circle cx="8" cy="8" r="7" fill="none"/>
      </g>
      <g id="Text-2" data-name="Text" transform="translate(40 112)">
        <rect id="Rectangle-5" data-name="Rectangle" width="55" height="24" fill="none"/>
        <text id="Current" transform="translate(0 18)" fill="#151515" font-size="16" font-family="RedHatText-Regular, Red Hat Text"><tspan x="0" y="0">Current</tspan></text>
      </g>
      <g id="Current-2" data-name="Current" transform="translate(0 108)">
        <circle id="Ellipse-3" data-name="Ellipse" cx="16" cy="16" r="16" fill="#e00" opacity="0.15"/>
        <circle id="Ellipse-4" data-name="Ellipse" cx="10" cy="10" r="10" transform="translate(6 6)" fill="#e00"/>
      </g>
      <g id="Text-3" data-name="Text" transform="translate(40 56)">
        <rect id="Rectangle-6" data-name="Rectangle" width="60" height="24" fill="none"/>
        <text id="Finished" transform="translate(0 18)" fill="#151515" font-size="16" font-family="RedHatText-Regular, Red Hat Text"><tspan x="0" y="0">Finished</tspan></text>
      </g>
      <g id="Finished-2" data-name="Finished" transform="translate(6 58)">
        <circle id="Ellipse-5" data-name="Ellipse" cx="10" cy="10" r="10" fill="#fff"/>
        <path id="Icon" d="M20,10A9.938,9.938,0,0,1,10,20,9.938,9.938,0,0,1,0,10,9.938,9.938,0,0,1,10,0,9.938,9.938,0,0,1,20,10ZM8.857,15.286l7.429-7.429c.286-.286.286-.714,0-.857l-.857-.857c-.286-.286-.714-.286-.857,0l-6.143,6L5.571,9.286C5.286,9,4.857,9,4.714,9.286l-1,.857c-.286.286-.286.714,0,.857l4.143,4.143A.612.612,0,0,0,8.857,15.286Z" fill="#3e8635"/>
      </g>
      <g id="Text-4" data-name="Text" transform="translate(40)">
        <rect id="Rectangle-7" data-name="Rectangle" width="60" height="24" fill="none"/>
        <text id="Finished-3" data-name="Finished" transform="translate(0 18)" fill="#151515" font-size="16" font-family="RedHatText-Regular, Red Hat Text"><tspan x="0" y="0">Finished</tspan></text>
      </g>
      <g id="Finished-4" data-name="Finished" transform="translate(6 2)">
        <circle id="Ellipse-6" data-name="Ellipse" cx="10" cy="10" r="10" fill="#fff"/>
        <path id="Icon-2" data-name="Icon" d="M20,10A9.938,9.938,0,0,1,10,20,9.938,9.938,0,0,1,0,10,9.938,9.938,0,0,1,10,0,9.938,9.938,0,0,1,20,10ZM8.857,15.286l7.429-7.429c.286-.286.286-.714,0-.857l-.857-.857c-.286-.286-.714-.286-.857,0l-6.143,6L5.571,9.286C5.286,9,4.857,9,4.714,9.286l-1,.857c-.286.286-.286.714,0,.857l4.143,4.143A.612.612,0,0,0,8.857,15.286Z" fill="#3e8635"/>
      </g>
    </g>
    <g id="Direction-2" data-name="Direction" transform="translate(0 575)">
      <circle id="Ellipse-7" data-name="Ellipse" cx="3.5" cy="3.5" r="3.5" transform="translate(970 6859)" fill="#f0f"/>
      <rect id="Rectangle-8" data-name="Rectangle" width="423" height="1" transform="translate(550 6862)" fill="#f0f"/>
      <path id="Polygon-2" data-name="Polygon" d="M4.5,0,9,6H0Z" transform="translate(544 6867) rotate(-90)" fill="#f0f"/>
    </g>
    <g id="Progress_steps_Horizontal_Step_2" data-name="Progress steps / Horizontal / Step 2" transform="translate(517 7353)">
      <g id="Text-5" data-name="Text" transform="translate(653 40)">
        <rect id="Rectangle-9" data-name="Rectangle" width="34" height="24" fill="none"/>
        <text id="Final-2" data-name="Final" transform="translate(0 18)" fill="#151515" font-size="16" font-family="RedHatText-Regular, Red Hat Text"><tspan x="0" y="0">Final</tspan></text>
      </g>
      <g id="Text-6" data-name="Text" transform="translate(429 40)">
        <rect id="Rectangle-10" data-name="Rectangle" width="55" height="24" fill="none"/>
        <text id="Current-3" data-name="Current" transform="translate(0 18)" fill="#151515" font-size="16" font-family="RedHatText-Regular, Red Hat Text"><tspan x="0" y="0">Current</tspan></text>
      </g>
      <g id="Text-7" data-name="Text" transform="translate(213 40)">
        <rect id="Rectangle-11" data-name="Rectangle" width="60" height="24" fill="none"/>
        <text id="Finished-5" data-name="Finished" transform="translate(0 18)" fill="#151515" font-size="16" font-family="RedHatText-Regular, Red Hat Text"><tspan x="0" y="0">Finished</tspan></text>
      </g>
      <g id="Text-8" data-name="Text" transform="translate(0 40)">
        <rect id="Rectangle-12" data-name="Rectangle" width="60" height="24" fill="none"/>
        <text id="Finished-6" data-name="Finished" transform="translate(0 18)" fill="#151515" font-size="16" font-family="RedHatText-Regular, Red Hat Text"><tspan x="0" y="0">Finished</tspan></text>
      </g>
      <rect id="Rectangle-13" data-name="Rectangle" width="640" height="2" transform="translate(30 15)" fill="#d2d2d2"/>
      <rect id="Rectangle-14" data-name="Rectangle" width="426" height="2" transform="translate(30 15)" fill="#6a6e73"/>
      <g id="Ellipse-8" data-name="Ellipse" transform="translate(662 8)" fill="#fff" stroke="#d2d2d2" stroke-width="2">
        <circle cx="8" cy="8" r="8" stroke="none"/>
        <circle cx="8" cy="8" r="7" fill="none"/>
      </g>
      <g id="Current-4" data-name="Current" transform="translate(440)">
        <circle id="Ellipse-9" data-name="Ellipse" cx="16" cy="16" r="16" fill="#e00" opacity="0.15"/>
        <circle id="Ellipse-10" data-name="Ellipse" cx="10" cy="10" r="10" transform="translate(6 6)" fill="#e00"/>
      </g>
      <g id="Finished-7" data-name="Finished" transform="translate(233 6)">
        <circle id="Ellipse-11" data-name="Ellipse" cx="10" cy="10" r="10" fill="#fff"/>
        <path id="Icon-3" data-name="Icon" d="M20,10A9.938,9.938,0,0,1,10,20,9.938,9.938,0,0,1,0,10,9.938,9.938,0,0,1,10,0,9.938,9.938,0,0,1,20,10ZM8.857,15.286l7.429-7.429c.286-.286.286-.714,0-.857l-.857-.857c-.286-.286-.714-.286-.857,0l-6.143,6L5.571,9.286C5.286,9,4.857,9,4.714,9.286l-1,.857c-.286.286-.286.714,0,.857l4.143,4.143A.612.612,0,0,0,8.857,15.286Z" fill="#3e8635"/>
      </g>
      <g id="Finished-8" data-name="Finished" transform="translate(20 6)">
        <circle id="Ellipse-12" data-name="Ellipse" cx="10" cy="10" r="10" fill="#fff"/>
        <path id="Icon-4" data-name="Icon" d="M20,10A9.938,9.938,0,0,1,10,20,9.938,9.938,0,0,1,0,10,9.938,9.938,0,0,1,10,0,9.938,9.938,0,0,1,20,10ZM8.857,15.286l7.429-7.429c.286-.286.286-.714,0-.857l-.857-.857c-.286-.286-.714-.286-.857,0l-6.143,6L5.571,9.286C5.286,9,4.857,9,4.714,9.286l-1,.857c-.286.286-.286.714,0,.857l4.143,4.143A.612.612,0,0,0,8.857,15.286Z" fill="#3e8635"/>
      </g>
    </g>
  </g>
</svg>
