<svg xmlns="http://www.w3.org/2000/svg" width="716" height="375" viewBox="0 0 716 375">
  <g id="Image" transform="translate(-501 -8782)">
    <g id="Direction" transform="translate(83 2109)">
      <path id="Polygon" d="M4.5,0,9,6H0Z" transform="translate(555 6979) rotate(180)" fill="#f0f"/>
      <rect id="Rectangle" width="1" height="108" transform="translate(550 6865)" fill="#f0f"/>
      <circle id="Ellipse" cx="3.5" cy="3.5" r="3.5" transform="translate(547 6861)" fill="#f0f"/>
    </g>
    <g id="Vertical" transform="translate(6 -31)">
      <g id="Progress_steps_Vertical_Step_3" data-name="Progress steps / Vertical / Step 3" transform="translate(499 8992)">
        <rect id="Rectangle-2" data-name="Rectangle" width="2" height="168" transform="translate(15 12)" fill="#6a6e73"/>
        <g id="Text" transform="translate(40 168)">
          <rect id="Rectangle-3" data-name="Rectangle" width="55" height="24" fill="none"/>
          <text id="Current" transform="translate(0 18)" fill="#151515" font-size="16" font-family="RedHatText-Regular, Red Hat Text"><tspan x="0" y="0">Current</tspan></text>
        </g>
        <g id="Text-2" data-name="Text" transform="translate(40 112)">
          <rect id="Rectangle-4" data-name="Rectangle" width="60" height="24" fill="none"/>
          <text id="Finished" transform="translate(0 18)" fill="#151515" font-size="16" font-family="RedHatText-Regular, Red Hat Text"><tspan x="0" y="0">Finished</tspan></text>
        </g>
        <g id="Current-2" data-name="Current" transform="translate(0 164)">
          <circle id="Ellipse-2" data-name="Ellipse" cx="16" cy="16" r="16" fill="#e00" opacity="0.15"/>
          <circle id="Ellipse-3" data-name="Ellipse" cx="10" cy="10" r="10" transform="translate(6 6)" fill="#e00"/>
        </g>
        <g id="Finished-2" data-name="Finished" transform="translate(6 114)">
          <circle id="Ellipse-4" data-name="Ellipse" cx="10" cy="10" r="10" fill="#fff"/>
          <path id="Icon" d="M20,10A9.938,9.938,0,0,1,10,20,9.938,9.938,0,0,1,0,10,9.938,9.938,0,0,1,10,0,9.938,9.938,0,0,1,20,10ZM8.857,15.286l7.429-7.429c.286-.286.286-.714,0-.857l-.857-.857c-.286-.286-.714-.286-.857,0l-6.143,6L5.571,9.286C5.286,9,4.857,9,4.714,9.286l-1,.857c-.286.286-.286.714,0,.857l4.143,4.143A.612.612,0,0,0,8.857,15.286Z" fill="#3e8635"/>
        </g>
        <g id="Text-3" data-name="Text" transform="translate(40 56)">
          <rect id="Rectangle-5" data-name="Rectangle" width="60" height="24" fill="none"/>
          <text id="Finished-3" data-name="Finished" transform="translate(0 18)" fill="#151515" font-size="16" font-family="RedHatText-Regular, Red Hat Text"><tspan x="0" y="0">Finished</tspan></text>
        </g>
        <g id="Finished-4" data-name="Finished" transform="translate(6 58)">
          <circle id="Ellipse-5" data-name="Ellipse" cx="10" cy="10" r="10" fill="#fff"/>
          <path id="Icon-2" data-name="Icon" d="M20,10A9.938,9.938,0,0,1,10,20,9.938,9.938,0,0,1,0,10,9.938,9.938,0,0,1,10,0,9.938,9.938,0,0,1,20,10ZM8.857,15.286l7.429-7.429c.286-.286.286-.714,0-.857l-.857-.857c-.286-.286-.714-.286-.857,0l-6.143,6L5.571,9.286C5.286,9,4.857,9,4.714,9.286l-1,.857c-.286.286-.286.714,0,.857l4.143,4.143A.612.612,0,0,0,8.857,15.286Z" fill="#3e8635"/>
        </g>
        <g id="Text-4" data-name="Text" transform="translate(40)">
          <rect id="Rectangle-6" data-name="Rectangle" width="60" height="24" fill="none"/>
          <text id="Finished-5" data-name="Finished" transform="translate(0 18)" fill="#151515" font-size="16" font-family="RedHatText-Regular, Red Hat Text"><tspan x="0" y="0">Finished</tspan></text>
        </g>
        <g id="Finished-6" data-name="Finished" transform="translate(6 2)">
          <circle id="Ellipse-6" data-name="Ellipse" cx="10" cy="10" r="10" fill="#fff"/>
          <path id="Icon-3" data-name="Icon" d="M20,10A9.938,9.938,0,0,1,10,20,9.938,9.938,0,0,1,0,10,9.938,9.938,0,0,1,10,0,9.938,9.938,0,0,1,20,10ZM8.857,15.286l7.429-7.429c.286-.286.286-.714,0-.857l-.857-.857c-.286-.286-.714-.286-.857,0l-6.143,6L5.571,9.286C5.286,9,4.857,9,4.714,9.286l-1,.857c-.286.286-.286.714,0,.857l4.143,4.143A.612.612,0,0,0,8.857,15.286Z" fill="#3e8635"/>
        </g>
      </g>
      <g id="Focus_indicator_Outer" data-name="Focus indicator / Outer" transform="translate(497 9096)">
        <g id="Rectangle-7" data-name="Rectangle" fill="none" stroke="#2261c5" stroke-width="2">
          <rect width="110" height="40" rx="3" stroke="none"/>
          <rect x="-1" y="-1" width="112" height="42" rx="4" fill="none"/>
        </g>
      </g>
      <g id="Focus_indicator_Outer-2" data-name="Focus indicator / Outer" transform="translate(497 9040)" opacity="0.6">
        <g id="Rectangle-8" data-name="Rectangle" fill="none" stroke="#2261c5" stroke-width="2">
          <rect width="110" height="40" rx="3" stroke="none"/>
          <rect x="-1" y="-1" width="112" height="42" rx="4" fill="none"/>
        </g>
      </g>
      <g id="Focus_indicator_Outer-3" data-name="Focus indicator / Outer" transform="translate(497 8984)" opacity="0.3">
        <g id="Rectangle-9" data-name="Rectangle" fill="none" stroke="#2261c5" stroke-width="2">
          <rect width="110" height="40" rx="3" stroke="none"/>
          <rect x="-1" y="-1" width="112" height="42" rx="4" fill="none"/>
        </g>
      </g>
    </g>
    <g id="Direction-2" data-name="Direction" transform="translate(-1 2022)">
      <path id="Polygon-2" data-name="Polygon" d="M4.5,0,9,6H0Z" transform="translate(979 6858) rotate(90)" fill="#f0f"/>
      <rect id="Rectangle-10" data-name="Rectangle" width="422" height="1" transform="translate(551 6862)" fill="#f0f"/>
      <circle id="Ellipse-7" data-name="Ellipse" cx="3.5" cy="3.5" r="3.5" transform="translate(547 6859)" fill="#f0f"/>
    </g>
    <g id="Horizontal">
      <g id="Progress_steps_Horizontal_Step_3" data-name="Progress steps / Horizontal / Step 3" transform="translate(519 8792)">
        <g id="Text-5" data-name="Text" transform="translate(643 40)">
          <rect id="Rectangle-11" data-name="Rectangle" width="55" height="24" fill="none"/>
          <text id="Current-3" data-name="Current" transform="translate(0 18)" fill="#151515" font-size="16" font-family="RedHatText-Regular, Red Hat Text"><tspan x="0" y="0">Current</tspan></text>
        </g>
        <g id="Text-6" data-name="Text" transform="translate(426 40)">
          <rect id="Rectangle-12" data-name="Rectangle" width="60" height="24" fill="none"/>
          <text id="Finished-7" data-name="Finished" transform="translate(0 18)" fill="#004080" font-size="16" font-family="RedHatText-Regular, Red Hat Text" text-decoration="underline"><tspan x="0" y="0">Finished</tspan></text>
        </g>
        <g id="Text-7" data-name="Text" transform="translate(213 40)">
          <rect id="Rectangle-13" data-name="Rectangle" width="60" height="24" fill="none"/>
          <text id="Finished-8" data-name="Finished" transform="translate(0 18)" fill="#004080" font-size="16" font-family="RedHatText-Regular, Red Hat Text" text-decoration="underline"><tspan x="0" y="0">Finished</tspan></text>
        </g>
        <g id="Text-8" data-name="Text" transform="translate(0 40)">
          <rect id="Rectangle-14" data-name="Rectangle" width="60" height="24" fill="none"/>
          <text id="Finished-9" data-name="Finished" transform="translate(0 18)" fill="#004080" font-size="16" font-family="RedHatText-Regular, Red Hat Text" text-decoration="underline"><tspan x="0" y="0">Finished</tspan></text>
        </g>
        <rect id="Rectangle-15" data-name="Rectangle" width="640" height="2" transform="translate(30 15)" fill="#6a6e73"/>
        <g id="Current-4" data-name="Current" transform="translate(654)">
          <circle id="Ellipse-8" data-name="Ellipse" cx="16" cy="16" r="16" fill="#e00" opacity="0.15"/>
          <circle id="Ellipse-9" data-name="Ellipse" cx="10" cy="10" r="10" transform="translate(6 6)" fill="#e00"/>
        </g>
        <g id="Finished-10" data-name="Finished" transform="translate(446 6)">
          <circle id="Ellipse-10" data-name="Ellipse" cx="10" cy="10" r="10" fill="#fff"/>
          <path id="Icon-4" data-name="Icon" d="M20,10A9.938,9.938,0,0,1,10,20,9.938,9.938,0,0,1,0,10,9.938,9.938,0,0,1,10,0,9.938,9.938,0,0,1,20,10ZM8.857,15.286l7.429-7.429c.286-.286.286-.714,0-.857l-.857-.857c-.286-.286-.714-.286-.857,0l-6.143,6L5.571,9.286C5.286,9,4.857,9,4.714,9.286l-1,.857c-.286.286-.286.714,0,.857l4.143,4.143A.612.612,0,0,0,8.857,15.286Z" fill="#3e8635"/>
        </g>
        <g id="Finished-11" data-name="Finished" transform="translate(233 6)">
          <circle id="Ellipse-11" data-name="Ellipse" cx="10" cy="10" r="10" fill="#fff"/>
          <path id="Icon-5" data-name="Icon" d="M20,10A9.938,9.938,0,0,1,10,20,9.938,9.938,0,0,1,0,10,9.938,9.938,0,0,1,10,0,9.938,9.938,0,0,1,20,10ZM8.857,15.286l7.429-7.429c.286-.286.286-.714,0-.857l-.857-.857c-.286-.286-.714-.286-.857,0l-6.143,6L5.571,9.286C5.286,9,4.857,9,4.714,9.286l-1,.857c-.286.286-.286.714,0,.857l4.143,4.143A.612.612,0,0,0,8.857,15.286Z" fill="#3e8635"/>
        </g>
        <g id="Finished-12" data-name="Finished" transform="translate(20 6)">
          <circle id="Ellipse-12" data-name="Ellipse" cx="10" cy="10" r="10" fill="#fff"/>
          <path id="Icon-6" data-name="Icon" d="M20,10A9.938,9.938,0,0,1,10,20,9.938,9.938,0,0,1,0,10,9.938,9.938,0,0,1,10,0,9.938,9.938,0,0,1,20,10ZM8.857,15.286l7.429-7.429c.286-.286.286-.714,0-.857l-.857-.857c-.286-.286-.714-.286-.857,0l-6.143,6L5.571,9.286C5.286,9,4.857,9,4.714,9.286l-1,.857c-.286.286-.286.714,0,.857l4.143,4.143A.612.612,0,0,0,8.857,15.286Z" fill="#3e8635"/>
        </g>
      </g>
      <g id="Focus_indicator_Outer-4" data-name="Focus indicator / Outer" transform="translate(929 8784)">
        <g id="Rectangle-16" data-name="Rectangle" fill="none" stroke="#2261c5" stroke-width="2">
          <rect width="92" height="80" rx="3" stroke="none"/>
          <rect x="-1" y="-1" width="94" height="82" rx="4" fill="none"/>
        </g>
      </g>
      <g id="Focus_indicator_Outer-5" data-name="Focus indicator / Outer" transform="translate(716 8784)" opacity="0.6">
        <g id="Rectangle-17" data-name="Rectangle" fill="none" stroke="#2261c5" stroke-width="2">
          <rect width="92" height="80" rx="3" stroke="none"/>
          <rect x="-1" y="-1" width="94" height="82" rx="4" fill="none"/>
        </g>
      </g>
      <g id="Focus_indicator_Outer-6" data-name="Focus indicator / Outer" transform="translate(503 8784)" opacity="0.3">
        <g id="Rectangle-18" data-name="Rectangle" fill="none" stroke="#2261c5" stroke-width="2">
          <rect width="92" height="80" rx="3" stroke="none"/>
          <rect x="-1" y="-1" width="94" height="82" rx="4" fill="none"/>
        </g>
      </g>
    </g>
  </g>
</svg>
