<svg xml:space="preserve" id="disclosure-responsive-1_svg__Layer_1" x="0" y="0" version="1.1" viewBox="0 0 1012 184" xmlns="http://www.w3.org/2000/svg">
  <style>
    .disclosure-responsive-1_svg__st2{enable-background:new}.disclosure-responsive-1_svg__st3{fill:#151515}
  </style>
  <path fill="#fff" d="M6 3h1000v172H6z"/>
  <path fill="none" stroke="#d2d2d2" d="M6.5 3.5h999v171H6.5z"/>
  <g class="disclosure-responsive-1_svg__st2">
    <path d="M30.4 110.8h9v1.1h-3.9V122h-1.2v-10.1h-3.9v-1.1zm10.7-.2 1.2-.2v5.1c.6-.9 1.4-1.4 2.5-1.4 1.7 0 2.8 1.2 2.8 2.9v5.1h-1.2v-4.7c0-1.4-.8-2.2-2.1-2.2-.9 0-1.6.4-2 1.2v5.8h-1.2v-11.6zm12.3 11.5c-2.2 0-3.9-1.8-3.9-4s1.6-4 3.7-4c2 0 3.6 1.7 3.6 3.9v.4h-6.1c.1 1.6 1.3 2.8 2.8 2.8.8 0 1.6-.3 2.1-.8l.7.8c-.8.6-1.8.9-2.9.9zm-2.7-4.6h4.9c-.2-1.4-1.2-2.4-2.4-2.4-1.3 0-2.3 1-2.5 2.4zm12.1-6.7h4.6c2.1 0 3.6 1.3 3.6 3.2 0 1.5-.9 2.6-2.3 3l2.4 4.9h-1.4l-2.3-4.8H64v4.8h-1.2v-11.1zm1.2 1.1v4.3h3.3c1.5 0 2.4-.8 2.4-2.1s-1-2.2-2.4-2.2H64zm12 10.2c-2.2 0-3.9-1.8-3.9-4s1.6-4 3.7-4c2 0 3.6 1.7 3.6 3.9v.4h-6.1c.1 1.6 1.3 2.8 2.8 2.8.8 0 1.6-.3 2.1-.8l.7.8c-.9.6-1.8.9-2.9.9zm-2.7-4.6h4.9c-.2-1.4-1.2-2.4-2.4-2.4-1.3 0-2.3 1-2.5 2.4zm13.9 3.5c-.6.8-1.5 1.2-2.5 1.2-2 0-3.6-1.8-3.6-4 0-2.3 1.6-4 3.7-4 1 0 1.8.4 2.4 1.1v-4.6l1.2-.2V122h-1.2v-1zm-2.2.1c.9 0 1.7-.4 2.2-1v-3.9c-.5-.7-1.3-1.1-2.2-1.1-1.6 0-2.7 1.3-2.7 3-.1 1.7 1.1 3 2.7 3zm9.7-10.3h1.2v5h6.4v-5h1.2V122h-1.2v-5.1h-6.4v5.1h-1.2v-11.2zm10.9 9c0-1.4 1.2-2.3 2.9-2.3.9 0 1.7.2 2.4.6V117c0-1.3-.7-1.9-2-1.9-.7 0-1.5.2-2.4.7l-.4-.9c1.1-.5 2-.8 2.9-.8 1.9 0 3 1 3 2.8v5.2h-1.2v-.9c-.7.7-1.5 1.1-2.5 1.1-1.5-.2-2.7-1.1-2.7-2.5zm3.1 1.4c.9 0 1.6-.3 2.2-.9v-1.5c-.7-.4-1.3-.6-2.2-.6-1.2 0-2 .6-2 1.4 0 1 .8 1.6 2 1.6zm6.4-6.1h-1.6v-1h1.6V112l1.2-.3v2.4h2.2v1h-2.2v4.8c0 .8.3 1.2 1.1 1.2.4 0 .7 0 1.1-.2v1c-.4.1-.9.2-1.4.2-1.3 0-2-.7-2-1.9v-5.1zm9.1-4.3h7.7v1.1h-6.4v3.9h4.4v1.1h-4.4v4h6.5v1.1h-7.7v-11.2zm9.7 3.4h1.2v1.3c.6-.9 1.4-1.4 2.5-1.4 1.7 0 2.8 1.2 2.8 2.9v5.1h-1.2v-4.7c0-1.4-.8-2.2-2.1-2.2-.9 0-1.6.4-2 1.2v5.8h-1.2v-8zm9.5.9h-1.6v-1h1.6V112l1.2-.3v2.4h2.2v1h-2.2v4.8c0 .8.3 1.2 1.1 1.2.4 0 .7 0 1.1-.2v1c-.4.1-.9.2-1.4.2-1.3 0-2-.7-2-1.9v-5.1zm8.4 7c-2.2 0-3.9-1.8-3.9-4s1.6-4 3.7-4c2 0 3.6 1.7 3.6 3.9v.4h-6.1c.1 1.6 1.3 2.8 2.8 2.8.8 0 1.6-.3 2.1-.8l.7.8c-.8.6-1.8.9-2.9.9zm-2.7-4.6h4.9c-.2-1.4-1.2-2.4-2.4-2.4-1.3 0-2.3 1-2.5 2.4zm8.1-3.3h1.2v1.6c.4-1.1 1.2-1.7 2.2-1.7.3 0 .5 0 .7.1v1.1c-.3-.1-.6-.1-.8-.1-1 0-1.7.6-2.1 1.6v5.3h-1.2v-7.9zm5.6 0h1.2v1.1c.6-.8 1.5-1.2 2.5-1.2 2 0 3.6 1.8 3.6 4 0 2.3-1.6 4-3.7 4-1 0-1.8-.4-2.4-1.1v4.3h-1.2v-11.1zm1.2 2v3.8c.5.7 1.3 1.1 2.2 1.1 1.6 0 2.7-1.3 2.7-3s-1.2-3-2.7-3c-.9 0-1.7.4-2.2 1.1zm8.2-2h1.2v1.6c.4-1.1 1.2-1.7 2.2-1.7.3 0 .5 0 .7.1v1.1c-.3-.1-.6-.1-.8-.1-1 0-1.7.6-2.1 1.6v5.3h-1.2v-7.9zm5.3-2.8c0-.4.4-.8.8-.8s.8.4.8.8c0 .5-.4.8-.8.8-.4.1-.8-.3-.8-.8zM179 122h-1.2v-7.8h1.2v7.8zm2.2-1.8c.9.7 1.7 1 2.5 1 1.1 0 2-.6 2-1.4 0-.6-.4-1-1.4-1.2l-1.3-.2c-1.5-.3-2.2-.9-2.2-2 0-1.3 1.2-2.3 2.8-2.3 1.1 0 2 .3 3 1l-.6.8c-.8-.6-1.6-.8-2.4-.8-1 0-1.7.5-1.7 1.2 0 .6.3.9 1.3 1.1l1.3.2c1.6.3 2.3.9 2.3 2.1 0 1.4-1.3 2.4-3 2.4-1.3 0-2.4-.4-3.2-1.2l.6-.7zm11 1.9c-2.2 0-3.9-1.8-3.9-4s1.6-4 3.7-4c2 0 3.6 1.7 3.6 3.9v.4h-6.1c.1 1.6 1.3 2.8 2.8 2.8.8 0 1.6-.3 2.1-.8l.7.8c-.9.6-1.8.9-2.9.9zm-2.7-4.6h4.9c-.2-1.4-1.2-2.4-2.4-2.4-1.3 0-2.3 1-2.5 2.4zm12-6.7h1.2v10.1h6.3v1.1h-7.6v-11.2zm9.3.6c0-.4.4-.8.8-.8s.8.4.8.8c0 .5-.4.8-.8.8-.5.1-.8-.3-.8-.8zm1.4 10.6H211v-7.8h1.2v7.8zm2.4-7.8h1.2v1.3c.6-.9 1.4-1.4 2.5-1.4 1.7 0 2.8 1.2 2.8 2.9v5.1h-1.2v-4.7c0-1.4-.8-2.2-2.1-2.2-.9 0-1.6.4-2 1.2v5.8h-1.2v-8zm9.9 4.7c0 1.4.8 2.3 2.1 2.3.9 0 1.6-.4 2-1.2v-5.8h1.2v7.8h-1.2v-1.3c-.6.9-1.4 1.4-2.5 1.4-1.7 0-2.8-1.2-2.8-2.9v-5h1.2v4.7zm9.7-.9-2.8-3.8h1.4l2.2 3 2.1-3h1.3l-2.8 3.8 3 4h-1.4l-2.3-3.2-2.3 3.2h-1.3l2.9-4zm9.5-3.8h1.2v1.1c.6-.8 1.5-1.2 2.5-1.2 2 0 3.6 1.8 3.6 4 0 2.3-1.6 4-3.7 4-1 0-1.8-.4-2.4-1.1v4.3h-1.2v-11.1zm1.2 2v3.8c.5.7 1.3 1.1 2.2 1.1 1.6 0 2.7-1.3 2.7-3s-1.2-3-2.7-3c-.9 0-1.7.4-2.2 1.1zm8.1-2h1.2v1.6c.4-1.1 1.2-1.7 2.2-1.7.3 0 .5 0 .7.1v1.1c-.3-.1-.6-.1-.8-.1-1 0-1.7.6-2.1 1.6v5.3H253v-7.9zm8.6-.1c2.2 0 3.8 1.7 3.8 4s-1.6 4.1-3.8 4.1c-2.1 0-3.8-1.8-3.8-4.1s1.7-4 3.8-4zm2.7 4c0-1.7-1.1-3-2.7-3s-2.6 1.3-2.6 3 1.1 3 2.6 3 2.7-1.3 2.7-3zm8.9 2.9c-.6.8-1.5 1.2-2.5 1.2-2 0-3.6-1.8-3.6-4 0-2.3 1.6-4 3.7-4 1 0 1.8.4 2.4 1.1v-4.6l1.2-.2V122h-1.2v-1zm-2.2.1c.9 0 1.7-.4 2.2-1v-3.9c-.5-.7-1.3-1.1-2.2-1.1-1.6 0-2.7 1.3-2.7 3s1.2 3 2.7 3zm6.9-2.2c0 1.4.8 2.3 2.1 2.3.9 0 1.6-.4 2-1.2v-5.8h1.2v7.8H282v-1.3c-.6.9-1.4 1.4-2.5 1.4-1.7 0-2.8-1.2-2.8-2.9v-5h1.2v4.7zm13.5 1.3.7.7c-.8.8-1.8 1.3-3 1.3-2.2 0-3.9-1.8-3.9-4 0-2.3 1.7-4 3.9-4 1.2 0 2.2.4 3 1.2l-.8.8c-.6-.6-1.4-1-2.2-1-1.5 0-2.7 1.3-2.7 3s1.2 3 2.8 3c.8-.1 1.6-.4 2.2-1zm3.5-5.1h-1.6v-1h1.6V112l1.2-.3v2.4h2.2v1H296v4.8c0 .8.3 1.2 1.1 1.2.4 0 .7 0 1.1-.2v1c-.4.1-.9.2-1.4.2-1.3 0-2-.7-2-1.9v-5.1zm8.8-.9h1.2v1.1c.6-.8 1.5-1.2 2.5-1.2 2 0 3.6 1.8 3.6 4 0 2.3-1.6 4-3.7 4-1 0-1.8-.4-2.4-1.1v4.3h-1.2v-11.1zm1.2 2v3.8c.5.7 1.3 1.1 2.2 1.1 1.6 0 2.7-1.3 2.7-3s-1.2-3-2.7-3c-.9 0-1.7.4-2.2 1.1zm7.8 3.6c0-1.4 1.2-2.3 2.9-2.3.9 0 1.7.2 2.4.6V117c0-1.3-.7-1.9-2-1.9-.7 0-1.5.2-2.4.7l-.4-.9c1.1-.5 2-.8 2.9-.8 1.9 0 3 1 3 2.8v5.2H318v-.9c-.7.7-1.5 1.1-2.5 1.1-1.6-.2-2.8-1.1-2.8-2.5zm3.1 1.4c.9 0 1.6-.3 2.2-.9v-1.5c-.7-.4-1.3-.6-2.2-.6-1.2 0-2 .6-2 1.4 0 1 .8 1.6 2 1.6zm5.4-3.1c0-2.2 1.6-4 3.7-4 1 0 1.8.4 2.4 1.1v-1h1.2v8.2c0 1.9-1.2 3-3.3 3-1.1 0-2.1-.3-3-.8l.5-.9c1 .5 1.7.7 2.5.7 1.4 0 2.2-.7 2.2-2v-1.5c-.6.8-1.5 1.2-2.5 1.2-2.2 0-3.7-1.8-3.7-4zm3.9 3c.9 0 1.7-.4 2.2-1.1v-3.9c-.5-.7-1.3-1.1-2.2-1.1-1.6 0-2.7 1.3-2.7 3-.1 1.8 1.1 3.1 2.7 3.1zm9.3 1c-2.2 0-3.9-1.8-3.9-4s1.6-4 3.7-4c2 0 3.6 1.7 3.6 3.9v.4h-6.1c.1 1.6 1.3 2.8 2.8 2.8.8 0 1.6-.3 2.1-.8l.7.8c-.9.6-1.8.9-2.9.9zm-2.7-4.6h4.9c-.2-1.4-1.2-2.4-2.4-2.4-1.3 0-2.3 1-2.5 2.4zm11.8-6.9 1.2-.2v5.1c.6-.9 1.4-1.4 2.5-1.4 1.7 0 2.8 1.2 2.8 2.9v5.1h-1.2v-4.7c0-1.4-.8-2.2-2.1-2.2-.9 0-1.6.4-2 1.2v5.8h-1.2v-11.6zm8.4 9.2c0-1.4 1.2-2.3 2.9-2.3.9 0 1.7.2 2.4.6V117c0-1.3-.7-1.9-2-1.9-.7 0-1.5.2-2.4.7l-.4-.9c1.1-.5 2-.8 2.9-.8 1.9 0 3 1 3 2.8v5.2h-1.2v-.9c-.7.7-1.5 1.1-2.5 1.1-1.5-.2-2.7-1.1-2.7-2.5zm3.1 1.4c.9 0 1.6-.3 2.2-.9v-1.5c-.7-.4-1.3-.6-2.2-.6-1.2 0-2 .6-2 1.4 0 1 .8 1.6 2 1.6zm5.6-1c.9.7 1.7 1 2.5 1 1.1 0 2-.6 2-1.4 0-.6-.4-1-1.4-1.2l-1.3-.2c-1.5-.3-2.2-.9-2.2-2 0-1.3 1.2-2.3 2.8-2.3 1.1 0 2 .3 3 1l-.6.8c-.8-.6-1.6-.8-2.4-.8-1 0-1.7.5-1.7 1.2 0 .6.3.9 1.3 1.1l1.3.2c1.6.3 2.3.9 2.3 2.1 0 1.4-1.3 2.4-3 2.4-1.3 0-2.4-.4-3.2-1.2l.6-.7zm12-5.1H371v-1h1.6V112l1.2-.3v2.4h2.2v1h-2.2v4.8c0 .8.3 1.2 1.1 1.2.4 0 .7 0 1.1-.2v1c-.4.1-.9.2-1.4.2-1.3 0-2-.7-2-1.9v-5.1zm5.1-4.5 1.2-.2v5.1c.6-.9 1.4-1.4 2.5-1.4 1.7 0 2.8 1.2 2.8 2.9v5.1H383v-4.7c0-1.4-.8-2.2-2.1-2.2-.9 0-1.6.4-2 1.2v5.8h-1.2v-11.6zm12.4 11.5c-2.2 0-3.9-1.8-3.9-4s1.6-4 3.7-4c2 0 3.6 1.7 3.6 3.9v.4h-6.1c.1 1.6 1.3 2.8 2.8 2.8.8 0 1.6-.3 2.1-.8l.7.8c-.9.6-1.8.9-2.9.9zm-2.7-4.6h4.9c-.2-1.4-1.2-2.4-2.4-2.4-1.3 0-2.3 1-2.5 2.4zm13 4.5h-1.2v-11.4l1.2-.2V122zm2-2.2c0-1.4 1.2-2.3 2.9-2.3.9 0 1.7.2 2.4.6V117c0-1.3-.7-1.9-2-1.9-.7 0-1.5.2-2.4.7l-.4-.9c1.1-.5 2-.8 2.9-.8 1.9 0 3 1 3 2.8v5.2h-1.2v-.9c-.7.7-1.5 1.1-2.5 1.1-1.6-.2-2.7-1.1-2.7-2.5zm3 1.4c.9 0 1.6-.3 2.2-.9v-1.5c-.7-.4-1.3-.6-2.2-.6-1.2 0-2 .6-2 1.4.1 1 .9 1.6 2 1.6zm6.5-6.1h-1.6v-1h1.6V112l1.2-.3v2.4h2.2v1H413v4.8c0 .8.3 1.2 1.1 1.2.4 0 .7 0 1.1-.2v1c-.4.1-.9.2-1.4.2-1.3 0-2-.7-2-1.9v-5.1zm8.4 7c-2.2 0-3.9-1.8-3.9-4s1.6-4 3.7-4c2 0 3.6 1.7 3.6 3.9v.4h-6.1c.1 1.6 1.3 2.8 2.8 2.8.8 0 1.6-.3 2.1-.8l.7.8c-.8.6-1.8.9-2.9.9zm-2.7-4.6h4.9c-.2-1.4-1.2-2.4-2.4-2.4-1.3 0-2.3 1-2.5 2.4zm8.1 2.7c.9.7 1.7 1 2.5 1 1.1 0 2-.6 2-1.4 0-.6-.4-1-1.4-1.2l-1.3-.2c-1.5-.3-2.2-.9-2.2-2 0-1.3 1.2-2.3 2.8-2.3 1.1 0 2 .3 3 1l-.6.8c-.8-.6-1.6-.8-2.4-.8-1 0-1.7.5-1.7 1.2 0 .6.3.9 1.3 1.1l1.3.2c1.6.3 2.3.9 2.3 2.1 0 1.4-1.3 2.4-3 2.4-1.3 0-2.4-.4-3.2-1.2l.6-.7zm8.1-5.1h-1.6v-1h1.6V112l1.2-.3v2.4h2.2v1H435v4.8c0 .8.3 1.2 1.1 1.2.4 0 .7 0 1.1-.2v1c-.4.1-.9.2-1.4.2-1.3 0-2-.7-2-1.9v-5.1zm14.6 5.9c-.6.8-1.5 1.2-2.5 1.2-2 0-3.6-1.8-3.6-4 0-2.3 1.6-4 3.7-4 1 0 1.8.4 2.4 1.1v-4.6l1.2-.2V122h-1.2v-1zm-2.2.1c.9 0 1.7-.4 2.2-1v-3.9c-.5-.7-1.3-1.1-2.2-1.1-1.6 0-2.7 1.3-2.7 3-.1 1.7 1.1 3 2.7 3zm9.2-7c2.2 0 3.8 1.7 3.8 4s-1.6 4.1-3.8 4.1c-2.1 0-3.8-1.8-3.8-4.1s1.6-4 3.8-4zm2.7 4c0-1.7-1.1-3-2.7-3s-2.6 1.3-2.6 3 1.1 3 2.6 3 2.7-1.3 2.7-3zm4.4 3.9-2.1-7.8h1.1l1.6 6.2 1.9-6.2h1l1.9 6.2 1.6-6.2h1.1l-2.1 7.8h-1.1l-1.9-6.3-1.9 6.3h-1.1zm9.8-7.8h1.2v1.3c.6-.9 1.4-1.4 2.5-1.4 1.7 0 2.8 1.2 2.8 2.9v5.1h-1.2v-4.7c0-1.4-.8-2.2-2.1-2.2-.9 0-1.6.4-2 1.2v5.8h-1.2v-8zm10 7.8h-1.2v-11.4l1.2-.2V122zm5.8-7.9c2.2 0 3.8 1.7 3.8 4s-1.6 4.1-3.8 4.1c-2.1 0-3.8-1.8-3.8-4.1s1.6-4 3.8-4zm2.7 4c0-1.7-1.1-3-2.7-3s-2.6 1.3-2.6 3 1.1 3 2.6 3 2.7-1.3 2.7-3zm2.8 1.7c0-1.4 1.2-2.3 2.9-2.3.9 0 1.7.2 2.4.6V117c0-1.3-.7-1.9-2-1.9-.7 0-1.5.2-2.4.7l-.4-.9c1.1-.5 2-.8 2.9-.8 1.9 0 3 1 3 2.8v5.2h-1.2v-.9c-.7.7-1.5 1.1-2.5 1.1-1.5-.2-2.7-1.1-2.7-2.5zm3.1 1.4c.9 0 1.6-.3 2.2-.9v-1.5c-.7-.4-1.3-.6-2.2-.6-1.2 0-2 .6-2 1.4 0 1 .8 1.6 2 1.6zm11.5-.2c-.6.8-1.5 1.2-2.5 1.2-2 0-3.6-1.8-3.6-4 0-2.3 1.6-4 3.7-4 1 0 1.8.4 2.4 1.1v-4.6l1.2-.2V122h-1.2v-1zm-2.2.1c.9 0 1.7-.4 2.2-1v-3.9c-.5-.7-1.3-1.1-2.2-1.1-1.6 0-2.7 1.3-2.7 3s1.1 3 2.7 3zm5.6-.9c.9.7 1.7 1 2.5 1 1.1 0 2-.6 2-1.4 0-.6-.4-1-1.4-1.2l-1.3-.2c-1.5-.3-2.2-.9-2.2-2 0-1.3 1.2-2.3 2.8-2.3 1.1 0 2 .3 3 1l-.6.8c-.8-.6-1.6-.8-2.4-.8-1 0-1.7.5-1.7 1.2 0 .6.3.9 1.3 1.1l1.3.2c1.6.3 2.3.9 2.3 2.1 0 1.4-1.3 2.4-3 2.4-1.3 0-2.4-.4-3.2-1.2l.6-.7zm8.6.6-1.3 3.7h-.9l1-3.7h1.2zm11.6-.6.7.7c-.8.8-1.8 1.3-3 1.3-2.2 0-3.9-1.8-3.9-4 0-2.3 1.7-4 3.9-4 1.2 0 2.2.4 3 1.2l-.8.8c-.6-.6-1.4-1-2.2-1-1.5 0-2.7 1.3-2.7 3s1.2 3 2.8 3c.9-.1 1.7-.4 2.2-1zm3.5-1.3c0 1.4.8 2.3 2.1 2.3.9 0 1.6-.4 2-1.2v-5.8h1.2v7.8h-1.2v-1.3c-.6.9-1.4 1.4-2.5 1.4-1.7 0-2.8-1.2-2.8-2.9v-5h1.2v4.7zm7.7-4.7h1.2v1.6c.4-1.1 1.2-1.7 2.2-1.7.3 0 .5 0 .7.1v1.1c-.3-.1-.6-.1-.8-.1-1 0-1.7.6-2.1 1.6v5.3H543v-7.9zm4.9 5.6c0-1.4 1.2-2.3 2.9-2.3.9 0 1.7.2 2.4.6V117c0-1.3-.7-1.9-2-1.9-.7 0-1.5.2-2.4.7l-.4-.9c1.1-.5 2-.8 2.9-.8 1.9 0 3 1 3 2.8v5.2h-1.2v-.9c-.7.7-1.5 1.1-2.5 1.1-1.5-.2-2.7-1.1-2.7-2.5zm3.1 1.4c.9 0 1.6-.3 2.2-.9v-1.5c-.7-.4-1.3-.6-2.2-.6-1.2 0-2 .6-2 1.4 0 1 .8 1.6 2 1.6zm6.4-6.1h-1.6v-1h1.6V112l1.2-.3v2.4h2.2v1h-2.2v4.8c0 .8.3 1.2 1.1 1.2.4 0 .7 0 1.1-.2v1c-.4.1-.9.2-1.4.2-1.3 0-2-.7-2-1.9v-5.1zm8.5 7c-2.2 0-3.9-1.8-3.9-4s1.6-4 3.7-4c2 0 3.6 1.7 3.6 3.9v.4h-6.1c.1 1.6 1.3 2.8 2.8 2.8.8 0 1.6-.3 2.1-.8l.7.8c-.9.6-1.8.9-2.9.9zm-2.7-4.6h4.9c-.2-1.4-1.2-2.4-2.4-2.4-1.3 0-2.3 1-2.5 2.4zM577 121c-.6.8-1.5 1.2-2.5 1.2-2 0-3.6-1.8-3.6-4 0-2.3 1.6-4 3.7-4 1 0 1.8.4 2.4 1.1v-4.6l1.2-.2V122H577v-1zm-2.2.1c.9 0 1.7-.4 2.2-1v-3.9c-.5-.7-1.3-1.1-2.2-1.1-1.6 0-2.7 1.3-2.7 3s1.1 3 2.7 3zm9.5-10.5 1.2-.2v7.4l3.7-3.5h1.4l-4 3.7 4.1 4.1h-1.5l-3.8-3.7v3.7h-1.2v-11.5zm7.8 3.6h1.2v1.3c.6-.9 1.4-1.4 2.5-1.4 1.7 0 2.8 1.2 2.8 2.9v5.1h-1.2v-4.7c0-1.4-.8-2.2-2.1-2.2-.9 0-1.6.4-2 1.2v5.8h-1.2v-8zm12.3-.1c2.2 0 3.8 1.7 3.8 4s-1.6 4.1-3.8 4.1c-2.1 0-3.8-1.8-3.8-4.1s1.6-4 3.8-4zm2.7 4c0-1.7-1.1-3-2.7-3s-2.6 1.3-2.6 3 1.1 3 2.6 3 2.7-1.3 2.7-3zm4.4 3.9-2.1-7.8h1.1l1.6 6.2 1.9-6.2h1l1.9 6.2 1.6-6.2h1.1l-2.1 7.8h-1.1l-1.9-6.3-1.9 6.3h-1.1zm10.9 0h-1.2v-11.4l1.2-.2V122zm6 .1c-2.2 0-3.9-1.8-3.9-4s1.6-4 3.7-4c2 0 3.6 1.7 3.6 3.9v.4h-6.1c.1 1.6 1.3 2.8 2.8 2.8.8 0 1.6-.3 2.1-.8l.7.8c-.9.6-1.9.9-2.9.9zm-2.7-4.6h4.9c-.2-1.4-1.2-2.4-2.4-2.4-1.3 0-2.3 1-2.5 2.4zm13.8 3.5c-.6.8-1.5 1.2-2.5 1.2-2 0-3.6-1.8-3.6-4 0-2.3 1.6-4 3.7-4 1 0 1.8.4 2.4 1.1v-4.6l1.2-.2V122h-1.2v-1zm-2.2.1c.9 0 1.7-.4 2.2-1v-3.9c-.5-.7-1.3-1.1-2.2-1.1-1.6 0-2.7 1.3-2.7 3s1.1 3 2.7 3zm5.4-3c0-2.2 1.6-4 3.7-4 1 0 1.8.4 2.4 1.1v-1h1.2v8.2c0 1.9-1.2 3-3.3 3-1.1 0-2.1-.3-3-.8l.5-.9c1 .5 1.7.7 2.5.7 1.4 0 2.2-.7 2.2-2v-1.5c-.6.8-1.5 1.2-2.5 1.2-2.1 0-3.7-1.8-3.7-4zm3.9 3c.9 0 1.7-.4 2.2-1.1v-3.9c-.5-.7-1.3-1.1-2.2-1.1-1.6 0-2.7 1.3-2.7 3 0 1.8 1.1 3.1 2.7 3.1zm9.3 1c-2.2 0-3.9-1.8-3.9-4s1.6-4 3.7-4c2 0 3.6 1.7 3.6 3.9v.4h-6.1c.1 1.6 1.3 2.8 2.8 2.8.8 0 1.6-.3 2.1-.8l.7.8c-.9.6-1.8.9-2.9.9zm-2.7-4.6h4.9c-.2-1.4-1.2-2.4-2.4-2.4-1.3 0-2.3 1-2.5 2.4zm9.1 3.3-1.3 3.7h-.9l1-3.7h1.2zm5.4-1c0-1.4 1.2-2.3 2.9-2.3.9 0 1.7.2 2.4.6V117c0-1.3-.7-1.9-2-1.9-.7 0-1.5.2-2.4.7l-.4-.9c1.1-.5 2-.8 2.9-.8 1.9 0 3 1 3 2.8v5.2h-1.2v-.9c-.7.7-1.5 1.1-2.5 1.1-1.5-.2-2.7-1.1-2.7-2.5zm3.1 1.4c.9 0 1.6-.3 2.2-.9v-1.5c-.7-.4-1.3-.6-2.2-.6-1.2 0-2 .6-2 1.4 0 1 .8 1.6 2 1.6zm5.8-7h1.2v1.3c.6-.9 1.4-1.4 2.5-1.4 1.7 0 2.8 1.2 2.8 2.9v5.1h-1.2v-4.7c0-1.4-.8-2.2-2.1-2.2-.9 0-1.6.4-2 1.2v5.8h-1.2v-8zm14.5 6.8c-.6.8-1.5 1.2-2.5 1.2-2 0-3.6-1.8-3.6-4 0-2.3 1.6-4 3.7-4 1 0 1.8.4 2.4 1.1v-4.6l1.2-.2V122h-1.2v-1zm-2.2.1c.9 0 1.7-.4 2.2-1v-3.9c-.5-.7-1.3-1.1-2.2-1.1-1.6 0-2.7 1.3-2.7 3s1.2 3 2.7 3zm9.4-.9c.9.7 1.7 1 2.5 1 1.1 0 2-.6 2-1.4 0-.6-.4-1-1.4-1.2l-1.3-.2c-1.5-.3-2.2-.9-2.2-2 0-1.3 1.2-2.3 2.8-2.3 1.1 0 2 .3 3 1l-.6.8c-.8-.6-1.6-.8-2.4-.8-1 0-1.7.5-1.7 1.2 0 .6.3.9 1.3 1.1l1.3.2c1.6.3 2.3.9 2.3 2.1 0 1.4-1.3 2.4-3 2.4-1.3 0-2.4-.4-3.2-1.2l.6-.7zm8.5-1.3c0 1.4.8 2.3 2.1 2.3.9 0 1.6-.4 2-1.2v-5.8h1.2v7.8h-1.2v-1.3c-.6.9-1.4 1.4-2.5 1.4-1.7 0-2.8-1.2-2.8-2.9v-5h1.2v4.7zm7.7-4.7h1.2v1.1c.6-.8 1.5-1.2 2.5-1.2 2 0 3.6 1.8 3.6 4 0 2.3-1.6 4-3.7 4-1 0-1.8-.4-2.4-1.1v4.3h-1.2v-11.1zm1.2 2v3.8c.5.7 1.3 1.1 2.2 1.1 1.6 0 2.7-1.3 2.7-3s-1.2-3-2.7-3c-.9 0-1.7.4-2.2 1.1zm8.1-2h1.2v1.1c.6-.8 1.5-1.2 2.5-1.2 2 0 3.6 1.8 3.6 4 0 2.3-1.6 4-3.7 4-1 0-1.8-.4-2.4-1.1v4.3h-1.2v-11.1zm1.2 2v3.8c.5.7 1.3 1.1 2.2 1.1 1.6 0 2.7-1.3 2.7-3s-1.2-3-2.7-3c-.9 0-1.7.4-2.2 1.1zm11.6-2.1c2.2 0 3.8 1.7 3.8 4s-1.6 4.1-3.8 4.1c-2.1 0-3.8-1.8-3.8-4.1s1.6-4 3.8-4zm2.7 4c0-1.7-1.1-3-2.7-3s-2.6 1.3-2.6 3 1.1 3 2.6 3 2.7-1.3 2.7-3zm3.2-3.9h1.2v1.6c.4-1.1 1.2-1.7 2.2-1.7.3 0 .5 0 .7.1v1.1c-.3-.1-.6-.1-.8-.1-1 0-1.7.6-2.1 1.6v5.3h-1.2v-7.9zm6.6.9h-1.6v-1h1.6V112l1.2-.3v2.4h2.2v1h-2.2v4.8c0 .8.3 1.2 1.1 1.2.4 0 .7 0 1.1-.2v1c-.4.1-.9.2-1.4.2-1.3 0-2-.7-2-1.9v-5.1z" class="disclosure-responsive-1_svg__st3"/>
  </g>
  <g class="disclosure-responsive-1_svg__st2">
    <path d="M30.9 135.4c0-.4.4-.8.8-.8s.8.4.8.8c0 .5-.4.8-.8.8-.4.1-.8-.3-.8-.8zm1.5 10.6h-1.2v-7.8h1.2v7.8zm2.4-7.8H36v1.3c.6-.9 1.4-1.4 2.5-1.4 1.7 0 2.8 1.2 2.8 2.9v5.1h-1.2v-4.7c0-1.4-.8-2.2-2.1-2.2-.9 0-1.6.4-2 1.2v5.8h-1.2v-8zm9.6 0v-1.7c0-1.5.8-2.4 2.3-2.4.4 0 .8 0 1.1.1v1.1c-.4-.1-.6-.1-.9-.1-.9 0-1.3.4-1.3 1.4v1.7h2.2v1h-2.2v6.9h-1.2v-6.9h-1.7v-1h1.7zm8-.1c2.2 0 3.8 1.7 3.8 4s-1.6 4.1-3.8 4.1c-2.1 0-3.8-1.8-3.8-4.1s1.6-4 3.8-4zm2.6 4c0-1.7-1.1-3-2.7-3s-2.6 1.3-2.6 3 1.1 3 2.6 3 2.7-1.3 2.7-3zm3.2-3.9h1.2v1.6c.4-1.1 1.2-1.7 2.2-1.7.3 0 .5 0 .7.1v1.1c-.3-.1-.6-.1-.8-.1-1 0-1.7.6-2.1 1.6v5.3h-1.2v-7.9zm5.7 0h1.2v1.2c.6-.9 1.4-1.3 2.3-1.3 1.1 0 2 .6 2.4 1.5.6-1 1.5-1.5 2.6-1.5 1.6 0 2.7 1.2 2.7 2.9v5h-1.2v-4.8c0-1.4-.7-2.2-1.9-2.2-.8 0-1.5.4-2 1.2 0 .2.1.4.1.7v5h-1.2v-4.8c0-1.4-.8-2.2-1.9-2.2-.8 0-1.4.4-1.9 1.2v5.8h-1.2v-7.7zm13.1 5.6c0-1.4 1.2-2.3 2.9-2.3.9 0 1.7.2 2.4.6V141c0-1.3-.7-1.9-2-1.9-.7 0-1.5.2-2.4.7l-.4-.9c1.1-.5 2-.8 2.9-.8 1.9 0 3 1 3 2.8v5.2h-1.2v-.9c-.7.7-1.5 1.1-2.5 1.1-1.6-.2-2.7-1.1-2.7-2.5zm3 1.4c.9 0 1.6-.3 2.2-.9v-1.5c-.7-.4-1.3-.6-2.2-.6-1.2 0-2 .6-2 1.4.1 1 .9 1.6 2 1.6zm6.5-6.1h-1.6v-1h1.6V136l1.2-.3v2.4h2.2v1h-2.2v4.8c0 .8.3 1.2 1.1 1.2.4 0 .7 0 1.1-.2v1c-.4.1-.9.2-1.4.2-1.3 0-2-.7-2-1.9v-5.1zm4.8-3.7c0-.4.4-.8.8-.8s.8.4.8.8c0 .5-.4.8-.8.8-.4.1-.8-.3-.8-.8zm1.5 10.6h-1.2v-7.8h1.2v7.8zm5.8-7.9c2.2 0 3.8 1.7 3.8 4s-1.6 4.1-3.8 4.1c-2.1 0-3.8-1.8-3.8-4.1s1.6-4 3.8-4zm2.7 4c0-1.7-1.1-3-2.7-3s-2.6 1.3-2.6 3 1.1 3 2.6 3 2.7-1.3 2.7-3zm3.2-3.9h1.2v1.3c.6-.9 1.4-1.4 2.5-1.4 1.7 0 2.8 1.2 2.8 2.9v5.1h-1.2v-4.7c0-1.4-.8-2.2-2.1-2.2-.9 0-1.6.4-2 1.2v5.8h-1.2v-8zm10.2 7c0 .5-.4.9-.8.9-.5 0-.8-.4-.8-.9s.4-.9.8-.9c.4.1.8.5.8.9z" class="disclosure-responsive-1_svg__st3"/>
  </g>
  <path fill="#06c" d="M31.6 72.4h5.2c2.4 0 4 1.5 4 3.6 0 1.7-1 2.9-2.6 3.4l2.7 5.6h-1.5l-2.6-5.4H33V85h-1.4V72.4zm1.4 1.2v4.8h3.7c1.7 0 2.7-1 2.7-2.4 0-1.5-1.1-2.4-2.7-2.4H33zm13.5 11.6c-2.5 0-4.4-2-4.4-4.6 0-2.6 1.8-4.5 4.1-4.5s4 1.9 4 4.4v.4h-6.9c.1 1.8 1.5 3.1 3.1 3.1.9 0 1.8-.3 2.4-.9l.8.9c-.8.8-1.9 1.2-3.1 1.2zm-3-5.2h5.6c-.2-1.6-1.3-2.8-2.8-2.8-1.5 0-2.6 1.1-2.8 2.8zm15.6 3.8c-.7.8-1.7 1.3-2.8 1.3-2.3 0-4.1-2-4.1-4.5s1.8-4.5 4.1-4.5c1.1 0 2 .4 2.7 1.2v-5.2l1.3-.3V85H59v-1.2zm-2.5.2c1 0 1.9-.4 2.5-1.2v-4.4c-.6-.7-1.5-1.2-2.5-1.2-1.8 0-3.1 1.4-3.1 3.3s1.3 3.5 3.1 3.5zm10.9-11.6h1.4V78h7.2v-5.6h1.4V85h-1.4v-5.7h-7.2V85h-1.4V72.4zm12.3 10.1c0-1.6 1.3-2.6 3.3-2.6 1 0 1.9.2 2.7.7v-1.2c0-1.4-.8-2.2-2.3-2.2-.8 0-1.6.2-2.7.8l-.5-1c1.2-.6 2.3-.8 3.3-.8 2.2 0 3.4 1.1 3.4 3.1v5.8h-1.3v-1c-.8.8-1.7 1.2-2.8 1.2-1.8-.1-3.1-1.2-3.1-2.8zm3.4 1.7c1 0 1.8-.3 2.5-1v-1.7c-.7-.4-1.5-.6-2.5-.6-1.3 0-2.2.6-2.2 1.6s.9 1.7 2.2 1.7zm7.3-6.9h-1.8v-1.1h1.8v-2.4l1.3-.3v2.7h2.5v1.1h-2.5v5.4c0 .9.4 1.3 1.3 1.3.5 0 .8-.1 1.2-.2V85c-.5.2-1 .2-1.5.2-1.5 0-2.3-.7-2.3-2.1v-5.8zm10.2-4.9h8.6v1.2h-7.2V78h5v1.2h-5v4.6h7.3V85h-8.7V72.4zm10.9 3.8h1.3v1.4c.7-1 1.6-1.6 2.8-1.6 1.9 0 3.2 1.3 3.2 3.2v5.7h-1.3v-5.3c0-1.5-.9-2.5-2.4-2.5-1 0-1.8.5-2.3 1.3v6.5h-1.3v-8.7zm10.7 1.1h-1.8v-1.1h1.8v-2.4l1.3-.3v2.7h2.5v1.1h-2.5v5.4c0 .9.4 1.3 1.3 1.3.5 0 .8-.1 1.2-.2V85c-.5.2-1 .2-1.5.2-1.5 0-2.3-.7-2.3-2.1v-5.8zm9.5 7.9c-2.5 0-4.4-2-4.4-4.6 0-2.6 1.8-4.5 4.1-4.5s4 1.9 4 4.4v.4h-6.9c.1 1.8 1.5 3.1 3.1 3.1.9 0 1.8-.3 2.4-.9l.8.9c-.8.8-1.9 1.2-3.1 1.2zm-3.1-5.2h5.6c-.2-1.6-1.3-2.8-2.8-2.8-1.4 0-2.5 1.1-2.8 2.8zm9.2-3.8h1.3V78c.5-1.2 1.3-1.9 2.4-1.9.3 0 .6 0 .8.1v1.2c-.3-.1-.6-.2-.9-.2-1.1 0-1.9.6-2.4 1.8v6h-1.3v-8.8zm6.3 0h1.3v1.3c.7-.9 1.7-1.4 2.8-1.4 2.3 0 4.1 2 4.1 4.5s-1.8 4.5-4.1 4.5c-1.1 0-2.1-.4-2.8-1.2v4.9h-1.3V76.2zm1.3 2.3v4.3c.6.8 1.5 1.2 2.5 1.2 1.8 0 3.1-1.4 3.1-3.4 0-1.9-1.3-3.4-3.1-3.4-1 .1-1.9.5-2.5 1.3zm9.2-2.3h1.3V78c.5-1.2 1.3-1.9 2.4-1.9.3 0 .6 0 .8.1v1.2c-.3-.1-.6-.2-.9-.2-1.1 0-1.9.6-2.4 1.8v6h-1.3v-8.8zm6-3.1c0-.5.4-.9 1-.9.5 0 .9.4.9.9s-.4 1-.9 1c-.6 0-1-.5-1-1zm1.6 11.9H161v-8.8h1.3V85zm2.6-2c1 .8 1.9 1.1 2.8 1.1 1.3 0 2.2-.7 2.2-1.6 0-.7-.5-1.1-1.6-1.3l-1.4-.3c-1.7-.3-2.5-1-2.5-2.3 0-1.5 1.3-2.6 3.2-2.6 1.2 0 2.2.3 3.3 1.1l-.6.9c-.9-.6-1.8-.9-2.8-.9-1.2 0-1.9.5-1.9 1.4 0 .7.4 1.1 1.5 1.3l1.5.3c1.8.3 2.6 1.1 2.6 2.4 0 1.5-1.5 2.7-3.4 2.7-1.4 0-2.7-.5-3.6-1.3l.7-.9zm12.3 2.2c-2.5 0-4.4-2-4.4-4.6 0-2.6 1.8-4.5 4.1-4.5s4 1.9 4 4.4v.4H174c.1 1.8 1.5 3.1 3.1 3.1.9 0 1.8-.3 2.4-.9l.8.9c-.8.8-1.9 1.2-3.1 1.2zm-3-5.2h5.6c-.2-1.6-1.3-2.8-2.8-2.8-1.5 0-2.6 1.1-2.8 2.8zm13.5-7.6h1.4v11.4h7.1V85h-8.5V72.4zm10.4.7c0-.5.4-.9 1-.9.5 0 .9.4.9.9s-.4 1-.9 1c-.6 0-1-.5-1-1zm1.6 11.9h-1.3v-8.8h1.3V85zm2.7-8.8h1.3v1.4c.7-1 1.6-1.6 2.8-1.6 1.9 0 3.2 1.3 3.2 3.2v5.7h-1.3v-5.3c0-1.5-.9-2.5-2.4-2.5-1 0-1.8.5-2.3 1.3v6.5h-1.3v-8.7zm11.1 5.3c0 1.6.9 2.5 2.3 2.5 1 0 1.8-.5 2.3-1.3v-6.5h1.3V85h-1.3v-1.4c-.7 1-1.6 1.6-2.8 1.6-1.9 0-3.2-1.3-3.2-3.3v-5.7h1.3v5.3zm10.9-1-3.2-4.3h1.6l2.4 3.3 2.4-3.3h1.5l-3.2 4.2 3.4 4.6h-1.6l-2.6-3.6-2.6 3.6H221l3.4-4.5z" class="disclosure-responsive-1_svg__st2"/>
  <g class="disclosure-responsive-1_svg__st2">
    <path d="M55.4 25.8H60c2.1 0 3.6 1.3 3.6 3.2 0 1.5-.9 2.6-2.3 3l2.4 4.9h-1.4L60 32.1h-3.3v4.8h-1.2V25.8zm1.3 1.1v4.3H60c1.5 0 2.4-.8 2.4-2.1s-1-2.2-2.4-2.2h-3.3zm12 10.2c-2.2 0-3.9-1.8-3.9-4s1.6-4 3.7-4c2 0 3.6 1.7 3.6 3.9v.4H66c.1 1.6 1.3 2.8 2.8 2.8.8 0 1.6-.3 2.1-.8l.7.8c-.9.6-1.8.9-2.9.9zM66 32.5h4.9c-.2-1.4-1.2-2.4-2.4-2.4-1.3 0-2.3 1-2.5 2.4zm8 2.7c.9.7 1.7 1 2.5 1 1.1 0 2-.6 2-1.4 0-.6-.4-1-1.4-1.2l-1.3-.2c-1.5-.3-2.2-.9-2.2-2 0-1.3 1.2-2.3 2.8-2.3 1.1 0 2 .3 3 1l-.6.8c-.8-.6-1.6-.8-2.4-.8-1 0-1.7.5-1.7 1.2 0 .6.3.9 1.3 1.1l1.3.2c1.6.3 2.3.9 2.3 2.1 0 1.4-1.3 2.4-3 2.4-1.3 0-2.4-.4-3.2-1.2l.6-.7zm8.5-1.3c0 1.4.8 2.3 2.1 2.3.9 0 1.6-.4 2-1.2v-5.8h1.2V37h-1.2v-1.3c-.6.9-1.4 1.4-2.5 1.4-1.7 0-2.8-1.2-2.8-2.9v-5h1.2v4.7zm8.9 3.1h-1.2V25.6l1.2-.2V37zm3.3-6.9h-1.6v-1h1.6V27l1.2-.3v2.4h2.2v1h-2.2v4.8c0 .8.3 1.2 1.1 1.2.4 0 .7 0 1.1-.2v1c-.4.1-.9.2-1.4.2-1.3 0-2-.7-2-1.9v-5.1zm5.2 5.1c.9.7 1.7 1 2.5 1 1.1 0 2-.6 2-1.4 0-.6-.4-1-1.4-1.2l-1.3-.2c-1.5-.3-2.2-.9-2.2-2 0-1.3 1.2-2.3 2.8-2.3 1.1 0 2 .3 3 1l-.6.8c-.8-.6-1.6-.8-2.4-.8-1 0-1.7.5-1.7 1.2 0 .6.3.9 1.3 1.1l1.3.2c1.6.3 2.3.9 2.3 2.1 0 1.4-1.3 2.4-3 2.4-1.3 0-2.4-.4-3.2-1.2l.6-.7zm12-6v-1.7c0-1.5.8-2.4 2.3-2.4.4 0 .8 0 1.1.1v1.1c-.4-.1-.6-.1-.9-.1-.9 0-1.3.4-1.3 1.4v1.7h2.2v1h-2.2v6.9h-1.2v-6.9h-1.7v-1h1.7zm5 0h1.2v1.6c.4-1.1 1.2-1.7 2.2-1.7.3 0 .5 0 .7.1v1.1c-.3-.1-.6-.1-.8-.1-1 0-1.7.6-2.1 1.6v5.3h-1.2v-7.9zm8.5-.1c2.2 0 3.8 1.7 3.8 4s-1.6 4.1-3.8 4.1c-2.1 0-3.8-1.8-3.8-4.1s1.7-4 3.8-4zm2.7 4c0-1.7-1.1-3-2.7-3s-2.6 1.3-2.6 3 1.1 3 2.6 3 2.7-1.3 2.7-3zm3.2-3.9h1.2v1.2c.6-.9 1.4-1.3 2.3-1.3 1.1 0 2 .6 2.4 1.5.6-1 1.5-1.5 2.6-1.5 1.6 0 2.7 1.2 2.7 2.9v5h-1.2v-4.8c0-1.4-.7-2.2-1.9-2.2-.8 0-1.5.4-2 1.2 0 .2.1.4.1.7v5h-1.2v-4.8c0-1.4-.8-2.2-1.9-2.2-.8 0-1.4.4-1.9 1.2v5.8h-1.2v-7.7zm26 5.3.8.8c-1.1 1.2-2.6 1.8-4.2 1.8-3.2 0-5.7-2.6-5.7-5.8 0-3.2 2.5-5.8 5.7-5.8 1.6 0 3.2.7 4.2 1.8l-.8.8c-.8-1-2.1-1.6-3.4-1.6-2.5 0-4.5 2-4.5 4.7s1.9 4.7 4.5 4.7c1.4.2 2.6-.4 3.4-1.4zm3.8-.6c0 1.4.8 2.3 2.1 2.3.9 0 1.6-.4 2-1.2v-5.8h1.2V37h-1.2v-1.3c-.6.9-1.4 1.4-2.5 1.4-1.7 0-2.8-1.2-2.8-2.9v-5h1.2v4.7zm7.5 1.3c.9.7 1.7 1 2.5 1 1.1 0 2-.6 2-1.4 0-.6-.4-1-1.4-1.2l-1.3-.2c-1.5-.3-2.2-.9-2.2-2 0-1.3 1.2-2.3 2.8-2.3 1.1 0 2 .3 3 1l-.6.8c-.8-.6-1.6-.8-2.4-.8-1 0-1.7.5-1.7 1.2 0 .6.3.9 1.3 1.1l1.3.2c1.6.3 2.3.9 2.3 2.1 0 1.4-1.3 2.4-3 2.4-1.3 0-2.4-.4-3.2-1.2l.6-.7zm8.2-5.1h-1.6v-1h1.6V27l1.2-.3v2.4h2.2v1H178v4.8c0 .8.3 1.2 1.1 1.2.4 0 .7 0 1.1-.2v1c-.4.1-.9.2-1.4.2-1.3 0-2-.7-2-1.9v-5.1zm8.3-1c2.2 0 3.8 1.7 3.8 4s-1.6 4.1-3.8 4.1c-2.1 0-3.8-1.8-3.8-4.1s1.7-4 3.8-4zm2.7 4c0-1.7-1.1-3-2.7-3s-2.6 1.3-2.6 3 1.1 3 2.6 3 2.7-1.3 2.7-3zm3.2-3.9h1.2v1.2c.6-.9 1.4-1.3 2.3-1.3 1.1 0 2 .6 2.4 1.5.6-1 1.5-1.5 2.6-1.5 1.6 0 2.7 1.2 2.7 2.9v5H201v-4.8c0-1.4-.7-2.2-1.9-2.2-.8 0-1.5.4-2 1.2 0 .2.1.4.1.7v5H196v-4.8c0-1.4-.8-2.2-1.9-2.2-.8 0-1.4.4-1.9 1.2v5.8H191v-7.7zm17 7.9c-2.2 0-3.9-1.8-3.9-4s1.6-4 3.7-4c2 0 3.6 1.7 3.6 3.9v.4h-6.1c.1 1.6 1.3 2.8 2.8 2.8.8 0 1.6-.3 2.1-.8l.7.8c-.9.6-1.8.9-2.9.9zm-2.7-4.6h4.9c-.2-1.4-1.2-2.4-2.4-2.4-1.3 0-2.3 1-2.5 2.4zm8.1-3.3h1.2v1.6c.4-1.1 1.2-1.7 2.2-1.7.3 0 .5 0 .7.1v1.1c-.3-.1-.6-.1-.8-.1-1 0-1.7.6-2.1 1.6v5.3h-1.2v-7.9zm9.4 0h1.2v1.1c.6-.8 1.5-1.2 2.5-1.2 2 0 3.6 1.8 3.6 4 0 2.3-1.6 4-3.7 4-1 0-1.8-.4-2.4-1.1v4.3h-1.2V29.2zm1.1 2V35c.5.7 1.3 1.1 2.2 1.1 1.6 0 2.7-1.3 2.7-3s-1.2-3-2.7-3c-.9 0-1.7.4-2.2 1.1zm11.6-2.1c2.2 0 3.8 1.7 3.8 4s-1.6 4.1-3.8 4.1c-2.1 0-3.8-1.8-3.8-4.1.1-2.3 1.7-4 3.8-4zm2.7 4c0-1.7-1.1-3-2.7-3s-2.6 1.3-2.6 3 1.1 3 2.6 3 2.7-1.3 2.7-3zm3.2-3.9h1.2v1.6c.4-1.1 1.2-1.7 2.2-1.7.3 0 .5 0 .7.1v1.1c-.3-.1-.6-.1-.8-.1-1 0-1.7.6-2.1 1.6v5.3h-1.2v-7.9zm6.6.9h-1.6v-1h1.6V27l1.2-.3v2.4h2.2v1h-2.2v4.8c0 .8.3 1.2 1.1 1.2.4 0 .7 0 1.1-.2v1c-.4.1-.9.2-1.4.2-1.3 0-2-.7-2-1.9v-5.1zm4.7 4.7c0-1.4 1.2-2.3 2.9-2.3.9 0 1.7.2 2.4.6V32c0-1.3-.7-1.9-2-1.9-.7 0-1.5.2-2.4.7l-.4-.9c1.1-.5 2-.8 2.9-.8 1.9 0 3 1 3 2.8v5.2H258v-.9c-.7.7-1.5 1.1-2.5 1.1-1.6-.2-2.8-1.1-2.8-2.5zm3.1 1.4c.9 0 1.6-.3 2.2-.9v-1.5c-.7-.4-1.3-.6-2.2-.6-1.2 0-2 .6-2 1.4 0 1 .8 1.6 2 1.6zm6.9.8h-1.2V25.6l1.2-.2V37z" class="disclosure-responsive-1_svg__st3"/>
  </g>
  <path fill="none" d="M22 19h24v24H22z"/>
  <path d="m33.2 36-6.9-6.9c-.4-.5-.4-1.2 0-1.6l1.2-1.2c.5-.4 1.2-.4 1.6 0l4.9 4.9 4.9-4.9c.5-.4 1.2-.4 1.6 0l1.2 1.2c.4.5.4 1.2 0 1.6L34.8 36c-.5.4-1.1.4-1.6 0z" class="disclosure-responsive-1_svg__st3"/>
  <path fill="#e00" d="M6 3h3v172H6z"/>
  <path fill="red" d="M941 3h65v172h-65zm-85 0h65v172h-65zm-85 0h65v172h-65zm-85 0h65v172h-65zm-85 0h65v172h-65zm-85 0h65v172h-65zm-85 0h65v172h-65zm-85 0h65v172h-65zm-85 0h65v172h-65zm-85 0h65v172h-65zM91 3h65v172H91zM6 3h65v172H6z" opacity=".75"/>
</svg>
