<svg xml:space="preserve" id="disclosure-bestpractice-2_svg__Layer_1" x="0" y="0" version="1.1" viewBox="0 0 884 208" xmlns="http://www.w3.org/2000/svg">
  <style>
    .disclosure-bestpractice-2_svg__st2{enable-background:new}.disclosure-bestpractice-2_svg__st3{fill:#151515}
  </style>
  <path fill="#fff" d="M6 3h872v196H6z"/>
  <path fill="none" stroke="#d2d2d2" d="M6.5 3.5h871v195H6.5z"/>
  <g class="disclosure-bestpractice-2_svg__st2">
    <path d="M31.4 110.8H36c2.1 0 3.6 1.3 3.6 3.2 0 1.5-.9 2.6-2.3 3l2.4 4.9h-1.4l-2.3-4.8h-3.3v4.8h-1.2v-11.1zm1.3 1.1v4.3H36c1.5 0 2.4-.8 2.4-2.1s-1-2.2-2.4-2.2h-3.3zm12 10.2c-2.2 0-3.9-1.8-3.9-4s1.6-4 3.7-4c2 0 3.6 1.7 3.6 3.9v.4H42c.1 1.6 1.3 2.8 2.8 2.8.8 0 1.6-.3 2.1-.8l.7.8c-.9.6-1.8.9-2.9.9zm-2.7-4.6h4.9c-.2-1.4-1.2-2.4-2.4-2.4-1.3 0-2.3 1-2.5 2.4zm13.8 3.5c-.6.8-1.5 1.2-2.5 1.2-2 0-3.6-1.8-3.6-4 0-2.3 1.6-4 3.7-4 1 0 1.8.4 2.4 1.1v-4.6l1.2-.2V122h-1.2v-1zm-2.2.1c.9 0 1.7-.4 2.2-1v-3.9c-.5-.7-1.3-1.1-2.2-1.1-1.6 0-2.7 1.3-2.7 3s1.1 3 2.7 3zm9.7-10.3h1.2v5h6.4v-5h1.2V122H71v-5.1h-6.4v5.1h-1.2v-11.2zm10.9 9c0-1.4 1.2-2.3 2.9-2.3.9 0 1.7.2 2.4.6V117c0-1.3-.7-1.9-2-1.9-.7 0-1.5.2-2.4.7l-.4-.9c1.1-.5 2-.8 2.9-.8 1.9 0 3 1 3 2.8v5.2h-1.2v-.9c-.7.7-1.5 1.1-2.5 1.1-1.5-.2-2.7-1.1-2.7-2.5zm3.1 1.4c.9 0 1.6-.3 2.2-.9v-1.5c-.7-.4-1.3-.6-2.2-.6-1.2 0-2 .6-2 1.4.1 1 .8 1.6 2 1.6zm6.5-6.1h-1.6v-1h1.6V112l1.2-.3v2.4h2.2v1H85v4.8c0 .8.3 1.2 1.1 1.2.4 0 .7 0 1.1-.2v1c-.4.1-.9.2-1.4.2-1.3 0-2-.7-2-1.9v-5.1zm9-4.3h7.7v1.1h-6.4v3.9h4.4v1.1h-4.4v4h6.5v1.1h-7.7v-11.2zm9.7 3.4h1.2v1.3c.6-.9 1.4-1.4 2.5-1.4 1.7 0 2.8 1.2 2.8 2.9v5.1h-1.2v-4.7c0-1.4-.8-2.2-2.1-2.2-.9 0-1.6.4-2 1.2v5.8h-1.2v-8zm9.5.9h-1.6v-1h1.6V112l1.2-.3v2.4h2.2v1h-2.2v4.8c0 .8.3 1.2 1.1 1.2.4 0 .7 0 1.1-.2v1c-.4.1-.9.2-1.4.2-1.3 0-2-.7-2-1.9v-5.1zm8.5 7c-2.2 0-3.9-1.8-3.9-4s1.6-4 3.7-4c2 0 3.6 1.7 3.6 3.9v.4h-6.1c.1 1.6 1.3 2.8 2.8 2.8.8 0 1.6-.3 2.1-.8l.7.8c-.9.6-1.8.9-2.9.9zm-2.7-4.6h4.9c-.2-1.4-1.2-2.4-2.4-2.4-1.3 0-2.3 1-2.5 2.4zm8.1-3.3h1.2v1.6c.4-1.1 1.2-1.7 2.2-1.7.3 0 .5 0 .7.1v1.1c-.3-.1-.6-.1-.8-.1-1 0-1.7.6-2.1 1.6v5.3h-1.2v-7.9zm5.6 0h1.2v1.1c.6-.8 1.5-1.2 2.5-1.2 2 0 3.6 1.8 3.6 4 0 2.3-1.6 4-3.7 4-1 0-1.8-.4-2.4-1.1v4.3h-1.2v-11.1zm1.2 2v3.8c.5.7 1.3 1.1 2.2 1.1 1.6 0 2.7-1.3 2.7-3s-1.2-3-2.7-3c-.9 0-1.7.4-2.2 1.1zm8.1-2h1.2v1.6c.4-1.1 1.2-1.7 2.2-1.7.3 0 .5 0 .7.1v1.1c-.3-.1-.6-.1-.8-.1-1 0-1.7.6-2.1 1.6v5.3h-1.2v-7.9zm5.4-2.8c0-.4.4-.8.8-.8s.8.4.8.8c0 .5-.4.8-.8.8-.4.1-.8-.3-.8-.8zm1.4 10.6h-1.2v-7.8h1.2v7.8zm2.3-1.8c.9.7 1.7 1 2.5 1 1.1 0 2-.6 2-1.4 0-.6-.4-1-1.4-1.2l-1.3-.2c-1.5-.3-2.2-.9-2.2-2 0-1.3 1.2-2.3 2.8-2.3 1.1 0 2 .3 3 1l-.6.8c-.8-.6-1.6-.8-2.4-.8-1 0-1.7.5-1.7 1.2 0 .6.3.9 1.3 1.1l1.3.2c1.6.3 2.3.9 2.3 2.1 0 1.4-1.3 2.4-3 2.4-1.3 0-2.4-.4-3.2-1.2l.6-.7zm11 1.9c-2.2 0-3.9-1.8-3.9-4s1.6-4 3.7-4c2 0 3.6 1.7 3.6 3.9v.4h-6.1c.1 1.6 1.3 2.8 2.8 2.8.8 0 1.6-.3 2.1-.8l.7.8c-.9.6-1.8.9-2.9.9zm-2.7-4.6h4.9c-.2-1.4-1.2-2.4-2.4-2.4-1.3 0-2.3 1-2.5 2.4zm12-6.7h1.2v10.1h6.3v1.1h-7.6v-11.2zm9.2.6c0-.4.4-.8.8-.8s.8.4.8.8c0 .5-.4.8-.8.8-.4.1-.8-.3-.8-.8zm1.5 10.6h-1.2v-7.8h1.2v7.8zm2.4-7.8h1.2v1.3c.6-.9 1.4-1.4 2.5-1.4 1.7 0 2.8 1.2 2.8 2.9v5.1h-1.2v-4.7c0-1.4-.8-2.2-2.1-2.2-.9 0-1.6.4-2 1.2v5.8h-1.2v-8zm9.8 4.7c0 1.4.8 2.3 2.1 2.3.9 0 1.6-.4 2-1.2v-5.8h1.2v7.8h-1.2v-1.3c-.6.9-1.4 1.4-2.5 1.4-1.7 0-2.8-1.2-2.8-2.9v-5h1.2v4.7zm9.7-.9-2.8-3.8h1.4l2.2 3 2.1-3h1.3l-2.8 3.8 3 4h-1.4l-2.3-3.2-2.3 3.2h-1.3l2.9-4zm9.3-6.6c0-.4.4-.8.8-.8s.8.4.8.8c0 .5-.4.8-.8.8-.4.1-.8-.3-.8-.8zm1.4 10.6h-1.2v-7.8h1.2v7.8zm2.3-1.8c.9.7 1.7 1 2.5 1 1.1 0 2-.6 2-1.4 0-.6-.4-1-1.4-1.2l-1.3-.2c-1.5-.3-2.2-.9-2.2-2 0-1.3 1.2-2.3 2.8-2.3 1.1 0 2 .3 3 1l-.6.8c-.8-.6-1.6-.8-2.4-.8-1 0-1.7.5-1.7 1.2 0 .6.3.9 1.3 1.1l1.3.2c1.6.3 2.3.9 2.3 2.1 0 1.4-1.3 2.4-3 2.4-1.3 0-2.4-.4-3.2-1.2l.6-.7zm12-5.1h-1.6v-1h1.6V112l1.2-.3v2.4h2.2v1H229v4.8c0 .8.3 1.2 1.1 1.2.4 0 .7 0 1.1-.2v1c-.4.1-.9.2-1.4.2-1.3 0-2-.7-2-1.9v-5.1zm5.1-4.5 1.2-.2v5.1c.6-.9 1.4-1.4 2.5-1.4 1.7 0 2.8 1.2 2.8 2.9v5.1h-1.2v-4.7c0-1.4-.8-2.2-2.1-2.2-.9 0-1.6.4-2 1.2v5.8h-1.2v-11.6zm12.4 11.5c-2.2 0-3.9-1.8-3.9-4s1.6-4 3.7-4c2 0 3.6 1.7 3.6 3.9v.4h-6.1c.1 1.6 1.3 2.8 2.8 2.8.8 0 1.6-.3 2.1-.8l.7.8c-.9.6-1.8.9-2.9.9zm-2.7-4.6h4.9c-.2-1.4-1.2-2.4-2.4-2.4-1.3 0-2.3 1-2.5 2.4zm13.2 4.5-2.1-7.8h1.1l1.6 6.2 1.9-6.2h1l1.9 6.2 1.6-6.2h1.1l-2.1 7.8h-1.1l-1.9-6.3-1.8 6.3h-1.2zm13.1-7.9c2.2 0 3.8 1.7 3.8 4s-1.6 4.1-3.8 4.1c-2.1 0-3.8-1.8-3.8-4.1s1.6-4 3.8-4zm2.6 4c0-1.7-1.1-3-2.7-3s-2.6 1.3-2.6 3 1.1 3 2.6 3 2.7-1.3 2.7-3zm3.2-3.9h1.2v1.6c.4-1.1 1.2-1.7 2.2-1.7.3 0 .5 0 .7.1v1.1c-.3-.1-.6-.1-.8-.1-1 0-1.7.6-2.1 1.6v5.3h-1.2v-7.9zm6.8 7.8h-1.2v-11.4l1.2-.2V122zm8.2-1c-.6.8-1.5 1.2-2.5 1.2-2 0-3.6-1.8-3.6-4 0-2.3 1.6-4 3.7-4 1 0 1.8.4 2.4 1.1v-4.6l1.2-.2V122h-1.2v-1zm-2.2.1c.9 0 1.7-.4 2.2-1v-3.9c-.5-.7-1.3-1.1-2.2-1.1-1.6 0-2.7 1.3-2.7 3-.1 1.7 1.1 3 2.7 3zm7.7-11.1-1.3 3.7h-.9l1-3.7h1.2zm.9 10.2c.9.7 1.7 1 2.5 1 1.1 0 2-.6 2-1.4 0-.6-.4-1-1.4-1.2l-1.3-.2c-1.5-.3-2.2-.9-2.2-2 0-1.3 1.2-2.3 2.8-2.3 1.1 0 2 .3 3 1l-.6.8c-.8-.6-1.6-.8-2.4-.8-1 0-1.7.5-1.7 1.2 0 .6.3.9 1.3 1.1l1.3.2c1.6.3 2.3.9 2.3 2.1 0 1.4-1.3 2.4-3 2.4-1.3 0-2.4-.4-3.2-1.2l.6-.7zm12.2 1.8h-1.2v-11.4l1.2-.2V122zm6 .1c-2.2 0-3.9-1.8-3.9-4s1.6-4 3.7-4c2 0 3.6 1.7 3.6 3.9v.4h-6.1c.1 1.6 1.3 2.8 2.8 2.8.8 0 1.6-.3 2.1-.8l.7.8c-.9.6-1.8.9-2.9.9zm-2.7-4.6h4.9c-.2-1.4-1.2-2.4-2.4-2.4-1.3 0-2.3 1-2.5 2.4zm7.5 2.3c0-1.4 1.2-2.3 2.9-2.3.9 0 1.7.2 2.4.6V117c0-1.3-.7-1.9-2-1.9-.7 0-1.5.2-2.4.7l-.4-.9c1.1-.5 2-.8 2.9-.8 1.9 0 3 1 3 2.8v5.2h-1.2v-.9c-.7.7-1.5 1.1-2.5 1.1-1.5-.2-2.7-1.1-2.7-2.5zm3.1 1.4c.9 0 1.6-.3 2.2-.9v-1.5c-.7-.4-1.3-.6-2.2-.6-1.2 0-2 .6-2 1.4 0 1 .8 1.6 2 1.6zm11.5-.2c-.6.8-1.5 1.2-2.5 1.2-2 0-3.6-1.8-3.6-4 0-2.3 1.6-4 3.7-4 1 0 1.8.4 2.4 1.1v-4.6l1.2-.2V122h-1.2v-1zm-2.2.1c.9 0 1.7-.4 2.2-1v-3.9c-.5-.7-1.3-1.1-2.2-1.1-1.6 0-2.7 1.3-2.7 3-.1 1.7 1.1 3 2.7 3zm5.5-9.7c0-.4.4-.8.8-.8s.8.4.8.8c0 .5-.4.8-.8.8-.4.1-.8-.3-.8-.8zm1.4 10.6h-1.2v-7.8h1.2v7.8zm2.4-7.8h1.2v1.3c.6-.9 1.4-1.4 2.5-1.4 1.7 0 2.8 1.2 2.8 2.9v5.1h-1.2v-4.7c0-1.4-.8-2.2-2.1-2.2-.9 0-1.6.4-2 1.2v5.8h-1.2v-8zm8.5 3.9c0-2.2 1.6-4 3.7-4 1 0 1.8.4 2.4 1.1v-1h1.2v8.2c0 1.9-1.2 3-3.3 3-1.1 0-2.1-.3-3-.8l.5-.9c1 .5 1.7.7 2.5.7 1.4 0 2.2-.7 2.2-2v-1.5c-.6.8-1.5 1.2-2.5 1.2-2.1 0-3.7-1.8-3.7-4zm3.9 3c.9 0 1.7-.4 2.2-1.1v-3.9c-.5-.7-1.3-1.1-2.2-1.1-1.6 0-2.7 1.3-2.7 3 0 1.8 1.1 3.1 2.7 3.1zm13 1c-2.2 0-3.9-1.8-3.9-4s1.6-4 3.7-4c2 0 3.6 1.7 3.6 3.9v.4h-6.1c.1 1.6 1.3 2.8 2.8 2.8.8 0 1.6-.3 2.1-.8l.7.8c-.8.6-1.8.9-2.9.9zm-2.7-4.6h4.9c-.2-1.4-1.2-2.4-2.4-2.4-1.3 0-2.3 1-2.5 2.4zm8.1-3.3h1.2v1.3c.6-.9 1.4-1.4 2.5-1.4 1.7 0 2.8 1.2 2.8 2.9v5.1h-1.2v-4.7c0-1.4-.8-2.2-2.1-2.2-.9 0-1.6.4-2 1.2v5.8h-1.2v-8zm9.5.9h-1.6v-1h1.6V112l1.2-.3v2.4h2.2v1h-2.2v4.8c0 .8.3 1.2 1.1 1.2.4 0 .7 0 1.1-.2v1c-.4.1-.9.2-1.4.2-1.3 0-2-.7-2-1.9v-5.1zm8.5 7c-2.2 0-3.9-1.8-3.9-4s1.6-4 3.7-4c2 0 3.6 1.7 3.6 3.9v.4h-6.1c.1 1.6 1.3 2.8 2.8 2.8.8 0 1.6-.3 2.1-.8l.7.8c-.9.6-1.8.9-2.9.9zm-2.7-4.6h4.9c-.2-1.4-1.2-2.4-2.4-2.4-1.3 0-2.3 1-2.5 2.4zm8.1-3.3h1.2v1.6c.4-1.1 1.2-1.7 2.2-1.7.3 0 .5 0 .7.1v1.1c-.3-.1-.6-.1-.8-.1-1 0-1.7.6-2.1 1.6v5.3H395v-7.9zm5.6 0h1.2v1.1c.6-.8 1.5-1.2 2.5-1.2 2 0 3.6 1.8 3.6 4 0 2.3-1.6 4-3.7 4-1 0-1.8-.4-2.4-1.1v4.3h-1.2v-11.1zm1.2 2v3.8c.5.7 1.3 1.1 2.2 1.1 1.6 0 2.7-1.3 2.7-3s-1.2-3-2.7-3c-.9 0-1.7.4-2.2 1.1zm8.1-2h1.2v1.6c.4-1.1 1.2-1.7 2.2-1.7.3 0 .5 0 .7.1v1.1c-.3-.1-.6-.1-.8-.1-1 0-1.7.6-2.1 1.6v5.3h-1.2v-7.9zm5.4-2.8c0-.4.4-.8.8-.8s.8.4.8.8c0 .5-.4.8-.8.8-.4.1-.8-.3-.8-.8zm1.4 10.6h-1.2v-7.8h1.2v7.8zm2.3-1.8c.9.7 1.7 1 2.5 1 1.1 0 2-.6 2-1.4 0-.6-.4-1-1.4-1.2l-1.3-.2c-1.5-.3-2.2-.9-2.2-2 0-1.3 1.2-2.3 2.8-2.3 1.1 0 2 .3 3 1l-.6.8c-.8-.6-1.6-.8-2.4-.8-1 0-1.7.5-1.7 1.2 0 .6.3.9 1.3 1.1l1.3.2c1.6.3 2.3.9 2.3 2.1 0 1.4-1.3 2.4-3 2.4-1.3 0-2.4-.4-3.2-1.2l.6-.7zm11 1.9c-2.2 0-3.9-1.8-3.9-4s1.6-4 3.7-4c2 0 3.6 1.7 3.6 3.9v.4h-6.1c.1 1.6 1.3 2.8 2.8 2.8.8 0 1.6-.3 2.1-.8l.7.8c-.9.6-1.9.9-2.9.9zm-2.7-4.6h4.9c-.2-1.4-1.2-2.4-2.4-2.4-1.3 0-2.3 1-2.5 2.4zm12-6.7h1.2v10.1h6.3v1.1h-7.6v-11.2zm9.2.6c0-.4.4-.8.8-.8s.8.4.8.8c0 .5-.4.8-.8.8-.4.1-.8-.3-.8-.8zM450 122h-1.2v-7.8h1.2v7.8zm2.4-7.8h1.2v1.3c.6-.9 1.4-1.4 2.5-1.4 1.7 0 2.8 1.2 2.8 2.9v5.1h-1.2v-4.7c0-1.4-.8-2.2-2.1-2.2-.9 0-1.6.4-2 1.2v5.8h-1.2v-8zm9.8 4.7c0 1.4.8 2.3 2.1 2.3.9 0 1.6-.4 2-1.2v-5.8h1.2v7.8h-1.2v-1.3c-.6.9-1.4 1.4-2.5 1.4-1.7 0-2.8-1.2-2.8-2.9v-5h1.2v4.7zm9.7-.9-2.8-3.8h1.4l2.2 3 2.1-3h1.3l-2.8 3.8 3 4h-1.4l-2.3-3.2-2.3 3.2H469l2.9-4zm9.6-3.8h1.2v1.1c.6-.8 1.5-1.2 2.5-1.2 2 0 3.6 1.8 3.6 4 0 2.3-1.6 4-3.7 4-1 0-1.8-.4-2.4-1.1v4.3h-1.2v-11.1zm1.1 2v3.8c.5.7 1.3 1.1 2.2 1.1 1.6 0 2.7-1.3 2.7-3s-1.2-3-2.7-3c-.9 0-1.7.4-2.2 1.1zm9.4 5.8h-1.2v-11.4l1.2-.2V122zm1.9-2.2c0-1.4 1.2-2.3 2.9-2.3.9 0 1.7.2 2.4.6V117c0-1.3-.7-1.9-2-1.9-.7 0-1.5.2-2.4.7l-.4-.9c1.1-.5 2-.8 2.9-.8 1.9 0 3 1 3 2.8v5.2h-1.2v-.9c-.7.7-1.5 1.1-2.5 1.1-1.5-.2-2.7-1.1-2.7-2.5zm3.1 1.4c.9 0 1.6-.3 2.2-.9v-1.5c-.7-.4-1.3-.6-2.2-.6-1.2 0-2 .6-2 1.4.1 1 .8 1.6 2 1.6zm6.5-6.1h-1.6v-1h1.6V112l1.2-.3v2.4h2.2v1h-2.2v4.8c0 .8.3 1.2 1.1 1.2.4 0 .7 0 1.1-.2v1c-.4.1-.9.2-1.4.2-1.3 0-2-.7-2-1.9v-5.1zm6.2-.9v-1.7c0-1.5.8-2.4 2.3-2.4.4 0 .8 0 1.1.1v1.1c-.4-.1-.6-.1-.9-.1-.9 0-1.3.4-1.3 1.4v1.7h2.2v1h-2.2v6.9h-1.2v-6.9H508v-1h1.7zm8.1-.1c2.2 0 3.8 1.7 3.8 4s-1.6 4.1-3.8 4.1c-2.1 0-3.8-1.8-3.8-4.1s1.6-4 3.8-4zm2.6 4c0-1.7-1.1-3-2.7-3s-2.6 1.3-2.6 3 1.1 3 2.6 3 2.7-1.3 2.7-3zm3.2-3.9h1.2v1.6c.4-1.1 1.2-1.7 2.2-1.7.3 0 .5 0 .7.1v1.1c-.3-.1-.6-.1-.8-.1-1 0-1.7.6-2.1 1.6v5.3h-1.2v-7.9zm5.6 0h1.2v1.2c.6-.9 1.4-1.3 2.3-1.3 1.1 0 2 .6 2.4 1.5.6-1 1.5-1.5 2.6-1.5 1.6 0 2.7 1.2 2.7 2.9v5h-1.2v-4.8c0-1.4-.7-2.2-1.9-2.2-.8 0-1.5.4-2 1.2 0 .2.1.4.1.7v5h-1.2v-4.8c0-1.4-.8-2.2-1.9-2.2-.8 0-1.4.4-1.9 1.2v5.8h-1.2v-7.7zm14.9 7c0 .5-.4.9-.8.9-.5 0-.8-.4-.8-.9s.4-.9.8-.9c.5.1.8.5.8.9zm6.1-10.4h1.2V122h-1.2v-11.2zm4.8 4.3h-1.6v-1h1.6V112l1.2-.3v2.4h2.2v1h-2.2v4.8c0 .8.3 1.2 1.1 1.2.4 0 .7 0 1.1-.2v1c-.4.1-.9.2-1.4.2-1.3 0-2-.7-2-1.9v-5.1zm7.2-5.1-1.3 3.7h-.9l1-3.7h1.2zm.9 10.2c.9.7 1.7 1 2.5 1 1.1 0 2-.6 2-1.4 0-.6-.4-1-1.4-1.2l-1.3-.2c-1.5-.3-2.2-.9-2.2-2 0-1.3 1.2-2.3 2.8-2.3 1.1 0 2 .3 3 1l-.6.8c-.8-.6-1.6-.8-2.4-.8-1 0-1.7.5-1.7 1.2 0 .6.3.9 1.3 1.1l1.3.2c1.6.3 2.3.9 2.3 2.1 0 1.4-1.3 2.4-3 2.4-1.3 0-2.4-.4-3.2-1.2l.6-.7zm10.7-.4c0-1.4 1.2-2.3 2.9-2.3.9 0 1.7.2 2.4.6V117c0-1.3-.7-1.9-2-1.9-.7 0-1.5.2-2.4.7l-.4-.9c1.1-.5 2-.8 2.9-.8 1.9 0 3 1 3 2.8v5.2H579v-.9c-.7.7-1.5 1.1-2.5 1.1-1.6-.2-2.7-1.1-2.7-2.5zm3.1 1.4c.9 0 1.6-.3 2.2-.9v-1.5c-.7-.4-1.3-.6-2.2-.6-1.2 0-2 .6-2 1.4 0 1 .8 1.6 2 1.6zm5.7-7h1.2v1.3c.6-.9 1.4-1.4 2.5-1.4 1.7 0 2.8 1.2 2.8 2.9v5.1h-1.2v-4.7c0-1.4-.8-2.2-2.1-2.2-.9 0-1.6.4-2 1.2v5.8h-1.2v-8zm16-.1c2.2 0 3.8 1.7 3.8 4s-1.6 4.1-3.8 4.1c-2.1 0-3.8-1.8-3.8-4.1s1.7-4 3.8-4zm2.7 4c0-1.7-1.1-3-2.7-3s-2.6 1.3-2.6 3 1.1 3 2.6 3 2.7-1.3 2.7-3zm3.2-3.9h1.2v1.1c.6-.8 1.5-1.2 2.5-1.2 2 0 3.6 1.8 3.6 4 0 2.3-1.6 4-3.7 4-1 0-1.8-.4-2.4-1.1v4.3h-1.2v-11.1zm1.1 2v3.8c.5.7 1.3 1.1 2.2 1.1 1.6 0 2.7-1.3 2.7-3s-1.2-3-2.7-3c-.9 0-1.7.4-2.2 1.1zm11.7 5.9c-2.2 0-3.9-1.8-3.9-4s1.6-4 3.7-4c2 0 3.6 1.7 3.6 3.9v.4h-6.1c.1 1.6 1.3 2.8 2.8 2.8.8 0 1.6-.3 2.1-.8l.7.8c-.8.6-1.8.9-2.9.9zm-2.7-4.6h4.9c-.2-1.4-1.2-2.4-2.4-2.4-1.3 0-2.3 1-2.5 2.4zm8.1-3.3h1.2v1.3c.6-.9 1.4-1.4 2.5-1.4 1.7 0 2.8 1.2 2.8 2.9v5.1H628v-4.7c0-1.4-.8-2.2-2.1-2.2-.9 0-1.6.4-2 1.2v5.8h-1.2v-8zm12.5 6c.9.7 1.7 1 2.5 1 1.1 0 2-.6 2-1.4 0-.6-.4-1-1.4-1.2l-1.3-.2c-1.5-.3-2.2-.9-2.2-2 0-1.3 1.2-2.3 2.8-2.3 1.1 0 2 .3 3 1l-.6.8c-.8-.6-1.6-.8-2.4-.8-1 0-1.7.5-1.7 1.2 0 .6.3.9 1.3 1.1l1.3.2c1.6.3 2.3.9 2.3 2.1 0 1.4-1.3 2.4-3 2.4-1.3 0-2.4-.4-3.2-1.2l.6-.7zm10.8-6.1c2.2 0 3.8 1.7 3.8 4s-1.6 4.1-3.8 4.1c-2.1 0-3.8-1.8-3.8-4.1s1.7-4 3.8-4zm2.7 4c0-1.7-1.1-3-2.7-3s-2.6 1.3-2.6 3 1.1 3 2.6 3 2.7-1.3 2.7-3zm4.3.8c0 1.4.8 2.3 2.1 2.3.9 0 1.6-.4 2-1.2v-5.8h1.2v7.8h-1.2v-1.3c-.6.9-1.4 1.4-2.5 1.4-1.7 0-2.8-1.2-2.8-2.9v-5h1.2v4.7zm7.7-4.7h1.2v1.6c.4-1.1 1.2-1.7 2.2-1.7.3 0 .5 0 .7.1v1.1c-.3-.1-.6-.1-.8-.1-1 0-1.7.6-2.1 1.6v5.3h-1.2v-7.9zm10.9 6 .7.7c-.8.8-1.8 1.3-3 1.3-2.2 0-3.9-1.8-3.9-4 0-2.3 1.7-4 3.9-4 1.2 0 2.2.4 3 1.2l-.8.8c-.6-.6-1.4-1-2.2-1-1.5 0-2.7 1.3-2.7 3s1.2 3 2.8 3c.9-.1 1.7-.4 2.2-1zm5.7 1.9c-2.2 0-3.9-1.8-3.9-4s1.6-4 3.7-4c2 0 3.6 1.7 3.6 3.9v.4h-6.1c.1 1.6 1.3 2.8 2.8 2.8.8 0 1.6-.3 2.1-.8l.7.8c-.9.6-1.8.9-2.9.9zm-2.7-4.6h4.9c-.2-1.4-1.2-2.4-2.4-2.4-1.3 0-2.3 1-2.5 2.4zm15.2-3.4c2.2 0 3.8 1.7 3.8 4s-1.6 4.1-3.8 4.1c-2.1 0-3.8-1.8-3.8-4.1s1.7-4 3.8-4zm2.7 4c0-1.7-1.1-3-2.7-3s-2.6 1.3-2.6 3 1.1 3 2.6 3 2.7-1.3 2.7-3zm3.2-3.9h1.2v1.1c.6-.8 1.5-1.2 2.5-1.2 2 0 3.6 1.8 3.6 4 0 2.3-1.6 4-3.7 4-1 0-1.8-.4-2.4-1.1v4.3h-1.2v-11.1zm1.2 2v3.8c.5.7 1.3 1.1 2.2 1.1 1.6 0 2.7-1.3 2.7-3s-1.2-3-2.7-3c-.9 0-1.7.4-2.2 1.1zm11.7 5.9c-2.2 0-3.9-1.8-3.9-4s1.6-4 3.7-4c2 0 3.6 1.7 3.6 3.9v.4h-6.1c.1 1.6 1.3 2.8 2.8 2.8.8 0 1.6-.3 2.1-.8l.7.8c-.9.6-1.8.9-2.9.9zm-2.7-4.6h4.9c-.2-1.4-1.2-2.4-2.4-2.4-1.3 0-2.3 1-2.5 2.4zm8.1-3.3h1.2v1.6c.4-1.1 1.2-1.7 2.2-1.7.3 0 .5 0 .7.1v1.1c-.3-.1-.6-.1-.8-.1-1 0-1.7.6-2.1 1.6v5.3H714v-7.9zm4.8 5.6c0-1.4 1.2-2.3 2.9-2.3.9 0 1.7.2 2.4.6V117c0-1.3-.7-1.9-2-1.9-.7 0-1.5.2-2.4.7l-.4-.9c1.1-.5 2-.8 2.9-.8 1.9 0 3 1 3 2.8v5.2H724v-.9c-.7.7-1.5 1.1-2.5 1.1-1.5-.2-2.7-1.1-2.7-2.5zm3.1 1.4c.9 0 1.6-.3 2.2-.9v-1.5c-.7-.4-1.3-.6-2.2-.6-1.2 0-2 .6-2 1.4 0 1 .8 1.6 2 1.6zm6.4-6.1h-1.6v-1h1.6V112l1.2-.3v2.4h2.2v1h-2.2v4.8c0 .8.3 1.2 1.1 1.2.4 0 .7 0 1.1-.2v1c-.4.1-.9.2-1.4.2-1.3 0-2-.7-2-1.9v-5.1zm4.9-3.7c0-.4.4-.8.8-.8s.8.4.8.8c0 .5-.4.8-.8.8-.4.1-.8-.3-.8-.8zm1.4 10.6h-1.2v-7.8h1.2v7.8zm2.4-7.8h1.2v1.3c.6-.9 1.4-1.4 2.5-1.4 1.7 0 2.8 1.2 2.8 2.9v5.1h-1.2v-4.7c0-1.4-.8-2.2-2.1-2.2-.9 0-1.6.4-2 1.2v5.8H737v-8zm8.5 3.9c0-2.2 1.6-4 3.7-4 1 0 1.8.4 2.4 1.1v-1h1.2v8.2c0 1.9-1.2 3-3.3 3-1.1 0-2.1-.3-3-.8l.5-.9c1 .5 1.7.7 2.5.7 1.4 0 2.2-.7 2.2-2v-1.5c-.6.8-1.5 1.2-2.5 1.2-2.1 0-3.7-1.8-3.7-4zm3.9 3c.9 0 1.7-.4 2.2-1.1v-3.9c-.5-.7-1.3-1.1-2.2-1.1-1.6 0-2.7 1.3-2.7 3 0 1.8 1.1 3.1 2.7 3.1zm9.4-.9c.9.7 1.7 1 2.5 1 1.1 0 2-.6 2-1.4 0-.6-.4-1-1.4-1.2l-1.3-.2c-1.5-.3-2.2-.9-2.2-2 0-1.3 1.2-2.3 2.8-2.3 1.1 0 2 .3 3 1l-.6.8c-.8-.6-1.6-.8-2.4-.8-1 0-1.7.5-1.7 1.2 0 .6.3.9 1.3 1.1l1.3.2c1.6.3 2.3.9 2.3 2.1 0 1.4-1.3 2.4-3 2.4-1.3 0-2.4-.4-3.2-1.2l.6-.7zm9.2 1.8-3-7.8h1.3l2.4 6.4 2.5-6.4h1.3l-3.9 9.4c-.5 1.3-1.1 1.7-2.2 1.7-.2 0-.5 0-.8-.1v-1c.3.1.5.1.6.1.6 0 1-.3 1.2-1l.6-1.3zm5.8-1.8c.9.7 1.7 1 2.5 1 1.1 0 2-.6 2-1.4 0-.6-.4-1-1.4-1.2l-1.3-.2c-1.5-.3-2.2-.9-2.2-2 0-1.3 1.2-2.3 2.8-2.3 1.1 0 2 .3 3 1l-.6.8c-.8-.6-1.6-.8-2.4-.8-1 0-1.7.5-1.7 1.2 0 .6.3.9 1.3 1.1l1.3.2c1.6.3 2.3.9 2.3 2.1 0 1.4-1.3 2.4-3 2.4-1.3 0-2.4-.4-3.2-1.2l.6-.7zm8.1-5.1h-1.6v-1h1.6V112l1.2-.3v2.4h2.2v1h-2.2v4.8c0 .8.3 1.2 1.1 1.2.4 0 .7 0 1.1-.2v1c-.4.1-.9.2-1.4.2-1.3 0-2-.7-2-1.9v-5.1zm8.5 7c-2.2 0-3.9-1.8-3.9-4s1.6-4 3.7-4c2 0 3.6 1.7 3.6 3.9v.4h-6.1c.1 1.6 1.3 2.8 2.8 2.8.8 0 1.6-.3 2.1-.8l.7.8c-.9.6-1.8.9-2.9.9zm-2.7-4.6h4.9c-.2-1.4-1.2-2.4-2.4-2.4-1.3 0-2.3 1-2.5 2.4zm8.1-3.3h1.2v1.2c.6-.9 1.4-1.3 2.3-1.3 1.1 0 2 .6 2.4 1.5.6-1 1.5-1.5 2.6-1.5 1.6 0 2.7 1.2 2.7 2.9v5h-1.2v-4.8c0-1.4-.7-2.2-1.9-2.2-.8 0-1.5.4-2 1.2 0 .2.1.4.1.7v5h-1.2v-4.8c0-1.4-.8-2.2-1.9-2.2-.8 0-1.4.4-1.9 1.2v5.8h-1.2v-7.7zm21-3.6.6.8c-2.1 1.3-3.3 3.7-3.3 6.6s1.2 5.3 3.3 6.6l-.6.8c-2.4-1.5-3.8-4.2-3.8-7.4s1.4-5.9 3.8-7.4zm7.9 11.6c-3.1 0-5.6-2.5-5.6-5.8s2.5-5.8 5.6-5.8c3.1 0 5.6 2.5 5.6 5.8s-2.5 5.8-5.6 5.8zm0-10.5c-2.4 0-4.3 2-4.3 4.7s1.9 4.7 4.3 4.7 4.3-2 4.3-4.7-1.9-4.7-4.3-4.7zm7.7 7.7c1.3 1.3 2.4 1.7 3.9 1.7 1.7 0 3-1 3-2.3 0-1.1-.7-1.6-2.5-2l-1.8-.3c-2-.4-3-1.2-3-2.7 0-1.9 1.6-3.2 3.8-3.2 1.7 0 3 .4 4.4 1.4l-.6 1c-1.2-.9-2.5-1.3-3.8-1.3-1.6 0-2.7.9-2.7 2 0 1 .6 1.5 2.1 1.7l1.8.3c2.4.4 3.4 1.3 3.4 3 0 1.9-1.8 3.4-4.3 3.4-1.8 0-3.2-.6-4.6-1.9l.9-.8zm10.1 6.1-.6-.8c2.1-1.3 3.3-3.7 3.3-6.6s-1.2-5.3-3.3-6.6l.6-.8c2.4 1.5 3.8 4.2 3.8 7.4 0 3.3-1.3 5.9-3.8 7.4zm7.6-4.3c0 .5-.4.9-.8.9-.5 0-.8-.4-.8-.9s.4-.9.8-.9c.4.1.8.5.8.9z" class="disclosure-bestpractice-2_svg__st3"/>
  </g>
  <g class="disclosure-bestpractice-2_svg__st2">
    <path d="M31.4 134.8h1.2V146h-1.2v-11.2zm4.8 4.3h-1.6v-1h1.6V136l1.2-.3v2.4h2.2v1h-2.2v4.8c0 .8.3 1.2 1.1 1.2.4 0 .7 0 1.1-.2v1c-.4.1-.9.2-1.4.2-1.3 0-2-.7-2-1.9v-5.1zm7.2-5.1-1.3 3.7h-.9l1-3.7h1.2zm.9 10.2c.9.7 1.7 1 2.5 1 1.1 0 2-.6 2-1.4 0-.6-.4-1-1.4-1.2l-1.3-.2c-1.5-.3-2.2-.9-2.2-2 0-1.3 1.2-2.3 2.8-2.3 1.1 0 2 .3 3 1l-.6.8c-.8-.6-1.6-.8-2.4-.8-1 0-1.7.5-1.7 1.2 0 .6.3.9 1.3 1.1l1.3.2c1.6.3 2.3.9 2.3 2.1 0 1.4-1.3 2.4-3 2.4-1.3 0-2.4-.4-3.2-1.2l.6-.7zm12-5.1h-1.6v-1h1.6V136l1.2-.3v2.4h2.2v1h-2.2v4.8c0 .8.3 1.2 1.1 1.2.4 0 .7 0 1.1-.2v1c-.4.1-.9.2-1.4.2-1.3 0-2-.7-2-1.9v-5.1zm5.1-4.5 1.2-.2v5.1c.6-.9 1.4-1.4 2.5-1.4 1.7 0 2.8 1.2 2.8 2.9v5.1h-1.2v-4.7c0-1.4-.8-2.2-2.1-2.2-.9 0-1.6.4-2 1.2v5.8h-1.2v-11.6zm12.4 11.5c-2.2 0-3.9-1.8-3.9-4s1.6-4 3.7-4c2 0 3.6 1.7 3.6 3.9v.4h-6.1c.1 1.6 1.3 2.8 2.8 2.8.8 0 1.6-.3 2.1-.8l.7.8c-.9.6-1.8.9-2.9.9zm-2.7-4.6H76c-.2-1.4-1.2-2.4-2.4-2.4-1.3 0-2.3 1-2.5 2.4zm12.8-3.3v-1.7c0-1.5.8-2.4 2.3-2.4.4 0 .8 0 1.1.1v1.1c-.4-.1-.6-.1-.9-.1-.9 0-1.3.4-1.3 1.4v1.7h2.2v1h-2.2v6.9h-1.2v-6.9h-1.7v-1h1.7zm8-.1c2.2 0 3.8 1.7 3.8 4s-1.6 4.1-3.8 4.1c-2.1 0-3.8-1.8-3.8-4.1s1.7-4 3.8-4zm2.7 4c0-1.7-1.1-3-2.7-3s-2.6 1.3-2.6 3 1.1 3 2.6 3 2.7-1.3 2.7-3zm4.3.8c0 1.4.8 2.3 2.1 2.3.9 0 1.6-.4 2-1.2v-5.8h1.2v7.8H103v-1.3c-.6.9-1.4 1.4-2.5 1.4-1.7 0-2.8-1.2-2.8-2.9v-5h1.2v4.7zm7.7-4.7h1.2v1.3c.6-.9 1.4-1.4 2.5-1.4 1.7 0 2.8 1.2 2.8 2.9v5.1h-1.2v-4.7c0-1.4-.8-2.2-2.1-2.2-.9 0-1.6.4-2 1.2v5.8h-1.2v-8zm14.6 6.8c-.6.8-1.5 1.2-2.5 1.2-2 0-3.6-1.8-3.6-4 0-2.3 1.6-4 3.7-4 1 0 1.8.4 2.4 1.1v-4.6l1.2-.2V146h-1.2v-1zm-2.2.1c.9 0 1.7-.4 2.2-1v-3.9c-.5-.7-1.3-1.1-2.2-1.1-1.6 0-2.7 1.3-2.7 3-.1 1.7 1.1 3 2.7 3zm5.3-1.3c0-1.4 1.2-2.3 2.9-2.3.9 0 1.7.2 2.4.6V141c0-1.3-.7-1.9-2-1.9-.7 0-1.5.2-2.4.7l-.4-.9c1.1-.5 2-.8 2.9-.8 1.9 0 3 1 3 2.8v5.2h-1.2v-.9c-.7.7-1.5 1.1-2.5 1.1-1.5-.2-2.7-1.1-2.7-2.5zm3.1 1.4c.9 0 1.6-.3 2.2-.9v-1.5c-.7-.4-1.3-.6-2.2-.6-1.2 0-2 .6-2 1.4.1 1 .8 1.6 2 1.6zm6.5-6.1h-1.6v-1h1.6V136l1.2-.3v2.4h2.2v1H135v4.8c0 .8.3 1.2 1.1 1.2.4 0 .7 0 1.1-.2v1c-.4.1-.9.2-1.4.2-1.3 0-2-.7-2-1.9v-5.1zm4.8-3.7c0-.4.4-.8.8-.8s.8.4.8.8c0 .5-.4.8-.8.8-.4.1-.8-.3-.8-.8zm1.4 10.6H139v-7.8h1.2v7.8zm5.9-7.9c2.2 0 3.8 1.7 3.8 4s-1.6 4.1-3.8 4.1c-2.1 0-3.8-1.8-3.8-4.1s1.6-4 3.8-4zm2.6 4c0-1.7-1.1-3-2.7-3s-2.6 1.3-2.6 3 1.1 3 2.6 3 2.7-1.3 2.7-3zm3.2-3.9h1.2v1.3c.6-.9 1.4-1.4 2.5-1.4 1.7 0 2.8 1.2 2.8 2.9v5.1h-1.2v-4.7c0-1.4-.8-2.2-2.1-2.2-.9 0-1.6.4-2 1.2v5.8h-1.2v-8zm13.6 0v-1.7c0-1.5.8-2.4 2.3-2.4.4 0 .8 0 1.1.1v1.1c-.4-.1-.6-.1-.9-.1-.9 0-1.3.4-1.3 1.4v1.7h2.2v1h-2.2v6.9h-1.2v-6.9h-1.7v-1h1.7zm4.9 0h1.2v1.6c.4-1.1 1.2-1.7 2.2-1.7.3 0 .5 0 .7.1v1.1c-.3-.1-.6-.1-.8-.1-1 0-1.7.6-2.1 1.6v5.3h-1.2v-7.9zm8.6-.1c2.2 0 3.8 1.7 3.8 4s-1.6 4.1-3.8 4.1c-2.1 0-3.8-1.8-3.8-4.1s1.6-4 3.8-4zm2.7 4c0-1.7-1.1-3-2.7-3s-2.6 1.3-2.6 3 1.1 3 2.6 3 2.7-1.3 2.7-3zm3.1-3.9h1.2v1.2c.6-.9 1.4-1.3 2.3-1.3 1.1 0 2 .6 2.4 1.5.6-1 1.5-1.5 2.6-1.5 1.6 0 2.7 1.2 2.7 2.9v5h-1.2v-4.8c0-1.4-.7-2.2-1.9-2.2-.8 0-1.5.4-2 1.2 0 .2.1.4.1.7v5h-1.2v-4.8c0-1.4-.8-2.2-1.9-2.2-.8 0-1.4.4-1.9 1.2v5.8h-1.2v-7.7zm18.7 7.8-2.1-7.8h1.1l1.6 6.2 1.9-6.2h1l1.9 6.2 1.6-6.2h1.1l-2.1 7.8h-1.1l-1.9-6.3-1.9 6.3h-1.1zm9.8-11.4 1.2-.2v5.1c.6-.9 1.4-1.4 2.5-1.4 1.7 0 2.8 1.2 2.8 2.9v5.1h-1.2v-4.7c0-1.4-.8-2.2-2.1-2.2-.9 0-1.6.4-2 1.2v5.8h-1.2v-11.6zm8.5.8c0-.4.4-.8.8-.8s.8.4.8.8c0 .5-.4.8-.8.8-.4.1-.8-.3-.8-.8zm1.5 10.6H222v-7.8h1.2v7.8zm8.1-1.8.7.7c-.8.8-1.8 1.3-3 1.3-2.2 0-3.9-1.8-3.9-4 0-2.3 1.7-4 3.9-4 1.2 0 2.2.4 3 1.2l-.8.8c-.6-.6-1.4-1-2.2-1-1.5 0-2.7 1.3-2.7 3s1.2 3 2.8 3c.9-.1 1.7-.4 2.2-1zm2.4-9.6 1.2-.2v5.1c.6-.9 1.4-1.4 2.5-1.4 1.7 0 2.8 1.2 2.8 2.9v5.1H239v-4.7c0-1.4-.8-2.2-2.1-2.2-.9 0-1.6.4-2 1.2v5.8h-1.2v-11.6zm14.6 11.4-3-7.8h1.3l2.4 6.4 2.5-6.4h1.3l-3.9 9.4c-.5 1.3-1.1 1.7-2.2 1.7-.2 0-.5 0-.8-.1v-1c.3.1.5.1.6.1.6 0 1-.3 1.2-1l.6-1.3zm9.1-7.9c2.2 0 3.8 1.7 3.8 4s-1.6 4.1-3.8 4.1c-2.1 0-3.8-1.8-3.8-4.1s1.7-4 3.8-4zm2.7 4c0-1.7-1.1-3-2.7-3s-2.6 1.3-2.6 3 1.1 3 2.6 3 2.7-1.3 2.7-3zm4.3.8c0 1.4.8 2.3 2.1 2.3.9 0 1.6-.4 2-1.2v-5.8h1.2v7.8h-1.2v-1.3c-.6.9-1.4 1.4-2.5 1.4-1.7 0-2.8-1.2-2.8-2.9v-5h1.2v4.7zm17.2 1.3.7.7c-.8.8-1.8 1.3-3 1.3-2.2 0-3.9-1.8-3.9-4 0-2.3 1.7-4 3.9-4 1.2 0 2.2.4 3 1.2l-.8.8c-.6-.6-1.4-1-2.2-1-1.5 0-2.7 1.3-2.7 3s1.2 3 2.8 3c.9-.1 1.7-.4 2.2-1zm2-.4c0-1.4 1.2-2.3 2.9-2.3.9 0 1.7.2 2.4.6V141c0-1.3-.7-1.9-2-1.9-.7 0-1.5.2-2.4.7l-.4-.9c1.1-.5 2-.8 2.9-.8 1.9 0 3 1 3 2.8v5.2h-1.2v-.9c-.7.7-1.5 1.1-2.5 1.1-1.6-.2-2.7-1.1-2.7-2.5zm3.1 1.4c.9 0 1.6-.3 2.2-.9v-1.5c-.7-.4-1.3-.6-2.2-.6-1.2 0-2 .6-2 1.4 0 1 .8 1.6 2 1.6zm5.7-7h1.2v1.3c.6-.9 1.4-1.4 2.5-1.4 1.7 0 2.8 1.2 2.8 2.9v5.1h-1.2v-4.7c0-1.4-.8-2.2-2.1-2.2-.9 0-1.6.4-2 1.2v5.8h-1.2v-8zm12.4 6c.9.7 1.7 1 2.5 1 1.1 0 2-.6 2-1.4 0-.6-.4-1-1.4-1.2l-1.3-.2c-1.5-.3-2.2-.9-2.2-2 0-1.3 1.2-2.3 2.8-2.3 1.1 0 2 .3 3 1l-.6.8c-.8-.6-1.6-.8-2.4-.8-1 0-1.7.5-1.7 1.2 0 .6.3.9 1.3 1.1l1.3.2c1.6.3 2.3.9 2.3 2.1 0 1.4-1.3 2.4-3 2.4-1.3 0-2.4-.4-3.2-1.2l.6-.7zm13.2 0 .7.7c-.8.8-1.8 1.3-3 1.3-2.2 0-3.9-1.8-3.9-4 0-2.3 1.7-4 3.9-4 1.2 0 2.2.4 3 1.2l-.8.8c-.6-.6-1.4-1-2.2-1-1.5 0-2.7 1.3-2.7 3s1.2 3 2.8 3c.9-.1 1.7-.4 2.2-1zm2-.4c0-1.4 1.2-2.3 2.9-2.3.9 0 1.7.2 2.4.6V141c0-1.3-.7-1.9-2-1.9-.7 0-1.5.2-2.4.7l-.4-.9c1.1-.5 2-.8 2.9-.8 1.9 0 3 1 3 2.8v5.2h-1.2v-.9c-.7.7-1.5 1.1-2.5 1.1-1.5-.2-2.7-1.1-2.7-2.5zm3.1 1.4c.9 0 1.6-.3 2.2-.9v-1.5c-.7-.4-1.3-.6-2.2-.6-1.2 0-2 .6-2 1.4 0 1 .8 1.6 2 1.6zm6.9.8h-1.2v-11.4l1.2-.2V146zm5.9.1c-2.2 0-3.9-1.8-3.9-4s1.6-4 3.7-4c2 0 3.6 1.7 3.6 3.9v.4h-6.1c.1 1.6 1.3 2.8 2.8 2.8.8 0 1.6-.3 2.1-.8l.7.8c-.8.6-1.8.9-2.9.9zm-2.7-4.6h4.9c-.2-1.4-1.2-2.4-2.4-2.4-1.3 0-2.3 1-2.5 2.4zm15.4 4.6c-2.2 0-3.9-1.8-3.9-4s1.6-4 3.7-4c2 0 3.6 1.7 3.6 3.9v.4h-6.1c.1 1.6 1.3 2.8 2.8 2.8.8 0 1.6-.3 2.1-.8l.7.8c-.9.6-1.8.9-2.9.9zm-2.7-4.6h4.9c-.2-1.4-1.2-2.4-2.4-2.4-1.3 0-2.3 1-2.5 2.4zm9.6.5-2.8-3.8h1.4l2.2 3 2.1-3h1.3l-2.8 3.8 3 4h-1.4l-2.3-3.2-2.3 3.2h-1.3l2.9-4zm5.5-6.6c0-.4.4-.8.8-.8s.8.4.8.8c0 .5-.4.8-.8.8-.4.1-.8-.3-.8-.8zm1.4 10.6h-1.2v-7.8h1.2v7.8zm2.3-1.8c.9.7 1.7 1 2.5 1 1.1 0 2-.6 2-1.4 0-.6-.4-1-1.4-1.2l-1.3-.2c-1.5-.3-2.2-.9-2.2-2 0-1.3 1.2-2.3 2.8-2.3 1.1 0 2 .3 3 1l-.6.8c-.8-.6-1.6-.8-2.4-.8-1 0-1.7.5-1.7 1.2 0 .6.3.9 1.3 1.1l1.3.2c1.6.3 2.3.9 2.3 2.1 0 1.4-1.3 2.4-3 2.4-1.3 0-2.4-.4-3.2-1.2l.6-.7zm8.1-5.1h-1.6v-1h1.6V136l1.2-.3v2.4h2.2v1H374v4.8c0 .8.3 1.2 1.1 1.2.4 0 .7 0 1.1-.2v1c-.4.1-.9.2-1.4.2-1.3 0-2-.7-2-1.9v-5.1zm4.9-3.7c0-.4.4-.8.8-.8s.8.4.8.8c0 .5-.4.8-.8.8-.4.1-.8-.3-.8-.8zm1.4 10.6h-1.2v-7.8h1.2v7.8zm2.4-7.8h1.2v1.3c.6-.9 1.4-1.4 2.5-1.4 1.7 0 2.8 1.2 2.8 2.9v5.1h-1.2v-4.7c0-1.4-.8-2.2-2.1-2.2-.9 0-1.6.4-2 1.2v5.8h-1.2v-8zm8.5 3.9c0-2.2 1.6-4 3.7-4 1 0 1.8.4 2.4 1.1v-1h1.2v8.2c0 1.9-1.2 3-3.3 3-1.1 0-2.1-.3-3-.8l.5-.9c1 .5 1.7.7 2.5.7 1.4 0 2.2-.7 2.2-2v-1.5c-.6.8-1.5 1.2-2.5 1.2-2.1 0-3.7-1.8-3.7-4zm3.9 3c.9 0 1.7-.4 2.2-1.1v-3.9c-.5-.7-1.3-1.1-2.2-1.1-1.6 0-2.7 1.3-2.7 3-.1 1.8 1.1 3.1 2.7 3.1zm9.1-1.3c0-1.4 1.2-2.3 2.9-2.3.9 0 1.7.2 2.4.6V141c0-1.3-.7-1.9-2-1.9-.7 0-1.5.2-2.4.7l-.4-.9c1.1-.5 2-.8 2.9-.8 1.9 0 3 1 3 2.8v5.2h-1.2v-.9c-.7.7-1.5 1.1-2.5 1.1-1.6-.2-2.7-1.1-2.7-2.5zm3 1.4c.9 0 1.6-.3 2.2-.9v-1.5c-.7-.4-1.3-.6-2.2-.6-1.2 0-2 .6-2 1.4.1 1 .9 1.6 2 1.6zm5.8-7h1.2v1.1c.6-.8 1.5-1.2 2.5-1.2 2 0 3.6 1.8 3.6 4 0 2.3-1.6 4-3.7 4-1 0-1.8-.4-2.4-1.1v4.3h-1.2v-11.1zm1.2 2v3.8c.5.7 1.3 1.1 2.2 1.1 1.6 0 2.7-1.3 2.7-3s-1.2-3-2.7-3c-.9 0-1.7.4-2.2 1.1zm8.1-2h1.2v1.1c.6-.8 1.5-1.2 2.5-1.2 2 0 3.6 1.8 3.6 4 0 2.3-1.6 4-3.7 4-1 0-1.8-.4-2.4-1.1v4.3h-1.2v-11.1zm1.2 2v3.8c.5.7 1.3 1.1 2.2 1.1 1.6 0 2.7-1.3 2.7-3s-1.2-3-2.7-3c-.9 0-1.7.4-2.2 1.1zm8 4c.9.7 1.7 1 2.5 1 1.1 0 2-.6 2-1.4 0-.6-.4-1-1.4-1.2l-1.3-.2c-1.5-.3-2.2-.9-2.2-2 0-1.3 1.2-2.3 2.8-2.3 1.1 0 2 .3 3 1l-.6.8c-.8-.6-1.6-.8-2.4-.8-1 0-1.7.5-1.7 1.2 0 .6.3.9 1.3 1.1l1.3.2c1.6.3 2.3.9 2.3 2.1 0 1.4-1.3 2.4-3 2.4-1.3 0-2.4-.4-3.2-1.2l.6-.7zm16.3-3.2v1h-9.1v-1h9.1zm1.8 2.8c0-1.4 1.2-2.3 2.9-2.3.9 0 1.7.2 2.4.6V141c0-1.3-.7-1.9-2-1.9-.7 0-1.5.2-2.4.7l-.4-.9c1.1-.5 2-.8 2.9-.8 1.9 0 3 1 3 2.8v5.2h-1.2v-.9c-.7.7-1.5 1.1-2.5 1.1-1.6-.2-2.7-1.1-2.7-2.5zm3 1.4c.9 0 1.6-.3 2.2-.9v-1.5c-.7-.4-1.3-.6-2.2-.6-1.2 0-2 .6-2 1.4.1 1 .9 1.6 2 1.6zm5.8-7h1.2v1.3c.6-.9 1.4-1.4 2.5-1.4 1.7 0 2.8 1.2 2.8 2.9v5.1h-1.2v-4.7c0-1.4-.8-2.2-2.1-2.2-.9 0-1.6.4-2 1.2v5.8h-1.2v-8zm14.6 6.8c-.6.8-1.5 1.2-2.5 1.2-2 0-3.6-1.8-3.6-4 0-2.3 1.6-4 3.7-4 1 0 1.8.4 2.4 1.1v-4.6l1.2-.2V146h-1.2v-1zm-2.2.1c.9 0 1.7-.4 2.2-1v-3.9c-.5-.7-1.3-1.1-2.2-1.1-1.6 0-2.7 1.3-2.7 3-.1 1.7 1.1 3 2.7 3zm9.5-6.9h1.2v1.6c.4-1.1 1.2-1.7 2.2-1.7.3 0 .5 0 .7.1v1.1c-.3-.1-.6-.1-.8-.1-1 0-1.7.6-2.1 1.6v5.3h-1.2v-7.9zm8.5-.1c2.2 0 3.8 1.7 3.8 4s-1.6 4.1-3.8 4.1c-2.1 0-3.8-1.8-3.8-4.1s1.7-4 3.8-4zm2.7 4c0-1.7-1.1-3-2.7-3s-2.6 1.3-2.6 3 1.1 3 2.6 3 2.7-1.3 2.7-3zm4.4 3.9h-1.2v-11.4l1.2-.2V146zm3.5 0H497v-11.4l1.2-.2V146zm9.6-7.9c2.2 0 3.8 1.7 3.8 4s-1.6 4.1-3.8 4.1c-2.1 0-3.8-1.8-3.8-4.1s1.6-4 3.8-4zm2.7 4c0-1.7-1.1-3-2.7-3s-2.6 1.3-2.6 3 1.1 3 2.6 3 2.7-1.3 2.7-3zm4.3.8c0 1.4.8 2.3 2.1 2.3.9 0 1.6-.4 2-1.2v-5.8h1.2v7.8h-1.2v-1.3c-.6.9-1.4 1.4-2.5 1.4-1.7 0-2.8-1.2-2.8-2.9v-5h1.2v4.7zm8.6-3.8h-1.6v-1h1.6V136l1.2-.3v2.4h2.2v1h-2.2v4.8c0 .8.3 1.2 1.1 1.2.4 0 .7 0 1.1-.2v1c-.4.1-.9.2-1.4.2-1.3 0-2-.7-2-1.9v-5.1zm12.4 7c-2.2 0-3.9-1.8-3.9-4s1.6-4 3.7-4c2 0 3.6 1.7 3.6 3.9v.4H533c.1 1.6 1.3 2.8 2.8 2.8.8 0 1.6-.3 2.1-.8l.7.8c-.8.6-1.7.9-2.8.9zm-2.7-4.6h4.9c-.2-1.4-1.2-2.4-2.4-2.4-1.3 0-2.3 1-2.5 2.4zm8.1-3.3h1.2v1.2c.6-.9 1.4-1.3 2.3-1.3 1.1 0 2 .6 2.4 1.5.6-1 1.5-1.5 2.6-1.5 1.6 0 2.7 1.2 2.7 2.9v5h-1.2v-4.8c0-1.4-.7-2.2-1.9-2.2-.8 0-1.5.4-2 1.2 0 .2.1.4.1.7v5h-1.2v-4.8c0-1.4-.8-2.2-1.9-2.2-.8 0-1.4.4-1.9 1.2v5.8h-1.2v-7.7zm17 7.9c-2.2 0-3.9-1.8-3.9-4s1.6-4 3.7-4c2 0 3.6 1.7 3.6 3.9v.4h-6.1c.1 1.6 1.3 2.8 2.8 2.8.8 0 1.6-.3 2.1-.8l.7.8c-.9.6-1.8.9-2.9.9zm-2.7-4.6h4.9c-.2-1.4-1.2-2.4-2.4-2.4-1.3 0-2.3 1-2.5 2.4zm8.1-3.3h1.2v1.6c.4-1.1 1.2-1.7 2.2-1.7.3 0 .5 0 .7.1v1.1c-.3-.1-.6-.1-.8-.1-1 0-1.7.6-2.1 1.6v5.3h-1.2v-7.9zm4.8 3.9c0-2.2 1.6-4 3.7-4 1 0 1.8.4 2.4 1.1v-1h1.2v8.2c0 1.9-1.2 3-3.3 3-1.1 0-2.1-.3-3-.8l.5-.9c1 .5 1.7.7 2.5.7 1.4 0 2.2-.7 2.2-2v-1.5c-.6.8-1.5 1.2-2.5 1.2-2.1 0-3.7-1.8-3.7-4zm3.9 3c.9 0 1.7-.4 2.2-1.1v-3.9c-.5-.7-1.3-1.1-2.2-1.1-1.6 0-2.7 1.3-2.7 3-.1 1.8 1.1 3.1 2.7 3.1zm5.5-9.7c0-.4.4-.8.8-.8s.8.4.8.8c0 .5-.4.8-.8.8-.4.1-.8-.3-.8-.8zm1.4 10.6H578v-7.8h1.2v7.8zm2.4-7.8h1.2v1.3c.6-.9 1.4-1.4 2.5-1.4 1.7 0 2.8 1.2 2.8 2.9v5.1h-1.2v-4.7c0-1.4-.8-2.2-2.1-2.2-.9 0-1.6.4-2 1.2v5.8h-1.2v-8zm8.5 3.9c0-2.2 1.6-4 3.7-4 1 0 1.8.4 2.4 1.1v-1h1.2v8.2c0 1.9-1.2 3-3.3 3-1.1 0-2.1-.3-3-.8l.5-.9c1 .5 1.7.7 2.5.7 1.4 0 2.2-.7 2.2-2v-1.5c-.6.8-1.5 1.2-2.5 1.2-2.1 0-3.7-1.8-3.7-4zm3.9 3c.9 0 1.7-.4 2.2-1.1v-3.9c-.5-.7-1.3-1.1-2.2-1.1-1.6 0-2.7 1.3-2.7 3 0 1.8 1.1 3.1 2.7 3.1zm10.4-6h-1.6v-1h1.6V136l1.2-.3v2.4h2.2v1h-2.2v4.8c0 .8.3 1.2 1.1 1.2.4 0 .7 0 1.1-.2v1c-.4.1-.9.2-1.4.2-1.3 0-2-.7-2-1.9v-5.1zm8.5 7c-2.2 0-3.9-1.8-3.9-4s1.6-4 3.7-4c2 0 3.6 1.7 3.6 3.9v.4h-6.1c.1 1.6 1.3 2.8 2.8 2.8.8 0 1.6-.3 2.1-.8l.7.8c-.9.6-1.8.9-2.9.9zm-2.7-4.6h4.9c-.2-1.4-1.2-2.4-2.4-2.4-1.3 0-2.3 1-2.5 2.4zm13.8 2.7.7.7c-.8.8-1.8 1.3-3 1.3-2.2 0-3.9-1.8-3.9-4 0-2.3 1.7-4 3.9-4 1.2 0 2.2.4 3 1.2l-.8.8c-.6-.6-1.4-1-2.2-1-1.5 0-2.7 1.3-2.7 3s1.2 3 2.8 3c.9-.1 1.7-.4 2.2-1zm2.4-9.6 1.2-.2v5.1c.6-.9 1.4-1.4 2.5-1.4 1.7 0 2.8 1.2 2.8 2.9v5.1h-1.2v-4.7c0-1.4-.8-2.2-2.1-2.2-.9 0-1.6.4-2 1.2v5.8h-1.2v-11.6zm8.9 3.6h1.2v1.3c.6-.9 1.4-1.4 2.5-1.4 1.7 0 2.8 1.2 2.8 2.9v5.1h-1.2v-4.7c0-1.4-.8-2.2-2.1-2.2-.9 0-1.6.4-2 1.2v5.8h-1.2v-8zm12.2-.1c2.2 0 3.8 1.7 3.8 4s-1.6 4.1-3.8 4.1c-2.1 0-3.8-1.8-3.8-4.1s1.7-4 3.8-4zm2.7 4c0-1.7-1.1-3-2.7-3s-2.6 1.3-2.6 3 1.1 3 2.6 3 2.7-1.3 2.7-3zm4.3 3.9h-1.2v-11.4l1.2-.2V146zm5.9-7.9c2.2 0 3.8 1.7 3.8 4s-1.6 4.1-3.8 4.1c-2.1 0-3.8-1.8-3.8-4.1s1.6-4 3.8-4zm2.6 4c0-1.7-1.1-3-2.7-3s-2.6 1.3-2.6 3 1.1 3 2.6 3 2.7-1.3 2.7-3zm2.9 0c0-2.2 1.6-4 3.7-4 1 0 1.8.4 2.4 1.1v-1h1.2v8.2c0 1.9-1.2 3-3.3 3-1.1 0-2.1-.3-3-.8l.5-.9c1 .5 1.7.7 2.5.7 1.4 0 2.2-.7 2.2-2v-1.5c-.6.8-1.5 1.2-2.5 1.2-2.1 0-3.7-1.8-3.7-4zm3.9 3c.9 0 1.7-.4 2.2-1.1v-3.9c-.5-.7-1.3-1.1-2.2-1.1-1.6 0-2.7 1.3-2.7 3 0 1.8 1.1 3.1 2.7 3.1zm5.5-9.7c0-.4.4-.8.8-.8s.8.4.8.8c0 .5-.4.8-.8.8-.4.1-.8-.3-.8-.8zm1.4 10.6h-1.2v-7.8h1.2v7.8zm6 .1c-2.2 0-3.9-1.8-3.9-4s1.6-4 3.7-4c2 0 3.6 1.7 3.6 3.9v.4H680c.1 1.6 1.3 2.8 2.8 2.8.8 0 1.6-.3 2.1-.8l.7.8c-.9.6-1.9.9-2.9.9zm-2.7-4.6h4.9c-.2-1.4-1.2-2.4-2.4-2.4-1.3 0-2.3 1-2.5 2.4zm8 2.7c.9.7 1.7 1 2.5 1 1.1 0 2-.6 2-1.4 0-.6-.4-1-1.4-1.2l-1.3-.2c-1.5-.3-2.2-.9-2.2-2 0-1.3 1.2-2.3 2.8-2.3 1.1 0 2 .3 3 1l-.6.8c-.8-.6-1.6-.8-2.4-.8-1 0-1.7.5-1.7 1.2 0 .6.3.9 1.3 1.1l1.3.2c1.6.3 2.3.9 2.3 2.1 0 1.4-1.3 2.4-3 2.4-1.3 0-2.4-.4-3.2-1.2l.6-.7zm16.3-3.2v1h-9.1v-1h9.1zm1.7 2.8c0-1.4 1.2-2.3 2.9-2.3.9 0 1.7.2 2.4.6V141c0-1.3-.7-1.9-2-1.9-.7 0-1.5.2-2.4.7l-.4-.9c1.1-.5 2-.8 2.9-.8 1.9 0 3 1 3 2.8v5.2h-1.2v-.9c-.7.7-1.5 1.1-2.5 1.1-1.5-.2-2.7-1.1-2.7-2.5zm3.1 1.4c.9 0 1.6-.3 2.2-.9v-1.5c-.7-.4-1.3-.6-2.2-.6-1.2 0-2 .6-2 1.4.1 1 .8 1.6 2 1.6zm11.5-1 .7.7c-.8.8-1.8 1.3-3 1.3-2.2 0-3.9-1.8-3.9-4 0-2.3 1.7-4 3.9-4 1.2 0 2.2.4 3 1.2l-.8.8c-.6-.6-1.4-1-2.2-1-1.5 0-2.7 1.3-2.7 3s1.2 3 2.8 3c.9-.1 1.7-.4 2.2-1zm2.4-6h1.2v1.6c.4-1.1 1.2-1.7 2.2-1.7.3 0 .5 0 .7.1v1.1c-.3-.1-.6-.1-.8-.1-1 0-1.7.6-2.1 1.6v5.3H723v-7.9zm8.6-.1c2.2 0 3.8 1.7 3.8 4s-1.6 4.1-3.8 4.1c-2.1 0-3.8-1.8-3.8-4.1s1.6-4 3.8-4zm2.6 4c0-1.7-1.1-3-2.7-3s-2.6 1.3-2.6 3 1.1 3 2.6 3 2.7-1.3 2.7-3zm3.1 2.1c.9.7 1.7 1 2.5 1 1.1 0 2-.6 2-1.4 0-.6-.4-1-1.4-1.2l-1.3-.2c-1.5-.3-2.2-.9-2.2-2 0-1.3 1.2-2.3 2.8-2.3 1.1 0 2 .3 3 1l-.6.8c-.8-.6-1.6-.8-2.4-.8-1 0-1.7.5-1.7 1.2 0 .6.3.9 1.3 1.1l1.3.2c1.6.3 2.3.9 2.3 2.1 0 1.4-1.3 2.4-3 2.4-1.3 0-2.4-.4-3.2-1.2l.6-.7zm7.4 0c.9.7 1.7 1 2.5 1 1.1 0 2-.6 2-1.4 0-.6-.4-1-1.4-1.2l-1.3-.2c-1.5-.3-2.2-.9-2.2-2 0-1.3 1.2-2.3 2.8-2.3 1.1 0 2 .3 3 1l-.6.8c-.8-.6-1.6-.8-2.4-.8-1 0-1.7.5-1.7 1.2 0 .6.3.9 1.3 1.1l1.3.2c1.6.3 2.3.9 2.3 2.1 0 1.4-1.3 2.4-3 2.4-1.3 0-2.4-.4-3.2-1.2l.6-.7zm14.7 1.9c-1 0-1.8-.4-2.5-1.1v1h-1.2v-11.4l1.2-.2v4.9c.6-.7 1.5-1.2 2.5-1.2 2 0 3.6 1.8 3.6 4 0 2.3-1.6 4-3.6 4zm-2.5-5.9v3.8c.5.7 1.3 1.1 2.2 1.1 1.6 0 2.7-1.3 2.7-3s-1.2-3-2.7-3c-.9 0-1.7.4-2.2 1.1zm7.9 3.6c0-1.4 1.2-2.3 2.9-2.3.9 0 1.7.2 2.4.6V141c0-1.3-.7-1.9-2-1.9-.7 0-1.5.2-2.4.7l-.4-.9c1.1-.5 2-.8 2.9-.8 1.9 0 3 1 3 2.8v5.2H770v-.9c-.7.7-1.5 1.1-2.5 1.1-1.6-.2-2.7-1.1-2.7-2.5zm3 1.4c.9 0 1.6-.3 2.2-.9v-1.5c-.7-.4-1.3-.6-2.2-.6-1.2 0-2 .6-2 1.4.1 1 .9 1.6 2 1.6zm5.8-7h1.2v1.6c.4-1.1 1.2-1.7 2.2-1.7.3 0 .5 0 .7.1v1.1c-.3-.1-.6-.1-.8-.1-1 0-1.7.6-2.1 1.6v5.3h-1.2v-7.9zm8.6 7.9c-2.2 0-3.9-1.8-3.9-4s1.6-4 3.7-4c2 0 3.6 1.7 3.6 3.9v.4h-6.1c.1 1.6 1.3 2.8 2.8 2.8.8 0 1.6-.3 2.1-.8l.7.8c-.8.6-1.8.9-2.9.9zm-2.7-4.6h4.9c-.2-1.4-1.2-2.4-2.4-2.4-1.3 0-2.3 1-2.5 2.4zm13.3-.5v1h-5.3v-1h5.3zm2.1-2.8h1.2v1.2c.6-.9 1.4-1.3 2.3-1.3 1.1 0 2 .6 2.4 1.5.6-1 1.5-1.5 2.6-1.5 1.6 0 2.7 1.2 2.7 2.9v5h-1.2v-4.8c0-1.4-.7-2.2-1.9-2.2-.8 0-1.5.4-2 1.2 0 .2.1.4.1.7v5h-1.2v-4.8c0-1.4-.8-2.2-1.9-2.2-.8 0-1.4.4-1.9 1.2v5.8h-1.2v-7.7zm17.1 7.9c-2.2 0-3.9-1.8-3.9-4s1.6-4 3.7-4c2 0 3.6 1.7 3.6 3.9v.4h-6.1c.1 1.6 1.3 2.8 2.8 2.8.8 0 1.6-.3 2.1-.8l.7.8c-.9.6-1.8.9-2.9.9zm-2.7-4.6h4.9c-.2-1.4-1.2-2.4-2.4-2.4-1.3 0-2.3 1-2.5 2.4zm8.8-2.4h-1.6v-1h1.6V136l1.2-.3v2.4h2.2v1h-2.2v4.8c0 .8.3 1.2 1.1 1.2.4 0 .7 0 1.1-.2v1c-.4.1-.9.2-1.4.2-1.3 0-2-.7-2-1.9v-5.1zm4.7 4.7c0-1.4 1.2-2.3 2.9-2.3.9 0 1.7.2 2.4.6V141c0-1.3-.7-1.9-2-1.9-.7 0-1.5.2-2.4.7l-.4-.9c1.1-.5 2-.8 2.9-.8 1.9 0 3 1 3 2.8v5.2H828v-.9c-.7.7-1.5 1.1-2.5 1.1-1.6-.2-2.7-1.1-2.7-2.5zm3 1.4c.9 0 1.6-.3 2.2-.9v-1.5c-.7-.4-1.3-.6-2.2-.6-1.2 0-2 .6-2 1.4.1 1 .9 1.6 2 1.6zm7 .8h-1.2v-11.4l1.2-.2V146zm3.8-1.2-1.3 3.7h-.9l1-3.7h1.2z" class="disclosure-bestpractice-2_svg__st3"/>
  </g>
  <g class="disclosure-bestpractice-2_svg__st2">
    <path d="M30.2 162.2h1.3l2.5 6.4 2.5-6.4h1.2l-3.2 7.8h-1.1l-3.2-7.8zm8.8-2.8c0-.4.4-.8.8-.8s.8.4.8.8c0 .5-.4.8-.8.8-.5.1-.8-.3-.8-.8zm1.4 10.6h-1.2v-7.8h1.2v7.8zm2.4-7.8H44v1.6c.4-1.1 1.2-1.7 2.2-1.7.3 0 .5 0 .7.1v1.1c-.3-.1-.6-.1-.8-.1-1 0-1.7.6-2.1 1.6v5.3h-1.2v-7.9zm6.6.9h-1.6v-1h1.6V160l1.2-.3v2.4h2.2v1h-2.2v4.8c0 .8.3 1.2 1.1 1.2.4 0 .7 0 1.1-.2v1c-.4.1-.9.2-1.4.2-1.3 0-2-.7-2-1.9v-5.1zm6.2 3.8c0 1.4.8 2.3 2.1 2.3.9 0 1.6-.4 2-1.2v-5.8h1.2v7.8h-1.2v-1.3c-.6.9-1.4 1.4-2.5 1.4-1.7 0-2.8-1.2-2.8-2.9v-5h1.2v4.7zm7.3.9c0-1.4 1.2-2.3 2.9-2.3.9 0 1.7.2 2.4.6V165c0-1.3-.7-1.9-2-1.9-.7 0-1.5.2-2.4.7l-.4-.9c1.1-.5 2-.8 2.9-.8 1.9 0 3 1 3 2.8v5.2h-1.2v-.9c-.7.7-1.5 1.1-2.5 1.1-1.5-.2-2.7-1.1-2.7-2.5zm3.1 1.4c.9 0 1.6-.3 2.2-.9v-1.5c-.7-.4-1.3-.6-2.2-.6-1.2 0-2 .6-2 1.4 0 1 .8 1.6 2 1.6zm6.9.8h-1.2v-11.4l1.2-.2V170zm3.9-1.2-1.3 3.7h-.9l1-3.7h1.2zm11.5-.6.7.7c-.8.8-1.8 1.3-3 1.3-2.2 0-3.9-1.8-3.9-4 0-2.3 1.7-4 3.9-4 1.2 0 2.2.4 3 1.2l-.8.8c-.6-.6-1.4-1-2.2-1-1.5 0-2.7 1.3-2.7 3s1.2 3 2.8 3c.9-.1 1.7-.4 2.2-1zm5.6-6.1c2.2 0 3.8 1.7 3.8 4s-1.6 4.1-3.8 4.1c-2.1 0-3.8-1.8-3.8-4.1s1.6-4 3.8-4zm2.7 4c0-1.7-1.1-3-2.7-3s-2.6 1.3-2.6 3 1.1 3 2.6 3 2.7-1.3 2.7-3zm3.2-3.9h1.2v1.3c.6-.9 1.4-1.4 2.5-1.4 1.7 0 2.8 1.2 2.8 2.9v5.1h-1.2v-4.7c0-1.4-.8-2.2-2.1-2.2-.9 0-1.6.4-2 1.2v5.8h-1.2v-8zm9.5.9h-1.6v-1h1.6V160l1.2-.3v2.4h2.2v1h-2.2v4.8c0 .8.3 1.2 1.1 1.2.4 0 .7 0 1.1-.2v1c-.4.1-.9.2-1.4.2-1.3 0-2-.7-2-1.9v-5.1zm4.7 4.7c0-1.4 1.2-2.3 2.9-2.3.9 0 1.7.2 2.4.6V165c0-1.3-.7-1.9-2-1.9-.7 0-1.5.2-2.4.7l-.4-.9c1.1-.5 2-.8 2.9-.8 1.9 0 3 1 3 2.8v5.2h-1.2v-.9c-.7.7-1.5 1.1-2.5 1.1-1.5-.2-2.7-1.1-2.7-2.5zm3.1 1.4c.9 0 1.6-.3 2.2-.9v-1.5c-.7-.4-1.3-.6-2.2-.6-1.2 0-2 .6-2 1.4 0 1 .8 1.6 2 1.6zm5.5-9.8c0-.4.4-.8.8-.8s.8.4.8.8c0 .5-.4.8-.8.8-.5.1-.8-.3-.8-.8zM124 170h-1.2v-7.8h1.2v7.8zm2.4-7.8h1.2v1.3c.6-.9 1.4-1.4 2.5-1.4 1.7 0 2.8 1.2 2.8 2.9v5.1h-1.2v-4.7c0-1.4-.8-2.2-2.1-2.2-.9 0-1.6.4-2 1.2v5.8h-1.2v-8zm12.3 7.9c-2.2 0-3.9-1.8-3.9-4s1.6-4 3.7-4c2 0 3.6 1.7 3.6 3.9v.4H136c.1 1.6 1.3 2.8 2.8 2.8.8 0 1.6-.3 2.1-.8l.7.8c-.8.6-1.8.9-2.9.9zm-2.7-4.6h4.9c-.2-1.4-1.2-2.4-2.4-2.4-1.3 0-2.3 1-2.5 2.4zm8.1-3.3h1.2v1.6c.4-1.1 1.2-1.7 2.2-1.7.3 0 .5 0 .7.1v1.1c-.3-.1-.6-.1-.8-.1-1 0-1.7.6-2.1 1.6v5.3h-1.2v-7.9zm5.9 6.6-1.3 3.7h-.9l1-3.7h1.2zm5.4-1c0-1.4 1.2-2.3 2.9-2.3.9 0 1.7.2 2.4.6V165c0-1.3-.7-1.9-2-1.9-.7 0-1.5.2-2.4.7l-.4-.9c1.1-.5 2-.8 2.9-.8 1.9 0 3 1 3 2.8v5.2h-1.2v-.9c-.7.7-1.5 1.1-2.5 1.1-1.5-.2-2.7-1.1-2.7-2.5zm3.1 1.4c.9 0 1.6-.3 2.2-.9v-1.5c-.7-.4-1.3-.6-2.2-.6-1.2 0-2 .6-2 1.4 0 1 .8 1.6 2 1.6zm5.7-7h1.2v1.3c.6-.9 1.4-1.4 2.5-1.4 1.7 0 2.8 1.2 2.8 2.9v5.1h-1.2v-4.7c0-1.4-.8-2.2-2.1-2.2-.9 0-1.6.4-2 1.2v5.8h-1.2v-8zm14.6 6.8c-.6.8-1.5 1.2-2.5 1.2-2 0-3.6-1.8-3.6-4 0-2.3 1.6-4 3.7-4 1 0 1.8.4 2.4 1.1v-4.6l1.2-.2V170h-1.2v-1zm-2.2.1c.9 0 1.7-.4 2.2-1v-3.9c-.5-.7-1.3-1.1-2.2-1.1-1.6 0-2.7 1.3-2.7 3s1.1 3 2.7 3zm9.1-1.3c0-1.4 1.2-2.3 2.9-2.3.9 0 1.7.2 2.4.6V165c0-1.3-.7-1.9-2-1.9-.7 0-1.5.2-2.4.7l-.4-.9c1.1-.5 2-.8 2.9-.8 1.9 0 3 1 3 2.8v5.2H191v-.9c-.7.7-1.5 1.1-2.5 1.1-1.7-.2-2.8-1.1-2.8-2.5zm3 1.4c.9 0 1.6-.3 2.2-.9v-1.5c-.7-.4-1.3-.6-2.2-.6-1.2 0-2 .6-2 1.4.1 1 .9 1.6 2 1.6zm7 .8h-1.2v-11.4l1.2-.2V170zm3.5 0H198v-11.4l1.2-.2V170zm7.1-6.9h-1.6v-1h1.6V160l1.2-.3v2.4h2.2v1h-2.2v4.8c0 .8.3 1.2 1.1 1.2.4 0 .7 0 1.1-.2v1c-.4.1-.9.2-1.4.2-1.3 0-2-.7-2-1.9v-5.1zm7.3 6.9-3-7.8h1.3l2.4 6.4 2.5-6.4h1.3l-3.9 9.4c-.5 1.3-1.1 1.7-2.2 1.7-.2 0-.5 0-.8-.1v-1c.3.1.5.1.6.1.6 0 1-.3 1.2-1l.6-1.3zm5.9-7.8h1.2v1.1c.6-.8 1.5-1.2 2.5-1.2 2 0 3.6 1.8 3.6 4 0 2.3-1.6 4-3.7 4-1 0-1.8-.4-2.4-1.1v4.3h-1.2v-11.1zm1.2 2v3.8c.5.7 1.3 1.1 2.2 1.1 1.6 0 2.7-1.3 2.7-3s-1.2-3-2.7-3c-.9 0-1.7.4-2.2 1.1zm11.7 5.9c-2.2 0-3.9-1.8-3.9-4s1.6-4 3.7-4c2 0 3.6 1.7 3.6 3.9v.4h-6.1c.1 1.6 1.3 2.8 2.8 2.8.8 0 1.6-.3 2.1-.8l.7.8c-.9.6-1.8.9-2.9.9zm-2.7-4.6h4.9c-.2-1.4-1.2-2.4-2.4-2.4-1.3 0-2.3 1-2.5 2.4zm8.1 2.7c.9.7 1.7 1 2.5 1 1.1 0 2-.6 2-1.4 0-.6-.4-1-1.4-1.2l-1.3-.2c-1.5-.3-2.2-.9-2.2-2 0-1.3 1.2-2.3 2.8-2.3 1.1 0 2 .3 3 1l-.6.8c-.8-.6-1.6-.8-2.4-.8-1 0-1.7.5-1.7 1.2 0 .6.3.9 1.3 1.1l1.3.2c1.6.3 2.3.9 2.3 2.1 0 1.4-1.3 2.4-3 2.4-1.3 0-2.4-.4-3.2-1.2l.6-.7zm14.5-6.1c2.2 0 3.8 1.7 3.8 4s-1.6 4.1-3.8 4.1c-2.1 0-3.8-1.8-3.8-4.1s1.6-4 3.8-4zm2.6 4c0-1.7-1.1-3-2.7-3s-2.6 1.3-2.6 3 1.1 3 2.6 3 2.7-1.3 2.7-3zm3.7-3.9v-1.7c0-1.5.8-2.4 2.3-2.4.4 0 .8 0 1.1.1v1.1c-.4-.1-.6-.1-.9-.1-.9 0-1.3.4-1.3 1.4v1.7h2.2v1h-2.2v6.9h-1.2v-6.9h-1.7v-1h1.7zm14.4 6 .7.7c-.8.8-1.8 1.3-3 1.3-2.2 0-3.9-1.8-3.9-4 0-2.3 1.7-4 3.9-4 1.2 0 2.2.4 3 1.2l-.8.8c-.6-.6-1.4-1-2.2-1-1.5 0-2.7 1.3-2.7 3s1.2 3 2.8 3c.9-.1 1.7-.4 2.2-1zm3.6 1.8h-1.2v-11.4l1.2-.2V170zm5.8-7.9c2.2 0 3.8 1.7 3.8 4s-1.6 4.1-3.8 4.1c-2.1 0-3.8-1.8-3.8-4.1s1.7-4 3.8-4zm2.7 4c0-1.7-1.1-3-2.7-3s-2.6 1.3-2.6 3 1.1 3 2.6 3 2.7-1.3 2.7-3zm4.3.8c0 1.4.8 2.3 2.1 2.3.9 0 1.6-.4 2-1.2v-5.8h1.2v7.8h-1.2v-1.3c-.6.9-1.4 1.4-2.5 1.4-1.7 0-2.8-1.2-2.8-2.9v-5h1.2v4.7zm13.5 2.1c-.6.8-1.5 1.2-2.5 1.2-2 0-3.6-1.8-3.6-4 0-2.3 1.6-4 3.7-4 1 0 1.8.4 2.4 1.1v-4.6l1.2-.2V170h-1.2v-1zm-2.2.1c.9 0 1.7-.4 2.2-1v-3.9c-.5-.7-1.3-1.1-2.2-1.1-1.6 0-2.7 1.3-2.7 3-.1 1.7 1.1 3 2.7 3zm13 1c-2.2 0-3.9-1.8-3.9-4s1.6-4 3.7-4c2 0 3.6 1.7 3.6 3.9v.4H311c.1 1.6 1.3 2.8 2.8 2.8.8 0 1.6-.3 2.1-.8l.7.8c-.9.6-1.8.9-2.9.9zm-2.7-4.6h4.9c-.2-1.4-1.2-2.4-2.4-2.4-1.3 0-2.3 1-2.5 2.4zm8.1-3.3h1.2v1.3c.6-.9 1.4-1.4 2.5-1.4 1.7 0 2.8 1.2 2.8 2.9v5.1h-1.2v-4.7c0-1.4-.8-2.2-2.1-2.2-.9 0-1.6.4-2 1.2v5.8h-1.2v-8zm7.5 0h1.3l2.5 6.4 2.5-6.4h1.2l-3.2 7.8h-1.1l-3.2-7.8zm8.7-2.8c0-.4.4-.8.8-.8s.8.4.8.8c0 .5-.4.8-.8.8-.4.1-.8-.3-.8-.8zm1.5 10.6h-1.2v-7.8h1.2v7.8zm2.4-7.8h1.2v1.6c.4-1.1 1.2-1.7 2.2-1.7.3 0 .5 0 .7.1v1.1c-.3-.1-.6-.1-.8-.1-1 0-1.7.6-2.1 1.6v5.3h-1.2v-7.9zm8.5-.1c2.2 0 3.8 1.7 3.8 4s-1.6 4.1-3.8 4.1c-2.1 0-3.8-1.8-3.8-4.1s1.7-4 3.8-4zm2.7 4c0-1.7-1.1-3-2.7-3s-2.6 1.3-2.6 3 1.1 3 2.6 3 2.7-1.3 2.7-3zm3.2-3.9h1.2v1.3c.6-.9 1.4-1.4 2.5-1.4 1.7 0 2.8 1.2 2.8 2.9v5.1h-1.2v-4.7c0-1.4-.8-2.2-2.1-2.2-.9 0-1.6.4-2 1.2v5.8h-1.2v-8zm8.8 0h1.2v1.2c.6-.9 1.4-1.3 2.3-1.3 1.1 0 2 .6 2.4 1.5.6-1 1.5-1.5 2.6-1.5 1.6 0 2.7 1.2 2.7 2.9v5h-1.2v-4.8c0-1.4-.7-2.2-1.9-2.2-.8 0-1.5.4-2 1.2 0 .2.1.4.1.7v5h-1.2v-4.8c0-1.4-.8-2.2-1.9-2.2-.8 0-1.4.4-1.9 1.2v5.8h-1.2v-7.7zm17.1 7.9c-2.2 0-3.9-1.8-3.9-4s1.6-4 3.7-4c2 0 3.6 1.7 3.6 3.9v.4h-6.1c.1 1.6 1.3 2.8 2.8 2.8.8 0 1.6-.3 2.1-.8l.7.8c-.9.6-1.8.9-2.9.9zm-2.7-4.6h4.9c-.2-1.4-1.2-2.4-2.4-2.4-1.3 0-2.3 1-2.5 2.4zm8.1-3.3h1.2v1.3c.6-.9 1.4-1.4 2.5-1.4 1.7 0 2.8 1.2 2.8 2.9v5.1h-1.2v-4.7c0-1.4-.8-2.2-2.1-2.2-.9 0-1.6.4-2 1.2v5.8h-1.2v-8zm9.5.9h-1.6v-1h1.6V160l1.2-.3v2.4h2.2v1h-2.2v4.8c0 .8.3 1.2 1.1 1.2.4 0 .7 0 1.1-.2v1c-.4.1-.9.2-1.4.2-1.3 0-2-.7-2-1.9v-5.1zm5.1 5.1c.9.7 1.7 1 2.5 1 1.1 0 2-.6 2-1.4 0-.6-.4-1-1.4-1.2l-1.3-.2c-1.5-.3-2.2-.9-2.2-2 0-1.3 1.2-2.3 2.8-2.3 1.1 0 2 .3 3 1l-.6.8c-.8-.6-1.6-.8-2.4-.8-1 0-1.7.5-1.7 1.2 0 .6.3.9 1.3 1.1l1.3.2c1.6.3 2.3.9 2.3 2.1 0 1.4-1.3 2.4-3 2.4-1.3 0-2.4-.4-3.2-1.2l.6-.7zm8.6 1c0 .5-.4.9-.8.9-.5 0-.8-.4-.8-.9s.4-.9.8-.9c.4.1.8.5.8.9z" class="disclosure-bestpractice-2_svg__st3"/>
  </g>
  <path fill="#06c" d="M31.6 72.4h5.2c2.4 0 4 1.5 4 3.6 0 1.7-1 2.9-2.6 3.4l2.7 5.6h-1.5l-2.6-5.4H33V85h-1.4V72.4zm1.4 1.2v4.8h3.7c1.7 0 2.7-1 2.7-2.4 0-1.5-1.1-2.4-2.7-2.4H33zm13.5 11.6c-2.5 0-4.4-2-4.4-4.6 0-2.6 1.8-4.5 4.1-4.5s4 1.9 4 4.4v.4h-6.9c.1 1.8 1.5 3.1 3.1 3.1.9 0 1.8-.3 2.4-.9l.8.9c-.8.8-1.9 1.2-3.1 1.2zm-3-5.2h5.6c-.2-1.6-1.3-2.8-2.8-2.8-1.5 0-2.6 1.1-2.8 2.8zm15.6 3.8c-.7.8-1.7 1.3-2.8 1.3-2.3 0-4.1-2-4.1-4.5s1.8-4.5 4.1-4.5c1.1 0 2 .4 2.7 1.2v-5.2l1.3-.3V85H59v-1.2zm-2.5.2c1 0 1.9-.4 2.5-1.2v-4.4c-.6-.7-1.5-1.2-2.5-1.2-1.8 0-3.1 1.4-3.1 3.3s1.3 3.5 3.1 3.5zm10.9-11.6h1.4V78h7.2v-5.6h1.4V85h-1.4v-5.7h-7.2V85h-1.4V72.4zm12.3 10.1c0-1.6 1.3-2.6 3.3-2.6 1 0 1.9.2 2.7.7v-1.2c0-1.4-.8-2.2-2.3-2.2-.8 0-1.6.2-2.7.8l-.5-1c1.2-.6 2.3-.8 3.3-.8 2.2 0 3.4 1.1 3.4 3.1v5.8h-1.3v-1c-.8.8-1.7 1.2-2.8 1.2-1.8-.1-3.1-1.2-3.1-2.8zm3.4 1.7c1 0 1.8-.3 2.5-1v-1.7c-.7-.4-1.5-.6-2.5-.6-1.3 0-2.2.6-2.2 1.6s.9 1.7 2.2 1.7zm7.3-6.9h-1.8v-1.1h1.8v-2.4l1.3-.3v2.7h2.5v1.1h-2.5v5.4c0 .9.4 1.3 1.3 1.3.5 0 .8-.1 1.2-.2V85c-.5.2-1 .2-1.5.2-1.5 0-2.3-.7-2.3-2.1v-5.8zm10.2-4.9h8.6v1.2h-7.2V78h5v1.2h-5v4.6h7.3V85h-8.7V72.4zm10.9 3.8h1.3v1.4c.7-1 1.6-1.6 2.8-1.6 1.9 0 3.2 1.3 3.2 3.2v5.7h-1.3v-5.3c0-1.5-.9-2.5-2.4-2.5-1 0-1.8.5-2.3 1.3v6.5h-1.3v-8.7zm10.7 1.1h-1.8v-1.1h1.8v-2.4l1.3-.3v2.7h2.5v1.1h-2.5v5.4c0 .9.4 1.3 1.3 1.3.5 0 .8-.1 1.2-.2V85c-.5.2-1 .2-1.5.2-1.5 0-2.3-.7-2.3-2.1v-5.8zm9.5 7.9c-2.5 0-4.4-2-4.4-4.6 0-2.6 1.8-4.5 4.1-4.5s4 1.9 4 4.4v.4h-6.9c.1 1.8 1.5 3.1 3.1 3.1.9 0 1.8-.3 2.4-.9l.8.9c-.8.8-1.9 1.2-3.1 1.2zm-3.1-5.2h5.6c-.2-1.6-1.3-2.8-2.8-2.8-1.4 0-2.5 1.1-2.8 2.8zm9.2-3.8h1.3V78c.5-1.2 1.3-1.9 2.4-1.9.3 0 .6 0 .8.1v1.2c-.3-.1-.6-.2-.9-.2-1.1 0-1.9.6-2.4 1.8v6h-1.3v-8.8zm6.3 0h1.3v1.3c.7-.9 1.7-1.4 2.8-1.4 2.3 0 4.1 2 4.1 4.5s-1.8 4.5-4.1 4.5c-1.1 0-2.1-.4-2.8-1.2v4.9h-1.3V76.2zm1.3 2.3v4.3c.6.8 1.5 1.2 2.5 1.2 1.8 0 3.1-1.4 3.1-3.4 0-1.9-1.3-3.4-3.1-3.4-1 .1-1.9.5-2.5 1.3zm9.2-2.3h1.3V78c.5-1.2 1.3-1.9 2.4-1.9.3 0 .6 0 .8.1v1.2c-.3-.1-.6-.2-.9-.2-1.1 0-1.9.6-2.4 1.8v6h-1.3v-8.8zm6-3.1c0-.5.4-.9 1-.9.5 0 .9.4.9.9s-.4 1-.9 1c-.6 0-1-.5-1-1zm1.6 11.9H161v-8.8h1.3V85zm2.6-2c1 .8 1.9 1.1 2.8 1.1 1.3 0 2.2-.7 2.2-1.6 0-.7-.5-1.1-1.6-1.3l-1.4-.3c-1.7-.3-2.5-1-2.5-2.3 0-1.5 1.3-2.6 3.2-2.6 1.2 0 2.2.3 3.3 1.1l-.6.9c-.9-.6-1.8-.9-2.8-.9-1.2 0-1.9.5-1.9 1.4 0 .7.4 1.1 1.5 1.3l1.5.3c1.8.3 2.6 1.1 2.6 2.4 0 1.5-1.5 2.7-3.4 2.7-1.4 0-2.7-.5-3.6-1.3l.7-.9zm12.3 2.2c-2.5 0-4.4-2-4.4-4.6 0-2.6 1.8-4.5 4.1-4.5s4 1.9 4 4.4v.4H174c.1 1.8 1.5 3.1 3.1 3.1.9 0 1.8-.3 2.4-.9l.8.9c-.8.8-1.9 1.2-3.1 1.2zm-3-5.2h5.6c-.2-1.6-1.3-2.8-2.8-2.8-1.5 0-2.6 1.1-2.8 2.8zm13.5-7.6h1.4v11.4h7.1V85h-8.5V72.4zm10.4.7c0-.5.4-.9 1-.9.5 0 .9.4.9.9s-.4 1-.9 1c-.6 0-1-.5-1-1zm1.6 11.9h-1.3v-8.8h1.3V85zm2.7-8.8h1.3v1.4c.7-1 1.6-1.6 2.8-1.6 1.9 0 3.2 1.3 3.2 3.2v5.7h-1.3v-5.3c0-1.5-.9-2.5-2.4-2.5-1 0-1.8.5-2.3 1.3v6.5h-1.3v-8.7zm11.1 5.3c0 1.6.9 2.5 2.3 2.5 1 0 1.8-.5 2.3-1.3v-6.5h1.3V85h-1.3v-1.4c-.7 1-1.6 1.6-2.8 1.6-1.9 0-3.2-1.3-3.2-3.3v-5.7h1.3v5.3zm10.9-1-3.2-4.3h1.6l2.4 3.3 2.4-3.3h1.5l-3.2 4.2 3.4 4.6h-1.6l-2.6-3.6-2.6 3.6H221l3.4-4.5z" class="disclosure-bestpractice-2_svg__st2"/>
  <g class="disclosure-bestpractice-2_svg__st2">
    <path d="M55.4 25.8H60c2.1 0 3.6 1.3 3.6 3.2 0 1.5-.9 2.6-2.3 3l2.4 4.9h-1.4L60 32.1h-3.3v4.8h-1.2V25.8zm1.3 1.1v4.3H60c1.5 0 2.4-.8 2.4-2.1s-1-2.2-2.4-2.2h-3.3zm12 10.2c-2.2 0-3.9-1.8-3.9-4s1.6-4 3.7-4c2 0 3.6 1.7 3.6 3.9v.4H66c.1 1.6 1.3 2.8 2.8 2.8.8 0 1.6-.3 2.1-.8l.7.8c-.9.6-1.8.9-2.9.9zM66 32.5h4.9c-.2-1.4-1.2-2.4-2.4-2.4-1.3 0-2.3 1-2.5 2.4zm8 2.7c.9.7 1.7 1 2.5 1 1.1 0 2-.6 2-1.4 0-.6-.4-1-1.4-1.2l-1.3-.2c-1.5-.3-2.2-.9-2.2-2 0-1.3 1.2-2.3 2.8-2.3 1.1 0 2 .3 3 1l-.6.8c-.8-.6-1.6-.8-2.4-.8-1 0-1.7.5-1.7 1.2 0 .6.3.9 1.3 1.1l1.3.2c1.6.3 2.3.9 2.3 2.1 0 1.4-1.3 2.4-3 2.4-1.3 0-2.4-.4-3.2-1.2l.6-.7zm8.5-1.3c0 1.4.8 2.3 2.1 2.3.9 0 1.6-.4 2-1.2v-5.8h1.2V37h-1.2v-1.3c-.6.9-1.4 1.4-2.5 1.4-1.7 0-2.8-1.2-2.8-2.9v-5h1.2v4.7zm8.9 3.1h-1.2V25.6l1.2-.2V37zm3.3-6.9h-1.6v-1h1.6V27l1.2-.3v2.4h2.2v1h-2.2v4.8c0 .8.3 1.2 1.1 1.2.4 0 .7 0 1.1-.2v1c-.4.1-.9.2-1.4.2-1.3 0-2-.7-2-1.9v-5.1zm5.2 5.1c.9.7 1.7 1 2.5 1 1.1 0 2-.6 2-1.4 0-.6-.4-1-1.4-1.2l-1.3-.2c-1.5-.3-2.2-.9-2.2-2 0-1.3 1.2-2.3 2.8-2.3 1.1 0 2 .3 3 1l-.6.8c-.8-.6-1.6-.8-2.4-.8-1 0-1.7.5-1.7 1.2 0 .6.3.9 1.3 1.1l1.3.2c1.6.3 2.3.9 2.3 2.1 0 1.4-1.3 2.4-3 2.4-1.3 0-2.4-.4-3.2-1.2l.6-.7zm12-6v-1.7c0-1.5.8-2.4 2.3-2.4.4 0 .8 0 1.1.1v1.1c-.4-.1-.6-.1-.9-.1-.9 0-1.3.4-1.3 1.4v1.7h2.2v1h-2.2v6.9h-1.2v-6.9h-1.7v-1h1.7zm5 0h1.2v1.6c.4-1.1 1.2-1.7 2.2-1.7.3 0 .5 0 .7.1v1.1c-.3-.1-.6-.1-.8-.1-1 0-1.7.6-2.1 1.6v5.3h-1.2v-7.9zm8.5-.1c2.2 0 3.8 1.7 3.8 4s-1.6 4.1-3.8 4.1c-2.1 0-3.8-1.8-3.8-4.1s1.7-4 3.8-4zm2.7 4c0-1.7-1.1-3-2.7-3s-2.6 1.3-2.6 3 1.1 3 2.6 3 2.7-1.3 2.7-3zm3.2-3.9h1.2v1.2c.6-.9 1.4-1.3 2.3-1.3 1.1 0 2 .6 2.4 1.5.6-1 1.5-1.5 2.6-1.5 1.6 0 2.7 1.2 2.7 2.9v5h-1.2v-4.8c0-1.4-.7-2.2-1.9-2.2-.8 0-1.5.4-2 1.2 0 .2.1.4.1.7v5h-1.2v-4.8c0-1.4-.8-2.2-1.9-2.2-.8 0-1.4.4-1.9 1.2v5.8h-1.2v-7.7zm26 5.3.8.8c-1.1 1.2-2.6 1.8-4.2 1.8-3.2 0-5.7-2.6-5.7-5.8 0-3.2 2.5-5.8 5.7-5.8 1.6 0 3.2.7 4.2 1.8l-.8.8c-.8-1-2.1-1.6-3.4-1.6-2.5 0-4.5 2-4.5 4.7s1.9 4.7 4.5 4.7c1.4.2 2.6-.4 3.4-1.4zm3.8-.6c0 1.4.8 2.3 2.1 2.3.9 0 1.6-.4 2-1.2v-5.8h1.2V37h-1.2v-1.3c-.6.9-1.4 1.4-2.5 1.4-1.7 0-2.8-1.2-2.8-2.9v-5h1.2v4.7zm7.5 1.3c.9.7 1.7 1 2.5 1 1.1 0 2-.6 2-1.4 0-.6-.4-1-1.4-1.2l-1.3-.2c-1.5-.3-2.2-.9-2.2-2 0-1.3 1.2-2.3 2.8-2.3 1.1 0 2 .3 3 1l-.6.8c-.8-.6-1.6-.8-2.4-.8-1 0-1.7.5-1.7 1.2 0 .6.3.9 1.3 1.1l1.3.2c1.6.3 2.3.9 2.3 2.1 0 1.4-1.3 2.4-3 2.4-1.3 0-2.4-.4-3.2-1.2l.6-.7zm8.2-5.1h-1.6v-1h1.6V27l1.2-.3v2.4h2.2v1H178v4.8c0 .8.3 1.2 1.1 1.2.4 0 .7 0 1.1-.2v1c-.4.1-.9.2-1.4.2-1.3 0-2-.7-2-1.9v-5.1zm8.3-1c2.2 0 3.8 1.7 3.8 4s-1.6 4.1-3.8 4.1c-2.1 0-3.8-1.8-3.8-4.1s1.7-4 3.8-4zm2.7 4c0-1.7-1.1-3-2.7-3s-2.6 1.3-2.6 3 1.1 3 2.6 3 2.7-1.3 2.7-3zm3.2-3.9h1.2v1.2c.6-.9 1.4-1.3 2.3-1.3 1.1 0 2 .6 2.4 1.5.6-1 1.5-1.5 2.6-1.5 1.6 0 2.7 1.2 2.7 2.9v5H201v-4.8c0-1.4-.7-2.2-1.9-2.2-.8 0-1.5.4-2 1.2 0 .2.1.4.1.7v5H196v-4.8c0-1.4-.8-2.2-1.9-2.2-.8 0-1.4.4-1.9 1.2v5.8H191v-7.7zm17 7.9c-2.2 0-3.9-1.8-3.9-4s1.6-4 3.7-4c2 0 3.6 1.7 3.6 3.9v.4h-6.1c.1 1.6 1.3 2.8 2.8 2.8.8 0 1.6-.3 2.1-.8l.7.8c-.9.6-1.8.9-2.9.9zm-2.7-4.6h4.9c-.2-1.4-1.2-2.4-2.4-2.4-1.3 0-2.3 1-2.5 2.4zm8.1-3.3h1.2v1.6c.4-1.1 1.2-1.7 2.2-1.7.3 0 .5 0 .7.1v1.1c-.3-.1-.6-.1-.8-.1-1 0-1.7.6-2.1 1.6v5.3h-1.2v-7.9zm9.4 0h1.2v1.1c.6-.8 1.5-1.2 2.5-1.2 2 0 3.6 1.8 3.6 4 0 2.3-1.6 4-3.7 4-1 0-1.8-.4-2.4-1.1v4.3h-1.2V29.2zm1.1 2V35c.5.7 1.3 1.1 2.2 1.1 1.6 0 2.7-1.3 2.7-3s-1.2-3-2.7-3c-.9 0-1.7.4-2.2 1.1zm11.6-2.1c2.2 0 3.8 1.7 3.8 4s-1.6 4.1-3.8 4.1c-2.1 0-3.8-1.8-3.8-4.1.1-2.3 1.7-4 3.8-4zm2.7 4c0-1.7-1.1-3-2.7-3s-2.6 1.3-2.6 3 1.1 3 2.6 3 2.7-1.3 2.7-3zm3.2-3.9h1.2v1.6c.4-1.1 1.2-1.7 2.2-1.7.3 0 .5 0 .7.1v1.1c-.3-.1-.6-.1-.8-.1-1 0-1.7.6-2.1 1.6v5.3h-1.2v-7.9zm6.6.9h-1.6v-1h1.6V27l1.2-.3v2.4h2.2v1h-2.2v4.8c0 .8.3 1.2 1.1 1.2.4 0 .7 0 1.1-.2v1c-.4.1-.9.2-1.4.2-1.3 0-2-.7-2-1.9v-5.1zm4.7 4.7c0-1.4 1.2-2.3 2.9-2.3.9 0 1.7.2 2.4.6V32c0-1.3-.7-1.9-2-1.9-.7 0-1.5.2-2.4.7l-.4-.9c1.1-.5 2-.8 2.9-.8 1.9 0 3 1 3 2.8v5.2H258v-.9c-.7.7-1.5 1.1-2.5 1.1-1.6-.2-2.8-1.1-2.8-2.5zm3.1 1.4c.9 0 1.6-.3 2.2-.9v-1.5c-.7-.4-1.3-.6-2.2-.6-1.2 0-2 .6-2 1.4 0 1 .8 1.6 2 1.6zm6.9.8h-1.2V25.6l1.2-.2V37z" class="disclosure-bestpractice-2_svg__st3"/>
  </g>
  <path fill="none" d="M22 19h24v24H22z"/>
  <path d="m33.2 36-6.9-6.9c-.4-.5-.4-1.2 0-1.6l1.2-1.2c.5-.4 1.2-.4 1.6 0l4.9 4.9 4.9-4.9c.5-.4 1.2-.4 1.6 0l1.2 1.2c.4.5.4 1.2 0 1.6L34.8 36c-.5.4-1.1.4-1.6 0z" class="disclosure-bestpractice-2_svg__st3"/>
  <path fill="#e00" d="M6 3h3v196H6z"/>
  <g opacity=".05">
    <path fill="red" d="M800 3h54v196h-54zm-70 0h54v196h-54zm-70 0h54v196h-54zm-70 0h54v196h-54z"/>
    <path fill="#151515" d="M520 3h54v196h-54zm-70 0h54v196h-54zm-70 0h54v196h-54zm-70 0h54v196h-54zm-70 0h54v196h-54zm-70 0h54v196h-54zm-70 0h54v196h-54zM30 3h54v196H30z" opacity=".5"/>
  </g>
</svg>
