<svg width="241" height="24" viewBox="0 0 241 24" fill="none" xmlns="http://www.w3.org/2000/svg">
<rect x="163" width="40" height="24" rx="12" fill="#0066CC"/>
<circle cx="191" cy="12" r="7" fill="white"/>
<path d="M225.48 18.176C224.701 18.176 223.976 18.032 223.304 17.744C222.632 17.4453 222.04 17.0347 221.528 16.512C221.027 15.9787 220.632 15.3653 220.344 14.672C220.056 13.968 219.912 13.2107 219.912 12.4C219.912 11.5893 220.056 10.8373 220.344 10.144C220.632 9.44 221.027 8.82667 221.528 8.304C222.04 7.77067 222.632 7.36 223.304 7.072C223.976 6.77333 224.701 6.624 225.48 6.624C226.259 6.624 226.984 6.77333 227.656 7.072C228.328 7.36 228.915 7.77067 229.416 8.304C229.928 8.82667 230.328 9.44 230.616 10.144C230.904 10.8373 231.048 11.5893 231.048 12.4C231.048 13.2107 230.904 13.968 230.616 14.672C230.328 15.3653 229.928 15.9787 229.416 16.512C228.915 17.0347 228.328 17.4453 227.656 17.744C226.984 18.032 226.259 18.176 225.48 18.176ZM225.48 17.056C226.088 17.056 226.653 16.9387 227.176 16.704C227.699 16.4693 228.157 16.1387 228.552 15.712C228.947 15.2853 229.251 14.7893 229.464 14.224C229.688 13.6587 229.8 13.0507 229.8 12.4C229.8 11.7387 229.688 11.1307 229.464 10.576C229.251 10.0107 228.947 9.51467 228.552 9.088C228.157 8.66133 227.699 8.33067 227.176 8.096C226.653 7.86133 226.088 7.744 225.48 7.744C224.872 7.744 224.307 7.86133 223.784 8.096C223.261 8.33067 222.803 8.66133 222.408 9.088C222.013 9.51467 221.704 10.0107 221.48 10.576C221.267 11.1307 221.16 11.7333 221.16 12.384C221.16 13.0453 221.267 13.6587 221.48 14.224C221.704 14.7893 222.013 15.2853 222.408 15.712C222.803 16.1387 223.261 16.4693 223.784 16.704C224.307 16.9387 224.872 17.056 225.48 17.056ZM233.153 18V10.192H234.321V11.456C234.62 10.9867 234.977 10.64 235.393 10.416C235.809 10.1813 236.278 10.064 236.801 10.064C237.366 10.064 237.857 10.1867 238.273 10.432C238.7 10.6667 239.03 11.0027 239.265 11.44C239.51 11.8667 239.633 12.368 239.633 12.944V18H238.465V13.28C238.465 12.5867 238.273 12.0427 237.889 11.648C237.516 11.2427 237.009 11.04 236.369 11.04C235.942 11.04 235.553 11.1413 235.201 11.344C234.849 11.5467 234.556 11.8453 234.321 12.24V18H233.153Z" fill="#151515"/>
<path d="M1.176 17V7.2H8.19V8.628H2.856V11.358H6.58V12.758H2.856V15.572H8.246V17H1.176ZM9.94875 17V9.986H11.5308V11.134C11.8014 10.714 12.1234 10.4013 12.4968 10.196C12.8701 9.98133 13.2854 9.874 13.7428 9.874C14.2281 9.874 14.6528 9.98133 15.0168 10.196C15.3808 10.4013 15.6654 10.6907 15.8708 11.064C16.0854 11.4373 16.1928 11.876 16.1928 12.38V17H14.5968V12.828C14.5968 12.3147 14.4568 11.9087 14.1768 11.61C13.8968 11.302 13.5234 11.148 13.0568 11.148C12.7394 11.148 12.4501 11.2227 12.1888 11.372C11.9368 11.512 11.7174 11.722 11.5308 12.002V17H9.94875ZM21.3172 17.126C20.6545 17.126 20.0525 16.9673 19.5112 16.65C18.9792 16.3233 18.5545 15.8847 18.2372 15.334C17.9292 14.7833 17.7752 14.172 17.7752 13.5C17.7752 12.8187 17.9292 12.2073 18.2372 11.666C18.5545 11.1153 18.9792 10.6813 19.5112 10.364C20.0525 10.0373 20.6545 9.874 21.3172 9.874C21.8585 9.874 22.3719 9.97667 22.8572 10.182C23.3519 10.3873 23.7719 10.6813 24.1172 11.064L23.1372 12.086C22.8945 11.8153 22.6239 11.61 22.3252 11.47C22.0265 11.33 21.7092 11.26 21.3732 11.26C20.9905 11.26 20.6452 11.3627 20.3372 11.568C20.0385 11.764 19.8005 12.03 19.6232 12.366C19.4459 12.702 19.3572 13.08 19.3572 13.5C19.3572 13.92 19.4459 14.3027 19.6232 14.648C19.8005 14.984 20.0385 15.25 20.3372 15.446C20.6452 15.642 20.9905 15.74 21.3732 15.74C21.7092 15.74 22.0265 15.67 22.3252 15.53C22.6239 15.39 22.8945 15.1893 23.1372 14.928L24.1172 15.936C23.7719 16.3187 23.3519 16.6127 22.8572 16.818C22.3719 17.0233 21.8585 17.126 21.3172 17.126ZM25.4253 17V9.986H27.0073V11.498C27.2126 10.966 27.4786 10.56 27.8053 10.28C28.132 10 28.51 9.86 28.9393 9.86C29.07 9.86933 29.1866 9.88333 29.2893 9.902C29.392 9.91133 29.504 9.944 29.6253 10V11.386C29.504 11.33 29.364 11.288 29.2053 11.26C29.056 11.232 28.9066 11.218 28.7573 11.218C28.3746 11.218 28.0293 11.3207 27.7213 11.526C27.4226 11.7313 27.1846 12.016 27.0073 12.38V17H25.4253ZM31.5621 20.066C31.3101 20.066 31.0488 20.0333 30.7781 19.968V18.596C30.8715 18.6147 30.9695 18.6287 31.0721 18.638C31.1841 18.6473 31.2915 18.652 31.3941 18.652C31.6741 18.652 31.9028 18.5867 32.0801 18.456C32.2575 18.3253 32.4068 18.1247 32.5281 17.854L32.8501 17.07L30.2041 9.986H31.9541L33.7461 15.18L35.6921 9.986H37.4281L34.0681 18.218C33.8908 18.666 33.6901 19.0253 33.4661 19.296C33.2421 19.5667 32.9761 19.7627 32.6681 19.884C32.3695 20.0053 32.0008 20.066 31.5621 20.066ZM38.5777 19.926V9.986H40.1317V10.98C40.3837 10.644 40.6963 10.3873 41.0697 10.21C41.4523 10.0233 41.8677 9.93 42.3157 9.93C42.913 9.93 43.4497 10.0887 43.9257 10.406C44.4017 10.7233 44.7797 11.1527 45.0597 11.694C45.3397 12.2353 45.4797 12.8373 45.4797 13.5C45.4797 14.1627 45.335 14.7647 45.0457 15.306C44.7563 15.8473 44.3643 16.2767 43.8697 16.594C43.375 16.9113 42.8243 17.07 42.2177 17.07C41.7977 17.07 41.4103 16.9953 41.0557 16.846C40.7103 16.6873 40.4117 16.4633 40.1597 16.174V19.926H38.5777ZM41.8397 15.754C42.241 15.754 42.5957 15.656 42.9037 15.46C43.221 15.264 43.4683 14.998 43.6457 14.662C43.8323 14.3167 43.9257 13.9293 43.9257 13.5C43.9257 13.0707 43.8323 12.688 43.6457 12.352C43.4683 12.016 43.221 11.75 42.9037 11.554C42.5957 11.358 42.241 11.26 41.8397 11.26C41.4943 11.26 41.177 11.33 40.8877 11.47C40.5983 11.6007 40.3557 11.792 40.1597 12.044V14.97C40.365 15.2127 40.6123 15.404 40.9017 15.544C41.191 15.684 41.5037 15.754 41.8397 15.754ZM49.8321 17.14C49.1228 17.14 48.5861 16.9767 48.2221 16.65C47.8581 16.314 47.6761 15.824 47.6761 15.18V11.246H46.2761V9.986H47.6761V8.054L49.2581 7.718V9.986H51.2041V11.246H49.2581V14.83C49.2581 15.1753 49.3328 15.4227 49.4821 15.572C49.6315 15.712 49.8835 15.782 50.2381 15.782C50.3968 15.782 50.5415 15.7727 50.6721 15.754C50.8121 15.726 50.9848 15.6793 51.1901 15.614V16.944C50.9941 17.0093 50.7701 17.056 50.5181 17.084C50.2755 17.1213 50.0468 17.14 49.8321 17.14ZM55.7355 17V9.986H57.3175V17H55.7355ZM56.5335 8.558C56.2629 8.558 56.0295 8.46467 55.8335 8.278C55.6469 8.082 55.5535 7.85333 55.5535 7.592C55.5535 7.32133 55.6469 7.09267 55.8335 6.906C56.0295 6.71 56.2629 6.612 56.5335 6.612C56.8042 6.612 57.0329 6.71 57.2195 6.906C57.4155 7.09267 57.5135 7.31667 57.5135 7.578C57.5135 7.84867 57.4155 8.082 57.2195 8.278C57.0329 8.46467 56.8042 8.558 56.5335 8.558ZM59.2769 17V9.986H60.8589V11.134C61.1295 10.714 61.4515 10.4013 61.8249 10.196C62.1982 9.98133 62.6135 9.874 63.0709 9.874C63.5562 9.874 63.9809 9.98133 64.3449 10.196C64.7089 10.4013 64.9935 10.6907 65.1989 11.064C65.4135 11.4373 65.5209 11.876 65.5209 12.38V17H63.9249V12.828C63.9249 12.3147 63.7849 11.9087 63.5049 11.61C63.2249 11.302 62.8515 11.148 62.3849 11.148C62.0675 11.148 61.7782 11.2227 61.5169 11.372C61.2649 11.512 61.0455 11.722 60.8589 12.002V17H59.2769ZM69.8053 17.14C69.208 17.14 68.648 17.0607 68.1253 16.902C67.612 16.734 67.1686 16.496 66.7953 16.188L67.5373 15.138C68.004 15.4273 68.4053 15.6327 68.7413 15.754C69.0866 15.8753 69.4366 15.936 69.7913 15.936C70.2113 15.936 70.552 15.8473 70.8133 15.67C71.0746 15.4927 71.2053 15.264 71.2053 14.984C71.2053 14.7693 71.126 14.6013 70.9673 14.48C70.818 14.3493 70.5706 14.2513 70.2253 14.186L68.9933 13.976C68.312 13.8453 67.8033 13.6213 67.4673 13.304C67.1313 12.9867 66.9633 12.5667 66.9633 12.044C66.9633 11.6053 67.0753 11.2273 67.2993 10.91C67.5326 10.5833 67.85 10.3313 68.2513 10.154C68.662 9.96733 69.138 9.874 69.6793 9.874C70.1646 9.874 70.636 9.944 71.0933 10.084C71.5506 10.224 71.9986 10.434 72.4373 10.714L71.6953 11.764C71.3406 11.5307 70.986 11.3627 70.6313 11.26C70.286 11.148 69.936 11.092 69.5813 11.092C69.2173 11.092 68.9233 11.1667 68.6993 11.316C68.4846 11.456 68.3773 11.652 68.3773 11.904C68.3773 12.128 68.4473 12.3007 68.5873 12.422C68.7366 12.534 68.9933 12.618 69.3573 12.674L70.6033 12.912C71.3033 13.0333 71.8213 13.2573 72.1573 13.584C72.5026 13.9013 72.6753 14.326 72.6753 14.858C72.6753 15.2873 72.5493 15.6747 72.2973 16.02C72.0453 16.3653 71.7046 16.6407 71.2753 16.846C70.846 17.042 70.356 17.14 69.8053 17.14ZM77.0118 17.14C76.3025 17.14 75.7658 16.9767 75.4018 16.65C75.0378 16.314 74.8558 15.824 74.8558 15.18V11.246H73.4558V9.986H74.8558V8.054L76.4378 7.718V9.986H78.3838V11.246H76.4378V14.83C76.4378 15.1753 76.5125 15.4227 76.6618 15.572C76.8111 15.712 77.0631 15.782 77.4178 15.782C77.5765 15.782 77.7211 15.7727 77.8518 15.754C77.9918 15.726 78.1645 15.6793 78.3698 15.614V16.944C78.1738 17.0093 77.9498 17.056 77.6978 17.084C77.4551 17.1213 77.2265 17.14 77.0118 17.14ZM81.9127 17.126C81.4274 17.126 80.9934 17.0373 80.6107 16.86C80.2374 16.6733 79.9434 16.4213 79.7287 16.104C79.5234 15.7773 79.4207 15.404 79.4207 14.984C79.4207 14.564 79.528 14.2 79.7427 13.892C79.9667 13.584 80.2794 13.346 80.6807 13.178C81.082 13.01 81.558 12.926 82.1087 12.926C82.4354 12.926 82.7574 12.9633 83.0747 13.038C83.392 13.1033 83.7 13.2153 83.9987 13.374V12.59C83.9987 12.1233 83.8634 11.7733 83.5927 11.54C83.3314 11.3067 82.93 11.19 82.3887 11.19C82.0994 11.19 81.7867 11.2367 81.4507 11.33C81.124 11.414 80.7554 11.5493 80.3447 11.736L79.7847 10.588C80.8114 10.112 81.782 9.874 82.6967 9.874C83.6114 9.874 84.316 10.098 84.8107 10.546C85.3147 10.9847 85.5667 11.61 85.5667 12.422V17H83.9987V16.272C83.7 16.5613 83.378 16.776 83.0327 16.916C82.6874 17.056 82.314 17.126 81.9127 17.126ZM80.9047 14.956C80.9047 15.2827 81.0354 15.5393 81.2967 15.726C81.558 15.9127 81.908 16.006 82.3467 16.006C82.664 16.006 82.958 15.9593 83.2287 15.866C83.5087 15.7633 83.7654 15.614 83.9987 15.418V14.284C83.756 14.172 83.504 14.088 83.2427 14.032C82.9814 13.976 82.6967 13.948 82.3887 13.948C81.9314 13.948 81.5674 14.0367 81.2967 14.214C81.0354 14.3913 80.9047 14.6387 80.9047 14.956ZM87.482 17V6.962L89.064 6.682V17H87.482ZM91.0093 17V6.962L92.5913 6.682V17H91.0093ZM97.7986 17.14C97.1266 17.14 96.52 16.9813 95.9786 16.664C95.4373 16.3373 95.008 15.9033 94.6906 15.362C94.3733 14.8113 94.2146 14.1907 94.2146 13.5C94.2146 12.8093 94.364 12.1933 94.6626 11.652C94.9613 11.1107 95.3673 10.6813 95.8806 10.364C96.4033 10.0373 96.982 9.874 97.6166 9.874C98.27 9.874 98.844 10.0327 99.3386 10.35C99.8426 10.6673 100.235 11.0967 100.515 11.638C100.804 12.1793 100.949 12.8 100.949 13.5V13.878H95.7686C95.8246 14.2607 95.946 14.6013 96.1326 14.9C96.3286 15.1893 96.576 15.418 96.8746 15.586C97.1826 15.754 97.514 15.838 97.8686 15.838C98.1953 15.838 98.5033 15.782 98.7926 15.67C99.0913 15.5487 99.3386 15.3853 99.5346 15.18L100.571 16.118C100.141 16.4727 99.7026 16.734 99.2546 16.902C98.816 17.0607 98.3306 17.14 97.7986 17.14ZM95.7826 12.898H99.4506C99.3946 12.562 99.278 12.2633 99.1006 12.002C98.9326 11.7407 98.718 11.5353 98.4566 11.386C98.2046 11.2367 97.9246 11.162 97.6166 11.162C97.3086 11.162 97.024 11.2367 96.7626 11.386C96.5106 11.526 96.3006 11.7267 96.1326 11.988C95.9646 12.2493 95.848 12.5527 95.7826 12.898ZM105.431 17.07C104.843 17.07 104.311 16.9113 103.835 16.594C103.359 16.2673 102.977 15.838 102.687 15.306C102.407 14.7647 102.267 14.1627 102.267 13.5C102.267 12.828 102.412 12.226 102.701 11.694C102.991 11.1527 103.383 10.7233 103.877 10.406C104.381 10.0887 104.937 9.93 105.543 9.93C105.945 9.93 106.318 10.0093 106.663 10.168C107.018 10.3173 107.326 10.5413 107.587 10.84V6.962L109.169 6.682V17H107.601V16.076C107.349 16.3933 107.037 16.6407 106.663 16.818C106.29 16.986 105.879 17.07 105.431 17.07ZM105.921 15.74C106.257 15.74 106.57 15.6747 106.859 15.544C107.149 15.404 107.391 15.2127 107.587 14.97V12.016C107.382 11.7733 107.135 11.5867 106.845 11.456C106.556 11.3253 106.248 11.26 105.921 11.26C105.52 11.26 105.161 11.358 104.843 11.554C104.535 11.7407 104.288 12.002 104.101 12.338C103.915 12.674 103.821 13.0613 103.821 13.5C103.821 13.92 103.915 14.3027 104.101 14.648C104.288 14.984 104.535 15.25 104.843 15.446C105.161 15.642 105.52 15.74 105.921 15.74ZM117.121 17.07C116.533 17.07 116.001 16.9113 115.525 16.594C115.049 16.2673 114.666 15.838 114.377 15.306C114.097 14.7647 113.957 14.1627 113.957 13.5C113.957 12.828 114.101 12.226 114.391 11.694C114.68 11.1527 115.072 10.7233 115.567 10.406C116.071 10.0887 116.626 9.93 117.233 9.93C117.634 9.93 118.007 10.0093 118.353 10.168C118.707 10.3173 119.015 10.5413 119.277 10.84V6.962L120.859 6.682V17H119.291V16.076C119.039 16.3933 118.726 16.6407 118.353 16.818C117.979 16.986 117.569 17.07 117.121 17.07ZM117.611 15.74C117.947 15.74 118.259 15.6747 118.549 15.544C118.838 15.404 119.081 15.2127 119.277 14.97V12.016C119.071 11.7733 118.824 11.5867 118.535 11.456C118.245 11.3253 117.937 11.26 117.611 11.26C117.209 11.26 116.85 11.358 116.533 11.554C116.225 11.7407 115.977 12.002 115.791 12.338C115.604 12.674 115.511 13.0613 115.511 13.5C115.511 13.92 115.604 14.3027 115.791 14.648C115.977 14.984 116.225 15.25 116.533 15.446C116.85 15.642 117.209 15.74 117.611 15.74ZM122.81 17V9.986H124.392V17H122.81ZM123.608 8.558C123.337 8.558 123.104 8.46467 122.908 8.278C122.721 8.082 122.628 7.85333 122.628 7.592C122.628 7.32133 122.721 7.09267 122.908 6.906C123.104 6.71 123.337 6.612 123.608 6.612C123.878 6.612 124.107 6.71 124.294 6.906C124.49 7.09267 124.588 7.31667 124.588 7.578C124.588 7.84867 124.49 8.082 124.294 8.278C124.107 8.46467 123.878 8.558 123.608 8.558ZM128.731 17.14C128.134 17.14 127.574 17.0607 127.051 16.902C126.538 16.734 126.094 16.496 125.721 16.188L126.463 15.138C126.93 15.4273 127.331 15.6327 127.667 15.754C128.012 15.8753 128.362 15.936 128.717 15.936C129.137 15.936 129.478 15.8473 129.739 15.67C130 15.4927 130.131 15.264 130.131 14.984C130.131 14.7693 130.052 14.6013 129.893 14.48C129.744 14.3493 129.496 14.2513 129.151 14.186L127.919 13.976C127.238 13.8453 126.729 13.6213 126.393 13.304C126.057 12.9867 125.889 12.5667 125.889 12.044C125.889 11.6053 126.001 11.2273 126.225 10.91C126.458 10.5833 126.776 10.3313 127.177 10.154C127.588 9.96733 128.064 9.874 128.605 9.874C129.09 9.874 129.562 9.944 130.019 10.084C130.476 10.224 130.924 10.434 131.363 10.714L130.621 11.764C130.266 11.5307 129.912 11.3627 129.557 11.26C129.212 11.148 128.862 11.092 128.507 11.092C128.143 11.092 127.849 11.1667 127.625 11.316C127.41 11.456 127.303 11.652 127.303 11.904C127.303 12.128 127.373 12.3007 127.513 12.422C127.662 12.534 127.919 12.618 128.283 12.674L129.529 12.912C130.229 13.0333 130.747 13.2573 131.083 13.584C131.428 13.9013 131.601 14.326 131.601 14.858C131.601 15.2873 131.475 15.6747 131.223 16.02C130.971 16.3653 130.63 16.6407 130.201 16.846C129.772 17.042 129.282 17.14 128.731 17.14ZM133.05 17V6.934L134.632 6.668V12.968L137.544 9.986H139.364L136.13 13.234L139.532 17H137.516L134.632 13.766V17H133.05ZM142.936 17.14C142.339 17.14 141.779 17.0607 141.256 16.902C140.743 16.734 140.3 16.496 139.926 16.188L140.668 15.138C141.135 15.4273 141.536 15.6327 141.872 15.754C142.218 15.8753 142.568 15.936 142.922 15.936C143.342 15.936 143.683 15.8473 143.944 15.67C144.206 15.4927 144.336 15.264 144.336 14.984C144.336 14.7693 144.257 14.6013 144.098 14.48C143.949 14.3493 143.702 14.2513 143.356 14.186L142.124 13.976C141.443 13.8453 140.934 13.6213 140.598 13.304C140.262 12.9867 140.094 12.5667 140.094 12.044C140.094 11.6053 140.206 11.2273 140.43 10.91C140.664 10.5833 140.981 10.3313 141.382 10.154C141.793 9.96733 142.269 9.874 142.81 9.874C143.296 9.874 143.767 9.944 144.224 10.084C144.682 10.224 145.13 10.434 145.568 10.714L144.826 11.764C144.472 11.5307 144.117 11.3627 143.762 11.26C143.417 11.148 143.067 11.092 142.712 11.092C142.348 11.092 142.054 11.1667 141.83 11.316C141.616 11.456 141.508 11.652 141.508 11.904C141.508 12.128 141.578 12.3007 141.718 12.422C141.868 12.534 142.124 12.618 142.488 12.674L143.734 12.912C144.434 13.0333 144.952 13.2573 145.288 13.584C145.634 13.9013 145.806 14.326 145.806 14.858C145.806 15.2873 145.68 15.6747 145.428 16.02C145.176 16.3653 144.836 16.6407 144.406 16.846C143.977 17.042 143.487 17.14 142.936 17.14Z" fill="#151515"/>
</svg>
