<svg width="783" height="24" viewBox="0 0 783 24" fill="none" xmlns="http://www.w3.org/2000/svg">
<rect x="682" width="40" height="24" rx="12" fill="#0066CC"/>
<circle cx="710" cy="12" r="7" fill="white"/>
<g clip-path="url(#clip0_2508_2242)">
<path d="M691.084 16.7769L687.151 12.9091C686.95 12.7107 686.95 12.3141 687.151 12.0165L687.958 11.2231C688.261 11.0248 688.563 11.0248 688.866 11.2231L691.487 13.8017L697.134 8.14876C697.336 7.95041 697.739 7.95041 697.941 8.14876L698.849 9.04132C699.05 9.23967 699.05 9.63636 698.849 9.93388L691.891 16.7769C691.689 17.0744 691.286 17.0744 691.084 16.7769Z" fill="white"/>
</g>
<path d="M738.144 18L742.576 6.8H744.048L748.416 18H747.088L745.76 14.48H740.768L739.44 18H738.144ZM741.152 13.504H745.392L743.264 7.92L741.152 13.504ZM752.954 18.128C752.229 18.128 751.573 17.952 750.986 17.6C750.41 17.2373 749.951 16.752 749.61 16.144C749.269 15.5253 749.098 14.8427 749.098 14.096C749.098 13.3387 749.269 12.656 749.61 12.048C749.951 11.44 750.41 10.96 750.986 10.608C751.573 10.2453 752.229 10.064 752.954 10.064C753.53 10.064 754.079 10.1707 754.602 10.384C755.125 10.5973 755.578 10.896 755.962 11.28L755.21 12.096C754.933 11.7867 754.597 11.5467 754.202 11.376C753.807 11.2053 753.407 11.12 753.002 11.12C752.49 11.12 752.026 11.2533 751.61 11.52C751.205 11.7867 750.879 12.144 750.634 12.592C750.389 13.04 750.266 13.5413 750.266 14.096C750.266 14.6507 750.389 15.152 750.634 15.6C750.879 16.048 751.205 16.4053 751.61 16.672C752.026 16.9387 752.49 17.072 753.002 17.072C753.407 17.072 753.807 16.9867 754.202 16.816C754.597 16.6347 754.933 16.3947 755.21 16.096L755.962 16.912C755.578 17.296 755.125 17.5947 754.602 17.808C754.079 18.0213 753.53 18.128 752.954 18.128ZM760.723 18.16C760.051 18.16 759.539 18 759.187 17.68C758.846 17.3493 758.675 16.8747 758.675 16.256V11.152H757.059V10.192H758.675V8.048L759.843 7.776V10.192H762.083V11.152H759.843V15.952C759.843 16.368 759.928 16.6667 760.099 16.848C760.28 17.0293 760.574 17.12 760.979 17.12C761.182 17.12 761.363 17.104 761.523 17.072C761.683 17.04 761.87 16.9867 762.083 16.912V17.952C761.87 18.0267 761.646 18.08 761.411 18.112C761.176 18.144 760.947 18.16 760.723 18.16ZM763.778 18V10.192H764.946V18H763.778ZM764.37 8.256C764.135 8.256 763.932 8.176 763.762 8.016C763.602 7.84533 763.522 7.648 763.522 7.424C763.522 7.2 763.602 7.008 763.762 6.848C763.932 6.67733 764.135 6.592 764.37 6.592C764.604 6.592 764.802 6.67733 764.962 6.848C765.132 7.008 765.218 7.2 765.218 7.424C765.218 7.648 765.132 7.84533 764.962 8.016C764.802 8.176 764.604 8.256 764.37 8.256ZM769.581 18L766.381 10.192H767.645L770.173 16.544L772.669 10.192H773.917L770.701 18H769.581ZM778.642 18.16C777.917 18.16 777.261 17.984 776.674 17.632C776.087 17.2693 775.623 16.784 775.282 16.176C774.941 15.5573 774.77 14.864 774.77 14.096C774.77 13.328 774.93 12.64 775.25 12.032C775.581 11.424 776.023 10.944 776.578 10.592C777.133 10.24 777.751 10.064 778.434 10.064C779.127 10.064 779.741 10.24 780.274 10.592C780.818 10.9333 781.245 11.4027 781.554 12C781.874 12.5867 782.034 13.2533 782.034 14V14.352H775.906C775.949 14.8853 776.093 15.3653 776.338 15.792C776.594 16.208 776.925 16.5387 777.33 16.784C777.746 17.0187 778.199 17.136 778.69 17.136C779.095 17.136 779.485 17.0667 779.858 16.928C780.242 16.7787 780.567 16.5813 780.834 16.336L781.57 17.12C781.122 17.472 780.658 17.7333 780.178 17.904C779.698 18.0747 779.186 18.16 778.642 18.16ZM775.938 13.52H780.882C780.829 13.0507 780.685 12.6347 780.45 12.272C780.226 11.8987 779.938 11.6053 779.586 11.392C779.245 11.1787 778.861 11.072 778.434 11.072C778.007 11.072 777.618 11.1787 777.266 11.392C776.914 11.5947 776.621 11.8827 776.386 12.256C776.162 12.6187 776.013 13.04 775.938 13.52Z" fill="#151515"/>
<path d="M601.176 17V7.2H605.544C606.151 7.2 606.687 7.30733 607.154 7.522C607.621 7.73667 607.98 8.04 608.232 8.432C608.493 8.81467 608.624 9.26267 608.624 9.776C608.624 10.28 608.479 10.7233 608.19 11.106C607.901 11.4793 607.513 11.7593 607.028 11.946C607.625 12.1233 608.097 12.4173 608.442 12.828C608.787 13.2293 608.96 13.71 608.96 14.27C608.96 14.8113 608.825 15.2873 608.554 15.698C608.283 16.1087 607.905 16.4307 607.42 16.664C606.935 16.888 606.37 17 605.726 17H601.176ZM602.856 11.33H605.362C605.847 11.33 606.23 11.204 606.51 10.952C606.799 10.7 606.944 10.364 606.944 9.944C606.944 9.524 606.799 9.19267 606.51 8.95C606.23 8.698 605.847 8.572 605.362 8.572H602.856V11.33ZM602.856 15.628H605.516C606.048 15.628 606.473 15.4927 606.79 15.222C607.107 14.942 607.266 14.5733 607.266 14.116C607.266 13.668 607.107 13.3087 606.79 13.038C606.482 12.758 606.057 12.618 605.516 12.618H602.856V15.628ZM610.728 17V6.962L612.31 6.682V17H610.728ZM616.649 17.112C616.164 17.112 615.739 17.0047 615.375 16.79C615.011 16.5753 614.722 16.2813 614.507 15.908C614.302 15.5347 614.199 15.1007 614.199 14.606V9.986H615.795V14.144C615.795 14.6667 615.931 15.082 616.201 15.39C616.481 15.6887 616.859 15.838 617.335 15.838C617.653 15.838 617.937 15.768 618.189 15.628C618.451 15.488 618.675 15.278 618.861 14.998V9.986H620.443V17H618.861V15.866C618.591 16.2767 618.269 16.5893 617.895 16.804C617.522 17.0093 617.107 17.112 616.649 17.112ZM625.666 17.14C624.994 17.14 624.387 16.9813 623.846 16.664C623.304 16.3373 622.875 15.9033 622.558 15.362C622.24 14.8113 622.082 14.1907 622.082 13.5C622.082 12.8093 622.231 12.1933 622.53 11.652C622.828 11.1107 623.234 10.6813 623.748 10.364C624.27 10.0373 624.849 9.874 625.484 9.874C626.137 9.874 626.711 10.0327 627.206 10.35C627.71 10.6673 628.102 11.0967 628.382 11.638C628.671 12.1793 628.816 12.8 628.816 13.5V13.878H623.636C623.692 14.2607 623.813 14.6013 624 14.9C624.196 15.1893 624.443 15.418 624.742 15.586C625.05 15.754 625.381 15.838 625.736 15.838C626.062 15.838 626.37 15.782 626.66 15.67C626.958 15.5487 627.206 15.3853 627.402 15.18L628.438 16.118C628.008 16.4727 627.57 16.734 627.122 16.902C626.683 17.0607 626.198 17.14 625.666 17.14ZM623.65 12.898H627.318C627.262 12.562 627.145 12.2633 626.968 12.002C626.8 11.7407 626.585 11.5353 626.324 11.386C626.072 11.2367 625.792 11.162 625.484 11.162C625.176 11.162 624.891 11.2367 624.63 11.386C624.378 11.526 624.168 11.7267 624 11.988C623.832 12.2493 623.715 12.5527 623.65 12.898ZM633.248 17.14C632.539 17.14 632.002 16.9767 631.638 16.65C631.274 16.314 631.092 15.824 631.092 15.18V11.246H629.692V9.986H631.092V8.054L632.674 7.718V9.986H634.62V11.246H632.674V14.83C632.674 15.1753 632.749 15.4227 632.898 15.572C633.047 15.712 633.299 15.782 633.654 15.782C633.813 15.782 633.957 15.7727 634.088 15.754C634.228 15.726 634.401 15.6793 634.606 15.614V16.944C634.41 17.0093 634.186 17.056 633.934 17.084C633.691 17.1213 633.463 17.14 633.248 17.14ZM639.118 17.126C638.455 17.126 637.853 16.9673 637.312 16.65C636.78 16.3327 636.36 15.9033 636.052 15.362C635.744 14.8113 635.59 14.1907 635.59 13.5C635.59 12.8093 635.744 12.1933 636.052 11.652C636.36 11.1013 636.78 10.6673 637.312 10.35C637.844 10.0327 638.446 9.874 639.118 9.874C639.79 9.874 640.387 10.0327 640.91 10.35C641.442 10.6673 641.862 11.1013 642.17 11.652C642.478 12.1933 642.632 12.8093 642.632 13.5C642.632 14.1907 642.478 14.8113 642.17 15.362C641.862 15.9033 641.442 16.3327 640.91 16.65C640.387 16.9673 639.79 17.126 639.118 17.126ZM639.118 15.782C639.5 15.782 639.836 15.684 640.126 15.488C640.424 15.292 640.658 15.0213 640.826 14.676C640.994 14.3213 641.078 13.9293 641.078 13.5C641.078 13.0613 640.994 12.674 640.826 12.338C640.658 11.9927 640.424 11.722 640.126 11.526C639.836 11.3207 639.5 11.218 639.118 11.218C638.735 11.218 638.394 11.3207 638.096 11.526C637.797 11.722 637.564 11.9927 637.396 12.338C637.228 12.674 637.144 13.0613 637.144 13.5C637.144 13.9387 637.228 14.3307 637.396 14.676C637.564 15.0213 637.797 15.292 638.096 15.488C638.394 15.684 638.735 15.782 639.118 15.782ZM647.471 17.126C646.808 17.126 646.206 16.9673 645.665 16.65C645.133 16.3327 644.713 15.9033 644.405 15.362C644.097 14.8113 643.943 14.1907 643.943 13.5C643.943 12.8093 644.097 12.1933 644.405 11.652C644.713 11.1013 645.133 10.6673 645.665 10.35C646.197 10.0327 646.799 9.874 647.471 9.874C648.143 9.874 648.74 10.0327 649.263 10.35C649.795 10.6673 650.215 11.1013 650.523 11.652C650.831 12.1933 650.985 12.8093 650.985 13.5C650.985 14.1907 650.831 14.8113 650.523 15.362C650.215 15.9033 649.795 16.3327 649.263 16.65C648.74 16.9673 648.143 17.126 647.471 17.126ZM647.471 15.782C647.854 15.782 648.19 15.684 648.479 15.488C648.778 15.292 649.011 15.0213 649.179 14.676C649.347 14.3213 649.431 13.9293 649.431 13.5C649.431 13.0613 649.347 12.674 649.179 12.338C649.011 11.9927 648.778 11.722 648.479 11.526C648.19 11.3207 647.854 11.218 647.471 11.218C647.088 11.218 646.748 11.3207 646.449 11.526C646.15 11.722 645.917 11.9927 645.749 12.338C645.581 12.674 645.497 13.0613 645.497 13.5C645.497 13.9387 645.581 14.3307 645.749 14.676C645.917 15.0213 646.15 15.292 646.449 15.488C646.748 15.684 647.088 15.782 647.471 15.782ZM655.315 17.14C654.605 17.14 654.069 16.9767 653.705 16.65C653.341 16.314 653.159 15.824 653.159 15.18V11.246H651.759V9.986H653.159V8.054L654.741 7.718V9.986H656.687V11.246H654.741V14.83C654.741 15.1753 654.815 15.4227 654.965 15.572C655.114 15.712 655.366 15.782 655.721 15.782C655.879 15.782 656.024 15.7727 656.155 15.754C656.295 15.726 656.467 15.6793 656.673 15.614V16.944C656.477 17.0093 656.253 17.056 656.001 17.084C655.758 17.1213 655.529 17.14 655.315 17.14ZM658.087 17V6.962L659.669 6.682V11.134C659.94 10.714 660.262 10.4013 660.635 10.196C661.009 9.98133 661.424 9.874 661.881 9.874C662.367 9.874 662.791 9.98133 663.155 10.196C663.519 10.4013 663.804 10.6907 664.009 11.064C664.224 11.4373 664.331 11.876 664.331 12.38V17H662.735V12.828C662.735 12.3147 662.595 11.9087 662.315 11.61C662.035 11.302 661.662 11.148 661.195 11.148C660.878 11.148 660.589 11.2227 660.327 11.372C660.075 11.512 659.856 11.722 659.669 12.002V17H658.087Z" fill="#151515"/>
<rect x="480" width="40" height="24" rx="12" fill="#0066CC"/>
<circle cx="508" cy="12" r="7" fill="white"/>
<g clip-path="url(#clip1_2508_2242)">
<path d="M489.084 16.7769L485.151 12.9091C484.95 12.7107 484.95 12.3141 485.151 12.0165L485.958 11.2231C486.261 11.0248 486.563 11.0248 486.866 11.2231L489.487 13.8017L495.134 8.14876C495.336 7.95041 495.739 7.95041 495.941 8.14876L496.849 9.04132C497.05 9.23967 497.05 9.63636 496.849 9.93388L489.891 16.7769C489.689 17.0744 489.286 17.0744 489.084 16.7769Z" fill="white"/>
</g>
<path d="M399.176 17V7.2H403.544C404.151 7.2 404.687 7.30733 405.154 7.522C405.621 7.73667 405.98 8.04 406.232 8.432C406.493 8.81467 406.624 9.26267 406.624 9.776C406.624 10.28 406.479 10.7233 406.19 11.106C405.901 11.4793 405.513 11.7593 405.028 11.946C405.625 12.1233 406.097 12.4173 406.442 12.828C406.787 13.2293 406.96 13.71 406.96 14.27C406.96 14.8113 406.825 15.2873 406.554 15.698C406.283 16.1087 405.905 16.4307 405.42 16.664C404.935 16.888 404.37 17 403.726 17H399.176ZM400.856 11.33H403.362C403.847 11.33 404.23 11.204 404.51 10.952C404.799 10.7 404.944 10.364 404.944 9.944C404.944 9.524 404.799 9.19267 404.51 8.95C404.23 8.698 403.847 8.572 403.362 8.572H400.856V11.33ZM400.856 15.628H403.516C404.048 15.628 404.473 15.4927 404.79 15.222C405.107 14.942 405.266 14.5733 405.266 14.116C405.266 13.668 405.107 13.3087 404.79 13.038C404.482 12.758 404.057 12.618 403.516 12.618H400.856V15.628ZM408.728 17V6.962L410.31 6.682V17H408.728ZM414.649 17.112C414.164 17.112 413.739 17.0047 413.375 16.79C413.011 16.5753 412.722 16.2813 412.507 15.908C412.302 15.5347 412.199 15.1007 412.199 14.606V9.986H413.795V14.144C413.795 14.6667 413.931 15.082 414.201 15.39C414.481 15.6887 414.859 15.838 415.335 15.838C415.653 15.838 415.937 15.768 416.189 15.628C416.451 15.488 416.675 15.278 416.861 14.998V9.986H418.443V17H416.861V15.866C416.591 16.2767 416.269 16.5893 415.895 16.804C415.522 17.0093 415.107 17.112 414.649 17.112ZM423.666 17.14C422.994 17.14 422.387 16.9813 421.846 16.664C421.304 16.3373 420.875 15.9033 420.558 15.362C420.24 14.8113 420.082 14.1907 420.082 13.5C420.082 12.8093 420.231 12.1933 420.53 11.652C420.828 11.1107 421.234 10.6813 421.748 10.364C422.27 10.0373 422.849 9.874 423.484 9.874C424.137 9.874 424.711 10.0327 425.206 10.35C425.71 10.6673 426.102 11.0967 426.382 11.638C426.671 12.1793 426.816 12.8 426.816 13.5V13.878H421.636C421.692 14.2607 421.813 14.6013 422 14.9C422.196 15.1893 422.443 15.418 422.742 15.586C423.05 15.754 423.381 15.838 423.736 15.838C424.062 15.838 424.37 15.782 424.66 15.67C424.958 15.5487 425.206 15.3853 425.402 15.18L426.438 16.118C426.008 16.4727 425.57 16.734 425.122 16.902C424.683 17.0607 424.198 17.14 423.666 17.14ZM421.65 12.898H425.318C425.262 12.562 425.145 12.2633 424.968 12.002C424.8 11.7407 424.585 11.5353 424.324 11.386C424.072 11.2367 423.792 11.162 423.484 11.162C423.176 11.162 422.891 11.2367 422.63 11.386C422.378 11.526 422.168 11.7267 422 11.988C421.832 12.2493 421.715 12.5527 421.65 12.898ZM431.248 17.14C430.539 17.14 430.002 16.9767 429.638 16.65C429.274 16.314 429.092 15.824 429.092 15.18V11.246H427.692V9.986H429.092V8.054L430.674 7.718V9.986H432.62V11.246H430.674V14.83C430.674 15.1753 430.749 15.4227 430.898 15.572C431.047 15.712 431.299 15.782 431.654 15.782C431.813 15.782 431.957 15.7727 432.088 15.754C432.228 15.726 432.401 15.6793 432.606 15.614V16.944C432.41 17.0093 432.186 17.056 431.934 17.084C431.691 17.1213 431.463 17.14 431.248 17.14ZM437.118 17.126C436.455 17.126 435.853 16.9673 435.312 16.65C434.78 16.3327 434.36 15.9033 434.052 15.362C433.744 14.8113 433.59 14.1907 433.59 13.5C433.59 12.8093 433.744 12.1933 434.052 11.652C434.36 11.1013 434.78 10.6673 435.312 10.35C435.844 10.0327 436.446 9.874 437.118 9.874C437.79 9.874 438.387 10.0327 438.91 10.35C439.442 10.6673 439.862 11.1013 440.17 11.652C440.478 12.1933 440.632 12.8093 440.632 13.5C440.632 14.1907 440.478 14.8113 440.17 15.362C439.862 15.9033 439.442 16.3327 438.91 16.65C438.387 16.9673 437.79 17.126 437.118 17.126ZM437.118 15.782C437.5 15.782 437.836 15.684 438.126 15.488C438.424 15.292 438.658 15.0213 438.826 14.676C438.994 14.3213 439.078 13.9293 439.078 13.5C439.078 13.0613 438.994 12.674 438.826 12.338C438.658 11.9927 438.424 11.722 438.126 11.526C437.836 11.3207 437.5 11.218 437.118 11.218C436.735 11.218 436.394 11.3207 436.096 11.526C435.797 11.722 435.564 11.9927 435.396 12.338C435.228 12.674 435.144 13.0613 435.144 13.5C435.144 13.9387 435.228 14.3307 435.396 14.676C435.564 15.0213 435.797 15.292 436.096 15.488C436.394 15.684 436.735 15.782 437.118 15.782ZM445.471 17.126C444.808 17.126 444.206 16.9673 443.665 16.65C443.133 16.3327 442.713 15.9033 442.405 15.362C442.097 14.8113 441.943 14.1907 441.943 13.5C441.943 12.8093 442.097 12.1933 442.405 11.652C442.713 11.1013 443.133 10.6673 443.665 10.35C444.197 10.0327 444.799 9.874 445.471 9.874C446.143 9.874 446.74 10.0327 447.263 10.35C447.795 10.6673 448.215 11.1013 448.523 11.652C448.831 12.1933 448.985 12.8093 448.985 13.5C448.985 14.1907 448.831 14.8113 448.523 15.362C448.215 15.9033 447.795 16.3327 447.263 16.65C446.74 16.9673 446.143 17.126 445.471 17.126ZM445.471 15.782C445.854 15.782 446.19 15.684 446.479 15.488C446.778 15.292 447.011 15.0213 447.179 14.676C447.347 14.3213 447.431 13.9293 447.431 13.5C447.431 13.0613 447.347 12.674 447.179 12.338C447.011 11.9927 446.778 11.722 446.479 11.526C446.19 11.3207 445.854 11.218 445.471 11.218C445.088 11.218 444.748 11.3207 444.449 11.526C444.15 11.722 443.917 11.9927 443.749 12.338C443.581 12.674 443.497 13.0613 443.497 13.5C443.497 13.9387 443.581 14.3307 443.749 14.676C443.917 15.0213 444.15 15.292 444.449 15.488C444.748 15.684 445.088 15.782 445.471 15.782ZM453.315 17.14C452.605 17.14 452.069 16.9767 451.705 16.65C451.341 16.314 451.159 15.824 451.159 15.18V11.246H449.759V9.986H451.159V8.054L452.741 7.718V9.986H454.687V11.246H452.741V14.83C452.741 15.1753 452.815 15.4227 452.965 15.572C453.114 15.712 453.366 15.782 453.721 15.782C453.879 15.782 454.024 15.7727 454.155 15.754C454.295 15.726 454.467 15.6793 454.673 15.614V16.944C454.477 17.0093 454.253 17.056 454.001 17.084C453.758 17.1213 453.529 17.14 453.315 17.14ZM456.087 17V6.962L457.669 6.682V11.134C457.94 10.714 458.262 10.4013 458.635 10.196C459.009 9.98133 459.424 9.874 459.881 9.874C460.367 9.874 460.791 9.98133 461.155 10.196C461.519 10.4013 461.804 10.6907 462.009 11.064C462.224 11.4373 462.331 11.876 462.331 12.38V17H460.735V12.828C460.735 12.3147 460.595 11.9087 460.315 11.61C460.035 11.302 459.662 11.148 459.195 11.148C458.878 11.148 458.589 11.2227 458.327 11.372C458.075 11.512 457.856 11.722 457.669 12.002V17H456.087Z" fill="#151515"/>
<rect x="240" width="40" height="24" rx="12" fill="#0066CC"/>
<circle cx="268" cy="12" r="7" fill="white"/>
<path d="M302.48 18.176C301.701 18.176 300.976 18.032 300.304 17.744C299.632 17.4453 299.04 17.0347 298.528 16.512C298.027 15.9787 297.632 15.3653 297.344 14.672C297.056 13.968 296.912 13.2107 296.912 12.4C296.912 11.5893 297.056 10.8373 297.344 10.144C297.632 9.44 298.027 8.82667 298.528 8.304C299.04 7.77067 299.632 7.36 300.304 7.072C300.976 6.77333 301.701 6.624 302.48 6.624C303.259 6.624 303.984 6.77333 304.656 7.072C305.328 7.36 305.915 7.77067 306.416 8.304C306.928 8.82667 307.328 9.44 307.616 10.144C307.904 10.8373 308.048 11.5893 308.048 12.4C308.048 13.2107 307.904 13.968 307.616 14.672C307.328 15.3653 306.928 15.9787 306.416 16.512C305.915 17.0347 305.328 17.4453 304.656 17.744C303.984 18.032 303.259 18.176 302.48 18.176ZM302.48 17.056C303.088 17.056 303.653 16.9387 304.176 16.704C304.699 16.4693 305.157 16.1387 305.552 15.712C305.947 15.2853 306.251 14.7893 306.464 14.224C306.688 13.6587 306.8 13.0507 306.8 12.4C306.8 11.7387 306.688 11.1307 306.464 10.576C306.251 10.0107 305.947 9.51467 305.552 9.088C305.157 8.66133 304.699 8.33067 304.176 8.096C303.653 7.86133 303.088 7.744 302.48 7.744C301.872 7.744 301.307 7.86133 300.784 8.096C300.261 8.33067 299.803 8.66133 299.408 9.088C299.013 9.51467 298.704 10.0107 298.48 10.576C298.267 11.1307 298.16 11.7333 298.16 12.384C298.16 13.0453 298.267 13.6587 298.48 14.224C298.704 14.7893 299.013 15.2853 299.408 15.712C299.803 16.1387 300.261 16.4693 300.784 16.704C301.307 16.9387 301.872 17.056 302.48 17.056ZM310.153 18V10.192H311.321V11.456C311.62 10.9867 311.977 10.64 312.393 10.416C312.809 10.1813 313.278 10.064 313.801 10.064C314.366 10.064 314.857 10.1867 315.273 10.432C315.7 10.6667 316.03 11.0027 316.265 11.44C316.51 11.8667 316.633 12.368 316.633 12.944V18H315.465V13.28C315.465 12.5867 315.273 12.0427 314.889 11.648C314.516 11.2427 314.009 11.04 313.369 11.04C312.942 11.04 312.553 11.1413 312.201 11.344C311.849 11.5467 311.556 11.8453 311.321 12.24V18H310.153Z" fill="#151515"/>
<path d="M159.176 17V7.2H163.544C164.151 7.2 164.687 7.30733 165.154 7.522C165.621 7.73667 165.98 8.04 166.232 8.432C166.493 8.81467 166.624 9.26267 166.624 9.776C166.624 10.28 166.479 10.7233 166.19 11.106C165.901 11.4793 165.513 11.7593 165.028 11.946C165.625 12.1233 166.097 12.4173 166.442 12.828C166.787 13.2293 166.96 13.71 166.96 14.27C166.96 14.8113 166.825 15.2873 166.554 15.698C166.283 16.1087 165.905 16.4307 165.42 16.664C164.935 16.888 164.37 17 163.726 17H159.176ZM160.856 11.33H163.362C163.847 11.33 164.23 11.204 164.51 10.952C164.799 10.7 164.944 10.364 164.944 9.944C164.944 9.524 164.799 9.19267 164.51 8.95C164.23 8.698 163.847 8.572 163.362 8.572H160.856V11.33ZM160.856 15.628H163.516C164.048 15.628 164.473 15.4927 164.79 15.222C165.107 14.942 165.266 14.5733 165.266 14.116C165.266 13.668 165.107 13.3087 164.79 13.038C164.482 12.758 164.057 12.618 163.516 12.618H160.856V15.628ZM168.728 17V6.962L170.31 6.682V17H168.728ZM174.649 17.112C174.164 17.112 173.739 17.0047 173.375 16.79C173.011 16.5753 172.722 16.2813 172.507 15.908C172.302 15.5347 172.199 15.1007 172.199 14.606V9.986H173.795V14.144C173.795 14.6667 173.931 15.082 174.201 15.39C174.481 15.6887 174.859 15.838 175.335 15.838C175.653 15.838 175.937 15.768 176.189 15.628C176.451 15.488 176.675 15.278 176.861 14.998V9.986H178.443V17H176.861V15.866C176.591 16.2767 176.269 16.5893 175.895 16.804C175.522 17.0093 175.107 17.112 174.649 17.112ZM183.666 17.14C182.994 17.14 182.387 16.9813 181.846 16.664C181.304 16.3373 180.875 15.9033 180.558 15.362C180.24 14.8113 180.082 14.1907 180.082 13.5C180.082 12.8093 180.231 12.1933 180.53 11.652C180.828 11.1107 181.234 10.6813 181.748 10.364C182.27 10.0373 182.849 9.874 183.484 9.874C184.137 9.874 184.711 10.0327 185.206 10.35C185.71 10.6673 186.102 11.0967 186.382 11.638C186.671 12.1793 186.816 12.8 186.816 13.5V13.878H181.636C181.692 14.2607 181.813 14.6013 182 14.9C182.196 15.1893 182.443 15.418 182.742 15.586C183.05 15.754 183.381 15.838 183.736 15.838C184.062 15.838 184.37 15.782 184.66 15.67C184.958 15.5487 185.206 15.3853 185.402 15.18L186.438 16.118C186.008 16.4727 185.57 16.734 185.122 16.902C184.683 17.0607 184.198 17.14 183.666 17.14ZM181.65 12.898H185.318C185.262 12.562 185.145 12.2633 184.968 12.002C184.8 11.7407 184.585 11.5353 184.324 11.386C184.072 11.2367 183.792 11.162 183.484 11.162C183.176 11.162 182.891 11.2367 182.63 11.386C182.378 11.526 182.168 11.7267 182 11.988C181.832 12.2493 181.715 12.5527 181.65 12.898ZM191.248 17.14C190.539 17.14 190.002 16.9767 189.638 16.65C189.274 16.314 189.092 15.824 189.092 15.18V11.246H187.692V9.986H189.092V8.054L190.674 7.718V9.986H192.62V11.246H190.674V14.83C190.674 15.1753 190.749 15.4227 190.898 15.572C191.047 15.712 191.299 15.782 191.654 15.782C191.813 15.782 191.957 15.7727 192.088 15.754C192.228 15.726 192.401 15.6793 192.606 15.614V16.944C192.41 17.0093 192.186 17.056 191.934 17.084C191.691 17.1213 191.463 17.14 191.248 17.14ZM197.118 17.126C196.455 17.126 195.853 16.9673 195.312 16.65C194.78 16.3327 194.36 15.9033 194.052 15.362C193.744 14.8113 193.59 14.1907 193.59 13.5C193.59 12.8093 193.744 12.1933 194.052 11.652C194.36 11.1013 194.78 10.6673 195.312 10.35C195.844 10.0327 196.446 9.874 197.118 9.874C197.79 9.874 198.387 10.0327 198.91 10.35C199.442 10.6673 199.862 11.1013 200.17 11.652C200.478 12.1933 200.632 12.8093 200.632 13.5C200.632 14.1907 200.478 14.8113 200.17 15.362C199.862 15.9033 199.442 16.3327 198.91 16.65C198.387 16.9673 197.79 17.126 197.118 17.126ZM197.118 15.782C197.5 15.782 197.836 15.684 198.126 15.488C198.424 15.292 198.658 15.0213 198.826 14.676C198.994 14.3213 199.078 13.9293 199.078 13.5C199.078 13.0613 198.994 12.674 198.826 12.338C198.658 11.9927 198.424 11.722 198.126 11.526C197.836 11.3207 197.5 11.218 197.118 11.218C196.735 11.218 196.394 11.3207 196.096 11.526C195.797 11.722 195.564 11.9927 195.396 12.338C195.228 12.674 195.144 13.0613 195.144 13.5C195.144 13.9387 195.228 14.3307 195.396 14.676C195.564 15.0213 195.797 15.292 196.096 15.488C196.394 15.684 196.735 15.782 197.118 15.782ZM205.471 17.126C204.808 17.126 204.206 16.9673 203.665 16.65C203.133 16.3327 202.713 15.9033 202.405 15.362C202.097 14.8113 201.943 14.1907 201.943 13.5C201.943 12.8093 202.097 12.1933 202.405 11.652C202.713 11.1013 203.133 10.6673 203.665 10.35C204.197 10.0327 204.799 9.874 205.471 9.874C206.143 9.874 206.74 10.0327 207.263 10.35C207.795 10.6673 208.215 11.1013 208.523 11.652C208.831 12.1933 208.985 12.8093 208.985 13.5C208.985 14.1907 208.831 14.8113 208.523 15.362C208.215 15.9033 207.795 16.3327 207.263 16.65C206.74 16.9673 206.143 17.126 205.471 17.126ZM205.471 15.782C205.854 15.782 206.19 15.684 206.479 15.488C206.778 15.292 207.011 15.0213 207.179 14.676C207.347 14.3213 207.431 13.9293 207.431 13.5C207.431 13.0613 207.347 12.674 207.179 12.338C207.011 11.9927 206.778 11.722 206.479 11.526C206.19 11.3207 205.854 11.218 205.471 11.218C205.088 11.218 204.748 11.3207 204.449 11.526C204.15 11.722 203.917 11.9927 203.749 12.338C203.581 12.674 203.497 13.0613 203.497 13.5C203.497 13.9387 203.581 14.3307 203.749 14.676C203.917 15.0213 204.15 15.292 204.449 15.488C204.748 15.684 205.088 15.782 205.471 15.782ZM213.315 17.14C212.605 17.14 212.069 16.9767 211.705 16.65C211.341 16.314 211.159 15.824 211.159 15.18V11.246H209.759V9.986H211.159V8.054L212.741 7.718V9.986H214.687V11.246H212.741V14.83C212.741 15.1753 212.815 15.4227 212.965 15.572C213.114 15.712 213.366 15.782 213.721 15.782C213.879 15.782 214.024 15.7727 214.155 15.754C214.295 15.726 214.467 15.6793 214.673 15.614V16.944C214.477 17.0093 214.253 17.056 214.001 17.084C213.758 17.1213 213.529 17.14 213.315 17.14ZM216.087 17V6.962L217.669 6.682V11.134C217.94 10.714 218.262 10.4013 218.635 10.196C219.009 9.98133 219.424 9.874 219.881 9.874C220.367 9.874 220.791 9.98133 221.155 10.196C221.519 10.4013 221.804 10.6907 222.009 11.064C222.224 11.4373 222.331 11.876 222.331 12.38V17H220.735V12.828C220.735 12.3147 220.595 11.9087 220.315 11.61C220.035 11.302 219.662 11.148 219.195 11.148C218.878 11.148 218.589 11.2227 218.327 11.372C218.075 11.512 217.856 11.722 217.669 12.002V17H216.087Z" fill="#151515"/>
<rect width="40" height="24" rx="12" fill="#0066CC"/>
<circle cx="28" cy="12" r="7" fill="white"/>
<path d="M62.48 18.176C61.7013 18.176 60.976 18.032 60.304 17.744C59.632 17.4453 59.04 17.0347 58.528 16.512C58.0267 15.9787 57.632 15.3653 57.344 14.672C57.056 13.968 56.912 13.2107 56.912 12.4C56.912 11.5893 57.056 10.8373 57.344 10.144C57.632 9.44 58.0267 8.82667 58.528 8.304C59.04 7.77067 59.632 7.36 60.304 7.072C60.976 6.77333 61.7013 6.624 62.48 6.624C63.2587 6.624 63.984 6.77333 64.656 7.072C65.328 7.36 65.9147 7.77067 66.416 8.304C66.928 8.82667 67.328 9.44 67.616 10.144C67.904 10.8373 68.048 11.5893 68.048 12.4C68.048 13.2107 67.904 13.968 67.616 14.672C67.328 15.3653 66.928 15.9787 66.416 16.512C65.9147 17.0347 65.328 17.4453 64.656 17.744C63.984 18.032 63.2587 18.176 62.48 18.176ZM62.48 17.056C63.088 17.056 63.6533 16.9387 64.176 16.704C64.6987 16.4693 65.1573 16.1387 65.552 15.712C65.9467 15.2853 66.2507 14.7893 66.464 14.224C66.688 13.6587 66.8 13.0507 66.8 12.4C66.8 11.7387 66.688 11.1307 66.464 10.576C66.2507 10.0107 65.9467 9.51467 65.552 9.088C65.1573 8.66133 64.6987 8.33067 64.176 8.096C63.6533 7.86133 63.088 7.744 62.48 7.744C61.872 7.744 61.3067 7.86133 60.784 8.096C60.2613 8.33067 59.8027 8.66133 59.408 9.088C59.0133 9.51467 58.704 10.0107 58.48 10.576C58.2667 11.1307 58.16 11.7333 58.16 12.384C58.16 13.0453 58.2667 13.6587 58.48 14.224C58.704 14.7893 59.0133 15.2853 59.408 15.712C59.8027 16.1387 60.2613 16.4693 60.784 16.704C61.3067 16.9387 61.872 17.056 62.48 17.056ZM70.1531 18V10.192H71.3211V11.456C71.6198 10.9867 71.9771 10.64 72.3931 10.416C72.8091 10.1813 73.2785 10.064 73.8011 10.064C74.3665 10.064 74.8571 10.1867 75.2731 10.432C75.6998 10.6667 76.0305 11.0027 76.2651 11.44C76.5105 11.8667 76.6331 12.368 76.6331 12.944V18H75.4651V13.28C75.4651 12.5867 75.2731 12.0427 74.8891 11.648C74.5158 11.2427 74.0091 11.04 73.3691 11.04C72.9425 11.04 72.5531 11.1413 72.2011 11.344C71.8491 11.5467 71.5558 11.8453 71.3211 12.24V18H70.1531Z" fill="#151515"/>
<defs>
<clipPath id="clip0_2508_2242">
<rect width="12" height="9" fill="white" transform="translate(687 8)"/>
</clipPath>
<clipPath id="clip1_2508_2242">
<rect width="12" height="9" fill="white" transform="translate(485 8)"/>
</clipPath>
</defs>
</svg>
