<svg xmlns="http://www.w3.org/2000/svg" width="768" height="152" viewBox="0 0 768 152"><defs><style>.a,.j,.r{fill:#fff;}.a{stroke:#d2d2d2;}.b{fill:#06c;}.c{fill:#151515;}.d{fill:#f5f5f5;}.e{fill:#6a6e73;}.f{opacity:0.03;}.g{fill:blue;}.g,.h{opacity:0.75;}.h{fill:red;}.i,.k,.l,.m,.n{fill:none;}.k,.l,.m,.n{stroke:#fff;stroke-width:1.4px;}.k,.n{stroke-linecap:round;}.k,.m{stroke-miterlimit:10;}.o{fill:#e00;}.p{opacity:0.2;}.q{fill:#73bcf7;}.r{opacity:0.5;}.s{stroke:none;}</style></defs><g transform="translate(-360 -3600)"><g transform="translate(0 3378)"><g class="a" transform="translate(360 222)"><rect class="s" width="768" height="80"/><rect class="i" x="0.5" y="0.5" width="767" height="79"/></g><g transform="translate(-109 -1)"><path class="b" d="M7,0,5.5,1.5,10,6H0V8H10L5.5,12.5,7,14l7-7Z" transform="translate(1176 257)"/><path class="b" d="M7.434-2.232A4.005,4.005,0,0,1,3.33-6.3a3.976,3.976,0,0,1,4.032-4.1,4.389,4.389,0,0,1,3.474,1.71L12.6-10.44A6.871,6.871,0,0,0,7.362-12.8,6.523,6.523,0,0,0,.648-6.3,6.5,6.5,0,0,0,7.362.18a6.862,6.862,0,0,0,5.166-2.322l-1.71-1.692A4.3,4.3,0,0,1,7.434-2.232ZM16.866.162a4.389,4.389,0,0,0,2.718-.828V0h2.43V-6.084c0-2.25-1.494-3.474-4-3.474A9.86,9.86,0,0,0,13.842-8.55l.9,1.818A7.277,7.277,0,0,1,17.6-7.506c1.314,0,1.98.54,1.98,1.638V-5.2a7.242,7.242,0,0,0-2.286-.36c-2.34,0-3.852,1.008-3.852,2.844C13.446-1.062,14.8.162,16.866.162ZM15.8-2.772c0-.756.72-1.17,1.8-1.17a5.558,5.558,0,0,1,1.98.342v1.4a3.59,3.59,0,0,1-2.07.594C16.47-1.6,15.8-2.052,15.8-2.772ZM26.352-13.14l-2.466.54V0h2.466Zm4.338,0-2.466.54V0H30.69Zm6.8,10.494c0,1.854,1.116,2.79,3.168,2.79A7.908,7.908,0,0,0,42.57-.144V-2.16a4.1,4.1,0,0,1-1.314.216c-.954,0-1.3-.324-1.3-1.206V-7.308h2.664v-2.07H39.96V-12.33l-2.466.558v2.394H35.568v2.07h1.926ZM43.326-4.68a4.873,4.873,0,0,0,5,4.86,4.873,4.873,0,0,0,5-4.86,4.888,4.888,0,0,0-5-4.878A4.888,4.888,0,0,0,43.326-4.68Zm7.6,0A2.634,2.634,0,0,1,48.33-1.962,2.634,2.634,0,0,1,45.738-4.68,2.638,2.638,0,0,1,48.33-7.416,2.627,2.627,0,0,1,50.922-4.68ZM61.434.162a4.389,4.389,0,0,0,2.718-.828V0h2.43V-6.084c0-2.25-1.494-3.474-4-3.474A9.86,9.86,0,0,0,58.41-8.55l.9,1.818a7.277,7.277,0,0,1,2.862-.774c1.314,0,1.98.54,1.98,1.638V-5.2a7.242,7.242,0,0,0-2.286-.36c-2.34,0-3.852,1.008-3.852,2.844C58.014-1.062,59.364.162,61.434.162ZM60.372-2.772c0-.756.72-1.17,1.8-1.17a5.558,5.558,0,0,1,1.98.342v1.4a3.59,3.59,0,0,1-2.07.594C61.038-1.6,60.372-2.052,60.372-2.772ZM73.08-1.98a2.582,2.582,0,0,1-2.574-2.7,2.593,2.593,0,0,1,2.52-2.736,3.039,3.039,0,0,1,2.322,1.134l1.512-1.6a5.275,5.275,0,0,0-3.888-1.674A4.833,4.833,0,0,0,68.058-4.68,4.819,4.819,0,0,0,72.972.18a5.175,5.175,0,0,0,3.816-1.674l-1.476-1.53A2.971,2.971,0,0,1,73.08-1.98Zm6.444-.666c0,1.854,1.116,2.79,3.168,2.79A7.908,7.908,0,0,0,84.6-.144V-2.16a4.1,4.1,0,0,1-1.314.216c-.954,0-1.3-.324-1.3-1.206V-7.308h2.664v-2.07H81.99V-12.33l-2.466.558v2.394H77.6v2.07h1.926Zm7.542-7.848a1.406,1.406,0,0,0,1.4-1.4,1.406,1.406,0,0,0-1.4-1.4,1.418,1.418,0,0,0-1.4,1.4A1.418,1.418,0,0,0,87.066-10.494Zm1.242,1.116H85.842V0h2.466Zm1.476,4.7a4.873,4.873,0,0,0,5,4.86,4.873,4.873,0,0,0,5-4.86,4.888,4.888,0,0,0-5-4.878A4.888,4.888,0,0,0,89.784-4.68Zm7.6,0a2.634,2.634,0,0,1-2.592,2.718A2.634,2.634,0,0,1,92.2-4.68a2.638,2.638,0,0,1,2.592-2.736A2.627,2.627,0,0,1,97.38-4.68ZM101.268,0h2.466V-6.5a2.2,2.2,0,0,1,1.926-.936,1.842,1.842,0,0,1,1.962,1.962V0h2.448V-5.832a3.558,3.558,0,0,0-3.708-3.726,3.912,3.912,0,0,0-2.628.936v-.756h-2.466Z" transform="translate(1057 270)"/></g><path class="c" d="M11.9-5.36v-.5H6.88v1.088h3.776a4.076,4.076,0,0,1-4.1,3.84A4.486,4.486,0,0,1,2.144-5.6,4.472,4.472,0,0,1,6.56-10.256,4.645,4.645,0,0,1,10.1-8.7l.832-.832a5.749,5.749,0,0,0-4.368-1.84A5.669,5.669,0,0,0,.9-5.6,5.682,5.682,0,0,0,6.576.176,5.345,5.345,0,0,0,11.9-5.36ZM13.6-3.9A3.907,3.907,0,0,0,17.472.144,4.5,4.5,0,0,0,20.4-.9l-.736-.8a3.191,3.191,0,0,1-2.144.8,2.81,2.81,0,0,1-2.768-2.768H20.88V-4A3.7,3.7,0,0,0,17.3-7.936,3.812,3.812,0,0,0,13.6-3.9Zm3.68-3.008A2.572,2.572,0,0,1,19.712-4.48H14.784A2.581,2.581,0,0,1,17.28-6.912ZM23.424-1.76c0,1.216.688,1.9,2.048,1.9a4.713,4.713,0,0,0,1.376-.208V-1.1a2.881,2.881,0,0,1-1.1.208c-.832,0-1.152-.336-1.152-1.168V-6.848h2.256v-.96H24.592v-2.256l-1.168.272v1.984H21.808v.96h1.616ZM33.936,1.088c-.32.8-.736.992-1.264.992a3.939,3.939,0,0,1-.64-.064v1.04a2.568,2.568,0,0,0,.752.112c1.168,0,1.76-.5,2.24-1.728l3.808-9.248h-1.28L35.04-1.376,32.672-7.808H31.36L34.384-.016ZM39.648-3.9A3.867,3.867,0,0,0,43.44.16,3.873,3.873,0,0,0,47.264-3.9,3.845,3.845,0,0,0,43.44-7.936,3.839,3.839,0,0,0,39.648-3.9Zm6.448.016A2.756,2.756,0,0,1,43.44-.88a2.742,2.742,0,0,1-2.624-3.008A2.767,2.767,0,0,1,43.44-6.912,2.771,2.771,0,0,1,46.1-3.888Zm4.3-3.92H49.232v5.056A2.722,2.722,0,0,0,52.048.128a2.813,2.813,0,0,0,2.5-1.408V0h1.168V-7.808H54.544v5.76A2.32,2.32,0,0,1,52.5-.848a2.023,2.023,0,0,1-2.1-2.24ZM58.016,0h1.168V-5.344a2.2,2.2,0,0,1,2.1-1.584,2.768,2.768,0,0,1,.816.144V-7.84a2.3,2.3,0,0,0-.736-.112,2.321,2.321,0,0,0-2.176,1.7V-7.808H58.016Zm8.608-7.808v.96h1.744V0h1.168V-6.848h2.24v-.96h-2.24V-9.024c0-.944.416-1.36,1.28-1.36a2.856,2.856,0,0,1,.96.144V-11.3a3.664,3.664,0,0,0-1.056-.144,2.147,2.147,0,0,0-2.352,2.4v1.232ZM73.232,0H74.4V-5.344a2.2,2.2,0,0,1,2.1-1.584,2.768,2.768,0,0,1,.816.144V-7.84a2.3,2.3,0,0,0-.736-.112,2.321,2.321,0,0,0-2.176,1.7V-7.808H73.232Zm4.7-3.9A3.907,3.907,0,0,0,81.808.144,4.5,4.5,0,0,0,84.736-.9L84-1.7a3.191,3.191,0,0,1-2.144.8,2.81,2.81,0,0,1-2.768-2.768h6.128V-4a3.7,3.7,0,0,0-3.584-3.936A3.812,3.812,0,0,0,77.936-3.9Zm3.68-3.008A2.572,2.572,0,0,1,84.048-4.48H79.12A2.581,2.581,0,0,1,81.616-6.912Zm5.2,3.008A3.907,3.907,0,0,0,90.688.144,4.5,4.5,0,0,0,93.616-.9l-.736-.8a3.191,3.191,0,0,1-2.144.8,2.81,2.81,0,0,1-2.768-2.768H94.1V-4a3.7,3.7,0,0,0-3.584-3.936A3.812,3.812,0,0,0,86.816-3.9ZM90.5-6.912A2.572,2.572,0,0,1,92.928-4.48H88A2.581,2.581,0,0,1,90.5-6.912Zm9.248,10.1h1.168V-.992a3.14,3.14,0,0,0,2.448,1.1A3.8,3.8,0,0,0,107.04-3.9a3.78,3.78,0,0,0-3.616-4A3.081,3.081,0,0,0,100.9-6.688v-1.12H99.744ZM103.136-6.88a2.8,2.8,0,0,1,2.736,2.992A2.791,2.791,0,0,1,103.136-.9a2.767,2.767,0,0,1-2.224-1.088V-5.808A2.688,2.688,0,0,1,103.136-6.88ZM111.52.144A3.321,3.321,0,0,0,114-.9V0h1.152V-5.184c0-1.808-1.12-2.752-3.024-2.752a6.539,6.539,0,0,0-2.944.752l.448.9a5.037,5.037,0,0,1,2.352-.672c1.312,0,2.016.624,2.016,1.936v1.056a4.683,4.683,0,0,0-2.368-.592c-1.7,0-2.928.864-2.928,2.3C108.7-.832,109.872.144,111.52.144Zm-1.7-2.416c0-.912.832-1.456,1.968-1.456A4.052,4.052,0,0,1,114-3.152v1.5a3.116,3.116,0,0,1-2.24.9C110.624-.752,109.824-1.36,109.824-2.272Zm6.912,1.184A4.33,4.33,0,0,0,119.92.144c1.76,0,3.04-1.088,3.024-2.416.016-1.184-.736-1.824-2.272-2.1l-1.3-.24c-.96-.176-1.36-.448-1.36-1.12,0-.768.72-1.248,1.7-1.248a3.943,3.943,0,0,1,2.416.88l.624-.8a4.858,4.858,0,0,0-2.992-1.04c-1.648,0-2.816.96-2.816,2.288,0,1.168.752,1.792,2.208,2.048l1.3.224c.976.176,1.392.512,1.392,1.168,0,.768-.7,1.408-1.968,1.408a3.5,3.5,0,0,1-2.464-1.024Zm7.3,0A4.33,4.33,0,0,0,127.216.144c1.76,0,3.04-1.088,3.024-2.416.016-1.184-.736-1.824-2.272-2.1l-1.3-.24c-.96-.176-1.36-.448-1.36-1.12,0-.768.72-1.248,1.7-1.248a3.943,3.943,0,0,1,2.416.88l.624-.8a4.858,4.858,0,0,0-2.992-1.04c-1.648,0-2.816.96-2.816,2.288,0,1.168.752,1.792,2.208,2.048l1.3.224c.976.176,1.392.512,1.392,1.168,0,.768-.7,1.408-1.968,1.408A3.5,3.5,0,0,1,124.7-1.824Zm12.576-.672c0,1.216.688,1.9,2.048,1.9a4.714,4.714,0,0,0,1.376-.208V-1.1a2.881,2.881,0,0,1-1.1.208c-.832,0-1.152-.336-1.152-1.168V-6.848h2.256v-.96h-2.256v-2.256l-1.168.272v1.984h-1.616v.96h1.616ZM141.072-3.9A3.867,3.867,0,0,0,144.864.16,3.873,3.873,0,0,0,148.688-3.9a3.845,3.845,0,0,0-3.824-4.032A3.839,3.839,0,0,0,141.072-3.9Zm6.448.016A2.756,2.756,0,0,1,144.864-.88a2.742,2.742,0,0,1-2.624-3.008,2.767,2.767,0,0,1,2.624-3.024A2.771,2.771,0,0,1,147.52-3.888Zm6.528-.016A3.867,3.867,0,0,0,157.84.16,3.873,3.873,0,0,0,161.664-3.9a3.845,3.845,0,0,0-3.824-4.032A3.839,3.839,0,0,0,154.048-3.9Zm6.448.016A2.756,2.756,0,0,1,157.84-.88a2.742,2.742,0,0,1-2.624-3.008,2.767,2.767,0,0,1,2.624-3.024A2.771,2.771,0,0,1,160.5-3.888Zm4.3-3.92h-1.168v5.056a2.722,2.722,0,0,0,2.816,2.88,2.813,2.813,0,0,0,2.5-1.408V0h1.168V-7.808h-1.168v5.76a2.32,2.32,0,0,1-2.048,1.2,2.023,2.023,0,0,1-2.1-2.24ZM172.416,0h1.168V-5.344a2.2,2.2,0,0,1,2.1-1.584,2.768,2.768,0,0,1,.816.144V-7.84a2.3,2.3,0,0,0-.736-.112,2.321,2.321,0,0,0-2.176,1.7V-7.808h-1.168Zm9.936-9.776a.83.83,0,0,0,.832-.848.826.826,0,0,0-.832-.832.826.826,0,0,0-.832.832A.83.83,0,0,0,182.352-9.776Zm.576,1.968H181.76V0h1.168ZM185.248,0h1.168V-5.808a2.171,2.171,0,0,1,1.9-1.152,1.939,1.939,0,0,1,1.936,2.208V0h1.168V-5.04a3.238,3.238,0,0,0-.064-.688,2.2,2.2,0,0,1,1.952-1.232c1.216,0,1.92.864,1.92,2.208V0h1.184V-5.04a2.669,2.669,0,0,0-2.672-2.9,2.915,2.915,0,0,0-2.608,1.52,2.56,2.56,0,0,0-2.384-1.52,2.672,2.672,0,0,0-2.336,1.344V-7.808h-1.168ZM198.72,0h1.168V-5.808a2.171,2.171,0,0,1,1.9-1.152,1.939,1.939,0,0,1,1.936,2.208V0H204.9V-5.04a3.239,3.239,0,0,0-.064-.688,2.2,2.2,0,0,1,1.952-1.232c1.216,0,1.92.864,1.92,2.208V0h1.184V-5.04a2.669,2.669,0,0,0-2.672-2.9,2.915,2.915,0,0,0-2.608,1.52,2.56,2.56,0,0,0-2.384-1.52,2.672,2.672,0,0,0-2.336,1.344V-7.808H198.72Zm13.136-3.9A3.907,3.907,0,0,0,215.728.144,4.5,4.5,0,0,0,218.656-.9l-.736-.8a3.191,3.191,0,0,1-2.144.8,2.81,2.81,0,0,1-2.768-2.768h6.128V-4a3.7,3.7,0,0,0-3.584-3.936A3.812,3.812,0,0,0,211.856-3.9Zm3.68-3.008a2.572,2.572,0,0,1,2.432,2.432H213.04A2.581,2.581,0,0,1,215.536-6.912ZM221.056,0h1.168V-5.344a2.2,2.2,0,0,1,2.1-1.584,2.768,2.768,0,0,1,.816.144V-7.84a2.3,2.3,0,0,0-.736-.112,2.321,2.321,0,0,0-2.176,1.7V-7.808h-1.168Zm4.784-1.088A4.33,4.33,0,0,0,229.024.144c1.76,0,3.04-1.088,3.024-2.416.016-1.184-.736-1.824-2.272-2.1l-1.3-.24c-.96-.176-1.36-.448-1.36-1.12,0-.768.72-1.248,1.7-1.248a3.943,3.943,0,0,1,2.416.88l.624-.8a4.858,4.858,0,0,0-2.992-1.04c-1.648,0-2.816.96-2.816,2.288,0,1.168.752,1.792,2.208,2.048l1.3.224c.976.176,1.392.512,1.392,1.168,0,.768-.7,1.408-1.968,1.408a3.5,3.5,0,0,1-2.464-1.024Zm8.5-8.688a.83.83,0,0,0,.832-.848.826.826,0,0,0-.832-.832.826.826,0,0,0-.832.832A.83.83,0,0,0,234.336-9.776Zm.576,1.968h-1.168V0h1.168ZM239.584,0h1.1L243.9-7.808h-1.248l-2.5,6.336-2.5-6.336h-1.3Zm5.12-3.9A3.907,3.907,0,0,0,248.576.144,4.5,4.5,0,0,0,251.5-.9l-.736-.8a3.191,3.191,0,0,1-2.144.8,2.81,2.81,0,0,1-2.768-2.768h6.128V-4A3.7,3.7,0,0,0,248.4-7.936,3.812,3.812,0,0,0,244.7-3.9Zm3.68-3.008a2.572,2.572,0,0,1,2.432,2.432h-4.928A2.581,2.581,0,0,1,248.384-6.912ZM259.984,0h1.1L264.3-7.808h-1.248l-2.5,6.336-2.5-6.336h-1.3Zm6.368-9.776a.83.83,0,0,0,.832-.848.826.826,0,0,0-.832-.832.826.826,0,0,0-.832.832A.83.83,0,0,0,266.352-9.776Zm.576,1.968H265.76V0h1.168ZM269.248,0h1.168V-5.344a2.2,2.2,0,0,1,2.1-1.584,2.768,2.768,0,0,1,.816.144V-7.84a2.3,2.3,0,0,0-.736-.112,2.321,2.321,0,0,0-2.176,1.7V-7.808h-1.168Zm6.72-1.76c0,1.216.688,1.9,2.048,1.9a4.713,4.713,0,0,0,1.376-.208V-1.1a2.881,2.881,0,0,1-1.1.208c-.832,0-1.152-.336-1.152-1.168V-6.848h2.256v-.96h-2.256v-2.256l-1.168.272v1.984h-1.616v.96h1.616Zm6.224-6.048h-1.168v5.056A2.722,2.722,0,0,0,283.84.128a2.813,2.813,0,0,0,2.5-1.408V0H287.5V-7.808h-1.168v5.76a2.32,2.32,0,0,1-2.048,1.2,2.023,2.023,0,0,1-2.1-2.24ZM292.24.144A3.321,3.321,0,0,0,294.72-.9V0h1.152V-5.184c0-1.808-1.12-2.752-3.024-2.752a6.539,6.539,0,0,0-2.944.752l.448.9A5.037,5.037,0,0,1,292.7-6.96c1.312,0,2.016.624,2.016,1.936v1.056a4.683,4.683,0,0,0-2.368-.592c-1.7,0-2.928.864-2.928,2.3C289.424-.832,290.592.144,292.24.144Zm-1.7-2.416c0-.912.832-1.456,1.968-1.456a4.052,4.052,0,0,1,2.208.576v1.5a3.116,3.116,0,0,1-2.24.9C291.344-.752,290.544-1.36,290.544-2.272Zm8.816-9.168-1.168.24V0h1.168ZM305.072-3.9A3.907,3.907,0,0,0,308.944.144,4.5,4.5,0,0,0,311.872-.9l-.736-.8a3.191,3.191,0,0,1-2.144.8,2.81,2.81,0,0,1-2.768-2.768h6.128V-4a3.7,3.7,0,0,0-3.584-3.936A3.812,3.812,0,0,0,305.072-3.9Zm3.68-3.008a2.572,2.572,0,0,1,2.432,2.432h-4.928A2.581,2.581,0,0,1,308.752-6.912ZM316.3,0h1.1l3.216-7.808h-1.248l-2.5,6.336-2.5-6.336h-1.3Zm5.12-3.9A3.907,3.907,0,0,0,325.3.144,4.5,4.5,0,0,0,328.224-.9l-.736-.8a3.191,3.191,0,0,1-2.144.8,2.81,2.81,0,0,1-2.768-2.768H328.7V-4a3.7,3.7,0,0,0-3.584-3.936A3.812,3.812,0,0,0,321.424-3.9Zm3.68-3.008a2.572,2.572,0,0,1,2.432,2.432h-4.928A2.581,2.581,0,0,1,325.1-6.912ZM330.624,0h1.168V-5.76a2.32,2.32,0,0,1,2.048-1.2,2.023,2.023,0,0,1,2.1,2.24V0H337.1V-5.056a2.722,2.722,0,0,0-2.816-2.88,2.813,2.813,0,0,0-2.5,1.408v-1.28h-1.168Zm9.408-1.76c0,1.216.688,1.9,2.048,1.9a4.713,4.713,0,0,0,1.376-.208V-1.1a2.881,2.881,0,0,1-1.1.208c-.832,0-1.152-.336-1.152-1.168V-6.848h2.256v-.96H341.2v-2.256l-1.168.272v1.984h-1.616v.96h1.616Z" transform="translate(570 268)"/><g transform="translate(-71)"><rect class="d" width="130" height="40" rx="3" transform="translate(479 242)"/><path class="e" d="M1.246,0H7.854V-.952H2.324V-9.8H1.246ZM8.96-3.416A3.384,3.384,0,0,0,12.278.14a3.389,3.389,0,0,0,3.346-3.556,3.365,3.365,0,0,0-3.346-3.528A3.359,3.359,0,0,0,8.96-3.416ZM14.6-3.4A2.412,2.412,0,0,1,12.278-.77,2.4,2.4,0,0,1,9.982-3.4a2.421,2.421,0,0,1,2.3-2.646A2.424,2.424,0,0,1,14.6-3.4ZM20.356.1A2.759,2.759,0,0,0,22.526-.9V.224c0,1.148-.672,1.75-1.9,1.75a4.449,4.449,0,0,1-2.17-.63l-.434.784a5.318,5.318,0,0,0,2.66.714c1.848,0,2.87-.924,2.87-2.632V-6.832H22.54v.868a2.82,2.82,0,0,0-2.128-.952A3.329,3.329,0,0,0,17.192-3.4,3.308,3.308,0,0,0,20.356.1ZM18.214-3.416a2.428,2.428,0,0,1,2.38-2.6,2.462,2.462,0,0,1,1.932.91v3.4a2.36,2.36,0,0,1-1.932.91A2.44,2.44,0,0,1,18.214-3.416Zm7.2,0A3.384,3.384,0,0,0,28.728.14a3.389,3.389,0,0,0,3.346-3.556,3.365,3.365,0,0,0-3.346-3.528A3.359,3.359,0,0,0,25.41-3.416Zm5.642.014A2.412,2.412,0,0,1,28.728-.77a2.4,2.4,0,0,1-2.3-2.632,2.421,2.421,0,0,1,2.3-2.646A2.424,2.424,0,0,1,31.052-3.4Z" transform="translate(528 267)"/></g></g><g class="f" transform="translate(30 -171)"><rect class="g" width="30" height="80" transform="translate(1068 3771)"/><rect class="h" width="48" height="80" transform="translate(1020 3771)"/><rect class="h" width="48" height="80" transform="translate(960 3771)"/><rect class="h" width="48" height="80" transform="translate(900 3771)"/><rect class="h" width="48" height="80" transform="translate(840 3771)"/><rect class="h" width="48" height="80" transform="translate(780 3771)"/><rect class="h" width="48" height="80" transform="translate(720 3771)"/><rect class="h" width="48" height="80" transform="translate(660 3771)"/><rect class="h" width="48" height="80" transform="translate(600 3771)"/><rect class="h" width="48" height="80" transform="translate(540 3771)"/><rect class="h" width="48" height="80" transform="translate(480 3771)"/><rect class="h" width="48" height="80" transform="translate(420 3771)"/><rect class="h" width="48" height="80" transform="translate(360 3771)"/><rect class="g" width="30" height="80" transform="translate(330 3771)"/></g><g transform="translate(0 3459)"><rect class="c" width="768" height="72" transform="translate(360 221)"/><g transform="translate(-73 5)"><g transform="translate(0 -5)"><rect class="i" width="33" height="18" transform="translate(1124 261)"/><path class="j" d="M1.068,0H6.732V-.816H1.992V-8.4H1.068ZM7.56-2.928A2.9,2.9,0,0,0,10.4.12a2.9,2.9,0,0,0,2.868-3.048A2.884,2.884,0,0,0,10.4-5.952,2.879,2.879,0,0,0,7.56-2.928Zm4.836.012A2.067,2.067,0,0,1,10.4-.66,2.057,2.057,0,0,1,8.436-2.916,2.075,2.075,0,0,1,10.4-5.184,2.078,2.078,0,0,1,12.4-2.916Zm4.812,3a2.365,2.365,0,0,0,1.86-.852v.96c0,.984-.576,1.5-1.632,1.5a3.813,3.813,0,0,1-1.86-.54l-.372.672a4.558,4.558,0,0,0,2.28.612c1.584,0,2.46-.792,2.46-2.256V-5.856H19.08v.744a2.417,2.417,0,0,0-1.824-.816A2.853,2.853,0,0,0,14.5-2.916,2.835,2.835,0,0,0,17.208.084ZM15.372-2.928a2.081,2.081,0,0,1,2.04-2.232,2.11,2.11,0,0,1,1.656.78v2.916a2.023,2.023,0,0,1-1.656.78A2.092,2.092,0,0,1,15.372-2.928Zm9.54-4.4a.622.622,0,0,0,.624-.636.62.62,0,0,0-.624-.624.62.62,0,0,0-.624.624A.622.622,0,0,0,24.912-7.332Zm.432,1.476h-.876V0h.876ZM27.084,0h.876V-4.32a1.74,1.74,0,0,1,1.536-.9,1.518,1.518,0,0,1,1.572,1.68V0h.876V-3.792a2.041,2.041,0,0,0-2.112-2.16A2.11,2.11,0,0,0,27.96-4.9v-.96h-.876Z" transform="translate(1124 274)"/></g><g transform="translate(1132 234)"><path class="k" d="M0,18a9,9,0,0,1,18,0"/><circle class="k" cx="4.5" cy="4.5" r="4.5" transform="translate(4.5)"/></g></g><g transform="translate(-156 5)"><g transform="translate(0 -5)"><rect class="i" width="59" height="18" transform="translate(1124 261)"/><path class="j" d="M.216,0h.96L2.184-2.64H5.916l1,2.64H7.92L4.644-8.4H3.54ZM2.5-3.432l1.56-4.08,1.56,4.08ZM9.876-8.58,9-8.4V0h.876Zm2.616,0-.876.18V0h.876ZM17.232,0h.924V-3.588h2.508L22.368,0h1.02L21.612-3.708a2.282,2.282,0,0,0,1.74-2.268A2.412,2.412,0,0,0,20.676-8.4H17.232ZM20.6-7.584a1.618,1.618,0,0,1,1.824,1.62A1.61,1.61,0,0,1,20.6-4.356H18.156V-7.584ZM24.18-2.928a2.93,2.93,0,0,0,2.9,3.036,3.373,3.373,0,0,0,2.2-.78l-.552-.6a2.393,2.393,0,0,1-1.608.6,2.108,2.108,0,0,1-2.076-2.076h4.6V-3a2.774,2.774,0,0,0-2.688-2.952A2.859,2.859,0,0,0,24.18-2.928Zm2.76-2.256A1.929,1.929,0,0,1,28.764-3.36h-3.7A1.936,1.936,0,0,1,26.94-5.184ZM35.424,0H36.3V-8.58l-.888.18v3.276a2.4,2.4,0,0,0-1.812-.8,2.853,2.853,0,0,0-2.76,3.012,2.835,2.835,0,0,0,2.712,3,2.354,2.354,0,0,0,1.872-.876ZM31.716-2.928a2.081,2.081,0,0,1,2.04-2.232,2.11,2.11,0,0,1,1.656.78v2.916a2.023,2.023,0,0,1-1.656.78A2.092,2.092,0,0,1,31.716-2.928ZM41.016,0h.924V-3.816h4.824V0h.924V-8.4h-.924v3.756H41.94V-8.4h-.924ZM51.3.108a2.491,2.491,0,0,0,1.86-.78V0h.864V-3.888c0-1.356-.84-2.064-2.268-2.064a4.9,4.9,0,0,0-2.208.564l.336.672a3.778,3.778,0,0,1,1.764-.5c.984,0,1.512.468,1.512,1.452v.792a3.512,3.512,0,0,0-1.776-.444c-1.272,0-2.2.648-2.2,1.728A1.888,1.888,0,0,0,51.3.108ZM50.028-1.7c0-.684.624-1.092,1.476-1.092a3.039,3.039,0,0,1,1.656.432v1.128a2.337,2.337,0,0,1-1.68.672C50.628-.564,50.028-1.02,50.028-1.7Zm6.2.384c0,.912.516,1.428,1.536,1.428A3.535,3.535,0,0,0,58.8-.048v-.78a2.161,2.161,0,0,1-.828.156c-.624,0-.864-.252-.864-.876V-5.136H58.8v-.72H57.108V-7.548l-.876.2v1.488H55.02v.72h1.212Z" transform="translate(1124 274)"/></g><path class="j" d="M18,16.5A1.5,1.5,0,1,1,16.5,15,1.538,1.538,0,0,1,18,16.5ZM9,15a1.5,1.5,0,1,0,1.5,1.5A1.538,1.538,0,0,0,9,15ZM1.5,15a1.5,1.5,0,0,0,0,3,1.5,1.5,0,0,0,0-3Zm15-7.5A1.5,1.5,0,1,0,18,9,1.538,1.538,0,0,0,16.5,7.5ZM9,7.5A1.5,1.5,0,1,0,10.5,9,1.538,1.538,0,0,0,9,7.5Zm-7.5,0a1.5,1.5,0,0,0,0,3,1.5,1.5,0,0,0,0-3ZM16.5,0A1.538,1.538,0,0,0,15,1.5a1.5,1.5,0,0,0,3,0A1.538,1.538,0,0,0,16.5,0ZM9,0A1.538,1.538,0,0,0,7.5,1.5a1.5,1.5,0,0,0,3,0A1.538,1.538,0,0,0,9,0ZM1.5,0A1.538,1.538,0,0,0,0,1.5,1.538,1.538,0,0,0,1.5,3,1.538,1.538,0,0,0,3,1.5,1.538,1.538,0,0,0,1.5,0Z" transform="translate(1145 234)"/></g><g transform="translate(-222 5)"><g transform="translate(0 -5)"><rect class="i" width="42" height="18" transform="translate(1124 261)"/><path class="j" d="M4.968-.708A3.363,3.363,0,0,1,1.608-4.2,3.359,3.359,0,0,1,4.944-7.692,3.367,3.367,0,0,1,7.5-6.516l.612-.636a4.2,4.2,0,0,0-3.168-1.38A4.257,4.257,0,0,0,.672-4.2,4.257,4.257,0,0,0,4.944.132a4.243,4.243,0,0,0,3.144-1.38l-.6-.612A3.291,3.291,0,0,1,4.968-.708Zm5.244-5.148H9.336v3.792A2.041,2.041,0,0,0,11.448.1,2.11,2.11,0,0,0,13.32-.96V0H14.2V-5.856H13.32v4.32a1.74,1.74,0,0,1-1.536.9,1.518,1.518,0,0,1-1.572-1.68Zm5.16,5.04A3.247,3.247,0,0,0,17.76.108,2.033,2.033,0,0,0,20.028-1.7c.012-.888-.552-1.368-1.7-1.572l-.972-.18c-.72-.132-1.02-.336-1.02-.84,0-.576.54-.936,1.272-.936a2.957,2.957,0,0,1,1.812.66l.468-.6a3.644,3.644,0,0,0-2.244-.78c-1.236,0-2.112.72-2.112,1.716,0,.876.564,1.344,1.656,1.536l.972.168c.732.132,1.044.384,1.044.876C19.2-1.08,18.672-.6,17.724-.6a2.622,2.622,0,0,1-1.848-.768Zm6.516-.5c0,.912.516,1.428,1.536,1.428a3.535,3.535,0,0,0,1.032-.156v-.78a2.161,2.161,0,0,1-.828.156c-.624,0-.864-.252-.864-.876V-5.136h1.692v-.72H22.764V-7.548l-.876.2v1.488H20.676v.72h1.212Zm3.348-1.608A2.9,2.9,0,0,0,28.08.12a2.9,2.9,0,0,0,2.868-3.048A2.884,2.884,0,0,0,28.08-5.952,2.879,2.879,0,0,0,25.236-2.928Zm4.836.012A2.067,2.067,0,0,1,28.08-.66a2.057,2.057,0,0,1-1.968-2.256A2.075,2.075,0,0,1,28.08-5.184,2.078,2.078,0,0,1,30.072-2.916ZM32.424,0H33.3V-4.356a1.628,1.628,0,0,1,1.428-.864A1.455,1.455,0,0,1,36.18-3.564V0h.876V-3.78a2.429,2.429,0,0,0-.048-.516,1.647,1.647,0,0,1,1.464-.924c.912,0,1.44.648,1.44,1.656V0H40.8V-3.78a2,2,0,0,0-2-2.172,2.186,2.186,0,0,0-1.956,1.14,1.92,1.92,0,0,0-1.788-1.14A2,2,0,0,0,33.3-4.944v-.912h-.876Z" transform="translate(1124 274)"/></g><g class="l" transform="translate(1136 234)"><circle class="s" cx="9" cy="9" r="9"/><circle class="i" cx="9" cy="9" r="8.3"/></g></g><g transform="translate(-273 5)"><g transform="translate(-10 -5)"><rect class="i" width="37" height="18" transform="translate(1124 261)"/><path class="j" d="M.336-1.38A4.739,4.739,0,0,0,3.768.12c2.064,0,3.2-1.188,3.2-2.532,0-1.236-.72-1.932-2.556-2.256L3.072-4.9c-1.032-.18-1.584-.5-1.584-1.332,0-1.044,1.008-1.5,2-1.5a4.452,4.452,0,0,1,2.8,1.02l.54-.7a5.318,5.318,0,0,0-3.312-1.1C1.98-8.508.6-7.74.6-6.156c0,1.188.708,1.824,2.22,2.088l1.356.228c1.356.24,1.872.636,1.872,1.476,0,.936-.864,1.692-2.244,1.692A4.044,4.044,0,0,1,.912-2.028ZM8.208-2.928a2.93,2.93,0,0,0,2.9,3.036,3.373,3.373,0,0,0,2.2-.78l-.552-.6a2.393,2.393,0,0,1-1.608.6A2.108,2.108,0,0,1,9.072-2.748h4.6V-3A2.774,2.774,0,0,0,10.98-5.952,2.859,2.859,0,0,0,8.208-2.928Zm2.76-2.256A1.929,1.929,0,0,1,12.792-3.36H9.1A1.936,1.936,0,0,1,10.968-5.184ZM16.836.108a2.491,2.491,0,0,0,1.86-.78V0h.864V-3.888c0-1.356-.84-2.064-2.268-2.064a4.9,4.9,0,0,0-2.208.564l.336.672a3.778,3.778,0,0,1,1.764-.5c.984,0,1.512.468,1.512,1.452v.792A3.512,3.512,0,0,0,16.92-3.42c-1.272,0-2.2.648-2.2,1.728A1.888,1.888,0,0,0,16.836.108ZM15.564-1.7c0-.684.624-1.092,1.476-1.092a3.039,3.039,0,0,1,1.656.432v1.128a2.337,2.337,0,0,1-1.68.672C16.164-.564,15.564-1.02,15.564-1.7ZM21.3,0h.876V-4.008A1.647,1.647,0,0,1,23.748-5.2a2.076,2.076,0,0,1,.612.108V-5.88a1.723,1.723,0,0,0-.552-.084,1.741,1.741,0,0,0-1.632,1.272V-5.856H21.3Zm6.444-.684A2.113,2.113,0,0,1,25.7-2.928a2.124,2.124,0,0,1,2.04-2.232,2.237,2.237,0,0,1,1.608.732l.564-.612a3.109,3.109,0,0,0-2.184-.912,2.934,2.934,0,0,0-2.9,3.024,2.945,2.945,0,0,0,2.9,3.036A2.966,2.966,0,0,0,29.88-.84l-.54-.54A2.093,2.093,0,0,1,27.744-.684ZM35.16,0h.876V-3.792a2.041,2.041,0,0,0-2.112-2.16A2.11,2.11,0,0,0,32.052-4.9V-8.58l-.876.18V0h.876V-4.32a1.74,1.74,0,0,1,1.536-.9A1.518,1.518,0,0,1,35.16-3.54Z" transform="translate(1124 274)"/></g><g transform="translate(1123 233)"><line class="k" x2="6" y2="6" transform="translate(13 13)"/><circle class="m" cx="7" cy="7" r="7" transform="translate(1 1)"/></g></g><g transform="translate(-560 5)"><g transform="translate(0 -5)"><rect class="i" width="30" height="18" transform="translate(1124 261)"/><path class="j" d="M5.16-.6,8.376-7.308V0h.876V-8.4H7.968L5.16-2.424,2.352-8.4H1.068V0h.864V-7.332Zm5.784-2.328a2.93,2.93,0,0,0,2.9,3.036,3.373,3.373,0,0,0,2.2-.78l-.552-.6a2.393,2.393,0,0,1-1.608.6,2.108,2.108,0,0,1-2.076-2.076h4.6V-3a2.774,2.774,0,0,0-2.688-2.952A2.859,2.859,0,0,0,10.944-2.928ZM13.7-5.184A1.929,1.929,0,0,1,15.528-3.36h-3.7A1.936,1.936,0,0,1,13.7-5.184ZM17.844,0h.876V-4.32a1.74,1.74,0,0,1,1.536-.9,1.518,1.518,0,0,1,1.572,1.68V0H22.7V-3.792a2.041,2.041,0,0,0-2.112-2.16A2.11,2.11,0,0,0,18.72-4.9v-.96h-.876Zm7.4-5.856h-.876v3.792A2.041,2.041,0,0,0,26.484.1,2.11,2.11,0,0,0,28.356-.96V0h.876V-5.856h-.876v4.32a1.74,1.74,0,0,1-1.536.9,1.518,1.518,0,0,1-1.572-1.68Z" transform="translate(1124 274)"/></g><g transform="translate(562 -13)"><rect class="i" width="18" height="18" transform="translate(568 247)"/><line class="n" x2="18" transform="translate(568 263)"/><line class="n" x2="18" transform="translate(568 256)"/><line class="n" x2="18" transform="translate(568 249)"/></g></g><g transform="translate(391.5 240.5)"><path class="j" d="M304.6,45.822c0,2.644,1.6,3.933,4.489,3.933a11.863,11.863,0,0,0,2.644-.378V46.311a5.616,5.616,0,0,1-1.711.267c-1.2,0-1.644-.378-1.644-1.489V40.378h3.467V37.222h-3.467v-4l-3.778.822v3.178h-2.511v3.156h2.489v5.444Zm-11.778.067c0-.822.822-1.222,2.067-1.222a8.522,8.522,0,0,1,2.244.289v1.6a4.628,4.628,0,0,1-2.356.578c-1.222,0-1.956-.467-1.956-1.244m1.156,3.911a5.931,5.931,0,0,0,3.422-.956V49.6h3.733V41.667c0-3.022-2.022-4.667-5.422-4.667a13.842,13.842,0,0,0-5.778,1.356l1.356,2.778a10.232,10.232,0,0,1,3.733-.978c1.556,0,2.356.6,2.356,1.844v.6a10.872,10.872,0,0,0-2.8-.356c-3.178,0-5.089,1.333-5.089,3.711,0,2.178,1.733,3.844,4.489,3.844m-20.533-.2h4.022V43.178H284.2v6.4h4.022V33.222H284.2v6.289h-6.733V33.222h-4.022Zm-15.311-6.2a3.128,3.128,0,0,1,3.244-3.133,3.937,3.937,0,0,1,2.622.956v4.333a3.693,3.693,0,0,1-2.622,1,3.174,3.174,0,0,1-3.244-3.156m5.911,6.2h3.733V32.4L264,33.222v4.644a6.368,6.368,0,1,0-3.378,11.867h.111a5.658,5.658,0,0,0,3.311-1.067Zm-17.156-9.511a2.747,2.747,0,0,1,2.6,1.956h-5.156a2.568,2.568,0,0,1,2.556-1.956m-6.378,3.333a6.481,6.481,0,0,0,6.733,6.4,7.35,7.35,0,0,0,5.156-1.867l-2.511-2.222a3.352,3.352,0,0,1-2.467.933,3.194,3.194,0,0,1-3.044-1.956h8.8v-.933c0-3.933-2.644-6.756-6.244-6.756a6.351,6.351,0,0,0-6.444,6.244.329.329,0,0,1,.022.156M234,36.667a1.859,1.859,0,1,1,0,3.689h-3.978V36.667Zm-8,12.911h4.022V43.622h3.067l3.089,5.956h4.489l-3.6-6.556a4.96,4.96,0,0,0,3.089-4.6c0-2.933-2.311-5.222-5.778-5.222H226Z" transform="translate(-175.389 -24.811)"/><path class="o" d="M28.722,18.944c2.778,0,6.8-.578,6.8-3.889a4.34,4.34,0,0,0-.067-.756L33.811,7.1c-.378-1.578-.711-2.311-3.489-3.689C28.167,2.3,23.478.5,22.078.5c-1.311,0-1.689,1.667-3.222,1.667-1.489,0-2.578-1.244-3.978-1.244-1.333,0-2.2.911-2.867,2.778,0,0-1.867,5.267-2.111,6.044a1.367,1.367,0,0,0-.044.422c-.022,2.044,8.044,8.756,18.867,8.778m7.222-2.533a11.462,11.462,0,0,1,.378,2.244c0,3.111-3.489,4.844-8.089,4.844-10.4,0-19.489-6.089-19.489-10.111a4.077,4.077,0,0,1,.333-1.622C5.344,11.944.5,12.611.5,16.878c0,7,16.578,15.622,29.689,15.622,10.067,0,12.6-4.556,12.6-8.156,0-2.822-2.444-6.022-6.844-7.933"/><path d="M64.8,48.767a11.462,11.462,0,0,1,.378,2.244c0,3.111-3.489,4.844-8.089,4.844-10.4,0-19.489-6.089-19.489-10.111a4.077,4.077,0,0,1,.333-1.622l.822-2.022a1.367,1.367,0,0,0-.044.422c0,2.044,8.067,8.756,18.867,8.756,2.778,0,6.8-.578,6.8-3.889a4.34,4.34,0,0,0-.067-.756Z" transform="translate(-28.856 -32.356)"/></g></g><g class="p" transform="translate(30 -91)"><rect class="q" width="30" height="72" transform="translate(1068 3771)"/><rect class="r" width="48" height="72" transform="translate(1020 3771)"/><rect class="r" width="48" height="72" transform="translate(960 3771)"/><rect class="r" width="48" height="72" transform="translate(900 3771)"/><rect class="r" width="48" height="72" transform="translate(840 3771)"/><rect class="r" width="48" height="72" transform="translate(780 3771)"/><rect class="r" width="48" height="72" transform="translate(720 3771)"/><rect class="r" width="48" height="72" transform="translate(660 3771)"/><rect class="r" width="48" height="72" transform="translate(600 3771)"/><rect class="r" width="48" height="72" transform="translate(540 3771)"/><rect class="r" width="48" height="72" transform="translate(480 3771)"/><rect class="r" width="48" height="72" transform="translate(420 3771)"/><rect class="r" width="48" height="72" transform="translate(360 3771)"/><rect class="q" width="30" height="72" transform="translate(330 3771)"/></g></g></svg>