<svg width="556" height="206" viewBox="0 0 556 206" fill="none" xmlns="http://www.w3.org/2000/svg">
<rect width="254" height="206" transform="translate(302)" fill="#383838"/>
<path d="M445.284 87.19C445.347 87.4814 445.374 87.7795 445.364 88.0775C445.364 91.9278 440.682 92.6031 437.444 92.6057C424.849 92.6057 415.443 84.8017 415.443 82.4159C415.433 82.2415 415.453 82.0666 415.5 81.8984L414.552 84.2453C414.295 84.8445 414.163 85.4899 414.164 86.142C414.164 90.8281 424.776 97.905 436.89 97.8947C442.248 97.8947 446.322 95.8764 446.316 92.2486C446.316 91.9718 446.316 91.7467 445.869 89.6275L445.284 87.19Z" fill="black"/>
<path d="M437.444 92.603C440.681 92.603 445.369 91.9251 445.364 88.0748C445.373 87.7776 445.347 87.4804 445.284 87.1898L443.347 78.8165C442.9 76.9742 442.506 76.1384 439.268 74.5238C436.755 73.2429 431.283 71.1263 429.666 71.1289C428.159 71.1289 427.714 73.0825 425.928 73.0851C424.199 73.0851 422.913 71.6361 421.295 71.6387C419.742 71.6387 418.727 72.7021 417.948 74.8783C417.948 74.8783 415.777 81.0159 415.5 81.9086C415.452 82.0769 415.433 82.2517 415.443 82.4262C415.443 84.8119 424.849 92.6263 437.444 92.6159M445.869 89.6299C446.316 91.7491 446.316 91.9742 446.316 92.2511C446.316 95.8737 442.247 97.8919 436.89 97.8971C424.779 97.8971 414.169 90.8305 414.164 86.1445C414.163 85.4924 414.295 84.8469 414.552 84.2478C410.199 84.4729 404.564 85.2595 404.567 90.225C404.567 98.3706 423.896 108.397 439.188 108.384C450.908 108.384 453.861 103.07 453.859 98.8856C453.859 95.5916 451.012 91.8578 445.869 89.6299Z" fill="#EE0000"/>
<path d="M470.771 130.907C470.771 133.981 472.621 135.476 475.997 135.476C477.036 135.451 478.069 135.305 479.074 135.042V131.476C478.432 131.681 477.761 131.782 477.086 131.776C475.696 131.776 475.181 131.341 475.181 130.035V124.562H479.209V120.888H475.181V116.23L470.781 117.182V120.883H467.859V124.562H470.771V130.907ZM457.068 130.987C457.068 130.035 458.021 129.572 459.462 129.572C460.344 129.577 461.221 129.686 462.077 129.898V131.75C461.233 132.209 460.286 132.444 459.325 132.431C457.912 132.431 457.068 131.885 457.068 130.987ZM458.412 135.531C459.965 135.531 461.217 135.205 462.387 134.415V135.287H466.743V126.063C466.743 122.551 464.375 120.629 460.428 120.629C458.223 120.629 456.043 121.146 453.698 122.207L455.277 125.447C456.965 124.738 458.383 124.303 459.633 124.303C461.445 124.303 462.382 125.01 462.382 126.454V127.15C461.315 126.874 460.217 126.738 459.116 126.743C455.414 126.743 453.181 128.296 453.181 131.07C453.181 133.6 455.194 135.531 458.406 135.531M434.48 135.287H439.162V127.83H447.002V135.287H451.684V116.238H447.007V123.558H439.167V116.238H434.485L434.48 135.287ZM416.639 128.076C416.639 126.006 418.272 124.43 420.423 124.43C421.543 124.405 422.632 124.804 423.472 125.545V130.578C423.064 130.96 422.585 131.258 422.062 131.455C421.538 131.651 420.981 131.742 420.423 131.722C418.3 131.722 416.639 130.143 416.639 128.076ZM423.526 135.287H427.882V115.286L423.482 116.238V121.654C422.362 121.018 421.094 120.69 419.807 120.701C415.616 120.701 412.321 123.938 412.321 128.076C412.31 129.047 412.491 130.01 412.856 130.91C413.221 131.809 413.761 132.628 414.445 133.316C415.129 134.005 415.944 134.551 416.841 134.922C417.739 135.293 418.701 135.481 419.672 135.476C421.061 135.483 422.415 135.045 423.536 134.227L423.526 135.287ZM403.547 124.239C404.934 124.239 406.104 125.136 406.567 126.523H400.557C400.992 125.082 402.082 124.239 403.552 124.239M396.121 128.102C396.121 132.294 399.55 135.559 403.961 135.559C406.384 135.559 408.151 134.907 409.976 133.383L407.062 130.795C406.384 131.502 405.374 131.882 404.178 131.882C403.426 131.903 402.686 131.696 402.054 131.289C401.422 130.881 400.928 130.291 400.637 129.597H410.9V128.508C410.9 123.936 407.825 120.644 403.632 120.644C402.647 120.63 401.668 120.812 400.754 121.181C399.839 121.549 399.008 122.097 398.309 122.792C397.61 123.486 397.056 124.314 396.681 125.225C396.306 126.137 396.118 127.114 396.126 128.099M388.527 120.238C390.08 120.238 390.949 121.219 390.949 122.388C390.949 123.558 390.077 124.539 388.527 124.539H383.899V120.238H388.527ZM379.209 135.287H383.899V128.348H387.463L391.058 135.287H396.284L392.091 127.667C393.157 127.234 394.069 126.492 394.71 125.537C395.351 124.581 395.691 123.456 395.686 122.306C395.686 118.877 392.989 116.238 388.956 116.238H379.217L379.209 135.287Z" fill="white"/>
<rect width="254" height="206" fill="#F2F2F2"/>
<path d="M143.284 87.19C143.347 87.4814 143.374 87.7795 143.364 88.0775C143.364 91.9278 138.682 92.6031 135.444 92.6057C122.849 92.6057 113.443 84.8017 113.443 82.4159C113.433 82.2415 113.453 82.0666 113.5 81.8984L112.552 84.2453C112.295 84.8445 112.163 85.4899 112.164 86.142C112.164 90.8281 122.776 97.905 134.89 97.8947C140.248 97.8947 144.322 95.8764 144.316 92.2486C144.316 91.9718 144.316 91.7467 143.869 89.6275L143.284 87.19Z" fill="black"/>
<path d="M135.444 92.603C138.681 92.603 143.369 91.9251 143.364 88.0748C143.373 87.7776 143.347 87.4804 143.284 87.1898L141.347 78.8165C140.9 76.9742 140.506 76.1384 137.268 74.5238C134.755 73.2429 129.283 71.1263 127.666 71.1289C126.159 71.1289 125.714 73.0825 123.928 73.0851C122.199 73.0851 120.913 71.6361 119.295 71.6387C117.742 71.6387 116.727 72.7021 115.948 74.8783C115.948 74.8783 113.777 81.0159 113.5 81.9086C113.452 82.0769 113.433 82.2517 113.443 82.4262C113.443 84.8119 122.849 92.6263 135.444 92.6159M143.869 89.6299C144.316 91.7491 144.316 91.9742 144.316 92.2511C144.316 95.8737 140.247 97.8919 134.89 97.8971C122.779 97.8971 112.169 90.8305 112.164 86.1445C112.163 85.4924 112.295 84.8469 112.552 84.2478C108.199 84.4729 102.564 85.2595 102.567 90.225C102.567 98.3706 121.896 108.397 137.188 108.384C148.908 108.384 151.861 103.07 151.859 98.8856C151.859 95.5916 149.012 91.8578 143.869 89.6299Z" fill="#EE0000"/>
<path d="M168.771 130.907C168.771 133.981 170.621 135.476 173.997 135.476C175.036 135.451 176.069 135.305 177.074 135.042V131.476C176.432 131.681 175.761 131.782 175.086 131.776C173.696 131.776 173.181 131.341 173.181 130.035V124.562H177.209V120.888H173.181V116.23L168.781 117.182V120.883H165.859V124.562H168.771V130.907ZM155.068 130.987C155.068 130.035 156.021 129.572 157.462 129.572C158.344 129.577 159.221 129.686 160.077 129.898V131.75C159.233 132.209 158.286 132.444 157.325 132.431C155.912 132.431 155.068 131.885 155.068 130.987ZM156.412 135.531C157.965 135.531 159.217 135.205 160.387 134.415V135.287H164.743V126.063C164.743 122.551 162.375 120.629 158.428 120.629C156.223 120.629 154.043 121.146 151.698 122.207L153.277 125.447C154.965 124.738 156.383 124.303 157.633 124.303C159.445 124.303 160.382 125.01 160.382 126.454V127.15C159.315 126.874 158.217 126.738 157.116 126.743C153.414 126.743 151.181 128.296 151.181 131.07C151.181 133.6 153.194 135.531 156.406 135.531M132.48 135.287H137.162V127.83H145.002V135.287H149.684V116.238H145.007V123.558H137.167V116.238H132.485L132.48 135.287ZM114.639 128.076C114.639 126.006 116.272 124.43 118.423 124.43C119.543 124.405 120.632 124.804 121.472 125.545V130.578C121.064 130.96 120.585 131.258 120.062 131.455C119.538 131.651 118.981 131.742 118.423 131.722C116.3 131.722 114.639 130.143 114.639 128.076ZM121.526 135.287H125.882V115.286L121.482 116.238V121.654C120.362 121.018 119.094 120.69 117.807 120.701C113.616 120.701 110.321 123.938 110.321 128.076C110.31 129.047 110.491 130.01 110.856 130.91C111.221 131.809 111.761 132.628 112.445 133.316C113.129 134.005 113.944 134.551 114.841 134.922C115.739 135.293 116.701 135.481 117.672 135.476C119.061 135.483 120.415 135.045 121.536 134.227L121.526 135.287ZM101.547 124.239C102.934 124.239 104.104 125.136 104.567 126.523H98.5573C98.9921 125.082 100.082 124.239 101.552 124.239M94.1209 128.102C94.1209 132.294 97.5504 135.559 101.961 135.559C104.384 135.559 106.151 134.907 107.976 133.383L105.062 130.795C104.384 131.502 103.374 131.882 102.178 131.882C101.426 131.903 100.686 131.696 100.054 131.289C99.4215 130.881 98.9279 130.291 98.6375 129.597H108.9V128.508C108.9 123.936 105.825 120.644 101.632 120.644C100.647 120.63 99.6678 120.812 98.7536 121.181C97.8394 121.549 97.0082 122.097 96.3089 122.792C95.6095 123.486 95.0562 124.314 94.6813 125.225C94.3064 126.137 94.1176 127.114 94.126 128.099M86.5267 120.238C88.0797 120.238 88.9494 121.219 88.9494 122.388C88.9494 123.558 88.0771 124.539 86.5267 124.539H81.8988V120.238H86.5267ZM77.2087 135.287H81.8988V128.348H85.4629L89.0581 135.287H94.2839L90.0908 127.667C91.1569 127.234 92.0691 126.492 92.7098 125.537C93.3505 124.581 93.6905 123.456 93.686 122.306C93.686 118.877 90.989 116.238 86.9564 116.238H77.2165L77.2087 135.287Z" fill="black"/>
</svg>
