<svg width="442" height="177" viewBox="0 0 442 177" fill="none" xmlns="http://www.w3.org/2000/svg">
<rect width="442" height="177" fill="#F5F5F5"/>
<path d="M-198 -168C-198 -169.105 -197.105 -170 -196 -170H1630C1631.1 -170 1632 -169.105 1632 -168V2791C1632 2792.1 1631.1 2793 1630 2793H-196C-197.105 2793 -198 2792.1 -198 2791V-168Z" fill="#D9D9D9"/>
<path d="M-196 -169H1630V-171H-196V-169ZM1631 -168V2791H1633V-168H1631ZM1630 2792H-196V2794H1630V2792ZM-197 2791V-168H-199V2791H-197ZM-196 2792C-196.552 2792 -197 2791.55 -197 2791H-199C-199 2792.66 -197.657 2794 -196 2794V2792ZM1631 2791C1631 2791.55 1630.55 2792 1630 2792V2794C1631.66 2794 1633 2792.66 1633 2791H1631ZM1630 -169C1630.55 -169 1631 -168.552 1631 -168H1633C1633 -169.657 1631.66 -171 1630 -171V-169ZM-196 -171C-197.657 -171 -199 -169.657 -199 -168H-197C-197 -168.552 -196.552 -169 -196 -169V-171Z" fill="black" fill-opacity="0.1"/>
<rect width="570" height="305" transform="translate(-64 -64)" fill="#EFEFEF"/>
<g clip-path="url(#clip0_2555_5447)">
<rect width="442" height="177" fill="white"/>
<rect x="76.5" y="67.5" width="159" height="109" rx="2.5" fill="white" stroke="#C7C7C7"/>
<path d="M172.284 106.19C172.347 106.481 172.374 106.779 172.364 107.077C172.364 110.928 167.682 111.603 164.444 111.606C151.849 111.606 142.443 103.802 142.443 101.416C142.433 101.241 142.453 101.067 142.5 100.898L141.552 103.245C141.295 103.844 141.163 104.49 141.164 105.142C141.164 109.828 151.776 116.905 163.89 116.895C169.248 116.895 173.322 114.876 173.316 111.249C173.316 110.972 173.316 110.747 172.869 108.627L172.284 106.19Z" fill="black"/>
<path d="M164.444 111.603C167.681 111.603 172.369 110.925 172.364 107.075C172.373 106.778 172.347 106.48 172.284 106.19L170.347 97.8165C169.9 95.9742 169.506 95.1384 166.268 93.5238C163.755 92.2429 158.283 90.1263 156.666 90.1289C155.159 90.1289 154.714 92.0825 152.928 92.0851C151.199 92.0851 149.913 90.6361 148.295 90.6387C146.742 90.6387 145.727 91.7021 144.948 93.8783C144.948 93.8783 142.777 100.016 142.5 100.909C142.452 101.077 142.433 101.252 142.443 101.426C142.443 103.812 151.849 111.626 164.444 111.616M172.869 108.63C173.316 110.749 173.316 110.974 173.316 111.251C173.316 114.874 169.247 116.892 163.89 116.897C151.779 116.897 141.169 109.831 141.164 105.144C141.163 104.492 141.295 103.847 141.552 103.248C137.199 103.473 131.564 104.26 131.567 109.225C131.567 117.371 150.896 127.397 166.188 127.384C177.908 127.384 180.861 122.07 180.859 117.886C180.859 114.592 178.012 110.858 172.869 108.63Z" fill="#EE0000"/>
<path d="M197.771 149.906C197.771 152.98 199.621 154.476 202.997 154.476C204.036 154.45 205.069 154.305 206.074 154.041V150.476C205.432 150.681 204.761 150.782 204.086 150.776C202.696 150.776 202.181 150.341 202.181 149.034V143.562H206.209V139.887H202.181V135.23L197.781 136.182V139.882H194.859V143.562H197.771V149.906ZM184.068 149.987C184.068 149.034 185.021 148.571 186.462 148.571C187.344 148.576 188.221 148.686 189.077 148.897V150.75C188.233 151.209 187.286 151.443 186.325 151.431C184.912 151.431 184.068 150.885 184.068 149.987ZM185.412 154.53C186.965 154.53 188.217 154.204 189.387 153.415V154.287H193.743V145.063C193.743 141.551 191.375 139.629 187.428 139.629C185.223 139.629 183.043 140.146 180.698 141.207L182.277 144.447C183.965 143.738 185.383 143.303 186.633 143.303C188.445 143.303 189.382 144.009 189.382 145.453V146.149C188.315 145.874 187.217 145.737 186.116 145.743C182.414 145.743 180.181 147.296 180.181 150.069C180.181 152.6 182.194 154.53 185.406 154.53M161.48 154.287H166.162V146.83H174.002V154.287H178.684V135.238H174.007V142.558H166.167V135.238H161.485L161.48 154.287ZM143.639 147.076C143.639 145.006 145.272 143.43 147.423 143.43C148.543 143.405 149.632 143.803 150.472 144.545V149.578C150.064 149.96 149.585 150.258 149.062 150.454C148.538 150.651 147.981 150.741 147.423 150.722C145.3 150.722 143.639 149.143 143.639 147.076ZM150.526 154.287H154.882V134.285L150.482 135.238V140.653C149.362 140.018 148.094 139.69 146.807 139.701C142.616 139.701 139.321 142.938 139.321 147.076C139.31 148.046 139.491 149.01 139.856 149.909C140.221 150.809 140.761 151.627 141.445 152.316C142.129 153.005 142.944 153.551 143.841 153.922C144.739 154.292 145.701 154.481 146.672 154.476C148.061 154.483 149.415 154.045 150.536 153.226L150.526 154.287ZM130.547 143.238C131.934 143.238 133.104 144.136 133.567 145.523H127.557C127.992 144.082 129.082 143.238 130.552 143.238M123.121 147.102C123.121 151.293 126.55 154.559 130.961 154.559C133.384 154.559 135.151 153.907 136.976 152.383L134.062 149.795C133.384 150.502 132.374 150.882 131.178 150.882C130.426 150.903 129.686 150.696 129.054 150.288C128.422 149.881 127.928 149.291 127.637 148.597H137.9V147.508C137.9 142.936 134.825 139.644 130.632 139.644C129.647 139.629 128.668 139.812 127.754 140.18C126.839 140.549 126.008 141.097 125.309 141.791C124.61 142.486 124.056 143.313 123.681 144.225C123.306 145.136 123.118 146.113 123.126 147.099M115.527 139.238C117.08 139.238 117.949 140.219 117.949 141.388C117.949 142.558 117.077 143.538 115.527 143.538H110.899V139.238H115.527ZM106.209 154.287H110.899V147.347H114.463L118.058 154.287H123.284L119.091 146.667C120.157 146.234 121.069 145.492 121.71 144.537C122.351 143.581 122.691 142.456 122.686 141.305C122.686 137.877 119.989 135.238 115.956 135.238H106.217L106.209 154.287Z" fill="black"/>
<path d="M379.284 106.19C379.347 106.481 379.374 106.779 379.364 107.077C379.364 110.928 374.682 111.603 371.444 111.606C358.849 111.606 349.443 103.802 349.443 101.416C349.433 101.241 349.453 101.067 349.5 100.898L348.552 103.245C348.295 103.844 348.163 104.49 348.164 105.142C348.164 109.828 358.776 116.905 370.89 116.895C376.248 116.895 380.322 114.876 380.316 111.249C380.316 110.972 380.316 110.747 379.869 108.627L379.284 106.19Z" fill="black"/>
<path d="M371.444 111.603C374.681 111.603 379.369 110.925 379.364 107.075C379.373 106.778 379.347 106.48 379.284 106.19L377.347 97.8165C376.9 95.9742 376.506 95.1384 373.268 93.5238C370.755 92.2429 365.283 90.1263 363.666 90.1289C362.159 90.1289 361.714 92.0825 359.928 92.0851C358.199 92.0851 356.913 90.6361 355.295 90.6387C353.742 90.6387 352.727 91.7021 351.948 93.8783C351.948 93.8783 349.777 100.016 349.5 100.909C349.452 101.077 349.433 101.252 349.443 101.426C349.443 103.812 358.849 111.626 371.444 111.616M379.869 108.63C380.316 110.749 380.316 110.974 380.316 111.251C380.316 114.874 376.247 116.892 370.89 116.897C358.779 116.897 348.169 109.831 348.164 105.144C348.163 104.492 348.295 103.847 348.552 103.248C344.199 103.473 338.564 104.26 338.567 109.225C338.567 117.371 357.896 127.397 373.188 127.384C384.908 127.384 387.861 122.07 387.859 117.886C387.859 114.592 385.012 110.858 379.869 108.63Z" fill="#EE0000"/>
<path d="M404.771 149.906C404.771 152.98 406.621 154.476 409.997 154.476C411.036 154.45 412.069 154.305 413.074 154.041V150.476C412.432 150.681 411.761 150.782 411.086 150.776C409.696 150.776 409.181 150.341 409.181 149.034V143.562H413.209V139.887H409.181V135.23L404.781 136.182V139.882H401.859V143.562H404.771V149.906ZM391.068 149.987C391.068 149.034 392.021 148.571 393.462 148.571C394.344 148.576 395.221 148.686 396.077 148.897V150.75C395.233 151.209 394.286 151.443 393.325 151.431C391.912 151.431 391.068 150.885 391.068 149.987ZM392.412 154.53C393.965 154.53 395.217 154.204 396.387 153.415V154.287H400.743V145.063C400.743 141.551 398.375 139.629 394.428 139.629C392.223 139.629 390.043 140.146 387.698 141.207L389.277 144.447C390.965 143.738 392.383 143.303 393.633 143.303C395.445 143.303 396.382 144.009 396.382 145.453V146.149C395.315 145.874 394.217 145.737 393.116 145.743C389.414 145.743 387.181 147.296 387.181 150.069C387.181 152.6 389.194 154.53 392.406 154.53M368.48 154.287H373.162V146.83H381.002V154.287H385.684V135.238H381.007V142.558H373.167V135.238H368.485L368.48 154.287ZM350.639 147.076C350.639 145.006 352.272 143.43 354.423 143.43C355.543 143.405 356.632 143.803 357.472 144.545V149.578C357.064 149.96 356.585 150.258 356.062 150.454C355.538 150.651 354.981 150.741 354.423 150.722C352.3 150.722 350.639 149.143 350.639 147.076ZM357.526 154.287H361.882V134.285L357.482 135.238V140.653C356.362 140.018 355.094 139.69 353.807 139.701C349.616 139.701 346.321 142.938 346.321 147.076C346.31 148.046 346.491 149.01 346.856 149.909C347.221 150.809 347.761 151.627 348.445 152.316C349.129 153.005 349.944 153.551 350.841 153.922C351.739 154.292 352.701 154.481 353.672 154.476C355.061 154.483 356.415 154.045 357.536 153.226L357.526 154.287ZM337.547 143.238C338.934 143.238 340.104 144.136 340.567 145.523H334.557C334.992 144.082 336.082 143.238 337.552 143.238M330.121 147.102C330.121 151.293 333.55 154.559 337.961 154.559C340.384 154.559 342.151 153.907 343.976 152.383L341.062 149.795C340.384 150.502 339.374 150.882 338.178 150.882C337.426 150.903 336.686 150.696 336.054 150.288C335.422 149.881 334.928 149.291 334.637 148.597H344.9V147.508C344.9 142.936 341.825 139.644 337.632 139.644C336.647 139.629 335.668 139.812 334.754 140.18C333.839 140.549 333.008 141.097 332.309 141.791C331.61 142.486 331.056 143.313 330.681 144.225C330.306 145.136 330.118 146.113 330.126 147.099M322.527 139.238C324.08 139.238 324.949 140.219 324.949 141.388C324.949 142.558 324.077 143.538 322.527 143.538H317.899V139.238H322.527ZM313.209 154.287H317.899V147.347H321.463L325.058 154.287H330.284L326.091 146.667C327.157 146.234 328.069 145.492 328.71 144.537C329.351 143.581 329.691 142.456 329.686 141.305C329.686 137.877 326.989 135.238 322.956 135.238H313.217L313.209 154.287Z" fill="black"/>
<circle cx="17" cy="122" r="17" fill="#FF00FF"/>
<path d="M13.2535 128V126.736L17.8455 121.936C18.1228 121.648 18.3362 121.387 18.4855 121.152C18.6455 120.917 18.7575 120.693 18.8215 120.48C18.8962 120.256 18.9335 120.027 18.9335 119.792C18.9335 119.323 18.7415 118.933 18.3575 118.624C17.9735 118.315 17.4882 118.16 16.9015 118.16C16.3895 118.16 15.9095 118.261 15.4615 118.464C15.0135 118.667 14.5228 119.019 13.9895 119.52L12.9975 118.32C13.6162 117.755 14.2508 117.333 14.9015 117.056C15.5522 116.768 16.2295 116.624 16.9335 116.624C17.6695 116.624 18.3148 116.757 18.8695 117.024C19.4242 117.28 19.8562 117.637 20.1655 118.096C20.4748 118.555 20.6295 119.088 20.6295 119.696C20.6295 120.059 20.5815 120.4 20.4855 120.72C20.3895 121.04 20.2242 121.365 19.9895 121.696C19.7655 122.027 19.4508 122.405 19.0455 122.832L15.4775 126.512L20.8375 126.496V128H13.2535Z" fill="white"/>
<circle cx="363" cy="17" r="17" fill="#FF00FF"/>
<path d="M362.842 23V13.64L360.858 14.488V12.936L363.482 11.8H364.586V23H362.842Z" fill="white"/>
<path d="M363 119.333C361.527 119.333 360.333 120.527 360.333 122C360.333 123.473 361.527 124.667 363 124.667C364.473 124.667 365.667 123.473 365.667 122C365.667 120.527 364.473 119.333 363 119.333ZM362.5 34L362.5 122L363.5 122L363.5 34L362.5 34Z" fill="#FF00FF"/>
<path d="M73.3333 122C73.3333 123.473 74.5272 124.667 76 124.667C77.4728 124.667 78.6667 123.473 78.6667 122C78.6667 120.527 77.4728 119.333 76 119.333C74.5272 119.333 73.3333 120.527 73.3333 122ZM34 122.5H76V121.5H34V122.5Z" fill="#FF00FF"/>
<circle cx="156" cy="17" r="17" fill="#FF00FF"/>
<path d="M155.842 23V13.64L153.858 14.488V12.936L156.482 11.8H157.586V23H155.842Z" fill="white"/>
<path d="M156 119.333C154.527 119.333 153.333 120.527 153.333 122C153.333 123.473 154.527 124.667 156 124.667C157.473 124.667 158.667 123.473 158.667 122C158.667 120.527 157.473 119.333 156 119.333ZM155.5 34L155.5 122L156.5 122L156.5 34L155.5 34Z" fill="#FF00FF"/>
</g>
<defs>
<clipPath id="clip0_2555_5447">
<rect width="442" height="177" fill="white"/>
</clipPath>
</defs>
</svg>
