<svg width="715" height="227" viewBox="0 0 715 227" fill="none" xmlns="http://www.w3.org/2000/svg">
<circle cx="604" cy="164" r="11" fill="#B300B3"/>
<path d="M605.501 169V166.382H600.209V165.584L605.417 159.2H606.495V165.5H607.853V166.382H606.495V169H605.501ZM601.385 165.5H605.501V160.418L601.385 165.5Z" fill="white"/>
<circle cx="604" cy="134" r="11" fill="#B300B3"/>
<path d="M603.807 139.154C603.135 139.154 602.505 139.037 601.917 138.804C601.338 138.571 600.825 138.225 600.377 137.768L601.049 137.11C601.459 137.521 601.879 137.819 602.309 138.006C602.747 138.183 603.242 138.272 603.793 138.272C604.269 138.272 604.689 138.188 605.053 138.02C605.426 137.852 605.715 137.619 605.921 137.32C606.126 137.021 606.229 136.681 606.229 136.298C606.229 135.934 606.135 135.612 605.949 135.332C605.771 135.043 605.524 134.819 605.207 134.66C604.889 134.501 604.525 134.422 604.115 134.422H602.953V133.554H604.073C604.605 133.554 605.034 133.391 605.361 133.064C605.697 132.737 605.865 132.313 605.865 131.79C605.865 131.445 605.771 131.132 605.585 130.852C605.398 130.572 605.141 130.353 604.815 130.194C604.497 130.026 604.138 129.942 603.737 129.942C603.233 129.942 602.78 130.035 602.379 130.222C601.987 130.399 601.585 130.703 601.175 131.132L600.503 130.46C600.941 129.993 601.436 129.643 601.987 129.41C602.537 129.167 603.125 129.046 603.751 129.046C604.348 129.046 604.88 129.163 605.347 129.396C605.823 129.629 606.196 129.951 606.467 130.362C606.737 130.763 606.873 131.221 606.873 131.734C606.873 132.247 606.705 132.709 606.369 133.12C606.033 133.521 605.589 133.801 605.039 133.96C605.701 134.109 606.233 134.399 606.635 134.828C607.036 135.257 607.237 135.757 607.237 136.326C607.237 136.867 607.087 137.353 606.789 137.782C606.499 138.211 606.093 138.547 605.571 138.79C605.057 139.033 604.469 139.154 603.807 139.154Z" fill="white"/>
<rect x="625" y="125" width="88" height="100" fill="#FCE3E3" stroke="#5F0000" stroke-width="4"/>
<rect x="631" y="207" width="76" height="12" fill="#5F0000"/>
<path d="M655.701 192V147.2H685.205V153.728H663.381V166.528H677.909V172.928H663.381V192H655.701Z" fill="#151515"/>
<path d="M669.5 119L674 113H665L669.5 119Z" fill="#B300B3"/>
<rect x="669" y="84" width="1" height="29" fill="#B300B3"/>
<rect x="520.5" y="52.5" width="162" height="31" stroke="#C7C7C7"/>
<rect x="521" y="53" width="26" height="30" fill="white"/>
<rect x="522" y="78" width="24" height="4" fill="#3D7317"/>
<path d="M529.459 71.9998L533.219 60.7998H534.771L538.547 71.9998H537.251L536.227 68.8798H531.731L530.723 71.9998H529.459ZM532.051 67.9038H535.907L533.971 61.9838L532.051 67.9038Z" fill="#204D00"/>
<rect x="548" y="53" width="26" height="30" fill="white"/>
<rect x="549" y="78" width="24" height="4" fill="#87BB62"/>
<path d="M557.723 71.9998V60.7998H561.131C561.814 60.7998 562.406 60.9171 562.907 61.1518C563.419 61.3865 563.814 61.7171 564.091 62.1438C564.368 62.5705 564.507 63.0718 564.507 63.6478C564.507 64.2665 564.326 64.7998 563.963 65.2478C563.611 65.6851 563.131 65.9945 562.523 66.1758C563.27 66.3465 563.856 66.6718 564.283 67.1518C564.72 67.6211 564.939 68.2025 564.939 68.8958C564.939 69.5145 564.79 70.0585 564.491 70.5278C564.192 70.9971 563.771 71.3598 563.227 71.6158C562.683 71.8718 562.043 71.9998 561.307 71.9998H557.723ZM558.955 65.6958H561.035C561.718 65.6958 562.262 65.5251 562.667 65.1838C563.072 64.8318 563.275 64.3625 563.275 63.7758C563.275 63.1891 563.072 62.7251 562.667 62.3838C562.262 62.0318 561.718 61.8558 561.035 61.8558H558.955V65.6958ZM558.955 70.9438H561.179C561.936 70.9438 562.544 70.7518 563.003 70.3678C563.462 69.9838 563.691 69.4665 563.691 68.8158C563.691 68.1758 563.462 67.6638 563.003 67.2798C562.555 66.8958 561.947 66.7038 561.179 66.7038H558.955V70.9438Z" fill="#204D00"/>
<rect x="575" y="53" width="26" height="30" fill="white"/>
<rect x="576" y="78" width="24" height="4" fill="#FFCC17"/>
<path d="M588.099 72.176C587.352 72.176 586.654 71.952 586.003 71.504C585.363 71.056 584.846 70.4054 584.451 69.552C584.056 68.688 583.859 67.6374 583.859 66.4C583.859 65.1627 584.056 64.1174 584.451 63.264C584.846 62.4 585.363 61.744 586.003 61.296C586.654 60.848 587.352 60.624 588.099 60.624C588.75 60.624 589.342 60.7627 589.875 61.04C590.408 61.3067 590.867 61.696 591.251 62.208C591.635 62.72 591.928 63.3387 592.131 64.064L590.963 64.432C590.75 63.568 590.382 62.9067 589.859 62.448C589.347 61.9787 588.76 61.744 588.099 61.744C587.544 61.744 587.038 61.9307 586.579 62.304C586.131 62.6667 585.774 63.1947 585.507 63.888C585.24 64.5814 585.107 65.4187 585.107 66.4C585.107 67.3814 585.24 68.2187 585.507 68.912C585.774 69.6054 586.131 70.1387 586.579 70.512C587.038 70.8747 587.544 71.056 588.099 71.056C588.76 71.056 589.347 70.8267 589.859 70.368C590.382 69.8987 590.75 69.232 590.963 68.368L592.131 68.736C591.928 69.4507 591.635 70.0694 591.251 70.592C590.867 71.104 590.408 71.4987 589.875 71.776C589.342 72.0427 588.75 72.176 588.099 72.176Z" fill="#73480B"/>
<rect x="602" y="53" width="26" height="30" fill="white"/>
<rect x="603" y="78" width="24" height="4" fill="#F5921B"/>
<path d="M612.827 70.9278H614.523C615.195 70.9278 615.782 70.7411 616.283 70.3678C616.795 69.9838 617.19 69.4558 617.467 68.7838C617.745 68.1011 617.883 67.3065 617.883 66.3998C617.883 65.4931 617.745 64.7038 617.467 64.0318C617.19 63.3491 616.795 62.8211 616.283 62.4478C615.782 62.0638 615.195 61.8718 614.523 61.8718H612.827V70.9278ZM611.595 71.9998V60.7998H614.683C615.558 60.7998 616.326 61.0398 616.987 61.5198C617.659 61.9891 618.182 62.6451 618.555 63.4878C618.939 64.3198 619.131 65.2905 619.131 66.3998C619.131 67.4985 618.939 68.4691 618.555 69.3118C618.182 70.1545 617.659 70.8158 616.987 71.2958C616.326 71.7651 615.558 71.9998 614.683 71.9998H611.595Z" fill="#732E00"/>
<rect x="629" y="53" width="26" height="30" fill="white"/>
<rect x="630" y="78" width="24" height="4" fill="#B1380B"/>
<path d="M638.755 71.9998V60.7998H645.763V61.8718H639.987V65.8078H643.795V66.8798H639.987V70.9278H645.827V71.9998H638.755Z" fill="#731F00"/>
<rect x="655.5" y="52.5" width="27" height="31" fill="#FCE3E3" stroke="#5F0000"/>
<rect x="657" y="78" width="24" height="4" fill="#5F0000"/>
<path d="M665.675 71.9998V60.7998H673.051V62.4318H667.595V65.6318H671.227V67.2318H667.595V71.9998H665.675Z" fill="#151515"/>
<path d="M618.946 15.1402C618.293 15.1402 617.705 14.9862 617.182 14.6782C616.66 14.3608 616.244 13.9362 615.936 13.4042C615.638 12.8628 615.488 12.2562 615.488 11.5842C615.488 10.9122 615.633 10.3102 615.922 9.77815C616.212 9.24615 616.604 8.82615 617.098 8.51815C617.602 8.21015 618.162 8.05615 618.778 8.05615C619.422 8.05615 619.996 8.21015 620.5 8.51815C621.004 8.81682 621.401 9.22749 621.69 9.75015C621.98 10.2635 622.124 10.8468 622.124 11.5002V11.8082H616.482C616.52 12.2748 616.65 12.6948 616.874 13.0682C617.098 13.4322 617.392 13.7215 617.756 13.9362C618.13 14.1415 618.54 14.2442 618.988 14.2442C619.39 14.2442 619.763 14.1695 620.108 14.0202C620.463 13.8615 620.757 13.6468 620.99 13.3762L621.704 14.0062C621.34 14.3795 620.925 14.6642 620.458 14.8602C619.992 15.0468 619.488 15.1402 618.946 15.1402ZM616.51 11.0522H621.116C621.06 10.6415 620.92 10.2775 620.696 9.96015C620.482 9.64282 620.206 9.39549 619.87 9.21815C619.544 9.03149 619.175 8.93815 618.764 8.93815C618.382 8.93815 618.032 9.02682 617.714 9.20415C617.397 9.38149 617.131 9.62882 616.916 9.94615C616.711 10.2635 616.576 10.6322 616.51 11.0522Z" fill="#B300B3"/>
<path d="M610.426 18.066C609.968 18.066 609.506 18.0007 609.04 17.87C608.582 17.7487 608.158 17.576 607.766 17.352L608.2 16.568C608.62 16.7827 609.002 16.9413 609.348 17.044C609.693 17.1467 610.038 17.198 610.384 17.198C611.653 17.198 612.288 16.6147 612.288 15.448V14.076C612.026 14.4027 611.709 14.6547 611.336 14.832C610.962 15 610.552 15.084 610.104 15.084C609.516 15.084 608.984 14.93 608.508 14.622C608.032 14.3047 607.654 13.8847 607.374 13.362C607.094 12.83 606.954 12.2373 606.954 11.584C606.954 10.9307 607.094 10.3427 607.374 9.81998C607.663 9.28798 608.05 8.86798 608.536 8.55998C609.021 8.24265 609.562 8.08398 610.16 8.08398C610.589 8.08398 610.986 8.16798 611.35 8.33598C611.714 8.49465 612.031 8.73265 612.302 9.04998V8.16798H613.31V15.434C613.31 16.2833 613.062 16.932 612.568 17.38C612.073 17.8373 611.359 18.066 610.426 18.066ZM610.356 14.202C610.757 14.202 611.126 14.1227 611.462 13.964C611.798 13.796 612.073 13.5673 612.288 13.278V9.90398C612.064 9.61465 611.779 9.39065 611.434 9.23198C611.098 9.06398 610.738 8.97998 610.356 8.97998C609.898 8.97998 609.488 9.09198 609.124 9.31598C608.769 9.53998 608.484 9.84798 608.27 10.24C608.064 10.632 607.962 11.08 607.962 11.584C607.962 12.0787 608.064 12.5267 608.27 12.928C608.484 13.32 608.769 13.6327 609.124 13.866C609.488 14.09 609.898 14.202 610.356 14.202Z" fill="#B300B3"/>
<path d="M599.091 15.0002V14.1602H600.967V9.00815H599.091V8.16815H601.989V9.69415C602.194 9.17149 602.502 8.77015 602.913 8.49015C603.324 8.20082 603.8 8.05615 604.341 8.05615C604.556 8.05615 604.747 8.07482 604.915 8.11215C605.083 8.14015 605.284 8.19149 605.517 8.26615V9.20415C605.284 9.12949 605.06 9.06882 604.845 9.02215C604.64 8.97549 604.434 8.95215 604.229 8.95215C603.725 8.95215 603.277 9.08282 602.885 9.34415C602.493 9.60549 602.194 9.97882 601.989 10.4642V14.1602H603.977V15.0002H599.091Z" fill="#B300B3"/>
<path d="M592.979 15.1402C592.484 15.1402 592.041 15.0515 591.649 14.8742C591.266 14.6968 590.967 14.4542 590.753 14.1462C590.538 13.8288 590.431 13.4648 590.431 13.0542C590.431 12.6435 590.538 12.2842 590.753 11.9762C590.977 11.6682 591.285 11.4302 591.677 11.2622C592.078 11.0942 592.54 11.0102 593.063 11.0102C593.473 11.0102 593.856 11.0522 594.211 11.1362C594.565 11.2108 594.901 11.3415 595.219 11.5282V10.7442C595.219 10.1375 595.065 9.68015 594.757 9.37215C594.449 9.06415 593.991 8.91015 593.385 8.91015C593.039 8.91015 592.694 8.96149 592.349 9.06415C592.003 9.15749 591.616 9.32549 591.187 9.56815L590.767 8.79815C591.261 8.52749 591.733 8.33615 592.181 8.22415C592.629 8.11215 593.072 8.05615 593.511 8.05615C594.379 8.05615 595.046 8.27549 595.513 8.71415C595.989 9.15282 596.227 9.78282 596.227 10.6042V15.0002H595.219V14.2162C594.901 14.5335 594.556 14.7668 594.183 14.9162C593.819 15.0655 593.417 15.1402 592.979 15.1402ZM591.411 13.0262C591.411 13.4275 591.574 13.7495 591.901 13.9922C592.227 14.2348 592.657 14.3562 593.189 14.3562C593.59 14.3562 593.954 14.2955 594.281 14.1742C594.617 14.0435 594.929 13.8382 595.219 13.5582V12.2422C594.929 12.0648 594.621 11.9388 594.295 11.8642C593.968 11.7895 593.609 11.7522 593.217 11.7522C592.675 11.7522 592.237 11.8688 591.901 12.1022C591.574 12.3355 591.411 12.6435 591.411 13.0262Z" fill="#B300B3"/>
<path d="M582.456 15.0002V5.2002H583.534V14.0622H588.574V15.0002H582.456Z" fill="#B300B3"/>
<circle cx="236.5" cy="216" r="11" fill="#B300B3"/>
<path d="M233.339 221V220.258L237.259 215.974C237.567 215.638 237.805 215.344 237.973 215.092C238.15 214.831 238.271 214.588 238.337 214.364C238.411 214.14 238.449 213.902 238.449 213.65C238.449 213.155 238.253 212.749 237.861 212.432C237.478 212.105 236.988 211.942 236.391 211.942C235.933 211.942 235.509 212.031 235.117 212.208C234.725 212.385 234.286 212.693 233.801 213.132L233.213 212.432C233.726 211.965 234.244 211.62 234.767 211.396C235.289 211.163 235.835 211.046 236.405 211.046C236.993 211.046 237.515 211.158 237.973 211.382C238.43 211.597 238.789 211.895 239.051 212.278C239.312 212.661 239.443 213.099 239.443 213.594C239.443 213.921 239.401 214.224 239.317 214.504C239.233 214.775 239.083 215.069 238.869 215.386C238.654 215.694 238.346 216.067 237.945 216.506L234.599 220.132L239.653 220.118V221H233.339Z" fill="white"/>
<path d="M236.397 196.704C233.41 196.704 230.615 195.808 228.013 194.016C225.453 192.224 223.383 189.621 221.805 186.208C220.226 182.752 219.437 178.549 219.437 173.6C219.437 168.651 220.226 164.469 221.805 161.056C223.383 157.6 225.453 154.976 228.013 153.184C230.615 151.392 233.41 150.496 236.397 150.496C238.999 150.496 241.367 151.051 243.501 152.16C245.634 153.227 247.469 154.784 249.005 156.832C250.541 158.88 251.714 161.355 252.525 164.256L247.853 165.728C246.999 162.272 245.527 159.627 243.437 157.792C241.389 155.915 239.042 154.976 236.397 154.976C234.178 154.976 232.151 155.723 230.317 157.216C228.525 158.667 227.095 160.779 226.029 163.552C224.962 166.325 224.429 169.675 224.429 173.6C224.429 177.525 224.962 180.875 226.029 183.648C227.095 186.421 228.525 188.555 230.317 190.048C232.151 191.499 234.178 192.224 236.397 192.224C239.042 192.224 241.389 191.307 243.437 189.472C245.527 187.595 246.999 184.928 247.853 181.472L252.525 182.944C251.714 185.803 250.541 188.277 249.005 190.368C247.469 192.416 245.634 193.995 243.501 195.104C241.367 196.171 238.999 196.704 236.397 196.704Z" fill="#151515"/>
<path d="M236.5 146L241 140H232L236.5 146Z" fill="#B300B3"/>
<rect x="236" y="74" width="1" height="66" fill="#B300B3"/>
<path d="M236.104 73.7761C235.357 73.7761 234.659 73.5521 234.008 73.1041C233.368 72.6561 232.851 72.0055 232.456 71.1521C232.061 70.2881 231.864 69.2375 231.864 68.0001C231.864 66.7628 232.061 65.7175 232.456 64.8641C232.851 64.0001 233.368 63.3441 234.008 62.8961C234.659 62.4481 235.357 62.2241 236.104 62.2241C236.755 62.2241 237.347 62.3628 237.88 62.6401C238.413 62.9068 238.872 63.2961 239.256 63.8081C239.64 64.3201 239.933 64.9388 240.136 65.6641L238.968 66.0321C238.755 65.1681 238.387 64.5068 237.864 64.0481C237.352 63.5788 236.765 63.3441 236.104 63.3441C235.549 63.3441 235.043 63.5308 234.584 63.9041C234.136 64.2668 233.779 64.7948 233.512 65.4881C233.245 66.1815 233.112 67.0188 233.112 68.0001C233.112 68.9815 233.245 69.8188 233.512 70.5121C233.779 71.2055 234.136 71.7388 234.584 72.1121C235.043 72.4748 235.549 72.6561 236.104 72.6561C236.765 72.6561 237.352 72.4268 237.864 71.9681C238.387 71.4988 238.755 70.8321 238.968 69.9681L240.136 70.3361C239.933 71.0508 239.64 71.6695 239.256 72.1921C238.872 72.7041 238.413 73.0988 237.88 73.3761C237.347 73.6428 236.755 73.7761 236.104 73.7761Z" fill="#151515"/>
<mask id="path-40-inside-1_17_1908" fill="white">
<path d="M257 56H281V80H257V56Z"/>
</mask>
<path d="M257 56H281V80H257V56Z" fill="white"/>
<path d="M257 56V55H256V56H257ZM257 80H256V81H257V80ZM257 57H281V55H257V57ZM281 79H257V81H281V79ZM258 80V56H256V80H258Z" fill="#C7C7C7" mask="url(#path-40-inside-1_17_1908)"/>
<mask id="path-42-inside-2_17_1908" fill="white">
<path d="M281 56H305V80H281V56Z"/>
</mask>
<path d="M281 56H305V80H281V56Z" fill="white"/>
<path d="M281 56V55H280V56H281ZM281 80H280V81H281V80ZM281 57H305V55H281V57ZM305 79H281V81H305V79ZM282 80V56H280V80H282Z" fill="#C7C7C7" mask="url(#path-42-inside-2_17_1908)"/>
<rect x="305.5" y="56.5" width="23" height="23" fill="#FFCC17" stroke="#B98412"/>
<mask id="path-45-inside-3_17_1908" fill="white">
<path d="M329 56H353V80H329V56Z"/>
</mask>
<path d="M329 56H353V80H329V56Z" fill="white"/>
<path d="M353 56H354V55H353V56ZM353 80V81H354V80H353ZM329 57H353V55H329V57ZM352 56V80H354V56H352ZM353 79H329V81H353V79Z" fill="#C7C7C7" mask="url(#path-45-inside-3_17_1908)"/>
<mask id="path-47-inside-4_17_1908" fill="white">
<path d="M353 56H377V80H353V56Z"/>
</mask>
<path d="M353 56H377V80H353V56Z" fill="white"/>
<path d="M377 56H378V55H377V56ZM377 80V81H378V80H377ZM353 57H377V55H353V57ZM376 56V80H378V56H376ZM377 79H353V81H377V79Z" fill="#C7C7C7" mask="url(#path-47-inside-4_17_1908)"/>
<mask id="path-49-inside-5_17_1908" fill="white">
<path d="M377 56H401V80H377V56Z"/>
</mask>
<path d="M377 56H401V80H377V56Z" fill="white"/>
<path d="M401 56H402V55H401V56ZM401 80V81H402V80H401ZM377 57H401V55H377V57ZM400 56V80H402V56H400ZM401 79H377V81H401V79Z" fill="#C7C7C7" mask="url(#path-49-inside-5_17_1908)"/>
<path d="M342.687 15.1402C341.922 15.1402 341.334 14.9769 340.923 14.6502C340.522 14.3142 340.321 13.8289 340.321 13.1942V9.0082H337.983V8.1682H340.321V6.2922L341.343 6.0542V8.1682H344.493V9.0082H341.343V13.0262C341.343 13.4555 341.46 13.7635 341.693 13.9502C341.926 14.1369 342.262 14.2302 342.701 14.2302C342.972 14.2302 343.252 14.2022 343.541 14.1462C343.83 14.0902 344.148 13.9969 344.493 13.8662V14.7902C344.185 14.9022 343.882 14.9862 343.583 15.0422C343.284 15.1075 342.986 15.1402 342.687 15.1402Z" fill="#B300B3"/>
<path d="M334.783 15.1403C334.064 15.1403 333.513 14.9723 333.131 14.6363C332.748 14.3003 332.557 13.7963 332.557 13.1243V5.66227H330.023V4.82227H333.579V13.0263C333.579 13.4556 333.681 13.7636 333.887 13.9503C334.092 14.1369 334.395 14.2303 334.797 14.2303C335.039 14.2303 335.287 14.2069 335.539 14.1603C335.791 14.1043 336.071 14.0156 336.379 13.8943V14.8183C336.108 14.9116 335.837 14.9863 335.567 15.0423C335.305 15.1076 335.044 15.1403 334.783 15.1403Z" fill="#B300B3"/>
<path d="M324.4 15.112C323.915 15.112 323.485 15.0046 323.112 14.79C322.739 14.5753 322.445 14.2766 322.23 13.894C322.025 13.5113 321.922 13.0726 321.922 12.578V8.16797H322.958V12.284C322.958 12.8906 323.121 13.3713 323.448 13.726C323.775 14.0806 324.218 14.258 324.778 14.258C325.161 14.258 325.501 14.1693 325.8 13.992C326.108 13.8146 326.365 13.558 326.57 13.222V8.16797H327.592V15H326.57V13.894C326.057 14.706 325.333 15.112 324.4 15.112Z" fill="#B300B3"/>
<path d="M315.768 15.1402C315.273 15.1402 314.83 15.0515 314.438 14.8742C314.055 14.6968 313.756 14.4542 313.542 14.1462C313.327 13.8288 313.22 13.4648 313.22 13.0542C313.22 12.6435 313.327 12.2842 313.542 11.9762C313.766 11.6682 314.074 11.4302 314.466 11.2622C314.867 11.0942 315.329 11.0102 315.852 11.0102C316.262 11.0102 316.645 11.0522 317 11.1362C317.354 11.2108 317.69 11.3415 318.008 11.5282V10.7442C318.008 10.1375 317.854 9.68015 317.546 9.37215C317.238 9.06415 316.78 8.91015 316.174 8.91015C315.828 8.91015 315.483 8.96149 315.138 9.06415C314.792 9.15749 314.405 9.32549 313.976 9.56815L313.556 8.79815C314.05 8.52749 314.522 8.33615 314.97 8.22415C315.418 8.11215 315.861 8.05615 316.3 8.05615C317.168 8.05615 317.835 8.27549 318.302 8.71415C318.778 9.15282 319.016 9.78282 319.016 10.6042V15.0002H318.008V14.2162C317.69 14.5335 317.345 14.7668 316.972 14.9162C316.608 15.0655 316.206 15.1402 315.768 15.1402ZM314.2 13.0262C314.2 13.4275 314.363 13.7495 314.69 13.9922C315.016 14.2348 315.446 14.3562 315.978 14.3562C316.379 14.3562 316.743 14.2955 317.07 14.1742C317.406 14.0435 317.718 13.8382 318.008 13.5582V12.2422C317.718 12.0648 317.41 11.9388 317.084 11.8642C316.757 11.7895 316.398 11.7522 316.006 11.7522C315.464 11.7522 315.026 11.8688 314.69 12.1022C314.363 12.3355 314.2 12.6435 314.2 13.0262Z" fill="#B300B3"/>
<path d="M306.813 15.0001V9.00814H304.475V8.16814H306.813V6.79614C306.813 5.3588 307.639 4.64014 309.291 4.64014C309.571 4.64014 309.851 4.66814 310.131 4.72414C310.42 4.78014 310.705 4.85947 310.985 4.96214V5.91414C310.64 5.77414 310.336 5.6808 310.075 5.63414C309.814 5.57814 309.52 5.55014 309.193 5.55014C308.754 5.55014 308.418 5.66214 308.185 5.88614C307.952 6.1008 307.835 6.46014 307.835 6.96414V8.16814H310.985V9.00814H307.835V15.0001H306.813Z" fill="#B300B3"/>
<path d="M299.762 15.1402C299.109 15.1402 298.521 14.9862 297.998 14.6782C297.476 14.3608 297.06 13.9362 296.752 13.4042C296.454 12.8628 296.304 12.2562 296.304 11.5842C296.304 10.9122 296.449 10.3102 296.738 9.77815C297.028 9.24615 297.42 8.82615 297.914 8.51815C298.418 8.21015 298.978 8.05615 299.594 8.05615C300.238 8.05615 300.812 8.21015 301.316 8.51815C301.82 8.81682 302.217 9.22749 302.506 9.75015C302.796 10.2635 302.94 10.8468 302.94 11.5002V11.8082H297.298C297.336 12.2748 297.466 12.6948 297.69 13.0682C297.914 13.4322 298.208 13.7215 298.572 13.9362C298.946 14.1415 299.356 14.2442 299.804 14.2442C300.206 14.2442 300.579 14.1695 300.924 14.0202C301.279 13.8615 301.573 13.6468 301.806 13.3762L302.52 14.0062C302.156 14.3795 301.741 14.6642 301.274 14.8602C300.808 15.0468 300.304 15.1402 299.762 15.1402ZM297.326 11.0522H301.932C301.876 10.6415 301.736 10.2775 301.512 9.96015C301.298 9.64282 301.022 9.39549 300.686 9.21815C300.36 9.03149 299.991 8.93815 299.58 8.93815C299.198 8.93815 298.848 9.02682 298.53 9.20415C298.213 9.38149 297.947 9.62882 297.732 9.94615C297.527 10.2635 297.392 10.6322 297.326 11.0522Z" fill="#B300B3"/>
<path d="M289.296 14.0622H290.78C291.368 14.0622 291.881 13.8989 292.32 13.5722C292.768 13.2362 293.113 12.7742 293.356 12.1862C293.599 11.5889 293.72 10.8935 293.72 10.1002C293.72 9.30686 293.599 8.6162 293.356 8.0282C293.113 7.43086 292.768 6.96886 292.32 6.6422C291.881 6.3062 291.368 6.1382 290.78 6.1382H289.296V14.0622ZM288.218 15.0002V5.2002H290.92C291.685 5.2002 292.357 5.4102 292.936 5.8302C293.524 6.24086 293.981 6.81486 294.308 7.5522C294.644 8.2802 294.812 9.12953 294.812 10.1002C294.812 11.0615 294.644 11.9109 294.308 12.6482C293.981 13.3855 293.524 13.9642 292.936 14.3842C292.357 14.7949 291.685 15.0002 290.92 15.0002H288.218Z" fill="#B300B3"/>
<circle cx="115" cy="139" r="11" fill="#B300B3"/>
<path d="M111.979 144V143.118H114.457V135.292L111.979 136.384V135.46L114.835 134.2H115.465V143.118H118.293V144H111.979Z" fill="white"/>
<rect x="2" y="130" width="92" height="92" fill="#D1F1BB"/>
<rect x="2" y="130" width="92" height="92" stroke="#3D7317" stroke-width="4"/>
<path d="M29.824 198.4L44.864 153.6H51.072L66.176 198.4H60.992L56.896 185.92H38.912L34.88 198.4H29.824ZM40.192 182.016H55.616L47.872 158.336L40.192 182.016Z" fill="#204D00"/>
<path d="M48.5 124L53 118H44L48.5 124Z" fill="#B300B3"/>
<rect x="48" y="80" width="1" height="38" fill="#B300B3"/>
<rect x="36.5" y="56.5" width="23" height="23" fill="#D1F1BB"/>
<rect x="36.5" y="56.5" width="23" height="23" stroke="#3D7317"/>
<path d="M43.4561 73.5999L47.2161 62.3999H48.7681L52.5441 73.5999H51.2481L50.2241 70.4799H45.7281L44.7201 73.5999H43.4561ZM46.0481 69.5039H49.9041L47.9681 63.5839L46.0481 69.5039Z" fill="#204D00"/>
<path d="M66.3882 15.1398C65.6695 15.1398 65.1188 14.9718 64.7362 14.6358C64.3535 14.2998 64.1622 13.7958 64.1622 13.1238V5.66178H61.6282V4.82178H65.1842V13.0258C65.1842 13.4551 65.2868 13.7631 65.4922 13.9498C65.6975 14.1364 66.0008 14.2298 66.4022 14.2298C66.6448 14.2298 66.8922 14.2064 67.1442 14.1598C67.3962 14.1038 67.6762 14.0151 67.9842 13.8938V14.8178C67.7135 14.9111 67.4428 14.9858 67.1722 15.0418C66.9108 15.1071 66.6495 15.1398 66.3882 15.1398Z" fill="#B300B3"/>
<path d="M57.9936 15.1398C57.275 15.1398 56.7243 14.9718 56.3416 14.6358C55.959 14.2998 55.7676 13.7958 55.7676 13.1238V5.66178H53.2336V4.82178H56.7896V13.0258C56.7896 13.4551 56.8923 13.7631 57.0976 13.9498C57.303 14.1364 57.6063 14.2298 58.0076 14.2298C58.2503 14.2298 58.4976 14.2064 58.7496 14.1598C59.0016 14.1038 59.2816 14.0151 59.5896 13.8938V14.8178C59.319 14.9111 59.0483 14.9858 58.7776 15.0418C58.5163 15.1071 58.255 15.1398 57.9936 15.1398Z" fill="#B300B3"/>
<path d="M47.373 15.1397C46.8783 15.1397 46.435 15.051 46.043 14.8737C45.6603 14.6963 45.3616 14.4537 45.147 14.1457C44.9323 13.8283 44.825 13.4643 44.825 13.0537C44.825 12.643 44.9323 12.2837 45.147 11.9757C45.371 11.6677 45.679 11.4297 46.071 11.2617C46.4723 11.0937 46.9343 11.0097 47.457 11.0097C47.8676 11.0097 48.2503 11.0517 48.605 11.1357C48.9596 11.2103 49.2956 11.341 49.613 11.5277V10.7437C49.613 10.137 49.459 9.67966 49.151 9.37166C48.843 9.06366 48.3856 8.90966 47.779 8.90966C47.4336 8.90966 47.0883 8.961 46.743 9.06366C46.3976 9.157 46.0103 9.325 45.581 9.56766L45.161 8.79766C45.6556 8.527 46.127 8.33566 46.575 8.22366C47.023 8.11166 47.4663 8.05566 47.905 8.05566C48.773 8.05566 49.4403 8.275 49.907 8.71366C50.383 9.15233 50.621 9.78233 50.621 10.6037V14.9997H49.613V14.2157C49.2956 14.533 48.9503 14.7663 48.577 14.9157C48.213 15.065 47.8116 15.1397 47.373 15.1397ZM45.805 13.0257C45.805 13.427 45.9683 13.749 46.295 13.9917C46.6216 14.2343 47.051 14.3557 47.583 14.3557C47.9843 14.3557 48.3483 14.295 48.675 14.1737C49.011 14.043 49.3236 13.8377 49.613 13.5577V12.2417C49.3236 12.0643 49.0156 11.9383 48.689 11.8637C48.3623 11.789 48.003 11.7517 47.611 11.7517C47.0696 11.7517 46.631 11.8683 46.295 12.1017C45.9683 12.335 45.805 12.643 45.805 13.0257Z" fill="#B300B3"/>
<path d="M36.3325 14.9998V8.16782H37.2845V8.75582C37.4525 8.51316 37.6345 8.34049 37.8305 8.23782C38.0359 8.12582 38.2692 8.06982 38.5305 8.06982C38.8292 8.06982 39.0952 8.14449 39.3285 8.29382C39.5619 8.43382 39.7439 8.63449 39.8745 8.89582C40.0612 8.60649 40.2759 8.39649 40.5185 8.26582C40.7705 8.13516 41.0552 8.06982 41.3725 8.06982C41.8299 8.06982 42.1985 8.23782 42.4785 8.57382C42.7679 8.90982 42.9125 9.34849 42.9125 9.88982V14.9998H41.9745V10.1418C41.9745 9.74049 41.8905 9.42316 41.7225 9.18982C41.5545 8.95649 41.3119 8.83982 40.9945 8.83982C40.8172 8.83982 40.6539 8.88182 40.5045 8.96582C40.3552 9.04049 40.2105 9.18982 40.0705 9.41382C40.0892 9.48849 40.0985 9.56782 40.0985 9.65182C40.1079 9.72649 40.1125 9.80582 40.1125 9.88982V14.9998H39.1745V10.1418C39.1745 9.74049 39.0859 9.42316 38.9085 9.18982C38.7405 8.95649 38.4932 8.83982 38.1665 8.83982C38.0079 8.83982 37.8539 8.87716 37.7045 8.95182C37.5552 9.01716 37.4152 9.15249 37.2845 9.35782V14.9998H36.3325Z" fill="#B300B3"/>
<path d="M31.3399 15.1539C30.6866 15.1539 30.0706 15.0326 29.4919 14.7899C28.9133 14.5379 28.3299 14.1459 27.7419 13.6139L28.3859 12.8019C28.9646 13.3246 29.4779 13.6932 29.9259 13.9079C30.3739 14.1226 30.8546 14.2299 31.3679 14.2299C31.7973 14.2299 32.1753 14.1506 32.5019 13.9919C32.8379 13.8239 33.0993 13.5999 33.2859 13.3199C33.4819 13.0306 33.5799 12.7086 33.5799 12.3539C33.5799 11.9526 33.4773 11.6352 33.2719 11.4019C33.0759 11.1592 32.8146 10.9726 32.4879 10.8419C32.1613 10.7019 31.8019 10.5852 31.4099 10.4919C31.0179 10.3892 30.6213 10.2819 30.2199 10.1699C29.8279 10.0579 29.4686 9.90857 29.1419 9.7219C28.8153 9.5259 28.5493 9.26457 28.3439 8.9379C28.1479 8.61123 28.0499 8.18657 28.0499 7.6639C28.0499 7.15057 28.1759 6.6979 28.4279 6.3059C28.6893 5.9139 29.0486 5.6059 29.5059 5.3819C29.9726 5.1579 30.5046 5.0459 31.1019 5.0459C31.6993 5.0459 32.2686 5.1439 32.8099 5.3399C33.3606 5.52657 33.9439 5.83923 34.5599 6.2779L33.9999 7.1179C33.4866 6.7259 32.9919 6.43657 32.5159 6.2499C32.0399 6.0539 31.5733 5.9559 31.1159 5.9559C30.5186 5.9559 30.0286 6.1099 29.6459 6.4179C29.2726 6.71656 29.0859 7.09457 29.0859 7.5519C29.0859 7.96257 29.1839 8.28923 29.3799 8.5319C29.5853 8.77457 29.8513 8.9659 30.1779 9.1059C30.5139 9.2459 30.8779 9.36723 31.2699 9.4699C31.6713 9.56323 32.0679 9.6659 32.4599 9.7779C32.8613 9.8899 33.2253 10.0439 33.5519 10.2399C33.8879 10.4266 34.1539 10.6832 34.3499 11.0099C34.5553 11.3366 34.6579 11.7659 34.6579 12.2979C34.6579 12.8392 34.5133 13.3292 34.2239 13.7679C33.9439 14.1972 33.5519 14.5379 33.0479 14.7899C32.5533 15.0326 31.9839 15.1539 31.3399 15.1539Z" fill="#B300B3"/>
</svg>
