<svg width="614" height="29" viewBox="0 0 614 29" fill="none" xmlns="http://www.w3.org/2000/svg">
<rect x="0.5" y="0.5" width="79" height="28" rx="14" fill="#E9F7DF"/>
<rect x="0.5" y="0.5" width="79" height="28" rx="14" stroke="#AFDC8F"/>
<g clip-path="url(#clip0_2238_5224)">
<path d="M16 6.5C11.59 6.5 8 10.09 8 14.5C8 18.91 11.59 22.5 16 22.5C20.41 22.5 24 18.91 24 14.5C24 10.09 20.41 6.5 16 6.5ZM19.9 12.9L15.575 17.225C15.415 17.385 15.21 17.46 15 17.46C14.79 17.46 14.585 17.38 14.425 17.225L12.1 14.9C11.88 14.68 11.88 14.325 12.1 14.105C12.32 13.885 12.675 13.885 12.895 14.105L14.995 16.21L19.095 12.105C19.315 11.885 19.67 11.885 19.89 12.105C20.11 12.325 20.11 12.68 19.89 12.9H19.9Z" fill="#63993D"/>
</g>
<path d="M32.41 19.154C31.6447 19.154 30.9353 19.0187 30.282 18.748C29.6287 18.468 28.9987 18.048 28.392 17.488L29.05 16.704C29.638 17.2547 30.1887 17.6467 30.702 17.88C31.2247 18.1133 31.8033 18.23 32.438 18.23C32.942 18.23 33.39 18.146 33.782 17.978C34.1833 17.8007 34.496 17.5627 34.72 17.264C34.944 16.9653 35.056 16.6247 35.056 16.242C35.056 15.7473 34.8927 15.374 34.566 15.122C34.2393 14.8607 33.6747 14.66 32.872 14.52L31.29 14.254C30.394 14.0953 29.736 13.8247 29.316 13.442C28.9053 13.05 28.7 12.5273 28.7 11.874C28.7 11.3233 28.84 10.838 29.12 10.418C29.4093 9.98867 29.806 9.65267 30.31 9.41C30.814 9.16733 31.3973 9.046 32.06 9.046C32.788 9.046 33.4647 9.14867 34.09 9.354C34.7153 9.55 35.3313 9.86267 35.938 10.292L35.378 11.132C34.874 10.7493 34.342 10.46 33.782 10.264C33.222 10.0587 32.6527 9.956 32.074 9.956C31.6167 9.956 31.2107 10.0353 30.856 10.194C30.5107 10.3527 30.2353 10.5673 30.03 10.838C29.834 11.1087 29.736 11.4167 29.736 11.762C29.736 12.1913 29.8807 12.5273 30.17 12.77C30.4593 13.0127 30.9307 13.1853 31.584 13.288L33.152 13.554C34.1973 13.7407 34.9533 14.044 35.42 14.464C35.896 14.8747 36.134 15.4487 36.134 16.186C36.134 16.7553 35.9707 17.264 35.644 17.712C35.3267 18.16 34.888 18.5147 34.328 18.776C33.768 19.028 33.1287 19.154 32.41 19.154ZM37.7587 19V12.168H38.7807V19H37.7587ZM38.2767 10.474C38.0713 10.474 37.894 10.404 37.7447 10.264C37.6047 10.1147 37.5347 9.942 37.5347 9.746C37.5347 9.55 37.6047 9.382 37.7447 9.242C37.894 9.09267 38.0713 9.018 38.2767 9.018C38.482 9.018 38.6547 9.09267 38.7947 9.242C38.944 9.382 39.0187 9.55 39.0187 9.746C39.0187 9.942 38.944 10.1147 38.7947 10.264C38.6547 10.404 38.482 10.474 38.2767 10.474ZM44.0402 22.066C43.5828 22.066 43.1208 22.0007 42.6542 21.87C42.1968 21.7487 41.7722 21.576 41.3802 21.352L41.8142 20.568C42.2342 20.7827 42.6168 20.9413 42.9622 21.044C43.3075 21.1467 43.6528 21.198 43.9982 21.198C44.6235 21.198 45.0948 21.0487 45.4122 20.75C45.7388 20.4513 45.9022 20.0173 45.9022 19.448V18.076C45.6408 18.4027 45.3235 18.6547 44.9502 18.832C44.5768 19 44.1662 19.084 43.7182 19.084C43.1302 19.084 42.5982 18.93 42.1222 18.622C41.6462 18.3047 41.2682 17.8847 40.9882 17.362C40.7082 16.83 40.5682 16.2373 40.5682 15.584C40.5682 14.9307 40.7082 14.3427 40.9882 13.82C41.2775 13.288 41.6648 12.868 42.1502 12.56C42.6355 12.2427 43.1768 12.084 43.7742 12.084C44.2035 12.084 44.6002 12.168 44.9642 12.336C45.3282 12.4947 45.6455 12.7327 45.9162 13.05V12.168H46.9242V19.434C46.9242 20.2833 46.6768 20.932 46.1822 21.38C45.6875 21.8373 44.9735 22.066 44.0402 22.066ZM43.9702 18.202C44.3715 18.202 44.7402 18.1227 45.0762 17.964C45.4122 17.796 45.6875 17.5673 45.9022 17.278V13.904C45.6782 13.6147 45.3935 13.3907 45.0482 13.232C44.7122 13.064 44.3528 12.98 43.9702 12.98C43.5128 12.98 43.1022 13.092 42.7382 13.316C42.3835 13.54 42.0988 13.848 41.8842 14.24C41.6788 14.632 41.5762 15.08 41.5762 15.584C41.5762 16.0787 41.6788 16.5267 41.8842 16.928C42.0988 17.32 42.3835 17.6327 42.7382 17.866C43.1022 18.09 43.5128 18.202 43.9702 18.202ZM49.0246 19V12.168H50.0466V13.274C50.3079 12.8633 50.6206 12.56 50.9846 12.364C51.3486 12.1587 51.7593 12.056 52.2166 12.056C52.7113 12.056 53.1406 12.1633 53.5046 12.378C53.8779 12.5833 54.1673 12.8773 54.3726 13.26C54.5873 13.6333 54.6946 14.072 54.6946 14.576V19H53.6726V14.87C53.6726 14.2633 53.5046 13.7873 53.1686 13.442C52.8419 13.0873 52.3986 12.91 51.8386 12.91C51.4653 12.91 51.1246 12.9987 50.8166 13.176C50.5086 13.3533 50.2519 13.6147 50.0466 13.96V19H49.0246ZM59.8292 19.14C59.1946 19.14 58.6206 18.986 58.1072 18.678C57.5939 18.3607 57.1879 17.936 56.8892 17.404C56.5906 16.8627 56.4412 16.256 56.4412 15.584C56.4412 14.912 56.5812 14.31 56.8612 13.778C57.1506 13.246 57.5379 12.826 58.0232 12.518C58.5086 12.21 59.0499 12.056 59.6472 12.056C60.2539 12.056 60.7906 12.21 61.2572 12.518C61.7332 12.8167 62.1066 13.2273 62.3772 13.75C62.6572 14.2633 62.7972 14.8467 62.7972 15.5V15.808H57.4352C57.4726 16.2747 57.5986 16.6947 57.8132 17.068C58.0372 17.432 58.3266 17.7213 58.6812 17.936C59.0452 18.1413 59.4419 18.244 59.8712 18.244C60.2259 18.244 60.5666 18.1833 60.8932 18.062C61.2292 17.9313 61.5139 17.7587 61.7472 17.544L62.3912 18.23C61.9992 18.538 61.5932 18.7667 61.1732 18.916C60.7532 19.0653 60.3052 19.14 59.8292 19.14ZM57.4632 15.08H61.7892C61.7426 14.6693 61.6166 14.3053 61.4112 13.988C61.2152 13.6613 60.9632 13.4047 60.6552 13.218C60.3566 13.0313 60.0206 12.938 59.6472 12.938C59.2739 12.938 58.9332 13.0313 58.6252 13.218C58.3172 13.3953 58.0606 13.6473 57.8552 13.974C57.6592 14.2913 57.5286 14.66 57.4632 15.08ZM67.3842 19.098C66.7962 19.098 66.2642 18.944 65.7882 18.636C65.3122 18.3187 64.9342 17.8987 64.6542 17.376C64.3742 16.844 64.2342 16.2513 64.2342 15.598C64.2342 14.9353 64.3742 14.3427 64.6542 13.82C64.9435 13.288 65.3309 12.868 65.8162 12.56C66.3015 12.2427 66.8429 12.084 67.4402 12.084C67.8602 12.084 68.2522 12.168 68.6162 12.336C68.9802 12.4947 69.2975 12.728 69.5682 13.036V8.892L70.5902 8.682V19H69.5682V18.09C69.3069 18.4167 68.9895 18.6687 68.6162 18.846C68.2429 19.014 67.8322 19.098 67.3842 19.098ZM67.6362 18.202C68.0375 18.202 68.4062 18.1227 68.7422 17.964C69.0782 17.8053 69.3535 17.5813 69.5682 17.292V13.904C69.3442 13.6147 69.0595 13.3907 68.7142 13.232C68.3782 13.064 68.0189 12.98 67.6362 12.98C67.1789 12.98 66.7682 13.092 66.4042 13.316C66.0495 13.54 65.7649 13.848 65.5502 14.24C65.3449 14.632 65.2422 15.08 65.2422 15.584C65.2422 16.0787 65.3449 16.5267 65.5502 16.928C65.7649 17.32 66.0495 17.6327 66.4042 17.866C66.7682 18.09 67.1789 18.202 67.6362 18.202Z" fill="#204D00"/>
<rect x="88.5" y="6" width="73" height="17" rx="8.5" fill="#E9F7DF"/>
<rect x="88.5" y="6" width="73" height="17" rx="8.5" stroke="#AFDC8F"/>
<g clip-path="url(#clip1_2238_5224)">
<path d="M104 8.5C100.693 8.5 98 11.1925 98 14.5C98 17.8075 100.693 20.5 104 20.5C107.307 20.5 110 17.8075 110 14.5C110 11.1925 107.307 8.5 104 8.5ZM106.925 13.3L103.681 16.5438C103.561 16.6638 103.407 16.72 103.25 16.72C103.093 16.72 102.939 16.66 102.819 16.5438L101.075 14.8C100.91 14.635 100.91 14.3688 101.075 14.2038C101.24 14.0388 101.506 14.0388 101.671 14.2038L103.246 15.7825L106.321 12.7038C106.486 12.5388 106.753 12.5388 106.918 12.7038C107.083 12.8688 107.083 13.135 106.918 13.3H106.925Z" fill="#63993D"/>
</g>
<path d="M119.78 18.632C119.124 18.632 118.516 18.516 117.956 18.284C117.396 18.044 116.856 17.684 116.336 17.204L116.9 16.532C117.404 17.004 117.876 17.34 118.316 17.54C118.764 17.74 119.26 17.84 119.804 17.84C120.236 17.84 120.62 17.768 120.956 17.624C121.3 17.472 121.568 17.268 121.76 17.012C121.952 16.756 122.048 16.464 122.048 16.136C122.048 15.712 121.908 15.392 121.628 15.176C121.348 14.952 120.864 14.78 120.176 14.66L118.82 14.432C118.052 14.296 117.488 14.064 117.128 13.736C116.776 13.4 116.6 12.952 116.6 12.392C116.6 11.92 116.72 11.504 116.96 11.144C117.208 10.776 117.548 10.488 117.98 10.28C118.412 10.072 118.912 9.968 119.48 9.968C120.104 9.968 120.684 10.056 121.22 10.232C121.756 10.4 122.284 10.668 122.804 11.036L122.324 11.756C121.892 11.428 121.436 11.18 120.956 11.012C120.476 10.836 119.988 10.748 119.492 10.748C119.1 10.748 118.752 10.816 118.448 10.952C118.152 11.088 117.916 11.272 117.74 11.504C117.572 11.736 117.488 12 117.488 12.296C117.488 12.664 117.612 12.952 117.86 13.16C118.108 13.368 118.512 13.516 119.072 13.604L120.416 13.832C121.312 13.992 121.96 14.252 122.36 14.612C122.768 14.964 122.972 15.456 122.972 16.088C122.972 16.576 122.832 17.012 122.552 17.396C122.28 17.78 121.904 18.084 121.424 18.308C120.944 18.524 120.396 18.632 119.78 18.632ZM124.365 18.5V12.644H125.241V18.5H124.365ZM124.809 11.192C124.633 11.192 124.481 11.132 124.353 11.012C124.233 10.884 124.173 10.736 124.173 10.568C124.173 10.4 124.233 10.256 124.353 10.136C124.481 10.008 124.633 9.944 124.809 9.944C124.985 9.944 125.133 10.008 125.253 10.136C125.381 10.256 125.445 10.4 125.445 10.568C125.445 10.736 125.381 10.884 125.253 11.012C125.133 11.132 124.985 11.192 124.809 11.192ZM129.749 21.128C129.357 21.128 128.961 21.072 128.561 20.96C128.169 20.856 127.805 20.708 127.469 20.516L127.841 19.844C128.201 20.028 128.529 20.164 128.825 20.252C129.121 20.34 129.417 20.384 129.713 20.384C130.249 20.384 130.653 20.256 130.925 20C131.205 19.744 131.345 19.372 131.345 18.884V17.708C131.121 17.988 130.849 18.204 130.529 18.356C130.209 18.5 129.857 18.572 129.473 18.572C128.969 18.572 128.513 18.44 128.105 18.176C127.697 17.904 127.373 17.544 127.133 17.096C126.893 16.64 126.773 16.132 126.773 15.572C126.773 15.012 126.893 14.508 127.133 14.06C127.381 13.604 127.713 13.244 128.129 12.98C128.545 12.708 129.009 12.572 129.521 12.572C129.889 12.572 130.229 12.644 130.541 12.788C130.853 12.924 131.125 13.128 131.357 13.4V12.644H132.221V18.872C132.221 19.6 132.009 20.156 131.585 20.54C131.161 20.932 130.549 21.128 129.749 21.128ZM129.689 17.816C130.033 17.816 130.349 17.748 130.637 17.612C130.925 17.468 131.161 17.272 131.345 17.024V14.132C131.153 13.884 130.909 13.692 130.613 13.556C130.325 13.412 130.017 13.34 129.689 13.34C129.297 13.34 128.945 13.436 128.633 13.628C128.329 13.82 128.085 14.084 127.901 14.42C127.725 14.756 127.637 15.14 127.637 15.572C127.637 15.996 127.725 16.38 127.901 16.724C128.085 17.06 128.329 17.328 128.633 17.528C128.945 17.72 129.297 17.816 129.689 17.816ZM134.021 18.5V12.644H134.897V13.592C135.121 13.24 135.389 12.98 135.701 12.812C136.013 12.636 136.365 12.548 136.757 12.548C137.181 12.548 137.549 12.64 137.861 12.824C138.181 13 138.429 13.252 138.605 13.58C138.789 13.9 138.881 14.276 138.881 14.708V18.5H138.005V14.96C138.005 14.44 137.861 14.032 137.573 13.736C137.293 13.432 136.913 13.28 136.433 13.28C136.113 13.28 135.821 13.356 135.557 13.508C135.293 13.66 135.073 13.884 134.897 14.18V18.5H134.021ZM143.282 18.62C142.738 18.62 142.246 18.488 141.806 18.224C141.366 17.952 141.018 17.588 140.762 17.132C140.506 16.668 140.378 16.148 140.378 15.572C140.378 14.996 140.498 14.48 140.738 14.024C140.986 13.568 141.318 13.208 141.734 12.944C142.15 12.68 142.614 12.548 143.126 12.548C143.646 12.548 144.106 12.68 144.506 12.944C144.914 13.2 145.234 13.552 145.466 14C145.706 14.44 145.826 14.94 145.826 15.5V15.764H141.23C141.262 16.164 141.37 16.524 141.554 16.844C141.746 17.156 141.994 17.404 142.298 17.588C142.61 17.764 142.95 17.852 143.318 17.852C143.622 17.852 143.914 17.8 144.194 17.696C144.482 17.584 144.726 17.436 144.926 17.252L145.478 17.84C145.142 18.104 144.794 18.3 144.434 18.428C144.074 18.556 143.69 18.62 143.282 18.62ZM141.254 15.14H144.962C144.922 14.788 144.814 14.476 144.638 14.204C144.47 13.924 144.254 13.704 143.99 13.544C143.734 13.384 143.446 13.304 143.126 13.304C142.806 13.304 142.514 13.384 142.25 13.544C141.986 13.696 141.766 13.912 141.59 14.192C141.422 14.464 141.31 14.78 141.254 15.14ZM149.758 18.584C149.254 18.584 148.798 18.452 148.39 18.188C147.982 17.916 147.658 17.556 147.418 17.108C147.178 16.652 147.058 16.144 147.058 15.584C147.058 15.016 147.178 14.508 147.418 14.06C147.666 13.604 147.998 13.244 148.414 12.98C148.83 12.708 149.294 12.572 149.806 12.572C150.166 12.572 150.502 12.644 150.814 12.788C151.126 12.924 151.398 13.124 151.63 13.388V9.836L152.506 9.656V18.5H151.63V17.72C151.406 18 151.134 18.216 150.814 18.368C150.494 18.512 150.142 18.584 149.758 18.584ZM149.974 17.816C150.318 17.816 150.634 17.748 150.922 17.612C151.21 17.476 151.446 17.284 151.63 17.036V14.132C151.438 13.884 151.194 13.692 150.898 13.556C150.61 13.412 150.302 13.34 149.974 13.34C149.582 13.34 149.23 13.436 148.918 13.628C148.614 13.82 148.37 14.084 148.186 14.42C148.01 14.756 147.922 15.14 147.922 15.572C147.922 15.996 148.01 16.38 148.186 16.724C148.37 17.06 148.614 17.328 148.918 17.528C149.23 17.72 149.582 17.816 149.974 17.816Z" fill="#204D00"/>
<rect x="226.5" y="0.5" width="79" height="28" rx="14" fill="white"/>
<rect x="226.5" y="0.5" width="79" height="28" rx="14" stroke="#C7C7C7"/>
<g clip-path="url(#clip2_2238_5224)">
<path d="M242 6.5C237.59 6.5 234 10.09 234 14.5C234 18.91 237.59 22.5 242 22.5C246.41 22.5 250 18.91 250 14.5C250 10.09 246.41 6.5 242 6.5ZM245.9 12.9L241.575 17.225C241.415 17.385 241.21 17.46 241 17.46C240.79 17.46 240.585 17.38 240.425 17.225L238.1 14.9C237.88 14.68 237.88 14.325 238.1 14.105C238.32 13.885 238.675 13.885 238.895 14.105L240.995 16.21L245.095 12.105C245.315 11.885 245.67 11.885 245.89 12.105C246.11 12.325 246.11 12.68 245.89 12.9H245.9Z" fill="#63993D"/>
</g>
<path d="M258.41 19.154C257.645 19.154 256.935 19.0187 256.282 18.748C255.629 18.468 254.999 18.048 254.392 17.488L255.05 16.704C255.638 17.2547 256.189 17.6467 256.702 17.88C257.225 18.1133 257.803 18.23 258.438 18.23C258.942 18.23 259.39 18.146 259.782 17.978C260.183 17.8007 260.496 17.5627 260.72 17.264C260.944 16.9653 261.056 16.6247 261.056 16.242C261.056 15.7473 260.893 15.374 260.566 15.122C260.239 14.8607 259.675 14.66 258.872 14.52L257.29 14.254C256.394 14.0953 255.736 13.8247 255.316 13.442C254.905 13.05 254.7 12.5273 254.7 11.874C254.7 11.3233 254.84 10.838 255.12 10.418C255.409 9.98867 255.806 9.65267 256.31 9.41C256.814 9.16733 257.397 9.046 258.06 9.046C258.788 9.046 259.465 9.14867 260.09 9.354C260.715 9.55 261.331 9.86267 261.938 10.292L261.378 11.132C260.874 10.7493 260.342 10.46 259.782 10.264C259.222 10.0587 258.653 9.956 258.074 9.956C257.617 9.956 257.211 10.0353 256.856 10.194C256.511 10.3527 256.235 10.5673 256.03 10.838C255.834 11.1087 255.736 11.4167 255.736 11.762C255.736 12.1913 255.881 12.5273 256.17 12.77C256.459 13.0127 256.931 13.1853 257.584 13.288L259.152 13.554C260.197 13.7407 260.953 14.044 261.42 14.464C261.896 14.8747 262.134 15.4487 262.134 16.186C262.134 16.7553 261.971 17.264 261.644 17.712C261.327 18.16 260.888 18.5147 260.328 18.776C259.768 19.028 259.129 19.154 258.41 19.154ZM263.759 19V12.168H264.781V19H263.759ZM264.277 10.474C264.071 10.474 263.894 10.404 263.745 10.264C263.605 10.1147 263.535 9.942 263.535 9.746C263.535 9.55 263.605 9.382 263.745 9.242C263.894 9.09267 264.071 9.018 264.277 9.018C264.482 9.018 264.655 9.09267 264.795 9.242C264.944 9.382 265.019 9.55 265.019 9.746C265.019 9.942 264.944 10.1147 264.795 10.264C264.655 10.404 264.482 10.474 264.277 10.474ZM270.04 22.066C269.583 22.066 269.121 22.0007 268.654 21.87C268.197 21.7487 267.772 21.576 267.38 21.352L267.814 20.568C268.234 20.7827 268.617 20.9413 268.962 21.044C269.308 21.1467 269.653 21.198 269.998 21.198C270.624 21.198 271.095 21.0487 271.412 20.75C271.739 20.4513 271.902 20.0173 271.902 19.448V18.076C271.641 18.4027 271.324 18.6547 270.95 18.832C270.577 19 270.166 19.084 269.718 19.084C269.13 19.084 268.598 18.93 268.122 18.622C267.646 18.3047 267.268 17.8847 266.988 17.362C266.708 16.83 266.568 16.2373 266.568 15.584C266.568 14.9307 266.708 14.3427 266.988 13.82C267.278 13.288 267.665 12.868 268.15 12.56C268.636 12.2427 269.177 12.084 269.774 12.084C270.204 12.084 270.6 12.168 270.964 12.336C271.328 12.4947 271.646 12.7327 271.916 13.05V12.168H272.924V19.434C272.924 20.2833 272.677 20.932 272.182 21.38C271.688 21.8373 270.974 22.066 270.04 22.066ZM269.97 18.202C270.372 18.202 270.74 18.1227 271.076 17.964C271.412 17.796 271.688 17.5673 271.902 17.278V13.904C271.678 13.6147 271.394 13.3907 271.048 13.232C270.712 13.064 270.353 12.98 269.97 12.98C269.513 12.98 269.102 13.092 268.738 13.316C268.384 13.54 268.099 13.848 267.884 14.24C267.679 14.632 267.576 15.08 267.576 15.584C267.576 16.0787 267.679 16.5267 267.884 16.928C268.099 17.32 268.384 17.6327 268.738 17.866C269.102 18.09 269.513 18.202 269.97 18.202ZM275.025 19V12.168H276.047V13.274C276.308 12.8633 276.621 12.56 276.985 12.364C277.349 12.1587 277.759 12.056 278.217 12.056C278.711 12.056 279.141 12.1633 279.505 12.378C279.878 12.5833 280.167 12.8773 280.373 13.26C280.587 13.6333 280.695 14.072 280.695 14.576V19H279.673V14.87C279.673 14.2633 279.505 13.7873 279.169 13.442C278.842 13.0873 278.399 12.91 277.839 12.91C277.465 12.91 277.125 12.9987 276.817 13.176C276.509 13.3533 276.252 13.6147 276.047 13.96V19H275.025ZM285.829 19.14C285.195 19.14 284.621 18.986 284.107 18.678C283.594 18.3607 283.188 17.936 282.889 17.404C282.591 16.8627 282.441 16.256 282.441 15.584C282.441 14.912 282.581 14.31 282.861 13.778C283.151 13.246 283.538 12.826 284.023 12.518C284.509 12.21 285.05 12.056 285.647 12.056C286.254 12.056 286.791 12.21 287.257 12.518C287.733 12.8167 288.107 13.2273 288.377 13.75C288.657 14.2633 288.797 14.8467 288.797 15.5V15.808H283.435C283.473 16.2747 283.599 16.6947 283.813 17.068C284.037 17.432 284.327 17.7213 284.681 17.936C285.045 18.1413 285.442 18.244 285.871 18.244C286.226 18.244 286.567 18.1833 286.893 18.062C287.229 17.9313 287.514 17.7587 287.747 17.544L288.391 18.23C287.999 18.538 287.593 18.7667 287.173 18.916C286.753 19.0653 286.305 19.14 285.829 19.14ZM283.463 15.08H287.789C287.743 14.6693 287.617 14.3053 287.411 13.988C287.215 13.6613 286.963 13.4047 286.655 13.218C286.357 13.0313 286.021 12.938 285.647 12.938C285.274 12.938 284.933 13.0313 284.625 13.218C284.317 13.3953 284.061 13.6473 283.855 13.974C283.659 14.2913 283.529 14.66 283.463 15.08ZM293.384 19.098C292.796 19.098 292.264 18.944 291.788 18.636C291.312 18.3187 290.934 17.8987 290.654 17.376C290.374 16.844 290.234 16.2513 290.234 15.598C290.234 14.9353 290.374 14.3427 290.654 13.82C290.944 13.288 291.331 12.868 291.816 12.56C292.302 12.2427 292.843 12.084 293.44 12.084C293.86 12.084 294.252 12.168 294.616 12.336C294.98 12.4947 295.298 12.728 295.568 13.036V8.892L296.59 8.682V19H295.568V18.09C295.307 18.4167 294.99 18.6687 294.616 18.846C294.243 19.014 293.832 19.098 293.384 19.098ZM293.636 18.202C294.038 18.202 294.406 18.1227 294.742 17.964C295.078 17.8053 295.354 17.5813 295.568 17.292V13.904C295.344 13.6147 295.06 13.3907 294.714 13.232C294.378 13.064 294.019 12.98 293.636 12.98C293.179 12.98 292.768 13.092 292.404 13.316C292.05 13.54 291.765 13.848 291.55 14.24C291.345 14.632 291.242 15.08 291.242 15.584C291.242 16.0787 291.345 16.5267 291.55 16.928C291.765 17.32 292.05 17.6327 292.404 17.866C292.768 18.09 293.179 18.202 293.636 18.202Z" fill="#3D7317"/>
<rect x="314.5" y="6" width="73" height="17" rx="8.5" fill="white"/>
<rect x="314.5" y="6" width="73" height="17" rx="8.5" stroke="#C7C7C7"/>
<g clip-path="url(#clip3_2238_5224)">
<path d="M330 8.5C326.693 8.5 324 11.1925 324 14.5C324 17.8075 326.693 20.5 330 20.5C333.307 20.5 336 17.8075 336 14.5C336 11.1925 333.307 8.5 330 8.5ZM332.925 13.3L329.681 16.5438C329.561 16.6638 329.407 16.72 329.25 16.72C329.093 16.72 328.939 16.66 328.819 16.5438L327.075 14.8C326.91 14.635 326.91 14.3688 327.075 14.2038C327.24 14.0388 327.506 14.0388 327.671 14.2038L329.246 15.7825L332.321 12.7038C332.486 12.5388 332.753 12.5388 332.918 12.7038C333.083 12.8688 333.083 13.135 332.918 13.3H332.925Z" fill="#63993D"/>
</g>
<path d="M345.78 18.632C345.124 18.632 344.516 18.516 343.956 18.284C343.396 18.044 342.856 17.684 342.336 17.204L342.9 16.532C343.404 17.004 343.876 17.34 344.316 17.54C344.764 17.74 345.26 17.84 345.804 17.84C346.236 17.84 346.62 17.768 346.956 17.624C347.3 17.472 347.568 17.268 347.76 17.012C347.952 16.756 348.048 16.464 348.048 16.136C348.048 15.712 347.908 15.392 347.628 15.176C347.348 14.952 346.864 14.78 346.176 14.66L344.82 14.432C344.052 14.296 343.488 14.064 343.128 13.736C342.776 13.4 342.6 12.952 342.6 12.392C342.6 11.92 342.72 11.504 342.96 11.144C343.208 10.776 343.548 10.488 343.98 10.28C344.412 10.072 344.912 9.968 345.48 9.968C346.104 9.968 346.684 10.056 347.22 10.232C347.756 10.4 348.284 10.668 348.804 11.036L348.324 11.756C347.892 11.428 347.436 11.18 346.956 11.012C346.476 10.836 345.988 10.748 345.492 10.748C345.1 10.748 344.752 10.816 344.448 10.952C344.152 11.088 343.916 11.272 343.74 11.504C343.572 11.736 343.488 12 343.488 12.296C343.488 12.664 343.612 12.952 343.86 13.16C344.108 13.368 344.512 13.516 345.072 13.604L346.416 13.832C347.312 13.992 347.96 14.252 348.36 14.612C348.768 14.964 348.972 15.456 348.972 16.088C348.972 16.576 348.832 17.012 348.552 17.396C348.28 17.78 347.904 18.084 347.424 18.308C346.944 18.524 346.396 18.632 345.78 18.632ZM350.365 18.5V12.644H351.241V18.5H350.365ZM350.809 11.192C350.633 11.192 350.481 11.132 350.353 11.012C350.233 10.884 350.173 10.736 350.173 10.568C350.173 10.4 350.233 10.256 350.353 10.136C350.481 10.008 350.633 9.944 350.809 9.944C350.985 9.944 351.133 10.008 351.253 10.136C351.381 10.256 351.445 10.4 351.445 10.568C351.445 10.736 351.381 10.884 351.253 11.012C351.133 11.132 350.985 11.192 350.809 11.192ZM355.749 21.128C355.357 21.128 354.961 21.072 354.561 20.96C354.169 20.856 353.805 20.708 353.469 20.516L353.841 19.844C354.201 20.028 354.529 20.164 354.825 20.252C355.121 20.34 355.417 20.384 355.713 20.384C356.249 20.384 356.653 20.256 356.925 20C357.205 19.744 357.345 19.372 357.345 18.884V17.708C357.121 17.988 356.849 18.204 356.529 18.356C356.209 18.5 355.857 18.572 355.473 18.572C354.969 18.572 354.513 18.44 354.105 18.176C353.697 17.904 353.373 17.544 353.133 17.096C352.893 16.64 352.773 16.132 352.773 15.572C352.773 15.012 352.893 14.508 353.133 14.06C353.381 13.604 353.713 13.244 354.129 12.98C354.545 12.708 355.009 12.572 355.521 12.572C355.889 12.572 356.229 12.644 356.541 12.788C356.853 12.924 357.125 13.128 357.357 13.4V12.644H358.221V18.872C358.221 19.6 358.009 20.156 357.585 20.54C357.161 20.932 356.549 21.128 355.749 21.128ZM355.689 17.816C356.033 17.816 356.349 17.748 356.637 17.612C356.925 17.468 357.161 17.272 357.345 17.024V14.132C357.153 13.884 356.909 13.692 356.613 13.556C356.325 13.412 356.017 13.34 355.689 13.34C355.297 13.34 354.945 13.436 354.633 13.628C354.329 13.82 354.085 14.084 353.901 14.42C353.725 14.756 353.637 15.14 353.637 15.572C353.637 15.996 353.725 16.38 353.901 16.724C354.085 17.06 354.329 17.328 354.633 17.528C354.945 17.72 355.297 17.816 355.689 17.816ZM360.021 18.5V12.644H360.897V13.592C361.121 13.24 361.389 12.98 361.701 12.812C362.013 12.636 362.365 12.548 362.757 12.548C363.181 12.548 363.549 12.64 363.861 12.824C364.181 13 364.429 13.252 364.605 13.58C364.789 13.9 364.881 14.276 364.881 14.708V18.5H364.005V14.96C364.005 14.44 363.861 14.032 363.573 13.736C363.293 13.432 362.913 13.28 362.433 13.28C362.113 13.28 361.821 13.356 361.557 13.508C361.293 13.66 361.073 13.884 360.897 14.18V18.5H360.021ZM369.282 18.62C368.738 18.62 368.246 18.488 367.806 18.224C367.366 17.952 367.018 17.588 366.762 17.132C366.506 16.668 366.378 16.148 366.378 15.572C366.378 14.996 366.498 14.48 366.738 14.024C366.986 13.568 367.318 13.208 367.734 12.944C368.15 12.68 368.614 12.548 369.126 12.548C369.646 12.548 370.106 12.68 370.506 12.944C370.914 13.2 371.234 13.552 371.466 14C371.706 14.44 371.826 14.94 371.826 15.5V15.764H367.23C367.262 16.164 367.37 16.524 367.554 16.844C367.746 17.156 367.994 17.404 368.298 17.588C368.61 17.764 368.95 17.852 369.318 17.852C369.622 17.852 369.914 17.8 370.194 17.696C370.482 17.584 370.726 17.436 370.926 17.252L371.478 17.84C371.142 18.104 370.794 18.3 370.434 18.428C370.074 18.556 369.69 18.62 369.282 18.62ZM367.254 15.14H370.962C370.922 14.788 370.814 14.476 370.638 14.204C370.47 13.924 370.254 13.704 369.99 13.544C369.734 13.384 369.446 13.304 369.126 13.304C368.806 13.304 368.514 13.384 368.25 13.544C367.986 13.696 367.766 13.912 367.59 14.192C367.422 14.464 367.31 14.78 367.254 15.14ZM375.758 18.584C375.254 18.584 374.798 18.452 374.39 18.188C373.982 17.916 373.658 17.556 373.418 17.108C373.178 16.652 373.058 16.144 373.058 15.584C373.058 15.016 373.178 14.508 373.418 14.06C373.666 13.604 373.998 13.244 374.414 12.98C374.83 12.708 375.294 12.572 375.806 12.572C376.166 12.572 376.502 12.644 376.814 12.788C377.126 12.924 377.398 13.124 377.63 13.388V9.836L378.506 9.656V18.5H377.63V17.72C377.406 18 377.134 18.216 376.814 18.368C376.494 18.512 376.142 18.584 375.758 18.584ZM375.974 17.816C376.318 17.816 376.634 17.748 376.922 17.612C377.21 17.476 377.446 17.284 377.63 17.036V14.132C377.438 13.884 377.194 13.692 376.898 13.556C376.61 13.412 376.302 13.34 375.974 13.34C375.582 13.34 375.23 13.436 374.918 13.628C374.614 13.82 374.37 14.084 374.186 14.42C374.01 14.756 373.922 15.14 373.922 15.572C373.922 15.996 374.01 16.38 374.186 16.724C374.37 17.06 374.614 17.328 374.918 17.528C375.23 17.72 375.582 17.816 375.974 17.816Z" fill="#3D7317"/>
<rect x="452.5" y="0.5" width="79" height="28" rx="14" stroke="#151515"/>
<g clip-path="url(#clip4_2238_5224)">
<path d="M468 6.5C463.59 6.5 460 10.09 460 14.5C460 18.91 463.59 22.5 468 22.5C472.41 22.5 476 18.91 476 14.5C476 10.09 472.41 6.5 468 6.5ZM471.9 12.9L467.575 17.225C467.415 17.385 467.21 17.46 467 17.46C466.79 17.46 466.585 17.38 466.425 17.225L464.1 14.9C463.88 14.68 463.88 14.325 464.1 14.105C464.32 13.885 464.675 13.885 464.895 14.105L466.995 16.21L471.095 12.105C471.315 11.885 471.67 11.885 471.89 12.105C472.11 12.325 472.11 12.68 471.89 12.9H471.9Z" fill="#151515"/>
</g>
<path d="M484.41 19.154C483.645 19.154 482.935 19.0187 482.282 18.748C481.629 18.468 480.999 18.048 480.392 17.488L481.05 16.704C481.638 17.2547 482.189 17.6467 482.702 17.88C483.225 18.1133 483.803 18.23 484.438 18.23C484.942 18.23 485.39 18.146 485.782 17.978C486.183 17.8007 486.496 17.5627 486.72 17.264C486.944 16.9653 487.056 16.6247 487.056 16.242C487.056 15.7473 486.893 15.374 486.566 15.122C486.239 14.8607 485.675 14.66 484.872 14.52L483.29 14.254C482.394 14.0953 481.736 13.8247 481.316 13.442C480.905 13.05 480.7 12.5273 480.7 11.874C480.7 11.3233 480.84 10.838 481.12 10.418C481.409 9.98867 481.806 9.65267 482.31 9.41C482.814 9.16733 483.397 9.046 484.06 9.046C484.788 9.046 485.465 9.14867 486.09 9.354C486.715 9.55 487.331 9.86267 487.938 10.292L487.378 11.132C486.874 10.7493 486.342 10.46 485.782 10.264C485.222 10.0587 484.653 9.956 484.074 9.956C483.617 9.956 483.211 10.0353 482.856 10.194C482.511 10.3527 482.235 10.5673 482.03 10.838C481.834 11.1087 481.736 11.4167 481.736 11.762C481.736 12.1913 481.881 12.5273 482.17 12.77C482.459 13.0127 482.931 13.1853 483.584 13.288L485.152 13.554C486.197 13.7407 486.953 14.044 487.42 14.464C487.896 14.8747 488.134 15.4487 488.134 16.186C488.134 16.7553 487.971 17.264 487.644 17.712C487.327 18.16 486.888 18.5147 486.328 18.776C485.768 19.028 485.129 19.154 484.41 19.154ZM489.759 19V12.168H490.781V19H489.759ZM490.277 10.474C490.071 10.474 489.894 10.404 489.745 10.264C489.605 10.1147 489.535 9.942 489.535 9.746C489.535 9.55 489.605 9.382 489.745 9.242C489.894 9.09267 490.071 9.018 490.277 9.018C490.482 9.018 490.655 9.09267 490.795 9.242C490.944 9.382 491.019 9.55 491.019 9.746C491.019 9.942 490.944 10.1147 490.795 10.264C490.655 10.404 490.482 10.474 490.277 10.474ZM496.04 22.066C495.583 22.066 495.121 22.0007 494.654 21.87C494.197 21.7487 493.772 21.576 493.38 21.352L493.814 20.568C494.234 20.7827 494.617 20.9413 494.962 21.044C495.308 21.1467 495.653 21.198 495.998 21.198C496.624 21.198 497.095 21.0487 497.412 20.75C497.739 20.4513 497.902 20.0173 497.902 19.448V18.076C497.641 18.4027 497.324 18.6547 496.95 18.832C496.577 19 496.166 19.084 495.718 19.084C495.13 19.084 494.598 18.93 494.122 18.622C493.646 18.3047 493.268 17.8847 492.988 17.362C492.708 16.83 492.568 16.2373 492.568 15.584C492.568 14.9307 492.708 14.3427 492.988 13.82C493.278 13.288 493.665 12.868 494.15 12.56C494.636 12.2427 495.177 12.084 495.774 12.084C496.204 12.084 496.6 12.168 496.964 12.336C497.328 12.4947 497.646 12.7327 497.916 13.05V12.168H498.924V19.434C498.924 20.2833 498.677 20.932 498.182 21.38C497.688 21.8373 496.974 22.066 496.04 22.066ZM495.97 18.202C496.372 18.202 496.74 18.1227 497.076 17.964C497.412 17.796 497.688 17.5673 497.902 17.278V13.904C497.678 13.6147 497.394 13.3907 497.048 13.232C496.712 13.064 496.353 12.98 495.97 12.98C495.513 12.98 495.102 13.092 494.738 13.316C494.384 13.54 494.099 13.848 493.884 14.24C493.679 14.632 493.576 15.08 493.576 15.584C493.576 16.0787 493.679 16.5267 493.884 16.928C494.099 17.32 494.384 17.6327 494.738 17.866C495.102 18.09 495.513 18.202 495.97 18.202ZM501.025 19V12.168H502.047V13.274C502.308 12.8633 502.621 12.56 502.985 12.364C503.349 12.1587 503.759 12.056 504.217 12.056C504.711 12.056 505.141 12.1633 505.505 12.378C505.878 12.5833 506.167 12.8773 506.373 13.26C506.587 13.6333 506.695 14.072 506.695 14.576V19H505.673V14.87C505.673 14.2633 505.505 13.7873 505.169 13.442C504.842 13.0873 504.399 12.91 503.839 12.91C503.465 12.91 503.125 12.9987 502.817 13.176C502.509 13.3533 502.252 13.6147 502.047 13.96V19H501.025ZM511.829 19.14C511.195 19.14 510.621 18.986 510.107 18.678C509.594 18.3607 509.188 17.936 508.889 17.404C508.591 16.8627 508.441 16.256 508.441 15.584C508.441 14.912 508.581 14.31 508.861 13.778C509.151 13.246 509.538 12.826 510.023 12.518C510.509 12.21 511.05 12.056 511.647 12.056C512.254 12.056 512.791 12.21 513.257 12.518C513.733 12.8167 514.107 13.2273 514.377 13.75C514.657 14.2633 514.797 14.8467 514.797 15.5V15.808H509.435C509.473 16.2747 509.599 16.6947 509.813 17.068C510.037 17.432 510.327 17.7213 510.681 17.936C511.045 18.1413 511.442 18.244 511.871 18.244C512.226 18.244 512.567 18.1833 512.893 18.062C513.229 17.9313 513.514 17.7587 513.747 17.544L514.391 18.23C513.999 18.538 513.593 18.7667 513.173 18.916C512.753 19.0653 512.305 19.14 511.829 19.14ZM509.463 15.08H513.789C513.743 14.6693 513.617 14.3053 513.411 13.988C513.215 13.6613 512.963 13.4047 512.655 13.218C512.357 13.0313 512.021 12.938 511.647 12.938C511.274 12.938 510.933 13.0313 510.625 13.218C510.317 13.3953 510.061 13.6473 509.855 13.974C509.659 14.2913 509.529 14.66 509.463 15.08ZM519.384 19.098C518.796 19.098 518.264 18.944 517.788 18.636C517.312 18.3187 516.934 17.8987 516.654 17.376C516.374 16.844 516.234 16.2513 516.234 15.598C516.234 14.9353 516.374 14.3427 516.654 13.82C516.944 13.288 517.331 12.868 517.816 12.56C518.302 12.2427 518.843 12.084 519.44 12.084C519.86 12.084 520.252 12.168 520.616 12.336C520.98 12.4947 521.298 12.728 521.568 13.036V8.892L522.59 8.682V19H521.568V18.09C521.307 18.4167 520.99 18.6687 520.616 18.846C520.243 19.014 519.832 19.098 519.384 19.098ZM519.636 18.202C520.038 18.202 520.406 18.1227 520.742 17.964C521.078 17.8053 521.354 17.5813 521.568 17.292V13.904C521.344 13.6147 521.06 13.3907 520.714 13.232C520.378 13.064 520.019 12.98 519.636 12.98C519.179 12.98 518.768 13.092 518.404 13.316C518.05 13.54 517.765 13.848 517.55 14.24C517.345 14.632 517.242 15.08 517.242 15.584C517.242 16.0787 517.345 16.5267 517.55 16.928C517.765 17.32 518.05 17.6327 518.404 17.866C518.768 18.09 519.179 18.202 519.636 18.202Z" fill="#151515"/>
<rect x="540.5" y="6" width="73" height="17" rx="8.5" stroke="#151515"/>
<g clip-path="url(#clip5_2238_5224)">
<path d="M556 8.5C552.693 8.5 550 11.1925 550 14.5C550 17.8075 552.693 20.5 556 20.5C559.307 20.5 562 17.8075 562 14.5C562 11.1925 559.307 8.5 556 8.5ZM558.925 13.3L555.681 16.5438C555.561 16.6638 555.407 16.72 555.25 16.72C555.093 16.72 554.939 16.66 554.819 16.5438L553.075 14.8C552.91 14.635 552.91 14.3688 553.075 14.2038C553.24 14.0388 553.506 14.0388 553.671 14.2038L555.246 15.7825L558.321 12.7038C558.486 12.5388 558.753 12.5388 558.918 12.7038C559.083 12.8688 559.083 13.135 558.918 13.3H558.925Z" fill="#151515"/>
</g>
<path d="M571.78 18.632C571.124 18.632 570.516 18.516 569.956 18.284C569.396 18.044 568.856 17.684 568.336 17.204L568.9 16.532C569.404 17.004 569.876 17.34 570.316 17.54C570.764 17.74 571.26 17.84 571.804 17.84C572.236 17.84 572.62 17.768 572.956 17.624C573.3 17.472 573.568 17.268 573.76 17.012C573.952 16.756 574.048 16.464 574.048 16.136C574.048 15.712 573.908 15.392 573.628 15.176C573.348 14.952 572.864 14.78 572.176 14.66L570.82 14.432C570.052 14.296 569.488 14.064 569.128 13.736C568.776 13.4 568.6 12.952 568.6 12.392C568.6 11.92 568.72 11.504 568.96 11.144C569.208 10.776 569.548 10.488 569.98 10.28C570.412 10.072 570.912 9.968 571.48 9.968C572.104 9.968 572.684 10.056 573.22 10.232C573.756 10.4 574.284 10.668 574.804 11.036L574.324 11.756C573.892 11.428 573.436 11.18 572.956 11.012C572.476 10.836 571.988 10.748 571.492 10.748C571.1 10.748 570.752 10.816 570.448 10.952C570.152 11.088 569.916 11.272 569.74 11.504C569.572 11.736 569.488 12 569.488 12.296C569.488 12.664 569.612 12.952 569.86 13.16C570.108 13.368 570.512 13.516 571.072 13.604L572.416 13.832C573.312 13.992 573.96 14.252 574.36 14.612C574.768 14.964 574.972 15.456 574.972 16.088C574.972 16.576 574.832 17.012 574.552 17.396C574.28 17.78 573.904 18.084 573.424 18.308C572.944 18.524 572.396 18.632 571.78 18.632ZM576.365 18.5V12.644H577.241V18.5H576.365ZM576.809 11.192C576.633 11.192 576.481 11.132 576.353 11.012C576.233 10.884 576.173 10.736 576.173 10.568C576.173 10.4 576.233 10.256 576.353 10.136C576.481 10.008 576.633 9.944 576.809 9.944C576.985 9.944 577.133 10.008 577.253 10.136C577.381 10.256 577.445 10.4 577.445 10.568C577.445 10.736 577.381 10.884 577.253 11.012C577.133 11.132 576.985 11.192 576.809 11.192ZM581.749 21.128C581.357 21.128 580.961 21.072 580.561 20.96C580.169 20.856 579.805 20.708 579.469 20.516L579.841 19.844C580.201 20.028 580.529 20.164 580.825 20.252C581.121 20.34 581.417 20.384 581.713 20.384C582.249 20.384 582.653 20.256 582.925 20C583.205 19.744 583.345 19.372 583.345 18.884V17.708C583.121 17.988 582.849 18.204 582.529 18.356C582.209 18.5 581.857 18.572 581.473 18.572C580.969 18.572 580.513 18.44 580.105 18.176C579.697 17.904 579.373 17.544 579.133 17.096C578.893 16.64 578.773 16.132 578.773 15.572C578.773 15.012 578.893 14.508 579.133 14.06C579.381 13.604 579.713 13.244 580.129 12.98C580.545 12.708 581.009 12.572 581.521 12.572C581.889 12.572 582.229 12.644 582.541 12.788C582.853 12.924 583.125 13.128 583.357 13.4V12.644H584.221V18.872C584.221 19.6 584.009 20.156 583.585 20.54C583.161 20.932 582.549 21.128 581.749 21.128ZM581.689 17.816C582.033 17.816 582.349 17.748 582.637 17.612C582.925 17.468 583.161 17.272 583.345 17.024V14.132C583.153 13.884 582.909 13.692 582.613 13.556C582.325 13.412 582.017 13.34 581.689 13.34C581.297 13.34 580.945 13.436 580.633 13.628C580.329 13.82 580.085 14.084 579.901 14.42C579.725 14.756 579.637 15.14 579.637 15.572C579.637 15.996 579.725 16.38 579.901 16.724C580.085 17.06 580.329 17.328 580.633 17.528C580.945 17.72 581.297 17.816 581.689 17.816ZM586.021 18.5V12.644H586.897V13.592C587.121 13.24 587.389 12.98 587.701 12.812C588.013 12.636 588.365 12.548 588.757 12.548C589.181 12.548 589.549 12.64 589.861 12.824C590.181 13 590.429 13.252 590.605 13.58C590.789 13.9 590.881 14.276 590.881 14.708V18.5H590.005V14.96C590.005 14.44 589.861 14.032 589.573 13.736C589.293 13.432 588.913 13.28 588.433 13.28C588.113 13.28 587.821 13.356 587.557 13.508C587.293 13.66 587.073 13.884 586.897 14.18V18.5H586.021ZM595.282 18.62C594.738 18.62 594.246 18.488 593.806 18.224C593.366 17.952 593.018 17.588 592.762 17.132C592.506 16.668 592.378 16.148 592.378 15.572C592.378 14.996 592.498 14.48 592.738 14.024C592.986 13.568 593.318 13.208 593.734 12.944C594.15 12.68 594.614 12.548 595.126 12.548C595.646 12.548 596.106 12.68 596.506 12.944C596.914 13.2 597.234 13.552 597.466 14C597.706 14.44 597.826 14.94 597.826 15.5V15.764H593.23C593.262 16.164 593.37 16.524 593.554 16.844C593.746 17.156 593.994 17.404 594.298 17.588C594.61 17.764 594.95 17.852 595.318 17.852C595.622 17.852 595.914 17.8 596.194 17.696C596.482 17.584 596.726 17.436 596.926 17.252L597.478 17.84C597.142 18.104 596.794 18.3 596.434 18.428C596.074 18.556 595.69 18.62 595.282 18.62ZM593.254 15.14H596.962C596.922 14.788 596.814 14.476 596.638 14.204C596.47 13.924 596.254 13.704 595.99 13.544C595.734 13.384 595.446 13.304 595.126 13.304C594.806 13.304 594.514 13.384 594.25 13.544C593.986 13.696 593.766 13.912 593.59 14.192C593.422 14.464 593.31 14.78 593.254 15.14ZM601.758 18.584C601.254 18.584 600.798 18.452 600.39 18.188C599.982 17.916 599.658 17.556 599.418 17.108C599.178 16.652 599.058 16.144 599.058 15.584C599.058 15.016 599.178 14.508 599.418 14.06C599.666 13.604 599.998 13.244 600.414 12.98C600.83 12.708 601.294 12.572 601.806 12.572C602.166 12.572 602.502 12.644 602.814 12.788C603.126 12.924 603.398 13.124 603.63 13.388V9.836L604.506 9.656V18.5H603.63V17.72C603.406 18 603.134 18.216 602.814 18.368C602.494 18.512 602.142 18.584 601.758 18.584ZM601.974 17.816C602.318 17.816 602.634 17.748 602.922 17.612C603.21 17.476 603.446 17.284 603.63 17.036V14.132C603.438 13.884 603.194 13.692 602.898 13.556C602.61 13.412 602.302 13.34 601.974 13.34C601.582 13.34 601.23 13.436 600.918 13.628C600.614 13.82 600.37 14.084 600.186 14.42C600.01 14.756 599.922 15.14 599.922 15.572C599.922 15.996 600.01 16.38 600.186 16.724C600.37 17.06 600.614 17.328 600.918 17.528C601.23 17.72 601.582 17.816 601.974 17.816Z" fill="#151515"/>
<defs>
<clipPath id="clip0_2238_5224">
<rect width="16" height="16" fill="white" transform="translate(8 6.5)"/>
</clipPath>
<clipPath id="clip1_2238_5224">
<rect width="12" height="12" fill="white" transform="translate(98 8.5)"/>
</clipPath>
<clipPath id="clip2_2238_5224">
<rect width="16" height="16" fill="white" transform="translate(234 6.5)"/>
</clipPath>
<clipPath id="clip3_2238_5224">
<rect width="12" height="12" fill="white" transform="translate(324 8.5)"/>
</clipPath>
<clipPath id="clip4_2238_5224">
<rect width="16" height="16" fill="white" transform="translate(460 6.5)"/>
</clipPath>
<clipPath id="clip5_2238_5224">
<rect width="12" height="12" fill="white" transform="translate(550 8.5)"/>
</clipPath>
</defs>
</svg>
