<svg viewBox="0 0 880.437 394.298" xmlns="http://www.w3.org/2000/svg">
  <defs>
    <style>
      .tabs-style_svg__a{fill:#d2d2d2}.tabs-style_svg__b{fill:#f5f5f5}.tabs-style_svg__c{fill:#8a8d90}.tabs-style_svg__d{fill:#fff}.tabs-style_svg__e{fill:#06c}
    </style>
  </defs>
  <g transform="translate(-415.563 -645.544)">
    <path d="M424 1006h872v1H424Z" class="tabs-style_svg__a"/>
    <path d="M985 953h132v53H985Z" class="tabs-style_svg__b"/>
    <path d="M1017.448 983.16a6.318 6.318 0 0 0 4.576 2c2.752 0 4.276-1.584 4.276-3.376 0-1.648-.96-2.576-3.408-3.008l-1.792-.304c-1.38-.24-2.116-.672-2.116-1.772 0-1.392 1.344-2 2.672-2a5.937 5.937 0 0 1 3.728 1.36l.72-.928a7.091 7.091 0 0 0-4.416-1.472c-2.048-.004-3.888 1.02-3.888 3.132 0 1.584.944 2.432 2.96 2.784l1.808.3c1.808.32 2.5.848 2.5 1.968-.004 1.256-1.156 2.256-2.996 2.256a5.393 5.393 0 0 1-3.856-1.8Zm10.496-2.06a3.907 3.907 0 0 0 3.872 4.044 4.5 4.5 0 0 0 2.928-1.044l-.736-.8a3.191 3.191 0 0 1-2.144.8 2.81 2.81 0 0 1-2.764-2.764h6.128V981a3.7 3.7 0 0 0-3.588-3.936 3.812 3.812 0 0 0-3.696 4.036Zm3.68-3.008a2.572 2.572 0 0 1 2.432 2.428h-4.928a2.581 2.581 0 0 1 2.496-2.432Zm9.088 6a2.817 2.817 0 0 1-2.72-2.992 2.832 2.832 0 0 1 2.72-2.976 2.983 2.983 0 0 1 2.144.976l.752-.816a4.146 4.146 0 0 0-2.908-1.22 3.912 3.912 0 0 0-3.876 4.036 3.926 3.926 0 0 0 3.876 4.044 3.955 3.955 0 0 0 2.86-1.264l-.72-.72a2.791 2.791 0 0 1-2.128.928Zm5.68-.848c0 1.216.688 1.9 2.048 1.9a4.713 4.713 0 0 0 1.376-.208V983.9a2.881 2.881 0 0 1-1.1.208c-.832 0-1.152-.336-1.152-1.168v-4.788h2.256v-.96h-2.26v-2.256l-1.168.272v1.984h-1.616v.96h1.616Zm5.648-8.02a.83.83 0 0 0 .832-.848.826.826 0 0 0-.832-.832.826.826 0 0 0-.832.832.83.83 0 0 0 .832.848Zm.576 1.968h-1.168V985h1.168Zm1.984 3.908a3.867 3.867 0 0 0 3.792 4.06 3.873 3.873 0 0 0 3.824-4.06 3.845 3.845 0 0 0-3.824-4.032 3.839 3.839 0 0 0-3.792 4.032Zm6.448.016a2.756 2.756 0 0 1-2.656 3.004 2.742 2.742 0 0 1-2.624-3.008 2.767 2.767 0 0 1 2.624-3.024 2.771 2.771 0 0 1 2.656 3.024Zm3.136 3.884h1.168v-5.76a2.32 2.32 0 0 1 2.048-1.2 2.023 2.023 0 0 1 2.1 2.24V985h1.168v-5.056a2.722 2.722 0 0 0-2.816-2.88 2.813 2.813 0 0 0-2.5 1.408v-1.28h-1.168Zm12.464-5.6.8.256a5.424 5.424 0 0 1 2.448-.64 2.5 2.5 0 0 1 2.804 2.484 2.583 2.583 0 0 1-2.756 2.668 4.17 4.17 0 0 1-3.088-1.312l-.72.784a5.33 5.33 0 0 0 3.808 1.52 3.619 3.619 0 0 0 3.92-3.712c0-1.9-1.344-3.392-3.76-3.36a5.536 5.536 0 0 0-2.4.592l.176-3.872h5.392V973.8h-6.372Z" class="tabs-style_svg__c"/>
    <path d="M984 953h1v53h-1Z" class="tabs-style_svg__a"/>
    <path d="M851 953h133v53H851Z" class="tabs-style_svg__b"/>
    <path d="M883.448 983.16a6.318 6.318 0 0 0 4.576 2c2.752 0 4.276-1.584 4.276-3.376 0-1.648-.96-2.576-3.408-3.008l-1.792-.304c-1.38-.24-2.116-.672-2.116-1.772 0-1.392 1.344-2 2.672-2a5.937 5.937 0 0 1 3.728 1.36l.72-.928a7.091 7.091 0 0 0-4.416-1.472c-2.048-.004-3.888 1.02-3.888 3.132 0 1.584.944 2.432 2.96 2.784l1.808.3c1.808.32 2.5.848 2.5 1.968-.004 1.256-1.156 2.256-2.996 2.256a5.393 5.393 0 0 1-3.856-1.8Zm10.496-2.06a3.907 3.907 0 0 0 3.872 4.044 4.5 4.5 0 0 0 2.928-1.044l-.736-.8a3.191 3.191 0 0 1-2.144.8 2.81 2.81 0 0 1-2.764-2.764h6.128V981a3.7 3.7 0 0 0-3.588-3.936 3.812 3.812 0 0 0-3.696 4.036Zm3.68-3.008a2.572 2.572 0 0 1 2.432 2.428h-4.928a2.581 2.581 0 0 1 2.496-2.432Zm9.088 6a2.817 2.817 0 0 1-2.72-2.992 2.832 2.832 0 0 1 2.72-2.976 2.983 2.983 0 0 1 2.144.976l.752-.816a4.146 4.146 0 0 0-2.908-1.22 3.912 3.912 0 0 0-3.876 4.036 3.926 3.926 0 0 0 3.876 4.044 3.955 3.955 0 0 0 2.86-1.264l-.72-.72a2.791 2.791 0 0 1-2.128.928Zm5.68-.848c0 1.216.688 1.9 2.048 1.9a4.713 4.713 0 0 0 1.376-.208V983.9a2.881 2.881 0 0 1-1.1.208c-.832 0-1.152-.336-1.152-1.168v-4.788h2.256v-.96h-2.26v-2.256l-1.168.272v1.984h-1.616v.96h1.616Zm5.648-8.02a.83.83 0 0 0 .832-.848.826.826 0 0 0-.832-.832.826.826 0 0 0-.832.832.83.83 0 0 0 .832.848Zm.576 1.968h-1.168V985h1.168Zm1.984 3.908a3.867 3.867 0 0 0 3.792 4.06 3.873 3.873 0 0 0 3.824-4.06 3.845 3.845 0 0 0-3.824-4.032 3.839 3.839 0 0 0-3.792 4.032Zm6.448.016a2.756 2.756 0 0 1-2.656 3.004 2.742 2.742 0 0 1-2.624-3.008 2.767 2.767 0 0 1 2.624-3.024 2.771 2.771 0 0 1 2.656 3.024Zm3.136 3.884h1.168v-5.76a2.32 2.32 0 0 1 2.048-1.2 2.023 2.023 0 0 1 2.1 2.24V985h1.168v-5.056a2.722 2.722 0 0 0-2.816-2.88 2.813 2.813 0 0 0-2.5 1.408v-1.28h-1.168Zm19.168-11.2h-1.232l-5.952 7.3v.912h6.048V985h1.136v-2.992h1.548V981h-1.548Zm-5.824 7.2 4.688-5.792V981Z" class="tabs-style_svg__c"/>
    <path d="M850 953h1v53h-1Z" class="tabs-style_svg__a"/>
    <path d="M718 953h132v54H718Z" class="tabs-style_svg__d"/>
    <path d="M750.448 983.16a6.318 6.318 0 0 0 4.576 2c2.752 0 4.276-1.584 4.276-3.376 0-1.648-.96-2.576-3.408-3.008l-1.792-.304c-1.38-.24-2.116-.672-2.116-1.772 0-1.392 1.344-2 2.672-2a5.937 5.937 0 0 1 3.728 1.36l.72-.928a7.091 7.091 0 0 0-4.416-1.472c-2.048-.004-3.888 1.02-3.888 3.132 0 1.584.944 2.432 2.96 2.784l1.808.3c1.808.32 2.5.848 2.5 1.968-.004 1.256-1.156 2.256-2.996 2.256a5.393 5.393 0 0 1-3.856-1.8Zm10.496-2.06a3.907 3.907 0 0 0 3.872 4.044 4.5 4.5 0 0 0 2.928-1.044l-.736-.8a3.191 3.191 0 0 1-2.144.8 2.81 2.81 0 0 1-2.764-2.764h6.128V981a3.7 3.7 0 0 0-3.588-3.936 3.812 3.812 0 0 0-3.696 4.036Zm3.68-3.008a2.572 2.572 0 0 1 2.432 2.428h-4.928a2.581 2.581 0 0 1 2.496-2.432Zm9.088 6a2.817 2.817 0 0 1-2.72-2.992 2.832 2.832 0 0 1 2.72-2.976 2.983 2.983 0 0 1 2.144.976l.752-.816a4.146 4.146 0 0 0-2.908-1.22 3.912 3.912 0 0 0-3.876 4.036 3.926 3.926 0 0 0 3.876 4.044 3.955 3.955 0 0 0 2.86-1.264l-.72-.72a2.791 2.791 0 0 1-2.128.928Zm5.68-.848c0 1.216.688 1.9 2.048 1.9a4.713 4.713 0 0 0 1.376-.208V983.9a2.881 2.881 0 0 1-1.1.208c-.832 0-1.152-.336-1.152-1.168v-4.788h2.256v-.96h-2.26v-2.256l-1.168.272v1.984h-1.616v.96h1.616Zm5.648-8.02a.83.83 0 0 0 .832-.848.826.826 0 0 0-.832-.832.826.826 0 0 0-.832.832.83.83 0 0 0 .832.848Zm.576 1.968h-1.168V985h1.168Zm1.984 3.908a3.867 3.867 0 0 0 3.792 4.06 3.873 3.873 0 0 0 3.824-4.06 3.845 3.845 0 0 0-3.824-4.032 3.839 3.839 0 0 0-3.792 4.032Zm6.448.016a2.756 2.756 0 0 1-2.656 3.004 2.742 2.742 0 0 1-2.624-3.008 2.767 2.767 0 0 1 2.624-3.024 2.771 2.771 0 0 1 2.656 3.024Zm3.136 3.884h1.168v-5.76a2.32 2.32 0 0 1 2.048-1.2 2.023 2.023 0 0 1 2.1 2.24V985h1.168v-5.056a2.722 2.722 0 0 0-2.816-2.88 2.813 2.813 0 0 0-2.5 1.408v-1.28h-1.168Zm19.776-3.072a2.879 2.879 0 0 0-2.512-2.688 2.7 2.7 0 0 0 2.1-2.544c0-1.744-1.52-3.072-3.568-3.072a4.969 4.969 0 0 0-3.716 1.616l.768.768a3.746 3.746 0 0 1 2.928-1.36 2.257 2.257 0 0 1 2.432 2.112 1.932 1.932 0 0 1-2.048 2.016h-1.28v.992h1.328a2.216 2.216 0 0 1 2.416 2.132c0 1.328-1.136 2.256-2.784 2.256a4.089 4.089 0 0 1-3.136-1.328l-.768.752a5.4 5.4 0 0 0 3.92 1.58c2.272 0 3.92-1.36 3.92-3.232ZM718 953h132v3H718Z" class="tabs-style_svg__c"/>
    <path d="M717 953h1v53h-1Z" class="tabs-style_svg__a"/>
    <path d="M585 953h132v53H585Z" class="tabs-style_svg__b"/>
    <path d="M617.448 983.16a6.318 6.318 0 0 0 4.576 2c2.752 0 4.276-1.584 4.276-3.376 0-1.648-.96-2.576-3.408-3.008l-1.792-.304c-1.38-.24-2.116-.672-2.116-1.772 0-1.392 1.344-2 2.672-2a5.937 5.937 0 0 1 3.728 1.36l.72-.928a7.091 7.091 0 0 0-4.416-1.472c-2.048-.004-3.888 1.02-3.888 3.132 0 1.584.944 2.432 2.96 2.784l1.808.3c1.808.32 2.5.848 2.5 1.968-.004 1.256-1.156 2.256-2.996 2.256a5.393 5.393 0 0 1-3.856-1.8Zm10.496-2.06a3.907 3.907 0 0 0 3.872 4.044 4.5 4.5 0 0 0 2.928-1.044l-.736-.8a3.191 3.191 0 0 1-2.144.8 2.81 2.81 0 0 1-2.764-2.764h6.128V981a3.7 3.7 0 0 0-3.588-3.936 3.812 3.812 0 0 0-3.696 4.036Zm3.68-3.008a2.572 2.572 0 0 1 2.432 2.428h-4.928a2.581 2.581 0 0 1 2.496-2.432Zm9.088 6a2.817 2.817 0 0 1-2.72-2.992 2.832 2.832 0 0 1 2.72-2.976 2.983 2.983 0 0 1 2.144.976l.752-.816a4.146 4.146 0 0 0-2.908-1.22 3.912 3.912 0 0 0-3.876 4.036 3.926 3.926 0 0 0 3.876 4.044 3.955 3.955 0 0 0 2.86-1.264l-.72-.72a2.791 2.791 0 0 1-2.128.928Zm5.68-.848c0 1.216.688 1.9 2.048 1.9a4.713 4.713 0 0 0 1.376-.208V983.9a2.881 2.881 0 0 1-1.1.208c-.832 0-1.152-.336-1.152-1.168v-4.788h2.256v-.96h-2.26v-2.256l-1.168.272v1.984h-1.616v.96h1.616Zm5.648-8.02a.83.83 0 0 0 .832-.848.826.826 0 0 0-.832-.832.826.826 0 0 0-.832.832.83.83 0 0 0 .832.848Zm.576 1.968h-1.168V985h1.168Zm1.984 3.908a3.867 3.867 0 0 0 3.792 4.06 3.873 3.873 0 0 0 3.824-4.06 3.845 3.845 0 0 0-3.824-4.032 3.839 3.839 0 0 0-3.792 4.032Zm6.448.016a2.756 2.756 0 0 1-2.656 3.004 2.742 2.742 0 0 1-2.624-3.008 2.767 2.767 0 0 1 2.624-3.024 2.771 2.771 0 0 1 2.656 3.024Zm3.136 3.884h1.168v-5.76a2.32 2.32 0 0 1 2.048-1.2 2.023 2.023 0 0 1 2.1 2.24V985h1.168v-5.056a2.722 2.722 0 0 0-2.816-2.88 2.813 2.813 0 0 0-2.5 1.408v-1.28h-1.168Zm12.16 0h7.216v-1.008h-5.744l3.76-4.16c1.2-1.332 1.744-2.032 1.744-3.264 0-1.68-1.44-2.912-3.472-2.912a5.271 5.271 0 0 0-3.648 1.584l.672.8a4.114 4.114 0 0 1 2.96-1.36 2.106 2.106 0 0 1 2.352 1.952c0 .848-.384 1.44-1.392 2.576l-4.448 4.944Z" class="tabs-style_svg__c"/>
    <path d="M584 953h1v53h-1Z" class="tabs-style_svg__a"/>
    <path d="M456 953h128v53H456Z" class="tabs-style_svg__b"/>
    <path d="M488.448 983.16a6.318 6.318 0 0 0 4.576 2c2.752 0 4.276-1.584 4.276-3.376 0-1.648-.96-2.576-3.408-3.008l-1.792-.304c-1.38-.24-2.116-.672-2.116-1.772 0-1.392 1.344-2 2.672-2a5.937 5.937 0 0 1 3.728 1.36l.72-.928a7.091 7.091 0 0 0-4.416-1.472c-2.048-.004-3.888 1.02-3.888 3.132 0 1.584.944 2.432 2.96 2.784l1.808.3c1.808.32 2.5.848 2.5 1.968-.004 1.256-1.156 2.256-2.996 2.256a5.393 5.393 0 0 1-3.856-1.8Zm10.496-2.06a3.907 3.907 0 0 0 3.872 4.044 4.5 4.5 0 0 0 2.928-1.044l-.736-.8a3.191 3.191 0 0 1-2.144.8 2.81 2.81 0 0 1-2.764-2.764h6.128V981a3.7 3.7 0 0 0-3.588-3.936 3.812 3.812 0 0 0-3.696 4.036Zm3.68-3.008a2.572 2.572 0 0 1 2.432 2.428h-4.928a2.581 2.581 0 0 1 2.496-2.432Zm9.088 6a2.817 2.817 0 0 1-2.72-2.992 2.832 2.832 0 0 1 2.72-2.976 2.983 2.983 0 0 1 2.144.976l.752-.816a4.146 4.146 0 0 0-2.908-1.22 3.912 3.912 0 0 0-3.876 4.036 3.926 3.926 0 0 0 3.876 4.044 3.955 3.955 0 0 0 2.86-1.264l-.72-.72a2.791 2.791 0 0 1-2.128.928Zm5.68-.848c0 1.216.688 1.9 2.048 1.9a4.713 4.713 0 0 0 1.376-.208V983.9a2.881 2.881 0 0 1-1.1.208c-.832 0-1.152-.336-1.152-1.168v-4.788h2.256v-.96h-2.26v-2.256l-1.168.272v1.984h-1.616v.96h1.616Zm5.648-8.02a.83.83 0 0 0 .832-.848.826.826 0 0 0-.832-.832.826.826 0 0 0-.832.832.83.83 0 0 0 .832.848Zm.576 1.968h-1.168V985h1.168Zm1.984 3.908a3.867 3.867 0 0 0 3.792 4.06 3.873 3.873 0 0 0 3.824-4.06 3.845 3.845 0 0 0-3.824-4.032 3.839 3.839 0 0 0-3.792 4.032Zm6.448.016a2.756 2.756 0 0 1-2.656 3.004 2.742 2.742 0 0 1-2.624-3.008 2.767 2.767 0 0 1 2.624-3.024 2.771 2.771 0 0 1 2.656 3.024Zm3.136 3.884h1.168v-5.76a2.32 2.32 0 0 1 2.048-1.2 2.023 2.023 0 0 1 2.1 2.24V985h1.168v-5.056a2.722 2.722 0 0 0-2.816-2.88 2.813 2.813 0 0 0-2.5 1.408v-1.28h-1.168Zm14.96-11.2h-.72l-2.224.992v1.056l1.792-.8V985h1.152Z" class="tabs-style_svg__c"/>
    <path d="M1204.252 1037h1.12l1.176-3.08h4.352l1.164 3.08h1.176l-3.822-9.8h-1.288Zm2.66-4 1.82-4.76 1.82 4.76Zm7.588 4h1.022v-5.04a2.03 2.03 0 0 1 1.792-1.05 1.771 1.771 0 0 1 1.834 1.96v4.13h1.022v-4.424a2.382 2.382 0 0 0-2.464-2.52 2.462 2.462 0 0 0-2.184 1.232v-1.12h-1.022Zm10.794-.8a2.465 2.465 0 0 1-2.38-2.618 2.478 2.478 0 0 1 2.38-2.6 2.61 2.61 0 0 1 1.876.854l.658-.714a3.628 3.628 0 0 0-2.548-1.066 3.423 3.423 0 0 0-3.388 3.528 3.435 3.435 0 0 0 3.388 3.542 3.461 3.461 0 0 0 2.506-1.106l-.63-.63a2.442 2.442 0 0 1-1.862.81Zm8.652.8h1.022v-4.424a2.382 2.382 0 0 0-2.468-2.52 2.462 2.462 0 0 0-2.18 1.232v-4.3l-1.02.212v9.8h1.02v-5.04a2.03 2.03 0 0 1 1.792-1.05 1.771 1.771 0 0 1 1.834 1.96Zm2.744-3.416a3.384 3.384 0 0 0 3.318 3.556 3.389 3.389 0 0 0 3.346-3.556 3.365 3.365 0 0 0-3.346-3.528 3.359 3.359 0 0 0-3.318 3.528Zm5.642.014a2.412 2.412 0 0 1-2.324 2.632 2.4 2.4 0 0 1-2.3-2.632 2.421 2.421 0 0 1 2.3-2.646 2.424 2.424 0 0 1 2.324 2.648Zm2.744 3.402h1.024v-4.676a1.921 1.921 0 0 1 1.834-1.386 2.422 2.422 0 0 1 .714.126v-.924a2.01 2.01 0 0 0-.644-.1 2.031 2.031 0 0 0-1.9 1.484v-1.356h-1.028Z" class="tabs-style_svg__e"/>
    <circle cx="3.5" cy="3.5" r="3.5" class="tabs-style_svg__e" transform="translate(1223 1003)"/>
    <path d="M951.392 1028.152h3.388V1037h1.078v-8.848h3.374v-.952h-7.84Zm10.738 8.974a2.906 2.906 0 0 0 2.17-.91v.784h1.008v-4.536c0-1.582-.98-2.408-2.646-2.408a5.722 5.722 0 0 0-2.576.658l.392.784a4.407 4.407 0 0 1 2.058-.588c1.148 0 1.764.546 1.764 1.694v.924a4.1 4.1 0 0 0-2.072-.518c-1.484 0-2.562.756-2.562 2.016a2.2 2.2 0 0 0 2.464 2.1Zm-1.484-2.114c0-.8.728-1.274 1.722-1.274a3.545 3.545 0 0 1 1.932.5v1.316a2.726 2.726 0 0 1-1.96.784c-.994.004-1.694-.528-1.694-1.326Zm13.076-1.428a3.308 3.308 0 0 0-3.164-3.5 2.705 2.705 0 0 0-2.2 1.036v-4.13l-1.022.21v9.8h1.008v-.9a2.7 2.7 0 0 0 2.156 1 3.329 3.329 0 0 0 3.222-3.516Zm-3.416-2.6a2.451 2.451 0 0 1 2.394 2.616 2.443 2.443 0 0 1-2.394 2.616 2.421 2.421 0 0 1-1.946-.952v-3.346a2.352 2.352 0 0 1 1.946-.938Zm14.784 2.6a3.308 3.308 0 0 0-3.164-3.5 2.705 2.705 0 0 0-2.2 1.036v-4.13l-1.022.21v9.8h1.008v-.9a2.7 2.7 0 0 0 2.158 1 3.329 3.329 0 0 0 3.22-3.516Zm-3.416-2.6a2.451 2.451 0 0 1 2.394 2.616 2.443 2.443 0 0 1-2.394 2.616 2.421 2.421 0 0 1-1.946-.952v-3.346a2.352 2.352 0 0 1 1.946-.938Zm7.336 6.142a2.906 2.906 0 0 0 2.17-.91v.784h1.008v-4.536c0-1.582-.98-2.408-2.646-2.408a5.722 5.722 0 0 0-2.576.658l.392.784a4.407 4.407 0 0 1 2.058-.588c1.148 0 1.764.546 1.764 1.694v.924a4.1 4.1 0 0 0-2.072-.518c-1.484 0-2.562.756-2.562 2.016a2.2 2.2 0 0 0 2.464 2.1Zm-1.484-2.114c0-.8.728-1.274 1.722-1.274a3.545 3.545 0 0 1 1.932.5v1.316a2.726 2.726 0 0 1-1.96.784c-.994.004-1.694-.528-1.694-1.326Zm9.8 1.19a2.465 2.465 0 0 1-2.38-2.618 2.478 2.478 0 0 1 2.38-2.6 2.61 2.61 0 0 1 1.876.854l.658-.714a3.628 3.628 0 0 0-2.548-1.064 3.423 3.423 0 0 0-3.388 3.528 3.435 3.435 0 0 0 3.388 3.538 3.461 3.461 0 0 0 2.506-1.106l-.63-.63a2.442 2.442 0 0 1-1.862.81Zm4 .8h1.022v-3.264l3.294 3.262H1007l-3.64-3.584 3.472-3.248h-1.232l-3.248 3.08v-6.258l-1.022.21Zm9.324.1a2.759 2.759 0 0 0 2.174-1.002v1.124c0 1.148-.672 1.75-1.9 1.75a4.449 4.449 0 0 1-2.17-.63l-.434.784a5.318 5.318 0 0 0 2.66.714c1.848 0 2.87-.924 2.87-2.632v-7.042h-1.012v.868a2.82 2.82 0 0 0-2.128-.952 3.329 3.329 0 0 0-3.22 3.516 3.308 3.308 0 0 0 3.164 3.5Zm-2.138-3.518a2.428 2.428 0 0 1 2.38-2.6 2.462 2.462 0 0 1 1.932.91v3.4a2.36 2.36 0 0 1-1.932.91 2.44 2.44 0 0 1-2.38-2.62Zm7.35 3.416h1.022v-4.676a1.921 1.921 0 0 1 1.834-1.386 2.422 2.422 0 0 1 .714.126v-.924a2.01 2.01 0 0 0-.644-.1 2.031 2.031 0 0 0-1.9 1.484v-1.356h-1.026Zm4.116-3.416a3.384 3.384 0 0 0 3.322 3.556 3.389 3.389 0 0 0 3.346-3.556 3.365 3.365 0 0 0-3.346-3.528 3.359 3.359 0 0 0-3.322 3.528Zm5.642.016a2.412 2.412 0 0 1-2.32 2.63 2.4 2.4 0 0 1-2.3-2.63 2.421 2.421 0 0 1 2.3-2.646 2.424 2.424 0 0 1 2.32 2.646Zm3.766-3.43h-1.022v4.424a2.382 2.382 0 0 0 2.464 2.518 2.462 2.462 0 0 0 2.184-1.232v1.12h1.022v-6.832h-1.022v5.04a2.03 2.03 0 0 1-1.792 1.05 1.771 1.771 0 0 1-1.834-1.958Zm6.664 6.83h1.022v-5.04a2.03 2.03 0 0 1 1.792-1.05 1.771 1.771 0 0 1 1.836 1.96v4.13h1.02v-4.424a2.382 2.382 0 0 0-2.464-2.52 2.462 2.462 0 0 0-2.184 1.232v-1.12h-1.022Zm12.74 0h1.022v-10.01l-1.036.21v3.822a2.8 2.8 0 0 0-2.114-.938 3.329 3.329 0 0 0-3.22 3.516 3.308 3.308 0 0 0 3.164 3.5 2.747 2.747 0 0 0 2.184-1.024Zm-4.326-3.416a2.428 2.428 0 0 1 2.38-2.6 2.462 2.462 0 0 1 1.932.91v3.4a2.36 2.36 0 0 1-1.932.91 2.44 2.44 0 0 1-2.38-2.62ZM1001 980h1v43h-1Z" class="tabs-style_svg__e"/>
    <circle cx="3.5" cy="3.5" r="3.5" class="tabs-style_svg__e" transform="translate(998 976)"/>
    <path d="M802.252 1037h1.12l1.176-3.08h4.352l1.164 3.08h1.176l-3.822-9.8h-1.288Zm2.66-4 1.82-4.76 1.82 4.76Zm10.332 3.2a2.465 2.465 0 0 1-2.38-2.618 2.478 2.478 0 0 1 2.38-2.6 2.61 2.61 0 0 1 1.876.854l.658-.714a3.628 3.628 0 0 0-2.548-1.066 3.423 3.423 0 0 0-3.388 3.528 3.435 3.435 0 0 0 3.388 3.542 3.461 3.461 0 0 0 2.506-1.106l-.63-.63a2.442 2.442 0 0 1-1.862.81Zm4.97-.742c0 1.064.6 1.666 1.792 1.666a4.124 4.124 0 0 0 1.2-.182v-.91a2.521 2.521 0 0 1-.966.182c-.728 0-1.008-.294-1.008-1.022v-4.184h1.978v-.84h-1.974v-1.974l-1.022.238v1.736H818.8v.84h1.414Zm4.942-7.014a.726.726 0 0 0 .728-.742.723.723 0 0 0-.728-.728.723.723 0 0 0-.728.728.726.726 0 0 0 .728.744Zm.5 1.722h-1.018V1037h1.022Zm4.092 6.834h.966l2.814-6.832h-1.092l-2.184 5.544-2.184-5.544h-1.134Zm4.48-3.416a3.418 3.418 0 0 0 3.388 3.542 3.935 3.935 0 0 0 2.562-.91l-.644-.7a2.792 2.792 0 0 1-1.876.7 2.459 2.459 0 0 1-2.422-2.422h5.364v-.294a3.236 3.236 0 0 0-3.136-3.444 3.336 3.336 0 0 0-3.236 3.528Zm3.22-2.632a2.25 2.25 0 0 1 2.128 2.128h-4.312a2.258 2.258 0 0 1 2.184-2.128Zm14.476 2.632a3.308 3.308 0 0 0-3.164-3.5 2.705 2.705 0 0 0-2.2 1.036v-4.13l-1.02.21v9.8h1.008v-.9a2.7 2.7 0 0 0 2.152 1 3.329 3.329 0 0 0 3.224-3.516Zm-3.416-2.6a2.451 2.451 0 0 1 2.392 2.616 2.443 2.443 0 0 1-2.392 2.616 2.421 2.421 0 0 1-1.946-.952v-3.346a2.352 2.352 0 0 1 1.946-.938Zm7.336 6.142a2.906 2.906 0 0 0 2.17-.91v.784h1.008v-4.536c0-1.582-.98-2.408-2.646-2.408a5.722 5.722 0 0 0-2.576.658l.392.784a4.407 4.407 0 0 1 2.058-.588c1.148 0 1.764.546 1.764 1.694v.924a4.1 4.1 0 0 0-2.072-.518c-1.484 0-2.562.756-2.562 2.016a2.2 2.2 0 0 0 2.464 2.1Zm-1.484-2.114c0-.8.728-1.274 1.722-1.274a3.545 3.545 0 0 1 1.932.5v1.316a2.726 2.726 0 0 1-1.96.784c-.994.004-1.694-.528-1.694-1.326Zm6.692 1.988h1.022v-4.676a1.921 1.921 0 0 1 1.834-1.386 2.422 2.422 0 0 1 .714.126v-.924a2.01 2.01 0 0 0-.644-.1 2.031 2.031 0 0 0-1.9 1.484v-1.356h-1.026ZM833 964h1v59h-1Z" class="tabs-style_svg__e"/>
    <circle cx="3.5" cy="3.5" r="3.5" class="tabs-style_svg__e" transform="translate(830 960)"/>
    <path d="M703.252 1037h1.12l1.176-3.08h4.352l1.164 3.08h1.176l-3.822-9.8h-1.288Zm2.66-4 1.82-4.76 1.82 4.76Zm10.332 3.2a2.465 2.465 0 0 1-2.38-2.618 2.478 2.478 0 0 1 2.38-2.6 2.61 2.61 0 0 1 1.876.854l.658-.714a3.628 3.628 0 0 0-2.548-1.066 3.423 3.423 0 0 0-3.388 3.528 3.435 3.435 0 0 0 3.388 3.542 3.461 3.461 0 0 0 2.506-1.106l-.63-.63a2.442 2.442 0 0 1-1.862.81Zm4.97-.742c0 1.064.6 1.666 1.792 1.666a4.124 4.124 0 0 0 1.2-.182v-.91a2.521 2.521 0 0 1-.966.182c-.728 0-1.008-.294-1.008-1.022v-4.184h1.978v-.84h-1.974v-1.974l-1.022.238v1.736H719.8v.84h1.414Zm4.942-7.014a.726.726 0 0 0 .728-.742.723.723 0 0 0-.728-.728.723.723 0 0 0-.728.728.726.726 0 0 0 .728.744Zm.5 1.722h-1.018V1037h1.022Zm4.092 6.834h.966l2.814-6.832h-1.092l-2.184 5.544-2.184-5.544h-1.134Zm4.48-3.416a3.418 3.418 0 0 0 3.388 3.542 3.935 3.935 0 0 0 2.562-.91l-.644-.7a2.792 2.792 0 0 1-1.876.7 2.459 2.459 0 0 1-2.422-2.422h5.364v-.294a3.236 3.236 0 0 0-3.136-3.444 3.336 3.336 0 0 0-3.236 3.528Zm3.22-2.632a2.25 2.25 0 0 1 2.128 2.128h-4.312a2.258 2.258 0 0 1 2.184-2.128Zm8.918 4.508c0 1.064.6 1.666 1.792 1.666a4.124 4.124 0 0 0 1.2-.182v-.91a2.521 2.521 0 0 1-.966.182c-.728 0-1.008-.294-1.008-1.022v-4.186h1.974v-.84h-1.97v-1.974l-1.022.238v1.736h-1.414v.84h1.414Zm6.552 1.666a2.906 2.906 0 0 0 2.17-.91v.784h1.012v-4.536c0-1.582-.98-2.408-2.646-2.408a5.722 5.722 0 0 0-2.576.658l.392.784a4.407 4.407 0 0 1 2.058-.588c1.148 0 1.764.546 1.764 1.694v.924a4.1 4.1 0 0 0-2.072-.518c-1.484 0-2.562.756-2.562 2.016a2.2 2.2 0 0 0 2.46 2.1Zm-1.484-2.114c0-.8.728-1.274 1.722-1.274a3.545 3.545 0 0 1 1.932.5v1.316a2.726 2.726 0 0 1-1.96.784c-.994.004-1.694-.528-1.694-1.326Zm13.076-1.428a3.308 3.308 0 0 0-3.164-3.5 2.705 2.705 0 0 0-2.2 1.036v-4.13l-1.022.21v9.8h1.008v-.9a2.7 2.7 0 0 0 2.158 1 3.329 3.329 0 0 0 3.22-3.516Zm-3.416-2.6a2.451 2.451 0 0 1 2.394 2.616 2.443 2.443 0 0 1-2.394 2.616 2.421 2.421 0 0 1-1.946-.952v-3.346a2.352 2.352 0 0 1 1.946-.938ZM734 980h1v43h-1Z" class="tabs-style_svg__e"/>
    <circle cx="3.5" cy="3.5" r="3.5" class="tabs-style_svg__e" transform="translate(731 976)"/>
    <path d="M563.246 1037h3.248a4.736 4.736 0 0 0 4.9-4.9 4.744 4.744 0 0 0-4.9-4.9h-3.248Zm3.318-8.834a3.765 3.765 0 0 1 3.724 3.934 3.765 3.765 0 0 1-3.724 3.934h-2.24v-7.868Zm7.154.28a.726.726 0 0 0 .728-.742.723.723 0 0 0-.728-.728.723.723 0 0 0-.728.728.726.726 0 0 0 .728.742Zm.5 1.722H573.2V1037h1.022Zm4.092 6.832h.966l2.814-6.832H581l-2.186 5.544-2.184-5.544h-1.13Zm5.572-8.554a.726.726 0 0 0 .728-.746.723.723 0 0 0-.728-.728.723.723 0 0 0-.728.728.726.726 0 0 0 .728.746Zm.5 1.722h-1.018V1037h1.022Zm7.088 6.832h1.022v-10.01l-1.036.21v3.822a2.8 2.8 0 0 0-2.114-.938 3.329 3.329 0 0 0-3.22 3.516 3.308 3.308 0 0 0 3.164 3.5 2.747 2.747 0 0 0 2.184-1.024Zm-4.326-3.416a2.428 2.428 0 0 1 2.38-2.6 2.462 2.462 0 0 1 1.932.91v3.4a2.36 2.36 0 0 1-1.932.91 2.44 2.44 0 0 1-2.38-2.62Zm7.07 0a3.418 3.418 0 0 0 3.386 3.542 3.935 3.935 0 0 0 2.562-.91l-.644-.7a2.792 2.792 0 0 1-1.876.7 2.459 2.459 0 0 1-2.422-2.422h5.362v-.294a3.236 3.236 0 0 0-3.136-3.444 3.336 3.336 0 0 0-3.232 3.528Zm3.22-2.632a2.25 2.25 0 0 1 2.128 2.128h-4.312a2.258 2.258 0 0 1 2.184-2.128Zm4.83 6.048h1.022v-4.676a1.921 1.921 0 0 1 1.834-1.386 2.422 2.422 0 0 1 .714.126v-.924a2.01 2.01 0 0 0-.644-.1 2.031 2.031 0 0 0-1.9 1.484v-1.356h-1.026ZM584 980h1v43h-1Z" class="tabs-style_svg__e"/>
    <circle cx="3.5" cy="3.5" r="3.5" class="tabs-style_svg__e" transform="translate(581 976)"/>
    <path d="M437.218 1037h1.082v-9.8h-1.082Zm3.318 0h1.022v-5.04a2.03 2.03 0 0 1 1.792-1.05 1.771 1.771 0 0 1 1.834 1.96v4.13h1.022v-4.424a2.382 2.382 0 0 0-2.464-2.52 2.462 2.462 0 0 0-2.184 1.232v-1.12h-1.022Zm9.814.126a2.906 2.906 0 0 0 2.17-.91v.784h1.008v-4.536c0-1.582-.98-2.408-2.646-2.408a5.722 5.722 0 0 0-2.576.658l.394.786a4.407 4.407 0 0 1 2.058-.588c1.148 0 1.764.546 1.764 1.694v.924a4.1 4.1 0 0 0-2.072-.518c-1.484 0-2.562.756-2.562 2.016a2.2 2.2 0 0 0 2.462 2.098Zm-1.484-2.114c0-.8.728-1.274 1.722-1.274a3.545 3.545 0 0 1 1.932.5v1.316a2.726 2.726 0 0 1-1.96.784c-.994.004-1.694-.528-1.694-1.326Zm9.8 1.19a2.465 2.465 0 0 1-2.38-2.618 2.478 2.478 0 0 1 2.38-2.6 2.61 2.61 0 0 1 1.876.854l.658-.718a3.628 3.628 0 0 0-2.548-1.064 3.423 3.423 0 0 0-3.388 3.528 3.435 3.435 0 0 0 3.388 3.542 3.461 3.461 0 0 0 2.506-1.106l-.63-.63a2.442 2.442 0 0 1-1.862.81Zm4.97-.742c0 1.064.6 1.666 1.792 1.666a4.124 4.124 0 0 0 1.2-.182v-.91a2.521 2.521 0 0 1-.966.182c-.728 0-1.008-.294-1.008-1.022v-4.186h1.974v-.84h-1.97v-1.974l-1.022.238v1.736h-1.414v.84h1.414Zm4.942-7.014a.726.726 0 0 0 .728-.742.723.723 0 0 0-.728-.728.723.723 0 0 0-.728.728.726.726 0 0 0 .728.742Zm.5 1.722h-1.018V1037h1.022Zm4.092 6.832h.966l2.814-6.832h-1.092l-2.184 5.544-2.184-5.544h-1.134Zm4.48-3.416a3.418 3.418 0 0 0 3.388 3.542 3.935 3.935 0 0 0 2.562-.91l-.644-.7a2.792 2.792 0 0 1-1.876.7 2.459 2.459 0 0 1-2.422-2.422h5.362v-.294a3.236 3.236 0 0 0-3.136-3.444 3.336 3.336 0 0 0-3.234 3.528Zm3.22-2.632a2.25 2.25 0 0 1 2.13 2.128h-4.314a2.258 2.258 0 0 1 2.184-2.128Zm8.918 4.508c0 1.064.6 1.666 1.792 1.666a4.124 4.124 0 0 0 1.2-.182v-.91a2.521 2.521 0 0 1-.966.182c-.728 0-1.008-.294-1.008-1.022v-4.186h1.974v-.84h-1.97v-1.974l-1.022.238v1.736h-1.414v.84h1.414Zm6.552 1.666a2.906 2.906 0 0 0 2.17-.91v.784h1.008v-4.536c0-1.582-.98-2.408-2.646-2.408a5.722 5.722 0 0 0-2.576.658l.392.784a4.407 4.407 0 0 1 2.058-.588c1.148 0 1.764.546 1.764 1.694v.924a4.1 4.1 0 0 0-2.072-.518c-1.484 0-2.562.756-2.562 2.016a2.2 2.2 0 0 0 2.464 2.1Zm-1.484-2.114c0-.8.728-1.274 1.722-1.274a3.545 3.545 0 0 1 1.932.5v1.316a2.726 2.726 0 0 1-1.96.784c-.994.004-1.694-.528-1.694-1.326Zm13.076-1.428a3.308 3.308 0 0 0-3.164-3.5 2.705 2.705 0 0 0-2.2 1.036v-4.13l-1.022.21v9.8h1.008v-.9a2.7 2.7 0 0 0 2.158 1 3.329 3.329 0 0 0 3.22-3.516Zm-3.416-2.6a2.451 2.451 0 0 1 2.394 2.616 2.443 2.443 0 0 1-2.394 2.616 2.421 2.421 0 0 1-1.946-.952v-3.346a2.352 2.352 0 0 1 1.946-.938ZM472 980h1v43h-1Z" class="tabs-style_svg__e"/>
    <circle cx="3.5" cy="3.5" r="3.5" class="tabs-style_svg__e" transform="translate(469 976)"/>
    <path d="M424 833h708v1H424Z" class="tabs-style_svg__a"/>
    <path d="M1045.448 810.16a6.318 6.318 0 0 0 4.576 2c2.752 0 4.276-1.584 4.276-3.376 0-1.648-.96-2.576-3.408-3.008l-1.792-.304c-1.38-.24-2.116-.672-2.116-1.772 0-1.392 1.344-2 2.672-2a5.937 5.937 0 0 1 3.728 1.36l.72-.928a7.091 7.091 0 0 0-4.416-1.472c-2.048-.004-3.888 1.02-3.888 3.132 0 1.584.944 2.432 2.96 2.784l1.808.3c1.808.32 2.5.848 2.5 1.968-.004 1.256-1.156 2.256-2.996 2.256a5.393 5.393 0 0 1-3.856-1.8Zm10.496-2.06a3.907 3.907 0 0 0 3.872 4.044 4.5 4.5 0 0 0 2.928-1.044l-.736-.8a3.191 3.191 0 0 1-2.144.8 2.81 2.81 0 0 1-2.764-2.764h6.128V808a3.7 3.7 0 0 0-3.588-3.936 3.812 3.812 0 0 0-3.696 4.036Zm3.68-3.008a2.572 2.572 0 0 1 2.432 2.428h-4.928a2.581 2.581 0 0 1 2.496-2.432Zm9.088 6a2.817 2.817 0 0 1-2.72-2.992 2.832 2.832 0 0 1 2.72-2.976 2.983 2.983 0 0 1 2.144.976l.752-.816a4.146 4.146 0 0 0-2.908-1.22 3.912 3.912 0 0 0-3.876 4.036 3.926 3.926 0 0 0 3.876 4.044 3.955 3.955 0 0 0 2.86-1.264l-.72-.72a2.791 2.791 0 0 1-2.128.928Zm5.68-.848c0 1.216.688 1.9 2.048 1.9a4.713 4.713 0 0 0 1.376-.208V810.9a2.881 2.881 0 0 1-1.1.208c-.832 0-1.152-.336-1.152-1.168v-4.788h2.256v-.96h-2.26v-2.256l-1.168.272v1.984h-1.616v.96h1.616Zm5.648-8.02a.83.83 0 0 0 .832-.848.826.826 0 0 0-.832-.832.826.826 0 0 0-.832.832.83.83 0 0 0 .832.848Zm.576 1.968h-1.168V812h1.168Zm1.984 3.908a3.867 3.867 0 0 0 3.792 4.06 3.873 3.873 0 0 0 3.824-4.06 3.845 3.845 0 0 0-3.824-4.032 3.839 3.839 0 0 0-3.792 4.032Zm6.448.016a2.756 2.756 0 0 1-2.656 3.004 2.742 2.742 0 0 1-2.624-3.008 2.767 2.767 0 0 1 2.624-3.024 2.771 2.771 0 0 1 2.656 3.024Zm3.136 3.884h1.168v-5.76a2.32 2.32 0 0 1 2.048-1.2 2.023 2.023 0 0 1 2.1 2.24V812h1.168v-5.056a2.722 2.722 0 0 0-2.816-2.88 2.813 2.813 0 0 0-2.5 1.408v-1.28h-1.168Zm12.464-5.6.8.256a5.424 5.424 0 0 1 2.448-.64 2.5 2.5 0 0 1 2.804 2.484 2.583 2.583 0 0 1-2.756 2.668 4.17 4.17 0 0 1-3.088-1.312l-.72.784a5.33 5.33 0 0 0 3.808 1.52 3.619 3.619 0 0 0 3.92-3.712c0-1.9-1.344-3.392-3.76-3.36a5.536 5.536 0 0 0-2.4.592l.176-3.872h5.392V800.8h-6.372Zm-192.2 3.76a6.318 6.318 0 0 0 4.576 2c2.752 0 4.276-1.584 4.276-3.376 0-1.648-.96-2.576-3.408-3.008l-1.792-.304c-1.38-.24-2.116-.672-2.116-1.772 0-1.392 1.344-2 2.672-2a5.937 5.937 0 0 1 3.728 1.36l.72-.928a7.091 7.091 0 0 0-4.416-1.472c-2.048-.004-3.888 1.02-3.888 3.132 0 1.584.944 2.432 2.96 2.784l1.808.3c1.808.32 2.5.848 2.5 1.968-.004 1.256-1.156 2.256-2.996 2.256a5.393 5.393 0 0 1-3.856-1.8Zm10.496-2.06a3.907 3.907 0 0 0 3.872 4.044 4.5 4.5 0 0 0 2.928-1.044l-.736-.8a3.191 3.191 0 0 1-2.144.8 2.81 2.81 0 0 1-2.764-2.764h6.128V808a3.7 3.7 0 0 0-3.588-3.936 3.812 3.812 0 0 0-3.696 4.036Zm3.68-3.008a2.572 2.572 0 0 1 2.432 2.428h-4.928a2.581 2.581 0 0 1 2.496-2.432Zm9.088 6a2.817 2.817 0 0 1-2.72-2.992 2.832 2.832 0 0 1 2.72-2.976 2.983 2.983 0 0 1 2.144.976l.752-.816a4.146 4.146 0 0 0-2.908-1.22 3.912 3.912 0 0 0-3.876 4.036 3.926 3.926 0 0 0 3.876 4.044 3.955 3.955 0 0 0 2.86-1.264l-.72-.72a2.791 2.791 0 0 1-2.128.928Zm5.68-.848c0 1.216.688 1.9 2.048 1.9a4.713 4.713 0 0 0 1.376-.208V810.9a2.881 2.881 0 0 1-1.1.208c-.832 0-1.152-.336-1.152-1.168v-4.788h2.256v-.96h-2.26v-2.256l-1.168.272v1.984h-1.616v.96h1.616Zm5.648-8.02a.83.83 0 0 0 .832-.848.826.826 0 0 0-.832-.832.826.826 0 0 0-.832.832.83.83 0 0 0 .832.848Zm.576 1.968h-1.168V812h1.168Zm1.984 3.908a3.867 3.867 0 0 0 3.792 4.06 3.873 3.873 0 0 0 3.824-4.06 3.845 3.845 0 0 0-3.824-4.032 3.839 3.839 0 0 0-3.792 4.032Zm6.448.016a2.756 2.756 0 0 1-2.656 3.004 2.742 2.742 0 0 1-2.624-3.008 2.767 2.767 0 0 1 2.624-3.024 2.771 2.771 0 0 1 2.656 3.024Zm3.136 3.884h1.168v-5.76a2.32 2.32 0 0 1 2.048-1.2 2.023 2.023 0 0 1 2.1 2.24V812h1.168v-5.056a2.722 2.722 0 0 0-2.816-2.88 2.813 2.813 0 0 0-2.5 1.408v-1.28h-1.168Zm19.168-11.2h-1.232l-5.952 7.3v.912h6.048V812h1.136v-2.992h1.548V808h-1.548Zm-5.824 7.2 4.688-5.792V808ZM748 831h132v3H748Zm32.448-20.84a6.318 6.318 0 0 0 4.576 2c2.752 0 4.276-1.584 4.276-3.376 0-1.648-.96-2.576-3.408-3.008l-1.792-.304c-1.38-.24-2.116-.672-2.116-1.772 0-1.392 1.344-2 2.672-2a5.937 5.937 0 0 1 3.728 1.36l.72-.928a7.091 7.091 0 0 0-4.416-1.472c-2.048-.004-3.888 1.02-3.888 3.132 0 1.584.944 2.432 2.96 2.784l1.808.3c1.808.32 2.5.848 2.5 1.968-.004 1.256-1.156 2.256-2.996 2.256a5.393 5.393 0 0 1-3.856-1.8Zm10.496-2.06a3.907 3.907 0 0 0 3.872 4.044 4.5 4.5 0 0 0 2.928-1.044l-.736-.8a3.191 3.191 0 0 1-2.144.8 2.81 2.81 0 0 1-2.764-2.764h6.128V808a3.7 3.7 0 0 0-3.588-3.936 3.812 3.812 0 0 0-3.696 4.036Zm3.68-3.008a2.572 2.572 0 0 1 2.432 2.428h-4.928a2.581 2.581 0 0 1 2.496-2.432Zm9.088 6a2.817 2.817 0 0 1-2.72-2.992 2.832 2.832 0 0 1 2.72-2.976 2.983 2.983 0 0 1 2.144.976l.752-.816a4.146 4.146 0 0 0-2.908-1.22 3.912 3.912 0 0 0-3.876 4.036 3.926 3.926 0 0 0 3.876 4.044 3.955 3.955 0 0 0 2.86-1.264l-.72-.72a2.791 2.791 0 0 1-2.128.928Zm5.68-.848c0 1.216.688 1.9 2.048 1.9a4.713 4.713 0 0 0 1.376-.208V810.9a2.881 2.881 0 0 1-1.1.208c-.832 0-1.152-.336-1.152-1.168v-4.788h2.256v-.96h-2.26v-2.256l-1.168.272v1.984h-1.616v.96h1.616Zm5.648-8.02a.83.83 0 0 0 .832-.848.826.826 0 0 0-.832-.832.826.826 0 0 0-.832.832.83.83 0 0 0 .832.848Zm.576 1.968h-1.168V812h1.168Zm1.984 3.908a3.867 3.867 0 0 0 3.792 4.06 3.873 3.873 0 0 0 3.824-4.06 3.845 3.845 0 0 0-3.824-4.032 3.839 3.839 0 0 0-3.792 4.032Zm6.448.016a2.756 2.756 0 0 1-2.656 3.004 2.742 2.742 0 0 1-2.624-3.008 2.767 2.767 0 0 1 2.624-3.024 2.771 2.771 0 0 1 2.656 3.024Zm3.136 3.884h1.168v-5.76a2.32 2.32 0 0 1 2.048-1.2 2.023 2.023 0 0 1 2.1 2.24V812h1.168v-5.056a2.722 2.722 0 0 0-2.816-2.88 2.813 2.813 0 0 0-2.5 1.408v-1.28h-1.168Zm19.776-3.072a2.879 2.879 0 0 0-2.512-2.688 2.7 2.7 0 0 0 2.1-2.544c0-1.744-1.52-3.072-3.568-3.072a4.969 4.969 0 0 0-3.716 1.616l.768.768a3.746 3.746 0 0 1 2.928-1.36 2.257 2.257 0 0 1 2.432 2.112 1.932 1.932 0 0 1-2.048 2.016h-1.28v.992h1.328a2.216 2.216 0 0 1 2.416 2.132c0 1.328-1.136 2.256-2.784 2.256a4.089 4.089 0 0 1-3.136-1.328l-.768.752a5.4 5.4 0 0 0 3.92 1.58c2.272 0 3.92-1.36 3.92-3.232Zm-198.512 1.232a6.318 6.318 0 0 0 4.576 2c2.752 0 4.276-1.584 4.276-3.376 0-1.648-.96-2.576-3.408-3.008l-1.792-.304c-1.38-.24-2.116-.672-2.116-1.772 0-1.392 1.344-2 2.672-2a5.937 5.937 0 0 1 3.728 1.36l.72-.928a7.091 7.091 0 0 0-4.416-1.472c-2.048-.004-3.888 1.02-3.888 3.132 0 1.584.944 2.432 2.96 2.784l1.808.3c1.808.32 2.5.848 2.5 1.968-.004 1.256-1.156 2.256-2.996 2.256a5.393 5.393 0 0 1-3.856-1.8Zm10.496-2.06a3.907 3.907 0 0 0 3.872 4.044 4.5 4.5 0 0 0 2.928-1.044l-.736-.8a3.191 3.191 0 0 1-2.144.8 2.81 2.81 0 0 1-2.764-2.764h6.128V808a3.7 3.7 0 0 0-3.588-3.936 3.812 3.812 0 0 0-3.696 4.036Zm3.68-3.008a2.572 2.572 0 0 1 2.432 2.428h-4.928a2.581 2.581 0 0 1 2.496-2.432Zm9.088 6a2.817 2.817 0 0 1-2.72-2.992 2.832 2.832 0 0 1 2.72-2.976 2.983 2.983 0 0 1 2.144.976l.752-.816a4.146 4.146 0 0 0-2.908-1.22 3.912 3.912 0 0 0-3.876 4.036 3.926 3.926 0 0 0 3.876 4.044 3.955 3.955 0 0 0 2.86-1.264l-.72-.72a2.791 2.791 0 0 1-2.128.928Zm5.68-.848c0 1.216.688 1.9 2.048 1.9a4.713 4.713 0 0 0 1.376-.208V810.9a2.881 2.881 0 0 1-1.1.208c-.832 0-1.152-.336-1.152-1.168v-4.788h2.256v-.96h-2.26v-2.256l-1.168.272v1.984h-1.616v.96h1.616Zm5.648-8.02a.83.83 0 0 0 .832-.848.826.826 0 0 0-.832-.832.826.826 0 0 0-.832.832.83.83 0 0 0 .832.848Zm.576 1.968h-1.168V812h1.168Zm1.984 3.908a3.867 3.867 0 0 0 3.792 4.06 3.873 3.873 0 0 0 3.824-4.06 3.845 3.845 0 0 0-3.824-4.032 3.839 3.839 0 0 0-3.792 4.032Zm6.448.016a2.756 2.756 0 0 1-2.656 3.004 2.742 2.742 0 0 1-2.624-3.008 2.767 2.767 0 0 1 2.624-3.024 2.771 2.771 0 0 1 2.656 3.024Zm3.136 3.884h1.168v-5.76a2.32 2.32 0 0 1 2.048-1.2 2.023 2.023 0 0 1 2.1 2.24V812h1.168v-5.056a2.722 2.722 0 0 0-2.816-2.88 2.813 2.813 0 0 0-2.5 1.408v-1.28h-1.168Zm12.16 0h7.216v-1.008h-5.744l3.76-4.16c1.2-1.332 1.744-2.032 1.744-3.264 0-1.68-1.44-2.912-3.472-2.912a5.271 5.271 0 0 0-3.648 1.584l.672.8a4.114 4.114 0 0 1 2.96-1.36 2.106 2.106 0 0 1 2.352 1.952c0 .848-.384 1.44-1.392 2.576l-4.448 4.944Zm-186.896-1.84a6.318 6.318 0 0 0 4.576 2c2.752 0 4.276-1.584 4.276-3.376 0-1.648-.96-2.576-3.408-3.008l-1.792-.304c-1.38-.24-2.116-.672-2.116-1.772 0-1.392 1.344-2 2.672-2a5.937 5.937 0 0 1 3.728 1.36l.72-.928a7.091 7.091 0 0 0-4.416-1.472c-2.048-.004-3.888 1.02-3.888 3.132 0 1.584.944 2.432 2.96 2.784l1.808.3c1.808.32 2.5.848 2.5 1.968-.004 1.256-1.156 2.256-2.996 2.256a5.393 5.393 0 0 1-3.856-1.8Zm10.496-2.06a3.907 3.907 0 0 0 3.872 4.044 4.5 4.5 0 0 0 2.928-1.044l-.736-.8a3.191 3.191 0 0 1-2.144.8 2.81 2.81 0 0 1-2.764-2.764h6.128V808a3.7 3.7 0 0 0-3.588-3.936 3.812 3.812 0 0 0-3.696 4.036Zm3.68-3.008a2.572 2.572 0 0 1 2.432 2.428h-4.928a2.581 2.581 0 0 1 2.496-2.432Zm9.088 6a2.817 2.817 0 0 1-2.72-2.992 2.832 2.832 0 0 1 2.72-2.976 2.983 2.983 0 0 1 2.144.976l.752-.816a4.146 4.146 0 0 0-2.908-1.22 3.912 3.912 0 0 0-3.876 4.036 3.926 3.926 0 0 0 3.876 4.044 3.955 3.955 0 0 0 2.86-1.264l-.72-.72a2.791 2.791 0 0 1-2.128.928Zm5.68-.848c0 1.216.688 1.9 2.048 1.9a4.713 4.713 0 0 0 1.376-.208V810.9a2.881 2.881 0 0 1-1.1.208c-.832 0-1.152-.336-1.152-1.168v-4.788h2.256v-.96h-2.26v-2.256l-1.168.272v1.984h-1.616v.96h1.616Zm5.648-8.02a.83.83 0 0 0 .832-.848.826.826 0 0 0-.832-.832.826.826 0 0 0-.832.832.83.83 0 0 0 .832.848Zm.576 1.968h-1.168V812h1.168Zm1.984 3.908a3.867 3.867 0 0 0 3.792 4.06 3.873 3.873 0 0 0 3.824-4.06 3.845 3.845 0 0 0-3.824-4.032 3.839 3.839 0 0 0-3.792 4.032Zm6.448.016a2.756 2.756 0 0 1-2.656 3.004 2.742 2.742 0 0 1-2.624-3.008 2.767 2.767 0 0 1 2.624-3.024 2.771 2.771 0 0 1 2.656 3.024Zm3.136 3.884h1.168v-5.76a2.32 2.32 0 0 1 2.048-1.2 2.023 2.023 0 0 1 2.1 2.24V812h1.168v-5.056a2.722 2.722 0 0 0-2.816-2.88 2.813 2.813 0 0 0-2.5 1.408v-1.28h-1.168Zm14.96-11.2h-.72l-2.224.992v1.056l1.792-.8V812h1.152Z" class="tabs-style_svg__c"/>
    <path d="M1076 777h56v56h-56Z" class="tabs-style_svg__d"/>
    <path d="m1108.9 805.9-6.8 6.8" class="tabs-style_svg__c"/>
    <path d="M1076 777h1v56h-1Z" class="tabs-style_svg__a"/>
    <path d="M424 777h56v56h-56Z" class="tabs-style_svg__d"/>
    <path d="M479 777h1v56h-1Zm-31.7 28.9 6.8 6.8" class="tabs-style_svg__a"/>
    <path d="M1040.309 864h1.12l1.176-3.08h4.352l1.164 3.08h1.176l-3.822-9.8h-1.288Zm2.66-4 1.82-4.76 1.82 4.76Zm10.332 3.2a2.465 2.465 0 0 1-2.38-2.618 2.478 2.478 0 0 1 2.38-2.6 2.61 2.61 0 0 1 1.876.854l.658-.714a3.628 3.628 0 0 0-2.548-1.066 3.423 3.423 0 0 0-3.388 3.528 3.435 3.435 0 0 0 3.388 3.542 3.461 3.461 0 0 0 2.506-1.106l-.63-.63a2.442 2.442 0 0 1-1.862.81Zm4.97-.742c0 1.064.6 1.666 1.792 1.666a4.124 4.124 0 0 0 1.2-.182v-.91a2.521 2.521 0 0 1-.966.182c-.728 0-1.008-.294-1.008-1.022v-4.184h1.978v-.84h-1.974v-1.974l-1.022.238v1.736h-1.414v.84h1.414Zm4.942-7.014a.726.726 0 0 0 .728-.742.723.723 0 0 0-.728-.728.723.723 0 0 0-.728.728.726.726 0 0 0 .728.744Zm.5 1.722h-1.018V864h1.022Zm4.092 6.834h.966l2.814-6.832h-1.092l-2.184 5.544-2.184-5.544h-1.134Zm4.48-3.416a3.418 3.418 0 0 0 3.388 3.542 3.935 3.935 0 0 0 2.562-.91l-.644-.7a2.792 2.792 0 0 1-1.876.7 2.459 2.459 0 0 1-2.422-2.422h5.364v-.294a3.236 3.236 0 0 0-3.136-3.444 3.336 3.336 0 0 0-3.236 3.528Zm3.22-2.632a2.25 2.25 0 0 1 2.128 2.128h-4.312a2.258 2.258 0 0 1 2.184-2.128Zm7.8 2.632a3.384 3.384 0 0 0 3.316 3.556 3.389 3.389 0 0 0 3.346-3.556 3.365 3.365 0 0 0-3.346-3.528 3.359 3.359 0 0 0-3.318 3.528Zm5.642.014a2.412 2.412 0 0 1-2.326 2.632 2.4 2.4 0 0 1-2.3-2.632 2.421 2.421 0 0 1 2.3-2.646 2.424 2.424 0 0 1 2.324 2.648Zm4.52 3.402h.966l2.814-6.832h-1.09l-2.186 5.544-2.184-5.544h-1.13Zm4.48-3.416a3.418 3.418 0 0 0 3.388 3.542 3.935 3.935 0 0 0 2.562-.91l-.644-.7a2.792 2.792 0 0 1-1.876.7 2.459 2.459 0 0 1-2.42-2.422h5.36v-.294a3.236 3.236 0 0 0-3.136-3.444 3.336 3.336 0 0 0-3.234 3.528Zm3.22-2.632a2.25 2.25 0 0 1 2.128 2.128h-4.312a2.258 2.258 0 0 1 2.184-2.128Zm4.83 6.048h1.022v-4.676a1.921 1.921 0 0 1 1.838-1.386 2.422 2.422 0 0 1 .714.126v-.924a2.01 2.01 0 0 0-.644-.1 2.031 2.031 0 0 0-1.9 1.484v-1.356h-1.03Zm4.41-6.832v.84h1.526V864h1.024v-5.992h1.96v-.84h-1.96V856.1c0-.826.364-1.19 1.12-1.19a2.5 2.5 0 0 1 .84.126v-.924a3.206 3.206 0 0 0-.924-.126 1.879 1.879 0 0 0-2.058 2.1v1.078Zm6.8-3.178-1.022.21v9.8h1.022Zm1.74 6.594a3.384 3.384 0 0 0 3.318 3.556 3.389 3.389 0 0 0 3.346-3.556 3.365 3.365 0 0 0-3.346-3.528 3.359 3.359 0 0 0-3.318 3.528Zm5.642.014a2.412 2.412 0 0 1-2.324 2.632 2.4 2.4 0 0 1-2.3-2.632 2.421 2.421 0 0 1 2.3-2.646 2.424 2.424 0 0 1 2.324 2.648Zm4.858 3.402 1.624-5.516 1.624 5.516h.994l1.876-6.832h-.98l-1.414 5.46-1.638-5.46h-.91l-1.624 5.474-1.428-5.474h-1.008l1.876 6.832Zm-79.737 20.048a3.788 3.788 0 0 0 2.786 1.078c1.54 0 2.66-.952 2.65-2.114.014-1.036-.644-1.6-1.988-1.834l-1.134-.21c-.84-.154-1.19-.392-1.19-.98 0-.672.63-1.092 1.484-1.092a3.45 3.45 0 0 1 2.114.77l.546-.7a4.251 4.251 0 0 0-2.618-.91c-1.442 0-2.464.84-2.464 2 0 1.022.658 1.568 1.932 1.792l1.134.2c.854.154 1.218.448 1.218 1.022-.004.67-.62 1.23-1.726 1.23a3.059 3.059 0 0 1-2.156-.9Zm10.094.152a2.465 2.465 0 0 1-2.38-2.618 2.478 2.478 0 0 1 2.38-2.6 2.61 2.61 0 0 1 1.876.854l.658-.714a3.628 3.628 0 0 0-2.548-1.064 3.423 3.423 0 0 0-3.388 3.526 3.435 3.435 0 0 0 3.388 3.542 3.461 3.461 0 0 0 2.506-1.106l-.63-.63a2.442 2.442 0 0 1-1.862.81Zm4 .8h1.022v-4.676a1.921 1.921 0 0 1 1.834-1.386 2.422 2.422 0 0 1 .714.126v-.924a2.01 2.01 0 0 0-.644-.1 2.031 2.031 0 0 0-1.9 1.484v-1.356h-1.022Zm4.116-3.416a3.384 3.384 0 0 0 3.326 3.556 3.389 3.389 0 0 0 3.346-3.556 3.365 3.365 0 0 0-3.346-3.528 3.359 3.359 0 0 0-3.322 3.528Zm5.646.016a2.412 2.412 0 0 1-2.32 2.63 2.4 2.4 0 0 1-2.3-2.63 2.421 2.421 0 0 1 2.3-2.646 2.424 2.424 0 0 1 2.32 2.646Zm3.766-6.608-1.022.21V885h1.022Zm3.052 0-1.022.21V885h1.022Zm11.676 6.592a3.308 3.308 0 0 0-3.164-3.5 2.705 2.705 0 0 0-2.2 1.036v-4.13l-1.02.21v9.8h1.008v-.9a2.7 2.7 0 0 0 2.156 1 3.329 3.329 0 0 0 3.22-3.516Zm-3.414-2.604a2.451 2.451 0 0 1 2.392 2.62 2.443 2.443 0 0 1-2.392 2.616 2.421 2.421 0 0 1-1.946-.952v-3.346a2.352 2.352 0 0 1 1.946-.938Zm6.16-.812h-1.024v4.424a2.382 2.382 0 0 0 2.464 2.52 2.462 2.462 0 0 0 2.184-1.232V885h1.022v-6.832h-1.022v5.04a2.03 2.03 0 0 1-1.792 1.05 1.771 1.771 0 0 1-1.834-1.958Zm7.49 5.292c0 1.064.6 1.666 1.792 1.666a4.124 4.124 0 0 0 1.2-.182v-.91a2.521 2.521 0 0 1-.966.182c-.728 0-1.008-.294-1.008-1.022v-4.186h1.974v-.84h-1.972v-1.974l-1.022.238v1.736h-1.414v.84h1.414Zm5.39 0c0 1.064.6 1.666 1.792 1.666a4.124 4.124 0 0 0 1.2-.182v-.91a2.521 2.521 0 0 1-.966.182c-.728 0-1.008-.294-1.008-1.022v-4.186h1.974v-.84h-1.972v-1.974l-1.022.238v1.736h-1.414v.84h1.414Zm3.906-1.876a3.384 3.384 0 0 0 3.316 3.556 3.389 3.389 0 0 0 3.346-3.556 3.365 3.365 0 0 0-3.346-3.528 3.359 3.359 0 0 0-3.318 3.528Zm5.642.014a2.412 2.412 0 0 1-2.326 2.632 2.4 2.4 0 0 1-2.3-2.632 2.421 2.421 0 0 1 2.3-2.646 2.424 2.424 0 0 1 2.324 2.648Zm2.742 3.402h1.022v-5.04a2.03 2.03 0 0 1 1.792-1.05 1.771 1.771 0 0 1 1.834 1.96V885h1.022v-4.424a2.382 2.382 0 0 0-2.464-2.52 2.462 2.462 0 0 0-2.184 1.232v-1.12h-1.022ZM1088 806h1v44h-1Z" class="tabs-style_svg__e"/>
    <circle cx="3.5" cy="3.5" r="3.5" class="tabs-style_svg__e" transform="translate(1085 802)"/>
    <path d="M415.564 864h1.082v-9.8h-1.082Zm3.318 0h1.022v-5.04a2.03 2.03 0 0 1 1.792-1.05 1.771 1.771 0 0 1 1.834 1.96V864h1.022v-4.424a2.382 2.382 0 0 0-2.464-2.52 2.462 2.462 0 0 0-2.184 1.232v-1.12h-1.022Zm9.814.126a2.906 2.906 0 0 0 2.17-.91V864h1.008v-4.536c0-1.582-.98-2.408-2.646-2.408a5.722 5.722 0 0 0-2.576.658l.394.786a4.407 4.407 0 0 1 2.058-.588c1.148 0 1.764.546 1.764 1.694v.924a4.1 4.1 0 0 0-2.072-.518c-1.484 0-2.562.756-2.562 2.016a2.2 2.2 0 0 0 2.462 2.098Zm-1.484-2.114c0-.8.728-1.274 1.722-1.274a3.545 3.545 0 0 1 1.932.5v1.316a2.726 2.726 0 0 1-1.96.784c-.994.004-1.694-.528-1.694-1.326Zm9.8 1.19a2.465 2.465 0 0 1-2.38-2.618 2.478 2.478 0 0 1 2.38-2.6 2.61 2.61 0 0 1 1.876.854l.658-.718a3.628 3.628 0 0 0-2.548-1.064 3.423 3.423 0 0 0-3.388 3.528 3.435 3.435 0 0 0 3.388 3.542 3.461 3.461 0 0 0 2.506-1.106l-.63-.63a2.442 2.442 0 0 1-1.862.81Zm4.97-.742c0 1.064.6 1.666 1.792 1.666a4.124 4.124 0 0 0 1.2-.182v-.91a2.521 2.521 0 0 1-.966.182c-.728 0-1.008-.294-1.008-1.022v-4.186h1.974v-.84h-1.97v-1.974l-1.022.238v1.736h-1.414v.84h1.414Zm4.942-7.014a.726.726 0 0 0 .728-.742.723.723 0 0 0-.728-.728.723.723 0 0 0-.728.728.726.726 0 0 0 .728.742Zm.5 1.722h-1.018V864h1.022Zm4.092 6.832h.966l2.814-6.832h-1.092l-2.184 5.544-2.184-5.544h-1.134Zm4.48-3.416a3.418 3.418 0 0 0 3.388 3.542 3.935 3.935 0 0 0 2.562-.91l-.644-.7a2.792 2.792 0 0 1-1.876.7 2.459 2.459 0 0 1-2.422-2.422h5.362v-.294a3.236 3.236 0 0 0-3.136-3.444 3.336 3.336 0 0 0-3.234 3.528Zm3.22-2.632a2.25 2.25 0 0 1 2.13 2.128h-4.314a2.258 2.258 0 0 1 2.184-2.128Zm7.8 2.632a3.384 3.384 0 0 0 3.316 3.556 3.389 3.389 0 0 0 3.346-3.556 3.365 3.365 0 0 0-3.346-3.528 3.359 3.359 0 0 0-3.318 3.528Zm5.64.016a2.412 2.412 0 0 1-2.324 2.63 2.4 2.4 0 0 1-2.296-2.63 2.421 2.421 0 0 1 2.3-2.646 2.424 2.424 0 0 1 2.32 2.646Zm4.522 3.4h.968l2.814-6.832h-1.094l-2.184 5.544-2.184-5.544h-1.134Zm4.48-3.416a3.418 3.418 0 0 0 3.388 3.542 3.935 3.935 0 0 0 2.562-.91l-.644-.7a2.792 2.792 0 0 1-1.876.7 2.459 2.459 0 0 1-2.422-2.422h5.362v-.294a3.236 3.236 0 0 0-3.136-3.444 3.336 3.336 0 0 0-3.234 3.528Zm3.22-2.632a2.25 2.25 0 0 1 2.128 2.128h-4.312a2.258 2.258 0 0 1 2.184-2.128Zm4.83 6.048h1.022v-4.676a1.921 1.921 0 0 1 1.834-1.386 2.422 2.422 0 0 1 .714.126v-.924a2.01 2.01 0 0 0-.644-.1 2.031 2.031 0 0 0-1.9 1.484v-1.356h-1.026Zm4.41-6.832v.84h1.528V864h1.02v-5.992h1.96v-.84h-1.96V856.1c0-.826.364-1.19 1.12-1.19a2.5 2.5 0 0 1 .84.126v-.924a3.206 3.206 0 0 0-.924-.126 1.879 1.879 0 0 0-2.056 2.104v1.078Zm6.8-3.178-1.022.21v9.8h1.022Zm1.736 6.594a3.384 3.384 0 0 0 3.322 3.556 3.389 3.389 0 0 0 3.346-3.556 3.365 3.365 0 0 0-3.346-3.528 3.359 3.359 0 0 0-3.318 3.528Zm5.642.014a2.412 2.412 0 0 1-2.32 2.632 2.4 2.4 0 0 1-2.3-2.632 2.421 2.421 0 0 1 2.3-2.646 2.424 2.424 0 0 1 2.324 2.648Zm4.862 3.402 1.624-5.516 1.624 5.516h.994l1.876-6.832h-.98l-1.414 5.46-1.636-5.46h-.91l-1.626 5.474-1.428-5.474h-1.008l1.872 6.832Zm-84.448 20.048a3.788 3.788 0 0 0 2.786 1.078c1.54 0 2.66-.952 2.65-2.114.014-1.036-.644-1.6-1.988-1.834l-1.134-.21c-.84-.154-1.19-.392-1.19-.98 0-.672.63-1.092 1.484-1.092a3.45 3.45 0 0 1 2.114.77l.546-.7a4.251 4.251 0 0 0-2.618-.91c-1.442 0-2.464.84-2.464 2 0 1.022.658 1.568 1.932 1.792l1.134.2c.854.154 1.218.448 1.218 1.022-.004.67-.62 1.23-1.726 1.23a3.059 3.059 0 0 1-2.156-.9Zm10.094.152a2.465 2.465 0 0 1-2.38-2.618 2.478 2.478 0 0 1 2.38-2.6 2.61 2.61 0 0 1 1.876.854l.658-.714a3.628 3.628 0 0 0-2.548-1.064 3.423 3.423 0 0 0-3.388 3.526 3.435 3.435 0 0 0 3.388 3.542 3.461 3.461 0 0 0 2.506-1.106l-.63-.63a2.442 2.442 0 0 1-1.862.81Zm4 .8h1.022v-4.676a1.921 1.921 0 0 1 1.834-1.386 2.422 2.422 0 0 1 .714.126v-.924a2.01 2.01 0 0 0-.644-.1 2.031 2.031 0 0 0-1.9 1.484v-1.356h-1.022Zm4.116-3.416a3.384 3.384 0 0 0 3.326 3.556 3.389 3.389 0 0 0 3.346-3.556 3.365 3.365 0 0 0-3.346-3.528 3.359 3.359 0 0 0-3.322 3.528Zm5.646.016a2.412 2.412 0 0 1-2.32 2.63 2.4 2.4 0 0 1-2.3-2.63 2.421 2.421 0 0 1 2.3-2.646 2.424 2.424 0 0 1 2.32 2.646Zm3.766-6.608-1.022.21V885h1.022Zm3.052 0-1.022.21V885h1.022Zm11.676 6.592a3.308 3.308 0 0 0-3.164-3.5 2.705 2.705 0 0 0-2.2 1.036v-4.13l-1.02.21v9.8h1.008v-.9a2.7 2.7 0 0 0 2.156 1 3.329 3.329 0 0 0 3.22-3.516Zm-3.414-2.604a2.451 2.451 0 0 1 2.392 2.62 2.443 2.443 0 0 1-2.392 2.616 2.421 2.421 0 0 1-1.946-.952v-3.346a2.352 2.352 0 0 1 1.946-.938Zm6.16-.812h-1.024v4.424a2.382 2.382 0 0 0 2.464 2.52 2.462 2.462 0 0 0 2.184-1.232V885h1.022v-6.832h-1.022v5.04a2.03 2.03 0 0 1-1.792 1.05 1.771 1.771 0 0 1-1.834-1.958Zm7.49 5.292c0 1.064.6 1.666 1.792 1.666a4.124 4.124 0 0 0 1.2-.182v-.91a2.521 2.521 0 0 1-.966.182c-.728 0-1.008-.294-1.008-1.022v-4.186h1.974v-.84h-1.972v-1.974l-1.022.238v1.736h-1.414v.84h1.414Zm5.39 0c0 1.064.6 1.666 1.792 1.666a4.124 4.124 0 0 0 1.2-.182v-.91a2.521 2.521 0 0 1-.966.182c-.728 0-1.008-.294-1.008-1.022v-4.186h1.974v-.84h-1.972v-1.974l-1.022.238v1.736h-1.414v.84h1.414Zm3.906-1.876a3.384 3.384 0 0 0 3.316 3.556 3.389 3.389 0 0 0 3.346-3.556 3.365 3.365 0 0 0-3.346-3.528 3.359 3.359 0 0 0-3.318 3.528Zm5.642.014a2.412 2.412 0 0 1-2.326 2.632 2.4 2.4 0 0 1-2.3-2.632 2.421 2.421 0 0 1 2.3-2.646 2.424 2.424 0 0 1 2.324 2.648Zm2.742 3.402h1.022v-5.04a2.03 2.03 0 0 1 1.792-1.05 1.771 1.771 0 0 1 1.834 1.96V885h1.022v-4.424a2.382 2.382 0 0 0-2.464-2.52 2.462 2.462 0 0 0-2.184 1.232v-1.12h-1.022ZM467 806h1v44h-1Z" class="tabs-style_svg__e"/>
    <circle cx="3.5" cy="3.5" r="3.5" class="tabs-style_svg__e" transform="translate(464 802)"/>
    <path d="M424 678h872v1H424Z" class="tabs-style_svg__a"/>
    <path d="M1089.448 655.16a6.318 6.318 0 0 0 4.576 2c2.752 0 4.276-1.584 4.276-3.376 0-1.648-.96-2.576-3.408-3.008l-1.792-.304c-1.38-.24-2.116-.672-2.116-1.772 0-1.392 1.344-2 2.672-2a5.937 5.937 0 0 1 3.728 1.36l.72-.928a7.091 7.091 0 0 0-4.416-1.472c-2.048-.004-3.888 1.02-3.888 3.132 0 1.584.944 2.432 2.96 2.784l1.808.3c1.808.32 2.5.848 2.5 1.968-.004 1.256-1.156 2.256-2.996 2.256a5.393 5.393 0 0 1-3.856-1.8Zm10.496-2.06a3.907 3.907 0 0 0 3.872 4.044 4.5 4.5 0 0 0 2.928-1.044l-.736-.8a3.191 3.191 0 0 1-2.144.8 2.81 2.81 0 0 1-2.764-2.764h6.128V653a3.7 3.7 0 0 0-3.588-3.936 3.812 3.812 0 0 0-3.696 4.036Zm3.68-3.008a2.572 2.572 0 0 1 2.432 2.428h-4.928a2.581 2.581 0 0 1 2.496-2.432Zm9.088 6a2.817 2.817 0 0 1-2.72-2.992 2.832 2.832 0 0 1 2.72-2.976 2.983 2.983 0 0 1 2.144.976l.752-.816a4.146 4.146 0 0 0-2.908-1.22 3.912 3.912 0 0 0-3.876 4.036 3.926 3.926 0 0 0 3.876 4.044 3.955 3.955 0 0 0 2.86-1.264l-.72-.72a2.791 2.791 0 0 1-2.128.928Zm5.68-.848c0 1.216.688 1.9 2.048 1.9a4.713 4.713 0 0 0 1.376-.208V655.9a2.881 2.881 0 0 1-1.1.208c-.832 0-1.152-.336-1.152-1.168v-4.788h2.256v-.96h-2.26v-2.256l-1.168.272v1.984h-1.616v.96h1.616Zm5.648-8.02a.83.83 0 0 0 .832-.848.826.826 0 0 0-.832-.832.826.826 0 0 0-.832.832.83.83 0 0 0 .832.848Zm.576 1.968h-1.168V657h1.168Zm1.984 3.908a3.867 3.867 0 0 0 3.792 4.06 3.873 3.873 0 0 0 3.824-4.06 3.845 3.845 0 0 0-3.824-4.032 3.839 3.839 0 0 0-3.792 4.032Zm6.448.016a2.756 2.756 0 0 1-2.656 3.004 2.742 2.742 0 0 1-2.624-3.008 2.767 2.767 0 0 1 2.624-3.024 2.771 2.771 0 0 1 2.656 3.024Zm3.136 3.884h1.168v-5.76a2.32 2.32 0 0 1 2.048-1.2 2.023 2.023 0 0 1 2.1 2.24V657h1.168v-5.056a2.722 2.722 0 0 0-2.816-2.88 2.813 2.813 0 0 0-2.5 1.408v-1.28h-1.168Zm12.464-5.6.8.256a5.424 5.424 0 0 1 2.448-.64 2.5 2.5 0 0 1 2.804 2.484 2.583 2.583 0 0 1-2.756 2.668 4.17 4.17 0 0 1-3.088-1.312l-.72.784a5.33 5.33 0 0 0 3.808 1.52 3.619 3.619 0 0 0 3.92-3.712c0-1.9-1.344-3.392-3.76-3.36a5.536 5.536 0 0 0-2.4.592l.176-3.872h5.392V645.8h-6.372Zm-192.2 3.76a6.318 6.318 0 0 0 4.576 2c2.752 0 4.276-1.584 4.276-3.376 0-1.648-.96-2.576-3.408-3.008l-1.792-.304c-1.38-.24-2.116-.672-2.116-1.772 0-1.392 1.344-2 2.672-2a5.937 5.937 0 0 1 3.728 1.36l.72-.928a7.091 7.091 0 0 0-4.416-1.472c-2.048-.004-3.888 1.02-3.888 3.132 0 1.584.944 2.432 2.96 2.784l1.808.3c1.808.32 2.5.848 2.5 1.968-.004 1.256-1.156 2.256-2.996 2.256a5.393 5.393 0 0 1-3.856-1.8Zm10.496-2.06a3.907 3.907 0 0 0 3.872 4.044 4.5 4.5 0 0 0 2.928-1.044l-.736-.8a3.191 3.191 0 0 1-2.144.8 2.81 2.81 0 0 1-2.764-2.764h6.128V653a3.7 3.7 0 0 0-3.588-3.936 3.812 3.812 0 0 0-3.696 4.036Zm3.68-3.008a2.572 2.572 0 0 1 2.432 2.428h-4.928a2.581 2.581 0 0 1 2.496-2.432Zm9.088 6a2.817 2.817 0 0 1-2.72-2.992 2.832 2.832 0 0 1 2.72-2.976 2.983 2.983 0 0 1 2.144.976l.752-.816a4.146 4.146 0 0 0-2.908-1.22 3.912 3.912 0 0 0-3.876 4.036 3.926 3.926 0 0 0 3.876 4.044 3.955 3.955 0 0 0 2.86-1.264l-.72-.72a2.791 2.791 0 0 1-2.128.928Zm5.68-.848c0 1.216.688 1.9 2.048 1.9a4.713 4.713 0 0 0 1.376-.208V655.9a2.881 2.881 0 0 1-1.1.208c-.832 0-1.152-.336-1.152-1.168v-4.788h2.256v-.96h-2.26v-2.256l-1.168.272v1.984h-1.616v.96h1.616Zm5.648-8.02a.83.83 0 0 0 .832-.848.826.826 0 0 0-.832-.832.826.826 0 0 0-.832.832.83.83 0 0 0 .832.848Zm.576 1.968h-1.168V657h1.168Zm1.984 3.908a3.867 3.867 0 0 0 3.792 4.06 3.873 3.873 0 0 0 3.824-4.06 3.845 3.845 0 0 0-3.824-4.032 3.839 3.839 0 0 0-3.792 4.032Zm6.448.016a2.756 2.756 0 0 1-2.656 3.004 2.742 2.742 0 0 1-2.624-3.008 2.767 2.767 0 0 1 2.624-3.024 2.771 2.771 0 0 1 2.656 3.024Zm3.136 3.884h1.168v-5.76a2.32 2.32 0 0 1 2.048-1.2 2.023 2.023 0 0 1 2.1 2.24V657h1.168v-5.056a2.722 2.722 0 0 0-2.816-2.88 2.813 2.813 0 0 0-2.5 1.408v-1.28h-1.168Zm19.168-11.2h-1.232l-5.952 7.3v.912h6.048V657h1.136v-2.992h1.548V653h-1.548Zm-5.824 7.2 4.688-5.792V653ZM792 676h132v3H792Zm32.448-20.84a6.318 6.318 0 0 0 4.576 2c2.752 0 4.276-1.584 4.276-3.376 0-1.648-.96-2.576-3.408-3.008l-1.792-.304c-1.38-.24-2.116-.672-2.116-1.772 0-1.392 1.344-2 2.672-2a5.937 5.937 0 0 1 3.728 1.36l.72-.928a7.091 7.091 0 0 0-4.416-1.472c-2.048-.004-3.888 1.02-3.888 3.132 0 1.584.944 2.432 2.96 2.784l1.808.3c1.808.32 2.5.848 2.5 1.968-.004 1.256-1.156 2.256-2.996 2.256a5.393 5.393 0 0 1-3.856-1.8Zm10.496-2.06a3.907 3.907 0 0 0 3.872 4.044 4.5 4.5 0 0 0 2.928-1.044l-.736-.8a3.191 3.191 0 0 1-2.144.8 2.81 2.81 0 0 1-2.764-2.764h6.128V653a3.7 3.7 0 0 0-3.588-3.936 3.812 3.812 0 0 0-3.696 4.036Zm3.68-3.008a2.572 2.572 0 0 1 2.432 2.428h-4.928a2.581 2.581 0 0 1 2.496-2.432Zm9.088 6a2.817 2.817 0 0 1-2.72-2.992 2.832 2.832 0 0 1 2.72-2.976 2.983 2.983 0 0 1 2.144.976l.752-.816a4.146 4.146 0 0 0-2.908-1.22 3.912 3.912 0 0 0-3.876 4.036 3.926 3.926 0 0 0 3.876 4.044 3.955 3.955 0 0 0 2.86-1.264l-.72-.72a2.791 2.791 0 0 1-2.128.928Zm5.68-.848c0 1.216.688 1.9 2.048 1.9a4.713 4.713 0 0 0 1.376-.208V655.9a2.881 2.881 0 0 1-1.1.208c-.832 0-1.152-.336-1.152-1.168v-4.788h2.256v-.96h-2.26v-2.256l-1.168.272v1.984h-1.616v.96h1.616Zm5.648-8.02a.83.83 0 0 0 .832-.848.826.826 0 0 0-.832-.832.826.826 0 0 0-.832.832.83.83 0 0 0 .832.848Zm.576 1.968h-1.168V657h1.168Zm1.984 3.908a3.867 3.867 0 0 0 3.792 4.06 3.873 3.873 0 0 0 3.824-4.06 3.845 3.845 0 0 0-3.824-4.032 3.839 3.839 0 0 0-3.792 4.032Zm6.448.016a2.756 2.756 0 0 1-2.656 3.004 2.742 2.742 0 0 1-2.624-3.008 2.767 2.767 0 0 1 2.624-3.024 2.771 2.771 0 0 1 2.656 3.024Zm3.136 3.884h1.168v-5.76a2.32 2.32 0 0 1 2.048-1.2 2.023 2.023 0 0 1 2.1 2.24V657h1.168v-5.056a2.722 2.722 0 0 0-2.816-2.88 2.813 2.813 0 0 0-2.5 1.408v-1.28h-1.168Zm19.776-3.072a2.879 2.879 0 0 0-2.512-2.688 2.7 2.7 0 0 0 2.1-2.544c0-1.744-1.52-3.072-3.568-3.072a4.969 4.969 0 0 0-3.716 1.616l.768.768a3.746 3.746 0 0 1 2.928-1.36 2.257 2.257 0 0 1 2.432 2.112 1.932 1.932 0 0 1-2.048 2.016h-1.28v.992h1.328a2.216 2.216 0 0 1 2.416 2.132c0 1.328-1.136 2.256-2.784 2.256a4.089 4.089 0 0 1-3.136-1.328l-.768.752a5.4 5.4 0 0 0 3.92 1.58c2.272 0 3.92-1.36 3.92-3.232Zm-198.512 1.232a6.318 6.318 0 0 0 4.576 2c2.752 0 4.276-1.584 4.276-3.376 0-1.648-.96-2.576-3.408-3.008l-1.792-.304c-1.38-.24-2.116-.672-2.116-1.772 0-1.392 1.344-2 2.672-2a5.937 5.937 0 0 1 3.728 1.36l.72-.928a7.091 7.091 0 0 0-4.416-1.472c-2.048-.004-3.888 1.02-3.888 3.132 0 1.584.944 2.432 2.96 2.784l1.808.3c1.808.32 2.5.848 2.5 1.968-.004 1.256-1.156 2.256-2.996 2.256a5.393 5.393 0 0 1-3.856-1.8Zm10.496-2.06a3.907 3.907 0 0 0 3.872 4.044 4.5 4.5 0 0 0 2.928-1.044l-.736-.8a3.191 3.191 0 0 1-2.144.8 2.81 2.81 0 0 1-2.764-2.764h6.128V653a3.7 3.7 0 0 0-3.588-3.936 3.812 3.812 0 0 0-3.696 4.036Zm3.68-3.008a2.572 2.572 0 0 1 2.432 2.428h-4.928a2.581 2.581 0 0 1 2.496-2.432Zm9.088 6a2.817 2.817 0 0 1-2.72-2.992 2.832 2.832 0 0 1 2.72-2.976 2.983 2.983 0 0 1 2.144.976l.752-.816a4.146 4.146 0 0 0-2.908-1.22 3.912 3.912 0 0 0-3.876 4.036 3.926 3.926 0 0 0 3.876 4.044 3.955 3.955 0 0 0 2.86-1.264l-.72-.72a2.791 2.791 0 0 1-2.128.928Zm5.68-.848c0 1.216.688 1.9 2.048 1.9a4.713 4.713 0 0 0 1.376-.208V655.9a2.881 2.881 0 0 1-1.1.208c-.832 0-1.152-.336-1.152-1.168v-4.788h2.256v-.96h-2.26v-2.256l-1.168.272v1.984h-1.616v.96h1.616Zm5.648-8.02a.83.83 0 0 0 .832-.848.826.826 0 0 0-.832-.832.826.826 0 0 0-.832.832.83.83 0 0 0 .832.848Zm.576 1.968h-1.168V657h1.168Zm1.984 3.908a3.867 3.867 0 0 0 3.792 4.06 3.873 3.873 0 0 0 3.824-4.06 3.845 3.845 0 0 0-3.824-4.032 3.839 3.839 0 0 0-3.792 4.032Zm6.448.016a2.756 2.756 0 0 1-2.656 3.004 2.742 2.742 0 0 1-2.624-3.008 2.767 2.767 0 0 1 2.624-3.024 2.771 2.771 0 0 1 2.656 3.024Zm3.136 3.884h1.168v-5.76a2.32 2.32 0 0 1 2.048-1.2 2.023 2.023 0 0 1 2.1 2.24V657h1.168v-5.056a2.722 2.722 0 0 0-2.816-2.88 2.813 2.813 0 0 0-2.5 1.408v-1.28h-1.168Zm12.16 0h7.216v-1.008h-5.744l3.76-4.16c1.2-1.332 1.744-2.032 1.744-3.264 0-1.68-1.44-2.912-3.472-2.912a5.271 5.271 0 0 0-3.648 1.584l.672.8a4.114 4.114 0 0 1 2.96-1.36 2.106 2.106 0 0 1 2.352 1.952c0 .848-.384 1.44-1.392 2.576l-4.448 4.944Zm-186.896-1.84a6.318 6.318 0 0 0 4.576 2c2.752 0 4.276-1.584 4.276-3.376 0-1.648-.96-2.576-3.408-3.008l-1.792-.304c-1.38-.24-2.116-.672-2.116-1.772 0-1.392 1.344-2 2.672-2a5.937 5.937 0 0 1 3.728 1.36l.72-.928a7.091 7.091 0 0 0-4.416-1.472c-2.048-.004-3.888 1.02-3.888 3.132 0 1.584.944 2.432 2.96 2.784l1.808.3c1.808.32 2.5.848 2.5 1.968-.004 1.256-1.156 2.256-2.996 2.256a5.393 5.393 0 0 1-3.856-1.8Zm10.496-2.06a3.907 3.907 0 0 0 3.872 4.044 4.5 4.5 0 0 0 2.928-1.044l-.736-.8a3.191 3.191 0 0 1-2.144.8 2.81 2.81 0 0 1-2.764-2.764h6.128V653a3.7 3.7 0 0 0-3.588-3.936 3.812 3.812 0 0 0-3.696 4.036Zm3.68-3.008a2.572 2.572 0 0 1 2.432 2.428h-4.928a2.581 2.581 0 0 1 2.496-2.432Zm9.088 6a2.817 2.817 0 0 1-2.72-2.992 2.832 2.832 0 0 1 2.72-2.976 2.983 2.983 0 0 1 2.144.976l.752-.816a4.146 4.146 0 0 0-2.908-1.22 3.912 3.912 0 0 0-3.876 4.036 3.926 3.926 0 0 0 3.876 4.044 3.955 3.955 0 0 0 2.86-1.264l-.72-.72a2.791 2.791 0 0 1-2.128.928Zm5.68-.848c0 1.216.688 1.9 2.048 1.9a4.713 4.713 0 0 0 1.376-.208V655.9a2.881 2.881 0 0 1-1.1.208c-.832 0-1.152-.336-1.152-1.168v-4.788h2.256v-.96h-2.26v-2.256l-1.168.272v1.984h-1.616v.96h1.616Zm5.648-8.02a.83.83 0 0 0 .832-.848.826.826 0 0 0-.832-.832.826.826 0 0 0-.832.832.83.83 0 0 0 .832.848Zm.576 1.968h-1.168V657h1.168Zm1.984 3.908a3.867 3.867 0 0 0 3.792 4.06 3.873 3.873 0 0 0 3.824-4.06 3.845 3.845 0 0 0-3.824-4.032 3.839 3.839 0 0 0-3.792 4.032Zm6.448.016a2.756 2.756 0 0 1-2.656 3.004 2.742 2.742 0 0 1-2.624-3.008 2.767 2.767 0 0 1 2.624-3.024 2.771 2.771 0 0 1 2.656 3.024Zm3.136 3.884h1.168v-5.76a2.32 2.32 0 0 1 2.048-1.2 2.023 2.023 0 0 1 2.1 2.24V657h1.168v-5.056a2.722 2.722 0 0 0-2.816-2.88 2.813 2.813 0 0 0-2.5 1.408v-1.28h-1.168Zm14.96-11.2h-.72l-2.224.992v1.056l1.792-.8V657h1.152Z" class="tabs-style_svg__c"/>
    <path d="M1204.252 709h1.12l1.176-3.08h4.352l1.164 3.08h1.176l-3.822-9.8h-1.288Zm2.66-4 1.82-4.76 1.82 4.76Zm7.588 4h1.022v-5.04a2.03 2.03 0 0 1 1.792-1.05 1.771 1.771 0 0 1 1.834 1.96V709h1.022v-4.424a2.382 2.382 0 0 0-2.464-2.52 2.462 2.462 0 0 0-2.184 1.232v-1.12h-1.022Zm10.794-.8a2.465 2.465 0 0 1-2.38-2.618 2.478 2.478 0 0 1 2.38-2.6 2.61 2.61 0 0 1 1.876.854l.658-.714a3.628 3.628 0 0 0-2.548-1.066 3.423 3.423 0 0 0-3.388 3.528 3.435 3.435 0 0 0 3.388 3.542 3.461 3.461 0 0 0 2.506-1.106l-.63-.63a2.442 2.442 0 0 1-1.862.81Zm8.652.8h1.022v-4.424a2.382 2.382 0 0 0-2.468-2.52 2.462 2.462 0 0 0-2.18 1.232v-4.3l-1.02.212v9.8h1.02v-5.04a2.03 2.03 0 0 1 1.792-1.05 1.771 1.771 0 0 1 1.834 1.96Zm2.744-3.416a3.384 3.384 0 0 0 3.318 3.556 3.389 3.389 0 0 0 3.346-3.556 3.365 3.365 0 0 0-3.346-3.528 3.359 3.359 0 0 0-3.318 3.528Zm5.642.014a2.412 2.412 0 0 1-2.324 2.632 2.4 2.4 0 0 1-2.3-2.632 2.421 2.421 0 0 1 2.3-2.646 2.424 2.424 0 0 1 2.324 2.648Zm2.744 3.402h1.024v-4.676a1.921 1.921 0 0 1 1.834-1.386 2.422 2.422 0 0 1 .714.126v-.924a2.01 2.01 0 0 0-.644-.1 2.031 2.031 0 0 0-1.9 1.484v-1.356h-1.028Z" class="tabs-style_svg__e"/>
    <circle cx="3.5" cy="3.5" r="3.5" class="tabs-style_svg__e" transform="translate(1223 675)"/>
    <path d="M827.252 709h1.12l1.176-3.08h4.352l1.164 3.08h1.176l-3.822-9.8h-1.288Zm2.66-4 1.82-4.76 1.82 4.76Zm10.332 3.2a2.465 2.465 0 0 1-2.38-2.618 2.478 2.478 0 0 1 2.38-2.6 2.61 2.61 0 0 1 1.876.854l.658-.714a3.628 3.628 0 0 0-2.548-1.066 3.423 3.423 0 0 0-3.388 3.528 3.435 3.435 0 0 0 3.388 3.542 3.461 3.461 0 0 0 2.506-1.106l-.63-.63a2.442 2.442 0 0 1-1.862.81Zm4.97-.742c0 1.064.6 1.666 1.792 1.666a4.124 4.124 0 0 0 1.2-.182v-.91a2.521 2.521 0 0 1-.966.182c-.728 0-1.008-.294-1.008-1.022v-4.184h1.978v-.84h-1.974v-1.974l-1.022.238v1.736H843.8v.84h1.414Zm4.942-7.014a.726.726 0 0 0 .728-.742.723.723 0 0 0-.728-.728.723.723 0 0 0-.728.728.726.726 0 0 0 .728.744Zm.5 1.722h-1.018V709h1.022Zm4.092 6.834h.966l2.814-6.832h-1.092l-2.184 5.544-2.184-5.544h-1.134Zm4.48-3.416a3.418 3.418 0 0 0 3.388 3.542 3.935 3.935 0 0 0 2.562-.91l-.644-.7a2.792 2.792 0 0 1-1.876.7 2.459 2.459 0 0 1-2.422-2.422h5.364v-.294a3.236 3.236 0 0 0-3.136-3.444 3.336 3.336 0 0 0-3.236 3.528Zm3.22-2.632a2.25 2.25 0 0 1 2.128 2.128h-4.312a2.258 2.258 0 0 1 2.184-2.128Zm8.918 4.508c0 1.064.6 1.666 1.792 1.666a4.124 4.124 0 0 0 1.2-.182v-.91a2.521 2.521 0 0 1-.966.182c-.728 0-1.008-.294-1.008-1.022v-4.186h1.974v-.84h-1.97v-1.974l-1.022.238v1.736h-1.414v.84h1.414Zm6.552 1.666a2.906 2.906 0 0 0 2.17-.91V709h1.012v-4.536c0-1.582-.98-2.408-2.646-2.408a5.722 5.722 0 0 0-2.576.658l.392.784a4.407 4.407 0 0 1 2.058-.588c1.148 0 1.764.546 1.764 1.694v.924a4.1 4.1 0 0 0-2.072-.518c-1.484 0-2.562.756-2.562 2.016a2.2 2.2 0 0 0 2.46 2.1Zm-1.484-2.114c0-.8.728-1.274 1.722-1.274a3.545 3.545 0 0 1 1.932.5v1.316a2.726 2.726 0 0 1-1.96.784c-.994.004-1.694-.528-1.694-1.326Zm13.076-1.428a3.308 3.308 0 0 0-3.164-3.5 2.705 2.705 0 0 0-2.2 1.036v-4.13l-1.022.21v9.8h1.008v-.9a2.7 2.7 0 0 0 2.158 1 3.329 3.329 0 0 0 3.22-3.516Zm-3.416-2.6a2.451 2.451 0 0 1 2.394 2.616 2.443 2.443 0 0 1-2.394 2.616 2.421 2.421 0 0 1-1.946-.952v-3.346a2.352 2.352 0 0 1 1.946-.938ZM858 652h1v43h-1Z" class="tabs-style_svg__e"/>
    <circle cx="3.5" cy="3.5" r="3.5" class="tabs-style_svg__e" transform="translate(855 648)"/>
    <path d="M561.218 709h1.082v-9.8h-1.082Zm3.318 0h1.022v-5.04a2.03 2.03 0 0 1 1.792-1.05 1.771 1.771 0 0 1 1.834 1.96V709h1.022v-4.424a2.382 2.382 0 0 0-2.464-2.52 2.462 2.462 0 0 0-2.184 1.232v-1.12h-1.022Zm9.814.126a2.906 2.906 0 0 0 2.17-.91V709h1.008v-4.536c0-1.582-.98-2.408-2.646-2.408a5.722 5.722 0 0 0-2.576.658l.394.786a4.407 4.407 0 0 1 2.058-.588c1.148 0 1.764.546 1.764 1.694v.924a4.1 4.1 0 0 0-2.072-.518c-1.484 0-2.562.756-2.562 2.016a2.2 2.2 0 0 0 2.462 2.098Zm-1.484-2.114c0-.8.728-1.274 1.722-1.274a3.545 3.545 0 0 1 1.932.5v1.316a2.726 2.726 0 0 1-1.96.784c-.994.004-1.694-.528-1.694-1.326Zm9.8 1.19a2.465 2.465 0 0 1-2.38-2.618 2.478 2.478 0 0 1 2.38-2.6 2.61 2.61 0 0 1 1.876.854l.658-.718a3.628 3.628 0 0 0-2.548-1.064 3.423 3.423 0 0 0-3.388 3.528 3.435 3.435 0 0 0 3.388 3.542 3.461 3.461 0 0 0 2.506-1.106l-.63-.63a2.442 2.442 0 0 1-1.862.81Zm4.97-.742c0 1.064.6 1.666 1.792 1.666a4.124 4.124 0 0 0 1.2-.182v-.91a2.521 2.521 0 0 1-.966.182c-.728 0-1.008-.294-1.008-1.022v-4.186h1.974v-.84h-1.97v-1.974l-1.022.238v1.736h-1.414v.84h1.414Zm4.942-7.014a.726.726 0 0 0 .728-.742.723.723 0 0 0-.728-.728.723.723 0 0 0-.728.728.726.726 0 0 0 .728.742Zm.5 1.722h-1.018V709h1.022ZM597.17 709h.966l2.814-6.832h-1.092l-2.184 5.544-2.184-5.544h-1.134Zm4.48-3.416a3.418 3.418 0 0 0 3.388 3.542 3.935 3.935 0 0 0 2.562-.91l-.644-.7a2.792 2.792 0 0 1-1.876.7 2.459 2.459 0 0 1-2.422-2.422h5.362v-.294a3.236 3.236 0 0 0-3.136-3.444 3.336 3.336 0 0 0-3.234 3.528Zm3.22-2.632a2.25 2.25 0 0 1 2.13 2.128h-4.314a2.258 2.258 0 0 1 2.184-2.128Zm8.918 4.508c0 1.064.6 1.666 1.792 1.666a4.124 4.124 0 0 0 1.2-.182v-.91a2.521 2.521 0 0 1-.966.182c-.728 0-1.008-.294-1.008-1.022v-4.186h1.974v-.84h-1.97v-1.974l-1.022.238v1.736h-1.414v.84h1.414Zm6.552 1.666a2.906 2.906 0 0 0 2.17-.91V709h1.008v-4.536c0-1.582-.98-2.408-2.646-2.408a5.722 5.722 0 0 0-2.576.658l.392.784a4.407 4.407 0 0 1 2.058-.588c1.148 0 1.764.546 1.764 1.694v.924a4.1 4.1 0 0 0-2.072-.518c-1.484 0-2.562.756-2.562 2.016a2.2 2.2 0 0 0 2.464 2.1Zm-1.484-2.114c0-.8.728-1.274 1.722-1.274a3.545 3.545 0 0 1 1.932.5v1.316a2.726 2.726 0 0 1-1.96.784c-.994.004-1.694-.528-1.694-1.326Zm13.076-1.428a3.308 3.308 0 0 0-3.164-3.5 2.705 2.705 0 0 0-2.2 1.036v-4.13l-1.022.21v9.8h1.008v-.9a2.7 2.7 0 0 0 2.158 1 3.329 3.329 0 0 0 3.22-3.516Zm-3.416-2.6a2.451 2.451 0 0 1 2.394 2.616 2.443 2.443 0 0 1-2.394 2.616 2.421 2.421 0 0 1-1.946-.952v-3.346a2.352 2.352 0 0 1 1.946-.938ZM596 652h1v43h-1Z" class="tabs-style_svg__e"/>
    <circle cx="3.5" cy="3.5" r="3.5" class="tabs-style_svg__e" transform="translate(593 648)"/>
  </g>
</svg>
