<svg viewBox="0 0 872 569" xmlns="http://www.w3.org/2000/svg">
  <defs>
    <style>
      .tabs-spacing-box_svg__a{fill:#d2d2d2}.tabs-spacing-box_svg__b{fill:#f5f5f5}.tabs-spacing-box_svg__c{fill:#6a6e73}.tabs-spacing-box_svg__d{fill:#fff}.tabs-spacing-box_svg__e{fill:#151515}.tabs-spacing-box_svg__f{fill:#e00}.tabs-spacing-box_svg__g{fill:#1893d2}.tabs-spacing-box_svg__h{fill:#51a549}.tabs-spacing-box_svg__i{opacity:.25}.tabs-spacing-box_svg__j,.tabs-spacing-box_svg__k{fill:none}.tabs-spacing-box_svg__k{stroke:#f0f}
    </style>
  </defs>
  <path d="M101 236h1v333h-1Z" class="tabs-spacing-box_svg__a"/>
  <path d="M0 484h101v53H0Z" class="tabs-spacing-box_svg__b"/>
  <path d="M16.448 514.16a6.318 6.318 0 0 0 4.576 2c2.752 0 4.276-1.584 4.276-3.376 0-1.648-.96-2.576-3.408-3.008l-1.792-.304c-1.38-.24-2.116-.672-2.116-1.772 0-1.392 1.344-2 2.672-2a5.937 5.937 0 0 1 3.728 1.36l.72-.928a7.091 7.091 0 0 0-4.416-1.472c-2.048-.004-3.888 1.02-3.888 3.132 0 1.584.944 2.432 2.96 2.784l1.808.3c1.808.32 2.5.848 2.5 1.968-.004 1.256-1.156 2.256-2.996 2.256a5.393 5.393 0 0 1-3.856-1.8Zm10.496-2.06a3.907 3.907 0 0 0 3.872 4.044 4.5 4.5 0 0 0 2.928-1.044l-.736-.8a3.191 3.191 0 0 1-2.144.8 2.81 2.81 0 0 1-2.764-2.764h6.128V512a3.7 3.7 0 0 0-3.588-3.936 3.812 3.812 0 0 0-3.696 4.036Zm3.68-3.008a2.572 2.572 0 0 1 2.432 2.428h-4.928a2.581 2.581 0 0 1 2.496-2.432Zm9.088 6a2.817 2.817 0 0 1-2.72-2.992 2.832 2.832 0 0 1 2.72-2.976 2.983 2.983 0 0 1 2.144.976l.752-.816a4.146 4.146 0 0 0-2.908-1.22 3.912 3.912 0 0 0-3.876 4.036 3.926 3.926 0 0 0 3.876 4.044 3.955 3.955 0 0 0 2.86-1.264l-.72-.72a2.791 2.791 0 0 1-2.128.928Zm5.68-.848c0 1.216.688 1.9 2.048 1.9a4.713 4.713 0 0 0 1.376-.208V514.9a2.881 2.881 0 0 1-1.1.208c-.832 0-1.152-.336-1.152-1.168v-4.788h2.256v-.96h-2.26v-2.256l-1.168.272v1.984h-1.616v.96h1.616Zm5.648-8.02a.83.83 0 0 0 .832-.848.826.826 0 0 0-.832-.832.826.826 0 0 0-.832.832.83.83 0 0 0 .832.848Zm.576 1.968h-1.168V516h1.168ZM53.6 512.1a3.867 3.867 0 0 0 3.792 4.06 3.873 3.873 0 0 0 3.824-4.06 3.845 3.845 0 0 0-3.824-4.032A3.839 3.839 0 0 0 53.6 512.1Zm6.448.016a2.756 2.756 0 0 1-2.656 3.004 2.742 2.742 0 0 1-2.624-3.008 2.767 2.767 0 0 1 2.624-3.024 2.771 2.771 0 0 1 2.656 3.024ZM63.184 516h1.168v-5.76a2.32 2.32 0 0 1 2.048-1.2 2.023 2.023 0 0 1 2.1 2.24V516h1.168v-5.056a2.722 2.722 0 0 0-2.816-2.88 2.813 2.813 0 0 0-2.5 1.408v-1.28h-1.168Zm12.464-5.6.8.256a5.424 5.424 0 0 1 2.448-.64A2.5 2.5 0 0 1 81.7 512.5a2.583 2.583 0 0 1-2.756 2.668 4.17 4.17 0 0 1-3.088-1.312l-.72.784a5.33 5.33 0 0 0 3.808 1.52 3.619 3.619 0 0 0 3.92-3.712c0-1.9-1.344-3.392-3.76-3.36a5.536 5.536 0 0 0-2.4.592l.176-3.872h5.392V504.8H75.9Z" class="tabs-spacing-box_svg__c"/>
  <path d="M0 483h101v1H0Z" class="tabs-spacing-box_svg__a"/>
  <path d="M0 430h101v53H0Z" class="tabs-spacing-box_svg__b"/>
  <path d="M16.448 460.16a6.318 6.318 0 0 0 4.576 2c2.752 0 4.276-1.584 4.276-3.376 0-1.648-.96-2.576-3.408-3.008l-1.792-.304c-1.38-.24-2.116-.672-2.116-1.772 0-1.392 1.344-2 2.672-2a5.937 5.937 0 0 1 3.728 1.36l.72-.928a7.091 7.091 0 0 0-4.416-1.472c-2.048-.004-3.888 1.02-3.888 3.132 0 1.584.944 2.432 2.96 2.784l1.808.3c1.808.32 2.5.848 2.5 1.968-.004 1.256-1.156 2.256-2.996 2.256a5.393 5.393 0 0 1-3.856-1.8Zm10.496-2.06a3.907 3.907 0 0 0 3.872 4.044 4.5 4.5 0 0 0 2.928-1.044l-.736-.8a3.191 3.191 0 0 1-2.144.8 2.81 2.81 0 0 1-2.764-2.764h6.128V458a3.7 3.7 0 0 0-3.588-3.936 3.812 3.812 0 0 0-3.696 4.036Zm3.68-3.008a2.572 2.572 0 0 1 2.432 2.428h-4.928a2.581 2.581 0 0 1 2.496-2.432Zm9.088 6a2.817 2.817 0 0 1-2.72-2.992 2.832 2.832 0 0 1 2.72-2.976 2.983 2.983 0 0 1 2.144.976l.752-.816a4.146 4.146 0 0 0-2.908-1.22 3.912 3.912 0 0 0-3.876 4.036 3.926 3.926 0 0 0 3.876 4.044 3.955 3.955 0 0 0 2.86-1.264l-.72-.72a2.791 2.791 0 0 1-2.128.928Zm5.68-.848c0 1.216.688 1.9 2.048 1.9a4.713 4.713 0 0 0 1.376-.208V460.9a2.881 2.881 0 0 1-1.1.208c-.832 0-1.152-.336-1.152-1.168v-4.788h2.256v-.96h-2.26v-2.256l-1.168.272v1.984h-1.616v.96h1.616Zm5.648-8.02a.83.83 0 0 0 .832-.848.826.826 0 0 0-.832-.832.826.826 0 0 0-.832.832.83.83 0 0 0 .832.848Zm.576 1.968h-1.168V462h1.168ZM53.6 458.1a3.867 3.867 0 0 0 3.792 4.06 3.873 3.873 0 0 0 3.824-4.06 3.845 3.845 0 0 0-3.824-4.032A3.839 3.839 0 0 0 53.6 458.1Zm6.448.016a2.756 2.756 0 0 1-2.656 3.004 2.742 2.742 0 0 1-2.624-3.008 2.767 2.767 0 0 1 2.624-3.024 2.771 2.771 0 0 1 2.656 3.024ZM63.184 462h1.168v-5.76a2.32 2.32 0 0 1 2.048-1.2 2.023 2.023 0 0 1 2.1 2.24V462h1.168v-5.056a2.722 2.722 0 0 0-2.816-2.88 2.813 2.813 0 0 0-2.5 1.408v-1.28h-1.168Zm19.168-11.2H81.12l-5.952 7.3v.912h6.048V462h1.136v-2.992H83.9V458h-1.548Zm-5.824 7.2 4.688-5.792V458Z" class="tabs-spacing-box_svg__c"/>
  <path d="M0 429h101v1H0Z" class="tabs-spacing-box_svg__a"/>
  <path d="M0 376h102v53H0Z" class="tabs-spacing-box_svg__d"/>
  <path d="M16.448 406.16a6.318 6.318 0 0 0 4.576 2c2.752 0 4.276-1.584 4.276-3.376 0-1.648-.96-2.576-3.408-3.008l-1.792-.304c-1.38-.24-2.116-.672-2.116-1.772 0-1.392 1.344-2 2.672-2a5.937 5.937 0 0 1 3.728 1.36l.72-.928a7.091 7.091 0 0 0-4.416-1.472c-2.048-.004-3.888 1.02-3.888 3.132 0 1.584.944 2.432 2.96 2.784l1.808.3c1.808.32 2.5.848 2.5 1.968-.004 1.256-1.156 2.256-2.996 2.256a5.393 5.393 0 0 1-3.856-1.8Zm10.496-2.06a3.907 3.907 0 0 0 3.872 4.044 4.5 4.5 0 0 0 2.928-1.044l-.736-.8a3.191 3.191 0 0 1-2.144.8 2.81 2.81 0 0 1-2.764-2.764h6.128V404a3.7 3.7 0 0 0-3.588-3.936 3.812 3.812 0 0 0-3.696 4.036Zm3.68-3.008a2.572 2.572 0 0 1 2.432 2.428h-4.928a2.581 2.581 0 0 1 2.496-2.432Zm9.088 6a2.817 2.817 0 0 1-2.72-2.992 2.832 2.832 0 0 1 2.72-2.976 2.983 2.983 0 0 1 2.144.976l.752-.816a4.146 4.146 0 0 0-2.908-1.22 3.912 3.912 0 0 0-3.876 4.036 3.926 3.926 0 0 0 3.876 4.044 3.955 3.955 0 0 0 2.86-1.264l-.72-.72a2.791 2.791 0 0 1-2.128.928Zm5.68-.848c0 1.216.688 1.9 2.048 1.9a4.713 4.713 0 0 0 1.376-.208V406.9a2.881 2.881 0 0 1-1.1.208c-.832 0-1.152-.336-1.152-1.168v-4.788h2.256v-.96h-2.26v-2.256l-1.168.272v1.984h-1.616v.96h1.616Zm5.648-8.02a.83.83 0 0 0 .832-.848.826.826 0 0 0-.832-.832.826.826 0 0 0-.832.832.83.83 0 0 0 .832.848Zm.576 1.968h-1.168V408h1.168ZM53.6 404.1a3.867 3.867 0 0 0 3.792 4.06 3.873 3.873 0 0 0 3.824-4.06 3.845 3.845 0 0 0-3.824-4.032A3.839 3.839 0 0 0 53.6 404.1Zm6.448.016a2.756 2.756 0 0 1-2.656 3.004 2.742 2.742 0 0 1-2.624-3.008 2.767 2.767 0 0 1 2.624-3.024 2.771 2.771 0 0 1 2.656 3.024ZM63.184 408h1.168v-5.76a2.32 2.32 0 0 1 2.048-1.2 2.023 2.023 0 0 1 2.1 2.24V408h1.168v-5.056a2.722 2.722 0 0 0-2.816-2.88 2.813 2.813 0 0 0-2.5 1.408v-1.28h-1.168Zm19.776-3.072a2.879 2.879 0 0 0-2.512-2.688 2.7 2.7 0 0 0 2.1-2.544c0-1.744-1.52-3.072-3.568-3.072a4.969 4.969 0 0 0-3.716 1.616l.768.768a3.746 3.746 0 0 1 2.928-1.36 2.257 2.257 0 0 1 2.432 2.112 1.932 1.932 0 0 1-2.048 2.016h-1.28v.992h1.328a2.216 2.216 0 0 1 2.416 2.132c0 1.328-1.136 2.256-2.784 2.256a4.089 4.089 0 0 1-3.136-1.328l-.768.752a5.4 5.4 0 0 0 3.92 1.58c2.272 0 3.92-1.36 3.92-3.232Z" class="tabs-spacing-box_svg__e"/>
  <path d="M0 376h3v53H0Z" class="tabs-spacing-box_svg__f"/>
  <path d="M0 375h101v1H0Z" class="tabs-spacing-box_svg__a"/>
  <path d="M0 322h101v53H0Z" class="tabs-spacing-box_svg__b"/>
  <path d="M16.448 352.16a6.318 6.318 0 0 0 4.576 2c2.752 0 4.276-1.584 4.276-3.376 0-1.648-.96-2.576-3.408-3.008l-1.792-.304c-1.38-.24-2.116-.672-2.116-1.772 0-1.392 1.344-2 2.672-2a5.937 5.937 0 0 1 3.728 1.36l.72-.928a7.091 7.091 0 0 0-4.416-1.472c-2.048-.004-3.888 1.02-3.888 3.132 0 1.584.944 2.432 2.96 2.784l1.808.3c1.808.32 2.5.848 2.5 1.968-.004 1.256-1.156 2.256-2.996 2.256a5.393 5.393 0 0 1-3.856-1.8Zm10.496-2.06a3.907 3.907 0 0 0 3.872 4.044 4.5 4.5 0 0 0 2.928-1.044l-.736-.8a3.191 3.191 0 0 1-2.144.8 2.81 2.81 0 0 1-2.764-2.764h6.128V350a3.7 3.7 0 0 0-3.588-3.936 3.812 3.812 0 0 0-3.696 4.036Zm3.68-3.008a2.572 2.572 0 0 1 2.432 2.428h-4.928a2.581 2.581 0 0 1 2.496-2.432Zm9.088 6a2.817 2.817 0 0 1-2.72-2.992 2.832 2.832 0 0 1 2.72-2.976 2.983 2.983 0 0 1 2.144.976l.752-.816a4.146 4.146 0 0 0-2.908-1.22 3.912 3.912 0 0 0-3.876 4.036 3.926 3.926 0 0 0 3.876 4.044 3.955 3.955 0 0 0 2.86-1.264l-.72-.72a2.791 2.791 0 0 1-2.128.928Zm5.68-.848c0 1.216.688 1.9 2.048 1.9a4.713 4.713 0 0 0 1.376-.208V352.9a2.881 2.881 0 0 1-1.1.208c-.832 0-1.152-.336-1.152-1.168v-4.788h2.256v-.96h-2.26v-2.256l-1.168.272v1.984h-1.616v.96h1.616Zm5.648-8.02a.83.83 0 0 0 .832-.848.826.826 0 0 0-.832-.832.826.826 0 0 0-.832.832.83.83 0 0 0 .832.848Zm.576 1.968h-1.168V354h1.168ZM53.6 350.1a3.867 3.867 0 0 0 3.792 4.06 3.873 3.873 0 0 0 3.824-4.06 3.845 3.845 0 0 0-3.824-4.032A3.839 3.839 0 0 0 53.6 350.1Zm6.448.016a2.756 2.756 0 0 1-2.656 3.004 2.742 2.742 0 0 1-2.624-3.008 2.767 2.767 0 0 1 2.624-3.024 2.771 2.771 0 0 1 2.656 3.024ZM63.184 354h1.168v-5.76a2.32 2.32 0 0 1 2.048-1.2 2.023 2.023 0 0 1 2.1 2.24V354h1.168v-5.056a2.722 2.722 0 0 0-2.816-2.88 2.813 2.813 0 0 0-2.5 1.408v-1.28h-1.168Zm12.16 0h7.216v-1.008h-5.744l3.76-4.16c1.2-1.332 1.744-2.032 1.744-3.264 0-1.68-1.44-2.912-3.472-2.912a5.271 5.271 0 0 0-3.648 1.584l.672.8a4.114 4.114 0 0 1 2.96-1.36 2.106 2.106 0 0 1 2.352 1.952c0 .848-.384 1.44-1.392 2.576l-4.448 4.944Z" class="tabs-spacing-box_svg__c"/>
  <path d="M0 321h101v1H0Z" class="tabs-spacing-box_svg__a"/>
  <path d="M0 268h101v53H0Z" class="tabs-spacing-box_svg__b"/>
  <path d="M16.448 298.16a6.318 6.318 0 0 0 4.576 2c2.752 0 4.276-1.584 4.276-3.376 0-1.648-.96-2.576-3.408-3.008l-1.792-.304c-1.38-.24-2.116-.672-2.116-1.772 0-1.392 1.344-2 2.672-2a5.937 5.937 0 0 1 3.728 1.36l.72-.928a7.091 7.091 0 0 0-4.416-1.472c-2.048-.004-3.888 1.02-3.888 3.132 0 1.584.944 2.432 2.96 2.784l1.808.3c1.808.32 2.5.848 2.5 1.968-.004 1.256-1.156 2.256-2.996 2.256a5.393 5.393 0 0 1-3.856-1.8Zm10.496-2.06a3.907 3.907 0 0 0 3.872 4.044 4.5 4.5 0 0 0 2.928-1.044l-.736-.8a3.191 3.191 0 0 1-2.144.8 2.81 2.81 0 0 1-2.764-2.764h6.128V296a3.7 3.7 0 0 0-3.588-3.936 3.812 3.812 0 0 0-3.696 4.036Zm3.68-3.008a2.572 2.572 0 0 1 2.432 2.428h-4.928a2.581 2.581 0 0 1 2.496-2.432Zm9.088 6a2.817 2.817 0 0 1-2.72-2.992 2.832 2.832 0 0 1 2.72-2.976 2.983 2.983 0 0 1 2.144.976l.752-.816a4.146 4.146 0 0 0-2.908-1.22 3.912 3.912 0 0 0-3.876 4.036 3.926 3.926 0 0 0 3.876 4.044 3.955 3.955 0 0 0 2.86-1.264l-.72-.72a2.791 2.791 0 0 1-2.128.928Zm5.68-.848c0 1.216.688 1.9 2.048 1.9a4.713 4.713 0 0 0 1.376-.208V298.9a2.881 2.881 0 0 1-1.1.208c-.832 0-1.152-.336-1.152-1.168v-4.788h2.256v-.96h-2.26v-2.256l-1.168.272v1.984h-1.616v.96h1.616Zm5.648-8.02a.83.83 0 0 0 .832-.848.826.826 0 0 0-.832-.832.826.826 0 0 0-.832.832.83.83 0 0 0 .832.848Zm.576 1.968h-1.168V300h1.168ZM53.6 296.1a3.867 3.867 0 0 0 3.792 4.06 3.873 3.873 0 0 0 3.824-4.06 3.845 3.845 0 0 0-3.824-4.032A3.839 3.839 0 0 0 53.6 296.1Zm6.448.016a2.756 2.756 0 0 1-2.656 3.004 2.742 2.742 0 0 1-2.624-3.008 2.767 2.767 0 0 1 2.624-3.024 2.771 2.771 0 0 1 2.656 3.024ZM63.184 300h1.168v-5.76a2.32 2.32 0 0 1 2.048-1.2 2.023 2.023 0 0 1 2.1 2.24V300h1.168v-5.056a2.722 2.722 0 0 0-2.816-2.88 2.813 2.813 0 0 0-2.5 1.408v-1.28h-1.168Zm14.96-11.2h-.72l-2.224.992v1.056l1.792-.8V300h1.152Z" class="tabs-spacing-box_svg__c"/>
  <path d="M35 537h32v32H35Z" class="tabs-spacing-box_svg__g"/>
  <path d="M16 521h16v16H16Z" class="tabs-spacing-box_svg__h"/>
  <g class="tabs-spacing-box_svg__i">
    <path d="M16 500h68v21H16Z" class="tabs-spacing-box_svg__j"/>
    <path d="M16.5 500.5h67v20h-67Z" class="tabs-spacing-box_svg__k"/>
  </g>
  <path d="M16 484h16v16H16ZM0 503h16v16H0Zm16-36h16v16H16Zm69-18h16v16H85Z" class="tabs-spacing-box_svg__h"/>
  <g class="tabs-spacing-box_svg__i">
    <path d="M16 446h69v21H16Z" class="tabs-spacing-box_svg__j"/>
    <path d="M16.5 446.5h68v20h-68Z" class="tabs-spacing-box_svg__k"/>
  </g>
  <path d="M16 430h16v16H16ZM0 449h16v16H0Zm16-36h16v16H16Z" class="tabs-spacing-box_svg__h"/>
  <g class="tabs-spacing-box_svg__i">
    <path d="M16 392h68v21H16Z" class="tabs-spacing-box_svg__j"/>
    <path d="M16.5 392.5h67v20h-67Z" class="tabs-spacing-box_svg__k"/>
  </g>
  <path d="M16 376h16v16H16Zm0-17h16v16H16Z" class="tabs-spacing-box_svg__h"/>
  <g class="tabs-spacing-box_svg__i">
    <path d="M16 338h68v21H16Z" class="tabs-spacing-box_svg__j"/>
    <path d="M16.5 338.5h67v20h-67Z" class="tabs-spacing-box_svg__k"/>
  </g>
  <path d="M16 322h16v16H16ZM0 341h16v16H0Zm16-36h16v16H16Z" class="tabs-spacing-box_svg__h"/>
  <g class="tabs-spacing-box_svg__i">
    <path d="M16 284h64v21H16Z" class="tabs-spacing-box_svg__j"/>
    <path d="M16.5 284.5h63v20h-63Z" class="tabs-spacing-box_svg__k"/>
  </g>
  <path d="M16 268h16v16H16ZM0 287h16v16H0Z" class="tabs-spacing-box_svg__h"/>
  <path d="M35 236h32v32H35Z" class="tabs-spacing-box_svg__g"/>
  <path d="M0 171h708v1H0Z" class="tabs-spacing-box_svg__a"/>
  <path d="M585 118h123v53H585Z" class="tabs-spacing-box_svg__b"/>
  <path d="M617.448 148.16a6.318 6.318 0 0 0 4.576 2c2.752 0 4.276-1.584 4.276-3.376 0-1.648-.96-2.576-3.408-3.008l-1.792-.304c-1.38-.24-2.116-.672-2.116-1.772 0-1.392 1.344-2 2.672-2a5.937 5.937 0 0 1 3.728 1.36l.72-.928a7.091 7.091 0 0 0-4.416-1.472c-2.048-.004-3.888 1.02-3.888 3.132 0 1.584.944 2.432 2.96 2.784l1.808.3c1.808.32 2.5.848 2.5 1.968-.004 1.256-1.156 2.256-2.996 2.256a5.393 5.393 0 0 1-3.856-1.8Zm10.496-2.06a3.907 3.907 0 0 0 3.872 4.044 4.5 4.5 0 0 0 2.928-1.044l-.736-.8a3.191 3.191 0 0 1-2.144.8 2.81 2.81 0 0 1-2.764-2.764h6.128V146a3.7 3.7 0 0 0-3.588-3.936 3.812 3.812 0 0 0-3.696 4.036Zm3.68-3.008a2.572 2.572 0 0 1 2.432 2.428h-4.928a2.581 2.581 0 0 1 2.496-2.432Zm9.088 6a2.817 2.817 0 0 1-2.72-2.992 2.832 2.832 0 0 1 2.72-2.976 2.983 2.983 0 0 1 2.144.976l.752-.816a4.146 4.146 0 0 0-2.908-1.22 3.912 3.912 0 0 0-3.876 4.036 3.926 3.926 0 0 0 3.876 4.044 3.955 3.955 0 0 0 2.86-1.264l-.72-.72a2.791 2.791 0 0 1-2.128.928Zm5.68-.848c0 1.216.688 1.9 2.048 1.9a4.713 4.713 0 0 0 1.376-.208V148.9a2.881 2.881 0 0 1-1.1.208c-.832 0-1.152-.336-1.152-1.168v-4.788h2.256v-.96h-2.26v-2.256l-1.168.272v1.984h-1.616v.96h1.616Zm5.648-8.02a.83.83 0 0 0 .832-.848.826.826 0 0 0-.832-.832.826.826 0 0 0-.832.832.83.83 0 0 0 .832.848Zm.576 1.968h-1.168V150h1.168Zm1.984 3.908a3.867 3.867 0 0 0 3.792 4.06 3.873 3.873 0 0 0 3.824-4.06 3.845 3.845 0 0 0-3.824-4.032 3.839 3.839 0 0 0-3.792 4.032Zm6.448.016a2.756 2.756 0 0 1-2.656 3.004 2.742 2.742 0 0 1-2.624-3.008 2.767 2.767 0 0 1 2.624-3.024 2.771 2.771 0 0 1 2.656 3.024Zm3.136 3.884h1.168v-5.76a2.32 2.32 0 0 1 2.048-1.2 2.023 2.023 0 0 1 2.1 2.24V150h1.168v-5.056a2.722 2.722 0 0 0-2.816-2.88 2.813 2.813 0 0 0-2.5 1.408v-1.28h-1.168Zm12.464-5.6.8.256a5.424 5.424 0 0 1 2.448-.64 2.5 2.5 0 0 1 2.804 2.484 2.583 2.583 0 0 1-2.756 2.668 4.17 4.17 0 0 1-3.088-1.312l-.72.784a5.33 5.33 0 0 0 3.808 1.52 3.619 3.619 0 0 0 3.92-3.712c0-1.9-1.344-3.392-3.76-3.36a5.536 5.536 0 0 0-2.4.592l.176-3.872h5.392V138.8H676.9Z" class="tabs-spacing-box_svg__c"/>
  <path d="M584 118h1v53h-1Z" class="tabs-spacing-box_svg__a"/>
  <path d="M451 118h133v53H451Z" class="tabs-spacing-box_svg__b"/>
  <path d="M483.448 148.16a6.318 6.318 0 0 0 4.576 2c2.752 0 4.276-1.584 4.276-3.376 0-1.648-.96-2.576-3.408-3.008l-1.792-.304c-1.38-.24-2.116-.672-2.116-1.772 0-1.392 1.344-2 2.672-2a5.937 5.937 0 0 1 3.728 1.36l.72-.928a7.091 7.091 0 0 0-4.416-1.472c-2.048-.004-3.888 1.02-3.888 3.132 0 1.584.944 2.432 2.96 2.784l1.808.3c1.808.32 2.5.848 2.5 1.968-.004 1.256-1.156 2.256-2.996 2.256a5.393 5.393 0 0 1-3.856-1.8Zm10.496-2.06a3.907 3.907 0 0 0 3.872 4.044 4.5 4.5 0 0 0 2.928-1.044l-.736-.8a3.191 3.191 0 0 1-2.144.8 2.81 2.81 0 0 1-2.764-2.764h6.128V146a3.7 3.7 0 0 0-3.588-3.936 3.812 3.812 0 0 0-3.696 4.036Zm3.68-3.008a2.572 2.572 0 0 1 2.432 2.428h-4.928a2.581 2.581 0 0 1 2.496-2.432Zm9.088 6a2.817 2.817 0 0 1-2.72-2.992 2.832 2.832 0 0 1 2.72-2.976 2.983 2.983 0 0 1 2.144.976l.752-.816a4.146 4.146 0 0 0-2.908-1.22 3.912 3.912 0 0 0-3.876 4.036 3.926 3.926 0 0 0 3.876 4.044 3.955 3.955 0 0 0 2.86-1.264l-.72-.72a2.791 2.791 0 0 1-2.128.928Zm5.68-.848c0 1.216.688 1.9 2.048 1.9a4.713 4.713 0 0 0 1.376-.208V148.9a2.881 2.881 0 0 1-1.1.208c-.832 0-1.152-.336-1.152-1.168v-4.788h2.256v-.96h-2.26v-2.256l-1.168.272v1.984h-1.616v.96h1.616Zm5.648-8.02a.83.83 0 0 0 .832-.848.826.826 0 0 0-.832-.832.826.826 0 0 0-.832.832.83.83 0 0 0 .832.848Zm.576 1.968h-1.168V150h1.168Zm1.984 3.908a3.867 3.867 0 0 0 3.792 4.06 3.873 3.873 0 0 0 3.824-4.06 3.845 3.845 0 0 0-3.824-4.032 3.839 3.839 0 0 0-3.792 4.032Zm6.448.016a2.756 2.756 0 0 1-2.656 3.004 2.742 2.742 0 0 1-2.624-3.008 2.767 2.767 0 0 1 2.624-3.024 2.771 2.771 0 0 1 2.656 3.024Zm3.136 3.884h1.168v-5.76a2.32 2.32 0 0 1 2.048-1.2 2.023 2.023 0 0 1 2.1 2.24V150h1.168v-5.056a2.722 2.722 0 0 0-2.816-2.88 2.813 2.813 0 0 0-2.5 1.408v-1.28h-1.168Zm19.168-11.2h-1.232l-5.952 7.3v.912h6.048V150h1.136v-2.992h1.548V146h-1.548Zm-5.824 7.2 4.688-5.792V146Z" class="tabs-spacing-box_svg__c"/>
  <path d="M450 118h1v53h-1Z" class="tabs-spacing-box_svg__a"/>
  <path d="M318 118h132v54H318Z" class="tabs-spacing-box_svg__d"/>
  <path d="M350.448 148.16a6.318 6.318 0 0 0 4.576 2c2.752 0 4.276-1.584 4.276-3.376 0-1.648-.96-2.576-3.408-3.008l-1.792-.304c-1.38-.24-2.116-.672-2.116-1.772 0-1.392 1.344-2 2.672-2a5.937 5.937 0 0 1 3.728 1.36l.72-.928a7.091 7.091 0 0 0-4.416-1.472c-2.048-.004-3.888 1.02-3.888 3.132 0 1.584.944 2.432 2.96 2.784l1.808.3c1.808.32 2.5.848 2.5 1.968-.004 1.256-1.156 2.256-2.996 2.256a5.393 5.393 0 0 1-3.856-1.8Zm10.496-2.06a3.907 3.907 0 0 0 3.872 4.044 4.5 4.5 0 0 0 2.928-1.044l-.736-.8a3.191 3.191 0 0 1-2.144.8 2.81 2.81 0 0 1-2.764-2.764h6.128V146a3.7 3.7 0 0 0-3.588-3.936 3.812 3.812 0 0 0-3.696 4.036Zm3.68-3.008a2.572 2.572 0 0 1 2.432 2.428h-4.928a2.581 2.581 0 0 1 2.496-2.432Zm9.088 6a2.817 2.817 0 0 1-2.72-2.992 2.832 2.832 0 0 1 2.72-2.976 2.983 2.983 0 0 1 2.144.976l.752-.816a4.146 4.146 0 0 0-2.908-1.22 3.912 3.912 0 0 0-3.876 4.036 3.926 3.926 0 0 0 3.876 4.044 3.955 3.955 0 0 0 2.86-1.264l-.72-.72a2.791 2.791 0 0 1-2.128.928Zm5.68-.848c0 1.216.688 1.9 2.048 1.9a4.713 4.713 0 0 0 1.376-.208V148.9a2.881 2.881 0 0 1-1.1.208c-.832 0-1.152-.336-1.152-1.168v-4.788h2.256v-.96h-2.26v-2.256l-1.168.272v1.984h-1.616v.96h1.616Zm5.648-8.02a.83.83 0 0 0 .832-.848.826.826 0 0 0-.832-.832.826.826 0 0 0-.832.832.83.83 0 0 0 .832.848Zm.576 1.968h-1.168V150h1.168Zm1.984 3.908a3.867 3.867 0 0 0 3.792 4.06 3.873 3.873 0 0 0 3.824-4.06 3.845 3.845 0 0 0-3.824-4.032 3.839 3.839 0 0 0-3.792 4.032Zm6.448.016a2.756 2.756 0 0 1-2.656 3.004 2.742 2.742 0 0 1-2.624-3.008 2.767 2.767 0 0 1 2.624-3.024 2.771 2.771 0 0 1 2.656 3.024Zm3.136 3.884h1.168v-5.76a2.32 2.32 0 0 1 2.048-1.2 2.023 2.023 0 0 1 2.1 2.24V150h1.168v-5.056a2.722 2.722 0 0 0-2.816-2.88 2.813 2.813 0 0 0-2.5 1.408v-1.28h-1.168Zm19.776-3.072a2.879 2.879 0 0 0-2.512-2.688 2.7 2.7 0 0 0 2.1-2.544c0-1.744-1.52-3.072-3.568-3.072a4.969 4.969 0 0 0-3.716 1.616l.768.768a3.746 3.746 0 0 1 2.928-1.36 2.257 2.257 0 0 1 2.432 2.112 1.932 1.932 0 0 1-2.048 2.016h-1.28v.992h1.328a2.216 2.216 0 0 1 2.416 2.132c0 1.328-1.136 2.256-2.784 2.256a4.089 4.089 0 0 1-3.136-1.328l-.768.752a5.4 5.4 0 0 0 3.92 1.58c2.272 0 3.92-1.36 3.92-3.232Z" class="tabs-spacing-box_svg__e"/>
  <path d="M318 118h132v3H318Z" class="tabs-spacing-box_svg__f"/>
  <path d="M317 118h1v53h-1Z" class="tabs-spacing-box_svg__a"/>
  <path d="M185 118h132v53H185Z" class="tabs-spacing-box_svg__b"/>
  <path d="M217.448 148.16a6.318 6.318 0 0 0 4.576 2c2.752 0 4.276-1.584 4.276-3.376 0-1.648-.96-2.576-3.408-3.008l-1.792-.304c-1.38-.24-2.116-.672-2.116-1.772 0-1.392 1.344-2 2.672-2a5.937 5.937 0 0 1 3.728 1.36l.72-.928a7.091 7.091 0 0 0-4.416-1.472c-2.048-.004-3.888 1.02-3.888 3.132 0 1.584.944 2.432 2.96 2.784l1.808.3c1.808.32 2.5.848 2.5 1.968-.004 1.256-1.156 2.256-2.996 2.256a5.393 5.393 0 0 1-3.856-1.8Zm10.496-2.06a3.907 3.907 0 0 0 3.872 4.044 4.5 4.5 0 0 0 2.928-1.044l-.736-.8a3.191 3.191 0 0 1-2.144.8 2.81 2.81 0 0 1-2.764-2.764h6.128V146a3.7 3.7 0 0 0-3.588-3.936 3.812 3.812 0 0 0-3.696 4.036Zm3.68-3.008a2.572 2.572 0 0 1 2.432 2.428h-4.928a2.581 2.581 0 0 1 2.496-2.432Zm9.088 6a2.817 2.817 0 0 1-2.72-2.992 2.832 2.832 0 0 1 2.72-2.976 2.983 2.983 0 0 1 2.144.976l.752-.816a4.146 4.146 0 0 0-2.908-1.22 3.912 3.912 0 0 0-3.876 4.036 3.926 3.926 0 0 0 3.876 4.044 3.955 3.955 0 0 0 2.86-1.264l-.72-.72a2.791 2.791 0 0 1-2.128.928Zm5.68-.848c0 1.216.688 1.9 2.048 1.9a4.713 4.713 0 0 0 1.376-.208V148.9a2.881 2.881 0 0 1-1.1.208c-.832 0-1.152-.336-1.152-1.168v-4.788h2.256v-.96h-2.26v-2.256l-1.168.272v1.984h-1.616v.96h1.616Zm5.648-8.02a.83.83 0 0 0 .832-.848.826.826 0 0 0-.832-.832.826.826 0 0 0-.832.832.83.83 0 0 0 .832.848Zm.576 1.968h-1.168V150h1.168Zm1.984 3.908a3.867 3.867 0 0 0 3.792 4.06 3.873 3.873 0 0 0 3.824-4.06 3.845 3.845 0 0 0-3.824-4.032 3.839 3.839 0 0 0-3.792 4.032Zm6.448.016a2.756 2.756 0 0 1-2.656 3.004 2.742 2.742 0 0 1-2.624-3.008 2.767 2.767 0 0 1 2.624-3.024 2.771 2.771 0 0 1 2.656 3.024Zm3.136 3.884h1.168v-5.76a2.32 2.32 0 0 1 2.048-1.2 2.023 2.023 0 0 1 2.1 2.24V150h1.168v-5.056a2.722 2.722 0 0 0-2.816-2.88 2.813 2.813 0 0 0-2.5 1.408v-1.28h-1.168Zm12.16 0h7.216v-1.008h-5.744l3.76-4.16c1.2-1.332 1.744-2.032 1.744-3.264 0-1.68-1.44-2.912-3.472-2.912a5.271 5.271 0 0 0-3.648 1.584l.672.8a4.114 4.114 0 0 1 2.96-1.36 2.106 2.106 0 0 1 2.352 1.952c0 .848-.384 1.44-1.392 2.576l-4.448 4.944Z" class="tabs-spacing-box_svg__c"/>
  <path d="M184 118h1v53h-1Z" class="tabs-spacing-box_svg__a"/>
  <path d="M56 118h128v53H56Z" class="tabs-spacing-box_svg__b"/>
  <path d="M88.448 148.16a6.318 6.318 0 0 0 4.576 2c2.752 0 4.276-1.584 4.276-3.376 0-1.648-.96-2.576-3.408-3.008l-1.792-.304c-1.38-.24-2.116-.672-2.116-1.772 0-1.392 1.344-2 2.672-2a5.937 5.937 0 0 1 3.728 1.36l.72-.928a7.091 7.091 0 0 0-4.416-1.472c-2.048-.004-3.888 1.02-3.888 3.132 0 1.584.944 2.432 2.96 2.784l1.808.3c1.808.32 2.5.848 2.5 1.968-.004 1.256-1.156 2.256-2.996 2.256a5.393 5.393 0 0 1-3.856-1.8Zm10.496-2.06a3.907 3.907 0 0 0 3.872 4.044 4.5 4.5 0 0 0 2.928-1.044l-.736-.8a3.191 3.191 0 0 1-2.144.8 2.81 2.81 0 0 1-2.764-2.764h6.128V146a3.7 3.7 0 0 0-3.588-3.936 3.812 3.812 0 0 0-3.696 4.036Zm3.68-3.008a2.572 2.572 0 0 1 2.432 2.428h-4.928a2.581 2.581 0 0 1 2.496-2.432Zm9.088 6a2.817 2.817 0 0 1-2.72-2.992 2.832 2.832 0 0 1 2.72-2.976 2.983 2.983 0 0 1 2.144.976l.752-.816a4.146 4.146 0 0 0-2.908-1.22 3.912 3.912 0 0 0-3.876 4.036 3.926 3.926 0 0 0 3.876 4.044 3.955 3.955 0 0 0 2.86-1.264l-.72-.72a2.791 2.791 0 0 1-2.128.928Zm5.68-.848c0 1.216.688 1.9 2.048 1.9a4.713 4.713 0 0 0 1.376-.208V148.9a2.881 2.881 0 0 1-1.1.208c-.832 0-1.152-.336-1.152-1.168v-4.788h2.256v-.96h-2.26v-2.256l-1.168.272v1.984h-1.616v.96h1.616Zm5.648-8.02a.83.83 0 0 0 .832-.848.826.826 0 0 0-.832-.832.826.826 0 0 0-.832.832.83.83 0 0 0 .832.848Zm.576 1.968h-1.168V150h1.168Zm1.984 3.908a3.867 3.867 0 0 0 3.792 4.06 3.873 3.873 0 0 0 3.824-4.06 3.845 3.845 0 0 0-3.824-4.032 3.839 3.839 0 0 0-3.792 4.032Zm6.448.016a2.756 2.756 0 0 1-2.656 3.004 2.742 2.742 0 0 1-2.624-3.008 2.767 2.767 0 0 1 2.624-3.024 2.771 2.771 0 0 1 2.656 3.024Zm3.136 3.884h1.168v-5.76a2.32 2.32 0 0 1 2.048-1.2 2.023 2.023 0 0 1 2.1 2.24V150h1.168v-5.056a2.722 2.722 0 0 0-2.816-2.88 2.813 2.813 0 0 0-2.5 1.408v-1.28h-1.168Zm14.96-11.2h-.72l-2.224.992v1.056l1.792-.8V150h1.152Z" class="tabs-spacing-box_svg__c"/>
  <path d="M652 118h56v53h-56Z" class="tabs-spacing-box_svg__d"/>
  <path d="m684.9 145.9-6.8 6.8a1.22 1.22 0 0 1-1.6 0l-1.2-1a1.5 1.5 0 0 1 0-1.8l4.8-4.8-4.8-4.8a1.5 1.5 0 0 1 0-1.8l1.2-1.2a1.22 1.22 0 0 1 1.6 0l6.8 6.8a1.5 1.5 0 0 1 0 1.8Z" class="tabs-spacing-box_svg__e"/>
  <path d="M652 118h1v53h-1Z" class="tabs-spacing-box_svg__a"/>
  <path d="M0 118h56v53H0Z" class="tabs-spacing-box_svg__d"/>
  <path d="M55 118h1v53h-1Zm-31.7 27.9 6.8 6.8a1.22 1.22 0 0 0 1.6 0l1.2-1a1.5 1.5 0 0 0 0-1.8l-4.8-4.8 4.8-4.8a1.5 1.5 0 0 0 0-1.8l-1.2-1.2a1.22 1.22 0 0 0-1.6 0l-6.8 6.8a1.5 1.5 0 0 0 0 1.8Z" class="tabs-spacing-box_svg__a"/>
  <path d="M692 137h16v16h-16Zm-20 18h16v16h-16Z" class="tabs-spacing-box_svg__h"/>
  <g class="tabs-spacing-box_svg__i">
    <path d="M668 134h24v21h-24Z" class="tabs-spacing-box_svg__j"/>
    <path d="M668.5 134.5h23v20h-23Z" class="tabs-spacing-box_svg__k"/>
  </g>
  <path d="M672 118h16v16h-16Zm-20 19h16v16h-16Zm-25 18h16v16h-16Z" class="tabs-spacing-box_svg__h"/>
  <g class="tabs-spacing-box_svg__i">
    <path d="M617 134h35v21h-35Z" class="tabs-spacing-box_svg__j"/>
    <path d="M617.5 134.5h34v20h-34Z" class="tabs-spacing-box_svg__k"/>
  </g>
  <path d="M627 118h16v16h-16Z" class="tabs-spacing-box_svg__h"/>
  <path d="M585 134h32v21h-32Zm-33 0h32v21h-32Z" class="tabs-spacing-box_svg__g"/>
  <path d="M510 155h16v16h-16Z" class="tabs-spacing-box_svg__h"/>
  <g class="tabs-spacing-box_svg__i">
    <path d="M483 134h69v21h-69Z" class="tabs-spacing-box_svg__j"/>
    <path d="M483.5 134.5h68v20h-68Z" class="tabs-spacing-box_svg__k"/>
  </g>
  <path d="M510 118h16v16h-16Z" class="tabs-spacing-box_svg__h"/>
  <path d="M451 134h32v21h-32Zm-33 0h32v21h-32Z" class="tabs-spacing-box_svg__g"/>
  <g class="tabs-spacing-box_svg__i">
    <path d="M350 134h68v21h-68Z" class="tabs-spacing-box_svg__j"/>
    <path d="M350.5 134.5h67v20h-67Z" class="tabs-spacing-box_svg__k"/>
  </g>
  <path d="M318 134h32v21h-32Zm-33 0h32v21h-32Z" class="tabs-spacing-box_svg__g"/>
  <path d="M243 155h16v16h-16Z" class="tabs-spacing-box_svg__h"/>
  <g class="tabs-spacing-box_svg__i">
    <path d="M217 134h68v21h-68Z" class="tabs-spacing-box_svg__j"/>
    <path d="M217.5 134.5h67v20h-67Z" class="tabs-spacing-box_svg__k"/>
  </g>
  <path d="M243 118h16v16h-16Z" class="tabs-spacing-box_svg__h"/>
  <path d="M185 134h32v21h-32Zm-33 0h32v21h-32Z" class="tabs-spacing-box_svg__g"/>
  <path d="M112 155h16v16h-16Z" class="tabs-spacing-box_svg__h"/>
  <g class="tabs-spacing-box_svg__i">
    <path d="M88 134h64v21H88Z" class="tabs-spacing-box_svg__j"/>
    <path d="M88.5 134.5h63v20h-63Z" class="tabs-spacing-box_svg__k"/>
  </g>
  <path d="M112 118h16v16h-16Z" class="tabs-spacing-box_svg__h"/>
  <path d="M56 134h32v21H56Z" class="tabs-spacing-box_svg__g"/>
  <path d="M40 137h16v16H40Zm-20 18h16v16H20Z" class="tabs-spacing-box_svg__h"/>
  <g class="tabs-spacing-box_svg__i">
    <path d="M16 134h24v21H16Z" class="tabs-spacing-box_svg__j"/>
    <path d="M16.5 134.5h23v20h-23Z" class="tabs-spacing-box_svg__k"/>
  </g>
  <path d="M20 118h16v16H20ZM0 137h16v16H0Z" class="tabs-spacing-box_svg__h"/>
  <path d="M0 53h872v1H0Z" class="tabs-spacing-box_svg__a"/>
  <path d="M561 0h132v53H561Z" class="tabs-spacing-box_svg__b"/>
  <path d="M593.448 30.16a6.318 6.318 0 0 0 4.576 2c2.752 0 4.276-1.584 4.276-3.376 0-1.648-.96-2.576-3.408-3.008l-1.792-.304c-1.38-.24-2.116-.672-2.116-1.772 0-1.392 1.344-2 2.672-2a5.937 5.937 0 0 1 3.728 1.36l.72-.928a7.091 7.091 0 0 0-4.416-1.472c-2.048-.004-3.888 1.02-3.888 3.132 0 1.584.944 2.432 2.96 2.784l1.808.3c1.808.32 2.5.848 2.5 1.968-.004 1.256-1.156 2.256-2.996 2.256a5.393 5.393 0 0 1-3.856-1.8Zm10.496-2.06a3.907 3.907 0 0 0 3.872 4.044 4.5 4.5 0 0 0 2.928-1.044l-.736-.8a3.191 3.191 0 0 1-2.144.8 2.81 2.81 0 0 1-2.764-2.764h6.128V28a3.7 3.7 0 0 0-3.588-3.936 3.812 3.812 0 0 0-3.696 4.036Zm3.68-3.008a2.572 2.572 0 0 1 2.432 2.428h-4.928a2.581 2.581 0 0 1 2.496-2.432Zm9.088 6a2.817 2.817 0 0 1-2.72-2.992 2.832 2.832 0 0 1 2.72-2.976 2.983 2.983 0 0 1 2.144.976l.752-.816a4.146 4.146 0 0 0-2.908-1.22 3.912 3.912 0 0 0-3.876 4.036 3.926 3.926 0 0 0 3.876 4.044 3.955 3.955 0 0 0 2.86-1.264l-.72-.72a2.791 2.791 0 0 1-2.128.928Zm5.68-.848c0 1.216.688 1.9 2.048 1.9a4.713 4.713 0 0 0 1.376-.208V30.9a2.881 2.881 0 0 1-1.1.208c-.832 0-1.152-.336-1.152-1.168v-4.788h2.256v-.96h-2.26v-2.256l-1.168.272v1.984h-1.616v.96h1.616Zm5.648-8.02a.83.83 0 0 0 .832-.848.826.826 0 0 0-.832-.832.826.826 0 0 0-.832.832.83.83 0 0 0 .832.848Zm.576 1.968h-1.168V32h1.168ZM630.6 28.1a3.867 3.867 0 0 0 3.792 4.06 3.873 3.873 0 0 0 3.824-4.06 3.845 3.845 0 0 0-3.824-4.032A3.839 3.839 0 0 0 630.6 28.1Zm6.448.016a2.756 2.756 0 0 1-2.656 3.004 2.742 2.742 0 0 1-2.624-3.008 2.767 2.767 0 0 1 2.624-3.024 2.771 2.771 0 0 1 2.656 3.024ZM640.184 32h1.168v-5.76a2.32 2.32 0 0 1 2.048-1.2 2.023 2.023 0 0 1 2.1 2.24V32h1.168v-5.056a2.722 2.722 0 0 0-2.816-2.88 2.813 2.813 0 0 0-2.5 1.408v-1.28h-1.168Zm12.464-5.6.8.256a5.424 5.424 0 0 1 2.448-.64A2.5 2.5 0 0 1 658.7 28.5a2.583 2.583 0 0 1-2.756 2.668 4.17 4.17 0 0 1-3.088-1.312l-.72.784a5.33 5.33 0 0 0 3.808 1.52 3.619 3.619 0 0 0 3.92-3.712c0-1.9-1.344-3.392-3.76-3.36a5.536 5.536 0 0 0-2.4.592l.176-3.872h5.392V20.8H652.9Z" class="tabs-spacing-box_svg__c"/>
  <path d="M560 0h1v53h-1Z" class="tabs-spacing-box_svg__a"/>
  <path d="M427 0h133v53H427Z" class="tabs-spacing-box_svg__b"/>
  <path d="M459.448 30.16a6.318 6.318 0 0 0 4.576 2c2.752 0 4.276-1.584 4.276-3.376 0-1.648-.96-2.576-3.408-3.008l-1.792-.304c-1.38-.24-2.116-.672-2.116-1.772 0-1.392 1.344-2 2.672-2a5.937 5.937 0 0 1 3.728 1.36l.72-.928a7.091 7.091 0 0 0-4.416-1.472c-2.048-.004-3.888 1.02-3.888 3.132 0 1.584.944 2.432 2.96 2.784l1.808.3c1.808.32 2.5.848 2.5 1.968-.004 1.256-1.156 2.256-2.996 2.256a5.393 5.393 0 0 1-3.856-1.8Zm10.496-2.06a3.907 3.907 0 0 0 3.872 4.044 4.5 4.5 0 0 0 2.928-1.044l-.736-.8a3.191 3.191 0 0 1-2.144.8 2.81 2.81 0 0 1-2.764-2.764h6.128V28a3.7 3.7 0 0 0-3.588-3.936 3.812 3.812 0 0 0-3.696 4.036Zm3.68-3.008a2.572 2.572 0 0 1 2.432 2.428h-4.928a2.581 2.581 0 0 1 2.496-2.432Zm9.088 6a2.817 2.817 0 0 1-2.72-2.992 2.832 2.832 0 0 1 2.72-2.976 2.983 2.983 0 0 1 2.144.976l.752-.816a4.146 4.146 0 0 0-2.908-1.22 3.912 3.912 0 0 0-3.876 4.036 3.926 3.926 0 0 0 3.876 4.044 3.955 3.955 0 0 0 2.86-1.264l-.72-.72a2.791 2.791 0 0 1-2.128.928Zm5.68-.848c0 1.216.688 1.9 2.048 1.9a4.713 4.713 0 0 0 1.376-.208V30.9a2.881 2.881 0 0 1-1.1.208c-.832 0-1.152-.336-1.152-1.168v-4.788h2.256v-.96h-2.26v-2.256l-1.168.272v1.984h-1.616v.96h1.616Zm5.648-8.02a.83.83 0 0 0 .832-.848.826.826 0 0 0-.832-.832.826.826 0 0 0-.832.832.83.83 0 0 0 .832.848Zm.576 1.968h-1.168V32h1.168ZM496.6 28.1a3.867 3.867 0 0 0 3.792 4.06 3.873 3.873 0 0 0 3.824-4.06 3.845 3.845 0 0 0-3.824-4.032A3.839 3.839 0 0 0 496.6 28.1Zm6.448.016a2.756 2.756 0 0 1-2.656 3.004 2.742 2.742 0 0 1-2.624-3.008 2.767 2.767 0 0 1 2.624-3.024 2.771 2.771 0 0 1 2.656 3.024ZM506.184 32h1.168v-5.76a2.32 2.32 0 0 1 2.048-1.2 2.023 2.023 0 0 1 2.1 2.24V32h1.168v-5.056a2.722 2.722 0 0 0-2.816-2.88 2.813 2.813 0 0 0-2.5 1.408v-1.28h-1.168Zm19.168-11.2h-1.232l-5.952 7.3v.912h6.048V32h1.136v-2.992h1.548V28h-1.548Zm-5.824 7.2 4.688-5.792V28Z" class="tabs-spacing-box_svg__c"/>
  <path d="M426 0h1v53h-1Z" class="tabs-spacing-box_svg__a"/>
  <path d="M294 0h132v54H294Z" class="tabs-spacing-box_svg__d"/>
  <path d="M326.448 30.16a6.318 6.318 0 0 0 4.576 2c2.752 0 4.276-1.584 4.276-3.376 0-1.648-.96-2.576-3.408-3.008l-1.792-.304c-1.38-.24-2.116-.672-2.116-1.772 0-1.392 1.344-2 2.672-2a5.937 5.937 0 0 1 3.728 1.36l.72-.928a7.091 7.091 0 0 0-4.416-1.472c-2.048-.004-3.888 1.02-3.888 3.132 0 1.584.944 2.432 2.96 2.784l1.808.3c1.808.32 2.5.848 2.5 1.968-.004 1.256-1.156 2.256-2.996 2.256a5.393 5.393 0 0 1-3.856-1.8Zm10.496-2.06a3.907 3.907 0 0 0 3.872 4.044 4.5 4.5 0 0 0 2.928-1.044l-.736-.8a3.191 3.191 0 0 1-2.144.8 2.81 2.81 0 0 1-2.764-2.764h6.128V28a3.7 3.7 0 0 0-3.588-3.936 3.812 3.812 0 0 0-3.696 4.036Zm3.68-3.008a2.572 2.572 0 0 1 2.432 2.428h-4.928a2.581 2.581 0 0 1 2.496-2.432Zm9.088 6a2.817 2.817 0 0 1-2.72-2.992 2.832 2.832 0 0 1 2.72-2.976 2.983 2.983 0 0 1 2.144.976l.752-.816a4.146 4.146 0 0 0-2.908-1.22 3.912 3.912 0 0 0-3.876 4.036 3.926 3.926 0 0 0 3.876 4.044 3.955 3.955 0 0 0 2.86-1.264l-.72-.72a2.791 2.791 0 0 1-2.128.928Zm5.68-.848c0 1.216.688 1.9 2.048 1.9a4.713 4.713 0 0 0 1.376-.208V30.9a2.881 2.881 0 0 1-1.1.208c-.832 0-1.152-.336-1.152-1.168v-4.788h2.256v-.96h-2.26v-2.256l-1.168.272v1.984h-1.616v.96h1.616Zm5.648-8.02a.83.83 0 0 0 .832-.848.826.826 0 0 0-.832-.832.826.826 0 0 0-.832.832.83.83 0 0 0 .832.848Zm.576 1.968h-1.168V32h1.168ZM363.6 28.1a3.867 3.867 0 0 0 3.792 4.06 3.873 3.873 0 0 0 3.824-4.06 3.845 3.845 0 0 0-3.824-4.032A3.839 3.839 0 0 0 363.6 28.1Zm6.448.016a2.756 2.756 0 0 1-2.656 3.004 2.742 2.742 0 0 1-2.624-3.008 2.767 2.767 0 0 1 2.624-3.024 2.771 2.771 0 0 1 2.656 3.024ZM373.184 32h1.168v-5.76a2.32 2.32 0 0 1 2.048-1.2 2.023 2.023 0 0 1 2.1 2.24V32h1.168v-5.056a2.722 2.722 0 0 0-2.816-2.88 2.813 2.813 0 0 0-2.5 1.408v-1.28h-1.168Zm19.776-3.072a2.879 2.879 0 0 0-2.512-2.688 2.7 2.7 0 0 0 2.1-2.544c0-1.744-1.52-3.072-3.568-3.072a4.969 4.969 0 0 0-3.716 1.616l.768.768a3.746 3.746 0 0 1 2.928-1.36 2.257 2.257 0 0 1 2.432 2.112 1.932 1.932 0 0 1-2.048 2.016h-1.28v.992h1.328a2.216 2.216 0 0 1 2.416 2.132c0 1.328-1.136 2.256-2.784 2.256a4.089 4.089 0 0 1-3.136-1.328l-.768.752a5.4 5.4 0 0 0 3.92 1.58c2.272 0 3.92-1.36 3.92-3.232Z" class="tabs-spacing-box_svg__e"/>
  <path d="M294 0h132v3H294Z" class="tabs-spacing-box_svg__f"/>
  <path d="M293 0h1v53h-1Z" class="tabs-spacing-box_svg__a"/>
  <path d="M161 0h132v53H161Z" class="tabs-spacing-box_svg__b"/>
  <path d="M193.448 30.16a6.318 6.318 0 0 0 4.576 2c2.752 0 4.276-1.584 4.276-3.376 0-1.648-.96-2.576-3.408-3.008l-1.792-.304c-1.38-.24-2.116-.672-2.116-1.772 0-1.392 1.344-2 2.672-2a5.937 5.937 0 0 1 3.728 1.36l.72-.928a7.091 7.091 0 0 0-4.416-1.472c-2.048-.004-3.888 1.02-3.888 3.132 0 1.584.944 2.432 2.96 2.784l1.808.3c1.808.32 2.5.848 2.5 1.968-.004 1.256-1.156 2.256-2.996 2.256a5.393 5.393 0 0 1-3.856-1.8Zm10.496-2.06a3.907 3.907 0 0 0 3.872 4.044 4.5 4.5 0 0 0 2.928-1.044l-.736-.8a3.191 3.191 0 0 1-2.144.8 2.81 2.81 0 0 1-2.764-2.764h6.128V28a3.7 3.7 0 0 0-3.588-3.936 3.812 3.812 0 0 0-3.696 4.036Zm3.68-3.008a2.572 2.572 0 0 1 2.432 2.428h-4.928a2.581 2.581 0 0 1 2.496-2.432Zm9.088 6a2.817 2.817 0 0 1-2.72-2.992 2.832 2.832 0 0 1 2.72-2.976 2.983 2.983 0 0 1 2.144.976l.752-.816a4.146 4.146 0 0 0-2.908-1.22 3.912 3.912 0 0 0-3.876 4.036 3.926 3.926 0 0 0 3.876 4.044 3.955 3.955 0 0 0 2.86-1.264l-.72-.72a2.791 2.791 0 0 1-2.128.928Zm5.68-.848c0 1.216.688 1.9 2.048 1.9a4.713 4.713 0 0 0 1.376-.208V30.9a2.881 2.881 0 0 1-1.1.208c-.832 0-1.152-.336-1.152-1.168v-4.788h2.256v-.96h-2.26v-2.256l-1.168.272v1.984h-1.616v.96h1.616Zm5.648-8.02a.83.83 0 0 0 .832-.848.826.826 0 0 0-.832-.832.826.826 0 0 0-.832.832.83.83 0 0 0 .832.848Zm.576 1.968h-1.168V32h1.168ZM230.6 28.1a3.867 3.867 0 0 0 3.792 4.06 3.873 3.873 0 0 0 3.824-4.06 3.845 3.845 0 0 0-3.824-4.032A3.839 3.839 0 0 0 230.6 28.1Zm6.448.016a2.756 2.756 0 0 1-2.656 3.004 2.742 2.742 0 0 1-2.624-3.008 2.767 2.767 0 0 1 2.624-3.024 2.771 2.771 0 0 1 2.656 3.024ZM240.184 32h1.168v-5.76a2.32 2.32 0 0 1 2.048-1.2 2.023 2.023 0 0 1 2.1 2.24V32h1.168v-5.056a2.722 2.722 0 0 0-2.816-2.88 2.813 2.813 0 0 0-2.5 1.408v-1.28h-1.168Zm12.16 0h7.216v-1.008h-5.744l3.76-4.16c1.2-1.332 1.744-2.032 1.744-3.264 0-1.68-1.44-2.912-3.472-2.912a5.271 5.271 0 0 0-3.648 1.584l.672.8a4.114 4.114 0 0 1 2.96-1.36 2.106 2.106 0 0 1 2.352 1.952c0 .848-.384 1.44-1.392 2.576l-4.448 4.944Z" class="tabs-spacing-box_svg__c"/>
  <path d="M160 0h1v53h-1Z" class="tabs-spacing-box_svg__a"/>
  <path d="M32 0h128v53H32Z" class="tabs-spacing-box_svg__b"/>
  <path d="M64.448 30.16a6.318 6.318 0 0 0 4.576 2c2.752 0 4.276-1.584 4.276-3.376 0-1.648-.96-2.576-3.408-3.008l-1.792-.304c-1.38-.24-2.116-.672-2.116-1.772 0-1.392 1.344-2 2.672-2a5.937 5.937 0 0 1 3.728 1.36l.72-.928a7.091 7.091 0 0 0-4.416-1.472c-2.048-.004-3.888 1.02-3.888 3.132 0 1.584.944 2.432 2.96 2.784l1.808.3c1.808.32 2.5.848 2.5 1.968-.004 1.256-1.156 2.256-2.996 2.256a5.393 5.393 0 0 1-3.856-1.8Zm10.496-2.06a3.907 3.907 0 0 0 3.872 4.044 4.5 4.5 0 0 0 2.928-1.044l-.736-.8a3.191 3.191 0 0 1-2.144.8 2.81 2.81 0 0 1-2.764-2.764h6.128V28a3.7 3.7 0 0 0-3.588-3.936 3.812 3.812 0 0 0-3.696 4.036Zm3.68-3.008a2.572 2.572 0 0 1 2.432 2.428h-4.928a2.581 2.581 0 0 1 2.496-2.432Zm9.088 6a2.817 2.817 0 0 1-2.72-2.992 2.832 2.832 0 0 1 2.72-2.976 2.983 2.983 0 0 1 2.144.976l.752-.816a4.146 4.146 0 0 0-2.908-1.22 3.912 3.912 0 0 0-3.876 4.036 3.926 3.926 0 0 0 3.876 4.044 3.955 3.955 0 0 0 2.86-1.264l-.72-.72a2.791 2.791 0 0 1-2.128.928Zm5.68-.848c0 1.216.688 1.9 2.048 1.9a4.713 4.713 0 0 0 1.376-.208V30.9a2.881 2.881 0 0 1-1.1.208c-.832 0-1.152-.336-1.152-1.168v-4.788h2.256v-.96h-2.26v-2.256l-1.168.272v1.984h-1.616v.96h1.616Zm5.648-8.02a.83.83 0 0 0 .832-.848.826.826 0 0 0-.832-.832.826.826 0 0 0-.832.832.83.83 0 0 0 .832.848Zm.576 1.968h-1.168V32h1.168ZM101.6 28.1a3.867 3.867 0 0 0 3.792 4.06 3.873 3.873 0 0 0 3.824-4.06 3.845 3.845 0 0 0-3.824-4.032A3.839 3.839 0 0 0 101.6 28.1Zm6.448.016a2.756 2.756 0 0 1-2.656 3.004 2.742 2.742 0 0 1-2.624-3.008 2.767 2.767 0 0 1 2.624-3.024 2.771 2.771 0 0 1 2.656 3.024ZM111.184 32h1.168v-5.76a2.32 2.32 0 0 1 2.048-1.2 2.023 2.023 0 0 1 2.1 2.24V32h1.168v-5.056a2.722 2.722 0 0 0-2.816-2.88 2.813 2.813 0 0 0-2.5 1.408v-1.28h-1.168Zm14.96-11.2h-.72l-2.224.992v1.056l1.792-.8V32h1.152Z" class="tabs-spacing-box_svg__c"/>
  <path d="M661 16h32v21h-32Z" class="tabs-spacing-box_svg__g"/>
  <path d="M619 37h16v16h-16Z" class="tabs-spacing-box_svg__h"/>
  <g class="tabs-spacing-box_svg__i">
    <path d="M593 16h68v21h-68Z" class="tabs-spacing-box_svg__j"/>
    <path d="M593.5 16.5h67v20h-67Z" class="tabs-spacing-box_svg__k"/>
  </g>
  <path d="M619 0h16v16h-16Z" class="tabs-spacing-box_svg__h"/>
  <path d="M561 16h32v21h-32Zm-33 0h32v21h-32Z" class="tabs-spacing-box_svg__g"/>
  <path d="M486 37h16v16h-16Z" class="tabs-spacing-box_svg__h"/>
  <g class="tabs-spacing-box_svg__i">
    <path d="M459 16h69v21h-69Z" class="tabs-spacing-box_svg__j"/>
    <path d="M459.5 16.5h68v20h-68Z" class="tabs-spacing-box_svg__k"/>
  </g>
  <path d="M486 0h16v16h-16Z" class="tabs-spacing-box_svg__h"/>
  <path d="M427 16h32v21h-32Zm-33 0h32v21h-32Z" class="tabs-spacing-box_svg__g"/>
  <g class="tabs-spacing-box_svg__i">
    <path d="M326 16h68v21h-68Z" class="tabs-spacing-box_svg__j"/>
    <path d="M326.5 16.5h67v20h-67Z" class="tabs-spacing-box_svg__k"/>
  </g>
  <path d="M294 16h32v21h-32Zm-33 0h32v21h-32Z" class="tabs-spacing-box_svg__g"/>
  <path d="M219 37h16v16h-16Z" class="tabs-spacing-box_svg__h"/>
  <g class="tabs-spacing-box_svg__i">
    <path d="M193 16h68v21h-68Z" class="tabs-spacing-box_svg__j"/>
    <path d="M193.5 16.5h67v20h-67Z" class="tabs-spacing-box_svg__k"/>
  </g>
  <path d="M219 0h16v16h-16Z" class="tabs-spacing-box_svg__h"/>
  <path d="M161 16h32v21h-32Zm-33 0h32v21h-32Z" class="tabs-spacing-box_svg__g"/>
  <path d="M88 37h16v16H88Z" class="tabs-spacing-box_svg__h"/>
  <g class="tabs-spacing-box_svg__i">
    <path d="M64 16h64v21H64Z" class="tabs-spacing-box_svg__j"/>
    <path d="M64.5 16.5h63v20h-63Z" class="tabs-spacing-box_svg__k"/>
  </g>
  <path d="M88 0h16v16H88Z" class="tabs-spacing-box_svg__h"/>
  <path d="M32 16h32v21H32Z" class="tabs-spacing-box_svg__g"/>
  <path fill="#1893d2" d="M0 11h32v32H0Z" opacity=".5"/>
</svg>
