<svg viewBox="0 0 872 451" xmlns="http://www.w3.org/2000/svg">
  <defs>
    <style>
      .tabs-interaction-states_svg__a{fill:#d2d2d2}.tabs-interaction-states_svg__b{fill:#f5f5f5}.tabs-interaction-states_svg__c{fill:#6a6e73}.tabs-interaction-states_svg__e{fill:#151515}.tabs-interaction-states_svg__f{fill:#e00}.tabs-interaction-states_svg__g,.tabs-interaction-states_svg__h,.tabs-interaction-states_svg__i,.tabs-interaction-states_svg__j,.tabs-interaction-states_svg__k,.tabs-interaction-states_svg__m{fill:none}.tabs-interaction-states_svg__g,.tabs-interaction-states_svg__h,.tabs-interaction-states_svg__i,.tabs-interaction-states_svg__j,.tabs-interaction-states_svg__k{stroke:#2261c5;stroke-width:2px}.tabs-interaction-states_svg__h{opacity:.8}.tabs-interaction-states_svg__i{opacity:.6}.tabs-interaction-states_svg__j{opacity:.4}.tabs-interaction-states_svg__k{opacity:.2}.tabs-interaction-states_svg__l{stroke:none}
    </style>
  </defs>
  <path d="M101 118h1v333h-1Z" class="tabs-interaction-states_svg__a"/>
  <path d="M0 366h101v53H0Z" class="tabs-interaction-states_svg__b"/>
  <path d="M16.448 396.16a6.318 6.318 0 0 0 4.576 2c2.752 0 4.276-1.584 4.276-3.376 0-1.648-.96-2.576-3.408-3.008l-1.792-.304c-1.38-.24-2.116-.672-2.116-1.772 0-1.392 1.344-2 2.672-2a5.937 5.937 0 0 1 3.728 1.36l.72-.928a7.091 7.091 0 0 0-4.416-1.472c-2.048-.004-3.888 1.02-3.888 3.132 0 1.584.944 2.432 2.96 2.784l1.808.3c1.808.32 2.5.848 2.5 1.968-.004 1.256-1.156 2.256-2.996 2.256a5.393 5.393 0 0 1-3.856-1.8Zm10.496-2.06a3.907 3.907 0 0 0 3.872 4.044 4.5 4.5 0 0 0 2.928-1.044l-.736-.8a3.191 3.191 0 0 1-2.144.8 2.81 2.81 0 0 1-2.764-2.764h6.128V394a3.7 3.7 0 0 0-3.588-3.936 3.812 3.812 0 0 0-3.696 4.036Zm3.68-3.008a2.572 2.572 0 0 1 2.432 2.428h-4.928a2.581 2.581 0 0 1 2.496-2.432Zm9.088 6a2.817 2.817 0 0 1-2.72-2.992 2.832 2.832 0 0 1 2.72-2.976 2.983 2.983 0 0 1 2.144.976l.752-.816a4.146 4.146 0 0 0-2.908-1.22 3.912 3.912 0 0 0-3.876 4.036 3.926 3.926 0 0 0 3.876 4.044 3.955 3.955 0 0 0 2.86-1.264l-.72-.72a2.791 2.791 0 0 1-2.128.928Zm5.68-.848c0 1.216.688 1.9 2.048 1.9a4.713 4.713 0 0 0 1.376-.208V396.9a2.881 2.881 0 0 1-1.1.208c-.832 0-1.152-.336-1.152-1.168v-4.788h2.256v-.96h-2.26v-2.256l-1.168.272v1.984h-1.616v.96h1.616Zm5.648-8.02a.83.83 0 0 0 .832-.848.826.826 0 0 0-.832-.832.826.826 0 0 0-.832.832.83.83 0 0 0 .832.848Zm.576 1.968h-1.168V398h1.168ZM53.6 394.1a3.867 3.867 0 0 0 3.792 4.06 3.873 3.873 0 0 0 3.824-4.06 3.845 3.845 0 0 0-3.824-4.032A3.839 3.839 0 0 0 53.6 394.1Zm6.448.016a2.756 2.756 0 0 1-2.656 3.004 2.742 2.742 0 0 1-2.624-3.008 2.767 2.767 0 0 1 2.624-3.024 2.771 2.771 0 0 1 2.656 3.024ZM63.184 398h1.168v-5.76a2.32 2.32 0 0 1 2.048-1.2 2.023 2.023 0 0 1 2.1 2.24V398h1.168v-5.056a2.722 2.722 0 0 0-2.816-2.88 2.813 2.813 0 0 0-2.5 1.408v-1.28h-1.168Zm12.464-5.6.8.256a5.424 5.424 0 0 1 2.448-.64A2.5 2.5 0 0 1 81.7 394.5a2.583 2.583 0 0 1-2.756 2.668 4.17 4.17 0 0 1-3.088-1.312l-.72.784a5.33 5.33 0 0 0 3.808 1.52 3.619 3.619 0 0 0 3.92-3.712c0-1.9-1.344-3.392-3.76-3.36a5.536 5.536 0 0 0-2.4.592l.176-3.872h5.392V386.8H75.9Z" class="tabs-interaction-states_svg__c"/>
  <path d="M0 365h101v1H0Z" class="tabs-interaction-states_svg__a"/>
  <path d="M0 312h101v53H0Z" class="tabs-interaction-states_svg__b"/>
  <path d="M16.448 342.16a6.318 6.318 0 0 0 4.576 2c2.752 0 4.276-1.584 4.276-3.376 0-1.648-.96-2.576-3.408-3.008l-1.792-.304c-1.38-.24-2.116-.672-2.116-1.772 0-1.392 1.344-2 2.672-2a5.937 5.937 0 0 1 3.728 1.36l.72-.928a7.091 7.091 0 0 0-4.416-1.472c-2.048-.004-3.888 1.02-3.888 3.132 0 1.584.944 2.432 2.96 2.784l1.808.3c1.808.32 2.5.848 2.5 1.968-.004 1.256-1.156 2.256-2.996 2.256a5.393 5.393 0 0 1-3.856-1.8Zm10.496-2.06a3.907 3.907 0 0 0 3.872 4.044 4.5 4.5 0 0 0 2.928-1.044l-.736-.8a3.191 3.191 0 0 1-2.144.8 2.81 2.81 0 0 1-2.764-2.764h6.128V340a3.7 3.7 0 0 0-3.588-3.936 3.812 3.812 0 0 0-3.696 4.036Zm3.68-3.008a2.572 2.572 0 0 1 2.432 2.428h-4.928a2.581 2.581 0 0 1 2.496-2.432Zm9.088 6a2.817 2.817 0 0 1-2.72-2.992 2.832 2.832 0 0 1 2.72-2.976 2.983 2.983 0 0 1 2.144.976l.752-.816a4.146 4.146 0 0 0-2.908-1.22 3.912 3.912 0 0 0-3.876 4.036 3.926 3.926 0 0 0 3.876 4.044 3.955 3.955 0 0 0 2.86-1.264l-.72-.72a2.791 2.791 0 0 1-2.128.928Zm5.68-.848c0 1.216.688 1.9 2.048 1.9a4.713 4.713 0 0 0 1.376-.208V342.9a2.881 2.881 0 0 1-1.1.208c-.832 0-1.152-.336-1.152-1.168v-4.788h2.256v-.96h-2.26v-2.256l-1.168.272v1.984h-1.616v.96h1.616Zm5.648-8.02a.83.83 0 0 0 .832-.848.826.826 0 0 0-.832-.832.826.826 0 0 0-.832.832.83.83 0 0 0 .832.848Zm.576 1.968h-1.168V344h1.168ZM53.6 340.1a3.867 3.867 0 0 0 3.792 4.06 3.873 3.873 0 0 0 3.824-4.06 3.845 3.845 0 0 0-3.824-4.032A3.839 3.839 0 0 0 53.6 340.1Zm6.448.016a2.756 2.756 0 0 1-2.656 3.004 2.742 2.742 0 0 1-2.624-3.008 2.767 2.767 0 0 1 2.624-3.024 2.771 2.771 0 0 1 2.656 3.024ZM63.184 344h1.168v-5.76a2.32 2.32 0 0 1 2.048-1.2 2.023 2.023 0 0 1 2.1 2.24V344h1.168v-5.056a2.722 2.722 0 0 0-2.816-2.88 2.813 2.813 0 0 0-2.5 1.408v-1.28h-1.168Zm19.168-11.2H81.12l-5.952 7.3v.912h6.048V344h1.136v-2.992H83.9V340h-1.548Zm-5.824 7.2 4.688-5.792V340Z" class="tabs-interaction-states_svg__c"/>
  <path d="M0 311h101v1H0Z" class="tabs-interaction-states_svg__a"/>
  <path fill="#fff" d="M0 258h102v53H0Z"/>
  <path d="M16.448 288.16a6.318 6.318 0 0 0 4.576 2c2.752 0 4.276-1.584 4.276-3.376 0-1.648-.96-2.576-3.408-3.008l-1.792-.304c-1.38-.24-2.116-.672-2.116-1.772 0-1.392 1.344-2 2.672-2a5.937 5.937 0 0 1 3.728 1.36l.72-.928a7.091 7.091 0 0 0-4.416-1.472c-2.048-.004-3.888 1.02-3.888 3.132 0 1.584.944 2.432 2.96 2.784l1.808.3c1.808.32 2.5.848 2.5 1.968-.004 1.256-1.156 2.256-2.996 2.256a5.393 5.393 0 0 1-3.856-1.8Zm10.496-2.06a3.907 3.907 0 0 0 3.872 4.044 4.5 4.5 0 0 0 2.928-1.044l-.736-.8a3.191 3.191 0 0 1-2.144.8 2.81 2.81 0 0 1-2.764-2.764h6.128V286a3.7 3.7 0 0 0-3.588-3.936 3.812 3.812 0 0 0-3.696 4.036Zm3.68-3.008a2.572 2.572 0 0 1 2.432 2.428h-4.928a2.581 2.581 0 0 1 2.496-2.432Zm9.088 6a2.817 2.817 0 0 1-2.72-2.992 2.832 2.832 0 0 1 2.72-2.976 2.983 2.983 0 0 1 2.144.976l.752-.816a4.146 4.146 0 0 0-2.908-1.22 3.912 3.912 0 0 0-3.876 4.036 3.926 3.926 0 0 0 3.876 4.044 3.955 3.955 0 0 0 2.86-1.264l-.72-.72a2.791 2.791 0 0 1-2.128.928Zm5.68-.848c0 1.216.688 1.9 2.048 1.9a4.713 4.713 0 0 0 1.376-.208V288.9a2.881 2.881 0 0 1-1.1.208c-.832 0-1.152-.336-1.152-1.168v-4.788h2.256v-.96h-2.26v-2.256l-1.168.272v1.984h-1.616v.96h1.616Zm5.648-8.02a.83.83 0 0 0 .832-.848.826.826 0 0 0-.832-.832.826.826 0 0 0-.832.832.83.83 0 0 0 .832.848Zm.576 1.968h-1.168V290h1.168ZM53.6 286.1a3.867 3.867 0 0 0 3.792 4.06 3.873 3.873 0 0 0 3.824-4.06 3.845 3.845 0 0 0-3.824-4.032A3.839 3.839 0 0 0 53.6 286.1Zm6.448.016a2.756 2.756 0 0 1-2.656 3.004 2.742 2.742 0 0 1-2.624-3.008 2.767 2.767 0 0 1 2.624-3.024 2.771 2.771 0 0 1 2.656 3.024ZM63.184 290h1.168v-5.76a2.32 2.32 0 0 1 2.048-1.2 2.023 2.023 0 0 1 2.1 2.24V290h1.168v-5.056a2.722 2.722 0 0 0-2.816-2.88 2.813 2.813 0 0 0-2.5 1.408v-1.28h-1.168Zm19.776-3.072a2.879 2.879 0 0 0-2.512-2.688 2.7 2.7 0 0 0 2.1-2.544c0-1.744-1.52-3.072-3.568-3.072a4.969 4.969 0 0 0-3.716 1.616l.768.768a3.746 3.746 0 0 1 2.928-1.36 2.257 2.257 0 0 1 2.432 2.112 1.932 1.932 0 0 1-2.048 2.016h-1.28v.992h1.328a2.216 2.216 0 0 1 2.416 2.132c0 1.328-1.136 2.256-2.784 2.256a4.089 4.089 0 0 1-3.136-1.328l-.768.752a5.4 5.4 0 0 0 3.92 1.58c2.272 0 3.92-1.36 3.92-3.232Z" class="tabs-interaction-states_svg__e"/>
  <path d="M0 258h3v53H0Z" class="tabs-interaction-states_svg__f"/>
  <path d="M0 257h101v1H0Z" class="tabs-interaction-states_svg__a"/>
  <path d="M0 204h101v53H0Z" class="tabs-interaction-states_svg__b"/>
  <path d="M16.448 234.16a6.318 6.318 0 0 0 4.576 2c2.752 0 4.276-1.584 4.276-3.376 0-1.648-.96-2.576-3.408-3.008l-1.792-.304c-1.38-.24-2.116-.672-2.116-1.772 0-1.392 1.344-2 2.672-2a5.937 5.937 0 0 1 3.728 1.36l.72-.928a7.091 7.091 0 0 0-4.416-1.472c-2.048-.004-3.888 1.02-3.888 3.132 0 1.584.944 2.432 2.96 2.784l1.808.3c1.808.32 2.5.848 2.5 1.968-.004 1.256-1.156 2.256-2.996 2.256a5.393 5.393 0 0 1-3.856-1.8Zm10.496-2.06a3.907 3.907 0 0 0 3.872 4.044 4.5 4.5 0 0 0 2.928-1.044l-.736-.8a3.191 3.191 0 0 1-2.144.8 2.81 2.81 0 0 1-2.764-2.764h6.128V232a3.7 3.7 0 0 0-3.588-3.936 3.812 3.812 0 0 0-3.696 4.036Zm3.68-3.008a2.572 2.572 0 0 1 2.432 2.428h-4.928a2.581 2.581 0 0 1 2.496-2.432Zm9.088 6a2.817 2.817 0 0 1-2.72-2.992 2.832 2.832 0 0 1 2.72-2.976 2.983 2.983 0 0 1 2.144.976l.752-.816a4.146 4.146 0 0 0-2.908-1.22 3.912 3.912 0 0 0-3.876 4.036 3.926 3.926 0 0 0 3.876 4.044 3.955 3.955 0 0 0 2.86-1.264l-.72-.72a2.791 2.791 0 0 1-2.128.928Zm5.68-.848c0 1.216.688 1.9 2.048 1.9a4.713 4.713 0 0 0 1.376-.208V234.9a2.881 2.881 0 0 1-1.1.208c-.832 0-1.152-.336-1.152-1.168v-4.788h2.256v-.96h-2.26v-2.256l-1.168.272v1.984h-1.616v.96h1.616Zm5.648-8.02a.83.83 0 0 0 .832-.848.826.826 0 0 0-.832-.832.826.826 0 0 0-.832.832.83.83 0 0 0 .832.848Zm.576 1.968h-1.168V236h1.168ZM53.6 232.1a3.867 3.867 0 0 0 3.792 4.06 3.873 3.873 0 0 0 3.824-4.06 3.845 3.845 0 0 0-3.824-4.032A3.839 3.839 0 0 0 53.6 232.1Zm6.448.016a2.756 2.756 0 0 1-2.656 3.004 2.742 2.742 0 0 1-2.624-3.008 2.767 2.767 0 0 1 2.624-3.024 2.771 2.771 0 0 1 2.656 3.024ZM63.184 236h1.168v-5.76a2.32 2.32 0 0 1 2.048-1.2 2.023 2.023 0 0 1 2.1 2.24V236h1.168v-5.056a2.722 2.722 0 0 0-2.816-2.88 2.813 2.813 0 0 0-2.5 1.408v-1.28h-1.168Zm12.16 0h7.216v-1.008h-5.744l3.76-4.16c1.2-1.332 1.744-2.032 1.744-3.264 0-1.68-1.44-2.912-3.472-2.912a5.271 5.271 0 0 0-3.648 1.584l.672.8a4.114 4.114 0 0 1 2.96-1.36 2.106 2.106 0 0 1 2.352 1.952c0 .848-.384 1.44-1.392 2.576l-4.448 4.944Z" class="tabs-interaction-states_svg__c"/>
  <path d="M0 203h101v1H0Z" class="tabs-interaction-states_svg__a"/>
  <path d="M0 150h101v53H0Z" class="tabs-interaction-states_svg__b"/>
  <path d="M16.448 180.16a6.318 6.318 0 0 0 4.576 2c2.752 0 4.276-1.584 4.276-3.376 0-1.648-.96-2.576-3.408-3.008l-1.792-.304c-1.38-.24-2.116-.672-2.116-1.772 0-1.392 1.344-2 2.672-2a5.937 5.937 0 0 1 3.728 1.36l.72-.928a7.091 7.091 0 0 0-4.416-1.472c-2.048-.004-3.888 1.02-3.888 3.132 0 1.584.944 2.432 2.96 2.784l1.808.3c1.808.32 2.5.848 2.5 1.968-.004 1.256-1.156 2.256-2.996 2.256a5.393 5.393 0 0 1-3.856-1.8Zm10.496-2.06a3.907 3.907 0 0 0 3.872 4.044 4.5 4.5 0 0 0 2.928-1.044l-.736-.8a3.191 3.191 0 0 1-2.144.8 2.81 2.81 0 0 1-2.764-2.764h6.128V178a3.7 3.7 0 0 0-3.588-3.936 3.812 3.812 0 0 0-3.696 4.036Zm3.68-3.008a2.572 2.572 0 0 1 2.432 2.428h-4.928a2.581 2.581 0 0 1 2.496-2.432Zm9.088 6a2.817 2.817 0 0 1-2.72-2.992 2.832 2.832 0 0 1 2.72-2.976 2.983 2.983 0 0 1 2.144.976l.752-.816a4.146 4.146 0 0 0-2.908-1.22 3.912 3.912 0 0 0-3.876 4.036 3.926 3.926 0 0 0 3.876 4.044 3.955 3.955 0 0 0 2.86-1.264l-.72-.72a2.791 2.791 0 0 1-2.128.928Zm5.68-.848c0 1.216.688 1.9 2.048 1.9a4.713 4.713 0 0 0 1.376-.208V180.9a2.881 2.881 0 0 1-1.1.208c-.832 0-1.152-.336-1.152-1.168v-4.788h2.256v-.96h-2.26v-2.256l-1.168.272v1.984h-1.616v.96h1.616Zm5.648-8.02a.83.83 0 0 0 .832-.848.826.826 0 0 0-.832-.832.826.826 0 0 0-.832.832.83.83 0 0 0 .832.848Zm.576 1.968h-1.168V182h1.168ZM53.6 178.1a3.867 3.867 0 0 0 3.792 4.06 3.873 3.873 0 0 0 3.824-4.06 3.845 3.845 0 0 0-3.824-4.032A3.839 3.839 0 0 0 53.6 178.1Zm6.448.016a2.756 2.756 0 0 1-2.656 3.004 2.742 2.742 0 0 1-2.624-3.008 2.767 2.767 0 0 1 2.624-3.024 2.771 2.771 0 0 1 2.656 3.024ZM63.184 182h1.168v-5.76a2.32 2.32 0 0 1 2.048-1.2 2.023 2.023 0 0 1 2.1 2.24V182h1.168v-5.056a2.722 2.722 0 0 0-2.816-2.88 2.813 2.813 0 0 0-2.5 1.408v-1.28h-1.168Zm14.96-11.2h-.72l-2.224.992v1.056l1.792-.8V182h1.152Z" class="tabs-interaction-states_svg__c"/>
  <g class="tabs-interaction-states_svg__g" transform="translate(0 366)">
    <rect width="101" height="53" class="tabs-interaction-states_svg__l" rx="3"/>
    <rect width="99" height="51" x="1" y="1" class="tabs-interaction-states_svg__m" rx="2"/>
  </g>
  <g class="tabs-interaction-states_svg__h" transform="translate(0 312)">
    <rect width="101" height="53" class="tabs-interaction-states_svg__l" rx="3"/>
    <rect width="99" height="51" x="1" y="1" class="tabs-interaction-states_svg__m" rx="2"/>
  </g>
  <g class="tabs-interaction-states_svg__i" transform="translate(0 258)">
    <rect width="101" height="53" class="tabs-interaction-states_svg__l" rx="3"/>
    <rect width="99" height="51" x="1" y="1" class="tabs-interaction-states_svg__m" rx="2"/>
  </g>
  <g class="tabs-interaction-states_svg__j" transform="translate(0 204)">
    <rect width="101" height="53" class="tabs-interaction-states_svg__l" rx="3"/>
    <rect width="99" height="51" x="1" y="1" class="tabs-interaction-states_svg__m" rx="2"/>
  </g>
  <g class="tabs-interaction-states_svg__k" transform="translate(0 150)">
    <rect width="101" height="53" class="tabs-interaction-states_svg__l" rx="3"/>
    <rect width="99" height="51" x="1" y="1" class="tabs-interaction-states_svg__m" rx="2"/>
  </g>
  <path d="M0 53h872v1H0Z" class="tabs-interaction-states_svg__a"/>
  <path d="M665.448 30.16a6.318 6.318 0 0 0 4.576 2c2.752 0 4.276-1.584 4.276-3.376 0-1.648-.96-2.576-3.408-3.008l-1.792-.304c-1.38-.24-2.116-.672-2.116-1.772 0-1.392 1.344-2 2.672-2a5.937 5.937 0 0 1 3.728 1.36l.72-.928a7.091 7.091 0 0 0-4.416-1.472c-2.048-.004-3.888 1.02-3.888 3.132 0 1.584.944 2.432 2.96 2.784l1.808.3c1.808.32 2.5.848 2.5 1.968-.004 1.256-1.156 2.256-2.996 2.256a5.393 5.393 0 0 1-3.856-1.8Zm10.496-2.06a3.907 3.907 0 0 0 3.872 4.044 4.5 4.5 0 0 0 2.928-1.044l-.736-.8a3.191 3.191 0 0 1-2.144.8 2.81 2.81 0 0 1-2.764-2.764h6.128V28a3.7 3.7 0 0 0-3.588-3.936 3.812 3.812 0 0 0-3.696 4.036Zm3.68-3.008a2.572 2.572 0 0 1 2.432 2.428h-4.928a2.581 2.581 0 0 1 2.496-2.432Zm9.088 6a2.817 2.817 0 0 1-2.72-2.992 2.832 2.832 0 0 1 2.72-2.976 2.983 2.983 0 0 1 2.144.976l.752-.816a4.146 4.146 0 0 0-2.908-1.22 3.912 3.912 0 0 0-3.876 4.036 3.926 3.926 0 0 0 3.876 4.044 3.955 3.955 0 0 0 2.86-1.264l-.72-.72a2.791 2.791 0 0 1-2.128.928Zm5.68-.848c0 1.216.688 1.9 2.048 1.9a4.713 4.713 0 0 0 1.376-.208V30.9a2.881 2.881 0 0 1-1.1.208c-.832 0-1.152-.336-1.152-1.168v-4.788h2.256v-.96h-2.26v-2.256l-1.168.272v1.984h-1.616v.96h1.616Zm5.648-8.02a.83.83 0 0 0 .832-.848.826.826 0 0 0-.832-.832.826.826 0 0 0-.832.832.83.83 0 0 0 .832.848Zm.576 1.968h-1.168V32h1.168ZM702.6 28.1a3.867 3.867 0 0 0 3.792 4.06 3.873 3.873 0 0 0 3.824-4.06 3.845 3.845 0 0 0-3.824-4.032A3.839 3.839 0 0 0 702.6 28.1Zm6.448.016a2.756 2.756 0 0 1-2.656 3.004 2.742 2.742 0 0 1-2.624-3.008 2.767 2.767 0 0 1 2.624-3.024 2.771 2.771 0 0 1 2.656 3.024ZM712.184 32h1.168v-5.76a2.32 2.32 0 0 1 2.048-1.2 2.023 2.023 0 0 1 2.1 2.24V32h1.168v-5.056a2.722 2.722 0 0 0-2.816-2.88 2.813 2.813 0 0 0-2.5 1.408v-1.28h-1.168Zm12.464-5.6.8.256a5.424 5.424 0 0 1 2.448-.64A2.5 2.5 0 0 1 730.7 28.5a2.583 2.583 0 0 1-2.756 2.668 4.17 4.17 0 0 1-3.088-1.312l-.72.784a5.33 5.33 0 0 0 3.808 1.52 3.619 3.619 0 0 0 3.92-3.712c0-1.9-1.344-3.392-3.76-3.36a5.536 5.536 0 0 0-2.4.592l.176-3.872h5.392V20.8H724.9Zm-192.2 3.76a6.318 6.318 0 0 0 4.576 2c2.752 0 4.276-1.584 4.276-3.376 0-1.648-.96-2.576-3.408-3.008l-1.792-.304c-1.38-.24-2.116-.672-2.116-1.772 0-1.392 1.344-2 2.672-2a5.937 5.937 0 0 1 3.728 1.36l.72-.928a7.091 7.091 0 0 0-4.416-1.472c-2.048-.004-3.888 1.02-3.888 3.132 0 1.584.944 2.432 2.96 2.784l1.808.3c1.808.32 2.5.848 2.5 1.968-.004 1.256-1.156 2.256-2.996 2.256a5.393 5.393 0 0 1-3.856-1.8Zm10.496-2.06a3.907 3.907 0 0 0 3.872 4.044 4.5 4.5 0 0 0 2.928-1.044l-.736-.8a3.191 3.191 0 0 1-2.144.8 2.81 2.81 0 0 1-2.764-2.764h6.128V28a3.7 3.7 0 0 0-3.588-3.936 3.812 3.812 0 0 0-3.696 4.036Zm3.68-3.008a2.572 2.572 0 0 1 2.432 2.428h-4.928a2.581 2.581 0 0 1 2.496-2.432Zm9.088 6a2.817 2.817 0 0 1-2.72-2.992 2.832 2.832 0 0 1 2.72-2.976 2.983 2.983 0 0 1 2.144.976l.752-.816a4.146 4.146 0 0 0-2.908-1.22 3.912 3.912 0 0 0-3.876 4.036 3.926 3.926 0 0 0 3.876 4.044 3.955 3.955 0 0 0 2.86-1.264l-.72-.72a2.791 2.791 0 0 1-2.128.928Zm5.68-.848c0 1.216.688 1.9 2.048 1.9a4.713 4.713 0 0 0 1.376-.208V30.9a2.881 2.881 0 0 1-1.1.208c-.832 0-1.152-.336-1.152-1.168v-4.788h2.256v-.96h-2.26v-2.256l-1.168.272v1.984h-1.616v.96h1.616Zm5.648-8.02a.83.83 0 0 0 .832-.848.826.826 0 0 0-.832-.832.826.826 0 0 0-.832.832.83.83 0 0 0 .832.848Zm.576 1.968h-1.168V32h1.168ZM569.6 28.1a3.867 3.867 0 0 0 3.792 4.06 3.873 3.873 0 0 0 3.824-4.06 3.845 3.845 0 0 0-3.824-4.032A3.839 3.839 0 0 0 569.6 28.1Zm6.448.016a2.756 2.756 0 0 1-2.656 3.004 2.742 2.742 0 0 1-2.624-3.008 2.767 2.767 0 0 1 2.624-3.024 2.771 2.771 0 0 1 2.656 3.024ZM579.184 32h1.168v-5.76a2.32 2.32 0 0 1 2.048-1.2 2.023 2.023 0 0 1 2.1 2.24V32h1.168v-5.056a2.722 2.722 0 0 0-2.816-2.88 2.813 2.813 0 0 0-2.5 1.408v-1.28h-1.168Zm19.168-11.2h-1.232l-5.952 7.3v.912h6.048V32h1.136v-2.992h1.548V28h-1.548Zm-5.824 7.2 4.688-5.792V28Z" class="tabs-interaction-states_svg__c"/>
  <path d="M368 51h132v3H368Z" class="tabs-interaction-states_svg__f"/>
  <path d="M400.448 30.16a6.318 6.318 0 0 0 4.576 2c2.752 0 4.276-1.584 4.276-3.376 0-1.648-.96-2.576-3.408-3.008l-1.792-.304c-1.38-.24-2.116-.672-2.116-1.772 0-1.392 1.344-2 2.672-2a5.937 5.937 0 0 1 3.728 1.36l.72-.928a7.091 7.091 0 0 0-4.416-1.472c-2.048-.004-3.888 1.02-3.888 3.132 0 1.584.944 2.432 2.96 2.784l1.808.3c1.808.32 2.5.848 2.5 1.968-.004 1.256-1.156 2.256-2.996 2.256a5.393 5.393 0 0 1-3.856-1.8Zm10.496-2.06a3.907 3.907 0 0 0 3.872 4.044 4.5 4.5 0 0 0 2.928-1.044l-.736-.8a3.191 3.191 0 0 1-2.144.8 2.81 2.81 0 0 1-2.764-2.764h6.128V28a3.7 3.7 0 0 0-3.588-3.936 3.812 3.812 0 0 0-3.696 4.036Zm3.68-3.008a2.572 2.572 0 0 1 2.432 2.428h-4.928a2.581 2.581 0 0 1 2.496-2.432Zm9.088 6a2.817 2.817 0 0 1-2.72-2.992 2.832 2.832 0 0 1 2.72-2.976 2.983 2.983 0 0 1 2.144.976l.752-.816a4.146 4.146 0 0 0-2.908-1.22 3.912 3.912 0 0 0-3.876 4.036 3.926 3.926 0 0 0 3.876 4.044 3.955 3.955 0 0 0 2.86-1.264l-.72-.72a2.791 2.791 0 0 1-2.128.928Zm5.68-.848c0 1.216.688 1.9 2.048 1.9a4.713 4.713 0 0 0 1.376-.208V30.9a2.881 2.881 0 0 1-1.1.208c-.832 0-1.152-.336-1.152-1.168v-4.788h2.256v-.96h-2.26v-2.256l-1.168.272v1.984h-1.616v.96h1.616Zm5.648-8.02a.83.83 0 0 0 .832-.848.826.826 0 0 0-.832-.832.826.826 0 0 0-.832.832.83.83 0 0 0 .832.848Zm.576 1.968h-1.168V32h1.168ZM437.6 28.1a3.867 3.867 0 0 0 3.792 4.06 3.873 3.873 0 0 0 3.824-4.06 3.845 3.845 0 0 0-3.824-4.032A3.839 3.839 0 0 0 437.6 28.1Zm6.448.016a2.756 2.756 0 0 1-2.656 3.004 2.742 2.742 0 0 1-2.624-3.008 2.767 2.767 0 0 1 2.624-3.024 2.771 2.771 0 0 1 2.656 3.024ZM447.184 32h1.168v-5.76a2.32 2.32 0 0 1 2.048-1.2 2.023 2.023 0 0 1 2.1 2.24V32h1.168v-5.056a2.722 2.722 0 0 0-2.816-2.88 2.813 2.813 0 0 0-2.5 1.408v-1.28h-1.168Zm19.776-3.072a2.879 2.879 0 0 0-2.512-2.688 2.7 2.7 0 0 0 2.1-2.544c0-1.744-1.52-3.072-3.568-3.072a4.969 4.969 0 0 0-3.716 1.616l.768.768a3.746 3.746 0 0 1 2.928-1.36 2.257 2.257 0 0 1 2.432 2.112 1.932 1.932 0 0 1-2.048 2.016h-1.28v.992h1.328a2.216 2.216 0 0 1 2.416 2.132c0 1.328-1.136 2.256-2.784 2.256a4.089 4.089 0 0 1-3.136-1.328l-.768.752a5.4 5.4 0 0 0 3.92 1.58c2.272 0 3.92-1.36 3.92-3.232Z" class="tabs-interaction-states_svg__e"/>
  <path d="M268.448 30.16a6.318 6.318 0 0 0 4.576 2c2.752 0 4.276-1.584 4.276-3.376 0-1.648-.96-2.576-3.408-3.008l-1.792-.304c-1.38-.24-2.116-.672-2.116-1.772 0-1.392 1.344-2 2.672-2a5.937 5.937 0 0 1 3.728 1.36l.72-.928a7.091 7.091 0 0 0-4.416-1.472c-2.048-.004-3.888 1.02-3.888 3.132 0 1.584.944 2.432 2.96 2.784l1.808.3c1.808.32 2.5.848 2.5 1.968-.004 1.256-1.156 2.256-2.996 2.256a5.393 5.393 0 0 1-3.856-1.8Zm10.496-2.06a3.907 3.907 0 0 0 3.872 4.044 4.5 4.5 0 0 0 2.928-1.044l-.736-.8a3.191 3.191 0 0 1-2.144.8 2.81 2.81 0 0 1-2.764-2.764h6.128V28a3.7 3.7 0 0 0-3.588-3.936 3.812 3.812 0 0 0-3.696 4.036Zm3.68-3.008a2.572 2.572 0 0 1 2.432 2.428h-4.928a2.581 2.581 0 0 1 2.496-2.432Zm9.088 6a2.817 2.817 0 0 1-2.72-2.992 2.832 2.832 0 0 1 2.72-2.976 2.983 2.983 0 0 1 2.144.976l.752-.816a4.146 4.146 0 0 0-2.908-1.22 3.912 3.912 0 0 0-3.876 4.036 3.926 3.926 0 0 0 3.876 4.044 3.955 3.955 0 0 0 2.86-1.264l-.72-.72a2.791 2.791 0 0 1-2.128.928Zm5.68-.848c0 1.216.688 1.9 2.048 1.9a4.713 4.713 0 0 0 1.376-.208V30.9a2.881 2.881 0 0 1-1.1.208c-.832 0-1.152-.336-1.152-1.168v-4.788h2.256v-.96h-2.26v-2.256l-1.168.272v1.984h-1.616v.96h1.616Zm5.648-8.02a.83.83 0 0 0 .832-.848.826.826 0 0 0-.832-.832.826.826 0 0 0-.832.832.83.83 0 0 0 .832.848Zm.576 1.968h-1.168V32h1.168ZM305.6 28.1a3.867 3.867 0 0 0 3.792 4.06 3.873 3.873 0 0 0 3.824-4.06 3.845 3.845 0 0 0-3.824-4.032A3.839 3.839 0 0 0 305.6 28.1Zm6.448.016a2.756 2.756 0 0 1-2.656 3.004 2.742 2.742 0 0 1-2.624-3.008 2.767 2.767 0 0 1 2.624-3.024 2.771 2.771 0 0 1 2.656 3.024ZM315.184 32h1.168v-5.76a2.32 2.32 0 0 1 2.048-1.2 2.023 2.023 0 0 1 2.1 2.24V32h1.168v-5.056a2.722 2.722 0 0 0-2.816-2.88 2.813 2.813 0 0 0-2.5 1.408v-1.28h-1.168Zm12.16 0h7.216v-1.008h-5.744l3.76-4.16c1.2-1.332 1.744-2.032 1.744-3.264 0-1.68-1.44-2.912-3.472-2.912a5.271 5.271 0 0 0-3.648 1.584l.672.8a4.114 4.114 0 0 1 2.96-1.36 2.106 2.106 0 0 1 2.352 1.952c0 .848-.384 1.44-1.392 2.576l-4.448 4.944Zm-186.896-1.84a6.318 6.318 0 0 0 4.576 2c2.752 0 4.276-1.584 4.276-3.376 0-1.648-.96-2.576-3.408-3.008l-1.792-.304c-1.38-.24-2.116-.672-2.116-1.772 0-1.392 1.344-2 2.672-2a5.937 5.937 0 0 1 3.728 1.36l.72-.928a7.091 7.091 0 0 0-4.416-1.472c-2.048-.004-3.888 1.02-3.888 3.132 0 1.584.944 2.432 2.96 2.784l1.808.3c1.808.32 2.5.848 2.5 1.968-.004 1.256-1.156 2.256-2.996 2.256a5.393 5.393 0 0 1-3.856-1.8Zm10.496-2.06a3.907 3.907 0 0 0 3.872 4.044 4.5 4.5 0 0 0 2.928-1.044l-.736-.8a3.191 3.191 0 0 1-2.144.8 2.81 2.81 0 0 1-2.764-2.764h6.128V28a3.7 3.7 0 0 0-3.588-3.936 3.812 3.812 0 0 0-3.696 4.036Zm3.68-3.008a2.572 2.572 0 0 1 2.432 2.428h-4.928a2.581 2.581 0 0 1 2.496-2.432Zm9.088 6a2.817 2.817 0 0 1-2.72-2.992 2.832 2.832 0 0 1 2.72-2.976 2.983 2.983 0 0 1 2.144.976l.752-.816a4.146 4.146 0 0 0-2.908-1.22 3.912 3.912 0 0 0-3.876 4.036 3.926 3.926 0 0 0 3.876 4.044 3.955 3.955 0 0 0 2.86-1.264l-.72-.72a2.791 2.791 0 0 1-2.128.928Zm5.68-.848c0 1.216.688 1.9 2.048 1.9a4.713 4.713 0 0 0 1.376-.208V30.9a2.881 2.881 0 0 1-1.1.208c-.832 0-1.152-.336-1.152-1.168v-4.788h2.256v-.96h-2.26v-2.256l-1.168.272v1.984h-1.616v.96h1.616Zm5.648-8.02a.83.83 0 0 0 .832-.848.826.826 0 0 0-.832-.832.826.826 0 0 0-.832.832.83.83 0 0 0 .832.848Zm.576 1.968h-1.168V32h1.168ZM177.6 28.1a3.867 3.867 0 0 0 3.792 4.06 3.873 3.873 0 0 0 3.824-4.06 3.845 3.845 0 0 0-3.824-4.032A3.839 3.839 0 0 0 177.6 28.1Zm6.448.016a2.756 2.756 0 0 1-2.656 3.004 2.742 2.742 0 0 1-2.624-3.008 2.767 2.767 0 0 1 2.624-3.024 2.771 2.771 0 0 1 2.656 3.024ZM187.184 32h1.168v-5.76a2.32 2.32 0 0 1 2.048-1.2 2.023 2.023 0 0 1 2.1 2.24V32h1.168v-5.056a2.722 2.722 0 0 0-2.816-2.88 2.813 2.813 0 0 0-2.5 1.408v-1.28h-1.168Zm14.96-11.2h-.72l-2.224.992v1.056l1.792-.8V32h1.152Z" class="tabs-interaction-states_svg__c"/>
  <g class="tabs-interaction-states_svg__g" transform="translate(633)">
    <rect width="132" height="53" class="tabs-interaction-states_svg__l" rx="3"/>
    <rect width="130" height="51" x="1" y="1" class="tabs-interaction-states_svg__m" rx="2"/>
  </g>
  <g class="tabs-interaction-states_svg__h" transform="translate(500)">
    <rect width="133" height="53" class="tabs-interaction-states_svg__l" rx="3"/>
    <rect width="131" height="51" x="1" y="1" class="tabs-interaction-states_svg__m" rx="2"/>
  </g>
  <g class="tabs-interaction-states_svg__i" transform="translate(368)">
    <rect width="132" height="53" class="tabs-interaction-states_svg__l" rx="3"/>
    <rect width="130" height="51" x="1" y="1" class="tabs-interaction-states_svg__m" rx="2"/>
  </g>
  <g class="tabs-interaction-states_svg__j" transform="translate(236)">
    <rect width="132" height="53" class="tabs-interaction-states_svg__l" rx="3"/>
    <rect width="130" height="51" x="1" y="1" class="tabs-interaction-states_svg__m" rx="2"/>
  </g>
  <g class="tabs-interaction-states_svg__k" transform="translate(108)">
    <rect width="128" height="53" class="tabs-interaction-states_svg__l" rx="3"/>
    <rect width="126" height="51" x="1" y="1" class="tabs-interaction-states_svg__m" rx="2"/>
  </g>
</svg>
