<svg width="1012" height="475" viewBox="0 0 1012 475" fill="none" xmlns="http://www.w3.org/2000/svg">
<g filter="url(#filter0_d_6010_2944)">
<rect x="4" y="266" width="1004" height="80" fill="#151515"/>
</g>
<mask id="path-2-inside-1_6010_2944" fill="white">
<path d="M910 291C910 289.343 911.343 288 913 288H973C974.657 288 976 289.343 976 291V321C976 322.657 974.657 324 973 324H913C911.343 324 910 322.657 910 321V291Z"/>
</mask>
<path d="M910 291C910 289.343 911.343 288 913 288H973C974.657 288 976 289.343 976 291V321C976 322.657 974.657 324 973 324H913C911.343 324 910 322.657 910 321V291Z" fill="#151515"/>
<path d="M913 288V290H973V288V286H913V288ZM976 291H974V321H976H978V291H976ZM973 324V322H913V324V326H973V324ZM910 321H912V291H910H908V321H910ZM913 324V322C912.448 322 912 321.552 912 321H910H908C908 323.761 910.239 326 913 326V324ZM976 321H974C974 321.552 973.552 322 973 322V324V326C975.761 326 978 323.761 978 321H976ZM973 288V290C973.552 290 974 290.448 974 291H976H978C978 288.239 975.761 286 973 286V288ZM913 288V286C910.239 286 908 288.239 908 291H910H912C912 290.448 912.448 290 913 290V288Z" fill="#92C5F9" mask="url(#path-2-inside-1_6010_2944)"/>
<path d="M934 312.5C930.416 312.5 927.5 309.584 927.5 306C927.5 303.212 929.272 300.739 931.91 299.846C932.091 299.785 932.29 299.832 932.425 299.968C932.56 300.104 932.605 300.304 932.543 300.484C932.348 301.043 932.25 301.637 932.25 302.25C932.25 305.283 934.717 307.75 937.75 307.75C938.363 307.75 938.957 307.652 939.516 307.458C939.696 307.395 939.896 307.44 940.032 307.575C940.168 307.709 940.215 307.909 940.154 308.09C939.261 310.728 936.788 312.5 934 312.5ZM931.336 301.188C929.608 302.141 928.5 303.972 928.5 306C928.5 309.033 930.967 311.5 934 311.5C936.028 311.5 937.859 310.392 938.812 308.664C938.465 308.721 938.11 308.75 937.75 308.75C934.166 308.75 931.25 305.834 931.25 302.25C931.25 301.89 931.279 301.535 931.336 301.188Z" fill="white"/>
<g clip-path="url(#clip0_6010_2944)">
<path d="M955.488 303.76C955.205 303.517 954.794 303.518 954.512 303.76L951.175 306.62C951.016 306.756 950.958 306.977 951.031 307.173C951.103 307.37 951.291 307.5 951.5 307.5H958.5C958.709 307.5 958.896 307.37 958.969 307.173C959.041 306.977 958.984 306.756 958.825 306.62L955.488 303.76Z" fill="white"/>
</g>
<g filter="url(#filter1_d_6010_2944)">
<mask id="path-6-inside-2_6010_2944" fill="white">
<path d="M834 331C834 329.343 835.343 328 837 328H973C974.657 328 976 329.343 976 331V461C976 462.657 974.657 464 973 464H837C835.343 464 834 462.657 834 461V331Z"/>
</mask>
<path d="M834 331C834 329.343 835.343 328 837 328H973C974.657 328 976 329.343 976 331V461C976 462.657 974.657 464 973 464H837C835.343 464 834 462.657 834 461V331Z" fill="#151515"/>
<path d="M837 328V329H973V328V327H837V328ZM976 331H975V461H976H977V331H976ZM973 464V463H837V464V465H973V464ZM834 461H835V331H834H833V461H834ZM837 464V463C835.895 463 835 462.105 835 461H834H833C833 463.209 834.791 465 837 465V464ZM976 461H975C975 462.105 974.105 463 973 463V464V465C975.209 465 977 463.209 977 461H976ZM973 328V329C974.105 329 975 329.895 975 331H976H977C977 328.791 975.209 327 973 327V328ZM837 328V327C834.791 327 833 328.791 833 331H834H835C835 329.895 835.895 329 837 329V328Z" fill="#707070" mask="url(#path-6-inside-2_6010_2944)"/>
<g clip-path="url(#clip1_6010_2944)">
<path d="M858 351.5C855.519 351.5 853.5 353.519 853.5 356C853.5 358.481 855.519 360.5 858 360.5C860.481 360.5 862.5 358.481 862.5 356C862.5 353.519 860.481 351.5 858 351.5ZM858 359.5C856.07 359.5 854.5 357.93 854.5 356C854.5 354.07 856.07 352.5 858 352.5C859.93 352.5 861.5 354.07 861.5 356C861.5 357.93 859.93 359.5 858 359.5ZM857.5 350V348.5C857.5 348.224 857.724 348 858 348C858.276 348 858.5 348.224 858.5 348.5V350C858.5 350.276 858.276 350.5 858 350.5C857.724 350.5 857.5 350.276 857.5 350ZM858.5 362V363.5C858.5 363.776 858.276 364 858 364C857.724 364 857.5 363.776 857.5 363.5V362C857.5 361.724 857.724 361.5 858 361.5C858.276 361.5 858.5 361.724 858.5 362ZM866 356C866 356.276 865.776 356.5 865.5 356.5H864C863.724 356.5 863.5 356.276 863.5 356C863.5 355.724 863.724 355.5 864 355.5H865.5C865.776 355.5 866 355.724 866 356ZM852 356.5H850.5C850.224 356.5 850 356.276 850 356C850 355.724 850.224 355.5 850.5 355.5H852C852.276 355.5 852.5 355.724 852.5 356C852.5 356.276 852.276 356.5 852 356.5ZM853.853 360.146C854.049 360.342 854.049 360.658 853.853 360.854L852.853 361.854C852.756 361.951 852.628 362 852.5 362C852.372 362 852.244 361.951 852.147 361.854C851.951 361.658 851.951 361.342 852.147 361.146L853.147 360.146C853.342 359.951 853.658 359.951 853.853 360.146ZM862.146 351.853C861.951 351.658 861.951 351.342 862.146 351.146L863.146 350.146C863.342 349.951 863.658 349.951 863.854 350.146C864.049 350.342 864.049 350.658 863.854 350.853L862.854 351.853C862.756 351.951 862.628 352 862.5 352C862.372 352 862.244 351.951 862.146 351.853ZM852.147 350.853C851.951 350.658 851.951 350.342 852.147 350.146C852.342 349.951 852.658 349.951 852.854 350.146L853.854 351.146C854.049 351.342 854.049 351.658 853.854 351.853C853.756 351.951 853.628 352 853.5 352C853.372 352 853.244 351.951 853.147 351.853L852.147 350.853ZM863.854 361.146C864.049 361.342 864.049 361.658 863.854 361.854C863.756 361.951 863.628 362 863.5 362C863.372 362 863.244 361.951 863.146 361.854L862.146 360.854C861.951 360.658 861.951 360.342 862.146 360.146C862.342 359.951 862.658 359.951 862.854 360.146L863.854 361.146Z" fill="white"/>
</g>
<path d="M875.424 362V350.8H876.656V360.912H882.976V362H875.424ZM884.903 362V354.192H886.071V362H884.903ZM885.495 352.256C885.26 352.256 885.057 352.176 884.887 352.016C884.727 351.845 884.647 351.648 884.647 351.424C884.647 351.2 884.727 351.008 884.887 350.848C885.057 350.677 885.26 350.592 885.495 350.592C885.729 350.592 885.927 350.677 886.087 350.848C886.257 351.008 886.343 351.2 886.343 351.424C886.343 351.648 886.257 351.845 886.087 352.016C885.927 352.176 885.729 352.256 885.495 352.256ZM892.082 365.504C891.559 365.504 891.031 365.429 890.498 365.28C889.975 365.141 889.49 364.944 889.042 364.688L889.538 363.792C890.018 364.037 890.455 364.219 890.85 364.336C891.244 364.453 891.639 364.512 892.034 364.512C892.748 364.512 893.287 364.341 893.65 364C894.023 363.659 894.21 363.163 894.21 362.512V360.944C893.911 361.317 893.548 361.605 893.122 361.808C892.695 362 892.226 362.096 891.714 362.096C891.042 362.096 890.434 361.92 889.89 361.568C889.346 361.205 888.914 360.725 888.594 360.128C888.274 359.52 888.114 358.843 888.114 358.096C888.114 357.349 888.274 356.677 888.594 356.08C888.924 355.472 889.367 354.992 889.922 354.64C890.476 354.277 891.095 354.096 891.778 354.096C892.268 354.096 892.722 354.192 893.138 354.384C893.554 354.565 893.916 354.837 894.226 355.2V354.192H895.378V362.496C895.378 363.467 895.095 364.208 894.53 364.72C893.964 365.243 893.148 365.504 892.082 365.504ZM892.002 361.088C892.46 361.088 892.882 360.997 893.266 360.816C893.65 360.624 893.964 360.363 894.21 360.032V356.176C893.954 355.845 893.628 355.589 893.234 355.408C892.85 355.216 892.439 355.12 892.002 355.12C891.479 355.12 891.01 355.248 890.594 355.504C890.188 355.76 889.863 356.112 889.618 356.56C889.383 357.008 889.266 357.52 889.266 358.096C889.266 358.661 889.383 359.173 889.618 359.632C889.863 360.08 890.188 360.437 890.594 360.704C891.01 360.96 891.479 361.088 892.002 361.088ZM897.778 362V350.448L898.946 350.208V355.456C899.245 354.987 899.602 354.64 900.018 354.416C900.434 354.181 900.903 354.064 901.426 354.064C901.991 354.064 902.482 354.187 902.898 354.432C903.325 354.667 903.655 355.003 903.89 355.44C904.135 355.867 904.258 356.368 904.258 356.944V362H903.09V357.28C903.09 356.587 902.898 356.043 902.514 355.648C902.141 355.243 901.634 355.04 900.994 355.04C900.567 355.04 900.178 355.141 899.826 355.344C899.474 355.547 899.181 355.845 898.946 356.24V362H897.778ZM909.348 362.16C908.676 362.16 908.164 362 907.812 361.68C907.471 361.349 907.3 360.875 907.3 360.256V355.152H905.684V354.192H907.3V352.048L908.468 351.776V354.192H910.708V355.152H908.468V359.952C908.468 360.368 908.553 360.667 908.724 360.848C908.905 361.029 909.199 361.12 909.604 361.12C909.807 361.12 909.988 361.104 910.148 361.072C910.308 361.04 910.495 360.987 910.708 360.912V361.952C910.495 362.027 910.271 362.08 910.036 362.112C909.801 362.144 909.572 362.16 909.348 362.16Z" fill="white"/>
<rect width="142" height="40" transform="translate(834 376)" fill="#1F1F1F"/>
<path d="M858 402.5C854.416 402.5 851.5 399.584 851.5 396C851.5 393.212 853.272 390.739 855.91 389.846C856.091 389.785 856.29 389.832 856.425 389.968C856.56 390.104 856.605 390.304 856.543 390.484C856.348 391.043 856.25 391.637 856.25 392.25C856.25 395.283 858.717 397.75 861.75 397.75C862.363 397.75 862.957 397.652 863.516 397.458C863.696 397.395 863.896 397.44 864.032 397.575C864.168 397.709 864.215 397.909 864.154 398.09C863.261 400.728 860.788 402.5 858 402.5ZM855.336 391.188C853.608 392.141 852.5 393.972 852.5 396C852.5 399.033 854.967 401.5 858 401.5C860.028 401.5 861.859 400.392 862.812 398.664C862.465 398.721 862.11 398.75 861.75 398.75C858.166 398.75 855.25 395.834 855.25 392.25C855.25 391.89 855.279 391.535 855.336 391.188Z" fill="white"/>
<path d="M876.656 400.896H879.216C880.027 400.896 880.752 400.699 881.392 400.304C882.032 399.909 882.539 399.376 882.912 398.704C883.296 398.021 883.488 397.253 883.488 396.4C883.488 395.547 883.296 394.784 882.912 394.112C882.539 393.429 882.032 392.891 881.392 392.496C880.752 392.101 880.027 391.904 879.216 391.904H876.656V400.896ZM875.424 402V390.8H879.136C879.957 390.8 880.709 390.944 881.392 391.232C882.085 391.509 882.677 391.904 883.168 392.416C883.669 392.917 884.053 393.509 884.32 394.192C884.597 394.864 884.736 395.6 884.736 396.4C884.736 397.2 884.597 397.941 884.32 398.624C884.053 399.296 883.669 399.888 883.168 400.4C882.677 400.901 882.085 401.296 881.392 401.584C880.709 401.861 879.957 402 879.136 402H875.424ZM889.1 402.144C888.546 402.144 888.055 402.043 887.628 401.84C887.202 401.637 886.866 401.36 886.62 401.008C886.386 400.645 886.268 400.229 886.268 399.76C886.268 399.291 886.391 398.885 886.636 398.544C886.882 398.192 887.223 397.92 887.66 397.728C888.098 397.536 888.61 397.44 889.196 397.44C889.644 397.44 890.066 397.488 890.46 397.584C890.866 397.68 891.239 397.835 891.58 398.048V396.976C891.58 396.336 891.41 395.856 891.068 395.536C890.727 395.205 890.226 395.04 889.564 395.04C889.202 395.04 888.828 395.093 888.444 395.2C888.071 395.307 887.655 395.477 887.196 395.712L886.764 394.816C887.81 394.315 888.791 394.064 889.708 394.064C890.679 394.064 891.426 394.304 891.948 394.784C892.471 395.253 892.732 395.931 892.732 396.816V402H891.58V401.088C891.239 401.44 890.86 401.707 890.444 401.888C890.028 402.059 889.58 402.144 889.1 402.144ZM887.388 399.728C887.388 400.187 887.564 400.555 887.916 400.832C888.279 401.109 888.754 401.248 889.34 401.248C889.778 401.248 890.178 401.173 890.54 401.024C890.914 400.875 891.26 400.651 891.58 400.352V398.848C891.25 398.656 890.908 398.517 890.556 398.432C890.204 398.336 889.81 398.288 889.372 398.288C888.775 398.288 888.295 398.421 887.932 398.688C887.57 398.944 887.388 399.291 887.388 399.728ZM895.106 402V394.192H896.274V395.792C896.477 395.248 896.765 394.827 897.138 394.528C897.522 394.219 897.96 394.064 898.45 394.064C898.589 394.064 898.717 394.075 898.834 394.096C898.952 394.107 899.069 394.133 899.186 394.176V395.232C899.058 395.189 898.92 395.157 898.77 395.136C898.632 395.104 898.498 395.088 898.37 395.088C897.89 395.088 897.469 395.227 897.106 395.504C896.754 395.781 896.477 396.171 896.274 396.672V402H895.106ZM900.731 402V390.448L901.899 390.208V397.696L905.611 394.192H907.019L903.051 397.904L907.195 402H905.659L901.899 398.272V402H900.731Z" fill="white"/>
<path d="M949.5 401.396C949.308 401.396 949.116 401.323 948.97 401.177L944.646 396.853C944.451 396.658 944.451 396.342 944.646 396.146C944.842 395.951 945.158 395.951 945.354 396.146L949.5 400.293L958.646 391.146C958.842 390.951 959.158 390.951 959.354 391.146C959.549 391.342 959.549 391.658 959.354 391.854L950.03 401.177C949.884 401.323 949.692 401.396 949.5 401.396Z" fill="#92C5F9"/>
<mask id="path-13-inside-3_6010_2944" fill="white">
<path d="M834.925 379C834.925 377.343 836.268 376 837.925 376H971.925C973.582 376 974.925 377.343 974.925 379V413C974.925 414.657 973.582 416 971.925 416H837.925C836.268 416 834.925 414.657 834.925 413V379Z"/>
</mask>
<path d="M837.925 376V379H971.925V376V373H837.925V376ZM974.925 379H971.925V413H974.925H977.925V379H974.925ZM971.925 416V413H837.925V416V419H971.925V416ZM834.925 413H837.925V379H834.925H831.925V413H834.925ZM837.925 416V413H837.925H834.925H831.925C831.925 416.314 834.611 419 837.925 419V416ZM974.925 413H971.925V413V416V419C975.239 419 977.925 416.314 977.925 413H974.925ZM971.925 376V379V379H974.925H977.925C977.925 375.686 975.239 373 971.925 373V376ZM837.925 376V373C834.611 373 831.925 375.686 831.925 379H834.925H837.925V379V376Z" fill="#92C5F9" mask="url(#path-13-inside-3_6010_2944)"/>
<path d="M858 429C854.14 429 851 432.14 851 436C851 439.86 854.14 443 858 443C861.86 443 865 439.86 865 436C865 432.14 861.86 429 858 429ZM858 442C854.691 442 852 439.308 852 436C852 432.692 854.691 430 858 430C861.309 430 864 432.692 864 436C864 439.308 861.309 442 858 442ZM862.5 436C862.5 438.441 860.556 440.429 858.131 440.498C858.06 440.5 858 440.441 858 440.37V431.63C858 431.559 858.06 431.5 858.131 431.502C860.556 431.571 862.5 433.559 862.5 436Z" fill="white"/>
<path d="M879.04 442.176C878.165 442.176 877.355 442.021 876.608 441.712C875.861 441.392 875.141 440.912 874.448 440.272L875.2 439.376C875.872 440.005 876.501 440.453 877.088 440.72C877.685 440.987 878.347 441.12 879.072 441.12C879.648 441.12 880.16 441.024 880.608 440.832C881.067 440.629 881.424 440.357 881.68 440.016C881.936 439.675 882.064 439.285 882.064 438.848C882.064 438.283 881.877 437.856 881.504 437.568C881.131 437.269 880.485 437.04 879.568 436.88L877.76 436.576C876.736 436.395 875.984 436.085 875.504 435.648C875.035 435.2 874.8 434.603 874.8 433.856C874.8 433.227 874.96 432.672 875.28 432.192C875.611 431.701 876.064 431.317 876.64 431.04C877.216 430.763 877.883 430.624 878.64 430.624C879.472 430.624 880.245 430.741 880.96 430.976C881.675 431.2 882.379 431.557 883.072 432.048L882.432 433.008C881.856 432.571 881.248 432.24 880.608 432.016C879.968 431.781 879.317 431.664 878.656 431.664C878.133 431.664 877.669 431.755 877.264 431.936C876.869 432.117 876.555 432.363 876.32 432.672C876.096 432.981 875.984 433.333 875.984 433.728C875.984 434.219 876.149 434.603 876.48 434.88C876.811 435.157 877.349 435.355 878.096 435.472L879.888 435.776C881.083 435.989 881.947 436.336 882.48 436.816C883.024 437.285 883.296 437.941 883.296 438.784C883.296 439.435 883.109 440.016 882.736 440.528C882.373 441.04 881.872 441.445 881.232 441.744C880.592 442.032 879.861 442.176 879.04 442.176ZM885.27 445.504C885.025 445.504 884.774 445.467 884.518 445.392V444.352C884.625 444.373 884.737 444.389 884.854 444.4C884.972 444.411 885.073 444.416 885.158 444.416C885.457 444.416 885.702 444.336 885.894 444.176C886.097 444.016 886.268 443.765 886.406 443.424L886.982 442L883.974 434.192H885.27L887.638 440.608L890.15 434.192H891.446L887.51 443.776C887.34 444.192 887.153 444.528 886.95 444.784C886.748 445.04 886.513 445.221 886.246 445.328C885.98 445.445 885.654 445.504 885.27 445.504ZM895.319 442.16C894.679 442.16 894.087 442.064 893.543 441.872C892.999 441.669 892.535 441.381 892.151 441.008L892.775 440.24C893.244 440.581 893.676 440.832 894.071 440.992C894.466 441.141 894.871 441.216 895.287 441.216C895.852 441.216 896.322 441.083 896.695 440.816C897.068 440.549 897.255 440.208 897.255 439.792C897.255 439.472 897.143 439.221 896.919 439.04C896.706 438.859 896.348 438.72 895.847 438.624L894.567 438.4C893.81 438.261 893.25 438.027 892.887 437.696C892.535 437.365 892.359 436.917 892.359 436.352C892.359 435.904 892.476 435.509 892.711 435.168C892.956 434.827 893.292 434.56 893.719 434.368C894.146 434.165 894.631 434.064 895.175 434.064C895.708 434.064 896.215 434.144 896.695 434.304C897.175 434.453 897.66 434.699 898.151 435.04L897.575 435.856C897.17 435.568 896.764 435.36 896.359 435.232C895.954 435.093 895.543 435.024 895.127 435.024C894.615 435.024 894.204 435.136 893.895 435.36C893.586 435.584 893.431 435.888 893.431 436.272C893.431 436.592 893.527 436.837 893.719 437.008C893.922 437.179 894.274 437.307 894.775 437.392L896.087 437.632C896.876 437.771 897.452 438.011 897.815 438.352C898.178 438.693 898.359 439.152 898.359 439.728C898.359 440.187 898.226 440.603 897.959 440.976C897.692 441.339 897.33 441.627 896.871 441.84C896.412 442.053 895.895 442.16 895.319 442.16ZM902.957 442.16C902.285 442.16 901.773 442 901.421 441.68C901.08 441.349 900.909 440.875 900.909 440.256V435.152H899.293V434.192H900.909V432.048L902.077 431.776V434.192H904.317V435.152H902.077V439.952C902.077 440.368 902.163 440.667 902.333 440.848C902.515 441.029 902.808 441.12 903.213 441.12C903.416 441.12 903.597 441.104 903.757 441.072C903.917 441.04 904.104 440.987 904.317 440.912V441.952C904.104 442.027 903.88 442.08 903.645 442.112C903.411 442.144 903.181 442.16 902.957 442.16ZM909.392 442.16C908.667 442.16 908.011 441.984 907.424 441.632C906.837 441.269 906.373 440.784 906.032 440.176C905.691 439.557 905.52 438.864 905.52 438.096C905.52 437.328 905.68 436.64 906 436.032C906.331 435.424 906.773 434.944 907.328 434.592C907.883 434.24 908.501 434.064 909.184 434.064C909.877 434.064 910.491 434.24 911.024 434.592C911.568 434.933 911.995 435.403 912.304 436C912.624 436.587 912.784 437.253 912.784 438V438.352H906.656C906.699 438.885 906.843 439.365 907.088 439.792C907.344 440.208 907.675 440.539 908.08 440.784C908.496 441.019 908.949 441.136 909.44 441.136C909.845 441.136 910.235 441.067 910.608 440.928C910.992 440.779 911.317 440.581 911.584 440.336L912.32 441.12C911.872 441.472 911.408 441.733 910.928 441.904C910.448 442.075 909.936 442.16 909.392 442.16ZM906.688 437.52H911.632C911.579 437.051 911.435 436.635 911.2 436.272C910.976 435.899 910.688 435.605 910.336 435.392C909.995 435.179 909.611 435.072 909.184 435.072C908.757 435.072 908.368 435.179 908.016 435.392C907.664 435.595 907.371 435.883 907.136 436.256C906.912 436.619 906.763 437.04 906.688 437.52ZM914.778 442V434.192H915.946V435.408C916.245 434.96 916.586 434.624 916.97 434.4C917.354 434.176 917.786 434.064 918.266 434.064C918.821 434.064 919.306 434.203 919.722 434.48C920.138 434.747 920.453 435.115 920.666 435.584C920.975 435.083 921.343 434.704 921.77 434.448C922.207 434.192 922.709 434.064 923.274 434.064C923.797 434.064 924.255 434.187 924.65 434.432C925.055 434.677 925.37 435.019 925.594 435.456C925.818 435.883 925.93 436.384 925.93 436.96V442H924.762V437.248C924.762 436.565 924.591 436.027 924.25 435.632C923.909 435.237 923.439 435.04 922.842 435.04C922.437 435.04 922.069 435.141 921.738 435.344C921.418 435.547 921.135 435.856 920.89 436.272C920.911 436.379 920.927 436.491 920.938 436.608C920.949 436.725 920.954 436.843 920.954 436.96V442H919.786V437.248C919.786 436.565 919.61 436.027 919.258 435.632C918.917 435.237 918.447 435.04 917.85 435.04C917.05 435.04 916.415 435.424 915.946 436.192V442H914.778Z" fill="white"/>
</g>
<g clip-path="url(#clip2_6010_2944)">
<path d="M64.2229 308.442C67.0014 308.442 71.0269 307.867 71.0269 304.562C71.0269 304.304 71.0202 304.053 70.958 303.802L69.302 296.611C68.9175 295.031 68.584 294.311 65.8033 292.922C63.6494 291.82 58.9526 290 57.5634 290C56.2697 290 55.8874 291.676 54.3537 291.676C52.8199 291.676 51.7663 290.431 50.3771 290.431C48.9878 290.431 48.172 291.342 47.503 293.209C47.503 293.209 45.6336 298.478 45.3935 299.244C45.3446 299.389 45.3446 299.549 45.3446 299.676C45.3446 301.724 53.4112 308.442 64.2251 308.442M71.4604 305.902C71.8449 307.722 71.8449 307.913 71.8449 308.153C71.8449 311.267 68.3462 312.991 63.7472 312.991C53.349 312.991 44.2444 306.907 44.2444 302.884C44.2444 302.262 44.3888 301.687 44.58 301.256C40.8412 301.447 36.0022 302.118 36.0022 306.382C36.0022 313.376 52.5821 322 65.71 322C75.7726 322 78.311 317.449 78.311 313.856C78.311 311.029 75.8682 307.82 71.4581 305.902" fill="#EE0000"/>
<path d="M71.4582 305.904C71.8427 307.724 71.8427 307.915 71.8427 308.155C71.8427 311.269 68.344 312.993 63.7451 312.993C53.3468 312.993 44.2422 306.909 44.2422 302.887C44.2422 302.264 44.3867 301.689 44.5778 301.258L45.3936 299.244C45.3447 299.389 45.3447 299.549 45.3447 299.675C45.3447 301.724 53.4113 308.442 64.2252 308.442C67.0037 308.442 71.0292 307.867 71.0292 304.562C71.0292 304.304 71.0225 304.053 70.9603 303.802L71.4604 305.904H71.4582Z" fill="black"/>
<path d="M164.754 310.511C164.754 313.151 166.343 314.438 169.242 314.438C169.944 314.438 171.158 314.273 171.884 314.064V311.002C171.253 311.189 170.786 311.26 170.177 311.26C168.986 311.26 168.541 310.887 168.541 309.764V305.067H172V301.911H168.541V297.916L164.754 298.733V301.911H162.253V305.067H164.754V310.511ZM152.986 310.582C152.986 309.764 153.804 309.367 155.042 309.367C155.86 309.367 156.609 309.484 157.287 309.647V311.236C156.585 311.633 155.767 311.82 154.927 311.82C153.711 311.82 152.986 311.353 152.986 310.582ZM154.142 314.484C155.473 314.484 156.549 314.204 157.554 313.527V314.276H161.295V306.353C161.295 303.338 159.261 301.68 155.871 301.68C153.978 301.68 152.108 302.124 150.097 303.036L151.452 305.818C152.902 305.211 154.118 304.836 155.193 304.836C156.76 304.836 157.554 305.442 157.554 306.682V307.289C156.665 307.056 155.731 306.938 154.749 306.938C151.57 306.938 149.652 308.269 149.652 310.653C149.652 312.827 151.381 314.487 154.14 314.487M133.592 314.276H137.613V307.871H144.346V314.276H148.367V297.916H144.346V304.202H137.613V297.916H133.592V314.276ZM118.27 308.082C118.27 306.307 119.673 304.951 121.52 304.951C122.549 304.951 123.483 305.302 124.139 305.909V310.233C123.461 310.887 122.572 311.216 121.52 311.216C119.697 311.216 118.27 309.86 118.27 308.084M124.185 314.278H127.926V297.098L124.139 297.916V302.567C123.203 302.029 122.129 301.749 120.982 301.749C117.381 301.749 114.554 304.531 114.554 308.082C114.554 311.633 117.337 314.44 120.867 314.44C122.083 314.44 123.227 314.067 124.185 313.364V314.276V314.278ZM107.027 304.789C108.219 304.789 109.226 305.56 109.621 306.751H104.456C104.829 305.513 105.765 304.789 107.027 304.789ZM100.646 308.107C100.646 311.707 103.591 314.511 107.379 314.511C109.459 314.511 110.98 313.951 112.544 312.642L110.044 310.422C109.459 311.029 108.595 311.358 107.565 311.358C106.163 311.358 105.018 310.587 104.527 309.396H113.34V308.46C113.34 304.533 110.7 301.707 107.099 301.707C103.498 301.707 100.646 304.511 100.646 308.111M94.1241 301.358C95.4556 301.358 96.2047 302.2 96.2047 303.204C96.2047 304.209 95.4556 305.051 94.1241 305.051H90.1497V301.358H94.1241ZM86.1287 314.282H90.1497V308.322H93.2128L96.298 314.282H100.786L97.1849 307.738C99.1254 306.896 100.27 305.144 100.27 303.133C100.27 300.189 97.9562 297.922 94.4953 297.922H86.1265V314.282H86.1287Z" fill="white"/>
</g>
<g filter="url(#filter2_d_6010_2944)">
<rect x="4" y="4" width="1004" height="80" fill="white"/>
</g>
<mask id="path-21-inside-4_6010_2944" fill="white">
<path d="M910 29C910 27.3431 911.343 26 913 26H973C974.657 26 976 27.3431 976 29V59C976 60.6569 974.657 62 973 62H913C911.343 62 910 60.6569 910 59V29Z"/>
</mask>
<path d="M910 29C910 27.3431 911.343 26 913 26H973C974.657 26 976 27.3431 976 29V59C976 60.6569 974.657 62 973 62H913C911.343 62 910 60.6569 910 59V29Z" fill="white"/>
<path d="M913 26V28H973V26V24H913V26ZM976 29H974V59H976H978V29H976ZM973 62V60H913V62V64H973V62ZM910 59H912V29H910H908V59H910ZM913 62V60C912.448 60 912 59.5523 912 59H910H908C908 61.7614 910.239 64 913 64V62ZM976 59H974C974 59.5523 973.552 60 973 60V62V64C975.761 64 978 61.7614 978 59H976ZM973 26V28C973.552 28 974 28.4477 974 29H976H978C978 26.2386 975.761 24 973 24V26ZM913 26V24C910.239 24 908 26.2386 908 29H910H912C912 28.4477 912.448 28 913 28V26Z" fill="#0066CC" mask="url(#path-21-inside-4_6010_2944)"/>
<g clip-path="url(#clip3_6010_2944)">
<path d="M934 39.5C931.519 39.5 929.5 41.5188 929.5 44C929.5 46.4812 931.519 48.5 934 48.5C936.481 48.5 938.5 46.4812 938.5 44C938.5 41.5188 936.481 39.5 934 39.5ZM934 47.5C932.07 47.5 930.5 45.9299 930.5 44C930.5 42.0701 932.07 40.5 934 40.5C935.93 40.5 937.5 42.0701 937.5 44C937.5 45.9299 935.93 47.5 934 47.5ZM933.5 38V36.5C933.5 36.2239 933.724 36 934 36C934.276 36 934.5 36.2239 934.5 36.5V38C934.5 38.2761 934.276 38.5 934 38.5C933.724 38.5 933.5 38.2761 933.5 38ZM934.5 50V51.5C934.5 51.7761 934.276 52 934 52C933.724 52 933.5 51.7761 933.5 51.5V50C933.5 49.7239 933.724 49.5 934 49.5C934.276 49.5 934.5 49.7239 934.5 50ZM942 44C942 44.2761 941.776 44.5 941.5 44.5H940C939.724 44.5 939.5 44.2761 939.5 44C939.5 43.7239 939.724 43.5 940 43.5H941.5C941.776 43.5 942 43.7239 942 44ZM928 44.5H926.5C926.224 44.5 926 44.2761 926 44C926 43.7239 926.224 43.5 926.5 43.5H928C928.276 43.5 928.5 43.7239 928.5 44C928.5 44.2761 928.276 44.5 928 44.5ZM929.853 48.1465C930.049 48.3418 930.049 48.6582 929.853 48.8535L928.853 49.8535C928.756 49.9512 928.628 50 928.5 50C928.372 50 928.244 49.9512 928.147 49.8535C927.951 49.6582 927.951 49.3418 928.147 49.1465L929.147 48.1465C929.342 47.9512 929.658 47.9512 929.853 48.1465ZM938.146 39.8535C937.951 39.6582 937.951 39.3418 938.146 39.1465L939.146 38.1465C939.342 37.9512 939.658 37.9512 939.854 38.1465C940.049 38.3418 940.049 38.6581 939.854 38.8535L938.854 39.8535C938.756 39.9511 938.628 40 938.5 40C938.372 40 938.244 39.9511 938.146 39.8535ZM928.147 38.8535C927.951 38.6582 927.951 38.3418 928.147 38.1465C928.342 37.9511 928.658 37.9512 928.854 38.1465L929.854 39.1465C930.049 39.3418 930.049 39.6581 929.854 39.8535C929.756 39.9511 929.628 40 929.5 40C929.372 40 929.244 39.9511 929.147 39.8535L928.147 38.8535ZM939.854 49.1465C940.049 49.3418 940.049 49.6582 939.854 49.8535C939.756 49.9512 939.628 50 939.5 50C939.372 50 939.244 49.9512 939.146 49.8535L938.146 48.8535C937.951 48.6582 937.951 48.3418 938.146 48.1465C938.342 47.9511 938.658 47.9512 938.854 48.1465L939.854 49.1465Z" fill="#151515"/>
</g>
<g clip-path="url(#clip4_6010_2944)">
<path d="M955.488 41.7603C955.205 41.5171 954.794 41.5176 954.512 41.7598L951.175 44.6201C951.016 44.7564 950.958 44.9771 951.031 45.1733C951.103 45.3696 951.291 45.5 951.5 45.5H958.5C958.709 45.5 958.896 45.3696 958.969 45.1733C959.041 44.977 958.984 44.7563 958.825 44.6201L955.488 41.7603Z" fill="#151515"/>
</g>
<g filter="url(#filter3_d_6010_2944)">
<mask id="path-25-inside-5_6010_2944" fill="white">
<path d="M834 69C834 67.3431 835.343 66 837 66H973C974.657 66 976 67.3431 976 69V199C976 200.657 974.657 202 973 202H837C835.343 202 834 200.657 834 199V69Z"/>
</mask>
<path d="M834 69C834 67.3431 835.343 66 837 66H973C974.657 66 976 67.3431 976 69V199C976 200.657 974.657 202 973 202H837C835.343 202 834 200.657 834 199V69Z" fill="white"/>
<path d="M837 66V67H973V66V65H837V66ZM976 69H975V199H976H977V69H976ZM973 202V201H837V202V203H973V202ZM834 199H835V69H834H833V199H834ZM837 202V201C835.895 201 835 200.105 835 199H834H833C833 201.209 834.791 203 837 203V202ZM976 199H975C975 200.105 974.105 201 973 201V202V203C975.209 203 977 201.209 977 199H976ZM973 66V67C974.105 67 975 67.8954 975 69H976H977C977 66.7909 975.209 65 973 65V66ZM837 66V65C834.791 65 833 66.7909 833 69H834H835C835 67.8954 835.895 67 837 67V66Z" fill="#C7C7C7" mask="url(#path-25-inside-5_6010_2944)"/>
<rect width="142" height="40" transform="translate(834 74)" fill="#F2F2F2"/>
<g clip-path="url(#clip5_6010_2944)">
<path d="M858 89.5C855.519 89.5 853.5 91.5188 853.5 94C853.5 96.4812 855.519 98.5 858 98.5C860.481 98.5 862.5 96.4812 862.5 94C862.5 91.5188 860.481 89.5 858 89.5ZM858 97.5C856.07 97.5 854.5 95.9299 854.5 94C854.5 92.0701 856.07 90.5 858 90.5C859.93 90.5 861.5 92.0701 861.5 94C861.5 95.9299 859.93 97.5 858 97.5ZM857.5 88V86.5C857.5 86.2239 857.724 86 858 86C858.276 86 858.5 86.2239 858.5 86.5V88C858.5 88.2761 858.276 88.5 858 88.5C857.724 88.5 857.5 88.2761 857.5 88ZM858.5 100V101.5C858.5 101.776 858.276 102 858 102C857.724 102 857.5 101.776 857.5 101.5V100C857.5 99.7239 857.724 99.5 858 99.5C858.276 99.5 858.5 99.7239 858.5 100ZM866 94C866 94.2761 865.776 94.5 865.5 94.5H864C863.724 94.5 863.5 94.2761 863.5 94C863.5 93.7239 863.724 93.5 864 93.5H865.5C865.776 93.5 866 93.7239 866 94ZM852 94.5H850.5C850.224 94.5 850 94.2761 850 94C850 93.7239 850.224 93.5 850.5 93.5H852C852.276 93.5 852.5 93.7239 852.5 94C852.5 94.2761 852.276 94.5 852 94.5ZM853.853 98.1465C854.049 98.3418 854.049 98.6582 853.853 98.8535L852.853 99.8535C852.756 99.9512 852.628 100 852.5 100C852.372 100 852.244 99.9512 852.147 99.8535C851.951 99.6582 851.951 99.3418 852.147 99.1465L853.147 98.1465C853.342 97.9512 853.658 97.9512 853.853 98.1465ZM862.146 89.8535C861.951 89.6582 861.951 89.3418 862.146 89.1465L863.146 88.1465C863.342 87.9512 863.658 87.9512 863.854 88.1465C864.049 88.3418 864.049 88.6581 863.854 88.8535L862.854 89.8535C862.756 89.9511 862.628 90 862.5 90C862.372 90 862.244 89.9511 862.146 89.8535ZM852.147 88.8535C851.951 88.6582 851.951 88.3418 852.147 88.1465C852.342 87.9511 852.658 87.9512 852.854 88.1465L853.854 89.1465C854.049 89.3418 854.049 89.6581 853.854 89.8535C853.756 89.9511 853.628 90 853.5 90C853.372 90 853.244 89.9511 853.147 89.8535L852.147 88.8535ZM863.854 99.1465C864.049 99.3418 864.049 99.6582 863.854 99.8535C863.756 99.9512 863.628 100 863.5 100C863.372 100 863.244 99.9512 863.146 99.8535L862.146 98.8535C861.951 98.6582 861.951 98.3418 862.146 98.1465C862.342 97.9511 862.658 97.9512 862.854 98.1465L863.854 99.1465Z" fill="#151515"/>
</g>
<path d="M875.424 100V88.8H876.656V98.912H882.976V100H875.424ZM884.903 100V92.192H886.071V100H884.903ZM885.495 90.256C885.26 90.256 885.057 90.176 884.887 90.016C884.727 89.8453 884.647 89.648 884.647 89.424C884.647 89.2 884.727 89.008 884.887 88.848C885.057 88.6773 885.26 88.592 885.495 88.592C885.729 88.592 885.927 88.6773 886.087 88.848C886.257 89.008 886.343 89.2 886.343 89.424C886.343 89.648 886.257 89.8453 886.087 90.016C885.927 90.176 885.729 90.256 885.495 90.256ZM892.082 103.504C891.559 103.504 891.031 103.429 890.498 103.28C889.975 103.141 889.49 102.944 889.042 102.688L889.538 101.792C890.018 102.037 890.455 102.219 890.85 102.336C891.244 102.453 891.639 102.512 892.034 102.512C892.748 102.512 893.287 102.341 893.65 102C894.023 101.659 894.21 101.163 894.21 100.512V98.944C893.911 99.3173 893.548 99.6053 893.122 99.808C892.695 100 892.226 100.096 891.714 100.096C891.042 100.096 890.434 99.92 889.89 99.568C889.346 99.2053 888.914 98.7253 888.594 98.128C888.274 97.52 888.114 96.8427 888.114 96.096C888.114 95.3493 888.274 94.6773 888.594 94.08C888.924 93.472 889.367 92.992 889.922 92.64C890.476 92.2773 891.095 92.096 891.778 92.096C892.268 92.096 892.722 92.192 893.138 92.384C893.554 92.5653 893.916 92.8373 894.226 93.2V92.192H895.378V100.496C895.378 101.467 895.095 102.208 894.53 102.72C893.964 103.243 893.148 103.504 892.082 103.504ZM892.002 99.088C892.46 99.088 892.882 98.9973 893.266 98.816C893.65 98.624 893.964 98.3627 894.21 98.032V94.176C893.954 93.8453 893.628 93.5893 893.234 93.408C892.85 93.216 892.439 93.12 892.002 93.12C891.479 93.12 891.01 93.248 890.594 93.504C890.188 93.76 889.863 94.112 889.618 94.56C889.383 95.008 889.266 95.52 889.266 96.096C889.266 96.6613 889.383 97.1733 889.618 97.632C889.863 98.08 890.188 98.4373 890.594 98.704C891.01 98.96 891.479 99.088 892.002 99.088ZM897.778 100V88.448L898.946 88.208V93.456C899.245 92.9867 899.602 92.64 900.018 92.416C900.434 92.1813 900.903 92.064 901.426 92.064C901.991 92.064 902.482 92.1867 902.898 92.432C903.325 92.6667 903.655 93.0027 903.89 93.44C904.135 93.8667 904.258 94.368 904.258 94.944V100H903.09V95.28C903.09 94.5867 902.898 94.0427 902.514 93.648C902.141 93.2427 901.634 93.04 900.994 93.04C900.567 93.04 900.178 93.1413 899.826 93.344C899.474 93.5467 899.181 93.8453 898.946 94.24V100H897.778ZM909.348 100.16C908.676 100.16 908.164 100 907.812 99.68C907.471 99.3493 907.3 98.8747 907.3 98.256V93.152H905.684V92.192H907.3V90.048L908.468 89.776V92.192H910.708V93.152H908.468V97.952C908.468 98.368 908.553 98.6667 908.724 98.848C908.905 99.0293 909.199 99.12 909.604 99.12C909.807 99.12 909.988 99.104 910.148 99.072C910.308 99.04 910.495 98.9867 910.708 98.912V99.952C910.495 100.027 910.271 100.08 910.036 100.112C909.801 100.144 909.572 100.16 909.348 100.16Z" fill="#151515"/>
<path d="M949.5 99.396C949.308 99.396 949.116 99.323 948.97 99.1767L944.646 94.8535C944.451 94.6582 944.451 94.3418 944.646 94.1464C944.842 93.9511 945.158 93.9511 945.354 94.1464L949.5 98.2929L958.646 89.1465C958.842 88.9512 959.158 88.9512 959.354 89.1465C959.549 89.3418 959.549 89.6582 959.354 89.8535L950.03 99.1767C949.884 99.323 949.692 99.396 949.5 99.396Z" fill="#0066CC"/>
<mask id="path-30-inside-6_6010_2944" fill="white">
<path d="M835 77C835 75.3431 836.343 74 838 74H972C973.657 74 975 75.3431 975 77V111C975 112.657 973.657 114 972 114H838C836.343 114 835 112.657 835 111V77Z"/>
</mask>
<path d="M838 74V77H972V74V71H838V74ZM975 77H972V111H975H978V77H975ZM972 114V111H838V114V117H972V114ZM835 111H838V77H835H832V111H835ZM838 114V111H838H835H832C832 114.314 834.686 117 838 117V114ZM975 111H972V111V114V117C975.314 117 978 114.314 978 111H975ZM972 74V77V77H975H978C978 73.6863 975.314 71 972 71V74ZM838 74V71C834.686 71 832 73.6863 832 77H835H838V77V74Z" fill="#0066CC" mask="url(#path-30-inside-6_6010_2944)"/>
<path d="M858 140.5C854.416 140.5 851.5 137.584 851.5 134C851.5 131.212 853.272 128.739 855.91 127.846C856.091 127.785 856.29 127.832 856.425 127.968C856.56 128.104 856.605 128.304 856.543 128.484C856.348 129.043 856.25 129.637 856.25 130.25C856.25 133.283 858.717 135.75 861.75 135.75C862.363 135.75 862.957 135.652 863.516 135.458C863.696 135.395 863.896 135.44 864.032 135.575C864.168 135.709 864.215 135.909 864.154 136.09C863.261 138.728 860.788 140.5 858 140.5ZM855.336 129.188C853.608 130.141 852.5 131.972 852.5 134C852.5 137.033 854.967 139.5 858 139.5C860.028 139.5 861.859 138.392 862.812 136.664C862.465 136.721 862.11 136.75 861.75 136.75C858.166 136.75 855.25 133.834 855.25 130.25C855.25 129.89 855.279 129.535 855.336 129.188Z" fill="#151515"/>
<path d="M876.656 138.896H879.216C880.027 138.896 880.752 138.699 881.392 138.304C882.032 137.909 882.539 137.376 882.912 136.704C883.296 136.021 883.488 135.253 883.488 134.4C883.488 133.547 883.296 132.784 882.912 132.112C882.539 131.429 882.032 130.891 881.392 130.496C880.752 130.101 880.027 129.904 879.216 129.904H876.656V138.896ZM875.424 140V128.8H879.136C879.957 128.8 880.709 128.944 881.392 129.232C882.085 129.509 882.677 129.904 883.168 130.416C883.669 130.917 884.053 131.509 884.32 132.192C884.597 132.864 884.736 133.6 884.736 134.4C884.736 135.2 884.597 135.941 884.32 136.624C884.053 137.296 883.669 137.888 883.168 138.4C882.677 138.901 882.085 139.296 881.392 139.584C880.709 139.861 879.957 140 879.136 140H875.424ZM889.1 140.144C888.546 140.144 888.055 140.043 887.628 139.84C887.202 139.637 886.866 139.36 886.62 139.008C886.386 138.645 886.268 138.229 886.268 137.76C886.268 137.291 886.391 136.885 886.636 136.544C886.882 136.192 887.223 135.92 887.66 135.728C888.098 135.536 888.61 135.44 889.196 135.44C889.644 135.44 890.066 135.488 890.46 135.584C890.866 135.68 891.239 135.835 891.58 136.048V134.976C891.58 134.336 891.41 133.856 891.068 133.536C890.727 133.205 890.226 133.04 889.564 133.04C889.202 133.04 888.828 133.093 888.444 133.2C888.071 133.307 887.655 133.477 887.196 133.712L886.764 132.816C887.81 132.315 888.791 132.064 889.708 132.064C890.679 132.064 891.426 132.304 891.948 132.784C892.471 133.253 892.732 133.931 892.732 134.816V140H891.58V139.088C891.239 139.44 890.86 139.707 890.444 139.888C890.028 140.059 889.58 140.144 889.1 140.144ZM887.388 137.728C887.388 138.187 887.564 138.555 887.916 138.832C888.279 139.109 888.754 139.248 889.34 139.248C889.778 139.248 890.178 139.173 890.54 139.024C890.914 138.875 891.26 138.651 891.58 138.352V136.848C891.25 136.656 890.908 136.517 890.556 136.432C890.204 136.336 889.81 136.288 889.372 136.288C888.775 136.288 888.295 136.421 887.932 136.688C887.57 136.944 887.388 137.291 887.388 137.728ZM895.106 140V132.192H896.274V133.792C896.477 133.248 896.765 132.827 897.138 132.528C897.522 132.219 897.96 132.064 898.45 132.064C898.589 132.064 898.717 132.075 898.834 132.096C898.952 132.107 899.069 132.133 899.186 132.176V133.232C899.058 133.189 898.92 133.157 898.77 133.136C898.632 133.104 898.498 133.088 898.37 133.088C897.89 133.088 897.469 133.227 897.106 133.504C896.754 133.781 896.477 134.171 896.274 134.672V140H895.106ZM900.731 140V128.448L901.899 128.208V135.696L905.611 132.192H907.019L903.051 135.904L907.195 140H905.659L901.899 136.272V140H900.731Z" fill="#151515"/>
<path d="M858 167C854.14 167 851 170.14 851 174C851 177.86 854.14 181 858 181C861.86 181 865 177.86 865 174C865 170.14 861.86 167 858 167ZM858 180C854.691 180 852 177.308 852 174C852 170.692 854.691 168 858 168C861.309 168 864 170.692 864 174C864 177.308 861.309 180 858 180ZM862.5 174C862.5 176.441 860.556 178.429 858.131 178.498C858.06 178.5 858 178.441 858 178.37V169.63C858 169.559 858.06 169.5 858.131 169.502C860.556 169.571 862.5 171.559 862.5 174Z" fill="#151515"/>
<path d="M879.04 180.176C878.165 180.176 877.355 180.021 876.608 179.712C875.861 179.392 875.141 178.912 874.448 178.272L875.2 177.376C875.872 178.005 876.501 178.453 877.088 178.72C877.685 178.987 878.347 179.12 879.072 179.12C879.648 179.12 880.16 179.024 880.608 178.832C881.067 178.629 881.424 178.357 881.68 178.016C881.936 177.675 882.064 177.285 882.064 176.848C882.064 176.283 881.877 175.856 881.504 175.568C881.131 175.269 880.485 175.04 879.568 174.88L877.76 174.576C876.736 174.395 875.984 174.085 875.504 173.648C875.035 173.2 874.8 172.603 874.8 171.856C874.8 171.227 874.96 170.672 875.28 170.192C875.611 169.701 876.064 169.317 876.64 169.04C877.216 168.763 877.883 168.624 878.64 168.624C879.472 168.624 880.245 168.741 880.96 168.976C881.675 169.2 882.379 169.557 883.072 170.048L882.432 171.008C881.856 170.571 881.248 170.24 880.608 170.016C879.968 169.781 879.317 169.664 878.656 169.664C878.133 169.664 877.669 169.755 877.264 169.936C876.869 170.117 876.555 170.363 876.32 170.672C876.096 170.981 875.984 171.333 875.984 171.728C875.984 172.219 876.149 172.603 876.48 172.88C876.811 173.157 877.349 173.355 878.096 173.472L879.888 173.776C881.083 173.989 881.947 174.336 882.48 174.816C883.024 175.285 883.296 175.941 883.296 176.784C883.296 177.435 883.109 178.016 882.736 178.528C882.373 179.04 881.872 179.445 881.232 179.744C880.592 180.032 879.861 180.176 879.04 180.176ZM885.27 183.504C885.025 183.504 884.774 183.467 884.518 183.392V182.352C884.625 182.373 884.737 182.389 884.854 182.4C884.972 182.411 885.073 182.416 885.158 182.416C885.457 182.416 885.702 182.336 885.894 182.176C886.097 182.016 886.268 181.765 886.406 181.424L886.982 180L883.974 172.192H885.27L887.638 178.608L890.15 172.192H891.446L887.51 181.776C887.34 182.192 887.153 182.528 886.95 182.784C886.748 183.04 886.513 183.221 886.246 183.328C885.98 183.445 885.654 183.504 885.27 183.504ZM895.319 180.16C894.679 180.16 894.087 180.064 893.543 179.872C892.999 179.669 892.535 179.381 892.151 179.008L892.775 178.24C893.244 178.581 893.676 178.832 894.071 178.992C894.466 179.141 894.871 179.216 895.287 179.216C895.852 179.216 896.322 179.083 896.695 178.816C897.068 178.549 897.255 178.208 897.255 177.792C897.255 177.472 897.143 177.221 896.919 177.04C896.706 176.859 896.348 176.72 895.847 176.624L894.567 176.4C893.81 176.261 893.25 176.027 892.887 175.696C892.535 175.365 892.359 174.917 892.359 174.352C892.359 173.904 892.476 173.509 892.711 173.168C892.956 172.827 893.292 172.56 893.719 172.368C894.146 172.165 894.631 172.064 895.175 172.064C895.708 172.064 896.215 172.144 896.695 172.304C897.175 172.453 897.66 172.699 898.151 173.04L897.575 173.856C897.17 173.568 896.764 173.36 896.359 173.232C895.954 173.093 895.543 173.024 895.127 173.024C894.615 173.024 894.204 173.136 893.895 173.36C893.586 173.584 893.431 173.888 893.431 174.272C893.431 174.592 893.527 174.837 893.719 175.008C893.922 175.179 894.274 175.307 894.775 175.392L896.087 175.632C896.876 175.771 897.452 176.011 897.815 176.352C898.178 176.693 898.359 177.152 898.359 177.728C898.359 178.187 898.226 178.603 897.959 178.976C897.692 179.339 897.33 179.627 896.871 179.84C896.412 180.053 895.895 180.16 895.319 180.16ZM902.957 180.16C902.285 180.16 901.773 180 901.421 179.68C901.08 179.349 900.909 178.875 900.909 178.256V173.152H899.293V172.192H900.909V170.048L902.077 169.776V172.192H904.317V173.152H902.077V177.952C902.077 178.368 902.163 178.667 902.333 178.848C902.515 179.029 902.808 179.12 903.213 179.12C903.416 179.12 903.597 179.104 903.757 179.072C903.917 179.04 904.104 178.987 904.317 178.912V179.952C904.104 180.027 903.88 180.08 903.645 180.112C903.411 180.144 903.181 180.16 902.957 180.16ZM909.392 180.16C908.667 180.16 908.011 179.984 907.424 179.632C906.837 179.269 906.373 178.784 906.032 178.176C905.691 177.557 905.52 176.864 905.52 176.096C905.52 175.328 905.68 174.64 906 174.032C906.331 173.424 906.773 172.944 907.328 172.592C907.883 172.24 908.501 172.064 909.184 172.064C909.877 172.064 910.491 172.24 911.024 172.592C911.568 172.933 911.995 173.403 912.304 174C912.624 174.587 912.784 175.253 912.784 176V176.352H906.656C906.699 176.885 906.843 177.365 907.088 177.792C907.344 178.208 907.675 178.539 908.08 178.784C908.496 179.019 908.949 179.136 909.44 179.136C909.845 179.136 910.235 179.067 910.608 178.928C910.992 178.779 911.317 178.581 911.584 178.336L912.32 179.12C911.872 179.472 911.408 179.733 910.928 179.904C910.448 180.075 909.936 180.16 909.392 180.16ZM906.688 175.52H911.632C911.579 175.051 911.435 174.635 911.2 174.272C910.976 173.899 910.688 173.605 910.336 173.392C909.995 173.179 909.611 173.072 909.184 173.072C908.757 173.072 908.368 173.179 908.016 173.392C907.664 173.595 907.371 173.883 907.136 174.256C906.912 174.619 906.763 175.04 906.688 175.52ZM914.778 180V172.192H915.946V173.408C916.245 172.96 916.586 172.624 916.97 172.4C917.354 172.176 917.786 172.064 918.266 172.064C918.821 172.064 919.306 172.203 919.722 172.48C920.138 172.747 920.453 173.115 920.666 173.584C920.975 173.083 921.343 172.704 921.77 172.448C922.207 172.192 922.709 172.064 923.274 172.064C923.797 172.064 924.255 172.187 924.65 172.432C925.055 172.677 925.37 173.019 925.594 173.456C925.818 173.883 925.93 174.384 925.93 174.96V180H924.762V175.248C924.762 174.565 924.591 174.027 924.25 173.632C923.909 173.237 923.439 173.04 922.842 173.04C922.437 173.04 922.069 173.141 921.738 173.344C921.418 173.547 921.135 173.856 920.89 174.272C920.911 174.379 920.927 174.491 920.938 174.608C920.949 174.725 920.954 174.843 920.954 174.96V180H919.786V175.248C919.786 174.565 919.61 174.027 919.258 173.632C918.917 173.237 918.447 173.04 917.85 173.04C917.05 173.04 916.415 173.424 915.946 174.192V180H914.778Z" fill="#151515"/>
</g>
<g clip-path="url(#clip6_6010_2944)">
<path d="M64.2229 46.4422C67.0014 46.4422 71.0269 45.8667 71.0269 42.5622C71.0269 42.3044 71.0202 42.0533 70.958 41.8022L69.302 34.6111C68.9175 33.0311 68.584 32.3111 65.8033 30.9222C63.6494 29.82 58.9526 28 57.5634 28C56.2697 28 55.8874 29.6756 54.3537 29.6756C52.8199 29.6756 51.7663 28.4311 50.3771 28.4311C48.9878 28.4311 48.172 29.3422 47.503 31.2089C47.503 31.2089 45.6336 36.4778 45.3935 37.2444C45.3446 37.3889 45.3446 37.5489 45.3446 37.6756C45.3446 39.7244 53.4112 46.4422 64.2251 46.4422M71.4604 43.9022C71.8449 45.7222 71.8449 45.9133 71.8449 46.1533C71.8449 49.2667 68.3462 50.9911 63.7472 50.9911C53.349 50.9911 44.2444 44.9067 44.2444 40.8844C44.2444 40.2622 44.3888 39.6867 44.58 39.2556C40.8412 39.4467 36.0022 40.1178 36.0022 44.3822C36.0022 51.3756 52.5821 60 65.71 60C75.7726 60 78.311 55.4489 78.311 51.8556C78.311 49.0289 75.8682 45.82 71.4581 43.9022" fill="#EE0000"/>
<path d="M71.4582 43.9044C71.8427 45.7244 71.8427 45.9155 71.8427 46.1555C71.8427 49.2688 68.344 50.9933 63.7451 50.9933C53.3468 50.9933 44.2422 44.9088 44.2422 40.8866C44.2422 40.2644 44.3867 39.6888 44.5778 39.2577L45.3936 37.2444C45.3447 37.3888 45.3447 37.5488 45.3447 37.6755C45.3447 39.7244 53.4113 46.4422 64.2252 46.4422C67.0037 46.4422 71.0292 45.8666 71.0292 42.5622C71.0292 42.3044 71.0225 42.0533 70.9603 41.8022L71.4604 43.9044H71.4582Z" fill="black"/>
<path d="M164.754 48.5111C164.754 51.1511 166.343 52.4378 169.242 52.4378C169.944 52.4378 171.158 52.2733 171.884 52.0644V49.0022C171.253 49.1889 170.786 49.26 170.177 49.26C168.986 49.26 168.541 48.8867 168.541 47.7644V43.0667H172V39.9111H168.541V35.9156L164.754 36.7333V39.9111H162.253V43.0667H164.754V48.5111ZM152.986 48.5822C152.986 47.7644 153.804 47.3667 155.042 47.3667C155.86 47.3667 156.609 47.4844 157.287 47.6467V49.2356C156.585 49.6333 155.767 49.82 154.927 49.82C153.711 49.82 152.986 49.3533 152.986 48.5822ZM154.142 52.4844C155.473 52.4844 156.549 52.2044 157.554 51.5267V52.2756H161.295V44.3533C161.295 41.3378 159.261 39.68 155.871 39.68C153.978 39.68 152.108 40.1244 150.097 41.0356L151.452 43.8178C152.902 43.2111 154.118 42.8356 155.193 42.8356C156.76 42.8356 157.554 43.4422 157.554 44.6822V45.2889C156.665 45.0556 155.731 44.9378 154.749 44.9378C151.57 44.9378 149.652 46.2689 149.652 48.6533C149.652 50.8267 151.381 52.4867 154.14 52.4867M133.592 52.2756H137.613V45.8711H144.346V52.2756H148.367V35.9156H144.346V42.2022H137.613V35.9156H133.592V52.2756ZM118.27 46.0822C118.27 44.3067 119.673 42.9511 121.52 42.9511C122.549 42.9511 123.483 43.3022 124.139 43.9089V48.2333C123.461 48.8867 122.572 49.2156 121.52 49.2156C119.697 49.2156 118.27 47.86 118.27 46.0844M124.185 52.2778H127.926V35.0978L124.139 35.9156V40.5667C123.203 40.0289 122.129 39.7489 120.982 39.7489C117.381 39.7489 114.554 42.5311 114.554 46.0822C114.554 49.6333 117.337 52.44 120.867 52.44C122.083 52.44 123.227 52.0667 124.185 51.3644V52.2756V52.2778ZM107.027 42.7889C108.219 42.7889 109.226 43.56 109.621 44.7511H104.456C104.829 43.5133 105.765 42.7889 107.027 42.7889ZM100.646 46.1067C100.646 49.7067 103.591 52.5111 107.379 52.5111C109.459 52.5111 110.98 51.9511 112.544 50.6422L110.044 48.4222C109.459 49.0289 108.595 49.3578 107.565 49.3578C106.163 49.3578 105.018 48.5867 104.527 47.3956H113.34V46.46C113.34 42.5333 110.7 39.7067 107.099 39.7067C103.498 39.7067 100.646 42.5111 100.646 46.1111M94.1241 39.3578C95.4556 39.3578 96.2047 40.2 96.2047 41.2044C96.2047 42.2089 95.4556 43.0511 94.1241 43.0511H90.1497V39.3578H94.1241ZM86.1287 52.2822H90.1497V46.3222H93.2128L96.298 52.2822H100.786L97.1849 45.7378C99.1254 44.8956 100.27 43.1444 100.27 41.1333C100.27 38.1889 97.9562 35.9222 94.4953 35.9222H86.1265V52.2822H86.1287Z" fill="black"/>
</g>
<defs>
<filter id="filter0_d_6010_2944" x="0" y="264" width="1012" height="88" filterUnits="userSpaceOnUse" color-interpolation-filters="sRGB">
<feFlood flood-opacity="0" result="BackgroundImageFix"/>
<feColorMatrix in="SourceAlpha" type="matrix" values="0 0 0 0 0 0 0 0 0 0 0 0 0 0 0 0 0 0 127 0" result="hardAlpha"/>
<feOffset dy="2"/>
<feGaussianBlur stdDeviation="2"/>
<feComposite in2="hardAlpha" operator="out"/>
<feColorMatrix type="matrix" values="0 0 0 0 0.0823529 0 0 0 0 0.0823529 0 0 0 0 0.0823529 0 0 0 0.2 0"/>
<feBlend mode="normal" in2="BackgroundImageFix" result="effect1_dropShadow_6010_2944"/>
<feBlend mode="normal" in="SourceGraphic" in2="effect1_dropShadow_6010_2944" result="shape"/>
</filter>
<filter id="filter1_d_6010_2944" x="827" y="325" width="156" height="150" filterUnits="userSpaceOnUse" color-interpolation-filters="sRGB">
<feFlood flood-opacity="0" result="BackgroundImageFix"/>
<feColorMatrix in="SourceAlpha" type="matrix" values="0 0 0 0 0 0 0 0 0 0 0 0 0 0 0 0 0 0 127 0" result="hardAlpha"/>
<feMorphology radius="1" operator="dilate" in="SourceAlpha" result="effect1_dropShadow_6010_2944"/>
<feOffset dy="4"/>
<feGaussianBlur stdDeviation="3"/>
<feComposite in2="hardAlpha" operator="out"/>
<feColorMatrix type="matrix" values="0 0 0 0 0.0823529 0 0 0 0 0.0823529 0 0 0 0 0.0823529 0 0 0 0.25 0"/>
<feBlend mode="normal" in2="BackgroundImageFix" result="effect1_dropShadow_6010_2944"/>
<feBlend mode="normal" in="SourceGraphic" in2="effect1_dropShadow_6010_2944" result="shape"/>
</filter>
<filter id="filter2_d_6010_2944" x="0" y="2" width="1012" height="88" filterUnits="userSpaceOnUse" color-interpolation-filters="sRGB">
<feFlood flood-opacity="0" result="BackgroundImageFix"/>
<feColorMatrix in="SourceAlpha" type="matrix" values="0 0 0 0 0 0 0 0 0 0 0 0 0 0 0 0 0 0 127 0" result="hardAlpha"/>
<feOffset dy="2"/>
<feGaussianBlur stdDeviation="2"/>
<feComposite in2="hardAlpha" operator="out"/>
<feColorMatrix type="matrix" values="0 0 0 0 0.0823529 0 0 0 0 0.0823529 0 0 0 0 0.0823529 0 0 0 0.2 0"/>
<feBlend mode="normal" in2="BackgroundImageFix" result="effect1_dropShadow_6010_2944"/>
<feBlend mode="normal" in="SourceGraphic" in2="effect1_dropShadow_6010_2944" result="shape"/>
</filter>
<filter id="filter3_d_6010_2944" x="827" y="63" width="156" height="150" filterUnits="userSpaceOnUse" color-interpolation-filters="sRGB">
<feFlood flood-opacity="0" result="BackgroundImageFix"/>
<feColorMatrix in="SourceAlpha" type="matrix" values="0 0 0 0 0 0 0 0 0 0 0 0 0 0 0 0 0 0 127 0" result="hardAlpha"/>
<feMorphology radius="1" operator="dilate" in="SourceAlpha" result="effect1_dropShadow_6010_2944"/>
<feOffset dy="4"/>
<feGaussianBlur stdDeviation="3"/>
<feComposite in2="hardAlpha" operator="out"/>
<feColorMatrix type="matrix" values="0 0 0 0 0.0823529 0 0 0 0 0.0823529 0 0 0 0 0.0823529 0 0 0 0.25 0"/>
<feBlend mode="normal" in2="BackgroundImageFix" result="effect1_dropShadow_6010_2944"/>
<feBlend mode="normal" in="SourceGraphic" in2="effect1_dropShadow_6010_2944" result="shape"/>
</filter>
<clipPath id="clip0_6010_2944">
<rect width="10" height="10" fill="white" transform="translate(950 301)"/>
</clipPath>
<clipPath id="clip1_6010_2944">
<rect width="16" height="16" fill="white" transform="translate(850 348)"/>
</clipPath>
<clipPath id="clip2_6010_2944">
<rect width="136" height="32" fill="white" transform="translate(36 290)"/>
</clipPath>
<clipPath id="clip3_6010_2944">
<rect width="16" height="16" fill="white" transform="translate(926 36)"/>
</clipPath>
<clipPath id="clip4_6010_2944">
<rect width="10" height="10" fill="white" transform="translate(950 39)"/>
</clipPath>
<clipPath id="clip5_6010_2944">
<rect width="16" height="16" fill="white" transform="translate(850 86)"/>
</clipPath>
<clipPath id="clip6_6010_2944">
<rect width="136" height="32" fill="white" transform="translate(36 28)"/>
</clipPath>
</defs>
</svg>
