<svg xmlns="http://www.w3.org/2000/svg" xmlns:xlink="http://www.w3.org/1999/xlink" width="872" height="489" viewBox="0 0 872 489"><defs><filter id="a" x="19" y="34" width="834" height="451" filterUnits="userSpaceOnUse"><feOffset dy="15" input="SourceAlpha"/><feGaussianBlur stdDeviation="15" result="b"/><feFlood flood-opacity="0.302"/><feComposite operator="in" in2="b"/><feComposite in="SourceGraphic"/></filter></defs><g transform="translate(-424 -855)"><rect width="872" height="489" transform="translate(424 855)" fill="#151515" opacity="0.25"/><g transform="translate(14 -2306)"><g transform="matrix(1, 0, 0, 1, 410, 3161)" filter="url(#a)"><rect width="744" height="361" rx="3" transform="translate(64 64)" fill="#fff"/></g><g transform="translate(237 3296)"><text transform="translate(376 246)" fill="#06c" font-size="16" font-family="RedHatText-Regular, Red Hat Text"><tspan x="0" y="0">Cancel</tspan></text></g><g transform="translate(146 3296)"><rect width="75" height="36" rx="3" transform="translate(360 222)" fill="#06c"/><text transform="translate(376 246)" fill="#fff" font-size="16" font-family="RedHatText-Regular, Red Hat Text"><tspan x="0" y="0">Leave</tspan></text></g><rect width="680" height="1" transform="translate(506 3485)" fill="#d2d2d2"/><g transform="translate(38 56)"><rect width="24" height="24" transform="translate(1108 3388)" fill="none"/><path d="M12.35,9.85l-6.8,6.8a1.217,1.217,0,0,1-1.6,0l-1.2-1a1.493,1.493,0,0,1,0-1.8l4.8-4.8-4.8-4.8a1.493,1.493,0,0,1,0-1.8l1.2-1.2a1.217,1.217,0,0,1,1.6,0l6.8,6.8A1.493,1.493,0,0,1,12.35,9.85Z" transform="translate(1112.55 3391.05)"/></g><text transform="translate(530 3463)" fill="#151515" font-size="20" font-family="RedHatDisplay-Medium, Red Hat Display" font-weight="500"><tspan x="0" y="0">Will my information be saved?</tspan></text><rect width="680" height="1" transform="translate(506 3426)" fill="#d2d2d2"/><g transform="translate(38 -3)"><rect width="24" height="24" transform="translate(1108 3388)" fill="none"/><path d="M12.35,9.85l-6.8,6.8a1.217,1.217,0,0,1-1.6,0l-1.2-1a1.493,1.493,0,0,1,0-1.8l4.8-4.8-4.8-4.8a1.493,1.493,0,0,1,0-1.8l1.2-1.2a1.217,1.217,0,0,1,1.6,0l6.8,6.8A1.493,1.493,0,0,1,12.35,9.85Z" transform="translate(1112.55 3391.05)"/></g><text transform="translate(530 3404)" fill="#151515" font-size="20" font-family="RedHatDisplay-Medium, Red Hat Display" font-weight="500"><tspan x="0" y="0">What does leave mean?</tspan></text><rect width="680" height="1" transform="translate(506 3367)" fill="#d2d2d2"/><text transform="translate(506 3330)" fill="#151515" font-size="18" font-family="RedHatText-Regular, Red Hat Text"><tspan x="0" y="0">If you leave the page, any unsaved information will be lost.</tspan></text><text transform="translate(506 3281)" fill="#151515" font-size="24" font-family="RedHatDisplay-Medium, Red Hat Display" font-weight="500"><tspan x="0" y="0">Leave page</tspan></text><g transform="translate(188 2995)"><rect width="14" height="14" transform="translate(984 262)" fill="none"/><path d="M6.9,85l2.843-2.843a.894.894,0,0,0,0-1.264l-.632-.632a.894.894,0,0,0-1.264,0L5,83.1,2.157,80.262a.894.894,0,0,0-1.264,0l-.632.632a.894.894,0,0,0,0,1.264L3.1,85,.262,87.843a.894.894,0,0,0,0,1.264l.632.632a.894.894,0,0,0,1.264,0L5,86.9l2.843,2.843a.894.894,0,0,0,1.264,0l.632-.632a.894.894,0,0,0,0-1.264Z" transform="translate(986 184)" fill="#6a6e73"/></g></g></g></svg>