<svg xmlns="http://www.w3.org/2000/svg" xmlns:xlink="http://www.w3.org/1999/xlink" width="813" height="640" viewBox="0 0 813 640"><defs><style>.a,.b,.i{fill:#151515;}.a{opacity:0.5;}.c,.d,.l{fill:#fff;}.c,.i{opacity:0.25;}.e{fill:none;}.f{opacity:0.04;}.g{fill:blue;}.h{fill:red;}.j{fill:#6a6e73;}.k{fill:#06c;}.l{font-size:16px;font-family:RedHatText-Regular, Red Hat Text;}.m{opacity:0.03;}.n{filter:url(#a);}</style><filter id="a" x="0" y="193" width="418" height="285" filterUnits="userSpaceOnUse"><feOffset dy="15" input="SourceAlpha"/><feGaussianBlur stdDeviation="15" result="b"/><feFlood flood-opacity="0.302"/><feComposite operator="in" in2="b"/><feComposite in="SourceGraphic"/></filter></defs><g transform="translate(-331 -9701)"><g transform="translate(360 8846)"><rect class="a" width="360" height="640" transform="translate(424 855)"/><g transform="translate(-48 164)"><rect class="b" width="328" height="185" transform="translate(488 919)"/><g transform="translate(620 980)"><circle class="c" cx="32" cy="32" r="32"/><path class="d" d="M44,32,24,42V22Z"/></g></g><g transform="translate(-230 799)"><rect class="e" width="14" height="14" transform="translate(984 262)"/><path class="d" d="M6.9,85l2.843-2.843a.894.894,0,0,0,0-1.264l-.632-.632a.894.894,0,0,0-1.264,0L5,83.1,2.157,80.262a.894.894,0,0,0-1.264,0l-.632.632a.894.894,0,0,0,0,1.264L3.1,85,.262,87.843a.894.894,0,0,0,0,1.264l.632.632a.894.894,0,0,0,1.264,0L5,86.9l2.843,2.843a.894.894,0,0,0,1.264,0l.632-.632a.894.894,0,0,0,0-1.264Z" transform="translate(986 184)"/></g><g class="f" transform="translate(64 -7766)"><rect class="g" width="16" height="640" transform="translate(704 8621)"/><rect class="h" width="328" height="640" transform="translate(376 8621)"/><rect class="g" width="16" height="640" transform="translate(360 8621)"/></g></g><g transform="translate(-64 7541)"><rect class="i" width="360" height="640" transform="translate(424 2160)"/><g transform="translate(-34 -842)"><g class="n" transform="matrix(1, 0, 0, 1, 429, 3002)"><rect class="d" width="328" height="195" rx="3" transform="translate(45 223)"/></g><g transform="translate(-220 2987)"><rect class="e" width="14" height="14" transform="translate(984 262)"/><path class="j" d="M6.9,85l2.843-2.843a.894.894,0,0,0,0-1.264l-.632-.632a.894.894,0,0,0-1.264,0L5,83.1,2.157,80.262a.894.894,0,0,0-1.264,0l-.632.632a.894.894,0,0,0,0,1.264L3.1,85,.262,87.843a.894.894,0,0,0,0,1.264l.632.632a.894.894,0,0,0,1.264,0L5,86.9l2.843,2.843a.894.894,0,0,0,1.264,0l.632-.632a.894.894,0,0,0,0-1.264Z" transform="translate(986 184)"/></g><g transform="translate(229 3138)"><path class="k" d="M6.624-.944A4.485,4.485,0,0,1,2.144-5.6a4.478,4.478,0,0,1,4.448-4.656A4.489,4.489,0,0,1,10-8.688l.816-.848a5.6,5.6,0,0,0-4.224-1.84A5.676,5.676,0,0,0,.9-5.6,5.676,5.676,0,0,0,6.592.176a5.658,5.658,0,0,0,4.192-1.84l-.8-.816A4.388,4.388,0,0,1,6.624-.944ZM15.2.144A3.321,3.321,0,0,0,17.68-.9V0h1.152V-5.184c0-1.808-1.12-2.752-3.024-2.752a6.539,6.539,0,0,0-2.944.752l.448.9a5.037,5.037,0,0,1,2.352-.672c1.312,0,2.016.624,2.016,1.936v1.056a4.683,4.683,0,0,0-2.368-.592c-1.7,0-2.928.864-2.928,2.3C12.384-.832,13.552.144,15.2.144ZM13.5-2.272c0-.912.832-1.456,1.968-1.456a4.052,4.052,0,0,1,2.208.576v1.5a3.116,3.116,0,0,1-2.24.9C14.3-.752,13.5-1.36,13.5-2.272ZM21.152,0H22.32V-5.76a2.32,2.32,0,0,1,2.048-1.2,2.023,2.023,0,0,1,2.1,2.24V0h1.168V-5.056a2.722,2.722,0,0,0-2.816-2.88,2.813,2.813,0,0,0-2.5,1.408v-1.28H21.152ZM33.488-.912A2.817,2.817,0,0,1,30.768-3.9a2.832,2.832,0,0,1,2.72-2.976,2.983,2.983,0,0,1,2.144.976l.752-.816a4.146,4.146,0,0,0-2.912-1.216A3.912,3.912,0,0,0,29.6-3.9,3.926,3.926,0,0,0,33.472.144,3.955,3.955,0,0,0,36.336-1.12l-.72-.72A2.791,2.791,0,0,1,33.488-.912ZM37.408-3.9A3.907,3.907,0,0,0,41.28.144,4.5,4.5,0,0,0,44.208-.9l-.736-.8a3.191,3.191,0,0,1-2.144.8A2.81,2.81,0,0,1,38.56-3.664h6.128V-4A3.7,3.7,0,0,0,41.1-7.936,3.812,3.812,0,0,0,37.408-3.9Zm3.68-3.008A2.572,2.572,0,0,1,43.52-4.48H38.592A2.581,2.581,0,0,1,41.088-6.912Zm6.688-4.528-1.168.24V0h1.168Z" transform="translate(376 246)"/></g><g transform="translate(138 3138)"><rect class="k" width="75" height="36" rx="3" transform="translate(360 222)"/><text class="l" transform="translate(376 246)"><tspan x="0" y="0">Leave</tspan></text></g><path class="b" d="M1.392,16H2.624V4.8H1.392ZM4.448,8.192v.96H6.192V16H7.36V9.152H9.6v-.96H7.36V6.976c0-.944.416-1.36,1.28-1.36a2.856,2.856,0,0,1,.96.144V4.7A3.664,3.664,0,0,0,8.544,4.56a2.147,2.147,0,0,0-2.352,2.4V8.192Zm12.064,8.9c-.32.8-.736.992-1.264.992a3.939,3.939,0,0,1-.64-.064v1.04a2.568,2.568,0,0,0,.752.112c1.168,0,1.76-.5,2.24-1.728l3.808-9.248h-1.28l-2.512,6.432L15.248,8.192H13.936l3.024,7.792ZM22.224,12.1a3.816,3.816,0,1,0,7.616,0,3.814,3.814,0,1,0-7.616,0Zm6.448.016a2.663,2.663,0,1,1-5.28,0,2.664,2.664,0,1,1,5.28,0Zm4.3-3.92H31.808v5.056a2.722,2.722,0,0,0,2.816,2.88,2.813,2.813,0,0,0,2.5-1.408V16h1.168V8.192H37.12v5.76a2.32,2.32,0,0,1-2.048,1.2,2.023,2.023,0,0,1-2.1-2.24ZM45.488,4.56,44.32,4.8V16h1.168ZM47.472,12.1a3.907,3.907,0,0,0,3.872,4.048,4.5,4.5,0,0,0,2.928-1.04l-.736-.8a3.191,3.191,0,0,1-2.144.8,2.81,2.81,0,0,1-2.768-2.768h6.128V12a3.7,3.7,0,0,0-3.584-3.936A3.812,3.812,0,0,0,47.472,12.1Zm3.68-3.008a2.572,2.572,0,0,1,2.432,2.432H48.656A2.581,2.581,0,0,1,51.152,9.088Zm7.824,7.056a3.321,3.321,0,0,0,2.48-1.04V16h1.152V10.816c0-1.808-1.12-2.752-3.024-2.752a6.539,6.539,0,0,0-2.944.752l.448.9A5.037,5.037,0,0,1,59.44,9.04c1.312,0,2.016.624,2.016,1.936v1.056a4.683,4.683,0,0,0-2.368-.592c-1.7,0-2.928.864-2.928,2.3C56.16,15.168,57.328,16.144,58.976,16.144Zm-1.7-2.416c0-.912.832-1.456,1.968-1.456a4.052,4.052,0,0,1,2.208.576v1.5a3.116,3.116,0,0,1-2.24.9C58.08,15.248,57.28,14.64,57.28,13.728ZM66.864,16h1.1l3.216-7.808H69.936l-2.5,6.336-2.5-6.336h-1.3Zm5.12-3.9a3.907,3.907,0,0,0,3.872,4.048,4.5,4.5,0,0,0,2.928-1.04l-.736-.8a3.191,3.191,0,0,1-2.144.8,2.81,2.81,0,0,1-2.768-2.768h6.128V12A3.7,3.7,0,0,0,75.68,8.064,3.812,3.812,0,0,0,71.984,12.1Zm3.68-3.008A2.572,2.572,0,0,1,78.1,11.52H73.168A2.581,2.581,0,0,1,75.664,9.088ZM85.856,14.24c0,1.216.688,1.9,2.048,1.9a4.713,4.713,0,0,0,1.376-.208V14.9a2.881,2.881,0,0,1-1.1.208c-.832,0-1.152-.336-1.152-1.168V9.152H89.28v-.96H87.024V5.936l-1.168.272V8.192H84.24v.96h1.616ZM96.224,16h1.168V10.944a2.722,2.722,0,0,0-2.816-2.88,2.813,2.813,0,0,0-2.5,1.408V4.56l-1.168.24V16H92.08V10.24a2.32,2.32,0,0,1,2.048-1.2,2.023,2.023,0,0,1,2.1,2.24Zm3.136-3.9a3.907,3.907,0,0,0,3.872,4.048,4.5,4.5,0,0,0,2.928-1.04l-.736-.8a3.191,3.191,0,0,1-2.144.8,2.81,2.81,0,0,1-2.768-2.768h6.128V12a3.7,3.7,0,0,0-3.584-3.936A3.812,3.812,0,0,0,99.36,12.1Zm3.68-3.008a2.572,2.572,0,0,1,2.432,2.432h-4.928A2.581,2.581,0,0,1,103.04,9.088Zm9.248,10.1h1.168V15.008a3.14,3.14,0,0,0,2.448,1.1,3.8,3.8,0,0,0,3.68-4.016,3.78,3.78,0,0,0-3.616-4,3.081,3.081,0,0,0-2.528,1.216V8.192h-1.152ZM115.68,9.12a2.8,2.8,0,0,1,2.736,2.992,2.769,2.769,0,0,1-4.96,1.9V10.192A2.688,2.688,0,0,1,115.68,9.12Zm8.384,7.024a3.321,3.321,0,0,0,2.48-1.04V16H127.7V10.816c0-1.808-1.12-2.752-3.024-2.752a6.539,6.539,0,0,0-2.944.752l.448.9a5.037,5.037,0,0,1,2.352-.672c1.312,0,2.016.624,2.016,1.936v1.056a4.683,4.683,0,0,0-2.368-.592c-1.7,0-2.928.864-2.928,2.3C121.248,15.168,122.416,16.144,124.064,16.144Zm-1.7-2.416c0-.912.832-1.456,1.968-1.456a4.052,4.052,0,0,1,2.208.576v1.5a3.116,3.116,0,0,1-2.24.9C123.168,15.248,122.368,14.64,122.368,13.728ZM133.3,16.112a3.153,3.153,0,0,0,2.48-1.136v1.28c0,1.312-.768,2-2.176,2a5.084,5.084,0,0,1-2.48-.72l-.5.9a6.078,6.078,0,0,0,3.04.816c2.112,0,3.28-1.056,3.28-3.008V8.192h-1.152v.992A3.223,3.223,0,0,0,133.36,8.1a3.8,3.8,0,0,0-3.68,4.016A3.78,3.78,0,0,0,133.3,16.112ZM130.848,12.1a2.775,2.775,0,0,1,2.72-2.976,2.813,2.813,0,0,1,2.208,1.04v3.888a2.7,2.7,0,0,1-2.208,1.04A2.789,2.789,0,0,1,130.848,12.1Zm8.064,0a3.907,3.907,0,0,0,3.872,4.048,4.5,4.5,0,0,0,2.928-1.04l-.736-.8a3.191,3.191,0,0,1-2.144.8,2.81,2.81,0,0,1-2.768-2.768h6.128V12a3.7,3.7,0,0,0-3.584-3.936A3.812,3.812,0,0,0,138.912,12.1Zm3.68-3.008a2.572,2.572,0,0,1,2.432,2.432H140.1A2.581,2.581,0,0,1,142.592,9.088Zm5.28,5.728-.88,3.376h.912l1.216-3.376Zm9.44,1.328a3.321,3.321,0,0,0,2.48-1.04V16h1.152V10.816c0-1.808-1.12-2.752-3.024-2.752a6.539,6.539,0,0,0-2.944.752l.448.9a5.037,5.037,0,0,1,2.352-.672c1.312,0,2.016.624,2.016,1.936v1.056a4.683,4.683,0,0,0-2.368-.592c-1.7,0-2.928.864-2.928,2.3C154.5,15.168,155.664,16.144,157.312,16.144Zm-1.7-2.416c0-.912.832-1.456,1.968-1.456a4.052,4.052,0,0,1,2.208.576v1.5a3.116,3.116,0,0,1-2.24.9C156.416,15.248,155.616,14.64,155.616,13.728ZM163.264,16h1.168V10.24a2.32,2.32,0,0,1,2.048-1.2,2.023,2.023,0,0,1,2.1,2.24V16h1.168V10.944a2.722,2.722,0,0,0-2.816-2.88,2.813,2.813,0,0,0-2.5,1.408V8.192h-1.168Zm10.352,1.088c-.32.8-.736.992-1.264.992a3.94,3.94,0,0,1-.64-.064v1.04a2.568,2.568,0,0,0,.752.112c1.168,0,1.76-.5,2.24-1.728l3.808-9.248h-1.28l-2.512,6.432-2.368-6.432H171.04l3.024,7.792Zm11.264-8.9h-1.168v5.056a2.722,2.722,0,0,0,2.816,2.88,2.813,2.813,0,0,0,2.5-1.408V16h1.168V8.192h-1.168v5.76a2.32,2.32,0,0,1-2.048,1.2,2.023,2.023,0,0,1-2.1-2.24ZM192.5,16h1.168V10.24a2.32,2.32,0,0,1,2.048-1.2,2.023,2.023,0,0,1,2.1,2.24V16h1.168V10.944a2.722,2.722,0,0,0-2.816-2.88,2.813,2.813,0,0,0-2.5,1.408V8.192H192.5Zm8.048-1.088a4.33,4.33,0,0,0,3.184,1.232c1.76,0,3.04-1.088,3.024-2.416.016-1.184-.736-1.824-2.272-2.1l-1.3-.24c-.96-.176-1.36-.448-1.36-1.12,0-.768.72-1.248,1.7-1.248a3.943,3.943,0,0,1,2.416.88l.624-.8a4.858,4.858,0,0,0-2.992-1.04c-1.648,0-2.816.96-2.816,2.288,0,1.168.752,1.792,2.208,2.048l1.3.224c.976.176,1.392.512,1.392,1.168,0,.768-.7,1.408-1.968,1.408a3.5,3.5,0,0,1-2.464-1.024Zm10.416,1.232a3.321,3.321,0,0,0,2.48-1.04V16h1.152V10.816c0-1.808-1.12-2.752-3.024-2.752a6.539,6.539,0,0,0-2.944.752l.448.9a5.037,5.037,0,0,1,2.352-.672c1.312,0,2.016.624,2.016,1.936v1.056a4.683,4.683,0,0,0-2.368-.592c-1.7,0-2.928.864-2.928,2.3C208.144,15.168,209.312,16.144,210.96,16.144Zm-1.7-2.416c0-.912.832-1.456,1.968-1.456a4.052,4.052,0,0,1,2.208.576v1.5a3.116,3.116,0,0,1-2.24.9C210.064,15.248,209.264,14.64,209.264,13.728ZM218.848,16h1.1l3.216-7.808H221.92l-2.5,6.336-2.5-6.336h-1.3Zm5.12-3.9a3.907,3.907,0,0,0,3.872,4.048,4.5,4.5,0,0,0,2.928-1.04l-.736-.8a3.191,3.191,0,0,1-2.144.8,2.81,2.81,0,0,1-2.768-2.768h6.128V12a3.7,3.7,0,0,0-3.584-3.936A3.812,3.812,0,0,0,223.968,12.1Zm3.68-3.008a2.572,2.572,0,0,1,2.432,2.432h-4.928A2.581,2.581,0,0,1,227.648,9.088ZM238.96,16h1.168V4.56l-1.184.24V9.168A3.2,3.2,0,0,0,236.528,8.1a3.8,3.8,0,0,0-3.68,4.016,3.78,3.78,0,0,0,3.616,4,3.139,3.139,0,0,0,2.5-1.168Zm-4.944-3.9a2.775,2.775,0,0,1,2.72-2.976,2.813,2.813,0,0,1,2.208,1.04v3.888a2.7,2.7,0,0,1-2.208,1.04A2.789,2.789,0,0,1,234.016,12.1ZM1.744,30.224a.84.84,0,1,0-.832-.848A.83.83,0,0,0,1.744,30.224Zm.576,1.968H1.152V40H2.32ZM4.64,40H5.808V34.24a2.32,2.32,0,0,1,2.048-1.2,2.023,2.023,0,0,1,2.1,2.24V40H11.12V34.944A2.722,2.722,0,0,0,8.3,32.064a2.813,2.813,0,0,0-2.5,1.408v-1.28H4.64Zm7.728-7.808v.96h1.744V40H15.28V33.152h2.24v-.96H15.28V30.976c0-.944.416-1.36,1.28-1.36a2.856,2.856,0,0,1,.96.144V28.7a3.664,3.664,0,0,0-1.056-.144,2.147,2.147,0,0,0-2.352,2.4v1.232Zm5.856,3.9a3.816,3.816,0,1,0,7.616,0,3.814,3.814,0,1,0-7.616,0Zm6.448.016a2.663,2.663,0,1,1-5.28,0,2.767,2.767,0,0,1,2.624-3.024A2.771,2.771,0,0,1,24.672,36.112ZM27.808,40h1.168V34.656a2.2,2.2,0,0,1,2.1-1.584,2.768,2.768,0,0,1,.816.144V32.16a2.3,2.3,0,0,0-.736-.112,2.321,2.321,0,0,0-2.176,1.7V32.192H27.808Zm5.616,0h1.168V34.192a2.171,2.171,0,0,1,1.9-1.152,1.939,1.939,0,0,1,1.936,2.208V40H39.6V34.96a3.238,3.238,0,0,0-.064-.688,2.2,2.2,0,0,1,1.952-1.232c1.216,0,1.92.864,1.92,2.208V40h1.184V34.96a2.669,2.669,0,0,0-2.672-2.9,2.915,2.915,0,0,0-2.608,1.52,2.56,2.56,0,0,0-2.384-1.52,2.672,2.672,0,0,0-2.336,1.344V32.192H33.424Zm15.9.144a3.321,3.321,0,0,0,2.48-1.04V40H52.96V34.816c0-1.808-1.12-2.752-3.024-2.752a6.539,6.539,0,0,0-2.944.752l.448.9a5.037,5.037,0,0,1,2.352-.672c1.312,0,2.016.624,2.016,1.936v1.056a4.683,4.683,0,0,0-2.368-.592c-1.7,0-2.928.864-2.928,2.3C46.512,39.168,47.68,40.144,49.328,40.144Zm-1.7-2.416c0-.912.832-1.456,1.968-1.456a4.052,4.052,0,0,1,2.208.576v1.5a3.116,3.116,0,0,1-2.24.9C48.432,39.248,47.632,38.64,47.632,37.728Zm8.272.512c0,1.216.688,1.9,2.048,1.9a4.713,4.713,0,0,0,1.376-.208V38.9a2.881,2.881,0,0,1-1.1.208c-.832,0-1.152-.336-1.152-1.168V33.152h2.256v-.96H57.072V29.936l-1.168.272v1.984H54.288v.96H55.9Zm5.648-8.016a.84.84,0,1,0-.832-.848A.83.83,0,0,0,61.552,30.224Zm.576,1.968H60.96V40h1.168Zm1.984,3.9a3.816,3.816,0,1,0,7.616,0,3.814,3.814,0,1,0-7.616,0Zm6.448.016a2.663,2.663,0,1,1-5.28,0,2.664,2.664,0,1,1,5.28,0ZM73.7,40h1.168V34.24a2.32,2.32,0,0,1,2.048-1.2,2.023,2.023,0,0,1,2.1,2.24V40h1.168V34.944a2.722,2.722,0,0,0-2.816-2.88,2.813,2.813,0,0,0-2.5,1.408v-1.28H73.7Zm15.088,0,1.856-6.3L92.5,40h1.136l2.144-7.808h-1.12l-1.616,6.24-1.872-6.24h-1.04l-1.856,6.256L86.64,32.192H85.488L87.632,40Zm9.168-9.776a.84.84,0,1,0-.832-.848A.83.83,0,0,0,97.952,30.224Zm.576,1.968H97.36V40h1.168Zm3.488-3.632-1.168.24V40h1.168Zm3.488,0-1.168.24V40H105.5ZM118.848,36.1a3.78,3.78,0,0,0-3.616-4,3.091,3.091,0,0,0-2.512,1.184V28.56l-1.168.24V40H112.7V38.976a3.081,3.081,0,0,0,2.464,1.136A3.8,3.8,0,0,0,118.848,36.1Zm-3.9-2.976a2.8,2.8,0,0,1,2.736,2.992,2.769,2.769,0,0,1-4.96,1.9V34.192A2.688,2.688,0,0,1,114.944,33.12ZM120.48,36.1a3.907,3.907,0,0,0,3.872,4.048,4.5,4.5,0,0,0,2.928-1.04l-.736-.8a3.191,3.191,0,0,1-2.144.8,2.81,2.81,0,0,1-2.768-2.768h6.128V36a3.7,3.7,0,0,0-3.584-3.936A3.812,3.812,0,0,0,120.48,36.1Zm3.68-3.008a2.572,2.572,0,0,1,2.432,2.432h-4.928A2.581,2.581,0,0,1,124.16,33.088Zm10.416-4.528-1.168.24V40h1.168ZM136.56,36.1a3.816,3.816,0,1,0,7.616,0,3.814,3.814,0,1,0-7.616,0Zm6.448.016a2.663,2.663,0,1,1-5.28,0,2.664,2.664,0,1,1,5.28,0Zm2.48,2.8a4.33,4.33,0,0,0,3.184,1.232c1.76,0,3.04-1.088,3.024-2.416.016-1.184-.736-1.824-2.272-2.1l-1.3-.24c-.96-.176-1.36-.448-1.36-1.12,0-.768.72-1.248,1.7-1.248a3.943,3.943,0,0,1,2.416.88l.624-.8a4.858,4.858,0,0,0-2.992-1.04c-1.648,0-2.816.96-2.816,2.288,0,1.168.752,1.792,2.208,2.048l1.3.224c.976.176,1.392.512,1.392,1.168,0,.768-.7,1.408-1.968,1.408a3.5,3.5,0,0,1-2.464-1.024Zm8.688-.672c0,1.216.688,1.9,2.048,1.9a4.713,4.713,0,0,0,1.376-.208V38.9a2.881,2.881,0,0,1-1.1.208c-.832,0-1.152-.336-1.152-1.168V33.152H157.6v-.96h-2.256V29.936l-1.168.272v1.984H152.56v.96h1.616Zm5.664.144a.873.873,0,1,0,.832.88A.861.861,0,0,0,159.84,38.384Z" transform="translate(498 3291)"/><path class="b" d="M1.42,0H11.58V-1.86H3.52V-14H1.42ZM12.48-5.1A5.238,5.238,0,0,0,17.82.18a6,6,0,0,0,3.94-1.34L20.48-2.42a3.96,3.96,0,0,1-2.58.9,3.434,3.434,0,0,1-3.44-2.92H22.5v-.58a5.041,5.041,0,0,0-4.92-5.32A5.115,5.115,0,0,0,12.48-5.1Zm5.06-3.56a3.133,3.133,0,0,1,2.98,2.72H14.48A3.129,3.129,0,0,1,17.54-8.66ZM27.5.18A4.792,4.792,0,0,0,30.66-.88V0h1.96V-6.74c0-2.36-1.54-3.64-4.16-3.64a9.555,9.555,0,0,0-4.18,1.04l.74,1.5a7.377,7.377,0,0,1,3.16-.86c1.62,0,2.48.72,2.48,2.16v1.08a7.04,7.04,0,0,0-2.78-.56c-2.38,0-4.12,1.06-4.12,3.1C23.76-1.1,25.28.18,27.5.18ZM25.68-2.96c0-1.06.96-1.68,2.36-1.68a5.34,5.34,0,0,1,2.62.6v1.78a3.915,3.915,0,0,1-2.7.96C26.62-1.3,25.68-1.96,25.68-2.96ZM37.68,0h1.9l4.4-10.18H41.84L38.66-2.56l-3.18-7.62h-2.2Zm6.68-5.1A5.238,5.238,0,0,0,49.7.18a6,6,0,0,0,3.94-1.34L52.36-2.42a3.96,3.96,0,0,1-2.58.9,3.434,3.434,0,0,1-3.44-2.92h8.04v-.58a5.041,5.041,0,0,0-4.92-5.32A5.115,5.115,0,0,0,44.36-5.1Zm5.06-3.56A3.133,3.133,0,0,1,52.4-5.94H46.36A3.129,3.129,0,0,1,49.42-8.66ZM60.44,4.14h2V-.84a5.038,5.038,0,0,0,3.04,1,5.153,5.153,0,0,0,5.2-5.26,5.136,5.136,0,0,0-5.14-5.24,4.808,4.808,0,0,0-3.12,1.12v-.96H60.44ZM65.26-8.6a3.425,3.425,0,0,1,3.46,3.52,3.408,3.408,0,0,1-3.46,3.5,3.788,3.788,0,0,1-2.82-1.18V-7.4A3.631,3.631,0,0,1,65.26-8.6ZM75.9.18A4.792,4.792,0,0,0,79.06-.88V0h1.96V-6.74c0-2.36-1.54-3.64-4.16-3.64a9.555,9.555,0,0,0-4.18,1.04l.74,1.5a7.377,7.377,0,0,1,3.16-.86c1.62,0,2.48.72,2.48,2.16v1.08a7.04,7.04,0,0,0-2.78-.56c-2.38,0-4.12,1.06-4.12,3.1C72.16-1.1,73.68.18,75.9.18ZM74.08-2.96c0-1.06.96-1.68,2.36-1.68a5.34,5.34,0,0,1,2.62.6v1.78a3.915,3.915,0,0,1-2.7.96C75.02-1.3,74.08-1.96,74.08-2.96ZM88,.08A4.746,4.746,0,0,0,91.04-1V.1c0,1.6-.94,2.42-2.72,2.42a6.893,6.893,0,0,1-3.26-.88L84.28,3.2a8.464,8.464,0,0,0,4.1,1c2.98,0,4.66-1.44,4.66-4.12V-10.18H91.06v.84a4.913,4.913,0,0,0-3.02-1.02,5.135,5.135,0,0,0-5.16,5.22A5.115,5.115,0,0,0,88,.08ZM84.84-5.14a3.391,3.391,0,0,1,3.4-3.48,3.671,3.671,0,0,1,2.8,1.18v4.6a3.671,3.671,0,0,1-2.8,1.18A3.391,3.391,0,0,1,84.84-5.14Zm10.08.04A5.238,5.238,0,0,0,100.26.18a6,6,0,0,0,3.94-1.34l-1.28-1.26a3.96,3.96,0,0,1-2.58.9A3.434,3.434,0,0,1,96.9-4.44h8.04v-.58a5.041,5.041,0,0,0-4.92-5.32A5.115,5.115,0,0,0,94.92-5.1Zm5.06-3.56a3.133,3.133,0,0,1,2.98,2.72H96.92A3.129,3.129,0,0,1,99.98-8.66Z" transform="translate(498 3269)"/></g><g class="m" transform="translate(64 -6461)"><rect class="g" width="16" height="640" transform="translate(704 8621)"/><rect class="h" width="328" height="640" transform="translate(376 8621)"/><rect class="g" width="16" height="640" transform="translate(360 8621)"/></g></g></g></svg>