<svg xmlns="http://www.w3.org/2000/svg" xmlns:xlink="http://www.w3.org/1999/xlink" width="813" height="640" viewBox="0 0 813 640">
  <defs>
    <filter id="Rectangle" x="0" y="193" width="418" height="285" filterUnits="userSpaceOnUse">
      <feOffset dy="15" input="SourceAlpha"/>
      <feGaussianBlur stdDeviation="15" result="blur"/>
      <feFlood flood-opacity="0.302"/>
      <feComposite operator="in" in2="blur"/>
      <feComposite in="SourceGraphic"/>
    </filter>
  </defs>
  <g id="Group_1" data-name="Group 1" transform="translate(-331 -10042)">
    <g id="Example" transform="translate(360 9187)">
      <rect id="Rectangle-2" data-name="Rectangle" width="360" height="640" transform="translate(424 855)" fill="#151515" opacity="0.5"/>
      <g id="Video_player" data-name="Video player" transform="translate(-48 164)">
        <rect id="Rectangle-3" data-name="Rectangle" width="328" height="185" transform="translate(488 919)" fill="#151515"/>
        <g id="Play_button" data-name="Play button" transform="translate(620 980)">
          <circle id="Ellipse" cx="32" cy="32" r="32" fill="#fff" opacity="0.25"/>
          <path id="Path" d="M44,32,24,42V22Z" fill="#fff"/>
        </g>
      </g>
      <g id="Close" transform="translate(-230 799)">
        <rect id="Rectangle-4" data-name="Rectangle" width="14" height="14" transform="translate(984 262)" fill="none"/>
        <path id="Icon" d="M6.9,85l2.843-2.843a.894.894,0,0,0,0-1.264l-.632-.632a.894.894,0,0,0-1.264,0L5,83.1,2.157,80.262a.894.894,0,0,0-1.264,0l-.632.632a.894.894,0,0,0,0,1.264L3.1,85,.262,87.843a.894.894,0,0,0,0,1.264l.632.632a.894.894,0,0,0,1.264,0L5,86.9l2.843,2.843a.894.894,0,0,0,1.264,0l.632-.632a.894.894,0,0,0,0-1.264Z" transform="translate(986 184)" fill="#fff"/>
      </g>
      <g id="Grid" transform="translate(64 -7766)" opacity="0.04">
        <rect id="Rectangle-5" data-name="Rectangle" width="16" height="640" transform="translate(704 8621)" fill="blue"/>
        <rect id="Rectangle-6" data-name="Rectangle" width="328" height="640" transform="translate(376 8621)" fill="red"/>
        <rect id="Rectangle-7" data-name="Rectangle" width="16" height="640" transform="translate(360 8621)" fill="blue"/>
      </g>
    </g>
    <g id="Example_outlined_" data-name="Example (outlined)" transform="translate(-64 7882)">
      <rect id="Rectangle-8" data-name="Rectangle" width="360" height="640" transform="translate(424 2160)" fill="#151515" opacity="0.25"/>
      <g id="Window" transform="translate(-34 -842)">
        <g transform="matrix(1, 0, 0, 1, 429, 3002)" filter="url(#Rectangle)">
          <rect id="Rectangle-9" data-name="Rectangle" width="328" height="195" rx="3" transform="translate(45 223)" fill="#fff"/>
        </g>
        <g id="Close-2" data-name="Close" transform="translate(-220 2987)">
          <rect id="Rectangle-10" data-name="Rectangle" width="14" height="14" transform="translate(984 262)" fill="none"/>
          <path id="Icon-2" data-name="Icon" d="M6.9,85l2.843-2.843a.894.894,0,0,0,0-1.264l-.632-.632a.894.894,0,0,0-1.264,0L5,83.1,2.157,80.262a.894.894,0,0,0-1.264,0l-.632.632a.894.894,0,0,0,0,1.264L3.1,85,.262,87.843a.894.894,0,0,0,0,1.264l.632.632a.894.894,0,0,0,1.264,0L5,86.9l2.843,2.843a.894.894,0,0,0,1.264,0l.632-.632a.894.894,0,0,0,0-1.264Z" transform="translate(986 184)" fill="#6a6e73"/>
        </g>
        <g id="Link" transform="translate(229 3138)">
          <path id="Path-2" data-name="Path" d="M6.624-.944A4.485,4.485,0,0,1,2.144-5.6a4.478,4.478,0,0,1,4.448-4.656A4.489,4.489,0,0,1,10-8.688l.816-.848a5.6,5.6,0,0,0-4.224-1.84A5.676,5.676,0,0,0,.9-5.6,5.676,5.676,0,0,0,6.592.176a5.632,5.632,0,0,0,4.192-1.84l-.8-.816A4.388,4.388,0,0,1,6.624-.944ZM15.232.144a3.352,3.352,0,0,0,2.48-1.056V0h1.152V-5.184c0-1.776-1.088-2.752-3.024-2.752a6.689,6.689,0,0,0-2.944.752l.432.9A5.156,5.156,0,0,1,15.7-6.96a1.758,1.758,0,0,1,2.016,1.936v1.072a4.521,4.521,0,0,0-2.384-.608c-1.76,0-2.928.928-2.928,2.32C12.4-.832,13.568.144,15.232.144ZM13.52-2.272c0-.864.784-1.44,1.984-1.44a4.122,4.122,0,0,1,2.208.56v1.5a3.091,3.091,0,0,1-2.24.9C14.3-.752,13.52-1.36,13.52-2.272ZM21.232,0H22.4V-5.76a2.3,2.3,0,0,1,2.048-1.2,2.024,2.024,0,0,1,2.1,2.24V0h1.168V-5.056a2.717,2.717,0,0,0-2.832-2.88A2.813,2.813,0,0,0,22.4-6.544V-7.808H21.232Zm12.4-.912A2.832,2.832,0,0,1,30.88-3.9,2.835,2.835,0,0,1,33.616-6.88a3.069,3.069,0,0,1,2.208.976l.752-.816a4.259,4.259,0,0,0-3.008-1.216A3.9,3.9,0,0,0,29.712-3.9,3.913,3.913,0,0,0,33.568.144a4.061,4.061,0,0,0,2.96-1.264l-.72-.72A2.876,2.876,0,0,1,33.632-.912ZM44.416-.9,43.68-1.68a3.191,3.191,0,0,1-2.144.8,2.845,2.845,0,0,1-2.784-2.768H44.88V-4A3.689,3.689,0,0,0,41.3-7.936,3.8,3.8,0,0,0,37.616-3.9,3.9,3.9,0,0,0,41.488.144,4.558,4.558,0,0,0,44.416-.9ZM41.28-6.928A2.579,2.579,0,0,1,43.728-4.48H38.784A2.608,2.608,0,0,1,41.28-6.928Zm6.768-4.752-1.168.24V0h1.168Z" transform="translate(376 246)" fill="#06c"/>
        </g>
        <g id="Primary" transform="translate(138 3138)">
          <rect id="Rectangle-11" data-name="Rectangle" width="75" height="36" rx="3" transform="translate(360 222)" fill="#06c"/>
          <path id="Path-3" data-name="Path" d="M1.424,0H8.976V-1.088H2.656V-11.2H1.424ZM16.992-.9l-.736-.784a3.191,3.191,0,0,1-2.144.8,2.845,2.845,0,0,1-2.784-2.768h6.128V-4a3.689,3.689,0,0,0-3.584-3.936A3.8,3.8,0,0,0,10.192-3.9,3.9,3.9,0,0,0,14.064.144,4.558,4.558,0,0,0,16.992-.9ZM13.856-6.928A2.579,2.579,0,0,1,16.3-4.48H11.36A2.608,2.608,0,0,1,13.856-6.928ZM21.744.144a3.352,3.352,0,0,0,2.48-1.056V0h1.152V-5.184c0-1.776-1.088-2.752-3.024-2.752a6.689,6.689,0,0,0-2.944.752l.432.9a5.156,5.156,0,0,1,2.368-.672,1.758,1.758,0,0,1,2.016,1.936v1.072A4.521,4.521,0,0,0,21.84-4.56c-1.76,0-2.928.928-2.928,2.32C18.912-.832,20.08.144,21.744.144ZM20.032-2.272c0-.864.784-1.44,1.984-1.44a4.122,4.122,0,0,1,2.208.56v1.5a3.091,3.091,0,0,1-2.24.9C20.816-.752,20.032-1.36,20.032-2.272ZM29.648,0h1.12l3.216-7.808H32.736l-2.5,6.352L27.712-7.808H26.448ZM41.632-.9,40.9-1.68a3.191,3.191,0,0,1-2.144.8,2.845,2.845,0,0,1-2.784-2.768H42.1V-4a3.689,3.689,0,0,0-3.584-3.936A3.8,3.8,0,0,0,34.832-3.9,3.9,3.9,0,0,0,38.7.144,4.558,4.558,0,0,0,41.632-.9ZM38.5-6.928A2.579,2.579,0,0,1,40.944-4.48H36A2.608,2.608,0,0,1,38.5-6.928Z" transform="translate(376 246)" fill="#fff"/>
        </g>
        <path id="Path-4" data-name="Path" d="M1.392,16H2.624V4.8H1.392ZM4.48,8.192v.96H6.224V16H7.392V9.152H9.616v-.96H7.392V6.5c0-.928.384-1.36,1.28-1.36a3.22,3.22,0,0,1,.944.144V4.224A3.3,3.3,0,0,0,8.56,4.08a2.143,2.143,0,0,0-2.336,2.4V8.192Zm11.936,9.056c-.288.7-.656.992-1.248.992a2.719,2.719,0,0,1-.64-.064v1.04a2.679,2.679,0,0,0,.752.112c1.152,0,1.744-.464,2.24-1.728l3.872-9.408H20.1l-2.512,6.416L15.216,8.192h-1.3l3.008,7.792Zm5.84-5.152a3.809,3.809,0,1,0,7.6,0,3.807,3.807,0,1,0-7.6,0Zm3.792,3.024a2.753,2.753,0,0,1-2.64-3.008,2.671,2.671,0,1,1,5.3,0A2.774,2.774,0,0,1,26.048,15.12ZM33.04,8.192H31.856v5.04a2.73,2.73,0,0,0,2.832,2.9,2.8,2.8,0,0,0,2.48-1.392V16h1.168V8.192H37.168v5.776a2.318,2.318,0,0,1-2.048,1.184A2.017,2.017,0,0,1,33.04,12.9ZM45.632,4.32l-1.168.24V16h1.168ZM54.48,15.1l-.736-.784a3.191,3.191,0,0,1-2.144.8,2.845,2.845,0,0,1-2.784-2.768h6.128V12A3.689,3.689,0,0,0,51.36,8.064,3.8,3.8,0,0,0,47.68,12.1a3.9,3.9,0,0,0,3.872,4.048A4.558,4.558,0,0,0,54.48,15.1ZM51.344,9.072a2.579,2.579,0,0,1,2.448,2.448H48.848A2.608,2.608,0,0,1,51.344,9.072Zm7.888,7.072a3.352,3.352,0,0,0,2.48-1.056V16h1.152V10.816c0-1.776-1.088-2.752-3.024-2.752a6.689,6.689,0,0,0-2.944.752l.432.9A5.156,5.156,0,0,1,59.7,9.04a1.758,1.758,0,0,1,2.016,1.936v1.072a4.521,4.521,0,0,0-2.384-.608c-1.76,0-2.928.928-2.928,2.32C56.4,15.168,57.568,16.144,59.232,16.144ZM57.52,13.728c0-.864.784-1.44,1.984-1.44a4.122,4.122,0,0,1,2.208.56v1.5a3.091,3.091,0,0,1-2.24.9C58.3,15.248,57.52,14.64,57.52,13.728ZM67.136,16h1.12l3.216-7.808H70.224l-2.5,6.352L65.2,8.192H63.936Zm11.984-.9-.736-.784a3.191,3.191,0,0,1-2.144.8,2.845,2.845,0,0,1-2.784-2.768h6.128V12A3.689,3.689,0,0,0,76,8.064,3.8,3.8,0,0,0,72.32,12.1a3.9,3.9,0,0,0,3.872,4.048A4.558,4.558,0,0,0,79.12,15.1ZM75.984,9.072a2.579,2.579,0,0,1,2.448,2.448H73.488A2.608,2.608,0,0,1,75.984,9.072ZM86.24,14.24c0,1.248.7,1.9,2.048,1.9a4.386,4.386,0,0,0,1.36-.208V14.9a2.8,2.8,0,0,1-1.1.208c-.816,0-1.136-.336-1.136-1.168V9.152h2.24v-.96h-2.24V5.776l-1.168.272V8.192H84.624v.96H86.24ZM91.36,16h1.168V10.24a2.3,2.3,0,0,1,2.048-1.2,2.024,2.024,0,0,1,2.1,2.24V16H97.84V10.944a2.717,2.717,0,0,0-2.832-2.88,2.813,2.813,0,0,0-2.48,1.392V4.32l-1.168.24Zm15.28-.9-.736-.784a3.191,3.191,0,0,1-2.144.8,2.845,2.845,0,0,1-2.784-2.768H107.1V12a3.689,3.689,0,0,0-3.584-3.936A3.8,3.8,0,0,0,99.84,12.1a3.9,3.9,0,0,0,3.872,4.048A4.558,4.558,0,0,0,106.64,15.1ZM103.5,9.072a2.579,2.579,0,0,1,2.448,2.448h-4.944A2.608,2.608,0,0,1,103.5,9.072Zm9.328,10.272H114v-4.32a3.166,3.166,0,0,0,2.448,1.088,3.8,3.8,0,0,0,3.664-4.016,3.768,3.768,0,0,0-3.6-4,3.08,3.08,0,0,0-2.528,1.216V8.192h-1.152ZM116.224,9.12a2.8,2.8,0,0,1,2.736,2.992,2.8,2.8,0,0,1-2.736,2.992A2.744,2.744,0,0,1,114,14.016V10.192A2.666,2.666,0,0,1,116.224,9.12Zm8.432,7.024a3.352,3.352,0,0,0,2.48-1.056V16h1.152V10.816c0-1.776-1.088-2.752-3.024-2.752a6.689,6.689,0,0,0-2.944.752l.432.9a5.156,5.156,0,0,1,2.368-.672,1.758,1.758,0,0,1,2.016,1.936v1.072a4.521,4.521,0,0,0-2.384-.608c-1.76,0-2.928.928-2.928,2.32C121.824,15.168,122.992,16.144,124.656,16.144Zm-1.712-2.416c0-.864.784-1.44,1.984-1.44a4.122,4.122,0,0,1,2.208.56v1.5a3.091,3.091,0,0,1-2.24.9C123.728,15.248,122.944,14.64,122.944,13.728ZM133.9,16.1a3.077,3.077,0,0,0,2.5-1.152v1.472c0,1.312-.752,2-2.176,2a5.25,5.25,0,0,1-2.5-.72l-.5.9a6.262,6.262,0,0,0,3.04.816c2.128,0,3.3-1.072,3.3-3.008V8.192h-1.152V9.2a3.151,3.151,0,0,0-2.448-1.1,3.8,3.8,0,0,0-3.664,4A3.768,3.768,0,0,0,133.9,16.1Zm-2.448-4a2.774,2.774,0,0,1,4.944-1.92v3.856a2.687,2.687,0,0,1-2.208,1.056A2.8,2.8,0,0,1,131.456,12.1Zm14.96,3.008-.736-.784a3.191,3.191,0,0,1-2.144.8,2.845,2.845,0,0,1-2.784-2.768h6.128V12A3.689,3.689,0,0,0,143.3,8.064a3.8,3.8,0,0,0-3.68,4.032,3.9,3.9,0,0,0,3.872,4.048A4.558,4.558,0,0,0,146.416,15.1ZM143.28,9.072a2.579,2.579,0,0,1,2.448,2.448h-4.944A2.608,2.608,0,0,1,143.28,9.072Zm5.392,5.744-.96,3.7h.912l1.3-3.7Zm9.472,1.328a3.352,3.352,0,0,0,2.48-1.056V16h1.152V10.816c0-1.776-1.088-2.752-3.024-2.752a6.689,6.689,0,0,0-2.944.752l.432.9a5.156,5.156,0,0,1,2.368-.672,1.758,1.758,0,0,1,2.016,1.936v1.072a4.521,4.521,0,0,0-2.384-.608c-1.76,0-2.928.928-2.928,2.32C155.312,15.168,156.48,16.144,158.144,16.144Zm-1.712-2.416c0-.864.784-1.44,1.984-1.44a4.122,4.122,0,0,1,2.208.56v1.5a3.091,3.091,0,0,1-2.24.9C157.216,15.248,156.432,14.64,156.432,13.728ZM164.144,16h1.168V10.24a2.3,2.3,0,0,1,2.048-1.2,2.024,2.024,0,0,1,2.1,2.24V16h1.168V10.944a2.717,2.717,0,0,0-2.832-2.88,2.813,2.813,0,0,0-2.48,1.392V8.192h-1.168Zm10.208,1.248c-.288.7-.656.992-1.248.992a2.719,2.719,0,0,1-.64-.064v1.04a2.678,2.678,0,0,0,.752.112c1.152,0,1.744-.464,2.24-1.728l3.872-9.408h-1.3l-2.512,6.416-2.368-6.416h-1.3l3.008,7.792Zm11.3-9.056h-1.184v5.04a2.73,2.73,0,0,0,2.832,2.9,2.8,2.8,0,0,0,2.48-1.392V16h1.168V8.192h-1.168v5.776a2.318,2.318,0,0,1-2.048,1.184,2.017,2.017,0,0,1-2.08-2.256Zm7.7,7.808h1.168V10.24a2.3,2.3,0,0,1,2.048-1.2,2.024,2.024,0,0,1,2.1,2.24V16h1.168V10.944a2.717,2.717,0,0,0-2.832-2.88,2.813,2.813,0,0,0-2.48,1.392V8.192h-1.168Zm8.08-1.008a4.451,4.451,0,0,0,3.168,1.152c1.728,0,3.04-1.056,3.04-2.416,0-1.152-.7-1.808-2.272-2.1l-1.312-.24c-1.008-.176-1.344-.48-1.344-1.12,0-.768.672-1.248,1.7-1.248a4.142,4.142,0,0,1,2.448.832l.576-.816a5.048,5.048,0,0,0-2.976-.976c-1.648,0-2.816.944-2.816,2.288,0,1.136.688,1.776,2.208,2.048l1.28.224c.992.192,1.408.528,1.408,1.168,0,.816-.832,1.408-1.968,1.408a4.072,4.072,0,0,1-2.512-.976Zm10.48,1.152a3.352,3.352,0,0,0,2.48-1.056V16h1.152V10.816c0-1.776-1.088-2.752-3.024-2.752a6.689,6.689,0,0,0-2.944.752l.432.9a5.156,5.156,0,0,1,2.368-.672,1.758,1.758,0,0,1,2.016,1.936v1.072A4.521,4.521,0,0,0,212,11.44c-1.76,0-2.928.928-2.928,2.32C209.072,15.168,210.24,16.144,211.9,16.144Zm-1.712-2.416c0-.864.784-1.44,1.984-1.44a4.122,4.122,0,0,1,2.208.56v1.5a3.091,3.091,0,0,1-2.24.9C210.976,15.248,210.192,14.64,210.192,13.728ZM219.808,16h1.12l3.216-7.808H222.9l-2.5,6.352-2.528-6.352h-1.264Zm11.984-.9-.736-.784a3.191,3.191,0,0,1-2.144.8,2.845,2.845,0,0,1-2.784-2.768h6.128V12a3.689,3.689,0,0,0-3.584-3.936,3.8,3.8,0,0,0-3.68,4.032,3.9,3.9,0,0,0,3.872,4.048A4.558,4.558,0,0,0,231.792,15.1Zm-3.136-6.032A2.579,2.579,0,0,1,231.1,11.52H226.16A2.608,2.608,0,0,1,228.656,9.072ZM240.016,16h1.168V4.32l-1.168.24V9.184A3.18,3.18,0,0,0,237.584,8.1a3.8,3.8,0,0,0-3.664,4.016,3.768,3.768,0,0,0,3.6,4,3.077,3.077,0,0,0,2.5-1.152Zm-4.944-3.9a2.774,2.774,0,0,1,4.944-1.92v3.872a2.674,2.674,0,0,1-2.208,1.04A2.8,2.8,0,0,1,235.072,12.1ZM1.792,30.272a.83.83,0,0,0,.832-.848.84.84,0,0,0-1.68,0A.834.834,0,0,0,1.792,30.272Zm.576,1.92H1.2V40H2.368ZM4.768,40H5.936V34.24a2.3,2.3,0,0,1,2.048-1.2,2.024,2.024,0,0,1,2.1,2.24V40h1.168V34.944a2.717,2.717,0,0,0-2.832-2.88,2.813,2.813,0,0,0-2.48,1.392V32.192H4.768Zm7.84-7.808v.96h1.744V40H15.52V33.152h2.224v-.96H15.52V30.5c0-.928.384-1.36,1.28-1.36a3.22,3.22,0,0,1,.944.144V28.224a3.3,3.3,0,0,0-1.056-.144,2.143,2.143,0,0,0-2.336,2.4v1.712Zm5.968,3.9a3.809,3.809,0,1,0,7.6,0,3.807,3.807,0,1,0-7.6,0Zm3.792,3.024a2.753,2.753,0,0,1-2.64-3.008,2.777,2.777,0,0,1,2.64-3.024,2.789,2.789,0,0,1,2.656,3.024A2.774,2.774,0,0,1,22.368,39.12Zm5.856.88h1.168V34.656a2.226,2.226,0,0,1,2.1-1.584,2.919,2.919,0,0,1,.816.144V32.16a2.217,2.217,0,0,0-.736-.112,2.332,2.332,0,0,0-2.176,1.728V32.192H28.224Zm5.632,0h1.168V34.192a2.14,2.14,0,0,1,1.9-1.152,1.94,1.94,0,0,1,1.936,2.208V40h1.168V34.96a3.238,3.238,0,0,0-.064-.688A2.172,2.172,0,0,1,41.92,33.04c1.184,0,1.92.848,1.92,2.208V40h1.168V34.96a2.657,2.657,0,0,0-2.656-2.9,2.885,2.885,0,0,0-2.608,1.52,2.566,2.566,0,0,0-2.4-1.52,2.674,2.674,0,0,0-2.32,1.344V32.192H33.856Zm15.936.144a3.352,3.352,0,0,0,2.48-1.056V40h1.152V34.816c0-1.776-1.088-2.752-3.024-2.752a6.689,6.689,0,0,0-2.944.752l.432.9a5.156,5.156,0,0,1,2.368-.672,1.758,1.758,0,0,1,2.016,1.936v1.072a4.521,4.521,0,0,0-2.384-.608c-1.76,0-2.928.928-2.928,2.32C46.96,39.168,48.128,40.144,49.792,40.144ZM48.08,37.728c0-.864.784-1.44,1.984-1.44a4.122,4.122,0,0,1,2.208.56v1.5a3.091,3.091,0,0,1-2.24.9C48.864,39.248,48.08,38.64,48.08,37.728Zm8.4.512c0,1.248.7,1.9,2.048,1.9a4.386,4.386,0,0,0,1.36-.208V38.9a2.8,2.8,0,0,1-1.1.208c-.816,0-1.136-.336-1.136-1.168V33.152h2.24v-.96h-2.24V29.776l-1.168.272v2.144H54.864v.96H56.48Zm5.712-7.968a.83.83,0,0,0,.832-.848.84.84,0,0,0-1.68,0A.834.834,0,0,0,62.192,30.272Zm.576,1.92H61.6V40h1.168Zm2.048,3.9a3.809,3.809,0,1,0,7.6,0,3.807,3.807,0,1,0-7.6,0Zm3.792,3.024a2.753,2.753,0,0,1-2.64-3.008,2.671,2.671,0,1,1,5.3,0A2.774,2.774,0,0,1,68.608,39.12Zm5.856.88h1.168V34.24a2.3,2.3,0,0,1,2.048-1.2,2.024,2.024,0,0,1,2.1,2.24V40h1.168V34.944a2.717,2.717,0,0,0-2.832-2.88,2.813,2.813,0,0,0-2.48,1.392V32.192H74.464Zm15.1,0,1.856-6.3L93.28,40h1.136l2.128-7.808h-1.1l-1.616,6.24-1.872-6.24h-1.04l-1.872,6.24-1.632-6.24H86.272L88.416,40Zm9.216-9.728a.83.83,0,0,0,.832-.848.84.84,0,0,0-1.68,0A.834.834,0,0,0,98.784,30.272Zm.576,1.92H98.192V40H99.36Zm3.568-3.872-1.168.24V40h1.168Zm3.568,0-1.168.24V40H106.5ZM119.9,36.1a3.768,3.768,0,0,0-3.6-4,3.146,3.146,0,0,0-2.512,1.168V28.32l-1.168.24V40h1.152V38.976a3.161,3.161,0,0,0,2.464,1.136A3.8,3.8,0,0,0,119.9,36.1Zm-3.888-2.976a2.8,2.8,0,0,1,2.736,2.992,2.8,2.8,0,0,1-2.736,2.992,2.744,2.744,0,0,1-2.224-1.088V34.192A2.666,2.666,0,0,1,116.016,33.12Zm12.4,5.984-.736-.784a3.191,3.191,0,0,1-2.144.8,2.845,2.845,0,0,1-2.784-2.768h6.128V36a3.689,3.689,0,0,0-3.584-3.936,3.8,3.8,0,0,0-3.68,4.032,3.9,3.9,0,0,0,3.872,4.048A4.558,4.558,0,0,0,128.416,39.1Zm-3.136-6.032a2.579,2.579,0,0,1,2.448,2.448h-4.944A2.608,2.608,0,0,1,125.28,33.072Zm10.5-4.752-1.168.24V40h1.168Zm2.048,7.776a3.809,3.809,0,1,0,7.6,0,3.807,3.807,0,1,0-7.6,0Zm3.792,3.024a2.753,2.753,0,0,1-2.64-3.008,2.671,2.671,0,1,1,5.3,0A2.774,2.774,0,0,1,141.616,39.12Zm5.1-.128a4.451,4.451,0,0,0,3.168,1.152c1.728,0,3.04-1.056,3.04-2.416,0-1.152-.7-1.808-2.272-2.1l-1.312-.24c-1.008-.176-1.344-.48-1.344-1.12,0-.768.672-1.248,1.7-1.248a4.142,4.142,0,0,1,2.448.832l.576-.816a5.048,5.048,0,0,0-2.976-.976c-1.648,0-2.816.944-2.816,2.288,0,1.136.688,1.776,2.208,2.048l1.28.224c.992.192,1.408.528,1.408,1.168,0,.816-.832,1.408-1.968,1.408a4.072,4.072,0,0,1-2.512-.976Zm8.752-.752c0,1.248.7,1.9,2.048,1.9a4.386,4.386,0,0,0,1.36-.208V38.9a2.8,2.8,0,0,1-1.1.208c-.816,0-1.136-.336-1.136-1.168V33.152h2.24v-.96h-2.24V29.776l-1.168.272v2.144h-1.616v.96h1.616Zm5.68.144a.873.873,0,1,0,.832.864A.857.857,0,0,0,161.152,38.384Z" transform="translate(498 3291)" fill="#151515"/>
        <path id="Path-5" data-name="Path" d="M1.42,0H11.58V-1.86H3.52V-14H1.42ZM21.76-1.16,20.48-2.42a3.96,3.96,0,0,1-2.58.9,3.434,3.434,0,0,1-3.44-2.92H22.5v-.58a5.041,5.041,0,0,0-4.92-5.32,5.115,5.115,0,0,0-5.1,5.24A5.238,5.238,0,0,0,17.82.18,6.072,6.072,0,0,0,21.76-1.16Zm-4.22-7.5a3.149,3.149,0,0,1,2.98,2.72H14.48A3.126,3.126,0,0,1,17.54-8.66ZM27.5.18A4.829,4.829,0,0,0,30.66-.88V0h1.96V-6.74c0-2.34-1.52-3.64-4.16-3.64a9.528,9.528,0,0,0-4.18,1.04l.74,1.5a7.236,7.236,0,0,1,3.16-.86c1.62,0,2.48.72,2.48,2.16v1.08a7.187,7.187,0,0,0-2.78-.56c-2.56,0-4.12,1.18-4.12,3.1C23.76-1.08,25.28.18,27.5.18ZM25.68-2.96c0-1.02.9-1.68,2.36-1.68a5.287,5.287,0,0,1,2.62.62v1.76a3.915,3.915,0,0,1-2.7.96C26.6-1.3,25.68-1.98,25.68-2.96ZM37.66,0h1.9l4.4-10.18H41.82L38.64-2.56l-3.18-7.62h-2.2ZM53.62-1.16,52.34-2.42a3.96,3.96,0,0,1-2.58.9,3.434,3.434,0,0,1-3.44-2.92h8.04v-.58a5.041,5.041,0,0,0-4.92-5.32,5.115,5.115,0,0,0-5.1,5.24A5.238,5.238,0,0,0,49.68.18,6.072,6.072,0,0,0,53.62-1.16ZM49.4-8.66a3.149,3.149,0,0,1,2.98,2.72H46.34A3.126,3.126,0,0,1,49.4-8.66ZM60.44,4.14h2V-.84a5.142,5.142,0,0,0,3.06,1A5.149,5.149,0,0,0,70.68-5.1a5.136,5.136,0,0,0-5.14-5.24A4.645,4.645,0,0,0,62.42-9.2v-.98H60.44ZM65.28-8.6a3.421,3.421,0,0,1,3.44,3.52,3.392,3.392,0,0,1-3.44,3.5,3.774,3.774,0,0,1-2.84-1.2v-4.6A3.651,3.651,0,0,1,65.28-8.6ZM75.9.18A4.829,4.829,0,0,0,79.06-.88V0h1.96V-6.74c0-2.34-1.52-3.64-4.16-3.64a9.528,9.528,0,0,0-4.18,1.04l.74,1.5a7.236,7.236,0,0,1,3.16-.86c1.62,0,2.48.72,2.48,2.16v1.08a7.187,7.187,0,0,0-2.78-.56c-2.56,0-4.12,1.18-4.12,3.1C72.16-1.08,73.68.18,75.9.18ZM74.08-2.96c0-1.02.9-1.68,2.36-1.68a5.287,5.287,0,0,1,2.62.62v1.76a3.915,3.915,0,0,1-2.7.96C75-1.3,74.08-1.98,74.08-2.96ZM87.98.08A4.787,4.787,0,0,0,91.02-1V.14c0,1.6-.94,2.44-2.72,2.44a6.893,6.893,0,0,1-3.26-.88l-.78,1.56a8.634,8.634,0,0,0,4.1,1c3,0,4.66-1.48,4.66-4.12V-10.18H91.04v.84a5,5,0,0,0-3.02-1.02,5.135,5.135,0,0,0-5.16,5.22A5.127,5.127,0,0,0,87.98.08ZM84.82-5.14a3.391,3.391,0,0,1,3.4-3.48,3.671,3.671,0,0,1,2.8,1.18v4.6a3.6,3.6,0,0,1-2.8,1.18A3.391,3.391,0,0,1,84.82-5.14ZM104.2-1.16l-1.28-1.26a3.96,3.96,0,0,1-2.58.9A3.434,3.434,0,0,1,96.9-4.44h8.04v-.58a5.041,5.041,0,0,0-4.92-5.32,5.115,5.115,0,0,0-5.1,5.24A5.238,5.238,0,0,0,100.26.18,6.072,6.072,0,0,0,104.2-1.16Zm-4.22-7.5a3.149,3.149,0,0,1,2.98,2.72H96.92A3.126,3.126,0,0,1,99.98-8.66Z" transform="translate(498 3269)" fill="#151515"/>
      </g>
      <g id="Grid-2" data-name="Grid" transform="translate(64 -6461)" opacity="0.03">
        <rect id="Rectangle-12" data-name="Rectangle" width="16" height="640" transform="translate(704 8621)" fill="blue"/>
        <rect id="Rectangle-13" data-name="Rectangle" width="328" height="640" transform="translate(376 8621)" fill="red"/>
        <rect id="Rectangle-14" data-name="Rectangle" width="16" height="640" transform="translate(360 8621)" fill="blue"/>
      </g>
    </g>
  </g>
</svg>
