<?xml version="1.0" encoding="utf-8"?>
<!-- Generator: Adobe Illustrator 24.3.0, SVG Export Plug-In . SVG Version: 6.00 Build 0)  -->
<svg version="1.1" id="Layer_1" xmlns="http://www.w3.org/2000/svg" xmlns:xlink="http://www.w3.org/1999/xlink" x="0px" y="0px"
	 viewBox="0 0 882 400" style="enable-background:new 0 0 882 400;" xml:space="preserve">
<style type="text/css">
	.st0{fill:#D2D2D2;}
	.st1{fill:#F5F5F5;}
	.st2{enable-background:new    ;}
	.st3{fill:#8A8D90;}
	.st4{fill:#FFFFFF;}
	.st5{fill:#0066CC;}
</style>
<g transform="translate(-414 -641)">
	<path class="st0" d="M424,1006h872v1H424V1006z"/>
	<path class="st1" d="M985,953h132v53H985V953z"/>
	<g class="st2">
		<path class="st3" d="M1018.2,982.4c1.3,1.3,2.4,1.7,3.9,1.7c1.7,0,3-1,3-2.3c0-1.1-0.7-1.6-2.5-2l-1.8-0.3c-2-0.4-3-1.2-3-2.7
			c0-1.9,1.6-3.2,3.8-3.2c1.7,0,3,0.4,4.4,1.4l-0.6,1c-1.2-0.9-2.5-1.3-3.8-1.3c-1.6,0-2.7,0.9-2.7,2c0,1,0.6,1.5,2.1,1.7l1.8,0.3
			c2.4,0.4,3.4,1.3,3.4,3c0,1.9-1.8,3.4-4.3,3.4c-1.8,0-3.2-0.6-4.6-1.9L1018.2,982.4z"/>
		<path class="st3" d="M1031.8,985.1c-2.2,0-3.9-1.8-3.9-4s1.6-4,3.7-4c2,0,3.6,1.7,3.6,3.9v0.4h-6.1c0.1,1.6,1.3,2.8,2.8,2.8
			c0.8,0,1.6-0.3,2.1-0.8l0.7,0.8C1033.9,984.8,1032.9,985.1,1031.8,985.1z M1029.1,980.5h4.9c-0.2-1.4-1.2-2.4-2.4-2.4
			C1030.3,978.1,1029.4,979.1,1029.1,980.5z"/>
		<path class="st3" d="M1043,983.2l0.7,0.7c-0.8,0.8-1.8,1.3-3,1.3c-2.2,0-3.9-1.8-3.9-4c0-2.3,1.7-4,3.9-4c1.2,0,2.2,0.4,3,1.2
			l-0.8,0.8c-0.6-0.6-1.4-1-2.2-1c-1.5,0-2.7,1.3-2.7,3c0,1.7,1.2,3,2.8,3C1041.7,984.1,1042.5,983.8,1043,983.2z"/>
		<path class="st3" d="M1046.5,978.1h-1.6v-1h1.6V975l1.2-0.3v2.4h2.2v1h-2.2v4.8c0,0.8,0.3,1.2,1.1,1.2c0.4,0,0.7,0,1.1-0.2v1
			c-0.4,0.1-0.9,0.2-1.4,0.2c-1.3,0-2-0.7-2-1.9V978.1z"/>
		<path class="st3" d="M1051.4,974.4c0-0.4,0.4-0.8,0.8-0.8c0.4,0,0.8,0.4,0.8,0.8c0,0.5-0.4,0.8-0.8,0.8
			C1051.7,975.3,1051.4,974.9,1051.4,974.4z M1052.8,985h-1.2v-7.8h1.2V985z"/>
		<path class="st3" d="M1058.6,977.1c2.2,0,3.8,1.7,3.8,4c0,2.3-1.6,4.1-3.8,4.1c-2.1,0-3.8-1.8-3.8-4.1
			C1054.8,978.8,1056.5,977.1,1058.6,977.1z M1061.3,981.1c0-1.7-1.1-3-2.7-3s-2.6,1.3-2.6,3c0,1.7,1.1,3,2.6,3
			S1061.3,982.8,1061.3,981.1z"/>
		<path class="st3" d="M1064.5,977.2h1.2v1.3c0.6-0.9,1.4-1.4,2.5-1.4c1.7,0,2.8,1.2,2.8,2.9v5.1h-1.2v-4.7c0-1.4-0.8-2.2-2.1-2.2
			c-0.9,0-1.6,0.4-2,1.2v5.8h-1.2V977.2z"/>
		<path class="st3" d="M1077.2,973.8h6.4v1h-5.4l-0.2,3.9c0.8-0.4,1.6-0.6,2.5-0.6c2.2,0,3.7,1.4,3.7,3.4c0,2.2-1.6,3.7-3.9,3.7
			c-1.5,0-2.8-0.5-3.8-1.5l0.7-0.8c1,0.9,1.9,1.3,3.1,1.3c1.6,0,2.8-1.1,2.8-2.7c0-1.5-1.1-2.5-2.8-2.5c-0.8,0-1.6,0.2-2.5,0.6
			l-0.8-0.3L1077.2,973.8z"/>
	</g>
	<path class="st0" d="M984,953h1v53h-1V953z"/>
	<path class="st1" d="M851,953h133v53H851V953z"/>
	<g class="st2">
		<path class="st3" d="M884.2,982.4c1.3,1.3,2.4,1.7,3.9,1.7c1.7,0,3-1,3-2.3c0-1.1-0.7-1.6-2.5-2l-1.8-0.3c-2-0.4-3-1.2-3-2.7
			c0-1.9,1.6-3.2,3.8-3.2c1.7,0,3,0.4,4.4,1.4l-0.6,1c-1.2-0.9-2.5-1.3-3.8-1.3c-1.6,0-2.7,0.9-2.7,2c0,1,0.6,1.5,2.1,1.7l1.8,0.3
			c2.4,0.4,3.4,1.3,3.4,3c0,1.9-1.8,3.4-4.3,3.4c-1.8,0-3.2-0.6-4.6-1.9L884.2,982.4z"/>
		<path class="st3" d="M897.8,985.1c-2.2,0-3.9-1.8-3.9-4s1.6-4,3.7-4c2,0,3.6,1.7,3.6,3.9v0.4h-6.1c0.1,1.6,1.3,2.8,2.8,2.8
			c0.8,0,1.6-0.3,2.1-0.8l0.7,0.8C899.9,984.8,898.9,985.1,897.8,985.1z M895.1,980.5h4.9c-0.2-1.4-1.2-2.4-2.4-2.4
			C896.3,978.1,895.4,979.1,895.1,980.5z"/>
		<path class="st3" d="M909,983.2l0.7,0.7c-0.8,0.8-1.8,1.3-3,1.3c-2.2,0-3.9-1.8-3.9-4c0-2.3,1.7-4,3.9-4c1.2,0,2.2,0.4,3,1.2
			l-0.8,0.8c-0.6-0.6-1.4-1-2.2-1c-1.5,0-2.7,1.3-2.7,3c0,1.7,1.2,3,2.8,3C907.7,984.1,908.5,983.8,909,983.2z"/>
		<path class="st3" d="M912.5,978.1h-1.6v-1h1.6V975l1.2-0.3v2.4h2.2v1h-2.2v4.8c0,0.8,0.3,1.2,1.1,1.2c0.4,0,0.7,0,1.1-0.2v1
			c-0.4,0.1-0.9,0.2-1.4,0.2c-1.3,0-2-0.7-2-1.9V978.1z"/>
		<path class="st3" d="M917.4,974.4c0-0.4,0.4-0.8,0.8-0.8c0.4,0,0.8,0.4,0.8,0.8c0,0.5-0.4,0.8-0.8,0.8
			C917.7,975.3,917.4,974.9,917.4,974.4z M918.8,985h-1.2v-7.8h1.2V985z"/>
		<path class="st3" d="M924.6,977.1c2.2,0,3.8,1.7,3.8,4c0,2.3-1.6,4.1-3.8,4.1c-2.1,0-3.8-1.8-3.8-4.1
			C920.8,978.8,922.5,977.1,924.6,977.1z M927.3,981.1c0-1.7-1.1-3-2.7-3s-2.6,1.3-2.6,3c0,1.7,1.1,3,2.6,3S927.3,982.8,927.3,981.1
			z"/>
		<path class="st3" d="M930.5,977.2h1.2v1.3c0.6-0.9,1.4-1.4,2.5-1.4c1.7,0,2.8,1.2,2.8,2.9v5.1h-1.2v-4.7c0-1.4-0.8-2.2-2.1-2.2
			c-0.9,0-1.6,0.4-2,1.2v5.8h-1.2V977.2z"/>
		<path class="st3" d="M949.6,981h1.6v1h-1.6v3h-1.1v-3h-6.1v-0.9l6-7.3h1.2V981z M948.5,981v-5.8l-4.7,5.8H948.5z"/>
	</g>
	<path class="st0" d="M850,953h1v53h-1V953z"/>
	<path class="st4" d="M718,953h132v54H718V953z"/>
	<g class="st2">
		<path class="st3" d="M751.2,982.4c1.3,1.3,2.4,1.7,3.9,1.7c1.7,0,3-1,3-2.3c0-1.1-0.7-1.6-2.5-2l-1.8-0.3c-2-0.4-3-1.2-3-2.7
			c0-1.9,1.6-3.2,3.8-3.2c1.7,0,3,0.4,4.4,1.4l-0.6,1c-1.2-0.9-2.5-1.3-3.8-1.3c-1.6,0-2.7,0.9-2.7,2c0,1,0.6,1.5,2.1,1.7l1.8,0.3
			c2.4,0.4,3.4,1.3,3.4,3c0,1.9-1.8,3.4-4.3,3.4c-1.8,0-3.2-0.6-4.6-1.9L751.2,982.4z"/>
		<path class="st3" d="M764.8,985.1c-2.2,0-3.9-1.8-3.9-4s1.6-4,3.7-4c2,0,3.6,1.7,3.6,3.9v0.4h-6.1c0.1,1.6,1.3,2.8,2.8,2.8
			c0.8,0,1.6-0.3,2.1-0.8l0.7,0.8C766.9,984.8,765.9,985.1,764.8,985.1z M762.1,980.5h4.9c-0.2-1.4-1.2-2.4-2.4-2.4
			C763.3,978.1,762.4,979.1,762.1,980.5z"/>
		<path class="st3" d="M776,983.2l0.7,0.7c-0.8,0.8-1.8,1.3-3,1.3c-2.2,0-3.9-1.8-3.9-4c0-2.3,1.7-4,3.9-4c1.2,0,2.2,0.4,3,1.2
			l-0.8,0.8c-0.6-0.6-1.4-1-2.2-1c-1.5,0-2.7,1.3-2.7,3c0,1.7,1.2,3,2.8,3C774.7,984.1,775.5,983.8,776,983.2z"/>
		<path class="st3" d="M779.5,978.1h-1.6v-1h1.6V975l1.2-0.3v2.4h2.2v1h-2.2v4.8c0,0.8,0.3,1.2,1.1,1.2c0.4,0,0.7,0,1.1-0.2v1
			c-0.4,0.1-0.9,0.2-1.4,0.2c-1.3,0-2-0.7-2-1.9V978.1z"/>
		<path class="st3" d="M784.4,974.4c0-0.4,0.4-0.8,0.8-0.8c0.4,0,0.8,0.4,0.8,0.8c0,0.5-0.4,0.8-0.8,0.8
			C784.7,975.3,784.4,974.9,784.4,974.4z M785.8,985h-1.2v-7.8h1.2V985z"/>
		<path class="st3" d="M791.6,977.1c2.2,0,3.8,1.7,3.8,4c0,2.3-1.6,4.1-3.8,4.1c-2.1,0-3.8-1.8-3.8-4.1
			C787.8,978.8,789.5,977.1,791.6,977.1z M794.3,981.1c0-1.7-1.1-3-2.7-3s-2.6,1.3-2.6,3c0,1.7,1.1,3,2.6,3S794.3,982.8,794.3,981.1
			z"/>
		<path class="st3" d="M797.5,977.2h1.2v1.3c0.6-0.9,1.4-1.4,2.5-1.4c1.7,0,2.8,1.2,2.8,2.9v5.1h-1.2v-4.7c0-1.4-0.8-2.2-2.1-2.2
			c-0.9,0-1.6,0.4-2,1.2v5.8h-1.2V977.2z"/>
		<path class="st3" d="M813.3,985.2c-1.5,0-2.9-0.5-3.9-1.6l0.8-0.8c0.9,0.9,1.9,1.3,3.1,1.3c1.6,0,2.8-0.9,2.8-2.3
			c0-1.2-1-2.1-2.4-2.1h-1.3v-1h1.3c1.2,0,2-0.8,2-2c0-1.2-1.1-2.1-2.4-2.1c-1.2,0-2,0.4-2.9,1.4l-0.8-0.8c1-1.1,2.3-1.6,3.7-1.6
			c2,0,3.6,1.3,3.6,3.1c0,1.2-0.8,2.2-2.1,2.5c1.5,0.3,2.5,1.4,2.5,2.7C817.2,983.8,815.6,985.2,813.3,985.2z"/>
	</g>
	<path class="st3" d="M718,953h132v3H718V953z"/>
	<path class="st0" d="M717,953h1v53h-1V953z"/>
	<path class="st1" d="M585,953h132v53H585V953z"/>
	<g class="st2">
		<path class="st3" d="M618.2,982.4c1.3,1.3,2.4,1.7,3.9,1.7c1.7,0,3-1,3-2.3c0-1.1-0.7-1.6-2.5-2l-1.8-0.3c-2-0.4-3-1.2-3-2.7
			c0-1.9,1.6-3.2,3.8-3.2c1.7,0,3,0.4,4.4,1.4l-0.6,1c-1.2-0.9-2.5-1.3-3.8-1.3c-1.6,0-2.7,0.9-2.7,2c0,1,0.6,1.5,2.1,1.7l1.8,0.3
			c2.4,0.4,3.4,1.3,3.4,3c0,1.9-1.8,3.4-4.3,3.4c-1.8,0-3.2-0.6-4.6-1.9L618.2,982.4z"/>
		<path class="st3" d="M631.8,985.1c-2.2,0-3.9-1.8-3.9-4s1.6-4,3.7-4c2,0,3.6,1.7,3.6,3.9v0.4h-6.1c0.1,1.6,1.3,2.8,2.8,2.8
			c0.8,0,1.6-0.3,2.1-0.8l0.7,0.8C633.9,984.8,632.9,985.1,631.8,985.1z M629.1,980.5h4.9c-0.2-1.4-1.2-2.4-2.4-2.4
			C630.3,978.1,629.4,979.1,629.1,980.5z"/>
		<path class="st3" d="M643,983.2l0.7,0.7c-0.8,0.8-1.8,1.3-3,1.3c-2.2,0-3.9-1.8-3.9-4c0-2.3,1.7-4,3.9-4c1.2,0,2.2,0.4,3,1.2
			l-0.8,0.8c-0.6-0.6-1.4-1-2.2-1c-1.5,0-2.7,1.3-2.7,3c0,1.7,1.2,3,2.8,3C641.7,984.1,642.5,983.8,643,983.2z"/>
		<path class="st3" d="M646.5,978.1h-1.6v-1h1.6V975l1.2-0.3v2.4h2.2v1h-2.2v4.8c0,0.8,0.3,1.2,1.1,1.2c0.4,0,0.7,0,1.1-0.2v1
			c-0.4,0.1-0.9,0.2-1.4,0.2c-1.3,0-2-0.7-2-1.9V978.1z"/>
		<path class="st3" d="M651.4,974.4c0-0.4,0.4-0.8,0.8-0.8c0.4,0,0.8,0.4,0.8,0.8c0,0.5-0.4,0.8-0.8,0.8
			C651.7,975.3,651.4,974.9,651.4,974.4z M652.8,985h-1.2v-7.8h1.2V985z"/>
		<path class="st3" d="M658.6,977.1c2.2,0,3.8,1.7,3.8,4c0,2.3-1.6,4.1-3.8,4.1c-2.1,0-3.8-1.8-3.8-4.1
			C654.8,978.8,656.5,977.1,658.6,977.1z M661.3,981.1c0-1.7-1.1-3-2.7-3s-2.6,1.3-2.6,3c0,1.7,1.1,3,2.6,3S661.3,982.8,661.3,981.1
			z"/>
		<path class="st3" d="M664.5,977.2h1.2v1.3c0.6-0.9,1.4-1.4,2.5-1.4c1.7,0,2.8,1.2,2.8,2.9v5.1h-1.2v-4.7c0-1.4-0.8-2.2-2.1-2.2
			c-0.9,0-1.6,0.4-2,1.2v5.8h-1.2V977.2z"/>
		<path class="st3" d="M676.6,984.2l4.5-4.9c1-1.2,1.4-1.8,1.4-2.6c0-1.1-1-2-2.4-2c-1.1,0-1.9,0.4-3,1.4l-0.7-0.8
			c1.2-1.1,2.3-1.6,3.6-1.6c2,0,3.5,1.2,3.5,2.9c0,1.1-0.4,1.8-1.7,3.3l-3.8,4.1l5.8,0v1h-7.2V984.2z"/>
	</g>
	<path class="st0" d="M584,953h1v53h-1V953z"/>
	<path class="st1" d="M456,953h128v53H456V953z"/>
	<g class="st2">
		<path class="st3" d="M489.2,982.4c1.3,1.3,2.4,1.7,3.9,1.7c1.7,0,3-1,3-2.3c0-1.1-0.7-1.6-2.5-2l-1.8-0.3c-2-0.4-3-1.2-3-2.7
			c0-1.9,1.6-3.2,3.8-3.2c1.7,0,3,0.4,4.4,1.4l-0.6,1c-1.2-0.9-2.5-1.3-3.8-1.3c-1.6,0-2.7,0.9-2.7,2c0,1,0.6,1.5,2.1,1.7l1.8,0.3
			c2.4,0.4,3.4,1.3,3.4,3c0,1.9-1.8,3.4-4.3,3.4c-1.8,0-3.2-0.6-4.6-1.9L489.2,982.4z"/>
		<path class="st3" d="M502.8,985.1c-2.2,0-3.9-1.8-3.9-4s1.6-4,3.7-4c2,0,3.6,1.7,3.6,3.9v0.4h-6.1c0.1,1.6,1.3,2.8,2.8,2.8
			c0.8,0,1.6-0.3,2.1-0.8l0.7,0.8C504.9,984.8,503.9,985.1,502.8,985.1z M500.1,980.5h4.9c-0.2-1.4-1.2-2.4-2.4-2.4
			C501.3,978.1,500.4,979.1,500.1,980.5z"/>
		<path class="st3" d="M514,983.2l0.7,0.7c-0.8,0.8-1.8,1.3-3,1.3c-2.2,0-3.9-1.8-3.9-4c0-2.3,1.7-4,3.9-4c1.2,0,2.2,0.4,3,1.2
			l-0.8,0.8c-0.6-0.6-1.4-1-2.2-1c-1.5,0-2.7,1.3-2.7,3c0,1.7,1.2,3,2.8,3C512.7,984.1,513.5,983.8,514,983.2z"/>
		<path class="st3" d="M517.5,978.1h-1.6v-1h1.6V975l1.2-0.3v2.4h2.2v1h-2.2v4.8c0,0.8,0.3,1.2,1.1,1.2c0.4,0,0.7,0,1.1-0.2v1
			c-0.4,0.1-0.9,0.2-1.4,0.2c-1.3,0-2-0.7-2-1.9V978.1z"/>
		<path class="st3" d="M522.4,974.4c0-0.4,0.4-0.8,0.8-0.8c0.4,0,0.8,0.4,0.8,0.8c0,0.5-0.4,0.8-0.8,0.8
			C522.7,975.3,522.4,974.9,522.4,974.4z M523.8,985h-1.2v-7.8h1.2V985z"/>
		<path class="st3" d="M529.6,977.1c2.2,0,3.8,1.7,3.8,4c0,2.3-1.6,4.1-3.8,4.1c-2.1,0-3.8-1.8-3.8-4.1
			C525.8,978.8,527.5,977.1,529.6,977.1z M532.3,981.1c0-1.7-1.1-3-2.7-3s-2.6,1.3-2.6,3c0,1.7,1.1,3,2.6,3S532.3,982.8,532.3,981.1
			z"/>
		<path class="st3" d="M535.5,977.2h1.2v1.3c0.6-0.9,1.4-1.4,2.5-1.4c1.7,0,2.8,1.2,2.8,2.9v5.1h-1.2v-4.7c0-1.4-0.8-2.2-2.1-2.2
			c-0.9,0-1.6,0.4-2,1.2v5.8h-1.2V977.2z"/>
		<path class="st3" d="M550.4,985h-1.2v-10l-1.8,0.8v-1.1l2.2-1h0.7V985z"/>
	</g>
	<g class="st2">
		<path class="st5" d="M1208,1027.2h1.3l3.8,9.8h-1.2l-1.2-3.1h-4.4l-1.2,3.1h-1.1L1208,1027.2z M1210.5,1033.1l-1.9-4.9l-1.8,4.9
			H1210.5z"/>
		<path class="st5" d="M1214.3,1030.2h1v1.1c0.5-0.8,1.3-1.2,2.2-1.2c1.5,0,2.5,1,2.5,2.5v4.4h-1v-4.1c0-1.2-0.7-2-1.8-2
			c-0.8,0-1.4,0.4-1.8,1.1v5h-1V1030.2z"/>
		<path class="st5" d="M1227,1035.4l0.6,0.6c-0.7,0.7-1.6,1.1-2.6,1.1c-1.9,0-3.4-1.6-3.4-3.5c0-2,1.5-3.5,3.4-3.5
			c1,0,2,0.4,2.6,1.1l-0.7,0.7c-0.5-0.5-1.2-0.9-1.9-0.9c-1.3,0-2.4,1.1-2.4,2.6c0,1.5,1.1,2.6,2.4,2.6
			C1225.9,1036.2,1226.6,1035.9,1227,1035.4z"/>
		<path class="st5" d="M1229.1,1027l1-0.2v4.5c0.5-0.8,1.3-1.2,2.2-1.2c1.5,0,2.5,1,2.5,2.5v4.4h-1v-4.1c0-1.2-0.7-2-1.8-2
			c-0.8,0-1.4,0.4-1.8,1.1v5h-1V1027z"/>
		<path class="st5" d="M1239.9,1030.1c1.9,0,3.3,1.5,3.3,3.5c0,2-1.4,3.6-3.3,3.6c-1.9,0-3.3-1.5-3.3-3.6
			C1236.6,1031.6,1238,1030.1,1239.9,1030.1z M1242.2,1033.6c0-1.5-1-2.6-2.3-2.6c-1.3,0-2.3,1.1-2.3,2.6c0,1.5,1,2.6,2.3,2.6
			C1241.2,1036.2,1242.2,1035.1,1242.2,1033.6z"/>
		<path class="st5" d="M1245,1030.2h1v1.4c0.3-1,1-1.5,1.9-1.5c0.2,0,0.4,0,0.6,0.1v0.9c-0.2-0.1-0.5-0.1-0.7-0.1
			c-0.8,0-1.5,0.5-1.8,1.4v4.7h-1V1030.2z"/>
	</g>
	<circle class="st5" cx="1226.5" cy="1006.5" r="3.5"/>
	<g class="st2">
		<path class="st5" d="M951.4,1027.2h7.8v1h-3.4v8.9h-1.1v-8.9h-3.4V1027.2z"/>
		<path class="st5" d="M959.8,1035c0-1.2,1-2,2.6-2c0.8,0,1.5,0.2,2.1,0.5v-0.9c0-1.1-0.6-1.7-1.8-1.7c-0.6,0-1.3,0.2-2.1,0.6
			l-0.4-0.8c0.9-0.4,1.8-0.7,2.6-0.7c1.7,0,2.6,0.9,2.6,2.4v4.5h-1v-0.8c-0.6,0.6-1.3,0.9-2.2,0.9
			C960.8,1037.1,959.8,1036.3,959.8,1035z M962.5,1036.3c0.8,0,1.4-0.3,2-0.8v-1.3c-0.6-0.3-1.2-0.5-1.9-0.5c-1.1,0-1.7,0.5-1.7,1.3
			C960.7,1035.8,961.4,1036.3,962.5,1036.3z"/>
		<path class="st5" d="M970.7,1037.1c-0.9,0-1.6-0.3-2.2-1v0.9h-1v-10l1-0.2v4.3c0.5-0.6,1.3-1,2.2-1c1.8,0,3.2,1.5,3.2,3.5
			C973.9,1035.6,972.5,1037.1,970.7,1037.1z M968.5,1031.9v3.3c0.4,0.6,1.2,1,1.9,1c1.4,0,2.4-1.1,2.4-2.6c0-1.5-1-2.6-2.4-2.6
			C969.6,1031,968.9,1031.3,968.5,1031.9z"/>
		<path class="st5" d="M982.1,1037.1c-0.9,0-1.6-0.3-2.2-1v0.9h-1v-10l1-0.2v4.3c0.5-0.6,1.3-1,2.2-1c1.8,0,3.2,1.5,3.2,3.5
			C985.3,1035.6,983.9,1037.1,982.1,1037.1z M979.9,1031.9v3.3c0.4,0.6,1.2,1,1.9,1c1.4,0,2.4-1.1,2.4-2.6c0-1.5-1-2.6-2.4-2.6
			C981.1,1031,980.4,1031.3,979.9,1031.9z"/>
		<path class="st5" d="M986.8,1035c0-1.2,1-2,2.6-2c0.8,0,1.5,0.2,2.1,0.5v-0.9c0-1.1-0.6-1.7-1.8-1.7c-0.6,0-1.3,0.2-2.1,0.6
			l-0.4-0.8c0.9-0.4,1.8-0.7,2.6-0.7c1.7,0,2.6,0.9,2.6,2.4v4.5h-1v-0.8c-0.6,0.6-1.3,0.9-2.2,0.9
			C987.8,1037.1,986.8,1036.3,986.8,1035z M989.5,1036.3c0.8,0,1.4-0.3,2-0.8v-1.3c-0.6-0.3-1.2-0.5-1.9-0.5c-1.1,0-1.7,0.5-1.7,1.3
			C987.8,1035.8,988.5,1036.3,989.5,1036.3z"/>
		<path class="st5" d="M999.5,1035.4l0.6,0.6c-0.7,0.7-1.6,1.1-2.6,1.1c-1.9,0-3.4-1.6-3.4-3.5c0-2,1.5-3.5,3.4-3.5
			c1,0,2,0.4,2.6,1.1l-0.7,0.7c-0.5-0.5-1.2-0.9-1.9-0.9c-1.3,0-2.4,1.1-2.4,2.6c0,1.5,1.1,2.6,2.4,2.6
			C998.4,1036.2,999.1,1035.9,999.5,1035.4z"/>
		<path class="st5" d="M1001.6,1027l1-0.2v6.5l3.2-3.1h1.2l-3.5,3.2l3.6,3.6h-1.3l-3.3-3.3v3.3h-1V1027z"/>
		<path class="st5" d="M1007.7,1033.6c0-2,1.4-3.5,3.2-3.5c0.9,0,1.6,0.3,2.1,1v-0.9h1v7.2c0,1.7-1,2.6-2.9,2.6
			c-0.9,0-1.9-0.3-2.7-0.7l0.4-0.8c0.8,0.4,1.5,0.6,2.2,0.6c1.2,0,1.9-0.6,1.9-1.8v-1.3c-0.5,0.7-1.3,1-2.2,1
			C1009.1,1037.1,1007.7,1035.5,1007.7,1033.6z M1011.1,1036.2c0.8,0,1.5-0.3,1.9-0.9v-3.4c-0.4-0.6-1.2-0.9-1.9-0.9
			c-1.4,0-2.4,1.1-2.4,2.6S1009.8,1036.2,1011.1,1036.2z"/>
		<path class="st5" d="M1016.2,1030.2h1v1.4c0.3-1,1-1.5,1.9-1.5c0.2,0,0.4,0,0.6,0.1v0.9c-0.2-0.1-0.5-0.1-0.7-0.1
			c-0.8,0-1.5,0.5-1.8,1.4v4.7h-1V1030.2z"/>
		<path class="st5" d="M1023.7,1030.1c1.9,0,3.3,1.5,3.3,3.5c0,2-1.4,3.6-3.3,3.6c-1.9,0-3.3-1.5-3.3-3.6
			C1020.4,1031.6,1021.8,1030.1,1023.7,1030.1z M1026,1033.6c0-1.5-1-2.6-2.3-2.6c-1.3,0-2.3,1.1-2.3,2.6c0,1.5,1,2.6,2.3,2.6
			C1025,1036.2,1026,1035.1,1026,1033.6z"/>
		<path class="st5" d="M1029.8,1034.3c0,1.2,0.7,2,1.8,2c0.8,0,1.4-0.4,1.8-1v-5.1h1v6.8h-1v-1.1c-0.5,0.8-1.2,1.2-2.2,1.2
			c-1.5,0-2.5-1-2.5-2.5v-4.4h1V1034.3z"/>
		<path class="st5" d="M1036.6,1030.2h1v1.1c0.5-0.8,1.3-1.2,2.2-1.2c1.5,0,2.5,1,2.5,2.5v4.4h-1v-4.1c0-1.2-0.7-2-1.8-2
			c-0.8,0-1.4,0.4-1.8,1.1v5h-1V1030.2z"/>
		<path class="st5" d="M1049.3,1036.1c-0.5,0.7-1.3,1-2.2,1c-1.8,0-3.2-1.5-3.2-3.5c0-2,1.4-3.5,3.2-3.5c0.8,0,1.6,0.3,2.1,1v-4
			l1-0.2v10.2h-1V1036.1z M1047.4,1036.2c0.8,0,1.5-0.3,1.9-0.9v-3.4c-0.4-0.6-1.2-0.9-1.9-0.9c-1.4,0-2.4,1.1-2.4,2.6
			S1046,1036.2,1047.4,1036.2z"/>
	</g>
	<path class="st5" d="M1001,980h1v43h-1V980z"/>
	<circle class="st5" cx="1001.5" cy="979.5" r="3.5"/>
	<g class="st2">
		<path class="st5" d="M806,1027.2h1.3l3.8,9.8H810l-1.2-3.1h-4.4l-1.2,3.1h-1.1L806,1027.2z M808.5,1033.1l-1.9-4.9l-1.8,4.9H808.5
			z"/>
		<path class="st5" d="M817,1035.4l0.6,0.6c-0.7,0.7-1.6,1.1-2.6,1.1c-1.9,0-3.4-1.6-3.4-3.5c0-2,1.5-3.5,3.4-3.5c1,0,2,0.4,2.6,1.1
			l-0.7,0.7c-0.5-0.5-1.2-0.9-1.9-0.9c-1.3,0-2.4,1.1-2.4,2.6c0,1.5,1.1,2.6,2.4,2.6C815.9,1036.2,816.5,1035.9,817,1035.4z"/>
		<path class="st5" d="M820.1,1031h-1.4v-0.8h1.4v-1.9l1-0.2v2.1h2v0.8h-2v4.2c0,0.7,0.3,1,1,1c0.4,0,0.6,0,1-0.2v0.9
			c-0.4,0.1-0.8,0.2-1.2,0.2c-1.2,0-1.8-0.6-1.8-1.7V1031z"/>
		<path class="st5" d="M824.3,1027.7c0-0.4,0.3-0.7,0.7-0.7c0.4,0,0.7,0.3,0.7,0.7c0,0.4-0.3,0.7-0.7,0.7
			C824.7,1028.5,824.3,1028.2,824.3,1027.7z M825.6,1037h-1v-6.8h1V1037z"/>
		<path class="st5" d="M826.8,1030.2h1.1l2.2,5.6l2.2-5.6h1.1l-2.8,6.8h-1L826.8,1030.2z"/>
		<path class="st5" d="M837.6,1037.1c-1.9,0-3.4-1.5-3.4-3.5s1.4-3.5,3.2-3.5c1.8,0,3.1,1.5,3.1,3.4v0.3h-5.4
			c0.1,1.4,1.1,2.4,2.4,2.4c0.7,0,1.4-0.3,1.9-0.7l0.6,0.7C839.3,1036.8,838.5,1037.1,837.6,1037.1z M835.2,1033.1h4.3
			c-0.2-1.2-1-2.1-2.1-2.1C836.2,1030.9,835.4,1031.8,835.2,1033.1z"/>
		<path class="st5" d="M848.7,1037.1c-0.9,0-1.6-0.3-2.2-1v0.9h-1v-10l1-0.2v4.3c0.5-0.6,1.3-1,2.2-1c1.8,0,3.2,1.5,3.2,3.5
			C851.9,1035.6,850.5,1037.1,848.7,1037.1z M846.6,1031.9v3.3c0.4,0.6,1.2,1,1.9,1c1.4,0,2.4-1.1,2.4-2.6c0-1.5-1-2.6-2.4-2.6
			C847.7,1031,847,1031.3,846.6,1031.9z"/>
		<path class="st5" d="M853.4,1035c0-1.2,1-2,2.6-2c0.8,0,1.5,0.2,2.1,0.5v-0.9c0-1.1-0.6-1.7-1.8-1.7c-0.6,0-1.3,0.2-2.1,0.6
			l-0.4-0.8c0.9-0.4,1.8-0.7,2.6-0.7c1.7,0,2.6,0.9,2.6,2.4v4.5h-1v-0.8c-0.6,0.6-1.3,0.9-2.2,0.9
			C854.4,1037.1,853.4,1036.3,853.4,1035z M856.1,1036.3c0.8,0,1.4-0.3,2-0.8v-1.3c-0.6-0.3-1.2-0.5-1.9-0.5c-1.1,0-1.7,0.5-1.7,1.3
			C854.4,1035.8,855.1,1036.3,856.1,1036.3z"/>
		<path class="st5" d="M861.1,1030.2h1v1.4c0.3-1,1-1.5,1.9-1.5c0.2,0,0.4,0,0.6,0.1v0.9c-0.2-0.1-0.5-0.1-0.7-0.1
			c-0.8,0-1.5,0.5-1.8,1.4v4.7h-1V1030.2z"/>
	</g>
	<path class="st5" d="M833,964h1v59h-1V964z"/>
	<circle class="st5" cx="833.5" cy="963.5" r="3.5"/>
	<g class="st2">
		<path class="st5" d="M707,1027.2h1.3l3.8,9.8H711l-1.2-3.1h-4.4l-1.2,3.1h-1.1L707,1027.2z M709.5,1033.1l-1.9-4.9l-1.8,4.9H709.5
			z"/>
		<path class="st5" d="M718,1035.4l0.6,0.6c-0.7,0.7-1.6,1.1-2.6,1.1c-1.9,0-3.4-1.6-3.4-3.5c0-2,1.5-3.5,3.4-3.5c1,0,2,0.4,2.6,1.1
			l-0.7,0.7c-0.5-0.5-1.2-0.9-1.9-0.9c-1.3,0-2.4,1.1-2.4,2.6c0,1.5,1.1,2.6,2.4,2.6C716.9,1036.2,717.5,1035.9,718,1035.4z"/>
		<path class="st5" d="M721.1,1031h-1.4v-0.8h1.4v-1.9l1-0.2v2.1h2v0.8h-2v4.2c0,0.7,0.3,1,1,1c0.4,0,0.6,0,1-0.2v0.9
			c-0.4,0.1-0.8,0.2-1.2,0.2c-1.2,0-1.8-0.6-1.8-1.7V1031z"/>
		<path class="st5" d="M725.3,1027.7c0-0.4,0.3-0.7,0.7-0.7c0.4,0,0.7,0.3,0.7,0.7c0,0.4-0.3,0.7-0.7,0.7
			C725.7,1028.5,725.3,1028.2,725.3,1027.7z M726.6,1037h-1v-6.8h1V1037z"/>
		<path class="st5" d="M727.8,1030.2h1.1l2.2,5.6l2.2-5.6h1.1l-2.8,6.8h-1L727.8,1030.2z"/>
		<path class="st5" d="M738.6,1037.1c-1.9,0-3.4-1.5-3.4-3.5s1.4-3.5,3.2-3.5c1.8,0,3.1,1.5,3.1,3.4v0.3h-5.4
			c0.1,1.4,1.1,2.4,2.4,2.4c0.7,0,1.4-0.3,1.9-0.7l0.6,0.7C740.3,1036.8,739.5,1037.1,738.6,1037.1z M736.2,1033.1h4.3
			c-0.2-1.2-1-2.1-2.1-2.1C737.2,1030.9,736.4,1031.8,736.2,1033.1z"/>
		<path class="st5" d="M747.4,1031h-1.4v-0.8h1.4v-1.9l1-0.2v2.1h2v0.8h-2v4.2c0,0.7,0.3,1,1,1c0.4,0,0.6,0,1-0.2v0.9
			c-0.4,0.1-0.8,0.2-1.2,0.2c-1.2,0-1.8-0.6-1.8-1.7V1031z"/>
		<path class="st5" d="M751.5,1035c0-1.2,1-2,2.6-2c0.8,0,1.5,0.2,2.1,0.5v-0.9c0-1.1-0.6-1.7-1.8-1.7c-0.6,0-1.3,0.2-2.1,0.6
			l-0.4-0.8c0.9-0.4,1.8-0.7,2.6-0.7c1.7,0,2.6,0.9,2.6,2.4v4.5h-1v-0.8c-0.6,0.6-1.3,0.9-2.2,0.9
			C752.5,1037.1,751.5,1036.3,751.5,1035z M754.2,1036.3c0.8,0,1.4-0.3,2-0.8v-1.3c-0.6-0.3-1.2-0.5-1.9-0.5c-1.1,0-1.7,0.5-1.7,1.3
			C752.4,1035.8,753.1,1036.3,754.2,1036.3z"/>
		<path class="st5" d="M762.4,1037.1c-0.9,0-1.6-0.3-2.2-1v0.9h-1v-10l1-0.2v4.3c0.5-0.6,1.3-1,2.2-1c1.8,0,3.2,1.5,3.2,3.5
			C765.6,1035.6,764.2,1037.1,762.4,1037.1z M760.2,1031.9v3.3c0.4,0.6,1.2,1,1.9,1c1.4,0,2.4-1.1,2.4-2.6c0-1.5-1-2.6-2.4-2.6
			C761.4,1031,760.7,1031.3,760.2,1031.9z"/>
	</g>
	<path class="st5" d="M734,980h1v43h-1V980z"/>
	<circle class="st5" cx="734.5" cy="979.5" r="3.5"/>
	<g class="st2">
		<path class="st5" d="M563.2,1027.2h3.2c2.9,0,4.9,2.1,4.9,4.9c0,2.8-2,4.9-4.9,4.9h-3.2V1027.2z M564.3,1028.2v7.9h2.2
			c2.1,0,3.7-1.7,3.7-3.9s-1.6-3.9-3.7-3.9H564.3z"/>
		<path class="st5" d="M573,1027.7c0-0.4,0.3-0.7,0.7-0.7c0.4,0,0.7,0.3,0.7,0.7c0,0.4-0.3,0.7-0.7,0.7
			C573.3,1028.5,573,1028.2,573,1027.7z M574.3,1037h-1v-6.8h1V1037z"/>
		<path class="st5" d="M575.5,1030.2h1.1l2.2,5.6l2.2-5.6h1.1l-2.8,6.8h-1L575.5,1030.2z"/>
		<path class="st5" d="M583.2,1027.7c0-0.4,0.3-0.7,0.7-0.7c0.4,0,0.7,0.3,0.7,0.7c0,0.4-0.3,0.7-0.7,0.7
			C583.5,1028.5,583.2,1028.2,583.2,1027.7z M584.4,1037h-1v-6.8h1V1037z"/>
		<path class="st5" d="M591.5,1036.1c-0.5,0.7-1.3,1-2.2,1c-1.8,0-3.2-1.5-3.2-3.5c0-2,1.4-3.5,3.2-3.5c0.8,0,1.6,0.3,2.1,1v-4
			l1-0.2v10.2h-1V1036.1z M589.6,1036.2c0.8,0,1.5-0.3,1.9-0.9v-3.4c-0.4-0.6-1.2-0.9-1.9-0.9c-1.4,0-2.4,1.1-2.4,2.6
			S588.2,1036.2,589.6,1036.2z"/>
		<path class="st5" d="M597.7,1037.1c-1.9,0-3.4-1.5-3.4-3.5s1.4-3.5,3.2-3.5c1.8,0,3.1,1.5,3.1,3.4v0.3h-5.4
			c0.1,1.4,1.1,2.4,2.4,2.4c0.7,0,1.4-0.3,1.9-0.7l0.6,0.7C599.5,1036.8,598.7,1037.1,597.7,1037.1z M595.4,1033.1h4.3
			c-0.2-1.2-1-2.1-2.1-2.1C596.4,1030.9,595.5,1031.8,595.4,1033.1z"/>
		<path class="st5" d="M602.4,1030.2h1v1.4c0.3-1,1-1.5,1.9-1.5c0.2,0,0.4,0,0.6,0.1v0.9c-0.2-0.1-0.5-0.1-0.7-0.1
			c-0.8,0-1.5,0.5-1.8,1.4v4.7h-1V1030.2z"/>
	</g>
	<path class="st5" d="M584,980h1v43h-1V980z"/>
	<circle class="st5" cx="584.5" cy="979.5" r="3.5"/>
	<g class="st2">
		<path class="st5" d="M437.2,1027.2h1.1v9.8h-1.1V1027.2z"/>
		<path class="st5" d="M440.6,1030.2h1v1.1c0.5-0.8,1.3-1.2,2.2-1.2c1.5,0,2.5,1,2.5,2.5v4.4h-1v-4.1c0-1.2-0.7-2-1.8-2
			c-0.8,0-1.4,0.4-1.8,1.1v5h-1V1030.2z"/>
		<path class="st5" d="M447.9,1035c0-1.2,1-2,2.6-2c0.8,0,1.5,0.2,2.1,0.5v-0.9c0-1.1-0.6-1.7-1.8-1.7c-0.6,0-1.3,0.2-2.1,0.6
			l-0.4-0.8c0.9-0.4,1.8-0.7,2.6-0.7c1.7,0,2.6,0.9,2.6,2.4v4.5h-1v-0.8c-0.6,0.6-1.3,0.9-2.2,0.9
			C449,1037.1,447.9,1036.3,447.9,1035z M450.6,1036.3c0.8,0,1.4-0.3,2-0.8v-1.3c-0.6-0.3-1.2-0.5-1.9-0.5c-1.1,0-1.7,0.5-1.7,1.3
			C448.9,1035.8,449.6,1036.3,450.6,1036.3z"/>
		<path class="st5" d="M460.7,1035.4l0.6,0.6c-0.7,0.7-1.6,1.1-2.6,1.1c-1.9,0-3.4-1.6-3.4-3.5c0-2,1.5-3.5,3.4-3.5
			c1,0,2,0.4,2.6,1.1l-0.7,0.7c-0.5-0.5-1.2-0.9-1.9-0.9c-1.3,0-2.4,1.1-2.4,2.6c0,1.5,1.1,2.6,2.4,2.6
			C459.5,1036.2,460.2,1035.9,460.7,1035.4z"/>
		<path class="st5" d="M463.7,1031h-1.4v-0.8h1.4v-1.9l1-0.2v2.1h2v0.8h-2v4.2c0,0.7,0.3,1,1,1c0.4,0,0.6,0,1-0.2v0.9
			c-0.4,0.1-0.8,0.2-1.2,0.2c-1.2,0-1.8-0.6-1.8-1.7V1031z"/>
		<path class="st5" d="M468,1027.7c0-0.4,0.3-0.7,0.7-0.7c0.4,0,0.7,0.3,0.7,0.7c0,0.4-0.3,0.7-0.7,0.7
			C468.3,1028.5,468,1028.2,468,1027.7z M469.2,1037h-1v-6.8h1V1037z"/>
		<path class="st5" d="M470.5,1030.2h1.1l2.2,5.6l2.2-5.6h1.1l-2.8,6.8h-1L470.5,1030.2z"/>
		<path class="st5" d="M481.2,1037.1c-1.9,0-3.4-1.5-3.4-3.5s1.4-3.5,3.2-3.5c1.8,0,3.1,1.5,3.1,3.4v0.3h-5.4
			c0.1,1.4,1.1,2.4,2.4,2.4c0.7,0,1.4-0.3,1.9-0.7l0.6,0.7C483,1036.8,482.2,1037.1,481.2,1037.1z M478.9,1033.1h4.3
			c-0.2-1.2-1-2.1-2.1-2.1C479.9,1030.9,479,1031.8,478.9,1033.1z"/>
		<path class="st5" d="M490,1031h-1.4v-0.8h1.4v-1.9l1-0.2v2.1h2v0.8h-2v4.2c0,0.7,0.3,1,1,1c0.4,0,0.6,0,1-0.2v0.9
			c-0.4,0.1-0.8,0.2-1.2,0.2c-1.2,0-1.8-0.6-1.8-1.7V1031z"/>
		<path class="st5" d="M494.1,1035c0-1.2,1-2,2.6-2c0.8,0,1.5,0.2,2.1,0.5v-0.9c0-1.1-0.6-1.7-1.8-1.7c-0.6,0-1.3,0.2-2.1,0.6
			l-0.4-0.8c0.9-0.4,1.8-0.7,2.6-0.7c1.7,0,2.6,0.9,2.6,2.4v4.5h-1v-0.8c-0.6,0.6-1.3,0.9-2.2,0.9
			C495.2,1037.1,494.1,1036.3,494.1,1035z M496.8,1036.3c0.8,0,1.4-0.3,2-0.8v-1.3c-0.6-0.3-1.2-0.5-1.9-0.5c-1.1,0-1.7,0.5-1.7,1.3
			C495.1,1035.8,495.8,1036.3,496.8,1036.3z"/>
		<path class="st5" d="M505,1037.1c-0.9,0-1.6-0.3-2.2-1v0.9h-1v-10l1-0.2v4.3c0.5-0.6,1.3-1,2.2-1c1.8,0,3.2,1.5,3.2,3.5
			C508.2,1035.6,506.8,1037.1,505,1037.1z M502.9,1031.9v3.3c0.4,0.6,1.2,1,1.9,1c1.4,0,2.4-1.1,2.4-2.6c0-1.5-1-2.6-2.4-2.6
			C504,1031,503.3,1031.3,502.9,1031.9z"/>
	</g>
	<path class="st5" d="M472,980h1v43h-1V980z"/>
	<circle class="st5" cx="472.5" cy="979.5" r="3.5"/>
	<path class="st0" d="M424,833h708v1H424V833z"/>
	<g class="st2">
		<path class="st3" d="M1046.2,809.4c1.3,1.3,2.4,1.7,3.9,1.7c1.7,0,3-1,3-2.3c0-1.1-0.7-1.6-2.5-2l-1.8-0.3c-2-0.4-3-1.2-3-2.7
			c0-1.9,1.6-3.2,3.8-3.2c1.7,0,3,0.4,4.4,1.4l-0.6,1c-1.2-0.9-2.5-1.3-3.8-1.3c-1.6,0-2.7,0.9-2.7,2c0,1,0.6,1.5,2.1,1.7l1.8,0.3
			c2.4,0.4,3.4,1.3,3.4,3c0,1.9-1.8,3.4-4.3,3.4c-1.8,0-3.2-0.6-4.6-1.9L1046.2,809.4z"/>
		<path class="st3" d="M1059.8,812.1c-2.2,0-3.9-1.8-3.9-4s1.6-4,3.7-4c2,0,3.6,1.7,3.6,3.9v0.4h-6.1c0.1,1.6,1.3,2.8,2.8,2.8
			c0.8,0,1.6-0.3,2.1-0.8l0.7,0.8C1061.9,811.8,1060.9,812.1,1059.8,812.1z M1057.1,807.5h4.9c-0.2-1.4-1.2-2.4-2.4-2.4
			C1058.3,805.1,1057.4,806.1,1057.1,807.5z"/>
		<path class="st3" d="M1071,810.2l0.7,0.7c-0.8,0.8-1.8,1.3-3,1.3c-2.2,0-3.9-1.8-3.9-4c0-2.3,1.7-4,3.9-4c1.2,0,2.2,0.4,3,1.2
			l-0.8,0.8c-0.6-0.6-1.4-1-2.2-1c-1.5,0-2.7,1.3-2.7,3c0,1.7,1.2,3,2.8,3C1069.7,811.1,1070.5,810.8,1071,810.2z"/>
		<path class="st3" d="M1074.5,805.1h-1.6v-1h1.6V802l1.2-0.3v2.4h2.2v1h-2.2v4.8c0,0.8,0.3,1.2,1.1,1.2c0.4,0,0.7,0,1.1-0.2v1
			c-0.4,0.1-0.9,0.2-1.4,0.2c-1.3,0-2-0.7-2-1.9V805.1z"/>
		<path class="st3" d="M1079.4,801.4c0-0.4,0.4-0.8,0.8-0.8c0.4,0,0.8,0.4,0.8,0.8c0,0.5-0.4,0.8-0.8,0.8
			C1079.7,802.3,1079.4,801.9,1079.4,801.4z M1080.8,812h-1.2v-7.8h1.2V812z"/>
		<path class="st3" d="M1086.6,804.1c2.2,0,3.8,1.7,3.8,4c0,2.3-1.6,4.1-3.8,4.1c-2.1,0-3.8-1.8-3.8-4.1
			C1082.8,805.8,1084.5,804.1,1086.6,804.1z M1089.3,808.1c0-1.7-1.1-3-2.7-3s-2.6,1.3-2.6,3c0,1.7,1.1,3,2.6,3
			S1089.3,809.8,1089.3,808.1z"/>
		<path class="st3" d="M1092.5,804.2h1.2v1.3c0.6-0.9,1.4-1.4,2.5-1.4c1.7,0,2.8,1.2,2.8,2.9v5.1h-1.2v-4.7c0-1.4-0.8-2.2-2.1-2.2
			c-0.9,0-1.6,0.4-2,1.2v5.8h-1.2V804.2z"/>
		<path class="st3" d="M1105.2,800.8h6.4v1h-5.4l-0.2,3.9c0.8-0.4,1.6-0.6,2.5-0.6c2.2,0,3.7,1.4,3.7,3.4c0,2.2-1.6,3.7-3.9,3.7
			c-1.5,0-2.8-0.5-3.8-1.5l0.7-0.8c1,0.9,1.9,1.3,3.1,1.3c1.6,0,2.8-1.1,2.8-2.7c0-1.5-1.1-2.5-2.8-2.5c-0.8,0-1.6,0.2-2.5,0.6
			l-0.8-0.3L1105.2,800.8z"/>
	</g>
	<g class="st2">
		<path class="st3" d="M913.2,809.4c1.3,1.3,2.4,1.7,3.9,1.7c1.7,0,3-1,3-2.3c0-1.1-0.7-1.6-2.5-2l-1.8-0.3c-2-0.4-3-1.2-3-2.7
			c0-1.9,1.6-3.2,3.8-3.2c1.7,0,3,0.4,4.4,1.4l-0.6,1c-1.2-0.9-2.5-1.3-3.8-1.3c-1.6,0-2.7,0.9-2.7,2c0,1,0.6,1.5,2.1,1.7l1.8,0.3
			c2.4,0.4,3.4,1.3,3.4,3c0,1.9-1.8,3.4-4.3,3.4c-1.8,0-3.2-0.6-4.6-1.9L913.2,809.4z"/>
		<path class="st3" d="M926.8,812.1c-2.2,0-3.9-1.8-3.9-4s1.6-4,3.7-4c2,0,3.6,1.7,3.6,3.9v0.4h-6.1c0.1,1.6,1.3,2.8,2.8,2.8
			c0.8,0,1.6-0.3,2.1-0.8l0.7,0.8C928.9,811.8,927.9,812.1,926.8,812.1z M924.1,807.5h4.9c-0.2-1.4-1.2-2.4-2.4-2.4
			C925.3,805.1,924.4,806.1,924.1,807.5z"/>
		<path class="st3" d="M938,810.2l0.7,0.7c-0.8,0.8-1.8,1.3-3,1.3c-2.2,0-3.9-1.8-3.9-4c0-2.3,1.7-4,3.9-4c1.2,0,2.2,0.4,3,1.2
			l-0.8,0.8c-0.6-0.6-1.4-1-2.2-1c-1.5,0-2.7,1.3-2.7,3c0,1.7,1.2,3,2.8,3C936.7,811.1,937.5,810.8,938,810.2z"/>
		<path class="st3" d="M941.5,805.1h-1.6v-1h1.6V802l1.2-0.3v2.4h2.2v1h-2.2v4.8c0,0.8,0.3,1.2,1.1,1.2c0.4,0,0.7,0,1.1-0.2v1
			c-0.4,0.1-0.9,0.2-1.4,0.2c-1.3,0-2-0.7-2-1.9V805.1z"/>
		<path class="st3" d="M946.4,801.4c0-0.4,0.4-0.8,0.8-0.8c0.4,0,0.8,0.4,0.8,0.8c0,0.5-0.4,0.8-0.8,0.8
			C946.7,802.3,946.4,801.9,946.4,801.4z M947.8,812h-1.2v-7.8h1.2V812z"/>
		<path class="st3" d="M953.6,804.1c2.2,0,3.8,1.7,3.8,4c0,2.3-1.6,4.1-3.8,4.1c-2.1,0-3.8-1.8-3.8-4.1
			C949.8,805.8,951.5,804.1,953.6,804.1z M956.3,808.1c0-1.7-1.1-3-2.7-3s-2.6,1.3-2.6,3c0,1.7,1.1,3,2.6,3S956.3,809.8,956.3,808.1
			z"/>
		<path class="st3" d="M959.5,804.2h1.2v1.3c0.6-0.9,1.4-1.4,2.5-1.4c1.7,0,2.8,1.2,2.8,2.9v5.1h-1.2v-4.7c0-1.4-0.8-2.2-2.1-2.2
			c-0.9,0-1.6,0.4-2,1.2v5.8h-1.2V804.2z"/>
		<path class="st3" d="M978.6,808h1.6v1h-1.6v3h-1.1v-3h-6.1v-0.9l6-7.3h1.2V808z M977.5,808v-5.8l-4.7,5.8H977.5z"/>
	</g>
	<path class="st3" d="M748,831h132v3H748V831z"/>
	<g class="st2">
		<path class="st3" d="M781.2,809.4c1.3,1.3,2.4,1.7,3.9,1.7c1.7,0,3-1,3-2.3c0-1.1-0.7-1.6-2.5-2l-1.8-0.3c-2-0.4-3-1.2-3-2.7
			c0-1.9,1.6-3.2,3.8-3.2c1.7,0,3,0.4,4.4,1.4l-0.6,1c-1.2-0.9-2.5-1.3-3.8-1.3c-1.6,0-2.7,0.9-2.7,2c0,1,0.6,1.5,2.1,1.7l1.8,0.3
			c2.4,0.4,3.4,1.3,3.4,3c0,1.9-1.8,3.4-4.3,3.4c-1.8,0-3.2-0.6-4.6-1.9L781.2,809.4z"/>
		<path class="st3" d="M794.8,812.1c-2.2,0-3.9-1.8-3.9-4s1.6-4,3.7-4c2,0,3.6,1.7,3.6,3.9v0.4h-6.1c0.1,1.6,1.3,2.8,2.8,2.8
			c0.8,0,1.6-0.3,2.1-0.8l0.7,0.8C796.9,811.8,795.9,812.1,794.8,812.1z M792.1,807.5h4.9c-0.2-1.4-1.2-2.4-2.4-2.4
			C793.3,805.1,792.4,806.1,792.1,807.5z"/>
		<path class="st3" d="M806,810.2l0.7,0.7c-0.8,0.8-1.8,1.3-3,1.3c-2.2,0-3.9-1.8-3.9-4c0-2.3,1.7-4,3.9-4c1.2,0,2.2,0.4,3,1.2
			l-0.8,0.8c-0.6-0.6-1.4-1-2.2-1c-1.5,0-2.7,1.3-2.7,3c0,1.7,1.2,3,2.8,3C804.7,811.1,805.5,810.8,806,810.2z"/>
		<path class="st3" d="M809.5,805.1h-1.6v-1h1.6V802l1.2-0.3v2.4h2.2v1h-2.2v4.8c0,0.8,0.3,1.2,1.1,1.2c0.4,0,0.7,0,1.1-0.2v1
			c-0.4,0.1-0.9,0.2-1.4,0.2c-1.3,0-2-0.7-2-1.9V805.1z"/>
		<path class="st3" d="M814.4,801.4c0-0.4,0.4-0.8,0.8-0.8c0.4,0,0.8,0.4,0.8,0.8c0,0.5-0.4,0.8-0.8,0.8
			C814.7,802.3,814.4,801.9,814.4,801.4z M815.8,812h-1.2v-7.8h1.2V812z"/>
		<path class="st3" d="M821.6,804.1c2.2,0,3.8,1.7,3.8,4c0,2.3-1.6,4.1-3.8,4.1c-2.1,0-3.8-1.8-3.8-4.1
			C817.8,805.8,819.5,804.1,821.6,804.1z M824.3,808.1c0-1.7-1.1-3-2.7-3s-2.6,1.3-2.6,3c0,1.7,1.1,3,2.6,3S824.3,809.8,824.3,808.1
			z"/>
		<path class="st3" d="M827.5,804.2h1.2v1.3c0.6-0.9,1.4-1.4,2.5-1.4c1.7,0,2.8,1.2,2.8,2.9v5.1h-1.2v-4.7c0-1.4-0.8-2.2-2.1-2.2
			c-0.9,0-1.6,0.4-2,1.2v5.8h-1.2V804.2z"/>
		<path class="st3" d="M843.3,812.2c-1.5,0-2.9-0.5-3.9-1.6l0.8-0.8c0.9,0.9,1.9,1.3,3.1,1.3c1.6,0,2.8-0.9,2.8-2.3
			c0-1.2-1-2.1-2.4-2.1h-1.3v-1h1.3c1.2,0,2-0.8,2-2c0-1.2-1.1-2.1-2.4-2.1c-1.2,0-2,0.4-2.9,1.4l-0.8-0.8c1-1.1,2.3-1.6,3.7-1.6
			c2,0,3.6,1.3,3.6,3.1c0,1.2-0.8,2.2-2.1,2.5c1.5,0.3,2.5,1.4,2.5,2.7C847.2,810.8,845.6,812.2,843.3,812.2z"/>
	</g>
	<g class="st2">
		<path class="st3" d="M649.2,809.4c1.3,1.3,2.4,1.7,3.9,1.7c1.7,0,3-1,3-2.3c0-1.1-0.7-1.6-2.5-2l-1.8-0.3c-2-0.4-3-1.2-3-2.7
			c0-1.9,1.6-3.2,3.8-3.2c1.7,0,3,0.4,4.4,1.4l-0.6,1c-1.2-0.9-2.5-1.3-3.8-1.3c-1.6,0-2.7,0.9-2.7,2c0,1,0.6,1.5,2.1,1.7l1.8,0.3
			c2.4,0.4,3.4,1.3,3.4,3c0,1.9-1.8,3.4-4.3,3.4c-1.8,0-3.2-0.6-4.6-1.9L649.2,809.4z"/>
		<path class="st3" d="M662.8,812.1c-2.2,0-3.9-1.8-3.9-4s1.6-4,3.7-4c2,0,3.6,1.7,3.6,3.9v0.4h-6.1c0.1,1.6,1.3,2.8,2.8,2.8
			c0.8,0,1.6-0.3,2.1-0.8l0.7,0.8C664.9,811.8,663.9,812.1,662.8,812.1z M660.1,807.5h4.9c-0.2-1.4-1.2-2.4-2.4-2.4
			C661.3,805.1,660.4,806.1,660.1,807.5z"/>
		<path class="st3" d="M674,810.2l0.7,0.7c-0.8,0.8-1.8,1.3-3,1.3c-2.2,0-3.9-1.8-3.9-4c0-2.3,1.7-4,3.9-4c1.2,0,2.2,0.4,3,1.2
			l-0.8,0.8c-0.6-0.6-1.4-1-2.2-1c-1.5,0-2.7,1.3-2.7,3c0,1.7,1.2,3,2.8,3C672.7,811.1,673.5,810.8,674,810.2z"/>
		<path class="st3" d="M677.5,805.1h-1.6v-1h1.6V802l1.2-0.3v2.4h2.2v1h-2.2v4.8c0,0.8,0.3,1.2,1.1,1.2c0.4,0,0.7,0,1.1-0.2v1
			c-0.4,0.1-0.9,0.2-1.4,0.2c-1.3,0-2-0.7-2-1.9V805.1z"/>
		<path class="st3" d="M682.4,801.4c0-0.4,0.4-0.8,0.8-0.8c0.4,0,0.8,0.4,0.8,0.8c0,0.5-0.4,0.8-0.8,0.8
			C682.7,802.3,682.4,801.9,682.4,801.4z M683.8,812h-1.2v-7.8h1.2V812z"/>
		<path class="st3" d="M689.6,804.1c2.2,0,3.8,1.7,3.8,4c0,2.3-1.6,4.1-3.8,4.1c-2.1,0-3.8-1.8-3.8-4.1
			C685.8,805.8,687.5,804.1,689.6,804.1z M692.3,808.1c0-1.7-1.1-3-2.7-3s-2.6,1.3-2.6,3c0,1.7,1.1,3,2.6,3S692.3,809.8,692.3,808.1
			z"/>
		<path class="st3" d="M695.5,804.2h1.2v1.3c0.6-0.9,1.4-1.4,2.5-1.4c1.7,0,2.8,1.2,2.8,2.9v5.1h-1.2v-4.7c0-1.4-0.8-2.2-2.1-2.2
			c-0.9,0-1.6,0.4-2,1.2v5.8h-1.2V804.2z"/>
		<path class="st3" d="M707.6,811.2l4.5-4.9c1-1.2,1.4-1.8,1.4-2.6c0-1.1-1-2-2.4-2c-1.1,0-1.9,0.4-3,1.4l-0.7-0.8
			c1.2-1.1,2.3-1.6,3.6-1.6c2,0,3.5,1.2,3.5,2.9c0,1.1-0.4,1.8-1.7,3.3l-3.8,4.1l5.8,0v1h-7.2V811.2z"/>
	</g>
	<g class="st2">
		<path class="st3" d="M521.2,809.4c1.3,1.3,2.4,1.7,3.9,1.7c1.7,0,3-1,3-2.3c0-1.1-0.7-1.6-2.5-2l-1.8-0.3c-2-0.4-3-1.2-3-2.7
			c0-1.9,1.6-3.2,3.8-3.2c1.7,0,3,0.4,4.4,1.4l-0.6,1c-1.2-0.9-2.5-1.3-3.8-1.3c-1.6,0-2.7,0.9-2.7,2c0,1,0.6,1.5,2.1,1.7l1.8,0.3
			c2.4,0.4,3.4,1.3,3.4,3c0,1.9-1.8,3.4-4.3,3.4c-1.8,0-3.2-0.6-4.6-1.9L521.2,809.4z"/>
		<path class="st3" d="M534.8,812.1c-2.2,0-3.9-1.8-3.9-4s1.6-4,3.7-4c2,0,3.6,1.7,3.6,3.9v0.4h-6.1c0.1,1.6,1.3,2.8,2.8,2.8
			c0.8,0,1.6-0.3,2.1-0.8l0.7,0.8C536.9,811.8,535.9,812.1,534.8,812.1z M532.1,807.5h4.9c-0.2-1.4-1.2-2.4-2.4-2.4
			C533.3,805.1,532.4,806.1,532.1,807.5z"/>
		<path class="st3" d="M546,810.2l0.7,0.7c-0.8,0.8-1.8,1.3-3,1.3c-2.2,0-3.9-1.8-3.9-4c0-2.3,1.7-4,3.9-4c1.2,0,2.2,0.4,3,1.2
			l-0.8,0.8c-0.6-0.6-1.4-1-2.2-1c-1.5,0-2.7,1.3-2.7,3c0,1.7,1.2,3,2.8,3C544.7,811.1,545.5,810.8,546,810.2z"/>
		<path class="st3" d="M549.5,805.1h-1.6v-1h1.6V802l1.2-0.3v2.4h2.2v1h-2.2v4.8c0,0.8,0.3,1.2,1.1,1.2c0.4,0,0.7,0,1.1-0.2v1
			c-0.4,0.1-0.9,0.2-1.4,0.2c-1.3,0-2-0.7-2-1.9V805.1z"/>
		<path class="st3" d="M554.4,801.4c0-0.4,0.4-0.8,0.8-0.8c0.4,0,0.8,0.4,0.8,0.8c0,0.5-0.4,0.8-0.8,0.8
			C554.7,802.3,554.4,801.9,554.4,801.4z M555.8,812h-1.2v-7.8h1.2V812z"/>
		<path class="st3" d="M561.6,804.1c2.2,0,3.8,1.7,3.8,4c0,2.3-1.6,4.1-3.8,4.1c-2.1,0-3.8-1.8-3.8-4.1
			C557.8,805.8,559.5,804.1,561.6,804.1z M564.3,808.1c0-1.7-1.1-3-2.7-3s-2.6,1.3-2.6,3c0,1.7,1.1,3,2.6,3S564.3,809.8,564.3,808.1
			z"/>
		<path class="st3" d="M567.5,804.2h1.2v1.3c0.6-0.9,1.4-1.4,2.5-1.4c1.7,0,2.8,1.2,2.8,2.9v5.1h-1.2v-4.7c0-1.4-0.8-2.2-2.1-2.2
			c-0.9,0-1.6,0.4-2,1.2v5.8h-1.2V804.2z"/>
		<path class="st3" d="M582.4,812h-1.2v-10l-1.8,0.8v-1.1l2.2-1h0.7V812z"/>
	</g>
	<path class="st4" d="M1076,777h56v56h-56V777z"/>
	<path class="st4" d="M0,0"/>
	<path class="st0" d="M1076,777h1v56h-1V777z"/>
	<path class="st4" d="M424,777h56v56h-56V777z"/>
	<path class="st4" d="M0,0"/>
	<g class="st2">
		<path class="st5" d="M1044.1,854.2h1.3l3.8,9.8h-1.2l-1.2-3.1h-4.4l-1.2,3.1h-1.1L1044.1,854.2z M1046.5,860.1l-1.9-4.9l-1.8,4.9
			H1046.5z"/>
		<path class="st5" d="M1055.1,862.4l0.6,0.6c-0.7,0.7-1.6,1.1-2.6,1.1c-1.9,0-3.4-1.6-3.4-3.5c0-2,1.5-3.5,3.4-3.5
			c1,0,2,0.4,2.6,1.1l-0.7,0.7c-0.5-0.5-1.2-0.9-1.9-0.9c-1.3,0-2.4,1.1-2.4,2.6c0,1.5,1.1,2.6,2.4,2.6
			C1053.9,863.2,1054.6,862.9,1055.1,862.4z"/>
		<path class="st5" d="M1058.1,858h-1.4v-0.8h1.4v-1.9l1-0.2v2.1h2v0.8h-2v4.2c0,0.7,0.3,1,1,1c0.4,0,0.6,0,1-0.2v0.9
			c-0.4,0.1-0.8,0.2-1.2,0.2c-1.2,0-1.8-0.6-1.8-1.7V858z"/>
		<path class="st5" d="M1062.4,854.7c0-0.4,0.3-0.7,0.7-0.7c0.4,0,0.7,0.3,0.7,0.7c0,0.4-0.3,0.7-0.7,0.7
			C1062.7,855.5,1062.4,855.2,1062.4,854.7z M1063.6,864h-1v-6.8h1V864z"/>
		<path class="st5" d="M1064.9,857.2h1.1l2.2,5.6l2.2-5.6h1.1l-2.8,6.8h-1L1064.9,857.2z"/>
		<path class="st5" d="M1075.6,864.1c-1.9,0-3.4-1.5-3.4-3.5s1.4-3.5,3.2-3.5c1.8,0,3.1,1.5,3.1,3.4v0.3h-5.4
			c0.1,1.4,1.1,2.4,2.4,2.4c0.7,0,1.4-0.3,1.9-0.7l0.6,0.7C1077.4,863.8,1076.6,864.1,1075.6,864.1z M1073.3,860.1h4.3
			c-0.2-1.2-1-2.1-2.1-2.1C1074.3,857.9,1073.4,858.8,1073.3,860.1z"/>
		<path class="st5" d="M1086.6,857.1c1.9,0,3.3,1.5,3.3,3.5c0,2-1.4,3.6-3.3,3.6c-1.9,0-3.3-1.5-3.3-3.6
			C1083.3,858.6,1084.7,857.1,1086.6,857.1z M1088.9,860.6c0-1.5-1-2.6-2.3-2.6c-1.3,0-2.3,1.1-2.3,2.6c0,1.5,1,2.6,2.3,2.6
			C1087.9,863.2,1088.9,862.1,1088.9,860.6z"/>
		<path class="st5" d="M1090.7,857.2h1.1l2.2,5.6l2.2-5.6h1.1l-2.8,6.8h-1L1090.7,857.2z"/>
		<path class="st5" d="M1101.4,864.1c-1.9,0-3.4-1.5-3.4-3.5s1.4-3.5,3.2-3.5c1.8,0,3.1,1.5,3.1,3.4v0.3h-5.4
			c0.1,1.4,1.1,2.4,2.4,2.4c0.7,0,1.4-0.3,1.9-0.7l0.6,0.7C1103.2,863.8,1102.4,864.1,1101.4,864.1z M1099,860.1h4.3
			c-0.2-1.2-1-2.1-2.1-2.1C1100.1,857.9,1099.2,858.8,1099,860.1z"/>
		<path class="st5" d="M1106.1,857.2h1v1.4c0.3-1,1-1.5,1.9-1.5c0.2,0,0.4,0,0.6,0.1v0.9c-0.2-0.1-0.5-0.1-0.7-0.1
			c-0.8,0-1.5,0.5-1.8,1.4v4.7h-1V857.2z"/>
		<path class="st5" d="M1111.9,857.2v-1.5c0-1.3,0.7-2.1,2-2.1c0.4,0,0.7,0,0.9,0.1v0.9c-0.3-0.1-0.5-0.1-0.8-0.1
			c-0.8,0-1.1,0.4-1.1,1.2v1.5h1.9v0.8h-1.9v6h-1v-6h-1.5v-0.8H1111.9z"/>
		<path class="st5" d="M1117.3,864h-1v-10l1-0.2V864z"/>
		<path class="st5" d="M1122.4,857.1c1.9,0,3.3,1.5,3.3,3.5c0,2-1.4,3.6-3.3,3.6c-1.9,0-3.3-1.5-3.3-3.6
			C1119.1,858.6,1120.5,857.1,1122.4,857.1z M1124.7,860.6c0-1.5-1-2.6-2.3-2.6c-1.3,0-2.3,1.1-2.3,2.6c0,1.5,1,2.6,2.3,2.6
			C1123.7,863.2,1124.7,862.1,1124.7,860.6z"/>
		<path class="st5" d="M1128.6,864l-1.9-6.8h1l1.4,5.5l1.6-5.5h0.9l1.6,5.5l1.4-5.5h1l-1.9,6.8h-1l-1.6-5.5l-1.6,5.5H1128.6z"/>
	</g>
	<g class="st2">
		<path class="st5" d="M1050.3,883.4c0.8,0.6,1.5,0.9,2.2,0.9c1,0,1.7-0.5,1.7-1.2c0-0.6-0.4-0.9-1.2-1l-1.1-0.2
			c-1.3-0.2-1.9-0.8-1.9-1.8c0-1.2,1-2,2.5-2c0.9,0,1.7,0.3,2.6,0.9l-0.5,0.7c-0.7-0.5-1.4-0.7-2.1-0.7c-0.9,0-1.5,0.4-1.5,1.1
			c0,0.6,0.3,0.8,1.2,1l1.1,0.2c1.4,0.3,2,0.8,2,1.8c0,1.2-1.1,2.1-2.7,2.1c-1.1,0-2.1-0.4-2.8-1L1050.3,883.4z"/>
		<path class="st5" d="M1061.8,883.4l0.6,0.6c-0.7,0.7-1.6,1.1-2.6,1.1c-1.9,0-3.4-1.6-3.4-3.5c0-2,1.5-3.5,3.4-3.5
			c1,0,2,0.4,2.6,1.1l-0.7,0.7c-0.5-0.5-1.2-0.9-1.9-0.9c-1.3,0-2.4,1.1-2.4,2.6c0,1.5,1.1,2.6,2.4,2.6
			C1060.7,884.2,1061.3,883.9,1061.8,883.4z"/>
		<path class="st5" d="M1063.9,878.2h1v1.4c0.3-1,1-1.5,1.9-1.5c0.2,0,0.4,0,0.6,0.1v0.9c-0.2-0.1-0.5-0.1-0.7-0.1
			c-0.8,0-1.5,0.5-1.8,1.4v4.7h-1V878.2z"/>
		<path class="st5" d="M1071.4,878.1c1.9,0,3.3,1.5,3.3,3.5c0,2-1.4,3.6-3.3,3.6c-1.9,0-3.3-1.5-3.3-3.6
			C1068.1,879.6,1069.5,878.1,1071.4,878.1z M1073.8,881.6c0-1.5-1-2.6-2.3-2.6c-1.3,0-2.3,1.1-2.3,2.6c0,1.5,1,2.6,2.3,2.6
			C1072.8,884.2,1073.8,883.1,1073.8,881.6z"/>
		<path class="st5" d="M1077.6,885h-1v-10l1-0.2V885z"/>
		<path class="st5" d="M1080.7,885h-1v-10l1-0.2V885z"/>
		<path class="st5" d="M1089.2,885.1c-0.9,0-1.6-0.3-2.2-1v0.9h-1v-10l1-0.2v4.3c0.5-0.6,1.3-1,2.2-1c1.8,0,3.2,1.5,3.2,3.5
			C1092.4,883.6,1091,885.1,1089.2,885.1z M1087.1,879.9v3.3c0.4,0.6,1.2,1,1.9,1c1.4,0,2.4-1.1,2.4-2.6c0-1.5-1-2.6-2.4-2.6
			C1088.2,879,1087.5,879.3,1087.1,879.9z"/>
		<path class="st5" d="M1095.2,882.3c0,1.2,0.7,2,1.8,2c0.8,0,1.4-0.4,1.8-1v-5.1h1v6.8h-1v-1.1c-0.5,0.8-1.2,1.2-2.2,1.2
			c-1.5,0-2.5-1-2.5-2.5v-4.4h1V882.3z"/>
		<path class="st5" d="M1102.8,879h-1.4v-0.8h1.4v-1.9l1-0.2v2.1h2v0.8h-2v4.2c0,0.7,0.3,1,1,1c0.4,0,0.6,0,1-0.2v0.9
			c-0.4,0.1-0.8,0.2-1.2,0.2c-1.2,0-1.8-0.6-1.8-1.7V879z"/>
		<path class="st5" d="M1108.2,879h-1.4v-0.8h1.4v-1.9l1-0.2v2.1h2v0.8h-2v4.2c0,0.7,0.3,1,1,1c0.4,0,0.6,0,1-0.2v0.9
			c-0.4,0.1-0.8,0.2-1.2,0.2c-1.2,0-1.8-0.6-1.8-1.7V879z"/>
		<path class="st5" d="M1115.5,878.1c1.9,0,3.3,1.5,3.3,3.5c0,2-1.4,3.6-3.3,3.6c-1.9,0-3.3-1.5-3.3-3.6
			C1112.2,879.6,1113.6,878.1,1115.5,878.1z M1117.8,881.6c0-1.5-1-2.6-2.3-2.6c-1.3,0-2.3,1.1-2.3,2.6c0,1.5,1,2.6,2.3,2.6
			C1116.8,884.2,1117.8,883.1,1117.8,881.6z"/>
		<path class="st5" d="M1120.6,878.2h1v1.1c0.5-0.8,1.3-1.2,2.2-1.2c1.5,0,2.5,1,2.5,2.5v4.4h-1v-4.1c0-1.2-0.7-2-1.8-2
			c-0.8,0-1.4,0.4-1.8,1.1v5h-1V878.2z"/>
	</g>
	<path class="st5" d="M1088,806h1v44h-1V806z"/>
	<circle class="st5" cx="1088.5" cy="805.5" r="3.5"/>
	<g class="st2">
		<path class="st5" d="M415.6,854.2h1.1v9.8h-1.1V854.2z"/>
		<path class="st5" d="M418.9,857.2h1v1.1c0.5-0.8,1.3-1.2,2.2-1.2c1.5,0,2.5,1,2.5,2.5v4.4h-1v-4.1c0-1.2-0.7-2-1.8-2
			c-0.8,0-1.4,0.4-1.8,1.1v5h-1V857.2z"/>
		<path class="st5" d="M426.3,862c0-1.2,1-2,2.6-2c0.8,0,1.5,0.2,2.1,0.5v-0.9c0-1.1-0.6-1.7-1.8-1.7c-0.6,0-1.3,0.2-2.1,0.6
			l-0.4-0.8c0.9-0.4,1.8-0.7,2.6-0.7c1.7,0,2.6,0.9,2.6,2.4v4.5h-1v-0.8c-0.6,0.6-1.3,0.9-2.2,0.9
			C427.3,864.1,426.3,863.3,426.3,862z M429,863.3c0.8,0,1.4-0.3,2-0.8v-1.3c-0.6-0.3-1.2-0.5-1.9-0.5c-1.1,0-1.7,0.5-1.7,1.3
			C427.3,862.8,428,863.3,429,863.3z"/>
		<path class="st5" d="M439,862.4l0.6,0.6c-0.7,0.7-1.6,1.1-2.6,1.1c-1.9,0-3.4-1.6-3.4-3.5c0-2,1.5-3.5,3.4-3.5c1,0,2,0.4,2.6,1.1
			l-0.7,0.7c-0.5-0.5-1.2-0.9-1.9-0.9c-1.3,0-2.4,1.1-2.4,2.6c0,1.5,1.1,2.6,2.4,2.6C437.9,863.2,438.6,862.9,439,862.4z"/>
		<path class="st5" d="M442.1,858h-1.4v-0.8h1.4v-1.9l1-0.2v2.1h2v0.8h-2v4.2c0,0.7,0.3,1,1,1c0.4,0,0.6,0,1-0.2v0.9
			c-0.4,0.1-0.8,0.2-1.2,0.2c-1.2,0-1.8-0.6-1.8-1.7V858z"/>
		<path class="st5" d="M446.3,854.7c0-0.4,0.3-0.7,0.7-0.7c0.4,0,0.7,0.3,0.7,0.7c0,0.4-0.3,0.7-0.7,0.7
			C446.7,855.5,446.3,855.2,446.3,854.7z M447.6,864h-1v-6.8h1V864z"/>
		<path class="st5" d="M448.9,857.2h1.1l2.2,5.6l2.2-5.6h1.1l-2.8,6.8h-1L448.9,857.2z"/>
		<path class="st5" d="M459.6,864.1c-1.9,0-3.4-1.5-3.4-3.5s1.4-3.5,3.2-3.5c1.8,0,3.1,1.5,3.1,3.4v0.3h-5.4
			c0.1,1.4,1.1,2.4,2.4,2.4c0.7,0,1.4-0.3,1.9-0.7l0.6,0.7C461.4,863.8,460.5,864.1,459.6,864.1z M457.2,860.1h4.3
			c-0.2-1.2-1-2.1-2.1-2.1C458.3,857.9,457.4,858.8,457.2,860.1z"/>
		<path class="st5" d="M470.6,857.1c1.9,0,3.3,1.5,3.3,3.5c0,2-1.4,3.6-3.3,3.6c-1.9,0-3.3-1.5-3.3-3.6
			C467.3,858.6,468.7,857.1,470.6,857.1z M472.9,860.6c0-1.5-1-2.6-2.3-2.6c-1.3,0-2.3,1.1-2.3,2.6c0,1.5,1,2.6,2.3,2.6
			C471.9,863.2,472.9,862.1,472.9,860.6z"/>
		<path class="st5" d="M474.6,857.2h1.1l2.2,5.6l2.2-5.6h1.1l-2.8,6.8h-1L474.6,857.2z"/>
		<path class="st5" d="M485.4,864.1c-1.9,0-3.4-1.5-3.4-3.5s1.4-3.5,3.2-3.5c1.8,0,3.1,1.5,3.1,3.4v0.3H483c0.1,1.4,1.1,2.4,2.4,2.4
			c0.7,0,1.4-0.3,1.9-0.7l0.6,0.7C487.1,863.8,486.3,864.1,485.4,864.1z M483,860.1h4.3c-0.2-1.2-1-2.1-2.1-2.1
			C484.1,857.9,483.2,858.8,483,860.1z"/>
		<path class="st5" d="M490.1,857.2h1v1.4c0.3-1,1-1.5,1.9-1.5c0.2,0,0.4,0,0.6,0.1v0.9c-0.2-0.1-0.5-0.1-0.7-0.1
			c-0.8,0-1.5,0.5-1.8,1.4v4.7h-1V857.2z"/>
		<path class="st5" d="M495.9,857.2v-1.5c0-1.3,0.7-2.1,2-2.1c0.4,0,0.7,0,0.9,0.1v0.9c-0.3-0.1-0.5-0.1-0.8-0.1
			c-0.8,0-1.1,0.4-1.1,1.2v1.5h1.9v0.8h-1.9v6h-1v-6h-1.5v-0.8H495.9z"/>
		<path class="st5" d="M501.2,864h-1v-10l1-0.2V864z"/>
		<path class="st5" d="M506.4,857.1c1.9,0,3.3,1.5,3.3,3.5c0,2-1.4,3.6-3.3,3.6c-1.9,0-3.3-1.5-3.3-3.6
			C503,858.6,504.5,857.1,506.4,857.1z M508.7,860.6c0-1.5-1-2.6-2.3-2.6c-1.3,0-2.3,1.1-2.3,2.6c0,1.5,1,2.6,2.3,2.6
			C507.7,863.2,508.7,862.1,508.7,860.6z"/>
		<path class="st5" d="M512.6,864l-1.9-6.8h1l1.4,5.5l1.6-5.5h0.9l1.6,5.5l1.4-5.5h1l-1.9,6.8h-1l-1.6-5.5l-1.6,5.5H512.6z"/>
	</g>
	<g class="st2">
		<path class="st5" d="M429.3,883.4c0.8,0.6,1.5,0.9,2.2,0.9c1,0,1.7-0.5,1.7-1.2c0-0.6-0.4-0.9-1.2-1l-1.1-0.2
			c-1.3-0.2-1.9-0.8-1.9-1.8c0-1.2,1-2,2.5-2c0.9,0,1.7,0.3,2.6,0.9l-0.5,0.7c-0.7-0.5-1.4-0.7-2.1-0.7c-0.9,0-1.5,0.4-1.5,1.1
			c0,0.6,0.3,0.8,1.2,1l1.1,0.2c1.4,0.3,2,0.8,2,1.8c0,1.2-1.1,2.1-2.7,2.1c-1.1,0-2.1-0.4-2.8-1L429.3,883.4z"/>
		<path class="st5" d="M440.8,883.4l0.6,0.6c-0.7,0.7-1.6,1.1-2.6,1.1c-1.9,0-3.4-1.6-3.4-3.5c0-2,1.5-3.5,3.4-3.5
			c1,0,2,0.4,2.6,1.1l-0.7,0.7c-0.5-0.5-1.2-0.9-1.9-0.9c-1.3,0-2.4,1.1-2.4,2.6c0,1.5,1.1,2.6,2.4,2.6
			C439.7,884.2,440.3,883.9,440.8,883.4z"/>
		<path class="st5" d="M442.9,878.2h1v1.4c0.3-1,1-1.5,1.9-1.5c0.2,0,0.4,0,0.6,0.1v0.9c-0.2-0.1-0.5-0.1-0.7-0.1
			c-0.8,0-1.5,0.5-1.8,1.4v4.7h-1V878.2z"/>
		<path class="st5" d="M450.4,878.1c1.9,0,3.3,1.5,3.3,3.5c0,2-1.4,3.6-3.3,3.6c-1.9,0-3.3-1.5-3.3-3.6
			C447.1,879.6,448.5,878.1,450.4,878.1z M452.8,881.6c0-1.5-1-2.6-2.3-2.6c-1.3,0-2.3,1.1-2.3,2.6c0,1.5,1,2.6,2.3,2.6
			C451.8,884.2,452.8,883.1,452.8,881.6z"/>
		<path class="st5" d="M456.6,885h-1v-10l1-0.2V885z"/>
		<path class="st5" d="M459.7,885h-1v-10l1-0.2V885z"/>
		<path class="st5" d="M468.2,885.1c-0.9,0-1.6-0.3-2.2-1v0.9h-1v-10l1-0.2v4.3c0.5-0.6,1.3-1,2.2-1c1.8,0,3.2,1.5,3.2,3.5
			C471.4,883.6,470,885.1,468.2,885.1z M466.1,879.9v3.3c0.4,0.6,1.2,1,1.9,1c1.4,0,2.4-1.1,2.4-2.6c0-1.5-1-2.6-2.4-2.6
			C467.2,879,466.5,879.3,466.1,879.9z"/>
		<path class="st5" d="M474.2,882.3c0,1.2,0.7,2,1.8,2c0.8,0,1.4-0.4,1.8-1v-5.1h1v6.8h-1v-1.1c-0.5,0.8-1.2,1.2-2.2,1.2
			c-1.5,0-2.5-1-2.5-2.5v-4.4h1V882.3z"/>
		<path class="st5" d="M481.8,879h-1.4v-0.8h1.4v-1.9l1-0.2v2.1h2v0.8h-2v4.2c0,0.7,0.3,1,1,1c0.4,0,0.6,0,1-0.2v0.9
			c-0.4,0.1-0.8,0.2-1.2,0.2c-1.2,0-1.8-0.6-1.8-1.7V879z"/>
		<path class="st5" d="M487.2,879h-1.4v-0.8h1.4v-1.9l1-0.2v2.1h2v0.8h-2v4.2c0,0.7,0.3,1,1,1c0.4,0,0.6,0,1-0.2v0.9
			c-0.4,0.1-0.8,0.2-1.2,0.2c-1.2,0-1.8-0.6-1.8-1.7V879z"/>
		<path class="st5" d="M494.5,878.1c1.9,0,3.3,1.5,3.3,3.5c0,2-1.4,3.6-3.3,3.6c-1.9,0-3.3-1.5-3.3-3.6
			C491.2,879.6,492.6,878.1,494.5,878.1z M496.8,881.6c0-1.5-1-2.6-2.3-2.6c-1.3,0-2.3,1.1-2.3,2.6c0,1.5,1,2.6,2.3,2.6
			C495.8,884.2,496.8,883.1,496.8,881.6z"/>
		<path class="st5" d="M499.6,878.2h1v1.1c0.5-0.8,1.3-1.2,2.2-1.2c1.5,0,2.5,1,2.5,2.5v4.4h-1v-4.1c0-1.2-0.7-2-1.8-2
			c-0.8,0-1.4,0.4-1.8,1.1v5h-1V878.2z"/>
	</g>
	<path class="st5" d="M467,806h1v44h-1V806z"/>
	<circle class="st5" cx="467.5" cy="805.5" r="3.5"/>
	<g>
		<path class="st0" d="M424,678h872v1H424V678z"/>
		<g class="st2">
			<path class="st3" d="M1090.2,654.4c1.3,1.3,2.4,1.7,3.9,1.7c1.7,0,3-1,3-2.3c0-1.1-0.7-1.6-2.5-2l-1.8-0.3c-2-0.4-3-1.2-3-2.7
				c0-1.9,1.6-3.2,3.8-3.2c1.7,0,3,0.4,4.4,1.4l-0.6,1c-1.2-0.9-2.5-1.3-3.8-1.3c-1.6,0-2.7,0.9-2.7,2c0,1,0.6,1.5,2.1,1.7l1.8,0.3
				c2.4,0.4,3.4,1.3,3.4,3c0,1.9-1.8,3.4-4.3,3.4c-1.8,0-3.2-0.6-4.6-1.9L1090.2,654.4z"/>
			<path class="st3" d="M1103.8,657.1c-2.2,0-3.9-1.8-3.9-4s1.6-4,3.7-4c2,0,3.6,1.7,3.6,3.9v0.4h-6.1c0.1,1.6,1.3,2.8,2.8,2.8
				c0.8,0,1.6-0.3,2.1-0.8l0.7,0.8C1105.9,656.8,1104.9,657.1,1103.8,657.1z M1101.1,652.5h4.9c-0.2-1.4-1.2-2.4-2.4-2.4
				C1102.3,650.1,1101.4,651.1,1101.1,652.5z"/>
			<path class="st3" d="M1115,655.2l0.7,0.7c-0.8,0.8-1.8,1.3-3,1.3c-2.2,0-3.9-1.8-3.9-4c0-2.3,1.7-4,3.9-4c1.2,0,2.2,0.4,3,1.2
				l-0.8,0.8c-0.6-0.6-1.4-1-2.2-1c-1.5,0-2.7,1.3-2.7,3c0,1.7,1.2,3,2.8,3C1113.7,656.1,1114.5,655.8,1115,655.2z"/>
			<path class="st3" d="M1118.5,650.1h-1.6v-1h1.6V647l1.2-0.3v2.4h2.2v1h-2.2v4.8c0,0.8,0.3,1.2,1.1,1.2c0.4,0,0.7,0,1.1-0.2v1
				c-0.4,0.1-0.9,0.2-1.4,0.2c-1.3,0-2-0.7-2-1.9V650.1z"/>
			<path class="st3" d="M1123.4,646.4c0-0.4,0.4-0.8,0.8-0.8c0.4,0,0.8,0.4,0.8,0.8c0,0.5-0.4,0.8-0.8,0.8
				C1123.7,647.3,1123.4,646.9,1123.4,646.4z M1124.8,657h-1.2v-7.8h1.2V657z"/>
			<path class="st3" d="M1130.6,649.1c2.2,0,3.8,1.7,3.8,4c0,2.3-1.6,4.1-3.8,4.1c-2.1,0-3.8-1.8-3.8-4.1
				C1126.8,650.8,1128.5,649.1,1130.6,649.1z M1133.3,653.1c0-1.7-1.1-3-2.7-3s-2.6,1.3-2.6,3c0,1.7,1.1,3,2.6,3
				S1133.3,654.8,1133.3,653.1z"/>
			<path class="st3" d="M1136.5,649.2h1.2v1.3c0.6-0.9,1.4-1.4,2.5-1.4c1.7,0,2.8,1.2,2.8,2.9v5.1h-1.2v-4.7c0-1.4-0.8-2.2-2.1-2.2
				c-0.9,0-1.6,0.4-2,1.2v5.8h-1.2V649.2z"/>
			<path class="st3" d="M1149.2,645.8h6.4v1h-5.4l-0.2,3.9c0.8-0.4,1.6-0.6,2.5-0.6c2.2,0,3.7,1.4,3.7,3.4c0,2.2-1.6,3.7-3.9,3.7
				c-1.5,0-2.8-0.5-3.8-1.5l0.7-0.8c1,0.9,1.9,1.3,3.1,1.3c1.6,0,2.8-1.1,2.8-2.7c0-1.5-1.1-2.5-2.8-2.5c-0.8,0-1.6,0.2-2.5,0.6
				l-0.8-0.3L1149.2,645.8z"/>
		</g>
		<g class="st2">
			<path class="st3" d="M957.2,654.4c1.3,1.3,2.4,1.7,3.9,1.7c1.7,0,3-1,3-2.3c0-1.1-0.7-1.6-2.5-2l-1.8-0.3c-2-0.4-3-1.2-3-2.7
				c0-1.9,1.6-3.2,3.8-3.2c1.7,0,3,0.4,4.4,1.4l-0.6,1c-1.2-0.9-2.5-1.3-3.8-1.3c-1.6,0-2.7,0.9-2.7,2c0,1,0.6,1.5,2.1,1.7l1.8,0.3
				c2.4,0.4,3.4,1.3,3.4,3c0,1.9-1.8,3.4-4.3,3.4c-1.8,0-3.2-0.6-4.6-1.9L957.2,654.4z"/>
			<path class="st3" d="M970.8,657.1c-2.2,0-3.9-1.8-3.9-4s1.6-4,3.7-4c2,0,3.6,1.7,3.6,3.9v0.4h-6.1c0.1,1.6,1.3,2.8,2.8,2.8
				c0.8,0,1.6-0.3,2.1-0.8l0.7,0.8C972.9,656.8,971.9,657.1,970.8,657.1z M968.1,652.5h4.9c-0.2-1.4-1.2-2.4-2.4-2.4
				C969.3,650.1,968.4,651.1,968.1,652.5z"/>
			<path class="st3" d="M982,655.2l0.7,0.7c-0.8,0.8-1.8,1.3-3,1.3c-2.2,0-3.9-1.8-3.9-4c0-2.3,1.7-4,3.9-4c1.2,0,2.2,0.4,3,1.2
				l-0.8,0.8c-0.6-0.6-1.4-1-2.2-1c-1.5,0-2.7,1.3-2.7,3c0,1.7,1.2,3,2.8,3C980.7,656.1,981.5,655.8,982,655.2z"/>
			<path class="st3" d="M985.5,650.1h-1.6v-1h1.6V647l1.2-0.3v2.4h2.2v1h-2.2v4.8c0,0.8,0.3,1.2,1.1,1.2c0.4,0,0.7,0,1.1-0.2v1
				c-0.4,0.1-0.9,0.2-1.4,0.2c-1.3,0-2-0.7-2-1.9V650.1z"/>
			<path class="st3" d="M990.4,646.4c0-0.4,0.4-0.8,0.8-0.8c0.4,0,0.8,0.4,0.8,0.8c0,0.5-0.4,0.8-0.8,0.8
				C990.7,647.3,990.4,646.9,990.4,646.4z M991.8,657h-1.2v-7.8h1.2V657z"/>
			<path class="st3" d="M997.6,649.1c2.2,0,3.8,1.7,3.8,4c0,2.3-1.6,4.1-3.8,4.1c-2.1,0-3.8-1.8-3.8-4.1
				C993.8,650.8,995.5,649.1,997.6,649.1z M1000.3,653.1c0-1.7-1.1-3-2.7-3s-2.6,1.3-2.6,3c0,1.7,1.1,3,2.6,3
				S1000.3,654.8,1000.3,653.1z"/>
			<path class="st3" d="M1003.5,649.2h1.2v1.3c0.6-0.9,1.4-1.4,2.5-1.4c1.7,0,2.8,1.2,2.8,2.9v5.1h-1.2v-4.7c0-1.4-0.8-2.2-2.1-2.2
				c-0.9,0-1.6,0.4-2,1.2v5.8h-1.2V649.2z"/>
			<path class="st3" d="M1022.6,653h1.6v1h-1.6v3h-1.1v-3h-6.1v-0.9l6-7.3h1.2V653z M1021.5,653v-5.8l-4.7,5.8H1021.5z"/>
		</g>
		<path class="st3" d="M792,676h132v3H792V676z"/>
		<g class="st2">
			<path class="st3" d="M825.2,654.4c1.3,1.3,2.4,1.7,3.9,1.7c1.7,0,3-1,3-2.3c0-1.1-0.7-1.6-2.5-2l-1.8-0.3c-2-0.4-3-1.2-3-2.7
				c0-1.9,1.6-3.2,3.8-3.2c1.7,0,3,0.4,4.4,1.4l-0.6,1c-1.2-0.9-2.5-1.3-3.8-1.3c-1.6,0-2.7,0.9-2.7,2c0,1,0.6,1.5,2.1,1.7l1.8,0.3
				c2.4,0.4,3.4,1.3,3.4,3c0,1.9-1.8,3.4-4.3,3.4c-1.8,0-3.2-0.6-4.6-1.9L825.2,654.4z"/>
			<path class="st3" d="M838.8,657.1c-2.2,0-3.9-1.8-3.9-4s1.6-4,3.7-4c2,0,3.6,1.7,3.6,3.9v0.4h-6.1c0.1,1.6,1.3,2.8,2.8,2.8
				c0.8,0,1.6-0.3,2.1-0.8l0.7,0.8C840.9,656.8,839.9,657.1,838.8,657.1z M836.1,652.5h4.9c-0.2-1.4-1.2-2.4-2.4-2.4
				C837.3,650.1,836.4,651.1,836.1,652.5z"/>
			<path class="st3" d="M850,655.2l0.7,0.7c-0.8,0.8-1.8,1.3-3,1.3c-2.2,0-3.9-1.8-3.9-4c0-2.3,1.7-4,3.9-4c1.2,0,2.2,0.4,3,1.2
				l-0.8,0.8c-0.6-0.6-1.4-1-2.2-1c-1.5,0-2.7,1.3-2.7,3c0,1.7,1.2,3,2.8,3C848.7,656.1,849.5,655.8,850,655.2z"/>
			<path class="st3" d="M853.5,650.1h-1.6v-1h1.6V647l1.2-0.3v2.4h2.2v1h-2.2v4.8c0,0.8,0.3,1.2,1.1,1.2c0.4,0,0.7,0,1.1-0.2v1
				c-0.4,0.1-0.9,0.2-1.4,0.2c-1.3,0-2-0.7-2-1.9V650.1z"/>
			<path class="st3" d="M858.4,646.4c0-0.4,0.4-0.8,0.8-0.8c0.4,0,0.8,0.4,0.8,0.8c0,0.5-0.4,0.8-0.8,0.8
				C858.7,647.3,858.4,646.9,858.4,646.4z M859.8,657h-1.2v-7.8h1.2V657z"/>
			<path class="st3" d="M865.6,649.1c2.2,0,3.8,1.7,3.8,4c0,2.3-1.6,4.1-3.8,4.1c-2.1,0-3.8-1.8-3.8-4.1
				C861.8,650.8,863.5,649.1,865.6,649.1z M868.3,653.1c0-1.7-1.1-3-2.7-3s-2.6,1.3-2.6,3c0,1.7,1.1,3,2.6,3
				S868.3,654.8,868.3,653.1z"/>
			<path class="st3" d="M871.5,649.2h1.2v1.3c0.6-0.9,1.4-1.4,2.5-1.4c1.7,0,2.8,1.2,2.8,2.9v5.1h-1.2v-4.7c0-1.4-0.8-2.2-2.1-2.2
				c-0.9,0-1.6,0.4-2,1.2v5.8h-1.2V649.2z"/>
			<path class="st3" d="M887.3,657.2c-1.5,0-2.9-0.5-3.9-1.6l0.8-0.8c0.9,0.9,1.9,1.3,3.1,1.3c1.6,0,2.8-0.9,2.8-2.3
				c0-1.2-1-2.1-2.4-2.1h-1.3v-1h1.3c1.2,0,2-0.8,2-2c0-1.2-1.1-2.1-2.4-2.1c-1.2,0-2,0.4-2.9,1.4l-0.8-0.8c1-1.1,2.3-1.6,3.7-1.6
				c2,0,3.6,1.3,3.6,3.1c0,1.2-0.8,2.2-2.1,2.5c1.5,0.3,2.5,1.4,2.5,2.7C891.2,655.8,889.6,657.2,887.3,657.2z"/>
		</g>
		<g class="st2">
			<path class="st3" d="M693.2,654.4c1.3,1.3,2.4,1.7,3.9,1.7c1.7,0,3-1,3-2.3c0-1.1-0.7-1.6-2.5-2l-1.8-0.3c-2-0.4-3-1.2-3-2.7
				c0-1.9,1.6-3.2,3.8-3.2c1.7,0,3,0.4,4.4,1.4l-0.6,1c-1.2-0.9-2.5-1.3-3.8-1.3c-1.6,0-2.7,0.9-2.7,2c0,1,0.6,1.5,2.1,1.7l1.8,0.3
				c2.4,0.4,3.4,1.3,3.4,3c0,1.9-1.8,3.4-4.3,3.4c-1.8,0-3.2-0.6-4.6-1.9L693.2,654.4z"/>
			<path class="st3" d="M706.8,657.1c-2.2,0-3.9-1.8-3.9-4s1.6-4,3.7-4c2,0,3.6,1.7,3.6,3.9v0.4h-6.1c0.1,1.6,1.3,2.8,2.8,2.8
				c0.8,0,1.6-0.3,2.1-0.8l0.7,0.8C708.9,656.8,707.9,657.1,706.8,657.1z M704.1,652.5h4.9c-0.2-1.4-1.2-2.4-2.4-2.4
				C705.3,650.1,704.4,651.1,704.1,652.5z"/>
			<path class="st3" d="M718,655.2l0.7,0.7c-0.8,0.8-1.8,1.3-3,1.3c-2.2,0-3.9-1.8-3.9-4c0-2.3,1.7-4,3.9-4c1.2,0,2.2,0.4,3,1.2
				l-0.8,0.8c-0.6-0.6-1.4-1-2.2-1c-1.5,0-2.7,1.3-2.7,3c0,1.7,1.2,3,2.8,3C716.7,656.1,717.5,655.8,718,655.2z"/>
			<path class="st3" d="M721.5,650.1h-1.6v-1h1.6V647l1.2-0.3v2.4h2.2v1h-2.2v4.8c0,0.8,0.3,1.2,1.1,1.2c0.4,0,0.7,0,1.1-0.2v1
				c-0.4,0.1-0.9,0.2-1.4,0.2c-1.3,0-2-0.7-2-1.9V650.1z"/>
			<path class="st3" d="M726.4,646.4c0-0.4,0.4-0.8,0.8-0.8c0.4,0,0.8,0.4,0.8,0.8c0,0.5-0.4,0.8-0.8,0.8
				C726.7,647.3,726.4,646.9,726.4,646.4z M727.8,657h-1.2v-7.8h1.2V657z"/>
			<path class="st3" d="M733.6,649.1c2.2,0,3.8,1.7,3.8,4c0,2.3-1.6,4.1-3.8,4.1c-2.1,0-3.8-1.8-3.8-4.1
				C729.8,650.8,731.5,649.1,733.6,649.1z M736.3,653.1c0-1.7-1.1-3-2.7-3s-2.6,1.3-2.6,3c0,1.7,1.1,3,2.6,3
				S736.3,654.8,736.3,653.1z"/>
			<path class="st3" d="M739.5,649.2h1.2v1.3c0.6-0.9,1.4-1.4,2.5-1.4c1.7,0,2.8,1.2,2.8,2.9v5.1h-1.2v-4.7c0-1.4-0.8-2.2-2.1-2.2
				c-0.9,0-1.6,0.4-2,1.2v5.8h-1.2V649.2z"/>
			<path class="st3" d="M751.6,656.2l4.5-4.9c1-1.2,1.4-1.8,1.4-2.6c0-1.1-1-2-2.4-2c-1.1,0-1.9,0.4-3,1.4l-0.7-0.8
				c1.2-1.1,2.3-1.6,3.6-1.6c2,0,3.5,1.2,3.5,2.9c0,1.1-0.4,1.8-1.7,3.3l-3.8,4.1l5.8,0v1h-7.2V656.2z"/>
		</g>
		<g class="st2">
			<path class="st3" d="M565.2,654.4c1.3,1.3,2.4,1.7,3.9,1.7c1.7,0,3-1,3-2.3c0-1.1-0.7-1.6-2.5-2l-1.8-0.3c-2-0.4-3-1.2-3-2.7
				c0-1.9,1.6-3.2,3.8-3.2c1.7,0,3,0.4,4.4,1.4l-0.6,1c-1.2-0.9-2.5-1.3-3.8-1.3c-1.6,0-2.7,0.9-2.7,2c0,1,0.6,1.5,2.1,1.7l1.8,0.3
				c2.4,0.4,3.4,1.3,3.4,3c0,1.9-1.8,3.4-4.3,3.4c-1.8,0-3.2-0.6-4.6-1.9L565.2,654.4z"/>
			<path class="st3" d="M578.8,657.1c-2.2,0-3.9-1.8-3.9-4s1.6-4,3.7-4c2,0,3.6,1.7,3.6,3.9v0.4h-6.1c0.1,1.6,1.3,2.8,2.8,2.8
				c0.8,0,1.6-0.3,2.1-0.8l0.7,0.8C580.9,656.8,579.9,657.1,578.8,657.1z M576.1,652.5h4.9c-0.2-1.4-1.2-2.4-2.4-2.4
				C577.3,650.1,576.4,651.1,576.1,652.5z"/>
			<path class="st3" d="M590,655.2l0.7,0.7c-0.8,0.8-1.8,1.3-3,1.3c-2.2,0-3.9-1.8-3.9-4c0-2.3,1.7-4,3.9-4c1.2,0,2.2,0.4,3,1.2
				l-0.8,0.8c-0.6-0.6-1.4-1-2.2-1c-1.5,0-2.7,1.3-2.7,3c0,1.7,1.2,3,2.8,3C588.7,656.1,589.5,655.8,590,655.2z"/>
			<path class="st3" d="M593.5,650.1h-1.6v-1h1.6V647l1.2-0.3v2.4h2.2v1h-2.2v4.8c0,0.8,0.3,1.2,1.1,1.2c0.4,0,0.7,0,1.1-0.2v1
				c-0.4,0.1-0.9,0.2-1.4,0.2c-1.3,0-2-0.7-2-1.9V650.1z"/>
			<path class="st3" d="M598.4,646.4c0-0.4,0.4-0.8,0.8-0.8c0.4,0,0.8,0.4,0.8,0.8c0,0.5-0.4,0.8-0.8,0.8
				C598.7,647.3,598.4,646.9,598.4,646.4z M599.8,657h-1.2v-7.8h1.2V657z"/>
			<path class="st3" d="M605.6,649.1c2.2,0,3.8,1.7,3.8,4c0,2.3-1.6,4.1-3.8,4.1c-2.1,0-3.8-1.8-3.8-4.1
				C601.8,650.8,603.5,649.1,605.6,649.1z M608.3,653.1c0-1.7-1.1-3-2.7-3s-2.6,1.3-2.6,3c0,1.7,1.1,3,2.6,3
				S608.3,654.8,608.3,653.1z"/>
			<path class="st3" d="M611.5,649.2h1.2v1.3c0.6-0.9,1.4-1.4,2.5-1.4c1.7,0,2.8,1.2,2.8,2.9v5.1h-1.2v-4.7c0-1.4-0.8-2.2-2.1-2.2
				c-0.9,0-1.6,0.4-2,1.2v5.8h-1.2V649.2z"/>
			<path class="st3" d="M626.4,657h-1.2v-10l-1.8,0.8v-1.1l2.2-1h0.7V657z"/>
		</g>
	</g>
	<g class="st2">
		<path class="st5" d="M1208,699.2h1.3l3.8,9.8h-1.2l-1.2-3.1h-4.4l-1.2,3.1h-1.1L1208,699.2z M1210.5,705.1l-1.9-4.9l-1.8,4.9
			H1210.5z"/>
		<path class="st5" d="M1214.3,702.2h1v1.1c0.5-0.8,1.3-1.2,2.2-1.2c1.5,0,2.5,1,2.5,2.5v4.4h-1v-4.1c0-1.2-0.7-2-1.8-2
			c-0.8,0-1.4,0.4-1.8,1.1v5h-1V702.2z"/>
		<path class="st5" d="M1227,707.4l0.6,0.6c-0.7,0.7-1.6,1.1-2.6,1.1c-1.9,0-3.4-1.6-3.4-3.5c0-2,1.5-3.5,3.4-3.5c1,0,2,0.4,2.6,1.1
			l-0.7,0.7c-0.5-0.5-1.2-0.9-1.9-0.9c-1.3,0-2.4,1.1-2.4,2.6c0,1.5,1.1,2.6,2.4,2.6C1225.9,708.2,1226.6,707.9,1227,707.4z"/>
		<path class="st5" d="M1229.1,699l1-0.2v4.5c0.5-0.8,1.3-1.2,2.2-1.2c1.5,0,2.5,1,2.5,2.5v4.4h-1v-4.1c0-1.2-0.7-2-1.8-2
			c-0.8,0-1.4,0.4-1.8,1.1v5h-1V699z"/>
		<path class="st5" d="M1239.9,702.1c1.9,0,3.3,1.5,3.3,3.5c0,2-1.4,3.6-3.3,3.6c-1.9,0-3.3-1.5-3.3-3.6
			C1236.6,703.6,1238,702.1,1239.9,702.1z M1242.2,705.6c0-1.5-1-2.6-2.3-2.6c-1.3,0-2.3,1.1-2.3,2.6c0,1.5,1,2.6,2.3,2.6
			C1241.2,708.2,1242.2,707.1,1242.2,705.6z"/>
		<path class="st5" d="M1245,702.2h1v1.4c0.3-1,1-1.5,1.9-1.5c0.2,0,0.4,0,0.6,0.1v0.9c-0.2-0.1-0.5-0.1-0.7-0.1
			c-0.8,0-1.5,0.5-1.8,1.4v4.7h-1V702.2z"/>
	</g>
	<circle class="st5" cx="1226.5" cy="678.5" r="3.5"/>
	<g class="st2">
		<path class="st5" d="M831,699.2h1.3l3.8,9.8H835l-1.2-3.1h-4.4l-1.2,3.1h-1.1L831,699.2z M833.5,705.1l-1.9-4.9l-1.8,4.9H833.5z"
			/>
		<path class="st5" d="M842,707.4l0.6,0.6c-0.7,0.7-1.6,1.1-2.6,1.1c-1.9,0-3.4-1.6-3.4-3.5c0-2,1.5-3.5,3.4-3.5c1,0,2,0.4,2.6,1.1
			l-0.7,0.7c-0.5-0.5-1.2-0.9-1.9-0.9c-1.3,0-2.4,1.1-2.4,2.6c0,1.5,1.1,2.6,2.4,2.6C840.9,708.2,841.5,707.9,842,707.4z"/>
		<path class="st5" d="M845.1,703h-1.4v-0.8h1.4v-1.9l1-0.2v2.1h2v0.8h-2v4.2c0,0.7,0.3,1,1,1c0.4,0,0.6,0,1-0.2v0.9
			c-0.4,0.1-0.8,0.2-1.2,0.2c-1.2,0-1.8-0.6-1.8-1.7V703z"/>
		<path class="st5" d="M849.3,699.7c0-0.4,0.3-0.7,0.7-0.7c0.4,0,0.7,0.3,0.7,0.7c0,0.4-0.3,0.7-0.7,0.7
			C849.7,700.5,849.3,700.2,849.3,699.7z M850.6,709h-1v-6.8h1V709z"/>
		<path class="st5" d="M851.8,702.2h1.1l2.2,5.6l2.2-5.6h1.1l-2.8,6.8h-1L851.8,702.2z"/>
		<path class="st5" d="M862.6,709.1c-1.9,0-3.4-1.5-3.4-3.5s1.4-3.5,3.2-3.5c1.8,0,3.1,1.5,3.1,3.4v0.3h-5.4
			c0.1,1.4,1.1,2.4,2.4,2.4c0.7,0,1.4-0.3,1.9-0.7l0.6,0.7C864.3,708.8,863.5,709.1,862.6,709.1z M860.2,705.1h4.3
			c-0.2-1.2-1-2.1-2.1-2.1C861.2,702.9,860.4,703.8,860.2,705.1z"/>
		<path class="st5" d="M871.4,703h-1.4v-0.8h1.4v-1.9l1-0.2v2.1h2v0.8h-2v4.2c0,0.7,0.3,1,1,1c0.4,0,0.6,0,1-0.2v0.9
			c-0.4,0.1-0.8,0.2-1.2,0.2c-1.2,0-1.8-0.6-1.8-1.7V703z"/>
		<path class="st5" d="M875.5,707c0-1.2,1-2,2.6-2c0.8,0,1.5,0.2,2.1,0.5v-0.9c0-1.1-0.6-1.7-1.8-1.7c-0.6,0-1.3,0.2-2.1,0.6
			l-0.4-0.8c0.9-0.4,1.8-0.7,2.6-0.7c1.7,0,2.6,0.9,2.6,2.4v4.5h-1v-0.8c-0.6,0.6-1.3,0.9-2.2,0.9
			C876.5,709.1,875.5,708.3,875.5,707z M878.2,708.3c0.8,0,1.4-0.3,2-0.8v-1.3c-0.6-0.3-1.2-0.5-1.9-0.5c-1.1,0-1.7,0.5-1.7,1.3
			C876.4,707.8,877.1,708.3,878.2,708.3z"/>
		<path class="st5" d="M886.4,709.1c-0.9,0-1.6-0.3-2.2-1v0.9h-1v-10l1-0.2v4.3c0.5-0.6,1.3-1,2.2-1c1.8,0,3.2,1.5,3.2,3.5
			C889.6,707.6,888.2,709.1,886.4,709.1z M884.2,703.9v3.3c0.4,0.6,1.2,1,1.9,1c1.4,0,2.4-1.1,2.4-2.6c0-1.5-1-2.6-2.4-2.6
			C885.4,703,884.7,703.3,884.2,703.9z"/>
	</g>
	<path class="st5" d="M858,652h1v43h-1V652z"/>
	<circle class="st5" cx="858.5" cy="651.5" r="3.5"/>
	<g class="st2">
		<path class="st5" d="M561.2,699.2h1.1v9.8h-1.1V699.2z"/>
		<path class="st5" d="M564.6,702.2h1v1.1c0.5-0.8,1.3-1.2,2.2-1.2c1.5,0,2.5,1,2.5,2.5v4.4h-1v-4.1c0-1.2-0.7-2-1.8-2
			c-0.8,0-1.4,0.4-1.8,1.1v5h-1V702.2z"/>
		<path class="st5" d="M571.9,707c0-1.2,1-2,2.6-2c0.8,0,1.5,0.2,2.1,0.5v-0.9c0-1.1-0.6-1.7-1.8-1.7c-0.6,0-1.3,0.2-2.1,0.6
			l-0.4-0.8c0.9-0.4,1.8-0.7,2.6-0.7c1.7,0,2.6,0.9,2.6,2.4v4.5h-1v-0.8c-0.6,0.6-1.3,0.9-2.2,0.9C573,709.1,571.9,708.3,571.9,707z
			 M574.6,708.3c0.8,0,1.4-0.3,2-0.8v-1.3c-0.6-0.3-1.2-0.5-1.9-0.5c-1.1,0-1.7,0.5-1.7,1.3C572.9,707.8,573.6,708.3,574.6,708.3z"
			/>
		<path class="st5" d="M584.7,707.4l0.6,0.6c-0.7,0.7-1.6,1.1-2.6,1.1c-1.9,0-3.4-1.6-3.4-3.5c0-2,1.5-3.5,3.4-3.5
			c1,0,2,0.4,2.6,1.1l-0.7,0.7c-0.5-0.5-1.2-0.9-1.9-0.9c-1.3,0-2.4,1.1-2.4,2.6c0,1.5,1.1,2.6,2.4,2.6
			C583.5,708.2,584.2,707.9,584.7,707.4z"/>
		<path class="st5" d="M587.7,703h-1.4v-0.8h1.4v-1.9l1-0.2v2.1h2v0.8h-2v4.2c0,0.7,0.3,1,1,1c0.4,0,0.6,0,1-0.2v0.9
			c-0.4,0.1-0.8,0.2-1.2,0.2c-1.2,0-1.8-0.6-1.8-1.7V703z"/>
		<path class="st5" d="M592,699.7c0-0.4,0.3-0.7,0.7-0.7c0.4,0,0.7,0.3,0.7,0.7c0,0.4-0.3,0.7-0.7,0.7
			C592.3,700.5,592,700.2,592,699.7z M593.2,709h-1v-6.8h1V709z"/>
		<path class="st5" d="M594.5,702.2h1.1l2.2,5.6l2.2-5.6h1.1l-2.8,6.8h-1L594.5,702.2z"/>
		<path class="st5" d="M605.2,709.1c-1.9,0-3.4-1.5-3.4-3.5s1.4-3.5,3.2-3.5c1.8,0,3.1,1.5,3.1,3.4v0.3h-5.4
			c0.1,1.4,1.1,2.4,2.4,2.4c0.7,0,1.4-0.3,1.9-0.7l0.6,0.7C607,708.8,606.2,709.1,605.2,709.1z M602.9,705.1h4.3
			c-0.2-1.2-1-2.1-2.1-2.1C603.9,702.9,603,703.8,602.9,705.1z"/>
		<path class="st5" d="M614,703h-1.4v-0.8h1.4v-1.9l1-0.2v2.1h2v0.8h-2v4.2c0,0.7,0.3,1,1,1c0.4,0,0.6,0,1-0.2v0.9
			c-0.4,0.1-0.8,0.2-1.2,0.2c-1.2,0-1.8-0.6-1.8-1.7V703z"/>
		<path class="st5" d="M618.1,707c0-1.2,1-2,2.6-2c0.8,0,1.5,0.2,2.1,0.5v-0.9c0-1.1-0.6-1.7-1.8-1.7c-0.6,0-1.3,0.2-2.1,0.6
			l-0.4-0.8c0.9-0.4,1.8-0.7,2.6-0.7c1.7,0,2.6,0.9,2.6,2.4v4.5h-1v-0.8c-0.6,0.6-1.3,0.9-2.2,0.9
			C619.2,709.1,618.1,708.3,618.1,707z M620.8,708.3c0.8,0,1.4-0.3,2-0.8v-1.3c-0.6-0.3-1.2-0.5-1.9-0.5c-1.1,0-1.7,0.5-1.7,1.3
			C619.1,707.8,619.8,708.3,620.8,708.3z"/>
		<path class="st5" d="M629,709.1c-0.9,0-1.6-0.3-2.2-1v0.9h-1v-10l1-0.2v4.3c0.5-0.6,1.3-1,2.2-1c1.8,0,3.2,1.5,3.2,3.5
			C632.2,707.6,630.8,709.1,629,709.1z M626.9,703.9v3.3c0.4,0.6,1.2,1,1.9,1c1.4,0,2.4-1.1,2.4-2.6c0-1.5-1-2.6-2.4-2.6
			C628,703,627.3,703.3,626.9,703.9z"/>
	</g>
	<path class="st5" d="M596,652h1v43h-1V652z"/>
	<circle class="st5" cx="596.5" cy="651.5" r="3.5"/>
</g>
</svg>
