<svg version="1.1" id="Layer_1" xmlns="http://www.w3.org/2000/svg" x="0" y="0" viewBox="0 0 872 38" xml:space="preserve"><style>.st1{enable-background:new}.st2{fill:#6a6e73}.st4{fill:#151515}</style><path d="M0 37h872v1H0v-1z" fill="#d2d2d2"/><g class="st1"><path class="st2" d="M629.2 13.4c1.3 1.3 2.4 1.7 3.9 1.7 1.7 0 3-1 3-2.3 0-1.1-.7-1.6-2.5-2l-1.8-.3c-2-.4-3-1.2-3-2.7 0-1.9 1.6-3.2 3.8-3.2 1.7 0 3 .4 4.4 1.4l-.6 1c-1.2-.9-2.5-1.3-3.8-1.3-1.6 0-2.7.9-2.7 2 0 1 .6 1.5 2.1 1.7l1.8.3c2.4.4 3.4 1.3 3.4 3 0 1.9-1.8 3.4-4.3 3.4-1.8 0-3.2-.6-4.6-1.9l.9-.8zM642.8 16.1c-2.2 0-3.9-1.8-3.9-4s1.6-4 3.7-4c2 0 3.6 1.7 3.6 3.9v.4h-6.1c.1 1.6 1.3 2.8 2.8 2.8.8 0 1.6-.3 2.1-.8l.7.8c-.8.6-1.8.9-2.9.9zm-2.7-4.6h4.9c-.2-1.4-1.2-2.4-2.4-2.4-1.3 0-2.2 1-2.5 2.4zM654 14.2l.7.7c-.8.8-1.8 1.3-3 1.3-2.2 0-3.9-1.8-3.9-4 0-2.3 1.7-4 3.9-4 1.2 0 2.2.4 3 1.2l-.8.8c-.6-.6-1.4-1-2.2-1-1.5 0-2.7 1.3-2.7 3s1.2 3 2.8 3c.9-.1 1.7-.4 2.2-1zM657.5 9.1h-1.6v-1h1.6V6l1.2-.3v2.4h2.2v1h-2.2v4.8c0 .8.3 1.2 1.1 1.2.4 0 .7 0 1.1-.2v1c-.4.1-.9.2-1.4.2-1.3 0-2-.7-2-1.9V9.1zM662.4 5.4c0-.4.4-.8.8-.8s.8.4.8.8c0 .5-.4.8-.8.8-.5.1-.8-.3-.8-.8zm1.4 10.6h-1.2V8.2h1.2V16zM669.6 8.1c2.2 0 3.8 1.7 3.8 4s-1.6 4.1-3.8 4.1c-2.1 0-3.8-1.8-3.8-4.1s1.7-4 3.8-4zm2.7 4c0-1.7-1.1-3-2.7-3s-2.6 1.3-2.6 3 1.1 3 2.6 3 2.7-1.3 2.7-3zM675.5 8.2h1.2v1.3c.6-.9 1.4-1.4 2.5-1.4 1.7 0 2.8 1.2 2.8 2.9v5h-1.2v-4.7c0-1.4-.8-2.2-2.1-2.2-.9 0-1.6.4-2 1.2V16h-1.2V8.2zM691.3 16.2c-1.5 0-2.9-.5-3.9-1.6l.8-.8c.9.9 1.9 1.3 3.1 1.3 1.6 0 2.8-.9 2.8-2.3 0-1.2-1-2.1-2.4-2.1h-1.3v-1h1.3c1.2 0 2-.8 2-2s-1.1-2.1-2.4-2.1c-1.2 0-2 .4-2.9 1.4l-.8-.8c1-1.1 2.3-1.6 3.7-1.6 2 0 3.6 1.3 3.6 3.1 0 1.2-.8 2.2-2.1 2.5 1.5.3 2.5 1.4 2.5 2.7-.1 1.9-1.7 3.3-4 3.3z"/></g><path d="M368 35h132v3H368v-3z" fill="#e00"/><g class="st1"><path class="st4" d="M401.2 13.4c1.3 1.3 2.4 1.7 3.9 1.7 1.7 0 3-1 3-2.3 0-1.1-.7-1.6-2.5-2l-1.8-.3c-2-.4-3-1.2-3-2.7 0-1.9 1.6-3.2 3.8-3.2 1.7 0 3 .4 4.4 1.4l-.6 1c-1.2-.9-2.5-1.3-3.8-1.3-1.6 0-2.7.9-2.7 2 0 1 .6 1.5 2.1 1.7l1.8.3c2.4.4 3.4 1.3 3.4 3 0 1.9-1.8 3.4-4.3 3.4-1.8 0-3.2-.6-4.6-1.9l.9-.8zM414.8 16.1c-2.2 0-3.9-1.8-3.9-4s1.6-4 3.7-4c2 0 3.6 1.7 3.6 3.9v.4h-6.1c.1 1.6 1.3 2.8 2.8 2.8.8 0 1.6-.3 2.1-.8l.7.8c-.8.6-1.8.9-2.9.9zm-2.7-4.6h4.9c-.2-1.4-1.2-2.4-2.4-2.4-1.3 0-2.2 1-2.5 2.4zM426 14.2l.7.7c-.8.8-1.8 1.3-3 1.3-2.2 0-3.9-1.8-3.9-4 0-2.3 1.7-4 3.9-4 1.2 0 2.2.4 3 1.2l-.8.8c-.6-.6-1.4-1-2.2-1-1.5 0-2.7 1.3-2.7 3s1.2 3 2.8 3c.9-.1 1.7-.4 2.2-1zM429.5 9.1h-1.6v-1h1.6V6l1.2-.3v2.4h2.2v1h-2.2v4.8c0 .8.3 1.2 1.1 1.2.4 0 .7 0 1.1-.2v1c-.4.1-.9.2-1.4.2-1.3 0-2-.7-2-1.9V9.1zM434.4 5.4c0-.4.4-.8.8-.8s.8.4.8.8c0 .5-.4.8-.8.8-.5.1-.8-.3-.8-.8zm1.4 10.6h-1.2V8.2h1.2V16zM441.6 8.1c2.2 0 3.8 1.7 3.8 4s-1.6 4.1-3.8 4.1c-2.1 0-3.8-1.8-3.8-4.1s1.7-4 3.8-4zm2.7 4c0-1.7-1.1-3-2.7-3s-2.6 1.3-2.6 3 1.1 3 2.6 3 2.7-1.3 2.7-3zM447.5 8.2h1.2v1.3c.6-.9 1.4-1.4 2.5-1.4 1.7 0 2.8 1.2 2.8 2.9v5h-1.2v-4.7c0-1.4-.8-2.2-2.1-2.2-.9 0-1.6.4-2 1.2V16h-1.2V8.2zM459.6 15.2l4.5-4.9c1-1.2 1.4-1.8 1.4-2.6 0-1.1-1-2-2.4-2-1.1 0-1.9.4-3 1.4l-.7-.8c1.2-1.1 2.3-1.6 3.6-1.6 2 0 3.5 1.2 3.5 2.9 0 1.1-.4 1.8-1.7 3.3L461 15h5.8v1h-7.2v-.8z"/></g><g class="st1"><path class="st2" d="M177.2 13.4c1.3 1.3 2.4 1.7 3.9 1.7 1.7 0 3-1 3-2.3 0-1.1-.7-1.6-2.5-2l-1.8-.3c-2-.4-3-1.2-3-2.7 0-1.9 1.6-3.2 3.8-3.2 1.7 0 3 .4 4.4 1.4l-.6 1c-1.2-.9-2.5-1.3-3.8-1.3-1.6 0-2.7.9-2.7 2 0 1 .6 1.5 2.1 1.7l1.8.3c2.4.4 3.4 1.3 3.4 3 0 1.9-1.8 3.4-4.3 3.4-1.8 0-3.2-.6-4.6-1.9l.9-.8zM190.8 16.1c-2.2 0-3.9-1.8-3.9-4s1.6-4 3.7-4c2 0 3.6 1.7 3.6 3.9v.4h-6.1c.1 1.6 1.3 2.8 2.8 2.8.8 0 1.6-.3 2.1-.8l.7.8c-.8.6-1.8.9-2.9.9zm-2.7-4.6h4.9c-.2-1.4-1.2-2.4-2.4-2.4-1.3 0-2.2 1-2.5 2.4zM202 14.2l.7.7c-.8.8-1.8 1.3-3 1.3-2.2 0-3.9-1.8-3.9-4 0-2.3 1.7-4 3.9-4 1.2 0 2.2.4 3 1.2l-.8.8c-.6-.6-1.4-1-2.2-1-1.5 0-2.7 1.3-2.7 3s1.2 3 2.8 3c.9-.1 1.7-.4 2.2-1zM205.5 9.1h-1.6v-1h1.6V6l1.2-.3v2.4h2.2v1h-2.2v4.8c0 .8.3 1.2 1.1 1.2.4 0 .7 0 1.1-.2v1c-.4.1-.9.2-1.4.2-1.3 0-2-.7-2-1.9V9.1zM210.4 5.4c0-.4.4-.8.8-.8s.8.4.8.8c0 .5-.4.8-.8.8-.5.1-.8-.3-.8-.8zm1.4 10.6h-1.2V8.2h1.2V16zM217.6 8.1c2.2 0 3.8 1.7 3.8 4s-1.6 4.1-3.8 4.1c-2.1 0-3.8-1.8-3.8-4.1s1.7-4 3.8-4zm2.7 4c0-1.7-1.1-3-2.7-3s-2.6 1.3-2.6 3 1.1 3 2.6 3 2.7-1.3 2.7-3zM223.5 8.2h1.2v1.3c.6-.9 1.4-1.4 2.5-1.4 1.7 0 2.8 1.2 2.8 2.9v5h-1.2v-4.7c0-1.4-.8-2.2-2.1-2.2-.9 0-1.6.4-2 1.2V16h-1.2V8.2zM238.4 16h-1.2V6l-1.8.8v-1l2.2-1h.7V16z"/></g></svg>