<svg xmlns="http://www.w3.org/2000/svg" width="872" height="569" viewBox="0 0 872 569"><g transform="translate(-424 -10776)"><g transform="translate(-176 8528)"><rect width="1" height="333" transform="translate(701 2484)" fill="#d2d2d2"/><g transform="translate(68 2486)"><rect width="101" height="53" transform="translate(532 246)" fill="#f5f5f5"/><text transform="translate(548 278)" fill="#6a6e73" font-size="16" font-family="RedHatText-Regular, Red Hat Text"><tspan x="0" y="0">Section 5</tspan></text></g><rect width="101" height="1" transform="translate(600 2731)" fill="#d2d2d2"/><g transform="translate(68 2432)"><rect width="101" height="53" transform="translate(532 246)" fill="#f5f5f5"/><text transform="translate(548 278)" fill="#6a6e73" font-size="16" font-family="RedHatText-Regular, Red Hat Text"><tspan x="0" y="0">Section 4</tspan></text></g><rect width="101" height="1" transform="translate(600 2677)" fill="#d2d2d2"/><g transform="translate(68 2378)"><rect width="102" height="53" transform="translate(532 246)" fill="#fff"/><text transform="translate(548 278)" fill="#151515" font-size="16" font-family="RedHatText-Regular, Red Hat Text"><tspan x="0" y="0">Section 3</tspan></text><rect width="3" height="53" transform="translate(532 246)" fill="#e00"/></g><rect width="101" height="1" transform="translate(600 2623)" fill="#d2d2d2"/><g transform="translate(68 2324)"><rect width="101" height="53" transform="translate(532 246)" fill="#f5f5f5"/><text transform="translate(548 278)" fill="#6a6e73" font-size="16" font-family="RedHatText-Regular, Red Hat Text"><tspan x="0" y="0">Section 2</tspan></text></g><rect width="101" height="1" transform="translate(600 2569)" fill="#d2d2d2"/><g transform="translate(68 2270)"><rect width="101" height="53" transform="translate(532 246)" fill="#f5f5f5"/><text transform="translate(548 278)" fill="#6a6e73" font-size="16" font-family="RedHatText-Regular, Red Hat Text"><tspan x="0" y="0">Section 1</tspan></text></g><g transform="translate(68 2270)"><g transform="translate(567 515)"><rect width="32" height="32" fill="#1893d2"/></g><g transform="translate(548 499)"><rect width="16" height="16" fill="#51a549"/></g><g transform="translate(548 478)" fill="none" stroke="#f0f" stroke-width="1" opacity="0.25"><rect width="68" height="21" stroke="none"/><rect x="0.5" y="0.5" width="67" height="20" fill="none"/></g><g transform="translate(548 462)"><rect width="16" height="16" fill="#51a549"/></g><g transform="translate(532 481)"><rect width="16" height="16" fill="#51a549"/></g><g transform="translate(548 445)"><rect width="16" height="16" fill="#51a549"/></g><g transform="translate(617 427)"><rect width="16" height="16" fill="#51a549"/></g><g transform="translate(548 424)" fill="none" stroke="#f0f" stroke-width="1" opacity="0.25"><rect width="69" height="21" stroke="none"/><rect x="0.5" y="0.5" width="68" height="20" fill="none"/></g><g transform="translate(548 408)"><rect width="16" height="16" fill="#51a549"/></g><g transform="translate(532 427)"><rect width="16" height="16" fill="#51a549"/></g><g transform="translate(548 391)"><rect width="16" height="16" fill="#51a549"/></g><g transform="translate(548 370)" fill="none" stroke="#f0f" stroke-width="1" opacity="0.25"><rect width="68" height="21" stroke="none"/><rect x="0.5" y="0.5" width="67" height="20" fill="none"/></g><g transform="translate(548 354)"><rect width="16" height="16" fill="#51a549"/></g><g transform="translate(548 337)"><rect width="16" height="16" fill="#51a549"/></g><g transform="translate(548 316)" fill="none" stroke="#f0f" stroke-width="1" opacity="0.25"><rect width="68" height="21" stroke="none"/><rect x="0.5" y="0.5" width="67" height="20" fill="none"/></g><g transform="translate(548 300)"><rect width="16" height="16" fill="#51a549"/></g><g transform="translate(532 319)"><rect width="16" height="16" fill="#51a549"/></g><g transform="translate(548 283)"><rect width="16" height="16" fill="#51a549"/></g><g transform="translate(548 262)" fill="none" stroke="#f0f" stroke-width="1" opacity="0.25"><rect width="64" height="21" stroke="none"/><rect x="0.5" y="0.5" width="63" height="20" fill="none"/></g><g transform="translate(548 246)"><rect width="16" height="16" fill="#51a549"/></g><g transform="translate(532 265)"><rect width="16" height="16" fill="#51a549"/></g><g transform="translate(567 214)"><rect width="32" height="32" fill="#1893d2"/></g></g></g><g transform="translate(64 10648)"><rect width="708" height="1" transform="translate(360 299)" fill="#d2d2d2"/><g transform="translate(413)"><rect width="123" height="53" transform="translate(532 246)" fill="#f5f5f5"/><text transform="translate(564 278)" fill="#6a6e73" font-size="16" font-family="RedHatText-Regular, Red Hat Text"><tspan x="0" y="0">Section 5</tspan></text></g><rect width="1" height="53" transform="translate(944 246)" fill="#d2d2d2"/><g transform="translate(279)"><rect width="133" height="53" transform="translate(532 246)" fill="#f5f5f5"/><text transform="translate(564 278)" fill="#6a6e73" font-size="16" font-family="RedHatText-Regular, Red Hat Text"><tspan x="0" y="0">Section 4</tspan></text></g><rect width="1" height="53" transform="translate(810 246)" fill="#d2d2d2"/><g transform="translate(146)"><rect width="132" height="54" transform="translate(532 246)" fill="#fff"/><text transform="translate(564 278)" fill="#151515" font-size="16" font-family="RedHatText-Regular, Red Hat Text"><tspan x="0" y="0">Section 3</tspan></text><rect width="132" height="3" transform="translate(532 246)" fill="#e00"/></g><rect width="1" height="53" transform="translate(677 246)" fill="#d2d2d2"/><g transform="translate(13)"><rect width="132" height="53" transform="translate(532 246)" fill="#f5f5f5"/><text transform="translate(564 278)" fill="#6a6e73" font-size="16" font-family="RedHatText-Regular, Red Hat Text"><tspan x="0" y="0">Section 2</tspan></text></g><rect width="1" height="53" transform="translate(544 246)" fill="#d2d2d2"/><g transform="translate(-116)"><rect width="128" height="53" transform="translate(532 246)" fill="#f5f5f5"/><text transform="translate(564 278)" fill="#6a6e73" font-size="16" font-family="RedHatText-Regular, Red Hat Text"><tspan x="0" y="0">Section 1</tspan></text></g><g transform="translate(652 3)"><rect width="56" height="53" transform="translate(360 243)" fill="#fff"/><path d="M12.35,9.85l-6.8,6.8a1.217,1.217,0,0,1-1.6,0l-1.2-1a1.493,1.493,0,0,1,0-1.8l4.8-4.8-4.8-4.8a1.493,1.493,0,0,1,0-1.8l1.2-1.2a1.217,1.217,0,0,1,1.6,0l6.8,6.8A1.493,1.493,0,0,1,12.35,9.85Z" transform="translate(380.55 261.05)" fill="#151515"/><rect width="1" height="53" transform="translate(360 243)" fill="#d2d2d2"/></g><rect width="56" height="53" transform="translate(360 246)" fill="#fff"/><rect width="1" height="53" transform="translate(415 246)" fill="#d2d2d2"/><path d="M2.75,9.85l6.8,6.8a1.217,1.217,0,0,0,1.6,0l1.2-1a1.493,1.493,0,0,0,0-1.8l-4.8-4.8,4.8-4.8a1.493,1.493,0,0,0,0-1.8l-1.2-1.2a1.217,1.217,0,0,0-1.6,0l-6.8,6.8A1.493,1.493,0,0,0,2.75,9.85Z" transform="translate(380.55 264.05)" fill="#d2d2d2"/><g transform="translate(1052 265)"><rect width="16" height="16" fill="#51a549"/></g><g transform="translate(1032 283)"><rect width="16" height="16" fill="#51a549"/></g><g transform="translate(1028 262)" fill="none" stroke="#f0f" stroke-width="1" opacity="0.25"><rect width="24" height="21" stroke="none"/><rect x="0.5" y="0.5" width="23" height="20" fill="none"/></g><g transform="translate(1032 246)"><rect width="16" height="16" fill="#51a549"/></g><g transform="translate(1012 265)"><rect width="16" height="16" fill="#51a549"/></g><g transform="translate(987 283)"><rect width="16" height="16" fill="#51a549"/></g><g transform="translate(977 262)" fill="none" stroke="#f0f" stroke-width="1" opacity="0.25"><rect width="35" height="21" stroke="none"/><rect x="0.5" y="0.5" width="34" height="20" fill="none"/></g><g transform="translate(987 246)"><rect width="16" height="16" fill="#51a549"/></g><g transform="translate(945 262)"><rect width="32" height="21" fill="#1893d2"/></g><g transform="translate(912 262)"><rect width="32" height="21" fill="#1893d2"/></g><g transform="translate(870 283)"><rect width="16" height="16" fill="#51a549"/></g><g transform="translate(843 262)" fill="none" stroke="#f0f" stroke-width="1" opacity="0.25"><rect width="69" height="21" stroke="none"/><rect x="0.5" y="0.5" width="68" height="20" fill="none"/></g><g transform="translate(870 246)"><rect width="16" height="16" fill="#51a549"/></g><g transform="translate(811 262)"><rect width="32" height="21" fill="#1893d2"/></g><g transform="translate(778 262)"><rect width="32" height="21" fill="#1893d2"/></g><g transform="translate(710 262)" fill="none" stroke="#f0f" stroke-width="1" opacity="0.25"><rect width="68" height="21" stroke="none"/><rect x="0.5" y="0.5" width="67" height="20" fill="none"/></g><g transform="translate(678 262)"><rect width="32" height="21" fill="#1893d2"/></g><g transform="translate(645 262)"><rect width="32" height="21" fill="#1893d2"/></g><g transform="translate(603 283)"><rect width="16" height="16" fill="#51a549"/></g><g transform="translate(577 262)" fill="none" stroke="#f0f" stroke-width="1" opacity="0.25"><rect width="68" height="21" stroke="none"/><rect x="0.5" y="0.5" width="67" height="20" fill="none"/></g><g transform="translate(603 246)"><rect width="16" height="16" fill="#51a549"/></g><g transform="translate(545 262)"><rect width="32" height="21" fill="#1893d2"/></g><g transform="translate(512 262)"><rect width="32" height="21" fill="#1893d2"/></g><g transform="translate(472 283)"><rect width="16" height="16" fill="#51a549"/></g><g transform="translate(448 262)" fill="none" stroke="#f0f" stroke-width="1" opacity="0.25"><rect width="64" height="21" stroke="none"/><rect x="0.5" y="0.5" width="63" height="20" fill="none"/></g><g transform="translate(472 246)"><rect width="16" height="16" fill="#51a549"/></g><g transform="translate(416 262)"><rect width="32" height="21" fill="#1893d2"/></g><g transform="translate(400 265)"><rect width="16" height="16" fill="#51a549"/></g><g transform="translate(380 283)"><rect width="16" height="16" fill="#51a549"/></g><g transform="translate(376 262)" fill="none" stroke="#f0f" stroke-width="1" opacity="0.25"><rect width="24" height="21" stroke="none"/><rect x="0.5" y="0.5" width="23" height="20" fill="none"/></g><g transform="translate(380 246)"><rect width="16" height="16" fill="#51a549"/></g><g transform="translate(360 265)"><rect width="16" height="16" fill="#51a549"/></g></g><g transform="translate(64 10530)"><rect width="872" height="1" transform="translate(360 299)" fill="#d2d2d2"/><g transform="translate(389)"><rect width="132" height="53" transform="translate(532 246)" fill="#f5f5f5"/><text transform="translate(564 278)" fill="#6a6e73" font-size="16" font-family="RedHatText-Regular, Red Hat Text"><tspan x="0" y="0">Section 5</tspan></text></g><rect width="1" height="53" transform="translate(920 246)" fill="#d2d2d2"/><g transform="translate(255)"><rect width="133" height="53" transform="translate(532 246)" fill="#f5f5f5"/><text transform="translate(564 278)" fill="#6a6e73" font-size="16" font-family="RedHatText-Regular, Red Hat Text"><tspan x="0" y="0">Section 4</tspan></text></g><rect width="1" height="53" transform="translate(786 246)" fill="#d2d2d2"/><g transform="translate(122)"><rect width="132" height="54" transform="translate(532 246)" fill="#fff"/><text transform="translate(564 278)" fill="#151515" font-size="16" font-family="RedHatText-Regular, Red Hat Text"><tspan x="0" y="0">Section 3</tspan></text><rect width="132" height="3" transform="translate(532 246)" fill="#e00"/></g><rect width="1" height="53" transform="translate(653 246)" fill="#d2d2d2"/><g transform="translate(-11)"><rect width="132" height="53" transform="translate(532 246)" fill="#f5f5f5"/><text transform="translate(564 278)" fill="#6a6e73" font-size="16" font-family="RedHatText-Regular, Red Hat Text"><tspan x="0" y="0">Section 2</tspan></text></g><rect width="1" height="53" transform="translate(520 246)" fill="#d2d2d2"/><g transform="translate(-140)"><rect width="128" height="53" transform="translate(532 246)" fill="#f5f5f5"/><text transform="translate(564 278)" fill="#6a6e73" font-size="16" font-family="RedHatText-Regular, Red Hat Text"><tspan x="0" y="0">Section 1</tspan></text></g><g transform="translate(1021 262)"><rect width="32" height="21" fill="#1893d2"/></g><g transform="translate(979 283)"><rect width="16" height="16" fill="#51a549"/></g><g transform="translate(953 262)" fill="none" stroke="#f0f" stroke-width="1" opacity="0.25"><rect width="68" height="21" stroke="none"/><rect x="0.5" y="0.5" width="67" height="20" fill="none"/></g><g transform="translate(979 246)"><rect width="16" height="16" fill="#51a549"/></g><g transform="translate(921 262)"><rect width="32" height="21" fill="#1893d2"/></g><g transform="translate(888 262)"><rect width="32" height="21" fill="#1893d2"/></g><g transform="translate(846 283)"><rect width="16" height="16" fill="#51a549"/></g><g transform="translate(819 262)" fill="none" stroke="#f0f" stroke-width="1" opacity="0.25"><rect width="69" height="21" stroke="none"/><rect x="0.5" y="0.5" width="68" height="20" fill="none"/></g><g transform="translate(846 246)"><rect width="16" height="16" fill="#51a549"/></g><g transform="translate(787 262)"><rect width="32" height="21" fill="#1893d2"/></g><g transform="translate(754 262)"><rect width="32" height="21" fill="#1893d2"/></g><g transform="translate(686 262)" fill="none" stroke="#f0f" stroke-width="1" opacity="0.25"><rect width="68" height="21" stroke="none"/><rect x="0.5" y="0.5" width="67" height="20" fill="none"/></g><g transform="translate(654 262)"><rect width="32" height="21" fill="#1893d2"/></g><g transform="translate(621 262)"><rect width="32" height="21" fill="#1893d2"/></g><g transform="translate(579 283)"><rect width="16" height="16" fill="#51a549"/></g><g transform="translate(553 262)" fill="none" stroke="#f0f" stroke-width="1" opacity="0.25"><rect width="68" height="21" stroke="none"/><rect x="0.5" y="0.5" width="67" height="20" fill="none"/></g><g transform="translate(579 246)"><rect width="16" height="16" fill="#51a549"/></g><g transform="translate(521 262)"><rect width="32" height="21" fill="#1893d2"/></g><g transform="translate(488 262)"><rect width="32" height="21" fill="#1893d2"/></g><g transform="translate(448 283)"><rect width="16" height="16" fill="#51a549"/></g><g transform="translate(424 262)" fill="none" stroke="#f0f" stroke-width="1" opacity="0.25"><rect width="64" height="21" stroke="none"/><rect x="0.5" y="0.5" width="63" height="20" fill="none"/></g><g transform="translate(448 246)"><rect width="16" height="16" fill="#51a549"/></g><g transform="translate(392 262)"><rect width="32" height="21" fill="#1893d2"/></g><g transform="translate(360 257)" opacity="0.5"><rect width="32" height="32" fill="#1893d2"/></g></g></g></svg>