<svg version="1.1" id="Layer_1" xmlns="http://www.w3.org/2000/svg" x="0" y="0" viewBox="0 0 872 54" xml:space="preserve"><style>.st0{fill:#d2d2d2}.st1{fill:#f5f5f5}.st2{enable-background:new}.st3{fill:#6a6e73}.st5{fill:#151515}</style><path class="st0" d="M0 53h872v1H0v-1z"/><path class="st1" d="M561 0h132v53H561V0z"/><g class="st2"><path class="st3" d="M594.2 29.4c1.3 1.3 2.4 1.7 3.9 1.7 1.7 0 3-1 3-2.3 0-1.1-.7-1.6-2.5-2l-1.8-.3c-2-.4-3-1.2-3-2.7 0-1.9 1.6-3.2 3.8-3.2 1.7 0 3 .4 4.4 1.4l-.6 1c-1.2-.9-2.5-1.3-3.8-1.3-1.6 0-2.7.9-2.7 2 0 1 .6 1.5 2.1 1.7l1.8.3c2.4.4 3.4 1.3 3.4 3 0 1.9-1.8 3.4-4.3 3.4-1.8 0-3.2-.6-4.6-1.9l.9-.8zM607.8 32.1c-2.2 0-3.9-1.8-3.9-4s1.6-4 3.7-4c2 0 3.6 1.7 3.6 3.9v.4h-6.1c.1 1.6 1.3 2.8 2.8 2.8.8 0 1.6-.3 2.1-.8l.7.8c-.8.6-1.8.9-2.9.9zm-2.7-4.6h4.9c-.2-1.4-1.2-2.4-2.4-2.4-1.3 0-2.2 1-2.5 2.4zM619 30.2l.7.7c-.8.8-1.8 1.3-3 1.3-2.2 0-3.9-1.8-3.9-4 0-2.3 1.7-4 3.9-4 1.2 0 2.2.4 3 1.2l-.8.8c-.6-.6-1.4-1-2.2-1-1.5 0-2.7 1.3-2.7 3s1.2 3 2.8 3c.9-.1 1.7-.4 2.2-1zM622.5 25.1h-1.6v-1h1.6V22l1.2-.3v2.4h2.2v1h-2.2v4.8c0 .8.3 1.2 1.1 1.2.4 0 .7 0 1.1-.2v1c-.4.1-.9.2-1.4.2-1.3 0-2-.7-2-1.9v-5.1zM627.4 21.4c0-.4.4-.8.8-.8s.8.4.8.8c0 .5-.4.8-.8.8-.5.1-.8-.3-.8-.8zm1.4 10.6h-1.2v-7.8h1.2V32zM634.6 24.1c2.2 0 3.8 1.7 3.8 4s-1.6 4.1-3.8 4.1c-2.1 0-3.8-1.8-3.8-4.1s1.7-4 3.8-4zm2.7 4c0-1.7-1.1-3-2.7-3s-2.6 1.3-2.6 3 1.1 3 2.6 3 2.7-1.3 2.7-3zM640.5 24.2h1.2v1.3c.6-.9 1.4-1.4 2.5-1.4 1.7 0 2.8 1.2 2.8 2.9v5h-1.2v-4.7c0-1.4-.8-2.2-2.1-2.2-.9 0-1.6.4-2 1.2V32h-1.2v-7.8zM653.2 20.8h6.4v1h-5.4l-.2 3.9c.8-.4 1.6-.6 2.5-.6 2.2 0 3.7 1.4 3.7 3.4 0 2.2-1.6 3.7-3.9 3.7-1.5 0-2.8-.5-3.8-1.5l.7-.8c1 .9 1.9 1.3 3.1 1.3 1.6 0 2.8-1.1 2.8-2.7 0-1.5-1.1-2.5-2.8-2.5-.8 0-1.6.2-2.5.6l-.8-.3.2-5.5z"/></g><path class="st0" d="M560 0h1v53h-1V0z"/><path class="st1" d="M427 0h133v53H427V0z"/><g class="st2"><path class="st3" d="M460.2 29.4c1.3 1.3 2.4 1.7 3.9 1.7 1.7 0 3-1 3-2.3 0-1.1-.7-1.6-2.5-2l-1.8-.3c-2-.4-3-1.2-3-2.7 0-1.9 1.6-3.2 3.8-3.2 1.7 0 3 .4 4.4 1.4l-.6 1c-1.2-.9-2.5-1.3-3.8-1.3-1.6 0-2.7.9-2.7 2 0 1 .6 1.5 2.1 1.7l1.8.3c2.4.4 3.4 1.3 3.4 3 0 1.9-1.8 3.4-4.3 3.4-1.8 0-3.2-.6-4.6-1.9l.9-.8zM473.8 32.1c-2.2 0-3.9-1.8-3.9-4s1.6-4 3.7-4c2 0 3.6 1.7 3.6 3.9v.4h-6.1c.1 1.6 1.3 2.8 2.8 2.8.8 0 1.6-.3 2.1-.8l.7.8c-.8.6-1.8.9-2.9.9zm-2.7-4.6h4.9c-.2-1.4-1.2-2.4-2.4-2.4-1.3 0-2.2 1-2.5 2.4zM485 30.2l.7.7c-.8.8-1.8 1.3-3 1.3-2.2 0-3.9-1.8-3.9-4 0-2.3 1.7-4 3.9-4 1.2 0 2.2.4 3 1.2l-.8.8c-.6-.6-1.4-1-2.2-1-1.5 0-2.7 1.3-2.7 3s1.2 3 2.8 3c.9-.1 1.7-.4 2.2-1zM488.5 25.1h-1.6v-1h1.6V22l1.2-.3v2.4h2.2v1h-2.2v4.8c0 .8.3 1.2 1.1 1.2.4 0 .7 0 1.1-.2v1c-.4.1-.9.2-1.4.2-1.3 0-2-.7-2-1.9v-5.1zM493.4 21.4c0-.4.4-.8.8-.8s.8.4.8.8c0 .5-.4.8-.8.8-.5.1-.8-.3-.8-.8zm1.4 10.6h-1.2v-7.8h1.2V32zM500.6 24.1c2.2 0 3.8 1.7 3.8 4s-1.6 4.1-3.8 4.1c-2.1 0-3.8-1.8-3.8-4.1s1.7-4 3.8-4zm2.7 4c0-1.7-1.1-3-2.7-3s-2.6 1.3-2.6 3 1.1 3 2.6 3 2.7-1.3 2.7-3zM506.5 24.2h1.2v1.3c.6-.9 1.4-1.4 2.5-1.4 1.7 0 2.8 1.2 2.8 2.9v5h-1.2v-4.7c0-1.4-.8-2.2-2.1-2.2-.9 0-1.6.4-2 1.2V32h-1.2v-7.8zM525.6 28h1.6v1h-1.6v3h-1.1v-3h-6.1v-.9l6-7.3h1.2V28zm-1.1 0v-5.8l-4.7 5.8h4.7z"/></g><path class="st0" d="M426 0h1v53h-1V0z"/><path d="M294 0h132v54H294V0z" fill="#fff"/><g class="st2"><path class="st5" d="M327.2 29.4c1.3 1.3 2.4 1.7 3.9 1.7 1.7 0 3-1 3-2.3 0-1.1-.7-1.6-2.5-2l-1.8-.3c-2-.4-3-1.2-3-2.7 0-1.9 1.6-3.2 3.8-3.2 1.7 0 3 .4 4.4 1.4l-.6 1c-1.2-.9-2.5-1.3-3.8-1.3-1.6 0-2.7.9-2.7 2 0 1 .6 1.5 2.1 1.7l1.8.3c2.4.4 3.4 1.3 3.4 3 0 1.9-1.8 3.4-4.3 3.4-1.8 0-3.2-.6-4.6-1.9l.9-.8zM340.8 32.1c-2.2 0-3.9-1.8-3.9-4s1.6-4 3.7-4c2 0 3.6 1.7 3.6 3.9v.4h-6.1c.1 1.6 1.3 2.8 2.8 2.8.8 0 1.6-.3 2.1-.8l.7.8c-.8.6-1.8.9-2.9.9zm-2.7-4.6h4.9c-.2-1.4-1.2-2.4-2.4-2.4-1.3 0-2.2 1-2.5 2.4zM352 30.2l.7.7c-.8.8-1.8 1.3-3 1.3-2.2 0-3.9-1.8-3.9-4 0-2.3 1.7-4 3.9-4 1.2 0 2.2.4 3 1.2l-.8.8c-.6-.6-1.4-1-2.2-1-1.5 0-2.7 1.3-2.7 3s1.2 3 2.8 3c.9-.1 1.7-.4 2.2-1zM355.5 25.1h-1.6v-1h1.6V22l1.2-.3v2.4h2.2v1h-2.2v4.8c0 .8.3 1.2 1.1 1.2.4 0 .7 0 1.1-.2v1c-.4.1-.9.2-1.4.2-1.3 0-2-.7-2-1.9v-5.1zM360.4 21.4c0-.4.4-.8.8-.8s.8.4.8.8c0 .5-.4.8-.8.8-.5.1-.8-.3-.8-.8zm1.4 10.6h-1.2v-7.8h1.2V32zM367.6 24.1c2.2 0 3.8 1.7 3.8 4s-1.6 4.1-3.8 4.1c-2.1 0-3.8-1.8-3.8-4.1s1.7-4 3.8-4zm2.7 4c0-1.7-1.1-3-2.7-3s-2.6 1.3-2.6 3 1.1 3 2.6 3 2.7-1.3 2.7-3zM373.5 24.2h1.2v1.3c.6-.9 1.4-1.4 2.5-1.4 1.7 0 2.8 1.2 2.8 2.9v5h-1.2v-4.7c0-1.4-.8-2.2-2.1-2.2-.9 0-1.6.4-2 1.2V32h-1.2v-7.8zM389.3 32.2c-1.5 0-2.9-.5-3.9-1.6l.8-.8c.9.9 1.9 1.3 3.1 1.3 1.6 0 2.8-.9 2.8-2.3 0-1.2-1-2.1-2.4-2.1h-1.3v-1h1.3c1.2 0 2-.8 2-2s-1.1-2.1-2.4-2.1c-1.2 0-2 .4-2.9 1.4l-.8-.8c1-1.1 2.3-1.6 3.7-1.6 2 0 3.6 1.3 3.6 3.1 0 1.2-.8 2.2-2.1 2.5 1.5.3 2.5 1.4 2.5 2.7-.1 1.9-1.7 3.3-4 3.3z"/></g><path d="M294 0h132v3H294V0z" fill="#e00"/><path class="st0" d="M293 0h1v53h-1V0z"/><path class="st1" d="M161 0h132v53H161V0z"/><g class="st2"><path class="st3" d="M194.2 29.4c1.3 1.3 2.4 1.7 3.9 1.7 1.7 0 3-1 3-2.3 0-1.1-.7-1.6-2.5-2l-1.8-.3c-2-.4-3-1.2-3-2.7 0-1.9 1.6-3.2 3.8-3.2 1.7 0 3 .4 4.4 1.4l-.6 1c-1.2-.9-2.5-1.3-3.8-1.3-1.6 0-2.7.9-2.7 2 0 1 .6 1.5 2.1 1.7l1.8.3c2.4.4 3.4 1.3 3.4 3 0 1.9-1.8 3.4-4.3 3.4-1.8 0-3.2-.6-4.6-1.9l.9-.8zM207.8 32.1c-2.2 0-3.9-1.8-3.9-4s1.6-4 3.7-4c2 0 3.6 1.7 3.6 3.9v.4h-6.1c.1 1.6 1.3 2.8 2.8 2.8.8 0 1.6-.3 2.1-.8l.7.8c-.8.6-1.8.9-2.9.9zm-2.7-4.6h4.9c-.2-1.4-1.2-2.4-2.4-2.4-1.3 0-2.2 1-2.5 2.4zM219 30.2l.7.7c-.8.8-1.8 1.3-3 1.3-2.2 0-3.9-1.8-3.9-4 0-2.3 1.7-4 3.9-4 1.2 0 2.2.4 3 1.2l-.8.8c-.6-.6-1.4-1-2.2-1-1.5 0-2.7 1.3-2.7 3s1.2 3 2.8 3c.9-.1 1.7-.4 2.2-1zM222.5 25.1h-1.6v-1h1.6V22l1.2-.3v2.4h2.2v1h-2.2v4.8c0 .8.3 1.2 1.1 1.2.4 0 .7 0 1.1-.2v1c-.4.1-.9.2-1.4.2-1.3 0-2-.7-2-1.9v-5.1zM227.4 21.4c0-.4.4-.8.8-.8s.8.4.8.8c0 .5-.4.8-.8.8-.5.1-.8-.3-.8-.8zm1.4 10.6h-1.2v-7.8h1.2V32zM234.6 24.1c2.2 0 3.8 1.7 3.8 4s-1.6 4.1-3.8 4.1c-2.1 0-3.8-1.8-3.8-4.1s1.7-4 3.8-4zm2.7 4c0-1.7-1.1-3-2.7-3s-2.6 1.3-2.6 3 1.1 3 2.6 3 2.7-1.3 2.7-3zM240.5 24.2h1.2v1.3c.6-.9 1.4-1.4 2.5-1.4 1.7 0 2.8 1.2 2.8 2.9v5h-1.2v-4.7c0-1.4-.8-2.2-2.1-2.2-.9 0-1.6.4-2 1.2V32h-1.2v-7.8zM252.6 31.2l4.5-4.9c1-1.2 1.4-1.8 1.4-2.6 0-1.1-1-2-2.4-2-1.1 0-1.9.4-3 1.4l-.7-.8c1.2-1.1 2.3-1.6 3.6-1.6 2 0 3.5 1.2 3.5 2.9 0 1.1-.4 1.8-1.7 3.3L254 31h5.8v1h-7.2v-.8z"/></g><path class="st0" d="M160 0h1v53h-1V0z"/><g><path class="st1" d="M32 0h128v53H32V0z"/><g class="st2"><path class="st3" d="M65.2 29.4c1.3 1.3 2.4 1.7 3.9 1.7 1.7 0 3-1 3-2.3 0-1.1-.7-1.6-2.5-2l-1.8-.3c-2-.4-3-1.2-3-2.7 0-1.9 1.6-3.2 3.8-3.2 1.7 0 3 .4 4.4 1.4l-.6 1c-1.2-.9-2.5-1.3-3.8-1.3-1.6 0-2.7.9-2.7 2 0 1 .6 1.5 2.1 1.7l1.8.3c2.4.4 3.4 1.3 3.4 3 0 1.9-1.8 3.4-4.3 3.4-1.8 0-3.2-.6-4.6-1.9l.9-.8zM78.8 32.1c-2.2 0-3.9-1.8-3.9-4s1.6-4 3.7-4c2 0 3.6 1.7 3.6 3.9v.4h-6.1c.1 1.6 1.3 2.8 2.8 2.8.8 0 1.6-.3 2.1-.8l.7.8c-.8.6-1.8.9-2.9.9zm-2.7-4.6H81c-.2-1.4-1.2-2.4-2.4-2.4-1.3 0-2.2 1-2.5 2.4zM90 30.2l.7.7c-.8.8-1.8 1.3-3 1.3-2.2 0-3.9-1.8-3.9-4 0-2.3 1.7-4 3.9-4 1.2 0 2.2.4 3 1.2l-.7.7c-.6-.6-1.4-1-2.2-1-1.5 0-2.7 1.3-2.7 3s1.2 3 2.8 3c.8 0 1.6-.3 2.1-.9zM93.5 25.1h-1.6v-1h1.6V22l1.2-.3v2.4h2.2v1h-2.2v4.8c0 .8.3 1.2 1.1 1.2.4 0 .7 0 1.1-.2v1c-.4.1-.9.2-1.4.2-1.3 0-2-.7-2-1.9v-5.1zM98.4 21.4c0-.4.4-.8.8-.8s.8.4.8.8c0 .5-.4.8-.8.8-.5.1-.8-.3-.8-.8zM99.8 32h-1.2v-7.8h1.2V32zM105.6 24.1c2.2 0 3.8 1.7 3.8 4s-1.6 4.1-3.8 4.1c-2.1 0-3.8-1.8-3.8-4.1s1.7-4 3.8-4zm2.7 4c0-1.7-1.1-3-2.7-3s-2.6 1.3-2.6 3 1.1 3 2.6 3 2.7-1.3 2.7-3zM111.5 24.2h1.2v1.3c.6-.9 1.4-1.4 2.5-1.4 1.7 0 2.8 1.2 2.8 2.9v5h-1.2v-4.7c0-1.4-.8-2.2-2.1-2.2-.9 0-1.6.4-2 1.2V32h-1.2v-7.8zM126.4 32h-1.2V22l-1.8.8v-1.1l2.2-1h.7V32z"/></g></g></svg>