<svg xmlns="http://www.w3.org/2000/svg" width="708" height="233" viewBox="0 0 708 233"><g transform="translate(-360 -4130)"><rect width="708" height="128" rx="3" transform="translate(360 4235)" fill="#f5f5f5"/><g transform="translate(0 3887)"><rect width="708" height="1" transform="translate(360 299)" fill="#d2d2d2"/><text transform="translate(981 278)" fill="#6a6e73" font-size="16" font-family="RedHatText-Regular, Red Hat Text"><tspan x="0" y="0">Section 5</tspan></text><text transform="translate(848 278)" fill="#6a6e73" font-size="16" font-family="RedHatText-Regular, Red Hat Text"><tspan x="0" y="0">Section 4</tspan></text><rect width="132" height="3" transform="translate(684 297)" fill="#e00"/><text transform="translate(716 278)" fill="#151515" font-size="16" font-family="RedHatText-Regular, Red Hat Text"><tspan x="0" y="0">Section 3</tspan></text><text transform="translate(584 278)" fill="#6a6e73" font-size="16" font-family="RedHatText-Regular, Red Hat Text"><tspan x="0" y="0">Section 2</tspan></text><text transform="translate(456 278)" fill="#6a6e73" font-size="16" font-family="RedHatText-Regular, Red Hat Text"><tspan x="0" y="0">Section 1</tspan></text><g transform="translate(652)"><rect width="56" height="56" transform="translate(360 243)" fill="#fff"/><path d="M12.35,9.85l-6.8,6.8a1.217,1.217,0,0,1-1.6,0l-1.2-1a1.493,1.493,0,0,1,0-1.8l4.8-4.8-4.8-4.8a1.493,1.493,0,0,1,0-1.8l1.2-1.2a1.217,1.217,0,0,1,1.6,0l6.8,6.8A1.493,1.493,0,0,1,12.35,9.85Z" transform="translate(380.55 262.05)" fill="#151515"/><rect width="1" height="56" transform="translate(360 243)" fill="#d2d2d2"/></g><rect width="56" height="56" transform="translate(360 243)" fill="#fff"/><rect width="1" height="56" transform="translate(415 243)" fill="#d2d2d2"/><path d="M2.75,9.85l6.8,6.8a1.217,1.217,0,0,0,1.6,0l1.2-1a1.493,1.493,0,0,0,0-1.8l-4.8-4.8,4.8-4.8a1.493,1.493,0,0,0,0-1.8l-1.2-1.2a1.217,1.217,0,0,0-1.6,0l-6.8,6.8A1.493,1.493,0,0,0,2.75,9.85Z" transform="translate(380.55 262.05)" fill="#d2d2d2"/></g></g></svg>