<svg xmlns="http://www.w3.org/2000/svg" width="102" height="333" viewBox="0 0 102 333"><g transform="translate(-600 -2484)"><rect width="1" height="333" transform="translate(701 2484)" fill="#d2d2d2"/><g transform="translate(68 2486)"><rect width="101" height="53" transform="translate(532 246)" fill="#f5f5f5"/><text transform="translate(548 278)" fill="#6a6e73" font-size="16" font-family="RedHatText-Regular, Red Hat Text"><tspan x="0" y="0">Section 5</tspan></text></g><rect width="101" height="1" transform="translate(600 2731)" fill="#d2d2d2"/><g transform="translate(68 2432)"><rect width="101" height="53" transform="translate(532 246)" fill="#f5f5f5"/><text transform="translate(548 278)" fill="#6a6e73" font-size="16" font-family="RedHatText-Regular, Red Hat Text"><tspan x="0" y="0">Section 4</tspan></text></g><rect width="101" height="1" transform="translate(600 2677)" fill="#d2d2d2"/><g transform="translate(68 2378)"><rect width="102" height="53" transform="translate(532 246)" fill="#fff"/><text transform="translate(548 278)" fill="#151515" font-size="16" font-family="RedHatText-Regular, Red Hat Text"><tspan x="0" y="0">Section 3</tspan></text><rect width="3" height="53" transform="translate(532 246)" fill="#e00"/></g><rect width="101" height="1" transform="translate(600 2623)" fill="#d2d2d2"/><g transform="translate(68 2324)"><rect width="101" height="53" transform="translate(532 246)" fill="#f5f5f5"/><text transform="translate(548 278)" fill="#6a6e73" font-size="16" font-family="RedHatText-Regular, Red Hat Text"><tspan x="0" y="0">Section 2</tspan></text></g><rect width="101" height="1" transform="translate(600 2569)" fill="#d2d2d2"/><g transform="translate(68 2270)"><rect width="101" height="53" transform="translate(532 246)" fill="#f5f5f5"/><text transform="translate(548 278)" fill="#6a6e73" font-size="16" font-family="RedHatText-Regular, Red Hat Text"><tspan x="0" y="0">Section 1</tspan></text></g></g></svg>