<svg xmlns="http://www.w3.org/2000/svg" width="340" height="56" viewBox="0 0 340 56"><defs><style>.a{fill:#fff;stroke:#d2d2d2;}.b{fill:#151515;}.c{fill:none;}.d{stroke:none;}</style></defs><g transform="translate(-956 -2514)"><g class="a" transform="translate(956 2514)"><rect class="d" width="340" height="56"/><rect class="c" x="0.5" y="0.5" width="339" height="55"/></g><path class="b" d="M1.424,0H8.976V-1.088H2.656V-11.2H1.424ZM13.3.144A3.321,3.321,0,0,0,15.776-.9V0h1.152V-5.184c0-1.808-1.12-2.752-3.024-2.752a6.539,6.539,0,0,0-2.944.752l.448.9A5.037,5.037,0,0,1,13.76-6.96c1.312,0,2.016.624,2.016,1.936v1.056a4.683,4.683,0,0,0-2.368-.592c-1.7,0-2.928.864-2.928,2.3C10.48-.832,11.648.144,13.3.144ZM11.6-2.272c0-.912.832-1.456,1.968-1.456a4.052,4.052,0,0,1,2.208.576v1.5a3.116,3.116,0,0,1-2.24.9C12.4-.752,11.6-1.36,11.6-2.272ZM26.544-3.9a3.78,3.78,0,0,0-3.616-4A3.091,3.091,0,0,0,20.416-6.72v-4.72l-1.168.24V0H20.4V-1.024A3.081,3.081,0,0,0,22.864.112,3.8,3.8,0,0,0,26.544-3.9ZM22.64-6.88a2.8,2.8,0,0,1,2.736,2.992A2.791,2.791,0,0,1,22.64-.9a2.767,2.767,0,0,1-2.224-1.088V-5.808A2.688,2.688,0,0,1,22.64-6.88ZM28.176-3.9A3.907,3.907,0,0,0,32.048.144,4.5,4.5,0,0,0,34.976-.9l-.736-.8A3.191,3.191,0,0,1,32.1-.9a2.81,2.81,0,0,1-2.768-2.768h6.128V-4a3.7,3.7,0,0,0-3.584-3.936A3.812,3.812,0,0,0,28.176-3.9Zm3.68-3.008A2.572,2.572,0,0,1,34.288-4.48H29.36A2.581,2.581,0,0,1,31.856-6.912Zm6.688-4.528-1.168.24V0h1.168Z" transform="translate(1004 2548)"/><g transform="translate(-59 -115)"><rect class="c" width="24" height="24" transform="translate(1031 2645)"/><path class="b" d="M12.35,9.85l-6.8,6.8a1.217,1.217,0,0,1-1.6,0l-1.2-1a1.493,1.493,0,0,1,0-1.8l4.8-4.8-4.8-4.8a1.493,1.493,0,0,1,0-1.8l1.2-1.2a1.217,1.217,0,0,1,1.6,0l6.8,6.8a1.493,1.493,0,0,1,0,1.8Z" transform="translate(1035.55 2648.05)"/></g></g></svg>