<svg xmlns="http://www.w3.org/2000/svg" width="768" height="188" viewBox="0 0 768 188">
  <g id="Example" transform="translate(-360 -9012)">
    <g id="CTA_Default_Blue_FTS" data-name="CTA / Default / Blue / FTS" transform="translate(392 9177)">
      <g id="Arrow_Blue" data-name="Arrow / Blue" transform="translate(192 5)">
        <path id="Arrow" d="M7,0,5.6,1.4,10.3,6H0V8H10.3L5.6,12.6,7,14l7-7Z" fill="#06c"/>
      </g>
      <path id="Path" d="M5.994,0,8.5-8.8,11,0h2.736l2.79-12.6H13.932l-1.71,8.514L9.774-12.6H7.326L4.86-4.05,3.15-12.6H.468L3.258,0Zm11.97,0H20.43V-6.5a2.246,2.246,0,0,1,1.926-.936A1.829,1.829,0,0,1,24.3-5.472V0h2.466V-5.832a3.558,3.558,0,0,0-3.708-3.726,4.026,4.026,0,0,0-2.628.918v-4.5l-2.466.54ZM31,.432A1.888,1.888,0,0,1,29.142,1.71a3.868,3.868,0,0,1-.864-.072V3.762a4.5,4.5,0,0,0,1.1.108c2.052,0,3.186-.864,4.158-3.132l4.32-10.116H35.19l-2.664,6.39L30.2-9.378H27.486L31.14.09ZM46.6,0,48.42-5.994,50.238,0H52.6l2.592-9.378h-2.3L51.336-3.312,49.482-9.378h-2.07L45.54-3.312,43.992-9.378h-2.34L44.226,0ZM64.566-1.17l-1.62-1.476a2.952,2.952,0,0,1-2.07.756,2.7,2.7,0,0,1-2.664-1.962H65.2V-4.5a4.733,4.733,0,0,0-4.644-5.04,4.787,4.787,0,0,0-4.824,4.86A4.882,4.882,0,0,0,60.768.18,5.622,5.622,0,0,0,64.566-1.17ZM60.5-7.506a2.419,2.419,0,0,1,2.286,1.89h-4.59A2.355,2.355,0,0,1,60.5-7.506ZM74.484,0,76.3-5.994,78.12,0h2.358L83.07-9.378h-2.3L79.218-3.312,77.364-9.378h-2.07L73.422-3.312,71.874-9.378h-2.34L72.108,0ZM83.61-4.68a4.873,4.873,0,0,0,5,4.86,4.873,4.873,0,0,0,5-4.86,4.888,4.888,0,0,0-5-4.878A4.888,4.888,0,0,0,83.61-4.68Zm5,2.718A2.634,2.634,0,0,1,86.022-4.68a2.638,2.638,0,0,1,2.592-2.736A2.627,2.627,0,0,1,91.206-4.68,2.634,2.634,0,0,1,88.614-1.962ZM95.13,0H97.6V-6.066a2.482,2.482,0,0,1,2.268-1.4,3.148,3.148,0,0,1,1.26.252v-2.16a2.125,2.125,0,0,0-1.026-.216,2.983,2.983,0,0,0-2.5,1.242V-9.378H95.13Zm7.326,0h2.466V-4.284L108.882,0h3.15L107.37-5.076l4.392-4.3h-2.79l-4.05,3.96V-13.14l-2.466.54Zm15.12-2.646c0,1.836,1.08,2.79,3.168,2.79a7.651,7.651,0,0,0,1.908-.288V-2.16a3.794,3.794,0,0,1-1.314.216c-.954,0-1.3-.324-1.3-1.206V-7.308h2.664v-2.07h-2.664V-12.33l-2.466.558v2.394H115.65v2.07h1.926ZM123.93,0H126.4V-6.5a2.246,2.246,0,0,1,1.926-.936,1.829,1.829,0,0,1,1.944,1.962V0h2.466V-5.832a3.558,3.558,0,0,0-3.708-3.726,4.025,4.025,0,0,0-2.628.918v-4.5l-2.466.54Zm11.9-10.494a1.406,1.406,0,0,0,1.4-1.4,1.406,1.406,0,0,0-1.4-1.4,1.406,1.406,0,0,0-1.4,1.4A1.406,1.406,0,0,0,135.828-10.494Zm1.242,1.116H134.6V0h2.466ZM138.2-1.116a6.911,6.911,0,0,0,4.3,1.3c2.358,0,4.1-1.332,4.1-3.1,0-1.458-1.026-2.412-2.862-2.682l-1.8-.27c-.918-.126-1.278-.378-1.278-.882,0-.558.576-.918,1.476-.918a5.536,5.536,0,0,1,2.9.9l1.188-1.584a6.918,6.918,0,0,0-3.852-1.17c-2.394,0-3.906,1.152-3.906,2.97,0,1.512.99,2.43,2.844,2.718l1.8.27c.81.126,1.17.4,1.17.882,0,.594-.72.99-1.818.99a5.461,5.461,0,0,1-3.042-1.062ZM155.61,0l1.818-5.994L159.246,0H161.6L164.2-9.378h-2.3l-1.548,6.066L158.49-9.378h-2.07l-1.872,6.066L153-9.378h-2.34L153.234,0Zm12.564.162a4.457,4.457,0,0,0,2.718-.81V0h2.43V-6.084c0-2.214-1.458-3.474-4-3.474A9.779,9.779,0,0,0,165.15-8.55l.9,1.818a7.268,7.268,0,0,1,2.862-.774c1.314,0,1.98.558,1.98,1.638V-5.2a7.585,7.585,0,0,0-2.286-.36c-2.412,0-3.852,1.062-3.852,2.844C164.754-1.008,166.158.162,168.174.162Zm-1.062-2.934c0-.72.666-1.17,1.8-1.17a5.449,5.449,0,0,1,1.98.342v1.4a3.551,3.551,0,0,1-2.07.594C167.778-1.6,167.112-2.052,167.112-2.772Zm10.44,3.2A1.888,1.888,0,0,1,175.7,1.71a3.868,3.868,0,0,1-.864-.072V3.762a4.5,4.5,0,0,0,1.1.108c2.052,0,3.186-.864,4.158-3.132l4.32-10.116h-2.664l-2.664,6.39-2.322-6.39h-2.718L177.7.09Z" transform="translate(0 18)" fill="#06c"/>
    </g>
    <path id="Path-2" data-name="Path" d="M4.336,16,7.184,6.5,10.016,16h1.248L13.68,4.8h-1.2l-1.92,9.232L7.792,4.8h-1.2L3.824,14.064,1.92,4.8H.672L3.088,16Zm17.024-.9-.736-.784a3.191,3.191,0,0,1-2.144.8A2.845,2.845,0,0,1,15.7,12.352h6.128V12A3.689,3.689,0,0,0,18.24,8.064,3.8,3.8,0,0,0,14.56,12.1a3.9,3.9,0,0,0,3.872,4.048A4.558,4.558,0,0,0,21.36,15.1ZM18.224,9.072a2.579,2.579,0,0,1,2.448,2.448H15.728A2.608,2.608,0,0,1,18.224,9.072Zm12.9,6.016A2.832,2.832,0,0,1,28.368,12.1,2.835,2.835,0,0,1,31.1,9.12a3.069,3.069,0,0,1,2.208.976l.752-.816a4.259,4.259,0,0,0-3.008-1.216A3.9,3.9,0,0,0,27.2,12.1a3.913,3.913,0,0,0,3.856,4.048,4.061,4.061,0,0,0,2.96-1.264l-.72-.72A2.876,2.876,0,0,1,31.12,15.088ZM35.7,16h1.168V10.656a2.226,2.226,0,0,1,2.1-1.584,2.919,2.919,0,0,1,.816.144V8.16a2.217,2.217,0,0,0-.736-.112,2.332,2.332,0,0,0-2.176,1.728V8.192H35.7Zm11.584-.9-.736-.784a3.191,3.191,0,0,1-2.144.8,2.845,2.845,0,0,1-2.784-2.768h6.128V12A3.689,3.689,0,0,0,44.16,8.064,3.8,3.8,0,0,0,40.48,12.1a3.9,3.9,0,0,0,3.872,4.048A4.558,4.558,0,0,0,47.28,15.1ZM44.144,9.072a2.579,2.579,0,0,1,2.448,2.448H41.648A2.608,2.608,0,0,1,44.144,9.072Zm7.888,7.072a3.352,3.352,0,0,0,2.48-1.056V16h1.152V10.816c0-1.776-1.088-2.752-3.024-2.752a6.689,6.689,0,0,0-2.944.752l.432.9A5.156,5.156,0,0,1,52.5,9.04a1.758,1.758,0,0,1,2.016,1.936v1.072a4.521,4.521,0,0,0-2.384-.608c-1.76,0-2.928.928-2.928,2.32C49.2,15.168,50.368,16.144,52.032,16.144ZM50.32,13.728c0-.864.784-1.44,1.984-1.44a4.122,4.122,0,0,1,2.208.56v1.5a3.091,3.091,0,0,1-2.24.9C51.1,15.248,50.32,14.64,50.32,13.728Zm8.4.512c0,1.248.7,1.9,2.048,1.9a4.386,4.386,0,0,0,1.36-.208V14.9a2.8,2.8,0,0,1-1.1.208c-.816,0-1.136-.336-1.136-1.168V9.152h2.24v-.96h-2.24V5.776l-1.168.272V8.192H57.1v.96H58.72ZM70.1,15.1l-.736-.784a3.191,3.191,0,0,1-2.144.8,2.845,2.845,0,0,1-2.784-2.768H70.56V12a3.689,3.689,0,0,0-3.584-3.936A3.8,3.8,0,0,0,63.3,12.1a3.9,3.9,0,0,0,3.872,4.048A4.558,4.558,0,0,0,70.1,15.1ZM66.96,9.072a2.579,2.579,0,0,1,2.448,2.448H64.464A2.608,2.608,0,0,1,66.96,9.072Zm8.576,5.92A4.451,4.451,0,0,0,78.7,16.144c1.728,0,3.04-1.056,3.04-2.416,0-1.152-.7-1.808-2.272-2.1l-1.312-.24c-1.008-.176-1.344-.48-1.344-1.12,0-.768.672-1.248,1.7-1.248a4.142,4.142,0,0,1,2.448.832l.576-.816a5.048,5.048,0,0,0-2.976-.976c-1.648,0-2.816.944-2.816,2.288,0,1.136.688,1.776,2.208,2.048l1.28.224c.992.192,1.408.528,1.408,1.168,0,.816-.832,1.408-1.968,1.408a4.072,4.072,0,0,1-2.512-.976Zm7.712-2.9a3.809,3.809,0,1,0,7.6,0,3.807,3.807,0,1,0-7.6,0ZM87.04,15.12a2.753,2.753,0,0,1-2.64-3.008,2.671,2.671,0,1,1,5.3,0A2.774,2.774,0,0,1,87.04,15.12Zm4.608-6.928v.96h1.744V16H94.56V9.152h2.224v-.96H94.56V6.5c0-.928.384-1.36,1.28-1.36a3.22,3.22,0,0,1,.944.144V4.224a3.3,3.3,0,0,0-1.056-.144,2.143,2.143,0,0,0-2.336,2.4V8.192Zm7.76,6.048c0,1.248.7,1.9,2.048,1.9a4.386,4.386,0,0,0,1.36-.208V14.9a2.8,2.8,0,0,1-1.1.208c-.816,0-1.136-.336-1.136-1.168V9.152h2.24v-.96h-2.24V5.776l-1.168.272V8.192H97.792v.96h1.616ZM107.232,16l1.856-6.3,1.856,6.3h1.136l2.128-7.808h-1.1l-1.616,6.24-1.872-6.24h-1.04l-1.872,6.24-1.632-6.24h-1.136L106.08,16Zm11.008.144a3.352,3.352,0,0,0,2.48-1.056V16h1.152V10.816c0-1.776-1.088-2.752-3.024-2.752a6.689,6.689,0,0,0-2.944.752l.432.9A5.156,5.156,0,0,1,118.7,9.04a1.758,1.758,0,0,1,2.016,1.936v1.072a4.521,4.521,0,0,0-2.384-.608c-1.76,0-2.928.928-2.928,2.32C115.408,15.168,116.576,16.144,118.24,16.144Zm-1.712-2.416c0-.864.784-1.44,1.984-1.44a4.122,4.122,0,0,1,2.208.56v1.5a3.091,3.091,0,0,1-2.24.9C117.312,15.248,116.528,14.64,116.528,13.728ZM124.24,16h1.168V10.656a2.226,2.226,0,0,1,2.1-1.584,2.919,2.919,0,0,1,.816.144V8.16a2.217,2.217,0,0,0-.736-.112,2.332,2.332,0,0,0-2.176,1.728V8.192H124.24Zm11.584-.9-.736-.784a3.191,3.191,0,0,1-2.144.8,2.845,2.845,0,0,1-2.784-2.768h6.128V12A3.689,3.689,0,0,0,132.7,8.064a3.8,3.8,0,0,0-3.68,4.032,3.9,3.9,0,0,0,3.872,4.048A4.558,4.558,0,0,0,135.824,15.1Zm-3.136-6.032a2.579,2.579,0,0,1,2.448,2.448h-4.944A2.608,2.608,0,0,1,132.688,9.072Zm10.464-.88h-1.184v5.04a2.73,2.73,0,0,0,2.832,2.9,2.8,2.8,0,0,0,2.48-1.392V16h1.168V8.192H147.28v5.776a2.318,2.318,0,0,1-2.048,1.184,2.017,2.017,0,0,1-2.08-2.256Zm6.944,6.8a4.451,4.451,0,0,0,3.168,1.152c1.728,0,3.04-1.056,3.04-2.416,0-1.152-.7-1.808-2.272-2.1l-1.312-.24c-1.008-.176-1.344-.48-1.344-1.12,0-.768.672-1.248,1.7-1.248a4.142,4.142,0,0,1,2.448.832l.576-.816a5.048,5.048,0,0,0-2.976-.976c-1.648,0-2.816.944-2.816,2.288,0,1.136.688,1.776,2.208,2.048l1.28.224c.992.192,1.408.528,1.408,1.168,0,.816-.832,1.408-1.968,1.408a4.072,4.072,0,0,1-2.512-.976Zm8.576-8.72a.83.83,0,0,0,.832-.848.84.84,0,0,0-1.68,0A.834.834,0,0,0,158.672,6.272Zm.576,1.92H158.08V16h1.168Zm2.4,7.808h1.168V10.24a2.3,2.3,0,0,1,2.048-1.2,2.024,2.024,0,0,1,2.1,2.24V16h1.168V10.944a2.717,2.717,0,0,0-2.832-2.88,2.813,2.813,0,0,0-2.48,1.392V8.192h-1.168Zm12.08.1a3.077,3.077,0,0,0,2.5-1.152v1.472c0,1.312-.752,2-2.176,2a5.25,5.25,0,0,1-2.5-.72l-.5.9a6.262,6.262,0,0,0,3.04.816c2.128,0,3.3-1.072,3.3-3.008V8.192H176.24V9.2a3.151,3.151,0,0,0-2.448-1.1,3.8,3.8,0,0,0-3.664,4A3.768,3.768,0,0,0,173.728,16.1Zm-2.448-4a2.774,2.774,0,0,1,4.944-1.92v3.856a2.687,2.687,0,0,1-2.208,1.056A2.8,2.8,0,0,1,171.28,12.1Zm13.168,2.144c0,1.248.7,1.9,2.048,1.9a4.386,4.386,0,0,0,1.36-.208V14.9a2.8,2.8,0,0,1-1.1.208c-.816,0-1.136-.336-1.136-1.168V9.152h2.24v-.96h-2.24V5.776l-1.168.272V8.192h-1.616v.96h1.616Zm5.12,1.76h1.168V10.24a2.3,2.3,0,0,1,2.048-1.2,2.024,2.024,0,0,1,2.1,2.24V16h1.168V10.944a2.717,2.717,0,0,0-2.832-2.88,2.813,2.813,0,0,0-2.48,1.392V4.32l-1.168.24Zm15.28-.9-.736-.784a3.191,3.191,0,0,1-2.144.8,2.845,2.845,0,0,1-2.784-2.768h6.128V12a3.689,3.689,0,0,0-3.584-3.936,3.8,3.8,0,0,0-3.68,4.032,3.9,3.9,0,0,0,3.872,4.048A4.558,4.558,0,0,0,204.848,15.1Zm-3.136-6.032a2.579,2.579,0,0,1,2.448,2.448h-4.944A2.608,2.608,0,0,1,201.712,9.072Zm8.976,3.024a3.809,3.809,0,1,0,7.6,0,3.807,3.807,0,1,0-7.6,0Zm3.792,3.024a2.753,2.753,0,0,1-2.64-3.008,2.671,2.671,0,1,1,5.3,0A2.774,2.774,0,0,1,214.48,15.12Zm5.856,4.224H221.5v-4.32a3.166,3.166,0,0,0,2.448,1.088,3.8,3.8,0,0,0,3.664-4.016,3.768,3.768,0,0,0-3.6-4,3.08,3.08,0,0,0-2.528,1.216V8.192h-1.152ZM223.728,9.12a2.8,2.8,0,0,1,2.736,2.992,2.8,2.8,0,0,1-2.736,2.992,2.744,2.744,0,0,1-2.224-1.088V10.192A2.666,2.666,0,0,1,223.728,9.12Zm12.4,5.984-.736-.784a3.191,3.191,0,0,1-2.144.8,2.845,2.845,0,0,1-2.784-2.768h6.128V12a3.689,3.689,0,0,0-3.584-3.936,3.8,3.8,0,0,0-3.68,4.032,3.9,3.9,0,0,0,3.872,4.048A4.558,4.558,0,0,0,236.128,15.1Zm-3.136-6.032a2.579,2.579,0,0,1,2.448,2.448H230.5A2.608,2.608,0,0,1,232.992,9.072Zm5.6,6.928h1.168V10.24a2.3,2.3,0,0,1,2.048-1.2,2.024,2.024,0,0,1,2.1,2.24V16h1.168V10.944a2.717,2.717,0,0,0-2.832-2.88,2.813,2.813,0,0,0-2.48,1.392V8.192h-1.168ZM250.4,14.992a4.451,4.451,0,0,0,3.168,1.152c1.728,0,3.04-1.056,3.04-2.416,0-1.152-.7-1.808-2.272-2.1l-1.312-.24c-1.008-.176-1.344-.48-1.344-1.12,0-.768.672-1.248,1.7-1.248a4.142,4.142,0,0,1,2.448.832l.576-.816a5.048,5.048,0,0,0-2.976-.976c-1.648,0-2.816.944-2.816,2.288,0,1.136.688,1.776,2.208,2.048l1.28.224c.992.192,1.408.528,1.408,1.168,0,.816-.832,1.408-1.968,1.408a4.072,4.072,0,0,1-2.512-.976Zm7.712-2.9a3.809,3.809,0,1,0,7.6,0,3.807,3.807,0,1,0-7.6,0ZM261.9,15.12a2.753,2.753,0,0,1-2.64-3.008,2.671,2.671,0,1,1,5.3,0A2.774,2.774,0,0,1,261.9,15.12ZM268.9,8.192h-1.184v5.04a2.73,2.73,0,0,0,2.832,2.9,2.8,2.8,0,0,0,2.48-1.392V16h1.168V8.192h-1.168v5.776a2.318,2.318,0,0,1-2.048,1.184A2.017,2.017,0,0,1,268.9,12.9Zm7.7,7.808h1.168V10.656a2.226,2.226,0,0,1,2.1-1.584,2.919,2.919,0,0,1,.816.144V8.16a2.217,2.217,0,0,0-.736-.112,2.332,2.332,0,0,0-2.176,1.728V8.192h-1.168Zm8.7-.912a2.832,2.832,0,0,1-2.752-2.992A2.835,2.835,0,0,1,285.28,9.12a3.069,3.069,0,0,1,2.208.976l.752-.816a4.259,4.259,0,0,0-3.008-1.216,3.9,3.9,0,0,0-3.856,4.032,3.914,3.914,0,0,0,3.856,4.048,4.061,4.061,0,0,0,2.96-1.264l-.72-.72A2.876,2.876,0,0,1,285.3,15.088Zm10.784.016-.736-.784a3.19,3.19,0,0,1-2.144.8,2.845,2.845,0,0,1-2.784-2.768h6.128V12a3.689,3.689,0,0,0-3.584-3.936,3.8,3.8,0,0,0-3.68,4.032,3.9,3.9,0,0,0,3.872,4.048A4.558,4.558,0,0,0,296.08,15.1Zm-3.136-6.032a2.579,2.579,0,0,1,2.448,2.448h-4.944A2.608,2.608,0,0,1,292.944,9.072ZM304.816,16l1.856-6.3,1.856,6.3h1.136l2.128-7.808h-1.1l-1.616,6.24L307.2,8.192h-1.04l-1.872,6.24-1.632-6.24H301.52L303.664,16Zm11.008.144a3.352,3.352,0,0,0,2.48-1.056V16h1.152V10.816c0-1.776-1.088-2.752-3.024-2.752a6.689,6.689,0,0,0-2.944.752l.432.9a5.156,5.156,0,0,1,2.368-.672,1.758,1.758,0,0,1,2.016,1.936v1.072a4.521,4.521,0,0,0-2.384-.608c-1.76,0-2.928.928-2.928,2.32C312.992,15.168,314.16,16.144,315.824,16.144Zm-1.712-2.416c0-.864.784-1.44,1.984-1.44a4.122,4.122,0,0,1,2.208.56v1.5a3.091,3.091,0,0,1-2.24.9C314.9,15.248,314.112,14.64,314.112,13.728Zm9.088,3.52c-.288.7-.656.992-1.248.992a2.719,2.719,0,0,1-.64-.064v1.04a2.679,2.679,0,0,0,.752.112c1.152,0,1.744-.464,2.24-1.728l3.872-9.408h-1.3l-2.512,6.416L322,8.192h-1.3l3.008,7.792Zm5.76-2.432-.96,3.7h.912l1.3-3.7Zm9.472,1.328a3.352,3.352,0,0,0,2.48-1.056V16h1.152V10.816c0-1.776-1.088-2.752-3.024-2.752a6.689,6.689,0,0,0-2.944.752l.432.9A5.156,5.156,0,0,1,338.9,9.04a1.758,1.758,0,0,1,2.016,1.936v1.072a4.521,4.521,0,0,0-2.384-.608c-1.76,0-2.928.928-2.928,2.32C335.6,15.168,336.768,16.144,338.432,16.144Zm-1.712-2.416c0-.864.784-1.44,1.984-1.44a4.122,4.122,0,0,1,2.208.56v1.5a3.091,3.091,0,0,1-2.24.9C337.5,15.248,336.72,14.64,336.72,13.728Zm10.688,1.264a4.451,4.451,0,0,0,3.168,1.152c1.728,0,3.04-1.056,3.04-2.416,0-1.152-.7-1.808-2.272-2.1l-1.312-.24c-1.008-.176-1.344-.48-1.344-1.12,0-.768.672-1.248,1.7-1.248a4.142,4.142,0,0,1,2.448.832l.576-.816a5.048,5.048,0,0,0-2.976-.976c-1.648,0-2.816.944-2.816,2.288,0,1.136.688,1.776,2.208,2.048l1.28.224c.992.192,1.408.528,1.408,1.168,0,.816-.832,1.408-1.968,1.408a4.072,4.072,0,0,1-2.512-.976Zm14.512.112-.736-.784a3.19,3.19,0,0,1-2.144.8,2.845,2.845,0,0,1-2.784-2.768h6.128V12A3.689,3.689,0,0,0,358.8,8.064a3.8,3.8,0,0,0-3.68,4.032,3.9,3.9,0,0,0,3.872,4.048A4.558,4.558,0,0,0,361.92,15.1Zm-3.136-6.032a2.579,2.579,0,0,1,2.448,2.448h-4.944A2.608,2.608,0,0,1,358.784,9.072Zm6.288,5.168c0,1.248.7,1.9,2.048,1.9a4.386,4.386,0,0,0,1.36-.208V14.9a2.8,2.8,0,0,1-1.1.208c-.816,0-1.136-.336-1.136-1.168V9.152h2.24v-.96h-2.24V5.776l-1.168.272V8.192h-1.616v.96h1.616Zm8.5-2.144a3.809,3.809,0,1,0,7.6,0,3.807,3.807,0,1,0-7.6,0Zm3.792,3.024a2.753,2.753,0,0,1-2.64-3.008,2.671,2.671,0,1,1,5.3,0A2.774,2.774,0,0,1,377.36,15.12Zm4.608-6.928v.96h1.744V16h1.168V9.152H387.1v-.96H384.88V6.5c0-.928.384-1.36,1.28-1.36a3.22,3.22,0,0,1,.944.144V4.224a3.3,3.3,0,0,0-1.056-.144,2.143,2.143,0,0,0-2.336,2.4V8.192Zm10.4,11.152h1.168v-4.32a3.165,3.165,0,0,0,2.448,1.088,3.8,3.8,0,0,0,3.664-4.016,3.768,3.768,0,0,0-3.6-4,3.08,3.08,0,0,0-2.528,1.216V8.192h-1.152ZM395.76,9.12a2.8,2.8,0,0,1,2.736,2.992A2.8,2.8,0,0,1,395.76,15.1a2.744,2.744,0,0,1-2.224-1.088V10.192A2.666,2.666,0,0,1,395.76,9.12ZM401.7,16h1.168V10.656a2.226,2.226,0,0,1,2.1-1.584,2.919,2.919,0,0,1,.816.144V8.16a2.217,2.217,0,0,0-.736-.112,2.332,2.332,0,0,0-2.176,1.728V8.192H401.7Zm6.224-9.728a.83.83,0,0,0,.832-.848.84.84,0,0,0-1.68,0A.834.834,0,0,0,407.92,6.272Zm.576,1.92h-1.168V16H408.5ZM410.9,16h1.168V10.24a2.3,2.3,0,0,1,2.048-1.2,2.024,2.024,0,0,1,2.1,2.24V16h1.168V10.944a2.717,2.717,0,0,0-2.832-2.88,2.813,2.813,0,0,0-2.48,1.392V8.192H410.9Zm12.4-.912a2.832,2.832,0,0,1-2.752-2.992A2.835,2.835,0,0,1,423.28,9.12a3.069,3.069,0,0,1,2.208.976l.752-.816a4.259,4.259,0,0,0-3.008-1.216,3.9,3.9,0,0,0-3.856,4.032,3.914,3.914,0,0,0,3.856,4.048,4.061,4.061,0,0,0,2.96-1.264l-.72-.72A2.876,2.876,0,0,1,423.3,15.088Zm5.168-8.816a.83.83,0,0,0,.832-.848.84.84,0,0,0-1.68,0A.834.834,0,0,0,428.464,6.272Zm.576,1.92h-1.168V16h1.168Zm2.4,11.152h1.168v-4.32a3.165,3.165,0,0,0,2.448,1.088A3.8,3.8,0,0,0,438.72,12.1a3.768,3.768,0,0,0-3.6-4,3.08,3.08,0,0,0-2.528,1.216V8.192H431.44ZM434.832,9.12a2.8,2.8,0,0,1,2.736,2.992,2.8,2.8,0,0,1-2.736,2.992,2.744,2.744,0,0,1-2.224-1.088V10.192A2.666,2.666,0,0,1,434.832,9.12Zm7.1-4.8-1.168.24V16h1.168ZM450.784,15.1l-.736-.784a3.19,3.19,0,0,1-2.144.8,2.845,2.845,0,0,1-2.784-2.768h6.128V12a3.689,3.689,0,0,0-3.584-3.936,3.8,3.8,0,0,0-3.68,4.032,3.9,3.9,0,0,0,3.872,4.048A4.558,4.558,0,0,0,450.784,15.1Zm-3.136-6.032A2.579,2.579,0,0,1,450.1,11.52h-4.944A2.608,2.608,0,0,1,447.648,9.072Zm4.928,5.92a4.451,4.451,0,0,0,3.168,1.152c1.728,0,3.04-1.056,3.04-2.416,0-1.152-.7-1.808-2.272-2.1l-1.312-.24c-1.008-.176-1.344-.48-1.344-1.12,0-.768.672-1.248,1.7-1.248A4.142,4.142,0,0,1,458,9.856l.576-.816a5.048,5.048,0,0,0-2.976-.976c-1.648,0-2.816.944-2.816,2.288,0,1.136.688,1.776,2.208,2.048l1.28.224c.992.192,1.408.528,1.408,1.168,0,.816-.832,1.408-1.968,1.408a4.072,4.072,0,0,1-2.512-.976ZM8.48,36.1a3.768,3.768,0,0,0-3.6-4,3.146,3.146,0,0,0-2.512,1.168V28.32L1.2,28.56V40H2.352V38.976a3.161,3.161,0,0,0,2.464,1.136A3.8,3.8,0,0,0,8.48,36.1ZM4.592,33.12a2.8,2.8,0,0,1,2.736,2.992A2.8,2.8,0,0,1,4.592,39.1a2.744,2.744,0,0,1-2.224-1.088V34.192A2.666,2.666,0,0,1,4.592,33.12Zm7.072-.928H10.48v5.04a2.73,2.73,0,0,0,2.832,2.9,2.8,2.8,0,0,0,2.48-1.392V40H16.96V32.192H15.792v5.776a2.318,2.318,0,0,1-2.048,1.184,2.017,2.017,0,0,1-2.08-2.256Zm8.288-1.92a.83.83,0,0,0,.832-.848.84.84,0,0,0-1.68,0A.834.834,0,0,0,19.952,30.272Zm.576,1.92H19.36V40h1.168ZM24.1,28.32l-1.168.24V40H24.1Zm3.328,9.92c0,1.248.7,1.9,2.048,1.9a4.386,4.386,0,0,0,1.36-.208V38.9a2.8,2.8,0,0,1-1.1.208c-.816,0-1.136-.336-1.136-1.168V33.152h2.24v-.96h-2.24V29.776l-1.168.272v2.144H25.808v.96h1.616Zm9.984-6.048H36.224v5.04a2.73,2.73,0,0,0,2.832,2.9,2.8,2.8,0,0,0,2.48-1.392V40H42.7V32.192H41.536v5.776a2.318,2.318,0,0,1-2.048,1.184,2.017,2.017,0,0,1-2.08-2.256Zm7.7,11.152h1.168v-4.32a3.166,3.166,0,0,0,2.448,1.088A3.8,3.8,0,0,0,52.384,36.1a3.768,3.768,0,0,0-3.6-4,3.08,3.08,0,0,0-2.528,1.216v-1.12H45.1ZM48.5,33.12a2.8,2.8,0,0,1,2.736,2.992A2.8,2.8,0,0,1,48.5,39.1a2.744,2.744,0,0,1-2.224-1.088V34.192A2.666,2.666,0,0,1,48.5,33.12ZM54.1,36.1a3.809,3.809,0,1,0,7.6,0,3.807,3.807,0,1,0-7.6,0Zm3.792,3.024a2.753,2.753,0,0,1-2.64-3.008,2.671,2.671,0,1,1,5.3,0A2.774,2.774,0,0,1,57.888,39.12Zm5.856.88h1.168V34.24a2.3,2.3,0,0,1,2.048-1.2,2.024,2.024,0,0,1,2.1,2.24V40h1.168V34.944a2.717,2.717,0,0,0-2.832-2.88,2.813,2.813,0,0,0-2.48,1.392V32.192H63.744Zm14.976.144a3.352,3.352,0,0,0,2.48-1.056V40h1.152V34.816c0-1.776-1.088-2.752-3.024-2.752a6.689,6.689,0,0,0-2.944.752l.432.9a5.156,5.156,0,0,1,2.368-.672A1.758,1.758,0,0,1,81.2,34.976v1.072a4.521,4.521,0,0,0-2.384-.608c-1.76,0-2.928.928-2.928,2.32C75.888,39.168,77.056,40.144,78.72,40.144Zm-1.712-2.416c0-.864.784-1.44,1.984-1.44a4.122,4.122,0,0,1,2.208.56v1.5a3.091,3.091,0,0,1-2.24.9C77.792,39.248,77.008,38.64,77.008,37.728ZM84.72,40h1.168V34.24a2.3,2.3,0,0,1,2.048-1.2,2.024,2.024,0,0,1,2.1,2.24V40H91.2V34.944a2.717,2.717,0,0,0-2.832-2.88,2.813,2.813,0,0,0-2.48,1.392V32.192H84.72Zm12.208-3.9a3.809,3.809,0,1,0,7.6,0,3.807,3.807,0,1,0-7.6,0Zm3.792,3.024a2.753,2.753,0,0,1-2.64-3.008,2.671,2.671,0,1,1,5.3,0A2.774,2.774,0,0,1,100.72,39.12Zm5.856,4.224h1.168v-4.32a3.165,3.165,0,0,0,2.448,1.088,3.8,3.8,0,0,0,3.664-4.016,3.768,3.768,0,0,0-3.6-4,3.08,3.08,0,0,0-2.528,1.216v-1.12h-1.152Zm3.392-10.224a2.8,2.8,0,0,1,2.736,2.992,2.8,2.8,0,0,1-2.736,2.992,2.744,2.744,0,0,1-2.224-1.088V34.192A2.666,2.666,0,0,1,109.968,33.12Zm12.4,5.984-.736-.784a3.191,3.191,0,0,1-2.144.8,2.845,2.845,0,0,1-2.784-2.768h6.128V36a3.689,3.689,0,0,0-3.584-3.936,3.8,3.8,0,0,0-3.68,4.032,3.9,3.9,0,0,0,3.872,4.048A4.558,4.558,0,0,0,122.368,39.1Zm-3.136-6.032a2.579,2.579,0,0,1,2.448,2.448h-4.944A2.608,2.608,0,0,1,119.232,33.072Zm5.6,6.928H126V34.24a2.3,2.3,0,0,1,2.048-1.2,2.024,2.024,0,0,1,2.1,2.24V40h1.168V34.944a2.717,2.717,0,0,0-2.832-2.88A2.813,2.813,0,0,0,126,33.456V32.192h-1.168Zm11.808-7.808v.96h1.744V40h1.168V33.152h2.224v-.96h-2.224V30.5c0-.928.384-1.36,1.28-1.36a3.22,3.22,0,0,1,.944.144V28.224a3.3,3.3,0,0,0-1.056-.144,2.143,2.143,0,0,0-2.336,2.4v1.712Zm5.968,3.9a3.809,3.809,0,1,0,7.6,0,3.807,3.807,0,1,0-7.6,0ZM146.4,39.12a2.753,2.753,0,0,1-2.64-3.008,2.671,2.671,0,1,1,5.3,0A2.774,2.774,0,0,1,146.4,39.12Zm5.856.88h1.168V34.656a2.226,2.226,0,0,1,2.1-1.584,2.919,2.919,0,0,1,.816.144V32.16a2.217,2.217,0,0,0-.736-.112,2.332,2.332,0,0,0-2.176,1.728V32.192h-1.168Zm6.64-7.808h-1.184v5.04a2.73,2.73,0,0,0,2.832,2.9,2.8,2.8,0,0,0,2.48-1.392V40h1.168V32.192h-1.168v5.776a2.318,2.318,0,0,1-2.048,1.184A2.017,2.017,0,0,1,158.9,36.9Zm7.7,7.808h1.168V34.192a2.14,2.14,0,0,1,1.9-1.152,1.94,1.94,0,0,1,1.936,2.208V40h1.168V34.96a3.238,3.238,0,0,0-.064-.688,2.173,2.173,0,0,1,1.952-1.232c1.184,0,1.92.848,1.92,2.208V40h1.168V34.96a2.657,2.657,0,0,0-2.656-2.9,2.885,2.885,0,0,0-2.608,1.52,2.566,2.566,0,0,0-2.4-1.52,2.674,2.674,0,0,0-2.32,1.344V32.192h-1.168Zm16.5-7.808v.96h1.744V40H186V33.152h2.224v-.96H186V30.5c0-.928.384-1.36,1.28-1.36a3.22,3.22,0,0,1,.944.144V28.224a3.3,3.3,0,0,0-1.056-.144,2.143,2.143,0,0,0-2.336,2.4v1.712Zm5.968,3.9a3.809,3.809,0,1,0,7.6,0,3.807,3.807,0,1,0-7.6,0Zm3.792,3.024a2.753,2.753,0,0,1-2.64-3.008,2.671,2.671,0,1,1,5.3,0A2.774,2.774,0,0,1,192.848,39.12ZM198.7,40h1.168V34.656a2.226,2.226,0,0,1,2.1-1.584,2.919,2.919,0,0,1,.816.144V32.16a2.217,2.217,0,0,0-.736-.112,2.332,2.332,0,0,0-2.176,1.728V32.192H198.7Zm9.952-9.728a.83.83,0,0,0,.832-.848.84.84,0,0,0-1.68,0A.834.834,0,0,0,208.656,30.272Zm.576,1.92h-1.168V40h1.168ZM217.376,40h1.168V28.32l-1.168.24v4.624a3.18,3.18,0,0,0-2.432-1.088,3.8,3.8,0,0,0-3.664,4.016,3.768,3.768,0,0,0,3.6,4,3.077,3.077,0,0,0,2.5-1.152Zm-4.944-3.9a2.774,2.774,0,0,1,4.944-1.92v3.872a2.674,2.674,0,0,1-2.208,1.04A2.8,2.8,0,0,1,212.432,36.1Zm14.96,3.008-.736-.784a3.191,3.191,0,0,1-2.144.8,2.845,2.845,0,0,1-2.784-2.768h6.128V36a3.689,3.689,0,0,0-3.584-3.936,3.8,3.8,0,0,0-3.68,4.032,3.9,3.9,0,0,0,3.872,4.048A4.558,4.558,0,0,0,227.392,39.1Zm-3.136-6.032A2.579,2.579,0,0,1,226.7,35.52H221.76A2.608,2.608,0,0,1,224.256,33.072Zm7.888,7.072a3.352,3.352,0,0,0,2.48-1.056V40h1.152V34.816c0-1.776-1.088-2.752-3.024-2.752a6.689,6.689,0,0,0-2.944.752l.432.9a5.156,5.156,0,0,1,2.368-.672,1.758,1.758,0,0,1,2.016,1.936v1.072a4.521,4.521,0,0,0-2.384-.608c-1.76,0-2.928.928-2.928,2.32C229.312,39.168,230.48,40.144,232.144,40.144Zm-1.712-2.416c0-.864.784-1.44,1.984-1.44a4.122,4.122,0,0,1,2.208.56v1.5a3.091,3.091,0,0,1-2.24.9C231.216,39.248,230.432,38.64,230.432,37.728Zm6.96,1.264a4.451,4.451,0,0,0,3.168,1.152c1.728,0,3.04-1.056,3.04-2.416,0-1.152-.7-1.808-2.272-2.1l-1.312-.24c-1.008-.176-1.344-.48-1.344-1.12,0-.768.672-1.248,1.7-1.248a4.142,4.142,0,0,1,2.448.832l.576-.816a5.048,5.048,0,0,0-2.976-.976c-1.648,0-2.816.944-2.816,2.288,0,1.136.688,1.776,2.208,2.048l1.28.224c.992.192,1.408.528,1.408,1.168,0,.816-.832,1.408-1.968,1.408a4.072,4.072,0,0,1-2.512-.976ZM251.648,40l1.856-6.3L255.36,40H256.5l2.128-7.808h-1.1l-1.616,6.24-1.872-6.24h-1.04l-1.872,6.24-1.632-6.24h-1.136L250.5,40Zm8.624,0h1.168V34.24a2.3,2.3,0,0,1,2.048-1.2,2.024,2.024,0,0,1,2.1,2.24V40h1.168V34.944a2.717,2.717,0,0,0-2.832-2.88,2.813,2.813,0,0,0-2.48,1.392V28.32l-1.168.24Zm15.28-.9-.736-.784a3.19,3.19,0,0,1-2.144.8,2.845,2.845,0,0,1-2.784-2.768h6.128V36a3.689,3.689,0,0,0-3.584-3.936,3.8,3.8,0,0,0-3.68,4.032,3.9,3.9,0,0,0,3.872,4.048A4.558,4.558,0,0,0,275.552,39.1Zm-3.136-6.032a2.579,2.579,0,0,1,2.448,2.448H269.92A2.608,2.608,0,0,1,272.416,33.072Zm5.6,6.928h1.168V34.656a2.226,2.226,0,0,1,2.1-1.584,2.919,2.919,0,0,1,.816.144V32.16a2.217,2.217,0,0,0-.736-.112,2.332,2.332,0,0,0-2.176,1.728V32.192h-1.168Zm11.584-.9-.736-.784a3.19,3.19,0,0,1-2.144.8,2.845,2.845,0,0,1-2.784-2.768h6.128V36a3.689,3.689,0,0,0-3.584-3.936A3.8,3.8,0,0,0,282.8,36.1a3.9,3.9,0,0,0,3.872,4.048A4.558,4.558,0,0,0,289.6,39.1Zm-3.136-6.032a2.579,2.579,0,0,1,2.448,2.448h-4.944A2.608,2.608,0,0,1,286.464,33.072Zm12.9,6.016a2.995,2.995,0,0,1-.016-5.968,3.069,3.069,0,0,1,2.208.976l.752-.816a4.259,4.259,0,0,0-3.008-1.216,4.044,4.044,0,0,0,0,8.08,4.061,4.061,0,0,0,2.96-1.264l-.72-.72A2.876,2.876,0,0,1,299.36,39.088Zm3.984-2.992a3.809,3.809,0,1,0,7.6,0,3.807,3.807,0,1,0-7.6,0Zm3.792,3.024a2.753,2.753,0,0,1-2.64-3.008,2.671,2.671,0,1,1,5.3,0A2.774,2.774,0,0,1,307.136,39.12Zm5.856.88h1.168V34.192a2.14,2.14,0,0,1,1.9-1.152A1.94,1.94,0,0,1,318,35.248V40h1.168V34.96a3.24,3.24,0,0,0-.064-.688,2.172,2.172,0,0,1,1.952-1.232c1.184,0,1.92.848,1.92,2.208V40h1.168V34.96a2.657,2.657,0,0,0-2.656-2.9,2.885,2.885,0,0,0-2.608,1.52,2.566,2.566,0,0,0-2.4-1.52,2.674,2.674,0,0,0-2.32,1.344V32.192h-1.168Zm13.52,0h1.168V34.192a2.14,2.14,0,0,1,1.9-1.152,1.94,1.94,0,0,1,1.936,2.208V40h1.168V34.96a3.24,3.24,0,0,0-.064-.688,2.172,2.172,0,0,1,1.952-1.232c1.184,0,1.92.848,1.92,2.208V40h1.168V34.96a2.657,2.657,0,0,0-2.656-2.9,2.885,2.885,0,0,0-2.608,1.52,2.566,2.566,0,0,0-2.4-1.52,2.674,2.674,0,0,0-2.32,1.344V32.192h-1.168Zm14.576-7.808H339.9v5.04a2.73,2.73,0,0,0,2.832,2.9,2.8,2.8,0,0,0,2.48-1.392V40h1.168V32.192h-1.168v5.776a2.318,2.318,0,0,1-2.048,1.184,2.017,2.017,0,0,1-2.08-2.256Zm7.7,7.808h1.168V34.24A2.3,2.3,0,0,1,352,33.04a2.024,2.024,0,0,1,2.1,2.24V40h1.168V34.944a2.717,2.717,0,0,0-2.832-2.88,2.813,2.813,0,0,0-2.48,1.392V32.192h-1.168Zm9.424-9.728a.83.83,0,0,0,.832-.848.84.84,0,0,0-1.68,0A.834.834,0,0,0,358.208,30.272Zm.576,1.92h-1.168V40h1.168Zm3.328,6.048c0,1.248.7,1.9,2.048,1.9a4.386,4.386,0,0,0,1.36-.208V38.9a2.8,2.8,0,0,1-1.1.208c-.816,0-1.136-.336-1.136-1.168V33.152h2.24v-.96h-2.24V29.776l-1.168.272v2.144H360.5v.96h1.616Zm5.712-7.968a.83.83,0,0,0,.832-.848.84.84,0,0,0-1.68,0A.834.834,0,0,0,367.824,30.272Zm.576,1.92h-1.168V40H368.4Zm8.848,6.912-.736-.784a3.19,3.19,0,0,1-2.144.8,2.845,2.845,0,0,1-2.784-2.768h6.128V36a3.689,3.689,0,0,0-3.584-3.936,3.8,3.8,0,0,0-3.68,4.032,3.9,3.9,0,0,0,3.872,4.048A4.558,4.558,0,0,0,377.248,39.1Zm-3.136-6.032a2.579,2.579,0,0,1,2.448,2.448h-4.944A2.608,2.608,0,0,1,374.112,33.072Zm4.928,5.92a4.451,4.451,0,0,0,3.168,1.152c1.728,0,3.04-1.056,3.04-2.416,0-1.152-.7-1.808-2.272-2.1l-1.312-.24c-1.008-.176-1.344-.48-1.344-1.12,0-.768.672-1.248,1.7-1.248a4.142,4.142,0,0,1,2.448.832l.576-.816a5.048,5.048,0,0,0-2.976-.976c-1.648,0-2.816.944-2.816,2.288,0,1.136.688,1.776,2.208,2.048l1.28.224c.992.192,1.408.528,1.408,1.168,0,.816-.832,1.408-1.968,1.408a4.072,4.072,0,0,1-2.512-.976Zm15.28.1a2.995,2.995,0,0,1-.016-5.968,3.069,3.069,0,0,1,2.208.976l.752-.816a4.259,4.259,0,0,0-3.008-1.216,4.044,4.044,0,0,0,0,8.08,4.061,4.061,0,0,0,2.96-1.264l-.72-.72A2.876,2.876,0,0,1,394.32,39.088Zm6.992,1.056a3.352,3.352,0,0,0,2.48-1.056V40h1.152V34.816c0-1.776-1.088-2.752-3.024-2.752a6.689,6.689,0,0,0-2.944.752l.432.9a5.156,5.156,0,0,1,2.368-.672,1.758,1.758,0,0,1,2.016,1.936v1.072a4.521,4.521,0,0,0-2.384-.608c-1.76,0-2.928.928-2.928,2.32C398.48,39.168,399.648,40.144,401.312,40.144ZM399.6,37.728c0-.864.784-1.44,1.984-1.44a4.122,4.122,0,0,1,2.208.56v1.5a3.091,3.091,0,0,1-2.24.9C400.384,39.248,399.6,38.64,399.6,37.728ZM407.312,40h1.168V34.24a2.3,2.3,0,0,1,2.048-1.2,2.024,2.024,0,0,1,2.1,2.24V40h1.168V34.944a2.717,2.717,0,0,0-2.832-2.88,2.813,2.813,0,0,0-2.48,1.392V32.192h-1.168Zm11.808-7.808v.96h1.744V40h1.168V33.152h2.224v-.96h-2.224V30.5c0-.928.384-1.36,1.28-1.36a3.22,3.22,0,0,1,.944.144V28.224a3.3,3.3,0,0,0-1.056-.144,2.143,2.143,0,0,0-2.336,2.4v1.712Zm5.968,3.9a3.809,3.809,0,1,0,7.6,0,3.807,3.807,0,1,0-7.6,0Zm3.792,3.024a2.753,2.753,0,0,1-2.64-3.008,2.671,2.671,0,1,1,5.3,0A2.774,2.774,0,0,1,428.88,39.12Zm5.856.88H435.9V34.656a2.226,2.226,0,0,1,2.1-1.584,2.919,2.919,0,0,1,.816.144V32.16a2.217,2.217,0,0,0-.736-.112,2.332,2.332,0,0,0-2.176,1.728V32.192h-1.168Zm5.632,0h1.168V34.192a2.14,2.14,0,0,1,1.9-1.152,1.94,1.94,0,0,1,1.936,2.208V40h1.168V34.96a3.24,3.24,0,0,0-.064-.688,2.172,2.172,0,0,1,1.952-1.232c1.184,0,1.92.848,1.92,2.208V40h1.168V34.96a2.657,2.657,0,0,0-2.656-2.9,2.885,2.885,0,0,0-2.608,1.52,2.566,2.566,0,0,0-2.4-1.52,2.674,2.674,0,0,0-2.32,1.344V32.192h-1.168ZM3.616,64.144A3.352,3.352,0,0,0,6.1,63.088V64H7.248V58.816c0-1.776-1.088-2.752-3.024-2.752a6.689,6.689,0,0,0-2.944.752l.432.9A5.156,5.156,0,0,1,4.08,57.04,1.758,1.758,0,0,1,6.1,58.976v1.072a4.521,4.521,0,0,0-2.384-.608c-1.76,0-2.928.928-2.928,2.32C.784,63.168,1.952,64.144,3.616,64.144ZM1.9,61.728c0-.864.784-1.44,1.984-1.44a4.122,4.122,0,0,1,2.208.56v1.5a3.091,3.091,0,0,1-2.24.9C2.688,63.248,1.9,62.64,1.9,61.728ZM9.616,64h1.168V58.656a2.226,2.226,0,0,1,2.1-1.584,2.919,2.919,0,0,1,.816.144V56.16a2.217,2.217,0,0,0-.736-.112,2.332,2.332,0,0,0-2.176,1.728V56.192H9.616ZM14.4,60.1a3.807,3.807,0,1,0,3.792-4.032A3.867,3.867,0,0,0,14.4,60.1Zm3.792,3.024a3.043,3.043,0,0,1,0-6.032,3.04,3.04,0,0,1,0,6.032Zm6.992-6.928H24v5.04a2.73,2.73,0,0,0,2.832,2.9,2.8,2.8,0,0,0,2.48-1.392V64H30.48V56.192H29.312v5.776a2.318,2.318,0,0,1-2.048,1.184,2.017,2.017,0,0,1-2.08-2.256ZM32.88,64h1.168V58.24a2.3,2.3,0,0,1,2.048-1.2,2.024,2.024,0,0,1,2.1,2.24V64H39.36V58.944a2.717,2.717,0,0,0-2.832-2.88,2.813,2.813,0,0,0-2.48,1.392V56.192H32.88Zm14.576,0h1.168V52.32l-1.168.24v4.624A3.18,3.18,0,0,0,45.024,56.1a4.028,4.028,0,0,0-.064,8.016,3.077,3.077,0,0,0,2.5-1.152Zm-4.944-3.9a2.774,2.774,0,0,1,4.944-1.92v3.872a2.674,2.674,0,0,1-2.208,1.04A2.8,2.8,0,0,1,42.512,60.1ZM54,62.992a4.451,4.451,0,0,0,3.168,1.152c1.728,0,3.04-1.056,3.04-2.416,0-1.152-.7-1.808-2.272-2.1l-1.312-.24c-1.008-.176-1.344-.48-1.344-1.12,0-.768.672-1.248,1.7-1.248a4.142,4.142,0,0,1,2.448.832L60,57.04a5.048,5.048,0,0,0-2.976-.976c-1.648,0-2.816.944-2.816,2.288,0,1.136.688,1.776,2.208,2.048l1.28.224c.992.192,1.408.528,1.408,1.168,0,.816-.832,1.408-1.968,1.408a4.072,4.072,0,0,1-2.512-.976Zm7.712-2.9A3.807,3.807,0,1,0,65.5,56.064,3.867,3.867,0,0,0,61.712,60.1ZM65.5,63.12a3.043,3.043,0,0,1,0-6.032,3.04,3.04,0,0,1,0,6.032Zm7.024-10.8-1.168.24V64h1.168ZM77.168,64h1.12L81.5,56.192H80.256l-2.5,6.352-2.528-6.352H73.968Zm6.368-9.728a.83.83,0,0,0,.832-.848.84.84,0,0,0-1.68,0A.834.834,0,0,0,83.536,54.272Zm.576,1.92H82.944V64h1.168ZM86.512,64H87.68V58.24a2.3,2.3,0,0,1,2.048-1.2,2.024,2.024,0,0,1,2.1,2.24V64h1.168V58.944a2.717,2.717,0,0,0-2.832-2.88,2.813,2.813,0,0,0-2.48,1.392V56.192H86.512Zm12.08.1a3.077,3.077,0,0,0,2.5-1.152v1.472c0,1.312-.752,2-2.176,2a5.25,5.25,0,0,1-2.5-.72l-.5.9a6.262,6.262,0,0,0,3.04.816c2.128,0,3.3-1.072,3.3-3.008V56.192H101.1V57.2a3.151,3.151,0,0,0-2.448-1.1,4.019,4.019,0,0,0-.064,8Zm-2.448-4a2.774,2.774,0,0,1,4.944-1.92v3.856a2.687,2.687,0,0,1-2.208,1.056A2.8,2.8,0,0,1,96.144,60.1ZM110.8,64.144a3.352,3.352,0,0,0,2.48-1.056V64h1.152V58.816c0-1.776-1.088-2.752-3.024-2.752a6.689,6.689,0,0,0-2.944.752l.432.9a5.156,5.156,0,0,1,2.368-.672,1.758,1.758,0,0,1,2.016,1.936v1.072a4.521,4.521,0,0,0-2.384-.608c-1.76,0-2.928.928-2.928,2.32C107.968,63.168,109.136,64.144,110.8,64.144Zm-1.712-2.416c0-.864.784-1.44,1.984-1.44a4.122,4.122,0,0,1,2.208.56v1.5a3.091,3.091,0,0,1-2.24.9C109.872,63.248,109.088,62.64,109.088,61.728Zm11.44,5.616H121.7v-4.32a3.166,3.166,0,0,0,2.448,1.088,4.028,4.028,0,0,0,.064-8.016,3.08,3.08,0,0,0-2.528,1.216v-1.12h-1.152ZM123.92,57.12a3,3,0,0,1,0,5.984,2.744,2.744,0,0,1-2.224-1.088V58.192A2.666,2.666,0,0,1,123.92,57.12ZM129.856,64h1.168V58.656a2.226,2.226,0,0,1,2.1-1.584,2.919,2.919,0,0,1,.816.144V56.16a2.217,2.217,0,0,0-.736-.112,2.332,2.332,0,0,0-2.176,1.728V56.192h-1.168Zm4.784-3.9a3.807,3.807,0,1,0,3.792-4.032A3.867,3.867,0,0,0,134.64,60.1Zm3.792,3.024a3.043,3.043,0,0,1,0-6.032,3.04,3.04,0,0,1,0,6.032ZM151.568,60.1a3.768,3.768,0,0,0-3.6-4,3.146,3.146,0,0,0-2.512,1.168V52.32l-1.168.24V64h1.152V62.976a3.161,3.161,0,0,0,2.464,1.136A3.8,3.8,0,0,0,151.568,60.1ZM147.68,57.12a3,3,0,0,1,0,5.984,2.744,2.744,0,0,1-2.224-1.088V58.192A2.666,2.666,0,0,1,147.68,57.12Zm7.1-4.8-1.168.24V64h1.168ZM163.632,63.1l-.736-.784a3.191,3.191,0,0,1-2.144.8,2.845,2.845,0,0,1-2.784-2.768H164.1V60a3.689,3.689,0,0,0-3.584-3.936,3.8,3.8,0,0,0-3.68,4.032,3.9,3.9,0,0,0,3.872,4.048A4.558,4.558,0,0,0,163.632,63.1ZM160.5,57.072a2.579,2.579,0,0,1,2.448,2.448H158A2.608,2.608,0,0,1,160.5,57.072ZM166.1,64h1.168V58.192a2.14,2.14,0,0,1,1.9-1.152,1.94,1.94,0,0,1,1.936,2.208V64h1.168V58.96a3.238,3.238,0,0,0-.064-.688,2.173,2.173,0,0,1,1.952-1.232c1.184,0,1.92.848,1.92,2.208V64h1.168V58.96a2.657,2.657,0,0,0-2.656-2.9,2.885,2.885,0,0,0-2.608,1.52,2.566,2.566,0,0,0-2.4-1.52,2.674,2.674,0,0,0-2.32,1.344V56.192H166.1Zm16.9-3.9a3.807,3.807,0,1,0,3.792-4.032A3.867,3.867,0,0,0,182.992,60.1Zm3.792,3.024a3.043,3.043,0,0,1,0-6.032,3.04,3.04,0,0,1,0,6.032Zm5.856.88h1.168V58.656a2.226,2.226,0,0,1,2.1-1.584,2.919,2.919,0,0,1,.816.144V56.16a2.217,2.217,0,0,0-.736-.112,2.332,2.332,0,0,0-2.176,1.728V56.192H192.64Zm15.1,0h1.168V52.32l-1.168.24v4.624a3.18,3.18,0,0,0-2.432-1.088,4.028,4.028,0,0,0-.064,8.016,3.077,3.077,0,0,0,2.5-1.152ZM202.8,60.1a2.774,2.774,0,0,1,4.944-1.92v3.872a2.674,2.674,0,0,1-2.208,1.04A2.8,2.8,0,0,1,202.8,60.1ZM217.76,63.1l-.736-.784a3.191,3.191,0,0,1-2.144.8,2.845,2.845,0,0,1-2.784-2.768h6.128V60a3.689,3.689,0,0,0-3.584-3.936,3.8,3.8,0,0,0-3.68,4.032,3.9,3.9,0,0,0,3.872,4.048A4.558,4.558,0,0,0,217.76,63.1Zm-3.136-6.032a2.579,2.579,0,0,1,2.448,2.448h-4.944A2.608,2.608,0,0,1,214.624,57.072Zm7.6,6.928h1.12l3.216-7.808h-1.248l-2.5,6.352-2.528-6.352h-1.264Zm11.984-.9-.736-.784a3.191,3.191,0,0,1-2.144.8,2.845,2.845,0,0,1-2.784-2.768h6.128V60a3.689,3.689,0,0,0-3.584-3.936,3.8,3.8,0,0,0-3.68,4.032,3.9,3.9,0,0,0,3.872,4.048A4.558,4.558,0,0,0,234.208,63.1Zm-3.136-6.032a2.579,2.579,0,0,1,2.448,2.448h-4.944A2.608,2.608,0,0,1,231.072,57.072Zm6.768-4.752-1.168.24V64h1.168Zm2.048,7.776a3.807,3.807,0,1,0,3.792-4.032A3.867,3.867,0,0,0,239.888,60.1Zm3.792,3.024a3.043,3.043,0,0,1,0-6.032,3.04,3.04,0,0,1,0,6.032Zm5.856,4.224H250.7v-4.32a3.166,3.166,0,0,0,2.448,1.088,4.028,4.028,0,0,0,.064-8.016,3.08,3.08,0,0,0-2.528,1.216v-1.12h-1.152Zm3.392-10.224a3,3,0,0,1,0,5.984,2.744,2.744,0,0,1-2.224-1.088V58.192A2.666,2.666,0,0,1,252.928,57.12Zm6.528-2.848a.83.83,0,0,0,.832-.848.84.84,0,0,0-1.68,0A.834.834,0,0,0,259.456,54.272Zm.576,1.92h-1.168V64h1.168Zm2.4,7.808H263.6V58.24a2.3,2.3,0,0,1,2.048-1.2,2.024,2.024,0,0,1,2.1,2.24V64h1.168V58.944a2.717,2.717,0,0,0-2.832-2.88,2.813,2.813,0,0,0-2.48,1.392V56.192h-1.168Zm12.08.1a3.077,3.077,0,0,0,2.5-1.152v1.472c0,1.312-.752,2-2.176,2a5.25,5.25,0,0,1-2.5-.72l-.5.9a6.262,6.262,0,0,0,3.04.816c2.128,0,3.3-1.072,3.3-3.008V56.192h-1.152V57.2a3.151,3.151,0,0,0-2.448-1.1,4.019,4.019,0,0,0-.064,8Zm-2.448-4a2.774,2.774,0,0,1,4.944-1.92v3.856a2.687,2.687,0,0,1-2.208,1.056A2.8,2.8,0,0,1,272.064,60.1Zm14.656,4.048a3.352,3.352,0,0,0,2.48-1.056V64h1.152V58.816c0-1.776-1.088-2.752-3.024-2.752a6.689,6.689,0,0,0-2.944.752l.432.9a5.156,5.156,0,0,1,2.368-.672,1.758,1.758,0,0,1,2.016,1.936v1.072a4.521,4.521,0,0,0-2.384-.608c-1.76,0-2.928.928-2.928,2.32C283.888,63.168,285.056,64.144,286.72,64.144Zm-1.712-2.416c0-.864.784-1.44,1.984-1.44a4.122,4.122,0,0,1,2.208.56v1.5a3.091,3.091,0,0,1-2.24.9C285.792,63.248,285.008,62.64,285.008,61.728ZM296.448,64h1.168V58.24a2.3,2.3,0,0,1,2.048-1.2,2.024,2.024,0,0,1,2.1,2.24V64h1.168V58.944a2.717,2.717,0,0,0-2.832-2.88,2.813,2.813,0,0,0-2.48,1.392V56.192h-1.168Zm15.28-.9-.736-.784a3.19,3.19,0,0,1-2.144.8,2.845,2.845,0,0,1-2.784-2.768h6.128V60a3.689,3.689,0,0,0-3.584-3.936,3.8,3.8,0,0,0-3.68,4.032,3.9,3.9,0,0,0,3.872,4.048A4.558,4.558,0,0,0,311.728,63.1Zm-3.136-6.032a2.579,2.579,0,0,1,2.448,2.448H306.1A2.608,2.608,0,0,1,308.592,57.072ZM316.576,64l1.856-6.3,1.856,6.3h1.136l2.128-7.808h-1.1l-1.616,6.24-1.872-6.24h-1.04l-1.872,6.24-1.632-6.24H313.28L315.424,64Zm13.28-1.76c0,1.248.7,1.9,2.048,1.9a4.386,4.386,0,0,0,1.36-.208V62.9a2.8,2.8,0,0,1-1.1.208c-.816,0-1.136-.336-1.136-1.168V57.152h2.24v-.96h-2.24V53.776l-1.168.272v2.144H328.24v.96h1.616Zm11.376.864-.736-.784a3.19,3.19,0,0,1-2.144.8,2.845,2.845,0,0,1-2.784-2.768H341.7V60a3.689,3.689,0,0,0-3.584-3.936,3.8,3.8,0,0,0-3.68,4.032,3.9,3.9,0,0,0,3.872,4.048A4.558,4.558,0,0,0,341.232,63.1ZM338.1,57.072a2.579,2.579,0,0,1,2.448,2.448H335.6A2.608,2.608,0,0,1,338.1,57.072Zm9.184,6.016a2.995,2.995,0,0,1-.016-5.968,3.069,3.069,0,0,1,2.208.976l.752-.816a4.259,4.259,0,0,0-3.008-1.216,4.044,4.044,0,0,0,0,8.08,4.061,4.061,0,0,0,2.96-1.264l-.72-.72A2.876,2.876,0,0,1,347.28,63.088Zm4.576.912h1.168V58.24a2.3,2.3,0,0,1,2.048-1.2,2.024,2.024,0,0,1,2.1,2.24V64h1.168V58.944a2.717,2.717,0,0,0-2.832-2.88,2.813,2.813,0,0,0-2.48,1.392V52.32l-1.168.24Zm8.832,0h1.168V58.24a2.3,2.3,0,0,1,2.048-1.2,2.024,2.024,0,0,1,2.1,2.24V64h1.168V58.944a2.717,2.717,0,0,0-2.832-2.88,2.813,2.813,0,0,0-2.48,1.392V56.192h-1.168Zm8.48-3.9a3.807,3.807,0,1,0,3.792-4.032A3.867,3.867,0,0,0,369.168,60.1Zm3.792,3.024a3.043,3.043,0,0,1,0-6.032,3.04,3.04,0,0,1,0,6.032Zm7.024-10.8-1.168.24V64h1.168Zm2.048,7.776a3.807,3.807,0,1,0,3.792-4.032A3.867,3.867,0,0,0,382.032,60.1Zm3.792,3.024a3.043,3.043,0,0,1,0-6.032,3.04,3.04,0,0,1,0,6.032Zm9.12.976a3.077,3.077,0,0,0,2.5-1.152v1.472c0,1.312-.752,2-2.176,2a5.25,5.25,0,0,1-2.5-.72l-.5.9a6.262,6.262,0,0,0,3.04.816c2.128,0,3.3-1.072,3.3-3.008V56.192h-1.152V57.2a3.151,3.151,0,0,0-2.448-1.1,4.019,4.019,0,0,0-.064,8Zm-2.448-4a2.774,2.774,0,0,1,4.944-1.92v3.856a2.687,2.687,0,0,1-2.208,1.056A2.8,2.8,0,0,1,392.5,60.1Zm10.048,5.152c-.288.7-.656.992-1.248.992a2.719,2.719,0,0,1-.64-.064v1.04a2.679,2.679,0,0,0,.752.112c1.152,0,1.744-.464,2.24-1.728l3.872-9.408h-1.3l-2.512,6.416-2.368-6.416h-1.3l3.008,7.792Zm6.128-2.864a.873.873,0,1,0,.832.864A.857.857,0,0,0,408.672,62.384Zm5.936-8.5h3.872V64h1.232V53.888h3.856V52.8h-8.96ZM425.232,64H426.4V58.24a2.3,2.3,0,0,1,2.048-1.2,2.024,2.024,0,0,1,2.1,2.24V64h1.168V58.944a2.717,2.717,0,0,0-2.832-2.88,2.813,2.813,0,0,0-2.48,1.392V52.32l-1.168.24Zm9.424-9.728a.83.83,0,0,0,.832-.848.84.84,0,0,0-1.68,0A.834.834,0,0,0,434.656,54.272Zm.576,1.92h-1.168V64h1.168Zm1.648,6.8a4.451,4.451,0,0,0,3.168,1.152c1.728,0,3.04-1.056,3.04-2.416,0-1.152-.7-1.808-2.272-2.1l-1.312-.24c-1.008-.176-1.344-.48-1.344-1.12,0-.768.672-1.248,1.7-1.248a4.142,4.142,0,0,1,2.448.832l.576-.816a5.048,5.048,0,0,0-2.976-.976c-1.648,0-2.816.944-2.816,2.288,0,1.136.688,1.776,2.208,2.048l1.28.224c.992.192,1.408.528,1.408,1.168,0,.816-.832,1.408-1.968,1.408a4.072,4.072,0,0,1-2.512-.976ZM1.2,91.344H2.368v-4.32a3.166,3.166,0,0,0,2.448,1.088A4.028,4.028,0,0,0,4.88,80.1a3.08,3.08,0,0,0-2.528,1.216v-1.12H1.2ZM4.592,81.12a3,3,0,0,1,0,5.984,2.744,2.744,0,0,1-2.224-1.088V82.192A2.666,2.666,0,0,1,4.592,81.12ZM10.528,88H11.7V82.24a2.3,2.3,0,0,1,2.048-1.2,2.024,2.024,0,0,1,2.1,2.24V88h1.168V82.944a2.717,2.717,0,0,0-2.832-2.88,2.813,2.813,0,0,0-2.48,1.392V76.32l-1.168.24Zm9.424-9.728a.83.83,0,0,0,.832-.848.84.84,0,0,0-1.68,0A.834.834,0,0,0,19.952,78.272Zm.576,1.92H19.36V88h1.168ZM24.1,76.32l-1.168.24V88H24.1ZM26.144,84.1a3.807,3.807,0,1,0,3.792-4.032A3.867,3.867,0,0,0,26.144,84.1Zm3.792,3.024a3.043,3.043,0,0,1,0-6.032,3.04,3.04,0,0,1,0,6.032Zm5.1-.128a4.451,4.451,0,0,0,3.168,1.152c1.728,0,3.04-1.056,3.04-2.416,0-1.152-.7-1.808-2.272-2.1l-1.312-.24c-1.008-.176-1.344-.48-1.344-1.12,0-.768.672-1.248,1.7-1.248a4.142,4.142,0,0,1,2.448.832l.576-.816a5.048,5.048,0,0,0-2.976-.976c-1.648,0-2.816.944-2.816,2.288,0,1.136.688,1.776,2.208,2.048l1.28.224c.992.192,1.408.528,1.408,1.168,0,.816-.832,1.408-1.968,1.408a4.072,4.072,0,0,1-2.512-.976Zm7.712-2.9a3.807,3.807,0,1,0,3.792-4.032A3.867,3.867,0,0,0,42.752,84.1Zm3.792,3.024a3.043,3.043,0,0,1,0-6.032,3.04,3.04,0,0,1,0,6.032ZM52.4,91.344h1.168v-4.32a3.166,3.166,0,0,0,2.448,1.088A4.028,4.028,0,0,0,56.08,80.1a3.08,3.08,0,0,0-2.528,1.216v-1.12H52.4ZM55.792,81.12a3,3,0,0,1,0,5.984,2.744,2.744,0,0,1-2.224-1.088V82.192A2.666,2.666,0,0,1,55.792,81.12ZM61.728,88H62.9V82.24a2.3,2.3,0,0,1,2.048-1.2,2.024,2.024,0,0,1,2.1,2.24V88h1.168V82.944a2.717,2.717,0,0,0-2.832-2.88,2.813,2.813,0,0,0-2.48,1.392V76.32l-1.168.24Zm10.208,1.248c-.288.7-.656.992-1.248.992a2.719,2.719,0,0,1-.64-.064v1.04a2.679,2.679,0,0,0,.752.112c1.152,0,1.744-.464,2.24-1.728l3.872-9.408h-1.3L73.1,86.608l-2.368-6.416h-1.3l3.008,7.792Zm12.576-1.1a3.352,3.352,0,0,0,2.48-1.056V88h1.152V82.816c0-1.776-1.088-2.752-3.024-2.752a6.689,6.689,0,0,0-2.944.752l.432.9a5.156,5.156,0,0,1,2.368-.672,1.758,1.758,0,0,1,2.016,1.936v1.072a4.521,4.521,0,0,0-2.384-.608c-1.76,0-2.928.928-2.928,2.32C81.68,87.168,82.848,88.144,84.512,88.144ZM82.8,85.728c0-.864.784-1.44,1.984-1.44a4.122,4.122,0,0,1,2.208.56v1.5a3.091,3.091,0,0,1-2.24.9C83.584,87.248,82.8,86.64,82.8,85.728Zm6.72-5.536v.96h1.744V88h1.168V81.152h2.224v-.96H92.432V78.5c0-.928.384-1.36,1.28-1.36a3.22,3.22,0,0,1,.944.144V76.224A3.3,3.3,0,0,0,93.6,76.08a2.143,2.143,0,0,0-2.336,2.4v1.712Zm6.08,0v.96h1.744V88h1.168V81.152h2.224v-.96H98.512V78.5c0-.928.384-1.36,1.28-1.36a3.22,3.22,0,0,1,.944.144V76.224a3.3,3.3,0,0,0-1.056-.144,2.143,2.143,0,0,0-2.336,2.4v1.712ZM108.368,87.1l-.736-.784a3.191,3.191,0,0,1-2.144.8,2.845,2.845,0,0,1-2.784-2.768h6.128V84a3.689,3.689,0,0,0-3.584-3.936,3.8,3.8,0,0,0-3.68,4.032,3.9,3.9,0,0,0,3.872,4.048A4.558,4.558,0,0,0,108.368,87.1Zm-3.136-6.032a2.579,2.579,0,0,1,2.448,2.448h-4.944A2.608,2.608,0,0,1,105.232,81.072Zm9.184,6.016a2.995,2.995,0,0,1-.016-5.968,3.069,3.069,0,0,1,2.208.976l.752-.816a4.259,4.259,0,0,0-3.008-1.216,4.044,4.044,0,0,0,0,8.08,4.061,4.061,0,0,0,2.96-1.264l-.72-.72A2.876,2.876,0,0,1,114.416,87.088Zm5.664-.848c0,1.248.7,1.9,2.048,1.9a4.386,4.386,0,0,0,1.36-.208V86.9a2.8,2.8,0,0,1-1.1.208c-.816,0-1.136-.336-1.136-1.168V81.152h2.24v-.96h-2.24V77.776l-1.168.272v2.144h-1.616v.96h1.616Zm4.528.752a4.451,4.451,0,0,0,3.168,1.152c1.728,0,3.04-1.056,3.04-2.416,0-1.152-.7-1.808-2.272-2.1l-1.312-.24c-1.008-.176-1.344-.48-1.344-1.12,0-.768.672-1.248,1.7-1.248a4.142,4.142,0,0,1,2.448.832l.576-.816a5.048,5.048,0,0,0-2.976-.976c-1.648,0-2.816.944-2.816,2.288,0,1.136.688,1.776,2.208,2.048l1.28.224c.992.192,1.408.528,1.408,1.168,0,.816-.832,1.408-1.968,1.408a4.072,4.072,0,0,1-2.512-.976Zm18.16.112-.736-.784a3.191,3.191,0,0,1-2.144.8,2.845,2.845,0,0,1-2.784-2.768h6.128V84a3.689,3.689,0,0,0-3.584-3.936,3.8,3.8,0,0,0-3.68,4.032,3.9,3.9,0,0,0,3.872,4.048A4.558,4.558,0,0,0,142.768,87.1Zm-3.136-6.032a2.579,2.579,0,0,1,2.448,2.448h-4.944A2.608,2.608,0,0,1,139.632,81.072Zm7.6,6.928h1.12l3.216-7.808H150.32l-2.5,6.352L145.3,80.192h-1.264Zm11.984-.9-.736-.784a3.191,3.191,0,0,1-2.144.8,2.845,2.845,0,0,1-2.784-2.768h6.128V84a3.689,3.689,0,0,0-3.584-3.936,3.8,3.8,0,0,0-3.68,4.032,3.9,3.9,0,0,0,3.872,4.048A4.558,4.558,0,0,0,159.216,87.1Zm-3.136-6.032a2.579,2.579,0,0,1,2.448,2.448h-4.944A2.608,2.608,0,0,1,156.08,81.072ZM161.68,88h1.168V82.656a2.226,2.226,0,0,1,2.1-1.584,2.919,2.919,0,0,1,.816.144V80.16a2.217,2.217,0,0,0-.736-.112,2.332,2.332,0,0,0-2.176,1.728V80.192H161.68Zm7.328,1.248c-.288.7-.656.992-1.248.992a2.719,2.719,0,0,1-.64-.064v1.04a2.679,2.679,0,0,0,.752.112c1.152,0,1.744-.464,2.24-1.728l3.872-9.408h-1.3l-2.512,6.416-2.368-6.416h-1.3l3.008,7.792Zm7.6-3.008c0,1.248.7,1.9,2.048,1.9a4.385,4.385,0,0,0,1.36-.208V86.9a2.8,2.8,0,0,1-1.1.208c-.816,0-1.136-.336-1.136-1.168V81.152h2.24v-.96h-2.24V77.776l-1.168.272v2.144h-1.616v.96h1.616Zm5.12,1.76H182.9V82.24a2.3,2.3,0,0,1,2.048-1.2,2.024,2.024,0,0,1,2.1,2.24V88h1.168V82.944a2.717,2.717,0,0,0-2.832-2.88,2.813,2.813,0,0,0-2.48,1.392V76.32l-1.168.24Zm9.424-9.728a.83.83,0,0,0,.832-.848.84.84,0,0,0-1.68,0A.834.834,0,0,0,191.152,78.272Zm.576,1.92H190.56V88h1.168Zm2.4,7.808H195.3V82.24a2.3,2.3,0,0,1,2.048-1.2,2.024,2.024,0,0,1,2.1,2.24V88h1.168V82.944a2.717,2.717,0,0,0-2.832-2.88,2.813,2.813,0,0,0-2.48,1.392V80.192h-1.168Zm12.08.1a3.077,3.077,0,0,0,2.5-1.152v1.472c0,1.312-.752,2-2.176,2a5.25,5.25,0,0,1-2.5-.72l-.5.9a6.262,6.262,0,0,0,3.04.816c2.128,0,3.3-1.072,3.3-3.008V80.192H208.72V81.2a3.151,3.151,0,0,0-2.448-1.1,4.019,4.019,0,0,0-.064,8Zm-2.448-4a2.774,2.774,0,0,1,4.944-1.92v3.856a2.687,2.687,0,0,1-2.208,1.056A2.8,2.8,0,0,1,203.76,84.1ZM218.544,88l1.856-6.3,1.856,6.3h1.136l2.128-7.808h-1.1l-1.616,6.24-1.872-6.24h-1.04l-1.872,6.24-1.632-6.24h-1.136L217.392,88Zm14.912-.9-.736-.784a3.191,3.191,0,0,1-2.144.8,2.845,2.845,0,0,1-2.784-2.768h6.128V84a3.689,3.689,0,0,0-3.584-3.936,3.8,3.8,0,0,0-3.68,4.032,3.9,3.9,0,0,0,3.872,4.048A4.558,4.558,0,0,0,233.456,87.1Zm-3.136-6.032a2.579,2.579,0,0,1,2.448,2.448h-4.944A2.608,2.608,0,0,1,230.32,81.072ZM245.392,88h1.168V76.32l-1.168.24v4.624A3.18,3.18,0,0,0,242.96,80.1a4.028,4.028,0,0,0-.064,8.016,3.077,3.077,0,0,0,2.5-1.152Zm-4.944-3.9a2.774,2.774,0,0,1,4.944-1.92v3.872a2.674,2.674,0,0,1-2.208,1.04A2.8,2.8,0,0,1,240.448,84.1Zm8.16,0a3.807,3.807,0,1,0,3.792-4.032A3.867,3.867,0,0,0,248.608,84.1ZM252.4,87.12a3.043,3.043,0,0,1,0-6.032,3.04,3.04,0,0,1,0,6.032Zm12,1.024a3.352,3.352,0,0,0,2.48-1.056V88h1.152V82.816c0-1.776-1.088-2.752-3.024-2.752a6.689,6.689,0,0,0-2.944.752l.432.9a5.156,5.156,0,0,1,2.368-.672,1.758,1.758,0,0,1,2.016,1.936v1.072a4.521,4.521,0,0,0-2.384-.608c-1.76,0-2.928.928-2.928,2.32C261.568,87.168,262.736,88.144,264.4,88.144Zm-1.712-2.416c0-.864.784-1.44,1.984-1.44a4.122,4.122,0,0,1,2.208.56v1.5a3.091,3.091,0,0,1-2.24.9C263.472,87.248,262.688,86.64,262.688,85.728Zm8.4.512c0,1.248.7,1.9,2.048,1.9a4.386,4.386,0,0,0,1.36-.208V86.9a2.8,2.8,0,0,1-1.1.208c-.816,0-1.136-.336-1.136-1.168V81.152h2.24v-.96h-2.24V77.776l-1.168.272v2.144h-1.616v.96h1.616ZM280.16,88h1.232V83.216h3.344L287.008,88h1.36l-2.384-4.944a3.048,3.048,0,0,0,2.336-3.024c0-1.936-1.424-3.232-3.568-3.232H280.16Zm4.5-10.112a2.168,2.168,0,1,1,0,4.3h-3.264v-4.3Zm11.68,9.216-.736-.784a3.19,3.19,0,0,1-2.144.8,2.845,2.845,0,0,1-2.784-2.768H296.8V84a3.689,3.689,0,0,0-3.584-3.936,3.8,3.8,0,0,0-3.68,4.032,3.9,3.9,0,0,0,3.872,4.048A4.558,4.558,0,0,0,296.336,87.1ZM293.2,81.072a2.579,2.579,0,0,1,2.448,2.448H290.7A2.608,2.608,0,0,1,293.2,81.072ZM304.56,88h1.168V76.32l-1.168.24v4.624a3.18,3.18,0,0,0-2.432-1.088,4.028,4.028,0,0,0-.064,8.016,3.077,3.077,0,0,0,2.5-1.152Zm-4.944-3.9a2.774,2.774,0,0,1,4.944-1.92v3.872a2.674,2.674,0,0,1-2.208,1.04A2.8,2.8,0,0,1,299.616,84.1ZM312.064,88H313.3V82.912h6.432V88h1.232V76.8h-1.232v5.008H313.3V76.8h-1.232Zm13.744.144a3.352,3.352,0,0,0,2.48-1.056V88h1.152V82.816c0-1.776-1.088-2.752-3.024-2.752a6.689,6.689,0,0,0-2.944.752l.432.9a5.156,5.156,0,0,1,2.368-.672,1.758,1.758,0,0,1,2.016,1.936v1.072a4.521,4.521,0,0,0-2.384-.608c-1.76,0-2.928.928-2.928,2.32C322.976,87.168,324.144,88.144,325.808,88.144ZM324.1,85.728c0-.864.784-1.44,1.984-1.44a4.122,4.122,0,0,1,2.208.56v1.5a3.091,3.091,0,0,1-2.24.9C324.88,87.248,324.1,86.64,324.1,85.728Zm8.4.512c0,1.248.7,1.9,2.048,1.9a4.386,4.386,0,0,0,1.36-.208V86.9a2.8,2.8,0,0,1-1.1.208c-.816,0-1.136-.336-1.136-1.168V81.152h2.24v-.96h-2.24V77.776l-1.168.272v2.144H330.88v.96H332.5Zm5.68.144a.873.873,0,1,0,.832.864A.857.857,0,0,0,338.176,86.384ZM343.808,88h1.3l1.328-3.52h4.992L352.752,88h1.328l-4.368-11.2H348.24Zm3.008-4.5,2.112-5.6,2.128,5.6Zm8.608,4.5h1.168V82.24a2.3,2.3,0,0,1,2.048-1.2,2.024,2.024,0,0,1,2.1,2.24V88H361.9V82.944a2.717,2.717,0,0,0-2.832-2.88,2.813,2.813,0,0,0-2.48,1.392V80.192h-1.168ZM370,88h1.168V76.32L370,76.56v4.624a3.18,3.18,0,0,0-2.432-1.088,4.028,4.028,0,0,0-.064,8.016A3.077,3.077,0,0,0,370,86.96Zm-4.944-3.9A2.774,2.774,0,0,1,370,82.176v3.872a2.674,2.674,0,0,1-2.208,1.04A2.8,2.8,0,0,1,365.056,84.1ZM379.84,88l1.856-6.3,1.856,6.3h1.136l2.128-7.808h-1.1l-1.616,6.24-1.872-6.24h-1.04l-1.872,6.24-1.632-6.24h-1.136L378.688,88Zm14.912-.9-.736-.784a3.19,3.19,0,0,1-2.144.8,2.845,2.845,0,0,1-2.784-2.768h6.128V84a3.689,3.689,0,0,0-3.584-3.936,3.8,3.8,0,0,0-3.68,4.032,3.9,3.9,0,0,0,3.872,4.048A4.558,4.558,0,0,0,394.752,87.1Zm-3.136-6.032a2.579,2.579,0,0,1,2.448,2.448H389.12A2.608,2.608,0,0,1,391.616,81.072ZM397.456,76l-.96,3.7h.912l1.3-3.7Zm2.64,12h1.168V82.656a2.226,2.226,0,0,1,2.1-1.584,2.919,2.919,0,0,1,.816.144V80.16a2.217,2.217,0,0,0-.736-.112,2.332,2.332,0,0,0-2.176,1.728V80.192H400.1Zm11.584-.9-.736-.784a3.19,3.19,0,0,1-2.144.8,2.845,2.845,0,0,1-2.784-2.768h6.128V84a3.689,3.689,0,0,0-3.584-3.936,3.8,3.8,0,0,0-3.68,4.032,3.9,3.9,0,0,0,3.872,4.048A4.558,4.558,0,0,0,411.68,87.1Zm-3.136-6.032a2.579,2.579,0,0,1,2.448,2.448h-4.944A2.608,2.608,0,0,1,408.544,81.072ZM417.872,88h1.168V82.24a2.3,2.3,0,0,1,2.048-1.2,2.024,2.024,0,0,1,2.1,2.24V88h1.168V82.944a2.717,2.717,0,0,0-2.832-2.88,2.813,2.813,0,0,0-2.48,1.392V80.192h-1.168Zm8.48-3.9a3.807,3.807,0,1,0,3.792-4.032A3.867,3.867,0,0,0,426.352,84.1Zm3.792,3.024a3.043,3.043,0,0,1,0-6.032,3.04,3.04,0,0,1,0,6.032Zm6.288-.88c0,1.248.7,1.9,2.048,1.9a4.386,4.386,0,0,0,1.36-.208V86.9a2.8,2.8,0,0,1-1.1.208c-.816,0-1.136-.336-1.136-1.168V81.152h2.24v-.96H437.6V77.776l-1.168.272v2.144h-1.616v.96h1.616ZM3.616,112.144a3.352,3.352,0,0,0,2.48-1.056V112H7.248v-5.184c0-1.776-1.088-2.752-3.024-2.752a6.689,6.689,0,0,0-2.944.752l.432.9a5.156,5.156,0,0,1,2.368-.672A1.758,1.758,0,0,1,6.1,106.976v1.072a4.521,4.521,0,0,0-2.384-.608c-1.76,0-2.928.928-2.928,2.32C.784,111.168,1.952,112.144,3.616,112.144ZM1.9,109.728c0-.864.784-1.44,1.984-1.44a4.122,4.122,0,0,1,2.208.56v1.5a3.091,3.091,0,0,1-2.24.9C2.688,111.248,1.9,110.64,1.9,109.728Zm8.88-9.408-1.168.24V112h1.168Zm2.048,7.776a3.807,3.807,0,1,0,3.792-4.032A3.867,3.867,0,0,0,12.832,108.1Zm3.792,3.024a3.043,3.043,0,0,1,0-6.032,3.04,3.04,0,0,1,0,6.032Zm5.856.88h1.168v-5.76a2.3,2.3,0,0,1,2.048-1.2,2.024,2.024,0,0,1,2.1,2.24V112H28.96v-5.056a2.717,2.717,0,0,0-2.832-2.88,2.813,2.813,0,0,0-2.48,1.392v-1.264H22.48Zm15.28-.9-.736-.784a3.191,3.191,0,0,1-2.144.8,2.845,2.845,0,0,1-2.784-2.768h6.128V108a3.689,3.689,0,0,0-3.584-3.936,3.8,3.8,0,0,0-3.68,4.032,3.9,3.9,0,0,0,3.872,4.048A4.558,4.558,0,0,0,37.76,111.1Zm-3.136-6.032a2.579,2.579,0,0,1,2.448,2.448H32.128A2.608,2.608,0,0,1,34.624,105.072Zm5.76,5.312a.873.873,0,1,0,.832.864A.857.857,0,0,0,40.384,110.384Zm12.368.816,4.288-8.944V112h1.168V100.8H56.5l-3.744,7.968L49.008,100.8H47.3V112h1.152v-9.776Zm7.744-3.1a3.807,3.807,0,1,0,3.792-4.032A3.867,3.867,0,0,0,60.5,108.1Zm3.792,3.024a3.043,3.043,0,0,1,0-6.032,3.04,3.04,0,0,1,0,6.032Zm5.1-.128a4.451,4.451,0,0,0,3.168,1.152c1.728,0,3.04-1.056,3.04-2.416,0-1.152-.7-1.808-2.272-2.1l-1.312-.24c-1.008-.176-1.344-.48-1.344-1.12,0-.768.672-1.248,1.7-1.248a4.142,4.142,0,0,1,2.448.832l.576-.816a5.048,5.048,0,0,0-2.976-.976c-1.648,0-2.816.944-2.816,2.288,0,1.136.688,1.776,2.208,2.048l1.28.224c.992.192,1.408.528,1.408,1.168,0,.816-.832,1.408-1.968,1.408a4.072,4.072,0,0,1-2.512-.976Zm8.752-.752c0,1.248.7,1.9,2.048,1.9a4.386,4.386,0,0,0,1.36-.208V110.9a2.8,2.8,0,0,1-1.1.208c-.816,0-1.136-.336-1.136-1.168v-4.784h2.24v-.96h-2.24v-2.416l-1.168.272v2.144H76.528v.96h1.616Zm8.5-2.144a3.807,3.807,0,1,0,3.792-4.032A3.867,3.867,0,0,0,86.64,108.1Zm3.792,3.024a3.043,3.043,0,0,1,0-6.032,3.04,3.04,0,0,1,0,6.032Zm4.608-6.928v.96h1.744V112h1.168v-6.848h2.224v-.96H97.952v-1.7c0-.928.384-1.36,1.28-1.36a3.22,3.22,0,0,1,.944.144v-1.056a3.3,3.3,0,0,0-1.056-.144,2.143,2.143,0,0,0-2.336,2.4v1.712Zm11.328,6.048c0,1.248.7,1.9,2.048,1.9a4.386,4.386,0,0,0,1.36-.208V110.9a2.8,2.8,0,0,1-1.1.208c-.816,0-1.136-.336-1.136-1.168v-4.784h2.24v-.96h-2.24v-2.416l-1.168.272v2.144h-1.616v.96h1.616Zm4.576-2.144a3.807,3.807,0,1,0,3.792-4.032A3.867,3.867,0,0,0,110.944,108.1Zm3.792,3.024a3.043,3.043,0,0,1,0-6.032,3.04,3.04,0,0,1,0,6.032Zm11.616.88h1.168V100.32l-1.168.24v4.624a3.18,3.18,0,0,0-2.432-1.088,4.028,4.028,0,0,0-.064,8.016,3.077,3.077,0,0,0,2.5-1.152Zm-4.944-3.9a2.774,2.774,0,0,1,4.944-1.92v3.872a2.674,2.674,0,0,1-2.208,1.04A2.8,2.8,0,0,1,121.408,108.1Zm10.928,4.048a3.352,3.352,0,0,0,2.48-1.056V112h1.152v-5.184c0-1.776-1.088-2.752-3.024-2.752a6.689,6.689,0,0,0-2.944.752l.432.9a5.156,5.156,0,0,1,2.368-.672,1.758,1.758,0,0,1,2.016,1.936v1.072a4.521,4.521,0,0,0-2.384-.608c-1.76,0-2.928.928-2.928,2.32C129.5,111.168,130.672,112.144,132.336,112.144Zm-1.712-2.416c0-.864.784-1.44,1.984-1.44a4.122,4.122,0,0,1,2.208.56v1.5a3.091,3.091,0,0,1-2.24.9C131.408,111.248,130.624,110.64,130.624,109.728Zm9.088,3.52c-.288.7-.656.992-1.248.992a2.719,2.719,0,0,1-.64-.064v1.04a2.679,2.679,0,0,0,.752.112c1.152,0,1.744-.464,2.24-1.728l3.872-9.408h-1.3l-2.512,6.416-2.368-6.416h-1.3l3.008,7.792ZM147.392,100l-.96,3.7h.912l1.3-3.7Zm1.5,10.992a4.451,4.451,0,0,0,3.168,1.152c1.728,0,3.04-1.056,3.04-2.416,0-1.152-.7-1.808-2.272-2.1l-1.312-.24c-1.008-.176-1.344-.48-1.344-1.12,0-.768.672-1.248,1.7-1.248a4.142,4.142,0,0,1,2.448.832l.576-.816a5.048,5.048,0,0,0-2.976-.976c-1.648,0-2.816.944-2.816,2.288,0,1.136.688,1.776,2.208,2.048l1.28.224c.992.192,1.408.528,1.408,1.168,0,.816-.832,1.408-1.968,1.408a4.072,4.072,0,0,1-2.512-.976ZM160.8,112h1.232V100.8H160.8Zm3.088-10.112h3.872V112h1.232V101.888h3.856V100.8h-8.96Zm15.52-1.568-1.168.24V112h1.168Zm8.848,10.784-.736-.784a3.191,3.191,0,0,1-2.144.8,2.845,2.845,0,0,1-2.784-2.768h6.128V108a3.689,3.689,0,0,0-3.584-3.936,3.8,3.8,0,0,0-3.68,4.032,3.9,3.9,0,0,0,3.872,4.048A4.558,4.558,0,0,0,188.256,111.1Zm-3.136-6.032a2.579,2.579,0,0,1,2.448,2.448h-4.944A2.608,2.608,0,0,1,185.12,105.072Zm7.888,7.072a3.352,3.352,0,0,0,2.48-1.056V112h1.152v-5.184c0-1.776-1.088-2.752-3.024-2.752a6.689,6.689,0,0,0-2.944.752l.432.9a5.156,5.156,0,0,1,2.368-.672,1.758,1.758,0,0,1,2.016,1.936v1.072a4.521,4.521,0,0,0-2.384-.608c-1.76,0-2.928.928-2.928,2.32C190.176,111.168,191.344,112.144,193.008,112.144Zm-1.712-2.416c0-.864.784-1.44,1.984-1.44a4.122,4.122,0,0,1,2.208.56v1.5a3.091,3.091,0,0,1-2.24.9C192.08,111.248,191.3,110.64,191.3,109.728ZM204.752,112h1.168V100.32l-1.168.24v4.624a3.18,3.18,0,0,0-2.432-1.088,4.028,4.028,0,0,0-.064,8.016,3.077,3.077,0,0,0,2.5-1.152Zm-4.944-3.9a2.774,2.774,0,0,1,4.944-1.92v3.872a2.674,2.674,0,0,1-2.208,1.04A2.8,2.8,0,0,1,199.808,108.1Zm14.96,3.008-.736-.784a3.191,3.191,0,0,1-2.144.8,2.845,2.845,0,0,1-2.784-2.768h6.128V108a3.689,3.689,0,0,0-3.584-3.936,3.8,3.8,0,0,0-3.68,4.032,3.9,3.9,0,0,0,3.872,4.048A4.558,4.558,0,0,0,214.768,111.1Zm-3.136-6.032a2.579,2.579,0,0,1,2.448,2.448h-4.944A2.608,2.608,0,0,1,211.632,105.072Zm5.6,6.928H218.4v-5.344a2.226,2.226,0,0,1,2.1-1.584,2.919,2.919,0,0,1,.816.144V104.16a2.217,2.217,0,0,0-.736-.112,2.332,2.332,0,0,0-2.176,1.728v-1.584h-1.168Zm4.784-1.008a4.451,4.451,0,0,0,3.168,1.152c1.728,0,3.04-1.056,3.04-2.416,0-1.152-.7-1.808-2.272-2.1l-1.312-.24c-1.008-.176-1.344-.48-1.344-1.12,0-.768.672-1.248,1.7-1.248a4.142,4.142,0,0,1,2.448.832l.576-.816a5.048,5.048,0,0,0-2.976-.976c-1.648,0-2.816.944-2.816,2.288,0,1.136.688,1.776,2.208,2.048l1.28.224c.992.192,1.408.528,1.408,1.168,0,.816-.832,1.408-1.968,1.408a4.072,4.072,0,0,1-2.512-.976Zm14.128,1.152a3.352,3.352,0,0,0,2.48-1.056V112h1.152v-5.184c0-1.776-1.088-2.752-3.024-2.752a6.689,6.689,0,0,0-2.944.752l.432.9a5.156,5.156,0,0,1,2.368-.672,1.758,1.758,0,0,1,2.016,1.936v1.072a4.521,4.521,0,0,0-2.384-.608c-1.76,0-2.928.928-2.928,2.32C233.312,111.168,234.48,112.144,236.144,112.144Zm-1.712-2.416c0-.864.784-1.44,1.984-1.44a4.122,4.122,0,0,1,2.208.56v1.5a3.091,3.091,0,0,1-2.24.9C235.216,111.248,234.432,110.64,234.432,109.728Zm10.96,2.368a3.077,3.077,0,0,0,2.5-1.152v1.472c0,1.312-.752,2-2.176,2a5.25,5.25,0,0,1-2.5-.72l-.5.9a6.262,6.262,0,0,0,3.04.816c2.128,0,3.3-1.072,3.3-3.008v-8.208H247.9V105.2a3.151,3.151,0,0,0-2.448-1.1,4.019,4.019,0,0,0-.064,8Zm-2.448-4a2.774,2.774,0,0,1,4.944-1.92v3.856a2.687,2.687,0,0,1-2.208,1.056A2.8,2.8,0,0,1,242.944,108.1Zm8.512,3.9h1.168v-5.344a2.226,2.226,0,0,1,2.1-1.584,2.919,2.919,0,0,1,.816.144V104.16a2.217,2.217,0,0,0-.736-.112,2.332,2.332,0,0,0-2.176,1.728v-1.584h-1.168Zm11.584-.9-.736-.784a3.19,3.19,0,0,1-2.144.8,2.845,2.845,0,0,1-2.784-2.768H263.5V108a3.689,3.689,0,0,0-3.584-3.936,3.8,3.8,0,0,0-3.68,4.032,3.9,3.9,0,0,0,3.872,4.048A4.558,4.558,0,0,0,263.04,111.1Zm-3.136-6.032a2.579,2.579,0,0,1,2.448,2.448h-4.944A2.608,2.608,0,0,1,259.9,105.072Zm12.064,6.032-.736-.784a3.19,3.19,0,0,1-2.144.8,2.845,2.845,0,0,1-2.784-2.768h6.128V108a3.689,3.689,0,0,0-3.584-3.936,3.8,3.8,0,0,0-3.68,4.032,3.9,3.9,0,0,0,3.872,4.048A4.558,4.558,0,0,0,271.968,111.1Zm-3.136-6.032a2.579,2.579,0,0,1,2.448,2.448h-4.944A2.608,2.608,0,0,1,268.832,105.072Zm10.256,5.168c0,1.248.7,1.9,2.048,1.9a4.386,4.386,0,0,0,1.36-.208V110.9a2.8,2.8,0,0,1-1.1.208c-.816,0-1.136-.336-1.136-1.168v-4.784h2.24v-.96h-2.24v-2.416l-1.168.272v2.144h-1.616v.96h1.616Zm5.12,1.76h1.168v-5.76a2.3,2.3,0,0,1,2.048-1.2,2.024,2.024,0,0,1,2.1,2.24V112h1.168v-5.056a2.717,2.717,0,0,0-2.832-2.88,2.813,2.813,0,0,0-2.48,1.392V100.32l-1.168.24Zm11.248.144a3.352,3.352,0,0,0,2.48-1.056V112h1.152v-5.184c0-1.776-1.088-2.752-3.024-2.752a6.689,6.689,0,0,0-2.944.752l.432.9a5.156,5.156,0,0,1,2.368-.672,1.758,1.758,0,0,1,2.016,1.936v1.072a4.521,4.521,0,0,0-2.384-.608c-1.76,0-2.928.928-2.928,2.32C292.624,111.168,293.792,112.144,295.456,112.144Zm-1.712-2.416c0-.864.784-1.44,1.984-1.44a4.122,4.122,0,0,1,2.208.56v1.5a3.091,3.091,0,0,1-2.24.9C294.528,111.248,293.744,110.64,293.744,109.728Zm8.4.512c0,1.248.7,1.9,2.048,1.9a4.386,4.386,0,0,0,1.36-.208V110.9a2.8,2.8,0,0,1-1.1.208c-.816,0-1.136-.336-1.136-1.168v-4.784h2.24v-.96h-2.24v-2.416l-1.168.272v2.144h-1.616v.96h1.616Zm15.3.864-.736-.784a3.19,3.19,0,0,1-2.144.8,2.845,2.845,0,0,1-2.784-2.768H317.9V108a3.689,3.689,0,0,0-3.584-3.936,3.8,3.8,0,0,0-3.68,4.032,3.9,3.9,0,0,0,3.872,4.048A4.558,4.558,0,0,0,317.44,111.1Zm-3.136-6.032a2.579,2.579,0,0,1,2.448,2.448h-4.944A2.608,2.608,0,0,1,314.3,105.072ZM319.9,112h1.168v-5.76a2.3,2.3,0,0,1,2.048-1.2,2.024,2.024,0,0,1,2.1,2.24V112h1.168v-5.056a2.717,2.717,0,0,0-2.832-2.88,2.813,2.813,0,0,0-2.48,1.392v-1.264H319.9Zm9.52-1.76c0,1.248.7,1.9,2.048,1.9a4.386,4.386,0,0,0,1.36-.208V110.9a2.8,2.8,0,0,1-1.1.208c-.816,0-1.136-.336-1.136-1.168v-4.784h2.24v-.96h-2.24v-2.416l-1.168.272v2.144h-1.616v.96h1.616Zm11.376.864-.736-.784a3.19,3.19,0,0,1-2.144.8,2.845,2.845,0,0,1-2.784-2.768h6.128V108a3.689,3.689,0,0,0-3.584-3.936A3.8,3.8,0,0,0,334,108.1a3.9,3.9,0,0,0,3.872,4.048A4.558,4.558,0,0,0,340.8,111.1Zm-3.136-6.032a2.579,2.579,0,0,1,2.448,2.448h-4.944A2.608,2.608,0,0,1,337.664,105.072Zm5.6,6.928h1.168v-5.344a2.226,2.226,0,0,1,2.1-1.584,2.919,2.919,0,0,1,.816.144V104.16a2.217,2.217,0,0,0-.736-.112,2.332,2.332,0,0,0-2.176,1.728v-1.584h-1.168Zm5.632,3.344h1.168v-4.32a3.166,3.166,0,0,0,2.448,1.088,4.028,4.028,0,0,0,.064-8.016,3.08,3.08,0,0,0-2.528,1.216v-1.12H348.9Zm3.392-10.224a3,3,0,0,1,0,5.984,2.744,2.744,0,0,1-2.224-1.088v-3.824A2.666,2.666,0,0,1,352.288,105.12Zm5.936,6.88h1.168v-5.344a2.226,2.226,0,0,1,2.1-1.584,2.919,2.919,0,0,1,.816.144V104.16a2.217,2.217,0,0,0-.736-.112,2.332,2.332,0,0,0-2.176,1.728v-1.584h-1.168Zm6.224-9.728a.83.83,0,0,0,.832-.848.84.84,0,0,0-1.68,0A.834.834,0,0,0,364.448,102.272Zm.576,1.92h-1.168V112h1.168Zm1.648,6.8a4.451,4.451,0,0,0,3.168,1.152c1.728,0,3.04-1.056,3.04-2.416,0-1.152-.7-1.808-2.272-2.1l-1.312-.24c-1.008-.176-1.344-.48-1.344-1.12,0-.768.672-1.248,1.7-1.248a4.142,4.142,0,0,1,2.448.832l.576-.816a5.048,5.048,0,0,0-2.976-.976c-1.648,0-2.816.944-2.816,2.288,0,1.136.688,1.776,2.208,2.048l1.28.224c.992.192,1.408.528,1.408,1.168,0,.816-.832,1.408-1.968,1.408a4.072,4.072,0,0,1-2.512-.976Zm14.512.112-.736-.784a3.19,3.19,0,0,1-2.144.8,2.845,2.845,0,0,1-2.784-2.768h6.128V108a3.689,3.689,0,0,0-3.584-3.936,3.8,3.8,0,0,0-3.68,4.032,3.9,3.9,0,0,0,3.872,4.048A4.558,4.558,0,0,0,381.184,111.1Zm-3.136-6.032a2.579,2.579,0,0,1,2.448,2.448h-4.944A2.608,2.608,0,0,1,378.048,105.072Zm8.976,3.024a3.807,3.807,0,1,0,3.792-4.032A3.867,3.867,0,0,0,387.024,108.1Zm3.792,3.024a3.043,3.043,0,0,1,0-6.032,3.04,3.04,0,0,1,0,6.032Zm5.856,4.224h1.168v-4.32a3.166,3.166,0,0,0,2.448,1.088,4.028,4.028,0,0,0,.064-8.016,3.08,3.08,0,0,0-2.528,1.216v-1.12h-1.152Zm3.392-10.224a3,3,0,0,1,0,5.984,2.744,2.744,0,0,1-2.224-1.088v-3.824A2.666,2.666,0,0,1,400.064,105.12Zm12.4,5.984-.736-.784a3.19,3.19,0,0,1-2.144.8,2.845,2.845,0,0,1-2.784-2.768h6.128V108a3.689,3.689,0,0,0-3.584-3.936,3.8,3.8,0,0,0-3.68,4.032,3.9,3.9,0,0,0,3.872,4.048A4.558,4.558,0,0,0,412.464,111.1Zm-3.136-6.032a2.579,2.579,0,0,1,2.448,2.448h-4.944A2.608,2.608,0,0,1,409.328,105.072Zm5.6,6.928H416.1v-5.76a2.3,2.3,0,0,1,2.048-1.2,2.024,2.024,0,0,1,2.1,2.24V112h1.168v-5.056a2.717,2.717,0,0,0-2.832-2.88,2.813,2.813,0,0,0-2.48,1.392v-1.264h-1.168ZM.448,134.992a4.451,4.451,0,0,0,3.168,1.152c1.728,0,3.04-1.056,3.04-2.416,0-1.152-.7-1.808-2.272-2.1l-1.312-.24c-1.008-.176-1.344-.48-1.344-1.12,0-.768.672-1.248,1.7-1.248a4.142,4.142,0,0,1,2.448.832l.576-.816a5.048,5.048,0,0,0-2.976-.976c-1.648,0-2.816.944-2.816,2.288,0,1.136.688,1.776,2.208,2.048l1.28.224c.992.192,1.408.528,1.408,1.168,0,.816-.832,1.408-1.968,1.408a4.072,4.072,0,0,1-2.512-.976Zm7.712-2.9a3.807,3.807,0,1,0,3.792-4.032A3.867,3.867,0,0,0,8.16,132.1Zm3.792,3.024a3.043,3.043,0,0,1,0-6.032,3.04,3.04,0,0,1,0,6.032Zm6.992-6.928H17.76v5.04a2.73,2.73,0,0,0,2.832,2.9,2.8,2.8,0,0,0,2.48-1.392V136H24.24v-7.808H23.072v5.776a2.318,2.318,0,0,1-2.048,1.184,2.017,2.017,0,0,1-2.08-2.256ZM26.64,136h1.168v-5.344a2.226,2.226,0,0,1,2.1-1.584,2.919,2.919,0,0,1,.816.144V128.16a2.217,2.217,0,0,0-.736-.112,2.332,2.332,0,0,0-2.176,1.728v-1.584H26.64Zm8.7-.912a2.995,2.995,0,0,1-.016-5.968,3.069,3.069,0,0,1,2.208.976l.752-.816a4.259,4.259,0,0,0-3.008-1.216,4.044,4.044,0,0,0,0,8.08,4.061,4.061,0,0,0,2.96-1.264l-.72-.72A2.876,2.876,0,0,1,35.344,135.088Zm10.784.016-.736-.784a3.191,3.191,0,0,1-2.144.8,2.845,2.845,0,0,1-2.784-2.768h6.128V132a3.689,3.689,0,0,0-3.584-3.936,3.8,3.8,0,0,0-3.68,4.032,3.9,3.9,0,0,0,3.872,4.048A4.558,4.558,0,0,0,46.128,135.1Zm-3.136-6.032a2.579,2.579,0,0,1,2.448,2.448H40.5A2.608,2.608,0,0,1,42.992,129.072Zm9.92-2.8a.83.83,0,0,0,.832-.848.84.84,0,0,0-1.68,0A.834.834,0,0,0,52.912,126.272Zm.576,1.92H52.32V136h1.168Zm1.648,6.8a4.451,4.451,0,0,0,3.168,1.152c1.728,0,3.04-1.056,3.04-2.416,0-1.152-.7-1.808-2.272-2.1l-1.312-.24c-1.008-.176-1.344-.48-1.344-1.12,0-.768.672-1.248,1.7-1.248a4.142,4.142,0,0,1,2.448.832l.576-.816a5.048,5.048,0,0,0-2.976-.976c-1.648,0-2.816.944-2.816,2.288,0,1.136.688,1.776,2.208,2.048l1.28.224c.992.192,1.408.528,1.408,1.168,0,.816-.832,1.408-1.968,1.408a4.072,4.072,0,0,1-2.512-.976Zm12.3-8.72a.83.83,0,0,0,.832-.848.84.84,0,0,0-1.68,0A.834.834,0,0,0,67.44,126.272Zm.576,1.92H66.848V136h1.168Zm2.4,7.808h1.168v-5.808a2.14,2.14,0,0,1,1.9-1.152,1.94,1.94,0,0,1,1.936,2.208V136h1.168v-5.04a3.238,3.238,0,0,0-.064-.688,2.173,2.173,0,0,1,1.952-1.232c1.184,0,1.92.848,1.92,2.208V136h1.168v-5.04a2.657,2.657,0,0,0-2.656-2.9,2.885,2.885,0,0,0-2.608,1.52,2.566,2.566,0,0,0-2.4-1.52,2.674,2.674,0,0,0-2.32,1.344v-1.216H70.416Zm13.52,3.344H85.1v-4.32a3.166,3.166,0,0,0,2.448,1.088,4.028,4.028,0,0,0,.064-8.016,3.08,3.08,0,0,0-2.528,1.216v-1.12H83.936Zm3.392-10.224a3,3,0,0,1,0,5.984,2.744,2.744,0,0,1-2.224-1.088v-3.824A2.666,2.666,0,0,1,87.328,129.12Zm5.6,2.976a3.807,3.807,0,1,0,3.792-4.032A3.867,3.867,0,0,0,92.928,132.1Zm3.792,3.024a3.043,3.043,0,0,1,0-6.032,3.04,3.04,0,0,1,0,6.032Zm5.856.88h1.168v-5.344a2.226,2.226,0,0,1,2.1-1.584,2.919,2.919,0,0,1,.816.144V128.16a2.217,2.217,0,0,0-.736-.112,2.332,2.332,0,0,0-2.176,1.728v-1.584h-1.168Zm6.592-1.76c0,1.248.7,1.9,2.048,1.9a4.386,4.386,0,0,0,1.36-.208V134.9a2.8,2.8,0,0,1-1.1.208c-.816,0-1.136-.336-1.136-1.168v-4.784h2.24v-.96h-2.24v-2.416l-1.168.272v2.144h-1.616v.96h1.616Zm7.536,1.9a3.352,3.352,0,0,0,2.48-1.056V136h1.152v-5.184c0-1.776-1.088-2.752-3.024-2.752a6.689,6.689,0,0,0-2.944.752l.432.9a5.156,5.156,0,0,1,2.368-.672,1.758,1.758,0,0,1,2.016,1.936v1.072a4.521,4.521,0,0,0-2.384-.608c-1.76,0-2.928.928-2.928,2.32C113.872,135.168,115.04,136.144,116.7,136.144Zm-1.712-2.416c0-.864.784-1.44,1.984-1.44a4.122,4.122,0,0,1,2.208.56v1.5a3.091,3.091,0,0,1-2.24.9C115.776,135.248,114.992,134.64,114.992,133.728ZM122.7,136h1.168v-5.76a2.3,2.3,0,0,1,2.048-1.2,2.024,2.024,0,0,1,2.1,2.24V136h1.168v-5.056a2.717,2.717,0,0,0-2.832-2.88,2.813,2.813,0,0,0-2.48,1.392v-1.264H122.7Zm9.52-1.76c0,1.248.7,1.9,2.048,1.9a4.386,4.386,0,0,0,1.36-.208V134.9a2.8,2.8,0,0,1-1.1.208c-.816,0-1.136-.336-1.136-1.168v-4.784h2.24v-.96h-2.24v-2.416l-1.168.272v2.144h-1.616v.96h1.616Zm5.68.144a.873.873,0,1,0,.832.864A.857.857,0,0,0,137.9,134.384Z" transform="translate(392 9012)" fill="#151515"/>
    <rect id="Rectangle" width="136" height="21" transform="translate(392 9132)" fill="#fff"/>
    <path id="Path-3" data-name="Path" d="M.448-1.008A4.451,4.451,0,0,0,3.616.144c1.728,0,3.04-1.056,3.04-2.416,0-1.152-.7-1.808-2.272-2.1l-1.312-.24c-1.008-.176-1.344-.48-1.344-1.12,0-.768.672-1.248,1.7-1.248a4.142,4.142,0,0,1,2.448.832l.576-.816a5.048,5.048,0,0,0-2.976-.976c-1.648,0-2.816.944-2.816,2.288,0,1.136.688,1.776,2.208,2.048l1.28.224c.992.192,1.408.528,1.408,1.168C5.552-1.392,4.72-.8,3.584-.8a4.072,4.072,0,0,1-2.512-.976ZM8.16-3.9A3.867,3.867,0,0,0,11.952.16,3.86,3.86,0,0,0,15.76-3.9a3.832,3.832,0,0,0-3.808-4.032A3.829,3.829,0,0,0,8.16-3.9ZM11.952-.88a2.753,2.753,0,0,1-2.64-3.008,2.777,2.777,0,0,1,2.64-3.024,2.789,2.789,0,0,1,2.656,3.024A2.774,2.774,0,0,1,11.952-.88Zm6.992-6.928H17.76v5.04a2.73,2.73,0,0,0,2.832,2.9,2.8,2.8,0,0,0,2.48-1.392V0H24.24V-7.808H23.072v5.776A2.318,2.318,0,0,1,21.024-.848,2.017,2.017,0,0,1,18.944-3.1ZM26.64,0h1.168V-5.344a2.226,2.226,0,0,1,2.1-1.584,2.919,2.919,0,0,1,.816.144V-7.84a2.217,2.217,0,0,0-.736-.112,2.332,2.332,0,0,0-2.176,1.728V-7.808H26.64Zm8.7-.912A2.832,2.832,0,0,1,32.592-3.9,2.835,2.835,0,0,1,35.328-6.88a3.069,3.069,0,0,1,2.208.976l.752-.816A4.259,4.259,0,0,0,35.28-7.936,3.9,3.9,0,0,0,31.424-3.9,3.913,3.913,0,0,0,35.28.144,4.061,4.061,0,0,0,38.24-1.12l-.72-.72A2.876,2.876,0,0,1,35.344-.912ZM46.128-.9l-.736-.784a3.191,3.191,0,0,1-2.144.8,2.845,2.845,0,0,1-2.784-2.768h6.128V-4a3.689,3.689,0,0,0-3.584-3.936A3.8,3.8,0,0,0,39.328-3.9,3.9,3.9,0,0,0,43.2.144,4.558,4.558,0,0,0,46.128-.9ZM42.992-6.928A2.579,2.579,0,0,1,45.44-4.48H40.5A2.608,2.608,0,0,1,42.992-6.928Zm9.92-2.8a.83.83,0,0,0,.832-.848.847.847,0,0,0-.832-.832.85.85,0,0,0-.848.832A.834.834,0,0,0,52.912-9.728Zm.576,1.92H52.32V0h1.168Zm1.648,6.8A4.451,4.451,0,0,0,58.3.144c1.728,0,3.04-1.056,3.04-2.416,0-1.152-.7-1.808-2.272-2.1l-1.312-.24c-1.008-.176-1.344-.48-1.344-1.12,0-.768.672-1.248,1.7-1.248a4.142,4.142,0,0,1,2.448.832l.576-.816a5.048,5.048,0,0,0-2.976-.976c-1.648,0-2.816.944-2.816,2.288,0,1.136.688,1.776,2.208,2.048l1.28.224c.992.192,1.408.528,1.408,1.168,0,.816-.832,1.408-1.968,1.408a4.072,4.072,0,0,1-2.512-.976Zm12.3-8.72a.83.83,0,0,0,.832-.848.847.847,0,0,0-.832-.832.85.85,0,0,0-.848.832A.834.834,0,0,0,67.44-9.728Zm.576,1.92H66.848V0h1.168ZM70.416,0h1.168V-5.808a2.14,2.14,0,0,1,1.9-1.152,1.94,1.94,0,0,1,1.936,2.208V0h1.168V-5.04a3.238,3.238,0,0,0-.064-.688A2.173,2.173,0,0,1,78.48-6.96c1.184,0,1.92.848,1.92,2.208V0h1.168V-5.04a2.657,2.657,0,0,0-2.656-2.9A2.885,2.885,0,0,0,76.3-6.416a2.566,2.566,0,0,0-2.4-1.52,2.674,2.674,0,0,0-2.32,1.344V-7.808H70.416Zm13.52,3.344H85.1V-.976A3.165,3.165,0,0,0,87.552.112,3.8,3.8,0,0,0,91.216-3.9a3.768,3.768,0,0,0-3.6-4,3.08,3.08,0,0,0-2.528,1.216v-1.12H83.936ZM87.328-6.88a2.8,2.8,0,0,1,2.736,2.992A2.8,2.8,0,0,1,87.328-.9,2.744,2.744,0,0,1,85.1-1.984V-5.808A2.666,2.666,0,0,1,87.328-6.88Zm5.6,2.976A3.867,3.867,0,0,0,96.72.16,3.86,3.86,0,0,0,100.528-3.9,3.832,3.832,0,0,0,96.72-7.936,3.829,3.829,0,0,0,92.928-3.9ZM96.72-.88a2.753,2.753,0,0,1-2.64-3.008,2.777,2.777,0,0,1,2.64-3.024,2.789,2.789,0,0,1,2.656,3.024A2.774,2.774,0,0,1,96.72-.88Zm5.856.88h1.168V-5.344a2.226,2.226,0,0,1,2.1-1.584,2.919,2.919,0,0,1,.816.144V-7.84a2.217,2.217,0,0,0-.736-.112,2.332,2.332,0,0,0-2.176,1.728V-7.808h-1.168Zm6.592-1.76c0,1.248.7,1.9,2.048,1.9a4.386,4.386,0,0,0,1.36-.208V-1.1a2.8,2.8,0,0,1-1.1.208c-.816,0-1.136-.336-1.136-1.168V-6.848h2.24v-.96h-2.24v-2.416l-1.168.272v2.144h-1.616v.96h1.616ZM116.7.144a3.352,3.352,0,0,0,2.48-1.056V0h1.152V-5.184c0-1.776-1.088-2.752-3.024-2.752a6.689,6.689,0,0,0-2.944.752l.432.9a5.156,5.156,0,0,1,2.368-.672,1.758,1.758,0,0,1,2.016,1.936v1.072A4.521,4.521,0,0,0,116.8-4.56c-1.76,0-2.928.928-2.928,2.32C113.872-.832,115.04.144,116.7.144Zm-1.712-2.416c0-.864.784-1.44,1.984-1.44a4.122,4.122,0,0,1,2.208.56v1.5a3.091,3.091,0,0,1-2.24.9C115.776-.752,114.992-1.36,114.992-2.272ZM122.7,0h1.168V-5.76a2.3,2.3,0,0,1,2.048-1.2,2.024,2.024,0,0,1,2.1,2.24V0h1.168V-5.056a2.717,2.717,0,0,0-2.832-2.88,2.813,2.813,0,0,0-2.48,1.392V-7.808H122.7Zm9.52-1.76c0,1.248.7,1.9,2.048,1.9a4.386,4.386,0,0,0,1.36-.208V-1.1a2.8,2.8,0,0,1-1.1.208c-.816,0-1.136-.336-1.136-1.168V-6.848h2.24v-.96h-2.24v-2.416l-1.168.272v2.144h-1.616v.96h1.616Z" transform="translate(392 9148)" fill="#06c"/>
    <rect id="Rectangle-2" data-name="Rectangle" width="113" height="21" transform="translate(702 9108)" fill="#fff"/>
    <path id="Path-4" data-name="Path" d="M7.648-.9,6.912-1.68a3.191,3.191,0,0,1-2.144.8A2.845,2.845,0,0,1,1.984-3.648H8.112V-4A3.689,3.689,0,0,0,4.528-7.936,3.8,3.8,0,0,0,.848-3.9,3.9,3.9,0,0,0,4.72.144,4.558,4.558,0,0,0,7.648-.9ZM4.512-6.928A2.579,2.579,0,0,1,6.96-4.48H2.016A2.608,2.608,0,0,1,4.512-6.928ZM10.112,0H11.28V-5.76a2.3,2.3,0,0,1,2.048-1.2,2.024,2.024,0,0,1,2.1,2.24V0h1.168V-5.056a2.717,2.717,0,0,0-2.832-2.88,2.813,2.813,0,0,0-2.48,1.392V-7.808H10.112Zm9.52-1.76c0,1.248.7,1.9,2.048,1.9a4.386,4.386,0,0,0,1.36-.208V-1.1a2.8,2.8,0,0,1-1.1.208C21.12-.9,20.8-1.232,20.8-2.064V-6.848h2.24v-.96H20.8v-2.416l-1.168.272v2.144H18.016v.96h1.616ZM31.008-.9l-.736-.784a3.191,3.191,0,0,1-2.144.8,2.845,2.845,0,0,1-2.784-2.768h6.128V-4a3.689,3.689,0,0,0-3.584-3.936A3.8,3.8,0,0,0,24.208-3.9,3.9,3.9,0,0,0,28.08.144,4.558,4.558,0,0,0,31.008-.9ZM27.872-6.928A2.579,2.579,0,0,1,30.32-4.48H25.376A2.608,2.608,0,0,1,27.872-6.928ZM33.472,0H34.64V-5.344a2.226,2.226,0,0,1,2.1-1.584,2.919,2.919,0,0,1,.816.144V-7.84a2.217,2.217,0,0,0-.736-.112A2.332,2.332,0,0,0,34.64-6.224V-7.808H33.472ZM39.1,3.344h1.168V-.976A3.166,3.166,0,0,0,42.72.112,3.8,3.8,0,0,0,46.384-3.9a3.768,3.768,0,0,0-3.6-4,3.08,3.08,0,0,0-2.528,1.216v-1.12H39.1ZM42.5-6.88a2.8,2.8,0,0,1,2.736,2.992A2.8,2.8,0,0,1,42.5-.9a2.744,2.744,0,0,1-2.224-1.088V-5.808A2.666,2.666,0,0,1,42.5-6.88ZM48.432,0H49.6V-5.344a2.226,2.226,0,0,1,2.1-1.584,2.919,2.919,0,0,1,.816.144V-7.84a2.217,2.217,0,0,0-.736-.112A2.332,2.332,0,0,0,49.6-6.224V-7.808H48.432Zm6.224-9.728a.83.83,0,0,0,.832-.848.847.847,0,0,0-.832-.832.85.85,0,0,0-.848.832A.834.834,0,0,0,54.656-9.728Zm.576,1.92H54.064V0h1.168Zm1.648,6.8A4.451,4.451,0,0,0,60.048.144c1.728,0,3.04-1.056,3.04-2.416,0-1.152-.7-1.808-2.272-2.1L59.5-4.608c-1.008-.176-1.344-.48-1.344-1.12,0-.768.672-1.248,1.7-1.248a4.142,4.142,0,0,1,2.448.832l.576-.816A5.048,5.048,0,0,0,59.9-7.936c-1.648,0-2.816.944-2.816,2.288,0,1.136.688,1.776,2.208,2.048l1.28.224c.992.192,1.408.528,1.408,1.168,0,.816-.832,1.408-1.968,1.408A4.072,4.072,0,0,1,57.5-1.776ZM71.392-.9l-.736-.784a3.191,3.191,0,0,1-2.144.8,2.845,2.845,0,0,1-2.784-2.768h6.128V-4a3.689,3.689,0,0,0-3.584-3.936A3.8,3.8,0,0,0,64.592-3.9,3.9,3.9,0,0,0,68.464.144,4.558,4.558,0,0,0,71.392-.9ZM68.256-6.928A2.579,2.579,0,0,1,70.7-4.48H65.76A2.608,2.608,0,0,1,68.256-6.928ZM77.232-3.9A3.867,3.867,0,0,0,81.024.16,3.86,3.86,0,0,0,84.832-3.9a3.832,3.832,0,0,0-3.808-4.032A3.829,3.829,0,0,0,77.232-3.9ZM81.024-.88a2.753,2.753,0,0,1-2.64-3.008,2.777,2.777,0,0,1,2.64-3.024A2.789,2.789,0,0,1,83.68-3.888,2.774,2.774,0,0,1,81.024-.88ZM86.88,3.344h1.168V-.976A3.165,3.165,0,0,0,90.5.112,3.8,3.8,0,0,0,94.16-3.9a3.768,3.768,0,0,0-3.6-4,3.08,3.08,0,0,0-2.528,1.216v-1.12H86.88ZM90.272-6.88a2.8,2.8,0,0,1,2.736,2.992A2.8,2.8,0,0,1,90.272-.9a2.744,2.744,0,0,1-2.224-1.088V-5.808A2.666,2.666,0,0,1,90.272-6.88ZM102.672-.9l-.736-.784a3.191,3.191,0,0,1-2.144.8,2.845,2.845,0,0,1-2.784-2.768h6.128V-4a3.689,3.689,0,0,0-3.584-3.936A3.8,3.8,0,0,0,95.872-3.9,3.9,3.9,0,0,0,99.744.144,4.558,4.558,0,0,0,102.672-.9ZM99.536-6.928a2.579,2.579,0,0,1,2.448,2.448H97.04A2.608,2.608,0,0,1,99.536-6.928ZM105.136,0H106.3V-5.76a2.3,2.3,0,0,1,2.048-1.2,2.024,2.024,0,0,1,2.1,2.24V0h1.168V-5.056a2.717,2.717,0,0,0-2.832-2.88,2.813,2.813,0,0,0-2.48,1.392V-7.808h-1.168Z" transform="translate(702 9124)" fill="#06c"/>
    <rect id="Rectangle-3" data-name="Rectangle" width="113" height="21" transform="translate(687 9060)" fill="#fff"/>
    <path id="Path-5" data-name="Path" d="M1.2,0H2.368V-5.76a2.3,2.3,0,0,1,2.048-1.2,2.024,2.024,0,0,1,2.1,2.24V0H7.68V-5.056a2.717,2.717,0,0,0-2.832-2.88,2.813,2.813,0,0,0-2.48,1.392V-7.808H1.2ZM16.48-.9l-.736-.784a3.191,3.191,0,0,1-2.144.8,2.845,2.845,0,0,1-2.784-2.768h6.128V-4A3.689,3.689,0,0,0,13.36-7.936,3.8,3.8,0,0,0,9.68-3.9,3.9,3.9,0,0,0,13.552.144,4.558,4.558,0,0,0,16.48-.9ZM13.344-6.928A2.579,2.579,0,0,1,15.792-4.48H10.848A2.608,2.608,0,0,1,13.344-6.928ZM21.328,0l1.856-6.3L25.04,0h1.136L28.3-7.808H27.2l-1.616,6.24-1.872-6.24h-1.04L20.8-1.568l-1.632-6.24H18.032L20.176,0Zm13.28-1.76c0,1.248.7,1.9,2.048,1.9a4.386,4.386,0,0,0,1.36-.208V-1.1a2.8,2.8,0,0,1-1.1.208c-.816,0-1.136-.336-1.136-1.168V-6.848h2.24v-.96h-2.24v-2.416l-1.168.272v2.144H32.992v.96h1.616ZM45.984-.9l-.736-.784a3.191,3.191,0,0,1-2.144.8A2.845,2.845,0,0,1,40.32-3.648h6.128V-4a3.689,3.689,0,0,0-3.584-3.936A3.8,3.8,0,0,0,39.184-3.9,3.9,3.9,0,0,0,43.056.144,4.558,4.558,0,0,0,45.984-.9ZM42.848-6.928A2.579,2.579,0,0,1,45.3-4.48H40.352A2.608,2.608,0,0,1,42.848-6.928ZM52.032-.912A2.832,2.832,0,0,1,49.28-3.9,2.835,2.835,0,0,1,52.016-6.88a3.069,3.069,0,0,1,2.208.976l.752-.816a4.259,4.259,0,0,0-3.008-1.216A3.9,3.9,0,0,0,48.112-3.9,3.913,3.913,0,0,0,51.968.144a4.061,4.061,0,0,0,2.96-1.264l-.72-.72A2.876,2.876,0,0,1,52.032-.912ZM56.608,0h1.168V-5.76a2.3,2.3,0,0,1,2.048-1.2,2.024,2.024,0,0,1,2.1,2.24V0h1.168V-5.056a2.717,2.717,0,0,0-2.832-2.88,2.813,2.813,0,0,0-2.48,1.392V-11.68l-1.168.24ZM65.44,0h1.168V-5.76a2.3,2.3,0,0,1,2.048-1.2,2.024,2.024,0,0,1,2.1,2.24V0H71.92V-5.056a2.717,2.717,0,0,0-2.832-2.88,2.813,2.813,0,0,0-2.48,1.392V-7.808H65.44Zm8.48-3.9A3.867,3.867,0,0,0,77.712.16,3.86,3.86,0,0,0,81.52-3.9a3.832,3.832,0,0,0-3.808-4.032A3.829,3.829,0,0,0,73.92-3.9ZM77.712-.88a2.753,2.753,0,0,1-2.64-3.008,2.777,2.777,0,0,1,2.64-3.024,2.789,2.789,0,0,1,2.656,3.024A2.774,2.774,0,0,1,77.712-.88Zm7.024-10.8-1.168.24V0h1.168ZM86.784-3.9A3.867,3.867,0,0,0,90.576.16,3.86,3.86,0,0,0,94.384-3.9a3.832,3.832,0,0,0-3.808-4.032A3.829,3.829,0,0,0,86.784-3.9ZM90.576-.88a2.753,2.753,0,0,1-2.64-3.008,2.777,2.777,0,0,1,2.64-3.024,2.789,2.789,0,0,1,2.656,3.024A2.774,2.774,0,0,1,90.576-.88ZM99.7.1a3.077,3.077,0,0,0,2.5-1.152V.416c0,1.312-.752,2-2.176,2a5.25,5.25,0,0,1-2.5-.72l-.5.9a6.262,6.262,0,0,0,3.04.816c2.128,0,3.3-1.072,3.3-3.008V-7.808h-1.152V-6.8A3.151,3.151,0,0,0,99.76-7.9a3.8,3.8,0,0,0-3.664,4A3.768,3.768,0,0,0,99.7.1Zm-2.448-4A2.787,2.787,0,0,1,99.984-6.88a2.8,2.8,0,0,1,2.208,1.056v3.856A2.687,2.687,0,0,1,99.984-.912,2.8,2.8,0,0,1,97.248-3.9ZM107.3,1.248c-.288.7-.656.992-1.248.992a2.719,2.719,0,0,1-.64-.064v1.04a2.679,2.679,0,0,0,.752.112c1.152,0,1.744-.464,2.24-1.728l3.872-9.408h-1.3l-2.512,6.416L106.1-7.808h-1.3l3.008,7.792Z" transform="translate(687 9076)" fill="#06c"/>
    <rect id="Rectangle-4" data-name="Rectangle" width="125" height="21" transform="translate(446 9060)" fill="#fff"/>
    <path id="Path-6" data-name="Path" d="M.448-1.008A4.451,4.451,0,0,0,3.616.144c1.728,0,3.04-1.056,3.04-2.416,0-1.152-.7-1.808-2.272-2.1l-1.312-.24c-1.008-.176-1.344-.48-1.344-1.12,0-.768.672-1.248,1.7-1.248a4.142,4.142,0,0,1,2.448.832l.576-.816a5.048,5.048,0,0,0-2.976-.976c-1.648,0-2.816.944-2.816,2.288,0,1.136.688,1.776,2.208,2.048l1.28.224c.992.192,1.408.528,1.408,1.168C5.552-1.392,4.72-.8,3.584-.8a4.072,4.072,0,0,1-2.512-.976ZM8.16-3.9A3.867,3.867,0,0,0,11.952.16,3.86,3.86,0,0,0,15.76-3.9a3.832,3.832,0,0,0-3.808-4.032A3.829,3.829,0,0,0,8.16-3.9ZM11.952-.88a2.753,2.753,0,0,1-2.64-3.008,2.777,2.777,0,0,1,2.64-3.024,2.789,2.789,0,0,1,2.656,3.024A2.774,2.774,0,0,1,11.952-.88Zm7.024-10.8-1.168.24V0h1.168ZM23.616,0h1.12l3.216-7.808H26.7l-2.5,6.352L21.68-7.808H20.416Zm6.368-9.728a.83.83,0,0,0,.832-.848.847.847,0,0,0-.832-.832.85.85,0,0,0-.848.832A.834.834,0,0,0,29.984-9.728Zm.576,1.92H29.392V0H30.56ZM32.96,0h1.168V-5.76a2.3,2.3,0,0,1,2.048-1.2,2.024,2.024,0,0,1,2.1,2.24V0H39.44V-5.056a2.717,2.717,0,0,0-2.832-2.88,2.813,2.813,0,0,0-2.48,1.392V-7.808H32.96ZM45.04.1a3.077,3.077,0,0,0,2.5-1.152V.416c0,1.312-.752,2-2.176,2a5.25,5.25,0,0,1-2.5-.72l-.5.9a6.262,6.262,0,0,0,3.04.816c2.128,0,3.3-1.072,3.3-3.008V-7.808H47.552V-6.8A3.151,3.151,0,0,0,45.1-7.9a3.8,3.8,0,0,0-3.664,4A3.768,3.768,0,0,0,45.04.1Zm-2.448-4A2.787,2.787,0,0,1,45.328-6.88a2.8,2.8,0,0,1,2.208,1.056v3.856A2.687,2.687,0,0,1,45.328-.912,2.8,2.8,0,0,1,42.592-3.9ZM57.248.144a3.352,3.352,0,0,0,2.48-1.056V0H60.88V-5.184c0-1.776-1.088-2.752-3.024-2.752a6.689,6.689,0,0,0-2.944.752l.432.9a5.156,5.156,0,0,1,2.368-.672,1.758,1.758,0,0,1,2.016,1.936v1.072a4.521,4.521,0,0,0-2.384-.608c-1.76,0-2.928.928-2.928,2.32C54.416-.832,55.584.144,57.248.144ZM55.536-2.272c0-.864.784-1.44,1.984-1.44a4.122,4.122,0,0,1,2.208.56v1.5a3.091,3.091,0,0,1-2.24.9C56.32-.752,55.536-1.36,55.536-2.272Zm11.44,5.616h1.168V-.976A3.166,3.166,0,0,0,70.592.112,3.8,3.8,0,0,0,74.256-3.9a3.768,3.768,0,0,0-3.6-4,3.08,3.08,0,0,0-2.528,1.216v-1.12H66.976ZM70.368-6.88A2.8,2.8,0,0,1,73.1-3.888,2.8,2.8,0,0,1,70.368-.9a2.744,2.744,0,0,1-2.224-1.088V-5.808A2.666,2.666,0,0,1,70.368-6.88ZM76.3,0h1.168V-5.344a2.226,2.226,0,0,1,2.1-1.584,2.919,2.919,0,0,1,.816.144V-7.84a2.217,2.217,0,0,0-.736-.112,2.332,2.332,0,0,0-2.176,1.728V-7.808H76.3Zm4.784-3.9A3.867,3.867,0,0,0,84.88.16,3.86,3.86,0,0,0,88.688-3.9,3.832,3.832,0,0,0,84.88-7.936,3.829,3.829,0,0,0,81.088-3.9ZM84.88-.88a2.753,2.753,0,0,1-2.64-3.008,2.777,2.777,0,0,1,2.64-3.024,2.789,2.789,0,0,1,2.656,3.024A2.774,2.774,0,0,1,84.88-.88ZM98.016-3.9a3.768,3.768,0,0,0-3.6-4A3.146,3.146,0,0,0,91.9-6.736V-11.68l-1.168.24V0h1.152V-1.024A3.161,3.161,0,0,0,94.352.112,3.8,3.8,0,0,0,98.016-3.9ZM94.128-6.88a2.8,2.8,0,0,1,2.736,2.992A2.8,2.8,0,0,1,94.128-.9,2.744,2.744,0,0,1,91.9-1.984V-5.808A2.666,2.666,0,0,1,94.128-6.88Zm7.1-4.8-1.168.24V0h1.168ZM110.08-.9l-.736-.784a3.191,3.191,0,0,1-2.144.8,2.845,2.845,0,0,1-2.784-2.768h6.128V-4a3.689,3.689,0,0,0-3.584-3.936A3.8,3.8,0,0,0,103.28-3.9,3.9,3.9,0,0,0,107.152.144,4.558,4.558,0,0,0,110.08-.9Zm-3.136-6.032a2.579,2.579,0,0,1,2.448,2.448h-4.944A2.608,2.608,0,0,1,106.944-6.928ZM112.544,0h1.168V-5.808a2.14,2.14,0,0,1,1.9-1.152,1.94,1.94,0,0,1,1.936,2.208V0h1.168V-5.04a3.238,3.238,0,0,0-.064-.688,2.173,2.173,0,0,1,1.952-1.232c1.184,0,1.92.848,1.92,2.208V0H123.7V-5.04a2.657,2.657,0,0,0-2.656-2.9,2.885,2.885,0,0,0-2.608,1.52,2.566,2.566,0,0,0-2.4-1.52,2.674,2.674,0,0,0-2.32,1.344V-7.808h-1.168Z" transform="translate(446 9076)" fill="#06c"/>
    <rect id="Rectangle-5" data-name="Rectangle" width="146" height="21" transform="translate(574 9012)" fill="#fff"/>
    <path id="Path-7" data-name="Path" d="M2.128-1.76c0,1.248.7,1.9,2.048,1.9a4.386,4.386,0,0,0,1.36-.208V-1.1a2.8,2.8,0,0,1-1.1.208C3.616-.9,3.3-1.232,3.3-2.064V-6.848h2.24v-.96H3.3v-2.416l-1.168.272v2.144H.512v.96H2.128ZM7.248,0H8.416V-5.76a2.3,2.3,0,0,1,2.048-1.2,2.024,2.024,0,0,1,2.1,2.24V0h1.168V-5.056A2.717,2.717,0,0,0,10.9-7.936a2.813,2.813,0,0,0-2.48,1.392V-11.68l-1.168.24Zm15.28-.9-.736-.784a3.191,3.191,0,0,1-2.144.8,2.845,2.845,0,0,1-2.784-2.768h6.128V-4a3.689,3.689,0,0,0-3.584-3.936A3.8,3.8,0,0,0,15.728-3.9,3.9,3.9,0,0,0,19.6.144,4.558,4.558,0,0,0,22.528-.9ZM19.392-6.928A2.579,2.579,0,0,1,21.84-4.48H16.9A2.608,2.608,0,0,1,19.392-6.928ZM28.368-3.9A3.867,3.867,0,0,0,32.16.16,3.86,3.86,0,0,0,35.968-3.9,3.832,3.832,0,0,0,32.16-7.936,3.829,3.829,0,0,0,28.368-3.9ZM32.16-.88a2.753,2.753,0,0,1-2.64-3.008,2.777,2.777,0,0,1,2.64-3.024,2.789,2.789,0,0,1,2.656,3.024A2.774,2.774,0,0,1,32.16-.88Zm5.856,4.224h1.168V-.976A3.166,3.166,0,0,0,41.632.112,3.8,3.8,0,0,0,45.3-3.9a3.768,3.768,0,0,0-3.6-4,3.08,3.08,0,0,0-2.528,1.216v-1.12H38.016ZM41.408-6.88a2.8,2.8,0,0,1,2.736,2.992A2.8,2.8,0,0,1,41.408-.9a2.744,2.744,0,0,1-2.224-1.088V-5.808A2.666,2.666,0,0,1,41.408-6.88ZM53.808-.9l-.736-.784a3.191,3.191,0,0,1-2.144.8,2.845,2.845,0,0,1-2.784-2.768h6.128V-4a3.689,3.689,0,0,0-3.584-3.936A3.8,3.8,0,0,0,47.008-3.9,3.9,3.9,0,0,0,50.88.144,4.558,4.558,0,0,0,53.808-.9ZM50.672-6.928A2.579,2.579,0,0,1,53.12-4.48H48.176A2.608,2.608,0,0,1,50.672-6.928ZM56.272,0H57.44V-5.76a2.3,2.3,0,0,1,2.048-1.2,2.024,2.024,0,0,1,2.1,2.24V0h1.168V-5.056a2.717,2.717,0,0,0-2.832-2.88,2.813,2.813,0,0,0-2.48,1.392V-7.808H56.272ZM68.08-1.008A4.451,4.451,0,0,0,71.248.144c1.728,0,3.04-1.056,3.04-2.416,0-1.152-.7-1.808-2.272-2.1L70.7-4.608c-1.008-.176-1.344-.48-1.344-1.12,0-.768.672-1.248,1.7-1.248a4.142,4.142,0,0,1,2.448.832l.576-.816A5.048,5.048,0,0,0,71.1-7.936c-1.648,0-2.816.944-2.816,2.288,0,1.136.688,1.776,2.208,2.048l1.28.224c.992.192,1.408.528,1.408,1.168,0,.816-.832,1.408-1.968,1.408A4.072,4.072,0,0,1,68.7-1.776Zm7.712-2.9A3.867,3.867,0,0,0,79.584.16,3.86,3.86,0,0,0,83.392-3.9a3.832,3.832,0,0,0-3.808-4.032A3.829,3.829,0,0,0,75.792-3.9ZM79.584-.88a2.753,2.753,0,0,1-2.64-3.008,2.777,2.777,0,0,1,2.64-3.024A2.789,2.789,0,0,1,82.24-3.888,2.774,2.774,0,0,1,79.584-.88Zm6.992-6.928H85.392v5.04a2.73,2.73,0,0,0,2.832,2.9A2.8,2.8,0,0,0,90.7-1.264V0h1.168V-7.808H90.7v5.776A2.318,2.318,0,0,1,88.656-.848,2.017,2.017,0,0,1,86.576-3.1ZM94.272,0H95.44V-5.344a2.226,2.226,0,0,1,2.1-1.584,2.919,2.919,0,0,1,.816.144V-7.84a2.217,2.217,0,0,0-.736-.112A2.332,2.332,0,0,0,95.44-6.224V-7.808H94.272Zm8.7-.912A2.832,2.832,0,0,1,100.224-3.9,2.835,2.835,0,0,1,102.96-6.88a3.069,3.069,0,0,1,2.208.976l.752-.816a4.259,4.259,0,0,0-3.008-1.216A3.9,3.9,0,0,0,99.056-3.9,3.913,3.913,0,0,0,102.912.144a4.061,4.061,0,0,0,2.96-1.264l-.72-.72A2.876,2.876,0,0,1,102.976-.912ZM113.76-.9l-.736-.784a3.191,3.191,0,0,1-2.144.8A2.845,2.845,0,0,1,108.1-3.648h6.128V-4a3.689,3.689,0,0,0-3.584-3.936A3.8,3.8,0,0,0,106.96-3.9,3.9,3.9,0,0,0,110.832.144,4.558,4.558,0,0,0,113.76-.9Zm-3.136-6.032a2.579,2.579,0,0,1,2.448,2.448h-4.944A2.608,2.608,0,0,1,110.624-6.928ZM122.5,0l1.856-6.3L126.208,0h1.136l2.128-7.808h-1.1l-1.616,6.24-1.872-6.24h-1.04l-1.872,6.24-1.632-6.24H119.2L121.344,0ZM133.5.144a3.352,3.352,0,0,0,2.48-1.056V0h1.152V-5.184c0-1.776-1.088-2.752-3.024-2.752a6.689,6.689,0,0,0-2.944.752l.432.9a5.156,5.156,0,0,1,2.368-.672,1.758,1.758,0,0,1,2.016,1.936v1.072A4.521,4.521,0,0,0,133.6-4.56c-1.76,0-2.928.928-2.928,2.32C130.672-.832,131.84.144,133.5.144Zm-1.712-2.416c0-.864.784-1.44,1.984-1.44a4.122,4.122,0,0,1,2.208.56v1.5a3.091,3.091,0,0,1-2.24.9C132.576-.752,131.792-1.36,131.792-2.272Zm9.088,3.52c-.288.7-.656.992-1.248.992a2.719,2.719,0,0,1-.64-.064v1.04a2.678,2.678,0,0,0,.752.112c1.152,0,1.744-.464,2.24-1.728l3.872-9.408h-1.3l-2.512,6.416L139.68-7.808h-1.3l3.008,7.792Z" transform="translate(574 9028)" fill="#06c"/>
    <g id="Gutters" transform="translate(0 -4100)" opacity="0.05">
      <rect id="Rectangle-6" data-name="Rectangle" width="32" height="188" transform="translate(1096 13112)" fill="blue"/>
      <rect id="Rectangle-7" data-name="Rectangle" width="32" height="188" transform="translate(360 13112)" fill="blue"/>
    </g>
    <g id="Grid" transform="translate(0 -4100)" opacity="0.03">
      <rect id="Rectangle-8" data-name="Rectangle" width="44" height="188" transform="translate(1052 13112)" fill="red"/>
      <rect id="Rectangle-9" data-name="Rectangle" width="44" height="188" transform="translate(992 13112)" fill="red"/>
      <rect id="Rectangle-10" data-name="Rectangle" width="44" height="188" transform="translate(932 13112)" fill="red"/>
      <rect id="Rectangle-11" data-name="Rectangle" width="44" height="188" transform="translate(872 13112)" fill="red"/>
      <rect id="Rectangle-12" data-name="Rectangle" width="44" height="188" transform="translate(812 13112)" fill="red"/>
      <rect id="Rectangle-13" data-name="Rectangle" width="44" height="188" transform="translate(752 13112)" fill="red"/>
      <rect id="Rectangle-14" data-name="Rectangle" width="44" height="188" transform="translate(692 13112)" fill="red"/>
      <rect id="Rectangle-15" data-name="Rectangle" width="44" height="188" transform="translate(632 13112)" fill="red"/>
      <rect id="Rectangle-16" data-name="Rectangle" width="44" height="188" transform="translate(572 13112)" fill="red"/>
      <rect id="Rectangle-17" data-name="Rectangle" width="44" height="188" transform="translate(512 13112)" fill="red"/>
      <rect id="Rectangle-18" data-name="Rectangle" width="44" height="188" transform="translate(452 13112)" fill="red"/>
      <rect id="Rectangle-19" data-name="Rectangle" width="44" height="188" transform="translate(392 13112)" fill="red"/>
    </g>
  </g>
</svg>
