<svg xmlns="http://www.w3.org/2000/svg" width="665" height="236" viewBox="0 0 665 236">
  <g id="Image" transform="translate(-528 -8860)">
    <rect id="Rectangle" width="665" height="236" transform="translate(528 8860)" fill="none"/>
    <g id="Direction" transform="translate(-6)">
      <path id="Polygon" d="M4.5,0,9,6H0Z" transform="translate(645 9088) rotate(180)" fill="#f0f"/>
      <rect id="Rectangle-2" data-name="Rectangle" width="1" height="139" transform="translate(640 8943)" fill="#f0f"/>
      <circle id="Ellipse" cx="3.5" cy="3.5" r="3.5" transform="translate(637 8939)" fill="#f0f"/>
    </g>
    <g id="Vertical" transform="translate(528 -35)">
      <g id="Call_to_action" data-name="Call to action" transform="translate(0 9108)">
        <rect id="Rectangle-3" data-name="Rectangle" width="86" height="23" rx="3" fill="#06c" opacity="0.1"/>
        <g id="CTA_Default_Blue_FTS" data-name="CTA / Default / Blue / FTS">
          <g id="Arrow_Blue" data-name="Arrow / Blue" transform="translate(72 5)">
            <path id="Arrow" d="M7,0,5.6,1.4,10.3,6H0V8H10.3L5.6,12.6,7,14l7-7Z" fill="#004080"/>
          </g>
          <path id="Path" d="M1.134,0H5.976a6.376,6.376,0,0,0,6.66-6.264A6.4,6.4,0,0,0,5.976-12.6H1.134ZM5.958-10.278A3.942,3.942,0,0,1,9.936-6.264,3.915,3.915,0,0,1,5.958-2.322H3.744v-7.956Zm16.7,9.108-1.62-1.476a2.952,2.952,0,0,1-2.07.756,2.7,2.7,0,0,1-2.664-1.962h6.984V-4.5a4.733,4.733,0,0,0-4.644-5.04,4.787,4.787,0,0,0-4.824,4.86A4.882,4.882,0,0,0,18.864.18,5.622,5.622,0,0,0,22.662-1.17ZM18.594-7.506a2.419,2.419,0,0,1,2.286,1.89H16.29A2.355,2.355,0,0,1,18.594-7.506Zm5.2-1.872v2.07h2.088V0H28.35V-7.308h2.556v-2.07H28.35v-.846c0-.828.468-1.224,1.4-1.224a5.445,5.445,0,0,1,1.152.144v-2.07a6.023,6.023,0,0,0-1.458-.162c-2.3,0-3.564,1.152-3.564,3.258v.9ZM35.136.162a4.457,4.457,0,0,0,2.718-.81V0h2.43V-6.084c0-2.214-1.458-3.474-4-3.474A9.779,9.779,0,0,0,32.112-8.55l.9,1.818a7.267,7.267,0,0,1,2.862-.774c1.314,0,1.98.558,1.98,1.638V-5.2a7.585,7.585,0,0,0-2.286-.36c-2.412,0-3.852,1.062-3.852,2.844C31.716-1.008,33.12.162,35.136.162ZM34.074-2.772c0-.72.666-1.17,1.8-1.17a5.449,5.449,0,0,1,1.98.342v1.4a3.551,3.551,0,0,1-2.07.594C34.74-1.6,34.074-2.052,34.074-2.772ZM44.46-9.378H41.994v5.814A3.573,3.573,0,0,0,45.7.18a3.993,3.993,0,0,0,2.646-.936V0h2.466V-9.378H48.348v6.5a2.257,2.257,0,0,1-1.944.936,1.843,1.843,0,0,1-1.944-1.98ZM55.206-13.14l-2.466.54V0h2.466Zm3.2,10.494c0,1.836,1.08,2.79,3.168,2.79a7.651,7.651,0,0,0,1.908-.288V-2.16a3.794,3.794,0,0,1-1.314.216c-.954,0-1.3-.324-1.3-1.206V-7.308H63.54v-2.07H60.876V-12.33l-2.466.558v2.394H56.484v2.07H58.41Z" transform="translate(0 18)" fill="#004080"/>
        </g>
      </g>
      <g id="Inline_link" data-name="Inline link" transform="translate(0 37)">
        <path id="Path-2" data-name="Path" d="M1.566,0H2.952V-12.6H1.566Zm4.32,0H7.2V-6.48A2.589,2.589,0,0,1,9.5-7.83a2.277,2.277,0,0,1,2.358,2.52V0h1.314V-5.688A3.057,3.057,0,0,0,9.99-8.928,3.165,3.165,0,0,0,7.2-7.362V-8.784H5.886Zm11.25-13.14-1.314.27V0h1.314Zm3.366,2.2a.934.934,0,0,0,.936-.954.953.953,0,0,0-.936-.936.957.957,0,0,0-.954.936A.938.938,0,0,0,20.5-10.944Zm.648,2.16H19.836V0H21.15ZM23.85,0h1.314V-6.48a2.589,2.589,0,0,1,2.3-1.35,2.277,2.277,0,0,1,2.358,2.52V0H31.14V-5.688a3.057,3.057,0,0,0-3.186-3.24,3.165,3.165,0,0,0-2.79,1.566V-8.784H23.85ZM41.04-1.008l-.828-.882a3.589,3.589,0,0,1-2.412.9A3.2,3.2,0,0,1,34.668-4.1h6.894v-.4A4.15,4.15,0,0,0,37.53-8.928a4.275,4.275,0,0,0-4.14,4.536A4.384,4.384,0,0,0,37.746.162,5.128,5.128,0,0,0,41.04-1.008ZM37.512-7.794A2.9,2.9,0,0,1,40.266-5.04H34.7A2.934,2.934,0,0,1,37.512-7.794ZM49.32-13.14l-1.314.27V0H49.32Zm3.366,2.2a.934.934,0,0,0,.936-.954.953.953,0,0,0-.936-.936.957.957,0,0,0-.954.936A.938.938,0,0,0,52.686-10.944Zm.648,2.16H52.02V0h1.314ZM56.034,0h1.314V-6.48a2.589,2.589,0,0,1,2.3-1.35A2.277,2.277,0,0,1,62.01-5.31V0h1.314V-5.688a3.057,3.057,0,0,0-3.186-3.24,3.165,3.165,0,0,0-2.79,1.566V-8.784H56.034ZM65.97,0h1.314V-4.194L71.514,0h1.728L68.58-4.608l4.464-4.176H71.46L67.284-4.842v-8.3l-1.314.27ZM0,3H73.422V5H0Z" transform="translate(0 9018)" fill="#004080"/>
        <g id="Rectangle-4" data-name="Rectangle" transform="translate(0 9000)" fill="none" stroke="#004080" stroke-width="1" stroke-dasharray="1">
          <rect width="73" height="23" stroke="none"/>
          <rect x="0.5" y="0.5" width="72" height="22" fill="none"/>
        </g>
      </g>
      <g id="Inline_link-2" data-name="Inline link" transform="translate(0 -34)">
        <path id="Path-3" data-name="Path" d="M1.566,0H2.952V-12.6H1.566Zm4.32,0H7.2V-6.48A2.589,2.589,0,0,1,9.5-7.83a2.277,2.277,0,0,1,2.358,2.52V0h1.314V-5.688A3.057,3.057,0,0,0,9.99-8.928,3.165,3.165,0,0,0,7.2-7.362V-8.784H5.886Zm11.25-13.14-1.314.27V0h1.314Zm3.366,2.2a.934.934,0,0,0,.936-.954.953.953,0,0,0-.936-.936.957.957,0,0,0-.954.936A.938.938,0,0,0,20.5-10.944Zm.648,2.16H19.836V0H21.15ZM23.85,0h1.314V-6.48a2.589,2.589,0,0,1,2.3-1.35,2.277,2.277,0,0,1,2.358,2.52V0H31.14V-5.688a3.057,3.057,0,0,0-3.186-3.24,3.165,3.165,0,0,0-2.79,1.566V-8.784H23.85ZM41.04-1.008l-.828-.882a3.589,3.589,0,0,1-2.412.9A3.2,3.2,0,0,1,34.668-4.1h6.894v-.4A4.15,4.15,0,0,0,37.53-8.928a4.275,4.275,0,0,0-4.14,4.536A4.384,4.384,0,0,0,37.746.162,5.128,5.128,0,0,0,41.04-1.008ZM37.512-7.794A2.9,2.9,0,0,1,40.266-5.04H34.7A2.934,2.934,0,0,1,37.512-7.794ZM49.32-13.14l-1.314.27V0H49.32Zm3.366,2.2a.934.934,0,0,0,.936-.954.953.953,0,0,0-.936-.936.957.957,0,0,0-.954.936A.938.938,0,0,0,52.686-10.944Zm.648,2.16H52.02V0h1.314ZM56.034,0h1.314V-6.48a2.589,2.589,0,0,1,2.3-1.35A2.277,2.277,0,0,1,62.01-5.31V0h1.314V-5.688a3.057,3.057,0,0,0-3.186-3.24,3.165,3.165,0,0,0-2.79,1.566V-8.784H56.034ZM65.97,0h1.314V-4.194L71.514,0h1.728L68.58-4.608l4.464-4.176H71.46L67.284-4.842v-8.3l-1.314.27ZM0,3H73.422V5H0Z" transform="translate(0 9018)" fill="#004080"/>
        <g id="Rectangle-5" data-name="Rectangle" transform="translate(0 9000)" fill="none" stroke="#004080" stroke-width="1" stroke-dasharray="1">
          <rect width="73" height="23" stroke="none"/>
          <rect x="0.5" y="0.5" width="72" height="22" fill="none"/>
        </g>
      </g>
    </g>
    <g id="Direction-2" data-name="Direction">
      <path id="Polygon-2" data-name="Polygon" d="M4.5,0,9,6H0Z" transform="translate(1153 8898) rotate(90)" fill="#f0f"/>
      <rect id="Rectangle-6" data-name="Rectangle" width="582" height="1" transform="translate(565 8902)" fill="#f0f"/>
      <circle id="Ellipse-2" data-name="Ellipse" cx="3.5" cy="3.5" r="3.5" transform="translate(561 8899)" fill="#f0f"/>
    </g>
    <g id="Horizontal" transform="translate(-6 8860)">
      <g id="Call_to_action-2" data-name="Call to action" transform="translate(1113)">
        <rect id="Rectangle-7" data-name="Rectangle" width="86" height="23" rx="3" fill="#06c" opacity="0.1"/>
        <g id="CTA_Default_Blue_FTS-2" data-name="CTA / Default / Blue / FTS">
          <g id="Arrow_Blue-2" data-name="Arrow / Blue" transform="translate(72 5)">
            <path id="Arrow-2" data-name="Arrow" d="M7,0,5.6,1.4,10.3,6H0V8H10.3L5.6,12.6,7,14l7-7Z" fill="#004080"/>
          </g>
          <path id="Path-4" data-name="Path" d="M1.134,0H5.976a6.376,6.376,0,0,0,6.66-6.264A6.4,6.4,0,0,0,5.976-12.6H1.134ZM5.958-10.278A3.942,3.942,0,0,1,9.936-6.264,3.915,3.915,0,0,1,5.958-2.322H3.744v-7.956Zm16.7,9.108-1.62-1.476a2.952,2.952,0,0,1-2.07.756,2.7,2.7,0,0,1-2.664-1.962h6.984V-4.5a4.733,4.733,0,0,0-4.644-5.04,4.787,4.787,0,0,0-4.824,4.86A4.882,4.882,0,0,0,18.864.18,5.622,5.622,0,0,0,22.662-1.17ZM18.594-7.506a2.419,2.419,0,0,1,2.286,1.89H16.29A2.355,2.355,0,0,1,18.594-7.506Zm5.2-1.872v2.07h2.088V0H28.35V-7.308h2.556v-2.07H28.35v-.846c0-.828.468-1.224,1.4-1.224a5.445,5.445,0,0,1,1.152.144v-2.07a6.023,6.023,0,0,0-1.458-.162c-2.3,0-3.564,1.152-3.564,3.258v.9ZM35.136.162a4.457,4.457,0,0,0,2.718-.81V0h2.43V-6.084c0-2.214-1.458-3.474-4-3.474A9.779,9.779,0,0,0,32.112-8.55l.9,1.818a7.267,7.267,0,0,1,2.862-.774c1.314,0,1.98.558,1.98,1.638V-5.2a7.585,7.585,0,0,0-2.286-.36c-2.412,0-3.852,1.062-3.852,2.844C31.716-1.008,33.12.162,35.136.162ZM34.074-2.772c0-.72.666-1.17,1.8-1.17a5.449,5.449,0,0,1,1.98.342v1.4a3.551,3.551,0,0,1-2.07.594C34.74-1.6,34.074-2.052,34.074-2.772ZM44.46-9.378H41.994v5.814A3.573,3.573,0,0,0,45.7.18a3.993,3.993,0,0,0,2.646-.936V0h2.466V-9.378H48.348v6.5a2.257,2.257,0,0,1-1.944.936,1.843,1.843,0,0,1-1.944-1.98ZM55.206-13.14l-2.466.54V0h2.466Zm3.2,10.494c0,1.836,1.08,2.79,3.168,2.79a7.651,7.651,0,0,0,1.908-.288V-2.16a3.794,3.794,0,0,1-1.314.216c-.954,0-1.3-.324-1.3-1.206V-7.308H63.54v-2.07H60.876V-12.33l-2.466.558v2.394H56.484v2.07H58.41Z" transform="translate(0 18)" fill="#004080"/>
        </g>
      </g>
      <g id="Inline_link-3" data-name="Inline link" transform="translate(379)">
        <path id="Path-5" data-name="Path" d="M1.566,0H2.952V-12.6H1.566Zm4.32,0H7.2V-6.48A2.589,2.589,0,0,1,9.5-7.83a2.277,2.277,0,0,1,2.358,2.52V0h1.314V-5.688A3.057,3.057,0,0,0,9.99-8.928,3.165,3.165,0,0,0,7.2-7.362V-8.784H5.886Zm11.25-13.14-1.314.27V0h1.314Zm3.366,2.2a.934.934,0,0,0,.936-.954.953.953,0,0,0-.936-.936.957.957,0,0,0-.954.936A.938.938,0,0,0,20.5-10.944Zm.648,2.16H19.836V0H21.15ZM23.85,0h1.314V-6.48a2.589,2.589,0,0,1,2.3-1.35,2.277,2.277,0,0,1,2.358,2.52V0H31.14V-5.688a3.057,3.057,0,0,0-3.186-3.24,3.165,3.165,0,0,0-2.79,1.566V-8.784H23.85ZM41.04-1.008l-.828-.882a3.589,3.589,0,0,1-2.412.9A3.2,3.2,0,0,1,34.668-4.1h6.894v-.4A4.15,4.15,0,0,0,37.53-8.928a4.275,4.275,0,0,0-4.14,4.536A4.384,4.384,0,0,0,37.746.162,5.128,5.128,0,0,0,41.04-1.008ZM37.512-7.794A2.9,2.9,0,0,1,40.266-5.04H34.7A2.934,2.934,0,0,1,37.512-7.794ZM49.32-13.14l-1.314.27V0H49.32Zm3.366,2.2a.934.934,0,0,0,.936-.954.953.953,0,0,0-.936-.936.957.957,0,0,0-.954.936A.938.938,0,0,0,52.686-10.944Zm.648,2.16H52.02V0h1.314ZM56.034,0h1.314V-6.48a2.589,2.589,0,0,1,2.3-1.35A2.277,2.277,0,0,1,62.01-5.31V0h1.314V-5.688a3.057,3.057,0,0,0-3.186-3.24,3.165,3.165,0,0,0-2.79,1.566V-8.784H56.034ZM65.97,0h1.314V-4.194L71.514,0h1.728L68.58-4.608l4.464-4.176H71.46L67.284-4.842v-8.3l-1.314.27ZM0,3H73.422V5H0Z" transform="translate(541 18)" fill="#004080"/>
        <g id="Rectangle-8" data-name="Rectangle" transform="translate(541)" fill="none" stroke="#004080" stroke-width="1" stroke-dasharray="1">
          <rect width="73" height="23" stroke="none"/>
          <rect x="0.5" y="0.5" width="72" height="22" fill="none"/>
        </g>
      </g>
      <g id="Inline_link-4" data-name="Inline link" transform="translate(186)">
        <path id="Path-6" data-name="Path" d="M1.566,0H2.952V-12.6H1.566Zm4.32,0H7.2V-6.48A2.589,2.589,0,0,1,9.5-7.83a2.277,2.277,0,0,1,2.358,2.52V0h1.314V-5.688A3.057,3.057,0,0,0,9.99-8.928,3.165,3.165,0,0,0,7.2-7.362V-8.784H5.886Zm11.25-13.14-1.314.27V0h1.314Zm3.366,2.2a.934.934,0,0,0,.936-.954.953.953,0,0,0-.936-.936.957.957,0,0,0-.954.936A.938.938,0,0,0,20.5-10.944Zm.648,2.16H19.836V0H21.15ZM23.85,0h1.314V-6.48a2.589,2.589,0,0,1,2.3-1.35,2.277,2.277,0,0,1,2.358,2.52V0H31.14V-5.688a3.057,3.057,0,0,0-3.186-3.24,3.165,3.165,0,0,0-2.79,1.566V-8.784H23.85ZM41.04-1.008l-.828-.882a3.589,3.589,0,0,1-2.412.9A3.2,3.2,0,0,1,34.668-4.1h6.894v-.4A4.15,4.15,0,0,0,37.53-8.928a4.275,4.275,0,0,0-4.14,4.536A4.384,4.384,0,0,0,37.746.162,5.128,5.128,0,0,0,41.04-1.008ZM37.512-7.794A2.9,2.9,0,0,1,40.266-5.04H34.7A2.934,2.934,0,0,1,37.512-7.794ZM49.32-13.14l-1.314.27V0H49.32Zm3.366,2.2a.934.934,0,0,0,.936-.954.953.953,0,0,0-.936-.936.957.957,0,0,0-.954.936A.938.938,0,0,0,52.686-10.944Zm.648,2.16H52.02V0h1.314ZM56.034,0h1.314V-6.48a2.589,2.589,0,0,1,2.3-1.35A2.277,2.277,0,0,1,62.01-5.31V0h1.314V-5.688a3.057,3.057,0,0,0-3.186-3.24,3.165,3.165,0,0,0-2.79,1.566V-8.784H56.034ZM65.97,0h1.314V-4.194L71.514,0h1.728L68.58-4.608l4.464-4.176H71.46L67.284-4.842v-8.3l-1.314.27ZM0,3H73.422V5H0Z" transform="translate(541 18)" fill="#004080"/>
        <g id="Rectangle-9" data-name="Rectangle" transform="translate(541)" fill="none" stroke="#004080" stroke-width="1" stroke-dasharray="1">
          <rect width="73" height="23" stroke="none"/>
          <rect x="0.5" y="0.5" width="72" height="22" fill="none"/>
        </g>
      </g>
      <g id="Inline_link-5" data-name="Inline link" transform="translate(-7)">
        <path id="Path-7" data-name="Path" d="M1.566,0H2.952V-12.6H1.566Zm4.32,0H7.2V-6.48A2.589,2.589,0,0,1,9.5-7.83a2.277,2.277,0,0,1,2.358,2.52V0h1.314V-5.688A3.057,3.057,0,0,0,9.99-8.928,3.165,3.165,0,0,0,7.2-7.362V-8.784H5.886Zm11.25-13.14-1.314.27V0h1.314Zm3.366,2.2a.934.934,0,0,0,.936-.954.953.953,0,0,0-.936-.936.957.957,0,0,0-.954.936A.938.938,0,0,0,20.5-10.944Zm.648,2.16H19.836V0H21.15ZM23.85,0h1.314V-6.48a2.589,2.589,0,0,1,2.3-1.35,2.277,2.277,0,0,1,2.358,2.52V0H31.14V-5.688a3.057,3.057,0,0,0-3.186-3.24,3.165,3.165,0,0,0-2.79,1.566V-8.784H23.85ZM41.04-1.008l-.828-.882a3.589,3.589,0,0,1-2.412.9A3.2,3.2,0,0,1,34.668-4.1h6.894v-.4A4.15,4.15,0,0,0,37.53-8.928a4.275,4.275,0,0,0-4.14,4.536A4.384,4.384,0,0,0,37.746.162,5.128,5.128,0,0,0,41.04-1.008ZM37.512-7.794A2.9,2.9,0,0,1,40.266-5.04H34.7A2.934,2.934,0,0,1,37.512-7.794ZM49.32-13.14l-1.314.27V0H49.32Zm3.366,2.2a.934.934,0,0,0,.936-.954.953.953,0,0,0-.936-.936.957.957,0,0,0-.954.936A.938.938,0,0,0,52.686-10.944Zm.648,2.16H52.02V0h1.314ZM56.034,0h1.314V-6.48a2.589,2.589,0,0,1,2.3-1.35A2.277,2.277,0,0,1,62.01-5.31V0h1.314V-5.688a3.057,3.057,0,0,0-3.186-3.24,3.165,3.165,0,0,0-2.79,1.566V-8.784H56.034ZM65.97,0h1.314V-4.194L71.514,0h1.728L68.58-4.608l4.464-4.176H71.46L67.284-4.842v-8.3l-1.314.27ZM0,3H73.422V5H0Z" transform="translate(541 18)" fill="#004080"/>
        <g id="Rectangle-10" data-name="Rectangle" transform="translate(541)" fill="none" stroke="#004080" stroke-width="1" stroke-dasharray="1">
          <rect width="73" height="23" stroke="none"/>
          <rect x="0.5" y="0.5" width="72" height="22" fill="none"/>
        </g>
      </g>
    </g>
  </g>
</svg>
