<svg version="1.1" id="Layer_1" xmlns="http://www.w3.org/2000/svg" x="0" y="0" viewBox="0 0 340 200" xml:space="preserve"><style>.st2{fill:#06c}</style><g transform="translate(-956 -2180)"><g id="Card" transform="translate(-424 -608)"><g id="Rectangle"><path d="M959 2199h334c1.7 0 3 1.3 3 3v155c0 1.7-1.3 3-3 3H959c-1.7 0-3-1.3-3-3v-155c0-1.7 1.3-3 3-3z" fill="#fff" transform="translate(424 608)"/><path d="M959 2199.5h334c1.4 0 2.5 1.1 2.5 2.5v155c0 1.4-1.1 2.5-2.5 2.5H959c-1.4 0-2.5-1.1-2.5-2.5v-155c0-1.4 1.1-2.5 2.5-2.5z" fill="none" stroke="#d2d2d2" transform="translate(424 608)"/></g><g id="Call_to_action" transform="translate(0 -3)"><path id="Arrow" class="st2" d="M1566 2921l-1.5 1.5 4.5 4.5h-10v2h10l-4.5 4.5 1.5 1.5 7-7-7-7z"/><path id="Path" class="st2" d="M1413.1 2934h2.6v-4.8h2.8l2.5 4.8h2.9l-2.8-5.2c1.5-.5 2.5-1.9 2.5-3.5 0-2.3-1.8-3.9-4.4-3.9h-6.2v12.6zm6-10.4c.9-.1 1.8.6 1.9 1.5v.2c0 1-.8 1.7-1.8 1.7h-3.5v-3.4h3.4zm14 9.2l-1.6-1.5c-.6.5-1.3.8-2.1.8-1.2 0-2.3-.8-2.7-2h7v-.6c.2-2.6-1.8-4.9-4.4-5h-.2c-2.6 0-4.8 2.1-4.8 4.7v.1c0 2.7 2.2 4.9 4.9 4.9h.1c1.4 0 2.7-.5 3.8-1.4zm-4.1-6.3c1.1 0 2 .8 2.3 1.9h-4.6c.2-1.1 1.2-1.9 2.3-1.9zm9.1 7.7c1 0 1.9-.3 2.7-.8v.6h2.4v-6.1c0-2.2-1.5-3.5-4-3.5-1.4 0-2.9.4-4.2 1l.9 1.8c.9-.5 1.9-.7 2.9-.8 1.3 0 2 .6 2 1.6v.7c-.7-.2-1.5-.4-2.3-.4-2.4 0-3.9 1.1-3.9 2.8.1 1.9 1.5 3.1 3.5 3.1zm-1-3c0-.7.7-1.2 1.8-1.2.7 0 1.3.1 2 .3v1.4c-.6.4-1.3.6-2.1.6-1.1.1-1.7-.4-1.7-1.1zm15.1 2.8h2.4v-13.1l-2.5.5v3.8c-.8-.5-1.7-.7-2.6-.7-2.6 0-4.8 2.1-4.8 4.7v.1c0 2.6 2.1 4.8 4.7 4.8h.1c1 0 1.9-.3 2.7-.9v.8zm-5-4.7c0-1.5 1.1-2.7 2.6-2.7h.1c.8 0 1.6.3 2.2.9v3.7c-.6.6-1.4.9-2.2.9-1.5-.1-2.7-1.2-2.7-2.8 0 .1 0 0 0 0zm17.5 2.7c-1.4 0-2.6-1.2-2.6-2.6v-.1c-.1-1.4 1-2.7 2.4-2.7h.1c.9 0 1.8.4 2.3 1.1l1.5-1.6c-1-1.1-2.4-1.7-3.9-1.7-2.7 0-4.9 2.1-4.9 4.8v.1c0 2.7 2.1 4.8 4.8 4.9h.1c1.4 0 2.8-.6 3.8-1.7l-1.5-1.5c-.4.6-1.2 1-2.1 1zm8 2.2c1 0 1.9-.3 2.7-.8v.6h2.4v-6.1c0-2.2-1.5-3.5-4-3.5-1.4 0-2.9.4-4.2 1l.9 1.8c.9-.5 1.9-.7 2.9-.8 1.3 0 2 .6 2 1.6v.7c-.7-.2-1.5-.4-2.3-.4-2.4 0-3.9 1.1-3.9 2.8.1 1.9 1.5 3.1 3.5 3.1zm-1.1-3c0-.7.7-1.2 1.8-1.2.7 0 1.3.1 2 .3v1.4c-.6.4-1.3.6-2.1.6-1 .1-1.7-.4-1.7-1.1zm7.3 1.7c1.2.9 2.8 1.4 4.3 1.3 2.4 0 4.1-1.3 4.1-3.1 0-1.5-1-2.4-2.9-2.7l-1.8-.3c-.9-.1-1.3-.4-1.3-.9 0-.6.6-.9 1.5-.9 1 0 2 .3 2.9.9l1.2-1.6c-1.1-.8-2.5-1.2-3.8-1.2-2.4 0-3.9 1.2-3.9 3 0 1.5 1 2.4 2.8 2.7l1.8.3c.8.1 1.2.4 1.2.9 0 .6-.7 1-1.8 1s-2.2-.4-3-1.1l-1.3 1.7zm18.2-.1l-1.6-1.5c-.6.5-1.3.8-2.1.8-1.2 0-2.3-.8-2.7-2h7v-.6c.2-2.6-1.8-4.9-4.4-5h-.2c-2.6 0-4.8 2.1-4.8 4.7v.1c0 2.7 2.2 4.9 4.9 4.9h.1c1.3 0 2.7-.5 3.8-1.4zm-4.1-6.3c1.1 0 2 .8 2.3 1.9h-4.6c.2-1.1 1.2-1.9 2.3-1.9zm9 6.4c1.2.9 2.8 1.4 4.3 1.3 2.4 0 4.1-1.3 4.1-3.1 0-1.5-1-2.4-2.9-2.7l-1.8-.3c-.9-.1-1.3-.4-1.3-.9 0-.6.6-.9 1.5-.9 1 0 2 .3 2.9.9l1.2-1.6c-1.1-.8-2.5-1.2-3.9-1.2-2.4 0-3.9 1.2-3.9 3 0 1.5 1 2.4 2.8 2.7l1.8.3c.8.1 1.2.4 1.2.9 0 .6-.7 1-1.8 1s-2.2-.4-3-1.1l-1.2 1.7zm10.7-1.5c0 1.8 1.1 2.8 3.2 2.8.6 0 1.3-.1 1.9-.3v-2c-.4.1-.9.2-1.3.2-1 0-1.3-.3-1.3-1.2v-4.2h2.7v-2.1h-2.7v-3l-2.5.6v2.4h-1.9v2.1h1.9v4.7zm8.8-6.8h-2.5v5.8c-.1 2 1.4 3.6 3.4 3.7h.3c1 0 1.9-.3 2.6-.9v.8h2.5v-9.4h-2.5v6.5c-.4.6-1.2 1-1.9.9-1 .1-1.9-.7-1.9-1.7v-5.7zm15.3 9.4h2.4v-13.1l-2.5.5v3.8c-.8-.5-1.7-.7-2.6-.7-2.6 0-4.8 2.1-4.8 4.7v.1c0 2.6 2.1 4.8 4.7 4.8h.1c1 0 1.9-.3 2.7-.9v.8zm-5-4.7c0-1.5 1.1-2.7 2.6-2.7h.1c.8 0 1.6.3 2.2.9v3.7c-.6.6-1.4.9-2.2.9-1.5 0-2.7-1.2-2.7-2.8 0 .1 0 0 0 0zm11.9 5.1c-.3.8-1 1.3-1.9 1.3-.3 0-.6 0-.9-.1v2.1c.4.1.7.1 1.1.1 2.1 0 3.2-.9 4.2-3.1l4.3-10.1h-2.7l-2.7 6.4-2.3-6.4h-2.7l3.7 9.5-.1.3z"/></g><path id="Path-2" d="M1412.2 2857h1.5l1.5-4h5.6l1.5 4h1.5l-4.9-12.6h-1.7l-5 12.6zm3.3-5.1l2.4-6.3 2.4 6.3h-4.8zm13.4 4.1c-1.8 0-3.1-1.5-3.1-3.3v-.1c-.1-1.8 1.3-3.3 3-3.3h.1c.9 0 1.8.4 2.5 1.1l.8-.9c-.9-.9-2.1-1.4-3.4-1.4-2.4 0-4.4 2-4.3 4.4v.1c-.1 2.4 1.8 4.5 4.2 4.6h.1c1.3 0 2.5-.5 3.3-1.4l-.8-.8c-.6.6-1.5 1-2.4 1zm5.1 1h1.3v-6.5c.4-.8 1.2-1.3 2.1-1.3 1.2 0 2.2 1 2.2 2.2v5.7h1.3v-5.7c0-.3 0-.5-.1-.8.4-.8 1.3-1.4 2.2-1.4 1.3 0 2.2 1 2.2 2.5v5.3h1.3v-5.7c.1-1.6-1.1-3.1-2.7-3.2h-.3c-1.2 0-2.4.6-2.9 1.7-.5-1.1-1.5-1.7-2.7-1.7-1.1 0-2.1.6-2.6 1.5v-1.4h-1.3v8.8zm22.5-1l-.8-.9c-.7.6-1.5.9-2.4.9-1.7 0-3.1-1.4-3.1-3.1h6.9v-.4c.2-2.3-1.6-4.3-3.9-4.4h-.2c-2.4.1-4.2 2-4.1 4.4v.1c-.1 2.4 1.8 4.5 4.2 4.6h.1c1.2 0 2.4-.4 3.3-1.2zm-3.6-6.8c1.5.1 2.7 1.3 2.8 2.8h-5.6c.1-1.5 1.3-2.7 2.8-2.8zm11.2-3.1c.5 0 .9-.4.9-.9s-.4-.9-.9-.9-.9.4-.9.9c-.1.4.4.8.9.9zm.7 2.1h-1.3v8.8h1.3v-8.8zm2.7 8.8h1.3v-6.5c.4-.8 1.2-1.3 2.1-1.3 1.2 0 2.2 1 2.2 2.2v5.7h1.3v-5.7c0-.3 0-.5-.1-.8.4-.8 1.3-1.4 2.2-1.4 1.3 0 2.2 1 2.2 2.5v5.3h1.3v-5.7c.1-1.6-1.1-3.1-2.7-3.2h-.3c-1.2 0-2.4.6-2.9 1.7-.5-1.1-1.5-1.7-2.7-1.7-1.1 0-2.1.6-2.6 1.5v-1.4h-1.3v8.8zm15.2 3.8h1.3v-4.9c.7.8 1.7 1.2 2.8 1.2 2.4-.1 4.2-2.1 4.1-4.4v-.1c.1-2.3-1.6-4.3-4-4.5h-.1c-1.1 0-2.2.5-2.8 1.4v-1.3h-1.3v12.6zm3.8-11.5c1.7 0 3.1 1.5 3.1 3.2v.1c.1 1.7-1.2 3.2-2.9 3.4h-.2c-1 0-1.9-.4-2.5-1.2v-4.3c.6-.8 1.5-1.3 2.5-1.2zm6.7 7.7h1.3v-6c.3-1 1.3-1.8 2.4-1.8.3 0 .6.1.9.2v-1.2c-.3-.1-.5-.1-.8-.1-1.2 0-2.1.8-2.4 1.9v-1.8h-1.3v8.8zm5.3-4.4c-.2 2.4 1.6 4.4 4 4.6 2.4.2 4.4-1.6 4.6-4v-.6c.1-2.4-1.7-4.4-4-4.5-2.4-.1-4.4 1.7-4.5 4-.1.2-.1.3-.1.5zm4.3 3.4c-1.7-.1-3-1.5-3-3.2v-.2c-.2-1.6.9-3.2 2.6-3.4 1.6-.2 3.2.9 3.4 2.6v.8c.1 1.7-1.1 3.2-2.8 3.4h-.2zm8.8 1h1.3l3.6-8.8h-1.4l-2.8 7.1-2.8-7.1h-1.4l3.5 8.8zm13.5-1l-.8-.9c-.7.6-1.5.9-2.4.9-1.7 0-3.1-1.4-3.1-3.1h6.9v-.4c.2-2.3-1.6-4.3-3.9-4.4h-.2c-2.4.1-4.2 2-4.1 4.4v.1c-.1 2.4 1.8 4.5 4.2 4.6h.1c1.2 0 2.4-.4 3.3-1.2zm-3.5-6.8c1.5.1 2.7 1.3 2.8 2.8h-5.6c.1-1.5 1.3-2.7 2.8-2.8zm5.5 6.7c1 .9 2.3 1.4 3.6 1.3 1.9 0 3.4-1.2 3.4-2.7 0-1.3-.8-2-2.6-2.4l-1.5-.3c-1.1-.2-1.5-.5-1.5-1.3 0-.9.8-1.4 1.9-1.4 1 0 2 .3 2.8.9l.6-.9c-1-.7-2.1-1.1-3.3-1.1-1.9 0-3.2 1.1-3.2 2.6 0 1.3.8 2 2.5 2.3l1.4.3c1.1.2 1.6.6 1.6 1.3 0 .9-.9 1.6-2.2 1.6-1 0-2-.4-2.8-1.1l-.7.9zm16.9 1.2c1.1 0 2.1-.4 2.8-1.3v1.7c0 1.5-.8 2.2-2.4 2.2-1 0-2-.3-2.8-.8l-.6 1c1 .6 2.2.9 3.4.9 2.4 0 3.7-1.2 3.7-3.4v-9.2h-1.3v1.1c-.7-.8-1.7-1.3-2.8-1.2-2.4.1-4.2 2.1-4.1 4.4v.1c-.1 2.3 1.6 4.4 4.1 4.5-.1 0-.1 0 0 0zm-2.8-4.5c-.1-1.7 1.2-3.2 2.9-3.3 1-.1 2 .4 2.7 1.2v4.3c-.6.8-1.5 1.2-2.5 1.2-1.7 0-3.1-1.5-3.1-3.2v-.2zm10.9-4.4h-1.3v5.7c-.1 1.7 1.2 3.1 2.9 3.3h.3c1.1 0 2.2-.6 2.8-1.6v1.4h1.3v-8.8h-1.3v6.5c-.5.8-1.3 1.3-2.3 1.3-1.3 0-2.3-.9-2.4-2.2V2848.2zm15.9 7.8l-.8-.9c-.7.6-1.5.9-2.4.9-1.7 0-3.1-1.4-3.1-3.1h6.9v-.4c.2-2.3-1.6-4.3-3.9-4.4h-.2c-2.4.1-4.2 2-4.1 4.4v.1c-.1 2.4 1.8 4.5 4.2 4.6h.1c1.2 0 2.4-.4 3.3-1.2zm-3.5-6.8c1.5.1 2.7 1.3 2.8 2.8h-5.6c0-1.5 1.3-2.7 2.8-2.8zm5.5 6.7c1 .9 2.3 1.4 3.6 1.3 1.9 0 3.4-1.2 3.4-2.7 0-1.3-.8-2-2.6-2.4l-1.5-.3c-1.1-.2-1.5-.5-1.5-1.3 0-.9.8-1.4 1.9-1.4 1 0 2 .3 2.8.9l.6-.9c-1-.7-2.1-1.1-3.3-1.1-1.9 0-3.2 1.1-3.2 2.6 0 1.3.8 2 2.5 2.3l1.4.3c1.1.2 1.6.6 1.6 1.3 0 .9-.9 1.6-2.2 1.6-1 0-2-.4-2.8-1.1l-.7.9zm9.8-.9c0 1.4.8 2.1 2.3 2.1.5 0 1-.1 1.5-.2v-1.2c-.4.2-.8.2-1.2.2-.9 0-1.3-.4-1.3-1.3v-5.4h2.5v-1.1h-2.5v-2.7l-1.3.3v2.4h-1.8v1.1h1.8v5.8zm17.3 1l-.8-.9c-.7.6-1.5.9-2.4.9-1.7 0-3.1-1.4-3.1-3.1h6.9v-.4c.2-2.3-1.6-4.3-3.9-4.4h-.2c-2.4.1-4.2 2-4.1 4.4v.1c-.1 2.4 1.8 4.5 4.2 4.6h.1c1.2 0 2.3-.4 3.3-1.2zm-3.6-6.8c1.5.1 2.7 1.3 2.8 2.8h-5.6c.1-1.5 1.3-2.7 2.8-2.8zm4.7 7.8h1.5l2.6-3.6 2.6 3.6h1.6l-3.4-4.6 3.2-4.2h-1.5l-2.4 3.3-2.4-3.3h-1.6l3.2 4.3-3.4 4.5zm9.8 3.8h1.3v-4.9c.7.8 1.7 1.2 2.8 1.2 2.4-.1 4.2-2.1 4.1-4.4v-.1c.1-2.3-1.6-4.3-4-4.5h-.1c-1.1 0-2.2.5-2.8 1.4v-1.3h-1.3v12.6zm3.9-11.5c1.7 0 3.1 1.5 3.1 3.2v.1c.1 1.7-1.2 3.2-2.9 3.4h-.2c-1 0-1.9-.4-2.5-1.2v-4.3c.5-.8 1.5-1.3 2.5-1.2zm13.9 6.7l-.8-.9c-.7.6-1.5.9-2.4.9-1.7 0-3.1-1.4-3.1-3.1h6.9v-.4c.2-2.3-1.6-4.3-3.9-4.4h-.2c-2.4.1-4.2 2-4.1 4.4v.1c-.1 2.4 1.8 4.5 4.2 4.6h.1c1.2 0 2.4-.4 3.3-1.2zm-3.5-6.8c1.5.1 2.7 1.3 2.8 2.8h-5.6c.1-1.5 1.3-2.7 2.8-2.8zm6.3 7.8h1.3v-6c.3-1 1.3-1.8 2.4-1.8.3 0 .6.1.9.2v-1.2c-.3-.1-.5-.1-.8-.1-1.2 0-2.1.8-2.4 1.9v-1.8h-1.3v8.8zm7-10.9c.5 0 .9-.4.9-.9s-.4-.9-.9-.9-.9.4-.9.9c-.1.4.3.8.9.9zm.6 2.1h-1.3v8.8h1.3v-8.8zm10 7.8l-.8-.9c-.7.6-1.5.9-2.4.9-1.7 0-3.1-1.4-3.1-3.1h6.9v-.4c.2-2.3-1.6-4.3-3.9-4.4h-.2c-2.4.1-4.2 2-4.1 4.4v.1c-.1 2.4 1.8 4.5 4.2 4.6h.1c1.2 0 2.4-.4 3.3-1.2zm-3.5-6.8c1.5.1 2.7 1.3 2.8 2.8h-5.6c0-1.5 1.2-2.7 2.8-2.8zm6.2 7.8h1.3v-6.5c.5-.8 1.3-1.4 2.3-1.4 1.3-.1 2.3.9 2.4 2.2v5.6h1.3v-5.7c.1-1.7-1.2-3.1-2.9-3.2h-.3c-1.1 0-2.2.6-2.8 1.6v-1.4h-1.3v8.8zm14-1c-1.8 0-3.1-1.5-3.1-3.3v-.1c-.1-1.8 1.3-3.3 3-3.3h.1c.9 0 1.8.4 2.5 1.1l.8-.9c-.9-.9-2.1-1.4-3.4-1.4-2.4 0-4.4 2-4.3 4.4v.1c-.1 2.4 1.8 4.5 4.2 4.6h.1c1.3 0 2.5-.5 3.3-1.4l-.8-.8c-.6.6-1.5 1-2.4 1zm12.1 0l-.8-.9c-.7.6-1.5.9-2.4.9-1.7 0-3.1-1.4-3.1-3.1h6.9v-.4c.2-2.3-1.6-4.3-3.9-4.4h-.2c-2.4.1-4.2 2-4.1 4.4v.1c-.1 2.4 1.8 4.5 4.2 4.6h.1c1.2 0 2.4-.4 3.3-1.2zm-3.5-6.8c1.5.1 2.7 1.3 2.8 2.8h-5.6c.1-1.5 1.3-2.7 2.8-2.8zm5.5 6.7c1 .9 2.3 1.4 3.6 1.3 1.9 0 3.4-1.2 3.4-2.7 0-1.3-.8-2-2.6-2.4l-1.5-.3c-1.1-.2-1.5-.5-1.5-1.3 0-.9.8-1.4 1.9-1.4 1 0 2 .3 2.8.9l.6-.9c-1-.7-2.1-1.1-3.3-1.1-1.9 0-3.2 1.1-3.2 2.6 0 1.3.8 2 2.5 2.3l1.4.3c1.1.2 1.6.6 1.6 1.3 0 .9-.9 1.6-2.2 1.6-1 0-2-.4-2.8-1.1l-.7.9zm-260.8 28.1l2.1-7.1 2.1 7.1h1.3l2.4-8.8h-1.2l-1.8 7-2.1-7h-1.2l-2.1 7-1.8-7h-1.3l2.4 8.8h1.2zm10.4-10.9c.5 0 .9-.4.9-.9s-.4-.9-.9-.9-.9.4-.9.9c-.1.4.3.8.9.9zm.6 2.1h-1.3v8.8h1.3v-8.8zm3.8 6.8c0 1.4.8 2.1 2.3 2.1.5 0 1-.1 1.5-.2v-1.2c-.4.2-.8.2-1.2.2-.9 0-1.3-.4-1.3-1.3v-5.4h2.5v-1.1h-2.5v-2.7l-1.3.3v2.4h-1.8v1.1h1.8v5.8zm5.7 2h1.3v-6.5c.5-.8 1.3-1.4 2.3-1.4 1.3-.1 2.3.9 2.4 2.2v5.6h1.3v-5.7c.1-1.7-1.2-3.1-2.9-3.2h-.3c-1.1 0-2.2.6-2.8 1.6v-5.8l-1.3.3v12.9zm16.9.2c1.1 0 2.1-.4 2.8-1.2v1h1.3v-5.8c0-2-1.2-3.1-3.4-3.1-1.2 0-2.3.3-3.3.8l.5 1c.8-.5 1.7-.7 2.7-.8 1.1-.2 2.1.6 2.3 1.7v1.7c-.8-.5-1.7-.7-2.7-.7-2 0-3.3 1-3.3 2.6-.1 1.7 1.2 2.8 3.1 2.8zm-1.9-2.8c0-1 .9-1.6 2.2-1.6.9 0 1.7.2 2.5.6v1.7c-.7.7-1.6 1-2.5 1-1.4.1-2.2-.6-2.2-1.7zm9.8-6.2h-1.3v5.7c-.1 1.7 1.2 3.1 2.9 3.3h.3c1.1 0 2.2-.6 2.8-1.6v1.4h1.3v-8.8h-1.3v6.5c-.5.8-1.3 1.3-2.3 1.3-1.3 0-2.3-.9-2.4-2.2V2875.2zm9.7 6.8c0 1.4.8 2.1 2.3 2.1.5 0 1-.1 1.5-.2v-1.2c-.4.2-.8.2-1.2.2-.9 0-1.3-.4-1.3-1.3v-5.4h2.5v-1.1h-2.5v-2.7l-1.3.3v2.4h-1.8v1.1h1.8v5.8zm5.2-2.4c-.2 2.4 1.6 4.4 4 4.6 2.4.2 4.4-1.6 4.6-4v-.6c.1-2.4-1.7-4.4-4-4.5-2.4-.1-4.4 1.7-4.5 4-.1.2-.1.3-.1.5zm4.2 3.4c-1.7-.1-3-1.5-3-3.2v-.2c-.2-1.6.9-3.2 2.6-3.4s3.2.9 3.4 2.6v.8c.1 1.7-1.1 3.2-2.8 3.4h-.2zm6.6 1h1.3v-6.5c.4-.8 1.2-1.3 2.1-1.3 1.2 0 2.2 1 2.2 2.2v5.7h1.3v-5.7c0-.3 0-.5-.1-.8.4-.8 1.3-1.4 2.2-1.4 1.3 0 2.2 1 2.2 2.5v5.3h1.3v-5.7c.1-1.6-1.1-3.1-2.7-3.2h-.3c-1.2 0-2.4.6-2.9 1.7-.5-1.1-1.5-1.7-2.7-1.7-1.1 0-2.1.6-2.6 1.5v-1.4h-1.3v8.8zm17.9.2c1.1 0 2.1-.4 2.8-1.2v1h1.3v-5.8c0-2-1.2-3.1-3.4-3.1-1.2 0-2.3.3-3.3.8l.5 1c.8-.5 1.7-.7 2.7-.8 1.1-.2 2.1.6 2.3 1.7v1.7c-.8-.5-1.7-.7-2.7-.7-2 0-3.3 1-3.3 2.6 0 1.7 1.3 2.8 3.1 2.8zm-1.9-2.8c0-1 .9-1.6 2.2-1.6.9 0 1.7.2 2.5.6v1.7c-.7.7-1.6 1-2.5 1-1.3.1-2.2-.6-2.2-1.7zm9.5.6c0 1.4.8 2.1 2.3 2.1.5 0 1-.1 1.5-.2v-1.2c-.4.2-.8.2-1.2.2-.9 0-1.3-.4-1.3-1.3v-5.4h2.5v-1.1h-2.5v-2.7l-1.3.3v2.4h-1.8v1.1h1.8v5.8zm6.4-8.9c.5 0 .9-.4.9-.9s-.4-.9-.9-.9-.9.4-.9.9c-.1.4.3.8.9.9zm.6 2.1h-1.3v8.8h1.3v-8.8zm2.3 4.4c-.2 2.4 1.6 4.4 4 4.6 2.4.2 4.4-1.6 4.6-4v-.6c.1-2.4-1.7-4.4-4-4.5s-4.4 1.7-4.5 4c-.1.2-.1.3-.1.5zm4.3 3.4c-1.7-.1-3-1.5-3-3.2v-.2c-.2-1.6.9-3.2 2.6-3.4 1.6-.2 3.2.9 3.4 2.6v.8c.2 1.7-1.1 3.2-2.8 3.4h-.2zm6.6 1h1.3v-6.5c.5-.8 1.3-1.4 2.3-1.4 1.3-.1 2.3.9 2.4 2.2v5.6h1.3v-5.7c.1-1.7-1.2-3.1-2.9-3.2h-.3c-1.1 0-2.2.6-2.8 1.6v-1.4h-1.3v8.8zm16.8.2c1.1 0 2.1-.4 2.8-1.2v1h1.3v-5.8c0-2-1.2-3.1-3.4-3.1-1.2 0-2.3.3-3.3.8l.5 1c.8-.5 1.7-.7 2.7-.8 1.1-.2 2.1.6 2.3 1.7v1.7c-.8-.5-1.7-.7-2.7-.7-2 0-3.3 1-3.3 2.6 0 1.7 1.3 2.8 3.1 2.8zm-1.9-2.8c0-1 .9-1.6 2.2-1.6.9 0 1.7.2 2.5.6v1.7c-.7.7-1.6 1-2.5 1-1.3.1-2.2-.6-2.2-1.7zm8.7 2.6h1.3v-6.5c.5-.8 1.3-1.4 2.3-1.4 1.3-.1 2.3.9 2.4 2.2v5.6h1.3v-5.7c.1-1.7-1.2-3.1-2.9-3.2h-.3c-1.1 0-2.2.6-2.8 1.6v-1.4h-1.3v8.8zm16.4 0h1.3v-13.1l-1.3.3v5.2c-.7-.8-1.7-1.2-2.7-1.2-2.4.1-4.2 2.1-4.1 4.4v.1c-.1 2.3 1.6 4.3 4 4.5h.1c1.1 0 2.1-.4 2.8-1.3v1.1zm-5.6-4.4c-.1-1.7 1.2-3.2 2.9-3.3 1-.1 2 .4 2.7 1.2v4.4c-.6.8-1.5 1.2-2.5 1.2-1.7 0-3.1-1.5-3.1-3.2v-.3zm17.8 3.4c-1.9-.2-3.2-1.8-3.1-3.6.1-1.6 1.4-2.9 3.1-3.1.9 0 1.8.4 2.5 1.1l.8-.9c-.9-.9-2.1-1.4-3.4-1.4-2.5.1-4.4 2.2-4.3 4.8.1 2.3 2 4.2 4.3 4.3 1.3 0 2.5-.5 3.3-1.4l-.8-.8c-.6.6-1.4 1-2.4 1zm4.5-3.4c-.2 2.4 1.6 4.4 4 4.6 2.4.2 4.4-1.6 4.6-4v-.6c.1-2.4-1.7-4.4-4-4.5s-4.4 1.7-4.5 4c-.1.2-.1.3-.1.5zm4.3 3.4c-1.7-.1-3-1.5-3-3.2v-.2c-.2-1.6.9-3.2 2.6-3.4 1.6-.2 3.2.9 3.4 2.6v.8c.1 1.7-1.1 3.2-2.8 3.4h-.2zm6.6 1h1.3v-6.5c.5-.8 1.3-1.4 2.3-1.4 1.3-.1 2.3.9 2.4 2.2v5.6h1.3v-5.7c.1-1.7-1.2-3.1-2.9-3.2h-.3c-1.1 0-2.2.6-2.8 1.6v-1.4h-1.3v8.8zm10.7-2c0 1.4.8 2.1 2.3 2.1.5 0 1-.1 1.5-.2v-1.2c-.4.2-.8.2-1.2.2-.9 0-1.3-.4-1.3-1.3v-5.4h2.5v-1.1h-2.5v-2.7l-1.3.3v2.4h-1.8v1.1h1.8v5.8zm8.4 2.2c1.1 0 2.1-.4 2.8-1.2v1h1.3v-5.8c0-2-1.2-3.1-3.4-3.1-1.2 0-2.3.3-3.3.8l.5 1c.8-.5 1.7-.7 2.7-.8 1.1-.2 2.1.6 2.3 1.7v1.7c-.8-.5-1.7-.7-2.7-.7-2 0-3.3 1-3.3 2.6 0 1.7 1.3 2.8 3.1 2.8zm-1.9-2.8c0-1 .9-1.6 2.2-1.6.9 0 1.7.2 2.5.6v1.7c-.7.7-1.6 1-2.5 1-1.3.1-2.2-.6-2.2-1.7zm9.4-8.3c.5 0 .9-.4.9-.9s-.4-.9-.9-.9-.9.4-.9.9c-.1.4.3.8.9.9-.1 0 0 0 0 0zm.6 2.1h-1.3v8.8h1.3v-8.8zm2.7 8.8h1.3v-6.5c.5-.8 1.3-1.4 2.3-1.4 1.3-.1 2.3.9 2.4 2.2v5.6h1.3v-5.7c.1-1.7-1.2-3.1-2.9-3.2h-.3c-1.1 0-2.2.6-2.8 1.6v-1.4h-1.3v8.8zm17.2-1l-.8-.9c-.7.6-1.5.9-2.4.9-1.7 0-3.1-1.4-3.1-3.1h6.9v-.4c.2-2.3-1.6-4.3-3.9-4.4h-.2c-2.4.1-4.2 2-4.1 4.4v.1c-.1 2.4 1.8 4.5 4.2 4.6h.1c1.2 0 2.4-.4 3.3-1.2zm-3.5-6.8c1.5.1 2.7 1.3 2.8 2.8h-5.6c.1-1.5 1.3-2.7 2.8-2.8zm6.3 7.8h1.3v-6c.3-1 1.3-1.8 2.4-1.8.3 0 .6.1.9.2v-1.2c-.3-.1-.5-.1-.8-.1-1.2 0-2.1.8-2.4 1.9v-1.8h-1.3l-.1 8.8zm5.4-1.1c1 .9 2.3 1.4 3.6 1.3 1.9 0 3.4-1.2 3.4-2.7 0-1.3-.8-2-2.6-2.4l-1.5-.3c-1.1-.2-1.5-.5-1.5-1.3 0-.9.8-1.4 1.9-1.4 1 0 2 .3 2.8.9l.6-.9c-1-.7-2.1-1.1-3.3-1.1-1.9 0-3.2 1.1-3.2 2.6 0 1.3.8 2 2.5 2.3l1.4.3c1.1.2 1.6.6 1.6 1.3 0 .9-.9 1.6-2.2 1.6-1 0-2-.4-2.8-1.1l-.7.9zm9.4-.7c-.5 0-1 .4-1 .9s.4 1 .9 1 1-.4 1-.9v-.1c0-.5-.4-.9-.9-.9z" fill="#151515"/></g><path fill="none" d="M956 2180h340v200H956z"/></g></svg>