<svg xmlns="http://www.w3.org/2000/svg" width="340" height="200" viewBox="0 0 340 200">
  <g id="Card" transform="translate(-424 -580)">
    <rect id="Rectangle" width="340" height="200" transform="translate(424 580)" fill="none"/>
    <g id="Card-2" data-name="Card">
      <g id="Rectangle-2" data-name="Rectangle" transform="translate(424 612)" fill="#fff" stroke="#d2d2d2" stroke-width="1">
        <rect width="340" height="136" rx="3" stroke="none"/>
        <rect x="0.5" y="0.5" width="339" height="135" rx="2.5" fill="none"/>
      </g>
      <g id="Call_to_action" data-name="Call to action">
        <path id="Arrow" d="M7,0,5.6,1.4,10.3,6H0V8H10.3L5.6,12.6,7,14l7-7Z" transform="translate(595 704)" fill="#06c"/>
        <path id="Path" d="M1.134,0h2.61V-4.824H6.588L9.054,0H11.97L9.18-5.184a3.742,3.742,0,0,0,2.466-3.51c0-2.3-1.8-3.906-4.356-3.906H1.134ZM7.056-10.35A1.731,1.731,0,0,1,9-8.658,1.731,1.731,0,0,1,7.056-6.966H3.744V-10.35Zm14,9.18L19.44-2.646a2.952,2.952,0,0,1-2.07.756,2.7,2.7,0,0,1-2.664-1.962H21.69V-4.5a4.733,4.733,0,0,0-4.644-5.04,4.787,4.787,0,0,0-4.824,4.86A4.882,4.882,0,0,0,17.262.18,5.622,5.622,0,0,0,21.06-1.17ZM16.992-7.506a2.419,2.419,0,0,1,2.286,1.89h-4.59A2.355,2.355,0,0,1,16.992-7.506ZM26.136.162a4.457,4.457,0,0,0,2.718-.81V0h2.43V-6.084c0-2.214-1.458-3.474-4-3.474A9.779,9.779,0,0,0,23.112-8.55l.9,1.818a7.267,7.267,0,0,1,2.862-.774c1.314,0,1.98.558,1.98,1.638V-5.2a7.584,7.584,0,0,0-2.286-.36c-2.412,0-3.852,1.062-3.852,2.844C22.716-1.008,24.12.162,26.136.162ZM25.074-2.772c0-.72.666-1.17,1.8-1.17a5.449,5.449,0,0,1,1.98.342v1.4a3.551,3.551,0,0,1-2.07.594C25.74-1.6,25.074-2.052,25.074-2.772ZM40.158,0h2.43V-13.14l-2.466.54v3.834A4.661,4.661,0,0,0,37.566-9.5,4.768,4.768,0,0,0,32.724-4.7,4.756,4.756,0,0,0,37.494.126a4.253,4.253,0,0,0,2.664-.9Zm-5-4.7A2.664,2.664,0,0,1,37.89-7.416a3.1,3.1,0,0,1,2.232.882V-2.88a3.008,3.008,0,0,1-2.232.9A2.686,2.686,0,0,1,35.154-4.7ZM52.74-1.98a2.582,2.582,0,0,1-2.574-2.7,2.593,2.593,0,0,1,2.52-2.736,3.043,3.043,0,0,1,2.322,1.134l1.512-1.6a5.275,5.275,0,0,0-3.888-1.674A4.833,4.833,0,0,0,47.718-4.68,4.819,4.819,0,0,0,52.632.18a5.2,5.2,0,0,0,3.816-1.674l-1.476-1.53A2.91,2.91,0,0,1,52.74-1.98ZM60.7.162a4.457,4.457,0,0,0,2.718-.81V0h2.43V-6.084c0-2.214-1.458-3.474-4-3.474A9.779,9.779,0,0,0,57.672-8.55l.9,1.818a7.267,7.267,0,0,1,2.862-.774c1.314,0,1.98.558,1.98,1.638V-5.2a7.585,7.585,0,0,0-2.286-.36c-2.412,0-3.852,1.062-3.852,2.844C57.276-1.008,58.68.162,60.7.162ZM59.634-2.772c0-.72.666-1.17,1.8-1.17a5.449,5.449,0,0,1,1.98.342v1.4a3.551,3.551,0,0,1-2.07.594C60.3-1.6,59.634-2.052,59.634-2.772Zm7.29,1.656a6.911,6.911,0,0,0,4.3,1.3c2.358,0,4.1-1.332,4.1-3.1,0-1.458-1.026-2.412-2.862-2.682l-1.8-.27c-.918-.126-1.278-.378-1.278-.882,0-.558.576-.918,1.476-.918a5.536,5.536,0,0,1,2.9.9l1.188-1.584A6.918,6.918,0,0,0,71.1-9.522c-2.394,0-3.906,1.152-3.906,2.97,0,1.512.99,2.43,2.844,2.718l1.8.27c.81.126,1.17.4,1.17.882,0,.594-.72.99-1.818.99a5.461,5.461,0,0,1-3.042-1.062ZM85.05-1.17,83.43-2.646a2.952,2.952,0,0,1-2.07.756A2.7,2.7,0,0,1,78.7-3.852H85.68V-4.5a4.733,4.733,0,0,0-4.644-5.04,4.787,4.787,0,0,0-4.824,4.86A4.882,4.882,0,0,0,81.252.18,5.622,5.622,0,0,0,85.05-1.17ZM80.982-7.506a2.419,2.419,0,0,1,2.286,1.89h-4.59A2.355,2.355,0,0,1,80.982-7.506Zm9.036,6.39a6.911,6.911,0,0,0,4.3,1.3c2.358,0,4.1-1.332,4.1-3.1,0-1.458-1.026-2.412-2.862-2.682l-1.8-.27c-.918-.126-1.278-.378-1.278-.882,0-.558.576-.918,1.476-.918a5.536,5.536,0,0,1,2.9.9l1.188-1.584a6.918,6.918,0,0,0-3.852-1.17c-2.394,0-3.906,1.152-3.906,2.97,0,1.512.99,2.43,2.844,2.718l1.8.27c.81.126,1.17.4,1.17.882,0,.594-.72.99-1.818.99a5.461,5.461,0,0,1-3.042-1.062Zm10.728-1.53c0,1.836,1.08,2.79,3.168,2.79a7.651,7.651,0,0,0,1.908-.288V-2.16a3.794,3.794,0,0,1-1.314.216c-.954,0-1.3-.324-1.3-1.206V-7.308h2.664v-2.07h-2.664V-12.33l-2.466.558v2.394H98.82v2.07h1.926Zm8.748-6.732h-2.466v5.814A3.573,3.573,0,0,0,110.736.18a3.993,3.993,0,0,0,2.646-.936V0h2.466V-9.378h-2.466v6.5a2.257,2.257,0,0,1-1.944.936,1.843,1.843,0,0,1-1.944-1.98ZM124.776,0h2.43V-13.14l-2.466.54v3.834a4.661,4.661,0,0,0-2.556-.738A4.768,4.768,0,0,0,117.342-4.7a4.756,4.756,0,0,0,4.77,4.824,4.253,4.253,0,0,0,2.664-.9Zm-5-4.7a2.664,2.664,0,0,1,2.736-2.718,3.1,3.1,0,0,1,2.232.882V-2.88a3.008,3.008,0,0,1-2.232.9A2.686,2.686,0,0,1,119.772-4.7ZM131.688.432a1.888,1.888,0,0,1-1.854,1.278,3.868,3.868,0,0,1-.864-.072V3.762a4.5,4.5,0,0,0,1.1.108c2.052,0,3.186-.864,4.158-3.132l4.32-10.116h-2.664l-2.664,6.39L130.9-9.378h-2.718L131.832.09Z" transform="translate(448 717)" fill="#06c"/>
      </g>
      <path id="Path-2" data-name="Path" d="M6.08,15.2l6.1-8.944L10.112,16h1.12L13.616,4.8H11.888L6.544,12.784l-2-7.984H2.928L.544,16H1.68L3.76,6.208Zm10.32.912a3.587,3.587,0,0,0,2.272-.848l-.16.736h1.136l1.088-4.88c.416-1.888-.624-3.04-2.72-3.04a7.094,7.094,0,0,0-2.768.64l.32.912a5.366,5.366,0,0,1,2.24-.592c1.488,0,2.1.736,1.776,2.176l-.208.944a4.418,4.418,0,0,0-2.576-.752c-1.776,0-2.992,1.024-2.992,2.512C13.808,15.248,14.848,16.112,16.4,16.112Zm-1.488-2.32c0-.88.832-1.52,2-1.52a3.57,3.57,0,0,1,2.288.672l-.336,1.488a3.3,3.3,0,0,1-2.128.8C15.584,15.232,14.912,14.7,14.912,13.792Zm6.736.992a4.291,4.291,0,0,0,3.216,1.376,2.7,2.7,0,0,0,2.96-2.528c0-.976-.56-1.536-1.9-1.92l-1.248-.352c-.816-.224-1.12-.544-1.12-1.12,0-.736.656-1.232,1.648-1.232a3.96,3.96,0,0,1,2.416,1.008l.7-.784a4.621,4.621,0,0,0-3.056-1.184c-1.632,0-2.752.944-2.752,2.3,0,1.008.576,1.648,1.808,2l1.232.32c.864.256,1.184.56,1.184,1.1a1.675,1.675,0,0,1-1.856,1.44,3.333,3.333,0,0,1-2.528-1.168Zm7.216,0A4.291,4.291,0,0,0,32.08,16.16a2.7,2.7,0,0,0,2.96-2.528c0-.976-.56-1.536-1.9-1.92l-1.248-.352c-.816-.224-1.12-.544-1.12-1.12,0-.736.656-1.232,1.648-1.232a3.96,3.96,0,0,1,2.416,1.008l.7-.784A4.621,4.621,0,0,0,32.48,8.048c-1.632,0-2.752.944-2.752,2.3,0,1.008.576,1.648,1.808,2l1.232.32c.864.256,1.184.56,1.184,1.1a1.675,1.675,0,0,1-1.856,1.44,3.333,3.333,0,0,1-2.528-1.168ZM38.928,6.272a.936.936,0,0,0,.912-.928.738.738,0,0,0-.736-.752.959.959,0,0,0-.912.928A.719.719,0,0,0,38.928,6.272Zm.16,1.92H37.952L36.24,16h1.152ZM41.92,16h1.088l4.864-7.808h-1.28l-3.808,6.352L41.712,8.192h-1.2Zm12.32-.72-.608-.832a3.405,3.405,0,0,1-2.064.688,2.5,2.5,0,0,1-2.48-2.624v-.16h5.984a7.749,7.749,0,0,0,.048-.848,3.182,3.182,0,0,0-3.136-3.44,4.27,4.27,0,0,0-4.016,4.48,3.415,3.415,0,0,0,3.552,3.6A4.676,4.676,0,0,0,54.24,15.28ZM51.9,9.088a2.229,2.229,0,0,1,2.128,2.432H49.2A2.92,2.92,0,0,1,51.9,9.088ZM60.144,16h4.112A6.262,6.262,0,0,0,70.5,9.744,4.6,4.6,0,0,0,65.712,4.8H62.528Zm5.52-10.1a3.534,3.534,0,0,1,3.584,3.872,4.954,4.954,0,0,1-4.816,5.12H61.584l1.9-8.992Zm7.12,11.408a1.6,1.6,0,0,1-1.44.912,3.356,3.356,0,0,1-.656-.1l-.208,1.04a3.117,3.117,0,0,0,.88.16A2.748,2.748,0,0,0,73.84,17.7l5.648-9.5h-1.3l-3.808,6.464L73.376,8.192H72.16L73.5,16.08ZM79.232,16h1.152l1.28-5.872A2.77,2.77,0,0,1,83.792,9.04c1.3,0,1.952.96,1.632,2.4L84.432,16h1.152l1.024-4.8c.4-1.808-.56-3.12-2.32-3.12A3.114,3.114,0,0,0,81.84,9.328l.24-1.136H80.944Zm11.392.112a3.587,3.587,0,0,0,2.272-.848l-.16.736h1.136l1.088-4.88c.416-1.888-.624-3.04-2.72-3.04a7.094,7.094,0,0,0-2.768.64l.32.912a5.366,5.366,0,0,1,2.24-.592c1.488,0,2.1.736,1.776,2.176l-.208.944a4.418,4.418,0,0,0-2.576-.752c-1.776,0-2.992,1.024-2.992,2.512C88.032,15.248,89.072,16.112,90.624,16.112Zm-1.488-2.32c0-.88.832-1.52,2-1.52a3.57,3.57,0,0,1,2.288.672l-.336,1.488a3.3,3.3,0,0,1-2.128.8C89.808,15.232,89.136,14.7,89.136,13.792ZM96.16,16h1.152l1.264-5.808A2.616,2.616,0,0,1,100.64,9.04c1.136,0,1.728.944,1.424,2.3L101.056,16h1.152l1.056-4.9a3.3,3.3,0,0,0,.08-.768,2.781,2.781,0,0,1,2.176-1.3c1.12,0,1.728.912,1.44,2.192L105.936,16h1.136l1.056-4.9c.384-1.728-.5-3.024-2.08-3.024a3.57,3.57,0,0,0-2.784,1.584,2.076,2.076,0,0,0-2.128-1.584,3.053,3.053,0,0,0-2.384,1.312l.256-1.2H97.872ZM112.1,6.272a.936.936,0,0,0,.912-.928.738.738,0,0,0-.736-.752.959.959,0,0,0-.912.928A.719.719,0,0,0,112.1,6.272Zm.16,1.92H111.12L109.408,16h1.152Zm4.688,6.928a2.442,2.442,0,0,1-2.4-2.544A3.306,3.306,0,0,1,117.6,9.152a2.444,2.444,0,0,1,2.112,1.152l.864-.72A3.57,3.57,0,0,0,117.648,8.1a4.444,4.444,0,0,0-4.24,4.544,3.327,3.327,0,0,0,3.36,3.5A4.394,4.394,0,0,0,119.6,15.1l-.544-.752A3.423,3.423,0,0,1,116.944,15.12Zm9.12-8.848a.83.83,0,0,0,.832-.848.84.84,0,0,0-1.68,0A.834.834,0,0,0,126.064,6.272Zm.576,1.92h-1.168V16h1.168ZM129.04,16h1.168V10.192a2.14,2.14,0,0,1,1.9-1.152,1.94,1.94,0,0,1,1.936,2.208V16h1.168V10.96a3.238,3.238,0,0,0-.064-.688A2.173,2.173,0,0,1,137.1,9.04c1.184,0,1.92.848,1.92,2.208V16h1.168V10.96a2.657,2.657,0,0,0-2.656-2.9,2.885,2.885,0,0,0-2.608,1.52,2.566,2.566,0,0,0-2.4-1.52,2.674,2.674,0,0,0-2.32,1.344V8.192H129.04Zm13.52,3.344h1.168v-4.32a3.166,3.166,0,0,0,2.448,1.088A3.8,3.8,0,0,0,149.84,12.1a3.768,3.768,0,0,0-3.6-4,3.08,3.08,0,0,0-2.528,1.216V8.192H142.56ZM145.952,9.12a2.8,2.8,0,0,1,2.736,2.992,2.8,2.8,0,0,1-2.736,2.992,2.744,2.744,0,0,1-2.224-1.088V10.192A2.666,2.666,0,0,1,145.952,9.12ZM151.888,16h1.168V10.656a2.226,2.226,0,0,1,2.1-1.584,2.919,2.919,0,0,1,.816.144V8.16a2.217,2.217,0,0,0-.736-.112,2.332,2.332,0,0,0-2.176,1.728V8.192h-1.168Zm4.784-3.9a3.809,3.809,0,1,0,7.6,0,3.807,3.807,0,1,0-7.6,0Zm3.792,3.024a2.753,2.753,0,0,1-2.64-3.008,2.671,2.671,0,1,1,5.3,0A2.774,2.774,0,0,1,160.464,15.12Zm7.856.88h1.12l3.216-7.808h-1.248l-2.5,6.352-2.528-6.352H165.12Zm11.984-.9-.736-.784a3.191,3.191,0,0,1-2.144.8,2.845,2.845,0,0,1-2.784-2.768h6.128V12a3.689,3.689,0,0,0-3.584-3.936A3.8,3.8,0,0,0,173.5,12.1a3.9,3.9,0,0,0,3.872,4.048A4.558,4.558,0,0,0,180.3,15.1Zm-3.136-6.032a2.579,2.579,0,0,1,2.448,2.448h-4.944A2.608,2.608,0,0,1,177.168,9.072Zm4.928,5.92a4.451,4.451,0,0,0,3.168,1.152c1.728,0,3.04-1.056,3.04-2.416,0-1.152-.7-1.808-2.272-2.1l-1.312-.24c-1.008-.176-1.344-.48-1.344-1.12,0-.768.672-1.248,1.7-1.248a4.142,4.142,0,0,1,2.448.832l.576-.816a5.048,5.048,0,0,0-2.976-.976c-1.648,0-2.816.944-2.816,2.288,0,1.136.688,1.776,2.208,2.048l1.28.224c.992.192,1.408.528,1.408,1.168,0,.816-.832,1.408-1.968,1.408a4.072,4.072,0,0,1-2.512-.976Zm10.96,0a4.451,4.451,0,0,0,3.168,1.152c1.728,0,3.04-1.056,3.04-2.416,0-1.152-.7-1.808-2.272-2.1l-1.312-.24c-1.008-.176-1.344-.48-1.344-1.12,0-.768.672-1.248,1.7-1.248a4.142,4.142,0,0,1,2.448.832l.576-.816a5.048,5.048,0,0,0-2.976-.976c-1.648,0-2.816.944-2.816,2.288,0,1.136.688,1.776,2.208,2.048l1.28.224c.992.192,1.408.528,1.408,1.168,0,.816-.832,1.408-1.968,1.408a4.072,4.072,0,0,1-2.512-.976Zm11.632.1a2.832,2.832,0,0,1-2.752-2.992,2.835,2.835,0,0,1,2.736-2.976,3.069,3.069,0,0,1,2.208.976l.752-.816a4.259,4.259,0,0,0-3.008-1.216,3.9,3.9,0,0,0-3.856,4.032,3.913,3.913,0,0,0,3.856,4.048,4.061,4.061,0,0,0,2.96-1.264l-.72-.72A2.876,2.876,0,0,1,204.688,15.088Zm5.168-8.816a.83.83,0,0,0,.832-.848.84.84,0,0,0-1.68,0A.834.834,0,0,0,209.856,6.272Zm.576,1.92h-1.168V16h1.168ZM219.28,15.1l-.736-.784a3.191,3.191,0,0,1-2.144.8,2.845,2.845,0,0,1-2.784-2.768h6.128V12a3.689,3.689,0,0,0-3.584-3.936,3.8,3.8,0,0,0-3.68,4.032,3.9,3.9,0,0,0,3.872,4.048A4.558,4.558,0,0,0,219.28,15.1Zm-3.136-6.032a2.579,2.579,0,0,1,2.448,2.448h-4.944A2.608,2.608,0,0,1,216.144,9.072Zm5.6,6.928h1.168V10.24a2.3,2.3,0,0,1,2.048-1.2,2.024,2.024,0,0,1,2.1,2.24V16h1.168V10.944a2.717,2.717,0,0,0-2.832-2.88,2.813,2.813,0,0,0-2.48,1.392V8.192h-1.168Zm9.52-1.76c0,1.248.7,1.9,2.048,1.9a4.386,4.386,0,0,0,1.36-.208V14.9a2.8,2.8,0,0,1-1.1.208c-.816,0-1.136-.336-1.136-1.168V9.152h2.24v-.96h-2.24V5.776l-1.168.272V8.192h-1.616v.96h1.616Zm5.712-7.968a.83.83,0,0,0,.832-.848.84.84,0,0,0-1.68,0A.834.834,0,0,0,236.976,6.272Zm.576,1.92h-1.168V16h1.168Zm1.648,0v.96h1.744V16h1.168V9.152h2.224v-.96h-2.224V6.5c0-.928.384-1.36,1.28-1.36a3.22,3.22,0,0,1,.944.144V4.224a3.3,3.3,0,0,0-1.056-.144,2.143,2.143,0,0,0-2.336,2.4V8.192Zm7.264-1.92a.83.83,0,0,0,.832-.848.84.84,0,0,0-1.68,0A.834.834,0,0,0,246.464,6.272Zm.576,1.92h-1.168V16h1.168Zm5.968,6.9a2.832,2.832,0,0,1-2.752-2.992,2.835,2.835,0,0,1,2.736-2.976,3.069,3.069,0,0,1,2.208.976l.752-.816a4.259,4.259,0,0,0-3.008-1.216,3.9,3.9,0,0,0-3.856,4.032,3.913,3.913,0,0,0,3.856,4.048,4.061,4.061,0,0,0,2.96-1.264l-.72-.72A2.876,2.876,0,0,1,253.008,15.088ZM1.2,43.344H2.368v-4.32a3.166,3.166,0,0,0,2.448,1.088A3.8,3.8,0,0,0,8.48,36.1a3.768,3.768,0,0,0-3.6-4,3.08,3.08,0,0,0-2.528,1.216v-1.12H1.2ZM4.592,33.12a2.8,2.8,0,0,1,2.736,2.992A2.8,2.8,0,0,1,4.592,39.1a2.744,2.744,0,0,1-2.224-1.088V34.192A2.666,2.666,0,0,1,4.592,33.12ZM10.528,40H11.7V34.656a2.226,2.226,0,0,1,2.1-1.584,2.919,2.919,0,0,1,.816.144V32.16a2.217,2.217,0,0,0-.736-.112A2.332,2.332,0,0,0,11.7,33.776V32.192H10.528Zm4.784-3.9a3.809,3.809,0,1,0,7.6,0,3.807,3.807,0,1,0-7.6,0ZM19.1,39.12a2.753,2.753,0,0,1-2.64-3.008,2.777,2.777,0,0,1,2.64-3.024,2.789,2.789,0,0,1,2.656,3.024A2.774,2.774,0,0,1,19.1,39.12Zm9.12.976a3.077,3.077,0,0,0,2.5-1.152v1.472c0,1.312-.752,2-2.176,2a5.25,5.25,0,0,1-2.5-.72l-.5.9a6.262,6.262,0,0,0,3.04.816c2.128,0,3.3-1.072,3.3-3.008V32.192H30.736V33.2a3.151,3.151,0,0,0-2.448-1.1,3.8,3.8,0,0,0-3.664,4A3.768,3.768,0,0,0,28.224,40.1Zm-2.448-4a2.774,2.774,0,0,1,4.944-1.92v3.856a2.687,2.687,0,0,1-2.208,1.056A2.8,2.8,0,0,1,25.776,36.1ZM34.288,40h1.168V34.656a2.226,2.226,0,0,1,2.1-1.584,2.919,2.919,0,0,1,.816.144V32.16a2.217,2.217,0,0,0-.736-.112,2.332,2.332,0,0,0-2.176,1.728V32.192H34.288Zm11.584-.9-.736-.784a3.191,3.191,0,0,1-2.144.8,2.845,2.845,0,0,1-2.784-2.768h6.128V36a3.689,3.689,0,0,0-3.584-3.936,3.8,3.8,0,0,0-3.68,4.032,3.9,3.9,0,0,0,3.872,4.048A4.558,4.558,0,0,0,45.872,39.1Zm-3.136-6.032a2.579,2.579,0,0,1,2.448,2.448H40.24A2.608,2.608,0,0,1,42.736,33.072Zm4.928,5.92a4.451,4.451,0,0,0,3.168,1.152c1.728,0,3.04-1.056,3.04-2.416,0-1.152-.7-1.808-2.272-2.1l-1.312-.24c-1.008-.176-1.344-.48-1.344-1.12,0-.768.672-1.248,1.7-1.248a4.142,4.142,0,0,1,2.448.832l.576-.816a5.048,5.048,0,0,0-2.976-.976c-1.648,0-2.816.944-2.816,2.288,0,1.136.688,1.776,2.208,2.048l1.28.224c.992.192,1.408.528,1.408,1.168,0,.816-.832,1.408-1.968,1.408a4.072,4.072,0,0,1-2.512-.976Zm7.36,0a4.451,4.451,0,0,0,3.168,1.152c1.728,0,3.04-1.056,3.04-2.416,0-1.152-.7-1.808-2.272-2.1l-1.312-.24c-1.008-.176-1.344-.48-1.344-1.12,0-.768.672-1.248,1.7-1.248a4.142,4.142,0,0,1,2.448.832l.576-.816a5.048,5.048,0,0,0-2.976-.976c-1.648,0-2.816.944-2.816,2.288,0,1.136.688,1.776,2.208,2.048l1.28.224c.992.192,1.408.528,1.408,1.168,0,.816-.832,1.408-1.968,1.408a4.072,4.072,0,0,1-2.512-.976ZM69.28,40l1.856-6.3L72.992,40h1.136l2.128-7.808h-1.1l-1.616,6.24-1.872-6.24h-1.04l-1.872,6.24-1.632-6.24H65.984L68.128,40ZM78.5,30.272a.83.83,0,0,0,.832-.848.84.84,0,0,0-1.68,0A.834.834,0,0,0,78.5,30.272Zm.576,1.92H77.9V40h1.168ZM82.4,38.24c0,1.248.7,1.9,2.048,1.9a4.386,4.386,0,0,0,1.36-.208V38.9a2.8,2.8,0,0,1-1.1.208c-.816,0-1.136-.336-1.136-1.168V33.152h2.24v-.96h-2.24V29.776l-1.168.272v2.144H80.784v.96H82.4ZM87.52,40h1.168V34.24a2.3,2.3,0,0,1,2.048-1.2,2.024,2.024,0,0,1,2.1,2.24V40H94V34.944a2.717,2.717,0,0,0-2.832-2.88,2.813,2.813,0,0,0-2.48,1.392V28.32l-1.168.24Zm13.152-9.728a.83.83,0,0,0,.832-.848.84.84,0,0,0-1.68,0A.834.834,0,0,0,100.672,30.272Zm.576,1.92H100.08V40h1.168Zm2.4,7.808h1.168V34.24a2.3,2.3,0,0,1,2.048-1.2,2.024,2.024,0,0,1,2.1,2.24V40h1.168V34.944a2.717,2.717,0,0,0-2.832-2.88,2.813,2.813,0,0,0-2.48,1.392V32.192h-1.168Zm8.832,0h1.168V34.24a2.3,2.3,0,0,1,2.048-1.2,2.024,2.024,0,0,1,2.1,2.24V40h1.168V34.944a2.717,2.717,0,0,0-2.832-2.88,2.813,2.813,0,0,0-2.48,1.392V32.192H112.48Zm8.48-3.9a3.809,3.809,0,1,0,7.6,0,3.807,3.807,0,1,0-7.6,0Zm3.792,3.024a2.753,2.753,0,0,1-2.64-3.008,2.671,2.671,0,1,1,5.3,0A2.774,2.774,0,0,1,124.752,39.12Zm7.856.88h1.12l3.216-7.808H135.7l-2.5,6.352-2.528-6.352h-1.264Zm8.192.144a3.352,3.352,0,0,0,2.48-1.056V40h1.152V34.816c0-1.776-1.088-2.752-3.024-2.752a6.689,6.689,0,0,0-2.944.752l.432.9a5.156,5.156,0,0,1,2.368-.672,1.758,1.758,0,0,1,2.016,1.936v1.072a4.521,4.521,0,0,0-2.384-.608c-1.76,0-2.928.928-2.928,2.32C137.968,39.168,139.136,40.144,140.8,40.144Zm-1.712-2.416c0-.864.784-1.44,1.984-1.44a4.122,4.122,0,0,1,2.208.56v1.5a3.091,3.091,0,0,1-2.24.9C139.872,39.248,139.088,38.64,139.088,37.728Zm8.4.512c0,1.248.7,1.9,2.048,1.9a4.386,4.386,0,0,0,1.36-.208V38.9a2.8,2.8,0,0,1-1.1.208c-.816,0-1.136-.336-1.136-1.168V33.152h2.24v-.96h-2.24V29.776l-1.168.272v2.144h-1.616v.96h1.616Zm5.712-7.968a.83.83,0,0,0,.832-.848.84.84,0,0,0-1.68,0A.834.834,0,0,0,153.2,30.272Zm.576,1.92h-1.168V40h1.168Zm2.048,3.9a3.809,3.809,0,1,0,7.6,0,3.807,3.807,0,1,0-7.6,0Zm3.792,3.024a2.753,2.753,0,0,1-2.64-3.008,2.671,2.671,0,1,1,5.3,0A2.774,2.774,0,0,1,159.616,39.12Zm5.856.88h1.168V34.24a2.3,2.3,0,0,1,2.048-1.2,2.024,2.024,0,0,1,2.1,2.24V40h1.168V34.944a2.717,2.717,0,0,0-2.832-2.88,2.813,2.813,0,0,0-2.48,1.392V32.192h-1.168Zm9.392-1.616a.873.873,0,1,0,.832.864A.857.857,0,0,0,174.864,38.384Z" transform="translate(448 636)" fill="#151515"/>
    </g>
  </g>
</svg>
