<svg version="1.1" id="Layer_1" xmlns="http://www.w3.org/2000/svg" x="0" y="0" viewBox="0 0 352 200" xml:space="preserve"><style>.st2{enable-background:new}.st3{fill:#151515}.st4{fill:#06c}.st5{fill:none}</style><path fill="#fff" d="M0 0h340v172H0z" transform="translate(6 14)"/><path fill="none" stroke="#d2d2d2" d="M.5.5h339v171H.5z" transform="translate(6 14)"/><g class="st2"><path class="st3" d="M384.45 329.8h8.96v1.09h-3.86V341h-1.23v-10.12h-3.87v-1.08zM395.07 329.56l1.17-.24v5.14c.59-.93 1.44-1.39 2.48-1.39 1.68 0 2.83 1.17 2.83 2.88V341h-1.17v-4.72c0-1.38-.82-2.24-2.1-2.24-.86 0-1.58.42-2.05 1.2V341h-1.17v-11.44zM407.43 341.14c-2.19 0-3.87-1.76-3.87-4.05s1.6-4.03 3.68-4.03c2.05 0 3.59 1.7 3.59 3.94v.35h-6.13c.11 1.58 1.3 2.77 2.79 2.77.82 0 1.62-.3 2.14-.8l.74.78c-.91.71-1.86 1.04-2.94 1.04zm-2.71-4.62h4.95c-.18-1.41-1.17-2.45-2.45-2.45-1.3 0-2.29 1.01-2.5 2.45zM416.77 329.8h4.59c2.14 0 3.57 1.3 3.57 3.23 0 1.49-.9 2.61-2.34 3.03l2.38 4.95h-1.36l-2.27-4.79H418V341h-1.23v-11.2zm1.23 1.08v4.31h3.27c1.47 0 2.43-.85 2.43-2.14 0-1.31-.96-2.16-2.43-2.16H418zM430.02 341.14c-2.19 0-3.87-1.76-3.87-4.05s1.6-4.03 3.68-4.03c2.05 0 3.59 1.7 3.59 3.94v.35h-6.13c.11 1.58 1.3 2.77 2.79 2.77.82 0 1.62-.3 2.15-.8l.74.78c-.92.71-1.86 1.04-2.95 1.04zm-2.71-4.62h4.95c-.18-1.41-1.17-2.45-2.45-2.45-1.3 0-2.29 1.01-2.5 2.45zM441.17 339.96c-.59.75-1.47 1.15-2.5 1.15-2.03 0-3.6-1.76-3.6-4 0-2.26 1.6-4.02 3.67-4.02.96 0 1.81.38 2.43 1.09v-4.63l1.17-.24V341h-1.17v-1.04zm-2.21.13c.91 0 1.71-.37 2.21-1.04v-3.87a2.793 2.793 0 00-2.21-1.06c-1.57 0-2.74 1.26-2.74 2.98 0 1.71 1.17 2.99 2.74 2.99zM448.67 329.8h1.23v5.01h6.43v-5.01h1.23V341h-1.23v-5.09h-6.43V341h-1.23v-11.2zM459.58 338.76c0-1.39 1.17-2.32 2.93-2.32.9 0 1.7.19 2.39.61v-1.07c0-1.28-.69-1.94-2.02-1.94-.72 0-1.46.21-2.37.67l-.43-.9c1.07-.51 2-.75 2.94-.75 1.94 0 3.03.98 3.03 2.75V341h-1.15v-.91c-.69.7-1.52 1.06-2.48 1.06-1.67-.01-2.84-.98-2.84-2.39zm3.08 1.49c.88 0 1.6-.29 2.24-.9v-1.5c-.66-.38-1.33-.56-2.21-.56-1.2 0-1.98.58-1.98 1.44-.01.91.78 1.52 1.95 1.52zM469.1 334.15h-1.62v-.96h1.62v-2.14l1.17-.27v2.42h2.24v.96h-2.24v4.79c0 .83.32 1.17 1.14 1.17.4 0 .67-.05 1.1-.21v1.04c-.43.14-.91.21-1.36.21-1.34 0-2.05-.66-2.05-1.91v-5.1zM478.17 329.8h7.65v1.07h-6.42v3.94h4.45v1.07h-4.45v4.05h6.48V341h-7.71v-11.2zM487.85 333.19h1.17v1.26c.59-.93 1.44-1.39 2.48-1.39 1.68 0 2.83 1.17 2.83 2.88V341h-1.17v-4.72c0-1.38-.82-2.24-2.1-2.24-.86 0-1.58.42-2.05 1.2V341h-1.17v-7.81zM497.37 334.15h-1.62v-.96h1.62v-2.14l1.17-.27v2.42h2.24v.96h-2.24v4.79c0 .83.32 1.17 1.14 1.17.4 0 .67-.05 1.1-.21v1.04c-.43.14-.91.21-1.36.21-1.34 0-2.05-.66-2.05-1.91v-5.1zM505.82 341.14c-2.19 0-3.87-1.76-3.87-4.05s1.6-4.03 3.68-4.03c2.05 0 3.59 1.7 3.59 3.94v.35h-6.13c.11 1.58 1.3 2.77 2.79 2.77.82 0 1.62-.3 2.15-.8l.74.78c-.91.71-1.86 1.04-2.95 1.04zm-2.7-4.62h4.95c-.18-1.41-1.17-2.45-2.45-2.45-1.3 0-2.29 1.01-2.5 2.45zM511.21 333.19h1.17v1.58c.4-1.09 1.18-1.73 2.18-1.73.27 0 .5.03.74.11v1.06a2.94 2.94 0 00-.82-.14c-.96 0-1.7.58-2.1 1.58V341h-1.17v-7.81zM516.85 333.19H518v1.12c.59-.78 1.49-1.22 2.53-1.22 2.03 0 3.6 1.76 3.6 4 0 2.26-1.6 4.02-3.67 4.02-.98 0-1.84-.38-2.45-1.09v4.32h-1.17v-11.15zm1.16 2v3.83c.51.69 1.33 1.09 2.22 1.09 1.57 0 2.74-1.28 2.74-2.99s-1.17-2.99-2.74-2.99c-.92-.01-1.72.37-2.22 1.06zM526.17 333.19h1.17v1.58c.4-1.09 1.18-1.73 2.18-1.73.27 0 .5.03.74.11v1.06a2.94 2.94 0 00-.82-.14c-.96 0-1.7.58-2.1 1.58V341h-1.17v-7.81zM531.55 330.42c0-.45.38-.83.85-.83a.841.841 0 11-.85.83zm1.42 10.58h-1.17v-7.81h1.17V341zM535.25 339.22c.93.69 1.68.98 2.51.98 1.14 0 1.97-.59 1.97-1.41 0-.64-.42-.98-1.41-1.17l-1.28-.22c-1.52-.27-2.21-.91-2.21-2.05 0-1.34 1.17-2.29 2.82-2.29 1.07 0 1.98.3 2.98.98l-.58.82c-.82-.58-1.62-.83-2.45-.83-1.02 0-1.7.48-1.7 1.25 0 .64.34.94 1.34 1.12l1.31.24c1.57.29 2.27.94 2.27 2.1 0 1.36-1.31 2.42-3.04 2.42-1.28 0-2.4-.4-3.17-1.15l.64-.79zM546.21 341.14c-2.19 0-3.87-1.76-3.87-4.05s1.6-4.03 3.68-4.03c2.05 0 3.59 1.7 3.59 3.94v.35h-6.13c.11 1.58 1.3 2.77 2.79 2.77.82 0 1.62-.3 2.15-.8l.74.78c-.92.71-1.87 1.04-2.95 1.04zm-2.71-4.62h4.95c-.18-1.41-1.17-2.45-2.45-2.45-1.3 0-2.29 1.01-2.5 2.45zM555.55 329.8h1.23v10.12h6.32V341h-7.55v-11.2zM564.78 330.42c0-.45.38-.83.85-.83a.841.841 0 11-.85.83zm1.43 10.58h-1.17v-7.81h1.17V341zM568.6 333.19h1.17v1.26c.59-.93 1.44-1.39 2.48-1.39 1.68 0 2.83 1.17 2.83 2.88V341h-1.17v-4.72c0-1.38-.82-2.24-2.1-2.24-.87 0-1.59.42-2.05 1.2V341h-1.17v-7.81zM578.49 337.89c0 1.39.8 2.26 2.08 2.26.86 0 1.58-.42 2.05-1.18v-5.78h1.17V341h-1.17v-1.26c-.59.93-1.43 1.39-2.48 1.39-1.68 0-2.83-1.18-2.83-2.9v-5.04h1.18v4.7zM588.17 336.98l-2.83-3.79h1.39l2.16 2.96 2.13-2.96h1.33l-2.8 3.76 3.03 4.05h-1.39l-2.34-3.19-2.32 3.19h-1.33l2.97-4.02zM597.71 333.19h1.15v1.12c.59-.78 1.49-1.22 2.53-1.22 2.03 0 3.6 1.76 3.6 4 0 2.26-1.6 4.02-3.67 4.02-.98 0-1.84-.38-2.45-1.09v4.32h-1.17v-11.15zm1.17 2v3.83c.51.69 1.33 1.09 2.22 1.09 1.57 0 2.74-1.28 2.74-2.99s-1.17-2.99-2.74-2.99c-.93-.01-1.73.37-2.22 1.06zM607.04 333.19h1.17v1.58c.4-1.09 1.18-1.73 2.18-1.73.27 0 .5.03.74.11v1.06a2.94 2.94 0 00-.82-.14c-.96 0-1.7.58-2.1 1.58V341h-1.17v-7.81zM615.61 333.06c2.18 0 3.81 1.73 3.81 4.03 0 2.32-1.65 4.07-3.81 4.07-2.14 0-3.79-1.76-3.79-4.07 0-2.3 1.63-4.03 3.79-4.03zm2.66 4.05c0-1.73-1.14-3.03-2.66-3.03-1.52 0-2.64 1.3-2.64 3.03 0 1.75 1.12 3.01 2.64 3.01s2.66-1.28 2.66-3.01zM627.23 339.96c-.59.75-1.47 1.15-2.5 1.15-2.03 0-3.6-1.76-3.6-4 0-2.26 1.6-4.02 3.67-4.02.96 0 1.81.38 2.43 1.09v-4.63l1.17-.24V341h-1.17v-1.04zm-2.21.13c.91 0 1.71-.37 2.21-1.04v-3.87a2.793 2.793 0 00-2.21-1.06c-1.57 0-2.74 1.26-2.74 2.98 0 1.71 1.17 2.99 2.74 2.99zM631.93 337.89c0 1.39.8 2.26 2.08 2.26.86 0 1.58-.42 2.05-1.18v-5.78h1.17V341h-1.17v-1.26c-.59.93-1.42 1.39-2.48 1.39-1.68 0-2.83-1.18-2.83-2.9v-5.04h1.18v4.7zM645.37 339.16l.72.72c-.75.8-1.82 1.26-2.96 1.26-2.16 0-3.86-1.78-3.86-4.05 0-2.26 1.68-4.03 3.86-4.03 1.15 0 2.24.45 3.01 1.22l-.75.82c-.56-.61-1.39-.98-2.21-.98-1.54 0-2.74 1.31-2.74 2.98 0 1.7 1.2 2.99 2.75 2.99.85 0 1.64-.32 2.18-.93zM648.86 334.15h-1.62v-.96h1.62v-2.14l1.17-.27v2.42h2.24v.96h-2.24v4.79c0 .83.32 1.17 1.14 1.17.4 0 .67-.05 1.1-.21v1.04c-.43.14-.91.21-1.36.21-1.34 0-2.05-.66-2.05-1.91v-5.1z" transform="translate(-354 -208)"/></g><g class="st2"><path class="st3" d="M385.2 357.19h1.15v1.12c.59-.78 1.49-1.22 2.53-1.22 2.03 0 3.6 1.76 3.6 4 0 2.26-1.6 4.02-3.67 4.02-.98 0-1.84-.38-2.45-1.09v4.32h-1.17v-11.15zm1.17 2v3.83c.51.69 1.33 1.09 2.22 1.09 1.57 0 2.74-1.28 2.74-2.99s-1.17-2.99-2.74-2.99c-.92-.01-1.72.37-2.22 1.06zM394.19 362.76c0-1.39 1.17-2.32 2.93-2.32.9 0 1.7.19 2.39.61v-1.07c0-1.28-.69-1.94-2.02-1.94-.72 0-1.46.21-2.37.67l-.43-.9c1.07-.51 2-.75 2.94-.75 1.94 0 3.03.98 3.03 2.75V365h-1.15v-.91c-.69.7-1.52 1.06-2.48 1.06-1.67-.01-2.84-.98-2.84-2.39zm3.08 1.49c.88 0 1.6-.29 2.24-.9v-1.5c-.66-.38-1.33-.56-2.21-.56-1.2 0-1.98.58-1.98 1.44-.01.91.78 1.52 1.95 1.52zM402.67 361.09c0-2.24 1.6-4 3.67-4 .98 0 1.82.38 2.45 1.1v-1.01h1.15v8.21c0 1.94-1.17 3.01-3.3 3.01-1.06 0-2.15-.3-3.04-.82l.5-.9c.96.5 1.7.72 2.5.72 1.42 0 2.18-.69 2.18-2v-1.47c-.59.75-1.47 1.15-2.5 1.15-2.04.02-3.61-1.75-3.61-3.99zm3.89 3c.91 0 1.71-.38 2.21-1.06v-3.86a2.793 2.793 0 00-2.21-1.06c-1.57 0-2.74 1.26-2.74 2.98s1.17 3 2.74 3zM415.86 365.14c-2.19 0-3.87-1.76-3.87-4.05s1.6-4.03 3.68-4.03c2.05 0 3.59 1.7 3.59 3.94v.35h-6.13c.11 1.58 1.3 2.77 2.79 2.77.82 0 1.62-.3 2.14-.8l.74.78c-.91.71-1.85 1.04-2.94 1.04zm-2.71-4.62h4.95c-.18-1.41-1.17-2.45-2.45-2.45-1.3 0-2.29 1.01-2.5 2.45zM424.98 353.56l1.17-.24v5.14c.59-.93 1.44-1.39 2.48-1.39 1.68 0 2.83 1.17 2.83 2.88V365h-1.17v-4.72c0-1.38-.82-2.24-2.1-2.24-.86 0-1.58.42-2.05 1.2V365h-1.17v-11.44zM433.39 362.76c0-1.39 1.17-2.32 2.93-2.32.9 0 1.7.19 2.39.61v-1.07c0-1.28-.69-1.94-2.02-1.94-.72 0-1.46.21-2.37.67l-.43-.9c1.07-.51 2-.75 2.95-.75 1.94 0 3.03.98 3.03 2.75V365h-1.15v-.91c-.69.7-1.52 1.06-2.48 1.06-1.68-.01-2.85-.98-2.85-2.39zm3.07 1.49c.88 0 1.6-.29 2.24-.9v-1.5c-.66-.38-1.33-.56-2.21-.56-1.2 0-1.98.58-1.98 1.44 0 .91.79 1.52 1.95 1.52zM442.09 363.22c.93.69 1.68.98 2.51.98 1.14 0 1.97-.59 1.97-1.41 0-.64-.42-.98-1.41-1.17l-1.28-.22c-1.52-.27-2.21-.91-2.21-2.05 0-1.34 1.17-2.29 2.82-2.29 1.07 0 1.98.3 2.98.98l-.58.82c-.82-.58-1.62-.83-2.45-.83-1.02 0-1.7.48-1.7 1.25 0 .64.34.94 1.34 1.12l1.31.24c1.57.29 2.27.94 2.27 2.1 0 1.36-1.31 2.42-3.04 2.42-1.28 0-2.4-.4-3.17-1.15l.64-.79zM454.11 358.15h-1.62v-.96h1.62v-2.14l1.17-.27v2.42h2.24v.96h-2.24v4.79c0 .83.32 1.17 1.14 1.17.4 0 .67-.05 1.1-.21v1.04c-.43.14-.91.21-1.36.21-1.34 0-2.05-.66-2.05-1.91v-5.1zM459.23 353.56l1.17-.24v5.14c.59-.93 1.44-1.39 2.48-1.39 1.68 0 2.83 1.17 2.83 2.88V365h-1.17v-4.72c0-1.38-.82-2.24-2.1-2.24-.86 0-1.58.42-2.05 1.2V365h-1.17v-11.44zM471.58 365.14c-2.19 0-3.87-1.76-3.87-4.05s1.6-4.03 3.68-4.03c2.05 0 3.59 1.7 3.59 3.94v.35h-6.13c.11 1.58 1.3 2.77 2.79 2.77.82 0 1.62-.3 2.14-.8l.74.78c-.9.71-1.85 1.04-2.94 1.04zm-2.7-4.62h4.95c-.18-1.41-1.17-2.45-2.45-2.45-1.3 0-2.29 1.01-2.5 2.45zM481.87 365h-1.17v-11.44l1.17-.24V365zM483.85 362.76c0-1.39 1.17-2.32 2.93-2.32.9 0 1.7.19 2.39.61v-1.07c0-1.28-.69-1.94-2.02-1.94-.72 0-1.46.21-2.37.67l-.43-.9c1.07-.51 2-.75 2.95-.75 1.94 0 3.03.98 3.03 2.75V365h-1.15v-.91c-.69.7-1.52 1.06-2.48 1.06-1.68-.01-2.85-.98-2.85-2.39zm3.08 1.49c.88 0 1.6-.29 2.24-.9v-1.5c-.66-.38-1.33-.56-2.21-.56-1.2 0-1.98.58-1.98 1.44-.01.91.78 1.52 1.95 1.52zM493.37 358.15h-1.62v-.96h1.62v-2.14l1.17-.27v2.42h2.24v.96h-2.24v4.79c0 .83.32 1.17 1.14 1.17.4 0 .67-.05 1.1-.21v1.04c-.43.14-.91.21-1.36.21-1.34 0-2.05-.66-2.05-1.91v-5.1zM501.82 365.14c-2.19 0-3.87-1.76-3.87-4.05s1.6-4.03 3.68-4.03c2.05 0 3.59 1.7 3.59 3.94v.35h-6.13c.11 1.58 1.3 2.77 2.79 2.77.82 0 1.62-.3 2.14-.8l.74.78c-.9.71-1.85 1.04-2.94 1.04zm-2.7-4.62h4.95c-.18-1.41-1.17-2.45-2.45-2.45-1.3 0-2.29 1.01-2.5 2.45zM507.17 363.22c.93.69 1.68.98 2.51.98 1.14 0 1.97-.59 1.97-1.41 0-.64-.42-.98-1.41-1.17l-1.28-.22c-1.52-.27-2.21-.91-2.21-2.05 0-1.34 1.17-2.29 2.82-2.29 1.07 0 1.98.3 2.98.98l-.58.82c-.82-.58-1.62-.83-2.45-.83-1.02 0-1.7.48-1.7 1.25 0 .64.34.94 1.34 1.12l1.31.24c1.57.29 2.27.94 2.27 2.1 0 1.36-1.31 2.42-3.04 2.42-1.28 0-2.4-.4-3.17-1.15l.64-.79zM515.29 358.15h-1.62v-.96h1.62v-2.14l1.17-.27v2.42h2.24v.96h-2.24v4.79c0 .83.32 1.17 1.14 1.17.4 0 .67-.05 1.1-.21v1.04c-.43.14-.91.21-1.36.21-1.34 0-2.05-.66-2.05-1.91v-5.1zM529.89 363.96c-.59.75-1.47 1.15-2.5 1.15-2.03 0-3.6-1.76-3.6-4 0-2.26 1.6-4.02 3.67-4.02.96 0 1.81.38 2.43 1.09v-4.63l1.17-.24V365h-1.17v-1.04zm-2.21.13c.91 0 1.71-.37 2.21-1.04v-3.87a2.793 2.793 0 00-2.21-1.06c-1.57 0-2.74 1.26-2.74 2.98 0 1.71 1.17 2.99 2.74 2.99zM536.89 357.06c2.18 0 3.81 1.73 3.81 4.03 0 2.32-1.65 4.07-3.81 4.07-2.15 0-3.79-1.76-3.79-4.07 0-2.3 1.63-4.03 3.79-4.03zm2.66 4.05c0-1.73-1.14-3.03-2.66-3.03-1.52 0-2.64 1.3-2.64 3.03 0 1.75 1.12 3.01 2.64 3.01s2.66-1.28 2.66-3.01zM543.98 365l-2.15-7.81h1.14l1.63 6.24 1.87-6.24h1.04l1.87 6.24 1.62-6.24h1.1l-2.13 7.81h-1.14l-1.86-6.31-1.86 6.31h-1.13zM553.76 357.19h1.17v1.26c.59-.93 1.44-1.39 2.48-1.39 1.68 0 2.83 1.17 2.83 2.88V365h-1.17v-4.72c0-1.38-.82-2.24-2.1-2.24-.87 0-1.59.42-2.05 1.2V365h-1.17v-7.81zM563.76 365h-1.17v-11.44l1.17-.24V365zM569.6 357.06c2.18 0 3.81 1.73 3.81 4.03 0 2.32-1.65 4.07-3.81 4.07-2.14 0-3.79-1.76-3.79-4.07-.01-2.3 1.63-4.03 3.79-4.03zm2.65 4.05c0-1.73-1.14-3.03-2.66-3.03-1.52 0-2.64 1.3-2.64 3.03 0 1.75 1.12 3.01 2.64 3.01 1.53 0 2.66-1.28 2.66-3.01zM575.12 362.76c0-1.39 1.17-2.32 2.93-2.32.9 0 1.7.19 2.38.61v-1.07c0-1.28-.69-1.94-2.02-1.94-.72 0-1.46.21-2.37.67l-.43-.9c1.07-.51 2-.75 2.94-.75 1.94 0 3.03.98 3.03 2.75V365h-1.15v-.91c-.69.7-1.52 1.06-2.48 1.06-1.67-.01-2.83-.98-2.83-2.39zm3.07 1.49c.88 0 1.6-.29 2.24-.9v-1.5c-.66-.38-1.33-.56-2.21-.56-1.2 0-1.98.58-1.98 1.44 0 .91.78 1.52 1.95 1.52zM589.69 363.96c-.59.75-1.47 1.15-2.5 1.15-2.03 0-3.6-1.76-3.6-4 0-2.26 1.6-4.02 3.67-4.02.96 0 1.81.38 2.43 1.09v-4.63l1.17-.24V365h-1.17v-1.04zm-2.21.13c.91 0 1.71-.37 2.21-1.04v-3.87a2.793 2.793 0 00-2.21-1.06c-1.57 0-2.74 1.26-2.74 2.98.01 1.71 1.18 2.99 2.74 2.99zM593.13 363.22c.93.69 1.68.98 2.51.98 1.14 0 1.97-.59 1.97-1.41 0-.64-.42-.98-1.41-1.17l-1.28-.22c-1.52-.27-2.21-.91-2.21-2.05 0-1.34 1.17-2.29 2.82-2.29 1.07 0 1.98.3 2.98.98l-.58.82c-.82-.58-1.62-.83-2.45-.83-1.02 0-1.7.48-1.7 1.25 0 .64.34.94 1.35 1.12l1.31.24c1.57.29 2.27.94 2.27 2.1 0 1.36-1.31 2.42-3.04 2.42-1.28 0-2.4-.4-3.17-1.15l.63-.79zM601.69 364.25c0 .5-.38.88-.83.88-.46 0-.85-.38-.85-.88 0-.48.38-.86.85-.86.45-.01.83.38.83.86z" transform="translate(-354 -208)"/></g><g class="st2"><path class="st4" d="M385.6 291.4h5.17c2.41 0 4.02 1.46 4.02 3.64 0 1.67-1.01 2.93-2.63 3.4l2.68 5.56h-1.53l-2.56-5.38h-3.76V304h-1.39v-12.6zm1.39 1.22v4.84h3.67c1.66 0 2.74-.95 2.74-2.41 0-1.48-1.08-2.43-2.74-2.43h-3.67zM400.51 304.16c-2.47 0-4.36-1.98-4.36-4.56 0-2.57 1.8-4.54 4.14-4.54 2.3 0 4.03 1.91 4.03 4.43v.4h-6.9c.13 1.78 1.46 3.12 3.13 3.12.92 0 1.82-.34 2.41-.9l.83.88c-1 .79-2.06 1.17-3.28 1.17zm-3.05-5.2h5.56c-.2-1.58-1.31-2.75-2.75-2.75-1.46-.01-2.57 1.13-2.81 2.75zM413.05 302.83c-.67.85-1.66 1.3-2.81 1.3-2.29 0-4.05-1.98-4.05-4.5 0-2.54 1.8-4.52 4.12-4.52 1.08 0 2.03.43 2.74 1.22v-5.2l1.31-.27V304h-1.31v-1.17zm-2.48.14c1.03 0 1.93-.41 2.48-1.17v-4.36a3.144 3.144 0 00-2.48-1.19c-1.76 0-3.08 1.42-3.08 3.35s1.31 3.37 3.08 3.37zM421.49 291.4h1.39v5.64h7.24v-5.64h1.39V304h-1.39v-5.73h-7.24V304h-1.39v-12.6zM433.77 301.48c0-1.57 1.31-2.61 3.29-2.61 1.01 0 1.91.22 2.68.68v-1.21c0-1.44-.77-2.18-2.27-2.18-.81 0-1.64.23-2.66.76l-.49-1.01c1.21-.58 2.25-.85 3.31-.85 2.18 0 3.4 1.1 3.4 3.1V304h-1.3v-1.03c-.77.79-1.71 1.19-2.79 1.19-1.86 0-3.17-1.1-3.17-2.68zm3.46 1.67c.99 0 1.8-.32 2.52-1.01v-1.69c-.74-.43-1.49-.63-2.48-.63-1.35 0-2.23.65-2.23 1.62-.01 1.03.87 1.71 2.19 1.71zM444.48 296.29h-1.82v-1.08h1.82v-2.41l1.31-.31v2.72h2.52v1.08h-2.52v5.38c0 .94.36 1.31 1.28 1.31.45 0 .76-.05 1.24-.23v1.17c-.49.16-1.03.23-1.53.23-1.51 0-2.3-.74-2.3-2.14v-5.72zM454.69 291.4h8.61v1.21h-7.22v4.43h5.01v1.21h-5.01v4.56h7.29V304h-8.68v-12.6zM465.57 295.21h1.31v1.42c.67-1.04 1.62-1.57 2.79-1.57 1.89 0 3.19 1.31 3.19 3.24v5.7h-1.31v-5.31c0-1.55-.92-2.52-2.36-2.52-.97 0-1.78.47-2.3 1.35V304h-1.31v-8.79zM476.28 296.29h-1.82v-1.08h1.82v-2.41l1.31-.31v2.72h2.52v1.08h-2.52v5.38c0 .94.36 1.31 1.28 1.31.45 0 .76-.05 1.24-.23v1.17c-.49.16-1.03.23-1.53.23-1.51 0-2.3-.74-2.3-2.14v-5.72zM485.79 304.16c-2.47 0-4.36-1.98-4.36-4.56 0-2.57 1.8-4.54 4.14-4.54 2.3 0 4.03 1.91 4.03 4.43v.4h-6.9c.13 1.78 1.46 3.12 3.13 3.12.92 0 1.82-.34 2.41-.9l.83.88c-.99.79-2.06 1.17-3.28 1.17zm-3.04-5.2h5.56c-.2-1.58-1.31-2.75-2.75-2.75-1.46-.01-2.58 1.13-2.81 2.75zM491.85 295.21h1.31V297c.45-1.22 1.33-1.94 2.45-1.94.31 0 .56.04.83.13v1.19c-.29-.09-.63-.16-.92-.16-1.08 0-1.91.65-2.36 1.78v6h-1.31v-8.79zM498.19 295.21h1.3v1.26c.67-.88 1.67-1.37 2.84-1.37 2.29 0 4.05 1.98 4.05 4.5 0 2.54-1.8 4.52-4.12 4.52-1.1 0-2.07-.43-2.75-1.22v4.86h-1.31v-12.55zm1.31 2.25v4.3c.58.77 1.49 1.22 2.5 1.22 1.76 0 3.08-1.44 3.08-3.37 0-1.93-1.31-3.37-3.08-3.37-1.04.02-1.94.45-2.5 1.22zM508.68 295.21H510V297c.45-1.22 1.33-1.94 2.45-1.94.31 0 .56.04.83.13v1.19c-.29-.09-.63-.16-.92-.16-1.08 0-1.91.65-2.36 1.78v6h-1.31v-8.79zM514.73 292.1c0-.5.43-.94.95-.94.5 0 .94.43.94.94 0 .54-.41.95-.94.95s-.95-.41-.95-.95zm1.6 11.9h-1.31v-8.79h1.31V304zM518.89 302c1.04.77 1.89 1.1 2.83 1.1 1.28 0 2.21-.67 2.21-1.58 0-.72-.47-1.1-1.58-1.31l-1.44-.25c-1.71-.31-2.48-1.03-2.48-2.3 0-1.51 1.31-2.58 3.17-2.58 1.21 0 2.23.34 3.35 1.1l-.65.92c-.92-.65-1.82-.94-2.75-.94-1.15 0-1.91.54-1.91 1.4 0 .72.38 1.06 1.51 1.26l1.48.27c1.76.32 2.56 1.06 2.56 2.36 0 1.53-1.48 2.72-3.42 2.72-1.44 0-2.7-.45-3.56-1.3l.68-.87zM531.22 304.16c-2.47 0-4.36-1.98-4.36-4.56 0-2.57 1.8-4.54 4.14-4.54 2.3 0 4.03 1.91 4.03 4.43v.4h-6.9c.13 1.78 1.46 3.12 3.13 3.12.92 0 1.82-.34 2.41-.9l.83.88c-.99.79-2.05 1.17-3.28 1.17zm-3.04-5.2h5.56c-.2-1.58-1.31-2.75-2.75-2.75-1.46-.01-2.58 1.13-2.81 2.75zM541.73 291.4h1.39v11.38h7.11V304h-8.5v-12.6zM552.12 292.1c0-.5.43-.94.95-.94.5 0 .94.43.94.94 0 .54-.41.95-.94.95-.54 0-.95-.41-.95-.95zm1.6 11.9h-1.31v-8.79h1.31V304zM556.42 295.21h1.31v1.42c.67-1.04 1.62-1.57 2.79-1.57 1.89 0 3.19 1.31 3.19 3.24v5.7h-1.31v-5.31c0-1.55-.92-2.52-2.36-2.52-.97 0-1.78.47-2.3 1.35V304h-1.31v-8.79zM567.54 300.51c0 1.57.9 2.54 2.34 2.54.97 0 1.78-.47 2.3-1.33v-6.5h1.31V304h-1.31v-1.42c-.67 1.04-1.6 1.57-2.79 1.57-1.89 0-3.19-1.33-3.19-3.26v-5.67h1.33v5.29zM578.43 299.48l-3.19-4.27h1.57l2.43 3.33 2.39-3.33h1.49l-3.15 4.23 3.4 4.56h-1.57l-2.63-3.58-2.61 3.58h-1.49l3.36-4.52z" transform="translate(-354 -208)"/></g><path class="st5" d="M408 240h210v24H408z" transform="translate(-354 -210)"/><g class="st2"><path class="st3" d="M409.42 246.8h4.59c2.14 0 3.57 1.3 3.57 3.23 0 1.49-.9 2.61-2.34 3.03l2.38 4.95h-1.36l-2.27-4.79h-3.35V258h-1.23v-11.2zm1.24 1.08v4.31h3.27c1.47 0 2.43-.85 2.43-2.14 0-1.31-.96-2.16-2.43-2.16h-3.27zM422.67 258.14c-2.19 0-3.87-1.76-3.87-4.05s1.6-4.03 3.68-4.03c2.05 0 3.59 1.7 3.59 3.94v.35h-6.13c.11 1.58 1.3 2.77 2.79 2.77.82 0 1.62-.3 2.15-.8l.74.78c-.91.71-1.86 1.04-2.95 1.04zm-2.7-4.62h4.95c-.18-1.41-1.17-2.45-2.45-2.45-1.3 0-2.29 1.01-2.5 2.45zM428.02 256.22c.93.69 1.68.98 2.51.98 1.14 0 1.97-.59 1.97-1.41 0-.64-.42-.98-1.41-1.17l-1.28-.22c-1.52-.27-2.21-.91-2.21-2.05 0-1.34 1.17-2.29 2.82-2.29 1.07 0 1.98.3 2.98.98l-.58.82c-.82-.58-1.62-.83-2.45-.83-1.02 0-1.7.48-1.7 1.25 0 .64.34.94 1.34 1.12l1.31.24c1.57.29 2.27.94 2.27 2.1 0 1.36-1.31 2.42-3.04 2.42-1.28 0-2.4-.4-3.17-1.15l.64-.79zM436.51 254.89c0 1.39.8 2.26 2.08 2.26.86 0 1.58-.42 2.05-1.18v-5.78h1.17V258h-1.17v-1.26c-.59.93-1.42 1.39-2.48 1.39-1.68 0-2.83-1.18-2.83-2.9v-5.04h1.18v4.7zM445.38 258h-1.17v-11.44l1.17-.24V258zM448.7 251.15h-1.62v-.96h1.62v-2.14l1.17-.27v2.42h2.24v.96h-2.24v4.79c0 .83.32 1.17 1.14 1.17.4 0 .67-.05 1.1-.21v1.04c-.43.14-.91.21-1.36.21-1.34 0-2.05-.66-2.05-1.91v-5.1zM453.86 256.22c.93.69 1.68.98 2.51.98 1.14 0 1.97-.59 1.97-1.41 0-.64-.42-.98-1.41-1.17l-1.28-.22c-1.52-.27-2.21-.91-2.21-2.05 0-1.34 1.17-2.29 2.82-2.29 1.07 0 1.98.3 2.98.98l-.58.82c-.82-.58-1.62-.83-2.45-.83-1.02 0-1.7.48-1.7 1.25 0 .64.34.94 1.34 1.12l1.31.24c1.57.29 2.27.94 2.27 2.1 0 1.36-1.31 2.42-3.04 2.42-1.28 0-2.4-.4-3.17-1.15l.64-.79zM465.94 250.19v-1.71c0-1.54.83-2.4 2.34-2.4.43 0 .77.05 1.06.14v1.06c-.35-.1-.59-.14-.94-.14-.9 0-1.28.43-1.28 1.36v1.7h2.23v.96h-2.23V258h-1.17v-6.85h-1.74v-.96h1.73zM470.86 250.19h1.17v1.58c.4-1.09 1.18-1.73 2.18-1.73.27 0 .5.03.74.11v1.06a2.94 2.94 0 00-.82-.14c-.96 0-1.7.58-2.1 1.58V258h-1.17v-7.81zM479.44 250.06c2.18 0 3.81 1.73 3.81 4.03 0 2.32-1.65 4.07-3.81 4.07-2.15 0-3.79-1.76-3.79-4.07 0-2.3 1.63-4.03 3.79-4.03zm2.66 4.05c0-1.73-1.14-3.03-2.66-3.03-1.52 0-2.64 1.3-2.64 3.03 0 1.75 1.12 3.01 2.64 3.01s2.66-1.28 2.66-3.01zM485.3 250.19h1.17v1.22c.59-.9 1.36-1.34 2.32-1.34 1.1 0 1.97.59 2.4 1.52.61-1.01 1.47-1.52 2.61-1.52 1.57 0 2.66 1.18 2.66 2.9V258h-1.17v-4.75c0-1.36-.74-2.21-1.92-2.21-.82 0-1.47.4-1.95 1.23.05.22.06.45.06.69V258h-1.17v-4.75c0-1.36-.75-2.21-1.94-2.21-.8 0-1.44.38-1.9 1.15V258h-1.17v-7.81zM511.33 255.52l.8.82a5.655 5.655 0 01-4.19 1.84c-3.22 0-5.7-2.56-5.7-5.78 0-3.23 2.5-5.78 5.7-5.78 1.65 0 3.17.66 4.23 1.84l-.82.85c-.83-.99-2.11-1.57-3.41-1.57-2.53 0-4.45 2.03-4.45 4.66s1.92 4.66 4.48 4.66c1.3 0 2.54-.56 3.36-1.54zM515.05 254.89c0 1.39.8 2.26 2.08 2.26.86 0 1.58-.42 2.05-1.18v-5.78h1.17V258h-1.17v-1.26c-.59.93-1.42 1.39-2.48 1.39-1.68 0-2.83-1.18-2.83-2.9v-5.04h1.18v4.7zM522.62 256.22c.93.69 1.68.98 2.51.98 1.14 0 1.97-.59 1.97-1.41 0-.64-.42-.98-1.41-1.17l-1.28-.22c-1.52-.27-2.21-.91-2.21-2.05 0-1.34 1.17-2.29 2.82-2.29 1.07 0 1.98.3 2.98.98l-.58.82c-.82-.58-1.62-.83-2.45-.83-1.02 0-1.7.48-1.7 1.25 0 .64.34.94 1.34 1.12l1.31.24c1.57.29 2.27.94 2.27 2.1 0 1.36-1.31 2.42-3.04 2.42-1.28 0-2.4-.4-3.17-1.15l.64-.79zM530.75 251.15h-1.62v-.96h1.62v-2.14l1.17-.27v2.42h2.24v.96h-2.24v4.79c0 .83.32 1.17 1.14 1.17.4 0 .67-.05 1.1-.21v1.04c-.43.14-.91.21-1.36.21-1.34 0-2.05-.66-2.05-1.91v-5.1zM539.12 250.06c2.18 0 3.81 1.73 3.81 4.03 0 2.32-1.65 4.07-3.81 4.07-2.14 0-3.79-1.76-3.79-4.07 0-2.3 1.63-4.03 3.79-4.03zm2.66 4.05c0-1.73-1.14-3.03-2.66-3.03-1.52 0-2.64 1.3-2.64 3.03 0 1.75 1.12 3.01 2.64 3.01s2.66-1.28 2.66-3.01zM544.97 250.19h1.17v1.22c.59-.9 1.36-1.34 2.32-1.34 1.11 0 1.97.59 2.4 1.52.61-1.01 1.47-1.52 2.61-1.52 1.57 0 2.66 1.18 2.66 2.9V258h-1.17v-4.75c0-1.36-.74-2.21-1.92-2.21-.82 0-1.47.4-1.95 1.23.05.22.06.45.06.69V258h-1.17v-4.75c0-1.36-.75-2.21-1.94-2.21-.8 0-1.44.38-1.9 1.15V258h-1.17v-7.81zM562.02 258.14c-2.19 0-3.87-1.76-3.87-4.05s1.6-4.03 3.68-4.03c2.05 0 3.58 1.7 3.58 3.94v.35h-6.13c.11 1.58 1.3 2.77 2.79 2.77.82 0 1.62-.3 2.14-.8l.74.78c-.9.71-1.85 1.04-2.93 1.04zm-2.71-4.62h4.95c-.18-1.41-1.17-2.45-2.45-2.45-1.3 0-2.29 1.01-2.5 2.45zM567.41 250.19h1.17v1.58c.4-1.09 1.18-1.73 2.18-1.73.27 0 .5.03.74.11v1.06a2.94 2.94 0 00-.82-.14c-.96 0-1.7.58-2.1 1.58V258h-1.17v-7.81zM576.77 250.19h1.15v1.12c.59-.78 1.49-1.22 2.53-1.22 2.03 0 3.6 1.76 3.6 4 0 2.26-1.6 4.02-3.67 4.02-.98 0-1.84-.38-2.45-1.09v4.32h-1.17v-11.15zm1.16 2v3.83c.51.69 1.33 1.09 2.22 1.09 1.57 0 2.74-1.28 2.74-2.99s-1.17-2.99-2.74-2.99c-.92-.01-1.72.37-2.22 1.06zM589.55 250.06c2.18 0 3.81 1.73 3.81 4.03 0 2.32-1.65 4.07-3.81 4.07-2.14 0-3.79-1.76-3.79-4.07 0-2.3 1.63-4.03 3.79-4.03zm2.66 4.05c0-1.73-1.14-3.03-2.66-3.03-1.52 0-2.64 1.3-2.64 3.03 0 1.75 1.12 3.01 2.64 3.01s2.66-1.28 2.66-3.01zM595.41 250.19h1.17v1.58c.4-1.09 1.18-1.73 2.18-1.73.27 0 .5.03.74.11v1.06a2.94 2.94 0 00-.82-.14c-.96 0-1.7.58-2.1 1.58V258h-1.17v-7.81zM602 251.15h-1.62v-.96H602v-2.14l1.17-.27v2.42h2.24v.96h-2.24v4.79c0 .83.32 1.17 1.14 1.17.4 0 .67-.05 1.1-.21v1.04c-.43.14-.91.21-1.36.21-1.34 0-2.05-.66-2.05-1.91v-5.1zM606.7 255.76c0-1.39 1.17-2.32 2.93-2.32.9 0 1.7.19 2.39.61v-1.07c0-1.28-.69-1.94-2.02-1.94-.72 0-1.46.21-2.37.67l-.43-.9c1.07-.51 2-.75 2.95-.75 1.94 0 3.03.98 3.03 2.75V258h-1.15v-.91c-.69.7-1.52 1.06-2.48 1.06-1.68-.01-2.85-.98-2.85-2.39zm3.07 1.49c.88 0 1.6-.29 2.24-.9v-1.5c-.66-.38-1.33-.56-2.21-.56-1.2 0-1.99.58-1.99 1.44.01.91.8 1.52 1.96 1.52zM616.7 258h-1.17v-11.44l1.17-.24V258z" transform="translate(-354 -210)"/></g><g><path class="st5" d="M683 333h24v24h-24z" transform="translate(-661 -303)"/><path class="st3" d="M694.19 350.02l-6.89-6.89c-.4-.46-.4-1.16 0-1.62l1.21-1.21c.46-.4 1.16-.4 1.62 0l4.86 4.86 4.86-4.86c.46-.4 1.16-.4 1.62 0l1.21 1.21c.4.46.4 1.16 0 1.62l-6.89 6.89c-.44.41-1.14.41-1.6 0z" transform="translate(-661 -303)"/></g><path fill="#e00" d="M360 222h3v172h-3z" transform="translate(-354 -208)"/><path class="st5" d="M956 2651h340v200H956z" transform="translate(-950 -2651)"/></svg>