<svg xmlns="http://www.w3.org/2000/svg" xmlns:xlink="http://www.w3.org/1999/xlink" width="430" height="267" viewBox="0 0 430 267"><defs><filter id="a" x="0" y="0" width="430" height="267" filterUnits="userSpaceOnUse"><feOffset dy="15" input="SourceAlpha"/><feGaussianBlur stdDeviation="15" result="b"/><feFlood flood-opacity="0.302"/><feComposite operator="in" in2="b"/><feComposite in="SourceGraphic"/></filter></defs><g transform="translate(-379 -4045)"><g transform="matrix(1, 0, 0, 1, 379, 4045)" filter="url(#a)"><rect width="340" height="177" rx="3" transform="translate(45 30)" fill="#fff"/></g><g transform="translate(-266 3845)"><rect width="14" height="14" transform="translate(984 262)" fill="none"/><path d="M6.9,85l2.843-2.843a.894.894,0,0,0,0-1.264l-.632-.632a.894.894,0,0,0-1.264,0L5,83.1,2.157,80.262a.894.894,0,0,0-1.264,0l-.632.632a.894.894,0,0,0,0,1.264L3.1,85,.262,87.843a.894.894,0,0,0,0,1.264l.632.632a.894.894,0,0,0,1.264,0L5,86.9l2.843,2.843a.894.894,0,0,0,1.264,0l.632-.632a.894.894,0,0,0,0-1.264Z" transform="translate(986 184)" fill="#6a6e73"/></g><rect width="340" height="200" transform="translate(424 4064)" fill="none"/></g></svg>