<svg version="1.1" id="Layer_1" xmlns="http://www.w3.org/2000/svg" x="0" y="0" viewBox="0 0 340 200" xml:space="preserve"><style>.st1{fill:none}.st2{enable-background:new}.st3{fill:#fff}.st4{stroke-miterlimit:10}.st4,.st5{fill:none;stroke:#fff;stroke-width:1.4;stroke-linecap:round}</style><path fill="#151515" d="M956 4128h340v72H956z" transform="translate(-956 -4064)"/><path class="st1" d="M1124 261h33v18h-33z" transform="translate(-845 -157)"/><g class="st2"><path class="st3" d="M1125.07 265.6h.92v7.58h4.74v.82h-5.66v-8.4zM1134.49 268.05c1.63 0 2.85 1.3 2.85 3.02 0 1.74-1.23 3.05-2.85 3.05-1.61 0-2.84-1.32-2.84-3.05-.01-1.72 1.22-3.02 2.84-3.02zm1.99 3.04c0-1.3-.85-2.27-1.99-2.27-1.14 0-1.98.97-1.98 2.27 0 1.31.84 2.25 1.98 2.25 1.13 0 1.99-.96 1.99-2.25zM1138.63 271.07c0-1.68 1.2-3 2.75-3 .73 0 1.37.29 1.83.83v-.75h.86v6.15c0 1.45-.88 2.25-2.47 2.25-.79 0-1.61-.23-2.28-.61l.37-.67c.72.37 1.27.54 1.87.54 1.07 0 1.63-.52 1.63-1.5v-1.1c-.44.56-1.1.86-1.87.86-1.52 0-2.69-1.32-2.69-3zm2.91 2.25c.68 0 1.28-.29 1.66-.79v-2.89c-.38-.49-1-.79-1.66-.79-1.18 0-2.05.95-2.05 2.23s.88 2.24 2.05 2.24zM1148.48 266.07a.63.63 0 011.26 0c0 .36-.28.64-.62.64-.37 0-.64-.28-.64-.64zm1.07 7.93h-.88v-5.85h.88V274zM1151.35 268.15h.88v.95c.44-.7 1.08-1.04 1.86-1.04 1.26 0 2.12.88 2.12 2.16V274h-.88v-3.54c0-1.03-.61-1.68-1.57-1.68-.65 0-1.19.31-1.54.9V274h-.88v-5.85z" transform="translate(-845 -157)"/></g><g transform="translate(287 82)"><path class="st4" d="M0 18a9 9 0 0118 0"/><circle class="st4" cx="9" cy="4.5" r="4.5"/></g><path class="st1" d="M1124 261h30v18h-30z" transform="translate(-899 -157)"/><g class="st2"><path class="st3" d="M1125.93 266.67V274h-.86v-8.4h1.28l2.81 5.97 2.81-5.97h1.28v8.4h-.88v-7.3l-3.21 6.7-3.23-6.73zM1137.87 274.11c-1.64 0-2.9-1.32-2.9-3.04 0-1.71 1.2-3.02 2.76-3.02 1.54 0 2.69 1.27 2.69 2.95v.26h-4.59c.08 1.19.97 2.08 2.09 2.08.61 0 1.21-.23 1.61-.6l.55.59c-.69.53-1.39.78-2.21.78zm-2.03-3.47h3.71c-.13-1.06-.88-1.83-1.83-1.83-.98 0-1.72.75-1.88 1.83zM1141.92 268.15h.88v.95c.44-.7 1.08-1.04 1.86-1.04 1.26 0 2.12.88 2.12 2.16V274h-.88v-3.54c0-1.03-.61-1.68-1.57-1.68-.65 0-1.19.31-1.54.9V274h-.88v-5.85zM1149.33 271.67c0 1.04.6 1.69 1.56 1.69.65 0 1.19-.31 1.54-.89v-4.33h.88V274h-.88v-.95c-.44.7-1.07 1.04-1.86 1.04-1.26 0-2.12-.89-2.12-2.17v-3.78h.89v3.53z" transform="translate(-899 -157)"/></g><g><path class="st1" d="M568 247h18v18h-18z" transform="translate(-337 -165)"/><path class="st5" d="M568 263h18M568 256h18M568 249h18" transform="translate(-337 -165)"/></g><g><path class="st3" d="M129.21 21.01c0 2.64 1.6 3.93 4.49 3.93.89-.03 1.78-.15 2.64-.38V21.5c-.55.18-1.13.27-1.71.27-1.2 0-1.64-.38-1.64-1.49v-4.71h3.47v-3.16h-3.47v-4l-3.78.82v3.18h-2.51v3.16h2.49v5.44h.02zm-11.78.07c0-.82.82-1.22 2.07-1.22.76 0 1.51.09 2.24.29v1.6c-.72.4-1.53.6-2.36.58-1.21-.01-1.95-.47-1.95-1.25m1.16 3.91c1.21.04 2.41-.3 3.42-.96v.76h3.73v-7.93c0-3.02-2.02-4.67-5.42-4.67-2 .03-3.97.49-5.78 1.36l1.36 2.78c1.17-.56 2.44-.89 3.73-.98 1.56 0 2.36.6 2.36 1.84v.6c-.91-.24-1.86-.36-2.8-.36-3.18 0-5.09 1.33-5.09 3.71 0 2.18 1.73 3.85 4.49 3.85m-20.53-.2h4.02v-6.42h6.73v6.4h4.02V8.41h-4.02v6.29h-6.73V8.41h-4.02v16.38zm-15.32-6.2c0-1.73 1.39-3.13 3.12-3.14h.12c.96-.01 1.89.33 2.62.96v4.33c-.71.67-1.65 1.02-2.62 1-1.75.04-3.2-1.35-3.24-3.1v-.05m5.92 6.2h3.73V7.59l-3.78.82v4.64a6.376 6.376 0 00-8.71 2.29 6.376 6.376 0 002.29 8.71c.92.54 1.97.84 3.04.86h.11c1.19 0 2.35-.37 3.31-1.07l.01.95zM71.5 15.28c1.2.01 2.25.81 2.6 1.96h-5.16a2.565 2.565 0 012.56-1.96m-6.38 3.33a6.473 6.473 0 006.56 6.4h.18c1.9.07 3.74-.6 5.16-1.87l-2.51-2.22c-.66.64-1.55.97-2.47.93-1.32.04-2.53-.74-3.04-1.96h8.8v-.93c0-3.93-2.64-6.76-6.24-6.76-3.5-.05-6.39 2.74-6.44 6.24 0 .06.01.12 0 .17m-6.51-6.75c1.02-.13 1.95.59 2.08 1.61a1.859 1.859 0 01-2.07 2.08h-3.98v-3.69h3.97zm-8 12.91h4.02v-5.96h3.07l3.09 5.96h4.49l-3.6-6.56a4.962 4.962 0 003.09-4.6c0-2.93-2.31-5.22-5.78-5.22h-8.38v16.38z" transform="translate(19.5 83.5)"/><path d="M28.72 18.94c2.78 0 6.8-.58 6.8-3.89 0-.25-.02-.51-.07-.76l-1.64-7.2c-.38-1.58-.71-2.31-3.49-3.69C28.17 2.3 23.48.5 22.08.5c-1.31 0-1.69 1.67-3.22 1.67-1.49 0-2.58-1.24-3.98-1.24-1.33 0-2.2.91-2.87 2.78 0 0-1.87 5.27-2.11 6.04-.04.14-.05.28-.04.42-.03 2.04 8.04 8.75 18.86 8.77m7.22-2.53c.2.73.33 1.49.38 2.24 0 3.11-3.49 4.84-8.09 4.84-10.4 0-19.49-6.09-19.49-10.11 0-.56.11-1.11.33-1.62-3.73.18-8.58.84-8.58 5.11 0 7 16.58 15.62 29.69 15.62 10.07 0 12.6-4.56 12.6-8.16.01-2.81-2.43-6.01-6.84-7.92" fill="#e00" transform="translate(19.5 83.5)"/><path d="M35.94 16.41c.2.73.33 1.49.38 2.24 0 3.11-3.49 4.84-8.09 4.84-10.4 0-19.49-6.09-19.49-10.11 0-.56.11-1.11.33-1.62l.83-2.02c-.04.14-.05.28-.04.42 0 2.04 8.07 8.76 18.87 8.76 2.78 0 6.8-.58 6.8-3.89 0-.25-.02-.51-.07-.76l.48 2.14z" transform="translate(19.5 83.5)"/></g><path class="st1" d="M956 4064h340v200H956z" transform="translate(-956 -4064)"/></svg>