<svg xmlns="http://www.w3.org/2000/svg" xmlns:xlink="http://www.w3.org/1999/xlink" width="340" height="200" viewBox="0 0 340 200"><defs><style>.a{fill:none;}.b{fill:#fff;stroke:#d2d2d2;}.c{fill:#06c;}.d{fill:#151515;}.e{fill:#6a6e73;}.f{stroke:none;}.g{filter:url(#a);}</style><filter id="a" x="33" y="9" width="274" height="189" filterUnits="userSpaceOnUse"><feOffset dy="3" input="SourceAlpha"/><feGaussianBlur stdDeviation="2" result="b"/><feFlood flood-opacity="0.102"/><feComposite operator="in" in2="b"/><feComposite in="SourceGraphic"/></filter></defs><rect class="a" width="340" height="200"/><g transform="translate(-321 -210)"><g class="g" transform="matrix(1, 0, 0, 1, 321, 210)"><g class="b" transform="translate(39 12)"><path class="f" d="M3,0H262a0,0,0,0,1,0,0V177a0,0,0,0,1,0,0H3a3,3,0,0,1-3-3V3A3,3,0,0,1,3,0Z"/><path class="a" d="M3,.5H261a.5.5,0,0,1,.5.5V176a.5.5,0,0,1-.5.5H3A2.5,2.5,0,0,1,.5,174V3A2.5,2.5,0,0,1,3,.5Z"/></g></g><g transform="translate(0 -81)"><path class="c" d="M7,0,5.5,1.5,10,6H0V8H10L5.5,12.5,7,14l7-7Z" transform="translate(523 438)"/><path class="c" d="M13.644-6.282v-.792H7.128v2.268h3.726A3.4,3.4,0,0,1,7.362-2.178,3.991,3.991,0,0,1,3.33-6.3a3.95,3.95,0,0,1,3.96-4.1,4.349,4.349,0,0,1,3.42,1.638l1.818-1.674A6.752,6.752,0,0,0,7.29-12.8,6.505,6.505,0,0,0,.648-6.3,6.525,6.525,0,0,0,7.326.2,6.221,6.221,0,0,0,13.644-6.282Zm1.188,1.6A4.882,4.882,0,0,0,19.872.18a5.622,5.622,0,0,0,3.8-1.35L22.05-2.646a2.952,2.952,0,0,1-2.07.756,2.7,2.7,0,0,1-2.664-1.962H24.3V-4.5a4.733,4.733,0,0,0-4.644-5.04A4.787,4.787,0,0,0,14.832-4.68ZM19.6-7.506a2.384,2.384,0,0,1,2.286,1.89H17.3A2.355,2.355,0,0,1,19.6-7.506Zm7.128,4.86c0,1.854,1.116,2.79,3.168,2.79a7.908,7.908,0,0,0,1.908-.288V-2.16a4.1,4.1,0,0,1-1.314.216c-.954,0-1.3-.324-1.3-1.206V-7.308H31.86v-2.07H29.2V-12.33l-2.466.558v2.394H24.8v2.07H26.73Zm11.25,0c0,1.854,1.116,2.79,3.168,2.79a7.908,7.908,0,0,0,1.908-.288V-2.16a4.1,4.1,0,0,1-1.314.216c-.954,0-1.3-.324-1.3-1.206V-7.308H43.11v-2.07H40.446V-12.33l-2.466.558v2.394H36.054v2.07H37.98ZM50.652,0H53.1V-5.832a3.558,3.558,0,0,0-3.708-3.726,3.912,3.912,0,0,0-2.628.936V-13.14L44.3-12.6V0h2.466V-6.5a2.2,2.2,0,0,1,1.926-.936,1.842,1.842,0,0,1,1.962,1.962Zm3.924-4.68A4.882,4.882,0,0,0,59.616.18a5.622,5.622,0,0,0,3.8-1.35l-1.62-1.476a2.952,2.952,0,0,1-2.07.756A2.7,2.7,0,0,1,57.06-3.852h6.984V-4.5A4.733,4.733,0,0,0,59.4-9.54,4.787,4.787,0,0,0,54.576-4.68Zm4.77-2.826a2.384,2.384,0,0,1,2.286,1.89h-4.59A2.355,2.355,0,0,1,59.346-7.506Zm9.4,2.826A4.882,4.882,0,0,0,73.782.18a5.622,5.622,0,0,0,3.8-1.35L75.96-2.646a2.952,2.952,0,0,1-2.07.756,2.7,2.7,0,0,1-2.664-1.962H78.21V-4.5a4.733,4.733,0,0,0-4.644-5.04A4.787,4.787,0,0,0,68.742-4.68Zm4.77-2.826A2.384,2.384,0,0,1,75.8-5.616h-4.59A2.355,2.355,0,0,1,73.512-7.506Zm6.12,1.332v2.088H86.4V-6.174ZM97.956-4.68A4.745,4.745,0,0,0,93.186-9.5a4.342,4.342,0,0,0-2.628.864v-4.5l-2.466.54V0h2.43V-.63a4.708,4.708,0,0,0,2.592.756A4.768,4.768,0,0,0,97.956-4.68ZM92.79-7.4A2.686,2.686,0,0,1,95.526-4.68,2.675,2.675,0,0,1,92.79-1.962a3.171,3.171,0,0,1-2.232-.882V-6.5A3.008,3.008,0,0,1,92.79-7.4ZM99.036-4.68a4.873,4.873,0,0,0,5,4.86,4.873,4.873,0,0,0,5-4.86,4.888,4.888,0,0,0-5-4.878A4.888,4.888,0,0,0,99.036-4.68Zm7.6,0a2.634,2.634,0,0,1-2.592,2.718,2.634,2.634,0,0,1-2.592-2.718,2.638,2.638,0,0,1,2.592-2.736A2.627,2.627,0,0,1,106.632-4.68Zm3.492,0a4.873,4.873,0,0,0,5,4.86,4.873,4.873,0,0,0,5-4.86,4.888,4.888,0,0,0-5-4.878A4.888,4.888,0,0,0,110.124-4.68Zm7.6,0a2.634,2.634,0,0,1-2.592,2.718,2.634,2.634,0,0,1-2.592-2.718,2.638,2.638,0,0,1,2.592-2.736A2.627,2.627,0,0,1,117.72-4.68ZM121.608,0h2.466V-4.3l3.96,4.3H131.2l-4.68-5.076,4.41-4.3h-2.808l-4.05,3.96V-13.14l-2.466.54Z" transform="translate(384 451)"/></g><path class="d" d="M.02,20H2.2l1.64-4.1H10.1L11.72,20H14L8.28,6H5.82Zm4.52-5.84L6.98,8.02l2.44,6.14ZM16.76,9.82H14.78v6.4a3.8,3.8,0,0,0,3.96,3.98,4.16,4.16,0,0,0,3.06-1.22V20h2V9.82h-2v7.32a2.866,2.866,0,0,1-2.5,1.32,2.374,2.374,0,0,1-2.54-2.58Zm10.7,7.66c0,1.76,1.06,2.7,3.04,2.7a6.851,6.851,0,0,0,1.9-.3V18.2a3.862,3.862,0,0,1-1.46.24c-1.08,0-1.5-.38-1.5-1.42V11.5h3V9.82h-3V6.74l-1.98.48v2.6H25.3V11.5h2.16Zm5.78-2.58a5.29,5.29,0,1,0,5.3-5.28A5.246,5.246,0,0,0,33.24,14.9Zm8.64,0a3.346,3.346,0,1,1-6.68,0,3.345,3.345,0,1,1,6.68,0ZM45.7,20h2V12.58A2.646,2.646,0,0,1,50,11.36a2.283,2.283,0,0,1,2.32,2.58V20h2V13.6a4.238,4.238,0,0,0-.08-.88,2.71,2.71,0,0,1,2.38-1.36,2.287,2.287,0,0,1,2.34,2.58V20h1.98V13.6a3.725,3.725,0,0,0-3.8-3.98A4.086,4.086,0,0,0,53.7,11.3a3.631,3.631,0,0,0-3.16-1.68,3.89,3.89,0,0,0-2.84,1.14V9.82h-2Zm20.8.18a4.792,4.792,0,0,0,3.16-1.06V20h1.96V13.26c0-2.36-1.54-3.64-4.16-3.64a9.555,9.555,0,0,0-4.18,1.04l.74,1.5a7.377,7.377,0,0,1,3.16-.86c1.62,0,2.48.72,2.48,2.16v1.08a7.04,7.04,0,0,0-2.78-.56c-2.38,0-4.12,1.06-4.12,3.1C62.76,18.9,64.28,20.18,66.5,20.18Zm-1.82-3.14c0-1.06.96-1.68,2.36-1.68a5.34,5.34,0,0,1,2.62.6v1.78a3.915,3.915,0,0,1-2.7.96C65.62,18.7,64.68,18.04,64.68,17.04Zm10.18.44c0,1.76,1.06,2.7,3.04,2.7a6.851,6.851,0,0,0,1.9-.3V18.2a3.862,3.862,0,0,1-1.46.24c-1.08,0-1.5-.38-1.5-1.42V11.5h3V9.82h-3V6.74l-1.98.48v2.6H72.7V11.5h2.16Zm7.44-9.3a1.24,1.24,0,0,0,0-2.48,1.24,1.24,0,1,0,0,2.48Zm1,1.64h-2V20h2ZM85.62,20h2V12.68a2.866,2.866,0,0,1,2.5-1.32,2.374,2.374,0,0,1,2.54,2.58V20h1.98V13.6a3.8,3.8,0,0,0-3.96-3.98,4.16,4.16,0,0,0-3.06,1.22V9.82h-2Zm16.02.08A4.746,4.746,0,0,0,104.68,19v1.1c0,1.6-.94,2.42-2.72,2.42a6.893,6.893,0,0,1-3.26-.88l-.78,1.56a8.464,8.464,0,0,0,4.1,1c2.98,0,4.66-1.44,4.66-4.12V9.82H104.7v.84a4.913,4.913,0,0,0-3.02-1.02,5.135,5.135,0,0,0-5.16,5.22A5.115,5.115,0,0,0,101.64,20.08Zm-3.16-5.22a3.391,3.391,0,0,1,3.4-3.48,3.671,3.671,0,0,1,2.8,1.18v4.6a3.671,3.671,0,0,1-2.8,1.18A3.391,3.391,0,0,1,98.48,14.86Zm19.58,3.56a3.377,3.377,0,0,1-3.34-3.52,3.364,3.364,0,0,1,3.3-3.5,3.784,3.784,0,0,1,2.8,1.28l1.26-1.36a5.828,5.828,0,0,0-4.1-1.7,5.2,5.2,0,0,0-5.24,5.28,5.191,5.191,0,0,0,5.24,5.28,5.63,5.63,0,0,0,4.02-1.7l-1.2-1.3A3.72,3.72,0,0,1,118.06,18.42Zm4.72-3.52a5.29,5.29,0,1,0,5.3-5.28A5.246,5.246,0,0,0,122.78,14.9Zm8.64,0a3.346,3.346,0,1,1-6.68,0,3.345,3.345,0,1,1,6.68,0Zm3.82,5.1h2V12.68a2.866,2.866,0,0,1,2.5-1.32,2.374,2.374,0,0,1,2.54,2.58V20h1.98V13.6a3.8,3.8,0,0,0-3.96-3.98,4.16,4.16,0,0,0-3.06,1.22V9.82h-2Zm12.28-2.52c0,1.76,1.06,2.7,3.04,2.7a6.851,6.851,0,0,0,1.9-.3V18.2a3.862,3.862,0,0,1-1.46.24c-1.08,0-1.5-.38-1.5-1.42V11.5h3V9.82h-3V6.74l-1.98.48v2.6h-2.16V11.5h2.16Zm9.68,2.7a4.792,4.792,0,0,0,3.16-1.06V20h1.96V13.26c0-2.36-1.54-3.64-4.16-3.64a9.555,9.555,0,0,0-4.18,1.04l.74,1.5a7.377,7.377,0,0,1,3.16-.86c1.62,0,2.48.72,2.48,2.16v1.08a7.04,7.04,0,0,0-2.78-.56c-2.38,0-4.12,1.06-4.12,3.1C153.46,18.9,154.98,20.18,157.2,20.18Zm-1.82-3.14c0-1.06.96-1.68,2.36-1.68a5.34,5.34,0,0,1,2.62.6v1.78a3.915,3.915,0,0,1-2.7.96C156.32,18.7,155.38,18.04,155.38,17.04Zm10.24-8.86a1.24,1.24,0,0,0,0-2.48,1.24,1.24,0,1,0,0,2.48Zm1,1.64h-2V20h2ZM168.94,20h2V12.68a2.866,2.866,0,0,1,2.5-1.32,2.374,2.374,0,0,1,2.54,2.58V20h1.98V13.6A3.8,3.8,0,0,0,174,9.62a4.16,4.16,0,0,0-3.06,1.22V9.82h-2Zm10.9-5.1a5.238,5.238,0,0,0,5.34,5.28,6,6,0,0,0,3.94-1.34l-1.28-1.26a3.96,3.96,0,0,1-2.58.9,3.434,3.434,0,0,1-3.44-2.92h8.04v-.58a5.041,5.041,0,0,0-4.92-5.32A5.115,5.115,0,0,0,179.84,14.9Zm5.06-3.56a3.133,3.133,0,0,1,2.98,2.72h-6.04A3.129,3.129,0,0,1,184.9,11.34ZM191.74,20h2V13.18a2.741,2.741,0,0,1,2.62-1.84,3.566,3.566,0,0,1,1.2.22V9.76a2.909,2.909,0,0,0-1.04-.16,3.264,3.264,0,0,0-2.78,1.48V9.82h-2ZM.72,40.9a5.246,5.246,0,0,0,5.3,5.3,5.29,5.29,0,0,0,0-10.58A5.242,5.242,0,0,0,.72,40.9Zm8.64,0a3.419,3.419,0,0,1-3.34,3.54,3.535,3.535,0,0,1,0-7.06A3.4,3.4,0,0,1,9.36,40.9ZM13.18,46h2V39.18a2.741,2.741,0,0,1,2.62-1.84,3.566,3.566,0,0,1,1.2.22v-1.8a2.909,2.909,0,0,0-1.04-.16,3.264,3.264,0,0,0-2.78,1.48V35.82h-2Zm11.7-1.58a3.515,3.515,0,0,1-.04-7.02,3.784,3.784,0,0,1,2.8,1.28l1.26-1.36a5.828,5.828,0,0,0-4.1-1.7,5.28,5.28,0,0,0,0,10.56,5.63,5.63,0,0,0,4.02-1.7l-1.2-1.3A3.72,3.72,0,0,1,24.88,44.42ZM37.48,46h1.98V39.6a3.8,3.8,0,0,0-3.96-3.98,4.16,4.16,0,0,0-3.06,1.22V31.56l-2,.44V46h2V38.68a2.866,2.866,0,0,1,2.5-1.32,2.374,2.374,0,0,1,2.54,2.58Zm3.86-5.1a5.238,5.238,0,0,0,5.34,5.28,6,6,0,0,0,3.94-1.34l-1.28-1.26a3.96,3.96,0,0,1-2.58.9,3.434,3.434,0,0,1-3.44-2.92h8.04v-.58a5.041,5.041,0,0,0-4.92-5.32A5.115,5.115,0,0,0,41.34,40.9Zm5.06-3.56a3.133,3.133,0,0,1,2.98,2.72H43.34A3.129,3.129,0,0,1,46.4,37.34Zm6,7.34a6.794,6.794,0,0,0,4.46,1.5c2.42,0,4.26-1.36,4.26-3.2,0-1.56-1.02-2.54-3.08-2.84l-1.84-.26c-1.2-.18-1.68-.52-1.68-1.28,0-.86.86-1.38,2.04-1.38a5.589,5.589,0,0,1,3.22,1.06l1.02-1.32a6.988,6.988,0,0,0-4.1-1.3c-2.34,0-3.98,1.22-3.98,3.08,0,1.58,1.04,2.54,3.04,2.82l1.84.26c1.14.16,1.64.58,1.64,1.3,0,.82-.84,1.52-2.44,1.52a5.235,5.235,0,0,1-3.32-1.28Zm11.38-1.2c0,1.76,1.06,2.7,3.04,2.7a6.851,6.851,0,0,0,1.9-.3V44.2a3.862,3.862,0,0,1-1.46.24c-1.08,0-1.5-.38-1.5-1.42V37.5h3V35.82h-3V32.74l-1.98.48v2.6H61.62V37.5h2.16ZM70.22,46h2V39.18a2.741,2.741,0,0,1,2.62-1.84,3.566,3.566,0,0,1,1.2.22v-1.8A2.909,2.909,0,0,0,75,35.6a3.264,3.264,0,0,0-2.78,1.48V35.82h-2Zm10.26.18a4.792,4.792,0,0,0,3.16-1.06V46H85.6V39.26c0-2.36-1.54-3.64-4.16-3.64a9.555,9.555,0,0,0-4.18,1.04l.74,1.5a7.377,7.377,0,0,1,3.16-.86c1.62,0,2.48.72,2.48,2.16v1.08a7.04,7.04,0,0,0-2.78-.56c-2.38,0-4.12,1.06-4.12,3.1C76.74,44.9,78.26,46.18,80.48,46.18Zm-1.82-3.14c0-1.06.96-1.68,2.36-1.68a5.34,5.34,0,0,1,2.62.6v1.78a3.915,3.915,0,0,1-2.7.96C79.6,44.7,78.66,44.04,78.66,43.04Zm10.18.44c0,1.76,1.06,2.7,3.04,2.7a6.851,6.851,0,0,0,1.9-.3V44.2a3.862,3.862,0,0,1-1.46.24c-1.08,0-1.5-.38-1.5-1.42V37.5h3V35.82h-3V32.74l-1.98.48v2.6H86.68V37.5h2.16Zm7.44-9.3a1.24,1.24,0,0,0,0-2.48,1.24,1.24,0,1,0,0,2.48Zm1,1.64h-2V46h2Zm1.88,5.08a5.29,5.29,0,1,0,5.3-5.28A5.246,5.246,0,0,0,99.16,40.9Zm8.64,0a3.345,3.345,0,1,1-3.34-3.52A3.419,3.419,0,0,1,107.8,40.9Zm3.82,5.1h2V38.68a2.866,2.866,0,0,1,2.5-1.32,2.374,2.374,0,0,1,2.54,2.58V46h1.98V39.6a3.8,3.8,0,0,0-3.96-3.98,4.16,4.16,0,0,0-3.06,1.22V35.82h-2Z" transform="translate(384 284)"/><g transform="translate(-472 -2)"><rect class="a" width="14" height="14" transform="translate(856 248)"/><path class="e" d="M6.9,85l2.843-2.843a.894.894,0,0,0,0-1.264l-.632-.632a.894.894,0,0,0-1.264,0L5,83.1,2.157,80.262a.894.894,0,0,0-1.264,0l-.632.632a.894.894,0,0,0,0,1.264L3.1,85,.262,87.843a.894.894,0,0,0,0,1.264l.632.632a.894.894,0,0,0,1.264,0L5,86.9l2.843,2.843a.894.894,0,0,0,1.264,0l.632-.632a.894.894,0,0,0,0-1.264Z" transform="translate(858 170)"/></g></g></svg>