<svg width="1012" height="83" viewBox="0 0 1012 83" fill="none" xmlns="http://www.w3.org/2000/svg">
<mask id="mask0_185_7115" style="mask-type:alpha" maskUnits="userSpaceOnUse" x="0" y="0" width="1012" height="83">
<rect width="1012" height="83" fill="white"/>
</mask>
<g mask="url(#mask0_185_7115)">
<g filter="url(#filter0_d_185_7115)">
<rect width="1012" height="75" fill="white"/>
<path d="M45.3445 39.3317C47.446 39.3317 50.4907 38.9 50.4907 36.4217C50.4907 36.2283 50.4857 36.04 50.4386 35.8517L49.1861 30.4583C48.8952 29.2733 48.6431 28.7333 46.5399 27.6917C44.9108 26.865 41.3584 25.5 40.3077 25.5C39.3292 25.5 39.04 26.7567 37.88 26.7567C36.72 26.7567 35.9231 25.8233 34.8723 25.8233C33.8216 25.8233 33.2046 26.5067 32.6985 27.9067C32.6985 27.9067 31.2846 31.8583 31.1031 32.4333C31.0661 32.5417 31.0661 32.6617 31.0661 32.7567C31.0661 34.2933 37.1672 39.3317 45.3462 39.3317M50.8185 37.4267C51.1094 38.7917 51.1094 38.935 51.1094 39.115C51.1094 41.45 48.4632 42.7433 44.9848 42.7433C37.1201 42.7433 30.2339 38.18 30.2339 35.1633C30.2339 34.6967 30.3432 34.265 30.4878 33.9417C27.66 34.085 24 34.5883 24 37.7867C24 43.0317 36.5401 49.5 46.4693 49.5C54.0801 49.5 56 46.0867 56 43.3917C56 41.2717 54.1524 38.865 50.8169 37.4267" fill="#EE0000"/>
<path d="M50.4385 35.8519C50.4856 36.0403 50.4906 36.2286 50.4906 36.4219C50.4906 38.9003 47.446 39.3319 45.3445 39.3319C37.1654 39.3319 31.0643 34.2936 31.0643 32.7569C31.0643 32.6619 31.0643 32.5419 31.1013 32.4336L30.4843 33.9436C30.3397 34.2669 30.2305 34.6969 30.2305 35.1653C30.2305 38.1836 37.1167 42.7453 44.9813 42.7453C48.4597 42.7453 51.106 41.4519 51.106 39.1169C51.106 38.9369 51.106 38.7936 50.8151 37.4286L50.4368 35.8519H50.4385Z" fill="black"/>
<path d="M81.246 42V32.2H82.744L86.02 39.172L89.296 32.2H90.794V42H89.772V33.474L86.02 41.3L82.254 33.446V42H81.246ZM96.1749 42.14C95.5403 42.14 94.9663 41.986 94.4529 41.678C93.9396 41.3607 93.5336 40.936 93.2349 40.404C92.9363 39.8627 92.7869 39.256 92.7869 38.584C92.7869 37.912 92.9269 37.31 93.2069 36.778C93.4963 36.246 93.8836 35.826 94.3689 35.518C94.8543 35.21 95.3956 35.056 95.9929 35.056C96.5996 35.056 97.1363 35.21 97.6029 35.518C98.0789 35.8167 98.4523 36.2273 98.7229 36.75C99.0029 37.2633 99.1429 37.8467 99.1429 38.5V38.808H93.7809C93.8183 39.2747 93.9443 39.6947 94.1589 40.068C94.3829 40.432 94.6723 40.7213 95.0269 40.936C95.3909 41.1413 95.7876 41.244 96.2169 41.244C96.5716 41.244 96.9123 41.1833 97.2389 41.062C97.5749 40.9313 97.8596 40.7587 98.0929 40.544L98.7369 41.23C98.3449 41.538 97.9389 41.7667 97.5189 41.916C97.0989 42.0653 96.6509 42.14 96.1749 42.14ZM93.8089 38.08H98.1349C98.0883 37.6693 97.9623 37.3053 97.7569 36.988C97.5609 36.6613 97.3089 36.4047 97.0009 36.218C96.7023 36.0313 96.3663 35.938 95.9929 35.938C95.6196 35.938 95.2789 36.0313 94.9709 36.218C94.6629 36.3953 94.4063 36.6473 94.2009 36.974C94.0049 37.2913 93.8743 37.66 93.8089 38.08ZM100.888 42V35.168H101.91V36.274C102.171 35.8633 102.484 35.56 102.848 35.364C103.212 35.1587 103.623 35.056 104.08 35.056C104.575 35.056 105.004 35.1633 105.368 35.378C105.741 35.5833 106.031 35.8773 106.236 36.26C106.451 36.6333 106.558 37.072 106.558 37.576V42H105.536V37.87C105.536 37.2633 105.368 36.7873 105.032 36.442C104.705 36.0873 104.262 35.91 103.702 35.91C103.329 35.91 102.988 35.9987 102.68 36.176C102.372 36.3533 102.115 36.6147 101.91 36.96V42H100.888ZM110.98 42.112C110.495 42.112 110.065 42.0047 109.692 41.79C109.319 41.5753 109.025 41.2767 108.81 40.894C108.605 40.5113 108.502 40.0727 108.502 39.578V35.168H109.538V39.284C109.538 39.8907 109.701 40.3713 110.028 40.726C110.355 41.0807 110.798 41.258 111.358 41.258C111.741 41.258 112.081 41.1693 112.38 40.992C112.688 40.8147 112.945 40.558 113.15 40.222V35.168H114.172V42H113.15V40.894C112.889 41.2953 112.576 41.5987 112.212 41.804C111.857 42.0093 111.447 42.112 110.98 42.112Z" fill="#151515"/>
<g clip-path="url(#clip0_185_7115)">
<path d="M133.354 35.1465C133.158 34.9512 132.842 34.9512 132.646 35.1465L129 38.793L125.354 35.1465C125.158 34.9512 124.842 34.9512 124.646 35.1465C124.451 35.3418 124.451 35.6582 124.646 35.8535L128.47 39.6768C128.616 39.8233 128.808 39.896 129 39.896C129.192 39.896 129.384 39.8233 129.53 39.6768L133.353 35.8535C133.549 35.6582 133.549 35.3418 133.354 35.1465Z" fill="#A3A3A3"/>
</g>
<path d="M167.246 42V32.2H168.744L172.02 39.172L175.296 32.2H176.794V42H175.772V33.474L172.02 41.3L168.254 33.446V42H167.246ZM182.175 42.14C181.54 42.14 180.966 41.986 180.453 41.678C179.94 41.3607 179.534 40.936 179.235 40.404C178.936 39.8627 178.787 39.256 178.787 38.584C178.787 37.912 178.927 37.31 179.207 36.778C179.496 36.246 179.884 35.826 180.369 35.518C180.854 35.21 181.396 35.056 181.993 35.056C182.6 35.056 183.136 35.21 183.603 35.518C184.079 35.8167 184.452 36.2273 184.723 36.75C185.003 37.2633 185.143 37.8467 185.143 38.5V38.808H179.781C179.818 39.2747 179.944 39.6947 180.159 40.068C180.383 40.432 180.672 40.7213 181.027 40.936C181.391 41.1413 181.788 41.244 182.217 41.244C182.572 41.244 182.912 41.1833 183.239 41.062C183.575 40.9313 183.86 40.7587 184.093 40.544L184.737 41.23C184.345 41.538 183.939 41.7667 183.519 41.916C183.099 42.0653 182.651 42.14 182.175 42.14ZM179.809 38.08H184.135C184.088 37.6693 183.962 37.3053 183.757 36.988C183.561 36.6613 183.309 36.4047 183.001 36.218C182.702 36.0313 182.366 35.938 181.993 35.938C181.62 35.938 181.279 36.0313 180.971 36.218C180.663 36.3953 180.406 36.6473 180.201 36.974C180.005 37.2913 179.874 37.66 179.809 38.08ZM186.888 42V35.168H187.91V36.274C188.171 35.8633 188.484 35.56 188.848 35.364C189.212 35.1587 189.623 35.056 190.08 35.056C190.575 35.056 191.004 35.1633 191.368 35.378C191.741 35.5833 192.031 35.8773 192.236 36.26C192.451 36.6333 192.558 37.072 192.558 37.576V42H191.536V37.87C191.536 37.2633 191.368 36.7873 191.032 36.442C190.705 36.0873 190.262 35.91 189.702 35.91C189.329 35.91 188.988 35.9987 188.68 36.176C188.372 36.3533 188.115 36.6147 187.91 36.96V42H186.888ZM196.98 42.112C196.495 42.112 196.065 42.0047 195.692 41.79C195.319 41.5753 195.025 41.2767 194.81 40.894C194.605 40.5113 194.502 40.0727 194.502 39.578V35.168H195.538V39.284C195.538 39.8907 195.701 40.3713 196.028 40.726C196.355 41.0807 196.798 41.258 197.358 41.258C197.741 41.258 198.081 41.1693 198.38 40.992C198.688 40.8147 198.945 40.558 199.15 40.222V35.168H200.172V42H199.15V40.894C198.889 41.2953 198.576 41.5987 198.212 41.804C197.857 42.0093 197.447 42.112 196.98 42.112Z" fill="#151515"/>
<g clip-path="url(#clip1_185_7115)">
<path d="M219.354 35.1465C219.158 34.9512 218.842 34.9512 218.646 35.1465L215 38.793L211.354 35.1465C211.158 34.9512 210.842 34.9512 210.646 35.1465C210.451 35.3418 210.451 35.6582 210.646 35.8535L214.47 39.6768C214.616 39.8233 214.808 39.896 215 39.896C215.192 39.896 215.384 39.8233 215.53 39.6768L219.353 35.8535C219.549 35.6582 219.549 35.3418 219.354 35.1465Z" fill="#A3A3A3"/>
</g>
<path d="M253.246 42V32.2H254.744L258.02 39.172L261.296 32.2H262.794V42H261.772V33.474L258.02 41.3L254.254 33.446V42H253.246ZM268.175 42.14C267.54 42.14 266.966 41.986 266.453 41.678C265.94 41.3607 265.534 40.936 265.235 40.404C264.936 39.8627 264.787 39.256 264.787 38.584C264.787 37.912 264.927 37.31 265.207 36.778C265.496 36.246 265.884 35.826 266.369 35.518C266.854 35.21 267.396 35.056 267.993 35.056C268.6 35.056 269.136 35.21 269.603 35.518C270.079 35.8167 270.452 36.2273 270.723 36.75C271.003 37.2633 271.143 37.8467 271.143 38.5V38.808H265.781C265.818 39.2747 265.944 39.6947 266.159 40.068C266.383 40.432 266.672 40.7213 267.027 40.936C267.391 41.1413 267.788 41.244 268.217 41.244C268.572 41.244 268.912 41.1833 269.239 41.062C269.575 40.9313 269.86 40.7587 270.093 40.544L270.737 41.23C270.345 41.538 269.939 41.7667 269.519 41.916C269.099 42.0653 268.651 42.14 268.175 42.14ZM265.809 38.08H270.135C270.088 37.6693 269.962 37.3053 269.757 36.988C269.561 36.6613 269.309 36.4047 269.001 36.218C268.702 36.0313 268.366 35.938 267.993 35.938C267.62 35.938 267.279 36.0313 266.971 36.218C266.663 36.3953 266.406 36.6473 266.201 36.974C266.005 37.2913 265.874 37.66 265.809 38.08ZM272.888 42V35.168H273.91V36.274C274.171 35.8633 274.484 35.56 274.848 35.364C275.212 35.1587 275.623 35.056 276.08 35.056C276.575 35.056 277.004 35.1633 277.368 35.378C277.741 35.5833 278.031 35.8773 278.236 36.26C278.451 36.6333 278.558 37.072 278.558 37.576V42H277.536V37.87C277.536 37.2633 277.368 36.7873 277.032 36.442C276.705 36.0873 276.262 35.91 275.702 35.91C275.329 35.91 274.988 35.9987 274.68 36.176C274.372 36.3533 274.115 36.6147 273.91 36.96V42H272.888ZM282.98 42.112C282.495 42.112 282.065 42.0047 281.692 41.79C281.319 41.5753 281.025 41.2767 280.81 40.894C280.605 40.5113 280.502 40.0727 280.502 39.578V35.168H281.538V39.284C281.538 39.8907 281.701 40.3713 282.028 40.726C282.355 41.0807 282.798 41.258 283.358 41.258C283.741 41.258 284.081 41.1693 284.38 40.992C284.688 40.8147 284.945 40.558 285.15 40.222V35.168H286.172V42H285.15V40.894C284.889 41.2953 284.576 41.5987 284.212 41.804C283.857 42.0093 283.447 42.112 282.98 42.112Z" fill="#151515"/>
<g clip-path="url(#clip2_185_7115)">
<path d="M305.354 35.1465C305.158 34.9512 304.842 34.9512 304.646 35.1465L301 38.793L297.354 35.1465C297.158 34.9512 296.842 34.9512 296.646 35.1465C296.451 35.3418 296.451 35.6582 296.646 35.8535L300.47 39.6768C300.616 39.8233 300.808 39.896 301 39.896C301.192 39.896 301.384 39.8233 301.53 39.6768L305.353 35.8535C305.549 35.6582 305.549 35.3418 305.354 35.1465Z" fill="#A3A3A3"/>
</g>
<path d="M339.246 42V32.2H340.744L344.02 39.172L347.296 32.2H348.794V42H347.772V33.474L344.02 41.3L340.254 33.446V42H339.246ZM354.175 42.14C353.54 42.14 352.966 41.986 352.453 41.678C351.94 41.3607 351.534 40.936 351.235 40.404C350.936 39.8627 350.787 39.256 350.787 38.584C350.787 37.912 350.927 37.31 351.207 36.778C351.496 36.246 351.884 35.826 352.369 35.518C352.854 35.21 353.396 35.056 353.993 35.056C354.6 35.056 355.136 35.21 355.603 35.518C356.079 35.8167 356.452 36.2273 356.723 36.75C357.003 37.2633 357.143 37.8467 357.143 38.5V38.808H351.781C351.818 39.2747 351.944 39.6947 352.159 40.068C352.383 40.432 352.672 40.7213 353.027 40.936C353.391 41.1413 353.788 41.244 354.217 41.244C354.572 41.244 354.912 41.1833 355.239 41.062C355.575 40.9313 355.86 40.7587 356.093 40.544L356.737 41.23C356.345 41.538 355.939 41.7667 355.519 41.916C355.099 42.0653 354.651 42.14 354.175 42.14ZM351.809 38.08H356.135C356.088 37.6693 355.962 37.3053 355.757 36.988C355.561 36.6613 355.309 36.4047 355.001 36.218C354.702 36.0313 354.366 35.938 353.993 35.938C353.62 35.938 353.279 36.0313 352.971 36.218C352.663 36.3953 352.406 36.6473 352.201 36.974C352.005 37.2913 351.874 37.66 351.809 38.08ZM358.888 42V35.168H359.91V36.274C360.171 35.8633 360.484 35.56 360.848 35.364C361.212 35.1587 361.623 35.056 362.08 35.056C362.575 35.056 363.004 35.1633 363.368 35.378C363.741 35.5833 364.031 35.8773 364.236 36.26C364.451 36.6333 364.558 37.072 364.558 37.576V42H363.536V37.87C363.536 37.2633 363.368 36.7873 363.032 36.442C362.705 36.0873 362.262 35.91 361.702 35.91C361.329 35.91 360.988 35.9987 360.68 36.176C360.372 36.3533 360.115 36.6147 359.91 36.96V42H358.888ZM368.98 42.112C368.495 42.112 368.065 42.0047 367.692 41.79C367.319 41.5753 367.025 41.2767 366.81 40.894C366.605 40.5113 366.502 40.0727 366.502 39.578V35.168H367.538V39.284C367.538 39.8907 367.701 40.3713 368.028 40.726C368.355 41.0807 368.798 41.258 369.358 41.258C369.741 41.258 370.081 41.1693 370.38 40.992C370.688 40.8147 370.945 40.558 371.15 40.222V35.168H372.172V42H371.15V40.894C370.889 41.2953 370.576 41.5987 370.212 41.804C369.857 42.0093 369.447 42.112 368.98 42.112Z" fill="#151515"/>
<g clip-path="url(#clip3_185_7115)">
<path d="M391.354 35.1465C391.158 34.9512 390.842 34.9512 390.646 35.1465L387 38.793L383.354 35.1465C383.158 34.9512 382.842 34.9512 382.646 35.1465C382.451 35.3418 382.451 35.6582 382.646 35.8535L386.47 39.6768C386.616 39.8233 386.808 39.896 387 39.896C387.192 39.896 387.384 39.8233 387.53 39.6768L391.353 35.8535C391.549 35.6582 391.549 35.3418 391.354 35.1465Z" fill="#A3A3A3"/>
</g>
<path d="M425.246 42V32.2H426.744L430.02 39.172L433.296 32.2H434.794V42H433.772V33.474L430.02 41.3L426.254 33.446V42H425.246ZM440.175 42.14C439.54 42.14 438.966 41.986 438.453 41.678C437.94 41.3607 437.534 40.936 437.235 40.404C436.936 39.8627 436.787 39.256 436.787 38.584C436.787 37.912 436.927 37.31 437.207 36.778C437.496 36.246 437.884 35.826 438.369 35.518C438.854 35.21 439.396 35.056 439.993 35.056C440.6 35.056 441.136 35.21 441.603 35.518C442.079 35.8167 442.452 36.2273 442.723 36.75C443.003 37.2633 443.143 37.8467 443.143 38.5V38.808H437.781C437.818 39.2747 437.944 39.6947 438.159 40.068C438.383 40.432 438.672 40.7213 439.027 40.936C439.391 41.1413 439.788 41.244 440.217 41.244C440.572 41.244 440.912 41.1833 441.239 41.062C441.575 40.9313 441.86 40.7587 442.093 40.544L442.737 41.23C442.345 41.538 441.939 41.7667 441.519 41.916C441.099 42.0653 440.651 42.14 440.175 42.14ZM437.809 38.08H442.135C442.088 37.6693 441.962 37.3053 441.757 36.988C441.561 36.6613 441.309 36.4047 441.001 36.218C440.702 36.0313 440.366 35.938 439.993 35.938C439.62 35.938 439.279 36.0313 438.971 36.218C438.663 36.3953 438.406 36.6473 438.201 36.974C438.005 37.2913 437.874 37.66 437.809 38.08ZM444.888 42V35.168H445.91V36.274C446.171 35.8633 446.484 35.56 446.848 35.364C447.212 35.1587 447.623 35.056 448.08 35.056C448.575 35.056 449.004 35.1633 449.368 35.378C449.741 35.5833 450.031 35.8773 450.236 36.26C450.451 36.6333 450.558 37.072 450.558 37.576V42H449.536V37.87C449.536 37.2633 449.368 36.7873 449.032 36.442C448.705 36.0873 448.262 35.91 447.702 35.91C447.329 35.91 446.988 35.9987 446.68 36.176C446.372 36.3533 446.115 36.6147 445.91 36.96V42H444.888ZM454.98 42.112C454.495 42.112 454.065 42.0047 453.692 41.79C453.319 41.5753 453.025 41.2767 452.81 40.894C452.605 40.5113 452.502 40.0727 452.502 39.578V35.168H453.538V39.284C453.538 39.8907 453.701 40.3713 454.028 40.726C454.355 41.0807 454.798 41.258 455.358 41.258C455.741 41.258 456.081 41.1693 456.38 40.992C456.688 40.8147 456.945 40.558 457.15 40.222V35.168H458.172V42H457.15V40.894C456.889 41.2953 456.576 41.5987 456.212 41.804C455.857 42.0093 455.447 42.112 454.98 42.112Z" fill="#151515"/>
<g clip-path="url(#clip4_185_7115)">
<path d="M477.354 35.1465C477.158 34.9512 476.842 34.9512 476.646 35.1465L473 38.793L469.354 35.1465C469.158 34.9512 468.842 34.9512 468.646 35.1465C468.451 35.3418 468.451 35.6582 468.646 35.8535L472.47 39.6768C472.616 39.8233 472.808 39.896 473 39.896C473.192 39.896 473.384 39.8233 473.53 39.6768L477.353 35.8535C477.549 35.6582 477.549 35.3418 477.354 35.1465Z" fill="#A3A3A3"/>
</g>
<path d="M511.246 42V32.2H512.744L516.02 39.172L519.296 32.2H520.794V42H519.772V33.474L516.02 41.3L512.254 33.446V42H511.246ZM526.175 42.14C525.54 42.14 524.966 41.986 524.453 41.678C523.94 41.3607 523.534 40.936 523.235 40.404C522.936 39.8627 522.787 39.256 522.787 38.584C522.787 37.912 522.927 37.31 523.207 36.778C523.496 36.246 523.884 35.826 524.369 35.518C524.854 35.21 525.396 35.056 525.993 35.056C526.6 35.056 527.136 35.21 527.603 35.518C528.079 35.8167 528.452 36.2273 528.723 36.75C529.003 37.2633 529.143 37.8467 529.143 38.5V38.808H523.781C523.818 39.2747 523.944 39.6947 524.159 40.068C524.383 40.432 524.672 40.7213 525.027 40.936C525.391 41.1413 525.788 41.244 526.217 41.244C526.572 41.244 526.912 41.1833 527.239 41.062C527.575 40.9313 527.86 40.7587 528.093 40.544L528.737 41.23C528.345 41.538 527.939 41.7667 527.519 41.916C527.099 42.0653 526.651 42.14 526.175 42.14ZM523.809 38.08H528.135C528.088 37.6693 527.962 37.3053 527.757 36.988C527.561 36.6613 527.309 36.4047 527.001 36.218C526.702 36.0313 526.366 35.938 525.993 35.938C525.62 35.938 525.279 36.0313 524.971 36.218C524.663 36.3953 524.406 36.6473 524.201 36.974C524.005 37.2913 523.874 37.66 523.809 38.08ZM530.888 42V35.168H531.91V36.274C532.171 35.8633 532.484 35.56 532.848 35.364C533.212 35.1587 533.623 35.056 534.08 35.056C534.575 35.056 535.004 35.1633 535.368 35.378C535.741 35.5833 536.031 35.8773 536.236 36.26C536.451 36.6333 536.558 37.072 536.558 37.576V42H535.536V37.87C535.536 37.2633 535.368 36.7873 535.032 36.442C534.705 36.0873 534.262 35.91 533.702 35.91C533.329 35.91 532.988 35.9987 532.68 36.176C532.372 36.3533 532.115 36.6147 531.91 36.96V42H530.888ZM540.98 42.112C540.495 42.112 540.065 42.0047 539.692 41.79C539.319 41.5753 539.025 41.2767 538.81 40.894C538.605 40.5113 538.502 40.0727 538.502 39.578V35.168H539.538V39.284C539.538 39.8907 539.701 40.3713 540.028 40.726C540.355 41.0807 540.798 41.258 541.358 41.258C541.741 41.258 542.081 41.1693 542.38 40.992C542.688 40.8147 542.945 40.558 543.15 40.222V35.168H544.172V42H543.15V40.894C542.889 41.2953 542.576 41.5987 542.212 41.804C541.857 42.0093 541.447 42.112 540.98 42.112Z" fill="#151515"/>
<g clip-path="url(#clip5_185_7115)">
<path d="M563.354 35.1465C563.158 34.9512 562.842 34.9512 562.646 35.1465L559 38.793L555.354 35.1465C555.158 34.9512 554.842 34.9512 554.646 35.1465C554.451 35.3418 554.451 35.6582 554.646 35.8535L558.47 39.6768C558.616 39.8233 558.808 39.896 559 39.896C559.192 39.896 559.384 39.8233 559.53 39.6768L563.353 35.8535C563.549 35.6582 563.549 35.3418 563.354 35.1465Z" fill="#A3A3A3"/>
</g>
<path d="M597.246 42V32.2H598.744L602.02 39.172L605.296 32.2H606.794V42H605.772V33.474L602.02 41.3L598.254 33.446V42H597.246ZM612.175 42.14C611.54 42.14 610.966 41.986 610.453 41.678C609.94 41.3607 609.534 40.936 609.235 40.404C608.936 39.8627 608.787 39.256 608.787 38.584C608.787 37.912 608.927 37.31 609.207 36.778C609.496 36.246 609.884 35.826 610.369 35.518C610.854 35.21 611.396 35.056 611.993 35.056C612.6 35.056 613.136 35.21 613.603 35.518C614.079 35.8167 614.452 36.2273 614.723 36.75C615.003 37.2633 615.143 37.8467 615.143 38.5V38.808H609.781C609.818 39.2747 609.944 39.6947 610.159 40.068C610.383 40.432 610.672 40.7213 611.027 40.936C611.391 41.1413 611.788 41.244 612.217 41.244C612.572 41.244 612.912 41.1833 613.239 41.062C613.575 40.9313 613.86 40.7587 614.093 40.544L614.737 41.23C614.345 41.538 613.939 41.7667 613.519 41.916C613.099 42.0653 612.651 42.14 612.175 42.14ZM609.809 38.08H614.135C614.088 37.6693 613.962 37.3053 613.757 36.988C613.561 36.6613 613.309 36.4047 613.001 36.218C612.702 36.0313 612.366 35.938 611.993 35.938C611.62 35.938 611.279 36.0313 610.971 36.218C610.663 36.3953 610.406 36.6473 610.201 36.974C610.005 37.2913 609.874 37.66 609.809 38.08ZM616.888 42V35.168H617.91V36.274C618.171 35.8633 618.484 35.56 618.848 35.364C619.212 35.1587 619.623 35.056 620.08 35.056C620.575 35.056 621.004 35.1633 621.368 35.378C621.741 35.5833 622.031 35.8773 622.236 36.26C622.451 36.6333 622.558 37.072 622.558 37.576V42H621.536V37.87C621.536 37.2633 621.368 36.7873 621.032 36.442C620.705 36.0873 620.262 35.91 619.702 35.91C619.329 35.91 618.988 35.9987 618.68 36.176C618.372 36.3533 618.115 36.6147 617.91 36.96V42H616.888ZM626.98 42.112C626.495 42.112 626.065 42.0047 625.692 41.79C625.319 41.5753 625.025 41.2767 624.81 40.894C624.605 40.5113 624.502 40.0727 624.502 39.578V35.168H625.538V39.284C625.538 39.8907 625.701 40.3713 626.028 40.726C626.355 41.0807 626.798 41.258 627.358 41.258C627.741 41.258 628.081 41.1693 628.38 40.992C628.688 40.8147 628.945 40.558 629.15 40.222V35.168H630.172V42H629.15V40.894C628.889 41.2953 628.576 41.5987 628.212 41.804C627.857 42.0093 627.447 42.112 626.98 42.112Z" fill="#151515"/>
<g clip-path="url(#clip6_185_7115)">
<path d="M649.354 35.1465C649.158 34.9512 648.842 34.9512 648.646 35.1465L645 38.793L641.354 35.1465C641.158 34.9512 640.842 34.9512 640.646 35.1465C640.451 35.3418 640.451 35.6582 640.646 35.8535L644.47 39.6768C644.616 39.8233 644.808 39.896 645 39.896C645.192 39.896 645.384 39.8233 645.53 39.6768L649.353 35.8535C649.549 35.6582 649.549 35.3418 649.354 35.1465Z" fill="#A3A3A3"/>
</g>
<rect x="708.5" y="20" width="63" height="35" rx="17.5" fill="white"/>
<rect x="708.5" y="20" width="63" height="35" rx="17.5" stroke="#C7C7C7"/>
<g clip-path="url(#clip7_185_7115)">
<path d="M731 33.5625C729.793 33.5625 728.812 34.5425 728.812 35.75C728.812 35.9906 729.009 36.1875 729.25 36.1875C729.491 36.1875 729.688 35.9906 729.688 35.75C729.688 35.0281 730.278 34.4375 731 34.4375C731.722 34.4375 732.312 35.0281 732.312 35.75C732.312 36.4719 731.722 37.0625 731 37.0625C730.759 37.0625 730.562 37.2594 730.562 37.5V38.8125C730.562 39.0531 730.759 39.25 731 39.25C731.241 39.25 731.438 39.0531 731.438 38.8125V37.8937C732.435 37.6925 733.188 36.8088 733.188 35.75C733.188 34.5425 732.207 33.5625 731 33.5625Z" fill="#151515"/>
<path d="M731 30.5C727.141 30.5 724 33.6413 724 37.5C724 41.3587 727.141 44.5 731 44.5C734.859 44.5 738 41.3587 738 37.5C738 33.6413 734.859 30.5 731 30.5ZM731 43.625C727.623 43.625 724.875 40.8775 724.875 37.5C724.875 34.1225 727.623 31.375 731 31.375C734.377 31.375 737.125 34.1225 737.125 37.5C737.125 40.8775 734.377 43.625 731 43.625Z" fill="#151515"/>
<path d="M731 41.6562C731.362 41.6562 731.656 41.3624 731.656 41C731.656 40.6376 731.362 40.3438 731 40.3438C730.638 40.3438 730.344 40.6376 730.344 41C730.344 41.3624 730.638 41.6562 731 41.6562Z" fill="#151515"/>
</g>
<g clip-path="url(#clip8_185_7115)">
<path d="M755.354 35.1465C755.158 34.9512 754.842 34.9512 754.646 35.1465L751 38.793L747.354 35.1465C747.158 34.9512 746.842 34.9512 746.646 35.1465C746.451 35.3418 746.451 35.6582 746.646 35.8535L750.47 39.6768C750.616 39.8233 750.808 39.896 751 39.896C751.192 39.896 751.384 39.8233 751.53 39.6768L755.353 35.8535C755.549 35.6582 755.549 35.3418 755.354 35.1465Z" fill="#A3A3A3"/>
</g>
<rect x="780.5" y="20" width="63" height="35" rx="17.5" fill="white"/>
<rect x="780.5" y="20" width="63" height="35" rx="17.5" stroke="#C7C7C7"/>
<g clip-path="url(#clip9_185_7115)">
<path d="M803 33.5625C801.793 33.5625 800.812 34.5425 800.812 35.75C800.812 35.9906 801.009 36.1875 801.25 36.1875C801.491 36.1875 801.688 35.9906 801.688 35.75C801.688 35.0281 802.278 34.4375 803 34.4375C803.722 34.4375 804.312 35.0281 804.312 35.75C804.312 36.4719 803.722 37.0625 803 37.0625C802.759 37.0625 802.562 37.2594 802.562 37.5V38.8125C802.562 39.0531 802.759 39.25 803 39.25C803.241 39.25 803.438 39.0531 803.438 38.8125V37.8937C804.435 37.6925 805.188 36.8088 805.188 35.75C805.188 34.5425 804.207 33.5625 803 33.5625Z" fill="#151515"/>
<path d="M803 30.5C799.141 30.5 796 33.6413 796 37.5C796 41.3587 799.141 44.5 803 44.5C806.859 44.5 810 41.3587 810 37.5C810 33.6413 806.859 30.5 803 30.5ZM803 43.625C799.623 43.625 796.875 40.8775 796.875 37.5C796.875 34.1225 799.623 31.375 803 31.375C806.377 31.375 809.125 34.1225 809.125 37.5C809.125 40.8775 806.377 43.625 803 43.625Z" fill="#151515"/>
<path d="M803 41.6562C803.362 41.6562 803.656 41.3624 803.656 41C803.656 40.6376 803.362 40.3438 803 40.3438C802.638 40.3438 802.344 40.6376 802.344 41C802.344 41.3624 802.638 41.6562 803 41.6562Z" fill="#151515"/>
</g>
<g clip-path="url(#clip10_185_7115)">
<path d="M827.354 35.1465C827.158 34.9512 826.842 34.9512 826.646 35.1465L823 38.793L819.354 35.1465C819.158 34.9512 818.842 34.9512 818.646 35.1465C818.451 35.3418 818.451 35.6582 818.646 35.8535L822.47 39.6768C822.616 39.8233 822.808 39.896 823 39.896C823.192 39.896 823.384 39.8233 823.53 39.6768L827.353 35.8535C827.549 35.6582 827.549 35.3418 827.354 35.1465Z" fill="#A3A3A3"/>
</g>
<rect x="852.5" y="20" width="63" height="35" rx="17.5" fill="white"/>
<rect x="852.5" y="20" width="63" height="35" rx="17.5" stroke="#C7C7C7"/>
<g clip-path="url(#clip11_185_7115)">
<path d="M875 33.5625C873.793 33.5625 872.812 34.5425 872.812 35.75C872.812 35.9906 873.009 36.1875 873.25 36.1875C873.491 36.1875 873.688 35.9906 873.688 35.75C873.688 35.0281 874.278 34.4375 875 34.4375C875.722 34.4375 876.312 35.0281 876.312 35.75C876.312 36.4719 875.722 37.0625 875 37.0625C874.759 37.0625 874.562 37.2594 874.562 37.5V38.8125C874.562 39.0531 874.759 39.25 875 39.25C875.241 39.25 875.438 39.0531 875.438 38.8125V37.8937C876.435 37.6925 877.188 36.8088 877.188 35.75C877.188 34.5425 876.207 33.5625 875 33.5625Z" fill="#151515"/>
<path d="M875 30.5C871.141 30.5 868 33.6413 868 37.5C868 41.3587 871.141 44.5 875 44.5C878.859 44.5 882 41.3587 882 37.5C882 33.6413 878.859 30.5 875 30.5ZM875 43.625C871.623 43.625 868.875 40.8775 868.875 37.5C868.875 34.1225 871.623 31.375 875 31.375C878.377 31.375 881.125 34.1225 881.125 37.5C881.125 40.8775 878.377 43.625 875 43.625Z" fill="#151515"/>
<path d="M875 41.6562C875.362 41.6562 875.656 41.3624 875.656 41C875.656 40.6376 875.362 40.3438 875 40.3438C874.638 40.3438 874.344 40.6376 874.344 41C874.344 41.3624 874.638 41.6562 875 41.6562Z" fill="#151515"/>
</g>
<g clip-path="url(#clip12_185_7115)">
<path d="M899.354 35.1465C899.158 34.9512 898.842 34.9512 898.646 35.1465L895 38.793L891.354 35.1465C891.158 34.9512 890.842 34.9512 890.646 35.1465C890.451 35.3418 890.451 35.6582 890.646 35.8535L894.47 39.6768C894.616 39.8233 894.808 39.896 895 39.896C895.192 39.896 895.384 39.8233 895.53 39.6768L899.353 35.8535C899.549 35.6582 899.549 35.3418 899.354 35.1465Z" fill="#A3A3A3"/>
</g>
<rect x="924.5" y="20" width="63" height="35" rx="17.5" fill="white"/>
<rect x="924.5" y="20" width="63" height="35" rx="17.5" stroke="#C7C7C7"/>
<g clip-path="url(#clip13_185_7115)">
<path d="M947 33.5625C945.793 33.5625 944.812 34.5425 944.812 35.75C944.812 35.9906 945.009 36.1875 945.25 36.1875C945.491 36.1875 945.688 35.9906 945.688 35.75C945.688 35.0281 946.278 34.4375 947 34.4375C947.722 34.4375 948.312 35.0281 948.312 35.75C948.312 36.4719 947.722 37.0625 947 37.0625C946.759 37.0625 946.562 37.2594 946.562 37.5V38.8125C946.562 39.0531 946.759 39.25 947 39.25C947.241 39.25 947.438 39.0531 947.438 38.8125V37.8937C948.435 37.6925 949.188 36.8088 949.188 35.75C949.188 34.5425 948.207 33.5625 947 33.5625Z" fill="#151515"/>
<path d="M947 30.5C943.141 30.5 940 33.6413 940 37.5C940 41.3587 943.141 44.5 947 44.5C950.859 44.5 954 41.3587 954 37.5C954 33.6413 950.859 30.5 947 30.5ZM947 43.625C943.623 43.625 940.875 40.8775 940.875 37.5C940.875 34.1225 943.623 31.375 947 31.375C950.377 31.375 953.125 34.1225 953.125 37.5C953.125 40.8775 950.377 43.625 947 43.625Z" fill="#151515"/>
<path d="M947 41.6562C947.362 41.6562 947.656 41.3624 947.656 41C947.656 40.6376 947.362 40.3438 947 40.3438C946.638 40.3438 946.344 40.6376 946.344 41C946.344 41.3624 946.638 41.6562 947 41.6562Z" fill="#151515"/>
</g>
<g clip-path="url(#clip14_185_7115)">
<path d="M971.354 35.1465C971.158 34.9512 970.842 34.9512 970.646 35.1465L967 38.793L963.354 35.1465C963.158 34.9512 962.842 34.9512 962.646 35.1465C962.451 35.3418 962.451 35.6582 962.646 35.8535L966.47 39.6768C966.616 39.8233 966.808 39.896 967 39.896C967.192 39.896 967.384 39.8233 967.53 39.6768L971.353 35.8535C971.549 35.6582 971.549 35.3418 971.354 35.1465Z" fill="#A3A3A3"/>
</g>
</g>
</g>
<defs>
<filter id="filter0_d_185_7115" x="-4" y="-2" width="1020" height="83" filterUnits="userSpaceOnUse" color-interpolation-filters="sRGB">
<feFlood flood-opacity="0" result="BackgroundImageFix"/>
<feColorMatrix in="SourceAlpha" type="matrix" values="0 0 0 0 0 0 0 0 0 0 0 0 0 0 0 0 0 0 127 0" result="hardAlpha"/>
<feOffset dy="2"/>
<feGaussianBlur stdDeviation="2"/>
<feComposite in2="hardAlpha" operator="out"/>
<feColorMatrix type="matrix" values="0 0 0 0 0.0823529 0 0 0 0 0.0823529 0 0 0 0 0.0823529 0 0 0 0.2 0"/>
<feBlend mode="normal" in2="BackgroundImageFix" result="effect1_dropShadow_185_7115"/>
<feBlend mode="normal" in="SourceGraphic" in2="effect1_dropShadow_185_7115" result="shape"/>
</filter>
<clipPath id="clip0_185_7115">
<rect width="10" height="10" fill="white" transform="translate(124 32.5)"/>
</clipPath>
<clipPath id="clip1_185_7115">
<rect width="10" height="10" fill="white" transform="translate(210 32.5)"/>
</clipPath>
<clipPath id="clip2_185_7115">
<rect width="10" height="10" fill="white" transform="translate(296 32.5)"/>
</clipPath>
<clipPath id="clip3_185_7115">
<rect width="10" height="10" fill="white" transform="translate(382 32.5)"/>
</clipPath>
<clipPath id="clip4_185_7115">
<rect width="10" height="10" fill="white" transform="translate(468 32.5)"/>
</clipPath>
<clipPath id="clip5_185_7115">
<rect width="10" height="10" fill="white" transform="translate(554 32.5)"/>
</clipPath>
<clipPath id="clip6_185_7115">
<rect width="10" height="10" fill="white" transform="translate(640 32.5)"/>
</clipPath>
<clipPath id="clip7_185_7115">
<rect width="14" height="14" fill="white" transform="translate(724 30.5)"/>
</clipPath>
<clipPath id="clip8_185_7115">
<rect width="10" height="10" fill="white" transform="translate(746 32.5)"/>
</clipPath>
<clipPath id="clip9_185_7115">
<rect width="14" height="14" fill="white" transform="translate(796 30.5)"/>
</clipPath>
<clipPath id="clip10_185_7115">
<rect width="10" height="10" fill="white" transform="translate(818 32.5)"/>
</clipPath>
<clipPath id="clip11_185_7115">
<rect width="14" height="14" fill="white" transform="translate(868 30.5)"/>
</clipPath>
<clipPath id="clip12_185_7115">
<rect width="10" height="10" fill="white" transform="translate(890 32.5)"/>
</clipPath>
<clipPath id="clip13_185_7115">
<rect width="14" height="14" fill="white" transform="translate(940 30.5)"/>
</clipPath>
<clipPath id="clip14_185_7115">
<rect width="10" height="10" fill="white" transform="translate(962 32.5)"/>
</clipPath>
</defs>
</svg>
