<svg width="1140" height="416" viewBox="0 0 1140 416" fill="none" xmlns="http://www.w3.org/2000/svg">
<mask id="mask0_4015_3791" style="mask-type:alpha" maskUnits="userSpaceOnUse" x="0" y="0" width="1140" height="88">
<rect width="1140" height="88" fill="white"/>
</mask>
<g mask="url(#mask0_4015_3791)">
<g filter="url(#filter0_d_4015_3791)">
<rect width="1140" height="82" fill="white"/>
<g clip-path="url(#clip0_4015_3791)">
<path d="M58.3554 43.2896C60.95 43.2896 64.7091 42.75 64.7091 39.6521C64.7091 39.4104 64.7029 39.175 64.6448 38.9396L63.0984 32.1979C62.7393 30.7167 62.4279 30.0417 59.8312 28.7396C57.8198 27.7062 53.4339 26 52.1365 26C50.9285 26 50.5715 27.5708 49.1392 27.5708C47.707 27.5708 46.7231 26.4042 45.4258 26.4042C44.1285 26.4042 43.3667 27.2583 42.7419 29.0083C42.7419 29.0083 40.9962 33.9479 40.7721 34.6667C40.7264 34.8021 40.7264 34.9521 40.7264 35.0708C40.7264 36.9917 48.2591 43.2896 58.3574 43.2896M65.1139 40.9083C65.473 42.6146 65.473 42.7938 65.473 43.0187C65.473 45.9375 62.2058 47.5542 57.9112 47.5542C48.201 47.5542 39.6989 41.85 39.6989 38.0792C39.6989 37.4958 39.8338 36.9563 40.0123 36.5521C36.521 36.7312 32.0022 37.3604 32.0022 41.3583C32.0022 47.9146 47.4849 56 59.744 56C69.1407 56 71.5112 51.7333 71.5112 48.3646C71.5112 45.7146 69.23 42.7062 65.1118 40.9083" fill="#EE0000"/>
<path d="M65.1117 40.9103C65.4708 42.6165 65.4708 42.7957 65.4708 43.0207C65.4708 45.9394 62.2037 47.5561 57.909 47.5561C48.1989 47.5561 39.6968 41.8519 39.6968 38.0811C39.6968 37.4978 39.8317 36.9582 40.0102 36.554L40.772 34.6665C40.7263 34.8019 40.7263 34.9519 40.7263 35.0707C40.7263 36.9915 48.2591 43.2894 58.3574 43.2894C60.952 43.2894 64.7111 42.7498 64.7111 39.6519C64.7111 39.4103 64.7049 39.1748 64.6468 38.9394L65.1138 40.9103H65.1117Z" fill="black"/>
<path d="M152.233 45.2293C152.233 47.7043 153.717 48.9105 156.424 48.9105C157.08 48.9105 158.213 48.7564 158.892 48.5605V45.6897C158.303 45.8647 157.867 45.9314 157.298 45.9314C156.185 45.9314 155.77 45.5814 155.77 44.5293V40.1251H159V37.1668H155.77V33.421L152.233 34.1876V37.1668H149.898V40.1251H152.233V45.2293ZM141.244 45.296C141.244 44.5293 142.008 44.1564 143.165 44.1564C143.928 44.1564 144.628 44.2668 145.261 44.4189V45.9085C144.605 46.2814 143.841 46.4564 143.057 46.4564C141.921 46.4564 141.244 46.0189 141.244 45.296ZM142.324 48.9543C143.567 48.9543 144.572 48.6918 145.51 48.0564V48.7585H149.003V41.3314C149.003 38.5043 147.104 36.9501 143.939 36.9501C142.17 36.9501 140.425 37.3668 138.546 38.221L139.812 40.8293C141.166 40.2605 142.301 39.9085 143.306 39.9085C144.769 39.9085 145.51 40.4772 145.51 41.6397V42.2085C144.68 41.9897 143.808 41.8793 142.891 41.8793C139.922 41.8793 138.131 43.1272 138.131 45.3626C138.131 47.4001 139.746 48.9564 142.322 48.9564M123.134 48.7585H126.889V42.7543H133.176V48.7585H136.931V33.421H133.176V39.3147H126.889V33.421H123.134V48.7585ZM108.826 42.9522C108.826 41.2876 110.136 40.0168 111.861 40.0168C112.822 40.0168 113.694 40.346 114.306 40.9147V44.9689C113.673 45.5814 112.843 45.8897 111.861 45.8897C110.159 45.8897 108.826 44.6189 108.826 42.9543M114.35 48.7605H117.843V32.6543L114.306 33.421V37.7814C113.432 37.2772 112.43 37.0147 111.358 37.0147C107.996 37.0147 105.356 39.623 105.356 42.9522C105.356 46.2814 107.954 48.9126 111.251 48.9126C112.386 48.9126 113.455 48.5626 114.35 47.9043V48.7585V48.7605ZM98.3272 39.8647C99.4398 39.8647 100.38 40.5876 100.75 41.7043H95.9256C96.2743 40.5439 97.1482 39.8647 98.3272 39.8647ZM92.3678 42.9751C92.3678 46.3501 95.1181 48.9793 98.6552 48.9793C100.598 48.9793 102.018 48.4543 103.479 47.2272L101.144 45.146C100.598 45.7147 99.7906 46.023 98.8295 46.023C97.5197 46.023 96.4508 45.3001 95.992 44.1835H104.222V43.3064C104.222 39.6251 101.756 36.9751 98.3936 36.9751C95.031 36.9751 92.3678 39.6043 92.3678 42.9793M86.2777 36.648C87.5211 36.648 88.2206 37.4376 88.2206 38.3793C88.2206 39.321 87.5211 40.1105 86.2777 40.1105H82.5664V36.648H86.2777ZM78.8114 48.7647H82.5664V43.1772H85.4267L88.3078 48.7647H92.4986L89.136 42.6293C90.9481 41.8397 92.017 40.198 92.017 38.3126C92.017 35.5522 89.8562 33.4272 86.6244 33.4272H78.8093V48.7647H78.8114Z" fill="black"/>
</g>
<path d="M192.424 47V35.8H194.136L197.88 43.768L201.624 35.8H203.336V47H202.168V37.256L197.88 46.2L193.576 37.224V47H192.424ZM209.486 47.16C208.76 47.16 208.104 46.984 207.518 46.632C206.931 46.2693 206.467 45.784 206.126 45.176C205.784 44.5573 205.614 43.864 205.614 43.096C205.614 42.328 205.774 41.64 206.094 41.032C206.424 40.424 206.867 39.944 207.422 39.592C207.976 39.24 208.595 39.064 209.278 39.064C209.971 39.064 210.584 39.24 211.118 39.592C211.662 39.9333 212.088 40.4027 212.398 41C212.718 41.5867 212.878 42.2533 212.878 43V43.352H206.75C206.792 43.8853 206.936 44.3653 207.182 44.792C207.438 45.208 207.768 45.5387 208.174 45.784C208.59 46.0187 209.043 46.136 209.534 46.136C209.939 46.136 210.328 46.0667 210.702 45.928C211.086 45.7787 211.411 45.5813 211.678 45.336L212.414 46.12C211.966 46.472 211.502 46.7333 211.022 46.904C210.542 47.0747 210.03 47.16 209.486 47.16ZM206.782 42.52H211.726C211.672 42.0507 211.528 41.6347 211.294 41.272C211.07 40.8987 210.782 40.6053 210.43 40.392C210.088 40.1787 209.704 40.072 209.278 40.072C208.851 40.072 208.462 40.1787 208.11 40.392C207.758 40.5947 207.464 40.8827 207.23 41.256C207.006 41.6187 206.856 42.04 206.782 42.52ZM214.872 47V39.192H216.04V40.456C216.339 39.9867 216.696 39.64 217.112 39.416C217.528 39.1813 217.997 39.064 218.52 39.064C219.085 39.064 219.576 39.1867 219.992 39.432C220.419 39.6667 220.749 40.0027 220.984 40.44C221.229 40.8667 221.352 41.368 221.352 41.944V47H220.184V42.28C220.184 41.5867 219.992 41.0427 219.608 40.648C219.235 40.2427 218.728 40.04 218.088 40.04C217.661 40.04 217.272 40.1413 216.92 40.344C216.568 40.5467 216.275 40.8453 216.04 41.24V47H214.872ZM226.406 47.128C225.851 47.128 225.361 47.0053 224.934 46.76C224.507 46.5147 224.171 46.1733 223.926 45.736C223.691 45.2987 223.574 44.7973 223.574 44.232V39.192H224.758V43.896C224.758 44.5893 224.945 45.1387 225.318 45.544C225.691 45.9493 226.198 46.152 226.838 46.152C227.275 46.152 227.665 46.0507 228.006 45.848C228.358 45.6453 228.651 45.352 228.886 44.968V39.192H230.054V47H228.886V45.736C228.587 46.1947 228.23 46.5413 227.814 46.776C227.409 47.0107 226.939 47.128 226.406 47.128Z" fill="#151515"/>
<path d="M249.354 38.6465C249.158 38.4512 248.842 38.4512 248.646 38.6465L245 42.293L241.354 38.6465C241.158 38.4512 240.842 38.4512 240.646 38.6465C240.451 38.8418 240.451 39.1582 240.646 39.3535L244.47 43.1768C244.616 43.3233 244.808 43.396 245 43.396C245.192 43.396 245.384 43.3233 245.53 43.1768L249.353 39.3535C249.549 39.1582 249.549 38.8418 249.354 38.6465Z" fill="#707070"/>
<path d="M283.424 47V35.8H285.136L288.88 43.768L292.624 35.8H294.336V47H293.168V37.256L288.88 46.2L284.576 37.224V47H283.424ZM300.486 47.16C299.76 47.16 299.104 46.984 298.518 46.632C297.931 46.2693 297.467 45.784 297.126 45.176C296.784 44.5573 296.614 43.864 296.614 43.096C296.614 42.328 296.774 41.64 297.094 41.032C297.424 40.424 297.867 39.944 298.422 39.592C298.976 39.24 299.595 39.064 300.278 39.064C300.971 39.064 301.584 39.24 302.118 39.592C302.662 39.9333 303.088 40.4027 303.398 41C303.718 41.5867 303.878 42.2533 303.878 43V43.352H297.75C297.792 43.8853 297.936 44.3653 298.182 44.792C298.438 45.208 298.768 45.5387 299.174 45.784C299.59 46.0187 300.043 46.136 300.534 46.136C300.939 46.136 301.328 46.0667 301.702 45.928C302.086 45.7787 302.411 45.5813 302.678 45.336L303.414 46.12C302.966 46.472 302.502 46.7333 302.022 46.904C301.542 47.0747 301.03 47.16 300.486 47.16ZM297.782 42.52H302.726C302.672 42.0507 302.528 41.6347 302.294 41.272C302.07 40.8987 301.782 40.6053 301.43 40.392C301.088 40.1787 300.704 40.072 300.278 40.072C299.851 40.072 299.462 40.1787 299.11 40.392C298.758 40.5947 298.464 40.8827 298.23 41.256C298.006 41.6187 297.856 42.04 297.782 42.52ZM305.872 47V39.192H307.04V40.456C307.339 39.9867 307.696 39.64 308.112 39.416C308.528 39.1813 308.997 39.064 309.52 39.064C310.085 39.064 310.576 39.1867 310.992 39.432C311.419 39.6667 311.749 40.0027 311.984 40.44C312.229 40.8667 312.352 41.368 312.352 41.944V47H311.184V42.28C311.184 41.5867 310.992 41.0427 310.608 40.648C310.235 40.2427 309.728 40.04 309.088 40.04C308.661 40.04 308.272 40.1413 307.92 40.344C307.568 40.5467 307.275 40.8453 307.04 41.24V47H305.872ZM317.406 47.128C316.851 47.128 316.361 47.0053 315.934 46.76C315.507 46.5147 315.171 46.1733 314.926 45.736C314.691 45.2987 314.574 44.7973 314.574 44.232V39.192H315.758V43.896C315.758 44.5893 315.945 45.1387 316.318 45.544C316.691 45.9493 317.198 46.152 317.838 46.152C318.275 46.152 318.665 46.0507 319.006 45.848C319.358 45.6453 319.651 45.352 319.886 44.968V39.192H321.054V47H319.886V45.736C319.587 46.1947 319.23 46.5413 318.814 46.776C318.409 47.0107 317.939 47.128 317.406 47.128Z" fill="#151515"/>
<path d="M340.354 38.6465C340.158 38.4512 339.842 38.4512 339.646 38.6465L336 42.293L332.354 38.6465C332.158 38.4512 331.842 38.4512 331.646 38.6465C331.451 38.8418 331.451 39.1582 331.646 39.3535L335.47 43.1768C335.616 43.3233 335.808 43.396 336 43.396C336.192 43.396 336.384 43.3233 336.53 43.1768L340.353 39.3535C340.549 39.1582 340.549 38.8418 340.354 38.6465Z" fill="#707070"/>
<path d="M374.424 47V35.8H376.136L379.88 43.768L383.624 35.8H385.336V47H384.168V37.256L379.88 46.2L375.576 37.224V47H374.424ZM391.486 47.16C390.76 47.16 390.104 46.984 389.518 46.632C388.931 46.2693 388.467 45.784 388.126 45.176C387.784 44.5573 387.614 43.864 387.614 43.096C387.614 42.328 387.774 41.64 388.094 41.032C388.424 40.424 388.867 39.944 389.422 39.592C389.976 39.24 390.595 39.064 391.278 39.064C391.971 39.064 392.584 39.24 393.118 39.592C393.662 39.9333 394.088 40.4027 394.398 41C394.718 41.5867 394.878 42.2533 394.878 43V43.352H388.75C388.792 43.8853 388.936 44.3653 389.182 44.792C389.438 45.208 389.768 45.5387 390.174 45.784C390.59 46.0187 391.043 46.136 391.534 46.136C391.939 46.136 392.328 46.0667 392.702 45.928C393.086 45.7787 393.411 45.5813 393.678 45.336L394.414 46.12C393.966 46.472 393.502 46.7333 393.022 46.904C392.542 47.0747 392.03 47.16 391.486 47.16ZM388.782 42.52H393.726C393.672 42.0507 393.528 41.6347 393.294 41.272C393.07 40.8987 392.782 40.6053 392.43 40.392C392.088 40.1787 391.704 40.072 391.278 40.072C390.851 40.072 390.462 40.1787 390.11 40.392C389.758 40.5947 389.464 40.8827 389.23 41.256C389.006 41.6187 388.856 42.04 388.782 42.52ZM396.872 47V39.192H398.04V40.456C398.339 39.9867 398.696 39.64 399.112 39.416C399.528 39.1813 399.997 39.064 400.52 39.064C401.085 39.064 401.576 39.1867 401.992 39.432C402.419 39.6667 402.749 40.0027 402.984 40.44C403.229 40.8667 403.352 41.368 403.352 41.944V47H402.184V42.28C402.184 41.5867 401.992 41.0427 401.608 40.648C401.235 40.2427 400.728 40.04 400.088 40.04C399.661 40.04 399.272 40.1413 398.92 40.344C398.568 40.5467 398.275 40.8453 398.04 41.24V47H396.872ZM408.406 47.128C407.851 47.128 407.361 47.0053 406.934 46.76C406.507 46.5147 406.171 46.1733 405.926 45.736C405.691 45.2987 405.574 44.7973 405.574 44.232V39.192H406.758V43.896C406.758 44.5893 406.945 45.1387 407.318 45.544C407.691 45.9493 408.198 46.152 408.838 46.152C409.275 46.152 409.665 46.0507 410.006 45.848C410.358 45.6453 410.651 45.352 410.886 44.968V39.192H412.054V47H410.886V45.736C410.587 46.1947 410.23 46.5413 409.814 46.776C409.409 47.0107 408.939 47.128 408.406 47.128Z" fill="#151515"/>
<path d="M431.354 38.6465C431.158 38.4512 430.842 38.4512 430.646 38.6465L427 42.293L423.354 38.6465C423.158 38.4512 422.842 38.4512 422.646 38.6465C422.451 38.8418 422.451 39.1582 422.646 39.3535L426.47 43.1768C426.616 43.3233 426.808 43.396 427 43.396C427.192 43.396 427.384 43.3233 427.53 43.1768L431.353 39.3535C431.549 39.1582 431.549 38.8418 431.354 38.6465Z" fill="#707070"/>
<path d="M741.468 57.0227C742.047 57.5708 742.953 57.5708 743.532 57.0227L749.267 51.5889C750.252 50.6564 749.592 49 748.236 49H736.764C735.408 49 734.748 50.6564 735.733 51.5889L741.468 57.0227Z" fill="#EE0000"/>
<rect x="714" y="28" width="57" height="25" rx="2" fill="#EE0000"/>
<path d="M723.792 47.12C723.112 47.12 722.44 46.996 721.776 46.748C721.112 46.5 720.52 46.156 720 45.716L721.152 44.216C721.664 44.632 722.136 44.932 722.568 45.116C723 45.292 723.46 45.38 723.948 45.38C724.268 45.38 724.54 45.348 724.764 45.284C724.988 45.22 725.16 45.128 725.28 45.008C725.4 44.88 725.46 44.732 725.46 44.564C725.46 44.332 725.372 44.152 725.196 44.024C725.02 43.896 724.72 43.796 724.296 43.724L722.448 43.4C721.768 43.28 721.244 43.02 720.876 42.62C720.508 42.22 720.324 41.712 720.324 41.096C720.324 40.552 720.46 40.084 720.732 39.692C721.012 39.3 721.408 39 721.92 38.792C722.44 38.584 723.056 38.48 723.768 38.48C724.392 38.48 725.02 38.588 725.652 38.804C726.284 39.012 726.832 39.304 727.296 39.68L726.204 41.204C725.34 40.54 724.48 40.208 723.624 40.208C723.344 40.208 723.1 40.24 722.892 40.304C722.692 40.36 722.536 40.444 722.424 40.556C722.32 40.66 722.268 40.788 722.268 40.94C722.268 41.148 722.344 41.308 722.496 41.42C722.656 41.532 722.912 41.62 723.264 41.684L725.004 41.972C725.812 42.1 726.424 42.368 726.84 42.776C727.264 43.184 727.476 43.712 727.476 44.36C727.476 44.928 727.328 45.42 727.032 45.836C726.736 46.244 726.312 46.56 725.76 46.784C725.208 47.008 724.552 47.12 723.792 47.12ZM730.807 47.12C730.311 47.12 729.871 47.012 729.487 46.796C729.111 46.58 728.815 46.28 728.599 45.896C728.383 45.504 728.275 45.06 728.275 44.564V40.652H730.219V44.3C730.219 44.644 730.323 44.924 730.531 45.14C730.747 45.348 731.027 45.452 731.371 45.452C731.619 45.452 731.839 45.408 732.031 45.32C732.223 45.232 732.383 45.108 732.511 44.948V40.652H734.455V47H732.511V46.568C732.031 46.936 731.463 47.12 730.807 47.12ZM735.659 47V40.652H737.603V41.06C738.051 40.708 738.579 40.532 739.187 40.532C739.587 40.532 739.947 40.608 740.267 40.76C740.587 40.912 740.855 41.128 741.071 41.408C741.327 41.128 741.631 40.912 741.983 40.76C742.335 40.608 742.719 40.532 743.135 40.532C743.615 40.532 744.039 40.64 744.407 40.856C744.775 41.072 745.063 41.372 745.271 41.756C745.487 42.14 745.595 42.584 745.595 43.088V47H743.651V43.352C743.651 43 743.555 42.72 743.363 42.512C743.179 42.304 742.931 42.2 742.619 42.2C742.403 42.2 742.207 42.24 742.031 42.32C741.855 42.4 741.703 42.52 741.575 42.68C741.583 42.744 741.587 42.812 741.587 42.884C741.595 42.948 741.599 43.016 741.599 43.088V47H739.655V43.352C739.655 43 739.559 42.72 739.367 42.512C739.183 42.304 738.935 42.2 738.623 42.2C738.407 42.2 738.211 42.24 738.035 42.32C737.867 42.392 737.723 42.504 737.603 42.656V47H735.659ZM746.745 47V40.652H748.689V41.06C749.137 40.708 749.665 40.532 750.273 40.532C750.673 40.532 751.033 40.608 751.353 40.76C751.673 40.912 751.941 41.128 752.157 41.408C752.413 41.128 752.717 40.912 753.069 40.76C753.421 40.608 753.805 40.532 754.221 40.532C754.701 40.532 755.125 40.64 755.493 40.856C755.861 41.072 756.149 41.372 756.357 41.756C756.573 42.14 756.681 42.584 756.681 43.088V47H754.737V43.352C754.737 43 754.641 42.72 754.449 42.512C754.265 42.304 754.017 42.2 753.705 42.2C753.489 42.2 753.293 42.24 753.117 42.32C752.941 42.4 752.789 42.52 752.661 42.68C752.669 42.744 752.673 42.812 752.673 42.884C752.681 42.948 752.685 43.016 752.685 43.088V47H750.741V43.352C750.741 43 750.645 42.72 750.453 42.512C750.269 42.304 750.021 42.2 749.709 42.2C749.493 42.2 749.297 42.24 749.121 42.32C748.953 42.392 748.809 42.504 748.689 42.656V47H746.745ZM757.83 47V40.652H759.774V47H757.83ZM758.802 40.064C758.506 40.064 758.254 39.96 758.046 39.752C757.838 39.544 757.734 39.292 757.734 38.996C757.734 38.7 757.838 38.448 758.046 38.24C758.254 38.032 758.506 37.928 758.802 37.928C759.098 37.928 759.35 38.032 759.558 38.24C759.766 38.448 759.87 38.7 759.87 38.996C759.87 39.292 759.766 39.544 759.558 39.752C759.35 39.96 759.098 40.064 758.802 40.064ZM764.175 47.084C763.415 47.084 762.839 46.916 762.447 46.58C762.063 46.236 761.871 45.732 761.871 45.068V42.272H760.587V40.652H761.871V39.02L763.815 38.6V40.652H765.591V42.272H763.815V44.684C763.815 44.964 763.875 45.164 763.995 45.284C764.123 45.396 764.343 45.452 764.655 45.452C764.815 45.452 764.959 45.444 765.087 45.428C765.223 45.404 765.371 45.368 765.531 45.32V46.892C765.355 46.948 765.131 46.992 764.859 47.024C764.587 47.064 764.359 47.084 764.175 47.084Z" fill="white"/>
<path d="M730.377 38V33.45H732.704C733.016 33.45 733.293 33.5128 733.536 33.6385C733.779 33.7598 733.967 33.931 734.102 34.152C734.24 34.3687 734.31 34.6178 734.31 34.8995C734.31 35.1855 734.232 35.4412 734.076 35.6665C733.92 35.8918 733.714 36.063 733.458 36.18L734.453 38H733.205L732.347 36.3425H731.495V38H730.377ZM731.495 35.4325H732.6C732.773 35.4325 732.912 35.3848 733.016 35.2895C733.124 35.1942 733.179 35.0707 733.179 34.919C733.179 34.7673 733.124 34.6438 733.016 34.5485C732.912 34.4532 732.773 34.4055 732.6 34.4055H731.495V35.4325ZM736.221 38.065C735.87 38.065 735.552 37.987 735.266 37.831C734.984 37.6707 734.761 37.4562 734.596 37.1875C734.431 36.9188 734.349 36.6177 734.349 36.284C734.349 35.9503 734.427 35.6492 734.583 35.3805C734.743 35.1118 734.96 34.8995 735.233 34.7435C735.506 34.5832 735.809 34.503 736.143 34.503C736.481 34.503 736.78 34.5853 737.04 34.75C737.3 34.9103 737.504 35.1313 737.651 35.413C737.803 35.6947 737.879 36.0175 737.879 36.3815V36.6415H735.428C735.476 36.7498 735.539 36.8452 735.617 36.9275C735.699 37.0098 735.796 37.0748 735.909 37.1225C736.022 37.1658 736.143 37.1875 736.273 37.1875C736.416 37.1875 736.546 37.1658 736.663 37.1225C736.78 37.0748 736.88 37.0098 736.962 36.9275L737.658 37.545C737.441 37.727 737.218 37.8592 736.988 37.9415C736.763 38.0238 736.507 38.065 736.221 38.065ZM735.409 35.907H736.845C736.81 35.7943 736.756 35.699 736.683 35.621C736.613 35.5387 736.531 35.4758 736.436 35.4325C736.34 35.3848 736.236 35.361 736.124 35.361C736.007 35.361 735.9 35.3827 735.805 35.426C735.71 35.4693 735.627 35.5322 735.558 35.6145C735.493 35.6925 735.443 35.79 735.409 35.907ZM739.872 38.0455C739.547 38.0455 739.25 37.9675 738.981 37.8115C738.717 37.6512 738.507 37.4388 738.351 37.1745C738.195 36.9058 738.117 36.6068 738.117 36.2775C738.117 35.9482 738.195 35.6513 738.351 35.387C738.511 35.1183 738.725 34.906 738.994 34.75C739.267 34.594 739.57 34.516 739.904 34.516C740.064 34.516 740.218 34.5355 740.366 34.5745C740.513 34.6135 740.652 34.6698 740.782 34.7435V33.45L741.835 33.2875V38H740.795V37.7465C740.522 37.9458 740.214 38.0455 739.872 38.0455ZM740.054 37.1485C740.201 37.1485 740.335 37.1268 740.457 37.0835C740.578 37.0358 740.686 36.9665 740.782 36.8755V35.673C740.691 35.5863 740.582 35.5213 740.457 35.478C740.331 35.4303 740.197 35.4065 740.054 35.4065C739.885 35.4065 739.731 35.4455 739.592 35.5235C739.458 35.5972 739.349 35.7012 739.267 35.8355C739.189 35.9655 739.15 36.1128 739.15 36.2775C739.15 36.4422 739.189 36.5917 739.267 36.726C739.349 36.856 739.458 36.96 739.592 37.038C739.731 37.1117 739.885 37.1485 740.054 37.1485ZM743.549 38V33.45H744.667V35.1985H746.539V33.45H747.657V38H746.539V36.219H744.667V38H743.549ZM749.264 38.0585C749.022 38.0585 748.805 38.013 748.614 37.922C748.428 37.831 748.281 37.7053 748.172 37.545C748.068 37.3847 748.016 37.2005 748.016 36.9925C748.016 36.6632 748.14 36.4097 748.387 36.232C748.638 36.05 748.987 35.959 749.433 35.959C749.702 35.959 749.962 35.9915 750.213 36.0565V35.8875C750.213 35.7142 750.157 35.5863 750.044 35.504C749.936 35.4173 749.773 35.374 749.557 35.374C749.422 35.374 749.271 35.3957 749.102 35.439C748.937 35.4823 748.742 35.5517 748.517 35.647L748.14 34.8735C748.421 34.7478 748.692 34.6547 748.952 34.594C749.217 34.529 749.481 34.4965 749.745 34.4965C750.222 34.4965 750.592 34.6113 750.857 34.841C751.121 35.0663 751.253 35.3848 751.253 35.7965V38H750.213V37.792C750.075 37.8873 749.927 37.9567 749.771 38C749.62 38.039 749.451 38.0585 749.264 38.0585ZM749.017 36.973C749.017 37.0813 749.065 37.1658 749.16 37.2265C749.256 37.2872 749.388 37.3175 749.557 37.3175C749.682 37.3175 749.799 37.3045 749.908 37.2785C750.02 37.2525 750.122 37.2113 750.213 37.155V36.713C750.114 36.687 750.012 36.6675 749.908 36.6545C749.804 36.6415 749.698 36.635 749.589 36.635C749.407 36.635 749.266 36.6653 749.167 36.726C749.067 36.7823 749.017 36.8647 749.017 36.973ZM753.389 38.0455C752.978 38.0455 752.666 37.9545 752.453 37.7725C752.245 37.5862 752.141 37.3132 752.141 36.9535V35.439H751.446V34.5615H752.141V33.6775L753.194 33.45V34.5615H754.156V35.439H753.194V36.7455C753.194 36.8972 753.227 37.0055 753.292 37.0705C753.361 37.1312 753.48 37.1615 753.649 37.1615C753.736 37.1615 753.814 37.1572 753.883 37.1485C753.957 37.1355 754.037 37.116 754.124 37.09V37.9415C754.029 37.9718 753.907 37.9957 753.76 38.013C753.613 38.0347 753.489 38.0455 753.389 38.0455Z" fill="white"/>
<path d="M796.246 45.5V35.7H797.324V44.548H802.854V45.5H796.246ZM804.54 45.5V38.668H805.562V45.5H804.54ZM805.058 36.974C804.853 36.974 804.675 36.904 804.526 36.764C804.386 36.6147 804.316 36.442 804.316 36.246C804.316 36.05 804.386 35.882 804.526 35.742C804.675 35.5927 804.853 35.518 805.058 35.518C805.263 35.518 805.436 35.5927 805.576 35.742C805.725 35.882 805.8 36.05 805.8 36.246C805.8 36.442 805.725 36.6147 805.576 36.764C805.436 36.904 805.263 36.974 805.058 36.974ZM807.657 45.5V38.668H808.679V39.774C808.941 39.3633 809.253 39.06 809.617 38.864C809.981 38.6587 810.392 38.556 810.849 38.556C811.344 38.556 811.773 38.6633 812.137 38.878C812.511 39.0833 812.8 39.3773 813.005 39.76C813.22 40.1333 813.327 40.572 813.327 41.076V45.5H812.305V41.37C812.305 40.7633 812.137 40.2873 811.801 39.942C811.475 39.5873 811.031 39.41 810.471 39.41C810.098 39.41 809.757 39.4987 809.449 39.676C809.141 39.8533 808.885 40.1147 808.679 40.46V45.5H807.657ZM815.382 45.5V35.392L816.404 35.182V41.734L819.652 38.668H820.884L817.412 41.916L821.038 45.5H819.694L816.404 42.238V45.5H815.382Z" fill="#151515"/>
<path d="M847.246 45.5V35.7H848.324V44.548H853.854V45.5H847.246ZM855.54 45.5V38.668H856.562V45.5H855.54ZM856.058 36.974C855.853 36.974 855.675 36.904 855.526 36.764C855.386 36.6147 855.316 36.442 855.316 36.246C855.316 36.05 855.386 35.882 855.526 35.742C855.675 35.5927 855.853 35.518 856.058 35.518C856.263 35.518 856.436 35.5927 856.576 35.742C856.725 35.882 856.8 36.05 856.8 36.246C856.8 36.442 856.725 36.6147 856.576 36.764C856.436 36.904 856.263 36.974 856.058 36.974ZM858.657 45.5V38.668H859.679V39.774C859.941 39.3633 860.253 39.06 860.617 38.864C860.981 38.6587 861.392 38.556 861.849 38.556C862.344 38.556 862.773 38.6633 863.137 38.878C863.511 39.0833 863.8 39.3773 864.005 39.76C864.22 40.1333 864.327 40.572 864.327 41.076V45.5H863.305V41.37C863.305 40.7633 863.137 40.2873 862.801 39.942C862.475 39.5873 862.031 39.41 861.471 39.41C861.098 39.41 860.757 39.4987 860.449 39.676C860.141 39.8533 859.885 40.1147 859.679 40.46V45.5H858.657ZM866.382 45.5V35.392L867.404 35.182V41.734L870.652 38.668H871.884L868.412 41.916L872.038 45.5H870.694L867.404 42.238V45.5H866.382Z" fill="#151515"/>
<path d="M898.246 45.5V35.7H899.324V44.548H904.854V45.5H898.246ZM906.54 45.5V38.668H907.562V45.5H906.54ZM907.058 36.974C906.853 36.974 906.675 36.904 906.526 36.764C906.386 36.6147 906.316 36.442 906.316 36.246C906.316 36.05 906.386 35.882 906.526 35.742C906.675 35.5927 906.853 35.518 907.058 35.518C907.263 35.518 907.436 35.5927 907.576 35.742C907.725 35.882 907.8 36.05 907.8 36.246C907.8 36.442 907.725 36.6147 907.576 36.764C907.436 36.904 907.263 36.974 907.058 36.974ZM909.657 45.5V38.668H910.679V39.774C910.941 39.3633 911.253 39.06 911.617 38.864C911.981 38.6587 912.392 38.556 912.849 38.556C913.344 38.556 913.773 38.6633 914.137 38.878C914.511 39.0833 914.8 39.3773 915.005 39.76C915.22 40.1333 915.327 40.572 915.327 41.076V45.5H914.305V41.37C914.305 40.7633 914.137 40.2873 913.801 39.942C913.475 39.5873 913.031 39.41 912.471 39.41C912.098 39.41 911.757 39.4987 911.449 39.676C911.141 39.8533 910.885 40.1147 910.679 40.46V45.5H909.657ZM917.382 45.5V35.392L918.404 35.182V41.734L921.652 38.668H922.884L919.412 41.916L923.038 45.5H921.694L918.404 42.238V45.5H917.382Z" fill="#151515"/>
<g clip-path="url(#clip1_4015_3791)">
<path d="M983.398 47.6023L979.12 43.3239C979.981 42.2849 980.5 40.9521 980.5 39.5C980.5 36.1916 977.809 33.5 974.5 33.5C971.191 33.5 968.5 36.1916 968.5 39.5C968.5 42.8083 971.191 45.5 974.5 45.5C975.952 45.5 977.285 44.9811 978.324 44.1195L982.602 48.3977C982.712 48.5076 982.856 48.5625 983 48.5625C983.144 48.5625 983.288 48.5076 983.398 48.3977C983.617 48.1779 983.617 47.822 983.398 47.6023ZM969.5 39.5C969.5 36.7429 971.743 34.5 974.5 34.5C977.257 34.5 979.5 36.7429 979.5 39.5C979.5 42.2571 977.257 44.5 974.5 44.5C971.743 44.5 969.5 42.2571 969.5 39.5Z" fill="#151515"/>
</g>
<path d="M1038 43.5C1037.45 43.5 1037 43.0515 1037 42.5V40.5C1037 38.0577 1035.24 36.0224 1032.92 35.5886C1033.12 35.3663 1033.25 35.0737 1033.25 34.75C1033.25 34.0608 1032.69 33.5 1032 33.5C1031.31 33.5 1030.75 34.0608 1030.75 34.75C1030.75 35.0738 1030.88 35.3663 1031.08 35.5886C1028.76 36.0224 1027 38.0577 1027 40.5V42.5C1027 43.0515 1026.55 43.5 1026 43.5C1025.72 43.5 1025.5 43.7239 1025.5 44V45.75C1025.5 46.1636 1025.84 46.5 1026.25 46.5H1030C1030 47.6028 1030.9 48.5 1032 48.5C1033.1 48.5 1034 47.6028 1034 46.5H1037.75C1038.16 46.5 1038.5 46.1636 1038.5 45.75V44C1038.5 43.7239 1038.28 43.5 1038 43.5ZM1037.5 45.5H1026.5V44.4368C1027.36 44.2141 1028 43.4302 1028 42.5V40.5C1028 38.2944 1029.79 36.5 1032 36.5C1034.21 36.5 1036 38.2944 1036 40.5V42.5C1036 43.4302 1036.64 44.2141 1037.5 44.4368V45.5Z" fill="#151515"/>
<circle cx="1092" cy="41" r="16" fill="#F2F2F2"/>
<mask id="mask1_4015_3791" style="mask-type:alpha" maskUnits="userSpaceOnUse" x="1076" y="25" width="32" height="32">
<circle cx="1092" cy="41" r="16" fill="white"/>
</mask>
<g mask="url(#mask1_4015_3791)">
<path d="M1081 52C1081 47.5817 1084.58 44 1089 44H1095C1099.42 44 1103 47.5817 1103 52V57H1081V52Z" fill="#C7C7C7"/>
<path d="M1096 51C1097.66 51 1099 52.3431 1099 54V57H1096V51Z" fill="#A3A3A3"/>
<path d="M1085 54C1085 52.3431 1086.34 51 1088 51V57H1085V54Z" fill="#A3A3A3"/>
</g>
<circle cx="1092" cy="36" r="6" fill="#C7C7C7"/>
</g>
</g>
<mask id="mask2_4015_3791" style="mask-type:alpha" maskUnits="userSpaceOnUse" x="0" y="120" width="840" height="88">
<rect y="120" width="840" height="88" fill="white"/>
</mask>
<g mask="url(#mask2_4015_3791)">
<g filter="url(#filter1_d_4015_3791)">
<rect width="840" height="82" transform="translate(0 120)" fill="white"/>
<path d="M53.3445 162.832C55.446 162.832 58.4907 162.4 58.4907 159.922C58.4907 159.728 58.4857 159.54 58.4386 159.352L57.1861 153.958C56.8952 152.773 56.6431 152.233 54.5399 151.192C52.9108 150.365 49.3584 149 48.3077 149C47.3292 149 47.04 150.257 45.88 150.257C44.72 150.257 43.9231 149.323 42.8723 149.323C41.8216 149.323 41.2046 150.007 40.6985 151.407C40.6985 151.407 39.2846 155.358 39.1031 155.933C39.0661 156.042 39.0661 156.162 39.0661 156.257C39.0661 157.793 45.1672 162.832 53.3462 162.832M58.8185 160.927C59.1094 162.292 59.1094 162.435 59.1094 162.615C59.1094 164.95 56.4632 166.243 52.9848 166.243C45.1201 166.243 38.2339 161.68 38.2339 158.663C38.2339 158.197 38.3432 157.765 38.4878 157.442C35.66 157.585 32 158.088 32 161.287C32 166.532 44.5401 173 54.4693 173C62.0801 173 64 169.587 64 166.892C64 164.772 62.1524 162.365 58.8169 160.927" fill="#EE0000"/>
<path d="M58.4385 159.351C58.4856 159.54 58.4906 159.728 58.4906 159.921C58.4906 162.4 55.446 162.831 53.3445 162.831C45.1654 162.831 39.0643 157.793 39.0643 156.256C39.0643 156.161 39.0643 156.041 39.1013 155.933L38.4843 157.443C38.3397 157.766 38.2305 158.196 38.2305 158.665C38.2305 161.683 45.1167 166.245 52.9813 166.245C56.4597 166.245 59.106 164.951 59.106 162.616C59.106 162.436 59.106 162.293 58.8151 160.928L58.4368 159.351H58.4385Z" fill="black"/>
<path d="M115.5 161C115.5 161.276 115.276 161.5 115 161.5H101C100.724 161.5 100.5 161.276 100.5 161C100.5 160.724 100.724 160.5 101 160.5H115C115.276 160.5 115.5 160.724 115.5 161ZM115 165.5H101C100.724 165.5 100.5 165.724 100.5 166C100.5 166.276 100.724 166.5 101 166.5H115C115.276 166.5 115.5 166.276 115.5 166C115.5 165.724 115.276 165.5 115 165.5ZM101 156.5H115C115.276 156.5 115.5 156.276 115.5 156C115.5 155.724 115.276 155.5 115 155.5H101C100.724 155.5 100.5 155.724 100.5 156C100.5 156.276 100.724 156.5 101 156.5Z" fill="#151515"/>
<path d="M538.468 177.023C539.047 177.571 539.953 177.571 540.532 177.023L546.267 171.589C547.252 170.656 546.592 169 545.236 169H533.764C532.408 169 531.748 170.656 532.733 171.589L538.468 177.023Z" fill="#EE0000"/>
<rect x="511" y="148" width="57" height="25" rx="2" fill="#EE0000"/>
<path d="M520.792 167.12C520.112 167.12 519.44 166.996 518.776 166.748C518.112 166.5 517.52 166.156 517 165.716L518.152 164.216C518.664 164.632 519.136 164.932 519.568 165.116C520 165.292 520.46 165.38 520.948 165.38C521.268 165.38 521.54 165.348 521.764 165.284C521.988 165.22 522.16 165.128 522.28 165.008C522.4 164.88 522.46 164.732 522.46 164.564C522.46 164.332 522.372 164.152 522.196 164.024C522.02 163.896 521.72 163.796 521.296 163.724L519.448 163.4C518.768 163.28 518.244 163.02 517.876 162.62C517.508 162.22 517.324 161.712 517.324 161.096C517.324 160.552 517.46 160.084 517.732 159.692C518.012 159.3 518.408 159 518.92 158.792C519.44 158.584 520.056 158.48 520.768 158.48C521.392 158.48 522.02 158.588 522.652 158.804C523.284 159.012 523.832 159.304 524.296 159.68L523.204 161.204C522.34 160.54 521.48 160.208 520.624 160.208C520.344 160.208 520.1 160.24 519.892 160.304C519.692 160.36 519.536 160.444 519.424 160.556C519.32 160.66 519.268 160.788 519.268 160.94C519.268 161.148 519.344 161.308 519.496 161.42C519.656 161.532 519.912 161.62 520.264 161.684L522.004 161.972C522.812 162.1 523.424 162.368 523.84 162.776C524.264 163.184 524.476 163.712 524.476 164.36C524.476 164.928 524.328 165.42 524.032 165.836C523.736 166.244 523.312 166.56 522.76 166.784C522.208 167.008 521.552 167.12 520.792 167.12ZM527.807 167.12C527.311 167.12 526.871 167.012 526.487 166.796C526.111 166.58 525.815 166.28 525.599 165.896C525.383 165.504 525.275 165.06 525.275 164.564V160.652H527.219V164.3C527.219 164.644 527.323 164.924 527.531 165.14C527.747 165.348 528.027 165.452 528.371 165.452C528.619 165.452 528.839 165.408 529.031 165.32C529.223 165.232 529.383 165.108 529.511 164.948V160.652H531.455V167H529.511V166.568C529.031 166.936 528.463 167.12 527.807 167.12ZM532.659 167V160.652H534.603V161.06C535.051 160.708 535.579 160.532 536.187 160.532C536.587 160.532 536.947 160.608 537.267 160.76C537.587 160.912 537.855 161.128 538.071 161.408C538.327 161.128 538.631 160.912 538.983 160.76C539.335 160.608 539.719 160.532 540.135 160.532C540.615 160.532 541.039 160.64 541.407 160.856C541.775 161.072 542.063 161.372 542.271 161.756C542.487 162.14 542.595 162.584 542.595 163.088V167H540.651V163.352C540.651 163 540.555 162.72 540.363 162.512C540.179 162.304 539.931 162.2 539.619 162.2C539.403 162.2 539.207 162.24 539.031 162.32C538.855 162.4 538.703 162.52 538.575 162.68C538.583 162.744 538.587 162.812 538.587 162.884C538.595 162.948 538.599 163.016 538.599 163.088V167H536.655V163.352C536.655 163 536.559 162.72 536.367 162.512C536.183 162.304 535.935 162.2 535.623 162.2C535.407 162.2 535.211 162.24 535.035 162.32C534.867 162.392 534.723 162.504 534.603 162.656V167H532.659ZM543.745 167V160.652H545.689V161.06C546.137 160.708 546.665 160.532 547.273 160.532C547.673 160.532 548.033 160.608 548.353 160.76C548.673 160.912 548.941 161.128 549.157 161.408C549.413 161.128 549.717 160.912 550.069 160.76C550.421 160.608 550.805 160.532 551.221 160.532C551.701 160.532 552.125 160.64 552.493 160.856C552.861 161.072 553.149 161.372 553.357 161.756C553.573 162.14 553.681 162.584 553.681 163.088V167H551.737V163.352C551.737 163 551.641 162.72 551.449 162.512C551.265 162.304 551.017 162.2 550.705 162.2C550.489 162.2 550.293 162.24 550.117 162.32C549.941 162.4 549.789 162.52 549.661 162.68C549.669 162.744 549.673 162.812 549.673 162.884C549.681 162.948 549.685 163.016 549.685 163.088V167H547.741V163.352C547.741 163 547.645 162.72 547.453 162.512C547.269 162.304 547.021 162.2 546.709 162.2C546.493 162.2 546.297 162.24 546.121 162.32C545.953 162.392 545.809 162.504 545.689 162.656V167H543.745ZM554.83 167V160.652H556.774V167H554.83ZM555.802 160.064C555.506 160.064 555.254 159.96 555.046 159.752C554.838 159.544 554.734 159.292 554.734 158.996C554.734 158.7 554.838 158.448 555.046 158.24C555.254 158.032 555.506 157.928 555.802 157.928C556.098 157.928 556.35 158.032 556.558 158.24C556.766 158.448 556.87 158.7 556.87 158.996C556.87 159.292 556.766 159.544 556.558 159.752C556.35 159.96 556.098 160.064 555.802 160.064ZM561.175 167.084C560.415 167.084 559.839 166.916 559.447 166.58C559.063 166.236 558.871 165.732 558.871 165.068V162.272H557.587V160.652H558.871V159.02L560.815 158.6V160.652H562.591V162.272H560.815V164.684C560.815 164.964 560.875 165.164 560.995 165.284C561.123 165.396 561.343 165.452 561.655 165.452C561.815 165.452 561.959 165.444 562.087 165.428C562.223 165.404 562.371 165.368 562.531 165.32V166.892C562.355 166.948 562.131 166.992 561.859 167.024C561.587 167.064 561.359 167.084 561.175 167.084Z" fill="white"/>
<path d="M527.377 158V153.45H529.704C530.016 153.45 530.293 153.513 530.536 153.638C530.779 153.76 530.967 153.931 531.102 154.152C531.24 154.369 531.31 154.618 531.31 154.899C531.31 155.185 531.232 155.441 531.076 155.666C530.92 155.892 530.714 156.063 530.458 156.18L531.453 158H530.205L529.347 156.342H528.495V158H527.377ZM528.495 155.432H529.6C529.773 155.432 529.912 155.385 530.016 155.289C530.124 155.194 530.179 155.071 530.179 154.919C530.179 154.767 530.124 154.644 530.016 154.548C529.912 154.453 529.773 154.405 529.6 154.405H528.495V155.432ZM533.221 158.065C532.87 158.065 532.552 157.987 532.266 157.831C531.984 157.671 531.761 157.456 531.596 157.188C531.431 156.919 531.349 156.618 531.349 156.284C531.349 155.95 531.427 155.649 531.583 155.38C531.743 155.112 531.96 154.899 532.233 154.743C532.506 154.583 532.809 154.503 533.143 154.503C533.481 154.503 533.78 154.585 534.04 154.75C534.3 154.91 534.504 155.131 534.651 155.413C534.803 155.695 534.879 156.017 534.879 156.381V156.641H532.428C532.476 156.75 532.539 156.845 532.617 156.927C532.699 157.01 532.796 157.075 532.909 157.122C533.022 157.166 533.143 157.188 533.273 157.188C533.416 157.188 533.546 157.166 533.663 157.122C533.78 157.075 533.88 157.01 533.962 156.927L534.658 157.545C534.441 157.727 534.218 157.859 533.988 157.941C533.763 158.024 533.507 158.065 533.221 158.065ZM532.409 155.907H533.845C533.81 155.794 533.756 155.699 533.683 155.621C533.613 155.539 533.531 155.476 533.436 155.432C533.34 155.385 533.236 155.361 533.124 155.361C533.007 155.361 532.9 155.383 532.805 155.426C532.71 155.469 532.627 155.532 532.558 155.614C532.493 155.692 532.443 155.79 532.409 155.907ZM536.872 158.046C536.547 158.046 536.25 157.967 535.981 157.811C535.717 157.651 535.507 157.439 535.351 157.174C535.195 156.906 535.117 156.607 535.117 156.277C535.117 155.948 535.195 155.651 535.351 155.387C535.511 155.118 535.725 154.906 535.994 154.75C536.267 154.594 536.57 154.516 536.904 154.516C537.064 154.516 537.218 154.535 537.366 154.574C537.513 154.613 537.652 154.67 537.782 154.743V153.45L538.835 153.287V158H537.795V157.746C537.522 157.946 537.214 158.046 536.872 158.046ZM537.054 157.148C537.201 157.148 537.335 157.127 537.457 157.083C537.578 157.036 537.686 156.966 537.782 156.875V155.673C537.691 155.586 537.582 155.521 537.457 155.478C537.331 155.43 537.197 155.406 537.054 155.406C536.885 155.406 536.731 155.445 536.592 155.523C536.458 155.597 536.349 155.701 536.267 155.835C536.189 155.965 536.15 156.113 536.15 156.277C536.15 156.442 536.189 156.592 536.267 156.726C536.349 156.856 536.458 156.96 536.592 157.038C536.731 157.112 536.885 157.148 537.054 157.148ZM540.549 158V153.45H541.667V155.198H543.539V153.45H544.657V158H543.539V156.219H541.667V158H540.549ZM546.264 158.059C546.022 158.059 545.805 158.013 545.614 157.922C545.428 157.831 545.281 157.705 545.172 157.545C545.068 157.385 545.016 157.2 545.016 156.992C545.016 156.663 545.14 156.41 545.387 156.232C545.638 156.05 545.987 155.959 546.433 155.959C546.702 155.959 546.962 155.991 547.213 156.056V155.887C547.213 155.714 547.157 155.586 547.044 155.504C546.936 155.417 546.773 155.374 546.557 155.374C546.422 155.374 546.271 155.396 546.102 155.439C545.937 155.482 545.742 155.552 545.517 155.647L545.14 154.873C545.421 154.748 545.692 154.655 545.952 154.594C546.217 154.529 546.481 154.496 546.745 154.496C547.222 154.496 547.592 154.611 547.857 154.841C548.121 155.066 548.253 155.385 548.253 155.796V158H547.213V157.792C547.075 157.887 546.927 157.957 546.771 158C546.62 158.039 546.451 158.059 546.264 158.059ZM546.017 156.973C546.017 157.081 546.065 157.166 546.16 157.226C546.256 157.287 546.388 157.317 546.557 157.317C546.682 157.317 546.799 157.304 546.908 157.278C547.02 157.252 547.122 157.211 547.213 157.155V156.713C547.114 156.687 547.012 156.667 546.908 156.654C546.804 156.641 546.698 156.635 546.589 156.635C546.407 156.635 546.266 156.665 546.167 156.726C546.067 156.782 546.017 156.865 546.017 156.973ZM550.389 158.046C549.978 158.046 549.666 157.955 549.453 157.772C549.245 157.586 549.141 157.313 549.141 156.953V155.439H548.446V154.561H549.141V153.677L550.194 153.45V154.561H551.156V155.439H550.194V156.745C550.194 156.897 550.227 157.005 550.292 157.07C550.361 157.131 550.48 157.161 550.649 157.161C550.736 157.161 550.814 157.157 550.883 157.148C550.957 157.135 551.037 157.116 551.124 157.09V157.941C551.029 157.972 550.907 157.996 550.76 158.013C550.613 158.035 550.489 158.046 550.389 158.046Z" fill="white"/>
<g clip-path="url(#clip2_4015_3791)">
<path d="M614.375 154.5C614.375 154.984 613.983 155.375 613.5 155.375C613.017 155.375 612.625 154.984 612.625 154.5C612.625 154.017 613.017 153.625 613.5 153.625C613.983 153.625 614.375 154.017 614.375 154.5ZM613.5 160.125C613.017 160.125 612.625 160.516 612.625 161C612.625 161.483 613.017 161.875 613.5 161.875C613.983 161.875 614.375 161.483 614.375 161C614.375 160.516 613.983 160.125 613.5 160.125ZM613.5 166.624C613.017 166.624 612.625 167.016 612.625 167.499C612.625 167.983 613.017 168.374 613.5 168.374C613.983 168.374 614.375 167.983 614.375 167.499C614.375 167.016 613.983 166.624 613.5 166.624ZM620 153.625C619.517 153.625 619.125 154.017 619.125 154.5C619.125 154.984 619.517 155.375 620 155.375C620.483 155.375 620.875 154.984 620.875 154.5C620.875 154.017 620.483 153.625 620 153.625ZM620 160.125C619.517 160.125 619.125 160.516 619.125 161C619.125 161.483 619.517 161.875 620 161.875C620.483 161.875 620.875 161.483 620.875 161C620.875 160.516 620.483 160.125 620 160.125ZM620 166.624C619.517 166.624 619.125 167.016 619.125 167.499C619.125 167.983 619.517 168.374 620 168.374C620.483 168.374 620.875 167.983 620.875 167.499C620.875 167.016 620.483 166.624 620 166.624ZM626.5 155.375C626.983 155.375 627.375 154.984 627.375 154.5C627.375 154.017 626.983 153.625 626.5 153.625C626.017 153.625 625.625 154.017 625.625 154.5C625.625 154.984 626.017 155.375 626.5 155.375ZM626.5 160.125C626.017 160.125 625.625 160.516 625.625 161C625.625 161.483 626.017 161.875 626.5 161.875C626.983 161.875 627.375 161.483 627.375 161C627.375 160.516 626.983 160.125 626.5 160.125ZM626.5 166.624C626.017 166.624 625.625 167.016 625.625 167.499C625.625 167.983 626.017 168.374 626.5 168.374C626.983 168.374 627.375 167.983 627.375 167.499C627.375 167.016 626.983 166.624 626.5 166.624Z" fill="#151515"/>
</g>
<g clip-path="url(#clip3_4015_3791)">
<path d="M683.398 167.602L679.12 163.324C679.981 162.285 680.5 160.952 680.5 159.5C680.5 156.192 677.809 153.5 674.5 153.5C671.191 153.5 668.5 156.192 668.5 159.5C668.5 162.808 671.191 165.5 674.5 165.5C675.952 165.5 677.285 164.981 678.324 164.12L682.602 168.398C682.712 168.508 682.856 168.562 683 168.562C683.144 168.562 683.288 168.508 683.398 168.398C683.617 168.178 683.617 167.822 683.398 167.602ZM669.5 159.5C669.5 156.743 671.743 154.5 674.5 154.5C677.257 154.5 679.5 156.743 679.5 159.5C679.5 162.257 677.257 164.5 674.5 164.5C671.743 164.5 669.5 162.257 669.5 159.5Z" fill="#151515"/>
</g>
<path d="M738 163.5C737.449 163.5 737 163.052 737 162.5V160.5C737 158.058 735.239 156.022 732.921 155.589C733.123 155.366 733.25 155.074 733.25 154.75C733.25 154.061 732.689 153.5 732 153.5C731.311 153.5 730.75 154.061 730.75 154.75C730.75 155.074 730.877 155.366 731.079 155.589C728.761 156.022 727 158.058 727 160.5V162.5C727 163.052 726.551 163.5 726 163.5C725.724 163.5 725.5 163.724 725.5 164V165.75C725.5 166.164 725.836 166.5 726.25 166.5H730C730 167.603 730.897 168.5 732 168.5C733.103 168.5 734 167.603 734 166.5H737.75C738.164 166.5 738.5 166.164 738.5 165.75V164C738.5 163.724 738.276 163.5 738 163.5ZM737.5 165.5H726.5V164.437C727.362 164.214 728 163.43 728 162.5V160.5C728 158.294 729.794 156.5 732 156.5C734.206 156.5 736 158.294 736 160.5V162.5C736 163.43 736.638 164.214 737.5 164.437V165.5Z" fill="#151515"/>
<circle cx="792" cy="161" r="16" fill="#F2F2F2"/>
<mask id="mask3_4015_3791" style="mask-type:alpha" maskUnits="userSpaceOnUse" x="776" y="145" width="32" height="32">
<circle cx="792" cy="161" r="16" fill="white"/>
</mask>
<g mask="url(#mask3_4015_3791)">
<path d="M781 172C781 167.582 784.582 164 789 164H795C799.418 164 803 167.582 803 172V177H781V172Z" fill="#C7C7C7"/>
<path d="M796 171C797.657 171 799 172.343 799 174V177H796V171Z" fill="#A3A3A3"/>
<path d="M785 174C785 172.343 786.343 171 788 171V177H785V174Z" fill="#A3A3A3"/>
</g>
<circle cx="792" cy="156" r="6" fill="#C7C7C7"/>
</g>
</g>
<mask id="mask4_4015_3791" style="mask-type:alpha" maskUnits="userSpaceOnUse" x="0" y="240" width="576" height="72">
<rect y="240" width="576" height="72" fill="white"/>
</mask>
<g mask="url(#mask4_4015_3791)">
<g filter="url(#filter2_d_4015_3791)">
<rect width="576" height="66" transform="translate(0 240)" fill="white"/>
<path d="M37.3445 274.832C39.446 274.832 42.4907 274.4 42.4907 271.922C42.4907 271.728 42.4857 271.54 42.4386 271.352L41.1861 265.958C40.8952 264.773 40.6431 264.233 38.5399 263.192C36.9108 262.365 33.3584 261 32.3077 261C31.3292 261 31.04 262.257 29.88 262.257C28.72 262.257 27.9231 261.323 26.8723 261.323C25.8216 261.323 25.2046 262.007 24.6985 263.407C24.6985 263.407 23.2846 267.358 23.1031 267.933C23.0661 268.042 23.0661 268.162 23.0661 268.257C23.0661 269.793 29.1672 274.832 37.3462 274.832M42.8185 272.927C43.1094 274.292 43.1094 274.435 43.1094 274.615C43.1094 276.95 40.4632 278.243 36.9848 278.243C29.1201 278.243 22.2339 273.68 22.2339 270.663C22.2339 270.197 22.3432 269.765 22.4878 269.442C19.66 269.585 16 270.088 16 273.287C16 278.532 28.5401 285 38.4693 285C46.0801 285 48 281.587 48 278.892C48 276.772 46.1524 274.365 42.8169 272.927" fill="#EE0000"/>
<path d="M42.4385 271.351C42.4856 271.54 42.4906 271.728 42.4906 271.921C42.4906 274.4 39.446 274.831 37.3445 274.831C29.1654 274.831 23.0643 269.793 23.0643 268.256C23.0643 268.161 23.0643 268.041 23.1013 267.933L22.4843 269.443C22.3397 269.766 22.2305 270.196 22.2305 270.665C22.2305 273.683 29.1167 278.245 36.9813 278.245C40.4597 278.245 43.106 276.951 43.106 274.616C43.106 274.436 43.106 274.293 42.8151 272.928L42.4368 271.351H42.4385Z" fill="black"/>
<path d="M99.5 273C99.5 273.276 99.2764 273.5 99 273.5H85C84.7237 273.5 84.5 273.276 84.5 273C84.5 272.724 84.7237 272.5 85 272.5H99C99.2764 272.5 99.5 272.724 99.5 273ZM99 277.5H85C84.7237 277.5 84.5 277.724 84.5 278C84.5 278.276 84.7237 278.5 85 278.5H99C99.2764 278.5 99.5 278.276 99.5 278C99.5 277.724 99.2764 277.5 99 277.5ZM85 268.5H99C99.2764 268.5 99.5 268.276 99.5 268C99.5 267.724 99.2764 267.5 99 267.5H85C84.7237 267.5 84.5 267.724 84.5 268C84.5 268.276 84.7237 268.5 85 268.5Z" fill="#151515"/>
<g clip-path="url(#clip4_4015_3791)">
<path d="M358.375 266.5C358.375 266.984 357.983 267.375 357.5 267.375C357.017 267.375 356.625 266.984 356.625 266.5C356.625 266.017 357.017 265.625 357.5 265.625C357.983 265.625 358.375 266.017 358.375 266.5ZM357.5 272.125C357.017 272.125 356.625 272.516 356.625 273C356.625 273.483 357.017 273.875 357.5 273.875C357.983 273.875 358.375 273.483 358.375 273C358.375 272.516 357.983 272.125 357.5 272.125ZM357.5 278.624C357.017 278.624 356.625 279.016 356.625 279.499C356.625 279.983 357.017 280.374 357.5 280.374C357.983 280.374 358.375 279.983 358.375 279.499C358.375 279.016 357.983 278.624 357.5 278.624ZM364 265.625C363.517 265.625 363.125 266.017 363.125 266.5C363.125 266.984 363.517 267.375 364 267.375C364.483 267.375 364.875 266.984 364.875 266.5C364.875 266.017 364.483 265.625 364 265.625ZM364 272.125C363.517 272.125 363.125 272.516 363.125 273C363.125 273.483 363.517 273.875 364 273.875C364.483 273.875 364.875 273.483 364.875 273C364.875 272.516 364.483 272.125 364 272.125ZM364 278.624C363.517 278.624 363.125 279.016 363.125 279.499C363.125 279.983 363.517 280.374 364 280.374C364.483 280.374 364.875 279.983 364.875 279.499C364.875 279.016 364.483 278.624 364 278.624ZM370.5 267.375C370.983 267.375 371.375 266.984 371.375 266.5C371.375 266.017 370.983 265.625 370.5 265.625C370.017 265.625 369.625 266.017 369.625 266.5C369.625 266.984 370.017 267.375 370.5 267.375ZM370.5 272.125C370.017 272.125 369.625 272.516 369.625 273C369.625 273.483 370.017 273.875 370.5 273.875C370.983 273.875 371.375 273.483 371.375 273C371.375 272.516 370.983 272.125 370.5 272.125ZM370.5 278.624C370.017 278.624 369.625 279.016 369.625 279.499C369.625 279.983 370.017 280.374 370.5 280.374C370.983 280.374 371.375 279.983 371.375 279.499C371.375 279.016 370.983 278.624 370.5 278.624Z" fill="#151515"/>
</g>
<g clip-path="url(#clip5_4015_3791)">
<path d="M427.398 279.602L423.12 275.324C423.981 274.285 424.5 272.952 424.5 271.5C424.5 268.192 421.809 265.5 418.5 265.5C415.191 265.5 412.5 268.192 412.5 271.5C412.5 274.808 415.191 277.5 418.5 277.5C419.952 277.5 421.285 276.981 422.324 276.12L426.602 280.398C426.712 280.508 426.856 280.562 427 280.562C427.144 280.562 427.288 280.508 427.398 280.398C427.617 280.178 427.617 279.822 427.398 279.602ZM413.5 271.5C413.5 268.743 415.743 266.5 418.5 266.5C421.257 266.5 423.5 268.743 423.5 271.5C423.5 274.257 421.257 276.5 418.5 276.5C415.743 276.5 413.5 274.257 413.5 271.5Z" fill="#151515"/>
</g>
<path d="M482 275.5C481.449 275.5 481 275.052 481 274.5V272.5C481 270.058 479.239 268.022 476.921 267.589C477.123 267.366 477.25 267.074 477.25 266.75C477.25 266.061 476.689 265.5 476 265.5C475.311 265.5 474.75 266.061 474.75 266.75C474.75 267.074 474.877 267.366 475.079 267.589C472.761 268.022 471 270.058 471 272.5V274.5C471 275.052 470.551 275.5 470 275.5C469.724 275.5 469.5 275.724 469.5 276V277.75C469.5 278.164 469.836 278.5 470.25 278.5H474C474 279.603 474.897 280.5 476 280.5C477.103 280.5 478 279.603 478 278.5H481.75C482.164 278.5 482.5 278.164 482.5 277.75V276C482.5 275.724 482.276 275.5 482 275.5ZM481.5 277.5H470.5V276.437C471.362 276.214 472 275.43 472 274.5V272.5C472 270.294 473.794 268.5 476 268.5C478.206 268.5 480 270.294 480 272.5V274.5C480 275.43 480.638 276.214 481.5 276.437V277.5Z" fill="#151515"/>
<circle cx="532" cy="273" r="12" fill="#F2F2F2"/>
<mask id="mask5_4015_3791" style="mask-type:alpha" maskUnits="userSpaceOnUse" x="520" y="261" width="24" height="24">
<circle cx="532" cy="273" r="12" fill="white"/>
</mask>
<g mask="url(#mask5_4015_3791)">
<path d="M524 282C524 278.686 526.686 276 530 276H534C537.314 276 540 278.686 540 282V285H524V282Z" fill="#C7C7C7"/>
<path d="M535 281C536.105 281 537 281.895 537 283V285H535V281Z" fill="#A3A3A3"/>
<path d="M527 283C527 281.895 527.895 281 529 281V285H527V283Z" fill="#A3A3A3"/>
</g>
<circle cx="532" cy="270" r="4" fill="#C7C7C7"/>
</g>
</g>
<mask id="mask6_4015_3791" style="mask-type:alpha" maskUnits="userSpaceOnUse" x="0" y="344" width="360" height="72">
<rect y="344" width="360" height="72" fill="white"/>
</mask>
<g mask="url(#mask6_4015_3791)">
<g filter="url(#filter3_d_4015_3791)">
<rect width="360" height="66" transform="translate(0 344)" fill="white"/>
<path d="M37.3445 378.832C39.446 378.832 42.4907 378.4 42.4907 375.922C42.4907 375.728 42.4857 375.54 42.4386 375.352L41.1861 369.958C40.8952 368.773 40.6431 368.233 38.5399 367.192C36.9108 366.365 33.3584 365 32.3077 365C31.3292 365 31.04 366.257 29.88 366.257C28.72 366.257 27.9231 365.323 26.8723 365.323C25.8216 365.323 25.2046 366.007 24.6985 367.407C24.6985 367.407 23.2846 371.358 23.1031 371.933C23.0661 372.042 23.0661 372.162 23.0661 372.257C23.0661 373.793 29.1672 378.832 37.3462 378.832M42.8185 376.927C43.1094 378.292 43.1094 378.435 43.1094 378.615C43.1094 380.95 40.4632 382.243 36.9848 382.243C29.1201 382.243 22.2339 377.68 22.2339 374.663C22.2339 374.197 22.3432 373.765 22.4878 373.442C19.66 373.585 16 374.088 16 377.287C16 382.532 28.5401 389 38.4693 389C46.0801 389 48 385.587 48 382.892C48 380.772 46.1524 378.365 42.8169 376.927" fill="#EE0000"/>
<path d="M42.4385 375.351C42.4856 375.54 42.4906 375.728 42.4906 375.921C42.4906 378.4 39.446 378.831 37.3445 378.831C29.1654 378.831 23.0643 373.793 23.0643 372.256C23.0643 372.161 23.0643 372.041 23.1013 371.933L22.4843 373.443C22.3397 373.766 22.2305 374.196 22.2305 374.665C22.2305 377.683 29.1167 382.245 36.9813 382.245C40.4597 382.245 43.106 380.951 43.106 378.616C43.106 378.436 43.106 378.293 42.8151 376.928L42.4368 375.351H42.4385Z" fill="black"/>
<path d="M179.5 377C179.5 377.276 179.276 377.5 179 377.5H165C164.724 377.5 164.5 377.276 164.5 377C164.5 376.724 164.724 376.5 165 376.5H179C179.276 376.5 179.5 376.724 179.5 377ZM179 381.5H165C164.724 381.5 164.5 381.724 164.5 382C164.5 382.276 164.724 382.5 165 382.5H179C179.276 382.5 179.5 382.276 179.5 382C179.5 381.724 179.276 381.5 179 381.5ZM165 372.5H179C179.276 372.5 179.5 372.276 179.5 372C179.5 371.724 179.276 371.5 179 371.5H165C164.724 371.5 164.5 371.724 164.5 372C164.5 372.276 164.724 372.5 165 372.5Z" fill="#151515"/>
<g clip-path="url(#clip6_4015_3791)">
<path d="M206.375 370.5C206.375 370.984 205.983 371.375 205.5 371.375C205.017 371.375 204.625 370.984 204.625 370.5C204.625 370.017 205.017 369.625 205.5 369.625C205.983 369.625 206.375 370.017 206.375 370.5ZM205.5 376.125C205.017 376.125 204.625 376.516 204.625 377C204.625 377.483 205.017 377.875 205.5 377.875C205.983 377.875 206.375 377.483 206.375 377C206.375 376.516 205.983 376.125 205.5 376.125ZM205.5 382.624C205.017 382.624 204.625 383.016 204.625 383.499C204.625 383.983 205.017 384.374 205.5 384.374C205.983 384.374 206.375 383.983 206.375 383.499C206.375 383.016 205.983 382.624 205.5 382.624ZM212 369.625C211.517 369.625 211.125 370.017 211.125 370.5C211.125 370.984 211.517 371.375 212 371.375C212.483 371.375 212.875 370.984 212.875 370.5C212.875 370.017 212.483 369.625 212 369.625ZM212 376.125C211.517 376.125 211.125 376.516 211.125 377C211.125 377.483 211.517 377.875 212 377.875C212.483 377.875 212.875 377.483 212.875 377C212.875 376.516 212.483 376.125 212 376.125ZM212 382.624C211.517 382.624 211.125 383.016 211.125 383.499C211.125 383.983 211.517 384.374 212 384.374C212.483 384.374 212.875 383.983 212.875 383.499C212.875 383.016 212.483 382.624 212 382.624ZM218.5 371.375C218.983 371.375 219.375 370.984 219.375 370.5C219.375 370.017 218.983 369.625 218.5 369.625C218.017 369.625 217.625 370.017 217.625 370.5C217.625 370.984 218.017 371.375 218.5 371.375ZM218.5 376.125C218.017 376.125 217.625 376.516 217.625 377C217.625 377.483 218.017 377.875 218.5 377.875C218.983 377.875 219.375 377.483 219.375 377C219.375 376.516 218.983 376.125 218.5 376.125ZM218.5 382.624C218.017 382.624 217.625 383.016 217.625 383.499C217.625 383.983 218.017 384.374 218.5 384.374C218.983 384.374 219.375 383.983 219.375 383.499C219.375 383.016 218.983 382.624 218.5 382.624Z" fill="#151515"/>
</g>
<g clip-path="url(#clip7_4015_3791)">
<path d="M259.398 383.602L255.12 379.324C255.981 378.285 256.5 376.952 256.5 375.5C256.5 372.192 253.809 369.5 250.5 369.5C247.191 369.5 244.5 372.192 244.5 375.5C244.5 378.808 247.191 381.5 250.5 381.5C251.952 381.5 253.285 380.981 254.324 380.12L258.602 384.398C258.712 384.508 258.856 384.562 259 384.562C259.144 384.562 259.288 384.508 259.398 384.398C259.617 384.178 259.617 383.822 259.398 383.602ZM245.5 375.5C245.5 372.743 247.743 370.5 250.5 370.5C253.257 370.5 255.5 372.743 255.5 375.5C255.5 378.257 253.257 380.5 250.5 380.5C247.743 380.5 245.5 378.257 245.5 375.5Z" fill="#151515"/>
</g>
<path d="M298 379.5C297.449 379.5 297 379.052 297 378.5V376.5C297 374.058 295.239 372.022 292.921 371.589C293.123 371.366 293.25 371.074 293.25 370.75C293.25 370.061 292.689 369.5 292 369.5C291.311 369.5 290.75 370.061 290.75 370.75C290.75 371.074 290.877 371.366 291.079 371.589C288.761 372.022 287 374.058 287 376.5V378.5C287 379.052 286.551 379.5 286 379.5C285.724 379.5 285.5 379.724 285.5 380V381.75C285.5 382.164 285.836 382.5 286.25 382.5H290C290 383.603 290.897 384.5 292 384.5C293.103 384.5 294 383.603 294 382.5H297.75C298.164 382.5 298.5 382.164 298.5 381.75V380C298.5 379.724 298.276 379.5 298 379.5ZM297.5 381.5H286.5V380.437C287.362 380.214 288 379.43 288 378.5V376.5C288 374.294 289.794 372.5 292 372.5C294.206 372.5 296 374.294 296 376.5V378.5C296 379.43 296.638 380.214 297.5 380.437V381.5Z" fill="#151515"/>
<circle cx="332" cy="377" r="12" fill="#F2F2F2"/>
<mask id="mask7_4015_3791" style="mask-type:alpha" maskUnits="userSpaceOnUse" x="320" y="365" width="24" height="24">
<circle cx="332" cy="377" r="12" fill="white"/>
</mask>
<g mask="url(#mask7_4015_3791)">
<path d="M324 386C324 382.686 326.686 380 330 380H334C337.314 380 340 382.686 340 386V389H324V386Z" fill="#C7C7C7"/>
<path d="M335 385C336.105 385 337 385.895 337 387V389H335V385Z" fill="#A3A3A3"/>
<path d="M327 387C327 385.895 327.895 385 329 385V389H327V387Z" fill="#A3A3A3"/>
</g>
<circle cx="332" cy="374" r="4" fill="#C7C7C7"/>
</g>
</g>
<defs>
<filter id="filter0_d_4015_3791" x="-4" y="-2" width="1148" height="90" filterUnits="userSpaceOnUse" color-interpolation-filters="sRGB">
<feFlood flood-opacity="0" result="BackgroundImageFix"/>
<feColorMatrix in="SourceAlpha" type="matrix" values="0 0 0 0 0 0 0 0 0 0 0 0 0 0 0 0 0 0 127 0" result="hardAlpha"/>
<feOffset dy="2"/>
<feGaussianBlur stdDeviation="2"/>
<feComposite in2="hardAlpha" operator="out"/>
<feColorMatrix type="matrix" values="0 0 0 0 0.0823529 0 0 0 0 0.0823529 0 0 0 0 0.0823529 0 0 0 0.2 0"/>
<feBlend mode="normal" in2="BackgroundImageFix" result="effect1_dropShadow_4015_3791"/>
<feBlend mode="normal" in="SourceGraphic" in2="effect1_dropShadow_4015_3791" result="shape"/>
</filter>
<filter id="filter1_d_4015_3791" x="-4" y="118" width="848" height="90" filterUnits="userSpaceOnUse" color-interpolation-filters="sRGB">
<feFlood flood-opacity="0" result="BackgroundImageFix"/>
<feColorMatrix in="SourceAlpha" type="matrix" values="0 0 0 0 0 0 0 0 0 0 0 0 0 0 0 0 0 0 127 0" result="hardAlpha"/>
<feOffset dy="2"/>
<feGaussianBlur stdDeviation="2"/>
<feComposite in2="hardAlpha" operator="out"/>
<feColorMatrix type="matrix" values="0 0 0 0 0.0823529 0 0 0 0 0.0823529 0 0 0 0 0.0823529 0 0 0 0.2 0"/>
<feBlend mode="normal" in2="BackgroundImageFix" result="effect1_dropShadow_4015_3791"/>
<feBlend mode="normal" in="SourceGraphic" in2="effect1_dropShadow_4015_3791" result="shape"/>
</filter>
<filter id="filter2_d_4015_3791" x="-4" y="238" width="584" height="74" filterUnits="userSpaceOnUse" color-interpolation-filters="sRGB">
<feFlood flood-opacity="0" result="BackgroundImageFix"/>
<feColorMatrix in="SourceAlpha" type="matrix" values="0 0 0 0 0 0 0 0 0 0 0 0 0 0 0 0 0 0 127 0" result="hardAlpha"/>
<feOffset dy="2"/>
<feGaussianBlur stdDeviation="2"/>
<feComposite in2="hardAlpha" operator="out"/>
<feColorMatrix type="matrix" values="0 0 0 0 0.0823529 0 0 0 0 0.0823529 0 0 0 0 0.0823529 0 0 0 0.2 0"/>
<feBlend mode="normal" in2="BackgroundImageFix" result="effect1_dropShadow_4015_3791"/>
<feBlend mode="normal" in="SourceGraphic" in2="effect1_dropShadow_4015_3791" result="shape"/>
</filter>
<filter id="filter3_d_4015_3791" x="-4" y="342" width="368" height="74" filterUnits="userSpaceOnUse" color-interpolation-filters="sRGB">
<feFlood flood-opacity="0" result="BackgroundImageFix"/>
<feColorMatrix in="SourceAlpha" type="matrix" values="0 0 0 0 0 0 0 0 0 0 0 0 0 0 0 0 0 0 127 0" result="hardAlpha"/>
<feOffset dy="2"/>
<feGaussianBlur stdDeviation="2"/>
<feComposite in2="hardAlpha" operator="out"/>
<feColorMatrix type="matrix" values="0 0 0 0 0.0823529 0 0 0 0 0.0823529 0 0 0 0 0.0823529 0 0 0 0.2 0"/>
<feBlend mode="normal" in2="BackgroundImageFix" result="effect1_dropShadow_4015_3791"/>
<feBlend mode="normal" in="SourceGraphic" in2="effect1_dropShadow_4015_3791" result="shape"/>
</filter>
<clipPath id="clip0_4015_3791">
<rect width="127" height="30" fill="white" transform="translate(32 26)"/>
</clipPath>
<clipPath id="clip1_4015_3791">
<rect width="16" height="16" fill="white" transform="translate(968 33)"/>
</clipPath>
<clipPath id="clip2_4015_3791">
<rect width="16" height="16" fill="white" transform="translate(612 153)"/>
</clipPath>
<clipPath id="clip3_4015_3791">
<rect width="16" height="16" fill="white" transform="translate(668 153)"/>
</clipPath>
<clipPath id="clip4_4015_3791">
<rect width="16" height="16" fill="white" transform="translate(356 265)"/>
</clipPath>
<clipPath id="clip5_4015_3791">
<rect width="16" height="16" fill="white" transform="translate(412 265)"/>
</clipPath>
<clipPath id="clip6_4015_3791">
<rect width="16" height="16" fill="white" transform="translate(204 369)"/>
</clipPath>
<clipPath id="clip7_4015_3791">
<rect width="16" height="16" fill="white" transform="translate(244 369)"/>
</clipPath>
</defs>
</svg>
