<svg width="1140" height="337" viewBox="0 0 1140 337" fill="none" xmlns="http://www.w3.org/2000/svg">
<path d="M0 3C0 1.34314 1.34315 0 3 0H1137C1138.66 0 1140 1.34315 1140 3V334C1140 335.657 1138.66 337 1137 337H3.00003C1.34318 337 0 335.657 0 334V3Z" fill="#F2F2F2"/>
<mask id="mask0_4024_4615" style="mask-type:alpha" maskUnits="userSpaceOnUse" x="0" y="165" width="1076" height="88">
<rect y="165" width="1076" height="88" fill="white"/>
</mask>
<g mask="url(#mask0_4024_4615)">
<g filter="url(#filter0_d_4024_4615)">
<rect width="1440" height="82" transform="translate(-364 165)" fill="white"/>
<path d="M622.468 222.023C623.047 222.571 623.953 222.571 624.532 222.023L630.267 216.589C631.252 215.656 630.592 214 629.236 214H617.764C616.408 214 615.748 215.656 616.733 216.589L622.468 222.023Z" fill="#EE0000"/>
<rect x="595" y="193" width="57" height="25" rx="2" fill="#EE0000"/>
<path d="M604.792 212.12C604.112 212.12 603.44 211.996 602.776 211.748C602.112 211.5 601.52 211.156 601 210.716L602.152 209.216C602.664 209.632 603.136 209.932 603.568 210.116C604 210.292 604.46 210.38 604.948 210.38C605.268 210.38 605.54 210.348 605.764 210.284C605.988 210.22 606.16 210.128 606.28 210.008C606.4 209.88 606.46 209.732 606.46 209.564C606.46 209.332 606.372 209.152 606.196 209.024C606.02 208.896 605.72 208.796 605.296 208.724L603.448 208.4C602.768 208.28 602.244 208.02 601.876 207.62C601.508 207.22 601.324 206.712 601.324 206.096C601.324 205.552 601.46 205.084 601.732 204.692C602.012 204.3 602.408 204 602.92 203.792C603.44 203.584 604.056 203.48 604.768 203.48C605.392 203.48 606.02 203.588 606.652 203.804C607.284 204.012 607.832 204.304 608.296 204.68L607.204 206.204C606.34 205.54 605.48 205.208 604.624 205.208C604.344 205.208 604.1 205.24 603.892 205.304C603.692 205.36 603.536 205.444 603.424 205.556C603.32 205.66 603.268 205.788 603.268 205.94C603.268 206.148 603.344 206.308 603.496 206.42C603.656 206.532 603.912 206.62 604.264 206.684L606.004 206.972C606.812 207.1 607.424 207.368 607.84 207.776C608.264 208.184 608.476 208.712 608.476 209.36C608.476 209.928 608.328 210.42 608.032 210.836C607.736 211.244 607.312 211.56 606.76 211.784C606.208 212.008 605.552 212.12 604.792 212.12ZM611.807 212.12C611.311 212.12 610.871 212.012 610.487 211.796C610.111 211.58 609.815 211.28 609.599 210.896C609.383 210.504 609.275 210.06 609.275 209.564V205.652H611.219V209.3C611.219 209.644 611.323 209.924 611.531 210.14C611.747 210.348 612.027 210.452 612.371 210.452C612.619 210.452 612.839 210.408 613.031 210.32C613.223 210.232 613.383 210.108 613.511 209.948V205.652H615.455V212H613.511V211.568C613.031 211.936 612.463 212.12 611.807 212.12ZM616.659 212V205.652H618.603V206.06C619.051 205.708 619.579 205.532 620.187 205.532C620.587 205.532 620.947 205.608 621.267 205.76C621.587 205.912 621.855 206.128 622.071 206.408C622.327 206.128 622.631 205.912 622.983 205.76C623.335 205.608 623.719 205.532 624.135 205.532C624.615 205.532 625.039 205.64 625.407 205.856C625.775 206.072 626.063 206.372 626.271 206.756C626.487 207.14 626.595 207.584 626.595 208.088V212H624.651V208.352C624.651 208 624.555 207.72 624.363 207.512C624.179 207.304 623.931 207.2 623.619 207.2C623.403 207.2 623.207 207.24 623.031 207.32C622.855 207.4 622.703 207.52 622.575 207.68C622.583 207.744 622.587 207.812 622.587 207.884C622.595 207.948 622.599 208.016 622.599 208.088V212H620.655V208.352C620.655 208 620.559 207.72 620.367 207.512C620.183 207.304 619.935 207.2 619.623 207.2C619.407 207.2 619.211 207.24 619.035 207.32C618.867 207.392 618.723 207.504 618.603 207.656V212H616.659ZM627.745 212V205.652H629.689V206.06C630.137 205.708 630.665 205.532 631.273 205.532C631.673 205.532 632.033 205.608 632.353 205.76C632.673 205.912 632.941 206.128 633.157 206.408C633.413 206.128 633.717 205.912 634.069 205.76C634.421 205.608 634.805 205.532 635.221 205.532C635.701 205.532 636.125 205.64 636.493 205.856C636.861 206.072 637.149 206.372 637.357 206.756C637.573 207.14 637.681 207.584 637.681 208.088V212H635.737V208.352C635.737 208 635.641 207.72 635.449 207.512C635.265 207.304 635.017 207.2 634.705 207.2C634.489 207.2 634.293 207.24 634.117 207.32C633.941 207.4 633.789 207.52 633.661 207.68C633.669 207.744 633.673 207.812 633.673 207.884C633.681 207.948 633.685 208.016 633.685 208.088V212H631.741V208.352C631.741 208 631.645 207.72 631.453 207.512C631.269 207.304 631.021 207.2 630.709 207.2C630.493 207.2 630.297 207.24 630.121 207.32C629.953 207.392 629.809 207.504 629.689 207.656V212H627.745ZM638.83 212V205.652H640.774V212H638.83ZM639.802 205.064C639.506 205.064 639.254 204.96 639.046 204.752C638.838 204.544 638.734 204.292 638.734 203.996C638.734 203.7 638.838 203.448 639.046 203.24C639.254 203.032 639.506 202.928 639.802 202.928C640.098 202.928 640.35 203.032 640.558 203.24C640.766 203.448 640.87 203.7 640.87 203.996C640.87 204.292 640.766 204.544 640.558 204.752C640.35 204.96 640.098 205.064 639.802 205.064ZM645.175 212.084C644.415 212.084 643.839 211.916 643.447 211.58C643.063 211.236 642.871 210.732 642.871 210.068V207.272H641.587V205.652H642.871V204.02L644.815 203.6V205.652H646.591V207.272H644.815V209.684C644.815 209.964 644.875 210.164 644.995 210.284C645.123 210.396 645.343 210.452 645.655 210.452C645.815 210.452 645.959 210.444 646.087 210.428C646.223 210.404 646.371 210.368 646.531 210.32V211.892C646.355 211.948 646.131 211.992 645.859 212.024C645.587 212.064 645.359 212.084 645.175 212.084Z" fill="white"/>
<path d="M611.377 203V198.45H613.704C614.016 198.45 614.293 198.513 614.536 198.638C614.779 198.76 614.967 198.931 615.102 199.152C615.24 199.369 615.31 199.618 615.31 199.899C615.31 200.185 615.232 200.441 615.076 200.666C614.92 200.892 614.714 201.063 614.458 201.18L615.453 203H614.205L613.347 201.342H612.495V203H611.377ZM612.495 200.432H613.6C613.773 200.432 613.912 200.385 614.016 200.289C614.124 200.194 614.179 200.071 614.179 199.919C614.179 199.767 614.124 199.644 614.016 199.548C613.912 199.453 613.773 199.405 613.6 199.405H612.495V200.432ZM617.221 203.065C616.87 203.065 616.552 202.987 616.266 202.831C615.984 202.671 615.761 202.456 615.596 202.188C615.431 201.919 615.349 201.618 615.349 201.284C615.349 200.95 615.427 200.649 615.583 200.38C615.743 200.112 615.96 199.899 616.233 199.743C616.506 199.583 616.809 199.503 617.143 199.503C617.481 199.503 617.78 199.585 618.04 199.75C618.3 199.91 618.504 200.131 618.651 200.413C618.803 200.695 618.879 201.017 618.879 201.381V201.641H616.428C616.476 201.75 616.539 201.845 616.617 201.927C616.699 202.01 616.796 202.075 616.909 202.122C617.022 202.166 617.143 202.188 617.273 202.188C617.416 202.188 617.546 202.166 617.663 202.122C617.78 202.075 617.88 202.01 617.962 201.927L618.658 202.545C618.441 202.727 618.218 202.859 617.988 202.941C617.763 203.024 617.507 203.065 617.221 203.065ZM616.409 200.907H617.845C617.81 200.794 617.756 200.699 617.683 200.621C617.613 200.539 617.531 200.476 617.436 200.432C617.34 200.385 617.236 200.361 617.124 200.361C617.007 200.361 616.9 200.383 616.805 200.426C616.71 200.469 616.627 200.532 616.558 200.614C616.493 200.692 616.443 200.79 616.409 200.907ZM620.872 203.046C620.547 203.046 620.25 202.967 619.981 202.811C619.717 202.651 619.507 202.439 619.351 202.174C619.195 201.906 619.117 201.607 619.117 201.277C619.117 200.948 619.195 200.651 619.351 200.387C619.511 200.118 619.725 199.906 619.994 199.75C620.267 199.594 620.57 199.516 620.904 199.516C621.064 199.516 621.218 199.535 621.366 199.574C621.513 199.613 621.652 199.67 621.782 199.743V198.45L622.835 198.287V203H621.795V202.746C621.522 202.946 621.214 203.046 620.872 203.046ZM621.054 202.148C621.201 202.148 621.335 202.127 621.457 202.083C621.578 202.036 621.686 201.966 621.782 201.875V200.673C621.691 200.586 621.582 200.521 621.457 200.478C621.331 200.43 621.197 200.406 621.054 200.406C620.885 200.406 620.731 200.445 620.592 200.523C620.458 200.597 620.349 200.701 620.267 200.835C620.189 200.965 620.15 201.113 620.15 201.277C620.15 201.442 620.189 201.592 620.267 201.726C620.349 201.856 620.458 201.96 620.592 202.038C620.731 202.112 620.885 202.148 621.054 202.148ZM624.549 203V198.45H625.667V200.198H627.539V198.45H628.657V203H627.539V201.219H625.667V203H624.549ZM630.264 203.059C630.022 203.059 629.805 203.013 629.614 202.922C629.428 202.831 629.281 202.705 629.172 202.545C629.068 202.385 629.016 202.2 629.016 201.992C629.016 201.663 629.14 201.41 629.387 201.232C629.638 201.05 629.987 200.959 630.433 200.959C630.702 200.959 630.962 200.991 631.213 201.056V200.887C631.213 200.714 631.157 200.586 631.044 200.504C630.936 200.417 630.773 200.374 630.557 200.374C630.422 200.374 630.271 200.396 630.102 200.439C629.937 200.482 629.742 200.552 629.517 200.647L629.14 199.873C629.421 199.748 629.692 199.655 629.952 199.594C630.217 199.529 630.481 199.496 630.745 199.496C631.222 199.496 631.592 199.611 631.857 199.841C632.121 200.066 632.253 200.385 632.253 200.796V203H631.213V202.792C631.075 202.887 630.927 202.957 630.771 203C630.62 203.039 630.451 203.059 630.264 203.059ZM630.017 201.973C630.017 202.081 630.065 202.166 630.16 202.226C630.256 202.287 630.388 202.317 630.557 202.317C630.682 202.317 630.799 202.304 630.908 202.278C631.02 202.252 631.122 202.211 631.213 202.155V201.713C631.114 201.687 631.012 201.667 630.908 201.654C630.804 201.641 630.698 201.635 630.589 201.635C630.407 201.635 630.266 201.665 630.167 201.726C630.067 201.782 630.017 201.865 630.017 201.973ZM634.389 203.046C633.978 203.046 633.666 202.955 633.453 202.772C633.245 202.586 633.141 202.313 633.141 201.953V200.439H632.446V199.561H633.141V198.677L634.194 198.45V199.561H635.156V200.439H634.194V201.745C634.194 201.897 634.227 202.005 634.292 202.07C634.361 202.131 634.48 202.161 634.649 202.161C634.736 202.161 634.814 202.157 634.883 202.148C634.957 202.135 635.037 202.116 635.124 202.09V202.941C635.029 202.972 634.907 202.996 634.76 203.013C634.613 203.035 634.489 203.046 634.389 203.046Z" fill="white"/>
<path d="M681.768 210.654C681.068 210.654 680.415 210.528 679.808 210.276C679.211 210.015 678.683 209.655 678.226 209.198C677.769 208.731 677.414 208.195 677.162 207.588C676.91 206.972 676.784 206.309 676.784 205.6C676.784 204.891 676.91 204.233 677.162 203.626C677.414 203.01 677.769 202.473 678.226 202.016C678.683 201.549 679.211 201.19 679.808 200.938C680.415 200.677 681.068 200.546 681.768 200.546C682.253 200.546 682.715 200.611 683.154 200.742C683.602 200.863 684.022 201.045 684.414 201.288C684.806 201.521 685.156 201.811 685.464 202.156L684.75 202.898C684.386 202.459 683.938 202.123 683.406 201.89C682.883 201.647 682.337 201.526 681.768 201.526C681.217 201.526 680.704 201.629 680.228 201.834C679.752 202.039 679.337 202.329 678.982 202.702C678.637 203.075 678.366 203.509 678.17 204.004C677.974 204.489 677.876 205.021 677.876 205.6C677.876 206.169 677.974 206.701 678.17 207.196C678.366 207.691 678.637 208.125 678.982 208.498C679.337 208.871 679.752 209.161 680.228 209.366C680.704 209.571 681.217 209.674 681.768 209.674C682.337 209.674 682.883 209.553 683.406 209.31C683.938 209.067 684.386 208.731 684.75 208.302L685.464 209.044C685.156 209.389 684.806 209.683 684.414 209.926C684.022 210.159 683.602 210.341 683.154 210.472C682.715 210.593 682.253 210.654 681.768 210.654ZM690.027 210.612C689.392 210.612 688.823 210.458 688.319 210.15C687.815 209.842 687.418 209.422 687.129 208.89C686.84 208.358 686.695 207.756 686.695 207.084C686.695 206.412 686.84 205.81 687.129 205.278C687.418 204.746 687.815 204.326 688.319 204.018C688.823 203.71 689.392 203.556 690.027 203.556C690.652 203.556 691.212 203.71 691.707 204.018C692.211 204.326 692.608 204.746 692.897 205.278C693.186 205.81 693.331 206.412 693.331 207.084C693.331 207.756 693.186 208.358 692.897 208.89C692.608 209.422 692.211 209.842 691.707 210.15C691.212 210.458 690.652 210.612 690.027 210.612ZM690.013 209.716C690.461 209.716 690.858 209.604 691.203 209.38C691.548 209.147 691.819 208.829 692.015 208.428C692.22 208.027 692.323 207.579 692.323 207.084C692.323 206.58 692.22 206.132 692.015 205.74C691.819 205.339 691.548 205.026 691.203 204.802C690.858 204.569 690.461 204.452 690.013 204.452C689.565 204.452 689.168 204.569 688.823 204.802C688.478 205.026 688.202 205.339 687.997 205.74C687.801 206.132 687.703 206.58 687.703 207.084C687.703 207.579 687.801 208.027 687.997 208.428C688.202 208.829 688.478 209.147 688.823 209.38C689.168 209.604 689.565 209.716 690.013 209.716ZM695.124 210.5V203.668H696.146V204.774C696.408 204.363 696.72 204.06 697.084 203.864C697.448 203.659 697.859 203.556 698.316 203.556C698.811 203.556 699.24 203.663 699.604 203.878C699.978 204.083 700.267 204.377 700.472 204.76C700.687 205.133 700.794 205.572 700.794 206.076V210.5H699.772V206.37C699.772 205.763 699.604 205.287 699.268 204.942C698.942 204.587 698.498 204.41 697.938 204.41C697.565 204.41 697.224 204.499 696.916 204.676C696.608 204.853 696.352 205.115 696.146 205.46V210.5H695.124ZM704.963 210.64C704.403 210.64 703.885 210.556 703.409 210.388C702.933 210.211 702.527 209.959 702.191 209.632L702.737 208.96C703.147 209.259 703.525 209.478 703.871 209.618C704.216 209.749 704.571 209.814 704.935 209.814C705.429 209.814 705.84 209.697 706.167 209.464C706.493 209.231 706.657 208.932 706.657 208.568C706.657 208.288 706.559 208.069 706.363 207.91C706.176 207.751 705.863 207.63 705.425 207.546L704.305 207.35C703.642 207.229 703.152 207.023 702.835 206.734C702.527 206.445 702.373 206.053 702.373 205.558C702.373 205.166 702.475 204.821 702.681 204.522C702.895 204.223 703.189 203.99 703.563 203.822C703.936 203.645 704.361 203.556 704.837 203.556C705.303 203.556 705.747 203.626 706.167 203.766C706.587 203.897 707.011 204.111 707.441 204.41L706.937 205.124C706.582 204.872 706.227 204.69 705.873 204.578C705.518 204.457 705.159 204.396 704.795 204.396C704.347 204.396 703.987 204.494 703.717 204.69C703.446 204.886 703.311 205.152 703.311 205.488C703.311 205.768 703.395 205.983 703.563 206.132C703.74 206.281 704.048 206.393 704.487 206.468L705.635 206.678C706.325 206.799 706.829 207.009 707.147 207.308C707.464 207.607 707.623 208.008 707.623 208.512C707.623 208.913 707.506 209.277 707.273 209.604C707.039 209.921 706.722 210.173 706.321 210.36C705.919 210.547 705.467 210.64 704.963 210.64ZM712.271 210.612C711.637 210.612 711.067 210.458 710.563 210.15C710.059 209.842 709.663 209.422 709.373 208.89C709.084 208.358 708.939 207.756 708.939 207.084C708.939 206.412 709.084 205.81 709.373 205.278C709.663 204.746 710.059 204.326 710.563 204.018C711.067 203.71 711.637 203.556 712.271 203.556C712.897 203.556 713.457 203.71 713.951 204.018C714.455 204.326 714.852 204.746 715.141 205.278C715.431 205.81 715.575 206.412 715.575 207.084C715.575 207.756 715.431 208.358 715.141 208.89C714.852 209.422 714.455 209.842 713.951 210.15C713.457 210.458 712.897 210.612 712.271 210.612ZM712.257 209.716C712.705 209.716 713.102 209.604 713.447 209.38C713.793 209.147 714.063 208.829 714.259 208.428C714.465 208.027 714.567 207.579 714.567 207.084C714.567 206.58 714.465 206.132 714.259 205.74C714.063 205.339 713.793 205.026 713.447 204.802C713.102 204.569 712.705 204.452 712.257 204.452C711.809 204.452 711.413 204.569 711.067 204.802C710.722 205.026 710.447 205.339 710.241 205.74C710.045 206.132 709.947 206.58 709.947 207.084C709.947 207.579 710.045 208.027 710.241 208.428C710.447 208.829 710.722 209.147 711.067 209.38C711.413 209.604 711.809 209.716 712.257 209.716ZM717.368 210.5V200.392L718.39 200.182V210.5H717.368ZM723.566 210.64C722.931 210.64 722.357 210.486 721.844 210.178C721.33 209.861 720.924 209.436 720.626 208.904C720.327 208.363 720.178 207.756 720.178 207.084C720.178 206.412 720.318 205.81 720.598 205.278C720.887 204.746 721.274 204.326 721.76 204.018C722.245 203.71 722.786 203.556 723.384 203.556C723.99 203.556 724.527 203.71 724.994 204.018C725.47 204.317 725.843 204.727 726.114 205.25C726.394 205.763 726.534 206.347 726.534 207V207.308H721.172C721.209 207.775 721.335 208.195 721.55 208.568C721.774 208.932 722.063 209.221 722.418 209.436C722.782 209.641 723.178 209.744 723.608 209.744C723.962 209.744 724.303 209.683 724.63 209.562C724.966 209.431 725.25 209.259 725.484 209.044L726.128 209.73C725.736 210.038 725.33 210.267 724.91 210.416C724.49 210.565 724.042 210.64 723.566 210.64ZM721.2 206.58H725.526C725.479 206.169 725.353 205.805 725.148 205.488C724.952 205.161 724.7 204.905 724.392 204.718C724.093 204.531 723.757 204.438 723.384 204.438C723.01 204.438 722.67 204.531 722.362 204.718C722.054 204.895 721.797 205.147 721.592 205.474C721.396 205.791 721.265 206.16 721.2 206.58Z" fill="#151515"/>
<path d="M754.324 209.534H756.564C757.273 209.534 757.908 209.361 758.468 209.016C759.028 208.671 759.471 208.204 759.798 207.616C760.134 207.019 760.302 206.347 760.302 205.6C760.302 204.853 760.134 204.186 759.798 203.598C759.471 203.001 759.028 202.529 758.468 202.184C757.908 201.839 757.273 201.666 756.564 201.666H754.324V209.534ZM753.246 210.5V200.7H756.494C757.213 200.7 757.871 200.826 758.468 201.078C759.075 201.321 759.593 201.666 760.022 202.114C760.461 202.553 760.797 203.071 761.03 203.668C761.273 204.256 761.394 204.9 761.394 205.6C761.394 206.3 761.273 206.949 761.03 207.546C760.797 208.134 760.461 208.652 760.022 209.1C759.593 209.539 759.075 209.884 758.468 210.136C757.871 210.379 757.213 210.5 756.494 210.5H753.246ZM766.26 210.612C765.625 210.612 765.056 210.458 764.552 210.15C764.048 209.842 763.651 209.422 763.362 208.89C763.072 208.358 762.928 207.756 762.928 207.084C762.928 206.412 763.072 205.81 763.362 205.278C763.651 204.746 764.048 204.326 764.552 204.018C765.056 203.71 765.625 203.556 766.26 203.556C766.885 203.556 767.445 203.71 767.94 204.018C768.444 204.326 768.84 204.746 769.13 205.278C769.419 205.81 769.564 206.412 769.564 207.084C769.564 207.756 769.419 208.358 769.13 208.89C768.84 209.422 768.444 209.842 767.94 210.15C767.445 210.458 766.885 210.612 766.26 210.612ZM766.246 209.716C766.694 209.716 767.09 209.604 767.436 209.38C767.781 209.147 768.052 208.829 768.248 208.428C768.453 208.027 768.556 207.579 768.556 207.084C768.556 206.58 768.453 206.132 768.248 205.74C768.052 205.339 767.781 205.026 767.436 204.802C767.09 204.569 766.694 204.452 766.246 204.452C765.798 204.452 765.401 204.569 765.056 204.802C764.71 205.026 764.435 205.339 764.23 205.74C764.034 206.132 763.936 206.58 763.936 207.084C763.936 207.579 764.034 208.027 764.23 208.428C764.435 208.829 764.71 209.147 765.056 209.38C765.401 209.604 765.798 209.716 766.246 209.716ZM774.423 210.612C773.788 210.612 773.214 210.458 772.701 210.15C772.197 209.833 771.795 209.408 771.497 208.876C771.198 208.335 771.049 207.737 771.049 207.084C771.049 206.421 771.198 205.824 771.497 205.292C771.795 204.76 772.197 204.34 772.701 204.032C773.214 203.715 773.788 203.556 774.423 203.556C774.927 203.556 775.407 203.649 775.865 203.836C776.322 204.023 776.719 204.284 777.055 204.62L776.397 205.334C776.154 205.063 775.86 204.853 775.515 204.704C775.169 204.555 774.819 204.48 774.465 204.48C774.017 204.48 773.611 204.597 773.247 204.83C772.892 205.063 772.607 205.376 772.393 205.768C772.178 206.16 772.071 206.599 772.071 207.084C772.071 207.569 772.178 208.008 772.393 208.4C772.607 208.792 772.892 209.105 773.247 209.338C773.611 209.571 774.017 209.688 774.465 209.688C774.819 209.688 775.169 209.613 775.515 209.464C775.86 209.305 776.154 209.095 776.397 208.834L777.055 209.548C776.719 209.884 776.322 210.145 775.865 210.332C775.407 210.519 774.927 210.612 774.423 210.612ZM780.662 210.64C780.102 210.64 779.584 210.556 779.108 210.388C778.632 210.211 778.226 209.959 777.89 209.632L778.436 208.96C778.847 209.259 779.225 209.478 779.57 209.618C779.915 209.749 780.27 209.814 780.634 209.814C781.129 209.814 781.539 209.697 781.866 209.464C782.193 209.231 782.356 208.932 782.356 208.568C782.356 208.288 782.258 208.069 782.062 207.91C781.875 207.751 781.563 207.63 781.124 207.546L780.004 207.35C779.341 207.229 778.851 207.023 778.534 206.734C778.226 206.445 778.072 206.053 778.072 205.558C778.072 205.166 778.175 204.821 778.38 204.522C778.595 204.223 778.889 203.99 779.262 203.822C779.635 203.645 780.06 203.556 780.536 203.556C781.003 203.556 781.446 203.626 781.866 203.766C782.286 203.897 782.711 204.111 783.14 204.41L782.636 205.124C782.281 204.872 781.927 204.69 781.572 204.578C781.217 204.457 780.858 204.396 780.494 204.396C780.046 204.396 779.687 204.494 779.416 204.69C779.145 204.886 779.01 205.152 779.01 205.488C779.01 205.768 779.094 205.983 779.262 206.132C779.439 206.281 779.747 206.393 780.186 206.468L781.334 206.678C782.025 206.799 782.529 207.009 782.846 207.308C783.163 207.607 783.322 208.008 783.322 208.512C783.322 208.913 783.205 209.277 782.972 209.604C782.739 209.921 782.421 210.173 782.02 210.36C781.619 210.547 781.166 210.64 780.662 210.64Z" fill="#151515"/>
<path d="M812.41 210.654C811.645 210.654 810.935 210.519 810.282 210.248C809.629 209.968 808.999 209.548 808.392 208.988L809.05 208.204C809.638 208.755 810.189 209.147 810.702 209.38C811.225 209.613 811.803 209.73 812.438 209.73C812.942 209.73 813.39 209.646 813.782 209.478C814.183 209.301 814.496 209.063 814.72 208.764C814.944 208.465 815.056 208.125 815.056 207.742C815.056 207.247 814.893 206.874 814.566 206.622C814.239 206.361 813.675 206.16 812.872 206.02L811.29 205.754C810.394 205.595 809.736 205.325 809.316 204.942C808.905 204.55 808.7 204.027 808.7 203.374C808.7 202.823 808.84 202.338 809.12 201.918C809.409 201.489 809.806 201.153 810.31 200.91C810.814 200.667 811.397 200.546 812.06 200.546C812.788 200.546 813.465 200.649 814.09 200.854C814.715 201.05 815.331 201.363 815.938 201.792L815.378 202.632C814.874 202.249 814.342 201.96 813.782 201.764C813.222 201.559 812.653 201.456 812.074 201.456C811.617 201.456 811.211 201.535 810.856 201.694C810.511 201.853 810.235 202.067 810.03 202.338C809.834 202.609 809.736 202.917 809.736 203.262C809.736 203.691 809.881 204.027 810.17 204.27C810.459 204.513 810.931 204.685 811.584 204.788L813.152 205.054C814.197 205.241 814.953 205.544 815.42 205.964C815.896 206.375 816.134 206.949 816.134 207.686C816.134 208.255 815.971 208.764 815.644 209.212C815.327 209.66 814.888 210.015 814.328 210.276C813.768 210.528 813.129 210.654 812.41 210.654ZM820.209 210.612C819.723 210.612 819.294 210.505 818.921 210.29C818.547 210.075 818.253 209.777 818.039 209.394C817.833 209.011 817.731 208.573 817.731 208.078V203.668H818.767V207.784C818.767 208.391 818.93 208.871 819.257 209.226C819.583 209.581 820.027 209.758 820.587 209.758C820.969 209.758 821.31 209.669 821.609 209.492C821.917 209.315 822.173 209.058 822.379 208.722V203.668H823.401V210.5H822.379V209.394C822.117 209.795 821.805 210.099 821.441 210.304C821.086 210.509 820.675 210.612 820.209 210.612ZM825.497 213.426V203.668H826.505V204.648C826.767 204.303 827.084 204.041 827.457 203.864C827.84 203.677 828.26 203.584 828.717 203.584C829.315 203.584 829.847 203.743 830.313 204.06C830.789 204.368 831.167 204.788 831.447 205.32C831.727 205.843 831.867 206.431 831.867 207.084C831.867 207.737 831.723 208.33 831.433 208.862C831.153 209.394 830.771 209.819 830.285 210.136C829.809 210.444 829.268 210.598 828.661 210.598C828.232 210.598 827.835 210.519 827.471 210.36C827.107 210.192 826.79 209.954 826.519 209.646V213.426H825.497ZM828.465 209.716C828.923 209.716 829.329 209.604 829.683 209.38C830.047 209.147 830.332 208.834 830.537 208.442C830.752 208.041 830.859 207.593 830.859 207.098C830.859 206.594 830.752 206.146 830.537 205.754C830.332 205.362 830.047 205.054 829.683 204.83C829.329 204.597 828.923 204.48 828.465 204.48C828.064 204.48 827.691 204.564 827.345 204.732C827.009 204.891 826.734 205.119 826.519 205.418V208.764C826.743 209.063 827.023 209.296 827.359 209.464C827.705 209.632 828.073 209.716 828.465 209.716ZM833.659 213.426V203.668H834.667V204.648C834.929 204.303 835.246 204.041 835.619 203.864C836.002 203.677 836.422 203.584 836.879 203.584C837.477 203.584 838.009 203.743 838.475 204.06C838.951 204.368 839.329 204.788 839.609 205.32C839.889 205.843 840.029 206.431 840.029 207.084C840.029 207.737 839.885 208.33 839.595 208.862C839.315 209.394 838.933 209.819 838.447 210.136C837.971 210.444 837.43 210.598 836.823 210.598C836.394 210.598 835.997 210.519 835.633 210.36C835.269 210.192 834.952 209.954 834.681 209.646V213.426H833.659ZM836.627 209.716C837.085 209.716 837.491 209.604 837.845 209.38C838.209 209.147 838.494 208.834 838.699 208.442C838.914 208.041 839.021 207.593 839.021 207.098C839.021 206.594 838.914 206.146 838.699 205.754C838.494 205.362 838.209 205.054 837.845 204.83C837.491 204.597 837.085 204.48 836.627 204.48C836.226 204.48 835.853 204.564 835.507 204.732C835.171 204.891 834.896 205.119 834.681 205.418V208.764C834.905 209.063 835.185 209.296 835.521 209.464C835.867 209.632 836.235 209.716 836.627 209.716ZM844.845 210.612C844.211 210.612 843.641 210.458 843.137 210.15C842.633 209.842 842.237 209.422 841.947 208.89C841.658 208.358 841.513 207.756 841.513 207.084C841.513 206.412 841.658 205.81 841.947 205.278C842.237 204.746 842.633 204.326 843.137 204.018C843.641 203.71 844.211 203.556 844.845 203.556C845.471 203.556 846.031 203.71 846.525 204.018C847.029 204.326 847.426 204.746 847.715 205.278C848.005 205.81 848.149 206.412 848.149 207.084C848.149 207.756 848.005 208.358 847.715 208.89C847.426 209.422 847.029 209.842 846.525 210.15C846.031 210.458 845.471 210.612 844.845 210.612ZM844.831 209.716C845.279 209.716 845.676 209.604 846.021 209.38C846.367 209.147 846.637 208.829 846.833 208.428C847.039 208.027 847.141 207.579 847.141 207.084C847.141 206.58 847.039 206.132 846.833 205.74C846.637 205.339 846.367 205.026 846.021 204.802C845.676 204.569 845.279 204.452 844.831 204.452C844.383 204.452 843.987 204.569 843.641 204.802C843.296 205.026 843.021 205.339 842.815 205.74C842.619 206.132 842.521 206.58 842.521 207.084C842.521 207.579 842.619 208.027 842.815 208.428C843.021 208.829 843.296 209.147 843.641 209.38C843.987 209.604 844.383 209.716 844.831 209.716ZM849.943 210.5V203.668H850.965V205.068C851.142 204.592 851.394 204.223 851.721 203.962C852.057 203.691 852.439 203.556 852.869 203.556C852.99 203.556 853.102 203.565 853.205 203.584C853.307 203.593 853.41 203.617 853.513 203.654V204.578C853.401 204.541 853.279 204.513 853.149 204.494C853.027 204.466 852.911 204.452 852.799 204.452C852.379 204.452 852.01 204.573 851.693 204.816C851.385 205.059 851.142 205.399 850.965 205.838V210.5H849.943ZM857.468 210.64C856.88 210.64 856.432 210.5 856.124 210.22C855.826 209.931 855.676 209.515 855.676 208.974V204.508H854.262V203.668H855.676V201.792L856.698 201.554V203.668H858.658V204.508H856.698V208.708C856.698 209.072 856.773 209.333 856.922 209.492C857.081 209.651 857.338 209.73 857.692 209.73C857.87 209.73 858.028 209.716 858.168 209.688C858.308 209.66 858.472 209.613 858.658 209.548V210.458C858.472 210.523 858.276 210.57 858.07 210.598C857.865 210.626 857.664 210.64 857.468 210.64Z" fill="#151515"/>
<mask id="path-10-inside-1_4024_4615" fill="white">
<path d="M884 165H940V247H884V165Z"/>
</mask>
<path d="M940 247V243H884V247V251H940V247Z" fill="#707070" mask="url(#path-10-inside-1_4024_4615)"/>
<g clip-path="url(#clip0_4024_4615)">
<path d="M919.398 212.602L915.12 208.324C915.981 207.285 916.5 205.952 916.5 204.5C916.5 201.192 913.809 198.5 910.5 198.5C907.191 198.5 904.5 201.192 904.5 204.5C904.5 207.808 907.191 210.5 910.5 210.5C911.952 210.5 913.285 209.981 914.324 209.12L918.602 213.398C918.712 213.508 918.856 213.562 919 213.562C919.144 213.562 919.288 213.508 919.398 213.398C919.617 213.178 919.617 212.822 919.398 212.602ZM905.5 204.5C905.5 201.743 907.743 199.5 910.5 199.5C913.257 199.5 915.5 201.743 915.5 204.5C915.5 207.257 913.257 209.5 910.5 209.5C907.743 209.5 905.5 207.257 905.5 204.5Z" fill="#151515"/>
</g>
<mask id="path-13-inside-2_4024_4615" fill="white">
<path d="M940 165H996V247H940V165Z"/>
</mask>
<path d="M996 247V243H940V247V251H996V247Z" fill="#707070" mask="url(#path-13-inside-2_4024_4615)"/>
<path d="M974 208.5C973.449 208.5 973 208.052 973 207.5V205.5C973 203.058 971.239 201.022 968.921 200.589C969.123 200.366 969.25 200.074 969.25 199.75C969.25 199.061 968.689 198.5 968 198.5C967.311 198.5 966.75 199.061 966.75 199.75C966.75 200.074 966.877 200.366 967.079 200.589C964.761 201.022 963 203.058 963 205.5V207.5C963 208.052 962.551 208.5 962 208.5C961.724 208.5 961.5 208.724 961.5 209V210.75C961.5 211.164 961.836 211.5 962.25 211.5H966C966 212.603 966.897 213.5 968 213.5C969.103 213.5 970 212.603 970 211.5H973.75C974.164 211.5 974.5 211.164 974.5 210.75V209C974.5 208.724 974.276 208.5 974 208.5ZM973.5 210.5H962.5V209.437C963.362 209.214 964 208.43 964 207.5V205.5C964 203.294 965.794 201.5 968 201.5C970.206 201.5 972 203.294 972 205.5V207.5C972 208.43 972.638 209.214 973.5 209.437V210.5Z" fill="#151515"/>
<mask id="path-16-inside-3_4024_4615" fill="white">
<path d="M996 165H1060V247H996V165Z"/>
</mask>
<path d="M1060 247V243H996V247V251H1060V247Z" fill="#707070" mask="url(#path-16-inside-3_4024_4615)"/>
<circle cx="1028" cy="206" r="16" fill="#F2F2F2"/>
<mask id="mask1_4024_4615" style="mask-type:alpha" maskUnits="userSpaceOnUse" x="1012" y="190" width="32" height="32">
<circle cx="1028" cy="206" r="16" fill="white"/>
</mask>
<g mask="url(#mask1_4024_4615)">
<path d="M1017 217C1017 212.582 1020.58 209 1025 209H1031C1035.42 209 1039 212.582 1039 217V222H1017V217Z" fill="#C7C7C7"/>
<path d="M1032 216C1033.66 216 1035 217.343 1035 219V222H1032V216Z" fill="#A3A3A3"/>
<path d="M1021 219C1021 217.343 1022.34 216 1024 216V222H1021V219Z" fill="#A3A3A3"/>
</g>
<circle cx="1028" cy="201" r="6" fill="#C7C7C7"/>
</g>
</g>
<circle cx="1028" cy="262" r="11" fill="#B300B3"/>
<path d="M1020.78 267V266.118H1023.26V258.292L1020.78 259.384V258.46L1023.64 257.2H1024.27V266.118H1027.1V267H1020.78ZM1032 267.154C1031.33 267.154 1030.7 267.037 1030.11 266.804C1029.54 266.571 1029.02 266.225 1028.57 265.768L1029.25 265.11C1029.66 265.521 1030.08 265.819 1030.51 266.006C1030.94 266.183 1031.44 266.272 1031.99 266.272C1032.47 266.272 1032.89 266.188 1033.25 266.02C1033.62 265.852 1033.91 265.619 1034.12 265.32C1034.32 265.021 1034.43 264.681 1034.43 264.298C1034.43 263.934 1034.33 263.612 1034.15 263.332C1033.97 263.043 1033.72 262.819 1033.4 262.66C1033.09 262.501 1032.72 262.422 1032.31 262.422H1031.15V261.554H1032.27C1032.8 261.554 1033.23 261.391 1033.56 261.064C1033.89 260.737 1034.06 260.313 1034.06 259.79C1034.06 259.445 1033.97 259.132 1033.78 258.852C1033.6 258.572 1033.34 258.353 1033.01 258.194C1032.69 258.026 1032.34 257.942 1031.93 257.942C1031.43 257.942 1030.98 258.035 1030.58 258.222C1030.18 258.399 1029.78 258.703 1029.37 259.132L1028.7 258.46C1029.14 257.993 1029.63 257.643 1030.18 257.41C1030.73 257.167 1031.32 257.046 1031.95 257.046C1032.55 257.046 1033.08 257.163 1033.54 257.396C1034.02 257.629 1034.39 257.951 1034.66 258.362C1034.93 258.763 1035.07 259.221 1035.07 259.734C1035.07 260.247 1034.9 260.709 1034.57 261.12C1034.23 261.521 1033.79 261.801 1033.24 261.96C1033.9 262.109 1034.43 262.399 1034.83 262.828C1035.23 263.257 1035.43 263.757 1035.43 264.326C1035.43 264.867 1035.28 265.353 1034.99 265.782C1034.7 266.211 1034.29 266.547 1033.77 266.79C1033.25 267.033 1032.67 267.154 1032 267.154Z" fill="white"/>
<mask id="path-26-inside-4_4024_4615" fill="white">
<path d="M996 168C996 166.343 997.343 165 999 165H1057C1058.66 165 1060 166.343 1060 168V244C1060 245.657 1058.66 247 1057 247H999C997.343 247 996 245.657 996 244V168Z"/>
</mask>
<path d="M999 165V167H1057V165V163H999V165ZM1060 168H1058V244H1060H1062V168H1060ZM1057 247V245H999V247V249H1057V247ZM996 244H998V168H996H994V244H996ZM999 247V245C998.448 245 998 244.552 998 244H996H994C994 246.761 996.239 249 999 249V247ZM1060 244H1058C1058 244.552 1057.55 245 1057 245V247V249C1059.76 249 1062 246.761 1062 244H1060ZM1057 165V167C1057.55 167 1058 167.448 1058 168H1060H1062C1062 165.239 1059.76 163 1057 163V165ZM999 165V163C996.239 163 994 165.239 994 168H996H998C998 167.448 998.448 167 999 167V165Z" fill="#0066CC" mask="url(#path-26-inside-4_4024_4615)"/>
<circle cx="968" cy="262" r="11" fill="#B300B3"/>
<path d="M960.781 267V266.118H963.259V258.292L960.781 259.384V258.46L963.637 257.2H964.267V266.118H967.095V267H960.781ZM969.036 267V266.258L972.956 261.974C973.264 261.638 973.502 261.344 973.67 261.092C973.847 260.831 973.969 260.588 974.034 260.364C974.109 260.14 974.146 259.902 974.146 259.65C974.146 259.155 973.95 258.749 973.558 258.432C973.175 258.105 972.685 257.942 972.088 257.942C971.631 257.942 971.206 258.031 970.814 258.208C970.422 258.385 969.983 258.693 969.498 259.132L968.91 258.432C969.423 257.965 969.941 257.62 970.464 257.396C970.987 257.163 971.533 257.046 972.102 257.046C972.69 257.046 973.213 257.158 973.67 257.382C974.127 257.597 974.487 257.895 974.748 258.278C975.009 258.661 975.14 259.099 975.14 259.594C975.14 259.921 975.098 260.224 975.014 260.504C974.93 260.775 974.781 261.069 974.566 261.386C974.351 261.694 974.043 262.067 973.642 262.506L970.296 266.132L975.35 266.118V267H969.036Z" fill="white"/>
<mask id="path-30-inside-5_4024_4615" fill="white">
<path d="M940 168C940 166.343 941.343 165 943 165H993C994.657 165 996 166.343 996 168V244C996 245.657 994.657 247 993 247H943C941.343 247 940 245.657 940 244V168Z"/>
</mask>
<path d="M943 165V167H993V165V163H943V165ZM996 168H994V244H996H998V168H996ZM993 247V245H943V247V249H993V247ZM940 244H942V168H940H938V244H940ZM943 247V245C942.448 245 942 244.552 942 244H940H938C938 246.761 940.239 249 943 249V247ZM996 244H994C994 244.552 993.552 245 993 245V247V249C995.761 249 998 246.761 998 244H996ZM993 165V167C993.552 167 994 167.448 994 168H996H998C998 165.239 995.761 163 993 163V165ZM943 165V163C940.239 163 938 165.239 938 168H940H942C942 167.448 942.448 167 943 167V165Z" fill="#0066CC" mask="url(#path-30-inside-5_4024_4615)"/>
<circle cx="912" cy="262" r="11" fill="#B300B3"/>
<path d="M904.781 267V266.118H907.259V258.292L904.781 259.384V258.46L907.637 257.2H908.267V266.118H911.095V267H904.781ZM913.176 267V266.118H915.654V258.292L913.176 259.384V258.46L916.032 257.2H916.662V266.118H919.49V267H913.176Z" fill="white"/>
<mask id="path-34-inside-6_4024_4615" fill="white">
<path d="M884 168C884 166.343 885.343 165 887 165H937C938.657 165 940 166.343 940 168V244C940 245.657 938.657 247 937 247H887C885.343 247 884 245.657 884 244V168Z"/>
</mask>
<path d="M887 165V167H937V165V163H887V165ZM940 168H938V244H940H942V168H940ZM937 247V245H887V247V249H937V247ZM884 244H886V168H884H882V244H884ZM887 247V245C886.448 245 886 244.552 886 244H884H882C882 246.761 884.239 249 887 249V247ZM940 244H938C938 244.552 937.552 245 937 245V247V249C939.761 249 942 246.761 942 244H940ZM937 165V167C937.552 167 938 167.448 938 168H940H942C942 165.239 939.761 163 937 163V165ZM887 165V163C884.239 163 882 165.239 882 168H884H886C886 167.448 886.448 167 887 167V165Z" fill="#0066CC" mask="url(#path-34-inside-6_4024_4615)"/>
<circle cx="834" cy="233.5" r="11" fill="#B300B3"/>
<path d="M826.781 238.5V237.618H829.259V229.792L826.781 230.884V229.96L829.637 228.7H830.267V237.618H833.095V238.5H826.781ZM838.2 238.654C837.5 238.654 836.875 238.449 836.324 238.038C835.783 237.627 835.358 237.044 835.05 236.288C834.742 235.532 834.588 234.636 834.588 233.6C834.588 232.555 834.742 231.659 835.05 230.912C835.358 230.156 835.783 229.573 836.324 229.162C836.875 228.751 837.5 228.546 838.2 228.546C838.909 228.546 839.535 228.751 840.076 229.162C840.617 229.573 841.042 230.156 841.35 230.912C841.658 231.659 841.812 232.555 841.812 233.6C841.812 234.636 841.658 235.532 841.35 236.288C841.042 237.044 840.617 237.627 840.076 238.038C839.535 238.449 838.909 238.654 838.2 238.654ZM835.61 233.6C835.61 234.179 835.661 234.711 835.764 235.196C835.876 235.672 836.025 236.087 836.212 236.442L839.544 229.946C839.161 229.619 838.713 229.456 838.2 229.456C837.677 229.456 837.22 229.629 836.828 229.974C836.445 230.31 836.147 230.791 835.932 231.416C835.717 232.032 835.61 232.76 835.61 233.6ZM838.2 237.744C838.723 237.744 839.175 237.576 839.558 237.24C839.95 236.895 840.253 236.414 840.468 235.798C840.683 235.173 840.79 234.44 840.79 233.6C840.79 233.021 840.734 232.494 840.622 232.018C840.519 231.533 840.375 231.113 840.188 230.758L836.856 237.254C837.239 237.581 837.687 237.744 838.2 237.744Z" fill="white"/>
<line x1="808" y1="215" x2="860" y2="215" stroke="#707070" stroke-dasharray="3 2"/>
<mask id="path-39-outside-7_4024_4615" maskUnits="userSpaceOnUse" x="806" y="193.5" width="56" height="25" fill="black">
<rect fill="white" x="806" y="193.5" width="56" height="25"/>
<path d="M808 198.5C808 196.843 809.343 195.5 811 195.5H857C858.657 195.5 860 196.843 860 198.5V213.5C860 215.157 858.657 216.5 857 216.5H811C809.343 216.5 808 215.157 808 213.5V198.5Z"/>
</mask>
<path d="M811 195.5V197.5H857V195.5V193.5H811V195.5ZM860 198.5H858V213.5H860H862V198.5H860ZM857 216.5V214.5H811V216.5V218.5H857V216.5ZM808 213.5H810V198.5H808H806V213.5H808ZM811 216.5V214.5C810.448 214.5 810 214.052 810 213.5H808H806C806 216.261 808.239 218.5 811 218.5V216.5ZM860 213.5H858C858 214.052 857.552 214.5 857 214.5V216.5V218.5C859.761 218.5 862 216.261 862 213.5H860ZM857 195.5V197.5C857.552 197.5 858 197.948 858 198.5H860H862C862 195.739 859.761 193.5 857 193.5V195.5ZM811 195.5V193.5C808.239 193.5 806 195.739 806 198.5H808H810C810 197.948 810.448 197.5 811 197.5V195.5Z" fill="#0066CC" mask="url(#path-39-outside-7_4024_4615)"/>
<circle cx="768" cy="233.5" r="11" fill="#B300B3"/>
<path d="M767.709 228.56C768.465 228.56 769.127 228.761 769.697 229.162C770.275 229.563 770.728 230.119 771.055 230.828C771.381 231.528 771.545 232.34 771.545 233.264C771.545 234.347 771.363 235.294 770.999 236.106C770.635 236.909 770.121 237.534 769.459 237.982C768.796 238.43 768.026 238.654 767.149 238.654C766.738 238.654 766.332 238.598 765.931 238.486C765.529 238.374 765.17 238.211 764.853 237.996L765.357 237.212C765.646 237.38 765.949 237.511 766.267 237.604C766.584 237.697 766.906 237.744 767.233 237.744C767.905 237.744 768.483 237.571 768.969 237.226C769.463 236.871 769.841 236.367 770.103 235.714C770.373 235.061 770.518 234.277 770.537 233.362C770.173 233.829 769.739 234.193 769.235 234.454C768.731 234.715 768.208 234.846 767.667 234.846C767.032 234.846 766.467 234.715 765.973 234.454C765.478 234.193 765.091 233.833 764.811 233.376C764.531 232.909 764.391 232.382 764.391 231.794C764.391 231.178 764.535 230.627 764.825 230.142C765.114 229.647 765.506 229.26 766.001 228.98C766.505 228.7 767.074 228.56 767.709 228.56ZM767.807 234.02C768.32 234.02 768.81 233.894 769.277 233.642C769.753 233.381 770.163 233.026 770.509 232.578C770.434 231.953 770.271 231.407 770.019 230.94C769.776 230.464 769.454 230.095 769.053 229.834C768.661 229.573 768.217 229.442 767.723 229.442C767.275 229.442 766.873 229.545 766.519 229.75C766.173 229.946 765.898 230.221 765.693 230.576C765.497 230.931 765.399 231.327 765.399 231.766C765.399 232.205 765.501 232.597 765.707 232.942C765.912 233.278 766.192 233.544 766.547 233.74C766.911 233.927 767.331 234.02 767.807 234.02Z" fill="white"/>
<line x1="753" y1="215" x2="785" y2="215" stroke="#707070" stroke-dasharray="3 2"/>
<mask id="path-44-outside-8_4024_4615" maskUnits="userSpaceOnUse" x="750" y="193.5" width="36" height="25" fill="black">
<rect fill="white" x="750" y="193.5" width="36" height="25"/>
<path d="M752 198.5C752 196.843 753.343 195.5 755 195.5H781C782.657 195.5 784 196.843 784 198.5V213.5C784 215.157 782.657 216.5 781 216.5H755C753.343 216.5 752 215.157 752 213.5V198.5Z"/>
</mask>
<path d="M755 195.5V197.5H781V195.5V193.5H755V195.5ZM784 198.5H782V213.5H784H786V198.5H784ZM781 216.5V214.5H755V216.5V218.5H781V216.5ZM752 213.5H754V198.5H752H750V213.5H752ZM755 216.5V214.5C754.448 214.5 754 214.052 754 213.5H752H750C750 216.261 752.239 218.5 755 218.5V216.5ZM784 213.5H782C782 214.052 781.552 214.5 781 214.5V216.5V218.5C783.761 218.5 786 216.261 786 213.5H784ZM781 195.5V197.5C781.552 197.5 782 197.948 782 198.5H784H786C786 195.739 783.761 193.5 781 193.5V195.5ZM755 195.5V193.5C752.239 193.5 750 195.739 750 198.5H752H754C754 197.948 754.448 197.5 755 197.5V195.5Z" fill="#0066CC" mask="url(#path-44-outside-8_4024_4615)"/>
<circle cx="702" cy="233.5" r="11" fill="#B300B3"/>
<path d="M702.003 238.654C701.331 238.654 700.733 238.533 700.211 238.29C699.688 238.047 699.273 237.716 698.965 237.296C698.666 236.867 698.517 236.386 698.517 235.854C698.517 235.453 698.615 235.084 698.811 234.748C699.007 234.403 699.277 234.109 699.623 233.866C699.977 233.614 700.379 233.437 700.827 233.334C700.257 233.175 699.791 232.891 699.427 232.48C699.072 232.069 698.895 231.607 698.895 231.094C698.895 230.609 699.03 230.175 699.301 229.792C699.571 229.409 699.94 229.106 700.407 228.882C700.883 228.658 701.415 228.546 702.003 228.546C702.6 228.546 703.132 228.658 703.599 228.882C704.065 229.106 704.434 229.409 704.705 229.792C704.975 230.175 705.111 230.609 705.111 231.094C705.111 231.607 704.933 232.069 704.579 232.48C704.224 232.891 703.757 233.175 703.179 233.334C703.86 233.493 704.415 233.805 704.845 234.272C705.274 234.729 705.489 235.257 705.489 235.854C705.489 236.386 705.339 236.867 705.041 237.296C704.742 237.716 704.327 238.047 703.795 238.29C703.272 238.533 702.675 238.654 702.003 238.654ZM702.003 232.914C702.404 232.914 702.763 232.835 703.081 232.676C703.407 232.517 703.664 232.307 703.851 232.046C704.037 231.775 704.131 231.472 704.131 231.136C704.131 230.8 704.037 230.497 703.851 230.226C703.664 229.955 703.407 229.745 703.081 229.596C702.763 229.437 702.404 229.358 702.003 229.358C701.601 229.358 701.237 229.437 700.911 229.596C700.593 229.745 700.341 229.955 700.155 230.226C699.968 230.497 699.875 230.8 699.875 231.136C699.875 231.472 699.968 231.775 700.155 232.046C700.341 232.307 700.593 232.517 700.911 232.676C701.237 232.835 701.601 232.914 702.003 232.914ZM702.003 237.842C702.479 237.842 702.903 237.753 703.277 237.576C703.65 237.399 703.944 237.156 704.159 236.848C704.383 236.54 704.495 236.195 704.495 235.812C704.495 235.429 704.383 235.084 704.159 234.776C703.944 234.468 703.65 234.225 703.277 234.048C702.903 233.871 702.479 233.782 702.003 233.782C701.527 233.782 701.102 233.871 700.729 234.048C700.355 234.225 700.057 234.468 699.833 234.776C699.618 235.084 699.511 235.429 699.511 235.812C699.511 236.195 699.618 236.54 699.833 236.848C700.057 237.156 700.355 237.399 700.729 237.576C701.102 237.753 701.527 237.842 702.003 237.842Z" fill="white"/>
<line x1="676" y1="215" x2="728" y2="215" stroke="#707070" stroke-dasharray="3 2"/>
<mask id="path-49-outside-9_4024_4615" maskUnits="userSpaceOnUse" x="674" y="193.5" width="56" height="25" fill="black">
<rect fill="white" x="674" y="193.5" width="56" height="25"/>
<path d="M676 198.5C676 196.843 677.343 195.5 679 195.5H725C726.657 195.5 728 196.843 728 198.5V213.5C728 215.157 726.657 216.5 725 216.5H679C677.343 216.5 676 215.157 676 213.5V198.5Z"/>
</mask>
<path d="M679 195.5V197.5H725V195.5V193.5H679V195.5ZM728 198.5H726V213.5H728H730V198.5H728ZM725 216.5V214.5H679V216.5V218.5H725V216.5ZM676 213.5H678V198.5H676H674V213.5H676ZM679 216.5V214.5C678.448 214.5 678 214.052 678 213.5H676H674C674 216.261 676.239 218.5 679 218.5V216.5ZM728 213.5H726C726 214.052 725.552 214.5 725 214.5V216.5V218.5C727.761 218.5 730 216.261 730 213.5H728ZM725 195.5V197.5C725.552 197.5 726 197.948 726 198.5H728H730C730 195.739 727.761 193.5 725 193.5V195.5ZM679 195.5V193.5C676.239 193.5 674 195.739 674 198.5H676H678C678 197.948 678.448 197.5 679 197.5V195.5Z" fill="#0066CC" mask="url(#path-49-outside-9_4024_4615)"/>
<circle cx="624" cy="248" r="11" fill="#B300B3"/>
<path d="M621.525 253L626.397 244.082H620.517V243.2H627.489V243.984L622.673 253H621.525Z" fill="white"/>
<mask id="path-53-outside-10_4024_4615" maskUnits="userSpaceOnUse" x="593" y="179" width="61" height="54" fill="black">
<rect fill="white" x="593" y="179" width="61" height="54"/>
<path d="M595 184C595 182.343 596.343 181 598 181H649C650.657 181 652 182.343 652 184V228C652 229.657 650.657 231 649 231H598C596.343 231 595 229.657 595 228V184Z"/>
</mask>
<path d="M598 181V183H649V181V179H598V181ZM652 184H650V228H652H654V184H652ZM649 231V229H598V231V233H649V231ZM595 228H597V184H595H593V228H595ZM598 231V229C597.448 229 597 228.552 597 228H595H593C593 230.761 595.239 233 598 233V231ZM652 228H650C650 228.552 649.552 229 649 229V231V233C651.761 233 654 230.761 654 228H652ZM649 181V183C649.552 183 650 183.448 650 184H652H654C654 181.239 651.761 179 649 179V181ZM598 181V179C595.239 179 593 181.239 593 184H595H597C597 183.448 597.448 183 598 183V181Z" fill="#0066CC" mask="url(#path-53-outside-10_4024_4615)"/>
<mask id="mask2_4024_4615" style="mask-type:alpha" maskUnits="userSpaceOnUse" x="64" y="64" width="1076" height="88">
<rect x="64" y="64" width="1076" height="88" fill="white"/>
</mask>
<g mask="url(#mask2_4024_4615)">
<g filter="url(#filter1_d_4024_4615)">
<rect width="1440" height="82" transform="translate(64 64)" fill="white"/>
<g clip-path="url(#clip1_4024_4615)">
<path d="M122.355 107.29C124.95 107.29 128.709 106.75 128.709 103.652C128.709 103.41 128.703 103.175 128.645 102.94L127.098 96.1979C126.739 94.7167 126.428 94.0417 123.831 92.7396C121.82 91.7062 117.434 90 116.136 90C114.928 90 114.571 91.5708 113.139 91.5708C111.707 91.5708 110.723 90.4042 109.426 90.4042C108.128 90.4042 107.366 91.2583 106.742 93.0083C106.742 93.0083 104.996 97.9479 104.772 98.6667C104.726 98.8021 104.726 98.9521 104.726 99.0708C104.726 100.992 112.259 107.29 122.357 107.29M129.114 104.908C129.473 106.615 129.473 106.794 129.473 107.019C129.473 109.938 126.206 111.554 121.911 111.554C112.201 111.554 103.699 105.85 103.699 102.079C103.699 101.496 103.834 100.956 104.012 100.552C100.521 100.731 96.002 101.36 96.002 105.358C96.002 111.915 111.485 120 123.744 120C133.14 120 135.511 115.733 135.511 112.365C135.511 109.715 133.23 106.706 129.112 104.908" fill="#EE0000"/>
<path d="M129.112 104.91C129.471 106.617 129.471 106.796 129.471 107.021C129.471 109.94 126.204 111.556 121.909 111.556C112.199 111.556 103.697 105.852 103.697 102.081C103.697 101.498 103.832 100.958 104.01 100.554L104.772 98.6667C104.726 98.8022 104.726 98.9522 104.726 99.0709C104.726 100.992 112.259 107.29 122.357 107.29C124.952 107.29 128.711 106.75 128.711 103.652C128.711 103.41 128.705 103.175 128.647 102.94L129.114 104.91H129.112Z" fill="black"/>
<path d="M216.233 109.229C216.233 111.704 217.717 112.91 220.424 112.91C221.08 112.91 222.213 112.756 222.892 112.56V109.689C222.302 109.864 221.867 109.931 221.298 109.931C220.185 109.931 219.77 109.581 219.77 108.529V104.125H223V101.167H219.77V97.4207L216.233 98.1874V101.167H213.898V104.125H216.233V109.229ZM205.244 109.296C205.244 108.529 206.008 108.156 207.164 108.156C207.928 108.156 208.628 108.267 209.261 108.419V109.908C208.605 110.281 207.841 110.456 207.056 110.456C205.921 110.456 205.244 110.019 205.244 109.296ZM206.324 112.954C207.567 112.954 208.572 112.692 209.51 112.056V112.758H213.003V105.331C213.003 102.504 211.104 100.95 207.939 100.95C206.17 100.95 204.424 101.367 202.546 102.221L203.812 104.829C205.165 104.26 206.301 103.908 207.305 103.908C208.769 103.908 209.51 104.477 209.51 105.639V106.208C208.68 105.989 207.808 105.879 206.89 105.879C203.922 105.879 202.131 107.127 202.131 109.362C202.131 111.4 203.746 112.956 206.322 112.956M187.134 112.758H190.889V106.754H197.176V112.758H200.931V97.4207H197.176V103.314H190.889V97.4207H187.134V112.758ZM172.826 106.952C172.826 105.287 174.136 104.017 175.861 104.017C176.822 104.017 177.693 104.346 178.306 104.914V108.969C177.673 109.581 176.842 109.889 175.861 109.889C174.158 109.889 172.826 108.619 172.826 106.954M178.349 112.76H181.843V96.6541L178.306 97.4207V101.781C177.432 101.277 176.429 101.014 175.358 101.014C171.996 101.014 169.355 103.623 169.355 106.952C169.355 110.281 171.954 112.912 175.25 112.912C176.386 112.912 177.455 112.562 178.349 111.904V112.758V112.76ZM162.327 103.864C163.44 103.864 164.38 104.587 164.749 105.704H159.925C160.274 104.544 161.148 103.864 162.327 103.864ZM156.368 106.975C156.368 110.35 159.118 112.979 162.655 112.979C164.598 112.979 166.018 112.454 167.479 111.227L165.144 109.146C164.598 109.714 163.79 110.023 162.829 110.023C161.519 110.023 160.451 109.3 159.992 108.183H168.222V107.306C168.222 103.625 165.756 100.975 162.393 100.975C159.031 100.975 156.368 103.604 156.368 106.979M150.277 100.648C151.521 100.648 152.22 101.437 152.22 102.379C152.22 103.321 151.521 104.11 150.277 104.11H146.566V100.648H150.277ZM142.811 112.764H146.566V107.177H149.426L152.308 112.764H156.498L153.136 106.629C154.948 105.839 156.017 104.198 156.017 102.312C156.017 99.552 153.856 97.427 150.624 97.427H142.809V112.764H142.811Z" fill="black"/>
</g>
<mask id="path-59-inside-11_4024_4615" fill="white">
<path d="M239 64H304V146H239V64Z"/>
</mask>
<path d="M304 146V142H239V146V150H304V146Z" fill="#707070" mask="url(#path-59-inside-11_4024_4615)"/>
<path d="M255.144 111L259.576 99.8H261.048L265.416 111H264.088L262.76 107.48H257.768L256.44 111H255.144ZM258.152 106.504H262.392L260.264 100.92L258.152 106.504ZM266.971 111V99.8H268.203V111H266.971Z" fill="#151515"/>
<path d="M287.354 102.646C287.158 102.451 286.842 102.451 286.646 102.646L283 106.293L279.354 102.646C279.158 102.451 278.842 102.451 278.646 102.646C278.451 102.842 278.451 103.158 278.646 103.354L282.47 107.177C282.616 107.323 282.808 107.396 283 107.396C283.192 107.396 283.384 107.323 283.53 107.177L287.353 103.354C287.549 103.158 287.549 102.842 287.354 102.646Z" fill="#707070"/>
<mask id="path-63-inside-12_4024_4615" fill="white">
<path d="M304 64H445V146H304V64Z"/>
</mask>
<path d="M445 146V142H304V146V150H445V146Z" fill="#707070" mask="url(#path-63-inside-12_4024_4615)"/>
<path d="M321.408 111V99.8H322.64V104.808H329.072V99.8H330.304V111H329.072V105.912H322.64V111H321.408ZM333.255 114.504C333.009 114.504 332.759 114.467 332.503 114.392V113.352C332.609 113.373 332.721 113.389 332.839 113.4C332.956 113.411 333.057 113.416 333.143 113.416C333.441 113.416 333.687 113.336 333.879 113.176C334.081 113.016 334.252 112.765 334.391 112.424L334.967 111L331.959 103.192H333.255L335.623 109.608L338.135 103.192H339.431L335.495 112.776C335.324 113.192 335.137 113.528 334.935 113.784C334.732 114.04 334.497 114.221 334.231 114.328C333.964 114.445 333.639 114.504 333.255 114.504ZM340.888 111V99.56L342.056 99.32V104.264C342.354 103.891 342.717 103.603 343.144 103.4C343.57 103.197 344.045 103.096 344.568 103.096C345.25 103.096 345.858 103.277 346.392 103.64C346.936 103.992 347.368 104.472 347.688 105.08C348.008 105.677 348.168 106.349 348.168 107.096C348.168 107.843 348.002 108.52 347.672 109.128C347.352 109.736 346.914 110.221 346.36 110.584C345.816 110.936 345.197 111.112 344.504 111.112C344.013 111.112 343.554 111.016 343.128 110.824C342.712 110.621 342.349 110.339 342.039 109.976V111H340.888ZM344.28 110.104C344.802 110.104 345.266 109.976 345.672 109.72C346.088 109.453 346.413 109.096 346.648 108.648C346.893 108.189 347.016 107.677 347.016 107.112C347.016 106.536 346.893 106.024 346.648 105.576C346.413 105.128 346.088 104.776 345.672 104.52C345.266 104.253 344.802 104.12 344.28 104.12C343.821 104.12 343.394 104.216 343 104.408C342.616 104.589 342.301 104.851 342.056 105.192V109.016C342.312 109.357 342.632 109.624 343.016 109.816C343.41 110.008 343.832 110.104 344.28 110.104ZM350.216 111V103.192H351.384V104.792C351.586 104.248 351.874 103.827 352.248 103.528C352.632 103.219 353.069 103.064 353.56 103.064C353.698 103.064 353.826 103.075 353.944 103.096C354.061 103.107 354.178 103.133 354.296 103.176V104.232C354.168 104.189 354.029 104.157 353.88 104.136C353.741 104.104 353.608 104.088 353.48 104.088C353 104.088 352.578 104.227 352.216 104.504C351.864 104.781 351.586 105.171 351.384 105.672V111H350.216ZM355.825 111V103.192H356.993V111H355.825ZM356.417 101.256C356.182 101.256 355.979 101.176 355.809 101.016C355.649 100.845 355.569 100.648 355.569 100.424C355.569 100.2 355.649 100.008 355.809 99.848C355.979 99.6773 356.182 99.592 356.417 99.592C356.651 99.592 356.849 99.6773 357.009 99.848C357.179 100.008 357.265 100.2 357.265 100.424C357.265 100.648 357.179 100.845 357.009 101.016C356.849 101.176 356.651 101.256 356.417 101.256ZM362.636 111.112C361.964 111.112 361.356 110.936 360.812 110.584C360.268 110.221 359.836 109.741 359.516 109.144C359.196 108.536 359.036 107.859 359.036 107.112C359.036 106.355 359.196 105.677 359.516 105.08C359.846 104.472 360.289 103.992 360.844 103.64C361.398 103.277 362.017 103.096 362.7 103.096C363.18 103.096 363.628 103.192 364.044 103.384C364.46 103.565 364.822 103.832 365.132 104.184V99.448L366.3 99.208V111H365.132V109.96C364.833 110.333 364.47 110.621 364.044 110.824C363.617 111.016 363.148 111.112 362.636 111.112ZM362.924 110.088C363.382 110.088 363.804 109.997 364.188 109.816C364.572 109.635 364.886 109.379 365.132 109.048V105.176C364.876 104.845 364.55 104.589 364.156 104.408C363.772 104.216 363.361 104.12 362.924 104.12C362.401 104.12 361.932 104.248 361.516 104.504C361.11 104.76 360.785 105.112 360.539 105.56C360.305 106.008 360.188 106.52 360.188 107.096C360.188 107.661 360.305 108.173 360.539 108.632C360.785 109.08 361.11 109.437 361.516 109.704C361.932 109.96 362.401 110.088 362.924 110.088ZM375.938 111.128C375.213 111.128 374.557 110.952 373.97 110.6C373.394 110.237 372.936 109.752 372.594 109.144C372.253 108.525 372.082 107.843 372.082 107.096C372.082 106.339 372.253 105.656 372.594 105.048C372.936 104.44 373.394 103.96 373.97 103.608C374.557 103.245 375.213 103.064 375.938 103.064C376.514 103.064 377.064 103.171 377.586 103.384C378.109 103.597 378.562 103.896 378.946 104.28L378.194 105.096C377.917 104.787 377.581 104.547 377.186 104.376C376.792 104.205 376.392 104.12 375.986 104.12C375.474 104.12 375.01 104.253 374.594 104.52C374.189 104.787 373.864 105.144 373.618 105.592C373.373 106.04 373.25 106.541 373.25 107.096C373.25 107.651 373.373 108.152 373.618 108.6C373.864 109.048 374.189 109.405 374.594 109.672C375.01 109.939 375.474 110.072 375.986 110.072C376.392 110.072 376.792 109.987 377.186 109.816C377.581 109.635 377.917 109.395 378.194 109.096L378.946 109.912C378.562 110.296 378.109 110.595 377.586 110.808C377.064 111.021 376.514 111.128 375.938 111.128ZM380.575 111V99.448L381.743 99.208V111H380.575ZM387.594 111.128C386.868 111.128 386.218 110.952 385.642 110.6C385.066 110.248 384.612 109.768 384.282 109.16C383.951 108.552 383.786 107.864 383.786 107.096C383.786 106.328 383.951 105.64 384.282 105.032C384.612 104.424 385.066 103.944 385.642 103.592C386.218 103.24 386.868 103.064 387.594 103.064C388.308 103.064 388.948 103.24 389.514 103.592C390.09 103.944 390.543 104.424 390.874 105.032C391.204 105.64 391.37 106.328 391.37 107.096C391.37 107.864 391.204 108.552 390.874 109.16C390.543 109.768 390.09 110.248 389.514 110.6C388.948 110.952 388.308 111.128 387.594 111.128ZM387.578 110.104C388.09 110.104 388.543 109.976 388.938 109.72C389.332 109.453 389.642 109.091 389.866 108.632C390.1 108.173 390.218 107.661 390.218 107.096C390.218 106.52 390.1 106.008 389.866 105.56C389.642 105.101 389.332 104.744 388.938 104.488C388.543 104.221 388.09 104.088 387.578 104.088C387.066 104.088 386.612 104.221 386.218 104.488C385.823 104.744 385.508 105.101 385.274 105.56C385.05 106.008 384.938 106.52 384.938 107.096C384.938 107.661 385.05 108.173 385.274 108.632C385.508 109.091 385.823 109.453 386.218 109.72C386.612 109.976 387.066 110.104 387.578 110.104ZM396.203 111.128C395.648 111.128 395.157 111.005 394.731 110.76C394.304 110.515 393.968 110.173 393.723 109.736C393.488 109.299 393.371 108.797 393.371 108.232V103.192H394.555V107.896C394.555 108.589 394.741 109.139 395.115 109.544C395.488 109.949 395.995 110.152 396.635 110.152C397.072 110.152 397.461 110.051 397.803 109.848C398.155 109.645 398.448 109.352 398.683 108.968V103.192H399.851V111H398.683V109.736C398.384 110.195 398.027 110.541 397.611 110.776C397.205 111.011 396.736 111.128 396.203 111.128ZM405.495 111.112C404.823 111.112 404.215 110.936 403.671 110.584C403.127 110.221 402.695 109.741 402.375 109.144C402.055 108.536 401.895 107.859 401.895 107.112C401.895 106.355 402.055 105.677 402.375 105.08C402.706 104.472 403.148 103.992 403.703 103.64C404.258 103.277 404.876 103.096 405.559 103.096C406.039 103.096 406.487 103.192 406.903 103.384C407.319 103.565 407.682 103.832 407.991 104.184V99.448L409.159 99.208V111H407.991V109.96C407.692 110.333 407.33 110.621 406.903 110.824C406.476 111.016 406.007 111.112 405.495 111.112ZM405.783 110.088C406.242 110.088 406.663 109.997 407.047 109.816C407.431 109.635 407.746 109.379 407.991 109.048V105.176C407.735 104.845 407.41 104.589 407.015 104.408C406.631 104.216 406.22 104.12 405.783 104.12C405.26 104.12 404.791 104.248 404.375 104.504C403.97 104.76 403.644 105.112 403.399 105.56C403.164 106.008 403.047 106.52 403.047 107.096C403.047 107.661 403.164 108.173 403.399 108.632C403.644 109.08 403.97 109.437 404.375 109.704C404.791 109.96 405.26 110.088 405.783 110.088Z" fill="#151515"/>
<path d="M428.354 102.646C428.158 102.451 427.842 102.451 427.646 102.646L424 106.293L420.354 102.646C420.158 102.451 419.842 102.451 419.646 102.646C419.451 102.842 419.451 103.158 419.646 103.354L423.47 107.177C423.616 107.323 423.808 107.396 424 107.396C424.192 107.396 424.384 107.323 424.53 107.177L428.353 103.354C428.549 103.158 428.549 102.842 428.354 102.646Z" fill="#707070"/>
<mask id="path-67-inside-13_4024_4615" fill="white">
<path d="M445 64H560V146H445V64Z"/>
</mask>
<path d="M560 146V142H445V146V150H560V146Z" fill="#707070" mask="url(#path-67-inside-13_4024_4615)"/>
<path d="M462.424 111V99.8H467.048C467.773 99.8 468.403 99.9387 468.936 100.216C469.469 100.483 469.88 100.867 470.168 101.368C470.467 101.859 470.616 102.44 470.616 103.112C470.616 103.773 470.467 104.355 470.168 104.856C469.88 105.357 469.469 105.747 468.936 106.024C468.403 106.291 467.773 106.424 467.048 106.424H463.656V111H462.424ZM463.656 105.368H466.904C467.683 105.368 468.291 105.165 468.728 104.76C469.165 104.355 469.384 103.805 469.384 103.112C469.384 102.419 469.165 101.875 468.728 101.48C468.291 101.085 467.683 100.888 466.904 100.888H463.656V105.368ZM472.591 111V103.192H473.759V104.792C473.961 104.248 474.249 103.827 474.623 103.528C475.007 103.219 475.444 103.064 475.935 103.064C476.073 103.064 476.201 103.075 476.319 103.096C476.436 103.107 476.553 103.133 476.671 103.176V104.232C476.543 104.189 476.404 104.157 476.255 104.136C476.116 104.104 475.983 104.088 475.855 104.088C475.375 104.088 474.953 104.227 474.591 104.504C474.239 104.781 473.961 105.171 473.759 105.672V111H472.591ZM481.187 111.128C480.462 111.128 479.811 110.952 479.235 110.6C478.659 110.248 478.206 109.768 477.875 109.16C477.545 108.552 477.379 107.864 477.379 107.096C477.379 106.328 477.545 105.64 477.875 105.032C478.206 104.424 478.659 103.944 479.235 103.592C479.811 103.24 480.462 103.064 481.187 103.064C481.902 103.064 482.542 103.24 483.107 103.592C483.683 103.944 484.137 104.424 484.467 105.032C484.798 105.64 484.963 106.328 484.963 107.096C484.963 107.864 484.798 108.552 484.467 109.16C484.137 109.768 483.683 110.248 483.107 110.6C482.542 110.952 481.902 111.128 481.187 111.128ZM481.171 110.104C481.683 110.104 482.137 109.976 482.531 109.72C482.926 109.453 483.235 109.091 483.459 108.632C483.694 108.173 483.811 107.661 483.811 107.096C483.811 106.52 483.694 106.008 483.459 105.56C483.235 105.101 482.926 104.744 482.531 104.488C482.137 104.221 481.683 104.088 481.171 104.088C480.659 104.088 480.206 104.221 479.811 104.488C479.417 104.744 479.102 105.101 478.867 105.56C478.643 106.008 478.531 106.52 478.531 107.096C478.531 107.661 478.643 108.173 478.867 108.632C479.102 109.091 479.417 109.453 479.811 109.72C480.206 109.976 480.659 110.104 481.171 110.104ZM490.261 111.112C489.589 111.112 488.981 110.936 488.437 110.584C487.893 110.221 487.461 109.741 487.141 109.144C486.821 108.536 486.661 107.859 486.661 107.112C486.661 106.355 486.821 105.677 487.141 105.08C487.471 104.472 487.914 103.992 488.469 103.64C489.023 103.277 489.642 103.096 490.325 103.096C490.805 103.096 491.253 103.192 491.669 103.384C492.085 103.565 492.447 103.832 492.757 104.184V99.448L493.925 99.208V111H492.757V109.96C492.458 110.333 492.095 110.621 491.669 110.824C491.242 111.016 490.773 111.112 490.261 111.112ZM490.549 110.088C491.007 110.088 491.429 109.997 491.813 109.816C492.197 109.635 492.511 109.379 492.757 109.048V105.176C492.501 104.845 492.175 104.589 491.781 104.408C491.397 104.216 490.986 104.12 490.549 104.12C490.026 104.12 489.557 104.248 489.141 104.504C488.735 104.76 488.41 105.112 488.164 105.56C487.93 106.008 487.812 106.52 487.812 107.096C487.812 107.661 487.93 108.173 488.164 108.632C488.41 109.08 488.735 109.437 489.141 109.704C489.557 109.96 490.026 110.088 490.549 110.088ZM499.109 111.128C498.554 111.128 498.064 111.005 497.637 110.76C497.21 110.515 496.874 110.173 496.629 109.736C496.394 109.299 496.277 108.797 496.277 108.232V103.192H497.461V107.896C497.461 108.589 497.648 109.139 498.021 109.544C498.394 109.949 498.901 110.152 499.541 110.152C499.978 110.152 500.368 110.051 500.709 109.848C501.061 109.645 501.354 109.352 501.589 108.968V103.192H502.757V111H501.589V109.736C501.29 110.195 500.933 110.541 500.517 110.776C500.112 111.011 499.642 111.128 499.109 111.128ZM508.657 111.128C507.932 111.128 507.276 110.952 506.689 110.6C506.113 110.237 505.654 109.752 505.313 109.144C504.972 108.525 504.801 107.843 504.801 107.096C504.801 106.339 504.972 105.656 505.313 105.048C505.654 104.44 506.113 103.96 506.689 103.608C507.276 103.245 507.932 103.064 508.657 103.064C509.233 103.064 509.782 103.171 510.305 103.384C510.828 103.597 511.281 103.896 511.665 104.28L510.913 105.096C510.636 104.787 510.3 104.547 509.905 104.376C509.51 104.205 509.11 104.12 508.705 104.12C508.193 104.12 507.729 104.253 507.313 104.52C506.908 104.787 506.582 105.144 506.337 105.592C506.092 106.04 505.969 106.541 505.969 107.096C505.969 107.651 506.092 108.152 506.337 108.6C506.582 109.048 506.908 109.405 507.313 109.672C507.729 109.939 508.193 110.072 508.705 110.072C509.11 110.072 509.51 109.987 509.905 109.816C510.3 109.635 510.636 109.395 510.913 109.096L511.665 109.912C511.281 110.296 510.828 110.595 510.305 110.808C509.782 111.021 509.233 111.128 508.657 111.128ZM516.426 111.16C515.754 111.16 515.242 111 514.89 110.68C514.549 110.349 514.378 109.875 514.378 109.256V104.152H512.762V103.192H514.378V101.048L515.546 100.776V103.192H517.786V104.152H515.546V108.952C515.546 109.368 515.631 109.667 515.802 109.848C515.983 110.029 516.277 110.12 516.682 110.12C516.885 110.12 517.066 110.104 517.226 110.072C517.386 110.04 517.573 109.987 517.786 109.912V110.952C517.573 111.027 517.349 111.08 517.114 111.112C516.879 111.144 516.65 111.16 516.426 111.16ZM522.069 111.16C521.429 111.16 520.837 111.064 520.293 110.872C519.749 110.669 519.285 110.381 518.901 110.008L519.525 109.24C519.994 109.581 520.426 109.832 520.821 109.992C521.216 110.141 521.621 110.216 522.037 110.216C522.602 110.216 523.072 110.083 523.445 109.816C523.818 109.549 524.005 109.208 524.005 108.792C524.005 108.472 523.893 108.221 523.669 108.04C523.456 107.859 523.098 107.72 522.597 107.624L521.317 107.4C520.56 107.261 520 107.027 519.637 106.696C519.285 106.365 519.109 105.917 519.109 105.352C519.109 104.904 519.226 104.509 519.461 104.168C519.706 103.827 520.042 103.56 520.469 103.368C520.896 103.165 521.381 103.064 521.925 103.064C522.458 103.064 522.965 103.144 523.445 103.304C523.925 103.453 524.41 103.699 524.901 104.04L524.325 104.856C523.92 104.568 523.514 104.36 523.109 104.232C522.704 104.093 522.293 104.024 521.877 104.024C521.365 104.024 520.954 104.136 520.645 104.36C520.336 104.584 520.181 104.888 520.181 105.272C520.181 105.592 520.277 105.837 520.469 106.008C520.672 106.179 521.024 106.307 521.525 106.392L522.837 106.632C523.626 106.771 524.202 107.011 524.565 107.352C524.928 107.693 525.109 108.152 525.109 108.728C525.109 109.187 524.976 109.603 524.709 109.976C524.442 110.339 524.08 110.627 523.621 110.84C523.162 111.053 522.645 111.16 522.069 111.16Z" fill="#151515"/>
<path d="M543.354 102.646C543.158 102.451 542.842 102.451 542.646 102.646L539 106.293L535.354 102.646C535.158 102.451 534.842 102.451 534.646 102.646C534.451 102.842 534.451 103.158 534.646 103.354L538.47 107.177C538.616 107.323 538.808 107.396 539 107.396C539.192 107.396 539.384 107.323 539.53 107.177L543.353 103.354C543.549 103.158 543.549 102.842 543.354 102.646Z" fill="#707070"/>
<mask id="path-71-inside-14_4024_4615" fill="white">
<path d="M560 64H651V146H560V64Z"/>
</mask>
<path d="M651 146V142H560V146V150H651V146Z" fill="#707070" mask="url(#path-71-inside-14_4024_4615)"/>
<path d="M577.424 111V99.8H578.656V109.912H584.976V111H577.424ZM590.033 111.16C589.307 111.16 588.651 110.984 588.065 110.632C587.478 110.269 587.014 109.784 586.673 109.176C586.331 108.557 586.161 107.864 586.161 107.096C586.161 106.328 586.321 105.64 586.641 105.032C586.971 104.424 587.414 103.944 587.969 103.592C588.523 103.24 589.142 103.064 589.825 103.064C590.518 103.064 591.131 103.24 591.665 103.592C592.209 103.933 592.635 104.403 592.945 105C593.265 105.587 593.425 106.253 593.425 107V107.352H587.297C587.339 107.885 587.483 108.365 587.729 108.792C587.985 109.208 588.315 109.539 588.721 109.784C589.137 110.019 589.59 110.136 590.081 110.136C590.486 110.136 590.875 110.067 591.249 109.928C591.633 109.779 591.958 109.581 592.225 109.336L592.961 110.12C592.513 110.472 592.049 110.733 591.569 110.904C591.089 111.075 590.577 111.16 590.033 111.16ZM587.329 106.52H592.273C592.219 106.051 592.075 105.635 591.841 105.272C591.617 104.899 591.329 104.605 590.977 104.392C590.635 104.179 590.251 104.072 589.825 104.072C589.398 104.072 589.009 104.179 588.657 104.392C588.305 104.595 588.011 104.883 587.777 105.256C587.553 105.619 587.403 106.04 587.329 106.52ZM597.679 111.144C597.124 111.144 596.633 111.043 596.207 110.84C595.78 110.637 595.444 110.36 595.199 110.008C594.964 109.645 594.847 109.229 594.847 108.76C594.847 108.291 594.969 107.885 595.215 107.544C595.46 107.192 595.801 106.92 596.239 106.728C596.676 106.536 597.188 106.44 597.775 106.44C598.223 106.44 598.644 106.488 599.039 106.584C599.444 106.68 599.817 106.835 600.159 107.048V105.976C600.159 105.336 599.988 104.856 599.647 104.536C599.305 104.205 598.804 104.04 598.143 104.04C597.78 104.04 597.407 104.093 597.023 104.2C596.649 104.307 596.233 104.477 595.775 104.712L595.343 103.816C596.388 103.315 597.369 103.064 598.286 103.064C599.257 103.064 600.004 103.304 600.527 103.784C601.049 104.253 601.311 104.931 601.311 105.816V111H600.159V110.088C599.817 110.44 599.439 110.707 599.023 110.888C598.607 111.059 598.159 111.144 597.679 111.144ZM595.967 108.728C595.967 109.187 596.143 109.555 596.495 109.832C596.857 110.109 597.332 110.248 597.919 110.248C598.356 110.248 598.756 110.173 599.119 110.024C599.492 109.875 599.839 109.651 600.159 109.352V107.848C599.828 107.656 599.487 107.517 599.135 107.432C598.783 107.336 598.388 107.288 597.951 107.288C597.353 107.288 596.873 107.421 596.511 107.688C596.148 107.944 595.967 108.291 595.967 108.728ZM603.684 111V103.192H604.852V104.792C605.055 104.248 605.343 103.827 605.716 103.528C606.1 103.219 606.538 103.064 607.028 103.064C607.167 103.064 607.295 103.075 607.412 103.096C607.53 103.107 607.647 103.133 607.764 103.176V104.232C607.636 104.189 607.498 104.157 607.348 104.136C607.21 104.104 607.076 104.088 606.948 104.088C606.468 104.088 606.047 104.227 605.684 104.504C605.332 104.781 605.055 105.171 604.852 105.672V111H603.684ZM609.309 111V103.192H610.477V104.456C610.776 103.987 611.133 103.64 611.549 103.416C611.965 103.181 612.435 103.064 612.957 103.064C613.523 103.064 614.013 103.187 614.429 103.432C614.856 103.667 615.187 104.003 615.421 104.44C615.667 104.867 615.789 105.368 615.789 105.944V111H614.621V106.28C614.621 105.587 614.429 105.043 614.045 104.648C613.672 104.243 613.165 104.04 612.525 104.04C612.099 104.04 611.709 104.141 611.357 104.344C611.005 104.547 610.712 104.845 610.477 105.24V111H609.309Z" fill="#151515"/>
<path d="M634.354 102.646C634.158 102.451 633.842 102.451 633.646 102.646L630 106.293L626.354 102.646C626.158 102.451 625.842 102.451 625.646 102.646C625.451 102.842 625.451 103.158 625.646 103.354L629.47 107.177C629.616 107.323 629.808 107.396 630 107.396C630.192 107.396 630.384 107.323 630.53 107.177L634.353 103.354C634.549 103.158 634.549 102.842 634.354 102.646Z" fill="#707070"/>
<mask id="path-75-inside-15_4024_4615" fill="white">
<path d="M651 64H762V146H651V64Z"/>
</mask>
<path d="M762 146V142H651V146V150H762V146Z" fill="#707070" mask="url(#path-75-inside-15_4024_4615)"/>
<path d="M668.424 111V99.8H673.048C673.773 99.8 674.403 99.9387 674.936 100.216C675.469 100.483 675.88 100.867 676.168 101.368C676.467 101.859 676.616 102.44 676.616 103.112C676.616 103.773 676.467 104.355 676.168 104.856C675.88 105.357 675.469 105.747 674.936 106.024C674.403 106.291 673.773 106.424 673.048 106.424H669.656V111H668.424ZM669.656 105.368H672.904C673.683 105.368 674.291 105.165 674.728 104.76C675.165 104.355 675.384 103.805 675.384 103.112C675.384 102.419 675.165 101.875 674.728 101.48C674.291 101.085 673.683 100.888 672.904 100.888H669.656V105.368ZM680.679 111.144C680.124 111.144 679.633 111.043 679.207 110.84C678.78 110.637 678.444 110.36 678.199 110.008C677.964 109.645 677.847 109.229 677.847 108.76C677.847 108.291 677.969 107.885 678.215 107.544C678.46 107.192 678.801 106.92 679.239 106.728C679.676 106.536 680.188 106.44 680.775 106.44C681.223 106.44 681.644 106.488 682.039 106.584C682.444 106.68 682.817 106.835 683.159 107.048V105.976C683.159 105.336 682.988 104.856 682.647 104.536C682.305 104.205 681.804 104.04 681.143 104.04C680.78 104.04 680.407 104.093 680.023 104.2C679.649 104.307 679.233 104.477 678.775 104.712L678.343 103.816C679.388 103.315 680.369 103.064 681.286 103.064C682.257 103.064 683.004 103.304 683.527 103.784C684.049 104.253 684.311 104.931 684.311 105.816V111H683.159V110.088C682.817 110.44 682.439 110.707 682.023 110.888C681.607 111.059 681.159 111.144 680.679 111.144ZM678.967 108.728C678.967 109.187 679.143 109.555 679.495 109.832C679.857 110.109 680.332 110.248 680.919 110.248C681.356 110.248 681.756 110.173 682.119 110.024C682.492 109.875 682.839 109.651 683.159 109.352V107.848C682.828 107.656 682.487 107.517 682.135 107.432C681.783 107.336 681.388 107.288 680.951 107.288C680.353 107.288 679.873 107.421 679.511 107.688C679.148 107.944 678.967 108.291 678.967 108.728ZM686.684 111V103.192H687.852V104.792C688.055 104.248 688.343 103.827 688.716 103.528C689.1 103.219 689.538 103.064 690.028 103.064C690.167 103.064 690.295 103.075 690.412 103.096C690.53 103.107 690.647 103.133 690.764 103.176V104.232C690.636 104.189 690.498 104.157 690.348 104.136C690.21 104.104 690.076 104.088 689.948 104.088C689.468 104.088 689.047 104.227 688.684 104.504C688.332 104.781 688.055 105.171 687.852 105.672V111H686.684ZM695.285 111.16C694.613 111.16 694.101 111 693.749 110.68C693.408 110.349 693.237 109.875 693.237 109.256V104.152H691.621V103.192H693.237V101.048L694.405 100.776V103.192H696.645V104.152H694.405V108.952C694.405 109.368 694.491 109.667 694.661 109.848C694.843 110.029 695.136 110.12 695.541 110.12C695.744 110.12 695.925 110.104 696.085 110.072C696.245 110.04 696.432 109.987 696.645 109.912V110.952C696.432 111.027 696.208 111.08 695.973 111.112C695.739 111.144 695.509 111.16 695.285 111.16ZM698.356 111V103.192H699.524V104.456C699.823 103.987 700.18 103.64 700.596 103.416C701.012 103.181 701.482 103.064 702.004 103.064C702.57 103.064 703.06 103.187 703.476 103.432C703.903 103.667 704.234 104.003 704.468 104.44C704.714 104.867 704.836 105.368 704.836 105.944V111H703.668V106.28C703.668 105.587 703.476 105.043 703.092 104.648C702.719 104.243 702.212 104.04 701.572 104.04C701.146 104.04 700.756 104.141 700.404 104.344C700.052 104.547 699.759 104.845 699.524 105.24V111H698.356ZM710.704 111.16C709.979 111.16 709.323 110.984 708.736 110.632C708.15 110.269 707.686 109.784 707.344 109.176C707.003 108.557 706.832 107.864 706.832 107.096C706.832 106.328 706.992 105.64 707.312 105.032C707.643 104.424 708.086 103.944 708.64 103.592C709.195 103.24 709.814 103.064 710.496 103.064C711.19 103.064 711.803 103.24 712.336 103.592C712.88 103.933 713.307 104.403 713.616 105C713.936 105.587 714.096 106.253 714.096 107V107.352H707.968C708.011 107.885 708.155 108.365 708.4 108.792C708.656 109.208 708.987 109.539 709.392 109.784C709.808 110.019 710.262 110.136 710.752 110.136C711.158 110.136 711.547 110.067 711.92 109.928C712.304 109.779 712.63 109.581 712.896 109.336L713.632 110.12C713.184 110.472 712.72 110.733 712.24 110.904C711.76 111.075 711.248 111.16 710.704 111.16ZM708 106.52H712.944C712.891 106.051 712.747 105.635 712.512 105.272C712.288 104.899 712 104.605 711.648 104.392C711.307 104.179 710.923 104.072 710.496 104.072C710.07 104.072 709.68 104.179 709.328 104.392C708.976 104.595 708.683 104.883 708.448 105.256C708.224 105.619 708.075 106.04 708 106.52ZM716.091 111V103.192H717.259V104.792C717.461 104.248 717.749 103.827 718.123 103.528C718.507 103.219 718.944 103.064 719.435 103.064C719.573 103.064 719.701 103.075 719.819 103.096C719.936 103.107 720.053 103.133 720.171 103.176V104.232C720.043 104.189 719.904 104.157 719.755 104.136C719.616 104.104 719.483 104.088 719.355 104.088C718.875 104.088 718.453 104.227 718.091 104.504C717.739 104.781 717.461 105.171 717.259 105.672V111H716.091ZM724.054 111.16C723.414 111.16 722.822 111.064 722.278 110.872C721.734 110.669 721.27 110.381 720.886 110.008L721.51 109.24C721.979 109.581 722.411 109.832 722.806 109.992C723.2 110.141 723.606 110.216 724.022 110.216C724.587 110.216 725.056 110.083 725.43 109.816C725.803 109.549 725.99 109.208 725.99 108.792C725.99 108.472 725.878 108.221 725.654 108.04C725.44 107.859 725.083 107.72 724.582 107.624L723.302 107.4C722.544 107.261 721.984 107.027 721.622 106.696C721.27 106.365 721.094 105.917 721.094 105.352C721.094 104.904 721.211 104.509 721.446 104.168C721.691 103.827 722.027 103.56 722.454 103.368C722.88 103.165 723.366 103.064 723.91 103.064C724.443 103.064 724.95 103.144 725.43 103.304C725.91 103.453 726.395 103.699 726.886 104.04L726.31 104.856C725.904 104.568 725.499 104.36 725.094 104.232C724.688 104.093 724.278 104.024 723.862 104.024C723.35 104.024 722.939 104.136 722.63 104.36C722.32 104.584 722.166 104.888 722.166 105.272C722.166 105.592 722.262 105.837 722.454 106.008C722.656 106.179 723.008 106.307 723.51 106.392L724.822 106.632C725.611 106.771 726.187 107.011 726.55 107.352C726.912 107.693 727.094 108.152 727.094 108.728C727.094 109.187 726.96 109.603 726.694 109.976C726.427 110.339 726.064 110.627 725.606 110.84C725.147 111.053 724.63 111.16 724.054 111.16Z" fill="#151515"/>
<path d="M745.354 102.646C745.158 102.451 744.842 102.451 744.646 102.646L741 106.293L737.354 102.646C737.158 102.451 736.842 102.451 736.646 102.646C736.451 102.842 736.451 103.158 736.646 103.354L740.47 107.177C740.616 107.323 740.808 107.396 741 107.396C741.192 107.396 741.384 107.323 741.53 107.177L745.353 103.354C745.549 103.158 745.549 102.842 745.354 102.646Z" fill="#707070"/>
</g>
</g>
<circle cx="707" cy="161" r="11" fill="#B300B3"/>
<path d="M707.297 166.14C706.541 166.14 705.873 165.939 705.295 165.538C704.725 165.137 704.277 164.586 703.951 163.886C703.624 163.177 703.461 162.36 703.461 161.436C703.461 160.353 703.643 159.411 704.007 158.608C704.371 157.796 704.884 157.166 705.547 156.718C706.209 156.27 706.979 156.046 707.857 156.046C708.267 156.046 708.673 156.102 709.075 156.214C709.476 156.326 709.835 156.489 710.153 156.704L709.649 157.488C709.359 157.32 709.056 157.189 708.739 157.096C708.421 157.003 708.099 156.956 707.773 156.956C707.101 156.956 706.517 157.133 706.023 157.488C705.537 157.833 705.159 158.333 704.889 158.986C704.627 159.639 704.487 160.423 704.469 161.338C704.833 160.871 705.267 160.507 705.771 160.246C706.275 159.985 706.797 159.854 707.339 159.854C707.973 159.854 708.538 159.985 709.033 160.246C709.527 160.507 709.915 160.871 710.195 161.338C710.475 161.795 710.615 162.318 710.615 162.906C710.615 163.522 710.47 164.077 710.181 164.572C709.891 165.057 709.495 165.44 708.991 165.72C708.496 166 707.931 166.14 707.297 166.14ZM707.199 160.68C706.685 160.68 706.191 160.811 705.715 161.072C705.248 161.324 704.842 161.674 704.497 162.122C704.571 162.747 704.73 163.298 704.973 163.774C705.225 164.241 705.547 164.605 705.939 164.866C706.34 165.127 706.788 165.258 707.283 165.258C707.731 165.258 708.127 165.16 708.473 164.964C708.827 164.759 709.103 164.479 709.299 164.124C709.504 163.769 709.607 163.373 709.607 162.934C709.607 162.495 709.504 162.108 709.299 161.772C709.093 161.427 708.809 161.161 708.445 160.974C708.09 160.778 707.675 160.68 707.199 160.68Z" fill="white"/>
<mask id="path-81-inside-16_4024_4615" fill="white">
<path d="M651 67C651 65.3431 652.343 64 654 64H759C760.657 64 762 65.3431 762 67V143C762 144.657 760.657 146 759 146H654C652.343 146 651 144.657 651 143V67Z"/>
</mask>
<path d="M654 64V66H759V64V62H654V64ZM762 67H760V143H762H764V67H762ZM759 146V144H654V146V148H759V146ZM651 143H653V67H651H649V143H651ZM654 146V144C653.448 144 653 143.552 653 143H651H649C649 145.761 651.239 148 654 148V146ZM762 143H760C760 143.552 759.552 144 759 144V146V148C761.761 148 764 145.761 764 143H762ZM759 64V66C759.552 66 760 66.4477 760 67H762H764C764 64.2386 761.761 62 759 62V64ZM654 64V62C651.239 62 649 64.2386 649 67H651H653C653 66.4477 653.448 66 654 66V64Z" fill="#0066CC" mask="url(#path-81-inside-16_4024_4615)"/>
<circle cx="606" cy="161" r="11" fill="#B300B3"/>
<path d="M605.835 166.154C604.547 166.154 603.436 165.711 602.503 164.824L603.133 164.138C603.562 164.539 603.987 164.833 604.407 165.02C604.836 165.197 605.317 165.286 605.849 165.286C606.325 165.286 606.745 165.188 607.109 164.992C607.473 164.796 607.753 164.521 607.949 164.166C608.154 163.811 608.257 163.405 608.257 162.948C608.257 162.295 608.033 161.767 607.585 161.366C607.146 160.965 606.567 160.764 605.849 160.764C605.475 160.764 605.111 160.811 604.757 160.904C604.402 160.988 604.033 161.128 603.651 161.324L602.951 161.1L603.175 156.2H608.747V157.082H604.043L603.889 160.47C604.262 160.283 604.621 160.153 604.967 160.078C605.312 159.994 605.676 159.952 606.059 159.952C606.703 159.952 607.263 160.078 607.739 160.33C608.224 160.573 608.597 160.918 608.859 161.366C609.129 161.805 609.265 162.318 609.265 162.906C609.265 163.55 609.12 164.115 608.831 164.6C608.541 165.085 608.14 165.468 607.627 165.748C607.113 166.019 606.516 166.154 605.835 166.154Z" fill="white"/>
<mask id="path-85-inside-17_4024_4615" fill="white">
<path d="M560 67C560 65.3431 561.343 64 563 64H648C649.657 64 651 65.3431 651 67V143C651 144.657 649.657 146 648 146H563C561.343 146 560 144.657 560 143V67Z"/>
</mask>
<path d="M563 64V66H648V64V62H563V64ZM651 67H649V143H651H653V67H651ZM648 146V144H563V146V148H648V146ZM560 143H562V67H560H558V143H560ZM563 146V144C562.448 144 562 143.552 562 143H560H558C558 145.761 560.239 148 563 148V146ZM651 143H649C649 143.552 648.552 144 648 144V146V148C650.761 148 653 145.761 653 143H651ZM648 64V66C648.552 66 649 66.4477 649 67H651H653C653 64.2386 650.761 62 648 62V64ZM563 64V62C560.239 62 558 64.2386 558 67H560H562C562 66.4477 562.448 66 563 66V64Z" fill="#0066CC" mask="url(#path-85-inside-17_4024_4615)"/>
<circle cx="503" cy="161" r="11" fill="#B300B3"/>
<path d="M504.501 166V163.382H499.209V162.584L504.417 156.2H505.495V162.5H506.853V163.382H505.495V166H504.501ZM500.385 162.5H504.501V157.418L500.385 162.5Z" fill="white"/>
<mask id="path-89-inside-18_4024_4615" fill="white">
<path d="M445 67C445 65.3431 446.343 64 448 64H557C558.657 64 560 65.3431 560 67V143C560 144.657 558.657 146 557 146H448C446.343 146 445 144.657 445 143V67Z"/>
</mask>
<path d="M448 64V66H557V64V62H448V64ZM560 67H558V143H560H562V67H560ZM557 146V144H448V146V148H557V146ZM445 143H447V67H445H443V143H445ZM448 146V144C447.448 144 447 143.552 447 143H445H443C443 145.761 445.239 148 448 148V146ZM560 143H558C558 143.552 557.552 144 557 144V146V148C559.761 148 562 145.761 562 143H560ZM557 64V66C557.552 66 558 66.4477 558 67H560H562C562 64.2386 559.761 62 557 62V64ZM448 64V62C445.239 62 443 64.2386 443 67H445H447C447 66.4477 447.448 66 448 66V64Z" fill="#0066CC" mask="url(#path-89-inside-18_4024_4615)"/>
<circle cx="375" cy="161" r="11" fill="#B300B3"/>
<path d="M374.807 166.154C374.135 166.154 373.505 166.037 372.917 165.804C372.338 165.571 371.825 165.225 371.377 164.768L372.049 164.11C372.459 164.521 372.879 164.819 373.309 165.006C373.747 165.183 374.242 165.272 374.793 165.272C375.269 165.272 375.689 165.188 376.053 165.02C376.426 164.852 376.715 164.619 376.921 164.32C377.126 164.021 377.229 163.681 377.229 163.298C377.229 162.934 377.135 162.612 376.949 162.332C376.771 162.043 376.524 161.819 376.207 161.66C375.889 161.501 375.525 161.422 375.115 161.422H373.953V160.554H375.073C375.605 160.554 376.034 160.391 376.361 160.064C376.697 159.737 376.865 159.313 376.865 158.79C376.865 158.445 376.771 158.132 376.585 157.852C376.398 157.572 376.141 157.353 375.815 157.194C375.497 157.026 375.138 156.942 374.737 156.942C374.233 156.942 373.78 157.035 373.379 157.222C372.987 157.399 372.585 157.703 372.175 158.132L371.503 157.46C371.941 156.993 372.436 156.643 372.987 156.41C373.537 156.167 374.125 156.046 374.751 156.046C375.348 156.046 375.88 156.163 376.347 156.396C376.823 156.629 377.196 156.951 377.467 157.362C377.737 157.763 377.873 158.221 377.873 158.734C377.873 159.247 377.705 159.709 377.369 160.12C377.033 160.521 376.589 160.801 376.039 160.96C376.701 161.109 377.233 161.399 377.635 161.828C378.036 162.257 378.237 162.757 378.237 163.326C378.237 163.867 378.087 164.353 377.789 164.782C377.499 165.211 377.093 165.547 376.571 165.79C376.057 166.033 375.469 166.154 374.807 166.154Z" fill="white"/>
<mask id="path-93-inside-19_4024_4615" fill="white">
<path d="M304 67C304 65.3431 305.343 64 307 64H442C443.657 64 445 65.3431 445 67V143C445 144.657 443.657 146 442 146H307C305.343 146 304 144.657 304 143V67Z"/>
</mask>
<path d="M307 64V66H442V64V62H307V64ZM445 67H443V143H445H447V67H445ZM442 146V144H307V146V148H442V146ZM304 143H306V67H304H302V143H304ZM307 146V144C306.448 144 306 143.552 306 143H304H302C302 145.761 304.239 148 307 148V146ZM445 143H443C443 143.552 442.552 144 442 144V146V148C444.761 148 447 145.761 447 143H445ZM442 64V66C442.552 66 443 66.4477 443 67H445H447C447 64.2386 444.761 62 442 62V64ZM307 64V62C304.239 62 302 64.2386 302 67H304H306C306 66.4477 306.448 66 307 66V64Z" fill="#0066CC" mask="url(#path-93-inside-19_4024_4615)"/>
<circle cx="272" cy="161" r="11" fill="#B300B3"/>
<path d="M268.839 166V165.258L272.759 160.974C273.067 160.638 273.305 160.344 273.473 160.092C273.65 159.831 273.771 159.588 273.837 159.364C273.911 159.14 273.949 158.902 273.949 158.65C273.949 158.155 273.753 157.749 273.361 157.432C272.978 157.105 272.488 156.942 271.891 156.942C271.433 156.942 271.009 157.031 270.617 157.208C270.225 157.385 269.786 157.693 269.301 158.132L268.713 157.432C269.226 156.965 269.744 156.62 270.267 156.396C270.789 156.163 271.335 156.046 271.905 156.046C272.493 156.046 273.015 156.158 273.473 156.382C273.93 156.597 274.289 156.895 274.551 157.278C274.812 157.661 274.943 158.099 274.943 158.594C274.943 158.921 274.901 159.224 274.817 159.504C274.733 159.775 274.583 160.069 274.369 160.386C274.154 160.694 273.846 161.067 273.445 161.506L270.099 165.132L275.153 165.118V166H268.839Z" fill="white"/>
<mask id="path-97-inside-20_4024_4615" fill="white">
<path d="M239 67C239 65.3431 240.343 64 242 64H301C302.657 64 304 65.3431 304 67V143C304 144.657 302.657 146 301 146H242C240.343 146 239 144.657 239 143V67Z"/>
</mask>
<path d="M242 64V66H301V64V62H242V64ZM304 67H302V143H304H306V67H304ZM301 146V144H242V146V148H301V146ZM239 143H241V67H239H237V143H239ZM242 146V144C241.448 144 241 143.552 241 143H239H237C237 145.761 239.239 148 242 148V146ZM304 143H302C302 143.552 301.552 144 301 144V146V148C303.761 148 306 145.761 306 143H304ZM301 64V66C301.552 66 302 66.4477 302 67H304H306C306 64.2386 303.761 62 301 62V64ZM242 64V62C239.239 62 237 64.2386 237 67H239H241C241 66.4477 241.448 66 242 66V64Z" fill="#0066CC" mask="url(#path-97-inside-20_4024_4615)"/>
<mask id="path-99-outside-21_4024_4615" maskUnits="userSpaceOnUse" x="94" y="88" width="131" height="34" fill="black">
<rect fill="white" x="94" y="88" width="131" height="34"/>
<path d="M96 93C96 91.3431 97.3431 90 99 90H220C221.657 90 223 91.3431 223 93V117C223 118.657 221.657 120 220 120H99C97.3431 120 96 118.657 96 117V93Z"/>
</mask>
<path d="M99 90V92H220V90V88H99V90ZM223 93H221V117H223H225V93H223ZM220 120V118H99V120V122H220V120ZM96 117H98V93H96H94V117H96ZM99 120V118C98.4477 118 98 117.552 98 117H96H94C94 119.761 96.2386 122 99 122V120ZM223 117H221C221 117.552 220.552 118 220 118V120V122C222.761 122 225 119.761 225 117H223ZM220 90V92C220.552 92 221 92.4477 221 93H223H225C225 90.2386 222.761 88 220 88V90ZM99 90V88C96.2386 88 94 90.2386 94 93H96H98C98 92.4477 98.4477 92 99 92V90Z" fill="#0066CC" mask="url(#path-99-outside-21_4024_4615)"/>
<circle cx="160" cy="73" r="11" fill="#B300B3"/>
<path d="M156.979 78V77.118H159.457V69.292L156.979 70.384V69.46L159.835 68.2H160.465V77.118H163.293V78H156.979Z" fill="white"/>
<defs>
<filter id="filter0_d_4024_4615" x="-368" y="163" width="1448" height="90" filterUnits="userSpaceOnUse" color-interpolation-filters="sRGB">
<feFlood flood-opacity="0" result="BackgroundImageFix"/>
<feColorMatrix in="SourceAlpha" type="matrix" values="0 0 0 0 0 0 0 0 0 0 0 0 0 0 0 0 0 0 127 0" result="hardAlpha"/>
<feOffset dy="2"/>
<feGaussianBlur stdDeviation="2"/>
<feComposite in2="hardAlpha" operator="out"/>
<feColorMatrix type="matrix" values="0 0 0 0 0.0823529 0 0 0 0 0.0823529 0 0 0 0 0.0823529 0 0 0 0.2 0"/>
<feBlend mode="normal" in2="BackgroundImageFix" result="effect1_dropShadow_4024_4615"/>
<feBlend mode="normal" in="SourceGraphic" in2="effect1_dropShadow_4024_4615" result="shape"/>
</filter>
<filter id="filter1_d_4024_4615" x="60" y="62" width="1448" height="90" filterUnits="userSpaceOnUse" color-interpolation-filters="sRGB">
<feFlood flood-opacity="0" result="BackgroundImageFix"/>
<feColorMatrix in="SourceAlpha" type="matrix" values="0 0 0 0 0 0 0 0 0 0 0 0 0 0 0 0 0 0 127 0" result="hardAlpha"/>
<feOffset dy="2"/>
<feGaussianBlur stdDeviation="2"/>
<feComposite in2="hardAlpha" operator="out"/>
<feColorMatrix type="matrix" values="0 0 0 0 0.0823529 0 0 0 0 0.0823529 0 0 0 0 0.0823529 0 0 0 0.2 0"/>
<feBlend mode="normal" in2="BackgroundImageFix" result="effect1_dropShadow_4024_4615"/>
<feBlend mode="normal" in="SourceGraphic" in2="effect1_dropShadow_4024_4615" result="shape"/>
</filter>
<clipPath id="clip0_4024_4615">
<rect width="16" height="16" fill="white" transform="translate(904 198)"/>
</clipPath>
<clipPath id="clip1_4024_4615">
<rect width="127" height="30" fill="white" transform="translate(96 90)"/>
</clipPath>
</defs>
</svg>
