<svg width="1000" height="327" viewBox="0 0 1000 327" fill="none" xmlns="http://www.w3.org/2000/svg">
<rect width="1000" height="327" fill="#151515"/>
<g filter="url(#filter0_d_12049_1887)">
<rect x="64" y="64" width="872" height="199" rx="3" fill="#383838"/>
</g>
<path d="M97.704 119.84V103.04H100.224V117.608H109.896V119.84H97.704ZM117.405 120.056C116.205 120.056 115.117 119.776 114.141 119.216C113.181 118.656 112.413 117.896 111.837 116.936C111.277 115.976 110.997 114.904 110.997 113.72C110.997 112.552 111.269 111.496 111.813 110.552C112.357 109.592 113.093 108.832 114.021 108.272C114.949 107.696 115.981 107.408 117.117 107.408C118.253 107.408 119.261 107.696 120.141 108.272C121.021 108.832 121.717 109.6 122.229 110.576C122.757 111.536 123.021 112.624 123.021 113.84V114.512H113.397C113.525 115.184 113.773 115.784 114.141 116.312C114.525 116.84 115.005 117.256 115.581 117.56C116.173 117.864 116.813 118.016 117.501 118.016C118.093 118.016 118.661 117.928 119.205 117.752C119.765 117.56 120.229 117.288 120.597 116.936L122.133 118.448C121.413 118.992 120.669 119.4 119.901 119.672C119.149 119.928 118.317 120.056 117.405 120.056ZM113.421 112.712H120.645C120.549 112.072 120.325 111.512 119.973 111.032C119.637 110.536 119.213 110.152 118.701 109.88C118.205 109.592 117.661 109.448 117.069 109.448C116.461 109.448 115.901 109.584 115.389 109.856C114.877 110.128 114.445 110.512 114.093 111.008C113.757 111.488 113.533 112.056 113.421 112.712ZM129.007 120.056C128.127 120.056 127.351 119.904 126.679 119.6C126.007 119.28 125.479 118.84 125.095 118.28C124.711 117.72 124.519 117.072 124.519 116.336C124.519 115.184 124.959 114.28 125.839 113.624C126.719 112.952 127.927 112.616 129.463 112.616C130.663 112.616 131.775 112.848 132.799 113.312V112.016C132.799 111.136 132.543 110.48 132.031 110.048C131.535 109.616 130.799 109.4 129.823 109.4C129.263 109.4 128.679 109.488 128.071 109.664C127.463 109.824 126.783 110.08 126.031 110.432L125.143 108.632C126.071 108.2 126.935 107.888 127.735 107.696C128.535 107.488 129.343 107.384 130.159 107.384C131.743 107.384 132.967 107.76 133.831 108.512C134.711 109.264 135.151 110.336 135.151 111.728V119.84H132.799V118.784C132.255 119.216 131.671 119.536 131.047 119.744C130.423 119.952 129.743 120.056 129.007 120.056ZM126.823 116.288C126.823 116.88 127.071 117.36 127.567 117.728C128.079 118.096 128.743 118.28 129.559 118.28C130.199 118.28 130.783 118.184 131.311 117.992C131.855 117.8 132.351 117.504 132.799 117.104V115.04C132.335 114.768 131.847 114.576 131.335 114.464C130.839 114.336 130.279 114.272 129.655 114.272C128.775 114.272 128.079 114.456 127.567 114.824C127.071 115.176 126.823 115.664 126.823 116.288ZM141.219 119.84L135.939 107.624H138.579L142.395 116.768L146.211 107.624H148.755L143.523 119.84H141.219ZM155.749 120.056C154.549 120.056 153.461 119.776 152.485 119.216C151.525 118.656 150.757 117.896 150.181 116.936C149.621 115.976 149.341 114.904 149.341 113.72C149.341 112.552 149.613 111.496 150.157 110.552C150.701 109.592 151.437 108.832 152.365 108.272C153.293 107.696 154.325 107.408 155.461 107.408C156.597 107.408 157.605 107.696 158.485 108.272C159.365 108.832 160.061 109.6 160.573 110.576C161.101 111.536 161.365 112.624 161.365 113.84V114.512H151.741C151.869 115.184 152.117 115.784 152.485 116.312C152.869 116.84 153.349 117.256 153.925 117.56C154.517 117.864 155.157 118.016 155.845 118.016C156.437 118.016 157.005 117.928 157.549 117.752C158.109 117.56 158.573 117.288 158.941 116.936L160.477 118.448C159.757 118.992 159.013 119.4 158.245 119.672C157.493 119.928 156.661 120.056 155.749 120.056ZM151.765 112.712H158.989C158.893 112.072 158.669 111.512 158.317 111.032C157.981 110.536 157.557 110.152 157.045 109.88C156.549 109.592 156.005 109.448 155.413 109.448C154.805 109.448 154.245 109.584 153.733 109.856C153.221 110.128 152.789 110.512 152.437 111.008C152.101 111.488 151.877 112.056 151.765 112.712ZM168.666 124.736V107.624H171.042V108.8C172.066 107.888 173.314 107.432 174.786 107.432C175.938 107.432 176.978 107.712 177.906 108.272C178.85 108.832 179.594 109.584 180.138 110.528C180.682 111.472 180.954 112.536 180.954 113.72C180.954 114.904 180.674 115.976 180.114 116.936C179.57 117.88 178.826 118.632 177.882 119.192C176.954 119.752 175.906 120.032 174.738 120.032C174.066 120.032 173.418 119.928 172.794 119.72C172.17 119.496 171.594 119.184 171.066 118.784V124.736H168.666ZM174.474 117.944C175.258 117.944 175.954 117.76 176.562 117.392C177.186 117.024 177.682 116.528 178.05 115.904C178.418 115.264 178.602 114.544 178.602 113.744C178.602 112.944 178.418 112.224 178.05 111.584C177.682 110.944 177.186 110.44 176.562 110.072C175.954 109.704 175.258 109.52 174.474 109.52C173.786 109.52 173.146 109.648 172.554 109.904C171.962 110.16 171.466 110.52 171.066 110.984V116.504C171.466 116.952 171.962 117.304 172.554 117.56C173.162 117.816 173.802 117.944 174.474 117.944ZM187.225 120.056C186.345 120.056 185.569 119.904 184.897 119.6C184.225 119.28 183.697 118.84 183.313 118.28C182.929 117.72 182.737 117.072 182.737 116.336C182.737 115.184 183.177 114.28 184.057 113.624C184.937 112.952 186.145 112.616 187.681 112.616C188.881 112.616 189.993 112.848 191.017 113.312V112.016C191.017 111.136 190.761 110.48 190.249 110.048C189.753 109.616 189.017 109.4 188.041 109.4C187.481 109.4 186.897 109.488 186.289 109.664C185.681 109.824 185.001 110.08 184.249 110.432L183.361 108.632C184.289 108.2 185.153 107.888 185.953 107.696C186.753 107.488 187.561 107.384 188.377 107.384C189.961 107.384 191.185 107.76 192.049 108.512C192.929 109.264 193.369 110.336 193.369 111.728V119.84H191.017V118.784C190.473 119.216 189.889 119.536 189.265 119.744C188.641 119.952 187.961 120.056 187.225 120.056ZM185.041 116.288C185.041 116.88 185.289 117.36 185.785 117.728C186.297 118.096 186.961 118.28 187.777 118.28C188.417 118.28 189.001 118.184 189.529 117.992C190.073 117.8 190.569 117.504 191.017 117.104V115.04C190.553 114.768 190.065 114.576 189.553 114.464C189.057 114.336 188.497 114.272 187.873 114.272C186.993 114.272 186.297 114.456 185.785 114.824C185.289 115.176 185.041 115.664 185.041 116.288ZM202.183 124.976C201.287 124.976 200.415 124.872 199.567 124.664C198.719 124.456 197.951 124.16 197.263 123.776L198.175 121.904C198.895 122.272 199.567 122.536 200.191 122.696C200.831 122.872 201.471 122.96 202.111 122.96C203.183 122.96 203.991 122.712 204.535 122.216C205.095 121.72 205.375 120.992 205.375 120.032V118.64C204.303 119.488 203.079 119.912 201.703 119.912C200.583 119.912 199.551 119.64 198.607 119.096C197.679 118.536 196.943 117.784 196.399 116.84C195.855 115.88 195.583 114.824 195.583 113.672C195.583 112.504 195.855 111.448 196.399 110.504C196.959 109.544 197.703 108.792 198.631 108.248C199.575 107.688 200.631 107.408 201.799 107.408C202.455 107.408 203.087 107.52 203.695 107.744C204.319 107.952 204.887 108.256 205.399 108.656V107.624H207.775V120.032C207.775 121.616 207.287 122.832 206.311 123.68C205.351 124.544 203.975 124.976 202.183 124.976ZM202.015 117.848C202.719 117.848 203.359 117.728 203.935 117.488C204.511 117.232 204.991 116.872 205.375 116.408V110.936C204.991 110.488 204.503 110.136 203.911 109.88C203.335 109.624 202.703 109.496 202.015 109.496C201.247 109.496 200.551 109.68 199.927 110.048C199.319 110.416 198.831 110.92 198.463 111.56C198.111 112.184 197.935 112.888 197.935 113.672C197.935 114.456 198.111 115.168 198.463 115.808C198.831 116.432 199.319 116.928 199.927 117.296C200.551 117.664 201.247 117.848 202.015 117.848ZM216.452 120.056C215.252 120.056 214.164 119.776 213.188 119.216C212.228 118.656 211.46 117.896 210.884 116.936C210.324 115.976 210.044 114.904 210.044 113.72C210.044 112.552 210.316 111.496 210.86 110.552C211.404 109.592 212.14 108.832 213.068 108.272C213.996 107.696 215.028 107.408 216.164 107.408C217.3 107.408 218.308 107.696 219.188 108.272C220.068 108.832 220.764 109.6 221.276 110.576C221.804 111.536 222.068 112.624 222.068 113.84V114.512H212.444C212.572 115.184 212.82 115.784 213.188 116.312C213.572 116.84 214.052 117.256 214.628 117.56C215.22 117.864 215.86 118.016 216.548 118.016C217.14 118.016 217.708 117.928 218.252 117.752C218.812 117.56 219.276 117.288 219.644 116.936L221.18 118.448C220.46 118.992 219.716 119.4 218.948 119.672C218.196 119.928 217.364 120.056 216.452 120.056ZM212.468 112.712H219.692C219.596 112.072 219.372 111.512 219.02 111.032C218.684 110.536 218.26 110.152 217.748 109.88C217.252 109.592 216.708 109.448 216.116 109.448C215.508 109.448 214.948 109.584 214.436 109.856C213.924 110.128 213.492 110.512 213.14 111.008C212.804 111.488 212.58 112.056 212.468 112.712ZM231.649 119.84L228.241 107.624H230.569L232.945 116.6L235.729 107.624H237.793L240.577 116.6L242.953 107.624H245.209L241.777 119.84H239.473L236.737 110.888L233.977 119.84H231.649ZM246.924 119.84V107.624H249.324V119.84H246.924ZM248.124 105.656C247.724 105.656 247.38 105.512 247.092 105.224C246.804 104.92 246.66 104.568 246.66 104.168C246.66 103.752 246.804 103.408 247.092 103.136C247.38 102.848 247.724 102.704 248.124 102.704C248.54 102.704 248.892 102.848 249.18 103.136C249.468 103.408 249.612 103.752 249.612 104.168C249.612 104.568 249.468 104.92 249.18 105.224C248.892 105.512 248.54 105.656 248.124 105.656ZM257.382 120.056C256.198 120.056 255.294 119.784 254.67 119.24C254.046 118.68 253.734 117.872 253.734 116.816V109.64H251.142V107.624H253.734V104.504L256.11 103.928V107.624H259.71V109.64H256.11V116.264C256.11 116.888 256.246 117.336 256.518 117.608C256.806 117.864 257.27 117.992 257.91 117.992C258.246 117.992 258.542 117.968 258.798 117.92C259.07 117.872 259.358 117.8 259.662 117.704V119.72C259.342 119.832 258.966 119.912 258.534 119.96C258.118 120.024 257.734 120.056 257.382 120.056ZM261.479 119.84V103.04L263.879 102.512V108.872C264.823 107.88 266.047 107.384 267.551 107.384C268.495 107.384 269.319 107.584 270.023 107.984C270.743 108.384 271.303 108.944 271.703 109.664C272.119 110.384 272.327 111.216 272.327 112.16V119.84H269.927V112.568C269.927 111.608 269.655 110.856 269.111 110.312C268.567 109.752 267.823 109.472 266.879 109.472C266.239 109.472 265.663 109.608 265.151 109.88C264.639 110.152 264.215 110.544 263.879 111.056V119.84H261.479ZM280.904 120.08C279.72 120.08 278.64 119.8 277.664 119.24C276.704 118.68 275.944 117.92 275.384 116.96C274.824 116 274.544 114.928 274.544 113.744C274.544 112.56 274.824 111.488 275.384 110.528C275.944 109.568 276.704 108.808 277.664 108.248C278.64 107.672 279.72 107.384 280.904 107.384C282.104 107.384 283.184 107.672 284.144 108.248C285.104 108.808 285.864 109.568 286.424 110.528C286.984 111.488 287.264 112.56 287.264 113.744C287.264 114.928 286.984 116 286.424 116.96C285.864 117.92 285.104 118.68 284.144 119.24C283.184 119.8 282.104 120.08 280.904 120.08ZM280.904 117.968C281.656 117.968 282.336 117.784 282.944 117.416C283.552 117.032 284.032 116.52 284.384 115.88C284.736 115.24 284.912 114.52 284.912 113.72C284.912 112.936 284.728 112.232 284.36 111.608C284.008 110.968 283.528 110.456 282.92 110.072C282.328 109.688 281.656 109.496 280.904 109.496C280.152 109.496 279.472 109.688 278.864 110.072C278.272 110.456 277.792 110.968 277.424 111.608C277.072 112.232 276.896 112.936 276.896 113.72C276.896 114.52 277.072 115.24 277.424 115.88C277.776 116.52 278.256 117.032 278.864 117.416C279.472 117.784 280.152 117.968 280.904 117.968ZM294.261 120.08C293.317 120.08 292.485 119.88 291.765 119.48C291.045 119.08 290.485 118.52 290.085 117.8C289.685 117.064 289.485 116.224 289.485 115.28V107.624H291.861V114.872C291.861 115.832 292.133 116.592 292.677 117.152C293.237 117.712 293.981 117.992 294.909 117.992C295.565 117.992 296.149 117.856 296.661 117.584C297.173 117.296 297.589 116.896 297.909 116.384V107.624H300.309V119.84H297.909V118.592C296.965 119.584 295.749 120.08 294.261 120.08ZM308.382 120.056C307.198 120.056 306.294 119.784 305.67 119.24C305.046 118.68 304.734 117.872 304.734 116.816V109.64H302.142V107.624H304.734V104.504L307.11 103.928V107.624H310.71V109.64H307.11V116.264C307.11 116.888 307.246 117.336 307.518 117.608C307.806 117.864 308.27 117.992 308.91 117.992C309.246 117.992 309.542 117.968 309.798 117.92C310.07 117.872 310.358 117.8 310.662 117.704V119.72C310.342 119.832 309.966 119.912 309.534 119.96C309.118 120.024 308.734 120.056 308.382 120.056ZM321.694 120.08C320.638 120.08 319.646 119.928 318.718 119.624C317.806 119.304 317.014 118.856 316.342 118.28L317.662 116.696C318.286 117.192 318.926 117.576 319.582 117.848C320.254 118.104 320.934 118.232 321.622 118.232C322.486 118.232 323.19 118.064 323.734 117.728C324.278 117.392 324.55 116.952 324.55 116.408C324.55 115.96 324.39 115.608 324.07 115.352C323.75 115.096 323.254 114.92 322.582 114.824L320.374 114.512C319.158 114.336 318.246 113.96 317.638 113.384C317.03 112.808 316.726 112.04 316.726 111.08C316.726 110.344 316.926 109.704 317.326 109.16C317.726 108.6 318.286 108.168 319.006 107.864C319.726 107.544 320.566 107.384 321.526 107.384C322.406 107.384 323.254 107.512 324.07 107.768C324.886 108.024 325.67 108.424 326.422 108.968L325.198 110.552C324.526 110.104 323.87 109.776 323.23 109.568C322.606 109.36 321.974 109.256 321.334 109.256C320.598 109.256 320.006 109.416 319.558 109.736C319.11 110.04 318.886 110.44 318.886 110.936C318.886 111.384 319.038 111.736 319.342 111.992C319.662 112.232 320.182 112.4 320.902 112.496L323.11 112.808C324.326 112.984 325.246 113.36 325.87 113.936C326.494 114.496 326.806 115.256 326.806 116.216C326.806 116.952 326.582 117.616 326.134 118.208C325.686 118.784 325.078 119.24 324.31 119.576C323.542 119.912 322.67 120.08 321.694 120.08ZM332.632 120.056C331.752 120.056 330.976 119.904 330.304 119.6C329.632 119.28 329.104 118.84 328.72 118.28C328.336 117.72 328.144 117.072 328.144 116.336C328.144 115.184 328.584 114.28 329.464 113.624C330.344 112.952 331.552 112.616 333.088 112.616C334.288 112.616 335.4 112.848 336.424 113.312V112.016C336.424 111.136 336.168 110.48 335.656 110.048C335.16 109.616 334.424 109.4 333.448 109.4C332.888 109.4 332.304 109.488 331.696 109.664C331.088 109.824 330.408 110.08 329.656 110.432L328.768 108.632C329.696 108.2 330.56 107.888 331.36 107.696C332.16 107.488 332.968 107.384 333.784 107.384C335.368 107.384 336.592 107.76 337.456 108.512C338.336 109.264 338.776 110.336 338.776 111.728V119.84H336.424V118.784C335.88 119.216 335.296 119.536 334.672 119.744C334.048 119.952 333.368 120.056 332.632 120.056ZM330.448 116.288C330.448 116.88 330.696 117.36 331.192 117.728C331.704 118.096 332.368 118.28 333.184 118.28C333.824 118.28 334.408 118.184 334.936 117.992C335.48 117.8 335.976 117.504 336.424 117.104V115.04C335.96 114.768 335.472 114.576 334.96 114.464C334.464 114.336 333.904 114.272 333.28 114.272C332.4 114.272 331.704 114.456 331.192 114.824C330.696 115.176 330.448 115.664 330.448 116.288ZM344.844 119.84L339.564 107.624H342.204L346.02 116.768L349.836 107.624H352.38L347.148 119.84H344.844ZM353.869 119.84V107.624H356.269V119.84H353.869ZM355.069 105.656C354.669 105.656 354.325 105.512 354.037 105.224C353.749 104.92 353.605 104.568 353.605 104.168C353.605 103.752 353.749 103.408 354.037 103.136C354.325 102.848 354.669 102.704 355.069 102.704C355.485 102.704 355.837 102.848 356.125 103.136C356.413 103.408 356.557 103.752 356.557 104.168C356.557 104.568 356.413 104.92 356.125 105.224C355.837 105.512 355.485 105.656 355.069 105.656ZM359.096 119.84V107.624H361.496V108.872C362.44 107.88 363.664 107.384 365.168 107.384C366.112 107.384 366.936 107.584 367.64 107.984C368.36 108.384 368.92 108.944 369.32 109.664C369.736 110.384 369.944 111.216 369.944 112.16V119.84H367.544V112.568C367.544 111.608 367.272 110.856 366.728 110.312C366.2 109.752 365.456 109.472 364.496 109.472C363.856 109.472 363.28 109.608 362.768 109.88C362.256 110.152 361.832 110.544 361.496 111.056V119.84H359.096ZM378.761 124.976C377.865 124.976 376.993 124.872 376.145 124.664C375.297 124.456 374.529 124.16 373.841 123.776L374.753 121.904C375.473 122.272 376.145 122.536 376.769 122.696C377.409 122.872 378.049 122.96 378.689 122.96C379.761 122.96 380.569 122.712 381.113 122.216C381.673 121.72 381.953 120.992 381.953 120.032V118.64C380.881 119.488 379.657 119.912 378.281 119.912C377.161 119.912 376.129 119.64 375.185 119.096C374.257 118.536 373.521 117.784 372.977 116.84C372.433 115.88 372.161 114.824 372.161 113.672C372.161 112.504 372.433 111.448 372.977 110.504C373.537 109.544 374.281 108.792 375.209 108.248C376.153 107.688 377.209 107.408 378.377 107.408C379.033 107.408 379.665 107.52 380.273 107.744C380.897 107.952 381.465 108.256 381.977 108.656V107.624H384.353V120.032C384.353 121.616 383.865 122.832 382.889 123.68C381.929 124.544 380.553 124.976 378.761 124.976ZM378.593 117.848C379.297 117.848 379.937 117.728 380.513 117.488C381.089 117.232 381.569 116.872 381.953 116.408V110.936C381.569 110.488 381.081 110.136 380.489 109.88C379.913 109.624 379.281 109.496 378.593 109.496C377.825 109.496 377.129 109.68 376.505 110.048C375.897 110.416 375.409 110.92 375.041 111.56C374.689 112.184 374.513 112.888 374.513 113.672C374.513 114.456 374.689 115.168 375.041 115.808C375.409 116.432 375.897 116.928 376.505 117.296C377.129 117.664 377.825 117.848 378.593 117.848ZM389.682 114.92C389.65 114.184 389.69 113.552 389.802 113.024C389.914 112.496 390.114 112.024 390.402 111.608C390.706 111.192 391.106 110.8 391.602 110.432L392.73 109.64C393.354 109.192 393.794 108.784 394.05 108.416C394.306 108.032 394.434 107.608 394.434 107.144C394.434 106.696 394.29 106.304 394.002 105.968C393.73 105.632 393.362 105.36 392.898 105.152C392.434 104.944 391.906 104.84 391.314 104.84C390.562 104.84 389.858 105.024 389.202 105.392C388.546 105.76 387.986 106.28 387.522 106.952L385.626 105.968C386.042 105.296 386.546 104.72 387.138 104.24C387.746 103.76 388.41 103.4 389.13 103.16C389.85 102.904 390.618 102.776 391.434 102.776C392.458 102.776 393.37 102.968 394.17 103.352C394.97 103.72 395.602 104.224 396.066 104.864C396.546 105.504 396.786 106.24 396.786 107.072C396.786 107.616 396.698 108.112 396.522 108.56C396.346 109.008 396.05 109.448 395.634 109.88C395.218 110.296 394.642 110.76 393.906 111.272L393.162 111.8C392.602 112.168 392.21 112.6 391.986 113.096C391.762 113.576 391.674 114.184 391.722 114.92H389.682ZM390.714 120.008C390.298 120.008 389.938 119.864 389.634 119.576C389.346 119.272 389.202 118.912 389.202 118.496C389.202 118.08 389.346 117.728 389.634 117.44C389.938 117.136 390.298 116.984 390.714 116.984C391.13 116.984 391.482 117.136 391.77 117.44C392.074 117.728 392.226 118.08 392.226 118.496C392.226 118.912 392.074 119.272 391.77 119.576C391.482 119.864 391.13 120.008 390.714 120.008Z" fill="white"/>
<path d="M96.162 163.84L101.148 151.24H102.804L107.718 163.84H106.224L104.73 159.88H99.114L97.62 163.84H96.162ZM99.546 158.782H104.316L101.922 152.5L99.546 158.782ZM109.233 163.84V150.844L110.547 150.574V163.84H109.233ZM113.241 163.84V150.844L114.555 150.574V163.84H113.241ZM124.582 163.984C123.958 163.984 123.406 163.846 122.926 163.57C122.446 163.294 122.068 162.91 121.792 162.418C121.528 161.926 121.396 161.362 121.396 160.726V155.056H122.728V160.348C122.728 161.128 122.938 161.746 123.358 162.202C123.778 162.658 124.348 162.886 125.068 162.886C125.56 162.886 125.998 162.772 126.382 162.544C126.778 162.316 127.108 161.986 127.372 161.554V155.056H128.686V163.84H127.372V162.418C127.036 162.934 126.634 163.324 126.166 163.588C125.71 163.852 125.182 163.984 124.582 163.984ZM131.381 163.84V155.056H132.695V156.478C133.031 155.95 133.433 155.56 133.901 155.308C134.369 155.044 134.897 154.912 135.485 154.912C136.121 154.912 136.673 155.05 137.141 155.326C137.621 155.59 137.993 155.968 138.257 156.46C138.533 156.94 138.671 157.504 138.671 158.152V163.84H137.357V158.53C137.357 157.75 137.141 157.138 136.709 156.694C136.289 156.238 135.719 156.01 134.999 156.01C134.519 156.01 134.081 156.124 133.685 156.352C133.289 156.58 132.959 156.916 132.695 157.36V163.84H131.381ZM144.031 164.02C143.311 164.02 142.645 163.912 142.033 163.696C141.421 163.468 140.899 163.144 140.467 162.724L141.169 161.86C141.697 162.244 142.183 162.526 142.627 162.706C143.071 162.874 143.527 162.958 143.995 162.958C144.631 162.958 145.159 162.808 145.579 162.508C145.999 162.208 146.209 161.824 146.209 161.356C146.209 160.996 146.083 160.714 145.831 160.51C145.591 160.306 145.189 160.15 144.625 160.042L143.185 159.79C142.333 159.634 141.703 159.37 141.295 158.998C140.899 158.626 140.701 158.122 140.701 157.486C140.701 156.982 140.833 156.538 141.097 156.154C141.373 155.77 141.751 155.47 142.231 155.254C142.711 155.026 143.257 154.912 143.869 154.912C144.469 154.912 145.039 155.002 145.579 155.182C146.119 155.35 146.665 155.626 147.217 156.01L146.569 156.928C146.113 156.604 145.657 156.37 145.201 156.226C144.745 156.07 144.283 155.992 143.815 155.992C143.239 155.992 142.777 156.118 142.429 156.37C142.081 156.622 141.907 156.964 141.907 157.396C141.907 157.756 142.015 158.032 142.231 158.224C142.459 158.416 142.855 158.56 143.419 158.656L144.895 158.926C145.783 159.082 146.431 159.352 146.839 159.736C147.247 160.12 147.451 160.636 147.451 161.284C147.451 161.8 147.301 162.268 147.001 162.688C146.701 163.096 146.293 163.42 145.777 163.66C145.261 163.9 144.679 164.02 144.031 164.02ZM152.257 164.002C151.633 164.002 151.081 163.888 150.601 163.66C150.121 163.432 149.743 163.12 149.467 162.724C149.203 162.316 149.071 161.848 149.071 161.32C149.071 160.792 149.209 160.336 149.485 159.952C149.761 159.556 150.145 159.25 150.637 159.034C151.129 158.818 151.705 158.71 152.365 158.71C152.869 158.71 153.343 158.764 153.787 158.872C154.243 158.98 154.663 159.154 155.047 159.394V158.188C155.047 157.468 154.855 156.928 154.471 156.568C154.087 156.196 153.523 156.01 152.779 156.01C152.371 156.01 151.951 156.07 151.519 156.19C151.099 156.31 150.631 156.502 150.115 156.766L149.629 155.758C150.805 155.194 151.909 154.912 152.941 154.912C154.033 154.912 154.873 155.182 155.461 155.722C156.049 156.25 156.343 157.012 156.343 158.008V163.84H155.047V162.814C154.663 163.21 154.237 163.51 153.769 163.714C153.301 163.906 152.797 164.002 152.257 164.002ZM150.331 161.284C150.331 161.8 150.529 162.214 150.925 162.526C151.333 162.838 151.867 162.994 152.527 162.994C153.019 162.994 153.469 162.91 153.877 162.742C154.297 162.574 154.687 162.322 155.047 161.986V160.294C154.675 160.078 154.291 159.922 153.895 159.826C153.499 159.718 153.055 159.664 152.563 159.664C151.891 159.664 151.351 159.814 150.943 160.114C150.535 160.402 150.331 160.792 150.331 161.284ZM161.183 163.84L157.583 155.056H159.005L161.849 162.202L164.657 155.056H166.061L162.443 163.84H161.183ZM171.376 164.02C170.56 164.02 169.822 163.822 169.162 163.426C168.502 163.018 167.98 162.472 167.596 161.788C167.212 161.092 167.02 160.312 167.02 159.448C167.02 158.584 167.2 157.81 167.56 157.126C167.932 156.442 168.43 155.902 169.054 155.506C169.678 155.11 170.374 154.912 171.142 154.912C171.922 154.912 172.612 155.11 173.212 155.506C173.824 155.89 174.304 156.418 174.652 157.09C175.012 157.75 175.192 158.5 175.192 159.34V159.736H168.298C168.346 160.336 168.508 160.876 168.784 161.356C169.072 161.824 169.444 162.196 169.9 162.472C170.368 162.736 170.878 162.868 171.43 162.868C171.886 162.868 172.324 162.79 172.744 162.634C173.176 162.466 173.542 162.244 173.842 161.968L174.67 162.85C174.166 163.246 173.644 163.54 173.104 163.732C172.564 163.924 171.988 164.02 171.376 164.02ZM168.334 158.8H173.896C173.836 158.272 173.674 157.804 173.41 157.396C173.158 156.976 172.834 156.646 172.438 156.406C172.054 156.166 171.622 156.046 171.142 156.046C170.662 156.046 170.224 156.166 169.828 156.406C169.432 156.634 169.102 156.958 168.838 157.378C168.586 157.786 168.418 158.26 168.334 158.8ZM181.09 163.966C180.334 163.966 179.65 163.768 179.038 163.372C178.426 162.964 177.94 162.424 177.58 161.752C177.22 161.068 177.04 160.306 177.04 159.466C177.04 158.614 177.22 157.852 177.58 157.18C177.952 156.496 178.45 155.956 179.074 155.56C179.698 155.152 180.394 154.948 181.162 154.948C181.702 154.948 182.206 155.056 182.674 155.272C183.142 155.476 183.55 155.776 183.898 156.172V150.844L185.212 150.574V163.84H183.898V162.67C183.562 163.09 183.154 163.414 182.674 163.642C182.194 163.858 181.666 163.966 181.09 163.966ZM181.414 162.814C181.93 162.814 182.404 162.712 182.836 162.508C183.268 162.304 183.622 162.016 183.898 161.644V157.288C183.61 156.916 183.244 156.628 182.8 156.424C182.368 156.208 181.906 156.1 181.414 156.1C180.826 156.1 180.298 156.244 179.83 156.532C179.374 156.82 179.008 157.216 178.732 157.72C178.468 158.224 178.336 158.8 178.336 159.448C178.336 160.084 178.468 160.66 178.732 161.176C179.008 161.68 179.374 162.082 179.83 162.382C180.298 162.67 180.826 162.814 181.414 162.814ZM192.096 163.84V155.056H193.41V163.84H192.096ZM192.762 152.878C192.498 152.878 192.27 152.788 192.078 152.608C191.898 152.416 191.808 152.194 191.808 151.942C191.808 151.69 191.898 151.474 192.078 151.294C192.27 151.102 192.498 151.006 192.762 151.006C193.026 151.006 193.248 151.102 193.428 151.294C193.62 151.474 193.716 151.69 193.716 151.942C193.716 152.194 193.62 152.416 193.428 152.608C193.248 152.788 193.026 152.878 192.762 152.878ZM196.104 163.84V155.056H197.418V156.478C197.754 155.95 198.156 155.56 198.624 155.308C199.092 155.044 199.62 154.912 200.208 154.912C200.844 154.912 201.396 155.05 201.864 155.326C202.344 155.59 202.716 155.968 202.98 156.46C203.256 156.94 203.394 157.504 203.394 158.152V163.84H202.08V158.53C202.08 157.75 201.864 157.138 201.432 156.694C201.012 156.238 200.442 156.01 199.722 156.01C199.242 156.01 198.804 156.124 198.408 156.352C198.012 156.58 197.682 156.916 197.418 157.36V163.84H196.104ZM206.888 163.84V156.136H204.926V155.056H206.888V153.22C206.888 152.356 207.116 151.69 207.572 151.222C208.028 150.754 208.676 150.52 209.516 150.52C209.756 150.52 209.972 150.532 210.164 150.556C210.368 150.58 210.548 150.622 210.704 150.682V151.87C210.512 151.81 210.338 151.768 210.182 151.744C210.026 151.72 209.846 151.708 209.642 151.708C209.138 151.708 208.772 151.834 208.544 152.086C208.316 152.326 208.202 152.71 208.202 153.238V155.056H210.704V156.136H208.202V163.84H206.888ZM215.953 163.984C215.137 163.984 214.405 163.786 213.757 163.39C213.109 162.994 212.599 162.454 212.227 161.77C211.855 161.086 211.669 160.312 211.669 159.448C211.669 158.584 211.855 157.81 212.227 157.126C212.599 156.442 213.109 155.902 213.757 155.506C214.405 155.11 215.137 154.912 215.953 154.912C216.757 154.912 217.477 155.11 218.113 155.506C218.761 155.902 219.271 156.442 219.643 157.126C220.015 157.81 220.201 158.584 220.201 159.448C220.201 160.312 220.015 161.086 219.643 161.77C219.271 162.454 218.761 162.994 218.113 163.39C217.477 163.786 216.757 163.984 215.953 163.984ZM215.935 162.832C216.511 162.832 217.021 162.688 217.465 162.4C217.909 162.1 218.257 161.692 218.509 161.176C218.773 160.66 218.905 160.084 218.905 159.448C218.905 158.8 218.773 158.224 218.509 157.72C218.257 157.204 217.909 156.802 217.465 156.514C217.021 156.214 216.511 156.064 215.935 156.064C215.359 156.064 214.849 156.214 214.405 156.514C213.961 156.802 213.607 157.204 213.343 157.72C213.091 158.224 212.965 158.8 212.965 159.448C212.965 160.084 213.091 160.66 213.343 161.176C213.607 161.692 213.961 162.1 214.405 162.4C214.849 162.688 215.359 162.832 215.935 162.832ZM222.506 163.84V155.056H223.82V156.856C224.048 156.244 224.372 155.77 224.792 155.434C225.224 155.086 225.716 154.912 226.268 154.912C226.424 154.912 226.568 154.924 226.7 154.948C226.832 154.96 226.964 154.99 227.096 155.038V156.226C226.952 156.178 226.796 156.142 226.628 156.118C226.472 156.082 226.322 156.064 226.178 156.064C225.638 156.064 225.164 156.22 224.756 156.532C224.36 156.844 224.048 157.282 223.82 157.846V163.84H222.506ZM228.834 163.84V155.056H230.148V156.424C230.484 155.92 230.868 155.542 231.3 155.29C231.732 155.038 232.218 154.912 232.758 154.912C233.382 154.912 233.928 155.068 234.396 155.38C234.864 155.68 235.218 156.094 235.458 156.622C235.806 156.058 236.22 155.632 236.7 155.344C237.192 155.056 237.756 154.912 238.392 154.912C238.98 154.912 239.496 155.05 239.94 155.326C240.396 155.602 240.75 155.986 241.002 156.478C241.254 156.958 241.38 157.522 241.38 158.17V163.84H240.066V158.494C240.066 157.726 239.874 157.12 239.49 156.676C239.106 156.232 238.578 156.01 237.906 156.01C237.45 156.01 237.036 156.124 236.664 156.352C236.304 156.58 235.986 156.928 235.71 157.396C235.734 157.516 235.752 157.642 235.764 157.774C235.776 157.906 235.782 158.038 235.782 158.17V163.84H234.468V158.494C234.468 157.726 234.27 157.12 233.874 156.676C233.49 156.232 232.962 156.01 232.29 156.01C231.39 156.01 230.676 156.442 230.148 157.306V163.84H228.834ZM246.757 164.002C246.133 164.002 245.581 163.888 245.101 163.66C244.621 163.432 244.243 163.12 243.967 162.724C243.703 162.316 243.571 161.848 243.571 161.32C243.571 160.792 243.709 160.336 243.985 159.952C244.261 159.556 244.645 159.25 245.137 159.034C245.629 158.818 246.205 158.71 246.865 158.71C247.369 158.71 247.843 158.764 248.287 158.872C248.743 158.98 249.163 159.154 249.547 159.394V158.188C249.547 157.468 249.355 156.928 248.971 156.568C248.587 156.196 248.023 156.01 247.279 156.01C246.871 156.01 246.451 156.07 246.019 156.19C245.599 156.31 245.131 156.502 244.615 156.766L244.129 155.758C245.305 155.194 246.409 154.912 247.441 154.912C248.533 154.912 249.373 155.182 249.961 155.722C250.549 156.25 250.843 157.012 250.843 158.008V163.84H249.547V162.814C249.163 163.21 248.737 163.51 248.269 163.714C247.801 163.906 247.297 164.002 246.757 164.002ZM244.831 161.284C244.831 161.8 245.029 162.214 245.425 162.526C245.833 162.838 246.367 162.994 247.027 162.994C247.519 162.994 247.969 162.91 248.377 162.742C248.797 162.574 249.187 162.322 249.547 161.986V160.294C249.175 160.078 248.791 159.922 248.395 159.826C247.999 159.718 247.555 159.664 247.063 159.664C246.391 159.664 245.851 159.814 245.443 160.114C245.035 160.402 244.831 160.792 244.831 161.284ZM256.598 164.02C255.842 164.02 255.266 163.84 254.87 163.48C254.486 163.108 254.294 162.574 254.294 161.878V156.136H252.476V155.056H254.294V152.644L255.608 152.338V155.056H258.128V156.136H255.608V161.536C255.608 162.004 255.704 162.34 255.896 162.544C256.1 162.748 256.43 162.85 256.886 162.85C257.114 162.85 257.318 162.832 257.498 162.796C257.678 162.76 257.888 162.7 258.128 162.616V163.786C257.888 163.87 257.636 163.93 257.372 163.966C257.108 164.002 256.85 164.02 256.598 164.02ZM260.035 163.84V155.056H261.349V163.84H260.035ZM260.701 152.878C260.437 152.878 260.209 152.788 260.017 152.608C259.837 152.416 259.747 152.194 259.747 151.942C259.747 151.69 259.837 151.474 260.017 151.294C260.209 151.102 260.437 151.006 260.701 151.006C260.965 151.006 261.187 151.102 261.367 151.294C261.559 151.474 261.655 151.69 261.655 151.942C261.655 152.194 261.559 152.416 261.367 152.608C261.187 152.788 260.965 152.878 260.701 152.878ZM267.931 163.984C267.115 163.984 266.383 163.786 265.735 163.39C265.087 162.994 264.577 162.454 264.205 161.77C263.833 161.086 263.647 160.312 263.647 159.448C263.647 158.584 263.833 157.81 264.205 157.126C264.577 156.442 265.087 155.902 265.735 155.506C266.383 155.11 267.115 154.912 267.931 154.912C268.735 154.912 269.455 155.11 270.091 155.506C270.739 155.902 271.249 156.442 271.621 157.126C271.993 157.81 272.179 158.584 272.179 159.448C272.179 160.312 271.993 161.086 271.621 161.77C271.249 162.454 270.739 162.994 270.091 163.39C269.455 163.786 268.735 163.984 267.931 163.984ZM267.913 162.832C268.489 162.832 268.999 162.688 269.443 162.4C269.887 162.1 270.235 161.692 270.487 161.176C270.751 160.66 270.883 160.084 270.883 159.448C270.883 158.8 270.751 158.224 270.487 157.72C270.235 157.204 269.887 156.802 269.443 156.514C268.999 156.214 268.489 156.064 267.913 156.064C267.337 156.064 266.827 156.214 266.383 156.514C265.939 156.802 265.585 157.204 265.321 157.72C265.069 158.224 264.943 158.8 264.943 159.448C264.943 160.084 265.069 160.66 265.321 161.176C265.585 161.692 265.939 162.1 266.383 162.4C266.827 162.688 267.337 162.832 267.913 162.832ZM274.485 163.84V155.056H275.799V156.478C276.135 155.95 276.537 155.56 277.005 155.308C277.473 155.044 278.001 154.912 278.589 154.912C279.225 154.912 279.777 155.05 280.245 155.326C280.725 155.59 281.097 155.968 281.361 156.46C281.637 156.94 281.775 157.504 281.775 158.152V163.84H280.461V158.53C280.461 157.75 280.245 157.138 279.813 156.694C279.393 156.238 278.823 156.01 278.103 156.01C277.623 156.01 277.185 156.124 276.789 156.352C276.393 156.58 276.063 156.916 275.799 157.36V163.84H274.485ZM290.184 163.84L287.772 155.056H289.05L290.886 162.076L292.992 155.056H294.162L296.268 162.076L298.086 155.056H299.328L296.934 163.84H295.656L293.568 156.748L291.48 163.84H290.184ZM301.168 163.84V155.056H302.482V163.84H301.168ZM301.834 152.878C301.57 152.878 301.342 152.788 301.15 152.608C300.97 152.416 300.88 152.194 300.88 151.942C300.88 151.69 300.97 151.474 301.15 151.294C301.342 151.102 301.57 151.006 301.834 151.006C302.098 151.006 302.32 151.102 302.5 151.294C302.692 151.474 302.788 151.69 302.788 151.942C302.788 152.194 302.692 152.416 302.5 152.608C302.32 152.788 302.098 152.878 301.834 152.878ZM305.176 163.84V150.844L306.49 150.574V163.84H305.176ZM309.184 163.84V150.844L310.498 150.574V163.84H309.184ZM317.393 163.84V150.97L318.707 150.7V156.262C319.043 155.842 319.451 155.518 319.931 155.29C320.411 155.062 320.945 154.948 321.533 154.948C322.301 154.948 322.985 155.152 323.585 155.56C324.197 155.956 324.683 156.496 325.043 157.18C325.403 157.852 325.583 158.608 325.583 159.448C325.583 160.288 325.397 161.05 325.025 161.734C324.665 162.418 324.173 162.964 323.549 163.372C322.937 163.768 322.241 163.966 321.461 163.966C320.909 163.966 320.393 163.858 319.913 163.642C319.445 163.414 319.037 163.096 318.689 162.688V163.84H317.393ZM321.209 162.832C321.797 162.832 322.319 162.688 322.775 162.4C323.243 162.1 323.609 161.698 323.873 161.194C324.149 160.678 324.287 160.102 324.287 159.466C324.287 158.818 324.149 158.242 323.873 157.738C323.609 157.234 323.243 156.838 322.775 156.55C322.319 156.25 321.797 156.1 321.209 156.1C320.693 156.1 320.213 156.208 319.769 156.424C319.337 156.628 318.983 156.922 318.707 157.306V161.608C318.995 161.992 319.355 162.292 319.787 162.508C320.231 162.724 320.705 162.832 321.209 162.832ZM331.847 164.02C331.031 164.02 330.293 163.822 329.633 163.426C328.973 163.018 328.451 162.472 328.067 161.788C327.683 161.092 327.491 160.312 327.491 159.448C327.491 158.584 327.671 157.81 328.031 157.126C328.403 156.442 328.901 155.902 329.525 155.506C330.149 155.11 330.845 154.912 331.613 154.912C332.393 154.912 333.083 155.11 333.683 155.506C334.295 155.89 334.775 156.418 335.123 157.09C335.483 157.75 335.663 158.5 335.663 159.34V159.736H328.769C328.817 160.336 328.979 160.876 329.255 161.356C329.543 161.824 329.915 162.196 330.371 162.472C330.839 162.736 331.349 162.868 331.901 162.868C332.357 162.868 332.795 162.79 333.215 162.634C333.647 162.466 334.013 162.244 334.313 161.968L335.141 162.85C334.637 163.246 334.115 163.54 333.575 163.732C333.035 163.924 332.459 164.02 331.847 164.02ZM328.805 158.8H334.367C334.307 158.272 334.145 157.804 333.881 157.396C333.629 156.976 333.305 156.646 332.909 156.406C332.525 156.166 332.093 156.046 331.613 156.046C331.133 156.046 330.695 156.166 330.299 156.406C329.903 156.634 329.573 156.958 329.309 157.378C329.057 157.786 328.889 158.26 328.805 158.8ZM342.108 163.84V150.844L343.422 150.574V163.84H342.108ZM350.004 163.984C349.188 163.984 348.456 163.786 347.808 163.39C347.16 162.994 346.65 162.454 346.278 161.77C345.906 161.086 345.72 160.312 345.72 159.448C345.72 158.584 345.906 157.81 346.278 157.126C346.65 156.442 347.16 155.902 347.808 155.506C348.456 155.11 349.188 154.912 350.004 154.912C350.808 154.912 351.528 155.11 352.164 155.506C352.812 155.902 353.322 156.442 353.694 157.126C354.066 157.81 354.252 158.584 354.252 159.448C354.252 160.312 354.066 161.086 353.694 161.77C353.322 162.454 352.812 162.994 352.164 163.39C351.528 163.786 350.808 163.984 350.004 163.984ZM349.986 162.832C350.562 162.832 351.072 162.688 351.516 162.4C351.96 162.1 352.308 161.692 352.56 161.176C352.824 160.66 352.956 160.084 352.956 159.448C352.956 158.8 352.824 158.224 352.56 157.72C352.308 157.204 351.96 156.802 351.516 156.514C351.072 156.214 350.562 156.064 349.986 156.064C349.41 156.064 348.9 156.214 348.456 156.514C348.012 156.802 347.658 157.204 347.394 157.72C347.142 158.224 347.016 158.8 347.016 159.448C347.016 160.084 347.142 160.66 347.394 161.176C347.658 161.692 348.012 162.1 348.456 162.4C348.9 162.688 349.41 162.832 349.986 162.832ZM359.275 164.02C358.555 164.02 357.889 163.912 357.277 163.696C356.665 163.468 356.143 163.144 355.711 162.724L356.413 161.86C356.941 162.244 357.427 162.526 357.871 162.706C358.315 162.874 358.771 162.958 359.239 162.958C359.875 162.958 360.403 162.808 360.823 162.508C361.243 162.208 361.453 161.824 361.453 161.356C361.453 160.996 361.327 160.714 361.075 160.51C360.835 160.306 360.433 160.15 359.869 160.042L358.429 159.79C357.577 159.634 356.947 159.37 356.539 158.998C356.143 158.626 355.945 158.122 355.945 157.486C355.945 156.982 356.077 156.538 356.341 156.154C356.617 155.77 356.995 155.47 357.475 155.254C357.955 155.026 358.501 154.912 359.113 154.912C359.713 154.912 360.283 155.002 360.823 155.182C361.363 155.35 361.909 155.626 362.461 156.01L361.813 156.928C361.357 156.604 360.901 156.37 360.445 156.226C359.989 156.07 359.527 155.992 359.059 155.992C358.483 155.992 358.021 156.118 357.673 156.37C357.325 156.622 357.151 156.964 357.151 157.396C357.151 157.756 357.259 158.032 357.475 158.224C357.703 158.416 358.099 158.56 358.663 158.656L360.139 158.926C361.027 159.082 361.675 159.352 362.083 159.736C362.491 160.12 362.695 160.636 362.695 161.284C362.695 161.8 362.545 162.268 362.245 162.688C361.945 163.096 361.537 163.42 361.021 163.66C360.505 163.9 359.923 164.02 359.275 164.02ZM367.868 164.02C367.112 164.02 366.536 163.84 366.14 163.48C365.756 163.108 365.564 162.574 365.564 161.878V156.136H363.746V155.056H365.564V152.644L366.878 152.338V155.056H369.398V156.136H366.878V161.536C366.878 162.004 366.974 162.34 367.166 162.544C367.37 162.748 367.7 162.85 368.156 162.85C368.384 162.85 368.588 162.832 368.768 162.796C368.948 162.76 369.158 162.7 369.398 162.616V163.786C369.158 163.87 368.906 163.93 368.642 163.966C368.378 164.002 368.12 164.02 367.868 164.02ZM372.223 163.984C371.959 163.984 371.731 163.888 371.539 163.696C371.359 163.504 371.269 163.276 371.269 163.012C371.269 162.736 371.359 162.508 371.539 162.328C371.731 162.136 371.959 162.04 372.223 162.04C372.487 162.04 372.709 162.136 372.889 162.328C373.081 162.508 373.177 162.736 373.177 163.012C373.177 163.276 373.081 163.504 372.889 163.696C372.709 163.888 372.487 163.984 372.223 163.984Z" fill="white"/>
<rect x="96" y="194.84" width="75" height="36" rx="3" fill="#0066CC"/>
<path d="M113.424 218.84V207.64H114.656V217.752H120.976V218.84H113.424ZM126.033 219C125.307 219 124.651 218.824 124.065 218.472C123.478 218.109 123.014 217.624 122.673 217.016C122.331 216.397 122.161 215.704 122.161 214.936C122.161 214.168 122.321 213.48 122.641 212.872C122.971 212.264 123.414 211.784 123.969 211.432C124.523 211.08 125.142 210.904 125.825 210.904C126.518 210.904 127.131 211.08 127.665 211.432C128.209 211.773 128.635 212.243 128.945 212.84C129.265 213.427 129.425 214.093 129.425 214.84V215.192H123.297C123.339 215.725 123.483 216.205 123.729 216.632C123.985 217.048 124.315 217.379 124.721 217.624C125.137 217.859 125.59 217.976 126.081 217.976C126.486 217.976 126.875 217.907 127.249 217.768C127.633 217.619 127.958 217.421 128.225 217.176L128.961 217.96C128.513 218.312 128.049 218.573 127.569 218.744C127.089 218.915 126.577 219 126.033 219ZM123.329 214.36H128.273C128.219 213.891 128.075 213.475 127.841 213.112C127.617 212.739 127.329 212.445 126.977 212.232C126.635 212.019 126.251 211.912 125.825 211.912C125.398 211.912 125.009 212.019 124.657 212.232C124.305 212.435 124.011 212.723 123.777 213.096C123.553 213.459 123.403 213.88 123.329 214.36ZM133.679 218.984C133.124 218.984 132.633 218.883 132.207 218.68C131.78 218.477 131.444 218.2 131.199 217.848C130.964 217.485 130.847 217.069 130.847 216.6C130.847 216.131 130.969 215.725 131.215 215.384C131.46 215.032 131.801 214.76 132.239 214.568C132.676 214.376 133.188 214.28 133.775 214.28C134.223 214.28 134.644 214.328 135.039 214.424C135.444 214.52 135.817 214.675 136.159 214.888V213.816C136.159 213.176 135.988 212.696 135.647 212.376C135.305 212.045 134.804 211.88 134.143 211.88C133.78 211.88 133.407 211.933 133.023 212.04C132.649 212.147 132.233 212.317 131.775 212.552L131.343 211.656C132.388 211.155 133.369 210.904 134.286 210.904C135.257 210.904 136.004 211.144 136.527 211.624C137.049 212.093 137.311 212.771 137.311 213.656V218.84H136.159V217.928C135.817 218.28 135.439 218.547 135.023 218.728C134.607 218.899 134.159 218.984 133.679 218.984ZM131.967 216.568C131.967 217.027 132.143 217.395 132.495 217.672C132.857 217.949 133.332 218.088 133.919 218.088C134.356 218.088 134.756 218.013 135.119 217.864C135.492 217.715 135.839 217.491 136.159 217.192V215.688C135.828 215.496 135.487 215.357 135.135 215.272C134.783 215.176 134.388 215.128 133.951 215.128C133.353 215.128 132.873 215.261 132.511 215.528C132.148 215.784 131.967 216.131 131.967 216.568ZM141.612 218.84L138.412 211.032H139.676L142.204 217.384L144.7 211.032H145.948L142.732 218.84H141.612ZM150.673 219C149.948 219 149.292 218.824 148.705 218.472C148.118 218.109 147.654 217.624 147.313 217.016C146.972 216.397 146.801 215.704 146.801 214.936C146.801 214.168 146.961 213.48 147.281 212.872C147.612 212.264 148.054 211.784 148.609 211.432C149.164 211.08 149.782 210.904 150.465 210.904C151.158 210.904 151.772 211.08 152.305 211.432C152.849 211.773 153.276 212.243 153.585 212.84C153.905 213.427 154.065 214.093 154.065 214.84V215.192H147.937C147.98 215.725 148.124 216.205 148.369 216.632C148.625 217.048 148.956 217.379 149.361 217.624C149.777 217.859 150.23 217.976 150.721 217.976C151.126 217.976 151.516 217.907 151.889 217.768C152.273 217.619 152.598 217.421 152.865 217.176L153.601 217.96C153.153 218.312 152.689 218.573 152.209 218.744C151.729 218.915 151.217 219 150.673 219ZM147.969 214.36H152.913C152.86 213.891 152.716 213.475 152.481 213.112C152.257 212.739 151.969 212.445 151.617 212.232C151.276 212.019 150.892 211.912 150.465 211.912C150.038 211.912 149.649 212.019 149.297 212.232C148.945 212.435 148.652 212.723 148.417 213.096C148.193 213.459 148.044 213.88 147.969 214.36Z" fill="white"/>
<path d="M201.592 219.016C200.792 219.016 200.045 218.872 199.352 218.584C198.669 218.285 198.067 217.875 197.544 217.352C197.021 216.819 196.616 216.205 196.328 215.512C196.04 214.808 195.896 214.051 195.896 213.24C195.896 212.429 196.04 211.677 196.328 210.984C196.616 210.28 197.021 209.667 197.544 209.144C198.067 208.611 198.669 208.2 199.352 207.912C200.045 207.613 200.792 207.464 201.592 207.464C202.147 207.464 202.675 207.539 203.176 207.688C203.688 207.827 204.168 208.035 204.616 208.312C205.064 208.579 205.464 208.909 205.816 209.304L205 210.152C204.584 209.651 204.072 209.267 203.464 209C202.867 208.723 202.243 208.584 201.592 208.584C200.963 208.584 200.376 208.701 199.832 208.936C199.288 209.171 198.813 209.501 198.408 209.928C198.013 210.355 197.704 210.851 197.48 211.416C197.256 211.971 197.144 212.579 197.144 213.24C197.144 213.891 197.256 214.499 197.48 215.064C197.704 215.629 198.013 216.125 198.408 216.552C198.813 216.979 199.288 217.309 199.832 217.544C200.376 217.779 200.963 217.896 201.592 217.896C202.243 217.896 202.867 217.757 203.464 217.48C204.072 217.203 204.584 216.819 205 216.328L205.816 217.176C205.464 217.571 205.064 217.907 204.616 218.184C204.168 218.451 203.688 218.659 203.176 218.808C202.675 218.947 202.147 219.016 201.592 219.016ZM210.225 218.984C209.671 218.984 209.18 218.883 208.753 218.68C208.327 218.477 207.991 218.2 207.745 217.848C207.511 217.485 207.393 217.069 207.393 216.6C207.393 216.131 207.516 215.725 207.761 215.384C208.007 215.032 208.348 214.76 208.785 214.568C209.223 214.376 209.735 214.28 210.321 214.28C210.769 214.28 211.191 214.328 211.585 214.424C211.991 214.52 212.364 214.675 212.705 214.888V213.816C212.705 213.176 212.535 212.696 212.193 212.376C211.852 212.045 211.351 211.88 210.689 211.88C210.327 211.88 209.953 211.933 209.569 212.04C209.196 212.147 208.78 212.317 208.321 212.552L207.889 211.656C208.935 211.155 209.916 210.904 210.833 210.904C211.804 210.904 212.551 211.144 213.073 211.624C213.596 212.093 213.857 212.771 213.857 213.656V218.84H212.705V217.928C212.364 218.28 211.985 218.547 211.569 218.728C211.153 218.899 210.705 218.984 210.225 218.984ZM208.513 216.568C208.513 217.027 208.689 217.395 209.041 217.672C209.404 217.949 209.879 218.088 210.465 218.088C210.903 218.088 211.303 218.013 211.665 217.864C212.039 217.715 212.385 217.491 212.705 217.192V215.688C212.375 215.496 212.033 215.357 211.681 215.272C211.329 215.176 210.935 215.128 210.497 215.128C209.9 215.128 209.42 215.261 209.057 215.528C208.695 215.784 208.513 216.131 208.513 216.568ZM216.231 218.84V211.032H217.399V212.296C217.698 211.827 218.055 211.48 218.471 211.256C218.887 211.021 219.357 210.904 219.879 210.904C220.445 210.904 220.935 211.027 221.351 211.272C221.778 211.507 222.109 211.843 222.343 212.28C222.589 212.707 222.711 213.208 222.711 213.784V218.84H221.543V214.12C221.543 213.427 221.351 212.883 220.967 212.488C220.594 212.083 220.087 211.88 219.447 211.88C219.021 211.88 218.631 211.981 218.279 212.184C217.927 212.387 217.634 212.685 217.399 213.08V218.84H216.231ZM228.563 218.968C227.838 218.968 227.182 218.792 226.595 218.44C226.019 218.077 225.561 217.592 225.219 216.984C224.878 216.365 224.707 215.683 224.707 214.936C224.707 214.179 224.878 213.496 225.219 212.888C225.561 212.28 226.019 211.8 226.595 211.448C227.182 211.085 227.838 210.904 228.563 210.904C229.139 210.904 229.689 211.011 230.211 211.224C230.734 211.437 231.187 211.736 231.571 212.12L230.819 212.936C230.542 212.627 230.206 212.387 229.811 212.216C229.417 212.045 229.017 211.96 228.611 211.96C228.099 211.96 227.635 212.093 227.219 212.36C226.814 212.627 226.489 212.984 226.243 213.432C225.998 213.88 225.875 214.381 225.875 214.936C225.875 215.491 225.998 215.992 226.243 216.44C226.489 216.888 226.814 217.245 227.219 217.512C227.635 217.779 228.099 217.912 228.611 217.912C229.017 217.912 229.417 217.827 229.811 217.656C230.206 217.475 230.542 217.235 230.819 216.936L231.571 217.752C231.187 218.136 230.734 218.435 230.211 218.648C229.689 218.861 229.139 218.968 228.563 218.968ZM236.486 219C235.76 219 235.104 218.824 234.518 218.472C233.931 218.109 233.467 217.624 233.126 217.016C232.784 216.397 232.614 215.704 232.614 214.936C232.614 214.168 232.774 213.48 233.094 212.872C233.424 212.264 233.867 211.784 234.422 211.432C234.976 211.08 235.595 210.904 236.278 210.904C236.971 210.904 237.584 211.08 238.118 211.432C238.662 211.773 239.088 212.243 239.398 212.84C239.718 213.427 239.878 214.093 239.878 214.84V215.192H233.75C233.792 215.725 233.936 216.205 234.182 216.632C234.438 217.048 234.768 217.379 235.174 217.624C235.59 217.859 236.043 217.976 236.534 217.976C236.939 217.976 237.328 217.907 237.702 217.768C238.086 217.619 238.411 217.421 238.678 217.176L239.414 217.96C238.966 218.312 238.502 218.573 238.022 218.744C237.542 218.915 237.03 219 236.486 219ZM233.782 214.36H238.726C238.672 213.891 238.528 213.475 238.294 213.112C238.07 212.739 237.782 212.445 237.43 212.232C237.088 212.019 236.704 211.912 236.278 211.912C235.851 211.912 235.462 212.019 235.11 212.232C234.758 212.435 234.464 212.723 234.23 213.096C234.006 213.459 233.856 213.88 233.782 214.36ZM241.872 218.84V207.288L243.04 207.048V218.84H241.872Z" fill="#92C5F9"/>
<g clip-path="url(#clip0_12049_1887)">
<path d="M895.45 107.78L901.05 102.18C901.27 101.96 901.27 101.605 901.05 101.385C900.83 101.165 900.475 101.165 900.255 101.385L894.655 106.985L889.055 101.38C888.835 101.16 888.48 101.16 888.26 101.38C888.04 101.6 888.04 101.955 888.26 102.175L893.86 107.775L888.255 113.38C888.035 113.6 888.035 113.955 888.255 114.175C888.365 114.285 888.51 114.34 888.655 114.34C888.8 114.34 888.945 114.285 889.055 114.175L894.655 108.575L900.255 114.175C900.365 114.285 900.51 114.34 900.655 114.34C900.8 114.34 900.945 114.285 901.055 114.175C901.275 113.955 901.275 113.6 901.055 113.38L895.455 107.78H895.45Z" fill="white"/>
</g>
<defs>
<filter id="filter0_d_12049_1887" x="32" y="48" width="936" height="263" filterUnits="userSpaceOnUse" color-interpolation-filters="sRGB">
<feFlood flood-opacity="0" result="BackgroundImageFix"/>
<feColorMatrix in="SourceAlpha" type="matrix" values="0 0 0 0 0 0 0 0 0 0 0 0 0 0 0 0 0 0 127 0" result="hardAlpha"/>
<feOffset dy="16"/>
<feGaussianBlur stdDeviation="16"/>
<feComposite in2="hardAlpha" operator="out"/>
<feColorMatrix type="matrix" values="0 0 0 0 0.0823529 0 0 0 0 0.0823529 0 0 0 0 0.0823529 0 0 0 0.35 0"/>
<feBlend mode="normal" in2="BackgroundImageFix" result="effect1_dropShadow_12049_1887"/>
<feBlend mode="normal" in="SourceGraphic" in2="effect1_dropShadow_12049_1887" result="shape"/>
</filter>
<clipPath id="clip0_12049_1887">
<rect width="16" height="16" fill="white" transform="translate(886.655 99.78)"/>
</clipPath>
</defs>
</svg>
