<svg width="1000" height="327" viewBox="0 0 1000 327" fill="none" xmlns="http://www.w3.org/2000/svg">
<rect width="1000" height="327" fill="#151515" fill-opacity="0.5"/>
<g filter="url(#filter0_d_12003_1483)">
<rect x="64" y="64" width="872" height="199" rx="3" fill="white" shape-rendering="crispEdges"/>
<rect x="879" y="95" width="26" height="26" rx="3" stroke="#0066CC" stroke-width="2"/>
<g clip-path="url(#clip0_12003_1483)">
<path d="M892.795 108L898.395 102.4C898.615 102.18 898.615 101.825 898.395 101.605C898.175 101.385 897.82 101.385 897.6 101.605L892 107.205L886.4 101.6C886.18 101.38 885.825 101.38 885.605 101.6C885.385 101.82 885.385 102.175 885.605 102.395L891.205 107.995L885.6 113.6C885.38 113.82 885.38 114.175 885.6 114.395C885.71 114.505 885.855 114.56 886 114.56C886.145 114.56 886.29 114.505 886.4 114.395L892 108.795L897.6 114.395C897.71 114.505 897.855 114.56 898 114.56C898.145 114.56 898.29 114.505 898.4 114.395C898.62 114.175 898.62 113.82 898.4 113.6L892.8 108H892.795Z" fill="#151515"/>
</g>
<path d="M97.704 120V103.2H100.224V117.768H109.896V120H97.704ZM117.405 120.216C116.205 120.216 115.117 119.936 114.141 119.376C113.181 118.816 112.413 118.056 111.837 117.096C111.277 116.136 110.997 115.064 110.997 113.88C110.997 112.712 111.269 111.656 111.813 110.712C112.357 109.752 113.093 108.992 114.021 108.432C114.949 107.856 115.981 107.568 117.117 107.568C118.253 107.568 119.261 107.856 120.141 108.432C121.021 108.992 121.717 109.76 122.229 110.736C122.757 111.696 123.021 112.784 123.021 114V114.672H113.397C113.525 115.344 113.773 115.944 114.141 116.472C114.525 117 115.005 117.416 115.581 117.72C116.173 118.024 116.813 118.176 117.501 118.176C118.093 118.176 118.661 118.088 119.205 117.912C119.765 117.72 120.229 117.448 120.597 117.096L122.133 118.608C121.413 119.152 120.669 119.56 119.901 119.832C119.149 120.088 118.317 120.216 117.405 120.216ZM113.421 112.872H120.645C120.549 112.232 120.325 111.672 119.973 111.192C119.637 110.696 119.213 110.312 118.701 110.04C118.205 109.752 117.661 109.608 117.069 109.608C116.461 109.608 115.901 109.744 115.389 110.016C114.877 110.288 114.445 110.672 114.093 111.168C113.757 111.648 113.533 112.216 113.421 112.872ZM129.007 120.216C128.127 120.216 127.351 120.064 126.679 119.76C126.007 119.44 125.479 119 125.095 118.44C124.711 117.88 124.519 117.232 124.519 116.496C124.519 115.344 124.959 114.44 125.839 113.784C126.719 113.112 127.927 112.776 129.463 112.776C130.663 112.776 131.775 113.008 132.799 113.472V112.176C132.799 111.296 132.543 110.64 132.031 110.208C131.535 109.776 130.799 109.56 129.823 109.56C129.263 109.56 128.679 109.648 128.071 109.824C127.463 109.984 126.783 110.24 126.031 110.592L125.143 108.792C126.071 108.36 126.935 108.048 127.735 107.856C128.535 107.648 129.343 107.544 130.159 107.544C131.743 107.544 132.967 107.92 133.831 108.672C134.711 109.424 135.151 110.496 135.151 111.888V120H132.799V118.944C132.255 119.376 131.671 119.696 131.047 119.904C130.423 120.112 129.743 120.216 129.007 120.216ZM126.823 116.448C126.823 117.04 127.071 117.52 127.567 117.888C128.079 118.256 128.743 118.44 129.559 118.44C130.199 118.44 130.783 118.344 131.311 118.152C131.855 117.96 132.351 117.664 132.799 117.264V115.2C132.335 114.928 131.847 114.736 131.335 114.624C130.839 114.496 130.279 114.432 129.655 114.432C128.775 114.432 128.079 114.616 127.567 114.984C127.071 115.336 126.823 115.824 126.823 116.448ZM141.219 120L135.939 107.784H138.579L142.395 116.928L146.211 107.784H148.755L143.523 120H141.219ZM155.749 120.216C154.549 120.216 153.461 119.936 152.485 119.376C151.525 118.816 150.757 118.056 150.181 117.096C149.621 116.136 149.341 115.064 149.341 113.88C149.341 112.712 149.613 111.656 150.157 110.712C150.701 109.752 151.437 108.992 152.365 108.432C153.293 107.856 154.325 107.568 155.461 107.568C156.597 107.568 157.605 107.856 158.485 108.432C159.365 108.992 160.061 109.76 160.573 110.736C161.101 111.696 161.365 112.784 161.365 114V114.672H151.741C151.869 115.344 152.117 115.944 152.485 116.472C152.869 117 153.349 117.416 153.925 117.72C154.517 118.024 155.157 118.176 155.845 118.176C156.437 118.176 157.005 118.088 157.549 117.912C158.109 117.72 158.573 117.448 158.941 117.096L160.477 118.608C159.757 119.152 159.013 119.56 158.245 119.832C157.493 120.088 156.661 120.216 155.749 120.216ZM151.765 112.872H158.989C158.893 112.232 158.669 111.672 158.317 111.192C157.981 110.696 157.557 110.312 157.045 110.04C156.549 109.752 156.005 109.608 155.413 109.608C154.805 109.608 154.245 109.744 153.733 110.016C153.221 110.288 152.789 110.672 152.437 111.168C152.101 111.648 151.877 112.216 151.765 112.872ZM168.666 124.896V107.784H171.042V108.96C172.066 108.048 173.314 107.592 174.786 107.592C175.938 107.592 176.978 107.872 177.906 108.432C178.85 108.992 179.594 109.744 180.138 110.688C180.682 111.632 180.954 112.696 180.954 113.88C180.954 115.064 180.674 116.136 180.114 117.096C179.57 118.04 178.826 118.792 177.882 119.352C176.954 119.912 175.906 120.192 174.738 120.192C174.066 120.192 173.418 120.088 172.794 119.88C172.17 119.656 171.594 119.344 171.066 118.944V124.896H168.666ZM174.474 118.104C175.258 118.104 175.954 117.92 176.562 117.552C177.186 117.184 177.682 116.688 178.05 116.064C178.418 115.424 178.602 114.704 178.602 113.904C178.602 113.104 178.418 112.384 178.05 111.744C177.682 111.104 177.186 110.6 176.562 110.232C175.954 109.864 175.258 109.68 174.474 109.68C173.786 109.68 173.146 109.808 172.554 110.064C171.962 110.32 171.466 110.68 171.066 111.144V116.664C171.466 117.112 171.962 117.464 172.554 117.72C173.162 117.976 173.802 118.104 174.474 118.104ZM187.225 120.216C186.345 120.216 185.569 120.064 184.897 119.76C184.225 119.44 183.697 119 183.313 118.44C182.929 117.88 182.737 117.232 182.737 116.496C182.737 115.344 183.177 114.44 184.057 113.784C184.937 113.112 186.145 112.776 187.681 112.776C188.881 112.776 189.993 113.008 191.017 113.472V112.176C191.017 111.296 190.761 110.64 190.249 110.208C189.753 109.776 189.017 109.56 188.041 109.56C187.481 109.56 186.897 109.648 186.289 109.824C185.681 109.984 185.001 110.24 184.249 110.592L183.361 108.792C184.289 108.36 185.153 108.048 185.953 107.856C186.753 107.648 187.561 107.544 188.377 107.544C189.961 107.544 191.185 107.92 192.049 108.672C192.929 109.424 193.369 110.496 193.369 111.888V120H191.017V118.944C190.473 119.376 189.889 119.696 189.265 119.904C188.641 120.112 187.961 120.216 187.225 120.216ZM185.041 116.448C185.041 117.04 185.289 117.52 185.785 117.888C186.297 118.256 186.961 118.44 187.777 118.44C188.417 118.44 189.001 118.344 189.529 118.152C190.073 117.96 190.569 117.664 191.017 117.264V115.2C190.553 114.928 190.065 114.736 189.553 114.624C189.057 114.496 188.497 114.432 187.873 114.432C186.993 114.432 186.297 114.616 185.785 114.984C185.289 115.336 185.041 115.824 185.041 116.448ZM202.183 125.136C201.287 125.136 200.415 125.032 199.567 124.824C198.719 124.616 197.951 124.32 197.263 123.936L198.175 122.064C198.895 122.432 199.567 122.696 200.191 122.856C200.831 123.032 201.471 123.12 202.111 123.12C203.183 123.12 203.991 122.872 204.535 122.376C205.095 121.88 205.375 121.152 205.375 120.192V118.8C204.303 119.648 203.079 120.072 201.703 120.072C200.583 120.072 199.551 119.8 198.607 119.256C197.679 118.696 196.943 117.944 196.399 117C195.855 116.04 195.583 114.984 195.583 113.832C195.583 112.664 195.855 111.608 196.399 110.664C196.959 109.704 197.703 108.952 198.631 108.408C199.575 107.848 200.631 107.568 201.799 107.568C202.455 107.568 203.087 107.68 203.695 107.904C204.319 108.112 204.887 108.416 205.399 108.816V107.784H207.775V120.192C207.775 121.776 207.287 122.992 206.311 123.84C205.351 124.704 203.975 125.136 202.183 125.136ZM202.015 118.008C202.719 118.008 203.359 117.888 203.935 117.648C204.511 117.392 204.991 117.032 205.375 116.568V111.096C204.991 110.648 204.503 110.296 203.911 110.04C203.335 109.784 202.703 109.656 202.015 109.656C201.247 109.656 200.551 109.84 199.927 110.208C199.319 110.576 198.831 111.08 198.463 111.72C198.111 112.344 197.935 113.048 197.935 113.832C197.935 114.616 198.111 115.328 198.463 115.968C198.831 116.592 199.319 117.088 199.927 117.456C200.551 117.824 201.247 118.008 202.015 118.008ZM216.452 120.216C215.252 120.216 214.164 119.936 213.188 119.376C212.228 118.816 211.46 118.056 210.884 117.096C210.324 116.136 210.044 115.064 210.044 113.88C210.044 112.712 210.316 111.656 210.86 110.712C211.404 109.752 212.14 108.992 213.068 108.432C213.996 107.856 215.028 107.568 216.164 107.568C217.3 107.568 218.308 107.856 219.188 108.432C220.068 108.992 220.764 109.76 221.276 110.736C221.804 111.696 222.068 112.784 222.068 114V114.672H212.444C212.572 115.344 212.82 115.944 213.188 116.472C213.572 117 214.052 117.416 214.628 117.72C215.22 118.024 215.86 118.176 216.548 118.176C217.14 118.176 217.708 118.088 218.252 117.912C218.812 117.72 219.276 117.448 219.644 117.096L221.18 118.608C220.46 119.152 219.716 119.56 218.948 119.832C218.196 120.088 217.364 120.216 216.452 120.216ZM212.468 112.872H219.692C219.596 112.232 219.372 111.672 219.02 111.192C218.684 110.696 218.26 110.312 217.748 110.04C217.252 109.752 216.708 109.608 216.116 109.608C215.508 109.608 214.948 109.744 214.436 110.016C213.924 110.288 213.492 110.672 213.14 111.168C212.804 111.648 212.58 112.216 212.468 112.872ZM231.649 120L228.241 107.784H230.569L232.945 116.76L235.729 107.784H237.793L240.577 116.76L242.953 107.784H245.209L241.777 120H239.473L236.737 111.048L233.977 120H231.649ZM246.924 120V107.784H249.324V120H246.924ZM248.124 105.816C247.724 105.816 247.38 105.672 247.092 105.384C246.804 105.08 246.66 104.728 246.66 104.328C246.66 103.912 246.804 103.568 247.092 103.296C247.38 103.008 247.724 102.864 248.124 102.864C248.54 102.864 248.892 103.008 249.18 103.296C249.468 103.568 249.612 103.912 249.612 104.328C249.612 104.728 249.468 105.08 249.18 105.384C248.892 105.672 248.54 105.816 248.124 105.816ZM257.382 120.216C256.198 120.216 255.294 119.944 254.67 119.4C254.046 118.84 253.734 118.032 253.734 116.976V109.8H251.142V107.784H253.734V104.664L256.11 104.088V107.784H259.71V109.8H256.11V116.424C256.11 117.048 256.246 117.496 256.518 117.768C256.806 118.024 257.27 118.152 257.91 118.152C258.246 118.152 258.542 118.128 258.798 118.08C259.07 118.032 259.358 117.96 259.662 117.864V119.88C259.342 119.992 258.966 120.072 258.534 120.12C258.118 120.184 257.734 120.216 257.382 120.216ZM261.479 120V103.2L263.879 102.672V109.032C264.823 108.04 266.047 107.544 267.551 107.544C268.495 107.544 269.319 107.744 270.023 108.144C270.743 108.544 271.303 109.104 271.703 109.824C272.119 110.544 272.327 111.376 272.327 112.32V120H269.927V112.728C269.927 111.768 269.655 111.016 269.111 110.472C268.567 109.912 267.823 109.632 266.879 109.632C266.239 109.632 265.663 109.768 265.151 110.04C264.639 110.312 264.215 110.704 263.879 111.216V120H261.479ZM280.904 120.24C279.72 120.24 278.64 119.96 277.664 119.4C276.704 118.84 275.944 118.08 275.384 117.12C274.824 116.16 274.544 115.088 274.544 113.904C274.544 112.72 274.824 111.648 275.384 110.688C275.944 109.728 276.704 108.968 277.664 108.408C278.64 107.832 279.72 107.544 280.904 107.544C282.104 107.544 283.184 107.832 284.144 108.408C285.104 108.968 285.864 109.728 286.424 110.688C286.984 111.648 287.264 112.72 287.264 113.904C287.264 115.088 286.984 116.16 286.424 117.12C285.864 118.08 285.104 118.84 284.144 119.4C283.184 119.96 282.104 120.24 280.904 120.24ZM280.904 118.128C281.656 118.128 282.336 117.944 282.944 117.576C283.552 117.192 284.032 116.68 284.384 116.04C284.736 115.4 284.912 114.68 284.912 113.88C284.912 113.096 284.728 112.392 284.36 111.768C284.008 111.128 283.528 110.616 282.92 110.232C282.328 109.848 281.656 109.656 280.904 109.656C280.152 109.656 279.472 109.848 278.864 110.232C278.272 110.616 277.792 111.128 277.424 111.768C277.072 112.392 276.896 113.096 276.896 113.88C276.896 114.68 277.072 115.4 277.424 116.04C277.776 116.68 278.256 117.192 278.864 117.576C279.472 117.944 280.152 118.128 280.904 118.128ZM294.261 120.24C293.317 120.24 292.485 120.04 291.765 119.64C291.045 119.24 290.485 118.68 290.085 117.96C289.685 117.224 289.485 116.384 289.485 115.44V107.784H291.861V115.032C291.861 115.992 292.133 116.752 292.677 117.312C293.237 117.872 293.981 118.152 294.909 118.152C295.565 118.152 296.149 118.016 296.661 117.744C297.173 117.456 297.589 117.056 297.909 116.544V107.784H300.309V120H297.909V118.752C296.965 119.744 295.749 120.24 294.261 120.24ZM308.382 120.216C307.198 120.216 306.294 119.944 305.67 119.4C305.046 118.84 304.734 118.032 304.734 116.976V109.8H302.142V107.784H304.734V104.664L307.11 104.088V107.784H310.71V109.8H307.11V116.424C307.11 117.048 307.246 117.496 307.518 117.768C307.806 118.024 308.27 118.152 308.91 118.152C309.246 118.152 309.542 118.128 309.798 118.08C310.07 118.032 310.358 117.96 310.662 117.864V119.88C310.342 119.992 309.966 120.072 309.534 120.12C309.118 120.184 308.734 120.216 308.382 120.216ZM321.694 120.24C320.638 120.24 319.646 120.088 318.718 119.784C317.806 119.464 317.014 119.016 316.342 118.44L317.662 116.856C318.286 117.352 318.926 117.736 319.582 118.008C320.254 118.264 320.934 118.392 321.622 118.392C322.486 118.392 323.19 118.224 323.734 117.888C324.278 117.552 324.55 117.112 324.55 116.568C324.55 116.12 324.39 115.768 324.07 115.512C323.75 115.256 323.254 115.08 322.582 114.984L320.374 114.672C319.158 114.496 318.246 114.12 317.638 113.544C317.03 112.968 316.726 112.2 316.726 111.24C316.726 110.504 316.926 109.864 317.326 109.32C317.726 108.76 318.286 108.328 319.006 108.024C319.726 107.704 320.566 107.544 321.526 107.544C322.406 107.544 323.254 107.672 324.07 107.928C324.886 108.184 325.67 108.584 326.422 109.128L325.198 110.712C324.526 110.264 323.87 109.936 323.23 109.728C322.606 109.52 321.974 109.416 321.334 109.416C320.598 109.416 320.006 109.576 319.558 109.896C319.11 110.2 318.886 110.6 318.886 111.096C318.886 111.544 319.038 111.896 319.342 112.152C319.662 112.392 320.182 112.56 320.902 112.656L323.11 112.968C324.326 113.144 325.246 113.52 325.87 114.096C326.494 114.656 326.806 115.416 326.806 116.376C326.806 117.112 326.582 117.776 326.134 118.368C325.686 118.944 325.078 119.4 324.31 119.736C323.542 120.072 322.67 120.24 321.694 120.24ZM332.632 120.216C331.752 120.216 330.976 120.064 330.304 119.76C329.632 119.44 329.104 119 328.72 118.44C328.336 117.88 328.144 117.232 328.144 116.496C328.144 115.344 328.584 114.44 329.464 113.784C330.344 113.112 331.552 112.776 333.088 112.776C334.288 112.776 335.4 113.008 336.424 113.472V112.176C336.424 111.296 336.168 110.64 335.656 110.208C335.16 109.776 334.424 109.56 333.448 109.56C332.888 109.56 332.304 109.648 331.696 109.824C331.088 109.984 330.408 110.24 329.656 110.592L328.768 108.792C329.696 108.36 330.56 108.048 331.36 107.856C332.16 107.648 332.968 107.544 333.784 107.544C335.368 107.544 336.592 107.92 337.456 108.672C338.336 109.424 338.776 110.496 338.776 111.888V120H336.424V118.944C335.88 119.376 335.296 119.696 334.672 119.904C334.048 120.112 333.368 120.216 332.632 120.216ZM330.448 116.448C330.448 117.04 330.696 117.52 331.192 117.888C331.704 118.256 332.368 118.44 333.184 118.44C333.824 118.44 334.408 118.344 334.936 118.152C335.48 117.96 335.976 117.664 336.424 117.264V115.2C335.96 114.928 335.472 114.736 334.96 114.624C334.464 114.496 333.904 114.432 333.28 114.432C332.4 114.432 331.704 114.616 331.192 114.984C330.696 115.336 330.448 115.824 330.448 116.448ZM344.844 120L339.564 107.784H342.204L346.02 116.928L349.836 107.784H352.38L347.148 120H344.844ZM353.869 120V107.784H356.269V120H353.869ZM355.069 105.816C354.669 105.816 354.325 105.672 354.037 105.384C353.749 105.08 353.605 104.728 353.605 104.328C353.605 103.912 353.749 103.568 354.037 103.296C354.325 103.008 354.669 102.864 355.069 102.864C355.485 102.864 355.837 103.008 356.125 103.296C356.413 103.568 356.557 103.912 356.557 104.328C356.557 104.728 356.413 105.08 356.125 105.384C355.837 105.672 355.485 105.816 355.069 105.816ZM359.096 120V107.784H361.496V109.032C362.44 108.04 363.664 107.544 365.168 107.544C366.112 107.544 366.936 107.744 367.64 108.144C368.36 108.544 368.92 109.104 369.32 109.824C369.736 110.544 369.944 111.376 369.944 112.32V120H367.544V112.728C367.544 111.768 367.272 111.016 366.728 110.472C366.2 109.912 365.456 109.632 364.496 109.632C363.856 109.632 363.28 109.768 362.768 110.04C362.256 110.312 361.832 110.704 361.496 111.216V120H359.096ZM378.761 125.136C377.865 125.136 376.993 125.032 376.145 124.824C375.297 124.616 374.529 124.32 373.841 123.936L374.753 122.064C375.473 122.432 376.145 122.696 376.769 122.856C377.409 123.032 378.049 123.12 378.689 123.12C379.761 123.12 380.569 122.872 381.113 122.376C381.673 121.88 381.953 121.152 381.953 120.192V118.8C380.881 119.648 379.657 120.072 378.281 120.072C377.161 120.072 376.129 119.8 375.185 119.256C374.257 118.696 373.521 117.944 372.977 117C372.433 116.04 372.161 114.984 372.161 113.832C372.161 112.664 372.433 111.608 372.977 110.664C373.537 109.704 374.281 108.952 375.209 108.408C376.153 107.848 377.209 107.568 378.377 107.568C379.033 107.568 379.665 107.68 380.273 107.904C380.897 108.112 381.465 108.416 381.977 108.816V107.784H384.353V120.192C384.353 121.776 383.865 122.992 382.889 123.84C381.929 124.704 380.553 125.136 378.761 125.136ZM378.593 118.008C379.297 118.008 379.937 117.888 380.513 117.648C381.089 117.392 381.569 117.032 381.953 116.568V111.096C381.569 110.648 381.081 110.296 380.489 110.04C379.913 109.784 379.281 109.656 378.593 109.656C377.825 109.656 377.129 109.84 376.505 110.208C375.897 110.576 375.409 111.08 375.041 111.72C374.689 112.344 374.513 113.048 374.513 113.832C374.513 114.616 374.689 115.328 375.041 115.968C375.409 116.592 375.897 117.088 376.505 117.456C377.129 117.824 377.825 118.008 378.593 118.008ZM389.682 115.08C389.65 114.344 389.69 113.712 389.802 113.184C389.914 112.656 390.114 112.184 390.402 111.768C390.706 111.352 391.106 110.96 391.602 110.592L392.73 109.8C393.354 109.352 393.794 108.944 394.05 108.576C394.306 108.192 394.434 107.768 394.434 107.304C394.434 106.856 394.29 106.464 394.002 106.128C393.73 105.792 393.362 105.52 392.898 105.312C392.434 105.104 391.906 105 391.314 105C390.562 105 389.858 105.184 389.202 105.552C388.546 105.92 387.986 106.44 387.522 107.112L385.626 106.128C386.042 105.456 386.546 104.88 387.138 104.4C387.746 103.92 388.41 103.56 389.13 103.32C389.85 103.064 390.618 102.936 391.434 102.936C392.458 102.936 393.37 103.128 394.17 103.512C394.97 103.88 395.602 104.384 396.066 105.024C396.546 105.664 396.786 106.4 396.786 107.232C396.786 107.776 396.698 108.272 396.522 108.72C396.346 109.168 396.05 109.608 395.634 110.04C395.218 110.456 394.642 110.92 393.906 111.432L393.162 111.96C392.602 112.328 392.21 112.76 391.986 113.256C391.762 113.736 391.674 114.344 391.722 115.08H389.682ZM390.714 120.168C390.298 120.168 389.938 120.024 389.634 119.736C389.346 119.432 389.202 119.072 389.202 118.656C389.202 118.24 389.346 117.888 389.634 117.6C389.938 117.296 390.298 117.144 390.714 117.144C391.13 117.144 391.482 117.296 391.77 117.6C392.074 117.888 392.226 118.24 392.226 118.656C392.226 119.072 392.074 119.432 391.77 119.736C391.482 120.024 391.13 120.168 390.714 120.168Z" fill="black"/>
<path d="M96.162 164L101.148 151.4H102.804L107.718 164H106.224L104.73 160.04H99.114L97.62 164H96.162ZM99.546 158.942H104.316L101.922 152.66L99.546 158.942ZM109.233 164V151.004L110.547 150.734V164H109.233ZM113.241 164V151.004L114.555 150.734V164H113.241ZM124.582 164.144C123.958 164.144 123.406 164.006 122.926 163.73C122.446 163.454 122.068 163.07 121.792 162.578C121.528 162.086 121.396 161.522 121.396 160.886V155.216H122.728V160.508C122.728 161.288 122.938 161.906 123.358 162.362C123.778 162.818 124.348 163.046 125.068 163.046C125.56 163.046 125.998 162.932 126.382 162.704C126.778 162.476 127.108 162.146 127.372 161.714V155.216H128.686V164H127.372V162.578C127.036 163.094 126.634 163.484 126.166 163.748C125.71 164.012 125.182 164.144 124.582 164.144ZM131.381 164V155.216H132.695V156.638C133.031 156.11 133.433 155.72 133.901 155.468C134.369 155.204 134.897 155.072 135.485 155.072C136.121 155.072 136.673 155.21 137.141 155.486C137.621 155.75 137.993 156.128 138.257 156.62C138.533 157.1 138.671 157.664 138.671 158.312V164H137.357V158.69C137.357 157.91 137.141 157.298 136.709 156.854C136.289 156.398 135.719 156.17 134.999 156.17C134.519 156.17 134.081 156.284 133.685 156.512C133.289 156.74 132.959 157.076 132.695 157.52V164H131.381ZM144.031 164.18C143.311 164.18 142.645 164.072 142.033 163.856C141.421 163.628 140.899 163.304 140.467 162.884L141.169 162.02C141.697 162.404 142.183 162.686 142.627 162.866C143.071 163.034 143.527 163.118 143.995 163.118C144.631 163.118 145.159 162.968 145.579 162.668C145.999 162.368 146.209 161.984 146.209 161.516C146.209 161.156 146.083 160.874 145.831 160.67C145.591 160.466 145.189 160.31 144.625 160.202L143.185 159.95C142.333 159.794 141.703 159.53 141.295 159.158C140.899 158.786 140.701 158.282 140.701 157.646C140.701 157.142 140.833 156.698 141.097 156.314C141.373 155.93 141.751 155.63 142.231 155.414C142.711 155.186 143.257 155.072 143.869 155.072C144.469 155.072 145.039 155.162 145.579 155.342C146.119 155.51 146.665 155.786 147.217 156.17L146.569 157.088C146.113 156.764 145.657 156.53 145.201 156.386C144.745 156.23 144.283 156.152 143.815 156.152C143.239 156.152 142.777 156.278 142.429 156.53C142.081 156.782 141.907 157.124 141.907 157.556C141.907 157.916 142.015 158.192 142.231 158.384C142.459 158.576 142.855 158.72 143.419 158.816L144.895 159.086C145.783 159.242 146.431 159.512 146.839 159.896C147.247 160.28 147.451 160.796 147.451 161.444C147.451 161.96 147.301 162.428 147.001 162.848C146.701 163.256 146.293 163.58 145.777 163.82C145.261 164.06 144.679 164.18 144.031 164.18ZM152.257 164.162C151.633 164.162 151.081 164.048 150.601 163.82C150.121 163.592 149.743 163.28 149.467 162.884C149.203 162.476 149.071 162.008 149.071 161.48C149.071 160.952 149.209 160.496 149.485 160.112C149.761 159.716 150.145 159.41 150.637 159.194C151.129 158.978 151.705 158.87 152.365 158.87C152.869 158.87 153.343 158.924 153.787 159.032C154.243 159.14 154.663 159.314 155.047 159.554V158.348C155.047 157.628 154.855 157.088 154.471 156.728C154.087 156.356 153.523 156.17 152.779 156.17C152.371 156.17 151.951 156.23 151.519 156.35C151.099 156.47 150.631 156.662 150.115 156.926L149.629 155.918C150.805 155.354 151.909 155.072 152.941 155.072C154.033 155.072 154.873 155.342 155.461 155.882C156.049 156.41 156.343 157.172 156.343 158.168V164H155.047V162.974C154.663 163.37 154.237 163.67 153.769 163.874C153.301 164.066 152.797 164.162 152.257 164.162ZM150.331 161.444C150.331 161.96 150.529 162.374 150.925 162.686C151.333 162.998 151.867 163.154 152.527 163.154C153.019 163.154 153.469 163.07 153.877 162.902C154.297 162.734 154.687 162.482 155.047 162.146V160.454C154.675 160.238 154.291 160.082 153.895 159.986C153.499 159.878 153.055 159.824 152.563 159.824C151.891 159.824 151.351 159.974 150.943 160.274C150.535 160.562 150.331 160.952 150.331 161.444ZM161.183 164L157.583 155.216H159.005L161.849 162.362L164.657 155.216H166.061L162.443 164H161.183ZM171.376 164.18C170.56 164.18 169.822 163.982 169.162 163.586C168.502 163.178 167.98 162.632 167.596 161.948C167.212 161.252 167.02 160.472 167.02 159.608C167.02 158.744 167.2 157.97 167.56 157.286C167.932 156.602 168.43 156.062 169.054 155.666C169.678 155.27 170.374 155.072 171.142 155.072C171.922 155.072 172.612 155.27 173.212 155.666C173.824 156.05 174.304 156.578 174.652 157.25C175.012 157.91 175.192 158.66 175.192 159.5V159.896H168.298C168.346 160.496 168.508 161.036 168.784 161.516C169.072 161.984 169.444 162.356 169.9 162.632C170.368 162.896 170.878 163.028 171.43 163.028C171.886 163.028 172.324 162.95 172.744 162.794C173.176 162.626 173.542 162.404 173.842 162.128L174.67 163.01C174.166 163.406 173.644 163.7 173.104 163.892C172.564 164.084 171.988 164.18 171.376 164.18ZM168.334 158.96H173.896C173.836 158.432 173.674 157.964 173.41 157.556C173.158 157.136 172.834 156.806 172.438 156.566C172.054 156.326 171.622 156.206 171.142 156.206C170.662 156.206 170.224 156.326 169.828 156.566C169.432 156.794 169.102 157.118 168.838 157.538C168.586 157.946 168.418 158.42 168.334 158.96ZM181.09 164.126C180.334 164.126 179.65 163.928 179.038 163.532C178.426 163.124 177.94 162.584 177.58 161.912C177.22 161.228 177.04 160.466 177.04 159.626C177.04 158.774 177.22 158.012 177.58 157.34C177.952 156.656 178.45 156.116 179.074 155.72C179.698 155.312 180.394 155.108 181.162 155.108C181.702 155.108 182.206 155.216 182.674 155.432C183.142 155.636 183.55 155.936 183.898 156.332V151.004L185.212 150.734V164H183.898V162.83C183.562 163.25 183.154 163.574 182.674 163.802C182.194 164.018 181.666 164.126 181.09 164.126ZM181.414 162.974C181.93 162.974 182.404 162.872 182.836 162.668C183.268 162.464 183.622 162.176 183.898 161.804V157.448C183.61 157.076 183.244 156.788 182.8 156.584C182.368 156.368 181.906 156.26 181.414 156.26C180.826 156.26 180.298 156.404 179.83 156.692C179.374 156.98 179.008 157.376 178.732 157.88C178.468 158.384 178.336 158.96 178.336 159.608C178.336 160.244 178.468 160.82 178.732 161.336C179.008 161.84 179.374 162.242 179.83 162.542C180.298 162.83 180.826 162.974 181.414 162.974ZM192.096 164V155.216H193.41V164H192.096ZM192.762 153.038C192.498 153.038 192.27 152.948 192.078 152.768C191.898 152.576 191.808 152.354 191.808 152.102C191.808 151.85 191.898 151.634 192.078 151.454C192.27 151.262 192.498 151.166 192.762 151.166C193.026 151.166 193.248 151.262 193.428 151.454C193.62 151.634 193.716 151.85 193.716 152.102C193.716 152.354 193.62 152.576 193.428 152.768C193.248 152.948 193.026 153.038 192.762 153.038ZM196.104 164V155.216H197.418V156.638C197.754 156.11 198.156 155.72 198.624 155.468C199.092 155.204 199.62 155.072 200.208 155.072C200.844 155.072 201.396 155.21 201.864 155.486C202.344 155.75 202.716 156.128 202.98 156.62C203.256 157.1 203.394 157.664 203.394 158.312V164H202.08V158.69C202.08 157.91 201.864 157.298 201.432 156.854C201.012 156.398 200.442 156.17 199.722 156.17C199.242 156.17 198.804 156.284 198.408 156.512C198.012 156.74 197.682 157.076 197.418 157.52V164H196.104ZM206.888 164V156.296H204.926V155.216H206.888V153.38C206.888 152.516 207.116 151.85 207.572 151.382C208.028 150.914 208.676 150.68 209.516 150.68C209.756 150.68 209.972 150.692 210.164 150.716C210.368 150.74 210.548 150.782 210.704 150.842V152.03C210.512 151.97 210.338 151.928 210.182 151.904C210.026 151.88 209.846 151.868 209.642 151.868C209.138 151.868 208.772 151.994 208.544 152.246C208.316 152.486 208.202 152.87 208.202 153.398V155.216H210.704V156.296H208.202V164H206.888ZM215.953 164.144C215.137 164.144 214.405 163.946 213.757 163.55C213.109 163.154 212.599 162.614 212.227 161.93C211.855 161.246 211.669 160.472 211.669 159.608C211.669 158.744 211.855 157.97 212.227 157.286C212.599 156.602 213.109 156.062 213.757 155.666C214.405 155.27 215.137 155.072 215.953 155.072C216.757 155.072 217.477 155.27 218.113 155.666C218.761 156.062 219.271 156.602 219.643 157.286C220.015 157.97 220.201 158.744 220.201 159.608C220.201 160.472 220.015 161.246 219.643 161.93C219.271 162.614 218.761 163.154 218.113 163.55C217.477 163.946 216.757 164.144 215.953 164.144ZM215.935 162.992C216.511 162.992 217.021 162.848 217.465 162.56C217.909 162.26 218.257 161.852 218.509 161.336C218.773 160.82 218.905 160.244 218.905 159.608C218.905 158.96 218.773 158.384 218.509 157.88C218.257 157.364 217.909 156.962 217.465 156.674C217.021 156.374 216.511 156.224 215.935 156.224C215.359 156.224 214.849 156.374 214.405 156.674C213.961 156.962 213.607 157.364 213.343 157.88C213.091 158.384 212.965 158.96 212.965 159.608C212.965 160.244 213.091 160.82 213.343 161.336C213.607 161.852 213.961 162.26 214.405 162.56C214.849 162.848 215.359 162.992 215.935 162.992ZM222.506 164V155.216H223.82V157.016C224.048 156.404 224.372 155.93 224.792 155.594C225.224 155.246 225.716 155.072 226.268 155.072C226.424 155.072 226.568 155.084 226.7 155.108C226.832 155.12 226.964 155.15 227.096 155.198V156.386C226.952 156.338 226.796 156.302 226.628 156.278C226.472 156.242 226.322 156.224 226.178 156.224C225.638 156.224 225.164 156.38 224.756 156.692C224.36 157.004 224.048 157.442 223.82 158.006V164H222.506ZM228.834 164V155.216H230.148V156.584C230.484 156.08 230.868 155.702 231.3 155.45C231.732 155.198 232.218 155.072 232.758 155.072C233.382 155.072 233.928 155.228 234.396 155.54C234.864 155.84 235.218 156.254 235.458 156.782C235.806 156.218 236.22 155.792 236.7 155.504C237.192 155.216 237.756 155.072 238.392 155.072C238.98 155.072 239.496 155.21 239.94 155.486C240.396 155.762 240.75 156.146 241.002 156.638C241.254 157.118 241.38 157.682 241.38 158.33V164H240.066V158.654C240.066 157.886 239.874 157.28 239.49 156.836C239.106 156.392 238.578 156.17 237.906 156.17C237.45 156.17 237.036 156.284 236.664 156.512C236.304 156.74 235.986 157.088 235.71 157.556C235.734 157.676 235.752 157.802 235.764 157.934C235.776 158.066 235.782 158.198 235.782 158.33V164H234.468V158.654C234.468 157.886 234.27 157.28 233.874 156.836C233.49 156.392 232.962 156.17 232.29 156.17C231.39 156.17 230.676 156.602 230.148 157.466V164H228.834ZM246.757 164.162C246.133 164.162 245.581 164.048 245.101 163.82C244.621 163.592 244.243 163.28 243.967 162.884C243.703 162.476 243.571 162.008 243.571 161.48C243.571 160.952 243.709 160.496 243.985 160.112C244.261 159.716 244.645 159.41 245.137 159.194C245.629 158.978 246.205 158.87 246.865 158.87C247.369 158.87 247.843 158.924 248.287 159.032C248.743 159.14 249.163 159.314 249.547 159.554V158.348C249.547 157.628 249.355 157.088 248.971 156.728C248.587 156.356 248.023 156.17 247.279 156.17C246.871 156.17 246.451 156.23 246.019 156.35C245.599 156.47 245.131 156.662 244.615 156.926L244.129 155.918C245.305 155.354 246.409 155.072 247.441 155.072C248.533 155.072 249.373 155.342 249.961 155.882C250.549 156.41 250.843 157.172 250.843 158.168V164H249.547V162.974C249.163 163.37 248.737 163.67 248.269 163.874C247.801 164.066 247.297 164.162 246.757 164.162ZM244.831 161.444C244.831 161.96 245.029 162.374 245.425 162.686C245.833 162.998 246.367 163.154 247.027 163.154C247.519 163.154 247.969 163.07 248.377 162.902C248.797 162.734 249.187 162.482 249.547 162.146V160.454C249.175 160.238 248.791 160.082 248.395 159.986C247.999 159.878 247.555 159.824 247.063 159.824C246.391 159.824 245.851 159.974 245.443 160.274C245.035 160.562 244.831 160.952 244.831 161.444ZM256.598 164.18C255.842 164.18 255.266 164 254.87 163.64C254.486 163.268 254.294 162.734 254.294 162.038V156.296H252.476V155.216H254.294V152.804L255.608 152.498V155.216H258.128V156.296H255.608V161.696C255.608 162.164 255.704 162.5 255.896 162.704C256.1 162.908 256.43 163.01 256.886 163.01C257.114 163.01 257.318 162.992 257.498 162.956C257.678 162.92 257.888 162.86 258.128 162.776V163.946C257.888 164.03 257.636 164.09 257.372 164.126C257.108 164.162 256.85 164.18 256.598 164.18ZM260.035 164V155.216H261.349V164H260.035ZM260.701 153.038C260.437 153.038 260.209 152.948 260.017 152.768C259.837 152.576 259.747 152.354 259.747 152.102C259.747 151.85 259.837 151.634 260.017 151.454C260.209 151.262 260.437 151.166 260.701 151.166C260.965 151.166 261.187 151.262 261.367 151.454C261.559 151.634 261.655 151.85 261.655 152.102C261.655 152.354 261.559 152.576 261.367 152.768C261.187 152.948 260.965 153.038 260.701 153.038ZM267.931 164.144C267.115 164.144 266.383 163.946 265.735 163.55C265.087 163.154 264.577 162.614 264.205 161.93C263.833 161.246 263.647 160.472 263.647 159.608C263.647 158.744 263.833 157.97 264.205 157.286C264.577 156.602 265.087 156.062 265.735 155.666C266.383 155.27 267.115 155.072 267.931 155.072C268.735 155.072 269.455 155.27 270.091 155.666C270.739 156.062 271.249 156.602 271.621 157.286C271.993 157.97 272.179 158.744 272.179 159.608C272.179 160.472 271.993 161.246 271.621 161.93C271.249 162.614 270.739 163.154 270.091 163.55C269.455 163.946 268.735 164.144 267.931 164.144ZM267.913 162.992C268.489 162.992 268.999 162.848 269.443 162.56C269.887 162.26 270.235 161.852 270.487 161.336C270.751 160.82 270.883 160.244 270.883 159.608C270.883 158.96 270.751 158.384 270.487 157.88C270.235 157.364 269.887 156.962 269.443 156.674C268.999 156.374 268.489 156.224 267.913 156.224C267.337 156.224 266.827 156.374 266.383 156.674C265.939 156.962 265.585 157.364 265.321 157.88C265.069 158.384 264.943 158.96 264.943 159.608C264.943 160.244 265.069 160.82 265.321 161.336C265.585 161.852 265.939 162.26 266.383 162.56C266.827 162.848 267.337 162.992 267.913 162.992ZM274.485 164V155.216H275.799V156.638C276.135 156.11 276.537 155.72 277.005 155.468C277.473 155.204 278.001 155.072 278.589 155.072C279.225 155.072 279.777 155.21 280.245 155.486C280.725 155.75 281.097 156.128 281.361 156.62C281.637 157.1 281.775 157.664 281.775 158.312V164H280.461V158.69C280.461 157.91 280.245 157.298 279.813 156.854C279.393 156.398 278.823 156.17 278.103 156.17C277.623 156.17 277.185 156.284 276.789 156.512C276.393 156.74 276.063 157.076 275.799 157.52V164H274.485ZM290.184 164L287.772 155.216H289.05L290.886 162.236L292.992 155.216H294.162L296.268 162.236L298.086 155.216H299.328L296.934 164H295.656L293.568 156.908L291.48 164H290.184ZM301.168 164V155.216H302.482V164H301.168ZM301.834 153.038C301.57 153.038 301.342 152.948 301.15 152.768C300.97 152.576 300.88 152.354 300.88 152.102C300.88 151.85 300.97 151.634 301.15 151.454C301.342 151.262 301.57 151.166 301.834 151.166C302.098 151.166 302.32 151.262 302.5 151.454C302.692 151.634 302.788 151.85 302.788 152.102C302.788 152.354 302.692 152.576 302.5 152.768C302.32 152.948 302.098 153.038 301.834 153.038ZM305.176 164V151.004L306.49 150.734V164H305.176ZM309.184 164V151.004L310.498 150.734V164H309.184ZM317.393 164V151.13L318.707 150.86V156.422C319.043 156.002 319.451 155.678 319.931 155.45C320.411 155.222 320.945 155.108 321.533 155.108C322.301 155.108 322.985 155.312 323.585 155.72C324.197 156.116 324.683 156.656 325.043 157.34C325.403 158.012 325.583 158.768 325.583 159.608C325.583 160.448 325.397 161.21 325.025 161.894C324.665 162.578 324.173 163.124 323.549 163.532C322.937 163.928 322.241 164.126 321.461 164.126C320.909 164.126 320.393 164.018 319.913 163.802C319.445 163.574 319.037 163.256 318.689 162.848V164H317.393ZM321.209 162.992C321.797 162.992 322.319 162.848 322.775 162.56C323.243 162.26 323.609 161.858 323.873 161.354C324.149 160.838 324.287 160.262 324.287 159.626C324.287 158.978 324.149 158.402 323.873 157.898C323.609 157.394 323.243 156.998 322.775 156.71C322.319 156.41 321.797 156.26 321.209 156.26C320.693 156.26 320.213 156.368 319.769 156.584C319.337 156.788 318.983 157.082 318.707 157.466V161.768C318.995 162.152 319.355 162.452 319.787 162.668C320.231 162.884 320.705 162.992 321.209 162.992ZM331.847 164.18C331.031 164.18 330.293 163.982 329.633 163.586C328.973 163.178 328.451 162.632 328.067 161.948C327.683 161.252 327.491 160.472 327.491 159.608C327.491 158.744 327.671 157.97 328.031 157.286C328.403 156.602 328.901 156.062 329.525 155.666C330.149 155.27 330.845 155.072 331.613 155.072C332.393 155.072 333.083 155.27 333.683 155.666C334.295 156.05 334.775 156.578 335.123 157.25C335.483 157.91 335.663 158.66 335.663 159.5V159.896H328.769C328.817 160.496 328.979 161.036 329.255 161.516C329.543 161.984 329.915 162.356 330.371 162.632C330.839 162.896 331.349 163.028 331.901 163.028C332.357 163.028 332.795 162.95 333.215 162.794C333.647 162.626 334.013 162.404 334.313 162.128L335.141 163.01C334.637 163.406 334.115 163.7 333.575 163.892C333.035 164.084 332.459 164.18 331.847 164.18ZM328.805 158.96H334.367C334.307 158.432 334.145 157.964 333.881 157.556C333.629 157.136 333.305 156.806 332.909 156.566C332.525 156.326 332.093 156.206 331.613 156.206C331.133 156.206 330.695 156.326 330.299 156.566C329.903 156.794 329.573 157.118 329.309 157.538C329.057 157.946 328.889 158.42 328.805 158.96ZM342.108 164V151.004L343.422 150.734V164H342.108ZM350.004 164.144C349.188 164.144 348.456 163.946 347.808 163.55C347.16 163.154 346.65 162.614 346.278 161.93C345.906 161.246 345.72 160.472 345.72 159.608C345.72 158.744 345.906 157.97 346.278 157.286C346.65 156.602 347.16 156.062 347.808 155.666C348.456 155.27 349.188 155.072 350.004 155.072C350.808 155.072 351.528 155.27 352.164 155.666C352.812 156.062 353.322 156.602 353.694 157.286C354.066 157.97 354.252 158.744 354.252 159.608C354.252 160.472 354.066 161.246 353.694 161.93C353.322 162.614 352.812 163.154 352.164 163.55C351.528 163.946 350.808 164.144 350.004 164.144ZM349.986 162.992C350.562 162.992 351.072 162.848 351.516 162.56C351.96 162.26 352.308 161.852 352.56 161.336C352.824 160.82 352.956 160.244 352.956 159.608C352.956 158.96 352.824 158.384 352.56 157.88C352.308 157.364 351.96 156.962 351.516 156.674C351.072 156.374 350.562 156.224 349.986 156.224C349.41 156.224 348.9 156.374 348.456 156.674C348.012 156.962 347.658 157.364 347.394 157.88C347.142 158.384 347.016 158.96 347.016 159.608C347.016 160.244 347.142 160.82 347.394 161.336C347.658 161.852 348.012 162.26 348.456 162.56C348.9 162.848 349.41 162.992 349.986 162.992ZM359.275 164.18C358.555 164.18 357.889 164.072 357.277 163.856C356.665 163.628 356.143 163.304 355.711 162.884L356.413 162.02C356.941 162.404 357.427 162.686 357.871 162.866C358.315 163.034 358.771 163.118 359.239 163.118C359.875 163.118 360.403 162.968 360.823 162.668C361.243 162.368 361.453 161.984 361.453 161.516C361.453 161.156 361.327 160.874 361.075 160.67C360.835 160.466 360.433 160.31 359.869 160.202L358.429 159.95C357.577 159.794 356.947 159.53 356.539 159.158C356.143 158.786 355.945 158.282 355.945 157.646C355.945 157.142 356.077 156.698 356.341 156.314C356.617 155.93 356.995 155.63 357.475 155.414C357.955 155.186 358.501 155.072 359.113 155.072C359.713 155.072 360.283 155.162 360.823 155.342C361.363 155.51 361.909 155.786 362.461 156.17L361.813 157.088C361.357 156.764 360.901 156.53 360.445 156.386C359.989 156.23 359.527 156.152 359.059 156.152C358.483 156.152 358.021 156.278 357.673 156.53C357.325 156.782 357.151 157.124 357.151 157.556C357.151 157.916 357.259 158.192 357.475 158.384C357.703 158.576 358.099 158.72 358.663 158.816L360.139 159.086C361.027 159.242 361.675 159.512 362.083 159.896C362.491 160.28 362.695 160.796 362.695 161.444C362.695 161.96 362.545 162.428 362.245 162.848C361.945 163.256 361.537 163.58 361.021 163.82C360.505 164.06 359.923 164.18 359.275 164.18ZM367.868 164.18C367.112 164.18 366.536 164 366.14 163.64C365.756 163.268 365.564 162.734 365.564 162.038V156.296H363.746V155.216H365.564V152.804L366.878 152.498V155.216H369.398V156.296H366.878V161.696C366.878 162.164 366.974 162.5 367.166 162.704C367.37 162.908 367.7 163.01 368.156 163.01C368.384 163.01 368.588 162.992 368.768 162.956C368.948 162.92 369.158 162.86 369.398 162.776V163.946C369.158 164.03 368.906 164.09 368.642 164.126C368.378 164.162 368.12 164.18 367.868 164.18ZM372.223 164.144C371.959 164.144 371.731 164.048 371.539 163.856C371.359 163.664 371.269 163.436 371.269 163.172C371.269 162.896 371.359 162.668 371.539 162.488C371.731 162.296 371.959 162.2 372.223 162.2C372.487 162.2 372.709 162.296 372.889 162.488C373.081 162.668 373.177 162.896 373.177 163.172C373.177 163.436 373.081 163.664 372.889 163.856C372.709 164.048 372.487 164.144 372.223 164.144Z" fill="black"/>
<rect x="96" y="195" width="75" height="36" rx="3" fill="#0066CC"/>
<path d="M113.424 219V207.8H114.656V217.912H120.976V219H113.424ZM126.033 219.16C125.307 219.16 124.651 218.984 124.065 218.632C123.478 218.269 123.014 217.784 122.673 217.176C122.331 216.557 122.161 215.864 122.161 215.096C122.161 214.328 122.321 213.64 122.641 213.032C122.971 212.424 123.414 211.944 123.969 211.592C124.523 211.24 125.142 211.064 125.825 211.064C126.518 211.064 127.131 211.24 127.665 211.592C128.209 211.933 128.635 212.403 128.945 213C129.265 213.587 129.425 214.253 129.425 215V215.352H123.297C123.339 215.885 123.483 216.365 123.729 216.792C123.985 217.208 124.315 217.539 124.721 217.784C125.137 218.019 125.59 218.136 126.081 218.136C126.486 218.136 126.875 218.067 127.249 217.928C127.633 217.779 127.958 217.581 128.225 217.336L128.961 218.12C128.513 218.472 128.049 218.733 127.569 218.904C127.089 219.075 126.577 219.16 126.033 219.16ZM123.329 214.52H128.273C128.219 214.051 128.075 213.635 127.841 213.272C127.617 212.899 127.329 212.605 126.977 212.392C126.635 212.179 126.251 212.072 125.825 212.072C125.398 212.072 125.009 212.179 124.657 212.392C124.305 212.595 124.011 212.883 123.777 213.256C123.553 213.619 123.403 214.04 123.329 214.52ZM133.679 219.144C133.124 219.144 132.633 219.043 132.207 218.84C131.78 218.637 131.444 218.36 131.199 218.008C130.964 217.645 130.847 217.229 130.847 216.76C130.847 216.291 130.969 215.885 131.215 215.544C131.46 215.192 131.801 214.92 132.239 214.728C132.676 214.536 133.188 214.44 133.775 214.44C134.223 214.44 134.644 214.488 135.039 214.584C135.444 214.68 135.817 214.835 136.159 215.048V213.976C136.159 213.336 135.988 212.856 135.647 212.536C135.305 212.205 134.804 212.04 134.143 212.04C133.78 212.04 133.407 212.093 133.023 212.2C132.649 212.307 132.233 212.477 131.775 212.712L131.343 211.816C132.388 211.315 133.369 211.064 134.286 211.064C135.257 211.064 136.004 211.304 136.527 211.784C137.049 212.253 137.311 212.931 137.311 213.816V219H136.159V218.088C135.817 218.44 135.439 218.707 135.023 218.888C134.607 219.059 134.159 219.144 133.679 219.144ZM131.967 216.728C131.967 217.187 132.143 217.555 132.495 217.832C132.857 218.109 133.332 218.248 133.919 218.248C134.356 218.248 134.756 218.173 135.119 218.024C135.492 217.875 135.839 217.651 136.159 217.352V215.848C135.828 215.656 135.487 215.517 135.135 215.432C134.783 215.336 134.388 215.288 133.951 215.288C133.353 215.288 132.873 215.421 132.511 215.688C132.148 215.944 131.967 216.291 131.967 216.728ZM141.612 219L138.412 211.192H139.676L142.204 217.544L144.7 211.192H145.948L142.732 219H141.612ZM150.673 219.16C149.948 219.16 149.292 218.984 148.705 218.632C148.118 218.269 147.654 217.784 147.313 217.176C146.972 216.557 146.801 215.864 146.801 215.096C146.801 214.328 146.961 213.64 147.281 213.032C147.612 212.424 148.054 211.944 148.609 211.592C149.164 211.24 149.782 211.064 150.465 211.064C151.158 211.064 151.772 211.24 152.305 211.592C152.849 211.933 153.276 212.403 153.585 213C153.905 213.587 154.065 214.253 154.065 215V215.352H147.937C147.98 215.885 148.124 216.365 148.369 216.792C148.625 217.208 148.956 217.539 149.361 217.784C149.777 218.019 150.23 218.136 150.721 218.136C151.126 218.136 151.516 218.067 151.889 217.928C152.273 217.779 152.598 217.581 152.865 217.336L153.601 218.12C153.153 218.472 152.689 218.733 152.209 218.904C151.729 219.075 151.217 219.16 150.673 219.16ZM147.969 214.52H152.913C152.86 214.051 152.716 213.635 152.481 213.272C152.257 212.899 151.969 212.605 151.617 212.392C151.276 212.179 150.892 212.072 150.465 212.072C150.038 212.072 149.649 212.179 149.297 212.392C148.945 212.595 148.652 212.883 148.417 213.256C148.193 213.619 148.044 214.04 147.969 214.52Z" fill="white"/>
<path d="M201.592 219.176C200.792 219.176 200.045 219.032 199.352 218.744C198.669 218.445 198.067 218.035 197.544 217.512C197.021 216.979 196.616 216.365 196.328 215.672C196.04 214.968 195.896 214.211 195.896 213.4C195.896 212.589 196.04 211.837 196.328 211.144C196.616 210.44 197.021 209.827 197.544 209.304C198.067 208.771 198.669 208.36 199.352 208.072C200.045 207.773 200.792 207.624 201.592 207.624C202.147 207.624 202.675 207.699 203.176 207.848C203.688 207.987 204.168 208.195 204.616 208.472C205.064 208.739 205.464 209.069 205.816 209.464L205 210.312C204.584 209.811 204.072 209.427 203.464 209.16C202.867 208.883 202.243 208.744 201.592 208.744C200.963 208.744 200.376 208.861 199.832 209.096C199.288 209.331 198.813 209.661 198.408 210.088C198.013 210.515 197.704 211.011 197.48 211.576C197.256 212.131 197.144 212.739 197.144 213.4C197.144 214.051 197.256 214.659 197.48 215.224C197.704 215.789 198.013 216.285 198.408 216.712C198.813 217.139 199.288 217.469 199.832 217.704C200.376 217.939 200.963 218.056 201.592 218.056C202.243 218.056 202.867 217.917 203.464 217.64C204.072 217.363 204.584 216.979 205 216.488L205.816 217.336C205.464 217.731 205.064 218.067 204.616 218.344C204.168 218.611 203.688 218.819 203.176 218.968C202.675 219.107 202.147 219.176 201.592 219.176ZM210.225 219.144C209.671 219.144 209.18 219.043 208.753 218.84C208.327 218.637 207.991 218.36 207.745 218.008C207.511 217.645 207.393 217.229 207.393 216.76C207.393 216.291 207.516 215.885 207.761 215.544C208.007 215.192 208.348 214.92 208.785 214.728C209.223 214.536 209.735 214.44 210.321 214.44C210.769 214.44 211.191 214.488 211.585 214.584C211.991 214.68 212.364 214.835 212.705 215.048V213.976C212.705 213.336 212.535 212.856 212.193 212.536C211.852 212.205 211.351 212.04 210.689 212.04C210.327 212.04 209.953 212.093 209.569 212.2C209.196 212.307 208.78 212.477 208.321 212.712L207.889 211.816C208.935 211.315 209.916 211.064 210.833 211.064C211.804 211.064 212.551 211.304 213.073 211.784C213.596 212.253 213.857 212.931 213.857 213.816V219H212.705V218.088C212.364 218.44 211.985 218.707 211.569 218.888C211.153 219.059 210.705 219.144 210.225 219.144ZM208.513 216.728C208.513 217.187 208.689 217.555 209.041 217.832C209.404 218.109 209.879 218.248 210.465 218.248C210.903 218.248 211.303 218.173 211.665 218.024C212.039 217.875 212.385 217.651 212.705 217.352V215.848C212.375 215.656 212.033 215.517 211.681 215.432C211.329 215.336 210.935 215.288 210.497 215.288C209.9 215.288 209.42 215.421 209.057 215.688C208.695 215.944 208.513 216.291 208.513 216.728ZM216.231 219V211.192H217.399V212.456C217.698 211.987 218.055 211.64 218.471 211.416C218.887 211.181 219.357 211.064 219.879 211.064C220.445 211.064 220.935 211.187 221.351 211.432C221.778 211.667 222.109 212.003 222.343 212.44C222.589 212.867 222.711 213.368 222.711 213.944V219H221.543V214.28C221.543 213.587 221.351 213.043 220.967 212.648C220.594 212.243 220.087 212.04 219.447 212.04C219.021 212.04 218.631 212.141 218.279 212.344C217.927 212.547 217.634 212.845 217.399 213.24V219H216.231ZM228.563 219.128C227.838 219.128 227.182 218.952 226.595 218.6C226.019 218.237 225.561 217.752 225.219 217.144C224.878 216.525 224.707 215.843 224.707 215.096C224.707 214.339 224.878 213.656 225.219 213.048C225.561 212.44 226.019 211.96 226.595 211.608C227.182 211.245 227.838 211.064 228.563 211.064C229.139 211.064 229.689 211.171 230.211 211.384C230.734 211.597 231.187 211.896 231.571 212.28L230.819 213.096C230.542 212.787 230.206 212.547 229.811 212.376C229.417 212.205 229.017 212.12 228.611 212.12C228.099 212.12 227.635 212.253 227.219 212.52C226.814 212.787 226.489 213.144 226.243 213.592C225.998 214.04 225.875 214.541 225.875 215.096C225.875 215.651 225.998 216.152 226.243 216.6C226.489 217.048 226.814 217.405 227.219 217.672C227.635 217.939 228.099 218.072 228.611 218.072C229.017 218.072 229.417 217.987 229.811 217.816C230.206 217.635 230.542 217.395 230.819 217.096L231.571 217.912C231.187 218.296 230.734 218.595 230.211 218.808C229.689 219.021 229.139 219.128 228.563 219.128ZM236.486 219.16C235.76 219.16 235.104 218.984 234.518 218.632C233.931 218.269 233.467 217.784 233.126 217.176C232.784 216.557 232.614 215.864 232.614 215.096C232.614 214.328 232.774 213.64 233.094 213.032C233.424 212.424 233.867 211.944 234.422 211.592C234.976 211.24 235.595 211.064 236.278 211.064C236.971 211.064 237.584 211.24 238.118 211.592C238.662 211.933 239.088 212.403 239.398 213C239.718 213.587 239.878 214.253 239.878 215V215.352H233.75C233.792 215.885 233.936 216.365 234.182 216.792C234.438 217.208 234.768 217.539 235.174 217.784C235.59 218.019 236.043 218.136 236.534 218.136C236.939 218.136 237.328 218.067 237.702 217.928C238.086 217.779 238.411 217.581 238.678 217.336L239.414 218.12C238.966 218.472 238.502 218.733 238.022 218.904C237.542 219.075 237.03 219.16 236.486 219.16ZM233.782 214.52H238.726C238.672 214.051 238.528 213.635 238.294 213.272C238.07 212.899 237.782 212.605 237.43 212.392C237.088 212.179 236.704 212.072 236.278 212.072C235.851 212.072 235.462 212.179 235.11 212.392C234.758 212.595 234.464 212.883 234.23 213.256C234.006 213.619 233.856 214.04 233.782 214.52ZM241.872 219V207.448L243.04 207.208V219H241.872Z" fill="#0066CC"/>
</g>
<g filter="url(#filter1_d_12003_1483)">
<path d="M892 125V108L904 120H897L892 125Z" fill="#151515"/>
<path d="M891.5 125V126.207L892.354 125.354L897.207 120.5H904H905.207L904.354 119.646L892.354 107.646L891.5 106.793V108V125Z" stroke="white"/>
</g>
<defs>
<filter id="filter0_d_12003_1483" x="32" y="48" width="936" height="263" filterUnits="userSpaceOnUse" color-interpolation-filters="sRGB">
<feFlood flood-opacity="0" result="BackgroundImageFix"/>
<feColorMatrix in="SourceAlpha" type="matrix" values="0 0 0 0 0 0 0 0 0 0 0 0 0 0 0 0 0 0 127 0" result="hardAlpha"/>
<feOffset dy="16"/>
<feGaussianBlur stdDeviation="16"/>
<feComposite in2="hardAlpha" operator="out"/>
<feColorMatrix type="matrix" values="0 0 0 0 0.0823529 0 0 0 0 0.0823529 0 0 0 0 0.0823529 0 0 0 0.35 0"/>
<feBlend mode="normal" in2="BackgroundImageFix" result="effect1_dropShadow_12003_1483"/>
<feBlend mode="normal" in="SourceGraphic" in2="effect1_dropShadow_12003_1483" result="shape"/>
</filter>
<filter id="filter1_d_12003_1483" x="887" y="103.586" width="23.4141" height="29.8284" filterUnits="userSpaceOnUse" color-interpolation-filters="sRGB">
<feFlood flood-opacity="0" result="BackgroundImageFix"/>
<feColorMatrix in="SourceAlpha" type="matrix" values="0 0 0 0 0 0 0 0 0 0 0 0 0 0 0 0 0 0 127 0" result="hardAlpha"/>
<feOffset dy="2"/>
<feGaussianBlur stdDeviation="2"/>
<feComposite in2="hardAlpha" operator="out"/>
<feColorMatrix type="matrix" values="0 0 0 0 0.0823529 0 0 0 0 0.0823529 0 0 0 0 0.0823529 0 0 0 0.2 0"/>
<feBlend mode="normal" in2="BackgroundImageFix" result="effect1_dropShadow_12003_1483"/>
<feBlend mode="normal" in="SourceGraphic" in2="effect1_dropShadow_12003_1483" result="shape"/>
</filter>
<clipPath id="clip0_12003_1483">
<rect width="16" height="16" fill="white" transform="translate(884 100)"/>
</clipPath>
</defs>
</svg>
