<svg xmlns="http://www.w3.org/2000/svg" width="344" height="482.982" viewBox="0 0 344 482.982">
  <g id="Group_82" data-name="Group 82" transform="translate(-408 -1668)">
    <path id="Path_1346" data-name="Path 1346" d="M1.218,0H2.3V-9.8H1.218ZM7.84-.8A2.478,2.478,0,0,1,5.432-3.416a2.48,2.48,0,0,1,2.394-2.6,2.685,2.685,0,0,1,1.932.854l.658-.714A3.727,3.727,0,0,0,7.784-6.944,3.412,3.412,0,0,0,4.41-3.416,3.424,3.424,0,0,0,7.784.126,3.553,3.553,0,0,0,10.374-.98l-.63-.63A2.516,2.516,0,0,1,7.84-.8Zm3.626-2.618A3.384,3.384,0,0,0,14.784.14a3.378,3.378,0,0,0,3.332-3.556,3.353,3.353,0,0,0-3.332-3.528A3.351,3.351,0,0,0,11.466-3.416ZM14.784-.77A2.409,2.409,0,0,1,12.474-3.4a2.43,2.43,0,0,1,2.31-2.646A2.44,2.44,0,0,1,17.108-3.4,2.427,2.427,0,0,1,14.784-.77ZM20.048,0H21.07V-5.04a2.014,2.014,0,0,1,1.792-1.05A1.771,1.771,0,0,1,24.7-4.13V0h1.022V-4.424a2.378,2.378,0,0,0-2.478-2.52,2.462,2.462,0,0,0-2.17,1.218V-6.832H20.048Zm7.21-.882A3.9,3.9,0,0,0,30.03.126c1.512,0,2.66-.924,2.66-2.114C32.69-3,32.074-3.57,30.7-3.822l-1.148-.21c-.882-.154-1.176-.42-1.176-.98,0-.672.588-1.092,1.484-1.092A3.624,3.624,0,0,1,32-5.376l.5-.714a4.417,4.417,0,0,0-2.6-.854c-1.442,0-2.464.826-2.464,2,0,.994.6,1.554,1.932,1.792l1.12.2c.868.168,1.232.462,1.232,1.022C31.724-1.218,31-.7,30-.7a3.563,3.563,0,0,1-2.2-.854ZM40.012,0l1.624-5.516L43.26,0h.994l1.862-6.832H45.15l-1.414,5.46L42.1-6.832h-.91L39.55-1.372l-1.428-5.46h-.994L39,0Zm8.2-8.512a.726.726,0,0,0,.728-.742.741.741,0,0,0-.728-.728.744.744,0,0,0-.742.728A.729.729,0,0,0,48.216-8.512Zm.5,1.68H47.7V0H48.72ZM51.772-1.54c0,1.092.616,1.666,1.792,1.666a3.837,3.837,0,0,0,1.19-.182v-.91a2.454,2.454,0,0,1-.966.182c-.714,0-.994-.294-.994-1.022V-5.992h1.96v-.84h-1.96V-8.946l-1.022.238v1.876H50.358v.84h1.414ZM56.392,0h1.022V-5.04a2.014,2.014,0,0,1,1.792-1.05A1.771,1.771,0,0,1,61.04-4.13V0h1.022V-4.424a2.378,2.378,0,0,0-2.478-2.52,2.462,2.462,0,0,0-2.17,1.218V-10.22l-1.022.21Zm11.27,0h1.022V-5.082A1.872,1.872,0,0,1,70.35-6.09a1.7,1.7,0,0,1,1.694,1.932V0h1.022V-4.41a2.834,2.834,0,0,0-.056-.6A1.9,1.9,0,0,1,74.718-6.09c1.036,0,1.68.742,1.68,1.932V0H77.42V-4.41A2.325,2.325,0,0,0,75.1-6.944a2.524,2.524,0,0,0-2.282,1.33,2.245,2.245,0,0,0-2.1-1.33,2.34,2.34,0,0,0-2.03,1.176V-6.832H67.662ZM80.15-8.512a.726.726,0,0,0,.728-.742.741.741,0,0,0-.728-.728.744.744,0,0,0-.742.728A.729.729,0,0,0,80.15-8.512Zm.5,1.68H79.632V0h1.022ZM82.894,0h1.022V-5.04a2.014,2.014,0,0,1,1.792-1.05,1.771,1.771,0,0,1,1.834,1.96V0h1.022V-4.424a2.378,2.378,0,0,0-2.478-2.52,2.462,2.462,0,0,0-2.17,1.218V-6.832H82.894Zm7.56-3.416A3.384,3.384,0,0,0,93.772.14,3.378,3.378,0,0,0,97.1-3.416a3.353,3.353,0,0,0-3.332-3.528A3.351,3.351,0,0,0,90.454-3.416ZM93.772-.77A2.409,2.409,0,0,1,91.462-3.4a2.43,2.43,0,0,1,2.31-2.646A2.44,2.44,0,0,1,96.1-3.4,2.427,2.427,0,0,1,93.772-.77ZM99.036,0h1.022V-4.676a1.947,1.947,0,0,1,1.834-1.386,2.554,2.554,0,0,1,.714.126V-6.86a1.94,1.94,0,0,0-.644-.1,2.041,2.041,0,0,0-1.9,1.512V-6.832H99.036Zm10.43,0h.98l2.814-6.832h-1.092l-2.184,5.558-2.212-5.558h-1.106Zm5.712-8.512a.726.726,0,0,0,.728-.742.741.741,0,0,0-.728-.728.744.744,0,0,0-.742.728A.729.729,0,0,0,115.178-8.512Zm.5,1.68H114.66V0h1.022Zm1.582,5.95A3.9,3.9,0,0,0,120.036.126c1.512,0,2.66-.924,2.66-2.114,0-1.008-.616-1.582-1.988-1.834l-1.148-.21c-.882-.154-1.176-.42-1.176-.98,0-.672.588-1.092,1.484-1.092a3.624,3.624,0,0,1,2.142.728l.5-.714a4.417,4.417,0,0,0-2.6-.854c-1.442,0-2.464.826-2.464,2,0,.994.6,1.554,1.932,1.792l1.12.2c.868.168,1.232.462,1.232,1.022,0,.714-.728,1.232-1.722,1.232a3.563,3.563,0,0,1-2.2-.854Zm8.12-5.95h-1.036v4.41A2.389,2.389,0,0,0,126.826.112,2.446,2.446,0,0,0,129-1.106V0h1.022V-6.832H129v5.054A2.028,2.028,0,0,1,127.2-.742a1.765,1.765,0,0,1-1.82-1.974ZM134.372.126a2.933,2.933,0,0,0,2.17-.924V0h1.008V-4.536c0-1.554-.952-2.408-2.646-2.408a5.853,5.853,0,0,0-2.576.658l.378.784a4.511,4.511,0,0,1,2.072-.588A1.538,1.538,0,0,1,136.542-4.4v.938a3.956,3.956,0,0,0-2.086-.532c-1.54,0-2.562.812-2.562,2.03A2.206,2.206,0,0,0,134.372.126Zm-1.5-2.114c0-.756.686-1.26,1.736-1.26a3.607,3.607,0,0,1,1.932.49v1.316a2.7,2.7,0,0,1-1.96.784C133.56-.658,132.874-1.19,132.874-1.988Zm7.91-8.232-1.022.21V0h1.022ZM148.54.126A2.933,2.933,0,0,0,150.71-.8V0h1.008V-4.536c0-1.554-.952-2.408-2.646-2.408a5.853,5.853,0,0,0-2.576.658l.378.784a4.511,4.511,0,0,1,2.072-.588A1.538,1.538,0,0,1,150.71-4.4v.938a3.956,3.956,0,0,0-2.086-.532c-1.54,0-2.562.812-2.562,2.03A2.206,2.206,0,0,0,148.54.126Zm-1.5-2.114c0-.756.686-1.26,1.736-1.26a3.607,3.607,0,0,1,1.932.49v1.316a2.7,2.7,0,0,1-1.96.784C147.728-.658,147.042-1.19,147.042-1.988ZM158.956,0h1.022V-10.22l-1.022.21v4.046a2.783,2.783,0,0,0-2.128-.952A3.327,3.327,0,0,0,153.622-3.4a3.3,3.3,0,0,0,3.15,3.5A2.692,2.692,0,0,0,158.956-.91ZM154.63-3.416a2.438,2.438,0,0,1,2.394-2.6,2.45,2.45,0,0,1,1.932.924v3.388a2.34,2.34,0,0,1-1.932.91A2.451,2.451,0,0,1,154.63-3.416Zm8.106-5.1a.718.718,0,0,0,.728-.742.741.741,0,0,0-.728-.728.744.744,0,0,0-.742.728A.729.729,0,0,0,162.736-8.512ZM161.518,2.982a1.572,1.572,0,0,0,1.722-1.75V-6.832h-1.022V1.176c0,.63-.238.9-.826.9a1.918,1.918,0,0,1-.5-.056V2.9A2.858,2.858,0,0,0,161.518,2.982Zm4.956-9.814h-1.036v4.41A2.389,2.389,0,0,0,167.916.112a2.446,2.446,0,0,0,2.17-1.218V0h1.022V-6.832h-1.022v5.054a2.028,2.028,0,0,1-1.792,1.036,1.765,1.765,0,0,1-1.82-1.974Zm6.216,5.95A3.9,3.9,0,0,0,175.462.126c1.512,0,2.66-.924,2.66-2.114,0-1.008-.616-1.582-1.988-1.834l-1.148-.21c-.882-.154-1.176-.42-1.176-.98,0-.672.588-1.092,1.484-1.092a3.624,3.624,0,0,1,2.142.728l.5-.714a4.417,4.417,0,0,0-2.6-.854c-1.442,0-2.464.826-2.464,2,0,.994.6,1.554,1.932,1.792l1.12.2c.868.168,1.232.462,1.232,1.022,0,.714-.728,1.232-1.722,1.232a3.563,3.563,0,0,1-2.2-.854Zm7.8-.658c0,1.092.616,1.666,1.792,1.666a3.837,3.837,0,0,0,1.19-.182v-.91a2.454,2.454,0,0,1-.966.182c-.714,0-.994-.294-.994-1.022V-5.992h1.96v-.84h-1.96V-8.946l-1.022.238v1.876h-1.414v.84h1.414ZM185.108,0h1.022V-5.082A1.872,1.872,0,0,1,187.8-6.09a1.7,1.7,0,0,1,1.694,1.932V0h1.022V-4.41a2.833,2.833,0,0,0-.056-.6,1.9,1.9,0,0,1,1.708-1.078c1.036,0,1.68.742,1.68,1.932V0h1.022V-4.41a2.325,2.325,0,0,0-2.324-2.534,2.524,2.524,0,0,0-2.282,1.33,2.245,2.245,0,0,0-2.1-1.33,2.34,2.34,0,0,0-2.03,1.176V-6.832h-1.022ZM202.72-.784l-.644-.686a2.792,2.792,0,0,1-1.876.7,2.49,2.49,0,0,1-2.436-2.422h5.362V-3.5a3.228,3.228,0,0,0-3.136-3.444,3.325,3.325,0,0,0-3.22,3.528A3.41,3.41,0,0,0,200.158.126,3.989,3.989,0,0,0,202.72-.784Zm-2.744-5.278a2.256,2.256,0,0,1,2.142,2.142h-4.326A2.282,2.282,0,0,1,199.976-6.062ZM205.016,0h1.022V-5.04a2.014,2.014,0,0,1,1.792-1.05,1.771,1.771,0,0,1,1.834,1.96V0h1.022V-4.424a2.378,2.378,0,0,0-2.478-2.52,2.462,2.462,0,0,0-2.17,1.218V-6.832h-1.022Zm8.47-1.54c0,1.092.616,1.666,1.792,1.666a3.837,3.837,0,0,0,1.19-.182v-.91a2.454,2.454,0,0,1-.966.182c-.714,0-.994-.294-.994-1.022V-5.992h1.96v-.84h-1.96V-8.946l-1.022.238v1.876h-1.414v.84h1.414Zm4.1.658A3.9,3.9,0,0,0,220.36.126c1.512,0,2.66-.924,2.66-2.114,0-1.008-.616-1.582-1.988-1.834l-1.148-.21c-.882-.154-1.176-.42-1.176-.98,0-.672.588-1.092,1.484-1.092a3.624,3.624,0,0,1,2.142.728l.5-.714a4.417,4.417,0,0,0-2.6-.854c-1.442,0-2.464.826-2.464,2,0,.994.6,1.554,1.932,1.792l1.12.2c.868.168,1.232.462,1.232,1.022,0,.714-.728,1.232-1.722,1.232a3.563,3.563,0,0,1-2.2-.854Z" transform="translate(408 2148)" fill="#f0f"/>
    <g id="Group_58" data-name="Group 58" transform="translate(-66 388)">
      <g id="Group_56" data-name="Group 56" transform="translate(158 -18)">
        <rect id="Rectangle_12" data-name="Rectangle 12" width="72" height="72" transform="translate(588 1676)" fill="none" opacity="0.5"/>
        <g id="Transportation_-_Speedometer" data-name="Transportation - Speedometer" transform="translate(594 1682)">
          <path id="Path_1179" data-name="Path 1179" d="M33.36,3.36a30.078,30.078,0,0,0-30,30.073c1.639,39.913,58.361,39.892,60,0a30.078,30.078,0,0,0-30-30.073Zm0,57.517A27.513,27.513,0,0,1,5.921,33.433c1.5-36.5,53.381-36.482,54.877,0A27.513,27.513,0,0,1,33.36,60.939Z" transform="translate(-3.36 -3.36)" fill="#e00"/>
          <path id="Path_1180" data-name="Path 1180" d="M17.752,9.564c1.168,1.171,3.012-.637,1.8-1.808A1.277,1.277,0,0,0,17.752,9.564Z" transform="translate(11.346 0.871)" fill="#e00"/>
          <path id="Path_1181" data-name="Path 1181" d="M12.554,12.567c1.209-1.171-.656-3-1.8-1.808a1.277,1.277,0,0,0,1.8,1.808Z" transform="translate(4.003 4.031)" fill="#e00"/>
          <path id="Path_1182" data-name="Path 1182" d="M9.1,17.451a1.294,1.294,0,0,0-.984,2.383A1.294,1.294,0,0,0,9.1,17.451Z" transform="translate(0.899 11.431)" fill="#e00"/>
          <path id="Path_1183" data-name="Path 1183" d="M29.828,18.119a1.291,1.291,0,0,0-2.377.986,1.291,1.291,0,0,0,2.377-.986Z" transform="translate(21.852 11.461)" fill="#e00"/>
          <path id="Path_1184" data-name="Path 1184" d="M33.9,23.38H15.454a4.355,4.355,0,0,0,0,8.71H33.9a4.355,4.355,0,0,0,0-8.71Zm0,6.163H15.454a1.808,1.808,0,0,1,0-3.595H33.9a1.808,1.808,0,0,1,0,3.595Z" transform="translate(4.771 17.745)" fill="#e00"/>
          <path id="Path_1185" data-name="Path 1185" d="M34.663,10.749,24.417,21.02a6.17,6.17,0,1,0,1.824,1.828L36.486,12.577C37.614,11.406,35.81,9.6,34.663,10.749ZM21.1,29.791a3.636,3.636,0,1,1,3.627-3.636A3.631,3.631,0,0,1,21.1,29.791Z" transform="translate(8.78 4.041)" fill="#e00"/>
        </g>
      </g>
      <g id="Group_55" data-name="Group 55" transform="translate(72 -18)">
        <rect id="Rectangle_11" data-name="Rectangle 11" width="72" height="72" transform="translate(538 1676)" fill="none" opacity="0.5"/>
        <g id="Software_and_technologies_-_Hybrid_cloud_infrastructure" data-name="Software and technologies - Hybrid cloud infrastructure" transform="translate(538 1683)">
          <path id="Path_746" data-name="Path 746" d="M20.979,53.823H64.228a1.853,1.853,0,0,0,.643-.124,12.629,12.629,0,0,0,.89-24.713h0a22.539,22.539,0,0,0-42.7-10.058A17.6,17.6,0,1,0,20.979,54Zm0-32.127a14.655,14.655,0,0,1,2.694.272,1.582,1.582,0,0,0,1.705-.89A19.449,19.449,0,0,1,62.7,28.813c0,.321,0,.643,0,.989v.247a1.557,1.557,0,0,0,1.384,1.631,9.564,9.564,0,0,1-1.013,19.054H21.054a14.531,14.531,0,1,1,0-29.063Z" transform="translate(-3.378 -6.452)" fill="#e00"/>
          <path id="Path_747" data-name="Path 747" d="M70.167,28.38H5.912a1.532,1.532,0,1,0,0,3.064H70.167a1.532,1.532,0,0,0,0-3.064Z" transform="translate(-1.903 25.812)" fill="#e00"/>
        </g>
      </g>
      <g id="Group_57" data-name="Group 57" transform="translate(68 -18)">
        <rect id="Rectangle_10" data-name="Rectangle 10" width="72" height="72" transform="translate(406 1676)" fill="none" opacity="0.5"/>
        <g id="Diagrams_-_Simplify" data-name="Diagrams - Simplify" transform="translate(410 1682)">
          <path id="Diagrams_-_Simplify-2" data-name="Diagrams - Simplify" d="M68.352,34.992a1.291,1.291,0,0,0-.423-1.033l-7.042-7.042c-1.314-1.361-3.45.751-2.066,2.066l4.53,4.554H48.119A17.275,17.275,0,0,1,31.853,21.965a8.473,8.473,0,1,0-3.028.352,20.233,20.233,0,0,0,8.825,11.22H21.22a8.5,8.5,0,1,0,0,2.934h16.43a20.162,20.162,0,0,0-8.825,11.2,8.473,8.473,0,1,0,3.028.352A17.228,17.228,0,0,1,48.119,36.47H63.376L58.846,41a1.461,1.461,0,0,0,2.066,2.066l7.042-7.042a1.62,1.62,0,0,0,.4-1.033Zm-44.6-21.125a5.586,5.586,0,0,1,11.149,0,5.586,5.586,0,0,1-11.149,0Zm11.173,42.25a5.586,5.586,0,0,1-11.149,0,5.586,5.586,0,0,1,11.149,0ZM12.911,40.578a5.586,5.586,0,0,1,0-11.149,5.586,5.586,0,0,1,0,11.149Z" transform="translate(-4.354 -5.387)" fill="#e00"/>
        </g>
      </g>
    </g>
    <g id="Group_59" data-name="Group 59" transform="translate(0 152)">
      <g id="Group_56-2" data-name="Group 56" transform="translate(22 114)">
        <g id="Transportation_-_Speedometer-2" data-name="Transportation - Speedometer" transform="translate(664 1682)">
          <path id="Path_1179-2" data-name="Path 1179" d="M33.36,3.36a30.078,30.078,0,0,0-30,30.073c1.639,39.913,58.361,39.892,60,0a30.078,30.078,0,0,0-30-30.073Zm0,57.517A27.513,27.513,0,0,1,5.921,33.433c1.5-36.5,53.381-36.482,54.877,0A27.513,27.513,0,0,1,33.36,60.939Z" transform="translate(-3.36 -3.36)" fill="#e00"/>
          <path id="Path_1180-2" data-name="Path 1180" d="M17.752,9.564c1.168,1.171,3.012-.637,1.8-1.808A1.277,1.277,0,0,0,17.752,9.564Z" transform="translate(11.346 0.871)" fill="#e00"/>
          <path id="Path_1181-2" data-name="Path 1181" d="M12.554,12.567c1.209-1.171-.656-3-1.8-1.808a1.277,1.277,0,0,0,1.8,1.808Z" transform="translate(4.003 4.031)" fill="#e00"/>
          <path id="Path_1182-2" data-name="Path 1182" d="M9.1,17.451a1.294,1.294,0,0,0-.984,2.383A1.294,1.294,0,0,0,9.1,17.451Z" transform="translate(0.899 11.431)" fill="#e00"/>
          <path id="Path_1183-2" data-name="Path 1183" d="M29.828,18.119a1.291,1.291,0,0,0-2.377.986,1.291,1.291,0,0,0,2.377-.986Z" transform="translate(21.852 11.461)" fill="#e00"/>
          <path id="Path_1184-2" data-name="Path 1184" d="M33.9,23.38H15.454a4.355,4.355,0,0,0,0,8.71H33.9a4.355,4.355,0,0,0,0-8.71Zm0,6.163H15.454a1.808,1.808,0,0,1,0-3.595H33.9a1.808,1.808,0,0,1,0,3.595Z" transform="translate(4.771 17.745)" fill="#e00"/>
          <path id="Path_1185-2" data-name="Path 1185" d="M34.663,10.749,24.417,21.02a6.17,6.17,0,1,0,1.824,1.828L36.486,12.577C37.614,11.406,35.81,9.6,34.663,10.749ZM21.1,29.791a3.636,3.636,0,1,1,3.627-3.636A3.631,3.631,0,0,1,21.1,29.791Z" transform="translate(8.78 4.041)" fill="#e00"/>
        </g>
        <g id="Rectangle_9" data-name="Rectangle 9" transform="translate(658 1676)" fill="none" stroke="blue" stroke-width="1" stroke-dasharray="4" opacity="0.5">
          <rect width="72" height="72" stroke="none"/>
          <rect x="0.5" y="0.5" width="71" height="71" fill="none"/>
        </g>
      </g>
      <g id="Group_55-2" data-name="Group 55" transform="translate(6 114)">
        <g id="Software_and_technologies_-_Hybrid_cloud_infrastructure-2" data-name="Software and technologies - Hybrid cloud infrastructure" transform="translate(538 1683)">
          <path id="Path_746-2" data-name="Path 746" d="M20.979,53.823H64.228a1.853,1.853,0,0,0,.643-.124,12.629,12.629,0,0,0,.89-24.713h0a22.539,22.539,0,0,0-42.7-10.058A17.6,17.6,0,1,0,20.979,54Zm0-32.127a14.655,14.655,0,0,1,2.694.272,1.582,1.582,0,0,0,1.705-.89A19.449,19.449,0,0,1,62.7,28.813c0,.321,0,.643,0,.989v.247a1.557,1.557,0,0,0,1.384,1.631,9.564,9.564,0,0,1-1.013,19.054H21.054a14.531,14.531,0,1,1,0-29.063Z" transform="translate(-3.378 -6.452)" fill="#e00"/>
          <path id="Path_747-2" data-name="Path 747" d="M70.167,28.38H5.912a1.532,1.532,0,1,0,0,3.064H70.167a1.532,1.532,0,0,0,0-3.064Z" transform="translate(-1.903 25.812)" fill="#e00"/>
        </g>
        <g id="Rectangle_11-2" data-name="Rectangle 11" transform="translate(538 1676)" fill="none" stroke="blue" stroke-width="1" stroke-dasharray="4" opacity="0.5">
          <rect width="72" height="72" stroke="none"/>
          <rect x="0.5" y="0.5" width="71" height="71" fill="none"/>
        </g>
      </g>
      <g id="Group_57-2" data-name="Group 57" transform="translate(2 114)">
        <g id="Diagrams_-_Simplify-3" data-name="Diagrams - Simplify" transform="translate(410 1682)">
          <path id="Diagrams_-_Simplify-4" data-name="Diagrams - Simplify" d="M68.352,34.992a1.291,1.291,0,0,0-.423-1.033l-7.042-7.042c-1.314-1.361-3.45.751-2.066,2.066l4.53,4.554H48.119A17.275,17.275,0,0,1,31.853,21.965a8.473,8.473,0,1,0-3.028.352,20.233,20.233,0,0,0,8.825,11.22H21.22a8.5,8.5,0,1,0,0,2.934h16.43a20.162,20.162,0,0,0-8.825,11.2,8.473,8.473,0,1,0,3.028.352A17.228,17.228,0,0,1,48.119,36.47H63.376L58.846,41a1.461,1.461,0,0,0,2.066,2.066l7.042-7.042a1.62,1.62,0,0,0,.4-1.033Zm-44.6-21.125a5.586,5.586,0,0,1,11.149,0,5.586,5.586,0,0,1-11.149,0Zm11.173,42.25a5.586,5.586,0,0,1-11.149,0,5.586,5.586,0,0,1,11.149,0ZM12.911,40.578a5.586,5.586,0,0,1,0-11.149,5.586,5.586,0,0,1,0,11.149Z" transform="translate(-4.354 -5.387)" fill="#e00"/>
        </g>
        <g id="Rectangle_10-2" data-name="Rectangle 10" transform="translate(406 1676)" fill="none" stroke="blue" stroke-width="1" stroke-dasharray="4" opacity="0.5">
          <rect width="72" height="72" stroke="none"/>
          <rect x="0.5" y="0.5" width="71" height="71" fill="none"/>
        </g>
      </g>
    </g>
    <path id="Path_1345" data-name="Path 1345" d="M1.218,0H2.3V-9.8H1.218ZM7.84-.8A2.478,2.478,0,0,1,5.432-3.416a2.48,2.48,0,0,1,2.394-2.6,2.685,2.685,0,0,1,1.932.854l.658-.714A3.727,3.727,0,0,0,7.784-6.944,3.412,3.412,0,0,0,4.41-3.416,3.424,3.424,0,0,0,7.784.126,3.553,3.553,0,0,0,10.374-.98l-.63-.63A2.516,2.516,0,0,1,7.84-.8Zm3.626-2.618A3.384,3.384,0,0,0,14.784.14a3.378,3.378,0,0,0,3.332-3.556,3.353,3.353,0,0,0-3.332-3.528A3.351,3.351,0,0,0,11.466-3.416ZM14.784-.77A2.409,2.409,0,0,1,12.474-3.4a2.43,2.43,0,0,1,2.31-2.646A2.44,2.44,0,0,1,17.108-3.4,2.427,2.427,0,0,1,14.784-.77ZM20.048,0H21.07V-5.04a2.014,2.014,0,0,1,1.792-1.05A1.771,1.771,0,0,1,24.7-4.13V0h1.022V-4.424a2.378,2.378,0,0,0-2.478-2.52,2.462,2.462,0,0,0-2.17,1.218V-6.832H20.048Zm7.21-.882A3.9,3.9,0,0,0,30.03.126c1.512,0,2.66-.924,2.66-2.114C32.69-3,32.074-3.57,30.7-3.822l-1.148-.21c-.882-.154-1.176-.42-1.176-.98,0-.672.588-1.092,1.484-1.092A3.624,3.624,0,0,1,32-5.376l.5-.714a4.417,4.417,0,0,0-2.6-.854c-1.442,0-2.464.826-2.464,2,0,.994.6,1.554,1.932,1.792l1.12.2c.868.168,1.232.462,1.232,1.022C31.724-1.218,31-.7,30-.7a3.563,3.563,0,0,1-2.2-.854ZM40.012,0l1.624-5.516L43.26,0h.994l1.862-6.832H45.15l-1.414,5.46L42.1-6.832h-.91L39.55-1.372l-1.428-5.46h-.994L39,0Zm8.2-8.512a.726.726,0,0,0,.728-.742.741.741,0,0,0-.728-.728.744.744,0,0,0-.742.728A.729.729,0,0,0,48.216-8.512Zm.5,1.68H47.7V0H48.72ZM51.772-1.54c0,1.092.616,1.666,1.792,1.666a3.837,3.837,0,0,0,1.19-.182v-.91a2.454,2.454,0,0,1-.966.182c-.714,0-.994-.294-.994-1.022V-5.992h1.96v-.84h-1.96V-8.946l-1.022.238v1.876H50.358v.84h1.414ZM56.392,0h1.022V-5.04a2.014,2.014,0,0,1,1.792-1.05A1.771,1.771,0,0,1,61.04-4.13V0h1.022V-4.424a2.378,2.378,0,0,0-2.478-2.52,2.462,2.462,0,0,0-2.17,1.218V-10.22l-1.022.21Zm7.56-3.416A3.384,3.384,0,0,0,67.27.14,3.378,3.378,0,0,0,70.6-3.416,3.353,3.353,0,0,0,67.27-6.944,3.351,3.351,0,0,0,63.952-3.416ZM67.27-.77A2.409,2.409,0,0,1,64.96-3.4a2.43,2.43,0,0,1,2.31-2.646A2.44,2.44,0,0,1,69.594-3.4,2.427,2.427,0,0,1,67.27-.77Zm6.258-6.062H72.492v4.41A2.389,2.389,0,0,0,74.97.112a2.446,2.446,0,0,0,2.17-1.218V0h1.022V-6.832H77.14v5.054A2.028,2.028,0,0,1,75.348-.742a1.765,1.765,0,0,1-1.82-1.974ZM81.214-1.54c0,1.092.616,1.666,1.792,1.666A3.837,3.837,0,0,0,84.2-.056v-.91a2.454,2.454,0,0,1-.966.182c-.714,0-.994-.294-.994-1.022V-5.992H84.2v-.84h-1.96V-8.946l-1.022.238v1.876H79.8v.84h1.414ZM91.35.126A2.933,2.933,0,0,0,93.52-.8V0h1.008V-4.536c0-1.554-.952-2.408-2.646-2.408a5.853,5.853,0,0,0-2.576.658l.378.784a4.511,4.511,0,0,1,2.072-.588A1.538,1.538,0,0,1,93.52-4.4v.938a3.956,3.956,0,0,0-2.086-.532c-1.54,0-2.562.812-2.562,2.03A2.206,2.206,0,0,0,91.35.126Zm-1.5-2.114c0-.756.686-1.26,1.736-1.26a3.606,3.606,0,0,1,1.932.49v1.316a2.7,2.7,0,0,1-1.96.784C90.538-.658,89.852-1.19,89.852-1.988ZM96.74,0h1.022V-5.04a2.014,2.014,0,0,1,1.792-1.05,1.771,1.771,0,0,1,1.834,1.96V0h1.022V-4.424a2.378,2.378,0,0,0-2.478-2.52,2.462,2.462,0,0,0-2.17,1.218V-6.832H96.74Zm9.072,1.092c-.252.616-.574.868-1.092.868a2.379,2.379,0,0,1-.56-.056v.91a2.344,2.344,0,0,0,.658.1c1.008,0,1.526-.406,1.96-1.512l3.388-8.232h-1.134l-2.2,5.614-2.072-5.614h-1.134L106.26-.014ZM116.942,0h.98l2.814-6.832h-1.092L117.46-1.274l-2.212-5.558h-1.106Zm5.712-8.512a.726.726,0,0,0,.728-.742.741.741,0,0,0-.728-.728.744.744,0,0,0-.742.728A.729.729,0,0,0,122.654-8.512Zm.5,1.68h-1.022V0h1.022Zm1.582,5.95A3.9,3.9,0,0,0,127.512.126c1.512,0,2.66-.924,2.66-2.114,0-1.008-.616-1.582-1.988-1.834l-1.148-.21c-.882-.154-1.176-.42-1.176-.98,0-.672.588-1.092,1.484-1.092a3.624,3.624,0,0,1,2.142.728l.5-.714a4.417,4.417,0,0,0-2.6-.854c-1.442,0-2.464.826-2.464,2,0,.994.6,1.554,1.932,1.792l1.12.2c.868.168,1.232.462,1.232,1.022,0,.714-.728,1.232-1.722,1.232a3.563,3.563,0,0,1-2.2-.854Zm8.12-5.95h-1.036v4.41A2.389,2.389,0,0,0,134.3.112a2.446,2.446,0,0,0,2.17-1.218V0h1.022V-6.832h-1.022v5.054A2.028,2.028,0,0,1,134.68-.742a1.765,1.765,0,0,1-1.82-1.974ZM141.848.126a2.933,2.933,0,0,0,2.17-.924V0h1.008V-4.536c0-1.554-.952-2.408-2.646-2.408a5.853,5.853,0,0,0-2.576.658l.378.784a4.511,4.511,0,0,1,2.072-.588A1.538,1.538,0,0,1,144.018-4.4v.938a3.956,3.956,0,0,0-2.086-.532c-1.54,0-2.562.812-2.562,2.03A2.206,2.206,0,0,0,141.848.126Zm-1.5-2.114c0-.756.686-1.26,1.736-1.26a3.607,3.607,0,0,1,1.932.49v1.316a2.7,2.7,0,0,1-1.96.784C141.036-.658,140.35-1.19,140.35-1.988Zm7.91-8.232-1.022.21V0h1.022ZM156.016.126a2.933,2.933,0,0,0,2.17-.924V0h1.008V-4.536c0-1.554-.952-2.408-2.646-2.408a5.853,5.853,0,0,0-2.576.658l.378.784a4.511,4.511,0,0,1,2.072-.588A1.538,1.538,0,0,1,158.186-4.4v.938A3.956,3.956,0,0,0,156.1-3.99c-1.54,0-2.562.812-2.562,2.03A2.206,2.206,0,0,0,156.016.126Zm-1.5-2.114c0-.756.686-1.26,1.736-1.26a3.607,3.607,0,0,1,1.932.49v1.316a2.7,2.7,0,0,1-1.96.784C155.2-.658,154.518-1.19,154.518-1.988ZM166.432,0h1.022V-10.22l-1.022.21v4.046a2.783,2.783,0,0,0-2.128-.952A3.327,3.327,0,0,0,161.1-3.4a3.3,3.3,0,0,0,3.15,3.5A2.692,2.692,0,0,0,166.432-.91Zm-4.326-3.416a2.438,2.438,0,0,1,2.394-2.6,2.45,2.45,0,0,1,1.932.924v3.388A2.34,2.34,0,0,1,164.5-.8,2.451,2.451,0,0,1,162.106-3.416Zm8.106-5.1a.718.718,0,0,0,.728-.742.741.741,0,0,0-.728-.728.744.744,0,0,0-.742.728A.729.729,0,0,0,170.212-8.512ZM168.994,2.982a1.572,1.572,0,0,0,1.722-1.75V-6.832h-1.022V1.176c0,.63-.238.9-.826.9a1.918,1.918,0,0,1-.5-.056V2.9A2.858,2.858,0,0,0,168.994,2.982Zm4.956-9.814h-1.036v4.41A2.389,2.389,0,0,0,175.392.112a2.446,2.446,0,0,0,2.17-1.218V0h1.022V-6.832h-1.022v5.054A2.028,2.028,0,0,1,175.77-.742a1.765,1.765,0,0,1-1.82-1.974Zm6.216,5.95A3.9,3.9,0,0,0,182.938.126c1.512,0,2.66-.924,2.66-2.114,0-1.008-.616-1.582-1.988-1.834l-1.148-.21c-.882-.154-1.176-.42-1.176-.98,0-.672.588-1.092,1.484-1.092a3.624,3.624,0,0,1,2.142.728l.5-.714a4.417,4.417,0,0,0-2.6-.854c-1.442,0-2.464.826-2.464,2,0,.994.6,1.554,1.932,1.792l1.12.2c.868.168,1.232.462,1.232,1.022,0,.714-.728,1.232-1.722,1.232a3.563,3.563,0,0,1-2.2-.854Zm7.8-.658c0,1.092.616,1.666,1.792,1.666a3.837,3.837,0,0,0,1.19-.182v-.91a2.454,2.454,0,0,1-.966.182c-.714,0-.994-.294-.994-1.022V-5.992h1.96v-.84h-1.96V-8.946l-1.022.238v1.876H186.55v.84h1.414ZM192.584,0h1.022V-5.082a1.872,1.872,0,0,1,1.666-1.008,1.7,1.7,0,0,1,1.694,1.932V0h1.022V-4.41a2.833,2.833,0,0,0-.056-.6A1.9,1.9,0,0,1,199.64-6.09c1.036,0,1.68.742,1.68,1.932V0h1.022V-4.41a2.325,2.325,0,0,0-2.324-2.534,2.524,2.524,0,0,0-2.282,1.33,2.245,2.245,0,0,0-2.1-1.33,2.34,2.34,0,0,0-2.03,1.176V-6.832h-1.022ZM210.2-.784l-.644-.686a2.792,2.792,0,0,1-1.876.7,2.49,2.49,0,0,1-2.436-2.422H210.6V-3.5a3.228,3.228,0,0,0-3.136-3.444,3.325,3.325,0,0,0-3.22,3.528A3.41,3.41,0,0,0,207.634.126,3.989,3.989,0,0,0,210.2-.784Zm-2.744-5.278a2.256,2.256,0,0,1,2.142,2.142h-4.326A2.282,2.282,0,0,1,207.452-6.062ZM212.492,0h1.022V-5.04a2.014,2.014,0,0,1,1.792-1.05,1.771,1.771,0,0,1,1.834,1.96V0h1.022V-4.424a2.378,2.378,0,0,0-2.478-2.52,2.462,2.462,0,0,0-2.17,1.218V-6.832h-1.022Zm8.47-1.54c0,1.092.616,1.666,1.792,1.666a3.837,3.837,0,0,0,1.19-.182v-.91a2.454,2.454,0,0,1-.966.182c-.714,0-.994-.294-.994-1.022V-5.992h1.96v-.84h-1.96V-8.946l-1.022.238v1.876h-1.414v.84h1.414Zm4.1.658A3.9,3.9,0,0,0,227.836.126c1.512,0,2.66-.924,2.66-2.114,0-1.008-.616-1.582-1.988-1.834l-1.148-.21c-.882-.154-1.176-.42-1.176-.98,0-.672.588-1.092,1.484-1.092a3.624,3.624,0,0,1,2.142.728l.5-.714a4.417,4.417,0,0,0-2.6-.854c-1.442,0-2.464.826-2.464,2,0,.994.6,1.554,1.932,1.792l1.12.2c.868.168,1.232.462,1.232,1.022,0,.714-.728,1.232-1.722,1.232a3.563,3.563,0,0,1-2.2-.854Z" transform="translate(408 1874)" fill="#f0f"/>
    <g id="Group_81" data-name="Group 81" transform="translate(-66 114)">
      <g id="Group_56-3" data-name="Group 56" transform="translate(158 -18)">
        <rect id="Rectangle_12-2" data-name="Rectangle 12" width="72" height="72" transform="translate(588 1676)" fill="none" opacity="0.5"/>
        <g id="Transportation_-_Speedometer-3" data-name="Transportation - Speedometer" transform="translate(588 1676)">
          <path id="Path_1179-3" data-name="Path 1179" d="M39.36,3.36a36.093,36.093,0,0,0-36,36.088c1.967,47.9,70.033,47.871,72,0a36.093,36.093,0,0,0-36-36.088Zm0,69.02A33.015,33.015,0,0,1,6.434,39.448c1.8-43.8,64.057-43.779,65.852,0A33.016,33.016,0,0,1,39.36,72.454Z" transform="translate(-3.36 -3.36)" fill="#e00"/>
          <path id="Path_1180-3" data-name="Path 1180" d="M17.827,10c1.4,1.405,3.615-.764,2.164-2.169A1.532,1.532,0,0,0,17.827,10Z" transform="translate(17.091 2.521)" fill="#e00"/>
          <path id="Path_1181-3" data-name="Path 1181" d="M12.99,13.006c1.451-1.405-.787-3.6-2.164-2.169a1.532,1.532,0,0,0,2.164,2.169Z" transform="translate(6.879 6.912)" fill="#e00"/>
          <path id="Path_1182-3" data-name="Path 1182" d="M9.437,17.463a1.553,1.553,0,0,0-1.18,2.859,1.553,1.553,0,0,0,1.18-2.859Z" transform="translate(2.563 17.195)" fill="#e00"/>
          <path id="Path_1183-3" data-name="Path 1183" d="M30.316,18.259a1.55,1.55,0,0,0-2.852,1.183,1.55,1.55,0,0,0,2.852-1.183Z" transform="translate(31.701 17.238)" fill="#e00"/>
          <path id="Path_1184-3" data-name="Path 1184" d="M38.454,23.38H16.323a5.226,5.226,0,0,0,0,10.452H38.454a5.226,5.226,0,0,0,0-10.452Zm0,7.4H16.323a2.17,2.17,0,0,1,0-4.314H38.454a2.17,2.17,0,0,1,0,4.314Z" transform="translate(7.947 25.97)" fill="#e00"/>
          <path id="Path_1185-3" data-name="Path 1185" d="M38.609,10.823l-12.3,12.325A7.4,7.4,0,1,0,28.5,25.342L40.8,13.016C42.15,11.611,39.986,9.442,38.609,10.823ZM22.33,33.673a4.363,4.363,0,1,1,4.352-4.363,4.358,4.358,0,0,1-4.352,4.363Z" transform="translate(13.522 6.926)" fill="#e00"/>
        </g>
      </g>
      <g id="Group_55-3" data-name="Group 55" transform="translate(72 -18)">
        <rect id="Rectangle_11-3" data-name="Rectangle 11" width="72" height="72" transform="translate(538 1676)" fill="none" opacity="0.5"/>
        <g id="Software_and_technologies_-_Hybrid_cloud_infrastructure-3" data-name="Software and technologies - Hybrid cloud infrastructure" transform="translate(538 1683)">
          <path id="Path_746-3" data-name="Path 746" d="M20.979,53.823H64.228a1.853,1.853,0,0,0,.643-.124,12.629,12.629,0,0,0,.89-24.713h0a22.539,22.539,0,0,0-42.7-10.058A17.6,17.6,0,1,0,20.979,54Zm0-32.127a14.655,14.655,0,0,1,2.694.272,1.582,1.582,0,0,0,1.705-.89A19.449,19.449,0,0,1,62.7,28.813c0,.321,0,.643,0,.989v.247a1.557,1.557,0,0,0,1.384,1.631,9.564,9.564,0,0,1-1.013,19.054H21.054a14.531,14.531,0,1,1,0-29.063Z" transform="translate(-3.378 -6.452)" fill="#e00"/>
          <path id="Path_747-3" data-name="Path 747" d="M70.167,28.38H5.912a1.532,1.532,0,1,0,0,3.064H70.167a1.532,1.532,0,0,0,0-3.064Z" transform="translate(-1.903 25.812)" fill="#e00"/>
        </g>
      </g>
      <g id="Group_57-3" data-name="Group 57" transform="translate(68 -18)">
        <rect id="Rectangle_10-3" data-name="Rectangle 10" width="72" height="72" transform="translate(406 1676)" fill="none" opacity="0.5"/>
        <g id="Diagrams_-_Simplify-5" data-name="Diagrams - Simplify" transform="translate(406 1679)">
          <path id="Diagrams_-_Simplify-6" data-name="Diagrams - Simplify" d="M76.352,38.692a1.452,1.452,0,0,0-.475-1.162l-7.922-7.922c-1.479-1.532-3.882.845-2.324,2.324l5.1,5.123H53.59a19.435,19.435,0,0,1-18.3-13.018,9.533,9.533,0,1,0-3.406.4,22.762,22.762,0,0,0,9.929,12.622H23.329a9.559,9.559,0,1,0,0,3.3H41.813a22.683,22.683,0,0,0-9.929,12.6,9.533,9.533,0,1,0,3.406.4,19.382,19.382,0,0,1,18.3-12.992H70.754l-5.1,5.1a1.643,1.643,0,1,0,2.324,2.324L75.9,39.854a1.822,1.822,0,0,0,.449-1.162ZM26.181,14.927a6.285,6.285,0,0,1,12.543,0,6.285,6.285,0,0,1-12.543,0ZM38.75,62.458a6.285,6.285,0,0,1-12.543,0,6.285,6.285,0,0,1,12.543,0ZM13.981,44.977a6.285,6.285,0,0,1,0-12.543,6.285,6.285,0,0,1,0,12.543Z" transform="translate(-4.354 -5.387)" fill="#e00"/>
        </g>
      </g>
    </g>
    <g id="Group_60" data-name="Group 60" transform="translate(-66 10)">
      <g id="Group_56-4" data-name="Group 56" transform="translate(158 -18)">
        <g id="Transportation_-_Speedometer-4" data-name="Transportation - Speedometer" transform="translate(588 1676)">
          <path id="Path_1179-4" data-name="Path 1179" d="M39.36,3.36a36.093,36.093,0,0,0-36,36.088c1.967,47.9,70.033,47.871,72,0a36.093,36.093,0,0,0-36-36.088Zm0,69.02A33.015,33.015,0,0,1,6.434,39.448c1.8-43.8,64.057-43.779,65.852,0A33.016,33.016,0,0,1,39.36,72.454Z" transform="translate(-3.36 -3.36)" fill="#e00"/>
          <path id="Path_1180-4" data-name="Path 1180" d="M17.827,10c1.4,1.405,3.615-.764,2.164-2.169A1.532,1.532,0,0,0,17.827,10Z" transform="translate(17.091 2.521)" fill="#e00"/>
          <path id="Path_1181-4" data-name="Path 1181" d="M12.99,13.006c1.451-1.405-.787-3.6-2.164-2.169a1.532,1.532,0,0,0,2.164,2.169Z" transform="translate(6.879 6.912)" fill="#e00"/>
          <path id="Path_1182-4" data-name="Path 1182" d="M9.437,17.463a1.553,1.553,0,0,0-1.18,2.859,1.553,1.553,0,0,0,1.18-2.859Z" transform="translate(2.563 17.195)" fill="#e00"/>
          <path id="Path_1183-4" data-name="Path 1183" d="M30.316,18.259a1.55,1.55,0,0,0-2.852,1.183,1.55,1.55,0,0,0,2.852-1.183Z" transform="translate(31.701 17.238)" fill="#e00"/>
          <path id="Path_1184-4" data-name="Path 1184" d="M38.454,23.38H16.323a5.226,5.226,0,0,0,0,10.452H38.454a5.226,5.226,0,0,0,0-10.452Zm0,7.4H16.323a2.17,2.17,0,0,1,0-4.314H38.454a2.17,2.17,0,0,1,0,4.314Z" transform="translate(7.947 25.97)" fill="#e00"/>
          <path id="Path_1185-4" data-name="Path 1185" d="M38.609,10.823l-12.3,12.325A7.4,7.4,0,1,0,28.5,25.342L40.8,13.016C42.15,11.611,39.986,9.442,38.609,10.823ZM22.33,33.673a4.363,4.363,0,1,1,4.352-4.363,4.358,4.358,0,0,1-4.352,4.363Z" transform="translate(13.522 6.926)" fill="#e00"/>
        </g>
        <g id="Rectangle_12-3" data-name="Rectangle 12" transform="translate(588 1676)" fill="none" stroke="blue" stroke-width="1" stroke-dasharray="4" opacity="0.5">
          <rect width="72" height="72" stroke="none"/>
          <rect x="0.5" y="0.5" width="71" height="71" fill="none"/>
        </g>
      </g>
      <g id="Group_55-4" data-name="Group 55" transform="translate(72 -18)">
        <g id="Software_and_technologies_-_Hybrid_cloud_infrastructure-4" data-name="Software and technologies - Hybrid cloud infrastructure" transform="translate(538 1683)">
          <path id="Path_746-4" data-name="Path 746" d="M20.979,53.823H64.228a1.853,1.853,0,0,0,.643-.124,12.629,12.629,0,0,0,.89-24.713h0a22.539,22.539,0,0,0-42.7-10.058A17.6,17.6,0,1,0,20.979,54Zm0-32.127a14.655,14.655,0,0,1,2.694.272,1.582,1.582,0,0,0,1.705-.89A19.449,19.449,0,0,1,62.7,28.813c0,.321,0,.643,0,.989v.247a1.557,1.557,0,0,0,1.384,1.631,9.564,9.564,0,0,1-1.013,19.054H21.054a14.531,14.531,0,1,1,0-29.063Z" transform="translate(-3.378 -6.452)" fill="#e00"/>
          <path id="Path_747-4" data-name="Path 747" d="M70.167,28.38H5.912a1.532,1.532,0,1,0,0,3.064H70.167a1.532,1.532,0,0,0,0-3.064Z" transform="translate(-1.903 25.812)" fill="#e00"/>
        </g>
        <g id="Rectangle_11-4" data-name="Rectangle 11" transform="translate(538 1676)" fill="none" stroke="blue" stroke-width="1" stroke-dasharray="4" opacity="0.5">
          <rect width="72" height="72" stroke="none"/>
          <rect x="0.5" y="0.5" width="71" height="71" fill="none"/>
        </g>
      </g>
      <g id="Group_57-4" data-name="Group 57" transform="translate(68 -18)">
        <g id="Diagrams_-_Simplify-7" data-name="Diagrams - Simplify" transform="translate(406 1679)">
          <path id="Diagrams_-_Simplify-8" data-name="Diagrams - Simplify" d="M76.352,38.692a1.452,1.452,0,0,0-.475-1.162l-7.922-7.922c-1.479-1.532-3.882.845-2.324,2.324l5.1,5.123H53.59a19.435,19.435,0,0,1-18.3-13.018,9.533,9.533,0,1,0-3.406.4,22.762,22.762,0,0,0,9.929,12.622H23.329a9.559,9.559,0,1,0,0,3.3H41.813a22.683,22.683,0,0,0-9.929,12.6,9.533,9.533,0,1,0,3.406.4,19.382,19.382,0,0,1,18.3-12.992H70.754l-5.1,5.1a1.643,1.643,0,1,0,2.324,2.324L75.9,39.854a1.822,1.822,0,0,0,.449-1.162ZM26.181,14.927a6.285,6.285,0,0,1,12.543,0,6.285,6.285,0,0,1-12.543,0ZM38.75,62.458a6.285,6.285,0,0,1-12.543,0,6.285,6.285,0,0,1,12.543,0ZM13.981,44.977a6.285,6.285,0,0,1,0-12.543,6.285,6.285,0,0,1,0,12.543Z" transform="translate(-4.354 -5.387)" fill="#e00"/>
        </g>
        <g id="Rectangle_10-4" data-name="Rectangle 10" transform="translate(406 1676)" fill="none" stroke="blue" stroke-width="1" stroke-dasharray="4" opacity="0.5">
          <rect width="72" height="72" stroke="none"/>
          <rect x="0.5" y="0.5" width="71" height="71" fill="none"/>
        </g>
      </g>
    </g>
  </g>
</svg>
