<svg xmlns="http://www.w3.org/2000/svg" width="872" height="444" viewBox="0 0 872 444">
  <g id="Group_46" data-name="Group 46" transform="translate(-80 -80)">
    <rect id="Rectangle_53" data-name="Rectangle 53" width="872" height="444" transform="translate(80 80)" fill="none"/>
    <rect id="Rectangle" width="152" height="56" rx="3" transform="translate(642 383)" fill="#e00"/>
    <path id="Path_1392" data-name="Path 1392" d="M12.128-5.584v-.7H6.336v2.016H9.648a3.014,3.014,0,0,1-3.1,2.336A3.557,3.557,0,0,1,2.96-5.6,3.5,3.5,0,0,1,6.48-9.248,3.866,3.866,0,0,1,9.52-7.792L11.136-9.28a6.005,6.005,0,0,0-4.656-2.1A5.772,5.772,0,0,0,.576-5.6,5.79,5.79,0,0,0,6.512.176,5.53,5.53,0,0,0,12.128-5.584ZM21.04-1.04,19.6-2.352a2.624,2.624,0,0,1-1.84.672,2.4,2.4,0,0,1-2.368-1.744H21.6V-4a4.207,4.207,0,0,0-4.128-4.48,4.255,4.255,0,0,0-4.288,4.32A4.34,4.34,0,0,0,17.664.16,5,5,0,0,0,21.04-1.04ZM17.424-6.672a2.151,2.151,0,0,1,2.032,1.68h-4.08A2.094,2.094,0,0,1,17.424-6.672Zm6.336,4.32c0,1.632.96,2.48,2.816,2.48a6.8,6.8,0,0,0,1.7-.256V-1.92a3.372,3.372,0,0,1-1.168.192c-.848,0-1.152-.288-1.152-1.072V-6.5H28.32v-1.84H25.952V-10.96l-2.192.5v2.128H22.048V-6.5H23.76Zm8.16,1.36A6.143,6.143,0,0,0,35.744.16c2.1,0,3.648-1.184,3.648-2.752,0-1.3-.912-2.144-2.544-2.384l-1.6-.24c-.816-.112-1.136-.336-1.136-.784,0-.5.512-.816,1.312-.816a4.921,4.921,0,0,1,2.576.8l1.056-1.408a6.149,6.149,0,0,0-3.424-1.04c-2.128,0-3.472,1.024-3.472,2.64,0,1.344.88,2.16,2.528,2.416l1.6.24c.72.112,1.04.352,1.04.784,0,.528-.64.88-1.616.88a4.854,4.854,0,0,1-2.7-.944Zm9.536-1.36c0,1.632.96,2.48,2.816,2.48a6.8,6.8,0,0,0,1.7-.256V-1.92a3.372,3.372,0,0,1-1.168.192c-.848,0-1.152-.288-1.152-1.072V-6.5h2.368v-1.84H43.648V-10.96l-2.192.5v2.128H39.744V-6.5h1.712Zm8.288,2.5a3.962,3.962,0,0,0,2.416-.72V0h2.16V-5.408c0-1.968-1.3-3.088-3.552-3.088a8.692,8.692,0,0,0-3.712.9l.8,1.616A6.46,6.46,0,0,1,50.4-6.672c1.168,0,1.76.5,1.76,1.456v.592a6.742,6.742,0,0,0-2.032-.32C47.984-4.944,46.7-4,46.7-2.416,46.7-.9,47.952.144,49.744.144ZM48.8-2.464c0-.64.592-1.04,1.6-1.04a4.843,4.843,0,0,1,1.76.3v1.248a3.156,3.156,0,0,1-1.84.528C49.392-1.424,48.8-1.824,48.8-2.464ZM55.984,0h2.192V-5.392A2.206,2.206,0,0,1,60.192-6.64a2.8,2.8,0,0,1,1.12.224v-1.92a1.889,1.889,0,0,0-.912-.192,2.652,2.652,0,0,0-2.224,1.1v-.912H55.984ZM63.76-2.352c0,1.632.96,2.48,2.816,2.48a6.8,6.8,0,0,0,1.7-.256V-1.92a3.372,3.372,0,0,1-1.168.192c-.848,0-1.152-.288-1.152-1.072V-6.5H68.32v-1.84H65.952V-10.96l-2.192.5v2.128H62.048V-6.5H63.76ZM76.8-1.04,75.36-2.352a2.624,2.624,0,0,1-1.84.672,2.4,2.4,0,0,1-2.368-1.744H77.36V-4a4.207,4.207,0,0,0-4.128-4.48,4.255,4.255,0,0,0-4.288,4.32A4.34,4.34,0,0,0,73.424.16,5,5,0,0,0,76.8-1.04ZM73.184-6.672a2.151,2.151,0,0,1,2.032,1.68h-4.08A2.094,2.094,0,0,1,73.184-6.672ZM84.992,0h2.16V-11.68l-2.192.48v3.408a4.143,4.143,0,0,0-2.272-.656,4.238,4.238,0,0,0-4.3,4.272A4.228,4.228,0,0,0,82.624.112a3.78,3.78,0,0,0,2.368-.8ZM80.544-4.176a2.368,2.368,0,0,1,2.432-2.416,2.752,2.752,0,0,1,1.984.784V-2.56a2.674,2.674,0,0,1-1.984.8A2.388,2.388,0,0,1,80.544-4.176Z" transform="translate(674 417)" fill="#fff"/>
    <path id="Path_1393" data-name="Path 1393" d="M25.712,16h1.232V10.96h4.384V9.888H26.944V5.872H33.36V4.8H25.712Zm10.928.144a3.352,3.352,0,0,0,2.48-1.056V16h1.152V10.816c0-1.776-1.088-2.752-3.024-2.752a6.689,6.689,0,0,0-2.944.752l.432.9A5.156,5.156,0,0,1,37.1,9.04a1.758,1.758,0,0,1,2.016,1.936v1.072a4.521,4.521,0,0,0-2.384-.608c-1.76,0-2.928.928-2.928,2.32C33.808,15.168,34.976,16.144,36.64,16.144Zm-1.712-2.416c0-.864.784-1.44,1.984-1.44a4.122,4.122,0,0,1,2.208.56v1.5a3.091,3.091,0,0,1-2.24.9C35.712,15.248,34.928,14.64,34.928,13.728Zm6.96,1.264a4.451,4.451,0,0,0,3.168,1.152c1.728,0,3.04-1.056,3.04-2.416,0-1.152-.7-1.808-2.272-2.1l-1.312-.24c-1.008-.176-1.344-.48-1.344-1.12,0-.768.672-1.248,1.7-1.248a4.142,4.142,0,0,1,2.448.832l.576-.816a5.048,5.048,0,0,0-2.976-.976c-1.648,0-2.816.944-2.816,2.288,0,1.136.688,1.776,2.208,2.048l1.28.224c.992.192,1.408.528,1.408,1.168,0,.816-.832,1.408-1.968,1.408a4.072,4.072,0,0,1-2.512-.976Zm8.752-.752c0,1.248.7,1.9,2.048,1.9a4.386,4.386,0,0,0,1.36-.208V14.9a2.8,2.8,0,0,1-1.1.208c-.816,0-1.136-.336-1.136-1.168V9.152h2.24v-.96h-2.24V5.776l-1.168.272V8.192H49.024v.96H50.64Zm11.376.864-.736-.784a3.191,3.191,0,0,1-2.144.8,2.845,2.845,0,0,1-2.784-2.768H62.48V12A3.689,3.689,0,0,0,58.9,8.064a3.8,3.8,0,0,0-3.68,4.032,3.9,3.9,0,0,0,3.872,4.048A4.558,4.558,0,0,0,62.016,15.1ZM58.88,9.072a2.579,2.579,0,0,1,2.448,2.448H56.384A2.608,2.608,0,0,1,58.88,9.072ZM64.48,16h1.168V10.656a2.226,2.226,0,0,1,2.1-1.584,2.919,2.919,0,0,1,.816.144V8.16a2.217,2.217,0,0,0-.736-.112,2.332,2.332,0,0,0-2.176,1.728V8.192H64.48Zm11.776.144a3.352,3.352,0,0,0,2.48-1.056V16h1.152V10.816c0-1.776-1.088-2.752-3.024-2.752a6.689,6.689,0,0,0-2.944.752l.432.9A5.156,5.156,0,0,1,76.72,9.04a1.758,1.758,0,0,1,2.016,1.936v1.072a4.521,4.521,0,0,0-2.384-.608c-1.76,0-2.928.928-2.928,2.32C73.424,15.168,74.592,16.144,76.256,16.144Zm-1.712-2.416c0-.864.784-1.44,1.984-1.44a4.122,4.122,0,0,1,2.208.56v1.5a3.091,3.091,0,0,1-2.24.9C75.328,15.248,74.544,14.64,74.544,13.728Zm7.712,5.616h1.168v-4.32a3.166,3.166,0,0,0,2.448,1.088A3.8,3.8,0,0,0,89.536,12.1a3.768,3.768,0,0,0-3.6-4,3.08,3.08,0,0,0-2.528,1.216V8.192H82.256ZM85.648,9.12a2.8,2.8,0,0,1,2.736,2.992A2.8,2.8,0,0,1,85.648,15.1a2.744,2.744,0,0,1-2.224-1.088V10.192A2.666,2.666,0,0,1,85.648,9.12Zm5.936,10.224h1.168v-4.32A3.166,3.166,0,0,0,95.2,16.112,3.8,3.8,0,0,0,98.864,12.1a3.768,3.768,0,0,0-3.6-4,3.08,3.08,0,0,0-2.528,1.216V8.192H91.584ZM94.976,9.12a2.8,2.8,0,0,1,2.736,2.992A2.8,2.8,0,0,1,94.976,15.1a2.744,2.744,0,0,1-2.224-1.088V10.192A2.666,2.666,0,0,1,94.976,9.12ZM37.712,40h1.12l3.216-7.808H40.8l-2.5,6.352-2.528-6.352H34.512ZM49.7,39.1l-.736-.784a3.191,3.191,0,0,1-2.144.8,2.845,2.845,0,0,1-2.784-2.768H50.16V36a3.689,3.689,0,0,0-3.584-3.936A3.8,3.8,0,0,0,42.9,36.1a3.9,3.9,0,0,0,3.872,4.048A4.558,4.558,0,0,0,49.7,39.1ZM46.56,33.072a2.579,2.579,0,0,1,2.448,2.448H44.064A2.608,2.608,0,0,1,46.56,33.072Zm6.768-4.752-1.168.24V40h1.168ZM55.376,36.1a3.809,3.809,0,1,0,7.6,0,3.807,3.807,0,1,0-7.6,0Zm3.792,3.024a2.753,2.753,0,0,1-2.64-3.008,2.671,2.671,0,1,1,5.3,0A2.774,2.774,0,0,1,59.168,39.12Zm9.44-.032a2.995,2.995,0,0,1-.016-5.968A3.069,3.069,0,0,1,70.8,34.1l.752-.816a4.259,4.259,0,0,0-3.008-1.216,4.044,4.044,0,0,0,0,8.08A4.061,4.061,0,0,0,71.5,38.88l-.72-.72A2.876,2.876,0,0,1,68.608,39.088Zm5.168-8.816a.83.83,0,0,0,.832-.848.84.84,0,0,0-1.68,0A.834.834,0,0,0,73.776,30.272Zm.576,1.92H73.184V40h1.168ZM77.68,38.24c0,1.248.7,1.9,2.048,1.9a4.386,4.386,0,0,0,1.36-.208V38.9a2.8,2.8,0,0,1-1.1.208c-.816,0-1.136-.336-1.136-1.168V33.152h2.24v-.96h-2.24V29.776l-1.168.272v2.144H76.064v.96H77.68ZM84.5,41.248c-.288.7-.656.992-1.248.992a2.719,2.719,0,0,1-.64-.064v1.04a2.678,2.678,0,0,0,.752.112c1.152,0,1.744-.464,2.24-1.728l3.872-9.408h-1.3l-2.512,6.416L83.3,32.192H82l3.008,7.792Z" transform="translate(828 290)" fill="#151515"/>
    <g id="Transportation_-_Speedometer" data-name="Transportation - Speedometer" transform="translate(858 202)">
      <path id="Path_1179" data-name="Path 1179" d="M35.36,3.36a32.083,32.083,0,0,0-32,32.078c1.749,42.574,62.251,42.552,64,0a32.083,32.083,0,0,0-32-32.078Zm0,61.351A29.347,29.347,0,0,1,6.092,35.438c1.6-38.936,56.94-38.914,58.536,0A29.347,29.347,0,0,1,35.36,64.777Z" transform="translate(-3.36 -3.36)" fill="#e00"/>
      <path id="Path_1180" data-name="Path 1180" d="M17.777,9.71c1.246,1.249,3.213-.679,1.923-1.928A1.362,1.362,0,0,0,17.777,9.71Z" transform="translate(13.261 1.421)" fill="#e00"/>
      <path id="Path_1181" data-name="Path 1181" d="M12.7,12.713c1.29-1.249-.7-3.2-1.923-1.928A1.362,1.362,0,0,0,12.7,12.713Z" transform="translate(4.962 4.991)" fill="#e00"/>
      <path id="Path_1182" data-name="Path 1182" d="M9.213,17.455A1.38,1.38,0,0,0,8.164,20a1.38,1.38,0,0,0,1.049-2.542Z" transform="translate(1.454 13.352)" fill="#e00"/>
      <path id="Path_1183" data-name="Path 1183" d="M29.991,18.165a1.377,1.377,0,0,0-2.536,1.052,1.377,1.377,0,0,0,2.536-1.052Z" transform="translate(25.135 13.387)" fill="#e00"/>
      <path id="Path_1184" data-name="Path 1184" d="M35.416,23.38H15.744a4.645,4.645,0,0,0,0,9.29H35.416a4.645,4.645,0,0,0,0-9.29Zm0,6.573H15.744a1.929,1.929,0,0,1,0-3.834H35.416a1.929,1.929,0,0,1,0,3.834Z" transform="translate(5.83 20.486)" fill="#e00"/>
      <path id="Path_1185" data-name="Path 1185" d="M35.978,10.773,25.049,21.729a6.581,6.581,0,1,0,1.945,1.95L37.924,12.724C39.126,11.475,37.2,9.546,35.978,10.773ZM21.508,31.085a3.878,3.878,0,1,1,3.869-3.878,3.874,3.874,0,0,1-3.869,3.878Z" transform="translate(10.361 5.003)" fill="#e00"/>
    </g>
    <path id="Path_1391" data-name="Path 1391" d="M18.216,16h1.232V10.912H25.88V16h1.232V4.8H25.88V9.808H19.448V4.8H18.216ZM31.24,17.248c-.288.7-.656.992-1.248.992a2.719,2.719,0,0,1-.64-.064v1.04a2.679,2.679,0,0,0,.752.112c1.152,0,1.744-.464,2.24-1.728l3.872-9.408h-1.3l-2.512,6.416L30.04,8.192h-1.3l3.008,7.792ZM44.952,12.1a3.768,3.768,0,0,0-3.6-4A3.146,3.146,0,0,0,38.84,9.264V4.32l-1.168.24V16h1.152V14.976a3.161,3.161,0,0,0,2.464,1.136A3.8,3.8,0,0,0,44.952,12.1ZM41.064,9.12A2.8,2.8,0,0,1,43.8,12.112,2.8,2.8,0,0,1,41.064,15.1a2.744,2.744,0,0,1-2.224-1.088V10.192A2.666,2.666,0,0,1,41.064,9.12ZM47,16h1.168V10.656a2.226,2.226,0,0,1,2.1-1.584,2.919,2.919,0,0,1,.816.144V8.16a2.217,2.217,0,0,0-.736-.112,2.332,2.332,0,0,0-2.176,1.728V8.192H47Zm6.224-9.728a.83.83,0,0,0,.832-.848.84.84,0,0,0-1.68,0A.834.834,0,0,0,53.224,6.272Zm.576,1.92H52.632V16H53.8ZM61.944,16h1.168V4.32l-1.168.24V9.184A3.18,3.18,0,0,0,59.512,8.1a3.8,3.8,0,0,0-3.664,4.016,3.768,3.768,0,0,0,3.6,4,3.077,3.077,0,0,0,2.5-1.152ZM57,12.1a2.774,2.774,0,0,1,4.944-1.92v3.872a2.674,2.674,0,0,1-2.208,1.04A2.8,2.8,0,0,1,57,12.1Zm15.808,2.992A2.832,2.832,0,0,1,70.056,12.1,2.835,2.835,0,0,1,72.792,9.12,3.069,3.069,0,0,1,75,10.1l.752-.816a4.259,4.259,0,0,0-3.008-1.216A3.9,3.9,0,0,0,68.888,12.1a3.913,3.913,0,0,0,3.856,4.048A4.061,4.061,0,0,0,75.7,14.88l-.72-.72A2.876,2.876,0,0,1,72.808,15.088ZM78.552,4.32l-1.168.24V16h1.168ZM80.6,12.1a3.809,3.809,0,1,0,7.6,0,3.807,3.807,0,1,0-7.6,0Zm3.792,3.024a2.753,2.753,0,0,1-2.64-3.008,2.671,2.671,0,1,1,5.3,0A2.774,2.774,0,0,1,84.392,15.12Zm6.992-6.928H90.2v5.04a2.73,2.73,0,0,0,2.832,2.9,2.8,2.8,0,0,0,2.48-1.392V16H96.68V8.192H95.512v5.776a2.318,2.318,0,0,1-2.048,1.184,2.017,2.017,0,0,1-2.08-2.256ZM104.824,16h1.168V4.32l-1.168.24V9.184A3.18,3.18,0,0,0,102.392,8.1a3.8,3.8,0,0,0-3.664,4.016,3.768,3.768,0,0,0,3.6,4,3.077,3.077,0,0,0,2.5-1.152ZM99.88,12.1a2.774,2.774,0,0,1,4.944-1.92v3.872a2.674,2.674,0,0,1-2.208,1.04A2.8,2.8,0,0,1,99.88,12.1Zm-69.168,20.1v.96h1.744V40h1.168V33.152h2.224v-.96H33.624V30.5c0-.928.384-1.36,1.28-1.36a3.22,3.22,0,0,1,.944.144V28.224a3.3,3.3,0,0,0-1.056-.144,2.143,2.143,0,0,0-2.336,2.4v1.712Zm7.84-3.872-1.168.24V40h1.168ZM47.4,39.1l-.736-.784a3.191,3.191,0,0,1-2.144.8,2.845,2.845,0,0,1-2.784-2.768h6.128V36a3.689,3.689,0,0,0-3.584-3.936A3.8,3.8,0,0,0,40.6,36.1a3.9,3.9,0,0,0,3.872,4.048A4.558,4.558,0,0,0,47.4,39.1Zm-3.136-6.032a2.579,2.579,0,0,1,2.448,2.448H41.768A2.608,2.608,0,0,1,44.264,33.072ZM48.376,40H49.7l2.32-3.184L54.36,40h1.392l-3.024-4.048,2.8-3.76H54.2l-2.128,2.96-2.16-2.96H48.52l2.832,3.792Zm9.376-9.728a.83.83,0,0,0,.832-.848.84.84,0,0,0-1.68,0A.834.834,0,0,0,57.752,30.272Zm.576,1.92H57.16V40h1.168Zm9.68,3.9a3.768,3.768,0,0,0-3.6-4A3.146,3.146,0,0,0,61.9,33.264V28.32l-1.168.24V40H61.88V38.976a3.161,3.161,0,0,0,2.464,1.136A3.8,3.8,0,0,0,68.008,36.1ZM64.12,33.12a2.8,2.8,0,0,1,2.736,2.992A2.8,2.8,0,0,1,64.12,39.1,2.744,2.744,0,0,1,61.9,38.016V34.192A2.666,2.666,0,0,1,64.12,33.12Zm6.528-2.848a.83.83,0,0,0,.832-.848.84.84,0,0,0-1.68,0A.834.834,0,0,0,70.648,30.272Zm.576,1.92H70.056V40h1.168Zm3.568-3.872-1.168.24V40h1.168Zm2.992,1.952a.83.83,0,0,0,.832-.848.84.84,0,0,0-1.68,0A.834.834,0,0,0,77.784,30.272Zm.576,1.92H77.192V40H78.36Zm3.328,6.048c0,1.248.7,1.9,2.048,1.9a4.386,4.386,0,0,0,1.36-.208V38.9a2.8,2.8,0,0,1-1.1.208c-.816,0-1.136-.336-1.136-1.168V33.152H85.1v-.96h-2.24V29.776l-1.168.272v2.144H80.072v.96h1.616ZM88.5,41.248c-.288.7-.656.992-1.248.992a2.719,2.719,0,0,1-.64-.064v1.04a2.678,2.678,0,0,0,.752.112c1.152,0,1.744-.464,2.24-1.728l3.872-9.408h-1.3l-2.512,6.416L87.3,32.192h-1.3l3.008,7.792Z" transform="translate(656 290)" fill="#151515"/>
    <g id="Group_44" data-name="Group 44" transform="translate(599 -1015)">
      <rect id="Rectangle_3" data-name="Rectangle 3" width="72" height="72" transform="translate(83 1217)" fill="none"/>
      <g id="Software_and_technologies_-_Hybrid_cloud_infrastructure" data-name="Software and technologies - Hybrid cloud infrastructure" transform="translate(83 1224)">
        <path id="Path_746" data-name="Path 746" d="M20.979,53.823H64.228a1.853,1.853,0,0,0,.643-.124,12.629,12.629,0,0,0,.89-24.713h0a22.539,22.539,0,0,0-42.7-10.058A17.6,17.6,0,1,0,20.979,54Zm0-32.127a14.655,14.655,0,0,1,2.694.272,1.582,1.582,0,0,0,1.705-.89A19.449,19.449,0,0,1,62.7,28.813c0,.321,0,.643,0,.989v.247a1.557,1.557,0,0,0,1.384,1.631,9.564,9.564,0,0,1-1.013,19.054H21.054a14.531,14.531,0,1,1,0-29.063Z" transform="translate(-3.378 -6.452)" fill="#e00"/>
        <path id="Path_747" data-name="Path 747" d="M70.167,28.38H5.912a1.532,1.532,0,1,0,0,3.064H70.167a1.532,1.532,0,0,0,0-3.064Z" transform="translate(-1.903 25.812)" fill="#e00"/>
      </g>
    </g>
    <path id="Path_1390" data-name="Path 1390" d="M31.84,16h1.232V11.216h3.344L38.688,16h1.36l-2.384-4.944A3.048,3.048,0,0,0,40,8.032C40,6.1,38.576,4.8,36.432,4.8H31.84Zm4.5-10.112a2.168,2.168,0,1,1,0,4.3H33.072v-4.3ZM48.016,15.1l-.736-.784a3.191,3.191,0,0,1-2.144.8,2.845,2.845,0,0,1-2.784-2.768H48.48V12A3.689,3.689,0,0,0,44.9,8.064a3.8,3.8,0,0,0-3.68,4.032,3.9,3.9,0,0,0,3.872,4.048A4.558,4.558,0,0,0,48.016,15.1ZM44.88,9.072a2.579,2.579,0,0,1,2.448,2.448H42.384A2.608,2.608,0,0,1,44.88,9.072ZM56.24,16h1.168V4.32l-1.168.24V9.184A3.18,3.18,0,0,0,53.808,8.1a3.8,3.8,0,0,0-3.664,4.016,3.768,3.768,0,0,0,3.6,4,3.077,3.077,0,0,0,2.5-1.152ZM51.3,12.1a2.774,2.774,0,0,1,4.944-1.92v3.872a2.674,2.674,0,0,1-2.208,1.04A2.8,2.8,0,0,1,51.3,12.1Zm9.648-3.9H59.76v5.04a2.73,2.73,0,0,0,2.832,2.9,2.8,2.8,0,0,0,2.48-1.392V16H66.24V8.192H65.072v5.776a2.318,2.318,0,0,1-2.048,1.184,2.017,2.017,0,0,1-2.08-2.256Zm11.264,6.9A2.832,2.832,0,0,1,69.456,12.1,2.835,2.835,0,0,1,72.192,9.12,3.069,3.069,0,0,1,74.4,10.1l.752-.816a4.259,4.259,0,0,0-3.008-1.216A3.9,3.9,0,0,0,68.288,12.1a3.913,3.913,0,0,0,3.856,4.048A4.061,4.061,0,0,0,75.1,14.88l-.72-.72A2.876,2.876,0,0,1,72.208,15.088Zm10.784.016-.736-.784a3.191,3.191,0,0,1-2.144.8,2.845,2.845,0,0,1-2.784-2.768h6.128V12a3.689,3.689,0,0,0-3.584-3.936,3.8,3.8,0,0,0-3.68,4.032,3.9,3.9,0,0,0,3.872,4.048A4.558,4.558,0,0,0,82.992,15.1ZM79.856,9.072A2.579,2.579,0,0,1,82.3,11.52H77.36A2.608,2.608,0,0,1,79.856,9.072ZM91.216,16h1.168V4.32l-1.168.24V9.184A3.18,3.18,0,0,0,88.784,8.1a3.8,3.8,0,0,0-3.664,4.016,3.768,3.768,0,0,0,3.6,4,3.077,3.077,0,0,0,2.5-1.152Zm-4.944-3.9a2.774,2.774,0,0,1,4.944-1.92v3.872a2.674,2.674,0,0,1-2.208,1.04A2.8,2.8,0,0,1,86.272,12.1ZM27.984,39.088a2.995,2.995,0,0,1-.016-5.968,3.069,3.069,0,0,1,2.208.976l.752-.816a4.259,4.259,0,0,0-3.008-1.216,4.044,4.044,0,0,0,0,8.08,4.061,4.061,0,0,0,2.96-1.264l-.72-.72A2.876,2.876,0,0,1,27.984,39.088ZM31.968,36.1a3.809,3.809,0,1,0,7.6,0,3.807,3.807,0,1,0-7.6,0ZM35.76,39.12a2.753,2.753,0,0,1-2.64-3.008,2.671,2.671,0,1,1,5.3,0A2.774,2.774,0,0,1,35.76,39.12Zm5.856.88h1.168V34.192a2.14,2.14,0,0,1,1.9-1.152,1.94,1.94,0,0,1,1.936,2.208V40h1.168V34.96a3.238,3.238,0,0,0-.064-.688A2.172,2.172,0,0,1,49.68,33.04c1.184,0,1.92.848,1.92,2.208V40h1.168V34.96a2.657,2.657,0,0,0-2.656-2.9,2.885,2.885,0,0,0-2.608,1.52,2.566,2.566,0,0,0-2.4-1.52,2.674,2.674,0,0,0-2.32,1.344V32.192H41.616Zm13.52,3.344H56.3v-4.32a3.166,3.166,0,0,0,2.448,1.088A3.8,3.8,0,0,0,62.416,36.1a3.768,3.768,0,0,0-3.6-4,3.08,3.08,0,0,0-2.528,1.216v-1.12H55.136ZM58.528,33.12a2.8,2.8,0,0,1,2.736,2.992A2.8,2.8,0,0,1,58.528,39.1,2.744,2.744,0,0,1,56.3,38.016V34.192A2.666,2.666,0,0,1,58.528,33.12Zm7.1-4.8-1.168.24V40h1.168ZM74.48,39.1l-.736-.784a3.191,3.191,0,0,1-2.144.8,2.845,2.845,0,0,1-2.784-2.768h6.128V36a3.689,3.689,0,0,0-3.584-3.936A3.8,3.8,0,0,0,67.68,36.1a3.9,3.9,0,0,0,3.872,4.048A4.558,4.558,0,0,0,74.48,39.1Zm-3.136-6.032a2.579,2.579,0,0,1,2.448,2.448H68.848A2.608,2.608,0,0,1,71.344,33.072ZM75.456,40h1.328l2.32-3.184L81.44,40h1.392l-3.024-4.048,2.8-3.76H81.28l-2.128,2.96-2.16-2.96H75.6l2.832,3.792Zm9.376-9.728a.83.83,0,0,0,.832-.848.84.84,0,0,0-1.68,0A.834.834,0,0,0,84.832,30.272Zm.576,1.92H84.24V40h1.168Zm3.328,6.048c0,1.248.7,1.9,2.048,1.9a4.386,4.386,0,0,0,1.36-.208V38.9a2.8,2.8,0,0,1-1.1.208c-.816,0-1.136-.336-1.136-1.168V33.152h2.24v-.96H89.9V29.776l-1.168.272v2.144H87.12v.96h1.616Zm6.816,3.008c-.288.7-.656.992-1.248.992a2.719,2.719,0,0,1-.64-.064v1.04a2.678,2.678,0,0,0,.752.112c1.152,0,1.744-.464,2.24-1.728l3.872-9.408h-1.3L96.72,38.608l-2.368-6.416h-1.3l3.008,7.792Z" transform="translate(484 290)" fill="#151515"/>
    <g id="Group_45" data-name="Group 45" transform="translate(417 -989)">
      <rect id="Rectangle_4" data-name="Rectangle 4" width="64" height="64" transform="translate(97 1191)" fill="none"/>
      <g id="Diagrams_-_Simplify" data-name="Diagrams - Simplify" transform="translate(97 1193)">
        <path id="Diagrams_-_Simplify-2" data-name="Diagrams - Simplify" d="M68.352,34.992a1.291,1.291,0,0,0-.423-1.033l-7.042-7.042c-1.314-1.361-3.45.751-2.066,2.066l4.53,4.554H48.119A17.275,17.275,0,0,1,31.853,21.965a8.473,8.473,0,1,0-3.028.352,20.233,20.233,0,0,0,8.825,11.22H21.22a8.5,8.5,0,1,0,0,2.934h16.43a20.162,20.162,0,0,0-8.825,11.2,8.473,8.473,0,1,0,3.028.352A17.228,17.228,0,0,1,48.119,36.47H63.376L58.846,41a1.461,1.461,0,0,0,2.066,2.066l7.042-7.042a1.62,1.62,0,0,0,.4-1.033Zm-44.6-21.125a5.586,5.586,0,0,1,11.149,0,5.586,5.586,0,0,1-11.149,0Zm11.173,42.25a5.586,5.586,0,0,1-11.149,0,5.586,5.586,0,0,1,11.149,0ZM12.911,40.578a5.586,5.586,0,0,1,0-11.149,5.586,5.586,0,0,1,0,11.149Z" transform="translate(-4.354 -5.387)" fill="#e00"/>
      </g>
    </g>
    <path id="Path_1389" data-name="Path 1389" d="M72.356,9.4V29H81.2c4.088,0,6.748-2.212,6.748-5.572a4.922,4.922,0,0,0-3.472-4.62A4.635,4.635,0,0,0,87.2,14.58c0-3.136-2.52-5.18-6.356-5.18Zm8.316,2.492c2.212,0,3.612,1.12,3.612,2.912s-1.4,2.912-3.612,2.912H75.3V11.892Zm.308,14.616H75.3v-6.44H80.98c2.436,0,4,1.288,4,3.22C84.984,25.248,83.416,26.508,80.98,26.508Zm22.176.868-1.792-1.764a5.543,5.543,0,0,1-3.612,1.26,4.807,4.807,0,0,1-4.816-4.088h11.256v-.812c0-4.2-2.968-7.448-6.888-7.448a7.161,7.161,0,0,0-7.14,7.336,7.334,7.334,0,0,0,7.476,7.392A8.5,8.5,0,0,0,103.156,27.376Zm-5.908-10.5a4.408,4.408,0,0,1,4.172,3.808H92.964A4.377,4.377,0,0,1,97.248,16.876ZM106.852,29h2.8V18.752A4.027,4.027,0,0,1,113.18,16.9a3.317,3.317,0,0,1,3.528,3.612V29h2.8V20.04a5.321,5.321,0,0,0-5.572-5.572,5.869,5.869,0,0,0-4.284,1.708V14.748h-2.8Zm28.224-1.624-1.792-1.764a5.543,5.543,0,0,1-3.612,1.26,4.807,4.807,0,0,1-4.816-4.088h11.256v-.812c0-4.2-2.968-7.448-6.888-7.448a7.161,7.161,0,0,0-7.14,7.336,7.334,7.334,0,0,0,7.476,7.392A8.5,8.5,0,0,0,135.076,27.376Zm-5.908-10.5a4.408,4.408,0,0,1,4.172,3.808h-8.456A4.377,4.377,0,0,1,129.168,16.876Zm7.868-2.128V17.1h3.3V29h2.8V17.1h4.06V14.748h-4.06v-2.1c0-1.512.756-2.212,2.3-2.212a5.6,5.6,0,0,1,1.764.252V8.252A7.351,7.351,0,0,0,145.184,8c-3.136,0-4.844,1.624-4.844,4.592v2.156Zm13.692-2.3a1.736,1.736,0,0,0,0-3.472,1.736,1.736,0,0,0,0,3.472Zm1.4,2.3h-2.8V29h2.8Zm5.152,10.724c0,2.464,1.484,3.78,4.256,3.78a9.274,9.274,0,0,0,2.66-.42V26.48a5.5,5.5,0,0,1-2.044.336c-1.512,0-2.1-.532-2.1-1.988V17.1h4.2V14.748h-4.2V10.436l-2.772.672v3.64h-3.024V17.1h3.024Zm7.98,1.68a9.4,9.4,0,0,0,6.244,2.1c3.388,0,5.964-1.932,5.964-4.48,0-2.212-1.484-3.556-4.312-3.976l-2.576-.364c-1.68-.252-2.352-.756-2.352-1.792,0-1.148,1.148-1.932,2.856-1.932a7.923,7.923,0,0,1,4.508,1.484l1.428-1.848a9.773,9.773,0,0,0-5.74-1.82c-3.332,0-5.572,1.736-5.572,4.312,0,2.212,1.428,3.528,4.256,3.948l2.576.364c1.568.224,2.3.812,2.3,1.82,0,1.26-1.4,2.128-3.416,2.128a7.469,7.469,0,0,1-4.648-1.792Zm19.572-5.292a7.406,7.406,0,1,0,7.42-7.392A7.344,7.344,0,0,0,184.832,21.86Zm7.42,4.956a4.769,4.769,0,0,1-4.676-4.956,4.669,4.669,0,1,1,9.324,0A4.782,4.782,0,0,1,192.252,26.816Zm8.008-12.068V17.1h3.3V29h2.8V17.1h4.06V14.748h-4.06v-2.1c0-1.512.756-2.212,2.3-2.212a5.6,5.6,0,0,1,1.764.252V8.252A7.351,7.351,0,0,0,208.408,8c-3.136,0-4.844,1.624-4.844,4.592v2.156Zm24.948,12.04a4.727,4.727,0,0,1-4.676-4.928,4.709,4.709,0,0,1,4.62-4.9,5.3,5.3,0,0,1,3.92,1.792l1.764-1.9a8.091,8.091,0,0,0-5.74-2.38,7.285,7.285,0,0,0-7.336,7.392,7.268,7.268,0,0,0,7.336,7.392,7.881,7.881,0,0,0,5.628-2.38l-1.68-1.82A5.194,5.194,0,0,1,225.208,26.788Zm10.584-18-2.8.616V29h2.8Zm2.66,13.076a7.406,7.406,0,1,0,7.42-7.392A7.344,7.344,0,0,0,238.452,21.86Zm7.42,4.956A4.769,4.769,0,0,1,241.2,21.86a4.669,4.669,0,1,1,9.324,0A4.782,4.782,0,0,1,245.872,26.816Zm12.8-12.068h-2.8V23.68a5.321,5.321,0,0,0,5.544,5.6,5.824,5.824,0,0,0,4.284-1.708V29h2.8V14.748h-2.8v10.22a4,4,0,0,1-3.5,1.876,3.339,3.339,0,0,1-3.528-3.64ZM282.72,29h2.772V8.784l-2.8.616v6.524a7.253,7.253,0,0,0-11.536,5.936,7.2,7.2,0,0,0,7.2,7.364,6.731,6.731,0,0,0,4.368-1.568Zm-8.82-7.168a4.772,4.772,0,0,1,4.844-4.9,5.211,5.211,0,0,1,3.948,1.68V25.08a5.136,5.136,0,0,1-3.948,1.708A4.819,4.819,0,0,1,273.9,21.832Zm19.4,5.32a9.4,9.4,0,0,0,6.244,2.1c3.388,0,5.964-1.932,5.964-4.48,0-2.212-1.484-3.556-4.312-3.976l-2.576-.364c-1.68-.252-2.352-.756-2.352-1.792,0-1.148,1.148-1.932,2.856-1.932a7.923,7.923,0,0,1,4.508,1.484l1.428-1.848a9.773,9.773,0,0,0-5.74-1.82c-3.332,0-5.572,1.736-5.572,4.312,0,2.212,1.428,3.528,4.256,3.948l2.576.364c1.568.224,2.3.812,2.3,1.82,0,1.26-1.4,2.128-3.416,2.128a7.469,7.469,0,0,1-4.648-1.792Zm26.852.224-1.792-1.764a5.543,5.543,0,0,1-3.612,1.26,4.807,4.807,0,0,1-4.816-4.088h11.256v-.812c0-4.2-2.968-7.448-6.888-7.448a7.161,7.161,0,0,0-7.14,7.336,7.334,7.334,0,0,0,7.476,7.392A8.5,8.5,0,0,0,320.156,27.376Zm-5.908-10.5a4.408,4.408,0,0,1,4.172,3.808h-8.456A4.376,4.376,0,0,1,314.248,16.876ZM323.852,29h2.8V19.48a3.891,3.891,0,0,1,3.7-2.6,4.8,4.8,0,0,1,1.652.308v-2.52a3.558,3.558,0,0,0-1.428-.224,4.461,4.461,0,0,0-3.92,2.128v-1.82h-2.8Zm15.54,0h2.66l6.16-14.252h-3l-4.452,10.668-4.452-10.668h-3.08Zm11.956-16.548a1.736,1.736,0,0,0,0-3.472,1.736,1.736,0,0,0,0,3.472Zm1.4,2.3h-2.8V29h2.8Zm10.108,12.04a4.727,4.727,0,0,1-4.676-4.928,4.709,4.709,0,0,1,4.62-4.9,5.3,5.3,0,0,1,3.92,1.792l1.764-1.9a8.091,8.091,0,0,0-5.74-2.38,7.285,7.285,0,0,0-7.336,7.392,7.268,7.268,0,0,0,7.336,7.392,7.881,7.881,0,0,0,5.628-2.38l-1.68-1.82A5.194,5.194,0,0,1,362.856,26.788Zm19.572.588-1.792-1.764a5.543,5.543,0,0,1-3.612,1.26,4.807,4.807,0,0,1-4.816-4.088h11.256v-.812c0-4.2-2.968-7.448-6.888-7.448a7.161,7.161,0,0,0-7.14,7.336,7.334,7.334,0,0,0,7.476,7.392A8.5,8.5,0,0,0,382.428,27.376Zm-5.908-10.5a4.408,4.408,0,0,1,4.172,3.808h-8.456A4.376,4.376,0,0,1,376.52,16.876Zm8.4,10.276a9.4,9.4,0,0,0,6.244,2.1c3.388,0,5.964-1.932,5.964-4.48,0-2.212-1.484-3.556-4.312-3.976l-2.576-.364c-1.68-.252-2.352-.756-2.352-1.792,0-1.148,1.148-1.932,2.856-1.932a7.923,7.923,0,0,1,4.508,1.484l1.428-1.848a9.773,9.773,0,0,0-5.74-1.82c-3.332,0-5.572,1.736-5.572,4.312,0,2.212,1.428,3.528,4.256,3.948l2.576.364c1.568.224,2.3.812,2.3,1.82,0,1.26-1.4,2.128-3.416,2.128a7.469,7.469,0,0,1-4.648-1.792Z" transform="translate(484 132)" fill="#151515"/>
    <g id="Rectangle_1" data-name="Rectangle 1" transform="translate(80 80)" fill="#fff" stroke="#d2d2d2" stroke-width="1">
      <rect width="340" height="410" rx="3" stroke="none"/>
      <rect x="0.5" y="0.5" width="339" height="409" rx="2.5" fill="none"/>
    </g>
    <path id="Path_1388" data-name="Path 1388" d="M64.164,18h1.458l1.494-3.96h5.616L74.226,18H75.72L70.806,5.4H69.15Zm3.384-5.058,2.376-6.3,2.394,6.3ZM78.24,9.216H76.908v5.67a3.071,3.071,0,0,0,3.186,3.258,3.145,3.145,0,0,0,2.79-1.566V18H84.2V9.216H82.884v6.5a2.608,2.608,0,0,1-2.3,1.332,2.269,2.269,0,0,1-2.34-2.538Zm9.7,6.8c0,1.4.792,2.142,2.3,2.142a4.934,4.934,0,0,0,1.53-.234v-1.17a3.155,3.155,0,0,1-1.242.234c-.918,0-1.278-.378-1.278-1.314V10.3h2.52V9.216h-2.52V6.5L87.942,6.8V9.216H86.124V10.3h1.818Zm5.148-2.412a4.285,4.285,0,1,0,8.55,0,4.283,4.283,0,1,0-8.55,0Zm4.266,3.4a3.1,3.1,0,0,1-2.97-3.384,3.005,3.005,0,1,1,5.958,0A3.121,3.121,0,0,1,97.356,17.01Zm6.588.99h1.314V11.466a2.407,2.407,0,0,1,2.142-1.3,2.182,2.182,0,0,1,2.178,2.484V18h1.314V12.33a3.643,3.643,0,0,0-.072-.774,2.444,2.444,0,0,1,2.2-1.386c1.332,0,2.16.954,2.16,2.484V18h1.314V12.33A2.989,2.989,0,0,0,113.5,9.072a3.245,3.245,0,0,0-2.934,1.71,2.887,2.887,0,0,0-2.7-1.71,3.008,3.008,0,0,0-2.61,1.512V9.216h-1.314Zm17.928.162a3.771,3.771,0,0,0,2.79-1.188V18h1.3V12.168c0-2-1.224-3.1-3.4-3.1a7.526,7.526,0,0,0-3.312.846l.486,1.008a5.8,5.8,0,0,1,2.664-.756,1.978,1.978,0,0,1,2.268,2.178v1.206a5.086,5.086,0,0,0-2.682-.684c-1.98,0-3.294,1.044-3.294,2.61C118.686,17.064,120,18.162,121.872,18.162Zm-1.926-2.718c0-.972.882-1.62,2.232-1.62a4.637,4.637,0,0,1,2.484.63v1.692a3.477,3.477,0,0,1-2.52,1.008C120.828,17.154,119.946,16.47,119.946,15.444Zm9.45.576c0,1.4.792,2.142,2.3,2.142a4.934,4.934,0,0,0,1.53-.234v-1.17a3.155,3.155,0,0,1-1.242.234c-.918,0-1.278-.378-1.278-1.314V10.3h2.52V9.216h-2.52V6.5L129.4,6.8V9.216h-1.818V10.3H129.4Zm6.426-8.964a.934.934,0,0,0,.936-.954.945.945,0,0,0-1.89,0A.938.938,0,0,0,135.822,7.056Zm.648,2.16h-1.314V18h1.314Zm2.3,4.392a4.285,4.285,0,1,0,8.55,0,4.283,4.283,0,1,0-8.55,0Zm4.266,3.4a3.1,3.1,0,0,1-2.97-3.384,3.005,3.005,0,1,1,5.958,0A3.121,3.121,0,0,1,143.04,17.01Zm6.588.99h1.314V11.52a2.589,2.589,0,0,1,2.3-1.35,2.277,2.277,0,0,1,2.358,2.52V18h1.314V12.312a3.057,3.057,0,0,0-3.186-3.24,3.165,3.165,0,0,0-2.79,1.566V9.216h-1.314Zm22.32-4.392a4.239,4.239,0,0,0-4.05-4.5,3.54,3.54,0,0,0-2.826,1.314V4.86l-1.314.27V18h1.3V16.848a3.556,3.556,0,0,0,2.772,1.278A4.278,4.278,0,0,0,171.948,13.608Zm-4.374-3.348a3.151,3.151,0,0,1,3.078,3.366,3.151,3.151,0,0,1-3.078,3.366,3.087,3.087,0,0,1-2.5-1.224v-4.3A3,3,0,0,1,167.574,10.26Zm9.486,7.9a3.771,3.771,0,0,0,2.79-1.188V18h1.3V12.168c0-2-1.224-3.1-3.4-3.1a7.526,7.526,0,0,0-3.312.846l.486,1.008a5.8,5.8,0,0,1,2.664-.756,1.978,1.978,0,0,1,2.268,2.178v1.206a5.086,5.086,0,0,0-2.682-.684c-1.98,0-3.294,1.044-3.294,2.61C173.874,17.064,175.188,18.162,177.06,18.162Zm-1.926-2.718c0-.972.882-1.62,2.232-1.62a4.637,4.637,0,0,1,2.484.63v1.692a3.477,3.477,0,0,1-2.52,1.008C176.016,17.154,175.134,16.47,175.134,15.444Zm7.83,1.422a5.008,5.008,0,0,0,3.564,1.3c1.944,0,3.42-1.188,3.42-2.718,0-1.3-.792-2.034-2.556-2.358l-1.476-.27c-1.134-.2-1.512-.54-1.512-1.26,0-.864.756-1.4,1.908-1.4a4.659,4.659,0,0,1,2.754.936l.648-.918a5.679,5.679,0,0,0-3.348-1.1c-1.854,0-3.168,1.062-3.168,2.574,0,1.278.774,2,2.484,2.3l1.44.252c1.116.216,1.584.594,1.584,1.314,0,.918-.936,1.584-2.214,1.584a4.581,4.581,0,0,1-2.826-1.1Zm9.648-9.81a.934.934,0,0,0,.936-.954.945.945,0,0,0-1.89,0A.938.938,0,0,0,192.612,7.056Zm.648,2.16h-1.314V18h1.314Zm6.714,7.758a3.186,3.186,0,0,1-3.1-3.366,3.189,3.189,0,0,1,3.078-3.348,3.452,3.452,0,0,1,2.484,1.1l.846-.918A4.791,4.791,0,0,0,199.9,9.072a4.387,4.387,0,0,0-4.338,4.536,4.4,4.4,0,0,0,4.338,4.554,4.569,4.569,0,0,0,3.33-1.422l-.81-.81A3.235,3.235,0,0,1,199.974,16.974Zm4.392-.108a5.008,5.008,0,0,0,3.564,1.3c1.944,0,3.42-1.188,3.42-2.718,0-1.3-.792-2.034-2.556-2.358l-1.476-.27c-1.134-.2-1.512-.54-1.512-1.26,0-.864.756-1.4,1.908-1.4a4.659,4.659,0,0,1,2.754.936l.648-.918a5.679,5.679,0,0,0-3.348-1.1c-1.854,0-3.168,1.062-3.168,2.574,0,1.278.774,2,2.484,2.3l1.44.252c1.116.216,1.584.594,1.584,1.314,0,.918-.936,1.584-2.214,1.584a4.581,4.581,0,0,1-2.826-1.1ZM76.44,72h1.386V66.618h3.762L84.144,72h1.53l-2.682-5.562a3.429,3.429,0,0,0,2.628-3.4c0-2.178-1.6-3.636-4.014-3.636H76.44ZM81.5,60.624a2.439,2.439,0,1,1,0,4.842H77.826V60.624Zm13.14,10.368-.828-.882a3.589,3.589,0,0,1-2.412.9A3.2,3.2,0,0,1,88.266,67.9H95.16v-.4a4.15,4.15,0,0,0-4.032-4.428,4.275,4.275,0,0,0-4.14,4.536,4.384,4.384,0,0,0,4.356,4.554A5.128,5.128,0,0,0,94.638,70.992ZM91.11,64.206a2.9,2.9,0,0,1,2.754,2.754H88.3A2.934,2.934,0,0,1,91.11,64.206Zm7.614-5.346-1.314.27V72h1.314Zm5.418,13.3a3.771,3.771,0,0,0,2.79-1.188V72h1.3V66.168c0-2-1.224-3.1-3.4-3.1a7.526,7.526,0,0,0-3.312.846L102,64.926a5.8,5.8,0,0,1,2.664-.756,1.978,1.978,0,0,1,2.268,2.178v1.206a5.086,5.086,0,0,0-2.682-.684c-1.98,0-3.294,1.044-3.294,2.61C100.956,71.064,102.27,72.162,104.142,72.162Zm-1.926-2.718c0-.972.882-1.62,2.232-1.62a4.637,4.637,0,0,1,2.484.63v1.692a3.477,3.477,0,0,1-2.52,1.008C103.1,71.154,102.216,70.47,102.216,69.444Zm9.45.576c0,1.4.792,2.142,2.3,2.142a4.934,4.934,0,0,0,1.53-.234v-1.17a3.155,3.155,0,0,1-1.242.234c-.918,0-1.278-.378-1.278-1.314V64.3h2.52v-1.08h-2.52V60.5l-1.314.306v2.412h-1.818V64.3h1.818Zm12.8.972-.828-.882a3.589,3.589,0,0,1-2.412.9,3.2,3.2,0,0,1-3.132-3.114h6.894v-.4a4.15,4.15,0,0,0-4.032-4.428,4.275,4.275,0,0,0-4.14,4.536,4.384,4.384,0,0,0,4.356,4.554A5.128,5.128,0,0,0,124.464,70.992Zm-3.528-6.786a2.9,2.9,0,0,1,2.754,2.754h-5.562A2.934,2.934,0,0,1,120.936,64.206ZM133.716,72h1.314V58.86l-1.314.27v5.2a3.578,3.578,0,0,0-2.736-1.224,4.531,4.531,0,0,0-.072,9.018,3.462,3.462,0,0,0,2.808-1.3Zm-5.562-4.392a3.12,3.12,0,0,1,5.562-2.16V69.8a3.009,3.009,0,0,1-2.484,1.17A3.151,3.151,0,0,1,128.154,67.608Zm14.814,2.412c0,1.4.792,2.142,2.3,2.142a4.934,4.934,0,0,0,1.53-.234v-1.17a3.155,3.155,0,0,1-1.242.234c-.918,0-1.278-.378-1.278-1.314V64.3h2.52v-1.08h-2.52V60.5l-1.314.306v2.412H141.15V64.3h1.818Zm5.76,1.98h1.314V65.988a2.5,2.5,0,0,1,2.358-1.782,3.284,3.284,0,0,1,.918.162V63.18a2.494,2.494,0,0,0-.828-.126A2.624,2.624,0,0,0,150.042,65V63.216h-1.314Zm8.658.162a3.771,3.771,0,0,0,2.79-1.188V72h1.3V66.168c0-2-1.224-3.1-3.4-3.1a7.526,7.526,0,0,0-3.312.846l.486,1.008a5.8,5.8,0,0,1,2.664-.756,1.978,1.978,0,0,1,2.268,2.178v1.206a5.086,5.086,0,0,0-2.682-.684c-1.98,0-3.294,1.044-3.294,2.61C154.2,71.064,155.514,72.162,157.386,72.162Zm-1.926-2.718c0-.972.882-1.62,2.232-1.62a4.637,4.637,0,0,1,2.484.63v1.692a3.477,3.477,0,0,1-2.52,1.008C156.342,71.154,155.46,70.47,155.46,69.444Zm9.342-8.388a.934.934,0,0,0,.936-.954.945.945,0,0,0-1.89,0A.938.938,0,0,0,164.8,61.056Zm.648,2.16h-1.314V72h1.314ZM168.15,72h1.314V65.52a2.589,2.589,0,0,1,2.3-1.35,2.277,2.277,0,0,1,2.358,2.52V72h1.314V66.312a3.057,3.057,0,0,0-3.186-3.24,3.165,3.165,0,0,0-2.79,1.566V63.216H168.15Zm10.6-10.944a.934.934,0,0,0,.936-.954.945.945,0,0,0-1.89,0A.938.938,0,0,0,178.752,61.056Zm.648,2.16h-1.314V72H179.4ZM182.1,72h1.314V65.52a2.589,2.589,0,0,1,2.3-1.35,2.277,2.277,0,0,1,2.358,2.52V72h1.314V66.312a3.057,3.057,0,0,0-3.186-3.24,3.165,3.165,0,0,0-2.79,1.566V63.216H182.1Zm13.59.108a3.462,3.462,0,0,0,2.808-1.3v1.656c0,1.476-.846,2.25-2.448,2.25a5.906,5.906,0,0,1-2.808-.81l-.558,1.008a7.045,7.045,0,0,0,3.42.918c2.394,0,3.708-1.206,3.708-3.384V63.216h-1.3V64.35a3.545,3.545,0,0,0-2.754-1.242,4.521,4.521,0,0,0-.072,9Zm-2.754-4.5a3.12,3.12,0,0,1,5.562-2.16v4.338a3.023,3.023,0,0,1-2.484,1.188A3.151,3.151,0,0,1,192.936,67.608ZM61.743,126h1.386v-5.382h3.762L69.447,126h1.53l-2.682-5.562a3.429,3.429,0,0,0,2.628-3.4c0-2.178-1.6-3.636-4.014-3.636H61.743ZM66.8,114.624a2.439,2.439,0,1,1,0,4.842H63.129v-4.842Zm13.14,10.368-.828-.882a3.589,3.589,0,0,1-2.412.9,3.2,3.2,0,0,1-3.132-3.114h6.894v-.4a4.15,4.15,0,0,0-4.032-4.428,4.275,4.275,0,0,0-4.14,4.536,4.384,4.384,0,0,0,4.356,4.554A5.128,5.128,0,0,0,79.941,124.992Zm-3.528-6.786a2.9,2.9,0,0,1,2.754,2.754H73.6A2.934,2.934,0,0,1,76.413,118.206Zm7.614-5.346-1.314.27V126h1.314Zm5.418,13.3a3.771,3.771,0,0,0,2.79-1.188V126h1.3v-5.832c0-2-1.224-3.1-3.4-3.1a7.526,7.526,0,0,0-3.312.846l.486,1.008a5.8,5.8,0,0,1,2.664-.756,1.978,1.978,0,0,1,2.268,2.178v1.206a5.086,5.086,0,0,0-2.682-.684c-1.98,0-3.294,1.044-3.294,2.61C86.259,125.064,87.573,126.162,89.445,126.162Zm-1.926-2.718c0-.972.882-1.62,2.232-1.62a4.637,4.637,0,0,1,2.484.63v1.692a3.477,3.477,0,0,1-2.52,1.008C88.4,125.154,87.519,124.47,87.519,123.444Zm9.45.576c0,1.4.792,2.142,2.3,2.142a4.934,4.934,0,0,0,1.53-.234v-1.17a3.155,3.155,0,0,1-1.242.234c-.918,0-1.278-.378-1.278-1.314V118.3h2.52v-1.08h-2.52V114.5l-1.314.306v2.412H95.151v1.08h1.818Zm12.8.972-.828-.882a3.589,3.589,0,0,1-2.412.9,3.2,3.2,0,0,1-3.132-3.114h6.894v-.4a4.15,4.15,0,0,0-4.032-4.428,4.275,4.275,0,0,0-4.14,4.536,4.384,4.384,0,0,0,4.356,4.554A5.128,5.128,0,0,0,109.767,124.992Zm-3.528-6.786a2.9,2.9,0,0,1,2.754,2.754h-5.562A2.934,2.934,0,0,1,106.239,118.206ZM119.019,126h1.314V112.86l-1.314.27v5.2a3.578,3.578,0,0,0-2.736-1.224,4.531,4.531,0,0,0-.072,9.018,3.462,3.462,0,0,0,2.808-1.3Zm-5.562-4.392a3.12,3.12,0,0,1,5.562-2.16V123.8a3.009,3.009,0,0,1-2.484,1.17A3.151,3.151,0,0,1,113.457,121.608Zm17.784,3.366a3.369,3.369,0,0,1-.018-6.714,3.452,3.452,0,0,1,2.484,1.1l.846-.918a4.791,4.791,0,0,0-3.384-1.368,4.55,4.55,0,0,0,0,9.09,4.569,4.569,0,0,0,3.33-1.422l-.81-.81A3.236,3.236,0,0,1,131.241,124.974Zm12.132.018-.828-.882a3.589,3.589,0,0,1-2.412.9A3.2,3.2,0,0,1,137,121.9H143.9v-.4a4.15,4.15,0,0,0-4.032-4.428,4.275,4.275,0,0,0-4.14,4.536,4.384,4.384,0,0,0,4.356,4.554A5.128,5.128,0,0,0,143.373,124.992Zm-3.528-6.786a2.9,2.9,0,0,1,2.754,2.754h-5.562A2.934,2.934,0,0,1,139.845,118.206Zm6.3,7.794h1.314v-6.012a2.5,2.5,0,0,1,2.358-1.782,3.284,3.284,0,0,1,.918.162V117.18a2.494,2.494,0,0,0-.828-.126A2.624,2.624,0,0,0,147.459,119v-1.782h-1.314Zm7.416-1.98c0,1.4.792,2.142,2.3,2.142a4.934,4.934,0,0,0,1.53-.234v-1.17a3.155,3.155,0,0,1-1.242.234c-.918,0-1.278-.378-1.278-1.314V118.3h2.52v-1.08h-2.52V114.5l-1.314.306v2.412h-1.818v1.08h1.818Zm6.426-8.964a.934.934,0,0,0,.936-.954.945.945,0,0,0-1.89,0A.938.938,0,0,0,159.987,115.056Zm.648,2.16h-1.314V126h1.314Zm1.854,0v1.08h1.962V126h1.314v-7.7h2.5v-1.08h-2.5v-1.908c0-1.044.432-1.53,1.44-1.53a3.623,3.623,0,0,1,1.062.162v-1.188a3.711,3.711,0,0,0-1.188-.162,2.41,2.41,0,0,0-2.628,2.7v1.926Zm8.172-2.16a.934.934,0,0,0,.936-.954.945.945,0,0,0-1.89,0A.938.938,0,0,0,170.661,115.056Zm.648,2.16h-1.314V126h1.314Zm6.714,7.758A3.369,3.369,0,0,1,178,118.26a3.452,3.452,0,0,1,2.484,1.1l.846-.918a4.791,4.791,0,0,0-3.384-1.368,4.55,4.55,0,0,0,0,9.09,4.569,4.569,0,0,0,3.33-1.422l-.81-.81A3.236,3.236,0,0,1,178.023,124.974Zm7.866,1.188a3.771,3.771,0,0,0,2.79-1.188V126h1.3v-5.832c0-2-1.224-3.1-3.4-3.1a7.526,7.526,0,0,0-3.312.846l.486,1.008a5.8,5.8,0,0,1,2.664-.756,1.978,1.978,0,0,1,2.268,2.178v1.206A5.086,5.086,0,0,0,186,120.87c-1.98,0-3.294,1.044-3.294,2.61C182.7,125.064,184.017,126.162,185.889,126.162Zm-1.926-2.718c0-.972.882-1.62,2.232-1.62a4.637,4.637,0,0,1,2.484.63v1.692a3.477,3.477,0,0,1-2.52,1.008C184.845,125.154,183.963,124.47,183.963,123.444Zm9.45.576c0,1.4.792,2.142,2.3,2.142a4.934,4.934,0,0,0,1.53-.234v-1.17a3.155,3.155,0,0,1-1.242.234c-.918,0-1.278-.378-1.278-1.314V118.3h2.52v-1.08h-2.52V114.5l-1.314.306v2.412H191.6v1.08h1.818Zm12.8.972-.828-.882a3.589,3.589,0,0,1-2.412.9,3.2,3.2,0,0,1-3.132-3.114h6.894v-.4a4.15,4.15,0,0,0-4.032-4.428,4.275,4.275,0,0,0-4.14,4.536,4.384,4.384,0,0,0,4.356,4.554A5.128,5.128,0,0,0,206.211,124.992Zm-3.528-6.786a2.9,2.9,0,0,1,2.754,2.754h-5.562A2.934,2.934,0,0,1,202.683,118.206Zm5.544,6.66a5.008,5.008,0,0,0,3.564,1.3c1.944,0,3.42-1.188,3.42-2.718,0-1.3-.792-2.034-2.556-2.358l-1.476-.27c-1.134-.2-1.512-.54-1.512-1.26,0-.864.756-1.4,1.908-1.4a4.659,4.659,0,0,1,2.754.936l.648-.918a5.679,5.679,0,0,0-3.348-1.1c-1.854,0-3.168,1.062-3.168,2.574,0,1.278.774,2,2.484,2.3l1.44.252c1.116.216,1.584.594,1.584,1.314,0,.918-.936,1.584-2.214,1.584a4.581,4.581,0,0,1-2.826-1.1Z" transform="translate(112 311)" fill="#06c"/>
    <path id="Path_1387" data-name="Path 1387" d="M.024,0H2.64L4.608-4.92H12.12L14.064,0H16.8L9.936-16.8H6.984ZM5.448-7.008l2.928-7.368L11.3-7.008ZM20.64-17.328l-2.4.528V0h2.4Zm5.232,0-2.4.528V0h2.4ZM37.584.216a5.8,5.8,0,0,0,3.792-1.272V0h2.352V-8.088c0-2.808-1.824-4.368-4.992-4.368a11.433,11.433,0,0,0-5.016,1.248l.888,1.8A8.683,8.683,0,0,1,38.4-10.44c1.944,0,2.976.864,2.976,2.592v1.3a8.625,8.625,0,0,0-3.336-.672c-3.072,0-4.944,1.416-4.944,3.72C33.1-1.3,34.92.216,37.584.216ZM35.4-3.552c0-1.224,1.08-2.016,2.832-2.016a6.345,6.345,0,0,1,3.144.744v2.112a4.7,4.7,0,0,1-3.24,1.152C36.5-1.56,35.4-2.376,35.4-3.552ZM58.776-6.12a6.163,6.163,0,0,0-6.168-6.288,5.659,5.659,0,0,0-3.72,1.344v-6.264l-2.4.528V0h2.376V-1.032A6.1,6.1,0,0,0,52.56.192,6.179,6.179,0,0,0,58.776-6.12Zm-6.48-4.2A4.105,4.105,0,0,1,56.424-6.1,4.071,4.071,0,0,1,52.3-1.9a4.529,4.529,0,0,1-3.408-1.44v-5.52A4.382,4.382,0,0,1,52.3-10.32Zm8.256,4.2A6.3,6.3,0,0,0,66.912.24a6.275,6.275,0,0,0,6.336-6.36,6.27,6.27,0,0,0-6.336-6.336A6.29,6.29,0,0,0,60.552-6.12Zm6.36,4.248A4.088,4.088,0,0,1,62.9-6.12a4.082,4.082,0,0,1,4.008-4.224A4.077,4.077,0,0,1,70.9-6.12,4.1,4.1,0,0,1,66.912-1.872ZM77.88-12.216h-2.4V-4.56A4.561,4.561,0,0,0,80.232.24,4.992,4.992,0,0,0,83.9-1.224V0h2.4V-12.216H83.9v8.76a3.432,3.432,0,0,1-3,1.608,2.862,2.862,0,0,1-3.024-3.12ZM90.72-3.024c0,2.112,1.272,3.24,3.648,3.24a7.949,7.949,0,0,0,2.28-.36V-2.16a4.715,4.715,0,0,1-1.752.288c-1.3,0-1.8-.456-1.8-1.7V-10.2h3.6v-2.016H93.1v-3.7l-2.376.576v3.12H88.128V-10.2H90.72ZM107.352.216a5.8,5.8,0,0,0,3.792-1.272V0H113.5V-8.088c0-2.808-1.824-4.368-4.992-4.368a11.433,11.433,0,0,0-5.016,1.248l.888,1.8a8.683,8.683,0,0,1,3.792-1.032c1.944,0,2.976.864,2.976,2.592v1.3a8.625,8.625,0,0,0-3.336-.672c-3.072,0-4.944,1.416-4.944,3.72C102.864-1.3,104.688.216,107.352.216Zm-2.184-3.768c0-1.224,1.08-2.016,2.832-2.016a6.345,6.345,0,0,1,3.144.744v2.112A4.7,4.7,0,0,1,107.9-1.56C106.272-1.56,105.168-2.376,105.168-3.552Zm13.32-8.664h-2.4V-4.56A4.561,4.561,0,0,0,120.84.24a4.992,4.992,0,0,0,3.672-1.464V0h2.4V-12.216h-2.4v8.76a3.432,3.432,0,0,1-3,1.608,2.862,2.862,0,0,1-3.024-3.12Zm12.84,9.192c0,2.112,1.272,3.24,3.648,3.24a7.949,7.949,0,0,0,2.28-.36V-2.16a4.715,4.715,0,0,1-1.752.288c-1.3,0-1.8-.456-1.8-1.7V-10.2h3.6v-2.016h-3.6v-3.7l-2.376.576v3.12h-2.592V-10.2h2.592Zm6.936-3.1a6.3,6.3,0,0,0,6.36,6.36,6.275,6.275,0,0,0,6.336-6.36,6.27,6.27,0,0,0-6.336-6.336A6.29,6.29,0,0,0,138.264-6.12Zm6.36,4.248a4.088,4.088,0,0,1-4.008-4.248,4.082,4.082,0,0,1,4.008-4.224,4.077,4.077,0,0,1,3.984,4.224A4.1,4.1,0,0,1,144.624-1.872ZM153.24,0h2.4V-8.88a3.2,3.2,0,0,1,2.76-1.488c1.728,0,2.808,1.176,2.808,3.1V0h2.376V-7.68a5.087,5.087,0,0,0-.1-1.056,3.258,3.258,0,0,1,2.856-1.632c1.728,0,2.808,1.176,2.808,3.1V0h2.4V-7.68a4.476,4.476,0,0,0-4.584-4.776,4.893,4.893,0,0,0-4.128,2.04,4.256,4.256,0,0,0-3.768-2.04,4.687,4.687,0,0,0-3.432,1.392v-1.152h-2.4Zm24.936.216a5.8,5.8,0,0,0,3.792-1.272V0h2.352V-8.088c0-2.808-1.824-4.368-4.992-4.368a11.433,11.433,0,0,0-5.016,1.248l.888,1.8a8.683,8.683,0,0,1,3.792-1.032c1.944,0,2.976.864,2.976,2.592v1.3a8.625,8.625,0,0,0-3.336-.672c-3.072,0-4.944,1.416-4.944,3.72C173.688-1.3,175.512.216,178.176.216Zm-2.184-3.768c0-1.224,1.08-2.016,2.832-2.016a6.345,6.345,0,0,1,3.144.744v2.112a4.7,4.7,0,0,1-3.24,1.152C177.1-1.56,175.992-2.376,175.992-3.552Zm12.192.528c0,2.112,1.272,3.24,3.648,3.24a7.949,7.949,0,0,0,2.28-.36V-2.16a4.715,4.715,0,0,1-1.752.288c-1.3,0-1.8-.456-1.8-1.7V-10.2h3.6v-2.016h-3.6v-3.7l-2.376.576v3.12h-2.592V-10.2h2.592Zm8.952-11.16a1.5,1.5,0,0,0,1.488-1.488,1.5,1.5,0,0,0-1.488-1.488,1.475,1.475,0,0,0-1.464,1.488A1.475,1.475,0,0,0,197.136-14.184Zm1.2,1.968h-2.4V0h2.4Zm2.28,6.1a6.3,6.3,0,0,0,6.36,6.36,6.275,6.275,0,0,0,6.336-6.36,6.27,6.27,0,0,0-6.336-6.336A6.29,6.29,0,0,0,200.616-6.12Zm6.36,4.248a4.088,4.088,0,0,1-4.008-4.248,4.082,4.082,0,0,1,4.008-4.224A4.077,4.077,0,0,1,210.96-6.12,4.1,4.1,0,0,1,206.976-1.872ZM215.592,0h2.4V-8.784a3.452,3.452,0,0,1,3.024-1.584,2.843,2.843,0,0,1,3.024,3.1V0h2.4V-7.68a4.561,4.561,0,0,0-4.776-4.776,5.031,5.031,0,0,0-3.672,1.464v-1.224h-2.4Z" transform="translate(136 280)" fill="#151515"/>
    <g id="Software_and_technologies_-_Management_and_automation" data-name="Software and technologies - Management and automation" transform="translate(206 128)">
      <path id="Path_763" data-name="Path 763" d="M54.38,31.447H49.053a15.86,15.86,0,0,0-3.28-7.945l3.762-3.762a1.873,1.873,0,1,0-2.648-2.648l-3.762,3.762a15.86,15.86,0,0,0-7.945-3.28V12.246a1.866,1.866,0,0,0-3.732,0v5.327a15.861,15.861,0,0,0-7.945,3.28L19.74,17.091a1.873,1.873,0,0,0-2.648,2.648L20.853,23.5a15.86,15.86,0,0,0-3.28,7.945H12.246a1.866,1.866,0,0,0,0,3.732h5.327a15.86,15.86,0,0,0,3.28,7.945l-3.762,3.762a1.836,1.836,0,0,0,0,2.648,1.9,1.9,0,0,0,2.648,0L23.5,45.772a15.86,15.86,0,0,0,7.945,3.28V54.38a1.866,1.866,0,1,0,3.732,0V49.053a15.86,15.86,0,0,0,7.945-3.28l3.762,3.762a1.9,1.9,0,0,0,2.648,0,1.836,1.836,0,0,0,0-2.648l-3.762-3.762a15.86,15.86,0,0,0,3.28-7.945H54.38a1.866,1.866,0,1,0,0-3.732ZM33.313,45.532A12.219,12.219,0,1,1,45.532,33.313,12.219,12.219,0,0,1,33.313,45.532Z" transform="translate(10.687 10.687)" fill="#e00"/>
      <path id="Path_764" data-name="Path 764" d="M29.161,62.968a1.866,1.866,0,0,1-1.324-.542,1.836,1.836,0,0,1,0-2.648,40.388,40.388,0,0,0,7.915-45.715,1.836,1.836,0,0,1,.9-2.5,1.866,1.866,0,0,1,2.5.873,44.15,44.15,0,0,1-8.668,49.989,1.866,1.866,0,0,1-1.324.542Z" transform="translate(44.634 12.692)" fill="#e00"/>
      <path id="Path_765" data-name="Path 765" d="M61.1,19.481a1.9,1.9,0,0,1-1.324-.572,40.328,40.328,0,0,0-45.715-7.915,1.836,1.836,0,0,1-2.5-.9,1.866,1.866,0,0,1,.873-2.5,44.15,44.15,0,0,1,49.989,8.668,1.9,1.9,0,0,1-1.324,3.22Z" transform="translate(12.692 -3.38)" fill="#e00"/>
      <path id="Path_766" data-name="Path 766" d="M9.309,59.068a1.9,1.9,0,0,1-1.715-1.053A44.15,44.15,0,0,1,16.261,8.026a1.873,1.873,0,0,1,2.648,2.648A40.388,40.388,0,0,0,10.995,56.39a1.836,1.836,0,0,1-.9,2.5,1.445,1.445,0,0,1-.782.181Z" transform="translate(-3.38 4.855)" fill="#e00"/>
      <path id="Path_767" data-name="Path 767" d="M39.139,43.366A44.06,44.06,0,0,1,8.02,30.485a1.9,1.9,0,0,1,0-2.648,1.836,1.836,0,0,1,2.648,0,40.388,40.388,0,0,0,45.715,7.915,1.836,1.836,0,0,1,2.5.9,1.866,1.866,0,0,1-.873,2.5A44.15,44.15,0,0,1,39.139,43.366Z" transform="translate(4.861 44.634)" fill="#e00"/>
      <path id="Path_768" data-name="Path 768" d="M37.275,38.141H28.246a1.866,1.866,0,0,1-1.866-1.866V27.246a1.866,1.866,0,0,1,3.732,0v7.163h7.163a1.866,1.866,0,0,1,0,3.732Z" transform="translate(42.84 40.831)" fill="#e00"/>
      <path id="Path_769" data-name="Path 769" d="M8.246,39.141A1.866,1.866,0,0,1,6.38,37.275V28.246A1.866,1.866,0,0,1,8.246,26.38h9.029a1.866,1.866,0,0,1,0,3.732H10.112v7.163a1.866,1.866,0,0,1-1.866,1.866Z" transform="translate(2.649 42.84)" fill="#e00"/>
      <path id="Path_770" data-name="Path 770" d="M36.275,18.141H27.246a1.866,1.866,0,0,1,0-3.732h7.163V7.246a1.866,1.866,0,0,1,3.732,0v9.029A1.866,1.866,0,0,1,36.275,18.141Z" transform="translate(40.831 0.64)" fill="#e00"/>
      <path id="Path_771" data-name="Path 771" d="M16.275,19.141a1.866,1.866,0,0,1-1.866-1.866V10.112H7.246a1.866,1.866,0,1,1,0-3.732h9.029a1.866,1.866,0,0,1,1.866,1.866v9.029a1.866,1.866,0,0,1-1.866,1.866Z" transform="translate(0.64 2.649)" fill="#e00"/>
    </g>
    <path id="Path_1386" data-name="Path 1386" d="M1.246,0H7.994V-.938H2.324V-4.48H6.216v-.938H2.324V-8.862H7.938V-9.8H1.246ZM8.96,0h1.162l2.03-2.786L14.2,0h1.218L12.768-3.542l2.45-3.29H14.056l-1.862,2.59L10.3-6.832H9.086l2.478,3.318Zm9.73.126A2.933,2.933,0,0,0,20.86-.8V0h1.008V-4.536c0-1.554-.952-2.408-2.646-2.408a5.853,5.853,0,0,0-2.576.658l.378.784A4.511,4.511,0,0,1,19.1-6.09,1.538,1.538,0,0,1,20.86-4.4v.938a3.956,3.956,0,0,0-2.086-.532c-1.54,0-2.562.812-2.562,2.03A2.206,2.206,0,0,0,18.69.126Zm-1.5-2.114c0-.756.686-1.26,1.736-1.26a3.607,3.607,0,0,1,1.932.49v1.316a2.7,2.7,0,0,1-1.96.784C17.878-.658,17.192-1.19,17.192-1.988ZM24.08,0H25.1V-5.082A1.872,1.872,0,0,1,26.768-6.09a1.7,1.7,0,0,1,1.694,1.932V0h1.022V-4.41a2.834,2.834,0,0,0-.056-.6A1.9,1.9,0,0,1,31.136-6.09c1.036,0,1.68.742,1.68,1.932V0h1.022V-4.41a2.325,2.325,0,0,0-2.324-2.534,2.524,2.524,0,0,0-2.282,1.33,2.245,2.245,0,0,0-2.1-1.33A2.34,2.34,0,0,0,25.1-5.768V-6.832H24.08ZM36.05,2.926h1.022V-.854A2.77,2.77,0,0,0,39.214.1,3.327,3.327,0,0,0,42.42-3.416a3.3,3.3,0,0,0-3.15-3.5,2.7,2.7,0,0,0-2.212,1.064v-.98H36.05ZM39.018-6.02A2.451,2.451,0,0,1,41.412-3.4,2.451,2.451,0,0,1,39.018-.784a2.4,2.4,0,0,1-1.946-.952V-5.082A2.333,2.333,0,0,1,39.018-6.02Zm6.356-4.2-1.022.21V0h1.022ZM53.256-.784l-.644-.686a2.792,2.792,0,0,1-1.876.7A2.49,2.49,0,0,1,48.3-3.192h5.362V-3.5a3.228,3.228,0,0,0-3.136-3.444,3.325,3.325,0,0,0-3.22,3.528A3.41,3.41,0,0,0,50.694.126,3.989,3.989,0,0,0,53.256-.784ZM50.512-6.062A2.256,2.256,0,0,1,52.654-3.92H48.328A2.282,2.282,0,0,1,50.512-6.062Zm8.134,2.646A3.384,3.384,0,0,0,61.964.14,3.378,3.378,0,0,0,65.3-3.416a3.353,3.353,0,0,0-3.332-3.528A3.351,3.351,0,0,0,58.646-3.416ZM61.964-.77A2.409,2.409,0,0,1,59.654-3.4a2.43,2.43,0,0,1,2.31-2.646A2.44,2.44,0,0,1,64.288-3.4,2.427,2.427,0,0,1,61.964-.77Zm4.172-6.062v.84h1.526V0h1.022V-5.992H70.63v-.84H68.684V-8.316c0-.812.336-1.19,1.12-1.19a2.818,2.818,0,0,1,.826.126V-10.3a2.887,2.887,0,0,0-.924-.126,1.875,1.875,0,0,0-2.044,2.1v1.5ZM77.63.126A2.933,2.933,0,0,0,79.8-.8V0h1.008V-4.536c0-1.554-.952-2.408-2.646-2.408a5.853,5.853,0,0,0-2.576.658l.378.784a4.511,4.511,0,0,1,2.072-.588A1.538,1.538,0,0,1,79.8-4.4v.938a3.956,3.956,0,0,0-2.086-.532c-1.54,0-2.562.812-2.562,2.03A2.206,2.206,0,0,0,77.63.126Zm-1.5-2.114c0-.756.686-1.26,1.736-1.26a3.606,3.606,0,0,1,1.932.49v1.316a2.7,2.7,0,0,1-1.96.784C76.818-.658,76.132-1.19,76.132-1.988ZM83.02,0h1.022V-5.04a2.014,2.014,0,0,1,1.792-1.05,1.771,1.771,0,0,1,1.834,1.96V0H88.69V-4.424a2.378,2.378,0,0,0-2.478-2.52,2.462,2.462,0,0,0-2.17,1.218V-6.832H83.02ZM99.932-.784l-.644-.686a2.792,2.792,0,0,1-1.876.7,2.49,2.49,0,0,1-2.436-2.422h5.362V-3.5A3.228,3.228,0,0,0,97.2-6.944a3.325,3.325,0,0,0-3.22,3.528A3.41,3.41,0,0,0,97.37.126,3.989,3.989,0,0,0,99.932-.784ZM97.188-6.062A2.256,2.256,0,0,1,99.33-3.92H95A2.282,2.282,0,0,1,97.188-6.062Zm4.872,1.68V-3.5h4.662v-.882ZM108.766,0h1.022V-5.082a1.872,1.872,0,0,1,1.666-1.008,1.7,1.7,0,0,1,1.694,1.932V0h1.022V-4.41a2.834,2.834,0,0,0-.056-.6,1.9,1.9,0,0,1,1.708-1.078c1.036,0,1.68.742,1.68,1.932V0h1.022V-4.41A2.325,2.325,0,0,0,116.2-6.944a2.524,2.524,0,0,0-2.282,1.33,2.245,2.245,0,0,0-2.1-1.33,2.34,2.34,0,0,0-2.03,1.176V-6.832h-1.022ZM122.85.126A2.933,2.933,0,0,0,125.02-.8V0h1.008V-4.536c0-1.554-.952-2.408-2.646-2.408a5.853,5.853,0,0,0-2.576.658l.378.784a4.511,4.511,0,0,1,2.072-.588A1.538,1.538,0,0,1,125.02-4.4v.938a3.956,3.956,0,0,0-2.086-.532c-1.54,0-2.562.812-2.562,2.03A2.206,2.206,0,0,0,122.85.126Zm-1.5-2.114c0-.756.686-1.26,1.736-1.26a3.606,3.606,0,0,1,1.932.49v1.316a2.7,2.7,0,0,1-1.96.784C122.038-.658,121.352-1.19,121.352-1.988Zm7.406-6.524a.726.726,0,0,0,.728-.742.741.741,0,0,0-.728-.728.744.744,0,0,0-.742.728A.729.729,0,0,0,128.758-8.512Zm.5,1.68H128.24V0h1.022Zm3.262-3.388-1.022.21V0h1.022ZM138.166,0h1.022V-5.082a1.872,1.872,0,0,1,1.666-1.008,1.7,1.7,0,0,1,1.694,1.932V0h1.022V-4.41a2.833,2.833,0,0,0-.056-.6,1.9,1.9,0,0,1,1.708-1.078c1.036,0,1.68.742,1.68,1.932V0h1.022V-4.41A2.325,2.325,0,0,0,145.6-6.944a2.524,2.524,0,0,0-2.282,1.33,2.245,2.245,0,0,0-2.1-1.33,2.34,2.34,0,0,0-2.03,1.176V-6.832h-1.022Zm11.662-3.416A3.384,3.384,0,0,0,153.146.14a3.378,3.378,0,0,0,3.332-3.556,3.353,3.353,0,0,0-3.332-3.528A3.351,3.351,0,0,0,149.828-3.416ZM153.146-.77a2.409,2.409,0,0,1-2.31-2.632,2.43,2.43,0,0,1,2.31-2.646A2.44,2.44,0,0,1,155.47-3.4,2.427,2.427,0,0,1,153.146-.77Zm10.3.77h1.022V-10.22l-1.022.21v4.046a2.783,2.783,0,0,0-2.128-.952A3.327,3.327,0,0,0,158.116-3.4a3.3,3.3,0,0,0,3.15,3.5A2.692,2.692,0,0,0,163.45-.91Zm-4.326-3.416a2.438,2.438,0,0,1,2.394-2.6,2.45,2.45,0,0,1,1.932.924v3.388a2.34,2.34,0,0,1-1.932.91A2.451,2.451,0,0,1,159.124-3.416Zm8.582-3.416H166.67v4.41A2.389,2.389,0,0,0,169.148.112a2.446,2.446,0,0,0,2.17-1.218V0h1.022V-6.832h-1.022v5.054a2.028,2.028,0,0,1-1.792,1.036,1.765,1.765,0,0,1-1.82-1.974Zm7.9-3.388-1.022.21V0H175.6Zm7.882,9.436-.644-.686a2.792,2.792,0,0,1-1.876.7,2.49,2.49,0,0,1-2.436-2.422h5.362V-3.5a3.228,3.228,0,0,0-3.136-3.444,3.325,3.325,0,0,0-3.22,3.528A3.41,3.41,0,0,0,180.922.126,3.989,3.989,0,0,0,183.484-.784ZM180.74-6.062a2.256,2.256,0,0,1,2.142,2.142h-4.326A2.282,2.282,0,0,1,180.74-6.062Z" transform="translate(626 520)" fill="#f0f"/>
    <path id="Path_1385" data-name="Path 1385" d="M1.246,0H7.994V-.938H2.324V-4.48H6.216v-.938H2.324V-8.862H7.938V-9.8H1.246ZM8.96,0h1.162l2.03-2.786L14.2,0h1.218L12.768-3.542l2.45-3.29H14.056l-1.862,2.59L10.3-6.832H9.086l2.478,3.318Zm9.73.126A2.933,2.933,0,0,0,20.86-.8V0h1.008V-4.536c0-1.554-.952-2.408-2.646-2.408a5.853,5.853,0,0,0-2.576.658l.378.784A4.511,4.511,0,0,1,19.1-6.09,1.538,1.538,0,0,1,20.86-4.4v.938a3.956,3.956,0,0,0-2.086-.532c-1.54,0-2.562.812-2.562,2.03A2.206,2.206,0,0,0,18.69.126Zm-1.5-2.114c0-.756.686-1.26,1.736-1.26a3.607,3.607,0,0,1,1.932.49v1.316a2.7,2.7,0,0,1-1.96.784C17.878-.658,17.192-1.19,17.192-1.988ZM24.08,0H25.1V-5.082A1.872,1.872,0,0,1,26.768-6.09a1.7,1.7,0,0,1,1.694,1.932V0h1.022V-4.41a2.834,2.834,0,0,0-.056-.6A1.9,1.9,0,0,1,31.136-6.09c1.036,0,1.68.742,1.68,1.932V0h1.022V-4.41a2.325,2.325,0,0,0-2.324-2.534,2.524,2.524,0,0,0-2.282,1.33,2.245,2.245,0,0,0-2.1-1.33A2.34,2.34,0,0,0,25.1-5.768V-6.832H24.08ZM36.05,2.926h1.022V-.854A2.77,2.77,0,0,0,39.214.1,3.327,3.327,0,0,0,42.42-3.416a3.3,3.3,0,0,0-3.15-3.5,2.7,2.7,0,0,0-2.212,1.064v-.98H36.05ZM39.018-6.02A2.451,2.451,0,0,1,41.412-3.4,2.451,2.451,0,0,1,39.018-.784a2.4,2.4,0,0,1-1.946-.952V-5.082A2.333,2.333,0,0,1,39.018-6.02Zm6.356-4.2-1.022.21V0h1.022ZM53.256-.784l-.644-.686a2.792,2.792,0,0,1-1.876.7A2.49,2.49,0,0,1,48.3-3.192h5.362V-3.5a3.228,3.228,0,0,0-3.136-3.444,3.325,3.325,0,0,0-3.22,3.528A3.41,3.41,0,0,0,50.694.126,3.989,3.989,0,0,0,53.256-.784ZM50.512-6.062A2.256,2.256,0,0,1,52.654-3.92H48.328A2.282,2.282,0,0,1,50.512-6.062Zm8.134,2.646A3.384,3.384,0,0,0,61.964.14,3.378,3.378,0,0,0,65.3-3.416a3.353,3.353,0,0,0-3.332-3.528A3.351,3.351,0,0,0,58.646-3.416ZM61.964-.77A2.409,2.409,0,0,1,59.654-3.4a2.43,2.43,0,0,1,2.31-2.646A2.44,2.44,0,0,1,64.288-3.4,2.427,2.427,0,0,1,61.964-.77Zm4.172-6.062v.84h1.526V0h1.022V-5.992H70.63v-.84H68.684V-8.316c0-.812.336-1.19,1.12-1.19a2.818,2.818,0,0,1,.826.126V-10.3a2.887,2.887,0,0,0-.924-.126,1.875,1.875,0,0,0-2.044,2.1v1.5ZM77.63.126A2.933,2.933,0,0,0,79.8-.8V0h1.008V-4.536c0-1.554-.952-2.408-2.646-2.408a5.853,5.853,0,0,0-2.576.658l.378.784a4.511,4.511,0,0,1,2.072-.588A1.538,1.538,0,0,1,79.8-4.4v.938a3.956,3.956,0,0,0-2.086-.532c-1.54,0-2.562.812-2.562,2.03A2.206,2.206,0,0,0,77.63.126Zm-1.5-2.114c0-.756.686-1.26,1.736-1.26a3.606,3.606,0,0,1,1.932.49v1.316a2.7,2.7,0,0,1-1.96.784C76.818-.658,76.132-1.19,76.132-1.988ZM88.648,0l1.624-5.516L91.9,0h.994l1.862-6.832h-.966l-1.414,5.46-1.638-5.46h-.91l-1.638,5.46-1.428-5.46h-.994L87.64,0Zm13.188-.784-.644-.686a2.792,2.792,0,0,1-1.876.7A2.49,2.49,0,0,1,96.88-3.192h5.362V-3.5a3.228,3.228,0,0,0-3.136-3.444,3.325,3.325,0,0,0-3.22,3.528A3.41,3.41,0,0,0,99.274.126,3.989,3.989,0,0,0,101.836-.784ZM99.092-6.062a2.256,2.256,0,0,1,2.142,2.142H96.908A2.282,2.282,0,0,1,99.092-6.062ZM110.5-3.416a3.3,3.3,0,0,0-3.15-3.5,2.753,2.753,0,0,0-2.2,1.022V-10.22l-1.022.21V0h1.008V-.9A2.766,2.766,0,0,0,107.3.1,3.327,3.327,0,0,0,110.5-3.416Zm-3.4-2.6A2.451,2.451,0,0,1,109.494-3.4,2.451,2.451,0,0,1,107.1-.784a2.4,2.4,0,0,1-1.946-.952V-5.082A2.333,2.333,0,0,1,107.1-6.02Zm4.676,5.138A3.9,3.9,0,0,0,114.548.126c1.512,0,2.66-.924,2.66-2.114,0-1.008-.616-1.582-1.988-1.834l-1.148-.21c-.882-.154-1.176-.42-1.176-.98,0-.672.588-1.092,1.484-1.092a3.624,3.624,0,0,1,2.142.728l.5-.714a4.417,4.417,0,0,0-2.6-.854c-1.442,0-2.464.826-2.464,2,0,.994.6,1.554,1.932,1.792l1.12.2c.868.168,1.232.462,1.232,1.022,0,.714-.728,1.232-1.722,1.232a3.563,3.563,0,0,1-2.2-.854Zm7.644-7.63a.726.726,0,0,0,.728-.742.741.741,0,0,0-.728-.728.744.744,0,0,0-.742.728A.729.729,0,0,0,119.42-8.512Zm.5,1.68H118.9V0h1.022Zm3.052,5.292c0,1.092.616,1.666,1.792,1.666a3.837,3.837,0,0,0,1.19-.182v-.91a2.454,2.454,0,0,1-.966.182c-.714,0-.994-.294-.994-1.022V-5.992h1.96v-.84H124V-8.946l-1.022.238v1.876h-1.414v.84h1.414Zm10.094.756-.644-.686a2.792,2.792,0,0,1-1.876.7,2.49,2.49,0,0,1-2.436-2.422h5.362V-3.5a3.228,3.228,0,0,0-3.136-3.444,3.325,3.325,0,0,0-3.22,3.528A3.41,3.41,0,0,0,130.508.126,3.989,3.989,0,0,0,133.07-.784Zm-2.744-5.278a2.256,2.256,0,0,1,2.142,2.142h-4.326A2.282,2.282,0,0,1,130.326-6.062ZM141.89-.8a2.478,2.478,0,0,1-2.408-2.618,2.48,2.48,0,0,1,2.394-2.6,2.685,2.685,0,0,1,1.932.854l.658-.714a3.727,3.727,0,0,0-2.632-1.064,3.412,3.412,0,0,0-3.374,3.528A3.424,3.424,0,0,0,141.834.126a3.553,3.553,0,0,0,2.59-1.106l-.63-.63A2.517,2.517,0,0,1,141.89-.8Zm6.258.924a2.933,2.933,0,0,0,2.17-.924V0h1.008V-4.536c0-1.554-.952-2.408-2.646-2.408a5.853,5.853,0,0,0-2.576.658l.378.784a4.511,4.511,0,0,1,2.072-.588A1.538,1.538,0,0,1,150.318-4.4v.938a3.956,3.956,0,0,0-2.086-.532c-1.54,0-2.562.812-2.562,2.03A2.206,2.206,0,0,0,148.148.126Zm-1.5-2.114c0-.756.686-1.26,1.736-1.26a3.607,3.607,0,0,1,1.932.49v1.316a2.7,2.7,0,0,1-1.96.784C147.336-.658,146.65-1.19,146.65-1.988ZM153.538,0h1.022V-4.676a1.947,1.947,0,0,1,1.834-1.386,2.554,2.554,0,0,1,.714.126V-6.86a1.94,1.94,0,0,0-.644-.1,2.041,2.041,0,0,0-1.9,1.512V-6.832h-1.022Zm9.66,0h1.022V-10.22l-1.022.21v4.046a2.783,2.783,0,0,0-2.128-.952A3.327,3.327,0,0,0,157.864-3.4a3.3,3.3,0,0,0,3.15,3.5A2.692,2.692,0,0,0,163.2-.91Zm-4.326-3.416a2.438,2.438,0,0,1,2.394-2.6A2.45,2.45,0,0,1,163.2-5.1v3.388a2.34,2.34,0,0,1-1.932.91A2.451,2.451,0,0,1,158.872-3.416Z" transform="translate(80 520)" fill="#f0f"/>
  </g>
</svg>
