<svg width="418" height="56" viewBox="0 0 418 56" fill="none" xmlns="http://www.w3.org/2000/svg">
<rect width="418" height="56" fill="#F2F2F2"/>
<mask id="path-1-inside-1_10001_2382" fill="white">
<path d="M0 0H157V56H0V0Z"/>
</mask>
<path d="M157 52H0V60H157V52Z" fill="#EE0000" mask="url(#path-1-inside-1_10001_2382)"/>
<path d="M33.424 34V22.8H34.656V32.912H40.976V34H33.424ZM45.9685 34.128C45.2432 34.128 44.5925 33.952 44.0165 33.6C43.4405 33.248 42.9872 32.768 42.6565 32.16C42.3258 31.552 42.1605 30.864 42.1605 30.096C42.1605 29.328 42.3258 28.64 42.6565 28.032C42.9872 27.424 43.4405 26.944 44.0165 26.592C44.5925 26.24 45.2432 26.064 45.9685 26.064C46.6832 26.064 47.3232 26.24 47.8885 26.592C48.4645 26.944 48.9178 27.424 49.2485 28.032C49.5792 28.64 49.7445 29.328 49.7445 30.096C49.7445 30.864 49.5792 31.552 49.2485 32.16C48.9178 32.768 48.4645 33.248 47.8885 33.6C47.3232 33.952 46.6832 34.128 45.9685 34.128ZM45.9525 33.104C46.4645 33.104 46.9178 32.976 47.3125 32.72C47.7072 32.4533 48.0165 32.0907 48.2405 31.632C48.4752 31.1733 48.5925 30.6613 48.5925 30.096C48.5925 29.52 48.4752 29.008 48.2405 28.56C48.0165 28.1013 47.7072 27.744 47.3125 27.488C46.9178 27.2213 46.4645 27.088 45.9525 27.088C45.4405 27.088 44.9872 27.2213 44.5925 27.488C44.1978 27.744 43.8832 28.1013 43.6485 28.56C43.4245 29.008 43.3125 29.52 43.3125 30.096C43.3125 30.6613 43.4245 31.1733 43.6485 31.632C43.8832 32.0907 44.1978 32.4533 44.5925 32.72C44.9872 32.976 45.4405 33.104 45.9525 33.104ZM51.7938 34V26.192H52.9618V27.792C53.1644 27.248 53.4524 26.8267 53.8258 26.528C54.2098 26.2187 54.6471 26.064 55.1378 26.064C55.2764 26.064 55.4044 26.0747 55.5218 26.096C55.6391 26.1067 55.7564 26.1333 55.8738 26.176V27.232C55.7458 27.1893 55.6071 27.1573 55.4578 27.136C55.3191 27.104 55.1858 27.088 55.0578 27.088C54.5778 27.088 54.1564 27.2267 53.7938 27.504C53.4418 27.7813 53.1644 28.1707 52.9618 28.672V34H51.7938ZM60.4544 34.16C59.729 34.16 59.073 33.984 58.4864 33.632C57.8997 33.2693 57.4357 32.784 57.0944 32.176C56.753 31.5573 56.5824 30.864 56.5824 30.096C56.5824 29.328 56.7424 28.64 57.0624 28.032C57.393 27.424 57.8357 26.944 58.3904 26.592C58.945 26.24 59.5637 26.064 60.2464 26.064C60.9397 26.064 61.553 26.24 62.0864 26.592C62.6304 26.9333 63.057 27.4027 63.3664 28C63.6864 28.5867 63.8464 29.2533 63.8464 30V30.352H57.7184C57.761 30.8853 57.905 31.3653 58.1504 31.792C58.4064 32.208 58.737 32.5387 59.1424 32.784C59.5584 33.0187 60.0117 33.136 60.5024 33.136C60.9077 33.136 61.297 33.0667 61.6704 32.928C62.0544 32.7787 62.3797 32.5813 62.6464 32.336L63.3824 33.12C62.9344 33.472 62.4704 33.7333 61.9904 33.904C61.5104 34.0747 60.9984 34.16 60.4544 34.16ZM57.7504 29.52H62.6944C62.641 29.0507 62.497 28.6347 62.2624 28.272C62.0384 27.8987 61.7504 27.6053 61.3984 27.392C61.057 27.1787 60.673 27.072 60.2464 27.072C59.8197 27.072 59.4304 27.1787 59.0784 27.392C58.7264 27.5947 58.433 27.8827 58.1984 28.256C57.9744 28.6187 57.825 29.04 57.7504 29.52ZM65.8406 34V26.192H67.0086V27.408C67.3073 26.96 67.6486 26.624 68.0326 26.4C68.4166 26.176 68.8486 26.064 69.3286 26.064C69.8833 26.064 70.3686 26.2027 70.7846 26.48C71.2006 26.7467 71.5153 27.1147 71.7286 27.584C72.038 27.0827 72.406 26.704 72.8326 26.448C73.27 26.192 73.7713 26.064 74.3366 26.064C74.8593 26.064 75.318 26.1867 75.7126 26.432C76.118 26.6773 76.4326 27.0187 76.6566 27.456C76.8806 27.8827 76.9926 28.384 76.9926 28.96V34H75.8246V29.248C75.8246 28.5653 75.654 28.0267 75.3126 27.632C74.9713 27.2373 74.502 27.04 73.9046 27.04C73.4993 27.04 73.1313 27.1413 72.8006 27.344C72.4806 27.5467 72.198 27.856 71.9526 28.272C71.974 28.3787 71.99 28.4907 72.0006 28.608C72.0113 28.7253 72.0166 28.8427 72.0166 28.96V34H70.8486V29.248C70.8486 28.5653 70.6726 28.0267 70.3206 27.632C69.9793 27.2373 69.51 27.04 68.9126 27.04C68.1126 27.04 67.478 27.424 67.0086 28.192V34H65.8406ZM83.0746 34V26.192H84.2426V34H83.0746ZM83.6666 24.256C83.432 24.256 83.2293 24.176 83.0586 24.016C82.8986 23.8453 82.8186 23.648 82.8186 23.424C82.8186 23.2 82.8986 23.008 83.0586 22.848C83.2293 22.6773 83.432 22.592 83.6666 22.592C83.9013 22.592 84.0986 22.6773 84.2586 22.848C84.4293 23.008 84.5146 23.2 84.5146 23.424C84.5146 23.648 84.4293 23.8453 84.2586 24.016C84.0986 24.176 83.9013 24.256 83.6666 24.256ZM86.6375 37.344V26.192H87.7895V27.312C88.0882 26.9173 88.4508 26.6187 88.8775 26.416C89.3148 26.2027 89.7948 26.096 90.3175 26.096C91.0002 26.096 91.6082 26.2773 92.1415 26.64C92.6855 26.992 93.1175 27.472 93.4375 28.08C93.7575 28.6773 93.9175 29.3493 93.9175 30.096C93.9175 30.8427 93.7522 31.52 93.4215 32.128C93.1015 32.736 92.6642 33.2213 92.1095 33.584C91.5655 33.936 90.9468 34.112 90.2535 34.112C89.7628 34.112 89.3095 34.0213 88.8935 33.84C88.4775 33.648 88.1148 33.376 87.8055 33.024V37.344H86.6375ZM90.0295 33.104C90.5522 33.104 91.0162 32.976 91.4215 32.72C91.8375 32.4533 92.1628 32.096 92.3975 31.648C92.6428 31.1893 92.7655 30.6773 92.7655 30.112C92.7655 29.536 92.6428 29.024 92.3975 28.576C92.1628 28.128 91.8375 27.776 91.4215 27.52C91.0162 27.2533 90.5522 27.12 90.0295 27.12C89.5708 27.12 89.1442 27.216 88.7495 27.408C88.3655 27.5893 88.0508 27.8507 87.8055 28.192V32.016C88.0615 32.3573 88.3815 32.624 88.7655 32.816C89.1602 33.008 89.5815 33.104 90.0295 33.104ZM98.3816 34.16C97.7416 34.16 97.1496 34.064 96.6056 33.872C96.0616 33.6693 95.5976 33.3813 95.2136 33.008L95.8376 32.24C96.307 32.5813 96.739 32.832 97.1336 32.992C97.5283 33.1413 97.9336 33.216 98.3496 33.216C98.915 33.216 99.3843 33.0827 99.7576 32.816C100.131 32.5493 100.318 32.208 100.318 31.792C100.318 31.472 100.206 31.2213 99.9816 31.04C99.7683 30.8587 99.411 30.72 98.9096 30.624L97.6296 30.4C96.8723 30.2613 96.3123 30.0267 95.9496 29.696C95.5976 29.3653 95.4216 28.9173 95.4216 28.352C95.4216 27.904 95.539 27.5093 95.7736 27.168C96.019 26.8267 96.355 26.56 96.7816 26.368C97.2083 26.1653 97.6936 26.064 98.2376 26.064C98.771 26.064 99.2776 26.144 99.7576 26.304C100.238 26.4533 100.723 26.6987 101.214 27.04L100.638 27.856C100.232 27.568 99.827 27.36 99.4216 27.232C99.0163 27.0933 98.6056 27.024 98.1896 27.024C97.6776 27.024 97.267 27.136 96.9576 27.36C96.6483 27.584 96.4936 27.888 96.4936 28.272C96.4936 28.592 96.5896 28.8373 96.7816 29.008C96.9843 29.1787 97.3363 29.3067 97.8376 29.392L99.1496 29.632C99.939 29.7707 100.515 30.0107 100.878 30.352C101.24 30.6933 101.422 31.152 101.422 31.728C101.422 32.1867 101.288 32.6027 101.022 32.976C100.755 33.3387 100.392 33.6267 99.9336 33.84C99.475 34.0533 98.9576 34.16 98.3816 34.16ZM105.984 34.128C105.429 34.128 104.939 34.0053 104.512 33.76C104.085 33.5147 103.749 33.1733 103.504 32.736C103.269 32.2987 103.152 31.7973 103.152 31.232V26.192H104.336V30.896C104.336 31.5893 104.523 32.1387 104.896 32.544C105.269 32.9493 105.776 33.152 106.416 33.152C106.853 33.152 107.243 33.0507 107.584 32.848C107.936 32.6453 108.229 32.352 108.464 31.968V26.192H109.632V34H108.464V32.736C108.165 33.1947 107.808 33.5413 107.392 33.776C106.987 34.0107 106.517 34.128 105.984 34.128ZM112.028 34V26.192H113.196V27.408C113.495 26.96 113.836 26.624 114.22 26.4C114.604 26.176 115.036 26.064 115.516 26.064C116.071 26.064 116.556 26.2027 116.972 26.48C117.388 26.7467 117.703 27.1147 117.916 27.584C118.225 27.0827 118.593 26.704 119.02 26.448C119.457 26.192 119.959 26.064 120.524 26.064C121.047 26.064 121.505 26.1867 121.9 26.432C122.305 26.6773 122.62 27.0187 122.844 27.456C123.068 27.8827 123.18 28.384 123.18 28.96V34H122.012V29.248C122.012 28.5653 121.841 28.0267 121.5 27.632C121.159 27.2373 120.689 27.04 120.092 27.04C119.687 27.04 119.319 27.1413 118.988 27.344C118.668 27.5467 118.385 27.856 118.14 28.272C118.161 28.3787 118.177 28.4907 118.188 28.608C118.199 28.7253 118.204 28.8427 118.204 28.96V34H117.036V29.248C117.036 28.5653 116.86 28.0267 116.508 27.632C116.167 27.2373 115.697 27.04 115.1 27.04C114.3 27.04 113.665 27.424 113.196 28.192V34H112.028Z" fill="#151515"/>
</svg>
