<svg width="1012" height="56" viewBox="0 0 1012 56" fill="none" xmlns="http://www.w3.org/2000/svg">
<rect width="1012" height="56" fill="#F2F2F2"/>
<mask id="path-1-inside-1_10001_2700" fill="white">
<path d="M0 0H337.333V56H0V0Z"/>
</mask>
<path d="M337.333 52H0V60H337.333V52Z" fill="#EE0000" mask="url(#path-1-inside-1_10001_2700)"/>
<path d="M123.591 34V22.8H124.823V32.912H131.143V34H123.591ZM136.135 34.128C135.41 34.128 134.759 33.952 134.183 33.6C133.607 33.248 133.154 32.768 132.823 32.16C132.492 31.552 132.327 30.864 132.327 30.096C132.327 29.328 132.492 28.64 132.823 28.032C133.154 27.424 133.607 26.944 134.183 26.592C134.759 26.24 135.41 26.064 136.135 26.064C136.85 26.064 137.49 26.24 138.055 26.592C138.631 26.944 139.084 27.424 139.415 28.032C139.746 28.64 139.911 29.328 139.911 30.096C139.911 30.864 139.746 31.552 139.415 32.16C139.084 32.768 138.631 33.248 138.055 33.6C137.49 33.952 136.85 34.128 136.135 34.128ZM136.119 33.104C136.631 33.104 137.084 32.976 137.479 32.72C137.874 32.4533 138.183 32.0907 138.407 31.632C138.642 31.1733 138.759 30.6613 138.759 30.096C138.759 29.52 138.642 29.008 138.407 28.56C138.183 28.1013 137.874 27.744 137.479 27.488C137.084 27.2213 136.631 27.088 136.119 27.088C135.607 27.088 135.154 27.2213 134.759 27.488C134.364 27.744 134.05 28.1013 133.815 28.56C133.591 29.008 133.479 29.52 133.479 30.096C133.479 30.6613 133.591 31.1733 133.815 31.632C134.05 32.0907 134.364 32.4533 134.759 32.72C135.154 32.976 135.607 33.104 136.119 33.104ZM141.96 34V26.192H143.128V27.792C143.331 27.248 143.619 26.8267 143.992 26.528C144.376 26.2187 144.814 26.064 145.304 26.064C145.443 26.064 145.571 26.0747 145.688 26.096C145.806 26.1067 145.923 26.1333 146.04 26.176V27.232C145.912 27.1893 145.774 27.1573 145.624 27.136C145.486 27.104 145.352 27.088 145.224 27.088C144.744 27.088 144.323 27.2267 143.96 27.504C143.608 27.7813 143.331 28.1707 143.128 28.672V34H141.96ZM150.621 34.16C149.896 34.16 149.24 33.984 148.653 33.632C148.066 33.2693 147.602 32.784 147.261 32.176C146.92 31.5573 146.749 30.864 146.749 30.096C146.749 29.328 146.909 28.64 147.229 28.032C147.56 27.424 148.002 26.944 148.557 26.592C149.112 26.24 149.73 26.064 150.413 26.064C151.106 26.064 151.72 26.24 152.253 26.592C152.797 26.9333 153.224 27.4027 153.533 28C153.853 28.5867 154.013 29.2533 154.013 30V30.352H147.885C147.928 30.8853 148.072 31.3653 148.317 31.792C148.573 32.208 148.904 32.5387 149.309 32.784C149.725 33.0187 150.178 33.136 150.669 33.136C151.074 33.136 151.464 33.0667 151.837 32.928C152.221 32.7787 152.546 32.5813 152.813 32.336L153.549 33.12C153.101 33.472 152.637 33.7333 152.157 33.904C151.677 34.0747 151.165 34.16 150.621 34.16ZM147.917 29.52H152.861C152.808 29.0507 152.664 28.6347 152.429 28.272C152.205 27.8987 151.917 27.6053 151.565 27.392C151.224 27.1787 150.84 27.072 150.413 27.072C149.986 27.072 149.597 27.1787 149.245 27.392C148.893 27.5947 148.6 27.8827 148.365 28.256C148.141 28.6187 147.992 29.04 147.917 29.52ZM156.007 34V26.192H157.175V27.408C157.474 26.96 157.815 26.624 158.199 26.4C158.583 26.176 159.015 26.064 159.495 26.064C160.05 26.064 160.535 26.2027 160.951 26.48C161.367 26.7467 161.682 27.1147 161.895 27.584C162.205 27.0827 162.573 26.704 162.999 26.448C163.437 26.192 163.938 26.064 164.503 26.064C165.026 26.064 165.485 26.1867 165.879 26.432C166.285 26.6773 166.599 27.0187 166.823 27.456C167.047 27.8827 167.159 28.384 167.159 28.96V34H165.991V29.248C165.991 28.5653 165.821 28.0267 165.479 27.632C165.138 27.2373 164.669 27.04 164.071 27.04C163.666 27.04 163.298 27.1413 162.967 27.344C162.647 27.5467 162.365 27.856 162.119 28.272C162.141 28.3787 162.157 28.4907 162.167 28.608C162.178 28.7253 162.183 28.8427 162.183 28.96V34H161.015V29.248C161.015 28.5653 160.839 28.0267 160.487 27.632C160.146 27.2373 159.677 27.04 159.079 27.04C158.279 27.04 157.645 27.424 157.175 28.192V34H156.007ZM173.241 34V26.192H174.409V34H173.241ZM173.833 24.256C173.599 24.256 173.396 24.176 173.225 24.016C173.065 23.8453 172.985 23.648 172.985 23.424C172.985 23.2 173.065 23.008 173.225 22.848C173.396 22.6773 173.599 22.592 173.833 22.592C174.068 22.592 174.265 22.6773 174.425 22.848C174.596 23.008 174.681 23.2 174.681 23.424C174.681 23.648 174.596 23.8453 174.425 24.016C174.265 24.176 174.068 24.256 173.833 24.256ZM176.804 37.344V26.192H177.956V27.312C178.255 26.9173 178.617 26.6187 179.044 26.416C179.481 26.2027 179.961 26.096 180.484 26.096C181.167 26.096 181.775 26.2773 182.308 26.64C182.852 26.992 183.284 27.472 183.604 28.08C183.924 28.6773 184.084 29.3493 184.084 30.096C184.084 30.8427 183.919 31.52 183.588 32.128C183.268 32.736 182.831 33.2213 182.276 33.584C181.732 33.936 181.113 34.112 180.42 34.112C179.929 34.112 179.476 34.0213 179.06 33.84C178.644 33.648 178.281 33.376 177.972 33.024V37.344H176.804ZM180.196 33.104C180.719 33.104 181.183 32.976 181.588 32.72C182.004 32.4533 182.329 32.096 182.564 31.648C182.809 31.1893 182.932 30.6773 182.932 30.112C182.932 29.536 182.809 29.024 182.564 28.576C182.329 28.128 182.004 27.776 181.588 27.52C181.183 27.2533 180.719 27.12 180.196 27.12C179.737 27.12 179.311 27.216 178.916 27.408C178.532 27.5893 178.217 27.8507 177.972 28.192V32.016C178.228 32.3573 178.548 32.624 178.932 32.816C179.327 33.008 179.748 33.104 180.196 33.104ZM188.548 34.16C187.908 34.16 187.316 34.064 186.772 33.872C186.228 33.6693 185.764 33.3813 185.38 33.008L186.004 32.24C186.474 32.5813 186.906 32.832 187.3 32.992C187.695 33.1413 188.1 33.216 188.516 33.216C189.082 33.216 189.551 33.0827 189.924 32.816C190.298 32.5493 190.484 32.208 190.484 31.792C190.484 31.472 190.372 31.2213 190.148 31.04C189.935 30.8587 189.578 30.72 189.076 30.624L187.796 30.4C187.039 30.2613 186.479 30.0267 186.116 29.696C185.764 29.3653 185.588 28.9173 185.588 28.352C185.588 27.904 185.706 27.5093 185.94 27.168C186.186 26.8267 186.522 26.56 186.948 26.368C187.375 26.1653 187.86 26.064 188.404 26.064C188.938 26.064 189.444 26.144 189.924 26.304C190.404 26.4533 190.89 26.6987 191.38 27.04L190.804 27.856C190.399 27.568 189.994 27.36 189.588 27.232C189.183 27.0933 188.772 27.024 188.356 27.024C187.844 27.024 187.434 27.136 187.124 27.36C186.815 27.584 186.66 27.888 186.66 28.272C186.66 28.592 186.756 28.8373 186.948 29.008C187.151 29.1787 187.503 29.3067 188.004 29.392L189.316 29.632C190.106 29.7707 190.682 30.0107 191.044 30.352C191.407 30.6933 191.588 31.152 191.588 31.728C191.588 32.1867 191.455 32.6027 191.188 32.976C190.922 33.3387 190.559 33.6267 190.1 33.84C189.642 34.0533 189.124 34.16 188.548 34.16ZM196.151 34.128C195.596 34.128 195.105 34.0053 194.679 33.76C194.252 33.5147 193.916 33.1733 193.671 32.736C193.436 32.2987 193.319 31.7973 193.319 31.232V26.192H194.503V30.896C194.503 31.5893 194.689 32.1387 195.063 32.544C195.436 32.9493 195.943 33.152 196.583 33.152C197.02 33.152 197.409 33.0507 197.751 32.848C198.103 32.6453 198.396 32.352 198.631 31.968V26.192H199.799V34H198.631V32.736C198.332 33.1947 197.975 33.5413 197.559 33.776C197.153 34.0107 196.684 34.128 196.151 34.128ZM202.195 34V26.192H203.363V27.408C203.661 26.96 204.003 26.624 204.387 26.4C204.771 26.176 205.203 26.064 205.683 26.064C206.237 26.064 206.723 26.2027 207.139 26.48C207.555 26.7467 207.869 27.1147 208.083 27.584C208.392 27.0827 208.76 26.704 209.187 26.448C209.624 26.192 210.125 26.064 210.691 26.064C211.213 26.064 211.672 26.1867 212.067 26.432C212.472 26.6773 212.787 27.0187 213.011 27.456C213.235 27.8827 213.347 28.384 213.347 28.96V34H212.179V29.248C212.179 28.5653 212.008 28.0267 211.667 27.632C211.325 27.2373 210.856 27.04 210.259 27.04C209.853 27.04 209.485 27.1413 209.155 27.344C208.835 27.5467 208.552 27.856 208.307 28.272C208.328 28.3787 208.344 28.4907 208.355 28.608C208.365 28.7253 208.371 28.8427 208.371 28.96V34H207.203V29.248C207.203 28.5653 207.027 28.0267 206.675 27.632C206.333 27.2373 205.864 27.04 205.267 27.04C204.467 27.04 203.832 27.424 203.363 28.192V34H202.195Z" fill="#151515"/>
<path d="M458.156 32.896H460.716C461.527 32.896 462.252 32.6987 462.892 32.304C463.532 31.9093 464.039 31.376 464.412 30.704C464.796 30.0213 464.988 29.2533 464.988 28.4C464.988 27.5467 464.796 26.784 464.412 26.112C464.039 25.4293 463.532 24.8907 462.892 24.496C462.252 24.1013 461.527 23.904 460.716 23.904H458.156V32.896ZM456.924 34V22.8H460.636C461.457 22.8 462.209 22.944 462.892 23.232C463.585 23.5093 464.177 23.904 464.668 24.416C465.169 24.9173 465.553 25.5093 465.82 26.192C466.097 26.864 466.236 27.6 466.236 28.4C466.236 29.2 466.097 29.9413 465.82 30.624C465.553 31.296 465.169 31.888 464.668 32.4C464.177 32.9013 463.585 33.296 462.892 33.584C462.209 33.8613 461.457 34 460.636 34H456.924ZM471.797 34.128C471.071 34.128 470.421 33.952 469.845 33.6C469.269 33.248 468.815 32.768 468.485 32.16C468.154 31.552 467.989 30.864 467.989 30.096C467.989 29.328 468.154 28.64 468.485 28.032C468.815 27.424 469.269 26.944 469.845 26.592C470.421 26.24 471.071 26.064 471.797 26.064C472.511 26.064 473.151 26.24 473.717 26.592C474.293 26.944 474.746 27.424 475.077 28.032C475.407 28.64 475.573 29.328 475.573 30.096C475.573 30.864 475.407 31.552 475.077 32.16C474.746 32.768 474.293 33.248 473.717 33.6C473.151 33.952 472.511 34.128 471.797 34.128ZM471.781 33.104C472.293 33.104 472.746 32.976 473.141 32.72C473.535 32.4533 473.845 32.0907 474.069 31.632C474.303 31.1733 474.421 30.6613 474.421 30.096C474.421 29.52 474.303 29.008 474.069 28.56C473.845 28.1013 473.535 27.744 473.141 27.488C472.746 27.2213 472.293 27.088 471.781 27.088C471.269 27.088 470.815 27.2213 470.421 27.488C470.026 27.744 469.711 28.1013 469.477 28.56C469.253 29.008 469.141 29.52 469.141 30.096C469.141 30.6613 469.253 31.1733 469.477 31.632C469.711 32.0907 470.026 32.4533 470.421 32.72C470.815 32.976 471.269 33.104 471.781 33.104ZM477.622 34V22.448L478.79 22.208V34H477.622ZM484.64 34.128C483.915 34.128 483.264 33.952 482.688 33.6C482.112 33.248 481.659 32.768 481.328 32.16C480.998 31.552 480.832 30.864 480.832 30.096C480.832 29.328 480.998 28.64 481.328 28.032C481.659 27.424 482.112 26.944 482.688 26.592C483.264 26.24 483.915 26.064 484.64 26.064C485.355 26.064 485.995 26.24 486.56 26.592C487.136 26.944 487.59 27.424 487.92 28.032C488.251 28.64 488.416 29.328 488.416 30.096C488.416 30.864 488.251 31.552 487.92 32.16C487.59 32.768 487.136 33.248 486.56 33.6C485.995 33.952 485.355 34.128 484.64 34.128ZM484.624 33.104C485.136 33.104 485.59 32.976 485.984 32.72C486.379 32.4533 486.688 32.0907 486.912 31.632C487.147 31.1733 487.264 30.6613 487.264 30.096C487.264 29.52 487.147 29.008 486.912 28.56C486.688 28.1013 486.379 27.744 485.984 27.488C485.59 27.2213 485.136 27.088 484.624 27.088C484.112 27.088 483.659 27.2213 483.264 27.488C482.87 27.744 482.555 28.1013 482.32 28.56C482.096 29.008 481.984 29.52 481.984 30.096C481.984 30.6613 482.096 31.1733 482.32 31.632C482.555 32.0907 482.87 32.4533 483.264 32.72C483.659 32.976 484.112 33.104 484.624 33.104ZM490.466 34V26.192H491.634V27.792C491.836 27.248 492.124 26.8267 492.498 26.528C492.882 26.2187 493.319 26.064 493.81 26.064C493.948 26.064 494.076 26.0747 494.194 26.096C494.311 26.1067 494.428 26.1333 494.546 26.176V27.232C494.418 27.1893 494.279 27.1573 494.13 27.136C493.991 27.104 493.858 27.088 493.73 27.088C493.25 27.088 492.828 27.2267 492.466 27.504C492.114 27.7813 491.836 28.1707 491.634 28.672V34H490.466ZM502.241 34.16C501.601 34.16 501.009 34.064 500.465 33.872C499.921 33.6693 499.457 33.3813 499.073 33.008L499.697 32.24C500.166 32.5813 500.598 32.832 500.993 32.992C501.388 33.1413 501.793 33.216 502.209 33.216C502.774 33.216 503.244 33.0827 503.617 32.816C503.99 32.5493 504.177 32.208 504.177 31.792C504.177 31.472 504.065 31.2213 503.841 31.04C503.628 30.8587 503.27 30.72 502.769 30.624L501.489 30.4C500.732 30.2613 500.172 30.0267 499.809 29.696C499.457 29.3653 499.281 28.9173 499.281 28.352C499.281 27.904 499.398 27.5093 499.633 27.168C499.878 26.8267 500.214 26.56 500.641 26.368C501.068 26.1653 501.553 26.064 502.097 26.064C502.63 26.064 503.137 26.144 503.617 26.304C504.097 26.4533 504.582 26.6987 505.073 27.04L504.497 27.856C504.092 27.568 503.686 27.36 503.281 27.232C502.876 27.0933 502.465 27.024 502.049 27.024C501.537 27.024 501.126 27.136 500.817 27.36C500.508 27.584 500.353 27.888 500.353 28.272C500.353 28.592 500.449 28.8373 500.641 29.008C500.844 29.1787 501.196 29.3067 501.697 29.392L503.009 29.632C503.798 29.7707 504.374 30.0107 504.737 30.352C505.1 30.6933 505.281 31.152 505.281 31.728C505.281 32.1867 505.148 32.6027 504.881 32.976C504.614 33.3387 504.252 33.6267 503.793 33.84C503.334 34.0533 502.817 34.16 502.241 34.16ZM507.043 34V26.192H508.211V34H507.043ZM507.635 24.256C507.401 24.256 507.198 24.176 507.027 24.016C506.867 23.8453 506.787 23.648 506.787 23.424C506.787 23.2 506.867 23.008 507.027 22.848C507.198 22.6773 507.401 22.592 507.635 22.592C507.87 22.592 508.067 22.6773 508.227 22.848C508.398 23.008 508.483 23.2 508.483 23.424C508.483 23.648 508.398 23.8453 508.227 24.016C508.067 24.176 507.87 24.256 507.635 24.256ZM513.582 34.16C512.91 34.16 512.398 34 512.046 33.68C511.705 33.3493 511.534 32.8747 511.534 32.256V27.152H509.918V26.192H511.534V24.048L512.702 23.776V26.192H514.942V27.152H512.702V31.952C512.702 32.368 512.788 32.6667 512.958 32.848C513.14 33.0293 513.433 33.12 513.838 33.12C514.041 33.12 514.222 33.104 514.382 33.072C514.542 33.04 514.729 32.9867 514.942 32.912V33.952C514.729 34.0267 514.505 34.08 514.27 34.112C514.036 34.144 513.806 34.16 513.582 34.16ZM522.804 34.144C522.249 34.144 521.758 34.0427 521.332 33.84C520.905 33.6373 520.569 33.36 520.324 33.008C520.089 32.6453 519.972 32.2293 519.972 31.76C519.972 31.2907 520.094 30.8853 520.34 30.544C520.585 30.192 520.926 29.92 521.364 29.728C521.801 29.536 522.313 29.44 522.9 29.44C523.348 29.44 523.769 29.488 524.164 29.584C524.569 29.68 524.942 29.8347 525.284 30.048V28.976C525.284 28.336 525.113 27.856 524.772 27.536C524.43 27.2053 523.929 27.04 523.268 27.04C522.905 27.04 522.532 27.0933 522.148 27.2C521.774 27.3067 521.358 27.4773 520.9 27.712L520.468 26.816C521.513 26.3147 522.494 26.064 523.411 26.064C524.382 26.064 525.129 26.304 525.652 26.784C526.174 27.2533 526.436 27.9307 526.436 28.816V34H525.284V33.088C524.942 33.44 524.564 33.7067 524.148 33.888C523.732 34.0587 523.284 34.144 522.804 34.144ZM521.092 31.728C521.092 32.1867 521.268 32.5547 521.62 32.832C521.982 33.1093 522.457 33.248 523.044 33.248C523.481 33.248 523.881 33.1733 524.244 33.024C524.617 32.8747 524.964 32.6507 525.284 32.352V30.848C524.953 30.656 524.612 30.5173 524.26 30.432C523.908 30.336 523.513 30.288 523.076 30.288C522.478 30.288 521.998 30.4213 521.636 30.688C521.273 30.944 521.092 31.2907 521.092 31.728ZM528.809 34V26.192H529.977V27.408C530.276 26.96 530.617 26.624 531.001 26.4C531.385 26.176 531.817 26.064 532.297 26.064C532.852 26.064 533.337 26.2027 533.753 26.48C534.169 26.7467 534.484 27.1147 534.697 27.584C535.007 27.0827 535.375 26.704 535.801 26.448C536.239 26.192 536.74 26.064 537.305 26.064C537.828 26.064 538.287 26.1867 538.681 26.432C539.087 26.6773 539.401 27.0187 539.625 27.456C539.849 27.8827 539.961 28.384 539.961 28.96V34H538.793V29.248C538.793 28.5653 538.623 28.0267 538.281 27.632C537.94 27.2373 537.471 27.04 536.873 27.04C536.468 27.04 536.1 27.1413 535.769 27.344C535.449 27.5467 535.167 27.856 534.921 28.272C534.943 28.3787 534.959 28.4907 534.969 28.608C534.98 28.7253 534.985 28.8427 534.985 28.96V34H533.817V29.248C533.817 28.5653 533.641 28.0267 533.289 27.632C532.948 27.2373 532.479 27.04 531.881 27.04C531.081 27.04 530.447 27.424 529.977 28.192V34H528.809ZM545.845 34.16C545.12 34.16 544.464 33.984 543.877 33.632C543.29 33.2693 542.826 32.784 542.485 32.176C542.144 31.5573 541.973 30.864 541.973 30.096C541.973 29.328 542.133 28.64 542.453 28.032C542.784 27.424 543.226 26.944 543.781 26.592C544.336 26.24 544.954 26.064 545.637 26.064C546.33 26.064 546.944 26.24 547.477 26.592C548.021 26.9333 548.448 27.4027 548.757 28C549.077 28.5867 549.237 29.2533 549.237 30V30.352H543.109C543.152 30.8853 543.296 31.3653 543.541 31.792C543.797 32.208 544.128 32.5387 544.533 32.784C544.949 33.0187 545.402 33.136 545.893 33.136C546.298 33.136 546.688 33.0667 547.061 32.928C547.445 32.7787 547.77 32.5813 548.037 32.336L548.773 33.12C548.325 33.472 547.861 33.7333 547.381 33.904C546.901 34.0747 546.389 34.16 545.845 34.16ZM543.141 29.52H548.085C548.032 29.0507 547.888 28.6347 547.653 28.272C547.429 27.8987 547.141 27.6053 546.789 27.392C546.448 27.1787 546.064 27.072 545.637 27.072C545.21 27.072 544.821 27.1787 544.469 27.392C544.117 27.5947 543.824 27.8827 543.589 28.256C543.365 28.6187 543.216 29.04 543.141 29.52ZM553.973 34.16C553.301 34.16 552.789 34 552.437 33.68C552.096 33.3493 551.925 32.8747 551.925 32.256V27.152H550.309V26.192H551.925V24.048L553.093 23.776V26.192H555.333V27.152H553.093V31.952C553.093 32.368 553.178 32.6667 553.349 32.848C553.53 33.0293 553.824 33.12 554.229 33.12C554.432 33.12 554.613 33.104 554.773 33.072C554.933 33.04 555.12 32.9867 555.333 32.912V33.952C555.12 34.0267 554.896 34.08 554.661 34.112C554.426 34.144 554.197 34.16 553.973 34.16Z" fill="#4D4D4D"/>
<path d="M804.925 34.176C804.125 34.176 803.379 34.032 802.685 33.744C802.003 33.4453 801.4 33.0347 800.877 32.512C800.355 31.9787 799.949 31.3653 799.661 30.672C799.373 29.968 799.229 29.2107 799.229 28.4C799.229 27.5893 799.373 26.8373 799.661 26.144C799.949 25.44 800.355 24.8267 800.877 24.304C801.4 23.7707 802.003 23.36 802.685 23.072C803.379 22.7733 804.125 22.624 804.925 22.624C805.48 22.624 806.008 22.6987 806.509 22.848C807.021 22.9867 807.501 23.1947 807.949 23.472C808.397 23.7387 808.797 24.0693 809.149 24.464L808.333 25.312C807.917 24.8107 807.405 24.4267 806.797 24.16C806.2 23.8827 805.576 23.744 804.925 23.744C804.296 23.744 803.709 23.8613 803.165 24.096C802.621 24.3307 802.147 24.6613 801.741 25.088C801.347 25.5147 801.037 26.0107 800.813 26.576C800.589 27.1307 800.477 27.7387 800.477 28.4C800.477 29.0507 800.589 29.6587 800.813 30.224C801.037 30.7893 801.347 31.2853 801.741 31.712C802.147 32.1387 802.621 32.4693 803.165 32.704C803.709 32.9387 804.296 33.056 804.925 33.056C805.576 33.056 806.2 32.9173 806.797 32.64C807.405 32.3627 807.917 31.9787 808.333 31.488L809.149 32.336C808.797 32.7307 808.397 33.0667 807.949 33.344C807.501 33.6107 807.021 33.8187 806.509 33.968C806.008 34.1067 805.48 34.176 804.925 34.176ZM814.364 34.128C813.639 34.128 812.988 33.952 812.412 33.6C811.836 33.248 811.383 32.768 811.052 32.16C810.722 31.552 810.556 30.864 810.556 30.096C810.556 29.328 810.722 28.64 811.052 28.032C811.383 27.424 811.836 26.944 812.412 26.592C812.988 26.24 813.639 26.064 814.364 26.064C815.079 26.064 815.719 26.24 816.284 26.592C816.86 26.944 817.314 27.424 817.644 28.032C817.975 28.64 818.14 29.328 818.14 30.096C818.14 30.864 817.975 31.552 817.644 32.16C817.314 32.768 816.86 33.248 816.284 33.6C815.719 33.952 815.079 34.128 814.364 34.128ZM814.348 33.104C814.86 33.104 815.314 32.976 815.708 32.72C816.103 32.4533 816.412 32.0907 816.636 31.632C816.871 31.1733 816.988 30.6613 816.988 30.096C816.988 29.52 816.871 29.008 816.636 28.56C816.412 28.1013 816.103 27.744 815.708 27.488C815.314 27.2213 814.86 27.088 814.348 27.088C813.836 27.088 813.383 27.2213 812.988 27.488C812.594 27.744 812.279 28.1013 812.044 28.56C811.82 29.008 811.708 29.52 811.708 30.096C811.708 30.6613 811.82 31.1733 812.044 31.632C812.279 32.0907 812.594 32.4533 812.988 32.72C813.383 32.976 813.836 33.104 814.348 33.104ZM820.19 34V26.192H821.358V27.456C821.656 26.9867 822.014 26.64 822.43 26.416C822.846 26.1813 823.315 26.064 823.838 26.064C824.403 26.064 824.894 26.1867 825.31 26.432C825.736 26.6667 826.067 27.0027 826.302 27.44C826.547 27.8667 826.67 28.368 826.67 28.944V34H825.502V29.28C825.502 28.5867 825.31 28.0427 824.926 27.648C824.552 27.2427 824.046 27.04 823.406 27.04C822.979 27.04 822.59 27.1413 822.238 27.344C821.886 27.5467 821.592 27.8453 821.358 28.24V34H820.19ZM831.434 34.16C830.794 34.16 830.202 34.064 829.658 33.872C829.114 33.6693 828.65 33.3813 828.266 33.008L828.89 32.24C829.359 32.5813 829.791 32.832 830.186 32.992C830.58 33.1413 830.986 33.216 831.402 33.216C831.967 33.216 832.436 33.0827 832.81 32.816C833.183 32.5493 833.37 32.208 833.37 31.792C833.37 31.472 833.258 31.2213 833.034 31.04C832.82 30.8587 832.463 30.72 831.962 30.624L830.682 30.4C829.924 30.2613 829.364 30.0267 829.002 29.696C828.65 29.3653 828.474 28.9173 828.474 28.352C828.474 27.904 828.591 27.5093 828.826 27.168C829.071 26.8267 829.407 26.56 829.834 26.368C830.26 26.1653 830.746 26.064 831.29 26.064C831.823 26.064 832.33 26.144 832.81 26.304C833.29 26.4533 833.775 26.6987 834.266 27.04L833.69 27.856C833.284 27.568 832.879 27.36 832.474 27.232C832.068 27.0933 831.658 27.024 831.242 27.024C830.73 27.024 830.319 27.136 830.01 27.36C829.7 27.584 829.546 27.888 829.546 28.272C829.546 28.592 829.642 28.8373 829.834 29.008C830.036 29.1787 830.388 29.3067 830.89 29.392L832.202 29.632C832.991 29.7707 833.567 30.0107 833.93 30.352C834.292 30.6933 834.474 31.152 834.474 31.728C834.474 32.1867 834.34 32.6027 834.074 32.976C833.807 33.3387 833.444 33.6267 832.986 33.84C832.527 34.0533 832.01 34.16 831.434 34.16ZM839.85 34.16C839.125 34.16 838.469 33.984 837.882 33.632C837.295 33.2693 836.831 32.784 836.49 32.176C836.149 31.5573 835.978 30.864 835.978 30.096C835.978 29.328 836.138 28.64 836.458 28.032C836.789 27.424 837.231 26.944 837.786 26.592C838.341 26.24 838.959 26.064 839.642 26.064C840.335 26.064 840.949 26.24 841.482 26.592C842.026 26.9333 842.453 27.4027 842.762 28C843.082 28.5867 843.242 29.2533 843.242 30V30.352H837.114C837.157 30.8853 837.301 31.3653 837.546 31.792C837.802 32.208 838.133 32.5387 838.538 32.784C838.954 33.0187 839.407 33.136 839.898 33.136C840.303 33.136 840.693 33.0667 841.066 32.928C841.45 32.7787 841.775 32.5813 842.042 32.336L842.778 33.12C842.33 33.472 841.866 33.7333 841.386 33.904C840.906 34.0747 840.394 34.16 839.85 34.16ZM837.146 29.52H842.09C842.037 29.0507 841.893 28.6347 841.658 28.272C841.434 27.8987 841.146 27.6053 840.794 27.392C840.453 27.1787 840.069 27.072 839.642 27.072C839.215 27.072 838.826 27.1787 838.474 27.392C838.122 27.5947 837.829 27.8827 837.594 28.256C837.37 28.6187 837.221 29.04 837.146 29.52ZM848.74 34.128C848.015 34.128 847.359 33.952 846.772 33.6C846.196 33.2373 845.738 32.752 845.396 32.144C845.055 31.5253 844.884 30.8427 844.884 30.096C844.884 29.3387 845.055 28.656 845.396 28.048C845.738 27.44 846.196 26.96 846.772 26.608C847.359 26.2453 848.015 26.064 848.74 26.064C849.316 26.064 849.866 26.1707 850.388 26.384C850.911 26.5973 851.364 26.896 851.748 27.28L850.996 28.096C850.719 27.7867 850.383 27.5467 849.988 27.376C849.594 27.2053 849.194 27.12 848.788 27.12C848.276 27.12 847.812 27.2533 847.396 27.52C846.991 27.7867 846.666 28.144 846.42 28.592C846.175 29.04 846.052 29.5413 846.052 30.096C846.052 30.6507 846.175 31.152 846.42 31.6C846.666 32.048 846.991 32.4053 847.396 32.672C847.812 32.9387 848.276 33.072 848.788 33.072C849.194 33.072 849.594 32.9867 849.988 32.816C850.383 32.6347 850.719 32.3947 850.996 32.096L851.748 32.912C851.364 33.296 850.911 33.5947 850.388 33.808C849.866 34.0213 849.316 34.128 848.74 34.128ZM856.509 34.16C855.837 34.16 855.325 34 854.973 33.68C854.632 33.3493 854.461 32.8747 854.461 32.256V27.152H852.845V26.192H854.461V24.048L855.629 23.776V26.192H857.869V27.152H855.629V31.952C855.629 32.368 855.715 32.6667 855.885 32.848C856.067 33.0293 856.36 33.12 856.765 33.12C856.968 33.12 857.149 33.104 857.309 33.072C857.469 33.04 857.656 32.9867 857.869 32.912V33.952C857.656 34.0267 857.432 34.08 857.197 34.112C856.963 34.144 856.733 34.16 856.509 34.16ZM862.944 34.16C862.219 34.16 861.563 33.984 860.976 33.632C860.389 33.2693 859.925 32.784 859.584 32.176C859.243 31.5573 859.072 30.864 859.072 30.096C859.072 29.328 859.232 28.64 859.552 28.032C859.883 27.424 860.325 26.944 860.88 26.592C861.435 26.24 862.053 26.064 862.736 26.064C863.429 26.064 864.043 26.24 864.576 26.592C865.12 26.9333 865.547 27.4027 865.856 28C866.176 28.5867 866.336 29.2533 866.336 30V30.352H860.208C860.251 30.8853 860.395 31.3653 860.64 31.792C860.896 32.208 861.227 32.5387 861.632 32.784C862.048 33.0187 862.501 33.136 862.992 33.136C863.397 33.136 863.787 33.0667 864.16 32.928C864.544 32.7787 864.869 32.5813 865.136 32.336L865.872 33.12C865.424 33.472 864.96 33.7333 864.48 33.904C864 34.0747 863.488 34.16 862.944 34.16ZM860.24 29.52H865.184C865.131 29.0507 864.987 28.6347 864.752 28.272C864.528 27.8987 864.24 27.6053 863.888 27.392C863.547 27.1787 863.163 27.072 862.736 27.072C862.309 27.072 861.92 27.1787 861.568 27.392C861.216 27.5947 860.923 27.8827 860.688 28.256C860.464 28.6187 860.315 29.04 860.24 29.52ZM871.072 34.16C870.4 34.16 869.888 34 869.536 33.68C869.194 33.3493 869.024 32.8747 869.024 32.256V27.152H867.408V26.192H869.024V24.048L870.192 23.776V26.192H872.432V27.152H870.192V31.952C870.192 32.368 870.277 32.6667 870.448 32.848C870.629 33.0293 870.922 33.12 871.328 33.12C871.53 33.12 871.712 33.104 871.872 33.072C872.032 33.04 872.218 32.9867 872.432 32.912V33.952C872.218 34.0267 871.994 34.08 871.76 34.112C871.525 34.144 871.296 34.16 871.072 34.16ZM876.927 34.128C876.372 34.128 875.881 34.0053 875.455 33.76C875.028 33.5147 874.692 33.1733 874.447 32.736C874.212 32.2987 874.095 31.7973 874.095 31.232V26.192H875.279V30.896C875.279 31.5893 875.465 32.1387 875.839 32.544C876.212 32.9493 876.719 33.152 877.359 33.152C877.796 33.152 878.185 33.0507 878.527 32.848C878.879 32.6453 879.172 32.352 879.407 31.968V26.192H880.575V34H879.407V32.736C879.108 33.1947 878.751 33.5413 878.335 33.776C877.929 34.0107 877.46 34.128 876.927 34.128ZM882.971 34V26.192H884.139V27.792C884.341 27.248 884.629 26.8267 885.003 26.528C885.387 26.2187 885.824 26.064 886.315 26.064C886.453 26.064 886.581 26.0747 886.699 26.096C886.816 26.1067 886.933 26.1333 887.051 26.176V27.232C886.923 27.1893 886.784 27.1573 886.635 27.136C886.496 27.104 886.363 27.088 886.235 27.088C885.755 27.088 885.333 27.2267 884.971 27.504C884.619 27.7813 884.341 28.1707 884.139 28.672V34H882.971Z" fill="#4D4D4D"/>
</svg>
