<svg xmlns="http://www.w3.org/2000/svg" width="81" height="36" viewBox="0 0 81 36"><defs><style>.a{fill:#e00;}.b{fill:#fff;}</style></defs><g transform="translate(-1238 -227)"><rect class="a" width="81" height="36" rx="3" transform="translate(1238 227)"/><path class="b" d="M.448-1.84a6.318,6.318,0,0,0,4.576,2C7.776.16,9.3-1.424,9.3-3.216c0-1.648-.96-2.576-3.408-3.008L4.1-6.528C2.72-6.768,1.984-7.2,1.984-8.3c0-1.392,1.344-2,2.672-2a5.937,5.937,0,0,1,3.728,1.36l.72-.928a7.091,7.091,0,0,0-4.416-1.472C2.64-11.344.8-10.32.8-8.208c0,1.584.944,2.432,2.96,2.784l1.808.3c1.808.32,2.5.848,2.5,1.968C8.064-1.9,6.912-.9,5.072-.9A5.393,5.393,0,0,1,1.216-2.7ZM10.944-3.9A3.907,3.907,0,0,0,14.816.144,4.5,4.5,0,0,0,17.744-.9l-.736-.8a3.191,3.191,0,0,1-2.144.8A2.81,2.81,0,0,1,12.1-3.664h6.128V-4A3.7,3.7,0,0,0,14.64-7.936,3.812,3.812,0,0,0,10.944-3.9Zm3.68-3.008A2.572,2.572,0,0,1,17.056-4.48H12.128A2.581,2.581,0,0,1,14.624-6.912ZM22.448.144A3.321,3.321,0,0,0,24.928-.9V0H26.08V-5.184c0-1.808-1.12-2.752-3.024-2.752a6.539,6.539,0,0,0-2.944.752l.448.9a5.037,5.037,0,0,1,2.352-.672c1.312,0,2.016.624,2.016,1.936v1.056A4.683,4.683,0,0,0,22.56-4.56c-1.7,0-2.928.864-2.928,2.3C19.632-.832,20.8.144,22.448.144Zm-1.7-2.416c0-.912.832-1.456,1.968-1.456a4.052,4.052,0,0,1,2.208.576v1.5a3.116,3.116,0,0,1-2.24.9C21.552-.752,20.752-1.36,20.752-2.272ZM28.4,0h1.168V-5.344a2.2,2.2,0,0,1,2.1-1.584,2.768,2.768,0,0,1,.816.144V-7.84a2.3,2.3,0,0,0-.736-.112,2.321,2.321,0,0,0-2.176,1.7V-7.808H28.4Zm8.592-.912A2.817,2.817,0,0,1,34.272-3.9a2.832,2.832,0,0,1,2.72-2.976,2.983,2.983,0,0,1,2.144.976l.752-.816a4.146,4.146,0,0,0-2.912-1.216A3.912,3.912,0,0,0,33.1-3.9,3.926,3.926,0,0,0,36.976.144,3.955,3.955,0,0,0,39.84-1.12l-.72-.72A2.791,2.791,0,0,1,36.992-.912ZM46.88,0h1.168V-5.056a2.722,2.722,0,0,0-2.816-2.88,2.813,2.813,0,0,0-2.5,1.408V-11.44l-1.168.24V0h1.168V-5.76a2.32,2.32,0,0,1,2.048-1.2,2.023,2.023,0,0,1,2.1,2.24Z" transform="translate(1254 251)"/></g></svg>