<svg xmlns="http://www.w3.org/2000/svg" width="340" height="36"><defs><style>.b{fill:#fff}.d{fill:#6a6e73}</style></defs><g transform="translate(-979 -227)"><rect width="81" height="36" rx="3" transform="translate(1238 227)" fill="#e00"/><path class="b" d="M1254.448 249.16a6.318 6.318 0 004.576 2c2.752 0 4.276-1.584 4.276-3.376 0-1.648-.96-2.576-3.408-3.008l-1.792-.304c-1.38-.24-2.116-.672-2.116-1.772 0-1.392 1.344-2 2.672-2a5.937 5.937 0 013.728 1.36l.72-.928a7.091 7.091 0 00-4.416-1.472c-2.048-.004-3.888 1.02-3.888 3.132 0 1.584.944 2.432 2.96 2.784l1.808.3c1.808.32 2.5.848 2.5 1.968-.004 1.256-1.156 2.256-2.996 2.256a5.393 5.393 0 01-3.856-1.8zm10.496-2.06a3.907 3.907 0 003.872 4.044 4.5 4.5 0 002.928-1.044l-.736-.8a3.191 3.191 0 01-2.144.8 2.81 2.81 0 01-2.764-2.764h6.128V247a3.7 3.7 0 00-3.588-3.936 3.812 3.812 0 00-3.696 4.036zm3.68-3.008a2.572 2.572 0 012.432 2.428h-4.928a2.581 2.581 0 012.496-2.432zm7.824 7.052a3.321 3.321 0 002.48-1.044v.9h1.152v-5.184c0-1.808-1.12-2.752-3.024-2.752a6.539 6.539 0 00-2.944.752l.448.9a5.037 5.037 0 012.352-.672c1.312 0 2.016.624 2.016 1.936v1.056a4.683 4.683 0 00-2.368-.596c-1.7 0-2.928.864-2.928 2.3 0 1.428 1.168 2.404 2.816 2.404zm-1.7-2.416c0-.912.832-1.456 1.968-1.456a4.052 4.052 0 012.208.576v1.5a3.116 3.116 0 01-2.24.9c-1.132 0-1.932-.608-1.932-1.52zM1282.4 251h1.168v-5.344a2.2 2.2 0 012.1-1.584 2.768 2.768 0 01.816.144v-1.056a2.3 2.3 0 00-.736-.112 2.321 2.321 0 00-2.176 1.7v-1.556h-1.172zm8.592-.912a2.817 2.817 0 01-2.72-2.988 2.832 2.832 0 012.72-2.976 2.983 2.983 0 012.144.976l.752-.816a4.146 4.146 0 00-2.912-1.216 3.912 3.912 0 00-3.876 4.032 3.926 3.926 0 003.876 4.044 3.955 3.955 0 002.864-1.264l-.72-.72a2.791 2.791 0 01-2.128.928zm9.888.912h1.168v-5.056a2.722 2.722 0 00-2.816-2.88 2.813 2.813 0 00-2.5 1.408v-4.912l-1.168.24V251h1.168v-5.76a2.32 2.32 0 012.048-1.2 2.023 2.023 0 012.1 2.24z"/></g><path class="b" d="M0 0h243v36H0z"/><path d="M.5.5h242v35H.5z" fill="none" stroke="#d2d2d2"/><path class="d" d="M0 35h243v1H0zM8.448 22.16a6.318 6.318 0 004.576 2c2.752 0 4.276-1.584 4.276-3.376 0-1.648-.96-2.576-3.408-3.008l-1.792-.304c-1.38-.24-2.116-.672-2.116-1.772 0-1.392 1.344-2 2.672-2a5.937 5.937 0 013.728 1.36l.72-.928a7.091 7.091 0 00-4.416-1.472C10.64 12.656 8.8 13.68 8.8 15.792c0 1.584.944 2.432 2.96 2.784l1.808.3c1.808.32 2.5.848 2.5 1.968-.004 1.256-1.156 2.256-2.996 2.256a5.393 5.393 0 01-3.856-1.8zm10.496-2.06a3.907 3.907 0 003.872 4.044 4.5 4.5 0 002.928-1.044l-.736-.8a3.191 3.191 0 01-2.144.8 2.81 2.81 0 01-2.764-2.764h6.128V20a3.7 3.7 0 00-3.588-3.936 3.812 3.812 0 00-3.696 4.036zm3.68-3.008a2.572 2.572 0 012.432 2.428h-4.928a2.581 2.581 0 012.496-2.432zm7.824 7.052a3.321 3.321 0 002.48-1.044v.9h1.152v-5.184c0-1.808-1.12-2.752-3.024-2.752a6.539 6.539 0 00-2.944.752l.448.9a5.037 5.037 0 012.352-.672c1.312 0 2.016.624 2.016 1.936v1.056a4.683 4.683 0 00-2.368-.596c-1.7 0-2.928.864-2.928 2.3 0 1.428 1.168 2.404 2.816 2.404zm-1.7-2.416c0-.912.832-1.456 1.968-1.456a4.052 4.052 0 012.208.576v1.5a3.116 3.116 0 01-2.24.9c-1.132 0-1.932-.608-1.932-1.52zM36.4 24h1.168v-5.344a2.2 2.2 0 012.1-1.584 2.768 2.768 0 01.816.144V16.16a2.3 2.3 0 00-.736-.112 2.321 2.321 0 00-2.176 1.7v-1.556H36.4zm8.592-.912a2.817 2.817 0 01-2.72-2.988 2.832 2.832 0 012.72-2.976 2.983 2.983 0 012.144.976l.752-.816a4.146 4.146 0 00-2.912-1.216A3.912 3.912 0 0041.1 20.1a3.926 3.926 0 003.876 4.044 3.955 3.955 0 002.864-1.264l-.72-.72a2.791 2.791 0 01-2.128.928zM54.88 24h1.168v-5.056a2.722 2.722 0 00-2.816-2.88 2.813 2.813 0 00-2.5 1.408V12.56l-1.168.24V24h1.168v-5.76a2.32 2.32 0 012.048-1.2 2.023 2.023 0 012.1 2.24zm9.632.144a3.321 3.321 0 002.48-1.044v.9h1.152v-5.184c0-1.808-1.12-2.752-3.024-2.752a6.539 6.539 0 00-2.944.752l.448.9a5.037 5.037 0 012.352-.672c1.312 0 2.016.624 2.016 1.936v1.056a4.683 4.683 0 00-2.368-.592c-1.7 0-2.928.864-2.928 2.3.004 1.424 1.168 2.4 2.816 2.4zm-1.7-2.416c0-.912.832-1.456 1.968-1.456a4.052 4.052 0 012.208.576v1.5a3.116 3.116 0 01-2.24.9c-1.132 0-1.932-.608-1.932-1.52zm8.816-9.168l-1.168.24V24h1.168zm3.488 0l-1.168.24V24h1.172zM81.168 24h1.168v-5.344a2.2 2.2 0 012.1-1.584 2.768 2.768 0 01.816.144V16.16a2.3 2.3 0 00-.736-.112 2.321 2.321 0 00-2.176 1.7v-1.556h-1.172zm4.7-3.9a3.907 3.907 0 003.876 4.044 4.5 4.5 0 002.928-1.044l-.736-.8a3.191 3.191 0 01-2.144.8 2.81 2.81 0 01-2.768-2.768h6.128V20a3.7 3.7 0 00-3.584-3.936 3.812 3.812 0 00-3.696 4.036zm3.68-3.008a2.572 2.572 0 012.436 2.428h-4.928a2.581 2.581 0 012.496-2.432zm4.864 5.824a4.33 4.33 0 003.188 1.228c1.76 0 3.04-1.088 3.024-2.416.016-1.184-.736-1.824-2.272-2.1l-1.3-.24c-.96-.176-1.36-.448-1.36-1.12 0-.768.72-1.248 1.7-1.248a3.943 3.943 0 012.416.88l.624-.8a4.858 4.858 0 00-2.992-1.04c-1.648 0-2.816.96-2.816 2.288 0 1.168.752 1.792 2.208 2.048l1.3.224c.976.176 1.392.512 1.392 1.168 0 .768-.7 1.408-1.968 1.408a3.5 3.5 0 01-2.464-1.024zm7.652-2.816a3.867 3.867 0 003.792 4.06 3.873 3.873 0 003.824-4.06 3.845 3.845 0 00-3.824-4.032 3.839 3.839 0 00-3.792 4.032zm6.448.016a2.756 2.756 0 01-2.656 3.004 2.742 2.742 0 01-2.624-3.008 2.767 2.767 0 012.624-3.024 2.771 2.771 0 012.656 3.024zm4.3-3.92h-1.168v5.056a2.722 2.722 0 002.816 2.88 2.813 2.813 0 002.5-1.408V24h1.168v-7.808h-1.168v5.76a2.32 2.32 0 01-2.048 1.2 2.023 2.023 0 01-2.1-2.24zm7.62 7.804h1.168v-5.344a2.2 2.2 0 012.1-1.584 2.768 2.768 0 01.816.144V16.16a2.3 2.3 0 00-.736-.112 2.321 2.321 0 00-2.176 1.7v-1.556h-1.168zm8.592-.912A2.817 2.817 0 01126.3 20.1a2.832 2.832 0 012.72-2.976 2.983 2.983 0 012.144.976l.752-.816a4.146 4.146 0 00-2.912-1.216 3.912 3.912 0 00-3.868 4.032 3.926 3.926 0 003.872 4.044 3.955 3.955 0 002.864-1.264l-.72-.72a2.791 2.791 0 01-2.128.928zm3.92-2.992a3.907 3.907 0 003.872 4.048 4.5 4.5 0 002.928-1.044l-.736-.8a3.191 3.191 0 01-2.144.8 2.81 2.81 0 01-2.764-2.764h6.128V20a3.7 3.7 0 00-3.584-3.936 3.812 3.812 0 00-3.7 4.036zm3.68-3.008a2.572 2.572 0 012.432 2.432h-4.928a2.581 2.581 0 012.496-2.432zm4.864 5.824a4.33 4.33 0 003.184 1.232c1.76 0 3.04-1.088 3.024-2.416.016-1.184-.736-1.824-2.272-2.1l-1.3-.24c-.96-.176-1.36-.448-1.36-1.12 0-.768.72-1.248 1.7-1.248a3.943 3.943 0 012.416.88l.624-.8a4.858 4.858 0 00-2.992-1.04c-1.648 0-2.816.96-2.816 2.288 0 1.168.752 1.792 2.208 2.048l1.3.224c.976.176 1.392.512 1.392 1.168 0 .768-.7 1.408-1.968 1.408a3.5 3.5 0 01-2.464-1.024z"/></svg>