<svg xmlns="http://www.w3.org/2000/svg" width="872" height="104" viewBox="0 0 872 104"><g transform="translate(-424 -3674)"><g transform="translate(64 3515)"><g transform="translate(-87)"><rect width="81" height="36" rx="3" transform="translate(1238 227)" fill="#e00"/><text transform="translate(1254 251)" fill="#fff" font-size="16" font-family="RedHatText-Regular, Red Hat Text"><tspan x="0" y="0">Search</tspan></text></g><g transform="translate(360 227)" fill="#fff" stroke="#d2d2d2" stroke-width="1"><rect width="775" height="36" stroke="none"/><rect x="0.5" y="0.5" width="774" height="35" fill="none"/></g><rect width="775" height="1" transform="translate(360 262)" fill="#6a6e73"/><rect width="1" height="21" transform="translate(409 235)" fill="#151515"/><text transform="translate(368 251)" fill="#151515" font-size="16" font-family="RedHatText-Regular, Red Hat Text"><tspan x="0" y="0">Linux</tspan></text></g><g transform="translate(64 3447)"><g transform="translate(-87)"><rect width="81" height="36" rx="3" transform="translate(1238 227)" fill="#e00"/><text transform="translate(1254 251)" fill="#fff" font-size="16" font-family="RedHatText-Regular, Red Hat Text"><tspan x="0" y="0">Search</tspan></text></g><g transform="translate(360 227)" fill="#fff" stroke="#d2d2d2" stroke-width="1"><rect width="775" height="36" stroke="none"/><rect x="0.5" y="0.5" width="774" height="35" fill="none"/></g><rect width="775" height="1" transform="translate(360 262)" fill="#6a6e73"/><text transform="translate(368 251)" fill="#6a6e73" font-size="16" font-family="RedHatText-Regular, Red Hat Text"><tspan x="0" y="0">Enter your search term</tspan></text></g></g></svg>