<svg xmlns="http://www.w3.org/2000/svg" width="1000" height="142"><path fill="#d2d2d2" d="M424 52h576v1H424z"/><g transform="translate(-319 -227)"><rect width="81" height="36" fill="#e00" rx="3" transform="translate(1238 227)"/><text fill="#fff" transform="translate(1254 251)" font-size="16" font-family="RedHatText, RedHatText"><tspan x="0" y="0">Search</tspan></text></g><g fill="#fff" stroke="#d2d2d2"><path stroke="none" d="M704 0h199v36H704z"/><path fill="none" d="M704.5.5h198v35h-198z"/></g><path fill="#6a6e73" d="M704 35h199v1H704z"/><text fill="#6a6e73" transform="translate(712 24)" font-size="16" font-family="RedHatText, RedHatText"><tspan x="0" y="0">Enter your search term</tspan></text><text fill="#151515" transform="translate(424 30)" font-size="20" font-family="RedHatDisplay-Medium, RedHatDisplay" font-weight="500"><tspan x="0" y="0">SEARCH</tspan></text><g fill="#fff" stroke="#d2d2d2" transform="translate(0 0)"><rect width="360" height="142" stroke="none" rx="3"/><rect width="359" height="141" x=".5" y=".5" fill="none" rx="2.5"/></g><g transform="translate(-991 -153)"><rect width="81" height="36" fill="#e00" rx="3" transform="translate(1238 227)"/><text fill="#fff" transform="translate(1254 251)" font-size="16" font-family="RedHatText, RedHatText"><tspan x="0" y="0">Search</tspan></text></g><g fill="#fff" stroke="#d2d2d2"><path stroke="none" d="M32 74h199v36H32z"/><path fill="none" d="M32.5 74.5h198v35h-198z"/></g><path fill="#6a6e73" d="M32 109h199v1H32z"/><text fill="#6a6e73" transform="translate(40 98)" font-size="16" font-family="RedHatText, RedHatText"><tspan x="0" y="0">Enter your search term</tspan></text><text fill="#151515" transform="translate(32 52)" font-size="20" font-family="RedHatDisplay-Medium, RedHatDisplay" font-weight="500"><tspan x="0" y="0">Search</tspan></text></svg>