<svg xmlns="http://www.w3.org/2000/svg" width="680" height="200"><g transform="translate(-520 -1010)"><path fill="none" d="M616 1171h14v14h-14z"/><path d="M624.9 1178l2.843-2.843a.894.894 0 000-1.264l-.632-.632a.894.894 0 00-1.264 0L623 1176.1l-2.843-2.838a.894.894 0 00-1.264 0l-.632.632a.894.894 0 000 1.264L621.1 1178l-2.838 2.843a.894.894 0 000 1.264l.632.632a.894.894 0 001.264 0L623 1179.9l2.843 2.843a.894.894 0 001.264 0l.632-.632a.894.894 0 000-1.264z" fill="#fff"/><g data-name="Play button" transform="translate(520 1146)" fill="#fff"><circle cx="32" cy="32" r="32" opacity=".25"/><path d="M44 32L24 42V22z"/></g><rect data-name="Rectangle" width="94" height="36" rx="3" transform="translate(1106 1078)" fill="#d2d2d2"/><path data-name="Path 42" d="M1123.424 1102h3.712a5.413 5.413 0 005.6-5.6 5.422 5.422 0 00-5.6-5.6h-3.712zm3.792-10.1a4.3 4.3 0 014.256 4.5 4.3 4.3 0 01-4.256 4.5h-2.56v-9zm8.176.32a.83.83 0 00.832-.848.826.826 0 00-.832-.832.826.826 0 00-.832.832.83.83 0 00.832.852zm.576 1.968h-1.168V1102h1.168zm1.584 6.72a4.33 4.33 0 003.184 1.236c1.76 0 3.04-1.088 3.024-2.416.016-1.184-.736-1.824-2.272-2.1l-1.3-.24c-.96-.176-1.36-.448-1.36-1.12 0-.768.72-1.248 1.7-1.248a3.943 3.943 0 012.416.88l.624-.8a4.858 4.858 0 00-2.992-1.04c-1.648 0-2.816.96-2.816 2.288 0 1.168.752 1.792 2.208 2.048l1.3.224c.976.176 1.392.512 1.392 1.168 0 .768-.7 1.408-1.968 1.408a3.5 3.5 0 01-2.464-1.024zm10.416 1.236a3.321 3.321 0 002.48-1.044v.9h1.152v-5.184c0-1.808-1.12-2.752-3.024-2.752a6.539 6.539 0 00-2.944.752l.448.9a5.037 5.037 0 012.352-.672c1.312 0 2.016.624 2.016 1.936v1.056a4.683 4.683 0 00-2.368-.596c-1.7 0-2.928.864-2.928 2.3 0 1.428 1.168 2.404 2.816 2.404zm-1.7-2.416c0-.912.832-1.456 1.968-1.456a4.052 4.052 0 012.208.576v1.5a3.116 3.116 0 01-2.24.9c-1.132 0-1.932-.608-1.932-1.52zm14.948-1.628a3.78 3.78 0 00-3.616-4 3.091 3.091 0 00-2.512 1.18v-4.72l-1.168.24v11.2h1.152v-1.024a3.081 3.081 0 002.464 1.136 3.8 3.8 0 003.68-4.012zm-3.9-2.976a2.8 2.8 0 012.736 2.992 2.791 2.791 0 01-2.74 2.984 2.767 2.767 0 01-2.224-1.088v-3.82a2.688 2.688 0 012.224-1.072zm7.04-4.56l-1.168.24V1102h1.168zm1.98 7.536a3.907 3.907 0 003.872 4.044 4.5 4.5 0 002.928-1.044l-.736-.8a3.191 3.191 0 01-2.144.8 2.81 2.81 0 01-2.768-2.768h6.128V1098a3.7 3.7 0 00-3.584-3.936 3.812 3.812 0 00-3.696 4.036zm3.68-3.008a2.572 2.572 0 012.432 2.428h-4.928a2.581 2.581 0 012.496-2.432zm11.312 6.908h1.172v-11.44l-1.184.24v4.368a3.2 3.2 0 00-2.416-1.068 3.8 3.8 0 00-3.68 4.016 3.78 3.78 0 003.616 4 3.139 3.139 0 002.5-1.168zm-4.944-3.9a2.775 2.775 0 012.716-2.98 2.813 2.813 0 012.208 1.04v3.888a2.7 2.7 0 01-2.208 1.04 2.789 2.789 0 01-2.716-2.988z" fill="#6a6e73"/><g transform="translate(633 856)"><rect data-name="Rectangle" width="81" height="36" rx="3" transform="translate(360 222)" fill="#e00"/><path data-name="Path 43" d="M376.448 244.16a6.318 6.318 0 004.576 2c2.752 0 4.276-1.584 4.276-3.376 0-1.648-.96-2.576-3.408-3.008l-1.792-.304c-1.38-.24-2.116-.672-2.116-1.772 0-1.392 1.344-2 2.672-2a5.937 5.937 0 013.728 1.36l.72-.928a7.091 7.091 0 00-4.416-1.472c-2.048-.004-3.888 1.02-3.888 3.132 0 1.584.944 2.432 2.96 2.784l1.808.3c1.808.32 2.5.848 2.5 1.968-.004 1.256-1.156 2.256-2.996 2.256a5.393 5.393 0 01-3.856-1.8zm10.496-2.06a3.907 3.907 0 003.872 4.044 4.5 4.5 0 002.928-1.044l-.736-.8a3.191 3.191 0 01-2.144.8 2.81 2.81 0 01-2.764-2.764h6.128V242a3.7 3.7 0 00-3.588-3.936 3.812 3.812 0 00-3.696 4.036zm3.68-3.008a2.572 2.572 0 012.432 2.428h-4.928a2.581 2.581 0 012.496-2.432zm7.824 7.052a3.321 3.321 0 002.48-1.044v.9h1.152v-5.184c0-1.808-1.12-2.752-3.024-2.752a6.539 6.539 0 00-2.944.752l.448.9a5.037 5.037 0 012.352-.672c1.312 0 2.016.624 2.016 1.936v1.056a4.683 4.683 0 00-2.368-.596c-1.7 0-2.928.864-2.928 2.3 0 1.428 1.168 2.404 2.816 2.404zm-1.7-2.416c0-.912.832-1.456 1.968-1.456a4.052 4.052 0 012.208.576v1.5a3.116 3.116 0 01-2.24.9c-1.132 0-1.932-.608-1.932-1.52zM404.4 246h1.168v-5.344a2.2 2.2 0 012.1-1.584 2.768 2.768 0 01.816.144v-1.056a2.3 2.3 0 00-.736-.112 2.321 2.321 0 00-2.176 1.7v-1.556H404.4zm8.592-.912a2.817 2.817 0 01-2.72-2.988 2.832 2.832 0 012.72-2.976 2.983 2.983 0 012.144.976l.752-.816a4.146 4.146 0 00-2.912-1.216 3.912 3.912 0 00-3.876 4.032 3.926 3.926 0 003.876 4.044 3.955 3.955 0 002.864-1.264l-.72-.72a2.791 2.791 0 01-2.128.928zm9.888.912h1.168v-5.056a2.722 2.722 0 00-2.816-2.88 2.813 2.813 0 00-2.5 1.408v-4.912l-1.168.24V246h1.168v-5.76a2.32 2.32 0 012.048-1.2 2.023 2.023 0 012.1 2.24z" fill="#fff"/></g><g data-name="Rectangle" transform="translate(874 1078)" fill="none" stroke="#fff"><rect width="87" height="36" rx="3" stroke="none"/><rect x=".5" y=".5" width="86" height="35" rx="2.5"/></g><path data-name="Path 44" d="M890.448 1091.888h3.872V1102h1.232v-10.112h3.856v-1.088h-8.96zm8.432 6.212a3.907 3.907 0 003.872 4.044 4.5 4.5 0 002.928-1.044l-.736-.8a3.191 3.191 0 01-2.144.8 2.81 2.81 0 01-2.768-2.768h6.128V1098a3.7 3.7 0 00-3.584-3.936 3.812 3.812 0 00-3.696 4.036zm3.68-3.008a2.572 2.572 0 012.432 2.428h-4.928a2.581 2.581 0 012.496-2.432zm5.52 6.908h1.168v-5.344a2.2 2.2 0 012.1-1.584 2.768 2.768 0 01.816.144v-1.056a2.3 2.3 0 00-.736-.112 2.321 2.321 0 00-2.176 1.7v-1.556h-1.172zm6.72-1.76c0 1.216.688 1.9 2.048 1.9a4.713 4.713 0 001.376-.208v-1.032a2.881 2.881 0 01-1.1.208c-.832 0-1.152-.336-1.152-1.168v-4.788h2.256v-.96h-2.26v-2.256l-1.168.272v1.984h-1.616v.96h1.616zm5.648-8.016a.83.83 0 00.832-.848.826.826 0 00-.832-.832.826.826 0 00-.832.832.83.83 0 00.832.848zm.576 1.968h-1.168V1102h1.168zm4.752 7.952a3.321 3.321 0 002.48-1.044v.9h1.152v-5.184c0-1.808-1.12-2.752-3.024-2.752a6.539 6.539 0 00-2.944.752l.448.9a5.037 5.037 0 012.352-.676c1.312 0 2.016.624 2.016 1.936v1.056a4.683 4.683 0 00-2.368-.592c-1.7 0-2.928.864-2.928 2.3 0 1.428 1.168 2.404 2.816 2.404zm-1.7-2.416c0-.912.832-1.456 1.968-1.456a4.052 4.052 0 012.208.576v1.5a3.116 3.116 0 01-2.24.9c-1.132 0-1.932-.608-1.932-1.52zm7.652 2.272h1.172v-5.344a2.2 2.2 0 012.1-1.584 2.768 2.768 0 01.816.144v-1.056a2.3 2.3 0 00-.736-.112 2.321 2.321 0 00-2.176 1.7v-1.556h-1.176zm7.5 1.088c-.32.8-.736.992-1.264.992a3.939 3.939 0 01-.64-.064v1.04a2.568 2.568 0 00.752.112c1.168 0 1.76-.5 2.24-1.728l3.808-9.248h-1.28l-2.508 6.432-2.368-6.432h-1.312l3.024 7.792z" fill="#fff"/><g data-name="Rectangle" transform="translate(733 1078)" fill="none" stroke="#2b9af3"><rect width="109" height="36" rx="3" stroke="none"/><rect x=".5" y=".5" width="108" height="35" rx="2.5"/></g><path data-name="Path 45" d="M749.448 1100.16a6.318 6.318 0 004.576 2c2.752 0 4.276-1.584 4.276-3.376 0-1.648-.96-2.576-3.408-3.008l-1.792-.304c-1.38-.24-2.116-.672-2.116-1.772 0-1.392 1.344-2 2.672-2a5.937 5.937 0 013.728 1.36l.72-.928a7.091 7.091 0 00-4.416-1.472c-2.048-.004-3.888 1.02-3.888 3.132 0 1.584.944 2.432 2.96 2.784l1.808.3c1.808.32 2.5.848 2.5 1.968-.004 1.256-1.156 2.256-2.996 2.256a5.393 5.393 0 01-3.856-1.8zm10.496-2.06a3.907 3.907 0 003.872 4.044 4.5 4.5 0 002.928-1.044l-.736-.8a3.191 3.191 0 01-2.144.8 2.81 2.81 0 01-2.764-2.764h6.128V1098a3.7 3.7 0 00-3.588-3.936 3.812 3.812 0 00-3.696 4.036zm3.68-3.008a2.572 2.572 0 012.432 2.428h-4.928a2.581 2.581 0 012.496-2.432zm9.088 6a2.817 2.817 0 01-2.72-2.992 2.832 2.832 0 012.72-2.976 2.983 2.983 0 012.144.976l.752-.816a4.146 4.146 0 00-2.908-1.22 3.912 3.912 0 00-3.876 4.036 3.926 3.926 0 003.876 4.044 3.955 3.955 0 002.86-1.264l-.72-.72a2.791 2.791 0 01-2.128.928zm3.92-2.992a3.867 3.867 0 003.792 4.06 3.873 3.873 0 003.824-4.06 3.845 3.845 0 00-3.824-4.032 3.839 3.839 0 00-3.792 4.032zm6.448.016a2.756 2.756 0 01-2.656 3.004 2.742 2.742 0 01-2.624-3.008 2.767 2.767 0 012.624-3.024 2.771 2.771 0 012.656 3.024zm3.136 3.884h1.168v-5.76a2.32 2.32 0 012.048-1.2 2.023 2.023 0 012.1 2.24v4.72h1.168v-5.056a2.722 2.722 0 00-2.816-2.88 2.813 2.813 0 00-2.5 1.408v-1.28h-1.168zm14.56 0h1.168v-11.44l-1.184.24v4.368a3.2 3.2 0 00-2.416-1.068 3.8 3.8 0 00-3.68 4.016 3.78 3.78 0 003.616 4 3.139 3.139 0 002.5-1.168zm-4.944-3.9a2.775 2.775 0 012.72-2.976 2.813 2.813 0 012.208 1.036v3.888a2.7 2.7 0 01-2.208 1.04 2.789 2.789 0 01-2.72-2.988zm10.848 4.044a3.321 3.321 0 002.48-1.044v.9h1.152v-5.184c0-1.808-1.12-2.752-3.024-2.752a6.539 6.539 0 00-2.944.752l.448.9a5.037 5.037 0 012.352-.672c1.312 0 2.016.624 2.016 1.936v1.056a4.683 4.683 0 00-2.368-.592c-1.7 0-2.928.864-2.928 2.3 0 1.424 1.168 2.4 2.816 2.4zm-1.7-2.416c0-.912.832-1.456 1.968-1.456a4.052 4.052 0 012.208.576v1.5a3.116 3.116 0 01-2.24.9c-1.132 0-1.932-.608-1.932-1.52zm7.652 2.272h1.168v-5.344a2.2 2.2 0 012.1-1.584 2.768 2.768 0 01.816.144v-1.056a2.3 2.3 0 00-.736-.112 2.321 2.321 0 00-2.176 1.7v-1.556h-1.172zm7.5 1.088c-.32.8-.736.992-1.264.992a3.939 3.939 0 01-.64-.064v1.04a2.568 2.568 0 00.752.112c1.168 0 1.76-.5 2.24-1.728l3.808-9.248h-1.28l-2.508 6.432-2.368-6.432h-1.312l3.024 7.792z" fill="#fff"/><g transform="translate(279 856)"><rect data-name="Rectangle" width="62" height="36" rx="3" transform="translate(360 222)" fill="none"/><path data-name="Path 46" d="M377.424 246h7.552v-1.088h-6.32V234.8h-1.232zm10.032-9.776a.83.83 0 00.832-.848.826.826 0 00-.832-.832.826.826 0 00-.832.832.83.83 0 00.832.848zm.576 1.968h-1.168V246h1.168zm2.32 7.808h1.168v-5.76a2.32 2.32 0 012.048-1.2 2.023 2.023 0 012.1 2.24V246h1.168v-5.056a2.722 2.722 0 00-2.816-2.88 2.813 2.813 0 00-2.5 1.408v-1.28h-1.168zm8.784 0h1.164v-3.728l3.764 3.728h1.552l-4.16-4.1 3.968-3.712h-1.408l-3.716 3.524v-7.152l-1.168.24z" fill="#73bcf7"/></g><g transform="translate(160 856)"><rect data-name="Rectangle" width="87" height="36" rx="3" transform="translate(360 222)" fill="#2b9af3"/><path data-name="Path 47" d="M377.424 246h1.232v-4.576h3.392a3.248 3.248 0 003.568-3.312 3.24 3.24 0 00-3.568-3.312h-4.624zm4.5-10.112a2.173 2.173 0 012.46 2.224 2.188 2.188 0 01-2.464 2.256h-3.264v-4.48zM387.616 246h1.168v-5.344a2.2 2.2 0 012.1-1.584 2.768 2.768 0 01.816.144v-1.056a2.3 2.3 0 00-.736-.112 2.321 2.321 0 00-2.176 1.7v-1.556h-1.172zm6.208-9.776a.83.83 0 00.832-.848.826.826 0 00-.832-.832.826.826 0 00-.832.832.83.83 0 00.832.848zm.576 1.968h-1.168V246h1.168zm2.32 7.808h1.168v-5.808a2.171 2.171 0 011.9-1.152 1.939 1.939 0 011.936 2.208V246h1.176v-5.04a3.238 3.238 0 00-.064-.688 2.2 2.2 0 011.948-1.232c1.216 0 1.916.86 1.916 2.208V246h1.184v-5.04a2.669 2.669 0 00-2.672-2.9 2.915 2.915 0 00-2.608 1.52 2.56 2.56 0 00-2.384-1.52 2.672 2.672 0 00-2.336 1.344v-1.212h-1.164zm15.9.144a3.321 3.321 0 002.48-1.044v.9h1.152v-5.184c0-1.808-1.12-2.752-3.024-2.752a6.539 6.539 0 00-2.944.752l.448.9a5.037 5.037 0 012.352-.672c1.312 0 2.016.624 2.016 1.936v1.056a4.683 4.683 0 00-2.368-.592c-1.7 0-2.928.864-2.928 2.3.004 1.424 1.172 2.4 2.82 2.4zm-1.7-2.416c0-.912.832-1.456 1.968-1.456a4.052 4.052 0 012.208.576v1.5a3.116 3.116 0 01-2.24.9c-1.128 0-1.928-.608-1.928-1.52zm7.656 2.272h1.168v-5.344a2.2 2.2 0 012.1-1.584 2.768 2.768 0 01.816.144v-1.056a2.3 2.3 0 00-.736-.112 2.321 2.321 0 00-2.176 1.7v-1.556h-1.172zm7.5 1.088c-.32.8-.736.992-1.264.992a3.939 3.939 0 01-.64-.064v1.04a2.568 2.568 0 00.752.112c1.168 0 1.76-.5 2.24-1.728l3.808-9.248H429.7l-2.516 6.432-2.368-6.432H423.5l3.028 7.792z" fill="#fff"/></g><g transform="translate(160 788)"><rect data-name="Rectangle" width="85" height="36" rx="3" transform="translate(360 222)" fill="#e74c3c"/><path data-name="Path 48" d="M377.424 246h3.712a5.413 5.413 0 005.6-5.6 5.422 5.422 0 00-5.6-5.6h-3.712zm3.792-10.1a4.3 4.3 0 014.256 4.5 4.3 4.3 0 01-4.256 4.5h-2.56v-9zm9.856 10.244a3.321 3.321 0 002.48-1.044v.9h1.148v-5.184c0-1.808-1.12-2.752-3.024-2.752a6.539 6.539 0 00-2.944.752l.448.9a5.037 5.037 0 012.352-.672c1.312 0 2.016.624 2.016 1.936v1.056a4.683 4.683 0 00-2.368-.592c-1.7 0-2.928.864-2.928 2.3.004 1.424 1.172 2.4 2.82 2.4zm-1.7-2.416c0-.912.832-1.456 1.968-1.456a4.052 4.052 0 012.208.576v1.5a3.116 3.116 0 01-2.24.9c-1.132 0-1.932-.608-1.932-1.52zm7.652 2.272h1.168v-5.76a2.32 2.32 0 012.048-1.2 2.023 2.023 0 012.1 2.24V246h1.16v-5.056a2.722 2.722 0 00-2.816-2.88 2.813 2.813 0 00-2.5 1.408v-1.28h-1.16zm12.064.112a3.153 3.153 0 002.48-1.136v1.28c0 1.312-.768 2-2.176 2a5.084 5.084 0 01-2.48-.72l-.5.9a6.078 6.078 0 003.04.816c2.112 0 3.28-1.056 3.28-3.008v-8.052h-1.148v.992a3.223 3.223 0 00-2.432-1.084 3.8 3.8 0 00-3.68 4.016 3.78 3.78 0 003.616 3.996zm-2.448-4.012a2.775 2.775 0 012.72-2.98 2.813 2.813 0 012.208 1.04v3.888a2.7 2.7 0 01-2.208 1.04 2.789 2.789 0 01-2.72-2.988zm8.064 0a3.907 3.907 0 003.872 4.044 4.5 4.5 0 002.924-1.044l-.736-.8a3.191 3.191 0 01-2.144.8 2.81 2.81 0 01-2.768-2.768h6.128V242a3.7 3.7 0 00-3.58-3.936 3.812 3.812 0 00-3.7 4.036zm3.68-3.008a2.572 2.572 0 012.432 2.428h-4.928a2.581 2.581 0 012.496-2.432zM423.9 246h1.168v-5.344a2.2 2.2 0 012.1-1.584 2.768 2.768 0 01.816.144v-1.056a2.3 2.3 0 00-.736-.112 2.321 2.321 0 00-2.176 1.7v-1.556H423.9z" fill="#fff"/></g></g></svg>