<svg xmlns="http://www.w3.org/2000/svg" width="462" height="56" viewBox="0 0 462 56">
  <g id="button-text-labels" transform="translate(-629 -4474)">
    <g id="Call_to_action" data-name="Call to action" transform="translate(395 2170)">
      <rect id="Rectangle" width="272" height="56" rx="3" transform="translate(424 2304)" fill="#e00"/>
      <path id="Path_38" data-name="Path 38" d="M.048-1.776,1.376-3.44A7.444,7.444,0,0,0,3.256-2.2a4.755,4.755,0,0,0,1.912.392,3.15,3.15,0,0,0,1.664-.384,1.161,1.161,0,0,0,.624-1.024,1.058,1.058,0,0,0-.424-.9,3.3,3.3,0,0,0-1.416-.48L3.392-4.976A3.822,3.822,0,0,1,1.208-5.984,2.732,2.732,0,0,1,.464-7.968a2.956,2.956,0,0,1,1.192-2.48A5.179,5.179,0,0,1,4.88-11.36a7.687,7.687,0,0,1,2.456.416A7.074,7.074,0,0,1,9.5-9.792L8.256-8.064A7,7,0,0,0,6.5-9.08,4.965,4.965,0,0,0,4.72-9.408a2.819,2.819,0,0,0-1.488.344,1.042,1.042,0,0,0-.56.92.959.959,0,0,0,.368.8,2.7,2.7,0,0,0,1.232.416l2.112.352a4.676,4.676,0,0,1,2.5,1.064,2.736,2.736,0,0,1,.84,2.088A3.108,3.108,0,0,1,8.44-.816,5.542,5.542,0,0,1,5.008.16,7.19,7.19,0,0,1,2.36-.352,7.5,7.5,0,0,1,.048-1.776Zm18.56.736a5.365,5.365,0,0,1-1.576.912,5.332,5.332,0,0,1-1.8.288,4.637,4.637,0,0,1-1.768-.336,4.467,4.467,0,0,1-1.424-.912A4.185,4.185,0,0,1,11.1-2.456a4.23,4.23,0,0,1-.344-1.7,4.367,4.367,0,0,1,.328-1.688,4.255,4.255,0,0,1,.9-1.376,4.2,4.2,0,0,1,1.368-.92A4.277,4.277,0,0,1,15.04-8.48a3.93,3.93,0,0,1,1.64.344,4.065,4.065,0,0,1,1.312.936,4.263,4.263,0,0,1,.864,1.416A5,5,0,0,1,19.168-4v.576H12.96a2.34,2.34,0,0,0,.864,1.264,2.437,2.437,0,0,0,1.5.48,2.951,2.951,0,0,0,1.024-.176,2.328,2.328,0,0,0,.816-.5ZM14.992-6.672a1.953,1.953,0,0,0-1.3.456,2.349,2.349,0,0,0-.752,1.224h4.08a2.412,2.412,0,0,0-.76-1.208A1.9,1.9,0,0,0,14.992-6.672ZM28.048-1.04a5.365,5.365,0,0,1-1.576.912,5.332,5.332,0,0,1-1.8.288A4.637,4.637,0,0,1,22.9-.176a4.467,4.467,0,0,1-1.424-.912,4.185,4.185,0,0,1-.944-1.368,4.23,4.23,0,0,1-.344-1.7,4.367,4.367,0,0,1,.328-1.688,4.255,4.255,0,0,1,.9-1.376,4.2,4.2,0,0,1,1.368-.92A4.277,4.277,0,0,1,24.48-8.48a3.93,3.93,0,0,1,1.64.344,4.065,4.065,0,0,1,1.312.936A4.263,4.263,0,0,1,28.3-5.784,5,5,0,0,1,28.608-4v.576H22.4a2.34,2.34,0,0,0,.864,1.264,2.437,2.437,0,0,0,1.5.48,2.951,2.951,0,0,0,1.024-.176,2.328,2.328,0,0,0,.816-.5ZM24.432-6.672a1.953,1.953,0,0,0-1.3.456,2.349,2.349,0,0,0-.752,1.224h4.08A2.412,2.412,0,0,0,25.7-6.2,1.9,1.9,0,0,0,24.432-6.672ZM36.864,0H34.752L32.464-8.336h2.08L35.92-2.944l1.664-5.392h1.84l1.648,5.392,1.376-5.392H44.5L42.192,0H40.1L38.48-5.328ZM45.52,0V-11.2l2.192-.48v4a3.467,3.467,0,0,1,1.064-.608A3.766,3.766,0,0,1,50.048-8.5a3.207,3.207,0,0,1,2.368.928,3.227,3.227,0,0,1,.928,2.384V0H51.152V-4.864a1.725,1.725,0,0,0-.472-1.264,1.682,1.682,0,0,0-1.256-.48,2.2,2.2,0,0,0-.984.216,1.935,1.935,0,0,0-.728.616V0ZM57.1.384l.128-.3L53.984-8.336H56.4l2.064,5.68,2.368-5.68H63.2L59.36.656A5.152,5.152,0,0,1,57.872,2.8a3.569,3.569,0,0,1-2.208.64q-.288,0-.552-.024a2.227,2.227,0,0,1-.424-.072V1.456a3.183,3.183,0,0,0,.336.048q.176.016.432.016a1.69,1.69,0,0,0,1-.288A1.939,1.939,0,0,0,57.1.384ZM66.9-4.16a4.23,4.23,0,0,1,.344-1.7,4.276,4.276,0,0,1,.944-1.376A4.418,4.418,0,0,1,69.6-8.16,4.535,4.535,0,0,1,71.344-8.5a4.535,4.535,0,0,1,1.744.336,4.418,4.418,0,0,1,1.416.92,4.276,4.276,0,0,1,.944,1.376,4.23,4.23,0,0,1,.344,1.7,4.23,4.23,0,0,1-.344,1.7A4.184,4.184,0,0,1,74.5-1.088a4.489,4.489,0,0,1-1.416.912A4.535,4.535,0,0,1,71.344.16,4.535,4.535,0,0,1,69.6-.176a4.489,4.489,0,0,1-1.416-.912,4.184,4.184,0,0,1-.944-1.368A4.23,4.23,0,0,1,66.9-4.16Zm4.448,2.416a2.172,2.172,0,0,0,1.632-.7,2.388,2.388,0,0,0,.672-1.712,2.408,2.408,0,0,0-.672-1.728,2.172,2.172,0,0,0-1.632-.7,2.172,2.172,0,0,0-1.632.7A2.408,2.408,0,0,0,69.04-4.16a2.388,2.388,0,0,0,.672,1.712A2.172,2.172,0,0,0,71.344-1.744Zm5.792,5.088V-8.336H79.3v.688a3.473,3.473,0,0,1,1.1-.6,4.019,4.019,0,0,1,1.264-.2,4.123,4.123,0,0,1,1.656.336,4.317,4.317,0,0,1,1.352.912,4.185,4.185,0,0,1,.9,1.36A4.308,4.308,0,0,1,85.9-4.16a4.219,4.219,0,0,1-.336,1.68,4.293,4.293,0,0,1-.912,1.36,4.164,4.164,0,0,1-1.368.9A4.367,4.367,0,0,1,81.6.112a4.291,4.291,0,0,1-1.192-.168,4.04,4.04,0,0,1-1.08-.488V3.344Zm4.176-9.92a3.007,3.007,0,0,0-1.1.2,2.423,2.423,0,0,0-.88.584v3.28a2.558,2.558,0,0,0,.872.56,2.966,2.966,0,0,0,1.112.208,2.363,2.363,0,0,0,1.728-.7,2.323,2.323,0,0,0,.7-1.72,2.31,2.31,0,0,0-.712-1.72A2.371,2.371,0,0,0,81.312-6.576ZM94.784-1.04a5.365,5.365,0,0,1-1.576.912,5.332,5.332,0,0,1-1.8.288A4.637,4.637,0,0,1,89.64-.176a4.467,4.467,0,0,1-1.424-.912,4.184,4.184,0,0,1-.944-1.368,4.23,4.23,0,0,1-.344-1.7,4.368,4.368,0,0,1,.328-1.688,4.256,4.256,0,0,1,.9-1.376,4.2,4.2,0,0,1,1.368-.92,4.277,4.277,0,0,1,1.688-.336,3.93,3.93,0,0,1,1.64.344,4.065,4.065,0,0,1,1.312.936,4.263,4.263,0,0,1,.864,1.416A5,5,0,0,1,95.344-4v.576H89.136A2.34,2.34,0,0,0,90-2.16a2.437,2.437,0,0,0,1.5.48,2.951,2.951,0,0,0,1.024-.176,2.328,2.328,0,0,0,.816-.5ZM91.168-6.672a1.953,1.953,0,0,0-1.3.456,2.349,2.349,0,0,0-.752,1.224H93.2A2.412,2.412,0,0,0,92.44-6.2,1.9,1.9,0,0,0,91.168-6.672ZM96.688,0V-8.336H98.88v.656a3.467,3.467,0,0,1,1.064-.608,3.766,3.766,0,0,1,1.272-.208,3.207,3.207,0,0,1,2.368.928,3.227,3.227,0,0,1,.928,2.384V0H102.32V-4.864a1.725,1.725,0,0,0-.472-1.264,1.682,1.682,0,0,0-1.256-.48,2.2,2.2,0,0,0-.984.216,1.935,1.935,0,0,0-.728.616V0Zm12-.992,1.088-1.456a6.63,6.63,0,0,0,1.392.712,3.913,3.913,0,0,0,1.312.232,2.46,2.46,0,0,0,1.176-.24.719.719,0,0,0,.44-.64.615.615,0,0,0-.248-.512,1.725,1.725,0,0,0-.792-.272l-1.6-.24a3.463,3.463,0,0,1-1.88-.8,2.111,2.111,0,0,1-.648-1.616,2.294,2.294,0,0,1,.944-1.92,4.066,4.066,0,0,1,2.528-.72,6.044,6.044,0,0,1,1.776.264,6.451,6.451,0,0,1,1.648.776l-1.056,1.408a6.706,6.706,0,0,0-1.312-.6,4.118,4.118,0,0,0-1.264-.2,1.784,1.784,0,0,0-.952.224.674.674,0,0,0-.36.592.6.6,0,0,0,.264.52,2.053,2.053,0,0,0,.872.264l1.6.24a3.379,3.379,0,0,1,1.88.8,2.079,2.079,0,0,1,.664,1.584,2.22,2.22,0,0,1-.28,1.1,2.816,2.816,0,0,1-.76.872,3.646,3.646,0,0,1-1.152.576,4.9,4.9,0,0,1-1.456.208,7.408,7.408,0,0,1-2.128-.3A4.977,4.977,0,0,1,108.688-.992Zm8.256-3.168a4.23,4.23,0,0,1,.344-1.7,4.276,4.276,0,0,1,.944-1.376,4.418,4.418,0,0,1,1.416-.92,4.535,4.535,0,0,1,1.744-.336,4.535,4.535,0,0,1,1.744.336,4.418,4.418,0,0,1,1.416.92,4.276,4.276,0,0,1,.944,1.376,4.23,4.23,0,0,1,.344,1.7,4.23,4.23,0,0,1-.344,1.7,4.184,4.184,0,0,1-.944,1.368,4.489,4.489,0,0,1-1.416.912,4.535,4.535,0,0,1-1.744.336,4.535,4.535,0,0,1-1.744-.336,4.489,4.489,0,0,1-1.416-.912,4.184,4.184,0,0,1-.944-1.368A4.23,4.23,0,0,1,116.944-4.16Zm4.448,2.416a2.172,2.172,0,0,0,1.632-.7A2.388,2.388,0,0,0,123.7-4.16a2.408,2.408,0,0,0-.672-1.728,2.172,2.172,0,0,0-1.632-.7,2.172,2.172,0,0,0-1.632.7,2.408,2.408,0,0,0-.672,1.728,2.388,2.388,0,0,0,.672,1.712A2.172,2.172,0,0,0,121.392-1.744Zm7.92-6.592v4.848a1.746,1.746,0,0,0,.472,1.28,1.682,1.682,0,0,0,1.256.48,2.24,2.24,0,0,0,1-.216,1.935,1.935,0,0,0,.728-.616V-8.336h2.192V0h-2.192V-.672a3.576,3.576,0,0,1-1.072.616,3.707,3.707,0,0,1-1.28.216,3.193,3.193,0,0,1-2.368-.936,3.254,3.254,0,0,1-.928-2.392V-8.336ZM136.672,0V-8.336h2.192v.912a2.645,2.645,0,0,1,.968-.824,2.8,2.8,0,0,1,1.256-.28,4.155,4.155,0,0,1,.536.056,1.122,1.122,0,0,1,.376.136v1.92a2.267,2.267,0,0,0-.528-.168,3.1,3.1,0,0,0-.592-.056,2.252,2.252,0,0,0-1.176.32,2.189,2.189,0,0,0-.84.928V0Zm10.192-1.76a2.482,2.482,0,0,0,1.048-.224,3.02,3.02,0,0,0,.936-.7l1.312,1.36a4.471,4.471,0,0,1-1.536,1.1,4.584,4.584,0,0,1-1.856.392,4.434,4.434,0,0,1-1.72-.336,4.32,4.32,0,0,1-1.392-.912,4.2,4.2,0,0,1-.92-1.368,4.317,4.317,0,0,1-.336-1.7,4.317,4.317,0,0,1,.336-1.7,4.3,4.3,0,0,1,.92-1.376,4.254,4.254,0,0,1,1.392-.92,4.434,4.434,0,0,1,1.72-.336,4.773,4.773,0,0,1,1.9.392,4.434,4.434,0,0,1,1.552,1.1L148.88-5.584a3.279,3.279,0,0,0-.96-.752,2.434,2.434,0,0,0-1.1-.256,2.08,2.08,0,0,0-1.592.7,2.457,2.457,0,0,0-.648,1.728,2.368,2.368,0,0,0,.664,1.712A2.17,2.17,0,0,0,146.864-1.76Zm11.584.72a5.365,5.365,0,0,1-1.576.912,5.332,5.332,0,0,1-1.8.288A4.637,4.637,0,0,1,153.3-.176a4.467,4.467,0,0,1-1.424-.912,4.184,4.184,0,0,1-.944-1.368,4.23,4.23,0,0,1-.344-1.7,4.367,4.367,0,0,1,.328-1.688,4.256,4.256,0,0,1,.9-1.376,4.2,4.2,0,0,1,1.368-.92,4.277,4.277,0,0,1,1.688-.336,3.93,3.93,0,0,1,1.64.344,4.065,4.065,0,0,1,1.312.936,4.263,4.263,0,0,1,.864,1.416A5,5,0,0,1,159.008-4v.576H152.8a2.34,2.34,0,0,0,.864,1.264,2.437,2.437,0,0,0,1.5.48,2.951,2.951,0,0,0,1.024-.176,2.328,2.328,0,0,0,.816-.5Zm-3.616-5.632a1.953,1.953,0,0,0-1.3.456,2.349,2.349,0,0,0-.752,1.224h4.08A2.412,2.412,0,0,0,156.1-6.2,1.9,1.9,0,0,0,154.832-6.672ZM167.264,0h-2.112l-2.288-8.336h2.08l1.376,5.392,1.664-5.392h1.84l1.648,5.392,1.376-5.392H174.9L172.592,0h-2.1L168.88-5.328Zm8.112-4.16a4.23,4.23,0,0,1,.344-1.7,4.275,4.275,0,0,1,.944-1.376,4.418,4.418,0,0,1,1.416-.92,4.535,4.535,0,0,1,1.744-.336,4.535,4.535,0,0,1,1.744.336,4.418,4.418,0,0,1,1.416.92,4.275,4.275,0,0,1,.944,1.376,4.23,4.23,0,0,1,.344,1.7,4.23,4.23,0,0,1-.344,1.7,4.184,4.184,0,0,1-.944,1.368,4.489,4.489,0,0,1-1.416.912,4.535,4.535,0,0,1-1.744.336,4.535,4.535,0,0,1-1.744-.336,4.489,4.489,0,0,1-1.416-.912,4.184,4.184,0,0,1-.944-1.368A4.23,4.23,0,0,1,175.376-4.16Zm4.448,2.416a2.172,2.172,0,0,0,1.632-.7,2.388,2.388,0,0,0,.672-1.712,2.408,2.408,0,0,0-.672-1.728,2.172,2.172,0,0,0-1.632-.7,2.172,2.172,0,0,0-1.632.7,2.408,2.408,0,0,0-.672,1.728,2.388,2.388,0,0,0,.672,1.712A2.172,2.172,0,0,0,179.824-1.744ZM185.616,0V-8.336h2.192v.912a2.645,2.645,0,0,1,.968-.824,2.8,2.8,0,0,1,1.256-.28,4.155,4.155,0,0,1,.536.056,1.122,1.122,0,0,1,.376.136v1.92a2.267,2.267,0,0,0-.528-.168,3.1,3.1,0,0,0-.592-.056,2.252,2.252,0,0,0-1.176.32,2.189,2.189,0,0,0-.84.928V0Zm6.512,0V-11.2l2.192-.48v6.864l3.6-3.52h2.48l-3.9,3.824L200.64,0h-2.8l-3.52-3.808V0Zm8.352-.992,1.088-1.456a6.63,6.63,0,0,0,1.392.712,3.913,3.913,0,0,0,1.312.232,2.46,2.46,0,0,0,1.176-.24.719.719,0,0,0,.44-.64.615.615,0,0,0-.248-.512,1.725,1.725,0,0,0-.792-.272l-1.6-.24a3.462,3.462,0,0,1-1.88-.8,2.111,2.111,0,0,1-.648-1.616,2.294,2.294,0,0,1,.944-1.92,4.066,4.066,0,0,1,2.528-.72,6.044,6.044,0,0,1,1.776.264,6.451,6.451,0,0,1,1.648.776L206.56-6.016a6.706,6.706,0,0,0-1.312-.6,4.118,4.118,0,0,0-1.264-.2,1.784,1.784,0,0,0-.952.224.674.674,0,0,0-.36.592.6.6,0,0,0,.264.52,2.054,2.054,0,0,0,.872.264l1.6.24a3.379,3.379,0,0,1,1.88.8,2.079,2.079,0,0,1,.664,1.584,2.22,2.22,0,0,1-.28,1.1,2.815,2.815,0,0,1-.76.872,3.646,3.646,0,0,1-1.152.576A4.9,4.9,0,0,1,204.3.16a7.408,7.408,0,0,1-2.128-.3A4.977,4.977,0,0,1,200.48-.992Z" transform="translate(456 2338)" fill="#fff"/>
    </g>
    <g id="Button" transform="translate(205 2180)">
      <rect id="Rectangle-2" data-name="Rectangle" width="126" height="36" rx="3" transform="translate(424 2304)" fill="#06c"/>
      <path id="Path_39" data-name="Path 39" d="M6.624-.944A4.485,4.485,0,0,1,2.144-5.6a4.478,4.478,0,0,1,4.448-4.656A4.489,4.489,0,0,1,10-8.688l.816-.848a5.6,5.6,0,0,0-4.224-1.84A5.676,5.676,0,0,0,.9-5.6,5.676,5.676,0,0,0,6.592.176a5.658,5.658,0,0,0,4.192-1.84l-.8-.816A4.388,4.388,0,0,1,6.624-.944ZM12.768,0h1.168V-5.344a2.2,2.2,0,0,1,2.1-1.584,2.768,2.768,0,0,1,.816.144V-7.84a2.3,2.3,0,0,0-.736-.112,2.321,2.321,0,0,0-2.176,1.7V-7.808H12.768Zm4.7-3.9A3.907,3.907,0,0,0,21.344.144,4.5,4.5,0,0,0,24.272-.9l-.736-.8a3.191,3.191,0,0,1-2.144.8,2.81,2.81,0,0,1-2.768-2.768h6.128V-4a3.7,3.7,0,0,0-3.584-3.936A3.812,3.812,0,0,0,17.472-3.9Zm3.68-3.008A2.572,2.572,0,0,1,23.584-4.48H18.656A2.581,2.581,0,0,1,21.152-6.912ZM28.976.144A3.321,3.321,0,0,0,31.456-.9V0h1.152V-5.184c0-1.808-1.12-2.752-3.024-2.752a6.539,6.539,0,0,0-2.944.752l.448.9A5.037,5.037,0,0,1,29.44-6.96c1.312,0,2.016.624,2.016,1.936v1.056a4.683,4.683,0,0,0-2.368-.592c-1.7,0-2.928.864-2.928,2.3C26.16-.832,27.328.144,28.976.144Zm-1.7-2.416c0-.912.832-1.456,1.968-1.456a4.052,4.052,0,0,1,2.208.576v1.5a3.116,3.116,0,0,1-2.24.9C28.08-.752,27.28-1.36,27.28-2.272Zm8.272.512c0,1.216.688,1.9,2.048,1.9a4.713,4.713,0,0,0,1.376-.208V-1.1a2.881,2.881,0,0,1-1.1.208c-.832,0-1.152-.336-1.152-1.168V-6.848h2.256v-.96H36.72v-2.256l-1.168.272v1.984H33.936v.96h1.616ZM40.016-3.9A3.907,3.907,0,0,0,43.888.144,4.5,4.5,0,0,0,46.816-.9l-.736-.8a3.191,3.191,0,0,1-2.144.8,2.81,2.81,0,0,1-2.768-2.768H47.3V-4a3.7,3.7,0,0,0-3.584-3.936A3.812,3.812,0,0,0,40.016-3.9ZM43.7-6.912A2.572,2.572,0,0,1,46.128-4.48H41.2A2.581,2.581,0,0,1,43.7-6.912ZM56.224.112A3.153,3.153,0,0,0,58.7-1.024V.256c0,1.312-.768,2-2.176,2a5.084,5.084,0,0,1-2.48-.72l-.5.9a6.078,6.078,0,0,0,3.04.816c2.112,0,3.28-1.056,3.28-3.008V-7.808H58.72v.992A3.223,3.223,0,0,0,56.288-7.9a3.8,3.8,0,0,0-3.68,4.016A3.78,3.78,0,0,0,56.224.112ZM53.776-3.9A2.775,2.775,0,0,1,56.5-6.88,2.813,2.813,0,0,1,58.7-5.84v3.888A2.7,2.7,0,0,1,56.5-.912,2.789,2.789,0,0,1,53.776-3.9Zm8.4,3.9h1.168V-5.344a2.2,2.2,0,0,1,2.1-1.584,2.768,2.768,0,0,1,.816.144V-7.84a2.3,2.3,0,0,0-.736-.112,2.321,2.321,0,0,0-2.176,1.7V-7.808H62.176Zm4.7-3.9A3.867,3.867,0,0,0,70.672.16,3.873,3.873,0,0,0,74.5-3.9a3.845,3.845,0,0,0-3.824-4.032A3.839,3.839,0,0,0,66.88-3.9Zm6.448.016A2.756,2.756,0,0,1,70.672-.88a2.742,2.742,0,0,1-2.624-3.008,2.767,2.767,0,0,1,2.624-3.024A2.771,2.771,0,0,1,73.328-3.888Zm4.3-3.92H76.464v5.056A2.722,2.722,0,0,0,79.28.128a2.813,2.813,0,0,0,2.5-1.408V0h1.168V-7.808H81.776v5.76a2.32,2.32,0,0,1-2.048,1.2,2.023,2.023,0,0,1-2.1-2.24ZM85.248,3.184h1.168V-.992a3.14,3.14,0,0,0,2.448,1.1A3.8,3.8,0,0,0,92.544-3.9a3.78,3.78,0,0,0-3.616-4A3.081,3.081,0,0,0,86.4-6.688v-1.12H85.248ZM88.64-6.88a2.8,2.8,0,0,1,2.736,2.992A2.791,2.791,0,0,1,88.64-.9a2.767,2.767,0,0,1-2.224-1.088V-5.808A2.688,2.688,0,0,1,88.64-6.88Z" transform="translate(440 2328)" fill="#fff"/>
    </g>
  </g>
</svg>
