<svg xml:space="preserve" id="sticky-card-best-practices-1_svg__Layer_1" x="0" y="0" version="1.1" viewBox="0 0 751 477" xmlns="http://www.w3.org/2000/svg">
  <style>
    .sticky-card-best-practices-1_svg__st0{fill:#fff}.sticky-card-best-practices-1_svg__st2{fill:#06c}.sticky-card-best-practices-1_svg__st3{enable-background:new}.sticky-card-best-practices-1_svg__st4{fill:#151515}
  </style>
  <path d="M10 0h738c1.7 0 3 1.3 3 3v471c0 1.7-1.3 3-3 3H10c-1.7 0-3-1.3-3-3V3c0-1.7 1.3-3 3-3z" class="sticky-card-best-practices-1_svg__st0"/>
  <path d="M6 64h259c1.7 0 3 1.3 3 3v343c0 1.7-1.3 3-3 3H6V64z" class="sticky-card-best-practices-1_svg__st0"/>
  <path fill="none" stroke="#d2d2d2" d="M7 64.5h258c1.4 0 2.5 1.1 2.5 2.5v343c0 1.4-1.1 2.5-2.5 2.5H7c-.3 0-.5-.2-.5-.5V65c0-.3.2-.5.5-.5z"/>
  <path d="m176 371-1.5 1.5 4.5 4.5h-10v2h10l-4.5 4.5 1.5 1.5 7-7-7-7z" class="sticky-card-best-practices-1_svg__st2"/>
  <g class="sticky-card-best-practices-1_svg__st3">
    <path d="M37.3 384.2c-3.7 0-6.7-2.8-6.7-6.5s2.9-6.5 6.6-6.5c2.1 0 4 .9 5.2 2.4l-1.8 1.7c-.9-1.1-2.1-1.6-3.4-1.6-2.3 0-4 1.8-4 4.1s1.7 4.1 4 4.1c1.8 0 3.2-1.1 3.5-2.6H37V377h6.5v.8c.1 3.6-2.5 6.4-6.2 6.4zm12.6 0c-2.8 0-5-2.1-5-4.9 0-2.7 2.1-4.9 4.8-4.9 2.7 0 4.6 2.2 4.6 5v.6h-7c.3 1.2 1.4 2 2.7 2 .8 0 1.6-.3 2.1-.8l1.6 1.5c-1.2 1.1-2.3 1.5-3.8 1.5zm-2.6-5.8h4.6c-.3-1.1-1.2-1.9-2.3-1.9-1.1 0-2 .7-2.3 1.9zm9.4-1.7h-1.9v-2.1h1.9v-2.4l2.5-.6v3h2.7v2.1h-2.7v4.2c0 .9.3 1.2 1.3 1.2.5 0 .8-.1 1.3-.2v2c-.5.2-1.4.3-1.9.3-2.1 0-3.2-1-3.2-2.8v-4.7zm11.3 0h-1.9v-2.1H68v-2.4l2.5-.6v3h2.7v2.1h-2.7v4.2c0 .9.3 1.2 1.3 1.2.5 0 .8-.1 1.3-.2v2c-.5.2-1.4.3-1.9.3-2.1 0-3.2-1-3.2-2.8v-4.7zm6.3-5.3 2.5-.5v4.5c.7-.6 1.6-.9 2.6-.9 2.2 0 3.7 1.5 3.7 3.7v5.8h-2.5v-5.5c0-1.2-.8-2-1.9-2-.8 0-1.5.3-1.9.9v6.5h-2.5v-12.5zm15.3 12.8c-2.8 0-5-2.1-5-4.9 0-2.7 2.1-4.9 4.8-4.9 2.7 0 4.6 2.2 4.6 5v.6h-7c.3 1.2 1.4 2 2.7 2 .8 0 1.6-.3 2.1-.8l1.6 1.5c-1.1 1.1-2.3 1.5-3.8 1.5zm-2.6-5.8h4.6c-.3-1.1-1.2-1.9-2.3-1.9-1.1 0-2 .7-2.3 1.9zm16.8 5.8c-2.8 0-5-2.1-5-4.9 0-2.7 2.1-4.9 4.8-4.9 2.7 0 4.6 2.2 4.6 5v.6h-7c.3 1.2 1.4 2 2.7 2 .8 0 1.6-.3 2.1-.8l1.6 1.5c-1.2 1.1-2.3 1.5-3.8 1.5zm-2.6-5.8h4.6c-.3-1.1-1.2-1.9-2.3-1.9-1.1 0-2 .7-2.3 1.9zm15.2-.6v2.1h-6.8v-2.1h6.8zm6.8 6.3c-.9 0-1.8-.3-2.6-.8v.6h-2.4v-12.6l2.5-.5v4.5c.7-.6 1.7-.9 2.6-.9 2.7 0 4.8 2.1 4.8 4.8-.1 2.8-2.2 4.9-4.9 4.9zm-2.6-6.6v3.7c.5.5 1.3.9 2.2.9 1.5 0 2.7-1.2 2.7-2.7 0-1.5-1.2-2.7-2.7-2.7-.9-.1-1.6.2-2.2.8zm13.5-3.1c2.8 0 5 2.1 5 4.9 0 2.7-2.2 4.9-5 4.9s-5-2.1-5-4.9c0-2.7 2.2-4.9 5-4.9zm2.6 4.9c0-1.5-1.1-2.7-2.6-2.7-1.4 0-2.6 1.2-2.6 2.7 0 1.5 1.1 2.7 2.6 2.7s2.6-1.2 2.6-2.7zm8.6-4.9c2.8 0 5 2.1 5 4.9 0 2.7-2.2 4.9-5 4.9s-5-2.1-5-4.9c0-2.7 2.2-4.9 5-4.9zm2.6 4.9c0-1.5-1.1-2.7-2.6-2.7-1.4 0-2.6 1.2-2.6 2.7 0 1.5 1.1 2.7 2.6 2.7s2.6-1.2 2.6-2.7zm3.9-7.9 2.5-.5v7.7l4.1-4h2.8l-4.4 4.3 4.7 5.1h-3.2l-4-4.3v4.3h-2.5v-12.6z" class="sticky-card-best-practices-1_svg__st2"/>
  </g>
  <g class="sticky-card-best-practices-1_svg__st3">
    <path d="M30.4 261.8h9v1.1h-3.9V273h-1.2v-10.1h-3.9v-1.1zm10.7-.2 1.2-.2v5.1c.6-.9 1.4-1.4 2.5-1.4 1.7 0 2.8 1.2 2.8 2.9v5.1h-1.2v-4.7c0-1.4-.8-2.2-2.1-2.2-.9 0-1.6.4-2 1.2v5.8h-1.2v-11.6zm8.5.8c0-.4.4-.8.8-.8s.8.4.8.8c0 .5-.4.8-.8.8-.4.1-.8-.3-.8-.8zm1.5 10.6h-1.2v-7.8h1.2v7.8zm2.2-1.8c.9.7 1.7 1 2.5 1 1.1 0 2-.6 2-1.4 0-.6-.4-1-1.4-1.2l-1.3-.2c-1.5-.3-2.2-.9-2.2-2 0-1.3 1.2-2.3 2.8-2.3 1.1 0 2 .3 3 1l-.6.8c-.8-.6-1.6-.8-2.4-.8-1 0-1.7.5-1.7 1.2 0 .6.3.9 1.3 1.1l1.3.2c1.6.3 2.3.9 2.3 2.1 0 1.4-1.3 2.4-3 2.4-1.3 0-2.4-.4-3.2-1.2l.6-.7zm14.7 1.9c-1 0-1.8-.4-2.5-1.1v1h-1.2v-11.4l1.2-.2v4.9c.6-.7 1.5-1.2 2.5-1.2 2 0 3.6 1.8 3.6 4 .1 2.3-1.5 4-3.6 4zm-2.4-5.9v3.8c.5.7 1.3 1.1 2.2 1.1 1.6 0 2.7-1.3 2.7-3s-1.2-3-2.7-3c-.9 0-1.7.4-2.2 1.1zm11.6-2.1c2.2 0 3.8 1.7 3.8 4s-1.6 4.1-3.8 4.1c-2.1 0-3.8-1.8-3.8-4.1s1.7-4 3.8-4zm2.7 4c0-1.7-1.1-3-2.7-3s-2.6 1.3-2.6 3 1.1 3 2.6 3 2.7-1.3 2.7-3zm6.6-4c2.2 0 3.8 1.7 3.8 4s-1.6 4.1-3.8 4.1c-2.1 0-3.8-1.8-3.8-4.1s1.7-4 3.8-4zm2.7 4c0-1.7-1.1-3-2.7-3s-2.6 1.3-2.6 3 1.1 3 2.6 3 2.7-1.3 2.7-3zm3.2-7.5 1.2-.2v7.4l3.7-3.5h1.4l-4 3.7 4.1 4.1h-1.5l-3.8-3.7v3.7h-1.2v-11.5zm11.4 9.6c.9.7 1.7 1 2.5 1 1.1 0 2-.6 2-1.4 0-.6-.4-1-1.4-1.2l-1.3-.2c-1.5-.3-2.2-.9-2.2-2 0-1.3 1.2-2.3 2.8-2.3 1.1 0 2 .3 3 1l-.6.8c-.8-.6-1.6-.8-2.4-.8-1 0-1.7.5-1.7 1.2 0 .6.3.9 1.3 1.1l1.3.2c1.6.3 2.3.9 2.3 2.1 0 1.4-1.3 2.4-3 2.4-1.3 0-2.4-.4-3.2-1.2l.6-.7zm7.4-9.6 1.2-.2v5.1c.6-.9 1.4-1.4 2.5-1.4 1.7 0 2.8 1.2 2.8 2.9v5.1h-1.2v-4.7c0-1.4-.8-2.2-2.1-2.2-.9 0-1.6.4-2 1.2v5.8h-1.2v-11.6zm12.2 3.5c2.2 0 3.8 1.7 3.8 4s-1.6 4.1-3.8 4.1c-2.1 0-3.8-1.8-3.8-4.1s1.7-4 3.8-4zm2.7 4c0-1.7-1.1-3-2.7-3s-2.6 1.3-2.6 3 1.1 3 2.6 3 2.7-1.3 2.7-3zm4.4 3.9-2.1-7.8h1.1l1.6 6.2 1.9-6.2h1l1.9 6.2 1.6-6.2h1.1l-2.1 7.8h-1.1l-1.9-6.3-1.9 6.3h-1.1zm9.7-1.8c.9.7 1.7 1 2.5 1 1.1 0 2-.6 2-1.4 0-.6-.4-1-1.4-1.2l-1.3-.2c-1.5-.3-2.2-.9-2.2-2 0-1.3 1.2-2.3 2.8-2.3 1.1 0 2 .3 3 1l-.6.8c-.8-.6-1.6-.8-2.4-.8-1 0-1.7.5-1.7 1.2 0 .6.3.9 1.3 1.1l1.3.2c1.6.3 2.3.9 2.3 2.1 0 1.4-1.3 2.4-3 2.4-1.3 0-2.4-.4-3.2-1.2l.6-.7zm13.1 1.8-3-7.8h1.3l2.4 6.4 2.5-6.4h1.3l-3.9 9.4c-.5 1.3-1.1 1.7-2.2 1.7-.2 0-.5 0-.8-.1v-1c.3.1.5.1.6.1.6 0 1-.3 1.2-1l.6-1.3zm9.1-7.9c2.2 0 3.8 1.7 3.8 4s-1.6 4.1-3.8 4.1c-2.1 0-3.8-1.8-3.8-4.1s1.7-4 3.8-4zm2.7 4c0-1.7-1.1-3-2.7-3s-2.6 1.3-2.6 3 1.1 3 2.6 3 2.7-1.3 2.7-3zm4.3.8c0 1.4.8 2.3 2.1 2.3.9 0 1.6-.4 2-1.2v-5.8h1.2v7.8h-1.2v-1.3c-.6.9-1.4 1.4-2.5 1.4-1.7 0-2.8-1.2-2.8-2.9v-5h1.2v4.7zm11.4-8.3 1.2-.2v5.1c.6-.9 1.4-1.4 2.5-1.4 1.7 0 2.8 1.2 2.8 2.9v5.1h-1.2v-4.7c0-1.4-.8-2.2-2.1-2.2-.9 0-1.6.4-2 1.2v5.8h-1.2v-11.6zm12.3 3.5c2.2 0 3.8 1.7 3.8 4s-1.6 4.1-3.8 4.1c-2.1 0-3.8-1.8-3.8-4.1s1.7-4 3.8-4zm2.7 4c0-1.7-1.1-3-2.7-3s-2.6 1.3-2.6 3 1.1 3 2.6 3 2.7-1.3 2.7-3zm4.4 3.9-2.1-7.8h1.1l1.6 6.2 1.9-6.2h1l1.9 6.2 1.6-6.2h1.1l-2.1 7.8h-1.1l-1.9-6.3-1.9 6.3h-1.1z" class="sticky-card-best-practices-1_svg__st4"/>
  </g>
  <g class="sticky-card-best-practices-1_svg__st3">
    <path d="M36.5 297.2c-3.1 0-5.6-2.5-5.6-5.8s2.5-5.8 5.6-5.8c3.1 0 5.6 2.5 5.6 5.8s-2.5 5.8-5.6 5.8zm0-10.5c-2.4 0-4.3 2-4.3 4.7s1.9 4.7 4.3 4.7 4.3-2 4.3-4.7-1.9-4.7-4.3-4.7zm7.7 2.5h1.2v1.1c.6-.8 1.5-1.2 2.5-1.2 2 0 3.6 1.8 3.6 4 0 2.3-1.6 4-3.7 4-1 0-1.8-.4-2.4-1.1v4.3h-1.2v-11.1zm1.1 2v3.8c.5.7 1.3 1.1 2.2 1.1 1.6 0 2.7-1.3 2.7-3s-1.2-3-2.7-3c-.9 0-1.7.4-2.2 1.1zm11.7 5.9c-2.2 0-3.9-1.8-3.9-4s1.6-4 3.7-4c2 0 3.6 1.7 3.6 3.9v.4h-6.1c.1 1.6 1.3 2.8 2.8 2.8.8 0 1.6-.3 2.1-.8l.7.8c-.8.6-1.8.9-2.9.9zm-2.7-4.6h4.9c-.2-1.4-1.2-2.4-2.4-2.4-1.3 0-2.3 1-2.5 2.4zm8.1-3.3h1.2v1.6c.4-1.1 1.2-1.7 2.2-1.7.3 0 .5 0 .7.1v1.1c-.3-.1-.6-.1-.8-.1-1 0-1.7.6-2.1 1.6v5.3h-1.2v-7.9zm4.9 5.6c0-1.4 1.2-2.3 2.9-2.3.9 0 1.7.2 2.4.6V292c0-1.3-.7-1.9-2-1.9-.7 0-1.5.2-2.4.7l-.4-.9c1.1-.5 2-.8 2.9-.8 1.9 0 3 1 3 2.8v5.2h-1.2v-.9c-.7.7-1.5 1.1-2.5 1.1-1.6-.2-2.7-1.1-2.7-2.5zm3.1 1.4c.9 0 1.6-.3 2.2-.9v-1.5c-.7-.4-1.3-.6-2.2-.6-1.2 0-2 .6-2 1.4 0 1 .8 1.6 2 1.6zm6.4-6.1h-1.6v-1h1.6V287l1.2-.3v2.4h2.2v1H78v4.8c0 .8.3 1.2 1.1 1.2.4 0 .7 0 1.1-.2v1c-.4.1-.9.2-1.4.2-1.3 0-2-.7-2-1.9v-5.1zm8.4-1c2.2 0 3.8 1.7 3.8 4s-1.6 4.1-3.8 4.1c-2.1 0-3.8-1.8-3.8-4.1s1.6-4 3.8-4zm2.6 4c0-1.7-1.1-3-2.7-3s-2.6 1.3-2.6 3 1.1 3 2.6 3 2.7-1.3 2.7-3zm3.2-3.9h1.2v1.6c.4-1.1 1.2-1.7 2.2-1.7.3 0 .5 0 .7.1v1.1c-.3-.1-.6-.1-.8-.1-1 0-1.7.6-2.1 1.6v5.3H91v-7.9zm5.4 6c.9.7 1.7 1 2.5 1 1.1 0 2-.6 2-1.4 0-.6-.4-1-1.4-1.2l-1.3-.2c-1.5-.3-2.2-.9-2.2-2 0-1.3 1.2-2.3 2.8-2.3 1.1 0 2 .3 3 1l-.6.8c-.8-.6-1.6-.8-2.4-.8-1 0-1.7.5-1.7 1.2 0 .6.3.9 1.3 1.1l1.3.2c1.6.3 2.3.9 2.3 2.1 0 1.4-1.3 2.4-3 2.4-1.3 0-2.4-.4-3.2-1.2l.6-.7zm12.5 1.8-2.1-7.8h1.1l1.6 6.2 1.9-6.2h1l1.9 6.2 1.6-6.2h1.1l-2.1 7.8h-1.1l-1.9-6.3-1.9 6.3h-1.1zm13.1-7.9c2.2 0 3.8 1.7 3.8 4s-1.6 4.1-3.8 4.1c-2.1 0-3.8-1.8-3.8-4.1s1.6-4 3.8-4zm2.6 4c0-1.7-1.1-3-2.7-3s-2.6 1.3-2.6 3 1.1 3 2.6 3 2.7-1.3 2.7-3zm3.2-3.9h1.2v1.6c.4-1.1 1.2-1.7 2.2-1.7.3 0 .5 0 .7.1v1.1c-.3-.1-.6-.1-.8-.1-1 0-1.7.6-2.1 1.6v5.3h-1.2v-7.9zm5.7-3.6 1.2-.2v7.4l3.7-3.5h1.4l-4 3.7 4.1 4.1h-1.5l-3.8-3.7v3.7h-1.2v-11.5zm11.1 9.2c0-1.4 1.2-2.3 2.9-2.3.9 0 1.7.2 2.4.6V292c0-1.3-.7-1.9-2-1.9-.7 0-1.5.2-2.4.7l-.4-.9c1.1-.5 2-.8 2.9-.8 1.9 0 3 1 3 2.8v5.2h-1.2v-.9c-.7.7-1.5 1.1-2.5 1.1-1.5-.2-2.7-1.1-2.7-2.5zm3.1 1.4c.9 0 1.6-.3 2.2-.9v-1.5c-.7-.4-1.3-.6-2.2-.6-1.2 0-2 .6-2 1.4 0 1 .8 1.6 2 1.6zm5.7-7h1.2v1.3c.6-.9 1.4-1.4 2.5-1.4 1.7 0 2.8 1.2 2.8 2.9v5.1h-1.2v-4.7c0-1.4-.8-2.2-2.1-2.2-.9 0-1.6.4-2 1.2v5.8h-1.2v-8zM168 296c-.6.8-1.5 1.2-2.5 1.2-2 0-3.6-1.8-3.6-4 0-2.3 1.6-4 3.7-4 1 0 1.8.4 2.4 1.1v-4.6l1.2-.2V297H168v-1zm-2.2.1c.9 0 1.7-.4 2.2-1v-3.9c-.5-.7-1.3-1.1-2.2-1.1-1.6 0-2.7 1.3-2.7 3s1.1 3 2.7 3zm9.5-10.5 1.2-.2v5.1c.6-.9 1.4-1.4 2.5-1.4 1.7 0 2.8 1.2 2.8 2.9v5.1h-1.2v-4.7c0-1.4-.8-2.2-2.1-2.2-.9 0-1.6.4-2 1.2v5.8h-1.2v-11.6zm12.3 3.5c2.2 0 3.8 1.7 3.8 4s-1.6 4.1-3.8 4.1c-2.1 0-3.8-1.8-3.8-4.1s1.6-4 3.8-4zm2.6 4c0-1.7-1.1-3-2.7-3s-2.6 1.3-2.6 3 1.1 3 2.6 3 2.7-1.3 2.7-3zm4.5 3.9-2.1-7.8h1.1l1.6 6.2 1.9-6.2h1l1.9 6.2 1.6-6.2h1.1l-2.1 7.8h-1.1l-1.9-6.3-1.9 6.3h-1.1zm14.4-6.9h-1.6v-1h1.6V287l1.2-.3v2.4h2.2v1h-2.2v4.8c0 .8.3 1.2 1.1 1.2.4 0 .7 0 1.1-.2v1c-.4.1-.9.2-1.4.2-1.3 0-2-.7-2-1.9v-5.1zm8.4-1c2.2 0 3.8 1.7 3.8 4s-1.6 4.1-3.8 4.1c-2.1 0-3.8-1.8-3.8-4.1s1.6-4 3.8-4zm2.6 4c0-1.7-1.1-3-2.7-3s-2.6 1.3-2.6 3 1.1 3 2.6 3 2.7-1.3 2.7-3z" class="sticky-card-best-practices-1_svg__st4"/>
  </g>
  <g class="sticky-card-best-practices-1_svg__st3">
    <path d="M34.8 321.1c-1 0-1.8-.4-2.5-1.1v1h-1.2v-11.4l1.2-.2v4.9c.6-.7 1.5-1.2 2.5-1.2 2 0 3.6 1.8 3.6 4 .1 2.3-1.5 4-3.6 4zm-2.4-5.9v3.8c.5.7 1.3 1.1 2.2 1.1 1.6 0 2.7-1.3 2.7-3s-1.2-3-2.7-3c-.9 0-1.7.4-2.2 1.1zm9.3 2.7c0 1.4.8 2.3 2.1 2.3.9 0 1.6-.4 2-1.2v-5.8H47v7.8h-1.2v-1.3c-.6.9-1.4 1.4-2.5 1.4-1.7 0-2.8-1.2-2.8-2.9v-5h1.2v4.7zm7.4-7.5c0-.4.4-.8.8-.8s.8.4.8.8c0 .5-.4.8-.8.8-.4.1-.8-.3-.8-.8zm1.4 10.6h-1.2v-7.8h1.2v7.8zm3.6 0h-1.2v-11.4l1.2-.2V321zm8.1-1c-.6.8-1.5 1.2-2.5 1.2-2 0-3.6-1.8-3.6-4 0-2.3 1.6-4 3.7-4 1 0 1.8.4 2.4 1.1v-4.6l1.2-.2V321h-1.2v-1zm-2.2.1c.9 0 1.7-.4 2.2-1v-3.9c-.5-.7-1.3-1.1-2.2-1.1-1.6 0-2.7 1.3-2.7 3s1.2 3 2.7 3zm10.5-6h-1.6v-1h1.6V311l1.2-.3v2.4h2.2v1h-2.2v4.8c0 .8.3 1.2 1.1 1.2.4 0 .7 0 1.1-.2v1c-.4.1-.9.2-1.4.2-1.3 0-2-.7-2-1.9v-5.1zm5.1-4.5 1.2-.2v5.1c.6-.9 1.4-1.4 2.5-1.4 1.7 0 2.8 1.2 2.8 2.9v5.1h-1.2v-4.7c0-1.4-.8-2.2-2.1-2.2-.9 0-1.6.4-2 1.2v5.8h-1.2v-11.6zm12.3 11.5c-2.2 0-3.9-1.8-3.9-4s1.6-4 3.7-4c2 0 3.6 1.7 3.6 3.9v.4h-6.1c.1 1.6 1.3 2.8 2.8 2.8.8 0 1.6-.3 2.1-.8l.7.8c-.8.6-1.8.9-2.9.9zm-2.7-4.6h4.9c-.2-1.4-1.2-2.4-2.4-2.4-1.3 0-2.3 1-2.5 2.4zm8.1-3.3h1.2v1.2c.6-.9 1.4-1.3 2.3-1.3 1.1 0 2 .6 2.4 1.5.6-1 1.5-1.5 2.6-1.5 1.6 0 2.7 1.2 2.7 2.9v5h-1.2v-4.8c0-1.4-.7-2.2-1.9-2.2-.8 0-1.5.4-2 1.2 0 .2.1.4.1.7v5h-1.2v-4.8c0-1.4-.8-2.2-1.9-2.2-.8 0-1.4.4-1.9 1.2v5.8h-1.2v-7.7zM112 321l-2.1-7.8h1.1l1.6 6.2 1.9-6.2h1l1.9 6.2 1.6-6.2h1.1L118 321h-1.1l-1.9-6.3-1.9 6.3H112zm9.5-10.6c0-.4.4-.8.8-.8s.8.4.8.8c0 .5-.4.8-.8.8-.4.1-.8-.3-.8-.8zm1.4 10.6h-1.2v-7.8h1.2v7.8zm3.3-6.9h-1.6v-1h1.6V311l1.2-.3v2.4h2.2v1h-2.2v4.8c0 .8.3 1.2 1.1 1.2.4 0 .7 0 1.1-.2v1c-.4.1-.9.2-1.4.2-1.3 0-2-.7-2-1.9v-5.1zm5.2-4.5 1.2-.2v5.1c.6-.9 1.4-1.4 2.5-1.4 1.7 0 2.8 1.2 2.8 2.9v5.1h-1.2v-4.7c0-1.4-.8-2.2-2.1-2.2-.9 0-1.6.4-2 1.2v5.8h-1.2v-11.6zm13.4 4.5h-1.6v-1h1.6V311l1.2-.3v2.4h2.2v1H146v4.8c0 .8.3 1.2 1.1 1.2.4 0 .7 0 1.1-.2v1c-.4.1-.9.2-1.4.2-1.3 0-2-.7-2-1.9v-5.1zm5.2-4.5 1.2-.2v5.1c.6-.9 1.4-1.4 2.5-1.4 1.7 0 2.8 1.2 2.8 2.9v5.1h-1.2v-4.7c0-1.4-.8-2.2-2.1-2.2-.9 0-1.6.4-2 1.2v5.8H150v-11.6zm12.3 11.5c-2.2 0-3.9-1.8-3.9-4s1.6-4 3.7-4c2 0 3.6 1.7 3.6 3.9v.4h-6.1c.1 1.6 1.3 2.8 2.8 2.8.8 0 1.6-.3 2.1-.8l.7.8c-.8.6-1.8.9-2.9.9zm-2.7-4.6h4.9c-.2-1.4-1.2-2.4-2.4-2.4-1.3 0-2.3 1-2.5 2.4zm17.1 4.7c-3.1 0-5.6-2.5-5.6-5.8s2.5-5.8 5.6-5.8c3.1 0 5.6 2.5 5.6 5.8s-2.5 5.8-5.6 5.8zm0-10.5c-2.4 0-4.3 2-4.3 4.7s1.9 4.7 4.3 4.7 4.3-2 4.3-4.7-1.8-4.7-4.3-4.7zm7.7 2.5h1.2v1.1c.6-.8 1.5-1.2 2.5-1.2 2 0 3.6 1.8 3.6 4 0 2.3-1.6 4-3.7 4-1 0-1.8-.4-2.4-1.1v4.3h-1.2v-11.1zm1.2 2v3.8c.5.7 1.3 1.1 2.2 1.1 1.6 0 2.7-1.3 2.7-3s-1.2-3-2.7-3c-.9 0-1.7.4-2.2 1.1zm11.7 5.9c-2.2 0-3.9-1.8-3.9-4s1.6-4 3.7-4c2 0 3.6 1.7 3.6 3.9v.4h-6.1c.1 1.6 1.3 2.8 2.8 2.8.8 0 1.6-.3 2.1-.8l.7.8c-.9.6-1.8.9-2.9.9zm-2.7-4.6h4.9c-.2-1.4-1.2-2.4-2.4-2.4-1.3 0-2.3 1-2.5 2.4zm8.1-3.3h1.2v1.6c.4-1.1 1.2-1.7 2.2-1.7.3 0 .5 0 .7.1v1.1c-.3-.1-.6-.1-.8-.1-1 0-1.7.6-2.1 1.6v5.3h-1.2v-7.9zm4.8 5.6c0-1.4 1.2-2.3 2.9-2.3.9 0 1.7.2 2.4.6V316c0-1.3-.7-1.9-2-1.9-.7 0-1.5.2-2.4.7l-.4-.9c1.1-.5 2-.8 2.9-.8 1.9 0 3 1 3 2.8v5.2h-1.2v-.9c-.7.7-1.5 1.1-2.5 1.1-1.5-.2-2.7-1.1-2.7-2.5zm3.1 1.4c.9 0 1.6-.3 2.2-.9v-1.5c-.7-.4-1.3-.6-2.2-.6-1.2 0-2 .6-2 1.4 0 1 .8 1.6 2 1.6zm6.4-6.1h-1.6v-1h1.6V311l1.2-.3v2.4h2.2v1h-2.2v4.8c0 .8.3 1.2 1.1 1.2.4 0 .7 0 1.1-.2v1c-.4.1-.9.2-1.4.2-1.3 0-2-.7-2-1.9v-5.1zm8.4-1c2.2 0 3.8 1.7 3.8 4s-1.6 4.1-3.8 4.1c-2.1 0-3.8-1.8-3.8-4.1s1.6-4 3.8-4zm2.7 4c0-1.7-1.1-3-2.7-3s-2.6 1.3-2.6 3 1.1 3 2.6 3 2.7-1.3 2.7-3zm3.2-3.9h1.2v1.6c.4-1.1 1.2-1.7 2.2-1.7.3 0 .5 0 .7.1v1.1c-.3-.1-.6-.1-.8-.1-1 0-1.7.6-2.1 1.6v5.3h-1.2v-7.9z" class="sticky-card-best-practices-1_svg__st4"/>
  </g>
  <g class="sticky-card-best-practices-1_svg__st3">
    <path d="M31.4 333.8h7.7v1.1h-6.4v4h4.4v1.1h-4.4v5h-1.2v-11.2zm8.7 3.4h1.2v1.6c.4-1.1 1.2-1.7 2.2-1.7.3 0 .5 0 .7.1v1.1c-.3-.1-.6-.1-.8-.1-1 0-1.7.6-2.1 1.6v5.3h-1.2v-7.9zm4.9 5.6c0-1.4 1.2-2.3 2.9-2.3.9 0 1.7.2 2.4.6V340c0-1.3-.7-1.9-2-1.9-.7 0-1.5.2-2.4.7l-.4-.9c1.1-.5 2-.8 2.9-.8 1.9 0 3 1 3 2.8v5.2h-1.2v-.9c-.7.7-1.5 1.1-2.5 1.1-1.5-.2-2.7-1.1-2.7-2.5zm3.1 1.4c.9 0 1.6-.3 2.2-.9v-1.5c-.7-.4-1.3-.6-2.2-.6-1.2 0-2 .6-2 1.4 0 1 .8 1.6 2 1.6zm5.7-7H55v1.2c.6-.9 1.4-1.3 2.3-1.3 1.1 0 2 .6 2.4 1.5.6-1 1.5-1.5 2.6-1.5 1.6 0 2.7 1.2 2.7 2.9v5h-1.2v-4.8c0-1.4-.7-2.2-1.9-2.2-.8 0-1.5.4-2 1.2 0 .2.1.4.1.7v5h-1.2v-4.8c0-1.4-.8-2.2-1.9-2.2-.8 0-1.4.4-1.9 1.2v5.8h-1.2v-7.7zm17.1 7.9c-2.2 0-3.9-1.8-3.9-4s1.6-4 3.7-4c2 0 3.6 1.7 3.6 3.9v.4h-6.1c.1 1.6 1.3 2.8 2.8 2.8.8 0 1.6-.3 2.1-.8l.7.8c-.9.6-1.8.9-2.9.9zm-2.7-4.6h4.9c-.2-1.4-1.2-2.4-2.4-2.4-1.3 0-2.3 1-2.5 2.4zm9.3 4.5-2.1-7.8h1.1l1.6 6.2 1.9-6.2h1l1.9 6.2 1.6-6.2h1.1l-2.1 7.8h-1.1l-1.9-6.3-1.9 6.3h-1.1zm13-7.9c2.2 0 3.8 1.7 3.8 4s-1.6 4.1-3.8 4.1c-2.1 0-3.8-1.8-3.8-4.1.1-2.3 1.7-4 3.8-4zm2.7 4c0-1.7-1.1-3-2.7-3s-2.6 1.3-2.6 3 1.1 3 2.6 3 2.7-1.3 2.7-3zm3.2-3.9h1.2v1.6c.4-1.1 1.2-1.7 2.2-1.7.3 0 .5 0 .7.1v1.1c-.3-.1-.6-.1-.8-.1-1 0-1.7.6-2.1 1.6v5.3h-1.2v-7.9zm5.6-3.6 1.2-.2v7.4l3.7-3.5h1.4l-4 3.7 4.1 4.1H107l-3.8-3.7v3.7H102v-11.5zm11.2 9.2c0-1.4 1.2-2.3 2.9-2.3.9 0 1.7.2 2.4.6V340c0-1.3-.7-1.9-2-1.9-.7 0-1.5.2-2.4.7l-.4-.9c1.1-.5 2-.8 2.9-.8 1.9 0 3 1 3 2.8v5.2h-1.2v-.9c-.7.7-1.5 1.1-2.5 1.1-1.6-.2-2.7-1.1-2.7-2.5zm3 1.4c.9 0 1.6-.3 2.2-.9v-1.5c-.7-.4-1.3-.6-2.2-.6-1.2 0-2 .6-2 1.4.1 1 .9 1.6 2 1.6zm5.8-7h1.2v1.3c.6-.9 1.4-1.4 2.5-1.4 1.7 0 2.8 1.2 2.8 2.9v5.1h-1.2v-4.7c0-1.4-.8-2.2-2.1-2.2-.9 0-1.6.4-2 1.2v5.8H122v-8zm14.6 6.8c-.6.8-1.5 1.2-2.5 1.2-2 0-3.6-1.8-3.6-4 0-2.3 1.6-4 3.7-4 1 0 1.8.4 2.4 1.1v-4.6l1.2-.2V345h-1.2v-1zm-2.2.1c.9 0 1.7-.4 2.2-1v-3.9c-.5-.7-1.3-1.1-2.2-1.1-1.6 0-2.7 1.3-2.7 3-.1 1.7 1.1 3 2.7 3zm9.5-1.7c1.3 1.3 2.4 1.7 3.9 1.7 1.7 0 3-1 3-2.3 0-1.1-.7-1.6-2.5-2l-1.8-.3c-2-.4-3-1.2-3-2.7 0-1.9 1.6-3.2 3.8-3.2 1.7 0 3 .4 4.4 1.4l-.6 1c-1.2-.9-2.5-1.3-3.8-1.3-1.6 0-2.7.9-2.7 2 0 1 .6 1.5 2.1 1.7l1.8.3c2.4.4 3.4 1.3 3.4 3 0 1.9-1.8 3.4-4.3 3.4-1.8 0-3.2-.6-4.6-1.9l.9-.8zm10.2-8.6h3.7c3.3 0 5.6 2.4 5.6 5.6 0 3.2-2.3 5.6-5.6 5.6h-3.7v-11.2zm1.2 1.1v9h2.6c2.4 0 4.3-1.9 4.3-4.5s-1.9-4.5-4.3-4.5h-2.6zm10.4-1.1h1.2v5.3l5.4-5.3h1.6l-5.7 5.5 5.8 5.7h-1.7l-5.5-5.4v5.4h-1.2v-11.2zm10.9 10.4c0 .5-.4.9-.8.9-.5 0-.8-.4-.8-.9s.4-.9.8-.9c.5.1.8.5.8.9z" class="sticky-card-best-practices-1_svg__st4"/>
  </g>
  <g class="sticky-card-best-practices-1_svg__st3">
    <path d="M35.8 169h2.5l5.7 14h-2.3l-1.6-4.1h-6.3l-1.6 4.1H30l5.8-14zm3.6 8.2L37 171l-2.4 6.1h4.8zm7.4 1.7c0 1.6 1 2.6 2.5 2.6 1.1 0 1.9-.5 2.5-1.3v-7.3h2V183h-2v-1c-.8.8-1.8 1.2-3.1 1.2-2.3 0-4-1.6-4-4v-6.4h2v6.1zm10.7-4.4h-2.2v-1.7h2.2v-2.6l2-.5v3.1h3v1.7h-3v5.5c0 1 .4 1.4 1.5 1.4.6 0 1-.1 1.5-.2v1.7c-.5.2-1.3.3-1.9.3-2 0-3-.9-3-2.7v-6zm11-1.9c3 0 5.3 2.3 5.3 5.3s-2.3 5.3-5.3 5.3-5.3-2.3-5.3-5.3 2.4-5.3 5.3-5.3zm3.4 5.3c0-2-1.5-3.5-3.3-3.5-1.9 0-3.3 1.5-3.3 3.5s1.5 3.5 3.3 3.5c1.8 0 3.3-1.5 3.3-3.5zm3.8-5.1h2v1c.8-.8 1.7-1.2 2.9-1.2 1.4 0 2.5.6 3.1 1.7.8-1.1 2-1.7 3.4-1.7 2.2 0 3.8 1.6 3.8 4v6.4h-2v-6.1c0-1.6-.9-2.6-2.3-2.6-1 0-1.8.5-2.4 1.4.1.3.1.6.1.9v6.4h-2v-6.1c0-1.6-.9-2.6-2.3-2.6-1 0-1.7.4-2.3 1.2v7.4h-2v-10.1zm17.1 7.3c0-1.9 1.6-3.1 4.1-3.1 1 0 1.9.2 2.8.6v-1.1c0-1.4-.9-2.2-2.5-2.2-.9 0-1.9.3-3.2.9l-.7-1.5c1.5-.7 2.8-1 4.2-1 2.6 0 4.2 1.3 4.2 3.6v6.7h-2v-.9c-.9.7-1.9 1.1-3.2 1.1-2.2 0-3.7-1.3-3.7-3.1zm4.2 1.6c1.1 0 2-.3 2.7-1V179c-.8-.4-1.6-.6-2.6-.6-1.5 0-2.4.7-2.4 1.7 0 .9.9 1.6 2.3 1.6zm7.8-7.2h-2.2v-1.7h2.2v-2.6l2-.5v3.1h3v1.7h-3v5.5c0 1 .4 1.4 1.5 1.4.6 0 1-.1 1.5-.2v1.7c-.5.2-1.3.3-1.9.3-2 0-3-.9-3-2.7v-6zm6.3-4.6c0-.7.5-1.2 1.2-1.2s1.2.6 1.2 1.2-.6 1.2-1.2 1.2c-.7.1-1.2-.5-1.2-1.2zm2.2 13.1h-2v-10.2h2V183zm2.4-10.2h2v1c.8-.8 1.8-1.2 3.1-1.2 2.3 0 4 1.6 4 4v6.4h-2v-6.1c0-1.6-1-2.6-2.5-2.6-1.1 0-2 .5-2.5 1.3v7.3h-2v-10.1zm10.8 5.1c0-2.9 2.3-5.2 5.2-5.2 1.1 0 2.1.4 3 1v-.8h2v10.3c0 2.6-1.7 4.1-4.7 4.1-1.5 0-2.9-.4-4.1-1l.8-1.6c1.2.6 2.2.9 3.3.9 1.8 0 2.7-.8 2.7-2.4V182c-.9.7-1.9 1.1-3 1.1-2.9 0-5.2-2.3-5.2-5.2zm5.4 3.4c1.2 0 2.1-.4 2.8-1.2v-4.6c-.6-.7-1.7-1.2-2.8-1.2-1.9 0-3.4 1.5-3.4 3.5s1.5 3.5 3.4 3.5zm12.7-6.8h-2.2v-1.7h2.2v-2.6l2-.5v3.1h3v1.7h-3v5.5c0 1 .4 1.4 1.5 1.4.6 0 1-.1 1.5-.2v1.7c-.5.2-1.3.3-1.9.3-2 0-3-.9-3-2.7v-6zm6.4-5.5 2-.4v5.3c.8-.8 1.8-1.2 3.1-1.2 2.3 0 4 1.6 4 4v6.4h-2V177c0-1.6-1-2.6-2.5-2.6-1.1 0-2 .5-2.5 1.3v7.3h-2v-14zm16.2 14.2c-3 0-5.3-2.3-5.3-5.3 0-2.9 2.2-5.2 5.1-5.2 2.8 0 4.9 2.3 4.9 5.3v.6h-8c.3 1.7 1.7 2.9 3.4 2.9 1 0 1.9-.3 2.6-.9l1.3 1.3c-1.2.9-2.4 1.3-4 1.3zm-3.3-6.1h6c-.3-1.6-1.5-2.7-3-2.7-1.5-.1-2.7 1-3 2.7z" class="sticky-card-best-practices-1_svg__st4"/>
  </g>
  <g class="sticky-card-best-practices-1_svg__st3">
    <path d="m38.8 206.2 1.2 1.3c-1.1 1.1-2.5 1.7-4 1.7-2.9 0-5.2-2.3-5.2-5.3s2.3-5.3 5.2-5.3c1.5 0 3 .6 4.1 1.7l-1.3 1.4c-.8-.8-1.8-1.3-2.8-1.3-1.9 0-3.3 1.5-3.3 3.5s1.5 3.5 3.3 3.5c1.1 0 2-.4 2.8-1.2zm7.2-7.6c3 0 5.3 2.3 5.3 5.3s-2.3 5.3-5.3 5.3-5.3-2.3-5.3-5.3 2.4-5.3 5.3-5.3zm3.4 5.3c0-2-1.5-3.5-3.3-3.5-1.9 0-3.3 1.5-3.3 3.5s1.5 3.5 3.3 3.5c1.8 0 3.3-1.5 3.3-3.5zm3.8-5.1h2v1c.8-.8 1.8-1.2 3.1-1.2 2.3 0 4 1.6 4 4v6.4h-2v-6.1c0-1.6-1-2.6-2.5-2.6-1.1 0-2 .5-2.5 1.3v7.3h-2v-10.1zm12.3 1.7h-2.2v-1.7h2.2v-2.6l2-.5v3.1h3v1.7h-3v5.5c0 1 .4 1.4 1.5 1.4.6 0 1-.1 1.5-.2v1.7c-.5.2-1.3.3-1.9.3-2 0-3-.9-3-2.7v-6zm5.9 5.6c0-1.9 1.6-3.1 4.1-3.1 1 0 1.9.2 2.8.6v-1.1c0-1.4-.9-2.2-2.5-2.2-.9 0-1.9.3-3.2.9l-.7-1.5c1.5-.7 2.8-1 4.2-1 2.6 0 4.2 1.3 4.2 3.6v6.7h-2v-.9c-.9.7-1.9 1.1-3.2 1.1-2.2 0-3.7-1.3-3.7-3.1zm4.2 1.6c1.1 0 2-.3 2.7-1V205c-.8-.4-1.6-.6-2.6-.6-1.5 0-2.4.7-2.4 1.7 0 .9 1 1.6 2.3 1.6zm6.8-11.8c0-.7.5-1.2 1.2-1.2s1.2.6 1.2 1.2-.6 1.2-1.2 1.2c-.7.1-1.2-.5-1.2-1.2zm2.2 13.1h-2v-10.2h2V209zm2.3-10.2h2v1c.8-.8 1.8-1.2 3.1-1.2 2.3 0 4 1.6 4 4v6.4h-2v-6.1c0-1.6-1-2.6-2.5-2.6-1.1 0-2 .5-2.5 1.3v7.3h-2v-10.1zm16.3 10.4c-3 0-5.3-2.3-5.3-5.3 0-2.9 2.2-5.2 5.1-5.2 2.8 0 4.9 2.3 4.9 5.3v.6h-8c.3 1.7 1.7 2.9 3.4 2.9 1 0 1.9-.3 2.6-.9l1.3 1.3c-1.3.9-2.5 1.3-4 1.3zm-3.4-6.1h6c-.3-1.6-1.5-2.7-3-2.7-1.5-.1-2.7 1-3 2.7zm9.9-4.3h2v1.3c.6-1 1.6-1.5 2.8-1.5.4 0 .7 0 1 .2v1.8c-.4-.1-.8-.2-1.2-.2-1.2 0-2.1.6-2.6 1.9v6.8h-2v-10.3zm16.5-.2c3 0 5.3 2.3 5.3 5.3s-2.3 5.3-5.3 5.3-5.3-2.3-5.3-5.3 2.3-5.3 5.3-5.3zm3.3 5.3c0-2-1.5-3.5-3.3-3.5-1.9 0-3.3 1.5-3.3 3.5s1.5 3.5 3.3 3.5c1.8 0 3.3-1.5 3.3-3.5zm3.9-5.1h2v1.3c.6-1 1.6-1.5 2.8-1.5.4 0 .7 0 1 .2v1.8c-.4-.1-.8-.2-1.2-.2-1.2 0-2.1.6-2.6 1.9v6.8h-2v-10.3zm14.4 7.4 1.2 1.3c-1.1 1.1-2.5 1.7-4 1.7-2.9 0-5.2-2.3-5.2-5.3s2.3-5.3 5.2-5.3c1.5 0 3 .6 4.1 1.7l-1.3 1.4c-.8-.8-1.8-1.3-2.8-1.3-1.9 0-3.3 1.5-3.3 3.5s1.5 3.5 3.3 3.5c1 0 1.9-.4 2.8-1.2zm2.8-11.2 2-.4v5.3c.8-.8 1.8-1.2 3.1-1.2 2.3 0 4 1.6 4 4v6.4h-2V203c0-1.6-1-2.6-2.5-2.6-1.1 0-2 .5-2.5 1.3v7.3h-2v-14zm16.2 14.2c-3 0-5.3-2.3-5.3-5.3 0-2.9 2.2-5.2 5.1-5.2 2.8 0 4.9 2.3 4.9 5.3v.6h-8c.3 1.7 1.7 2.9 3.4 2.9 1 0 1.9-.3 2.6-.9l1.3 1.3c-1.2.9-2.5 1.3-4 1.3zm-3.3-6.1h6c-.3-1.6-1.5-2.7-3-2.7-1.5-.1-2.7 1-3 2.7zm10.1 3.3c1.1.8 2.2 1.3 3.3 1.3 1.4 0 2.4-.6 2.4-1.5 0-.7-.5-1.1-1.6-1.3l-1.8-.3c-2-.3-3-1.2-3-2.8 0-1.8 1.6-3.1 4-3.1 1.5 0 2.8.4 4.1 1.3l-1 1.3c-1.1-.7-2.1-1.1-3.2-1.1-1.2 0-2 .6-2 1.4 0 .7.5 1.1 1.7 1.3l1.8.3c2 .3 3.1 1.3 3.1 2.8 0 1.8-1.8 3.2-4.3 3.2-1.8 0-3.3-.5-4.5-1.5l1-1.3zm10.3-5.9h-2.2v-1.7h2.2v-2.6l2-.5v3.1h3v1.7h-3v5.5c0 1 .4 1.4 1.5 1.4.6 0 1-.1 1.5-.2v1.7c-.5.2-1.3.3-1.9.3-2 0-3-.9-3-2.7v-6zm6.5-1.7h2v1.3c.6-1 1.6-1.5 2.8-1.5.4 0 .7 0 1 .2v1.8c-.4-.1-.8-.2-1.2-.2-1.2 0-2.1.6-2.6 1.9v6.8h-2v-10.3zm6.4 7.3c0-1.9 1.6-3.1 4.1-3.1 1 0 1.9.2 2.8.6v-1.1c0-1.4-.9-2.2-2.5-2.2-.9 0-1.9.3-3.2.9l-.7-1.5c1.5-.7 2.8-1 4.2-1 2.6 0 4.2 1.3 4.2 3.6v6.7h-2v-.9c-.9.7-1.9 1.1-3.2 1.1-2.1 0-3.7-1.3-3.7-3.1zm4.2 1.6c1.1 0 2-.3 2.7-1V205c-.8-.4-1.6-.6-2.6-.6-1.5 0-2.4.7-2.4 1.7.1.9 1 1.6 2.3 1.6zm7.9-7.2h-2.2v-1.7h2.2v-2.6l2-.5v3.1h3v1.7h-3v5.5c0 1 .4 1.4 1.5 1.4.6 0 1-.1 1.5-.2v1.7c-.5.2-1.3.3-1.9.3-2 0-3-.9-3-2.7v-6zm6.3-4.6c0-.7.5-1.2 1.2-1.2s1.2.6 1.2 1.2-.6 1.2-1.2 1.2c-.7.1-1.2-.5-1.2-1.2zm2.2 13.1h-2v-10.2h2V209zm7.2-10.4c3 0 5.3 2.3 5.3 5.3s-2.3 5.3-5.3 5.3-5.3-2.3-5.3-5.3 2.3-5.3 5.3-5.3zm3.3 5.3c0-2-1.5-3.5-3.3-3.5-1.9 0-3.3 1.5-3.3 3.5s1.5 3.5 3.3 3.5c1.8 0 3.3-1.5 3.3-3.5zm3.9-5.1h2v1c.8-.8 1.8-1.2 3.1-1.2 2.3 0 4 1.6 4 4v6.4h-2v-6.1c0-1.6-1-2.6-2.5-2.6-1.1 0-2 .5-2.5 1.3v7.3h-2v-10.1z" class="sticky-card-best-practices-1_svg__st4"/>
  </g>
  <g class="sticky-card-best-practices-1_svg__st3">
    <path d="M31.2 224.8h2v1c.8-.7 1.9-1.1 3.1-1.1 2.9 0 5.1 2.3 5.1 5.2 0 3-2.3 5.3-5.2 5.3-1.1 0-2.2-.4-3.1-1v5h-2v-14.4zm2 2.8v4.6c.6.7 1.7 1.2 2.8 1.2 2 0 3.4-1.5 3.4-3.5s-1.5-3.5-3.4-3.5c-1.1 0-2.2.4-2.8 1.2zm12.1 7.4h-2v-14l2-.4V235zm1.9-2.9c0-1.9 1.6-3.1 4.1-3.1 1 0 1.9.2 2.8.6v-1.1c0-1.4-.9-2.2-2.5-2.2-.9 0-1.9.3-3.2.9l-.7-1.5c1.5-.7 2.8-1 4.2-1 2.6 0 4.2 1.3 4.2 3.6v6.7h-2v-.9c-.9.7-1.9 1.1-3.2 1.1-2.2 0-3.7-1.3-3.7-3.1zm4.2 1.6c1.1 0 2-.3 2.7-1V231c-.8-.4-1.6-.6-2.6-.6-1.5 0-2.4.7-2.4 1.7 0 .9.9 1.6 2.3 1.6zm7.8-7.2H57v-1.7h2.2v-2.6l2-.5v3.1h3v1.7h-3v5.5c0 1 .4 1.4 1.5 1.4.6 0 1-.1 1.5-.2v1.7c-.5.2-1.3.3-1.9.3-2 0-3-.9-3-2.7v-6zm8.2-1.7v-1.5c0-2.1 1.2-3.3 3.5-3.3.5 0 1 .1 1.4.2v1.7c-.5-.1-.8-.2-1.3-.2-1.1 0-1.6.5-1.6 1.6v1.5h2.9v1.7h-2.9v8.5h-2v-8.5H65v-1.7h2.4zm10.9-.2c3 0 5.3 2.3 5.3 5.3s-2.3 5.3-5.3 5.3-5.3-2.3-5.3-5.3 2.3-5.3 5.3-5.3zm3.3 5.3c0-2-1.5-3.5-3.3-3.5-1.9 0-3.3 1.5-3.3 3.5s1.5 3.5 3.3 3.5c1.8 0 3.3-1.5 3.3-3.5zm3.8-5.1h2v1.3c.6-1 1.6-1.5 2.8-1.5.4 0 .7 0 1 .2v1.8c-.4-.1-.8-.2-1.2-.2-1.2 0-2.1.6-2.6 1.9v6.8h-2v-10.3zm7.5 0h2v1c.8-.8 1.7-1.2 2.9-1.2 1.4 0 2.5.6 3.1 1.7.8-1.1 2-1.7 3.4-1.7 2.2 0 3.8 1.6 3.8 4v6.4h-2v-6.1c0-1.6-.9-2.6-2.3-2.6-1 0-1.8.5-2.4 1.4.1.3.1.6.1.9v6.4h-2v-6.1c0-1.6-.9-2.6-2.3-2.6-1 0-1.7.4-2.3 1.2v7.4h-2v-10.1z" class="sticky-card-best-practices-1_svg__st4"/>
  </g>
  <g class="sticky-card-best-practices-1_svg__st3">
    <path d="M31.4 130.8h7.7v1.1h-6.4v3.9h4.4v1.1h-4.4v4h6.5v1.1h-7.7v-11.2zm14.3 6.2v1h-5.3v-1h5.3zm6.9-6.2c2 0 3.4 1.1 3.4 2.8 0 1.2-.8 2.2-2 2.5 1.5.3 2.4 1.3 2.4 2.7 0 1.9-1.4 3.1-3.6 3.1h-4.7v-11.2h4.5zm-3.3 1.1v3.8h3.2c1.4 0 2.2-.8 2.2-1.9 0-1.2-.9-1.9-2.2-1.9h-3.2zm5.9 6.9c0-1.3-1-2.1-2.5-2.1h-3.3v4.2h3.3c1.5 0 2.5-.8 2.5-2.1zm8.5 3.4c-3.1 0-5.6-2.5-5.6-5.8s2.5-5.8 5.6-5.8c3.1 0 5.6 2.5 5.6 5.8s-2.5 5.8-5.6 5.8zm0-10.5c-2.4 0-4.3 2-4.3 4.7s1.9 4.7 4.3 4.7 4.3-2 4.3-4.7-1.8-4.7-4.3-4.7zm13 10.5c-3.1 0-5.6-2.5-5.6-5.8s2.5-5.8 5.6-5.8c3.1 0 5.6 2.5 5.6 5.8s-2.5 5.8-5.6 5.8zm0-10.5c-2.4 0-4.3 2-4.3 4.7s1.9 4.7 4.3 4.7 4.3-2 4.3-4.7-1.9-4.7-4.3-4.7zm7.9-.9h1.2v5.3l5.4-5.3h1.6l-5.7 5.5 5.8 5.7h-1.7l-5.5-5.4v5.4h-1.2v-11.2z" class="sticky-card-best-practices-1_svg__st4"/>
  </g>
  <path fill="none" d="M30 88h14v14H30z"/>
  <path fill="#6a6e73" d="m38.9 95 2.8-2.8c.3-.3.3-.9 0-1.3l-.6-.6c-.3-.3-.9-.3-1.3 0L37 93.1l-2.8-2.8c-.3-.3-.9-.3-1.3 0l-.6.6c-.3.3-.3.9 0 1.3l2.8 2.8-2.8 2.8c-.3.3-.3.9 0 1.3l.6.6c.3.3.9.3 1.3 0l2.8-2.8 2.8 2.8c.3.3.9.3 1.3 0l.6-.6c.3-.3.3-.9 0-1.3L38.9 95z"/>
</svg>
