<svg width="270" height="100" viewBox="0 0 270 100" fill="none" xmlns="http://www.w3.org/2000/svg">
<rect width="32" height="32" fill="#F2F2F2"/>
<g clip-path="url(#clip0_4076_8427)">
<path d="M9.70492 16.0002L16.3549 9.35516C16.5499 9.16016 16.5499 8.84516 16.3549 8.65016C16.1599 8.45516 15.8449 8.45516 15.6499 8.65016L8.82492 15.4702C8.53492 15.7602 8.53492 16.2402 8.82492 16.5302L15.6499 23.3552C15.7499 23.4552 15.8749 23.5002 16.0049 23.5002C16.1349 23.5002 16.2599 23.4502 16.3599 23.3552C16.5549 23.1602 16.5549 22.8452 16.3599 22.6502L9.70492 16.0002Z" fill="#A3A3A3"/>
<path d="M16.7049 16.0002L23.3549 9.35516C23.5499 9.16016 23.5499 8.84516 23.3549 8.65016C23.1599 8.45516 22.8449 8.45516 22.6499 8.65016L15.8249 15.4752C15.5349 15.7652 15.5349 16.2452 15.8249 16.5352L22.6499 23.3602C22.7499 23.4602 22.8749 23.5052 23.0049 23.5052C23.1349 23.5052 23.2599 23.4552 23.3599 23.3602C23.5549 23.1652 23.5549 22.8502 23.3599 22.6552L16.7149 16.0102L16.7049 16.0002Z" fill="#A3A3A3"/>
</g>
<rect width="32" height="32" transform="translate(34)" fill="#F2F2F2"/>
<g clip-path="url(#clip1_4076_8427)">
<path d="M53 23.5003C52.87 23.5003 52.745 23.4503 52.645 23.3553L45.82 16.5303C45.53 16.2403 45.53 15.7603 45.82 15.4703L52.645 8.64527C52.84 8.45027 53.155 8.45027 53.35 8.64527C53.545 8.84027 53.545 9.15527 53.35 9.35027L46.705 15.9953L53.35 22.6403C53.545 22.8353 53.545 23.1503 53.35 23.3453C53.25 23.4453 53.125 23.4903 52.995 23.4903L53 23.5003Z" fill="#A3A3A3"/>
</g>
<g filter="url(#filter0_i_4076_8427)">
<mask id="path-4-inside-1_4076_8427" fill="white">
<path d="M68 0H100V32H68V0Z"/>
</mask>
<path d="M68 0H100V32H68V0Z" fill="white"/>
<path d="M100 32V33H101V32H100ZM68 32H67V33H68V32ZM99 0V32H101V0H99ZM100 31H68V33H100V31ZM69 32V0H67V32H69Z" fill="#C7C7C7" mask="url(#path-4-inside-1_4076_8427)"/>
<path d="M83.9004 21.5V11.948L81.8844 12.796V11.388L84.4764 10.3H85.4844V21.5H83.9004Z" fill="#151515"/>
</g>
<rect width="32" height="32" transform="translate(102)" fill="#F2F2F2"/>
<path d="M114.347 21.5V20.38L118.891 15.548C119.2 15.228 119.44 14.94 119.611 14.684C119.781 14.428 119.899 14.188 119.963 13.964C120.037 13.7293 120.075 13.484 120.075 13.228C120.075 12.7267 119.872 12.3107 119.467 11.98C119.061 11.6493 118.549 11.484 117.931 11.484C117.419 11.484 116.939 11.5853 116.491 11.788C116.043 11.9907 115.547 12.3427 115.003 12.844L114.139 11.788C114.736 11.2333 115.349 10.8173 115.979 10.54C116.619 10.2627 117.28 10.124 117.963 10.124C118.677 10.124 119.307 10.252 119.851 10.508C120.395 10.764 120.816 11.1213 121.115 11.58C121.424 12.028 121.579 12.5453 121.579 13.132C121.579 13.5053 121.531 13.852 121.435 14.172C121.339 14.4813 121.173 14.812 120.939 15.164C120.704 15.5053 120.373 15.9 119.947 16.348L116.299 20.188L121.803 20.172V21.5H114.347Z" fill="#151515"/>
<path d="M147 23.14C146.653 23.14 146.353 23.02 146.1 22.78C145.86 22.5267 145.74 22.2267 145.74 21.88C145.74 21.5333 145.86 21.24 146.1 21C146.353 20.7467 146.653 20.62 147 20.62C147.347 20.62 147.64 20.7467 147.88 21C148.133 21.24 148.26 21.5333 148.26 21.88C148.26 22.2267 148.133 22.5267 147.88 22.78C147.64 23.02 147.347 23.14 147 23.14ZM152 23.14C151.653 23.14 151.353 23.02 151.1 22.78C150.86 22.5267 150.74 22.2267 150.74 21.88C150.74 21.5333 150.86 21.24 151.1 21C151.353 20.7467 151.653 20.62 152 20.62C152.347 20.62 152.64 20.7467 152.88 21C153.133 21.24 153.26 21.5333 153.26 21.88C153.26 22.2267 153.133 22.5267 152.88 22.78C152.64 23.02 152.347 23.14 152 23.14ZM157 23.14C156.653 23.14 156.353 23.02 156.1 22.78C155.86 22.5267 155.74 22.2267 155.74 21.88C155.74 21.5333 155.86 21.24 156.1 21C156.353 20.7467 156.653 20.62 157 20.62C157.347 20.62 157.64 20.7467 157.88 21C158.133 21.24 158.26 21.5333 158.26 21.88C158.26 22.2267 158.133 22.5267 157.88 22.78C157.64 23.02 157.347 23.14 157 23.14Z" fill="#A3A3A3"/>
<rect width="32" height="32" transform="translate(170)" fill="#F2F2F2"/>
<path d="M187.659 21.5V18.652H181.307V17.388L187.467 10.3H189.243V17.308H190.603V18.652H189.243V21.5H187.659ZM183.211 17.308H187.659V12.188L183.211 17.308Z" fill="#151515"/>
<rect width="32" height="32" transform="translate(204)" fill="#F2F2F2"/>
<g clip-path="url(#clip2_4076_8427)">
<path d="M217 23.5002C216.87 23.5002 216.745 23.4502 216.645 23.3552C216.45 23.1602 216.45 22.8452 216.645 22.6502L223.29 16.0052L216.645 9.35516C216.45 9.16016 216.45 8.84516 216.645 8.65016C216.84 8.45516 217.155 8.45516 217.35 8.65016L224.175 15.4752C224.465 15.7652 224.465 16.2452 224.175 16.5352L217.35 23.3602C217.25 23.4602 217.125 23.5052 216.995 23.5052L217 23.5002Z" fill="#151515"/>
</g>
<rect width="32" height="32" transform="translate(238)" fill="#F2F2F2"/>
<g clip-path="url(#clip3_4076_8427)">
<path d="M261.175 15.4703L254.355 8.64527C254.16 8.45027 253.845 8.45027 253.65 8.64527C253.455 8.84027 253.455 9.15527 253.65 9.35027L260.295 15.9953L253.65 22.6403C253.455 22.8353 253.455 23.1503 253.65 23.3453C253.75 23.4453 253.875 23.4903 254.005 23.4903C254.135 23.4903 254.26 23.4403 254.36 23.3453L261.185 16.5203C261.475 16.2303 261.475 15.7503 261.185 15.4603L261.175 15.4703Z" fill="#151515"/>
<path d="M254.175 15.4703L247.355 8.64527C247.16 8.45027 246.845 8.45027 246.65 8.64527C246.455 8.84027 246.455 9.15527 246.65 9.35027L253.295 15.9953L246.645 22.6453C246.45 22.8403 246.45 23.1553 246.645 23.3503C246.745 23.4503 246.87 23.4953 247 23.4953C247.13 23.4953 247.255 23.4453 247.355 23.3503L254.18 16.5253C254.47 16.2353 254.47 15.7553 254.18 15.4653L254.175 15.4703Z" fill="#151515"/>
</g>
<path d="M63.424 88V76.8H68.048C68.7733 76.8 69.4027 76.9387 69.936 77.216C70.4693 77.4827 70.88 77.8667 71.168 78.368C71.4667 78.8587 71.616 79.44 71.616 80.112C71.616 80.7733 71.4667 81.3547 71.168 81.856C70.88 82.3573 70.4693 82.7467 69.936 83.024C69.4027 83.2907 68.7733 83.424 68.048 83.424H64.656V88H63.424ZM64.656 82.368H67.904C68.6827 82.368 69.2907 82.1653 69.728 81.76C70.1653 81.3547 70.384 80.8053 70.384 80.112C70.384 79.4187 70.1653 78.8747 69.728 78.48C69.2907 78.0853 68.6827 77.888 67.904 77.888H64.656V82.368ZM75.6785 88.144C75.1238 88.144 74.6332 88.0427 74.2065 87.84C73.7798 87.6373 73.4438 87.36 73.1985 87.008C72.9638 86.6453 72.8465 86.2293 72.8465 85.76C72.8465 85.2907 72.9692 84.8853 73.2145 84.544C73.4598 84.192 73.8012 83.92 74.2385 83.728C74.6758 83.536 75.1878 83.44 75.7745 83.44C76.2225 83.44 76.6438 83.488 77.0385 83.584C77.4438 83.68 77.8172 83.8347 78.1585 84.048V82.976C78.1585 82.336 77.9878 81.856 77.6465 81.536C77.3052 81.2053 76.8038 81.04 76.1425 81.04C75.7798 81.04 75.4065 81.0933 75.0225 81.2C74.6492 81.3067 74.2332 81.4773 73.7745 81.712L73.3425 80.816C74.3878 80.3147 75.3692 80.064 76.2865 80.064C77.2572 80.064 78.0038 80.304 78.5265 80.784C79.0492 81.2533 79.3105 81.9307 79.3105 82.816V88H78.1585V87.088C77.8172 87.44 77.4385 87.7067 77.0225 87.888C76.6065 88.0587 76.1585 88.144 75.6785 88.144ZM73.9665 85.728C73.9665 86.1867 74.1425 86.5547 74.4945 86.832C74.8572 87.1093 75.3318 87.248 75.9185 87.248C76.3558 87.248 76.7558 87.1733 77.1185 87.024C77.4918 86.8747 77.8385 86.6507 78.1585 86.352V84.848C77.8278 84.656 77.4865 84.5173 77.1345 84.432C76.7825 84.336 76.3878 84.288 75.9505 84.288C75.3532 84.288 74.8732 84.4213 74.5105 84.688C74.1478 84.944 73.9665 85.2907 73.9665 85.728ZM85.3004 91.504C84.7777 91.504 84.2497 91.4293 83.7164 91.28C83.1937 91.1413 82.7084 90.944 82.2604 90.688L82.7564 89.792C83.2364 90.0373 83.6737 90.2187 84.0684 90.336C84.463 90.4533 84.8577 90.512 85.2524 90.512C85.967 90.512 86.5057 90.3413 86.8684 90C87.2417 89.6587 87.4284 89.1627 87.4284 88.512V86.944C87.1297 87.3173 86.767 87.6053 86.3404 87.808C85.9137 88 85.4444 88.096 84.9324 88.096C84.2604 88.096 83.6524 87.92 83.1084 87.568C82.5644 87.2053 82.1324 86.7253 81.8124 86.128C81.4924 85.52 81.3324 84.8427 81.3324 84.096C81.3324 83.3493 81.4924 82.6773 81.8124 82.08C82.143 81.472 82.5857 80.992 83.1404 80.64C83.695 80.2773 84.3137 80.096 84.9964 80.096C85.487 80.096 85.9404 80.192 86.3564 80.384C86.7724 80.5653 87.135 80.8373 87.4444 81.2V80.192H88.5964V88.496C88.5964 89.4667 88.3137 90.208 87.7484 90.72C87.183 91.2427 86.367 91.504 85.3004 91.504ZM85.2204 87.088C85.679 87.088 86.1004 86.9973 86.4844 86.816C86.8684 86.624 87.183 86.3627 87.4284 86.032V82.176C87.1724 81.8453 86.847 81.5893 86.4524 81.408C86.0684 81.216 85.6577 81.12 85.2204 81.12C84.6977 81.12 84.2284 81.248 83.8124 81.504C83.407 81.76 83.0817 82.112 82.8364 82.56C82.6017 83.008 82.4844 83.52 82.4844 84.096C82.4844 84.6613 82.6017 85.1733 82.8364 85.632C83.0817 86.08 83.407 86.4373 83.8124 86.704C84.2284 86.96 84.6977 87.088 85.2204 87.088ZM94.5169 88.16C93.7915 88.16 93.1355 87.984 92.5489 87.632C91.9622 87.2693 91.4982 86.784 91.1569 86.176C90.8155 85.5573 90.6449 84.864 90.6449 84.096C90.6449 83.328 90.8049 82.64 91.1249 82.032C91.4555 81.424 91.8982 80.944 92.4529 80.592C93.0075 80.24 93.6262 80.064 94.3089 80.064C95.0022 80.064 95.6155 80.24 96.1489 80.592C96.6929 80.9333 97.1195 81.4027 97.4289 82C97.7489 82.5867 97.9089 83.2533 97.9089 84V84.352H91.7809C91.8235 84.8853 91.9675 85.3653 92.2129 85.792C92.4689 86.208 92.7995 86.5387 93.2049 86.784C93.6209 87.0187 94.0742 87.136 94.5649 87.136C94.9702 87.136 95.3595 87.0667 95.7329 86.928C96.1169 86.7787 96.4422 86.5813 96.7089 86.336L97.4449 87.12C96.9969 87.472 96.5329 87.7333 96.0529 87.904C95.5729 88.0747 95.0609 88.16 94.5169 88.16ZM91.8129 83.52H96.7569C96.7035 83.0507 96.5595 82.6347 96.3249 82.272C96.1009 81.8987 95.8129 81.6053 95.4609 81.392C95.1195 81.1787 94.7355 81.072 94.3089 81.072C93.8822 81.072 93.4929 81.1787 93.1409 81.392C92.7889 81.5947 92.4955 81.8827 92.2609 82.256C92.0369 82.6187 91.8875 83.04 91.8129 83.52Z" fill="#151515"/>
<g filter="url(#filter1_i_4076_8427)">
<mask id="path-14-inside-2_4076_8427" fill="white">
<path d="M107 64H171V100H107V64Z"/>
</mask>
<path d="M107 64H171V100H107V64Z" fill="white"/>
<path d="M107 64V63H106V64H107ZM171 64H172V63H171V64ZM107 65H171V63H107V65ZM170 64V100H172V64H170ZM108 100V64H106V100H108Z" fill="#C7C7C7" mask="url(#path-14-inside-2_4076_8427)"/>
<path d="M117.448 88V78.048L115.656 78.848V77.792L117.88 76.8H118.6V88H117.448Z" fill="#151515"/>
</g>
<path d="M183.656 88.128C182.931 88.128 182.28 87.952 181.704 87.6C181.128 87.248 180.675 86.768 180.344 86.16C180.013 85.552 179.848 84.864 179.848 84.096C179.848 83.328 180.013 82.64 180.344 82.032C180.675 81.424 181.128 80.944 181.704 80.592C182.28 80.24 182.931 80.064 183.656 80.064C184.371 80.064 185.011 80.24 185.576 80.592C186.152 80.944 186.605 81.424 186.936 82.032C187.267 82.64 187.432 83.328 187.432 84.096C187.432 84.864 187.267 85.552 186.936 86.16C186.605 86.768 186.152 87.248 185.576 87.6C185.011 87.952 184.371 88.128 183.656 88.128ZM183.64 87.104C184.152 87.104 184.605 86.976 185 86.72C185.395 86.4533 185.704 86.0907 185.928 85.632C186.163 85.1733 186.28 84.6613 186.28 84.096C186.28 83.52 186.163 83.008 185.928 82.56C185.704 82.1013 185.395 81.744 185 81.488C184.605 81.2213 184.152 81.088 183.64 81.088C183.128 81.088 182.675 81.2213 182.28 81.488C181.885 81.744 181.571 82.1013 181.336 82.56C181.112 83.008 181 83.52 181 84.096C181 84.6613 181.112 85.1733 181.336 85.632C181.571 86.0907 181.885 86.4533 182.28 86.72C182.675 86.976 183.128 87.104 183.64 87.104ZM189.989 88V81.152H188.245V80.192H189.989V78.56C189.989 77.792 190.192 77.2 190.597 76.784C191.002 76.368 191.578 76.16 192.325 76.16C192.538 76.16 192.73 76.1707 192.901 76.192C193.082 76.2133 193.242 76.2507 193.381 76.304V77.36C193.21 77.3067 193.056 77.2693 192.917 77.248C192.778 77.2267 192.618 77.216 192.437 77.216C191.989 77.216 191.664 77.328 191.461 77.552C191.258 77.7653 191.157 78.1067 191.157 78.576V80.192H193.381V81.152H191.157V88H189.989Z" fill="#151515"/>
<path d="M204.125 88V85.008H198.077V84.096L204.029 76.8H205.261V84H206.813V85.008H205.261V88H204.125ZM199.421 84H204.125V78.192L199.421 84Z" fill="#0066CC"/>
<defs>
<filter id="filter0_i_4076_8427" x="68" y="0" width="32" height="32" filterUnits="userSpaceOnUse" color-interpolation-filters="sRGB">
<feFlood flood-opacity="0" result="BackgroundImageFix"/>
<feBlend mode="normal" in="SourceGraphic" in2="BackgroundImageFix" result="shape"/>
<feColorMatrix in="SourceAlpha" type="matrix" values="0 0 0 0 0 0 0 0 0 0 0 0 0 0 0 0 0 0 127 0" result="hardAlpha"/>
<feOffset dy="3"/>
<feComposite in2="hardAlpha" operator="arithmetic" k2="-1" k3="1"/>
<feColorMatrix type="matrix" values="0 0 0 0 0 0 0 0 0 0.4 0 0 0 0 0.8 0 0 0 1 0"/>
<feBlend mode="normal" in2="shape" result="effect1_innerShadow_4076_8427"/>
</filter>
<filter id="filter1_i_4076_8427" x="107" y="64" width="64" height="36" filterUnits="userSpaceOnUse" color-interpolation-filters="sRGB">
<feFlood flood-opacity="0" result="BackgroundImageFix"/>
<feBlend mode="normal" in="SourceGraphic" in2="BackgroundImageFix" result="shape"/>
<feColorMatrix in="SourceAlpha" type="matrix" values="0 0 0 0 0 0 0 0 0 0 0 0 0 0 0 0 0 0 127 0" result="hardAlpha"/>
<feOffset dy="-1"/>
<feComposite in2="hardAlpha" operator="arithmetic" k2="-1" k3="1"/>
<feColorMatrix type="matrix" values="0 0 0 0 0.301961 0 0 0 0 0.301961 0 0 0 0 0.301961 0 0 0 1 0"/>
<feBlend mode="normal" in2="shape" result="effect1_innerShadow_4076_8427"/>
</filter>
<clipPath id="clip0_4076_8427">
<rect width="16" height="16" fill="white" transform="translate(8 8)"/>
</clipPath>
<clipPath id="clip1_4076_8427">
<rect width="16" height="16" fill="white" transform="translate(42 8)"/>
</clipPath>
<clipPath id="clip2_4076_8427">
<rect width="16" height="16" fill="white" transform="translate(212 8)"/>
</clipPath>
<clipPath id="clip3_4076_8427">
<rect width="16" height="16" fill="white" transform="translate(246 8)"/>
</clipPath>
</defs>
</svg>
