<svg width="372" height="100" viewBox="0 0 372 100" fill="none" xmlns="http://www.w3.org/2000/svg">
<rect width="32" height="32" fill="#F2F2F2"/>
<g clip-path="url(#clip0_4077_5692)">
<path d="M9.70492 16.0002L16.3549 9.35516C16.5499 9.16016 16.5499 8.84516 16.3549 8.65016C16.1599 8.45516 15.8449 8.45516 15.6499 8.65016L8.82492 15.4702C8.53492 15.7602 8.53492 16.2402 8.82492 16.5302L15.6499 23.3552C15.7499 23.4552 15.8749 23.5002 16.0049 23.5002C16.1349 23.5002 16.2599 23.4502 16.3599 23.3552C16.5549 23.1602 16.5549 22.8452 16.3599 22.6502L9.70492 16.0002Z" fill="#A3A3A3"/>
<path d="M16.7049 16.0002L23.3549 9.35516C23.5499 9.16016 23.5499 8.84516 23.3549 8.65016C23.1599 8.45516 22.8449 8.45516 22.6499 8.65016L15.8249 15.4752C15.5349 15.7652 15.5349 16.2452 15.8249 16.5352L22.6499 23.3602C22.7499 23.4602 22.8749 23.5052 23.0049 23.5052C23.1349 23.5052 23.2599 23.4552 23.3599 23.3602C23.5549 23.1652 23.5549 22.8502 23.3599 22.6552L16.7149 16.0102L16.7049 16.0002Z" fill="#A3A3A3"/>
</g>
<rect width="32" height="32" transform="translate(34)" fill="#F2F2F2"/>
<g clip-path="url(#clip1_4077_5692)">
<path d="M53 23.4998C52.87 23.4998 52.745 23.4498 52.645 23.3548L45.82 16.5298C45.53 16.2398 45.53 15.7598 45.82 15.4698L52.645 8.64479C52.84 8.44979 53.155 8.44979 53.35 8.64479C53.545 8.83979 53.545 9.15479 53.35 9.34979L46.705 15.9948L53.35 22.6398C53.545 22.8348 53.545 23.1498 53.35 23.3448C53.25 23.4448 53.125 23.4898 52.995 23.4898L53 23.4998Z" fill="#A3A3A3"/>
</g>
<g filter="url(#filter0_i_4077_5692)">
<mask id="path-4-inside-1_4077_5692" fill="white">
<path d="M68 0H100V32H68V0Z"/>
</mask>
<path d="M68 0H100V32H68V0Z" fill="white"/>
<path d="M100 32V33H101V32H100ZM68 32H67V33H68V32ZM99 0V32H101V0H99ZM100 31H68V33H100V31ZM69 32V0H67V32H69Z" fill="#C7C7C7" mask="url(#path-4-inside-1_4077_5692)"/>
<path d="M83.9004 21.5V11.948L81.8844 12.796V11.388L84.4764 10.3H85.4844V21.5H83.9004Z" fill="#151515"/>
</g>
<path d="M114 21.612C113.723 21.612 113.483 21.516 113.28 21.324C113.088 21.1213 112.992 20.8813 112.992 20.604C112.992 20.3267 113.088 20.092 113.28 19.9C113.483 19.6973 113.723 19.596 114 19.596C114.277 19.596 114.512 19.6973 114.704 19.9C114.907 20.092 115.008 20.3267 115.008 20.604C115.008 20.8813 114.907 21.1213 114.704 21.324C114.512 21.516 114.277 21.612 114 21.612ZM118 21.612C117.723 21.612 117.483 21.516 117.28 21.324C117.088 21.1213 116.992 20.8813 116.992 20.604C116.992 20.3267 117.088 20.092 117.28 19.9C117.483 19.6973 117.723 19.596 118 19.596C118.277 19.596 118.512 19.6973 118.704 19.9C118.907 20.092 119.008 20.3267 119.008 20.604C119.008 20.8813 118.907 21.1213 118.704 21.324C118.512 21.516 118.277 21.612 118 21.612ZM122 21.612C121.723 21.612 121.483 21.516 121.28 21.324C121.088 21.1213 120.992 20.8813 120.992 20.604C120.992 20.3267 121.088 20.092 121.28 19.9C121.483 19.6973 121.723 19.596 122 19.596C122.277 19.596 122.512 19.6973 122.704 19.9C122.907 20.092 123.008 20.3267 123.008 20.604C123.008 20.8813 122.907 21.1213 122.704 21.324C122.512 21.516 122.277 21.612 122 21.612Z" fill="#A3A3A3"/>
<rect width="32" height="32" transform="translate(136)" fill="#F2F2F2"/>
<path d="M143.362 21.5V20.38L147.906 15.548C148.215 15.228 148.455 14.94 148.626 14.684C148.797 14.428 148.914 14.188 148.978 13.964C149.053 13.7293 149.09 13.484 149.09 13.228C149.09 12.7267 148.887 12.3107 148.482 11.98C148.077 11.6493 147.565 11.484 146.946 11.484C146.434 11.484 145.954 11.5853 145.506 11.788C145.058 11.9907 144.562 12.3427 144.018 12.844L143.154 11.788C143.751 11.2333 144.365 10.8173 144.994 10.54C145.634 10.2627 146.295 10.124 146.978 10.124C147.693 10.124 148.322 10.252 148.866 10.508C149.41 10.764 149.831 11.1213 150.13 11.58C150.439 12.028 150.594 12.5453 150.594 13.132C150.594 13.5053 150.546 13.852 150.45 14.172C150.354 14.4813 150.189 14.812 149.954 15.164C149.719 15.5053 149.389 15.9 148.962 16.348L145.314 20.188L150.818 20.172V21.5H143.362ZM157.956 21.5V18.652H151.604V17.388L157.764 10.3H159.54V17.308H160.9V18.652H159.54V21.5H157.956ZM153.508 17.308H157.956V12.188L153.508 17.308Z" fill="#151515"/>
<rect width="32" height="32" transform="translate(170)" fill="#F2F2F2"/>
<path d="M177.69 21.5V20.38L182.234 15.548C182.544 15.228 182.784 14.94 182.954 14.684C183.125 14.428 183.242 14.188 183.306 13.964C183.381 13.7293 183.418 13.484 183.418 13.228C183.418 12.7267 183.216 12.3107 182.81 11.98C182.405 11.6493 181.893 11.484 181.274 11.484C180.762 11.484 180.282 11.5853 179.834 11.788C179.386 11.9907 178.89 12.3427 178.346 12.844L177.482 11.788C178.08 11.2333 178.693 10.8173 179.322 10.54C179.962 10.2627 180.624 10.124 181.306 10.124C182.021 10.124 182.65 10.252 183.194 10.508C183.738 10.764 184.16 11.1213 184.458 11.58C184.768 12.028 184.922 12.5453 184.922 13.132C184.922 13.5053 184.874 13.852 184.778 14.172C184.682 14.4813 184.517 14.812 184.282 15.164C184.048 15.5053 183.717 15.9 183.29 16.348L179.642 20.188L185.146 20.172V21.5H177.69ZM190.261 21.676C188.768 21.676 187.472 21.1693 186.373 20.156L187.317 19.1C187.797 19.5373 188.272 19.8573 188.741 20.06C189.221 20.252 189.744 20.348 190.309 20.348C190.821 20.348 191.264 20.252 191.637 20.06C192.011 19.8573 192.304 19.58 192.517 19.228C192.731 18.8653 192.837 18.4547 192.837 17.996C192.837 17.324 192.597 16.78 192.117 16.364C191.648 15.948 191.035 15.74 190.277 15.74C189.893 15.74 189.515 15.7933 189.141 15.9C188.768 15.996 188.379 16.1507 187.973 16.364L186.885 16.028L187.141 10.3H193.797V11.628H188.485L188.325 15.084C188.741 14.8707 189.136 14.7267 189.509 14.652C189.893 14.5667 190.288 14.524 190.693 14.524C191.44 14.524 192.085 14.668 192.629 14.956C193.184 15.2333 193.616 15.628 193.925 16.14C194.235 16.652 194.389 17.244 194.389 17.916C194.389 18.6627 194.213 19.3187 193.861 19.884C193.52 20.4387 193.04 20.876 192.421 21.196C191.803 21.516 191.083 21.676 190.261 21.676Z" fill="#151515"/>
<rect width="32" height="32" transform="translate(204)" fill="#F2F2F2"/>
<path d="M211.37 21.5V20.38L215.914 15.548C216.223 15.228 216.463 14.94 216.634 14.684C216.805 14.428 216.922 14.188 216.986 13.964C217.061 13.7293 217.098 13.484 217.098 13.228C217.098 12.7267 216.895 12.3107 216.49 11.98C216.085 11.6493 215.573 11.484 214.954 11.484C214.442 11.484 213.962 11.5853 213.514 11.788C213.066 11.9907 212.57 12.3427 212.026 12.844L211.162 11.788C211.759 11.2333 212.373 10.8173 213.002 10.54C213.642 10.2627 214.303 10.124 214.986 10.124C215.701 10.124 216.33 10.252 216.874 10.508C217.418 10.764 217.839 11.1213 218.138 11.58C218.447 12.028 218.602 12.5453 218.602 13.132C218.602 13.5053 218.554 13.852 218.458 14.172C218.362 14.4813 218.197 14.812 217.962 15.164C217.727 15.5053 217.397 15.9 216.97 16.348L213.322 20.188L218.826 20.172V21.5H211.37ZM224.821 21.66C223.925 21.66 223.136 21.4307 222.453 20.972C221.77 20.5133 221.237 19.8787 220.853 19.068C220.469 18.2467 220.277 17.2973 220.277 16.22C220.277 14.9933 220.49 13.9267 220.917 13.02C221.344 12.1027 221.941 11.3933 222.709 10.892C223.488 10.38 224.394 10.124 225.429 10.124C225.941 10.124 226.448 10.204 226.949 10.364C227.461 10.5133 227.904 10.732 228.277 11.02L227.461 12.156C227.13 11.9427 226.784 11.7827 226.421 11.676C226.069 11.5693 225.696 11.516 225.301 11.516C224.576 11.516 223.952 11.7027 223.429 12.076C222.917 12.4387 222.522 12.9667 222.245 13.66C221.968 14.3533 221.824 15.1907 221.813 16.172C222.208 15.6493 222.682 15.244 223.237 14.956C223.792 14.6573 224.368 14.508 224.965 14.508C225.701 14.508 226.352 14.6573 226.917 14.956C227.482 15.244 227.925 15.6493 228.245 16.172C228.565 16.6947 228.725 17.292 228.725 17.964C228.725 18.668 228.554 19.3027 228.213 19.868C227.872 20.4227 227.408 20.86 226.821 21.18C226.234 21.5 225.568 21.66 224.821 21.66ZM224.741 15.74C224.186 15.74 223.658 15.868 223.157 16.124C222.666 16.38 222.24 16.732 221.877 17.18C221.973 17.8093 222.149 18.364 222.405 18.844C222.672 19.3133 223.008 19.6813 223.413 19.948C223.818 20.204 224.272 20.332 224.773 20.332C225.242 20.332 225.658 20.2307 226.021 20.028C226.384 19.8253 226.666 19.548 226.869 19.196C227.082 18.844 227.189 18.444 227.189 17.996C227.189 17.5587 227.082 17.1693 226.869 16.828C226.666 16.4867 226.378 16.22 226.005 16.028C225.642 15.836 225.221 15.74 224.741 15.74Z" fill="#151515"/>
<path d="M249 23.14C248.653 23.14 248.353 23.02 248.1 22.78C247.86 22.5267 247.74 22.2267 247.74 21.88C247.74 21.5333 247.86 21.24 248.1 21C248.353 20.7467 248.653 20.62 249 20.62C249.347 20.62 249.64 20.7467 249.88 21C250.133 21.24 250.26 21.5333 250.26 21.88C250.26 22.2267 250.133 22.5267 249.88 22.78C249.64 23.02 249.347 23.14 249 23.14ZM254 23.14C253.653 23.14 253.353 23.02 253.1 22.78C252.86 22.5267 252.74 22.2267 252.74 21.88C252.74 21.5333 252.86 21.24 253.1 21C253.353 20.7467 253.653 20.62 254 20.62C254.347 20.62 254.64 20.7467 254.88 21C255.133 21.24 255.26 21.5333 255.26 21.88C255.26 22.2267 255.133 22.5267 254.88 22.78C254.64 23.02 254.347 23.14 254 23.14ZM259 23.14C258.653 23.14 258.353 23.02 258.1 22.78C257.86 22.5267 257.74 22.2267 257.74 21.88C257.74 21.5333 257.86 21.24 258.1 21C258.353 20.7467 258.653 20.62 259 20.62C259.347 20.62 259.64 20.7467 259.88 21C260.133 21.24 260.26 21.5333 260.26 21.88C260.26 22.2267 260.133 22.5267 259.88 22.78C259.64 23.02 259.347 23.14 259 23.14Z" fill="#A3A3A3"/>
<rect width="32" height="32" transform="translate(272)" fill="#F2F2F2"/>
<path d="M282.457 21.676C280.963 21.676 279.667 21.1693 278.569 20.156L279.513 19.1C279.993 19.5373 280.467 19.8573 280.937 20.06C281.417 20.252 281.939 20.348 282.505 20.348C283.017 20.348 283.459 20.252 283.833 20.06C284.206 19.8573 284.499 19.58 284.713 19.228C284.926 18.8653 285.033 18.4547 285.033 17.996C285.033 17.324 284.793 16.78 284.313 16.364C283.843 15.948 283.23 15.74 282.473 15.74C282.089 15.74 281.71 15.7933 281.337 15.9C280.963 15.996 280.574 16.1507 280.169 16.364L279.081 16.028L279.337 10.3H285.993V11.628H280.681L280.521 15.084C280.937 14.8707 281.331 14.7267 281.705 14.652C282.089 14.5667 282.483 14.524 282.889 14.524C283.635 14.524 284.281 14.668 284.825 14.956C285.379 15.2333 285.811 15.628 286.121 16.14C286.43 16.652 286.585 17.244 286.585 17.916C286.585 18.6627 286.409 19.3187 286.057 19.884C285.715 20.4387 285.235 20.876 284.617 21.196C283.998 21.516 283.278 21.676 282.457 21.676ZM292.665 21.676C291.726 21.676 290.905 21.436 290.201 20.956C289.497 20.4653 288.942 19.788 288.537 18.924C288.142 18.0493 287.945 17.0413 287.945 15.9C287.945 14.7587 288.142 13.756 288.537 12.892C288.942 12.0173 289.497 11.34 290.201 10.86C290.905 10.3693 291.726 10.124 292.665 10.124C293.593 10.124 294.409 10.3693 295.113 10.86C295.817 11.34 296.366 12.0173 296.761 12.892C297.166 13.756 297.369 14.7587 297.369 15.9C297.369 17.0413 297.166 18.0493 296.761 18.924C296.366 19.788 295.817 20.4653 295.113 20.956C294.409 21.436 293.593 21.676 292.665 21.676ZM292.665 20.284C293.305 20.284 293.86 20.108 294.329 19.756C294.798 19.3933 295.161 18.8813 295.417 18.22C295.673 17.5587 295.801 16.7853 295.801 15.9C295.801 15.004 295.673 14.2307 295.417 13.58C295.161 12.9187 294.798 12.412 294.329 12.06C293.86 11.6973 293.305 11.516 292.665 11.516C292.025 11.516 291.465 11.6973 290.985 12.06C290.516 12.412 290.153 12.9187 289.897 13.58C289.641 14.2307 289.513 15.004 289.513 15.9C289.513 16.7853 289.641 17.5587 289.897 18.22C290.153 18.8813 290.516 19.3933 290.985 19.756C291.465 20.108 292.025 20.284 292.665 20.284Z" fill="#151515"/>
<rect width="32" height="32" transform="translate(306)" fill="#F2F2F2"/>
<g clip-path="url(#clip2_4077_5692)">
<path d="M319 23.5002C318.87 23.5002 318.745 23.4502 318.645 23.3552C318.45 23.1602 318.45 22.8452 318.645 22.6502L325.29 16.0052L318.645 9.35516C318.45 9.16016 318.45 8.84516 318.645 8.65016C318.84 8.45516 319.155 8.45516 319.35 8.65016L326.175 15.4752C326.465 15.7652 326.465 16.2452 326.175 16.5352L319.35 23.3602C319.25 23.4602 319.125 23.5052 318.995 23.5052L319 23.5002Z" fill="#151515"/>
</g>
<rect width="32" height="32" transform="translate(340)" fill="#F2F2F2"/>
<g clip-path="url(#clip3_4077_5692)">
<path d="M363.175 15.4698L356.355 8.64479C356.16 8.44979 355.845 8.44979 355.65 8.64479C355.455 8.83979 355.455 9.15479 355.65 9.34979L362.295 15.9948L355.65 22.6398C355.455 22.8348 355.455 23.1498 355.65 23.3448C355.75 23.4448 355.875 23.4898 356.005 23.4898C356.135 23.4898 356.26 23.4398 356.36 23.3448L363.185 16.5198C363.475 16.2298 363.475 15.7498 363.185 15.4598L363.175 15.4698Z" fill="#151515"/>
<path d="M356.175 15.4698L349.355 8.64479C349.16 8.44979 348.845 8.44979 348.65 8.64479C348.455 8.83979 348.455 9.15479 348.65 9.34979L355.295 15.9948L348.645 22.6448C348.45 22.8398 348.45 23.1548 348.645 23.3498C348.745 23.4498 348.87 23.4948 349 23.4948C349.13 23.4948 349.255 23.4448 349.355 23.3498L356.18 16.5248C356.47 16.2348 356.47 15.7548 356.18 15.4648L356.175 15.4698Z" fill="#151515"/>
</g>
<path d="M109.424 88V76.8H114.048C114.773 76.8 115.403 76.9387 115.936 77.216C116.469 77.4827 116.88 77.8667 117.168 78.368C117.467 78.8587 117.616 79.44 117.616 80.112C117.616 80.7733 117.467 81.3547 117.168 81.856C116.88 82.3573 116.469 82.7467 115.936 83.024C115.403 83.2907 114.773 83.424 114.048 83.424H110.656V88H109.424ZM110.656 82.368H113.904C114.683 82.368 115.291 82.1653 115.728 81.76C116.165 81.3547 116.384 80.8053 116.384 80.112C116.384 79.4187 116.165 78.8747 115.728 78.48C115.291 78.0853 114.683 77.888 113.904 77.888H110.656V82.368ZM121.679 88.144C121.124 88.144 120.633 88.0427 120.207 87.84C119.78 87.6373 119.444 87.36 119.199 87.008C118.964 86.6453 118.847 86.2293 118.847 85.76C118.847 85.2907 118.969 84.8853 119.215 84.544C119.46 84.192 119.801 83.92 120.239 83.728C120.676 83.536 121.188 83.44 121.775 83.44C122.223 83.44 122.644 83.488 123.039 83.584C123.444 83.68 123.817 83.8347 124.159 84.048V82.976C124.159 82.336 123.988 81.856 123.647 81.536C123.305 81.2053 122.804 81.04 122.143 81.04C121.78 81.04 121.407 81.0933 121.023 81.2C120.649 81.3067 120.233 81.4773 119.775 81.712L119.343 80.816C120.388 80.3147 121.369 80.064 122.286 80.064C123.257 80.064 124.004 80.304 124.527 80.784C125.049 81.2533 125.311 81.9307 125.311 82.816V88H124.159V87.088C123.817 87.44 123.439 87.7067 123.023 87.888C122.607 88.0587 122.159 88.144 121.679 88.144ZM119.967 85.728C119.967 86.1867 120.143 86.5547 120.495 86.832C120.857 87.1093 121.332 87.248 121.919 87.248C122.356 87.248 122.756 87.1733 123.119 87.024C123.492 86.8747 123.839 86.6507 124.159 86.352V84.848C123.828 84.656 123.487 84.5173 123.135 84.432C122.783 84.336 122.388 84.288 121.951 84.288C121.353 84.288 120.873 84.4213 120.511 84.688C120.148 84.944 119.967 85.2907 119.967 85.728ZM131.3 91.504C130.778 91.504 130.25 91.4293 129.716 91.28C129.194 91.1413 128.708 90.944 128.26 90.688L128.756 89.792C129.236 90.0373 129.674 90.2187 130.068 90.336C130.463 90.4533 130.858 90.512 131.252 90.512C131.967 90.512 132.506 90.3413 132.868 90C133.242 89.6587 133.428 89.1627 133.428 88.512V86.944C133.13 87.3173 132.767 87.6053 132.34 87.808C131.914 88 131.444 88.096 130.932 88.096C130.26 88.096 129.652 87.92 129.108 87.568C128.564 87.2053 128.132 86.7253 127.812 86.128C127.492 85.52 127.332 84.8427 127.332 84.096C127.332 83.3493 127.492 82.6773 127.812 82.08C128.143 81.472 128.586 80.992 129.14 80.64C129.695 80.2773 130.314 80.096 130.996 80.096C131.487 80.096 131.94 80.192 132.356 80.384C132.772 80.5653 133.135 80.8373 133.444 81.2V80.192H134.596V88.496C134.596 89.4667 134.314 90.208 133.748 90.72C133.183 91.2427 132.367 91.504 131.3 91.504ZM131.22 87.088C131.679 87.088 132.1 86.9973 132.484 86.816C132.868 86.624 133.183 86.3627 133.428 86.032V82.176C133.172 81.8453 132.847 81.5893 132.452 81.408C132.068 81.216 131.658 81.12 131.22 81.12C130.698 81.12 130.228 81.248 129.812 81.504C129.407 81.76 129.082 82.112 128.836 82.56C128.602 83.008 128.484 83.52 128.484 84.096C128.484 84.6613 128.602 85.1733 128.836 85.632C129.082 86.08 129.407 86.4373 129.812 86.704C130.228 86.96 130.698 87.088 131.22 87.088ZM140.517 88.16C139.792 88.16 139.136 87.984 138.549 87.632C137.962 87.2693 137.498 86.784 137.157 86.176C136.816 85.5573 136.645 84.864 136.645 84.096C136.645 83.328 136.805 82.64 137.125 82.032C137.456 81.424 137.898 80.944 138.453 80.592C139.008 80.24 139.626 80.064 140.309 80.064C141.002 80.064 141.616 80.24 142.149 80.592C142.693 80.9333 143.12 81.4027 143.429 82C143.749 82.5867 143.909 83.2533 143.909 84V84.352H137.781C137.824 84.8853 137.968 85.3653 138.213 85.792C138.469 86.208 138.8 86.5387 139.205 86.784C139.621 87.0187 140.074 87.136 140.565 87.136C140.97 87.136 141.36 87.0667 141.733 86.928C142.117 86.7787 142.442 86.5813 142.709 86.336L143.445 87.12C142.997 87.472 142.533 87.7333 142.053 87.904C141.573 88.0747 141.061 88.16 140.517 88.16ZM137.813 83.52H142.757C142.704 83.0507 142.56 82.6347 142.325 82.272C142.101 81.8987 141.813 81.6053 141.461 81.392C141.12 81.1787 140.736 81.072 140.309 81.072C139.882 81.072 139.493 81.1787 139.141 81.392C138.789 81.5947 138.496 81.8827 138.261 82.256C138.037 82.6187 137.888 83.04 137.813 83.52Z" fill="#151515"/>
<g filter="url(#filter1_i_4077_5692)">
<mask id="path-17-inside-2_4077_5692" fill="white">
<path d="M153 64H217V100H153V64Z"/>
</mask>
<path d="M153 64H217V100H153V64Z" fill="white"/>
<path d="M153 64V63H152V64H153ZM217 64H218V63H217V64ZM153 65H217V63H153V65ZM216 64V100H218V64H216ZM154 100V64H152V100H154Z" fill="#C7C7C7" mask="url(#path-17-inside-2_4077_5692)"/>
<path d="M163.448 88V78.048L161.656 78.848V77.792L163.88 76.8H164.6V88H163.448Z" fill="#151515"/>
</g>
<path d="M229.656 88.128C228.931 88.128 228.28 87.952 227.704 87.6C227.128 87.248 226.675 86.768 226.344 86.16C226.013 85.552 225.848 84.864 225.848 84.096C225.848 83.328 226.013 82.64 226.344 82.032C226.675 81.424 227.128 80.944 227.704 80.592C228.28 80.24 228.931 80.064 229.656 80.064C230.371 80.064 231.011 80.24 231.576 80.592C232.152 80.944 232.605 81.424 232.936 82.032C233.267 82.64 233.432 83.328 233.432 84.096C233.432 84.864 233.267 85.552 232.936 86.16C232.605 86.768 232.152 87.248 231.576 87.6C231.011 87.952 230.371 88.128 229.656 88.128ZM229.64 87.104C230.152 87.104 230.605 86.976 231 86.72C231.395 86.4533 231.704 86.0907 231.928 85.632C232.163 85.1733 232.28 84.6613 232.28 84.096C232.28 83.52 232.163 83.008 231.928 82.56C231.704 82.1013 231.395 81.744 231 81.488C230.605 81.2213 230.152 81.088 229.64 81.088C229.128 81.088 228.675 81.2213 228.28 81.488C227.885 81.744 227.571 82.1013 227.336 82.56C227.112 83.008 227 83.52 227 84.096C227 84.6613 227.112 85.1733 227.336 85.632C227.571 86.0907 227.885 86.4533 228.28 86.72C228.675 86.976 229.128 87.104 229.64 87.104ZM235.989 88V81.152H234.245V80.192H235.989V78.56C235.989 77.792 236.192 77.2 236.597 76.784C237.002 76.368 237.578 76.16 238.325 76.16C238.538 76.16 238.73 76.1707 238.901 76.192C239.082 76.2133 239.242 76.2507 239.381 76.304V77.36C239.21 77.3067 239.056 77.2693 238.917 77.248C238.778 77.2267 238.618 77.216 238.437 77.216C237.989 77.216 237.664 77.328 237.461 77.552C237.258 77.7653 237.157 78.1067 237.157 78.576V80.192H239.381V81.152H237.157V88H235.989Z" fill="#151515"/>
<path d="M247.853 88.176C246.381 88.176 245.112 87.6693 244.045 86.656L244.765 85.872C245.256 86.3307 245.741 86.6667 246.221 86.88C246.712 87.0827 247.261 87.184 247.869 87.184C248.413 87.184 248.893 87.072 249.309 86.848C249.725 86.624 250.045 86.3093 250.269 85.904C250.504 85.4987 250.621 85.0347 250.621 84.512C250.621 83.7653 250.365 83.1627 249.853 82.704C249.352 82.2453 248.69 82.016 247.869 82.016C247.442 82.016 247.026 82.0693 246.621 82.176C246.216 82.272 245.794 82.432 245.357 82.656L244.557 82.4L244.813 76.8H251.181V77.808H245.805L245.629 81.68C246.056 81.4667 246.466 81.3173 246.861 81.232C247.256 81.136 247.672 81.088 248.109 81.088C248.845 81.088 249.485 81.232 250.029 81.52C250.584 81.7973 251.01 82.192 251.309 82.704C251.618 83.2053 251.773 83.792 251.773 84.464C251.773 85.2 251.608 85.8453 251.277 86.4C250.946 86.9547 250.488 87.392 249.901 87.712C249.314 88.0213 248.632 88.176 247.853 88.176ZM257.858 88.176C257.005 88.176 256.247 87.9307 255.586 87.44C254.935 86.9493 254.423 86.272 254.05 85.408C253.677 84.5333 253.49 83.5307 253.49 82.4C253.49 81.2587 253.677 80.256 254.05 79.392C254.423 78.528 254.935 77.8507 255.586 77.36C256.247 76.8693 257.005 76.624 257.858 76.624C258.711 76.624 259.463 76.8693 260.114 77.36C260.775 77.8507 261.293 78.528 261.666 79.392C262.039 80.256 262.226 81.2587 262.226 82.4C262.226 83.5307 262.039 84.5333 261.666 85.408C261.293 86.272 260.775 86.9493 260.114 87.44C259.463 87.9307 258.711 88.176 257.858 88.176ZM257.858 87.136C258.509 87.136 259.069 86.944 259.538 86.56C260.018 86.1653 260.391 85.616 260.658 84.912C260.925 84.1973 261.058 83.36 261.058 82.4C261.058 81.44 260.925 80.608 260.658 79.904C260.391 79.1893 260.018 78.64 259.538 78.256C259.069 77.8613 258.509 77.664 257.858 77.664C257.218 77.664 256.658 77.8613 256.178 78.256C255.698 78.64 255.325 79.1893 255.058 79.904C254.791 80.608 254.658 81.44 254.658 82.4C254.658 83.36 254.791 84.1973 255.058 84.912C255.325 85.616 255.698 86.1653 256.178 86.56C256.658 86.944 257.218 87.136 257.858 87.136Z" fill="#0066CC"/>
<defs>
<filter id="filter0_i_4077_5692" x="68" y="0" width="32" height="32" filterUnits="userSpaceOnUse" color-interpolation-filters="sRGB">
<feFlood flood-opacity="0" result="BackgroundImageFix"/>
<feBlend mode="normal" in="SourceGraphic" in2="BackgroundImageFix" result="shape"/>
<feColorMatrix in="SourceAlpha" type="matrix" values="0 0 0 0 0 0 0 0 0 0 0 0 0 0 0 0 0 0 127 0" result="hardAlpha"/>
<feOffset dy="3"/>
<feComposite in2="hardAlpha" operator="arithmetic" k2="-1" k3="1"/>
<feColorMatrix type="matrix" values="0 0 0 0 0 0 0 0 0 0.4 0 0 0 0 0.8 0 0 0 1 0"/>
<feBlend mode="normal" in2="shape" result="effect1_innerShadow_4077_5692"/>
</filter>
<filter id="filter1_i_4077_5692" x="153" y="64" width="64" height="36" filterUnits="userSpaceOnUse" color-interpolation-filters="sRGB">
<feFlood flood-opacity="0" result="BackgroundImageFix"/>
<feBlend mode="normal" in="SourceGraphic" in2="BackgroundImageFix" result="shape"/>
<feColorMatrix in="SourceAlpha" type="matrix" values="0 0 0 0 0 0 0 0 0 0 0 0 0 0 0 0 0 0 127 0" result="hardAlpha"/>
<feOffset dy="-1"/>
<feComposite in2="hardAlpha" operator="arithmetic" k2="-1" k3="1"/>
<feColorMatrix type="matrix" values="0 0 0 0 0.301961 0 0 0 0 0.301961 0 0 0 0 0.301961 0 0 0 1 0"/>
<feBlend mode="normal" in2="shape" result="effect1_innerShadow_4077_5692"/>
</filter>
<clipPath id="clip0_4077_5692">
<rect width="16" height="16" fill="white" transform="translate(8 8)"/>
</clipPath>
<clipPath id="clip1_4077_5692">
<rect width="16" height="16" fill="white" transform="translate(42 8)"/>
</clipPath>
<clipPath id="clip2_4077_5692">
<rect width="16" height="16" fill="white" transform="translate(314 8)"/>
</clipPath>
<clipPath id="clip3_4077_5692">
<rect width="16" height="16" fill="white" transform="translate(348 8)"/>
</clipPath>
</defs>
</svg>
